<?xml version="1.0" encoding="UTF-8"?>
<svg id="Layer_2" xmlns="http://www.w3.org/2000/svg" viewBox="0 0 86.3431962 105.5240846">
  <g id="Layer_1-2" data-name="Layer_1">
    <path d="M74.5072018,24.8063137c2.0179736,1.0660764,3.727611,2.1495933,5.2496726,3.5144813,4.976744,4.4628209,4.3980897,10.9911585-1.3228441,14.4621553-2.1571107,1.3087527-4.4263603,2.3624196-7.0200119,2.4614396-.4276342.0163144-.69521.3663399-1.0446724.547093-1.6407526.8486724-3.2809859,1.6076776-4.9774167.1066325-.1080511-.0956051-.2946909-.1256087-.4494185-.1418573-4.5295631-.475466-7.8891377-3.2599037-11.3331803-5.8235517-1.6491255-1.2275681-3.1251249-2.6877357-4.7217166-4.0793183,1.2450598,6.6046556,2.3271801,13.1566384,6.2102133,18.8695576,2.0107415,2.958295,3.4779657,6.2714711,5.0462138,9.5034113,2.7517211,5.6709302,4.1498046,11.6069717,3.9191063,17.9337773-.1119415,3.0701048-.0481389,6.1460159.5462009,9.1871628.5265007,2.6940757,1.4035534,5.2324879,3.020167,7.482754.2206142.3070858.6075464.6770747.2943619,1.0515243-.2533015.3028445-.6704056.0393711-1.0056961-.0672907-2.1075458-.670508-4.109088-1.5563577-5.7891312-3.030039-.659327-.5783471-.9785225-.4282777-1.2556851.3419523-.8266834,2.2974031-1.5938641,4.5991938-1.4653376,7.0958218.0213089.4139962.2228299.9876267-.2145959,1.2173743-.5613746.2948299-.9580545-.248424-1.3162993-.5847164-2.6069825-2.4471654-4.1428357-5.5278662-5.1876982-8.8903658-1.2501421-4.0231282-1.720226-8.1885526-2.2460174-12.3437978-.8024055-6.3413211-2.3508729-12.5390957-3.5875306-18.7976381-1.2366503-6.2585131-2.7114871-12.472646-3.5963204-18.7993638-.4560437-3.2607666-.3788371-6.5306373-.2596416-9.8048883.0325484-.8940326.0049506-1.7902552-.0930164-2.6890154-.7913781,3.6552966-2.7000355,6.790374-4.4169636,9.9987164-2.5397504,4.745936-5.5753909,9.2296198-7.7036168,14.1909269-2.2774616,5.3092192-4.0640204,10.7544456-3.7175927,16.6635987.1031371,1.7593046.400753,3.4917281.7770235,5.2042027.8895792,4.0486639.3876781,7.9475435-1.2339008,11.7062551-2.481319,5.7515444-6.5481181,10.0494294-12.1325218,12.8920169-.6539595.3328701-1.4823066.9379594-2.0922149.3977183-.6320107-.5598097.1104241-1.327239.3528408-1.9552022.8225847-2.1308072,1.4768258-4.292342,1.6663833-6.5836757.075042-.9070709-.2345703-1.2034438-1.150208-1.0914219-1.384164.1693455-2.774807.3520949-4.1777278.2630785-.5219596-.0331115-1.1382482-.0469908-1.3469282-.5885336-.2163911-.5615574.4043618-.7922995.727444-1.1111221.9661166-.953411,1.9671583-1.87197,2.9197576-2.8384413,3.78043-3.8354428,5.5479028-8.487887,5.5788388-13.8397387.0131846-2.2808986-.2334844-4.5452048-.4608627-6.8075367-.5331588-5.3047731,1.0660106-9.9987969,3.9683239-14.3464222,1.8891912-2.8299806,4.0504226-5.4461112,6.2998184-7.9880847,2.4890155-2.8127667,4.4684955-5.9096431,5.6542062-9.4953236.5456378-1.6500688,1.2567308-3.2331505,2.0886646-4.8050183-1.6800798,1.3214328-3.3493442,2.6569167-5.0430401,3.9606676-2.0259444,1.5595168-4.1513585,2.9638745-6.3846776,4.220949-8.2546293,4.6463163-16.8739277.1728336-20.5041274-5.21953-2.444383-3.6309419-2.0055239-7.6637521,1.0418789-10.8185552,1.3510342-1.3986576,2.9817392-2.3889424,4.7068318-3.2794283-.1045118-.5408846-.6116597-.6000071-.9468808-.8085591C1.3226671,18.3062723.6949269,14.3685408,1.2087256,9.646049c.194435-1.7871218,1.2595534-3.2793662,2.5458784-4.5172633C9.1957975-.1075524,15.1153747-1.7131349,21.7670467,2.0919861c1.8481492,1.0572409,3.5887518,2.2546975,5.1355739,3.7019766,4.3075596,4.0303568,8.0537885,8.5230753,11.0047124,13.6523092.2584716.4492759.5595245.8747273.8058863,1.3301275.263488.4870528.5016817.5798572.995868.2060036,1.6085405-1.2168588,3.3572199-1.0658204,5.1050657-.3473454,1.5171548.6236414,1.9426684.5290382,3.0255199-.761996,3.1940755-3.8081557,6.7714636-7.2179314,10.7110818-10.2468406,3.0592895-2.3520759,6.4359024-4.2103494,10.0006835-5.5889649,4.4331171-1.7144235,8.9049691-1.2764291,13.0282948,1.1036796,3.8790332,2.2390924,5.8326778,8.4197774,4.1647297,12.5732419-.5951442,1.4820067-1.5714875,2.6686534-2.8729495,3.5995745-2.4404963,1.7456849-5.1571753,2.8399404-8.3643112,3.4925617ZM42.9721793,35.7469018c-.0495356.0110859-.0990786.0221718-.1486215.0332651-.0303693.3928627-.0644022.7854915-.0905667,1.1786394-.3555611,5.3428425.3153637,10.5922153,1.4036265,15.809259,2.3933446,11.4735239,5.1348061,22.8779802,6.7001948,34.5150214.5269322,3.9171978,1.5724089,7.73422,2.7912238,11.4937433.6881314,2.1226171,1.847524,3.9369345,3.8289638,5.3713471.3148299-2.9446277,1.1584639-5.5902721,2.1181272-8.2072144.3248481-.8858351.6035318-1.1873414,1.3874656-.3110785,1.4641237,1.636599,3.3624996,2.5816517,5.6567583,3.2523497-1.2901713-2.3466609-2.24699-4.5655266-2.7257467-6.9731381-.6670199-3.3543022-.6272027-6.7469371-.614369-10.1399668.0134552-3.5582802-.093872-7.0931307-1.1745955-10.5401934-2.0209352-6.4460158-5.2867182-12.2934651-8.6359893-18.0971411-1.2431805-2.1542076-2.2671362-4.3769051-3.0583389-6.7335623-1.0691477-3.1845399-1.4790488-6.5338914-2.5301562-9.7171589-.4071662-1.233133-.8508004-2.4595749-1.8766867-3.7296731.3486507,2.222979.1263473,4.1703238.2354515,6.1091896.0626106,1.1124822.1602339,2.2334909.3731626,3.3250956.7127602,3.6541631,2.4306682,6.9001875,4.2336583,10.1030528,1.5259958,2.7107777,3.1401085,5.3744038,4.5908428,8.1245087,2.1172058,4.0135195,2.7525254,8.3356823,2.4298345,12.8794246-.1396928-.0864351-.2514368-.1171773-.2614405-.1679634-.0688702-.3495282-.1479634-.7016231-.1661498-1.055846-.2424862-4.7216581-1.6116849-9.0811373-4.1302068-13.0880461-1.3644163-2.1707487-2.9844815-4.144503-4.6072304-6.1160781-2.6332421-3.1992894-4.6386966-6.6803704-5.0677128-10.9004711-.2174917-2.1394288-.4408115-4.2782653-.6614988-6.417365ZM12.483756,103.6648426c3.8840643-1.5288915,6.6892808-3.973439,9.0410385-6.9492185,3.944386-4.9910182,6.0305498-10.4287711,4.1625139-16.9201178-.9076633-3.1540975-1.12291-6.4357708-.6850089-9.7289834.8342739-6.2740963,3.0974467-12.002818,6.4678878-17.3364174,2.9413444-4.6545722,5.6392592-9.4465192,7.9079311-14.4734642.8640509-1.9145514,1.4547124-3.8850698,1.4859446-5.9893395.0063766-.429594.408753-1.1860032-.4054697-1.2568185-.8184275-.0711773-1.728833-.8504128-2.4406572.5176525-1.665652,3.2012675-3.0712676,6.4660121-3.7965397,10.0228809-.6270711,3.075209-1.436526,6.1076832-3.0322401,8.8658905,2.2422953-6.0621037,1.9155532-12.8541742,5.4164952-18.5642597-1.9995751,1.4713084-3.1609055,3.4700206-4.0230405,5.676645-1.4799409,3.7879327-3.5755306,7.202074-6.2031274,10.3034256-1.7017909,2.0086208-3.4230517,4.0021484-4.9340127,6.1667837-3.5429566,5.0757202-5.8764182,10.468091-4.992711,16.884966.4242704,3.0807374.512179,6.206791-.0383144,9.3054955-.7602045,4.2791062-2.6372312,7.9916313-5.6130838,11.1645441-.8218681.8762995-1.7724381,1.6610158-2.4180429,2.8289203,1.6841164.16117,3.2361011.1404387,4.7427623-.2712686.8569832-.2341791,1.0957692.068329,1.063133.8382885-.013521.318881-.0198757.6384275-.0455649.9563799-.2120145,2.6241672-.7059485,5.1948133-1.6598933,7.9580152ZM6.1443654,8.7482468c-3.1241816,1.0949648-4.7681773,4.2330221-3.7073916,7.0946188,1.0328076,2.7861196,3.1861194,4.5093547,5.8162573,5.7103305.3541754.1617221.6957511.0985155,1.0487418.0004863,6.3297124-1.7578238,12.6742218-1.734226,19.0485009-.2208262,2.0457689.4857073,3.9952453,1.2754328,6.0533578,1.7154911-4.5604297-4.5755668-10.5716778-4.692638-16.4370393-5.3056579,4.3216619-.325371,8.5271046.2967458,12.7335892,1.5144016-.0841389-.1853235-.0986983-.2754222-.1513711-.325148-5.190923-4.9004551-10.9498714-8.8915907-17.8029474-11.1388184-2.9414139-.9645334-4.7347916-.3735903-6.4439317,2.2270119-1.5714327,2.3910667-2.1171034,4.9350877-.7702008,7.8794997-2.199235-1.9343722-1.9093228-5.3464659.6124349-9.1513895ZM62.602753,43.4606611c-1.393696-.0188373-2.6491763-.724965-4.192949-2.1086427-2.409191-2.1593337-4.1877059-4.7921663-5.7715517-7.5791086-.9469832-1.6663138-1.946566-3.2965472-3.3639109-4.62583-1.5271-1.4322115-1.4632243-1.371089-2.8251104.0861864-.7863178.8413891-.6981643,1.3489245-.0006069,2.150394,4.2195596,4.8480968,9.0047351,9.0194152,14.4430291,12.4584193,1.8147635,1.147612,3.7141046,1.3498496,5.7344621.9776742,2.784562-.5129285,4.4639471-2.3054689,4.6246637-4.8684003.1748738-2.7887156-1.4070196-5.0430401-4.0959107-5.8944438-1.1518314-.3647128-2.3365987-.550157-3.5261705-.6101533-3.4719036-.1750968-6.3996465-1.4996923-8.8377297-3.9618888-.7024568-.7094001-1.4727965-1.34559-2.3439333-1.8460614-1.0534036-.6051808-2.1880723-.9548698-3.3992016-1.042804-.3354953-.0243547-.6617182.1009214-.8484896.3642302-.1861718.2624496.104212.425232.275488.5668224,2.2312606,1.8446135,3.6494684,4.2958704,5.0820529,6.7444873,1.7839774,3.0492237,3.812759,5.9042866,6.7935842,7.9249951.7100838.4813746,1.4994071.8458717,2.2522843,1.2641238ZM72.3908004,44.4766169c2.9752456-.8529796,5.674974-1.7974326,7.7627758-3.8994939,2.1105659-2.1249718,2.9148874-4.7422212,1.9362625-7.5859166-1.4070488-4.0886858-4.8647659-6.0574711-8.5406475-7.6997191,3.0476698,1.8840834,6.046696,3.8069419,7.3130136,7.4265785-.3709395-.2974112-.6358316-.6906213-.9119631-1.0757656-2.0887743-2.9133883-4.6549086-5.2267073-8.0494521-6.5517342-1.7287379-.6747968-3.5400791-.5140693-5.3176725-.6732685-4.3556619-.3900803-8.6725743.0734442-12.9834831.675071,2.1048328.2098939,4.1945139.438296,6.1715296,1.2534511-1.3369428-.0546874-2.642339-.4608591-3.9873111-.2990529,2.6229825.3988115,5.1028573,1.24642,7.5297741,2.2613593.1468665-.3257586-.3995903-.331499-.2343619-.7312282,3.8751502,2.200639,6.987032,5.0943125,8.8253055,9.1646363,1.4547782,3.2211907.2582229,8.1565599-4.2616949,8.6722599-.3375355.0385082-.7947419.0660475-1.0163214.6196414,1.7123942.1719414,3.1230701-.3234076,4.3570879-1.3639995,2.7192384-2.2930229,3.2083717-7.1046919,1.0850745-10.4247419-.3157366-.4936927-.7966725-.9118644-.9170088-1.6626356,3.4766202,2.8425035,3.8511429,6.3338879,1.2390928,11.8945585ZM7.8813812,40.880823c0-.717199-.0227057-1.3141201.0037952-1.9088548.140223-3.146858.863071-6.1632444,3.03005-8.512834,5.1037823-5.5338699,11.5162844-7.4330026,18.8717002-6.26644,1.4877947.2359633,2.9225729.7899412,4.3971537,1.1308222,1.1550635.2670237,2.2876042.7174403,3.6739072.678157-7.0847139-4.0238814-14.4348975-5.8745864-22.4241559-4.791563-3.6302436.4921205-7.1309113,1.3381201-10.2987529,3.2481742-2.0185623,1.2170964-3.5547555,2.829242-3.9998303,5.2538225-.7165738,3.9035744,2.5344341,9.3950274,6.7461327,11.168716ZM84.7291576,12.4024976c-.6677292-2.0661966-1.3096448-3.8020022-2.9645985-4.8416069-2.5808765-1.6212571-5.3931387-2.3311179-8.4508779-1.8648037-5.7476541.8765262-10.7690269,3.3150408-15.2258515,7.0086518-2.5839917,2.1414983-4.9243198,4.5459068-7.4337668,6.7665641-.5374331.4755867-1.0798314.9458241-1.6074802,1.4320397-.175393.1616233-.3394734.3790967-.1349762.6165409.1570383.1823619.3666178.0783034.5501497.0003839.9533963-.4047567,1.912204-.7974366,2.8581927-1.2188551,6.9146226-3.0803388,13.8686747-6.0686448,21.0112094-8.5852983,3.7635744-1.3260836,7.5441141-1.7467196,11.3979992.6863836ZM2.9814964,7.6613002c.1357586-.0108848.2615355.0162888.3397001-.0326252,2.7560026-1.7245697,5.6538881-1.6560396,8.6400003-.7329906,8.4155214,2.6013482,15.63327,7.1038839,21.6711689,13.5228174,1.282888,1.3638459,2.7005108,2.6008619,4.0540825,3.8983714.4405483.4223033.7038315.4406726.825879-.2614332.193872-1.1152354.3849432-2.1793739-.7992684-2.937582-.3527823-.2258719-.5983252-.6383654-.8545371-.9931331-4.6386966-6.4230249-10.739484-11.3516958-16.8356681-16.2460961C14.6388447-.444002,6.3524896,1.4787286,2.9814964,7.6613002ZM51.6096677,22.8020073c.195722-.0092614.3935428-.0033382.5868736-.030011,4.3080715-.5943873,8.6417517-.8927748,12.9782034-1.1876376,4.2559179-.2893783,8.4986146-.7362374,12.6339768-1.8600907,2.0175568-.5483033,3.4147117-1.880928,4.259289-3.7396256,1.0843506-2.386383-.1002998-4.2730587-2.714222-4.3904846-1.6832169-.0756234-3.3470408.1575648-4.9634862.6240071-6.3433613,1.8304527-12.3095748,4.5680055-18.1522124,7.5981543-.7663397.3974441-1.5351.7902374-2.3027413,1.1851878,3.4604374-.6318681,6.8985421-.9847784,10.3837035-.9345883-4.234141.8910125-8.542951,1.3804711-12.7093845,2.7350885ZM37.1888689,28.0317128c-.7457621-.0129653-1.1880873.2763363-1.6541346.461126-5.2225574,2.0707524-10.3971075,4.2849965-15.9158951,5.4888315-2.6815236.5849248-5.3327475,1.3981896-8.1280188,1.2628697-.6413051-.0310457-1.4223724-.5768261-1.8724307-.1114588-.4654075.481243-.3435867,1.3581567-.3823472,2.0751071-.0193163.3573161-.0070713.7187054.0211371,1.0758606.1824862,2.3108876,1.3920836,3.6338341,3.6909821,4.0241301,1.5255168.2590054,3.0241158-.0084973,4.5075266-.3178865,3.3536806-.6994513,8.1037811-3.1374613,9.8911589-5.1509231-3.9854975,2.2100394-7.7758288,4.2372488-12.2326168,4.3456948,8.82996-1.8224125,15.6638257-6.9463849,22.0746386-13.1533514ZM83.1447341,13.4971298c-.1239268,3.8366018-1.2043579,5.2779724-4.7636252,6.4690176-.4909834.1643034-.9970746.2828957-1.4915534.4374075-5.8505718,1.8281273-11.9318126,1.9566683-17.9643879,2.4576407-2.9402182.2441718-5.8753177.5519778-8.8102781.8547748-.2737769.0282486-.7560582-.0469689-.7447163.402636.0130311.5164495.5130528.390285.8381788.4252247.2736599.0294077.5569724-.0166289.8347858-.0424387,2.5414615-.2360986,5.0841882-.4598316,7.6235583-.7167602,3.9074427-.3953454,7.8065564-.1818464,11.7131435.0468921,4.6155448.2702522,8.8700953-.9821751,12.6347958-3.6103496,2.6523719-1.851641,2.6451032-4.339406.1300987-6.7240449ZM37.4688542,26.9952671c-2.3741709-.6132648-4.5284004-1.1718935-6.6838219-1.7258896-2.3890667-.614051-4.7950329-.783422-7.225372-.2594478-2.5241892.5442082-4.7262431,1.7025953-6.9248566,3.5362217,7.1497669.4329943,14.0298483,1.5511694,20.8340504-1.5508842ZM30.2534347,29.6876573c-2.1756262.1875977-4.3334389.2055063-6.4809591.0666142-2.3462587-.1517477-4.679139-.5067859-7.0250722-.6683105-2.1890887-.1507202-4.4155157,1.5392572-4.9881187,3.6417024-.328541,1.2063323.3676635,2.0548694,1.5942846,1.8961711,4.2096912-.5446396,8.2547025-1.7599701,12.2718965-3.0730701,1.5802041-.5165227,3.1718671-1.018325,4.627969-1.8631071ZM39.7021038,29.9470356c.8597364.1591151,1.5843723.2235685,2.1131985-.262329.6369943-.5852868,1.2263176-.4791918,1.9555166-.255967,1.2225955.3742595,1.7796191.023393,2.1054836-1.2201202.335349-1.2797509.4543618-2.586957.3102156-3.9048065-.2751078-2.515085-2.3954799-3.9305579-4.7993327-3.2566861-.6586323.1846325-.8493598.4234624-.4789395,1.0745663.5876634,1.0329612.6926213,2.1595641.5806945,3.3471102-.1538354,1.6321529-.8425737,3.0343352-1.7868366,4.4782323ZM79.8128963,5.3993632c-2.1165988-1.2837107-4.4436692-1.602429-6.8598292-1.6407544-3.6180827-.0573894-6.6089846,1.6595222-9.5624607,3.3867318-5.6372117,3.2966751-10.2633525,7.8017045-14.6307073,12.5904851-.1592467.1746288-.4450894.3376964-.3009213.7420875,1.135239-.7644275,2.0822734-1.6710304,2.9704193-2.6240429,2.6826388-2.878551,5.7591641-5.2812411,9.0085157-7.4626552,5.8579429-3.9326603,12.0290264-6.7315806,19.3749834-4.9918518ZM53.8298716,27.1555084c1.3221494,2.2062149,3.0159623,3.803132,5.3588133,4.5947222,2.2384415.7563068,4.5171756,1.1512171,7.0807431.7274293-3.4752601-3.716909-7.7320555-5.0262284-12.4395564-5.3221515ZM18.9534975,1.5270156c3.5304118,2.4777541,6.6550395,5.4388736,9.5840475,8.5962874,2.9202841,3.1480024,6.1057892,6.0507691,8.7601502,9.4385923-4.7357569-7.4133171-9.8088518-14.4900748-18.3441977-18.0348797ZM49.8157817,52.7843138c.0792321-.4066543-.1390493-.6607237-.2909834-.9102007-3.0561963-5.0182942-4.6521664-10.431155-4.5991061-16.3371125.0131261-1.4613669-.3077147-2.9261927-.4822667-4.388565-.0737257-.6177036-.500636-.9964237-1.0518168-.8980216-.6435171.1148884-.2756635.7057401-.2131334,1.0501056.4994514,2.7504121.8389467,5.5257895.8519704,8.312984.024468,5.2364514,2.4717724,9.3487203,5.785336,13.1708103ZM40.4368457,24.1500763c-.053404-.2940218-.1302669-.8057145-.2450602-1.308749-.0512248-.2244825-.1554442-.4952649-.4390419-.4834038-.3162851.0132285-.310296.3444679-.3477.5488517-.3372942,1.8429901-.6572795,3.6892783-.9628735,5.5378114-.0448044.2710456-.0108227.6271771.3135502.6934549.3355904.0685704.4216964-.3017805.5491406-.5276122.7408699-1.3128916,1.0764968-2.7362037,1.1319849-4.4603529ZM67.3362576,32.3363291c-3.2338269-3.8491429-7.5353901-5.4442173-12.3981524-5.8200416,4.5464845,1.037517,8.9032507,2.4784817,12.3981524,5.8200416ZM47.4865688,25.8263645c.8082995-1.3691805.8338351-2.5287303.4180401-3.730302-.131393-.3796927-.3661498-.6157987-.8114659-.3865812-.3215575.165521-.4966799.3619267-.3071516.7513343.4701863.9660325.5703471,2.0249681.7005774,3.365549ZM24.8363764,89.2702302c.0542376-.1474076.0590566-.3130163.0868665-.4701497.5153709-2.9122987.1593199-5.811208-.1737476-8.7033604-.4856488-4.2170294-.8023068-8.434622.0640073-12.6334942,1.0461568-5.0705282,3.0749824-9.793137,5.2596396-14.4555849.1948884-.415934.5588151-.7987785.4683216-1.5159117-1.1322701,1.7744344-2.0753849,3.4331248-2.916891,5.1531022-2.9878892,6.1070397-4.967914,12.4497795-4.4129892,19.3533965.1883912,2.3436773.4425812,4.6916618.8462666,7.0063666.7736194,4.4359252-.0389689,8.3917335-3.1016734,11.8042148-.9317985,1.0382153-1.7675386,2.1628291-2.6433591,3.2510335-.5397365.670625-1.0720617,1.3472024-1.6077105,2.021118,3.6450699-1.6534253,7.2320886-8.3670388,8.1312692-10.8107307Z"/>
  </g>
</svg>