<?xml version="1.0" encoding="UTF-8"?>
<svg id="Layer_2" xmlns="http://www.w3.org/2000/svg" viewBox="0 0 99.9598981 100.7739443">
  <g id="Layer_1-2" data-name="Layer_1">
    <path d="M35.0705382,46.5500361c-4.4871244,2.4027998-9.0274444,3.681951-13.7086382,4.5260604-4.058375.7318023-7.9321066.3722412-11.5619919-1.7671584-3.145922-1.8541638-4.403874-4.8101846-4.9372943-8.2064539-.2854478-1.8174253-.3946488-3.6522107-.2681553-5.4912008.0481097-.6994367-.1181608-1.3294766-.3663563-1.9729864C2.5633058,29.321849.9677763,24.9906953.208208,20.3897464c-.5058682-3.0642036-.074276-5.963069,1.1243323-8.7724463,1.3763176-3.2259,3.3620316-6.0577637,5.7185828-8.6448303C9.5334914.2472661,12.6478888-.3953497,16.1205309.209076c5.4765756.953219,10.6166942,2.852955,15.4078697,5.6697144,2.3516444,1.3825406,4.1325066,3.3916184,5.6933214,5.5775774,2.3893007,3.3462656,4.8244369,6.6542168,7.4158948,9.8477585.363232.4476269.5173088.6219047,1.0684091.1722888,2.1382149-1.7444783,5.6683781-1.9672095,7.9688159-.4548773.7838608.5153197,1.1698935.3291918,1.8071437-.1939158,4.8811681-4.0068869,9.1643401-8.6742526,14.0528648-12.6705582,4.773351-3.9021521,10.1379047-6.2590469,16.3831015-6.4696867,4.2286784-.1426215,7.7738983,1.0789319,10.3063141,4.6487953,1.4451987,2.037246,3.2237867,3.8670588,3.6283057,6.5019646.2317659,1.5096886.0895502,2.9801524-.4401022,4.3595815-1.8476995,4.8122431-2.1550558,9.8713673-2.5441306,14.9230582-.2792467,3.6256512-.6636634,7.2328455-1.9154581,10.6830379-.8562117,2.3598601-2.0276263,4.4934535-4.1013805,6.0478075-1.6255496,1.21842-3.4983679,1.482983-5.4222356,1.5952681-5.3277566.3109469-10.5060435-.4352905-15.5260342-2.257096-.2915758-.1058135-.587093-.2007458-1.0695279-.365009.2001608.4652722.3164386.7784421.4653453,1.0752391,2.1106098,4.2070185,4.1620094,8.4524135,6.7796025,12.3751031,3.0230555,4.5302944,4.425395,9.4632139,4.3329782,14.9145975-.0768921,4.5352012.4463472,9.0074261,2.5456736,13.1516805.3077732.6075756.6186689,1.2008551,1.0373159,1.7409573.2071443.2672394.5753855.5481534.318669.9374402-.2581425.3914148-.6923946.3463399-1.0894548.2293674-.7250454-.2136087-1.4714437-.3847019-2.1606792-.6844824-2.530361-1.10057-4.7134022-2.6707119-6.3792663-4.9052486-.0930457-.124819-.2089944-.2333089-.3209871-.3425154-.0191737-.018713-.0722705-.0026545-.1966507-.0026545-.0397075,3.9063093-1.5175277,7.4270099-3.0125838,10.9461603-.2478025.5832685-.3982302,1.2087747-.580497,1.8186903-.1024936.3429615-.3139962.5775501-.6655354.5946469-.3652284.017755-.5843508-.2413162-.6949833-.5608042-.1429762-.4129578-.3094112-.8302154-.3658353-1.2587783-.6087895-4.6235595-2.8580464-8.3135544-6.3679463-11.3005514-.6687018-.569082-1.277696-1.2115023-1.9675824-1.7520066-4.3836765-3.4344776-6.0231348-8.0815106-6.020824-13.4730771.0011846-2.7588874.2031736-5.5103818.486625-8.2464319.9067858-8.752684-.7792392-17.0683517-4.032854-25.1422645-.0272395-.0675758-.1050822-.1147641-.2418646-.2578354-1.1404091,3.353666-2.0863027,6.7021327-2.9607301,10.0743215-1.5479702,5.9696065-2.2863684,12.0650557-2.844913,18.186567-.4307567,4.7209196-2.0261784,9.0011519-4.7156325,12.8846678-1.6358531,2.3621636-3.3091322,4.6984406-4.9405283,7.0636536-2.9515126,4.2791208-5.2503673,8.8373421-5.985398,14.0659178-.1378318.9804603-.508179,1.0870343-1.3286393.272073-3.2112346-3.1897319-5.0712741-6.9314708-4.5265065-11.5978968.0728592-.6240656.1594807-1.2465224.2597513-2.025235-1.3181201.6710784-2.3376262,1.493323-3.3639256,2.2919918-1.2905589,1.0043141-2.53435,2.0686281-3.8029638,3.1013443-.2011809.1637659-.3901278.4909541-.7008882.2556343-.2844423-.215393-.1124351-.5034733-.001532-.7603726.694369-1.608482,1.4244236-3.192262,1.7733046-4.9383089.6516926-3.2615636.5387311-6.535939.1005118-9.7787019-.9225006-6.8263666,1.1808771-12.4066497,6.4462096-16.8396498,1.586972-1.3361092,3.0957026-2.7672311,4.6089891-4.1881446,1.2538094-1.1772866,2.3778126-2.4763427,3.3621632-3.8904336,1.096804-1.5756411,2.0049608-3.25839,2.9888983-5.3094093ZM5.6323485,28.0433596c.2585813.570965.1184168.9954987.0875539,1.4129135-.1706361,2.3079625-.4310346,4.6127149-.5047018,6.9235366-.0893875,2.8039916.1367531,5.5870326,1.2935534,8.208655,1.3124492,2.9743681,4.3014097,5.2909084,7.1059973,5.4711862-.3493381-.3727604-.6935025-.7055573-.9982446-1.0712025-1.2423469-1.4906173-1.1809356-2.7236406.207148-4.1007077.3390931-.3364094.6939632-.6688334,1.0863579-.9377547,3.609516-2.4737687,7.5100629-4.1416072,11.9311727-4.5418776,3.3771395-.3057549,6.7393064-.7914878,9.9017073-2.1394288,3.5741924-1.5234729,6.2767215-4.1177388,8.9693932-7.1748235-2.8587338.3559121-5.2631863,1.3501896-7.7902566,1.8057836,2.2355165-.9960581,4.5951061-1.5597398,6.9547834-2.1250083.5617036-.1345594,1.34993-.1743546,1.1386321-1.0179704-.1988884-.7940509-.8568187-.230914-1.2871732-.1885008-1.482047.1460804-2.9439696.5209578-4.4938264.4403581.1674515-.4429761.4996707-.3248737.7475463-.3745995,1.4073121-.282318,2.8675382-.2037769,4.256225-.6263032.4095209-.1245996.8789466-.1046618.8854037-.7485408.0069909-.6956597-.5454184-.6038206-.9177474-.6867091-2.1788584-.4850857-4.3592524-.9678643-6.5512296-1.3883176-2.9723425-.5701351-5.941186-1.2861128-9.0045523-.8288699-.8441496.1259963-1.6671657.3935977-2.4998784.5962228,1.4133157-.921166,3.8358047-1.1876632,6.3794747-.9731038,3.7567591.3168884,7.3636388,1.3708185,11.0285076,2.1411838.5096598.1071334,1.0281312.316914,1.8807452-.1872943-3.5646568-.8881496-6.8021619-1.7461054-9.9219194-3.379655.632497-.1181352,1.0080581.1397952,1.4079921.2805227,2.253915.7930929,4.4277497,1.8191437,6.7800705,2.3258419.4501424.0969652,1.0279265.4198682,1.3145662-.0065667.2702083-.4019925.1322559-1.0134512-.1340914-1.4843541-.1548519-.2737805-.338435-.5495574-.5681314-.7599924-2.8615565-2.6216334-5.8579063-5.0645245-9.3170165-6.8760851-3.2585033-1.7065003-6.838374-2.3672678-10.3740984-3.1718379-3.933004-.8949795-7.8873096-1.7616922-11.2255788-4.2133622-2.3075713-1.6947123-4.4937314-3.5048798-3.5054465-6.9215659-.7130052.0853236-1.1025115.5203618-1.5058385.8830527-3.2463918,2.9193115-5.4798589,6.5229006-6.9603995,10.5942482-.701124,1.9280285-.940698,3.9399583-.7060893,6.007632.5268718,4.6434717,2.0963593,8.9908594,3.710388,13.3279107.0274552.0737842.1770493.102106.3025428.1692358.2418116-1.5510378.1846727-3.1160683.8964585-4.6638519ZM93.7883985,27.6959667c.3027275-.5551479.6106542-1.1075352.9072903-1.6659189,1.3275607-2.4989935,2.7205035-4.9693582,3.7177902-7.6258654,1.9187707-5.1110949.1215795-10.5397509-4.4641006-13.5969856.349711,3.0017392-.0892797,4.6404735-4.1461264,5.8634895-.8713196.26268-1.7893448.4207969-2.6971251.5039011-5.0495703.4622667-10.0557329,1.18842-14.9808425,2.4088217-4.6609269,1.1549392-9.0459124,2.8783938-12.5612163,6.3168604-.2737842.2677951-.6384349.4952649-.7467785,1.0902628,2.156277-1.7708951,4.320949-3.1740938,6.9546591-4.1543604-.391137.7682008-.9477583,1.0339155-1.4528258,1.3253304-2.7914212,1.6105917-5.1553837,3.7508176-7.4581763,5.9677673-.5625592.5415939-1.0728917,1.1270014-.9039704,2.0707122,3.4896221-2.0541564,7.1447943-1.5795826,10.797473-1.1053926-2.058054-.0128994-4.1227406-.1036526-6.1808824.2076672-1.6447014.2487787-3.2006203.7104239-4.4481299,1.8690852-.9620691.8935426-.8953342,1.2554474.2866251,1.7623613.6946908.2979341,1.4126064.5445226,2.1283941.7899485,2.8538636.9785188,5.6478077,2.133118,8.5672654,2.9446131-3.8087444-.7171039-7.4173134-2.2501527-11.4751985-2.7946607,1.7168988,1.9760541,3.5614173,3.4398378,5.8404804,4.3180532,1.3403359.5164897,2.6881672,1.0289429,3.913227,1.7805551,2.8567228,1.7526867,5.9613286,2.5164597,9.2892469,2.788445,4.8155082.3935501,9.4218903,1.630939,13.5739545,4.2331172,1.7922041,1.1232244,3.5533734,2.270288,2.4831142,5.1951936,2.3630777-2.310873,3.4843058-4.8305649,4.1981483-7.5617009,1.5334181-5.8668862,1.1374986-11.9779588,2.2869534-17.9043404-1.1344712,1.7030048-1.9490376,3.579633-3.4292491,4.9730401ZM28.5256632,62.8437629l.3202924.2697257c-1.1043469,1.2005626-2.2356883,2.377564-3.3079622,3.6061193-3.1770372,3.6400937-5.5633251,7.741167-6.4161694,12.5245509-.584285,3.2770883-.0508702,6.6972991-1.2570306,10.2241789,2.0449169-1.3626978,3.7825945-2.5446572,5.5494494-3.681271.4449066-.2862083.9829174-.9624786,1.4301896-.6016232.480647.3878024.0212651,1.1182299-.1272138,1.6842699-.6504751,2.4797577-.5859669,4.9143016.4578572,7.3257083.4769614-3.2965984,1.4926795-6.3603632,3.4162583-9.0988484,1.8909901-2.6920721,5.3465208-6.1248166,6.9060083-6.7392223.0125228.5281241-.4334331.735305-.722358,1.0286797-1.0644164,1.0808186-2.2131765,2.0845184-3.2186313,3.2163424-3.2183169,3.6228432-5.2851863,7.7349147-5.4219833,12.7085435-.0452212,1.6440798.8790198,2.5795091,1.8560761,3.6877646.1158354-.2371041.1913418-.3378719.2159889-.4498426,1.0956522-4.9779432,3.3041852-9.4715283,6.0318002-13.7270514,1.6362187-2.5527888,3.3974978-5.0256215,5.0248098-7.5838508,2.1021491-3.3047007,3.4763497-6.8914123,3.9674573-10.8032719.526625-4.1948064.7841533-8.4256494,1.6357215-12.5771798.5255647-2.5622001,1.0892573-5.1165903,1.6358385-7.6744833-.2310127.24985-.3538646.5374769-.4688335.8282264-1.7250377,4.3624919-2.6864194,8.9297516-3.5513478,13.5149271-.9752684,5.1700967-2.3538931,10.1803983-5.268583,14.6454276-.2596562.3977768-.4333673.8782593-.965879,1.1732354,0-.2414405-.0383985-.3746909.0064863-.4677804.2247824-.4662594.4419011-.9403726.714954-1.3785516,2.2495787-3.6100681,3.4719767-7.5882676,4.3072524-11.7227596.9311294-4.6089927,1.6270414-9.2723913,3.1219293-13.755395,1.3517801-4.0538485,3.2016075-7.9050865,4.7791718-11.8667669.3050456-.7660399,1.0057766-1.6898714.5870345-2.3342879-.3837439-.5905884-1.3889867.1941864-2.1301564.0894406-.9662665-.1365411-1.5348367.3633125-2.0614544,1.0895352-1.0540471,1.453579-2.2166865,2.8296442-3.2462803,4.2995011-3.652452,5.2142941-6.5535514,10.8480543-9.1895504,16.6273647-.4941424,1.0833853-.9395609,2.203714-1.8332461,3.0635016,2.4101782-5.3558882,4.555713-10.8279446,7.5690428-16.1606299-1.3723139.8199777-2.0119261,1.9047305-2.521659,3.0778343-2.0873191,4.8037276-5.0987,8.901386-9.1059343,12.3004047-2.0675824,1.7537617-4.0353001,3.6382289-5.6977419,5.804027-2.2823282,2.9733736-3.5256001,8.4864538-2.6108582,11.8294653,1.887619-5.6725024,5.226561-10.2001935,9.5892541-13.995958ZM81.2643375,90.1453685c-.0486508-.4134916-.0723071-.7151807-.1209287-1.0127967-.7586907-4.6440348-1.8667342-9.2443474-2.1976006-13.9413328-.3608993-5.1232521-1.8112315-9.833371-4.331289-14.2890256-2.1777176-3.8503897-4.5111061-7.6208161-6.29678-11.6863867-.9300691-2.1175641-1.9506464-3.0624778-4.5059142-4.230492,3.7274867,5.722645,6.0758441,11.8187157,8.5640844,17.8576896-.7592977-.476402-1.0842555-1.2506759-1.4000945-2.0047744-2.0966866-5.0060237-4.4876619-9.8680474-7.0817157-14.6331132-.591934-1.0873414-1.0791148-2.2728328-2.033959-3.0794942-2.9809495-2.5183683-5.529475-5.4109376-7.7452986-8.6110826-.7286213-1.0522848-1.499451.0459963-2.2473191.0434003-.4843289-.0016819-.0710128.6815939.0249945.9929868.8257401,2.6781196,2.1355312,5.1497823,3.33956,7.6668197,3.3860755,7.0786298,5.4218553,14.4706489,5.2210071,22.3904776-.0700621,2.7626388.1923875,5.5020747.8050235,8.2021321.1090822.480753.2112613.9586541.0915831,1.5276045-.5184422-.3890602-.5235391-.9036194-.6392539-1.342186-.7068078-2.6789752-.9168772-5.4230546-.9970746-8.1796605-.1023473-3.5175343-.3856744-7.0144909-1.2193926-10.4440179-.7262593-2.9874943-1.6698056-5.9033542-2.9619001-8.697291.2459231,1.4549757.656146,2.8783609.8293745,4.3300312.5697548,4.7747769.35102,9.5661828.1167897,14.351095-.1268299,2.5906974-.4094551,5.1722759-.3272979,7.7738983.1188811,3.7645616,1.3738715,6.9866225,4.2146455,9.5707678,2.1721966,1.9759627,4.4681299,3.8234208,6.4858622,6.0031202-.7954147-1.5977544-1.7005844-3.1210664-2.5797577-4.659245-.8902519-1.5575716-1.8798676-3.0677209-2.3717285-4.8392011,1.6474802,2.6717869,3.4196404,5.2502283,5.1463454,7.8584613,1.7348951,2.6206206,3.021922,5.4152593,3.4854465,8.8099417,1.8186465-3.2551359,2.4972714-6.5416428,2.8273773-9.932742.0595905-.6121387-.3004094-1.5793047.2778792-1.7530304.6545226-.1966069.9438168.7947273,1.3634803,1.2862006.9571989,1.1209795,1.8399188,2.3125329,3.2049275,3.0088032-1.3655424-2.4407449-1.9730961-5.0774679-2.3349022-7.7790537-.5079706-3.7930515-.8275244-7.6171671-1.9985001-11.2932315-.0580548-.182223-.1321023-.4344276.1229981-.6259961.4681388.5622886.6674294,1.2110562.8886797,1.8418348,1.1150928,3.1790262,1.6644308,6.4796026,2.0941345,9.8065191.3276416,2.5367449.6877292,5.0716178,2.0259151,7.3257303.5441607.9166358,1.1074877,1.8379883,2.2605988,2.3866389ZM57.1254438,37.1575352c3.2753625,4.0368467,7.0166408,7.5466881,11.7933995,9.6948409,4.9716105,2.2357944,10.2278132,2.9981999,15.6614857,2.3427633,1.3003944-.1568701,2.6316041-.1808555,3.8314354-.8271441,1.6865368-.908453,1.8912168-2.4072166.4452942-3.6370443-.5116049-.4351589-1.0898424-.8193562-1.692226-1.1160069-4.3972634-2.1655348-9.0014225-3.6862289-13.8996582-4.145534-2.8718673-.2692869-5.589102-.8591733-7.9051596-2.7108436-.4000583-.3198463-.8819741-.542859-1.3404529-.7831734-3.036189-1.5914436-6.5002388-2.4669241-8.7450204-5.4373873-.4988371,1.2817399-.5200071,1.2970525.1540109,2.2288474,2.9447009,4.0708942,6.831873,7.122447,10.8698166,10.0083764.401126.2866836.9616377.4094258,1.1246504,1.2820763-4.0699216-1.577323-7.1516389-4.2743676-10.2975755-6.8997706ZM44.7463846,32.5444401c-.8631075.831071-1.6515167,1.7309024-2.6494615,2.4070484-3.754302,2.5437065-7.9086734,4.1045469-12.3299623,4.9600785-3.9456694.7635024-7.9658945,1.2075388-11.609937,3.1026094-1.3479227.7009869-2.6905876,1.412526-3.8174903,2.4376883-1.2592061,1.1455352-1.1702518,2.3850521.1769615,3.4190919.8790234.6746908,1.8984344,1.0257546,2.9840793,1.114303,5.8615773.4780766,11.352438-.887422,16.3785019-3.8053587,4.1955742-2.435787,7.2795511-6.1472225,10.29789-9.889934.9461861-1.1732573,1.5296301-2.2276189.5694184-3.7455269ZM41.5968428,19.5343976c-3.045103-3.6950114-5.14119-8.0858177-8.6759747-11.3645879-.881773-.8179119-1.8078128-1.5855204-2.8688983-2.1479004-4.0318266-2.1368877-8.1982308-3.9411392-12.7146752-4.7780987-1.4847892-.2751516-2.9998526-.5219614-4.5003712-.0047002-1.8011401.6208882-2.5529752,2.4722989-1.6634253,4.1570551.515221.9758022,1.3316631,1.6874802,2.2023867,2.3324854,3.2843936,2.4329789,7.0646664,3.6765068,11.0168221,4.3943676,5.3554641.9727528,10.4717912,2.5003354,14.9389741,5.7491495.757411.5508371,1.5102298,1.1079923,2.2651618,1.6622297ZM55.6225266,23.2203852c4.0775853-5.8683926,9.8958938-8.6400149,16.4887103-10.2103141,4.3915376-1.0459959,8.8273238-1.7628805,13.2987517-2.3409534,2.4808473-.3207238,4.8196033-1.1422482,6.6751126-2.9390884.8036414-.7782264,1.3263103-1.6965478.9861715-2.8957868-.3415648-1.2042591-1.1515608-1.8238128-2.3500539-2.1040504-3.7159327-.8688772-7.3800118-.5237-10.9965296.4795282-3.4719255.9631148-6.5129627,2.7808801-9.306724,5.0223052-5.205636,4.1764591-9.6871114,9.1550641-14.8290034,13.4017901-.5924166.4892795-.426764.936943.0335649,1.5865698ZM45.7739527,30.6542873c0,.5980107-.0373382,1.1988295.0074662,1.7934655.10634,1.4113925.3827348,1.6636849,1.8135203,1.5135204,1.4653303-.1537915,2.9252713-.3711808,4.3805175-.6046798,1.0604676-.1701645,1.7574326-.8613452,1.9330742-1.8792863.4335355-2.5125438.8324384-5.0398006.7392392-7.6019166-.0344643-.9473963-.4157512-1.8219262-1.2936302-2.3038821-2.2072971-1.2118094-4.4447807-1.0567967-6.6388128.0366106-.6789613.3383618-1.0417619.9178388-.925762,1.7691913.330296,2.4239735.2830712,4.8528098-.0156124,7.2769771Z"/>
  </g>
</svg>