<?xml version="1.0" encoding="UTF-8"?>
<svg id="Layer_2" xmlns="http://www.w3.org/2000/svg" viewBox="0 0 94.6779358 113.0922244">
  <g id="Layer_1-2" data-name="Layer_1">
    <path d="M53.720144,31.8023129c5.0045308,4.2755643,10.1120852,8.2765054,14.7806208,12.7721171,8.2223301,7.9177703,14.5786394,17.1133491,18.5180119,27.8768511,1.4014873,3.8292487,2.1284543,7.7925409,1.7249663,11.9166822-.4434184,4.5322812-2.3734896,8.2986222-5.7515891,11.2964188-2.1795506,1.9341592-4.492247,3.7174704-6.7181976,5.6003998-1.9908719,1.684064-3.7306025,3.5857863-5.0081514,5.8906628-.7175891,1.2946428-1.0021392,2.6343205-.7598416,4.0902131.0332308.1996815.0866642.4021526.0787701.6012702-.0180733.4559124.1746712,1.1365091-.3833151,1.237396-.4953383.0895799-.5501442-.6040301-.6951681-.9962855-1.5972292-4.3202393-1.4725266-8.6281701.0375339-12.9543893,1.0119994-2.8993358,2.1955243-5.7502462,2.8140071-8.7732459,1.7166419-8.3905466.1230481-16.1535441-4.4755611-23.3405042-2.2809717-3.5648195-4.9577673-6.8272308-7.9201222-9.8208058-5.7893679-5.850406-9.6053807-12.7613629-11.6460728-20.6969282-.4330315-1.6838748-.9007108-3.359121-1.3108316-5.0484416-.1475539-.6077991-.3136484-.9387344-1.0748923-.9682481-2.2433042-.0869684-2.2847852-.1325744-3.1887604,2.0368304-1.4314611,3.4353167-1.9619888,7.0847823-2.4546858,10.7350455-.6711149,4.9721532-1.3823457,9.9255803-2.6076854,14.8100455-1.6753687,6.6783637-4.9855153,12.3357581-9.9240779,17.0840134-.8759973.8422397-1.7080022,1.7321704-2.6093622,2.545757-3.7971457,3.4273187-6.1140932,7.6848951-7.2296319,12.6471585-.3456551,1.5375562-.8315635,3.0430317-1.2075261,4.5744225-1.1062164,4.5059281-3.6229307,8.1735189-6.7721466,11.4678848-.2697525.2821834-.5057808.6389451-1.0458534.7190432-.165438-.6160642.2027827-1.074781.4658727-1.5107802,2.6373809-4.3705195,2.4992272-8.8332231.4900854-13.3677894-.8212952-1.8536456-1.7733843-3.647826-2.872122-5.3423066-4.5360688-6.9955734-3.4629162-13.9398575.1958086-20.8098898,1.9355095-3.634323,4.8069341-6.4983061,8.1615665-8.862262,5.8737246-4.1391356,11.1479041-8.8700151,15.0964023-14.9563826,2.3981475-3.6965853,4.586349-7.5522242,7.8253154-10.6765337-2.7362831.8484014-5.5014048,1.3995324-8.3114872,1.7200399-6.9658407.7945043-13.8345339.6761823-20.3608402-2.331723-2.7151865-1.2514035-5.0939475-2.9694365-7.0595012-5.2517474C.3774523,23.2265375-.5011325,20.5018692.2825045,17.1828047c.9161187-3.8801929,2.7238986-7.2491167,5.1833623-10.3168377,1.1668687-1.4554456,2.5758457-2.6973265,3.7991748-4.0928581C11.5474861.1693649,14.1659591-.4924018,17.5242863.336641c9.1936424,2.2695627,17.0889583,6.5973103,23.1948904,13.9445464,1.3321323,1.6029457,2.1951385,3.4899482,3.0386024,5.3741166.2837563.6338592.6290256.9531314,1.3628479.8853678.8987521-.0829991,1.7595103.1592763,2.6075296.4676979,1.5249213.5545957,2.3869704.1667215,3.1524358-1.224646,5.8345362-10.6052923,14.704262-16.8614547,26.7181436-18.5930649,2.4411828-.3518594,4.4002632.2095676,6.1315952,2.2287977,3.5427844,4.1318796,6.9976062,8.2919987,9.4252118,13.2061557,2.5735792,5.2096506,1.9687477,8.488488-2.4616673,12.2557119-6.5296376,5.5522007-14.1917407,7.5022222-22.6173136,6.8566555-4.6946068-.3597034-9.1580004-1.5674929-13.362544-3.7041269-.2151283-.1093262-.4456442-.191064-.6748023-.2684393-.0663503-.0224024-.1529625.0152057-.3190719.0368996ZM18.6680106,58.6662335c.0999261.0908041.1998521.1816082.2997745.2724123-1.3982303,1.445528-2.8191486,2.8699259-4.18972,4.3412135-2.4575979,2.6381933-4.9599597,5.2657623-6.6319007,8.4968421-2.7365799,5.2885023-3.3511008,10.5835335.2179365,15.8338638,1.2510251,1.8403503,2.2523853,3.8360967,2.9991283,5.9455132.071592.2022189.1391293.4047716.3917248.4980092-.0448085-.9188731-.2755061-1.8086998-.0751718-2.7256959.3808371.1261271.3922998.3917805.4544694.6161235.631715,2.2796807.4192614,4.6298517.5349533,7.2909408.3136967-.6251676.4963287-.9635443.6564323-1.3122561,1.2262968-2.6709715,1.8846618-5.5235439,2.3680142-8.385598,1.015186-6.0111884,3.5755848-11.1924381,7.6857261-15.6769171,2.050556-2.2373317,3.9686043-4.5990247,5.8933968-6.9480531,3.3572329-4.0971798,6.3409328-8.4108086,7.4606374-13.7265098.5604273-2.6605698.6492282-5.3815989.985483-8.0712299.4948634-3.958158.9210618-7.9251895,2.1101882-11.9914719-1.2205914.9806271-1.7316659,2.1265698-2.2078996,3.2820574-1.4502985,3.5188239-2.5650396,7.1524347-3.6504747,10.7954456-.0707944.2376012-.0186891.5940216-.5668004.5187163.4448726-3.177357,1.4516711-6.2100389,2.2901122-9.3712071-1.2275358.7323867-2.2481935,1.3626736-2.8913824,2.6070993-1.968195,3.8080297-4.0872195,7.5382612-6.1621514,11.2906911-.1872097.3385623-.2628229.813557-.9517737,1.0133794,1.0197599-3.2037547,2.925114-5.8036647,4.0175046-8.771584-1.2952772,1.4611974-2.4440874,3.0228736-3.751803,4.4576288-3.4022973,3.7328283-7.4184627,6.7570373-11.3285626,9.9037529-4.5786329,3.6847293-7.9280533,8.1596524-9.2416969,14.0056291-.6293186,2.8006079-.7449957,5.1637626-.1568799,6.5799326.0358757-1.3411096.1016288-2.6342389.4842539-3.8858279,2.2209092-7.2647805,7.7181036-11.9728533,12.9564815-16.8829ZM52.0889346,38.7109736c1.5067886,5.0317965,3.5320562,9.77425,6.9218187,13.8128401,3.1769416,3.7850226,6.4138751,7.5196389,9.5974198,11.2991713,6.3669855,7.5589238,8.513016,16.1704451,6.529044,25.8655318-.9858837,4.8177069-2.5996059,9.4284095-4.2200053,14.0464201-.2292323.6532939-.5520213,1.3033679-.4287728,2.2491283,4.7638877-6.4002905,8.1002465-13.2031639,9.2776357-20.9839453.0604223,4.8587427-1.4154652,9.2842907-3.5335845,13.5532334,1.6542016-1.8950079,2.7281145-4.1361753,3.8331587-6.3658355.2048601,1.766974-.9545819,3.1002266-1.452695,4.802171,1.1550795-.4147059,1.9998121-1.0305846,2.8813293-1.5684351,2.1911914-1.3369177,3.8372912-2.8754087,4.0939821-5.7927288.2658611-3.0215455.7457822-6.0202843.6193138-9.067686-.032474-.7822848-.1096341-1.5627149-.1662578-2.3439981.1063029-.0036503.2125984-.007308.3189013-.0109582.8661594,3.5164386.5787973,7.0788914.1957715,10.6557672.9145328-1.5039397,1.3068178-3.1442746,1.3708088-4.8446684.3502476-9.3074833-3.5956836-17.1663522-8.4212845-24.7201048,1.0505498,2.9593278,2.5318014,5.7609522,3.3175733,8.830975-.3734995-.3844725-.6693862-.8057222-.880063-1.2659823-2.0411373-4.4590014-4.9411853-8.3489543-7.9954126-12.1403501-7.0573385-8.7607222-15.7386526-15.8523896-24.0051198-23.3704408-.0896541-.0815375-.2104616-.0956934-.271611.0213044,2.2408707,5.5239074,5.7471746,10.2250914,9.4790755,14.7886521-2.9386355-1.9572034-4.924032-4.7774204-7.0610259-7.4500613ZM42.100773,20.6364914c.0661945-.086015.1323889-.1720262.1985834-.2580412C34.9922714,10.1919036,24.7257176,4.7371565,12.6367235,2.1609899c2.0305463-.029753,3.9753076.3047528,5.8976591.787636,5.9703083,1.4997014,11.0714154,4.668211,15.9349955,8.2973053.905192.6754329,1.7472314,1.4564825,2.860778,1.8608757-1.1976659-.7886728-1.1946389-2.4016271-2.2793023-3.2297313C29.7788815,5.8520886,24.0570288,2.8101383,17.481225,1.4392813c-3.1211192-.6506582-5.568063-.1620641-7.8487268,2.2713285C5.8734466,7.7213795,2.4458794,11.8478987,1.2771874,17.4009823c-.1088514.5172139-.2596438,1.0374734-.0935066,1.609126,3.6838279-3.6595484,8.0361776-4.2562854,12.7566368-3.4420941-3.1558746.3167237-6.4013255.2235232-9.2828811,1.9305943,3.0211857-.5976756,6.0206145-.5393158,9.0433583.0308158,4.6358946.8744022,8.8171233,2.9138961,13.0019429,4.9439008,4.3847422,2.1269779,8.9931226,3.1435587,13.8600858,2.9730163.4572256-.0160219,1.1319166.0507179,1.1739095-.5725837.0349298-.5185011-.6031621-.5899373-1.0133126-.6805225-1.7761516-.3922776-3.5735891-.6930648-5.3406892-1.1205466-6.0742853-1.4694513-11.7236224-4.1901911-17.6664536-6.0508182-.1370037-.0428943-.2502696-.1615948-.3746086-.2449388,6.7549302.8610772,12.7515101,4.2558996,19.3370925,5.6355521-.9538251-.7274529-2.2049764-.8036857-3.4011733-1.6644846,1.7781697.211389,3.1370335.9400179,4.9104177,1.2695176-2.0392379-1.5736991-4.1372956-2.4731894-5.956924-3.8062973,2.1693418.4574853,3.9097772,1.8165976,5.8729382,2.70671-3.6565584-3.3219952-8.0957059-5.342596-12.44307-7.5163188,6.4955536,1.4341357,11.5445108,5.3442022,16.3849725,9.6678766.5630388-1.2902544-.8738086-1.7003529-.9623498-2.6732715.3451431.0815263.6811754.1609011,1.0172003.2402759ZM64.3820618,16.7490943c-2.9351856,1.9043858-5.8093701,3.860647-8.8796453,5.4962188-.9997428.5325754-2.0081291,1.0489547-3.0078274,1.5816154-.1720745.091687-.398213.2091744-.3135668.4513273.1232707.3526069.4012697.1746378.5968854.0895911.3698863-.1608195.728206-.3527849,1.0775707-.555512,2.5204648-1.4625663,5.0300159-2.944148,7.559636-4.3906553.8972163-.5130517,1.8406397-.9453078,2.7629776-1.4144488-2.5829497,2.0415082-5.3978767,3.6697202-8.1917035,5.351347,1.3409463-.1802319,2.5078818-.950301,4.0027625-1.154779-.4353018.5113861-.8822591.6119762-1.2845898.7847629-1.9735925.8476187-4.011814,1.5097267-6.0804692,2.0789494-.3966178.109137-.6827854.2618176-.5957874.7352283.0902699.491228.4771092.3181037.7733892.330505.1609159.006733.3246438-.0089958.484662-.0317358,4.5764851-.6504041,9.1008055-1.5221316,13.4005899-3.2907416,4.906812-2.0182934,9.9106083-3.7536986,15.0465338-5.0817243,3.849481-.9953877,7.6224919-1.118395,11.0118537,1.475791.037252.0285196.1234265-.0068702.2554222-.0184517-.1401866-.3981981-.254621-.7789536-.4058622-1.1444737-2.381176-5.7549277-6.3197324-10.4206273-10.4570948-14.9479562-.2539681-.27791-.5141386-.3397957-.8636072-.2058636-2.5321724.9704517-5.1876228,1.5504917-7.7330757,2.4953748-8.2647608,3.0679047-15.4331505,7.6354366-20.7110062,14.8527117-.3098721.4237352-.6251824.8526897-.8626649,1.3176722-.2577296.5046086-.1626001,1.1395399.1419969,1.4974589.3996004.4695638.7785678-.1634904,1.099042-.363528,2.8510069-1.779609,5.7307633-3.5078583,8.7124452-5.0606982.7753404-.4037885,1.5489003-.8321347,2.4611331-.8779856ZM24.7046618,30.5007702c2.1947935.0452982,4.3660234-.1898992,6.5313217-.4857823,3.1709468-.4333023,6.2480328-1.2908516,9.3448021-2.0653129.8327654-.2082618.8395688-.8596787.8386488-1.3970395-.001239-.7323942-.6605499-.3452359-1.0088685-.345362-4.3490408-.001584-8.6240413-.417989-12.7986038-1.7686545-3.9372543-1.2738912-7.5915981-3.1989322-11.4138134-4.7321667-3.3001418-1.3238116-6.689014-1.8831594-10.2106127-1.085283-1.5097526.3420604-2.810023.9802043-3.4452139,2.5598647-.2602262.6471545-.2034987,1.1198603.2288131,1.6626261.9742503,1.2231696,2.1765718,2.1683365,3.4832264,2.9868866,5.6474304,3.5378098,11.9409951,4.5368404,18.4503002,4.6702235ZM55.1565314,28.6432406c4.0279138,1.7705983,8.1533905,3.0789927,12.4968224,3.4331057,6.7019717.5463975,13.1678928-.4589395,19.2108281-3.5274785,2.4970126-1.2679521,4.5618692-3.0557891,5.8353449-5.6449486.3184784-.6475292.2264946-1.0186062-.3790416-1.3758798-1.0981813-.6479261-2.28664-1.031512-3.5283688-1.2328628-4.1891265-.6792984-8.1461642.0154432-11.8025001,2.1791389-3.7954318,2.2459974-7.8583273,3.7895595-12.1352753,4.8014439-3.188612.7543922-6.4207008,1.205304-9.6978096,1.3674812ZM37.2184668,55.2153884c-.0846016.1716293-.1879665.3366481-.2509929.5158673-1.0160058,2.8888598-2.543828,5.4965749-4.3488182,7.954132-2.6391875,3.5933539-5.5746402,6.949307-8.5040981,10.2962605-5.451618,6.2285573-7.7419268,13.6713477-8.7000588,21.73133.5980428-1.9321783,1.2268532-3.8044091,1.7561976-5.7043508,1.4896465-5.3467136,3.9948499-10.0543709,8.3625427-13.6332796.5618555-.4603936,1.0550496-1.0047286,1.5786996-1.5115741,4.5537006-4.4074525,7.6716072-9.6709742,9.3691001-15.772106.3507298-1.2605959.7939702-2.5074589.7374281-3.8762793ZM57.9861115,32.395114c-.0160181.064744-.0320437.129488-.0480693.1942357.0932895.0644843.1786405.1487224.2812783.1899215.3747236.1504511.7535204.2913091,1.1338085.4273298,5.6319983,2.014428,11.4051552,2.2125922,17.2458493,1.2577989,4.9177702-.8039156,9.4207528-2.6145297,13.2882106-5.8277773,1.7867834-1.4845458,3.1841086-3.2360136,3.5935468-5.5947686-2.9637126,4.426442-5.9856958,6.7554867-11.1860279,8.3681665-7.5618989,2.3450183-15.289885,1.7306235-23.0074025,1.1824268-.4361995-.0309828-.867569-.1299888-1.301194-.1973333ZM48.3467581,26.4354931c.0674483-.2927633.1446381-.5476142.1833666-.8081817.4237277-2.8513852-.6634657-4.1252023-3.5319449-4.1455978-.1615688-.00115-.3247328.0186594-.484521.0025893-.8050693-.0809773-1.1689015.3028757-1.2713538,1.0839364-.141574,1.0793847-.3170836,2.1565362-.5334064,3.2234194-.4191426,2.0671157-.208822,2.4714199,1.8466344,3.0912122.5332803.1608046,1.1081825.2445976,1.6655753.2526957,1.4955114.0217347,2.7565006-.8679103,4.1805276-1.1473894.2845576-.0558521.3312469-.3191053.3352755-.5742604.0216864-1.3706233.1876549-2.7491407-.1307716-4.1038311-.0898619-.382269-.0730944-1.0102633-.7710076-.8061414-.6193212.1811334-.2565129.6651239-.2156699,1.014841.139274,1.1923167.7477557,2.5584995-1.2727041,2.916708ZM62.7701944,58.3974344c1.5933415,2.1435822,3.279661,4.2010418,4.834734,6.3633575,5.1811162,7.2043434,7.2003518,15.1706281,6.0449237,23.9861637-.5139457,3.9211954-1.7078575,7.6467454-2.8244979,11.4054742-.2889053.9725216-.6634805,1.9426097-.5360328,2.9999927,1.4883147-4.1023362,3.0387063-8.1861094,3.9223825-12.4668412,1.5582411-7.5484033,1.2980409-14.887814-2.7027778-21.7651246-2.3264145-3.9990455-5.4959962-7.2923282-8.7387316-10.5230222ZM90.2619646,19.5817015c-1.7455027-1.2886147-3.7092722-1.8248849-5.5651213-1.5845015-5.1712041.6698017-10.0958816,2.1906869-14.8273027,4.3544754-3.2339659,1.4789739-6.4329055,3.0475463-9.9233026,3.8577497-1.5632862.3628714-3.1418189.6600306-4.9417714,1.0345131,2.7931739.1740035,7.6938204-.7325203,10.7641549-1.9640328,3.149431-1.2632372,6.2556301-2.6413947,9.4382919-3.8129598,4.7725756-1.7568208,9.6286103-3.1246545,15.0550511-1.8852442ZM77.5907678,57.9139521c-1.5274586-5.0350536-19.2254366-23.108664-23.754943-24.3443684,4.3009567,3.8339785,8.5375811,7.5980826,12.5873891,11.5680186,4.0568488,3.9768397,7.7092302,8.2983848,11.1675539,12.7763497ZM80.2982198,2.1985702c-5.0096501-.5242455-17.7980338,3.8872097-17.2950834,5.8689745.2800022.2470403.5265213-.4293849.8495625.0108859-1.0347097.8597473-2.0685736,1.7187935-3.1024375,2.5778397,6.0655566-3.8949758,12.6164502-6.5969931,19.5479584-8.4577ZM2.039368,23.4754531c2.6271683,5.6505205,17.6963494,11.1514616,22.7299451,8.3207872-8.3631993-.6168358-16.4317508-1.9717562-22.7299451-8.3207872ZM58.2164938,53.2866155c-4.1375776-5.2616001-6.3967812-11.4000878-8.350772-17.6842375,1.5958344,6.4599264,3.4351386,12.8047506,8.350772,17.6842375ZM41.1113059,28.8404366c-3.1368183.8296382-6.2388775,1.7369409-9.7464056,2.2988187,3.4186234.2370299,8.0153259-.8491508,9.7464056-2.2988187ZM57.5742471,30.9282446c-1.7018034-.834661-3.5412338-1.3419071-5.1905386-2.284685-.2267246-.129603-.4733254-.1840083-.5897184.1372968-.0933934.257789.1253481.3655831.3030315.4427841,1.7628118.7659106,3.5280794,1.5275774,5.4772255,1.7046042ZM56.3082723,14.5058643c-.0634419-.0684017-.1268839-.1367997-.1903258-.2051977-.7416793.7876712-1.4833661,1.5753461-2.2250529,2.3630211.0683609.0602739.1367292.1205515.2050901.1808255.7367604-.7795509,1.4735282-1.559098,2.2102886-2.3386489ZM17.5902248,63.1406373c-3.5928828,2.6959002-7.1493742,5.4226051-8.6789548,9.8968604,2.3005251-3.824404,5.7727896-6.6164278,8.6789548-9.8968604ZM68.4590909,52.9893859c5.4470144,5.1477593,8.8061577,11.3309256,11.7055083,17.8443225-.0487889-4.813055-7.7743489-16.6687436-11.7055083-17.8443225ZM18.6705851,6.1747978c.1190825.0028583.2638394.0030363.354751-.057961.6698722-.4494428.6641483-.4442364,1.3616683-.282445.3678015.0853083.7381663.3208136,1.1408234.0659663-1.0786131-1.2222144-6.6828634-2.3988022-9.168098-1.854625,2.045804.4625693,3.9713643.6447006,5.7824012,1.3321156-2.6746329-.1801856-5.3447179-.5042413-8.0098913.0966801,2.8386167.4481574,5.6840851.6318096,8.5383453.7002688ZM15.1148578,6.6257894c-2.0690262-.3070398-4.0593973-.0629003-5.9556034.8408338,1.9852036-.2802785,3.9704035-.5605552,5.9556034-.8408338ZM71.58504,7.1000718c3.1974335-.7655229,6.4298858-1.3286118,9.6869849-1.722312-3.4251671-.4802735-6.6475441.1212323-9.6869849,1.722312ZM76.0692371,7.5267969c3.0023297.0545592,6.0051491-.1988876,9.0279337.000703-2.9977966-.8833182-6.0137257-.6927717-9.0279337-.000703ZM86.4184042,9.0492179c-1.587651-.612924-2.9670364-.4551074-4.3562746-.3235513,1.3435876.1935995,2.6920719.5271445,4.3562746.3235513Z"/>
  </g>
</svg>