<?xml version="1.0" encoding="UTF-8"?>
<svg id="Layer_2" xmlns="http://www.w3.org/2000/svg" viewBox="0 0 112.4043625 133.2611193">
  <g id="Layer_1-2" data-name="Layer_1">
    <path d="M37.7124246,69.5799229c-2.5359198,3.1535289-5.1516275,5.6125612-8.1716968,7.626803-2.6690055,1.780099-5.5045303,3.2108657-8.6000563,4.082383-2.4424423.6876388-3.7296864.1942339-5.1747444-1.9189209-2.2130131-3.2361569-4.0309242-6.6488877-4.7987332-10.5475383-.5514894-2.8002436-1.7790892-5.3137425-3.3208947-7.6977437-1.2714962-1.96604-2.6056445-3.9048466-3.3849518-6.1434946-.1844156-.5297561-.4269329-1.0658457-.4718993-1.6130554-.2108755-2.5661953-.8268045-4.7987633-2.6728426-6.8878128-1.6999932-1.9237806-1.1058405-4.6526066-.5132133-7.0435127.415338-1.6756517,1.0082875-3.3187591,1.6522812-4.9241061,1.9245111-4.7973926,2.99049-9.7494194,3.0213025-14.9315028.0222533-3.7420398.5539515-7.3709698,2.5292597-10.6787849,3.3312887-5.5785067,8.4135095-7.3365801,14.2707665-4.5752336,12.7577069,6.0144952,22.5367787,15.2131256,29.017119,27.7956421.53957,1.0476486.8934225,1.0965207,1.9319403.6787014,1.6858781-.6782502,3.6032178-.3809354,5.3628467-.9613339.6413705-.2115544,1.1023171.5817563,1.6977889.9122598,1.2487015-2.2137393,2.4740111-4.4221419,3.7327328-6.6113248,5.7990436-10.0857151,14.0210864-17.7461107,23.8636353-23.7712427,1.649991-1.0100449,3.4608295-1.6868127,5.33484-2.133004,5.1293914-1.2212856,10.9051891,2.402933,12.7936971,7.9385874,1.0307492,3.0213627,1.093036,6.1769261,1.3463856,9.3008713.4088003,5.0408122,1.4158052,9.919359,3.5625011,14.5287266,1.2691888,2.7251866,1.9768078,5.5482291,1.5678872,8.5941267-.2313069,1.722891-.7438843,3.3037159-1.9813796,4.5533713-.548559.5539429-.7432741,1.1440308-.6897958,1.8909013.1800371,2.5141994-.3823061,4.9047403-1.7290441,6.9901118-2.7602745,4.2742021-4.392236,8.9825729-5.7622198,13.8240424-.8088523,2.8584398-2.0623835,5.522027-3.7668153,7.9734282-1.9059015,2.7411536-3.0399121,3.2162024-6.3163475,2.5174349-5.5333535-1.1801069-10.1149249-4.1020711-14.2739891-7.7972153-.3795647-.3372237-.7517045-.6827919-1.1619314-1.0559887-.0442831.1805614-.1090363.2862376-.0816569.3554681,2.704493,6.8376731,4.3950547,14.039769,7.4996684,20.7363772,1.7553836,3.7863573,4.029025,7.3105564,5.6102667,11.1791721,2.0895824,5.1123673,3.1348377,10.4932607,3.9831606,15.9185146.0586087.3748038.2799126.910077-.1988573,1.1319137-.3797022.175938-.6727288-.2469903-.9438673-.4819238-2.7963678-2.4229476-5.5826381-4.8575568-8.4998328-7.4005921-.169106.4799472-.321145.891635-.4597263,1.3078087-1.6547261,4.9694118-4.0422678,9.5759307-6.9030709,13.9482637-.1026169.1568515-.1919222.3289481-.3214802.4603451-.3423284.347201-.6012037,1.0740354-1.1363308.834238-.5530019-.2478411-.185434-.9234745-.1321017-1.4126599.5709111-5.2360301.9687803-10.4688633-.170524-15.686692-.6300269-2.8854497-2.0510227-5.4210344-3.5085587-7.9379106-2.3035559-3.9777208-4.5480819-7.9815063-6.0799445-12.3404504-1.8548982-5.278182-2.4096704-10.7862099-2.821616-16.305255-.6280503-8.4145493-2.9732167-16.3845401-6.0202959-24.1878439-.0849827-.2176301-.1828215-.4345727-.3066217-.6317843-.2397201-.3819151-.3461869-.958455-.9248839-.9419509-.5727845.0163365-.691102.5859156-.8828179.9862297-2.0679865,4.3181887-3.1407759,8.9101155-3.7146002,13.6375213-.8726173,7.188896-.6515798,14.4325249-1.0824572,21.6444519-.4503249,7.5370423-2.0844778,14.7270038-5.5917732,21.4653343-1.7940551,3.4468218-3.5466372,6.921848-4.6758696,10.6704534-1.4696101,4.8785253-1.6250135,9.7706544-.3476951,14.7123173.1775579.6869427.7179013,1.7305909.0037382,2.0480578-.707735.3145966-1.1297954-.7665543-1.5135839-1.373851-2.6611165-4.2107551-5.0644577-8.5526838-6.4787719-13.364909-.2276804-.7746667-.4549225-.7751824-.9997776-.2862118-3.2125931,2.8829919-6.5209109,5.6676809-9.1173043,9.165128-.3207325.4320376-.6332065,1.1401894-1.2684025.8878796-.5715728-.2270101-.4612646-.962335-.4641822-1.5151135-.0352469-6.6857373,1.6881855-12.8886313,5.2176998-18.563909,1.2621033-2.029401,2.5819303-4.034757,4.0252481-5.9374359,4.7145196-6.2149681,7.0081155-13.2763857,7.6440591-20.9753755.3119971-3.7771277.8037649-7.5375321,1.7683343-11.6611818ZM102.4179582,4.709129c.0196795,3.367642-1.6217436,5.3154656-3.9590296,6.9118643-3.5670299,2.4363258-7.5850464,3.8816287-11.5706133,5.3769424-8.0115411,3.0057738-14.9931838,7.4690965-20.5637048,14.0357686-1.5172104,1.7885465-3.0134179,3.6106857-4.6874023,5.2452081-1.2224393,1.1936205-1.6292029,2.4917957-1.6208929,4.1308985.0055773,1.0970406.314081,1.5521651,1.4161404,1.7456943,3.7837792.6644788,7.5619123,1.3728455,11.3200566,2.1689964,8.4212438,1.7840134,16.915843,2.8966257,25.5341909,2.7906874,3.1855145-.0391484,6.3782734-.2825251,9.3701899-1.5808894,2.3032207-.9995112,3.454685-2.7418883,3.5114977-5.2695368.0409316-1.8206739-.2947281-3.5711678-.9833379-5.2159596-3.0041109-7.1755242-4.6635807-14.604063-4.7532641-22.4118334-.0316676-2.7572731-.7142275-5.4630036-3.0138303-7.927841ZM23.0561638,35.130817c.5765958-.5100121,1.2951073-.391179,1.9676556-.3505439,3.9635972.2394537,7.7269492,1.4377534,11.521724,2.467987,4.1320157,1.1217904,8.3213038,1.8698511,12.6006363,2.0669424.4066519.0187299,1.0793721.2857005,1.1532861-.404409.0952521-.8893706.3253645-1.7929293-.5487309-2.5931149-1.3118133-1.2008778-2.5121841-2.5305961-3.6980746-3.8606924-5.3078215-5.9532654-11.6794863-10.1895737-19.3960802-12.4154172-3.6861939-1.0632805-7.321668-2.3347294-10.795229-4.0035792-3.3221149-1.5960916-6.3662895-3.4207787-5.9960876-8.1562562-1.4757675,1.6286358-2.1698815,3.2290413-2.6397011,4.9443012-.7530623,2.7493584-.6655659,5.5830227-.7522029,8.3890412-.1227217,3.9750353-.820183,7.8187037-2.1838076,11.5530865-.9956613,2.7266776-2.0166287,5.4431888-2.5873013,8.3096723-.602394,3.0258013.1421649,5.4286011,2.8007033,7.1947225,2.0943605,1.3913305,4.4019726,1.7573258,6.8288775,1.7877903,4.2397587.0532119,8.4178664-.5679119,12.5968894-1.1542314,8.7470594-1.2272131,17.331196-3.1008111,25.6117701-6.2748315,1.3924648-.5337478,1.1072327-1.3376717,1.006876-2.2800866-.1258198-1.1814733-1.0442068-.7068585-1.6369114-.6988406-3.5905508.0485628-7.0977688-.5178023-10.5880359-1.2828441-4.794793-1.0509829-9.467947-2.7520804-14.4664699-2.7297713-.3244836.001448-.6587555-.0510979-.799786-.508925ZM60.0347658,44.2255457c-.3540158,2.0532785-.3429299,2.0676643-2.3830902,3.6398912-.5551331.4278095-.1198214.7654071.0269325,1.0863673,3.2904258,7.1961963,4.8779667,14.8333117,5.8593797,22.6238153.5328584,4.2297814.7387023,8.4982773,1.5369156,12.6975341,1.1563884,6.0836054,3.910063,11.4971117,6.9912676,16.7746578,1.2048996,2.0638014,2.452991,4.1061187,3.3021734,6.3509713,1.7237074,4.5567358,1.5458788,9.2898392,1.2573381,14.0304191-.0484339.7957899-.0853178,1.5922674-.1275385,2.3884355,2.7152953-3.8714946,4.6989092-7.9798907,5.975437-12.42313.7883564-2.7440582.8053633-2.7259428,2.9084377-.8439918,2.2237552,1.9899303,4.4679117,3.9570703,6.8760009,6.0870343,0-.4754699.0392215-.6998246-.0056976-.9058317-1.3693479-6.2796611-2.8580531-12.5204789-6.1335518-18.155779-2.4787376-4.264517-4.5104761-8.7284584-6.1426868-13.3859377-2.6625302-7.5974299-4.9297435-15.341141-8.2319255-22.7041531-2.5409557-5.6657044-5.510374-11.0789959-9.7585631-15.6866791-.5584331-.6056896-1.121438-1.2358239-1.9508292-1.5736234ZM50.6532323,47.4230097c-.1081856-.0537877-.2163711-.1075797-.3245567-.1613674-.9374306,1.1077956-1.9279787,2.1752998-2.803724,3.3298879-5.9908197,7.8983025-8.6162425,17.0550946-9.8844301,26.7019315-.4581666,3.4851495-.7439788,6.9940519-1.24923,10.4716563-.8531569,5.87221-3.8151589,10.8083472-7.1313786,15.5725339-2.5454631,3.6568766-5.0048693,7.3603566-6.6428936,11.5483127-1.3013377,3.3271465-1.9448695,6.761688-2.142558,10.6307421.3624504-.4190612.5140598-.5810516.6509696-.7546435,2.4574898-3.1156996,5.4098798-5.7203773,8.4951492-8.1812744,1.5875838-1.2663013,1.923626-1.1722695,2.5551395.8034469.8145069,2.5482345,1.7654167,5.0378259,2.9157037,7.4507705.3665797.7689605.7910634,1.5103355,1.2272389,2.3366844.3795045-.4643669.2506641-.7988837.2372967-1.1066569-.1668287-3.8413825.5099047-7.5658826,1.600195-11.2220631,1.1044269-3.7035746,3.0119226-7.0571294,4.7056467-10.5013817,2.1208547-4.3128134,3.7076479-8.7863797,4.4037429-13.5704091.860483-5.9137775.8863241-11.8697585,1.1171326-17.8204544.3217208-8.2944014.5362357-16.6286515,4.6213601-24.2141921.0198599-.0368754-.0559533-.1252698-.1220987-.2619562-2.030501,2.7700798-3.0327966,5.9326664-4.0246078,9.1097934-.9914847,3.1760958-1.3435927,6.4838121-2.0486164,9.7206822-.1131699-1.9426738.1742364-3.8431528.5210077-5.7272694.8709931-4.732373,2.2829483-9.2761323,4.9107343-13.3670746.2948226-.4589658.5813352-.9609343.0079749-1.3492258-.5584589-.3782069-.6926317.2961418-.8926577.5622831-3.7052589,4.9299369-6.465774,10.3134857-7.6624495,16.4101363-.3300051,1.6812719-.4915916,3.3956036-.730461,5.0947675-.0886608-8.0941004,3.1189909-15.0432161,7.6903703-21.50566ZM108.7395048,46.3717732c-2.0931574.9042333-4.0861384,1.407667-6.1371869,1.6364044-2.0501031.22863-4.1086624.333971-6.1762193.3277621-9.2842189-.0278649-18.37985-1.5080667-27.4115701-3.499617-2.126114-.4688184-4.2286729-1.0651625-6.459492-1.1562595.4476608.4176819.9439532.7315266,1.4525345,1.0240031,8.4888587,4.8817436,16.9659526,9.7914854,25.0585749,15.3110804,4.2893699,2.9255821,8.5811545,5.9637239,10.3742557,11.3980268.942329-1.6634057,1.3832352-3.34063,1.8495443-4.9985529,1.1836905-4.2086324,2.6164854-8.2857819,5.1268562-11.9421601,1.5999673-2.3303595,2.0567031-5.0794064,2.3227026-8.1006874ZM50.604764,43.3432477c-.1304603.0318868-.2683971.0462382-.390324.0981568-7.977536,3.3972192-16.2781806,5.6356953-24.867048,6.7445995-6.9557156.8980373-13.939756,2.0277081-20.9703439-.4225158.0484553.6459337.0664548,1.2470172.1426504,1.8406241.3822459,2.9780979,1.8752737,5.4749596,3.534924,7.869952,2.053489,2.9633254,3.5555961,6.1346603,4.3061705,9.6841678.3600657,1.702799.8200756,3.4164948,1.8646348,5.1578879.4519491-2.9125627,2.0229901-4.941259,3.8352079-6.8123133.8467117-.8741985,1.7356569-1.7158012,2.6685329-2.4968616,5.4056431-4.5258931,11.4360409-8.1675847,17.2473777-12.1178918,4.3786752-2.9764479,8.6095394-6.1467774,12.6282176-9.5458056ZM64.9196676,46.6199194c4.3756674,5.9214517,7.7796928,12.2487732,10.1518261,19.1319068.284811.8264006.7896025,1.4768803,1.4097209,2.0667147,3.113723,2.9616325,6.5447497,5.4775463,10.4268575,7.3397404,2.3316658,1.1184646,4.7381823,2.0243393,7.3547622,2.2320309.8137765.0645985,1.2099785-.1847637,1.1575314-1.0809533-.3774077-6.4485523-1.7398119-12.2538607-8.0803935-15.787066-5.7692408-3.2148532-11.3023193-6.8548347-16.9237749-10.3328343-1.857356-1.1491526-3.6657453-2.3774356-5.4965296-3.5695393ZM47.6959654,48.1047618c-.4496116-.049478-.6608953.3102525-.9283042.5264217-2.9948641,2.4210269-6.1962769,4.5467113-9.4032841,6.669955-4.5733387,3.0278294-9.1146961,6.1041013-13.6582879,9.1765748-.6169001.417162-1.3578066.8183053-1.7180914,1.4202997-2.2608411,3.7776089-3.9776736,7.7653672-4.0169595,12.2704894-.0167662,1.9220748.2714608,2.1525223,2.1443927,1.7886754,3.8708286-.7519795,7.1684345-2.7614432,10.2362931-5.0821864,4.3811072-3.3141701,8.122236-7.084483,9.6803393-12.7093418,1.3607456-4.9124015,4.0772784-9.2378132,7.2323971-13.2516961.1807246-.2299147.5222108-.401225.4315048-.8091918ZM60.9445592,34.3692814c.1050317.0538608.2100634.1077215.3150951.161578.5741939-.7346332,1.1564142-1.4631692,1.7210863-2.2050511,1.7084279-2.244569,3.5752712-4.3471536,5.7011532-6.2027952,6.4350774-5.6170686,13.6918032-9.9717417,21.303043-13.7701408,1.5927744-.7948747,3.17772-1.5895411,4.6920171-2.5352646,2.3351892-1.4583997,3.3563478-3.5606319,3.3163357-6.2559985-.0255404-1.7201604-.5410911-2.2522475-2.2932263-2.2528898-2.5771608-.0009475-4.8158775,1.0845476-7.0005917,2.2812639-4.3018135,2.3564155-8.0491212,5.4654056-11.7547668,8.6451537-5.9386476,5.0958503-10.1501847,11.4858497-13.9021415,18.2356484-.7169088,1.2897276-1.3995546,2.5985074-2.0980042,3.8984959ZM50.603707,34.3527429c-.1027973-.2483352-.1869636-.5064286-.3110818-.743605-4.2505781-8.1219309-9.7631091-15.1947094-17.1336407-20.7490636-3.9021181-2.940593-7.8741414-5.755564-12.478529-7.5072266-1.8922333-.7198671-3.8410215-1.2211503-5.9039679-.6716589-1.9313946.5144508-2.4062759,1.4144259-1.7177649,3.3298772.3882916,1.0802314,1.0163075,2.0003351,1.8149892,2.810253,1.7464419,1.7710133,3.9073689,2.8647669,6.1648198,3.8248461,7.0452787,2.9963208,13.739889,6.6512423,20.0532501,10.9756485,3.5754947,2.4490723,6.6396839,5.4830806,9.5119251,8.7309291ZM55.3020834,38.1874996c-.794372-1.3044099-.2389982-2.4036548-.1322908-3.4909803.1164355-1.1865178-.1784215-1.4581676-1.3149844-1.1297524-1.2108722.3498865-1.6186241,1.322766-1.8661817,2.4186508-.6688015,2.960554.317063,5.7657174.8381653,8.6076488.3294293,1.7966332,1.2433477,2.4140489,3.0994318,2.2933896,1.7946051-.1166546,2.330815-.7518635,2.574385-2.6726063.4126761-3.2542938-.0912904-6.5800997.7996227-9.7959111.1271174-.4588326.0905943-.9767982-.4569678-1.1993954-.5344138-.2172563-1.0831189-.3030511-1.5892252.1236713-.7086674.5975257-1.099868,1.3599206-1.3536817,2.2464038-.2268812.7924212-.0722297,1.6743239-.5982733,2.5988813ZM94.313279,65.8529822c.2660511.9720631,1.2532476,1.5629115,1.3132313,2.4066712.0564947.7945353.3097412,1.1777265.9448813,1.4441901.3159287.13254.7526498.3220903.3294637.6365409-.8297005.6165348-.2015471,1.2477648-.3069139,1.8822604.812857-.1392173-.0240021-.7978782.447489-.9835614.6519235-.0236154.4037301.8589533.9733693.9762138-.0933873-2.3108949-1.8010417-5.2533119-3.7015207-6.3623149ZM97.2001466,8.9500049c2.3125878-1.4770221,3.078532-4.4352257,1.6055446-6.7155616.1957034,2.5702579-.1283635,4.7842486-1.6055446,6.7155616ZM15.5559754,74.9605499c.2212394-2.9486474,2.3126222-4.851799,3.9837579-6.989884-2.8192227,1.8463131-4.5104159,4.8714355-3.9837579,6.989884ZM14.3663123,11.9034519c-1.0430682-1.451398-1.9378871-2.985482-2.6000844-4.8084462-.7536209,1.6699046-.761252,2.0815817-.1490527,3.4013571.2046451-.3683006-.1571007-.8455236.3341171-1.2583973.6464665,1.0201252,1.2299029,2.1026619,2.4150199,2.6654864ZM100.2102473,6.7401091c1.2627779-1.3457819,1.3167805-2.0469213.2234179-3.3889328.0011945,1.2090955.1087613,2.3070213-.2234179,3.3889328ZM17.8514705,71.4689723c-.9679639,1.5085738-1.474835,3.1297416-1.2596284,4.9272342.3626395-1.6563933.7196458-3.3141529,1.2596284-4.9272342ZM61.4452515,38.9800326c9.4375212-.8582615,18.1195911-4.5795562,27.2218822-6.6607082-.3754226-.2636663-26.7212415,6.3640165-27.2218822,6.6607082ZM73.2157447,30.3262444c3.1605671-2.3891058,6.6065123-4.3191125,10.0770784-6.2134556-7.6076563,2.773195-13.115839,8.8857009-20.1445749,12.6093116,3.7805222-1.4438635,6.8825922-3.9883555,10.0674965-6.395856ZM61.2444865,40.5353c5.3323994.9290174,10.7023186.8200885,16.0745582.6469693-5.3439149-.6104247-10.725934-.1667428-16.0745582-.6469693ZM29.6034658,27.162386c4.0855799,1.7086513,7.8096159,4.0567524,11.5304079,6.4222213,1.7381963,1.1050456,3.5516816,2.0957226,5.3626147,3.0801648.6700991.364268,1.3620948.8137163,2.6131596.6153403-7.3559997-3.0369-13.0660258-8.3832942-20.4877885-11.0054213.2489325.6676671.6562633.7516271.9816063.8876948ZM48.9964351,41.1950308c-4.8105666,1.0526458-9.6488393,1.7339897-14.5967798,1.1250989,4.9635123.8872523,9.839236.5838746,14.5967798-1.1250989ZM73.2076065,78.0501161c-.7816018-8.3795989-3.1413688-16.2294503-7.8800667-23.282661,4.3548192,7.1727743,6.3362762,15.1533008,7.8800667,23.282661ZM61.3564017,52.6728455c3.1852137,6.4819387,5.4712127,13.2464626,6.5307936,20.4296352-.4014184-7.3542637-2.6550107-14.1507561-6.5307936-20.4296352ZM75.6202417,103.5348591c-2.8251995-4.9170593-6.3844866-9.4640326-7.7031405-15.138451.0998669,3.374446,5.0144082,12.9881028,7.7031405,15.138451ZM78.5438558,87.7141748c.7343367,3.1120816,1.6629159,6.1419993,3.7217759,8.6673489-1.6004829-2.7512081-2.7349833-5.6766699-3.7217759-8.6673489ZM87.105709,107.4476291c-.3518244-2.9459061-1.8245798-5.3866082-3.4894979-7.740712,1.1943037,2.5662039,2.6645841,5.0080231,3.4894979,7.740712ZM78.2770313,112.3197693c-.2207797-2.1946656-.3148201-4.4198818-1.621271-6.3358637.9521344,2.0082176.6684062,4.3342803,1.621271,6.3358637ZM45.3160462,79.5269707c-.1994416,3.2803541-.2813564,6.5767353-1.1676375,9.7864839-.8975045,3.2503622-2.2076936,6.331816-3.593232,9.3962459,3.7460358-5.846472,5.2111085-12.2851072,4.7608695-19.1827297ZM28.7393692,109.7925291c2.0232823-3.1052325,3.9196664-6.2810877,5.4410447-9.6919021-2.05718,3.0796921-4.0475228,6.2212414-5.4410447,9.6919021ZM38.3155018,89.9205965c.6648785-3.594839.9393513-7.2217409.9234187-10.8812644-.2586047,3.6246246-.636644,7.2493266-.9234187,10.8812644ZM36.4719601,95.7230346c.9723467-1.0795268,1.2859593-2.3701911,1.2696314-3.7658872-.4232119,1.2552929-.8464195,2.5105943-1.2696314,3.7658872ZM74.595087,47.9691667c2.8183676,1.0664085,5.7396872,1.7211508,8.728553,2.0598397,4.9286607.5584761,9.9169184.7072323,14.7048236,2.2169748.3466854.1093113.7830799.3191857,1.3104985-.1147082-2.2992075-1.0914805-4.6600573-1.5245837-7.0541216-1.8102627-6.4278674-.7670528-13.0235689-.5482238-19.1159312-3.2886727.3663906.5495215.9073442.7405112,1.4261778.9368291ZM35.4297986,49.9011243c-3.6632359,1.1750711-7.4199021,1.8962681-11.2257197,2.4278546-3.1013997.4331891-6.210074.9000052-9.0873984,2.2529564-.5045122.2372279-1.1114221.3789803-1.5370703,1.3029533,7.5988736-3.696459,16.0938682-2.7488879,23.4257067-6.4323232-.5254421.1486875-1.0558555.2818591-1.5755183.4485589Z"/>
  </g>
</svg>