<?xml version="1.0" encoding="UTF-8"?>
<svg id="Layer_2" xmlns="http://www.w3.org/2000/svg" viewBox="0 0 108.8434242 127.6107646">
  <g id="Layer_1-2" data-name="Layer_1">
    <path d="M66.5415428,55.3835351c1.0369066,3.8258155,2.2396452,7.4437038,3.6081976,11.0074557,1.5556571,4.0509715,3.4920802,7.84803,6.2655703,11.27196,3.3551132,4.1419616,5.964951,8.7877683,7.4109751,13.9708064,1.1987038,4.2966077,1.2337921,8.650162-.0222995,12.9512368-1.1641918,3.9864418-1.6235012,7.9902566-.6131269,12.0681928.2524269,1.0188221.6639401,1.9982239,1.1017516,3.2888273-6.2685244-3.0054549-9.9379645-8.0604513-13.0777115-13.7371575-2.942042,4.7005197-5.0329581,9.9110358-10.0452108,12.9936472-.3629065-.8919782.1593204-1.2550558.3760736-1.7044403,3.7704901-7.8173098,5.1690334-15.9314833,2.9988083-24.4666445-.3122734-1.2281362-.8322488-2.4131144-1.3446229-3.5791705-3.927523-8.9381546-6.1128155-18.2192578-5.683587-28.0440408.1709385-3.9127347-.3907898-7.7377936-1.5888181-11.4766448-.2750146-.8582588-.7324506-1.3233682-1.5989592-1.4217073-.8533594-.0968441-.8695616.6800703-1.1146305,1.1435585-2.490523,4.7102374-4.5790975,9.5694471-5.3242109,14.9042944-.2998538,2.1468719-.4118194,4.3121615-.3812702,6.4730561.0699064,4.9449221-.825341,9.6863751-2.8991002,14.1739422-2.4802559,5.3671887-3.5219719,10.9889929-3.4262355,16.8884325.1128212,6.9525214-1.1100643,13.5986145-5.0289998,19.5379427-1.1387852,1.7258931-2.3316755,3.4085743-3.6821524,4.9730125-.3597678.4167728-.6477514,1.2276228-1.302933.9562827-.5313367-.2200225-.2650537-.9871381-.2089178-1.4860479.7248088-6.4420927-1.649957-11.9426098-5.1481299-17.1062935-.3301238-.4873007-.7475316-.9158357-1.0731793-1.4057212-.6102314-.9179972-1.1121763-1.0964739-1.9761586-.1498188-1.6556264,1.8140372-3.4481252,3.5040315-5.2034102,5.2255295-.370161.3630326-.6808629.8366168-1.3342567.9742592-.4861839-1.2081963.1394256-2.2099606.5885399-3.1876962,2.3226197-5.0563293,4.2910329-10.2312437,5.4183892-15.6970418.8133537-3.94341,1.5837971-7.8957811,2.4140015-11.8355886,1.1125185-5.2795129,3.2590482-10.0604404,6.7844604-14.208292,1.2458559-1.4658379,2.2735987-3.1170603,3.4009235-4.683651-.1039906-.0919357-.2079766-.1838714-.3119627-.2758071-1.7018645,1.4435294-3.4195799,2.8688573-5.1022341,4.334443-3.3629532,2.929136-7.1377843,5.0507184-11.5748759,5.7945529-3.1761953.532458-6.0302417-1.0048264-7.0036499-4.0565013-1.4710525-4.6118172-3.5534172-9.0494177-3.9219706-13.9981404-.1755857-2.357654-1.2998033-4.5166753-2.2027646-6.6925112-1.5383652-3.7069421-2.7217853-7.4769549-2.4223728-11.5710077.0889907-1.2168108-.3530267-2.3171619-.9867329-3.3402484-1.4778342-2.3858705-1.7099994-4.9242933-.6467517-7.4832142,3.1370721-7.5500045,6.9286504-14.7820662,11.6075821-21.4745504C16.442049-.7407561,23.2347907-1.6576208,29.0290149,2.7792997c3.5884154,2.7478336,6.8832769,5.8669383,9.9311377,9.2227856,1.1403073,1.2555286,1.7808492,2.8255552,2.5114536,4.317822,2.8767647,5.8757847,6.529093,11.3183106,9.4985229,17.1391887.3414446.6693169.5957629.6704517,1.1809344.273488,2.4906221-1.6895259,5.06321-1.3691514,7.5066304.0274015.9527163.5445309,1.3310145.3872639,1.7946918-.4568776.8510538-1.5493483,1.7741486-3.058961,2.6367124-4.602185,2.053315-3.673655,4.5663087-6.9491486,7.703642-9.8023755,3.6688907-3.3366279,6.5160069-7.5193653,10.5012689-10.5399282,3.2726791-2.4804721,6.8202467-4.451425,10.9306865-5.2257479,2.851205-.5371097,5.2186037.3976819,7.2954971,2.2893349.1815208.1653276.3677249.3323281.5167151.5255637,3.6869572,4.7819496,6.1918272,10.1397898,7.4247997,16.031367,1.0806409,5.1637062-.2762394,10.0631197-2.2776245,14.7758518-1.0679151,2.5146688-2.7724725,4.6905273-3.8619395,7.252087-2.3811603,5.5986041-3.5432987,11.4166363-4.1221388,17.4108035-.1461353,1.5133728-.3860165,3.0232242-.6784222,4.5159638-1.0525234,5.3732589-5.4243243,9.4595079-10.8633018,10.1895899-1.8670299.2506257-3.6168076-.1184501-5.2344547-1.0913764-3.7452186-2.2525601-6.7160535-5.2787744-8.8656723-9.0735634-1.7426357-3.076307-3.3769714-6.2138475-5.0738374-9.3162996-.2217157-.405398-.3041768-.9190419-.9427734-1.2586583ZM50.8814176,38.1473086c-.0962047-.7909327-.6332739-.9220365-1.0436613-1.1303689-2.3410014-1.1883826-4.4364567-2.7260678-6.3731949-4.47943-6.4014025-5.7953049-12.0036721-12.3106904-17.1852602-19.197804-2.661376-3.5373568-4.8144171-7.3114764-5.0656462-11.8767291-.0448961-.8157989-.5344349-.6606956-1.0133238-.6059467-3.3372809.3815157-5.7451131,2.2885423-7.500218,4.9559367C8.3203193,12.4693336,4.5564263,19.4699483,1.4271715,26.8053431c-.9766031,2.2892966-.6986097,4.4870087.3249002,6.6904398.5042009,1.0854548,1.0710133,1.4879527,2.368601,1.2085206,7.2049979-1.5515548,14.4281389-1.7002794,21.6102429.1704026,5.2346348,1.3634324,10.5139677,2.4710831,15.8936435,3.0717499,2.3199538.259033,4.6402139.5152786,6.9603388.7727941-8.9314719-1.9702235-21.8236368-9.5221013-23.3582689-14.3061718,7.1914705,7.6491362,15.6790158,12.012908,25.6547885,13.7342305ZM63.8544585,41.001175c.7287851-.086586,1.4559761-.1905315,2.1865804-.2570381,6.4571601-.5877969,12.9365927-.9965722,19.3658875-1.8047518,5.4763894-.6883921,10.8509272-.9535088,16.1603138.8521616.2285514.0777284.4960998.0399157.7255428.1160274.6211785.2060538.9947034-.0267756,1.3291772-.5617148,3.0852772-4.9344523,4.7827377-10.2969217,4.0734781-16.1017012-.7227059-5.9147997-3.6213287-11.0492717-6.7693074-16.0023399-.7733209-1.2167478-1.9735017-2.032738-3.2615744-2.6952147-.9641632-.4958904-1.5301695-.511514-1.461668.8516325.0921969,1.8345422-.4694684,3.5332702-1.6432068,4.925419-3.9314046,4.6629997-7.9127309,9.34063-12.960243,12.8163053-6.5310203,4.4972083-12.4966918,9.6935261-18.763469,14.5139278-.6912291.531697-.9608669,1.1689787-1.0043851,2.0084234-.0383846.7403626.2047479.8136419.8544672.6206787,7.940353-2.3582529,15.4135343-5.5870401,21.5158665-11.4104084.25829-.2464828.451699-.6388533,1.4396477-.5273335-6.2136764,6.5570078-13.8845266,9.7967466-21.7871075,12.6559266ZM51.1859997,40.534494c-.5437609-.5954702-1.144279-.5618409-1.6999371-.6345213-3.6513736-.4776145-7.3539746-.7123577-10.9445876-1.4749477-7.5103455-1.5950865-14.9811086-1.6391225-22.5293164-.3819547-4.0275643.6707939-8.1036767,1.0707521-12.0714576-.4993331-.9242611-.365739-.7889333.3197981-.7709568.8534225.120445,3.574834.7301045,7.0588896,2.4241696,10.2346661,2.6052446,4.8839408,3.9043499,10.1373807,4.7566511,15.54725.252481,1.6026247.4333083,3.2447418,1.2706861,4.8030918,2.0704854-4.2785322,2.9503547-5.3555797,6.9254171-7.8694559,2.9962866-1.8948772,5.8268178-4.0066878,8.6303798-6.1638358,1.8703397-1.4391074,3.7740116-2.8361376,5.8641306-3.9418699,5.5519608-2.9371516,10.9930097-6.0901918,16.749178-8.6333383.3019162-.1333869.8190186-.1144198.8346264-.7075123-7.6571067-.0826098-15.2651745.1876586-22.761862,2.0155699,1.1884456-1.0279274,2.6240856-1.1527944,3.9840641-1.441494,5.5626287-1.1808534,11.215635-1.2538625,16.8707532-1.2740185.7934139-.002828,1.6309313.1002079,2.4680615-.4317187ZM102.4587321,41.4789651c-4.3846978,1.9082515-8.4217186,1.2376918-12.4600904.1876721-3.7328711-.9705847-7.5227426-1.4934375-11.3832771-1.1999916-5.1943139.3948336-10.384611.8434435-15.5745389,1.2932333-.4796904.0415728-1.0496775-.0359259-1.5256393.5139232,1.7520292.9206811,3.5503145,1.4114627,5.2791077,2.0719535,1.7422575.6656423,3.4834162,1.3342207,5.2279702,1.9937973,1.744428.6595361,3.491873,1.3110836,5.2390839,1.9632211,1.6642904.6211965,3.4445542,1.0031692,5.2469374,2.2992845-1.1955876.1513049-1.8018157-.2240573-2.4209678-.4581475-5.8757712-2.2214976-11.7386634-4.4770883-17.6169744-6.6917997-.4002644-.150796-.9545445-.7895952-1.3320952.1088179-.3159209.7517645.2551919.937095.725849,1.1875585,2.82805,1.504943,5.4875211,3.2758673,7.9933277,5.2599154,4.0454237,3.2030969,8.0177977,6.4983457,12.0566558,9.7098634,4.1186084,3.2749397,8.351515,6.4240982,11.3318065,10.8770543.5350968.7995021.8727499.4593363,1.2958451-.0900084,1.2345666-1.6029759,1.8766396-3.4452297,2.1616781-5.4126882.4647851-3.2081224.9136472-6.4195861,1.297205-9.6382187.571329-4.7941215,2.3608962-9.1981242,4.4581167-13.9754401ZM32.4786892,121.419425c1.0182232-2.1042363,1.6946009-4.2462268,1.9624331-6.4951574.5180796-4.3501318.3721694-8.7334337.5819248-13.0997587.3358112-6.9903927.8099403-13.9120317,3.9587746-20.3727403,1.9989263-4.1013344,3.7406615-8.3300261,4.7984536-12.7967617,1.740141-7.3480305,3.0734611-14.8284168,7.0625417-21.4351976.2803643-.4643303.3322673-1.0527261-.0621431-1.351972-.4443049-.3370991-.7812464.2294655-1.0790018.5116716-2.1547253,2.0422284-3.4737164,4.6353955-4.5684972,7.321354-2.4764463,6.0757728-5.5541403,11.8148923-9.3295343,17.1759117-4.3152462,6.1275857-6.5543059,13.019288-7.5612758,20.36667-.6127487,4.4709776-.9290118,9.0099883-3.1271292,13.0971379-.3643025.6774045.0133382,1.1195929.3711112,1.5851616,3.5424926,4.6096737,6.464266,9.4960822,6.9923425,15.4936808ZM61.5452762,55.2394983c.1193687,1.3624733.268314,2.7231092.3533059,4.087717.5546854,8.9049305,1.6873104,17.6717053,5.0553746,26.0568676,2.4392145,6.0726746,2.724199,12.4283794,1.5377257,18.8531531-.3628705,1.9649638-.6972272,3.9351963-1.044652,5.9030241,1.1496648-1.4620823,1.9367473-3.0317171,2.7678072-4.5777196.2167352-.4031914.2388906-1.0776689.8544762-1.0774617.5788582.0001981.7006946.6205841.9318308,1.0295395,1.7202012,3.0436504,3.532275,6.0219065,5.9907989,8.5458787.4795734.4923352.9814372.9662346,1.5035921,1.4128902.5212633.445917,1.0809111.846947,1.8731182,1.4609385-.1993622-.5795967-.2486803-.8227202-.3603127-1.0327187-2.1151249-3.9787505-2.6595432-8.2701346-2.6413956-12.7024394.0171119-4.1774101-.0022335-8.3593954-1.4028663-12.388833-1.1072724-3.1854447-2.8736125-6.0165658-4.615924-8.8659785-1.7210478-2.8146487-3.3469086-5.6710773-3.9403028-8.9824743-1.1302923-6.3075574-4.0284739-11.9563983-6.8625761-17.7223834ZM48.6731592,44.5813137c-.4297688.1842677-.8668688.3532203-1.2881628.5551673-4.0710734,1.9514319-8.1227925,3.944135-12.2123963,5.8558269-6.9360175,3.242247-12.5722271,8.1478839-17.6985394,13.7128226-.8659501.9400355-1.6085913,1.9856602-2.030205,3.2192451-.5953801,1.7420053.0008196,3.084971,1.6577879,3.8725308,1.6777503.7974577,3.2757683.2773832,4.8567825-.2618475,2.7965596-.953806,5.0425812-2.7911784,7.3069711-4.6117902,5.770916-4.6399167,11.2694788-9.5036204,14.7555878-16.232625,1.1755217-2.2690416,2.6944424-4.3259276,4.6521742-6.10933ZM50.6580538,36.3636945c-.2412772-.4199475-.4578413-.8565386-.7276683-1.2572533-2.500547-3.7134716-4.6617568-7.6066222-6.4184603-11.731589-2.9791747-6.9954992-7.6122016-12.788539-13.1895149-17.8729408-1.127595-1.0279454-2.3329453-1.9779328-3.7640957-2.5428606-.9586919-.3784355-1.9416376-1.1183591-3.0145963-.2194461-1.1535735.9664508-.9222842,2.1845405-.5827309,3.3935114.5939256,2.1146566,1.7707712,3.933681,3.0534177,5.674592,4.7569663,6.4565702,9.9597551,12.5334643,15.6689738,18.1688634,2.6251574,2.5912218,5.5243746,4.8261658,8.9746749,6.3871231ZM61.7314172,36.8528145c.5127884-.1099977.8072024-.5368305,1.1780074-.8413676,6.98507-5.7367148,13.5952101-11.9378455,21.148601-16.9699299,3.5080663-2.3370747,6.3973497-5.3564172,9.1246468-8.5387007.838391-.9782512,1.5572152-2.0256906,1.8884468-3.2939766.3921138-1.5014035-.2954137-2.2955289-1.8528091-2.0683014-1.5690764.2289319-3.0277274.7957262-4.4184892,1.5624028-3.3848158,1.8659312-6.3037478,4.3605588-9.1881948,6.8813023-4.1752306,3.6487798-8.612687,7.0417733-11.9916668,11.5126338-2.1680636,2.8686636-3.6376481,6.1787457-5.6122936,9.1706732-.5739228.8695932-.7486979,1.6540593-.2762485,2.5852642ZM32.9862044,124.4550058c1.4733311-1.9343696,2.6088651-3.6935318,3.6245125-5.5322011,2.4676787-4.4673481,3.6246566-9.184106,2.9101644-14.3197623-.3175511-2.2824789-.4264996-4.5877525-.2084044-6.9128399.4028672-4.2951758,2.0022767-8.1980847,3.8624348-11.9927025,2.5631494-5.2286817,3.86121-10.6791872,3.6083417-16.5148986-.1786208-4.1219407.5853337-8.1144077,1.9452852-12.0043386.975349-2.7898635,2.2875224-5.4259004,3.5719745-8.0765454.2564347-.5291888.6120912-1.0718779-.2231837-1.4453082-.8746682-.3910465-.8503063.4571793-1.0608993.8280204-1.9034061,3.351817-3.3377042,6.9122635-4.1460504,10.6725226-1.8734424,8.7148268-4.346016,17.2180339-8.1650227,25.3068908-1.0044346,2.1274544-1.621781,4.4259644-1.9234495,6.7814749-.8194869,6.3989077-1.0760478,12.8340206-1.1231234,19.2756629-.0254066,3.4767606-.4908537,6.843726-1.6883101,10.1188548-.4082755,1.1166479-.9135076,2.233611-.9842696,3.8151701ZM64.292378,47.2979699c.0466433.308108.0429868.501463.1061386.6697447,2.4781845,6.6037007,5.8591727,12.7558194,9.5831726,18.7126737,2.307255,3.6906678,5.7246014,6.0283369,9.9796454,7.0487801,2.1558241.5170213,3.2371585-.2627121,2.9070707-2.2872702-.7075754-4.3399098-2.7821091-8.1075179-5.8391788-11.1684783-2.3482514-2.3512415-5.1495889-4.2485775-7.7381899-6.3615408-2.8515563-2.3276091-5.7267269-4.6210036-8.9986585-6.6139092ZM81.5435909,114.5137c-.6793678-5.1278568.0847487-10.0866215,1.4729528-15.0040655.5529292-1.9586324.5519025-3.9805787.0493182-5.9805138-.8712368-3.4668807-2.2233889-6.7371462-4.4375644-9.5489309-5.9479742-7.5533548-10.0336108-16.0100357-12.6735383-25.2254474-1.1349125-3.9617197-2.4545341-7.8773274-4.6505801-11.4160058-.2116467-.3410394-.3274579-1.1792683-.9421429-.7637518-.4822572.3259989-1.1763503.8574437-.7009108,1.711965.1192697.2143666.2416104.4295077.3342126.6558796,2.8393888,6.9412096,6.5268234,13.5586538,8.4309681,20.8519263,1.3443077,5.1489585,3.2776596,9.9253197,6.3648371,14.2868534,2.1462505,3.0321945,3.3653984,6.5175199,4.0142531,10.197074.6191521,3.5111104.4361363,7.0510857.5289186,10.5832257.0879009,3.3469266.5218757,6.627198,2.2092761,9.6517911ZM50.5795464,44.3163095c-1.4724395.9159438-2.640477,2.0233107-3.6574798,3.3046378-2.0007276,2.520703-3.5228905,5.3225448-4.786061,8.2632808-1.6267434,3.7871607-3.8574274,7.1213794-6.6971044,10.1385425-5.1269247,5.4473803-9.0732932,11.5968602-10.3555749,19.1582125-.7058822,4.1624598-1.3645132,8.3355199-2.1969466,12.4731225-.6887749,3.4235607-1.2440277,6.8778236-2.38157,10.5182907,2.5074998-2.1523026,4.1942383-4.4353039,5.0923948-7.2908769.7861323-2.4994032,1.1512949-5.0694694,1.4668781-7.6538645.9387251-7.6875929,2.7631645-15.1325305,7.2649209-21.5591055,4.2531661-6.071693,7.7300888-12.5167217,10.637889-19.3091661,1.1878602-2.774778,2.7470118-5.3275883,5.231915-7.1861073.2113855-.1581001.5082132-.3280073.3807389-.8569664ZM63.4635606,115.8159395c1.0985904-.8964993,1.6423332-1.7076195,1.9265702-2.641981,1.8819443-6.1860452,3.3439995-12.4444196,2.6750249-18.982888-.4180427-4.0859518-1.7523174-7.9522953-3.1158264-11.7935835-1.8689933-5.2653101-2.9495172-10.6719281-3.4224529-16.2401542-.3863227-4.5486024-.4907501-9.1324012-1.3969401-13.629686-.2427903-1.2049451-.5016297-2.403901-1.1180619-3.4895584-.5808846-1.023046-1.4387471-.3518378-2.1043444-.238062-.6706498.1146405-.2044327.7220304-.0870723,1.0834509,1.2128075,3.7347263,1.6817265,7.5617576,1.5420397,11.4805626-.1545111,4.3349833.0296035,8.6332572,1.1400641,12.8722431,1.2229125,4.6682323,2.95212,9.1556013,4.6694031,13.6466538,2.5483071,6.6643397,3.0535663,13.4582072,1.5600072,20.4197618-.5228664,2.4371701-1.3219542,4.7960939-2.2684111,7.513241ZM60.695141,39.0743616c.0379163-4.1382015-2.6959644-6.1910392-6.231914-5.1893695-1.76317.4994772-2.431289,1.2607613-2.2887832,3.0609514.1830969,2.3132397.1963721,4.5940569-.212043,6.8890409-.162977.9158087-.0163373,1.882327.7076654,2.6100809,2.236547,2.2481561,6.4626449,1.1727748,7.1840449-1.9072788.4569857-1.9511753.6198816-3.9712393.8410299-5.4634249ZM24.8614531,36.2594607c-7.0770147-1.4143132-14.1416908-2.4959133-21.4280061-.0338229.9665319.8400302,1.8582443,1.0853017,2.7725085,1.2627742,2.9287983.568519,5.8629868.3508291,8.78227-.0392132,3.2845809-.4388516,6.565208-.9034386,9.8732276-1.189738ZM84.886888,63.6891183c.3219731.6482333.6523311,1.2924587.9644334,1.9454023,1.1449095,2.395174,2.3642195,4.7699848,1.7771657,7.5778158-.1683627.8053291.4453316.6312835.8238009.5145176,1.1704512-.3610602,2.3306352-.7610725,3.4762922-1.1948491.8425609-.3190281,1.0957534-.7701057.468883-1.6441074-2.050433-2.8587703-4.4467328-5.3514638-7.5105752-7.1987791ZM86.4266041,39.9297699c10.0866125,2.2510606,12.4310903,2.3833037,15.0891205.8696697-4.8631454-1.6518843-9.7312712-2.1681716-15.0891205-.8696697ZM14.2118604,71.7579183c-.7362062-4.1776983,2.0609658-6.7733422,4.3301335-9.6144963-1.2746309.7345581-2.3708571,1.6224384-3.3622237,2.6465382-1.0690814,1.1043724-1.9373687,2.3437303-2.4521745,3.7894032-.6008964,1.6874275-.1303428,2.6661267,1.4842647,3.1785549Z"/>
  </g>
</svg>