<?xml version="1.0" encoding="UTF-8"?>
<svg id="Layer_2" xmlns="http://www.w3.org/2000/svg" viewBox="0 0 109.2843546 114.4433903">
  <g id="Layer_1-2" data-name="Layer_1">
    <path d="M88.3611547,22.4790785c3.517856-.3254295,6.9805604-.4335465,10.4453049-.2265155,2.886529.1724862,5.7170801.6155939,8.2714337,2.1018968,2.296979,1.3365296,2.8156479,2.6225986,1.4851329,4.9360383-1.8464051,3.2104448-3.5823898,6.4984033-5.7340673,9.525883-1.8790852,2.6439149-4.3890001,3.6652527-7.6170208,2.9383791-9.4181536-2.1207378-18.7940037-4.3713438-27.6998357-8.2184831-2.3140393-.9996194-4.5266235-2.1760833-6.6190541-3.5809712-.2556928-.1716745-.4865007-.4142704-.974347-.3797805.1704935.6641387.647188,1.0913341,1.0565846,1.501908,4.0209783,4.0325688,6.728619,8.841247,8.7309509,14.1416326,1.9677872,5.208934,4.7618848,9.9976561,7.9920847,14.5367403,2.7293298,3.8352526,5.455135,7.6774815,7.2691453,12.0703061,2.9702146,7.1927358,3.1478087,14.5877384,1.6105076,22.1005326-.7430564,3.6313112-1.6312608,7.2340082-2.3211472,10.8747892-.5596927,2.9536515-.4509249,5.8855114,1.0434146,8.6214811.1689359.3092942.3570456.6337987.1518171,1.0204749-.4859377-.1124095-.7069833-.5248115-.9212062-.8839046-1.1497546-1.9271949-2.5826169-3.6422655-3.9640204-5.3976432-3.1292785-3.9764299-4.246024-8.6963915-4.891903-13.5593878-.5587347-4.206938-.1940255-8.4550534-.4057768-12.6829567-.2846727-5.6838442-1.9824124-10.8640835-4.9699505-15.6698587-2.295809-3.6930516-4.7319104-7.2954853-6.9667834-11.0292243-3.6262509-6.0582719-5.9332847-12.5136807-6.3508641-19.6040034-.0960804-1.6313595-.3346324-3.2542474-.503934-4.8814168-.0573236-.5509358-.001075-1.2467271-.8183982-1.1806577-.795773.064329-1.7804454-.3226251-2.2177103.8471916-.9797217,2.6210447-1.8140176,5.2661698-2.1371692,8.06807-1.0279996,8.9130496-4.8186672,16.6211051-10.3972172,23.5291975-2.3819662,2.9496588-5.1135044,5.6110618-7.2772915,8.7395359-3.367538,4.8688903-5.3279029,10.1611953-4.6572852,16.1894855.3752869,3.3735051,1.2573304,6.6610066,1.7851108,10.009093.5913197,3.7511649.7963799,7.4743006-1.0894219,10.9839958-.1698171.3160511-.3400291.6330528-.5322338.935517-.1456599.2292211-.2686763.5810455-.5778828.5396853-.3325044-.0444753-.3212467-.4138646-.3420255-.6823251-.3557074-4.5957788-2.2193373-8.6943001-4.1839618-12.7633954-2.6659076-5.521592-4.0767041-11.3191181-3.7165543-17.4811779.2835209-4.8509524,1.8149207-9.3716088,3.7790442-13.763651,2.9865692-6.6783521,7.390063-12.368529,12.3146314-17.7086513,3.4075416-3.6950918,7.1395439-7.1033026,10.0822411-11.2136739,1.2539374-1.7515021,2.4420978-3.5501814,3.6535269-5.3319285.1993052-.293148.4182156-.5872758.4208627-.9711038-.2626251-.2656123-.4608773-.0246874-.6174842.0985009-6.6465568,5.2281954-14.4568536,8.0189183-22.3347043,10.6627015-3.2979658,1.1067893-6.6683667,1.8804746-10.1401204,2.2409607-5.1709669.5369285-9.3145832-1.1589794-12.3849586-5.4097347-1.6866246-2.3350338-3.1562639-4.8022029-4.5059855-7.3368308-1.0899594-2.0468292-.6956122-2.8987886,1.5643851-3.4125398,4.0791794-.9272867,8.2455855-.8925737,12.3935692-.910124,4.5426308-.0192249,9.080172-.0461316,13.9078484-.6015354-3.3153954-1.0506394-6.1305314-2.4973482-8.8105231-4.21647-1.7848403-1.1449209-3.4585288-2.4266243-5.0026489-3.886642-2.0176372-1.907747-2.6061196-4.1627955-2.0090705-6.8620229C13.4429021,6.1541836,17.9687175.5816227,22.3767487.0923176c2.3989643-.2662906,4.72983.0373309,6.9131564.9912391,7.7643919,3.3923095,14.3990694,8.2029347,18.9688738,15.511919.3887969.6218462.6333745,1.1139118,1.4667344.4656305.5197439-.4043179,1.249952-.1841718,1.8589682.0061243,2.0356628.6360802,4.0782288,1.1311842,6.2288385.6512941.1527531-.0340914.3403655-.0625704.4746397-.0058172,1.5187051.6419486,1.9766574-.3790675,2.5667047-1.4734473,2.1955092-4.0721264,5.3443855-7.2418546,9.4098757-9.4589653,5.5145353-3.007348,11.4396738-4.8296599,17.5955983-5.9456156,2.0511656-.3718408,3.8038011.2642522,5.1709011,1.8229646,2.4759186,2.8229404,4.1496437,6.0513249,4.5983383,9.8156287.2960364,2.48367-.6867566,4.5278922-2.4865658,6.1974821-1.6113632,1.4947892-3.6027774,2.3290411-5.5934092,3.1639001-.3887823.1630493-.8577986.1972065-1.1882482.6444239ZM63.8986705,18.0350949c.2057988-.1182011.4363216-.2074332.6137694-.3588591,3.9957791-3.4099585,8.7760112-5.2987841,13.6370112-7.023862.6863544-.2435776,1.4027709-.4818536,2.268277-.323179-.1720657.1428829-.2467641.2422723-.3450894.279914-.3714733.1422047-.7459449.280435-1.127612.3916068-5.9371238,1.7293832-11.2985989,4.557777-16.1173978,8.425962-.3568042.2864167-.8134037.5233746-.4273271,1.1731623,1.1338643-.6528699,2.2468364-1.272899,3.339772-1.9264526,6.1959757-3.7050772,12.8151322-6.3190104,19.9815718-7.2792403,3.918163-.5249961,7.9511048-.8524055,11.0674838,2.7011105.1498793-4.7493126-1.9010157-8.4209675-5.0786671-11.556756-.9456888-.933219-2.2207377-1.2000434-3.5669675-.977261-5.396912.8931075-10.3961861,2.9800025-15.4290178,5.0114661-5.1182942,2.0659535-8.5654007,5.8427674-11.2863357,10.4430179-.3042924.5144568-.7159485,1.0350672-.5991881,1.760822.4655135-.2102083.6042191-.6071149.8231807-.9279009,1.8138713-2.6573445,3.9410296-5.0222284,6.5101401-6.9719132,5.8788716-4.4614553,12.7823643-6.5721967,19.7309905-8.570483,1.5085991-.4338426,2.7925474.0996563,3.7641229,1.230122,1.7191145,2.0002643,2.8662512,4.3074901,3.340006,6.9224123.0503839.2781059.1477001.5899778-.1490676.8522812-.3448993-.3688536-.4135209-.7624915-.510296-1.142963-.4977329-1.9568877-1.4012207-3.7285653-2.5047888-5.4013416-1.3148368-1.9930522-2.3879771-2.4255621-4.6683711-1.7262224-3.5435891,1.08674-7.088692,2.1857706-10.4923031,3.6696384-6.012824,2.6214012-11.1283248,6.3811036-14.8412374,11.8814451-.2510712.3719414-.6390345.7027164-.5481534,1.3292902.8825518-.3855867,1.5241237-.9810746,2.2145293-1.5014363.1336526-.1281243.2673052-.2562522.4009651-.3843801ZM73.4606047,28.426217c-1.7693375.2315465-3.0914577-.9848113-4.7001664-.2687494-.6773014.3014807-1.375356-.8940764-2.1303831-1.160431-1.3911658-.4907859-2.7583317-1.031155-4.1287224-1.5713888-.2734551-.1078062-.6782081-.5543471-.9007455-.0745192-.1612431.3476708-.2702595.8616706.0744424,1.2386357.1570091.1717038.3850163.279839.5845994.4110638,3.1184266,2.0503685,6.5335112,3.4967921,9.99204,4.8371681,6.1812408,2.395564,12.6489531,3.8592599,18.9807824,5.7658515,1.4627782.4404642,2.9631945.7960033,4.2651391,1.6753924-11.6496774-3.2551944-23.7029451-5.3642356-34.1258149-12.0949533q-.5324312,1.2504127.4652942,2.0620687c1.3673267,1.1214584,2.9024779,1.9794874,4.4789233,2.7473664,9.6103509,4.681139,20.0783981,6.3959719,30.3687634,8.7150204,1.7246063.388658,3.1519183-.3390639,4.2547479-1.6335387,2.8132713-3.302145,4.8930072-7.0829406,6.911522-10.8895863.7204239-1.3586174.2979597-2.4388034-1.0343981-3.2416441-1.2061714-.7268005-2.5222367-1.1887271-3.8943897-1.4807673-5.5007584-1.1707564-11.0451877-.8832501-16.5658583-.3027202-3.9622873.416658-7.8754266,1.2635644-11.8587961,1.5642846-2.3936956.1807129-4.7858482.3818426-7.439083.5946798,1.7851766.6405007,3.479399.3570273,5.0165099.916815-2.171363.4794367-4.2780313-.2243838-6.4222132-.2715136,2.4769277.9332208,5.146477,1.2341348,7.8078069,2.4614652ZM31.454131,71.0083358c2.8949971-3.994024,6.1803632-7.6501031,9.2522633-11.4764782,3.573154-4.4507332,6.6231492-9.1714553,8.0787537-14.7950071.990347-3.8261082,1.1201458-7.7962712,2.118405-11.6226573-1.3436997,2.3693812-2.4899954,4.8178921-3.4625654,7.3462348-1.3870415,3.6057902-2.845264,6.3142279-3.9032599,7.0383373,2.012299-3.4585508,3.2002913-7.2605968,4.6950329-10.9398276-4.2737168,5.1936689-7.7795144,10.9680762-12.501348,15.7953211,3.4734648-5.0901041,7.4213573-9.8399304,10.8208002-14.9820637-2.5333007,2.5614103-4.9732778,5.1968865-7.4647905,7.7827173-5.7462172,5.9637198-10.5506285,12.5567849-14.1264589,20.0727747-4.5970183,9.662424-5.1290181,19.2754002-.4259742,29.0498827,1.4314254,2.9749678,2.9921232,5.9115443,3.8356768,9.1394188.2064862.790113.392296,1.5856301.6155976,2.4923062.5899632-.9231441.6204714-1.7401236.3676598-2.6346754-.653561-2.3126134-1.5608915-4.5164297-2.6509569-6.6546958-.9413488-1.8465441-1.8505185-3.7101412-2.7341635-5.5849339-.1812248-.3844898-.5289431-.8071002-.0795173-1.5016594,1.8805258,4.1548722,4.4734425,7.7858251,5.9619392,12.0020356.2638171-3.041242-.2350676-5.9819502-.7960289-8.9204865-.5304605-2.7787119-1.4652499-5.5088827-1.5299702-8.3425562-.1593601-6.9777158,2.1724891-13.1291796,6.5139353-18.5669252,3.305772-4.1405468,7.1742897-7.8468562,9.7408847-12.5615966.0261718-.0480731.1292797-.0542596.3976013-.157053-.4754806,1.6944929-1.3820982,3.0025729-2.3616956,4.2306017-2.1651107,2.7141927-4.4150257,5.3605756-6.6126885,8.0490499-1.4560214,1.7812059-2.7812201,3.6527957-3.749132,5.7419356ZM58.1962449,30.9624903c-.0766947,2.5809643.1151736,4.8808573.625455,7.1461837,1.0318607,4.5807953,3.3080133,8.6149181,5.6563781,12.6027629,2.9542658,5.016722,6.0600854,9.9458243,8.9421903,15.0029631,2.8027338,4.9178555,4.8984405,10.1085738,5.2661625,15.8664436.2562339,4.0121593-.2361608,7.9678214-.7334915,11.9266279-.5329212,4.2422068-.0545594,8.2806184,2.3263026,11.9484561.1479853.227978.1976014.612168.6051405.5890894.3186397-1.6080506.2618646-3.2953918,1.2311732-4.7092413.0494625,2.3392898-1.1955169,4.6801371.13951,6.984692.1921754-2.625988.6333453-5.1912302,1.2998825-7.7253133.6689358-2.5431873,1.3296302-5.0906744,1.8989097-7.6573499.6054623-2.7298271.9839923-5.4988644.9573525-8.3057957-.0810895-8.5448669-2.9325181-16.1238036-8.2754264-22.7128395-4.4889197-5.5358516-8.106198-11.5227816-10.6503359-18.186333-1.255473-3.2883241-2.941476-6.3719829-5.2890217-9.0440513-.1512394-.1721498-.2641608-.4332466-.652497-.4507677,1.6870487,2.8788947,3.6141778,5.49289,4.835925,8.4878907-.1020987.060329-.2042047.1206544-.3063107.1809835-1.6937763-2.7395931-3.3875526-5.4791862-5.0813289-8.2187793,1.3361019,3.4939255,2.4977175,7.0121143,3.2831212,10.6583396-2.2958748-4.5835339-3.3297903-9.6918975-6.0790909-14.3839615ZM47.172571,26.5038887c-5.9780818-.1810566-11.6654763,1.6928001-17.519613,1.761758-.0162121-.1432285-.0324278-.2864569-.0486398-.4296854,2.8271616-.339722,5.6543269-.679444,8.4814921-1.019166-1.0947893-.2402412-2.1639882-.3584862-3.2346313-.4617987-1.4570378-.1406032-2.860679-.6322703-4.380927-.3567384-7.8834704,1.4288258-15.8316465,1.9602588-23.8375283,1.5547563-1.4728258-.0745959-2.9219038-.4817658-4.4042945-.3796927-1.6514692.1137221-1.9234161.5777036-1.1801915,2.0411839,1.2875644,2.5353372,2.9673846,4.8160932,4.6612304,7.0899826,3.3153552,4.4506601,7.754827,5.8925791,13.092101,4.9640017,7.8276972-1.3618496,15.0429448-4.3989453,22.0132858-8.095474.0939012-.0497989.30019-.0935246.1887824-.3571991-5.0344953,2.5279698-10.2383836,4.4301116-15.8954747,4.7864369,1.0553744-.4182558,2.1457505-.7259083,3.2535527-.945762,7.5603773-1.500398,14.282499-4.9195557,20.7110523-9.0146876.3952832-.2518061.9617912-.5227164.67804-1.0882555-.2648189-.5277914-.7830198-.1553674-1.1565919-.0246508-1.695078.5931259-3.4021925,1.1303908-5.182689,1.407674-1.9437287.3027129-3.8775853.6902374-5.87108.623784,3.1353736-.9684055,6.4620706-1.0480252,9.6321242-2.0564672ZM46.2269699,15.1263501c-.2729725-.4091004-.5247384-.8343543-.8221935-1.2248003-2.9487155-3.8704994-6.7285678-6.7837195-10.8202225-9.3253309-2.4093227-1.4965991-4.8832047-2.863551-7.6869111-3.5131943-5.819431-1.3484108-12.0014871,2.4910521-13.1311649,8.2701888.8413489-.5668188,1.7622772-.8901989,2.5837577-1.2468332,2.7869532-1.2099209,5.7212921-1.0043342,8.4880735.4418298-2.4648912-.4591406-4.9264844-.9566377-7.6841031-.2201114.3881863.1169652.5304239.1953784.673923.1977732,2.4733665.0412486,4.6476874.969208,6.7468749,2.1873959,6.8805677,3.9928961,14.2112303,7.0270777,21.552456,10.0323416.9335938.382179,1.9086208.7527639,3.1495344.5417585-3.4501705-6.4864655-8.7271045-11.1287562-14.2525941-15.5571805,4.2573329,2.5236937,7.8639165,5.7751696,11.2025697,9.4161627ZM62.657618,22.4306544c2.238405-.6914476,4.3947771-1.7062553,6.7327287-2.1377615-1.5103541,1.0557473-3.3267336,1.3775497-4.9553473,2.1507231,6.1163633-.0975905,11.9488436-1.9845257,17.9523587-2.7545474-6.3697014,1.8609499-12.8073954,3.3347629-19.485667,3.5436952.2220036.1928774.417711.2193235.6141862.2372833,6.0543084.5533197,12.039169-.1019378,18.000344-1.0739374,3.2299293-.526647,6.4230981-1.214175,9.4771517-2.4480649,1.9766501-.7985957,3.5377244-1.8680102,3.3131102-4.3335303-.0072029-.0790713.056-.2483034.2909249-.150095.5804239.5291369-.0172358,1.2116302.1067788,1.8418457,1.1640215-1.1345626,1.1938423-1.533674.2253601-2.6980831-.6104714-.7339741-1.4300397-1.1322884-2.3097688-1.429217-2.6090593-.8806103-5.2522758-.788996-7.9248086-.3313344-8.1156166,1.3897581-15.13606,5.3134934-22.0373516,9.5830237ZM46.0272039,22.3418574c-.3671223-.1335575-.727912-.2889871-1.1023542-.3972393-3.1964887-.924124-6.1913322-2.3175494-9.1258246-3.8635159-3.4926531-1.8400359-6.9758401-3.7020242-10.5989063-5.2797932-2.2584196-.983495-4.5915119-1.6265844-7.0894159-1.3215041-1.3855059.1692175-2.638818.6433873-3.5237793,1.7980999-.2316599.3022778-.4835903.596636-.2478975,1.0691769.4761899.9547199,3.1532785,3.3924557,4.2046492,3.7502179-.7991697-1.1589209-1.8856921-2.1626427-2.204862-3.6962472.5065738-.0091335.6057987.2465447.7323324.4269724.8917254,1.2715608,1.6590377,2.6262476,2.8175931,3.7068615,2.8074943,2.6186242,6.1121256,4.3318704,9.7731297,5.3541917,6.227365,1.7389719,12.54122,1.6911767,18.8793821.7286469.3557732-.0540292.8109979-.0499122,1.0189173-.5585738-.817645-.5683142-1.7625587-.7002264-2.6977394-.8287785-2.8936515-.3977805-5.7352958-.9965298-8.4484318-2.1105257-.5248956-.2155246-1.068091-.4192759-1.6123943-1.2503286,3.2220719,1.1441166,6.0983048,2.2783611,9.2256015,2.4723391ZM54.428517,28.1252116c-.3620255-.0882596-.8833635-.0556928-.7836487-.5566177.1177404-.591444.4694258-.0308409.7102739-.0642194.1888921-.0261828.3699889-.1091224.5543179-.1675941.2793491-.0886252.505338-.5285409.8324019-.2392906.3719121.3289176-.3863838.5306762-.2001023.8710454,2.0842771.3325885,3.1379439-.9283506,3.9009857-2.6670191.4302009,2.1085074-1.0268003,2.7019331-2.5819442,3.3848872,2.2971618.135393,2.9087448-.3465373,3.1172858-2.3765804.1589908-1.5476301.2195465-3.1040939.1189396-4.660543-.0546106-.8447967-.2505666-1.657875-.7015208-2.3841563-.3761973-.6058901-.4487238-.6171186-1.3263103-.4635903.8960728,1.1210928,1.3567015,2.3240686.7162776,3.9297425-.5657256-1.1887454-.6605921-2.3919004-1.3514364-3.3328177-.2236416-.3046105-.3431077-.7385701-.8731916-.6814952-1.9604746.2111114-3.7729565-.4820876-5.6257163-.9333415-.3385958-.082468-.7406359-.2291516-1.000921.1158866-.2292869.303945.0110932.6209065.1635466.8864055,1.3980543,2.4347742,1.3797435,5.0230803.8311295,7.6618471-.2737403,1.3166393.0689506,1.8839408,1.3852207,2.0320285.7037072.07917,1.4274656.1121316,2.1144123-.3545776ZM76.9766399,90.729915c.2608408-.1804167.2853162-.4226836.3165191-.6555829,1.0489868-7.8269951.2090529-15.3398844-3.6262728-22.3847811-2.5938857-4.7645759-5.4896213-9.3469068-8.3181101-13.9696838-2.1261418-3.4748871-4.0234354-7.0592733-5.5326633-10.8454949-.2064423-.5179194-.4225812-1.0319959-.6366871-1.546833-.2102449-.5055464-.2898061-1.0730234-.7426908-1.6065551.6425007,5.0648317,2.4458638,9.5788628,4.8787915,13.8818374,2.2601527,3.9973952,4.9597129,7.7092328,7.4308783,11.5692021,3.0717867,4.7981627,5.2591351,9.9042521,5.8128972,15.641515.3175794,3.2903241.3295063,6.5894892.417338,9.9163764ZM5.3968815,26.5199179c5.9669648.843762,11.9107833.4240254,17.8480315-.3540876-5.9510909.0227386-11.9074762-.2436745-17.8480315.3540876ZM14.6404592,11.8843496c1.7304491-1.0237327,3.6153697-1.2324858,5.5544037-1.2026504-2.0778566-.6347383-3.9272233-.176329-5.5544037,1.2026504ZM63.8986705,18.0350985c.0325996-.3159853.2901352-.4624825.4959267-.6411478,2.016321-1.7505331,4.0779509-3.4372491,6.4259061-4.74251.6020254-.3346708,1.2558386-.6285994,1.8857762-1.4231676-3.8551502,1.4065132-6.7438585,3.7050132-9.3283255,6.4411803-.2515173.2662778-.3213308.5643947.1197513.7500253.1336526-.1281279.2673052-.2562558.4009651-.3843801ZM88.664533,23.9251401c2.9108435.01717,5.8246705-.0485228,8.7317261.0635612,2.6277138.1013235,5.2428353.3987201,7.7177155,1.4280543.8198607.3409944.9480801.729901.4967603,1.5078422-1.1247966,1.9387269-2.5416736,3.6677938-3.8102216,5.5024842-.5948078.8602446-1.2415937,1.6959993-1.5405186,2.7368984,2.061469-2.2822404,3.7114428-4.8631279,5.4014751-7.4026077,1.2847527-1.9304819,1.0941714-2.2890741-1.1446577-3.0738014-2.5438966-.891656-5.1978188-1.1716741-7.8702639-1.3278532-3.2566057-.190318-6.5071127-.1721535-9.7363107.2732869.5729358.3732284,1.1700763.2886873,1.7542955.2921352ZM64.0179758,26.7135595c2.1590851,2.0926646,8.8204938,5.1703673,11.3188475,5.1977676-4.0019363-1.2418679-7.5702786-3.4183753-11.3188475-5.1977676ZM81.9222102,25.3014248h8.1781175c-1.4037947-.5292576-2.6733079-.2568482-4.0088687-.4356635.4763508-.3279231,1.0467565-.008947,1.286537-.672029-1.9072461.0680512-3.7500753.0900694-5.5051094.7391661.0164388.1228409.0328848.2456855.0493236.3685264ZM23.4264924,75.8570725c1.2897033-6.6291382,3.936887-12.4358636,8.144304-17.5267866-3.9322544,2.7211032-9.2482743,14.1843601-8.144304,17.5267866ZM46.3545749,46.0782833c.9301715-2.6512897,2.1875458-5.1960272,2.6222001-8.0109768-1.1768259,2.5155127-2.1091765,5.1198042-2.9188947,7.7694047-.120936.3957439.2156782.144914.3305081.2092577l-.0338135.0323144ZM46.3905822,46.0436654c.1826325.1539232-.1236051.4650601.2443948.6118023.9104347-1.6618056,1.8334691-3.3099512,2.2566938-5.5096359-.6523508.7038608-.7629979,1.3364492-1.0169502,1.8914837-.471817,1.0311989-.7158681,2.1759736-1.5201457,3.0409677,0,0,.0338135-.0323144.0360073-.0346179ZM84.1268382,75.8426228c.9618205,4.898872.8829832,9.8037037.1146764,14.7039139,1.266069-4.924393,1.7666392-9.8303509-.1146764-14.7039139ZM78.8985185,65.6027584c-2.1392313-4.4310476-5.4025354-8.1313168-7.9644649-12.2875638,1.8720505,4.6047514,5.304934,8.1947756,7.9644649,12.2875638ZM38.2805927,31.1890606c1.6396703-.2555904,3.0424083-1.089133,4.645596-1.2573779-1.6696886.7148114-3.3393771,1.4296192-5.0090657,2.1444306.0643985.1336051.1288007.2672138.1932029.4008225,3.5297573-1.1778496,7.0650978-2.3441051,10.0883361-5.1317384-2.924306.5278316-9.2263292,2.9637429-9.9180693,3.8438632ZM12.5291584,28.5962425c1.2273048.5432064,2.7874176.540274,4.0952087,0h-4.0952087ZM22.3709133,38.8988784c-1.3518788.049404-1.7236154.1485155-2.7990081.8045152,1.5249683.0873162,2.2400211-.132468,2.7990081-.8045152ZM46.9093462,19.3111456c-2.8964669-3.2436477-6.2817233-5.8251897-9.9926067-7.9963424,2.0368511,2.2222167,4.6347002,3.7781576,6.7947871,5.8715206-3.9672014-1.8052534-7.9546697-3.5422911-11.8381015-5.5650362,4.6402578,3.2458123,9.9094879,5.3083453,15.0359211,7.6898581ZM21.7288587,2.0334466c-1.9806062-.0068629-5.4302136,2.8634998-6.0067618,5.1066982,1.8661346-2.1353977,3.5701339-4.0612873,6.0067618-5.1066982ZM46.4004323,24.1917616c-7.152798-.3077403-14.0361006-.9240179-20.5206283-3.7170845,3.398123,3.0367301,17.6128488,4.9916617,20.5206283,3.7170845ZM52.7916474,28.2529081c1.2150855-2.685381.7433635-7.0066847-.8456084-7.9665381,1.1602262,2.4517139.3786031,5.1220565.8456084,7.9665381ZM56.1654304,20.6904065c.1595246.0991627.353243.2450639.5168919.0354881.1396051-.1787824.051042-.3877695-.0730311-.5408883-.6719193-.8292465-1.5307051-1.1941531-2.8471726-1.0104091.9527894.6022703,1.6753851,1.0633232,2.4033117,1.5158093Z"/>
  </g>
</svg>