<?xml version="1.0" encoding="UTF-8"?>
<svg id="Layer_2" xmlns="http://www.w3.org/2000/svg" viewBox="0 0 97.1102262 77.4978737">
  <g id="Layer_1-2" data-name="Layer_1">
    <path d="M35.3355031,28.4317435c-1.5619505.846778-3.1245158,1.6924583-4.6857492,2.5405608-3.0493023,1.6564834-5.9669991,3.5631663-9.2004787,4.8695679-2.6312151,1.0630736-5.3311601,1.6404498-8.1900941,1.1683491-2.3264971-.3841906-3.9374045-1.6548295-4.8572226-3.8052356-2.2916199-5.3574826-3.8519752-10.9039212-4.3195753-16.7349022-.1117885-1.3938873-.2595518-2.7821178-.2413595-4.1849915.063622-4.9082724,3.0119955-7.8325115,7.9323278-8.0038092,7.5910349-.2642792,14.3141796,1.9999571,20.2396715,6.7142461,1.6256896,1.2933977,3.2408121,2.6007726,4.8881042,3.8661719,1.9511905,1.4988774,4.1381788,2.5474616,6.4800875,3.2912252.5702998.1811184,1.0614198.1964934,1.5678781-.1847774.3463569-.2607373.7675323-.4218266,1.1542695-.6292895,1.7399076-.9334001,3.3681585-.7221319,4.6800266.7153043.760712.8335106,1.26698.6531606,1.9182452-.0032857.590629-.5953124,1.2697169-1.1111889,1.8094571-1.7472548,3.1916504-3.7612184,7.2592113-6.3474649,11.5516079-8.615426,5.9175739-3.1266234,12.1543993-5.4498859,18.6191337-7.1570752,1.8618534-.4916615,3.760911-.6802149,5.6987244-.4021195,5.3154997.7627976,7.6276684,4.1182887,6.4133334,9.3411437-.4966523,2.1362898-1.4010296,4.0997159-2.7389495,5.8073954-2.9024024,3.7045997-4.76288,7.8965871-6.2209601,12.3309293-2.0005425,6.0840931-5.4063004,7.3902386-11.0876082,5.0191681-4.286513-1.7889742-8.6844193-2.8486816-13.2336162-3.6141356.0529817.4832825.4646145.641708.7463542.8730566,2.0939045,1.7192711,3.7509001,3.8087702,5.1729467,6.0908695,1.9253729,3.0898069,4.4665923,5.6427203,7.1583558,8.0258508,4.7948447,4.2450936,8.1228278,9.4630894,10.08239,15.4725325,1.4995873,4.5987099,2.435256,9.3717911,1.3577368,14.2602027-.8357938,3.7916755-2.4815637,4.6696059-5.9049432,2.8481035-6.2027531-3.3003946-9.7059857-8.5729089-8.411622-15.9072752,1.3104923-7.4257671-1.0264108-14.1123515-4.1033602-20.6611322-.2100535-.4470515-.5959857-.6320118-.9838206-.8233533-1.7176904-.8474951-3.4106024-1.7558168-5.1713953-2.5033638-4.8023529-2.0388591-8.8628447-5.0557064-12.1936526-9.0554376-.5647235-.6781512-.9498508-.9974246-1.7309505-.1882753-.75215.7791604-1.8348356,1.1083569-2.8930648,1.3520435-1.129491.2600934-2.0643547-.1345618-2.7526779-1.0270914-.5099563-.6612615-.9568175-1.376456-1.3796174-2.0981781-.431274-.736175-.8272465-.6446425-1.2231164-.0106768-.8294418,1.3282749-1.4362727,2.7657477-1.8935546,4.2543873-.53854,1.7532555-1.0188002,3.5260279-1.4711059,5.3038789-1.9446629,7.6436946-5.3650567,14.4927807-10.7955648,20.2830668-2.218031,2.3649747-4.9619127,4.0068369-7.6683999,5.7026614-5.9209841,3.7099051-11.8393191,7.4256646-17.9738399,10.7788507-1.4016443.7661565-1.5017534.690943-1.4768578-.9233161.081463-5.2827448,2.0270773-9.7008192,6.0917842-13.146533,2.1127554-1.7910306,4.4603428-3.230245,6.8136966-4.6657713,2.1129896-1.2889045,4.1972344-2.6270732,6.3383102-3.8672696,3.6308131-2.1030958,6.2763421-5.1274293,8.4239015-8.6698566,2.0475674-3.3774888,3.7694876-6.9573985,6.2234921-10.0834291.5160594-.6573757,1.0565753-1.2955638,1.5858216-1.9425846l-.1444996-.2537195ZM53.2029113,23.1490207c3.9897276,1.9455411,4.861789,2.2071639,7.6246241,2.2067101,4.7669927-.0007903,9.5000595.436199,14.1817692,1.2849235,3.3760472.6120192,6.8506814,1.1807091,8.7518173,4.6484498.2918092.5322247.5608743.1876533.8045609-.0964282.6891135-.8032876,1.1400727-1.7388758,1.4352774-2.7393812,1.4928255-5.0591458,3.6183288-9.7939543,6.9029313-13.975243,1.0636444-1.3540047,1.8230099-2.9020878,2.2154551-4.6075939,1.3396762-5.8215629-1.3514141-8.8857498-7.1166437-8.155656-6.9096345.8750178-13.2986139,3.2765748-19.4075221,6.5171966-.4937251.2619082-1.0366998.5036263-1.3202544,1.0893083,1.0755726-.3051059,2.1037105-.704686,3.132346-1.1029928,4.8747563-1.8876417,9.7339694-3.8337682,14.9093164-4.7687417,1.772165-.3201515,3.5794267-.5052655,5.3123677.2241038.6698235.2819007,1.3369832.70563,1.3373344,1.5363818.0003513.8071441-.4331913,1.3972609-1.1916201,1.7875473-1.8150773.9340514-3.6734473,1.7674596-5.6355268,2.3220112-6.9601574,1.9671801-13.8611567,4.1001403-20.2062287,7.6635774-3.7869774,2.1267985-7.3485484,4.6654347-11.7300041,6.1658269ZM32.1444382,13.2181189l.1445435-.1628748c-.0733109-.0922936-.1314005-.2044187-.2221134-.2740486-4.7725397-3.6638462-10.0711058-6.1566941-16.0601904-6.988185-2.7131758-.3766678-5.4290592-.2884796-7.9610872.9979881-1.654932.8408285-2.596616,2.1553676-2.7883308,4.0371257-.2168737,2.128767.0063666,4.2271427.2886918,6.3259502.6725604,4.9999512,1.6984443,9.9043451,3.8475844,14.5174567,1.5264879,3.2765601,3.5539457,4.4344227,7.8443079,3.8264064.4487785-.0636.6139146-.295234.7249274-.6542802.6074163-1.9641359,1.9796572-3.243893,3.7566666-4.1332246,1.3900088-.6956557,2.77289-1.4252446,4.2183686-1.9867629,5.1560863-2.0028989,10.3375218-3.9405073,15.6769804-5.9664283-2.4840518-.132103-4.6596535-.8340887-6.7208908-1.9167231-6.5981108-3.4655673-13.7219992-5.0901299-21.049194-5.9935046-2.0806444-.2565295-3.9756918-.8707368-5.3462057-2.5854635-1.2377083-1.548588-1.0504282-2.9155674.550761-4.0960423,1.7325312-1.2772909,3.7060413-1.3457135,5.7272203-1.1452611,3.458886.3430346,6.6720218,1.5435387,9.8347371,2.8913011,2.5226465,1.0750164,5.0229734,2.2024218,7.5332233,3.3065709ZM1.8513849,70.1174523c1.6139956-1.0197515,2.9618971-1.9266023,4.361185-2.7456088,5.0618022-2.9627313,10.1857043-5.8129716,15.0671931-9.0848264,4.196488-2.8127141,7.5848147-6.2824159,10.0981235-10.6811858,3.4836791-6.0970678,5.3837466-12.7593567,7.2348719-19.4504856.0228904-.0828095-.0458541-.1909756-.093362-.3671325-.6197982.6057039-1.2132519,1.1299959-1.7427177,1.7124581-2.6808598,2.9492151-4.7819798,6.3012523-6.491884,9.8733976-2.4007008,5.0152603-5.9220818,8.9578459-10.6714529,11.8246101-1.9130202,1.1547232-3.8194251,2.3204086-5.7284936,3.4816886-3.1449913,1.9130788-6.2223798,3.9144848-8.6940936,6.7006641-2.1551554,2.4293285-2.9131744,5.3747602-3.3393698,8.7364204ZM72.3332893,42.0894403c.2541658.6022937.3797413.8843847.4932861,1.171247,2.0590273,5.202394,3.5889693,10.4905101,2.7366077,16.1901419-.1707709,1.1421949-.2202985,2.3027578-.3194709,3.455388-.5123712,5.9547489,3.2061252,9.716582,8.0543907,12.4399443.1357912.0762673.297283.1187405.4522472.1469437.9301071.1693073,1.5809625-.0419024,1.9555227-1.0560484.8040926-2.1770799,1.0562972-4.4138886.9416694-6.7034888-.5383937-10.7538087-6.2503781-18.6554452-14.3142528-25.6441279ZM42.1956099,21.3054695c-.890605-1.0074867-1.7863032-1.5985255-2.6765276-2.1958504-7.1540821-4.800238-14.9283869-8.2085133-23.255487-10.3854541-2.0068798-.5246433-3.9654175-.3442128-5.8639043.3878276-1.1868488.4576405-1.3535509,1.2548615-.574954,2.2600504,1.0882326,1.4048861,2.6648629,1.8904445,4.3167213,2.0135172,5.2472968.3909596,10.2700653,1.808535,15.2155858,3.4387471,2.9768695.9812813,5.7815924,2.4800636,8.6775112,3.7138202,1.2527101.5336883,2.580019.7630317,4.1610546.767342ZM89.9542154,5.5354637c-.1221506-.3522552-.4117059-.4636339-.7289229-.5506-.9822399-.2692627-1.9768032-.2840083-2.9627899-.0751111-6.6521902,1.4093866-13.0691826,3.4466212-19.1295876,6.6256262-4.7490638,2.4911429-8.8787831,5.9321585-13.5736358,8.4851232-.1390111.0756014-.2588054.1857946-.3912304.2743926-.4239561.2836497-.6122461.7191462-.3535285,1.1285763.2444916.3869128.6509579.0780309.9582518-.0577164,1.3874768-.6129413,2.7323341-1.3114363,3.9930646-2.156802,8.0778373-5.4165675,17.0944753-8.6576723,26.3338999-11.3867938,1.718071-.5074682,3.4739609-.8982961,5.1257901-1.6130589.3085233-.1335154.7113014-.2080922.7286888-.6736361ZM67.9438717,36.7278669c-2.3305512-3.7599524-5.1379232-7.0121878-9.23278-8.9087866-1.8418608-.8530787-3.740216-1.5833701-5.4883343-2.6356351-.3012347-.181316-.6124217-.7518792-1.0718112-.1204017-.3474254.4775599-.4793967.8596282.0087961,1.34103.8792622.8670559,1.6760369,1.8194095,2.5728767,2.6666558,3.7893777,3.5797999,8.1731458,6.1594384,13.2112526,7.6571376ZM51.3051416,22.1507326c-.1200724-1.4406341-.6967241-2.6579694-2.0209741-3.4220476-1.1797358-.6806906-4.1917313.2349929-4.2900549,1.4748893-.1292344,1.6294217-.8201773,3.0749077-1.0553459,4.6390316-.2422962,1.6116758,1.2746931,2.8501452,2.7672405,2.1511452,1.242787-.5820377,2.5147578-1.2214772,3.5266206-2.2102959.7204488-.7040493,1.0003737-1.6087998,1.0725137-2.6327226ZM62.7853706,27.093831c.2623912.0783822.5199379.1854506.7879053.2308656,4.4125421.747891,8.7071195,1.8947181,12.8408344,3.6402825,1.3260649.5599523,2.764006.7569359,4.2058696.8210775.3060938.0136113.7277813.1092565.8563132-.2415424.1144522-.3123872-.2033502-.5752979-.4184091-.8056732-.6135926-.6572293-1.3952045-1.0796999-2.2117668-1.3910333-5.1768106-1.9737516-10.5884678-2.4269721-16.0607465-2.2539766ZM36.7654238,25.9920676c-5.2483066,1.9807183-10.1891145,3.7651115-14.7596943,6.403403-.7894421.4556866-1.5616139.9721558-2.1680496,1.6801495-.1515833.1769692-.3560459.4003558-.1486708.6148732.0983821.1017776.3724526.0836584.5526197.0478153.788403-.1568302,1.5102422-.491581,2.2199775-.8620944,4.2048158-2.1951259,8.4147834-4.3803653,12.6184283-6.5777012.5239042-.2738584,1.0737431-.5253898,1.6853892-1.3064455Z"/>
  </g>
</svg>