<?xml version="1.0" encoding="UTF-8"?>
<svg id="Layer_2" xmlns="http://www.w3.org/2000/svg" viewBox="0 0 129.4090136 104.5285747">
  <g id="Layer_1-2" data-name="Layer_1">
    <path d="M129.1275753,37.7273542c-.3762424-1.4317529-1.5710478-2.3345151-2.4203617-3.4730351-1.1305577-1.5155861-2.0075109-3.2270269-3.0736379-4.7891056-.8123395-1.1901378-2.2801517-1.6521353-1.5706817-3.2248304.5990958-1.3285174,1.5626278-2.4102944,2.4947682-3.5030539,1.1401674-1.3365712,2.0572068-2.8067629,2.6853147-4.4394958,1.6959738-4.4087447,1.7570182-8.7944262-.4822236-13.0391655-1.5487167-2.9359904-3.9910434-4.6961204-7.3431793-5.1562875-2.520211-.345949-4.8772402.2280701-7.2053489,1.072991-3.5186125,1.2768996-6.6462477,3.2812073-9.8132369,5.2258433-8.9856134,5.5172459-18.002893,10.982874-26.9836558,16.5078076-.8808887.5421698-1.3557906.3807269-1.8857881-.4008615-.5187405-.7651147-1.2287596-1.3958768-2.2123347-1.3420625-2.1867088.1204415-4.2831781-.4125762-6.4120457-.7361941-2.6774439-.4067189-5.2246536-.0424657-7.1166651,2.0518986-1.0299762,1.1399843-1.9008891.9748806-3.1054871.4788373-5.0007019-2.0588541-9.710642-4.6778162-14.3880005-7.3582803-6.3939246-3.6641307-12.8738788-7.1668186-19.4452624-10.4996436-2.6903483-1.3643936-5.5317977-2.2451907-8.5473198-2.5991935C5.9656135,1.7596408.9301336,5.8187757.4470863,12.1699601c-.4182505,5.4989417.5467459,10.6230138,4.1585266,15.0244369.7863476.9584069,1.4313869,2.0324961,2.1826819,3.1124427-1.1046573.6809155-3.1746769,3.0721735-2.7761034,2.9725988-1.2034083,1.812846-2.0941812,3.419953-2.6014816,5.2079052-.1232787.4345412-1.4425524,3.021654-1.3500248,3.0406904-.096463.0186703-1.121131,10.1485695,10.9715254,9.7916379,4.8737624-.1438709,9.5507549.3774322,14.2808296-.5527862,6.1337307-1.2062454,12.0362795-3.1611319,17.8114313-5.5274962.5353057-.2196502,1.0374809-.5718226,1.9695297-.5571792-1.0323557.9518174-1.8691313,1.7659873-2.7511182,2.5281733-2.6357104,2.2766739-5.4518084,4.3340637-8.3769079,6.2003579-7.0820702,4.5185698-11.3586588,10.9814096-13.7436934,18.9038247-1.2016694,3.9917755-2.0215136,7.9978283-1.8343534,12.1931463.2076609,4.6543868,1.6685175,8.9196268,3.8060796,12.9948694.1920108.3660836.4638279.6992197.7412278,1.0096586.3458575.3873164.7309774.3719409,1.0634728-.0355101.4543097-.5571792.9260085-1.103376,1.3347408-1.6931366,1.775597-2.5607548,3.5236461-5.1409119,5.3000668-7.7009345.3302074-.4762748.5380514-1.0707945,1.2098148-1.3903855.3835641.3939059.4299652.9466922.5927809,1.4222348,1.2099978,3.5349032,2.7801304,6.884202,4.9884381,9.9164725.9223476,1.2659171,1.9668756,2.4168839,3.1699179,3.419953.974423.8123395,2.0419228,1.4705578,3.2651911,1.8414005.5040056.1526569,1.0961458.4663905,1.4990208-.0431979.3465896-.4385681-.0844738-.9009317-.2884739-1.3200974-.1306918-.2679732-.2736475-.5403394-.4616314-.7691416-2.0944558-2.5516027-2.5622191-5.6065703-2.7388544-8.7567196-.3442101-6.1381237.8053839-12.0518381,2.7334547-17.8355928,2.2790534-6.8366112,5.0475606-13.4554026,8.8466847-19.6129287,1.6679684-2.7035274,3.212109-5.4791732,4.2912319-8.4861838.731435-2.0383535,1.2532872-4.1202709,1.4595753-6.2827267.1296851-1.3592684.166385-1.3658579,1.4887705-1.1257071.7164256.1299597,1.462687.2536959,2.1362808.004393,1.3471876-.4986059,2.6853147-.4627297,4.0422035-.1599785.9640812.2148911,1.909492.0333136,2.859479-.0713863.5511389-.0604038.9006572.0468587.9790906.7021483.6401887,5.35141,3.325961,9.8359341,6.1980698,14.1996505,4.1113933,6.2472166,7.2132197,12.9791278,9.8287039,19.9478952,1.9253252,5.1302955,3.2633607,10.404828,3.2467039,15.9385476-.0075962,2.531102-.407268,5.0109523-1.1426384,7.4351578-.3498844,1.1531633-.7744498,2.2660575-1.6062833,3.179436-.199241.218918-.3539113.4843286-.499155.7449801-.2031764.3646193-.4480863.7607217-.1089099,1.1549937.2766677.3214214.6517203.1815775,1.0053571.1021373,1.4355968-.3232518,2.6766202-1.0250341,3.8066288-1.9417074,1.506617-1.2227192,2.6925449-2.7210994,3.7262734-4.3509035,1.7469509-2.7540469,2.9763512-5.7346995,3.8857028-8.8559283.1331629-.4568723.2777659-.910816.4397579-1.4401729.7555965.3225196,1.0890987.9796397,1.517508,1.5163183,1.9811529,2.4827789,3.8494605,5.0585431,5.9950765,7.4055051.6237149.6820137,1.188765,1.8410344,2.1880817,1.6235807,1.0109399-.2203823,1.0457178-1.4943532,1.3031661-2.3963832.623898-2.1858852,1.445298-4.3080718,1.9202-6.5448425,1.096878-5.1669039.8295454-10.251805-.78589-15.2579982-1.8024126-5.5857035-4.4656707-10.7192938-8.2703776-15.2235863-2.0647115-2.4443402-4.4256761-4.5387044-7.1740487-6.2058491-3.7454928-2.2719148-7.3265225-4.7817839-10.6416841-7.6562723-.3108965-.2694375-.608614-.5542506-.7976962-1.0506599.6199626.2555264,1.2519144.4846947,1.8581488.7695077,8.4594597,3.9690784,17.378629,5.6940643,26.6930769,5.4143764,2.9369057-.0878601,5.8576121-.398299,8.6831368-1.2959359,1.5510047-.4927485,3.0242166-1.1374217,4.3421175-2.1093737,1.2322374-.9086195,2.2788704-2.0079685,2.7637481-3.4627847.4521132-1.3563397.4064443-3.0776648.0463096-4.4475496ZM75.3776259,24.3125869c1.2285765-.8515104,2.4403133-1.7337719,3.7146503-2.5120656,8.0689401-4.9282174,16.4127174-9.3710079,24.6957248-13.9206948,1.8872525-1.0367487,3.7799047-2.0632471,5.6742042-3.087183,2.9953875-1.6184556,6.1709797-2.1657506,9.7764455-1.589535-.9255509,1.7982026-2.2407977,2.9107307-3.6231294,3.9452829-1.6330989,1.2227192-3.376572,2.3004693-5.2474423,3.0934064-10.6823193,4.5277219-21.0565793,9.7286716-31.6598246,14.4273545-.9268321.4107458-1.8630909.8368671-2.9153982.8097769-.2900297-.0076878-.6388159.0274563-.7937608-.2745627-.2092168-.407085.0847484-.6882372.3785304-.8917796ZM14.8059832,5.4709963c3.8930245.8551713,7.4778981,2.5281733,11.0197569,4.2820798,8.2084179,4.0646262,16.3938641,8.175745,24.5930384,12.2594075,1.2855941.6402802,2.5975462,1.2274783,3.8907365,1.852383.3759679.1819435.7362856.3997633,1.0901969.6227082.2580889.1625411.5013515.3851199.398482.7248455-.1142181.3763339-.4217283.5597418-.8132547.5850016-.5515049.0358762-1.0559681-.1603446-1.5762644-.3031172-4.7507583-1.305088-9.2746364-3.2156783-13.7382022-5.2562283-4.0929061-1.8706872-8.2526225-3.4763298-12.6219218-4.6174124-4.7038996-1.2282105-9.1670993-3.1523458-13.3858467-5.5911948-1.8062565-1.0444365-3.5629086-2.1760009-4.9969496-3.963221,2.1202647-1.2033168,4.1261282-1.0382131,6.1402286-.5952519ZM40.0196248,43.244234c-8.6953091,3.3262356-17.6980369,5.092955-26.9758765,5.5516577-1.8041515.0889583-3.5895412-.0040269-5.3253266-.5886624-4.0756087-1.3731796-5.8761908-4.7316305-4.7965188-8.9240198.5084901-1.9746549,1.6110424-3.5832262,2.9488034-5.07099,1.0016962-1.1143585,1.9692552-2.2591019,2.9852287-3.4283729-.3159301-.3261805-.9377231-.8654216-1.4372442-1.5005767-3.3608305-4.2747582-5.3518676-9.0532473-5.1322175-14.5807436.0877685-2.2104128.8910475-4.2055684,2.2231342-5.973386.845287-1.1213141.9928187-1.1495025,2.1492768-.2595533,1.948846,1.4998445,3.9490353,2.9217132,6.071954,4.1656652,4.3728686,2.5622191,8.990464,4.4925779,14.0067245,5.3755715.7058092.1241023,1.4259871.1694967,2.1406738.2401508,1.7330397.1713271,3.4364267.455408,5.0726374,1.0953221,5.2989685,2.0727653,10.4483919,4.4845241,15.8586499,6.8977471-.6405548.3602263-1.1558174.2152572-1.622574.1903635-4.7904784-.2536959-9.5796755-.4078171-14.3691472.021965-.8305522.0746811-1.6740088.0706541-2.4872635.5817068.4627297.6713973,1.15838.5051954,1.7526252.5465628,3.2288573.2240432,6.4626568.3294752,9.6995679.3525385,2.3134653.0164738,4.5824514.3763339,6.8468615.9390044-2.2818906.9701215-4.6928256,1.326687-7.0806059,1.7850236-2.323075.4458898-4.7308068-.0556447-7.0418925.6450393,4.5146344,1.7509778,9.1409244,1.0579816,13.7669397.7303368-3.1002705,1.5478014-6.5566487,1.9633063-9.7672934,3.166257,2.3922648.3111711,4.6836735-.2108642,6.9927458-.6739599-2.2012607,1.2520059-4.5988337,1.8783749-7.0341133,2.386499-3.667517.7647486-7.3739304.7625521-11.0962684.6003771-5.6630387-.2471064-10.9120368,1.1732979-15.7652986,4.0832964-.4104712.2460082-.8066652.5176422-1.1964527.7958657-.1415828.1010391-.2449099.2555264-.431338.4565062.6208778.1680324,1.0630152-.179747,1.5153115-.3455829,3.0929488-1.1363235,6.2069474-2.1888138,9.4506311-2.8272636,1.4207704-.2796879,2.8406257-.4187996,4.2846424-.3342343,6.9594322.407451,13.7359141-.5070258,20.3540649-2.7130455,1.7817289-.5937876,3.4328574-1.3739117,4.9771811-2.4296968.9166733-.6267351,1.8476239-1.265551,3.1677214-1.5562214-.3212384,1.0942239-1.0003234,1.6751985-1.6126898,2.2836295-3.7537297,3.7303918-8.1521326,6.4247671-13.0932544,8.3152228ZM57.1355888,42.4498325c-.4097391,1.3233922-1.0735401,2.5343967-1.7210505,3.7501604-3.7446691,7.0324659-7.4945549,14.0627353-10.5327742,21.4411501-2.1936644,5.3276146-4.0232587,10.7654203-4.9809334,16.4704671-.6989451,4.1631027-.9111821,8.3313305-.2984497,12.5233537.0506111.3463151.1655613.7036127-.1032356,1.2527381-3.4077807-3.5997-5.1236145-7.9355941-6.9505547-12.6178033-3.3084805,3.8090998-6.4185437,7.3897635-9.6412691,11.0996546-1.5462456-2.7899231-2.4816807-5.5498273-2.9846796-8.4499416-1.5055188-8.6798421,1.3319952-16.1819932,6.4004226-23.0281225,1.9316401-2.6094439,4.3175899-4.8154636,6.7101293-6.9995184,3.1447496-2.8700954,6.4619246-5.5362822,9.7516433-8.2354166,2.5944344-2.12841,5.2060748-4.2355872,7.6462966-6.5463069.7164256-.6783529,1.4012765-1.4471285,2.4770131-1.7993009.2368561.8588321-.3441186,1.3244905-.6793596,1.8307841-1.3888296,2.0983912-2.8537132,4.146995-4.2364109,6.249047-1.778068,2.7035274-3.5187955,5.4352432-4.7413317,8.4499416-.5349397,1.3189992-1.0887326,2.6544722-.6938199,4.2732938.9941-.1248345,1.4416372-.858466,1.8734328-1.5199791.8507783-1.3036237,1.6366682-2.6500792,2.4331746-3.9884808,2.7877266-4.6840396,5.4250843-9.4617966,8.6517452-13.8720057.4873488-.6659061,1.0015132-1.3124097,1.6164421-2.1163293.4131253.7636504.1661104,1.3076506.0035693,1.8326145ZM64.2366038,33.8805477c.0246191.8994674.4091899,1.9014382-.8898577,2.4077318-1.4369696.5597418-2.7701546.7178899-4.0365293-.3225196-.621976-.5110527-.9973948-1.212835-1.1882158-1.9669672-.8669775-3.4283729-.5301806-6.7780378.9865038-9.9490539.9651794-2.0174867,2.8425476-2.5896754,4.9510061-2.5464775.9536478.0190363,1.8621757.2357578,2.7032528.5663313,0,.2258736.0440216.3653514-.0063149.4455237-2.2016267,3.4880445-2.6293039,7.3637715-2.5198449,11.3654313ZM70.9066469,35.6282308c-.2971684.3697444-.5817068.7453462-1.031166.9730502-1.2271122.6216099-2.2427196.2965277-2.7926687-.9499869-.2925008-.6629774-.3841132-1.3717152-.426762-2.0947303-.1662935-2.8217724.317486-5.5999808.5449154-8.3946629.023887-.293599.0970122-.5996449.2207484-.8657877.3479625-.7482749.6137391-1.6371258,1.5835861-1.778068,1.0934917-.1585142,1.977309.297992,2.6385475,1.1846465.5927809.7951336.8113328,1.7282807.9389129,2.6768033.1191602.8848241.1510095,1.7817289.221206,2.6731424.0464926,2.3938206-.348054,4.6492617-1.8973198,6.5755936ZM89.588625,49.5789445c6.2294615,4.6452348,11.8739214,9.8930431,16.4467632,16.216039,2.3281086,3.218607,4.3014823,6.6228183,5.2490896,10.5421093,1.101271,4.5555443.6249047,9.0437292-.5230419,13.5015291-.3860352,1.4987462-.7041618,3.026047-1.4308377,4.6715928-3.7992156-3.1625962-6.9647404-6.8216017-10.6419586-10.3685857-.7110259,2.5076726-1.3276937,4.8037489-2.480674,6.8918898-1.1510583,2.08448-2.4749997,4.0342412-4.2888524,5.9312864-.1382881-1.396975.2461912-2.4846094.3263635-3.5956731.4520217-6.2655207-.7020568-12.2850333-2.6892501-18.1819079-2.4005017-7.1239868-5.7908934-13.7929317-9.4173175-20.3491228-1.9129698-3.4587578-3.8861604-6.8838359-5.8128584-10.3352721-.7547729-1.3515806-1.4789777-2.7258585-1.4308377-4.4061822,2.780954,3.4521683,5.390581,7.0192869,7.9142697,10.6464431,2.537783,3.6469248,4.4786667,7.7342481,8.0854138,11.0974581.30449-1.6151608-.1157739-2.6116404-.5005278-3.6055573-.9358012-2.4183482-2.301293-4.6042334-3.7403676-6.7417955-2.1080009-3.1303808-4.2671619-6.2245194-6.6953944-9.1231693-.4689531-.5601079-1.4149131-1.4075914-.904501-1.8952148.6501645-.6212439,1.2659171.4989719,1.8133951.9360758,3.5123891,2.8042003,7.1192277,5.4821019,10.7211242,8.1680572ZM124.6468952,44.2670715c-2.3929054,1.0521243-4.9542093,1.4211365-7.5243907,1.5858741-10.4018078.6651739-20.404676-1.1502347-30.0307526-5.0750169-3.0065531-1.226014-5.8332675-2.8104238-8.2508836-5.0212026-.7485494-.6845763-1.4200383-1.458111-2.0835648-2.2283509-.3432949-.398299-.7137715-.8112412-.8042857-1.5251043.75761.0900566,1.3429777.503731,1.9581812.7819546,5.7244492,2.5896754,11.6657114,4.3186882,17.9753452,4.655119,1.5611635.0834671,3.1167442.0497874,4.6707691-.052716,5.139173-.3382612,10.1723649.047957,15.0093359,2.0017451.8742991.3529046,1.821815.5249639,2.7773847.7922049-.0677255-.5743852-.4803017-.635155-.7944929-.8083126-5.6116954-3.0893795-11.5612861-4.5639642-17.9829415-3.7252667-5.0573534.661147-9.8847147-.5725547-14.7131743-1.7663534-2.2075756-.5458306-4.3957488-1.1820839-6.5058546-2.040916-.7393058-.3009207-1.5848674-.4751765-2.0728568-1.379403,5.7857682,2.2891207,11.3979212,1.5551231,16.9313663-.8485818-2.0794463,0-4.1600825.0450283-6.2378814-.0124468-2.0910695-.0582073-4.1807662-.2068372-6.237973-.8200273,5.9682609-1.0477313,12.0718811-1.5148539,17.6329655-4.2721956-5.8477278.8599304-11.6400855,2.1364639-17.6679265,1.9369483.2238601-.6029397.718073-.740221,1.0996236-.9719519,6.0073403-3.6494874,12.1893025-6.892988,19.0942797-8.5692848,2.261939-.5491254,4.4707044-1.3413303,6.6709583-2.1159632,5.4033024-1.9021704,10.0466152-5.0223009,14.1528834-8.9814949,1.1754029-1.1333948,1.3121351-1.1480382,2.4129485.0450283,2.1878071,2.3711235,2.7340953,5.2716038,2.4777453,8.3580546-.2381374,2.8657024-1.2330611,5.4707533-2.9788222,7.7844016-.7929371,1.051026-1.5279414,2.1481785-2.248577,3.2508223-1.0753706,1.6451797-.9484311,3.2705908.1498197,4.8667153.6149289.893244,1.3468216,1.6803237,2.0942727,2.4600818,1.3719898,1.4313869,2.6595973,2.9315974,3.5539396,4.7217462,1.6103102,3.2240982.7879034,5.5157815-2.5274411,6.9738925Z"/>
  </g>
</svg>