<?xml version="1.0" encoding="UTF-8"?>
<svg id="Layer_2" xmlns="http://www.w3.org/2000/svg" viewBox="0 0 122.957435 86.6318756">
  <g id="Layer_1-2" data-name="Layer_1">
    <path d="M122.7762192,8.9527163c-1.4003515-4.3804356-4.282576-7.3275629-8.7664856-8.5096815-3.522382-.928627-6.961109-.29021-10.318539.9234055-.4126607.1491754-.8019654.3648258-1.1962108.5616116-.1333989.0665872-.2507405.1773599-.2091937.3507335.0425574.1778652.201895.2012212.3501159.2037477.238501.0040985.4843009.0263317.7148294-.0199312,1.9652756-.3940208,3.9496402-.6447613,5.9461321-.8009548,1.8633175-.1456384,3.7508894-.1776406,5.4867593.5717737,2.9436464,1.2708827,4.9166699,3.5341723,6.0820013,6.5011186.2139098.5447683.3193489,1.1441088.2433295,1.733175-.3569656,2.7686446-1.3239952,5.3071536-2.9964221,7.549726-2.5416531,3.408016-5.6738322,6.2334225-9.1155909,8.6696366-2.8297857,2.0030046-5.8525956,3.726635-8.6198366,5.8394579-2.3508747,1.795046-4.9994266,3.1756909-7.3215555,5.0159892-3.9232524,3.1091037-8.0297599,5.9507921-12.2208207,8.6844587-9.1341186,5.9579224-18.4799012,11.5588792-28.0072545,16.862608-4.477846,2.4928076-9.0656225,4.7795655-13.3738003,7.5890832-4.3553391,2.8402847-8.8008459,5.5456547-13.1931279,8.3322655-2.8121564,1.7840979-5.7008937,3.4368742-8.8245388,4.6278636-2.28833.8724826-4.5833973,1.7133561-7.1189868,1.3022674-1.2734653-.2064988-2.5078542-.5036706-3.7033913-1.0652822.1493439-.113973.2472596-.0271738.3445015-.005053,3.2250417.7330202,6.3439707.5309568,9.3232126-1.0172227.8838238-.4592605,1.6774798-1.0592186,2.540418-1.5501445,1.0541657-.5998459,2.098113-1.2181632,3.1375689-1.8433301.1709033-.1027441.4971018-.1949331.390203-.4460104-.1093691-.2568041-.4040145-.0670363-.5958035-.026444-1.2958108.2741527-2.4578858.8872486-3.5678589,1.5685037-2.7079526,1.6622086-5.5378506,2.7775715-8.8045514,2.4032012-1.6423335-.1881957-3.2284104-.523658-4.683671-1.3315186-1.7212724-.9554639-2.857521-2.3477307-3.1216239-4.3480403-.130704-.9902734-.0642291-1.9815574.1103797-2.9629601.7305498-4.1048231,2.6295751-7.6066563,5.4814817-10.6185742,1.4657035-1.548011,2.9093984-3.1170762,4.3807163-4.6597535,1.3138893-1.3777815,2.6475413-2.7373161,4.2030757-3.8806389-.1380027.274265-.264552.5548743-.4155802.8217843-1.507138,2.66416-2.4997695,5.4933843-3.0362845,8.5203489-.6018671,3.3958327.0187522,6.5340192,1.5555344,9.5505971.2441155.4791356.5218053.5206824.8910103.1077971.2675838-.2991369.5128222-.6306691.7062955-.9817395,1.9063241-3.4582652,3.395945-7.0955185,4.4826744-10.886158.8358766-2.9159111,1.6154965-5.8445109,2.8523558-8.6263494.2463613-.5540321.4273705-1.1362486.5431401-1.733568.1320514-.6814797.0097691-.8562569-.6577868-.9923508-.7297638-.1487263-1.4584047-.1363184-2.1891791.0010106-2.0791363.3907644-3.8159045,1.4743497-5.3241654,2.8666164-3.38932,3.1286981-6.7263135,6.3154494-9.7798905,9.7836521-2.7106475,3.0785612-4.5193928,6.5854474-5.2043534,10.6550119-.4674576,2.7772347-.0312162,5.3353381,1.6760201,7.6292263,2.794864,3.7552686,8.0390798,5.5908509,12.7029881,4.3957068,3.2815229-.8408734,6.3295977-2.2547557,9.2640365-3.9228033,4.1097638-2.3361088,8.0088742-5.0096449,12.0093812-7.5206994,3.253563-2.0421933,6.4715306-4.1486157,9.8352488-6.004073,5.0851029-2.80497,10.2563311-5.4526236,15.3031436-8.3286722,4.6152872-2.6301366,9.2185596-5.2802044,13.7163929-8.1091479,2.7544401-1.732389,5.3698668-3.676442,8.1555231-5.3608837,3.1804631-1.9231674,6.2558241-3.9920854,9.1662331-6.3134843,2.4279047-1.9365858,4.9135258-3.8049563,7.5819528-5.4095609.9002179-.5413435,1.7530501-1.1460178,2.5695007-1.8054889,1.6469373-1.3303957,3.3576546-2.5660198,5.2313027-3.5668483.8427262-.4501651,1.6759078-.925932,2.4336315-1.5123033,2.7217641-2.106647,5.3236039-4.3474789,7.6771736-6.8679094,2.3561523-2.5233501,4.2327199-5.3155191,5.022895-8.7377397.2943085-1.2747005.664075-2.5784838.2553443-3.8570583ZM21.4622314,54.5556552c-1.0093625,1.9790309-1.5911299,4.1048231-2.133484,6.2392054-1.0327185,4.0647361-2.6911093,7.8763175-4.6307831,11.6686414-.1086954-.4000844-.1538354-.7416103-.1513651-1.0922876.0023581-.3489931-.0095445-.6984353.0049407-1.0467546.1363184-3.2830388.6909119-6.4904512,1.7548467-9.6039342.9654576-2.8250696,2.4492396-5.2916017,4.9137504-7.0760926.1486701-.1076287.3011581-.2099797.4540952-.3114887.059513-.0395817.124865-.0702927.2656749-.1481087-.0926381.5424664-.2717385.9672543-.4776758,1.3708196ZM20.0009071,52.4938675c.5949052-.3532039,1.2205774-.5846869,1.9406844-.4766652-.0039301.2355254-.1996492.2759493-.3272091.3393924-2.94971,1.4672755-4.5918189,4.03279-5.8256464,6.9353949-1.2544886,2.9510575-1.9915511,6.0269799-2.1561663,9.2333817-.0242543.473858-.0033687.9500741-.0033687,1.4912491-.4700402-1.6670931-.4040145-3.2803439-.1678715-4.8836571.4821674-3.272989,1.5577802-6.3472832,3.2928641-9.1702193.8417156-1.3693598,1.8290695-2.6273293,3.2467134-3.4688765ZM45.1532232,33.2559058c.5474071-.2682014,1.0244092-.6466141,1.5279114-.9843783,2.5340175-1.7003867,4.9024093-3.6354005,7.4774121-5.2774533,2.7779084-1.7714654,5.7186353-3.2515418,8.6203981-4.8009003.4618431-.2466981.8926946-.5640819,1.4051799-.7073622.0376167.0527195.0751211.1053829.1127378.1581024-.1099306.0686645-.2386133.1189137-.3269845.2086884-3.0277506,3.0742942-5.3580765,6.6157092-7.0655374,10.5725359-2.261493,5.2407349-3.1202764,10.7327718-2.9310701,16.4109832.0166187.4973263.0870237.9912279.2687067,1.4572818.2097552.5377502.4717245.6141627.9153769.254446.5151802-.4177698.9647839-.9056078,1.3871014-1.4164088,1.1241215-1.3598153,2.1791854-2.777347,3.3701186-4.0812425,2.943871-3.2230205,5.2536481-6.8359072,6.8610598-10.905584,1.0265426-2.5991449,1.9370911-5.239612,2.9190552-7.854365.7174121-1.9102542,1.43168-3.8175888,2.4752905-5.586247.5830026-.9878031.3739211-1.4458284-.7435753-1.6850032-1.0240723-.2191874-2.0684688-.3879572-3.1143251-.1522634-1.3271393.2991369-2.6391197.6461088-3.858911,1.2840205-1.7102681.8942666-3.438727,1.7533308-5.1533744,2.6391197-4.2744913,2.2083805-8.3299074,4.7582307-12.064178,7.8012525-.8533936.6954035-1.7325013,1.3697528-2.4026398,2.2616053-.095333.1268862-.2391748.275444-.08635.4373081.1253141.1325567.2793741.0281844.4065971-.0341357ZM69.888724,22.8565751c-1.3636331,3.137232-2.4478921,6.3813067-3.6439906,9.5817572-1.6996007,4.5479702-4.0840497,8.6586324-7.3544561,12.262199-1.1332168,1.2486496-2.140895,2.6112721-3.2058404,3.9217927-.0792758-1.4265147.0464875-2.8103598.2709525-4.1846603.5831149-3.5722382,1.9406844-6.8813841,3.4350215-10.1475796.7740055-1.6915721,1.6504183-3.3164447,2.6627003-4.8808499.7767004-1.2003093,1.4252796-2.4859018,2.0946321-3.7527421,1.1014392-2.0845261,2.7939657-3.4698309,4.9711299-4.3015528.5414558-.2068357,1.0625873-.4770021,1.7175669-.5954105-.2457998.7794515-.6512741,1.4151175-.947716,2.0970463ZM65.6731842,21.6409384c1.2718933-1.1945264,2.6780838-2.0081698,4.5969842-1.671304-.4786864.1531617-.8818026.2757247-1.2806518.4109202-2.1364035.7239809-3.8782247,2.0229358-4.9970686,3.9562091-2.4160021,4.1745544-5.0865626,8.2178433-6.7820086,12.7800181-1.1834099,3.184674-2.0586997,6.4321173-2.2582366,9.8409755-.0800618-.6202824.0061759-1.2341643.0556952-1.8491691.0500807-.6219667.0774792-1.2465722.1518142-1.8655633.396042-3.2979732,1.181501-6.5010625,2.4195954-9.5850697,1.8391755-4.5814884,4.4826744-8.6252265,8.0938767-12.0170168ZM23.2132603,48.5889182c.5778373-.3918873,1.1489373-.7938245,1.7183529-1.197839,3.042685-2.1588612,5.9651089-4.4858185,9.0994214-6.5162214,1.0291253-.6665453,2.0936215-1.2707704,3.2770314-1.6512043-.1208226.1086954-.2410837.2181207-.36258.3259739-1.7373297,1.541779-3.2439062,3.2793894-4.1524335,5.4340959-2.3734448,5.6281307-2.8221501,11.4322738-1.4334766,17.3783497.100386.4293917.193361.9473792.6856344,1.0452387.4953051.0984771.764461-.3707771,1.0314833-.7099449.5365151-.6814797.901004-1.4716548,1.3442072-2.2124229,1.7605734-2.9431973,3.279614-5.9920581,4.2610166-9.2963756.5492037-1.8487761,1.1588187-3.6816634,1.8053766-5.4988865.6147802-1.7280097,1.2045201-3.4713468,2.2493658-5.0149786.5292163-.7819219,1.2123803-1.4273008,1.7820205-2.1708199.5504389-.7185349.3933471-1.2639208-.4754301-1.5237567-.5471825-.1636045-1.1145769-.2426557-1.6859015-.2391748-2.4108369.0145975-4.6581815.6964141-6.724966,1.8767922-4.0286914,2.3009063-7.8378586,4.9335694-11.4085247,7.9009648-.5629029.4677944-1.1156998.963268-1.4915299,1.611398-.0916275.1580462-.2078463.3489369-.0647905.5097342.1748334.1966174.3821182.0600744.5457227-.0509229ZM38.6228534,47.995585c-.8113976,2.2434145-1.2976074,4.5970965-2.2851859,6.779819-1.0232863,2.261493-2.2769888,4.4020511-3.4899306,6.563495-.0671486.119812-.122956.3287811-.2824059.2995861-.2157065-.0395817-.1281213-.2675838-.1486701-.4182751-.0817461-.5993967-.2297425-1.2009269-.2200857-1.7995376.040087-2.5070121.3736966-4.9667507,1.2611136-7.3354793,1.1032358-2.944657,2.422964-5.7918475,3.8082689-8.6102921,1.0743776-2.1859789,2.9071526-3.4232873,5.3212459-4.1531072-2.013672,2.695264-2.8979449,5.7252042-3.9643501,8.6737913ZM42.5790064,38.2443843c.0723139-.0081971.1470981-.0032002.2198611.004267.0331251.0033687.0640045.0277353.1356447.0609727-.1659626.1897678-.3961543.2022318-.5907505.2440593-3.0335896.6522285-5.0465879,2.5394635-6.2832225,5.292893-1.2039587,2.680498-2.4459832,5.3476898-3.4246909,8.1238578-.4656609,1.3210757-.6946175,2.6971729-.9382838,4.0812425-.058727-2.3544118.1926873-4.6780566.8143171-6.9589755.7884908-2.8924989,1.9899791-5.5691791,4.0629395-7.7889008,1.629308-1.7446284,3.6206346-2.7900917,6.0041853-3.059416ZM84.540032,32.2416588c.1789881-.1566988.34001-.3354061.4984492-.5137205,1.2345012-1.3894595,2.3214551-2.8929481,3.3940361-4.4071603,2.1679566-3.0607073,3.9784984-6.2844577,4.9721405-9.9490533,1.029013-3.7949065,2.1185496-7.587455,4.6628976-10.7357474.2397362-.2966104.0800618-.422879-.23109-.4538145-1.9612332-.1947085-3.8483559.0297565-5.5974759,1.006836-1.9118262,1.067921-3.1856284,2.7246274-4.2605675,4.5796356-.8310481,1.4341504-1.3611628,3.0141637-2.1989482,4.4412399-1.954945,3.3302-2.928712,6.9121512-2.7949763,10.76556-.0656888,1.0095309.0327883,1.9982884.1212717,2.9847441.0619833.6923717.1413714,1.390807.4129976,2.0439899.2265985.5445999.5759284.6275811,1.0212651.2374905ZM96.4189338,7.5256401c-1.1868908,1.8756693-2.0429793,3.8995595-2.791383,5.9740358-.4369151,1.2111452-.7948912,2.4471061-1.116149,3.6921624-.6312867,2.4464885-1.67209,4.7094413-3.0560473,6.8110352-1.253478,1.9034046-2.5586087,3.7727295-3.8420677,5.6563713-.0827567.1214402-.1670855.2434417-.2647766.3525302-.0910661.1016774-.1537231.2945892-.3327112.2214893-.1428311-.0582778-.094547-.230304-.084441-.3491615.07703-.9143102.1037547-1.8382772.2589376-2.7397864.7968001-4.6297725,2.4222903-8.9978002,4.2695506-13.2924472.7689525-1.7876911,1.9488815-3.2213923,3.6013209-4.2769055,1.0988565-.7019724,2.1826664-1.4265147,3.3577669-2.0493236ZM83.8614718,25.6331361c.0739982-1.153878.2437786-2.2994466.505748-3.4283964.2372659-1.0227248.5461719-2.0201847,1.0229494-2.9606581,1.3038956-2.5724202,2.5737677-5.1626382,3.9166274-7.7145657,1.1697107-2.2230341,3.1448676-3.4796,5.4521744-4.2842042.027623-.0096568.0674855.0154958.1645028.0408731-.7902874.5250616-1.5474496,1.0210967-2.2974254,1.5276868-2.0415196,1.3787921-3.5014963,3.2078054-4.3621887,5.5295413-1.2639208,3.4088582-2.6522574,6.7752152-3.4575915,10.3362245-.3899784,1.7243603-.6133205,3.4676413-.5169768,5.2421385.0157204.2891432.0413222.5867642-.1284582.9614152-.4158048-1.8026817-.4098535-3.5263121-.2993615-5.2500549ZM117.79678,14.3316785c1.2908701-2.0333786,1.5085977-4.2143607.9752267-6.5143687-.0372798-.1610219-.0741105-.3223245-.1051022-.4846377-.005839-.0308794.0166187-.0672609.0637799-.237322.5371888.6884416.6886662,1.4210687.8172366,2.1504395.3660609,2.0744763-.1060005,3.9585672-1.2615628,5.7148736-1.8111033,2.7529803-4.1225647,5.0232318-6.6908303,7.0468975-2.5986957,2.0475832-5.2195124,4.0669819-7.8402167,6.0863244-2.1526853,1.6586715-4.6197788,2.793685-6.9649268,4.1301442-4.1643361,2.3732202-8.1245315,5.0160454-11.6310808,8.3181171-2.009405,1.8921757-4.4311339,3.2021348-6.8736362,4.4538723-2.6491133,1.3575134-5.3689685,2.5794382-7.9011894,4.1599569-1.4679493.9162752-2.8693113,1.9269852-4.232383,2.988618-2.5883652,2.0159178-5.3547079,3.7559424-8.1995403,5.3788499-1.7908913,1.0216019-3.5217083,2.1387615-5.1303552,3.4283964-2.6506854,2.1248377-5.6647368,3.6068792-8.7169663,5.0299692-1.6156088.7531198-3.224368,1.5207811-4.8367204,2.2806944-.1938102.0913468-.3738088.227216-.6371257.2272722-.0211103-.2990808.210092-.3881818.3680821-.5060849.9622013-.7178612,2.0415196-1.2369715,3.0978187-1.7931933,2.2924847-1.2071589,4.6965842-2.1942883,6.9285453-3.521596.8384592-.4986177,1.6637806-1.0199738,2.4340806-1.6145421,2.2448743-1.7326136,4.5955244-3.2950537,7.0660989-4.6923172,2.7378214-1.5483479,5.3681825-3.2727644,7.8361743-5.2299552,3.1470011-2.4956148,6.6562454-4.3764493,10.2503798-6.1236604,2.3153915-1.1256374,4.5809269-2.34279,6.6783662-3.8526229,1.2731285-.9164436,2.3847859-2.0155809,3.5538228-3.0502083,2.7128933-2.40118,5.7616419-4.3167679,8.8847255-6.1208532,1.8140228-1.0479898,3.6415202-2.073185,5.4768779-3.0835581,1.6856769-.9280655,3.159802-2.1417372,4.6553743-3.333288,2.3857965-1.9007096,4.8784918-3.6673466,7.1537963-5.7067327,1.8290695-1.6395263,3.4598372-3.4478224,4.7812498-5.5294851ZM73.6665626,15.6787491c-.1101551-.2166048.0604113-.3378765.2030178-.4535899.0853394-.0691698.1775283-.1322199.273872-.1848832,3.4214345-1.8701671,6.602796-4.1351411,9.9829083-6.0726814,2.8160865-1.6142613,5.712684-3.0369583,8.9497406-3.6101917.3433786-.0607481.6886662-.1164433,1.0355257-.1484456.2548952-.0235806.5138328-.0046038.7709737-.0046038.8634996.0047723,1.7229567.0742228,2.5747783.2172785.2155942.0361569.4257985.1120641.6342062.1823567.1563058.0526072.3589867.1215524.318226.318619-.0487333.2358061-.2824059.1889256-.4598219.1771353-.2009966-.0133623-.4000844-.0535055-.6007442-.0755702-2.6500117-.2916136-5.133387.328332-7.5599443,1.3345504-3.362483,1.3944002-6.409435,3.351198-9.496474,5.2405103-1.6607488,1.0164928-3.3085845,2.0589243-5.1013847,2.8379267-.335743.1459191-.6863081.2610711-1.0370978.3675207-.1731491.0526072-.3817813.082476-.4877818-.1259317ZM31.2504312,72.8116528c-.0534494.187522-.2043653.2694927-.3384379.3609518-1.7276729,1.179199-3.4535491,2.3612053-5.1915525,3.5250208-.183255.1227876-.4399468.4788549-.6301638.196842-.1521511-.2255317.2355815-.4039022.4242264-.5514495,1.2587555-.9845467,2.5829753-1.8762307,3.9317864-2.7319824.4802585-.3046952.959394-.6114116,1.4449301-.907629.1467612-.0896063.3140713-.1488947.3592113.1082462Z"/>
  </g>
</svg>