<?xml version="1.0" encoding="UTF-8"?>
<svg id="Layer_2" xmlns="http://www.w3.org/2000/svg" viewBox="0 0 124.4455354 92.4953531">
  <g id="Layer_1-2" data-name="Layer_1">
    <path d="M120.9129917,4.5245633c-2.3714236-1.7317714-5.0632066-2.7405163-7.8496489-3.5342846-1.430894-.4076077-2.8833474-.7621029-4.369712-.8784339-1.8692688-.1463682-3.7448258-.1514774-5.616565-.0011229-1.6373928.13149-3.2718661.3375396-4.7384679,1.1308588-2.4429514,1.3214687-5.0596133,2.1628474-7.6997436,2.9668902-1.8361437.5591974-3.5939099,1.3102399-5.0877978,2.5633248-.1410345.1182399-.3656118.1908907-.3409083.4457297.0446909.0088147.0847779.0303741.1111657.0193136.0838796-.0352025.170791-.0720332.2423189-.1267739,1.8204233-1.3951301,3.9496402-2.0940145,6.1192811-2.6857194,2.3044995-.6285356,4.6258424-1.1950317,6.7587649-2.3256659.632971-.3355184,1.3156859-.5591974,2.0207462-.7160646,2.2291539-.4958666,4.4760493-.4652679,6.7430445-.3612325,3.4739856.1595621,6.6754467,1.203285,9.7118436,2.8079456,2.1830032,1.1536534,3.9568267,2.7309718,4.8490722,5.1300745.6252231,1.6809608.8672051,3.6782386.5460596,4.9686596.1397993-2.9983871-.8460948-5.4982127-3.0266277-7.4573125-2.0977762-1.8847646-4.4885134-3.176533-7.4002698-3.2081984.5529092.4054742,1.2067659.5713245,1.8387263.782764,2.6511345.8868556,4.7705824,2.4870809,6.4076383,4.7409382,1.506352,2.0738587,2.1339331,4.4100236,1.7642789,6.924166-.2811707,1.9122754-.9682649,3.7312389-1.9291187,5.4279201-1.4240444,2.5148161-3.422782,4.538145-5.5280815,6.4715867-1.5970812,1.4667702-3.2601881,2.8644268-4.7688981,4.4240036-1.3926036,1.4396525-2.744671,2.9188306-4.1076303,4.3870045-3.5319265,3.8046756-7.6190081,6.9673972-11.7283228,10.098341-4.1819654,3.1863021-8.4110921,6.3105087-12.6047355,9.4815396-1.5394771,1.1640962-3.0292104,2.3926461-4.7456543,3.3028577-1.0552885.5595342-2.1040643,1.1327677-3.1391409,1.7287957-1.8816206,1.0838099-3.5799861,2.4508116-5.4418438,3.5649394-5.9952022,3.5876217-12.2207084,6.762695-18.3022606,10.196369-4.464259,2.5205429-8.9415436,5.0021216-13.2560096,7.7930555-6.395062,4.1368254-13.2501706,7.2568772-20.958785,8.0170713-2.0282695.199986-4.1017352.277016-6.0895247-.2341218-3.7268596-.9581589-6.047641-3.3811229-6.9700921-7.1333598-.4065971-1.6538992-.4000844-3.3499067-.5627906-5.0289586-.0814093-.8394698-.2564111-1.6722023-.1998738-2.521778.1438979-2.1622298.7285286-4.2101499,1.8036361-6.081103,2.5295821-4.4021634,5.2078343-8.7049514,8.6582393-12.4740315,2.1829471-2.3845613,4.9064517-3.1854038,8.027851-2.8097984,1.9574715.2355815,3.7628481.9814026,5.5043325,1.8748832,1.7987516.922788,3.5672975,1.9057626,5.380815,2.7977835,2.2040012,1.0841467,4.5274214,1.7217216,7.0142777,1.6451407.8658576-.0267247,1.7199249.1211594,2.570399.2691558,2.7562367.479697,5.432187,1.2922175,8.1303705,2.0055872,1.0612398.2806093,1.7761815-.4930594,1.7743849-1.3553238-.0014598-.7032637-.1472104-1.3452178-.4984492-1.9473094-.7617661-1.3061413-1.8299678-2.3430145-2.9549876-3.3228451-1.6405369-1.4287605-3.5066616-2.5500748-5.2619575-3.8225295-1.9123876-1.3863154-3.9921976-2.3955656-6.2801908-3.0000153-2.3934321-.6322973-4.8317797-.8950527-7.292585-1.0534919-2.5161636-.1619202-4.7007389.634543-6.6570875,2.1622298-.7678858.599509-1.5403754,1.1937404-2.2934391,1.8114402-.3193489.2619694-.6521724.3650503-1.0622504.3477579-.3873958-.0162819-.515854-.0997123-.2893678-.4767775,1.2475267-2.0765536,2.6092509-4.0486788,4.6668277-5.4331976,2.9180446-1.9633667,5.7291343-4.0659713,8.1758474-6.6088596,1.2446072-1.2934527,2.7908216-1.7788765,4.5119817-1.8723006,2.3635634-.1282336,4.4884011.5947929,6.4725412,1.8268237.9515338.5907505,1.8842032,1.233266,2.9729538,1.5521657,1.7283466.5061971,3.473761.9757882,5.2510655,1.2505585,2.5998186.4019933,5.1229441,1.0306973,7.4467573,2.2763151,3.7788492,2.02535,7.8438099,3.1032086,12.0414957,3.7631288.609615.0957822,1.2325923.2294057,1.8605103.0654643.6402698-.1670855.8814657-.5439261.7387469-1.1850942-.0769177-.345063-.2304163-.6571131-.4150188-.9565868-.4265845-.691698-.942663-1.3129909-1.4907438-1.9095804-3.236046-3.523168-7.0310648-6.2856929-11.3360986-8.3623588-2.700317-1.3025481-5.4049009-2.5836491-8.3333883-3.3154341-3.0213501-.7550287-5.9654457-.6386977-8.8377889.6465579-1.4765955.6608186-2.7479273,1.6241427-4.0169011,2.598808-.1600113.122956-.3028424.3157556-.6433016.2572532.4732966-.813868,1.0256443-1.4915299,1.6044922-2.1489798,2.1205708-2.4084788,4.7907944-4.0458716,7.6539298-5.3950195,2.5236869-1.1892489,4.9666384-2.4671496,6.8240046-4.6471772.606134-.711573,1.4670509-1.1116574,2.4230763-1.1885751,1.2155244-.0979157,2.4190339-.0247035,3.6077214.2915013,2.2342069.5943999,4.2384466,1.6923019,6.1440969,2.9382566,3.812985,2.4931444,7.9541896,4.2405801,12.326372,5.3850258,3.1592406.8268935,6.2194426,1.8783642,9.2378732,3.0980433,1.6350347.660594,3.3066756,1.2300096,5.050518,1.5544115,1.3407262.249393,2.0711638-.3475333,2.108219-1.7237427.0448032-1.6618717-.5849115-3.1302701-1.3310694-4.5506651-1.1773463-2.2413372-2.9846318-3.9206136-4.9074623-5.5238145-2.4323963-2.0279888-5.0876855-3.6345022-8.1021861-4.587552-3.5406851-1.1194615-7.1220186-2.0979446-10.8550541-2.3379054-2.1497658-.1382273-4.1832006.1696681-5.892795,1.6381788-.4599342.3950875-.9314342.7775988-1.4097837,1.1501724-.4810445.3748194-.9189701.813868-1.5144367,1.1066044.0408731-.2698296.193361-.4124923.3060988-.5739072,1.0953756-1.5691213,2.5810664-2.6339544,4.317947-3.3993137,1.4123664-.6224159,2.9092861-1.0510216,4.2585463-1.8123385,1.7789888-1.0036919,3.6206346-1.8776905,5.4690177-2.7410216,1.2505585-.5841816,2.5114475-1.1756058,3.5732488-2.0633597,1.479515-1.2369715,3.1303824-1.3591416,4.9280111-1.036424,1.5252165.273872,2.7610651,1.0713458,3.9443627,1.9888001,3.2772559,2.5409232,6.9251766,4.2895941,10.9842983,5.1623013,2.6310349.5657101,5.1887453,1.360882,7.665271,2.4157776.1257633.0535617.2483824.1724753.4378134.0490701-.1084708-.1959437-.3112641-.2461367-.4811568-.3268722-1.5330767-.7280795-3.1277998-1.3193914-4.7754108-1.6863506-3.9244876-.8741108-7.5286157-2.4444673-10.9158022-4.5958613-1.8406352-1.1690369-3.5037421-2.6327192-5.5605329-3.5160939.4936208-.0313847.9924069-.1240789,1.4800764-.0834305,1.9921126.1662995,3.9630026-.0124079,5.9281659-.3019441,1.6229076-.2391186,3.2373935-.3911574,4.8769197-.1019019,2.0515133.3619063,3.9471699,1.1368662,5.8043115,2.0388808,2.6913339,1.3072642,4.9204877,3.1312807,6.4558102,5.7381735.1585515.269212.3203595.5397153.5671699.7407681.4673453.3807146.8209422.2671346.9601801-.3126115.1698927-.7071938-.0730999-1.3463407-.3702156-1.9623561-1.8024571-3.7365164-4.7924787-6.1493745-8.5666118-7.7030561-2.706942-1.1144085-5.5262849-1.7272798-8.4222086-2.0886247-2.5506362-.3182821-4.9130767.084441-7.0285945,1.5809678-1.2175456.8613099-2.5489519,1.3472951-4.021505,1.5314485-1.2209143.1527125-2.3546926.5794093-3.3423833,1.3354487-1.5264516,1.1685878-3.1998891,2.0718375-4.9438438,2.8745889-2.6863932,1.2365224-5.272288,2.6836982-8.0073022,3.8236524-1.3553238.5648118-2.714353,1.1479267-3.8288177,2.1501027-.8506987.7651909-1.5636192,1.6574925-2.2765397,2.5453586-.3515757.4377011-.7387469.662166-1.316921.6168014-.6415049-.0504176-1.2850311.043568-1.9177775.15406-1.5235321.2661241-2.7879021,1.0268234-3.834769,2.1380878-1.0704475,1.1363609-2.2623913,2.0905336-3.6782386,2.7666795-.8785462.4195103-1.722283.9114468-2.5973483,1.3385928-3.7740208,1.8419265-7.1405462,4.1748912-9.4484144,7.7910343-.230304.3608957-.5805322.4251248-.9510847.4524109-1.9928986.1467612-3.6570161.8935929-5.0079606,2.432284-2.173571,2.4759643-4.7947245,4.4430365-7.5217661,6.2655932-1.9248517,1.2864908-3.5365865,2.8580825-4.7172453,4.8659155-.3714508.6316235-.8339115,1.20991-1.2576888,1.8104296-.1614149.2288442-.3541583.419398-.6321288.5095658-1.4761463.4785741-2.6588825,1.3859786-3.6940713,2.5162759-2.3833262,2.602289-4.8105572,5.166063-6.9527996,7.978444-2.2827155,2.9968712-4.1066759,6.2268537-5.0195263,9.9157597-1.0587695,4.2784214-1.0868978,8.5051899.6211807,12.6531319,1.1254128,2.7329929,3.048524,4.5961982,5.8798818,5.4837275,1.8292941.573458,3.7119814.9015654,5.6138139,1.1048078,2.1905827.2340095,4.3599429.1683207,6.4907319-.4966526,2.7359686-.853955,5.4894542-1.6519903,8.2253105-2.5062822,1.6364945-.5109133,3.2023033-1.2071028,4.6795163-2.0772274,3.9279685-2.3139318,7.7727312-4.7696841,11.5884111-7.2562035,5.3385383-3.4789263,10.8967132-6.5482237,16.5137273-9.5303851,3.0020365-1.5939371,6.0578593-3.0940009,8.8550813-5.0501811,1.3704827-.9583835,2.7455693-1.9128368,4.1538933-2.8141776,3.2042683-2.0508395,6.4856789-3.9805196,9.6210021-6.1405037,4.9655155-3.4207608,9.93687-6.8331,14.6546767-10.5958919,2.6464184-2.1108017,5.2070483-4.3229999,7.5448976-6.7730255,2.1972639-2.3029275,4.4190067-4.5828358,6.8697061-6.6115545,2.7176094-2.2495904,5.2471354-4.6478509,7.2601336-7.5737558,2.5410917-3.6937345,4.562287-7.5750471,5.0589396-12.1261614.374258-3.4288456-.6192718-6.223485-3.4569177-8.2957716ZM47.957048,59.5273517c.4442138.5383117.9167244,1.056636,1.2272024,1.6914036.1393502.284764.2970034.6114116.0939856.8856204-.1886449.2548952-.5142819.1021827-.774567.0437926-2.7415269-.6147802-5.4727232-1.2794166-8.225479-1.838614-1.5260025-.3099166-3.0891725-.4335464-4.6321305-.6641872-1.7680968-.2642151-3.3956643-.9285147-4.941598-1.8063872-3.241885-1.8410844-6.6036943-3.3879725-10.2661002-4.2009422-.0425012-.0094322-.0827006-.0293073-.1341849-.0479472,1.3697528-.0974665,2.739225.1513651,4.0761334-.2399608.8674297-.2538846,1.7036992-.5914242,2.5106615-.9875785,2.1381439-1.0495618,4.3633116-1.2989549,6.6473184-.6701385,2.4764134.6818166,4.9824711,1.2817747,7.3414306,2.3397582,2.8058683,1.2583064,5.1292323,3.1339756,7.0773277,5.4951809ZM26.406502,49.4067776c3.2550228-.1100429,6.503982.0565935,9.607752,1.2140647,1.2358487.4608325,2.3898389,1.0957124,3.4755577,1.8793748-.7815289-.2316514-1.5594645-.4762161-2.3452603-.6920348-1.6448038-.452074-3.2746733-.9589449-4.9724212-1.2035095-1.6648474-.2398485-3.2524963.000786-4.8015741.6168014-1.2948563.5148434-2.5458639,1.1683632-3.9260035,1.4274131-1.1360802.2132361-2.2925408.0739982-3.5733611.1015089,1.9535976-1.7778659,3.935155-3.2555842,6.5353105-3.3436185ZM49.0737584,34.1009391c6.1645335.975339,11.62221,3.572575,16.4978946,7.424075.7758021.6127591,1.4552606,1.3475758,2.1760413,2.0292801.0482841.0457015.0693944.1201488.1267739.2240158-.3172154.0901678-.4610571-.135757-.6285917-.2626431-2.9961975-2.2699146-6.1333172-4.3169364-9.5255567-5.9486024-2.9582439-1.4229215-6.0144036-2.5792698-9.2775111-3.0790665-1.359703-.2082954-2.7363616-.2678084-4.1130202-.0915152,1.5614857-.4427541,3.1662025-.5452736,4.74397-.2955437ZM49.0376015,35.5390196c4.6782812,1.0941404,8.8988739,3.214262,12.9217263,5.7724216,2.6090263,1.6591768,5.0689333,3.5245155,7.4666324,5.4727232.3698787.3004844.7085413.6413927,1.0439474.9810658.1166679.1181276.3612325.2285074.2465858.434557-.0994877.1788758-.334957.1117272-.5114747.0896063-1.0429368-.130704-2.0460111-.4288303-3.0494223-.7297638-2.3389721-.7018039-4.7154487-1.2850311-6.9846896-2.2064716-1.5487971-.6290409-3.0841195-1.2926667-4.6433594-1.8945338-2.3973622-.9255952-4.9359836-1.2800904-7.4422658-1.7539484-2.1499904-.4064848-4.1870184-1.0719073-6.0487639-2.263065-1.0521445-.673058-2.2328594-1.1174964-3.3687712-1.6376174-.1283459-.0588392-.2517511-.128009-.3839148-.1957191,3.3396884-2.0749816,6.8738607-2.9766593,10.7537697-2.0692549ZM65.2823975,19.6127864c1.4762586-.496821,2.9810385-.5050181,4.5186067-.3873958,2.5545663.1953822,5.0687087.5998459,7.5363636,1.2742514,4.0722594,1.1127803,7.7153517,3.0078194,10.8259713,5.9077294,1.41843,1.3221986,2.8197921,2.6390074,3.7338215,4.3794811.485536.9245846.8841607,1.8846524,1.0487758,2.9382566-.2776898-.512373-.5627906-1.0208159-.8317219-1.5377928-1.3911438-2.6744344-3.4898183-4.6989423-6.0432617-6.1992306-3.6904781-2.1684057-7.6571862-3.7462855-11.7757086-4.896458-3.5674098-.9962247-7.1298788-.7365011-10.6449621.3663978-.6303884.1978526-1.2644823.3842517-1.8972287.5744686-.0140361.0041547-.0333497-.0090954-.1356447-.0403116,1.1353503-.988926,2.2510502-1.9036291,3.6649886-2.3793961ZM63.7319161,22.2046887c1.7391263-.3859922,3.4783649-.7391399,5.275769-.7736687,2.8320315-.0544038,5.4995602.615847,8.0802898,1.7035869,2.404661,1.013461,4.7980931,2.0609455,7.1130355,3.2633883,3.3063387,1.7172862,5.7643368,4.2793758,7.2510382,7.7188888.2721876.6299392.4134467,1.3164719.6389223,2.0546573-1.5024219-.4590359-2.9362354-.8529444-4.3005422-1.4332521-3.3561948-1.4276376-6.8225448-2.4825893-10.3511027-3.4022332-3.9142693-1.0202545-7.5653341-2.7109844-10.965883-4.9274496-1.8446776-1.2022744-3.6986752-2.3928707-5.7783729-3.487741,1.0952633-.2592183,2.0633036-.5000774,3.036846-.7161769ZM92.5657272,7.3603003c2.8038471.385936,5.5776008.9162752,8.2235701,1.9722375,1.5279114.6098395,2.9546507,1.3926036,4.2304741,2.4377861.1368798.1121763.3058742.198021.3984001.4529723-.941091-.568405-1.82615-1.1091871-2.7564613-1.5711425-2.2530713-1.1186193-4.5972088-1.942481-7.1080948-2.2297715-1.5100575-.1727561-3.0018119.0724823-4.4964859.2368729-1.8227813.2004352-3.6498296.3436594-5.6237514.3953683,2.2512747-1.506745,4.59923-2.042867,7.1323492-1.6943231ZM8.4804083,62.4053093c-.936038,2.2367895-2.2853543,4.2815654-3.0633461,6.6006625-.7699631,2.2955164-1.3332029,4.6484124-2.0703777,6.9574035-.4801462-5.3453879,2.31556-9.4578467,5.1337238-13.558066ZM19.5378627,88.9915512c2.1613877-.9451334,4.2647783-2.0091804,6.3434654-3.1192658,2.0802591-1.1109837,4.1195329-2.2967516,6.1629053-3.4707292-3.3641112,3.7236032-7.8331425,5.3522375-12.5063707,6.5899951ZM24.8221094,84.823285c-1.9446145,1.6089838-4.2392326,2.4840491-6.6387283,3.1081493-1.9373157.5038391-3.8941697.9326694-5.8424897,1.3938388-.1718577.0407608-.3469719.1052144-.5872134-.0446909,4.6831657-1.5324029,9.3772234-2.8561736,13.7093749-5.1674104-.1333427.3184506-.3949191.506534-.6409435.7101133ZM77.8122365,52.4453079c-2.0533099,3.4674729-4.7775443,6.2960234-8.1971822,8.5983895.0860131-.3978386,7.8401044-8.5399994,8.1971822-8.5983895ZM72.7371273,59.0757269c1.1480389-1.0516953,2.2388107-2.0616192,3.341485-3.0584054,1.2405648-1.1214265,2.491797-2.2311751,3.738313-3.3460889.0684961-.0613096.1317146-.1296934.2054882-.1835919.0983648-.0718647.2075094-.2024564.3290057-.0652397.0860131.0970174.0038178.2133484-.0633308.2975649-.4005335.5032776-.7950035,1.0120574-1.212268,1.501299-1.6638929,1.9515764-3.6516262,3.5101426-5.8640491,4.7911312-.113973.0660257-.2236789.2081831-.474644.0633308ZM121.5626937,15.211409c-.4927225-1.5764201-.886631-3.1665393-1.7938109-4.5845763-.8880908-1.3883366-2.1380878-2.4775925-3.0358354-3.8552617,1.6448038.9952141,2.8890741,2.37861,3.9235893,3.9640693.8887645,1.3622295,1.1667911,2.8625179.906057,4.4757686ZM94.8049871,13.4045727c.1465367.2650012.2829673.544263.2734228.8527199-.1759563.0636677-.2529863-.033069-.325637-.1062812-.9067307-.9126258-1.9028431-1.7248095-2.8665041-2.5735992-.1768546-.1557443-.5056357-.3568533-.3486562-.6015302.1300302-.202681.4449998.0038178.6548673.0892695,1.1471406.4670084,2.014458,1.2580818,2.6125073,2.3394213ZM99.1652668,15.2447587c-.0279599.1807847.0522142.4000844-.1539477.4522986-.1668609.0422205-.2306408-.1542846-.2971157-.2757809-.4582499-.8374486-.8938175-1.6855646-1.0954879-2.6297997-.0410976-.1922381-.1366553-.4293356.0915152-.5444876.2350201-.1186891.4268091.0526072.5616677.2301355.4557795.5999581.6541936,1.3041763.7829886,2.0320873.0444663.2522564.0763563.5067024.1103797.7355467ZM71.0896285,24.351142c-.0399748-.1107166-.1441786-.2527617-.0257141-.3580323.1413714-.1257071.2765669.0047723.3961543.0765247.2395116.1436733.427932.3464104.5891784.5717176,1.0678649,1.493158,2.1340454,2.9877197,3.1984293,4.4834042.0497439.0700681.0771423.1560812.1761809.3615132-.7102256-.1696681-1.1691492-.501874-1.5913545-.8757952-1.3111943-1.1610644-2.1553802-2.629912-2.7428743-4.2593323ZM78.3925441,26.2589258c-.0835427-.2009405-.2815076-.4770021-.0216717-.648916.2423189-.1603482.5054111.0172924.6930454.1930242.1848271.1730368.354046.3770091.4802585.5961965.6653101,1.1558992,1.0722441,2.4117913,1.3871014,3.7003595.020212.0828129.0025826.1748895.0025826.2795425-.2152573.0018528-.2783635-.0987578-.3378765-.1858938-.8504741-1.2463476-1.6230198-2.5377792-2.2034398-3.9343129ZM45.9547172,36.0557718c.4325358.0467121.7765882.2890309,1.1218757.5132713.8028637.5214684,1.5404877,1.1323185,2.2578998,1.7609103,1.3092854,1.1473652,2.7514083,2.0789117,4.3236737,2.8181077.1567549.0737736.3549444.1045407.4507266.3324866-.2573655.1143098-.4996844.0428943-.7431261-.0069619-1.8090821-.3708893-3.2521033-1.4087731-4.6256178-2.5604053-.9151523-.7673805-1.7766307-1.5953968-2.5963377-2.46496-.0927504-.0983648-.2479333-.1734859-.1890941-.3924488ZM56.8556973,39.8596615c-.0656888-.1706787-.2345709-.4326481-.0179662-.5433647.1974034-.1008352.336529.1748334.4556673.3206963.9976845,1.2211388,1.9753816,2.4586718,2.9791296,3.67487.3725737.4515126.8018531.8559762,1.1977828,1.2888489.1158819.1267739.3094675.2073971.2992492.4384871-.2617448.0856762-.4728474-.0549091-.6694648-.1661872-2.0291678-1.1487127-3.4123392-2.8510083-4.2443979-5.0133504ZM33.1815487,54.9316027c.8885399,1.0287884,1.7287957,2.0993482,2.5840982,3.1566579.0846656.104653.2568041.2235667.1408099.3722368-.1028564.1318269-.2729737.0371675-.4120993-.0017966-.5099027-.1422697-.9279532-.4488177-1.314563-.7874802-1.238712-1.0851573-2.1481938-2.4067945-2.7515206-3.9382991-.0533371-.1351955-.0809601-.2811707-.1121763-.4240019-.0057829-.0263878.028409-.0616465.0918521-.1874097.6087728.6163523,1.2294482,1.1801535,1.7735989,1.8100927ZM39.2874675,54.8345853c1.8643281,1.4867015,2.8755995,3.4986891,4.4190067,5.1135119-1.4144999.0689452-3.9470576-2.8380951-4.4190067-5.1135119Z"/>
  </g>
</svg>