<?xml version="1.0" encoding="UTF-8"?>
<svg id="Layer_2" xmlns="http://www.w3.org/2000/svg" viewBox="0 0 171.2531009 255.4212893">
  <g id="Layer_1-2" data-name="Layer_1">
    <path d="M102.5130025,155.4022519c.9244385.6235352,1.9672852.8157959,3.1416016.777832.9196777.0168457,1.8818359-.1677246,2.8190918-.503418.8969727-.3212891,1.5307617-.9370117,1.9395752-1.776123.454834-.9331055.2557373-1.7531738-.5379639-2.4123535-.9326172-.7746582-1.7749023-.8885498-2.8067627-.1712646-.6502686.4521484-1.0684814.427124-1.6588135-.0788574-.6431885-.5516357-1.4306641-.5327148-2.1535645-.0701904-.394043.2523193-.7877197.529541-1.112793.8625488-1.1130371,1.1401367-.9595947,2.4753418.3696289,3.3718262ZM103.9612447,152.1255185c.2070312-.1422119.3945312-.1218262.5847168.0048828.2126465.1414795.4320068.2770996.6248779.442749.6470947.5554199,1.2904053.5661621,1.9608154.0410156.1994629-.1561279.421875-.2915039.6508789-.4003906.7562256-.3590088,1.2492676-.0537109,1.2709961.7729492.0170898.6435547-.3824463,1.2468262-1.0092773,1.4694824-.2788086.0991211-.576416.1508789-.8693848.2026367-.3339844.059082-.6726074.0939941-.894043.1237793-.8461914-.0400391-1.5693359-.1115723-2.2219238-.4611816-.8994141-.4819336-.9387207-1.6179199-.0976562-2.1959229ZM61.6853658,155.5082089c1.0144043.6188965,2.149292.8051758,3.2858887.8535156,1.0617676-.0400391,2.0671387-.215332,3.0599365-.496582.7825928-.2216797,1.3604736-.7019043,1.8289795-1.3342285.5247803-.7081299.7138672-1.5200195.2462158-2.279541-.4541016-.7376709-1.269165-.8112793-2.0650635-.6650391-.6715088.1230469-1.3358154.2929688-1.9951172.4726562-.9273682.2529297-1.6477051.059082-2.2302246-.7700195-.6568604-.9346924-1.4188232-.9658203-2.2287598-.171875-.2429199.237793-.4689941.5009766-.6618652.7807617-.9521484,1.3803711-.6696777,2.7382812.7600098,3.6103516ZM62.6106587,152.3546444c.3388672-.2138672.6271973.144165.9182129.2875977.3835449.1889648.7419434.4287109,1.1179199.6340332.6763916.3693848,1.3498535.5432129,2.0214844-.0288086.1257324-.1069336.2988281-.1716309.4606934-.2199707.3703613-.1103516.7692871-.2487793,1.0489502.1583252.2380371.3470459.0374756.9316406-.4255371,1.1851807-.8804932.4821777-1.8341064.7080078-3.0533447.7178955-.3496094.0172119-.9018555-.0339355-1.4191895-.2813721-.5849609-.2799072-.9597168-.717041-.9785156-1.3912354-.0109863-.3856201-.0505371-.8343506.3093262-1.0616455ZM22.1814595,151.7433163c.8374023.0203857,1.7786865-.1105957,2.675415-.4017334,1.7359619-.5632324,2.1036377-2.0780029.8592529-3.4014893-.8100586-.8615723-1.7099609-1.4643555-2.9383545-.8166504-.6375732.3359375-1.1281738.2028809-1.5604248-.3623047-.2408447-.3151855-.6013184-.4598389-1.0014648-.5234375-.9970703-.1586914-1.7788086.2182617-2.3695068,1.1704102-.581665.9375-.5714111,1.8037109.0946045,2.6206055,1.0622559,1.3029785,2.5126953,1.7138672,4.2404785,1.7145996ZM20.0332662,147.7547909c.4797363-.3338623.9384766-.1608887,1.2612305.2211914.4345703.5142822.9475098.4859619,1.5185547.4071045.597168-.0823975,1.1967773-.1243896,1.7397461.2427979.4309082.2912598.4375.6164551.0673828.9387207-.6976318.6075439-1.5490723.678833-2.1873779.6403809-.9239502-.0031738-1.6116943-.0078125-2.2541504-.3066406-.4453125-.2070312-.8231201-.4799805-.8723145-1.0183105-.0509033-.5562744.3372803-.854248.7269287-1.1252441ZM147.1343404,150.2203671c2.2198486.0014648,4.3869629-1.65271,4.8243408-3.6821289.2696533-1.2510986-.2955322-2.2253418-1.5340576-2.5258789-.947998-.2299805-1.8696289-.1650391-2.6281738.5668945-.2792969.2694092-.5517578.579834-.9863281.2714844-.6188965-.4396973-1.1877441-.2871094-1.7719727.0957031-.6142578.4020996-.9631348.9584961-1.0750732,1.6665039-.2111816,1.3352051,1.34021,3.8988037,3.1712646,3.6074219ZM145.4356099,146.5521542c.09375-.4929199.3676758-.6188965.8361816-.4836426.5305176.1530762.8745117.8759766,1.4259033.6933594.4859619-.1611328.3725586-.8984375.6804199-1.31604.2819824-.3826904.6231689-.4180908,1.0174561-.3071289.5461426.1535645.7169189.5621338.6872559,1.0306396.0036621.6072998-.2426758,1.0509033-.6123047,1.4284668-.630127.6437988-1.4219971.9475098-2.305542.9904785-1.0554199.0512695-1.9268799-.9971924-1.7293701-2.0361328ZM132.3864156,98.077789c1.7104492.0068359,3.5556641-1.1676025,4.2242432-2.6893311.4492188-1.0223389.3509521-1.9047852-.3491211-2.467041-.7932129-.6369629-1.5887451-.8338623-2.5692139-.0792236-.4564209.3514404-.8521729.5185547-1.3726807.1422119-.4675293-.3378906-.958252-.2287598-1.4602051-.0101318-1.9608154.8535156-2.3017578,2.69104-.8117676,4.2307129.6605225.6828613,1.4803467.7956543,2.3387451.8728027ZM130.8025533,94.3939511c.3186035-.4869385.8239746-.4691162,1.2597656-.3017578.6550293.2514648,1.1352539.3935547,1.5212402-.4396973.1981201-.4274902.7648926-.2175293,1.1682129-.0842285.3869629.1281738.4754639.4676514.4786377.8210449.0047607.5671387-.3204346.9597168-.7619629,1.2563477-.6881104.4620361-1.4620361.6738281-2.5290527.7468262-.4241943.0471191-.9071045-.2420654-1.2467041-.800415-.2573242-.4238281-.1350098-.8242188.1098633-1.1981201ZM32.9050923,99.7716366c2.769043-.0098877,3.6848145-.6335449,4.5510254-2.3408203.572876-1.1291504.0854492-2.0544434-1.1494141-2.3220215-1.0742188-.232666-2.1196289-.1125488-3.1350098.3522949-.8653564.3964844-.8789062.3666992-1.4870605-.4172363-.7194824-.9274902-1.333374-1.1520996-2.1872559-.800415-1.7288818.7119141-2.0910645,2.199585-.8171387,3.571167,1.2650146,1.3615723,2.8864746,1.9432373,4.2248535,1.9570312ZM29.9579488,95.5111386c.2415771-.177002.4899902.0466309.6854248.184082.2412109.1694336.4432373.3959961.6560059.6040039.7861328.7684326.9857178.8045654,2.0297852.338623.3112793-.1390381.6072998-.3183594.927002-.432251.7386475-.2630615,1.3144531-.1258545,1.4560547.3149414.1590576.4951172-.1201172,1.0118408-.7279053,1.3377686-.6175537.3311768-1.2962646.4020996-1.8807373.4606934-1.1445312-.0588379-2.1269531-.2884521-2.9039307-1.0579834-.2434082-.2412109-.4805908-.5009766-.5679932-.838501-.0936279-.3615723.0404053-.7016602.3262939-.911377ZM170.1438619,187.3221737c-.2369385-.1831055-.4812012-.3730469-.7514648-.4934082-.8039551-.3574219-1.3088379-.8643799-1.3398438-1.8286133-.0180664-.5673828-.4577637-1.0010986-.928833-1.3326416-.68396-.4810791-1.4591064-.7148438-2.2813721-.7950439-.6403809-.0625-1.2841797-.1401367-1.925415-.1312256-.6154785.0085449-.8085938-.2518311-.8444824-.8358154-.1029053-1.6694336-.2591553-3.3354492-.3898926-5.0031738-.0736084-.9411621-.121582-1.8843994-.213501-2.8234863-.0664062-.6774902.0280762-1.1765137.8499756-1.2810059.3759766-.0478516.7087402-.2653809.9047852-.6499023.4881592-.9580078.4969482-.9528809,1.493042-.5117188.1956787.0865479.3918457.1722412.5905762.251709.4909668.1962891.9418945.282959,1.0415039-.4404297.0736084-.5351562.4111328-.461792.7541504-.3195801.2763672.114502.5268555.2929688.8049316.4019775.3444824.135376.7419434.4747314,1.0687256.1522217.3631592-.3581543-.0749512-.7021484-.2374268-1.012207-2.4394531-4.6508789-3.5102539-9.6320801-3.7086182-14.8487549-.0445557-1.1656494.2329102-2.0236816,1.126709-2.8057861,1.1968994-1.0471191,2.2054443-2.2902832,2.9251709-3.7258301,1.0350342-2.0644531.5743408-3.6098633-1.3837891-4.8227539-.9597168-.5946045-2.0068359-.9929199-3.0983887-1.2145996-1.1816406-.2397461-1.7698975-.9631348-1.9934082-2.0688477-.0930176-.4604492-.1721191-.9291992-.1970215-1.3970947-.1643066-3.0845947-.3579102-6.1688232-.4381104-9.2557373-.0255127-.9720459-.4648438-1.5146484-1.2160645-1.923584-.2962646-.161377-.6414795-.2365723-.9681396-.3381348-3.4558105-1.0748291-7.029541-1.5325928-10.5961914-2.03125-1.6557617-.2315674-3.307251-.4927979-4.9619141-.7321777-.3985596-.0576172-.7260742-.1293945-.855957-.6120605-.2563477-.9504395-.223877-4.3156738.1707764-5.5314941,1.1365967,1.1618652,2.2982178.4958496,3.4730225.1252441.324707-.1022949.6663818-.1538086,1.003418-.2116699.5915527-.1015625,1.1905518-.1668701,1.7780762-.2890625,1.197876-.2495117,1.3273926-.5405273.6395264-1.5196533-.6424561-.9139404-1.2506104-1.8474121-1.7919922-2.8231201-1.2015381-2.1656494-1.9798584-4.4605713-2.1121826-6.9542236-.0661621-1.2469482.0561523-2.3754883,1.2658691-3.1329346.5405273-.3383789.8898926-.9221191,1.2263184-1.4747314.1555176-.255249.2921143-.5084229.3243408-.8255615.2498779-2.4746094-1.0064697-4.3642578-3.4049072-5.0700684-.4515381-.1328125-.9152832-.2250977-1.3762207-.3237305-1.6619873-.3560791-1.6484375-.3563232-1.9311523-2.0872803-.4008789-2.4543457-.8968506-4.8884277-1.482666-7.307373-.2429199-1.0037842-.7719727-1.5426025-1.7409668-1.7896729-.9130859-.2330322-1.8115234-.5202637-2.7487793-.6531982-2.9284668-.4151611-5.859375-.8153076-8.7838135-1.2578125-1.5159912-.229248-1.5264893-.2614746-1.7720947-1.8399658-.62146-3.9953613-.7597656-8.0246582-.807251-12.059082-.0025635-.2071533.050293-.4150391.085083-.6835938.7182617.1103516,1.3840332.2211914,2.0524902.3132324.817749.112793,1.7416992.2282715,2.3896484-.2199707.7197266-.4978027,1.40625-.4665527,2.1629639-.4763184.4654541-.0059814,1.0328369-.0090332,1.1767578-.5646973.1195068-.4614258-.3988037-.6044922-.6922607-.8203125-2.0529785-1.5095215-3.0714111-3.5234375-3.0151367-6.0771484.019165-.8577881.0698242-1.7186279.0202637-2.5732422-.041748-.7216797.2171631-1.0751953.914917-1.2875977,1.1170654-.3398438,2.1318359-.904541,2.9320068-1.7873535,1.1799316-1.3018799,1.3502197-2.8798828.4748535-4.3937988-.392334-.6785889-.9338379-1.2253418-1.5556641-1.6964111-.9313965-.7056885-1.9442139-1.3151855-3.0617676-1.5993652-1.2038574-.3059082-1.5424805-.9968262-1.4693604-2.126709.0472412-.7242432-.0130615-1.4591064-.0701904-2.1856689-.0941162-1.1960449-.1750488-2.3928223-.3920898-3.578125-.1130371-.6186523-.409668-.9798584-1.0008545-1.197876-1.1292725-.4163818-2.2728271-.7766113-3.4544678-.9962158-2.4863281-.4619141-4.9946289-.8214111-7.4603271-1.3730469-2.1832275-.4885254-1.7769775-.2150879-1.824707-2.2043457-.098999-4.1582031.2354736-8.324707-.2484131-12.4758301-.0168457-.1452637-.0632324-.354248.2237549-.3658447.2669678.3746338.5286865.7662354.8154297,1.1385498.3162842.4102783.6760254.7875977,1.1566162,1.0021973.6738281.3009033,1.3580322.2941895,1.9428711-.1813965.5402832-.4394531.4831543-1.0373535.3133545-1.6556396-.2193604-.7984619-.6079102-1.5084229-1.043335-2.1988525-.7114258-1.1274414-1.3198242-2.3076172-1.8153076-3.545166-.4698486-1.173584-.4708252-1.1845703.6209717-1.7297363.6943359-.3465576,1.3609619-.7331543,1.9407959-1.2504883,1.7984619-1.6044922,1.6994629-3.842041-.2287598-5.2667236-.2064209-.1525879-.4127197-.3441162-.6495361-.4112549-1.6496582-.4680176-2.0070801-1.5715332-1.918457-3.1864014.1008301-1.8365479-.0319824-1.8868408-1.8164062-2.3397217-12.3598633-3.1367188-28.9226074-1.3875732-29.4403076-1.3793945-.1448975.0137939-.2894287.0302734-.4343262.043457-1.2972412.1188965-9.5286865.630127-11.0316162.7922363-2.9016113.3129883-5.8099365.6611328-8.7286377.664917-1.3693848.1855469-2.7198486.3907471-4.0587158.6617432-1.5966797.3232422-3.1933594.6564941-4.7263184,1.2197266-2.0581055.7561035-2.7030029,1.6850586-2.7163086,3.8457031-.0028076.4716797.0314941.9438477.0231934,1.4152832-.0047607.2780762.1323242.5996094-.175293.8123779-.5609131-.06604-1.1125488-.1671143-1.6674805-.189209-1.6469727-.0653076-2.9898682.8708496-3.3173828,2.2767334-.3688965,1.5831299.3175049,2.9106445,1.9249268,3.6325684.5280762.2373047,1.098877.3791504,1.7166748.5872803-.1566162.380249-.2834473.6925049-.4135742,1.003418-.8955078,2.1368408-1.7294922,4.2960205-2.3068848,6.5443115-.2456055.9561768-.4537354,1.9206543-.4101562,2.9197998.0427246.9779053.3270264,1.4898682.9310303,1.6573486.6870117.1905518,1.56604-.1481934,2.0253906-.8049316.4221191-.6036377.6489258-1.302002.9107666-1.9816895.0963135-.25.0969238-.5651855.4916992-.6943359-.1132812,1.4771729-.0969238,2.8902588-.0351562,4.3046875.1295166,2.9631348-.1158447,5.9182129-.2105713,8.876709-.024292.7591553-.3206787,1.1777344-1.0435791,1.3837891-.822998.2348633-1.6175537.5690918-2.4416504.7991943-2.7235107.760376-5.4536133,1.4979248-8.1842041,2.2332764-.6745605.1815186-1.2723389.4951172-1.8348389.9013672-.4979248.3598633-.6981201.8148193-.6553955,1.4348145.0650635.9462891.2406006,1.8702393.451416,2.789917.2747803,1.1982422.5596924,2.394165.8631592,3.6888428-.541626,0-.9643555.0101318-1.3862305-.0025635-.5671387-.0172119-1.1264648.0599365-1.6365967.2872314-1.4071045.6262207-2.4786377,1.5800781-2.6317139,3.2126465-.1424561,1.5185547.5782471,2.6411133,1.8292236,3.4421387.6673584.4273682,1.4085693.6020508,2.204834.5888672.4073486-.0065918.8311768-.1530762,1.3331299.0980225-.2720947.555542-.5168457,1.0932617-.7940674,1.6137695-.8265381,1.5516357-1.6998291,3.0795898-2.3890381,4.7001953-.3530273.8294678-.6842041,1.6700439-.7243652,2.5875244-.045166,1.0367432.9276123,2.3632812,1.9123535,2.6206055.7926025.2072754,1.4693604-.3070068,2.005127-1.6044922.2442627-.5913086.40271-1.2192383.5830078-1.8354492.128418-.4396973.2287598-.8878174.4057617-1.5847168.0672607.4284668.1083984.5883789.1153564.7495117.1434326,3.34375.3076172,6.6867676.414917,10.0314941.0703125,2.1866455.0388184,4.3763428.0947266,6.5634766.013916.5407715-.1784668.7941895-.6799316.8731689-.2116699.0334473-.4226074.0716553-.6335449.1102295-4.2321777.7769775-8.3647461,1.8533936-12.2028809,3.8850098-.8427734.446167-1.402832,1.0413818-1.8227539,1.8856201-.9598389,1.9301758-1.0024414,3.9632568-.831543,6.0360107.0979004,1.1896973.2016602,2.3791504.1357422,3.5454102-.3115234.1574707-.560791.0671387-.7983398-.0025635-.7971191-.2337646-1.6108398-.2550049-2.4250488-.1798096-2.9521484.2722168-4.2856445,3.1293945-2.5983887,5.5604248.6540527.9422607,1.5319824,1.6618652,2.5895996,2.0469971.9353027.340332,1.1866455.8934326,1.1690674,1.8294678-.0765381,4.0654297-.5081787,8.039917-2.4515381,11.7171631-.4416504.8359375-.815918,1.7983398-.1035156,2.6619873.7346191.8905029,1.7294922.529541,2.6362305.2996826.6627197-.1677246,1.2962646-.4467773,1.953125-.6416016,1.0935059-.324707,1.2713623-.2038574,1.2999268.9699707.0198975.8134766-.1309814,1.6374512-.0509033,2.4411621.0849609.8500977-.2937012,1.1228027-1.0283203,1.2966309-1.1245117.2658691-2.2264404.6268311-3.3387451.9450684-2.8015137.8016357-5.6779785,1.3221436-8.4512939,2.2260742-3.1572266,1.0292969-4.1794434,2.4172363-4.3063965,5.748291-.0114746.3000488-.0100098.600708-.0114746.901123-.0092773,1.9769287.2049561,3.9401855.3729248,5.9057617.1060791,1.2392578.25,2.4752197.3551025,3.7144775.0964355,1.1396484.083252,1.1230469-1.0073242,1.1408691-.6844482.0112305-1.3701172.0664062-2.0517578.1356201-1.0493164.1065674-1.8259277.644043-2.4119873,1.5214844-1.3344727,1.9978027-1.2113037,3.9814453.4044189,5.7602539.8813477.9703369,1.961792,1.6689453,3.1650391,2.1561279.5306396.2147217.6706543.5131836.6571045,1.0629883-.0478516,1.9298096-.0780029,3.8616943-.0406494,5.7913818.0488281,2.5163574-.3125,4.9516602-1.1479492,7.3288574-.3972168,1.1304932-.7468262,2.2849121-1.0131836,3.4523926-.3775635,1.6544189.3713379,2.4591064,2.071167,2.3145752.9111328-.0773926,1.7381592-.4370117,2.5606689-.8120117.3320312-.1512451.6137695-.4958496,1.1308594-.3094482.0246582,3.1029053.0727539,6.2247314-.0496826,9.5944824-.84729-.6812744-1.5635986-.4689941-2.2319336-.2093506-2.8394775,1.1033936-5.3410645,2.7225342-7.3859863,5.0023193-.4014893.4477539-.7276611.953125-.9248047,1.532959-.3288574.9658203-.1331787,1.6484375.6744385,2.2670898.4841309.3708496,1.0551758.559082,1.6210938.7629395,10.2607422,3.6925049,20.8833008,5.7880859,31.670166,7.1333008,4.9372559.6157227,9.8935547,1.0524902,14.859375,1.3857422,6.6357422.4453125,13.2702637.8907471,19.9238281.9550781,2.6612549.0256348,5.3143311.166748,7.9638672.4355469.7399902.0749512,1.1699219.4071045,1.5214844.9916992.7176514,1.1931152,1.1455078,2.4916992,1.4023438,3.8469238,1.0559082,5.5698242.8469238,11.1901855.6218262,16.8068848-.0737305,1.8422852-.2871094,3.6774902-.6539307,5.4890137-.2301025,1.1364746-.5079346,2.2609863-1.0576172,3.2949219-.4039307.7595215-.9744873,1.2286377-1.885376,1.3677979-1.736084.2651367-3.4616699.6112061-5.1801758.977417-4.5405273.967041-8.6057129,2.8485107-11.9313965,6.1866455-.7143555.717041-1.142334,1.4678955-1.1046143,2.4798584.0158691.4279785-.0220947.8579102-.0028076,1.2854004.0898438,1.9923096,1.0749512,3.3862305,2.8625488,4.2336426,1.0529785.4991455,2.1679688.7966309,3.3068848,1.0219727,9.0852051,1.7977295,18.2996826,2.1879883,27.5186768,2.4694824,3.0087891.0917969,5.9785156-.4995117,8.9439697-.9569092,3.3044434-.5096436,6.5828857-1.1395264,9.8100586-2.052124,2.6434326-.7475586,3.7243652-2.7243652,4.2921143-5.1157227.3594971-1.5146484-.1239014-2.8830566-1.1646729-4.0435791-.6657715-.7423096-1.4550781-1.3311768-2.3110352-1.8309326-1.3764648-.803833-2.8464355-1.3962402-4.3613281-1.8790283-3.0718994-.9788818-6.2236328-1.6065674-9.4084473-2.0639648-.8288574-.1190186-1.3892822-.4342041-1.8391113-1.1744385-1.6038818-2.6395264-2.6862793-5.4523926-3.09729-8.519165-.5714111-4.2640381-.5620117-8.5567627-.6243896-12.8448486-.0124512-.8551025.0753174-1.7158203.1723633-2.567627.2103271-1.84375.6572266-3.6209717,1.5273438-5.2811279.8045654-1.5349121,1.8615723-2.6647949,3.7574463-2.6419678.338623.0040283.6768799-.1118164,1.0179443-.1411133,8.1193848-.6945801,16.2341309-1.4332275,24.3369141-2.3040771,8.0611572-.866333,16.0803223-2.0019531,24.0224609-3.6503906,6.5146484-1.3521729,12.8980713-3.1690674,19.1617432-5.4094238,1.3344727-.477417,2.6571045-1,3.7489014-1.9405518,1.361084-1.1726074,1.3051758-2.5668945-.1237793-3.6726074ZM35.8180562,56.9088437c-.7503662-.5865479-1.1707764-1.3515625-1.0614014-2.3278809.1191406-1.0631104.916626-1.7028809,2.0362549-1.6757812,1.2366943.0297852,1.706543.4433594,1.8446045,1.6356201.0341797.2955322.0449219.5938721.0629883.8428955-.0203857.6182861.1750488,1.2207031-.6053467,1.5456543-.7918701.329834-1.5318604.5620117-2.2770996-.0205078ZM37.2710591,68.3614804c-.1312256.2807617-.3551025.4760742-.6418457.598877-.4172363.1785889-.6782227.0688477-.6672363-.4085693.0097656-.425415.017334-.8648682.125-1.2718506.5722656-2.1627197,1.5097656-4.1738281,2.6181641-6.1088867.0317383-.0554199.1420898-.0656738.395752-.1738281.0888672,2.7108154-.7563477,5.065918-1.829834,7.3642578ZM20.7520162,120.9593808c-.2545166-.4945068-.1408691-.8232422.2159424-1.2114258.1741943.4821777.1861572.8330078-.2159424,1.2114258ZM20.352358,104.3358456c-1.3145752-1.2927246-1.098877-3.2766113.4533691-3.9829102,1.0014648-.4558105,1.9307861-.0463867,2.8369141.345459.4107666.1774902.2341309.590332.2677002,1.0240479-.0697021.4454346-.2086182.9935303-.229248,1.5460205-.0313721.8425293-.4035645,1.3166504-1.2163086,1.572998-.8408203.2651367-1.5084229.088623-2.1124268-.5056152ZM22.4347554,118.4693905c-.5012207-1.1396484-.2900391-2.2623291.0689697-3.5617676.5498047,1.3078613.324707,2.43396-.0689697,3.5617676ZM24.3545552,115.815704c-.4719238-.9104004-.6364746-1.901001-.7017822-2.9002686-.0723877-1.1083984-.0537109-2.2224121-.0977783-3.3327637-.0270996-.680542-.0111084-1.3709717-.2290039-2.0288086-.2573242-.776123-.2655029-.7734375.8099365-1.2160645-.0484619,3.248291.4869385,6.3447266.2186279,9.4779053ZM163.0081197,166.9444882c.7363281.4991455,1.0924072,1.2285156,1.4633789,3.0705566-1.3034668-.7475586-1.6862793-1.7565918-1.4633789-3.0705566ZM161.9175435,147.9313046c.3647461-.9987793.5283203-2.0727539.7565918-3.1185303.0927734-.4251709.3243408-.5765381.7293701-.5032959,1.1395264.2055664,2.286499.3994141,3.2624512,1.0865479.7009277.4935303,1.1580811,1.1376953,1.1456299,2.038208-.003418.4405518-.1452637.8505859-.3288574,1.2349854-.5585938,1.1699219-1.3095703,2.2199707-2.2138672,3.1387939-1.0007324,1.0166016-1.8139648.9074707-2.6257324-.286377-.7404785-1.0893555-1.2330322-2.1999512-.7255859-3.590332ZM161.4787007,153.2859189c.1590576.0106201.2052002.0020752.2403564.0178223,1.3406982.6021729,1.8375244,1.5048828,1.7141113,3.0858154-.3322754,4.2501221.9406738,8.2045898,2.7131348,12.0151367.1921387.4135742.3820801.8278809.614502,1.331543-1.699707-.9023438-3.0974121-3.7421875-3.6931152-7.3780518-.5722656.1989746-.5505371.7130127-.6174316,1.1341553-.3154297,1.9892578-.5397949,3.9875488-.5158691,6.0075684.0039062.3276367.1318359.6765137-.0866699.9904785-.3291016-.0871582-.3181152-.3828125-.3605957-.6171875-.3706055-2.0476074-.3730469-14.0079346-.0084229-16.5872803ZM161.3623677,186.7967831c.7727051-.5407715,1.5727539-1.0430908,2.1014404-1.8566895.1291504-.1990967.30896-.3085938.5402832-.2353516.6451416.2036133,1.1484375.5905762,1.3719482,1.244873.1933594.5666504-.1273193.9975586-.5004883,1.3623047-.4399414.4301758-.9985352.6477051-1.6022949.7509766-.420166.0717773-.8397217.1483154-1.050415.1855469-.2591553,0-.3018799.0014648-.3448486-.0002441-.5004883-.020874-1.1728516.0854492-1.3477783-.4404297-.1624756-.4885254.4610596-.7512207.8321533-1.0109863ZM144.0662251,117.6297909c-.1589355.0942383-.3259277.0264893-.4316406-.128418-.3758545-.5500488-.2883301-1.203125-.3774414-1.8466797.6414795.3883057.9202881.9716797.9768066,1.6651611.0084229.1014404-.0786133.256958-.1677246.3099365ZM146.534731,118.9469296c-.6923828.0599365-1.1242676-.2521973-1.2998047-1.1767578.5633545.2565918.8879395.645752,1.3977051.5333252.1676025-.0371094.3044434.1505127.2729492.3372803-.03125.1843262-.2141113.2927246-.3708496.3061523ZM142.7590962,98.6522519c.1157227-1.1149902.1193848-1.1074219,1.2668457-.8203125.9658203.2415771,1.876709.6026611,2.6323242,1.2636719.8677979.7591553,1.3144531,1.6982422.9602051,2.8587646-.3890381,1.2752686-1.0178223,2.3699951-2.4639893,2.6838379-.934082.2027588-1.5213623-.1079102-1.9293213-1.0537109-.4841309-1.1226807-.5056152-2.3280029-.567749-3.5386963.0324707-.4558105.0532227-.9261475.1016846-1.3935547ZM142.5169087,105.2750546c.657959.1096191,1.2637939.4819336,1.9519043.4073486.3883057-.0421143.5332031.2489014.5646973.5614014.0686035.6815186.1278076,1.3664551.1394043,2.0507812.0288086,1.6934814.3901367,3.3112793.9935303,4.8883057.5435791,1.4210205,1.2330322,2.7340088,2.4359131,3.7215576.2280273.1872559.4643555.3876953.5742188.8414307-1.0092773-.1207275-1.5947266-.6265869-2.0249023-1.3614502-.628418-1.072998-1.256958-2.1447754-1.7786865-3.2766113-.1723633-.3739014-.2923584-.8013916-.7585449-1.0898438-.4447021.6347656-.2216797,1.2424316-.0491943,1.8295898.1645508.5604248.3798828,1.105957.6328125,1.8286133-1.7922363-1.7247314-3.0395508-6.7246094-2.6811523-10.401123ZM140.9964009,127.5831601c-.0014648.1716309-.0183105.3449707.0002441.5146484.0684814.6296387-.2071533.913208-.8331299,1.0429688-1.7615967.3652344-3.5079346.8046875-5.2647705,1.1933594-6.6950684,1.4818115-13.401123,2.9064941-20.1710205,4.0148926-4.3187256.7072754-8.661499,1.21875-13.0169678,1.6088867-8.9787598.8044434-17.9763184,1.1904297-26.9919434,1.0145264-6.6918945-.1307373-13.3687744-.5406494-20.0366211-1.1315918-3.7583008-.3331299-7.5283203-.550415-11.2612305-1.1202393-4.800415-.7327881-9.4641113-2.0029297-14.0527344-3.588623-1.4528809-.5020752-2.0380859-1.3209229-2.1384277-2.8850098-.4257812-6.637207-.7104492-13.2775879-.8256836-19.9262695-.0095215-.5534668-.0012207-1.1070557-.0012207-1.7385254.4958496.0773926.5847168.3476562.7178955.5446777,1.9832764,2.9381104,4.9256592,4.0371094,8.2822266,4.1748047,4.774292.1959229,8.260376-2.1049805,10.8973389-5.9101562.2678223-.3867188.5186768-.7851562.7822266-1.1748047.0187988-.0280762.0756836-.0302734.2139893-.0799561-.4390869,2.7518311-.3028564,5.569458-1.9769287,7.9868164-.5324707.769043-.8869629,1.6612549-1.1508789,2.5748291-.5581055,1.9301758.0612793,2.9619141,2.0083008,3.3632812.8537598.1759033,1.6968994.2407227,2.5400391-.0426025,1.1547852-.3881836,1.8171387-1.3128662,1.7884521-2.5301514-.0310059-1.3155518-.6253662-2.4365234-1.4766846-3.3449707-.8647461-.9228516-1.0627441-1.9921875-1.2332764-3.1502686-.4217529-2.8634033.1756592-5.5914307.914917-8.4106445.5700684.434082.7045898.9949951.9265137,1.4837646,3.9394531,8.6833496,11.0935059,12.1779785,20.1955566,12.4851074,1.2800293.0432129,2.5635986-.1722412,3.8251953-.4483643,3.1828613-.6966553,5.6035156-2.4761963,7.4038086-5.1580811.9830322-1.4643555,1.7773438-3.0307617,2.5688477-4.6013184.1821289-.3618164.2419434-.8232422.7570801-1.0566406-.3071289,1.5766602-.2260742,3.1212158-.2871094,4.6591797-.0410156,1.0283203-.0927734,2.0581055-.6335449,2.9875488-.149292.2570801-.2333984.550293-.1755371.8657227.1616211.8808594-.1938477,1.5891113-.7531738,2.2302246-.4831543.5537109-.8820801,1.1652832-1.1428223,1.8527832-.4072266,1.0740967-.4064941,2.1228027.4260254,3.0053711.8813477.93396,1.9885254,1.1113281,3.1950684.7786865.590332-.1628418,1.0966797-.4832764,1.5405273-.9002686.96875-.9099121,1.1306152-1.5297852.6337891-2.7519531-.2736816-.6732178-.6350098-1.310791-.9533691-1.9660645-.2059326-.4238281-.3532715-.887207-.6193848-1.2681885-.4702148-.6726074.6761475-1.7650146-.5974121-2.1967773-.2231445-.8374023-.2005615-1.6990967-.2275391-2.552124-.0496826-1.5629883.0115967-3.1230469.3442383-4.7163086.1947021.3620605.3808594.7290039.5852051,1.0854492,2.7600098,4.8149414,6.7718506,8.0076904,12.1893311,9.3498535,2.2150879.548584,4.4150391.4211426,6.5986328-.2493896,5.1138916-1.5704346,9.1477051-4.5999756,12.2056885-8.9627686.4919434-.701416.9680176-1.4138184,1.4553223-2.1182861.0151367-.0218506.0754395-.0125732.2758789-.0394287-.3398438,2.4604492-.1142578,4.954834-1.2299805,7.2609863-.6157227,1.2728271-1.1868896,2.5675049-1.7591553,3.8609619-.3649902.8253174-.6636963,1.6737061-.6759033,2.5950928-.0294189,2.190918,2.2255859,3.5373535,4.1662598,2.4853516,1.4603271-.791748,2.0349121-2.2593994,1.4752197-3.8220215-.3199463-.8931885-.8172607-1.7023926-1.3168945-2.4998779-.8897705-1.4207764-1.1751709-2.9112549-.769043-4.552002.2564697-1.0373535.4268799-2.0960693.6339111-3.1356201.5229492-.0688477.5894775.3508301.7619629.605957.916748,1.3566895,1.9304199,2.6237793,3.1971436,3.6767578,3.9986572,3.3242188,8.8618164,3.4365234,12.9959717.2900391,1.0646973-.8103027,1.9946289-1.7559814,2.8057861-2.8193359.1820068-.2387695.3487549-.4934082.557251-.706543.4260254-.4360352.7384033-.3681641.8747559.2554932.1730957.7926025.3065186,1.6044922.3486328,2.4136963.3349609,6.4265137.5439453,12.8566895.4831543,19.293457ZM44.1026021,102.9656064c-1.7828369,1.6437988-3.8273926,2.8636475-6.0964355,3.7132568-2.8944092,1.0837402-5.5517578.3740234-8.0898438-1.1004639-1.0748291-.6246338-2.0786133-1.354126-2.7905273-2.8526611,6.2792969,3.4523926,12.071167,2.3493652,17.8745117-.9853516-.2026367.6494141-.5759277.9287109-.8977051,1.2252197ZM45.833315,102.9812314c-.1397705,1.0805664-.7442627,1.8094482-1.3725586,2.4984131-1.8829346,2.0644531-4.0915527,3.6479492-6.8322754,4.3780518-2.260498.602417-4.4140625.3297119-6.4528809-.8374023-1.013916-.5802002-1.9129639-1.3001709-2.7254639-2.1341553-.449585-.4615479-.7745361-.9912109-1.0371094-1.7595215.5030518.0803223.7213135.3422852.9608154.5349121,3.4145508,2.744873,7.1142578,3.121582,11.088623,1.3730469,1.8188477-.800293,3.4506836-1.9003906,5.0501709-3.0576172.4464111-.3232422.8807373-.6635742,1.3206787-.9957275ZM48.6726705,115.3811337c.1063232.4744873-.109375.8358154-.5061035,1.0777588-.5134277.3129883-1.048584.3337402-1.5643311.0057373-.4205322-.2672119-.4708252-.6715088-.37146-1.1253662.157959-.7216797.5014648-1.3425293.9733887-1.9384766.8916016.3959961,1.276001,1.1220703,1.4685059,1.9803467ZM65.8218404,110.2398984c5.6403809.7442627,10.765625-.6169434,15.2714844-4.2236328-.7144775,1.6209717-1.7839355,2.9243164-3.0736084,4.0441895-2.1778564,1.8912354-4.7297363,2.8917236-7.6048584,3.0588379-3.9963379.2321777-7.7524414-.7183838-11.2749023-2.5224609-3.2687988-1.6743164-5.6164551-4.3054199-7.239624-7.5881348-.072876-.1474609-.1026611-.317627-.1414795-.4799805-.0072021-.0300293.0394287-.072876.1210938-.2114258,3.6369629,4.4462891,8.2687988,7.1740723,13.9418945,7.9226074ZM52.4453755,101.7256161c7.8603516,6.1915283,16.5931396,7.288208,26.0750732,4.4737549-2.133667,2.2189941-8.7022705,3.711792-13.8591309,3.0114746-5.1280518-.6964111-9.0767822-3.4562988-12.2159424-7.4852295ZM84.4379292,113.2508847c.5892334,1.2219238.9781494,2.2062988,1.0905762,3.2814941.0565186.5395508-.012207,1.0065918-.581543,1.2888184-.5236816.2597656-.9855957.1907959-1.4414062-.1219482-.4730225-.324585-.4483643-.8106689-.3413086-1.2711182.2403564-1.0343018.7198486-1.9743652,1.2736816-3.1772461ZM113.6190816,105.0711972c-2.6262207,3.0109863-5.5457764,5.6706543-9.4185791,7.0722656-3.2265625,1.1677246-6.3178711.8424072-9.2836914-.8082275-3.2514648-1.8094482-5.6746826-4.4437256-7.53125-7.630249,8.3649902,8.1157227,17.1132812,7.8205566,26.2335205,1.3662109ZM88.0857564,101.7232968c9.4505615,5.4416504,18.520752,6.2373047,27.4384766-.5306396-.1782227.6094971-.5876465.9754639-.9829102,1.3250732-2.2233887,1.9675293-4.557251,3.8132324-7.342041,4.9006348-5.4243164,2.1179199-10.6556396,1.684082-15.5706787-1.5378418-1.0072021-.6601562-1.8338623-1.5449219-2.6038818-2.472168-.3516846-.4234619-.6428223-.8814697-.9389648-1.6850586ZM117.6489888,113.0913388c.8282471.6419678,1.2325439,1.3797607,1.4284668,2.2287598.1756592.7608643-.1605225,1.4814453-.7731934,1.8817139-.4624023.302124-.9064941.2005615-1.3242188-.0339355-.5056152-.2840576-.6616211-.7747803-.5541992-1.3193359.19104-.9689941.6202393-1.8366699,1.2231445-2.7572021ZM132.3183003,103.9891659c-2.138916.8846436-4.3540039,1.2232666-6.6430664.6166992-2.7926025-.7399902-4.8688965-3.3093262-4.9503174-6.277832,1.958252,2.0322266,4.0871582,3.607666,6.782959,4.2602539,2.6765137.6479492,5.2497559.2288818,7.8409424-.6435547-.7774658,1.0274658-1.8956299,1.5751953-3.0305176,2.0444336ZM135.8504048,102.9046933c.6943359-.7001953,1.3763428-1.4129639,2.0817871-2.1016846.3596191-.3508301.6818848-.7642822,1.2618408-.9332275.0361328.576416-.2474365,1.0170898-.5023193,1.4421387-1.3532715,2.2562256-3.1586914,4.0775146-5.5200195,5.2434082-1.9958496.9853516-4.1132812,1.1052246-6.2473145.3756104-.7531738-.2574463-1.3366699-.7098389-1.7786865-1.5301514.9941406.1123047,1.8719482.2216797,2.7515869.3093262,3.0878906.3078613,5.7546387-.5878906,7.953125-2.8054199ZM121.0291158,102.2229306c.9584961,1.2052002,1.93396,2.3920898,2.9822998,3.5250244,2.8673096,3.0983887,6.4051514,3.1617432,9.762085,1.8583984,1.0638428-.4130859,2.020752-1.0469971,3.0256348-1.652832.145752.4572754-.168457.6240234-.3366699.8295898-3.4052734,4.1628418-8.6464844,4.7358398-12.8664551,1.3974609-1.7104492-1.3531494-3.1391602-2.9147949-3.519043-5.1799316-.0899658-.5360107-.1434326-1.0705566.0019531-1.6943359.519043.1962891.6983643.6000977.9501953.916626ZM127.4448873,49.5187069c.1386719-.4042969.3808594-.4934082.7900391-.3806152,1.578125.4345703,2.9102783,1.2263184,3.8148193,2.6196289.7503662,1.1560059.6929932,2.3210449-.104126,3.329834-.8286133,1.0487061-2.5742188,1.633667-3.6766357,1.2338867-.5048828-.1829834-.8685303-.5179443-1.1297607-.9865723-.355957-.6385498-.5151367-1.2817383-.5125732-2.2167969-.0175781-1.2658691.4171143-2.4283447.8182373-3.5993652ZM127.9312154,59.0204159c.0438232,1.1994629.0576172,2.3980713.1983643,3.595459.2093506,1.7802734.8353271,3.3095703,2.2867432,4.4431152.2352295.1835938.6633301.3623047.395874.800415-.2075195.3398438-.6629639.2623291-1.0709229-.2034912-.6860352-.7836914-1.1386719-1.7116699-1.5354004-2.6633301-.3791504-.909668-.7199707-1.8349609-1.0825195-2.7515869-.0777588-.1976318-.1820068-.4493408-.4204102-.4041748-.3222656.060791-.3215332.3642578-.2764893.6237793.2210693,1.2705078.5311279,2.513916,1.1177979,3.6755371.2509766.4967041.4763184,1.0073242.6925049,1.5202637.0930176.2207031.2756348.4794922-.0172119.6865234-.2406006.170166-.5004883.0634766-.736084-.0327148-.236084-.0964355-.5124512-.2241211-.411377-.546875.2918701-.932251-.0310059-1.7904053-.3461914-2.6225586-.2045898-.539917-.1335449-1.3250732-1.0029297-1.4465332-.182373-.0255127-.1695557-.2753906-.1503906-.4387207.2434082-2.0716553.2297363-4.1723633.6091309-6.2468262,1.5679932.4814453,1.6994629.6463623,1.7495117,2.0117188ZM125.8301412,42.0011288c.1220703,1.6243896.2077637,3.2521973.2674561,4.8800049.013916.3740234-.0797119.7757568-.2176514,1.1280518-1.5256348,3.8925781-4.0249023,6.8999023-8.0808105,8.2609863-3.5823975,1.2022705-6.8487549.3613281-9.7307129-2.0338135-.8961182-.7445068-1.6247559-1.6446533-2.3144531-2.5794678-.5098877-.6914062-1.0449219-1.369873-1.7814941-1.8376465-.8059082-.5117188-1.1608887-.4000244-1.5936279.4554443-.2127686.4205322-.3192139.9106445-.6270752,1.2677002-12.09021,14.0187988-27.421875,7.2729492-27.8256836,7.105957-3.5177002-1.4549561-6.3295898-3.7479248-8.1898193-7.0947266-.8270264-1.487793-.642334-1.7182617,1.0709229-1.6386719,2.1835938.1010742,4.3654785.2375488,6.5480957.3586426.0008545-.0175781.0014648-.0350342.0021973-.0526123,2.3129883.088501,4.6259766.1763916,6.9387207.2661133.0991211.0037842.1977539.0115967.2966309.0164795h3.5024414c.4467773-.1185303.8936768-.1638184,1.3322754-.2089844,2.6862793-.2763672,5.3808594-.4777832,8.0628662-.7895508,9.3457031-1.0864258,18.555542-2.7927246,27.3922119-6.15271,1.402832-.5334473,2.7679443-1.1507568,4.1199951-1.8017578.6047363-.2913818.7781982-.2075195.8275146.4505615ZM41.3181783,65.921539c-.2113037-1.4360352-.3845215-2.8776855-.5808105-4.357666.4907227.217041.6567383.6878662.9317627,1.045166,3.0891113,4.012207,9.4405518,6.2299805,14.3162842,4.9697266,3.5444336-.9162598,5.8613281-3.2331543,7.3304443-6.4956055.0435791-.0969238.0792236-.199707.1204834-.2977295-.0093994.4659424-.0178223.9311523-.0361328,1.3951416-.0410156,1.0283203-.0927734,2.0581055-.6335449,2.9875488-.1494141.2570801-.2333984.550293-.1755371.8657227.1616211.8808594-.1938477,1.5891113-.7531738,2.2302246-.4831543.5537109-.8820801,1.1652832-1.1428223,1.8527832-.4072266,1.0742188-.4064941,2.1228027.4260254,3.0053711.8813477.934082,1.9885254,1.1113281,3.1950684.7788086.590332-.1628418,1.0966797-.4833984,1.5405273-.9003906.96875-.9099121,1.1306152-1.5297852.6337891-2.7519531-.2736816-.6730957-.6350098-1.310791-.9533691-1.9660645-.2060547-.4238281-.3532715-.887207-.6193848-1.2680664-.4702148-.6726074.6760254-1.7651367-.5974121-2.1967773-.2231445-.8374023-.2006836-1.6992188-.2275391-2.5522461-.0273438-.8605957-.0095215-1.7211914.0605469-2.5863037.2570801.2113037.3233643.5340576.4536133.7983398,2.5974121,5.2740479,6.8017578,8.3736572,12.5957031,9.317749,0,0,2.015625.6933594,4.3916016.6933594,2.4794922,0,7.3410645-1.4516602,7.3410645-1.4516602,3.4029541-.9777832,6.5009766-2.5556641,9.0784912-5.1462402,1.8431396-1.8527832,3.0640869-4.1159668,4.1485596-6.4611816.1273193-.2753906.2528076-.5516357.3791504-.8273926-.0258789.7381592-.0301514,1.4726562-.0592041,2.204834-.0410156,1.0283203-.0927734,2.0581055-.6335449,2.9875488-.149292.2570801-.2333984.550293-.1755371.8657227.1616211.8808594-.1938477,1.5891113-.7531738,2.2302246-.4831543.5537109-.8820801,1.1652832-1.1428223,1.8527832-.4072266,1.0742188-.4064941,2.1228027.4260254,3.0053711.8813477.934082,1.9885254,1.1113281,3.1950684.7788086.590332-.1628418,1.0966797-.4833984,1.5405273-.9003906.96875-.9099121,1.1306152-1.5297852.6337891-2.7519531-.2736816-.6730957-.6350098-1.310791-.9533691-1.9660645-.2059326-.4238281-.3532715-.887207-.6193848-1.2680664-.4702148-.6726074.6761475-1.7651367-.5974121-2.1967773-.2231445-.8374023-.2005615-1.6992188-.2275391-2.5522461-.0366211-1.1525879.0029297-2.3054199.1539307-3.4696045.0147705.0042725.0294189.0084229.0440674.0125732.1175537.8847656.2301025,1.7705078.3536377,2.6546631.6367188,4.5523682,4.1604004,8.1004639,8.6896973,8.7637939,2.1096191.3088379,3.9887695-.3067627,5.7247314-1.4401855,2.1640625-1.4128418,3.7442627-3.3771973,5.1102295-5.5336914.2415771-.3811035.4886475-.7587891.7546387-1.1716309.1003418.1580811.180542.2250977.1773682.288208-.3165283,6.5228271.2156982,13.0338135.2781982,19.5511475.0131836,1.3724365.022583,2.7457275.0805664,4.1166992.0279541.6652832-.1750488.977417-.8693848,1.1425781-2.8786621.6853027-5.7851562,1.2216797-8.6965332,1.7319336-14.4963379,2.5402832-29.1064453,3.506958-43.8100586,3.0888672-9.2287598-.2624512-18.3920898-1.1984863-27.4729004-2.8842773-.7443848-.1381836-1.6912842-.0819092-2.1530762-.6595459-.4487305-.5611572.0341797-1.3956299.1206055-2.1071777.6928711-5.7017822.4924316-11.383667-.3425293-17.0548096ZM51.3919087,61.2524716c2.842041.208374,5.4093018-.6151123,7.6724854-2.3692627.4848633-.3759766.9227295-.8387451,1.6710205-1.1534424-4.9321289,6.4901123-16.2368164,5.5058594-19.3726807-1.6619873.5089111.4547119,1.0230713.9039307,1.5263672,1.3649902,2.4136963,2.2113037,5.2252197,3.5794678,8.5028076,3.8197021ZM44.5510884,57.617828c2.6447754,1.0839844,5.3426514,1.6694336,8.2231445,1.2648926,2.7758789-.3898926,5.333374-1.3825684,7.8353271-2.5871582-5.0672607,5.3121338-12.3508301,4.7216797-16.0584717,1.3222656ZM41.8294087,58.1954648c5.4445801,6.2578125,15.0385742,6.059082,20.2231445-.4245605.2901611-.362793.5645752-.7381592.9746094-1.2758789.1325684,1.4715576-.1727295,2.6766357-.7207031,3.8143311-3.6972656,7.6776123-11.7940674,8.0013428-17.1314697,4.1558838-2.3856201-1.71875-3.9561768-4.0046387-4.6673584-6.8676758-.0307617-.1237793-.0559082-.2524414-.0565186-.3791504-.0003662-.0722656.0543213-.1446533.104126-.265625.5529785.2932129.8883057.7993164,1.2741699,1.2426758ZM64.828188,70.7662655c.0566406.5395508-.012207,1.0065918-.581543,1.2888184-.5236816.2597656-.9855957.190918-1.4414062-.1218262-.4729004-.324707-.4482422-.810791-.3413086-1.2712402.2404785-1.0341797.7199707-1.9743652,1.2736816-3.1772461.5893555,1.2219238.9782715,2.2062988,1.0905762,3.2814941ZM70.5499898,61.3269345c2.5859375,2.2281494,8.7913818,4.3648682,8.7913818,4.3648682.1064453.0380859,1.4931641.5146484,3.6748047.5146484,1.9628906,0,4.5683594-.3857422,7.4638672-1.8203125,0,0,6.4880371-3.5926514,9.2458496-6.2543945.2138672-.2062988.4328613-.4073486.6494141-.6108398-1.7399902,4.4462891-4.6741943,7.802124-9.138916,9.6790771-1.1539307.4851074-5.8513184,2.9405518-10.8043213,2.2669678.0267334-.0958252-4.2340088-.7260742-5.2598877-1.0341797-3.987793-1.1977539-6.6015625-3.5524902-8.4282227-7.4345703-.8094482-1.7199707-1.2177734-3.5383301-1.2155762-5.5458984.420166.2006836.5095215.5505371.6800537.8146973,1.2171631,1.8851318,2.6363525,3.5905762,4.3415527,5.0599365ZM66.788149,55.7731015c.4016113-.0388184.6291504.2424316.8796387.4282227.5839844.4328613,1.1542969.885498,1.7163086,1.347168,1.9405518,1.5930176,10.0932617,4.2867432,13.567749,4.1364746,6.6593018-.2883301,14.3005371-3.8920898,15.9835205-5.0354004.2033691-.1381836.3869629-.333252.7849121-.3334961-.2260742.510498-.5964355.840332-.9295654,1.185791-2.5643311,2.6599121-9.6245117,6.3442383-9.6870117,6.4123535-3.9981689,1.6958008-7.3164062,1.3132324-8.7130127,1.0185547-.1845703-.1773682-11.6929932-4.9008789-13.6025391-9.159668ZM103.9104634,67.3927304c.0565186.5395508-.012207,1.0065918-.581543,1.2888184-.5236816.2597656-.9855957.190918-1.4414062-.1218262-.4730225-.324707-.4483643-.810791-.3413086-1.2712402.2403564-1.0341797.7198486-1.9743652,1.2736816-3.1772461.5892334,1.2219238.9781494,2.2062988,1.0905762,3.2814941ZM107.8147603,58.3106991c2.2872314,2.0061035,4.8720703,2.9494629,7.9403076,2.296875,1.7999268-.3825684,3.3826904-1.1959229,4.8364258-2.28125.87854-.6560059,1.7122803-1.3718262,2.588501-2.0786133.0314941.1442871.0875244.2416992.0603027.3007812-1.190918,2.578125-2.5311279,5.0476074-4.7514648,6.9287109-3.8620605,3.2719727-8.9597168,2.6374512-11.857666-1.5251465-1.3371582-1.9208984-1.9145508-4.079834-1.7679443-6.4838867,1.0115967.9443359,1.930542,1.9466553,2.9515381,2.8425293ZM106.960024,55.4096982c4.8128662,3.1307373,9.6859131,3.3259277,14.6730957.4222412-4.3580322,5.0510254-10.6575928,4.8588867-14.6730957-.4222412ZM116.3320943,22.8085019c-1.7794189-.6173096-2.7211914-2.8342285-2.5631104-5.8348389.9864502.6687012,2.4490967,3.9415283,2.5631104,5.8348389ZM113.0195943,8.9625546c.0029297-1.9851074.0222168-1.9997559,1.684082-1.0964355.637207.3463135,1.2801514.6958008,1.77771,1.2402344.597168.6534424.7557373,1.3879395.4627686,2.2504883-.3112793.9162598-.8544922,1.5532227-1.7979736,1.8319092-.4195557.1239014-.6330566-.1204834-.8397217-.4090576-.8416748-1.1773682-1.3771973-2.4541016-1.2868652-3.8171387ZM57.0437642,4.4414364c3.1690674-.7988281,6.3984375-1.2520752,9.6463623-1.5111084,8.8931885-.7089844,17.7945557-1.3162842,26.6864014-2.0397949,3.8828125-.315918,7.708252.0574951,11.5341797.5911865,2.2078857.3079834,4.4038086.692749,6.5812988,1.1761475.4525146.1004639.8989258.2294922,1.3522949.3464355-.1325684.3596191-.4118652.3502197-.6591797.3886719-20.4029541,3.1774902-38.4882812,3.7775879-56.0175781,1.4803467.1879883-.3741455.5587158-.3519287.8762207-.4318848ZM53.812563,6.4984433c.0620117-.5390625.4257812-.576416.8381348-.5371094,1.0661621.1018066,2.1367188.1740723,3.1959229.3249512,5.2757568.751709,10.5908203.8458252,15.9034424,1.0018311,2.097168.0616455,4.1923828.1842041,6.2858887.2789307.022583.0981445.6240234.0932617.8227539.072998-.0419922-.0397949,20.9360352-1.9204102,31.4780273-3.2387695-.4276123,1.4090576-.5112305,2.6875-.6762695,3.9567871-.7302246,5.6218262-5.6096191,8.7822266-11.2072754,7.2910156-1.814209-.4833984-3.4057617-1.37854-4.8186035-2.6132812-.5668945-.4953613-.9780273-1.0446777-1.1174316-1.8095703-.1219482-.6699219-.2514648-1.4454346-1.0195312-1.6555176-.8372803-.2287598-1.3509521.4433594-1.8095703.9904785-.8193359.9772949-1.5703125,2.0118408-2.5279541,3.2531738.0958252-.4888916-8.3692627,10.4765625-16.746582-3.3112793-.4049072-.6662598-.9068604-.5999756-1.5550537-.0861816-.6751709.5355225-1.2036133,1.2174072-1.7668457,1.8634033-1.9304199,2.2132568-4.3640137,3.5443115-7.2312012,4.1136475-1.7988281.3571777-3.4819336.0222168-5.1037598-.7946777-1.517334-.7644043-2.4494629-1.9598389-2.8452148-3.6038818-.4399414-1.8275146-.310791-3.659668-.098877-5.4969482ZM102.5630513,18.985748c3.4902344.079834,6.2646484-1.4678955,8.4812012-4.2363281.2512207.5280762-.0893555.8647461-.171875,1.2260742-.0852051.3720703-.2437744.7301025-.3930664,1.0844727-1.6381836,3.8874512-7.015625,6.6341553-11.0996094,5.6027832-2.5668945-.6483154-4.2634277-2.2861328-4.9897461-4.8581543-.279541-.9892578-.390625-2.0083008-.2387695-3.1383057,2.1300049,2.8532715,4.9760742,4.2409668,8.4118652,4.319458ZM95.7039205,15.0782773c2.0488281.9448242,4.0631104,1.9335938,6.3776855,2.1223145,2.2973633.1872559,4.3237305-.7558594,6.5024414-1.5062256-.5028076,1.2294922-2.411377,2.2852783-4.473999,2.680542-3.4906006.6687012-6.1352539-.8120117-8.4061279-3.2966309ZM93.234316,24.2716366c.5892334,1.2219238.9781494,2.2062988,1.0905762,3.2814941.0565186.5395508-.012207,1.0065918-.581543,1.2888184-.5236816.2597656-.9855957.190918-1.4414062-.1218262-.4730225-.324707-.4483643-.810791-.3413086-1.2712402.2403564-1.0341797.7198486-1.9743652,1.2736816-3.1772461ZM71.3230611,24.3424374c.5893555,1.2219238.9782715,2.2062988,1.0905762,3.2814941.0566406.5395508-.012207,1.0065918-.581543,1.2888184-.5236816.2597656-.9855957.190918-1.4414062-.1218262-.4729004-.324707-.4482422-.810791-.3413086-1.2712402.2404785-1.0341797.7199707-1.9743652,1.2736816-3.1772461ZM71.6687642,18.3981015c-.0046387-.9694824.050293-1.94104.1875-2.9208984,2.4685059,3.3632812,5.5272217,5.4150391,9.7584229,5.2807617,4.3789062-.138916,7.552002-2.4343262,10.1551514-5.7851562-1.5117188,6.9975586-11.4584961,8.0812988-11.4584961,8.0812988-.1159668,0-.2192383-.03479-.3186035-.0755615-.4680176.1124268-.9680176.0548096-1.4821777-.0075684-2.5402832-.3082275-4.6503906-1.4321289-6.1986084-3.4968262-.2589111-.3453369-.4725342-.703125-.6431885-1.0760498ZM71.395815,15.0002743c.0102539-.0455322.0148926-.0882568.026123-.1343994.0327148.0480957.0668945.0930176.0998535.140625-.0419922-.0020752-.0839844-.0047607-.1259766-.0062256ZM73.1375142,14.2762753c-.0249023-.0595703.0362549-.1550293.0695801-.2800293.4936523.3041992.829834.7502441,1.1351318,1.1916504,3.864624,5.5882568,11.6607666,4.2412109,15.1763916.3271484.2124023-.2365723.361084-.5517578.7133789-.673584.1162109.3868408-.1838379.5653076-.3491211.7835693-2.4185791,3.196167-7.6855469,4.9293213-11.4562988,3.7329102-2.5821533-.8193359-4.260498-2.6248779-5.2890625-5.081665ZM68.1338521,15.3778378c-.0300293.6065674-.3474121.8908691-.6555176,1.1225586-2.5007324,1.8808594-5.2307129,3.0551758-8.4500732,2.6352539-1.1394043-.1486816-2.1010742-.6949463-2.9664307-1.4169922-.3186035-.2658691-.5998535-.5837402-.5968018-1.2437744,2.1063232.9342041,4.1727295,1.6557617,6.4620361,1.2630615,2.1774902-.3735352,4.130127-1.3015137,6.2067871-2.3601074ZM53.7883931,16.1356503c1.3803711,2.8792725,3.7832031,4.0891113,6.8481445,4.114624,2.9956055.0247803,5.5566406-1.2271729,7.9455566-2.9093018.3464355-.2440186.6368408-.5762939,1.0598145-.7050781.9628906,1.5793457.9416504,2.8563232-.0913086,4.2711182-1.3378906,1.8320312-3.1915283,2.7667236-5.3905029,3.1685791-2.5784912.4709473-5.0247803.2438965-7.3238525-1.0942383-1.5151367-.8815918-2.517334-2.1594238-3.0506592-3.8222656-.4072266-1.2695312-.5372314-2.5834961-.7299805-3.9304199.522583.1486816.5748291.578125.7327881.9069824ZM52.7852193,37.5389706c.0489502-1.7141113.1894531-3.4256592.2407227-5.1398926.0961914-3.2169189.0906982-6.4348145.0202637-9.65271-.0079346-.3674316-.1064453-.7540283.0814209-1.1020508.3596191-.0623779.4569092.2320557.6256104.3951416,3.404541,3.2922363,7.447998,4.0649414,11.8972168,2.861084,2.2264404-.6022949,4.012207-1.8909912,5.1142578-3.9599609-.0905762.3713379-.2099609.7368164-.4125977,1.0852051-.1494141.2570801-.2333984.550293-.1755371.8657227.1616211.8808594-.1938477,1.5891113-.7531738,2.2302246-.4831543.5537109-.8820801,1.1652832-1.1428223,1.8527832-.4072266,1.0742188-.4064941,2.1228027.4260254,3.0053711.8813477.934082,1.9885254,1.1113281,3.1950684.7788086.590332-.1628418,1.0966797-.4833984,1.5405273-.9003906.96875-.9099121,1.1306152-1.5297852.6337891-2.7519531-.2736816-.6730957-.6350098-1.310791-.9533691-1.9660645-.2060547-.4238281-.3532715-.887207-.6193848-1.2680664-.4702148-.6726074.6760254-1.7651367-.5974121-2.1967773-.0793457-.2976074-.1213379-.598999-.1518555-.9013672.0302734.0397949.0600586.0800781.0917969.1176758,1.5914307,1.885498,3.6531982,2.777832,6.0827637,2.9052734.5141602.0270996,1.0279541.0620117,1.541748.0941162.3461914.0216064,8.1274414.4088135,13.4375-7.2397461.0234375.0074463.032959.0222168.052002.0321045-.0288086.7648926-.032959,1.5256348-.0629883,2.2839355-.0410156,1.0283203-.0927734,2.0581055-.6335449,2.9875488-.149292.2570801-.2333984.550293-.1755371.8657227.1616211.8808594-.1938477,1.5891113-.7531738,2.2302246-.4831543.5537109-.8820801,1.1652832-1.1428223,1.8527832-.4072266,1.0742188-.4064941,2.1228027.4260254,3.0053711.8813477.934082,1.9885254,1.1113281,3.1950684.7788086.590332-.1628418,1.0966797-.4833984,1.5405273-.9003906.96875-.9099121,1.1306152-1.5297852.6337891-2.7519531-.2736816-.6730957-.6350098-1.310791-.9533691-1.9660645-.2059326-.4238281-.3532715-.887207-.6193848-1.2680664-.4702148-.6726074.6761475-1.7651367-.5974121-2.1967773-.2231445-.8374023-.2005615-1.6992188-.2275391-2.5522461-.0063477-.1975098-.0056152-.3951416-.0076904-.5927734,1.8450928,4.8225098,6.6538086,6.0688477,10.6202393,4.9053955,3.5544434-1.0426025,6.0653076-3.2657471,7.5366211-6.6644287.1184082-.2731934.2355957-.5466309.3591309-.8173828.0100098-.0214844.067627-.0214844.1347656-.0401611.2590332.3323975.1318359.7252197.1230469,1.0853271-.140625,5.7905273-.3570557,11.5793457-.7280273,17.3586426-.1745605,2.7175293.4456787,2.3708496-2.6813965,3.3920898-3.1062012,1.0144043-6.3449707,1.456543-9.5549316,2.0021973-3.9716797.6751709-7.9477539,1.3261719-11.9279785,1.9506836-6.5477295,1.0275879-13.1246338,1.5093994-19.7460938.8779297-4.7175293-.4499512-9.3151855-1.4345703-13.7260742-3.2062988-1.2080078-.4851074-1.2421875-.4929199-1.2058105-1.7646484ZM48.6342183,26.8050839c-.3599854-.2380371-.2264404-.6032715-.1953125-.909668.1485596-1.4588623,1.432251-5.3376465,2.3616943-7.0866699.3151855,3.5163574-.5803223,6.730835-2.1663818,7.9963379ZM49.5061665,14.055328c-1.1425781-.4608154-1.6300049-1.2922363-1.2553711-2.1408691.3157959-.7150879.9523926-1.1037598,1.6013184-.9782715.9631348.1866455,1.6662598.9685059,1.6506348,1.8360596-.020874,1.1710205-.8897705,1.7293701-1.996582,1.2830811ZM43.8811665,43.1727597c2.3328857-.4243164,4.5599365-1.1894531,6.6970215-2.1984863.6687012-.3157959,1.229126-.3457031,1.93396-.092041,8.3846436,3.0180664,17.0335693,4.177002,25.9210205,3.5968018,9.0048828-.5880127,17.8859863-1.9604492,26.623291-4.2266846,1.5328369-.3974609,3.0410156-.8912354,4.5581055-1.3479004.7841797-.2358398,1.5360107-.5422363,2.1650391-1.0898438.3726807-.3243408.776123-.4920654,1.2946777-.376709,3.7631836.8371582,7.529541,1.6605225,11.2941895,2.4912109.0805664.0177002.1530762.0715332.291748.1387939-.2932129.4158936-.7648926.4974365-1.1600342.6737061-5.3475342,2.3868408-10.9561768,3.9414062-16.6654053,5.1530762-5.9970703,1.2731934-12.0412598,2.2910156-18.1320801,2.9884033-4.526001.5183105-9.0773926.5372314-13.6199951.2416992-5.3050537-.3452148-10.6071777-.7484131-15.9051514-1.1920166-3.1604004-.2646484-6.2939453-.7231445-9.3856201-1.4876709-3.0762939-.760498-6.1879883-1.3763428-9.2835693-2.05896-.3220215-.0710449-.6989746-.0354004-.9162598-.4575195,1.4454346-.2542725,2.8686523-.4975586,4.2890625-.7558594ZM39.4370748,46.2328183c-.1416016-.8739014-.0362549-.9897461.8763428-.7807617,2.5845947.5915527,5.1737061,1.1721191,7.7364502,1.8499756,3.4060059.901123,6.8684082,1.40271,10.3693848,1.713623,1.4912109.1324463,2.9750977.3477783,4.4622803.5273438.211792.0255127.425293.0556641.6315918.3480225-.3770752.5595703-.4562988,1.251709-.5292969,1.9709473-.0819092.8079834-.7784424,1.3101807-1.3526611,1.8040771-2.5168457,2.1645508-5.3935547,3.6036377-8.6848145,4.1623535-3.3720703.5723877-6.4562988-.1126709-9.2553711-2.0961914-1.8691406-1.3243408-3.0616455-3.0926514-3.5258789-5.3272705-.2868652-1.3815918-.5021973-2.7785645-.7280273-4.1721191ZM38.9501363,84.9169003c.4293213-.1291504.7498779-.1057129.975708.3164062.381958.7145996,1.0769043.9161377,1.7888184,1.1239014,3.098999.9044189,6.2875977,1.3280029,9.4735107,1.7359619,9.3726807,1.2001953,18.789917,1.6682129,28.2349854,1.5361328,7.4631348-.104248,14.9106445-.5268555,22.3491211-1.1564941,6.4099121-.5424805,12.7998047-1.2210693,19.1296387-2.3847656,1.8532715-.3408203,3.7023926-.7147217,5.5375977-1.1413574.7712402-.1794434,1.5268555-.2462158,2.2919922-.1213379,2.7923584.4555664,5.5517578,1.0701904,8.286377,1.7944336.1164551.0307617.2600098.0498047.2524414.2285156-3.1663818,1.8016357-29.1943359,6.3962402-44.3588867,7.1875-21.331665,1.112915-42.3469238-.9385986-63.1014404-5.9405518,3.0003662-1.3028564,6.0657959-2.2525635,9.1401367-3.1783447ZM26.2869283,90.8198544c.230957-1.4139404,1.0356445-1.9718018,2.4589844-1.6700439,3.4786377.7373047,6.9389648,1.5576172,10.4367676,2.2075195,6.5343018,1.2143555,13.0933838,2.2512207,19.6984863,3.0073242,8.6600342.9914551,17.3460693,1.4951172,26.0604248,1.5333252,3.5218506.0155029,7.02771-.2745361,10.5273438-.6296387,3.7110596-.3763428,7.4207764-.7684326,11.1265869-1.19104,6.0498047-.6899414,12.0622559-1.6315918,18.0528564-2.7180176,4.6407471-.8416748,9.2489014-1.8210449,13.7938232-3.0854492.2060547-.0571289.418457-.090332.6270752-.1391602.4664307-.109375.7169189.0153809.743042.5512695.0539551,1.1135254.1535645,2.2246094.2346191,3.3369141l-.0314941.0021973c.0280762.5570068-.0285645,1.1345215.1010742,1.666748.2974854,1.2194824-.1746826,2.1391602-.9055176,3.0543213-1.2167969,1.5241699-2.5983887,2.8480225-4.2529297,3.8856201-2.7207031,1.7062988-5.5749512,1.8723145-8.4804688.6054688-2.5671387-1.1193848-4.5141602-2.9241943-5.6104736-5.5632324-.262085-.6304932-.5074463-1.4552002-1.2270508-1.5351562-.7425537-.0827637-1.0928955.7407227-1.4578857,1.2885742-2.1655273,3.25-4.9724121,5.7717285-8.4526367,7.5349121-3.7741699,1.9123535-7.7104492,2.4602051-11.859375,1.4509277-2.8934326-.7037354-5.6789551-1.6427002-8.2077637-3.2480469-.7983398-.5068359-1.5373535-1.0915527-2.2415771-1.7233887-.6235352-.5593262-1.1054688-1.1867676-1.2159424-2.0527344-.0318604-.2497559-.1303711-.5007324-.243042-.7290039-.3901367-.7906494-1.3656006-.8342285-1.8409424-.0749512-.4182129.6682129-.5534668,1.4470215-.6816406,2.1994629-.2913818,1.7094727-1.2087402,2.987915-2.5253906,4.0465088-2.0617676,1.6573486-4.4398193,2.5866699-7.020874,2.9815674-8.4985352,1.2998047-15.8546143-1.0344238-22.0467529-7.015625-.9440918-.9118652-1.6813965-1.9384766-2.0441895-3.2158203-.0812988-.2862549-.1923828-.5736084-.3435059-.8286133-.331543-.5600586-.8666992-.6235352-1.2283936-.0961914-.3104248.4528809-.5518799.9737549-.7235107,1.4975586-.5131836,1.5653076-1.4831543,2.7886963-2.7302246,3.8193359-3.6040039,2.9787598-7.6992188,4.4208984-12.3964844,3.8840332-2.2541504-.2573242-4.1306152-1.3427734-5.8006592-2.8320312-.3780518-.3372803-.536499-.7380371-.5946045-1.232666-.3540039-3.0075684-.184082-5.9973145.3022461-8.9727783ZM17.017397,130.6643368c2.317749-.7684326,4.6555176-1.4764404,6.9880371-2.2004395,1.0064697-.3123779,1.2283936-.1085205,1.0859375.9572754-.1638184,1.2270508-.0087891,1.5567627,1.0820312,2.1539307.8305664.454834,1.7246094.7684326,2.6276855,1.0352783,5.5617676,1.6431885,11.2271729,2.7832031,16.9882812,3.4447021,14.0496826,1.6134033,28.1588135,1.7996826,42.2751465,1.6799316,6.4348145-.0546875,12.8615723-.4545898,19.2524414-1.2426758,10.09021-1.2441406,20.0810547-3.0480957,29.9614258-5.458252,1.6220703-.395752,3.2700195-.6872559,4.9074707-1.019043,1.2193604-.2468262,1.2211914-.2409668,1.2270508-1.4383545.0019531-.4718018.0169678-.944458-.0036621-1.4156494-.0227051-.5163574.2202148-.6960449.7037354-.6274414,1.145874.1627197,2.2945557.3054199,3.4368896.4892578,3.6429443.5852051,7.2318115,1.411377,10.7664795,2.4709473.1960449.0588379.3868408.1346436.7857666.2749023-1.6126709,1.1474609-3.2010498,1.7905273-4.8276367,2.3056641-6.782959,2.149292-13.6228027,4.088501-20.6054688,5.4996338-7.9453125,1.6055908-15.954834,2.8035889-23.9776611,3.9367676-10.1708984,1.4366455-20.3768311,2.2015381-30.6538086,1.866333-6.3887939-.208252-12.7661133-.5942383-19.1383057-1.1046143-3.847168-.3082275-7.6938477-.5882568-11.5290527-1.0411377-8.967041-1.059082-17.7733154-2.7839355-26.265625-5.9477539-2.8085938-1.0463867-5.6757812-1.9394531-8.5883789-2.6691895-.236084-.059082-.4968262-.0936279-.701416-.3664551,1.3537598-.6856689,2.7890625-1.1149902,4.2026367-1.5836182ZM10.4793111,134.4178769c.2214355-1.0457764.2250977-1.0612793,1.2175293-.7418213,3.4669189,1.1166992,6.9259033,2.2584229,10.395874,3.3658447,7.8201904,2.4960938,15.800415,4.2457275,23.9537354,5.2449951,12.7027588,1.5566406,25.4399414,2.52771,38.2445068,2.3916016,8.0682373-.0858154,16.1186523-.5330811,24.1470947-1.3770752,3.4111328-.3586426,6.8372803-.5563965,10.2409668-1.0097656,6.0009766-.7995605,11.9140625-2.03479,17.769043-3.5454102,7.8013916-2.0128174,15.5656738-4.1601562,23.1737061-6.8330078.1572266-.0551758.3248291-.0809326.6081543-.1495361.2539062.9832764.3780518,1.8712158.3846436,2.7723389.012085,1.6733398-.008667,3.3470459.0162354,5.0200195.0178223,1.2111816-.3380127,2.2949219-1.0782471,3.2301025-1.7570801,2.2205811-3.5524902,4.4063721-5.5927734,6.3843994-3.5297852,3.421875-7.8465576,4.9748535-12.6402588,5.3620605-1.9638672.1586914-3.9395752.1644287-5.9033203-.1679688-2.8903809-.4892578-5.2130127-1.8984375-6.9630127-4.2335205-.6936035-.925293-1.2983398-1.9168701-1.9611816-2.8658447-.2668457-.3818359-.5422363-.8912354-1.0551758-.8417969-.6125488.059082-.9147949.6022949-1.0861816,1.1503906-.1264648.4057617-.2668457.8464355-.2299805,1.2558594.0765381.8459473-.293457,1.4815674-.7536621,2.1174316-2.6578369,3.6706543-6.2528076,5.9682617-10.612793,7.0097656-7.6976318,1.8388672-14.8876953.583252-21.5063477-3.7973633-1.4506836-.9602051-2.6621094-2.1496582-3.5782471-3.6422119-.380249-.619751-.8140869-1.2127686-1.2769775-1.7740479-.7539062-.9143066-1.550293-.791626-2.0622559.2799072-.2454834.513916-.3397217,1.0809326-.3468018,1.6253662-.0108643.8137207-.4100342,1.3551025-.9549561,1.8734131-1.9553223,1.8599854-4.2460938,3.2130127-6.7036133,4.2504883-6.730957,2.8411865-13.5480957,3.2038574-20.3834229.3809814-3.9644775-1.637207-6.866333-4.458252-8.7921143-8.2922363-.5385742-1.0721436-1.0817871-2.1464844-1.699585-3.173584-.8883057-1.4768066-1.1951904-1.4604492-2.1685791.0145264-.3065186.4647217-.5906982.9468994-.8503418,1.4394531-2.5930176,4.9190674-6.829834,7.5706787-12.126709,8.668457-3.3337402.69104-6.6696777.5174561-9.9068604-.5841064-5.2592773-1.7897949-9.819458-5.9353027-10.3419189-13.3793945-.1745605-2.489624-.0957031-4.973999.4238281-7.4287109ZM155.9819966,187.117828c-1.2429199-.3955078-2.5402832-.1643066-3.777832.3170166-1.6237793.6317139-3.0355225,1.6013184-4.3380127,2.72229-.5784912.4980469-1.0842285.6657715-1.8391113.4448242-4.0648193-1.1899414-7.8931885-.5736084-11.4669189,1.6599121-.5373535.3356934-1.0766602.4787598-1.6976318.4504395-1.4188232-.0644531-2.8289795.0947266-4.2386475.2211914-.9411621.0844727-1.8991699.2102051-2.7421875.6411133-1.8521729.9462891-3.6942139.8891602-5.5959473.1896973-1.4428711-.5305176-2.947998-.5280762-4.4494629-.3083496-1.3768311.2015381-2.6833496.6413574-3.7719727,1.5263672-.5693359.4628906-1.0861816.5739746-1.7590332.298584-.4309082-.1762695-.9174805-.2116699-1.3692627-.3442383-3.1817627-.9335938-6.2172852-.5455322-9.0443115,1.1375732-1.0144043.6038818-1.8724365.7147217-2.9720459.2307129-2.7574463-1.2137451-5.4534912-.8564453-7.9984131.6697998-.8032227.4816895-1.4526367.5750732-2.3427734.0844727-2.6245117-1.4466553-5.4425049-1.4758301-8.2401123-.6213379-1.6036377.4898682-3.0887451.6260986-4.7445068.1433105-2.6242676-.7651367-5.2854004-.2293701-7.8955078.3017578-.9812012.1994629-1.7957764.1303711-2.6760254-.4041748-2.0429688-1.2406006-4.2651367-1.479248-6.5703125-.8446045-.8670654.2387695-1.7305908.494873-2.5827637.7817383-.4749756.15979-.8837891.1818848-1.3424072-.0875244-3.1414795-1.8461914-6.5109863-2.0418701-9.9500732-1.1590576-1.1750488.3015137-2.1218262.2402344-3.1193848-.4492188-2.5067139-1.7324219-5.2824707-1.8691406-8.1437988-1.1696777-1.0649414.260498-1.9040527.1711426-2.8133545-.5987549-1.7125244-1.4500732-3.824585-1.8465576-6.0343018-1.7478027-.1711426.0076904-.3415527.0341797-.5117188.0560303-.7648926.0974121-1.5490723.3481445-2.2893066.2539062-.7978516-.1018066-1.0393066-1.0568848-1.6322021-1.5383301-.7791748-.6328125-1.6282959-1.1094971-2.5720215-1.4224854-.5281982-.1751709-1.0621338-.3651123-1.6086426-.4455566-.6816406-.1003418-.9152832-.3443604-.8383789-1.0916748.7227783-7.0273438.3481445-14.0559082-.036499-21.0842285-.1452637-2.6514893-.2399902-5.3056641-.3570557-7.9412842.4769287-.1710205.5965576.1914062.7741699.3885498,3.3480225,3.720459,7.4949951,5.9508057,12.4542236,6.6062012,3.1376953.4146729,6.2568359.2303467,9.2993164-.6873779,2.5412598-.7664795,8.8577881-8.9169922,8.9741211-9.4997559.1025391-.5136719.2141113-1.0369873.3293457-1.5762939-.0679932,1.0061035-.0571289,2.0031738-.0965576,2.9967041-.0410156,1.0283203-.0927734,2.0581055-.6335449,2.9875488-.149292.2570801-.2333984.550293-.1755371.8657227.1616211.8808594-.1938477,1.5891113-.7531738,2.2302246-.4831543.5537109-.8820801,1.1652832-1.1428223,1.8527832-.4072266,1.0742188-.4064941,2.1228027.4260254,3.0053711.8813477.934082,1.9885254,1.1113281,3.1950684.7788086.590332-.1628418,1.0966797-.4833984,1.5405273-.9003906.96875-.9099121,1.1306152-1.5297852.6337891-2.7519531-.2736816-.6730957-.6350098-1.310791-.9533691-1.9660645-.2059326-.4238281-.3532715-.887207-.6193848-1.2680664-.4702148-.6726074.6761475-1.7651367-.5974121-2.1967773-.2231445-.8374023-.2005615-1.6992188-.2275391-2.5522461-.0330811-1.0421143-.0080566-2.0838623.1082764-3.1343994.0415039.133667.0784912.2663574.1220703.3920898.2949219.8502197.5283203,1.7230225.8474121,2.5635986,2.0878906,5.4976807,5.918457,9.3216553,11.4082031,11.3223877,7.6179199,2.776123,14.84375,1.9455566,21.4595947-2.9091797,2.1035156-1.5437012,3.7176514-3.5446777,5.0009766-5.8132324.2318115-.409668.4825439-.8085938.7301025-1.2089844.0114746-.0185547.0788574-.0023193.2520752-.0023193-.006958.0688477.3328857-.4835205.5755615-.8579102-.0047607.1925049-.0081787.385376-.0158691.5775146-.0410156,1.0283203-.0927734,2.0581055-.6335449,2.9875488-.1491699.2570801-.2333984.550293-.1755371.8657227.1616211.8808594-.1938477,1.5891113-.7531738,2.2302246-.4831543.5537109-.8820801,1.1652832-1.1428223,1.8527832-.4072266,1.0742188-.4064941,2.1228027.4260254,3.0053711.8813477.934082,1.9885254,1.1113281,3.1950684.7788086.590332-.1628418,1.0966797-.4833984,1.5405273-.9003906.96875-.9099121,1.1306152-1.5297852.6337891-2.7519531-.2736816-.6730957-.6350098-1.310791-.9533691-1.9660645-.2058105-.4238281-.3532715-.887207-.6193848-1.2680664-.4702148-.6726074.6762695-1.7651367-.5974121-2.1967773-.2231445-.8374023-.2004395-1.6992188-.2275391-2.5522461-.0269775-.8500977-.0096436-1.7005615.0582275-2.5551758.2073975.2963867.2811279.6114502.4075928.8886719.079834.1751709.1726074.3417969.2556152.5151367.1783447.095459,2.604248,4.5219727,4.0152588,6.0307617,3.7740479,4.0354004,8.4262695,6.0786133,13.9589844,6.0985107,4.3378906.0155029,8.387207-1.1196289,12.2232666-3.085083,2.6291504-1.3469238,4.6472168-3.3404541,6.1627197-5.866333.7808838-1.3016357,1.4429932-2.6700439,2.1408691-4.1253662-.0516357.9243164-.0489502,1.8417969-.0852051,2.7556152-.0410156,1.0283203-.0927734,2.0581055-.6335449,2.9875488-.149292.2570801-.2333984.550293-.1755371.8657227.1616211.8808594-.1938477,1.5891113-.7531738,2.2302246-.4831543.5537109-.8820801,1.1652832-1.1428223,1.8527832-.4072266,1.0742188-.4064941,2.1228027.4260254,3.0053711.8813477.934082,1.9885254,1.1113281,3.1950684.7788086.590332-.1628418,1.0966797-.4833984,1.5405273-.9003906.96875-.9099121,1.1306152-1.5297852.6337891-2.7519531-.2736816-.6730957-.6350098-1.310791-.9533691-1.9660645-.2059326-.4238281-.3532715-.887207-.6193848-1.2680664-.4702148-.6726074.6761475-1.7651367-.5974121-2.1967773-.2231445-.8374023-.2005615-1.6992188-.2275391-2.5522461-.0367432-1.1538086.0030518-2.3077393.1544189-3.4731445.5621338.984375,1.7416992,3.0390625,2.0246582,3.4451904,2.6743164,3.8387451,6.4772949,5.6431885,11.0205078,6.0063477,4.2453613.3392334,8.2849121-.4573975,12.0318604-2.5404053,2.2508545-1.2513428,4.1021729-2.9415283,5.5289307-5.0964355.6348877-.9587402,1.199707-1.9714355,1.9921875-2.8265381.4040527.2159424.2333984.5531006.2321777.8145752-.0336914,6.5673828.204834,13.1279297.5965576,19.6809082.2072754,3.4676514.4786377,6.932251.6915283,10.4006348.0483398.793457-.1542969,1.3249512-.8631592,1.6699219-.2303467.1120605-.5272217.2067871-.6502686.4006348-.7625732,1.1981201-1.7019043.9375-2.8356934.5766602ZM155.9414693,190.1202694c-.8339844.9278564-2.9638672,1.8244629-4.3381348,1.7893066-.5688477.0325928-1.1835938-.1608887-1.8034668-.3134766-.3094482-.076416-.4035645-.2779541-.2591553-.5737305.0374756-.076416.0726318-.1542969.1114502-.2301025.8798828-1.7156982,4.1636963-3.074707,5.7399902-2.5645752,1.2050781.3901367,1.4147949.9296875.5493164,1.8925781ZM144.9042378,192.3924862c-.2857666.5108643-.7486572.8168945-1.2663574,1.0427246-1.1541748.5032959-2.3778076.6821289-3.4133301.7716064-1.1516113-.0908203-2.0987549-.1514893-2.9781494-.5267334-1.0024414-.4277344-1.097168-.9890137-.1779785-1.5168457,2.0577393-1.1818848,4.291748-1.6660156,6.6650391-1.3551025.2880859.0377197.5827637.1557617.8352051.3035889.5874023.3446045.6650391.6918945.3355713,1.2807617ZM132.3007222,193.5180966c-.0992432.44104-.4975586.5618896-.7871094.7623291-.8476562.5869141-1.7940674,1.0053711-2.6802979,1.5236816-.9041748.5288086-1.7729492.5512695-2.6948242.1445312-.546875-.2410889-1.090332-.489624-1.7492676-.7858887,1.9790039-1.6175537,5.0834961-1.9870605,7.911499-1.6446533ZM121.3537007,195.1415097c-2.3937988,2.0114746-6.1688232,2.1905518-8.4750977.4532471,3.3127441-1.7220459,5.9882812-1.9853516,8.4750977-.4532471ZM107.2778951,197.3988339c-2.0817871.9035645-4.1494141.8193359-6.4111328-.2706299,2.0447998-.9571533,3.9418945-1.7994385,6.1171875-1.6566162.6018066.0395508,1.4099121.0473633,1.532959.6687012.1442871.7269287-.6599121,1.0070801-1.2390137,1.2585449ZM97.0278951,197.5484921c-2.4359131,1.9577637-5.0546875,1.9584961-7.8693848,1.1474609,1.9366455-2.6557617,4.8103027-2.8388672,7.8693848-1.1474609ZM85.8919087,198.525787c-1.7354736.9849854-3.5803223,1.3400879-5.5388184,1.0739746-.6867676-.0935059-1.3132324-.3762207-1.7766113-.923584-.4493408-.5306396-.3723145-.9980469.2103271-1.3859863.0706787-.0471191.1434326-.1029053.2230225-.1230469,2.1750488-.5510254,4.927002-.8894043,6.8820801,1.3586426ZM73.9520894,197.9808652c-1.5960693,1.9885254-6.0012207,2.2358398-8.1920166.3986816,2.4802246-1.6762695,6.1871338-1.8283691,8.1920166-.3986816ZM61.9194966,197.7200009c-2.6181641,1.5043945-5.5339355,1.4874268-7.5048828-.1080322,3.447876-1.9125977,5.7679443-1.890625,7.5048828.1080322ZM50.5407124,196.7731015c-2.2713623,1.9915771-6.3103027,2.0128174-8.7576904.0581055,2.9345703-1.2194824,5.8010254-1.3356934,8.7576904-.0581055ZM38.7073384,196.4061581c-2.8005371,1.1784668-5.3054199.9733887-7.5744629-1.043457,2.1901855-1.8422852,5.3751221-1.4360352,7.5744629,1.043457ZM28.0402242,194.6527402c-2.4244385,1.3937988-4.6965332,1.0853271-6.9003906-.3605957-.2807617-.184082-.5352783-.4304199-.7471924-.6921387-.3554688-.4387207-.2702637-.7548828.2290039-1.0219727.111084-.0594482.2338867-.1230469.3553467-.1323242,2.5172119-.1928711,4.9732666-.1501465,6.8918457,1.8659668.0548096.0576172.0760498.1474609.1713867.3410645ZM38.6089498,154.9671933c-1.7546387,1.9967041-3.9240723,3.2446289-6.5461426,3.7785645-4.015625.8178711-7.994751.8430176-11.9387207-.3455811-2.0769043-.6259766-3.9633789-1.6134033-5.4985352-3.1856689-1.0543213-1.079834-1.8592529-2.3094482-2.3007812-3.8426514.1672363.0489502.2573242.046875.2924805.0897217,2.4857178,3.0390625,5.8071289,4.5900879,9.5703125,5.2937012,6.2868652,1.175293,12.0939941.123291,17.2346191-3.8618164.4008789-.3106689.8076172-.6141357,1.2114258-.9208984-.5068359,1.1413574-1.2329102,2.0936279-2.0246582,2.9946289ZM41.100649,154.199371c.3979492-.5422363.7076416-1.1574707,1.2885742-1.68396.0471191.7255859-.262085,1.2584229-.4836426,1.7976074-2.1816406,5.3051758-5.96875,8.6490479-11.7958984,9.1994629-5.0895996.4807129-9.6350098-1.1070557-13.6743164-4.192627-.6871338-.5250244-1.2387695-1.1721191-1.550293-2.0396729,2.4150391,1.5163574,5.0322266,2.3991699,7.805542,2.8413086,3.6436768.5806885,7.2642822.4361572,10.8374023-.4892578,3.2144775-.8325195,5.6375732-2.7963867,7.5726318-5.4328613ZM44.6922017,161.5224911c.5892334,1.2219238.9781494,2.2062988,1.0905762,3.2814941.0565186.5395508-.012207,1.0065918-.581543,1.2888184-.5236816.2597656-.9855957.190918-1.4414062-.1218262-.4730225-.324707-.4483643-.810791-.3413086-1.2712402.2403564-1.0341797.7198486-1.9743652,1.2736816-3.1772461ZM79.9016744,156.9090878c-3.4284668,2.9057617-7.2651367,5.0385742-11.7492676,5.706665-7.7568359,1.1557617-14.3343506-.8907471-19.1435547-7.418335-.8145752-1.1057129-1.5388184-2.2680664-2.1533203-3.4963379-.1647949-.3295898-.3977051-.6428223-.395752-1.0668945.4000244.1289062.4986572.4782715.6593018.7521973,2.5919189,4.4221191,6.5913086,6.8956299,11.4423828,8.0401611,7.3062744,1.7237549,14.28479.7589111,20.8668213-2.8994141.3728027-.2072754.7553711-.3970947,1.1364746-.5892334.0227051-.0113525.0720215.0300293.1687012.0739746-.1853027.390625-.5245361.6369629-.8317871.8972168ZM82.7590962,155.8944394c-.0601807.65271-.3536377.9890137-.5585938,1.3504639-4.0495605,7.1364746-10.3693848,10.3544922-18.3825684,10.4232178-5.0955811.043457-9.2897949-2.0987549-12.6318359-5.9152832-2.2719727-2.5946045-3.6772461-5.6352539-4.6409912-9.1577148.5473633.4765625.7000732.887207.9118652,1.2553711,3.8619385,6.7174072,9.7490234,9.9255371,17.4116211,9.892334,5.3758545-.0231934,10.2921143-1.6112061,14.6715088-4.7808838,1.1535645-.8348389,2.0742188-1.9122314,3.2189941-3.0675049ZM85.873354,162.5370175c.5891113,1.2219238.9780273,2.2062988,1.0905762,3.2814941.0563965.5395508-.012207,1.0065918-.581543,1.2888184-.5236816.2597656-.9855957.190918-1.4414062-.1218262-.4731445-.324707-.4484863-.810791-.3413086-1.2712402.2402344-1.0341797.7197266-1.9743652,1.2736816-3.1772461ZM105.4480611,163.5787655c6.8625488.098877,12.4799805-2.798584,17.3797607-7.8232422-.2012939.9794922-.5706787,1.6044922-.9772949,2.1745605-4.1981201,5.8869629-9.8150635,9.2169189-17.1480713,9.2443848-4.8823242.0183105-9.0024414-1.8342285-12.2756348-5.4882812-1.463623-1.633667-2.7468262-3.3970947-3.7145996-5.3742676-.144165-.2944336-.361084-.574707-.2976074-1.1936035,4.425293,5.6539307,10.1337891,8.361084,17.0334473,8.4604492ZM90.3799458,155.4968564c10.4230957,5.6356201,20.7641602,6.5024414,31.1325684-.4790039-7.4713135,10.1207275-24.2590332,9.7935791-31.1325684.4790039ZM126.7937642,166.5602109c.0565186.5395508-.012207,1.0065918-.581543,1.2888184-.5236816.2597656-.9855957.190918-1.4414062-.1218262-.4730225-.324707-.4483643-.810791-.3413086-1.2712402.2403564-1.0341797.7198486-1.9743652,1.2736816-3.1772461.5892334,1.2219238.9781494,2.2062988,1.0905762,3.2814941ZM138.8569966,159.7066952c6.5980225.7297363,12.1276855-1.5009766,16.6606445-6.2988281.3779297-.3999023.7436523-.8110352,1.1149902-1.217041-.4765625,2.1982422-1.6148682,4.00354-3.1589355,5.5080566-4.7858887,4.6633301-10.470459,6.3991699-16.9975586,4.7841797-3.9833984-.9855957-6.7010498-3.6706543-8.6347656-7.197998-.329834-.6013184-.5297852-1.2592773-.4038086-1.9978027.4619141.0769043.5880127.4835205.8112793.758667,2.7423096,3.3795166,6.3496094,5.1895752,10.6081543,5.6607666ZM129.0903951,152.8600155c4.6035156,2.9936523,9.6328125,3.3835449,14.8178711,2.4089355,5.1999512-.9771729,9.7363281-3.2581787,13.2937012-7.6265869.0236816.4116211.0621338.5128174.027832.5684814-2.7294922,4.4055176-6.1263428,8.0825195-11.1831055,9.8005371-5.8034668,1.9719238-10.9785156.7224121-15.5407715-3.2856445-.5770264-.5068359-1.0612793-1.0986328-1.4155273-1.8657227ZM7.093813,175.4283749c-.5583496-1.2722168-.5505371-1.5385742.0114746-3.0819092.2004395,1.0524902.1723633,1.9295654-.0114746,3.0819092ZM5.7949849,154.8047177c-.6882324-.6199951-1.1967773-1.9146729-1.1879883-3.0787354-.0234375-.5175781.0957031-1.0635986.3980713-1.5422363.4498291-.7121582,1.0333252-1.3115234,1.9532471-1.2189941.9736328.0981445,1.8288574.4705811,2.2216797,1.4825439.2971191.7653809.3273926,1.588623.5096436,2.3791504.0682373.2955322-.0822754.4945068-.3093262.6442871-.6107178.4029541-1.1234131.918335-1.6656494,1.4029541-.6706543.5991211-1.2241211.5578613-1.9196777-.0689697ZM9.0316792,172.2186581c-.8487549-1.3779297-.5181885-2.6212158-.4561768-3.8330078.4572754,1.1503906.8095703,2.3129883.4561768,3.8330078ZM10.5706197,169.2440487c-.4396973-.9589844-.6398926-1.9958496-.8895264-3.0158691-.5405273-2.2089844-.8173828-4.4533691-.8721924-6.7246094-.0153809-.644043.0087891-1.291748.5068359-1.7974854.1513672-.1538086.3206787-.3256836.5476074-.2674561.2392578.0614014.2700195.3123779.2890625.5166016.0957031,1.0214844.1950684,2.0429688.258667,3.0666504.151001,2.4315186.2844238,4.8642578.4199219,7.296875.0164795.2939453.0023193.5898438.0023193.8847656-.0874023.0136719-.1750488.0270996-.2626953.0405273ZM10.9205953,188.95108c1.4244385.267334,2.8450928.550293,4.2059326,1.0695801.5198975.1984863,1.0361328.409668,1.4577637.78125.6533203.5759277.5856934.9990234-.2199707,1.2785645-.6463623.2243652-1.317627.3588867-2.012207.3343506-1.4108887-.005249-2.6693115-.4888916-3.8289795-1.2567139-.3995361-.2646484-.706665-.6125488-.7679443-1.1239014-.1040039-.8651123.2954102-1.24646,1.1654053-1.0831299ZM112.8966695,245.7772519c.5950928,2.7368164-.4490967,4.7137451-2.9542236,5.557373-2.2380371.7536621-4.5621338,1.1765137-6.8901367,1.5471191-5.2633057.8376465-10.5598145,1.1806641-15.890625,1.0797119-5.3693848-.1015625-10.6915283-.6898193-16.0014648-1.4277344-2.3760986-.3303223-4.7606201-.6534424-7.0454102-1.4196777-2.6945801-.9034424-2.3532715-.6031494-2.75354-3.319458-.036499-.2473145-.1217041-.5046387.0318604-.7597656.359375-.1843262.645752.0627441.9492188.1812744,4.7543945,1.8560791,9.7086182,2.7694092,14.7774658,3.1517334,7.3825684.5568848,14.7449951.1743164,22.0897217-.5704346,3.8012695-.385376,7.5463867-1.1254883,11.0637207-2.7178955.8532715-.3862305,1.6794434-.8317871,2.6234131-1.3022461ZM92.6636373,205.4189755c-1.9538574,4.1245117-2.5673828,8.5230713-2.527832,13.0206299.0356445,4.0751953.2519531,8.1550293,1.222168,12.1335449,1.0800781,4.4293213,3.2011719,8.2995605,6.5617676,11.4398193,1.0443115.975708,2.2150879,1.7647705,3.5366211,2.3060303.5512695.2258301,1.1411133.3618164,1.7200928.5134277.2459717.0644531.55896.1020508.7161865-.1273193.2302246-.3353271-.0961914-.5509033-.2949219-.7458496-.5529785-.5427246-1.1943359-.9759521-1.845459-1.3920898-1.352417-.8643799-2.5042725-1.9432373-3.4608154-3.2307129-.1217041-.1636963-.3183594-.3005371-.2092285-.6480713,1.7758789.0771484,3.5275879.4343262,5.2735596.8195801,2.1872559.4831543,4.2915039,1.2023926,6.2392578,2.3255615.8518066.4910889,1.8435059.9718018,1.8139648,2.1300049-.0294189,1.1398926-1.0180664,1.6208496-1.8764648,2.098877-1.8996582,1.0574951-4.0023193,1.5115967-6.1062012,1.9190674-3.1630859.6126709-6.3670654.8978271-9.5822754,1.0457764-2.3137207.1064453-4.62854.2270508-6.9436035.2451172-1.4975586.0117188-2.9968262-.1424561-4.4945068-.2358398-5.2205811-.3256836-10.4490967-.5820312-15.5723877-1.7686768-1.3813477-.3200684-2.7333984-.7283936-4.0080566-1.3572998-.5317383-.2624512-1.0777588-.520874-1.5371094-1.0968018,4.2648926-4.6998291,10.0322266-5.8800049,15.8557129-7.0167236-1.1787109,1.717041-2.3203125,3.4135742-4.0412598,4.6103516-1.0551758.7340088-2.1660156,1.3991699-3.0877686,2.3076172-.3505859.3455811-.9586182.7280273-.6727295,1.2512207.3049316.5583496.9355469.2050781,1.390625.0361328,3.6396484-1.3520508,6.6230469-3.545166,8.7687988-6.8320312,2.0192871-3.0928955,2.9785156-6.5244141,3.3829346-10.1499023.6014404-5.3936768.5931396-10.7856445-.0076904-16.1783447-.229248-2.0585938-.902832-4.0081787-1.4431152-5.9918213-.5449219-2.0007324-.7010498-1.7646484,1.3037109-1.8132324,2.9161377-.0710449,5.8321533-.1447754,8.7485352-.2023926.4143066-.0083008.8449707-.1065674,1.234375.0800781.1096191.1983643.0134277.3557129-.0568848.5042725ZM168.2042867,190.6369931c-1.5299072,1.1326904-3.2611084,1.8948975-5.0487061,2.5084229-5.7636719,1.9782715-11.642334,3.5273438-17.6281738,4.6734619-4.8880615.9359131-9.8067627,1.644165-14.7624512,2.1010742-.5535889.0511475-1.1303711.0909424-1.6462402.2752686-3.0366211,1.0848389-6.2342529,1.116333-9.3798828,1.4509277-4.3060303.4581299-8.6202393.8491211-12.9365234,1.201416-4.0178223.3276367-8.0404053.6152344-12.0655518.8339844-6.7279053.3656006-13.46521.5021973-20.1982422.2706299-8.572998-.2947998-17.1469727-.5804443-25.7081299-1.1776123-7.7054443-.5375977-15.3773193-1.3239746-22.9914551-2.6350098-5.9597168-1.0262451-11.8309326-2.4459229-17.6691895-4.0075684-1.0349121-.2768555-2.0427246-.6439209-3.0112305-1.1101074-.5820312-.2802734-1.1472168-.5880127-1.6132812-1.0419922-.8271484-.8059082-.9118652-1.5585938-.2973633-2.5366211.0908203-.1445312.1982422-.2797852.307373-.4116211.9106445-1.1016846,3.2404785-2.6271973,4.8201904-3.1368408.0040283.6053467-.3186035,1.0726318-.5767822,1.5333252-.3182373.5679932-.2484131.9991455.1451416,1.5046387,1.9698486,2.5307617,4.5806885,3.4941406,7.7071533,3.2016602.7628174-.0712891,1.59375-.5001221,2.2519531-.2996826.6567383.1998291,1.1398926.979126,1.6921387,1.5117188,1.9986572,1.927124,4.385498,2.5181885,7.0056152,1.7686768,1.628418-.4658203,2.9448242-.4770508,4.5216064.4567871,2.5239258,1.494873,5.3665771,1.7149658,8.1829834.6228027.7020264-.2722168,1.2531738-.2242432,1.9095459.1589355,3.3197021,1.9377441,6.7928467,2.2312012,10.368042.769165.6968994-.2849121,1.2307129-.2670898,1.8920898.164917,2.2993164,1.5019531,4.8374023,1.5898438,7.4345703,1.0186768.9606934-.2113037,1.8917236-.6791992,2.8530273-.7333984.9440918-.0532227,1.6179199.8504639,2.4936523,1.1934814,1.9182129.7513428,3.8457031.7615967,5.8112793.3051758,1.1291504-.2623291,2.2313232-.6201172,3.295166-1.0744629.5584717-.2385254,1.0578613-.2973633,1.5668945.0705566.0678711.0488281.1594238.0633545.2353516.1026611,2.7565918,1.4232178,5.5898438,1.5643311,8.4467773.3864746,1.088623-.4488525,2.0579834-.4592285,3.1976318-.1119385,3.3150635,1.0101318,6.5460205.6375732,9.5438232-1.1247559.7543945-.4433594,1.3544922-.4837646,2.1433105-.1784668,3.3908691,1.3122559,6.6452637,1.0026855,9.6901855-1.0166016.5651855-.3748779,1.0183105-.3913574,1.6481934-.1243896,2.8154297,1.1936035,5.6907959,1.5473633,8.6289062.3991699.8054199-.3146973,1.6135254-.6636963,2.2329102-1.248291.6634521-.6263428,1.2160645-.5328369,1.9334717-.145874.8682861.4682617,1.8294678.7073975,2.8067627.8884277,2.5769043.4775391,4.7714844-.2497559,6.529541-2.1456299.5633545-.607666,1.0310059-.6970215,1.7558594-.4276123.7996826.2973633,1.6376953.5007324,2.4694824.701416,3.2043457.7719727,6.0490723.0317383,8.4667969-2.1799316.657959-.6018066,1.239624-.7207031,2.0733643-.5019531,1.2878418.3378906,2.6170654.4714355,3.9552002.2915039,2.3843994-.3209229,4.2728271-1.4997559,5.6743164-3.4199219.46875-.6425781.9086914-.7766113,1.6975098-.6655273,2.4573975.345459,4.7988281.0056152,6.7443848-1.7207031.3647461-.3234863.6486816-.3432617.9975586-.0367432.1280518.1126709.2805176.1976318.4136963.3052979,1.1898193.9621582,1.2069092,1.6416016-.0102539,2.5426025ZM62.1569234,101.5030819c1.1719971.911499,2.5499268,1.1628418,3.9929199,1.2492676.7994385-.0883789,1.5992432-.1998291,2.3916016-.4133301.989624-.2666016,1.6220703-.9312744,2.1358643-1.7402344.4069824-.6408691.2817383-1.6433105-.2214355-2.2792969-.5095215-.6437988-1.1694336-.6367188-1.8649902-.4160156-.2834473.0900879-.6026611.1728516-.8155518.3608398-.8444824.7456055-1.6293945.7105713-2.4779053-.0064697-.2799072-.2364502-.6900635-.3326416-1.0537109-.4532471-.8747559-.2900391-1.7019043-.092041-2.46875.3479004-.8520508.4887695-1.0758057,1.3278809-.6345215,2.2060547.2368164.4709473.6071777.8259277,1.0164795,1.1445312ZM62.8633443,99.3998105c.2939453-.5708008.8190918-.5184326,1.340332-.2758789.3491211.1625977.7053223.3105469,1.0605469.4597168.904541.3793945,1.7960205.6062012,2.5969238-.2276611.0568848-.0593262.1442871-.0915527.2207031-.1293945.6657715-.3297119,1.2301025-.2872314,1.34375.1435547.1557617.5914307-.2192383.9666748-.6712646,1.256958-.4885254.3137207-2.0074463.614502-2.9967041.6210938-.8260498.00354-1.6337891-.0986328-2.3334961-.5743408-.4365234-.296875-.8598633-.6934814-.560791-1.2740479ZM48.5405904,55.2760312c2.0458984,1.2026367,2.6177979,1.5119629,4.4067383-1.0046387.458252-.6445312.7214355-1.3674316.5732422-2.1811523-.166748-.9152832-.7508545-1.3968506-1.6505127-1.1483154-.96521.2666016-1.8439941.2302246-2.74646-.1646729-.2677002-.1171875-.5847168-.1217041-.8934326-.180542-.7862549.0440674-1.5540771.185791-1.9957275.9329834-.4179688.7072754-.0029297,1.3305664.3557129,1.9108887.4821777.7799072,1.1662598,1.3745117,1.9504395,1.8354492ZM47.6089498,51.7434384c.2025146-.2459717.4691162-.1153564.7097168-.0516357.4677734.1240234.8361816.3837891,1.1713867.7441406.659668.7087402.6791992.6906738,1.3297119.0217285.0893555-.092041.1673584-.1982422.2670898-.2768555.2409668-.1899414.4962158-.3447266.8210449-.1914062.3198242.1507568.3935547.4260254.3789062.8327637-.0118408.7924805-.3463135,1.5136719-1.135498,1.9365234-.7650146.4099121-1.4105225.0325928-1.9969482-.4417725-.6043701-.4888916-1.0963135-1.085083-1.5170898-1.7364502-.1706543-.263916-.2526855-.5644531-.0283203-.8370361ZM85.3137837,52.4868466c-.965332.2666016-1.8439941.2302246-2.746582-.1646729-.2675781-.1171875-.5847168-.1217041-.8933105-.180542-.786377.0440674-1.5541992.185791-1.9958496.9329834-.4179688.7072754-.0029297,1.3305664.3557129,1.9108887.4821777.7799072,1.1662598,1.3745117,1.9504395,1.8354492,2.0458984,1.2026367,2.6179199,1.5119629,4.4067383-1.0046387.458252-.6445312.7214355-1.3674316.5732422-2.1811523-.166748-.9152832-.7507324-1.3968506-1.6503906-1.1483154ZM84.5950337,56.3036191c-.7651367.4099121-1.4106445.0325928-1.9970703-.4417725-.604248-.4888916-1.0961914-1.085083-1.5170898-1.7364502-.1706543-.263916-.2526855-.5644531-.0283203-.8370361.2026367-.2459717.4692383-.1153564.7097168-.0516357.4677734.1240234.8361816.3837891,1.1713867.7441406.659668.7087402.6791992.6906738,1.329834.0217285.0893555-.092041.1672363-.1982422.2670898-.2768555.2409668-.1899414.4960938-.3447266.8210449-.1914062.3198242.1507568.3935547.4260254.3789062.8327637-.0119629.7924805-.3464355,1.5136719-1.135498,1.9365234ZM118.3916646,48.1498105c-.965332.2666016-1.8439941.2302246-2.746582-.1645508-.2675781-.1171875-.5847168-.1218262-.8933105-.1806641-.786377.0441895-1.5541992.185791-1.9958496.9331055-.4179688.7072754-.0029297,1.3305664.3557129,1.9108887.4821777.7797852,1.1662598,1.3745117,1.9504395,1.8354492,2.0458984,1.2026367,2.6179199,1.5119629,4.4067383-1.0046387.458252-.6445312.7214355-1.3674316.5732422-2.1811523-.166748-.9152832-.7507324-1.3969727-1.6503906-1.1484375ZM117.6729146,51.966705c-.7651367.4099121-1.4106445.0324707-1.9970703-.4418945-.604248-.4887695-1.0961914-1.0849609-1.5170898-1.7363281-.1706543-.263916-.2526855-.5644531-.0283203-.8371582.2026367-.2458496.4692383-.1152344.7097168-.0515137.4677734.1240234.8361816.3837891,1.1713867.7441406.659668.7087402.6791992.6906738,1.329834.0217285.0893555-.092041.1672363-.1982422.2670898-.2768555.2409668-.1899414.4960938-.3447266.8210449-.1914062.3198242.1506348.3935547.4260254.3789062.8327637-.0119629.7924805-.3464355,1.5136719-1.135498,1.9365234ZM59.4653951,12.8316952c2.0458984,1.2026367,2.6179199,1.5119629,4.4067383-1.0046387.458252-.6445312.7214355-1.3674316.5732422-2.1811523-.166748-.9152832-.7507324-1.3967285-1.6503906-1.1481934-.965332.2666016-1.8439941.2302246-2.746582-.1647949-.2675781-.1171875-.5847168-.121582-.8933105-.1804199-.786377.0439453-1.5541992.185791-1.9958496.9328613-.4179688.7072754-.0029297,1.3305664.3557129,1.9108887.4821777.7800293,1.1662598,1.3745117,1.9504395,1.8354492ZM58.5337544,9.2992245c.2026367-.2460938.4692383-.1154785.7097168-.0517578.4677734.1240234.8361816.3837891,1.1713867.7441406.659668.7087402.6791992.6906738,1.329834.0217285.0893555-.092041.1672363-.1982422.2670898-.2768555.2409668-.1899414.4960938-.3447266.8210449-.1914062.3198242.1508789.3935547.4260254.3789062.8327637-.0119629.7924805-.3464355,1.5136719-1.135498,1.9365234-.7651367.4099121-1.4106445.0327148-1.9970703-.4416504-.604248-.4890137-1.0961914-1.0852051-1.5170898-1.7365723-.1706543-.263916-.2526855-.5644531-.0283203-.8369141ZM80.8562642,14.3766171c2.0458984,1.2026367,2.6176758,1.5119629,4.4067383-1.0046387.458252-.6445312.7214355-1.3674316.5732422-2.1811523-.166748-.9152832-.7509766-1.3967285-1.6506348-1.1481934-.9650879.2666016-1.8439941.2302246-2.7463379-.1647949-.2678223-.1171875-.5847168-.121582-.8935547-.1804199-.7861328.0439453-1.5539551.185791-1.9956055.9328613-.4179688.7072754-.0029297,1.3305664.3557129,1.9108887.4821777.7800293,1.1662598,1.3745117,1.9504395,1.8354492ZM79.9246236,10.8441464c.2023926-.2460938.4689941-.1154785.7097168-.0517578.4677734.1240234.8361816.3837891,1.1713867.7441406.659668.7087402.6791992.6906738,1.3295898.0217285.0893555-.092041.1674805-.1982422.2670898-.2768555.2409668-.1899414.4963379-.3447266.8210449-.1914062.3198242.1508789.3935547.4260254.3789062.8327637-.0117188.7924805-.3461914,1.5136719-1.135498,1.9365234-.7648926.4099121-1.4104004.0327148-1.9968262-.4416504-.6044922-.4890137-1.0964355-1.0852051-1.5170898-1.7365723-.1706543-.263916-.2526855-.5644531-.0283203-.8369141ZM101.3390523,12.5875546c2.0458984,1.2026367,2.6177979,1.5119629,4.4067383-1.0046387.458252-.6445312.7214355-1.3674316.5732422-2.1811523-.166748-.9152832-.7508545-1.3967285-1.6505127-1.1481934-.96521.2666016-1.8439941.2302246-2.74646-.1647949-.2677002-.1171875-.5847168-.121582-.8934326-.1804199-.7862549.0439453-1.5540771.185791-1.9957275.9328613-.4179688.7072754-.0029297,1.3305664.3557129,1.9108887.4821777.7800293,1.1662598,1.3745117,1.9504395,1.8354492ZM100.4074117,9.0550839c.2025146-.2460938.4691162-.1154785.7097168-.0517578.4677734.1240234.8361816.3837891,1.1713867.7441406.659668.7087402.6791992.6906738,1.3297119.0217285.0893555-.092041.1673584-.1982422.2670898-.2768555.2409668-.1899414.4962158-.3447266.8210449-.1914062.3198242.1508789.3935547.4260254.3789062.8327637-.0118408.7924805-.3463135,1.5136719-1.135498,1.9365234-.7650146.4099121-1.4105225.0327148-1.9969482-.4416504-.6043701-.4890137-1.0963135-1.0852051-1.5170898-1.7365723-.1706543-.263916-.2526855-.5644531-.0283203-.8369141ZM98.9519673,101.3467099c2.1062012.7583008,4.1962891.642334,6.2385254-.2803955.4748535-.2145996.8925781-.5097656,1.217041-.9199219.7823486-.9885254.5684814-2.4486084-.4790039-3.3199463-1.0582275-.8800049-2.2734375-.7689209-3.15625.3033447-.2424316.2946777-.4454346.6220703-.7427979,1.0419922-.1534424-.3278809-.22229-.5341797-.3372803-.7102051-.5424805-.8303223-1.7709961-1.2523193-2.7001953-.940918-1.5046387.5042725-2.1351318,1.2958984-2.0311279,2.5571289.1029053,1.2463379.9388428,1.8901367,1.9910889,2.2689209ZM99.8152486,97.8707577c.7711182.324707,1.6628418.3569336,2.3272705.9367676.258667.2258301.4591064.168457.6381836-.0695801.1793213-.2382812.3063965-.5212402.5084229-.7355957.5019531-.5332031,1.2512207-.5267334,1.6967773-.0167236.3613281.4133301.2510986.9449463-.3479004,1.4239502-.949707.7592773-2.1010742.901123-3.288208,1.0097656-.6165771-.0219727-1.2515869-.0898438-1.8406982-.3824463-.5515137-.2738037-.859375-.715332-.807373-1.3355713.0562744-.6748047.4859619-1.0948486,1.1135254-.8305664Z"/>
  </g>
</svg>