<?xml version="1.0" encoding="UTF-8"?>
<svg id="Layer_2" xmlns="http://www.w3.org/2000/svg" viewBox="0 0 187.1631301 279.1296421">
  <g id="Layer_1-2" data-name="Layer_1">
    <path d="M187.1393601,228.0426725c-.1994736-1.0433721-1.3504937-1.0305677-2.2175315-1.12532-2.8536336-.3113288-5.7083647-.6824722-8.5721504-.7995406-1.1940062-.0488395-1.489238-.3323645-1.5183222-1.4770739-.1185318-4.6677364-.3416019-9.3325462-.5147351-13.9990022-.3748932-10.108673-1.2311388-20.2047247-.8485629-30.3333359.1377383-3.6464976.5550688-7.2787275.3452603-10.9418708-.4375431-7.6376153-3.8785308-11.8776863-11.2903322-13.7716334-2.4437113-.6244867-4.9399205-1.0126416-7.44555-1.1114181-1.4460691-.0570708-1.7911465-.5524165-1.7877624-1.8990689.0257916-10.4179897-.0355778-20.8352477.2197776-31.2532374.1613349-6.5775976.7819803-13.1500734.2034978-19.7428532-.4518108-5.1502777-2.4695029-7.6954178-7.4796644-8.9802435-1.2123896-.3109629-2.4645641-.689606-3.6919531-.6680215-1.9564141.0343888-2.2819191-.8249664-2.2582311-2.5886749.1471586-10.955041.1361835-21.912277.271178-32.8673179.0359437-2.9148201-1.3844252-4.7098079-3.780669-5.9810975-2.6120886-1.3857971-5.4217301-2.2019834-8.2981371-2.7964713-2.1808562-.4508962-4.3763459-.8311856-6.9003588-1.3060443,1.8252609-1.1441606,3.4633953-1.9522984,4.6175251-3.334803.8802995-1.0545302,1.8297424-1.1865979,3.1380732-1.014105,4.0747118.5368683,7.6527976-.7410064,10.8080652-3.3284008.7914006-.648815.8591723-1.1236737-.0038413-1.7975486-1.0019408-.7821632-2.1320167-1.3133611-3.3115722-1.9402257.5144607-.4874801,1.0099893-.9133164,1.4525627-1.3885409.4437624-.476322,1.0190438-.9972764.7647859-1.7046256-.2640441-.7344213-1.0400795-.6822892-1.6941077-.7298483-1.4476239-.1053616-2.8637856.1348116-4.2783926.3907158-.6447908.1167026-1.2325107.1362749-1.253455-.7638713-.0331084-1.4170763-1.3891811-2.3731959-1.5492356-3.4902845-.1776147-1.2401933,1.6713343-1.9768096,2.2258543-3.250843.6011645-1.3814071.2887382-2.1383274-1.1920855-2.5462376-1.7307831-.476505-3.5420506-.4851022-5.1082063.2696231-2.37283,1.1428802-4.4331423.608024-6.5998223-.5553432,1.7316977-2.5442255,3.481047-5.0591839,4.117515-8.1148519.3836734-1.8418151-.1231047-2.4267913-1.9943699-2.3969754-2.5826386.0411569-5.0504952.7914921-7.7134354,1.345372.6313462-3.1688951-.4738526-6.1299939-.4975407-9.1668212-.0092374-1.1734277-.5797629-1.3539692-1.4813725-.8695987-3.3127612,1.7798055-7.0061776,3.1538957-9.4409259,6.0668867-1.5539915,1.8591925-2.8079038,2.241311-4.824041,1.2780576-.8773727-.4192512-2.1974104-.0214016-2.7092188-1.073005-1.2809843-2.6322097-4.0235859-4.3282381-4.6476153-7.370553-.0995081-.4847363-.4979065-.8388682-1.0160256-.9061826-.6758871-.0878013-.7189646.5293687-.8872504.9361813-.4108369.993618-.7724685,2.007723-1.1518433,3.0145112-.3780029,1.0033127-.5000101,2.5659929-1.1900734,2.8791509-1.0058736.4567497-1.7227346-1.1090401-2.7092188-1.5868255-.7883825-.3817527-1.5560036-1.2220843-2.4438028-.6832038-.9678264.5871712-.6750639,1.7335269-.5403438,2.645197.3190114,2.1582656,1.1837627,4.126478,2.3640499,5.9584155.2773058.4304093.7515242.8540505.0464615,1.3486645-2.0090949,1.4092108-3.5626291,3.2753542-5.0386055,5.4466071-1.2093714-2.3111862-2.6012049-4.0443472-4.8463572-4.9406521-2.2040869-.8798422-4.4847256-1.5465833-6.3278212-3.2422458-1.1021807-1.0139221-1.9788217-.4633348-2.0738483,1.0472134-.1314276,2.089305-.2190459,4.1826343-.4041603,6.2671834-.2670623,3.0071944.9353582,5.3472819,3.1281956,7.2809225.4404698.3885207.8691414.7902117,1.5108225,1.3750049-1.9148914.6528392-3.4552554,1.4386608-4.9602245,2.3062474-1.5667044.9030729-3.0153343,1.9632736-4.2624786,3.2641961-.575007.5999755-1.049317.5816836-1.7142289.2101744-1.3669564-.7638713-2.8758583-.768993-4.3714985-.5924758-1.1053817.1304215-2.0526297.5714401-1.5830757,1.9612615.2803239.8300881-.2976098.9017925-.7642371,1.1088572-1.4749703.6554001-2.9614646,1.2851915-4.431679,1.9506521-.4670846.2112719-1.1903478.2776716-1.1813847.9264866.0085972.6164383.6593329.7929555,1.1713242.9418518,1.2938802.3764481,2.3463982,1.1754399,3.4328478,1.9129708,1.2904047.8760009,2.5775168,1.9579689,4.0889796,2.1763746,2.5778827.3722409,3.8177101,1.9634565,4.8758987,4.0710535.4981809.9921547.7149404,1.4523798-.6275964,1.5650581-.5287284.0442665-1.0497743.233588-1.5636862.3916304-5.0740004,1.5604851-7.0455053,4.1116616-7.1203193,9.4289447-.0369497,2.631478.1025263,5.2658828.1875838,7.8982754.2610259,8.0771705.8910002,16.13861,1.0043188,24.2243778.0239624,1.7132228-.4637921,2.3913049-2.1672287,2.6038572-2.6116313.3255965-5.1604298,1.0173975-7.5887758,2.0796103-4.437441,1.9413233-7.3909485,5.0151003-7.6990762,10.1024538-.0867038,1.4322587-.2579163,2.8670782-.2301126,4.2975076.1500853,7.722124.3461749,15.4431506.5349477,23.164543.1785293,7.304702.1435917,14.6079407-.0674972,21.9119111-.0307305,1.0627615-.2636783,1.5019509-1.458599,1.6925529-4.1441297.6608877-8.1440276,1.9076661-12.0160648,3.5310755-3.4201349,1.4339049-5.5620292,4.054042-6.7306096,7.5093888-.775944,2.2941747-1.0149281,4.6615172-.8593552,7.08026.6036339,9.3793735,1.3311042,18.7554545,1.0427319,28.1672048-.2108146,6.8836217-.3764481,13.7692554-.1940774,20.6534259.0399679,1.5076214-.398124,2.0600379-1.8345898,2.3439288-3.4591882.6833868-6.8948712,1.501768-10.2360764,2.6521479-.5889089.2028576-1.4779885.2988902-1.4962804,1.0795901-.0197553.8454533.8899027.8090524,1.4813725.9952643,2.5081904.7891142,5.0402517,1.5057922,7.5326196,2.3413679,11.0279343,3.6971663,22.2900969,6.4515661,33.8076149,8.023941,15.1878866,2.073391,30.4470203,3.4180313,45.7839862,3.7053976.9788015.0184749,1.5349679.3601682,1.9624504,1.2043411.9281329,1.8323033,1.5200599,3.7717974,1.9179096,5.769094,1.7929756,9.0014621-1.6478291,15.1329193-10.2529964,18.3497393-2.4224927.9054509-4.9240065,1.4743301-7.4809449,1.8070604-.612414.0795699-1.3194889.0759115-1.3722611.839417-.0525893.7609446.6743323.8725254,1.2465955,1.0302019,2.0744886.5718059,4.1379105,1.1889759,6.2276728,1.6978576,8.9231726,2.1734479,17.8654603,4.1171491,27.1307836,2.2371039,4.1022412-.832649,8.2307314-1.547132,12.1897467-2.9557941.5334843-.1896874,1.270375-.367485,1.1901649-1.1392218-.0760945-.7322262-.7821632-.8105157-1.3607372-.9407543-.408276-.0918255-.8234115-.163347-1.2392787-.2092598-4.6853882-.5187593-8.6605919-2.6307464-12.2209344-5.5753823-2.3645987-1.9557739-3.980234-4.4500624-4.6666389-7.4815851-1.15916-5.1193644.2542579-9.822953,2.3305757-14.4266677.3582476-.7942359.9906913-.7261899,1.6417928-.744116,13.1184283-.360717,26.1639633-1.5484125,39.1315746-3.5488187,9.5127217-1.4675621,19.0586434-2.8116536,28.1969291-6.0315832,4.2326627-1.4913416,8.3760608-3.2040157,12.3007788-5.3930117.7348786-.4097394,1.8619362-.8278931,1.6602676-1.8818745ZM171.5046929,224.4067842c.011341,1.914617-.0112495,1.9272385-1.7605989,1.102455-3.0438697-1.4348195-6.1542307-1.7509042-9.4223596-.8081378-4.532559,1.3078735-8.875705,2.9289049-12.0978297,6.6022917-.5360452.6113165-.8959391.5487581-1.4446057.0321938-6.4572366-6.082069-16.7287079-5.2466762-23.3375847,1.2701921-.5882687.5798544-.9466992,1.2195234-1.9626334.2893784-6.5043384-5.9540254-15.4612596-6.3549847-22.5001798-1.0334944-.9515466.719239-1.4085706.7455793-2.2940833-.1123125-7.6834366-7.4433549-21.4458326-7.3123847-28.990159.2998048-1.0301104,1.0393479-1.4968292.9685581-2.4491074-.0085972-3.295201-3.3818133-7.1592812-5.7433023-11.9774688-6.2946213-4.1492515-.4748587-7.9546146.6310718-11.5621503,2.5034345-1.0745598.5579041-1.712857.5048575-2.6615683-.2533433-5.571541-4.4535379-11.7664713-6.5241851-18.9102043-4.6038976-.1155136.0310963-.2314845.0616438-.3489187.0834112-.9288646.1719442-2.0090034,1.2529977-2.6033999.7483231-.7549997-.6409495-.2631295-2.0111985-.2355087-3.0578631.2477643-9.3877878.810973-18.7673443.6282366-28.1651926.1922483-.0120727.3633693-.0695094.4057152-.0188407,6.2727624,7.4889019,14.7049795,9.2952306,23.8954887,9.0572525,6.4989422-.1682858,12.0257595-2.7683017,16.9773868-6.8393552,2.6333072-2.1650336,5.3429833-4.244461,8.3452389-5.893662,1.2063532-.662534,2.4759051-1.1776349,3.7981378-1.5866426,2.1292729-.6586926,3.9843497-.3223039,5.6454405,1.2092799,1.236352,1.1399535,2.3804212,2.3567331,3.4387927,3.659302,10.0201401,12.3304117,24.8277373,11.1284485,34.2819249,6.1316401,2.5359941-1.3404331,4.4507026-3.405227,6.3819653-5.4544726,1.3541521-1.4370146,2.7157124-2.8615906,4.3304331-4.0275186,2.7129686-1.9587006,5.5759311-2.2696635,8.6451352-.9592292,2.3373437.9978252,4.3095803,2.5650783,6.3525153,4.0209336,4.9721143,3.5431482,10.2358935,6.3762033,16.4265251,7.1488547,4.2718989.5333929,8.1960681-.3180968,11.8400963-2.5782485.3372119-.2090768.6153408-.5789398,1.2200722-.4915043.586348,3.2003573.6583268,6.4879671.9190784,9.7499682.4864741,6.0835323.9899596,12.168711,1.0261777,18.2782179ZM169.6395556,230.1389284c-6.9396865,2.0668059-13.7718163,3.0397541-21.0418551,3.4866261,2.240305-4.6276771,6.1662119-6.0771302,10.3872592-6.8739269,3.9389857-.7437502,7.5644476-.0029267,10.6545959,3.3873009ZM144.3545199,234.0303551c-7.3336033.5524165-14.2067986,1.0700783-21.4317478,1.6144463,1.9508351-3.8886828,5.1608871-5.4722158,8.7712581-6.2466964,4.9090985-1.0532497,8.7932084,1.1630013,12.6604897,4.6322501ZM118.5055437,235.5796821c-1.9233057.3186455-3.5949143-.1898703-5.2697241-.369863-4.2246143-.4534571-8.4637706-.2249908-12.6908543-.4342506-.6148835-.0303646-1.5166759.2469411-1.7508127-.4748587-.2396244-.7386284.4972663-1.3122635,1.0494084-1.7296855,4.315891-3.2629157,9.2473057-3.9259984,14.4986464-.7539936,1.5692653.9478882,2.9793907,2.1028411,4.1633363,3.7626514ZM93.7796011,234.715571c-8.8145185-.4556521-17.3413049-.0976789-26.2230462-.2077964,2.2874067-3.8526477,5.7017796-5.5548954,9.6031754-6.331571,5.9430503-1.1831225,13.3901551,1.7256613,16.6198709,6.5393674ZM62.508529,234.5147255c-7.4301847-.8672207-14.5201394-2.0852808-21.6281117-3.6514364,4.3555845-4.6860284,13.4929557-5.9585984,21.6281117,3.6514364ZM34.8807535,229.3885932c-5.4881298-1.1414169-11.0265624-1.5555463-16.5615196-2.005528-.4405613-.0358522-1.1101376.1617007-1.2424798-.4254705-.1344457-.5968659.4576643-.9674605.9080117-1.2043411,2.6436422-1.3901872,5.4776119-1.7307831,8.3603297-1.0998942,3.2704154.7159464,5.9719515,2.5819069,8.5356579,4.7352337ZM17.1649212,183.658934c6.5881154,8.3696586,15.3637636,9.5994255,24.7762455,8.8260424,3.1881017-.2621235,5.9013447-1.9122391,8.4159372-3.7717974,2.499959-1.8485831,4.918336-3.8131371,7.3079031-5.8043974,8.3796277-6.9823981,17.9900284-5.6580619,25.1671442.0232308,1.5482295,1.2255598,3.0689297,2.486423,4.6307867,3.6940566,6.3488569,4.9088242,12.9951407,4.7807806,19.8076067,1.0834314,2.7954652-1.5171332,5.2128362-3.6029628,7.8305952-5.3891704,5.3455442-3.647778,11.3432873-5.2642365,17.709613-5.6780001,3.0970078-.2012113,5.9203683.8139912,8.4514236,2.5191655,2.8755839,1.9374819,5.6198317,4.0692243,8.4882818,6.0176814,3.7515848,2.5482497,7.7644699,4.1575743,12.4736376,3.4370549,2.8602187-.4375431,5.223354-1.5844476,6.9285284-3.9433757.6294255.4347993.362912.9511807.3621803,1.3814071-.0032011,1.9149829-.0781066,3.8299657-.0710642,5.7449486.0129873,3.5038205-.4280313,4.1641594-3.827039,5.3081371-6.303127,2.121133-12.2648351,1.0574569-18.0024669-1.9848581-2.224391-1.1792812-4.2969589-2.5950771-6.3521494-4.0437985-1.5633204-1.1019063-3.1298418-2.2144219-4.7823354-3.1710902-4.3279637-2.5059953-8.3996574-2.1694237-12.3514474.9167919-2.0368986,1.5910327-3.7289028,3.5436969-5.5678826,5.3416114-9.7266459,9.5088804-26.2139003,9.1004215-35.500991-.8820372-1.4668304-1.576765-2.9491175-3.139628-4.4527147-4.6812725-2.5169705-2.5800777-5.467277-2.9358559-8.7384241-1.6722489-2.6473006,1.0225193-5.0240634,2.5025199-7.2830261,4.1919632-1.9160804,1.4331732-3.8445078,2.8504325-5.7362599,4.3152508-4.1938838,3.2470017-8.8634494,5.1199131-14.2279258,5.1810082-6.7672849.0773749-13.276745-.8948415-18.9466967-4.8949223-3.991575-2.8158608-6.6645757-6.4896133-6.5094601-12.0648128ZM132.7399631,32.9013637c1.4059183-.3223039,2.8297626-.3475468,4.6138667-.374253-1.1193751,1.5445711-2.6977863,1.8196819-4.0356586,2.8389086,1.8082494.5251615,3.5113202.7929555,4.9140374,1.8482173.7299397.5491239.7722856.9197186.0004573,1.4426851-2.8863762,1.9559568-6.0288395,2.7414126-9.7881983,2.2372868,1.5920387-2.3307586,2.8154949-4.6251162,3.264562-7.2313514.1111235-.6447908.5653123-.6548513,1.0309336-.7614933ZM130.5611191,33.1281838c-2.0659828,9.9414847-14.1869518,16.3764052-23.5470273,12.5144286-.6048229-.249502-1.225011-.5138205-1.752459-.8910002-4.9853759-3.5650985-5.4072794-7.1879995-2.4926422-11.8173229.5038514-.8004552,1.1389474-1.5182308,1.7134972-2.2740536-1.6504815,5.583065,1.1351061,9.5884504,4.4496966,13.3677474,1.2856488,1.4659158,3.1608467,1.6140805,4.9836382,1.5028655,5.806318-.3543148,13.8010834-7.3614071,15.086092-13.0743448.3530344-1.569814.1146904-3.0748746-.1744136-4.949981,1.7021562,1.7860247,2.1536926,3.600219,1.7336183,5.6216609ZM87.9412721,46.3078901c.0672229.5864395.0084143,1.0336773-.787285,1.0711758-1.3614689.0642047-2.7182733.2279175-4.4400933.3823015,1.479086-2.4675823,1.9458048-4.8407782,1.8568145-7.3239086-.0348461-.9729481.3372119-1.122942,1.1780007-.8288077,1.1228505.3930937,2.2710354.7141172,3.5649156,1.1145277-1.1793726,1.6960284-1.6034712,3.5682081-1.3723526,5.5847112ZM83.9129303,36.2279354c-.2902016-1.0097149-.9210905-1.921385-1.6596274-3.3962639,6.680947,3.6369858,12.9296555,4.4284779,19.4379267-.292671-.8156375,1.7715741-1.5046947,3.0937153-1.5552719,4.5998734-.0193895.5791227-.4960773.6248526-.874629.7250924-4.1313254,1.093492-8.2665835,1.7991949-12.5409519.6654607-1.3729013-.3640095-2.3775859-.8059427-2.8074465-2.3014915ZM89.7368086,41.8099028c.3053839-.5132717.6177187-.9427664,1.3129952-1.0850777,2.3294782-.4759562,2.5526398-.2751107,2.319692,2.0468677-.2198691,2.1926545-.1779805,4.3834797.6645461,6.5203438,0-2.1028411-.0878013-4.2108039.0367668-6.3059623.0630157-1.0598348-.3605341-2.4820329,1.4478983-2.8081781,2.4556011-.4430307,3.0640823-.2507825,4.0654744,1.7077352,1.862485,3.6430221,1.5209745,6.6238762-1.1225762,9.7737477-1.5467662,1.8430956-3.51068,3.2246855-5.5409935,5.1162547-.6256757-3.3887642-2.1369555-6.1051168-3.3645274-8.9392695-.8662147-1.9996745-.9935265-4.0534932.1807243-6.0264615ZM99.5201596,40.1065577c-.2160278-.3676679-.4075444-.8028331.1685602-1.0426404.4647981-.1933458.6665582.1642616.7678955.5108938.7951505,2.7187306,2.2611578,4.9450422,5.0628423,6.4279695q-3.24627.4624202-4.0853212-2.053087c-.4556521-1.3733586-1.1869638-2.6053206-1.9139768-3.8431359ZM111.9771515,27.2242782c-.9098409,3.0774355-.6586012,5.8819552,1.1833054,8.3561226,2.151772,2.8904919,4.8635516,2.4033776,7.8403814.7485061-1.4141496,2.6362339-3.8857561,4.0487373-6.1317316,3.7423474-2.7609849-.376631-4.8658381-2.579346-5.5473957-5.805312-.6048229-2.8626881.3555038-5.5863575,2.6554405-7.041664ZM111.0144468,25.9954259c1.2974471-1.454209,2.961739-1.8902888,4.6360914-2.2557616-1.3568959,1.0715417-2.3593855,2.8422011-4.6360914,2.2557616ZM119.6838188,41.6584456c-2.9280818,2.6523308-6.9757216,3.4462009-9.6181748,1.8427297,3.0510951-1.5200599,6.1074033-2.2347259,9.6181748-1.8427297ZM113.1803951,41.0076185c-.0676802.0724361-.1262144.1959066-.2016686.2074306-1.6099648.2434657-3.2721531,1.8204136-4.8273336.0896305-2.1516805-2.3942316-3.6021397-5.1030845-2.7370225-8.4869099.5874456-2.298016,2.0490628-3.9984345,4.1647996-5.6575131-2.505721,6.7007023-1.4935366,10.3210424,3.6012251,13.847362ZM130.546577,22.5428228c.8026502.2121865,1.0240741.4772366.6322608,1.1939147-.2555384.4675419-.4909556.9500832-.7905775,1.388358-.441293.6451566-.9918803,1.2844598-1.7171556,1.5068898-.8757265.2681598-.9331632-.8267955-1.4660073-1.2003169-.8639282-.6058289-1.6659381-1.3001909-2.5145011-1.9733341,1.8674238-1.177452,3.771523-1.4662817,5.8559807-.9155114ZM127.4007297,28.1064983c1.0341346,2.9221369.2091683,5.5686143-1.615178,8.0120512.6922583-4.3004343.3202918-8.2749064-2.8766814-11.6320255,2.2148792.4117515,3.7726205,1.5875572,4.4918595,3.6199743ZM124.3417691,29.722591c.7101844,2.5352624.4600422,5.0986945.2150217,7.663224-.0444494.464981-.3362058.7404576-.615981,1.050323-1.5318582,1.6960284-3.4503166,2.4330105-6.1537734,2.3885611,3.4370549-1.8099871,4.657493-4.8199254,5.8643035-7.8055353.9595035-2.3735617.2137413-4.1936094-2.0445812-5.399231-3.5369289-1.8882766-7.1083381-.8229542-7.994491,2.3697204-.3567842,1.2855573-.1057274,2.3823419.9454188,3.2208442,1.3087881,1.0441038,2.6622085,2.1906424,4.4855487,1.6407867,1.2610461-.3802894,1.9545849-1.3462865,1.6484693-2.7807402-.2670623-1.2515343-2.0398253-3.0604239-2.9970424-3.0536559-.3078533.0020121-.618176.0360351-.6911608.4102881-.0662168.3396813.1548412.5275395.4101967.7132026.4943396.3594366,1.3110746.3804723,1.3615603,1.2398275-2.3857259.2323076-2.3985302.2595626-1.0602921,2.2049101-1.1083999.1624324-1.5611253-.0274379-2.0976279-.8798422-.8962134-1.4242102.1048128-4.1039789,1.711668-4.5821302,1.6610908-.494614,4.2097978.2934027,5.0386055,1.5577413.8228628,1.2551927.4366285,3.2453554-.9246574,4.7657812-1.7283137,1.9301652-4.185561,2.7258644-5.9180818,1.9162633-1.929342-.9014266-3.189565-4.0465423-2.7690334-6.9108767.3263282-2.223202,2.1275352-4.0167264,4.3963756-4.3774434,3.5419592-.5630258,6.2121247,1.1589771,7.1895543,4.6479811ZM120.5752764,12.0604455c1.2181515-.1424942,1.5855451.558087,1.5404555,2.0777811-.4584874,2.4573388-2.1724419,4.6426765-4.1777869,6.6436315-.3609914.3599853-.9119445.2136498-1.3824131.2184057-1.5624058.0149994-3.1008491.2088939-4.583685.6994837-.9518209.3148042-1.5932277.3757164-1.5091762-.96179.0404252-.6431445-.0008231-1.3682369-.260843-1.9400428-.9917888-2.1805818.2370635-3.119324,1.8928496-4.185561,2.6187651-1.6861507,5.5052328-2.2038125,8.4805992-2.5519081ZM102.9812684,9.7382841c2.0863783-2.7481806,5.1896969-3.9281934,8.1102789-5.3953897.5227836-.2624893.7636884.0735336.8717937.5472947.3580647,1.5679848.8561541,3.1085317.9413945,5.4599602.0224076,1.3486645-2.0327829,4.0664805-3.955357,4.5724354-.5272651.1388358-.7883825-.1563961-1.0881873-.4170562-1.4019855-1.2186088-2.8933271-2.3124667-4.5524058-3.1493228-.864294-.4358969-.9144139-.8449046-.3275171-1.6179218ZM87.4272687,7.4091718c.2640441-.6586926.6222917-1.2808014.9539245-1.9111416,1.1719644-2.227775,1.1940976-2.2425915,2.7378456-.3601682.9030729,1.1009917,2.496575,2.3292952,2.4056641,3.3818133-.1220987,1.4125034-2.3873721.7446647-3.502723,1.542559-.283525.2028576-.6467114.2943173-.9463334.4251046-.8123449.0331084-2.0079059-2.1811305-1.6483779-3.0781671ZM86.8081781,23.6893614c2.8511642,1.5915814,7.643926.9222795,9.8860602-1.3947602,1.3493047-1.3943943,1.6774621-3.0514609.9090178-4.5912761-.9799905-1.9638223-3.501534-3.3708381-5.4496253-3.0404857-1.8024875.3054753-3.5962862,1.9630907-3.8981032,3.5532087-.2305699,1.2145846.2679769,1.9742487,1.3935712,2.3459409,1.6160926.5335758,3.2429775,1.0342261,4.9595843,1.57896-2.490813,1.6415184-5.5949547,1.5061581-7.5717643-.1900532-.4622372-.3967521-.6786309-.784907-.5277224-1.390736.8363988-3.3582167,2.5702-5.8969546,6.1179212-6.8318555.9297791-.244929,1.851144-.1818219,2.5734926.3905329,1.9876933,1.574387,3.7316466,3.3752282,4.540516,5.8722605.5747327,1.774135.0674058,3.2585256-1.4981096,4.1981824-3.6312238,2.1796672-7.5606062,2.6223321-11.5688269,1.3568959-2.4717894-.780334-3.4416279-3.5515625-2.329844-5.9121369.4356225-.9250232,1.0122758-1.7507213,1.9594323-2.5149584-.3860513,1.1908051-.8076805,2.2043613-1.0343176,3.259989-.3084935,1.4364658.2167595,2.5722122,1.5387177,3.3102918ZM90.8926761,19.137413c1.2079995.7624079,3.2812991.7013129,4.1613242-.2645014.3906243-.4285801.6652777-.9628876,1.0495913-1.5339618.8975853.9321571,1.0591946,1.8888254.5039429,2.9610987-.5504958,1.0631274-1.5048776.7722856-2.3629524.6250355-1.1105949-.190602-2.2253056-.4073614-3.3004142-.7366163-.6990264-.2140157-1.7824578-.2763912-1.8343154-1.1454411-.0597232-1.0013006.8515811-1.556278,1.7877624-2.1569852.3224868.9782528-1.193366,1.5010363-.0049388,2.2513716ZM91.583654,16.4744728c1.1189178-.5582699,2.4872461-.7543595,2.8804313.3115117.5796715,1.5714603-.5027539,2.1388762-1.8954105,1.3934797-.1683773-.0901792-.6218344-1.0772122-.9850208-1.7049914ZM83.018729,10.689099c-.4872057-1.3367747-.796248-2.7309862-.7603958-4.274094,2.2551214.7064346,3.671649,2.2894188,4.9990034,3.9960565.3672106.4722978.3195601.7539936-.1338055,1.1834883-2.2154279,2.0980852-3.0651799,1.9462621-4.1048021-.9054509ZM81.0897528,18.4942685c3.1452071-3.0362786,6.7563098-5.3922801,10.8530634-6.9630087-2.6518735,1.2844598-4.7808721,3.2801101-6.9865138,5.1621675-1.9933638,1.7009672-2.460174,3.8277707-1.7324293,6.3227909.6853989,2.350331,2.2884128,3.5396727,4.5942943,3.9673382,3.3742221.6257672,6.6928368.4258363,9.8459094-.9539245,3.5571415-1.5564609,4.4868292-4.4165881,2.5160559-7.744989-1.3321103-2.2499082-2.820891-4.4193319-5.4419427-5.6167221,3.612749-.4872972,7.7552325,1.8613875,8.9865542,4.9878453.8943843,2.270761.0672229,4.2318396-1.1884271,6.0582895-1.2172369,1.7706595-2.7685761,3.2779151-4.0882479,4.979614-1.2893986,1.6627371-3.3720271,2.0700985-5.3650251,2.0459531-4.5890811-.0556075-8.6991879-1.5372544-12.0116747-4.7994384-2.5898639-2.5502618-2.5853824-4.9322378.0183834-7.4459158ZM78.7246968,24.6121897c1.1709583,1.533596,2.2815533,2.9980484,3.7197568,4.1581231,4.1040704,3.3101089,8.6428487,4.4533549,13.7627618,2.8054344,1.7688303-.569428,3.1637734-1.5206087,4.2011091-3.1390793.8970366-1.4000648,2.1616496-2.5584932,3.1466704-3.9089869,2.5642552-3.5158932,2.202898-7.1499523-.9558452-10.1348305-1.8605644-1.758221-4.1029729-2.8282993-6.542477-3.6269252,1.458599-.3080362,2.8395488-.036218,4.1658057.4947969,2.7611679,1.1053817,5.1462535,2.8197021,7.2589722,4.8676673,1.9786388,1.9177267,2.2185376,4.2964101.871245,6.7303352-1.0913884,1.9718708-2.6958656,3.5082106-4.4133871,4.9148605-1.9437012,1.5919473-3.9393515,3.1207873-5.9281423,4.6567613-1.4640866,1.1308075-3.1667916,1.6184706-4.9844613,1.8319375-5.2634134.6179016-11.5361758-2.7478147-13.8471791-7.4832314-.3059326-.6270476-.7403661-1.2462297-.454829-2.1668628ZM65.4323122,19.8092758c.210906-1.5915814.4407442-3.3051701.6638144-5.0194904.086155-.6621681.2859944-.9592292,1.0433721-.6107678,1.9469938.896122,3.9289251,1.7159666,5.8974119,2.5648954,2.1097005.9100239,3.1870956,2.5244702,3.5200089,4.7904753.2511483,1.7091986-.1023434,3.4679683.5148266,5.142961.224625.6096703-.0418885.8739887-.7320433.7188731-1.7077352-.3837648-3.4388841-.2849884-5.1680209-.1739563-.2951404.0188407-.6137859.0492053-.8875248-.0356693-2.0657999-.6402178-4.9522675-4.9722972-4.8518448-7.377321ZM76.7777031,32.0723732c-2.4054812-.6199137-4.5226814-.4163245-6.8742013-.7569203,2.6044974-1.3671394,4.9608647-1.1474532,6.8742013.7569203ZM68.4199342,31.7101928c-.2411792.8458192-1.0438294,1.1099547-1.6198425,1.5815209-1.5491441,1.2683629-2.0603123,3.0719479-1.1579711,4.7944996,1.0602921,2.0240028,2.8224459,3.6521681,5.0364104,3.5136981,2.4245962-.1518231,4.7015765-1.4170763,6.1032876-3.6457659.619365-.9848379.110026-1.848949-.7051542-2.5047149-.8945672-.7199706-1.9287933-1.2164138-3.010304-1.5674361-2.5551092-.8291735-4.284246-.6473516-3.9045054,3.01945.0900878.8699645.254075,1.7252955,1.2536379,1.9506521,1.1576967.2612089,2.0934207-.3360229,2.9473798-1.0135562.4431222-.3517539.0346632-.6177187-.2220641-.8410633-.7570118-.6585097-1.5249073-1.304398-2.3337768-1.994004,1.7696534-.3365716,2.8259213.0689606,5.5389814,2.109792-1.3784804,1.2465955-2.8431157,2.3142958-4.5246935,3.0496317-1.3560727.5930246-2.754034,1.0320311-3.9233461-.3804723-1.0760232-1.299825-1.1735192-3.7531396-.2229787-5.0981457.3819356.6707653-.2114548,1.5478637.6838441,2.3594769.1805414-.7742977.459402-1.4114058.4510792-2.0446727-.020304-1.5431078.9249318-2.1225963,2.1953983-2.3633182,2.3052413-.4371773,4.5338395-.3394983,6.4737908,1.2200722,2.756412,2.2158852,2.5392867,6.5474159-.4250132,8.4770323-.099874.0649364-.1990163.1355433-.3076704.1821877-4.2411685,1.8184014-11.25448-1.2828135-12.7714303-5.6456234-1.052518-3.0271326,1.1200153-5.5744677,4.4449406-5.1592408ZM70.229647,35.373519c.6559489.8127108,1.4537517,1.2147675,1.4172593,2.1275352-.0117068.2919393-.4736697.3105971-.7385369.2030405-.9579487-.3894353-1.0387991-1.1373926-.6787223-2.3305757ZM62.7734877,33.7947419c-.1326165,1.6272507.1150563,2.9193931.6575037,4.1690982,1.4939025,3.4425425,3.9002068,5.4987391,7.8284002,5.4890444,1.42357-.0032925,2.8475973.2034063,4.5041151.3321816-2.2611578,2.8341527-8.1714655,1.8719968-11.5700159-1.2164138-2.9867989-2.7143405-3.6027799-5.8040316-1.4200031-8.7739104ZM56.8993066,40.5781238c-.0578025,3.2245026-.5947623,3.5575988-3.3300471,1.9281531-1.7702022-1.0545302-3.4744619-2.2197265-5.418529-3.4705292,1.899892-1.0761146,3.6144867-1.7538309,5.4013346-2.211861,2.2343601-.5725376,3.4654074.4463233,3.3664481,2.6832442-.0157311.3565098-.0128044.7141172-.0192065,1.0709929ZM57.0428983,36.0907458c-.8991402-.301817-1.8201392-.5396121-2.7148893-.8531359-.4859253-.1702979-1.1857748-.2970611-1.1571479-.9292304.0291756-.6414982.7685357-.6303401,1.2452236-.8061257.2713609-.1000569.582964-.0912768.7115563-.108837,1.1022721-.0195724,1.9108672.3263282,2.6414471.8741717.3678508.2758424.8547822.5076012.5098877,1.1295271-.2748364.4955286-.5414413.9266695-1.2360776.6936302ZM60.436144,35.0576173c.4067212,6.329376,3.07835,10.1752557,8.1267417,11.2546629,6.6703377,1.4260394,9.984105-1.7168812,12.0391126-7.3134822.3718751-1.0126416-.062284-1.9982112-.4681821-2.9406118-.8845981-2.0540016-2.2886871-3.7761874-3.5960119-5.553432-.7035079-.9559366-1.8751064-.9563025-2.9289964-1.0770292-.7003983-.0804845-1.4175336-.0153652-2.3370693-.0153652.7296654-.5655867,1.3928395-.6032681,2.0177836-.6188162,3.9913006-.0993252,9.3019072,4.3393962,9.938741,8.2882595.3898926,2.4178282-.3600768,4.5181084-1.9970222,6.2616958-3.2131616,3.4224214-7.2391255,5.181374-11.8936917,5.5113606-1.9417806.1375554-3.6287544-.5482093-5.1049137-1.8028533-1.9680295-1.6729805-3.6956115-3.5764395-5.2813395-5.6019057-1.1790982-1.5061581-.5350392-4.307934,1.484848-6.3924832ZM58.6113404,42.9853427c.8570687,1.1165398,1.6055748,2.1037557,2.3666108,3.0810938,3.0360957,3.8994751,6.9548688,5.0123565,11.6524211,3.7015563,4.6747788-1.3045809,6.6841481-2.7317178,10.9028175-7.7973039.2505995,5.2188725-6.5336969,10.7741337-13.248484,10.8485819-5.7508935.0638389-11.802232-4.9152263-11.6733653-9.8339282ZM53.3056727,53.0448104c1.8379738-1.9466279,4.3490909-2.3823419,6.8328615-2.8301285.560282-.1009715.8920063.2681598,1.212664.6226575,4.8609908,5.3727077,13.1560183,4.7434651,17.824212.4141294,2.2478961-2.084732,4.7580986-2.7613508,7.5888673-3.0547534,1.1242224-.1163367,1.8029448.0607292,2.3637755,1.2482418,1.4393925,3.0476196,2.674647,6.1223113,2.9943901,9.6376557,2.1533268-2.3803297,4.6706631-4.2261691,6.8638664-6.4157139,1.161538-1.159343,1.9759865-2.5903212,2.3968839-4.1590377.3223954-1.2014144.9912401-1.4772568,2.0864698-1.3784804,1.9067515.1717613,3.8217344.2549896,5.726931.4410186,2.3316732.2275517,4.6536516.4057152,6.9637403-.1627982,3.9735574-.9775211,7.676943.623755,11.4679469,1.2683629,2.9431726.5004674,5.7545519,1.4498189,8.4843491,2.7763502,3.7881687,1.8409005,4.953365,8.6654392.8116132,11.6483054-5.0750979,3.654729-9.4752233,3.6382662-13.9647048-.7130197-1.1606234-1.1247712-2.2744194-2.2985648-3.4477557-3.409617-2.9330206-2.7778135-6.2604154-3.2480992-9.9370947-1.6565178-2.2724073.9839233-4.2481194,2.4406931-6.2471537,3.8592328-1.7103876,1.2138529-3.4517799,2.3596598-5.3801159,3.2149908-2.7263217,1.209097-5.3579827,1.0905653-7.875319-.5011991-1.5153955-.9581317-2.9939328-1.9802851-4.4447577-3.0344494-5.7680879-4.1915973-9.1552973-4.2044017-14.9503658.0301817-1.8877279,1.379395-3.7642977,2.7664725-6.0062489,3.5354655-2.331033.7997235-4.6076474.5180277-6.818228-.4368115-1.1502884-.496809-2.3399046-.9771553-3.3583081-1.6854191-1.1100462-.7719197-3.0279558-.8586235-3.1341405-2.5506277-.1506341-2.4033776.1703894-4.827608,1.9456219-6.7080191ZM51.5593415,62.6058229c.3632779-.5862566,1.1984877.3731555,1.8182185.6321693,1.3764682.5750985,2.6990667,1.2784235,4.0724254,1.8619362,4.0828518,1.7344414,7.9205001,1.2696433,11.543584-1.295435,1.6569751-1.1730619,3.1197813-2.5985525,4.9317805-3.575342,2.6946767-1.4527456,5.3529524-1.4875003,8.0598847-.104264,2.1449125,1.0958699,4.0343781,2.5769681,5.9171672,4.0439814,3.9373394,3.0675578,7.9827841,3.1703585,12.1564554.6175358,1.8862645-1.1536725,3.7021966-2.4225841,5.5465725-3.6443026,1.4960061-.9912401,3.0392053-1.8893742,4.6455117-2.7008045,3.0098467-1.5209745,5.6876034-.9762407,8.1037853,1.1739765,1.5174991,1.3506766,2.8812544,2.8729316,4.3852175,4.240071,4.5906359,4.1727566,9.5094292,4.3254943,14.4106622.4905897.6441506-.5039429,1.2561073-1.0488597,1.94425-1.6261532.9849293,3.1418231-.6909779,4.6406644-2.9599098,5.891467-4.8156267,2.6552575-9.4619616,2.2544812-13.6286819-1.3199462-1.7702022-1.5185966-3.4701633-3.1200557-5.1805509-4.7068812-1.3674137-1.2687287-2.8353417-1.4615258-4.4051557-.4529084-2.8659807,1.841998-5.7132121,3.7130803-8.5687663,5.5713581-.3007194.1957237-.6024449.3899841-.9072801.5791227-7.0134944,4.3512859-11.6662315,4.2294616-18.3620864-.5633917-1.7980059-1.2870207-3.4762911-2.7399492-5.2406399-4.0756264-2.0755861-1.5712774-3.4364147-1.4152472-5.0982372.5566236-.6547599.7768586-1.2347972,1.6162755-1.8718139,2.4086822-3.5620803,4.4303071-8.1860076,5.6748905-13.4590242,3.6133892-2.5875774-1.0115441-4.8833984-2.5125804-7.0186162-4.2722648-.1845656-.1521889-.4042518-.2833421-.5362281-.4737612-.626133-.90289-.7826205-2.0887563-.2985244-2.869822ZM137.6283003,86.9820237c-1.7593185-.5209544-3.4652245.0389618-4.9412009,1.0391649-1.0341346.7005812-2.0611354.8288077-3.2210272.5750985-2.3449348-.5129059-4.6406644-.4704686-6.7928022.7442989-.5817751.3283403-.9257549.117983-1.3949431-.2710865-3.052467-2.5314211-5.5538893-2.7939104-9.035851-.7699076-1.2123896.7046054-1.9039162.9058167-3.0895996-.2206008-2.294632-2.180033-4.9859247-1.6056662-7.4820424-.2173082-1.4092108.7836266-2.3995363,1.3349455-3.9095357-.1481647-1.6065808-1.5782283-3.8241123-.9672776-5.5066961.1646274-2.0933292,1.4081133-3.7361281,2.121133-6.3648623.6431445-2.6024853-1.4633549-5.6136125-.2270029-8.2597241,1.0062394-.855331.3985813-1.2337911.4904068-1.7064548-.546746-.9252062-2.030405-2.5913272-2.7445222-4.9061718-2.3380754-3.6844534.646437-7.1160207,2.0406485-10.4307026,3.7176532-1.035598.5238811-1.7266674.7121051-2.5008736-.4558351-1.0045932-1.515304-2.5310553-2.3463067-4.4036009-2.3814273-.847374-.015914-1.2846427-.2908418-1.3059528-1.2593999-.0552416-2.5111171-.2083452-5.0205879-.3445286-7.52951-.0481993-.8877077-.0216759-1.6411526,1.0789499-1.9274214.6532051-.170115,1.1580625-.6332669,1.1083085-1.4373804-.0525893-.8518555-.5576297-1.3208608-1.3449147-1.4377462-.8840493-.1313361-1.2026034-.6365594-1.2401019-1.4659158-.0754542-1.6684076-.1832852-3.3353518-.2762082-4.9761385.7778646-.3460834,1.0982479.2469411,1.4896039.5129059,2.1345776,1.4514652,4.3574137,2.7227548,6.7906072,3.6091821,4.7011192,1.712674,8.9467692.9049021,12.7013722-2.363867.9413945-.8194788,1.7761471-1.7774275,2.5740413-2.742693,2.3511541-2.8440303,2.3407277-2.8663465,5.3502086-.5968659,2.2916138,1.7280393,4.5453634,3.5014425,7.0602303,4.9161409,4.5909103,2.5826386,9.1982833,2.5910529,13.9003172.3089508,3.5177224-1.7075523,6.5286666-4.2086088,9.8787434-6.1760895,3.5779028-2.1011948,4.1230026-2.0585746,7.1942188.7020445,1.1120583.9994714,2.2125927,2.0154056,3.3702894,2.9601841,4.1817197,3.4127267,8.7544295,3.8140517,13.6054511,1.6354821,1.2894901-.5791227,2.5179766-1.2943374,4.0113303-2.0699156,0,.7785048.0059449,1.3495791-.0008231,1.9206534-.0618267,5.2058852-.1423113,10.4117704-.1755111,15.6176557-.0069509,1.086541-.0883501,1.6707855-1.4795433,1.2586682ZM138.5523175,90.304754c.0636559.8732571-.8083207.9906913-1.3812241,1.1432461-2.7949165.7444818-5.6681225.809967-8.5401395.9094751-1.2554671,0-2.5111171.0157311-3.7661269-.006768-.6067435-.0107922-1.3163792-.0755457-1.4290576-.8031989-.1304215-.8417949.6381142-1.1106864,1.2458638-1.2603144,1.6615481-.4090077,3.3458696-.2118206,4.967084.204138,1.3856142.3555953,2.478466.1591399,3.6063468-.7730173,1.1237651-.9288646,2.4562413-1.5010363,3.9845326-.7528961.6146091.3007194,1.2609547.6285109,1.3127208,1.3393356ZM119.8620738,91.745427c-.2988902.8701474-1.15916.6618023-1.8261755.7863704-.2891041.0539612-.5922929.0331084-1.1306246.0568879-1.4288746-.0878013-3.0810024-.2612089-4.5525887-1.1518433-.9119445-.5520507-1.1290698-1.1822079-.1536523-1.9230313,1.7659036-1.3415306,5.166649-1.2259256,6.8060639.2458436.5951282.5343075,1.1568735,1.1128814.8569772,1.9857727ZM107.8098824,92.7509347c-1.1925428.0309134-2.3840796.1046299-3.5760736.1602374,0-.0261575-.0000915-.0524979-.0001829-.0786553-1.3106173,0-2.621326.0107922-3.9317604-.0031096-1.1476361-.0122556-1.1772691-.6058289-.8009125-1.4915245.7205194-1.6954796,2.5891322-2.8235434,4.6311526-2.7315349,2.1093347.0951181,3.6475951,1.2743992,4.3235736,3.1767607.2656904.7474085.073625.9491686-.6457968.9678264ZM97.2873543,90.443224c.1186232,1.2224501-1.0394393,2.373013-2.7571436,2.4048409-1.8783075.0347547-3.7614624-.1909678-5.9693907-.3228527,1.4751532-2.2021663,3.2057534-3.4694317,5.4787095-3.8502698,1.6513046-.276757,3.1358782.614792,3.2478248,1.7682815ZM85.8818744,91.5636051c-.0538698,1.0966016-.9915144,1.4077475-1.9330004,1.4818298-2.5306895.199565-4.9749495-.3224868-7.955895-.9938009,2.8030564-1.9874189,5.3395078-2.9058571,8.2718882-2.1718017.8256066.2066989,1.6649321.7095442,1.6170072,1.6837728ZM73.7673076,90.4397485c.0728934.8844151-.5869883,1.3850655-1.2851915,1.7697449-.736159.4057152-1.5342362.6557659-2.3723727.7313116-3.495772.3151701-6.9516677-.2352343-10.4577747-.5247957,3.3757769-2.0761348,7.0062691-3.4063245,10.90172-3.9741062.546746-.0797528,1.1734277.1693833,1.7221859.3751676.7474085.2804154,1.4206433.7642371,1.4914331,1.6226777ZM56.9040625,91.745427c-.0305475.5129059-.2437401.8450875-.8914575.6131457-1.1474532-.4108369-2.1120785-1.0653224-2.7445222-2.1299131-.3025486-.5092475-.1952664-.9442298.4313239-1.0602007.8747204-.1617007,3.1448412,1.6502985,3.2046559,2.5769681ZM36.486877,103.3341006c1.0524266-3.711434,3.525405-5.8611024,7.1842496-6.7588707,4.1078203-1.0080686,8.3232886-.9894109,12.4965025-1.0168488,20.4695004-.1344457,40.9356169-.4172391,61.39213-1.1595259,7.5326196-.2732815,15.056459-.7936871,22.5830423-1.222816,1.6270678-.0927401,3.2407824.008963,4.8163584.3587049,3.9305714.8728912,6.1020987,3.6766793,6.5251912,8.3797192.1499939,1.6671271.1782549,3.3450465.262032,5.0182099-.0314621.0009146-.0629243.0020121-.0943864.0027438,0,.5385146-.0904536,1.0955041.014725,1.6126172.6799113,3.3428515-1.1651964,4.7465747-3.9451135,6.0487777-7.84468,3.6746672-16.6991664,1.5228037-21.3060822-4.7339532-3.2574281-4.4239049-6.3205958-4.8224862-11.0103741-1.8482173-4.1325144,2.6208687-7.9152869,5.7908614-12.5104958,7.674565-3.8568549,1.5807892-7.7837679,2.6713545-12.0040835,2.5334332-4.0627306-.1324336-7.5380157-1.6009103-10.5924033-4.2457415-1.9433354-1.6826753-3.6400954-3.64101-5.7858311-5.0981457-2.4438942-1.6594445-4.9515358-1.8895571-7.6204209-.5604649-1.7284051.8608185-3.2460871,2.0143081-4.7739211,3.1681635-3.6475037,2.7543998-7.4934748,5.1718622-11.9475615,6.3915686-4.9071779,1.3440915-9.5967732,1.3347626-13.5380454-2.5828215-.6356448-.6319864-.9906913-1.3045809-1.049134-2.1877156-.2187716-3.3073651-.0068595-6.562964.9036217-9.7733818ZM146.5141574,149.3641134c-4.1160516-.1726759-7.7669393,1.2127554-11.1771965,3.3095601-1.1125156.6841184-1.6845959.6724116-2.6181249-.3499248-2.4219439-2.6521479-5.5966924-3.2784638-9.0399666-2.73373-3.3520889.5301003-6.3968732,1.9316285-9.365929,3.4926624-.8311856.4371773-1.416802.4735782-2.2360978-.1221901-5.0195818-3.6507048-10.4189958-4.5016457-16.2616233-2.1028411-2.7672957,1.1359293-5.5953206,2.1403395-8.038666,3.9086211-.7766756.5622941-1.231779.4108369-1.8036764-.2138327-4.2483023-4.6410302-9.2485862-5.009064-14.6980285-2.4842279-.9689239.449067-1.6223119.4785171-2.5233727-.2738303-5.0572632-4.2226936-9.905724-3.9316689-14.6069347.8544164-.7880166.8022843-1.2535464,1.0530668-2.309357.3427909-5.3785611-3.618328-9.7184146-3.416568-14.9971017.5366854-.131519.0984106-.2992561.1485305-.8266126.4026055v-29.1741759c7.845869,3.0468879,15.4427847,2.1271693,22.8485497-1.5615826,2.437492-1.2138529,4.3989364-3.0810938,6.5615007-4.6768824,4.3767117-3.2296244,5.3071311-3.8961825,9.2800483.6866793,5.7050722,6.5807072,12.7966732,7.5959097,20.6936681,6.3312052,5.5973327-.896122,10.6095977-3.2062107,15.076946-6.7087507,2.2588713-1.7712082,4.5149988-3.5530258,7.0639802-4.9110192,2.3412765-1.2475101,3.7335672-1.0119099,5.5400789.9809966,1.1640989,1.2842769,2.2170742,2.6825125,3.4704377,3.8707568,6.4897963,6.1534075,14.4370941,7.1333066,22.2730854,2.8103732.8279845-.4565667,1.6308176-.9592292,2.6312951-1.5507904v30.6989917c-1.6597189-.5048575-3.1927661-1.2893986-4.9369023-1.3625664ZM149.0583829,152.3899656c-.0543271.6078411-.6678386.7966138-1.1641903.9938009-2.1982335.87344-4.5424367,1.0203242-6.8509706,1.3093368-2.2935345.2871834-4.6004221.4666273-7.2474483.7272874,2.6845246-2.6439165,5.7082733-3.8817319,9.0125287-4.623287,1.7564832-.3941912,3.4458351-.3378521,5.0847926.412849.524064.2401731,1.2320534.4327872,1.1652878,1.1800128ZM122.5577565,151.2823888c4.3188177-.7411893,7.173183.4843705,9.4095552,4.3395791-7.9149211.4712003-15.5963456.9286816-23.27777,1.386163,4.7623972-1.6301774,8.8318959-4.861448,13.8682148-5.7257421ZM89.6990358,155.5802623c6.8096308-4.9604074,14.851315-5.970854,19.6720635-1.2321449-6.3533384,2.1427175-12.8323424,1.6658467-19.6720635,1.2321449ZM83.9151254,155.3073466c-4.0040135-.3405959-7.6818818.0252429-11.3331353-.4861997-.4672675-.0654851-1.1284296-.0049388-1.2444919-.4979065-.145238-.6173529.5360452-.8284418.9823685-1.0878215,3.9486804-2.2950893,8.0329955-1.6587128,11.5952588,2.0719277ZM68.5183448,154.8698034c-4.5507595.2575505-8.7768371.5352221-13.0071219.7133855-1.3345797.0563392-1.7577637-.7071663-.9129506-1.6521277,1.9924492-2.2285067,4.5148158-3.577537,7.5593258-3.4915649,2.8983574.081582,4.8347418,1.762611,6.3607467,4.4303071ZM51.1830763,155.6578201c-.1704809.6087557-.8629221.5516848-1.3771085.5919271-4.4458552.3468151-8.8933568.6731433-13.5074978,1.0181292,2.3799639-6.1947473,10.153031-6.3624844,14.1430512-3.1421889.4626031.3731555.9149627.9127676.7415551,1.5321326ZM149.477817,119.744163c-4.4575621,2.4723382-8.9853652,4.3611636-14.1641784,2.6397094-3.475468-1.1551358-6.3430035-3.3064505-8.8564985-5.9355506-.7024104-.7346042-1.3216839-1.5489612-2.0253747-2.282102-2.5959917-2.7050116-3.878165-2.9012841-7.2927208-1.2050728-2.3804212,1.1825737-4.4122895,2.8612248-6.4561391,4.5184742-6.1850526,5.0152832-13.2713489,7.5011575-21.2121531,7.4722562-5.2401826-.0190236-9.6714043-1.9323602-13.0912648-6.0035966-1.0762976-1.2813502-2.1036642-2.6060522-3.3843742-3.7088731-1.3525973-1.1648305-2.745071-1.2597657-4.3003429-.4285801-2.1361324,1.1417827-3.8920669,2.7736064-5.7222666,4.3110437-5.6178196,4.7196855-12.1023112,6.5686345-19.3583567,5.8559807-2.4880692-.2443803-4.7386177-1.1790982-6.876122-2.4337422-.5431791-.3188285-.9498088-.6541197-.9601438-1.3676881-.0180176-1.2467784-.1099345-2.4924593-.1893215-4.1142224,5.8211345,4.1336119,11.5337064,3.203284,17.2590826.96179,3.0754233-1.2037924,5.9105821-2.8681757,8.5391334-4.8839471,1.7081925-1.3098856,3.4413535-2.5888578,5.324417-3.6492414,2.0104668-1.1322709,3.9914835-1.0327628,5.973049.0665827,1.6921871.9387422,3.1876444,2.1580827,4.495152,3.5482699,6.4671143,6.8748415,14.1913419,7.7294408,22.7291949,4.895654,4.6542919-1.544937,8.788361-4.026787,12.6516181-7.0021534,1.28071-.9864842,2.6132776-1.8950447,4.0679438-2.6162957,3.4734559-1.7221859,5.4455096-1.3603713,7.7825789,1.7562089,1.7544711,2.3397216,3.6655212,4.3763459,6.4254086,5.5439202,6.4898877,2.7458026,12.7780154,2.5669075,18.9231916-1.0261777,1.8995262-1.1106864,1.8154747-1.0316652,1.978273,1.1286125.1456038,1.9323602-.5787569,3.0265839-2.2597859,3.958741ZM19.1273716,164.863969c2.1059507-3.4632124,5.4240166-4.5923737,9.1642603-4.6569442,5.92549-.102069,11.854364-.0065851,17.7818662.0029267,2.273139.0034755,4.546278.0003658,6.819417.0003658,11.4287107-1.1648305,22.840044-.9438639,34.2608891.0168286,9.4561082.7956993,18.9057228-.0153652,28.3489351-.5568066,4.2425404-.2432828,8.4839832-.5068696,12.7270723-.7404576,6.3490398-.3497418,12.537202-1.8893742,18.8466398-2.5290432,3.6348822-.3685825,7.2589722-.7254582,10.8966897.0740823,7.7616346,1.7060889,11.8528092,6.4689435,12.1784057,14.4539226.1095687,2.6874514.0354864,5.3906338-.1087456,8.078451-.2613918,4.870594-3.2320938,7.915104-8.1065291,8.4914829-2.844762.3363887-5.4545641-.4018739-7.9484868-1.6951138-3.6315897-1.8833378-6.7874061-4.4778661-10.1333672-6.787589-3.2093203-2.2157023-6.5803414-3.9205108-10.6455414-3.6311324-7.0762358.5037599-13.5823118,2.6091619-19.391831,6.7621632-2.2377441,1.599447-4.4843598,3.2040157-6.8402698,4.6174336-6.2912373,3.7738095-12.393336,3.3874838-18.1980077-1.1266004-1.7953536-1.3964065-3.6025055-2.7829353-5.3270693-4.2638505-7.5533809-6.4863208-18.7464915-5.0782075-24.5552789-.6471687-2.2349088,1.7051744-4.3748825,3.5347339-6.5518974,5.315271-7.9705286,6.5186975-18.289193,7.3855524-27.2303832,2.2831996-8.2569803-4.71182-10.9461694-15.3055952-5.986768-23.4614211ZM101.8182671,263.8436512c3.431293,6.1303597,9.3831234,8.7603744,15.8137452,10.7073681-13.595665,5.4220959-26.8886898,3.3293154-40.5210301-.9872158,3.2722446-.884781,6.1389569-1.7053573,8.7732702-3.1734681,6.8848106-3.8363679,9.6299731-9.9189857,7.98315-17.6559262-.4372687-2.0540016-1.0366955-4.0507494-1.8613875-5.9757928-.3882464-.9065484-.1941689-1.322507.8184727-1.3660418,3.3419369-.1439575,6.6829591-.3113288,10.3099758-.483273-2.4228585,6.32023-4.9066291,12.5197332-1.3161963,18.9343496ZM178.2128949,232.2668294c-7.8827273,3.6607653-16.2709522,5.5755653-24.7950862,6.8999015-17.274082,2.6834271-34.6028569,4.6713948-52.1317456,4.8605335-8.8495476.0954839-17.6825409.7188731-26.5522096.2593797-24.0273736-1.2442175-47.5562005-4.9538223-70.1435414-13.5795681-.3657473-.1397504-.868867-.0782895-1.0988881-.7624079,3.0023471-.7411893,5.9924385-1.4593307,8.9701829-2.2250312,1.0790414-.2776716,1.1801958.269989,1.1826652,1.1191007.0043901,1.503963.5881772,2.545323,2.2935345,2.5850165,11.9855172.2780374,23.5351376,3.2555989,35.194784,5.6039178,9.0702398,1.8269986,18.29715,2.0702814,27.5218652,2.1355836,9.9931595.0707898,19.988514-.1117637,29.9697837.6839355,6.9536798.5540628,13.8737024-.1873094,20.7626287-1.0750171,6.7732298-.8727083,13.577373-1.3234216,20.3895647-1.640238,6.257946-.2908418,12.3102906-1.6746268,18.3488247-3.1643222,2.9883537-.737348,5.0993347-2.583919,6.1869733-5.4775205.3562355-.9478882.8232286-1.3060443,1.8491319-1.1461728,2.5939796.4044347,5.2014952.7217998,8.2568888,1.1355634-2.1415285,1.8189502-4.1610498,2.837994-6.2053566,3.7873455ZM68.3607598,205.5748694c-.0313707,1.1419656-1.4618001,2.3913049-2.527214,2.2638101-.8830433-.1055445-1.7415753-.4657127-1.5863682-1.5454857.1699321-1.1816591.7887483-2.2146048,2.140431-2.2221045.9871244-.0053047,1.8801367.4216291,1.9731512,1.5037801ZM128.0350941,202.4688985c-.0843258,1.1522091-.9265781,1.8974226-2.1188465,1.9277872-1.1276064-.0395106-2.1067738-.2990732-2.0933292-1.5394494.0142677-1.318117,1.0232509-1.86468,2.1850633-1.8924838.9774296-.0232308,2.117749.2634039,2.0271124,1.504146ZM28.9011193,205.8585773c.0019207,1.0997112-1.283911,2.2352747-2.4597167,2.1758259-.8154545-.095301-1.6309091-.3722409-1.4532029-1.4832932.1948091-1.2171455.8092353-2.3560015,2.11656-2.4719723.9802649-.0867038,1.7942561.623755,1.7963597,1.7794396ZM144.636673,213.9575153c-.132708,1.1736107-.7876508,2.2667368-2.0263808,2.3556356-.8883479.0636559-1.7204481-.666924-1.586917-1.7538309.1442319-1.1747082.9136822-1.8643142,2.0045219-2.0326.9514551.1390187,1.7152349.4894922,1.6087758,1.4307953ZM41.5513655,217.1981148c-.0096033,1.0521522-.6907035,1.5899351-1.7420326,1.6557861-1.0602007-.1245681-1.6432561-.7300312-1.5843561-1.7847443.0535039-.9597779.6499125-1.5604851,1.6284397-1.5520708,1.0497743.009146,1.7074608.635096,1.697949,1.681029ZM93.0087788,215.2822173c-.0770091,1.1077597-.7889312,1.7439533-1.8264499,1.771757-.7116478.0192065-1.4813725-.3940083-1.4237529-1.2694604.0730763-1.1123327.8452704-1.7454166,1.8257182-2.0774153.9117616.1960896,1.4895124.6393032,1.4244846,1.5751187ZM115.854036,214.2549422c-.1275863,1.0137391-.6576866,2.0106497-1.8259926,2.0717448-.8016441.0417056-1.5084446-.5160155-1.4355512-1.4540261.0819479-1.0563594.7698162-1.6570666,1.7509957-1.8630338.7559143.1935287,1.6248727.3373033,1.5105481,1.2453151ZM164.3934281,210.2338257c-.096307.7907604-.5844274,1.3995161-1.1956525,1.4280515-1.0687064-.0464615-1.6098734-.4009593-1.5679848-1.1798299.044175-.8220396.4717491-1.4944512,1.4028086-1.4915245.7666151.002195,1.4698486.3497418,1.3608286,1.2433029ZM60.5490967,220.2356738c.1087456.7719197-.3409617,1.2674483-1.0912055,1.3386039-.6863135.0651193-1.1505628-.3888866-1.2486991-1.0278239-.1206353-.7852728.4211718-1.1672085,1.1102291-1.3728099.6959167.0276208,1.1385816.4148611,1.2296755,1.0620299ZM85.2885754,130.6362797c-.0899049,1.0020323-.7574691,1.7033452-1.7631598,1.6594445-1.0338603-.1617007-1.8762954-.4360798-1.7201737-1.5242671.1290496-.8994145.6057375-1.7404778,1.6925529-1.6676759.9065484.0609121,1.8917521.4066298,1.7907806,1.5324985ZM73.3616839,142.9595575c-.0261575,1.0378845-.7959736,1.6510302-1.7942561,1.8004753-.9863927-.1093858-1.7201737-.4823584-1.7306916-1.5003047-.0107008-1.0296531.6235721-1.7148691,1.6306347-1.7254784.8952074-.0096947,1.9227569.2959635,1.894313,1.4253077ZM89.7111085,145.3984215c.0233222,1.1117839-.7789621,1.6471889-1.720631,1.6826753-.8427095.0314621-1.7714826-.3709605-1.7996522-1.3782974-.031828-1.1368439.8923721-1.5703628,1.7896831-1.814926,1.0537985.049937,1.7093815.4988211,1.7306001,1.5105481ZM54.7814661,140.0306526c-.096307.9305108-.5977805,1.5705457-1.5641435,1.5976178-.9399312.0263404-1.6033797-.4821755-1.6568836-1.4873174-.0577111-1.0832485.5708913-1.7166983,1.5985324-1.724015.9497174-.0069509,1.476891.651193,1.6224948,1.6137147ZM63.8948749,130.4193373c-.301634.905085-.9215478,1.5226208-1.9222082,1.4249419-.8767325-.0856063-1.6633773-.6014389-1.5089019-1.6001786.1370066-.8860614.9001462-1.4534773,1.7964511-1.4051866.8593552.0464615,1.5688994.5099792,1.6346589,1.5804233ZM39.6960144,138.2519447c-.1226474.9947155-.6574122,1.6051175-1.6316408,1.5937765-.9797161-.011341-1.552894-.6133286-1.5166759-1.6133488.0327426-.9034388.5702511-1.4348195,1.4838419-1.4589649,1.0012092-.0265233,1.5172247.5507702,1.6644748,1.4785373ZM132.3315956,138.2695049c.053321,1.0305677-.7580179,1.3821387-1.5782283,1.6426159-.8150887-.1606032-1.6246898-.3726068-1.6342016-1.3612859-.0096033-1.007154.7567374-1.5182308,1.6154524-1.610788.8441729-.090728,1.5494185.4097394,1.5969775,1.329458ZM115.247201,140.9346401c-.176883.8783788-.7433843,1.5004876-1.6659381,1.435917-.7585666-.0530466-1.6009103-.4660786-1.5496929-1.3934797.0547844-.9921547.7775902-1.6042029,1.7827322-1.5650581.8412462.0325596,1.4153386.5317466,1.4328989,1.5226208ZM141.7489249,128.6830667c-.0943864.8582577-.6413153,1.5729236-1.6391405,1.4992071-.7966138-.0587171-1.5699055-.3952888-1.5092677-1.3784804.0588086-.9533757.7579264-1.3711636,1.4764337-1.535791.9660886.1801756,1.7787079.444677,1.6719745,1.4150642ZM101.6059891,133.4993336c.0120727,1.0898336-.5169301,1.6510302-1.3687856,1.7446849-.8730741.0960327-1.5042374-.3694971-1.5908497-1.3093368-.0925572-1.0056907.4326958-1.6488352,1.4105827-1.683224.8550566-.0299988,1.4390267.4841876,1.5490527,1.2478759ZM121.1774469,126.0539666c-.2259054.7799682-.6537538,1.4350024-1.5710945,1.4002478-.8027416-.0303646-1.6342016-.2913906-1.5514306-1.3261654.0673143-.8408803.5884516-1.4931708,1.508536-1.454209.8043879.0338401,1.5258219.3568757,1.613989,1.3801266ZM41.6808724,128.9173864c.0450896,1.0625786-.6893316,1.4106742-1.4652756,1.4794519-1.0271837-.009146-1.7750495-.2809641-1.688986-1.2915937.0687777-.8072232.5033026-1.5120115,1.4922562-1.447258.8042965.0526808,1.6191108.2520629,1.6620054,1.2593999ZM75.6295182,122.5680722c-.0212186.8224055-.6888743,1.1940976-1.4949085,1.1454411-.8441729-.0508516-1.5631375-.4229096-1.5264621-1.3554325.0296329-.7523474.5290943-1.2881182,1.4081133-1.3020201.8786532.1302386,1.6386832.526259,1.6132574,1.5120115ZM145.4234092,143.7446475c.1029836.9226453-.4220864,1.5156699-1.2772345,1.5837159-.8486544.0678631-1.4219237-.4532742-1.5837159-1.3859801.095301-.8207592.5011991-1.4053695,1.426954-1.4353683.8278016-.0270721,1.3426282.4190683,1.4339964,1.2376324ZM112.1021769,73.1811232c-1.0135562-.1101175-1.6087758-.6407665-1.6745354-1.6014591-.0729848-1.0671516.5129059-1.7501725,1.5672531-1.787671,1.029836-.0367668,1.7253869.5750985,1.7605989,1.6272507.0363095,1.0856265-.7403661,1.5405469-1.6533167,1.7618794ZM106.4176831,76.7833543c-.1086541,1.0366041-.6395776,1.6724318-1.7095644,1.6232265-.9450529-.0435348-1.5772223-.6211942-1.5909412-1.5679848-.014725-1.0082516.5824153-1.7132228,1.6208485-1.7234663,1.0270923-.0102435,1.5976178.6336327,1.6796571,1.6682246ZM86.8206166,81.0098893c.0263404,1.0058736-.6875939,1.5603022-1.5931362,1.587923-1.0259947-.0766432-1.904465-.3051095-1.8679726-1.3568959.0285354-.8222226.4166903-1.6321895,1.5180478-1.5670702.9183467.05451,1.9134281.201943,1.943061,1.3360431ZM129.6453333,85.1025272c-.0912768,1.0675174-.69299,1.6762731-1.7175214,1.6409697-.9327973-.0320109-1.5530769-.6319864-1.540364-1.60841.0136275-1.0572739.6648204-1.651579,1.7001441-1.6290799.9681008.0208528,1.459788.6554001,1.5577413,1.5965202ZM137.6625062,75.5223082c-.2413621.9526441-.8444473,1.60841-1.8618448,1.5657898-.8969451-.0376814-1.654963-.4986382-1.5750272-1.5679848.0743567-.9947155.8106072-1.5162186,1.6975832-1.488232.8310941.0261575,1.6556947.3790089,1.7392888,1.490427ZM115.4285656,80.9934265c.0237795.925572-.5339416,1.5378031-1.5855451,1.6091417-.9339863-.0378643-1.5086275-.5416242-1.5704542-1.5174991-.062284-.9830087.4671761-1.6153609,1.4260394-1.6907237,1.0698954-.0841429,1.7040768.5900979,1.7299599,1.5990811ZM60.0456112,82.2603261c-.1669139,1.0784926-.9322486,1.5736553-1.8699847,1.6162755-.792864.0358522-1.6326468-.3080362-1.5510648-1.3327505.0867952-1.0891019.8135339-1.7743179,1.8946788-1.7538309.8238688.0157311,1.432716.5487581,1.5263707,1.4703059ZM125.6406795,76.0516769c-.348187.9350838-.8552395,1.6140805-1.9545849,1.5035972-.8168264-.0823137-1.4171678-.4744928-1.2733017-1.3726269.1414881-.882403.6125055-1.5678019,1.6613652-1.5231696.8964878.0382301,1.4276857.4962602,1.5665215,1.3921993ZM72.2486195,78.417556c-.0256087.9211819-.5447339,1.5160357-1.4097596,1.5593876-.9605096.0481078-1.5957886-.5359537-1.5895693-1.5434736.005762-.9237428.6065606-1.4580503,1.4895124-1.4545748.8658488.0034755,1.4602453.4814438,1.5098165,1.4386608ZM82.0612376,74.1848018c.017103.7150318-.4216291,1.2197063-1.2049813,1.2531806-.7627738.0323767-1.2660764-.3627291-1.3467438-1.1072109-.0896305-.8267955.3602597-1.3219583,1.1819335-1.4618916.8677695.0215845,1.3508595.5260761,1.3697917,1.3159219Z"/>
  </g>
</svg>