<?xml version="1.0" encoding="UTF-8"?>
<svg id="Layer_2" xmlns="http://www.w3.org/2000/svg" viewBox="0 0 108.2370768 73.2070742">
  <g id="Layer_1-2" data-name="Layer_1">
    <path d="M106.4395968,47.8431622c-.9973638-.8084927-2.1426171-1.3533678-3.3414136-1.7791295-2.8210383-1.0018183-5.6977579-1.785544-8.6837466-2.1133065-.2137717-.0235198-.341616-.0623631-.3167153-.3394333.2167117-2.4122038.0028954-4.804095-.3485651-7.1908191-.1915883-1.301072-.5480378-2.561697-.8591405-3.8346165-.3140872-1.2852139-.0665058-2.4285964.9283635-3.3613698.1376442-.1290025.2561786-.2797429.3745348-.4276325.8910793-1.1134482.9660041-2.5066393.1921674-3.6990213-.497301-.766264-1.1237826-1.4261545-1.8437198-1.9750386-1.6687468-1.2723849-3.3560244-2.5210719-5.0549728-3.7529208-1.8925857-1.3722995-4.0006804-2.3915794-5.9938935-3.5996413-1.1096619-.6725412-2.2488125-1.2852139-3.4688125-1.7459434-3.7339447-1.4101182-7.5524358-2.5757732-11.3070494-3.9260675-1.579434-.567994-3.1882677-1.0422206-4.8854789-1.0888148-1.083603-.0298006-2.1276945.0676194-2.9232692.9585205-.1479787.1657076-.3724857.3034409-.7224317.3584541.6306689-.4054045,1.0494815-.8913911,1.3983584-1.4246845,1.3325208-2.0368672,1.542818-4.3303584,1.4592069-6.6785509-.0196889-.5538732-.1199153-.5877275-.5931619-.3117708-1.2730977.7423879-2.4575507,1.6205045-3.6893996,2.4261909-.2831284.1851738-.4172981.1613867-.5593968-.133947-.1215189-.2525705-.3009464-.4856302-.5864802-.5555659-.287672-.0703812-.4459851.1862874-.6735212.3931547.0717175-.3178735.1154162-.5758785.1896728-.8247517.1088681-.3649576.0783993-.5973492-.3931547-.5483496-.1851292.0192435-.3174281-.1335906-.4608186-.2292734-1.2251672-.8175799-2.4844113-1.5793895-3.7656162-2.3051175-.1346152-.0762166-.2745757-.2019227-.4417088-.088021-.2004527.1365751-.0843683.3196108-.0337652.4751176.219518.6744567.2599649,1.3694041.2815247,2.0711669.0106908.3484314-.0211144.4808193-.4097254.2874047-.5330261-.2652213-1.0935811-.4778793-1.651107-.6902256-.4223762-.1608967-.5571695-.0559486-.5625149.3973864-.0013364.1155499.0176398.232347.0370169.3469169.1738148,1.0266744.5532941,1.9845713,1.0187899,2.9548517-.3704367.0631203-.7137454.1143917-1.0541142.1808529-1.5310135.2992537-2.9990403.7506733-4.2094631,1.7986402-.8749094.7574441-1.6439352,1.6129764-2.3218219,2.5503826-1.9461734,2.6913231-3.1063048,5.7189614-3.815373,8.9379652-.0457032.207669-.0976428.3615277-.3197444.4693267-2.2566525,1.0959865-4.4523673,2.3094829-6.5493703,3.682896-4.7203949,3.0915159-9.5187882,6.0503766-14.4573647,8.7824139-1.6956298.9380298-3.3613253,1.9320081-4.9585996,3.0337855-1.0689254.7373988-1.5718836,1.7322681-1.3602501,3.0440308.0417833.2588959.0843238.5177026.1272207.7764203.4096586,2.4718051.9523733,4.9303357.8161545,7.4602276-.1303834,2.4213801.0718957,4.8076587.7366193,7.1431559.1205835.4236235-.0119381.5723149-.3921969.723768-1.9511625.777133-3.857134,1.6529779-5.6317422,2.7875404-1.8259686,1.1674368-3.4494354,2.5428099-4.5295416,4.4695617-1.5575178,2.7784532-.917049,5.0447274,1.8698009,6.5660301,1.558186.8505433,3.2489158,1.3571987,4.9406034,1.849867,5.7206541,1.6656287,11.5868814,2.3404863,17.5211736,2.5308718,1.720085.0551468,3.4450032.0226289,5.1607896.135417,3.348719.2202307,6.6989526.3603695,10.0540415.3909274,4.1157403.037596,8.2238634-.1546604,12.3268193-.4571214,2.7334182-.2014327,5.4647873-.4336907,8.1872029-.755395,1.3891821-.1641931,2.771326-.3953819,4.1630917-.527948,1.9305827-.183882,3.8584035-.3821966,5.7764245-.6686213,3.7000013-.5524478,7.2895309-1.5249554,10.8278337-2.7361354,4.9343448-1.6888812,9.873055-3.3534408,14.5538048-5.6902744,2.6520789-1.3241463,5.2497683-2.7330173,7.5765347-4.5883188,1.5271381-1.2176836,2.8974331-2.5817423,3.8134576-4.3381538,1.136478-2.179055.7481342-4.0487-1.1620468-5.5972643ZM63.2883125,16.3122126c.1462414.0505586.310969.0649021.4482569.2547977-.6846129-.0798247-1.3232554-.1543041-1.9618533-.2287834.0010691-.0322506.0022273-.0644121.0033409-.0966182h.9697013c-.6081291-.3159581-1.3271308.0424069-1.714851-.5879947.5181926,0,1.0283226-.0468169,1.52304.0202235.238316.0322952.7175763.0025391.5658113.5405542-.0237871.0844574.1028991.0758157.166554.0978209ZM59.9625342,17.8407316c.2044618-.4701285.3422842-.957006.4412633-1.5263808.3952037.4206835.2147517.9457806.4137345,1.3902512.1747057-.1776902.1204498-.40144.2267343-.5906674.2469578.1986709.1300716.520019.2789411.7825675.1994282-.2296743.0438769-.4840266.1355061-.7843048.3256243.5929392.614009,1.131578.7070637,1.7985066.2810347-.1964437.0937673-.4634467.2000518-.6973528.2915028.3920856.2756893.9014137.6066146,1.2702913.0408924-.2820147-.126508-.5132481-.0483759-.7930802.3467387.2978728.4771221.7216299.733657,1.1178581.0271725-.1492259.0461487-.2536841.0783102-.4302161.5297298,1.0679677,1.6674105,1.5216145,2.1901912,2.5703387-.7470206-.1757302-1.4598305-.4085227-2.1640433-.6653249-1.0556732-.3850475-2.0782495-.8399861-2.9778369-1.5297217-.1844611-.141386-.3625522-.2938192-.5276362-.457255-.6374843-.6311143-.6444333-.6502687-.2941755-1.4555097ZM59.565905,18.0875112l.3049554-1.8430962c.0387987.0041427.0775975.0082854.1164408.0124726.213549.6681758-.0685103,1.254656-.4213962,1.8306236ZM64.1072733,18.9318181c.5293734.1523441.8948211.4240689,1.3000474.8558441-.6017146-.1476669-.9742449-.400371-1.3000474-.8558441ZM62.5961269,17.3891338c.1992055-.0487768.3366715.067263.4846056.1170199.5502651.1850847,1.0587023.4965883,1.6485679.560065.2243289.0241434.2123908.211099.2717248.3458033.0688667.1562641.1154608.322328.1903856.5377924-.9751803-.2449087-1.8254563-.7607404-2.595284-1.5606805ZM62.1349074,16.8696048c.734147.2617022,1.4747086.4343143,2.243868.4961874.20317.016348.2952446.1945728.3858493.4593041-.9027946-.3937337-1.8457243-.4475442-2.6297173-.9554914ZM64.2076779,17.1024418c-.0392887.1078881-.1475778.0735884-.2243289.0577304-.6206017-.1282898-1.2359025-.2749766-1.7963239-.61147.5202862.0170608,1.038167.0649021,1.5431298.1970673.1236571.0323843.2440178.0884219.3556477.1516759.0707375.0401796.1581349.1053045.1218753.2049963ZM60.1773304,14.8295304c.9803476-.6790003,1.4804549.1557295,2.1144201.5377924-.7304053-.0473068-1.458806-.1000482-2.1144201-.5377924ZM60.3060656,13.6833416c-.2032591-.1421878-.4447378-.2137272-.6922747-.2512787-.0878874-.013319-.1820556-.0250343-.2057982-.1284234-.023208-.10085.045926-.1739039.123078-.2112772.4631795-.2241953.8655104-.6002446,1.4278472-.580823.0420505.00147.109759.0144771.1228553-.0056572.4812202-.7399379,1.309001-.6059909,2.0066656-.7897393.2036154-.0536768.4281671-.027707.643186-.0383087-.4270534-.1881583-.8543741-.0490887-1.2950138-.0408924.7135672-.3980546,1.6388126-.3229516,2.2332663-1.0037783-.1456623.6849248-.3615277,1.3373762-.8392288,1.8317372-.1733694.1793829-.339166.3889229-.551156.5401088-.2974273.2121235-.6139645.3894129-.9432415.5458106-.3165372.1502505-.6402461.2698539-.9905484.3253125-.3746685.0593786-.7167745.0329633-1.039637-.192791ZM58.4572677,10.813571c.3730203-.2790302.7328107-.579843,1.1608441-.7696495.2299416-.1019191.4514196-.2215671.7443033-.1638367.1877129.0369724.4237571-.0296225.6024719-.1853965.1862874-.1624113.3805929-.2771593.5545859.0404915.0928319.1694048.138446-.0102899.193771-.0571513.2826384-.2389842.3003228-.2407215.5187717.0173726.0471732.0557704.0932328.0469505.1471769.0268161.2194289-.0818738.4685694-.3419278.5941419.1184898.0111808.0409815.1764875-.0571513.2579159-.1162626.1308734-.0951037.2805893-.1364415.3899474-.0042318.0944355.1140799-.0258361.2337279-.1049481.2959573-.3917292.3082072-.7764203.6340098-1.2036074.8856002-.3011246.1773784-.0096217-.1671776-.176443-.20268-.0612495.2609449-.2552877.412309-.492891.5479042-.7319198.417699-1.4552869.8507215-2.1757586,1.2881093-.2107427.1279779-.3361815.1571104-.4554732-.1204944-.1773784-.4127545-.396941-.8084037-.6155236-1.2019592-.091451-.1646385-.1097145-.2715912.0607149-.3990791ZM58.4965119,9.0176481c.1149708-.0458814.2227698-.1403169.3574741-.0531423-.1141244.132477.0242325.3147554-.1001373.4541368-.2189835.2454878-.4741376.4150708-.8009201.4816211-.0367051-.1657521.1535468-.1754184.1600058-.2993428-.1257061-.0346115-.2126581.0717175-.3231298.0918964-.1591149.0290879-.3743121.1817884-.4570768-.0280634-.0845911-.2144399.1891828-.1989382.3107463-.2744866.0954601-.0594231.2234825-.0648576.2898547-.1743493-.2300752.0036527-.4216635.1891383-.6801139.1495823.0009354-.3587659.1453951-.60363.4588141-.7749503.3742675-.2045954.778113-.3180962,1.1767467-.4536023.141876-.0481977.321838-.0352797.4356061-.2283825-.6542778.0685548-1.2261472.2995209-1.8009566.5956119.1952855-.3884329,1.2030283-.8141054,2.2523761-.9758931-.1451723.7336125-.7080436,1.1150964-1.2792894,1.4893639ZM59.6109846,7.2450667c-.6096882.3049109-1.2510479.5250971-1.9627442.7442588.1004491-.4113736.2758675-.6504469.6125836-.7690704.6928538-.2441069,1.2773294-.6827866,1.8830085-1.1071673.0712721.5221571-.1237907.927428-.5328479,1.1319789ZM59.9593269,5.9424802c-.5350752.4016182-1.0595487.8130363-1.7848312,1.11425.2860683-.3159581.3070936-.6766394.593251-.8905447.2674931-.2000073.5168117-.4240689.7783803-.6321834.267983-.2131926.5410442-.4198817.8366007-.6484869.063254.473603-.0714057.7927683-.4234007,1.0569651ZM60.1764395,4.6314302c-.2651767.280812-.529908.5612677-.8370016.8864466.0733212-.5387279.5525369-1.0093018.8370016-.8864466ZM58.5757575,3.9336319c.1698948.1898956.1139462.4403279.1766657.7161954.2296743-.4460742-.037596-1.0794603.6085745-1.2940338.0171944.6929874-.2912356,1.2199109-.7175317,1.695563-.1156835.1291361-.2320797.1793829-.3320834-.0250789-.1427669-.2917701-.0085081-.8588732.2643749-1.0926456ZM56.2541584,6.4051697c.0151899-.126597.0174617-.2998773.1676676-.3088754.1517205-.0091317.168113.1766211.2206317.289721.0911392.1962655.1697612.3983664.2536841.5979728-.0662385-.4650058-.236267-.9166036-.2180035-1.4021447.0078399-.2089163.0285979-.4175208.2228144-.5405988.2153308-.1365306.3393888.0797802.5251862.1706966-.0105126-.1105608-.0269052-.2026355-.0263261-.2945764.0008464-.1441033.0131408-.288162.0206244-.4322652.251635.0730093.3594786-.1931028.560065-.2373361.1551504-.0342106.1639258.091451.1731021.1882029.0636549.6715612.1828574,1.3160836-.2885183,1.9510288-.5136045.6918292-.9862275,1.4398298-1.0794158,2.4300664-.3195662-.4769884-.6098663-.8572696-.8398525-1.2710486-.1746166-.3142208-.1573331-.6552132.1744384-.8892084.1009391-.0711385.121608-.149315.1339024-.251635ZM56.0608328,4.8057795c.1864211.2621922.1466869.5430933.0699357.8233708-.0343442.1252607-.0865956.2468687-.1419205.3649131-.4129327.8811457-.3774302,1.7119555.2607222,2.4840995.10036.1214298.1726121.2660231.2320352.435027-.4633577-.4026873-.9801694-.7169081-1.5103446-1.0113064-.1893165-.1050818-.1069972-.2835293-.0812056-.4314189.1706521-.9774967.4833584-1.8949912,1.1707777-2.6646852ZM55.3834807,4.428572c.0613831-.088511.1190689-.2413451.258005-.1797393.1603622.0711385.0966628.2253089.0488214.343086-.30059.7394034-.7411406,1.4148846-.9846239,2.1818613-.0901146.2838856-.1515423.5842529-.3271389.8462224-.1345261-.1487359-.1110063-.3117708-.0900256-.4686585.1336797-1.0001256.5236271-1.898733,1.094962-2.7227719ZM52.9156847,2.1639905c.4476333.1015627.4222871.5058982.544786.8340171.1201826-.1053936.0133635-.333687.1910983-.338676.1595604-.0043654.1721221.1753293.2203198.287182.0655703.1520323.10575.3149781.1882474.5705776.0575522-.3122608-.0141653-.5036264-.0576858-.7093354.5924047.3498123.6183299.4145363.4920001,1.0432452-.1827238.9095209-.358855,1.8203782-.5377479,2.7306118-.0354579.0025391-.0709157.0050336-.1063736.0075727-.3006346-1.4727486-1.3201818-2.7885204-.9346443-4.4251948ZM52.824991,6.1833799c-.1019191.1445487-.2355988.0274398-.338587-.0364379-.2945319-.1825456-.4829129-.4480787-.6006901-.8335271.2812575.1321206.4335125.4390806.7520096.376673-.0015591-.0017818-.0033854-.0034745-.004989-.0053009.0491777.0451241.1009391.0877983.1460187.1366642.1003155.1089127.1189353.2588068.0462378.3619286ZM51.926339,1.9043819c.0829429.1130553.1658412.2261107.2542186.3465605.1254389-.1547495.0072163-.3117708.1257952-.517079.5246071.4832248.3041091,1.0773667.2779611,1.644158-.2403206-.4772557-.4806857-.9545114-.7209617-1.4317671.0209807-.0139871.0419614-.0279297.0629867-.0418724ZM52.3031011,4.7436837c.1310516.2431715.2707003.4817102.3998364.7258617.0461487.0872638.1108281.1990718-.0759048.2090945-.3566277-.4061618-.8488951-.6937001-1.0610187-1.2281517.3486987-.1190244.5783284-.0015591.737087.2931955ZM51.039447,2.8109183c.1347933.1033.2403206.1751066.3348006.2593859.0841011.0750139.1798729.1510077.1635694.285712-.0087754.072163-.0671739.0891792-.1247262.0927428-.1408515.0086417-.2527041-.0469505-.326248-.1692712-.0765729-.1272207-.1147035-.2616577-.0473959-.4685694ZM51.2927302,3.9476636c-.5568132-.186822-1.0180327-.5404206-1.4980502-.8610559.614989.085482,1.1184372.3652694,1.4980502.8610559ZM48.3443821,2.9452217c.8429261.2939083,1.5499006.7228326,2.2908631,1.0807967.4683912.2262443.7651949.5389061.8794976,1.0485906.0922974.4118636.2964473.7828793.5663904,1.2009792-.8906784-.1289134-1.6955184-.2455769-2.5004475-.3616613-.1022754-.0147444-.191321-.0349679-.2532386-.1394706-.5087936-.858205-.837937-1.7759222-.9830648-2.8292346ZM37.1914586,22.7783727c.0338542-.5552096.1612976-1.0950065.3337315-1.6223309.7729458-2.364407,1.400452-4.7784371,2.3871695-7.070102.6371725-1.4797422,1.4044165-2.8835796,2.5347027-4.0540454,2.0419453-2.1144647,4.5155322-2.9799751,7.4221861-2.4659251,3.2980713.5831839,5.938524,2.2141565,7.8249625,5.0189804.4752957.7066627.7208281,1.4548415.6006455,2.3173228.062274,2.1396772-1.0978574,3.6387519-2.6660215,4.9002233-1.6330662,1.3135891-3.5295719,2.1402117-5.4748099,2.8596143-2.6811223.991662-5.4192622,1.7869694-8.2431069,2.2541579-1.1115773.1839711-2.2328654.241256-3.3325046-.1121644-1.0565641-.3395224-1.4547078-.9155791-1.3869548-2.0257309ZM13.9289175,33.8872857c4.490342-2.6563107,9.0815116-5.1340848,13.6382035-7.6726184,2.5595811-1.4258872,4.9974429-3.0577062,7.5867578-4.4308075.5396188-.2861574,1.0842266-.5625595,1.6788586-.7910311.0527413.2162217-.055904.3819293-.1135008.5450533-.7702731,2.1802132.2642858,3.7541681,2.6593398,4.0527091,1.7909339.2231707,3.5516217-.0204016,5.3005051-.3580531,3.194014-.6165926,6.3323913-1.4544851,9.3669786-2.6289155,1.9076865-.7383343,3.5982604-1.8517825,5.026464-3.3372264.0961282-.0999146.1721221-.3009909.3576077-.0686439,1.0394143,1.3017847,2.4603125,2.0294727,3.9807243,2.5869095,1.2580414.4613086,2.5403154.8503205,3.8546618,1.1237826.0428078.0089536.0849029.0231634.1281116.0282416.1438805.0169271.3410369.0858829.4179662-.0220498.112209-.1573777-.0742566-.2952446-.1704739-.4039791-.9898357-1.1183481-1.570525-2.4351-1.9472425-3.8651744-.415249-1.5765386-1.5020592-2.6297618-2.8183656-3.4869869-.450796-.2935519-.9072491-.5784175-1.4216554-.9058237.2777384-.1083336.5070564-.2039718.7405615-.2878056,1.0780349-.3872747,1.8876412-1.0761194,2.4016021-2.1076938.2013436-.4040682.440996-.7900065.6255017-1.2011129.1303388-.2904338.3001891-.3286534.5845648-.2530159,1.1277471.3000109,2.2258273.6887556,3.315533,1.0996838,2.099453.7917883,4.2561018,1.41239,6.3732391,2.1509025,1.2406689.4327998,2.4517153.9333525,3.5853869,1.6001029,2.2476544,1.321919,4.5031932,2.6272228,6.8026089,3.8600072,1.3501606.7238571,2.4933649,1.7645632,3.7297574,2.7866495-.5422469.1893165-1.0297035.3645122-1.5203227.5301752-4.3821643,1.4793413-8.8789875,2.5191119-13.3909116,3.5040031-5.9250268,1.2934102-11.8984741,2.3103738-17.9061765,3.1241229-4.5778953.6200672-9.1357452,1.3738586-13.7105669,2.0118328-3.7387555.5213553-7.4921664.9289426-11.2432609,1.3526551-5.3741827.60706-10.7189656,1.4061092-16.0207402,2.4834759-1.5646005.3179626-3.13468.6089309-4.7022651.9122827.8769585-.7476442,1.8349444-1.3546151,2.8105479-1.9316517ZM18.1389597,34.8734241c4.4003832-.7433679,8.8385629-1.1759004,13.278569-1.608611,4.6123731-.4495487,9.2139664-1.0096582,13.8098133-1.6111946,3.7564399-.4917774,7.5203188-.9329516,11.2508781-1.6032656,4.6442674-.834418,9.3450179-1.3387571,13.9443839-2.4396435,3.6830742-.8816357,7.3322051-1.8896903,10.9944322-2.8492799,2.7339527-.7162845,5.4603328-1.4538615,8.0590913-2.5893149.1520768-.0664612.2860683-.1054381.4527114-.0135417,1.353056.745996,2.6003176,1.6174309,3.5001277,2.9072775.2090945.2997882.3644676.6279962.4998846.9683204.3340879.8397634.1948401,1.5978311-.3682985,2.2895267-.1380897.1695385-.2665576.3519059-.4278107.4968555-.9967847.8958901-1.166635,2.0116547-.9586541,3.2728142.244686,1.4834394.6949474,2.918592.9683649,4.393746.4424215,2.3871695.7238126,4.7860988.4872784,7.2182588-.0408033.4193471-.0798693.8499196-.2060209,1.2479742-.5723149,1.8048765-.4585468,3.6238293-.1900292,5.4557892.1437023.9806148.2517686,1.9662187.2572031,2.9608207.0014254.2701212-.0641449.4323543-.3493223.5043391-.4226435.10673-.8368679.2474923-1.2530524.3788111-.1899401.0599576-.3170717.036616-.3190762-.19778-.010869-1.2937666-.4781466-2.518221-.5801993-3.7968423-.0881992-1.1040937-.1424996-2.2108601-.2184489-3.3159339-.0122944-.1785366.0140762-.3723076-.2309216-.4664758-.1494487-.057374-.1076209-.2544414-.1222316-.3961837-.3535541-3.430771-.234307-6.8746383-.289231-10.3136947-.0030736-.1929692.0751475-.3263371.1814766-.470574.2915474-.3953819.2591631-.649556-.1053045-.9890784-1.032688-.961995-1.0922002-1.3046356-.4442033-2.5589352.0400905-.0775975.0698021-.163124.1215635-.2319016.9806148-1.3049028.8397634-2.7658024.5946319-4.2416692-.0614276-.369813-.3215707-.5374806-.6504469-.6254126-.5816248-.1555513-1.177504-.1935928-1.7765459-.20562-1.5771177-.031627-3.1496472.0218271-4.7099713.2704776-.7700949.1226771-1.4745304.4457178-2.1817277.755395-.973354.426118-1.9325426.8866248-3.0035839,1.0368307-.9685431.1358624-1.92105-.0071272-2.873156-.1356842-2.1516152-.290701-4.2425601-.0501577-6.2855745.6668395-1.1813348.4146254-2.3595515.8387834-3.5475681,1.2332744-1.1937184.3963619-2.4231173.5030918-3.6705125.3384533-1.5614823-.2061545-3.1112939-.1339915-4.6568291.1486914-2.0980721.3837111-4.2295084.4638922-6.3456212.6826975-1.4240163.147355-2.8209492.4437578-4.2165458.740517-1.473105.3133299-2.9500853.5659895-4.4606527.5276807-2.1447998-.0544341-4.1880815.4849175-6.2257505,1.047967-2.006532.5543187-4.0369847.8933956-6.1265041.8296071-1.5516824-.0472178-3.028596.3668731-4.5081822.761275-.9143095.2437505-1.8255677.5006864-2.774021.5931619-.7331225.0713612-1.4580487.0020491-2.1787432-.1015627-1.4107864-.2028582-2.7887209-.027707-4.1604858.2949774-1.7387717.4089236-3.484871.5045173-5.2816626.0681539,2.4568602-.4492814,4.8716253-.9186081,7.2964799-1.3283335ZM10.7041005,67.3493525c.6425401.3194771,1.3553724.4107945,2.0442616.3975201,3.716483-.0713612,7.2839628.7705404,10.8532021,1.6527997,1.4943752.3693676,3.0163461.6271944,4.5257775.9357134l-.0005345.0678867c-1.2038301-.0985337-2.407482-.1992055-3.6115126-.2950664-2.470001-.196711-4.9413161-.3778312-7.4100476-.5891529-3.5025999-.29961-6.9715683-.823549-10.3859245-1.6705286-.9789444-.2428596-1.9071074-.6285307-2.7460467-1.2061019-.8940861-.6155236-1.5199218-1.435598-1.8839217-2.4552343-.2835961-.7942383-.1844833-1.547317.2651322-2.2576325.3650022-.5766803.8714126-1.0148254,1.4012092-1.4293617,1.0694822-.8366452,2.2108379-1.5660259,3.3754238-2.2613742,1.2883098-.769204,2.5709401-1.5479406,3.8604749-2.3150956.1389806-.0826756.278607-.2895429.446631-.178982.1494932.0983555.0948364.3248225.0896692.4949846-.0384647,1.2676632-.0826756,2.5351481-.1302052,3.802544-.0394001,1.0499269-.0557259,2.0971812.1204721,3.1398918.1007609.5963692.4360738.9273389,1.0250263,1.0283671,1.0537801.1808529,2.1171374.1935928,3.1814523.1935928,2.1230841-.0000891,4.2053872-.3630422,6.292479-.6947247,1.1628486-.1847729,2.3351631-.2993428,3.6246088-.3089645-.4512414.3383642-.8781835.5026464-1.2950806.6768176-1.7484157.7301825-3.5897078,1.0833357-5.4570142,1.333768-2.1957148.2944428-4.4179785.3325734-6.606633.6903593-.5613345.0917628-1.1214663.2061545-1.6162282.5058536-.4385015.2655776-.425628.5119118.0373288.7421206ZM25.0482986,62.939303c-2.7209233-.0571068-5.4144737.2673594-8.115218.5031809-1.4109423.1232116-2.8236887.2025909-4.2329161-.0156799-.5342734-.0827647-.8276026-.6095545-.6419611-1.1044501.075437-.2010764.2434833-.1205389.3729757-.1211625,1.1520019-.0058799,2.3040484-.0034745,3.4560949-.0034745,3.008328-.088021,5.9888376-.4570323,8.9673427-.8465342,1.837283-.240276,3.6838315-.3882547,5.5325849-.4779684,6.0235605-.2923937,11.9925087-.9958492,17.8990047-2.2317072,3.8098049-.7970892,7.6539985-1.3918548,11.5243402-1.814231,4.0658944-.4437578,8.0329433-1.3681568,11.9873415-2.3885058,3.9473155-1.0184781,7.8671466-2.1500116,11.8627935-2.9792623,1.7985957-.3731985,3.6268583-.5643858,5.4283494-.9182518.2937301-.0577304.644656-.3175171.862125-.1388915.1963546.1612531.2031254.553695.2927501.8444851.2831729.9180736.5598868,1.8382853.8525923,2.7533298.090961.2844647.0314488.4002819-.2789411.460774-2.1450671.4178326-4.2920051.8243508-6.4569838,1.1260099-3.0894223.4305725-6.1529193,1.0068964-9.2079082,1.6298145-2.4898458.5076354-5.0105168.774104-7.5370232.9977201-2.2815977.2018782-4.5340629.6102672-6.7971744.9423061-4.1089695.6029619-8.2176271,1.2049437-12.3399601,1.7140937-3.7639235.4648722-7.5478477.6977537-11.320992,1.0531342-2.9748969.2801884-5.9438248.6240762-8.9188999.901681-1.0581455.0987118-2.1277836.1358624-3.1903168.1135899ZM27.2350376,56.3235606c2.9156743-.0120272,5.7823713-.397431,8.6376202-.9244881,4.0690126-.7511187,8.135486-1.593733,12.2581754-1.9075083,3.4502817-.2626376,6.7753028-1.1481042,10.1799704-1.5980984,1.71886-.2271798,3.4378091-.4623777,5.1627718-.6322725,2.1527734-.2120345,4.2684853-.6047437,6.3524811-1.1694859,2.5681115-.6957938,5.1994324-1.0238235,7.8254525-1.3848167,2.7135511-.3731094,5.4275031-.7442588,8.1434151-1.0998174,1.1846312-.1551059,2.3752314-.2643304,3.561778-.4057164.3206798-.0382197.4705294.0310924.4754739.3981437.0085972.6405579.067753,1.2807594.1163071,1.9202482.0155908.2049073-.008419.3127954-.2606331.3287425-3.4235993.216489-6.7156124,1.1138936-10.0196082,1.9496479-4.5448428,1.1496188-9.0502633,2.4547889-13.6251295,3.4849378-2.3622242.531957-4.7664545.8231035-7.1692593,1.0907302-3.9711471.4424215-7.9078608,1.0884139-11.8191393,1.8935212-4.4600736.9179845-8.957565,1.5332408-13.5038333,1.8195764-3.4621753.2180926-6.93003.383622-10.3777727.7842602-2.6089148.3030846-5.2186091.5528932-7.8481036.50131-.8457324,0-1.6916207.0091763-2.5371972-.00294-.6611822-.0095326-.7007383-.053365-.7160618-.693121-.0171053-.7143245-.0199562-1.4290054-.0307361-2.143508-.0025836-.1709639-.0063031-.3179626.2450869-.2973828,2.0284704.1662421,3.9687639-.3455805,5.9020638-.8293398,2.9736274-.7442588,5.9949848-1.0699722,9.0468779-1.082623ZM23.9752973,55.714006c.8449306-.1948401,1.6944048-.3719512,2.5340345-.5875493,4.649791-1.1938075,9.3905875-1.7500861,14.1690691-2.0608324,3.7829888-.2459778,7.5658439-.4973901,11.3455809-.787022,1.0191908-.078132,2.0273345-.3008573,3.0403782-.4590813-.5054973.2713685-1.0761194.2542632-1.6171637.3545786-1.9365517.3590331-3.910254.4265634-5.8558483.70399-2.6823696.3825529-5.3498165.8688067-8.0294688,1.2723849-2.3919358.3602804-4.7401283.9701913-7.1483676,1.2312253-1.3788476.1494932-2.7632188.2101636-4.14906.2163108-1.4282481.0063254-2.8525317.0982664-4.2891542.1159953ZM55.0963879,51.8136411c2.156827-.477523,4.2856352-1.0808412,6.4651356-1.4566233,2.8989031-.4997955,5.8014588-.9784767,8.6982683-1.4901212,2.3084584-.4077654,4.5970942-.9258244,6.9176688-1.2666832,3.1877777-.4682576,6.3927053-.7459515,9.62191-.7791821-.4425551.0656594-.8845311.1350606-1.3277544.1959092-.4618431.0633431-.9258244.1115408-1.387133.178002-2.9266992.4216635-5.8468502.8961574-8.781033,1.2562596-2.8733787.3527077-5.6514311,1.1190609-8.4623131,1.7513334-1.8218036.4098145-3.6872169.5503987-5.5407812.7469315-1.9129874.2028582-3.8114085.4917774-5.7005643.8489397-.1663758.0314488-.3341325.0718957-.5034037.0152344ZM10.6053219,38.9292513c-.0517836-.4060727-.0547236-.8149963-.018553-1.2226727.031382-.3535986.2092949-.5657222.5865247-.5623368.4662754.0043654.9358471-.0228962,1.3981802.0225398,1.5111464.1486914,2.9944745.0380415,4.4648845-.3484314,1.1376584-.2989864,2.2978121-.3890565,3.4693248-.2221907,1.431834.2039273,2.8286555.0115817,4.1781702-.4559632,2.1469603-.7439915,4.3424969-1.0762085,6.6136711-1.0128655,1.7355644.0483759,3.4166057-.3416606,5.0754635-.8099182,2.1791441-.6150781,4.3629654-1.1201299,6.6593966-1.0742485,1.5765386.0315379,3.1266619-.3422842,4.6625309-.6815393,1.7859894-.394491,3.5860551-.6205126,5.4124914-.6828757,1.8553906-.0633431,3.6719379-.4475887,5.5007352-.7239462.8703658-.131497,1.7463889-.2150635,2.6148392-.1109172,2.2480998.2693194,4.3683999-.1859311,6.4627747-.9588768,2.0325463-.7500496,4.1321329-1.250647,6.3147515-1.2197327,1.0322871.0146108,2.0636387.1505623,3.0937877.2484723,1.5054892.1430787,2.9348955-.0851701,4.2638081-.8322798,1.5672287-.8811012,3.2652861-1.1985292,5.0436138-1.2064583.9473842-.0041872,1.8946794-.0476632,2.8417072-.0829429.3260253-.0121163.478993.0894465.4487023.4491923-.024188.2874938-.0249007.5939638.0483314.8696976.2408106.9069373.0165262,1.7260318-.3859384,2.5294464-.2411669.4813539-.4853629.9635986-.6844793,1.4629487-.331237.8306762-.1856638,1.5735095.5044282,2.1762041.0517614.0451687.1347933.0545231.2033036.0805375-.0281079.0388433-.0562159.0775975-.0842792.1164408-.6323616.0470396-1.2664159.0775975-1.8967284.1440587-2.5039221.2641522-4.9201795.9376734-7.3225833,1.6446034-3.5216429,1.0362961-7.1231551,1.6261618-10.7546907,2.0853322-2.9780596.3764948-5.9704182.6411815-8.934758,1.1236045-.9226617.1502059-1.8049656.4616649-2.6840177.7707185-1.8072374.6352125-3.701204.750406-5.5796244.9911275-3.6697107.4703067-7.3636539.4109727-11.0463272.5936965-2.1415035.1062845-4.2656344.4096363-6.4023271.5731167-1.2381743.0947919-2.4782196.0766175-3.7169284.0855265-2.6564443.0190653-5.2466056.5031809-7.8271452,1.0588359-1.1609109.2499868-2.338259.2791193-3.5134021.3821075-2.5590688.2242398-5.1189395.3516387-7.6869396.3666949-.3993687.0023163-.5679494-.0873083-.5950106-.5073682-.1098481-1.7045611-.5120899-3.3687643-.727688-5.0593382ZM11.3836799,45.4118931c.011604-.2487396.1362188-.2657558.3464937-.2439287,1.2475733.1296261,2.4971289.2160435,3.7536558.2117672,2.8142229-.0097108,5.5824308-.4189908,8.3166285-1.026229,3.3295646-.7394479,6.6826936-1.1823148,10.0964484-1.1801767,1.9577551.0012473,3.8889614-.351015,5.8346003-.5152972,2.0643069-.1743493,4.135652-.2249525,6.2062843-.2498978,1.5322162-.0185307,3.0578398-.0858829,4.5822607-.2563122,1.6396589-.1833474,3.2936168-.0800029,4.9396456-.1737257,1.4323462-.0816065,2.8393463-.270923,4.2122249-.7047028,2.8173856-.8903666,5.7225695-1.3682459,8.641607-1.7462552,4.9604482-.6423397,9.8803158-1.4791631,14.7200469-2.7649115,1.8153892-.4822448,3.6594653-.8517905,5.5128069-1.1663677.0574631-.0097999.1151935-.0184417.173013-.0258361.5571695-.0712721.5540959-.0712721.5425588.4899065-.0065481.3205462-.0011582.6413597-.0011582.9620841-.0309588,0-.0619176.0000891-.0928319.0000891,0,.4223762-.0065481.8448415.00294,1.2670395.0041872.1857529-.0624076.2487396-.2490069.2623704-2.9880823.2179144-5.8901035.9762494-8.8432624,1.4145728-3.5022213.5197517-7.0061353,1.0283671-10.5075547,1.5539097-4.4521.6682649-8.898721,1.372344-13.3342948,2.1428844-3.3598998.5836293-6.7149888,1.1756331-10.129189,1.3779567-1.9639024.1163517-3.8980041.5246517-5.8474293.7875566-3.2718343.4412633-6.5585466.6239871-9.8556824.6738776-2.4063907.0364379-4.8108882.1149262-7.2095057.323308-3.5499959.308519-7.0568721.8531269-10.4722305,1.904212-.361394.1111845-.7350379.1820111-1.0991492.2851774-.2626376.0743012-.3677417.0055236-.3721517-.2813466-.0171053-1.1101519.0805375-2.2148692.132232-3.3217247ZM11.4074892,50.9359253c-.2042836-1.1644077-.2140167-1.1595078.9355352-1.3488243,1.8687096-.3078063,3.6987763-.8088491,5.5743904-1.0893939,2.3377467-.3495896,4.6890129-.5589513,7.041504-.7601168,3.0796892-.2635285,6.1605142-.5144063,9.2416957-.7597605,2.7470044-.2188053,5.4895989-.4799284,8.2244425-.8182036,1.735609-.2147072,3.463868-.5165445,5.2052678-.6504469,4.3869752-.3375624,8.6700267-1.3076646,12.9937924-2.0305418,2.4590652-.4111509,4.9344339-.7055046,7.4109607-.9807039,5.0862434-.5651877,10.1527979-1.2420052,15.1415768-2.4169256,1.8506688-.4358288,3.7518072-.5114663,5.6312967-.7414079.3246889-.0397342.2695421.180942.2716357.3616168.0113144.9922856.0545231,1.9830567.1657076,2.9691952.0963064.8542851.1943946,1.7090156.3238425,2.5586679.049445.3246444.0194216.4595268-.3582313.4898174-2.8918649.2319906-5.7913471.3734657-8.6751494.7031882-2.3478362.2685176-4.6549582.7763312-6.9772701,1.1957674-4.1289257.7456842-8.2607022,1.4757777-12.3918106,2.2092565-2.0523688.3643785-4.0561836.9467606-6.0999998,1.3491806-2.2352708.4401942-4.4981596.6600686-6.7652356.8385161-4.709125.3706149-9.4358007.5154754-14.1304931,1.0699722-2.6506535.3130626-5.2537328.900701-7.8677925,1.4244618-4.5564914.9129954-9.0699967,2.0203855-13.6140823,2.9890623-.6022491.1284679-.6405802.0985337-.622673-.6605141.3740003-1.9340572-.3078509-3.9005432-.6589104-5.9018634ZM86.307014,65.9680103c-3.3784751,1.1916693-6.777931,2.3205301-10.2167646,3.3256447-2.3852095.697041-4.8407556,1.0399488-7.2991526,1.3459734-2.617601.3257134-5.2260703.7596714-7.8497295.9884548-3.1357937.2733285-6.2639256.6610486-9.4129491.7842602-1.9523652.0764393-3.8933269.3251789-5.8488993.3724857-3.34177.0808938-6.6789073-.0596013-10.0176482-.1470878-3.5286365-.0923864-7.0436422-.4365415-10.5745728-.5105754-3.5169434-.0738557-7.0015026-.5216226-10.4653928-1.1484606-2.264381-.4098145-4.5507228-.7065737-6.7600461-1.3769767-1.8892449-.5732058-3.6954355-1.3404498-5.3594382-2.4168365-1.3194468-.8533942-1.9217627-1.8052329-1.4033919-3.8939505.4384792-1.766746,1.6199032-3.0712033,2.9213092-4.269198,1.6063392-1.4787176,3.4593689-2.5639243,5.4660568-3.4014604.5644304-.2355542,1.1244508-.4816211,1.6880571-.7191354.0851479-.0359033.1808306-.1419205.2702326-.0262816.0740116.0957719.0824529.2138163.0276625.3316825-.0796243.1712312-.2425033.2479378-.3864283.3434424-1.4100514.9355352-2.9135584,1.7136482-4.3613172,2.5858404-1.3741927.8278253-2.7554012,1.6466525-3.9324151,2.7540425-1.4403866,1.3551497-1.6603055,2.6585379-.7193804,4.3982005.8708558,1.6101255,2.190169,2.696134,3.9289629,3.2798524,2.3443617.787022,4.7584141,1.244767,7.2032471,1.5719059,3.0704683.4107945,6.1649465.4414415,9.2509833.6051,1.8646337.0988009,3.7140553.3789002,5.5769072.4764539,2.2660515.1185789,4.4694726.6321834,6.7019816.9611041.6033628.0889119,1.2227617.1317643,1.8316036.1094027,2.5971103-.0952373,5.1920825.0240543,7.787901.0422287,1.9164173.0133635,3.8117203-.2241507,5.7075578-.4521323,2.1301445-.2561341,4.270178-.3843347,6.4105233-.4856302,3.2707206-.1546604,6.4984553-.6133854,9.7003093-1.2714049,5.3358294-1.0966102,10.6693424-2.2045348,16.002009-3.3164684,1.9839476-.4136454,3.911234-1.0404834,5.8568283-1.5976529.1371097-.0391996.2741303-.0786666.4111509-.1180444.010379.0295779.020758.0590667.0310924.0886447-.7221644.2624595-1.4422352.5309771-2.1668496.7865766ZM92.2937802,62.6329221c-3.8616108,1.3532788-7.7209498,2.7409463-11.708534,3.6626726-6.4705701,1.4958229-12.969159,2.874136-19.5341646,3.9087394-1.9350817.3050445-3.889006.3825529-5.8412821.4352052-2.3801759.0643231-4.7379456.3595677-7.103288.585322-2.6446399.2523923-5.2901707.3774748-7.9492877.1693603-1.5540433-.1216971-3.1181093-.1171535-4.6731771-.2539068-2.2121965-.1944837-4.368979-.7085336-6.5419758-1.1318007-3.4737793-.6766394-6.9076462-1.5476734-10.4044998-2.1125938-1.9760632-.3192099-3.9651112-.4675449-5.9621328-.5381933-.6022046-.0213816-1.1843194-.1402278-1.8583974-.3443333.9376957-.4669213,1.8454348-.6390434,2.7732192-.7251044,2.4376613-.2259325,4.8864811-.3512823,7.3008899-.7875566,1.8633865-.3366715,3.6560131-.8705885,5.2287208-1.9786022.125038-.0881101.2543968-.1222316.4052932-.130517,2.7241751-.1495823,5.4232045-.5448751,8.1340383-.8262217,1.8847458-.1955528,3.7777324-.3103899,5.6654182-.4791266,2.6570234-.2375142,5.3133341-.4837593,7.9685757-.7402497,5.849122-.5649204,11.6315156-1.6207273,17.4539996-2.3803986,1.979404-.2582722,3.9728843-.4066073,5.957901-.6239871,2.3633824-.2588959,4.6889015-.7483569,7.0205679-1.1958565,2.3354081-.4482123,4.6955833-.7147699,7.0541548-.9945129.2145735-.0253907.4347597-.0033854.6554359.0160362-1.9133883.5976165-3.9396537.5758785-5.8830654,1.0405725.413289.1995618.847826.2023236,1.2758595.2314561,3.1635007.2153308,6.1997807-.4210399,9.205681-1.3295808,1.6652278-.50327,3.3308565-.2717248,4.9220949.3446896,1.0423988.4038455,1.243297,1.1258317.7221199,2.1145537-.2809902.5331152-.6617613.9949583-1.0779903,1.4263326-.5669695.5874602-1.1408879,1.1683277-1.7159646,1.7479479-.4197926.423178-.9374952.6958828-1.4902103.8896538ZM102.907664,57.3823074c1.1232036-.9769621,2.1584306-2.0467562,3.2910777-3.1504044-.2831729.6480415-2.2511734,2.53497-3.2910777,3.1504044ZM106.7271352,52.23575c-.6328961,1.3462406-1.5993011,2.4288636-2.6535934,3.4420855-1.5704804,1.5095428-3.3024813,2.8189001-5.1128814,4.023933-1.4500306.9652022-3.0744997,1.5629969-4.695316,2.1746005.5823375-.6172163,1.1946093-1.1955893,1.7320008-1.844878.3817957-.4613086.7440806-.9358025.9961165-1.4832612.4448269-.9665386.1286461-1.8585088-.825509-2.3420899-.6909829-.3502132-1.439028-.465674-2.1982094-.5010428-.5953892-.027707-1.1930502-.0055236-1.8262136-.0903374.2497641-.1523441.4942274-.3143099.7503614-.4550723.9233299-.5072791,1.3815649-1.129128,1.1318898-2.3166992-.379702-1.8056783-.5821148-3.6550999-.4829129-5.5170832.0264152-.4960537.0990237-.9850693.1832138-1.4735504.0334979-.194751.0883774-.3078954.3367606-.2772484,3.7341228.4612195,7.3144761,1.411811,10.5991394,3.3086285.6721849.3881656,1.2867284.8520578,1.790533,1.4522579.4858975.5788184.6099554,1.186413.2746203,1.8997575ZM103.2577881,47.8318477c-2.8770314-1.284323-5.9117969-2.0256418-9.0249617-2.4603125-.2162217-.0301125-.463714-.0439214-.3253571-.3369388.1070418-.2266452-.1308734-.7307171.3997473-.6496451,3.4780779.5321352,6.8971781,1.2781758,10.0682514,2.8847377.5988637.3033518,1.1575032.6697794,1.7016211,1.0632905.906581.6554359,1.1066328,1.6170746,1.1783058,2.63288-.902661-1.614491-2.4220483-2.4306454-3.9976068-3.1340119ZM26.6998065,30.0659436c.2966478.1981364.639912.1662421,1.0006824.2147963.1706521-.0237871.378388-.0287761.5710008-.0853483.2912801-.0855265.5637177-.2506105.5612677-.587282-.0022273-.3030846-.2404542-.4966774-.50964-.5944983-.5795089-.2105199-1.1434047-.1800511-1.6564747.1984037-.3419947.252125-.323308.6157908.0331638.8539287ZM27.3035479,29.146801c.2952223-.1031663.5959015-.0882883.8917697.0137199.1793384.0618285.2981846.1787148.3138645.3732876.0152344.1894056-.1228998.2841974-.2609449.3650022-.2308325.1351497-.4882138.1706076-.7527001.1741712-.3152454.0166599-.6773076-.0030291-.7599164-.3446005-.0931214-.3850475.2834179-.4821557.5679272-.5815802ZM58.0904837,27.1966185c.3111472.2428596.6700467.3340879,1.0598159.3175171.2661122.020758.5271016-.0160362.7573105-.1480678.2492741-.1429005.3088309-.3398788.0747911-.5594859-.3749803-.351995-1.4362216-.444916-1.8571724-.1627676-.2505214.1679349-.2888301.3544895-.0347451.5528041ZM58.2591758,26.8691232c.0550131-.1234789.1436578-.2305652.2972491-.1992055.3670512.075103.7323207.1593822,1.0967883.246156.083032.0196889.1743048.0620067.1470878.1735475-.021738.089001-.0912283.1431678-.1873565.1527004-.1865547.0185307-.3731539.0367942-.535877.0528304-.2397415-.0190653-.4588141-.0124726-.6555696-.1241025-.1177326-.0667285-.2344852-.1401387-.1623222-.3019264ZM34.0984282,30.9589829c.2681167.197691.5755221.2637067.9452906.2703885.2441514-.0183526.5373024-.0204016.8020783-.1607186.2649985-.140406.3018373-.3409478.1183562-.5693749-.3182744-.3962728-1.5483861-.4483905-1.9010938-.0867738-.1897619.1946619-.1935037.3777421.0353688.5464787ZM35.0359234,30.3929934c.2852665.0103345.7091127-.0046327.6870629.3472732-.0208471.3328406-.4535132.2458887-.6944574.284732-.3195217-.0280634-.7640368.0085527-.7534351-.3125281.0105572-.3191208.4532014-.3305243.7608295-.3194771ZM46.0077267,28.8384601c.3484314-.2178253.3587659-.5285716.0131853-.7525442-.2625486-.1701621-.5669249-.2033927-.9746012-.2257543-.0888674-.0087308-.2723039.0090872-.4408624.1135008-.3145772.1951073-.3527968.5185044-.0866401.7529896.3001891.2645085,1.1434716.3278516,1.4889184.1118081ZM45.1611034,28.0378073c.1850402.0329633.3731094.0547013.5540959.1029882.1228107.0327852.265444.0882883.255555.2506996-.0085081.1404951-.1126099.2295852-.2410778.2813466-.1931474.0777757-.3980546.0858829-.600111.0706485-.2433942-.0184417-.496321-.0966628-.491332-.3835329.0056572-.3209026.2794311-.3138645.5228699-.3221498ZM50.0931319,28.1377664c.2379597.1998291.5264335.2290507.8508996.249185.2656667-.0359924.6089309.0063254.7112954-.3870965.076083-.2925719-.1112735-.4651395-.3338206-.5939638-.3087863-.1788038-.9912166-.1027209-1.2402234.1371097-.2024127.1949292-.219518.400371.011849.5947656ZM50.8107527,27.5118193c.2780502-.0151453.5986855-.0066818.6185081.3764948.0131853.2547977-.2381824.2446414-.4271425.2880283-.2744866-.0783102-.7040791.0016036-.7574887-.358944-.0453914-.3062918.3345779-.2930174.5661231-.3055791ZM65.8366905,25.939557c.2976501.0041872.6415379-.3428187.6473287-.6532087.0056127-.3021046-.288741-.5430042-.6707149-.5488842-.3398342-.0052563-.7382897.3680312-.7289798.6828757.0084636.284732.3395224.5132481.752366.5192172ZM65.8430159,24.9453114c.2316788.0149671.4080772.1252607.3764057.3736439-.030647.2403651-.2043282.3699021-.3505696.3661603-.3492778-.0140762-.5142281-.1403169-.4851847-.3772075.0287761-.2342179.2001855-.3794348.4593486-.3625967ZM31.5071978,27.9622589c.2758675.0226289.5426033-.0759048.5983737-.3939565.0601358-.3429969-.1800511-.5293734-.4878574-.6115145-.3143099-.0838338-.629778-.1240134-.8909011.1434351-.1391588.1425442-.1575559.3088754-.0668176.4781466.1748839.3264262.4840266.3817511.8472024.3838893ZM31.1508819,27.1007575c.2741303.0559486.6483978.0326961.6856375.3978764.0281525.2760012-.2824156.1480678-.4353388.2052636-.2506996-.0302906-.5286162-.0150562-.5357434-.3710603-.0036081-.1817438.1109617-.2676267.2854447-.2320797ZM53.2546726,25.3586895c.3316825.0336761.5753439-.1062845.6366825-.4446487.0537659-.2964028-.2340843-.5282153-.6400679-.5512005-.3699021-.0209362-.7755739.2374251-.7469315.5030028.0482868.4482123.4189017.4591704.7503169.4928465ZM53.1560498,24.5476132c.1745721.0532759.424158.0229852.4442924.2621922.0155908.1844165-.1386242.3293661-.3419278.3014809-.1978691-.0270834-.4868774-.0010691-.4909756-.2949774-.0027618-.1956419.2072236-.2480269.3886111-.2686958ZM67.4881984,25.7707313c.3449124-.0160362.5099072-.2317234.5276362-.5305316-.0105572-.3474514-.2585395-.5881729-.5615795-.5819366-.325758.0066818-.5752994.2723485-.5434051.5994873.0333197.3409478.2351979.5288389.5773485.5129808ZM67.4344325,24.8427687c.197691.0154126.3255353.1226771.3281634.3250007.0023163.1777348-.1037454.30451-.2870038.3202789-.2038382.0173726-.3382306-.0975537-.3546677-.2959573-.016838-.2033927.113679-.3137754.3135081-.3493223ZM58.5712139,25.4176672c.3265153.0136308.4904411-.1935037.500241-.4785921.0110472-.3231298-.2214335-.4420651-.6258135-.4493705-.272393-.0242325-.4341806.2041945-.4342697.5294625-.0001336.3504805.2898547.3872747.5598422.3985001ZM58.5264016,24.6843665c.159694.018798.2726157.0939901.2632613.2716357-.0087308.1668658-.1094917.2707448-.2775157.2627267-.1439251-.0068599-.2342179-.1021864-.2437505-.2522141-.0113144-.1775566.0887337-.2604104.258005-.2821484ZM54.3878097,18.9422417c-.019778.117198-.1073536.1762648-.1857083.2381379-.5624704.4438024-1.1927384.7814093-1.8066138,1.1443625-.0691339.0408478-.1613422.1163962-.227848.012829-.0564386-.0879319.0243661-.1661085.0779984-.2306543.2656667-.3199226.616949-.5310661.9698795-.7349934.3022382-.1746166.6154345-.3305243.9260917-.4902629.0951928-.0489105.1947955-.0719403.2462005.0605813ZM53.4090657,12.0447963c-.064724-.0595122-.0399124-.1368424.0077508-.1952855.3779648-.4628231.8923265-.7412743,1.403971-1.0199036.0439214-.0238761.1418315.0192435.19729.0568395.0725639.0493114.0575077.1336797.0065481.1919001-.4015291.4593486-.9421279.7215853-1.4472243,1.0407507-.0673076-.0282861-.129537-.038576-.1683358-.0743012ZM49.0122016,21.7635472c.618909-.5559223,1.3666423-.8685395,2.1259573-1.1632496-.1782693.3577859-.5050518.521088-.8063991.7103154-.3561377.2236162-.7244362.4277662-1.086053.642696-.0944355.0561268-.1929692.0933664-.2753775.0012473-.0571068-.0637885-.0116708-.1429451.0418724-.1910092ZM49.2309178,9.6432833c.2874938-.4610413.7252826-.7364188,1.2084182-.9466715.0932773-.0406251.1988491.0018709.2649985.0987564.0476187.0697576.0457032.1392924-.0082408.1974237-.3740003.4028209-.8770921.5982401-1.3144355.8370016-.1859311.0036081-.2260216-.065793-.1507405-.1865101ZM41.3222997,16.5552504c-.0848138-.0576858-.076172-.154215-.0406251-.2356433.2217898-.50817.6192208-.8704995,1.039637-1.2049883.1294925-.1029882.2344852-.0131408.2732839.1431678-.0763502.122098-.1311406.2448642-.2166671.3400569-.2710121.3017927-.5531605.5935629-.8318343.8884957-.0610267.0646349-.1317643.1314525-.2237944.0689112ZM51.2962938,10.2355989c.3016591-.4088791.7142354-.6732094,1.2005783-.8070228.0982664-.0270388.3362261.0043654.1949292.1984037-.3168044.435027-.8212772.6255462-1.2631196.8849766-.2177362-.0230298-.212569-.1677121-.1323879-.2763575ZM55.0532237,16.936066c.0685994-.0335424.144326-.0160362.2023236.0379078.0695794.0647685.0458369.1396042-.009889.1895838-.3678531.3301679-.7397152.6559705-1.1120227.9811939-.0191544.0167044-.054345.0151008-.0819184.0219607-.224908-.025658-.2256652-.1779129-.1394706-.3135972.2744421-.4319088.6916956-.6977092,1.140977-.917049ZM46.7788907,9.7632877c-.1090463-.0975537-.0885556-.2116336-.0248561-.315379.210609-.3432642.5179699-.5914692.8543741-.7964656.1766657-.1077099.2516796.0451687.3048664.1821447-.0628085.2195626-.2239725.3508814-.3695458.4906638-.1468205.1409851-.3048218.2702994-.4580123.4046027-.0941682.0825865-.1910983.137956-.3068263.0344333ZM55.4215222,13.7326084c.1786257-.2960464.4625113-.4807302.7615868-.6300453.1715876-.0857047.2679385.0287761.2962246.1867329.0003564.243216-.6884438.862615-.9073828.8108091-.1954192-.0463269-.2548868-.1943055-.1504286-.3674967ZM56.2067624,17.050235c.1550613-.3532423.4111954-.6298225.7354834-.8312998.0851256-.0529195.2359106-.0511377.2757339.1104272.0527859.2143063-.6055009,1.0091682-.8198963.9923302-.1304279-.043966-.2659785-.1012955-.191321-.2714576ZM39.5333258,20.3052758c.0421842-.1967555.6712049-.7055491.8840412-.7177099.1236571-.0070827.1882919.0477968.1856638.1504732-.0150562.1842829-.7714313.8528151-.923909.8276026-.1434796-.023698-.1731912-.1326552-.145796-.2603658ZM39.4452602,23.1361586c-.0026727-.2675376.174973-.4196144.3727085-.5520914.2251753-.1508296.4560968-.2923046.8407879-.3854929-.3011246.5142281-.6730758.80778-1.0457397,1.0913538-.1280225.09742-.1666876-.0469505-.1677567-.1537695ZM46.1183321,13.2557982c.1416087-.3294998.453335-.475563.7566868-.6024273.1237462-.0517614.2025909.075103.1912765.2128363-.0157689.1927019-.5959237.6794903-.8322798.674323-.1518986-.0244107-.1678458-.1634358-.1156835-.284732ZM52.7506007,13.3718826c.0067708.1482014-.5681276.7137009-.7338352.7199372-.168113-.0619176-.2382715-.1756857-.1470432-.3606368.1284679-.2604995.3611713-.4164072.5992646-.551735.1767548-.1004046.2734621.0134526.2816138.1924346ZM47.8211559,20.3997113c-.0539886.1767548-.179962.3008573-.3289207.3868293-.2357324.1360851-.5531605.5253644-.7137009.2983628-.20758-.2935074.2611231-.4502169.4734248-.6338316.0950146-.0822302.2177362-.1431678.338097-.1821447.0984446-.0318943.1970673.0086863.2310997.1307843ZM48.5364604,12.7787206c-.1360406-.1079772-.0400905-.2399642.0166599-.3516387.109759-.2162217.4515532-.444426.6647013-.4502614.0905601.0129626.2153308-.0007127.2667358.093901.0754593.1388024-.0658821.2085599-.1457514.2741303-.1557295.1277552-.3261589.2385388-.4957865.3481196-.0917628.0592449-.1892274.1788484-.3065591.0857492ZM43.2870039,11.2504689c-.0089981-.2572477.572983-.7139681.8288944-.6435869.0691339.0189762.1486023.0338542.1353279.1167971.0082854.1984928-.5904002.7396261-.7724558.7170863-.1110954-.0137199-.1872229-.059334-.1917665-.1902965ZM48.4726719,17.3692667c.1062845-.2880283.3541332-.452355.6069709-.596191.0987118-.0561268.1960873.0112254.2662012.092921.0668176.0778202.0530977.1649949.0021382.241256-.1678458.251145-.4228662.3878092-.6700467.5093727-.2063327.0136753-.2582722-.1037454-.2052636-.2473587ZM51.4422234,18.4460989c-.0146108.1264634-.8014992.7558405-.9555805.7506287-.1557295-.0189316-.1508296-.1363079-.0842792-.246646.1952855-.3241098.5034482-.5148517.8447524-.6491105.0941682-.0370615.2128808-.0085527.1951073.1451278ZM44.5601906,19.2745478c.146375-.316849.3997473-.5327589.7127654-.6718285.1038791-.0461487.1934592.0194216.2240616.1072199.0210698.19974-.6355243.7770439-.8159763.7480451-.1065072-.0171053-.1650394-.0878428-.1208507-.1834365ZM43.8611896,22.4057088c.1331452-.1050372.2699876-.2217007.4521323-.233327.0968855-.0061918.2127472-.0198225.2108763.1526114-.1039682.1859311-.2898992.3033518-.4751176.4036227-.2011655.1089127-.4878574.4185899-.6176617.2123908-.1526114-.2425478.2387615-.3845575.4297707-.5352979ZM53.2087466,15.8160697c.2290061-.0609822.2001855.1627231.1363079.2839302-.1355951.2573813-.4145808.3365824-.6434979.4654958-.1778684-.018798-.2586731-.114659-.1773339-.2613904.1469541-.2651767.4138236-.4159617.6845239-.4880356ZM45.4447218,15.6207397c.1081108-.2905674.3423287-.4573441.6231408-.5491069.0857938-.0280634.1509186.0641003.1495823.1111399.0076617.195241-.4628231.674813-.6132072.682653-.0143435.0007127-.0308252.0049-.0429414-.0003564-.1090463-.047485-.1550168-.1411187-.1165744-.2443296ZM90.6458805,39.8607775c.2269125.5476369.1636585,1.1047174.1208953,1.6731122-.0786666,1.0452052-.0697576,2.0929939.0635658,3.1354373.0406696.3180517.1004046.6369052.3479414.8722813.1314079.1249934.2939083.1979582.4783693.1409406.1632131-.0505141.1291361-.2087381.1499832-.3320388.109269-.6471506.1185789-1.3019629.1523441-1.9554388-.029667-.9595005-.0530532-1.9198028-.3425515-2.8471417-.1133226-.3630422-.2604549-.7130772-.5904002-.9415934-.106329-.0736775-.2312779-.1669549-.3603695-.0953264-.160184.0889119-.062274.2473141-.019778.3497678ZM91.2352115,41.2245689c.3188535.8704995.2347524,1.7613115.1551504,2.6523907-.2413006-.8712122-.2547977-1.7597969-.1551504-2.6523907Z"/>
  </g>
</svg>