<?xml version="1.0" encoding="UTF-8"?>
<svg id="Layer_2" xmlns="http://www.w3.org/2000/svg" viewBox="0 0 131.2255225 225.627148">
  <g id="Layer_1-2" data-name="Layer_1">
    <path d="M128.1592038,87.7314474c-2.8355895-1.4782648-5.6458205-1.100327-8.4011083.2947101,2.0407011-1.9985997,3.2367724-4.8328887,6.1785095-5.962638,1.0876478-.4177634,1.9621876-1.3729299,1.7874422-2.7461848-.1685683-1.3249765-1.2001351-1.9462573-2.2963983-2.4217273-.5296005-.2296886-1.1095926-.3767998-1.6814571-.46783-.6303839-.1001332-1.5979044-.1251665-1.7133176.4219898-.1667803.7900117.8495064.6950803,1.3851214.8982726.9758108.3696475,2.432781.4405209,2.4992655,1.6144849.066322,1.1658363-1.3755307,1.4051155-2.2926596,1.9057814-1.2370348.6757364-1.6590246.2379788-1.9646259-1.03368-1.5809988-6.5785545-1.7620838-13.244563-1.5078496-19.9608007.247407-6.5397042,1.1934704-13.0189383,1.5822992-19.54385.3374618-5.6617508-.235378-11.1469681-3.3453583-16.1090871-1.2289071-1.960562-1.9610497-4.1122874-2.2013043-6.4241284-.0679475-.6541167-.1560517-1.3109968-.6599687-1.9425186-.1471112.2496827-.2695143.3689973-.2859322.5013161-.0520172.4210145-.1146005.8506443-.0846906,1.2705209.2600862,3.63698-.569101,7.0868604-1.9031805,10.4151506-2.0761378,5.1792909-2.7205013,10.5375537-2.5231609,16.0840538.2475695,6.9595808.3303094,13.9256637.416463,20.8897959.0448649,3.6145475-.1183392,7.2264942-.5595104,10.8221855-.1123247.914528-.3888288,1.4051155-1.4553447,1.3844712-.9992185-.0193439-1.9959988.2846318-2.9059753.7524618-1.2139522.6242068-1.5387348,1.5493008-.8682001,2.7684547.4202017.7641657,1.0232765,1.3561868,1.7848413,1.7767136.466367.2574853.8425166.5284626,1.1164199,1.0535115,2.4228652,4.6425381,6.3191186,5.99141,11.217679,3.9372169-1.4649353,1.6416314-3.0275656,3.2057246-3.9681022,5.5022854-1.3231884-3.2852134-2.752687-4.7592518-5.2438248-5.6103838-5.3476967-1.8274304-11.9529101,1.7780141-13.3307166,7.2763982-.9639444,3.8465119,1.1011398,6.9729102,4.9887778,7.5530649,2.914103.4348316,6.4385957-2.5080434,6.2605992-5.3485095-.6406247.3379495-.8717763.9559792-1.2397983,1.4405523-1.6648766,2.1910634-4.6030375,2.9014238-6.6450391,1.5990423-2.0416764-1.3020564-2.6896161-4.0872541-1.4768018-6.5281628,1.1082922-2.230564,2.8172209-3.8346454,5.1448295-4.7634782,4.9782118-1.9865707,9.4421032.5588602,10.2901467,5.855515.1944144,1.2146024.2956855,2.4288797.2178222,3.655186-.5430924,8.5594358-3.7727124,16.151026-8.9622443,22.798991-6.3168428,8.0920935-16.0031019,9.5389853-24.8000289,4.1982784-2.7772326-1.6861711-5.0152741-3.8960908-6.8511573-6.7875988-.0409636.8911202.3694849,1.3960125.6749236,1.9259381,3.9685898,6.8846434,14.135033,10.9382489,21.7705127,8.7102858,5.5310575-1.6138347,9.1517821-5.4943203,11.8661063-10.2776301,3.851551-6.786786,6.6837269-13.9529727,7.2388483-21.8560161,1.2292323,8.6368114.3930552,17.0076848-4.1938895,24.5820442-5.3272149,8.7964393-13.3986641,12.6691224-23.60347,11.590415-9.1748647-.9701214-15.5710338-8.2075067-15.8964666-17.4566585-.031698-.9037994.4610027-2.0286721-.5006659-2.6805131-.8447924-.5723521-.5348022-.9935292-.0559185-1.4935448,2.3869408-2.4924383,5.2852761-3.5264433,8.6810261-2.8248609,1.9719408.4076851,3.4292361,2.0517548,3.6421817,3.8008342.0591696.4844105-.16613,1.3410693-.2960106,1.2680826-1.512076-.8499941-1.1520192.7576635-1.5805111,1.2081003-.3745241.3933803-.6323345.8633235-1.2389855.8291872-.6160791-.0344614-.7371817-.5591853-.8283744-1.0218135-.2844692-1.4421778-1.0523737-.8862436-1.6801566-.3660713-.9198923.7623776-.6536291,1.9600744.5469937,2.7775577,1.4626596.9958049,3.0340677.8603976,4.709998-.4057344,1.9275636-1.4566451,2.5416921-3.1478554,1.8599412-5.1227222-1.3971504-4.0464531-6.6325224-5.9367919-10.9850644-3.9700528-2.1987034.9935292-3.8479749,2.5794046-5.0128358,4.8450802-.1363827-.3101528-.245944-.4444222-.2477321-.5799922-.1232158-8.8819427-.9806874-17.7456793-.6850019-26.6373752.0622581-1.8745711.4297924-3.6990755,1.3223756-5.3754934,1.6533353-3.1049412,4.697969-4.3455522,8.7419838-3.5844751,2.4038464.4523874,4.6711476,3.2013356,4.965045,6.0196944.2290384,2.1977281-1.1160948,4.1043223-3.1707755,4.4936388-2.2764042.4314179-3.7028143-.8730768-3.3892479-3.1067293.0372248-.2649628.1186643-.522123-.1482491-.7183255-.3086898-.2269252-.6251821-.1285801-.8959969.0368997-.537403.3286839-.7498609.864624-.8384528,1.4673737-.3301469,2.2416177,1.4540442,4.3497786,3.874146,4.5702016,2.6072013.2376537,5.3654151-1.6717038,6.3660966-4.4065099,1.6281394-4.4503995-1.3774814-8.9242067-6.6450391-9.9856833-1.7871171-.3602193-3.516365-.1391461-5.6888973.4304426,1.635942-1.4872052,2.521698-2.9009361,2.9448256-4.6002741.0819271-.3291716.3794007-.6242068.6264826-.8896573,2.0702859-2.2255248,1.8495378-3.7831159-.8048041-5.3303035-.5167587-.3012123-.9732099-.4873365-.9478515-1.2601175.1981531-6.0710614-.6645202-12.1029473-.6724853-18.1731959-.0108911-8.1920641-.1794595-16.3841282-.3181179-24.5755421-.0551058-3.2611554-.1851488-6.6380492-2.0525675-9.3842341-2.1790344-3.2047493-2.6439385-6.5127202-1.922687-10.1604287.0726616-.3676968.3668841-.9185918-.2737407-1.04896-.4676674-.095094-.7960262.3059264-.9472013.7127987-.4800215,1.2924657-.9015237,2.6065511-1.3729299,3.9024304-1.2331335,3.3911985-2.8677751,6.6445514-3.6572992,10.1872501-1.2282569,5.511551-.9198923,11.1079551-.7557129,16.6871286.1779965,6.0531805.9736976,12.1068486.0186937,18.1566154-.6576929,4.1662553-1.0403447,8.3349489-.5330141,12.5488325.2161966,1.7942695.4236153,3.5914649.5591853,5.3928867.0533177.7084097.4023208,1.827593-.1615785,2.0618331-.7888739.327546-1.7012886-.3225068-2.4436721-.857309-.1284175-.0924931-.2482197-.2028672-.3525793-.3220192-.8195965-.93566-.6076263-1.7967078.5900705-2.1843987.5591853-.1809224,1.1674618-.2101821,1.8631923-.3262456-.2057932-.238304-.2857697-.4249158-.4050842-.4545006-1.186318-.295848-3.1904445.7288915-3.7153309,1.9382922-.5819428,1.3417195.1983157,2.2074814,1.1300744,3.0166744.5209851.4525499,1.2599549.5959224,1.3451332,1.5884763.2420427,2.8198217,1.4270603,4.0058147,4.1745456,4.6477398,1.7578574.4109361,3.5176654.1501998,5.6615882-.0078026-1.7846788,1.8311692-2.8585095,3.7049275-3.6798942,6.0198569-.7867607-1.7518429-1.3539111-3.240186-2.3295593-4.5188346-2.5494947-3.3411319-6.8519701-4.6376615-10.513008-3.1418409-3.5719584,1.4595711-5.7079161,5.2212298-5.2020485,9.1618604.2893459,2.2549471,1.9691774,4.0358871,4.189338,4.4412964,1.9009048.347215,4.4172385-1.1011398,5.0242146-2.8986603.2883705-.8534077.2028672-1.6586995-.7097101-2.0117665-.9920662-.3837897-.9337093.5034293-1.0917117,1.0868351-.0380376.1397963-.1139503.3348609-.223349.3794007-1.1781903.4795339-2.221461,1.5089874-3.685421.7979769-1.3244888-.6432256-1.9933979-1.700801-2.1913885-3.1064042-.4540129-3.22198,1.7393263-6.4392459,4.9398491-7.2370602,2.826649-.704671,5.0973638.4167881,7.129287,2.236741,3.5513141,3.1811789,4.3008499,7.3006187,3.8730082,11.788243-.6775245,7.1034409-.9252565,14.2229747-.8940462,21.356163.0024383.5357775.2194477,1.1702252-.3676968,1.6476459-.6328222-.3355112-.8069173-.9727223-1.0487975-1.5436114-.2945476-.6954054-.6719976-1.3231884-1.2176909-1.8495378-3.65226-3.5233548-11.1929708-2.1062103-13.3051956,2.502354-1.2994555,2.8347767-.00764,6.1286055,2.794951,7.1265236,2.2147963.7887113,4.2831315-.0646964,5.0180375-2.0486662.4125617-1.113819.1939267-1.9964865-.896322-2.5501449-.8976224-.455801-1.8944026-.7422209-2.606226.2031923-.7336055.9745104-.0352742,1.7220955.8808793,2.3293967-1.8326322.4538504-2.6463768.3286839-3.3817704-.5006659-.8771406-.9893028-.8608852-2.1210027-.4492989-3.2939913,1.5081747-4.2995495,7.2798119-5.5021229,10.8680257-2.2755914.6544418.588445,1.1541324,1.0583882.1399589,1.8425479-.7049961.5452056-.4234528,1.383821-.0531551,2.0498041,1.2713337,2.2874579,1.0244144,4.6548922.21132,6.9462513-1.8191402,5.1262984-5.2373227,8.7907499-10.3367997,10.8371404-3.3510477,1.3446455-6.824336,1.9656012-10.4258792,1.9828319-9.6353798.0464904-18.8081313-6.160466-22.0605088-15.0407831-2.4064473-6.5709145-2.689291-13.4022403-2.2529964-20.3005382.0160928-.2529338.0646964-.5401665.4509244-.5031042.3717607.2539091.322832.6442009.2922718,1.0032824-.2191226,2.580705.2009166,5.1028906.8537328,7.5694828,2.3999451,9.0679043,7.0522365,16.5509084,15.6935994,20.8501328,7.3570249,3.6603877,14.6776378,3.4872679,21.6063333-1.2734469,3.1681746-2.1769212,4.8562964-5.2865765,5.3164864-9.0854601-.9821504,2.6283333-2.4096984,4.960656-4.5768663,6.7718311-6.2622247,5.2334214-13.2982058,5.863155-20.6586444,3.0126106-6.8887073-2.6678339-11.1880942-8.0977829-14.1925771-14.6184682-2.2299138-4.8398785-3.594716-9.8826242-2.9053251-15.3018446.7596142-5.9728789,5.8594163-9.1994103,11.3356931-7.1494437,2.3116784.8652742,3.6717665,2.6873403,3.658112,4.9011613-.0130043,2.1276674-1.6492714,4.224287-3.8697571,4.9587054-1.5858754.5243987-1.9473952.3322601-2.3677595-1.3170113-.0711986-.2792675-.1440227-.5175715-.4364571-.5822679-.2844692-.0627458-.4637661.0695731-.6344477.3325852-1.0894359,1.6804818-.6336349,3.0641402,1.2604426,3.745891,2.3570309.8483686,4.9907285-.2230239,6.706647-2.7281414,1.7646847-2.5766412,1.7617587-5.6063199-.00764-7.6935114-4.2824813-5.0520113-13.1215098-3.9819192-16.0871423,1.9389424-.3849275.7685546-.6604563,1.6222875-1.427548,2.2994868-.3023502-.7048335-.5234234-1.29783-.8035037-1.8615668-2.7567508-5.5513767-10.5707147-6.14226-14.1688442-1.0767567-2.9394614,4.138296-.6443635,9.6205874,4.3283215,10.3397256,2.1395338.3095025,4.1035095-1.1967215,4.0121543-3.0771445-.0212946-.4414963-.1037094-.8914453-.5497571-1.0725303-.639812-.2599236-.639812.3784254-.8238229.6968684-1.087973,1.8844868-2.6733607,2.1710693-4.3089776.7602644-2.274291-1.9615374-2.499103-5.1305248-.525049-7.3971757,2.7747943-3.1860556,7.4742263-3.0732432,10.1531138.2461065,1.4503055,1.7971954,1.9790932,3.8819486,1.7121798,6.1329944-.5109068,4.3107657-.3372992,8.5908087.2713024,12.8783292.6732981,4.7420211,1.7685859,9.3302662,4.9322091,13.0984271,6.5379161,7.7866548,14.8978983,11.0809712,24.9685973,9.6350547,7.730086-1.1099177,13.5511396-5.0154367,16.8638246-12.2952485.5208226-1.1445417.6913415-2.3892166,1.0788699-3.6343791q2.0803642,1.9249628,1.1518566,4.4191891c-.4258911,1.1534822-1.012548,2.2198354-1.6443948,3.2692831-1.6326909,2.7107481-2.746835,5.6085957-3.3199999,8.7367821-1.4746886,8.0457656-.781884,16.0510553.8495064,23.933942,2.65613,12.8331392,3.3395064,25.8132271,3.6574617,38.8471203.021132.8654367-.1183392,1.5202037-.9600431,1.9717783-.6723227.3608696-1.1170701.9320838-1.0598511,1.8115002.1011085,1.5504387-.4629534,2.1896004-1.963488,2.3163924-3.2453877.2743909-6.4259165.8972973-9.4985094,1.962025-3.2019858,1.1095926-6.2277633,2.5641245-8.1102995,5.5848628-1.9309772,3.098439-1.2040364,6.1414472,1.8792851,8.1039599,2.3046886,1.4670485,4.7943634,2.5571347,7.4461044,3.1754896,10.0290852,2.33915,20.1383095,2.4153877,30.2345294.6086016,4.0498668-.7246651,7.8741088-2.2643752,10.9681588-5.1653113,2.1697689-2.0343615,2.4005953-4.2478573.7149119-6.6894163-.8537328-1.2363846-1.9194359-2.2760791-3.1652487-3.1200587-4.9455385-3.3507226-10.3517546-5.3941871-16.3612081-5.6136348-1.2940912-.0471406-2.0130669-.4286545-2.0034763-1.817027.0060145-.8485311-.3265707-1.6216373-1.1208088-1.9745417-.7880611-.350141-.8847806-.9106267-.910139-1.6520348-.2794301-8.1624793.2935723-16.2560357,1.7620838-24.2949741,1.3361927-7.3144358,3.4484175-14.4881,4.1155385-21.9207125.7799334-8.686878.1714943-17.1152954-4.936598-24.6529177-1.0990266-1.6216373-2.0220074-3.3723423-2.6169545-5.2673951-.1462985-.4655542-.3790756-.8849432.2340776-1.2196416,1.4007266-.7644908,1.4902937-2.0493165,1.3583-3.4472796-.0881042-.9337093-.1228907-1.8908264.6817509-2.8892322,0,.5874696.0681101.9678457-.0107286,1.3150607-.7207638,3.1745142.2817058,6.0437523,1.8297062,8.6711103,4.1210653,6.9937171,10.5835564,10.3263962,18.4628669,10.294048,10.6615823-.0438895,18.1818113-5.498059,22.7900505-14.9660083,3.6041441-7.4053034,3.9494085-15.2301584,2.5465687-23.2240693-.6141285-3.5004347,2.3791382-7.8346082,5.8392596-8.5516332,4.3775753-.9072131,7.7621091,1.804998,6.9716097,5.6695534-.505705,2.4714688-1.9473952,4.3710732-4.2228241,5.4961084-1.9295143.9540286-3.4893811.141747-4.0020759-1.918298-.0803016-.3231571.0721739-.7188131-.2704896-.9818253-.6102272,1.5208539-.5320388,2.8151077.2597611,3.7536936.9499647,1.125848,2.2330023,1.1473051,3.5218918.9234685,3.1769525-.5518703,6.3994202-4.3985448,6.6877907-7.9074323.2057932-2.5070681-.8491813-4.3418135-3.0410575-5.484242ZM110.8377901,81.5067726c2.7731688-10.3343614,1.5447493-20.7960024,1.0040952-31.2378118-.2391167-4.6199431-.3597317-9.2416743.092168-13.8596668.2571602-2.6265452,1.2937661-5.0235643,2.1236036-7.4852799.5757658-1.7077908,1.0837466-3.4383391,1.7090912-5.4374265,2.5803799,3.685421,3.8947904,7.5779356,4.2114453,11.833433.425566,5.7162063-.4753075,11.3417076-1.0988641,16.991917-.9350098,8.472632-1.3366804,16.9550173.1284175,25.4180587.1804348,1.0424579.4629534,2.075.7911496,3.0820211.3611947,1.1084547-.0529926,1.5847375-1.1305621,1.7180317-2.4496866.3033255-4.8801918-.0377125-7.3181746-.171982-.6490775-.0357618-.638349-.3816765-.5123698-.8512945ZM106.3906417,80.099869c.0276342-.8004152,1.8345828-1.7591578,3.1496435-1.7357501.9307834.0165805.5890952.6628946.6628946,1.1840423-.3945182.76953.3576185,2.1554641-.9654073,2.4363572-1.100327.2334273-2.8731394-1.1331629-2.8471308-1.8846494ZM116.1412721,87.6976362c-3.0052957.220423-4.9751233-1.6325284-7.0099725-4.0119917,2.4214022.1888876,4.4263415.350141,6.4320935.5001782,1.96934.1475989,3.9081198-.1541011,6.0195318-.4878241-1.2583294,2.2803055-2.9441754,3.8162769-5.4416529,3.9996376ZM73.5190011,66.7754921c.1435351-.442309-.0946063-1.3119722.6336349-1.2459753.7820466.0708735,1.4794026.5985233,1.7692362,1.4215335.2363533.6708598-.0863161,1.1313748-.7045084,1.3890227-.61868.2578104-1.1882687.6872777-2.0702859.6033999.1300431-.8189463.1627164-1.5221543.3719232-2.1679808ZM63.5622523,68.7321528c.2418801-3.3934743.3849275-6.7947512.6698844-10.1843241.7987896-9.5054992.8865687-18.9992946.0755875-28.5168228-.6350979-7.4511436-.7646533-14.900174,2.6862025-21.8776357.1406091-.2841441.2714649-.5730023.4440971-.9384234,3.2292949,4.556222,4.7769701,9.4401526,4.6651331,14.9851897-.2487074,12.3365372.0260086,24.6753501.250658,37.0127001.0541304,2.9737602-.2035174,5.9519094-.2321269,8.9290833-.0104034,1.0736682-.4330435,1.4631473-1.4532315,1.6092832-1.8960282.2713024-3.7779142.5203349-5.7066156.4931884-1.1570583-.0162554-1.4753388-.4507618-1.3995887-1.5122385ZM62.4562359,74.2037156c-.374199-.2730905-.6586682-.6889032-.9307834-1.0762691-.2695143-.3837897-.6495652-.8493439-.4138621-1.2971798.2831688-.5382158.857309-.2235116,1.2884019-.1217528,3.1854053.7529495,6.323345.3751743,9.4516939-.3468899.6578555-.1518253,1.3194496-.2860948,2.0528926-.4442597-1.6313905,4.8959596-8.3777006,5.5266685-11.4483429,3.2863513ZM66.6693067,88.2015532c.0832276-.6206306.2407423-1.2311829.3637955-1.8462867l.2496827-.036087c0,2.5985859.0110537,5.1970093-.0022758,7.7954327-.028772,5.5837249.1905131,11.1560711.5868194,16.7264666.055756.7844849.8454426,2.2182099-.8373149,2.378488-1.897166.1804348-1.19981-1.3921112-1.2170407-2.2594986-.1511751-7.6006932-.1593028-15.2007361.8563337-22.7585151ZM73.7072384,205.9864512c-.0949315-.8267489.0864787-1.2150901,1.0049079-.9788993,5.107117,1.3135977,10.1339324,2.8313631,14.6386249,5.6900352.4479984.2841441.8836428.5954348,1.2910027.9350098,3.0020446,2.5036545,2.870376,4.9991813-.3777752,7.2068252-4.5281002,3.0776321-9.6908106,4.2288385-15.002583,4.9053877-2.9053251.36981-5.8260927.5167587-8.7564511.4944888-5.3220132-.1037094-10.6349234-.2847944-15.7402524-2.0543556-2.1759459-.7540873-4.2319271-1.7336369-5.9423187-3.3160986-1.940893-1.7955699-2.1645671-3.9858205-.6141285-6.1279552,1.3490344-1.8638425,3.2179161-3.0690168,5.2748726-4.0066274,3.3068331-1.5075245,6.7420837-2.5790795,10.3686602-2.9771739.4486486-.0492538.8642988-.2613866,1.0605014.5037544.9060752,3.5322953,2.8443674,4.9192048,6.5455561,4.7179631,1.8958656-.1028966,3.6756678-.6146161,5.0928123-1.974054.8486937-.8140697,1.2927908-1.8313317,1.1565707-3.0183ZM71.846647,204.8316686c.772781.8608852.7041833,1.872783.0770505,2.792025-.9894653,1.4503055-2.5163337,1.8464492-4.1025342,1.9714532-1.373255-.1482491-2.6827888-.3202311-3.8652056-1.0105973-1.2688954-.741083-1.798821-1.7289228-1.2458127-3.1897943.555284-1.466886,1.8186525-1.8129631,3.0764943-1.616273,1.3935742.2179847,2.6995319.3854152,4.0544183-.1224031,1.0800078-.4047591,1.4839541.594622,2.0055895,1.1755895ZM74.4793692,150.922308c-1.0240893,8.4054973-3.0956756,16.6016252-4.4500743,24.934461-1.1538073,7.0985643-1.8131257,14.2397177-1.466886,21.4405284.0661594,1.3735801.3111281,2.7445593.5608108,4.1005836.1423972.7737564-.1004583,1.0071837-.8449549,1.122922-2.1154759.329009-2.4168507.0318606-2.5452683-2.0161555-.4351567-6.9491773-1.0561124-13.8881137-1.4088543-20.8408672-.5126949-10.1033723-2.1201899-20.078002-3.2635938-30.1079-.6105523-5.3540363-.6360732-10.7227025.4961144-16.0346374.1979906-.9294829.4619781-1.862217.8339013-2.734481,1.3303408-3.1203838,3.2253936-5.9728789,4.2322522-9.137965,6.7264785,8.7280042,9.1755149,18.4493749,7.8565529,29.273511ZM68.869148,118.8354774c-.088917.6676087-.3613572,1.2396357-1.0364434,1.4841167-.8317881.3013748-1.5832746.0695731-2.2048805-.5135076-.5952722-.5583725-1.0221386-1.3108343-1.8844868-1.5948159,1.5883137.2057932,3.0742185.6290834,4.604338-.0078026.5866569-.2443184.5721896.250658.5214728.6320094ZM63.5320173,115.3244767c1.7997963.8423541,3.4747512.574953,5.3629768.2543968-1.862217,2.1993537-3.8834116,2.0787387-5.3629768-.2543968ZM7.7893744,84.6432493c.9301332.6484273,1.7991461,1.3625264,2.324195,2.3677595,2.699857,5.1713258,11.1853308,5.3047825,14.3365998-1.2146024.4957893-1.0258774.9852389-1.9340658,1.9844575-2.5727399.8247983-.5273247,1.4438033-1.3036819,1.1866431-2.4114864-.2483823-1.068629-1.0770818-1.5335331-2.0408637-1.7981707-.4582393-.1258167-.9377732-.2409048-1.4078789-.2412299-.9317587-.0009753-1.2303701-.3777752-1.291978-1.3339169-.2597611-4.0300352-.5416294-8.0597453-1.0884606-12.0665352-1.0913866-8.000088-2.5914336-15.9679903-2.3076145-24.0932448.1749079-5.0097473-.3971191-9.8358087-2.4789463-14.4679433-1.4268977-3.1750019-1.5268684-6.4738698-.2139209-9.7743633.2646377-.6651704.6112025-1.3527732.5110693-2.369385-1.1058539.4658793-1.5723834,1.2773482-1.9864081,2.1362828-1.6960869,3.5189659-.9585801,6.9959928.4018331,10.3499665,1.7318488,4.2699647,2.3622326,8.6675341,2.3212691,13.2411494-.0533177,5.9562984.1641794,11.9034937.9528907,17.8238677,1.0523737,7.8994672,2.2604739,15.7808908,2.9015863,23.7313999.0552683.6833764.1583275,1.2165531-.8114688,1.3374931-2.6883157.335186-5.3844339.4327184-8.1582529.5400039,1.1526694-1.3635017,1.0270153-2.9514904,1.0650529-4.4432471.2859322-11.2383233-.6970309-22.4145511-1.7077908-33.5898035-.540329-5.9725538-.4200392-11.8961788,1.6102585-17.6468465.1895378-.5364277.5422797-1.1105679.2795926-1.9178104-1.316036,2.0390756-1.9493458,4.1698315-2.4074226,6.347728-1.1996475,5.7036897-.6167293,11.442491-.1846612,17.1637365.7015824,9.2837758.9522405,18.5839695,1.1973717,27.8861139.0253584.9566294-.1718194,1.2976674-1.2393106,1.1677869-1.7879299-.2174971-3.4833666.3088523-5.0427457,1.1794908-1.4324246.799765-1.6216373,1.8940775-.5227732,3.1317626.522123.5881198,1.1684371,1.0842342,1.8176772,1.5367841ZM23.4647677,79.9896575c.8898198.1547513,2.4246533.0461653,2.3641833,1.2910027-.048441.9948296-1.4753388,1.3552115-2.4269291,1.3966627-1.065378.0464904-.1895378-1.0006815-.5780415-1.4360008.3164924-.4271915-.3499785-1.4239718.6407873-1.2516647ZM23.5346659,84.8340875c-.9977556,2.6790501-3.6358421,4.5220857-6.4324186,4.6236819-2.7944633.1014336-5.3081961-1.4714375-6.4715941-4.098958,4.317593.4722189,8.5753661-.0227575,12.9040127-.5247238ZM7.4317559,80.9688819c1.4412025-.9873521,3.1098178-1.270846,4.7836349-1.5351586.5822679-.0920055.5361026.3264081.5736526.6967058.224812,2.2154465-.0993204,2.5738777-2.3035507,2.529338-.1586526-.0030885-.3174677-.0003251-.7948884-.0003251-.4210145-.0286095-1.1614473-.0581943-1.8963533-.1376831-.3728985-.0404759-.7490482-.1857991-.8313004-.6168919-.0777007-.4063846.1436976-.7132863.4688053-.9359851ZM88.4485973,212.9778925c-3.9926478-2.1014962-7.9633508-4.2491578-12.1661807-5.8951781,4.7257657.1160635,10.2467448,2.7999902,12.1661807,5.8951781ZM53.238457,221.5922715c-3.1889815-.7870858-6.0209948-1.9178104-8.4380081-3.9640383-.5710517-.4834352-.7007697-1.1008147-.1984783-1.672029.4892871-.5560967.8732393.0851782,1.1664865.3134038,1.8841617,1.4673737,3.9264884,2.681651,5.9696278,3.9016176.5240736.3127536,1.1650235.5302507,1.5003721,1.4210458ZM80.1313668,221.0998959c3.0160242-1.6123717,6.1073109-3.1114433,9.0812337-4.8315882.4658793-.2693517.7929377-.1410967,1.083584.2672385.4639287.651841-.1414219.8251234-.4935135,1.0709048-2.8911829,2.0179436-6.2111828,2.8921582-9.6713042,3.4934449ZM62.578964,222.1764901c3.6308029-.2243243,7.2620935-.5182217,10.8876947.0944438-3.6379553,1.3696788-7.2658322,1.1347885-10.8876947-.0944438ZM57.9515435,207.4803211c-3.549526,1.7116921-7.0987269,3.4235467-10.8683508,5.2415491,1.7724872-2.4665922,7.3230512-5.2145651,10.8683508-5.2415491Z"/>
  </g>
</svg>