<?xml version="1.0" encoding="UTF-8"?>
<svg id="Layer_2" xmlns="http://www.w3.org/2000/svg" viewBox="0 0 127.2269528 214.6652214">
  <g id="Layer_1-2" data-name="Layer_1">
    <path d="M116.537477,108.557094c-1.0137365,9.3935645-4.1826398,18.0817368-8.7483613,26.2812471-1.9573078,3.5150735-4.6154356,6.45461-8.0891083,8.58758-2.0286368,1.2457636-4.1971051,2.029967-6.5938595,2.1538367-4.5003781.232609-8.5360369-1.1445895-12.2251931-3.6015329-2.2501059-1.4985742-4.3931352-3.1471222-5.3430247-5.8589546-.0613529-.1751634-.1837262-.3341988-.2991994-.4842558-2.2044653-2.8644665-3.6097631-6.1217413-4.6957431-9.5366382-.8320055-2.6163114-1.4256656-5.2559834-.792018-8.0168648,1.3281494-5.7873762,6.0765995-9.9607881,11.9759572-10.5468831,6.2530099-.6211775,9.8173819,2.4941875,11.5531375,7.7465961,1.0238788,3.0984057-.3370254,5.7505478-2.115595,8.1921945-.8178727,1.1228083-1.8989477,1.9765949-2.7464161,2.3732274.321895-.3796732.9059116-1.0901367,1.5128733-1.7804817,1.3525908-1.538146,2.2240018-3.2616809,1.80484-5.3623118-.9219565-4.6205899-3.8389637-7.6293771-7.9774593-9.5722196-1.8564662-.8715773-3.7524211-.7558547-5.6128778.0659253-4.9360836,2.1801902-8.3808257,8.939819-7.268326,14.5510341,1.0431659,5.2612208,3.6324587,9.792026,7.3029928,13.6278306,4.0920237,4.2763319,9.2653719,5.7976848,15.0534131,4.8916069,4.5229906-.7081357,8.0629211-3.2731534,11.0283954-6.6527184,3.6314611-4.1384956,5.915652-9.0190457,7.7241499-14.1630475,1.1924747-3.3920351,1.8932115-6.8623824,1.9052659-10.4615875.002494-.7134563-.0189546-1.4368887-.4083544-2.1535042-.0882884.1594511-.1713393.2477394-.1857214.346087-.0630156.4304681-.1227058.8626819-.1540474,1.2964753-.3930577,5.4300661-1.7881301,10.6080697-4.0278442,15.551386-2.1838481,4.8201116-5.0503098,9.1528915-9.4313905,12.2895388-2.9239904,2.0934814-6.1709566,3.4580435-9.8097335,3.2355768-5.1253798-.3135816-9.3682918-2.5458968-12.484405-6.658704-2.538581-3.3506343-4.2346817-7.1432924-5.3169206-11.2044733-.2247944-.8436442-.3696139-1.7099009-.266694-2.5851361.4522492-3.8438686,2.090738-7.0725453,5.1193942-9.5166861,2.3454607-1.8926295,5.0409156-2.0822583,7.429024-.5500979,2.2195957,1.4240861,3.9460403,3.3279387,5.1407596,5.6864514.5592427,1.1041032.9256975,2.2760437.7860323,3.5355244-.370279,3.3403257-3.6783487,6.6030042-7.0458593,6.9742809-2.6405865.2911354-5.0083271-1.8442455-4.790599-4.3203098.0965186-1.0975356.6670675-1.5938458,1.756456-1.5429678.3676187.0172087.7976711.1483111.9821455-.3386881.1707573-.4510022-.0908655-.7891083-.3651247-1.0978681-.3386049-.3812527-.7955928-.4393634-1.2726159-.4007892-1.249754.1010079-2.4117185,1.1238059-2.7001105,2.3720636-.5835178,2.5252796.5605728,4.8231876,2.9356292,5.8961986,4.4171609,1.9955495,9.2001948.8903656,12.5111742-3.018597,3.0404612-3.5893122,4.4331227-9.2953832.0702483-14.2822617-3.4620339-3.957014-7.7746123-4.8891129-12.6526683-3.7037877-5.2165779,1.2676278-8.5749437,4.6985697-10.5547808,9.5919224-.1179672.2915511-.1646885.6380538-.5086141.9424906,0-.5260722.0013301-.9330965-.0002494-1.3402039-.0222799-5.9784182.7192757-11.8879183,1.5684899-17.7907676.5350507-3.7187519,1.0241282-7.4483943.4443514-11.2127867-.0851293-.5526751.1245348-.6605831.6334814-.7370664,2.3048081-.3467521,4.2354299-1.313601,5.4650655-3.4199681.5727935-.9811479.6693122-1.8926295.0089785-2.8764378-.5475208-.8157943-.9322651-1.7207084-1.1253024-2.694208-.0363296-.1828949-.1168865-.3967156-.0591914-.5524257.6213438-1.674569,1.4817811-3.1782975,3.2575242-3.8588327.8659242-.3318711,1.7079888-.2422526,2.379795.5260722.2144858.2454117.4026182.5735417.8077303.5924132.1245348-1.5308302-.9723357-2.6338526-2.5556235-2.6109908-2.5333436.0366621-5.4553388,2.6457408-5.9333595,5.2826694-.3114201,1.7176324.1882986,3.22452,1.1588885,4.6145211.168679.2415875.372108.4002904.0961861.7567692-3.2218597,4.1640178-8.2256144,2.9408667-10.3903417.4232354-.486251-.5654777-.6126979-.9765756-.2759219-1.6927753,1.102108-2.3436317.6368899-4.8276768-1.2793497-6.5564492-1.8241271-1.6455552-3.8948298-2.6867259-6.6364241-1.7370026.5646464-.5026284,1.0784148-.591083,1.5753901-.7106298,2.5354219-.609705,5.0894659-.4383658,7.6292108-.0873739,3.1183578.4308837,6.2104453.6209281,9.3337912-.0300945,1.8558012-.3868227,3.7470174-.7265084,5.6679126-.4059435,1.7813962.2971211,2.3048081,1.0632844,2.0031978,2.8415215-.1231215.7255939-.526571,1.1685321-1.1758479,1.4357249-.6836943.281575-1.4123642.3891504-2.1257374.5584945-.2741761.0650108-.6951668.083134-.694668.4429382.0004988.3049357.3997085.305767.6474479.3662886.7414725.1808997,1.4839426.325636,2.2466143.0640132,1.6194511-.5554185,2.7262977-2.0151691,2.7088395-3.6030293-.0171256-1.5570174-1.046325-2.80461-2.7563091-3.3423209-1.8360984-.577449-3.658064-.3353627-5.4779513.089951-.7112948.1662681-1.6250211.6605831-2.0801799.3898155-.4475937-.2663615-.4113472-1.3190878-.6215101-2.0164161-.6170208-2.0467601-.9205432-4.1255267-.8752352-6.2727127.0625168-2.9662225.0092279-5.9346897.0495479-8.9016604.1155563-8.4962157.1143924-16.9858638-1.1481642-25.4193134-.1574559-1.0518119-.4865004-2.068458-.1893793-3.1768842.9646043-3.59854.5308108-7.1733869-.2826557-10.7384239-.4656338-2.0411069-.8773135-4.0960141-1.1327013-6.1760278-.3212299-2.6157294-.1760779-5.1868159.9688441-7.7584842-.5985651.3548992-.9347591.7482895-1.2631386,1.1460027-1.5915181,1.9274627-2.393429,4.2481494-3.2349117,6.545808-1.8223813,4.9757385-3.058335,10.0484114-2.3917663,15.407481.2216353,1.781895.4811798,3.5748468,1.5083009,5.1151543,1.1785913,1.7674297,3.2256007,1.80484,4.4864947.1084899.3267999-.4396959.6160232-.9072418,1.011575-1.4940018-.1998542,2.5167168-.1687621,4.8558593-.0462225,7.1942535.3637946,6.939614.2289511,13.8778978-.025439,20.8168467-.1316012,3.5916399-.2469912,7.19018.2766701,10.7599556.2755893,1.8791618.4555745,3.8496048,2.271887,5.1049288-.7373989.1539642-1.4131124.2056736-2.0941465.238761-2.4343309.1181335-4.828425-.3455882-7.244799-.4807642-1.4081244-.0787279-1.4661519-.1212926-1.1575584-1.4908427.532141-2.3618381,1.0756713-4.7171085,1.1862396-7.1500262.2959572-6.5112243-.074405-13.0069024-.4141738-19.5044096-.1917902-3.6675413-.4855028-7.3355814.0640963-11.0032889.1823961-1.2175811.244996-2.452953.3622981-3.6802608-1.1349459,1.5944277-1.6192848,3.3826409-1.8144835,5.2499977-.5453593,5.2171598-.2876438,10.4409703-.082469,15.6634507.2126569,5.4128573.4288054,10.8217242-.0339187,16.2382394-.1629427,1.9067623-.9133937,3.8205911-.0484671,5.7995137-1.1586391,0-2.2216741-.049631-3.2782246.0125532-1.3161781.0773978-2.5967749.3580583-3.659893,1.2117618-1.0576313.8492973-1.3289808,2.5468944-.5986482,3.5320328.6989079.9426569,2.4777269,1.1609669,3.4909646.4251475.3204817-.2327753.5768671-.5121057.5195046-.9484763-.0576119-.4381995-.365956-.6412128-.7538595-.7627548-.3165744-.099262-.685357-.1087393-.8863751-.4534131.2577155-.2612903.5678055-.2904703.8572782-.3310397,2.0605603-.2888077,4.3854037,1.3980651,4.8177839,3.4477349.2287849,1.0843173-.0548685,2.1079467-.2728459,3.1425498-.5106093,2.4241886.1561257,3.9459572,2.3160312,5.1893099.4935668.2841521,1.0187245.5144334,1.5337399.7601777.3153274.1503895.5499317.3455051.5372122.7339073-.0736568,2.2441203.417998,4.4365312.6131135,6.65621.3072634,3.4961189-.067588,6.9560745-.4937331,10.4168614-.7015682,5.6985059-1.9255506,11.2964196-3.2455529,16.912789-.0635975-.3415146-.1223733-.6594192-.1821467-.9771575-.6146931-3.271657-1.6632627-6.3735543-3.7264833-9.0382497-2.8508325-3.6819235-6.5901185-5.1783362-11.1629063-4.174077-6.3420465,1.3928277-10.8729348,6.550131-11.5107391,13.0061542-.2291174,2.3193566.1326819,4.5748662,1.2830908,6.6324337,1.5113768,2.7030202,3.8274912,4.2402517,6.9486756,4.257211,3.1966701.017375,5.8026728-1.3087792,7.6322036-3.9721444.7266746-1.0579638.9759105-2.2900103.8985958-3.5788373-.1355916-2.2598326-1.861288-3.6923152-4.0969286-3.4041727-.3998747.0515431-.7275891.2206377-.9756611.5316422-.4351236.5456087-.3143298.9041658.3695308,1.0116581.4273921.0671723.8675037.05703,1.3022116.0746544,1.1309555.0460563,1.6137148.4576529,1.8380936,1.5740599.3297927,1.6410659-.527818,3.3384968-2.090738,4.1379137-2.136046,1.0925475-5.0602027.4780207-6.6175527-1.3773648-3.049606-3.6330407-3.1358991-7.4085731-.6321512-11.5382565,1.8694351-3.0833584,5.3318848-4.4100945,8.772387-3.4192199,3.8620749,1.1121672,6.4444676,3.6731944,7.5988669,7.5186425.7709019,2.5679273.8673374,5.255734.0995114,7.825906-2.060394,6.8977975-6.6728368,11.5240406-13.2580504,14.2155882-3.7328846,1.5256759-7.5218016.9272771-11.3102198.0571962-3.975636-.912978-7.0498497-3.0036329-9.4529222-6.3276643-5.284249-7.3092279-7.9846088-15.5020875-8.7999875-24.403166-.0616855-.6732195.1586197-.9113153.7836215-1.0021808.727506-.1056634,1.4188487-.3741032,2.0915693-.6694784,1.8203861-.7993338,3.0156873-2.1112721,3.2941863-4.1349209.1042501-.7570186.1010079-1.5228493-.0337524-2.2782052-.2050085-1.14991-.5062863-2.2883476-.6293247-3.4462385-.24749-2.3282519,1.8916319-4.1463102,4.1682576-3.6111764.77032.1810659.8774798.5417845.3334506,1.125053-.3608017.3869058-.8163763.6164389-1.2954777.8265186-.5554185.2435827-.5784466.5988145-.0865425.9459822.3218119.2271222.6898463.2973705,1.0820727.2969548,1.4979091-.0016627,3.1314099-1.1440075,3.6637171-2.5734142.4266439-1.1455039.1014235-2.240878-.8921945-2.9619827-.4916547-.3568113-1.0499829-.5634825-1.6437262-.6842763-1.6670038-.33927-3.3032479-.0960198-4.9335896.2550552-.8645109.1861371-1.7272759.3805045-2.6763341.5900854,1.6996754-5.0697631,1.3932434-10.197637,1.3033755-15.3021501-.0497142-2.8298827-.2312789-5.6573545-.288392-8.4872372-.047137-2.3399738.058277-4.6835224-.0078977-7.0224986-.0759845-2.6800752-.2761713-5.4279877-1.8615374-7.6649585-.9896276-1.3964025-1.1801708-2.7675322-1.1292928-4.3252978.0300945-.9244505-.0009145-1.8509794-.0099761-2.7765107-.0334199-3.4327708-.1722537-6.8573944-.9094033-10.2264845-.3990434-1.8238777-.9020875-3.6169958-1.6980959-5.3849243-.1542968.2960403-.067006.5051224-.0299283.7119599.5818551,3.2442228.8802232,6.5170436,1.1263831,9.8033322.2793304,3.7264002-.3215625,7.4543799.1321831,11.1727161.0194534.1595342.0017458.3282132-.0252727.4881631-.153216.9044152-.943987,1.2468443-1.7097347.7319121-.3892336-.261706-.6742171-.6283271-.9208758-1.025209-.4767737-.7669946-.814963-1.5970049-1.1064309-2.4466348-1.5140371-4.4133368-1.7599476-8.9535361-1.2276404-13.5422857.4468455-3.8515169,1.4918403-7.5185594,3.8234176-10.7125692.0498804-.0681699.1619451-.1646054.0369115-.2793304-.2791641.0748206-.4388646.3070971-.6284102.4931511-1.4457841,1.4194306-2.4198656,3.142633-3.1316593,5.0142296-1.6491299,4.3363546-2.0067726,8.8361508-1.5728129,13.4158388.2553878,2.6958706.850295,5.3128471,2.0775197,7.7549926.4976404.9904589,1.1537342,1.8434142,2.0940633,2.4532024,1.1600524.7522799,2.155915.5835178,2.9861747-.5269867.2692712-.3601367.483757-.7611753.7323278-1.1577246.2750074.1980253.3063489.4804316.4023688.7233493.6794545,1.7176324.9480606,3.5105842.9667657,5.3482622.0461394,4.5452705-.3539847,9.0846384-.1353422,13.6338162.1582041,3.2906116.1399146,6.5870425.0685024,9.8804806-.062018,2.8569844-.2351862,5.708482-.5289819,8.5538276-.0759014.7347386-.3543173.8128846-.9623596.6793714-1.5925157-.349828-3.1988316-.6385526-4.7869411-1.0065038-1.7301025-.4008723-1.7227867-.4277246-1.548039-2.1923278.0320897-.3250541.0389067-.6528516.0801412-.9764924.8195354-6.4297529.7490377-12.8641613.2027639-19.3122037-.3192347-3.768466-.5571643-7.5459936-.2983681-11.3363239.0999271-1.4639904.2962066-2.9173397.3987109-4.3898098-.7171142.9897939-1.1604681,2.0841704-1.3468546,3.27598-.6472816,4.13808-.5555848,8.3028459-.4035326,12.4661155.1799021,4.9244448.375849,9.8451486-.0251896,14.7709236-.1632753,2.0048605-.4301355,4.005398-.3923095,6.0262203.014881.7972554.3086767,1.4995718.6994067,2.1438606.2299488.3792575.6672338-.2359344,1.0155654.0088122.0408188.0285981.1052477.022945.1582872.0349163,1.8685207.4179148,3.6881585,1.0589614,5.6163694,1.2321296-.828015.300197-1.6581916.1051646-2.4768124.0047386-2.5755757-.3162419-5.0195502-1.1938048-7.5267065-1.8036761-2.0189102-.4909896-3.9022287-.305767-5.464151,1.2278898-.9477281.9306024-1.5171131,2.0154185-1.0476552,3.3765722.4091026,1.1860733,1.9349448,2.1669719,3.2938538,2.1741214.5032103.0027434,1.0844004-.0520419,1.2589819-.5612379.1747478-.5101936-.398794-.686604-.7417219-.9288566-.0666735-.0470539-.1414941-.0828015-.2058399-.1324325-.3624644-.2794135-.8152124-.5476039-.6539324-1.0921319.16128-.5443617.6148594-.8057351,1.1713586-.8762328,1.3054538-.1652705,2.4934393.6644072,2.811427,1.9434244.2720146,1.0936283.0633481,2.1680526-.1249505,3.2372395-.7246794,4.1156338.9750792,7.0855142,4.8961793,8.5211559.8200342.3002802,1.6558638.567473,2.5251133.6266644.5728767.0389899.5949072.294627.4924861.7315795-.5108587,2.1791094-.7778021,4.3934677-.8808883,6.6251179-.1877998,4.0694944-.0245245,8.1055689,1.2376996,12.0294955,3.6199055,11.2528573,14.6283487,19.4934359,28.3784695,15.9273181,4.8583533-1.2599795,9.2154083-3.416809,12.7148526-7.1947523.0285981.4397791-.1922059.7332422-.3214793,1.0471564-1.8577964,4.5107699-3.0294875,9.1874753-3.3472258,14.0599613-.3373579,5.1724337.2612072,10.2685503,1.365726,15.3157841,1.5004031,6.855898,3.6690377,13.5342217,5.4032969,20.3272703,1.2344574,4.835242,2.2149402,9.7058991,1.7344255,14.7544631-.0761508.7995832-.4130099,1.0584626-1.1191504,1.1698622-2.2353912.3529871-4.4125054.9369206-6.5198702,1.7669309-1.5225168.5995627-3.0132764,1.2634711-4.2488976,2.3749732-1.5102961,1.3584102-1.4542638,2.7213097.1585366,3.9302449,1.0161474.7616741,2.1826842,1.2190776,3.3826409,1.5792142,5.9120772,1.7737479,11.9427867,2.308466,18.0809054,1.6949368,3.4418324-.3440087,6.8713609-.7462111,10.1230657-2.0317959,1.3730418-.5428653,2.6988635-1.1743514,3.733716-2.2702244,1.2049448-1.2759412,1.266464-2.5555404.1937023-3.9511946-.6976609-.9074912-1.6472179-1.4905933-2.6567976-1.9845758-2.8214862-1.3803576-5.8544653-2.0116775-8.9337502-2.4135474-.9558752-.1247011-1.4543469-.5051224-1.8230464-1.3826853-1.5318278-3.6457602-1.7947808-7.4245348-1.3361303-11.2942581.5022959-4.2380071,1.7344255-8.2936181,3.1232627-12.3068307,1.8391744-5.3140941,3.9006491-10.5561941,5.0547159-16.0876005.9901264-4.7457898,1.5178613-9.5075413.7407243-14.3430327-.2787484-1.7340929-.6969127-3.4377588-1.1750165-5.3234051.4499214.3888179.7536932.6546806,1.0607903.9164697,8.1156281,6.9171678,20.2265118,6.0514099,26.8147182-2.3048912,6.1040337-7.7423562,9.7508746-16.6674605,10.9715317-26.5023005.1944505-1.5670766.1679308-3.1731432-.1558763-4.9398246-.0775641.2527275-.1021717.3031898-.1078248.3557306ZM69.9652892,21.9478021c-.1109008,1.3571632-.2903041,2.7028539-.6855233,4.009721-.2055073.6792051-.478187,1.3362966-.9390821,1.8866439-.6494431.7754743-1.515201.7076369-2.0499191-.1408291-.5179251-.8215306-.7611753-1.7355062-.9046646-2.6834005-.9996868-6.6040018-.0533721-12.9983396,2.0641351-19.2695559.4052784-1.2004555.814963-2.3916832,1.7464799-3.3443161-.1839756.8977645-.3896492,1.7917048-.5477702,2.6939586-.4903246,2.798458.1574559,5.520599.5874251,8.2552933.4475937,2.8472577.9665163,5.6871165.7289193,8.5924849ZM55.205173,73.6782077c.2442478.6358923.9839745.6814497,1.3259879,1.1805034-.8568625.4017868-1.455012-.0993452-1.3259879-1.1805034ZM55.2324409,110.8671396c-3.7292267-2.7003599-9.0441522-2.5463956-12.2675083.2913017-3.3103975,2.9143469-4.6767054,8.6653935-3.0252477,12.7518472.7547739,1.8677725,2.0601446,3.2391516,3.8183464,4.1952762.214569.1166371.4363706.2199727.6528516.3331181.0189546.0099761.0234438.0477189.0625168.1343446-1.7842228-.1764104-3.2574411-.8740713-4.352732-2.261329-1.7167179-2.1743708-2.198064-4.7172748-1.9341966-7.3895354.6018904-6.0963854,5.3426922-11.0729553,11.4389945-11.832551,3.6331238-.4526648,6.5901185,1.0625362,8.8152842,3.9355654,2.1407015,2.7637911,3.0732992,6.028548,3.6701184,9.3984694.3204817,1.8099112.8011627,3.6243947.3497449,5.491419-.3931409,1.625603-1.1394351,3.0664822-2.2287405,4.3417584.6912595-2.4236898,1.1532354-4.874315,1.0590445-7.3949391-.1838925-4.9185423-1.989065-9.0481426-6.0584763-11.9947455ZM9.2194127,100.3779515c.0438116-1.4099533.3073465-2.8159993-.0038242-4.2286129-.5157636-2.3408052-3.1278351-4.0527013-5.3809338-3.5218073-.8105569.191042-1.432732.6422105-1.9024394,1.3098599-.6097882.8665061-.5033766,1.4563421.3549823,2.0830896.2055073.1502232.4179148.2910523.7447147.5178419-1.9163227-.5462738-2.4205307-1.7798167-1.4678146-3.2778089,1.1218107-1.7637718,2.8272224-2.01201,4.6684751-1.6771461,1.520771.2765038,3.0239176.673552,4.5134301,1.0930464,3.1937604.899344,6.3743856.9409942,9.583609.076899,1.4176016-.3816684,2.876604-.5833516,4.3422572-.7103804.7921011-.0686687,1.5823733-.0568637,2.3546054.1315181,1.4368056.3504931,1.8624519,1.5498679.9776563,2.7281266-.1929541.2570505-.4300524.4809304-.646866.7201071.6335645-1.8355996.0257716-2.8088498-1.9371894-2.9998087-2.8287188-.2752568-5.6399795,1.7045803-6.0157454,4.2433277-.1430737.9667657.1089887,1.8926295.3343651,2.8167475.2447466,1.0032616.5670573,1.9973784.5300626,3.0427059-.0754857,2.1323881-1.8106594,3.8989865-4.0210272,4.1328425-4.1255267.4365368-7.1566769-2.3517788-7.028318-6.4805478ZM42.0467172,142.9671875c-14.3381278,3.0129439-24.4239495-8.2364218-26.3112585-17.8464674-.8014121-4.0804681-1.0410044-10.2796071-.3519895-13.4358741.2671928.8435611.1965289,1.5787985.2460768,2.292338.3220613,4.6344733,1.8982827,8.9071473,3.7768626,13.0874593,1.0500661,2.3368147,2.3838686,4.5120169,3.8501868,6.6164719,2.9706286,4.2634461,7.0545883,6.6612812,12.1399807,7.4862203,2.61548.4241499,5.2407699.7497859,7.8777816.3958843,3.7961497-.5092791,6.9372031-2.4179535,9.8075721-4.8428903,2.2698087-1.9175698,4.0927719-4.2037558,5.6085548-6.7476575.3320374-.5574969.6886824-1.1001959,1.0339381-1.649795.0301777.5815226-.217728,1.0595433-.4316319,1.5423858-3.3395775,7.536932-9.3890753,11.4508826-17.2460734,13.1019246ZM72.4714479,204.6356855c.6108689.4432707,1.2215716.8945223,2.2146908,1.0636169-.5193383-1.2147546-1.6937729-1.8452431-1.8833185-3.1800433,1.0459094.3011115,2.034955.5664753,3.0119463.8709122,2.1845963.6808678,4.2970322,1.5389773,6.3118688,2.6300285,2.0135064,1.0903861,2.0908211,2.3235964.1636078,3.5463319-2.0329598,1.2899078-4.3231363,1.9162396-6.6701765,2.2770413-5.5107892.8469696-11.0377064,1.1690309-16.5750986.2098303-2.6032593-.450919-5.1363535-1.1800046-7.6568113-1.956144-.0520419-.016128-.1079911-.0251065-.155045-.0505455-.37402-.2013506-.9461485-.2518961-1.0170618-.7202733-.0730748-.4828425.4513347-.7102972.7929325-.9508871,2.8265573-1.9912265,5.9123266-3.4400866,9.2517379-4.3395969.2129894-.0573625.4921535-.2736773.6675663-.0011639.1471473.2284523-.0635144.4682109-.1667669.6818654-.2479057.5124382-.5284,1.0095798-.7709851,1.5243458-.076317.1617788-.1657693.3915613.0191208.5297301.1995217.1493087.3503268-.0517094.4929849-.1641066,1.3103587-1.0333561,2.2551771-2.3495342,2.9396196-3.857752,1.2476757-2.7490764,1.668999-5.6778886,1.7755768-8.6554174.2334404-6.5167111-.9363387-12.8270835-2.8355358-19.034536-1.3194203-4.3124952-2.7176518-8.6050382-3.6718643-13.0216172-2.1375424-9.8939483-.572461-19.2360529,4.1804783-28.1045428.8474684-1.5812926,1.7422401-3.1339039,2.7474969-4.6057089.2892233.0190377.3033561.2581312.3579752.4126774,1.9025225,5.3824303,3.780853,10.7720932,4.7836158,16.4173101,1.234208,6.9480105.802576,13.7929348-1.0134039,20.609261-1.3851794,5.1988703-2.6255392,10.4427993-3.3052431,15.7948025-.6498588,5.1164013-.7978374,10.2075299,1.0377622,15.1511787,1.0227981,2.7547295,2.5503029,5.165783,4.97233,6.9234028ZM77.7127997,152.8578105c-.4712037,6.4166177-2.4051509,12.4674457-4.5493441,18.4683932-1.5176119,4.2473181-3.1214338,8.4647079-4.0268466,12.9058946-1.2101822,5.9371006-.5435304,11.6306184,2.090738,17.0906959.0687519.1428243.1204612.2937957.0548685.5279012-.3085104-.4673796-.6388851-.9219565-.9218734-1.4041339-2.3129553-3.940886-2.9557476-8.2492245-2.7552283-12.7326432.2646156-5.9136568,1.8203029-11.5867236,3.2571085-17.2809065.9913734-3.929081,1.9280446-7.867473,2.3915169-11.9042957.6095388-5.309688.079393-10.5360756-1.0732605-15.7222264-.3892336-1.7515511-.8675037-3.4796584-1.3597404-5.2051885-.6078761-2.1303098-1.4287416-4.1602767-2.6015966-6.0460893-.3728562-.5995627-.6996561-1.2285548-1.0296982-1.8535565-.3978795-.7536932-.7550233-1.5168637-.2832377-2.382289.0740724-.1359242.1124804-.3086767-.0437285-.5199203-.5232456.2440815-.8596891.708302-1.2103485,1.1346134-4.8448024,5.890878-8.1806389,12.4858183-9.3311309,20.0929986-.9134768,6.0403531-.4480093,12.0020613,1.1756816,17.8653388,1.2905728,4.6608268,2.7834939,9.2659538,4.0529507,13.9322674,1.3106913,4.8184489,2.1048707,9.732502,2.0164993,14.7486437-.0505455,2.8704521-.429803,5.6941829-1.5667441,8.3682724-.084963.1998542-.1708405.3995422-.2652807.5949072-.0343344.0709965-.0948559.1293566-.1927878.2587131.206505-1.1681995.4490901-2.255759.5844323-3.3564537.5903348-4.8021547-.192871-9.4922446-1.2207402-14.1573944-1.3981483-6.3456212-3.3021672-12.5647125-4.7391391-18.9005239-.9098189-4.0115499-1.5670766-8.0580162-1.7243662-12.1804669-.2666109-6.9838413,1.2707038-13.5490195,4.469951-19.7430043.2620385-.5071176.4891607-1.0359333.7896071-1.5191914,2.7924724-4.4917322,4.2541351-9.4390389,5.042412-14.6207004.0482177-.3174058.1313518-.6294909.3426785-.9246999-.1160551.8256873-.2224667,1.652871-.3506594,2.476563-.1380025.8866245-.3270493,1.7662658-.4367862,2.6558832-.1040838.8438936-.168097,1.6980128.0057362,2.6554675.4401947-.4041977.4747785-.8555324.5673898-1.2514167,1.0359333-4.4237285,1.9212277-8.8627537,2.2008906-13.4231546.2179775-3.55265.6873522-7.0938276,1.1475823-10.6267749.6309874-4.843306.3292108-9.6085492-.9234529-14.3215841-.033503-.1260312-.0501298-.2563854-.0816376-.4213233.7751418-.0838822,1.4856053.1649379,2.2131113.1887974.4493395.0147147.3568944.3908963.3839961.6743002.3391869,3.5560585-.0517094,7.0662271-.7063068,10.5528687-1.0017652,5.3345451-1.4038014,10.7314406-1.7551258,16.135652-.1853889,2.8513313-.389483,5.7014987-.5963205,8.5513336-.0474695.6542649-.0661747,1.2936488.3233914,2.0223186.7033971-1.0586289.6328994-2.2382177,1.0329404-3.4184717.5480196,3.1444619,1.5103792,6.0306264,2.6707642,8.8594283.9008405,2.1964013,2.0173306,4.2761656,3.2402323,6.3040542,3.135816,5.1997848,4.130681,10.8627924,3.690902,16.8511036ZM125.7074941,92.7976235c-.8076472-.3722742-1.6662556-.504208-2.5452318-.4702061-.9429063.0364127-1.8843161.1138105-2.9108553.1787382,1.2270584-2.9573272.9535474-5.945414.7179456-8.929926-.1862202-2.3597597-.452748-4.7148639-.3732718-7.0888396.0921125-2.7476631.1713393-5.495742.2675253-8.2432388.1459834-4.1729963.0510443-8.3282018-.9126455-12.4178978-.2615397-1.110172-.5224143-2.2269947-1.0585457-3.2473819-.4039483-.7686573-.7329928-.9874661-1.3488498-.9676802,1.0257078,1.5894397,1.340287,2.8699533,1.5987507,5.5663228.4570709,4.7687348.0950222,9.5159378-.2466587,14.2676301-.2752568,3.8274912-.5822708,7.6524883-.1213757,11.492699.2267897,1.8894705.4183305,3.7885013.3455882,5.6997529-.0722435,1.9000285-.7897734,3.0287393-2.3428004,3.3991846-2.0347056.4851703-4.0044836.1769092-5.8340144-.8354971-.842231-.4661326-1.3085298-1.2046122-1.234208-2.2211753.1843913-2.5241988.3686163-5.0483977.535882-7.5738435.3134153-4.7294955.4371188-9.4593236.1443207-14.1976313-.2232149-3.6128391-.4123448-7.2298349-.0784785-10.8498235.1205444-1.3070334.5174263-2.4913609,1.3477691-3.524717.3106719-.3865733.5134358-.5067851.7738116.0528732.3228926.6940861.7621729,1.321665,1.3873409,1.7892108.7851179.5870095,1.6084774.6507733,2.3581802.1976096.8359128-.5053718,1.3477691-1.5388111,1.1984603-2.4212789-.0611035-.3613005-.1900444-.8140485-.549516-.8123858-.4056941.0018289-.2599601.498638-.3305409.7887758-.0257716.1054971-.0384079.2141533-.0555335.3215625-.0999271.6298235-.3180708,1.1878192-1.0424177,1.2827582-.688433.0902836-1.1332832-.3236408-1.440796-.8737388-.3468352-.6200968-.5728767-1.2977224-.7004874-1.9937205-.8147136-4.4430987-.7648332-8.8702358.2563022-13.2815773.4092689-1.7677622,1.0225487-3.4676871,1.6657568-5.1621251-.1000934.0392393-.1678476.087457-.2045097.1530498-3.1902688,5.7013324-4.4983829,11.7310443-3.154438,18.2159151.0563649.2720977.1858877.4867498-.1246179.7035634-1.7505535,1.2222367-2.3435486,3.1034768-2.6743389,5.0493122-.457736,2.6929609-.3305409,5.4274058-.3152443,8.1483829.0312584,5.5817857-.03475,11.1594147-.4948138,16.7274001-.2040109,2.4675846-.386407,4.9391596-.4816786,7.4127298-.0771484,2.0033641.8707459,3.2086414,2.7851566,3.8138572.2511479.0793099.5014645.1614463.8316729.2680241-.3664548.1467316-.6191823.0370778-.8780617-.0169593-1.4368887-.300197-2.8641339-.6516046-4.3277918-.8095593-1.4255825-.153798-2.7168204.1650211-3.7658889,1.1717743-1.2495046,1.1991254-1.0395912,3.3114782.3886516,4.2610352.9226216.6131967,2.1272338.5005501,2.7317845-.2868956.241255-.3141635.5764514-.6985753.3127503-1.0972031-.2632024-.3981289-.7073044-.169344-1.0429997-.0241089-.5723779.24749-1.0134039.1534654-1.3087792-.4002904-.3219781-.60347-.1384182-1.1061815.3821672-1.5002369.3085936-.2336067.6707254-.3391869,1.0513962-.4148389,1.3643959-.2711001,2.7152409-.07507,4.0603496.1192973,2.5274411.3653741,5.0369252.8856269,7.6148286.3824997,1.3859276-.2705182,2.7982918-.3785924,4.456899-.4010386-.3135816.2214691-.4419406.3105056-.56872.4017868-2.1946555,1.580295-2.4842114,2.7660358-1.2559059,5.1417572.0873739.1690946.1735839.3387712.2630361.5066188.6237547,1.1695297.445931,2.2554265-.3509919,3.269163-2.3703177,3.0149391-7.0929963,3.1492837-9.5802005.2753399-.5146828-.5945747-.7129575-1.7526318-.3662054-2.1386232,1.40854-1.5678249,1.6301754-3.1005671.7010694-4.8483772-.8878715-1.6704123-2.7936363-2.6567145-4.6327275-2.392182-.3189853.04589-.7383134.0786448-.7601777.4561565-.0165437.2868956.3868227.3156599.6383032.3987109.1547956.0511274.3105888.105414.4702061.1347603,2.386612.4381164,3.4999431,3.5080902,2.0379478,5.237777-.9395809,1.1116684-.6918415,2.4047352-.0583601,3.6077679,1.4290741,2.7142433,5.6051464,4.4058547,8.5470106,3.4479843,2.046095-.6662362,3.7301412-1.8753377,5.0517231-3.5770083.4925692-.6343127.7778021-1.3598235.9293554-2.1495969.24749-1.290656-.3296265-2.2338116-1.1596367-3.1457921-.9168853-1.0074183-.8079797-1.9829131.1958638-2.9064492.8005808-.7364845,2.0742774-.9333459,3.0478602-.4711206,1.0573818.5021296,1.1441738,1.0852318.209664,1.7948639-.5962373.452748-1.2618085.8141317-1.9546475,1.253495.6446213.3897324,1.2169161.2725134,1.761444.0074821.9429063-.4587336,1.7423232-1.1224758,2.4073955-1.9236385,1.1198155-1.3490161.7081357-3.0455324-.8872065-3.7810193ZM125.7290258,95.5519374c-.163109.0543697-.2247113-.1154732-.2882257-.2262077-.6646566-1.1597199-1.6576928-1.6583578-3.0059606-1.4506059.9269445-.4150883,1.7813962-.1936192,2.6095775.2007687.4406935.2098303.7106298.5806913.8153787,1.0617048.0349994.1609475.0679205.3481654-.1307698.4143401ZM116.486599,29.8074605c-.2988669-.4702061-.6957488-.8948548-.8037399-1.6522059,1.641731,1.1154925,2.6158957,2.532346,3.0732992,4.2629473,1.1731044,4.4371962,1.4202619,8.893347.0726592,13.3504954-.5938264,1.963626-1.5078852,3.7766132-2.5779866,5.5196014-.279746.4555745-.6647398.7453798-1.1301241.4832582-.4692085-.2642831-.3011115-.7745598-.0921125-1.1650404.8085617-1.5104624,1.5544403-3.0449505,2.0663797-4.6871803,1.5045598-4.8257647,1.569155-9.6713154.2382622-14.5428038-.1616957-.5920806-.5267373-1.0656121-.8466371-1.5690719Z"/>
  </g>
</svg>