<?xml version="1.0" encoding="UTF-8"?>
<svg id="Layer_2" xmlns="http://www.w3.org/2000/svg" viewBox="0 0 293.9409524 387.1098">
  <g id="Layer_1-2" data-name="Layer_1">
    <path d="M30.2699729,186.0949749c.0469762-.0028448.0940254-.0052155.1410016-.0080604-.0180902.0318403-.0376393.0613463-.0550731.0943172l-.0859286-.0862568ZM39.4802318,188.5265784c11.739535.0126194,23.4148058,1.7135382,35.221085.1307165-11.7317299-.4840594-23.4634598-.9681188-35.1951897-1.4521782-.0086074.4405116-.0172149.8809867-.0258953,1.3214618ZM73.3190193,185.729815c-.5163009-.4797922-1.0580593-.720983-1.617981-.7753631-12.6000607-1.2245186-25.2316334-.3664729-37.8482525-.5258201-1.3332788-.0168502-2.6823136.325697-3.4418112,1.6582828,14.2828164-.8630423,28.584963.1666781,42.9080448-.3570996ZM181.9542503,123.994113c-10.6931467,3.4201832-21.5372155,6.3686346-32.3182603,9.5138902-1.3151156.3836514-2.5472934.8911624-4.0279199.4395268-16.1917728-4.9396162-32.3618811-9.9387552-48.0633942-16.3177479-.5006908-.2034056-.8569515-.7622331-1.7762705-1.6154644,10.4312761,1.4227087,19.8387039,4.2944955,29.3604356,6.61836,6.424583,1.5679776,12.8129856,3.316055,19.1368323,5.247843,2.2676973.6926806,4.2240676.1088696,6.2593638-.3850373,13.9014628-3.3734623,27.7873154-6.8110427,41.6849121-10.200334,2.0749051-.5060157,4.1797174-.9752674,7.0910036-.2059587-5.7335072,3.5262444-11.6425918,5.0805085-17.3467024,6.9049223ZM171.4797181,124.7496717c-5.1010788.4314665-10.0240272,1.5295358-14.9159743,2.7519026-6.1692774,1.5415352-12.2142575,2.2254989-18.5249742.1870296-6.6845571-2.1591924-13.5915947-3.6294609-20.4014703-5.4006252-.0720691.315813-.1440653.6316625-.2161344.947512,9.5115924,3.0078282,19.0204129,6.0244462,28.5419258,9.0005436.5420503.1694135,1.2316671.1480408,1.7786047-.0221386,7.9201632-2.4641732,15.8275611-4.9690858,23.7380227-7.4642239ZM147.2884185,137.750088c-1.8996195-.1197748-2.836664,1.1488022-2.9042106,2.870875-.0663795,1.6918737.7115732,3.0432792,2.5970415,3.1967908,1.9518478.1589095,2.7270285-1.0417198,2.8343298-2.7170351-.0422348-1.821569-.6074085-3.2296158-2.5271607-3.3506307ZM237.9311698,154.3969248c.0650665-.0277918.1296223-.0572249.1944699-.0857097-.03939-.0100663-.0780506-.0186373-.1175865-.0290684-.0200597.0219563-.0768835.1147781-.0768835.1147781ZM267.4121825,98.6156424c1.3847046,6.4970898,2.7694092,12.9941796,4.1541139,19.4912694.0716315-6.8761457.3432766-13.7887636-4.1541139-19.4912694ZM241.7228226,152.8031249c-1.2407852.357902-2.4043222.9840937-3.5971829,1.5080902,5.0120136,1.2825459,8.5991302-.5380018,11.2901971-4.8716685,2.5278172-4.0706289,3.0199734-8.644064,3.8090136-13.1795679,1.3599764-7.8168739-.0741116-15.6711318.3157766-23.4478132.4195765-8.3684434-6.01748-22.0798858-14.3173921-26.4270837,5.4227638,6.3239926,10.3111366,12.289062,11.768348,20.036201,2.3278035,12.375173,2.2796602,24.7811649-.6190067,37.080658-1.0944586,4.64379-3.8779461,7.9246493-8.6497537,9.3011841ZM124.632162,263.8048199c-.0088263.0885181-.0198409.1764526-.0299802.264606.0436937-.054453.0862933-.1093437.1312271-.1633226l-.1012469-.1012834ZM9.2049269,143.1108126c.3028654-4.9899114,3.0597282-8.3362202,7.2568793-8.7199445,4.3957788-.4019604,7.7715754,1.83107,9.1937734,6.0815435,1.4570655,4.3546382.1652192,8.9043298-3.1684884,11.1591889-3.6295703,2.4550916-7.6830208,1.8204748-11.6213649-1.8195265-.1900933,3.7777205,2.5400719,4.5866745,5.3587186,5.0119407,5.4639045.8244182,10.3283515-3.2390257,11.2268084-9.1863331.865413-5.7290576-3.0820492-11.9454389-8.1204687-12.7876921-4.0899957-.6837449-8.7243758,1.6884818-10.439373,5.9669842-1.4615881,3.6464569-2.6950788,7.6316314,1.6106865,10.5685941-.8517724-2.0046596-1.4320456-4.051481-1.2971713-6.2747551ZM65.7768543,85.5248114c55.2178595-6.7932808,110.4788291-5.2925945,165.7551171-.8336457-55.2891992-6.9342095-110.5457192-7.5942109-165.7551171.8336457ZM16.6663424,149.8963248c-2.7173269-.6268847-4.2647706-2.3561789-4.8280477-4.9573053-.2884224-1.3322211-.2302127-2.739575-.3285418-4.1129732-1.4034513,5.1827036.3381705,9.4926998,4.2885505,10.6129808,3.7023688,1.0499625,6.5544971-.9872303,7.779964-5.5570546-.0211539.031512-.0423078.0629511-.0633158.0944631,1.460348-4.2943131.001313-8.4727904-3.7316925-9.5553956-3.3112407-.9603502-6.4875341-.7475348-7.3935042,3.6260325,2.1110126-1.8917415,4.4321052-3.5036317,7.3376288-2.0871597,3.317368,1.6171786,3.7334432,4.8106869,3.7454061,8.0792551-1.6145526,2.406-3.2750602,4.6718007-6.8064472,3.857157ZM163.2312319,112.0096305c-.0266247-.0366181-.0523012-.0725068-.0809683-.1106932,3.1603915.645522,2.4032281,3.245773,2.2880488,5.1808436-.1494632,2.5092164-2.4448794,1.8869272-3.9790472,1.8949876-9.6905981.0510246-19.3821445.0414689-29.072305-.0587932-1.9941556-.0206068-4.5995857.5263672-4.5637699-2.9564388.0296154-2.8873969,1.3555998-4.002207,4.2370517-4.0684771,10.390792-.238966,20.780125-1.6083523,31.1709899.1185712ZM161.6093848,114.9774852c-10.012502-.1976065-20.0215027-.1721489-30.0151121.577866-.8566597.0643005-2.0851902-.0064556-2.0069938,1.277768.0808954,1.3275891,1.3440746.9800088,2.1646267.9873032,4.772464.0425631,9.5455845.0208256,14.3184862.0208256-.0000729-.0559849-.0001459-.1119333-.0002918-.1679181,5.0815297,0,10.1634241.0314755,15.2442243-.0283754.9359503-.0110146,2.4146803.558171,2.552983-1.0856323.1277257-1.5174635-1.1552214-1.5600996-2.2579227-1.581837ZM149.1176466,112.0249124c4.2606128.9523993,8.5149523,1.2430465,12.7654258,1.5816547,1.3968134.1112403,2.7151386.2879482,1.3553809-1.5870525-4.7017079.0053614-9.4112208.0053979-14.1208067.0053979ZM292.1253267,191.1793494c-2.3617956,6.7049086-8.2142023,8.3339042-14.576126,8.3250779-3.6750147-.0051426-5.1409794,1.1811531-4.831622,5.0758035.5039003,6.3437241-.5034626,12.6215793-2.1167022,18.7595636-2.0774581,7.9043707-5.2167687,10.2468725-13.3327148,10.2183877-2.6204567-.0091545-5.241278-.0719597-7.8608594-.1461077-7.5595258-.2140555-10.4266806-2.360665-12.0621683-10.0200153-1.6128749-7.5533985-1.9610388-15.2904711-1.7475303-22.9974177.0894299-3.2268804-1.1209375-3.9996904-4.0071308-3.7703895-2.9149334.2316351-5.8541574.1627026-8.7828773.2147485-2.7906361.0496387-5.7094356-.8566962-6.5650011,3.5938275-.4691787,2.440758-3.6634165,2.4181087-5.96496,2.4003832-2.3269282-.0179079-4.6546587-1.1049991-4.9895467-3.3516154-.4154187-2.7870253-1.9066222-2.6446013-3.8247696-2.555682-9.3937871.4355514-18.7856777.9557547-28.1846439,1.2106956-.1163464.0031731-.2277326.008571-.3370034.0150266-.8048691-.2692745-1.6219929-.4860289-2.4478701-.6624086.0101393.0427455.0164854.0863662.0188926.1301694.02626.4869407.0475598.9741003.0637535,1.4614422.1130639,3.4031507-.0999339,6.8156382.1009551,10.21547.0218833.3700837.0498211.7398027.085345,1.1088287.0180173.1863366.0379311.3724909.0600333.5583533.0108687.0916912.0226128.1833094.0342839.2748912.0004377.0029543.0007294.0049238.0011671.0082427.0066379.0459915.0129841.0920194.019695.1379744.1046753.7192688.245604,1.433468.43081,2.1364337.1894368.7190865.4252662,1.4257723.7077071,2.113675.0097016.023634.0195491.047268.0293237.0708291.0186008.0429278.0369828.0858921.0557296.1287105.0396818.0904876.080093.1806469.1213796.2704416.0765917.1668969.1559552.3325902.2378719.4969341.1846224.3704484.3825207.7342224.5921631,1.0911032.4404386.749869.9327408,1.4692108,1.4629011,2.15839.0250199.0318403.0861474.1103285.0954843.1221455.0375664.0475963.0753516.0950466.1132098.1423511.0639723.0798012.1283822.1591648.1932299.2381637.1595295.194324.3219039.3863138.4866854.5761518.3329914.3833596.6761222.757747,1.0274956,1.1243294.7824752.8163214,1.6031733,1.5968271,2.4603436,2.334405.4039664.3476533.8159567.6860061,1.2349497,1.0154963.2194169.1725866.3670565.2855411.6325014.4837676.2026397.1513597.4067383.30075.6122228.4483166,3.5204454,2.5285831,7.4024035,4.4840416,11.2702833,6.4149543,3.2951929,1.6450069,6.6040993,3.2913633,9.7128462,5.2700182-.0595956-.1027787-.1186806-.2057398-.1765256-.3090292.3909823.2669767.7681781.5936585,1.2891474.2979781,1.6685315,1.6043039,3.0933556,2.262737,4.4759448-.4600607.752495-1.4817572,2.3607744-2.3400946,3.8199553-3.196499,1.9940826-1.1703938,3.5635555-.9989014,5.4668223.6366957,6.5143047,5.5981223,13.2354799,10.9558197,19.892318,16.3873004.6460691.5271331,1.350056,1.0224989,2.1010921,1.3751124,3.8147033,1.7913335,4.6933922,3.6311021,3.6253395,7.7726695-1.4251158,5.5258344-5.8713723,10.0986494-11.0376634,11.1947128-.0833026.1889261-.3312408.3285783-.5287014.2510383-.0865121-.0339556-.1711277-.0708655-.254795-.1092343-.7868519.1112403-1.5873443.1410381-2.3937453.0805307.5707174-.1579247,1.1221046-.3204085,1.6554744-.4897491-.6621898-.4311382-1.2458913-.9794252-1.8195265-1.5302288-.828649-.4488272-1.2038753-1.5929975-1.9522125-2.1234131-6.7219046-4.7642213-13.3165212-9.7097825-20.3072991-14.0844804-2.1450776-1.3423239-3.4745633-2.8612828-1.9845998-5.4314078.0348675-.3508264.085345-.7001574.1534751-1.0465706.0665983-.3388999.1508491-.6710161.2486677-.9976249-.0010212.0015683-.0021154.0031731-.0032096.0047414.7675945-2.2509565.1035811-4.0914181-.8636624-5.8449664-.1381568.0141877-.2776995-.0114888-.3899611-.0898676-.4348219-.3034125-.874604-.5996034-1.3192005-.8884635-3.6804126-2.3911193-7.6517276-4.2777912-11.5649059-6.2475468-3.9395113-1.9830315-7.8332134-4.0831389-11.3107674-6.8179725-1.7219998-1.3541774-3.3313733-2.8645653-4.764586-4.5225198-1.2037294-1.3924367-2.2894347-2.9017305-3.1121752-4.5521353-.6945042-1.393385-1.2079602-2.8713856-1.5195789-4.3967271-.3106704-1.5205272-.4437211-3.0734417-.4939799-4.622709-.0531036-1.6349406-.0230504-3.2713765-.0124735-4.9067912.0123276-1.9123119-.0024072-3.8246237-.1055506-5.7346014-.0073674-.1356037.0332627-.2585152.1038729-.3613668-4.5884252-.756507-9.411002-.383542-13.9989895-.4036382-2.0445602-.0089722-4.0793458-.1259751-6.1177057-.1787504.0387335.2536643.0780506.5072558.118243.7607013.3478721-.0147713.6850943.1967677.6422759.6407806-.0806766.8370741-.1106567,1.6767013-.1013199,2.5169849.0177984.096469.0347216.1930475.0527388.2894801,1.0393856,5.563036,2.4591035,11.0563372,4.2869457,16.4130498,1.6242542,4.7602458,3.5728195,9.4067712,5.848103,13.8927824,2.0222392,3.9869616,4.2979603,7.8452493,6.8126475,11.5414908,2.2192621,3.2619302,4.6251892,6.3938369,7.2032651,9.380183,2.2291096,2.5821243,4.5838297,5.0553791,7.0492064,7.4129075,2.0207073,1.9324081,4.1160369,3.7860726,6.2728585,5.5652608.8744581.7213842,1.7589826,1.4305867,2.6511663,2.1298687.2038798.1598213.4081972.319132.6128793.478005.2625271.2038068.2437074.189145.470127.3635187.3593244.2767148.7195971.5522625,1.0800886.8274454,2.6737061,2.0410588,5.3538313,4.0741667,8.0233796,6.1206599,2.3218221,1.7798812,4.6291282,3.5906544,6.7868981,5.5687622,2.0994873,1.9246395,3.8993189,4.0900322,5.6257683,6.350435,1.5912104,2.0833302,3.0695027,4.258935,4.7613765,6.2637405.6775081.8028632,1.3961569,1.560136,2.1539039,2.2734234,1.1536895-.7069047,2.3551577-1.3938956,3.5779985-2.146573,12.2084949-7.5144097,16.6677354,15.1392572,22.378411,27.0268694-.2432698-.0377123-.4668445-.0923842-.6754657-.1599307.1744102.810267.2632565,1.6380042.2384554,2.4757349-.0528118,1.7850967-.6017918,3.4911582-1.4279607,5.0570933.2930179-.0583191.6047825-.0789988.94288-.0477057-3.0630836,6.3001762-9.6573354,9.6858567-16.6628481,8.4268719-2.555609-.4592948-3.8336689-1.6075135-4.5170125-4.7148014-1.7499375-7.9572919-4.7859587-15.6470236-9.5333299-22.3331854-2.4551645-3.4576767-2.3513646-6.1800367.1110215-9.1006234,1.2842601-1.5232261,2.7757554-2.6822406,4.3879008-3.7378198-1.4959449-1.4614057-2.7995353-3.1029113-4.0510433-4.779102-1.7613898-2.3590602-3.4770434-4.7484653-5.3945343-6.9860365-1.7586908-2.0521829-3.826885-3.8338877-5.9141177-5.5409703-2.2622264-1.8502361-4.6024305-3.6015596-6.9334435-5.3633871-.9870114-.746003-1.9705945-1.4962732-2.9462266-2.2571933-.0667442-.0520823-.1336342-.1039823-.2004514-.1559917-.0177984-.0138594-.0304178-.0237434-.0401924-.0313661-.0061273-.004632-.0163396-.01251-.0337003-.0258223-.1436276-.1105473-.2872553-.2209488-.4311747-.3310949-.6756845-.5171762-1.3534114-1.0317264-2.0274182-1.5510545-1.8388568-1.4167272-3.6532043-2.8644559-5.4205026-4.3697741-2.2626641-1.9271925-4.4514355-3.941189-6.5531841-6.0428282-2.2008072-2.2006613-4.3059113-4.4970257-6.3053188-6.8821636.8931319,1.2656593,1.8042811,2.5188815,2.7389914,3.7552536,5.9178379,7.8274873,12.6274878,15.39573,15.5281971,24.9752701,3.2232696,10.6451493,1.1494587,21.9101441,1.7133923,32.8165439.2352459,4.5485245.7362284,9.1028482,2.0525111,13.4785308.8673825,2.8834944,2.0951836,5.6163949,3.5621696,8.2247063.0253117-.0042673.049967-.0074039.076227-.0133488,1.4565549,2.5893094,2.9637333,3.9259801,5.6709938,1.0917597,1.4733321-1.5424105,3.7675812-2.0018147,5.8777914-2.5140672,2.883932-.7000844,4.7492677.0917641,6.4827197,2.8064286,5.9330103,9.2914825,12.2092973,18.3640587,18.3793041,27.5035615.598801.8870046,1.2805399,1.7563931,2.0729356,2.4678204,4.0248563,3.6137049,4.4234977,6.199987,1.5775698,10.8942181-4.5588826,7.519844-13.9618608,11.7453705-21.6959427,8.7680696,5.8378908.1318836,10.3990347-.4639267,14.4167424-3.2087537,3.9820379-2.7203906,7.06416-5.9807525,8.1497194-11.8306791-1.1323168,1.3285374-1.6165221,1.8966288-2.1007274,2.4646108.8411225-3.1429578-.072288-5.3927837-2.7656161-7.4553976-2.1226107-1.6254578-3.566911-4.1328505-5.3296138-6.2341615-.9080855-1.0823863-1.6266614-3.0563363-3.3637607-.8311291.3955778-1.5033123.6664935-2.9844495-.2143108-4.4427551-3.0246419-5.0080746-6.0276922-10.0292063-9.1882296-15.2941183-3.4679254,8.2950977-9.7040928,13.2316503-17.6850188,17.2080715,4.9303888,3.6649848,7.0171108,9.4572853,11.9340049,12.77965,2.9206231,4.8786711,6.0926128,9.6184196,8.2462979,14.9210439-2.4911261-.1117509-2.1476307-2.643653-3.1663-3.9518024-6.496871-8.3436058-12.7702401-16.8628618-19.7417607-24.8271929-2.1598124-2.4674192-3.2337737-4.8480709-.3488933-7.4850131.2943309.5132737.6830519.9954365.8644648,1.5459483.4480249,1.3598306-.8190933,3.3925737,1.0207847,4.0926217,1.7428619.6630651,3.2378585-.7297363,4.4677021-1.8532998,3.1774605-2.9028976,6.2900734-5.8807456,9.3417777-8.915928,1.7181337-1.7087968,4.4911172-4.0516998,2.9438924-6.0769297-1.613969-2.1125444-4.8881539-.6027765-7.1855396.7153663-1.6966881.9735167-4.6572118,1.4596186-2.2843286,4.7090388.4027263.5514966,1.1930066,2.5746475-.9190272,3.3455975-3.0644696,1.1186397-2.0753427-1.8956441-3.0251525-3.1591879-1.4967473,1.2220385-2.777652,2.2677702-4.0584837,3.3135384,2.2191892-3.1003218,1.4567737-6.2404347.6476738-9.3812042-2.1246532-3.6714769-3.7354127-7.6143436-4.6764691-11.755911-1.061123-4.6701229-1.4189156-9.5230082-1.4904011-14.3020737-.1644897-10.9911978,1.5327089-22.2553902-2.7931891-32.7150782-3.8670774-9.3501663-11.1245402-16.7736143-16.8893406-24.9365366-6.2244964-8.8138422-11.5948861-18.3415554-16.0137154-28.1848627-1.8959723-4.2233746-3.5302199-8.583593-4.7354812-13.0558177-.9325219-3.4603391-1.6817344-7.0964015-1.707338-10.7128417-.2295562-1.2615014-.4411681-2.5263218-.6330849-3.7941694-.0094828-.0626958-.0107958-.1252821-.0080968-.187139-.7370308-.0059085-1.474864.0007659-2.214229.0296154-2.0107139.0784882-4.0170512.2295927-6.0237532.3751533v.0002918c-.2073811,6.3823117-1.0221707,12.7875644-.569915,19.17666.4790992,6.7678232,3.7820242,12.9981551,7.9875639,18.2013926,2.2135725,2.7385902,4.7657531,5.1426207,7.1934905,7.6835314,2.4726712,2.587814,4.8474509,5.2707111,7.086554,8.063572,4.5423243,5.6658148,8.5890639,11.7972705,11.4084401,18.5111877,1.3079671,3.1145824,2.3289706,6.3692546,2.9374733,9.6901604.5354123,1.9073517.7568717,3.7537582.8113612,5.6480163.0264788.9216167-.2542114,2.0990497-.028886,2.9317836-.0675466-.0242905-.1358955-.0465021-.2037339-.0699902-.0406301.7556681-.1056965,1.5115186-.1999408,2.2667855-.0217374.174629-.0875333.3387541-.1946158.4615196,1.5049171.5612346,2.9643898,1.2224032,4.375865,1.9805149,1.024359,2.6828971,4.4158386,4.2331492,4.7118472,7.2403938,3.2644833,5.3532478,3.2917645,8.5645181-.2644966,11.1877831-.0585015.1232397-.1502656.2321822-.2650802.3070232-.1331236.0867674-.2642048.1765985-.3928059.2698945-.0639723.0464291-.1257562.099788-.1919169.1431535-.0043037.0033919-.0086074.0067474-.0129112.0101758-.0308555.0243999-.0615651.0489822-.0922018.0737104-.1292576.1044929-.2561809.2118307-.3809889.3216121-.2629648.2313433-.5164468.4734095-.7621966.722989-.5162279.5243977-.9986096,1.081511-1.4607127,1.6539426-.1191912.1476761-.2370695.2964827-.3537806.4461648-.0069297.0088628-.0143701.0182726-.0216645.0275001v-.0000365c-.0290319.0358157-.0563131.0732362-.0843967.1098544-.0563131.0736374-.1124804.1474572-.1683558.2214594-.2407897.3189132-.4772756.6410359-.7110626.9651281-.4733366.6562083-.9354397,1.320477-1.3970322,1.9850375-.9487885,1.3659944-1.8972853,2.7326817-2.9265316,4.0399558-.9136293,1.1604734-1.9001302,2.2847298-3.0542573,3.2131668-1.0331853.8310562-2.195774,1.5236273-3.4930912,1.8345896-.5675079.7036952-1.1256059,1.41308-1.6249107,2.1591924-.6347627.9484968-1.8054482,1.0245049-2.9326589.9157082-3.2854183-.3169437-8.8946282-6.1400996-10.9853622-10.4329174-3.9138348-3.0691745-3.6126472-7.9517117.9490803-10.787938,2.5956555-4.0073861,6.7063675-6.561828,9.7520903-10.1315474,1.6791814-1.9680414,3.6976274-3.6970804,4.2866539-6.4555844.2766783-1.2960406,1.5321254-2.2932278,2.7578111-2.0427001,1.8164629.3713238,2.9388592.24761,3.628622-.1926828-.0318767-.0768835-.0462468-.160259-.035451-.2470629.105113-.8426908.1805375-1.6885548.220657-2.5368623.3327726-7.0322103-1.6576628-13.961569-4.704261-20.2433268-3.1716979-6.5397988-7.4379274-12.5167217-12.1513794-18.0282954-2.2797331-2.6657916-4.6755938-5.2315764-7.1576748-7.7097185-2.5378835-2.5337986-4.9297323-5.1856214-6.9850882-8.131921-2.0509793-2.9400263-3.7556183-6.1395161-4.8908529-9.545621-.9730061-2.919383-1.353995-5.8940215-1.4246052-8.9607159-.1296952-5.6296708.5272425-11.2323886.6751009-16.8521025-1.1593062.0803483-2.3190502.1537669-3.480253.2033691-2.1057606.0899405-4.216992.1051859-6.3285881.0986209-.2845563.4606442-.546281.9353303-.7862683,1.4206298-.1591648.3219404-.3093574.6482939-.4516721.9780393-.0079509.0185279-.0158289.0370558-.0237799.0556201-.0036472.0087169-.0308555.0730174-.0388065.0922018-.0307826.0742939-.0611275.1487337-.0911806.223283-.0667442.1658757-.1315918.3324808-.1947617.4997425-.2679979.7098225-.5047756,1.4312067-.7171899,2.1595206-.4534957,1.5547746-.7975747,3.1404047-1.0733777,4.735773-.0717773.4152728-.1388133.8313844-.2016185,1.2481526-.0346486.2302856-.0680572.4607901-.1002257.6914405-.0113064.0808954-.022321.1618273-.0333356.2427592-.0038661.0294696-.0118899.0897946-.0134947.1016481-.0076592.058392-.0152454.1167841-.0227587.1751761-.1118968.868805-.207454,1.7396523-.2895895,2.6117398-.3450273,3.6617023-.4632702,7.3426619-.4797557,11.0193908-.0156831,3.4873286.0675466,6.9740007.1718571,10.4595421.0795824,2.6581325.1860084,5.3175779.1949805,7.9772787,2.2350911,1.9980946,3.8250614,4.8284489,6.3194701,6.5091986.8703003.586437.7322894,2.063161.2480841,3.0386108-2.0066291,4.0430924-4.1139944,8.0362908-6.1852523,12.0474335-.529285-1.4468533,1.038875-2.7156856.4658233-4.3755732-5.5864512,1.2462196-10.2551882-1.0020745-14.7688453-3.815141-2.1663045-.5407008-3.2054712.4654586-3.9917395,2.4757349-1.203,3.075703-2.1188906,6.3646956-4.7227888,8.7013983l-.1062071-.0944631c.0536142.0477057.1061342.0943901.1059883.0943172.1447218,6.9618919,9.081366,13.6056365,15.6929786,11.6841701,1.6365089-.4756343,2.3231351-1.5027288,2.8929042-3.1605739,1.2981195-3.7769545,1.7554813-7.9214033,4.3690812-11.1817287-.5658301,4.9238602-3.191247,9.2746324-3.880791,14.2324482-.3435684,2.4707017-3.4501999,2.9843766-5.7467831,2.9099732-6.5660223-.212706-11.9016175-2.876127-15.2063661-8.7857951-1.3296316-2.377661-1.6784519-4.7163333,1.6590487-5.8941309l-.0001459-.0001459c1.904215-4.6618437,3.6648024-9.3891916,5.7528375-13.9671492,1.6470129-3.61086,2.0810324-7.5140449,2.9647545-11.3036918.11817-.0207527.2366318-.0565684.3530512-.1088331,2.2552238-1.0117761,4.411389-1.3543962,6.8648758-.9964577.391347.057079.7635826-.124735,1.028298-.4107138.3615857.0667807.7360825.116164,1.1199162.1592013,1.3361236.1496091,2.4454629.590303,3.4177396,1.2073766-.0361075-2.7338853-.1447947-5.4668588-.2221159-8.1996864-.1006634-3.5597624-.1682829-7.1212755-.1224737-10.6825333.0474139-3.683148.207527-7.3709644.6214868-11.0325938.3777793-3.3411479.9358044-6.6981977,2.0109328-9.8928366.4423352-1.3142038.9778934-2.6295018,1.6581004-3.8577041-1.5228614-.0102487-3.0452122-.0251658-4.5652288-.0251658-.5958833,0-1.0036428.3209921-1.210805.7408968-8.6095613-.2263466-17.2183931-.6011717-25.8260578-.9150153-2.5547337-.0931501-4.3237827.2625271-6.1055969,2.6961365-3.5542916,4.8544171-8.7133612,4.2056491-11.5787654-1.0894255-.6085756-1.1246941-1.172728-1.6784519-2.3617956-1.6913996-.3080444-.0033554-.615943-.0169961-.9239874-.0234881-4.769838-.1005539-10.7213762-1.9861317-13.9916221.1790786-3.5828858,2.3721537-.6370239,8.7751817-1.3114684,13.3776121-.6914405,4.7176463-1.1335569,9.4712906-1.7410383,14.2018845-.6434431,5.0100441-3.6526207,7.6265253-8.5635333,8.1301338-3.983205.408489-7.9701302.7631084-11.9902451.4519274-7.5866612-.5873123-12.8463212-5.5211294-13.6590683-13.1603836-.5540861-5.2082342-.8212816-10.4467768-.4818711-15.6911915.1612072-2.4907249-.2040986-4.184094-3.4704784-3.637193-7.6515817,1.28116-13.4610241-1.3146415-16.8683326-8.5614909-3.6626871-7.7903221-2.7721811-18.5127195,2.4460465-23.870271,1.7512505-1.797935,1.659997-3.1197979,1.0562357-5.2312482-3.8497896-13.4619724-5.933448-27.0151619-2.3779163-40.9749437,1.2589484-4.9427893,4.1083777-9.2281303,4.9821793-14.3230452,1.5020723-8.758368-.3634822-17.531726.531911-26.26832.1564659-1.5270557.1766715-3.0797514.4817252-4.5752952.1656569-.8117989.5441656-2.1834099,1.6049239-1.8445465,1.3696051.4375938.8475416,1.6841051.3606374,2.6828242,3.0687003,4.8764099,3.0729311,10.5416046,3.8048558,15.9400415,1.2822177,9.4574312,2.1291757,18.9769745,2.9935676,28.4854668.1724407,1.8964829.8648295,2.5404001,2.621259,3.0185146,5.3935861,1.468226,8.4315768,5.3225382,10.0441599,10.5206331,2.3288247,7.5063858,2.5150519,15.1830239,1.6686044,22.8848644-.4266521,3.8816663.4462012,5.3002901,4.7791749,5.3344646,12.1694696.0960678,24.3401792.6962548,36.4965188,1.3555998,3.272726.1775103,3.3676997-.5713739,3.2973812-3.7094445-.1178782-5.2618848-2.3859402-5.7601684-6.7685891-5.3641165-4.7308857.4275275-9.5461681.0572979-14.3177568-.135312-7.4237762-.2997288-12.4740127-4.2742169-14.2862448-11.5595445-2.5494088-10.248842-2.9991113-20.6641069-1.54314-31.1667956.3698284,6.8795741.0583556,13.8076197,1.2756527,20.6228932.6219244,3.4823319,1.0700222,7.0184968,2.0075773,10.4169425,1.9175639,6.950622,8.1512512,10.8879084,15.4502195,10.2939582,3.6807043-.2995464,7.3902947-.2496524,11.0871927-.3416718,3.5758832-.0889193,6.9909967.5261848,9.9012617-3.1021454,2.1744013-2.7109078,5.7475126-1.7610251,8.0847988.9290206,1.1654336,1.3413027,2.0783335,2.369163,4.1095448,2.2672961,17.2659529-.8659236,34.5071776.2248148,51.7542378.8123824,19.7165219.6716726,39.3936538-1.2357885,59.1041213-.8775583,1.8167546.0330074,3.0414921-.4687411,4.2787759-1.9972922,2.7608018-3.4107734,6.2107099-3.6044774,8.9711469-.3359457,1.5597713,1.8468442,2.9196019,2.1025875,5.0917419,1.7921359,4.415328-.6311519,8.8775592-.9467826,13.3262957-1.3235772,1.3417403-.1136475,2.7717435-.1636509,3.3420962,1.4706332-2.0071397-.9393787-4.0322237-.4275275-6.0874337.2527161l3.8812286.4049147c-.0059085.3553124-.011817.7106614-.0177255,1.0659738-4.8544536,0-9.7105849.0745492-14.5624125-.0375664-1.8802163-.0434384-3.1388.2797785-2.6424129,2.4609271.6470903,2.8436667-3.365949,6.0178083-.4733366,8.0082072,1.837252,1.2643098,5.3578433.1661675,8.1152167-.0062368,11.0745003-.6924982,22.0478267-2.6448201,33.1692304-2.7202811,2.1353031-.0144795,2.5639247-1.1219222,2.6149858-2.8823273.1385945-4.7726829.3610021-9.5429585.5006908-14.3156414.2804714-9.5848287,2.2323192-18.1861837,12.6569574-21.8973423.9767263-.3476898,1.4489687-.9842396,1.4575032-2.067173.1224008-15.446864,3.4218245-30.5206536,5.5035863-46.1558967-2.7936268.5087146-3.6027267,2.7341406-4.6707794,4.56501-2.4822269,4.254996-4.6901827,8.6809374-7.3593662,12.8113079-1.3461899,2.0831843-2.2551508,4.0793458-5.5603371.3585585-5.0936385-5.7341273-11.6006487-10.3116107-19.8888896-11.5569185-57.5242173-8.6430428-115.1744826-8.540957-172.9076129-2.6956624-8.3934998.8497664-16.6792606,2.6072172-25.0911424,4.0550553,1.3627483-.5957009,2.7254237-1.1913653,4.2277878-1.8480843-10.6431798-1.0018192-20.9304635,10.8555211-26.6863647,30.9211187-.5651736-3.4291918-.5577333-6.5744839.6174748-8.9885807,1.9574645-4.0208443.480704-6.716835-1.5350431-10.0194682-3.6473687-5.9759017-4.5041743-13.5148936-11.3640169-18.7560622,4.0465937.1296588,5.5377243,2.1641891,6.7429126,4.1688486,2.5315374,4.211047,4.7840622,8.5894286,7.1698565,12.8887384,1.2066472,2.1743648,2.3234998,3.0370789,4.2735969.413048,2.7411068-3.6883635,5.5511461-7.3499564,9.8809102-9.5284061,2.4351777-1.2252116,2.9258751-4.3424929,3.0615518-6.4219205.8569515-13.1283974,4.7019267-25.660948,8.6548598-37.9118966,6.4434027-19.9693474,14.1364169-30.382278,37.9598575-33.809938C126.2858858-.2782393,163.1647065-1.9874009,200.1154505,2.8653202c23.3979557,3.0728399,35.4578627,14.079739,42.9424016,38.5851739,3.4606309,11.3304989,6.3974477,22.8235546,8.8520286,34.4301482,1.0094783,4.773157,2.793335,9.0864357,7.9432137,10.9401731.6904193.2485582,1.2432653.8954661,1.8419934,1.3799997q5.803388,4.6966383,9.7346566-1.9772324c1.6494201-2.7779802,3.3418773-5.5372866,5.1591426-8.206762,1.6538697-2.4293787,3.6183368-5.4863349,6.8397829-4.4670456,3.2524474,1.0291733,2.7966905,4.7926696,2.8429373,7.582248.094536,5.6994057-.0765187,11.4087683-.3164331,17.1065692-.221897,5.2692887.0063462,10.3173004,2.2958538,15.3061542,2.441451,5.3198027,4.0676747,10.925183,3.9495776,16.8537073.0458091-.7310129.0916182-1.4619893.1373544-2.1929657,1.5203084,11.8527083.2100071,23.3678661-3.5735489,34.5808515-.7581117,2.2467257-.818218,3.6104224.9545512,5.9408519,5.1330285,6.7474352,5.1359462,14.7030129,2.4063647,22.4521579ZM96.3178229,70.5230909c5.0757671.6740797,6.3465324-4.1637061,9.0269494-6.8036389,1.2574165-1.238378-.7419181-1.5625432-1.5974107-1.8762044-8.6516502-3.1718803-19.113563,2.2238576-22.1336824,11.6581654,2.0998521-.1240785,4.0899957-.1300235,6.0481896-.3832137,3.0067705-.3888304,5.2952569-3.0414191,8.6559539-2.5951085ZM103.3215849,71.4869425c.8098294.2353188,1.2181724.4669904,1.6169598.451745,2.8897676-.1105109,5.7777116-.2708792,9.5301933-.4587112-1.7448314-2.794721-2.828786-6.2463068-5.2468218-5.9927883-2.5518889.2674873-4.3213026,3.3248083-5.9003312,5.9997545ZM147.2149634,73.7700675c-17.8382021-1.1888488-34.2173693.8219746-50.6342487,1.6865123,16.4273105-.5471564,32.8546209-1.0943127,50.6342487-1.6865123ZM234.6900287,75.6892361c-2.6219155-11.3302801-5.1649781-22.2525453-9.6493116-32.5984035-1.6966151-3.9141631-4.1797903-7.3112958-8.4652771-8.6465441-4.3981131-1.3703346-8.8321148-2.9480137-13.3647374-3.5060753-17.4554626-2.1489802-35.0255938-2.3090568-52.5903272-2.3493221-1.6203152-.0037202-3.0701592-.0462468-3.0168368,2.3105157.0436937,1.9337575.7233902,2.7226883,2.7012791,2.7861865,2.5281819.0812237,5.1417818-.007878,7.438438,1.4352551-.0107228-.0292507-.0211539-.0577355-.0320226-.0872051,3.2546358,1.2120086,2.3890768,4.0309471,2.1565299,6.3001033-.2541385,2.480148-2.6441636,2.2222164-4.3966542,2.3190137-6.7672031.373658-13.5474633.7611025-20.3108004.036071-2.124872-.2277691-5.0501636.2798149-4.8794735-3.3512507.1495361-3.1800501,1.078265-5.787632,4.9277628-6.0339655,2.3027836-.1473113,4.5927289-.5354853,6.8958042-.6242587,1.8433064-.0710844,2.7934809-.6382275,2.86431-2.674472.0822813-2.3640204-1.3206594-2.3611026-2.9699336-2.3158041-18.0164054.4949281-36.0422207.9824889-53.9457082,3.1944201-10.456369,1.2919193-18.0212198,6.7517024-21.6529784,16.9559389-2.8414054,7.983479-4.8756075,16.1876879-6.6965199,24.4590422-.6009894,2.7301651-.7959699,4.162466,2.7806427,3.1061573,2.4868954-.7344777,5.1442619-1.0402974,7.7464095-1.2032918,4.7748712-.2991817,8.6837458-.9858079,10.4045055-6.7229258,1.1800225-3.9342593,5.0162444-6.4916919,8.6612059-8.6600024,7.6920659-4.5759517,15.0287464-1.6529214,22.3999296.9659305.3613668.1283822.8314209-.0490916,1.2508515-.0841414-.0698808.3914929-.2668308.8099388-.190458,1.1705032,1.2980466,6.1309451,5.7974066,9.4064065,11.9576389,9.2038033,27.1257092-.8920013,54.2089647.5004719,81.2810597,1.8863801,9.4657833.48457,18.8904259,1.772222,28.6946715,2.7283415ZM159.7579816,25.75168c-16.6076292-1.0739612-33.1418762-.1256833-49.6862625,1.8397686,16.5200958-.8655589,33.119774-.9306618,49.6862625-1.8397686ZM135.8031679,35.8562744c-2.5923001.0506964-3.9578203,1.2111333-3.967449,3.932691-.0116711,3.2962506,2.4707746,2.0889469,3.9786824,2.1276439,5.8358483.1497185,11.6773133.1136475,17.5165171.0932595,6.3139263-.0219928,6.7170173-.6017188,4.4423904-6.8070673-1.0286627.0863298-2.0562313.2170462-3.0863529.2421027-6.2942313.1528186-12.5889002.2882035-18.883788.4113703ZM249.4803926,79.0804969c-3.1948213-14.0116454-5.884867-27.5817944-10.4727086-40.7070917-6.2481304-17.8752579-17.4504294-29.8335533-37.02026-32.2939698-3.0568104-.3843261-6.1361606-.6013176-9.2091647-.8426361-34.6741474-2.7227248-69.3126251-3.0270855-103.7534232,2.5614993-5.040462.8178897-10.4762829.5866193-15.1300662,3.2620032-5.3451509,3.0728582-9.0652453,7.7104844-12.3349076,12.8744413-4.8502958,7.6602256-7.8859523,15.8334696-9.446526,24.8136252-1.6580275,9.541062-4.3447177,18.9023888-6.5371363,28.3527079-.2622353,1.1302379-.979717,2.5114047.2353918,3.4177396,1.4926624,1.1133148,8.2427236-2.1789968,8.5584272-4.1049858,1.4992274-9.1459219,4.2023301-17.9665479,7.0021572-26.7773629,4.2503276-13.3754238,12.8078795-20.9056989,27.1286999-22.7527984,25.6201356-3.3045298,51.2828708-4.2613057,77.0557521-3.4953889,15.8762151.4718047,31.7425097,1.1099593,47.3386181,4.4645655,8.4622864,1.8202195,14.2330683,6.9360695,17.5424853,14.924837,4.1476947,10.0125385,6.1321487,20.640254,8.7772606,31.0701077.7626343,3.0070258,1.9461581,4.5928383,5.0775907,4.6494797,1.5187765.0275001,3.0325928.3301101,5.1878098.5832274ZM10.2899027,165.3389216c.3890857,1.9332105,1.8282799,2.7455564,3.4056308,3.4298119,2.4070941,1.0441999,14.912327-2.502469,16.275586-4.6513033.3043243-.4797557.3963072-1.1687161.3908364-1.7595662-.0830108-8.9204505.1727325-17.8707354-1.8669404-26.6494913-1.1593062-4.9894738-4.3324631-8.2071632-9.3131835-9.0940583-2.2440633-.3995168-2.650218-1.2252116-2.7227977-3.2203883-.5544508-15.2447349-3.4089862-30.2340913-5.1532341-45.3481463-1.888459,12.9613181,1.6198046,25.9241316.2864529,39.1119423-2.1223919-.9828901-.9031253-3.0584516-2.4482348-4.4639819-.8951744,7.0553702-6.9363613,12.8456282-3.1903717,20.6598396,1.8808728-2.2938114,3.1144365-5.4593455,7.0228734-6.0440318-1.7500834,2.5128636-4.5739822,3.5642485-5.0080746,6.4548185-.1318106.2495795-.2776995.4905879-.4377397.7230619-1.9932802,2.0985026-2.1073654,4.6988266-1.8440359,7.3377747.7963346,7.9799047,3.027122,15.6834594,4.6032329,23.5137185ZM74.7879019,168.4115244c-12.9239341-.2531173-25.8445857-.6768516-38.7658938-1.058497-.6930453-.0204609-1.5713695.0703914-2.0411318-.2997652-2.2445009-1.7687207-3.4642052-2.2834533-4.5599039-.9925917-5.2913179,6.233505-11.6821277,5.7697606-18.3889328,3.1862868-1.6769931-.6459961-2.8922477-.6453761-4.1274891.6589073-6.0062466,6.3420099-4.920906,22.1473594,4.3275028,25.4635968,6.2081568,2.2261189,11.8057685,1.6489459,17.3946998-.8525383,5.263599-2.3559601,10.560169-2.7847276,16.2184705-2.2455586,9.3465921.8905059,18.7386285,1.293597,28.1014872,2.0306278,2.7086465.2132166,4.006839-.4197953,3.7883704-3.4442549-.2322551-3.2162305-.0522282-6.4622953-.0522282-9.695303l.7481183-.0018601c0-3.3847322-.0760081-6.7718351.0288131-10.1533213.0618569-1.9981675-.6229457-2.5555726-2.6718825-2.5957285ZM88.7049747,172.1329683c.504338-4.6820858.1788598-9.5397125-.4638538-14.2239502-.3357633-2.4475783-.8287949-6.0447977-4.6645062-5.8476653-3.6834762.1892179-4.2664483,3.5244938-5.104799,6.2816484-.2998747.9860267-.2987805,2.2077734-.0167043,3.2033193,1.8509656,6.5315561.6635757,13.1763584.8546902,19.7655041,0,4.4685045.0323144,8.9373737-.0107228,13.4054769-.031512,3.2722883.638264,6.0578183,4.6921522,5.8293562,3.8379726-.2162803,5.1382075-2.4562587,4.8378952-6.2747916-.5788872-7.3618099-.9237686-14.7161065-.1241515-22.1388979ZM126.9131352,255.1065217c-6.1937868-1.4128977-12.9054792-1.5549935-16.8053086-8.2138376-.4392715,3.0092871-2.5879234,5.8576222.2278055,8.5962489,1.6276097-.390107,2.9092438.4349313,4.2401883,1.1812625,2.75927,1.5473343,5.7721678,2.0142518,8.8887197,1.8815293,2.8424996-.1209419,2.8412595-.1499738,3.4485951-3.4452032ZM117.7240302,242.2633736c-1.3261302-.2164991-2.8044226-.8336457-3.5278857.9956189-.6265199,1.5843171-.4073218,3.0552786.9816136,4.1455429,3.6230053,2.8437396,8.1841492,3.3094171,12.3723281,4.6870825.8806584.2896624,2.080303-.4060088,2.3958607-1.6767742-.1370626-.2550503-.2075999-.5789602-.4082701-.7310493-3.7206779-2.8181726-6.8367192-6.6078924-11.8136465-7.4204207ZM165.2504803,322.0013298c-1.219996-1.934414-2.4350319-3.9148196-3.9492858-5.6102676-2.0006476-2.2400513-4.6230738-6.0553746-7.0670778-4.8234522-1.9064034.9608609-1.2192666,3.3251001-.5041191,5.6339381,2.8640182,1.4520688,5.5695281,6.9012021,7.9195067,7.9189232,1.3665414.5917984,2.8448338,2.0235886,4.1409109.9840572,1.49186-1.1965079.2533361-2.8454538-.5399349-4.1031986ZM174.3638689,293.0171782c-2.4340836-1.2844425-4.1285833-.5427432-5.8136732,1.6092641-4.0662158,5.1928794-8.4288778,10.1371276-14.1647922,13.6116909,7.5096318,2.7138985,12.5126003,7.7178153,14.0119007,16.2751119,1.7438102-1.8700406,3.0779643-3.3007002,4.4120455-4.7313598-.3995897,1.6622583-1.2241539,3.056701-2.185343,4.3645221.2034421-.1305341.4036746-.2661014.5972692-.4108597.021008-.0157195.0417972-.0326791.0628781-.0492375-.0183091.0119264-.0053249-.0008024.0428184-.031512-.0094828.0074768-.014443.0108323-.0214457.0160113.0096287-.0070391.0189656-.0147348.028886-.0209715-.0032825.0020789-.0043767.0029907-.0074403.0049602,0-.0000365,0,0,.0000729-.0000365.06441-.0509152.1283093-.1025234.191698-.1547517.1338531-.1102555.2654449-.2233559.3948483-.3387905.5467187-.4876337,1.0555063-1.0167363,1.5390551-1.5667375.250856-.2853587.4950011-.5766259.7338212-.8720875.1266316-.1566482.2518043-.3144271.375664-.4732272.0104311-.0133853.0501858-.0646288.0690784-.0889193.0161937-.0210445.0348675-.0454079.0409218-.0533224.0573343-.074841.1144499-.1499009.1712736-.2251066.9733708-1.287652,1.8801434-2.6237027,2.8039849-3.9468787.9230392-1.3221183,1.8616155-2.6393128,2.90494-3.8702505.9204132-1.0858877,1.9402496-2.1071465,3.1377058-2.8877251.0648476-.0423078.1344366-.0660147.2049739-.0798377,1.2930864-2.8384876.3533429-6.0630703.1125533-9.166784-2.9603778-2.6591172-6.1142773-5.0508201-9.6436948-6.913165ZM228.490917,300.4452946c1.9565162-1.7323579,3.8699952-2.8309379,3.268787-5.4176942-.0698808-.30075-1.1752081-.7172264-1.5249768-.5391325-2.3642028,1.2042036-2.0247193,3.2926763-1.7438102,5.9568267ZM216.2802338,309.4858482c3.0925532,7.3316838,6.7934631,14.3433603,8.733421,22.0417723.3722356,1.4773441,1.9970733,1.6781602,3.4622357,1.7525635,4.4793002.2275138,8.5342096-.9048395,12.0762466-3.6720239.5615994-.4387974,1.0914679-.9215803,1.6702092-1.2980466.0025531-.0043037.0036472-.008571.0064191-.0129112.6387746-1.019727,1.176667-2.1013474,1.5146916-3.2590124.5203128-1.7819966.4971894-3.6216923-.0103581-5.3979627-1.3426157-1.0280062-1.678379-2.8896217-2.2991363-4.3570089-.1294035-.3058926-.2608494-.6109463-.3929518-.9157447-.0615651-.0884452-.1232761-.1767444-.1854248-.2644601-.0598874-.0845426-.0729445-.1873578-.0554378-.2866717-2.2215234-5.0637312-4.7319798-10.0198694-6.2396688-15.5423483-6.5563207,7.8865358-10.0052805,10.0088548-18.2802455,11.2118548ZM214.3355346,304.4585892c-.060471.7691628-.0921288,1.6651761.8269713,1.872703,2.6119222.5898289,5.3281549.5402266,7.472649-1.0779732,2.0046596-1.5126857,5.2407674-2.4212453,4.3870255-6.2727856-.6160889-.9987555,1.4482392-3.0085941-1.0249426-3.5983865-1.096574-.2615423-2.8934148.4330348-4.7521125,1.5782627.5847228.4585289,1.1888488.8950285,1.8185053,1.3022044.7248491.4687411.0501128,1.6322052-.6786023,1.1609475-.8031185-.5193281-1.5808523-1.0783379-2.3264905-1.6773943-2.8791177,2.0382505-5.5809074,4.9035452-5.7230032,6.7124218ZM208.4880152,253.9059654c4.5017671,1.6260414,7.3602416,5.4781652,11.774986,6.8516363,3.1064126,2.8293696,6.352368,5.5157316,9.0664853,8.7471345.2882035.275183.5801273.5465728.8887553.7988512.0502587.0410313.1008822.0816978.1521621.1214525.0107228.0079145.0444961.0334086.0497481.0372746.0308555.0230504.0619298.0458821.093223.0684219.1119697.0806766.2264196.1581071.3436413.2311245.1162005.0724338.2351729.1407099.3569902.2034056.0606168.0312202.1219631.0611275.1839659.0895028.0029178.0013495.0177255.0079874.0316579.0142971,3.0164721-1.0777543,5.3943885-2.4744948,7.2385702-4.7604282,2.3592426-2.9243797,3.9257977-6.0493203,3.4208762-10.6574039-.5461351,1.2455995-.7797033,1.77824-1.0132714,2.310771-.078853-2.5337257-1.2658781-4.006839-3.7386952-4.9402727-1.9487841-.7355719-3.5898155-2.2814838-5.3770277-3.4529353-.9207049-.6033965-1.9004219-1.9144637-2.696173.135932-.0428184-1.2103674-.1735349-2.3762386-1.158358-3.266161-3.3819238-3.0562998-6.7507177-6.1272249-10.2917334-9.3445496-.7228066,6.9675816-4.2656459,12.0518466-9.3258029,16.8119466ZM205.0809985,248.9486601c.064337.0699902.1255374.1422417.1795893.2194534.6398688.9137387.1513597,2.7149927,1.6812968,2.8237164,1.4491875.1029611,2.2515036-1.2720784,2.9164653-2.3866697,1.7179878-2.8797013,3.3707633-5.8007256,4.9652562-8.7508547.8977274-1.6609453,2.4397732-4.0319319.8303997-5.1950677-1.6788167-1.2132487-3.7820971.6489139-5.1996997,2.148579-.5196563.5497824-1.2981925,1.0800521-1.6451893,1.7058791.053906.0073309.1084684.0249835.1625202.0565684.1925734.1126262.3054184.4188835.1607696.6131711-.1245162.1672981-.2488865.3347786-.3727462.5025873.1625202.3467415.4903326.7257973,1.0488683,1.1481457.4243908.3209191,1.4685907,1.6525931.0662336,2.7024098-1.8805081,1.4077915-1.9719075-.5953362-2.7585405-1.482742-.5308898.8419614-1.0096242,1.7202126-1.3606329,2.6448201-.3986415,1.0500355-.6244045,2.1385126-.6745903,3.2500038ZM90.153141,183.1345606c-.0110146,1.1412525-.1717842,2.383606,1.7205409,2.6361032,5.3304891.7112449,6.5534759-.2819668,6.4468311-5.6874063-.0181632-.9220909-.0025531-1.8449112-.0025531-2.7673668h.0469033c0-1.6916914-.1876131-3.4092051.0409218-5.0693844.4133762-3.0022844-.9822701-3.5064765-3.6507242-3.6328163-3.0881036-.1462172-4.5034449.5462081-4.3528146,3.9197433.1573412,3.5224513-.2148944,7.0658377-.2491053,10.6011273ZM125.3961823,192.7873735c-1.8800704-1.2263787-3.9402407-.6373887-5.882241-.7483007-5.6901053-.3251499-11.403334-.3587773-17.0735983-.8776677-3.3151067-.303376-6.079191-2.9381298-9.8331316-2.2747364-1.9420003.3432037-2.2158338,1.019727-2.1528097,2.6011629.0624405,1.568707.3140259,2.4256585,2.3430489,2.4737289,9.2382695.2190157,18.4696094.7130685,27.7060553,1.0334771,1.8833529.0652853,4.0972172.5065993,4.8926765-2.207664ZM194.139257,166.6169085c.1226926-3.5040329-1.2921381-4.5729609-4.5706267-4.5282095-11.0787311.1512503-22.1600153.0982562-33.2394759.2112471-17.4059333.1775103-34.8107724.4648021-52.2169245.6067885-2.8280566.0230869-4.1023962.7230619-3.9406784,3.9115006.3197156,6.3009786.2818574,12.6243877.2377989,18.9374386-.0177255,2.5551349.8594316,3.4459326,3.4954254,3.3833463,14.4775051-.3440061,28.9597517.9172036,43.4391534-.212159,14.3298656,0,28.6603876-.0739292,42.9889402.0601062,2.9947347.0280107,4.0207714-.7493219,3.8769979-3.8841464-.2821492-6.1518802-.2861611-12.3302392-.0706102-18.4859124ZM205.2726235,171.569217c-.0278648-.9918622.2266384-2.0928859-1.3361236-2.4882084-4.7442345-1.2001916-7.3492999.7744148-7.2602347,5.6670184.042089,2.3098227.2496889,4.6336142.0705373,6.9267327-.3170896,4.0582284-.1738996,7.5364754,4.2291737,6.640608-6.487607,3.4419207-14.6756223,3.3796626-22.835481,3.67589-16.0096305.581112-32.0188233.5100641-48.0317363.2872188-1.2574895-.0174702-3.3151797-.4619208-3.2826464,1.4575397.0199138,1.1748799.9935764,1.1556226,1.9355082,1.0345712.1862272-.2057034.3776335-.4069571.5788143-.5996399.2630377-.2518407.6886686-.262053.950758,0,.1210878.1210878.1846224.2867447.1909686.4540063,22.9990954-.7710229,45.9887809,1.2112792,68.9911588.2262737,5.6199327-.2406438,5.8729041-.5221729,5.6440044-6.0208354-.1937405-4.6530539-4.2253806-1.2265975-5.6632617-3.0677885q5.8122872-.6422759,5.8616706-6.801487c.0163396-2.4639908.0259682-4.929404-.0431102-7.3918995ZM205.3884593,163.7422039c-.8276278-2.6409176,1.9482735-7.3933948-4.4894395-7.3069921-17.7052973.2376166-35.4157008.0962502-53.1174239.0529577-18.1677652,0-36.3354574-.0049967-54.5032226.0113064-1.1993528.0010942-3.304238-.8305091-2.7436598,1.589095.6459961,2.7879736-2.5615175,6.5135388,1.2871049,8.2143847,1.7749575.7843717,6.1236871,1.7664959,6.4222488-.8400648.6398688-5.5851382,4.3870985-4.8349409,7.6485181-4.9327595,17.3920738-.5216623,34.7883785-1.0472636,52.186142-1.1785636,11.2266625-.084725,22.4589417.4890561,33.6875007.8094282,1.9447722.0554743,4.4248837-.2157332,4.1888354,2.8422808-.3350339,4.3391739,1.9217217,4.5703349,5.3872399,4.2087493,2.4839776-.2590987,5.0965562-.1180606,4.0461561-3.4698219ZM211.8867163,152.7325876c-2.6863984.0309284-5.4867361,3.8441729-4.8325702,7.2386796,1.246329,6.4668543.0957031,12.9046403-.0598145,19.3507784,0,5.5476448-.0340651,11.0955448.0140783,16.6427884.0248741,2.8643829,1.7357133,4.1358413,4.4409315,4.2089316,2.8232422.0764093,3.7036818-1.5230803,3.6289867-4.1313187-.0570426-1.9909825.1294035-3.9959338.3084821-5.9855668.9058972-10.0668821-2.2161255-20.2334428,1.0027674-30.2912068.9238415-2.8868863-2.260111-7.058908-4.5028613-7.0330857ZM264.9506718,161.2805473c.0991315,1.2004105-.0686407,2.5966768,1.2313024,3.2906339,4.6053483,2.4585929,9.0648806,5.2592588,14.7767962,3.7593749,3.0063328-.7894414,4.7385448-2.0032371,5.1355815-5.3874952.7875084-6.7137348,2.2188974-13.3514251,3.0236207-20.0638105.710552-5.927503,1.1861498-11.976568-4.652981-16.7332395,3.1315055-.1858989,3.5757373,2.777652,5.7036,3.4664665.3818642-6.1862735-3.146678-10.9695333-4.5467739-16.3213951-1.3759513.0891746-.2294103,1.854321-2.2388113,1.8796692-1.1396112-12.6210322,1.5699835-25.2992529-.0520823-37.8940981-1.7891816,14.991873-4.8071856,29.7946739-4.928711,44.8853137-.019695,2.4495843-1.2601884,3.0817939-3.0795691,3.8139739-4.7683791,1.9189863-7.8453951,5.5112455-8.8893033,10.4796018-1.7184255,8.1787513-2.1715565,16.4806329-1.482669,24.8250046ZM290.4946534,175.7346008c-1.3299233-6.0308288-3.2345031-7.3373735-9.0462068-5.7743926-5.7801187,1.5545193-10.9402825.9277805-15.6783168-2.754565-2.278566-1.7708726-5.0083664-1.9741323-7.4614155-1.1645582-8.6380826,2.8507423-17.5994549,2.1630584-26.4345605,2.6802711-3.6909895,0-7.4010905.2319269-11.0672059-.0697349-3.2229049-.265226-4.0334637.9204132-3.6389801,3.9048627.8263877,6.2522153,1.5005404,12.5430181,1.1693726,18.8532972-.1645627,3.1344233,1.2815612,3.9875087,3.7949354,3.1750534,9.6034295-3.1042608,19.5294923-1.479423,29.2894606-2.2051839,4.8321326-.3593244,9.4836547.4788439,13.9493143,2.4364178,4.890707,2.1437646,10.0710764,2.6880397,15.3532033,2.4337918,3.4912676-.168064,6.2487869-1.7111311,7.7832465-4.8836678,2.5575056-5.2878166,3.2484355-10.912126,1.9871529-16.6315914ZM115.6277524,171.9431668c-1.0715541.0662336-2.258798.6187149-1.205626,1.7605874.2576398.2792314.3203721.4131574.3844173.8216464.2169368,1.3839022.0067109,4.0250751-.156247,4.4020521-.2288997.5295768-.8871505.7724818-1.3008914.4102396-.6616062-.5794708-.5288473-4.224797-.3855844-4.9336713.064337-.3193508.1031435-.4003192.3415259-.7151475.6153594-.8203334.2558892-1.4438626-.6786752-1.6457728-.408489-.0993503-1.389446-.068276-1.8020199.0567508-.9116598.3251864-1.1093393,1.0536097-.3962343,1.7907864,1.1981856,1.5093667.3247487,4.2514947.8178532,6.1314192.6366592,2.4278833,4.2730863,2.457207,5.1516293.3653058.2535549-.6032507.2874012-.9854796.3103057-3.5022093.0234881-2.5768359-.0194032-2.3323261.5311815-3.0155238.1931569-.2395496.3868974-.5247624.4299346-.6337414.3317514-.8414873-.6910758-1.376316-2.0415695-1.2927217ZM161.3871231,181.273784c-.1673346.3199344-.2989264.415054-.7211289.5221364-.3833961.0974538-1.3162098.1130639-1.6933326.0285942-.6114204-.1372815-1.0549227-.4582371-.7285692-1.6793273.124735-.3034489.106353-.4947093.042016-.8028267-.2029315-.9681188-.5523354-1.4024301-1.0870183-1.3507854-.4257038.0412866-.500399.2183957-.4690329,1.1134242.0246552.7024551.0795095.8086622.4554652,1.1919124,1.0683445,1.088769-.4757437,1.6491283-1.5166611,1.6033192-1.164923-.0513529-2.1493814-.6439537-1.3761701-1.6854546.5654654-.7613942.7211289-1.0242861.7279857-3.3552991.006565-2.1658668-.0366181-2.553056-.5552532-2.8452715-.279669-.1577059-1.461661-2.0191026,2.032962-2.0799382,5.5519485.0987668,3.7734167,4.0876615,3.6867587,4.2751287-.168064.3634093-.5184892.7679592-.8244182.9517793-.2658096.1596025-.2833163.2197087-.1566847.5368712.3879186.8072034.9396705,1.4864621,1.5827488,2.030336.6922429.5584628.8915271.9881056.6003329,1.5454013ZM158.570154,174.430281c-.1940323-.4372291-.54898-.6169642-1.2299894-.6236751-.7662086-.0074403-.8611823.1288199-.8217922,1.1790742.0418701,1.1256789.076154,1.1763023.7929062,1.1805331,1.7273247.0106499,1.3504937-1.5294994,1.2588754-1.7359322ZM130.2814184,172.2060586c-.6299483-.3136612-5.177014-.5198022-5.8695486.3399212-.2385284.2960086-.3085551.5272425-.3027195,1.0047369.0192573,1.6921655,1.507616,2.1053229,1.7273247.7606648.1292576-.7924686.8620576-.9800817.8382777.5098818.0437667,1.6500036.2404249,4.1134838-.7526409,5.4368421-.5485423.5145502-.7147098,1.2387428.2726664,1.5197248.5422691.1543505,2.0059726.1692311,2.5377376.0255306,1.5439424-.4815793.1626661-1.5716613-.1056236-2.4636261-.3591785-1.1943925-.2621624-4.3417999-.1242974-5.0880217.128674-.6963278.6581049-.6707972.9294583.044642.3934624.9654928,1.4711438.8201875,1.6371654-.4293511.0933689-.7024551-.2293374-1.3833187-.7878001-1.6609453ZM121.6402722,176.5020494c-3.3482964-1.9645401-1.3573504-2.7228707-.8401743-2.6500721.4716589.0663795.6191525.3565525.5389136.6267388-.2302127.7742325,1.3801091,2.0301901,1.9750441-.252096.0992045-.3962343.2275867-1.8405345-2.0120999-2.227286-3.4488139-.5952268-4.126322,3.057394-2.4858012,4.751456.3062208.3161413.9980261.8473228,1.6418338,1.260772.7384897.4739931,1.5655339,1.1574826,1.1817002,1.6589028-.4369373.4064465-.9923364.1361144-1.1226152-.4725342-.5145502-1.7411842-3.1045161-.580492-2.1444211,1.3522443.8651213,1.7413301,4.4840416,2.021145,5.1574649-.4719506.4869772-1.8052294-.7771502-2.9231762-1.889845-3.5761749ZM152.6715735,179.7206506c.3295631.4118444.8280655.95601.5715928,1.5449636-.3461944.5832639-1.6043404.5974151-1.6717411.5977069-1.1420184.0265518-2.0544077-.367786-1.5932528-1.6765554.2814197-.6436619.2592446-1.2324695-.3936083-1.5013428-.6839272-.2256901-1.2378674.1218172-1.3713558.8604528-.0329709,1.0258908.3513005,1.7619004-.7644579,2.2229094-.242905.084032-1.4686637.2714993-1.9124578-.0335545-.197023-.1492808-.3087739-.3157766-.3599809-.4905515-.0064921.0463562-.0163396.093223-.0324603.1410016h.0024801c-.1619367.3766852-.5934761.5173221-1.5901892.5183433-1.1264083.001313-1.7408924-.1394698-1.9681873-.450505-.1817776-.2487406-.1375732-.5233035.178568-1.1054003.9316466-1.7153618.6589802-3.5598354.5707174-3.4523152-.0478516.0583556-.7497231,2.1439835-1.4604939,3.7764804-.425558.9770181-.8474687.5977069-1.0168457.3753722-.6160889-.8079328-1.4873375-4.1104201-1.5808523-4.2275689-.0313661-.0389523-.0869498-.0542707-.1289658-.0357428-.1466184.0649206.0058356,2.0882539.1766715,2.6769157.4455447,1.2062095.794511,2.3243022-.3768311,2.3984137-3.0897813.1954911-2.5815043-1.1017531-2.1092619-1.8081472.4067383-.6082109.559484-.8592857.6188608-1.3888625.0606898-.5406643.1156899-3.0937203.0868039-4.0301812-.027573-.8966333-.0516447-.8363811-.4577994-1.1248035-.8817526-.6255717.2555974-1.6128019,1.1172173-1.5734119,1.2722972.0582097,1.4714356.5663408,2.3027106,3.4469174.2865258.9920446.5478129,1.8641685.5807838,1.9381342.0004377.0007294.1607696.3583032.2909025.1257562.0970161-.1730243.3050537-.7988877.6696301-2.01458.619882-2.0666623.7444711-2.4083342,1.0398962-2.8538789.3731838-.5626935,1.1144454-.6413277,2.0701637-.5812214.6378263.0399736,1.0738883,1.0363948.4760355,1.4828149-.3956507.295425-.5311815.4213272-.5845769.8986757-.0501858.4481707-.0484351,3.4626734,0,4.1124626.0612733.7832776.1072284.8983839.6640863,1.6607994.1572682.2314892.3543642.4798286.4336548.7530421.0458821-.4503591.3818642-.9186625.6765598-1.2748867,1.200374-1.3569128,1.9212111-3.1087469,2.450642-4.895886.5780119-1.6125102-.5513142-2.7448999.7501608-2.7895419.5040462-.017069.9266864-.0029178,1.1081722-.0029178,1.3113954,0,.7247761,1.6803485.8744581,2.7418362.3794571,1.6949374.5961021,3.6775677,1.6625501,5.0388572ZM149.8702146,175.863056c-.2019103-.4801204-.4089266-.2551597-.5559826.1374274-.1445759.4086348-.1577059.639577-.0418701.7336753.1146687.093223.5354123.0856368.6607309-.0121088.1900933-.2294833.0353051-.6050013-.0628781-.8589939ZM179.7877999,179.2879441c-.4026534.3413801-.6648158.4734095-1.0295381.5176139-1.2022705.1460348-.7438876-2.0371928-.714418-2.0599515.3305843-.2550138.5342452.7470971,1.0512755.8058904.7027469.0396818.6922429-1.1081722.6798423-1.6864758,0-.8185827-.0053979-.8754794-.1073742-1.1160502-.2674144-.6322825-.7751078-.6314072-1.0773896.0016048-.1689394.3539265-.263913.4497755-.4042582.4081972-.3696825-.1095626-.3892316-1.5830406-.1406369-1.8829882.1520162-.1833824.9784769-.7622696,1.9772324.380916,1.1732386,1.3430533,1.6660514-.1191912,1.721781-.3021359.4303723-2.3094215-1.6615288-2.4286127-3.1495957-2.4195676-.6611686.0040849-5.4323196.0685678-2.9026058,2.0156012.3612209.2071623.4955846.4185553.5364335.8445509.0519365.5416855-.0278648,3.7483238-.1016846,4.0933511-.084032.3918576-.3050537.7752537-.6344709,1.100586-1.0299757,1.1732386.0640452,1.8310517,1.192496,1.8790492,1.3030798.0554378,3.5102331.0455173,3.8236025-.0326791.6169642-.1540587,1.1017531-.6190067,1.2881991-1.2356791.2080376-.6887416-.2469899-2.8070486-2.0088903-1.3118331ZM41.6561649,105.7369179c2.9945158-6.6795968,7.6229875-12.2013463,12.2781568-17.6864412-6.3452924,4.371999-11.1168081,9.8034797-12.2781568,17.6864412ZM173.3272553,179.2993235c-.1708359-.5590463-.2675603-4.1034175-.1317377-4.8280477.0999339-.5333699.2262737-.6350544.6502269-.9829995.7981582-.655333-.1280905-1.3580799-.7011421-1.4793136-.4192847-.0888463-.5756777-.0878251-1.2232785-.0513529-.7479725.0491646-2.1788509.4788074-1.08483,1.4822314.529285.3972555.6738609,1.1587956.7066859,1.3955733.0582097.4187012.0601062,2.9695688.0023342,3.603602-.0884087.9742462-.1254645.8696438-.6058767,1.5281864-.2646425.3629716-1.2047506,1.8686911.7507443,1.9311315.8362353.0266977,1.9632271-.0657959,2.1928563-.1800269.7396568-.4537145.3381705-1.2083979-.124735-1.7398712-.2469899-.3072421-.3833961-.5222823-.4312476-.6791129ZM169.5989182,181.273784c-.1673346.3199344-.2989264.415054-.7211289.5221364-.3833961.0974538-1.3162098.1130639-1.6933326.0285942-.6114204-.1372815-1.0549227-.4582371-.7285692-1.6793273.124735-.3034489.106353-.4947093.042016-.8028267-.2029315-.9681188-.5523354-1.4024301-1.0870183-1.3507854-.4257038.0412866-.500399.2183957-.4690329,1.1134242.0246552.7024551.0795095.8086622.4554652,1.1919124,1.0683445,1.088769-.4757437,1.6491283-1.5166611,1.6033192-1.164923-.0513529-2.1493814-.6439537-1.3761701-1.6854546.5654654-.7613942.7211289-1.0242861.7279857-3.3552991.006565-2.1658668-.0366181-2.553056-.5552532-2.8452715-.279669-.1577059-1.461661-2.0191026,2.032962-2.0799382,5.5519485.0987668,3.7734167,4.0876615,3.6867587,4.2751287-.168064.3634093-.5184892.7679592-.8244182.9517793-.2658096.1596025-.2833163.2197087-.1566847.5368712.3879186.8072034.9396705,1.4864621,1.5827488,2.030336.6922429.5584628.8915271.9881056.6003329,1.5454013ZM166.7819492,174.430281c-.1940323-.4372291-.54898-.6169642-1.2299894-.6236751-.7662086-.0074403-.8611823.1288199-.8217922,1.1790742.0418701,1.1256789.076154,1.1763023.7929062,1.1805331,1.7273247.0106499,1.3504937-1.5294994,1.2588754-1.7359322ZM184.5803966,181.9030029c-2.1152434-.0074403-2.074978-.8907977-1.5370856-1.8775903.3441519-.6214868.4297887-.8643918.495147-1.4063691.0614192-.5091523.0660877-3.170312.006565-3.6234429-.0520823-.3955048-.1705441-.6499351-.4723883-1.0150951-.9818324-1.1875358-.2342976-1.7907864.1696688-1.8666486,9.2814527-1.7442478,8.9688127,9.8156979,1.3380931,9.7891461ZM186.3557188,174.103198c-.6489139-.0961408-.917933.1830906-.9371904.9723496-.0586473,2.4137321-.0612733,3.6432838-.0086074,3.8246237.1806105.6214868,2.017206.3972555,2.6284805-1.0130526.7571635-1.7470197-.3737674-3.5903262-1.6826827-3.7839207ZM261.6972761,185.7438933c5.3469746,1.8052294,10.1875687,5.6539978,16.2974693,3.4285718-5.9072609.8022431-10.6028415-3.6949285-16.2974693-3.4285718ZM109.1476587,172.1001433c-.5500012-.1950535-2.0247922-.2246689-2.5972603-.0520823-.493834.1486608-.7004127,1.2760903.0248011,1.5932528.622508.2722287.5961021.1817776.6130252,2.2558803.0145889,1.7601497-.0218833,2.4052705-.1658757,2.937765-.3546559,1.3118331-1.7557731.9724955-1.2283846.2405708.6995373-.9710366-.2838998-2.2723657-1.411767-1.9066222-1.3430533.4357702-1.6447516,2.5431355-.5421232,3.7894645,1.0168457,1.1494587,3.9295179,1.5675764,4.818419-.5996034.240279-.5858899.2602658-.8538878.2682897-3.5890132.0083157-2.8541707-.0188197-2.6481756.4182635-3.1927789.1445759-.1800269.2987805-.40455.3424013-.4987942.199576-.4299346.0033554-.78532-.539789-.9780393ZM221.7466185,186.1416229c9.9025747-.5676538,19.8051494-1.1352711,29.7077241-1.7029248-9.9033042.0624405-19.8362238-.5382207-29.7077241,1.7029248ZM117.7536457,271.0325214c-3.7722496-.8298526-6.3811811-4.0210632-10.2451219-4.691058,2.4469947,3.6678661,5.8747277,5.2305917,10.2451219,4.691058ZM271.3589882,145.4848994c-.8517724-2.0046596-1.4320456-4.051481-1.2971713-6.2747551.3028654-4.9899479,3.0597282-8.3362384,7.2568793-8.7199627,4.3957788-.4019604,7.7715754,1.8310882,9.1937734,6.0815252,1.4570655,4.3546382.1652192,8.9043298-3.1684884,11.1592253-3.6295703,2.4550916-7.6830208,1.8204383-11.6213649-1.8195265-.1900933,3.777684,2.5400719,4.586638,5.3587186,5.0119042,5.4639045.8244547,10.3283515-3.2389892,11.2268084-9.1862966.865413-5.7290941-3.0820492-11.9454572-8.1204687-12.7877103-4.0899957-.6837449-8.7243758,1.6884818-10.439373,5.9670024-1.4615881,3.6464569-2.6950788,7.6315949,1.6106865,10.5685941ZM277.8597982,145.6434806c-2.7173998-.6268482-4.2647706-2.3561424-4.8280477-4.9572688-.2884953-1.3322211-.2302127-2.739575-.3286148-4.1129732-1.4033784,5.1827036.3381705,9.4926633,4.2885505,10.6129808,3.7024418,1.0499625,6.55457-.9872667,7.779964-5.5570546-.0210809.031512-.0422348.0629511-.0633158.0944631,1.460421-4.2943131.0013859-8.4728269-3.7316196-9.5553956-3.3113136-.9603502-6.487607-.7475348-7.3935042,3.625996,2.1110126-1.8917415,4.4321052-3.5035952,7.3376288-2.0871233,3.3172951,1.6171786,3.7333702,4.8106869,3.7454061,8.0792186-1.6146255,2.4060364-3.2751332,4.6718007-6.8064472,3.857157ZM250.3630206,187.0385479c-9.2128849.4035652-18.4257697.8070939-27.6387276,1.2106956,9.2155838,1.0301216,18.350564.0259682,27.6387276-1.2106956Z"/>
  </g>
</svg>