<?xml version="1.0" encoding="UTF-8"?>
<svg id="Layer_2" xmlns="http://www.w3.org/2000/svg" viewBox="0 0 577.160133 221.5141892">
  <g id="Layer_1-2" data-name="Layer_1">
    <path d="M3.7799418,151.0486705c-1.1769746-1.827203-4.0011473-5.5143174-.4027739-7.9043874,2.2210284-1.4748893,3.1533256-2.4991947,1.7398779-4.9578034-.421161-.7312733-.282813-1.9170512.6535682-2.3827369,3.6903635-1.8349354,3.4654708-6.1917907,6.2616908-9.0680935.1097237,4.8064954,3.2173991,1.6251082,5.6585646,1.585938q-2.8596038,2.5133889-6.4320755,3.2901489c.0926979.4957803.0068248,1.1932199.3066817,1.4631637,3.5990451,3.2457875,1.2308109,5.9126987-1.0045387,8.2713309-1.0522581,1.1104144-1.8557548,1.9643168-.5731405,3.0025259,2.5501994,2.0640391.3714087,4.08673-.5929253,4.9291609-1.4597876,1.2763158-3.957512,4.3429878-5.6149292,1.770753ZM233.0309183,51.9080499c13.7439733-.6019464,27.4524975-2.1503297,41.2475663-1.787089,10.6792253.2812883,12.807574,2.2529018,13.111533,12.7276726.2521557,8.6954142.3639123,17.3996499.2903094,26.0979321-.056559,6.7240548-2.5542834,9.5427096-9.1655833,10.656972-2.6633355.449023-5.412544.5065258-8.1242522.5306305-25.7398645.228051-51.4742836.0438895-77.2127686-.4561019-4.5477146-.088505-8.8820988,5.2876459-14.0009028.9197911-1.1953617-1.0198765-2.2108093,2.8598579-3.8723287.5537188-1.6478879-2.2882421-1.0774519-5.7725356.3850584-6.4623154,4.0897249-1.9284864,3.628341-5.8192929,5.20671-8.8136871,2.5195421-4.7808297,5.2946341-9.4274499,7.9620536-14.1307742.3434922.2344402.6869663.468844,1.0297688.7031027-2.1229033,3.8706225-4.2471679,7.7410997-6.4055023,11.6759409,2.7526209,1.3093509,3.2433008-.7429989,3.7660174-2.0682865,8.2060413-20.8088885,24.1383165-29.1995269,45.7823209-30.1475067ZM187.5075779,95.7806164c0-1.0790855.0640554-1.6265966-.0109088-2.1545044-.3598283-2.5441732.3182622-6.8312555-2.6497039-6.6816901-3.1117595.1569348-3.5363329,4.3192461-3.5070369,7.4546747.0027227.3568515-.0292959.7517115.1056397,1.0637659,1.0236156,2.3687605,1.1122113,6.4207492,4.1013053,6.1605707,3.1083652-.2706336,1.5034048-4.1134122,1.9607047-5.8428168ZM264.4279678,98.4763154c-.0013613-.0614235-.0020329-.1226654-.0033943-.1841615h-18.6249247c.0013613.0614961.0013613.122738.0020329.1841615h18.6262861ZM222.1411034,59.3415967c-1.0454333,8.0132398-2.1781009,16.0193462-3.4559233,23.9998958-.5390708.4648871-.6535682,1.3005657-.3066817,1.8717459-.3748211,2.2958292-.754416,4.5907146-1.1558285,6.8815342-.7087659,4.0427679.8450628,4.5110674,4.2035326,4.4584291,9.7803262-.1531957,19.5647184-.0543808,29.3477673-.0543808v-.7500779c9.6031166,0,19.2246567-.3482478,28.7977876.1850328,3.4491166.1921843,4.0863125-1.0812999,4.2873546-3.5786795.9323153-11.56943.6433491-23.1504768.05861-34.722811-.16356-3.234443-2.0083877-4.7386102-5.3900365-4.6681656-17.3866174.3624057-34.781421.385494-52.1155635,2.150003-2.8902792.29423-3.892785,1.3270664-4.2710185,4.2274739ZM203.2224569,63.2294264c-5.2687325,5.9041495-10.1353808,12.2615876-13.2764543,19.7023585-3.5983553,8.5212359-.3666531,13.5462711,8.682418,13.4323545,1.2641908-.0159004,1.8167117.2982596,3.7489735.41744,4.5924934.2832667,7.7904164.1061842,9.8570693-.4161331,2.2657528-11.6347378,3.7192782-23.3864416,5.1040653-35.1720336,2.2237511,7.2590779-1.1347187,14.1295581-1.5967743,21.2032402-.2930502,4.4805735-1.3091875,8.9136999-1.9900006,13.3696604-.003358.0219266-.0064981.0439984-.0097835.0659976.9314804-.461874,1.4190383-1.0550897,1.5281811-1.750097,1.3725532-8.7441682,2.7198944-17.4930194,3.9793115-26.2541408.5465854-3.8011217,2.0213658-7.5609859,1.4829666-11.9070594-2.5686046,1.4074941-.8041683,4.5038433-3.3768751,5.0816668.9009683-1.4618387,1.7971447-3.7913201-.8621067-3.2282172-4.6683289.9884387-10.0161096,1.8077813-13.2709908,5.4549632ZM217.3317038,61.0441739c.0081862-.0129599.0156826-.0283702.0238506-.0414935-.0224893.0051186-.0327084.0170439-.0551976.0216362l.031347.0198574ZM217.3003568,61.0243166c.0177155.0567405.0211279.1124463.0381719.1690961.0047738-.0399507.0095294-.0799921.0143031-.1199428-.0211279-.0292959-.052475-.0491533-.052475-.0491533ZM192.2740319,105.1989544c28.5926615.2427171,57.1532863-1.3054302,85.6225746-1.3237266-28.643757-.7479723-57.1389651-.0111811-85.6225746,1.3237266ZM200.0657189,106.9387778c.0688291.0845117.138348.1692413.2078487.2539345h22.4849832c-.0020329-.0846932-.0047738-.1694228-.0068067-.2539345h-22.6860253ZM338.0205815,100.9621871c-11.4043454-.9967882-22.8277857-.5536099-34.2110032-1.612112-7.2301087-.6722095-9.3666435-3.0021265-9.436834-10.4251819-.0831504-8.8734044-.0429456-17.7480067-.1042783-26.621647-.0667781-9.5843665,3.3407543-13.3575355,13.0440652-12.9590271,12.5029252.5134232,24.8593525,2.4293128,36.8204842,6.2812758,9.6699128,3.113992,19.0931335,6.8401314,27.4334025,12.8084271,6.137664,4.3916329,10.4659131,9.9610935,11.0819992,17.8243141.7326165,9.365373-3.682867,14.4913285-13.1244748,14.6606787-10.4979317.1884452-21.0020167.0432723-31.5033608.0432723ZM329.7143641,97.6479335c-5.5720018-.7791923-11.1399195-.913656-16.6996692,0h16.6996692ZM369.7426999,96.4136557c6.4729882-.2411924,8.6292715-2.8537228,8.4261965-9.3387997-.2146917-6.8635645-4.1736014-11.5252138-9.3993882-15.0974315-19.5101923-13.3376963-41.5460618-18.2365447-64.7868224-18.7595155-4.6642449-.1050407-6.2882822,3.0227462-6.2541943,7.1623868.0783585,9.4244912.3298426,18.8474941.3952593,28.2719308.0327265,4.7108026,2.0486107,6.8891576,6.9275292,6.814738,10.6914955-.1629973,21.3877648-.0504602,27.4545304-.0504602,15.4872636,1.0811547,26.3621038,1.4022847,37.2368896.9971512ZM264.7687374,116.8108218c7.1121989,4.8939113,14.2189706.1707297,21.30937.0651989,1.3180453-.0196032,2.0472493-1.3835528,1.9940846-2.8270043-.0517852-1.3842062-.6774007-2.8892264-2.0220192-2.7979262-4.4618415.3029426-8.3457506-2.0243244-12.6024479-2.4141384-2.8671002-.2624655-5.1385706.9518823-7.0140738,4.1145738,5.9584215.1925473,11.2544169.3348886,16.5483613-.537528,1.2594352-.207758,2.6919598-.3154306,3.1315442,1.2919621.3107657,1.1373507-.6379038,1.6298275-1.5892778,1.6064125-6.3155452-.1558094-12.6378789-.2672211-18.9350189-.7080761-.8109931-.0568494-1.641063-2.3712291-2.689219-.3959853-.8171282,1.5409595.8150771,1.8779173,1.8686965,2.602511ZM577.1322939,197.8034027c-.3775438,4.9366754-4.8134655,12.8000049-8.1848952,14.0397644-1.7555786.6454547-3.1635628-.164522-4.6492702-.8093958-4.6464749-2.0166647-9.3509609-3.9099015-13.9265738-6.0754056-3.3053232-1.5643745-6.0586339-2.4981056-7.3344052,2.3059213-.2032565.7663413-1.0025966,1.3744772-1.6808322,2.0148495-.9840098,1.5071258-2.1254263,2.9272712-3.2554076,4.3243284-1.0209655,1.2622305-2.3947167,2.7023423-4.1627107,2.599752-.0297316-.0017425-.0570309-.0070789-.0836768-.013214-1.5027695.6405902-3.1566291.425245-4.9388899-.7384611-7.2600944-4.7408609-14.2421496-9.8377746-20.1685343-16.2397919-.0006897.0046104-.0020692.0090393-.0027227.0135408-.0129599-.0158278-.0184053-.031583-.0313652-.0474471-.037464-.0406223-.0797198-.0753999-.1171838-.1162036.0204019.0075872.0381174.0188409.0579021.0264281-2.7164638-3.4369553-.8328108-6.8461031,1.2737384-9.1055575,2.691742-2.8877743,3.4923526-5.391652,2.371701-7.8934604,0,0-3.1427979-5.9988441-15.920477-13.1041455-3.674699-2.0434194-10.3578049-3.1327059-9.7076672,3.7345978.2916889,3.0789785-2.5318304,4.4822797-4.7351251,6.6360218,1.6730998,0,3.3550937.1103953,5.0151973-.028824,1.9348393-.1623438,3.6706332-.4709133,3.4109629,2.4814791-.1942172,2.2071428-.5594909,3.8912422-3.322349,3.8976314-7.692854.0179696-15.0537961,1.8421233-23.1596612-.4546498-8.8009813-2.494076-18.680794.0860364-27.8988885-2.4077855-1.536821-.4158064-2.3396098.3316577-2.3716284,1.990527-.276696,14.4424293-8.2769215,24.0556017-19.8236989,31.7187241-3.479792.2592346-6.5220326,2.0987078-9.9956896,2.4608231-4.1217254.4296013-8.2762317.1600205-12.4088841.121177-2.4084389-.0226889-4.8066769-.0606974-7.1912653-.1713468-5.1324174-1.5885881-9.1656015-5.6410124-14.313048-7.1201128-.0878878-1.1738345-1.4018491-1.6703045-2.0935529-2.4136665-4.4032496-4.7364683-7.5681556-10.1443837-9.2555585-16.3917169-1.184471-4.3867684-4.3861875-5.8330878-8.1699205-3.1428342-3.1049528,2.2078325-6.2753223,1.6236924-9.6576427,1.9684552-7.2669192.7403488-36.4538492.2580367-40.8025547.2352751-40.0685587-.2104081-80.1119055,1.0891412-120.1641101,1.8570435-4.2805479.0821158-8.7171593.9408827-12.8218771-1.2095922-.0013613-.0483183.0020511-.0974716.0006897-.1459352-7.2451197,1.3285185-14.4023153,3.6779299-21.3748048-1.6133099-4.1667402-3.1621833-9.6092699-.9087915-11.1160871,3.9903111-1.2396505,4.0297717-2.8916224,7.8466305-5.5931297,11.0913652-2.5236261,3.0317492-5.2530499,5.8922968-8.2544141,9.2321073.0920081-.0085673.1819652-.0215273.2732836-.0311474-1.5252224,1.4603684-3.0981279,2.7207475-5.0520259,3.5672806-1.416842.6137628-3.1137924.9736999-4.8039361,1.233588-6.50635.7438702-13.0099774,1.7382624-19.6512812,1.3612269-11.4588714-.6507548-18.9683988-7.0237665-25.3043641-15.4995156-3.9943225-5.342172-6.0708859-11.5528399-6.4504808-18.2017853-.1628702-2.8408718-1.2321541-3.1443226-3.9281979-3.4935143-14.7853044-1.9151998-30.1355814-.2081936-44.241434-6.6130061.1335743,1.9647161.142432,3.8717478-.748299,5.7556913-.9459287,1.9992759-.7782847,4.1156992-.2739552,6.282619.3032693,1.3040871,3.7510064,2.5519056.6508274,3.8773021-2.1774112.9307543-4.0365602-.8701295-5.1208369-2.9059618-1.0236337-1.9220972-.2358015-3.819763.2528273-5.7210953.2460206-.9568194,2.2149114-2.0705736-.146516-2.9124962-1.4264076,2.0009095-3.59291,3.1220693-5.2462432,1.1119391-2.3375769-2.8420335,1.1640147-3.1757967,2.5992619-4.3518456,1.899372-1.5565695,3.7462508-3.1781926,5.6149474-4.7718267-.1990091-.9651689,1.0045387-2.6577994-.387781-2.8188-4.0467975-.468118-3.4641095-3.5165663-3.7448895-6.0317702-.3980001-3.5767191,3.7264842-.9071579,4.7998703-3.5228103-3.6644799-.4867411-5.9093589-2.2878064-5.6210824-6.3055621,2.0840417-.4701146,3.123358,1.5238611,4.7903228,2.2333167,1.7392063-1.4926048-.7660146-3.4798646.9254905-5.1867256,1.056324.7660509,1.9409199,3.3896172,3.9629573.2804715,2.4050447-3.6986948,4.3507384-6.997048,4.3746071-11.7595814.0238506-4.8906804,1.6424244-9.7946112,2.7866725-14.6400953.2126406-.9004419,1.68537-1.6196628.4211791-2.6457833-.8382561-.6803775-1.7105819.0397147-2.4357201.5362937-1.2750997.8725981-2.2735033,2.6743169-4.1667221,1.4797175-.7823869-.4937474-1.0515684-1.5726877-.406876-2.4073499,1.2165078-1.5746117,2.5495278-3.4741289,4.8605132-2.4737831,1.6383585.7092741,2.1930938.8149137,3.2215013-.9800891,1.0515502-1.8360608,12.9220532.9554036,13.6744363,3.0563985.5390708,1.5062908-1.8932187,2.8899888-.1662826,4.6108261.3680144-.1099596,1.0290791-.0988511,1.3003116-.4186017,14.3655048-16.9566894,33.6671586-25.4415504,54.4081618-31.0127898,18.0408754-4.8460286,36.3407132-8.6413601,55.2361988-7.7562378,1.9238942.0900297,3.5567892-.3848768,4.8973056-1.8266222,1.2655703-1.3609364,2.9788749-2.9586001,4.6478907-2.3648399,5.1624212,1.8360245,6.4306961-2.0698838,8.4486494-5.0805414,5.9631952-8.896057,12.7939425-17.1307952,19.3534572-25.5792813,7.4229828-9.5622221,17.5958457-14.1791833,28.9797347-15.3826404,9.5820069-1.0130698,15.1553699-4.4550167,14.5536051-15.3163706-.6051773-.8493283-2.7785045,1.2238046-4.0181731-.8912575,4.4532379-2.0379559,19.4429423-.2853178,22.0748218-.9337856.7603151-.0139401,1.5206847-.0274082,2.280909-.0489355,1.444105-.0410579,3.0211126.0760714,2.8248443-2.148805-.008168-.0925164-.0177518-.1843975-.027499-.2761878.7219254-.6435669.3600279-8.252962,2.3546934-10.9298563l.0000182-.0000182c.3710275-.497904.824552-.8227913,1.3807756-.9028379,4.1506765-2.1180206,11.1726279-1.4261172,14.8685456-1.1437762,3.0061198.2295031,5.5058953.0830596,8.2121582-1.5522132,2.567933-1.5513782.3939343-2.0045215,3.314181-2.9183409,2.7219455-.8517969,12.0576232-1.6175392,13.2911567.1012289,1.2193938,1.6988018.8302333,5.0339474,2.3674718,5.2707109,4.5637602.7028849,10.4354373-1.032909,14.916519-.7780306,6.9077626.3927181,9.2535256,2.178355,8.6810567,9.2901365-.4750154,5.8898464,1.7807724,7.3063617,6.9609091,6.6676229,2.8664286-.3534572,5.7791971-.3319844,8.6715092-.471004,1.0910834-.0526565,2.4125411-.1955241,2.8480233,1.0024877.5670054,1.5620148-.6474331,1.5943965-1.8250793,1.731365-1.9416097.2259273-.8314494,1.4874862-.6358527,2.3864761.5002274,2.2961741,1.2553331,4.5643047,1.4809155,6.8851825.2378526,2.4362283,1.4713862,3.3192815,3.6801444,3.9047103,18.8375472,4.9934885,37.0147196,11.5288804,52.6648897,23.6087024,2.0458517,1.5794762,3.5519973.8284545,5.3872957-.0697004,10.340525-5.0589052,21.363896-7.3319003,32.7062189-5.8233043,14.2087878,1.889643,26.8261923-2.1176213,39.1212687-8.4283746,9.3448259-4.7966212,18.6562899-9.7316812,29.3436833-10.9357191,3.9445702-.4441766,7.9007209-.9168143,12.2773609.94729-3.422507,3.7736772-6.6344608,7.3151287-10.1244901,11.1636068,5.3975693,2.2211191,10.860519,3.1202723,15.5717935,7.4230554-5.2148962,1.1866855-9.9063859,1.9865156-14.432301,3.3405909-8.8834601,2.6581261-17.1774073,6.7826104-25.2934734,11.1877115-13.8073208,7.4938811-28.4884014,10.1455454-44.0628812,8.9336299-5.5392934-.4310534-11.1522078-1.2730486-18.0020138,1.4826943,2.2264919,1.702069,4.5163675,3.3272861,6.6678589,5.1193122,9.8116733,8.1733148,17.7934935,18.0280062,25.3752624,28.195333,2.6687626,3.5794781,5.3702699,6.1761081,10.2253378,5.3777119,1.5579127-.2562578,3.2330454-.0940592,4.6233504,1.077343,3.9295774,3.310696,3.0490654,5.9458427-2.9004801,8.4170483.1478592.5094663.1982831,1.0831876.4613658,1.5316298,4.9327548,8.3936333,8.6394724,17.2895088,10.8543476,26.773445.853975,3.6556766,2.6776567,4.9611069,6.6883334,5.2633597,5.0526975.3809562,9.958879.2491063,14.9904487-.0276623,7.3064161-.402193,13.8441676,2.1779194,19.1360246,7.4553281-.5340792-.2571654,1.7993592,1.9290309,3.0035786,2.8427958,1.0957119.8314313,2.3035979,1.5017893,3.5439745,2.0905398,1.2483631.5924896,2.5324839,1.1035169,3.8074565,1.6348372,1.3679791.5700185,2.7130877,1.202477,4.1252467,1.6590871.049843.0161182.0910098.0394969.1281471.0657434,1.279583.1824916,2.5847228.1735612,3.8958889.0901386,3.4771057-.2211535,5.5277493-1.6548761,4.3664391-5.52303-1.2533002-4.1756706.4709133-6.0981308,4.4802468-7.4468334,6.4634044-2.1740714,12.6971606-5.0261243,19.0378996-7.5669213,7.4378667-2.9800548,10.0237149-2.4297121,12.1684178,3.9291781.0816801.0509321.1462619.1349356.1720365.2614128.0730039.3576501.6719916,2.6066131.6690512,2.6043261.0010165.0035576,1.5560612,3.0060472,2.1417623,4.6050903,1.2669498,3.4581196.7449229,5.6086308-3.2807829,6.960056-5.6285244,1.8897156-10.9967614,4.5557918-17.911367,7.5007423,6.433455,2.8554653,11.757367,5.2131173,17.0765596,7.5811881,3.4129958,1.5195048,7.4161579,2.3524971,7.015417,7.5822772ZM571.5119011,171.9467356c1.1589142-1.6826473,1.0829335-3.1366628.7995579-4.4767618-.4476072-1.6793801-2.5644299-12.0510525-6.9811476-10.6243726-.3270836,6.5799348,4.7218022,9.1169927,6.1815898,15.1011343ZM540.7677119,179.8490175c.3694121.618954.7898652,1.2085757,1.203566,1.8003756,1.1973946,1.7140488,2.5686046,2.0921371,4.6253833,1.2067606,7.1047206-3.0584314,14.26669-5.9904582,21.4634006-8.8266107,1.8714192-.7377351,2.1058594-1.4371349,1.0972366-3.1362998-1.6526616-2.7847484-3.3352726-5.6076869-4.50682-8.6092326-1.8680068-4.7862388-2.747829-5.0556017-7.2587149-2.3237094-2.018625,1.2225521-4.724416,2.1073478-10.9634359,4.65693-9.7135119,3.2863735-10.8789242,6.4973834-5.6606156,15.2317863ZM462.8611885,168.2682974c-1.2887312.2043093-2.4179864.7282239-2.6299555,3.1313627,7.1851665-.2287044,14.0724727-1.1314697,20.8623436-2.7946953,1.0801746-.2645711,2.9679298-.0050823,2.5726705-1.8677527-.3271199-1.5400156-2.0043219-1.3240896-3.2160196-1.1501291-5.8705155.8422131-11.7314834,1.7522388-17.589039,2.6812143ZM464.0585832,140.4897873c.7973797,7.6339354-1.2921436,16.3700082,8.1842417,21.5778617-2.9236773-7.7086455-5.5536328-14.643181-8.1842417-21.5778617ZM453.2948824,119.4658259c2.7471393,3.3029999,2.2346236,7.9991001,7.2621273,6.2535772,1.2471651-.4328322,3.8205253-.0741293,2.9577652-2.7329088-1.5272735-4.7068456-5.5058953-2.7619869-10.2198925-3.5206684ZM400.637471,65.1570597c4.425757,3.4456316,8.6674615,7.128063,12.9643454,10.7378172,1.0222724.858295,2.0295157,1.3480491,3.4498064,1.0428195,6.6555887-1.4299834,13.3418529-.5817805,20.0206388-.1508723,12.3073466.7940399,24.2582774-.5825791,35.4029343-6.2420331,12.8348551-6.5181664,25.3459665-13.7691671,39.8620895-16.9967853-2.7464858-1.6183197-5.4909388-2.8630162-8.3525754-3.7128527-3.1942382-.9489055-2.8991007-2.6032733-1.2710157-4.6550423,1.9804713-2.49551,4.0556915-4.9160557,6.4722985-7.8294958-10.2560133-1.4308183-19.0378996,1.3558541-27.1785423,5.6372551-18.2916334,9.6205962-37.0263,16.1985888-58.2327893,13.3997187-7.8107275-1.0306945-15.3897738,1.6489225-22.6185394,4.7962945-2.5835975,1.124899-2.9393599,2.0886521-.5186508,3.9731764ZM395.3033581,67.1625796c3.850511,4.0152508,7.6690034,8.062375,11.5733507,12.0247696,1.0672509,1.082752,2.0145228,2.7189687,4.03725,1.9203184,1.7541991,4.5897708,4.969529,6.8363015,9.896185,6.3780577-2.5754295-2.8447561-2.473892-9.0705984-8.7812329-7.0431156.7060069-1.3883447.924111-2.7757092-.4273142-3.8816221-4.8577906-3.97481-9.7475997-7.9105951-14.6305841-11.8541489-.8137521-.6569625-1.7099103-.6988735-2.3328213.1610914-.6712656.925672.0395332,1.6420977.6651668,2.2946494ZM320.2311902,26.4106303c.119253,3.2244781,2.5719989,1.5607442,3.9977168,1.9124771,1.0113636.2495238,2.1344837.0483002,1.9532083.0483002,2.3225659.2477268,3.4395691.6101325,4.4461408.4111234,1.1899164-.2354566,3.3209877,1.2752812,3.4375362-1.0407503.0851833-1.6938829-.8341721-3.6346394-2.9713785-3.9112447-2.1208522-.2743908-4.2880443-.2426263-6.4347982-.2470552-2.0383916-.0042655-4.5586053-.7054442-4.4284253,2.8271495ZM314.1126031,32.281055c6.6099386.8738687,13.2192056,1.7476466,19.8291442,2.6214971.0613509-.5188686.1226836-1.0376827.1846879-1.556388-6.332571-3.2237883-13.1033469-2.7445981-20.0138321-1.0651091ZM318.2118755,25.505342c-.0851833-2.4872512-1.693538-2.2675498-3.3148526-2.3827369-2.2162546-.1574249-3.9316103.2044545-4.0481588,2.9575836-.1158587,2.7394795,1.9259452,1.9278148,3.255571,2.1573905,1.9777305-.1066561,4.2192152.5355858,4.1074404-2.7322372ZM311.1957506,11.2186313c.0640735,2.5160389.2105896,5.0299542.2951013,7.5454848.0470115,1.3924105.4164054,2.5638309,2.0615524,2.5591479,1.3916482-.0041748,3.0845146.7057891,4.1088199-.4732185,1.4025389-1.6149254.5152202-3.8024831.8464241-5.8924965-.1001762-1.4489695-.0517852-3.0938624-.3584669-4.6694361-.5411219-2.7779962-2.5733784-3.8246093-5.1814981-3.5960501-3.3952803.2973883-1.8162216,2.779775-1.7719328,4.5265685ZM280.9763473,6.3007968h12.6829119c.2354566,0,.1981923-.2288496.2533718-.4577537.354873-1.4720759-.4406916-3.2623232-1.6309166-3.7194053-2.2330626-.8575871-8.0324619-.7036291-10.4752972.4250272-1.141598.5274541-.861417,2.5309592-.8300699,3.7521318ZM269.1848925,18.8812455c.3434922,2.5767908,2.9216262,1.479899,4.5381671,1.5245327,4.6949022.1292361,14.0942541.6969313,14.0942541.6969313,5.2380752,0,10.4849899-.1845245,15.7114847.0690106,3.1662855.1533227,4.2689675-.9943196,3.9963554-4.0090612-.146516-1.6139815-.2071772-3.2702189-.0177155-4.8732916.5158918-4.3827751-1.5879165-5.3231677-5.447975-4.6262364-9.742826,1.7587914-19.4447756.4846355-29.1337653-.6612462-1.2383073-.146516-2.8773374-.9577632-3.540435.2318083-2.0888155,3.7483745-.7135396,7.7944822-.2003705,11.6475525ZM304.741204,23.0508899c-2.8793704.0178063-8.6374395-.2899827-8.6381111-.4376241-2.6980949,0-5.3968614.0213094-8.0949563-.008168-1.5436096-.0170439-2.878009.0867988-3.0545107,2.1141181-.1996807,2.2992417,1.1844529,2.7279898,2.997262,2.7822617,5.5767755.1666275,11.153551.3300967,16.7303265.5114629,1.7194578.0560507,2.6912882-.568639,2.7226352-2.4545428.031347-1.9050533-.9568375-2.5179992-2.6626457-2.5075079ZM278.0383669,22.4301208c-1.9852269-.034941-3.9725048.0333981-5.9591112.0722416-1.6158511.0316011-2.7341975.4852345-2.7444166,2.4716594-.0095475,1.9117147.9098079,2.5760829,2.6244739,2.5796768,1.0836051.002287,2.1671921.0005082,3.2507972.0005082v-.0592998c.9030012,0,1.8087252.0414935,2.7089856-.0088578,1.7351223-.0967637,3.842343.3617886,3.8866499-2.4511304.0429275-2.7577214-1.9736464-2.5733602-3.7673788-2.604798ZM256.8250709,7.2782359c-1.1851426,2.5213209-1.3071183,5.2063833-1.2839574,7.9296901.0470296,5.5076015,1.3030524,6.6394161,6.8505139,5.5313613,4.8502941-.9687628,4.323548-4.4887234,4.074242-6.9922017-1.0134328-10.1768017-9.8600824-6.6194861-9.6407984-6.4688498ZM260.6217638,22.7213741c-1.4938754.148313-4.2014997-1.2978431-4.2526133,1.5995877-.0599714,3.4323268,2.7410223,3.7113099,5.7955331,3.6103714,1.2553331-.20872,3.5486212.6466708,3.5083982-2.3175562-.0511136-3.7655818-2.858914-3.1099806-5.0513181-2.8924029ZM241.8925607,27.7164054c-.0009076.0006534-.0018514.0013613-.002759.0020148,3.4066429.8002113,6.747851.1823282,10.1027087-.4144995,1.4420721-.2564212,2.2755544-.7397862,2.0165739-2.4439789-.2289767-1.5105563-.9023115-2.2067253-2.4391144-2.1731457-2.3280294.0510229-4.6601428-.0362115-6.9854495.0590275-1.5517957.0633838-3.6631004-.7179685-4.4904477.7742733-.859384,1.5499262,1.083587,2.8090891,1.7984879,4.1963084ZM229.3725916,28.1405613c3.293888.5603984,6.5090545.5031315,9.6879732.0634564-1.2540988-2.0873634-2.0720438-6.0224587-5.4571776-5.1032122-3.3400645.907176-3.3025824,3.3185191-4.2307956,5.0397558ZM229.2928536,33.7283183c17.2339663-.5941958,34.4283994-1.7576115,51.6521466-2.8147886-17.2319334.4165687-34.7200883-2.6058326-51.6521466,2.8147886ZM169.7495336,87.3934812c1.6812678-.0283158,3.2773705-.3050844,4.2301059-1.8937451,6.1172258-10.1971673,12.2351051-20.3943708,18.3066626-30.6188737.8198509-1.3815017,1.859149-3.2464409.301908-4.4216186-1.8748316-1.4148998-3.3905066.4087456-4.5313422,1.6955165-8.1256135,9.1644761-15.6317467,18.805692-21.7073882,29.4736636-1.99953,3.5096688-.5976809,5.695611,3.4000541,5.7650573ZM23.5749982,131.1626406c3.0797408,1.0712805,6.2651032,1.0868905,7.2301269-2.3698859.9520638-3.4119068-2.5454438-4.0221482-4.812812-5.5813677-.800774,2.9160538,2.2619229,3.4718418,2.2884962,5.6639191-1.978402.7809348-2.4459211-1.0450702-3.6181219-1.2710157-1.2028581-.2317901-2.8139355-.7496422-3.3332579.6204061-.6208417,1.639738.765343,2.4228873,2.2455687,2.9379441ZM17.8326298,157.8243835c.808942,2.9603789,2.110615,4.544647,4.659453,5.8828582.7190031-2.6777293,1.2839756-4.7852949,1.8496197-6.893042-1.708549,2.3952612-3.9622857,1.0665612-6.5090727,1.0101837ZM18.5645565,171.71981c6.5486059,1.375893,13.1762782,1.4926774,20.0179343.5558606-5.5747426-2.683102-11.5174814-3.9815986-17.5644986-4.8632359-.8437015-.1232826-1.8312144.1093788-2.628576.4593328-.9268518.406513-2.3655115.5500523-2.454797,1.7836766-.1219938,1.6805055,1.4734191,1.8213947,2.6299373,2.0643659ZM39.9209742,177.1100099c-9.1628788-.0114715-17.1712723.2417732-25.3773135-2.7839498,3.8955077,6.6024422,18.460675,8.3923628,25.3773135,2.7839498ZM96.9835956,157.9023971c-12.2146669-.1572615-24.7380484,12.9166442-24.6923801,25.7769472.0504239,14.1011515,11.3580055,25.142347,25.8155003,25.2075096,13.7787328.0622947,25.2798419-11.2562865,25.482935-25.077257.2071772-14.1375627-11.6824027-25.7150155-26.6060552-25.9071999ZM166.5825584,181.9375606c-12.6576455-59.8333571-63.5117408-74.1682954-112.9960056-53.1832864-2.0860928.8843963-2.5999517,1.9945203-2.2905473,4.5264596.9656953,7.9042422-2.0390632,14.9093493-6.2821289,21.388509-1.8646125,2.8475514-4.0999622,4.6418283-6.2378402.1561724-.8430299-1.7693009-1.6397199-.1932734-2.441837-.1253155-1.2049092,3.8009221-2.3505368,7.6225728-3.6583448,11.3877371-.4354822,1.2541351-.5377095,2.2816714.9602499,2.3513717,7.0747349.3290802,8.9993007,4.2990258,7.1347063,11.0614521,6.6249314-1.607066,10.7909819-5.4640751,14.3402747-10.0738847,3.5308875-4.5861042,6.6767348-9.4772929,10.3248424-13.9632391,11.188982-13.7570421,26.0540426-19.4672467,43.0283387-15.6496982,17.4868117,3.9328083,29.2073863,15.3302381,33.4409046,33.3723296.9091363,3.8741801,1.5681499,7.8101467,2.5638309,11.6605851,1.3330381,5.1561228,4.4107097,8.0776582,10.1469612,7.7451656,4.0856409-.2367272,8.1964938-.0406223,12.2971275-.0278439-.062694-3.5535583.3911934-7.2142809-.3305323-10.6265144ZM44.5320544,133.9389669c-4.1367545,5.2986818-5.0676904,11.1994734-3.9275445,17.544242,3.6549324-5.3181399,3.3387214-11.5807926,3.9275445-17.544242ZM43.2296917,153.3813829c4.8945829-6.110764,6.5090727-12.20904,6.6208474-18.8164919.0170258-1.0211833-.0170439-2.3641502-1.5102296-2.36749-1.2335336-.0025412-1.7446516.8994981-1.9402483,2.1282579-.9527535,5.9941248-1.9838655,11.9759067-3.1703695,19.055724ZM204.7245003,191.1258147c-.0790482-.1115932-.1587862-.2231865-.2378526-.3347797h-32.8595598l.012252.3347797h33.0851603ZM332.7020968,181.8882621c-26.6074347,1.1109226-53.2359791.6710841-79.8508921,1.2423732-4.1653789,0-8.3307578-.0182237-12.4961185.0030857-22.4577202.1151509-44.9161302.2581819-67.374522.3362318-2.4643445.0086762-4.1851455.2650793-4.0481588,3.4529283.1199428,2.7978536,1.7882688,2.6292658,3.6678742,2.5760103,16.2914319-.4624911,32.5746957-.1005936,48.8491018.6216404,15.4081972.6837899,30.7762078-1.1952165,46.1353425-.9190287,21.7428193.3911208,43.4645106-.3182622,65.1882531-.08502,4.6458215.049843,3.433434-2.8072922,3.8450657-4.6953378.7489706-3.4333251-2.1862871-2.6051247-3.9159459-2.5328832ZM421.2319763,182.3881446c-.056559-13.7787509-11.5372299-24.8956729-25.6307942-24.8186395-14.5747512.0797924-25.2859951,10.9463739-25.2887541,25.6538099-.0020329,13.3839635,11.758093,24.8753799,25.2791703,24.7016735,14.4766261-.1859403,25.6989699-11.3629426,25.640378-25.5368439ZM466.8344013,181.8230632c-.2467103-.2336415-.48253-.6548207-.723795-.6574707-5.3545874-.0606611-7.8843485-2.7403508-7.9736522-8.0954463-.0994683-5.9670432,4.0209139-6.3826681,8.3709807-6.934354,1.4325246-.1816929,4.6110802.2124773,3.4239228-2.505838-1.021619-2.340118-3.0388645-6.3135486-5.8303288-5.1579016-3.3012211,1.3672167-5.2216847.1969762-7.099965-1.40243-5.5937831-4.7623881-11.0833424-10.3682962-12.218043-17.5294306-1.0017979-6.3236769-4.8816412-8.7594515-9.134926-11.4994029-17.1774073-11.0645015-35.3259372-16.7582611-55.6246515-9.3645017-3.5622708,1.2976979-7.0522275,2.7966556-10.5749652,4.2026795,19.8720898-13.1483254,40.1121759-10.4979317,61.8924592-.370719-4.8536884-6.1574487-7.5204181-11.3374947-2.6115139-17.094021-.8259859,3.9160366-2.0901768,8.2670473.6890174,11.5091319,8.5358657,9.9582982,16.3888854,21.4141747,32.4874613,19.0094023-6.4232178-10.7000991-13.7828168-20.8990452-21.8055133-30.6397475q-5.0588326-6.1421655-10.2601154-1.0037945c.1206325-.5295052.1901514-1.0769437.3700655-1.5856113.851216-2.4079307,4.7882717-4.3049793,1.3398448-7.418808-2.7696467-2.5013002-4.3793627-7.2457913-9.8934623-4.2686044-2.9032028,1.5676417-5.8152634.4402378-8.3552618-2.2568043-3.460697-3.6751346-7.7058139-6.6007723-11.2816618-10.181049-5.2708017-5.2776991-11.8064477-9.7341497-13.6622206-17.5528274-.5813085-2.4500232-1.728969-3.6337137-3.7380465-4.7538571-12.7128432-7.0885298-25.9865567-12.7547541-40.1612566-16.1967918-1.7126149-.4159879-3.6269797-1.8123917-5.1671768-.5793664-1.5817814,1.2659878,1.0733679,3.0906315.261685,4.856157-2.2517038-1.3619892-4.6533361-1.0359765-7.145597-.7158266.5131691-2.2209558,3.5520154-2.3936276,2.7314748-4.7423674-.7980513-2.2833957-2.991127-1.5949773-4.6506134-1.9000436-15.0170219-2.7604441-30.1410267-3.7324378-45.4197518-3.269021-17.9284109.5437538-35.835712,1.1685343-53.6653081,3.2711628-4.9593462.5849025-5.5808777,1.9468917-2.2462585,6.7803052-2.433669-.8103034-4.5156597-1.170059-6.6419754-.040114.1451728-2.2337342,3.4900111-5.7004756-.7387515-5.0248355-9.0572391,1.4468277-18.2480525,3.0442009-26.6353693,7.2020834-.9234394.4577174-2.9134401.9333137-1.5579127,2.6381961,2.6844452,3.3753322.635163,6.31324-.8989172,9.002459-5.6496887,9.9046979-11.4922695,19.7005978-17.3825334,29.4649692-4.8073485,7.9680253-8.8139412,8.3950854-15.3945657,1.3872193-2.5031879-2.6657859-4.1871966-3.443163-6.1492444.3875995,1.8209772,1.5122807,4.7500998,1.9595249,5.202626,4.919214-6.915259-6.1804281-14.7444281-4.4763261-22.9995319-3.5752671-20.8152777,2.2724143-41.2053104,6.0670197-60.792518,13.5644585-22.5340458,8.6254234-40.7377914,21.7581388-47.1057934,46.6243343,1.1633249.0564864,1.3452902-2.3357618,3.3121118-1.8191076-3.5240627,4.0711563-5.8548329,8.4940455-6.6235701,13.6222881-.1806039,1.2076319-.5015887,2.7440899.8832346,3.4379718,1.6703771.8366225,1.9927233-1.0115269,2.7887417-1.8095964,2.8364248-2.8437397,4.3112052-6.8640365,7.8223442-9.1314047,2.3416427-4.7839154,1.974318-10.1815573,3.4347954-15.1567131.9663669-3.2918188,1.7187499-7.0546598,5.1201653-8.5958008,7.0352017-3.1880669,14.1910178-6.1616598,21.4559042-8.7848631,26.7621187-9.6630154,54.4858487-14.5414257,82.8222524-16.3118156,6.2078545-.3879625,10.1081178-4.5801507,10.8693586-11.0949591,3.2037676,4.5451553-1.5047661,7.0496864-3.081084,10.7535361h29.5154112c-3.5247524,1.7215634-7.3446061.2287044-10.812128,2.2804008h16.1408318c-4.6526463.8554634-9.3053108.8812743-13.9572674.8429391-1.9191386-.0158641-3.7087687.1771189-4.412779,2.3103139-1.1790075,3.5716005-3.01839,6.8733298-2.9638639,10.8942438.16356,11.9642174.0442888,23.9329363-.031347,35.8994044-.0204563,3.2736314.7005797,19.5488906.1260778,18.9448205-2.5004652-2.629774-2.3007664-5.991148-1.9981868-9.1766011,1.5136239-15.912672.1199428-31.8700683.8811836-47.7891658.1376764-2.8802235-3.5165663-4.7584675-1.6165227-8.2853436,2.0710999-3.8456828.3932264-5.2407797-3.9547893-4.9574766-18.4490946,1.2016783-36.9131821,2.3084624-55.055595,6.0712308-7.1524218,1.4835656-14.5699593,2.2789487-21.2460043,5.699205,9.4763672.1806402,18.8866279-.5237694,28.1033249,2.1524352,24.8389143,7.212248,40.1592055,24.1902106,49.0119902,47.7426626,1.6471981,4.3822669,1.3636954,10.4861335,4.3391579,13.1054161,3.2562426,2.8662471,9.2991757.5642101,14.1147104.5629033,33.9063544-.009366,67.8127269-.3121271,101.7184097-.2470371,4.8393853.0091119,6.1908287-1.5010996,6.1867265-6.1699367-.0177155-20.850981.1158587-41.7059915.5724689-62.5510553.1192712-5.4283899-1.7834951-6.5930762-6.8593716-6.4848228-16.8570941.3598283-33.7244073.2367635-50.5876365.2492515-1.2130772.0009439-2.6319703.636125-4.09586-1.308044h61.1619119c-2.7308033-3.263503-5.8112157-1.0828246-8.2605491-2.4249928,7.7398654-.2937218,7.5906267-.2992761,7.870717-7.7054509.5765529-15.2421687-.3039409-30.4486523-.7707883-45.6683499-.0804096-2.6282311-.6113124-3.9825606-3.624257-3.9192675-20.4704423.4291112-40.9586.1386021-61.3220413,3.075312-7.6478936,1.1029361-14.685818,3.9046922-21.8729993,6.3920341,9.5363386-6.890047,20.7825875-8.3288882,31.8816125-9.16807,27.1308229-2.05117,54.3270625-2.7425652,81.5246635-1.1756859,22.5742687,1.3007473,43.2934724,8.2938565,62.1126144,20.8479134.5649725.3773078,1.6860597.7167705.989564,1.8813842-.4348288-.0908102-.8369129-.0667055-1.1019922-.2452583-24.9036776-16.7591142-52.821643-22.0061379-82.2443563-21.7811545-3.8239559.0291326-4.8107791,1.052004-4.7119461,4.9167455.3905037,15.2241991.5949582,30.4623745.3707371,45.6879168-.0749642,5.1194211,1.054291,6.8869069,6.5029376,6.6556976,11.1297004-.4721838,22.2934887-.1415789,33.4436273-.1415789-13.02566.5669328-26.0465462.6019282-39.0163006,2.1439405,14.119466.8157487,28.2041908.6632791,42.2752659,1.4647247-.6228928.1413974-1.253282.2103355-1.8836712.2113519-12.1471991.0163723-24.2943981.0161908-36.4422688.0432723-2.1351553.004683-4.4373012-.4738175-4.2532849,3.1290756,1.1476605,22.4842572-.4423071,44.9531585-.5963195,67.4319341-.023179,3.3888911,1.0747292,4.4371197,4.3173403,4.3624095,11.4152542-.2629738,22.8509647-.7714599,34.2457626-.332057,5.7914491.2231139,6.8287143-2.124192,7.2723646-7.0315352,1.1994639-13.2706641,5.7192257-25.3347128,14.4854475-35.5973694-.3284812,1.0145037-.4279858,2.193602-1.0202032,3.01839-6.7346733,9.3730327-9.4422975,20.2995856-11.9270802,31.255761-.9902175,4.3696337-1.5845041,8.8409864-1.0720065,13.4690198.5111362,4.6122782,3.1976325,5.1404765,6.7612465,4.6328979,3.5261138-.5019154,5.2414694-2.9526102,5.9781699-6.21212,1.0781598-4.7710644,1.9695624-9.5888135,3.1894645-14.3226318,7.3384711-28.4796888,40.4399856-41.3022012,65.1282635-25.3568572,7.0583989,4.5587686,12.0586033,10.8690137,16.3541441,17.8896582,2.8377861,4.6372179,5.5597316,9.3509609,9.6017734,13.1188479,6.0715575,5.6599985,14.7880271,8.1511704,21.5009008,6.0556934ZM458.567717,146.3964598c-3.5254603-10.5761631-.8042046-9.1337644-12.6201997-9.1946433,2.3253067,9.1164119,8.611556,17.4750498,14.9911384,19.3078797-.8164384-3.5605646-1.3098591-6.9314861-2.3709387-10.1132364ZM475.814607,180.4399461c-2.3232375.6857865-6.2937275-1.6116763-6.5792813,3.0363959-.1887719,3.072916,2.48206.8158576,3.9105187,1.8005208,1.6874029-1.1925301,5.1364832,1.3716456,5.7941355-2.616451.398708-2.4193659-1.5449527-2.6868775-3.1253728-2.2204657ZM485.0503807,172.5831873c-8.3123525,2.1082553-16.2873116,2.8597853-24.9956494,3.5980286,4.2900954,5.4183342,20.3866384,3.0314225,24.9956494-3.5980286ZM499.0354376,167.2684598c4.0393918.9093723,8.1384283,1.9216253,11.8624258,3.7800846,3.7480296,1.8704027,6.8556506,4.705321,10.1221667,7.2746879,3.330989,2.6200813,6.8787026,4.9846308,10.5976541,7.018539,1.5713445.8593477,3.1903539,1.6436587,4.8625825,2.2871893,1.5445171.5944137,3.1796447,1.1191269,4.8426525,1.234786.0349954-.074093.0659613-.150473.1024451-.2238036,1.2362744-2.4819511-3.2984984-9.4243279-5.2823458-10.7992407-.4879753-.338301-9.0487807,1.3381749-11.0468586-.5026415-.9651326-.394388-1.916906-.8252236-2.8790255-1.2225884-2.6220053-1.0829698-5.1822604-2.1843812-7.4407709-3.9316829-2.4031388-1.8592216-4.8021392-3.7282449-7.0802166-5.7404807-1.5521769-.7669947-3.1162972-1.5038222-4.7214392-2.1367526-5.6782949-2.2397785-11.4084294-2.5842872-18.5594717.8455529.173888.0443977.3469773.0863268.5198488.1274573.0944586-.0758355.2220248-.111085.3753293-.0656708,2.2358216.6619722,4.5773554.7661235,6.8877782.9471993,1.1842895.0927886,2.3693051.2030024,3.541034.4028828,1.1063485.1886993,2.2015159.4579897,3.2962114.7044822ZM513.1397111,181.2287585c.9923593,1.2443335,2.051769,2.3884364,4.1343949,1.7609876,3.295812-.9932306,5.8793732.569474,8.4670729,2.4953466,4.4127608,3.2837597,8.4574891,7.1392804,13.5095332,9.7280691.6533686-2.0376837,1.0603898-3.8497123,1.6996731-5.4825892-1.7756175-.1757031-3.5138436-.7577739-5.1572481-1.4183304-1.8780988-.7548698-3.6894741-1.6618461-5.4493-2.6598686-3.7236708-2.111704-7.2637609-4.5327762-10.6015384-7.2123206-3.2622687-2.6189922-6.4411874-5.3707782-10.2969259-7.0934669-3.8278221-1.7102371-7.970385-2.6316617-12.0475674-3.5290179-.0900297-.019821-.1800593-.0388434-.2700527-.058483,1.3287.5303401,12.841208,8.1332733,16.0119587,13.4696732ZM528.9742605,212.8731718c1.7112535-6.382414,5.183531-11.0585842,10.6737437-14.297438-2.5924189-2.3397187-5.164436-3.6250375-8.1480847-1.7183325-1.1340471-1.6491766,1.5027332-2.3752223.3046125-3.7249414-2.2346236.111085-6.9527229,2.4856902-5.6919445-1.3977107,1.4216339-4.3783463-1.7262464-4.1183493-2.9822692-5.4507884-1.6792349-1.7815347-4.0454543-2.0892329-6.3536989-.3465416-3.2817994,2.477014-5.5924399,5.5061131-6.939763,9.1210223.1029533.545333.9914881,2.7189687,1.2669498,3.2749382.2001708-.2382519,2.0363768,2.3908686,2.0475942,2.3998353.0051549.0041385.0100194.0086036.0151381.0127058,1.0739669.5951397,4.5165491,3.9566952,5.2792601,4.5832001.2534263.1922932.5057635.3853488.7553054.5806551,2.3590315,1.8460439,4.8659586,3.4964185,7.1559068,5.431766.0476286.0402229.0804459.0837857.1044417.1284375.8097588.5052552,1.6438765.977911,2.512808,1.4031923ZM542.2936423,201.035722c-2.9189217-1.7698817-5.5032089,1.4212708-7.4188806,3.8056777-1.1047512,1.3749854-2.0145591,2.9542075-2.7560333,4.5597125-.7632919,1.6520082-1.1129192,3.7248325-.0149928,5.1307475,1.2253474,1.5697109,1.9357106,1.1240277,4.3098438-.4277862-.0520212.0652715-.1054581.1234278-.1579876.1861581.5873347-.5356765,1.096438-1.1541949,1.5810009-1.7821156.5154925-.668071,1.040714-1.3274657,1.5595463-1.9927415.9226589-1.1830552,1.7085308-2.4610047,2.4359198-3.7715898.9867688-2.1180932,2.5770994-4.4248858.4615836-5.7080627ZM570.4719132,192.9630735c-4.6703619-3.5864119-8.847303-2.441474-12.9615864.2434068l-.4504751.286062-.5301949-.0571761c-2.0234169,1.101847-2.9802726,2.9171066-3.3939008,5.0899437-.1738154.9139827-.4423071,1.8408164-1.6165408,1.5659355-1.0359221-.2425356-1.2962458-1.2371819-1.1715474-2.1295648.419836-3.0056116.8586943-6.0496309,4.2826171-7.3144389-.0006897.0005082.2514659.2175596.2514659.2175596l.2112793-.2575284c.5077238.3832069,1.0154476.7662687,1.5231714,1.1494756.0776869.3669798.1560635.7338144.2330607,1.0978175.0006897,0,.0006897.0001815.0006897.0001815-.0783766-.3659997-.1560635-.7320356-.2337504-1.097999-.2078669-1.7766339,3.2814363-3.5639407.5158918-5.0771653-2.4881951-1.3614084-4.9416125-3.9350953-8.4009664-2.2379634-3.9745196,1.9498684-7.2362075,4.8773575-7.1660352,9.3561522.0511136,3.2732683,2.0070446,6.7759671,5.2455716,8.2111417,5.4861468,2.4317813,11.2578475,4.2186162,17.2387219,6.3962815-.1069828-6.2419242,2.7416939-11.0867548,6.422528-15.4421217ZM574.654336,194.1431156c-1.5926902-.9847721-2.7512414.2008969-3.7721344,1.1362616-2.9120969,2.66869-4.3119131,6.1051008-4.7658006,9.9850893.2017318,1.7055541-.6072284,3.9840308,1.5041127,4.7400622,1.6942277.6065386,2.9250205-1.096801,3.9254752-2.3141256,2.3184819-2.8218857,3.8137005-6.0720658,4.3800525-9.6997533.2282688-1.4658138.1553738-2.9650619-1.2717054-3.8475342ZM375.867404,105.8108658c-12.3959242-1.4321978-24.782319-3.1702061-37.3186605-1.9837022,12.9575024.3732238,25.841402,1.5905484,38.6796332,3.327032-.4477524-.4965427-.8621067-1.2856455-1.3609727-1.3433298ZM77.6308281,190.1391912c-1.5552081-6.1496074.0954024-11.9411291,1.9668216-17.7078927-4.3071212,6.5360816-4.8632359,11.510947-1.9668216,17.7078927ZM377.682954,107.1664658c7.1503889.1048773,13.893212,2.5827625,20.9059064,3.3894719-6.7925573-2.2466759-13.5415518-4.7791235-20.9059064-3.3894719ZM377.682954,107.1664658c-.0974353-.0014521-.1935638-.0129236-.2916889-.0134318-.0061351.0039206-.0177155.0118345-.027263.0180422-.0449422-.0060625-.0906105-.0108181-.1356253-.0168806.0197847.0213094.03819.0488266.057285.0690106.1335561-.0276986.2636998-.0315104.3972922-.0567405ZM220.8326056,188.6083237c.0415843.1228469.0824788.2458754.1240449.3687949h19.6846611c-.0006716-.1229195-.0013613-.245948-.0020329-.3687949h-19.8066731ZM416.541866,189.0575282c1.7800463-6.1529836,2.1330861-12.1395211-1.9968436-17.6034873,2.6456381,5.6369829,2.5897326,11.5889243,1.9968436,17.6034873ZM117.7879826,174.3218127c2.5352065,6.4541473,1.7351223,12.7572409-.299875,19.0742745,3.4477553-6.3963541,4.0386294-12.8107867.299875-19.0742745ZM103.3073088,172.0420654c.9575091.4358453,2.0097672.6632065,3.01839.986914-2.9461484-3.4354669-6.8989048-3.7095129-10.9388774-3.2363852-4.9961386.5855922-10.1599211,5.3176316-11.1092622,10.6143894-.8177998,4.5646496-1.3759474,9.4045431,3.8839273,12.1954993-.6692508-1.4622561-1.5020434-2.8732171-1.9784202-4.3958803-1.636979-5.2324665-.6644771-9.9467904,3.29917-13.8338578,4.0297535-3.9523026,8.6762829-4.6743551,13.8250726-2.3306794ZM94.358432,183.8978479c-.2474001,2.1746159,1.1074376,3.3789806,3.1376611,3.4773961,1.8836894.0914818,3.4538722-.6942812,3.8941282-2.2967731.3870913-2.9631016-1.7317099-3.4241406-3.2507972-3.8391847-1.9307008-.5273996-3.5376942.5146212-3.7809921,2.6585617ZM107.6900839,175.0718906c3.7694117,6.805372,3.3543676,13.38498-1.1360801,18.0211088-4.4379728,4.5808404-9.3386908,4.8767041-16.8850287,1.0191867,2.2714704,4.9101748,6.7033081,4.1088381,10.6628712,3.6704517,5.7955331-.6418244,9.5608608-4.174763,11.0390536-9.7689092,1.3010014-4.9240785,1.1776462-9.664286-3.680816-12.941838ZM395.9793793,180.0990313c-2.7491722-1.0191141-3.4422555.7750538-3.7523496,2.9075591-.3475944,2.3890535,1.1680624,3.1886114,3.1833113,3.2811459,2.1276407.0977984,3.4763433-1.0582117,3.4974713-3.1472994.0177155-1.6978217.0020692-3.8797343-2.9284329-3.0414056ZM403.0759319,193.3138262c-3.9949941,3.0856944-9.6283467,3.1084196-14.274858.3412415-5.0356718-2.9989682-8.3621229-12.4519749-2.4942939-19.6470156-1.5327552-.0559781-2.1638341,1.0425291-2.8282749,2.1527982-3.806912,6.3617943-1.8986822,14.5225848,4.3732276,18.6281556,6.4729519,4.2369488,15.4995519,2.4203098,19.699654-3.9650084,3.1479165-4.7856216,2.8480233-10.9142463-.7182771-14.6555601,2.5188342,7.4992176,1.2532639,13.2754197-3.7571778,17.1453887ZM329.7457112,185.7893785c-19.9817953.6063571-39.9636088,1.2124964-59.9454041,1.8188535,20.0799386,1.2848105,40.0794494-1.0937516,59.9454041-1.8188535ZM407.0613785,164.2839762c-4.5340831-3.546915-9.735983-3.2161285-14.9890692-2.6759505,5.1808446-.3746759,10.1251435.8915842,14.9890692,2.6759505ZM484.6679361,49.4474083c-.1989365-.6214952-.3455978-1.3815198.4144269-1.6992375.0299131-.0246856.0528561-.0336885.0874159-.0467573,1.1032991-.3836426,2.2312838-.5663157,3.3764031-.1893527.7931324.2488885,1.4773579.7629289,1.935638,1.4427981.1411433.1960324.2175233.4301095.3287535.6508274.4873219,1.5113368.3368852,2.9378715-.6084263,4.2485293-.5398876.7205278-1.2217898,1.3109482-2.0128892,1.7198572-.4643789.2305921-.9487966.1004847-1.1910054-.3595379-.0351406-.0917722-.0862542-.1905144-.1100685-.2869333-.3238164-.810267-.6406628-1.6365071-.9877126-2.4380616-.1963228-.4777381-.4341754-.926144-.6191718-1.4082383-.1954515-.5436631-.4182023-1.0902303-.6133634-1.6338933ZM486.506284,49.2293042c-.0055179.0545986.0052275.1164577.0270089.1739606.5061991,1.3196607,1.0167545,2.6509382,1.5229536,3.970599.0246856.0299131.0493711.0601166.0697004.0787034.2480172-.108326.3656366-.3511157.5442439-.5378547.5918725-.6877105.7309829-1.4915884.572124-2.3520978-.0859638-.533208-.4333041-.9923593-.9299194-1.2232419-.5053278-.2535352-1.0841315-.3212026-1.6472526-.2105533-.0575028.0220718-.1219757.0598262-.1588588.1004847ZM478.7583231,52.4109274c.1370774.4492771.314523.8680603.4289478,1.3269212.1844156.6560549.4643789,1.285101.7167524,1.9124045.2973883.7016506.8892608,1.6254712,1.5723247,1.9768774.8535394.4391125,1.672519.2924512,2.4505496-.1710564.2817057-.1858677.943569-.6400819,1.1384397-.9363086.2875141-.4556663.140272-1.1808408-.5546989-1.3402804-.2497597-.0540178-.5181062.0060988-.726917.1748318-.2137479.1571163-.4385316.3194601-.6476328.4879027-.0760896.0723142-.161763.1219757-.2523735.1603109-.1809306.0769608-.3746396.092353-.5602169.0641824-.4277862-.3795767-.7324349-.8779345-.8965213-1.4224688.2198467-.079865.3763821-.1196523.5398876-.1754127.2535352-.0940955.5282709-.1704755.7771594-.2758974.4414358-.1873198.7640905-.9380511.1931282-1.4035916-.2091012-.1783168-.5027141-.2407568-.767866-.1417241-.247146.0781225-.4849986.1786073-.7225607.2793824-.1762839.0879967-.3717354.1309787-.5654444.1463708-.1759935-.3525678-.4661214-1.2578016-.4971961-1.5514145.142305-.0737662.2959362-.1521792.4542142-.2192658.4414358-.1873198.8732878-.3970018,1.2792926-.6357257.250631-.1330116.4097802-.387418.4222682-.6728992-.0043563-.1051314-.0136497-.2212987-.0389161-.3441457-.051404-.0580837-.0914818-.1213948-.1382391-.1681522-.2503406-.3078434-.561669-.3493732-.9220781-.2233317-.0615687.0127784-.1245894.0528561-.1925473.0816075-.4074569.1725085-.8195604.333981-1.2270173.5064895-.30552.1295266-.5997138.2544064-.9052338.383933-.3897414.1515984-.5587648.4771573-.5895491.8770633-.0151018.1533409-.0142305.3130709.0095838.4635076.0650537.2793824.1460804.5654444.2224604.8398897ZM421.9737047,69.3365057c.7254649.6752225,1.63854.9467636,2.6985668.7425996,1.3158853-.2546968,2.1485146-1.2592537,2.4502592-2.530705.2003886-.860219.190224-1.7459948.1057123-2.6399023-.0566316-.6002946-.1126823-1.1881013-.1446283-1.7895575-.0525657-.5265284-.549181-1.066416-1.1015566-1.0367933-.2822866.0148113-.5076512.1745414-.6031988.4629268-.053437.1504367-.06941.3113284-.0487903.4701872.0296227.7861623.0714429,1.5717438.088868,2.3587774.0333981.8599286-.1449187,2.1371883-.8259496,2.7520038-.2242029.1844156-.4167503.2683465-.5883875.2776399-1.313562.0697004-1.7837492-4.1396224-1.8656471-4.9847397-.0119072-.2207179-.0113263-.4423071-.035431-.6627346-.0595358-.4274957-.4074569-.7167524-.7757073-.6972943-.0981614.0052275-.2073587.0357215-.314523.1030985-.2628286.149275-.358957.4251724-.3801576.7216895-.0371735.4574088-.0618591.9142368-.0493711,1.3812294.0171347.7870336.0836405,1.571163.2236221,2.351517.1350445.9162697.4664118,2.0555807,1.1663199,2.7200578ZM475.6052517,54.3822868c.3583762.9026201.7443421,1.8069826,1.1140446,2.704956.2587627.6377586.5692199,1.2400861.913656,1.8278928.0999039.1713468.206197.3264302.3302056.4606034.2819962.3473403.7820965.4545046,1.1082362.2485981.4103611-.2285592.5674774-.7365008.3778342-1.1500565-.0595358-.108326-.1190715-.2163616-.1736701-.3133613-.2044545-.3537295-.4315616-.6978752-.6180101-1.0725148-.5166542-1.0222724-.8860662-2.1072752-1.4364089-3.1150267-.2172329-.4150077-.3618612-.847731-.5564415-1.272613-.0368831-.1176194-.0850926-.2308825-.1396912-.3275918-.22217-.4263341-.5802558-.4205257-.9807426-.3566337-.4312712.3043584-.5416301.6720279-.3920647,1.1160775.1396912.4213969.2793824.8427939.4530525,1.2496699ZM434.8151305,63.3030656c.2593435-.0060988.5169446-.0241047.7762881-.0302035.0961285-.0238143.1995174.0136497.2584723.0932243.0145209.1219757.0348502.2930321.0551795.463798.2250742,1.7930426.45131,3.5979923.6656387,5.4046845.012488.2088108.0845117.3984539.1806402.5851929.1797689.263119.4243011.4446304.7690277.4286574.3351427.0095838.6458903-.1881911.7698989-.4998099.0990326-.2099724.1216853-.435337.0711525-.6522795-.0278802-.1327212-.0682483-.2639902-.0842213-.3984539-.1925473-1.6234383-.456828-3.2259664-.6845159-4.8328509-.0397873-.2305921-.0566316-.476286-.0911913-.7690277.1219757-.0145209.2059066-.0368831.2912896-.0470478.1861581.0026138.3720258.0055179.5567319-.0040659.2605052.0060988.5140404-.0484999.7481175-.1629247.3473403-.2021311.52072-.6188814.4118131-1.0144311-.1071644-.3833522-.4579897-.6264323-.8529585-.6168485-1.3060111.154793-2.6227676.323526-3.9276171.4905165-.0609878.0072605-.1341733.015973-.193709.035431-.2642807.0685387-.4501484.2761878-.5186871.5317559-.0917722.2709603-.0081317.558184.2009695.7562492.1545025.154793.37493.2401759.5976809.2384334ZM430.1254559,69.9582913c.2822866.165248.6087168.2538256.9299194.2686369.2715411.0058084.5535373-.0136497.8233359-.031946.3792863-.0386256.739405-.174251,1.0437634-.4045527.892165-.6403723,1.2023318-1.6844261.8947788-2.5748486-.2520831-.7957461-.7495696-1.4018491-1.3542205-1.951611-.3694121-.3566337-.7274978-.7260457-.9302098-1.1680624.0212005-.7652522.431852-1.0643831,1.0516047-1.3658373.3673791-.2099724.4367891-.6336927.1678618-.9601229-.14579-.1501463-.3380469-.2599244-.5361122-.2709603-.124299-.0162634-.2485981-.0322364-.3833522-.022943-.7969078.0548891-1.4968159.8050395-1.7805546,1.5145314-.3342715.8729974-.2889662,1.7076596.2570202,2.4830764.2477268.3772534.5419205.7141386.8706741,1.0118173.4347562.4135557.8427939.7919707.9830659,1.3983641-.0127784.1733797-.0999039.339499-.2401759.447825-.1533409.0967093-.3226547.1452091-.4951632.1449187-.4675735.0075509-.844246-.2744453-1.149766-.5985521-.2271071-.2552777-.5445343-.3935168-.8895512-.394388-.1086164.031946-.2050353.0633112-.3127805.1077452-.3438553.1960324-.660992.5997138-.3543103,1.1207242.2430801.4884836.9319523,1.0077515,1.4041725,1.2461849ZM417.0789947,72.4349786c.3444361-.0911913.6615729-.2387238.9357278-.45131,1.0928441-.7219799,1.1366972-2.0433831.8936171-3.1995384-.2032928-1.1030087-.5105554-2.1659397-1.0402783-3.1571373-.2480172-.4556663-.5044566-.8962309-.7937132-1.3153045-.2465651-.3543103-.6563454-.4617651-1.0507334-.3191697-.2788016.0993231-.5427918.2073587-.803297.3273014-.1126823.0554699-.2099724.1193619-.3043584.1951611-.1507271.1036793-.2314634.2776399-.2262359.4414358.0101646.0862542.0084221.1757031.0121976.2384334.3389182.5584744.5096841.6275939,1.313562.5419205.3087147.5410493.5192679,1.0954578.7092015,1.6681627.1646672.4777381.2970979.9766767.3935168,1.4849088.07638.336014.0781225.6787076.1158769,1.0121078.0380448.383933-.1521792.6252706-.4841273.7640905-.1155865.0432723-.2227508.0717333-.3444361.0911913-.2741549.0217814-.5517948-.0188772-.806782-.1167482-.1945803-.0627304-.380448-.1405625-.5782228-.2154904-.209682-.0714429-.4338849-.1010656-.654022-.0682483-.2706699.0336885-.4855794.2305921-.5294326.4966153-.0938051.3171368-.0026138.6618633.2154904.9090093.5578935.6659292,2.1830743.8962309,3.0264491.6726088ZM445.0364025,63.4198138c.0281706.7190757.1289457,1.425373.2076491,2.1479337l.2613765,2.2385442c.0127784.0726046.0116167.1353349.0002904.2122958-.0040659.1879006.0426915.3792863.1553738.5215913.1629247.2831578.4757052.4272053.7925515.3833522.3023254-.0540178.5506331-.2729932.6098784-.570672.0467573-.158278.0528561-.333981.0348502-.5056183-.0127784-.4222682-.0519849-.8523777-.0789938-1.2845201-.0307843-.5939054-.0615687-1.1878108-.1045506-1.7793929l-.0601166-.6885818c-.019458-.1089069-.0290418-.2320442-.0363023-.342984-.0049371-.0990326-.0243951-.2079395.1144248-.270089.2122958.2117149.4370795.4213969.6516987.6455999.2125862.2117149.4272053.4356274.6421149.6598304.2224604.1974844.5044566.3095859.7992312.2819962s.5660253-.1881911.7350487-.4303999c.1292361-.1855773.2465651-.3688312.3473403-.5738666.2079395-.3743492.3897414-.7562492.5834504-1.1404727.035431-.0810267.0589549-.1603109.1820923-.1696043.0792842.2355292.1829635.4667022.2404664.7187853.1539217.5843216.2814153,1.1610924.4356274,1.745414.1289457.5140404.270089,1.0257574.4112323,1.5374745.1603109.6206239.4481154,1.0440538,1.1378589.9212068.4237203-.0755088.6929381-.3856755.6970039-.9235302-.0072605-.1109398-.0243951-.2076491-.0537274-.3023254-.2532448-.7916803-.4681543-1.5772618-.6368873-2.3840438-.0087125-.0482094-.019458-.1089069-.0400777-.1550834-.1498558-.5602169-.3116188-1.1181104-.4733818-1.6762944-.1289457-.51375-.2459843-1.0298233-.3990347-1.5395074-.067377-.2378526-.1568259-.4591513-.2901279-.6476328-.2854812-.4112323-.7315637-.5314655-1.1863587-.3505349-.2189754.101356-.4010677.2712507-.511717.4908069-.3609899.6386298-.7335966,1.2792926-1.0942961,1.9179224-.1129727.2073587-.2236221.4269149-.3444361.6607016-.0920626-.0961285-.1655384-.1579876-.2410472-.2317538-.6453095-.6092976-1.2929423-1.2307927-1.9902366-1.780845-.2753165-.213167-.5497618-.3514061-.917141-.311038-.0363023.0063892-.0824788.0270089-.1286553.047919-.4062952.1722181-.6008755.4815135-.5840312.9278865-.0017425.2003886-.0014521.412394.009003.6104593.0455957.4664118.1010656.9183027.1225565,1.3890707ZM468.1214626,56.3219906c-.2279784-.5840312-.1036793-.9755151.3990347-1.343475.1010656-.0789938.1951611-.1420145.3098763-.186739.6525699-.2546968,1.2914902-.5439535,1.962066-.7527642,1.2862626-.4231395,2.8100874-.0682483,3.5625613,1.1157871.1983557.3052296.2364005.6728992.2198467,1.0356316-.0197484.9972964-.6409532,1.873198-1.4172413,2.4534538-.1010656.0789938-.1977749.1693139-.2828674.2552777.6072647.2378526,1.2307927.4826752,1.8357341.7481175.1112302.0487903.2114245.1019368.3087147.1826731.5032949.4106515.2689273,1.1616732-.1916761,1.3678702-.2657327.1301074-.5761899.14579-.8425035.0386256-.5436631-.2099724-1.0873261-.4196544-1.6312796-.6296269-.1068739-.037464-.2207179-.0589549-.3551816-.0987422.0162634.2442418.1266224.4254628.186739.613073.0377544.1303978.0984518.2517927.1359158.3821905.2032928.5541181.1164577.838728-.3865468,1.2063976-.0615687.0110359-.1507271.019458-.2239125.0348502-.463798.0621495-.7182044-.3528582-.9229493-.7083302-.552666-1.0774519-1.0638022-2.1839456-1.5519954-3.2994423l-.4774477-1.053928c-.0830596-.1786073-.1658288-.3575049-.2445322-.5247859-.1231374-.2817057-.2805441-.5500523-.3923551-.8361143ZM470.0507113,56.2284759c.216652.5880971.4902261,1.1541223.7940036,1.695462.0775417-.0040659.1094877.0098742.1324307.0011617.5703815-.2625381,1.6234383-.9110422,1.7796833-1.5920731.0612783-.2483076-.0081317-.3926455-.2172329-.5221721-.2520831-.1391104-.5213008-.15276-.792842-.1391104-.52072.0185868-.997006.2178137-1.4619657.412394-.0871255.0473382-.1629247.0900297-.2340771.1443379ZM461.0416453,58.2837662c-.1545025-.6075551.0168443-.981033.5610882-1.2842297.1097781-.0662154.2111341-.117329.3302056-.1475325.678998-.1727989,1.3487026-.3813192,2.0398981-.5064895,1.3283733-.2619573,2.797309.2773495,3.3990558,1.5447349.1594396.3273014.1518888.6970039.0909009,1.0550897-.1420145.9874222-.8660274,1.7802642-1.7076596,2.2609064-.1100685.065925-.2169425.1440475-.3121997.2189754.5738666.3104572,1.162254.6299173,1.7303122.9673833.1045506.0621495.197194.1274936.2840291.2195562.4492771.4690256.124299,1.1857779-.3580858,1.3338912-.2796728.0967093-.5898396.0740567-.8410514-.0650537-.51375-.2750261-1.0277904-.5500523-1.5415403-.8250784-.1016464-.0502424-.2120054-.0856734-.3403702-.1417241-.0139401.2445322.0731854.4379508.1097781.6316598.021491.1338828.0667962.2619573.0882872.3961306.1335924.5747378.012488.8465693-.5317559,1.149766-.0627304.0031946-.1521792.0005808-.2265263.00697-.4681543.0049371-.6697046-.4382412-.8294347-.8163658-.4161694-1.1369876-.7876144-2.29808-1.1352451-3.4652711l-.3447265-1.1044608c-.060407-.1876102-.120814-.3752204-.1780264-.5506331-.0877063-.2947746-.2111341-.5805462-.2869333-.8782249ZM462.9679899,58.4275232c.1425954.6104593.3450169,1.2061072.5799653,1.7802642.0775417.0058084.1074548.0235239.1312691.0174251.5982617-.190224,1.7230518-.7048452,1.9617756-1.3617714.0911913-.2387238.0400777-.3906126-.1513079-.5448247-.2332059-.1690234-.4989386-.2154904-.7701893-.2352388-.5189775-.0455957-1.0161736.0938051-1.5014626.2300113-.092353.0360119-.1727989.0691196-.2500502.1141344ZM455.1806047,66.4028272c.0011617-1.3164661.0914818-2.6881118.3482115-3.9801828.1768647-.8750303.3801576-1.7428002.5976809-2.6009863.1211044-.5880971.4640884-1.3208224,1.1032991-1.4480256.2651519-.0528561.5375643-.0066796.7786115.133302.5419205.3307864,1.0739669,1.2400861,1.3678702,1.7706804.5872258,1.1242092,1.1503469,2.2530652,1.7375727,3.376984.2239125.431852.4501484.8756112.6885818,1.317047-.0098742.1396912-.0197484.2796728-.0415298.4216874-.0772513.3037775-.3185889.5398876-.6273035.6264323s-.6267227-.0005808-.8509256-.2442418c-.1010656-.1303978-.2047449-.2727028-.2840291-.4196544-.0842213-.1086164-.1446283-.22217-.2334963-.3546007-.9670929.1797689-1.8978836.4780285-2.8815303.5108458-.0990326.1951611-.0752183.378415-.0993231.5712528-.0220718.142305-.0148113.3037775-.0487903.4484059-.0943859.4074569-.4126844.6339831-.8297251.616558-.351987-.0049371-.6967135-.3502445-.7251745-.7455038ZM457.0633866,63.8343677c.2578914-.0264281.5038757-.0502424.7330158-.095838.4219778-.0839309.7957461-.2210083,1.1480235-.4039719-.081898-.2846099-.257601-.5378547-.387418-.8128808-.1277841-.2628286-.2889662-.5064895-.4141365-.7574109-.1347541-.2991308-.2886758-.5692199-.4765764-.8201413-.2154904.9955539-.4455017,1.9187937-.6029084,2.8902429Z"/>
  </g>
</svg>