<?xml version="1.0" encoding="UTF-8"?>
<svg id="Layer_2" xmlns="http://www.w3.org/2000/svg" viewBox="0 0 148.0705397 173.1102989">
  <g id="Layer_1-2" data-name="Layer_1">
    <path d="M132.8256456,120.6247209c.0020218.7818957-.4774586,1.2807426-1.2923412,1.2726555-.9107574-.0089384-1.4088594-.5622669-1.3423536-1.4373771.0583123-.768701.5953602-1.1832717,1.301386-1.2130663.9045857.1064093,1.331287.6239843,1.3333088,1.3777879ZM124.1608409,124.5329225c-.6853825.0544816-.9779017.7938136-.9990771,1.4126902-.0279857.8193518.5537541,1.3199012,1.330755,1.2594607.7068771-.0553328.990458-.6703787,1.0222744-1.3582086-.1224771-.7887059-.5888692-1.3748085-1.3539522-1.3139423ZM56.252539,70.0909333c.7374166.0578867.8840487-.5077853,1.0474934-1.0989955-.1098144-.5980204-.5448157-.981094-1.1219799-.9683248-.6895324.0153229-.8006237.6605891-.8534028,1.2066817-.0623559.6435636.4162733.8202031.9278893.8606386ZM82.2630212,16.1550269c.7374166.0583123.8838358-.5077853,1.0472806-1.0989955-.1098144-.5975948-.5448157-.9806683-1.1219799-.9678992-.6893196.0153229-.8006237.6601634-.8534028,1.2062561-.062143.6435636.4164861.8206287.9281021.8606386ZM87.8599387,13.8774417c.5267261.0412868.6316457-.3630686.7482704-.7853008-.0785301-.4273398-.3892453-.700599-.801475-.6916606-.492888.0110666-.5720565.4720318-.6099382.8619155-.0444791.4601139.2975205.5865282.6631429.6150459ZM90.7783208,9.9283789c.3686019.0289433.4420243-.2541055.5237467-.5494977-.0549072-.2987974-.2724079-.4903342-.56099-.4843752-.3447662.0076615-.4005247.3302945-.4269142.6035537-.0310715.3217818.2083495.4103143.4641575.4303193ZM83.777013,10.9639545c.3686019.0289433.4420243-.2536798.5237467-.5490721-.0549072-.299223-.2724079-.4907598-.56099-.4843752-.3447662.0076615-.4003119.3302945-.4269142.603128-.0310715.3222074.2083495.4103143.4641575.4303193ZM49.9011793,71.5491667c.526939.0417125.6316457-.362643.7482704-.7848752-.0783173-.4273398-.3890325-.7010246-.801475-.6920862-.4924623.0110666-.5720565.4720318-.6097254.8619155-.0444791.4601139.2975205.5861026.6629301.6150459ZM52.8197743,67.6001039c.3686019.0289433.4418115-.2541055.5235339-.5494977-.0549072-.299223-.2724079-.4907598-.56099-.4839496-.3447662.0076615-.4000991.3298689-.4264886.603128-.0312843.3217818.2081366.4098887.4639446.4303193ZM45.7810104,67.6022321c-.3445534.0076615-.4000991.3302945-.4264886.603128-.0312843.3217818.2081366.4103143.4639446.4307449.3686019.0289433.4418115-.2541055.5235339-.5499234-.0549072-.2987974-.2724079-.4903342-.56099-.4839496ZM97.407196,68.9127693c-.4926752.0110666-.5720565.4720318-.6097254.8623412-.0446919.4596883.2975205.5861026.6629301.6146203.5267261.0417125.6316457-.362643.7482704-.7848752-.0785301-.4273398-.3892453-.7010246-.801475-.6920862ZM100.3417523,65.4072205c-.3447662.0076615-.4005247.3302945-.4269142.603128-.0310715.3217818.2081366.4103143.4639446.4303193.3688147.0289433.4422371-.2536798.5237467-.5494977-.0549072-.2987974-.272195-.4903342-.5607771-.4839496ZM93.3404445,66.4432217c-.3447662.0076615-.4005247.3298689-.4269142.6027024-.0310715.3222074.2081366.4103143.4639446.4307449.3688147.0289433.4422371-.2541055.5237467-.5494977-.0549072-.299223-.272195-.4907598-.5607771-.4839496ZM83.1787798,63.5897493c-.6895324.0153229-.8006237.6605891-.8534028,1.2066817-.062143.6439892.4162733.8202031.9278893.8606386.7374166.0583123.8840487-.5077853,1.0474934-1.0985699-.1098144-.598446-.5448157-.9815196-1.1219799-.9687505ZM64.0385092,66.9395148c.6701659-.0578867.9581095-.5239595.8787282-1.159436-.0740609-.5916358-.417763-1.0053553-1.0179116-1.1543283-.5607771.3034794-.7578472.8048801-.732309,1.385875.0236229.5303441.2515516.9815196.8714924.9278893ZM89.280716,63.7646862c-.5605643.303905-.7578472.8053058-.7320961,1.3863007.0234101.5303441.2515516.9815196.8712795.9278893.6703787-.0578867.9583224-.5239595.8787282-1.159436-.0738481-.5916358-.417763-1.0053553-1.0179116-1.154754ZM91.5625575,67.8997525c-.5605643.303905-.75806.8053058-.7320961,1.385875.0234101.5303441.2513388.9823709.8712795.9287406.6703787-.0583123.9581095-.5243851.8785154-1.1598616-.0738481-.5916358-.4175502-1.0053553-1.0176988-1.154754ZM71.0276864,126.3627372c-.4926752.0110666-.5720565.4716061-.6099382.8619155-.0442663.4596883.2975205.5861026.6631429.6150459.526939.0412868.6316457-.3630686.7482704-.7853008-.0783173-.4273398-.3890325-.7010246-.801475-.6916606ZM73.9620299,122.8567628c-.3447662.0076615-.4003119.3302945-.4267014.603128-.0312843.3217818.2083495.4103143.4641575.4303193.3686019.029369.4418115-.2536798.5235339-.5494977-.0549072-.2987974-.2724079-.4903342-.56099-.4839496ZM66.960722,123.8923383c-.3447662.0076615-.4003119.3302945-.4267014.6035537-.0310715.3217818.2083495.4103143.4641575.4303193.3686019.0289433.4418115-.2541055.5235339-.5494977-.0549072-.2987974-.2724079-.4903342-.56099-.4843752ZM62.9014192,121.2142285c-.5607771.303905-.75806.8053058-.732309,1.385875.0236229.5303441.2513388.9823709.8714924.9287406.6701659-.0583123.9581095-.5243851.8785154-1.1598616-.0740609-.5916358-.4175502-1.0053553-1.0176988-1.154754ZM65.1830479,125.3497204c-.5607771.3034794-.75806.8048801-.732309,1.385875.0236229.5303441.2515516.9819452.8714924.9283149.6701659-.0583123.9581095-.5243851.8787282-1.1598616-.0740609-.5916358-.417763-1.0053553-1.0179116-1.1543283ZM18.2942053,123.7314475c-.492888.0110666-.5720565.4720318-.6099382.8623412-.0444791.4596883.2975205.5861026.6631429.6146203.5265133.0417125.6314329-.362643.7482704-.7848752-.0785301-.4273398-.3892453-.7010246-.801475-.6920862ZM21.2285488,120.2258987c-.3447662.0076615-.4005247.3302945-.4269142.603128-.0310715.3217818.2081366.4103143.4639446.4303193.3688147.0289433.4422371-.2536798.5237467-.5494977-.0546944-.2987974-.272195-.4903342-.5607771-.4839496ZM14.227241,121.2618999c-.3447662.0076615-.4005247.3298689-.4269142.603128-.0310715.3217818.2083495.4098887.4641575.4303193.3686019.0289433.4420243-.2541055.5237467-.5494977-.0549072-.299223-.2724079-.4907598-.56099-.4839496ZM10.1675125,118.58379c-.5605643.3034794-.7578472.8048801-.7320961,1.385875.0234101.5303441.2515516.9815196.8714924.9278893.6701659-.0578867.9581095-.5239595.8787282-1.159436-.0740609-.5916358-.417763-1.0053553-1.0181244-1.1543283ZM12.449354,122.7184307c-.5605643.303905-.75806.8053058-.7320961,1.385875.0234101.5303441.2513388.9823709.8712795.9287406.6703787-.0583123.9581095-.5243851.8787282-1.1598616-.0740609-.5916358-.417763-1.0053553-1.0179116-1.154754ZM56.300636,64.6210685c.6703787-.0578867.9581095-.5239595.8785154-1.1598616-.0740609-.5916358-.4175502-1.0049296-1.0176988-1.1543283-.5607771.303905-.75806.8053058-.732309,1.385875.0236229.5303441.2513388.9819452.8714924.9283149ZM136.2212735,122.0816773c-.6895324.0153229-.8007302.6605891-.8535092,1.2066817-.0622495.6439892.4163797.8202031.9279957.8606386.7373102.0583123.8839422-.5077853,1.0472806-1.0985699-.1098144-.598446-.5447093-.9815196-1.1217671-.9687505ZM129.8911957,124.1306952c-.4926752.0106409-.5720565.4716061-.6098318.8614899-.0444791.4601139.2975205.5865282.6630365.6154715.5268326.0412868.6316457-.3630686.7482704-.7853008-.0784237-.4273398-.3891389-.7010246-.801475-.6916606ZM140.202472,118.1658142c-.3447662.0076615-.4003119.3302945-.4267014.6035537-.0311779.3217818.2081366.4098887.4639446.4303193.3687083.0289433.4420243-.2541055.5236403-.5494977-.0549072-.299223-.2723015-.4907598-.5608835-.4843752ZM125.8243378,121.6602964c-.3447662.0076615-.4003119.3302945-.4268078.6035537-.0310715.3217818.208243.4103143.4640511.4303193.3686019.0289433.4420243-.2541055.5236403-.5494977-.0549072-.299223-.2723015-.4907598-.5608835-.4843752ZM136.3437507,118.6791328c.6702723-.0578867.9581095-.5239595.8786218-1.159436-.0740609-.5916358-.4176566-1.0053553-1.0179116-1.1543283-.5605643.3034794-.7579536.8048801-.7322026,1.385875.0235165.5303441.2514452.9815196.8714924.9278893ZM23.1945674,125.2194754c-.7044297.1098144-.8382926.8427618-.8244594,1.4769614.014046.6384559.4433012.9713043,1.0600497,1.1190004.6814453-.2226083.944702-.7801932.9195894-1.4297157-.0268151-.6869786-.4462807-1.2764862-1.1551796-1.1662462ZM67.8283837,51.1696531c2.9592433.9738581,5.9357249,1.2854246,8.9032681.0583123.5394953-.2230339,1.1905075-.4533037,1.1892306-1.5761349-3.3323144,1.0368524-6.5360863,1.7646922-9.7990217.4367039-.3388073-.1379065-.7414602-.1630191-.897669.2060084-.217075.511616.2160109.7469934.6041921.8751103ZM86.1137617,166.5275747c-5.3255738,1.0206782-10.5968789,1.047919-15.8571173-.3703044-.4735215-.1276912-1.2013613-.6341996-1.4824947-.0008513-.3292304.7410345.5180006.9938631,1.0294038,1.3028758.2336749.1408859.5005495.2460184.7661471.3111409,5.7005603,1.3969416,11.3989923,1.3296909,17.0689067-.139609,1.0700522-.2775155,2.0541256-.8393567,2.0737049-2.1962884-1.3543779-.1723831-2.3416436.8521259-3.5985505,1.0930366ZM44.3572536,110.0872184c2.8224009,1.3841725,5.7390804,1.3399062,8.6919391.492888.3345509-.0957684.6967682-.2821975.5360902-.7176245-.1734472-.4694779-.6505866-.5218313-1.0536651-.4562832-2.9432819.4767138-5.8716664.700599-8.7340772-.623133-.0638456.7652959.1894086,1.1224055.559713,1.3041527ZM124.0621994,133.0094892c-.2478273,8.0913649.1861099,16.1316534,1.3092603,24.1540651.2609157,1.8638657,1.0579215,2.395061,2.7183326,2.6478896,3.7787015.5754616,7.5563389,1.2296661,11.1953249,2.4435837,1.6719033.5580105,3.987583.8785154,3.9935419,3.0565014.0062782,2.289503-2.3202553,2.7010943-4.1013345,3.1995155-10.1885863,2.8500673-20.4949677,2.6317154-30.8378475,1.0428114-1.3752341-.2111161-2.7276966-.5831231-3.9592781-1.2607377-1.8472658-1.0164219-1.9189857-2.2669442-.1668498-3.4680927.5584361-.3822223,1.2313687-.6869786,1.8932347-.8146698,4.4723839-.8657463,8.5163638-2.9943584,12.839881-4.2882957.9870529-.2953923,1.1825268-.8980947,1.2091291-1.8485428.2338877-8.3680292-.3549815-16.6968997-1.0821828-25.0215139-.0887454-1.0151449-.2448479-1.6940364-1.5867758-1.9489932-8.2737505-1.5710272-15.1235315-5.4324088-19.6867889-12.7720982-.0617174-.0991735-.226439-.1345014-.5286415-.3030538-1.805979,9.4036047-8.7504643,12.7874212-16.8773699,14.6236205-1.7804408.4022272-2.1230788.903628-1.980916,2.6653407.627815,7.7678806,1.1330465,15.5481047,1.5118637,23.3325851.1013017,2.0805151.8572335,3.2454844,2.8217624,3.7162392,2.4997678.5992973,4.9980459,1.2049792,7.4933445,1.8217276,2.1730912.5371543,4.2876573,1.2220047,6.0497957,2.6806637,1.9477163,1.6123141,1.7691614,3.0884242-.5865282,4.0137597-3.2076026,1.2598864-6.6237675,1.545489-10.0173737,1.8523735-7.9941068.7223065-15.978424,1.1164466-23.8548421-1.0100373-1.1415592-.3081614-2.2767339-.6150459-3.3261426-1.188805-.9770504-.5337492-1.7500077-1.2539275-1.7112747-2.4171942.0393714-1.1815691.9085228-1.830666,1.922178-2.246088,2.0709382-.8482951,4.2642472-1.2449891,6.4411691-1.705103,2.5176446-.5320466,5.0123048-1.1249594,7.3560765-2.2558777,1.8185353-.8776641,2.6681074-2.1141404,2.5714877-4.2521166-.2768771-6.124495-.8627668-12.2157903-1.5801784-18.2994241-.1791933-1.5199508-.3939273-3.0377734-.5118288-4.5624061-.0693789-.9014998-.3683891-1.3599111-1.3486318-1.4471668-7.5476133-.6725069-12.9104304-5.0591249-17.6175532-10.500472-1.088993-1.2586095-2.0356104-2.6406538-3.1518442-4.1022922-1.0247218,1.230943-1.9892159,2.3946354-2.9596689,3.5532201-4.1380458,4.9399464-9.2569727,8.1518054-15.7543259,8.9273166-1.3958775.1664242-2.397402.7184757-2.3814407,2.3299385.0819352,8.3471729-.2611285,16.7037099.7829598,25.0274728.1851522,1.4769614.8655334,1.9460137,2.134571,2.2856723,3.4225495.9168227,6.8206248,1.92686,10.2127412,2.9517946.8580848.2592131,1.6955262.6456918,2.4761449,1.0900571,1.7436232.9925862,1.7283002,2.3103592-.061079,3.227182-3.2801738,1.6808417-6.8774474,2.2226779-10.4740825,2.5768082-7.4371604.7320961-14.8704901.9661967-22.1816619-1.0823956-1.3437369-.376689-2.6700227-.8099878-3.8354176-1.5940117-1.6106115-1.0832469-1.5827323-1.9770852.1651473-2.8679441,2.8683697-1.4616385,6.0091473-2.159258,9.0760768-3.0556501.8001981-.2336749,1.6176345-.4081862,2.4233659-.6239843,4.1325125-1.1079339,4.1912504-1.1092108,4.2299834-5.5000851.0625687-7.1647525.4003119-14.3312076-.2856026-21.4934064-.1947291-2.0315668-.9613018-2.9300871-3.0322401-3.2991147-7.3337305-1.3067065-13.253494-5.2221439-18.2941036-10.5489947-1.5874143-1.6774366-2.9162539-3.5779071-3.0945959-6.0095729-.1468449-1.9987927.4435141-3.4127598,2.6119232-4.1218715,5.2142697-1.7046774,10.6136915-2.212037,16.0103468-2.6976892,5.0567839-.4550063,10.153152-.5031033,15.1984436-1.0440883,4.0682412-.4362782,7.9787839-1.8634401,12.057666-2.3891021,1.1498591-.1481218.7010246-1.2207278.6948529-1.8847219-.0708686-7.6040102-1.1794409-15.0973548-2.2158677-22.6166632-.5346004-3.8805352-2.0260335-5.7495085-5.950835-6.6288752-5.056571-1.1330465-9.5753494-3.7243263-13.2547709-7.5342057-1.6657315-1.7246823-2.9343435-3.7013419-3.7004906-5.9831834-.780406-2.3261078-.4279783-3.3148632,1.7838459-4.3781052,3.6106812-1.7361745,7.5163289-2.4755065,11.4264459-3.1360956,5.9821193-1.0100373,12.0508558-1.0764367,18.0723466-1.6174217,5.5552051-.4988469,11.0655055-1.6761597,16.1993297-4.1512405,1.5033509-.7248603,1.6833955-1.942183,1.7791639-3.2403767.3437021-4.6649847.32391-9.3184772-.7516755-13.9123805-.5388568-2.3005696-.5371543-4.9267517-1.7161696-6.8238171-1.2445634-2.0034747-4.2419013-1.4939869-6.3871132-2.3673946-4.2074246-1.7136157-8.3126963-3.5821635-11.8152656-6.5275735-2.3078054-1.9409061-3.9588525-4.3048956-4.0184417-7.477596-.0461816-2.4691219.6273894-3.4059496,3.0454348-4.0184417C52.6701628.9844625,63.2385239.1016908,64.8184895.0131582c1.3450138-.0732096,9.4814963.1821728,10.8188487.1991983,1.0938878.0136204,11.5718011.5380055,13.3905492.7065579,2.9064643.2694284,5.8414462.2477209,8.7087518.8874538,2.7117352.6052562,3.2742149,1.4390797,2.5808517,4.1350663-.7959417,3.0965113-2.4340069,5.7537649-4.6443413,8.0453961-4.7218073,4.8948289-10.696478,7.2149777-17.289174,7.8742899-2.4014456.2404851-3.1563133,1.0368524-3.2076026,3.3459348-.1296066,5.8448513-.3460431,11.6820411.0887454,17.5256155.1491859,2.0039004,1.1519873,3.1501416,2.9592433,3.8456329,3.7954077,1.4612128,7.9104691,1.6714776,11.7214126,2.8666672,6.6780363,2.0937098,13.4695049.3745608,20.1558412,1.2641428,3.4453211.4579857,6.9395904.579718,10.2706279,1.6719033,4.038021,1.323732,5.3500479,3.8294587,4.1825249,7.9087665-.812648,2.8390007-2.5444597,5.0791298-4.7671377,6.9570415-5.328234,4.5019656-11.6516081,6.6978284-18.423923,7.699353-1.7463898.2583618-2.2775852.8010494-2.1769219,2.5993669.4475576,7.9909145.7576344,15.9903418,1.0647317,23.9889178.0468201,1.2160457.265172,1.811938,1.6999953,1.9575059,4.1397483.420104,8.343555.6725069,12.1532216,2.6589562.6028088.3141203,1.228602.0225588,1.8450313-.0144717,7.872481-.4754369,15.7228288-.3643455,23.509331,1.0360012,2.0575307.3698788,3.9918393,1.1513489,5.905611,2.0107106,1.915155.860213,2.6594882,2.3303642,2.7032224,4.2963828.0675699,3.0326657-1.1817819,5.5452026-3.1845118,7.7061632-5.1408472,5.5469052-11.7804698,8.2428918-18.9969372,9.6934637-1.4185427.285177-1.7835267.7972186-1.8242814,2.1303146ZM111.2920165,112.1447491c-1.2366892.4647959-2.5624429.6933631-3.8480804,1.0279141,12.0916106.3366791,24.1272499.4218066,35.8608996-3.1186444-8.6411819-2.9024207-17.4849672-3.086296-26.3911083-2.554675-.3873299.0229844-.9035216-.0161742-.9563006.56099-.2597452,2.8441084-2.6272462,3.3182683-4.6654104,4.0844155ZM121.2759777,55.9240217c-2.3036554.801475-4.7142522,1.1930613-7.1200606,1.5152688-11.8932636,1.5931604-23.8140873,1.9153678-35.7634286.6648455-1.0147193-.1064093-2.2656673-.4550063-2.9147642.4903342-.5956794.8674488.1430141,1.860035.6009999,2.7079045,4.4202433,8.1837282,11.4717763,12.1272577,20.1373259,12.7891237,2.6021336-.1187528,4.7411738-.3439149,6.8553142-.7870034,6.7259205-1.4097107,12.8875524-3.9307604,17.6404312-9.128643,1.796083-1.9643161,2.8675184-4.2474345,2.5273278-7.0157795-.1519525-1.2356251-.6920862-1.6782878-1.9631456-1.2360507ZM67.0905414,111.6846352c-.7567831.3413611-1.5484685.6158972-2.3427077.8606386-1.6467907.5077853-3.305712.9755607-4.9597386,1.4595103,8.9298704.3175254,17.7971721.3622173,26.6268049-.6793171-.9315072-.424786-1.8702503-.6546302-2.7860089-.9551301-.9208663-.3022025-1.8462018-.6158972-2.721312-1.0274884-2.357605-1.1096364-2.6402281-1.9426086-1.6033757-4.1720967h-12.3275201c2.9439203,2.2205498,2.8483648,3.2803866.113858,4.5138835ZM81.6358446,106.049623c4.6577489-.8223312,9.2874057-1.6965902,14.0190027-1.9251575.9080972-.0438406,1.3247961-.2770899,1.2413712-1.3769366-.657184-8.6685291-1.7046774-17.2927919-2.7806884-25.9153522-.1481218-1.1866768-.5809949-1.7527744-1.8579068-2.0187977-3.6430296-.7589113-6.9612979-2.3346205-9.99822-4.5032426-3.2757046-2.3388769-5.7405702-5.3655837-7.6725378-9.3184772-1.403539,3.8247767-2.4908294,5.4668854-5.2353387,7.7363834-5.209162,4.3070238-11.408782,5.8976303-17.9818987,6.2777244-1.6016731.0923633-2.104138.5009751-2.0115618,2.1920321.4562832,8.3327013.9095869,16.6692333.7503985,25.0210882-.0165999.883623.1451423,1.3675726,1.1645436,1.5663452,7.7146759,1.502074,15.4140289,2.9862712,23.3547182,2.1579811,2.3284488-.2430389,4.8020399.4962931,7.008118.1064093ZM97.6721552,91.3532186c.0502252.0234101.1004504.0468201.1506756.0698045,0-5.051889.0229844-10.103778-.0153229-15.1556671-.0104281-1.3794905-1.1700769-.8619155-1.8934475-.9227817-1.0232321-.0855531-.8225441.6222817-.7148578,1.2594607.8295671,4.9156851,1.6497701,9.8326471,2.4729527,14.7491835ZM94.9391382,51.8719546c-1.4509975.0106409-2.6349077.2528286-3.7426287,1.3382036-1.9332446,1.8949372-4.3957691,2.8747543-7.028123,3.433616-.6233458.1323732-1.2326456.3294433-1.8485428.4967187,13.1253772.4537294,26.184355.7278398,39.4713679-2.3725023-1.5483621-1.0257859-2.7697283-1.2671222-3.9831138-1.5237815-7.5548491-1.5978424-15.2130217-1.4263106-22.8689597-1.3722546ZM50.8646094,3.053911c2.5968131.7925366,5.2849254.8521259,7.9357945,1.1083595,7.0349332.6788915,14.0707176,1.4241824,21.1484273.9555557.186642.0595892.3803069.0991735.5856769.102153.3588122.0323484.698258-.0251126,1.0179116-.1723831.0497996-.0136204.0923633-.0408612.1404603-.0578867.0361792-.0034051.0719327-.0042564.1078991-.0076615-.0253254-.0017025-.050438-.0038307-.0755506-.0051076.0544816-.0204306.1085375-.0412868.1606781-.0659738-.0010641.024687-.0123435.0383074-.0108538.0659738,5.4460292-.4056323,10.9410066-.3094383,16.3331926-1.477387-4.7169125-1.198169-9.4876681-1.5110124-14.5633928-1.7072312,0,0-6.9910925-.2587875-8.0236886-.2724079-1.3560804-.0170255-2.7121608-.0919377-4.0690925-.1668498-.8955409-.0510765-1.7910817-.1004504-2.6866226-.1327988-1.3007476-.0476714-14.7287529.9019254-18.0008396,1.8336455ZM73.7979467,20.8932212c6.5030994.2038803,12.555236-1.2109381,17.9550835-4.9940024,3.479372-2.4376248,5.8846484-5.6733195,7.2564774-9.6811202.2626182-.767424.5354517-1.6242319-.8861768-1.2645684-3.1333289.7925366-6.3577442.6686762-9.5436394.9087356-13.5173891,1.0189757-26.9762531.604405-40.3240258-1.9068551-1.2592479-.2366543-1.3607624.1519525-1.3748085,1.1866768-.0497996,3.6851677,1.9962389,6.1083208,4.7777786,8.0794471,6.6318547,4.6990357,13.965798,7.4022582,22.1393109,7.6716866ZM60.0483724,53.7851943c6.3343342,2.6581049,12.9666145,2.8479391,19.6791274,2.193309,3.2861327-.3205049,6.4226539-1.1832717,9.3016646-2.8309136.9708787-.5558823,1.9864492-1.1275132,2.6815149-2.613413-5.2029903-.1327988-9.9186258-1.2237072-14.5223188-2.8283598-.3162485-.1102401-.5861026-.1728087-.9187381.144291-2.2556648,2.1503196-2.9475383,1.9643161-4.3432029-1.1181492,1.1068698-.4686267,2.1454248.6452661,3.3912651.0591636-1.1036775-1.892809-1.5910322-3.816264-1.7410693-5.8580461-.4186143-5.6963039-.5367286-11.3883514-.0127691-17.0850809.0512893-.5575849.4505371-1.3548035-.4105272-1.6148679-1.0640932-.3209305-2.3437718-.6567583-3.2574022-.1706806-.9100125.4839496-.0349023,1.604227.0470329,2.4414555.0470329.478842.2117546.9474686.3322099,1.4182235,1.4744076,5.7652571,2.1243557,11.6156417,1.7953381,17.5634972-.0732096,1.3271371-.1408859,2.767068-1.5159072,3.448939-3.1741901,1.5744323-6.394349,3.0505425-9.995879,3.4119085-1.2111509.1213066-3.0801243-.096194-3.2974121,1.125385-.258149,1.4522744,1.6331703,1.8289634,2.787073,2.3133387ZM23.1349782,56.861275c15.1726926,2.5878747,30.0078548,2.8407033,45.4001762.7610395-.7265629-.3153972-.9038408-.435427-1.0964417-.4694779-4.4442918-.7925366-8.9990365-1.3177731-12.1557754-5.1497856-.3130562-.3800941-.7576344-.2932641-1.1602873-.2787924-8.7598283.3166741-17.5058234.8070083-26.0494279,2.9615843-1.6074192.4052067-3.3267811.7631677-4.9382439,2.1754322ZM49.0167051,73.7692908c5.3128047-.0276664,9.8196652-.8997972,14.0462435-2.7581297,4.489835-1.9736801,8.3316372-4.7943785,9.8869158-9.7981705.9172484-2.951369.5992973-3.2688944-2.4391145-2.7874986-15.6506832,2.4793372-31.2879589,2.2592827-46.8988451-.3383816-1.3075578-.2175007-1.5199508.043415-1.0536651,1.1964664,1.0391934,2.569998,2.6202232,4.7671377,4.777353,6.4730919,6.5390657,5.1719187,14.0436896,7.7172298,21.6811124,8.012622ZM48.2037378,96.6949666c0-4.7594762-.0008513-9.5189524.0002128-14.2784286.0004256-1.9413317.0197921-3.883089-.0025538-5.8244207-.0065974-.5724822.2615541-1.3679983-.6582481-1.4965407-.9393815-.1319476-1.9736801-.3775403-2.8185702-.1081119-.5248108.1672755.059802,1.1202774.1962188,1.6855237,1.593586,6.6016344,2.9292358,13.2458325,3.2829404,20.0219782ZM35.9343172,108.5200219c-.0274536.9095869.9793914,1.2526506,1.739154,1.5854989,3.5347049,1.5476172,7.2762695,2.3405795,11.0852976,2.6619356,6.6646287.5622669,13.1511282-.1638704,19.5861257-3.3753037-.9044792-.4456422-1.3773623-.7274141-1.8842963-.9202278-4.8356653-1.8391787-10.0326966-2.1022226-14.9888173-3.4216982-1.0513241-.2796437-1.5084586.2421876-1.6987184,1.2471173-.2000495,1.0568574-.9830093,1.4463155-2.0049645,1.4092851-.9859888-.0353279-1.5729426-.6597378-1.5588966-1.536125.0217075-1.351824-.9180996-.6427123-1.2620146-.5741847-2.3793125.4737343-4.7490481,1.0117398-7.0923942,1.6391292-.7435883.1991983-1.8906809.2932641-1.9204755,1.2845733ZM2.485185,112.0800522c13.8046943,3.0624603,27.305058,1.4454642,40.7343402,1.560812-1.328414-.3549815-2.7100326-.579718-3.9733241-1.0943135-2.0943483-.8538284-4.3493747-1.5880527-5.0361404-4.2031683-.2168622-.826162-.9949272-.5980204-1.5925219-.5546054-7.9753788.5822718-15.9554395,1.1377285-23.8601625,2.3946354-1.9792134.3149716-4.0505773.4843752-6.2721911,1.8966398ZM38.9154808,166.0832093c-5.6237327,1.5348481-11.3553645,2.029013-17.144883,1.5450634-2.4078302-.2009008-4.955695-.4745856-6.9023472-2.0498692-1.2890425-1.0436626-2.3801637-1.125385-3.7196443-.4647959-.6495225.3200792-1.7519231.3064589-1.714467,1.2113637.0306459.7372038,1.0498344.7665728,1.6857365.9802427,4.9963434,1.6782878,10.155493,2.236724,15.3978547,2.1920321,5.8688998-.0021282,11.643521-.6869786,17.2640614-2.4333684.5522644-.1711062,1.3914083-.2549567,1.3094731-1.0513241-.0602277-.5865282-.8272261-.6078101-1.3005347-.8683001-1.9098345-1.0491959-3.2788969.5031033-4.8752495.9389559ZM28.7655211,165.1851146c-1.6631777.0617174-3.1886618-.2358031-3.8732994-2.0983919-.2292057-.6239843-.799134-.9219304-1.4775999-.9602377-1.2228559-.0685276-7.2605209,1.5395301-8.6317115,2.4031482,8.4231492,2.4908294,16.5383498,1.980916,24.63993-.0855531-.0134076-.221757-.0268151-.4430884-.0402227-.6648455-2.2752441-.550349-4.5507011-1.1002724-6.8257324-1.6510471-.4724574-.1144964-.9178868-.3264638-1.022168.4899085-.2028162,1.5897553-1.1690128,2.5078549-2.7691962,2.5670185ZM29.6259469,161.0917608c-.3894581-.680594-.6003614-1.385875-.7061323-2.1520222-.9913093-7.1881626-.7891315-14.4120787-.6380303-21.6325898.0306459-1.4518488.1034299-2.9109334.6522892-4.3019161.495229-1.25563-.0027666-1.6880775-1.1775256-1.3739572-2.5938337.1519525-2.561698.1438654-1.9332446,2.6155412.2549567,1.0023758.440109,2.0451872.4779907,3.0760807.2749617,7.5001547.2621926,14.9994582-.1962188,22.4940796-.0170255.2766642.0440535.6256868-.0983222.8163723-1.4871767,1.9979415.5567336,2.5180702,1.5214405,3.1233265,1.0715419.6725069,2.0400795-.2115417,2.8349572-1.0853751,1.0662214-1.1722051-.4545806-1.0853751-.7372038-1.57954ZM51.045718,114.672609c-8.0615703.3188023-15.965442,1.134749-23.9012365.8440388-1.216897-.0442663-3.5834404.0068102-4.2716959-.0476714-6.8868114-.5465183-13.920042.1706806-20.5625376-2.4908294-1.5940117-.6384559-1.3735315.7376294-1.23222,1.5250584.3290176,1.8332198,1.3850237,3.3655141,2.6310769,4.6688155,7.592518,7.9389868,16.5807007,12.2191954,27.8498737,10.5319692,8.9228474-1.3356498,14.951574-6.5607732,19.307546-14.1051942.120881-.2089879.1013017-.4992725.1791933-.9261867ZM77.9421642,165.4877428c-1.6774366.0740609-2.5395649-.75806-2.6549126-2.4857218-.0666122-.9947144-.7599754-.7231578-1.3784264-.4286168-3.9277809,1.8702503-8.1811744,2.59809-12.3711479,3.5685431-1.2158329.2817719-3.1854695.2489978-3.2584663,1.6574316-.0857659,1.6557291,1.9113243,1.6761597,3.1899387,2.0307155,9.5972697,2.6606587,19.2796668,1.8613119,28.960787.6154715,1.5752836-.2026034,3.129711-.6022768,4.6764769-.9819452,1.5078201-.3707301,1.4367387-1.2237072.3375304-1.9579315-1.7204259-1.1496463-3.5727994-2.0698742-5.7229062-2.115843.0002128.0004256.0525662.0510765.0491611.0472457h-.0004256l.0038307.0038307c-.0025538-.0012769-.0055333-.0021282-.0080871-.0038307-.0183024-.0025538-.0349023,0-.0532047-.0025538.0002128-.0076615.0040436-.0127691.0040436-.0204306-2.8400648-1.5535761-6.2877269-1.284999-9.1505633-3.3991394-.0670379,2.0762587-.6976195,3.3876472-2.6236283,3.4727747ZM77.1211098,136.7027439c0-.6248355.004682-1.2500967-.0012769-1.8749323-.0072358-.7742342.6814453-1.8872758-1.0387678-1.7459642-1.2381789.102153-1.8347095.2885821-1.6550906,1.8289634.6835735,5.8588973,1.5878399,11.6982153,1.8566299,17.5996764.1381193,3.0275581.8006237,6.0606494-.1728087,9.085228-.2856026.8874538.2175007,1.550171,1.0821828,1.9890031.5071468.2575106.9996092.6861273,1.5188867.3328484.8259492-.56099.2917744-1.3748085.1919624-2.0860484-1.1688-8.3356807-1.0811187-16.7620222-1.7817177-25.1287745ZM93.4872894,114.66665c-.9525763.2587875-1.8387531-.1579114-3.1482262-.0625687-11.9452978.8670232-23.8940007,1.5969911-35.8631342.4392577-1.5180354-.1464192-2.0222028.9674736-2.6695971,1.9396291-.7401833,1.111339.4690523,1.4050287.8887307,2.004326.5571592.796793,1.1802922,1.5514479,1.8178969,2.2869492,9.3912612,10.8350229,17.3127969,12.2813384,28.0946151,9.2010014,6.9421442-1.9830441,12.2038725-5.6720426,13.5484607-13.3684161.4139323-2.3699484-.3300817-3.0756551-2.6687458-2.4401786ZM102.4384416,112.4648283c3.41957-.6197279,6.8557399-1.1670975,10.0314197-2.6819406.6814453-.3251869,1.5995449-.6384559,1.6296588-1.4548283.0353279-.9593865-1.0307871-.9542788-1.6916954-1.2164714-3.054054-1.2109381-6.2608053-1.8383275-9.4890514-2.3448358-2.753022-.4315962-2.8192086-.3651968-2.9139129,2.5095575-.0397971,1.2062561-.2275031,2.081792-1.6527496,1.1432618-.9872657-.6503738-1.0753726.1076862-1.439931.6699531,2.3084439.9381046,4.2148733-.9942887,6.6014216-.6086613-1.3692752,1.8344967-3.1658902,1.9575059-4.9290927,2.0941355-1.6885031.1310963-3.3469988.0017025-4.7743735-1.0657958-.2764514-.2068597-.5548182-.502252-.3722198-.8819205.1779164-.3694532.5371543-.4103143.8829846-.2187776,1.234561.6839991,1.8355608-.5844,2.7183326-.9295918.6535661-.255808.2064341-.9666223.1317347-1.4944125-.1027914-.7282654-.5541798-.874259-1.1856127-.8129672-4.352567.4218066-8.7642975.4524524-12.9774682,1.8221532-1.0906956.3545559-2.8519827.511616-2.8894388,1.6540265-.0489483,1.4871767,1.7614999,1.7987432,2.974779,2.1469145,6.3305035,1.8174712,12.7423036,2.8670928,19.3452149,1.6702007ZM123.6391159,163.5983388c-1.3101116.0936402-2.2846082-.4979956-2.8386815-1.6991441-.2459119-.5328979-.4630934-1.0491959-1.1972113-.792111-2.4591195.8614899-5.0659351,1.3548035-7.5394198,2.9088053,1.1233632,1.0074835,2.2368304,1.1326208,3.3367836,1.2530762,5.8490013.641861,11.6555452.144291,17.4477239-.6848504.460646-.0655481,1.0424921-.3737095,1.1898691.3345509.0922569.4426628-.3641327.7103886-.7578472.8593617-.4513883.1706806-.9146945.3417867-1.3881096.4175502-5.3785656.8593617-10.7794773,1.106657-16.1963503.4371295-1.0232321-.1264143-2.3479217-.1570602-2.965415-.7878546-1.9236677-1.9647417-3.9393796-.9491712-5.946685-.5516259-.7742342.1532294-2.0241181.183024-2.0690229,1.0487703-.0553328,1.061965,1.289681.9815196,2.0519974,1.351824.2438902.1183272.5371543.134927.8072211.2000495,4.9125992,1.1811435,9.9205412,1.1853999,14.9253973,1.1858255,5.9299788.0004256,11.8115413-.3715814,17.4150562-2.579362.6922991-.2724079,1.6979736-.4945905,1.6468971-1.3420344-.0507572-.8406337-1.0849495-.9198022-1.7911881-1.1526258-4.0334454-1.3309678-8.2422534-1.9264344-12.3549737-2.9262564-.5622669-.1366296-1.2479685-.4643703-1.418117.5758873-.2128186,1.3007476-1.1460284,1.8570555-2.3579242,1.9430342ZM122.6528079,132.7651733c.0455432-1.033873-.1890894-1.550171-1.351292-1.477387-1.2735068.0795942-.9648133.8712795-.8846871,1.6246575.6329227,5.9478555,1.1126159,11.9072033,1.2988322,19.0183255,0,1.931542-.0248998,4.9922998.0170255,8.0522063.0108538.7938136-.4252117,1.9919825,1.1421977,1.894086,1.3819379-.0859787,1.4929228-1.029191,1.3371396-2.0826433-1.3251153-8.9639214-1.9582508-17.9678527-1.5592158-27.029245ZM144.6063282,119.1903232c1.5827323-1.9387779,2.0663626-4.1946555,1.8497133-6.6446238-.0964068-1.0909084-.5142763-1.4412079-1.6405125-1.0274884-1.2956399.4758625-2.646187.854254-4.0046085,1.0989955-9.676651,1.7446873-19.4553486,2.1911808-29.2643728,1.9119627-3.821478,0-7.6430625-.0080871-11.4644341.0029795-2.3050388.0068102-2.4112353.1808958-1.4254593,2.3299385.8521259,1.8579068,2.1215891,3.4140367,3.5766302,4.8297064,11.5129567,11.1997941,32.1830741,9.9820458,42.3730437-2.5014704Z"/>
  </g>
</svg>