<?xml version="1.0" encoding="UTF-8"?>
<svg id="Layer_2" xmlns="http://www.w3.org/2000/svg" viewBox="0 0 152.4738538 214.6221507">
  <g id="Layer_1-2" data-name="Layer_1">
    <path d="M151.5954994,100.2177535c-1.3700867-2.0700538-3.3742943-2.491532-5.5181772-2.0793881-1.590001.3055178-3.1522917.7912589-4.9760219,1.2612035.9852769-3.8816202-1.1324219-6.0762507-3.3228096-8.2109264-.7507445-.7313041-1.5463072-1.4134239-2.3637168-2.0503083-3.5146924-2.7381722-7.3499392-4.8114571-11.3930524-6.3178647-1.8806765-.7007883-2.3544801-1.8506985-2.4330324-3.9336767-.5101079-13.5260751.8182128-26.8539764,3.1800822-40.087817.0929294-.520206.1586306-.9987669.5639218-1.3918832,2.3440386-2.2728947,2.5920646-4.2675564.7088982-6.951518-.7036774-1.002716-1.0103365-1.9562476-.9064837-3.1991415.1632891-1.9548115-.713637-3.2415047-2.2960076-3.9638336-2.2280575-1.0167174-4.5443859-1.4608132-6.9423991-1.1524233-2.1627579.277874-3.6752507,1.7605869-4.0142785,4.0503551-.1560604,1.0540545-.509385,1.834543-1.2122593,2.5464606-.923672.935222-1.2066369,2.1314446-.876123,3.5301491.5160515,2.1842191.5137223,4.3903379.2604755,6.6391789-.5149271,4.5723562-1.8540105,8.9045344-2.9309317,13.3142589-1.9217197,7.8691485-4.000062,15.6804963-6.7115614,23.2667447-.3492283.9768672-.7217493,1.3294154-1.7306401,1.1039569-1.6954602-.3783969-3.4309997-.5848279-5.1585876-.7108406-.9418242-.06893-1.2036651-.4986654-1.3348265-1.4705065-.7204642-5.3384843-1.5709653-10.6557871-2.2565709-15.9996566-1.223263-9.5356747-2.4149605-19.0756575-1.734656-28.7646296.2795112-3.9799891.4515551-7.9743386.5259308-11.965816.03269-1.7534067.2237696-3.3370015,1.1137075-4.8319207,1.0568414-1.7753063.897006-3.6023101-.3195905-5.2067275-.6702646-.8838836-1.0402956-1.7968469-1.2127412-2.9431671-.4363748-2.9004449-2.4833926-4.5289159-5.677611-4.6897526-2.61857-.1317568-4.4469586,1.315055-5.1116812,4.1304144-.1166236.4939983-.25405.8451104-.6488193,1.107547-1.9042101,1.2662296-2.3288582,3.2002185-1.9124026,5.4767033.6762082,3.6970889.3791874,7.401717-.1911599,11.0392102-2.1530393,13.731429-6.0398511,26.8216655-11.9601067,39.1249512-1.9891879,4.1336455-4.0696988,8.2181066-5.563156,12.6224459-.2639292.7779755-.6880955,1.0583626-1.4021341,1.1165223-2.9870749.243409-5.9692504.5568251-8.887331,1.3620854-.5840017.1608367-.9657593-.0032311-1.3566734-.5306173-7.1852043-9.6936393-14.0780464-19.6170452-19.1469977-30.9380785-2.3151236-5.1704675-5.1379456-10.1262468-5.5405863-16.1493639-.1057805-1.5825178-1.3081605-2.3490049-2.624112-2.6584719-.8496176-.1996098-1.5177136-.5658004-2.139385-1.2996176-1.475064-1.7412003-3.3465841-1.8944978-5.2442883-1.0860064-2.1770547.9273238-4.3247126,1.9899945-5.0093544,4.8688988-.0661028.277874-.106905.6045735-.0416857.8727542.2905952,1.1958636.0212043,2.3044876-.314932,3.425677-.6143624,2.0492312-.248026,3.978194,1.223263,5.2857098,2.2602655,2.0086631,3.3328495,4.738578,4.3591696,7.5840943,4.2745934,11.8520097,7.5677652,24.005229,9.1730268,36.6894248.4057731,3.2066807.4207928,3.1959104-2.2676549,4.4883478-3.3167857,1.5943651-6.2114934,3.7649419-7.7161149,7.6149692-.4038455,1.0332319-.9019858,1.3060798-1.8706366,1.3254663-6.244585.1249356-9.4898865,4.8146882-8.1236551,11.6362444,1.4152261,7.0671193,8.0678332,13.5034574,15.1905491,14.4297042,2.5346363.3295715,3.8268133,2.1318036,4.5182018,4.3483337,5.3900679,17.2802466,10.586004,34.6394755,17.0593384,51.468446,2.2882167,5.948443,4.8443785,11.7554359,9.3045095,16.1565441.5875357.5798018.3279437.9581987-.0118873,1.4557871-1.2766753,1.869008-1.2729807,3.874081-.555167,5.9987044.9263225,2.7414033,2.5555996,4.8315617,4.6649452,6.4887536,2.6084497,2.0495903,5.5291809,3.3452587,8.5683028,4.3422305,7.14135,2.3429017,14.4993212,2.6082104,21.8580152,2.7913057,6.7126859.1669398,13.3438477-.4710216,19.7020844-3.1108249,4.3831851-1.8201826,8.5148101-4.115695,11.2769107-8.5860922,2.3007465-3.7240147,3.287951-7.7237493,1.6644569-12.1302427-.250034-.6785296-.1669838-1.1983766.1541327-1.8065402,4.0607031-7.6928744,6.6390331-16.0657145,8.8999412-24.5692343,3.7674573-14.1701397,7.6548313-28.2964801,12.0272536-42.2504955.2654553-.8472645.4044077-1.6729884,1.4467113-2.0592835,5.3569763-1.9860454,9.7884333-5.5829704,13.5906689-10.1879966.8207027-.9940997,1.5597206-2.0668228,2.0472588-3.3230001.830341-2.1393429,1.2239859-4.3260751-.1197561-6.3559198ZM124.1710351,99.0789725c-.4872972-.2940295-.8673682-.5399516-.912106-1.2558183-.2219222-3.5534847-.4832813-7.1033794-.7452025-10.861141,3.2760638,1.315055,6.3004872,2.9769141,9.1988093,4.9417779,1.3485611.9143994,2.6217827,1.9447592,3.7762121,3.149239,1.641325,1.7128385,1.7549768,3.0853352.2777442,5.0189651-2.0517566,2.6861157-4.7806853,4.3526418-7.5375651,5.9308515-.7444796.4265043-1.7119257,1.4435807-2.3346412.8253649-.5836001-.5794428.0031325-1.8880356.2318015-2.8340279.702553-2.906189.5371755-3.4105986-1.9550522-4.9152111ZM125.2261898,102.000599c-.2350946.8713182-.9168449.8070553-1.5247817.8874737-.5871341.0775462-.873874-.1112932-.730745-.864856.160237-.8443924.2354962-1.7092484.3632039-2.6836026.644964-.0107703,1.0199748.4275814,1.4079171.7830016.5279388.483946.6835173,1.139858.4844057,1.8779833ZM123.0738734,103.8010361c.6868907.2179193,1.7562619-1.0059471,2.049829.415734.3554932,1.7221728-.5278585,3.3944431-1.7328087,3.9045969-1.6498388.6986342-3.2832925,1.4561461-5.2490272,1.8043862,1.0965995-2.1224694,2.0701498-3.9810661,3.0157489-5.8572543.2036094-.4038867.3793481-.6419106.8404612-.4699446.3406342.1270897.7278535.0922657,1.0757968.2024819ZM103.8192478,110.7827109c.4375796.4387107,1.16214.9104503.9159613,1.6697573-.2199143.6788886-1.0058387.4979474-1.5547408.5600562-2.5065245.2829002-4.9900777.8425974-7.522947.8095684-.6301049-.0082572-1.265511.0050261-1.8887084-.0811363-2.192958-.3019277-2.5475677-1.001639-1.6415659-3.2382736.6306672-1.557387,1.536187-2.9316788,2.3583354-4.3641302.4873775-.8494186.9102587-.7417154,1.5134567-.2728479,1.2068779.9384531,2.4298196,1.8506985,3.6479422,2.7708421.5003893.3780379,1.0054371.7485366,1.5785956,1.001639-1.1357953-2.1052369-2.9402488-3.2590962-4.7989981-4.3059705-.7521903-.4236322-.9948349-.7905409-.4969355-1.695965.9884897-1.797924,1.8814797-3.6615469,2.7946299-5.5100913.3520395-.7126356.62384-.9380941,1.2370779-.2003278,2.1131206,2.5428705,4.8793174,3.5918988,7.8706493,3.9333177,1.1405341.1303208,1.1765975.4473269.8640751,1.6191368-.6391007,2.3956763-1.7955381,4.4689612-2.8098905,6.64241-.4046487.8673691-.6663289,1.001639-1.3084015.2441271-1.6324095-1.9257317-3.4686695-3.5897448-5.5278958-4.9238274-.2848926-.1848903-.5499463-.6024194-1.0157982-.3019277,1.9436468,1.8876766,3.885607,3.7394521,5.7851585,5.6436432ZM88.7177728,114.4898521c-.310916.103395-.5964512.240896-.8937932.2911574-2.0070188.3389058-2.0181832.3256224-1.7885503-1.8395692.1354183-1.2762819-.0244974-2.7568407.5141239-3.769968.5752469-1.0824163,2.0577003-.3503941,3.0865906-.7532038.7250424-.2843362,1.4623736-.5288223,2.5849965-.9312729-1.2417364,2.3127449-2.1213132,4.2973542-2.8736641,6.4966518-1.3578782-1.2576134-.8337144-3.321923-1.7614023-4.8222274-.4397482,1.7228908-.1054592,3.2066807,1.131699,5.3284321ZM87.8859861,103.3605303c.9900961-.4236322,2.0218779-.554671,2.9178397-.5018965.2102759,0,.2632064-.0064622.3145304.001077.8447984.1238586,2.1474169-.173402,2.3203444.8239288.183128,1.0551315-.6120331,2.1978615-1.5221311,2.8430032-1.4977141,1.0615937-3.2211254,1.2612035-4.9492755,1.4073207-.5894634.0499024-.6752444-.3263404-.7872095-.8145946-.4051306-1.764536.1901961-3.1104659,1.7059017-3.7588387ZM105.8359049,99.1234898c-.8840746-1.0878015-2.0168177-1.6679622-3.3044968-1.8040272-.784318-.0832904-.8793357.1353469-.7244801,1.244689-.7718685-.3252634-1.3486414-.8709592-1.9191495-1.7903848,1.6210845-.2818231,3.070848.0294389,4.4660746.5604152,1.3859096.5270272,2.6843515,1.3024897,3.8696235,2.2804339.3420799.2821822.6617507.656989.4646472,1.1840162-.1841722.4922032-.6369321.345727-.9668035.2943885-.5648857-.0875985-1.1292091-.2398189-1.6698383-.4440958-.4666552-.1766331-.5323564-.3414189.0073894-.6602201.3246506-.1913525-.0272282-.6246781-.2229664-.865215ZM112.2747823,103.4244342c.6150852-.8734723,1.1286469-2.1239054,1.9354543-2.4585031.7843983-.3252634,1.4686385,1.070569,2.3181758,1.4819948.7186168.3478811,1.4386794.6971982,2.175368.9915867.4712334.1881214.9191741.1626317,1.0537893-.5252322.7564472.1094982,1.007927.5281043.5677772,1.2866932-1.2855105,2.2158121-3.3610416,3.7150394-4.4567576,6.1110747-.0795964.17412-.328506.2933115-.5201478.3550613-2.7172021.8770624-5.4905473,1.4119878-8.4756946,1.8270038,1.4664699-3.458347,3.4290721-6.2686802,5.4020355-9.0696792ZM112.2144625,102.2020038c.1978264-1.1876063-.0739741-2.2330446.9124273-2.7510965.2174244-.1141653.6297033-.0585187.6351651.2592055.0187144,1.0892375-.7090588,1.6510887-1.5475924,2.491891ZM115.0575249,99.2656579c1.5544998,1.1675018,3.3634512,1.9461953,4.6224563,3.5707172-1.8181078-.7571529-3.8318734-1.2084289-4.6224563-3.5707172ZM113.3344349,26.0174882c.6636784-2.2624834,1.6214861-2.8584406,4.9455005-2.8300788,1.5886355.0035901,3.1355853.2480762,4.6024568.9747132.7668887.379833,1.307036.9503005,1.4290411,1.9325529.0952587.7672052.2479457,1.6880668-.1914009,2.2082728-.5105898.6049325-1.1309761-.1945836-1.6618867-.4351206-2.6912589-1.2188402-5.4166536-1.8445953-8.2862214-.8881917-.8386942.2793101-1.167923.1644268-.8374894-.9621478ZM106.9629454,60.3816027c1.4168325-6.1257941,3.1875519-12.1582455,4.080301-18.4283618.3827215-2.6879107.2250547-5.3819246-.0329309-8.0755795-.3256948-3.4012643.868573-5.1622102,3.9150842-5.7039569,3.1114092-.552876,6.0773602-.1019589,8.7374552,1.9300398,2.2532778,1.7210958,2.5825066,3.7681729,1.0213403,6.227394-1.8707972,2.9467572-2.1244456,6.4614688-2.7103749,9.8343713-2.0902296,12.0329509-3.1351034,24.1556544-2.2312703,36.42268.0250596.3396238.0031325.6835558.0031325,1.2996176-5.7923873-6.0381956-11.9899051-7.7194412-19.2541437-3.3994693,2.7940676-6.6944665,4.8981925-13.3045657,6.4714067-20.1067353ZM93.0294737,77.5031667c2.0805109.0089753,4.1480905.1299618,6.1191262,1.0483103-2.0347289.449122-4.0375711.4369156-6.040092.0771872-.2931655-.0527745-.469386-.2286896-.5041643-.5643643-.0367059-.3550613.1112422-.5625693.4251301-.5611332ZM97.9360997,81.419252c-1.3067148,2.4735815-2.885712,4.7561695-4.2147555,7.8264263-.2921213-3.0307656-.4896265-5.5319909-.7909845-8.0174198-.1502774-1.2393038.2542106-1.5746195,1.2837434-1.4425037.990578.1267307,1.9924007.1996098,2.9890829.1967377,1.0874431-.0032311,1.2949078.3726528.7329137,1.4367595ZM98.8169615,83.4979221c1.7156203-2.6782174,4.2713003-3.3269492,6.8123621-3.8119722,5.0259805-.9589167,9.2984052.9158355,12.8422536,4.9694217,1.5957839,1.8252088,2.1649265,4.1340045,2.4324701,6.5418871.3233655,2.9094201.5137223,5.8375088.7517084,8.6399438-.0817651.932709.0885922,2.2050418-.2739691,2.4369625-.68922.4405057-1.3641431-.5248732-2.0150507-.9517365-.859015-.5632873-1.6753001-1.209506-2.5003399-1.8356201-1.9901517-1.5107157-3.9785364-1.4439397-5.9325445.2951065-.6730758.5988293-.8057633-.1967377-1.0661584-.4537891-2.4576904-2.4261921-5.2724001-3.9993756-8.4947303-4.7152423-1.6769868-.3726528-2.9840228.1651448-4.045603,1.6230859-1.2032635,1.6528838-2.1366541,3.492812-2.8850694,5.4321861-.721669,1.8704441-1.8613999.7226879-2.7620202.4975884-1.1882438-.2972606-.2982256-1.2942324-.1397556-1.7674081,1.9685458-5.8737688,3.9631151-11.7277921,7.2764471-16.9004136ZM79.3800914,3.0857002c.1327678-.2997737.3567784-.5851869.6004671-.7830016,2.4911032-2.0194334,6.3898023-.4430188,7.1725942,3.1452899-2.423635-1.0457972-4.6935389-1.6575509-7.0940419-1.246125-.8931507.1529384-1.0182078-.3493171-.6790194-1.1161633ZM88.0846157,8.8453037c-2.7239489-2.1849372-5.7590548-2.6696012-9.2428243-2.1752439,2.9694047-1.6833997,7.0815924-.6645282,9.2428243,2.1752439ZM70.3901927,48.7651039c2.8043485-8.6794349,5.1666196-17.4816514,5.9845914-26.7164754.3166187-3.5746663.3904321-7.159385.0001606-10.720768-.1790317-1.6338562.3305943-2.5615391,1.5792382-3.2102708,3.4392726-1.7864356,7.1617511-1.1028799,9.9374256,1.7882307.5795038.6038555.8405415,1.2202763.4870563,2.006868-2.1121567,4.7015999-1.5563472,9.8677593-2.0416364,14.839694-.9566029,9.7999063-.5069754,19.5728869,1.0223844,29.8621244-5.3314348-6.0916881-11.1915312-7.3195036-18.064936-4.3551549.4263349-1.3613674.7522706-2.4315773,1.095716-3.494248ZM64.6896103,63.3488235c1.3352281-2.7291969,2.5912614-5.498603,3.6693071-8.3678139.2393515-.6368844.4392663-1.2328416,1.1552326-1.5311793,5.7172887-2.3802388,11.0235033-1.7620229,15.8510147,2.5776945,1.2244678,1.1007258,1.9959347,2.4789667,2.3196215,4.2524779,1.3549063,7.4228986,2.1021972,14.9448841,3.0476357,22.4352766.3641677,2.8850074.3444895,5.8418169,1.215713,8.5702958-.9224672.2128932-1.8254972.415734-2.7264388.6297042-3.8252069.9097323-4.6977958,2.2660735-4.4046303,7.0017794.8329112-1.0483103,1.0562792-2.2581753,1.1465581-3.4500897.0766246-1.0106142.4679403-1.2734098,1.2898477-1.2859752,1.4546629-.0226177,2.9088439-.1342699,4.4737049-.8483415-.7731536,2.9805042-1.4205272,5.7929915-2.2511091,8.5358308-.3781433,1.2489971-1.675541.5604152-2.5071671.9625068-.6557268.3170062-.8334734-.5360025-1.0135493-1.0447202-.9638317-2.7216577-2.8411348-3.8446422-5.3503098-3.9132131-3.5899516-.0976508-7.152675-.0272848-10.6402999,2.2757668.5258505-1.557387-.0195176-2.8950597.3064181-4.2108327.207786-.8390073-.2488292-1.3251073-.7484153-1.7781784-1.9782645-1.7928978-4.3904941-2.215094-6.7926839-2.4290642-1.0444722-.0933427-1.8423642,1.0429252-2.6763195,1.7232498-1.1110569.9068602-1.9066196,1.0562085-2.4139164-.6433466-.1308401-.4383517-.3191086-.9029111-.5982985-1.2306876-1.7859801-2.0962616-1.3631792-4.3081246-.6150049-6.7720128,2.248298-7.4038711,4.9059031-14.597003,8.2630894-21.4591274ZM84.2653525,112.4416979c-3.0849038,2.4337314-6.2161519,2.5109186-9.5600052,1.2414579-.5385409-.2046359-1.0193323.0247717-1.5001236-.0947787-1.2391662-.3080309-1.958265-1.7085304-1.7704784-3.2106298.196702-1.5731835.1047364-3.1510341-.2201552-4.7310388v3.6913447c-.8320277-2.4513229-.6212698-4.9170062-.307141-7.7154921.7563669,1.8736752,2.0236449,2.5026614,3.4366221,2.8311559,2.4458835.5690315,4.8985137.6099586,7.3174902-.1658628.8769262-.2814641,1.8334488-.5277453,2.1619547-1.7049403.3977412-.0753922.5673756-.6752985,1.0292919-.5729806.0786326,2.6060563.7476924,5.1399516.6880955,7.7574963-.0262644,1.1545774-.2191111,1.8410052-1.2755509,2.6742683ZM85.2764922,112.4485191c-.4692254,2.7794584-.5323564,2.8325919-3.4439311,2.696527,1.3136222-1.0285647,2.3420306-1.833825,3.4439311-2.696527ZM73.5105173,114.9163564c-1.1698507,1.6413955-2.341629-1.315055-3.6214368.4810739.1804775-1.3545462.4217567-2.1641146.850983-3.0760009.7830329,1.1269336,1.7296762,1.9275267,2.7704538,2.594927ZM74.8486369,101.13682c2.4553611-.2017638,4.902851-.5413877,7.3600595-.6892999,1.8283886-.1098572,2.00983.2157652,1.5840573,2.1127761-3.291967,1.4213221-6.6585507,1.7228908-10.0856951.7392024-.8728299-.2505892-2.1993835-.3780379-2.0867758-1.6528838.0908411-1.0278467,1.0113807-1.7429954,2.1687015-1.9953797,2.700335-.588777,5.4083807-.7158667,8.1391567-.6501678.3717981.0089753.7436764.0226177.9991721.5783657-1.6233335.5047686-3.2691563.3783969-4.8894377.5076407-1.6059042.1278077-3.2106036.2732069-5.0595539.4322485.6655258.866292,1.3215738.6627332,1.8703153.6174979ZM56.8746223,113.5618103c-1.3002892-1.1574495-2.0848482-3.2996644-1.7457401-4.9679856.3910747-1.9242956,1.7479087-2.730992,3.2800798-3.1223133,3.0124558-.7682822,5.9516605-.3223913,8.7564106,1.073441,1.3389228.6659643,2.433193,1.658987,2.4929506,3.5082494.0597576,1.8510575-.8039159,3.2357606-2.1403488,4.0209163-3.0775145,1.8079763-6.2343844,1.763818-9.3284447-.0872395-.8130723-.4864591-1.0173243-1.4306564-1.3324169-2.560462-.3819183.8968079.0140559,1.4952782.0175096,2.1353937ZM53.7428923,108.7679447c.0619262,1.1675018-.9982083,1.2949504-1.8903952,2.1483181.1398359-2.4491688.1396753-4.5206587-.5107505-6.5052681-.2316409-.7068914.358947-.8666511.7522706-1.1129322.8583724-.5367205,1.8221237-.8720362,2.7616186-1.8273628-1.635783.0211816-2.5528688,1.4504019-3.9758859,1.4137829,1.9441288-3.1513931,5.5390602-2.6114415,8.3955359,1.246843-1.5482349.2811051-2.9594451.7567939-4.1398979,1.9041911-.7725914.7510497-1.4628555,1.4076797-1.3924958,2.732428ZM54.3891415,113.4379517c-.1673051.104113-.2718808.2233045-.3344496.1999688-.8538745-.3152111-2.3704636.2340748-2.4739952-.7187388-.1025678-.9445563,1.1957135-1.7049403,2.1768941-2.4308593.1758993,1.1043159.2484276,2.0815422.6315507,2.9496293ZM49.7203409,103.9414091c.0048995-.001436.0073091-.0043081.0122889-.0061032.0630507-.173402-.0413644-.7923359.2640899-.4042457,1.3785202,1.7526887,1.2645471,7.2735503-.1625663,9.1030672.0664241-2.9535784,1.3160318-5.8615625-.1138125-8.6927183ZM37.187397,107.8546223c.4259333,1.003793.9345954,1.9637868,1.469763,3.0731288-1.5564275.1529384-1.589519-1.5146648-2.3903025-2.1641146-.3141288.6533989.4709924,1.0806212.3400719,1.7440724-.7397408.0646219-1.1427831-.3626005-1.3891224-1.0939046-.2583872-.7675642-.5824756-1.5078436-.8317867-2.2786389-.9311417-2.8781862-.0734922-4.7263716,2.5998556-5.6967767,1.9956134-.7241239,3.9879338-1.4608132,5.9723828-2.2222742.6844811-.2627956,1.318843-.4642004,1.8690302.4121439-2.6934276,1.1100601-5.5958459,1.4410677-8.626213,3.0009678,3.96938.3561383,7.0132407-3.7958167,10.9251924-1.3793179-1.4116118,1.105393-3.0720528,1.383985-4.5284827,2.6595489,1.6898378-.3195192,3.0318128-.9546086,4.3554749-1.6306251.6864891-.3503941.9969232-.1414501,1.2849482.6293452,1.1472006,3.0695387.2523633,5.879872-2.2529565,7.5603996-4.4604523,2.9919925-6.7562993.8458285-8.3714401-3.3510029-.268909-.6989932-.5387016-1.3972684-.8162851-2.0919535-.0620065-.1550925-.1583897-.2933115-.446736-.8156716-.1017646,1.6690393.4161343,2.6530867.8366059,3.6446734ZM46.7995294,112.3458421c2.1262126-1.45112,2.3500625-3.7451963,2.3390588-6.224522-.0032128-.7058144-.5410308-1.7720752.5635202-2.1709358.2485882,2.3210021-.0091564,4.6053851-.4087449,6.882229-.2723628,1.5520019-.9086523,2.4480918-2.4681319,1.7885897-.0080319-.0728791-.0595166-.2523843-.0257022-.275361ZM59.8688457,95.1068817c.9860801-1.4733786,2.1372967-1.6744244,3.6283443-1.0350269,1.05901.4541481,2.2472538.553953,3.3869044.7438695.7402227.1231406,1.0977239.3783969,1.0069631,1.347725-.2401547,2.5644111-.370513,5.1417467-.559183,7.71262-.03269.4448139.0710826,1.0576446-.440953,1.1929915-.3852114.1019589-.9041544.0147194-1.1191692-.44984-.3463368-.7478186-.7168498-.6404745-1.3679984-.4369156-1.6859825.5277453-2.7222622-.2387419-3.3635315-2.1515492-.551392-1.6442675-1.1672805-3.2616093-1.7450975-4.8951065-.3464975-.9793803-.0911624-1.4417857.8954799-1.2701787,1.1395703.1985327,2.2811486.3830641,3.4227268.5665184.7989361.1285257,1.6000409.3184422,2.6969616-.0118473-2.282273-.7851557-4.3933856-.8095684-6.4414476-1.31326ZM63.2014543,93.213461c1.4609278-.0965738,2.8488454.2297666,4.1826278,1.0231796-1.4308081-.0516975-2.8657125-.2247405-4.1826278-1.0231796ZM68.9058919,99.8662823c-.6324342,1.8787013.0371878,3.8769531-.628097,5.7578085-.3736454-3.5696402.3031251-7.0983532.3978215-10.7035355q.5664921.3654726.1996738,4.9715757c.0087548-.0061032.0212043-.0183095.0306017-.0258487ZM69.3374475,106.3546769c-.1401572-2.1662686-.2803144-4.3318192-.4204716-6.4977289.1975855-.1597596.5123568-.5079997.5310712-.2785921.1828871,2.248482.602957,4.5080933.2788686,6.7633965-.129796.0043081-.2596723.0086162-.3894683.0129244ZM55.4447781,76.4433681c.2570218-.0093343.5636809.0398502.4996664.4523531-.0596772.3834231-.3236065.5582611-.6701843.6103176-1.4463097.2182783-2.8916556.4437368-4.3361983.6763756-.5670543.0915476-1.1331447.1953016-1.6956208.3173652-.7465679.1611957-1.3260717-.0315929-1.7098374-1.0547725,2.6524647-.5478498,5.2671793-.9047062,7.9121744-1.001639ZM55.025431,79.9875186c-.4574184,1.8496215-.9710604,3.6816514-1.5594796,5.8755639-1.5345003-2.1849372-2.8513353-4.0604074-4.2598146-6.0658394,1.8067828-.8354172,3.6179028-.8745493,5.4021158-.9797393.8002212-.0470304.5250473.7341762.4171785,1.1700148ZM45.3756288,78.100201c4.961725,6.572403,9.7618476,13.2309685,13.0610434,21.0735503.3349315.795926.6574938,1.5990322.9665625,2.4082416.1207199.3159291.1881881.657348.360473,1.2766409-.6064107-.5169749-1.022786-.8824475-1.4487996-1.2332007-1.856661-1.5283072-3.7976574-2.558308-6.0649107-1.0601577-1.4603656.9646609-2.5817837.450917-3.818701-.6620151-2.368536-2.1307266-5.0601162-2.5798486-7.9687995-1.4317334-2.0787439.8199797-4.1512229,1.6431905-6.1816146,2.6121595-1.4819715.7072504-1.9707145,1.762382-1.4130575,3.4486537.5437617,1.6442675,1.0654356,3.2975103,1.6936129,5.2472957-3.3020872-1.0655428-6.3276351-2.3454148-9.330051-3.7049871-.604965-.2742839-.660305-.8199797-.7594993-1.4076797-.8586937-5.0886131-.9189332-10.2773901-1.5566684-15.393288-.0072287-.0581597.0048995-.1220635-.0125298-.1751971-1.7460614-5.3119176,1.4410086-8.3645828,4.3066408-11.4750488,2.7791283-3.0167642,6.2092445-4.0144541,10.0219215-3.4809646.5733995.0800593,1.146799.1647858,1.7222065.2215094,2.6028274.2577695,4.6420542,1.3782408,6.4221709,3.736221ZM6.9413958,28.4494245c.2226451-.9549676.7799004-1.6396004,1.4686385-2.2064778,1.0641505-.8759853,2.2643618-1.4690705,3.5069015-1.9192695,1.3467941-.4875361,2.2932768.2057129,3.0666714,1.5448217-2.5362427.8691641-4.8964254,1.935425-7.0883393,3.425677-.2592707.1762741-.5381393.4580972-.8373287.1457582-.2557367-.2671037-.1969429-.6458597-.1165433-.9905096ZM19.2010935,67.1507434c-1.940916-8.1215328-4.471215-15.9996566-7.5548338-23.6609381-.7384557-1.834543-1.6231728-3.5678452-3.0594426-4.841614-.5364526-.4760478-.5990214-1.0195895-.5219952-1.7045813.2063403-1.8359791.8695368-3.3657223,2.2490208-4.4553188,1.9483054-1.5394365,4.0987744-2.3238742,6.4991972-2.2430969.7760451.0258487,1.5616482.2581285,2.5951167-.1331929-1.4851039-1.4428627-3.0707676-1.0680559-4.5255109-.7657691-3.6842465.7661282-6.814852,2.4373215-7.8869541,6.9701865-.801426-1.5089206-.7465679-2.8623898.3672199-4.2162179,2.6263609-3.1919613,6.0119803-4.6570826,9.8020876-4.9310076,1.6840549-.1220635,2.826597,1.0860064,2.847239,3.0289706.0277905,2.6189807.8523485,4.9062358,1.799554,7.2128775,5.2315176,12.7405604,11.3279937,24.8858815,19.8652933,36.0485912-8.86444-4.0499961-14.8773841-.2886443-19.6386322,8.0831187-.9811806-5.1324124-1.7403587-9.8024194-2.8373598-14.3920081ZM19.4814882,88.9685222c1.0428658-.7442285,1.43884-.5130258,1.5131354.865215.1699556,3.1513931.3848901,6.3002732.6354863,9.4444861.1324465,1.6625771.3779023,3.3136658.6133985,5.3190978-2.2265314-1.6137517-4.5283221-2.5048154-6.3289202-4.3372044-2.1217147-2.1590884-2.3399423-4.5737922-.6744412-7.1823617,1.1149926-1.7462265,2.6417019-2.9675798,4.2413412-4.1092328ZM13.0956216,92.7119235c.519184-.8016702,1.137241-1.522204,1.9793889-1.9627097-3.723121,5.4770624-3.0983975,9.0438305,2.3583354,12.3517521,9.9321246,6.0209631,20.4847961,9.9320222,31.729338,11.4459689,3.0698841.4132209,6.0220202,1.0407711,8.8519102,2.7898697,2.8278018,1.7476625,6.0872394,1.8578787,9.0931091.1199095,1.0871218-.6286272,2.1096669-.83075,3.2874691-.795567,14.1178848.4211192,28.162679-.4200421,42.0286825-3.563896,7.2665678-1.6478576,14.422295-3.7872005,20.7616567-8.3778662,1.2851892-.9305549,2.4852399-1.971326,3.4953355-3.2659174,2.3088587-2.9596816,2.1574568-5.3765394-.5783793-7.8192461-3.7814329-3.3757746-8.1606823-5.5187076-12.6429011-7.4049481-1.179489-.4961523-1.7282305-1.1987357-1.3577175-2.7550457,6.1330215,2.2675096,11.7358552,5.464138,16.3199188,10.5922422,1.5552227,1.7397643,1.5560259,3.8970577.6888987,6.0565051-.9782088,2.4362444-2.6552759,4.1957543-4.5769956,5.6960587-6.923524,5.4056193-14.6774694,8.6313275-22.8892348,10.3983766-17.0839964,3.6769843-34.3202782,4.5328651-51.6286064,2.5812846-13.2230474-1.4906111-26.1394357-4.5242488-38.3446769-10.6618903-2.3485365-1.1807851-4.6184403-2.5338953-6.8283457-4.011582-4.091626-2.7356591-5.2911948-5.9394677-1.7471858-11.413299ZM1.7624071,103.867812c.0348586-4.0295325,3.4439311-7.2602669,7.0015141-6.6933895.6284986.1001639.6211895.5151799.6232778.9711231.0122889,2.6401623.8615852,4.7877624,2.8708529,6.293811.2025653.1518614.3593486.4376337.4566152.6986342,1.8238908,4.8979786,3.9990179,9.6473269,5.0534497,14.871646-7.8732998.3177242-16.0765513-7.9527979-16.0057097-16.1418247ZM20.8859516,121.9407535c-.194694.0822134-.5285813-.0402092-.7190184-.1935066-.4232827-.3403418-.6758869-1.0163584-.3570193-1.3775228.7140386-.8084914.1270651-1.0612347-.2799931-1.5602591-.7072918-.8666511-1.3136222-1.8428003-1.4734576-3.044049-.0578299-.4347616-.0841746-.9876376.5825559-.9607118.78231.3877312,1.3458303,1.0906735,1.975132,1.7042223.6599837.6437056,1.1786055,1.2321236.673638,2.3597752-.2000754.4466089.0497176,1.1330368.0560629,1.7106845.0057027.5141029.1005598,1.1251385-.4579004,1.3613674ZM134.3100622,114.8933798c-.2316409,1.3947553-.7999803,2.6128775-1.5665477,3.9207524-.7681738-1.1556544-.433403-1.938297.2445723-2.7151955.3150123-.3608054.7864063-.8932178.2839287-1.3279794-.5219952-.4516351-1.0217419.0890346-1.2628604.5970343-.658538,1.3864981-1.5197216,2.7844845-.3857736,4.4147506-.8022292.1288847-1.1219804-.242691-1.2018981-1.0350269-.162245-1.6083665,1.0754755-4.2636073,2.3855637-5.0530711.4342062-.2613596.919897-.4430188,1.3289632-.1156013.3803119.3047998.2505159.8544447.1740519,1.314337ZM134.6098941,111.961701c-2.7668394-.3202373-6.0215383,5.1435417-5.7218669,8.1337392.1065034,1.0626707.6819109,1.5498478,1.5225327,1.7268399.56095.1181144,1.141257.1220635,1.8701547.1920706-1.0362797,3.460142-2.0172997,6.8434559-3.0612097,10.202716-3.9970902,12.8626239-6.9204719,26.0821041-10.450666,39.0991024-1.7689524,6.5225006-3.954039,12.8698041-7.2346007,18.677156-1.7291943,3.0605635-3.7881797,5.7692968-6.4692381,7.8483259-.3764566.2918754-.8196585.5453368-1.0370829,1.4554281,3.5755745-1.0267697,5.3479003-4.28802,7.9214914-6.9328494.3921992,1.7853586.4157327,3.355311.0440953,4.9152111-.7207051,3.0250215-2.437209,5.291095-4.5916137,7.1755405-4.2141933,3.6856006-9.1437906,5.5485054-14.3217352,6.4133614-11.1757887,1.866495-22.3186464,1.4568641-33.3185358-1.557387-3.593807-.9847655-6.9458528-2.7051432-9.6955039-5.6052291-1.8515206-1.9526575-2.9514132-4.2499649-2.5512624-7.2146726.1542934-1.143089.4210338-1.7052993,1.5319301-.8526497.91813.7047374,1.8583477,1.5150238,3.1125337,1.4920471.0048192-.6659643-.4007933-.9230157-.6996615-1.2023258-6.0566378-5.6619527-9.8620861-13.0187934-12.7727774-21.063857-5.9014609-16.3109186-11.5646947-32.7241551-16.9824728-49.2436587-.1052183-.3209553-.1690721-.658425-.2519617-.9869195.1228885-.0394911.2426446-.1260126.3024825-.0897526,1.2179619.7402794,2.4958421,1.1915554,3.6611949.0477484,1.1258357-1.105752,1.0264004-2.6031843.6714694-4.0916413-.383364-1.6076485-1.1043101-3.078514-2.5012235-3.6385702-2.2066123-.8849606-3.4817615-3.4759385-5.9259583-3.8471552-.1519641-.0233357-.3100325-.3058768-.3970183-.5047686-.9835099-2.2509951-1.9536868-4.5088114-2.6960781-7.0506048,1.0717005.6458597,2.1536818,1.2712558,3.2134951,1.9404511,8.1365062,5.1367205,17.0288973,7.9186919,26.0268281,10.308624,17.0795788,4.5371732,34.3694336,5.6192305,51.8184812,3.5904628,9.8355004-1.1434481,19.5946975-2.7367361,28.8847496-6.7827831,4.4222203-1.9260907,8.5402713-4.4922969,12.6831411-7.8802778-.3396703,1.902755-.9186119,3.2698665-1.4576347,4.6549286-.2256169.5798018-.5888208.7334582-1.1264782.6713494ZM22.9271864,118.2285862c2.1164137.4810739,2.8113363,2.4233201,1.799554,5.04984-1.0834271-1.5178959-1.1648709-3.3743386-1.799554-5.04984ZM150.5176946,104.1316846c-.4459328,1.9329119-1.4601246,3.4971201-2.6629865,4.9202373-3.3363033,3.9473191-7.431383,6.6438461-12.1539975,9.1770233,2.1188233-5.4465465,3.6749295-10.6026535,5.1269418-15.7996878.1312417-.4695856.2725234-.8415203.7314679-1.0418481,2.0721577-.9054242,4.1702586-1.626676,6.437271-1.3333645,2.1044461.2721299,3.0487602,1.7907438,2.5213033,4.0776399ZM94.4704824,203.0070923c-4.5078406,4.4169047-20.5579669,3.9667057-26.181523.4426598,8.5997076,1.8230547,17.1860822.8189027,26.181523-.4426598ZM112.1653071,32.9047433c2.1036429-2.9596816,7.9368324-.9937407,9.4237034,3.1427769-2.6228269-3.2978693-5.6155242-4.5389682-9.4237034-3.1427769ZM75.508701,107.4374522c.0446575.0445173-.0468262.4024506-.1065837.414298-.963912.1891985-1.8067828-.0818544-2.667886-.897885.3044102-.0840084.4418365-.1676578.5676165-.1497073.7599009.1091392,1.5742584.0050261,2.2068532.6332943ZM57.0277109,107.0963923c2.5196166-2.0323578,8.5924789-1.4234762,11.2738585,1.1552954-3.8461702-1.3197222-7.530497-1.5706704-11.2738585-1.1552954ZM87.1297799,105.7206646c-.169795-.9097323.6078565-1.278795,1.3775564-1.5250761,1.4108889-.4519941,2.795674-.3345977,4.2966812-.2721299-.7395802,1.7577148-2.0029225,2.0908765-3.3051394,2.3482869-.2052158.0405682-.4115561.0958558-.6182177.1008819-.6645619.0157965-1.5856637.2329977-1.7508805-.6519628Z"/>
  </g>
</svg>