<?xml version="1.0" encoding="UTF-8"?>
<svg id="Layer_2" xmlns="http://www.w3.org/2000/svg" viewBox="0 0 79.7147886 216.3067379">
  <g id="Layer_1-2" data-name="Layer_1">
    <path d="M78.2497406,131.6475663c-1.7298124-7.6551731-4.5524425-14.9291031-7.5775282-22.1349234-1.574182-3.7490903-3.2215818-7.4675313-4.8272645-11.2038511-.1917284-.4456067-.465018-.8559668.1277054-1.3160468,2.9113428-2.2598749,4.5871784-5.3380862,5.4995058-8.8273385,1.9673444-7.5259353.709361-14.7194959-2.5067721-21.6475996-1.6794113-3.6176389-4.7136918-4.7440006-8.4139135-3.2750478-1.6502945.6548733-3.1378071,1.6111315-4.627363,2.5535974-.5550929.351275-.7618053.2467269-.9957617-.3308422-.8387691-2.0730845-1.5316136-4.1924835-2.0688277-6.3598997-2.9292216-11.8192209-2.8493631-23.8453245-2.4863392-35.8956071.0555093-1.8484933.6208186-3.3865772,1.7422423-4.8585949,1.7102309-2.2448908,1.5973393-3.5129204-.3424208-5.6284031-.5716094-.6237132-.6533409-1.1071208-.3662591-1.8914023,1.4696339-4.0128446.20518-7.4428416-3.3812987-9.3810692-4.4393806-2.3993293-11.2241137-1.7529696-15.1259397,1.4274059-2.0046344,1.6342887-2.867923,3.7255925-2.2287148,6.2333862.4680829,1.8369146.4001436,3.3949206-.6528301,5.0889755-1.2692215,2.0419244-.8590317,3.5393129.9596636,5.1655987.454461.4064438.6133265.8494964.6484029,1.4074839.5908504,9.4403245.8207201,18.870092-.853583,28.2416259-.8718023,4.8800494-1.7546723,9.7580556-2.6567834,14.7714294-.6480624-.4003139-1.1876603-.7439266-1.7369639-1.0708524-1.2428291-.7394995-2.5127317-1.4287681-3.9844088-1.5753739-3.0678245-.3051308-7.0602362,2.085855-8.5159076,5.1051515-3.2389498,6.7190073-4.7586441,13.7964412-4.2926045,21.2571616.2542189,4.0717593,2.006848,7.6236725,7.1845361,8.074728.060958.0052785.117489.06215.2523459.1375813-.2080747.4074654-.4137655.8205498-.6281403,1.2292071-3.7472173,7.1424785-7.3655373,14.3438717-10.3613359,21.8447767C1.9254952,129.0737063-.5175945,139.6470332.0930077,150.8139349c.4648477,8.504329,1.8314659,16.900534,2.8936343,25.3321561,1.0039348,7.9667743,2.5003017,15.8690149,3.3518413,23.8552004.4599098,4.3137185,2.5318023,7.4838776,6.0445525,9.8498332,1.34908.9087517,2.777167,1.6661299,4.2728528,2.3005704,4.719992,2.0013992,9.6865405,2.9791118,14.7518479,3.5384615,9.1205502,1.0076808,18.2094294.8494964,27.2165771-.990994,4.2657013-.871632,8.3391633-2.3165761,11.6758503-5.2878554,2.1466428-1.9113243,3.4601355-4.2507172,3.7884236-7.1751711.4539502-4.0431533,1.0776634-8.0670657,1.5917202-12.1039188.6959094-5.4666429,1.434898-10.9291993,2.0139995-16.4086128.8294041-7.8475826,1.4452847-15.7155981,1.8876562-23.5955328.3487209-6.2170399.0463145-12.3799328-1.3322228-18.4805054ZM56.7759907,66.4398214c1.5185025-1.0287948,3.1211202-1.9169434,4.8693222-2.5391241,1.9225624-.6838199,3.5369291-.1847472,4.9726784,1.1180183,1.0952016.9938886,1.7153391,2.3097652,2.2363772,3.6554397,1.559879,4.0307233,2.4090349,8.2085632,2.4720362,12.5355631.0366089,4.5623184-1.1857873,8.7398178-3.7541985,12.5234737-2.1543051,3.1740754-4.8289673,4.0772081-8.4101675,2.6778973-2.7245524-1.0642118-5.0455556-2.7705263-7.0467846-4.8889037-3.0434753-3.2215818-5.7790955-6.7210506-8.8763774-9.8952963-.2768653-.2836763-.4032085-.5377249-.2007529-.9484255.6736035-1.3669587.7720218-2.838125.6512976-4.3266593-.0481875-.5930639.087691-1.0025726.6140076-1.3611694,4.1659208-2.8379548,8.2993192-5.7239268,12.4725618-8.5508137ZM60.9918017,184.7100158c.0034055.8445584-.2591568,1.1336835-1.0754498,1.3582747-7.9337412,2.1829112-15.9972311,2.8934641-24.1870642,2.2576614-4.6018219-.3574049-9.1580104-.9838425-13.5950072-2.3317305-.8391097-.2547297-1.2038363-.5755257-1.1765925-1.5443841.2722679-9.6582751.042909-19.3093986-.5683742-28.9513274-.0773043-1.2184799-.2329347-2.4323624-.3555319-3.6789375.4493528.1246405.5685445.5360222.7866653.8300852,2.5675598,3.4591139,5.418796,6.6418733,8.8954481,9.2228848.2310617.1714658.466891.3386747.7117448.4893671.2731193.1682306.5658201.3909488.8835512.1236188.2663083-.2239102.1530762-.5404493.0825828-.8105037-.3362909-1.2876111-.7607837-2.5561515-1.0240271-3.8573845-1.0311786-5.0983405-.8455801-10.2481038-.544025-15.3966751.0921182-1.5716279.2407673-3.1400206.3815838-4.939475,5.6212516,6.6400003,11.6845343,7.4818343,18.4822081,1.7783404.3708565,1.9680255.7737245,3.8737308,1.0837933,5.7944202.918287,5.6878287,1.7747647,11.3862144,2.0941985,17.1458987.1076131,1.9402709.0415468,3.8895663.1030157,5.8332426.0527849,1.6690246.5814853,1.9550847,1.9886287,1.0257299,2.1624783-1.4279168,3.7933615-3.413821,5.4228826-5.3881467.7325182-.8874675,1.4234896-1.8093303,2.2871188-2.9120239-.1452436,2.797089-.2775464,5.3775897-.4130844,7.9579201-.2799303,5.3278697-.2857196,10.6608477-.2642651,15.9931445ZM25.2954151,104.1435669c.7878572.9935481.7316669,1.7344098-.0984183,2.6266449-.7575485-.723664-1.288803-1.6172613-1.8427039-2.4839554-1.0453114-1.6349698-2.0294944-3.309954-3.0872357-4.9369209-.4335173-.6671331-.5145677-1.2252908.174701-1.8370849.3558724.1595466.5019674.5419818.7153206.8416638,1.3763238,1.9329491,2.6663187,3.9333266,4.1383364,5.7896525ZM22.2997867,94.8694297c5.6629687-1.6751544,10.2579797-4.9478184,14.1231968-9.3342439.0924587-.1048887.2094369-.1881526.315177-.2814627-2.8560038,6.7099828-6.5037812,12.9357067-10.2215411,19.3701864-1.4277465-2.0676357-2.7708669-4.0036498-4.1022383-5.9473261-.3250528-.474383-.6121346-.9749882-.9169248-1.4631635-.6048128-.9695395-.2898061-2.0209807.8023305-2.3439902ZM31.2309923,98.8613305c2.8871639-5.2313244,5.7464029-10.4820601,7.7907111-16.1235743.0682798-.1883229.166017-.3662591.3541697-.7754273.2937224,1.7218095-.0023838,3.1565372-.2680111,4.5812188-1.1692707,6.2689735-3.0032907,12.3770381-4.530988,18.5593422-1.9441872,7.8652911-3.8347381,15.7469285-4.7843555,23.803948-.7546538,6.4033196-1.3659371,12.8291153-1.5423408,19.2790899-.1035265,3.7872317.1450733,7.5628847,1.2009417,11.2394383.0473361.1651657.0362683.3466776.0740691.7577188-1.8920834-1.5246323-3.4027532-3.0615244-4.8264132-4.6796371-3.5364182-4.0203366-6.4927134-8.4396249-9.0733843-13.1289676-1.5050508-2.7349391-1.4997723-5.5768101-.9388902-8.5010938,1.0349246-5.3937657,3.2895211-10.3392003,5.6651823-15.2347447,3.2886697-6.7777518,7.2437914-13.1897554,10.8793091-19.7773113ZM33.4183305,68.1633336c2.0747872-3.0943872,4.9399858-4.7414465,9.0965415-4.8436108,1.1461135.0034055,2.5573434.4900482,3.8233297,1.3841564,1.5925716,1.1249995,2.7174009,2.6543995,3.6743401,4.3281918.2581352.4515663.2584758.7280911-.2145451,1.058763-1.8587097,1.2991897-3.6969865,2.6256232-5.675569,3.7443226-.9109653.5149082-1.8241441.8333204-2.8708176.4069546-.2571136-.1048887-.5901693-.1733388-.8469423-.1045482-1.4776367.3963976-2.4015428-.452588-3.3578009-1.3567423-1.2041769-1.1387917-2.4040969-2.2775834-3.5246693-3.5010013-.345656-.3771566-.4093384-.6608329-.1038671-1.1164858ZM32.4399368,68.0032762c-.8993866-.5002647-.8198687-1.0298164-.3306719-1.7744241,2.8823963-4.3881282,8.9243946-6.1637442,13.7365048-4.1027492,2.1544754.9227142,3.0535215,2.6515049,3.6883025,4.8115993-5.7373784-6.1502926-12.0496015-5.7259701-17.0941354,1.0655739ZM47.4739286,135.5325352c-1.9319275,2.4076727-4.3455597,3.8386544-7.4733206,3.7547093-3.110393.3461668-8.4673795-3.4352755-9.106758-7.788157-.1123808-.7660622.1021643-1.5028373.1685711-2.2517018.1045482-1.1803385.2833357-2.3542067.4181927-3.5321614.1500113-1.3109386.7565269-2.3603365,1.6996739-3.2757289,2.6569536-2.5777763,7.032141-4.2576984,11.121098-2.4485384.5450467.2411078.8426854.5343194.9807776,1.1336835.9932075,4.3106536,1.6918413,8.6780083,2.5525757,13.0136922.1076131.542152-.0224762.9722639-.3608104,1.3942025ZM48.1635378,136.1312181c.4626341,1.3209848.0052785,2.1992574-.812547,3.0380266-3.9975199,4.0991734-10.8074535,3.8570439-14.8446472-.5588389-.2669894-.29219-.5118433-.6048128-.7757678-.9000677-.94502-1.0570603-1.718404-2.1638405-1.0184081-3.7339359.5247841.2576244.6984635.8615858,1.0226649,1.3276254,2.158562,3.103582,5.0566234,4.8875415,8.9007266,4.7921881,2.4081835-.0592553,4.3956202-1.240956,6.1925205-2.759118.4323254-.3650672.841153-.7580593,1.335458-1.2058796ZM44.8271914,119.0602399c-.2027962.5743338-.6053236.1421787-.8564776.0527849-2.8359115-1.0107458-5.5734047-.8326393-8.2473857.5578172-1.3243902.6885876-2.3715746,1.7224906-3.4558787,2.7213172-.4108709-2.5413377,1.138962-3.6445421,3.0318967-4.5555074,2.7555422-1.3259227,5.5664234-1.5964879,8.4818528-.624224.6719007.2240804,1.2705837,1.2109878,1.0459925,1.8478122ZM32.7767386,118.4867575c1.9564469-9.4190403,4.5112362-18.4604131,6.9246982-27.5698954.7979034,8.6620026,3.1177148,17.0176825,4.6624394,25.7271915-4.2435657-1.6622136-7.9187571-.6419325-11.5871376,1.8427039ZM39.4601587,79.1199471c-.1210647-.672071-.2886142-1.3344364-.2870818-2.169119.2164181-.5394277-.3737512-1.6550621.9775424-1.74701,1.4211058-.096375,2.3395631.5644579,2.4911069,1.8001355.0837747.6841605.0170274,1.3696831-.1593764,2.032389-.1532465.5753554-.0170274,1.4011838-.9967833,1.3744508-.9242466-.0252005-1.8113735-.103186-2.0254078-1.2908463ZM54.4287653,167.3156875c-.310239.2981496-.6323972.5842097-1.1469649,1.0585927-.0398441-2.4006914.0204329-4.5486965-.1329839-6.6958501-.4651882-6.5134868-1.5002832-12.9493286-2.5810115-19.3775082-2.3104463-13.7424644-5.3941063-27.3354283-7.9763097-41.0251078-1.1631409-6.1662983-2.0560571-12.3680136-2.1023716-18.6604849-.0027244-.3538291-.3441235-.9734558.3168797-1.0534845.5826772-.0701528,1.0466735.1673792,1.2273341.8997272,1.3184307,5.3438755,2.5083045,10.7228274,4.4211613,15.9044318,3.7705448,10.2135382,8.4428601,20.0264219,13.1826039,29.809678,2.668362,5.50836,5.3173128,11.0088875,6.9602854,16.9516162.8947892,3.2374173.5017971,6.0513635-1.4577147,8.781024-3.3421357,4.6554582-6.5500956,9.4091644-10.7109082,13.4073654ZM46.9108329,92.0248342c.3357801.6140076.6943769.6938661,1.1088235.0868397.422109-.6179239.8346826-1.2426588,1.3046385-1.9438466,3.1933164,3.5093447,6.6365948,6.5884073,11.5406528,7.7333288-.3366315.4684234-.5743338.8477937-.8590317,1.1878306-2.49928,2.9816659-5.0189929,5.9464747-7.5012455,8.9422734-.4502041.543344-.6426136.5063945-.9147113-.1096564-3.4092236-7.7188556-6.3461075-15.5943631-8.000148-23.9001527-.0200923-.1009724-.0025541-.2092666-.0025541-.6318864.9489363,1.7923029,1.3827942,3.4259105,1.9222218,5.0186524.4151277,1.2252908.7750867,2.4716957,1.401354,3.6166172ZM45.6552333,86.2322871c.0766232-.0549985.153587-.1101672.2303806-.1653359.8925757,1.0577413,1.7996246,2.1035635,2.6693836,3.1796945.2755031.3408883-.1316217.5753554-.2785681.8282122-.2118207.3642158-.4713181.7008473-.795179,1.173187-.6381865-1.7527993-1.2321018-3.3843637-1.8260171-5.0157577ZM53.4774451,108.1599872c2.3567608-2.7722291,4.6723153-5.5797048,7.0277139-8.353296.1988799-.2344671.378008-.8815079.8414935-.4454365.320796.3020659.731156.7788327.3034281,1.3237091-2.7775075,3.538121-5.5604639,7.0714743-8.4202137,10.7061405-1.0184081-1.7974111-.9911643-1.7739133.2475782-3.2311172ZM51.5811049,14.6658344c.1522248.3984409.2126721.8316176.263584,1.0415653.010557.7086799-.1045482,1.1765925-.4941348,1.4830855-1.7831081,1.4040784-2.1246775,3.4357864-2.3964346,5.4845217-.7234937,5.4540427-.5763771,10.9354995-.345656,16.4058884.3037686,7.2083745,1.1925983,14.3500016,2.9426732,21.3652855.5057134,2.0281322,1.2756919,3.9712977,1.9860745,5.9325123.1529059.422109.3883947.8634588-.1922392,1.0871987-.5661607.21761-.614859-.3633645-.7636784-.6666222-2.7017357-5.5015491-4.2248355-11.3077182-4.4642406-17.4413239-.2685219-6.8783837-.4215981-13.7584701-.2366807-20.6416215.0698123-2.5946334.320796-5.1756449.6613438-7.7481427.1164673-.8782727.5285301-1.636332.9991671-2.3678286.7073177-1.0989476,1.0849852-2.2476152.7335399-3.5835841-.1607385-.6102616-.3201149-1.6090882.2537081-1.7558643.6184347-.1580142.8295743.8203796,1.0529737,1.4049298ZM30.9527648,18.040833c-.8649913-.844899-1.0056375-1.9792636-.3214771-2.9740036,1.4018649-2.0378378,1.4728691-4.153661.9153924-6.4864132-.5261463-2.2030035.4556529-4.0109715,2.2772429-5.2066347,3.9878143-2.6174501,8.3114087-3.1912731,12.7756493-1.451074,3.687962,1.4377927,4.9525861,4.9420291,3.240993,8.7994136-.1042076-.8254878-.1644846-1.4873423-.2741409-2.1410238-.7607837-4.530988-3.3222137-6.7312671-8.0066184-6.8496074-1.4847882-.0376305-2.9425029.1764037-4.3515193.6792225-2.9401191,1.0490574-4.9328343,4.2748961-4.3348325,7.3663886.263584,1.36151.1190214,2.5040477-.5084378,3.7061813-.8707806,1.6680029-.5460683,3.4361269-.213864,5.1834775.1462653.7701488.2620515,1.5457463.3918002,2.3191303-.3054713-1.1192102-.7304749-2.105096-1.5901878-2.945057ZM29.0858819,64.0576898c1.7425829-3.8689631,2.0177455-8.0777929,2.8149678-12.1657282.0679393-.3483804.1677198-.6902903.4154683-1.0151729-.3919705,3.4231861-.7841112,6.8463722-1.176252,10.2697286.083945.0137922.16789.0275844.2516648.0413766.5378952-2.5927604,1.0771526-5.1851802,1.6131747-7.7784514.5472603-2.6487805.8869566-5.3282103,1.1112073-8.0202403.2239102-2.6916895.4164899-5.3874656.5646282-8.0846039.1471166-2.6753432.2216966-5.354773.4713181-8.0229647,1.1515623,11.1154789-.2130126,22.0330996-2.6961166,33.0505008.6245646-.4648477.7349021-.9904832.9094328-1.4512443,1.6800924-4.4332508,2.664616-9.0328591,3.2685774-13.7249262.5903395-4.584454.6909714-9.1971734.7694677-13.8073387.0476767-2.7993026.4622936-5.52079,1.2719459-8.1886412.5847205-1.9278409.7658919-3.8641955.4107006-5.8662757-.2598379-1.4643554.226294-1.8655206,1.7316854-1.6809438.7423941.0909263,1.3519746.4633152,2.0003776.7706596.5990235.2836763,1.2395939.5026485,1.8260171.016176.5830178-.483067.511673-1.1733573.3620023-1.8077978-.4139358-1.7563751-1.6911602-2.6014444-3.333622-3.0055043-1.0829419-.2664786-2.1771218-.4871536-3.2624476-.7442671-.3912894-.092629-.7701488-.2346374-.8500072-.7125962-.2676705-1.597169-.6385271-3.1876973-.438285-4.8243699.2220371-1.8164818,1.2007714-3.0479025,2.9348406-3.6533964.5690553-.1985393,1.1525839-.3560427,1.8951483-.5830178-2.9934148-.1512032-5.2398381,1.7950273-5.5432662,4.6438796-.1459247,1.3712156-.1326434,2.7453258.2327644,4.0789108.3058119,1.115975-.6763279,1.0591035-1.1784655,1.2433399-.6048128.2216966-.4198954-.493624-.5082675-.7887086-.3087065-1.0318597-.6051534-2.0744467-.7968818-3.1326989-.4129142-2.2794564.5234219-4.2657013,2.527886-5.3861034,2.3133409-1.2934004,4.7751607-1.5357001,7.3163281-.8345123,2.0443082.5641174,3.1590913,2.0131481,3.6644642,4.012504.5539009,2.1917654.3803918,4.4434672.5821664,6.6641791.185258,2.0395405.1188512,3.9311131-.7853031,5.9473261-1.0175567,2.2694103-.907049,4.9304505-1.0863474,7.4413091-.7163422,10.0240234-.1079536,20.0245489.6661114,30.0162203.1372407,1.7732322.5465792,3.5253504.8389394,5.3401295-7.4215574-3.385215-12.2401379-2.2588533-17.014277,3.9544406-.5269977-.4873238-1.0456519-.976691-1.5753739-1.4536281-.2390645-.2150559-.3500831-.438285-.2063719-.7575485ZM36.2578178,17.8026198c.6085589.176574,1.1835737.3163689,1.8021788.3359504.3378234.0108975.4107006.2448538.4559935.4971997.409679,2.283543.1792984,4.4747976-.9756693,6.7041935-.7389886-2.2394421-.7144692-4.4518106-1.1929388-6.5775097-.1166376,2.5476378.3662591,5.0423204.7204288,7.588596-.1115294-.0488686-.1673792-.0565309-.1740199-.0788368-.9286737-3.1224824-2.0959012-6.1788986-2.6690431-9.3991182-.1365597-.7689568-.0965453-1.5719685.5615633-2.3736179-.0357575.5768879-.1202134.9945697-.0752611,1.3977783.1057401.9457011.4549718,1.5881445,1.5467679,1.9053647ZM36.5949601,13.7625315c.557647-.2060314,1.126532-.1913878,1.7017172-.1787876,1.4047595.0388224,2.7972593.1801498,4.123182.6749657,1.3586153.5070756,2.0666141,1.5144159,1.9974829,2.7514556-.0630013,1.1258509-.6647492,1.470315-1.6264561.8883188-.67769-.4100195-1.3613397-.7900708-2.1105448-1.0546764-1.0657442-.3763053-2.087047-.3088768-3.1447883.1021643-1.4326844.556455-2.0330701.3785188-2.3484174-.5343194-.3708565-1.0734065.2499621-2.221393,1.4078244-2.649121ZM10.5202396,86.8142832c-.2979793-6.276125.8809971-12.3380454,3.3593334-18.1135652,1.0861771-2.5319726,2.7248929-4.670272,5.2469896-5.9725266,1.794857-.9271413,3.6019737-.8620967,5.3854223.0648743,1.8437256.9581311,3.4170562,2.2743482,4.8579138,3.7487498,2.6933922,2.7567341,5.190629,5.7142212,8.2736079,8.0694495.4445851.3398667.4903888.7679352.4321551,1.2460643-.1033562.8471126.4410094,1.9716013-.1563114,2.4647144-.4937943.4076357-1.5821849.0795179-2.4063105.1047184-4.9777866.1529059-9.9322457-.6008965-14.9119054-.3790297-1.1685896.0519335-2.329517.1346866-3.4732466.3476993.0088542.1300892.0177085.2600082.026733.3902677,2.0500975,0,4.1017275-.0476767,6.1504629.0095353,4.7857177.1334947,9.5707543.6986337,14.3539179-.0376305.2145451-.0330331.4054221-.0740691.568885.154779.4379444.6126454.3977598,1.9544036-.078326,2.5665382-2.300911,2.9581681-4.5282636,5.9740591-7.6330375,8.1951116-3.3358356,2.3865587-6.9938294,4.0153987-11.02285,4.7329328-5.3557946.9540446-8.698952-1.8103519-8.9734335-7.5926826ZM77.6330086,153.5325277c-.759081,9.7737208-1.5954663,19.5353521-2.7558828,29.2673557-.7973926,6.6873364-1.745137,13.3569643-2.5728383,20.0410655-.3451452,2.7867023-1.8833994,4.7785662-4.0009254,6.4120035-3.4012208,2.6242611-7.4001029,3.8332056-11.5323094,4.5882-11.2074268,2.0482245-22.3756907,1.7298124-33.4700557-.8438774-3.0223614-.7011878-5.9270635-1.7510966-8.6727298-3.240993-3.9621029-2.1502186-6.2047802-5.3489837-6.7724733-9.8888259-1.4887045-11.9006118-3.163859-23.7780664-4.6699315-35.6766349-.832469-6.5775097-1.5282081-13.1728982-1.2898246-19.8285637.2773762-7.7430345,1.998164-15.1868977,4.5440991-22.4640628,3.0400699-8.689587,7.126643-16.9070045,11.3627166-25.055461.442031-.850518.8961514-1.6896277,2.1541349-1.413784-1.9467413,3.3710823-3.6550991,6.8467127-5.3147586,10.3468626-4.0060336,8.4481386-7.3374421,17.1305741-9.2502989,26.3192338-1.7545021,8.4275355-2.2181578,16.8959367-1.301233,25.4709293.7893897,7.3803511,2.0221726,14.7014469,2.780913,22.0841818.6003857,5.8414158,1.2309099,11.679426,1.8515582,17.5187985.0718556.6766684.1653359,1.3512935.4726803,2.0340918,0-.6684953-.0028947-1.3369905.0005108-2.0054858.0556796-10.9448645-.7534619-21.8265574-2.6899868-32.5984237-2.768483-15.399059-1.4028865-30.4110854,3.8112403-45.1241109,2.3136815-6.5284709,5.1623635-12.8154934,8.3355876-18.9630616.2130126-.4127439.4587178-.8084604.7773003-1.3659371,1.5517059,2.9096401,3.2789641,5.5447987,5.0242714,8.1680381.3129634.4699559.0446118.812547-.1556303,1.1815305-2.2159443,4.0811244-4.5132795,8.1208722-6.4189848,12.3618838-2.0688277,4.6038652-3.9825358,9.2593234-4.7058592,14.3106683-.3849892,2.6870921-.0624905,5.2241729,1.2656458,7.6313348,1.115975,2.0228537,2.3603365,3.964657,3.6802997,5.8507808,1.0567197,1.510159,1.5467679,3.1430856,1.6428024,4.9442427.5520279,10.3712118.7427347,20.7495751.5619038,31.1328764-.0163463.9531932.2579649,1.3945431,1.1530947,1.7126147,3.3898124,1.2051985,6.9115871,1.7104011,10.4568596,2.1100339,4.7370194.5341492,9.4890228.7015284,14.2500508.4529285,4.9830651-.2601785,9.8704363-1.0831122,14.6547918-2.5258427.6441461-.1944528.7412022-.5183137.7337102-1.0834527-.083945-6.3820353.0720259-12.7604949.3700051-19.1348679.0873505-1.870118.2845277-3.7351279.4456067-5.6013296.0875208-1.0117674.6364838-1.8236333,1.2055391-2.6171095,1.0076808-1.4052703,2.0252375-2.8037297,3.0397293-4.2044027,1.7655699-2.4369598,2.151751-5.1088975,1.4640148-8.0110455-1.1289158-4.7644335-3.1524506-9.1823596-5.2032293-13.5871746-2.8408494-6.1019348-5.7068994-12.1929721-8.6328858-18.2543817-.598683-1.2404452-.4863022-2.1168449.3880542-3.1771403,2.4068213-2.9184943,4.6993888-5.9311501,7.0399736-8.9044726.1755524-.2230588.3725593-.4294307.6473813-.7439266,1.1364079,3.0191262,2.2600452,5.9355772,3.333622,8.8704178,2.1757596,5.9473261,4.5425666,11.8275643,6.3878246,17.8922091,2.5822034,8.4867908,3.0586297,17.2024296,2.7456663,25.9952026-.3116012,8.7575262-1.2838651,17.4622676-2.1532835,26.174501-.0389927.3916299-.0568715.7849626-.0844558,1.1777844.5852313-1.1525839.6221808-2.4155053.7744056-3.6385826,1.005297-8.0789848,2.0480542-16.1528614,2.627326-24.2803743.8023305-11.2537413-.7931357-22.1071688-4.943221-32.6176646-2.5239697-6.3919112-4.8093858-12.8778136-7.2310209-19.3104203-.2067125-.5494738-.2271454-1.0131296.0861586-1.4871721-.313985-.1937717-.6088994.347529-.8115253-.0277546-.2979793-.5515171-.0834342-1.0965638.071515-1.6528486,1.3959053.6293323,1.6244128,1.9567874,2.1485158,3.092344,3.0637379,6.6391489,5.6983857,13.4514663,8.2402342,20.303117,3.8267352,10.3157025,4.9541186,20.9348331,4.1036005,31.8839545ZM68.8337653,204.8563106c.1656765.028606.3209663.1186809.7051041.2661381-3.3036538.3720484-6.0314414-.5367033-8.5514948-2.1846139-2.2081117-1.4440928-4.1228415-3.2617665-6.1456952-4.941348-3.1366152-2.6045093-6.5550336-4.5190688-10.7613093-4.7768635-3.0582892-.1874715-5.8526538.545217-8.5002424,1.9809663-2.3201519,1.2581537-4.394258,2.8806935-6.5029298,4.4523214-2.3104463,1.7219798-4.6115275,3.4620085-7.410149,4.3642898-2.2571506.7279208-4.5062983.7546538-6.7799654-.0461442,5.395809.1362191,9.6005522-2.5026855,13.5948369-5.6592227,2.2048765-1.7422423,4.3908526-3.5318208,6.9471743-4.74366,6.2890658-2.9820065,12.2891768-2.2992082,18.0144658,1.5353596,2.1062879,1.4108894,3.9268562,3.1599427,5.8165558,4.8286267,2.7741021,2.4499006,5.8659352,4.2851125,9.573649,4.9241504ZM37.8720142,79.6762318c-6.4836888,1.7739133-12.3070556,4.8075128-17.5923568,8.9666226.8510289-2.8657094,13.4880752-9.3742582,17.5923568-8.9666226ZM22.5706924,66.1105117c4.803937,3.7896155,9.5716057,7.6253752,14.4056811,11.3768493-5.2018671-3.2874778-10.3506087-6.641703-14.4056811-11.3768493ZM44.7320083,77.9435248c.1643143.3643861.4975403.4719992.8513694.5343194,5.2376246.9184573,10.3403922,2.5598975,15.6793298,2.9346703,2.1238261.1493302,4.2471414-.0045974,6.370627-.0262222.3790297-.003746.757889-.0005108,1.1410053.1036968-1.3645749.4464581-2.76661.5782501-4.1742642.6565761-4.6588637.2598379-9.1675457-.6284809-13.6391081-1.7984327-1.8770993-.4914104-3.7628825-.9514904-5.6333411-1.4670798-.402868-.1111888-1.0740876-.2038178-.595618-.937528ZM44.7345624,77.9387571c-.0011919.0017027-.0013622.0028947-.0025541.0047677-.0034055-.0080029-.0095353-.0122597-.0129408-.0204329l.0154949.0156652ZM44.7449491,77.9336489c-.0034055.001873-.0069812.0034055-.0103867.0051082,0,0-.0154949-.0156652-.0119192-.0126003.0076623.0034055.0148138.0044271.0223059.0074921ZM44.7449491,77.9336489c6.3062635-2.9597006,12.6002672-5.9444315,18.9238986-8.9800742-.3415694.2594974-.6638979.5506657-1.0279434.7737245-5.1969291,3.1842918-10.6593152,5.8277938-16.3629794,7.9706906-.4781291.1794687-.9734558.4767669-1.5329757.2356591ZM60.3433988,88.9994079c-4.6898535-4.1362931-10.331538-6.6410219-15.8347898-9.3803881,6.1417789,1.661192,11.5772617,4.5282636,15.8347898,9.3803881Z"/>
  </g>
</svg>