<?xml version="1.0" encoding="UTF-8"?>
<svg id="Layer_2" xmlns="http://www.w3.org/2000/svg" viewBox="0 0 77.0193363 213.7981757">
  <g id="Layer_1-2" data-name="Layer_1">
    <path d="M72.8693106,117.932746c-3.0907617-7.8824334-6.5069413-15.6212704-10.0988748-23.2832529-2.8887155-6.1625121-6.0644216-12.1883042-8.240211-18.6736049-4.271084-12.7307347-6.6056386-25.8052918-7.0396639-39.2085028-.1474392-4.5503892.2182261-9.0803513,2.7307594-13.1172316.8435785-1.355065.3697103-2.6820175-.2811254-3.8586993-1.6958538-3.0660874-1.8641245-6.2444227-1.2294687-9.6146919,1.3012669-6.9124496-2.7091188-9.2033184-7.2350359-9.9637728-2.5060613-.4210814-5.0074708-.1551246-7.5038242.2550354-6.8264939,1.121468-8.380167,6.4286711-7.7143649,10.926678.1601808,1.0830408.1181131,2.172958-.0396407,3.2642909-.3418,2.3630716-.8866575,4.6800305-1.6357859,6.9403598-.3126762.9434893-.2174171,1.7423709.3082267,2.5297244.3484742.5218012.7036226,1.0413776,1.089715,1.5354707.4574861.5857117.7729938,1.2323002.9319611,1.9516981.3854857,1.7458091.6439593,3.5116409.8091963,5.2920345.5561834,5.9885784.2789007,11.9666398-.1559336,17.9491507-.8334661,11.4701197-3.4428764,22.4977197-7.7182076,33.1859467-4.8741891,12.1860794-10.0808747,24.2277534-15.2835154,36.2728656-2.3379928,5.4127769-3.9863181,10.9932177-4.3811072,16.9077731-.309238,4.6341201-.1941586,9.2611615.1126524,13.8902254.4595086,6.9357081,1.1584795,13.8461352,2.0785079,20.7353262.6872404,5.1470223,1.4062339,10.2891907,1.9440127,15.4564378.4081375,3.9220031.343418,7.869894.7551959,11.7878521.4973291,4.7322106,2.6913209,8.2796495,7.1466533,10.2988986,2.4836117,1.1253107,5.0473138,1.971923,7.7020277,2.5485335,6.8596627,1.4899648,13.810135,1.9777882,20.2224239,1.8323715,5.7974535.0155731,10.9804761-.2689905,16.1028241-1.2476711,4.1483192-.7926119,8.1342328-2.030575,11.7488182-4.3165899,2.168104-1.3712449,3.5878886-3.1967399,3.9588123-5.7626668.1276188-.883017.2277318-1.7737194.2706085-2.6640174.2394622-4.9939202.7187912-9.9651886,1.3105703-14.928367.6698471-5.6172501,1.3795371-11.2308597,1.8447087-16.8699527.6259591-7.5863416,1.1307714-15.1809754,1.5277852-22.7828901.4888346-9.3620835-.5921836-18.4796485-4.0387005-27.268762ZM27.199777,70.3545932c.3658676-1.8819224.7297126-3.7646538,1.0618047-5.6526436.1547201-.8793765.1933496-1.7666407.0988995-2.6682646-.2916424-2.7888047.1886979-5.5501036.401261-8.3162565.3832609-4.9862347.6399143-9.9746942.6231277-14.9754909-.0054607-1.6090891.173327-3.1599307.9616917-4.6051986.4180477-.7667241.5440485-1.6264825.5509249-2.4965556.0052585-.6949259-.004854-1.390054-.0129439-2.0851821-.0271013-2.3687345.6188804-3.1299979,2.9742666-3.7246085,3.6374394-.9186127,6.7138415.1444054,9.4427807,2.5459042.3725418.3280471.7392183.6633751,1.1232882.9770625.2081137.1698887.4734638.3246089.7171732.107394.2208554-.19699.1935518-.4912616.0655285-.7394206-.3205639-.6209029-.7282969-1.1851763-1.2254237-1.6754267-2.7004221-2.6628039-5.968758-3.1997737-9.5489611-2.5143535-.6306109.1209446-1.2458508.3223841-2.0916541.5454642.8441853-1.0268157,1.8202366-1.5587293,2.4987803-2.4225326-1.8809111.5171494-3.4297302,1.5362797-4.437939,3.2339537-1.0086133,1.698483-.6069478,3.7284513-1.1220747,5.760442-.3486764-1.9217653-.672274-3.6261135-.9622984-5.3359224-.1520909-.8967699-.3877104-1.7356967-1.0725238-2.3903751-.8931294-.853691-.9495568-1.7435844-.3140919-2.8369398.8949497-1.5399201,1.724573-3.1299979,2.2360595-4.8527507.1492594-.5033965.2431027-1.0274224.3126762-1.5486168.0378205-.2835524.0469217-.6518469-.2706085-.782904-.3130807-.129439-.3509012.3462494-.708881.4239129.405306-1.8137646-.2263161-3.5219555-.3513057-5.2445061-.2020463-2.7867822,1.0480518-5.2416746,3.7233951-6.6183802,2.4643981-1.2683004,5.121539-1.4652904,7.8330848-1.2066146,1.9717207.1880911,3.8303845.7084765,5.460912,1.893046,1.4349532,1.0421866,2.1739692,2.4350721,2.2423292,4.2136454.0639105,1.667539-.2269228,3.3002912-.4483849,4.9358749-.3909464,2.887502.106585,5.6281715,1.4252452,8.1754915.6977574,1.3477841.8083873,2.4939264-.1411695,3.7031702-.2000238.2546309-.3191481.57297-.5084528.9226577-2.7979059-2.6512757-4.6236032-5.6138119-4.0352623-9.631883.3258223-2.2239246.6350603-4.4587706.3175302-6.7203135-.1615966-1.1505918-.3543394-2.2890486-.9252869-3.3217295-.1211469-.2194396-.23117-.5501159-.5679138-.412587-.2546309.1037535-.1543156.4010588-.1496639.6202962.004854.2309678.001618.472857.067551.6902742.9105228,3.0039971.6761168,6.0375225.1239783,9.0453623-.7212182,3.9272616.6775325,7.1864963,3.1348519,10.04447.9082981,1.056344,1.2838735,2.0016535,1.0318719,3.3462016-.3118672,1.6653142-.1854619,3.3674377-.1403605,5.0535835.2234846,8.3787512.9044553,16.7097718,2.542466,24.9473536,1.3758966,6.9189215,3.291999,13.6833251,5.6413177,20.3298179.1086074.3070132.2162037.614431.2548331.9693771-.6374873-.4949021-1.0717149-1.1522098-1.4699422-1.8329782-1.7551126-3.0009634-2.7513887-6.2897264-3.5844503-9.6308718-1.7567306-7.0449223-2.7404673-14.2164522-3.3933255-21.4365218-.2801142-3.0970314-.4853964-6.2013438-.7024091-9.3038359-.0970793-1.386818-.1401582-2.776063.028517-4.1647013.0515734-.4239129.0647195-.8654214.0052585-1.285896-.0560228-.3955981.006472-1.0144785-.5525429-1.0233775-.6247456-.0099102-.6991731.5790375-.7545892,1.091333-.3972161,3.6697992-.3211706,7.3444524.0521801,11.0029257.6718695,6.5801553,1.360728,13.161524,2.5240614,19.6789822,1.0492653,5.8779484,2.5301289,11.629087,5.295675,16.9700657.3399797.6567009.1512819.8401403-.4548569,1.0100291-.6342513.1779787-1.2828623.3721373-1.8556301.6860269-.8340729.4570816-1.2353339.1688775-1.7033369-.5711498-2.8656591-4.5309734-7.0465403-6.2296586-12.2516079-5.3747541-3.2121108.5278686-5.7428464,2.2615428-7.6466116,4.9120095-.1870799.2602938-.2898221.7885669-.7507465.6334423-.5232169-.1759562-1.0243887-.4572839-1.4812681-.7709713-.206698-.1419785.0139551-.4257331.100922-.6289929,3.4475281-8.0470637,4.7965256-16.5332089,5.3007312-25.2009733.2056867-3.5363152.4180477-7.0710124.3468562-10.6156198-.0129439-.6427458-.0448992-1.2820533-.3430135-2.0356312-.4506097.5814645-.4224971,1.1008386-.4208791,1.6129319.0196181,6.2953893-.2606983,12.5719696-1.2221877,18.8030439-.6417345,4.1588361-1.6094936,8.2371773-3.1097731,12.1771805-.1759562.4619356-.3990363.9062756-.607959,1.355065-.0523824.1124502-.1348998.2111474-.3822497.2671703.4008565-2.0095412.8096008-4.0176666,1.2007494-6.0292303ZM16.2621776,95.2746433c1.8552256-4.7026823,3.7003387-9.4094096,5.5262383-14.1236202.2006305-.5181607.4368568-.4829694.8907024-.3448337,1.6473141.5017786,3.2499313,1.117423,4.8234247,1.8078994.506228.2220689.8306346.1961811,1.1445243-.3110582.3640473-.5883409.8152637-1.1236927,1.2371541-1.6756289,4.3618936-5.7056327,14.0853952-5.4194511,17.6504297,1.0167033,1.0076021,1.8190231,1.0955802,1.7654272,3.0472783,1.1412883,1.4792456-.4730593,2.9698171-.911534,4.4391525-1.4131103.4564749-.1559336.64133-.0586521.8110165.3680923,1.9438104,4.8899645,4.3722083,9.5550286,6.6764255,14.2769245.3155077.6465885.0806972.7644994-.4714413.8985901-2.8707153.6961394-5.4857886,1.9173159-7.7264998,3.8724522-1.4145261,1.2343227-2.5305333,2.6973884-3.3174823,4.4076018-.4144072.9006126-.8508595,1.7911128-1.2618284,2.6933434-2.2443517,4.9277849-6.1740402,7.1250127-11.4834681,7.1023609-1.8220568-.0451014-3.6170123-.2722265-5.3769789-.7871512-3.4068761-.9968829-5.6532503-3.1534588-6.7233472-6.551436-.5557789-1.7638092-.9720063-3.5727199-1.6849323-5.2863715-1.4460768-3.4752361-3.9921833-5.6073399-7.7169941-6.2599959-.5875319-.1029445-.6971506-.2902266-.4833739-.8320504ZM7.4544573,200.8277358c-1.0694901-6.0274101-1.7723037-12.0857642-2.3141274-18.1649499,1.0553327,6.0229606,2.6280171,11.9769545,2.3141274,18.1649499ZM10.8942999,204.3628375c2.3703525,1.8778774,5.05237,3.1599307,7.5384087,4.8644811-2.6749388-.2558444-7.7129492-2.6979951-7.5384087-4.8644811ZM63.5606207,173.868414c-.1144727,3.8049012-.4309916,7.6124316-.2188329,11.4155126.268586,4.8149303-1.7470226,8.3787512-5.4948897,11.2306575-3.964273,3.0163343-8.4390213,4.6557607-13.3170531,5.2212475-5.9426679.6888584-11.8293131.3925644-17.5638673-1.4936052-7.7871744-2.5608706-12.4214967-8.3823917-12.9441068-16.5457483-.4908571-7.6700725-.3422045-15.3541001-.0867646-23.0312512.1328773-3.9994643.2267206-8.0088387,1.0802093-11.9470217,1.2838735-5.9234543,3.4402471-11.4660747,7.261935-16.2423755,5.5272495-6.9080001,14.1442495-9.390196,22.5713381-6.7067628,8.0102545,2.5507582,12.8203308,8.1811545,15.6457424,15.8208896,1.8871808,5.1025276,2.7455235,10.408315,3.1556835,15.8043053.4172387,5.493474.1466302,10.9839143-.0893938,16.4741523ZM68.3193259,200.4145421c-2.3179702-1.8554278-4.6883227-3.4960677-7.4935095-4.5728388.677128-.7782523,1.2935815-1.4549758,1.871001-2.1632501.30762-.3769912.642948-.2418892.9859615-.1468324,3.2584257.9004104,4.7847952,3.1213012,4.6365471,6.8829213ZM15.1953167,192.6344464c.8943429,1.4622567,1.8250905,2.9008504,3.2436616,4.2166792-2.8375466.9056688-5.1725056,2.2109807-7.1090351,4.3734218-.5250371-1.3318064-.439486-2.5578369-.1949676-3.7686987.3980251-1.971923,1.4723691-3.5686749,2.8666704-4.9870437.5347451-.5440485.8413538-.4103622,1.1936707.1656415ZM29.0080809,211.2995568c7.0613045-1.7474271,14.0781142-.6018916,21.09816.3007435-7.0380459.1842484-14.0748783.3171257-21.09816-.3007435ZM58.6221166,206.9706297c-5.7141271,1.4788411-11.5619405,1.7065729-17.4208776,1.8101242-.6613526.0117304-1.323312.001618-1.9850691.001618-5.564261.1593718-11.1202298.0893938-16.5991419-1.0340966-3.1957287-.6554874-6.2051865-1.8380345-8.9782158-3.5755514-1.2854915-.8053536-1.3718516-1.5241448-.274249-2.6027361,1.7116291-1.6823031,3.907239-2.5608706,6.0458147-3.5257983.2819344-.1272143.5003628-.0258878.7303194.1348998,4.1390157,2.8957942,8.8105518,4.3258934,13.7650335,4.9249535,6.1623098.7450835,12.210147.2890131,18.0775785-1.8720122,2.408173-.887062,4.613693-2.1462612,6.6675266-3.6669677.5462732-.4046993,1.0065908-.4653738,1.6281005-.209125,2.448016,1.0092201,4.7176487,2.2285763,6.2367373,4.5305689.3951936.5986556.3559574.9404556-.1795967,1.4015822-2.2419247,1.9306643-4.9083691,2.9564687-7.7139604,3.6825409ZM69.2476466,205.1386627c-.4999583.8328594-1.3447503,1.2304799-2.1480814,1.6766401-.2210576.1227648-.4548569.2222711-.682791.3324965.8644101-.7416453,1.6645052-1.4626612,2.167295-2.4615666.1284278-.2556421.2471477-.4795312.5869252-.2952828.3915531.2121587.2323835.4880257.0766522.7477127ZM69.0053528,191.9698578c.0086967.6611504.0010112,1.322503.0010112,1.9836534-.0687645.0513711-.137529.1027422-.2064957.1541134-.8551067-1.7898993-2.5078815-2.3938134-4.176634-2.9548507-.5553744-.1866754-.7634881-.3769912-.5933971-1.0492653.5226101-2.065564.5719588-4.2004993.5703408-6.313794-.0058652-8.0124792.7729938-16.0142392.443531-24.0246959-.3371483-8.1967276-1.6752244-16.2280159-5.7503296-23.4889396-4.7955144-8.5443928-12.3266421-12.7452966-22.0531775-12.6605544-6.3050973.0548093-11.4211756,3.0133005-15.529045,7.7105222-4.1903869,4.7912672-6.3742663,10.5351249-7.6890838,16.6575917-.9770625,4.5499847-1.2399856,9.1764194-1.2620307,13.8162024-.0258878,5.4627322-.4255309,10.9167678-.3563619,16.381118.0491464,3.8864074.4144072,7.729938,1.5797631,11.4587938.1848551.5919814-.0072809.7988816-.5339361,1.0001189-1.9484621.74387-1.9506869.7626791-2.2140144-1.3259412-1.3540538-10.7400026-2.2759025-21.5170167-2.8108498-32.329222-.2780917-5.6223063-.50461-11.2391519-.2105407-16.8709639.3195526-6.1178152,1.495021-12.0631123,3.3087856-17.8987908.2645411-.851264.4566771-1.7249775.6734875-2.5906012.0388317-.1555291.0764499-.3614181-.0887871-.4487894-.2170127-.1146749-.3901374.0388317-.4803402.2222711-.174136.3539349-.3418.7151507-.4692165,1.0878947-3.1223125,9.1349584-4.1204089,18.547604-3.8109687,28.1578465.3697103,11.4842771,1.1649514,22.9363967,2.3333411,34.3642465.2825412,2.7627146.577015,5.5274518,1.1354231,8.2543684.0511689.2497769.2006305.5464755-.004045.7653084-1.0419843,1.1139848-1.7247753,2.4482182-2.4793645,3.8107664-.2908334-2.4466002-.5782285-4.8934027-.8733091-7.3391939-.9313544-7.7173986-1.8616975-15.4347972-2.8098385-23.1501734-.0440902-.3587889,0-1.0177145-.3955981-.9889952-.5535542.0402475-.3733507.6906787-.3343168,1.0707036.2323835,2.2700373.5098685,4.5354228.7687466,6.8030331.0262923.2297543.037416.4621378.0416632.6935101.0034382.198608.001618.4289691-.2479567.4722503-.3187437.0550116-.3747665-.1965856-.4095532-.4330141-.1583606-1.079198-.3320921-2.1567781-.4653738-3.2390099-.7966569-6.4695253-1.4205935-12.954017-1.961406-19.4516549-.6977574-8.381785.44434-16.4749613,2.9281539-24.4653954,1.3500088-4.34268,2.984379-8.5431793,5.0821005-12.5715651.7009933-1.3461661,1.3696269-2.7091188,2.1727557-4.0192846-.5084528,1.2980309-1.0340966,2.5897922-1.5192908,3.8965198-.3331033.8969721-.616049,1.8129556-.9076913,2.7248942-.0831241.2600916-.0970793.5709475.1846529.7009933.3302718.1524954.4773065-.1735292.5871274-.3885194.3153054-.6170602.6194872-1.2430193.876545-1.8861696,2.0115637-5.0327519,3.996835-10.0760207,6.0229606-15.1029074.6081613-1.5087739.6641841-1.4875378,2.1668905-.9111295,1.6776514.6433525,2.7420853,1.904372,3.5290342,3.4544045.7824995,1.5415381,1.2393789,3.2017962,1.7723037,4.8345484.6583189,2.0168221,1.360728,4.0105879,2.7710068,5.6621493.4556659.5335316.9406578,1.0496698,1.5496281,1.3813573,5.0748196,2.7639281,10.3092133,3.6556418,15.7812489,1.2102551,2.1193621-.9471298,3.7146984-2.4993871,4.9292007-4.4632201.9064778-1.4658972,1.6246623-3.0296827,2.3915886-4.5673781,1.664303-3.3371004,4.1307236-5.7768242,7.6791737-7.0857765.7517577-.2772827,1.1060971-.1456189,1.4705489.5482957,2.1543511,4.1046335,3.4196178,8.51446,4.5368386,12.9780846,1.4466836,5.7798579,2.1966211,11.6956268,3.4082919,17.5203839,1.0375349,4.9876505,2.1341263,9.9621548,2.4546902,15.063469.505419,8.0426142.6425435,16.078352-.8191065,24.049977-1.4029979,7.6522746-1.7925285,15.3712912-1.6887751,23.1301508ZM73.6471584,172.8658681c-.8739158,8.883968-2.1521264,17.7240481-3.0013679,26.6320837-.0616858-.8300279-.1820237-1.660258-.1755517-2.4896791.0546071-6.9472363-.1229671-13.9060008.5958241-20.828765.4198679-4.0433522,1.0702991-8.0624346,1.6050442-12.0938541.6813752-5.1375166.5986556-10.2964716.4502052-15.4604828-.2046755-7.1175295-1.8441019-14.0093497-3.1368744-20.9642715-1.0385461-5.5881263-1.894664-11.2088146-3.3241565-16.7178618-.3053952-1.1770863-.6356671-2.3477007-.954613-3.5211465,1.2363451,1.5391112,2.1296768,3.2598415,2.9069178,5.0303249,4.1123189,9.366533,6.5494135,19.1128886,6.5935037,29.3972253.0444947,10.3676631-.544453,20.7027642-1.5589315,31.0164269ZM17.0050364,150.2540803c-.9307476,5.9906008-.5515317,12.0180109-.3005413,18.0332861.1791922,4.2967696.4649693,8.5890897.681173,12.8846458.0157754.3157099.2641366.8722978-.1990125.9301409-.5820712.0728095-.5440485-.5446552-.5966331-.9483433-.342609-2.6282194-.437059-5.2766636-.5347451-7.9194449-.2346083-6.347974-.6526559-12.7020154-.2261138-19.0507983.5505204-8.1940984,3.117054-15.5899218,9.0868233-21.5200504,1.0844565-1.0773778,2.312914-1.9747544,3.5982032-2.7956811.2202486-.140765.4572839-.2552376.7218249-.401261.1098209.0736185.2586758.1211469.3007435.2160014.0420677.0954613.0212361.2803164-.0481351.3515079-.1824282.1868776-.3988341.3440247-.614431.4944976-6.8922247,4.8088628-10.5990354,11.5489966-11.869156,19.7254994ZM60.5066682,190.6827483c-.9519837,1.9836534-2.447207,3.5181128-4.1113077,4.9053353-3.2278862,2.6909164-7.0402706,3.9877339-11.122859,4.6223897-1.8985068.2950806-3.8075304.4762952-5.7341497.434632-4.1604541-.0479329-8.2424357-.5385878-12.1306633-2.1438342-3.4258875-1.4145261-6.0359045-3.7567661-7.9285461-6.9231687-.1183154-.1980013-.2297543-.4024745-.3189459-.6146332-.0999108-.2374397-.2776872-.5264529-.0010112-.7224317.2942716-.208316.4698233.1096187.6417345.2786984.1624056.1599786.3009458.3551484.41016.5565879,2.1956098,4.0482062,5.7942175,6.2539284,10.0454812,7.5214198,5.2803041,1.5741001,10.6275524,1.425043,16.0174752.5398013,5.8532741-.9610849,10.4540232-3.7424064,13.5846279-8.8386644.1456189-.2370353.2671703-.6225209.6546784-.3960026.379216.2216644.1110344.5347451-.0066742.7798703ZM62.205758,164.9061758c.0465172,5.8585326.0430789,11.7174696.0596633,17.5764067.0006067.1984058-.0010112.3970138-.004045.5956219-.0034382.2449229-.0347867.4661828-.3569686.4795312-.3015525.0125394-.4119802-.1549224-.4212836-.4249241-.0080899-.2315745-.0173934-.4631491-.0173934-.6949259-.0012135-4.2698705-.000809-8.5397411-.000809-12.8096116h-.1510796c0-4.2698705-.0078877-8.5397411.0121349-12.8094093.0020225-.4279578-.1672595-1.1983224.2894176-1.2088393.54688-.0123372.3365415.7574207.3537326,1.1586817.1158884,2.710939.2149902,5.424305.2366308,8.1374688ZM60.5556124,147.9876835c.0774612.2859794.1205401.58106.1686753.8172862-.0487419.2333948.0823151.4938909-.2226756.5284754-.2894176.0329665-.4002498-.1816192-.4694188-.4160252-.2528106-.8553089-.4920706-1.7150674-.7553982-2.5671403-1.7870678-5.7847119-4.7253342-10.8312167-9.4476346-14.7358264-.7946344-.6569032-1.6527748-1.2106596-2.5515672-1.7096066-.4912616-.2728332-.9705906-.5681161-1.4450656-.8690618-.1909226-.1211469-.4495984-.2811254-.3365415-.5381833.130248-.2962941.4006543-.1015288.6045208-.0438879.8055558.2277318,1.522729.6431503,2.2069357,1.1081196,2.7364223,1.8584616,5.1087973,4.0882514,6.9810118,6.8349884,2.4269821,3.5607873,4.1434652,7.4405204,5.2671579,11.5908621ZM7.8880781,122.7072266c-.100113.4498007-.1965856.9056688-.3561596,1.3362559-1.9842601,5.355136-3.0612334,10.9301162-4.0314195,16.5317932-.0451014.2602938-.0550116.5351496-.1498661.7762298-.1171019.2977098.1433942.808185-.4158229.8623876-.2437095.0234608-.3240021-.2756647-.275867-1.1863898.5559812-4.3220506,1.5702574-8.7951809,2.8907379-13.1999512.5307001-1.7706857,1.121468-3.5235735,1.6853368-5.2845513.0679555-.2121587.0863601-.5296888.3848789-.4803402.340991.0562251.3266313.3810362.2681815.644566ZM16.9823845,106.1548041c-1.0292427,3.2756169-2.2526439,6.480649-3.5800009,9.6462427-.0954613.2277318-.1433942.5240259-.4524299.5739813-.2406757-.0813039-.3519124-.233597-.301957-.4591041.0570341-.2568556.1322705-.5112842.2186306-.7602521,1.0806138-3.117863,2.2386887-6.2068045,3.5065847-9.2536783.1100232-.2639343.1071917-.7907917.5760038-.6085658.4570816.1777764.1168996.5950151.0331688.8613764ZM35.4707298,7.530341c.0058652,3.249729-.0776634,6.4875254-.9978941,9.6365347-.5218012,1.7854498-1.2624352,3.4778654-2.344667,5.0036281-.1711022.2414847-.3674855.4758907-.5927904.6653976-.3351258.2815299-.7331508.8466123-1.1471535.4285646-.3157099-.3187437.2708108-.643757.508655-.9224555,1.6742132-1.9620128,2.4085775-4.3281181,2.7552314-6.7997971.3163167-2.2556776.3943846-4.5443218.6154422-6.8145613.0604723-.6196894.2382487-1.2312889.3968116-1.8374277.8053536-3.081256,3.125144-3.4726069,5.8595438-2.9332101.3140919.0620903.60715.2265183.8911069.6690381-1.084052.0026292-1.9674735-.3432157-2.9028729-.2801142-2.1794299.1472369-3.0452558.9914222-3.0414131,3.1844028ZM42.4497191,30.0337236c.003236-.2507882-.2123609-.6801617.205889-.7307239.3862947-.0465172.4000476.3705193.4204747.6593301.1116412,1.5827968.2469454,3.1651892.3082267,4.750413.2898221,7.5046332.8079828,14.9904573,1.7716969,22.4418991.0509666.3923621.0631015.7916007.0669443,1.1880077.0020225.2052822.1413717.5161382-.1789899.5749925-.3438225.0633038-.4360478-.2420915-.4781155-.507037-.1820237-1.1418951-.4010588-2.2809587-.5153292-3.4301347-.6674201-6.7152573-1.079198-13.4491214-1.6111116-20.1870305,0-1.5866396-.0101124-3.1734814.0103147-4.7597164ZM30.7300247,16.0241716c-.2006305,2.1662838-.6945214,4.2334658-1.6823031,6.175456-.2481589.4878234-.2501814.4868122-.813039.741443-.1504729-.4233061.073214-.7798703.2244958-1.1249062,1.0444113-2.3820829,1.3437391-4.8851105,1.3186603-7.4599363-.0230563-2.3800605-.071596-4.7651771.3104515-7.1294622.1328773-.8219379.3666765-1.6078756.7847242-2.3353635.2218666-.3858902.4609244-.638903.9351971-.3371483.5743858.3654631.0966748.5919814-.1067872.8326571-.6148355.7272856-.7173755,1.6169768-.8065671,2.50505-.271822,2.7050738.0861579,5.4220803-.1648325,8.1322103ZM43.6326706,4.371826c-.0728095-.0928321-.0922253-.2277318-.1674618-.4243174,1.1811313.1086074,1.7168876.8751293,2.0803282,1.7741239.545262,1.3489976.5205877,2.780917.4299803,4.199488-.1324728,2.0783057-.5590149,4.1139369-.9859615,6.1475457-.0544048.2596871-.1029445.5883409-.4506097.5240259-.300339-.0556183-.3221819-.378407-.3324965-.6455772-.0606746-1.5672237.3233954-3.0780201.607959-4.5985244.4633513-2.4767352.476902-4.8636722-1.181738-6.9767646ZM38.7487736,21.0743169c2.17134.9044553,4.1003863,2.2097672,5.9521736,3.8247216-.6249479.3589911-1.0175123.1268098-1.4019867-.0222473-.8959609-.3476652-1.7061684-.8563202-2.4955444-1.3975372-1.3479863-.9244779-2.7374336-1.7201236-4.4634224-1.6103026-.1998215.0127417-.5266551.0796859-.5958241-.1996193-.0847421-.3413955.2552376-.4285646.4847897-.5122955.8276009-.3015525,1.7181011-.4164297,2.5198142-.0827196ZM45.3501649,62.1604948c.3854857.2226756.3721373.6154422.4336208.9584557.4188567,2.3416332.8933317,4.6691091,1.5888643,6.9480453.3191481,1.0454225.7612634,2.0400807,1.148367,3.0573907.1282256.336946.5553744.8820057-.0111237,1.1020521-.4552614.1767652-.5891499-.4309916-.7355778-.7677353-1.0047706-2.312105-1.6119206-4.748795-2.1709355-7.1955975-.2495747-1.0929509-.4279578-2.2032953-.6031051-3.3112126-.0463149-.2930581-.1029445-.6742965.3498899-.7913984ZM32.2214052,15.704619c-.1706977-.7818927-.1098209-1.5759204-.131057-2.5695673.1197311-2.3329366.2722265-4.8658969.7620724-7.3640705.0580453-.2954851-.0388317-.808994.3958003-.7754208.4578906.0355957.2643388.5139135.2473499.8164772-.1860686,3.2909877-.374362,6.5817732-.5830825,9.8713452-.0159776.2501814.1437987.7028136-.2831479.7151507-.3654631.0107192-.3464517-.4123847-.4079352-.6939146ZM28.0146362,104.6753562c.4508119.2780917.5351496.6872404.5960264,1.0652429.4572839,2.8345129,2.3808695,4.3513767,4.8640766,5.2465286,2.8482658,1.0268157,5.7853186,1.0860745,8.683742.2000238,2.4259709-.7416453,4.1297123-2.4166674,5.4190466-4.5590859.6134197-1.0193325,1.2751769-2.0099457,1.927226-3.0056151.1397537-.2131699.3118672-.4934864.6275771-.2552376.235215.1773719.1272143.4263399.0159776.6302064-1.1904347,2.1792277-2.3630716,4.3724105-4.2000948,6.1058825-2.1027778,1.9842601-4.708143,2.6454105-7.4854196,2.6615904-3.4544045.0200226-6.614133-.8401403-9.0665984-3.4984947-.8848372-.9590624-1.386009-2.0851821-1.6173813-3.3451903-.0766522-.4166319-.1638213-.8591517.2358218-1.2458508ZM29.4115667,86.2582025c.3415977-2.0501931,1.2757836-3.8103619,2.6646241-5.3345067,1.8012252-1.9767769,4.101802-2.815906,6.3241086-2.8986256,3.9711495.0117304,7.3001599,2.9233,8.6938544,6.0613878.172518.3883171.2085182.8619831-.2378442,1.0381416-.6358693.2509904-.7460948-.3500922-.9250847-.7553982-1.421807-3.2210098-3.830789-5.1089996-7.3911718-5.2730231-3.0375704-.1397537-5.2172025,1.3955147-6.8036399,3.8688117-.536363.8360953-.9372196,1.7445956-1.1493783,2.7271189-.0624948.2890131-.1490572.576206-.2582713.8506572-.1116412.2807209-.277485.582678-.6425435.4710368-.3680923-.1126524-.3240021-.4589019-.2746535-.7556004ZM18.0779647,93.65079c.0865624-.1682708.2861816-.1585628.4400928-.1071917.437059.1464279.8820057.2831479,1.2970197.480138,2.7291414,1.2972219,4.9478075,3.2717741,7.0673719,5.3729339.1355065.134293.2236869.3167212.3066087.437059.0242698.4528344-.206698.4388793-.4273511.2825412-.5377788-.3806317-1.0893105-.7539824-1.5708642-1.1999404-1.898709-1.7589553-3.8825646-3.3878648-6.2889174-4.4235794-.240069-.103349-.4601154-.2600916-.6759145-.4111712-.1427874-.0999108-.2305633-.270204-.1480459-.4307893ZM53.6696574,98.1831791c1.9929568-1.4317172,4.1980723-2.4536789,6.4784243-3.3275947.3112605-.1193266.7204092-.2908334.8666349.0936411.1793944.471239-.3699125.4566771-.6198917.5630598-2.275498.9679614-4.4992203,2.0293615-6.5397055,3.4426741-.1595741.1104277-.3420022.1876866-.4902504.267777-.3185414-.0813039-.4591041-.2390577-.2611028-.4971268.1575516-.2052822.3551484-.3911486.5658913-.5424305ZM48.2999595,87.409401c-.1539111-.1694843-.1838439-.3739575-.0677533-.5442507.1836416-.269395.3810362-.5489025.6320266-.7499375,1.2788173-1.0239842,2.7594787-1.6732019,4.2834212-2.2318123.2815299-.1031467.5842959-.199417.7568139.1834394-.0266968.2744512-.2406757.4010588-.4400928.4963178-1.6432691.7847242-3.2266727,1.6649097-4.648682,2.814288-.1539111.1245851-.3260246.240878-.5157337.0319553ZM23.9900931,83.3607903c1.3358514.3873059,2.5293199.8043423,3.5711019,1.5755159.208316.1541134.4805425.344227.3235976.6384985-.1961811.3684968-.4779132.0513711-.6658021-.037416-.8886799-.4204747-1.7642137-.8702753-2.6280171-1.3400986-.2649455-.1440009-.6298019-.2526084-.6008803-.8364998Z"/>
  </g>
</svg>