<?xml version="1.0" encoding="UTF-8"?>
<svg id="Layer_2" xmlns="http://www.w3.org/2000/svg" viewBox="0 0 198.3893892 294.09329">
  <g id="Layer_1-2" data-name="Layer_1">
    <path d="M52.7258753,183.0536817c-.0392456-.3373413-.2263794-.8353271.1536255-.9693604.4457397-.1572876.6220703.3761597.8395996.6828003.1355591.1911621.2319946.4228516.2955933.6503906.9771729,3.4940796,3.2119751,6.0828857,5.9539795,8.3123779.4284058.3483276.9040527.6541138,1.4036255,1.4897461-2.2894287-.9376221-3.9006958-2.2609863-5.3225708-3.8164673-1.65979-1.8157349-3.0288086-3.8104248-3.3238525-6.3494873ZM171.0936731,182.7779859c.0474243-.1489258.052124-.3145752.0570679-.4730225.0084229-.2684326-.1177368-.4686279-.3779297-.5377197-.2702026-.0717163-.454834.062439-.5655518.3121338-.210144.4736938-.4290161.9435425-.635498,1.4188232-1.2371216,2.8476562-3.0402832,5.2262573-5.6799316,6.9281616-.5617676.3621826-1.0754395.7989502-1.6112061,1.201355,4.8453369-.8466187,7.6270142-5.121521,8.8130493-8.8497314ZM95.1174768,143.3286451c-2.6118164-1.6125488-4.9674683-3.0128174-6.9990234-4.8870239-2.057251-1.8979492-2.7973633-4.7626343-4.9591064-6.7776489-.3562622,4.6021729,6.4099731,11.2559814,11.9581299,11.6646729ZM84.4247278,185.1417554c-.2739258-.5755005-.4552612-1.1953735-.7324219-1.769043-.2290039-.4741211-.6019897-1.0297241-1.156189-.8186035-.4405518.1677856-.2025757.8005981-.1031494,1.187439.1977539.7692871.4245605,1.5499878.7770996,2.2573242,1.5715942,3.1538696,3.9086914,5.6259766,6.8803101,7.5039062.4631958.2927856.9212646.6147461,1.8551636.7318115-3.510498-2.4766235-5.8275757-5.5352173-7.520813-9.0928345ZM98.5835413,174.0130933c.8222656-.37146,1.7467651.053894,2.5735474-.3135376.1708374-.0759277.3991089-.1869507.4500122-.3340454.1028442-.2972412-.213501-.3670654-.4014893-.4819336-.9224243-.5635986-1.8651733-.0254517-2.7982788-.0344238-.3585205-.003418-.7900391.0623169-.7221069.5657349.0631714.4683228.4504395.6057739.8983154.5982056ZM116.5373987,182.5124219c-.7727051-.2931519-.7902222.6415405-.9725342,1.0736694-1.729187,4.0983276-4.2000122,7.6046143-7.8920288,10.1748657-.2149048.1495972-.4829712.2805176-.5111694.6216431.4355469.1014404.7609863-.1711426,1.1064453-.3320923,4.3377075-2.0203857,6.8789062-5.5665894,8.3848267-9.9640503.1733398-.5061646.6724243-1.2750244-.1155396-1.5740356ZM130.4519495,196.352754c-2.3474121-1.539856-4.9473267-1.4094849-7.62323-1.8236084,2.1755981,1.9397583,5.6644287,2.7802734,7.62323,1.8236084ZM78.6030115,192.1708082c-2.5663452,1.4567871-5.2089844,2.6763916-8.1890869,3.0170898,2.5447388,1.0010376,6.0005493-.2844849,8.1890869-3.0170898ZM138.5176843,192.4006666c3.3604126-.5796509,7.4921875-5.1447754,7.8925171-8.4925537.0550537-.460083.2020874-1.1248779-.3347778-1.2719727-.5291748-.1449585-.5699463.5653687-.7282104.9185791-1.3670654,3.0516968-2.913208,5.9632568-5.7332153,7.9680786-.3809204.270813-.7316284.5841675-1.0963135.8778687ZM67.1965174,173.2734083c1.3641968,1.347168,4.2365723,1.4862671,5.2249146.1377563-1.7925415.0595703-3.4150391-.8344727-5.2249146-.1377563ZM105.8545984,142.9841016c3.8597412-.769043,6.657959-3.1190186,9.0085449-6.1051025.9118042-1.1583252,1.8050537-2.3450928,2.2131348-3.8028564.1350708-.4823608.1987305-1.0839844-.2750244-1.2999878-.5722046-.2608643-.6192017.4519653-.7852173.7637939-2.3448486,4.4036255-5.6584473,7.7858276-10.243103,9.8577881-.2304077.104126-.5567017.1429443-.5726929.501709.1986084.2730713.4377441.1277466.6543579.0846558ZM101.5123132,231.4659742c-.2677002-.6230469-.7565918-.374939-1.1942749-.135498-.6245728.3416138-1.2387695.5246582-1.8341064-.0831299-.1176758-.1200562-.345459-.3006592-.5043335-.1078491-.1030884.1251221-.1259155.3847046-.0784302.5541992.2456055.8758545,1.0105591.8711548,1.4902344.9459839.6223755.0288086,1.0142212-.0101929,1.3727417-.2069702.3917847-.2151489,1.0290527-.3132935.7481689-.9667358ZM130.5334924,246.6846021c-2.6518555-1.7381592-5.0540771-3.7419434-7.0063477-6.263916-.3827515-.4944458-.8111572-.9812012-1.4707031-1.2127686,1.546936,3.1925659,3.5292969,6.0245972,6.5792847,7.9649048.3978271.2529907.8520508.4505005,1.307312.571228.5089722.1350098,1.2431641.531311,1.5164795.0015869.2276001-.4411621-.5241089-.7976074-.9260254-1.0610352ZM151.3693689,238.8868726c-.5064087-.1256714-.4942627.4195557-.624939.7030029-.8925171,1.9360962-1.9396362,3.7687988-3.5835571,5.1709595-.755127.644043-1.6098022,1.170105-2.3984375,1.7769165-.2633057.2026367-.6863403.4573364-.3928223.8535767.2363892.3190918.5936279.0477905.8640747-.0957642,2.326355-1.2345581,4.3306274-2.8425293,5.7806396-5.0737915.4616699-.7103882.7705688-1.4857788.838623-2.6630249.0024414-.0964966-.0228271-.5574951-.4835815-.671875ZM135.5167078,283.0849317c-.2449951-.0022583-.6544189-.1106567-.6793213.2702637-.0214844.3284302.2758789.5546265.6088257.6489258,1.286438.3643799,2.6009521.3805542,3.9081421.2088623.75354-.098999,1.5706787-.1263428,2.3362427-.8771362-2.1625977-.4884033-4.177002-.2324219-6.1738892-.2509155ZM86.6669763,241.0724805c.2684326,4.0682373,4.2268677,8.3707886,7.7369385,8.468689-3.0855103-2.3657837-5.9627686-4.9017334-7.7369385-8.468689ZM107.9780725,246.7587598c-1.1242676.8574219-2.3218384,1.6385498-3.5177002,2.9228516,4.1539917-.7393799,8.7290649-5.463501,9.5327759-9.7231445-1.0802612,1.3671265-1.979248,2.5296631-2.9054565,3.6700439-.9307861,1.1459961-1.9276733,2.2288818-3.1096191,3.130249ZM129.8355554,230.260774c1.119873.0335083,2.2199097-.0928955,3.2965088-.4107666.3375244-.0997314.6265869-.2865601.5130615-.6640625-.1070557-.3560181-.4180298-.4210815-.7801514-.295166-1.8919067.6576538-3.7667236.2300415-5.6502686-.0751343-.3416748-.0552979-.8564453-.4818726-1.0477295.0098267-.1931763.4968262.2355347.8709717.7324219,1.0521851.9499512.3464355,1.9360352.4202881,2.9361572.3831177ZM175.3002161,286.6755689c.2103882.5668945.4467773,1.0379028,1.1589966.9180298-.9501343.46875-2.119751.0552368-3.0661011.7178955,1.6304321.9901123,5.2174683.8063354,6.8643799-.3496704-.8450317-.734436-1.9829102-.043335-2.8242188-.6160278-.585022-.5803223-1.2506714-.90271-2.1330566-.6702271ZM176.4716028,252.8219312c.0411377-.3741455-.3609619-.4868164-.6529541-.5960693-1.77771-.6651611-3.6511841-.677002-5.5261841-.7520142,1.4695435,1.6915283,3.3300781,2.1121826,5.4145508,1.7651978.2791748-.0464478.7235107-.0442505.7645874-.4171143ZM114.9640344,78.8211988c-1.9543457-.1463013-3.9041138-.3981934-5.6190186-.0823975,1.0450439.0253906,2.03479.0530396,2.9573364.0823975h2.6616821ZM179.1900476,262.2100538c-.1555176,6.0012817-.0684814,11.9914551.5507202,17.9671021.2488403,2.4014282,1.7023926,3.758728,3.8700562,4.5517578,1.967041.7195435,4.0331421.9730225,6.0599976,1.4150391.8947144.1951904,1.7892456.4189453,2.6532593.7181396.6660156.2305298,1.4840698.4764404,1.5327759,1.3283081.0476074.8329468-.7022095,1.1965942-1.3301392,1.5446777-1.197937.6639404-2.5031128,1.0532837-3.8282471,1.3552246-8.6253662,1.9653931-17.2818604,1.8510132-25.9535522.3422852-.7915649-.1377563-1.5391846-.4367676-2.2182007-.8718262-1.1375122-.7288208-1.1821899-1.5715942-.0713501-2.3478394,1.376709-.9620972,3.0158691-1.2269287,4.6107788-1.5884399,1.9071045-.4321899,3.84375-.7495117,5.6793213-1.4586792,2.2160034-.8562622,3.605835-2.3296509,3.5747681-4.842041-.074585-6.0274048.605957-12.0634766-.2450562-18.0826416-.4641724-3.2827148-2.1376343-5.7141724-5.010376-7.3286133-1.0091553-.5670776-2.0197144-1.1463013-3.0784912-1.6077881-4.605957-2.0074463-7.8480835-5.407959-10.1505737-9.7927856-.2575073-.4903564-.5227051-.9766846-.8460693-1.5801392-.333374.6516724-.5942993,1.1775513-.8691406,1.6960449-1.4995117,2.828186-3.4957275,5.3710327-6.4619751,6.5267334-4.3470459,1.6936035-5.680542,5.1629639-6.1575928,9.1798706-.65625,5.5265503-.7751465,11.0778809-.1286621,16.6377563.303833,2.6133423,1.5487671,4.3778687,3.8988037,5.4402466,2.2357178,1.0107422,4.6323853,1.4811401,6.9854736,2.1012573.7695312.2028198,1.5345459.4394531,2.2758179.7271729.5369263.2084961.9915771.5908203.9937134,1.2304688.0019531.604248-.4723511.8847656-.9508057,1.1212158-2.2908325,1.1322021-4.7556152,1.6147461-7.2645874,1.9055176-7.5406494.8739624-15.0025024.3937378-22.3840942-1.359436-1.0126343-.2405396-1.9996948-.5768433-2.8908691-1.1273804-1.4561157-.899353-1.4573364-1.8150635.0119019-2.6598511,1.2285767-.7064209,2.6038208-.9914551,3.9766235-1.2698364,1.6827393-.3411865,3.3762207-.6410522,5.041748-1.0528564,2.5294189-.6253662,4.1448364-1.9418335,4.5005493-4.8409424.6543579-5.3323975,1.2878418-10.6369019.5592041-16.0056763-.3348389-2.4671631-.9855957-4.8461304-1.9437256-7.1462402-.2548828-.6118164-.6011353-.8834229-1.2926025-1.012146-5.0569458-.9418335-9.5423584-2.9175415-12.6560669-7.2670898-1.0258179-1.4330444-1.7498169-3.0239868-2.5172119-4.8739624-.1685791.9716187-.2695312,1.7040405-.4250488,2.4247437-1.0015259,4.6410522-3.9321899,7.6513062-8.1449585,9.5498657-.8717041.3928223-1.7631226.8104248-2.6896973.996521-1.3606567.2733154-2.0217896,1.0147705-2.5408325,2.2964478-1.3125,3.2408447-1.8919678,6.5891113-2.0073242,10.0501709-.1732788,5.1993408-.2210693,10.3928833.3799438,15.5758057.3389282,2.9229126,1.8205566,4.9130859,4.614502,5.8202515,1.7439575.5662231,3.5383301.9780273,5.3126221,1.4495239.928772.2468262,1.8397827.5396729,2.6938477.9849854,1.1026001.5748291,1.1746826,1.2158813.1774292,1.9733276-1.0355835.7865601-2.2580566,1.1943359-3.4992676,1.5112305-7.7324829,1.9744263-15.4802856,2.1844482-23.2337646.1246338-1.1967773-.3179321-2.3914185-.6929321-3.3483276-1.5344849-.8946533-.7866821-.8582153-1.3746338.1652222-1.9681396,1.5354614-.8904419,3.263855-1.2778931,4.9480591-1.7732544.727478-.2139893,1.4529419-.4348755,2.180481-.6486816,1.6109009-.4732666,2.6680908-1.5378418,3.3047485-3.0649414.8742676-2.0970459,1.18927-4.3139648,1.3166504-6.5512695.3252563-5.7122192.4508667-11.4238281.0963135-17.1463013-.1644897-2.6549683-1.144104-4.6643677-3.4731445-6.0116577-4.9368286-2.855835-9.0227051-6.588562-11.7410889-11.6546631-.1497803.0471191-.2576904.046875-.2901611.0961914-2.3168335,3.5249023-5.6945801,5.7703857-9.3053589,7.7396851-2.2789307,1.2429199-4.6055298,2.3981934-6.7815552,3.8285522-1.4840698.9755249-2.2052612,2.2322998-2.2866211,4.0652466-.2022705,4.5571899-.4730835,9.107605.0272217,13.6595459.2805176,2.552124.8129883,5.0379028,1.880188,7.3998413.4449463.9848022,1.0516357,1.5995483,2.1374512,1.8607788,2.3280029.5601196,4.6327515,1.2175903,6.9442139,1.845459.772522.2098999,1.5059814.5176392,2.2109375.9053955.8425293.4633789.7764893,1.0275269.2128906,1.6365967-.6147461.6643677-1.4294434,1.0203857-2.2655029,1.2999268-3.8637085,1.2918701-7.8757935,1.6947021-11.9107666,1.9436035-5.5412598.3417969-11.0205078-.1657104-16.4625854-1.2025146-1.6691895-.3179321-2.9124146-1.0387573-2.7749634-1.8642578.2288818-1.375,1.5630493-1.4733887,2.588501-1.7325439,2.9856567-.7545776,5.9613647-1.506958,8.7376099-2.8927002.6420288-.3204346,1.0587769-.7548828,1.3562012-1.4179077,1.2595215-2.8074951,1.9742432-5.7379761,2.064209-8.8092651.1005859-3.4379883.1381226-6.8778076.2302856-10.31604.0917969-3.4267578-1.0595703-6.1182251-4.1806641-7.8952026-3.8726807-2.204834-7.1531982-5.1000977-9.5360718-9.1528931-.4844971.6515503-.8643188,1.1390381-1.2195435,1.6437988-3.6292725,5.1568604-8.3970947,8.7225342-14.5327148,10.3474121-.857666.2271118-1.3074341.6749878-1.6365356,1.5028687-1.2709961,3.1969604-1.9545898,6.4954834-1.9822388,9.9326782-.03302,4.117981-.1401367,8.2327271.1668091,12.3514404.2020874,2.7109985,1.5484009,4.5443115,3.796936,5.8529663,2.0611572,1.199585,4.3716431,1.7245483,6.6179199,2.4244995.684082.2131958,1.3812256.4249268,2.0158081.7484131,1.4967651.7628174,1.5194092,1.7763672.0968018,2.6470947-1.1184692.6846924-2.3876343.9072876-3.6499023,1.0942993-7.8220215,1.1591797-15.6179199,1.1416016-23.357666-.644043-1.4362183-.3313599-2.8908691-.6580811-4.2076416-1.3543091-.7248535-.3833008-1.6184082-.7702026-1.4526367-1.8110352.1638794-1.0289307,1.1201782-1.2023315,1.9345703-1.3173218,1.9002075-.2683716,3.7942505-.5429688,5.6520996-1.0391235,5.2789307-1.4099121,7.5891724-4.6391602,7.4100952-10.0857544-.1248169-3.7949829-.0180054-7.5970459-.0748901-11.3950195-.0423584-2.8286133-.9083252-5.5030518-1.6810913-8.1923828-.1887817-.6569824-.7155762-.6764526-1.1895752-.8294067-6.4190063-2.0722046-11.2973022-6.0178223-14.5166016-11.9644165-1.4243164-2.6311035-2.2973022-5.4455566-2.5516357-8.428894-.1893311-2.2214966.3206177-2.8753662,2.4818726-3.3341064,3.6508179-.7749023,7.3648071-.9985962,11.0775757-1.1897583,4.0192871-.2069092,8.0418701-.3493652,12.2466431-.527771-.369812-.28479-.6251831-.4489136-.8417358-.6540527-.7590942-.7192383-.7166138-1.4942627.1464844-2.1050415,1.2158813-.8603516,2.6512451-1.0828857,4.076355-1.2765503,2.3562622-.3202515,4.6040039-.984375,6.7479248-2.0037231,1.5774536-.75,2.5639038-1.9028931,2.8615112-3.7093506,1.2029419-7.3023682,1.3759766-14.5478516-.821228-21.7220459-.3658447-1.194519-1.0001221-1.8997192-2.1777344-2.4213257-7.1643677-3.1735229-11.5252075-8.666687-13.0532227-16.3435669-.7233276-3.6340332.0697021-4.5403442,3.8048096-4.939209,3.9816895-.4251709,7.9865112-.3844604,11.9749756-.663147,1.9162598-.1339111,3.8150635-.3468018,5.7020874-.7301025,2.1019897-.427002,3.380188-1.6625977,4.0148926-3.666626.8636475-2.7268677,1.0749512-5.5637207,1.4318237-8.3745728.4887085-3.8497925,1.0360718-7.6858521,2.4441528-11.3328857.869873-2.2530518,2.0053711-4.366333,3.7047729-6.1100464.5315552-.5454102.3468628-.7530518-.133728-1.1549072-3.9188232-3.2763672-6.8999634-7.1992188-8.2531128-12.2128296-.2415771-.8951416-.2270508-1.8140259-.2393799-2.7364502-.0133667-1.0026245.5279541-1.4297485,1.3896484-1.65625,1.2526245-.3292847,2.5344849-.31073,3.812561-.3581543,5.4533691-.2025146,10.7154541-1.2476196,15.59021-3.7843018,6.4658813-3.3646851,9.7133789-9.6245117,8.9594116-16.8800659-.3847046-3.7019043-1.1867676-7.335144-1.6398926-11.0248413-.4979248-4.0547485.2616577-7.788208,2.5601196-11.1868286.0782471-.1157227.1416016-.2415161.1425171-.3977661-2.5935059,2.2584229-3.6566772,5.2102051-3.8273315,8.5518799-.1890869,3.7053223.5768433,7.3209839,1.0675049,10.9616089.4122925,3.0594482.7238159,6.1230469.1356201,9.1916504-.5583496,2.9126587-1.8269043,5.4421997-4.1735229,7.3452148-2.2415161,1.8178101-4.9630127,2.0628052-7.3743286.6586304-.4736938-.2758789-1.1898193-.564209-1.0457153-1.163147.1604004-.6668701.9282227-.4407349,1.4558716-.420105,1.0367432.0405273,2.0661621.1801758,3.1025391-.0639038,3.8062744-.8962402,6.2365112-3.9144287,6.5791016-8.1326294.3117065-3.8371582-.4714966-7.5627441-1.078125-11.3084106-.6796875-4.1970215-.802002-8.3528442.8517456-12.3921509,1.1955566-2.9202881,3.0516357-5.1451416,6.2330933-5.9817505.2298584-.0604248.4142456-.1705322.5768433-.3025513,1.5263672-.0509033,3.0457153-.1914673,4.5616455-.3723755h4.9719849c-1.0908813-.1208496-2.1801758-.2096558-3.2317505-.2245483,1.2147217-.1647949,13.6242065-.0961914,22.4931641.1196289-.1410522.026001-.2836914.0482178-.4213867.0823975h3.3787231c2.6945801.0858154,4.7720947.1876221,5.6151733.3023682.225769.2608643.536438.3344116.8787842.368103,3.4328613.3379517,5.538269,2.4190674,6.9822388,5.3468018,1.4786987,2.998291,1.6523438,6.2155151,1.5824585,9.4801636-.0693359,3.2340698-.5580444,6.4672852-.1116333,9.7032471.6204224,4.4978027,2.5579224,8.2817993,6.1592407,11.1403809,1.8446045,1.4641724,4.0358276,1.8244019,6.2892456,2.0293579.5490112.0499268,1.3412476-.0961914,1.4758301.6594849.137085.7693481-.3547363,1.3647461-1.0184326,1.7598267-.7703247.4586182-1.6134033.6694336-2.5078125.7191162-5.5643311.309021-9.7357788-2.0958862-12.7227783-6.6538086-2.4798584-3.7841797-3.5596313-8.0166016-3.493103-12.5155029.0407715-2.7565308.2635498-5.510376.4053955-8.2653809.1817017-3.5270996-.7053833-6.7974854-2.3855591-9.9498901-.0880127.1046753-.1838379.1676025-.2032471.2488403-1.9108276,7.9823608-7.4724731,11.9210205-15.0748291,13.5568237-.7063599.1519775-1.114563.3114624-1.3009644,1.0863037-1.6902466,7.0256958-2.1207886,14.1372681-1.5106201,21.3201904.133728,1.5741577,2.0584106,3.6487427,3.6884766,4.0314941,3.2828979.770752,6.6469116.9143066,9.989624,1.1981812,8.3872681.7122192,16.7915039.0870361,25.1859131.2781372,2.798584.0636597,5.5961914.1421509,8.3791504.4743652,2.3956299.2860107,3.1154785,1.2554932,2.7471924,3.6326904-.7339478,4.737915-2.9871216,8.736145-6.0731201,12.2976685-.749939.8654175-.8079224,1.4707031-.1494751,2.4239502,1.6798096,2.4321289,2.3178711,5.2289429,2.5229492,8.1430054.1375122,1.9547119.3451538,3.9024048.7477417,5.822937.2473145,1.1796875.6097412,2.3135376,1.3430176,3.3037109.3706055.5004272.2696533,1.3410645.4771118,1.6589966,1.041748,1.5962524,1.611084,3.6222534,3.609375,4.4760742.5840454.2495117,1.5016479.4647827.8046265,1.4919434-.0935059.1378174-.098999.5168457.0913086.5172729,1.3045044.0028687,1.3175659,1.3547974,2.0654297,1.9420776.576416.4526367.3354492,1.1624756.1447754,1.7799072-.7542725-.3493652-1.2930908.4957886-2.1119995.2940063-2.1069946-.519165-3.8247681-1.5958252-5.2369995-3.18927-2.8187866-3.180603-4.168457-7.0410156-5.0666504-11.1036377-.4860229-2.1983643-.59021-4.4349976-.6676025-6.6732178-.0841675-2.4352417-.7971191-4.7073364-1.6903687-6.9485474-.2764893-.6937866-.5650635-.6756592-1.1342163-.3747559-2.197876,1.1619873-4.5140991,2.024292-6.9299927,2.616272-.4331055.1060791-.7982788.2371216-.9508057.7636719-1.854248,6.4023438-2.8092651,12.8687134-1.6083374,19.52771.494812,2.7435303,1.9584351,4.4938354,4.6604614,5.3482666,3.3695679,1.0654907,6.8232422,1.6625977,10.2966919,2.2026367.2350464.0365601.4936523.1434937.6921387-.0375366,1.2668457-1.1550903,2.8744507-.8511963,4.3412476-.9217529,7.3990479-.355896,14.7930298-.1640015,22.1762085.4351807.039917.0032349.0800171.00354.119751.0075684,2.574707.2592163,2.953125.6053467,2.8844604,3.1707153-.1711426,6.3949585-3.3656006,11.1829834-8.1851196,15.0627441-1.6361694,1.3170776-3.5522461,2.145813-5.4741211,2.9363403-.6821899.2806396-1.0842896.7144165-1.3741455,1.374939-1.46875,3.3469238-2.092041,6.8622437-2.1875,10.4932861-.1083984,4.1231689-.0669556,8.2277832.8401489,12.2889404.5754395,2.5759888,2.0682373,4.1856689,4.605957,4.793457,2.2119751.5297852,4.4453125.9699097,6.6660767,1.4636841,1.1715088.260498,2.3345947.5622559,3.357666,1.2268066.9418335.6117554.9661865,1.1465454.0544434,1.8383789-.6745605.5119629-1.4700317.7908936-2.276001,1.039978-3.8464966,1.1886597-7.8378296,1.499939-11.8044434,1.9613037-.7923584.0922241-1.5857544.1757812-2.3787231.2633667,11.7868042-.2630615,23.5726318.4067383,35.3658447.5071411.1824341.0015869.3657227-.09729.8237305-.2275391-5.4516602-.625-10.6502686-.9025879-16.0919189-1.7055664.6543579-.5140991,1.1376953-.5776367,1.6264038-.5852661,4.9641724-.0777588,9.9085693.1695557,14.8205566.927002.236084.036438.4710083.0892334.7012939.1528931,2.3756104.6569824,2.8182983,1.2106323,2.4968872,3.6768799-.9911499,7.6060791-4.8442383,13.4137573-11.236145,17.5803833-1.3718872.8942871-2.7941284,1.7142944-4.1380005,2.6479492-2.338562,1.6247559-3.6567993,3.8172607-3.732666,6.7456055ZM120.4026331,81.4774488c1.9782104,3.0543823,3.1037598,6.3497314,3.1272583,9.9628296.0137329,2.1161499-.1032715,4.2367554-.2473755,6.3495483-.2220459,3.2554932-.1320801,6.4760132.8474731,9.6166382,1.2424927,3.9838257,3.1854858,7.5094604,6.7648315,9.8870239,1.9205322,1.2757568,4.0362549,1.8374634,6.6980591,1.5343628-.8560181-.3044434-1.3799438-.4786987-1.8951416-.6759033-4.5796509-1.7525635-7.6229858-4.979187-9.2406616-9.5938721-1.0933838-3.1190796-1.2445679-6.333374-1.0410156-9.5870361.1499634-2.3972778.2011719-4.7962646.1277466-7.1958618-.0577393-1.8850098-.3309937-3.744812-.9413452-5.5358276-.7329102-2.1506958-1.9976807-3.8598022-4.1998291-4.7619019ZM157.0800012,234.1151441c-.243103.0421753-.4638062.2078247-.473999.4702759-.0148315.381958.3232422.4221802.5877075.4440308.87323.0720215,1.7510986.1796875,2.6234741.1531982,3.3086548-.1004639,6.6161499-.2432861,9.923645-.3798218,4.0966187-.1690674,8.1928101-.3475952,12.2891846-.5220337.0020142-.0957031.0039673-.1914062.0059814-.2870483-.8272095,0-1.6555176.0280762-2.4815063-.0044556-6.8606567-.2706909-13.7243652-.0855713-20.5864868-.1351929-.6290283-.0045776-1.2616577.1523438-1.8880005.2610474ZM171.4313196,177.4450391c-6.1479492.1812134-12.2960815.362915-18.4451294.5013428-.8881226.0199585-1.3178711.2127686-1.2392578,1.2034912.0791626.9974976-.1538696,1.9802246-.4070435,2.9525146-.7015991,2.6948242-1.9002075,5.1625366-3.4286499,7.4695435-.4246216.6408081-.4338989,1.0241089.1368408,1.6053467,2.6122437,2.6598511,5.9231567,3.4498291,9.0979004,3.703125,5.7813721-.0749512,9.9638672-2.6716309,13.4511108-6.5481567,2.4852905-2.7628174,3.9506836-6.0628052,4.545166-9.736084.2277222-1.4071655.1694336-1.4555054-1.2036743-1.3406372-.8353271.0698853-1.6702881.164856-2.5072632.1895142ZM155.1255335,213.7422803c.048645-4.8525391-.1021729-8.7660522-1.0415649-12.592041-.4609375-1.8772583-.7570801-3.9057007-2.3986206-5.2233887-1.461731-1.1733398-3.0420532-2.1977539-4.5360718-3.3326416-.6331177-.480957-1.0396118-.385437-1.6085205.1473389-2.5524902,2.3900757-5.3133545,4.5491333-8.6621094,5.6533813-1.8461914.6088257-2.7089233,1.7741699-3.1654663,3.4788208-.0722046.2694702-.1676025.5326538-.2437134.8011475-1.3984375,4.9346924-1.2240601,9.9592896-.8116455,14.9887085.1661987,2.0264893.3323975,4.0640259.8206177,6.0454102.4188843,1.699707,1.2747803,2.6281128,2.5213623,2.6272583,4.8474121-.003479,9.6606445-.3911133,14.3031616-1.8942871,2.6480103-.8572998,4.2805176-2.6630249,4.6447754-5.5263672.258606-2.032959.1460571-4.0686646.1777954-5.1733398ZM150.0272669,175.9733594c6.1618042,1.2268066,12.3239746.0180054,18.479187.1517944-1.2369385-.5995483-16.7652588-.7490845-18.479187-.1517944ZM148.7027429,179.029939c-2.5335083.3583374-5.0751343.6379395-7.6288452.8219604-5.7894287.4172363-11.5872192.4870605-17.3876343.4697876-.6143799-.0018311-1.1005859-.0479126-1.31073.8013306-1.0911865,4.4107056-2.9922485,8.4234009-6.1206665,11.7828369-.4162598.4470215-.3409424.7080688.1546021,1.0089111,4.0437622,2.4545288,8.3001099,4.2786255,13.1901245,4.5371704.7987671-.0911255,1.6886597-.1108398,2.5397339-.3027954,6.6070557-1.4901123,11.6817017-5.1907959,15.3674927-10.8234863,1.3956299-2.1328735,2.2979126-4.4793701,2.5317993-7.0360718.1271362-1.3896484.0042114-1.4492188-1.3358765-1.2596436ZM69.3925012,165.1698316c-.3776855,5.5129395-2.5276489,8.1506348-7.8094482,9.711792-.6500854.1921387-1.3145752.3378906-1.9584961.5477295-.4335327.1413574-.9712524.0158081-1.3050537.461792,7.4440918,1.1113892,14.864624.8582764,22.3012695-.1018677-1.2111206-.4693604-2.4459839-.8352661-3.6677856-1.2404175-2.6107788-.8657837-4.3400879-2.5919189-5.1251831-5.2564697-.4755859-1.6140747-.8103027-3.2509766-.9846802-4.9226685-.5144043-4.9320068-.1970215-9.8040771,1.1035767-14.6717529-1.0397949,0-1.9567261.0141602-2.8729858-.0048828-.6362915-.0131836-.8390503.1765747-.6424561.8497925,1.4019165,4.8011475,1.2979126,9.7121582.9612427,14.6269531ZM80.5666956,128.1882642c-1.5340576-.0003662-1.5525513.0006714-1.1757202,1.5432129,1.2337646,5.0499268,4.0112915,9.1392822,8.0645752,12.296936,5.6288452,4.3850098,11.8310547,6.125,18.7169189,3.2085571,7.1498413-3.0281982,12.0415039-8.1016846,13.9463501-15.8126221.2764282-1.1190186-.0557251-1.2444458-1.0390625-1.2391357-6.4386597.0345459-12.8775635.0177612-19.3163452.0177612v-.0140991c-6.3989258,0-12.7977905.0008545-19.1967163-.0006104ZM91.0204309,126.5116895c-1.625-.5512085-3.2420044-.2935791-4.8587646-.0095825,1.6218262.2285156,3.2421875.3106079,4.8587646.0095825ZM120.6838831,180.5133375c.1228638-.5146484.0404053-.7662354-.5500488-.6912231-.7134399.0906982-1.4291382.1706543-2.1462402.2246704-10.2649536.7728271-20.5411987.668457-30.817688.3458252-2.9112549-.0913696-5.817627-.3382568-8.87854-.5230713.5580444,2.1907349,1.31073,4.211731,2.2338867,6.1541138,3.4633789,7.2873535,9.2042236,11.6922607,17.2310791,12.4570312,12.6212158,1.2025146,20.7855225-8.9921265,22.9275513-17.9673462ZM101.9638513,199.9914869c-1.8595581-.0188599-3.7194824-.0106812-5.6481934-.0106812.1748047.4785767.362854.9489136.8911133,1.0148926,1.5840454.197937,3.178894.1309204,4.7701416.0834961.4672852-.013916.5757446-.3789062.5939331-.7532959.0230713-.4737549-.3825684-.3321533-.6069946-.3344116ZM119.3363489,178.0141309c-4.4993286-.7453613-8.9367065.3961792-13.4136353.4816284-4.5548706.0869141-9.1044312.1768799-13.6585083.0117188-4.5049438-.1633301-8.9698486-1.0281982-13.4920044-.6890869,13.517334,1.8669434,27.0403442,1.4503174,40.5641479.1957397ZM91.3704065,175.2402662c-1.1387329.3782959-2.2903442.7178955-3.4360962,1.0753784,7.7298584.9274292,15.4224243.9449463,23.137146.0631714-1.777832-.7150269-3.6156616-1.2176514-5.3781128-1.9603882-2.8607178-1.2055664-4.5087891-3.272522-5.1016846-6.305481-1.1403809-5.833374-.8380737-11.6029053.6343384-17.3300781.1769409-.6882324.1993408-1.0432739-.675415-.9663696-.6729736.0591431-1.3619385.0314331-2.0355225-.0379028-.7682495-.0790405-.881958.2263794-.7149048.8945923,1.2356567,4.9418335,1.3188477,9.9455566.9225464,15.0003052-.4164429,5.3123169-2.3131714,7.8928833-7.3522949,9.5667725ZM98.1309046,149.0410474c1.1514893.140564,2.3024292.0753174,3.4432373-.1383667.1834106-.0343628.4229126-.0159302.4359131-.2929688.0142212-.3025513-.1963501-.3932495-.4488525-.4462891-.78302-.1643066-1.5733643-.2282715-2.5834351-.1751709-.1466675,0-.5087891-.0341187-.861084.0100708-.3220215.0403442-.8589478-.1719971-.9053345.2941284-.0525513.527771.4832764.6953735.9195557.7485962ZM122.9608606,172.5782178c1.2314453-.5200806,1.9761353-1.397583,2.4685669-2.6035156,1.1104126-2.7194824,1.3841553-5.5654907,1.3898315-8.4619751-.0350952-4.4692383-.7799683-8.8222656-2.1141968-13.0846558-.2107544-.6732788-.5489502-1.0574341-1.2451172-1.2753296-3.0345459-.949646-5.8754272-2.3037109-8.3790283-4.2935181-.4313354-.3427734-.741394-.2980957-1.1547852.019165-2.7526245,2.1124268-5.8103638,3.6536255-9.0924683,4.7533569-.4957275.1661377-.8087769.4050293-.9786987.9238281-2.0113525,6.1417847-2.7929688,12.3839722-1.512207,18.78302.2653198,1.3258667.5424805,2.7241821,1.5831299,3.6922607,3.0959473,2.880127,6.9454956,4.0438843,11.0106201,3.8622437,2.7523193-.1229858,5.4342651-1.2210693,8.024353-2.3148804ZM83.8429407,142.3358472c-2.4691162,2.3337402-5.5669556,3.5535278-8.6228638,4.8430176-.4334106.1828613-.7009888.4363403-.8598022.9024658-2.2373657,6.565979-2.4064941,13.256958-1.0618896,19.9918213.4758911,2.3834839,1.8428345,4.2431641,4.3685913,4.9519043,1.5377197.4315186,3.1065674.7811279,4.6005859,1.3323975,2.3822021.8791504,4.7014771.5886841,7.0435181-.0761719,4.2244873-1.1993408,7.0016479-3.7376099,7.611145-8.2557373.2141113-1.5866699.2799072-3.1867676.2093506-4.7863159-.0809326-4.2958984-.4451904-8.5413818-2.0136108-12.6040649-.2417603-.6264038-.5307007-.9885254-1.1825562-1.1546631-2.5576172-.6519165-4.8010254-1.9393921-6.9042969-3.498291-.7385864-.5473633-1.4915161-1.0755005-2.2313232-1.6212158-.3204956-.2363892-.6176758-.3458252-.9568481-.0251465ZM72.7849573,147.7916578c-.0142822-.3925171-.3736572-.3416748-.6312866-.3768311-1.6168213-.2207031-3.2407227-.2097168-4.8612671-.1646729-.1228638.2875366-.0142212.4919434.1348267.6859131.7784424,1.0128784,4.2092896,1.2689209,5.1278076.3688965.1271973-.1246338.236145-.3428955.2299194-.5133057ZM56.6132044,177.5732129c-1.8074341-.1466064-3.6210327-.2174072-5.4318237-.3226318-.0092773.1190186-.0185547.2380371-.027771.3570557.6679077.1027222,1.3334961.2253418,2.0041504.3050537,7.1976318.855896,14.4329834.960144,21.6676636,1.0731201.3590088.0056152.7194214-.0178833,1.0775757-.0473633.1446533-.0119629.3339233-.0066528.3711548-.2105103.0425415-.2331543-.1016846-.414856-.2888794-.4591675-.3067627-.0726318-.6322021-.0882568-.9498901-.0892944-2.1983643-.0072021-4.3945923.013855-6.5912476.1595459-3.973999.2635498-7.8908081-.446167-11.8309326-.7658081ZM49.9326013,179.0652784c-.8959351-.1486816-.6829834.3428955-.6060791.8109131,1.6574097,10.0919189,10.4741211,17.7173462,21.7489014,17.7800293,3.2920532-.0363159,7.3582764-1.3543091,11.0028687-3.9980469.6227417-.4517822.8556519-.7635498.2641602-1.4639893-2.6477661-3.1351929-4.3953247-6.7518921-5.4351196-10.703125-.242981-.9233398-.609375-1.2269897-1.6043091-1.2354736-8.4711304-.0722656-16.9628296.204834-25.3704224-1.1903076ZM53.2632898,193.5678419c-1.1781006.9694214-2.4504395,1.9265747-3.9067383,2.2897339-2.3522339.5865479-3.1898193,2.3169556-3.852356,4.2957764-.21521.6428833-.4008179,1.2990723-.5481567,1.9606934-1.1983643,5.3814697-1.015625,10.8010254-.4069824,16.2277832.3369751,3.0041504,2.003418,4.9467773,4.8062744,6.0083618,1.6553345.6269531,3.3640137,1.0266113,5.0982666,1.3010864,1.4122314.2235107,2.7810669.8391724,4.2423706.6280518,1.8591309-.2685547,3.6779175-.7362671,5.4909058-1.2315063.7372437-.201355,1.1333008-.5952759,1.3812256-1.3070679,1.2272339-3.5238037,1.4908447-7.180481,1.5913086-10.7077637-.0669556-1.4371948-.0795288-2.7198486-.1953125-3.9932251-.2905273-3.1958008-.8476562-6.336792-2.1894531-9.2857666-.2091064-.4594727-.3840332-.9593506-.9727783-1.1370239-3.3814087-1.0206299-6.3894043-2.7106323-8.9936523-5.1011963-.5563965-.5108032-1.0026245-.394104-1.5449219.052063ZM71.4669031,199.8362134c.3228149-.0391235.8085938-.1090088.7545166-.5889282-.0457764-.4065552-.5091553-.3415527-.78302-.3468018-1.5869751-.0305176-3.1749268-.0149536-4.7625122-.0149536,1.3841553,1.2861328,3.0870361,1.1569214,4.7910156.9506836ZM72.4127039,223.4659131c.2883301,1.8746338,1.4441528,3.2698975,3.5109863,3.619751.8253174.1397705,1.635376.3670654,2.4567261.5327759,2.6203613.5286865,5.2976074.7734375,7.8604736,1.5914307.6146851.196167,1.3052979.3380127,1.5646973.9822998.2974854.7386475.788269.6637573,1.3580933.5187378,1.6731567-.4257812,3.204895-1.2116699,4.7971191-1.8464966,1.3881836-.5534668,2.0213013-1.5200195,2.3774414-2.8853149.8468628-3.2462769.9484863-6.553772.9587402-9.8746948.024353-2.3218994-.0700684-4.640564-.3310547-6.9457397-.3514404-3.1051636-.7706909-6.2026978-2.7171631-8.8215942-.2837524-.3817749-.5263062-.8111572-1.0401611-.9445801-3.2095337-.833374-5.8909912-2.6247559-8.4125977-4.6863403-.5322266-.4352417-.8829346-.4338989-1.4290771.0045776-1.9404907,1.5580444-3.9874268,3.0831909-6.4343262,3.597229-2.4716187.5192871-3.4876099,2.0943604-4.0845947,4.2423096-.1282349.4615479-.281311.9168091-.3931274,1.3820801-1.5631714,6.5063477-1.0419922,13.0319214-.0421753,19.5335693ZM89.5182337,232.6588453c6.847229,1.1419067,13.6495972,1.8630371,20.7553101-.1182861-1.2763062-.4013062-2.2138672-.7416992-3.1751709-.9902954-3.7424316-.9679565-5.852478-3.2972412-6.3633423-7.182373-.9389648-7.1411133-1.3116455-14.2462158.7622681-21.2699585.1415405-.4793091.1741333-.7415771-.4630127-.7227173-1.152771.0341797-2.307251.0097046-3.5716553.0097046.9562378,3.2539062,1.5081787,6.4745483,1.5772095,9.7606812.0923462,4.3971558.1674805,8.7972412-.5893555,13.1569824-.5144653,2.9638672-2.0836182,5.0441284-5.020813,5.9931641-1.3134766.4244385-2.6081543.9069824-3.911438,1.3630981ZM112.2305139,229.769441c.5460815-.46698,1.2774048-.6237183,1.992981-.7608643,2.9004517-.5561523,5.7615967-1.2537842,8.5930176-2.1152344,2.1969604-.668396,3.3630371-2.0969238,3.9813232-4.1991577.8469238-2.8800659.9171143-5.8232422.8823853-8.4710693-.085083-1.4302979-.1594849-2.5466919-.2164307-3.6640015-.1801758-3.5339355-.7640381-6.9818726-2.1931152-10.2462769-.182251-.4163818-.2570801-.9155273-.8562622-1.0518799-3.272583-.7446899-6.1931763-2.3109131-9.0620117-3.9765015-.6954956-.4038086-1.1958008-.3133545-1.8252563.156311-2.2857666,1.7058105-4.7792358,3.0406494-7.5057373,3.90802-.5670166.1804199-.9429932.4937744-1.225647,1.0314941-1.0474243,1.9924927-1.819397,4.0778809-2.2700195,6.2824707-1.053833,5.15625-.5848999,10.3460693-.328186,15.5296021.069397,1.4007568.3059082,2.7796021.8330078,4.090332.3945923.9811401.9210815,1.8609619,1.9245605,2.3530884,1.4015503.6872559,2.8499756,1.2302856,4.3689575,1.6115723,1.0637817.2670898,2.0045776.2931519,2.9064331-.4779053ZM122.9653772,178.5720533l-.0408325.3127441c8.2997437-.0324097,16.6085815.149353,24.855896-1.1159668-.0041504-.09729-.0082397-.1945801-.0123901-.2919312-8.2675781.3650513-16.5351562.7301636-24.8026733,1.0951538ZM129.9234461,167.9453443c-.9266357-5.5813599-.6999512-11.1397705.2857056-16.6854858.1178589-.663269.6330566-1.5345459.3772583-1.9182739-.3544312-.5316772-1.3175659-.1373291-2.0097046-.2506104-.118103-.0193481-.2382812-.0256958-.3572998-.0397339-1.3432617-.1585693-1.3294678-.1616821-1.0425415,1.138855,1.177063,5.3353271,1.6964111,10.696106,1.0942383,16.1734619-.5188599,4.7196655-2.6638794,7.8223877-7.5101929,8.7386475-.8963623.1694946-1.7612915.5053101-2.6407471.7644043,7.5570068.7151489,15.0592651.9242554,22.5689087-.0010986-1.4668579-.3661499-2.9396362-.7098389-4.399231-1.1027222-3.529541-.9501343-5.7531128-3.12323-6.366394-6.8174438ZM131.7814173,147.5014356c-1.7979126-.3796387-3.5792847-.2352295-5.6092529-.3285522,1.5637207,1.4116821,4.4976196,1.5106201,5.6092529.3285522ZM143.4235071,143.4211744c-.1052246.598999.147644.9830322.2844849,1.3838501.736145,2.1561279,1.3423462,4.3359375,1.5548096,6.6194458.1958008,2.1046753.4606323,4.2032471.7161865,6.3019409.5415039,4.4473877,2.2875366,8.3557739,5.2843628,11.6948853.4125977.4596558.8095703.953186,1.5339355,1.1692505-.0908203-.7544556-.5716553-1.1308594-.9952393-1.515686-.8365479-.7600708-1.5980225-1.5929565-2.06604-2.6139526-.4981079-1.086731-1.8325806-1.8571777-1.3243408-3.3417969-.9813843-.703064-1.0592041-1.8208618-1.2719727-2.8566895-.6517334-3.1723022-.8019409-6.4088135-1.178894-9.616394-.3012695-2.5634766-1.0001221-4.9724121-2.5372925-7.2248535ZM148.5099329,127.779817c-2.1577759.0697021-4.3145752.1911621-6.4727173.2201538-6.3573608.0855103-12.71521.1347656-19.0727539.2037354-.5327759.0057373-1.1348877-.1585693-1.2197876.7247925-.3042603,3.1668701-1.5245361,6.0240479-3.1213989,8.7281494-.4221802.7149048-.2663574,1.1097412.3369141,1.5809937,1.1426392.8926392,2.3568115,1.644104,3.6965332,2.1951294,1.09552.4506226,2.1904297.9028931,3.2855835,1.3543701-2.9058228.0223389-5.4569092-.9623413-7.7044067-2.6437378-1.0792236-.807312-1.5861816-.1700439-2.1138916.5582275-.6647949.9176025.4273682.8931274.7603149,1.2175293.3912964.3813477.921936.6256714,1.4065552.9042969,4.2357178,2.4352417,8.7409058,3.7297974,13.65802,3.0328979,6.3692017-.902771,11.1373291-4.4005737,14.8041992-9.4954834,1.5218506-2.114624,2.5884399-4.5057983,3.0470581-7.1045532.2503052-1.4182739.1206055-1.5220337-1.2902222-1.4765015ZM106.2041467,126.457002h38.2132568c-.0096436-.1090698-.0192871-.2182007-.0289307-.3272705-11.9518433,0-23.9037476-.0082397-35.8555298.0162964-.9205933.0018921-1.8649292.1152344-2.3287964.3109741ZM100.652572,121.8366407c-.0344849-.071106-.0856323-.1347046-.1328735-.1990356-1.475769-2.0099487-1.869873-2.076416-3.2427368-.0465088-1.2129517,1.793396-2.4911499,3.281311-4.8961182,3.1068726-.1153564-.0083618-.1433105.0672607.0088501.2924805,4.3170166.9436646,8.7167969.7387695,13.1585083-.2199707-2.3601074.1768799-3.9105835-.8994751-4.8956299-2.9338379ZM99.3245691,117.5694898c.0080566-5.1932373.0180664-10.3848267.7640991-15.5424194.3052368-2.1101685.270813-2.1052246-1.8843994-2.0717163-.6289673.0098267-.7456055.2073364-.6251221.7755737,1.0427246,4.9168091,1.0863647,9.9098511,1.1159058,14.9038696.0062256,1.0592041.0327759,2.1193848.34021,3.1937866.4961548-.3796387.2886353-.8536377.2893066-1.2590942ZM101.4194788,97.4256299c-.1262207-.3674927-.6264648-.1517944-.9602051-.1702271-.4760742-.0262451-.9546509-.0066528-1.5992432-.0066528-.4295654-.0206299-1.0278931-.0266113-1.6213989-.083252-.8572998-.0817261-.7237549.3440552-.4497681.8390503.5900879,1.06604,3.3806152,1.4729004,4.2035522.598938.3007202-.319397.5635986-.7802734.427063-1.1778564ZM81.0706629,82.344148c-.0047607.2392578.0130615.479248.0275269.7184448.1585083,2.6184692,1.717041,4.5268555,3.361145,6.3272705,6.4398804,7.0525513,17.3416748,8.3989868,25.9373779,3.3043213,3.3633423-1.9934692,5.8012695-4.8250122,7.1828003-8.4044189.9168091-2.3753662.7416382-3.6571655-2.34375-3.5759888-5.2728882.1386719-10.552063.038269-15.8286743.038269l.0001831-.1155396c-5.5558472,0-11.1117554-.0067139-16.6676025.0042114-1.6038818.0031128-1.6362305.0575562-1.6690063,1.7034302ZM58.100509,125.9856275c.4422607.2583008.8570557.2923584,1.272522.3026123,2.9766235.0736084,5.8845215-.5184937,8.8168335-.8932495,4.1348267-.5284424,8.3034668-.3824463,12.4573975-.5361938,3.6747437-.1360474,7.3610229-.2543335,10.9447632-1.1923828,3.0454712-.7971802,5.2998657-3.3654175,5.3899536-6.1528931.194397-6.0137329-.3075562-11.9742432-1.3329468-17.906311-.3049316-1.763916-.9794922-2.5925293-2.8093262-3.164978-6.1937256-1.9376221-11.0206299-5.5631714-13.1307373-12.0491943-.0952148-.2927246-.2654419-.5609741-.5103149-1.0670166-1.8060913,3.2867432-2.2321777,6.6010742-1.9902954,10.0547485.2854614,4.0748291,1.2730713,8.048584,1.6948242,12.1056519.6287231,6.0471802-1.1727905,11.081665-5.8621216,15.0703735-3.0663452,2.6082153-6.6791382,3.835144-10.53125,4.5717773-1.4705811.28125-2.9395752.571106-4.4093018.8570557ZM70.2871546,126.5107129c2.6380005.0080566,5.2900391.5682373,7.9342651,0h-7.9342651ZM62.1554407,144.3229688c7.3077393,3.3894043,13.9960938,1.8198242,20.1236572-3.0250854.2769165-.2189941.8399048-.4195557.6252441-.8798218-.3183594-.6827393-.750061-1.4177856-1.4160156-1.7302856-.4519043-.2119751-.8275146.493042-1.1964111.8239746-2.2321167,2.0027466-4.7166748,3.4989014-7.7548218,3.9489136,2.6869507-1.5297241,5.0088501-3.5560303,7.4957886-5.3540039.6072998-.4390259.7072754-.7751465.3096924-1.4447632-1.4390259-2.4239502-2.4754639-5.0119629-2.7799683-7.8392334-.0822754-.7640381-.5463867-.7496338-1.0890503-.7528076-2.9177246-.0169067-5.8358154-.015686-8.7529297-.0686035-5.8736572-.1065063-11.7473145-.222168-17.6196289-.3833008-1.5598755-.0428467-1.5911865-.1161499-1.1934204,1.3769531,1.9315186,7.2509766,6.5755615,12.2333984,13.2478638,15.328064ZM50.7520593,168.6073316c1.6812744-2.7468262,2.364624-5.8065186,2.8053589-8.9349365.600647-4.2630615.918396-8.5770874,2.3505859-12.6868896.0672607-.1929321.1868286-.4404297-.1035767-.7055054-1.1257324,1.697998-1.7366333,3.5713501-2.2438965,5.4950562-1.4547119,5.5169067-.5836792,11.421814-2.8084717,16.8322754ZM32.9544519,175.9470533c5.401123.1719971,10.7918091,1.5477905,16.3359375.1298828-.4935913-.486145-1.1447754-.3762817-1.4418335-.9761353.6051636-.3873901,1.2272339-.3410034,1.8001099-.2335815,2.6566772.498291,5.2316895.1398926,7.8017578-.5672607,2.2304077-.6137695,4.5049438-1.0762939,6.5302124-2.2776489,1.7075195-1.0128174,2.8088379-2.4091797,3.1263428-4.4295044.397583-2.5301514.6967163-5.0639038.7164917-7.6262817.0325317-4.2073975-.65802-8.2677612-2.4956055-12.0886841-.1669312-.3470459-.2463379-.7877808-.7112427-.9005127-2.1150513-.5126343-4.0601807-1.4295654-5.9359741-2.5053101-.4435425-.2543945-.6362915-.137085-.7485962.335083-1.0426636,4.3833008-2.2505493,8.7252808-2.7078857,13.2372437-.3422241,3.3763428-.8585815,6.7594604-2.3724976,9.8483276-2.1191406,4.3237915-5.2872925,7.0504761-10.4708252,6.9804077-3.1538696-.0426025-6.2994995.5048218-9.4263916,1.0739746ZM42.0676721,195.4712842c3.8638306-.0715942,7.1452026-1.119873,10.0584106-3.3171997.6409302-.4833984.7506104-.8235474.2246094-1.505188-2.5671387-3.3269043-4.2029419-7.0562744-4.6153564-11.270874-.0783691-.8001099-.361084-1.1483765-1.2548828-1.1561279-7.1204834-.0618286-14.2300415-.3591919-21.2935181-1.3308105-.9921265-.1364746-1.2678833.0952759-1.0651855,1.1117554.7072144,3.5458374,2.0545654,6.8095703,4.2417603,9.6864624,3.5049438,4.6099854,7.9669189,7.5546265,13.7041626,7.7819824ZM45.2706751,197.1333326c-2.1936035-.1477051-4.1175537-.2772217-6.0933228-.4102173,1.0062866,1.6148682,4.2594604,1.9240112,6.0933228.4102173ZM25.2759241,255.7054151c-1.3676147,0-2.6087646.0853882-3.8324585-.0241699-1.2075195-.1081543-1.2693481.3244019-.9737549,1.3219604,2.0229492,6.8276367,1.9871216,13.8150024,1.392395,20.8104248-.3745728,4.4056396-2.6669922,7.5408936-6.8997803,9.0866699-1.4227905.5195923-2.8900757.9165649-4.3326416,1.3830566-.2236328.0722656-.6114502-.072998-.6053467.4541016,8.0924683,1.6299438,16.2177734,2.0521851,24.4285278.5756836-1.6860962-.6307983-3.3825073-1.1582031-4.9763794-1.9576416-4.3131714-2.163147-6.5194092-5.59375-6.4161377-10.4747925.0633545-2.9981689.0394287-5.9981689.0635376-8.9972534.02948-3.6572876.4121704-7.2585449,1.713562-10.7142334.1652222-.4388428.2714233-.8999634.4384766-1.4638062ZM42.6121668,234.6758741c-3.2316895.2064209-6.47229.2697144-9.7059937.4495239-10.0516968.5588989-20.0635986.1157227-30.045105-1.1365356-1.3849487-.1737671-1.5184937-.098999-1.3133545,1.3421021.3308716,2.3244629,1.2484741,4.4539795,2.3530884,6.5007935,7.1588745,13.2653198,22.5856934,16.3577881,33.590271,6.6281128,3.4185791-3.022583,6.3700562-6.4816284,6.3179321-11.4968262.0261841-.3188477.010437-.6480713.0861206-.9547119.2835693-1.1488037-.1766357-1.4030762-1.282959-1.3324585ZM44.3739465,232.6154493c-5.0337524-.4398804-10.013855-1.4196167-15.0397339-1.7611694-7.8822021-.5357056-15.6920166.7123413-23.5046997,1.6144409,8.9125366.7893677,35.1000366.9177856,38.5444336.1467285ZM58.4568323,228.8335279c-.4553223-.4661255-.7453003-.4544067-1.0147095-.5169067-3.1456909-.7296753-6.3583374-1.2011719-9.345459-2.5316772-2.6934204-1.199707-4.4711304-3.1254883-5.1376953-6.0517578-1.0527344-4.621521-1.0028687-9.2788696-.5646973-13.9569092.2122803-2.2661133.737793-4.4622803,1.6349487-6.7406616-1.0327759,0-1.8760986.0684204-2.7033081-.0178223-.9677124-.1008911-1.0679932.3011475-.8707275,1.0985107.315918,1.2768555.8427124,2.5167236.8798828,3.8458252.0894165,3.1978149.1708984,6.3970947.1651611,9.5956421-.0026245,1.4735718-.1864624,2.9500122-.3410645,4.4196167-.5055542,4.8056641-3.3563843,7.5032959-7.8796387,8.6453857-1.9664917.496521-3.9490356.9293823-5.9242554,1.3911133l.0003662.3504639c10.2543945,2.7115479,20.555481,1.5556641,31.1011963.4691772ZM49.9908899,232.8784498c-.0269165-.3557739.3945312-.2650146.4669189-.7216187-1.835144-.0890503-3.5498047.2520142-5.2419434.8086548,4.0530396.998291,8.1860352.8966675,12.3013916,1.0466309-2.5098877-.3780518-5.0198364-.7561035-7.5263672-1.133667ZM62.1851038,277.0201124c-1.4908447-6.7494507-1.6328125-13.546936-.65271-20.3677368.2910767-2.0255127.3609009-2.0321045-1.8347778-1.9431763-.5377808.0217896-.7022705.145813-.5742798.6923828,1.4833374,6.3356323.9547729,12.6765137.2460327,19.0606079-.6045532,5.4451294-3.3178101,8.7052612-8.6849365,9.8028564-1.1409912.2333984-2.243103.6566162-3.3631592.9924316,8.4851074,2.0066528,16.8922119,1.7075195,25.2984009-.5352173-1.4489136-.4154053-2.9066772-.8025513-4.3450317-1.2520142-3.2279053-1.008606-5.3448486-3.0788574-6.0895386-6.4501343ZM65.0374597,251.8749708c-3.0415649.0119629-6.0668335.067688-9.3637695-.3269653,2.9456787,2.5175171,8.1427612,2.595459,9.3637695.3269653ZM80.1995081,237.746919c-.1942749-.3768311-.2297974-.8462524-.2885132-1.2798462-.0966187-.7131958-.4418335-.937439-1.1850586-.9379272-10.9020996-.0064697-21.8168335.4472046-32.6872559-.8135376-.4734497-.0548706-.7772827.0125122-.8060913.5702515-.117981,2.2796021-.1964722,4.5366211.8063965,6.6975098,2.7669678,5.9623413,7.7562256,8.8499146,14.855835,8.4358521.7983398,0,1.5966797-.0040894,2.3950195.0006104,6.8591309.0406494,11.8175049-3.526123,16.067627-8.4501343,1.0848999-1.256897,1.6930542-2.5717773.842041-4.2227783ZM85.4544519,231.2036451c-.5333862-.5008545-.9944458-.4272461-1.418457-.4786377-2.460022-.2978516-4.8964844-.7105103-7.3199463-1.2441406-3.4113159-.7510986-5.4087524-2.7276611-6.15448-6.1817017-.9382935-4.3458252-1.0898438-8.7141724-.8064575-13.1168823.1849365-2.8737793.5512695-5.7255859,1.3343506-8.5098267.0802612-.2854614.4104614-.7198486-.28302-.75-1.1465454-.0498047-2.2924805-.1125488-3.4595337-.1708374.298584,1.0559082.6465454,2.0372925.8503418,3.0477905,1.2109375,6.0053101.7810059,11.9941406-.0789795,18.0065308-.5151978,3.6020508-2.4932251,5.8462524-5.6901855,7.244812-1.0993042.480957-2.2074585.9290161-3.3735962,1.2208862-1.6594238.4152832-3.3190308.8296509-5.1929321,1.2980347,10.6494751,1.8106689,21.0602417,2.3818359,31.5928955-.3660278ZM100.7452234,282.3072828c-1.0213623-8.5587158-1.4680786-17.107666.6827393-25.5799561.1665649-.6561279.0810547-.8532715-.618042-.81073-.9108276.055481-1.8276978.0135498-2.8482666.0135498.3310547,1.1322632.6177979,2.1637573.7529297,3.2313232.6409302,5.0656128.2908325,10.1361694.0946045,15.2055664-.1171875,3.0264282-.1153564,6.050415-1.0919189,8.9977417-.6260376,1.8894043-1.6563721,3.3389893-3.3123779,4.3773193-1.2584839.7891846-2.616272,1.362793-4.0319824,1.8060303-.7492676.2346191-1.4937744.4846191-2.3356323.758667,7.9335327,2.7390747,15.7019043,2.3673706,23.4571533-.1636963-.5986328-.2989502-1.2094727-.4683838-1.815979-.6519775-1.9487305-.5900879-3.8944092-1.1814575-5.6353149-2.2918701-1.8140259-1.1570435-3.038269-2.7164917-3.2979126-4.8919678ZM102.3785242,254.0746168c.0534668-.3270874-.2947388-.3027344-.5233765-.3032837-1.8621216-.0046387-3.7243042-.0026245-5.7349854-.0026245,1.6431274,2.1711426,3.7445068,1.4367676,5.6781616,1.3710327.5366821-.0182495.5141602-.661499.5802002-1.0651245ZM116.2737268,236.8117994c.0327759-.9619751-.2244873-1.1652222-1.1333008-.9871216-2.5115967.4921265-5.0605469.7212524-7.6116943.8862915-8.28125.5357056-16.5343628.241272-24.750061-.9397583-.9382935-.1348877-1.1928101.0792236-1.0016479,1.0482788.6604614,3.3483887,2.3126221,6.1975708,4.4065552,8.8013916,3.3344727,4.1464844,7.3775024,6.9758911,13.0476074,6.5402832,1.4146729-.0291748,2.8538818-.076416,4.2720947-.3435669,3.8768921-.7304688,7.3322144-2.25,9.8309326-5.444397,2.1917725-2.802002,2.8214722-6.0971069,2.9395142-9.5614014ZM116.4296716,233.5567945c-1.1522217-.3002319-2.3007202-.6157227-3.4586792-.8919678-.3800049-.0906372-.8585205-.1702271-.9648438.3884888-.1620483.8516846-.8395386,1.0294189-1.4971313,1.1539307-1.3300171.25177-2.6687012.480896-4.0139771.6239014-4.5469971.4832153-9.1031494.2684937-13.642395-.0574341-2.2360229-.1605225-4.5368652-.1377563-6.6304932-1.321106-.8460693-.4781494-1.8980103-.2590942-2.68573.651062,10.9807129,1.4135132,21.9431763,1.9535522,32.8879395-.1422729.00177-.1348877.00354-.2697144.0053101-.4046021ZM143.3532556,231.1263746c-.0004272-.1137695-.0009155-.227478-.0013428-.3411865-2.0908203-.5046387-4.1895752-.9786987-6.2705688-1.5209351-3.2752075-.8534546-5.197998-2.9932861-5.7717285-6.3152466-.9100952-5.2689209-.9058838-10.5787354-.5838013-15.8921509.1500854-2.4762573.8111572-4.8612671,1.6973267-7.3074341-1.8829346.0372925-3.6290283.0855103-5.4664307-.1398926.4425659,1.206665.9075317,2.2980957,1.2460938,3.4274902,1.6376343,5.463623,1.5878906,11.0839233,1.0281372,16.6456299-.7012939,6.9685669-2.6466064,8.8066406-9.4929199,10.1052856-1.8082886.3430176-3.6187134.6748657-5.4609985,1.0180054,9.7216797,3.4949951,19.3989258,1.8724976,29.0762329.3204346ZM134.27922,234.1327833c-.0565796.0009155-.1119995.0726318-.2543945.1709595.3812256.2702637.7073364.175293,1.0152588.1898193,3.3439331.1580811,6.6870728.3391724,10.0324097.4562988,2.5101318.0878296,5.0231323.0971069,7.5349731.1251831.2857056.0031738.7240601.1320801.7706909-.3237915.0438843-.4298706-.2929077-.6148071-.692627-.6585693-.1585083-.0172729-.3174438-.0322876-.4764404-.0439453-5.9786987-.4385376-11.9535522-.0117798-17.9298706.0840454ZM150.6485437,232.5693067c-1.7305298-.2290039-3.9014893-1.0753174-6.1741943,0h6.1741943ZM141.6457971,252.5432447c-1.8913574.227356-3.6705933.3641357-5.5788574.0938721.3765869,1.1540527.7506104,2.1539307,1.0297852,3.1796875,1.8130493,6.661438,1.588562,13.362915.3337402,20.076416-.2264404,1.2114868-.4146118,2.4277344-1.0463867,3.5387573-1.2410889,2.1824951-3.3114014,3.0185547-5.5720825,3.5731201-2.1403198.5249023-4.2860718,1.027832-6.6453247,1.592041,9.0518799,2.5366211,17.9423828,3.0582886,26.954895.9326172-.3634644-.1263428-.7275391-.2509766-1.090332-.3793335-2.1799927-.7715454-4.4113159-1.4034424-6.4507446-2.543335-1.9694214-1.100708-3.1802979-2.6997681-3.649231-4.9265137-.5376587-2.5529175-.8483276-5.1292725-.9014893-7.7276611-.1206665-5.8974609.2054443-11.7407837,2.6160278-17.409668ZM151.7458338,236.2790235c-5.2756958-.0264893-10.5516357-.0081177-15.8275146-.0081177-.0001831-.1348877-.0003052-.2698364-.0004883-.4047241-2.1177368,0-4.2382202.0679321-6.3526611-.0154419-3.434082-.1353149-6.864502-.364502-10.2956543-.5674438-.5899048-.0349121-1.0736084-.0125732-.87677.7868652.8834839,3.5876465,2.2047729,7.0656128,5.0622559,9.4644775,4.9232788,4.1331787,10.7053833,6.052002,17.1646118,5.0549927,6.6340332-1.0240479,11.0494995-4.8898315,13.2695923-11.2044067.8371582-2.3809814.3101196-3.093811-2.1433716-3.1062012ZM172.2005457,228.378816c-2.3178101-.5319214-4.3696899-1.0030518-6.4216309-1.4737549-4.117981-.9447632-6.704834-3.3688354-7.3878174-7.6376953-.050354-.3148804-.1471558-.6221313-.201355-.9365845-1.0953979-6.3587036-.7427979-12.6652222.7521973-18.9165649.2189331-.9155273.3731689-1.435791-.9050903-1.1498413-.7975464.1784058-1.6325073.0230713-2.3666382-.5668945.6327515-.2823486,1.230957-.3068237,1.829834-.3108521.7258301-.0048828,1.4406738-.0548706,2.0897827-.4251099.2404785-.137085.5501709-.2672119.4572754-.6124268-.0737305-.2738647-.388855-.2346802-.6055908-.2698364-1.6617432-.2698364-3.3300781-.1126709-5.1707764-.1561279.8049316,1.9849854,1.4151001,3.8706665,1.7983398,5.8254395,1.1116333,5.6694336.8560181,11.3994751.6028442,17.1034546-.1800537,4.0559692-2.2541504,6.3112183-6.1485596,7.4672852-2.2302856.6620483-4.5457153.8787231-6.822937,1.2961426-.8564453.1569214-1.7528687.2238159-2.6012573.7188721,10.3498535,2.2808838,20.585144,3.1130371,31.1013794.0444946ZM171.340072,253.8779615c2.328064,1.3550415,4.7564697,1.6607056,7.3728638.8163452,3.0733032-.9917603,5.9482422-2.3497314,8.5147095-4.2971802,4.8106689-3.6503296,8.2495728-8.2077637,9.1669922-14.3538818.2377319-1.5927124.2091675-1.6401978-1.4303589-1.4736938-8.6331177.8768921-17.2869263,1.4210205-25.960022,1.8513184-3.7972412,0-7.5944824-.000061-11.3917236,0-2.0917358,0-2.0679321-.0044556-1.6691284,2.0831909,1.0861816,5.6860352,4.4828491,9.5979614,9.4588013,12.2559814,1.9711304,1.0528564,4.0025635,1.9914551,5.9378662,3.1179199ZM177.3380579,262.9247144c.1248169-2.2948608.4523926-4.4893799,1.993042-6.6420288-2.0925293.3577881-3.8621826.5449829-5.9263916.0374756,1.5803833,1.9298706,2.5938721,3.838623,2.7379761,6.045105.4196777,6.4283447.5139771,12.8597412-.0845337,19.2868042-.1392212,1.4946289-.878418,2.6237793-2.0078735,3.541687-1.5474243,1.2575684-3.3571777,2.0066528-5.2346802,2.5754395-1.7199097.5209961-3.4752808.9249878-5.2149658,1.3804932,8.8207397,1.2756348,17.6149902,2.2061157,26.3336792-.8463745-.3874512-.0734253-.7737427-.1531372-1.1624146-.2191162-1.9689941-.3338623-3.9315186-.6868286-5.8094482-1.4039917-2.9108887-1.1115723-4.5549927-3.2266846-5.1124878-6.2702026-.3416138-1.8646851-.2563477-3.7467041-.3251343-5.6195679-.1452026-3.9524536-.4022827-7.9016113-.1867676-11.8657227ZM157.1528162,226.8357862c.1115112.0354004.2353516.0321045.6755981.0859985.1364136.0205078.5492554-.1125488.9153442-.3708496.267395-.1886597.4910889-.4362183.3306885-.8023682-.197937-.4518433-.503479-.1915894-.7976074-.1136475-.3807373.1008301-.776123.1450806-1.1607056.2332153-.4133911.0948486-1.1447144-.2524414-1.15271.3947754-.0062866.503479.7514038.4338379,1.1893921.572876ZM161.0382532,227.5779127c-.0542603-.5250854-.765686-.3682251-1.2232666-.381897-.1184082-.00354-.237793.0159302-.3563843.0285034-1.8605957.1973267-3.7142944.2911377-5.5227661-.4348755-.2729492,1.1420898.3328247,1.4796753,1.2463989,1.5617065,1.5932617.1430664,3.1777344.0599365,4.7484741-.2267456.4234009-.0772705,1.1722412.0797119,1.1075439-.5466919ZM159.8403162,240.2669996c-.4597778.1998901-.2813721.9436646-.1341553,1.4106445.7393188,2.3453369,2.4198608,3.9243164,4.4875488,5.1766968-1.4812012-1.7157593-2.4503784-3.708313-3.4664917-5.6763916-.1987305-.3848267-.4052734-1.1203613-.8869019-.9109497ZM192.93724,240.3574537c.119751-.3546753.0560913-.7935791-.0064697-1.1797485-.0427856-.2642822-.2165527-.5282593-.5596924-.5330811-.3222656-.0045776-.3565674.279541-.434021.4887695-1.2966919,3.5015259-2.8857422,6.8295898-5.588501,9.5272827,3.3135986-1.8981323,5.394104-4.7626343,6.5886841-8.3032227ZM98.6342615,288.6706861c-.4746094-.046875-.9518433-.0724487-1.4285889-.0896606-.2495728-.0090332-.5090332.0712891-.5639038.3353271-.0593872.2860107.211853.4160156.4179688.5144653.8154297.3891602,1.7051392.3522339,2.4064331.40625.9710693.0179443,1.7828369.0318604,2.4898682-.4060669.3133545-.1941528.7594604-.4500732.4224243-.9388428-.2719116-.3942871-.699707-.6176147-1.1251831-.2662964-.803833.6636353-1.7044067.5351562-2.6190186.4448242ZM94.1456751,93.1139844c-.1951904-.2055664-.260437-.3169556-.3575439-.3703003-3.3557739-1.8433228-6.1802979-4.244751-8.0783081-7.6328125-.1541138-.2750854-.3884888-.5064087-.5930786-.7518311-.3286743-.3943481-.7089233-.6399536-1.246521-.4057617,1.4296265,4.5258179,6.4415283,9.0456543,10.2754517,9.1607056ZM64.484054,142.8107618c-1.6885986-1.2733154-3.1505737-2.3722534-4.6087646-3.4761963-2.2496948-1.703125-4.2692871-3.5979004-5.3718872-6.2891235-.1933594-.4720459-.5203247-.8954468-.8231812-1.3141479-.1765137-.2440796-.3691406-.6348877-.7166748-.5183105-.37854.1270142-.2112427.546875-.1896973.8390503.0878906,1.1918945.6087036,2.2299194,1.2775269,3.1810913,2.1794434,3.0993652,4.991272,5.460083,8.4258423,7.0679932.536499.2510986,1.0872192.4812622,2.0068359.5096436ZM21.8395838,286.9186109c-.0307007-.0087891-.111145.0999146-.1443481.1658936-.2402954.4777222-.5270996.1714478-.7833252.0365601-.3139038-.1652222-.6026611-.3779907-.9160156-.5442505-.3303833-.175293-.6447144-.1160889-.8052368.2337646-.1757202.3830566.2230835.449585.4211426.5849609.9153442.6257935,1.9549561.8552246,3.1332397.9109497.9949341-.0753784,2.0546875-.2178345,2.9822998-.8425903.2776489-.1870117.4729614-.4372559.4255371-.7955322-.0300903-.227478-.1992188-.3729248-.4163818-.3226318-1.2830811.2974243-2.5089111.9696655-3.8969116.572876ZM36.0140222,190.9883741c-3.421814-2.4275513-6.2255249-5.3514404-7.6278076-9.4120483-.1867065-.5406494-.5679932-1.0604858-1.0970459-.8604736-.5956421.2251587-.149292.861145-.0253906,1.2341309,1.6529541,4.9749756,5.0856323,8.2680664,9.8466797,10.2749023.0961914.0405273.2243652.0050659.3755493.0050659-.3648682-.6086426-.9619751-.8796997-1.4719849-1.2415771ZM114.2609094,85.4342359c.2224731-.4126587.496521-.9465332-.0614624-1.2774048-.5872803-.3482056-.7363281.2974854-.9517212.6144409-2.3086548,3.3969116-5.1311646,6.2130127-8.8947144,7.9876709-.1688232.0795898-.3125.2125854-.5109863.350708.1536865.0525513.2351685.112793.2982178.0974121,4.5164185-1.1014404,7.9105225-3.6724243,10.1206665-7.7728271ZM137.3881067,140.9844678c-.748291.4241943-1.5443726.8173828-2.1436157,1.5656738.1827393.0291748.3050537.0866699.4031982.0588379,4.8937988-1.3857422,8.1481934-4.5183105,9.8305054-9.2939453.1574707-.4470215.5455322-1.1370239-.09375-1.3845215-.690979-.2674561-.7061157.5871582-.9181519.975769-1.7592163,3.2238159-3.7730713,6.2047729-7.078186,8.078186ZM11.5883631,248.0376905c-2.4776001-2.9118652-4.5916748-6.0544434-5.8320312-9.8948975-1.9122314,2.3756714,1.8431396,7.3517456,5.8320312,9.8948975ZM47.9257044,238.6992505c-1.1290283,3.0888062,3.7209473,9.1036987,7.2415161,8.9962158-3.2873535-2.2991333-5.6480713-5.3319092-7.2415161-8.9962158ZM70.892135,229.3999341c-.7697144.2090454-1.751709.7125244-2.3033447.2618408-.956665-.7816162-2.0544434-.246521-3.1157227-1.0320435,1.0484009,2.4818726,5.656311,2.7988892,7.6916504.7758789-.819458-.4887085-1.545166-.2032471-2.272583-.0056763ZM69.4433435,246.5699781c-.2487793.1815796-.5917358.4743042-.4104614.7808228.2223511.3759766.6462402.1560669.9663696.0307617,2.3688965-.927063,4.1342773-2.5200806,5.2325439-4.8233643.2160645-.4530029.3842773-.9385986.1501465-1.6581421-1.7784424,2.2479248-3.7515259,4.0737915-5.9385986,5.6699219ZM59.1673425,282.8668531c-.4297485-.242981-.958252-.5429688-1.1978149.109436-.2354736.6412964.2327271,1.0709839.8312988,1.213501.6173706.1470337,1.2609863.1835327,1.7453003.2485352.9121704-.0469971,1.6662598-.0973511,2.3752441-.4143066.8384399-.3748169.503418-.8753052.2167969-1.4470215-.3623047-.7227173-.6584473-.2492065-.9683838-.0045776-.9411621.7428589-1.9321899.8994141-3.0024414.2944336ZM40.4943079,238.0083936c-.6602173-.1939697-.5878906.6969604-.7481689,1.1055908-1.2958984,3.3034058-2.8269653,6.4630737-5.6766357,8.7271118-5.3689575,4.265686-11.3358154,4.9257202-17.7312622,2.7862549-.5395508-.180481-1.0537109-.5358276-1.6972046-.4140625.1131592.5355225.5407104.6400757.8896484.7825928,6.131958,2.5039673,12.0721436,2.2871704,17.7201538-1.3637695,3.7237549-2.4071045,6.2084351-5.7977905,7.6488037-9.9723511.2229004-.6459961.3140259-1.4400635-.4053345-1.6513672ZM45.181991,225.8716138c-2.6519775.2808838-5.2996826,1.2780762-7.9726562.1104126-.0703125-.0307007-.1563721-.0355225-.2350464-.0352173-.3483276.0012207-.6847534.1268311-.7363892.4765625-.052002.352478.3413696.3660889.5787964.4492798,1.4064941.4927368,2.8679199.6568604,3.9644165.6967163,1.8704224-.020813,3.3310547-.2016602,4.7071533-.7965088.335022-.1448364.956665-.2185059.8189087-.692749-.1563721-.5384521-.6929321-.2542725-1.1251831-.2084961ZM24.9523767,46.4094556c.2468262-1.4525757.0321655-1.1359253,1.3361206-1.2945557,1.8921509-.2301636,3.7324829-.7063599,5.5719604-1.1795654,4.2866821-1.1027222,8.444397-2.5873413,12.5357056-4.2677002,6.8647461-2.819397,13.9910278-4.2243042,21.4299316-4.0327759,3.8855591.0999756,7.6697388.8022461,11.4377441,1.6663818,3.0267944.6942139,6.0563354,1.3762817,9.0864258,2.0559082.7283325.1633911.725647.1466064,1.024231-.5541992.878418-2.0614624,1.7113037-4.1365967,2.0131836-6.3798218.026123-.1940918.0501709-.388855.0872192-.5809326.0618286-.3207397-.0446167-.4659424-.3893433-.449646-.5020142.0237427-1.0055542.0318604-1.5080566.0233154-2.0300903-.0345459-3.9902954-.4819336-5.9442749-.9893188-2.0844116-.5413818-4.1832275-1.0270996-6.2709961-1.555603-7.2356567-1.8317261-14.2598267-4.2144775-20.7417603-8.0012207-3.8369141-2.2414551-7.3392334-4.9118042-10.3840332-8.1587524-2.8340454-3.0221558-6.2670288-5.1990356-9.90979-7.0855103-.7195435-.3726196-1.4369507-.7521973-2.1750488-1.0848999-.4655151-.2098999-.5692749-.4807739-.269043-.9995728,1.9539185.7901611,3.765625,1.7805176,5.5216064,2.8754272,3.0018921,1.8717651,5.8098755,4.0198975,8.2549438,6.5621338,3.331543,3.4639893,7.2943726,5.9730225,11.5166016,8.1350708,4.5910034,2.3509521,9.3806152,4.2147827,14.3358765,5.6401978,1.6116333.463562,3.2581177.8059692,4.8881836,1.2055664,2.5534668.6258545,5.0512085,1.4713135,7.635376,1.9727783,1.6199951.3143921,3.2524414.5645752,4.8795776.84198.1376953.0234985.2778931.0510254.4158325.0460205.0693359-.0025024.1712036-.0598145.194519-.1179199.0246582-.0615234-.0015259-.1768188-.0491333-.2278442-.1530151-.1640015-.3380737-.2870483-.5548096-.3632202-.4238281-.1488037-.8529053-.2822876-1.3012695-.3184204-2.3009033-.1854858-4.508606-.8406372-6.7385864-1.3656006-3.1038208-.7307129-6.1708984-1.6101074-9.1967773-2.6166992-4.5672607-1.5193481-9.0644531-3.2144165-13.1868896-5.75354-1.885498-1.1613159-3.5924072-2.5691528-5.2666626-4.0092773-2.0350342-1.7504272-4.0258789-3.5521851-6.0487671-5.3168335-2.7246094-2.3766479-5.588623-4.5579224-8.8418579-6.1791992-1.7808228-.8875122-3.6202393-1.6248169-5.545105-2.140686-.7862549-.2106934-.7855835-.2143555-.6724243-1.0228882.0349121-.2493896.0682983-.4990234.1079712-.7476807.1148071-.7197876.1448364-.739624.8582764-.5108643,4.4004517,1.4108887,8.4749146,3.4597778,12.211792,6.1867676,3.0120239,2.1980591,5.8110962,4.647583,8.4680786,7.2504883,4.3699951,4.2811279,9.5170898,7.2891846,15.161499,9.5247192,3.2798462,1.2989502,6.6266479,2.4067383,10.0421753,3.2721558,2.5195312.6383667,5.0598755,1.2189941,7.6310425,1.6312866,1.4693604.2355957,2.9406738.3601074,4.4082031-.055542.289856-.0820923.609436-.0574951.914917-.0856934.6647949-.0613403,1.2018433.1314697,1.5560303.7374268.2985229.5106812.7618408.7494507,1.3334961.9190674,1.1060791.328125,2.1821289.6271973,3.3691406.4569092.8422241-.1208496,1.6986694.7207031,1.8213501,1.6268921.1818848,1.34375.0635376,2.6793213-.1431885,4.0098267-.1459961.9399414-.302002,1.8782959-.4552002,2.8171387-.0561523.34375-.0169678.6494751.2075806.9464111,1.3359375,1.7662964,2.1513672,3.7858276,2.7978516,5.8800659,1.2694092,4.1119995,1.8504028,8.3446655,2.1449585,12.6216431.1055298,1.5327759.1466064,3.071167.1765137,4.6077881.0447388,2.2987061-.5441895,4.4868164-1.2440186,6.6490479-.3789673,1.1707153-.821228,2.3186035-1.3141479,3.4464722-.0561523.128479-.1181641.2540283-.0788574.4137573.104126.0943604.2250366.1459961.3522949.1798706-.1912231.2428589-.3890381.4815063-.5939941.7136841-.1454468-.0126343-.3234863-.0674438-.3391724.1531982-.0053101.074646.0197754.1213989.0594482.1538086-.671875.715271-1.4221802,1.3451538-2.2794189,1.7906494.5891724-1.2733765,1.2075195-2.5322266,1.8428955-3.7821045,1.9076538-3.7526855,2.7044067-7.7211304,2.5083618-11.9221802-.15271-3.2722778-.6116943-6.506958-1.019165-9.7498779-.4203491-3.3457642-1.618042-6.4364014-3.0692139-9.4450684-.1528931-.3170166-.3171997-.6370239-.6057129-.882019-.2636719.5773926-.2869263.5843506-.1477051,1.0478516.192749.6417847.3931885,1.2845459.6456909,1.9043579.7826538,1.9213867,1.3460693,3.909668,1.8666992,5.9127808.1835938.706543.2952271,1.4239502.3283081,2.1508179.0623169,1.3672485.0740356,2.7374878.3198853,4.0906982.034668.1906738.0418701.3913574.0270386.5847778-.0166626.21698-.0158081.5151367-.2921753.53302-.249939.0161743-.3522949-.256958-.4058838-.4696045-.074646-.2957764-.1195679-.6018066-.147522-.9061279-.1402588-1.5305786-.2966919-3.0592651-.5414429-4.5772095-.3972168-2.463501-.960022-4.8822021-1.9987793-7.1663818-.1192017-.262207-.1898804-.5687256-.4899292-.7822266-.4934082.8011475-.9224854,1.5839844-1.439209,2.3039551-.2978516.4150391-.3438721.7218628-.1130371,1.1922607.7580566,1.5443726,1.2004395,3.1879883,1.3240967,4.9080811.0324707.4517822.1084595.9138184-.1374512,1.3742676-.2120361-.8013306-.4240723-1.6027222-.6627197-2.5045166-.1565552.2393799-.1166382.3790283-.1043701.5160522.2265015,2.532959.4307251,5.0664062.3442383,7.6140137-.0758057,2.2342529.053894,4.4735718-.1090088,6.7046509-.2891846,3.9604492-.729187,7.9060059-1.2438354,11.843689-.0119629.0917358-.0232544.175354-.0337524.2532349-.3590088-.0007935-.7194214-.0199585-1.0795898-.0541382.0216064-.1417236.0458374-.307312.0775146-.5043945.1136475-.5493774.1264648-1.2217407.1710205-1.8908081.0148926-.2227173-.0452881-.3656616-.3265991-.354248-.1077881.0043945-.215332.0037231-.322937.0049438-.0513306-.6893921-.1141357-1.3779907-.1702881-2.0670776.0917969.0165405.1837769.0317383.2755737.048584.0550537.0101318.1099854.020752.1652222.0297852.6549683.1074219.6655884.1085205.7443237-.5893555.0721436-.6390381.121521-1.2807007.1747437-1.9217529.4719238-5.6864624.8779297-11.3754883.5203857-17.0866699-.1083984-1.7317505-.3076782-3.4527588-.7642212-5.1343384-.1690063-.6226807-.3738403-1.2316284-.6762695-1.8031006-.2793579-.5279541-.5-.6316528-1.083374-.4968872-.2443237.0564575-.4779053.1574707-.7195435.227417-1.0326538.2988281-1.8843384-.0943604-2.338562-1.083313-.1281738-.2791748-.2355347-.5678711-.3537598-.8516235-.1810913-.4346924-.5133057-.5588379-.9524536-.4605713-.0819092.0183105-.1687012.0257568-.2446289.0584106-1.0516357.4523926-1.8403931.0811768-2.4772949-.78125-.2765503-.3743896-.6473999-.5936279-1.0980225-.7207642-4.555542-1.284668-9.1560059-2.3692017-13.8486938-3.0136719-4.7562866-.6532593-9.5251465-.7848511-14.2990112-.1727905-2.0049438.257019-3.9249878.8813477-5.8662109,1.4048462-3.4341431.9260254-6.7387695,2.234314-10.0619507,3.4853516-3.4551392,1.3006592-6.9198608,2.571228-10.539978,3.3537598-1.7233887.3724976-3.460144.6486206-5.2233276.7399902-.7814941.0404663-.7958374.0396118-.6734009-.6813965ZM94.824325,42.9110425c-.3739014.7070923-.3289795.7337646.3643799,1.1467285.3690796.2198486.593811.1708374.8311768-.1687622.3693848-.5286865.7008667-1.0765381.965271-1.6642456,1.2879639-2.8623657,1.8834839-5.8989868,2.2406616-8.9923096.0866699-.7502441.0297852-.7904663-.9557495-1.2251587-.0872192.4835205-.1603394.9454346-.2546387,1.4029541-.6795654,3.2956543-1.6081543,6.5072632-3.1911011,9.5007935ZM94.9804529,36.6934522c-.526123,1.4425659-1.2156372,2.81427-1.7680664,4.2442017-.1022949.2647095-.2384033.5233154-.1958618.8466797.3875122-.1199341.5539551-.4962158.9879761-.4820557.2514038.4780273-.3084106.7511597-.2509766,1.1957397,1.3726807-1.7390747,3.7635498-9.3108521,3.4363403-10.8911133-.5482788.1732788-1.069458.4368286-1.6894531.2444458-.4721069-.1464233-.6037598-.0031738-.5595093.5030518.0387573.4423218.0969238.8930664.2272339,1.3151855.3209229,1.0400391.1777344,2.0220337-.1876831,3.0238647ZM90.5016931,41.3446973c-.1079102.2443848-.2116699.4779663.0941162.647522.2993164.1659546.5114746.0720825.6978149-.2145996.4451904-.6848755.7622681-1.4274902,1.0505981-2.1859741.8496094-2.2351074,1.1791992-4.5995483,1.7080078-6.9139404.09198-.40271.0921021-.8358765.0728149-1.2521362-.0244751-.5299683-.1414795-1.0435181-.7174683-1.512146-.0524902.6957397-.0686035,1.2531738-.1402588,1.8033447-.4360962,3.3479004-1.4038696,6.5452271-2.765625,9.6279297ZM87.9738611,41.0721143c-.0094604.4276123.1485596.5592041.5653076.4937134.4614258-.0724487.8067017-.2766113,1.0363159-.7304077,1.3178101-2.6039429,2.3077393-5.3182983,2.807251-8.1987915.0852051-.4910278.0777588-.9998169.0905762-1.5010376.0076294-.2974243-.119751-.5177002-.4595337-.3673096-.4174805.1848755-.8074341.1335449-1.2281494-.1137695-.2820435.6895752-.3416748,1.3022461-.4030762,1.9110107-.0984497.9768677-.3251343,1.9155884-.6486206,2.8457642-.5765991,1.6580811-1.2310791,3.2921753-1.6462402,5.00354-.0524292.2160645-.1090088.4373169-.1138306.6572876ZM25.96495,43.0122999c.1564331.0100098.3516846.0351562.5466309.0328979,1.0626221-.012085,2.1223145-.0822144,3.1654663-.2889404,3.3302612-.6600342,6.5464478-1.6660156,9.5917358-3.1881714.4989624-.2494507,1.0114746-.4780273,1.5336914-.6737061,3.1413574-1.177063,6.3364258-2.1867065,9.5866089-3.0174561,3.1972656-.8172607,6.413147-1.5169678,9.7404175-1.5058594,1.368042.0045776,2.7363281-.0180664,4.1011963-.1341553.336853-.0286865.6702271-.0618896.9581299-.2564087.0638428-.0431519.1411133-.1346436.1356201-.1971436-.0094604-.1088257-.0905151-.2109985-.2160645-.2218018-.3613281-.0310669-.7254639-.0360718-1.0852051-.0790405-2.8813477-.3439941-5.7458496-.2332764-8.5841675.3605347-3.3357544.697937-6.642395,1.5184326-9.8991089,2.5265503-3.0716553.9508667-6.0421753,2.1828003-9.053772,3.300354-1.2565308.4663086-2.5029297.961731-3.8095703,1.2832642-2.0130005.4954834-4.0608521.7501831-6.1212158.9273071-.2224121.019104-.4567261.0076904-.6634521.0766602-.3834229.1279297-.2676392.5020752-.3091431.782959-.0357056.2414551.187561.2269897.3822021.2721558ZM82.2161096,85.4232496c.0831909.114624.1930542.2070923.3428955.1817017.1721191-.0291748.159729-.1911621.1871948-.2954712.0515137-.3287964.0336304-.6245728-.1644897-.8817749-.1217041-.15802-.2833252-.2967529-.4857788-.2495117-.2851562.0665894-.1308594.3102417-.1343384.4788208-.0057983.2814941.0892334.5384521.2545166.7662354ZM97.8449549,70.9689649c.0018921.1290283.0444336.2877197.2125854.3188477.1821289.0336914.2346802-.1312866.2900391-.244751.3010254-.6176147.3400269-1.2906494.3695679-1.9589844.1022339-2.3125.2147217-4.625.2793579-6.9387207.0591431-2.1174316.1803589-4.2376099-.0161743-6.3536987-.0324707-.3496704.1141357-.9435425-.3746948-.9522705-.3172607-.0056763-.2094116.6082764-.3433838.9377441-.0248413.3560791-.0550537.7172241-.0744019,1.0789795-.1015015,1.895874-.0204468,3.7918701-.0065308,5.6879272.017395,2.367981.1703491,4.7409058-.303772,7.0910645-.0866699.4297485-.0390625.8886719-.0325928,1.3338623ZM101.4693445,67.3553174c.2149048.0280151.2565308-.1821289.3276978-.3209839.2719116-.5307617.324707-1.1212769.4420166-1.6934204.1472168-.7427368.1948853-1.4943237.1861572-2.2487183-.0031738-.2767334-.020752-.5622559-.09375-.8266602-.0718384-.2603149-.366394-.2883911-.5044556-.0593262-.0991821.1644897-.1572876.355835-.2200928.5397949-.4706421,1.3780518-.3753662,2.807312-.374939,4.227478.000061.1696777.0324707.3551636.2373657.3818359ZM96.7075647,76.3904737c.7172241-1.0384521.791748-1.6343994.3284302-2.1997681-.2902222.6757812-.5856934,1.3223877-.3284302,2.1997681Z"/>
  </g>
</svg>