<?xml version="1.0" encoding="UTF-8"?>
<svg id="Layer_2" xmlns="http://www.w3.org/2000/svg" viewBox="0 0 155.9779012 189.2793724">
  <g id="Layer_1-2" data-name="Layer_1">
    <path d="M48.2063094,107.6933154c-1.6435588,1.3276043-3.5198081,2.3429695-5.2501165,3.8804086,2.9980272-.292028,5.7068054-.7416833,7.6840001-3.1064114.7614701-.9107257,1.6388224-1.728941,2.5014629-2.5492727.5869919-.5581969,1.2967589-.9334498,2.1388795-.9081199.3510335.0105817.7571836.0376047.9067231.4551049.130303.3637982-.1158293.6142534-.3460061.8490609-.6460113.6590139-1.4447769,1.0830748-2.2936052,1.3978534-.9306563.3451216-1.7545856.8323683-2.449429,1.542624-1.6853129,1.722711-3.7177829,2.7001542-6.1363197,2.8527421-.2083737.0131477-.412302.0965578-.8041635.1931289,1.6888189,1.8895445.8904633,3.511293-.4080287,5.0608216-.265898.317305-.2873572.5962381-.1463775.9803928,1.8643819,5.0801464,3.7427613,10.155121,6.4152097,14.8845773,1.3461864,2.3823599,2.9824422,4.5104419,5.4068267,5.934022.7023978.4124475,1.2924856.4462692,2.013551.0705401,2.0025436-1.0434993,3.0522705-2.8030346,3.7401947-4.8379714.989464-2.92688,1.1050286-6.0250509,1.7344891-9.0208044.4811116-2.2897172.3609693-4.3174849-.8311794-6.4817695-1.9110444-3.469416-1.3768537-10.1019878,2.695601-13.0041727.0465037-.0331471.0518619-.1240041.0885489-.2194509-.5369954-.0160312-.9616411.2880334-1.4318379.4277909-.2398745.0712941-.5353946.2398603-.69229-.0129493-.1804979-.2908508.0466889-.5573504.2947793-.723549,1.1539799-.7730712,2.4056507-1.3236494,3.7915273-1.4966466,1.0691222-.1334482,2.1460502-.1576009,3.3474732-.0080553-.470898.5032648-1.1460948.3585867-1.5861403.7917743,3.8391159-.0844021,7.6025294-.5124312,11.3776911-.7567754.4162578-.0269436.802007-.0402236.702636-.6552442-.2646147-1.6375682-.4314195-3.2977944-1.3736521-4.740157-.7331842-1.1223461-2.4722112-1.6083098-3.6972763-1.0365353-1.1543107.5387465-1.8679541,1.4530435-2.266219,2.6287742-.3700055,1.0922809-.6949625,2.1997862-1.0617134,3.293231-.1183165.3527007-.1536012.9201037-.6627208.8321038-.5218735-.0901956-.4830697-.6554029-.4847499-1.0777178-.0066547-1.682752.5973246-3.2190799,1.4859357-4.570731.7186311-1.0931076.5112762-1.6504712-.4340919-2.4225769-1.5071038-1.2309009-2.8743922-2.6334367-4.2952095-3.9693476-4.2819926-4.0261117-5.7828651-9.0878989-5.5108283-14.8092489.2252552-4.7372999,1.5432219-9.2294355,3.0356006-13.6876502,1.0758166-3.2137891,2.4013112-6.336946,3.3788152-9.5876056,1.2544226-4.1716032.4563185-7.9080612-2.1791518-11.3105944-.3655734-.4719761-.7303-.9446036-1.2330428-1.5949604,4.6143982,2.8307553,6.7770522,8.8100868,4.9440916,13.8624893-1.4867824,4.0982391-3.208015,8.1118379-4.4857887,12.287654-.9297963,3.0386027-1.6646078,6.1130574-2.0863429,9.2747979-.8372784,6.2773447,1.1627118,11.5006877,5.5849696,15.9171312,1.3277172,1.3259641,2.6933519,2.6142905,3.9395719,4.0258273.7383704.8363365,1.3483958-.2124934,1.9666504-.4136578.6317095-.2055558-.0205198-.628585-.2005415-.8799859-4.3268823-6.042385-6.4739776-12.8246082-6.9362893-20.1953581-.4138632-6.5983003,1.0358486-12.9090236,2.8735587-19.1676916.4747876-1.6169339.8834381-3.2532786,1.3070916-4.8236994.9607679,2.791527.1138845,5.4958213-.564342,8.2138917-1.0851306,4.3488398-1.8167008,8.759589-2.2606623,13.2170497-.5389006,5.4104536.5626486,10.5365708,2.6259314,15.5239357,1.0890203,2.6323719,2.8240518,4.9484111,3.6524131,7.6969434.061414.2037371.2104905.2854078.4040729.2852425.3567622-.0002976.5278932-.2553228.5768312-.5447979.1201026-.7101896.24002-1.4256898.2792339-2.1434585.3727573-6.8243449.0048819-13.6495495-.030707-20.4737224-.0489513-9.3888948-.2627625-18.7769299-.4050916-28.165342-.0027386-.1804772-.0187073-.3651738.0114837-.5410414.2360245-1.3755591.1666328-2.6152065-1.2714894-3.3790253-.304424-.1616914-.4855172-.5260981-.5839622-.887985-.0875699-.3218617.0211284-.599816.2821181-.7532504.3110523-.1828581.4152655.1696806.586767.322738.2805437.2503725.3643827.7104839.8413401.7963972.2698273-.5086218-.006787-1.1726917.4985621-1.6187063.1819664.6408829-.1409267,1.3829696.5018961,1.971202.2794324-.6368221.2377312-1.2443562.0751336-1.8268149-.5313991-1.9035354-.6261529-3.8371725-.4866021-5.7940726.0127803-.1794256.0094595-.3623399-.0097373-.5411274-.0255076-.2374033.0603424-.5940688-.2636092-.6268357-.2945279-.0297874-.3391397.2901299-.4014666.5431974-.1980145.8042045-.3664466,1.6213253-.6422275,2.399479-.4515424,1.2741072-1.1239873,2.417739-2.2338053,3.2558678-.5149409.3888867-1.0208457.5884672-1.7011758.3944289-.8158854-.2327011-1.0740703.0740916-.7086292.8965429.3540368.7967676.4749199,1.3176112-.6043894,1.5654573-.7343881.1686389-.2065876.6565008-.0311304.8972671,1.1045127,1.5156308,1.8188837,3.1880127,2.1479686,5.028359.0867761.4853487.1468141.9754723.0159687,1.5089478-.3148096-.9344749-.6273701-1.8697104-.9457915-2.8029486-.0931133-.2729148-.1939926-.5439117-.3063953-.8094061-1.6471838-3.890891-1.9504436-4.0790896-6.2669402-3.9204404-.1328299.0048841-.2673798-.0369598-.5499212-.0793362.7595121-.6763117,1.6145585-.6623372,2.3854219-.7407078.6420555-.0652757.8532207-.3499594.9769351-.8994595.3013414-1.3383976.6869186-2.6512106,1.2816237-3.8960595.9518376-1.9924381,2.3907933-3.3975234,4.5877793-3.9605879.7965959-.204157,1.6004817-.4350493,2.3680773-.966134-.5159596-.3948158-.9975608-.7747279-.3017383-1.421057.431909-.4011879-.003678-.8066846-.297756-.970198-1.4979089-.8328577-1.687734-2.34914-1.8830099-3.7602073-.1355686-.9796356.3975637-1.9365701,1.2883578-2.4710641.4688738-.2813206.8991687-.3651705.6172888-1.0622983-.1631003-.4033539.351695-.5648436.5986344-.9497655-2.1297904-.6409688-3.1614319-2.2913673-3.8918245-4.1874261-.9888157-2.5668779-.8118899-5.1742705-.1407944-7.7709854.3673859-1.4215597.8698773-2.7989011,1.8530438-3.9682431-.2497573,1.4409374-.5591426,2.8746147-.7357508,4.3244589-.2893549,2.3752867-.3059719,4.7461687.294819,7.0985129.4866153,1.9052351,1.4555727,3.4227045,3.1325771,4.4959384.9100571.5824158,1.8179179,1.1953663,2.620388,1.9133731,2.0235662,1.8105588,1.7117995,4.598131-.622303,5.976653-.7042765.4159395-.8353204,1.0291314-1.1193436,1.7789758-.5928131,1.565077.3904988,1.3172607,1.1582665,1.5080947,2.894105.7193262,4.6976154,2.5269089,5.4003307,5.4247786.0848312.3498205.1166892.712296.1973927,1.0633268.3503059,1.5237787.648009,1.7847825,2.1965891,1.8138656,1.0833578.0203466,2.1722854-.0265865,3.2274235.2629515.332657.0912802.818624.2330781.7885785.6272094-.0311701.408691-.5140148.2561098-.8087412.2745087-.4325176.0269998-.7286198.2904804-1.0453213.5235023-2.3594248,1.7360109-3.5537829,4.1213204-3.8351204,6.989267-.3606783,3.6767905.6067312,7.1383695,1.6466414,10.6162641,1.7764813,5.9411646,3.5816058,11.9049079,4.0763444,18.1172745.5972981,7.500263-1.3580406,14.1662663-7.1503784,19.3586843-.2622465.2350853-.4891555.5327745-.881533.6199344-.1554401-.4211906.1664079-.6840661.340939-.9626487,1.0345388-1.6513442,2.0400773-3.3249364,3.1576613-4.9193842,2.8619692-4.0831999,3.6223412-8.6470859,3.2557226-13.499865-.5487967-7.2644899-2.7347091-14.1395145-4.9820487-20.9995262-.4494256-1.3718225-.8967476-2.7425206-1.1821335-4.1588589-.9143039-4.5376236.9824652-8.0035014,4.2000852-10.9600663.2591242-.2381044.5333836-.4597443.8604178-.7403606q-2.6605545.0571576-4.7750907-1.8552268c-.1499364.2474063-.3211336.4751274-.4361691.7283504-.9452755,2.0807422-2.5547007,3.0861244-4.8323901,2.9027604-.8058173-.0648756-.8743226.3161906-.8829354.9434198-.0654359,4.772193.2627625,9.5291683.5471165,14.2869239.5838034,9.7679439,1.3407356,19.5268735,1.5667185,29.3132296.0708074,3.065877.1242039,6.1405764-.5473678,9.16537-.0771842.3476016.0169477.5485279.3454901.6672213,6.2642677,2.263144,8.2119727,7.4037779,8.9687593,13.3741083.5377496,4.2422095.2667447,8.5157275.5869654,12.7642463.3636021,4.8242549.7479225,9.6463935,2.18152,14.3078227.4580119,1.4892527,1.0711067,2.9031373,1.9310483,4.2139299,1.1543239,1.7594956,2.7577162,2.3106293,4.7745086,1.9384318,1.938219-.3577005,3.4568197-1.4068214,4.7606434-2.8136824,2.6793677-2.8911139,4.2530585-6.4143378,5.6601958-10.0231013,1.547826-3.9695857,2.6495074-8.0839684,3.8871014-12.1539478.1468009-.482776.2940119-.9659224.4602743-1.4421774.4875811-1.3966233.4934288-1.352868-.9837486-1.2817591-.6635411.0319435-.7205363.3728323-.7973633.8830414-.9233268,6.1320846-2.9818336,11.8747766-6.002987,17.2782331-1.1509767,2.0585472-2.496237,3.9741226-4.3036503,5.5262437-3.0212857,2.5945358-6.6514988,1.7450384-8.1441818-1.9418444-1.1530935-2.8480597-1.4196398-5.8771851-1.6719505-8.8994193-.4657912-5.5795357-.35405-11.1872583-.8263901-16.7687516-.2700126-3.1907871-1.0815585-6.1672423-2.8726723-8.8509287-.4153582-.6223087-.7535453-1.2960973-1.2230674-2.112937.5916224.0880528.8297505.3985061,1.0914546.6390542,2.2478159,2.0661263,3.1660095,4.7602754,3.6158717,7.676243.7665505,4.9687213.8837292,9.9936049,1.304009,14.9922327.3360703,3.9970981.8371064,7.9654933,1.9783061,11.8279527.4227273,1.4307492,1.1586766,2.6222201,2.4412661,3.4568106.5483336.3568011.990734.3888636,1.5749873.0455806,2.1489344-1.2626327,3.6877242-3.0981842,5.0161294-5.1491919.1672017-.2581666.2501145-.4665596.0018522-.7595134-2.9828523-3.5196922-3.8498323-7.8341746-4.5301756-12.2074779-.4602743-2.9587837-.8260726-5.932448-1.301998-8.8885466-.7163688-4.4494517-2.3626133-8.1315199-7.892096-8.5588479,2.5764377-1.1072804,5.8512249.0581463,7.4515874,2.4025841,1.2726537,1.8643336,1.8387156,3.9947701,2.1754739,6.1761573.429263,2.7805485.6424259,5.5964267,1.12621,8.3660893.6587783,3.7715495,1.6784333,7.456726,3.2537381,10.9653207.1411649.3143818.2403507.6734711.610515.9224184.66411-.9120087,1.1144485-1.6001222.4117067-2.9208616-1.5479583-2.909235-2.1441451-6.1801652-2.7900108-9.4009513-.6452968-3.2178895-.8871426-6.5074037-1.7228863-9.6917492-.5071749-1.9324135-1.1861158-3.7879908-2.4125039-5.3970281-1.9002884-2.4932427-4.5507748-3.4317452-7.5563961-3.6095175-.5990974-.0354222-1.2020977-.0051057-1.8901806-.0051057,1.2416556-1.4497433,3.8246687-1.7043783,5.2673156-1.2551594,1.0796666.3361933,2.0850463.8118928,3.0098417,1.4507486.4091797.2826764.7387541.2914063,1.1786011.0323535,2.0729937-1.220888,4.3040075-2.035651,6.6887943-2.3685375.6157541-.0859629.8186108-.3241037.9362261-.9213074,1.1127153-5.6504858,1.9157543-11.3207594,1.3419396-17.1021936-.019779-.1992134-.0025005-.4020973.0882314-.6161779.9117505,1.3920467,1.1947153,2.9645574,1.3666533,4.5600501.4630526,4.2968639-.207302,8.4975667-1.1759418,12.6602019-.1888328.811496-.079182,1.0454173.7699241.883835,1.8122951-.344857,3.6529159-.4601312,5.4925708-.5449434.5132607-.0236633.7979454-.0978938.7283552-.7280131-.6252268-5.6619736-.5204049-11.317327.2093527-16.9640167.0087318-.0674913-.0235231-.14028-.0399284-.2282138-1.576006.7585148-3.2628536.7275369-5.2240003.7760209.7258151-.4794626.6905172-.8465081.2808083-1.319959-.9140922-1.0563495-1.2339954-2.3383797-1.1048699-3.767297.3251555.789949.6300558,1.5890776.9828357,2.3664939.2227151.4907982.5064075.9554796.7840406,1.4191358.1237409.2066536.2552346.504442.5597776.4092465.3595537-.1123973.1610894-.4319178.1291123-.6502245-.0926899-.632606-.2236809-1.2596037-.3969684-2.1999383.6526527.887565.770837,1.6116431.8322245,2.3566265.0178474.2165938.0400607.4667183.3421297.4389348.2994098-.0275388.2834676-.2886484.2665066-.4967703-.0933779-1.1456721-.1992978-2.2903257-.3130632-3.5724221.792918,1.2378584.5877063,2.5214759.6680393,3.8679288,1.5052119-1.0509925.6742707-2.6812527,1.2265072-4.0267003.6907951,1.3150054.1929606,2.5165819.0242507,3.7967008.9733365-.3640892,1.2097182-1.1688394,1.4260961-1.9385244.5348522-1.9023946.5202197-3.8582399.4229522-5.8082124-.1083808-2.1720688-.4317767-4.3109375-1.3002913-6.3286592-.5854175-1.3599908-1.3909438-2.9275413-2.8215513-3.034542-1.2138857-.0907842-2.031319,1.4487645-2.7267843,2.5337705-1.6031012,2.5010202-2.0342825,5.3671481-2.4189998,8.2360867-.1813578,1.352458-.3403701,2.7079185-.5368896,4.2811699-.5182484-.6994558-.3923511-1.3313409-.4446098-1.8833608-.3057073-3.2300716-.2285363-6.4258321,1.1891058-9.4408906.5896247-1.2540483,1.3512139-2.3867116,2.4767359-3.2364669,1.6820318-1.269901,3.2674709-1.1612272,4.74699.3274964,3.9523389,3.9769532,4.8245447,10.7957956,1.9682512,15.6393687-.3638138.6169253-.5340451,1.2140496-.5259086,1.9282668.0622078,5.4602007.7138418,10.8778896,1.1314359,16.312443.0486073.632692.2983911.8511773.9455401.8471694,2.3187159-.0144175,4.6233285.1813965,6.8467482.8845625,1.3506846.4271693,2.8187862.9068898,3.1526736,2.4868672.337433,1.5967097-.8587905,2.5962024-1.9272645,3.5179595-1.363875,1.1766037-2.8792344,2.1372352-4.6408054,2.7277063.9443891-.7773303,1.8911596-1.5517772,2.8323999-2.3328905.7506347-.6229436,1.5158886-1.2383478,2.0621186-2.0598566.6374249-.9586607.486827-1.5892893-.4988135-2.1393383-.9637447-.5378404-2.0435171-.6832592-3.109742-.871256-.5326163-.0938992-.7031519.3001891-.8615556.6496359-.6249754,1.3787006-1.2128273,2.7741599-1.8335426,4.154818-.7310145,1.6259151-1.5985765,3.1557485-3.1314128,4.2172235-.1122175-.3407302.1636031-.4774455.3128251-.644398,1.9467259-2.1778953,3.1004545-4.7570744,3.8598871-7.5414192.1310439-.480448.2802659-.8950516-.4882294-.9453278-4.1484086-.2713805-8.2817481-.1238321-12.6756936.3135352.8933475.4132014,1.6049931.5787122,2.1797869,1.0207884.0843549.0648525.1936221.1538973.2836925.1458685.7483723-.066744.7558341-.0767436,1.1184043.666937.9590745,1.9671214,1.2961503,4.1188271,1.8409382,6.2094632.0881784.338389.0486205.9486081.5186983.8689809.4903594-.0830927.4370555-.6338824.3784066-1.0912756-.2008854-1.5665254-.4791668-3.1054194-1.3099625-4.4881542,1.3225178,1.5033528,1.809239,3.2887999,1.741845,5.4013401.951745-.7719734,1.2445398-1.8690557,2.0563635-2.7645437-.0525895.8578437-.3949177,1.4581161-.7335546,2.0482036-.3530048.6151132-.752381,1.2036531-1.1587692,1.8470326,1.7177663.474271,3.3818184.2597803,5.143019.3301617-.465725.6463159-1.1062458.8599071-1.7184278,1.0465812-2.7595155.8415215-5.5600045.8039168-8.3527804.2150859-1.3273071-.2798458-2.2170163-1.0654299-2.8904403-2.3166608,1.0117302.1262527,1.927238.5893203,3.0797891.5786857-2.2016297-1.8448766-4.1984712-3.6762218-5.0202704-6.4061105,1.8601483,3.0384638,3.7876642,5.9770233,7.7928043,6.8446551-.0930603-.9419416-.7987921-1.2332686-1.0485495-1.8815421.4672994-.0444298.5968086.5211743,1.0524788.5078414-.3361232-2.1504887-.822302-4.2384133-2.0548288-6.0697056-.9102687-1.3524977-2.120966-2.2488323-3.8267723-2.3129572-.7753881-.0291525-1.5706346-.1169276-1.6807617,1.1698578-.1810403-1.3972979-.9117902-1.2564557-1.7207827-.9181858-.6973307.291565-1.4194413.5392161-2.0805613.8983451-.978946.5317692-1.0295908,1.072427-.1852739,1.8367551.8324759.7536142,1.8218076,1.2917456,2.7675858,1.8902058.6774194.4286507,1.453059.7641958,2.0366772,1.7147219-1.8806417-.1149964-3.0312479-1.2866135-4.3777122-2.015903-.038354.0922458-.1040016.1737248-.0845137.2140277,2.1590951,4.4655359,2.6413841,9.3343793,3.4445951,14.1318758.5237918,3.1285933,1.1734414,6.236129,1.76726,9.3560189.3269283.0065606.3228403-.2429554.3887657-.4224869,1.5322674-4.1740899,2.430338-8.5262695,3.6019801-12.8017452.1079971-.3940751.0452733-.5963439-.3733791-.714991-.371302-.1052216-.716382-.3029006-1.2859102-.5533955.8133452-.215205,1.4338489.3547244,2.010389-.0754474.5132342-.3829246.4737028-1.1110369,1.0245501-1.5693031.3262404.6020845-.1884359,1.541923.834553,1.7890185,1.1080186.2676636,2.0682441.0069442,2.9762505-.5873892.3248512-.2126124.6121555-.4825908,1.0804075-.8575527-.0888003.7904516-.4985753,1.200677-.9249012,1.5042125-.7100051.5055266-.9740377,1.2020262-1.1654769,1.9936947-.9649089,3.990511-1.5610825,8.0795374-3.1704151,11.8990483-.559857,1.3287286-1.0574136,2.6857102-1.6672274,3.9906565-.3448948.7380459-.6977276,1.3922054.1887402,2.1619831-1.0189406-1.0943179-1.2295898-.1908406-1.5387369.4171299-.621271,1.2217345-1.2251842,2.4523841-1.855359,3.669476-.7328138,1.4153396-1.5576427,2.7579302-2.79054,3.8219051-.455948.3934798-.8428615.9032259-1.1512678,1.4249293-1.1992268,2.0286539-2.5812402,3.9166905-4.1920943,5.6348911-.4329938.4618375-.5898231.913305-.3730219,1.5592637.2906383.8660181.2145124,1.7036905-.5597379,2.3656937-.7334885.6271498-1.466117.4845088-2.1970257.046189-.4102381-.2459976-.732483-.1447706-1.0804869.1129991-1.1603833.8594971-2.317803,1.7240734-3.5030588,2.5483335-.4366453.3036678-.3501736.7681772-.4830829,1.1572524-.4804766,1.4064246-.914714,1.6775008-2.3040702,1.2259672-.6008967-.1952717-1.1307876-.1505112-1.6607976.1486594-1.1645243.657387-2.3420273,1.291653-3.6507197,1.6142885-.4856363.1197185-.6779883.5157115-.9393749.8449605-.6574817.8282547-1.4226166,1.3455138-2.5261767.950526-.6044424-.2163293-.6846034.0894946-.6360225.5778789.1124027,1.1298591.4020752,2.1798,1.0992868,3.1189772.9135498,1.2306099.9041961,1.6841673-.1361507,2.8444487-.4760048.5308962-.4788757.8863349-.1064095,1.4707215,1.3569954,2.128955,2.7118211,4.2647881,3.7003589,6.6013161.8492649,2.007345,1.4131306,4.0734846,1.4875894,6.2771859.1842288,5.4528862-5.0875056,7.0886025-8.5781282,5.486073-3.2532618-1.4935515-4.7543724-4.8948347-3.7220695-8.6313985,1.0136618-3.6690924,2.8839179-6.913608,5.2209442-9.8888066.430533-.5481047.5323649-.8854355.0282462-1.4274424-.5941494-.6388029-.9972168-1.4196252-1.1167373-2.3060924-.1420381-1.0535122.2708858-1.5056014,1.3195278-1.3543098.484009.0698391.6261926-.0111108.6649435-.5050769.1218754-1.5537613-.1874172-2.0377674-1.6626365-2.4344879-.8359422-.2248211-1.2775091-.6436308-1.8518134-1.8590295.7109577.7669735,1.4975782,1.2910049,2.5917714.9902735.2487386-.0683841.3606386-.18096.3971668-.4109925,1.1998354.3099242,1.4269031-.7346333,1.8179179-1.4076282.4165489-.7169486.68418-1.6511921-.0566512-2.2767547-.7188163-.6069785-1.6352371-.3695256-2.43563.0406337-.3507028.1797166-.7129687.4326056-.5780748.9127494.1364682.4856992.5361223.4952888.9609796.4417852.5774927-.0726962,1.1699751-.0275388,1.1432106.7340513-.0216841.6164491-.1282126,1.2807406-.8516595,1.5572003-1.379685.3433227-1.9338663.1571247-2.566105-1.0080242-.3223375-.5940292-.8008428-.9156726-1.3955478-1.1043572-1.1755714-.3729646-2.2941741-.8372094-3.1077178-1.8301019-.6508138.6098885-1.041048,1.601855-2.0328008,1.3111101-1.0184114-.2985489-1.1339231-1.3456593-1.2991535-2.2084764-.4043904-2.111654-2.233792-3.1012793-3.4638713-4.5610752-.2166028-.2570687-.3784595.0018915-.5327221.1205254-.8433113.6485645-1.7653416,1.1508108-2.7620292.4512426-1.0209912-.7166576-1.3905469-1.9081153-.9651868-2.9851983.5662868-1.4339634.0387112-2.3638419-.8678928-3.3055851-.2240116-.2327044-.4293159-.4907784-.6040455-.7623705-1.1523394-1.7912936-2.5038311-3.2512614-4.7564363-3.7055727-1.0832519-.2184588-2.0012603-.9922443-2.8007007-1.7820081-1.044554-1.0319256-2.0281967-2.1273942-3.6670324-2.1122889.2141684.0066929.4305198-.0000661.6437357.0226051.9028599.0960288.9620116-.2158134.5152452-.9215058-.6534862-1.0321902-1.2339822-2.1103313-1.8595265-3.1605896-.1516696-.2546349-.2509216-.6133275-.7115795-.2719889-1.4303297,1.0598613-1.2582329,3.1643065.3521449,3.9148387.354738.1653256.7272042.2926496,1.0915075.4374864-.9404068.0318641-1.7359179-.2496483-2.4643393-.8907528-1.4882377-1.3099064-1.4310838-2.8244625.3124017-3.7081255.8710945-.4414942.954907-.8303446.5880635-1.6908469-1.4645427-3.4353033-2.2630305-7.0656271-2.8996616-10.7283572-.1409135-.8107552-.4261936-1.1930053-1.2755246-1.3978799-2.1915484-.5286741-3.3366113-1.9739069-3.1687878-3.7620128.015757-.1680371.0900306-.3305585.2226886-.7954383.2800807,1.2683733.4770368,2.2833418,1.4261887,2.8795402.2740345.1721243.525353.4619036.8645985.3853716,1.7333645-.3911254,3.4490537-.8533465,4.7059636-2.2324703.4082139-.4479226.8582878-1.0171642.5192142-1.6376475-.3435982-.6287106-1.0699822-.5342956-1.6692251-.4374864-1.220289.1971367-2.4394668.264304-3.6690566.1610929-1.1190658-.0939257-2.1110699-.4407403-2.819236-1.3849437-.60859-.811443-1.4007803-1.3300116-2.4219501-1.4978371-.5820637-.0956584-1.0636913-.4374864-1.5332464-.7753331-1.8646928-1.3416118-3.4622044-2.9396706-4.7012272-4.8859329-.2898775-.4553298-.5966366-.9075247-.9510769-1.3126709-.8652799-.9890698-.8530024-1.4632746.3038882-2.1743637,2.0361943-1.2515484,4.3291115-1.7414274,6.6647024-2.0521982.6075845-.0808308,1.226183-.1758146,1.8332119-.1432363,1.1420861.0613473,1.5216437-.4275793,1.6207898-1.5562744.3915176-4.457011.9664436-8.8986455.9685604-13.3843593.0002778-.6004245-.0867364-1.1066323-.5664853-1.5502362-2.8963078-2.678098-3.5396664-5.9769704-2.62355-9.6977807.7338126-2.9803638,2.1541999-5.6316571,3.854476-8.1618496-1.1421787,4.985943-3.360776,9.8075855-2.2266478,15.1083732.2438435-1.4053862.3903798-2.8241054,1.1657415-4.0869696-.0396902,1.8834997-.6708044,3.7426681-.1622933,5.6322655.0362769.134804.1042662.2703818.4165885.2268382.2558432-1.3163943-.2775272-2.8131798.6680129-4.3060236-.0716276,1.2873343-.1204995,2.3228313-.1912143,3.3568269-.0269364.3940222.038645.7165055.4292233.8995223.1747957.0819154.3605724.1124502.4984166-.0369962.281192-.3048516.0443075-.608698-.0379968-.9077562-.2693246-.9785873-.3280794-1.9578095.0858367-2.9600205.0918299.8271502.205516,1.6526206.2694701,2.4819203.0662959.8596294.6112823,1.2731086,1.3559502,1.2160204.9055191-.0694291.8544907-.8441801.7522884-1.4997021-.1142285-.7326558-.3057735-1.4532617-.5053491-2.3707729.7038267.8753762.6845901,1.7698723.9041564,2.5916258.1409797.5275762.117536,1.3095757.8170232,1.3799836.6805947.0685032.8663714-.6535313,1.1060606-1.1650498.3698996-.7893802.6102768-1.6312258.6909538-2.4916091.3352501-3.575127.3897315-7.1387333-.7557944-10.6082749-.3863181-1.1700695-.9450506-2.2604986-1.6854187-3.2529347-.8855947-1.187106-1.9679734-2.0978647-3.4363925-2.5142341,1.2889002-.2303103,2.4065768.1917335,3.380588.9812129,2.1849598,1.77099,3.3165016,4.1577346,3.7281288,6.8765853.6215488,4.1054214.137434,8.0566677-1.9110312,11.7419104-.1331871.2396023-.3827725.4838276-.1731949.7917082,1.2241125,1.7981584,1.1075688,3.9276756,1.3934972,5.933612.5140148,3.60588.9838015,7.2301722.6809254,10.8905876-.047668.5760271.2920142.6643841.6822749.7581246,1.5767866.3786919,3.1492337.7794467,4.7357974,1.1123464,1.3623271.2858774,2.6418472.7033512,3.7058626,1.6520651.4273049.3810067.6008702.7049913.0366076,1.098577-.176251.1229459-.3464559.2692112-.4797357.436415-.4793388.6013967-.8717692.6044124-1.299299-.0786087-.5550545-.8867582-1.3613878-1.4639228-2.5729847-1.7580803.631101.7986524,1.2672161,1.3995597,1.7188114,2.1462032.3580455.591979.3408861.9619675-.3383724,1.2622095-.5244269.2318182-1.0086873.5544537-1.5107685.8366804.2125411-.5643343.8094027-.6706802,1.2079718-1.0132886.1739887-.1495721.5272317-.2201651.3267167-.5584218-.5570655-.9397195-1.2796524-1.7295891-2.1878572-2.3479694-.2395172-.1630902-.4135059-.0402765-.5792126.0877354-2.3661457,1.8278533-4.7047332,3.687187-6.2943132,6.2880586-.2148167.3514573-.5812765.8578702-.2503394,1.1677547.3359909.3145934.9252187.2911417,1.3999402.0131345.7750574-.4539277,1.543169-.9208312,2.3312051-1.3511617.5916357-.323072,1.0968657-.8139959,1.7912593-.9414919ZM99.7229185,144.1679495c-.645998.1278796-1.1356298.2392121-1.6302229.3203075-2.4759024.4059398-5.1187815-.6749261-5.9794772-2.719188-1.186817-2.8188675-2.5938617-5.5529756-3.4226464-8.5204364-.7507273-2.6879588-1.1785482-5.4246992-1.4084868-8.1994146-.0338954-.4089291.0358138-.849471-.704594-.7309297-2.1723648.347767-4.3570601.6238298-6.5422713.882962-.6930706.0821932-.9120813.3426084-.6113881.9767025.3429367.7232447-.1142946.990538-.6750513,1.172371-.2621804.0850106-.5495243.0924839-.8962184.146014,1.414361.4800248,1.4240719.545618.2354424,1.7216,1.3948466-.7189327,2.008775-.111769,2.3059356,1.1402159.0889061.3746577.3518141.7074119.5311345,1.0613295,1.4904339,2.9413107.7496027,5.4648831-2.0856549,7.0640795-.4733059.2669626-.8499925.4974052-.5375511,1.1587735.3474482.7354533.1764495,1.5056807-.1436654,2.2043495-.6845901,1.4941203-.7293078,2.9838491-.1725995,4.5232854.2221859.6144254.2913262,1.269868.1126408,1.9193319-.2258241.8207549-1.1106514,1.4284345-1.9079221,1.2474745-.9607944-.2181017-.904937-1.01395-.8214685-1.7319436.0703046-.604677.2156105-1.2115761.41299-1.7883307.4465017-1.3047081.5254721-2.6045884.1402785-3.9344148-.1842949-.636303-.2472965-1.308134.0192101-1.9160648.2977957-.6793175-.0053053-.9674699-.5455156-1.2672887-3.3519317-1.8600877-3.7509375-5.7693578-.8404139-8.302176.494646-.4304628,1.0845485-.7514978,1.5853729-1.0924132-.4422152-.3585603-1.7243945-.4606074-.2585024-1.2312713.3235944-.170127.2091939-.4286507.077171-.6456149-.3451991-.5672443-.3803249-1.0493986.2194472-1.4969112.2592697-.1934331.4015063-.5389912.228404-.8743115-.1669503-.3233894-.5095298-.2154166-.7816327-.2086443-1.0451758.0260442-2.090894.1277738-3.1343896.1056845-2.6655687-.05644-5.1978048-.6689607-7.6608475-2.1619699,0,1.8036609.0413837,3.415013-.0086525,5.0235212-.1023214,3.2888529-.265554,6.579121-1.7032132,9.6291718-1.3740357,2.9150549-3.6797994,4.4464227-6.9218818,4.5444885-.2581187.007804-.5788819-.138911-.8114798.2267787,1.0851703,1.0112781,1.9011748,2.2480519,2.7783948,3.4343642.4362749.5900081.9270709.8893639,1.7026972.9242041,1.431957.0643499,2.2187891.5916483,2.3475045,1.9169246.1341662,1.381637.9313178,2.1827761,1.7908227,3.0432652.5101516.5107513,1.029432,1.0213704,1.4707873,1.5893818.4445437.5721251.7499202.6432208,1.3478666.1176551,1.1223733-.9864773,2.1298434-.5819925,2.4021183.8712957.0463714.2476378.1453456.5297719.0737312.7479794-.4584882,1.3969936.4963924,1.8392021,1.4885023,2.2391897.5324708.2146626,1.1039835.3314844,1.6398808.5389647.5009567.193949.7825853.0627361,1.0325808-.4139818.6417115-1.223626,1.515624-2.1613482,3.0598911-2.0710335-.5125066-2.4719999-.5745556-3.8284128-.1671752-5.0733477.0494672,1.8294802.2297535,3.4338351.9269386,4.9327171.2732407.5874553.6402826.9808293,1.3429318.7294482.4674979-.1672699.8281232.0032406,1.2094933.2477304.8799851.5641624,1.5578544,1.2705293,1.8561661,2.3057882.0618506.2146494.0323475.7550691.4721945.4826834,1.1640083-.7208903,2.8944093-.6718442,3.1609159-2.6345875.1576892-1.161366,1.2475562-1.7312954,2.0720147-1.197185,1.0146143.6573208,1.6451464.2092792,2.3751025-.351206.5437163-.4174738,1.1001732-.8209004,1.6723871-1.1980977.5971394-.3936253.8639503-.8427119.698614-1.6139446-.21012-.9802209.0174902-1.9444105.5574227-2.8017384.7669738-1.2178325,1.7418318-1.4231965,2.876853-.542007.398331.3092364.5689064.2513546.848696-.0888332,1.122532-1.3647592,2.2480276-2.7258677,3.3003873-4.3827474ZM69.9533219,107.5532007c-.7963975.9181329-1.3442548,1.9422677-1.5836927,3.1354846-.4124872,2.0556504-.3956057,4.1039598.226565,6.1047707,1.0198799,3.2796865,2.9393254,5.6880773,6.5195817,6.3647361,1.3321229.2517647,1.3380367.2411962,1.3260899-1.0688954-.0411455-4.5138016-.0823043-9.0276164-.131454-13.5413386-.007475-.685521-.0730829-1.3703543-.0827806-2.055915-.0079513-.5643211-.2664537-.7394876-.8147211-.7004941-1.3685452.0973118-2.7475158.0852884-4.109102.236236-3.4029469.3772899-5.2129135,1.9320167-6.0212048,5.2831692-.923049,3.8269182.066415,7.2263099,2.6539395,10.1433357,1.4788179,1.6671307,3.2839159,2.1695622,5.5690538,1.7142721-.1434008-.0874179-.2539909-.1734867-.378433-.2279956-5.014383-2.1969688-6.9917498-8.7990785-4.8615757-13.6889795.3333052-.7650953.7322846-1.4777319,1.687734-1.6983864ZM81.6240459,105.3747102c2.530966,2.0773826,3.0585019,4.8699016,2.9367323,7.8377988-.1174037,2.8615645-.6263249,5.6450627-2.3420008,8.0422766.2488444-1.2256233.9461619-2.286675,1.212523-3.5225758.6125259-2.8421339,1.0999351-5.6827732.27291-8.5604616-.8236647-2.8659956-2.059724-3.7516163-5.0000813-3.6525056-.2526679.0085183-.5065398.0384776-.757726.0232929-.7164482-.0433452-.8992349.2042926-.7811035.9556185.8291816,5.2734076,1.7890102,10.5319876,2.060359,15.8772845.0331149.652493.328516.7621721.9037595.6727172,2.0698714-.3218551,4.1479852-.5855241,6.2499793-.4504622.4642036.0298271.5351697-.1343609.4981123-.5555251-.4236534-4.8160805-.4823156-9.6606919-1.1985653-14.4550271-.527139-3.5284221-2.2957617-6.3833996-4.6377228-8.9705811.2795647,1.3477756.6414998,2.6722847.5174414,4.0489615-.0647347.7184565.1115692,1.0359863.9162884,1.0084078.7823736-.0268113,1.5983649.0757384,2.0624626.9093501-.8911381.4900377-1.9144181.4165082-2.913368.7914304ZM81.133832,182.2563827c-.4243017-3.6506538-1.4443536-7.8070855-3.6488939-11.6286467-.5113953-.8864936-.7611526-.6514877-1.1908786.0112959-1.7182822,2.6502219-2.9768591,5.5038634-3.8466041,8.5333196-.4488964,1.5635493-.8078415,3.1438838-.6714262,4.7890311.1847977,2.2288593,2.8002244,4.4843713,5.0308412,4.3491506,2.8759137-.1743332,4.3291314-1.975891,4.3269616-6.0541505ZM38.1647631,99.2255097c2.192792-.0864391,4.2433343-.1486065,6.2878305.1940151.7810374.130869.4007918-.4810565.3283572-.7907029-.5924162-2.5326594-1.0026146-5.0884663-1.2290606-7.6836039-.223575-2.5621955-.1246538-5.1230948-.1500158-7.6845629-.0075411-.7610346-.1746237-1.063717-1.0038054-.7267036-.9388986.3815953-1.9502054.5539775-2.9680479.5119352-.746454-.030839-1.0378331.2107739-.9570767.988296.1341397,1.2915802.1787648,2.5921615.2858887,3.8868964.3096234,3.7422779.705745,7.4867714-.59407,11.3044306ZM41.5355212,119.0092866c-.1207509.6208008-.0592972,1.0454173.0307732,1.4716606.9190535,4.3496136,2.2515865,8.5761225,3.9795135,12.6644875,1.279745,3.0279483,3.4832137,5.2852062,6.4137147,6.7831887,4.8016831,2.454474,9.5130842.7718146,11.1787373-3.9433034.4973846-1.4079721.6804888-2.8641041.754736-4.3525367-.4002097.8787293-.753704,1.7726169-1.084694,2.6747317-.8797073,2.397743-2.57145,4.0354566-4.7878709,5.2121397-.9552642.5071536-1.844947.5665432-2.8831108.1531566-3.8896019-1.5487217-6.5191716-4.4071514-8.5364402-7.9472663-1.9813358-3.4770481-3.0583167-7.2996806-4.2617771-11.075066-.1693582-.531293-.2850419-1.09695-.8035814-1.6411924ZM49.3595088,102.1474031c-1.3986834-.9411216-2.6089969-1.8140706-4.2539713-1.6900136-1.1508841.0867962-2.3080524.0948119-3.4627732.1245993-.761404.0196555-1.0831461.3737053-1.2619638,1.1450173-.6635279,2.8620804.3034979,5.7008282.0120261,8.5910559.1717793-.411601.2177538-.8221835.7362668-.9602083.6814678-.1814097,1.2011981-.668921,1.6398279-1.198058,1.8878785-2.2775086,3.7932605-4.5316053,6.5905875-6.0123926ZM29.8084305,101.9135082c-.6274693.17764-1.3884962.3979638-2.1523874.6078647-.660432.1814626-.9306497.4186378-.3565769,1.0709323,1.0247287,1.1643686,2.0470165,2.3411707,2.9537793,3.5968856,1.876461,2.5986097,4.7863561,3.4362954,7.5305313,4.5686411.2606457.1075628.5878518.1445855.797694-.1295462.1973662-.2578624-.0164979-.4795618-.1453985-.6827566-2.0816065-3.2815647-4.4670086-6.2969472-7.6250205-8.6265045-.2535676-.1870577-.4977021-.4298147-1.0026213-.4055165ZM39.0831683,110.3708778c.3417328.1350619.3203398.647546.699818.4964264.2727777-.1085945.156525-.4403699.1884359-.6782461.1205127-.8985303.1252623-1.7946003.0179003-2.6984744-.2302297-1.9382202-.4544266-3.8920087.0365547-5.8130205.2415414-.94505-.0276509-1.2009151-.9182068-1.0317404-.2119193.0402633-.4323985.0748919-.6457731.0614928-.9887363-.062088-1.2833039.3366694-1.1541254,1.3413604.2537793,1.9737747.6656976,3.9171138,1.0022045,5.8761402-.906776-1.9912344-1.4467085-4.0717518-1.5285233-6.2542502-.0208771-.5572446-.1668841-.7810868-.7582155-.6870157-1.652714.2629019-3.3110905.49017-5.1894301.7638784,3.4327674,2.7935905,6.0504168,5.9966788,8.3236742,9.8241789-.0334324-.5402213-.0503801-.8140223-.0743133-1.2007299ZM76.1582263,137.8423921q-1.0303317-2.1506607-.9606356-3.0333978c.6286137,1.007601.7941748,2.1793238,1.6691457,3.014364.43818-.5718341.8544511-1.1150976,1.2707353-1.6583612.0476944.0280679.0954021.0561226.1430965.0841905-.1897193.4960163-.3794385.9920327-.6122084,1.6006117,2.6127278-1.4207363,3.4301082-4.7273531,1.8827585-7.0866846-.4135721-.6306286-1.0311122-.7625292-1.7067324-.6390542-1.6867021.3082179-2.8699469,1.2770106-3.5372983,2.8492766-.8450974,1.991036-.1500158,3.9164789,1.8511386,4.8690551ZM78.9517298,40.0028455c-.3932904-.1425948-.4214969-.6494805-.855483-.6521325-.0961826,1.247415.0065621,1.4998046.6251871,1.5581659,2.1927524.2068719,4.2606525-2.0906692,3.7607277-4.2240718-.5306186-2.2644369-2.0142919-3.7575817-4.0329894-4.7822324-.4606712-.2338254-.8144962-.303896-.769858.4335778.0542962.8970786.0117483,1.8008237.083958,2.6958091.098445,1.2199125.2223578,2.4339687,1.2374485,3.3460138.2683456.2411069.6320932.6875316-.1389952.9565675-.3583762.1250325.1388893.3821045.0900042.6683027ZM77.1340236,21.4619301c-1.6538782.021041-2.5221812.8111289-2.6799233,2.468293-.0776208.8151995.1042397,1.6001289.5550942,2.2705842.244849.3640727.4224495,1.3307755,1.1813662.3965618.1683659-.2072621.3195989-.0239543.3502927.1730601.0769858.4937644.4747876.3681499.7636134.3830073,1.4269296.0733972,2.4171212-1.0247466,2.448741-2.688015.0352185-1.853041-.9861432-3.0242678-2.6191841-3.0034914ZM68.5419244,122.4339157c-2.453914-2.0332966-3.7646968-4.443526-4.1340407-7.3387403-.3637212-2.8512342-.5020284-5.6732497,1.4773891-8.2625079-2.3964955.7686666-3.6496613,3.54653-3.4121947,7.1712984.2546921,3.8877099,3.0022212,7.8908792,6.0688463,8.4299498ZM70.7721576,36.2154433c.0766683.5513949.1198512,1.2220388.6697328,1.4950627.6361416.3158401,1.2836743-.0294237,1.7879915-.4465602,1.5531974-1.2846823,2.1879763-3.0842031,2.6543496-4.958014.124958-.5020512-.0909832-.6483959-.5879709-.4660305-1.5908369.5837286-2.9844135,1.438454-3.9898065,2.8367207-.3218612.4476151-.4822229.9627479-.5342965,1.5388212ZM77.3802882,161.6975372c1.7267759-.2018324,2.7218362-.9916623,3.3082063-2.2780377.6142062-1.3474449-.3846379-2.9540484-1.8613919-3.1064247-.4428238-.0456996-.6433255.0678286-.4489625.5204865.7487692,1.7438612.5799138,3.3422374-.9978518,4.8639759ZM58.7872326,149.6464698c-.0042733,1.0055905.7201129,1.7886217,1.6383594,1.7710164.6188102-.0118647,1.3820928-.9461875,1.388139-1.6991932.0071839-.8945357-.9469822-1.9788274-1.7094578-1.9425587-.638576.0303959-1.3132965.9887656-1.3170406,1.8707355ZM95.6911066,151.7640892c-.0100152-.0890052.0960636-.3643273-.1796909-.4389811-.305403-.0827091-.398384.2425454-.5803769.3957417-.1745179.1469002-.2853595.4938339-.5976686.261976-.2468202-.1832483-.1536012-.4429492-.0659519-.6909441.1500687-.4246429.4821039-.7066183.7555298-1.0398619.3817405-.4652766-.0719848-.7866951-.2717589-1.133814-.1345895-.2338684-.3124017-.1942003-.535474-.0435701-.8121413.5484486-1.4283187,2.1972333-1.1017344,3.1005915.2272265.6284858.6612788,1.0809056,1.3746972.9781574.6929516-.0997985,1.213674-.4671416,1.2024284-1.3892955ZM77.9278809,167.0021344c.01196-.7336545-.4058854-1.0389095-.954444-1.2261392-.4640713-.1583946-1.0577047-.5512792-1.3936692-.2534842-.3654808.323945-.0134418.9443225.119838,1.4231172.0477738.171582.1224708.3395133.2089558.4957915.2804776.5068493.6010819,1.1593687,1.2369192,1.0107226.6787689-.1586855.7087747-.9148261.7824001-1.4500079ZM76.8942946,145.4138632c-.5227863.8720629-.9814995,2.2409357-.954444,2.8271079.0118938.2574523.0167096.521796.2937341.6450858.2588067.1151948.4831887.0148144.6968809-.1500218,1.0685269-.8243395,1.0528095-2.4691296-.036171-3.3221719ZM69.8140621,36.6285919c-.5596718.8261384-.8622039,1.6552462-1.1360135,2.4993437-.139789.4309456-.1834879.8404666.4374127.7811464.5087096-.0486063,1.3627372.4798694,1.4026259-.5467985.035655-.9174913-.1943895-1.8270034-.7040251-2.7336915ZM66.8026328,155.7981438c.0368987.506016.1234234,1.0283146.6058844,1.1962459.5994149.2086708.6053817-.4575122.8380722-.7657302.1252359-.1658811.2040607-.3830172.2504056-.5890558.1273791-.5661993.2927021-1.1896588-.4774998-1.4291752-.8483255-.2638146-.8772068.5107381-1.1120141.9803928-.0909832.1820049-.0752394.4173283-.1048483.6073224ZM87.5719296,156.6947165c-.0863659-.3941941-.1096905-.9083713-.5780616-1.0413169-.4887586-.1387391-.589757.4150797-.822474.6939599-.1543023.1849149-.236514.4356082-.3282514.6659185-.2180051.5472185-.0530658,1.0361054.4300568,1.2928038.5344288.2839594.7139741-.2879672.9627524-.5896378.2295947-.2784173.320181-.6317793.3359777-1.0217275ZM77.2759029,141.2194565c-.0794995-.395292.0270026-1.0204709-.4919603-1.0252327-.4695088-.004312-.5604921.6013834-.5376834,1.015114.0244756.4437031.1253946,1.1011298.6157276,1.0856938.4604462-.0145101.3355279-.6744764.4139161-1.0755751ZM4.7712575,105.8217334c1.3304294,1.0332483,2.6803269,1.8118485,3.4977337,3.2066729-.9984406-.7995651-2.0514486-1.5412484-2.9792604-2.4157186-.8480146-.7992609-1.6114494-.8138239-2.5393803-.0657255,2.9609566,1.7879074,5.5769654,3.9573242,8.0404183,6.4995468-.4777379.0775108-.655312-.1862905-.8553044-.3494204-2.1814737-1.7794288-4.5047474-3.3788501-6.6067083-5.2611725-1.1025943-.98739-1.4448365-.8831868-2.0903847.3992204-.1194609.2373207-.1369974.6662624-.4828778.6006295-.2293301-.0435172-.4693038-.3427671-.5907029-.5846379-.3677431-.7326492-.0873648-1.304232.5178648-1.7903544,1.8671073-1.4996492,4.0562876-2.155105,6.3809967-2.4440378.8590816-.1067427,1.7277153-.2029434,2.590627-.1922956.7317487.0089944.9548541-.2302706,1.0321243-.9703667.3372941-3.2306272.9779803-6.4163615,1.5644297-9.60906.0369251-.2010387.1305345-.3916677.3505837-.5654586,0,3.046744.0084474,6.093521-.0036647,9.1402121-.0058278,1.4674676-.0190248,1.4934324,1.4312227,1.2509532.7998042-.133726,1.583018-.102973,2.3697509.022076.516932.0821668.8106926.0238881.7557812-.6344909-.2743322-3.289501-.0413109-6.5650011.3760979-9.8287423.0712109-.5568279-.2141155-.5956627-.6058844-.6141807-1.1176038-.0528224-2.235201-.1060681-3.3526395-.1621577-.3960819-.0198737-.7962983-.0203433-1.1857784-.0839061-.2190636-.0357529-.5600224.0203962-.5921781-.3288985-.0227094-.2466392.2011302-.4055893.3972859-.4556935,1.0565007-.2698527.7898155-.8355627.4871181-1.5820606-.9718283-2.3967245-.9991021-4.9217585-.6115668-7.4937421.0825623.9776482.1752985,1.9545755.2449283,2.933143.0745978,1.0482016.2213656,2.0854114.5697002,3.0767629.3402709.9684289.678802,1.9469766,1.4004231,2.8767559-.2364942-2.0523899-1.0881338-3.8678891-.8337923-5.8808821l1.1241858,4.9183194c.0708867-.0091796.1417669-.0183592.212647-.0275388v-3.5432431c.4953207.6841653.3127854,1.2228588.3848231,1.7051785.0530923.355485.0209697.7233968.0695902,1.0799334.0507836.3724554-.0788975.9815304.3458275,1.0241547.4609821.0462552.4028756-.5730642.4873033-.9254673.1823369-.7610875.3185868-1.5332063.5355666-2.2914434.2081289.9996978.0150161,1.9772666-.0857904,2.9584663-.0177878.1731692-.0829592.3923555.1031946.4880073.2269288.1165837.411581-.0335638.5536918-.211508.3051583-.3821244.3815884-.8386843.4573306-1.3080083.2264922-1.403422-.1108879-2.8040465-.0122047-4.4991261.6081468,1.5409773,1.0093289,2.9483476.6101974,4.2000349-.5658569,1.7744885-.1079111,3.4069775.0803198,5.0967134.3318962,2.9795305.5855035,5.965357.5919069,8.9635575.0014884.6958249.1638875,1.0771491.8728342,1.1734424,2.1730131.2951363,3.7998755,1.6634536,5.4376461,2.9220785,1.5859815,1.2188113,1.5442671,4.1467363.0371434,5.6120214-1.3442284,1.3068906-2.9733068,2.1506739-4.7293014,2.7636575-.9170955.320162-1.8384311.628208-2.770642.9460817,1.6387298,2.3516465,1.1365956,3.7255985-1.841785,5.0602661,1.616887,2.9139835,2.516135,6.1273229,3.8594307,9.157824,3.1880309,7.1922898,9.4235431,9.5841467,16.3226625,8.7949913,1.948856-.2229296,3.7853489-.9047735,5.6936018-1.285423.4382726-.0874311.9277721-.4268915.878252.5460412-.0287357.564374.7665372.89857,1.1562687,1.3677088.8466585,1.0191615.7976411,1.635809-.2092204,2.4209301,1.6677434,1.1035371,1.7725388,1.382629.9054795,3.1529179-.3580322.7309694-.1921404,1.2860579.2383133,1.8963697.8408505,1.1921852.8249348,1.7348271-.1110268,2.7685648-.3836721.4237567-.6252665.8354767-.6357447,1.4224426-.0072765.4080826-.0851488.8490742-.4394104,1.1480067-.2678296-.1567412-.3391-.4232673-.2649719-.5896642.492807-1.1062884.0151484-1.934305-.6333501-2.7992913-.5226673-.6971344-.4371481-1.5091991.044969-2.2354993.3185008-.4797999.6933485-.9217968,1.0307418-1.38956.9888554-1.3709098.8266282-2.205077-.5896644-3.076505-1.1928896-.7340248-1.3774226-1.3386753-.7077031-2.5125278.3234753.4052255-.00086.8519841.1635899,1.2290094.3435453-.0925897-.0066547-.4624327.246979-.619531.0243963.095579.0583182.1820975.0671294.2711027.0330223.3338785.1274321.7370935.5167667.6130497.3199958-.1019413.2834279-.5410017.2054763-.8659916-.2408403-1.0041619-1.3586756-1.5744749-2.2783377-1.1446205-4.3405357,2.0287862-8.7977011,2.4260357-13.366482.9009773-3.3039396-1.1028361-5.6512986-3.3933866-7.4944397-6.2605727-1.6302361-2.5359926-2.6855858-5.3403632-3.7648687-8.1329087-.4808999-1.2442735-.9333221-2.5072766-1.6994823-3.6130227-.91224-1.3165729-1.660189-1.4071388-2.8357339-.3498172-.481535.4331082-.9321711.9088607-1.3458954,1.4074695-1.3646622,1.6446182-1.3957264,2.2767811-.145597,3.9834741.4601486.628208.6905503,1.3151311.1165569,1.8555111-.7710222.7258769-.6904114,1.368476-.1791749,2.1328967.0697225.1042692.047152.2702165.0717202.4376451-1.1433099-.6368056-1.4784872-1.7011641-.7650753-2.6873107.4795174-.6628498.5057659-1.0965797-.0689419-1.7401179-.9061079-1.0146113-.7433118-2.1962545-.1525626-3.3326213.6134454-1.1800163,1.6493469-1.9896604,2.6526562-2.9107826-.9168838-.5712389-1.8987338-.9505393-2.6760999-1.6576601-1.1229091-1.0214365-1.1027531-1.6956219.1087512-2.6041387.309339-.2319769.6153969-.4683452.9955101-.7579659-1.4057416-.8425135-2.8439763-1.4059087-4.2507696-2.033204-1.5905922-.7092372-3.1047939-1.5513671-4.3742856-2.7569382-.4497762-.4271296-1.1992598-1.046449-.7184327-1.5976488.3550753-.4070508.9152499.406654,1.3247471.7429796,1.4773891,1.2134015,2.874379,2.5218264,4.5188771,3.5279327,1.7497566,1.0705223,3.6595044,1.2405302,5.6352108,1.1497659.3245072-.0149202.6031987-.0661487.496313-.4851569-.640448-2.5105834-.6208873-5.1654877-1.682389-7.5852802-.7626343-1.7385042-.7954052-1.7879471-2.6274926-1.5518169-1.4234104.1834599-2.8741607.2441988-4.3742988.8494181ZM20.8702525,105.5573368c-.0206455-.281023-.1634642-.4039822-.446085-.4931461-2.6317923-.8302784-5.2948407-.9589649-8.0096782-.4887679-.6405737.1109489-.5319217.4124872-.390135.8089828.6564233,1.835644,1.1546745,3.7119217,1.4164447,5.6452215.1416346,1.0460654.2459603,2.0971703.373571,3.2019111.4206899-.2341726.3710639-.5687389.4349982-.8196968.6181223-2.4263664,2.0082193-4.3752477,3.8002526-6.0437673.8293271-.772185,1.6923976-1.5622795,2.8581258-1.8460141-1.3525501,1.3944937-2.8770448,2.6222201-4.0192831,4.2209403-1.0440579,1.461317-1.9565823,2.9826322-2.5651723,4.835617,1.941758-.2007081,3.752492-.029761,5.5326645-.3864033,2.2372517-.4482136,3.9789247-1.6519857,5.2378125-3.5390832.4981453-.7467228.7405732-1.5660757.3299316-2.4565904-.278288-.6034865-.5116532-.8757929-1.1001004-.1882878-1.4796646,1.728769-3.0949904,3.3346054-4.7534132,4.8942263-.1490037.1401411-.2724535.3716816-.6781273.3094084,1.7616835-1.8377736,3.4398125-3.5789893,5.1023498-5.3349665.2006539-.2119511.566611-.3854378.4119514-.7873962-.2939722-.7639974-2.7325394-1.8152875-3.5361075-1.5321879ZM10.0894758,117.0713971c1.3647151,1.4082499,2.8262943,2.4416173,4.8187698,2.4396332.2831566-.0002778.5741918.0447605.8481403.1186471.876757.2364609,2.4944245-.8892978,2.6991863-1.8949676.161096-.791232-.3977225-1.368476-1.6974912-1.4918452-1.2480325-.1184619-2.5158374-.0153434-3.7685202-.102272-1.0656559-.0739527-1.9658963.229887-2.900085.9308044ZM44.6279582,147.8469093c-.0184163-.1959198-.024555-.3752793-.0537538-.5508162-.0987757-.5939498-.3555185-1.3242446-.9218715-1.2998141-.6463023.0278431-.397352.8360322-.4842339,1.3198003-.0309451.1723227-.0098299.3597375.0173446.5356712.0885357.5733817.2138509,1.343662.8394482,1.3172739.6071545-.0256077.404483-.8668514.6030664-1.322115ZM134.0203358,107.5259926c-.8255301-.6162242-3.4470956-.1501541-4.0231198.7014729-.1874834.2771872-.001323.4709378.0791158.6992772,1.0187686,2.8921985,2.6061789,5.212973,5.8088622,6.0284106.5221645.1329456,1.4876821.373745,1.2459422,1.0190424-.1933575.516148-1.1187482.1303002-1.6702835-.0592839-3.0784132-1.0581946-5.1773246-3.2102971-6.5271228-6.1043342-.6914169-1.4824407-.3214776-2.2729056,1.2074823-2.8895663,2.0841335-.8405824,4.2710514-1.3201045,6.4771793-1.6897755.6982833-.1170202.9486889-.4317988,1.0353062-1.0942517.6313126-4.8279982,1.2867437-9.6528813,1.9420028-14.4777315.0915124-.673815-.0447706-1.1874631-.5284488-1.7515395-2.0710886-2.4154739-2.3039379-5.2896769-1.7808208-8.2743527.3695556-2.1085125,1.0145349-4.1413264,2.2859979-5.9027465.8954907-1.2405567,1.6411244-1.3581192,2.9451731-.5909208-.0622078.0294832-.1329887.0930725-.186544.0809036-1.6714081-.3799684-1.7693768-.3889297-2.4047114,1.2036399-1.5038492,3.7696713-1.7646933,7.6335327-.6361945,11.5540921.2195134.7626086.5757993,1.482487,1.1223865,2.0799618.1580597.1727592.3053898.4657461.6086628.3121464.2327964-.1179064.13197-.3859404.1339413-.5867609.014434-1.4732082-.0259177-2.951489.5911726-4.3594016-.0592575,1.047613-.1339016,2.0946572-.1722159,3.1430373-.0243169.6657267-.0268967,1.2902245.298907,1.9641718.1888461.390636.2918554.562509.6652875.5828986.4132281.0225522.5444043-.2717111.6312333-.6084864.3017251-1.1704531.3418651-2.3510447.1527147-3.5423503-.0311039-.1959463-.0532907-.3933079.0032281-.6011453.6822087,1.0732339.754392,2.2534816.6188102,3.4696012-.0295031.2646016-.3308577.6217862.0199774.76534.4442923.1817933.6454556-.282101.7504362-.5885068.6634617-1.9366263.8752355-3.9299441.671069-5.9705619-.2337622-2.3363692-1.0590674-4.4779826-2.1066114-6.5507886-.0764434-.1512519-.2173833-.3008703-.0295295-.5603794,2.1360218,1.9143519,3.3476584,4.2915863,3.7514005,7.0942902.1705621,1.1841167.1313482,2.378643.0004234,3.5661524-.0963679.8739874-.277051,1.8047918-.9333684,2.3720493-1.0307286.8908321-.984926,1.8699353-.8003533,3.0674642.6613317,4.2908125.616495,8.6356444.831219,12.9599678.0368722.7426753.1298267,1.106791,1.033401,1.1969205,2.0069227.2002054,3.9987368.5801804,5.8693633,1.4053003.1647938.0726829.3347738.1338583.4985356.2086708,2.8181379,1.2871558,3.1953538,2.7832204,1.3196204,5.2286471-1.2622548,1.6456367-2.8822773,2.9282291-4.4504908,3.3753978,1.6760122-2.1488618,4.1110336-3.2687609,5.2834298-5.6560412-.8517786-.2573068-1.790955-.8387702-2.5072841-.5081853-.6898425.3183499-1.0737792,1.2993909-1.6487317,1.9862214.3070435-.8700127.5758522-1.7187561-.3863711-2.3543449-.7640103-.5046404-1.6078773-.8037052-2.4942128-1.0018736-.3531636-.078979-.4259025.1661324-.5024782.4162569-.9770145,3.1916998-3.0113102,5.7165817-5.1552965,8.1727355-.1136596.1302208-.207474.2777559-.3954866.5322454,1.9874216-.2182604,3.8160691-.6140682,5.6806495-.6281683.3374727-.0025528.8222491-.1888301.9815391.2050333.1928945.4769693-.2572191.786629-.5788157,1.0567926-.8874469.7454795-1.969045.7937452-3.0648523.8384263-1.1817102.0481996-2.3230686-.5816089-3.5163418-.1831292-.1515505.0506069-.2234692-.0431997-.2262739-.1394269-.0261559-.8989536-.8295917-.8824065-1.3685585-1.161075-2.5214535-1.3036368-4.6969274-2.9716669-5.9216485-5.6289257-.184586-.4005167-.4643359-.8177127-.1672546-1.5855857,1.3529073,3.5890949,3.8503615,5.8021742,7.1318298,7.2192995.2450606-.3126358-.0348877-.5366632-.1393127-.7664841-.9750564-2.1455815-2.5240995-3.8420764-4.2244683-5.4314715-1.0468031-.9784881-2.2295717-1.8343081-2.9806826-3.0997847,2.8657397,2.4397258,5.8632774,4.7530005,7.7246032,8.2789888,1.086189-3.1232099,1.6039479-6.0314264-.6146295-8.7256416.4121168.0430145.5863304.3905434.8170893.6545696,1.3537143,1.5488143,1.5170131,3.3636653,1.1444146,5.2849152-.1566176.8075278-.3543278,1.6070929-.5333572,2.410269,1.9936133-1.8874281,3.5952592-4.002336,4.7767312-6.4051978.5054153-1.0278517.1408738-1.6671969-.9752019-1.8886318-1.558291-.3091967-3.1469052-.3573831-4.7276476-.4623137-.2442139-.0162164-.5229583-.0571411-.5976289.2930597-.4208486-.3629914-.8859254-.5185289-1.4610102-.4640464-1.7048934.1614765-3.4138352.2802955-5.1213085.4142464-.2950703.0231342-.5879842.0422738-.5804695.4512955ZM140.2663063,89.3977132c0,.4750051.015585.8623542-.0023814,1.2481358-.1959374,4.2089103-.1379235,8.4339245-.7673707,12.6156332-.2257712,1.4998344-.2445447,1.4895569,1.3166569,1.5043713.7205363.0068384,1.4468805.000119,2.15932.0894946.6984156.0876031.8491193-.1960257.8690174-.8303446.0541904-1.7282796.1722952-3.4545752.2682133-5.1814925.1598722-2.8782241.3653088-5.7543054.3644356-8.6395993-.0001455-.4803885.0071972-.9002498-.6763081-.6803955-1.1367808.3656566-2.270995.2885426-3.5315829-.125803ZM50.7120456,130.7710377c1.9800392-1.7316261,2.9726387-4.0394645,3.7303647-6.4753941,1.2046643-3.8726839,1.6100338-7.9077702,2.3882532-11.867052.5504637-2.8005479,1.1240138-5.5882523,2.6098304-8.0852779.9551716-1.6052411,2.3462874-2.6612269,4.13584-3.2705201-3.3589833,2.5380958-4.1933114,6.2392506-4.7683037,10.0676899-.4500606,2.9966-1.0160299,5.9732404-1.7881767,8.9033345-1.2640674,4.7968351-2.6970563,9.5242147-6.2353865,13.2574321-.021565.0227506.0263278.1113193.0544418.2165277.8690835-.2009197,1.5654749-.6892643,2.1937182-1.2861373,1.5473629-1.4700998,2.6141699-3.2581792,3.3757591-5.2318348,1.611079-4.1751084,2.2168576-8.572948,2.8198975-12.9680363.3678886-2.6811998.6454556-5.3881924,1.9449399-7.8275875,1.6892158-3.1709597,4.1171062-5.2695717,7.9340485-5.2544003.1575437.0006217.3708654.0558448.4740335-.2641849-1.7837843-1.0723476-3.7100566-1.6079262-5.7579264-1.1046615-3.7588491.9237676-6.2160838,3.3040111-7.4836571,6.971966-1.4225769,4.1164462-1.9983232,8.4087996-2.7495929,12.6660086-.7153236,4.0536307-1.3666004,8.1246418-3.785124,11.6234484-.1184488.1713439-.2415282.3625152-.1220474.621978.4539106-.0689529.7208273-.423717,1.029088-.6932986ZM137.7385024,121.3961569c-.9610722,1.8544794-1.8093184,3.7689702-2.6649204,5.67612-1.096019,2.4429797-2.6263283,4.5304413-4.6733382,6.2813657-4.6646196,3.9898628-12.4722415,5.1942699-17.398208,1.1457977-.5229186-.4297486-.6074588-.6113964-.0776208-1.0957332,1.6117405-1.4733802,2.7001918-3.2757051,3.1339927-5.4387596.7536379-3.7577669-.0807167-7.2937152-1.5198841-10.7418092-.0096712-.0231607-.1100742-.0084521-.2079238-.0134652.1635634.9318494.399535,1.842575.4729354,2.7662104.4209016,5.2964624-.3808541,10.2292457-4.3720233,14.1724301-.1637751.1617939-.5031926.3095539-.2719971.5969391.1947996.2421618.490624.0613076.6879109-.0618235.9384223-.5856696,1.5441348-.2148611,2.165591.5697442,1.4577821,1.8405645,3.3000301,3.1391353,5.6797366,3.4666648,5.1902636.7143826,9.7402446-.5962645,13.4049617-4.4542399,2.8035452-2.951403,4.5421752-6.4894677,5.3781042-10.4499002.4184937-1.9826897,1.2397108-3.6686559,2.794337-4.9908238.3135527-.2666584.7089467-.496638.8883862-1.1629136-1.7526143.8672614-2.6595358,2.266755-3.4200401,3.7341962ZM145.6848019,120.7747344c-1.9550476-.0507524-6.9424545,3.2173471-7.663692,5.0211403-.0400474.1001953-.0704501.204491-.1012233.3081121-1.2000338,4.0400597-3.5594322,7.3101433-6.7542964,9.9883802-2.966447,2.4867614-6.3357101,3.9812255-10.2952462,3.8917442-3.9473776-.0892036-7.2265307-1.779495-10.2140797-4.1989304-.2333785-.1890021-.3868341-.6515142-.8564488-.4032018,1.7817469,3.9920321,7.5523345,6.9944785,12.2085397,6.4663071,3.7496806-.4253572,6.9956262-1.9454158,9.8763027-4.3067181,3.3697658-2.7622158,5.8632245-6.1532083,7.2099402-10.3305256.1826412-.5665432.6221574-1.3441381-.7937515-1.1685748,2.2550792-2.5332811,5.7142671-2.8362214,8.0625919-4.919199-.2486989-.2923057-.4571916-.3427804-.6786366-.3485341ZM81.7351652,93.4550474c1.6654281-2.866399,2.6123309-5.9999723,3.4075377-9.1904486,1.3746179-5.5151329,1.9142858-11.0731481.953584-16.7243349-.6901468-4.0597614-1.9972913-7.9658107-2.9247459-11.9659378-.8005914-3.452816-1.4430835-6.9137336-1.028969-10.4940126.1180387-1.020504.8320922-1.8220135.911089-2.9506359-.7162233.5751078-1.0251587,1.2952706-1.3375075,1.9986548-1.4485078,3.2618431-1.1701603,6.623121-.4902139,9.9846568,1.0070467,4.9787276,2.6967255,9.7955158,3.4800914,14.8319929,1.0424504,6.7023976.8555095,13.3057176-1.4526356,19.7437517-.6782662,1.8918526-1.5551951,3.7125037-2.463519,5.8545403.5939906-.3728985.7494704-.7511738.9452887-1.0882268ZM22.3113448,131.6490924c4.7294999,7.0960362,12.8758381,6.8565066,18.9065752,4.8812902.2571794-.0842566.3729425-.2656796.2972533-.4820221-.0705031-.2015149-.2972533-.1270992-.4713214-.0908966-1.3837201.287663-2.7863461.3560075-4.1951901.3985987-7.2003351.2176916-12.5505239-2.7162251-15.7942336-9.2429007-.657614-1.3231864-1.2575119-2.674983-1.9101646-4.0007355-.4343896-.88238-.7638978-1.83034-1.4927955-2.5490213,1.2187081,3.8382935,2.3927315,7.6841131,4.6598766,11.0856874ZM108.2192981,155.0689336c.0227425,1.5515126.0385127,3.1042422.1151942,4.6536385.1265853,2.5585845.4157683,5.1094312.2988806,7.6785578-.0575773,1.2650533-.38395,2.4258506-1.2365356,3.3844451-.7990964.8984642-1.6096633.8793113-2.3653254-.0396813-.8062804-.9805648-1.0246956-2.1206484-.8477434-3.3573428.3347738-2.3394644,1.2011716-4.5249388,1.9741519-6.7340368.9116976-2.6054878,1.490209-5.2552203,1.2978967-8.0403719-.569687,3.129043-1.6492609,6.1075087-2.6392806,9.1130238-.5987667,1.8178271-1.0875385,3.6652565-1.2923665,5.5753824-.1920345,1.7907512.5385037,3.2394364,1.7527466,4.4686575.4816937.4876436,1.0844691.60928,1.7950564.3680573,1.3289079-.4511103,2.2040773-1.3115333,2.6945294-2.6097602.4708186-1.2463105.4805956-2.539855.4565698-3.8430684-.0718922-3.902511-1.7060973-7.5683231-1.6136853-11.5618895-.4824214.2841843-.3944943.6437234-.3900887.9443887ZM146.9148151,144.2486481c.0808622,1.9764598-.2118532,3.8838741-1.1993855,5.628423-1.008158,1.7809367-2.4589547,2.0630576-4.0142292.7345539-2.1824858-1.8642939-2.2248353-4.3421006-1.6659705-6.8517448.4947254-2.2216373,1.6636685-4.2113374,2.5171802-6.3106637.271243-.6671486.8319996-1.3091921.4404556-2.1255028-.0832304-.1735264-.0273598-.2526773.1539716-.286499.3237002-.0603685.5948373.0306737.717705.3358758.6463949,1.6055057,1.7612403,2.9701987,2.3177766,4.6284541.4650106,1.3855654.6622975,2.7991326.7324962,4.2471035ZM144.2729679,136.9036117c-.6157938,1.5642636-1.5324394,2.6856705-2.2904035,3.9058046-.5914769.952153-1.0788463,1.9541324-1.36922,3.0425378-.5200213,1.9492648-.3482155,3.7914431.8982029,5.443852.5282636.7003486,1.1418347,1.4509205,2.1047988,1.2820766.9851377-.1727592,1.222644-1.1345282,1.4530722-1.9632327.6393301-2.2993333.5223101-4.6443531.3032201-6.9809736-.1441946-1.5377961-.3437041-3.0765182-1.0996705-4.7300647ZM14.857409,143.5696348c-.0258449,1.0447956-.0454056,2.0887314-.410258,3.0903537-.7639706,2.097329-2.7898653,2.8512474-4.7114937,1.7514535-1.5684583-.8976705-2.3592528-2.3096902-2.5388974-4.0459325-.3552076-3.4330283.5410968-6.6351378,1.941123-9.7278592.0148574-.0328297.028577-.0664926.0468411-.0973912,1.1571088-1.9588148,2.0727093-1.9730869,3.2235934-.0505937,1.4153599,2.3642784,2.4945634,6.3642467,2.4490916,9.0799692ZM8.0192935,142.8926452c-.0265461,1.4766472.0302903,2.5153584.5082663,3.4826035.6203184,1.2552388,2.1399247,2.1311243,3.4856811,1.8740952,1.2732358-.243167,1.5774018-1.3833565,1.8502456-2.4186153.3913257-1.4847951.283236-3.001957.0525763-4.5076377-.3400129-2.2194549-.8998368-4.3725626-2.0396804-6.3300414-.502465-.8628965-1.2494415-.934971-1.5916109-.1700079-1.2110346,2.7075085-2.1494371,5.4938373-2.2654781,8.0696038ZM43.6192974,168.6003122c-1.1359341-.6435118-1.1900054-1.8049704-1.2873787-2.8831379-.2695231-2.9845369.345424-5.8859415.952777-8.7830208.1330019-.6344776.2530913-1.272143.3592494-1.911647.0993975-.5986057.3417063-1.196021.076999-1.9737218-.2174495.4561499-.3904856.7644868-.5160787,1.091064-1.2416424,3.2282198-1.8885533,6.5759597-1.9403093,10.0316196-.0189322,1.2638099.0903085,2.5278844.5532552,3.7227018.8461823,2.1839665,3.2763747,2.6547588,4.8842123.9502218.7545905-.7999751,1.1020254-1.7787675,1.0606418-2.865612-.0438842-1.1520012-.1182107-2.3058411-.2490429-3.4509113-.2865105-2.5078454-.6368296-5.0087597-1.5011635-7.3983284-.254282-.7030205-.4702894-1.4719516-1.314249-1.860511-.0124495.1938167-.0439503.3042498-.0209961.401879.0573788.2440929.1268632.4870219.2135731.7222924,1.2548195,3.4043255,1.9778563,6.9237267,2.2814071,10.5333633.0859955,1.0223756.038817,2.0264318-.5981713,2.8982168-.828282,1.1336024-2.0910792,1.4390426-2.9938068.738112l.0390816.0374195ZM9.4752697,79.0971668c-1.1595365,3.613565-.9260721,7.1159959,1.1391821,10.3962445.2476273.3933079.4700711.8236054,1.0463334.8370904.1877612-.4728358-.10805-.84254-.2743322-1.2181103-1.0051217-2.2701874-1.33676-4.6082365-.9589951-7.0804679.3407538-2.2300035,1.0403667-4.3388004,1.8324975-6.4326441.4429825-1.1709425.9399173-2.3324805.9548342-3.6460111-1.3586227,2.3262306-2.9103978,4.5600105-3.7395199,7.1438984ZM80.4911414,15.840071c.7045543-3.4232782.4530242-6.7698724-.512877-10.0588443-.533635-1.8170814-1.3423497-3.5074076-2.8644167-4.7452163-.7961461-.6474493-1.6741732-1.0785545-2.921015-1.0326705,4.9163217,4.2504409,6.0413013,9.8684839,6.2983087,15.8367311ZM109.463269,134.8317713c-.2094453.6063039-.6882152.4581075-.9875853.6095975-.2092204.105883-.3671213.2482727-.3876941.4756598-.0241581.2670949.1642911.3962443.4029616.3940618.6464214-.0058861.5276815.3276486.2973856.6748203-.5970997.9000646-.519201,1.6859661.2646015,2.4592887.8356644.8244453.7706121,3.2169503-.0540978,4.0462235-.6002749.6035791-1.2458495.4776968-1.8675968.0773918-.750595-.4832522-1.448402-1.0461447-1.1023562-2.0941677.132433-.4010457.3272459-.8376724.6255576-1.1175579.9878367-.9268627.662443-2.3996874,1.475087-3.3873022.0580006-.0704608-.0016008-.2722138-.053251-.3929508-.5371145-1.2558208-.4689532-1.3852744.8688321-1.6128467.1298399-.0220893.2562004-.0646012.5181558-.1322181ZM108.6505323,141.1436784c-.0375866-.4715594-.2411049-1.0045984-.6566747-.9985801-.5187247.0074865-.797575.5665962-.8397657,1.0733661-.0417806.5016775.2148564,1.0173229.7549477.9738322.4949106-.0398533.6880167-.5615302.7414927-1.0486182ZM16.8508834,73.8902319c2.1077624,4.9589332,3.1157418,10.0622998,2.0373387,15.5456877,2.5960778-3.5845117,1.356916-12.9970169-2.0373387-15.5456877ZM41.8112359,135.4511039c-3.5458713-3.5097984-5.7805101-7.4817914-4.6829035-12.6482314-2.2324823,2.8963121-.7234998,10.8038443,4.6829035,12.6482314ZM38.3739835,127.4027296c-.4689532-2.0634015-.4828183-4.1404798-.1374472-6.5191758-2.0453958,3.8796017-1.0942064,9.8514268,3.0693241,12.1147295-1.258471-1.7197746-2.44759-3.4646807-2.9318769-5.5955537ZM143.3748179,124.7495184c.1296283.2282998.2698935.5015585.0966721.7040919-.2812184.3287729-.661636.1855233-.9915675.0341127-.2449945-.1124171-.4604198-.2101522-.6360093.088066-.1487986.2527302-.3466412.5718209-.0866305.7893802,1.2286372,1.0280501.5314388,2.4139197.7207082,3.6312629.0529864.3407831-.0423098.6617122-.334152.8593252-.793897.5375098-.6007909,1.2924731-.4860861,2.03827.0475621.3093026.0826615.5469275.5305127.4119978.7433317-.2239216.0070384-.417778-.0338558-.521042-.2645221-.6679158.1127864-1.1071217.475555-1.5522005.1742136-.2137367.3920865-.1359349.5594469.0375121.478373.4957915.3237002.9715042-.0571539,1.4388706-.0566776.0695481-.0863791.1610797-.1422365.2688012,1.1642861-.4048684,1.3113649-.8407146.7546566-1.9081682-.8885317-1.7037698-1.4534294-3.3878445.0145399-5.1335045.5326957-.6334592.0947406-1.3347601-.4397015-1.7966373-.4735043-.4092333-.7671061-.0055157-1.0702468.5721515.470382-.1402073.835929-.4723927,1.1255485.0377105ZM107.9125721,148.2417515c.6690713.3872102.2892756,1.2063514.8238234,1.6155451.2717854-.5482502.3840161-1.0673742.3776657-1.6186005-.0064695-.5602075-.2306266-1.0472691-.7504759-1.1986929-.5595395-.1629844-.9656895.2525318-1.1886824.7217236-.6020742,1.2668125-.4797092,2.5452119.0425611,3.792951.1867689-1.1306527.104769-2.2786991.6951081-3.3129262ZM78.6556408,15.947194c-.1390084-.9243231-.5651358-1.5609502-1.5671683-1.6258258-.8430732-.0545899-1.5939195.687181-1.8363739,1.8224599-.1950774.9135265-.2442404,1.8086641.6759244,2.4190584.0574714.0381172.1354892.0472604.2052646.0645317.9360145.2316727,1.1187879-.1533815.740302-1.7841575-.0669177.3037736-.0750013.4849221-.1469861.635549-.1295224.2710134-.0879535.7380525-.5191745.7140783-.3625834-.0201581-.4714272-.4004737-.5826657-.70806-.2415018-.6678166-.0782823-1.2936304.2691658-1.8621049.3008916-.4923194.6606702-1.031509,1.352775-.8683196.6757657.159337.9543778.7217997,1.05916,1.3659529.1517357.9328943-.1636825,1.7297677-.9762868,2.5715173,1.1098047-.5937382,1.5031083-1.5673521,1.3260635-2.7446799ZM44.3895788,157.0886063c-1.0021648,1.6330048-1.6246795,3.3746438-1.4563136,5.3441197,1.2584843-1.5720411,1.2701532-3.4809633,1.4563136-5.3441197ZM106.3133473,169.7223144c-.3305005.1725475-.978139.3997759-.5531097.9082125.329667.3943661.8942868.1758279,1.240875-.1996763.8560387-.9274447,1.2274862-2.0330982,1.2199054-3.5184754-.7831542,1.0296241-.842544,2.2539247-1.9076707,2.8099392ZM43.580745,168.563488c.6477576.1896634,1.2062784.1198375,1.5765088-.5261609.2911939-.508053.638232-1.0069528.2266576-1.6351873-.5770958.3172653-.5600952,1.0702445-1.135352,1.2866664-.4859141-.3140511-.1695434-1.0549011-.7387144-1.3533574-.315524.8196174-.0494937,1.5393173.1094524,2.2648635,0,0-.0390816-.0374195-.0385524-.0368243ZM113.560411,123.2483084c-.5623443,2.4395803-1.5241838,4.7406993-2.4229159,7.0809176,1.5155314-2.1114556,2.2147143-4.514,2.4229159-7.0809176ZM150.3936893,112.6229242c-.930524,1.0293992-2.0579644,1.8474294-3.00365,2.8760085,1.3919096-.5458164,2.2027543-1.7052909,3.00365-2.8760085ZM73.3304701,179.0182425c-.1086057.6177983-.2333785,1.315065.376131,2.0976465,1.6016459-3.167481,2.6803996-6.2542369,2.6386058-9.667451-1.4331212,2.3656937-2.5372767,4.853791-3.0147368,7.5698045ZM74.3598756,185.2151797c-.0850032-.2871472-.2119458-.595127-.5745292-.468213-.3320881.1162133-.3202472.4492718-.2329022.7377549.1724672.569559.565493.871666,1.1425227.6517522.6229909-.2374133.6237318-.6988936.2346618-1.2508209-.116676.2617511-.2140097.4801306-.4263523.9565179-.0826615-.3653326-.1053378-.4984369-.1434008-.6269911ZM76.6571588,186.2781757c-.6102901-.1503128-.0564263-.8232681-.3620277-1.1948835-.4321736.4188891-.476243.8034803-.1801539,1.2129782.2457089.3398439.6134388.3756365.9768028.2945676.4505237-.1005128.7701226-.3503198.75508-1.0113442-.4649048.3126226-.699593.819419-1.1897011.698682ZM142.1320113,149.0986032c.3785124.4169579.9291877.4071963,1.6119521-.0003042-1.8893339-.6779816-1.9628137-2.1651576-2.0606633-3.6612355-.3257641,1.2890737-.5335953,2.5793775.4487112,3.6615397ZM10.9984215,144.5318007c-.3271599.2645024-.1869012.6443318-.2362428.9756972-.0492291.3305453-.1111062.6529559-.4901742.7514714-.3530445.0917829-.5603333-.108449-.6149735-.4268121-.10037-.5847834-.5353483-.5036087-.9791114-.6217796.0653235.9393888.4519724,1.5213549,1.2363768,1.8121659.6127112.227149,1.1470407.0124599,1.5646877-.419696.6338594-.6558526.66368-1.4353258.4039009-2.2026961-.4037818-.2154695-.4059383,1.0243862-.8844635.1316493ZM10.222782,138.1234944c-.8160574,1.319496-1.3602963,2.7093603-1.1335262,4.2985834.8565216-1.3183188,1.3452537-2.7231297,1.1335262-4.2985834Z"/>
  </g>
</svg>