<?xml version="1.0" encoding="UTF-8"?>
<svg id="Layer_2" xmlns="http://www.w3.org/2000/svg" viewBox="0 0 125.9199892 205.8543779">
  <g id="Layer_1-2" data-name="Layer_1">
    <path d="M119.6189662,120.9148716c-.6537776-.0245528-.9042538-.1722433-.9120958-.8664443-.029314-2.5974659-.1093208-5.1945584-.1929685-7.7911841-.0140035-.4352293.138168-.7504952.4025545-1.0718293,1.0031187-1.2195197,1.5579381-2.6326614,1.5880923-4.2069369.1113746-5.8183685-1.8782452-10.9376813-5.2641092-15.5790074-.0407036-.0556406-.1351806-.0720714-.2928602-.151238.1523583.5087011.3578366.9352483.2116398,1.3977378.0037343.0001867.0053213.0025206.0089623.0028007-1.365343,2.1109837-2.7547721,4.203296-3.7716142,6.5224653-1.5874388,3.6209364-2.1679313,7.2962998-.8575755,11.1333571.2729752.7996942.6319321,1.5433744,1.3555406,2.0096916.4499797.2900595.5621946.6319321.5326938,1.1379259-.1223907,2.1035151-.3574631,4.2131918-.0304343,6.312786.1276187.8193925-.1635611.9460777-.9022.9552267-2.3828387.029314-4.7647437.1363009-7.1464621.2238696-.3289893.0121364-.8537478-.1000785-.476493.5588337,1.0463429,1.8275525,1.8557462,3.7831905,3.0047816,5.5557558.9981708,1.5399202,2.2009796,2.8558775,3.936669,3.5776188.3687593.1533852.4960046.352982.4384035.7632851-.1613205,1.1490353-.2956609,2.3014315-.5749845,3.4303018-.6603126,2.6684171-1.7682709,5.0729145-4.0226506,6.7970277-1.5177013,1.1607983-4.0203167,2.033871-5.4109594,1.8699365.1187498-.1656149.2218157-.3109715.326562-.455021,1.6153525-2.2205846,2.8549439-4.6102383,3.4019214-7.3322421.1196834-.5958964-.0150304-.7078312-.6026181-.7130591-2.0470343-.0182979-4.0930417-.1301394-6.1400759-.1490908-.5556596-.0051346-.7468543-.1906346-.8048289-.7082046-.2352591-2.1000609-.3653051-4.2032027-.1804587-6.3119458.0469585-.5347477.023806-1.099743.3512082-1.5875322,1.3760791-2.0502084,1.7001205-4.3627494,1.5569112-6.7497891-.2322717-3.8694521-1.3669301-7.4900151-3.2118469-10.8908162-.7195941-1.3263199-1.6762211-2.4761021-2.6868084-3.5888216.0190448.3926587.0615221.760111.1880206,1.0960087.1269652.3372047.5002057.4898431.6773969.830502,2.2763186,4.3738589,3.7544366,9.0120108,4.4621744,13.8772998.3242281,2.2288933-.6123272,4.0736234-2.3778907,5.4469952-1.5583115,1.2120512-3.6059993.9518658-4.8702369-.5379218-.961855-1.1333514-1.4491774-2.473208-1.6540956-3.912583-.6590056-4.6278827.554446-8.8935411,2.5828089-12.9915306.1674821-.338325.3631579-.6626465.5457638-.9933162-.2384332-.0152172-.3028494.0862617-.3744541.1823258-3.0860953,4.1418673-4.4421027,8.7935559-3.9826939,13.9331272.1573995,1.7600555.7896117,3.3941727,2.0809228,4.6811894.3295495.3283358.3312299.6869192.3235746,1.0881667-.0429441,2.2351482-.3653985,4.4428495-.6353863,6.6560589-.0348221.2850183-.0610553.5655554-.4365363.5818929-.8118306.0351955-1.5489758.1172561-2.2069545-.6762766-1.775086-2.1406711-3.956554-3.7957003-6.5018335-4.9604196-4.3867421-2.0073577-11.2156044-1.999329-14.6543084,2.4466013-.0295007.0381829-.1066135.0394899-.1712163.0614288-.1372345-.3117183.0274469-.5852537.0978379-.8688716.6910269-2.782219,1.5952808-5.5200935,1.8786186-8.3892277.6513503-6.5982711.297248-13.1857127-.2850183-19.7679264-.4926438-5.5685457-1.2350169-11.1088043-1.8975701-16.6582118-.930207-7.7917442-1.4186498-15.6356749-2.7579462-23.3799006-.0519997-.3006089-.4273874-.8835286.3099445-.8866094.5302666-.0022406,1.2196131-.551832,1.5168611.5167298,2.5561089,9.1891086,6.0722056,18.0342909,9.693422,26.84073.0724449.1759775.2736287.3513016.1058666.6052321-.4770532-.3351509-.9940631-.5397889-1.476531-.0858882-.603645.567796-.5903883,1.3209985-.4197321,2.0532892.1277121.5481911.4848952.9379556,1.1070248.893051.6386538-.0462116.8496401.348781.9955568.8530943.4505399,1.5570045.7070843,3.1540591.9907022,4.7460724.2944473,1.6523218.4771465,3.3292898,1.0340198,4.9294251.0407036-.3426194.0154972-.6738493-.0235259-1.0035855-.3056501-2.5809418-.9692302-5.0949467-1.434147-7.6461076l.0085888.0126032c-.0037343-.0055081-.0076553-.0111095-.0069084-.0099892.853281,1.8523854,1.679862,3.7139197,2.2555,5.6716116.7967068,2.709214.9397294,5.398543-.3459803,8.0232691-.0108294.0222189.0527466.080847.0819673.123231.6304384-.7007361.9972372-1.4208903,1.1725613-2.4242891.7362116-4.2116981-.9591476-7.8221786-2.8369261-11.3844869-.0925166-.1755108-.2171479-.195209-.3100379.0158707q-.734998-1.9317387.2304979-2.941299c.7744879,1.7162712,1.5091125,3.4232067,2.3100204,5.0985876,1.0062928,2.1048221,2.1846422,4.1085389,3.9759722,5.6589151,2.5931715,2.2444839,6.376642,1.5626993,8.0676135-1.4255582,1.7476391-3.0883359,1.2029956-8.4204088-1.1456745-11.0687542-1.0373806-1.1695738-2.3050725-1.8049601-3.908662-1.4989366-1.4887607.2841781-2.373783,1.3355622-3.0286809,2.5800082-.3583034.6810378-.55734.5879611-.9537329.0591882-1.3378028-1.7848884-2.6522663-3.5843405-3.8593696-5.4619322-4.8524991-7.5481764-8.1371644-15.88139-11.9851444-23.9247308.0373427-.0401434.0698309-.1030659.120617-.1262184,1.1670532-.534561,2.1386173-1.2573292,2.18903-2.6722447.0507861-1.4268651-.8655108-2.2281465-2.0383521-2.7628008-.5473508-.2496361-.3521418-.5228914-.1691625-.8555216,1.3114762-2.3833054,3.1543392-4.2656584,5.4524098-5.6966312,1.06128-.6608727,2.263342-.9274063,3.5044271-.9005196,1.793664.0390231,2.9768679,1.0955419,3.0184117,2.6198715-.7927858-.790732-1.5857584-.920778-2.2368286-.3668922-.9290868.7902652-1.0269247,2.511391-.2167745,3.811851.8254607,1.325293,2.1076228,1.7824612,3.3569234,1.1971141,2.2166636-1.0386876,3.1281993-3.5404628,2.2207713-6.0946112-1.131671-3.1852402-4.545542-4.9318524-8.3229444-4.2255149-3.0028211.5616344-5.2273266,2.2650224-6.8238211,4.818704-.5452036.8721391-1.0013449,1.8001989-1.5667136,2.827217.1820457-3.7712408.1221107-7.3881628-.453714-10.9795051-.073005-.4557678.1374212-.5768516.4937641-.6960682,3.7649859-1.2591964,3.9306008-6.4576757,1.1689203-8.4367463-1.1201881-.8026817-1.2557422-1.5081789-1.1287769-2.722564.3339372-3.1939224-.2347923-6.3428469-.9243256-9.4435992-.3924719-1.7648167-.6488297-3.4152714-.1864335-5.251506.6181153-2.4547234.1668286-4.9855325-.1772845-7.4694766-.1506779-1.0876066-.3649317-2.1677446-.5855338-3.2441484-.2128535-1.0385009-.4712651-2.0678529-.7095116-3.1011258.3398187,4.8961901,1.2785212,9.7599854.1338736,14.6587895-1.8249385-5.4782697-1.365063-11.0070454-.3320701-16.5623344-.2248965.3495278-.3806156.7063375-.5019794,1.0743499-1.3643161,4.1385998-1.5004303,8.3946424-1.1595847,12.6860672.1217373,1.5323583.5101948,3.0096361,1.3306143,4.3393169.1385415.2244297.1558125.4292545.0818739.6888797-1.2467799,4.3791802-1.2124246,8.806906-.469678,13.2570373.0623623.3739873.0070018.6071925-.3756677.7995075-1.8606941.9358084-2.9210405,2.4442674-2.7901543,4.549463.1356474,2.1815614,1.412955,3.5867678,3.4625099,4.2622975.4996455.164588.5791855.3928454.498712.8594426-.1609471.9320742-.2782032,1.8723637-.3922852,2.8117197-.2557042,2.1066893-.3069571,4.2243013-.234699,6.5683969-1.0797646-1.3660899-1.9537709-2.6136166-3.0563145-3.6666812-3.0311082-2.8951807-7.8857545-3.5074145-11.3708568-1.4247179-2.7267651,1.6295427-3.6595861,5.12146-2.0362983,7.6227685.9257259,1.4263984,2.1802544,1.8816061,3.6052524,1.3082087,1.4806387-.5956163,2.2590476-2.0701868,1.9201624-3.6387675-.1745772-.8081897-.6788906-1.2834691-1.4868936-1.4123948-.5211176-.0830875-.78261.4679976-1.243139.6271709.0709512-1.3712245,1.1373657-2.3183291,2.7270451-2.4898255,1.6305697-.1758842,3.0544474.3991003,4.4333271,1.1823637,2.5478935,1.4473103,4.0236776,3.8957788,5.8376,6.0921839-.22555.0761791-.3670789.1351806-.5142092.1715898-1.3000866.3217075-2.2154499,1.0248708-2.3687418,2.4448276-.1201502,1.1135598.6024314,2.2175971,1.9744027,2.7857666.6820647.2824976.4937641.6018712.3134921,1.0465296-1.6326235,4.0268517-3.7661995,7.8022002-5.8080992,11.6247872-2.8760426,5.384166-5.5291491,10.8909095-8.8319256,16.0396297-.5856271.9128427-1.2090638,1.8015993-1.8716169,2.7856732-.2070654-.5564998-.3400054-.9623218-.5065539-1.3538601-1.3713179-3.2253837-4.6987405-3.7199879-6.920352-1.0126411-1.0566121,1.2875768-1.5691409,2.8378596-1.7953444,4.4505048-.4440982,3.1659154.1105344,6.0515737,2.7591599,8.1782413,1.5659668,1.2575159,3.2821446,1.3613287,5.0530295.4251468,1.2177459-.6437884,2.141418-1.6087242,2.9065702-2.737221,1.0360736-1.5276905,1.7324219-3.2208092,2.3984292-4.928865.4654769-1.1936599.92862-2.3884401,1.4123015-3.5748181.0744987-.1827926.161974-.630345.4164646-.4018076.4184251.3759478,1.0556786.5125288,1.2565824,1.1434339.6477094,2.0344311,1.3449912,4.053365,1.9651604,6.0959182.4810675,1.5849182.7513354,3.2119403.6180219,4.8815331-.1198701,1.5026709-1.2767474,2.7045461-2.7459966,2.8588649-1.3609553.1429292-2.2297335-.5454837-2.7288189-2.1644771-.579839-1.8815127-.1732702-3.6856326.4372832-5.4714546.2715749-.7945596.5577135-1.5841713.8374104-2.376117-1.5378664,2.3318659-2.5169924,4.8319606-2.1739995,7.6644989.2196685,1.8142025,1.4465634,2.9430727,3.1366947,3.0218659,1.7452118.0812204,3.2369599-1.0278582,3.8018618-2.847382.4238398-1.3654364.1826059-2.7273252-.0877554-4.0774511-.4708916-2.3522176-1.5114464-4.5085727-2.3960953-6.7138468-.337018-.8398377-.3310432-1.3342552.5472575-1.8268056,1.0356068-.5808659,1.1751752-1.455339.5938425-2.5047626-.161694-.2919267-.3251617-.6275443-.5816128-.8142579-.9208714-.6708619-.7107252-1.4172494-.3458869-2.3029252,3.241441-7.8693237,6.830356-15.5981455,9.5965177-23.6605311.1181897-.3447666.2287241-.7434935.7176336-.9104154.1335936.7658991.0744054,1.4638344-.018578,2.1497268-.6408943,4.7225465-1.1436207,9.4615237-1.5633528,14.2065692-.7567501,8.5514818-1.5024841,17.104644-1.9548911,25.679745-.3928454,7.447351.2176147,14.8354205,1.3010202,22.1958564.2492626,1.6931187.6946679,3.3452538,1.210184,5.2298473-2.6349953-2.4590178-5.5516481-3.3564566-8.858719-3.0305481-2.5275417.2490759-4.8777988,1.0745366-7.1149075,2.2465377-2.2868679,1.198141-4.3931837,2.6560006-6.2170019,4.4891545-.5894548.5925355-1.2585429.3541957-1.8908484.3035963-.379402-.030341-.192315-.4677175-.1474104-.6962549.4334556-2.2055541.2806305-4.3773131-.3277757-6.5269465-.0920498-.3253484-.0483588-.5851603.2042647-.8276079,1.9804709-1.9005575,2.4345583-4.3445448,2.2438304-6.9103628-.3752943-5.0478949-1.784515-9.8328971-3.9974443-14.3806796-.2109863-.4336423-.5016994-.8285415-.7554431-1.2414586.3695995,1.6735138.9057476,3.2567515,1.4403085,4.8405495,1.2312827,3.6469829,2.4668598,7.2977001,2.7149088,11.1779817.123511,1.9324855-.3169463,3.7620918-1.3681437,5.4103993-.200157.3139589-.4664105.789425-.9026668.5737708-.4185185-.2066919-.7002693-.0351955-1.0297254.0798201-1.2993398.4538073-1.5156475.3939656-2.2653025-.7517089-.2326451-.355596-.4469923-.733691-.6017779-1.1282168-1.2985929-3.3107118-.8268611-6.4611299.8840888-9.4969993.1562793-.2772697.4455919-.4953511.4426979-.9619483-1.8563064,1.7052551-2.5790746,3.8081167-2.7082804,6.1649089-.1299526,2.3701421.6620863,4.4333271,2.1977121,6.2474363-1.5929469-.5108483-2.7016521-1.4808254-3.1376283-3.0797471-.520184-1.9084928-.648643-3.8467664-.2925802-5.8065121.4649168-2.5576026,1.6378515-4.8439103,2.7179895-7.1676541.5084211-1.0938615,1.063894-2.1715722,1.3157706-3.3775552-.9223651,1.2928048-1.8006657,2.6078285-2.6273401,3.9545002-1.3987648,2.2785591-2.6217387,4.6581303-2.8634394,7.3622097-.2887525,3.2297714-.1869003,6.4037155,2.7149088,8.6565082.2689609.2088391.2938872.4250535.2329252.7153931-.4520336,2.1537411-.4404573,4.3093493.0227791,6.4578625.1221107.5663956-.0508794.7373319-.6272643.781583-2.4066446.1846597-4.8117956.4053552-7.2261888.4231863-.7363983.0055081-.7877446.2308713-.5938425.8607496.5718103,1.8579868,1.4777446,3.5441037,2.5169924,5.169072.3372047.5270924.688413,1.0451292,1.0910608,1.6550291-2.2634353.0869152-3.9798932-.7083913-5.3656814-2.3046057-2.1522474-2.4790895-3.4214329-5.3869667-4.2602437-8.524315-.1672954-.6253971-.1073603-.8671912.5673292-1.0815384,3.1826263-1.0111474,6.5733448-5.1674849,6.8791816-8.4036046-1.009747,1.5037911-2.0084779,2.924308-3.0618226,4.3082291-1.5306779,2.0110919-3.5207645,3.1442566-6.0267408,3.4325424-.553139.0636693-.7803694.0054147-.7118455-.6232499.2425409-2.2258125.2127601-4.4583468-.0201651-6.6811719-.0842078-.8033352.2029577-.9375822.9366487-.9623218,2.9273888-.0983981,5.872142-.0905561,8.7283929-.8857692.311625-.0867285.7355581-.0236193,1.001905-.5763848-.5274659,0-.9443973-.0042944-1.361142.0007469-1.7112299.0210986-3.4231133.0250196-5.1333163.0787931-.5904817.0186714-.8049222-.1057732-.6932675-.7508686.3150792-1.8200839.2081856-3.6463294.0483588-5.4810704-.1045596-1.1992613-.7054039-2.4346517.1271519-3.6291518-.1254715.0393032-.1941821.082154-.2449682.140782-1.8282993,2.1122907-5.1723395,2.1208795-6.4742932-.6514437-.9040671-1.9248303-1.1533298-3.9038074-.8672846-5.9789421.3667055-2.6603884,1.4266784-5.1023219,2.3904006-7.5753432.4093695-1.0505439.7749547-2.1172386.9295535-3.2499365-.7761683,1.7722853-1.8450102,3.372514-2.7621473,5.0551767-1.2173725,2.2334678-1.9471425,4.6186404-2.0543161,7.1570114-.1183764,2.8043446.5127155,5.3573726,2.9033961,7.1538373.3695062.2776431.2613056.5567799.2224692.8831552-.1845664,1.5496293-.3014491,3.0960845-.0887823,4.659624.1105344.8134177.8049222,1.905412.2759627,2.3480166-.5494981.4598755-1.6936788.1990367-2.5761806.2726952-2.2027534.1836328-4.4044799.3782817-6.6732366.5742376.6471493,1.8914085,1.2817887,3.6366203,2.3692086,5.1752335.4595021.6501367.966056,1.2761873.7992275,2.1587824-.0413571.2184549.1196834.3111582.2831511.3910716-.0669368-.3220809.0001867-.6245569.1282722-1.0327128,1.7048817,1.8040266,3.6725627,2.9635179,6.0680979,3.2878394.5808659.0786998.4269206.4900298.4412975.8222866.2156542,4.9703154,1.9168016,9.2891871,5.5827359,12.7458155.2552375.2407672.4567014.480414.4353227.859816-.0497592.8840888-.0828075,1.7689244-.1276187,2.6533866-.0140035.2780165-.0732851.5347477-.2895928.7466676-1.2529415,1.2276418-1.3310811,1.8173766-.3566229,3.3068841.3362712.5138358.4112367.9664295.1383548,1.5297443-.8510405,1.7575349-1.6895711,3.5216048-2.4944934,5.3005184-.8397443,1.8554662-1.3841077,3.7842174-1.2419254,5.8528171.1392883,2.0278961,1.2943919,3.3716738,3.2502166,3.7831905,1.8716169.3937789,3.5822867-.4604357,4.4658153-2.2379489.7318239-1.4723299.7646855-2.9949791.29202-4.544235-.447179-1.4655149-1.1639724-2.8175079-1.7805007-4.2123516-.5545393-1.2549019-1.0855527-2.5225938-1.5603654-3.809237-.1710296-.4632364-.5209309-1.1624787.1972629-1.4136085.8729793-.30509,1.1006765-.9544798,1.1398864-1.6852767.03977-.7397592-.136581-1.4823191-.9535462-1.8142958-.2630794-.1069869-.3931254-.2615857-.3923786-.5427764.0028007-1.0265512.0011203-2.0531025.0011203-3.1578867.2810039.1545055.5403491.2927669.7957733.4382168,1.3055947.7438669,2.6540401,1.3621689,4.1523232,1.6320634,2.4840374.4475524,4.7886431-.1784982,7.0394752-1.125136.5109417-.2149073.7154864-.209586.8368502.4209458.2938872,1.5275971.7115654,3.0288676,1.210184,4.5053986,1.1672399,3.4569085,2.7851131,6.6470967,5.4986215,9.1714642.5386687.5011392,1.160985.8764335.8816615,1.7959979-.2101461.6916804-.0414504,1.4384414-.8079096,2.001943-.9719375.7145529-.9267528,1.754174-.0615221,2.5772075-.0575078-.842545.0066283-1.6232878.6623664-2.2095685.1295792-.1158558.2423542-.2908998.4580084-.2376864.872886.2154675,1.2839359,1.7825545.6519105,2.4835706-.0990516.1098809-.1854066.2107063-.3804289.1556258-.2945407-.0832743-.9483183.5160763-.7897051.7032567.4383101.5174767.0861683.9435571-.1083872,1.3492857-.7257557,1.5131268-1.4991233,3.0032879-2.2498052,4.504465-.9058409,1.8116818-1.643733,3.6756435-1.8375417,5.7193169-.1811122,1.9110135.6366933,3.5284198,2.1927642,4.2728468,3.3354513,1.5957476,6.9039212-.8338628,6.6439225-4.5085727-.1119348-1.5826776-.6224097-3.0415642-1.2699324-4.4659087-.6563916-1.4439494-1.407727-2.8424341-1.9907401-4.3223259-.4890029-1.2407117-.7743012-2.3648208.253557-3.5577338.675343-.7839169.4634231-2.2821067-.3031295-2.6249128-.8916507-.3988202-.8203261-1.0150684-.8208862-1.7496929-.0007469-.8209796.2832445-.8035219.9221784-.513649,1.8675092.8473996,3.819693,1.2786146,5.8808241.9088283,2.8398201-.5095413,4.8954432-2.2449507,6.6970425-4.3493994,1.6956393-1.9809377,3.0524869-4.1948006,4.3486525-6.4481533.6122338-1.0642674.6202625-1.0595995,1.5823042-.1553457-1.2241876,1.1086119-2.3661278,2.287428-3.1215709,3.7816968-.9301137,1.8396889-1.2351103,3.7675065-.7498417,5.7771048.250943,1.0386876.8747531,1.8240049,1.9711352,2.0818564,1.1168273.262706,1.8471574-.3672656,2.5057895-1.15445.2556109-.3054634.3707198-.7416263.8065093-.991169.0862617.9418766.1508646,1.7917035.2445948,2.6383562.1714031,1.5486958.3611041,3.0959912.947478,4.5583319.2514098.6270775.6216629,1.0876999,1.3787864,1.1663997.8413314.0874753,1.0338331.501326.6620863,1.2928982-.1290191.2748424-.2978082.5336274-.4686511.7860642-.7274361,1.0749101-.6376269,2.110797.0989582,3.1453769.6457489.9070546.5631281,2.4149534-.1488107,3.2563781-.8615898,1.0184292-.9279665,2.360153-.1667352,3.3715804.8443188,1.1219619.8656975,2.0199608.0646029,3.1763714-.2494493.3600771-.4290678.753576-.4551143,1.1839508-.0523732.8678447.3007022,1.545615,1.0738831,1.9688947.4617427.2526235.9640955.3193736,1.3568476-.0857949.5806792-.5990705.6479895-1.3490056.462863-2.1345096-.0731917-.3104113-.2836179-.5350278-.4798539-.7693533-1.0151617-1.2121445-.9861278-2.2793993.0741253-3.4095766.4710784-.5021662.6311852-1.1031972.480134-1.7801272-.1292992-.5797457-.431215-1.0679083-.7846638-1.5368394-.3194669-.4240265-.4296279-2.447815-.0898092-2.7958491,1.1982344-1.227455,1.0765905-2.453043.2102395-3.8097038-.3276823-.5129955-.5250386-1.3155839.0732851-1.7347558.8313422-.5822663,1.0507306-1.3777595,1.2092505-2.2562469.365025-2.0240685.3962062-4.0711962.4184251-6.1195375.0032675-.299862-.0849547-.6341727.1769111-.9901421.3851901.648923.7436802,1.2123312,1.2181194,1.6892911,1.7544541,1.7641632,3.9666366,1.3156772,4.8720107-1.0047991.1534786-.3932188.2473955-.8181789.3084508-1.2372575.2802571-1.922683-.4558612-3.5900353-1.3488189-5.2133231-.9443973-1.132978-1.9024246-2.252886-3.1240916-3.1177433.7378921-.749655,1.191606-.6453755,1.6043364.2052916.4737857.9766054,1.0522244,1.9023313,1.5851983,2.8502761.3941524.5376417.8110838,1.0603464,1.1776025,1.6162861.7346246,1.1144,2.0854973,1.8979435,2.3635138,3.1750644.2833379,1.301487-.0272602,2.7321798-.0772061,4.1062983-.0033608.0916764-.0092423.1840062-.0016804.2750291.0266067.3183466-.1281789.4645434-.4125436.6151279-1.2854296.6806643-1.6849967,2.1331092-.9716574,3.4134042.1515181.2717616.351675.5874009.6663808.5766649,1.1587445-.0393032.7425599.6020579.4956312,1.1218685-.8903437,1.8740442-1.8845001,3.7004764-2.6236058,5.6437913-.6984021,1.8365147-1.2744135,3.7001963-1.0308457,5.7095144.2487958,2.0520756,1.9744961,3.6200028,4.0382412,3.6668679,2.5484536.0578812,4.2477339-1.853319,4.1231959-4.6361914-.0899959-2.0102517-.9718442-3.7659195-1.797865-5.5346572-.7102584-1.5211555-1.4614072-3.0227994-1.8951428-4.6560764-.1508646-.5679827-.104933-.9617616.4511-1.3918564,1.5941605-1.2335232,1.4580463-2.8205886-.25225-3.9264931-.1843797-.1192166-.3892978-.1986632-.3898579-.4529671-.0036409-1.4217305-.0017738-2.843461-.0017738-4.386462,4.858474,3.9559005,9.6573863,4.3984117,14.6263013.4239332-.0393966.6931742-.0959708,1.2712394-.0992383,1.8494913-.0043878.7543228-.1774713,1.3049412-.8623367,1.8360479-1.2489271.9687634-1.030939,2.8941538.3740806,3.4968652.8527209.3656785.7124056.757497.4327087,1.3594615-.9641889,2.0750413-1.9433149,4.1440145-2.860452,6.2398744-.6897199,1.5759559-1.1682668,3.2124071-1.0392478,4.9719958.1934353,2.6373293,2.2779056,4.3113098,5.0789827,4.0622339,2.4480017-.2176147,3.7602247-2.0534759,3.4782872-4.760636-.2038912-1.9561981-.9399161-3.71504-1.8200839-5.4354189-.7642187-1.494082-1.5472954-2.9782683-2.0295766-4.5992222-.2365661-.794653-.2742822-1.4306928.4103964-2.1292816,1.0496104-1.0708957,1.0749101-2.3698621.0700176-3.1452835-.7565634-.5836666-.865044-1.2321229-.8168719-2.0469409.0216588-.3649317.0244595-.7375186-.0231525-1.0988094-.0942904-.7147396.1271519-1.2702125.5946827-1.8311,1.4362008-1.7228062,2.5663781-3.6371805,3.3690598-5.7408823.7558166-1.9808443,1.2304425-4.0273185,1.4431092-6.1316738.069084-.6839318.1398485-1.0663212.9280598-.5303599.6281978.4271073,1.3746787.6492965,2.1334827.7904519,3.4136843.6343594,6.6147952-.0868218,9.6946356-1.5343188,1.6653917-.7827967,1.6329036-.8017481,1.5764227,1.0745366-.0223123.7398525-.1214572,1.2879502-.8890367,1.696853-.7791558.4151576-1.0474632,1.2314694-.8534678,2.1413246.1958625.9191909.6979353,1.474197,1.7467055,1.4156623-.0812204.2312448-.1237911.4086227-.2025842.5680761-1.0005047,2.0243486-2.0491815,4.0261982-2.9980599,6.0743528-.863737,1.8642417-1.5560709,3.8036356-1.4053931,5.9088312.1900744,2.6537601,2.1166785,4.6029564,4.866596,4.3879557,2.9552091-.2309647,4.4842066-2.3518442,4.0327332-5.291276-.2571046-1.6737005-.8112705-3.2543243-1.4761575-4.7994725-.7479746-1.7376499-1.546922-3.4538277-2.2695969-5.2016535-.4810675-1.163599-.3750142-1.3801868.6657273-2.1049155,1.0385943-.723235,1.136899-2.4262496.0298742-3.023733-.9279665-.5006725-1.0120809-1.1365255-.9288067-1.9922339.0382763-.3934055.0525599-.8019348-.0111095-1.1889921-.083461-.5080476.069084-.8437586.4485794-1.192913,3.465404-3.1887878,5.0813166-7.2424329,5.4429808-11.8561254.1860601-2.3739698.1816723-2.3960953,2.5734732-2.5368774.2347923-.0138168.5076742-.1188432.6555514.1620674.1298593.2468353-.0070951.4660371-.1243512.6863591-1.0146949,1.9057855-.86243,2.4467881,1.0026519,3.5082547-1.170134,1.9023313-2.0348979,3.9577677-2.9814424,5.9725005-.589268,1.2543418-.957934,2.5732865-1.056052,3.9601949-.1338736,1.8935557.6637668,3.380636,2.1832418,4.0866,1.655776.7692599,3.9783062.476213,5.173273-.6622731.4539941-.432522.7195941-.9619483.8534678-1.584078.439337-2.0420864-.1079204-3.939003-.8268611-5.8066989-.7141794-1.8554662-1.6829428-3.5918091-2.5980261-5.3511177-.2332053-.4482993-.2182682-.7024165.180552-1.0739765,1.358528-1.2663848,1.2459397-2.2271195-.307704-3.3066974-.6404276-.4449385-.7222081-1.1047842-.1082939-1.5675538,2.2628752-1.7057219,3.4558816-4.0618605,4.1682872-6.717581.1813922-.6760899.2045447-1.4430159,1.2306292-1.4789582-2.121533-.4521269-4.2100177-.6084062-6.301023-.687106ZM74.9663212,91.2852009c-.0548938.3125585-.1099743.6900934-.5972967.6490164-.5179435-.043691-.6609661-.3599838-.6322122-.8494534.1094142-.2931403.0747788-.7699134.6286646-.6681545.4630497.0851414.6807577.4145975.6008443.8685916ZM73.1187903,80.9106477c.6613395,1.1148668,1.3111027,2.2368286,1.9864457,3.3430132,1.6949858,2.7763375,3.7019701,5.30724,6.0588555,7.5506037.3586768.3413124.4322419.6638601.367639,1.1270031-.1931552,1.382334-.1051197,2.7535585.4662238,4.0421622.9968638,2.248685,3.9962307,2.8247897,5.5330701,1.0874199,1.3044744-1.4746638.4663172-4.5182818-1.4143553-5.1359303-.7469477-.2452483-1.3982046.0059748-1.6392518.7251022-.3368313,1.0047991-.2221892,1.9885929.3581166,2.8929401.1712163.2668137.4215059.4430713.7505886.4659437.1892342.0132567.4054485-.0164308.4698647-.2057584.0817805-.2403004-.1516114-.2567312-.3127452-.3323502-.839651-.3935922-1.1581843-1.9592789-.5579002-2.6677636.3076106-.3629712.6267975-.2793235.9733379-.0681505.8860493.5403491,1.4841862,2.1839887,1.1434339,3.1627413-.4504465,1.2935517-2.267543,1.4696226-3.3511353.3246949-1.6260885-1.718325-1.056052-5.7623544.9867812-6.9360359.6576986-.3779083,1.343871-.3620376,2.0151996-.0214721.4690245.2379665.8711122.5703166,1.1768557.9987309,1.8372616,2.5736599,2.2895752,5.3863132,1.1538899,8.3292926-1.2872967,3.335638-4.6839901,3.8628238-7.0400354,1.1829239-1.3900826-1.5809972-2.3098336-3.447106-3.1367881-5.3488772-1.9207226-4.4176432-3.7820702-8.8611462-5.6630228-13.2959671-.1624408-.3827628-.2925802-.7791558-.4376566-1.1692004.0375294-.0169909.0750589-.0339819.1125883-.0510662ZM51.3405188,90.6163928c-.0187647.6004709-.2227493,1.0339264-.7141794,1.2554621-.3187201.1435827-.6745961.3553159-1.0193628.031928-.2427276-.2276972-.5396022-.4459654-.4988053-.8250873.035849-.3327236.3371114-.3827628.6053254-.4600623.2331119-.0670302.5091679-.1613205.4853619-.4561413-.0200717-.2485158-.2740022-.1501177-.442978-.1748573-.4656637-.0680571-.3139589-.3969531-.1956758-.6167149.1374212-.2555175.2022108-.725849.6994291-.4665039.7185672.3749209,1.0231904,1.0049858,1.0808849,1.7119768ZM50.3158347,83.8707114c-2.2920025,4.6561698-3.9085686,9.6040796-6.1745246,14.2710788-.6763699,1.3929766-1.5822108,2.6125897-2.7899676,3.583687-1.7129103,1.377386-3.9146368,1.0465296-5.1877434-.7500284-1.6521351-2.3314924-1.5683007-6.8367043.1787782-9.106768.719034-.9343147,1.6400921-1.4772778,2.8555974-1.2582628,1.1877784.2140671,1.7825545,1.0472764,2.1462726,2.1360033.4848018,1.4515113.2774564,2.7659749-.6586321,3.9643026-.4717318.603645-1.0856461.8767136-1.85752.6880395-.5659288-.1383548-.8936112-.5164498-.9912624-1.0760303-.1364876-.7827033-.0774861-1.5420674.5435232-2.1190124.3032228-.2817508.7237018-.4124503,1.0924611-.1303261.43803.3351509.0311812.6484562-.1098809.9529861-.0869152.1874604-.2086524.3586768-.4209458.7159532.8258341-.1070802,1.3166108-.3576499,1.5460818-.9528927.1812055-.4701448-.083741-.8295684-.4177716-1.123829-.5168232-.4553944-1.0944216-.3668922-1.61862-.0556406-1.0333663.6138209-1.683503,1.4755974-1.6438263,2.7553322.031928,1.0359803.4242132,1.8587336,1.3848546,2.2909756,1.160985.5222379,2.2101286.1855933,3.1435098-.5909485,1.086673-.9040671,1.4685023-2.1378704,1.5702612-3.4883697.0298742-.3967663.051813-.7658991.3338439-1.1057178,3.0141173-3.6317658,5.499555-7.6166069,7.790624-11.729907.0584413-.1047463.142089-.1954891.3328169-.2404871-.347754.790732-.6667542,1.5955609-1.0479299,2.3698621ZM42.2315103,180.1681448c.2870721,1.3842945.2309647,2.8284306-1.0816317,3.7222285-1.4099676.9599879-2.9106779.6929874-4.3153242-.1253782-1.3400433-.7806495-1.8561197-2.1113571-1.5553241-3.8798148.2460885-1.4469369.665914-2.8478488,1.2272683-4.2005887.7335976-1.767244,1.5065918-3.5180572,2.2625951-5.2759655.0814071-.0001867.1629076-.0003734.2444081-.0004668.8669111,3.3246219,2.518206,6.3853242,3.2180085,9.7599854ZM111.6884938,110.0326442c-.8737262-2.6130565-.6285713-5.243384-.0826208-7.8680167.5429631-2.6107226,1.385228-5.1156719,2.7028657-7.4515521.3653051-.6478028.7689799-1.2946719.8710188-2.060571.4148776.0461183.4643567.4227195.5933757.7039102,1.9444352,4.2363443,3.4517739,8.6042284,3.8937249,13.2794429.1697226,1.7956245-.3511149,3.389785-1.606857,4.6952863-1.1495021,1.1949669-2.4720877,1.1163605-3.538409-.1658017-1.2808551-1.5402003-1.351993-3.3494548-1.1038507-5.2095888.2591584-1.9434083.9154567-3.7904723,1.4384414-5.669371.0554539-.1995968.1002652-.4020877.0354756-.6655405-.1030659.181579-.2197619.3568096-.3069571.5455771-.8471195,1.8333406-1.5308646,3.7232554-1.8991571,5.7140889-.4668773,2.5240875-.2002503,4.8286931,2.0771885,6.5247059-1.4699026-.2614924-2.5868232-.9150832-3.074239-2.3725694ZM117.5867756,120.0538419c.0088689.4845217-.1670153.6428548-.6478028.5902016-1.0034921-.1097876-2.0127723-.0856082-3.0157977.0112028-.5304533.0513462-.744427-.1663618-.7112854-.6645136.1459167-2.1907104.3014491-4.3808606.4452185-6.5717577.0207252-.3151725.1504911-.4456853.4623028-.3716534,1.0877933.2585049,2.1210662.1025991,3.0973915-.425987.4936707-.2673738.4890029.0496658.4888161.3863104-.0007469,1.1898323-.0002801,2.3796645-.0002801,3.5694968-.0418238.0000934-.0835543.0000934-.1253782.0000934,0,1.1589312-.0143769,2.318049.006815,3.4766068ZM109.5320453,128.6089646c-1.972909-2.0166933-3.346094-4.4752443-5.1860629-6.9260467,3.2386403.4502598,6.2010379.3601705,9.1595145.3568096.5974834-.0006535.7853173.1762576.778969.7785956-.0207252,1.9843919-.0630158,3.9713978.1351806,5.9516819.0121364.1215505.0261399.244128.0223123.3656785-.0132567.4234664.4088094.9665228.1327534,1.2021554-.3774415.3221743-.9965837.1252848-1.5025775.0462116-1.3645028-.2130402-2.5686187-.7818631-3.5400894-1.775086ZM91.1000545,134.2167202c.5683561-2.0337776.9547599-4.1008836.9991977-6.2195226.0083088-.3949926.1784048-.5379218.5639684-.5103816,1.0436355.0744987,2.0766284.0392099,3.0602355-.3809891.407409-.1740171.3995671.1167893.3713733.3603572-.2662536,2.2999378-.0085888,4.5704683.3713733,6.8341837.0713246.4244-.1045596.5311068-.5026329.4961913-.7293032-.0636693-1.4619673-.0896225-2.0527291-.123231-.8743797.0451847-1.6061102.0767393-2.3367204.1229509-.4426045.028007-.6106468-.0906494-.4740658-.5795589ZM93.5597258,136.1655431c.5337208-.03977.6703017.1144554.6205426.66358-.2697078,2.9736938-.7642187,5.9339442-.6020579,8.9363918.0305277.5663956-.3150792.5428697-.7186606.5182235-2.080456-.1273387-3.8135314-.9777256-5.2414235-2.4788094-.7175403-.7544162-1.3393898-1.584078-1.8935557-2.4627521-1.0510107-1.6664187-2.0900718-3.3404926-3.2051252-5.1252877,1.6423326.1333135,3.1819728-.0453714,4.7266542-.0386497,2.1047288.0090556,4.2102044.1435827,6.3136262-.0126965ZM86.9141229,134.9440629c-1.12775.107547-2.2064877.2196685-3.2870925.3088243-.4281342.0352889-.6172751-.3534488-.8835286-.5864673-2.3449358-2.0525423-4.954258-3.5589475-8.1125182-3.9174375-2.811533-.3190001-5.2034273.7211812-7.4178503,2.3260777-.2850183.2065052-.5049669.5179435-1.0156285.6344527,5.7416292-7.2513018,15.3258237-5.4419539,20.7166181,1.2345502ZM63.5276873,55.2913045c.8292883-3.8537682,5.5762009-9.0248007,11.07837-8.3038996,2.6489989.3471005,4.4785118,2.4038439,4.4834597,5.2098689.0096157.4946043-.0541469,1.2175592-.631652,1.7823678-.5936558.5804925-1.4033392.6811311-1.9974618.2457151-.6026181-.4417643-.9131227-1.5196618-.6178352-2.1446855.2981816-.6309052.733691-.6020579,1.2399649.0414504.2178947.2769896.2304979.8968787.7615113.7180071.4833081-.1628142.5356812-.7109119.5887079-1.1639724.2054783-1.756788-1.2742268-3.464377-3.2511501-3.795887-2.004557-.3359911-3.8164255.1736436-5.4843379,1.2586362-2.2754784,1.4801719-3.8455528,3.5409296-4.8287865,6.0535342-.1733636.4427912-.3455135.7530159-.8985591.6789839-.3808023-.0507861-.5320403-.1627209-.4422311-.5801191ZM64.0017531,33.7389565c1.2834691.6764633,1.6875173,1.8409959,1.7844216,3.0456719-.0008402,1.8420228-1.0022785,3.3640185-2.357819,3.7999947-.455021.1463834-.693921.1333135-.6841185-.4156244.0042944-.2425409.0231525-.5074875-.0606819-.7253822-.7386389-1.9218428-.0135367-3.6714424.5814261-5.4494224.1656149-.4951644.3873373-.4395238.7367718-.2552375ZM62.8062261,55.4546789c-.9603613-2.4269964-.6042985-4.9434286-.5498715-7.4390423.402181,2.4636856.7417197,4.9322258.5498715,7.4390423ZM61.2503419,19.7819299c.0826208-.5051536.1202435-1.3129699.7270627-1.2959789.4468056.0124165.3389785.8127642.4060087,1.2757205.498992,3.4450522.900893,6.8964526.5163564,10.3854759-.1083872.9834204-.2541172,1.9588121-.8116439,3.1009391-1.0909674-4.6222813-1.567087-9.0083699-.8377838-13.4661565ZM58.8127961,37.3821118c-.2831511-1.2849628.1839129-2.3247707,1.1204682-3.1982168.5005791-.4668773.7864376-.4909633,1.0726695.250943.7081112,1.834741,1.2435124,3.6950617,1.2536883,5.5677988.1128684.7107252-.078233.8870762-.680571.6471493-1.511353-.6018712-2.4208349-1.7005872-2.766255-3.2676743ZM59.8398142,55.0013384c-1.1140266-2.3890002-2.7644812-4.3194319-5.0144732-5.6912165-1.9894332-1.2128914-4.1248763-1.6716466-6.3921393-.8502936-1.005546.3640915-1.8198972,1.0000379-2.2587675,2.0177203-.2351657.545297-.3563429,1.1076783-.046585,1.6735138.4075957.7443337.6800108.7900785,1.3084887.2235895.1584265-.1427425.3047166-.3042498.4802273-.4215993.294634-.1969828.4903099-.1639345.558647.2472088.1374212.8267677-.4053552,1.8248451-1.1632256,2.0799892-.7035368.2367528-1.4255582-.1297659-1.8283927-1.0000379-.6123272-1.3231458-.5596739-2.5998932.3713733-3.7846842,1.3134367-1.6714599,3.0827345-2.3192627,4.3392235-2.3154351,4.8432568.0442511,7.7208864,2.0939928,9.9298948,5.2798865.660686.9527994,1.251261,1.9538642,1.9024246,2.9134786.2477689.3649317.2262969.4933906-.230778.5873076-1.3701042.281284-1.3691707.2986484-1.9559181-.9594277ZM59.7520588,59.4979614c-.4140374-.1415289-.7969869-.3661453-.8838087-.8377838-.0944771-.5132756.1833527-.9160168.5899215-1.1516493,1.6020958-.9287133,3.3312503-1.0904073,5.1115642-.685799.4802273.1091341.8491733.4604357,1.0943283.9134028.4794805.8855825.2220024,1.5555108-.7434001,1.8204574-.891464.2445948-1.8114018.2154675-2.9987134.193902-.5452036-.0482655-1.3779462.0182046-2.1698918-.2525301ZM59.7764249,127.3212944c-.7096983-6.0519471-.9942498-12.1167775-.8979056-18.2048537.1312596-6.6622205.5698498-13.3091304,1.0151617-19.955947.4023678-6.0057355.7838236-12.0128714,1.1736815-18.0195405.1860601-2.8660534.3697862-5.7322001.5562197-8.5982535.0210986-.3237613-.0535868-.713806.4852686-.6846787.4641699.0250196.5948695.274469.6267975.7129658.2866053,3.9306942.5649953,7.8624153.9018266,11.7890018.4961913,5.7826128,1.0355135,11.5614913,1.5614856,17.3415835.8499202,9.3416536,1.8339007,18.6771457,1.5411339,28.0797613-.1294859,4.1552173-.4641699,8.2953108-1.2664782,12.3842447-.0586281.2989284-.1335002.5965499-.2265769.8865161-.421786,1.3131566-1.3179178,1.7968381-2.6768192,1.47261-.3177865-.0758057-.5414694-.2345123-.7220214-.5082344-1.3411636-2.0329374-1.7920769-4.3100962-2.0717738-6.6951754ZM64.735164,143.6001043c-.0535868-.3394453-.0978379-.7047504-.3471005-.9206846-.8000677-.6929874-.7511487-1.60555-.7541361-2.5236207-.0015871-.5089812.1211771-1.0308457-.1497443-1.5220891-.084768-.153852-.1103477-.3792153.07954-.4929238.6888797-.4122636.8557083-1.1318577,1.1135598-1.9939143.492177,1.6512949.6402409,3.1944826.9415966,4.704622.1663618.8340495.2420742,1.6866771.4221594,2.5171791.1861534.8588824-.4848952.7661792-.9278731.8701786-.6591923.1548789-.3393519-.3945258-.3780016-.6387471ZM63.0960989,138.8714896c-.0275403,1.2195197.0559207,2.4436139-.5213977,3.5866744-.2199486.4356028.086075.7274361.3739873,1.041675.3162928-.3365512-.1138953-.903507.4776133-.9652158.4094629-.0426641.6001908.2973414.6921472.6180219.1267785.4426045.1479705.9056542-.1492775,1.3125031-.0279137.0382763-.1356474.0727249-.1562793.0539602-.8496401-.7741145-1.6987201.240207-2.5513477-.0000934-.2733487-.0770194-.5504316-.0533067-.4494196-.4862955.5111284-2.1914572,1.0056393-4.3869288,1.5220891-6.6512977.5686362.4373766.7755148.8859559.7618847,1.4900677ZM62.7139896,136.7472493c.0143769-.7006427.6576052-.3001421.9049073-.4909633.3142389.0475186.707271-.1183764.6155013.3636247-.0926099.4864822-.3085442,1.041675-.8266744,1.0576391-.4091828.0125098-.7026032-.493484-.6937343-.9303004ZM42.9540918,132.1917181c3.5713639-1.8895414,7.3154379-3.050153,11.4210827-2.5083102,1.7037614.2248031,3.2114735.9307672,4.5501165,2.0010094.9787526.7824232,1.8659221,1.6592302,2.5937316,2.7493574-.7287431-.4781735-1.4744771-.9327277-2.1832418-1.4390015-2.6393831-1.8854337-5.5002085-2.4976675-8.6726589-1.6664187-2.1426316.5615411-4.1536302,1.4014721-6.0510136,2.5323029-.6025247.3591436-1.2253078.6861724-1.815136,1.0647342-1.259103.8082831-2.6185645.8120173-4.1626858.5920687,1.2985929-1.4332134,2.7329266-2.486278,4.3198053-3.3257422ZM44.0017417,136.4534554c-2.1636369,2.8621324-3.9289204,5.7274389-6.5120094,7.9263647-1.0863929.9246056-2.4046841,1.271146-3.7814167,1.4574862-.5536991.0750589-.7551631-.1265918-.7140861-.7080179.1768178-2.5038291.0692707-4.9988826-.3401921-7.4775053-.0822473-.4980585-.031648-.7893316.6142877-.7803694,3.5031201.0486389,7.0097878.1464768,10.7334166-.4179583ZM44.5672971,137.8570748c.3801488-.5787187.6417346-.390138.8809147.0878487.6604993,1.3199716.7897051,2.7435693.7987607,4.1887324.0014937,1.138206-.0692707,2.2652091-.6243702,3.2937208-.1550656.2872588-.3200271.6345461-.7395725.577225-.3889244-.0530267-.5265323-.3866838-.6474293-.7024165-.3234813-.8450656-.2226559-1.7515601-.3598904-2.6248195-.0823407-.5238249-.1654282-1.0622135-.5514585-1.4251847-.5919754-.5565932-.4422311-1.0617467-.0402368-1.6105913.4329888-.5911352.8812881-1.1726546,1.2832824-1.784515ZM45.8126767,150.2653122c1.3157706.5961764,2.6119362.4820011,3.8989529-.0751522.3316033-.1435827.6464024-.3258152.9690435-.4901231.0377161.029314.0753389.0586281.1130551.0879421-.1229509.15908-.2458084.3181599-.5054337.654151,1.7549209-1.0372873,2.7100542-2.9383115,4.9306388-3.1431363-2.0714004,3.9114627-4.2581898,7.5644205-7.9319661,10.0103683-2.3609932,1.5719416-4.7455122,1.1927263-6.6941485-1.0743499-2.3901205-2.780912-3.3077244-6.1993575-3.8884969-9.7288976-.0368759-.2240563.0007469-.4059153.2370329-.5316669,1.8066406-.9616683,3.2329456-2.3728495,4.6598107-4.0809053,0,.675343.0121364,1.1680801-.0019605,1.6601638-.0798201,2.7825924,1.6639914,5.556316,4.2134719,6.7116062ZM31.4032432,128.2897778c.9046273.2642931,1.8223245.2266703,2.7051996-.0727249.5363347-.1819524.6474293.0512529.6633933.4894696.0768326,2.105569.1468502,4.2115114.2340455,6.3166136.0177378.4284143-.1941821.5111284-.5568732.5051536-1.0075998-.0168042-2.0157598-.0333284-3.0230795-.0145637-.5118753.0095224-.6035516-.2442214-.595523-.6802909.0189514-1.0380341.0061615-2.076535.0061615-3.1148492-.0199784,0-.03977-.0000934-.0597483-.0000934,0-.9463578.0286605-1.8939292-.0113895-2.8386999-.0217521-.512062.0562941-.7599243.6378136-.5900149ZM12.4598439,114.2720693c1.2741334.1552523,2.4267163-.1117481,3.4082696-1.0874199-.0631092,2.2944298-.1689758,4.5190287.0761791,6.7465216.1659884,1.509766.1342471,1.533852-1.4068868,1.5426276-.7545096.0043878-1.6914383.3906982-2.2161034-.0819673-.5260655-.4738791-.2313381-1.4457232-.2869788-2.1955649-.10596-1.4311596-.1133351-2.8692275-.1839129-4.3033745-.0229658-.4634231.102319-.6826248.6094331-.6208226ZM12.3704081,131.1478025c-1.836328-.0832743-3.4361833-.7644054-4.8549264-1.9013043-2.1796009-1.7465188-3.6011447-4.0933217-5.2702708-6.5947235,3.5078813.4026478,6.7702343.3499012,10.0327739.254864.3926587-.0113895.537455.1278054.5390421.5232648.0097091,2.3799446-.0051346,4.761663.1982898,7.1355394.0460249.5377351-.2139738.6019646-.6449087.5823596ZM20.4747109,162.7554235c.3749209,1.0336464.6643269,2.0893249.64995,3.2072725-.0233392,1.8280193-.9850075,3.0677974-2.5426655,3.2563781-1.7435314.2109863-3.4980788-.9685767-3.9064214-2.6178177-.287819-1.1620119-.1063334-2.2995644.1488107-3.4374903.6424814-2.8654933,1.9941943-5.4652931,3.0301746-8.4319851.6911203,2.9132919,1.6893844,5.456891,2.6201516,8.0236425ZM18.421235,150.8167707c.6882262.0649763.6200758.7269693.6402409,1.2047693.0361291.8584157-.4938574,1.3965242-1.3214653,1.3128765-.6605926-.0668435-.7259424-.630345-.7452672-1.1098255.0242728-1.0163754.4733189-1.4978163,1.4264917-1.4078204ZM17.2029289,143.5693899c-2.3477365-2.6529198-3.466711-5.8466556-4.1638061-9.2370007-.0430375-.2092126-.0919564-.4172115-.1350873-.626424-.2795102-1.3575011-.2427276-1.3712245,1.1307374-1.5394534.6093398-.0744987.7631917.1096009.8458125.7016696.4369098,3.1321202,1.4475904,6.0543744,3.4329158,8.5661388,1.8973834,2.4006698,4.3086025,3.7230687,7.4612612,3.4931309,1.0943283-.0797267,1.650548.8577622,2.5818753,1.4616872-4.1478421,1.440682-8.3946424.2980882-11.1537089-2.8197484ZM27.9415735,144.1824639c-2.6644027-2.0230416-4.395611-4.7837885-6.1477312-7.8012666,1.364036.1705629,2.5365039.3543824,3.7161603.4561413,1.9192288.1656149,3.8456462.232365,5.767489.0558274.6373468-.0586281.8369436.1510513.8808213.7769152.1745772,2.4980409.3835097,4.9942147.6180219,7.4874011.0595616.6327723-.2113598.7192207-.7302368.677957-1.5439346-.1229509-2.891073-.7316371-4.1045245-1.6529753ZM51.9615282,157.3622952c-1.6148857,1.905132-3.4130308,3.5930227-5.8485227,4.4158694-2.2464444.7589907-4.3367029.3932188-6.2657342-.948505-2.3287851-1.6200203-3.8090503-3.9308809-5.0988677-6.3786959-1.1122528-2.1106103-1.9446219-4.3403438-2.7023056-6.6003249-.175324-.5227047-.1881139-.7518022.4802273-.7698201.7578704-.0203518,1.5166744-.1633744,2.2657692-.3034096.5283994-.0987715.7487214.003921.8277013.5978569.2046381,1.5415073.4472724,3.080774.8760601,4.5825113.5349344,1.8729239,1.4038994,3.5764985,2.5918645,5.1148317,2.7821256,3.6024517,7.0291126,3.9328414,10.3654975.8123908,2.239536-2.0947396,3.8839225-4.6161197,5.2521595-7.3359764,2.5102707-4.9895469,4.0865067-10.2423599,4.4162429-15.8411532-.6526573,1.6224476-.9301137,3.3399324-1.3447112,5.0203546-.4313084,1.7481992-.8560817,3.4952781-1.6337438,5.1351835-.3784684.7982005-.88885,1.4446963-1.6849033,1.8607875-1.2746936.666194-2.4395996,1.4925883-3.5925559,2.3564187-3.3208877,2.4882385-7.7474931.6232499-8.6687379-3.6105738-.2767095-1.2716128-.2389934-2.5486403-.0403301-3.8274416.0498525-.3218942.1646814-.6781437.4886294-.6729157.2808172.0044811.3616642.4015275.3962996.6612461.1492775,1.1190678.2407672,2.246071.3989136,3.3637384.1041862.7371452.2879123,1.5921067,1.139513,1.6912516.8656975.1008253,1.3816805-.6363199,1.61862-1.3793465.8597227-2.6960507.9134962-5.343089-.7195941-7.8211516-.1588933-.2411406-.4469923-.4334556-.1691625-.7899851.1809255-.2322717.4156244-.5330673.1667352-.8217264-.2276038-.264013-.565182-.1047463-.857202-.0466784-.1157624.0229658-.2298444.0547071-.419172-.0508794.5502449-.3165729,1.0900339-.6532174,1.6534421-.9443039.5957097-.307704,1.200755-.6053254,1.8244717-.84908,2.2189041-.8670045,4.4297796-1.7384901,6.8968261-1.5880923,2.5314627.1544121,4.5147343,1.3626357,6.2726426,3.0635964.5171032.5004857.2326451,1.1097321.1481572,1.6469071-.5858138,3.7278299-1.6553092,7.319639-3.2274375,10.749474-1.5569112,3.3964133-3.3784888,6.642989-5.8067922,9.507642ZM58.6127325,162.3989873c-.3886443.6849588-.9011731,1.3044744-1.7847017,1.1773225-.8885699-.1279922-1.3144636-.8094967-1.5353457-1.6248749-.6351996-2.3437222,1.3818672-7.1909,3.4930376-8.3860536.067497-.0382763.1708429-.0132567.3687593-.0235259-.1071736.3523285-.18578.6105534-.2921134.9600812.4889095-.3540089.5269991-.9677365,1.1050643-1.309609-.0163374,3.1955095.2750291,6.3344448-1.3547004,9.2066597ZM63.9230533,186.4012042c.7124056.5747977.5402557,1.7838615-.2648532,2.2429902-.1863401.10624-.3590502.1995968-.5832932.0532134-.7225815-.4718252-.7615113-1.809628-.0614288-2.3765838.1648681-.1335002.0457448-.4353227.3256285-.5284928.19885.1859667.3538222.423093.5839467.608873ZM63.889725,180.0333376c.521491.4886294.635573,1.5703545.1505845,2.0952997-.3374848.3651184-.6314653.7181938-.7013895,1.2571425.0311812-.5974834-.1999702-.9738047-.6602192-1.3240793-.5720904-.4354161-.4988053-1.6869572.0600284-2.1342295.401901-.3217075.7974537-.2253633,1.1509958.1058666ZM63.5542007,176.5808169c.0105493.7349046.1752307,1.4788649-.153852,2.1905237-.1189365-.739199-.1742038-1.4746638.153852-2.1905237ZM64.3878768,174.6315272c-.0170843.4894696-.2180815,1.0618401-.9379556,1.202062-.3942457.076926-.9385158-.943277-.9752984-1.6016291-.0433175-.7762617.5199973-.9466378,1.0538114-1.0677216.4517535-.1024124.861123.5665823.8594426,1.4672886ZM64.741699,155.2790385c-.1985699,4.4241782-.4038615,8.8479829-.6106468,13.2717877-.0221256.4754661.0755256,1.0490502-.6401475,1.1101056-.6958815.0593749-1.3389231.0394899-1.5741822-.8500136-.4806007-1.8179367-.5788121-3.6784442-.6455622-5.5369911-.1086673-3.0215858-.0559207-6.0502667-.3742674-9.0619567-.0715113-.6775836.0763659-.9642823.808003-.8471195.4168381.0666567.8531877.012043,1.1490353.012043.7626316.0840211,1.5745556-.3167596,1.9760831.1320999.3551292.3968597-.0610553,1.1625721-.0883155,1.7700447ZM68.156597,153.7616172c1.9744027,1.796558,2.9326168,4.1063917,3.181786,6.7018971.1091341,1.1369923-.0471452,2.4662063-1.2851495,2.8807104-1.244446.4166513-1.8642417-.7941862-2.4721811-1.6364511-1.1337248-1.5702612-1.394377-3.4312354-1.5215289-5.2992114-.0724449-1.0636139-.01307-2.1362834.0750589-3.2355596,1.8598539,2.4811434,2.1126641,5.6424843,3.5219782,8.3216374.0755256-1.5541104-.5226113-2.9247748-1.0947951-4.2931986-.5714369-1.3665567-1.2036491-2.7075336-1.8478109-4.1458816.6419213.0865417,1.0678149.3649317,1.4426424.7060574ZM67.6312783,151.4148143c-1.6223543.5943093-3.2807442.9203112-5.0088717.8859559-1.2241876.0215654-2.437079-.0642295-3.6174822-.4187052-.7341578-.2204154-1.0539048-.5981369-.6968151-1.4163158.6694615-1.533852,1.2728264-3.0969247,1.8871141-4.654396.1553457-.3938723.3286159-.5684495.8066026-.4594088,1.5195684.3469138,3.037083.2533703,4.5004507-.27867.5938425-.2160276.8504803-.1547856.9999446.5128088.3539156,1.5812773.9794994,3.0778799,1.6958261,4.5233231.3775349.7618847.1466635,1.0441957-.5667691,1.305408ZM77.808942,180.1640371c.0810337.5097281.131353,1.0304722.130046,1.5459884-.0046678,1.7793804-.8150981,2.7854865-2.404124,3.0349358-1.569701.2464619-3.1212908-.6733825-3.6037587-2.167838-.4288811-1.3282804-.2302178-2.6571209.0722582-3.9766257.5960831-2.5997998,1.7441849-4.9982291,2.7908078-7.4601409.9066811,3.0669572,2.5124179,5.8624329,3.0147708,9.0236804ZM76.0955649,167.7379686c.0238993.9665228-.6035516,1.6237546-1.5936004,1.5305845-.7367718-.0694575-.9559735-.6596591-.9733379-1.3316412-.025393-.9836071.4553944-1.6774348,1.1322311-1.6288892.8819416.0631092,1.4140753.5935625,1.4347071,1.4299459ZM92.9361025,178.745014c.3316967.8889433.4790137,1.8274591.4088094,2.7883805-.1066135,1.4596334-1.0147883,2.433438-2.4608849,2.6274334-2.527355.3390719-4.3472522-1.2590096-4.3631228-3.8128779-.0074685-1.20729.2286308-2.377424.6252104-3.497332.8125775-2.2947098,1.7002138-4.562813,2.6347153-7.0486242.9799662,3.1874808,2.0798025,6.060536,3.1552727,8.9430201ZM90.8975637,166.5694217c-.005228.670115-.6857056,1.4356407-1.2721729,1.4311596-.6941077-.0053213-1.0975958-.4783602-1.0868597-1.3962441.1448897-.5179435.0389298-1.3801868.9049073-1.5138737.6859857-.1060533,1.4594467.794933,1.4541253,1.4789582ZM94.4739689,147.7173253c-1.0151617,4.1937736-2.4324111,8.2076487-5.4036776,11.4661741-2.8869653,3.1661021-6.0860224,3.6945949-9.9214926,1.743438-2.1194792-1.0782709-3.7634922-2.6937168-5.1714993-4.5710284-2.4283034-3.2378935-3.9955772-6.9100827-5.309574-10.698968-1.1003031-3.1730105-1.9552646-6.4176257-2.7129483-9.689221-.1060533-.4577283-.023806-.7135259.3200271-1.0191761,3.2607659-2.8998485,6.8387581-3.4174186,10.8704644-1.7256069,3.3072576,1.387842,5.4974078,3.74146,6.8362375,6.9994252.1397551.3399121.0886889.524105-.1203369.7984806-.8747531,1.1479151-1.8150427,2.2153566-3.1483643,2.8811772.8391842-.033235,1.4295725-.567796,2.1417914-1.0030253-1.0931146,2.461165-3.6655609,3.4814613-6.0326223,2.4100988-1.9692681-.8911839-3.4888365-2.337654-4.7265608-4.0862266-.4214125-.5953362-.7882114-1.2293222-1.1899256-1.8613476-.2313381.2277906-.0212853.3991936.050226.554446,1.2294155,2.6682304,3.0031012,4.8194508,5.8191153,5.913499,2.4207415.9404763,4.6944461.2620525,6.2708688-1.8008524.616995-.8073495,1.0222568-1.7276607,1.4773712-2.8176012.5522988.7958666,1.0183358,1.4661684,1.4830659,2.1374037,1.1336315,1.6369179,2.6091355,2.8152673,4.5504899,3.3462807.3692261.101012.6151279.1461967.4159978.6385604-1.0522244,2.601667-2.0105318,5.2463714-3.6076797,7.5876663-.78261,1.1474483-1.6784617,2.1904303-2.9574497,2.8051848-1.8001056.8652307-3.5522258.6704885-5.2490788-.3201204-2.4414667-1.4251847-6.0401842-6.1101084-6.8630309-8.9767219,2.1578488,1.6329036,4.1889191,3.5972238,7.1828713,2.1367502-2.8597051.6521905-4.9947749-.6012177-6.8121515-2.6569342-1.6775281-1.8974767-2.5823421-4.1971345-3.3179002-6.5700773-.5236382-1.6892911-.985661-3.3977203-1.4784915-5.0967205-.0803802-.2768962-.1783115-.5487512-.3284292-.8049222.0851414,1.9974618.5132756,3.9295739,1.0506373,5.8344258,1.3034475,4.6206009,2.8003302,9.1669831,5.4869519,13.2133463,1.2830957,1.9324855,2.8156407,3.6158951,4.9307321,4.6721338,3.1143824,1.5555108,6.2593859.8951049,8.4814642-1.7855419,2.0195874-2.4363321,2.9988067-5.3556922,3.8107307-8.3432961.5736775-2.1112638.5522054-2.101648,2.7757774-1.8873008.452407.0435976.4859221.2066919.3963929.5761981ZM96.1598057,145.7463768c-.3012624.1456366-.6154079.2698011-.9329144.3756677-1.0896604.3635313-1.1945001.2790434-1.0906874-.8742863.1820457-2.8024774.3762279-5.6043013.5357746-8.4081791.0317413-.5575267.248049-.7184738.7841037-.7130591,2.7491707.0278203,5.4975945-.0020538,8.2194117-.4619294.449793-.0759924.61046.0910229.4203856.4828413-1.8644284,3.843499-3.8257612,7.6124058-7.9360738,9.5989449ZM112.8755253,163.8566601c.3273089,1.7254202.2793235,3.4116305-.9945299,4.8233718-.1804587.1999702-.3502747.3941524-.6345461.4946043-2.248965.7952131-4.8381222-.8064159-5.0953201-3.1784252-.1126816-1.038781-.0239927-2.0676661.2008105-3.0881492.6594724-2.9940455,1.9909269-5.724825,3.3683129-8.4942541.7856907,3.257405,2.5337966,6.1662158,3.1552727,9.4428524ZM110.1722862,149.801609c.4001272.0262333.6517237.3388851.7373319.713806.0662833.2899662.0644162.6038317.0438777.9036937-.0514396.749655-.4745326,1.2175592-1.2205466,1.1805899-.7534826-.0373427-1.1044108-.6019646-1.1359654-1.3066216-.0285672-.6370667.2529969-1.1644392.7530159-1.5450548.3459803.1550656.2776431.4798539.3527019.7513354.2767095-.2066919.0292207-.7265025.4695846-.6977486ZM107.1542479,145.5706794c-2.9866704,1.5797836-6.2190558,1.5025775-9.5896093.9907022,1.1239224-.8693384,2.0685064-1.5394534,3.5570803-1.5118198,4.6816562.0867285,8.5456937-3.0480991,10.1902668-8.0105725.5616344-1.6949858.802775-3.4450522.7781288-5.2268598-.0080287-.5782519.1192166-.8347964.7775687-.7291165.6585388.1057732,1.3391098.081127,2.0103451.0995183.3172264.0086822.5459505.0711379.4841483.4659437-.8968787,5.7267854-2.649559,10.9819324-8.2079288,13.9222044ZM123.3105737,144.8424964c.0190448.120617.0435043.2404871.0563875.3616642.2217224,2.0766284-.6742227,3.4696984-2.356232,3.6664011-2.0108119.2351657-3.8075566-1.1407266-4.0524315-3.0948709-.1238845-.9888351.0391165-1.9509702.2944473-2.8942471.6950413-2.5676851,1.9635733-4.9081398,2.9768679-7.5844922.9242322,3.3629916,2.5646043,6.2673212,3.0809607,9.5455449ZM120.3815978,131.9441359c.6017779.0788865.7515221.6574185.7735543,1.1889921.0287539.6916804-.5216777,1.3485388-1.1049709,1.3275335-.7584305-.0272602-1.0277649-.5277459-1.0624002-1.093208.0033608-.9929428.5187837-1.5379597,1.3938168-1.4233176ZM116.3366349,130.2625934c-.6703951.1834461-.9202179.1128684-.977819-.6180219-.1822325-2.3113274-.4094629-4.6190138-.6320255-6.926887-.0360357-.3734272-.0707644-.6538709.4567014-.6516304,3.1403356.0134434,6.2807646.0066283,9.4839294.0066283-1.776393,3.7859912-4.0300258,7.0128686-8.3307863,8.1899109ZM5.2853747,130.1236785c-.0006535-.0032675-.0003734-.0064416-.0011203-.0097091.0050413.0024273.0097091.005228.0147504.0076553l-.0136301.0020538ZM63.3026975,189.7233988c-4.4264187.0311812-7.9489571,3.6586525-7.9177759,8.1535951.0304343,4.3987851,3.5845272,7.9922746,7.8897689,7.9773375,4.3686309-.0149371,7.8759521-3.6216832,7.8682034-8.0910461-.0075619-4.4023327-3.5841538-8.0698541-7.8401964-8.0398866ZM67.442791,202.4219758c-1.3328549.6658206-2.7768977.8859559-4.0101408.9770721-4.7233867-.0965309-7.2876176-4.2973997-5.3366474-8.3482441,1.0138547-2.1051022,2.5966257-3.5846206,4.7851889-4.406347.5212109-.1956758,1.0380341-.2406738,1.6048032-.083461,3.0080491.8337695,5.8488961,4.6415128,5.721184,7.7582292-.0786998,1.9210026-1.077244,3.2599257-2.7643878,4.1027508ZM44.5283674,63.9473459c-.7489082,1.6779949-1.4204235,3.3797024-1.4349872,5.4148804-.0398633.7188473.1715898,1.5396401.5283994,2.3294386.6996158,1.5478555,2.236922,2.4879584,3.9749453,2.4314775,1.469996-.0477053,2.9377514-1.190019,3.4848222-2.7145353.4146909-1.1558504.4206657-2.3426952.1826992-3.5238453-.4880693-2.4232621-1.4930551-4.6387121-2.8263768-6.7078719-.440644-.6836518-.9496252-1.2485537-.2771763-2.1609296.4226262-.5734907.2969679-1.396991-.3755744-1.8805791-.4707983-.3386051-1.0511974-.5855338-1.5989217-.1356474-.6750629.554446-.9226451,1.391763-.4308416,2.0452605.6885997.9148965.3250683,1.6182466-.0633893,2.4153268-.4009674.82266-.7906386,1.6512949-1.163599,2.4870248ZM46.8736766,57.6868397c.383603.0380896.7575903.1918482.7101651.6583521-.0337952.3329103-.0054147.856922-.452407.8790475-.51729.0257665-.6483629-.4512867-.6934542-.9101353.071698-.258785-.0560141-.6759965.4356961-.6272643ZM46.3996108,60.695729c.2093993-.6615262.7665526-.8028684,1.0970356-.2197619,1.7369964,3.0654635,3.3480545,6.2097201,2.9226276,9.8898447-.2182682,1.8880477-1.849398,3.5985307-4.1468152,2.5861697-1.2249344-.5397889-1.6145123-1.6783683-1.8654553-2.8688541-.087382-.4145041-.0822473-.8484265-.1005453-1.058666.0188581-1.0741632.1172561-1.9221229.3667055-2.7435693.5661156-1.8645218,1.1385794-3.7273631,1.7264471-5.5851632ZM4.7063759,130.7894991c-1.3219321.680571-1.6621243,2.1660642-.671422,3.2749561.5489379.6145677.4955378,1.1016101.1387282,1.6921851-.8204195,1.3579678-1.6766879,2.6949304-2.4685402,4.069049-.9674564,1.6788351-1.7493195,3.4336627-1.7032012,5.4313112.0539602,2.3321459,1.6776215,4.2014289,3.8306157,4.4463971,2.3953485.2726018,4.1754757-.9626952,4.8489516-3.3515087.5900149-2.0930592.0880355-4.0565392-.7433067-5.9597106-.7443337-1.7037614-1.5608321-3.3761549-2.357819-5.0565771-.1837262-.3876174-.2450616-.6470559.165895-.9973306,1.0100271-.8608429.9687634-2.5426655-.0086822-3.4791274-.2123867-.2035178-.5020728-.3605439-.4515668-.7261291-.2269504.1869003-.2649466.4946043-.5796523.6564849ZM8.1374246,145.1324626c.3433663,2.1533677-.776355,3.673683-2.8227358,3.9168774-2.0428332.242821-4.0824923-1.3655297-4.2095509-3.3231282-.0768326-1.1845109.2396469-2.2988175.6330524-3.395013.7024165-1.956945,1.7291544-3.7682534,2.556669-5.6689042.2399269-.5508984.4357895-1.1210283.6558314-1.6926519.2885658.1405953.3359911.3911649.4203856.6045786,1.2263348,3.0978583,2.2403762,6.2599461,2.7663483,9.5582414ZM6.0510871,132.5586103c.0238993.884929-.366332,1.400912-.9331945,1.4147288-.9350616.2265769-1.1063713-.2821242-1.0802314-.8771804.0305277-.6930808.1415289-1.4742904.9022934-1.7041348.6366933-.192315,1.0896604.3711866,1.1111325,1.1665864ZM5.2860282,130.1330142c.0004668-.0035476-.0012136-.0057881-.0006535-.0093357,0,0,.0136301-.0020538.009429-.0001867-.0035476.0028007-.0053213.0067217-.0087755.0095224ZM73.5149032,71.6173529c.7054039,1.7488527,2.6304209,2.6998783,4.6986471,2.3263578,1.8323137-.3309498,2.9984333-1.7467055,3.0586484-3.6806847.0347287-1.1161738-.1809255-2.1822149-.5298931-3.2348127-.793346-2.3941348-2.0867109-4.540034-3.335638-6.7606185.6365999-.1275254.969697-.5874009,1.2318428-1.1070248.297248-.5890813.3569964-1.1899256-.1485306-1.6957327-.5115952-.5117819-1.2095305-.7274361-1.8574267-.5126221-.6544311.2170545-.7223948.9218983-.7147396,1.5497227.0084021.6862657.264013,1.2462198.9033203,1.5818374.1798052.0943837.3947125.1136152.479107.3717467.8153782,2.4952402,2.168118,4.7853756,2.8187215,7.3429782.2641997,1.0386876.4604357,2.0881113.2109863,3.1685294-.4525004,1.9601191-2.5356637,2.9337371-4.2758342,1.9890597-1.4449764-.7843837-2.3117008-2.5448127-2.0585172-4.1657666.2851116-1.8249385.9679232-3.5245922,1.6309431-5.2317144.3600771-.9269395.7980138-1.8283927.9425301-2.8346855-1.2160655,2.3074064-2.6089488,4.5329388-3.2170749,7.11136-.2995819,1.269839-.3373914,2.5417319.1629076,3.7820702ZM76.6923014,58.2707864c.0082154-.2934204.0374361-.6383737.4556745-.5966432.4943242.1011988.853281.301169.8143513.8398377-.0240861.3321635-.0704844.7386389-.5192505.7122189-.554726-.0325815-.7651522-.4478325-.7507753-.9554134ZM13.6895395,93.6539426c-.2173346-.4108632-.8295684-.6674077-.6097132-1.3167975,4.0185429,4.32522,7.5457491,12.5170914,4.1863984,18.3276179.9972372-2.5745935.388551-5.0847708-.1796185-7.580011-.7464809-3.2785037-1.8180301-6.4451659-3.3970668-9.4308094ZM73.8607901,93.3961845c-.3827628,1.5691409-.7724341,3.1366014-1.1471682,4.7076094-.6906535,2.8957408-.355596,5.6940172.8143513,8.4117267.2790434.6483629.6126072,1.263024,1.0631471,1.808321.6175552.7475078,1.2849628,1.3528332,2.3545515.7137126-1.2403383.9808064-1.8081343.9748316-2.924028.0099892-1.4537519-1.2570492-1.9703884-2.9882574-2.266236-4.7799609-.6380003-3.8626371.5525788-7.4073943,2.1053823-10.871398ZM92.1686163,120.3590253c-.3456068,2.131989-.116696,4.1359858,1.4108078,5.820609.1170694.1291124.3241348.2801637.1945555.457915-.1443296.1977297-.3745474.123231-.5789988.0145637-1.231376-.6538709-1.7065621-1.7829279-1.8652686-3.0691978-.3172264-2.5694589.2742822-5.0281032,1.0105872-7.4584605.4104898-1.3547937.8740062-2.6924098,1.5535503-4.1308512.0803802.7437735-.1331268,1.2563957-.288099,1.7683643-.6546178,2.1616764-1.0764971,4.373112-1.4371344,6.5970574ZM11.1354845,107.1941311c-.2417941,1.9834583.1549723,3.7894454,1.1307374,5.5125316-2.7745637-2.7501043-2.0053972-8.3269587.6644203-11.1385851-.620916,2.0038101-1.5595251,3.6940347-1.7951577,5.6260535ZM48.9815795,99.5648277c-.2804438,1.5822108-.5752645,3.1661021-.0967176,4.9101936-.6746895-.3159194-.6523772-.7824232-.6799175-1.203369-.1509579-2.3124476.3786551-4.5414343.8662576-6.7726615.125845-.5758247.153852-1.190299.5808659-1.8914085.0154972,1.8212042-.3910716,3.3805426-.6704885,4.9572454ZM76.0578487,67.82464c-.3883642,1.150249-.6636734,2.2866812-.0752456,3.4531742.068804.1363943.0969977.2901529-.1502111.5066473-.7923191-.7246354-.8845556-1.6471872-.7618847-2.619218.2079989-1.6484942.8542146-3.1670357,1.4371344-4.7395374.197823.5513652.2299378.7921323.0941036,1.3673969-.1611338.682158-.3200271,1.3685172-.5438966,2.0315371ZM73.8434257,96.5785307c-.2624259,3.2277176-.2613056,6.4410582.533254,9.6111747-1.5092058-3.1310933-1.2087837-6.3608647-.533254-9.6111747ZM62.3530722,131.4177903c-1.2718929-9.4221272-2.5374375-18.8356655-2.3609932-28.3681405.1756975-9.4951322.8980923-18.9525482,1.9500366-28.3942804-.7664592,18.9280888-1.1983277,37.8496426.4109566,56.7624208ZM65.6213067,121.4467252c-.6150345-11.8949618-1.4643946-23.7602361-2.1230267-35.6365265,1.2454729,11.8531379,2.1838953,23.7240137,2.1230267,35.6365265ZM41.5428173,148.5984267c1.386535,3.1737574,3.8893371,3.5578272,6.9634828,2.7609336-2.8383264,1.5293709-6.6638075-.001307-6.9634828-2.7609336ZM108.1934023,166.5655007c.838344-1.496416.6414545-3.1572332,1.4878271-4.4627345-.1667352,1.4495508-.4258937,2.8747356-1.013668,4.2181398-.1055865.2413273-.245435.5702233-.5675159.5048735-.27867-.0565742-.3801488-.3605439-.4498864-.6402409-.2739088-1.099743-.1697226-2.1796943.1316331-3.2564715.3551292-1.268532.944584-2.4274632,1.6347707-3.5515723-.4637032,2.3284116-2.3254242,4.3902897-1.2231606,7.1880059ZM38.1034598,175.5482908c-.3381383,2.2584874-1.4700893,4.3364228-1.5232094,6.6521379-.3123718-1.2179327-.0395833-2.3946016.301169-3.5533461.3121851-1.0617467.6056988-2.1364701,1.2220404-3.0987919ZM36.5881858,182.2387984l-.012043.0192315c.0001867-.0194182.0035476-.0382763.0041077-.0576011.0032675.0127899.0044811.0254864.0079353.0383696ZM36.5920135,182.2350641c.0102692.0048546.0183913.0057881.0284738.0102692-.0165242.0024273-.0273535.0108294-.0443445.0126965,0,0,.012043-.0192315.0158707-.0229658ZM38.321728,177.6051276c.0487322-.3172264.001307-.6673143.3713733-1.0050792-.071698,1.7618293-.1848464,3.4105102-.8644839,4.9606063-.2221892.5069274-.5044067,1.0038655-1.2081302.6846787.5206508-.0771127.7573103-.4503531.9288067-.9040671.4553011-1.2052361.5791855-2.4775024.7724341-3.7361387ZM89.6672146,178.0601486c-.1566527,1.0870464-.3420593,2.170732-.7225815,3.2065256-.0983981.267934-.144703.6916804-.5191571.6478028-.3364579-.0393966-.3740806-.4415776-.4332689-.7330375-.3894845-1.918482.1689758-3.680498.9124692-5.4096524.0585347-.1363943.1158558-.2767095.3510215-.3028494-.3683859,1.9584387-1.4837194,3.8128779-.8069761,6.158934.6333324-1.5202219.8030551-2.8679205.9252591-4.264258.4075024.1987566.325255.4738791.2932337.696535ZM64.2571773,146.611981c-1.1359654.4956312-2.1917373.1986632-3.2222095-.3476607,1.0753768.1030659,2.1262008.4483927,3.2222095.3476607ZM17.7485059,162.228051c.0897159,1.6700596-.1902611,3.261046-1.0024652,4.7366434-.1292992.234699-.288099.5185036-.6159681.4603423-.3884576-.0688973-.3902314-.4265472-.413944-.7246354-.0739386-.9268462.1082939-1.8237249.363718-2.7069734.3106914-1.0750034.6351996-2.1459925,1.0632405-3.1953228-.0217521,2.1345096-1.3311744,4.0707294-.9581207,6.2659209,1.118601-1.4264917.9983575-3.238547,1.5635395-4.835975ZM120.3731957,141.2547951c-.4449385,1.9272575-.6999892,3.7583576-.9829536,5.5851632-.0381829.2466486-.168509.4746259-.444285.5158896-.1649614.0246462-.2687742-.124538-.3393519-.2630794-.0456515-.0898092-.1778447-.2703613.010736-.2694277.8351698.0038276.4867623-.6794507.5420295-1.0181491.1859667-1.1406332.273162-2.297884.5855338-3.4170452.103626-.3711866.1529184-.7772886.6282912-1.1333514ZM120.016386,139.8567772c-.6073793,2.1102368-1.5747423,3.862077-1.8113084,5.8460954-.1773779-1.7798472.5447369-4.183411,1.8113084-5.8460954ZM73.2685346,183.1064564c1.2896307-2.1823083,1.5517765-4.4714167,1.0472764-6.7901193-1.4628075,1.8517319-2.0732675,5.3750171-1.0472764,6.7901193ZM73.3318305,182.4975834c-.5859072-.9227385-.2670004-2.9726668.8037086-4.9230769.3906982,1.7280341-.2262035,3.2882128-.8037086,4.9230769ZM56.9598506,161.5526146c-.0300609-2.1667177.3852835-4.2242079,1.5027642-6.1026399-.6799175,1.9900866-.9443039,4.0806252-1.5027642,6.1026399ZM65.8044727,195.2450794c1.7369964,1.5523367,2.2803329,4.1601652,1.3984847,5.9460805-.1637478.33179-.363718.6309052-.7234218.7897984-.672729.2970613-1.1890854-.0156839-1.1273766-.7446137.104653-1.2360439.3869639-2.4539765.4129171-3.7088785.2770829,1.2735733-.034542,2.5919579.3269355,3.8561955,1.5467353-2.0191206.4639832-3.9687838-.2875389-6.1385822ZM60.1429436,200.5619352c.1294859.2022108.3881775.5114085.0643228.713806-.242821.1517981-.4196388-.1572128-.5818929-.3218942-1.3392965-1.3590881-1.4007252-3.9307876-.1260317-5.290996.1363009.1981965.0339819.4003139.0056014.5930023-.2208822,1.5001502-.2227493,2.9613707.6380003,4.3060818ZM46.1899315,71.6298627c-1.2723597-2.7452497.1888608-5.1728063.9006129-7.8783793.1820457.8867028.1307929,1.1706941-.2724151,2.6823272-.2262969.8487066-.5941226,1.6690327-.6221296,2.5608701-.0276336.8775538-.0060682,1.7566947-.0060682,2.6351821ZM4.2957928,140.3880706c-.9759519,1.6729536-1.344151,3.4954649-1.3036342,5.4104926.0050413.2377797.1598268.5484711-.1769111.5794656-.362131.033235-.2405804-.3424327-.2538371-.5425897-.1215505-1.8406224.3996604-3.5455041,1.1327913-5.2024004.1215505-.2748424.2722284-.4818144.6015911-.2449682ZM4.2974732,140.3889108c.5520187,1.6474672.2922067,3.2019511-.5816128,4.6859506.4189853-1.5362793.5140225-3.1097146.5805859-4.6864174-.0002801-.0001867-.0004668-.0001867-.0006535-.0003734.0001867-.0003734.0004668-.0008402.0007469-.001307v.0001867h0c0-.0001867.0009336.0019605.0009336.0019605Z"/>
  </g>
</svg>