<?xml version="1.0" encoding="UTF-8"?>
<svg id="Layer_2" xmlns="http://www.w3.org/2000/svg" viewBox="0 0 201.1028454 344.5384226">
  <g id="Layer_1-2" data-name="Layer_1">
    <path d="M7.0748504,303.0823306c.0065668.0013134.0105069.0052535.0170737.0067857-.0017512.0043779-.0039401.0070046-.006129.0116014l-.0109447-.0183871ZM200.1620125,325.0535844c-1.9542845,1.0425915-3.9549745,1.4672456-5.9521622.1762096-.9250455-.5980181-2.1854364-.5886056-2.8421181-1.6981787-.266175-.4504836-.6899535-.103099-.9872114.1838709-2.6184085,2.5290998-6.0541668,3.6292604-9.2285657,5.1551696-1.0082252.484631-2.2287774-.2300575-3.2479473-.6678452-1.1277412-.484631-1.7371418-.1904377-2.3408511.8011516-2.0921877,3.4355394-4.1681772,6.8719543-5.4412639,10.7220786-.1864976.5643084-.2403455,1.2150799-.9338013,1.6968653-.2565436-1.3122688.2477879-2.3693073.6790088-3.4129933,1.5186857-3.6778549,3.636265-7.0253989,5.7976232-10.3453623.2215206-.34038.8453681-.7230065.1344008-1.0110708-.5975803-.2416588-1.4573954-.3077648-1.9166348.2523846-.5958291.7267277.4855066.5993314.8081562,1.1299302-4.5354811.8180064-5.604121,4.4407-6.7073461,8.0555135-.3905067,1.2796536-.6054605,2.6350445-1.522188,4.003569-.0595391-1.3645844.4259675-2.3723718.5892623-3.4313804.1689861-1.097315,1.0126031-1.9871186.3913822-3.3823481-.3515436-.7902069,1.2415661-1.6905174,1.8238238-2.8640075-5.5857339,3.2116109-5.4828538,8.5797643-5.6137523,13.8546689-1.3956673-2.8285466-1.6382018-5.7654458-1.7984321-8.7382435-.0599769-1.1108864.1812441-2.7197564-1.8886163-2.4087082-.1720506.0258295-.4071426-.3412556-.606336-.5327877-.3441012-.3309675-.521843-1.0327413-1.1500684-.7810133-.5866356.235092-.6816355.8963704-.6776954,1.4591466.0118203,1.837833.550737,3.5749748,1.1815891,5.2735912.6614973,1.7813583.9320501,3.5902973.5038937,5.5507109-1.7034321-2.9288-2.1123259-6.4179684-3.8372096-9.3375749.5332255.1488478.6676263.8801723,1.3011052.9062206-.3686173-1.9643536-1.3724646-3.0165765-3.2899749-3.3687767.2648616.4312209.4942624.8048728.7236631,1.1785246-1.9954366-1.1054141-4.0933154-1.4930751-6.3803186-1.1831214-.9955293.1350575-1.5594.4360366-1.7340773,1.4306904-.0678571.3845965-.2736173.7429258-.3734329,1.1246767-.3405989,1.3089854-.7888935,1.8144113-2.3067036,1.0500339-2.4923257-1.2551375-5.2442594-.6369812-7.8648569-.3331565-2.5623717.2968201-5.0844669.0696083-7.6271382-.0365553-15.3672256-.6420157-30.6862944.1727073-45.9869763,1.5499875-7.9511011.715783-15.9035155,1.4197457-23.8589945,2.0838697-3.0710811.2563247-6.1137059-.0251728-9.0582663-.9762667-.544608-.1759907-1.7340773-.2718662-.7293544-1.3873494.179493-.1991934.101129-.4489513-.0766129-.6008637-1.4556443-1.2448495-1.1894693-2.3739041.3983869-3.4289725-.6028337-.5165895-1.0555063-.4071426-1.406612.0094124-1.2669577,1.501612-2.3469801,3.0905626-1.7529021,5.214271.1843086.6588706.3502302,1.2908172-.066106,2.1447222-.8825801-1.0638242-.8252299-2.2616115-1.0949072-3.3376938-.1392165-.5564282-.092811-1.1888126-1.0261745-.7004604-.7779488.4064859-1.1386859-.8151608-2.0015656-.6715664.3659906,1.0900915.7258521,2.1633282,1.1141698,3.3217145.470184-.6144351-.2193317-1.0568196.1151382-1.7629713.7499304,1.2286513,1.4630867,2.2705862.7783866,3.8181658-1.8413353-1.3790314-2.7860812-3.4657467-4.7736376-4.8854924.7595617,2.3774064,1.2284324,4.6215064,1.6539621,7.398613-1.5116811-1.9626025-2.0063813-4.1732117-4.1655504-5.164801-.4255297.8567506-.0078802,1.7769805-.2368432,2.6639385-.6523037-.0021889-.4264053-.8035594-.9491238-1.0075685-1.1097919,1.8538122.2688017,3.1938805,1.0918426,4.7322667-.7853912-.0214516-1.014792-.575472-1.3606443-.9362091-.3909445-.4073615-.7521194-.8488704-1.0857136-1.3048264-2.82986-3.8639147-6.4578071-6.7946848-10.6110995-9.1175865-.7967737-.445449-1.6276948-.8081562-2.5269109-.9594119-1.3308748-.2241473-2.1731784.4386633-2.1609203,1.7480865.0109447,1.1395615-.9412437,1.4525797-1.6044921,1.9744227-.6847.5391356-1.3199301.9666353-1.2441928,2.0136047.0564746.7790433-.3261519,1.4287203-1.264331,1.4985475-.7175341.0531912-1.2757135.4288131-1.7660358.9235133-.3686173.3714629-.7867046.7742276-1.3286858.5494236-1.0432482-.4327532-1.7406441-.2429722-2.1022568.8823612-.0464055.1440322-.2705528.3740896-.3244007.3519813-1.8527178-.769412-1.9761739,1.0360247-2.82986,1.813098-.8361746.7613129-1.7021188.2607026-2.4025792-.4095504-1.0261745-.9823957-.9600685-1.9630403.1164515-2.8373024-.3086404-.6507715-.9543773-.3784675-1.3702757-.6577761-.6159674-.4139283-.7867046-.9493427-.5489858-1.613029,1.1837781-3.3011385,3.1608275-5.5787293,7.0273689-5.3979229.150599.0072235.3064514-.0901843.4863822-.1470967.0148848-.8197576-1.0296768-.8898036-1.0835247-1.7375796,1.1540085-.2173616,1.7113123,1.4309093,2.8942148,1.0408404.2311519-.5397923-.2828109-.5662785-.5025803-.7127185-.6649996-.4439168-1.4538931-.8145041-1.3733402-1.7640657.0831797-.9850224,1.0270501-1.1356214,1.7200681-1.4201835,2.2830631-.9375225,4.5503659-2.2127982,7.010733-.3318431,1.0686399.816693,2.14516,1.4847571.7473037,2.8867724-.2486634.2493201-.4198385.6266932-.1519123.907534.1470967.1543202.5467969.1810252.7893313.1122926,1.6250681-.4594582,3.0080396.2418777,4.3800664.9035939,2.3093304,1.1135131,4.3599282,2.621473,6.3080837,4.2776241.7687553.6531793,1.5707824,1.2669577,2.345229,1.8890541.5577416-.5305988.1164515-.8510594-.0591013-1.1183288-3.7010576-5.6426463-8.5162851-10.0956044-14.3681939-13.4503719-.9368658-.5371656-1.7384551-.5060826-2.6963347-.0404954-1.786174.868352-3.7032466,1.3930406-5.6483375,1.7837662-.6308521.1267396-1.2941006.3585482-2.1814964-.1991934,2.2734318-1.080898,4.8261721-.7851723,6.8605718-2.2900677-.6899535-.7039627-1.542764-.6201263-2.330782-.7061516-.8974649-.0980645-1.8054367-.1227995-2.6954592-.263986-1.5274415-.2420966-2.1915655-1.0537551-1.6058055-2.6289154.1926266-.5170273.4890089-1.1912205-.2307141-1.4679023-.6755065-.2596081-1.5191235-.2079492-1.2463817.8764511.2613593,1.037557-.1523501,1.1314624-.9972805,1.0839625-.7853912-.0442166-1.594423-.0374309-2.3623027.1076958-.6050227.1144815-1.2660822.4548615-1.0091008,1.2783402.2613593.8370502.921981.6501148,1.5436396.4439168.849746-.2819353,1.5795382-.9171653,2.5466113-.8576262.3673039.022765.7420502.1383409.7740087.5141817.0367742.429032-.3743085.4883522-.715783.5144006-.2819353.0216705-.5669351.0361175-.8488704.0214516-.9215432-.0477189-1.4394461.2011635-1.0944694,1.2737435.1541013.4789398.1462211,1.0073496.2561058,1.503582.1571658.7068083.4833177.9699188,1.1728334.4555182.8015894-.5977992,1.6228792-1.1890315,2.980459-1.4243424-1.0756445.8863013-1.8929942,1.6125912-2.7655052,2.2651138-.9473727.7085595-2.2195839.1989745-2.1793074-.9974994.0472811-1.4136166-.5704374-1.5265659-1.7069344-1.5359783-.9250455-.0076613-2.0265195-.247569-.87864-1.5766926.2731796-.315645-.0232028-.6385134-.0328341-.9574418-.0455299-1.5421073,1.1899071-2.4796298,2.638109-2.0076946.8296078.270115,1.7121879.7473037,1.6627179-.806405-.0056912-.1792741.1799308-.4172117.3427878-.5411057,1.0449994-.7945848,4.7990293-.0315207,5.3926695,1.1723956.492949.9994694.9464971,1.7793883,2.2756207,1.4416351.3082026-.0781451.7385479.2182372,1.0817735.4005758,6.7130373,3.56206,12.9896003,7.6520921,17.181418,14.2561202.1076958.169205.2994468.2849998.670253.6275687-.5454835-2.4262197-1.0629487-4.5462069-2.0821185-6.5208485-3.2895371-6.3722196-7.5662857-11.932124-13.2763513-16.3408655-1.4919806-1.1520385-3.0399981-1.5598377-4.902785-1.0228911-1.6889851.48682-3.4523942.6829489-5.2136143.4167739-.6680641-.101129-1.3807826-.3598615-1.6040543-1.0909671-.1970045-.6437669.1991934-1.0467505.936428-1.26849.2399077.5413246-.7297922,1.0758634-.0017512,1.586105.6562438.4594582,1.3553909.63326,2.0843075.4415089.7030871-.1847464,1.3623955-.5345388,2.0409665-.8120963.6711286-.2747118,1.2945384-.655806,2.0952522-.2926611.4960135.2250229,1.2415661.3913822,1.4604599-.3119238.2486634-.798306-.3944468-1.1807136-1.0765201-1.4563009-2.0886853-.8433981-4.1677394-1.7115312-6.2472312-2.5779132-.0923732-.0385253-.1519123-.154758-.2950689-.307327.4815665-.5161518,1.1321191-.3458523,1.6907363-.4148039,1.7375796-.2142971,1.8382708-.3970735.9535017-1.9380864-.2801842-.4883522-.559055-.9804257-1.1741467-1.1143887.4088938-1.0073496,1.084838-.600207,1.5795382-.1812441,1.8058745,1.5302871,3.7172558,2.9537539,4.6812644,5.2744668.6107139,1.470529,1.5966119,2.7650674,2.8311734,3.7785461,3.7776705,3.1012884,7.3206867,6.4186251,10.1431043,10.6839911.1440322-.9228566-.3817509-1.3560476-.651866-1.8678214-1.6622801-3.1520718-3.3823481-6.2739362-5.0332457-9.432137-.765253-1.4646189-1.6403907-2.8320489-2.7528094-4.0589491-1.0756445-1.1864048-2.0365886-2.4745952-2.1000678-4.1565758-.041152-1.0929371-1.0414971-1.2170499-1.7113123-1.8579712.5091472-.1667971.921981-.3018547,1.3352526-.4369122,0,0-.051659-.037212-.0534101-.0380875.0148848-.0039401.0315207-.0004378.0468433-.0032834.0013134.0122581.0065668.0225461.0056912.0358986.7836401.4014514,1.2109209.9911515,1.2954139,1.9356785.0945622,1.0561629.4110827,2.089342,1.2227412,3.2205856.2749307-2.6367956-.6155296-5.5561832,2.3911967-6.8588207-2.0059435,1.9225449-2.281312,4.3872899-1.7699759,6.930399.3778108,1.881174,1.8229482,2.881519,3.9851819,3.2890994-1.2577642-1.4420728-1.223179-2.3662428.6527415-2.6534315,1.4819115-.2269929.2232718-1.4304715,1.0283634-2.4864155-.1199538,1.4851949,2.2257129,1.7826717.6750687,3.4215301-.0761751.0803341-.0485944.4040781.0402765.4732486,1.1588242.8985594.8821423,2.501957,1.7507132,3.6918641.0836175-.297039.1501612-.4421656.1619815-.5914512.0538479-.6794466.0652304-1.6843884.8029027-1.6528676.9495616.0404954.4023269,1.0741122.4675573,1.6493653.1764285,1.5554599-.0481567,3.1573252.5354144,4.7070939.5244697-.3613938.3835021-1.1991006,1.2476951-1.2864393.5914512-.059758.2464745-.68273.072235-.9572229-1.0428104-1.643893-1.1785246-3.4970485-1.3602065-5.3541442-.0735483-.7477415-.4986402-1.3807826-.9565662-1.9597569-.1659216-.2101381-.4618661-.7096539-.7232254-.1913132-.2337787.4647117-.3970735.5036748-.6619351.138122-.2184561-.3018547-.6015204-.5936402-.4316587-1.0360247.1435944-.3743085.5358522-.4215896.8698843-.3778108,1.5523954.2033524,2.2528558,1.3560476,2.8232932,2.6234431.1046313.2322464.1103225.5089283.3883177.7433636-1.7458975-24.1032801-1.9989389-48.29959-5.1444438-72.3840452-.4369122-.0923732-.666313.4793776-1.0200455.7792622-1.7296994,1.4674645-3.4418873,2.9570373-5.5712869,3.8380852-3.4121177,1.4120844-7.311931-.1893432-8.819672-3.5493642-.7022115-1.5639967-.5205296-2.7482126.9228566-3.8396174,3.974675-3.0056318,7.9672992-5.9974733,11.7970665-9.1819413,7.491424-6.2292819,14.8895991-12.5712941,22.2943411-18.9043317,1.1561974-.9889625,2.252418-2.0910932,3.1892837-3.2871293,4.4794442-5.7168513,9.8957543-10.4092793,15.7174557-14.6862467,5.9884986-4.399548,11.0261222-9.7202014,15.2849215-15.8107045,4.6598128-6.6640051,10.1903854-12.577642,15.958239-18.2852998.87864-.8696654,1.351013-.7162208,1.9323951.1681105.5288476.8035594,1.179838,1.5434207,1.5996764,2.3984202,3.1026018,6.317715,8.0679904,10.9904425,13.3639088,15.4118799,10.3055236,8.6040615,20.8067383,16.964713,31.310142,25.3231756,3.8148824,3.0362769,7.7974376,5.8565056,11.8754305,8.504027,5.7853651,3.7555622,10.2818831,9.0569529,15.9972021,12.8814667,4.2811264,2.8644452,8.6353633,5.6286371,12.7216742,8.7785199,2.0825563,1.6053677,2.3811276,2.9703899.9648842,5.2361604-1.4394461,2.3025447-3.1446294,4.2966679-6.0926921,4.7182575-.9149764.1308985-1.5782248.014447-2.2896299-.6540549-1.0252989-.9637897-2.2572336-1.7038699-3.3285003-2.6240998s-1.4508286-.4163361-1.8242615.6448614c-1.4950452,4.2498246-2.394699,8.6528749-2.6700675,13.1095541-1.2647688,20.4595726-3.4966107,40.8628896-3.580666,61.3931649-.0302074,7.36753.7648152,14.7122951.4942624,22.0828896-.0179493.4905412-.078364,1.0259556.3848154,1.5677179.957004-1.7787316,1.0055985-3.6942719,1.1465661-5.538015.4316587-5.6422085.637419-11.2957995,2.2992613-16.7834689.4833177-1.5966119.2902533-3.3851938.5958291-5.051195,1.0327413-5.6236025,3.7207581-10.3970212,7.6752948-14.4870533,1.1023496-1.140656,2.3653672-1.9214504,4.0254583-1.8835818.3327187.0074424.6706908-.0906221,1.0025339-.1576036,2.8394913-.5750342,2.9292378-.7737898,1.3348148-3.0045373.5472347-.4714974,1.4801604-.0601958,1.9639158-.9070962-1.2542619-.8587207-2.6967725.0212327-4.1055735-.4231219.4754375-.7162208.9000916-1.3558287,1.3247457-1.9954366-.0901843-.1376842-.1799308-.2751496-.2696773-.4128338-1.5970497,1.027269-3.3114265,1.9137891-4.7574395,3.1216455-1.4114277,1.1791813-1.8071878,3.3464496-3.8148824,4.269525-.0608525-.9574418.4036403-1.5519576.851935-2.0932821,1.9682937-2.3754363,4.2587992-4.3859766,6.9778989-5.870077.5161518-.2814975,1.0406215-.7757599,1.7135012-.3508869.7048383.4447924.5047693,1.0441238.2582948,1.6469575-.2832487.6934558.1641704.7492737.6698153.7779488.507396.0284562,1.0336169.012477,1.5156212.1457833.6273498.1738017,1.4249991.8042161.9499994,1.2754946-1.1194233,1.1106675-.678571,2.8749521-1.8505288,3.8444331-1.2196767,1.0095385-2.6043993,1.5335705-4.2421633,1.2113587-1.2739623-.2504146-2.2121415.3064514-3.1349981,1.2144232-4.6317944,4.558246-7.1031062,10.0883809-7.6179446,16.599817,2.3268419-4.1338108,6.0511023-6.6729798,9.9920676-8.9569184.6299766-.365115,1.3260591-.6262554,2.0111969-.8823612.4329721-.1617626,1.2511974-.109228,1.1548841.2563247-.4439168,1.6857017,3.1008506,1.3512319,1.6390773,3.3394449-.4693085.6382945-.1151382.6958636.2998846.8970271.3913822.1899999.7560594.6129028.5288476.9375225-1.2275568,1.7555289-2.2020724,3.7524977-4.5262875,4.4568982-2.0843075.6317277-3.986933.6391701-6.0213327-1.1763357,1.478847.3554837,2.5663118.6733176,3.6752281.8681331,1.2363126.2171427,2.3250907-.1641704,3.2606432-1.0515662-3.5198135-2.1024757-9.0087963-.5397923-10.519164,2.9441226-1.5887317,3.6636268-4.4483613,17.859989-4.4072093,22.2024057,1.7940542-1.4427295,3.8109424-2.1591692,4.5923935-4.5976469.8317967-2.5949869,1.3505752-5.2532341,2.0961277-7.8591657.3436634-1.2008518.7210364-2.3809087,1.3094232-3.4856661,1.3116121-2.4625561,1.5545843-2.5691574,4.1856887-2.0328674.492949.1006912,1.0121653.0912787,1.5199991.1000345,2.0348375.0354608,2.2861276.2898155,1.8190081,2.2335931-.2193317.9121308.206198.8937437.7722576.6801033,2.6713808-1.0075685,4.7132229-2.8727632,6.5830144-4.9491905.4706218-.5224997.1151382-1.1511629.0963133-1.734734-1.214861.8679142-1.7831095,2.4621183-3.3188689,2.9377747.6925802-2.3196184,5.3996741-7.6882095,7.5570921-8.6036237,1.9437776-.8245732,3.0023484-.2521657,3.3613343,1.8669459.0726728.4281564.2040091.8884902.5660596.9633519,1.594423.3292164,1.5064276,1.8004021,1.9555979,2.8530628.3152072.7396424-.5638706.8771078-1.000345,1.031209-2.1110125.7448959-4.3095826.9799879-6.5020236.5299421-1.1417504-.2344353-1.8619113.0864631-2.6867034.8418658-2.0829941,1.9076601-3.6923019,4.2250896-5.6317016,6.2509524-.0214516-.8403336.9543773-1.3216812.8484327-2.3830976-2.2940078,2.0516923-3.0259889,4.9286145-4.8187297,7.1046385,1.4779714-1.0314279,2.0637314-2.7935236,3.4681545-3.8636958-.9740777,2.3531091-2.6433624,4.1760573-4.4321632,5.9285217-1.3536397,1.326278-1.2752757,1.346854.4106449,1.9396186,1.2349992.4345043,2.215206.3627071,3.244445-.5220619.6606217-.5682485,1.4639622-1.0596652,2.3964501-1.1789624-.6566816.9841469-2.0291462,1.1229256-2.7873946,2.5067726,1.8579712-.8867391,3.4720946-1.6128101,5.0398126-2.4275331.5984559-.3112671,1.7761049-.7256332,1.4525797-1.301543-.5669351-1.0088819-1.2472573.3519813-1.9534089.3771541-.1020045.0037212-.2009446.0934677-.301198.1433755.8957137-1.5112433,2.7243532-2.0057246,3.731265-3.3521408,1.493294-1.9967499,3.6402051-2.3196184,5.8492821-2.5194685,1.8176947-.1643893,2.2848143.2878454,2.5002058,2.1552291.0245161.2132026.0696083.544608.2040091.6058982,1.2336859.5649651.9031561,1.4843194.5174651,2.3962312.5275342.2348731,1.3269347-.3817509,1.4622111.4800343.0888709.5647462-.4828799.839458-.9316123,1.0789279ZM191.9692526,308.6840438c-.1873732,1.2205522.3138938,1.6266004,1.2748379,1.1625454.9408059-.453767,1.7791694-.5557715,2.7068416-.006129.3756219.2223962,1.2490084.183652,1.194285-.0601958-.2324653-1.0307713,1.392165-1.0248611,1.0025339-1.9302062-.3607371-.8377069-1.2157366-1.1067274-2.0405287-1.3477296-.3541703-.1035368-.6925802-.2611404-1.0187321-.3867855.0735483-.4955757.4798154-.5481103.7061516-.7810133.2158294-.2219584.6365434-.3736518.3905067-.7906447-.1956911-.3318431-.5647462-.3471657-.9053451-.2992279-1.823386.2576381-4.9181076,3.1584197-5.288476,4.9450315-.0013134.0008756-.0026267.0021889-.0039401.0030645.8690087,1.2030407,1.3729024.2968201,1.9818651-.5087094ZM167.776226,319.3402354c.9758289-2.4012658,1.2332481-4.9912181,1.8899297-7.4798226.655806-2.4844455,1.5143078-4.8657919,3.3131777-6.785929.2644238-.2821542.808594-.7586862.8659442-.7114051,1.2827181,1.0572574,2.4240308-.0317396,3.5705969-.2580759,1.3356904-.2637671,2.5571182-.7448959,3.8700437.2002879.3638016.262016,1.8999988.9414626,1.2708978-.8838935-.1400921-.406267.2823731-.3953223.5060826-.4925112.4242163-.1838709,1.049815.0299885,1.2652066-.6590895-.8217276-.5233753-1.7721648.0177304-2.7922103-.2561058,1.0309901-.5003914,2.374123-.218675,2.3526714-1.7342962q-2.0164504-.2793086-1.1750223-2.1506323c-2.1293996,1.8516233-5.0560107,1.9899642-7.2935439,3.6069333-.1829953.131993-.3388477.3005413-.5126495.4456679-5.3637755,4.4794442-6.6508715,10.6550971-7.1311246,17.1588719ZM13.420146,309.4484212c-1.1259901-2.2117037-2.3728096-3.7141913-4.0504122-4.8760799.8493082,1.829515,1.9157592,3.4819449,4.0504122,4.8760799ZM13.162289,322.2990239c-1.3251835-.8582829-2.6459892-.8709787-3.0518184-2.1808397-.1768663-.5695619-.5848844-1.0217966-1.2441928-.9434326-.6431102.076394-.9110363.6201263-1.0555063,1.1791813-.1935022.7479604.2679261,1.2115776.864193,1.4584899,1.2976029.5376034,2.6573716.6698153,4.4873244.4866011ZM13.3430954,330.1163808c.6610595-.5798499,1.3173033-.7008982,1.9341463-.9278911.3068892-.1127303.6527415-.3149883.6553683-.6980526.0039401-.4890089-.4342854-.6113706-.7980871-.7372346-1.4644-.5065204-1.9043767.00197-1.7914275,2.3631783ZM16.3603285,333.3864364c-.2307141-.7422691-.9390547-.8895847-1.643893-.9679487-1.4236858-.1582603-2.6788232.2335598-3.8153202,1.0815546-1.2192389.9097229-2.4896989,1.5318193-4.0845597.944746-.5826955-.214516-1.2336859-.1755529-1.7314505.4561748.4461057.2727418,1.5742847.2766819.1790552,1.3685245.7241009-.1490667,1.0441238-.2234906,1.3667734-.2793086.4714974-.0814285,1.0445616-.0363364,1.1097919.457926.072235.5500803-.5454835.6533982-.9793312.6862323-.5599305.0422465-1.1277412-.0295507-1.6924874-.0418087-.6772576-.014447-1.528317-.1383409-1.8242615.5555527-.270115.6336978.4513592,1.080898.8834557,1.5075221,1.3733402,1.3549531,1.4416351,1.8879597-.3086404,2.7085928-1.0852758.5089283-.4693085.7584673-.1488478,1.0806791.8068428.8112207,1.4333171.365115,1.8886163-.4257486.4763131-.8287322.8633174-1.7089045,1.3361282-2.5398256.1265207-.2223962.4364744-.4233408.721912-.2342164.3344698.2215206.0963133.4754375-.0345852.7223498-.1142626.214516-.4386633.3659906-.1970045.8024649,1.0979717-.1829953,1.8303906-.9852413,2.6740076-1.6114967.3686173-.2733984.6492392-.756935,1.2980407-.5616817,1.4635244.4404145,1.9844919-.0126958,2.2243996-1.8857707-.9880869.107258-1.5178101,1.1857481-2.6722564,1.152914.1576036-1.2371882.9504372-1.7623146,1.8238238-2.1961622.8593774-.4266242,1.7638468-.7680986,2.5987081-1.2356559.5717508-.3204606,1.2879716-.7083406,1.0279256-1.5456096ZM17.5327241,330.7529242c-.0547235-.7939281-.8370502-.8996538-1.4385705-.7676608-1.0336169.2269929-2.0335241.6087439-3.2194911.9793312.0210138-.3891933.0774884-.6678452.0429032-.9348957-.1374654-1.0638242-.9657598-1.1115431-1.7704137-1.1338703-.6628107-.0179493-1.3987319.1886865-1.4398839.8856446-.0512212.8760133.7643774,1.1881559,1.5038009,1.2976029,1.6675335.2466934,3.3438228.4410712,5.0201121.6190319.6820733.0726728,1.3549531-.1683294,1.301543-.9451837ZM34.6712389,224.0270568c2.4249063-1.4698724,4.8095362-3.0478783,6.7401802-5.1396282,7.0015395-7.5859861,14.6501292-14.4923067,22.1034656-21.6151134,7.4288203-7.0991661,14.5796454-14.5717652,20.5874067-23.0190987,2.9861502-4.1988223,6.1973234-8.2426677,9.6221369-12.1015478,1.7616579-1.9853674,2.3618649-1.9328329,3.7877396.2628915,4.0079468,6.1717128,8.9260544,11.56088,14.2451756,16.6006925,6.7493737,6.3949845,14.0630558,12.1534257,20.9485816,18.3864288,14.1878254,12.8431603,29.9932764,23.6052965,44.9835667,35.4133077.2998846.2359676.5612439.5936402,1.0051607.5494236.4115205-.041152,3.1126709-3.2991685,3.1424405-3.8422442-.0884331-.5791932-.7096539-.7418313-1.1439394-1.0412782-6.3855721-4.4028314-13.0110519-8.4873911-18.6418779-13.8958209-2.4143994-2.3189617-4.8642597-4.5877967-7.5837972-6.546678-12.92831-9.3137155-25.1706066-19.4896539-37.3235945-29.7739448-4.0215183-3.403362-7.9581057-6.9113552-11.8504766-10.4622516-3.8542833-3.5160923-6.7449958-7.7685436-9.0070451-12.4535292-.5726264-1.1857481-1.0708288-1.5379484-2.09963-.2832487-3.017671,3.6785116-6.3973924,7.0845002-9.1799713,10.9267444-6.6154107,9.1346603-13.8551067,17.6561988-22.8730965,24.5001347-4.4041448,3.3425095-8.4269764,7.0157676-11.919647,11.3036797-3.1980395,3.9265183-6.9564473,7.2880715-10.9516983,10.3922056-1.9678559,1.5287548-3.937463,3.0616686-5.8243282,4.6878312-6.2214017,5.3618055-12.3224118,10.8672053-19.1094352,15.5357738-.97364.6698153-1.8282016,1.5186857-2.7042149,2.3215884-.3208984.2941934-.6943314.6170618-.6619351,1.1316813.1195161,1.9240772,3.580666,3.7671636,5.2464484,2.7952748,2.072925-1.2098264,3.8621635-2.7843301,5.5353883-4.4776931,3.8849285-3.9317718,8.2032668-7.2917927,12.9269966-10.1555813ZM31.5012178,329.270356c-.0262673-2.0236739-.6847-3.8676359-1.4311282-5.6958375-1.3190545-3.2308736-2.6788232-6.4481757-3.8853663-9.7212959-.9316123-2.5275676-2.3036391-3.6620945-5.2906649-3.8628202,3.0500672,6.7294544,7.0816546,12.851916,10.6071594,19.2799536ZM37.7755918,338.7650967c-.0258295-1.835644-.7201608-3.2658966-1.8492155-4.7607229-.4132716,2.0974411-.1256451,3.6866106,1.8492155,4.7607229ZM145.1228989,330.7748136c-2.0567268-.0636981-4.0841219.0142281-6.1119548-.276463-4.0293984-.5776609-8.0758706-1.2789969-12.1678727-.6759443-8.1857553,1.2063241-16.4069715,1.9873375-24.6772198,2.2701484-9.4584043.3235251-18.9006105-.7243198-28.3633927-.2648616-6.0524156.2937556-12.1131492.3922578-18.1751962.268145-1.4140544-.0291129-3.0259889-1.0806791-4.102509-.3550459-1.1496306.7751032-.6575572,2.7482126-1.2919116,4.0589491-.6181563,1.2770269.022765,1.3181789,1.0445616,1.3974185,5.5712869.4312209,11.0860992-.14447,16.5960958-.8300456,12.4248541-1.5458285,24.9013671-2.3879133,37.4054608-2.9760811,12.455937-.5859789,24.9145008.420714,37.3691244-.2377187,1.7358284-.0917165,2.4542381-.6466125,2.4748141-2.3785008ZM94.1981147,210.6686203c-4.795527,3.8391797-8.8962848,8.0811241-12.2129648,13.0662131-.3441012.5172462-.4688707.957004.0035023,1.5116811,3.2847215,3.8560345,5.6128767,8.2917,7.7996265,12.8508216.0713594-8.6410546,1.7892385-16.9119596,4.3209651-25.0499961.2101381-.6755065.5861978-1.4420728.0888709-2.3787197ZM93.3453041,221.1569203c-1.1658288,5.0266789-1.9547223,10.1065491-2.1123259,15.2728823-.0656682,2.1499756.0560368,2.252418,2.1167038,2.0098836.7297922-.0860253,1.4762203-.2416588,2.19463-.1676727,1.4118655.1455644,1.8391463-.3254952,1.699492-1.773916-.7289166-7.5557788-.8782022-15.1426404-1.058133-22.7264376-.0188249-.783859.041152-1.5869806-.5069582-2.5930168-.8173497,3.493984-1.5808516,6.7349267-2.3334087,9.9782773ZM81.2671779,226.7262371c-.6938936-.8965893-.9605063-.5345388-1.3926028.1751151-1.5029253,2.4673718-2.8018416,5.0376236-4.0377164,7.645963-.3462901.7306678-.2718662,1.1973495.3064514,1.7712892,1.6916119,1.6780404,3.4235002,3.3061731,5.4058031,4.63267.622972.4169928,1.2367504,1.2599531,2.0768651.8749188,1.5869806-.7271655,3.0947216-1.6279137,4.6287299-2.4693418.0696083-.0380875.0704838-.2013824.107258-.3178339-.066106-.1475345-.1344008-.3022924-.2053225-.455737-1.9183859-4.1718984-4.0648592-8.2061125-6.8894658-11.8570434ZM74.648265,237.1933044c-2.8088462,6.6920235-3.9764261,13.5204179-4.7499971,20.4376833,1.2332481-2.0783973,2.4411045-4.1071058,3.896311-5.9852152,2.1202061-2.7368301,4.4260341-5.2871626,7.0842813-7.5150645.3497924-.2930989,1.2078564-.6113706.2911289-1.2349992-2.3723718-1.6139045-4.5192829-3.4966107-6.5217241-5.7024043ZM68.6755267,268.5253358c-.678571,6.3917011-.2902533,12.7908447-.1392165,19.1860481.0985022,4.1830619-.0310829,8.3801331.5065204,12.8177686.3913822-.2974768.5524881-.4469813.7381101-.5555527.362926-.212546.7236631-.7501493,1.1588242-.3557025.3576726.3241818.1777418.8576262-.0328341,1.2700223-.1532257.2996657-.3086404.6527415-.5669351.8350801-1.249884.8823612-1.2976029,2.1464733-1.2314969,3.4841338.0450921.9044695.0836175,1.8170381.0157604,2.7175674-.107258,1.4212779.5069582,1.7984321,1.8798606,1.7947109,1.6758515-.004159,1.099285-1.1146076,1.0712666-1.8647569-.4574882-12.2851998-.713594-24.5552959-.0731106-36.8580072.6010826-11.5449007,6.0734294-19.9132135,15.4442762-26.0404909,5.7893052-3.7855507,12.3889555-3.7111267,16.8504504.4189629,4.7863335,4.4310687,9.0915382,9.3522408,11.5103155,15.5788959,2.0444688,5.2615521,2.3561737,10.8107307,2.5045837,16.3677895.2644238,9.9097635.759124,19.8072689,1.3987319,29.6995209.0901843,1.3917273.5800688,1.6528676,1.8719804,1.4760014,1.3667734-.1873732,1.0572574-1.1080408,1.0533173-1.8844574-.0569124-12.1827575-.8151608-24.3418744-1.3444462-36.5069015-.4220274-9.7140724-4.5324166-17.6977886-11.9498544-24.0667248-8.8039116-7.5592811-18.2623159-7.792403-27.2032551-.4388822-2.3723718,1.9510011-4.3721862,4.2704006-6.4429223,6.5215052-4.2741218,4.6460225-6.3628071,10.2107426-7.0199265,16.4034692ZM114.7728255,238.0281657c-.8598151,2.0516923-2.3859432,3.5445485-4.0263339,4.9014716-.8655064.7155641-.921981,1.1041007-.0652304,1.9100679,2.3916345,2.2493535,4.5779465,4.6970248,6.4205951,7.4305715.6776954,1.0055985,1.3405061,2.021266,2.264676,3.4160578-.1672349-1.3238702-.2946312-2.1580747-.3756219-2.9966571-.7661286-7.9412509-2.7987771-15.5445296-6.0690516-22.8192486-.6737553-1.4985475-1.4495152-2.937118-2.4761275-4.2309997-.5052071-.6365434-.8760133-.9642275-1.4394461.0299885-2.3684317,4.1773707-4.787209,8.326723-7.225249,12.4640361-.4763131.8081562-.4872578,1.2242734.4986402,1.6040543,2.006819.7731332,3.9287073,1.7688814,5.6540288,3.0487539.9999072.7418313,1.4937318.4550804,2.1731784-.3756219,1.3540775-1.6554944,2.8040305-3.2339381,4.6659418-4.3824743ZM108.1232674,222.6972765c-1.7712892-1.9823029-3.531196-3.9755505-5.3305036-5.9322429-1.5164968-1.6489276-3.0820258-3.2529819-4.6256654-4.8767366-.1685483.1186405-.3366588.237281-.5052071.3561403.4780642,8.2463889.4938246,16.5045981.7258521,24.757335.0161981.5689052-.1641704,1.3862549.6667507,1.5458285.7726954.14841,1.006474-.6218775,1.3142388-1.1229256,2.6915191-4.3820365,5.088407-8.9457549,8.0736817-13.144796.5314743-.7473037.0888709-1.1259901-.3191473-1.5826027ZM93.755949,246.1014095c.5174651,1.532476.7402991,2.9843991.7915202,4.4507691.2438478,6.9603874.4684329,13.9216504.6768199,20.8833512.3616127,12.0595202.7197231,24.1190404,1.0371192,36.179874.0310829,1.1835592.2582948,1.683075,1.614999,1.629446,6.2818164-.2482257,12.5675729-.4128338,18.8537672-.5209674,1.165391-.0201382,1.2700223-.5041126,1.2227412-1.4337549-.2399077-4.7515293-.3620505-9.5100633-.6763821-14.2563391-.5122117-7.7427141-.0135714-15.5281125-.9950916-23.2467483-.4714974-3.7078433-.9561284-7.4496152-2.867072-10.7507537-2.5120261-4.3400088-5.8786139-8.0327485-9.3008007-11.6587255-.6461747-.6844811-1.507741-1.1947228-2.3334087-1.6754137-5.1137987-2.9756433-9.9666759-1.7417386-14.5415579,1.1953794-4.0574169,2.6048371-7.1346269,6.2614593-9.8502243,10.2041757-1.2949762,1.8798606-2.1561047,3.9770828-2.6166574,6.2196505-1.0879026,5.2985451-1.1583864,10.6872745-1.3212434,16.0595869-.2898155,9.5781393.5905757,19.1337324.637419,28.7057427.0052535,1.1235823.43735,1.2680522,1.4079254,1.2538241,5.6636601-.0823041,11.3299469-.2007257,16.9909803-.0869009,1.8470265.037212,2.0825563-.5505181,2.0291462-2.1808397-.4014514-12.2276307-.6733176-24.4598582-1.0590086-36.6881456-.241221-7.6435552.2210828-15.2906127-.1935022-22.9313223-.0232028-.4301265-.1203916-.9189165.4925112-1.3518886ZM64.984976,316.8288659c21.5741803,1.0710477,42.78631-1.3405061,64.3683705-1.6250681-.7950226-.6433291-1.4591466-1.1435016-2.0816807-1.6916119-2.4967035-2.1990079-5.2858493-3.0078207-8.7075983-2.9312079-8.7167919.1950344-17.4274547.7908636-26.157818.4848499-7.3093043-.2563247-14.6024104.4200573-21.9029588.6757254-.5419812.0188249-1.2853448-.1479723-1.5357594.4679951-.785829,1.932614-2.3693073,3.2000095-3.9825551,4.6193174ZM127.689753,310.7495264c1.2525107.7407369,2.3189617,1.7914275,3.4992375,2.6613117,1.6176257,1.1925338,3.081588,2.6085583,5.1729,3.6647212.1186405-2.58448-.8795156-4.459306-2.2734318-6.1014479-1.0161054-1.1973495-2.2659894-2.1972567-3.4195601-3.2768413-1.8741694-1.7537777-3.7544677-3.5009886-5.6325772-5.2508263-.2622349,3.2339381-.6396079,6.3555836,2.6534315,8.3030824ZM60.1211541,321.8881601c-.2455989.4071426-.7416124.6632484-1.12205.9891814.0595391.1556335.1190783.311486.1786174.4673384,1.0060362,0,2.0125103.0133525,3.0185465-.0021889,4.4720019-.0698271,8.9453171-.2462556,13.4160056-.2002879,7.2033596.0739861,14.3808898-.3141127,21.5212079-1.167361,9.0241189-1.0784901,18.0381686-1.4363816,27.1030017-.5951724,3.5185001.3263708,7.0658943.3410367,10.9013527.5108983-.457926-.9572229-.7499304-1.6147801-1.0817735-2.2517613-1.0471883-2.0096647-2.48751-3.1485695-4.9833379-2.9870258-5.0827158.3287786-10.1855698.3401611-15.2722256.6194697-15.0397603.8256677-30.0803962,1.815068-45.1472994,1.1531329-3.5736614-.1571658-6.5374844.1611059-8.5320454,3.4637767ZM59.5918687,319.6797398c.0945622-.1985367-.2863132-.4855066-.5647462-.4690896-.9626953.0566935-1.1259901.9068773-1.4670267,1.5694691-.0153226.0293318.0367742.092811.1129492.2688017.6908291-.4088938,1.5383861-.5704374,1.9188237-1.3691812ZM57.2492665,324.6593565c-.5450457-.0242972-1.1360592-.2324653-1.5734092.323744-1.3869116,1.7649413-2.7795144,3.5252858-4.1143293,5.2175544,3.743523,0,7.3044886.0409332,10.863703-.0080991,8.8284277-.1212672,17.6577311-1.0051607,26.4817809-.3907256,9.8690492.6871079,19.6960708.3257141,29.501203-.6936747,6.4236596-.6680641,12.8070428-1.5685935,19.2661632-.4279375,2.2563581.3983869,4.5490525.5376034,6.9314934.48879-.2709906-1.0252989-1.0309901-1.1734901-1.6832939-1.4468885-.7284788-.3051381-1.6215658-.4189629-2.1709894-.9167275-3.2615187-2.9541917-7.1836592-2.9962194-11.2892327-3.1698022-9.5551554-.4038592-19.0730988-1.2415661-28.645328-.0039401-14.4745763,1.8713237-29.0209499,1.6776027-43.5677612,1.0277067ZM150.3645317,330.5198022c-1.2866582-.5623384-2.2112659-1.6670957-3.229998-1.3790314-.672442.1902188-.7499304,1.5725336-.9097229,2.7563117,1.2179255-1.1192044,2.6188463-.7731332,4.139721-1.3772803ZM161.1297324,327.5947234c-.0065668-.4007947-.1501612-.8048728-.5678107-.9587552-.3913822-.1442511-.8532483-.1006912-1.0629487.2731796-.4583638.8164742-1.3146766,1.5826027-.2394699,2.6269454.6269121.6087439,1.0428104,1.4346305,1.5541465,2.1628904.1081336-.0271428.2162671-.0540668.3244007-.0809907,0-1.3411628.0135714-2.6825444-.008318-4.0232694ZM162.1265751,332.7811948c.0713594,2.7685697.2307141,5.3563331.9320501,7.8909053.1374654-1.7001487-.1050691-3.4615877.620783-5.0308379.7188475-1.5545843.0731106-2.2629249-1.5528331-2.8600674ZM164.2489701,253.2428222c.6882023-7.0343735,1.2433172-14.1241272,4.044721-20.7485126.5030181-1.1896882.1790552-1.7973376-.7932714-2.5004247-13.8266505-9.9981966-27.1800524-20.5779942-39.8592611-32.0171692-7.9922531-7.210802-16.2852665-14.089542-23.4098243-22.2115992-2.9524406-3.3652744-5.6032454-6.9566662-8.1537968-10.8766177-1.6333861,2.0184204-3.2488229,3.8348018-4.6659418,5.7943397-8.0557324,11.1381959-17.0544595,21.455102-27.0614119,30.866663-6.7699497,6.3669661-13.6029409,12.6579761-19.9228449,19.4863705-2.1569802,2.3303442-4.6405501,4.3443867-7.4761014,5.830895-3.6958042,1.9372108-6.847876,4.6109995-10.0656159,7.2055486-.4754375.3835021-.7525571.7050572-.5988936,1.4068309,2.4187773,11.0350969,3.2654588,22.2809886,4.3266563,33.4892305.8221654,8.6822066,1.293225,17.3972473,1.9665426,26.0943388.7127185,9.2036118,1.4775337,18.4030647,2.2252751,27.6040498.2477879,3.0470027.4872578,6.0953188.7884557,9.137287.0814285.8228221.1882487,1.7787316,1.2997918,1.9339274,1.0371192.1451266,2.0602291.1416243,2.8394913-.7540894-.4592393-.5502992-1.12205.1151382-1.4381328-.4776264.1545391-.8344234.9985939-.1991934,1.4031097-.7166585-1.5966119-1.5068654-1.9897453-3.4782237-2.0497222-5.5609989-.0175115-.6096194.1602303-1.198444.8317967-1.2951951.6882023-.0993778.6045849.5080527.6164052.942557.0315207,1.1649532.8388013,1.7997454,1.6395151,2.442199.5818199.4669006,1.3313125.7632829,1.7318883,1.6217847-.855875-.1006912-1.3361282-.6023959-1.907879-.9228566-.6142162-.3441012-.8720732-1.1741467-1.6938008-1.2757135.092811,2.2513235,1.6036165,3.8494677,3.8634769,4.1401587-.1689861.6422346-.4242163,1.2783402-.4798154,1.9315195-.0442166.5205296.2587326,1.0579141.8637552,1.0662321.5341011.0074424.7289166-.4739052.759124-.9596307.0214516-.3370966.028894-.6860134-.0319585-1.0158865-.7998382-4.329283-1.359331-8.7159163-3.2715878-12.7687364-.4088938-.8670386-.785829-1.8244804-.5949536-2.8854591.6562438.0958755.414585.8145041.851935.9707943.2666127,2.3347221.6720042,2.7418647,2.064607,1.8951832.4447924,1.8098146.3865666,3.6307927.5932024,5.4165289.0884331.7645963.1646082.87864.4123961.7087784,1.1395615-.7812322.8195387.2786519.8611285.6956447.2123271,2.1153904.3743085,4.2358154.562995,6.4654684.6378567-.7083406-.1996312-2.7280744,1.8553445-1.815068.1716128.0761751.6562438-.3887555.9057829-.6794466,1.1496306-1.3396305,1.4626489-2.8635697,1.0712666-4.5998359-.2762441-1.2258057-.6461747-2.5052404.2399077-4.0913454.2547925,1.5158401.8799534,1.2308403,1.5677179.7348267.4128338-.2974768.8729488-.5327877,1.2687089-.849746,4.6834533-3.7533733,9.1834736-7.7422763,14.2189083-11.0418826.3454145-.2263363.6361056-.4778453.6361056-.9316123.0008756-2.0536623.0004378-4.1071058.0004378-6.4742241-3.6406429,2.0333052-7.0172998,3.65706-9.8716759,6.2218395,1.8781094,1.4659323,2.0970033,2.2027291.7827645,3.3315648-2.2445378,1.9273606-4.8323012,3.3409772-7.5956174,4.4030503-.6523037.2504146-1.4271881.3038247-1.7993076-.4421656-.4053915-.8120963.2893777-1.2866582.8501838-1.621128,1.6508976-.9850224,3.3376938-1.9111624,5.0301812-2.8232932.7092162-.3817509,1.3370038-.6096194.4386633-1.5270037-.5870734-.5993314-.0547235-1.2763702.3878799-1.8056556,1.1036629-1.3192734,2.4594916-2.3480746,3.9348363-3.2026363,2.0072568-1.1627643,4.0149514-2.3362543,6.0957566-3.3567376,1.2818425-.6288821,1.7612201-1.3877872,1.7091234-2.8725443-.2683639-7.6437741-.5800688-15.2901749-.4032025-22.9418292.1129492-4.8736721.365115-9.7331161,1.637764-14.4807054.1724884-.6417968.2924422-1.3838471.1440322-2.0107591-.6431102-2.7223831-.1659216-5.4220013.1357142-8.1006056,1.0441238-9.273439,4.4886378-17.7192402,9.1410082-25.7222192,3.7426475-6.4378877,8.3262852-12.1545202,14.4947146-16.4365221,3.0561963-2.1217383,2.1377176-2.460586,5.6111256.103099,14.7455669,10.8834034,21.8364151,25.8839817,23.2347092,43.8422541.2771196,3.5552743-.1698616,7.1466661,1.0524417,10.6410879.8037783,2.2986046.9009672,4.7751699,1.0244233,7.2118965.4329721,8.5436468.8852068,17.0861991,1.2831559,25.6313782.0542857,1.1680177.2880643,1.9980633,1.4578332,2.5682818,1.388225.6768199,2.4411045,1.8341118,3.2943528,3.1284313,1.3785936,2.091531,3.0386848,3.9446865,4.737739,5.7728881.5599305.6028337,1.1513818.9946538,1.9818651,1.1833403,1.829515.4156795,3.5508964,1.1128565,5.0660798,2.2848143.6601839.5104605.7972115.9907137.4303454,1.7251026-.3694929.7402991-.8974649.9648842-1.6631557.7243198-.3677417-.1151382-.7372346-.2241473-1.1132942-.338191-.6181563,2.5744109-.2679261,4.7681653,1.9963121,6.3402611.4973269.3454145.985898.979769,1.6303216.6685019.5209674-.2512902.206198-.9278911.1882487-1.3991696-.0560368-1.4805982,1.6206902-.4504836,1.9210126-1.3718079.6137784.3307486.6334789.9173842.5314743,1.4698724-.1641704.8865202-.455737,1.7491809-.6277876,2.6346067-.0985022.5052071-.0612903,1.0960016.3835021,1.4114277.5384789.3817509.7626263-.2642049,1.07258-.5216241.6737553-.5605872,1.2525107-.4728108,1.7126257.2258985.464055.7048383,1.0874648,1.9630403.3646772,2.2184894-1.3089854.4627417-.5187785.721912-.1177649,1.035368,2.4621183,1.9232016,5.4522086,2.3767497,8.3954557,2.9342724.6628107.1254262.9062206-.4774075.6023959-.8269811-.808594-.9296423-2.0304596-1.5272226-1.7463353-3.1441916.0376497-.2138593-1.1969117-.6746309-1.8597224-.9837091-1.4328793-.6678452-1.5904829-1.3897572-.3493546-2.2964156.744677-.5441702,1.1351836-.9979372.6540549-1.9218882-.1720506-.330092-.5524881-.9386169.1234561-1.1367159.5783176-.1696428.6803222.4143661.8182253.8499649.0626036.1987556-.0547235.5923268.455737.4960135,0-.7376724-.0236405-1.4722802.0096313-2.2042613.0179493-.3870044.1041935-.9340202.5043315-.9659787.5638706-.045311.7324189.5566471.6947692.979769-.1190783,1.3394116.657995,1.639734,1.7480865,1.701681.2652994.0151037.5227186.1694239.950875.317615-.8948382.7595617-1.70781,1.4882595-.6667507,2.551427.7254143.7411747,1.736704,1.1478795,2.6284776.8867391.9933404-.29091.301198-1.3731213.4316587-2.0937199.0096313-.0538479-.0074424-.1127303-.0118203-.169205-.7442392-8.9435659-.5962669-17.8956687-.0591013-26.8359512.8493082-14.1350719,1.8960587-28.2585425,3.2746524-42.3524624ZM156.7741821,323.3700716c-.8746999-.8775455-1.7537777-.2880643-2.9095374.4285942,1.1772113.5724075,1.8413353,1.4138355,2.7261043,2.1070724.4982025-.8939626.965322-1.7509321.1834331-2.5356666ZM177.7196991,325.4469367c1.400483-2.2456323,2.8005282-4.4917023,4.1769329-6.7522193.2241473-.3683984.5078338-.9278911-.1203916-1.1283979-1.3037319-.4167739-2.6468647-.7105295-3.9737994-1.0548496.3029491-1.1104486.0188249-2.0746761-.6698153-2.9889959-1.899561,2.138812-3.6564033,6.9249266-3.207233,8.6182896,1.1259901-1.8908053,1.6999298-4.1740873,3.751841-5.4427962-.286751.482661-.5608061.9732022-.8628797,1.4462318-1.3107365,2.0549757-2.357487,4.2331886-3.0045373,6.5849844-.1015668.3694929-.4728108.8401147.0284562,1.2225223.19394.14841,3.7592834-.309297,3.8814262-.5047693ZM181.6562866,327.9112439c-1.6009898-.5625573-2.6976481-1.1194233-4.2237762-.8396769,1.2271191,1.037557,2.4143994,1.1951606,4.2237762.8396769ZM198.7650318,322.8955097q-2.3399755.7068083-3.2991685-.3999191c1.0344924.1845275,2.1736162.9769234,2.7129707-.412615.4474191-1.152914-1.1588242-.5759098-1.2927872-1.4114277.4158984-.284562.8646308-.5914512,1.313801-.8985594-.0306451-.1637326-.0612903-.3272463-.0914976-.490979-2.0860586.3473846-4.2115181.550737-6.2411021,1.1047574-.9675109.2642049.1764285.7131562.3160828,1.0692966-.6680641.577442-1.7178791.2280874-2.3714962,1.2352181,2.3517958-.8442737,4.1283385.4739052,6.0292129,1.0977528,1.5629023.5128683,2.4130861.3537325,2.9239844-.8935248ZM40.8212812,318.1851324c.0017512.0131336.0035023.0223272.0048157.0352419.0170737.0059101.0280184.0168548.0468433.0212327l-.051659-.0564746ZM60.8023518,106.7625438c-.4968891-1.3205867-.5200918-2.6514615.136152-3.9481888,1.0546307-2.0827752,2.3364732-4.0239261,3.8717948-5.771137,6.2835676-7.1514818,10.8939103-15.2849215,14.2035857-24.1713561,3.5119333-9.4297292,7.602622-18.6528226,10.1654315-28.4238074,1.3321881-5.0787757,1.6574644-10.2788185,1.8689159-15.4841149.1654838-4.0749284.1081336-8.1586125.2302764-12.2359487.0367742-1.229308-.3016358-1.5806327-1.544953-1.3781558-1.2761513.2077303-2.5965191.202039-3.896311.1908755-1.7844229-.0155415-3.4313804-2.9666687-2.5715652-4.541829.2933178-.5376034.8541239-.5376034,1.3444462-.5395734,1.6981787-.0072235,3.4037997-.0437788,5.0932227.0930299,1.0414971.0842741,1.4390083-.1387787,1.3803448-1.2367504-.1120737-2.0921877-.1190783-4.1898476-.1707372-6.2850998-.028894-1.1763357,1.5554599-3.1820603,2.3890077-3.0213921.9556907.1840897,2.5606205,2.2252751,2.5290998,3.3002629-.0538479,1.8117846-.1186405,3.6253203-.2591703,5.4318515-.0836175,1.078709.1676727,1.516059,1.3729024,1.3698379,1.7371418-.210357,3.4948596-.3388477,5.2521396-.066106,1.881174.2917855,2.2419111.8274188,2.287441,2.8696987.037212,1.6587778-.8790778,2.0037545-2.2397221,2.0335241-1.6412663.0358986-3.2886616.2530413-4.9185454.1536635-1.3291236-.0807718-1.6180635.408456-1.6478331,1.6136856-.2202072,8.9510083.6952069,17.75886,3.2685233,26.3548225,3.4283159,11.4518708,7.2077375,22.7638685,13.2868582,33.1597952,3.2479473,5.5535565,7.3631521,10.4561226,11.3732879,15.4429628,2.1661738,2.6934891,4.2890066,5.4283492,5.8348351,8.5401445,1.0585708,2.1311508.8256677,3.3974518-.6776954,4.7383957-2.0146992,1.7966809-2.8412425,1.823386-4.9890292.1617626-1.7817961-1.3783747-3.5478319-.7477415-4.1055735,1.4510475-.7188475,2.8355512-.7945848,5.7310794-.6159674,8.613474.5297232,8.5451791.0595391,17.1131231.6479259,25.6539243.2066358,2.9938115.4986402,5.9817129.7149074,8.9750866.0595391.8243543.4588016,1.3330637,1.1150454,1.7754482.8423036.5678107,1.6793538,1.1647343,2.4222796,1.8533744.9202298.8530294,1.2463817,1.8673836.4224652,3.0218299-.2836865.398168-.6829489.8110018-.3384099,1.3768425,2.0869342,3.4276592,1.8894919,7.4071498,2.6302288,11.1493595.7797,3.9372441,1.4989853,7.9033822,1.5480175,11.9435065.0087558.7028682-.0674193,1.4070498-.1256451,2.5144339-.9793312-1.0594464-1.0826491-2.0092269-1.278778-2.897936-1.3059209-5.9265516-1.6346995-12.0008567-2.7002748-17.963088-.2880643-1.6097456-.3366588-3.5294448-1.26652-4.6869556-1.0677643-1.3291236-3.0623253-.2572003-4.6278543-.1961289-4.3551125.1694239-8.6975292.7089973-13.0662131.3351265-.5822577-.0496889-1.472718.1438133-1.4735936-.7221309-.0008756-.8026838.8628797-.7026493,1.4525797-.7661286,4.4566793-.4795965,8.9527595-.0678571,13.4081254-.5932024,1.3969807-.1648271,2.8114729-.2307141,4.2202739-.7608751-.715783-1.4320037-1.6154368-2.2311853-3.328938-2.0845264-4.2872554.3666472-8.5854555.6067738-12.8814667.8613474-.9968427.0591013-2.037902.09697-2.9944682-.9145386,1.5046765-.7643774,3.029929-.6439858,4.467624-.8009327,3.0391226-.332062,6.0891898-.5706563,9.139257-.7832023,1.1789624-.0820852,1.7130635-.4555182,1.5291926-1.7577178-1.4784092-10.478012-1.0673265-21.0297912-1.1544463-31.5612133-.0087558-1.0410593-.3143316-1.8135357-1.1211744-2.5050215-2.1906899-1.8778905-4.4623705-3.6813572-6.1872543-6.041252-.4268431-.58379-.8974649-.6656563-1.6084322-.3239629-2.6464269,1.2717734-4.0679238,1.0489394-6.2253418-1.0771768-.7398613-.7293544-1.1189855-.7595617-1.8457131-.0153226-1.1535707,1.1824647-2.5750675,2.009008-4.139721,2.5941113-2.7957126,1.0449994-4.5937068.4706218-6.1929455-2.046001-.1816819-.2858754-.3550459-.5772231-.6304144-1.0259556-.655806.5570849-1.1995384,1.0491583-1.773916,1.501612-2.308017,1.8174758-4.8323012,2.4492036-7.6122534,1.2207711-.8685709-.383721-1.3518886-.3690551-1.8623491.5776609-1.2962895,2.4036736-3.0364958,4.5094327-4.873891,6.5162517-.7880179.8604718-1.02311,1.7445842-1.0077874,2.8961849.1116359,8.3810087.8160364,16.756545.3208984,25.1423693-.1400921,2.371934-.4167739,4.7379579-.6987092,7.0987283-.1186405.9922459.1571658,1.31796,1.1706444,1.1815891,3.0294912-.4071426,6.0738672-.7100917,9.098105-1.1505062.843617-.1225806,1.1548841-.0472811,1.3803448.866382.8532483,3.4639956.9062206,3.4808504-2.6254131,4.3133038-3.694053.8705409-7.4240046,1.5734092-11.2187488,1.7955865-.8803912.051659-1.2533863.3646772-1.592234,1.1375915-1.5650912,3.5679702-1.9424642,7.3064586-1.7463353,11.1381959.2153916,4.201449.0525345,8.3687506-1.1452528,12.9900381-.1970045-1.1480984-.3594237-1.8115657-.4180873-2.4842266-.4885711-5.6054343-.3826265-11.199924.2337787-16.7948514.2425344-2.1974756,1.0769579-4.1489145,2.079054-6.0574502.3493546-.6660941.5673729-1.1813702-.2657372-1.6863584-.7845156-.4754375-1.5191235-1.1065085-1.1947228-2.1939733.3117049-1.0441238,1.3155522-1.3893194,2.1600448-1.3536397,1.8395841.0774884,2.0991923-.8011516,2.2314042-2.400828,1.0156676-12.2832298.1527879-24.5806876.3830643-36.8678575.0468433-2.4890422.0976267-4.9960338-.5314743-7.4353871-.5892623-2.2850332-1.3212434-2.4713118-3.0754589-.8633174-.4592393.4211518-.8974649.8670386-1.3746535,1.26652-1.8671647,1.5629023-3.9527856,1.008663-4.8217943-1.3008863ZM67.5876242,156.4814417c.7621885.4539859,1.0541929,1.6215658,2.085183,1.5626834,4.2434766-.2427533,8.4037736-.9828335,12.472573-2.2145493.4264053-.1289285.9211054-.3648961.7989626-.9316123-.1383409-.6433291-.6842623-.4281564-1.1119809-.3699306-4.7486837.6483637-9.4964918,1.301543-14.2447378,1.9534089ZM85.6489955,106.1861962c-.2158294-.6461747-.8191009-.3528569-1.3054831-.3125805-.8396769.0698271-1.7025566.0048157-2.5168418.1786174-.6177185.1317741-1.7472109-.016417-1.5340083,1.0741122.1676727.8578451.992027,1.3013241,1.8417731,1.3424761,1.0988472-.1963478,2.0414043-.5411057,2.8416803-1.2019463.3436634-.2839054.8300456-.6107139.6728798-1.0806791ZM98.4477203,105.0781554c-.2237095-.7972115-1.4101143.0814285-2.2143304-.2162671-1.1176721.1519123-2.295759.2631104-3.452832.4844121-.9727644.1862787-1.1614509.7308866-.5533637,1.567499.9876492,1.359331,2.3872566,1.443824,4.4763797.1306796.7744465-.48682,2.0160126-.9968427,1.7441464-1.9663237ZM109.3981053,103.4347002c-1.3413817.1748962-2.6945836.3047003-4.0123247.594078-.6461747.1418432-1.6741004.24538-1.5318193,1.2284324.1365898.9419003.9675109,1.3162089,2.0899987,1.3085476,1.51387-.1492856,3.0399981-.6286632,4.0167026-2.155448.4176495-.6525226.3690551-1.097315-.5625573-.97561ZM118.7860258,101.1431003c-.3966357-1.0793657-.9780178-2.0516923-1.7025566-2.9180742-5.6365173-6.736459-9.327068-14.543309-12.3762597-22.6765298-3.6493987-9.7339917-7.1661477-19.5178912-10.9061684-29.7332305-1.4158056,4.6234764-2.7418647,8.8577595-4.0070713,13.1099919-2.0146992,6.7681986-3.4348827,13.726616-6.1355953,20.2743884-3.3258735,8.0644881-7.0794657,15.9144602-12.5386789,22.8262532-1.3102987,1.6587778-1.0712666,2.087372,1.0139164,2.4047681,2.0418421.3108293,4.0683615-.0921543,6.0988211-.1808063,7.9725527-.3480413,15.9416031-.7440203,23.878695-1.6410474,3.4116799-.3854721,6.8071617-1.1977873,10.2906388-.4244352,1.7568422.3900689,3.5430162.7479604,5.3808492.5467969,1.0616353-.1160138,1.3759669-.575472,1.0034095-1.5880751ZM62.7583875,106.9895368c.7367968.53826,1.3956673.0974078,2.029584-.29288.9307368-.5726264,1.6797916-1.3547342,2.3496068-2.1950678,7.3942351-9.2767224,13.5232636-19.2869582,17.1665332-30.6429535,2.2112659-6.8909981,4.1204583-13.8789661,6.1552957-20.8264388,1.0112897-3.4519564,2.00069-6.9104796,2.9997217-10.3661572.1532257-.0264862.3064514-.0527534.4596771-.0790207-.2587326,1.7848607.6741931,3.180528,1.3194923,4.6609073,4.1173938,9.4435195,7.2287513,19.2777646,11.2043018,28.7757887,3.8249516,9.137287,8.3748796,17.8335028,15.2630321,25.1086596,1.0152298,1.07258,2.0987545,2.054319,3.3775325,2.8208854.8466815.5076149,1.5537087.325933,2.1005056-.3635827.559055-.7050572,1.4350682-1.3089854.7564972-2.4967035-1.5458285-2.7037771-2.9940304-5.4585565-5.096725-7.8013777-8.2181516-9.155893-14.549438-19.4760825-19.0174998-30.9380224-4.4575549-11.4363294-7.7041888-23.197935-9.0578285-35.4135266-.4412901-3.9838685-.2902533-8.0320918-.4491702-12.0492322-.0323963-.8155986.4763131-.7676608.979769-.7902069,2.0374642-.0914976,4.0753662-.1851842,6.1141437-.2469123.8344234-.0249539,1.7625335-.0888709,1.8413353-1.0662321.0893087-1.1108864-.9110363-1.2461628-1.773916-1.3869116-1.5296304-.2497579-3.0535695.0260484-4.5801354.0249539-1.8724182-.0013134-2.5807588-.6157485-2.6604361-2.4986736-.0407143-.9561284.0875575-1.9205749.1571658-2.8797678.0617281-.8488704.1339631-1.6922685-.09894-2.5319454-.1926266-.6945503-.5126495-1.4258747-1.2722112-1.3853793-.7254143.0385253-.7945848.8565317-.8720732,1.4604599-.2609215,2.0365886.0407143,4.0744906.0223272,6.1121737-.0091935,1.0476261.1554147,2.1234895-.2981335,3.2120487-.5975803-.3576726-.565184-1.1955983-1.392165-1.1603564-1.5834783.0674193-3.1713345.022765-4.7574395.0262673-.8983405.0021889-.9127875.6982715-.9780178,1.3054831-.066106.616624.1593547,1.3284669.7967737,1.2844693,1.7559667-.1214861,3.5679702.5413246,5.2293747-.0407143,1.4959207-.523813,1.4714046.1584792,1.4946074,1.2010707.1177649,5.2133954.0402765,10.4246019-.0993778,15.636465-.1142626,4.2581425-.5809443,8.4552137-1.5931096,12.6078494-2.4743764,10.1542679-6.5484291,19.7411629-10.24292,29.46815-3.1595142,8.3188428-7.2265624,16.0926399-12.9151764,22.9836379-1.5121189,1.831485-2.8521872,3.8059078-4.2504813,5.7297661-.6369812.8768889-1.1277412,1.8389274-1.2617043,2.9316457-.1033179.8405525.1554147,1.5939852.8501838,2.1013812ZM84.8242034,138.944759c-.9491238-10.2457656,3.2291224-18.6175807,9.553842-26.2206405.600207-.7212553.9955293-.6984904,1.6075566-.0831797,5.9482221,5.9810562,10.0384731,12.8179875,10.0275284,21.5682701-.0017512,1.1327758.028894,2.2659894.0617281,3.3985463.0232028.816693-.1716128,1.7172224,1.0226722,1.9932476.5161518.1192972.4841932.717753.5065204,1.1594809.1147004,2.2587659-1.1356214,3.8577856-3.3622099,4.1565758-4.2154582.5658407-8.4633128.7138129-12.7089783.8718543-2.9436848.0100691-5.8816784.2600459-8.8328056.0275806-1.1513818-.0906221-1.4302526-.5859789-1.4193079-1.5998953.0293318-2.6216919.5761287-3.5016453,2.9117263-4.1552624.7232254-.2022579.6816355-.5783176.6317277-1.1165777ZM86.0176128,136.7168571c.0021889.670253.1177649,1.3461973.241221,2.0081324.1002534.5373845.4180873.9738588,1.0213588.952845.707465-.0245161.7127185-.6201263.736359-1.1246767.0367742-.7908636-.0091935-1.5867617.0499078-2.3754363.4885711-6.5217241,2.9769567-12.2348542,7.0063551-17.3315792.6733176-.8514972,1.1912205-.7897691,1.8754827-.0179493,1.1815891,1.332407,2.0466577,2.8434314,2.6967725,4.4811954,1.9437776,4.9010338,2.8736388,9.989222,2.6175329,15.2604053-.0599769,1.2314969.3029491,1.4214968,1.4258747,1.1730523.7805756-.1727073,1.0340547-.4559559.9946538-1.2216467-.0542857-1.0721422-.0135714-2.149319-.0135714-3.2243068.1781796-7.8574145-3.2203667-14.19483-8.2676216-19.8860707-.9648842-1.0879026-1.4600221-.9959671-2.2060125.140311-.9294234,1.4162434-2.0046301,2.7366112-3.009353,4.1038224-3.7325783,5.0776812-5.1864715,10.8505693-5.1689599,17.0619019ZM100.946175,138.7409688c-.1339631-2.774261-.2631104-5.5515864-.7429258-8.2864465-.5879489-3.3530164-1.3387549-6.6712286-3.4488919-9.4807315-.4452301-.5925457-.8217276-1.0955638-1.4749069-.1081336-2.9397447,4.4446401-5.1781535,9.1648676-5.8181992,14.5192307-.4334099,3.6244448-.4040781,3.6279471,3.7159424,3.5432351,1.8938698-.19591,4.172555.212546,6.4070237.8935248,1.052004.3204606,1.4166812.0538479,1.3619577-1.0806791ZM83.9683283,142.628524c-.6807599.0291129-1.3584554.1978801-1.249884,1.0084441.0954377.7109673.820852.3810942,1.2568886.3850343,3.1109197.0293318,6.2218395.0157604,9.3327592.0157604,3.960228-.4211518,7.9200182-.5292854,11.8592323-.9999072.6444236-.0770506,1.3606443-.1643893,1.2039163-1.0414971-.1611059-.905564-.8830179-.4369122-1.377718-.379562-2.3084548.2683639-4.6252276.3335943-6.9459404.4123961-4.694398.158917-9.3861693.3979491-14.079254.5993314ZM15.406389,300.7931385c-.0595391-.5308176-2.3250907-.035023-.6649996-1.4442618.3252763-.2760252-.4027647-.503237-.6903913-.6952069-.6759443-.4509214-.6895157-1.1266468-.9421192-1.8078445-.7499304-2.0214849.2823731-3.0399981,1.2516352-4.4733152.5783176-.8552184,1.037557-1.813098,1.7971187-2.565874.6444236-.6382945,1.3081098-1.4659323,2.2961967-1.1255523,1.0830869.3734329,1.0117275,1.4714046,1.107603,2.4527059-.6606217-.1219239-.5660596-.7063705-.7963359-1.0517851-.2044469-.3062325-.5564282-.6952069-.7599995-.4487324-.7254143.8784211-2.3566115.9635708-2.2638004,2.5529593.0402765.6895157.0026267,1.2365315-.8024649,1.645863-.8370502.4255297.0932488,1.0504717.1168893,1.6027409.7402991.5045504.9552529,1.2542619.9749533,2.1105747.0100691.4299076-.1501612.9565662.3261519,1.2253679.6728798.3789053,1.2485707.6917046.8379258,1.6635934-.4623039,1.0924993-1.1991006.2512902-1.788363.3587671ZM15.0014354,295.3945589c.006129.0039401.0109447.0085369.0170737.012477-.2526035-.2663938-.4920734-.5441702-.7635018-.7860479-.2539169-.2263363-.4364744-.8302645-.8908981-.3997002-.3029491.2871888-.2403455.8722921.1076958,1.0609786,1.299354.7046194,1.2091698,1.8352062.8970271,3.1634543q1.0717044-.9473727.6326033-3.0511617ZM68.8510796,166.7642004c-.0118203,3.3858504.14841,6.7721387.2521657,10.1577702.0008756.0407143.1716128.076394.3581104.1538824.6028337-2.0648259,1.4867272-4.0998823,1.2139854-6.2618971-.3305298-2.6208164-1.0550685-5.2022318.0197004-7.8738316-1.4679023.9353335-1.8387085,2.3782819-1.843962,3.824076ZM123.0417605,172.859957c.5853222-4.711034-1.3597687-8.9199254-2.5584316-13.2807291-.1681105,4.620193.7779488,9.0265267,2.5584316,13.2807291ZM7.0796661,303.0941509c.006129.0065668-.0048157-.0118203-.0048157-.0118203-.0113825-.0013134-.0197004-.0006567-.0310829-.00197.0118203.0056912.0240783.0080991.0358986.0137903ZM3.086604,303.6661206c-1.0143542.7473037-1.5523954,2.1571991-2.2436622,3.3094565-.0954377.1593547.0726728.5483292.2158294.7674419.7179719,1.0990661,3.0286156,1.5031442,4.603776.6111517-.8046539-.061947-1.3440084-.0630414-1.8676025-.1532257-.8212898-.1416243-1.8658514-.1346197-2.1578558-1.0480639-.2797464-.8738243.8090318-.8609096,1.2625799-1.2724301.0818663-.0744239.1991934-.1488478.2232718-.2429722.4925112-1.9391808,1.8487777-1.5467041,3.1940994-1.1721767.4018892-.3859099-.5691241-1.5169345.7267277-1.3849415-1.4495152-.678571-2.9174176-.1799308-3.9571635.58576ZM20.2189898,296.5301803c.4316587.0192627.8746999-.1622004,1.3098609-.2670505.3169583-.0761751.6571194-.3038247.9390547-.0028456.3559214.379562.0363364.7529949-.1475345,1.0631675-.1956911.3292164-.5060826.5901379-1.0966583,1.249884,1.5195613-.5378222,2.2909433-1.3643655,2.0352752-2.3577059-.2232718-.8668197-1.9853674-.5627762-1.9586624-1.9400564-.8007138.3244007-.5179029,1.2897227-1.3877872,1.526347-.48682.1324308-.1637326.7070272.3064514.7282599ZM20.3433215,290.9637091c-.2674883.4977647-.2451611.9543773.4080182.936428,1.0756445-.0295507,1.0533173.7166585,1.101474,1.7248837.8628797-1.0975339,1.2936628-1.8468076.035023-2.4577404-.2543547-.1234561-.4250919-.3307486-.4850688-.6420157-.1138248-.5886056.241221-1.6609667-.7162208-1.5405751-.9246077.1164515.2526035.8922114-.0669815,1.3669922-.1230184.1829953-.1707372.4150228-.2762441.6120273ZM172.9412459,291.9614273c-1.5002986,2.3756552-2.910413,4.7856768-3.1406893,7.637864.9552529-2.6015537,2.0895609-5.1030729,3.1406893-7.637864ZM122.5676363,235.5927524c-3.3052975-9.1526096-9.0665843-16.6446902-15.5121333-23.7079577-3.2834081-3.5981775-6.5830144-7.1862859-10.6846478-9.9106391-1.2936628-.8589396-2.4139616-1.0916238-3.8284539-.0216705-14.0967655,10.6658229-23.5989486,24.3714251-27.7785082,41.6414951-1.5707824,6.4904223-1.2100453,13.0373192-.5664973,19.5901262.0582258.5956102.1177649,1.4965774.8212898,1.4773148.7324189-.0203571.5945158-.9379603.6886401-1.51387.3791242-2.3196184.0267051-4.6348589-.0656682-6.9507561-.4194007-7.8407786,1.0940316-15.3440228,4.2255273-22.4909078,5.0844669-11.604221,12.5434946-21.4524753,22.3613226-29.486756,2.6473025-2.1661738,2.6656896-2.1639848,5.3156188.1315552.9837091.8525916,1.945091,1.7353906,2.8683853,2.6527749,3.2168644,3.196945,6.1977612,6.6075305,9.1068607,10.0848786,8.912483,10.6520326,14.3957745,22.6612072,14.8064194,36.7527193.0954377,3.2777169-.1435944,6.5779798.4369122,9.8349018.1352764.7580295.1151382,2.0059435.8904603,1.9809896.913663-.0295507.6461747-1.3030752.6860134-2.0009089.5511748-9.5921485-.4833177-18.9590551-3.7715415-28.0632892ZM48.4939493,294.7963219c-.3729952.2359676-.8300456.4583638-1.2560131.4732486-3.2707123.1144815-6.540549.4410712-9.8152013.2180183-1.1343081-.0772695-2.2243996-.5246886-2.2318419-1.8669459-.0070046-1.342695.3843776-2.7674753,1.9437776-2.9894336,1.5878562-.2261174,1.6198147-1.0929371,1.5878562-2.3279364-.1291474-5.0387181-.7963359-10.0373786-1.0708288-15.060993-.2806219-5.1448816,1.6128101-9.8718948,3.2680855-14.6192652.3047003-.8733866.8331101-.5288476,1.287096-.1352764,1.1194233.9699188,1.5742847,2.3211506,2.0168882,3.6649401,1.9630403,5.9569779,2.7808278,12.1063635,3.0277401,18.3461523.0490322,1.2428794.0070046,2.4892611.0070046,3.7341106h.0258295c0,1.4147111.0157604,2.8294222-.0048157,4.2436955-.0175115,1.233467-.1746773,2.3550792,1.4044231,3.0163576,1.1413127.4776264.9259211,2.5976136-.1899999,3.3033275ZM45.379965,285.6645073l.0591013-.0361175v-5.3935451c-.0197004.0004378-.0394009.0006567-.0591013.0010945v5.4285681ZM39.5587013,274.2231434c.5060826,4.7241676,1.2144232,9.4290725,1.0480639,14.2048991-.0210138.5903568-.2057602,1.4867272.9044695,1.4538931.9845846-.0293318,1.2082942-.7008982,1.2026029-1.5086166-.0455299-6.6254798.6680641-13.2246923.6925802-19.844262.008318-2.2955401-.3458523-4.595458-1.7073722-6.8971271-.6050227,2.3671184-1.1421882,4.4457346-1.6675335,6.5274153-.5030181,1.9934665-.6908291,4.0276473-.4728108,6.0637981ZM47.8801709,292.2744456c-.14841-.0862442-.3265897-.2385943-.5323499-.3025113-3.3394449-1.0373381-6.6675074-.4841932-9.9876897.1151382-.3769353.068076-.7442392.3789053-.6479259.8530294.1068202.5264398.6111517.4445735.9675109.4377877,2.8110351-.053629,5.6229458-.113387,8.4322298-.2333409.5861978-.0249539,1.2612665-.0746428,1.7682247-.8701032ZM159.4998486,289.9443203c-.1475345,1.0644809-.7989626,1.5291926-1.7669114,1.7850795-2.6389845.697177-5.3361949.994216-8.0434743,1.2056675-.6050227.0470622-1.2380638-.1048502-1.8413353-.2405644-1.020921-.2298386-1.7314505-.8442737-1.9411509-1.9004366-.2245851-1.1319002.4150228-1.9383053,1.3243079-2.3200562,1.1329947-.4754375,1.2144232-1.1496306,1.1080408-2.2414733-.8563128-8.8089462-.6798844-17.5414984,2.2756207-26.0203526.3905067-1.1202988.8541239-2.2156438,1.3006674-3.3158044.1654838-.4077993.3791242-.796117.606336-1.2667389,1.1588242.6993659,1.6767271,1.7798261,2.1232706,2.8637886,2.081243,5.053384,2.9533162,10.3094637,2.6170952,15.7752437-.2364054,3.8433386-.6312899,7.6796727-.5047693,11.5427118.0358986,1.082868.3270274,1.8157247,1.4000452,2.2327175.8059672.3130182,1.4924184.8164742,1.3422572,1.9002177ZM154.8527317,281.9868713c.6396079-5.3051119,1.2144232-10.6095672,0-15.8785616v15.8785616ZM149.7765827,283.7130684c.0954377,1.0104141.2657372,2.0136047.3997002,3.0202977.1816819,1.3661167,1.235437.8068428,1.9849297.8865202.8659442.0921543,1.0007828-.4472002,1.0095385-1.1642965.1024423-8.4212851.4815665-16.8438836-.1545391-25.2603531-.0367742-.4905412.0656682-1.0298957-.4268431-1.5068654-3.3525786,7.7799261-3.5876706,15.8459465-2.8127863,24.0246972ZM157.6650802,289.3198161c-3.5066799-.4097693-7.0085441-.6225342-10.6890257.880829,2.0304596,1.0174187,8.8555706.4478569,10.6890257-.880829ZM38.81884,321.2255683c.8344234-1.3897572-.4110827-1.2225223-1.0734556-1.8610357.1348386,1.6484898.7394235,2.8427747,1.3855982,4.0059768.2075114.3729952.4255297,1.159262,1.0423726.7210364.5266587-.3747463.0774884-.9007483-.2657372-1.2888471-.4412901-.4984214-1.3724646-1.1043196-1.0887781-1.5771304ZM40.8199678,318.1831623c.0013134.00197.0529723.0584447.0529723.0584447-.0035023-.039182-.0052535-.078364-.0087558-.117546-.0161981.0175115-.0275806.0424654-.0442166.0591013ZM40.8619955,313.6492135c-.1860598,1.5105866-.1195161,2.9929359.0021889,4.4748475.9105985-.9799879.9359902-3.3567376-.0021889-4.4748475ZM90.6345224,283.8082872c-.4767509-.3119238-1.0371192-.6306333-1.1478795-1.1975684-.6356678-3.252763-2.1425332-6.5679107.6794466-9.6041876.6847-.7367968.4693085-1.6778215-.2307141-2.2567958-.7827645-.6474881-1.2104831.2418777-1.592234.7151263-1.5073032,1.8691348-1.7493998,4.1088569-1.7432708,7.283037-.0091935,1.291255.3646772,3.3941684,1.1518196,5.4167478.2666127.6851378.556866,1.3974185,1.2385015,1.7708514.5472347.2994468,1.2275568.9556907,1.7423952.0921543.4014514-.6733176.9543773-1.5311627-.0980645-2.219365ZM100.2146317,284.7519387c.6623729.2880643,1.1202988-.4128338,1.4744691-.888928.3283408-.4417278.5415434-.9861169.7293544-1.5123378.6133406-1.7185358.8129718-3.5134656.9355524-5.4012063-.107258-1.3919461-.1720506-2.8747333-1.0489394-4.1414721-.4180873-.6034904-.9972805-1.3341582-1.7515888-1.0018773-.5822577.2565436-.3038247,1.1251145-.2210828,1.7170035.0770506.5533637.2407833,1.1080408.4531103,1.6266004.9359902,2.2841576.9224188,4.5011147-.3353454,6.6747309-.222834.3854721-.3852532.8232599-.48682,1.2577642-.136152.5840089-.4609905,1.3602065.2512902,1.6697225ZM176.8953448,301.2782073c-.0332719,1.2056675-1.1172343,1.3694001-1.8387085,2.1712083,1.0905293-.1875921,1.9604135-.3373155,2.9244222-.503237-.3878799-.5962669-.6838245-1.0506906-1.0857136-1.6679713Z"/>
  </g>
</svg>