<?xml version="1.0" encoding="UTF-8"?>
<svg id="Layer_2" xmlns="http://www.w3.org/2000/svg" viewBox="0 0 86.9744372 77.0742433">
  <g id="Layer_1-2" data-name="Layer_1">
    <path d="M58.8078039,61.6298387c-.1409137.7491719.0285321,1.4334769.4115612,2.0723634,1.0576681,1.764333,2.6598921,2.7262729,4.6329171,3.1364366.3349321.0696417.6775504.1024827,1.0131813.1692129,2.6541856.5279024,4.1454255-1.755948,4.1928237-3.5555676.0538034-2.0451123-.7672228-3.7356111-2.1696055-5.1719994-1.2559954-1.2866238-2.7156753-2.1917324-4.5396345-2.4385061-.8608547-.1164576-1.6118899.1682813-2.360596.5129958-.1288021.0592769-.2557409.1226299-.4035257.1416125.6427296-.7984334,1.4993919-1.218729,2.4913779-1.3003658,4.7635825-.3915305,9.3708789,4.6127699,8.2781571,9.3290706-.6042986,2.6080684-2.7757674,4.040963-5.3958309,3.5417092-1.49485-.2849718-2.8855869-.8702878-4.1541598-1.6901495-1.3604579-.8791386-2.2592778-2.1293111-2.6166863-3.7382896-.2118364-.9537879.0545022-1.8018323.5939339-2.7458378,1.0917902,3.9689922,3.6685315,5.8975304,7.7598042,5.8547904-.7278601.622466-3.1941996.2749564-4.6111395-.5494471-1.4372035-.8359328-2.3951839-2.0849408-3.1225782-3.5680286ZM57.3728131,34.0104c.3234028.3189774.2585359,1.0592985-.151162,1.5052147-.4532531.493198-1.0513794.6479702-1.6934103.6808113-.4101637.0145572-.7929599-.0924674-1.1542115-.2686677-.9055745-.4416073-1.014113-1.4100689-.2368748-2.0555935.7950562-.6601983,2.5002287-.5872958,3.2356585.1382352ZM56.8782176,34.4601594c-.6044151-.435435-1.7687583-.4826004-2.3782975-.0637023-.2937061.2017046-.5393152.4727015-.5161402.8344189.023408.3662592.3797683.4820181.6661376.6254939.2281405.1143614.474099.1234451.7213385.1268223.7174954-.0052406,1.3675618-.3568262,1.6134039-.8793715.1104018-.2347786.1674661-.4463821-.1064423-.6436613ZM58.4661173,25.2414906c-.0932826-.1341592-.1253084-.3230534-.3503045-.3963053-.0915357.3556616.0574136.596263.2385052.823006.6720769.8411734,1.9943368.931661,2.8683512.1986767.6473879-.5429254.7779369-1.3107305.3156002-1.8563345-.4954107-.5846173-1.7816851-.7226195-2.2970101-.2429306-.0518236.0482135-.115293.122164-.1134297.1823726.0039596.1268223.1232122.1190197.2145149.1184374.3423854-.0019798.6853531-.0245726,1.0268068-.0094331.3619503.0159547.5867135.2248797.7053838.567498.1117993.3231699.053454.5966124-.186798.8358163-.6386536.6355092-1.9087404.5176541-2.4216198-.2208036ZM86.9425676,51.7449159c-.2470066,2.5404065-.6416815,5.0654407-.7687368,7.6181917-.0951459,1.9116518-.8055374,3.4749789-2.5786046,4.4109488-.1484835.078376-.218358.1942513-.2189403.3666086-.0017469.4802712-.119602.9428409-.2260442,1.4072739-.0333069.1458049-.071505.2933567.0574136.4290299.3180458.3349321.6272407.6782492.9752161,1.0565035.2520143-1.0234296.1738712-2.0484895.5099679-3.0025104.0985231,1.6146849-.00559,3.2139974-.2798477,4.8053908-.2756552,1.599196-.7965701,3.1405127-1.1853057,4.7995679.2588853-.1437087.4312426-.3048861.5744854-.4695571-.1187868.479456-.2456091.9571652-.3926951,1.4305654-.0968927.31199-.129268.6067442-.1138956.8828652-2.2648678,1.6134039-4.8246063,2.0090104-7.7172972,1.1565406-2.5618347-.7548783-4.9954496-1.8512103-7.5082557-2.7346579-2.011456-.7072471-4.0161575-1.4816903-6.1504763-1.688519-.8078665-.0782595-1.172146-.3694036-1.4539734-1.082823-.465714-1.1789005-1.2245519-2.0887839-2.6550008-2.0446464-.4929651.0152559-.9846492.1013181-1.474237.1736383-.2608651.0385475-.5834527.0703404-.6728921.3505374-.0862951.2705311.3454133.2513155.40108.5260391-1.2845276-.3218889-2.5146694-.7662911-3.7456265-1.2023085-3.4815006-1.2330533-6.9952599-2.3616441-10.5523415-3.3573567-3.2028175-.8966072-6.1462839-2.4577216-9.2407958-3.6319638-6.9974726-2.6552338-14.1193219-4.9359398-21.3228081-6.9562466-1.1919437-.3342334-1.9890962-.8827488-2.5053528-2.0336994-.707713-1.5778843-1.5775349-3.0825168-2.2436725-4.6849736-.149648-.3599705-.1425441-.5995238.1490658-.9014984.838262-.8680751.7319361-1.5837072-.287301-2.2393636-.7269285-.4676938-1.5512155-.7208727-2.3461552-1.0368222-.3075646-.122164-.5663334-.2723944-.7436984-.5785615-1.0316981-1.7801712-2.0049344-3.5899226-2.9041037-5.4414823-.4326401-.8911337-.4070194-1.7413908-.0541528-2.6433551.5950984-1.5207036,1.5257113-2.8192061,2.6575629-3.9604908,2.5769742-2.5984024,5.2305776-5.1148187,7.973271-7.5430766,3.2007212-2.8338797,6.479702-5.5539804,10.0041755-7.9800255,4.9991763-3.4410898,10.3967541-6.1245063,15.9786843-8.4524941,5.2345371-2.1829981,10.4030428-4.5237963,15.6955758-6.5682098.6803454-.2627284,1.3525388-.5534066,1.979896-.9239748.0059393.1190197.0185168.2375735.0439045.3534489.0292309.1334604.0752316.2556245.1234451.3758087-1.0040976.7395059-2.106369,1.3208623-3.226109,1.8669321-5.0483214,2.4624964-10.1485829,4.8113301-15.2878577,7.07876-4.2175127,1.8606434-8.3797081,3.8375115-12.2746332,6.3329654-4.9100862,3.1458697-9.4203734,6.8078796-13.789281,10.6503988-2.4467746,2.1519039-4.9794949,4.2135532-7.1906758,6.6215474-.6979305.7600024-1.3251713,1.5741577-1.7767939,2.5114086-.3412208.7082952-.4076017,1.4078562-.0385475,2.1381619.8758778,1.7328894,1.7384794,3.4725333,2.5893187,5.2178837.1468531.3011594.3900166.3936268.6667199.4694407,1.7777256.4865599,3.3179941,1.4195019,4.7570609,2.5385432.3918799.3047696.7785192.632132.9837175,1.0969143.2330317.5277859.4582607,1.105998.0652163,1.6288927-.4089992.5442065-1.0284372.4164525-1.585687.2839237-.4212272-.10027-.8216085-.2886984-1.2868567-.4582607.8361657,1.6640629,1.6552122,3.2547576,2.4301212,4.8666475.1723573.3584566.3903659.5113654.7566252.5669157,1.1685358.1772485,2.315061.4610557,3.4552976.7669899,3.4083652.9141923,6.6908397,2.1934793,9.9653951,3.4875564,3.6524604,1.4433758,7.4722703,2.3834217,11.1515159,3.7333984,6.3606823,2.3339272,12.688873,4.7560128,19.1242047,6.8828783.5219631.1725902.9073213.1622255,1.4069245-.1425441,2.5224721-1.5389875,5.5517677-.3344663,5.7789765,2.4658737.0256207.3158331.2291886.2960353.43823.3102431,1.8325771.1251919,3.6148445.5197504,5.3844181.9911708,2.5223556.6719605,4.9389677,1.67501,7.4521232,2.3727076,1.5449268.4290299,3.103945.784575,4.7309744.5633055,1.1327833-.1541899,1.9315661-.7123713,2.367467-1.7993867.4976234-1.2410889.8276643-2.5288772,1.1919437-3.8108427.3610186-1.2699704.4548835-2.4153311-.6809277-3.3798331-.2672702-.2269759-.5577155-.6026682-.4037586-1.0109686.4045738-1.0736228.4126094-2.1512052.1807422-3.2560386-.0439045-.2093908-.0533376-.5093856.2095073-.5945162.2454927-.0795406.4072523.1502303.5559687.3228205.0616061.0717379.1284528.1494151.1583824.2362925.1480176.430078.3564768.3006936.6175748.0988725.9941987-.7687368,1.4727231-1.8381671,1.7026104-3.0191638.3089621-1.5880161.5435077-3.1902401.8241706-4.7839626.2082262-1.1826271.4087662-2.3632745.4461491-3.5686109.0189826-.6137317-.1922715-.9733528-.8235883-1.071643-.6579856-.1024827-1.3075862-.2601663-1.9662705-.3564768-2.0557099-.3004607-4.1257441-.4771269-6.1887909-.7140017-.491917-.0563655-.8692397.0142078-1.2731147.2825262-.6685832.4440529-1.4016839.7697849-2.1868412.959145-1.1524646.2778679-2.3108686.2607486-3.1373683-.6671857-.9493625-1.0658201-1.6288927-2.3676999-2.8484369-3.2131822.2477054-.0433222.37511.1080727.5276695.2015881.9668312.5926528,1.7155372,1.4500138,2.5984024,2.1443342.6738238.5298822,1.4325452.8251022,2.2917695.5801919,1.2047541-.34355,2.21351-1.0131813,2.998085-1.9939874.4290299-.5361709.4955272-1.1290566.2041502-1.7680596-.5301151-1.1635281-1.8106831-1.8756664-3.3055331-1.7997361-1.0974966.0558997-2.0285753.4477796-2.7276704,1.3410095-.2643588.3377271-.2230163.7737444-.432873,1.1876348-.2624955-1.1476899.4711875-2.4496861,1.6398398-3.0169511,1.7502416-.8495583,4.2371941-.3164154,5.4879489,1.176222,1.0117838,1.2075491,1.0526604,2.4953374.118088,3.7654243-.1336933.1819068-.2725108.360087-.4315919.5700601,3.1567003-.3025569,6.1685273.2833414,9.2110991,1.077233-.2210366-.6299193-.5425761-1.1367428-.8888046-1.6278446-1.3068874-1.8533066-2.6249548-3.6988105-3.9271839-5.5553779-1.4891436-2.1230224-3.0032091-4.2255483-4.7227059-6.1728362-.259584-.293939-.5053096-.4256526-.9208304-.4072523-2.1552812.0960775-3.8527675-.7711824-5.0416833-2.5702197-.9193165-1.3913192-1.3653491-2.9372941-1.2415547-4.6074129.0960775-1.2957075-.1520937-2.4984818-.7499871-3.6410475-.5914883-1.1303377-1.1402366-2.2851314-1.7760952-3.3898484-2.1491089-3.734563-4.5927392-7.2830267-6.9397096-10.8926306-1.6094443-2.4754232-3.2193545-4.9516616-4.5888961-7.5726568-.1569849-.3004607-.3676567-.5882274-.4036421-1.0860838.2437458.3634642.4213437.6093063.5793767.8671434,1.4738876,2.4053157,3.0108953,4.7680079,4.6557428,7.0610585,2.4548102,3.4221072,4.9528262,6.8146341,7.2572896,10.3415532,1.5753222,2.4111386,3.0950942,4.8545359,3.6573516,7.749323.064634.3329523.1989096.6571704.335165.9705578.8304593,1.9093227,1.9460068,3.5452029,4.0771813,4.1945706.3590388.1093537.6108202.3677732.8530521.6459904,3.594348,4.1273745,6.5777593,8.6798194,9.3453747,13.3849402.7969195,1.354635,1.2075491,2.7815903,1.053825,4.3622696ZM75.9557228,35.4824244c-.2329152-.6117519-.5558522-1.1210211-1.1924096-1.3689593-1.5962846-.6216508-2.7214981-1.7785408-3.6254422-3.1891919-.0896724-.1399821-.1356731-.3345827-.3478589-.4067865.2298873,2.6412588,2.8589181,5.167574,5.1657107,4.9649377ZM7.5220804,48.0080238c.4056219.2874174.8188135.5559687,1.4267223.560627.1870309-.0381981.5049602.0448362.6691655-.2772856.1541899-.3024404.00559-.5541054-.1571013-.7916789-.3045367-.4447517-.7319361-.7664076-1.1408189-1.1052993-.1948336-.1615267-.342036-.1834208-.3480918.1363719-.0072204.3822139-.1653698.6890797-.4334553.9572816-.1534911.1533747-.2736754.3378436-.0164205.5199833ZM15.1336341,39.7656192c-4.2543133-1.2294431-8.4818414-2.5742957-12.920973-3.0081003,4.2769061,1.1320845,8.448651,2.7170728,12.920973,3.0081003ZM61.1878483,44.9334261c.9112809,1.4311477.3352815,2.9388081-1.2958239,3.6196193-.6947862.2899795-1.4275375.3986344-2.3813254.4233235-1.5866186-.0228257-3.2282052-.4763117-4.5566373-1.7438364-1.0137636-.9671805-1.4875132-2.118597-.9773124-3.513177.4952943-1.3534705,1.601991-1.9543918,2.9270458-2.011456,2.6728189-.1149437,4.8306621.9431903,6.2840532,3.2255267ZM56.0984174,42.367166c-.7627974-.1741041-1.515463-.1452227-2.2395965.1744535-.8193958.3618338-1.0574352.9045263-.7784027,1.7544341.0964269.2933567.2656398.5480496.4546506.7885346,1.3255206,1.6852582,3.0730837,2.4307035,5.1998328,2.3336943.1865651-.0085014.3852418-.0788418.6109367.0391298-1.8922034,1.02506-4.8341558-.3551957-6.8090442-3.1943161-.1376529.724017-.0985231,1.3426399.2197555,1.9074594,1.1663231,2.0706165,4.3165017,3.0824003,6.4705019,2.0927434,1.4939184-.6864012,1.8679802-1.9032669.9428409-3.2592994-.9808061-1.4376693-2.3941358-2.2538043-4.0714749-2.6368334ZM16.1379646,35.0044823c.2173099-.0122281.3473931-.163623.4409086-.3231699.6938545-1.1844905.8547989-2.8808122-.6169925-3.8542814-1.3539363-.8955591-2.8108211-.8950933-4.2463942-.2319836-1.407041.6501829-2.1743802,1.8004348-2.3208839,3.349787-.1476683,1.5626284,1.2295596,2.453995,2.3003874,2.5677741,1.1250971.119602,1.9351763-.7454452,1.9729086-2.1825323-.2298873.3880368-.4485948.7831775-.6930393,1.1617812-.1886613.2921922-.4229741.5361709-.8087982.5673815-1.3029279.1049283-2.2793086-.9561171-2.0619986-2.2472827.3053519-1.814992,2.323446-3.23298,4.1464736-2.9603527,1.6233028.2426977,2.9497551,1.7907688,1.9953849,3.5578968-.093399.1728231-.2224341.3675403-.1079562.594982ZM38.9310501,45.3676966c.7307716-.2084591,1.4636394-.4162195,2.2264368-.4971576,1.4535076-.1540734,2.8378393.2119529,4.2269458.5389659,1.0323968.2430471,2.0480237.5599282,3.1280517.6331801-.6893127-.2468902-1.3769949-.4984386-2.0682873-.7395059-2.6110963-.9103492-5.2089165-1.661035-8.0100716-.6612464-1.5250125.5442065-3.0635342.2085756-4.454504-.6023188-1.1341808-.6613628-2.2193329-1.4062258-3.342916-2.0866876-1.1563077-.7003761-2.4057815-1.0632581-3.7675205-.8352341-.8489761.1421948-1.7057548.2881162-2.5009274.7975018.257022.1506962.4385794.0709227.615595.0430893.545371-.0855964,1.0870154-.2017046,1.6348321-.2650575,1.4984602-.1729396,2.8067451.3549628,4.0404972,1.1379074.9809225.6223495,1.8955807,1.3457843,2.9176128,1.9054796,1.7003977.9310787,3.4769587,1.1669054,5.3542556.6310838ZM51.5163923,17.2776526c.2825262-.9825529.0200307-1.8680967-.7581391-2.5348166-1.4646875-1.2549473-3.1753335-1.67501-5.0124525-1.112869-1.555408.4758458-3.0338375,2.2064061-2.0345146,4.1973656.7788686,1.5516813,2.139443,2.3723582,3.9356853,2.3724747-.2248797-.0894395-.4517391-.1739877-.6740567-.2690171-.8261504-.3533324-1.6369283-.7343818-2.2552018-1.4170563-1.0116674-1.116945-.8179983-2.7980108.4088827-3.5801402,1.4337098-.9139594,4.0266387-.5131123,5.0922259.8049551.5198668.6429625.6635755,1.3728024.2937061,2.1360657-.3670744.7572075-.9880265,1.0776988-1.8316455.9367851-.067429-.0112964-.1398656.0074533-.261098.0156053.3122229.4568632.7282095.3691707,1.1002916.288582,1.0146952-.2201049,1.7102966-.8433861,1.9963165-1.8379342ZM25.5847739,21.9887128c-.1327617-.95635.2588853-1.6850253,1.0518452-2.1692561,1.048235-.6400511,2.1507393-.7085282,3.2429954-.0916521.7070142.3993332,1.0552225,1.0893446.9320103,1.7991538-.1348579.776423-.6817429,1.1454772-1.3860786,1.3387968-.3703352.101551-.7504529.1031815-1.1305706.088042-.3973534-.0305119-.7712988-.0252713-1.1630623.1453391-.6986293.3043038-1.4271881-.2452597-1.5471395-1.1104234ZM25.9262276,22.1090135c.0407602.559346.714584,1.1154311,1.0718759.8474621.4551164-.3412208.9516917-.3296915,1.4558367-.3836114.3805835-.0406437.7510352-.1270553,1.0858509-.3230534.6851202-.4011965.7435819-1.2194277.1183209-1.6979521-.4228576-.3237522-.9113973-.460357-1.4424441-.4754965-.5198668.0251548-1.0149282.1532582-1.449548.4504581-.5518927.3775556-.8909008.8826323-.8398924,1.5821932ZM34.4077197,36.9046048c.2492193,1.9044315,1.6640629,3.2613957,3.3864712,3.3935751.2763539.0211953.7710659-.0807051.7439313.2616803-.0253878.3215395-.524991.2708804-.8433861.252713-1.2725324-.0723202-2.2652172-.6716111-2.9367118-1.7279982-1.165042-1.8329265-1.6927115-3.8628993-1.6037379-6.0284287.0421577-1.0257587.5989415-1.8378177,1.3878255-2.4676205,1.9988786-1.5960517,4.2795846-1.8859147,6.6968955-1.3279662,1.835605.4236728,3.3984663,1.3316929,4.514829,2.8953694,1.3043254,1.8269872,1.378043,4.3029926.2124187,5.8866998-.9933835,1.3497438-2.4251135,1.7856447-3.9873925,1.8958136-1.8785779.1325288-3.6754025-.2591182-5.3844181-1.0357741-.8885716-.4036421-1.5366583-1.1013397-2.1867247-1.9980634ZM36.9681569,38.622937c1.8600611.9341066,3.8499725,1.2322381,5.889029.7595366,2.8735918-.6661376,3.9387132-3.1527407,2.635203-5.724125-1.5399191-3.0373312-5.5554943-4.519138-8.7403774-3.3103079-1.7826168.6766188-2.7143942,1.9736073-2.6956445,4.2469765.1474353,1.5464407,1.0776988,3.1067399,2.9117899,4.0279197ZM52.4254605,7.5015012c-.8593408-.640284-2.3246106-.6058125-3.1434241.0857128-.2375735.2007729-.4724686.420412-.4473137.8587585.7063155-.8224237,1.5120857-.9484309,2.4033359-.5261555.4201791.1991425.8172996.4751471.7800331,1.016675-.0340056.493198-.4485948.6648566-.8366315.8336036-.3372613.1467366-.6809277.2134668-1.0544073.1434758-.211487-.0395956-.435668-.1154095-.6628768-.0121116.6243293.5753006,2.0441806.6134987,2.8746399.0859457.937018-.5952149.9796415-1.8203491.0866445-2.4859044ZM23.0688234,37.2317343c-1.1178767-.0512414-2.0936751-.3589224-2.6699074-1.4347579-.4573291-.8536344-.1576836-1.7475631.7321691-2.1237212,1.2648462-.5348899,3.123044.1319465,3.77148,1.3532376.3845431.7244829.1204172,1.5812616-.6123342,1.9533437-.3808164.1934361-.7921447.2647082-1.2214075.2518978ZM22.8406829,36.6766973c.2560903-.024689.5415279-.0073368.8164844-.1108677.6277066-.2365254.886359-.8214921.6214179-1.4306819-.4385794-1.0084065-2.389361-1.5605321-3.2893455-.9310787-.6569374.4595418-.7098092,1.1752903-.1424277,1.7174005.5536395.529067,1.2160505.7524327,1.9938709.7552277ZM46.6939987,63.7256101c.8292947.6805783,1.8677473.5913718,2.5506548-.1939019.6661376-.7661747.6096556-1.8566838-.1475518-2.569288-.7767723-.7307716-1.7342869-.8522369-2.9092278-.8353505.3581072.3775556.6942039.4011965.9842998.5132287.4993703.1929703,1.0035153.376391,1.3608073.8018107.3436664.4093485.3607857.8660953.1385846,1.3360018-.177132.3745277-.4767775.5989415-.895792.6065113-.7346147.0133926-1.7440693-1.0714101-1.6904988-1.8025311.0088508-.1213488.130549-.2743742-.0718544-.3306232-.2029856-.0563655-.2508497.1200678-.3101266.2579536-.0780266.1813245-.0749987.3698694-.0461172.5615586.1059764.7022395.5115983,1.2236202,1.0368222,1.6546299ZM22.4259774,51.9835376c.3187445.8634168.8700549,1.5625119,1.6010594,2.1107944,1.6736125,1.2557625,3.5718717,1.6891013,5.614189,1.3639517,2.1705371-.3456462,3.1469178-1.5441116,3.0593417-3.7516823-.0971257-2.4465417-1.3158547-4.3335045-3.1757993-5.8273064-1.1009903-.8842627-2.3591985-1.4015675-3.8116579-1.2269975-.8356999.1005029-1.6114241.3478589-2.1742638,1.1146159.3388917.0591605.5426925-.1163412.7496377-.2205707,1.1221856-.5650524,2.2241076-.5329101,3.3493212.0013975.50694.2407179.967297.5383836,1.3722201.9134936,1.3703568,1.2691552,2.4597014,2.7147436,2.6827178,4.6415349.1388175,1.1998629-.4318249,1.9864176-1.6015252,2.2599766-1.0878306.2544599-2.1549318.0798899-3.2149291-.1997248-.2786831-.0734848-.5541054-.2340798-1.0022343-.0889736,1.8430583,1.1595685,3.6303334,1.3769949,5.5959051.3749935-.3423854.75581-.8898527,1.0848027-1.5483041,1.2597221-.9896569.2628449-1.9986457.3459956-2.9970369.1003865-1.8303644-.4504581-3.3796002-1.2881377-4.0867308-3.1921034-.0525224-.1413796-.1350908-.2727437-.2139326-.4024775-.0475147-.078376-.1083056-.173056-.2196391-.135906-.1057435.0352867-.1281034.1466201-.1144778.2381558.0334233.2244138.0584617.4561645.136139.6667199Z"/>
  </g>
</svg>