<?xml version="1.0" encoding="UTF-8"?>
<svg id="Layer_2" xmlns="http://www.w3.org/2000/svg" viewBox="0 0 123.639016 130.52011">
  <g id="Layer_1-2" data-name="Layer_1">
    <path d="M80.2638157,13.5299512c2.3458225-.259183,4.4874019,1.4082675,4.8266976,3.7581136.3326166,2.3035788-1.1785954,4.1027862-3.9451359,4.6249893.5266326.6757823,1.1405838,1.2515828,1.4266296,2.062692.7064491,2.0031763-.225429,4.2332666-2.2886002,5.0118325-1.0563963.3986396-1.0428479.7642494-.4112443,1.5304666,1.0288605,1.2481591,1.6519781,2.7082281,2.034143,4.3284932,1.4210331-5.0008738,4.8351178-8.4741779,8.5705019-11.7555108,4.2922739-3.770539,7.4094492-8.3282837,8.8420409-13.941576.3244598-1.2713641.1745493-2.5408042.1574162-3.8131376-.0385969-2.8672684,1.2597835-4.6088036,3.9107966-5.2092978,2.3724512-.5374011,4.637583.6586748,5.7330591,3.0538481.7662612,1.6753221.9253161,3.4534278.8248881,5.2696183-.0280918.5081718-.1913897,1.0151731-.0426936,1.5245044.0560079.0082483.1067048.0330005.1334797.0172025,4.4653308-2.6335655,7.5667777,1.4222183,7.7031105,5.0327623.0882403,2.3365939-.6530163,4.477877-1.5306056,6.5908306-.2103809.5065478-.5631519.963646-.592619,1.5579622.5311975.1850361,1.0377709.0020118,1.5430713-.0323311,2.0148812-.13694,3.2159939.6654637,3.7134813,2.6079537.6614731,2.582737.2076888,5.0710081-.790622,7.4856554-.6261974,1.5146065-1.4198627,2.9448938-2.2499155,4.3567898-.2132632.3627348-.5686678.6820444-.5142401,1.1700728,3.2310786.3096823,4.3839233,2.0150055,3.6121023,5.2948569-.4595928,1.9530427-1.5152283,3.595218-2.6988276,5.1587217-1.1106485,1.4670992-2.187821,2.9376514-2.8862962,4.664475-.4355539,1.0767921-1.2182751,1.9420108-2.0396516,2.8496452,1.1662029-.0230952,2.4759663.5401884,3.3810476-.2470246.7416516-.6450496,1.3071884-1.7873672.0433666-2.673545.3283809-.3095653.535543-.1651342.6530016-.0543107,1.5480167,1.4606103,3.3939522,2.3470442,5.4249276,2.9101669.3195583.0885988.8069357.1908484.8306966.5783171.0293208.4785255-.4880357.6425111-.8431916.7105824-2.2206679.425612-3.9096993,1.9630065-5.9389336,2.7757507-.4478294.1793629-.5994371.4367975-.5661659.8958929.1232526,1.7014093-.4134463,3.3162171-.6804789,4.9664102-.0249607.154234-.0524672.4050114-.1417902.437434-1.4740124.5351553-.8611879,1.7059304-.8165337,2.6799461.1455065,3.1736953-1.3834604,5.4963421-3.7443969,7.3805308-2.3926275,1.9094932-5.1602067,3.1666139-7.9118234,4.4457617-2.9821008,1.3863135-5.8385641,2.968962-8.179968,5.3347926-.3216799.325045-.7583603.5889027-.8153339,1.1133553.081232.0581148.1399174.1361865.2027874.1397272,1.1868474.0668057,2.2648831.3465381,2.583944,1.683457.2703539,1.1328293-.2702222,2.0239524-1.0826884,2.752158-1.0134393.9083294-2.1810175.9495306-3.3470156.3853838-.5931018-.2869456-1.0959003-.7605258-1.6544727-1.1604675-.3816236.5336117-.2910716,1.1632474-.3616228,1.739977-.4822418,3.9423413-2.3248561,7.2625381-4.6994873,10.3325865-2.9249736,3.7815746-6.3680132,7.0471094-10.1202231,9.9940809-1.6960397,1.3320467-3.4430982,2.6037985-4.7178128,4.3906828-.6600904.9253015-1.0977512,1.920247-1.2865219,3.05432-.2157944,1.2964638-.5546805,2.5719319-.8139732,3.8617824-.1866858.9287105-.6398702,1.5465682-1.4051218,2.2049833-.8575155.737789-1.4999315,1.75354-2.4573336,2.4800192-1.6414071,1.2455475-3.2852211.7526835-3.569138-1.2996826-.1907533-1.3788955-.5835916-2.626623-1.2280925-3.8358414-.5464651-1.0252905-.3976373-2.0932454-.031713-3.1392829.4621386-1.3210733.2181647-2.3385801-.9634594-3.2451684-2.0906118-1.6039661-1.9206714-4.7997983.4854021-5.9103151,2.3084327-1.0654383,3.3785969-2.8819068,4.2855728-5.0065946,1.0014272-2.3459688,1.9233562-4.7321732,3.3189458-6.8917708.323538-.500677-.6295406-1.9549521-1.4999022-2.1414257-1.3593922-.2912325-2.5372122-.9065736-3.6708609-1.7839289-.8692057,1.6786287-1.6900117,3.3161732-2.5586688,4.9279084-1.0433819,1.9358877-2.2437558,3.7647195-3.6538156,5.4654851-3.0572828,3.687555-6.8785589,4.801159-11.4784229,3.654869-3.6102002-.8996531-6.8985523-2.4872762-9.9782354-4.5207535-.8010466-.5289151-.9799341-.427814-1.4795576.4143241-1.275651,2.1501751-2.1969508,4.4011587-2.8200026,6.8107729-.2014267.7790195-.5298881,1.6856663-1.6689173,1.521827-.9099607-.13089-1.6085968-1.1536786-1.5674285-2.25549.0191448-.5123526.0885439-1.0228471.1463698-1.6571063-.8154034.3957572-1.5105061.757541-2.2260595,1.0729295-.6014342.2651159-1.2983073.2612533-1.608125-.3343065-.5262705-1.0116251-1.1231801-1.9837461-1.5842433-3.0464046-.5444716-1.2549114-.4589198-2.5949027-.9491356-3.8140264-.2170454-.5397714-.1193607-1.0451303.1662717-1.4863465.3222797-.4978239.6753141-1.0144781,1.1295153-1.3809878,1.4291022-1.1531812,2.1969326-2.6289055,2.6931251-4.3880639.8564584-3.0364115,2.440859-3.9727302,5.5742931-3.4621772,1.7338465.2825123,3.3263711.0574564,4.8348837-.8487514.5800289-.3484402,1.2003519-.6303965,1.8054513-.9364504,1.9070059-.9645421,3.7643757-.8814959,5.5723508.266184.2321593.1473647.4786645.2721389.8125687.4603975.4855411-1.9152578,1.0573912-3.7302779,1.7317689-5.5112805.1416658-.3741471-.0473975-.690589-.1703502-1.0297677-1.4907724-4.1124647-.9742718-7.9179758,1.7530499-11.3859103,1.7684126-2.2486353,3.8441299-4.1711355,6.2205681-5.7502506.6771137-.449929.8656065-.6475881.1924724-1.329991-3.3402121-3.3862051-4.159277-9.6675215-1.851393-13.8258841,1.5671834-2.8237408,3.9291368-4.3249452,7.4627357-4.1461602-1.5492164-1.1847113-2.9178994-2.2408588-4.2980605-3.2818047-.502484-.3789973-.9569193-.3813602-1.4858856.0784009-1.1708263,1.0176092-2.4863691.9733427-3.7842886.2530087-.4905889-.2722706-.9003773-.3109845-1.4511806-.1612642-2.9287923.7961086-5.526014-.1921652-7.1261102-2.7737682-.4704637-.7590261-.9619451-.9470067-1.8175-.9340874-5.931362.0896303-11.825784-.2172941-17.4658331-2.308996-4.5432708-1.6849347-8.2114432-4.3949771-10.2211193-8.9893763-.5978972-1.3668834-1.4139553-2.5897306-3.1313309-2.5408481-1.8090908.0515016-3.0530032,1.0870924-3.8631102,2.6270619-.8833906,1.6792798-.6948979,3.3962347.0240938,5.0862391.8111055,1.9065231,2.0756149,3.497226,3.5355742,4.9346753,3.0949799,3.0472678,6.4866862,5.6718717,10.553158,7.3290512.6442669.2625482,1.3213915.509068,1.9866431,1.204712-1.8138166-.2581515-3.2555345-.9325146-4.6940372-1.587945-3.0542212-1.3916246-5.617283-3.4888424-8.0800009-5.7224588-1.1432247-1.0368711-2.6968158-1.1797586-4.1604804-.387081-1.4277305.7732329-2.1374534,2.1267727-1.8919358,3.6807515.2710562,1.7155942,1.0868547,3.1602493,2.3061466,4.3752177,5.2128897,5.1944216,11.4499544,8.3051738,18.7718034,9.2038247.5377011.0659937,1.0696521.1788655,1.5948875.3935553-1.3260296.4492706-2.6584055.1560921-3.9642112-.004682-3.5400915-.4358465-6.7597798-1.8617591-9.872061-3.5002181-1.2735405-.6704492-2.3265387-.4318083-3.3133274.3321777-1.0162192.7867813-1.0333157,1.968581-.6909621,3.0746865.7655333,2.4733181,2.5568618,4.1384423,4.7412372,5.3218879,5.8563372,3.1728467,11.8652698,2.9240445,17.9186224.5702553.5825308-.226519,1.1520765-.4864117,1.7276503-.7308099.048451.0838875.0969092.1677824.1453602.2516773-.5337653.3318412-1.0444134.7103922-1.6050488.9879446-3.6285842,1.7964312-7.4282538,2.642271-11.4835511,1.9846606-.4922129-.0798201-.940975-.1181756-1.2229497.4395774-.379674.7510155-.8546514,1.4577938-.3052162,2.3404309,1.2410777,1.9936953,3.1127567,2.9257051,5.3661105,3.1481055,2.1534342.2125463,4.2091838-.2970557,6.191635-1.0917158,2.6373805-1.0571864,5.144877-2.3648942,7.4747003-4.0035433.3380082-.2377557.6340909-.6006515,1.2268416-.5600428-.1775926.6532065-.6295626,1.0334547-1.0693375,1.4064679-1.6817159,1.4263881-3.5016227,2.6432367-5.4936281,3.5997756-.7250745.3481695-1.5420069.7028938-1.3827984,1.7108903.1779657,1.1267866.8446218,1.9021703,2.0221418,2.0686798,1.9569273.2767257,3.708792-.4042725,5.3610847-1.3322442,2.5867825-1.4527973,4.6392363-3.5027932,6.3559133-5.9067524.2183915-.3058197.3314388-.7335313.864436-.8580202.1402978.7372184-.2160212,1.3088636-.5219799,1.8735299-.6338056,1.1697656-1.4974661,2.175326-2.45688,3.0785052-.6909328.6504485-.4555181.953064.266345,1.242292.8555622.3428072,1.7081177.3504885,2.5672207.0326201,1.9175403-.7094851,3.3551432-1.9595682,4.2892379-3.7875075.2863603-.5603866.4675887-1.1846893.9455729-1.6702524.0583782,2.9397729-3.6329882,6.7138564-6.5082233,6.6982669-.7927654-.0042942-1.5583828-.1778413-2.0563384-.7961233-.4972606-.617448-.8399727-.4360587-1.3670589-.0662936-1.7756257,1.2456426-3.6535669,2.2869103-5.8526758,2.5940468-1.1080295.1547607-2.1512578-.0234244-3.1102109-.5978716-1.2470033-.746992-1.8532402-1.8376178-1.5549555-3.446895-2.3491986.8420796-4.5879287,1.0372076-6.866993.5441241-1.5480093-.334921-2.965553-.9358798-4.1135547-2.0669021-1.6098697-1.5860649-1.726392-2.4269813-.6467322-4.8281095-2.4497145-.7511399-4.8650933-1.5678491-6.9120752-3.1885679-1.0397534-.8232347-2.0246328-1.6939694-2.7880116-2.7828834-2.0858384-2.9753046-1.6213588-4.9862793,1.5556797-6.7253564-.1281247-.4787011-.5952782-.5968035-.928791-.8382243-1.9497471-1.4113693-3.8097358-2.9225302-5.203054-4.9125091-1.3179167-1.8823085-2.0153347-3.8820611-1.0434551-6.1812323.6810129-1.6110622,1.8561444-2.4393154,3.5873172-2.5152509.3449177-.0151286.6894258-.0397528,1.1929669-.0693296-.6361063-.8365271-1.224197-1.5270942-1.7204262-2.2783438-1.3744623-2.0808309-2.0873418-4.3219531-1.312847-6.8081613.4528406-1.4536679,1.3182971-2.6337191,2.678761-3.3969882,2.0937319-1.174645,4.1746945-.7623766,5.6387249,1.1288716.2681592.3464065.5387289.7031352.7332204,1.0925352,2.4741009,4.9535714,6.7104619,7.6537304,11.8040788,9.2645512,5.078715,1.6061095,10.3025488,2.1274018,15.6016561,2.0791118.1427778-.0012949.2851313-.0491386.6078792-.1083142-1.2066799-.8768651-2.0921188-1.8308289-2.4818481-3.1267953-.6394678-2.1264361-.2553424-4.0870944,1.3398231-5.6303047.7437439-.719522.5884199-1.0574644.0620433-1.786087-2.4539392-3.3968053-3.4596606-7.1548896-2.4389203-11.311266.3823039-1.5567368,1.1698387-2.8916768,2.5603587-3.7715705.587937-.3720365.8594102-.8751972,1.0081282-1.5297753.2470465-1.0873192.5035301-2.1786436.8576471-3.234195.7091851-2.1139119,2.1870968-3.4713399,4.4045385-3.7391882,3.5756196-.4319107,6.3564546-2.2469271,8.7497405-4.7633924,2.0541365-2.15985,4.4681254-2.9799719,7.3769388-2.2859373,1.5712801.3749006,2.8146476,1.2768361,3.9103797,2.4271862.4666523.4899085.9236628,1.0204257,1.4813719,1.3852674.9912878.6484843,1.9953267.9397753,3.2470192.3756431,2.9792477-1.3427274,5.6077728-.6186697,7.6857506,1.9337955,1.2823447,1.5751611,2.1253534,3.3643608,2.5602124,5.3476424.087143.3974398-.0196423.9523763.6803765.8753691-.7138086.8734744.1959546.8558695.6051359,1.0439343,2.2980299,1.0562171,2.7713102,3.7060268.9540223,5.4368995.2061452-3.2448757.0219906-3.8903387-1.4349181-4.8449682.2491753.8046532.4768356,1.5554712.714467,2.3031216.2794764.8792756.08865,1.6375262-.5244087,2.3230711-.1839205.2056733-.6219178.3624422-.3491864.7636093.2048869.3013755.4928786.5231577.8983729.4986506.950884-.0574893,1.7906446-.3218847,2.3741191-1.1555514,1.3565757-1.9382726.8911085-3.9591415-1.1362383-5.1920806-.6905012-.4199425-1.6244935-.3991955-2.1070719-1.1774359ZM47.7549172,46.2059079c-.8990825-.5535612-1.8749564-.4286114-2.6993763-.85922-1.7856919-.9326682-2.8021672-3.0119556-1.8128473-4.324755.736838-.9777687.5070269-1.3465754-.3237794-1.9740164-.9689754-.7317902-1.0419847-1.2731052-.5567508-2.0694772.7642274,1.8787751,2.3672132,2.1873089,4.1062831,2.3626702,1.8231696.1838547,3.2978623-.5214971,4.6744827-1.6444065-.2918031,1.2413776-1.0306821,2.0236159-2.1026094,2.4761566-1.1828604.4993602-2.4251598.4752774-3.6483216.2031751-.5474235-.1217748-.7759835.0274407-.9940019.5129159-.7362673,1.6394978.2013462,3.1971271,2.3240075,3.6470926-.5659026-.8637995-1.4834861-1.3437516-2.060084-2.4407639,1.9422742.9901685,3.5435262,1.1527423,4.7688681-.7418784.3774244-.5835696.8439524-.1230989.7668757.2370534-.2245365,1.04911.4092032,1.3680319,1.1241238,1.7934611.4186476.2491168.5073122.7843452.3310657,1.296354-.1767659.5135305-.5489158.7860936-1.0677866.8215668-.5280518.0361096-.7618864-.3543877-.9522959-.7683241-.0666594-.1449286-.1508469-.2870407-.1869199-.4399066-.1778925-.753854-.6568642-.1916531-.9324414-.1596182-.5394422.0627017-.2495118.447566-.1168734.6972242.8286336,1.5596045,2.396673,2.0818185,3.817077,1.0574424.9187833-.6626216,1.5842214-.5016354,2.3277165.0703611.6949564.5346578,1.3770959,1.090282,2.0261032,1.6793895,1.1143502,1.01153,2.3739947,1.7962849,3.8180353,2.1698467,5.332137,1.3793637,10.3915792.7793926,14.9697672-2.4202657,5.0156585-3.5053975,8.043167-10.7399463,3.4945485-16.8687699-.7221629-.9730428-1.0932741-2.1157627-1.2670113-3.3217842-.1358061-.9427125.5950185-1.7373214.4171918-2.6838307-.1869345-.9949712.0700977-1.8090981.9786758-2.3676704.2223126-.136673.5193024-.3361537.3483231-.6683863-.1629322-.3165882-.4951903-.208029-.750818-.1421267-.7709138.1987345-1.5223683.4874797-2.3013439.6379169-3.5364374.6829808-5.8753028-.5533527-6.9628269-3.6660582-.2515163-.7198951-.4208935-1.4684965-.6816128-2.3939443-.2893158.6115443-.4970046,1.0318233-.6889284,1.4591801-1.6597253,3.6957557-4.6856609,5.4658948-8.5602601,5.8120086-2.3568544.2105309-4.3902146-.6603867-5.825301-2.6618584-.9487405-1.3231619-1.5835044-2.9527946-3.4329003-3.443453,1.1161864-.5318815,1.9833438-.2386446,2.6685851.6157325.4982117.6211863.9122432,1.3090904,1.3859038,1.9509395.8101179,1.0977731,1.8481449,1.9111245,3.2114802,2.1361841,4.8770287.8051031,11.5265959-2.8138977,10.3265951-10.0272606-.0954973-.5740155-.4003807-1.201153.0719851-1.8873307.6460226.6447314.70939,1.3974624.8329864,2.1363487.3362744,2.0104077.7694361,4.0029288,1.6506394,5.8524234.8644799,1.8143872,2.4354016,2.7767054,4.2342176,2.7179432-2.8182907-2.2280786-4.1398834-6.5877251-2.9150683-9.7719658.4705735.6463006.4931274,1.3719128.580958,2.0708013.1093896.8704055.1269469,1.7563602.2914812,2.6150388.3995467,2.0852239,1.431231,3.7120841,3.5254933,4.4741168,1.4539532.5290468,3.2314297.0350452,3.9956864-1.0915293.7103483-1.0471092.5079048-2.6517776-.5156154-3.7208152-.5023376,1.9973677-1.832709,2.7082135-3.8523892,2.278534.1693699.6579579.7692678.8752667.8064967,1.4473948-1.2964565-.3142692-2.1231149-.9803949-2.5491-2.2030776-.8295481-2.3809701-.2621824-4.9831519-1.2205502-7.3637343,1.0244419.4616631,1.2497173,1.3649301,1.4402365,2.2383569.2376972,1.0897114.3208751,2.2128512.552259,3.3042781.3548047,1.6736139,1.6886437,2.2136669,3.172437,1.3403571.762201-.4485975,1.1089952-1.1406716,1.1123604-1.9920712.0109514-2.7697117-1.0896016-5.0756791-3.2126361-6.7887531-1.9207957-1.5498821-4.2691275-1.8446663-5.9626799-1.0153487.7314244.648477.7373135.67399,1.5563345.48504.5969937-.1377228,1.1707532-.1638613,1.7732482-.0288379,2.5906305.5805593,4.9001824,3.7644635,4.6140854,6.4013466-.0418157.3853947-.0543254.8092693-.6097813.956089-.2763746-.5525626-.2799373-1.1470471-.3412709-1.7334003-.2626067-2.5105251-1.9821806-4.7602394-4.1839816-4.8810632-1.5262675-.0837595-2.889932-.4789242-4.3255012-.8493111-1.3981062-.3607267-2.6165788-.9128394-3.7185876-1.8052172-.6513483-.5274447-1.3065812-1.0534445-1.9913031-1.5357485-2.7250466-1.9194679-6.0310658-1.6942291-8.4477468.5844073-.667267.6291529-1.2666894,1.3298008-1.9057769,1.9893681-1.5951874,1.6463268-3.4317664,2.9160742-5.7643477,3.1497259-3.2984768.3304037-5.0769264,2.2041457-5.7603315,5.3187898-.0939172.4280298-.2374119.8451229-.3329678,1.2728638-.2020997.9045874-.6797473,1.6012081-1.478431,2.0836767-1.2496369.7548818-1.8960984,1.9221637-2.1350612,3.3149625-.6484879,3.7797054.3616667,7.19176,2.4067758,10.3448108.2368559.3651636.5745276,1.0722272,1.0329134.7761957.547321-.3534513-.1130913-.8330376-.3146789-1.2031684-1.3966796-2.5644481-1.1263258-6.6972574.6439523-8.8627842.5628447-.6885077,1.1773299-1.3544213,2.3574104-1.2072907-.6752409,1.0307187-1.6322041,1.6737602-2.0370546,2.7608233-.90067,2.4184112-1.2011932,4.9737221-.1172392,7.2391027.758492,1.585187.0128315,1.8781753-.9052349,2.571727-2.1579077,1.630185-2.6625644,4.1914289-1.342208,6.2361648.6675962,1.0338498,1.6161245,1.7338978,2.1337224,3.0518766.9100119,2.317204,3.2330099,3.3942229,5.7437764,3.7530731.4796375.0685468.9439049.0842021,1.4494687-.3730863ZM29.4914795,100.446186c.4832879-.0246095.5913607.2959876.6799083.524833.7095656,1.8337479,2.228715,2.8918121,3.7784362,3.872902,3.4880377,2.2081583,7.3021006,3.4881328,11.4061817,4.0374436,4.3155886.5775928,7.7588185-.7702262,10.445312-4.1745665,2.9012565-3.6764792,5.2196749-7.6515357,6.1570324-12.2934203.8287946-4.1042932.8674061-8.1130818-1.9784131-11.6141485-.1303414-.1603352-.3545633-.3643296-.1219724-.6453788,2.0717816,1.097817,2.9109569,2.9794672,3.2172668,5.1576829.1038517.7385059.3854496,1.0928424,1.1202758,1.3037501,1.6134763.4630897,3.2212684.587542,4.8451474.1859177,3.2030161-.7922094,6.0752518-2.3732339,9.0070654-3.8167258,2.4678095-1.2150343,4.040048-3.1779749,5.0076992-5.6972494.7484843-1.9486826,1.195948-3.9640978,1.4400682-6.0339554.0730678-.6195476.0639819-.9631741-.7025938-.6306965-2.3971339,1.0397095-4.8962686,1.0382464-7.4115195.6129197-1.9961826-.3375473-3.95965-.3597354-5.917777.2299281-1.1306858.3404882-2.2862373.2638065-3.4422203.0817221-3.8302743-.6033436-7.3562504-2.0680799-10.7858221-3.8008291-1.1946019-.6035558-2.3631238-1.2587228-3.7668776-2.0098042.4873481.9795024,1.0421456,1.6001181,1.6811233,2.0970934.999569.7774393.7557999,1.2377637-.157087,1.9145336-2.3689836,1.7562541-4.7888103,3.4601361-6.686701,5.7792495-2.3441619,2.8644665-2.9486613,6.0304001-1.8111793,9.5336029.0648159.1996051-.0916274.6022097.3808993.5925312,1.0360444-.0212298,1.0665869.0023483.6357442.9701751-.9123675,2.0495423-1.5806441,4.1716988-2.0342966,6.3669671-.1513078.7322145-.0935295,1.3766277.2972386,2.0568725.7743522,1.3480092,1.4450209,2.7579081,1.9252728,4.2416063.1709427.528125.4639236,1.0796598.2192839,1.7018337-.6346688-.1572114-.7337435-.672622-.9378769-1.0815033-.5696554-1.1410227-1.0422626-2.3369853-1.6860247-3.4332514-1.650632-2.810902-4.3674486-5.1260577-8.4427795-2.368252-1.7599265,1.1909441-3.6569028,1.5322297-5.8094847,1.0854391-3.0849466-.6403311-4.1661244.0914884-4.9782358,3.0991497-.3909692,1.4479544-1.0785478,2.6361771-2.2254523,3.5905506-.6130331.5101141-1.1917232,1.069418-1.5847883,1.7799931-.1577747.2852484-.2624092.610469-.0184352.8941079.2308608.2683641.508373.0836169.7740449.0157285.5013976-.1281101.9773846-.5428878,1.6095149-.1593768-.3347564.5201364-.9155242.5226091-1.3309493.7887053-.6001979.384462-1.2673625.9412494-.828736,1.6165635.43303.6666964.9175214-.143385,1.3538543-.3780536.3400968-.1829183.7388827-.6156776,1.0514985-.2614582.3878455.4394604-.2279675.6743631-.4756615.8922936-.6218117.5470723-1.1632035,1.1024405-1.0989034,2.0080338.0211493.2978897.1426937.552837.4398518.6484221.3133328.1007645.4105347-.1705696.5095069-.3781999.1509786-.3167199.4188671-.4976045.7274631-.5763053.5334983-.1360694,1.0451047-1.0791916,1.3114607-.7126235.4410296.6069868-.4573872,1.0114641-.8310734,1.4773337-.3946855.4920739-1.3835848.9416005-.7952052,1.6048586.6754202.761389,1.2309639-.2069133,1.7601167-.6125758.576971-.4423135,1.0638362-1.3792906,1.8839948-.8924838.725316.4304769.4808884,1.3483165.3237063,2.0953231-.0826219.3926554-.1587294.7770443-.0476463,1.1816387.1006914.3667291.2851386.6624533.6185856.8410262.3926408.2102492.6862728.0324518.924921-.2854532.1798019-.2395115.3292661-.6240759.0604119-.743144-1.4347791-.6354443-.471444-.8045069.1698746-1.0863609.1176269-.0516918.2147337-.249051.2413184-.3938698.3257546-1.7745357,1.400235-3.2002362,2.2008793-4.7523642.4931127-.9559244.5039032-1.7084908-.4619411-2.4846865-1.0879703-.8743413-1.8372227-2.0470111-1.8353061-3.5639951ZM79.0317582,45.0782654c1.1010651-.0767768,1.8897338-.1137058,2.6746204-.1896998,2.9785235-.2883867,5.3911078.7968475,7.3267687,3.0186274.7338971.8423796,1.4164609,1.729267,2.1354635,2.5849024.6944809.8264682,1.4891557,1.5373725,2.5281117,2.12896,1.8402148-6.2817774,3.8036822-12.4444062,5.7684225-18.6294206-1.8842838,1.5137213-3.7399198,2.9853342-6.2383741,3.9942014.6192915-.8178505,1.2264977-1.1856403,1.7879232-1.6039953,1.5043281-1.1209708,3.0129724-2.2269154,4.2752286-3.6429154.6941736-.7787122,1.1109411-1.5905786,1.1940605-2.6498133.1474378-1.8791336.8471274-3.4910224,2.6390009-4.4051384.3526393-.179897.516581-.4749628.688804-.7914706,2.6181516-4.8115837,4.3163421-9.9447411,5.200574-15.3342797.3883978-2.3673559.2049528-4.7181018-1.2868365-6.7614587-1.0526069-1.4417801-2.7322305-2.0950085-4.1731034-1.6772534-1.9153895.5553279-3.1668626,1.9578893-3.299245,3.8117622-.0593585.8314172-.0675958,1.6900995.0718973,2.5072257.2983725,1.7476803.0506383,3.4153795-.4910936,5.0674454-1.3494138,4.1152337-4.0569469,7.286866-7.145533,10.1718234-1.3986036,1.3064056-2.9567011,2.4427537-4.3471479,3.7570748-3.2137114,3.0377722-5.5324225,6.690666-6.2586821,11.063199-.7759543,4.6717174-3.1067872,8.2011612-6.8048985,10.9743734-3.193857,2.3950782-6.8661151,2.8118311-10.6941143,2.6269083-.8429429-.0407184-1.6895435-.0059549-2.8679122-.0059549,2.0677946,1.3676222,3.6060157,2.7913621,4.4458422,4.8164339.1842351.4442301.5550609.3864665.8985558.4229931,2.2053345.2346247,4.3228017.7599405,6.2265595,1.9446079.4789279.2980213.8700982.2377557,1.3267063-.0287502,2.6186637-1.5284695,5.4854566-1.9460783,8.436159-1.6216844,1.2194675.134065,1.7595388-.2773256,2.0884903-1.3432614.1107503-.3588941.1361133-1.055277.7126015-.8730245.4859288.1536122.2263435.7654345.2059696,1.183431-.0074692.1532976-.1215261.2996381-.1390835.4545743-.0369948.3264642-.6079158.79308.1001281.9461581.6870702.1485498,1.5414912,1.0381732,2.0443994.3217969,1.3227413-1.8842106,2.9474031-3.1637535,5.3268918-3.5466134-2.2451897-1.4218964-3.7638343-3.430413-5.3920369-5.3343171-1.57575-1.8425777-3.511506-2.8043619-6.0181392-2.5135318-.9054617.1050515-1.8967129.1292074-2.9469788-.8439158ZM75.9356956,94.7624485c-.455401.8568424-1.2626732,1.1640814-1.9792178,1.5315566-3.935911,2.0184511-6.7478737,5.0194261-8.2726123,9.2069119-.490545,1.3471752-1.0931936,2.6536174-1.6481447,3.9771927-.5993566,1.4294899-1.5803807,2.4089412-3.0662956,2.9923864-2.7617268,1.0844149-3.1866804,3.5914285-.9040205,5.419836,1.3510452,1.0821617,1.7427057,2.2811091,1.1612868,3.8831292-.3179197.8759799-.4671132,1.8027738-.0097663,2.6794267.7205755,1.381178,1.5095295,2.7203792,1.3911271,4.3788609-.0285526.4000295.2947074.7627351.7379207.82025.4438058.0575735.5817115-.3501667.7575044-.6534113.4808153-.8294676.3849229-1.7813245.5476941-2.6778173.2931126-1.6144127,1.0616928-2.3749823,2.9111252-2.6962525-1.2172728,1.3092367-2.7133417,2.4053127-1.9166917,4.481191.3578334-.2598634.4961121-.6023048.57354-.9995983.0528403-.271144.1317825-.6046604.4926445-.56779.9541467.0974433,1.1105973-.6579323,1.3257333-1.2649483.347299-.9799487.5068879-2.0141642.5567435-3.0526374.1304877-2.7183455,1.2140979-5.0194407,3.0580582-6.9704716.903662-.9561439,1.8574868-1.8709402,2.8442975-2.7412871,3.3328161-2.9394803,6.4015697-6.131684,9.1773204-9.5975482,2.4953306-3.1157122,4.488448-6.4994812,5.201803-10.5056874.9687998-5.4407878-2.1756333-9.1049768-7.4133264-8.6432186-5.7945171.510853-11.8303892,5.6462819-13.2726448,11.3101943-.2096713.8233957-.2210031,1.6461183.133904,2.4623155.2638138.6067234.50413.799269,1.1179056.3295075,1.363723-1.0437404,2.8163375-1.9631016,4.3751958-2.693575.6316621-.2960022,1.2768581-.6419405,2.1189157-.4085156ZM50.8480828,60.1339026c-.0259776,1.5798832.2550644,3.098484.9472116,4.5249526.1390469.2865579.1822672.81172.6883504.6326058.7120602-.2520138,1.2369883.1531147,1.8041637.4034532,2.4436023,1.0785478,4.8542114,2.2362647,7.3245594,3.2487091,3.301169,1.3529545,6.6907831,2.1342199,10.2649395,1.0799158.9791586-.2888257,1.9728533-.1546949,2.9576961.0392699,1.8087945.3562386,3.6328199.4952123,5.477446.4212959,2.7214766-.109075,5.8428803-1.5972723,6.7059629-4.9816851.1880684-.7374744.5346724-.8031023,1.2136809-.6106372.9862474.2795569,1.9717267.6975534,3.0426078.4851314,2.5715076-.5101068,4.6917621-1.7728019,6.2580969-3.8812637,1.1458217-1.5424056.9831968-2.1007878-.7094192-2.9373222-.2858043-.1412489-.5852742-.258649-.8585543-.4206375-.5854497-.3470283-1.2369005-.6827028-1.1532251-1.5131141.0769304-.7631886.7263474-.9780247,1.3182641-1.2344059.3472112-.1503933.9549441-.1538316.9104655-.6062113-.0457369-.464882-.6480709-.6135122-1.0555184-.5919386-2.5295016.1339187-5.2131421.2480414-6.7199502,2.6255623-1.0245663,1.616622-1.9730069,1.6990391-3.6353731,1.1902565-3.9653122-1.2136297-7.8092812-.84276-11.32732,1.5648571-.3585357.2453639-.7713382.4137608-1.1660127.6031753-.2502727.1201069-.5312049.0910202-.5473064-.2192693-.0704562-1.3576438-1.2098622-1.5511111-2.1199619-1.9492606-1.3191347-.57711-2.7294213-.8717881-4.1320046-1.1790783-.3796045-.0831706-.8191966-.1172099-.9746376-.5714843-.5299173-1.5487116-1.6981905-2.5853413-2.9330207-3.5212723-4.0633115-3.0797928-8.8429261-1.7539497-10.7581254,2.9570303-.5769052,1.4190506-.8619487,2.9027781-.8230153,4.441365ZM90.9773236,86.1390038c1.2181287-1.4244203,2.4390081-2.7722612,3.8300036-3.9743835,2.2104261-1.9103052,4.6368368-3.5270662,6.9758705-5.2625953,1.6421533-1.2184506,3.1763874-2.5522677,4.4256512-4.1808872,1.4493736-1.8894924,2.6312903-3.9195461,3.2829313-6.3395923-1.5021481.0788983-2.85263-.0193936-4.176571-.3396981-.3529173-.0853872-.6216471.015626-.899024.184696-3.1670674,1.9304596-6.6869351,2.7635557-10.3040412,3.2535374-.6853657.0928345-.9561585.3496765-1.0625706,1.0083404-.3433924,2.1255729-.7910755,4.2351686-1.1003628,6.3651821-.4457518,3.0699021-.954871,6.1361611-.9718869,9.2854005ZM104.2405678,25.3386352c1.4363519.2880063,2.5822029.7111238,2.804874,2.217332.1848935,1.2506318-.3773513,2.1685665-1.3623477,2.8496598-1.5350389,1.061444-1.5469632,1.0494831-.6816933,2.7181041.1833719.3536196.412027.6841732.5888442,1.0407191.410403.827529.793358.7434293,1.3490773.0826805,2.8577801-3.398027,5.5034529-6.9451964,7.5835596-10.8775117,1.4128836-2.6709443,2.3942369-5.4825523,2.2703552-8.5729307-.0960241-2.3953562-1.7936001-4.4662197-3.8445469-4.6921571-1.7300717-.1905923-3.2232217,1.2207184-3.8846362,3.678619-.3210361,1.1929669-.6566009,2.3775903-1.1120824,3.5316567-1.0678964,2.7058579-2.1750334,5.3914699-3.7114037,8.0238283ZM96.4993433,56.8170345c1.1843162.5117455,3.3161732.4428402,4.2733266-.1729326,3.3173583-2.1341833,6.0951793-4.8747755,8.6984511-7.8077669.340554-.3836866.5020523-.7822969.3075316-1.3068811-1.138433-3.0704581-2.8955138-5.7565786-5.0473715-8.2020537-.3480598-.3955597-.6306453-.4721317-1.0485687-.022766-1.6424313,1.7659326-3.6362144,3.1042487-5.6089725,4.4588639-.5185124.3560557-.8860315.7489525-1.0631266,1.3666127-.680552,2.3737387-1.3711557,4.7451657-2.108096,7.1017933-.1886537.6032851-.074648.7514252.5369476.7634739,1.0117714.0199276,1.9774547.264004,2.7904916.9169251,1.0230374.8215668.9570071,1.4393367-.1757344,2.0765513-.4989944.2806981-1.1267135.3414904-1.5548787.8281801ZM120.3715268,28.1569113c.0661766-.8939031-.0526281-1.7545496-.4185672-2.573117-.4491608-1.0047814-1.2421823-1.5811708-2.3253243-1.5995036-1.0870631-.0183986-2.3349223-.217327-3.0309833.9059591-2.1694297,3.5010301-4.6051166,6.7972026-7.3891266,9.8296198-.5706869.6216032-.478306,1.0465935.072307,1.5858015,1.196065,1.1713018,2.3186086,2.4194317,3.5406146,3.5619175.8885188.8306893,1.6537119,2.4847743,2.6310416,2.3409357,1.0433307-.1535463,1.6993025-1.7552519,2.4361697-2.7905501,2.4103019-3.3865269,4.3081779-6.9852637,4.4838685-11.2610629ZM89.8139006,87.4822506c.1746517-1.9477024.291569-3.5591742.468591-5.1640108.4192841-3.8011071,1.082864-7.5661339,1.7683467-11.3257106.1663851-.9126163.0181133-1.3636133-.9991301-1.5342488-.9712432-.1629102-1.8922723-.5956549-2.7588006-1.1041157-.2565055-.1505177-.6199792-.5281908-.8425112-.2333518-.7255793.9613013-2.0377862,1.413542-2.0511371,3.0077564-.0329347,3.9328604-1.3062813,7.4959411-3.7258666,10.6272135-.1501007.1942501-.4476465.3651709-.2146313.8000517,3.5826718-.0255679,6.5533091,1.2249103,8.3551391,4.926416ZM98.6243676,58.3086335c1.3218195,1.8148591.4869677,3.1261442-.6807569,4.35946-.7154619.7556536-1.4716715,1.5293035-2.4075658,1.9449444-1.4036953.6234248-1.8464184,1.686332-1.9473,3.0845259-.0430009.5955818-.0271846.9175104.6973778.8058164,2.8414079-.4380046,5.648857-.9952748,8.2683107-2.2426512.4637188-.2208202,1.030748-.3980397,1.2347643-.8925863.3763417-.9122944.8709468-.8765652,1.6853736-.5348407,1.9063767.7999054,3.5896874.6473686,4.9484212-.2957023-.77662-.8936543-1.336158-1.8837205-1.339333-3.109472-.0016533-.6359856-1.2393-.7562974-.7773662-1.3859477.3263765-.4448812,1.07767.2952341,1.680443.1035298.6217788-.1977396,1.4085089-.4845535,1.4820449-1.0484662.0742676-.5695603-.7403055-.8499146-1.2880948-1.0513559-2.142962-.7880542-5.6420389.5516884-6.8057106,2.5685887-.3055417.5295662-.5889758,1.4518975-1.2907723,1.0765068-.8210986-.439219-.143663-1.2290728.177417-1.7476876.5889466-.9512717.1031348-1.2837347-.705147-1.5096319-.8944298-.2499727-1.8030079-.2632285-2.9321062-.1250303ZM111.6557671,56.2959544c3.2503478-3.7134228,3.7311704-7.650753,1.5305325-11.7786682-1.0820886-2.0297391-2.6163959-3.7068022-4.1786779-5.3604263-1.4790602-1.5655155-2.9952541-3.0988864-4.1826575-4.9111923-.9245553-1.4111352-1.6407341-2.9204306-1.9459978-4.5880128-.113757-.6214204-.1847179-1.3816169.6229347-1.6056633.8209084-.2277115.8235859.555712.9917706,1.044194.3016352.8759799.749055.7113213,1.1859842.1616885.4501704-.5662903.409013-1.2002934-.0154797-1.7715802-.4196938-.5648272-.9988521-.7903806-1.6885779-.5726987-.7281324.2298184-1.2056191.7432318-1.5168816,1.4309896-.9092511,2.0090945-.6566448,3.9633736.2889354,5.8748127.8911524,1.8013911,2.1448348,3.3542507,3.4252043,4.8845344,2.3043433,2.7540967,4.0876577,5.7865943,5.0013566,9.288634.6679546,2.560205.6810056,5.169278.4815541,7.9033886ZM92.9660004,91.8596045c-1.2776628-1.7247753-.9702483-3.1022223-.0252094-4.4688277.7554195-1.0923889,1.6430019-2.0550436,2.6539247-2.9084843,2.2332799-1.8854103,4.6844611-3.4516062,7.2099392-4.9081564,1.9325665-1.1145989,3.9550558-2.0771366,5.7488022-3.4261114,1.5902128-1.1959114,2.9055654-2.6112018,3.6409548-4.4956685.377322-.9668831.3655732-1.9332761.0444055-2.9241396-.2822929-.8709322-1.0970269-.6911962-1.6865149-.8736829-.5526029-.1710744-.5432828.4855996-.664092.8037607-1.2102426,3.1870682-3.2915636,5.7005707-5.8854715,7.8559472-2.3971778,1.9919176-5.0111156,3.6890473-7.4650182,5.6010571-1.8674287,1.4550432-3.6558201,3.0304127-4.6904453,5.1999522-1.0366004,2.173702-.8626949,3.3023614,1.1187249,4.5443535ZM116.6864591,50.521994c.8175432-1.3151258,1.6825206-2.6036375,2.4395349-3.9527221.7854426-1.3997449,1.3045401-2.8995154,1.2459425-4.5475138-.0342222-.9621426-.214463-1.8467476-1.2229277-2.2563605-1.0334254-.4197523-2.0104479-.3503715-2.9000641.4099055-.7370574.6298991-1.2398852,1.4473033-1.8542899,2.1752017-.4460737.5284835-.3655586.9194344.001112,1.4515025,1.3799051,2.0024154,2.3224127,4.1597159,2.2906924,6.7199868ZM69.4137045,88.0045232c-2.0596816.1742274-3.8565883.0632796-5.577062-.6547135-.6359417-.2653939-.4996894.3006988-.4973411.6014854.0128534,1.6397392-.227887,3.2505965-.4939028,4.8613514-.3858959,2.336722-.220769,2.5886991,2.0823745,3.3086821.1138301.0355829.2376241.0483412.3432242.0996233.5251768.2551083.6789646.0212298.7546075-.4843779.1351257-.9030914.3440289-1.7898399.6422112-2.6611525.6063942-1.7719753,1.4950374-3.3924599,2.7458886-5.0708984ZM110.2073591,49.2988834c-2.6476918,2.9102107-5.45577,5.5133947-8.9491261,7.8597.5835184.0447127.7699189.0614288.9566559.0729508,2.6369087.1626981,5.2149856-.7621205,7.8629994-.4226785.6257292.0802224.5907462-.4423281.607572-.8046971.0591097-1.2736246.0958192-2.5494073.0948389-3.824334-.0007169-.9397204.0003511-1.8945329-.5729401-2.8809412ZM100.8279463,33.2244664c-1.3076419,3.4179692-2.3305915,6.7165119-3.267115,10.3345691,2.2746275-1.5280671,4.155707-3.0484675,5.8892902-4.7535712.2368486-.2329494.4455177-.4529796.155997-.8060212-1.1406716-1.3910393-1.9747626-2.9707397-2.7781722-4.7749766ZM110.370423,61.9871538c1.0871217.4188671,1.9081032-.0235268,2.7240078.1084605.8209815.1328067,1.6118961.3669339,2.3971631.6466005.6415747-3.3577841-.4351588-4.8690547-3.4264041-4.6275973.8520581.7453313,1.7291353,1.363723,2.0457382,2.5502998-1.5813464-.4944295-2.5326327.4127293-3.740505,1.3222365ZM110.4549031,63.6692793c1.4375663.5748495,2.5354272,1.2386343,3.8406989,1.287985.4671279.0176598,1.066009.0553422,1.2226205-.496851.180153-.6352687-.4286773-.9194783-.8671427-1.1104876-1.3360702-.5820261-2.6752276-.6091595-4.1961767.3193535ZM88.1686455,65.9914945c1.0274486,1.1590556,2.274964,1.9096614,3.7405635,2.2018962,1.0614733.2116392.8025463-.7190904.9088268-1.2753437.073258-.3834598.1515931-.921351-.51345-.7260987-1.4065337.4129634-2.7465177.052833-4.1359404-.2004537ZM78.9833438,27.9812719c2.1503141-.1545778,3.4052621-2.1296257,2.6843282-3.8677629-.4811079-1.1599444-1.345339-1.3658446-2.4820383-.5316548,1.0215157.3808445,1.7622675,1.0402618,1.789518,2.1393554.0288745,1.1644837-.7772784,1.7999865-1.9918079,2.2600622ZM110.6942536,66.2692298c.7075903.8734853,3.0323587,1.136809,3.8644745.4358758.1112989-.0937635.269198-.2715171.24314-.365244-.12157-.4373316-.5407517-.5518128-.9068223-.661356-.5313731-.1590403-1.3425664-.7825675-1.5596191-.3016352-.3860861.8554671-1.1128432.5916241-1.641173.8923595ZM114.8709124,57.8543664c.5650247.6304697,1.1134723,1.032116,1.3172107,1.7067204.0768719.2546035-.0098321.8535285.5982227.5931603.6118297-.2619776,1.294708-.5076853,1.4558552-1.2534044.1075534-.4976264-.3521126-.6722123-.7223239-.7858156-.7920412-.2430595-1.6031321-.3999271-2.6489647-.2606608ZM121.3358933,57.3137757c-1.3399767-.2581588-2.3500363-.9948871-3.2329953-2.0143544-.3078534.6294089-.9335241,1.1306127-.4541062,1.7065815.614039.7377085,1.8087433.1943086,2.5325156.9501378.1306559.1364425.8065114-.1462527,1.1545858-.6423648ZM93.6507662,88.8624337c-.5575628.0428107-.4491169.5290029-.4340469.8621974.0331102.7332094-.0258971,1.6809404.9504816,1.7597144.6629654.0534914.9174299-.7505766.9616598-1.3078175.0738286-.9302468-.7494793-1.0665503-1.4780945-1.3140943ZM29.4380393,62.6007904c.9730209.4830977,2.0016692.5520323,3.0382111.4089838.628136-.0866967.7976303.0330737.8231982.7050153.0634844,1.6679114,1.0722199,2.5828174,2.7375123,2.7060042.9189954.0679835,1.8022178-.1892828,2.7114543-.2843266-.0864334,1.9057183.6906182,2.679039,2.5632117,2.6260743,2.3869799-.0675226,5.5842313-2.4926897,6.336688-4.8157682.013329-.0411427-.0763306-.1156371-.2522113-.3647466-.5566923.6003296-1.0763897,1.1859256-1.6230524,1.7451564-1.260142,1.2891482-2.7139416,2.2289198-4.5622181,2.3935858-.647237.0576613-1.3635109.0602144-1.7197934-.5689605-.3526539-.6227518.1271006-1.1547467.5217239-1.5915004.9632546-1.0661187,1.9918079-2.0734349,2.9501171-3.1437747.7036765-.7859327,1.3717921-1.6147565,1.4261614-2.8567267-.4970119.294166-.7563486.807499-1.1316442,1.2136809-1.2991925,1.406124-2.5674621,2.8511376-4.2330764,3.860985-1.0953809.6640993-2.2655196.9696557-3.5441188.8213766-.8663892-.1004719-1.3473728-.6255536-1.556393-1.4373249-.206094-.8003736.2000513-1.3019431.8498707-1.6565137.6648236-.3627567,1.3591728-.6728414,2.0146763-1.050917,1.578603-.9104874,3.1708496-1.80897,4.3791828-3.2413862-.6147632.1101285-1.1523984.346582-1.6856297.5925897-1.8821622.8683425-3.7104966,1.8562652-5.6644903,2.5648797-1.054721.3824941-2.1285942.6857461-3.2683002.6331179-1.0344789-.0477633-2.2775317-.9507523-2.4153057-1.8380933-.178518-1.1497941.685234-1.605517,1.5133555-2.0306535.9669636-.4964267,2.034443-.6870848,3.0780663-.9487478,2.742699-.6876628,5.339438-1.7591145,7.8875796-2.9791453-.6960903-.2063354-1.3169766.0794616-1.9461441.2182451-3.2288034.7122869-6.3817811,1.7562029-9.6789631,2.1740751-1.2784126.1620324-2.4884247.0487216-3.5258225-.7595089-1.4886619-1.1598237-1.3625672-2.7563352.2626908-3.6664276.7347859-.4114491,1.5027041-.7415711,2.3660537-.7800217,1.4351814-.0639234,2.8716212-.1129084,4.3043446-.2134681.8364905-.0587074,1.7163989-.0206738,2.5050676-.5951063-1.8396296,0-3.5887217-.066257-5.3311348.0134899-3.8982614.1784119-7.3168159-.9934825-10.2636264-3.5211625-.6065807-.5202973-1.0776809-1.1985304-1.6112268-1.8039735-.0674275.083551-.1348551.1671094-.2022826.2506604,1.7247021,3.4781836,5.1417935,4.5301979,8.5732745,5.6206189-2.0767489,1.3838994-2.5391984,1.9733727-2.2792216,3.3103427.4359526,2.2419196,2.3107407,2.862506,4.2648296,3.4982941-1.3239739,2.2416562-.8873703,3.6616652,1.3873852,4.7910781ZM29.7997645,46.9133666c3.9256911.223922,7.5679628,1.6397611,11.3363181,2.5974851-3.4972992-2.0345893-7.3157076-2.75466-11.3363181-2.5974851ZM58.0612336,19.9257343c1.9398674,1.8353317,5.6155565.843005,7.0889032-1.4563417.2616484-.4083437.5654636-.8867155.4199864-1.3337987-.2780279-.8544246-.0420718-1.6583756.0323055-2.4814164.2511725-2.7794341-1.5549664-5.8173673-4.0880746-6.8608114-1.7256458-.7108311-4.4988361-.1636528-5.6671824,1.2020052.7727135.2189913,1.5383016.0373971,2.2523808.2717731,1.947717.6392776,2.8884396,2.1290917,3.5410609,3.9274542.208713.5751421.2371632,1.2961236,1.0404703,1.736535.0376239-1.5540081-.4469369-2.7853085-1.1810023-3.9426523-.7650395-1.2061678-1.9897376-1.821081-3.554858-2.3938345,3.8283649-.7280556,7.2615505,2.3642431,6.919153,5.8371888-.0599657.6082597-.2780425,1.1498014-.625678,1.658061-1.456755,2.1298269-6.224182,3.5749977-8.6705056,1.2469557-.5044811-.480102-1.088102-.877048-1.6352474-1.3123202.6492707,2.1230198,2.749005,2.5962488,4.1282883,3.9012023ZM49.4351553,26.5072595c.6702517.0864626,1.362794.0868869,2.0079753.2628774,1.3472557.3674899,1.7863796,1.3705704,1.1155573,2.575853-.859915,1.5450685-2.35098,2.1301524-3.9994905,2.2259131-1.4097599.0818758-2.3020755-.7269766-2.6965671-2.0788265-.0658035-.2255022-.164644-.5300417-.4402944-.4540915-.3191414.0879184-.2957608.4275799-.2712391.7129965.0917225,1.0676476,1.0874948,2.1784352,2.273318,2.5352004,1.8863541.5675266,4.3787292-.2647867,5.5793445-1.863193,1.1062738-1.4728054.9095803-2.9136198-.541154-4.066779-.1862103-.1480084-.6380852-.1828671-.4277555-.5701236.7445339-1.3707533-.3063464-.9153121-.8925863-.8758629-.3938406.0265043-.7789756.1624567-1.1721065.222693-1.8002572.2758552-2.2987761-.0807857-2.6309611-1.8447358-.0571053-.3032264.012773-.6489817-.349596-.9729587-.7554853,2.2820747.2206739,3.9040041,2.4455556,4.1910375ZM48.5187276,37.9407722c.9184907-.3686165,1.7823414-.9138526,2.1001879-1.8422266.3508836-1.0248882.4333007-2.144352.5940967-3.2283499.0205421-.1384836-.1707379-.3354697-.3088337-.4521748-.0364095-.0307766-.2577126.1184609-.3653977.2165552-1.9886988,1.8116695-4.0802689,1.7642647-5.9437984-.1806139-1.2025027-1.2549992-1.912595-2.7306137-1.8192777-4.5206072.0157943-.303091.1226673-.7303637-.3304732-.7498011-.3167565-.0135923-.3413441.3961303-.4048285.6487952-.0669886.2666156-.0708951.553115-.0737043.831216-.0445079,4.4005076,3.7941354,7.3816793,8.0189891,6.2344457.1032006-.0280186.2181061-.0129047.4050773-.0214565-.313545.8749338-.8476102,1.4698792-1.5617407,1.9502262-.6799156.4573396-1.6499371.2694614-2.278095,1.0436819.6932153.4299721,1.3269258.327503,1.9677982.0703099ZM59.7508941,40.0512604c1.567081-.0654962,2.51866-.7626253,3.0406618-2.2305293.1032226-.2902742.033871-.7037497.3692968-.8393217,1.358646-.5491426.2600389-.8037241-.1485571-.9673001-2.8201196-1.1290106-5.5096784,1.1353751-5.2468595,4.7187126.5596843-.905191,1.2996387-.6528992,1.985458-.6815616ZM71.3170379,29.1110214c-.9184614.1912361-1.5938267.7155936-1.9093249,1.624991-.6510776,1.876639-.1378032,2.5561083,1.8063145,2.4109895,1.5704754-.1172319,2.1602194-.6607269,2.2592355-2.1726998.039387-.6014196.2302646-1.0619049.7225946-1.4261248.3080583-.227909.6627606-.4702004.5916753-1.1468313-1.1133845.599064-2.3200864.4701345-3.470495.7096753ZM72.3778675,43.8186428c-.5352284.1019058-1.2325111.2226784-1.420426-.4826076-.1940892-.7284397.5499839-.7661002.9940312-.91604,1.2248152-.4135853,2.1016144-1.2716274,2.9167728-2.2025619.4632287-.5290248.2686494-.8803839-.4171553-.9209194-.2716048-.0160577-.5655953.0145287-.8207548.10481-2.0880441.7388132-3.5136714,2.423682-5.2257249,3.6999987-.1038005.0773767-.1206263.2714146-.1779218.4111638.1791947.0448883.3724937.1573577.535243.1233916.8772382-.1830719,1.5812732.1264934,2.332318.5680753,1.1902345.6998066,2.3575128.3559386,3.3349961-.9874984-.8452619.2546254-1.4374858.485307-2.0513785.6021877ZM58.3116306,4.5731731c1.5927513-.2247487,2.9794964.5150301,4.5873617.9136551-2.0271713-3.1075663-6.9433675-2.5590894-8.8996729.916435,1.5572489-.4991627,2.7365247-1.6077409,4.3123112-1.8300901ZM59.7392916,32.6058772c-1.2142954-.4675375-3.9102919.8561987-4.3053029,2.1213079-.0688394.2204691-.1872637.4872456.036234.6643334.2363292.1872637.4516042-.0094078.6218812-.1634516.9947627-.8999677,2.2073024-1.3902712,3.4368141-1.851093.217872-.0816636.47309-.1063244.571499-.4012366.0007608-.2216981-.1756466-.2984456-.3611254-.3698601ZM70.1302637,38.2757005c-.5767369.3277664-1.1956846.3647319-1.8419779.3276494-.2808225-.0161235-.741893-.1922676-.8034461.2265117-.0692857.4713636.4210106.4799886.7559755.5591649,1.4567843.3442996,3.449609-.9772493,3.7046368-2.4529516.1652951-.9565096-.2469441-1.3830142-1.3121337-1.357556.7495744,1.3266697.6108201,2.0641734-.5030546,2.6971816ZM42.9692233,41.2133373c-1.9221271-1.2250419-3.4360533-2.5839367-3.3607615-5.158707-1.4273465,2.0998953.931132,5.6668313,3.3607615,5.158707ZM68.5163119,26.2074239c-.1208019.3674167-.1565969.7544977.1463112.9938775.400783.3167272.6519921-.0828268.8735731-.3400492.6026925-.6996456,1.2379978-1.3436126,2.1282211-1.6823523.2346613-.0892937.6157801-.1595158.4700248-.5394495-.1195802-.3116612-.4764698-.200472-.7095875-.2421963-1.1319734-.0166758-2.6183125.9274083-2.9085428,1.8101698ZM71.5157286,78.0342252c.005077.8794329.6214935,1.1470946,1.3617771,1.1596701.8173823.0138776,1.9129754-1.1828604,1.8775022-2.0317874-.0315593-.755339-.545258-.9936434-1.2161096-1.014383-.8653724.0021581-2.0279541,1.0570693-2.0231697,1.8865004ZM101.3663423,20.8850568c-.5108164,3.2558162-2.2485548,5.7530415-4.8229886,7.6976128-1.5247385,1.1516961-3.1235984,2.2051808-4.6881628,3.3042049-1.1186517.785801-2.2356867,1.5738845-3.3534387,2.3609511,3.177119-1.73956,6.3525701-3.460853,9.225391-5.6621786,1.0863462-.8324377,2.0123646-1.8190363,2.7633216-2.9574985,1.2778969-1.937285,1.8069144-4.0681763,1.5654862-6.37538-.5550024.4479903-.5987641,1.0533421-.6896087,1.6322883ZM93.174289,24.9648027c-1.99807,1.8660899-3.926708,3.7849178-5.0550016,6.3125905,1.7001218-2.10288,3.3839519-4.2026436,5.0550016-6.3125905Z"/>
  </g>
</svg>