<?xml version="1.0" encoding="UTF-8"?>
<svg id="Layer_2" xmlns="http://www.w3.org/2000/svg" viewBox="0 0 138.3079829 129.5265155">
  <g id="Layer_1-2" data-name="Layer_1">
    <path d="M36.6828645,24.7635347c0-.4049761-.0035707-.8099863.0005101-1.2149199.1139476-11.2962366,8.5121331-19.7211343,19.8059213-19.9895654,4.9616313-.1179264,9.4911237.8784075,13.2698438,4.303323,2.6786661,2.4278461,4.388518,5.5053969,5.6931133,8.8011297.4839395,1.2225544.9026883,1.0489421,1.7156246.42992,1.1016694-.8388706,1.8484119-1.926457,2.5173302-3.1095552.3619323-.6401573.3047247-.9465058-.4311612-1.1845775-1.2672815-.4099793-2.0737651-1.2736195-2.0129018-2.6687871.0639919-1.466641.8489918-2.5378235,2.150263-3.1808883.6972374-.3445634,1.3415945-.2981401,1.2666694.7273417-.0533904.7305808-.4281771,1.631624.5392427,1.90434.9296385.2620591,1.2455088-.7141982,1.7484665-1.2154682-.126122-.4339625-.4719946-.3723043-.7033671-.4487554-.8173657-.2700932-1.3975183-.7493355-1.5048347-1.6337664-.1153334-.9504505.1846388-1.8652919,1.0157602-2.2837346,1.0065614-.5067706,1.8590474-1.1119224,2.5818493-1.9679026.2456297-.2908882.6746145-.5096229,1.1773086-.2595171-.5259206,1.0618987-2.0940416,1.5268582-1.8250578,3.0417035.4294439.1761457.656523-.1323835.8877083-.3073857,1.7249509-1.3057898,3.9727788-1.2531348,5.8193628-2.3063703,1.8920423-1.079174,3.9602049-1.8772155,6.1474755-2.1194062,3.6715908-.4065532,6.8984943.7052204,9.0465214,3.7428814,1.3789167,1.9499981,2.9782982,3.5098979,4.9157224,4.8211798,2.7570343,1.8660103,4.594496,4.2686277,4.5606424,7.8031847-.0174284,1.819655-.7134585,3.3411784-1.7842754,4.7198656-.4344513.5593746-.463561.9508161-.0945724,1.578697,1.5893326,2.7042305.6931056,5.9916403-2.1283202,7.285566-1.236123.5668901-2.06029,1.3828785-2.8840149,2.4679441,1.6954162.3272965,3.1631241-.1844263,4.7828586-.8368855-.597666,2.5357023-1.6385741,4.5496498-3.9832783,5.6108938-.7901604.3576304-1.4015481.8310959-1.8950009,1.5447584-.7000939,1.0125381-1.6784469,1.4298161-2.9111692,1.0672547-.6031241-.1773784-1.1662564-.1552741-1.7397098.1666494-.9102887.5110002-1.8985716.7027719-2.951518.6158596-.4212058-.0347632-1.0019025-.2263309-1.1240542.4603134-.1044173.5869114.0094368,1.1882247.6421467,1.3863812,1.8976364.5942824,3.790903,1.2474047,5.7343463,1.6340342,1.2304099.2447795,2.3545661-.4700563,3.2456921-1.3221427,1.0040959-.9601169,1.9786742-1.9646974,2.8590371-3.0377673,1.7194758-2.0958269,3.9435416-2.9918329,6.5906326-3.031289,1.112679-.0165867,2.2416982.0374668,3.3339563-.1308659,3.2199151-.4961988,5.0456616-2.7336037,6.4203275-5.4306248.5670431-1.1124835.9905443-2.2976051,1.4927708-3.4437976.5035698-1.1491596,1.0619242-2.2718281,1.8615384-3.2494669.8905139-1.0887384,1.9286164-1.9730631,3.4548327-1.5142715,1.6057067.4826897,2.7975871,1.4578375,3.0731596,3.2353711.4280751,2.7611576-.4203386,5.3368091-1.2692624,7.885876-.355437,1.0672887-.5911198,1.6881813.8024708,2.2582339,1.5507351.6343422,1.802758,2.2601298,1.6916414,3.8080508-.1207744,1.6825617-.9701574,3.0755486-1.9978369,4.3615763-.3562192.44575-.5899805.8000138-.3426335,1.4727664,1.2072684,3.283737.5742695,5.3973154-2.1496764,7.5957147-.2527201.2039631-.4929767.4402495-.7780541.5842929-1.2180825.615494-1.9063251,1.2629202-1.2029496,2.856274.5168323,1.1708133-.3078448,2.3277349-1.1424858,3.2479621-1.5139229,1.6692226-3.4339187,2.6771953-5.5997312,3.1794643-.9095406.2109345-1.1668345.4880628-.9315089,1.4755975.3702979,1.5539572-.6098404,2.9892314-2.3624047,3.8262274-1.8913622.9032494-3.8912055.7925579-5.8739434.5059842-.7460708-.1078349-1.2981-.0150564-1.9231754.4125766-3.5794669,2.4487729-6.7914756,1.6888359-9.0247401-2.0789426-.6370967-1.0748552-1.0688785-2.2865614-1.9463339-3.1999448-.8108194-.8440184-1.6851122-1.702379-3.0128319-.9133833-1.3023679.7739138-1.6348334,1.7392507-1.1108427,3.3049997.9960704,2.9764194,2.6212119,5.6098736,4.3839781,8.1860778,2.6646553,3.8942491,2.6212969,8.4893487-.0071754,12.253463-.6441021.9223866-1.4221221,1.715004-2.3659924,2.3322408-1.0154712.6640639-1.4158819,1.5697108-1.4837251,2.8015489-.1384579,2.513292.5876511,4.3529981,2.8417957,5.8166593,3.7875193,2.4593235,5.0303416,6.4886128,5.7853562,10.6915737.0327824.1825134.0637624.3674753.0706827.5522162.0754266,2.0155203.8331107,3.4542206,2.7262583,4.5416327,2.2410691,1.2872349,2.5555452,2.9788763,1.5342249,5.3846054-.5979041,1.4084004-1.0485936,2.8799341-1.6504254,4.2704131-.880992,2.0354312-2.3764664,3.5147184-4.4043651,4.6954786-1.7386386,1.0123085-3.3989089,1.1748431-5.2459095,1.1926115-1.9044547.0183126-2.6335903-.9608225-1.9305208-2.7571193.4555865-1.163995.86557-2.3492271,1.3862111-3.4835003.6104185-1.3298792.3059234-2.4474212-.4321729-3.6360199-1.3714863-2.2085418-3.1313109-4.0202945-5.2198604-5.5306808-1.2779511-.9241974-2.5686887-1.8327688-3.883503-2.7033719-1.6795096-1.1121179-3.0879525-2.4802715-4.362656-4.0449323-1.0512376-1.2903805-1.3251438-1.1375379-2.2741405.1519415-1.0048781,1.3654161-1.3900114,2.8908843-1.6502724,4.5123531-.2872963,1.7898695-1.1357695,3.2435327-2.9204955,3.9335777-.813608.3145611-1.6942259.3376856-2.361444-.2952963-.5851771-.5551408-.3662681-1.3156134-.1035841-1.9618409.7412759-1.8236381.4408191-3.5408865-.4187828-5.2261006-.1894933-.3715051-.4469063-.7372631-.5210407-1.1340522-.507523-2.7166174-2.5567184-3.8771777-4.7845164-4.9464133-2.7562096-1.3228738-5.5473525-2.5951118-8.0502129-4.3890621-2.0387213-1.4612977-3.6840287-3.2589717-4.6668281-5.5904134-.5578273-1.3232989-1.4123792-2.3816864-2.5427162-3.2441108-.963152-.7348657-1.9051774-1.5036869-2.4449132-2.6238814-.3244145-.6732797-.950238-.6533433-1.5231132-.7752825-8.4588108-1.8005646-16.760375-4.1467226-24.4697823-8.1247299-6.518258-3.363372-12.8839071-7.0496367-18.0487194-12.4015362C3.4973473,58.6755222-.0757349,50.9135407.0012178,41.6256405c.0814926-9.8364352,4.5674268-17.051208,13.1276112-21.6518507,4.208266-2.2617196,8.8704097-2.5903552,13.5629892-1.807757,3.6665919.6114897,6.4166123,2.7632405,8.7530614,5.5259368.3248141.3840621.6370797.7787427.9551519,1.1685179.0942833-.0323233.1885581-.064638.2828329-.0969528ZM94.7421071,37.6684792c-5.4480022,1.1856147-10.63894.5053041-15.5028959-2.3569891-.247347,2.008532-.406685,3.8100997-.7059601,5.5881009-.2920997,1.7353824-.7271462,3.4467222-1.1754977,5.5203938,2.2887294-2.2837049,4.4362718-4.1849545,6.9276635-5.6334402,4.0785223-2.3712549,8.1782478-3.2674819,12.2634779.0109161.2856895.229281.5378994.5016399.8991176.0220703.4484451-.5954131-.0389716-.7276138-.3900727-.885957-1.0589826-.4775887-1.8365096-1.2249688-2.3164787-2.2675942,1.0083128.4618947,2.0319115.893498,3.0213506,1.3927914,1.4859865.7498371,2.9695075.5211597,4.4595578.0680217.2924738-.0889528.6402933-.1813657.3998496-.6665634-.3059744-.6174494-.4072461-1.4135609-.865162-1.8528157-.3353901-.321694-.98359.2606521-1.5130218.3628079-.8648899.1668619-1.7405769.4179666-2.6144956.2682356-1.0312502-.1766643-1.9782491-.0732757-2.8874326.430022ZM60.6282054,60.227643c-.4610445.1948663-.6254919.3233008-.7919543.3259618-2.9162277.0466656-5.8326764.0809527-8.7491591.1084556-.3378981.0031881-.8484647-.1785007-.7927789-.4237903.3500215-1.5417743-2.6306997-1.684058-1.4418289-3.5186801-.2605246-.1599331-.5105666-.3412137-.7837672-.4753103-.5538825-.2718658-1.042838-.7147848-.7278773-1.2953795.5061118-.9329711,1.1330405-1.7266257,1.4347641-2.8399084.252584-.9319764,1.6189608-.6963702,2.5101378-.5070639,1.4120051.2999637,2.7682394.0713288,4.1421402-.1612168.6782957-.1148063.9781149-.4049591.7035116-1.1327429-.3367759-.8925373-.1807961-1.7311061.4145745-2.4866393.7867427-.9983403,1.4509427-1.0413757,2.0054629.0801961.7950234,1.6080192,2.1700293,2.6244765,3.3867345,3.824187.5800761.571974.929698.582108,1.602119.0931016,2.7763415-2.0190145,5.9010892-3.1582612,9.3552673-3.0166152,1.1259756.046164,1.6081042-.3251201,1.8989797-1.2787333.1620585-.5313192.3987614-1.0399389.5592811-1.5716321,3.1627245-10.4759379,2.3241047-20.5961157-2.6058324-30.3938769-3.5725296-7.1000557-9.1378121-10.5008477-17.2062356-10.3975144-11.5722597.1482135-19.4020079,10.7085558-17.8091556,20.8216432.180201,1.1441181.3226376,2.2941959.4825792,3.4415107-.5722036-.4240793-.9059444-.917073-1.2573091-1.3971698-.602767-.8236314-1.2262696-1.6321979-1.8241737-2.4592895-4.7377658-6.5538119-11.2490015-7.7355158-18.5798557-5.8929871-6.8836589,1.7301284-15.5439376,9.4143793-15.4631124,20.8631525.0730079,10.3423514,4.3014144,18.7676487,12.0359185,25.4488238,5.0538785,4.3656146,10.865441,7.6173939,16.9027266,10.3919501,7.2203073,3.3182452,14.7130925,5.8824451,22.5680225,7.3021527,1.2195363.2204223,2.06534.0124209,2.9385785-.9180762,1.7168148-1.8293852,3.4321503-3.6565259,4.9832255-5.6273785,2.9056091-3.6920033,5.4205079-7.6381379,7.5692916-11.8176684.4947536-.9623443.3821662-1.5090515-.7870063-1.8970753-1.6669101-.5532194-3.276077-1.3059981-4.6936933-2.3870424-.9952882-.7589934-1.2222738-1.1980866-1.166843-2.2608099,1.3987086,1.5683845,3.1012746,2.5799279,4.998554,3.2646933,6.4837243,2.3400538,12.6754679,1.6561215,18.5598003-1.8803951,2.0661221-1.2417426,3.9617182-2.7620587,6.1340684-3.8312688.994013-.4892445,2.0165915-.9541828,3.2838135-.7243406-.15944.2359463-.2116741.3769377-.3127077.4536226-6.6694599,5.0622313-13.6947223,9.1468748-22.5531957,8.1379755-.5919954-.0674266-1.0309697-.0766254-1.2919448.64661-.8223902,2.279165-2.0404642,4.3662862-3.3445578,6.3977216-.3743617.5831452-.4390337.9850948.0502278,1.5782464,1.2688713,1.5383142,2.456654,3.1445735,3.6518755,4.7423567,1.9485273,2.6047952,4.5726553,4.1425483,7.6740064,4.9650149.4824772.1279583.8209534.2041671,1.19733-.28353,1.9832991-2.5698619,4.7148794-4.1432709,7.5708474-5.5274501.3607675-.1748449.7386659-.4738735,1.3366295-.2968096-2.1297995,1.6271479-4.2841007,2.9969679-6.1831995,4.7126605-3.1704185,2.8642401-3.5080786,6.6302247-2.2304845,10.332107.311492.9025692.5793535,1.7505239.4552889,2.6817437-.5508474,4.1345567,1.3825809,7.2705266,4.0855277,10.0601732,1.8788478,1.9391245,3.6304598,1.9588143,5.6303881.2121502.3974862,1.7655718-.8009235,2.3050525-2.2170944,2.6522599,1.2714133,2.1514617,3.1126583,3.4854727,5.093866,4.6120264,4.0198184,2.2857368,7.0457089,5.5491294,9.5208114,9.3863493.2286264.3544508.5428644.7432823.0582873,1.0841305-1.885241,1.3260364-1.6002147,3.6842413-2.5954689,5.4347141-.159695.2808435.1090762.7305468.5708348.7946833.4165639.0578622.5552598-.2619359.6818494-.5652747.2453066-.5877871-.0261171-1.7120964.8573575-1.6155347.7431123.0812248.350251,1.2101589.6403443,1.8142182.0250629.0522001.1320476.0650716.2034615.0966298.5196209-.3290479.4290103-1.272068,1.0894185-1.3234349.5688284-.0442596.1999758.7832061.5847435,1.0906427.3999687-.4809894.7581432-.978387,1.5004393-.654117.3443168.1504282.5823801-.170033.8377016-.3722533,2.719338-2.1539442,4.0825436-4.9326237,4.0347303-8.4292165-.0233625-1.7079136-.5844205-3.0247002-2.1160268-3.8906954-.4757014.5541206.0150819,1.3558262-.6270307,1.817959-.0998944-.1510913-.2012851-.2499655-.2371961-.3686486-.1205534-.3985234-.23201-.8009745-.3217195-1.2074894-.8594489-3.893807-1.6460726-7.8093612-3.5613754-11.3730661-1.0465702-1.9473201-2.3508594-3.661967-4.2212906-4.9078839-.602869-.401601-.9184163-.3919431-1.2152599.3431946-.494592,1.2249008-1.0498518,2.4355018-2.1864205,3.2883704,1.1414146-2.312857,1.6858263-4.718212,1.1688069-7.257519-.540688-2.6553715.2944462-4.7066158,2.4225283-6.3497468,2.6462918-2.0432272,3.6068593-4.8577241,3.435534-8.1094949-.0918858-1.7440796-.7065042-3.3493953-1.4846943-4.8918667-1.741002-3.450939-4.3941801-6.3585885-5.8366212-10.149398-.9498214,1.3480812-1.7744305,2.5280083-3.6791743,2.8280061,1.8472216-1.1669791,2.4192807-2.7909729,2.6952783-4.4768842.5077016-3.1012831,1.5427775-6.0013491,2.9108121-8.8091298.3432456-.7044893.5935002-1.4620374.8170596-2.2157937,1.2144438-4.0946415-.4062259-9.0916141-3.7161225-11.475732-2.9294477-2.1100757-5.9481543-1.5301101-8.9967017-.2893537-4.0113678,1.632623-6.4508654,5.0487732-9.2317043,8.0806913-.4373674.4768576-.0356559.7368806.2589603,1.0211162.6457174.6229925,1.2836812,1.2497766,1.5388073,2.2017065-3.796259-2.6455266-7.7559963-2.6262279-11.8461404-.996572-1.2056106.4803603-2.4083136.9682955-3.6066977,1.4663732-.3440023.1429808-.6997369.3928528-1.0389017.1047318-1.3656286-1.1600842-3.0437099-2.0032524-3.8536877-3.7351662-.2272746-.4859628-.3340128-1.2943678-1.0001342-1.1080201-.7022618.1964561-.7041917,1.0347274-.6515325,1.6790845.0279619.3421744.2430112.6996093.456003.9896346.4179581.569092.2439464.8594319-.3376005,1.1572362-1.6435731.8416464-3.3602094.9441083-5.1502234.6922299-.8089406-.1138371-1.658434-.3677049-2.6084339.1589469,1.030247.6605442,2.0129443.8210639,3.0464475.8253062.2933239.0011987.7244086-.1510998.7813952.329677.0526592.4442112-.1400477.844724-.5904736.9931798-.2998787.0988402-.6428863.1311465-.9588332.1037541-.6915668-.0599791-1.3762047-.198233-2.0675674-.262871-.4382941-.0409865-1.1293593-.2474065-1.1935977.3200531-.0764468.6754221.6990482.6202209,1.1502138.6505293.6410925.0430779,1.2921829-.0936967,1.9400937-.1098838.4125936-.010321,1.0114754-.2862761,1.0489421.486541.0301639.6221678-.4571933.733922-.9307352.8123837-.5006707.0829506-1.0123851.1153759-1.5032874.2353087-.3047247.074449-.669658.2457147-.5414446.6622191.0994778.3231307.4603644.2799679.7138751.2405967.5937043-.0922089,1.1757783-.2578891,1.7687429-.3568313.3497664-.0583723.8051488-.1922563.9698088.2540293.175049.4744686-.2086985.7392185-.5557869,1.0006443-.3765126.2835981-.9772902.1946283-1.3823939.934952,3.270755.0082891,6.3942869-.2879084,9.7392188.4719521ZM115.8099793,62.0149705c.7615949.2542504,1.1014228.3936179,1.4540883.481474,4.2127549,1.0494863,8.091582.2479846,11.635597-2.1934854,1.0319133-.7108825,1.7455419-1.6847296,1.5359252-3.0591149-.1332549-.8736211-.3692267-1.3970762-1.5354831-1.0929722-2.0636567.538146-4.1867398.6495686-6.6093022-.0418366,1.869683-.3760875,3.420197-.6425633,4.9478926-1.0051927,2.7589216-.6549247,5.2905261-1.7418182,7.0885912-4.0778422.8998827-1.16913,1.2737513-2.4290831.7803325-3.9063724-.2784461-.8335953-.6063887-.8510322-1.251613-.3695072-.9317809.695367-1.8864653,1.3943727-3.4254,1.4055439.6606463-.5623162,1.1136482-.9429011,1.5612261-1.3297772,1.550157-1.3399281,3.0370276-2.7358397,3.9989894-4.5883068.5446157-1.0487636.9266289-2.1442693.6757282-3.340103-.1757291-.8374381-.5275954-1.6591311-1.4159159-1.9226568-.8795978-.2609497-1.1353104.625917-1.5640657,1.1174399-1.2333515,1.4138755-2.5183759,2.7494423-4.3304688,3.427551.556518-.7551081,1.1790939-1.4363624,1.7946134-2.1239164,2.7892385-3.1157019,4.3137885-6.7829314,4.6913808-10.9268824.1880225-2.0635971-.5547667-3.5126695-1.9045398-3.9318604-1.2387925-.3847337-2.3910382.2758701-3.4217103,2.1957043-.6983256,1.300761-1.1697931,2.7212253-1.7919439,4.0653618-1.6101956,3.4788329-3.8972076,6.2353996-7.9229942,6.9126836-1.2237956.2059015-2.4964247.1634017-3.7465754.1613613-2.0631636-.0033752-3.8146566.6717834-5.2087233,2.2133367-.8401331.9290094-1.653418,1.8834727-2.518665,2.7883373-2.3618435,2.4699675-4.223773,2.8712029-7.3909269,1.6557645-.7604726-.2918362-1.4896082-.7117752-2.3819585-.7064106-.0147419.177863-.0731482.3265569-.0292797.4331421,1.9102869,4.6406855.9574049,8.9885656-1.3071288,13.2202367-.8458292,1.5806099-1.2820659,3.2789506-1.1696741,5.0869201.0401788.6464485.0778241,1.3173988.7877289,1.6563001,2.7389088-3.4498168,5.7338022-3.0383539,7.5854787,1.0392078.2299356.5063158.4410146,1.0217114.6856751,1.5207242,1.3666063,2.7873257,4.1796325,3.5400023,6.8516842,1.7785793-1.4839971-.5035188-2.9449548-1.0077346-3.0762372-3.0099924,1.5313683.8016036,2.9799305,1.5344969,4.5556095,1.9341085,2.209511.5603608,4.4337978,1.0983877,6.6916152.2275297,1.1785158-.4545492,2.0867811-1.2587969,1.8740869-2.5930289-.2139015-1.3418665-1.4726729-1.00674-2.3908342-1.0596032-1.7065023-.0982791-3.2945256-.4393908-4.8028035-2.042445ZM95.5108093,18.7007782c1.2556768.5405945,2.117166,1.0038664,3.0349192,1.2804421.9073302.2734386,2.1395254.9741021,2.5607652-.5140098.4141324-1.46293-1.0138898-1.4355632-1.8611983-1.6357091-1.7887643-.422498-3.4734514-.9862425-4.8325082-2.2906932-1.6578899-1.5913135-2.2144079-3.9045191-1.4251487-5.9982163.8332298-2.2103739,3.0600841-3.8236471,5.5021492-3.8702319-.5337676.2787776-.9365418.4923178-1.3421216.7004085-2.0594058,1.0566106-3.3203876,2.6580198-3.3358777,5.0466946-.0148439,2.2876284,1.6446443,3.286194,3.3761245,4.1674411,1.2375683.629883,2.5279658,1.1551788,3.7768243,1.763999.8547559.4166914,1.6829867.8802184,1.2873199,2.101625-.1053695.3253072.0996904.8636062.3751948.7042427.5488156-.3174346.9421869.7424917,1.5031258-.0190862,1.3418495-1.8217592,1.3991336-3.5629015.0011732-5.3650856-.4261537-.5493682-.9053748-1.0575671-1.5334257-1.7851936,4.1830331,1.7659459,5.0179972,5.0360547,2.3360665,8.1822521-.4815335.5649092-.9208308,1.1933002-1.4950663,1.6459111-1.1386431.8974682-.8589388,1.62271.1179179,2.3677182.2209749.1685282.4129932.3748548.6330669.5447178,1.0984983.8478866,2.312585,1.5972306,2.4681142,3.1842847.0372202.3797517.3644318.5006537.6966082.5789114,1.704921.4016265,3.131821-.1501732,4.2746299-1.3842217,1.1107236-1.1993959,1.5340038-2.6315499.9920576-4.2420091-.2756235-.819032-.6322337-.9227011-1.1511065-.1256714-.5553108.8529706-1.5410602,1.6719091.3704849,2.3913188-2.7399119-.0975054-4.9426726-.7813697-6.2399395-3.1517489-.257787-.471068-.5887903-1.1865159.0225464-1.4966136.5998595-.3042826.7455267.4949151.9948802.8791132.3548759.5468007.6368246,1.2451517,1.2529903,1.4310658.5224094.1576461.684944-.7224788,1.2133726-.8753554.1191591.3180723-.1411784.4397564-.2346286.6325568-.1399032.288597-.731176.4767726-.2869307.8972897.3614732.3421659.798356.7426022,1.3234009.6501637.8477676-.149272,1.8178229-2.7089064,1.3638688-3.4718531-.5116293-.8598654-1.1264347-1.6740345-1.2496066-2.902676,1.0541027.8848433,1.3976544,2.1334637,2.3566575,2.8699617,2.4264221-3.718571,2.3940308-7.1878395-.0685913-10.1941634-1.0770231-1.3148015-2.4342776-2.281639-3.9002852-3.099536-1.3195582-.7361877-2.5758641-1.6005165-3.275805-2.9381194-1.8656192-3.5652734-7.9716917-5.2095649-11.5677709-3.5671396-1.426781.6516473-2.9734523,1.036449-4.4457341,1.5949734-.5655638.2145477-1.2017423.3713053-1.6883088.9668757,1.5019866.5951751,2.7377355-.3991993,4.249533-.4466852-.9162229.8347813-1.8245222,1.3017982-2.8048391,1.5616937-.8467389.2244903-1.7969939.3952672-2.505717-.3158533-.5246964-.5264647-.976185-.6094493-1.5822167-.2210557-.4332526.2776767-.5284371.6263506-.3071901,1.0643556.3308757.6550692.9423315.7977651,1.5424885.5936107.7266021-.2471642,1.1964118-.0265507,1.7352124.4432293.8014591.6987847,1.7325344.6892416,2.5388054.0069331.7041237-.5958594,1.3209015-1.2976282,1.9563998-1.97135,1.5301781-1.6222552,3.3756824-2.2885423,5.6030978-1.9654116-.0692885.3851928-.3231477.420955-.5420822.4041005-2.549662-.1963329-4.1947144,1.1239225-5.4219277,3.1824526-.1875294.3145781-.4509105.5909327-.7100579.8546412-1.3267166,1.3500281-2.6911125,1.4780375-4.1988377.3072241-.4872551-.378366-.8992706-.4703538-1.5012895-.3829271-1.4670023.2130556-2.1410047-.2970689-2.5119402-1.7318627-.1074779-.4157137-.2124222-.8320863-.3350671-1.3130459-1.2831201,1.3646935-1.2634133,1.602068.0429843,2.541866.5499633.3956371,1.4058499.7797034,1.0628509,1.5750753-.4152206.9628162-1.1144644,1.8521568-2.2135408,2.1648305-1.2391411.3525252-1.9341255-.2207581-2.0058284-1.5240016-.0215432-.3916285.2022543-.8311256-.1831936-1.1721736-1.2162291,1.2011727-1.3422916,2.2712202-.3829824,3.1792687,1.1439396,1.0828127,2.5710522,1.0156709,3.5563765-.1673125.509861.9649161.5322203,1.5101567-.1939312,1.6783576-1.4786836.3425273-1.8534278,1.5539104-2.4812747,2.5967314-.7099643,1.1791874-1.6211627,2.1714448-2.8493707,2.7851237-.764868.3821917-.8077163.8299991-.5639315,1.550446,1.4946412,4.4170326,2.353716,8.9610628,2.6174287,13.6159885.0299938.5293893.0963747.9710245.6244462,1.2832646,4.2782346,2.5297171,8.8438845,3.4700592,13.7593944,2.5619214.8209194-.1516609,1.3662323-.4129507.4486151-1.4246471,1.0461451.9466503,1.643233-.447884,2.7338418.0891568-.3986764-.4869915-.5604458-.6846039-.8416974-1.0281811,1.4468279.6266312,1.7066043-.4939119,2.1228451-1.2337.8893747-1.5807204,3.451075-1.8604927,4.6899695-.298663.0010712-1.3031245.5121564-2.4385539-.2951603-3.9563791,1.2974369.986455,1.9851524,1.9528376,2.9842834,2.5588608.9227692.5597147,1.8245902.687367,2.6969956-.0476432.2851624-.2402481.891024-.4608405.5719911-.9252686-.2582631-.37596-.8902078-.3223741-1.3049354-.1998738-1.0364022.3060934-1.2291516.3437982-1.1830047-.7654886.0813438-1.9549801-.9999471-2.9379579-2.5109455-3.7318165-.7345256-.3859154-1.1865584-1.0947405-1.7389106-1.8513109-.4136733,1.923898-.0837923,2.5667503,1.5411452,3.3797122.3326866.1664453.9626929.1859056.7754015.7410379-.1429638.4237308-.6973054.3821662-1.1103156.36047-1.328825-.06979-3.2877413-2.0668788-3.306972-3.3657865-.0036897-.2492769-.0946914-.5444457.3782214-.5473958,1.1763394-.0073284.6812203-.7268231.463629-1.2547076-.144103-.3496134-.6919493-.494592-.5577083-1.0213713q1.1323518.3730949,1.4207618-1.15869c-2.230425.0260491-4.6232146.4030122-5.872056-2.7123836ZM65.7368472,73.10948c-2.4878465,4.3873023-5.6722588,8.1671786-9.145149,11.7286986-1.4478311,1.4847793-1.4346705,1.8550176.2482567,3.1563058,1.6116834,1.2462144,2.9798965,2.608893,3.7762036,4.519945.8858125,2.1258207,2.4431193,3.6786472,4.3527601,4.9306343,1.7122664,1.1225749,3.5029011,2.1139184,5.3686818,2.9210141,4.0556954,1.7544176,6.4674776,4.9574315,8.2038463,8.8351363.7041662,1.5725503.9512667,3.0755571-.162033,4.5947341-.3238279.4418988-.8480822,1.1267748-.1671084,1.5860169.5997999.4045085,1.2588734-.0404679,1.7348893-.5051341,1.0500644-1.024993,1.4258968-2.3661284,1.6085378-3.7637827.1456843-1.1148044.3767591-2.1913855.9645548-3.1657086,1.437136-2.3821455,1.4951088-2.4340736-.3677899-4.512166-2.1687116-2.4192127-3.2773013-5.1260702-2.8011493-8.4012121.0657518-.4523218.1239541-.927173-.1135395-1.364736-1.1931727-2.1983058-2.1547178-4.5241364-3.5885807-6.5895699-1.285186-1.8513024-3.0064047-3.1112045-5.1562426-3.8238129-1.4741352-.4886579-3.01585-.6631628-4.4661381-1.1449598,5.3758402-1.8395616,8.5978212,1.4888346,11.7479293,5.1859218.1968642-.9919641.1096288-1.8606457.5087218-2.6035455.3808739-.7089696-.015643-.8613617-.5799911-1.0058728-4.661149-1.1934957-7.7807191-4.3093166-10.2542573-8.2337381-.4889044-.7756736-.885702-1.6232286-1.7124025-2.3441686ZM111.3264129,33.4588954c-2.7808899.1798949-5.557444.8551725-8.1922755-1.5507096.6191242,1.0241768.4641051,1.7735633.4932658,2.5043737.0333605.8354062.4230931,1.4202177,1.205398,1.6936818,1.5954197.5577168,5.7938919-.2232959,6.4936117-2.647346ZM99.2721776,35.9457387c1.1179841.0190182,2.1687881-.7069122,2.1077292-1.4513763-.0795754-.9702424-.9142165-1.1648537-1.6079342-1.1985117-.9709395-.0470736-1.6902132.5606498-1.8170238,1.5360017-.1252293.9631605.6781767,1.0436286,1.3172287,1.1138863ZM102.833706,35.9658622c.1327278,1.0411036.4032673,2.0249911,1.5026837,2.3756332.8334168.2658041,1.5235638-.082211,1.9166121-.9709735-1.2120633-.3145951-2.549509-.2612557-3.4192958-1.4046597ZM20.7921573,67.5929545c-6.351039-4.1065353-11.6759884-8.7374949-14.8344153-15.6233132-.2849328,5.4241126,8.6117002,14.8846473,14.8344153,15.6233132ZM71.610085,72.2641694c-.3070116.7325957.2385818,1.0512631.8368345,1.3120257.5596126.2439294.8487963-.0163997,1.1208406-.445784.3755179-.5927096.3343189-1.1588175-.1762562-1.6111393-.6983681-.6186991-1.5034064-.9800023-2.5231284-.7409614.0808507.7235075,1.0850487.6666059.7417095,1.485859ZM118.99667,55.5117434c.1761712-1.308302.8630536-2.1541227,1.5294129-3.1283184.7566809-1.1062858,1.4791342-2.5396046.3387058-3.5475603-1.32891-1.174571-.9265609-2.1004943-.3390288-3.293871.3490268-.7089016.448173-1.5098336.3624084-2.3120324-.0714819-.6686208-.2681251-1.26207-1.1956551-1.6305911,1.1100945,4.5856288-2.1026282,6.788381-4.9077648,9.2425439,1.3724895-.2143181,2.4496316-.8901398,3.4902336-1.6588251.3528865-.2606776.6133431-.9059529,1.1058947-.6767399.5862568.272818.6760343.958187.6918473,1.573783.0490205,1.9091051-1.195077,3.0211465-2.5349372,4.071602-.4666216.365843-1.0886023.5639655-1.5203502,1.2985166.442936-.0730037.6675666-.095108.8842567-.1491785.3435177-.0857136.741514-.4104087,1.009333-.0111542.2224202.3315814-.0428993.71345-.2308028,1.0290313-.2670368.4485386-.6680257.7663133-1.1129171,1.0285382-.6604932.3893076-1.3229759.7752145-2.1563757,1.2631497,2.2814179.0216027,4.3372021-1.2529988,4.5857393-3.0988941ZM91.3066921,22.8183741c-.9549734-.6271668-1.9631076-.8641673-2.9464595.1699395.679996.2792537.8032019.8969411.9281252,1.5274235.2716362,1.3708827,1.4793297,2.1111129,2.500701,1.9589163,1.0297369-.1534378,1.3862621.2326477,1.9973608.7987641.0956266-2.0243875-.9054258-3.4211322-2.4797274-4.4550434ZM82.3876955,15.9091422c-.5916044-.0742619-.9914285.1592232-1.2756642.6315536-.2970732.4936823.1311465.5694406.4254566.7878395.1807196.1341093.2712962.4851212.2777319.7418625.0254029,1.0137113.7886641,1.4739992,1.4981864,1.8453683,1.4366769.7519795,1.8789668.5488496,1.8496616-.6426483-.0415051-1.6873566-1.2888927-3.1773899-2.7753723-3.3639756ZM90.0654681,11.73087c-1.4143261,1.3117494-2.9623661-.0404126-4.5029757-.0470184,1.3604086,1.5661698,3.4040524,2.1457528,4.8535328,1.4197119,1.3986575-.7005785,2.2401339-3.3354356,1.6770696-5.5875143-.9214429,1.4069679-.8750579,3.145853-2.0276267,4.2148208ZM82.4806695,29.2239257c.6505548-.0780452,1.251681.6005141,2.0492804.0870569-1.8040332-1.3500026-2.7796827-3.3999886-4.5836479-4.725566-.6409309,1.0574013-.1752955,1.9213645.4194629,2.7879123.5614575.8180203,1.514195,1.1720971,2.1572683,1.8868818l-.0423637-.036285ZM85.6720531,24.8823793c.1758566-.5113573-.2794408-.6912352-.5777382-.9747057-.4070505-.3868166-1.4638227-.0747295-1.3204254-.8512533.1514739-.8202733-.1207829-.9140295-.7237795-.8448345-.7347892.0843109-.7195797.6763913-.5767265,1.1606963.3118235,1.0571802,1.0781198,1.6824171,2.0876908,1.9389799.4794931.0278344.9391518.0707677,1.1109787-.4288828ZM82.5210354,29.25908c-.9872032.0859517-1.7914848-.4761349-2.765859-.9266119.0717199.8301097.2789307,1.3463809.9795092,1.4872958.6839578.1375822,1.382836.2412938,1.745984-.5958382,0,0,.0423637.036285.0403658.0351543Z"/>
  </g>
</svg>