<?xml version="1.0" encoding="UTF-8"?>
<svg id="Layer_2" xmlns="http://www.w3.org/2000/svg" viewBox="0 0 121.4861786 143.2636144">
  <g id="Layer_1-2" data-name="Layer_1">
    <path d="M45.9782699,66.7262824c-1.5937573-1.5418625-2.7509713-3.3075225-3.0261723-5.5796714-.0422035-.3484337.1510843-1.1825474-.5301693-1.0019452-.6382567.1692012-1.7865161.009578-1.7640731,1.0925013.0376601,1.8157601-.662485,3.3276513-1.6826226,4.7100134-.5587048.7570933-.125288,1.2071629.2362847,1.757206,1.5916793,2.4213346,3.0869366,4.8870451,3.4428797,7.8499028.3435786,2.8599276-.5981596,5.3057927-2.5692451,7.3209708-1.7857605,1.8256875-4.7264301,2.12847-7.3534452.9219967-4.0237819-1.8479416-5.9983151-5.7973574-5.2830852-10.6589841.1888105-1.2833804.2569802-2.5570223.1684172-3.9379676-.2509728.0521498-.4694428.0393792-.6149636.1362262-4.7086722,3.1338535-8.4681912,7.0371459-10.2214301,12.5805646-.2937335.9287503-.6353663,1.8595221-1.0924447,2.7159277-1.0261263,1.9225911-2.2795921,2.3144374-4.2321592,1.3621766-2.0822049-1.0154998-3.7142079-2.5899407-5.1338098-4.3831538-2.7039505-3.4155343-5.0913088-7.0068912-6.0360035-11.3607255-.0218527-.1006819-.0590971-.1981334-.0792118-.2990704-.8521031-4.2752364.9342619-6.1213456,5.2120062-5.378487,2.2314237.3875106,4.3718473,1.172516,6.6414836,1.4222231,4.9614868.5458587,9.6326878-.4673459,14.1433399-2.4538089.4456774-.196282,1.071683-.3055974.4137603-1.0255973-.887227-.9709349-.5557956-2.0653632.2439263-2.7608421,1.7031104-1.4810982,2.4273987-4.0427773,4.9962849-4.5587308.6325231-2.0447148,3.0816659-1.2311078,4.1432797-2.6303683.2999016-.3952939.7871212-.1443495,1.1652523-.0416273.8795854.23892,1.0183241-.3685342,1.2424616-.9651069.3215984-.85599-.2934879-.943684-.8401023-1.0880052-2.0172656-.5326536-3.008046-1.9283058-3.1259569-3.9212487-.0679525-1.1486184-.2130199-1.6540966-1.6576859-1.5570701-3.2635054.2191785-5.7753772-2.6237091-5.4827677-5.8485816.099095-1.0920952.5722122-1.9337749,1.3807375-2.6639195,1.7728954-1.6010211,1.7563087-1.6193741.2963783-3.594134-2.2340637-3.0218367-1.6839828-6.5763553,1.3580583-8.8079679.8400267-.6162434,1.754259-1.1927346,2.7528132-1.3558149,1.8584642-.3035099,2.6473045-1.5738552,3.3015339-3.0904504.8471771-1.9639067,1.9996399-3.7087341,3.6625587-5.1008679,2.8068333-2.3497738,5.8830773-3.3319208,9.4644879-2.0127694,1.0026631.3693135,1.8598149.3742488,2.8478655-.3623567,5.7916805-4.3177611,13.9148291-3.1414337,18.355989,2.5692073.2213321.2845901.4272204.5815824.6324003.8782677,1.6360741,2.3656332,1.7185731,2.4113221,3.1552858-.224827,2.2244008-4.0814008,4.1490322-8.2813124,4.5699051-13.0197386.202469-2.2794079,2.3762596-3.0589678,4.3946398-1.6652331,2.3551201,1.6262695,4.1687454,7.1066994,3.2423565,9.8202373-.0802697.2351181-.2057372.4637895-.515434.5206244-.5077641-.4559543-.2689102-1.0595877-.30845-1.5930961-.1942229-2.6203039-1.2721211-4.8636197-2.9420676-6.8349838-.3534399-.4172363-.8615818-.7643807-1.3683069-.9784159-1.1353943-.4795639-1.5808072-.0584548-1.5150839,1.1545314.3207294,5.9192355-1.8245257,10.8925862-6.0771585,14.9134636-.8843271.8361445-.9196163,1.370947-.4817128,2.3187163.8188211,1.7721681,2.0444126,2.8610045,4.0648992,3.1233121,2.9141461.3783199,4.7548145,3.0088016,4.0870494,5.9379475-.3420295,1.5003203-.3958701,2.8278405.1065572,4.3256577.9816653,2.9265011-.1580174,5.2520466-2.5961182,6.967682-.70824.498375-.958136.9319808-.8233172,1.8712914.4371762,3.0458761-1.4588063,5.4162321-4.2238706,5.4744366-.5484751.0115521-1.2896335.118846-1.4621407-.5394072-.1508198-.5754804.5208181-.8138054.9570497-1.0587707.5828576-.3273131,1.2128115-.5725901,1.7873568-.9125415,1.2991642-.7687115,1.7664345-1.9054661,1.3823149-3.7130745-.5580531,1.1684449-.9718512,2.0802685-1.4282116,2.970282-.2126987.4148182-.5714377.9414832-1.0448477.725554-.6395319-.2916933-.036111-.7693538.0739694-1.1506681.1423564-.4932082.3521364-.9665899.5229339-1.4520149.2385705-.6780326.0628046-1.0653543-.7166939-1.167557-.6434235-.0843597-1.2426694-.2870649-1.3034148.7008535-.1212264,1.97152-.9887307,3.6685473-2.0799757,5.2516121-.4445533.6448781-.3307608,1.0553891.1720538,1.587986,2.1723171,2.3009489,4.9832781,2.491214,7.8613604,2.4062592,1.0152731-.0299713.898354-1.0507796,1.0484748-1.6636934,1.7545801-7.1636051,5.8921641-12.6179129,11.888864-16.7582739,1.6114208-1.1126018,3.1905939-2.2871014,4.8802442-3.2684172,5.866604-3.4071559,9.7423715-8.2812746,11.4459259-14.8952758.5505343-2.1374529,1.3466384-4.2165738,2.1126485-6.292025.5837832-1.5817376,1.2945547-1.8668189,2.8658123-1.265306,1.8426331.705411,3.0531965,2.0892372,3.7978026,3.8603852,1.3812853,3.2855612,1.6107596,6.697492.7814821,10.145529-.2338949.9724935-.1190916,1.3899706.8364751,1.8724108,2.1087379,1.0646648,2.7426968,3.1362574,2.9289286,5.2991477.4545091,5.2784002-2.023292,9.1715478-6.1042772,12.2718407,2.4824484-3.3573014,4.7457561-6.7950804,4.3757672-11.2769608-.8691006,2.3537977-1.8509643,4.6304994-3.8156739,6.3710243,1.7946678-3.8225126,3.5547264-7.6385737,1.2265455-12.2031939-.9867754,2.220221-2.029715,4.1379382-3.9984296,5.4147916,2.5405584-4.817331,5.1969214-9.6047002,2.5643428-15.2437001.131201,3.2600908-.626799,6.2748433-2.4334629,9.2422018-.308875-.7829132.091019-1.2499993.2371631-1.7206511,1.0538589-3.3938186,1.2523701-6.7741723-.0422979-10.1523299-.3552535-.9270076-.8250269-1.7880983-1.6593484-2.3722074-.703026-.4921975-1.1584419-.3404898-1.2095621.5766942-.0113538.2038197-.008879.4217561.0496845.6141843,1.7653483,5.7999739-.7772505,10.4735694-4.0137128,14.8910158-2.8913536,3.9464262-6.7809496,6.9020107-10.4653658,10.0495888-2.7078988,2.3133605-5.3167781,4.7150102-7.5456845,7.523232-1.7886225,2.2534747-2.4917807,4.9127753-3.3705538,7.5584551-.916452,2.7591135-1.1520944,5.2769266.0530566,8.0995531,1.2210765,2.8599182.9122014,6.0176694-.1223693,8.9459085-.7125756,2.0168878-1.2079091,4.016981-1.3052945,6.1538578-.1860523,4.0829783-1.6594523,7.8478814-3.1499585,11.5762957-.9944453,2.4875491-1.1310021,4.9170542-.6457377,7.5447683,1.9468572,10.5422728-5.644998,19.7048944-16.3278514,19.7777398-1.9003181.0129784-3.9831559-.7608905-5.6526207-.1970566-1.6603307.5607546-2.6316435,2.6286681-4.1654772,3.7776454-3.0700855,2.2997682-6.404566,4.1340324-9.8954866,5.6863986-.9718323.4321228-1.320861.8241579-.8349449,1.9321597,1.2059539,2.7498378,1.4286745,5.6769151,1.1645061,8.6427198-.1856651,2.0843491-1.1108071,3.8494329-2.5226399,5.3532669-.6636562.7068798-1.0382546,1.438073-1.0843497,2.448935-.1002096,2.1982267-2.2097882,3.8414985-4.3726407,3.5437316-1.1315499-.1557599-1.5455936-.9122676-1.6282909-1.9341433-.0972531-1.2016844-.6030336-2.1355071-1.6106085-2.8407434-2.6351951-1.8444467-3.3809535-4.4806903-2.7983604-7.4842212.2761834-1.4238666-.2226167-1.8386281-1.4844137-1.9844889-1.0409183-.1202818-2.0593274.0233687-3.0864454.060037-3.7037137.1322023-6.5422846-1.5226499-8.8255889-4.2839737-.4188232-.5065172-.824753-1.1175042-.965872-1.7415073-.3646142-1.6121576-.5121941-3.2082763-2.013714-4.382417-.7577262-.5925111-.4920842-1.7261485.0801942-2.5643428.5712299-.836664,1.3571232-.5060261,2.1042796-.3391958.050204.0112026.1094003.0141686.1474571.0431858,2.6398424,2.0138273,5.5172541,1.370895,8.420462.6816409-.0588468-.5517811-.5856724-.8618085-.9119464-1.2896996-3.9638489-5.1981493-7.4682013-10.6540251-8.9327033-17.1311909-1.3600891-6.0153741,1.4213541-10.7846311,7.2887893-12.5839461,5.9851383-1.8353883,11.7991769-1.8282567,17.0890819,2.1068677.719216.535015.8998937.2555539,1.132929-.4410112.7607299-2.273868,1.9740703-4.3153241,3.5197961-6.1315942.7267631-.8539686.8047375-1.5465571.3688081-2.6053372-1.7340735-4.2117423-1.024001-8.1242915,1.7501218-11.6918263-.3920257,1.4431453-.811444,2.8765805-1.1653467,4.3260072-.6838134,2.800533-.6682091,5.5366083,1.0625962,8.0056343.4699434.6703721.0589224,1.0226786-.2637906,1.4699806-1.3572176,1.8811811-2.7249105,3.7560241-3.5656079,5.9473177-1.0945227,2.8529095-1.0835185,5.6657974.2630822,8.7158863,3.558193-4.7510457,8.1072703-7.2429303,13.8455353-7.3498464,5.6480206-.1052348,10.3560316,1.9147795,13.9670167,6.3001908-1.0028992-.0999924-1.7913807-.6578093-2.5807594-1.1902551-2.6515267-1.7885564-5.5391587-2.9758172-8.7244536-3.3159009-6.2804965-.6705611-11.6722453.8939145-15.3598163,6.4186024-1.51498,2.2697591-2.9438245,4.5984217-4.3671905,6.927585-2.1487594,3.516169-4.2276017,7.0753349-6.3976896,10.578091-1.0722214,1.7307014-2.3840145,3.4604959-4.4280776,3.8927887-3.0007822.6346579-6.087001.8806433-9.1773758.9497671-1.0281288-.5543504-2.0365254-1.1406273-3.0784827-1.6595373-.2913815-.1451051-.7102614-.2079003-.9941431.1087202-.3236576.3609776-.1879793.7702228-.0205067,1.1434799.3089695.6886307.8796421.9890802,1.6075103.8769595.8464215-.1303698,1.6814041-.3349263,2.5213553-.5072918.611327.8058521-.0473703.9841117-.5950898,1.2789504-1.8985235,1.0220079-2.0952211,1.7045556-1.03356,3.5619807,1.8351049,3.2106378,4.7404759,4.6679989,8.3110239,4.7621727,2.1820839.0575433,4.2913697.3249327,6.4015529.8678349,2.6166154.6731775,3.7304924.0150187,4.4465062-2.5882593.4358822-1.5847083,1.3008078-2.7401843,2.6728552-3.6191462,2.0863988-1.3365882,4.2809511-2.4703767,6.4731231-3.6110607,6.8232287-3.5504381,12.1046514-8.5064558,14.6679363-15.9733158.1286035-.3746361.1634015-.9455543.9040498-1.0056952.0291023.4682243.0878641.9140528.0792307,1.3585684-.045415,2.3371354-1.3243371,4.2693895-2.2505465,6.4266218,2.3096862.0754713,4.4458072-.2546188,6.5638209-.6303317,9.494053-1.6840962,13.141697-8.4152668,12.4224904-16.4732966-.3385346-3.7930419-.021489-7.1914133,1.843795-10.5510573,1.7637992-3.1768504,2.6766807-6.6922543,3.1016814-10.3358177-1.8709042,2.6072924-3.716815,5.2086813-6.0243475,7.4340361-1.9582204,1.888511-4.1210256,3.4323571-6.8766914,3.9119824-7.6590992,1.3330649-16.806721-3.5586464-19.3944325-10.911931-.9695842-2.7552124-2.2205847-4.5833841-4.8889909-5.5049274ZM49.8842165,51.9051366c.554681.4929249,1.058374,2.0484742,1.7318348.0744134.0766992-.2248081.3135884-.1994936.5197885-.0922469.2369931.1232761.4781706.5242469.7479309.0984244.2313634-.3652282-.0420429-.6916061-.2407903-.9768102-.337675-.4845182-.7670113-.8643116-1.6262223-1.1680671.3885402.9134199.4962781,1.6122709-.1060471,2.2443879-.1805266-.4296952-.3482731-.8290224-.5188345-1.2350183-.5261266.2596439-.4562093.6949499-.4711619,1.0976776-.4573523-.1157573-.5486735-1.0498161-1.2022417-.6210183-.381182.2500754-.8921482.7303147-.8698468,1.0764247.0435825.6766158.7221819.8994781,1.6175133,1.0671301-1.5109373-1.2409503.7340268-.8225143.418077-1.5652974ZM68.6873092,68.2230039c-.5661859.1542769-1.0121466-.1611723-1.4399338-.4047018-3.6204875-2.0610465-7.5650199-2.5595821-11.6409705-2.4980244-.8218154.0124117-2.3286154.4592887-1.1306998-1.3319598.0825367-.1234178-.0359693-.3949161-.0858616-.5912265-.6716851-2.6423455-1.3438141-5.284606-2.0246427-7.924609-.2915327-1.1304731-.8095832-1.6598112-1.8903907-.6914644-.3804169.3408488-.8920632.447576-1.2826814.1210563-1.1984256-1.0017469-2.9183211-1.6658659-2.5009525-3.8049341-1.7511986,1.1942979-1.795839,2.0755362-.2685701,3.2748592.2427928.190643.5198168.3400837.7501507.5435256.2489797.2198963.7404216.3862355.4919142.8226749-.2480446.4355988-.7396376.3249894-1.1136881.170448-.780122-.3223163-1.3164782-.964663-1.9076952-1.5412297-.2631388-.2566119-.3438242-1.0204494-.991536-.5632199-.4476893.3160443-.6994177.7607582-.4366378,1.3397997.7673136,1.6907932.7428303,3.5070161.8588804,5.3050182.1308893,2.0281187.7696655,3.8338285,2.4390264,5.1366199,1.0788995.841982,2.3345567,1.2812457,3.6480029,1.602249.4678654.1143499.9240842.1610684,1.0414283.8903913.9522796,5.9183476,4.6545954,9.5953772,9.973206,11.8022562,4.5104821,1.8715559,9.0297109,2.1333535,13.2832883-.7427925,3.9169981-2.6485513,6.9508403-6.1072242,9.039355-10.3670453,1.3316575-2.7160882,1.7204244-5.5928576,1.3846763-8.5777427-.5743942-5.1067903-3.2405524-7.5577089-8.3022583-7.5993551-1.2737175-.0104753-2.5472271-.2001642-3.5336152-.9328026-1.7773632-1.3201243-3.1484566-.835011-4.929088.1893111-4.573844,2.6311618-9.240171,5.4099507-14.98348,2.6401352.8123035,3.0289871,1.6417132,5.8383802,2.2866953,8.689495.2093266.9252932.4828652,1.1739896,1.3838262,1.0691987,2.4935093-.2900025,4.9449379.0006612,7.3008987.8620258.8311005.3038688,1.3037265.1234744,1.8058893-.5780969.9085648-1.2693724,1.9383183-2.4440421,3.4728793-3.088788-.2393734.6891975-.6069914,1.2797249-.9884756,1.8611656-.5367436.8180749-1.3795001,1.5726839-1.5494002,2.458409-.1995975,1.0403987,1.267965,1.3105652,1.6964984,2.1711552.0452167.0908111.09066.1815089.1439622.2881983ZM66.0089944,32.8096422c2.4752035,2.5330113,6.4492915,2.436306,8.622147-.0575906.2642723-.3033209.4421919-.7495839.8789053-.8109339,2.2531913-.3165638,3.0573337-1.1129985,3.3810669-3.3036592.0947122-.6409109-.1493557-1.3164688.2516717-2.0765847.8992041,1.6278564.4130896,3.1179753-.319322,4.8739534,1.619563-1.327747,2.0814304-2.817488,1.690557-4.6846989-.2914288-1.3921007-1.2638939-2.1033066-2.5551993-2.3742996-2.6401069-.5540434-4.7993227-1.5870745-5.8981055-4.345489-1.8854978-4.7334058-5.7375755-7.1527662-10.5165993-8.184286-2.8403656-.6130791-5.829709-.9476654-8.3840865.7928973-1.5289691,1.0418581-2.9060605,1.2367469-4.6083114.8228544-3.0914233-.7516526-5.686937.1483214-7.732842,2.6110566-1.6046766,1.9316213-2.4266714,4.2384123-3.4541295,6.8394422,2.5000363-1.7007159,3.0293839-5.0980814,6.1845469-5.5075439-.6592923.7259413-1.4882203,1.3186271-1.9220527,2.1960778-1.5046181,3.0430943-3.9065511,4.8301866-7.2427886,5.3938599-.249367.0421326-.4886082.1571673-.726253.2538018-2.4579651.999513-3.669048,3.2831478-3.0646636,5.8529219.2116786.9000448.4973171,1.7851276.7919858,2.6626727.4950974,1.4745051.1781463,2.6206865-1.2329403,3.4059091-.9444208.5255409-1.3758068,1.3341606-1.2746998,2.4374395.1424226,1.5541325,1.0666767,2.5921415,2.3561024,3.2153134,2.0410027.986407,4.1981027.8902118,6.3242491.2143423,1.0654677-.3387235,1.4273143-1.1441222,1.1448495-2.1949018-.3211545-1.1946568-.8279078-2.3146452-1.5257576-3.3636112-1.7450494,2.0332383-3.2877243,2.3498777-4.9491885,1.050005.0906317-.2415554.3115954-.2061717.5001981-.2285581,2.1846721-.2593133,2.4166117-.4685266,2.7948655-2.552375.2291248-1.2623259.1548342-2.5776896.6699471-3.7904066.2504344-.5895924-.0954773-.6985582-.5819413-.7421502-1.4693761-.1316544-2.4164795-.7871307-2.4374584-2.4138252-.0208561-1.6175605.5636922-2.4631697,2.3526925-2.9560567,2.1978111-.6055131,4.5492568-.6269832,6.6094626-1.8205915-.762704,1.4499179-1.9100189,2.2819677-3.4560092,2.5891425-1.0075465.2001831-2.0274292.3859143-2.9976179.710252-.6784766.2268106-1.3961245.6512257-1.1607278,1.5670637.2266689.8818523.8323284,1.4504185,1.8079484,1.338534,1.2769857-.1464181,2.5618491-.2942908,3.814257-.5724295,4.530507-1.006158,6.2068199-3.1923792,6.079076-7.7955615-.0241905-.8715943-.1312577-1.7658536.3694788-2.5582928.102401-.1620697.2943475-.3674668.4520816-.3736915.3193787-.0126006.3696866.2902906.3884174.5507846.022188.3083886.0174274.6187796.0415139.9269604.2273301,2.9092957,2.2172315,5.1993206,5.207,5.9976492,3.0062041.8027161,6.9468448-.4160839,8.3876098-2.5976861.1129519-.1710242.2207087-.3503276.2978141-.539275.23483-.5754285.4956452-1.1612189.0720708-1.7597092-.4706896-.6650589-1.1644588-.5463924-1.8312321-.4862751-.6660177.0600512-1.2706665.6041813-2.0539622.337897,1.0402948-1.3786688,2.6952982-1.9495681,3.9214376-1.3613501,1.4753647.7077772,1.278497,1.9293496.9105673,3.1865417-.1333074.4554962-.1237106.878518.1073412,1.3375847,1.6390968,3.2566337,5.1559459,4.0873752,8.0276995,1.8746399,1.233252-.9502394,2.5225927-1.1642227,4.0589578-.3513335-1.0137051.6451048-2.1175413.2308439-2.953308.7849204-.8580491.5688307-1.662815,1.2181861-2.5221015,1.7849859-.9266628.6112325-1.9383088.6502811-2.9582765.2472134-.7125-.2815674-1.4087629-.6042427-2.1961958-.9448459-.022887,1.1362256.2686079,2.1725438,1.1155394,2.7920035,2.5297336,1.8503219,5.1519125,1.2721117,7.9530878-.3533832-1.4193138,2.782945-2.6058472,3.1540201-7.0093754,2.4526755ZM60.3623057,46.4833126c-.6726958.7495745-1.5720699.8767706-2.3470818,1.2534186-1.2208309.5933045-2.2960182,1.5220171-2.7328827,2.7637891-.2570841.7307586-.2503871,1.608776-.7069743,2.3041132-.619932.944128-.187507,1.2270367.7196221,1.412135,1.2335448.2516906,2.4665512.3366643,3.678267.0255318,6.5576906-1.683775,10.59583-5.9979467,12.7499546-12.2737109.2197452-.6402025.0786639-1.0259185-.4381586-1.4515898-1.239335-1.0207328-2.0528098-2.3202087-2.0974503-3.9723972-.0162089-.5998126-.3397531-.7940733-.8060221-.9549717-3.5858406-1.2374081-5.5695361-3.5294969-5.1564748-7.5473564.1237295-1.2035641-1.0650048-1.8388643-1.7905305-2.5491351-.5236612-.5126428-1.0036266.4247929-1.4650688.7364355-2.9496998,1.9921494-6.0034063,2.2252414-9.2220068.7158155-1.1502902-.5394545-2.1049691-1.3722363-3.1908112-2.1219903-.6437352,2.0391135-1.6621727,3.6792588-3.4746078,4.6907347-1.5042308.8394694-3.1569955,1.2884622-4.8535317,1.43676-1.451467.1268655-1.9213538.9500599-2.0099452,2.2193095-.1194883,1.7118571.4002246,3.2660652,1.2424427,4.710259,1.5835937,2.7154743,3.0871066,5.4603247,4.1198166,8.4485063.3862638,1.1176458.9783026,2.1814322,1.8923365,2.9731629,1.3226652,1.1456713,4.1261074,2.0281471,4.9185844.4407184.8843932-1.7715824,2.0630301-2.1719865,3.7692481-2.4924608,1.1530578-.2165998,2.2479206-.618194,3.4571427-.4867946.5411169.058809,1.2828609.3019419,1.6003032-.212472.7484032-1.2128115,1.3785272-.5445835,2.1438288-.0678108ZM39.2854961,99.9312822c.7119239-1.1782779,1.336711-2.2399768,1.9914977-3.2828408.2741242-.4365906.3566893-.7866395-.0152076-1.2412431-1.2442563-1.5209592-1.5551338-3.3480824-1.4701506-5.2318705.0393036-.8711881-.3303546-1.3131439-.9969107-1.7153237-4.8373701-2.9187461-9.9503474-3.8162784-15.3978731-2.0599602-4.4344157,1.4296946-6.9270938,5.0221095-6.5022064,9.3286112.233177,2.3634606.7645837,4.6621992,1.6193363,6.8904727,1.5777279,4.1129968,3.9772145,7.7815252,6.1685364,11.5637612,1.5728067,2.7146997,2.5836781,2.8866874,5.0711705.7961986.5464443-.4592509,1.0883263-.9845651,1.4548486-1.5873531,2.2987575-3.7807058,4.5479344-7.5915246,6.8115443-11.3935683.2429911-.4081495.4235555-.7799708-.009578-1.2328931-1.3992983-1.4632458-2.8362472-2.8250635-4.8922214-3.3585294-.7657456-.1986907-2.1977544-.1736123-1.9277107-1.2099589.2208504-.8475172,1.5211859-.3048134,2.3371543-.1174953,2.3519935.5399173,4.1103142,2.0255495,5.7577704,3.8519926ZM1.048672,68.3791699c.0394453.2399874.091529.7534472.2107765,1.2508021.8530004,3.5577018,2.5372477,6.7282142,4.6327522,9.6860845,1.4025146,1.9797,2.94092,3.8662557,4.9571938,5.2634854,2.0927369,1.4502296,3.1826784,1.0992078,4.1090957-1.2361991.2458154-.6196486.4592887-1.2586704.6158042-1.9061556,1.2778169-5.2862684,4.3975679-9.2228097,8.8907832-12.1462032,4.4017807-2.8639043,8.8183062-5.7051483,13.2282103-8.556537.3024614-.1955736.6095323-.3847525.9037381-.5921238.2123209-.1496485.4464047-.3559714.2737086-.6237764-.1418369-.2199625-.4353626-.2761834-.6963762-.1582725-.3275681.1479577-.6399853.3290322-.9632272.4870496-4.7584511,2.3263673-9.3916992,4.9197745-14.3560859,6.8081911-5.3778919,2.0457161-10.7801916,2.5758287-16.2339137.2229001-.9385172-.4049191-1.9494548-.668398-2.9497045-.8980329-1.8282142-.4196828-2.5988149.2334321-2.6227551,2.3987876ZM39.6339109,61.0815962c-3.8877447,2.1559476-7.1878901,4.5063165-10.5328082,6.7861542-.2590489.1765688-.5275623.3671457-.4233571.7395809.5778513,2.065042-.1144538,4.0895714-.1895095,6.1332283-.1462386,3.9826269,2.4268036,7.4426317,6.2011336,8.3100604,3.7727431.8670604,6.9492629-1.673857,6.9197828-5.5327167-.0263536-3.4492177-1.7540795-6.2832263-3.3108663-9.1801434-.3224957-.6001054-.6118087-.4954658-1.0292339-.0529716-.5186267.5497881-1.250037,1.3668806-1.9096316.6127155-.4808438-.5498259.516747-1.0439314.9307906-1.5036263,1.5504865-1.7214634,3.0088772-3.4855649,3.3436996-6.3122814ZM43.102039,129.1060674c-.0140552-2.0634363-.3298067-4.0957017-.6399003-6.1282693-.0602259-.3947555-.0837457-.9968634-.6946287-.6117426-1.5885811,1.0015107-3.3885195,1.8099887-3.8403933,3.9517111-.7675591,3.6379621-2.0210155,4.4707534-5.6291953,3.7976703-.3901932-.0727887-.8512577-.3561036-.8927527.3559525-.1523972,2.6155574-.1705236,5.2150949,2.1947412,7.0208898,1.0963269.837023,1.995616,1.7476848,2.2836632,3.1576095.1155967.5658553.375968,1.0492494,1.1069344,1.0784178.7701473.0307364,1.4379785-.1107227,1.8959164-.7776661.3573788-.5204969.551101-1.1097587.5393411-1.7410161-.0162939-.8752215.2678806-1.6293677.9002148-2.2160602,2.3133794-2.1464075,2.8005046-4.9238456,2.7760591-7.8874967ZM109.4156732,14.7824256c-.1599727.3751226-.3235726.748748-.479408,1.1255897-2.2483457,5.4371591-5.455583,10.1351576-10.3129685,13.6077062-2.3884824,1.7075405-4.6885717,3.5381964-7.0474322,5.2878459-5.5322633,4.1034566-8.8328149,9.6771394-10.7140621,16.1921259-.1040163.3602408-.455397.7441527.1233894,1.0546146.7424619.3982693,1.4630569.8373252,2.5065161,1.4397826.0983205-9.0985891,5.3083053-14.8926688,11.7901468-19.9193784,2.0764714-1.6103251,4.1646176-3.2158612,6.1327088-4.9535241,4.2042141-3.7119835,6.93193-8.3323098,8.0011098-13.8347624ZM70.1906332,35.935174c.7187909,3.2678221,3.3715172,4.9621858,6.5400365,4.2314366,2.8831925-.6649597,4.8262903-3.9447213,3.9831181-6.8115632-.1323156-.4498713-.0938621-1.3856303-.9187379-1.1058954-1.544394.5237085-3.3225412.6156814-4.5925181,1.6392857-1.5090481,1.2162875-3.1116655,1.9267567-5.0118986,2.0467362ZM42.4520696,48.7302131c-.1076151.0333056-.1535685.0525182-.2014489.061605-1.8950947.3597686-4.0200509,4.2420725-3.2943929,6.0151757.0960063.2345561.1959514.582338.4938222.4197016,1.0003961-.5462459,2.3636212-.4679315,2.9830715-1.6623616.2190746-.4223937.4107754-.8990908.9108507-.9538571,1.058185-.1159084,1.8249319-.881824,1.5251058-1.6760862-.3761474-.9964289-1.5500898-1.5547465-2.4170084-2.2041775ZM39.877431,42.9792908c-.8083269,1.2152957-1.7666801,1.8447868-3.1439699,1.8368146-1.4684315-.0085011-1.6485142.357785-1.0825078,1.7120083.4509575,1.0789562,1.2604273,1.4781984,2.3508412,1.18966.7609377-.201345,1.4828929-.5500526,2.3326015-.8751553-.2551856,1.7285194-1.6642318,1.7599264-2.9432861,2.1030044,1.4836958.6384078,3.329446.3412927,4.2361406-.7300691.7872346-.9302144-.2342444-1.6842756-.4870118-2.4857827-.286517-.9084893-.7907956-1.7482987-1.2628077-2.7504801ZM33.1421703,56.1246622c.0481165,1.1539174.1279801,2.1341941.9267195,2.8519932.1686439.151566.3824288.0090396.5465765-.1313144.9507116-.8129269.4198811-1.80298.3187836-2.7354047-.038633-.356387-.1194128-.7153054-.2359446-1.0541895-.1229077-.3573977-.3631218-.6297839-.7947912-.6042332-.3804263.0225091-.5173043.3336606-.5947308.6185813-.1069067.3934331-.1307665.8094226-.166613,1.0545673ZM31.0659351,56.4455427c-.1425926.0882891-.3349735.1715532-.4824307.304615-.8764966.7909279-.4160367,3.2426776.7018453,3.580995.5821019.176191,1.209326-.0963558,1.1573934-.7290962-.0734499-.8948591-.3941699-1.7748129-.6612192-2.6451792-.082839-.2699681-.3099046-.5220271-.7155888-.5113346ZM37.9031057,55.5268804c-.0356009-.4388953-.0390297-.8528162-.1096081-1.2549583-.0834057-.4752141-.307052-.904182-.8249513-1.0049206-.6613231-.1286507-.6732247.5004814-.8837793.8645383-.6900098,1.1930227.4032755,1.9673544.778469,2.8777234.1621074.3933386.7648104.2215305.9082342-.2896246.1089091-.3881907.0940038-.8111417.1316355-1.1927582ZM29.2626718,60.2576744c-.0613122-.344901.114161-.8528257-.3561792-1.039747-.4032755-.160275-.62167.2649335-.8523723.5064889-.586088.6136506-1.0561353,1.2939124-.5284124,2.1686049.1694656.2808779.4135053.6734798.8447496.4036628.7308247-.4572484.8605523-1.2143983.8922143-2.0390096ZM39.4083944,57.3772118c-.0481826.4057031.2611552.5409847.5193256.6834167.5882511.3245455,1.2029879.5908203,1.8928844.3650109.0888559-.0290739.2003909-.261278.1671326-.347763-.2582649-.6715906-1.023047-.2390806-1.4546219-.6496577-.285119-.2712433-.7399682-.3229019-1.1247207-.0510069ZM69.8896926,48.9015584c-1.1836809.701543-1.8036884,1.5333897-2.4776122,2.3053789.9714639-.4415496,2.1201578-.6862787,2.4776122-2.3053789ZM85.6254013,73.7105134c1.8062766,3.5671381,7.3894428,4.4593146,10.2397453,1.6154164.4510331-.4500318.7915513-.8300426,1.535345-.7418668,5.9181776.7015997,8.810778-3.5281839,11.8951076-7.4003338.2921372-.3667678.5818563-1.0346463.0492878-1.3987127-.6132728-.4192294-.8637166.3441076-1.1800726.6558446-1.7474392,1.7219168-3.5868796,3.2372086-6.1286471,3.6414476-2.1896122.3482353-4.3426694.3396964-6.4801601-.3836001,2.3916183,2.3927235,5.2889983,2.678891,8.443604,2.1434415-1.1563638,1.0563337-2.4600809,1.6405797-3.9714904,1.7956312-2.4513531.2515112-4.8188281-.2241186-7.178331-.7859216-.6062452-.14434-1.2092221-.3649354-1.9729935-.0766898.8984485.9198336,2.1060081.830052,3.0454605,1.5082263-3.1718159,1.7002011-5.7336366.2343766-8.4525491-1.4231582.0848131.4843104.0747156.6903593.1556938.8502753ZM105.9625261,65.4116839c6.3908603-1.7727915,9.5810764-6.360294,10.907841-12.548553.1942418-.9059106.5191556-2.1472387-.4692822-2.4695077-.8427849-.274776-1.081516,1.0269669-1.3826077,1.7182613-1.6142923,3.7064247-4.3764473,6.1686498-8.0764489,7.651486-.9069969.3634902-1.8316383.6828594-2.7481565,1.022518,4.2056687.0322193,7.4779492-1.9722851,10.4524818-4.6447719-2.6875149,5.2670936-7.1907616,7.9860723-12.8465749,9.1859336,1.4311209.5705592,2.8200573.4570878,4.1627474.0846336ZM108.6868982,34.5648174c.0228397-2.4839313-1.5766983-5.3859397-3.3346789-5.9366534-.1372274,6.2382269-2.3406303,11.564243-7.0966633,15.7508408,4.5208724-1.9309317,7.3907086-6.774791,8.1142885-13.4250402,1.8519088,3.4286544.7786106,7.2227731-3.788149,13.3911962,2.7627406-.8798593,6.0721239-6.1813637,6.1052029-9.7803433ZM84.5617283,29.2211379c3.16527-1.502984,5.5047007-3.7415155,6.1915462-7.1649181.7473075-3.7248485-.2547038-7.1626322-2.6771719-10.1016914-.8240634-.9997916-1.0806375-.0828012-1.1679348.5832354-.3988833,3.0432171-.5515922,6.1338706-1.9183689,8.9897886,2.2036013-1.6788916,2.827595-4.1259941,3.3644046-6.6316695,2.4931693,5.759447,1.0809114,10.473678-3.7924752,14.325255ZM96.801123,62.9181179c-4.0369304.8953219-7.4246376-.1084841-10.2387441-3.1344486.8182071,4.9342454,7.2886381,6.18313,10.478892,4.2633915.4400761-.2648296.7571311-.7290017.4645971-1.1652995-.7159477-1.0677347.0564287-1.2801217.7760792-1.5985369.4979783-.2203308.8809833-.5857952.8525895-1.1735267-.0323421-.6691631-.5373292-.9339455-1.0954012-1.1444056-.6065852-.2287375-1.1997764-.2810857-2.1534917-.1483828.4890427.2954432.6523592.4024349.8232511.4955602.3316392.1807344.9459132.1451335.8056443.7182808-.1029206.4205706-.6127249.5067912-1.0151881.5730718-.9073558.1494124-1.8197178.2684568-3.0047211.4394904,1.0431852,1.0597719,2.5846699.7106487,3.3064929,1.8748052ZM110.1625274,50.8550749c3.0382723-.9111435,5.4568109-2.7426779,7.9074839-5.2988218-.2920805.9253121-.4494084,1.4236966-.6067363,1.9220811,2.2058777-1.1327779,2.746664-3.1895738,3.0406148-5.3057172.1896512-1.3653032.4434576-2.8626291-1.2039703-4.1118255-.7043295,6.1027659-4.7576954,9.5524653-9.1373921,12.7942834ZM92.0289567,57.5635569c-2.5509676.442702-3.4497656-1.6871566-5.2928049-2.7401843.8211164,1.7300307,1.6531614,2.988021,3.0916784,3.7200171.9571253.4870402,2.1176452.8218342,2.8800281-.0226036.7583212-.8399322,1.6588383-1.1200167,2.6072074-1.4795397.7991267-.3029526,1.8640938-.4352965,2.0531593-1.4210235.1999092-1.0420612-1.0459245-1.0952311-1.5665348-1.7258085.8996481-.6868266,2.3435207-.6880356,2.8672481-2.1846343-1.5690851.6329954-2.9251314,1.1800348-4.3442941,1.7525588.5338154.6568648,1.4230921.6778248,1.6838506,1.4330951-1.939414,1.1777301-2.1037506,1.1669714-7.1133823-.5228111.5658458,1.5754421,1.7632135,2.3189146,3.1338441,3.190934ZM104.58364,46.4271767c-1.5184183,1.5269855-3.3417254,2.6819892-5.3024112,4.2445095,4.7034014-1.1441789,10.1884551-5.7780598,8.9468908-9.9250139-.9417949,2.406212-2.1248901,4.1523193-3.6444796,5.6805044ZM80.319448,8.052209c-.7434631,4.4067728-2.5376019,8.3287204-5.3360946,11.8263758,3.8879053-2.1422844,6.5596742-8.2410642,5.3360946-11.8263758ZM82.766286,36.6118937c3.5903746-.8196901,7.2668185-5.3163153,5.2670936-9.0206052-.1994464,3.9293531-1.7246372,7.0542332-5.2670936,9.0206052ZM66.7179996,19.029443c-.5548227-.2495228-1.2749737-.6160498-1.6287348.077743-.2967562.5820216.4887782.7920613.8774129,1.0328516,1.364727.8455619,2.3242326,1.9825951,2.7863644,3.5287743.2319302.7759611.4731928,1.5491263.822826,2.6913877.8166297-2.852475-.6888007-6.3552452-2.8578685-7.3307566ZM61.3953084,15.4129699c.1937978.184848.4909224.0613783.6860993-.1278431.2813785-.2728065.147221-.5438467-.0240488-.8163416-.6919839-1.1010308-2.8101487-1.4628585-4.1080472-.6063349,1.1691628.572779,2.5015665.6497096,3.4459967,1.5505195ZM64.9223117,28.876832c.867202,2.3619777,3.5754314,2.6906037,5.2921815.7742845-1.8510587.8369757-3.514261.2519173-5.2921815-.7742845ZM30.8001231,40.5871624c.422167,1.3590595,1.4363161,1.9082431,2.8405072,1.9367597-.9902798-.5681411-1.8180459-1.3920156-2.8405072-1.9367597ZM49.3056285,43.8840113c-.2893035.5229622-.1135659,1.1172208.3616483,1.5465948.6556557.5924072,1.6663288,1.0617839,2.2451341.6019001.9385361-.7457018,2.0050806-1.1055081,3.0091889-1.6450192.2886801-.1551082.42842-.4674214.2219272-.7901816-.1756809-.2745871-.4436277-.4878525-.7611077-.2255449-.8528445.7046318-2.0644942.37048-2.9563023,1.0965252-.3639436.2962933-1.3566887.129907-1.0329839-.7076638.9136466-2.3640085-.6538988-3.7091639-2.0390663-4.9641411-2.0862382-1.8901545-4.7660077-1.1428848-5.9251391,1.4523927-.2121509.4749969-.3931686.9517223-.2452864,1.4846026.8438617-.3218629,1.3869055,1.0337112,2.1017292.5243035.8574163-.6110152,1.7598131-.4905823,2.658101-.567036.8735023-.0743473,1.3741916-.3906466,1.2799705-1.3931775.8527973,1.1114117,1.9342755,2.0460845,1.0821866,3.5864451ZM62.3979243,35.3623101c.4637092-.3200965.1091169-.7160139-.3011484-.6766441-1.0033337.0962991-1.7595958-.490809-2.6210076-.7877919-2.2141427-.7633841-4.774556.6625322-5.1241138,2.86091-.0653077.4107093-.1565061,1.2265644.4702362.9227334,1.0802219-.5236518,2.0255495.1940812,3.1826595-.0790134,2.0682064.7223897,2.9852723-1.2681917,4.393374-2.240194ZM53.5703613,31.8845568c-.3251972.2443608-.6800162.5725617-.4709163,1.0235665.1980012.4270504.6413266.4364489,1.0705778.3616671.7015808-.1222182,1.327662-.5051948,2.073307-.5088503.8297781-.0040522,2.2074929.2061812,2.2008054-.7244961-.0075755-1.0560125-1.4190965-.8034245-2.2852595-.9368075-.9717567-.084917-1.8287385.2140022-2.5885144.7849204ZM40.5574283,38.3209832c.0763214.3273508.1795915,1.0705967.7022042.4860767.8121713-.9083476,1.8439083-1.2119897,2.9227417-1.5267777.2519457-.0734971.6739332-.1090319.6281498-.5247758-.0361488-.3283521-.3293156-.5072635-.631673-.5888084-.3425868-.0924075-.6979631-.1373313-.9119464-.1774378-1.691171-.0161805-2.9863019,1.1443772-2.7094762,2.331723ZM6.3904246,67.6420355c-.4866151-.141308-1.0042689-.1962348-1.5119102-.2381455-.4028741-.0332678-.9111341-.0541145-.9969957.4646822-.0760664.4596193.4269465.545103.7378476.6484297,1.4443071.4800598,2.7143597,1.2239102,3.7455394,2.3499438,2.7589293,3.0127122,4.8124806,6.2931254,4.0855758,10.6519376-.0683965.4101993-.2836644,1.0709462.2891051,1.192097.5340232.1129614.6163237-.5834904.8081285-.9639168.5378393-1.0667334.8740691-2.1953741.8152884-3.2992953.0150659-4.5931038-3.6765337-9.5582744-7.972579-10.8057328ZM76.23817,37.5736946c-.7009857.3106319-1.4635575.4328123-2.2434433.3983449-.239874-.0105887-.5615291-.043148-.6073597.288699-.0539917.3910717.2881133.485935.5747248.587127,1.5348633.5419387,3.8290868-.653077,4.4406404-2.4710285-.8309305.4663068-1.4719075.8899001-2.1645621,1.1968576Z"/>
  </g>
</svg>