<?xml version="1.0" encoding="UTF-8"?>
<svg id="Layer_2" xmlns="http://www.w3.org/2000/svg" viewBox="0 0 127.9771418 136.4910153">
  <g id="Layer_1-2" data-name="Layer_1">
    <path d="M46.9307866,75.3506937c-2.5759158,2.8086766-6.8817929,2.8514258-9.3900476.0755628-.3520384-.3896003-.7729964-.5556804-1.2548626-.6095137-1.7957494-.2006276-3.3166913-1.014427-4.44207-2.3617092-.783488-.9379936-1.6806421-1.1647843-2.7912199-1.256004-3.0501511-.2505687-5.4618014-1.6334666-7.1349149-4.2396207-.459888-.7163609-.7754035-1.4913986-.953014-2.3120534-.4654338-2.150429.2698983-2.9251229,2.4520435-2.5003897-1.0365735-.8786658-2.0273469-1.6764425-2.8748745-2.6306783-1.4890574-1.6765815-2.5653401-3.5672965-2.9325965-5.7962953-.0914538-.5550804-.3196199-.8369702-.8068307-1.0388708-1.215607-.5037566-2.4318323-1.0101982-3.6221834-1.5700415-7.2563729-3.4127909-11.3783913-9.1611717-12.563065-17.0393863-.2639758-1.7554732-.000556-3.5087515.5701666-5.1966806.5068038-1.4989052,1.7202086-1.9719845,3.1203035-1.2424615,1.4841262.773311,2.1586818,2.1961852,2.8505624,3.5925231,1.5705866,3.1696995,3.5402555,6.0630988,5.9281863,8.672099.8609457.9406495,1.8068665,1.782763,2.8944968,2.5742258.1378647-.3975751-.1380879-.4836367-.2738784-.6192663-5.189185-5.1832478-8.7536355-11.2498658-10.0471172-18.5391108-.34376-1.9372247-.4117907-3.8928134-.0729399-5.8434196.0746628-.429818.1745413-.866411.3416603-1.2669894.5835664-1.3987852,1.2717377-2.7602756,3.0480733-2.8175257,1.8236245-.0587682,2.7145122,1.1971736,3.2641639,2.6894429,1.1988234,3.2547149,2.1445797,6.5967425,3.4202535,9.8283379,2.1134488,5.3539006,5.3303311,9.8875487,9.8145942,13.5054155,1.4965786,1.2074164,3.1362859,2.1686978,5.2288869,2.8816348-.4246381-1.652445-.267323-3.0447956.67468-4.3082549.3000927-.4024916-.1988571-.8089487-.3885541-1.1793145-3.51857-6.8695381-2.3472448-13.2642629,1.9394196-19.3466109.1828197-.2594068.3855032-.5289502.6387204-.7103031.9340648-.668966,1.2823427-1.415942,1.2027779-2.6839776-.1362295-2.1711781,2.4333723-3.8580756,4.6258482-3.20398-.2719981.5332852-.8285637.5638417-1.2552431.7650473-.8391504.3957021-1.6586054.8031359-2.1295922,1.6624464-.5477714.9994176-.3004439,1.4915376.8007033,1.5945768.3049434.0285336.6482096-.0650931.8447547.2865649-.0413664.0674856-.0656784.1655313-.1239308.1939039-6.24357,3.041046-7.3827985,8.6422229-7.3354035,14.7802919.0172006,2.2279526.7654167,4.303909,1.894439,6.2362464.2999025.5132824.5174746,1.0791617.7310009,1.6368979.1537008.4014966.2050393.790797-.4312154.8421282-.3305505.0266679-.611694.2260517-.7281475.5523807-.4384805,1.2286922.0228122,2.279474.7427216,3.228186.727511.9587354,1.6802397,1.4406454,2.9298565,1.1176966.3391837-.0876639.5133775-.255712.3936097-.5841261-.3771407-1.0341372-.1462382-2.250399-.9495168-3.1564058-.0971385-.1095616-.1841293-.2215522-.0673319-.4011381,1.0219409-1.5712707,1.1104681-3.107884.1661605-4.9709727-.6302335-1.2434346-1.3970988-2.4170936-2.087999-3.6304216-1.3140003-2.3076124-1.1091731-4.6690217-.204176-7.0399201.2613236-.6846009.7029648-1.2351598,1.3791227-1.5809501.3315089.4545983.000278.7507988-.183405,1.0066205-1.7186576,2.3935278-1.3778277,4.815055-.0730752,7.2115532.9691318,1.7800486,2.2559959,3.3866058,2.8598615,5.3793979.4998716-.415361.3104599-1.2008537,1.0111786-1.5436077.2967784.8369775.0137107,1.5585915-.3044752,2.1979777-1.0635999,2.1372451-.9895443,4.2945734-.3639933,6.5243989.3445758,1.2282752.5523441,2.4970607.2284003,3.8711644-.5885379-.3454026-.569874-.9430053-.6932707-1.4288955-.1785397-.7030014-.4759473-.8984344-1.1815021-.5947421-.8634259.3716461-1.4168382.9371376-1.3653534,1.8906638.053409.9890761.7562055,1.3221287,1.645436,1.3844124.1463333.0102501.2895353.0652614.5574655.1288401-.6071505.8015373-1.320863.6118842-1.9905971.4538813-.5013641-.1182899-.9777943-.3404128-1.4679499-.5086439-.4066254-.1395584-.8448498-.4029087-1.161931.1323958-.2678205.4521327-.2544829.9256876.0549893,1.3544741.538487.7460724,1.292666,1.2175568,2.174485,1.3842075,2.0218158.3820938,3.8387898-.1025014,5.2416173-1.6391586,1.3232115-1.4494543,1.1691814-3.1370249.5034932-4.8337335-.6798819-1.7328512-1.3579639-3.4636904-.8359239-5.4174426.7956038,2.1930465,1.4443109,4.4505642,3.3843378,6.1526357.0825791-.5712129-.2165991-.8944909-.4033916-1.2359793-.5566754-1.0176682-1.0395-2.0536929-1.3231676-3.1930897-.6487071-2.6056785.0189492-4.7951327,1.90316-6.674266,1.4079416-1.4041517,2.9312393-2.71873,3.8143899-4.7594292.4665093.9461147.0944608,1.647287-.2398649,2.2563032-.6708243,1.2220051-1.4156018,2.4099309-2.2100203,3.5563806-2.6902696,3.8824169-1.1442109,7.1844683,1.7818265,9.5257649.7989327.6392764,1.7139824,1.1334413,2.7996922,1.8399252-.2670669-1.218486-.8209401-1.9881023-1.3182584-2.7810064-.5934251-.946144-1.2148425-1.8750142-1.7962689-2.8283575-.9851179-1.6152709-.7228798-3.1509624.4461553-4.5337579.7453701-.8816508,1.5784846-1.6957283,2.4238392-2.4848352,1.5783675-1.4733347,2.5957942-3.1344569,2.0806608-5.4062414-.0517775-.2283052-.0245535-.4782446-.0104404-.7167414.0140692-.2376481.0508117-.5296855.329014-.5487226.1366612-.0093575.3218441.2021567.4310545.3528579,1.6288939,2.2477797.9653859,6.446312-1.2666492,8.0585613-.8413819.6077505-1.7202086,1.1698911-2.5183292,1.8297849-1.0715381.8859528-1.1410868,1.6844831-.3402592,2.8026041.6506459.9084431,1.3423948,1.7883453,1.9705944,2.7117356.8627528,1.268149.9962533,2.6716204.6149643,4.1309736-.2149602.8227619-.5904035,1.0740183-1.568271.8515662-1.6789227-.3819255-2.9555294-1.7745541-4.8481979-1.7533149.2269151,1.129271.6966143,2.0877649,1.5492559,2.8489529.2680912.2393308.5598214.4541082.8129946.7077936.3560185.3567136.9352939.6871909.7108225,1.2650542-.1936039.4984157-.7988596.0946437-1.1962078.2520392.9441028.6877688,1.7588972.7101787,2.5538718-.1842391.5851943-.6584012.8254324-.4119224,1.2444662.0902466,2.8247286,3.3851865,6.6892791,5.076364,10.7104057,6.4833398,1.7839702.6241829,3.4610492.1844513,5.044004-.7351712.895025-.5199622,1.6088911-.9876347,2.8734332-.4595222,2.101322.8775829,5.1484369-.3881883,6.1767649-2.4679931,1.3315521-2.6930937,2.9477302-5.2003973,4.4853459-7.7644826,1.2435882-2.0737615,1.2822695-4.3218998.6299481-6.6018566-.4632169-1.6190242-1.170352-3.1427682-1.9588005-4.6210779-1.3569616-2.5442289-2.1630789-5.1680958-2.0571974-8.1226887.0981921-2.7399619-1.1903548-4.2847622-3.7525306-5.2056869-.3854959-.1385634-.7169463-.2091584-1.1416356-.0444099-2.2981452.8915059-3.8649163.4942088-5.5657879-1.3174902-.371968-.3961996-.5903889-.9709609-1.205463-1.105076-.0139156-.1170169-.0278385-.2340265-.0417614-.3510434-.5014373-.8639673-1.506258-1.3032234-2.0394334-2.4771202,2.4448662.76887,3.6314166,3.0522107,5.8587034,3.9272036.0517848-2.3623676-1.1462156-3.8758286-3.0618499-4.9841055,1.636159.0357657,2.8273185.6513776,3.3747681,2.2065304.2779243.7895459.5430158,1.5837377.8038273,2.3791366.1897556.5787194.5185135.7102079,1.0989596.4836148,2.5115324-.9804428,3.2489935-4.4745105,1.3565373-6.3864428-.4911286-.4961879-1.0839026-.4923102-1.6623586-.4970695-.9966777-.0081979-1.993787.1082483-2.99135.1204227-2.5590883.0312296-4.837538-1.5655896-5.8137593-4.092991.5266859-.0842692.8430134.2600213,1.1144189.5485982,1.7309197,1.8404264,3.8370046,2.3623201,6.2302105,1.7569401.740234-.1872497,1.3285817-.0233573,1.909613.3665101.6293336.4222749,1.265025.8379396,1.8684588,1.2953766,1.5992043,1.2123074,3.2596461,2.095341,5.4011419,1.7727653,1.1778439-.1774276,1.6281403.6709231,1.0396171,1.7342998-.4088422.7387232-1.0308009,1.2191481-1.890415,1.3087143-.2868429.0298944-.5810679-.0825206-.6418152-.412954-.0603668-.3283775.2498151-.3649444.4602904-.4341932.455052-.1497135.9264632-.2618102,1.1294685-.9655505-1.5038217-.1884386-2.9841508-.4136453-4.3689728-1.2965326-.1016234,1.1161419-.0343866,1.9502733,1.0769082,2.4169765.4948526.2078195.8994148.6535578,1.3135686,1.0261916,1.1326219,1.0190802,1.7240936,1.0686628,2.8533938.197467,1.0812322-.8341095,1.4587899-2.3592765.846796-3.4164856-.5811996-1.0039903-1.5216515-1.6391147-2.5874829-1.7853273-3.4955309-.4795213-6.0588993-2.4710293-8.4689619-4.8270099-1.3669337-1.3362565-3.0377061-2.2136858-4.9440707-2.5131968-1.2975825-.2038651-2.5621978-.0465426-3.4550059,1.0709857-.3961484.4958659-.7934162.2488896-1.1788389.1299485-1.9075864-.5886769-3.8195699-1.1512089-5.8013436-1.4403491-3.5443233-.5171308-6.4410516.60996-8.6932065,3.3991423-.5435646.6731692-1.0290596,1.4061747-1.7572291,1.9303913-.3299798-.3618715-.1202288-.6419212-.0268069-.9235878,1.7575949-5.2991344,6.8770154-7.8073818,12.1191155-5.9369512.3379838.1205982.682984.2282539,1.0073449.3792441,2.2283257,1.0372649,4.3658707,1.5971228,6.9014518.5800839,2.3975225-.9616619,4.5275683.2055076,6.1595643,2.1083457q2.4628497,2.8715639,5.682439,1.4925948c2.6153214-1.1170418,4.715107-.0624263,5.8114766,2.5620514.7765448,1.8589074.8932984,3.7794107.4218433,5.7521927-.3445831,1.4418929-1.2430029,2.3115376-2.6237425,2.6534137-.8622114.2134897-.9758701.6020584-.5856991,1.3118786.1917017.3487754.3292262.7269476.5118703,1.0811883.2656402.5152724.5650964.5183453,1.0381392.1654289,1.7679255-1.3190046,2.4103406-1.3660631,3.574964-.3803086,1.1165699.9450905,1.3460676,2.4998556.5197939,4.0507138-.943437,1.770735-2.4225076,2.7883373-4.4652261,2.6280225-1.1423087-.0896539-1.2193713.327046-1.0942479,1.2776529.2311219,1.7560292,1.1074831,3.2296127,1.850329,4.771384.303707.6303213.7138295.2986514,1.1024056.18042,4.0381444-1.2286922,7.0919536-3.7873928,9.4315164-7.2034541,4.0307256-5.885364,6.1987357-12.3759067,6.0976537-19.5660561-.0297042-2.1140122-.0721973-4.2269378.4498354-6.3131407.315435-1.2605657,1.0206971-2.1518338,2.2637951-2.3383043,1.3114176-.1967097,2.4398692.3690635,3.1536475,1.5364158,1.1128093,1.8199444,1.5067629,3.8680038,1.6301011,5.9474903.3984311,6.7169127-1.3295328,12.9603986-4.3596811,18.8948769-.1719916.3368132-.3571233.6669101-.4535521,1.0403853,2.6367509-3.1419048,4.3771525-6.7041751,5.0507204-10.7696312.2022372-1.2206406.4073863-2.4481952,1.0090935-3.5521189.5254567-.9640141,1.2745142-1.6830455,2.450551-1.6347762,1.1756271.048262,2.0314001.6846484,2.533752,1.7375117.915796,1.9193912.8578802,3.96399.6181981,5.9962608-.4175559,3.5403652-1.1715007,6.9888523-3.3573333,10.1373711.6075163-.2014543.7062132-.5923716.905758-.8852797.2019153-.296376.3675709-.6171665.5618187-.9190956.4744036-.7373807.8827848-1.5331381,1.4495055-2.1920881,1.3811273-1.6058695,3.1356201-1.2735558,3.9005247.690432.4984888,1.2799283.3625227,2.5934164.1516376,3.9011686-.1135051.7037769-.27919,1.3991474-.2496175,2.2106276.2359214-.3149009.4605465-.6390496.7095934-.9431955,1.6150002-1.9722113,4.2437324-2.4313238,5.9402947-1.0151148.7756888.6475072,1.2253194,1.4904402,1.0799591,2.5285794-.1032476.7373295-.6092137,1.1553317-1.2954096,1.4320781-.7470528.3012779-1.2862788-.2365653-1.9852197-.4141758-.280068,1.4916327-.060696,2.850299.5911717,4.1790344,1.1654135,2.3755077,2.9634969,4.2436592,4.7829291,6.0994243,1.3146222,1.3408657,2.6452817,2.6671574,3.7261773,4.2140575,2.9445037,4.2139478,3.0332944,9.1712755.2360385,13.4747602-.411659.6333136-.8517052,1.2481828-1.3056378,1.911047.24255.137583.4468357.2550023.6525409.3698902,1.9741135,1.1025153,2.1821598,2.6278908.5711543,4.2506683-.3068457.3090844-.7295522.556134-.6400446,1.0746402.1579589.9150863-.3275947,1.4368556-1.0697456,1.7851042-.4222091.1981181-.4297449.4592076-.3422858.8682912.3107672,1.4537709.0264265,2.1018561-1.4127777,2.5188487-1.054952.3056531-1.0875681.7781837-.8893549,1.7039079,1.1858699,5.5386884-1.4665671,10.8359388-6.6379333,13.4123302-2.7578503,1.3739574-5.7593187,2.1292045-8.5615351,3.3895104-1.4891159.6697049-2.9867042,1.3240602-4.1053958,2.6768003.1324543.070573.2260883.1662556.3074017.1567591.879873-.1029696,1.7120729-.0677782,2.152602.8677864.4322178.9179177.1071106,1.7299686-.505132,2.4238758-.6636324.752145-1.4699472,1.244971-2.5384783.9352427-1.2785821-.3705999-2.1059386-1.2797966-2.6917548-2.4075897-.9972264-1.9198558-1.5681613-4.0087328-2.266429-6.0428693-1.9552521-5.6957547-3.8990761-11.3961772-5.754212-17.1249431-.4071229-1.2571965-1.5882079-1.6137345-2.2948162-2.4999434-.2690057-.3373619-2.059085,1.3892777-2.0565682,2.0571755.0076382,2.0362801.1024428,4.0705922-.1272012,6.105848-.2036419,1.8048875-.5944348,3.5511568-1.4866577,5.1360431-.4760717.8456473-.1825856.9517922.6151838,1.0155611,1.5144596.1210262,2.995791.450611,4.4170702,1.0146831,4.725584,1.8754751,6.9176501,6.7237389,5.0866288,11.8719855-1.8479073,5.1957441-5.0423944,9.59606-8.9240724,13.4689876-3.4256676,3.4179708-7.369834,6.1874394-11.8787311,7.9325819-3.7346569,1.4454669-5.9338491,3.9602843-6.8626608,7.7603416-.1883801.7707723-.5847626,1.4900817-.7809127,2.259698-.5075245,1.9913507-1.8718536,3.0388401-3.7190073,3.7041991-1.4360215.5172478-2.9602777.7434532-4.2234224,1.8333625-1.0561007.9112745-3.1259334-.2110167-3.2078832-1.7276712-.1203166-2.2265259-.0794916-4.4701865.0452074-6.6980147.0631982-1.1291832.7997521-2.0742151,1.4758881-2.9682817,1.0145148-1.3415169,1.4817557-2.7846572,1.1558072-4.4846143-.3455196-1.8020488.356677-3.2628652,1.6131199-4.539428,2.2785155-2.3150092,4.3637563-4.7803684,5.6706378-7.8045467.2197305-.5084829.4091641-1.0300473.596915-1.5058264-.2790218-.3408226-.4927309-.1202507-.6927805-.0439563-2.1652885.8259372-4.3113789.7434971-6.4005998-.216065-.7188851-.33017-1.1930838-.2372823-1.79981.2765708-3.6033659,3.0517607-7.5688228,5.4641499-12.2121935,6.5959523-.4997765.121831-.6900662.3578988-.8139165.8528026-.5549195,2.2174683-1.7581363,4.0006117-3.7093498,5.242905-.9277581.5906742-1.4265177,1.476327-1.7304295,2.5025699-.1927479.6508581-.401065,1.2968582-.8736102,1.8181154-.9722851,1.0724819-2.006832,1.1641698-3.1342813.2792193-.4395707-.3450221-.9004976-.6628568-1.3397829-1.0082155-4.2469589-3.3390572-4.6124666-8.9359833-.8352655-12.7969561,1.1731322-1.1991709,2.3859042-2.3623457,3.1358762-3.9047536.1177924-.2422573.3118939-.533373.540382-.6217685,1.390419-.5377774,1.3978451-1.6104202,1.3648486-2.8734771-.0453976-1.737958.6264509-3.3563822,1.2773895-4.9494189.4081398-.998836.7770058-2.0049151.9353232-3.0830013.4015113-2.7339699,1.5580355-5.1783167,2.9362729-7.5347654.5767147-.9860471,1.1435232-1.9778595,1.8179471-3.1455557-1.3465871.2562315-2.4672907.5156236-3.6020416.6750897-1.9234408.2702788-3.8455647.322722-5.5574839-.8082903-.5091779-.3363889-.9231635-.0951119-1.359493.0121304-2.4225442.5954005-4.8517243.9858276-7.3426833.447026-.8808021-.1905311-1.660193-.5722225-2.3036251-1.2013366-.8984051-.8784243-.7914408-1.6016992.322305-2.1375158.4625804-.2225326.9565112-.3799355,1.4924888-.5889037-.4754498-.2949493-.917508-.093912-1.3381075-.0488583-2.3730494.2542707-4.7198407.1214506-6.987572-.6290555-2.0252179-.670239-3.604178-1.8808892-4.2102457-4.0605688-.4788299-1.7220816.0033618-2.3860359,1.7989064-2.4612035.3979519-.0166592.7971988-.0024363,1.2473744-.1809248-.9537017-.3150619-1.9223397-.5913766-2.8583689-.9522751-3.1222825-1.2038241-5.6646238-3.0939392-7.1231028-6.2085981-.391766-.8366482-.6881639-1.71388-.5811923-2.6585095.1704954-1.505541,1.0433959-2.0707911,2.4988752-1.7007912.4889447.1242966.9029449.5097779,1.6100142.4162975-1.4938093-1.0075863-2.8947968-1.9233091-4.159701-3.022576-2.4777457-2.1533043-4.517973-4.6143762-5.6294507-7.7621195-.3824633-1.0831417-.4757827-2.1851815-.3449489-3.3050876.2506674-2.1456076,1.8514813-3.04492,3.7879305-2.1025951.6746434.328297,1.302532.778608,1.8950645,1.2452124,2.5363932,1.9973135,4.9254799,4.2155793,8.0904604,5.2422392.1091263.0353963.2052954.1107395.3859312.2109948q-.8772976.2440864-1.5492486-.0014852c-2.388004-.8781609-4.4892162-2.2406537-6.4781672-3.802779-.7832063-.6151326-1.5713219-1.2436321-2.4310567-1.7374751-1.6031149-.9208735-2.4857351-.4338493-2.6521444,1.4132313-.1105017,1.2265193.2605042,2.3748127.7556787,3.4737576,1.8659164,4.1410408,4.9888647,7.086342,8.9429082,9.1771798,2.4393754,1.289915,4.9665061,2.3880405,7.7948855,2.5223751.3342598.0158764.8323024-.0159495.8284979.4507719-.0034972.4300668-.4784714.47853-.8308391.5065148-2.708147.21507-5.3199566-.3236585-7.9000646-1.0593125-.6113355-.1743109-1.1916132-.4556299-1.7906609-.6755067-.4829636-.1772666-1.0077619-.4506256-1.4631248-.0355645-.4929065.4492867-.4860475,1.0711137-.3257473,1.6763547.311978,1.1779098.9082492,2.2089229,1.67983,3.1428925,2.5482895,3.0845743,5.9396692,4.4830779,9.8221044,4.8334116,1.7511931.1580175,3.5085686.1311374,5.2559499-.1753937.4260501-.074758,1.1680401-.3090259,1.2614912.1606952.1168852.5874697-.643315.6680295-1.1189843.807266-2.2034356.6448953-4.4915648.6715047-6.7517676.900044-.4765253.0481778-.9592475.0453976-1.4326853.1118662-1.4800145.2078049-1.813272.9050044-.9716596,2.1767385,1.2376876,1.870222,3.163583,2.6227767,5.2574534,2.9892283,4.3099961.7543106,8.2475487-.1465089,11.7663674-2.7806844.2233154-.1671702.4477137-.3337404.6811183-.4860219.0564306-.0368229.1507304-.0156057.2801558-.0248169.1414168.9189054-.4778788,1.4920644-.9966923,2.0458864-1.5804161,1.6870731-3.4403294,2.962714-5.6857094,3.6274585-.4790933.1418338-1.2448539.2195329-1.2461343.713032-.0015072.5799339.7695431.747287,1.2828621.8874234,3.2013132.873859,6.2475208.3020169,9.1809916-1.0996546,2.2479846-1.0741354,4.2713075-2.4783822,6.0974196-4.1898991-.8913888,2.6910671-3.1872659,3.9704101-5.6298275,5.3504399,2.2610588.6858739,4.2961537.5563169,6.319762.0331867,2.5171879-.6507118,4.7668113-1.7788561,6.584217-3.707389.4985181-.5290124.5101656-.8304879.0175591-1.3610221-.7509671-.8087951-1.4853041-1.6572153-1.8415275-2.7426543-1.6986109-2.2870244-2.4931977-4.9469021-3.133513-7.6656687-.1726135-.7328958-.0307285-1.717882-.4664727-2.1633057-.4857146-.4965207-1.4085123.1084056-2.1550383.1440872-4.6680852.2231545-7.5221521-2.3265251-9.5133346-6.1809352-.518155-1.0030063-1.0597369-1.9318546-1.961888-2.6669087-1.0974158-.8941471-1.7650356-2.4555919-1.610647-3.6685175,2.4474489,3.8675648,5.6902821,6.2830927,10.2691377,6.6112215-2.1806527,1.1642795-3.9980949-.0506288-5.8554622-.7668068-.1440141.3515702.0304504.5456497.1282401.7533229,1.654457,3.5134924,5.8118425,5.5545428,9.813259,4.8749755.77893-.132286,1.1356801-.4027843,1.2410348-1.2428054.3803233-3.0325042,1.9110616-5.3699452,4.5119626-6.9888816.6916392-.4305131,1.4018178-.8312342,1.8638495-1.1041029-.5561486-.6722217-1.0983816-1.3112201-1.6210215-1.965868-.2861113-.3583744-.6352378-.4543423-1.0594516-.3415322-1.6652559.4428337-3.0663421-.0707413-4.2912298-1.1955128-.3477804-.3193638-.5291734-.4300302-.8819581.0948339-2.9674403,4.4148241-9.2553472,3.9480002-11.5693833-.8274956-.3417005-.705167-.5476763-1.4458839-.3558795-2.2017309.2328632-.917669.6870372-1.7083196,1.7679841-1.8490926.2941519-.0383082.8343509.4931991.8381335-.0948924.0045946-.7159.713054-1.5030023.0317966-2.12998-.6363791-.5856772-1.2850424-1.2515922-2.1433615-1.4997026-4.6013459-1.3301327-7.8279223-4.4946523-10.7809129-8.022492-3.6108687-4.3137787-5.5798426-9.4412836-7.2266431-14.7223797-.4748425-1.5227636-.9376864-3.0478026-1.5861228-4.5104921-.4501391-1.0153891-1.0701114-1.8306957-2.2935176-1.7685474-1.2101344.0614716-1.6774961,1.0091081-1.9540961,1.9898143-.7039562,2.4959487-.8203109,5.0175922-.2342277,7.5705202,1.093626,4.7637312,3.2829924,8.9377978,6.4238766,12.6824195,3.7002739,4.4115245,7.6436247,8.4865796,13.0113823,10.8873358.2993977.1339029.68842.242967.6551235.8279784-3.5306492-.5462131-6.3369992-2.4621035-9.1376425-4.6776988-.3035753,2.0753857.3273825,3.7030285,1.4931399,5.1289463,1.7853603,2.183806,4.1037935,3.6368819,6.70378,4.6714507.5612407.2233301,1.2085358.3173738,1.6184242.9648372-.7474186.3402519-1.4066612.162656-2.0352778-.058706-1.0143173-.3571964-2.0074758-.7743207-3.0106724-1.1632991-.8163601-.3165251-1.6048671-.7055694-2.4784188-.8683059-.8653501-.1612074-1.2896297.0854471-1.2062165,1.0477894.098653,1.1380798.4256697,2.1994922.9904296,3.1726187,2.0864626,3.5951424,5.0455039,6.0152502,9.218473,6.8106858.9541846.1818832,1.9618807.253583,2.8223727.813419-.2575118.4996814-.7019478.4317056-1.0778594.4794152-2.5203412.3198979-4.916993-.1732719-7.2555388-1.0961574-.4097714-.1617195-.9109819-.5734297-1.3097641-.1966036-.4469382.42237-.2754807,1.0396097-.1011844,1.5826402.0729289.2272004.1585369.4517377.2566046.6692732,1.4828312,3.289321,5.3670333,5.27168,8.907618,4.5883082,1.5876811-.3064359,3.0325554-.957755,4.4780589-1.6405634.5353776-.2528952,1.3756694-.906197,1.6516256-.3570428.3046654.6062726-.6584085,1.0372685-1.2059897,1.3960526-1.336315.8755563-2.8943871,1.2494705-4.5107774,1.8376938,1.2763579,1.4579046,2.6639017,2.4260487,4.5405255,2.5292744,2.273877.1250795,4.0779743-.8788779,5.6934354-2.3611824.5857869-.5374993,1.0865292-1.2131743,1.9811298-1.5080725-.6277605,1.9336983-1.4967981,2.6637261-5.8072039,4.9509919,1.0758766,1.0424119,2.3310685,1.552936,3.7980307,1.4822459,1.7611945-.0848764,3.4572447-.5154041,5.1237151-1.0711064ZM79.7146178,71.3147734c.1476429,0,.2366384-.0264631.2955932.0044117.317425.1662264.6169836.3692903.9416079.5185721,1.9962087.917947,4.0212876,1.1914084,5.8996307-.182988.8723372-.6383107,1.6017723-1.3369808,2.8054648-1.2964851.4863291.0163592,1.2631593-.3123914,1.2023609-.9177055-.050702-.5047882-.7976377-.3024047-1.2457465-.378282-.0780064-.0132206-.1600368-.000717-.2391845-.0094014-.4993814-.0547845-1.2217929.0621739-1.2488925-.6122207-.029075-.7232602.7033452-.6045606,1.1950738-.6295604.5650086-.0287311,1.1196574-.0876127,1.6160245-.3683172.2343265-.1325128.5068879-.3022437.4537716-.6400007-.055399-.3521116-.3577671-.3976117-.6392545-.40664-.5584386-.0179249-1.1212523.0269167-1.6755938-.0252193-.6512093-.0612448-1.6189364.0267777-1.6591175-.7888728-.0460927-.9356744.9491144-.7179193,1.5777602-.8037029.3941291-.0537821.7987059-.026624,1.1953518-.0673319.5708178-.0585816,1.0945332-.2127653,1.3133491-.8387261-.4729988-.3346476-.9960558-.2942762-1.5126744-.3038313-.9572648-.0176908-1.9156855-.0235439-2.8707993-.0814158-.3935438-.0238511-.8817898-.1368002-.8932764-.626546-.014735-.6282288.5647745-.6138742.9741654-.6019121,1.0355638.0302602,2.0681426.1581272,3.1037503.1935893.3769797.012906.9432321.3675709,1.096055-.292535.1189923-.5139774-.3226489-.7826174-.7146416-.9895443-1.0194826-.5381432-2.1473196-.629853-3.2613288-.6400373-2.8892071-.0264338-5.7528365.1702576-7.6493094,2.7906639-1.7570242,2.4277242-4.1843314,3.7264773-6.9716663,4.5532558-2.6013546.771599-5.3014061,1.1543586-7.8689521,2.0525589-1.7509956.61255-3.4544572,1.2749239-4.4134267,3.0409472-.1240113.228371-.3050166.4871047-.7054597.404489-.2414233-.9935244.2131677-1.8423543.8368019-2.4720829.932265-.9413738.6854057-1.789355.1891556-2.7764776-.7050646-1.4025275-1.9330618-2.3166773-2.9907135-3.3963804-.4331982-.4422265-1.0715088-.8248324-.9112599-1.6650218.8265591.2237691,1.4014886.7266038,1.9945845,1.1938374,1.4796267,1.1656769,2.7418495,2.5614369,4.0787132,3.8779101.3465732.3412908.6386326.6366425,1.2305579.4294449,2.0769514-.7270281,4.2575602-1.0375392,6.3990707-1.5072677,3.4265016-.7515816,6.5911382-1.9389806,8.5804916-5.1297876.4436897-.7116346,1.1275444-1.2787065,1.9072279-1.6013626,1.0558446-.4369222,1.9143393-.8588166,1.4250398-2.2797447-.1393755-.4047304.02748-1.074311.6182274-1.0995668.4861974-.0208076.7530522.5524246.7189436.9646616-.1154805,1.3964184.6999944,1.4097341,1.7013326,1.2963899.5535367-.0626422,1.1173162-.0309553,1.6760621-.0523481,1.9231043-.0736166,3.6588234.3380716,4.9169199,1.9352786.2716396.3448611.5502297.3899661.9332088.2345899.9987921-.4051914,1.9947455-.8155846,2.899728-1.409617.2601677-.1707625.6308992-.3354597.6056141-.6813817-.0308309-.4215945-.5002155-.367849-.7643486-.4006772-2.5646853-.3187346-4.330372-1.8448198-5.9189897-3.7289794-3.1021115-3.6792432-7.2121897-5.2441707-11.9068623-5.5462315-.6437613-.0414249-1.009986.2135921-1.3800372.7092422-.8962688,1.2004659-1.457729,2.5649194-2.0348388,3.9203812-1.0863463,2.551494-3.1206437,3.7161028-5.7544168,4.07068-.8278906.1114565-1.6855659.1823954-2.4628643.4592515-4.5928882,1.6358736-8.8693611.922249-12.9317005-1.6102007-.3713974-.2315317-.7342493-.4151927-1.2192908-.3970191-3.3118332.1240991-5.9611389,2.1535019-6.8915821,5.3446235-.7507988,2.5750086-.5812581,5.1520511.1867852,7.6746311,1.7060662,5.6033645,5.4289365,9.6855456,10.1070304,12.9699647,1.5893273,1.1158529,3.4680509,1.3853562,5.3944621,1.0975914,1.3020016-.1944673,2.5934457-.4603563,3.8961789-.6490144,6.3745757-.9231855,11.6872636-3.6252562,15.4081146-9.0687742.4569908-.6685709.8143921-1.153905-.1256062-1.6873511-.3232049-.1834123-.6163983-.5203719-.5123752-1.0764034ZM35.1612586,118.9965609c.2385772,1.1781146.2805582,1.2009854-.4598222,2.5604857-.3206296.5887135-.1864559.9482365.229666,1.3464334.860514.8234643,1.8796454.6054385,2.2814347-.7068278.5842139-1.9079888,1.8097162-3.2549051,3.3034927-4.4290836,1.4892842-1.170652,2.4268974-2.6373801,2.5525402-4.5529046.0441685-.6733338.3291457-.9525531,1.0097153-1.0575713.9815037-.1514474,1.9625611-.382145,2.9053762-.6949022,4.6293819-1.5356915,8.6018918-3.9884813,11.2868424-8.2116842.4321227-.6796843.5525856-1.0204045-.4807468-1.2257876-1.4379677-.285804-2.8996475-.684557-3.875942-1.9398293-.1973792-.2537732-.6051971-.5852016-.2622455-.9188249.23369-.2273028.5950859.0619105.8581435.2143969,1.0349346.5999513,2.0326805,1.262018,3.284024,1.3568665,3.765839.2854382,6.7455341-1.3377124,9.2798787-3.9065973,3.0896811-3.1318157,3.5105806-5.8561865,1.6645535-9.8301231-.1022014-.2200158-.2516734-.458776-.0673173-.6633251.2206377-.2448034.5406454-.163212.7794348-.0254754.5361458.3092747.8473374.8248836,1.1459302,1.352228.6267582,1.1069417.8767855,2.3408504,1.1222693,3.7385126,2.5697848-2.5525988,5.46753-4.1634726,8.8244829-4.6376567,2.1785163-.307709,3.1527988-1.628272,3.8894332-3.3810674.9800916-2.3321294,1.1023763-4.808463,1.1325341-7.2900425.0255485-2.1039779.006175-2.102339-2.0181723-2.2973111-.2375018-.0228781-.4818955-.05068-.7054084-.1275963-.5531416-.1903409-.8878331.0176615-1.1811728.4935064-.6073993.9852716-1.2829426,1.9285695-1.8888786,2.9146825-2.3084099,3.756796-5.7025442,5.915412-9.9420478,6.9101362-1.8073458.4240528-3.6631035.181415-5.4692201.5733931-4.2925395.931687-8.1601628.0599205-11.5192813-2.8400562-.2413721-.2083682-.5459204-.3539041-.7547276-.5878648-.7809419-.8750296-1.6010553-.7403365-2.5439216-.2559096-4.4426919,2.2826273-6.3262223,6.4124156-8.0214604,10.8651162.2128605-.0921561.2930617-.102955.3347647-.1487843.2952639-.3244487.58248-.6562136.872542-.9853886,2.3562366-2.6740055,5.3593732-4.0952115,8.8567332-4.5170548.6190541-.0746555,1.3541595-.2856723,1.8226734.4954306-.5312439.3477291-1.0840929.3992505-1.628111.4718575-3.540036.4724867-6.3822359,2.1657713-8.6258526,4.9143445-1.710595,2.095608-2.9288615,4.4564758-3.8618581,6.9866282-.9848765,2.6708009-1.2361329,5.2783012.4026087,7.8044589.0477535.0736166.0060286.2052808.0060286.3150692-.65576.1187582-.8864649-.3662979-1.1916059-.7039891-.8033883-.8891647-1.5017585-.8330779-2.139001.2077537-.5077074.8292295-.4371563,1.7603166-.4407632,2.6787903-.002012.5121118.1357686,1.0739305-.2919204,1.4899207-.3631007-.1579589-.3934487-.4197801-.472516-.6336209-.4599831-1.244093-.5781341-1.2864837-1.6160538-.3605473-1.6125785,1.4386481-2.5538718,3.2476327-2.8452289,5.3864069-.0705657.518038-.2830604,1.0677263.1885045,1.6908117.1062985-.177113.1546739-.2931495.2334778-.3822767.2180111-.2465593.2824092-.8277224.7165292-.6318211.4818955.2174844.1616317.7050134.0663954,1.0661167-.059562.2258835-.2040809.4314715-.3224074.6393569-.307431.5400893-.4677823,1.1094146-.2867258,1.7214378.0513165.1734988.1783641.3944657.3262631.4528644.2121069.0837424.3575988-.1511548.4454603-.3188736.2217278-.4232919.4011967-.868562.6181177-1.2945901.0851398-.1671921.1933552-.3862129.4344273-.3196492.2334339.064442.2327901.3005244.2392065.4964403.0240779.7358589-.1216847,1.4140214-.5742272,2.0295418-.2193573.2983734-.26774.7197045.0833107.9679612.3829059.2707909.6651029-.0402104.9069872-.3122012.5018251-.5642477.6807379-1.3552569,1.382854-1.951711ZM61.8202925,115.2023127c-1.4203427,1.5111234-2.5881853,2.8174928-2.0916133,4.8857232.4399804,1.8325138-.0574622,3.452416-1.1964859,4.9376396-1.116387,1.4556951-1.7691839,3.1164222-1.8798649,4.9659245-.0643834,1.0759205-.1187143,2.1456076-.4599027,3.1888535-.3117842.9532847.10883,1.6187462.9897638,2.0317221.2931788.1374294.5733346.3117183.876683.0314455.296815-.2742296.170243-.5626382.0596279-.8760392q-.6277093-1.7785634,1.3518256-2.1012562c.4726184-.0764114.9455002-.1624219,1.4217621-.2030712,2.4885958-.2124068,4.2698662-1.4373897,5.3116562-3.7076671.4820784-1.0505183.9634544-2.1045485,1.3741183-3.1840248.8445572-2.220029,2.3172114-3.5320758,4.6289064-4.4081443,11.0076158-4.1716376,18.0153442-12.2270017,21.556185-23.3030908,1.4819899-4.6358422-.7813224-8.6013211-5.5429172-9.7331089-5.3867581-1.2803673-10.5158946-.2207182-14.5851405,3.6434592-3.3780823,3.207832-5.9503912,7.1726232-8.8294287,10.8422308-.3685733.4697943-.6123817,1.0345834-.7112615,1.6338324-.1684505,1.0208288.2437572,1.4098658,1.1879843,1.0634243.8571193-.3144692,1.5918661-.7175242,2.0179089-1.6930505,1.5045972-3.4452021,4.1980348-5.4388501,7.9004927-6.0544437.7598271-.1263379,1.5448588-.2201329,2.2690043.377726-.4802932.4196337-.9526043.4633706-1.4208183.5084829-2.5663168.2472763-4.6085671,1.4495201-6.2212187,3.4233264-1.0721088,1.3122078-1.8244366,2.8112446-2.4269559,4.3802253-.9881103,2.5730405-2.0553976,5.1006175-3.5414261,7.4392584-.712476,1.121267-1.1336242,2.3674378-1.2461196,3.7109155-.0367278.4386561-.0639298.9184591-.5171381,1.3473407-.6924659-.9707268-.3435223-1.9222117-.275627-3.1476335ZM89.7844667,33.4877211c.3941876-.7292889.9895004-.8973516,1.5012171-1.164938,1.0314521-.5393431,2.0256495-1.1144116,2.7310433-2.0859724,5.2306282-7.2043979,7.5062465-15.2349707,6.7356205-24.1119334-.1151293-1.3263356-.4969524-2.5882036-1.2484389-3.7044442-.535363-.795249-1.2549065-1.507114-2.2608393-1.2507545-.9962021.2538903-1.3332056,1.1863747-1.3765912,2.1637776-.0743043,1.6750378-.1695626,3.3512608-.1708064,5.0270521-.0054433,7.3640139-2.0925644,14.0786696-6.2543689,20.1422001-2.49281,3.6319141-5.6984325,6.3588384-10.0665786,7.4361344-.9999334.2466032-1.165377.53777-.7622488,1.4687035,1.6157026,3.7311378,1.7920401,7.4106956-.614123,10.931658-.0348914.0510531.0030289.1518645.0099355.2877574,3.2051177.0685757,6.3200473.7344688,8.9363272,2.5941115,1.6737501,1.189689,2.9150629.9052898,4.3557889-.1218018.6840156-.4876241,1.3833661-.9473805,1.9606515-1.5632154.4978743-.5311049.8877453-1.1254007,1.0351102-1.8551944.2769805-1.3716235-.0310065-1.7292223-1.4080221-1.6608149-.2473349.0122914-.5525709.1868217-.7744743-.2137091.6404836-.8133824,1.5524166-1.3150538,2.3812949-1.9021065,1.1150189-.7896995,1.9124225-1.8004099,2.3574438-3.0833452.129162-.3723265.2885403-.8715836-.0547698-1.1208719-.3114696-.2261834-.6481511.1707844-.933955.3692537-.9137328.6345135-1.706176,1.5497827-2.8384759,1.7135727-.7523791.10883-1.1379335.4429215-1.5561186,1.0005334-1.5665224,2.0888916-5.3681308,2.5242408-7.0142106.7809493.5731736-.233946,1.1164529-.0897198,1.6536449-.0397421,1.2597353.1171925,2.4687686-.0792502,3.6086336-.6277386.5220912-.2512271,1.0178145-.62798.9134694-1.2655956-.0943364-.5765538-.6982385-.5622504-1.1571607-.6473609-.5490445-.1018356-1.1139214-.1362442-1.6512598-.2781365-.5056881-.1335298-1.1035323-.1770033-1.4186746-.8868747,1.5269997-.0386301,2.922789.250693,4.32866.4308496.5452839.0698707,1.0259209.1862145,1.1728469.8179332.0776698.334033.2295563.5053735.5737443.2267102.990671-.8019982,2.1539336-1.3846977,3.0078775-2.360502.7127686-.8144725.8179917-1.6767059.2702202-2.6399115-.3022803-.5315-.5540196-.6777894-1.0857683-.239982-.8641868.7114956-1.8147352,1.3074595-2.8896607,1.6630464-1.5918075.5265907-3.1873025.7122126-4.9524478.0554502.8294929-.4720477,1.5697269-.2852918,2.2668387-.3894686,2.6387848-.3943486,4.8594576-1.5197932,6.3234201-3.8344366.3438076-.5435792.5235252-1.2758897.0122329-1.7944618-.5341338-.5417209-1.0172145.0948339-1.4756832.3237829-1.2730363.6357207-2.4666469,1.4813241-4.1713449,1.4098365ZM112.2559429,34.744303c-.7488673.5669548-.911494,1.0699578-.9974898,1.6405634-.6952534,4.6127154-1.1574827,9.2603442-2.0687864,13.8406703-.7856536,3.9488196-1.5640788,7.8991099-2.363487,11.845142-.1612074.7957355-.2233813,1.4022568.9018072,1.4058564.9537091.0030436,1.9185682.0947607,2.8576739.2632917,1.482663.2660939,2.6408626-.091622,3.7249921-1.2098162,1.7902549-1.8465319,3.9520315-2.9811877,6.6500783-2.583737.6181835.091066.8382432-.2518563,1.0513524-.7239992,1.3232554-2.9318026.9466415-5.7456226-.5466594-8.4944812-1.0348907-1.9050403-2.3864456-3.5833192-3.7456826-5.2556792-2.5483992-3.1354885-5.1830723-6.222982-5.4637987-10.7278112ZM100.3047511,92.6974158c1.388707-1.0938308,2.5859026-2.1386425,3.9994558-2.8922946,2.2545034-1.2020097,4.541579-2.335729,6.9014957-3.3076849,4.7042643-1.9375174,7.0189077-5.5401516,7.5108557-10.4878.0742751-.747104-.0479949-1.1490397-.8499639-1.3821004-1.7158188-.4986205-3.5403872-.6288799-5.1481589-1.5028194-.3495582-.1900116-.6950925.0011267-1.0326373.1282109-2.2773742.8574631-4.5561677,1.7151384-6.9789899,2.0800755-.5687399.0856666-.7668361.3953144-.8801656.9406275-.39748,1.9123639-.89174,3.8046593-1.2871714,5.7174036-.7245625,3.5046397-1.7119705,6.9560168-2.2347201,10.7063818ZM19.5527066,50.7238061c-.0357255-.0818182-.0493119-.1724086-.1014917-.2238276-1.7319366-1.7063515-3.0044791-3.6294265-2.9186443-6.1900293.0148045-.4415826-.3002537-.6175616-.5928069-.8214303-3.9387232-2.7448858-6.6328741-6.5131245-8.8020145-10.7113568-.5490335-1.0626049-1.0458908-2.1542262-1.8134146-3.0885251-.6319272-.7692432-1.4291259-1.5230709-2.4125172-1.2773237-.926807.2316268-1.0613172,1.3173438-1.1871868,2.1830012-.507744,3.4918655.3433906,6.7324379,1.9288402,9.8128346,2.919493,5.672306,7.8088962,9.0259007,13.5070836,11.4193187.2672023.1122321.532934.2819044.7064035-.0833107.3404494-.7167341,1.0936479-.7302473,1.6857488-1.0193509ZM107.8908769,17.4511509c.0001171-1.2696342-.0460195-2.5521049-.734381-3.6902616-.3863738-.6388338-.9306627-1.1527344-1.7330999-1.0864707-.7176267.0592584-1.0731111.642876-1.3234749,1.2465733-.197028.475084-.3700585.9686599-.4783105,1.4702984-.2435743,1.1285833-.3763944,2.2839332-.6672613,3.3989192-1.1600141,4.4468768-3.5605655,8.1460935-6.8880776,11.2799358-.2277272.21447-.9676539.4335054-.4558494.8461448,1.4390139,1.1601824,1.0187217,2.4378207.4218433,3.7641489-.2236154.4968646-.0244511.8576753.2984904,1.1765855.359406.3548991.6547796.0205808.9490705-.1536643,6.9320339-4.1043935,10.4150906-10.2188601,10.6110504-18.2522094ZM103.815595,47.8270412c.5210962-.0728118.7399999-.1091738.9602206-.1332152,1.2440345-.135754,1.5421152.2090706,1.1550829,1.3925847-.1349711.4127345-.3415688.808978-.5617017,1.1857163-.9718389,1.6632073-2.2303304,3.1090766-3.4801155,4.5627743-1.0919725,1.2701537-2.5451069,2.3115925-3.2393507,3.8218306-.9797405,2.1312457-2.5022187,3.2038446-4.7567807,3.4125129-.0841814.0077919-.1607538.0979506-.2682595.1674335,3.1541889.2656622,6.253169.5517003,9.3568169.7719648.8674206.0615447,1.915349.5741686,2.5552326.089215.6353037-.4814784.4243015-1.6255723.6053654-2.4739046,1.4567925-6.8254135,2.8337496-13.6663595,3.8607533-20.5724791.0569355-.3828035.2197963-.7871608-.0913221-1.2783553-1.4403747,3.3885959-3.2768686,6.3930055-6.0959417,9.0539221ZM97.1933772,43.1991591c1.2573209-.4462358,2.5054233-.821701,3.6997947-1.324704,5.3196383-2.240361,9.2729575-5.7474956,10.5229914-11.6572301.2652744-1.2541968.3377351-2.5502868-.1749327-3.7762354-.4586004-1.0966915-1.017039-1.1988929-1.8710561-.3952778-.7051451.6635299-1.2411519,1.4662964-1.7140629,2.2975891-1.2086382,2.1245659-2.887539,3.8031448-4.8141697,5.2678535-1.4975882,1.1385261-3.0831915,2.1348161-4.7294762,3.0403473-1.2146669.6681173-1.3646071,1.1914303-.6576623,2.3680012.586343.9758628.58188,1.9551497.1199142,2.9699791-.1560567.3428126-.5049125.6201004-.3813402,1.2096772ZM103.0337312,75.5011534c-3.7365518.3309821-7.3193735.108391-10.9816649-1.3198606,2.320277,6.7092526,4.5480759,13.1510358,6.8385316,19.7740439,1.4079489-6.2712549,2.7603232-12.294897,4.1431333-18.4541832ZM90.8877064,71.2775993c3.9086019,1.695121,7.7654045,2.3411284,11.7677136,2.255257.6831084-.0146619.9807501-.307987,1.1042346-.966498.3159618-1.6851709.6972727-3.3579625,1.0329007-5.0395996.306831-1.5374108.2953591-1.5367597-1.3332348-1.6228506-.4383781-.0231707-.8752344-.0735142-1.3132467-.1050987-2.9859579-.2153334-5.9724279-.4239943-8.9578883-.646161-.9245463-.0688025-1.3173731.1959086-.8462911,1.1539343.265889.5407332.2514613,1.0806396-.1941746,1.5516484-.2287076.2417233-.4442604.5562071-.2988563.8597165.5195598,1.0844952-.0211441,1.8104991-.9611571,2.5596517ZM117.7780818,73.345442c-.7352736-1.0289572-.7368832-1.7893989.3202784-2.3226109.307109-.1549007.4651704-.3223855.3166495-.7484356-.7141002-2.0486008-.0128328-2.8249554,2.2064792-2.5401245.9866763.1266232,1.9812835.2557998,2.9729056.2608846.9226587.004741,1.7811973-.2604749,2.2169854-1.2623179-.6010341-.2943787-1.1711788-.1083105-1.7057662-.1935893-2.1713171-.3463537-4.2191643.6408348-6.4846421.2814581-3.5645017-.5654403-7.2330265-.4691139-10.8561464-.6767651-.6273289-.0359523-.9130304.1318397-1.0350371.8006155-.3501289,1.9192486-.7645681,3.8278227-1.2019658,5.7294975-.1368734.5951006.0308016.7109103.5684034.6006244,1.9113104-.3920952,3.8270837-.7627536,5.7355261-1.1681425.3776674-.0802232.7923846-.193143.9378912-.645444.2184355-.6789673.5034639-.5861527.8824922-.1077179,1.2607449,1.5913905,3.0322554,1.9065182,5.1259466,1.9920677ZM127.0095558,55.2867268c-.0386593-1.3675702-.2745515-2.5677069-.7404243-3.7334936-1.1406991-2.8544328-3.2124413-5.0193773-5.271658-7.1940599-1.5376376-1.6238749-3.0855181-3.2361315-4.2773581-5.1470468-.9469342-1.5182421-1.553953-3.1437559-1.5565283-4.9541525-.0011413-.8126874.1494428-1.602782.7103396-2.2295987.3469097-.3876981.8439645-.5080293,1.3188071-.2992294.6329332.2783413-.0917025.44617-.1043743.6853033-.0128474.2423671.1188753.3894101.2808582.4826783.4388756.2526904.9402324.659945,1.3730501.0853227.4799054-.6371108.192726-1.2227002-.3784576-1.650038-1.4829117-1.1095024-3.7594372-.4294376-4.3828153,1.3171829-.5810021,1.6278842-.3582939,3.2226914.3111476,4.776542.8327413,1.9329301,2.1419641,3.5390922,3.5061761,5.109719,2.070001,2.3831898,4.1309297,4.7856581,5.37792,7.7300375,1.7001327,4.0143518,1.4629821,7.8491688-1.2562966,11.3945823-.2425793.316291-.4903824.6344257-.6854057.9801063-.3912904.6936365-.1212457.9538334.6180811.867823,1.1872015-.1381098,2.0911451-.7682921,2.786618-1.6882437,1.4848286-1.9641194,2.2700286-4.1897674,2.3703205-6.5334346ZM107.3806088,39.6065775c-2.1629911,1.4425696-4.3566815,2.7205884-6.8145634,3.4426999-1.3718795.403055-2.7700539.7167926-4.1571659,1.0676751-1.2686612.3209222-1.6774522.9767408-1.3135101,2.1619156.2718445.8852431.2079146,1.7482813-.2256201,2.5468189-.3704828.6824206-.838053,1.31212-1.2777187,1.9882632,5.2756674.2460838,13.0008761-6.0184109,13.7885783-11.2073728ZM120.0330534,75.0603316c-.0762359.1525888-.1511255.2523173-.1768057.3634299-.0717144.3101599-.1467504.6226099-.1789567.9383887-.6192663,6.0706127-3.8339757,10.1270771-9.4606938,12.410992-2.2123615.8980174-4.3485896,1.9900777-6.4916365,3.050078-1.4569535.7206556-2.627942,1.8076677-3.4985379,3.1851954-.6199248.9809111-.4121272,1.9218751.3264826,2.7422958.7086423.7871462,1.5921587,1.0438605,2.59616.6090528.4119077-.1784153.8436719-.4728964.6352305-.9883152-.2052515-.5075464-.6207296-.094629-.9329893-.0441319-.6080431.0983457-1.2155302.1997204-1.6235749-.4034062-.4215506-.6230854-.2218888-1.2554918.1688749-1.7836702.3262924-.4410266.7538716-.8230985,1.1889867-1.1645063,1.1686912-.9169812,2.4936733-1.56582,3.8475986-2.1632984,2.6244448-1.1581411,5.3693453-2.02344,7.9350841-3.3275852,4.3419464-2.207006,6.495719-5.7393013,6.481701-10.5893429-.0028534-.9873933-.1114712-1.9865293-.8169235-2.8351763ZM104.0619641,49.1844052c-.6068579-.1097299-.9804428.1632194-1.3761962.3207905-3.1145785,1.2401934-6.2272254,2.4002368-9.6837239,2.2933676-1.0995815-.0339915-2.2143516.7052255-2.930632,1.400618-.3472609.3371351.9740923,1.3274111,1.5526653,2.009539.2539927.2994562.595942.5252445.9025974.7788714.3196492.2643672.6668954.4232041,1.099084.2997781,2.8797837-.8224546,5.7250053-1.7241594,8.08978-3.6745242,1.0899239-.8989246,1.9712016-1.9515354,2.3464254-3.4284404ZM40.9983861,46.6004268c-.0792063,2.3500689-.6892906,4.1106343-2.5538425,5.1288292-1.7980467.9818841-3.7000947.8865454-5.7517244.3195175,1.7072222,1.8625619,4.6662707,2.152163,6.7960239.7942283,1.9748012-1.2591353,2.6396042-3.5811536,1.5095431-6.242575ZM78.0832291,14.1122986c.2234618-1.6683397-.6262168-3.0589014-2.2051038-3.8116683-1.5257121-.7274195-3.9112578-.3308468-5.050157.8637259,2.4261804.954298,5.2612177.8118533,7.2552608,2.9479424ZM119.1227593,63.9866716c-.8661476-.9828938-.2370774-1.3930529.6942291-1.718482.6248413-.2183477,1.2038534-.5339875,1.3425558-1.3579566-2.8294037-.123587-4.9833958,1.1419209-6.9283465,3.0764386h4.8915616ZM105.502851,64.5783554c-.4747548-.1218676-.7740646-.2404795-1.0822126-.2714348-3.5335537-.3550674-7.0675757-.7060303-10.6042462-1.0278817-.3570208-.0324917-.9810281-.3450733-.9978264.4116517-.0152764.6884785.5908937.5189306.9853155.5459497,3.3848719.2319853,6.7704168.4558055,10.1574251.6533822.4442165.0259217.9413884.1835952,1.5415446-.3116671ZM79.7395078,23.56084c.1284596.3534724.2484469.6246658.326029.9074993.307431,1.1207768-.238526,2.0900549-1.3475821,2.4178471-1.1486153.339491-1.5975508-.3262924-1.8633594-1.2806233-.1897848-.681389-.5813825-1.1731176-1.4433891-1.3854805.2161016.9170251.383301,1.7250959.5997537,2.5197632.2613675.959606.9501826,1.3568811,1.901609,1.2372889,1.3052939-.16409,2.3178333-.8093658,2.9339683-2.0002986.6202028-1.1988198.3430906-1.8558382-1.1070295-2.4159961ZM75.0967663,23.6298546c-.0181298-1.3572543-.2665328-1.8081213-1.7547708-3.3491683q-1.5718853-1.6276647-2.644411.3176372c-.0284824.0517043-.0035996.1328201-.0035996.2795705,1.7248984.3973702,3.1856636,1.2879762,4.4027815,2.7519607ZM122.1933522,70.4812273c.4491916-.0192638,1.0454847.0152252,1.6227848-.183127.3381009-.1161609.568579-.3365498.5627698-.6807598-.0064237-.380711-.3598449-.3578695-.6255144-.3881005-1.2995067-.1479283-2.5985012-.3043435-3.9011539-.4176876-.2750197-.023917-.6913026-.2006349-.8318341.1975767-.1560713.4422484.1402096.7603978.4977572.9734777.7805615.4651777,1.6541424.50083,2.6751907.4986205ZM106.229945,64.6076206c1.3182072.7155781,13.0990023,1.3250845,15.1088633.8668573-5.1323118-.3125524-10.1323741-.4277402-15.1088633-.8668573ZM122.1717252,73.5191383c.2436474.01633.6960875-.1494135.8236106-.6872055.121114-.5107363-.3584841-.6729241-.7125784-.8060881-1.0612587-.3990676-2.1751947-.407657-3.2911501-.355221-.2465301.011589-.5390211.0481632-.6126524.2826653-.1025599.3266509.2133726.4871705.4458993.6104575.9578501.5078464,2.0047688.7361662,3.346871.9553918ZM99.4500755,55.6791c-1.8262803.7358808-3.4693751.8760465-5.2660098,1.1078855,3.0541458,1.6376661,3.7582373,1.2339453,5.2660098-1.1078855ZM65.5351515,131.2056815c-.8886964.5630918-1.4327073,1.121984-2.2323862,1.1826507-.2604749.0197833-.4612342.1485794-.392044.4606343.0696731.314162.2900986.3178933.5473837.242989.889428-.2589092,1.67923-.6315431,2.0770465-1.886274ZM122.85836,65.4621865c.9130012-.022783,1.7339633.3065603,2.6027447-.144453-1.3021552-.8782268-1.5640495-.8673694-2.6027447.144453ZM59.8980077,134.4193812c.3424614-.1030428.4800737-.3490753.4199337-.644888-.1184436-.5826556-.580168-.7043256-1.0921774-.7034916-.1969402.0003365-.4842147.046122-.3843033.2970711.194138.4876607.5834969.8307367,1.056547,1.0513085ZM79.1840982,25.2337121c.0633738-.461205-.1802883-.6287336-.5318804-.6686075-.3834912-.0434808-.5893646.2085219-.667649.5335998-.0924707.3840107.1555592.6032583.4921895.6762457.4570054.099092.6190541-.2196939.7073399-.541238ZM61.9591413,133.2702392c-.0458-.4778569-.3689171-.6460586-.7988303-.6617594-.1949428-.0071407-.4386488.0478925-.3509264.3153765.1220505.3721948.3129548.7343371.7587296.8051735.3344793.0531602.3627715-.2081488.391027-.4587906ZM62.6312167,19.163714c.0139229.1170169.0278458.2340265.0417614.3510434.578873,1.3934553.8043541,2.8159856.4658069,4.3177075-.7736768,3.4318791-4.1771248,5.0612485-7.3202881,3.4836712-.9418274-.4727135-1.4987222-1.8320383-1.1836238-2.8460044.2037809-.6557381.7051451-.936128,1.3108031-1.0898874.6902198-.1752327.9898443.2997123,1.3223701.7750816.2536122.3625666.4107737,1.2097357,1.0377953.6929634.4887216-.4027916.4917944-1.1781219-.0208588-1.7270713-.6587817-.7054304-1.5503826-.7675238-2.4388596-.7260916-1.401913.0653711-2.7520558.4413412-4.1155508.7383099-3.360333.7319154-6.9538365-.9132645-8.1214596-3.7062843.2867478-.1257599.4634291.1069204.6175104.2446351,2.3191064,2.0727446,4.9907852,2.2376759,7.8616797,1.5455173,1.275341-.3074675,2.5610784-.6190249,3.89225-.6081455.818877.0066871,1.607223.1597222,2.2449264.6874396.969066.8019397,1.6209118,1.8253365,1.356786,3.1231166-.2884378,1.4171967-1.4580217,1.8478488-2.7294045,2.0704033,1.6809054.7689213,3.7458947.0203174,4.7825633-1.7575144.8217303-1.4092439.9469781-2.9412187.6890346-4.5195862-.0672661-.4116004-.3790575-.8684083.3067579-1.0493038ZM56.2828333,26.150964c.0687732-.3758091.1048499-.651458.1708868-.9197248.235124-.9550406-.2377505-1.2559893-.8644575-.6315065-.5007349.4989571.0966264,1.0646973.6935707,1.5512313ZM70.0630344,32.6912905c-1.6218117,1.453705-2.4104065,4.6288332-1.6375271,6.7630128.2960395.8174722.8291051,1.4076416,1.808392,1.3856122.1283645-.4352248-.7458749-1.0089764.193443-1.1729054,1.8542725-.3236,2.718152-1.6570616,3.4053502-3.1959357.0932755-.208895.2476934-.4793787-.0083186-.6419834-.1257087-.0798428-.383001-.0207124-.5519637.0471682-.8867942.356216-1.7600386.7461749-2.6470815,1.1017398-.4150464.166358-.8638722.2658012-1.2388765-.0839033-.4306448-.4015771-.2749905-.8752856-.0875395-1.3297157.7739329-1.8762141,1.9608198-3.2642627,4.5144794-3.4239043-1.6245846-.7823686-2.4529142-.6121476-3.7503577.550815ZM40.8741041,31.6452644c1.9875023-1.626838,2.5139321-5.7801263.809695-7.7674896-.1839172,1.9961063.3243975,4.036425-1.3244114,5.5065771-1.6092935,1.4349095-3.4569228,1.6562056-5.5431879,1.0986669,1.7417771,2.108053,4.3356178,2.5719943,6.0579043,1.1622456ZM62.8705768,41.0706717c-.5403381-.2309976-.6589353.4436971-.8842774.754274-.5415526.7463578-1.2867471,1.192001-2.0966981,1.5238245-.7683359.3147692-1.5819891.5181185-2.3729397.7788787-.2958419.0975263-.706462.1552812-.7028843.5333071.0035045.3698683.4182436.4987961.7062864.5232691.7919383.0672734,1.5881787.2657573,2.3147458.4667727.7497525.2074244,1.5133329.1115443,1.9246407-.164068,1.0057792-.6739264,1.5437029-1.7853091,1.6266331-2.8037966.0172372-.7762229-.0039654-1.3937699-.5155065-1.6124615ZM45.4248724,18.1363444c2.7370208,2.850899,6.9144236,2.0289931,9.3923668.5568729.1652679-.0981848.3746751-.2232569.2919716-.4539326-.1061888-.2961712-.3890589-.2478104-.6111964-.1864413-.995529.2750563-1.9704919.6468634-2.9801488.8441036-2.5488162.4978962-4.6735431-.5107217-6.7203953-2.2033113-.0663735.7879656.3042923,1.1061588.627402,1.4427086ZM69.1576568,51.4793019c.2059319-.5374408.7438849-.6874908,1.1593995-.9703756.7570542-.5154187,1.5644226-.9600303,2.2983207-1.5048753.2975539-.2209084.8497664-.5858674.2715226-1.0321764-.3771992-.2911449-.9150131-.4325836-1.255265.1110029-.2028005.3240097-.3926512.5853772-.8006594.6228294-1.054396.0967873-1.9053476.5530904-2.4788066,1.4617603-.3109208.4926651-1.4629967.5161357-1.1530563,1.1042419.3262777.6191273,1.2992287.194855,1.993231.1684432l-.0346866.0391495ZM53.6455118,40.348743c-.1941307.2818385-.5706934.6402787-.2739223.9403934.3015121.3049068.670217-.0677197.8945056-.2961785,1.1068026-1.12742,2.5201583-1.4500908,4.0064428-1.6327057.3691147-.0453464.8155846.0835375,1.0831125-.3324454-1.6592346-1.2598743-4.3630979-.6346525-5.7101386,1.3209361ZM70.7706304,43.1950766c-.1917822-.1230163-.4495867-.2386504-.6583939-.0487339-.1748084.1589978-.0901807.3991627.0315698.5411136.8584216,1.0007895.3705779,1.6148027-.5612993,2.156304-.2645209.1537155-.5120386.4036623-.6643347.6686806-.2661012.4630779-.0235219.7972061.4511304.8587435.5096901.0660808,2.2386124-1.8415202,2.2532158-2.4473684-.0917245-.6495339-.2163723-1.3211117-.8518881-1.7287394ZM65.59306,46.588194c-.0710413.5529587.1437873,1.0653778.6876225,1.2716535.525903.1994716,1.1004814.2007447,1.6090301-.1149245.1133953-.0703828.2288466-.2584995.2150846-.377587-.012906-.1117419-.2003788-.296259-.3028144-.2909254-1.8939195.0986823-1.3079497-.9193517-.8710788-1.8886079.0969922-.2151944.1600587-.4562445-.0762359-.8322877-.7967305.5807314-1.1485202,1.3525279-1.2616083,2.2326789ZM38.8579365,27.6327856c.7579102-1.0469699,1.3192241-2.2075694.6946681-3.6012222-.1998594,2.443125-1.2541383,4.1587389-3.8247279,4.7321394,1.4382603.5140945,2.4078165-.1332298,3.1300598-1.1309172ZM69.1907192,51.4417766c-.1549373.517321-.1186119,1.0257819.4788738,1.1464131.8704057.1757375,1.6623586-.0707413,2.2412097-.7954502.1474308-.1845683.3029314-.442285.1345468-.6477487-.0945851-.1154-.3749238-.1423313-.5555487-.112393-.7806054.1294254-1.5552992.2945616-2.332144.4467041,0,0,.0346866-.0391495.0330624-.0375253ZM46.3170733,10.5129054c.8293612-.4127052,1.6587151-.8254104,2.4880763-1.238112-1.0963916-.0871042-2.0620628.0894271-2.4880763,1.238112ZM47.5707068,49.3488318c.1180558.4882021.4934845.8248397.9524287.9470805.3610814.0961801.4607514-.2780341.4081764-.5431475-.0982872-.4956428-.4887582-.6721266-.9618009-.6896345-.205749-.0003951-.4591783.0360694-.3988042.2857015ZM88.4944712,47.5458392c.1767911-.1198995.305997-.2702861.2466325-.4925114-.0835814-.3129182-.3458854-.320571-.5738906-.2361263-1.4416332.5338997-2.8847735.4604441-4.4096222-.1065327.8367799,1.7386018,3.6037463,1.6036599,4.7368803.8351704Z"/>
  </g>
</svg>