<?xml version="1.0" encoding="UTF-8"?>
<svg id="Layer_2" xmlns="http://www.w3.org/2000/svg" viewBox="0 0 132.0615146 159.4928134">
  <defs>
    <style>
      .cls-1 {
        fill: #231f20;
      }
    </style>
  </defs>
  <g id="Layer_1-2" data-name="Layer_1">
    <path class="cls-1" d="M63.2950685,88.0506957c.0913086-.2697754.1516113-.6143799.5058594-.6124268.3222656.001709.4758301.2993164.5671387.5732422.1052246.31604.1628418.6477051.2446289.9718018.232666.9212646.7822266,1.3758545,1.7727051,1.2904053.5251465-.045166,1.3857422-.4086914,1.4746094.2739258.081543.6265869-.8261719.7868652-1.4213867.9571533-.1838379.0524902-.3764648.0737305-.5239258.1016846-1.6992188.0385742-3.1567383-1.9716797-2.6196289-3.5557861ZM58.1371095,71.3557494c-1.8015137-.456543-3.1359863-1.3105469-4.4208984-2.4533691.0959473,1.9443359,2.0498047,3.0510254,4.4208984,2.4533691ZM109.485254,103.4801391c-.3337402,1.2357178-1.5871582,2.1079102-3.1506348,2.1116943-.8740234-.2253418-1.9667969-.3106689-3.0715332-.3156738-.5187988-.0021973-.9230957-.2401123-1.0036621-.8289795-.0979004-.7137451.0134277-1.4030762.6533203-1.7838135.871582-.5186768,1.5690918-1.2009277,2.2988281-1.8884277.9819336-.9246826,2.1767578-.9104004,3.3190918-.199707,1.112793.6923828,1.2675781,1.7458496.9545898,2.9049072ZM108.2088868,101.6130737c-.5744629-.4703369-1.2629395-.6967773-1.9880371-.3549805-.5810547.2738037-.9223633.8214111-1.2285156,1.3537598-.3608398.6271973-1.7939453.300293-1.4694824,1.1832275.3056641.8311768,1.5708008.1578369,2.3210449.581665.1503906.0849609.3723145.0435791.5170898.0563965.972168-.0349121,1.7131348-.4034424,2.1242676-1.2570801.2695312-.5598145.2236328-1.1535645-.2763672-1.5629883ZM119.3407228,89.7500366c.5981445.7381592.7983398,1.6208496.8083496,2.555542-.0046387,1.0275879-.2285156,2.0059814-.7587891,2.8851318-.4125977.6843262-.9824219,1.2397461-1.8684082,1.0351562-.8493652-.1960449-1.3244629-.8562012-1.3212891-1.6817627.0039062-.965332-.2998047-1.6851807-.9294434-2.4266357-.7575684-.892334-.4350586-2.0125732.5786133-2.7264404,1.1860352-.8353271,2.6333008-.699707,3.4909668.3590088ZM119.1148927,92.474768c-.0537109-.8447266-.1303711-1.50354-.6359863-2.0294189-.682373-.7097168-1.4101562-.7507324-2.1599121-.1435547-.7907715.6403809-.2958984,1.1949463.1999512,1.6685791.4655762.4447021.5153809.9932861.5932617,1.5656738.0744629.545166-.0734863,1.3775635.59375,1.4598389.6794434.0837402.956543-.704834,1.1679688-1.2807617.1618652-.440918.1853027-.9327393.2409668-1.2403564ZM42.4073732,19.6013549c.065918-.1204834.1320801-.2409668.1982422-.3613281-1.5324707-1.0998535-3.0649414-2.1994629-4.5974121-3.2991943.9274902,1.9822998,2.5822754,2.9351807,4.3991699,3.6605225ZM78.3746583,25.5306762c.5898438.1990967,1.159668.4310303,1.6350098.857666.2207031.1981201.4819336.3234863.7543945.0487061.2978516-.3005371.2199707-.6186523.0065918-.9020996-.536377-.7138672-1.3203125-.885498-2.1540527-.9295654-.3212891.0216064-.7443848-.0706787-.8041992.3763428-.0424805.3197021.2807617.4539795.5622559.5489502ZM113.6515138,80.4204467c-.095459,1.8422852-1.9406738,3.8746338-3.4667969,3.8183594-1.0283203-.0379639-2.6188965-1.6387939-2.5339355-2.550415.1298828-1.3931885,2.6169434-3.953125,3.7641602-3.8743896,1.4257812.0976562,2.3129883,1.1315918,2.2365723,2.6064453ZM112.6373536,80.3838256c.0710449-.8859863-.3798828-1.3566895-1.2224121-1.4338379-.6791992-.0621338-2.6845703,1.8665771-2.5979004,2.6140137.0932617.8059082.7768555,1.3261719,1.5258789,1.4667969.7880859.1479492,2.2158203-1.598877,2.2944336-2.6469727ZM71.672754,16.6477416c1.7702637-.0302734,3.213623-1.4428711,3.253418-3.1723633.0166016-.7211914-.2041016-1.3349609-.8425293-1.7043457-.3137207-.1815186-.7163086-.4052734-1.057373-.0681152-.3000488.2967529-.067627.6158447.0891113.909668.3825684.7160645.645752,1.3830566-.2363281,1.9898682-.8701172.5987549-1.6625977.6568604-2.4575195-.0787354-.3857422-.3569336-.751709-.7358398-1.1474609-1.0805664-.2475586-.2155762-.5405273-.4936523-.8850098-.2456055-.3137207.2258301-.2175293.5910645-.1501465.9245605.276123,1.3654785,1.8847656,2.552124,3.4338379,2.5256348ZM76.1124513,31.3257202c.5900879.8603516,1.6206055,1.2258301,2.5073242.6413574.7641602-.5036621,2.050293-.9348145,1.4624023-2.3740234-.3891602-.9525146-1.751709-1.762085-2.6870117-1.4178467-1.0124512.3726807-2.0280762.7005615-3.1877441,1.0477295.9880371.4729004,1.3747559,1.3295898,1.9050293,2.1027832ZM85.2298829,13.5386108c-.1105957.8623047-.3222656,1.5991211-1.3066406,1.8134766-1.0598145.230957-1.5444336-.4923096-2.065918-1.2001953-.2512207-.3406982-.3623047-1.0864258-.9484863-.7856445-.4743652.2435303-.4396973.888916-.3078613,1.432373.315918,1.303833,1.8942871,2.3735352,3.2927246,2.213623,1.5534668-.1774902,2.9980469-1.7338867,2.9655762-3.1960449-.0144043-.6870117-.2819824-1.3218994-.9682617-1.413208-.8222656-.109375-.6032715.6862793-.6611328,1.1356201ZM79.9542482,38.9114135c-.1784668,1.3398438.4328613,2.49646.9682617,3.6535645.2155762.4660645.5710449,1.0769043,1.1835938.713623.6882324-.4083252-.2385254-.770752-.1896973-1.3352051.890625-.1428223,1.7756348-.2382812,2.2619629-1.097168.2819824-.4981689.6291504-1.0288086-.0471191-1.4880371-.4196777-.2849121-4.1486816-.6586914-4.177002-.4467773ZM85.233545,9.4477905c.9272461-1.8193359.2324219-2.8217773-.6271973-3.71875-1.5249023-1.5916748-3.7868652-2.154541-5.579834-1.2351074,3.0656738.4008789,5.6071777,1.246582,6.2070312,4.9538574ZM56.6573732,23.0227416c-.3984375-.0791016-.4291992.2921143-.4492188.5665283-.078125,1.0773926-.7924805,1.425415-1.722168,1.5770264-.3395996.0554199-.9238281-.0310059-.8422852.5012207.059082.3847656.5825195.4187012.9785156.4060059,1.4089355-.017334,2.7172852-1.2683105,2.5095215-2.3916016-.0561523-.3037109-.1872559-.6020508-.4743652-.6591797ZM39.8678224,32.6760619c.986084,1.109375,2.1796875,1.8883057,3.5361328,2.4154053-.7084961-1.5010986-1.9257812-2.2541504-3.5361328-2.4154053ZM44.7589357,59.3589233c-2.1557617.737793-4.3483887,1.1728516-6.6337891.9970703-.8110352-.0625-1.5900879-.3066406-1.6503906-1.2668457-.0622559-.9897461.467041-1.611084,1.4873047-1.782959.6586914-.1109619,1.3149414-.2501221,1.9584961-.4257812.2832031-.0773926.5151367-.3144531.3916016-.6540527-.1022949-.2807617-.3911133-.2285156-.6154785-.1987305-1.045166.1394043-2.0839844.3657227-3.1330566.4306641-2.2019043.1362305-4.3349609-.1199951-6.050293-1.7009277-.6601562-.6083984-1.4138184-1.2851562-.9394531-2.3474121.505127-1.1315918,1.4526367-.5419922,2.2624512-.513916.9782715.0339355,1.9697266.6491699,3.0927734.0014648-1.2336426-.7564697-2.4819336-.8848877-3.7089844-1.029541-1.9262695-.2270508-2.9638672,1.0209961-2.4921875,2.9191895.2770996,1.1149902,1.0402832,1.8066406,2.0090332,2.3103027,1.3356934.6943359,2.763916,1.0834961,4.2619629,1.1943359.6584473.048584.8635254.2573242.763916.9886475-.2758789,2.0213623.3842773,2.8187256,2.4333496,3.0262451,2.7414551.2773438,5.3327637-.3649902,7.8356934-1.427002.3295898-.1398926.737793-.2711182.7404785-.817627-.7421875-.4018555-1.3815918.0805664-2.0134277.296875ZM33.990381,37.790808c.6657715.4221191.8852539.7270508.4291992,1.5585938-1.128418,2.0566406-.7424316,3.1450195,1.3830566,4.3269043.5969238.3317871.814209.53125.484375,1.2695312-.8986816,2.0107422-.4177246,3.0830078,1.6367188,3.9481201,2.3085938.9720459,4.6853027.8006592,7.0656738.3365479.3422852-.0666504.9216309-.0437012.8359375-.5534668-.0808105-.4812012-.6210938-.3449707-.9814453-.2875977-1.6665039.2645264-3.3381348.3223877-5.0175781.1835938-.9294434-.0766602-1.798584-.3371582-2.4711914-1.0163574-.6296387-.635498-.7949219-1.3688965-.4360352-2.2369385.3503418-.8468018.9782715-.8968506,1.7563477-.8311768,1.078125.0908203,2.1674805.1958008,3.5146484-.0661621-.7277832-.7443848-1.4030762-.7512207-2.0561523-.838501-1.3261719-.1772461-2.6965332-.0949707-3.9658203-.6048584-1.2109375-.4865723-1.7009277-1.5861816-1.3466797-2.8031006.3911133-1.3436279,1.2756348-1.3658447,2.3669434-.961792.253418.0939941.5483398.1958008.8361816-.1723633-.2946777-.5895996-.9243164-.7248535-1.4633789-.9660645-.8237305-.3686523-1.762207-.4992676-2.4353027-1.1779785-.5947266-.5996094-1.5952148-1.1943359-1.1225586-2.1083984.5358887-1.0368652,1.5283203-.3056641,2.300293-.0600586.5883789.1871338,1.1308594.5151367,1.7033691.7575684.8161621.3457031,1.5700684.8776855,2.5378418.8242188-1.7070312-1.3623047-3.5822754-2.3925781-5.7370605-2.8374023-.7346191-.1516113-1.3261719.25354-1.6982422.8493652-.3635254.5826416-.2026367,1.1958008.1555176,1.7602539.4453125.7022705,1.0378418,1.2719727,1.7253418,1.7075195ZM65.5831544,34.8140014c.362793-.666748-.0588379-1.1960449-.4768066-1.6691895-.2873535-.3251953-.5913086-.6020508-.557373-1.1030273.032959-.4864502.001709-1.0201416-.645752-1.0894775-.4753418-.0509033-.8134766.2702637-1.0505371.6427002-.3168945.4975586-.0727539.9018555.2788086,1.2796631.4165039.4473877,1.0766602.638916,1.3955078,1.3983154-.9638672.3436279-1.7050781-.005127-2.3552246-.4876709-1.0515137-.7801514-1.4628906-1.8756104-1.2202148-3.1656494.2490234-1.3237305,1.3720703-1.0966797,2.286377-1.2160645.3325195-.043457.6677246-.0666504,1.0009766-.1049805,2.1203613-.2441406,3.1877441-1.2661133,3.0913086-3.3743896-.0629883-1.3765869-.0197754-2.4908447,1.3261719-3.2419434.4042969-.2255859.6010742-.7900391.5727539-1.2698975-.0776367-1.319458.7185059-1.5106201,1.7719727-1.5861816,2.4179688-.173584,4.1159668-1.4232178,5.0788574-3.6445312.3024902-.6975098.7353516-1.6799316-.0817871-2.0424805-.7587891-.336792-.8327637.7927246-1.1801758,1.3010254-.0534668.0786133-.0915527.1679688-.1337891.2539062-1.4902344,3.0227051-5.2871094,3.7113037-7.7275391,1.3991699-.2780762-.2635498-.543457-.5402832-.8149414-.8111572-.2177734-.2174072-.4753418-.3707275-.7617188-.1791992-.3378906.2259521-.3134766.5776367-.1608887.8988037.4089355.8597412,1.1679688,1.378418,1.9199219,1.8935547,1.5256348,1.0454102,1.5424805,2.7763672-.0983887,3.692627-.9975586.5571289-1.1652832,1.1466064-.9299316,2.1938477.5480957,2.4398193-.5825195,3.6745605-3.0671387,3.5019531-2.2180176-.1541748-2.9116211.4157715-3.2182617,2.6433105-.3586426,2.6081543,1.6044922,4.9267578,4.0717773,4.8098145.7133789-.0336914,1.3388672-.2839355,1.6860352-.9228516ZM38.2364747,23.4961303c-.9956055-.6411133-2.0288086-1.2319336-2.9746094-1.9396973-.7055664-.5280762-1.0732422-1.34729-.5092773-2.1384277.5373535-.7539062,1.1013184.0343018,1.6181641.2325439.9106445.3493652,1.6577148,1.1212158,2.9294434,1.2183838-.9890137-1.1799316-2.072998-1.7897949-3.2285156-2.2421875-.6708984-.2628174-1.4855957-.7303467-2.0983887.0678711-.6621094.8625488-.831543,1.8747559-.1557617,2.8044434,1.0686035,1.4694824,2.5510254,2.2105713,4.4189453,1.9970703ZM28.7762697,28.3953002c-2.2329102-.6882324-4.2941895-1.0965576-6.7275391-1.5476074,1.6359863,1.4758301,4.6064453,2.123291,6.7275391,1.5476074ZM31.2762697,45.9541381c-1.0070801-.4787598-1.9047852-.4814453-2.7902832-.5588379-2.3212891-.2026367-4.5219727-.7891846-6.4499512-2.1586914-.4152832-.2949219-1.0146484-.6394043-.8356934-1.2087402.1782227-.5671387.8771973-.4960938,1.3837891-.5395508.5688477-.0490723,1.1513672.0527344,1.7192383-.0019531.4345703-.0418701,1.1669922.1246338,1.1879883-.4631348.0212402-.6022949-.6894531-.4926758-1.1379395-.5151367-.6689453-.0334473-1.340332-.0123291-2.010498-.0269775-.7265625-.0159912-1.5068359-.0831299-1.8850098.7033691-.4116211.855957.076416,1.5828857.564209,2.2281494.2800293.3703613.6833496.6782227,1.0878906.9185791,2.1733398,1.291748,4.5314941,2.0238037,7.0546875,2.1848145.6586914.0419922,1.3525391.1077881,2.1115723-.5618896ZM27.9254396,38.6120971c-.7519531-.5428467-1.6889648-.5159912-2.5495605-.7172852-1.8537598-.4333496-3.7939453-.6252441-5.3933105-1.7911377-.9663086-.7042236-.871582-1.4437256.2148438-1.9151611.9018555-.3913574,1.8759766-.3083496,2.8295898-.342041,1.0703125-.0375977,2.1586914.010498,3.1240234-.6644287-1.8144531-.4559326-3.6176758-.1888428-5.4204102.06604-1.0400391.1469727-2.036377.4309082-2.2436523,1.6396484-.2099609,1.223877.7182617,1.8193359,1.5949707,2.3034668,2.1708984,1.1984863,4.5446777,1.7067871,7.0036621,1.833252.284668.0145264.6953125.1671143.8398438-.4123535ZM101.3368165,64.3052123c-1.8093262-.6429443-3.0454102-.0136719-4.3813477,1.2767334-3.8525391,3.7208252-8.5622559,5.7420654-13.8779297,6.3223877-.9729004.1062012-1.3830566.4626465-1.7072754,1.4799805-1.4099121,4.4237061-2.907959,8.824707-4.5478516,13.168457-1.9916992,5.2755127-5.7941895,8.9970703-10.7460938,11.5162354-1.4138184.7191162-1.5048828,1.3846436-.9702148,2.7263184,1.6374512,4.1087646,2.722168,8.3574219,3.2844238,12.7720947.3706055,2.9099121-.2019043,5.5133057-1.4157715,8.0727539-2.1833496,4.6049805-5.0388184,8.8227539-7.6179199,13.199585-.1945801.3302002-.4003906.6586914-.6398926.956665-2.7045898,3.3656006-4.0371094,7.1101074-3.3757324,11.4855957.1848145,1.2224121.0461426,2.4885254-.1955566,3.7254639-.2541504,1.3000488-.0551758,2.5758057.3051758,3.8374023.2509766.87854.4567871,1.769165.2209473,2.6912842-.2468262.9648438-.8498535,1.6240234-1.8034668,1.8704834-.9814453.25354-1.9685059-.0528564-2.3808594-.9141846-.5737305-1.1977539-1.6147461-1.5725098-2.6552734-1.9836426-3.3930664-1.3400879-4.6391602-4.2702637-5.2436523-7.4542236-.3479004-1.833252-.751709-3.4822998-1.8867188-5.0109863-2.0268555-2.7303467-1.8154297-5.9289551.9072266-7.9134521,2.6411133-1.9250488,3.5876465-4.4243164,4.0473633-7.4143066.6982422-4.5415039,1.8876953-8.9238281,4.90625-12.5695801.3933105-.4750977.3261719-.7615967-.0947266-1.1936035-2.2626953-2.321167-2.3168945-2.2928467-4.5117188.048584-5.2111816,5.5595703-11.7124023,9.0570068-18.7966309,11.5942383-.3608398.1291504-.7255859.2543945-1.0974121.3453369-3.0915527.7564697-5.2314453,2.5946045-6.5881348,5.4866943-1.1115723,2.369873-2.6467285,4.4414062-4.9318848,5.8728027-1.0705566.6706543-1.4785156,1.8415527-1.984375,2.9342041-.4384766.9473877-.8398438,2.055542-2.229248,1.8216553-1.4191895-.2388916-2.1743164-1.1871338-2.3081055-2.5666504-.0725098-.7476807-.1987305-1.3989258-.8005371-1.9008789-.1394043-.1162109-.300293-.3258057-.2912598-.4833984.1242676-2.1901855-.9055176-4.4744873.1213379-6.5489502,1.0061035-2.0330811,1.2958984-4.0458984,1.0869141-6.2590332-.3208008-3.4002686,1.7548828-6.6002197,4.6572266-7.4593506.8017578-.2371826,1.6162109-.2138672,2.4272461-.2070312,2.8754883.0244141,5.1635742-1.1594238,6.6923828-3.5407715,2.0717773-3.2275391,4.7868652-5.5876465,8.3969727-6.8977051.5395508-.1958008.8474121-.5509033,1.0310059-1.0969238,1.104248-3.2835693,2.6628418-6.362793,4.2941895-9.4066162.2397461-.4475098.3330078-.8519287.1479492-1.3602295-1.7568359-4.8323975-.8320312-9.4384766,1.2163086-13.9437256.8115234-1.7850342,1.8781738-3.4279785,3.0671387-5.3380127-2.3566895.1750488-4.2160645-.1813965-5.3881836-2.1541748-.2788086-.4693604-.7900391-.2137451-1.1928711-.1394043-1.0478516.1934814-2.1052246.2415771-3.1555176.1313477-1.4907227-.1563721-2.6806641-.8272705-3.121582-2.354126-.2250977-.7800293-.6396484-1.0395508-1.418457-1.0812988-1.2978516-.0695801-2.5627441-.3793945-3.7409668-.9481201-1.3977051-.6744385-2.3330078-1.7525635-2.3322754-3.3498535.0007324-1.0267334-.4912109-1.3917236-1.3493652-1.6907959-1.7714844-.6176758-3.4440918-1.4541016-4.9338379-2.6179199-2.5566406-1.9970703-3.0791016-3.8151855-1.8630371-6.8417969.2834473-.7058105-.255127-.7275391-.5617676-.9094238-1.7429199-1.0340576-3.3881836-2.1842041-4.7026367-3.7508545-1.232666-1.4691162-1.9394531-3.1268311-1.4267578-5.0506592.2194824-.8227539-.3442383-1.0008545-.739502-1.3510742-2.2973633-2.0351562-4.3181152-4.262085-4.9233398-7.4058838-.4055176-2.1075439-.4343262-4.1556396,1.6379395-5.5377197.7089844-.4726562.2084961-.9191895.0205078-1.34729-1.3476562-3.0635986-2.0686035-6.288208-1.2055664-9.5333252.6069336-2.2819824.7121582-4.4401855.371582-6.7304688-.1811523-1.2189941.0039062-2.4975586.4555664-3.6844482.644043-1.6918945,1.8828125-2.1020508,3.4294434-1.1260986,1.204834.7602539,2.0251465,1.8979492,2.8120117,3.0482178,2.0778809,3.0372314,4.4533691,5.7728271,7.6230469,7.7342529,2.7927246,1.7280273,5.7702637,2.9313965,9.2758789,3.4200439-1.1862793-1.6109619-2.2636719-3.0137939-2.8127441-4.7193604-.3125-.9715576-.5263672-1.9451904-.2211914-2.9621582.2290039-.7634277.5864258-1.6230469,1.3691406-1.7155762,1.8061523-.2131348,1.3894043-1.2468262,1.0925293-2.3446045-.2028809-.7495117-.1911621-1.526001-.0983887-2.289917.0834961-.6872559.3540039-1.5996094.963623-1.6491699,2.0859375-.1696777,1.0783691-1.461792,1.0217285-2.4152832-.0737305-1.24646-.2124023-2.4880371.5141602-3.6308594.6896973-1.0847168,1.5622559-1.3345947,2.6899414-.7202148,1.2658691.6896973,2.0292969,1.8659668,2.9135742,2.9394531,4.8527832,5.8916016,10.6062012,10.6612549,17.5571289,13.9007568,1.6604004.7738037,2.8808594-.0513916,2.8991699-1.8688965.0610352-6.0804443,2.3354492-9.0786133,8.1760254-10.6776123.6325684-.1732178.9506836-.5844727,1.3276367-1.0065918,2.8544922-3.1972656,6.6794434-4.0100098,10.5551758-2.1602783.7216797.3443604,1.2763672.3568115,2.0048828.0684814,3.5085449-1.3883057,6.8618164-.9836426,10.0161133,1.0595703,1.3706055.8876953,2.4628906,2.1003418,2.8876953,3.65625.3476562,1.2746582.9702148,2.022583,2.1499023,2.5683594,1.9824219.9172363,2.9570312,2.6730957,3.373291,4.7407227.1665039.8261719.4658203,1.4858398,1.0725098,2.1130371,1.8093262,1.8706055,1.3737793,4.1870117-1.0097656,5.2474365-.8486328.3775635-1.0102539.7575684-.7810059,1.5999756.5129395,1.8845215.1694336,3.743042-.5673828,5.4859619-1.4121094,3.34021-2.4609375,6.6896973-2.2524414,10.4215088.1464844,2.6208496-1.4594727,4.5876465-3.4375,6.1904297-1.7729492,1.4367676-3.8391113,2.3354492-6.1174316,3.2419434,3.1118164,2.0911865,4.5026855,5.1074219,5.140625,8.5546875.1071777.5786133.4309082.8010254,1.0131836.7282715,1.854248-.2318115,3.7260742-.3532715,5.5134277-.9689941.9274902-.319458,1.7282715-.7792969,2.286377-1.6380615,1.1872559-1.8267822,2.6342773-3.425415,4.4289551-4.6750488.3071289-.2137451.456543-.4396973.5368652-.7042236,1.4814453-.0708008,2.9172363-.3442383,4.3786621-.614502.0571289-.010498.1123047-.0109863.1691895-.0206299-.567627-.0394287-1.1230469-.0941162-1.6867676.0084229-1.3845215.3112793-3.1135254.6630859-3.5375977-1.6608887-.0979004-.3894043-.1357422-.8144531-.1772461-1.2124023l-.0297852.0161133c-.0349121-.5456543-.3056641-1.6801758-.3056641-1.6801758-.0144043-.4074707-.0500488-.8149414-.1171875-1.2163086.1164551-.2990723.1428223-.6464844.1530762-.9946289-.2463379-3.6990967,1.0703125-5.9533691,3.9995117-6.3620605.7817383-.1069336,1.6574707-.0321045,2.4489746-.0029297.4135742-.0263672.8293457.1156006,1.1831055.4187012.2304688.1948242.4645996.3925781.7470703.3585205.1418457.0003662.2832031.0355225.4191895.0897217.027832.151123.1381836.2402344.2580566.2716064.3481445.1361084.5957031.539917.8452148.8675537.0024414.0026855.1643066.3891602.1665039.392334.0002441.0007324.0119629.0415039.0200195.0695801.0026855-.0047607.0056152-.0093994.0056152-.0093994l.0083008.0209961.0913086.2293701c-.0200195-.1608887-.0385742-.3220215-.0737305-.4818115l-.0202637-.095459.1025391.0240479.0217285.0050049c.0761719-.3344727.1276855-.673584.1420898-1.0146484.2011719-.2182617.3100586-.4952393.4008789-.7763672.5583496-3.0620117,2.5739746-4.6143799,6.0117188-4.3206787.9172363.0802002,1.9001465.3282471,2.7976074.5211182.4782715.0671387.9211426.2714844,1.2561035.5936279.0056152.0054932.0117188.0107422.0175781.0162354-.0195312.0372314.3557129.3829346.5991211.6243896,1.0844727-.3994141,2.3688965-.4699707,3.8601074-.1696777,1.0505371.2138672,2.1552734.6486816,3.1679688,1.0031738.5449219.1435547,1.0297852.4569092,1.3742676.9064941.2255859.2902832.454834.5848389.8330078.666748.1831055.0588379.3530273.1520996.5085449.2624512-.0200195.1630859.0893555.2978516.2329102.37854.3996582.2796631.5695801.7868652.7705078,1.2181396.0021973.0036621.0678711.458374.0695801.4624023v.0778809c.0053711-.003418.0107422-.006958.0107422-.006958l.0029297.0245361.097168.7915039.0009766.0068359-.0058594.0043945.0246582.4163818.0036621.3609619c.064209.0390625.1123047.081543.1809082.1201172,1.0197754.5723877,1.4660645,1.6496582,1.5949707,2.7799072.6523438,5.7271729-.2524414,11.0981445-3.7753906,15.8304443-1.8510742,2.4863281-4.2490234,4.2824707-7.1281738,5.4091797-.7468262.2922363-1.2880859.7202148-1.786377,1.3464355-1.5961914,2.0063477-3.7070312,3.34375-6.1015625,4.1618652-3.3000488,1.1274414-6.4125977-.3049316-8.0629883-3.7080078-.4204102-.8669434-.8569336-1.2536621-1.8171387-1.1463623-.6115723.0682373-1.2939453.0974121-1.8569336-.1026611ZM114.1849611,67.3596557c-1.5773926-.2886963-2.8896484-1.005127-4.1635742-1.8405762-1.260498-.8265381-2.6000977-1.4852295-4.229248-1.0551758,1.6921387,4.1206055,5.1804199,5.3291016,8.3928223,2.895752ZM117.0047853,64.9526733c-1.6098633.1241455-3.1599121.418335-5.090332.3188477,2.2089844,1.1292725,4.2553711.9486084,5.090332-.3188477ZM130.4977052,47.1714233c-6.0214844,5.7416992-13.170166,7.0454102-20.9519043,6.3830566,1.0378418.7104492,2.8725586-.0932617,3.0461426,1.7915039.1357422,1.4711914-1.2861328,1.6738281-2.2387695,2.2702637.6503906.5625.8483887,1.354248,1.5197754,1.8156738,1.5871582,1.0910645,1.4418945,2.3032227-.3547363,3.1141357-.8110352.3660889-1.654541.6602783-2.4833984.9871826.0390625.1342773.0776367.2684326.1166992.4025879,5.5195312.7817383,10.8183594.1630859,15.373291-3.4147949,4.1999512-3.2988281,6.1542969-7.7585449,5.9729004-13.3496094ZM111.3814943,61.4123901c.2321777-.1362305.4501953-.3883057.3188477-.7165527-.1049805-.2626953-.3461914-.3139648-.5927734-.2351074-.9309082.2978516-1.9643555.1853027-2.9960938.7515869,1.1464844.6899414,2.1889648.8343506,3.2700195.2000732ZM129.3673341,40.5246948c-.1357422.2370605-.3041992.4676514-.4912109.6916504.371582,2.0112305-.284668,3.2380371-2.2783203,4.5949707-.4335938.2952881-.8969727.550293-1.3608398.7980957-4.7722168,2.5500488-9.9238281,3.3883057-15.2617188,3.3239746-1.5251465-.0183105-3.0673828-.0229492-4.5058594-.6992188-.3737793-.1756592-.8190918-.6712646-1.2055664.0270996-.2734375.4943848-.7763672.9937744-.4753418,1.5661621.3166504.6025391.920166.2587891,1.4155273.1491699,1.6843262-.3730469,1.9729004-.1652832,1.9787598,1.5966797,1.0288086-.5070801,2.0778809-.3105469,3.1201172-.2814941,5.0981445.142334,10.0427246-.4997559,14.5908203-2.9936523,2.0771484-1.1390381,3.9543457-2.5566406,5.1264648-4.6870117.8891602-1.6162109.6665039-2.9790039-.652832-4.0864258ZM106.3343751,53.9153198c1.0349121.3569336,1.5358887.307373,2.4699707-.2441406-1.1206055-.4482422-1.4931641-.411377-2.4699707.2441406ZM103.6324708,41.9264282c-.005127.1782227-.0317383.3568115.1132812.3114014.1220703-.0678711.125-.2783203.1582031-.4421387.197998-.8666992-.3928223-1.9030762-1.1169434-1.9306641.6135254.3383789.904541,1.269043.845459,2.0614014ZM102.4444825,40.2114623c-.8068848-.1179199-1.8166504.6118164-1.5786133,1.7832031.0649414.416748.2734375.9379883.6096191,1.0606689-.2302246-.2318115-.4641113-.5093994-.4213867-.9053955.1162109-1.104248,1.3884277-2.168457,2.0432129-1.0118408.0344238.09729.1030273.1689453.1555176.2368164-.0322266-.5216064-.4118652-1.043335-.8083496-1.1634521ZM102.7655275,41.7989868c-.123291-.4234619-.4326172-.7362061-.8010254-.5306396-.1745605.0516357-.2470703.2739258-.0039062.2626953.2719727-.0002441.5698242.0651855.8049316.2679443ZM102.5760743,42.0926879c-.2878418-.1669922-.5910645-.1612549-.8979492-.2458496-.0856934-.0186768-.1081543.006958-.1455078.1356201-.0378418.1350098-.0788574.2263184-.0632324.3371582.0019531.0964355.0976562.2011719.1289062.1638184.0280762-.0206299.0571289-.0769043.0947266-.1281738.0576172-.0791016.126709-.0875244.1889648-.1346436.0488281.2489014.2028809.4677734.4155273.4647217.1628418-.0153809.4321289-.057373.4511719-.3129883.0080566-.1341553-.0791016-.234375-.1726074-.2796631ZM101.4144533,43.3752807c-.0605469-.0076904-.1047363-.0065918-.1435547-.0024414.0812988.0043945.1640625.0092773.2478027.0141602-.034668-.0039062-.0693359-.0073242-.104248-.0117188ZM101.0223634,38.0393432c-.564209.0612793-1.0314941.5068359-1.3842773,1.032959-.8901367,1.3225098-.4077148,3.4189453.6743164,4.4543457.1452637.1397705.2883301.3520508.454834.3195801.0212402-.0986328-.067627-.1955566-.1086426-.3181152-.3874512-.8498535-.4436035-1.9301758-.0168457-2.7241211.1921387-.4737549,1.5153809-2.9813232.3806152-2.7646484ZM99.598047,45.5190795c.4450684.9631348,1.5446777,1.4367676,2.3359375,1.0290527.1306152-.0717773.2463379-.2009277.2685547-.3830566.0236816-.1820068-.0307617-.3737793-.0952148-.5474854-.0615234-.322876-.3356934-.4564209-.5563965-.5633545-.5698242-.2709961-1.1767578-.4819336-1.6828613-.9821777-.0744629-.0615234-.1459961-.1789551-.2111816-.1896973-.2121582.4638672-.2856445,1.1315918-.0588379,1.6367188ZM103.7169435,44.1549438c.8007812-.661377,1.170166-1.9255371,1.1750488-3.1278076-.0061035-1.157959-.2919922-2.6628418-1.3747559-2.8459473-.4697266-.1281738-.9753418-.072998-1.4162598.0888672-.046875.0266113-.0610352.0583496-.0925293.1363525-.0524902.1237793-.2036133.4750977-.2585449.6043701,0,0-.192627.4504395-.2785645.6520996.5805664-.2543945,1.2045898-.5317383,1.855957-.3366699,1.1210938.3504639,1.4035645,2.2429199.7265625,3.2301025-.6601562,1.055542-1.8676758.9050293-2.8291016.8328857,0,0-.0578613.0456543-.0834961.0656738-.0371094.0936279.0200195.2357178.0454102.3317871.4555664,1.3730469,1.7832031.9460449,2.5302734.3682861ZM102.2015626,37.90531c.567627-.1173096,1.1447754-.2663574,1.7312012-.1206055-.0163574-.0664062-.0402832-.1270752-.0839844-.170166-.5112305-.4057617-1.1369629-.2587891-1.6669922-.067627-.0842285.0291748-.2058105.0843506-.1794434.2163086.0202637.1137695.1181641.1494141.1992188.1420898ZM102.5587404,45.6482299c.1000977.1380615.2185059.2636719.3586426.3085938,1.7473145.2697754,3.1584473-1.5178223,3.7561035-3.4445801.0058594-.0187988.0112305-.0378418.0168457-.0566406.0354004-.1174316.0688477-.2353516.0981445-.3532715.630127-2.7584229-1.2507324-3.447998-2.6289062-4.8867188.3571777.5872803.7773438,1.1405029,1.0007324,1.8674316.5419922,2.1879883.1252441,5.1745605-1.7768555,5.8383789-.2890625.1003418-.5869141.1948242-.8540039.310791-.1149902.069458-.0683594.2893066.0292969.4160156ZM106.5658204,46.9889282c-.526123.6420898-1.2084961,1.1229248-1.8947754,1.3660889.5124512-.0354004,1.0219727-.0480957,1.5324707-.0473633.0974121.046875.1960449.0878906.2976074.1152344.3452148.0930176.6904297.1726074,1.0358887.2404785-.5759277-.2816162-.9758301-.7763672-.9711914-1.6744385ZM112.4420411,40.8025268c-.0544434.0117188-.0759277.0344238-.125.0910645-.0800781.0895996-.3105469.3430176-.3945312.4365234,0,0-.2939453.3253174-.4257812.4708252.6582031-.0826416,1.3662109-.1749268,2.0048828.1230469.3842773.184082.6142578.50354.7211914.8652344.041748-.3348389.2089844-1.2770996.2299805-1.4239502-.1364746-.1375732-.2990723-.2565918-.5161133-.3322754-.4631348-.2047119-1.001709-.2678223-1.4946289-.2304688ZM112.6224611,40.5273803c.6159668.0258789,1.248291.0279541,1.8293457.2719727-.0029297-.0576172-.0153809-.1120605-.0522461-.1564941-.4484863-.4393311-1.1313477-.4536133-1.7233887-.411377-.0939941.0058594-.2321777.0246582-.2319336.1376953-.0026855.0968018.092041.1468506.1782227.1582031ZM112.0462892,35.6200317c.3271484-.3442383,2.4074707-2.1013184,1.0627441-2.1677246-.6586914-.0706787-1.293457.1918945-1.8156738.5445557-1.3166504.885498-1.2419434,2.6942139-.2412109,3.7678223.1342773.1447754.2495117.3480225.4472656.3572998.0463867-.0756836-.032959-.173584-.052002-.2819824-.2495117-.774292-.0683594-1.6652832.598877-2.2199707ZM110.421045,38.1134399c-.0710449-.06604-.1259766-.1768799-.197998-.1994629-.2333984.2227783-.4060059.5343018-.4567871.8533936.3212891-.1412354.6750488-.2390137,1.0515137-.3066406-.1394043-.1070557-.2775879-.2155762-.3967285-.34729ZM114.2882325,33.87052c-.0593262.0118408-.0830078.0344238-.1367188.0913086-.0878906.0894775-.340332.3428955-.432373.4364014,0,0-.3220215.3253174-.4663086.4708252.7211914-.0827637,1.4968262-.1749268,2.1962891.1230469.4108887.1795654.6582031.4891357.779541.8397217.1796875-.3330078.3793945-.6369629.5952148-.9158936-.152832-.3602295-.4216309-.6630859-.8979492-.8146973-.5075684-.204834-1.0974121-.2679443-1.6376953-.2307129ZM114.4859865,33.5954955c.6750488.0258789,1.3676758.0279541,2.0043945.2718506-.003418-.057373-.0170898-.1118164-.057373-.1563721-.4914551-.4393311-1.239502-.4534912-1.8881836-.411377-.1030273.0057373-.2541504.0246582-.2541504.1376953-.0026855.0968018.1010742.1468506.1953125.1582031ZM122.4664552,36.0818237c-.0703125.0076904-.1005859.0335693-.1706543.098877-.1135254.1027832-.4399414.3933105-.5588379.5007324,0,0-.4165039.3730469-.6027832.539917.845459-.0167236,1.7556152-.0386963,2.5256348.4248047,1.3193359.8123779.980957,2.8282471-.2614746,3.5411377-1.2463379.7883301-2.7521973.1409912-3.9685059-.3262939,0,.0001221-.0917969.0219727-.1323242.0316162-.0830078.0786133-.0620117.244873-.0649414.3515625.0788574,1.5656738,1.9545898,1.6826172,3.1352539,1.4094238,1.2817383-.3349609,2.2294922-1.4521484,2.6826172-2.6571045.4228516-1.164917.612793-2.793335-.7192383-3.4217529-.5600586-.3217773-1.234375-.4741211-1.8647461-.4929199ZM122.7320802,35.7571166c.777832.1154785,1.5795898.2028809,2.2836914.5900879.0036621-.0732422-.0046387-.144043-.0454102-.2053223-.5100098-.6171875-1.3740234-.7268066-2.1303711-.7526855-.1201172-.0053711-.2976074.0001221-.3125.1435547-.0163574.1223145.097168.1984863.2045898.2243652ZM116.8834474,46.500769c-.0339355.8583984-.5266113,1.571167-1.222168,2.0952148,1.019043-.0615234,2.0036621-.2593994,3.0415039-.6262207.2912598-.1030273.5720215-.230957.8596191-.3428955.1662598-.0406494.3320312-.0825195.5004883-.1170654.4121094-.0847168.65625-.229248.793457-.3991699.0129395-.0056152.0251465-.0124512.0380859-.0180664-.0266113-.0074463-.0554199-.0115967-.0817871-.0195312-.8986816-.3173828-1.7316895-.7076416-2.670166-.8648682-.3962402-.0533447-.8112793-.1138916-1.2185059-.1949463-.0202637.2097168-.0507812.487915-.0405273.4875488ZM122.0868165,46.5249389c.0437012-.0212402.0876465-.0410156.1313477-.0623779.1293945.03125.2719727.0240479.4111328.0267334.3496094-.0380859.7058105-.1015625,1.0598145-.1953125.4921875-.1828613,1.0385742-.473877,1.6699219-.890625.0800781-.0527344.1748047-.0921631.2373047-.1608887.1967773-.2165527.5432129-.3518066.7719727-.5498047.0859375-.1186523.159668-.243042.222168-.3723145.0070801-.0648193.1000977-.3181152.1357422-.3482666.0361328-.1273193.0620117-.2583008.0732422-.3942871.0893555-.9122314-.9916992.1165771-1.2880859.3077393-.4816895.3782959-1.0102539.7036133-1.5827637.934082-1.1464844.4699707-2.4733887.4475098-3.6328125.0102539-.151123-.0527344-.2780762-.1166992-.4020996-.1109619-1.9291992.557251-3.1965332-.5093994-4.4714355-1.7911377-.0715332-.0681152-.3666992-.3428955-.4592285-.4327393-.0563965.5040283-.078125,1.0106201-.0529785,1.5203857.1452637.3481445.3828125.6564941.7062988.8439941.5217285.3105469,1.1257324.3920898,1.7280273.4545898,1.2331543.1191406,2.3544922.6538086,3.4931641,1.0825195.3569336.1014404.7888184.138916,1.2492676.128418ZM123.087549,40.3818725c-.072998.1767578-.1738281.3449707.0305176.3588867.1833496-.0178223.2653809-.2279053.3691406-.3786621.5783691-.7886963.1994629-2.0717773-.7268066-2.3972168.6674805.5919189.697998,1.6455078.3271484,2.4169922ZM122.1888673,38.1720336c-.9997559-.4498291-2.5769043-.1322021-2.7045898,1.1416016-.0710449.4450684.0046387,1.0539551.3937988,1.3151855-.2114258-.3272705-.4106445-.7021484-.2080078-1.0821533.5605469-1.0606689,2.6018066-1.6062012,3.0183105-.1762695.0085449.1118164.0705566.2120361.1132812.3017578.1520996-.5369873-.1447754-1.2167969-.612793-1.5001221ZM122.0135743,39.8974975c-.001709-.4755859-.2856445-.916626-.838623-.8618164-.244873-.0197754-.4213867.173584-.1025391.262207.3518066.1115723.7126465.2995605.9411621.5996094ZM121.6593263,40.1145385c-.3100586-.2858887-.7043457-.4046631-1.0698242-.6157227-.1037598-.0539551-.1425781-.0373535-.2385254.076416-.0991211.1201172-.1862793.1948242-.2072754.3125-.0332031.0976562.0515137.2420654.105957.2175293.0439453-.0092773.1025391-.0539551.1699219-.0898438.1040039-.0556641.1967773-.0358887.2949219-.0574951-.029541.2698975.0883789.5528564.364502.6373291.2160645.0512695.5800781.119873.699707-.1289062.0603027-.1313477-.0148926-.2678223-.1193848-.3518066ZM119.6800783,40.9248412c-.0754395-.0324707-.1325684-.0495605-.1845703-.0612793.1037598.0378418.2087402.0766602.3154297.1160889-.0437012-.0184326-.0871582-.0360107-.1308594-.0548096ZM121.1573732,35.4071411c-.7524414-.1702881-1.5227051.085083-2.1743164.4683838-1.6430664.961792-1.7988281,3.2645264-.7844238,4.7485352.1359863.1999512.2421875.4719238.4694824.5078125.0639648-.090332-.0146484-.2243652-.0222168-.3640137-.1850586-1.0124512.144043-2.1199951.9909668-2.7418213.4248047-.3966064,3.0683594-2.3701172,1.5205078-2.6188965ZM117.4212892,40.9890502c-.0734863-.0924072-.1223145-.2397461-.2026367-.2770996-.4467773.378418-.7900391,1.0185547-.6848145,1.6186523.2177734,1.1499023,1.463623,2.0771484,2.6386719,1.9929199.1953125-.0184326.3930664-.1005859.489502-.2744141.0983887-.1727295.0993652-.3876953.0803223-.588501.0407715-.3493652-.2641602-.5960693-.5097656-.7941895-.6364746-.5062256-1.3427734-.9671631-1.8112793-1.6773682ZM116.8924806,38.7549194c-.0458984-.2202148-.0761719-.4484863-.107666-.6723633-.0214844-.0963135-.0429688-.262207-.1652832-.2330322-.1052246.0303955-.1982422.1029053-.2915039.164917-1.2416992.9499512-1.4726562,3.1760254-.4619141,4.3564453.0212402-.0463867.0319824-.0976562.0209961-.1610107-.1359863-.5736084.0585938-1.2260742.5158691-1.5985107.4931641-.4794922.6162109-1.1923828.489502-1.8564453ZM115.2076661,37.1727661c-.0466309.1437988-.1176758.2833252.0581055.2773438.1550293-.0290527.2060547-.199585.28125-.3256836.4228516-.6628418-.0166016-1.6322021-.8374023-1.8095703.6235352.4064941.744873,1.225708.4980469,1.8579102ZM114.2459962,36.8835815c-.0446777-.3707275-.3269043-.6912842-.7941895-.6029053-.2111816.0046387-.3444824.170166-.064209.2128906.310791.0578613.6359863.1748047.8583984.3900146ZM113.9630372,37.0820678c-.2907715-.1973877-.6384277-.2574463-.9697266-.3919678-.0935059-.0335693-.125-.0174561-.1970215.0792236-.0737305.1018066-.1413574.1673584-.1486816.2607422-.0195312.0789795.065918.1845703.1098633.1608887.0371094-.0108643.0830078-.050415.1374512-.0841064.0837402-.052002.1645508-.0440674.2468262-.0690918-.0012207.2130127.125.4239502.3686523.4669189.1894531.0223389.5065918.0457764.5864258-.1580811.0395508-.1075439-.0371094-.2076416-.1337891-.2645264ZM114.7748048,36.4169067c.0175781.0864258.0793457.1594238.1240234.2259521.0817871-.4312744-.2333984-.9368896-.6589355-1.1193848-.8950195-.2684326-2.213623.109375-2.2077637,1.1132812-.0202637.3529053.0993652.8215332.4555664.9931641-.2102051-.237793-.4143066-.5136719-.2758789-.8266602.3835449-.8734131,2.078125-1.4671631,2.5629883-.3863525ZM111.9913575,38.1631225c.0141602.0812988.0498047.1422119.0759277.2121582.1799316.0043945.3493652-.0059814.5388184.0117188.7299805.0698242,2.2236328.7634277,2.286377.3327637.2478027-.2387695.404541-.5559082.5422363-.8815918-.9816895.6177979-2.2663574.2644043-3.309082.0097656,0,.0001221-.0766602.0247803-.1103516.0356445-.0637207.0682373-.0307617.1959229-.0239258.279541ZM112.4005372,46.4878295c-.3222656.0198975-.6520996.0330811-.9545898.0703125-.1342773.0318604-.1313477.2207031-.0556641.3446045.0759277.1339111.1733398.2612305.3098145.3277588,1.3757324.4621582,2.8498535-.6174316,3.8981934-1.6179199-.340332-.1530762-.6464844-.3422852-.8847656-.5942383-.512207.8077393-1.2802734,1.404541-2.3129883,1.4694824ZM113.2809083,44.1045287c-.0424805.1439209-.1071777.2834473.0534668.2775879.1413574-.0290527.1879883-.199707.2565918-.3259277.3857422-.6625977-.0151367-1.6320801-.7644043-1.8095703.5693359.4066162.6799316,1.2258301.4543457,1.8579102ZM112.3978517,42.4553588c-.8168945-.2683105-2.0205078.109375-2.0151367,1.1132812-.0185547.3530273.0905762.8215332.4155273.9931641-.1916504-.237793-.3781738-.5136719-.2514648-.8266602.3498535-.8735352,1.8967285-1.4672852,2.3393555-.3864746.0158691.0866699.0725098.159668.1132812.2260742.0744629-.4313965-.2133789-.9370117-.6015625-1.1193848ZM112.4034669,43.8154662c-.0407715-.3708496-.2983398-.6912842-.7250977-.6030273-.192627.0048828-.314209.170166-.0585938.2128906.2836914.0581055.5805664.1749268.7836914.3901367ZM112.1451661,44.0139526c-.265625-.1973877-.5827637-.2575684-.8852539-.3919678-.0852051-.0335693-.1142578-.0174561-.1796875.0792236-.0673828.1018066-.1291504.1672363-.1359863.2607422-.0175781.0788574.0603027.1845703.1005859.1608887.0336914-.0107422.0756836-.050415.1252441-.0841064.0766602-.0518799.1503906-.0440674.2250977-.0690918-.0007324.2130127.114502.4239502.3369141.4669189.1728516.0222168.4624023.0456543.5351562-.1580811.0361328-.1075439-.0339355-.2076416-.1220703-.2645264ZM110.3673341,44.8154662c-.0583496.0681152-.0280762.1960449-.0217285.279541.1906738,1.2143555,1.6630859,1.1508789,2.5612793.8405762.6525879-.2463379,1.144043-.7645264,1.4829102-1.3681641-.1035156-.2026367-.1738281-.4337158-.2077637-.6950684-.1140137.3278809-.3083496.6291504-.5925293.8347168-.9067383.7175293-2.1345215.3369141-3.121582.0727539,0,0-.0698242.0247803-.1005859.0356445ZM111.365381,40.3843139c-.6008301-.0708008-1.1804199.1917725-1.6569824.5444336-1.2019043.885498-1.1335449,2.6942139-.2202148,3.7678223.1225586.1447754.2277832.3481445.407959.3572998.0424805-.0756836-.0300293-.1737061-.0473633-.2819824-.2277832-.774292-.0625-1.6651611.546875-2.2199707.298584-.3442383,2.1975098-2.1013184.9697266-2.1676025ZM108.7311036,44.8459838c-.3171387.3319092-.5322266.859375-.4003906,1.3188477.2644043.8786621,1.3125,1.4990234,2.2219238,1.3365479.1508789-.0305176.2980957-.1108398.3591309-.2542725.0625-.1430664.0454102-.3106689.0141602-.4656982.0029297-.2757568-.255127-.4431152-.4628906-.5772705-.5380859-.3422852-1.1269531-.6435547-1.5507812-1.1588135-.0651855-.06604-.1152344-.1768799-.1811523-.1993408ZM107.5130861,46.7219604c-.0656738-.050415-.3586426-.2701416-.4147949-.3156738-.2685547.6226807.0688477,1.5129395.7253418,1.8061523.432373.1992188.9101562.2130127,1.3850098.2120361.927002-.0081787,1.8056641.2854004,2.6860352.5213623.6689453-.0324707,1.340332-.0925293,2.0153809-.1784668.5427246-.1704102,1.0812988-.4136963,1.5187988-.7419434.0241699-.0185547.0483398-.0368652.0717773-.0560303.0534668-.0421143.1037598-.0863037.1535645-.1306152.0515137-.0462646.1020508-.0939941.1516113-.1433105.0571289-.0577393.1142578-.1157227.1650391-.1767578.0041504-.0045166.0083008-.0093994.012207-.0140381.2287598-.279541.4501953-1.1418457.5148926-1.5874023-.1611328-.0404053-.3181152-.0864258-.4714355-.1374512-.1433105.3463135-.4897461.7955322-.5666504.8572998-.3442383.3347168-.7297363.631958-1.1572266.8590088-.8554688.4609375-1.8918457.5527344-2.8322754.307373-.1223145-.0285645-.2265625-.0678711-.3227539-.0532227-1.4584961.5935059-2.534668-.1337891-3.6345215-1.0283203ZM128.1837404,40.7695678c-.0166016.1113281-.0893555.2341309-.0834961.3364258,0,0,.0009766.0062256.0014648.0095215.1044922-.1052246.1921387-.2264404.2873535-.3408203.0651855-.239624.2590332-.4882812.2919922-.3717041.0578613-.085083.557373-1.4813232.6333008-1.4019775.0617676-.2670898.0944824-.541748.0927734-.8212891.0300293-.8400879-.4963379-1.5825195-1.229248-1.9504395-.1804199-.0778809-.1362305-.0870361-.1662598.0960693-.1638184,1.4941406.5969238,2.9598389.1721191,4.4442139ZM127.3673341,43.3628295c.0009766.0412598-.0065918.0788574-.0070801.1196289.4016113-.4746094.6921387-.9139404.7321777-1.4124756-.043457.0449219-.0900879.0936279-.1320801.1374512-.3256836.3348389-.6906738.6383057-.5930176,1.1553955ZM125.5208986,35.8691772c.2436523.7363281.5810547,1.4643555.5998535,2.2858887-.112793,2.4191895-1.7624512,5.2460938-4.4692383,5.1308594-.4111328-.0178223-.8310547-.0454102-1.2197266-.0388184-.1748047.0224609-.1960449.2624512-.1169434.4296875.0783691.1798096.1848145.3544922.3491211.4571533,2.1594238.9887695,4.6491699-.2259521,6.1384277-1.9146729.0144043-.0164795.0285645-.0333252.0429688-.0498047.0895996-.1035156.1762695-.2080078.2580566-.3144531,1.8408203-2.5102539-.3352051-3.9753418-1.5825195-5.9858398ZM125.2457521,34.5139526c.7539062.9748535,1.3300781,2.0823975,2.1437988,3.0056152.2390137-1.5839844-.5-2.8865967-2.1437988-3.0056152ZM117.1312501,35.5517944c-.0012207.0019531-.0026855.0037842-.0036621.0056152-.0336914.0527344-.0639648.1082764-.0952148.1627197-.0483398.0858154-.095459.1729736-.1396484.2626953-.0170898.0352783-.0344238.0699463-.0505371.105835-.0217285.046875-.0405273.0959473-.0612793.1436768-.0327148.0806885-.0654297.161499-.0932617.2454834-.2485352.5634766.1052246.859375.527832.3452148.5410156-.5466309,1.2070312-1.3814697,1.8857422-1.7561035.751709-.4660645,1.7307129-.4985352,2.5441895-.2143555.4055176.0983887.8125.0744629,1.2434082.0129395.6574707-.0749512,1.331543.0993652,1.9035645.4161377,0,0,.1960449.0914307.3596191.1680908-.8168945-1.5083008-2.7426758-2.09375-4.3789062-1.9423828-1.4780273.1066895-2.8574219.8270264-3.6418457,2.0444336ZM117.3214357,34.3519653c.0737305-.072876.1513672-.1400146.2285156-.2076416-.2299805-.223877-.4628906-.4466553-.6713867-.6914062.1467285.2961426.3037109.5935059.4428711.8990479ZM116.5213868,32.4186157c.4841309.4615479.9101562.9714355,1.3664551,1.4545898.2241211-.1651611.465332-.3035889.7141113-.4293213-.1120605-.0463867-.21875-.1096191-.3044434-.1916504-.3410645-.5291748-.9384766-.8588867-1.776123-.8336182ZM109.868799,34.8815063c.4130859-.4709473.9064941-1.1767578,1.4523926-1.5249023.6003418-.4255371,1.4335938-.5314941,2.154541-.3769531.3554688.0432129.7009277-.0090332,1.0637207-.0925293.5546875-.1125488,1.1462402-.0322266,1.6635742.1676025,0,0,.1760254.0552979.3225098.1014404-.8339844-1.1088867-2.5322266-1.4067383-3.916748-1.1538086-1.2526855.2052002-2.3664551.8806152-2.9265137,1.8947754-.0009766.0015869-.0019531.0031738-.0029297.0046387-.0239258.0439453-.0444336.0897217-.0666504.1347656-.0334473.0709229-.065918.1427002-.0952148.2163086-.0112305.0289307-.0234375.0574951-.0336914.0866699-.0144043.0383301-.026123.0782471-.0393066.1171875-.020752.0656738-.0412598.1313477-.0576172.1992188-.1616211.4598389.1674805.661377.4819336.2255859ZM109.049463,39.1330932c-.1635742.0720215-.2741699.2131348.2324219-.0992432-.0292969.0125732-.059082.0233154-.0883789.0360107-.1079102-.4094238-.0014648-.8684082.3232422-1.1668701.378418-.4146729.4189453-.9807129.2507324-1.4882812-.059082-.1679688-.1057129-.3435059-.1525879-.5155029-.0270996-.0732422-.0605469-.2009277-.1625977-.1680908-.0871582.0324707-.1599121.0966797-.2338867.15271-.9106445.7875977-.9560547,2.3618164-.1689453,3.2492676ZM108.4081056,41.8135131c.3769531-.4710693.8273926-1.177002,1.3256836-1.5251465.5478516-.425415,1.3085938-.5314941,1.9665527-.3769531.3242188.043457.6396484-.0087891.9707031-.0924072.5065918-.1125488,1.0466309-.0322266,1.5187988.1676025,0,0,.1447754.0498047.2741699.0943604-.0004883-.0061035-.0004883-.012207-.0012207-.0183105-.7680664-1.0859375-2.3005371-1.3790283-3.5537109-1.1282959-1.1437988.2050781-2.1601562.8806152-2.6716309,1.8946533-.0004883.0015869-.0014648.0030518-.0024414.0047607-.0219727.0437012-.0407715.0895996-.060791.1346436-.0305176.0709229-.0600586.1427002-.0871582.2164307-.0102539.0288086-.0209961.057373-.0307617.0866699-.0129395.0383301-.0236816.078125-.0356445.1170654-.019043.0656738-.0378418.1314697-.0527344.1990967-.1472168.4599609.1530762.661499.4401855.2258301ZM107.3785646,43.4606078c.2072754.7318115.1704102,1.4403076-.0305176,2.0863037.1101074.267334.2614746.5117188.4650879.7042236.0129395-.0379639.0168457-.0787354.0031738-.1273193-.1533203-.4360352-.0554199-.9609375.2705078-1.2890625.3449707-.4145508.3820801-.9807129.2287598-1.4881592-.0541992-.1678467-.0966797-.3433838-.1396484-.5155029-.0244141-.0732422-.0549316-.2009277-.1479492-.1679688-.0795898.0324707-.1459961.0965576-.2138672.1525879-.1879883.1782227-.3271484.4025879-.4355469.6448975ZM105.9996583,36.9167846c.2695312,1.3781738,1.1713867,2.4689941,1.2578125,3.9123535.017334.1038818-.001709.2338867.0285645.3233643,0,0,.0021973.005249.003418.0080566.3361816-.913208.4411621-1.993042.1508789-2.9862061-.1943359-.7570801-.7487793-1.2697754-1.3503418-1.3901367-.1445312-.0183105-.1164551-.0390625-.090332.1325684ZM103.6219728,36.0854858c.7714844.6553955,1.4538574,1.4794922,2.253418,2.0720215-.2404785-1.4797363-1.0856934-2.4312744-2.253418-2.0720215ZM98.2044923,40.2591918c-.0275879.5723877.2929688.7359619.4536133.1582031.234375-.6405029.480957-1.572998.8544922-2.0991211.4006348-.6282959,1.0695801-.9344482,1.7053223-.911499.3056641-.0270996.5812988-.1635742.8635254-.3405762.435791-.2528076.9467773-.2883301,1.423584-.1679688,0,0,.1591797.026001.2919922.0478516-.9519043-1.112793-2.434082-1.0893555-3.5273438-.4912109-.9951172.5136719-1.7648926,1.5461426-1.9956055,2.8532715-.0002441.0021973-.0009766.0041504-.0012207.0061035-.0097656.0565186-.0163574.114502-.0241699.1719971-.0114746.09021-.0217285.1811523-.0290527.2735596-.0026855.0362549-.0061035.0722656-.0080566.1086426-.0029297.0478516-.003418.097168-.0053711.1455078-.0019531.0811768-.0039062.1624756-.001709.2452393ZM99.1461427,45.743933c.0029297-.0473633-.0029297-.0959473-.0266113-.1494141-.2409668-.4727783-.2736816-1.109375-.0527344-1.5705566.2182617-.5671387.1208496-1.2373047-.1369629-1.793457-.0883789-.1831055-.1679688-.3780518-.2470703-.5686035-.0393066-.079834-.0966797-.2216797-.1738281-.1608887-.0651855.0568848-.1108398.1478271-.159668.2294922-.6152344,1.1982422-.2045898,3.2476807.796875,4.0134277ZM103.61709,47.9242309c.8950195-.0350342,2.157959-.8331299,2.8845215-1.932251.017334-.0273438.0351562-.0546875.0522461-.0825195.015625-.0249023.0292969-.0505371.0439453-.0758057.0544434-.4202881.0251465-1.3348389.0251465-1.3348389.0695801-.3345947.1164551-.6738281.1298828-1.0146484.0019531-.0024414.0029297-.0056152.0048828-.0080566-.2043457.1435547-.4477539.7197266-.5505371.8867188-.236084.4736328-.5185547.9130859-.8554688,1.2807617-.6728516.7434082-1.5964355,1.0991211-2.5107422,1.0375977-.1181641-.0039062-.222168-.0250244-.3066406.0151367-1.1918945,1.0427246-2.3417969.4510498-3.5524902-.3304443-.0715332-.0432129-.3894043-.2297363-.4511719-.2694092-.1003418.791748.4138184,1.7509766,1.0805664,1.9361572.4404297.1290283.8791504.0307617,1.3120117-.0841064.8835449-.2429199,1.7963867-.0839844,2.6938477-.024292ZM92.5221193,17.6046508c-.4604492.5968018-.8564453,1.2427979-1.3095703,1.845459-.2524414.3358154-.1994629.6009521.0656738.8723145.1611328.164917.3439941.4343262.5820312.2459717.8779297-.694458,1.9082031-1.2773438,2.0612793-2.1789551.1079102-.9490967-.1054688-1.4519043-.6621094-1.6096191-.6320801-.1790771-.5100098.5300293-.7373047.8248291ZM28.6949708,23.5266479c2.2702637.364502,4.5444336.7102051,6.8049316,1.1281738,4.4631348.8251953,8.5654297,2.3586426,11.798584,5.770752,2.7883301,2.942749,4.1948242,6.463623,4.8540039,10.3811035.3222656,1.9157715,1.2116699,3.5070801,2.9216309,4.585083.8178711.5157471,1.4694824.6931152,2.2614746-.0957031.5651855-.5629883,1.3613281-.8863525,2.0085449-1.3775635.4743652-.3598633,1.4023438-.1992188,1.3452148-1.203125-.0522461-.9152832-.7075195-1.1278076-1.3879395-1.4073486-2.234375-.918335-3.8989258-2.4405518-4.6972656-4.7606201-.232666-.6765137-.71875-.9440918-1.2502441-1.2738037-3.1540527-1.9564209-4.1037598-5.0820312-2.4372559-8.2513428.3208008-.6101074.1088867-.9544678-.1228027-1.4226074-.7304688-1.4763184-1.2270508-3.012207-1.1801758-4.6916504.0251465-.8959961.8410645-1.9050293.3354492-2.5653076-.4799805-.6268311-1.6291504-.7027588-2.4216309-1.1348877-6.4765625-3.5319824-12.0839844-8.1137695-16.6711426-13.9134521-.536377-.6782227-1.0588379-1.3719482-1.8278809-1.8118896-.9355469-.5355225-1.5498047-.3381348-1.7365723.7889404-.1538086.928833.059082,1.8135986.3491211,2.6807861,1.2331543,3.6877441,3.2946777,6.9039307,5.6708984,9.9420166.3083496.394043.8776855.6304932.8256836,1.3221436-1.0065918.2324219-1.6162109-.4719238-2.2253418-1.0166016-2.020752-1.8066406-3.7172852-3.8793945-4.8203125-6.3809814-.2841797-.644165-.6435547-1.0478516-1.3955078-.9204102-.8476562.1436768-.8588867.8070068-.8432617,1.4351807.043457,1.7576904.5976562,3.3825684,1.3364258,4.9594727.9992676,2.1330566,2.3198242,4.0588379,3.7053223,5.9683838-2.052002-1.1055908-3.1555176-2.9984131-4.1677246-4.9490967-.4174805-.8046875-.8659668-1.3408203-1.8862305-1.0478516-.956543.2744141-1.2648926.9550781-1.2980957,1.8354492-.1166992,3.1049805,3.0664062,6.9311523,6.1520996,7.4267578ZM43.1197755,74.0034545c1.1999512-1.1179199,2.4501953-2.2004395,3.9672852-2.8266602,5.0073242-2.0664062,6.0898438-6.5678711,5.7973633-11.2541504-.0803223-1.286377-.4418945-1.8096924-1.8898926-1.638916-2.092041.2469482-2.5153809-.1064453-3.1818848-2.0114746-.230957-.6604004-.6113281-.7275391-1.1870117-.7156982-1.5974121.0328369-3.1696777-.1304932-4.6049805-.90979-.8525391-.4627686-1.7800293-.9399414-1.390625-2.1768799.2685547-.8529053,1.7270508-1.3431396,2.9108887-1.0306396-.1074219.4692383-.5275879.4650879-.8632812.5996094-.458252.1838379-1.1796875.1320801-1.1630859.8366699.0136719.5831299.590332.8640137,1.0598145,1.0720215,2.2202148.9838867,4.4541016.9782715,6.6918945.0161133.4238281-.1821289.9824219-.871582,1.3061523-.197876.2497559.5201416-.5266113.8568115-.9870605,1.0211182-.8725586.3116455-1.1086426.8874512-.8205566,1.6704102.4108887,1.1164551,1.3981934,1.0181885,2.3088379.913208.7492676-.0863037,1.4389648-.1595459,1.4240723-1.3103027-.0336914-2.5789795.5478516-5.053833,1.8930664-7.2872314.4428711-.7353516.2675781-1.067627-.4631348-1.3779297-2.1643066-.9189453-3.3342285-2.651123-3.847168-4.8815918-.1931152-.8399658-.3894043-1.6816406-.5246582-2.5319824-.6154785-3.8681641-2.5085449-6.9936523-5.453125-9.5275879-2.4438477-2.1030273-5.2597656-3.4782715-8.3393555-4.3725586-3.279541-.9523926-6.6616211-1.3859863-10.0080566-1.9847412-7.3122559-1.3084717-13.614502-4.2357178-17.8635254-10.6624756-.6328125-.9569092-1.4069824-1.8222656-2.1398926-2.7099609-.4924316-.5960693-1.0822754-1.0722656-1.8063965-1.390625-.6633301-.291748-1.0395508-.1120605-1.3867188.5146484-1.0400391,1.8796387-.6779785,6.3273926.7473145,7.9592285,4.4311523,5.0738525,9.5004883,9.34375,15.6105957,12.2900391.4492188.2165527,1.0258789.3295898,1.0866699,1.1704102-3.8544922-.4255371-6.9953613-2.3369141-10.0368652-4.3950195-3.090332-2.0913086-5.6342773-4.8096924-8.1953125-7.9035645-.8359375,5.1174316-.1914062,9.5283203,3.1240234,13.270752,3.1816406,3.5916748,6.9909668,6.4050293,11.1403809,8.7805176.6994629.4003906,1.5515137.6563721,1.9226074,1.8220215-2.8239746-1.0894775-5.1411133-2.5612793-7.3349609-4.2558594-2.473877-1.9108887-4.706543-4.0913086-6.9902344-6.2154541-.9047852-.8414307-1.5170898-.7310791-2.1459961.3312988-.2824707.4771729-.3144531.9935303-.3344727,1.5245361-.1586914,4.1801758,2.0410156,7.0825195,5.1984863,9.3984375,4.295166,3.1502686,9.2810059,4.7213135,14.355957,6.0383301,1.6005859.4152832,3.234375.7025146,4.8530273,1.0483398-.0151367.1289062-.0300293.2579346-.045166.3868408-1.0244141.2022705-2.0571289.1256104-3.0708008-.1029053-4.8269043-1.0883789-9.5754395-2.3935547-13.8676758-4.9876709-.4716797-.2850342-1.0666504-.93396-1.6538086-.3726807-.5710449.5458984-.1945801,1.2817383.0583496,1.8902588,1.104248,2.6556396,3.1154785,4.4492188,5.6201172,5.727417,3.479248,1.7753906,7.2365723,2.4526367,11.0893555,2.7446289.7263184.0551758,1.5388184-.1694336,2.151123.4968262-.545166.6240234-1.2646484.4458008-1.9052734.4260254-2.7966309-.0859375-5.4960938-.7668457-8.2084961-1.3820801-.859375-.1950684-1.855957-.5145264-2.5495605.362915-.7675781.9708252-.4472656,1.9978027.0773926,2.9669189.7502441,1.3852539,1.8540039,2.435791,3.1943359,3.2410889,4.0661621,2.4429932,8.5126953,3.0877686,13.157959,2.7402344.7915039-.0592041,1.5686035-.1833496,2.3508301.2674561-.3349609.3804932-.7250977.3935547-1.0986328.4621582-2.6789551.4921875-5.3498535.3571777-8.0161133-.0993652-.4750977-.0814209-.9899902-.260498-1.3151855.2331543-.3198242.4853516.0427246.9345703.2770996,1.322998.763916,1.267334,1.9443359,1.9475098,3.3706055,2.2388916,2.7619629.5644531,5.4389648.1483154,8.0761719-.7069092,3.7453613-1.2145996,6.9057617-3.5115967,10.2177734-5.5285645.5383301-.328125,1.0483398-.7332764,1.7993164-.8674316-.5327148,1.0270996-.5390625,1.1306152-1.2924805,1.6416016-4.223877,2.8647461-8.581543,5.4509277-13.7211914,6.3413086-.4440918.0769043-1.0373535-.0302734-1.1398926.625-.0825195.5269775.2390137.9262695.612793,1.2368164,1.2009277.9979248,2.614502,1.1812744,4.0766602.8685303,4.8276367-1.0323486,9.3986816-2.6517334,13.2001953-5.9683838.2277832-.1987305.4255371-.541748.9453125-.3491211-.5354004,1.4488525-1.6911621,2.2891846-2.918457,2.9804688-2.2978516,1.2939453-4.6955566,2.388916-7.192627,3.2576904-.3366699.1170654-.8530273.1199951-.9145508.5692139-.0666504.4844971.3842773.7358398.7253418.9870605,1.465332,1.0797119,4.1074219.909668,5.4689941-.3591309ZM47.3114259,110.7346557c-2.1906738-2.932373-3.9055176-6.137085-5.1386719-9.5917969-.1425781-.3990479-.1887207-.8708496-.6279297-1.0870361-1.392334-.6856689-2.532959-1.6948242-3.6350098-2.9602051-1.734375,2.8734131-3.1218262,5.7491455-4.1801758,8.7749023-.4223633,1.2081299-1.0678711,2.0269775-2.322998,2.4813232-3.1669922,1.1461182-5.7019043,3.1038818-7.3374023,6.1193848-1.9555664,3.6055908-4.8125,5.541748-9.0949707,5.270752-2.2336426-.1413574-3.5427246,1.0330811-4.2592773,3.1508789-.411377,1.2156982-.4069824,2.472168-.2072754,3.7016602.3054199,1.8811035.0749512,3.5878906-.994873,5.2180176-.6379395.97229-1.0722656,2.0908203-.0090332,3.1379395.3007812.2961426.0822754.4987793-.126709.7113037-.5888672.5982666-1.0056152,1.3267822-.2895508,2.0006104.7143555.6723633,1.0302734-.2342529,1.465332-.5982666.2612305-.2185059.5637207-.4244385.8994141-.1485596.3637695.2990723.1633301.59375-.0627441.8653564-.4633789.5567627-.8527832,1.1530762-1.0749512,1.8516846-.2722168.8563232-.3239746,1.6479492.7111816,2.010498.9892578.3466797,1.5788574-.1538086,1.8361816-1.0629883.3391113-1.1994629.9533691-2.2556152,1.9484863-2.9453125,2.6477051-1.8352051,4.135498-4.463623,5.3051758-7.3417969,1.078125-2.6524658,2.9619141-4.2601318,5.7336426-5.1877441,7.9433594-2.6586914,15.2216797-6.5229492,21.2519531-12.487793.6560059-.6489258.8178711-1.0692139.2102051-1.8828125ZM106.9249513,63.2224487c.385498,0,.8977051.0048828,1.0288086-.364502.1791992-.5048828-.4370117-.519165-.7133789-.7294922-.4558105-.3469238-.954834-.6369629-1.4121094-.9821777-.1293945-.0976562-.3181152-.291748-.1508789-.482666.1091309-.1245117.3491211-.2756348.4624023-.2331543,1.671875.6235352,2.4758301-1.3037109,3.980957-1.1733398-.9406738-.8203125-2.0400391-.7001953-3.0341797-.9656982-.3989258-.1065674-.9624023-.1706543-.9570312-.6973877.0046387-.4825439.4931641-.6932373.9257812-.7689209,1.0830078-.189209,2.1772461-.3148193,3.2602539-.5047607.4794922-.0842285,1.0527344-.3017578,1.0185547-.8398438-.0385742-.6047363-.6689453-.5562744-1.1298828-.5444336-.5744629.0148926-1.1481934.0805664-1.7207031.1391602-.9106445.0931396-1.8195801.1531982-2.7202148-.0743408-1.2277832-.3101807-1.3422852-.6322021-.5942383-1.6264648.3198242-.425415.7543945-.7984619.8078613-1.5012207-.9929199.3200684-1.8464355.6159668-2.7133789.8665771-.5009766.1450195-1.0891113.3344727-1.4611816-.1799316-.3347168-.4628906-.1982422-1.0341797.059082-1.5090332.4414062-.8153076.9360352-1.6015625,1.4084473-2.4001465-2.6933594,1.2385254-5.6479492,2.1804199-7.213623,4.7763672-1.7233887,2.8571777-4.1674805,4.0063477-7.2902832,4.4213867-2.4072266.3198242-4.885498.3122559-7.1733398,1.3651123-3.236084,1.4891357-5.0317383,1.1236572-7.635498-1.3913574-1.5314941-1.4793701-2.6455078-3.2860107-3.927002-4.9604492-1.8215332-2.3803711-3.9414062-4.1988525-7.1599121-4.1898193-.3442383.0009766-.923584.0249023-.9233398-.4625244,0-.5655518.5844727-.5041504.9907227-.5319824,2.5969238-.1778564,4.638916.9693604,6.3930664,2.7440186,1.3896484,1.4055176,2.4360352,3.0861816,3.6342773,4.6450195,3.3620605,4.3740234,5.1958008,4.8295898,10.1540527,2.5266113.043457-.0201416.0859375-.0476074.1315918-.0570068.5546875-.1141357.6748047-.4501953.5185547-.958374-.7998047-2.6002197-1.8518066-5.0512695-4.0419922-6.8249512-.6621094-.5362549-1.3601074-1.0134277-2.3344727-1.0559082.3188477.677002.635498,1.2568359.8647461,1.8693848.1430664.3823242.3320312.9091797-.2387695,1.1053467-.4882812.1678467-.6455078-.333374-.7949219-.6556396-.7563477-1.6345215-2.0622559-2.4401855-3.8061523-2.6887207-3.2209473-.4589844-5.5883789-2.388916-7.7580566-4.6203613-.4484863-.4611816-.9023438-.9742432-.8310547-1.7270508.5358887-.0081787.7407227.3657227.9648438.6428223,4.0495605,5.0068359,12.6271973,5.8759766,18.5419922,1.9785156,3.0866699-2.0339355,4.5881348-4.8033447,4.1220703-8.548584-.0646973-.5196533-.1079102-.9189453-.7502441-1.0112305-.6484375-.0932617-.6625977.3278809-.7763672.7526855-.2385254.8908691-.753418,1.6722412-1.689209,1.7585449-.7824707.0722656-1.3378906.4155273-1.9250488,1.0004883q.0571289-1.2907715-.9504395-2.746582c-.0952148-.1384277-.1647949-.3598633-.1254883-.5113525.0722656-.2781982.371582-.3388672.5876465-.2613525.3549805.1274414.6767578.3461914,1.0141602.5238037.5268555.2772217,1.0393066.9468994,1.6625977.4624023.7167969-.5570068.3017578-1.3065186.0339355-1.9744873-.1066895-.2666016-.2075195-.536377-.3286133-.7963867-.2531738-.5437012-.1860352-1.0412598.2504883-1.4449463.4829102-.4466553,1.0581055-.7188721,1.7053223-.4058838.425293.2055664.795166.5253906,1.1894531.7946777.1889648.1291504.3413086.3041992.6025391.0637207.7236328-.666748.6982422-2.2253418-.046875-2.8278809-.3041992-.2457275-.9484863-.4050293-.6538086-.9267578.2871094-.508667.8442383-.232666,1.3037109-.0993652.3068848.0891113.6694336.5859375.916748-.0761719.8718262-2.3337402,1.5354004-4.6737061.2104492-7.0744629-.293457-.5317383-.5793457-.9526367-1.3317871-.6643066-3.4084473,1.3054199-6.3227539-.6177979-9.3820801-1.5222168-.4924316-.1455078-1.2131348-.5532227-.9309082-1.2369385.3339844-.8087158,1.0161133-.2543945,1.470459-.0474854,1.4536133.6612549,2.9450684.8344727,4.4943848.5239258,2.2485352-.4508057,3.2907715-1.9929199,2.8972168-4.2390137-.0378418-.2159424-.2216797-.498291.0932617-.6138916.411377-.151001.5910645.1542969.7429199.4813232.5307617,1.1452637.0734863,3.0444336-1.074707,4.0722656-.5869141.5256348-1.2844238.9274902-1.9599609,1.4051514,3.072998,1.2021484,6.6103516-2.2010498,6.0424805-5.4285889-.4467773-2.5374756-2.262207-3.7595215-4.4855957-4.5864258-.3967285-.147583-1.2370605.0109863-.8708496-.8883057.5253906-1.2904053-.1811523-2.2296143-.9047852-3.1219482-2.3769531-2.9324951-6.9995117-3.9873047-10.6196289-2.4282227-.7341309.3162842-1.3049316.4799805-2.1054688-.0212402-2.75-1.722168-6.440918-1.3237305-8.9868164.7823486-.6845703.5661621-1.1000977,1.0177002.0947266,1.5211182-.6623535.4885254-1.3149414.4226074-1.9169922.5219727-5.0065918.826416-7.9746094,4.2836914-8.0385742,9.3305664-.0107422.8449707.0632324,1.4775391,1.0678711,1.7106934.5285645.1225586,1.2370605.5450439.9331055,1.1906738-.2900391.6162109-.9733887.1274414-1.4040527-.0507812-1.3237305-.5478516-2.2070312-.0578613-2.9328613,1.0310059-1.6496582,2.4753418-.5742188,6.4000244,2.1279297,7.6624756,1.3059082.6102295,2.5163574.4371338,3.5922852-.5501709,1.2751465-1.1702881,1.6130371-2.6586914,1.5180664-4.3175049-.0288086-.5067139-.0732422-1.2415771.519043-1.3275146.685791-.0996094.8566895.6269531,1.0029297,1.1882324.7619629,2.9208984-1.8515625,6.5866699-4.9375,6.7131348-1.0849609.0444336-1.7626953.2011719-1.8352051,1.4335938-.7033691-.4689941-.7497559-1.1054688-.8642578-1.7108154-.0681152-.3603516-.2741699-.6894531-.6271973-.6756592-.1662598.0065918-.3564453.3875732-.46875.6298828-1.0458984,2.2526855-.0075684,5.0441895,2.4753418,6.3156738.8354492.4277344,1.2988281.9445801,1.6247559,1.8029785.5654297,1.4890137,1.7922363,2.3269043,3.2683105,2.8115234.3632812.1191406.8078613.2681885,1.1054688.0112305.3815918-.3291016-.0437012-.6965332-.1577148-1.0229492-.3898926-1.1176758-1.2558594-1.9090576-1.9748535-2.8050537-.7451172-.9285889-1.4663086-1.8964844-.7902832-3.2960205.9709473,1.8984375,2.6105957,3.3010254,3.6018066,5.1557617.614502,1.1501465,1.0371094,2.3691406,1.2233887,3.6650391.1025391.7119141.0031738,1.5606689.3625488,2.1049805.7216797,1.0930176.052002,1.1882324-.717041,1.4754639-4.5473633,1.6986084-7.1242676,4.9550781-7.8249512,9.7816162-.378418,2.6070557.0717773,5.1723633.0891113,7.756958.0290527,4.34375-1.4274902,7.6712646-5.5710449,9.8648682-6.5830078,3.4851074-10.2824707,9.2219238-11.3022461,16.5751953-.6611328,4.7666016.4846191,8.8046875,5.3681641,10.9294434.3500977.1523438.7939453.3557129.7971191.7623291.0163574,2.1617432,1.1137695,3.9488525,2.0939941,5.7164307,2.1230469,3.8287354,4.434082,7.5490723,8.6743164,9.465332.220459.0997314.4641113.2314453.4072266.5030518-.0532227.2530518-.3071289.3822021-.5576172.3699951-.8674316-.0428467-1.2495117.6011963-1.6921387,1.1606445-1.5961914,2.0183105-2.8000488,4.2419434-3.4074707,6.7531738-.4958496,2.0493164-1.0749512,4.0939941-1.3571777,6.1760254-.3835449,2.8294678-1.5615234,4.979126-3.9616699,6.6520996-2.3017578,1.6044922-2.5993652,4.2512207-.8618164,6.4248047,1.3574219,1.6977539,1.9897461,3.5603027,2.171875,5.6674805.0952148,1.1005859.3193359,2.1982422,1.1181641,3.0507812.625.6669922,1.2670898,1.2956543,1.453125,2.2607422.1025391.5332031.581543.7854004.9262695.2988281,1.2636719-1.7841797.972168-.1044922,1.1040039.4863281.1118164.5003662.2434082.9411621.8071289,1.0596924.4970703.1046143.7973633-.1094971,1.0021973-.5860596.1271973-.2958984.1254883-.9035645.6894531-.6854248.4152832.1606445.3425293.6428223.3164062,1.0255127-.0292969.4300537-.1218262.859375-.1123047,1.2874756.0183105.8216553.5041504,1.2078857,1.2980957,1.2154541.7541504.0070801,1.3586426-.2790527,1.4272461-1.0966797.046875-.5611572-.001709-1.1636963-.1611328-1.7021484-.416748-1.4063721-.4489746-2.8186035-.3708496-4.2697754.1291504-2.3952637.2924805-4.802002.1870117-7.192627-.0983887-2.227417.5305176-4.1113281,1.7321777-5.9313965,3.4633789-5.2446289,6.7229004-10.6118164,9.6723633-16.1682129,1.425293-2.6848145,2.048584-5.4794922,1.5439453-8.4692383-.3745117-2.2199707-.8132324-4.4365234-1.3710938-6.6168213-1.8676758-7.3005371-4.9882812-13.803833-11.7163086-17.9508057-.4570312-.2817383-1.0180664-.576416-1.0751953-1.256958.4375-.2718506.8352051-.0870361,1.2353516.0543213,2.8491211,1.0073242,5.4204102,2.4367676,7.3564453,4.8344727.6328125.7841797,1.293457,1.5471191,1.9018555,2.3496094.3508301.4626465.7011719.5700684,1.2236328.2955322,4.9436035-2.5960693,9.3195801-5.8804932,11.6713867-11.0953369,1.5698242-3.4813232,2.6191406-7.1962891,3.9367676-10.7937012.3276367-.8945312-.032959-.9492188-.7807617-.9002686-1.4350586.0939941-2.8776855.1750488-4.3137207.1361084-4.3251953-.1174316-8.0407715-1.6051025-10.9077148-4.9707031-1.1196289-1.3144531-2.3139648-2.565918-3.4816895-3.8391113-.4262695-.4648438-.935791-.7841797-1.5422363-1.0124512-.5690918-.2143555-1.7260742-.1503906-1.5275879-.859375.2121582-.7583008,1.2749023-.3237305,1.9343262-.1744385.9333496.2113037,1.8291016.5996094,2.6115723,1.1678467,1.2026367.8730469,2.3969727,1.7601318,3.5559082,2.6896973,2.9025879,2.3278809,6.1186523,4.0987549,9.8466797,4.3864746,7.487793.5778809,14.4428711-.9953613,20.2011719-6.1269531,1.5219727-1.3562012,2.8513184-1.8349609,4.8537598-1.1557617,1.8911133.6414795,3.9621582.6795654,5.9846191.6804199ZM128.2088868,76.8174194c-.2424316.9042969-1.9746094,1.6722412-3.3061523,1.5893555-2.1494141-.1337891-3.9873047-1.7380371-4.3054199-3.7583008-.2290039-1.4536133.503418-2.7803955,1.8579102-3.3653564,1.2207031-.5272217,2.3127441-.0775146,2.9157715,1.1990967.2783203.5888672.3774414,1.2600098,1.0759277,1.6136475,1.0930176.5531006,2.1628418,1.225708,1.7619629,2.7215576ZM125.6791017,74.9162963c-.6367188-.3947754-1.0788574-.9042969-1.2575684-1.65271-.1379395-.5775146-.3947754-1.0811768-1.1210938-1.0928955-.6835938-.0109863-1.0349121.4587402-1.3100586.9545898-.9777832,1.7619629.6914062,4.0385742,3.0581055,4.0689697.6635742-.0657959,1.6342773-.0164795,1.8962402-.8112793.2797852-.8483887-.6845703-1.1065674-1.265625-1.4666748Z"/>
  </g>
</svg>