<?xml version="1.0" encoding="UTF-8"?>
<svg id="Layer_2" xmlns="http://www.w3.org/2000/svg" viewBox="0 0 125.5507288 146.7258769">
  <g id="Layer_1-2" data-name="Layer_1">
    <path d="M33.5049103,70.5699669c-.6938536,1.2445385-1.984137,1.7372537-3.1139431,2.4028357-2.6338276,1.55165-5.5255931,2.4973976-8.4506728,3.3640815,1.8757821,3.7522409,6.7801483,5.5855286,11.1247867,4.221567,2.7817601-.8733037,5.0721675-2.5268397,7.1603849-4.496786.6154665-.5806115,1.1810461-1.2140999,1.9988215-2.0607778-.3413264,1.5161733-1.1410251,2.3903731-1.9016811,3.2531618-.7563768.857961-1.5905007,1.6560047-2.450455,2.412162-1.5843106,1.3930562-1.6025975,1.3722456.1333212,2.5106283,2.9050326,1.9050642,6.4594267,1.6481138,9.4782775-.6643385.4531787-.3471234.7995981-.8840565,1.7181255-.9612458-1.2248252,2.2211088-3.0302802,3.4526179-5.1887378,4.0769993-3.0895391.8936937-5.8498943.1069971-8.0396867-2.264897-.589755-.638819-.9941898-.6778068-1.7601033-.4004208-5.1322402,1.8587707-10.7337562-.0528494-13.570039-4.6334263-.4075984-.658258-.8637351-.7922833-1.5581602-.8527675-5.3260136-.4638675-9.5523489-3.8830568-10.8207062-8.6961344-.0127094-.0482319-.0461426-.0977439-.0406154-.1430865.35538-2.9147888-1.6294611-4.2195189-3.6570846-5.6785545-3.265405-2.349712-4.8417927-5.5076444-3.7357049-9.6335522.3724006-1.3890971.9870716-2.6993042,2.1702802-3.4881678,1.2598813-.8399666.8685949-1.3718616.0586829-2.2096612-1.3283295-1.374056-2.3654068-2.9586409-2.8414488-4.8530346-.7746821-3.0827912.5341809-5.6080673,3.5435773-6.5720379,1.0486484-.3358861.6098936-.7458984.2828081-1.2516705-1.7204937-2.6604169-3.1217059-5.4682543-3.6388525-8.622159C-.0122527,22.7773494.0125445,20.2460065,1.4439576,17.9375179c1.6655779-2.6861284,4.1496855-3.2107818,6.7545328-1.4172865,2.0754531,1.4289947,3.4467203,3.4636358,4.595458,5.632389,1.4462805,2.730488,2.8023924,5.5105292,4.1355359,8.2987812,3.2288447,6.7530699,8.7954189,10.0455487,16.0106601,11.0151425,1.3566103.1823212,1.2406891-.8199058,1.5392149-1.5177643.4341786-1.0149455-.4927609-.7394431-.9011274-.852676-1.9922565-.5523947-3.3998325-1.7381589-3.842286-3.7802382-.4206736-1.9415558.0684573-3.6783341,1.7448154-4.9137017.4658242-.343274.4611519-.5748511.1777677-1.0756857-4.1795252-7.3865353-1.56745-17.6136691,5.5795397-21.9413829.3827373-.2317554.7884887-.5979659,1.1868523-.602405,2.0106349-.022429,2.6879754-1.3892205,3.4813467-2.9302641.8936754-1.7358685,2.6107769-2.5629747,4.5457037-2.7758854,1.1912869-.1310856,2.4012264-.1340024,3.577774.1464558,3.1382465.7480608,6.2511015.8833936,9.4788993.367518,2.8733687-.4592363,5.5238741.5765701,7.7193995,2.5218153,1.3731417,1.2166235,2.0243775,2.8161808,2.0348925,4.680017.6558624.1145862.8246787-.477761,1.1655388-.7625121,1.0818302-.9037196,2.2545649-1.2836407,3.6013916-.7135213,1.3191951.5584294,1.9821346,1.6160385,2.1249468,3.0156414.0301827.295705.0802067.6225847-.0091069.891929-.6068991,1.8302064-.7053744,3.3070124,1.4198832,4.4377511,1.1781294.6268182.8085404,1.7750392-.8581713,3.5833195,1.2047369.5015386,2.3988308.9914605,3.0361137,2.2138626.7816951,1.4994407.6607542,3.0130675-.0266716,4.4684732-.5943268,1.2583178-1.2232616,2.5330984-2.0554105,3.6356751-.6415712.8500519-.721403,1.4971731-.2295473,2.3983371.445297.8158461.5962926,2.3380449,1.1138872,2.4495772.9367596.2018151,1.7776131-.8775372,2.5961382-1.4919339,6.3808567-4.7896337,10.0222237-11.2320855,11.3848503-19.0335066.59995-3.4348384.9721083-6.9223753,2.2142604-10.2152839,1.0538968-2.7938295,3.3700431-4.1843804,5.7863745-3.4960083,1.6832705.4795394,2.6182563,1.7663849,3.2930457,3.2577199,1.1302815,2.4980743,1.4512362,5.1778616,1.565987,7.8775681.0355499.8364463.2906532,1.0727004,1.1181572,1.1251794,2.7661979.1754178,4.2541727,1.5629377,4.9063046,4.3786567.445105,1.9217693.3390223,3.8688752.3319269,5.814509-.0016824.4583631-.2025466.9695664.4230692,1.2942837,3.9826294,2.0671645,4.3043156,5.6595543,3.5314531,9.4080647-.5008254,2.4291598-1.4815012,4.5008092.585549,6.88288,1.3702432,1.5790714.6707298,3.9309046-.1480697,5.8740514-.9375916,2.2251137-2.310651,4.1967333-3.8232766,6.0568755-.6896751.8481317-.9527881,1.4963502-.0873569,2.4013819.4928158.5153727.7397265,1.2658611,1.1098184,1.9328969.9469728-.4563515,1.1185595-1.4146989,1.5366181-2.1751171.6030131-1.0967798,1.4450187-1.4707484,2.61416-1.061431,2.5479246.8920113,4.9993487,2.0026892,7.3061595,3.4058398,1.0199379.620404,1.0184566,1.2608414-.0375797,1.8838055-1.1231861.6625738-2.1733341,1.4090025-3.1917907,2.2154947-2.8131589,2.2277104-3.6275877,2.277707-6.7414576.4274124-.6102364,1.5262494-1.147325,3.0909929-2.3076885,4.3092531-.2309462.242467-.2456307.533614-.2121472.8368121.5521387,4.9985167-1.7691371,8.8460693-4.9237869,12.3757759-2.3134489,2.5885399-4.1306442,5.5029355-5.4688943,8.7042721-.7545298,1.8049795-1.2580252,3.6801079-1.2619569,5.6601852-.0013075.6548018.0589938,1.3001949.3201593,1.90639.3651452.8475283.7910398,1.3459855,1.7951137.6291543.9484358-.6771211,1.6968121-.2624913,1.7783354.9139008.0841201,1.2135878-.3753768,2.1274338-1.5950816,2.5723742-2.025173.7387482-4.1205497-.1214438-4.9941278-2.0823198-.1212975-.2722748-.2546096-.554772-.2958284-.8448401-.9936961-6.9928396-5.0252888-12.7447431-7.7608652-19.0252409-.1823212-.4185889-.3677785-.8219722-.9474483-.7861389-1.8040469.1115506-3.5350099-.3542462-5.4415461-.8177205.4313532,2.7754328,1.1866237,5.3814094.6828815,8.0961021-.4918374,2.6506059-1.9271274,4.8632205-3.3282024,7.303901,1.3121821.0423526,2.4489829-.0037854,3.5580423.2698152,4.117761,1.0158873,6.7983027,3.6226045,8.2603191,7.5200531.661952,1.7646293.3919539,3.5838818-.2857797,5.2731505-1.8549395,4.6234873-3.5266344,9.3249778-5.7188133,13.8084326-1.3261899,2.7123428-3.4600058,4.7398931-5.7357836,6.6314249-2.5315303,2.1040996-5.272163,3.9504443-7.6112228,6.2943227-1.5480292,1.5511929-2.6527821,3.2671331-2.4255481,5.5511217.2828995,2.8435518-1.2193939,5.0031158-2.9029205,6.9333795-.7002084.8028166-1.5929695,1.7706366-2.8117416,2.060028-.419485.0995726-.6638264.3876108-.9355252.6924547-.9760034,1.0951156-2.109156,1.0087462-2.9276719-.2162618-.6358565-.9515994-.7686474-2.0575958-.7744352-3.1547596-.0060438-1.1447465.0865523-2.2939916.2026837-3.4344772.1828149-1.7954154-.0603927-3.4449739-1.1342406-4.9777335-1.1146461-1.5910036-1.126999-3.342768-.4416305-5.1437061.4326882-1.1369562.933285-2.2943939,1.8351713-3.0512553,2.2449459-1.8839427,3.2902844-4.3640774,4.1444783-7.0572006.7859469-2.4779586,2.1436909-4.7167235,3.5539278-6.8979942.3854712-.5962286.4702679-.9722089-.1924979-1.4496636-1.1735119-.8453704-1.9167495-2.0421616-2.2177623-3.451411-.1690448-.7913689-.3958673-.9624253-1.176959-.6071642-1.8848845.8573118-3.8435203,1.0860087-5.788953.182504-.8722248-.4050748-1.0457408.3499762-1.3718525.755179-3.1755245,3.9457994-6.7097023,7.5328449-10.7338157,10.6087876-2.3756704,1.8159151-4.77825,3.6694466-7.8857287,4.0647196-5.6977375.7247678-11.1826604-2.7364267-13.6902667-8.5851324-1.1334863-2.64373-1.5026135-5.4573095-1.8275822-8.4351792-1.6061864.8381653-2.9854268,1.9042961-4.5902462,2.5579824-1.3611454.5544246-2.3170103.5706086-3.5428367-.6746249-.8947681-.9089176-1.7325951-1.941565-2.6304354-2.8551092-.8616412-.876696-1.145414-2.34493-1.6017335-3.5832143-.1534643-.4164585.216975-.8052762.6204543-.8947269,1.0981238-.2434545,1.5935043-1.071114,2.1148661-1.9345793,1.0406113-1.7234653,2.6755722-2.6507888,4.5509429-3.1795933,2.2357201-.630407,4.033618-1.7963481,5.4568158-3.6924699,1.6348055-2.1780613,3.6608289-2.8257129,5.7500337-2.153511,2.1581468.694384,3.6792301,2.8256306,3.8411979,5.3909552.0374152.5925895-.1755276,1.4087007.1340984,1.7328923.6325008.662208,1.5418025,1.0600321,2.3370117,1.5668831.4329808.2759871.6403368-.1032391.8707344-.3268614.7920273-.768812,1.6316921-1.4746893,2.6164367-1.9808271.4699936-.2415527.5795966-.6028759.5899928-1.0935155.0594418-2.8057618,1.354169-5.0524175,3.2210133-7.0391696,1.4414984-1.5340945,3.1026509-2.8181238,4.7040598-4.1698972,1.4552594-1.2284186,2.7391972-2.611865,3.9593135-4.0739454.7591747-.9097223.7547401-1.4177985-.2199375-2.2377226-3.3496988-2.8178586-5.8362888-6.2848592-7.0888279-10.5252161-1.4700993-4.976874-.6506598-9.3336367,3.8320361-12.4557906,1.3056445-.9093657.9862167-1.4583956.0211123-2.2747994-1.5654841-1.3242698-3.5011515-1.8724036-5.3099622-2.6945495-.509466-.231568-1.4492978-.3611221-.6573071-1.3003504,3.1715836-.0590029,5.5835445,1.4562652,7.6651329,3.6778403.2979497.317974.4753151.9858875,1.1527928.5570579.7291658-.4615359,1.6072973-.6937805,2.2895113-1.4192615-2.128467-1.085579-4.0794132-2.2617151-5.6648118-3.9518707-.1625987-.1733423-.4013443-.4687867-.6109222-.2831738-1.3454918,1.19168-2.9848553,1.0786482-4.5980136,1.1268893-.0692254.0020756-.1320503.2182825-.1978468.3347431-1.1070845-.0203351-2.0727009.6250215-3.2035036.6055915-2.4890679-.0427824-4.2474065-1.1042957-5.0744442-3.4170589-.2965873-.8293601-.6518942-1.1607019-1.5374228-1.2476107-8.831746-.8667113-14.7671091-5.6801912-18.3703797-13.6166388-1.0502485-2.3132386-1.9726391-4.6859328-3.261935-6.8866562-1.0449133-1.7835838-2.2867317-3.3865653-4.0162774-4.5684024-1.9904826-1.3601397-3.9285273-.9521938-5.1414934,1.1896913-1.1762641,2.0770852-1.0649513,4.3428508-.5870348,6.5619115,1.826901,8.4826385,7.4170563,13.6164879,15.1322955,16.8269314.6210029.2584041,1.3463193.2944661,2.0434463.9769452-3.5239965-.4584728-6.3359302-2.0143746-9.0306215-3.8217131-1.2858488-.8624321-2.4780866-1.8654363-3.5121923-3.0187502-.6366063-.710001-1.2582309-.7808631-2.1166171-.4733767-2.4529466.8786618-3.4348567,2.6152663-2.8148093,5.1472812.6607222,2.6981246,2.3622112,4.6902805,4.4218963,6.4174764,3.1260765,2.6214565,6.7295482,4.2315974,10.7340443,4.968014.5770776.1061193,1.1480839.2452741,1.702161.4484973-3.6530386.2442683-6.9391901-.897982-10.0464539-2.6841534-.7773154-.4468149-1.615211-.8591313-2.2478673-1.470785-1.0572707-1.0221872-1.684162-.4776833-2.3879089.3799942-2.0681977,2.5205855-2.1195521,5.9267819-.1453038,8.8974557,2.8219275,4.2461721,10.1519149,8.6862868,17.0144552,7.0862677.2867901-.0668572.5847627-.0857476.9433886-.1362563-1.4412744,1.3038066-3.617187,1.7206857-6.2621377,1.3761042-2.1967414-.2862003-4.218664-1.1100744-6.2749934-1.9113183-.2044896,5.5930812,5.7446436,10.9869257,11.2764131,10.3502737,4.2317117-.4870279,8.0975147-2.0226311,11.8451656-3.9454519.5181981-.2658652.9570215-.7392328,1.6107535-.7010679l-.0253275-.0232062ZM72.3538565,10.5932484c1.2456998.0217661,1.8338547.9284161,2.3664172,1.9229214.4503808-.6762707.4814687-1.3264413.4869182-1.9689131.0165314-1.945835-1.7748883-3.3079085-3.5164943-2.6561149-.5923518.2216885-1.3009996.4817704-1.3732423,1.2118094-.0849522.8585324.7496381.9138048,1.3057999,1.1743577.2572978.1205432.6054818.0401171.7822529.3560566-1.2603659.3308114-2.0908416-.6256981-3.1041687-1.1523813.0078451,1.5640577.0983657,1.6045223,4.0385509,1.8798784-.3754316-.292267-.6807327-.5299429-.9860338-.7676142ZM90.0880185,56.5362388c.3987475,1.3861346.6886784,2.7049731,2.7154698,2.5732154,3.5741166-.232336,7.1706438-.0350653,10.7395395-.5095575.6697423-.0890484.9712031-.3653555,1.0578285-.9996942.0588109-.4307406.4145109-.9280732.0441082-1.2690614-.4388326-.4039685-.9236021.0450317-1.3781249.1897091-.2241435.0713466-.4462205.1492309-.6692302.2241618.3638011-.7964893.9781521-1.2892776,1.5327047-1.8420381,2.396673-2.388901,2.833494-5.2935953,1.2826669-8.3357346-.2807783-.5508038-.5107736-1.090041-1.3334864-.684829-4.9817841,2.4536643-9.8913255,4.9925368-13.0854752,9.8283634-.2352528.3561572-.4258763.8116401-.9541596.8675525.8126458-1.9290384,2.1683418-3.4445716,3.6971605-4.8218096,2.688204-2.4216347,5.809791-4.1985803,8.9372116-5.9629901,1.9119949-1.0787031,1.9599799-1.1136586.3849226-2.6139588-4.2641117-4.0617388-8.5460623-8.0982142-10.3295637-14.0206621-.1775666.1402885-.3003727.186454-.3234783.262793-2.1625539,7.1470354-4.5094132,14.238524-6.4678479,21.4473602-.1587584.5843969-.1491577,1.0161159.3705947,1.4415259,1.4767009,1.2086686,2.6321452,2.716183,3.7791593,4.2256541ZM61.0163054,18.1079526l-.0196311-.008028c2.2373934-.9195424,2.8138629-3.2551277,1.2219175-5.0090317-.905306-.9974129-2.1040356-1.4780907-3.3673549-1.8349107-1.484546-.4192975-2.984709-.795607-4.4411479-1.2977079-.9470094-.3264683-1.7987802-.8799465-2.3169235-1.8241626,1.8024193.9995067,3.7204673,1.5717611,5.7333149,1.4880662,2.4876141-.1034357,4.7913709-.0387775,7.2492687.945647,3.6319583,1.4546468,7.0948352,2.7987076,8.7263536,6.7458236.4063915-.4937301-.26464-1.0287796.2431162-1.4539976.6059847.403013.6546829,1.0859447.9155101,1.6547657.194546.4243036.2968799,1.0379003,1.0271887.7621418.6327568-.2389148.9922514-.6915312.9122093-1.3749521-.0743366-.634613-.4452788-1.1974221-1.0218123-1.3828201-.988978-.3180334-1.5517872-1.0469843-2.1094668-1.8105525-.7768491-1.0636392-1.8053544-1.7530582-3.1039035-1.8823152-1.4082161-.1401788-2.0671233-.9030201-2.0639963-2.2325245.0021121-.8937714-.4746934-1.1636552-1.2162669-1.4018477-3.0781372-.9886534-5.8664806-3.077488-9.4064646-2.2839932,2.2179452-1.0239382,4.1033143-.7980574,6.8332217.6845181.9809592.5327591,1.9260027,1.1730867,3.3102629,1.0182372-1.7174672-2.8604719-4.0703154-4.5367019-7.2686438-4.3812123-4.5426589.2208518-9.0129745.3297873-13.5108943-.7337787-2.6163361-.6186576-4.6367728.9937921-5.390498,3.5936105-.3336002,1.1507126-.1989257,2.2163314-2.2163817,2.0894929-2.1124933-.1328092-3.855928,1.5451124-5.162688,3.2262754-2.8231619,3.6320269-4.1039817,7.824001-3.9906025,12.4077781.0293323,1.1860842.2294924,2.4136341,1.0634975,3.5959467.0816056-1.5372125-.0585-2.9462378,1.1285991-4.2701235.1921504,1.6212686-.1790935,3.0105622.1993098,4.3571329.3792993,1.3497709.0172903,2.4285197-1.0285602,3.4245291-2.1117801,2.0111561-1.7132703,4.6967815.8452515,6.064044,2.1161324,1.1308392,4.2392871.9787099,6.2707965-.2239058,1.1455877-.6781634,2.2225078-1.4723394,3.3303603-2.2142512-.3540633.7297235-.8375619,1.2909143-1.3609169,1.812084-1.0441864,1.039825-2.4001292,1.5906562-3.6566091,2.3024859-2.0111103,1.1393518-2.5010002,3.3248285-1.2582263,5.3942926,1.0836314,1.8044492,4.0089443,2.6134559,5.7441773,1.5108244-1.2601739-.3326035-2.5408292.0147119-3.7042741-.4826665-1.2924778-.5525227-1.8036263-1.7296372-1.2223199-2.8843775.844456,1.955207,1.9709613,2.7060612,3.7229543,2.3980628-.4862233-.8632185-1.3105819-1.6655688-.6088101-2.8389892.5347021.5430318.9965123,1.0510349,1.5002453,1.5133662.5805475.5328459,1.226023.357227,1.4772586-.2537501.2668527-.6489317.8174187-1.4301788.7416832-1.9276486-.2022357-1.3282289.4956319-2.0216436,1.3566743-2.7275575-2.0791562-1.2878147-2.1980398-3.9180215-.2731343-5.5041242.1835921,1.0826805-.5450159,1.9199406-.6698246,2.8921403-.1516356,1.1813479.2805588,1.6027621,1.4336076,1.2908869,1.1787146-.3188152,2.1983598-.9547082,3.0599965-1.8061407,1.0420377-1.029694,1.0789957-2.2551683.0198688-3.3019972-.7392419-.7306653-1.6350386-1.3021425-2.4554016-1.9516868-1.7218469-1.3632942-2.0308237-2.7186975-1.0843629-4.7237686l-.0514504.0448762c1.131397-.9077656,2.5167361-1.1718661,3.8735201-1.4477389,2.126556-.4323864,3.3798632-1.732522,4.0394104-3.7288473.5107187-1.5458851.1060462-3.0325157-.3673122-4.6693054.5760581.316095,1.0435738.7996987,1.3973811.7273325,1.5051645-.3078521,2.1243159.8865161,3.1352657,1.4998339.9347571.567102,2.1330022,1.8588804,3.4135661.3291107.0423161-.0505543.2770477.059963.4220909.0954077ZM58.5513306,67.5325274c.6294195-.7018999,1.3096127-.9202281,1.9496569-1.152235,1.0155216-.3681169,1.2267453-.8881711.7746638-1.9041407-.939082-2.1104269-1.9812386-4.1348319-3.6012179-5.8178373-.3917711-.4070041-.9054065-.7878213-.7194463-1.6234447.855858.2781449,1.4386365.7991135,1.9902175,1.3544798,1.6359987,1.6471995,2.8908694,3.5567439,3.8404024,5.6692647.2089287.4648184.3297142.98522,1.0328211.5476675,3.1340679-1.9503336,6.6396266-1.8978774,10.14663-1.88664,3.4855619.0111733,3.9238733-.3147646,5.0032256-3.6354694.3815852-1.1740057.9645192-2.1985153,2.2726141-2.2717272,1.3113683-.0733948,1.8130532-.7624115,2.0876688-1.8814282.1416966-.5774387.3474617-1.1508269.6092032-1.6843769.3897229-.7943954.1422453-1.2199517-.578856-1.6895338-2.6924191-1.7533188-5.6837571-2.5935414-8.7927445-3.2041619-.9547357-.1875055-1.511245-.0528677-2.1929652.656347-2.4516802,2.5505762-5.6193596,3.4194636-8.4285319,2.4588853q6.2987299-1.4939546,7.551589-3.0592376c-1.6387783.2804582-3.1621384,1.0269601-5.1931815.4436055.6127783-.1108648.8434045-.1498709,1.0729427-.1945003,7.723194-1.5013334,13.9926007-9.9787555,7.575673-18.4412737-1.1316896-1.4924459-1.6117868-3.1653569-1.5985927-5.031863.0144467-2.0428748.1050953-4.0904082-.2849111-6.1216571-.6491603-3.3810107-4.5087914-7.132104-7.724849-7.4401162,0,.2965599-.0260681.5940662.004014.88578.3201593,3.1041915-1.0801477,5.292905-3.6821012,6.7874539-1.8913398,1.0863653-3.269739.883293-4.9266397-.5370474-.5915563-.507107-1.0275727-1.2288072-1.8548755-1.4444609-.4799509.5752306-.333207,1.2564799-.3972389,1.8867177-.3806434,3.7463342-1.797235,5.4451944-5.396679,6.437112-.5764421.1588544-1.1685927.2692072-1.7328008.4623542-1.4304805.489675-1.639839,1.202099-.570508,2.2698391.8790459.8777383,1.9292761,1.5816681,2.8367674,2.4338321,1.6912711,1.58816,1.7367508,3.7329115.1466524,5.4213024-.4319018.4586008-.9394203.8460013-1.4163721,1.2697563,2.1768178,1.7238219,2.3736131,3.2538933.5815167,5.3156037-.5096581.5863354-.4949005.8970311-.0254738,1.464988,2.0773823,2.5133805,4.5740302,4.4364573,7.6124664,5.6437087.5708006.2267951,1.1301078.4824928,1.6947273.7248501-4.1359382-.6340186-6.6374596,2.2731902-9.5523032,4.2191531-.2060577.1375546-.3767757.3269894-.570508.4842117-2.003567,1.6261512-2.9390921,3.776846-2.8641887,6.3062916.173388,5.8557736,3.1018737,10.2883083,7.4427724,13.9274351,2.3074417,1.9344239,5.0213937,2.9088912,8.0176143,2.8051217,7.6545904-.2651063,14.381647-2.3757344,18.3587172-9.6663225.0949917-.1741377.227234-.3276021.3364347-.4944067.2167007-.3310492.5243974-.5274513.8828953-.3099185,2.4033386,1.4584139,4.6038563.1310445,6.8639255-.4600546,1.1800312-.3086293,1.8873715-.7615612.8018474-1.9743352-.0226393-.0253.0617185-.1463873.105845-.2442774.6802664-.0693808,1.1799398.4694084,1.8108588.5686518.39317.0618283.8788264.1647382,1.0725861-.2462342.2296204-.4870554-.273244-.7175993-.6038726-.868668-.6303978-.2880473-1.3116152-.4625965-1.9558197-.7235517-.3765472-.1525225-1.0563472-.1382587-.8913164-.7553985.1422544-.5319682.7428079-.3765746,1.1783031-.3413081.595552.0482228,1.1867243.1613003,1.7825597.1915195.4261872.0216152.8432308-.1428487.8395003-.6405745-.0032734-.4374702-.4294514-.4955405-.7731368-.5407642-.8906581-.1172012-1.7888778-.1851648-2.6738213-.3338288-.370485-.0622306-.8618561-.1980571-.7508084-.7307293.0824377-.395401.4948639-.4093357.8564249-.4489453.6473499-.0709169,1.2989789.3719663,2.0073066.1039615-.1863717-.6596844-.6611382-.8114755-1.0639546-.8868544-1.276431-.2388462-2.4764499-.4641509-3.4726147-1.5021929-.3928226-.4093357-1.4221325-.8404238-2.0467425.1883284-.3455233.5690633-.7014244.1179784-.9430046-.1552473-.875169-.9898649-1.4865301-.4700393-1.9843565.3559743-.3053468.506659-.5869571,1.0698156-.6998609,1.6429386-.4717583,2.3947163-2.0790465,3.3850658-4.3231969,3.6233726-2.0826307.2211444-4.1673644.4233527-6.252409.6208337-2.6598683.2519123-4.8427848,1.7799355-7.2557697,2.6919711-1.0069358.3806069-2.0002936.8683205-3.3453739.4814504ZM14.7409949,99.845717c-.2623358.0742543-.3100191.0982742-.3584522.0999018-.7644871.0256475-1.9219842-.2948501-1.9601491.769324-.0419138,1.1687847,1.1119351.5225047,1.7592621.6487762.3525501.0687682.926816-.0999292.9644186.4424168.0259309.3738955-.4414156.4759369-.779807.570252-.1441197.0401673-.2945666.0664457-.4303566.1259333-.3386428.1483348-.9070752.1593344-.7071848.7357582.1738726.5014106.6444514.5738271,1.1248.4260226.2852814-.0877866.5562121-.2230371.8424399-.3066726.409898-.1197888.9313466-.4405059,1.1916983.0838641.2384668.4802983-.2658104.7687388-.5819785,1.0884866-.2463027.2490686-1.0805729.2415344-.5610262.8870647.3995796.4964549.8844222.2350608,1.3098596-.1062839.2472399-.1983588.464727-.6986723.8340873-.4010517.4300457.3465382-.0226256.7028051-.1848173,1.0392306-.1400005.2903972-.5856587.502965-.3168356.901676.2730566.4049651.6972002.2801199,1.0936847.2095688.9353972-.1664481,1.4978817-.9723734,2.2682801-1.3514991,2.2895204-1.1267338,3.8095614-2.6369273,3.5893953-5.397694-.0289391-.3628502.0992663-.9580456.5645327-.9231723.6437839.0482502.3823213.6969441.4129199,1.0905622.0540289.6949966.0170343,1.3967502.0273802,2.0955322.0611745,4.1316499.606195,8.1593018,2.6221148,11.8562155,3.286755,6.0273877,9.7936273,7.9347195,15.6786783,4.4898918,5.7616231-3.3725575,10.4387461-7.9757189,14.5662724-13.1828077,2.3704677-2.9904786,3.2850635-6.3204183,2.7179752-10.0866853-.0630169-.4185341-.4095277-.9607521.2055548-1.3224411.1174938.1288226.2395594.226091.3127439.3518323.0993714.1707364.1739274.3589917.2374564.5470641,1.0699528,3.1674416.7842005,6.1794988-1.007713,9.0338308-.2459598.3917985-.7979614.8055779-.44612,1.3003687.3088579.434334.9189755.2733355,1.409167.2290261,2.6467748-.2393948,4.6952729-1.6589489,6.4260621-3.5083932,4.0580357-4.3362446,8.0320428-8.7510684,12.0470949-13.1276267,3.2002576-3.4884055,4.1616497-7.4842746,2.8822654-12.0605907-.5955977-2.1303963-.885108-4.3131025-.0986674-6.4798258.1519922-.4187626.1054701-.6788675-.3360964-.7815488-1.0699802-.24884-2.1891981-.8535264-2.9047858.6740397-.3109243.6637533-.8632916,1.2177938-1.3243978,1.8072837-5.5995182,7.1584464-13.7554004,9.6209708-22.3642327,6.7466968-.4448947-.148536-.8149134-.3030152-1.178294.1841316-2.0668033,2.7706965-4.9961394,4.5599492-7.6384522,6.6769595-2.1301951,1.7067053-3.9557932,3.637929-4.843498,6.3200068-.3490618,1.0546648-.523675,1.9120315,1.1622288,2.3038666-5.8366454,3.5675516-8.425734,8.6809836-8.3248813,15.4941993-.6854965-.7820609-.7632344-1.3637513-.8138345-1.9385842-.2172401-2.4677362-.0165497-4.869438.9887677-7.1833624.8449589-1.9448109.6295475-2.4701592-1.2154257-3.60696-.4244042-.2614855-.8667662-.4937392-1.2923864-.7533503-.4012071-.2447072-.4477018-.4897984-.2202758-.9741016.8373241-1.7830992.1964479-4.2884791-1.2874672-5.3765999-1.5813389-1.1595589-3.7492784-1.0198739-5.2604822.7288641-2.0063969,2.3217695-4.4161862,3.7887325-7.3284559,4.6315336-1.4969034.4332002-2.8043446,1.290064-3.6649983,2.6881034-.3341991.5428672-.5934764,1.040465.191931,1.590967ZM63.6274572,124.8234605c-1.1359596.9968597-2.020839,2.0486718-2.7288193,3.2477855-1.0096423,1.7100335-1.2122437,3.5030717-.2357374,5.2680759,1.0327662,1.8666798,1.4122941,3.7880742,1.0634883,5.8996715-.1779323,1.0771578-.1979017,2.186903-.2104648,3.2828416-.0102407.8934286.0317279,1.8034617.4914077,2.6160801.2033603.3595037.4858118.6601233.9449887.610401.5125108-.055501.5874874-.481935.6347684-.8819443.0643702-.5445679.0813679-1.0946585.1416601-1.6398115.0824834-.7457795.1794227-1.7908071,1.0761612-1.6264072.6489591.1189385-.0390153.9811878-.0897068,1.5151492-.035495.3739138-.2678036.9135625.26432,1.0143238.6033605.1142936.520548-.4349375.6645305-.8682108.2926465-.8806643.1227148-1.9793459,1.1604642-2.7891298,0,.777288-.0086863,1.3660921.0043706,1.9544024.0050655.2283495.1493406.3640937.3871262.3263494.0803347-.0127643.1480057-.1053147.2214736-.1614009-.7423141-.6996232.7524085-1.2562605.1168172-1.9944326-.2466182-.2864472-.1385879-.7160083.26827-.8603474.5823854-.2066246.4147761.3910853.5930101.6228727.1271585.1653508.0859305.4850072.4032644.4867079.6209343-.5851284-.2972-1.3444586.1809954-1.8342021,1.0900776-1.1164017.8723163-2.4715216.862423-3.8058857-.0107253-1.4464085.4231424-2.7315441,1.3164064-3.8854341,1.3515722-1.7459126,2.9113234-3.2817261,4.5840972-4.7107437,1.2516979-1.0692944,2.5269037-2.1119082,3.7583122-3.2039882,6.6408427-5.8894856,9.419174-13.909459,12.0144344-22.0021688.4225206-1.317531-.2074475-2.6676951-.9498713-3.8227372-1.3276528-2.0655324-3.110112-3.6201083-5.4014519-4.556813-2.2858905-.9344463-4.5531831-.8483969-6.5670364.5649487-3.2874408,2.3071491-6.1607364,5.0688484-8.2907121,8.5196925-1.3475765,2.1832548-1.063406,4.3494753.1633119,6.6065637,1.407887-1.3508407,2.5989178-2.8876052,4.7225205-3.2822564-.1315382.8137888-.6092672,1.0504406-.9537482,1.3880182-4.7185431,4.6240451-7.927679,10.0817386-9.0858756,16.6383698-.1884839,1.0669903-.0780305,2.1859338-.1191854,3.2803911-.0106522.2834299.0382015.6543629-.3493727.7220613-.3615335.0631815-.5331751-.2385902-.606387-.5307064-.1567011-.6252135-.2724028-1.2606859-.4502528-2.1080862ZM96.8771412,29.7774443c.2084441-.9507491.8955316-1.5450301,1.4284232-2.2451562,5.6003502-7.3579116,6.34207-15.5111285,3.7995767-24.1211129-.7819329-2.6480092-3.3572239-3.0526131-5.2501546-1.0154484-.4822093.5189478-.7780377,1.1476587-1.041928,1.8011255-.8105428,2.0071649-1.2003389,4.1137881-1.4718365,6.2430003-.4872291,3.8210273-1.148093,7.5928124-2.7984013,11.1201281-2.5853854,5.5259268-6.4257421,9.9333764-11.6196734,13.1637069-.5665488.3523535-1.4530924.5019958-1.3095579,1.5717748.4651841,3.4669549-.9058546,6.3340238-3.0345136,8.9323564-.5823488.710824-1.165996,1.420569-1.9156889,2.3338206,3.8953822.1070977,7.2255505,1.2318931,10.364949,2.959921.897342.493913.8683846-.2598305,1.0118367-.7079895,1.3216821-4.1290898,2.7120593-8.2390971,3.9083842-12.4046419,1.3583384-4.7296524,3.261071-9.3118294,3.7070812-14.2987065.1898005-2.1221397,2.0061363-3.5266253,3.8666442-3.4681481,1.5886446.0499326,3.1762102,1.4041153,3.2231621,2.8014415.0539009,1.6042662-1.1584434,1.9491586-2.3576668,2.2010846-2.4687694.518637-2.8389801,1.0989148-2.2498834,3.5541929.8778572,3.6588219,3.3702899,6.161477,6.0830076,8.4836031,2.0459927,1.7514261,4.2891282,3.2752708,6.15504,5.2334952.5619588.5897642.9007251.5516907,1.4112609-.0454797,1.6234813-1.8989837,3.2366304-3.8000705,4.4148604-6.0232549,1.0230284-1.9303459,1.6676078-3.9613342,1.4680603-6.1712514-.1467896-1.625438-.5575151-3.150677-2.0511588-4.1319928-.694832-.4564887-1.1339206-.5633441-1.500227.4386543-.9665582,2.6440409-2.3608305,5.0581779-4.2944589,7.1321223-1.2099579,1.2977628-2.5481989,2.4264625-4.1764348,3.1664084.1149885-.238005.2858072-.4037125.4678906-.555979,5.073539-4.2428531,7.5567459-9.6643155,7.374882-16.2813531-.0429195-1.5622062-.3428625-3.0828964-1.2473364-4.4034081-.6047321-.882909-1.4350888-1.3708193-2.5567937-1.1856728-1.0913119.1801359-1.7658088.7189845-1.9926588,1.8899683-.2647223,1.3663938-.6431347,2.718286-1.0731713,4.0437079-1.2892685,3.9735819-3.5080549,7.3391492-6.7435149,9.9890831ZM97.5528541,90.7370467c.9790208-5.065319,3.8340568-8.9995153,6.2155424-13.1595558,1.7268758-3.0165466,3.0510907-6.1532753,3.2998851-9.6667431.0551535-.7787509.374627-1.7107559-.6121931-2.0842765-.9186463-.3476812-1.1384923.6263381-1.5045245,1.135859-3.4154039,4.7540746-7.4250797,8.6215418-13.6027773,9.34054-.5557687.0646719-.6665786.2911653-.423499.7898968,2.1762966,4.4652684,4.3422062,8.9356023,6.6275663,13.6442795ZM96.1167321,61.9018025c-.6972002,0-1.3953878-.022749-2.0912439.0078634-.4764215.0209752-1.3535472-.1997852-1.3560159.1597185-.0068028.9906696-1.2087418,1.6112564-.7989215,2.5673179.4390155,1.0241439-.006629,1.6056058-.7060693,2.1730049-1.0143695.8228591-2.1542882,1.4496087-3.3740388,1.8800293-.7895677.2786112-.8667296.6132264-.4915082,1.2926059.7692326,1.3927911,1.5168408,2.7994345,2.2137758,4.229403.3251973.6672278.7455326.7476814,1.434019.6629029,5.8571908-.721275,9.8550167-4.1609274,13.0243236-8.826868.6474504-.9532087,1.3350591-1.9099011.0190367-2.9323351-.3310492-.257188-.3795828-.8025057-.3463371-1.263173.049192-.6811625-.1645096-.8087416-.8610606-.6429335-2.1854035.5201914-4.4155004.7362063-6.6659598.6924638ZM106.0560791,54.9934122c.7175078.1933665,1.1847218-.1236108,1.6271387-.4270101,2.0145849-1.3815903,2.9320974-3.7849197,2.3515407-6.180596-.8839742-3.6477857-3.2963923-6.1964417-6.1370182-8.4172397-3.9877863-3.1176462-8.0137375-6.1957651-9.769205-11.277963-.0396919.2864929-.0078725.5256317.0618374.7531583,1.2674064,4.1360937,3.8548765,7.3892098,6.9079423,10.3339435,1.5081819,1.454665,3.0808985,2.8459383,4.3594142,4.525332,2.7605838,3.6261796,2.963423,6.7451059.5983499,10.690375ZM111.3332071,51.3172635c2.8910248-1.8404105,5.1397927-6.9544735,4.5169566-9.9940251-.1827052-.8916547-.597911-1.6754254-1.2090801-2.3602727-.4215697-.4723892-.7473705-.6842073-1.2934562-.0736051-1.2584549,1.407128-2.591539,2.7475635-3.8973938,4.1121286-.2757859.2881845-.6384898.5599655-.2988458,1.0069267,1.6150327,2.1252302,2.3475359,4.5381694,2.1818193,7.3088477ZM103.3069795,96.7463304c-2.4770808.3549228-3.2899735-.2716439-3.7371358-2.887852-.1694471-.9913736-.1596087-1.9776909.0282717-2.9713504.676481-3.5777374,2.0363738-6.8564279,4.1976568-9.798007,1.79889-2.448352,3.6145491-4.8855214,5.3579746-7.3730715.9426571-1.3450438,1.7806396-2.7835523,2.166129-4.4011451.570188-2.392531.0044437-3.0289818-2.3241285-2.9402351-.6757221.0257481-.8739164.2434454-.8409267.8635476.2372735,4.4595903-1.678836,8.2123615-3.9058423,11.8634845-1.2700672,2.0822558-2.62729,4.1146156-3.679349,6.3233167-1.43956,3.0222156-2.2710689,6.1591454-1.7818556,9.5435529.1562988,1.0812815.5806115,2.016505,1.499075,2.6496001,1.2358888.8518806,2.5265105.4657876,3.0201309-.8718408ZM124.0446862,57.1441253c-2.0261422-1.115149-3.934626-2.2762166-6.0698135-2.9560625-.6268593-.1995932-1.5003185-.7489523-1.9662158.2615586-.3894029.8445658-.8066751,1.7478327.1049673,2.5985612.79029.7374864.8671502,1.6187175.4170345,2.5957816-.1963656.4262512-.5298286.9211608-.0109173,1.3614655.4314812.366151.9331479.2562463,1.424391.1314194.887723-.2255607,1.6445844-.7046887,2.3709798-1.2364283,1.1653376-.8530235,2.3233056-1.7160865,3.7295742-2.7562955ZM107.4821708,59.1197681c.812783.5401059,1.4539793.2642834,2.0654044.2729423.4615084.0065285,1.1590469-.2790867,1.2370226.3947153.0795301.687124-.6563928.8223105-1.1786871.8593874-.9533916.0676984-1.9150306.0192562-3.0638368.0192562.8153066,1.3463513,2.3152228.9260251,3.1959419,1.799274-1.1752309.8123533-2.2449459.1029923-3.3562455-.0334103,1.0636986,2.3399833,3.0960584,3.2274869,4.7638125,2.1216094,1.3663115-.9059917,2.1286773-2.2460797,2.2317061-3.8646692.0611151-.9601303-.1427664-2.0488547-1.4006179-2.0676171-1.4213736-.021222-2.8872943-.1721353-4.4945001.4985121ZM88.8703984,74.9532183c-.9950859-1.768753-1.9360331-3.4475341-2.8846152-5.1219629-.1829795-.3229846-.4407893-.5772102-.8493935-.4119325-1.4158601.5727481-1.673551,1.8700629-1.9103491,3.1540007-.2127873,1.1537163.4074979,1.7733705,1.4471582,2.0810397,1.2998018.3846574,2.616263.5448696,4.1971996.2988549ZM85.350969,53.1841901c-.5699045.7143991-.7276205,1.5495653-1.0257166,2.31301-.1362654.3490161-.3807623,1.0457499-.0154982,1.0374294,1.5060515-.0343155,2.4058987.986875,3.5123706,1.6786074.2384348.1490572.7657672.1176218.9871036-.0538551.3286627-.2546644-.0255743-.6248386-.1439551-.9258514-.5608525-1.4262105-1.5008762-2.5754282-2.6567869-3.5593681-.1843053-.1568931-.3883788-.2905801-.6575174-.4899721ZM46.6923995,41.8346245c1.0797729-.0045443,2.1605424-.9729495,2.065697-1.9308945-.1151531-1.1630883-.9524132-1.6359164-1.9817414-1.5822624-1.0413885.0542849-1.9725065.5089266-2.0976443,1.7214446-.0931264.9023892.9741747,1.7960921,2.0136888,1.7917123ZM76.3123105,26.3166475c-.1447963.4570967-.5072808.5492402-.8075804.7113908-.2941643.1588407-.7145819.2176059-.4689604.7187651.2183922.4456079.431911.9172382.911871,1.1278859.4327522.1899285.7467487-.0603653,1.0078685-.4023592.9749611-1.2769431.2440214-4.318488-1.2160931-4.99293-.2808605-.129737-.746447-.447144-.827696.0844858-.1181339.7728717-.1493772,1.6010706.0026699,2.3616305.1588133.7944594.9769543-.1447323,1.3979206.391131ZM78.4300156,23.852331c.0895056-1.9043875-.6484928-2.976713-1.9705132-3.6866363-.5117611-.2748213-1.1514852-.7633853-1.6369405-.3978149-.4767689.3590191-.1093744,1.1067782-.0993257,1.6840523.0096647.5553161.3294308.7948892.8534167.7959407,1.10916.0022219,1.9816592.4897801,2.8533628,1.6044582ZM91.788808,60.3979821c4.0304407.1665669,8.107696.9037607,11.9935781-.8288115-3.9747477.6563379-8.0108482.3415002-11.9935781.8288115ZM108.922764,55.712447c-1.8314225.523931-3.7111775.8967659-3.7027106,3.3768001.9858509-.2636159,1.1044054-1.802968,2.3148022-1.6098392,1.5732835.2509979,1.6796772-.5290971,1.3879084-1.7669609ZM94.4895385,22.2615377c.7127075.1933619,1.4305354.3812195,2.1440658.5842278.444145.1263584.929079.2755482,1.1957032-.2248018.2762797-.5184632-.0326148-.974641-.3948616-1.3347893-.8932823-.8881253-1.9844571-.5159808-2.9449074.9753634ZM44.6790124,45.0287468c.7763188-.1416144,1.8822877-.2329304,1.8450737-.9805112-.043459-.8731666-1.2631364-.7291841-1.9636465-.899445-.7424604-.1804559-1.2589852.7226373-1.2619386,1.1689402-.0044895.6780171.9248182.4611519,1.3805114.711016ZM63.9002897,14.2034086c.9149615-1.9785869-.1348847-3.3560398-2.6819041-3.4370648,1.3551107.8842851,2.4578978,1.7851564,2.6819041,3.4370648ZM33.5050109,70.5700584c1.1299432-.4420328,2.3377889-.3855261,3.5115568-.5412305,2.6020632-.345185,4.6983268-1.3863723,5.8586995-2.9439748-.045114-.0138158-.1015659-.0523739-.1336229-.0376803-.3598511.1649577-.7234785.3241275-1.0718637.5113039-2.6588442,1.4285512-5.481238,1.7269307-8.4174317,1.2175652-.9953968-.1726839-1.9109526-.546104-2.7182952-1.1699917-.9103897-.7035274-1.1208546-1.5853346-.7427073-2.6547296.3562486-1.0074296.6803487-1.8235591,2.0772635-1.8958475,2.4559045-.1270945,4.8021877-.8512588,6.9177715-2.1696036.5475304-.3411984,1.155545-.6505044,1.6379097-1.5351643-.790738.2715799-1.2939317.4550989-1.8037634.6177981-3.7769832,1.2054135-7.585932,2.1628557-11.5922338,1.3109111-1.8312351-.3894212-3.3254914-1.3056445-4.3271926-2.9335786-.1876472-.3049536-.3753905-.6473407-.1759802-.9780241.221789-.3677968.6344941-.2199741.9563038-.1584841,2.4450329.467214,4.883967.2074292,7.2919688-.1807028,2.821132-.4547148,5.5075895-1.3307251,7.6686257-3.3989639-6.1195084,2.1490581-12.2857126,3.6309434-18.74684,1.4965697-.1056896.8524932.4792422,1.0739485.9421039,1.2810759.6308276.2822961.8636894.7164015.9613327,1.3700969.297872,1.9940669,1.5056354,3.2921222,3.2723632,4.1647859,1.5383005.7598422,3.210416.9815627,4.8707181,1.2791101-1.4655732,4.1282028-.9972529,5.1262055,3.1712728,6.7078553.3593208.1363477.6399985.2269414.6172678.6640184,0,0-.0253275-.0232062-.0252269-.0231147ZM23.3648545,49.7146933c-3.4075679-.3856906-6.5263022-1.6046365-9.4984801-3.2845514,4.4396392,5.2982677,15.1405429,6.5849943,19.5334315,2.3355487-3.3152644.6517844-6.6191818,1.3356351-10.0349514.9490027ZM45.1024382,25.3017843c.3182574-1.2177298.777544-1.9812706,2.3608671-1.641526,1.6811767.3607563,2.9138653-.542506,3.352323-1.9974682.63678-2.1130557-.7977602-4.8742018-2.9946297-5.678207.9373996,1.0895015,1.9174353,2.091477,2.3023853,3.4879712.5591883,2.0286247-.5886304,3.7083521-2.6612032,3.8699679-1.9494649.1520151-2.5987898-.490699-3.0248946-3.096927-.4031456,1.2745749.6253689,2.4560325-.0142181,3.6480645-.0349098.0650742-.0977165,1.2177755.7307659,1.3636233,0,0-.0514504.0448762-.0513955.0445014ZM59.3882615,34.9801808c.750461-.2321623,1.414196-.6310196,1.3989538-1.5176728-.0170343-.9905964-.8171353-1.2975799-1.6065292-1.4896846-1.7452908-.4247333-4.3182503,1.3116609-4.6451757,3.1001821-.0546415.2988915-.0902188.6097884.2021442.8067026.096537.0650193.3615061.0739068.3811463.0311427.6918329-1.5060972,1.8987369-.7880499,3.0045961-.6511718.398903-.0858848.8423805-.1487737,1.2648645-.2794982ZM72.0682413,28.5068377c.2035158.0543123.4199147.0136512.4872931-.2057559.0333829-.1086886-.0289574-.3000162-.1157108-.3841088-.8425542-.816669-1.8019347-1.4584139-3.0240077-1.3668693-1.1045243.0827349-1.9784132.6379961-2.4594796,1.6806372-.543745,1.1784585-.0427092,2.2628763,1.0845092,2.3936465,1.4153755.1641805,2.6360495-1.0353904,2.4731948-2.5660835.6047503.1759573,1.0770938.3211742,1.5542011.4485338ZM67.2026618,39.2021867c-1.0295203,1.2896616-1.0378683,1.3340807.4247608,1.6860685.2805771.0675155.5303315.2576269.799022.3809177,1.1350544.520804,1.9077066.0884267,2.4175384-.9537847.1942534-.3970926.2986538-.8382476.4940958-1.2346178.1852745-.3757425,1.056585-.4101495.5806481-1.1103213-.3330881-.4900087-.8739895-.3617347-1.3588504-.3465839-1.3669607.0020299-2.4828961.4830597-3.3572147,1.5783216ZM67.6996379,22.0184124c-1.1428995.6616228-1.3901943,1.2018567-.9858875,2.4741229,1.235459-2.5043375,3.3662394-1.9143036,5.7957923-1.4969217-1.6864159-1.7336786-3.1691515-1.9270314-4.8099048-.9772012ZM70.0888498,35.1166473c.2605711-.404956.3575196-.8234717.058052-1.2510304-.1934305-.2761882-.485565-.2193066-.6287794-.0200791-.6974013.9701516-1.7759947,1.1862671-2.809218,1.5188158-.2742955.0882804-.5813064.2962856-.52533.6438479.0735685.4568544.4667842.4348003.8229506.4156081,1.0572067-.0161474,2.6985818-.7107691,3.0823249-1.3071623ZM52.2112538,29.5719627c.6995866-.2271791,1.3342544-.527241,1.9984923-.6237139.7290561-.1058816,1.4853689-.0241114,2.4301107-.0241114-1.5054023-1.450139-3.638377-1.0859264-4.428603.6478253ZM69.2982214,89.2516961c.0104876.3837614.3047616.6778617.709745.5816539.613583-.1457472.854395-.6712052.891161-1.2361814.0285551-.4389697-.2680505-.7186691-.7324209-.8066294-.5294629.3430088-.8860863.817053-.8684851,1.4611569ZM34.7310065,35.2391792c3.7272517.2593825,6.7061455-2.6764637,7.2207593-6.8710026.5262535-4.2894208-1.7160591-7.6244306-3.619002-11.5046849.0467415,1.2387461.4240384,1.999425.7219241,2.7694987.6474779,1.6738893,1.2906766,3.3413965,1.5460634,5.135957.825337,5.7996463-3.1275212,9.8631041-9.0208013,9.0289619,1.121522,1.044287,1.8145528,1.3482623,3.1510565,1.4412698ZM60.9896338,18.0921298c.8097474-3.1810883.3720851-4.738901-1.9790533-5.5341148-3.2010348-1.0826622-6.591029-1.5887497-9.6347683-3.1878042,2.0473826,1.8386733,4.5738108,2.6038736,7.1192483,3.2918937,4.0016112,1.0816198,4.0076277,1.0567861,4.3908678,5.1781954.0085949.092459.085391.1785769.130377.2676528,0,0-.0196311-.008028-.0266716-.0158228ZM59.3611785,7.1710783c2.6010299.8855697,5.262096,1.5790622,7.8594869,2.4735788-2.4260967-1.4541576-5.0152767-2.3813302-7.8594869-2.4735788ZM34.8705818,30.5552717c2.2472958.0834252,3.2525309-1.230613,2.9770468-3.9349644.0406062,2.031226-.9556683,3.3536671-2.9770468,3.9349644Z"/>
  </g>
</svg>