<?xml version="1.0" encoding="UTF-8"?>
<svg id="Layer_2" xmlns="http://www.w3.org/2000/svg" viewBox="0 0 133.084024 150.4257495">
  <g id="Layer_1-2" data-name="Layer_1">
    <path d="M55.0204145,20.0160517c.9297249-3.6826893,4.8458166-6.3455305,9.4840523-6.3493244,4.3944659-.0035899,7.9723559,2.0694186,11.3024194,4.6710492,1.1889596.9288824,2.3096413,1.9451566,3.649205,3.0806648.6643192-3.1442688.3223397-5.9709522-.6933281-8.7604434-.8592147-2.3598033-1.9947283-4.625121-2.4186047-7.1354694-.1589859-.9415624-.1682155-1.8555647.1195453-2.7769024.7318243-2.3430505,2.4265572-3.2377725,4.7317877-2.4855142,1.7501859.571132,2.9996318,1.7823447,4.0921309,3.1894833,1.8870421,2.4304959,2.7887239,5.2512391,3.192016,8.2530817.1159929.8634056.3713211,1.5025901,1.2440798,1.9252646.9857359.4773868,1.4738119,1.4800527,1.9192385,2.4419847.7179369,1.5503964,1.141427,3.1966577,1.42629,4.8726201.5397405,3.175569.7666608,6.3042869,2.4091926,9.3387016,1.8673271,3.4497053.7087502,7.3249291-.4038502,10.9514142-.2360426.7693975-.525821,1.5223212-.9414873,2.71508,3.4412269-2.3910124,7.1626056-3.0469927,10.5880563-4.4496506,3.7871666-1.5507399,6.0724675-4.6824306,7.6467-8.329296,2.1039492-4.8740046,2.3547807-10.1124402,2.836997-15.2978806.1463863-1.5738945.2102855-3.1611182.8911106-4.6307661,1.7233019-3.719962,5.5087406-4.3004041,8.210019-1.2125703,2.5648086,2.9318047,3.1949137,6.5662262,3.5510704,10.2760999.0558071.5816281.066668,1.1732853.0340638,1.756711-.1343663,2.4053559-.1397968,4.2410876,2.2095964,6.3112521,3.2393877,2.854367,3.3166805,7.4281132,2.5150759,11.6850146-.4371843,2.3215111-1.4494178,4.4409575-2.572965,6.5055413-.2426965.4459524-.6676891,1.0072431.3247544,1.0808119,2.2907957.1698253,2.6820894,1.8229283,2.713277,3.6138963.0557642,3.2031023-.6271216,6.2951163-1.877029,9.2302373-2.0803815,4.8852787-4.5707949,9.5058278-8.9081873,12.8415793-.3693357.2840367-.9503306.5584359-.5462442,1.2664349.85724,1.5019623.0841614,2.7173015-.8330498,3.815478-.516924.6189222-1.1976419,1.1178055-1.8585482,1.5961797-1.3389197.9691225-2.3660065,1.944738-2.7441426,3.800453-.5964921,2.9270074-3.3319416,3.4703969-5.799839,4.0642703-2.3342609.5616985-4.6485385-.0461696-7.1349166-.3061449.8239275,1.9054155.9479051,3.704615-.2478587,5.3472864-1.3479991,1.8517977-3.3481257,2.5657101-5.5137954,2.6409209-3.4962399.1214019-6.3856956-1.2062491-8.4950323-4.2088-1.0578773,1.3071419-1.4189171,2.6244363-1.2938662,4.2326683.4536581,5.8342785.1825107,11.6252313-2.16494,17.0889935-2.9434061,6.8509014-7.6356137,11.8427287-15.3651872,12.9495553-6.1425376.8795843-11.7828005-.3807547-16.4165394-5.2064485-.2406252,1.5768404-.3747876,2.994534-.6841522,4.3729051-.6761138,3.0123172-2.1205197,5.6958446-3.8178927,8.2388885-.5350291.8015617-.7273275,1.4781799-.2899716,2.4108668.7466776,1.5923269.4204851,3.1488299-.7327473,4.4121525-1.9383739,2.1234817-3.7141666,4.355959-5.301224,6.7555571-.7207809,1.0898269-1.865288,1.7212628-3.0762378,2.2505287-3.4480204,1.5070494-7.0192886,1.862004-10.7167668,1.3643549-1.078923-.1452058-2.1740194-.293481-2.5897823-1.4612231-.3840387-1.078644.2812893-1.9165232.9514467-2.6743408,2.9852293-3.3756858,5.0562416-7.2849304,6.8500536-11.3872247,1.0285678-2.3522694-.7757939-4.1023157-1.0429811-6.1688742-.0664105-.5137258-.6819091-.1788403-1.0232769.0233961-3.4752264,2.0587455-6.956012,4.1083687-10.4146142,6.1947387-1.0436358.6295685-1.5138857,1.7616371-2.1440713,2.7428762-2.288499,3.5634123-5.3395056,3.6439033-7.5246702.0124922-.8508061-1.4139373-1.8196604-2.0137993-3.3753263-2.2190621-4.4827807-.5915768-7.2633052-3.2534468-8.601361-7.4880254-.3526794-1.1161421-.6993274-2.3323505.3714982-3.2746749.9832192-.8652247,2.2009516-.6401075,3.139069-.0764557,2.2224535,1.3353137,4.3276101.1139109,6.4783622-.0521796.7580536-.0585331,1.5502408-.3897911,2.2587013-.2503378,2.8696173.5648323,4.1477288-1.1695666,5.3730971-3.3060986,3.4358287-5.9906993,7.8276867-11.0964482,13.9856464-14.4706101.6180207-.3386311.8806575-.8034935,1.0321202-1.4991076.66741-3.0651837,2.3546305-5.4662628,5.0184215-7.126127,3.1794702-1.9811736,6.3489917-4.0051577,10.1487256-4.6370229.478503-.0795788.8832225-.1820814,1.0091963-.7812994.2845518-1.353494.6330779-2.6935298.9689616-4.0948354-.8706445.0271738-1.4480011.4678889-2.0298546.8042233-5.013957,2.8982238-9.7814612,2.1558284-14.3407727-.9931303-3.8517848-2.6603139-6.7418415-6.1451562-8.4386779-10.5397831-.7290232-1.8881045-2.7975564-2.1511599-3.9998775-3.4609204-.2417199-.2633237-.6071705.2160486-.8631212.4193582-3.5671364,2.8336164-6.2959373,6.2482491-7.57392,10.7179258-1.0758268,3.7626544-1.4809864,3.8930713-4.3474484,1.2217248-4.516163-4.2087463-7.4191304-9.3049973-8.1584833-15.5190324-.2113104-1.7759752.0356039-3.5055124.5392093-5.2052251.3683698-1.2433071,1.0901381-1.5611393,2.2395122-.8591503,1.8494367,1.1295787,3.7466099,2.1403312,5.8278123,2.8266512,3.7113924,1.2239034,7.3863437.9225773,11.0823569.0141342.5500219-.1351927.9513501-.3381267,1.027119-.9932484.1757602-1.519885,1.1222057-2.5163745,2.3364502-3.3336051.6793656-.4572534,1.3051672-.9933557,1.9642705-1.4815605,2.9635396-2.1951617,4.5671996-2.0798556,7.5007429.8715889-.8058224-3.6052354,2.5029271-4.2622568,3.7745134-6.3280855.3441581-.5591335,1.1250068-.5565041,1.7856556-.5316378.5321315.0200369.990898-.0440769,1.4464664-.4423035,1.4902965-1.3027632,2.2365018-1.3345195,3.3877165.3085274.9644326,1.3764607,1.84245,1.3957678,3.1584137.6956892,1.7958189-.9553532,3.7541545-1.601857,5.4853553-2.8159728-3.2086508-1.0567504-3.5303251-2.2307065-1.8201057-5.1229633.9363251-1.5834836-.5190061-3.0805843-1.4937522-3.4106618-2.8848087-.9768711-2.4505865-3.6751231-3.3864394-5.6023892-.4724608-.9729646-.6707155-1.6266053-1.9188843-1.913046-2.574607-.5908148-3.6589283-4.182356-2.1893448-6.6937991.8654286-1.4790009,2.2238057-2.3970117,3.7411579-3.0734903.6532436-.2912326,1.0617087-.5770347,1.0157215-1.3892803-.2476118-4.3721485,4.3899262-6.5727674,7.6066155-5.9436067.7124528.1393568,1.2041348.140548,1.5930352-.4946334.0796002,1.0210339-.3419688,1.4514837-1.4149784,1.4864919-1.3993524.0456599-2.7923728.2667097-4.0915514.8791926-2.4898339,1.1737951-3.4352277,3.67669-2.3165528,6.1718256.1394748.3110763.2197512.7508255.6433486.6557174.1982547-.0445062.3671785-.4215207.464079-.6798432.3712246-.9897121.1745582-2.1803781,1.0320772-3.1496939.3047282.7898369.0686535,1.4173716-.0238361,2.0261949-.1776276,1.1692769-.333984,2.329807.0544549,3.4763908.3776746,1.1148542.810244,2.0216982,2.3721453,1.5591539,1.317155-.3900809,1.9851016-.0019532,2.9005634,1.094871-1.1247063.0113117-2.1999482-.558232-3.5456399-.3290043,1.6084788,1.2115078,3.2503774.9790605,4.8737524.8854119,1.1100999-.0640279,1.3341225-.4519087.6395923-1.3854972-.8288857-1.1141566-1.9401232-1.9715898-2.8333052-3.0291291,1.40181.5131463,2.3377488,1.5703529,3.3611116,2.5142763,1.6316494,1.5049673,3.0312487,3.2645545,4.9781331,4.4217363,3.2212718,1.9146666,6.6024203,1.1782382,8.3596143-1.8489322,1.8632275-3.2098421.9431293-6.8440758-2.1776468-8.6724131-.5204978-.3049429-1.203008-.405621-1.5059869-1.0691299.7191604-.2507832,1.3017007.0857659,1.8683896.3576591,1.6179982.776309,2.4794345,2.2468959,3.3742048,3.7048565,1.5572114,2.5374095,3.7465025,3.7959884,6.7980242,3.1592938.2268451-.0473287.4701104-.1162505.5659699.3414536-.5724199,1.1840121-1.8717273.6948092-2.9122507,1.0228369,1.1609917,1.4429785,2.6316483.4689192,3.9461095.5831842-.2256431,1.0466086-1.0495277,1.1258868-1.7604995,1.3035037-2.9050387.7257499-4.3771872-1.3397032-5.8861361-3.3795923-.45266,1.1285913-.7335307,2.0291677-1.167388,2.8487487-.3631325.6859766-.2892203.9662034.3447913,1.5271721,2.9866137,2.6425522,3.2570206,4.978777.9183917,7.329179-.5024142.5049362-.9478085,1.0577163-.5001282,1.859439.1909891.3420331.4396848.7983743-.0542187,1.0685772-.4039254.2209854-.7654051-.0774967-1.109735-.3222109-.3022062-.214793-.4263019-.7241723-1.0691675-.5839355.0125029,1.1318754.762647,1.6397629,1.6769605,1.9101269.870022.2572707,1.7737.2378241,2.4279953-.5385063.8806361-1.0448592.3087528-2.0676317-.4389014-3.4778987,2.2471911,1.2881138,2.2334754-.0814032,2.3181519-1.326889.0435081-.6401397.0709823-1.281374.1220888-2.2247824,1.3245601,1.4742841,1.1154767,2.7593178.6913749,4.0812593-.1596727.4976598-.3735105,1.0699724.2912701,1.3698927.7705888.3476353,1.4705386,1.0241247,2.4477103.565884.8399291-.3938694.3002207-.957886.2300111-1.4733934-.0839253-.6164109.1239454-1.1514401.49517-1.6335061l-.0071369.048359c.1842171-.8055326.7421271-.3102982,1.1293104-.2989758,1.4818503.043272,2.2882629-.7908832,2.6305537-2.0948806.2279613-.8684551.190109-1.9737899-.4549459-2.4920447-.7273812-.5844184-1.2568189.4962647-1.8087297.8924307-2.4376006,1.7497459-3.6834298,1.5909317-5.2460931-.7847123,4.4979988-.3016696,5.9922769-1.6233857,6.6971207-5.9234088.3913044.0769494.2897569.7158763.7801404.7083639-.0942496-3.8647009-2.4043524-6.5463181-5.0217485-5.8563384,3.7178907,1.9628431,4.6650767,4.3631764,2.6563752,7.0420354.0793212-.6326164.1466439-1.1499805.2087186-1.667967.2797653-2.3346365.0333877-4.1661773-2.9377825-4.2830449-.898108-.0353248-1.6742882-.6018528-2.034888-1.4891857-.6803208-1.6741111-1.0739004-3.4145952-1.1063865-5.3055974.7971508.271684.7926433.9245091.9548059,1.4457581q.8624988,2.7723037,3.8358368,2.1208309c-1.5599266-3.079935-5.4151027-6.5791208-7.9972008-7.2587226,2.0268925,4.0709403,2.3711901,5.5256437,1.7454852,7.4721686-.6200062-.7806662-.7093083-1.7318393-.9618891-2.6122124-1.5886672-5.5374437-6.614612-8.3843626-12.2682901-7.1114938-2.7642546.6223512-4.5171128,2.4577448-6.2437523,4.4315938ZM70.3784541,38.0087607c-1.538634-.623859-2.6455572.6179778-4.1997528.6377357,1.4077878,1.5586495,2.987322.1055935,4.3805678.7710181-.7633017.8295404-1.6473076.8575513-2.4997182,1.0031219-.4692733.0801261-1.1832501-.1280558-1.2579458.6070203-.0577067.5678051.4460812.9107719.8765579,1.2286148.6243205.4609667.7062389-.1059154,1.0074255-.4485603.4932167-.561076,1.1692125-.5938412,1.6422206.0094979.4782239.6099824-.1407627.9623398-.5382058,1.251045-1.4721592,1.0693929-4.0846292.2840045-4.0135503-1.4244441.0952906-2.2905167-1.3300872-2.6428527-2.803985-3.2606158-1.4271808-.598177-2.6658087-1.5117715-3.6982831-2.6312942-.8738963-.9475617-1.6927797-1.0594657-2.9292075-.7270807-3.9071411,1.0503111-5.6620277.1334219-7.4293742-3.5674476-.1896046-.3970568-.1964625-.932043-.7434365-1.1229462-1.1040899.9804235-1.4066395,2.2397966-1.2611117,3.6543457.0785163.7631943.2415911,1.613598-.2882652,2.2080188-1.1499697,1.2900778-.5618487,2.4894153-.0033377,3.7306726.6165719,1.3703005,1.7107989,2.35609,2.7189006,3.4177343,2.517877,2.6515994,2.5698527,3.0221585,1.0602276,6.3457184-.0481873.1060872-.1200819.2038784-.15333.313872-.1605635.5311441-.1961727,1.0523073.2850777,1.4479046.5246834.4313138,1.1287952.6584487,1.7954218.4093666.6000766-.2241943.751067-.7115728.5362633-1.2893802-.1499172-.4032707-.1454204-.6793442.3657082-.7251596.5220433-.0467921.9435693.1222927,1.1087369.6450335.1515914.4797372-.0609585.911008-.2819976,1.3363225-.8764506,1.6864263-.4430225,2.6586075,1.2750206,3.0807882.8861953.2177658,2.1629009.4106652.6916646,1.6695124-.3212987.2749251-.1063555.513039.0814462.7348615,1.5457602,1.8257616,3.2117846,3.4208788,5.8405138,3.4404006,4.0742727.0302539,6.844827-1.9639271,8.7131737-5.453073.6118712-1.1426504.8533979-2.4930643,2.0191654-3.7394837-.0496039,3.6647344-1.5490442,6.3110643-3.7252529,8.7544388,1.9550194-1.5130808,3.8514843-3.041251,6.2691875-3.64664,2.4641519-.6170441,4.8688585-.6752016,7.1226069.7220366-3.30993-.0989288-6.4451945.3853266-9.2300011,2.286299-2.2605096,1.5430664-4.001262,3.5785768-5.5221236,5.8348902-1.0205509,1.5140252-1.869817,3.1635544-3.4687119,4.8650164.3507798-3.3483618,2.3326188-5.498749,3.5116512-8.2531729-2.9065198.2834035-5.5153087.7416979-8.140625.2766637-.2024725-.0358668-.4550855.1060872-.6610029.2112192-2.2725618,1.1601545-3.977179,2.8471711-4.9423951,5.2517596-.3675542.9156765-.3000168,1.3927092.8496846,1.4228021,1.0541747.0275923,2.10396.2225952,3.3309328.364034-.7730572.9620715-1.6096486.9520906-2.4097507,1.0364882-2.9828145.3146877-5.3333668-.9837719-7.4399347-2.9119073-.6215087-.5688568-1.5223104-.9725032-.3264394-1.9701517.4797908-.4002657.2524627-1.3530325.0327115-2.0254222-1.0924884-3.3429635-4.1804242-5.1029908-6.1926352-7.7199683-.1919872-.2496831-.6462141-.3706772-.9363466-.0405353-.2226918.2533964-.0207774.5401484.0990791.804556.3195923.705112,1.1157128,1.2323711.8325454,2.2663265-1.1141244-.2293565-1.7343989-1.1997347-2.6737827-1.6170645-.5039918-.2239045-1.0411996-.4207104-1.4740266-.0115692-.5732999.5419514.0684496.9386003.3174458,1.3404437.3029467.4888917.866577.8357758.9570489,1.7260386-.6670237-.3996111-1.097554-.6913212-1.5572757-.9258291-.9182951-.468447-2.0423361-.5469633-2.5036462.3544288-.6062905,1.1846345.8160179,1.0591866,1.3989875,1.4585294.1386055.0949365.3340699.1024919.4959642.1684623.8425585.3432566,1.1885732.8205791.2896818,1.4747671-1.6982101,1.235859-1.0888824,2.7843773-.5740619,4.2776144.715769,2.0760672,2.4033436,4.1580048,4.2068575,3.9963788,1.9120372-.17136,1.532184.9891165,2.0746934,1.6408576.370645.4452548.5944744,1.0094539.938654,1.4804873,3.7259183,5.0991379,8.6068505,8.7809686,14.3810075,11.1885944,3.3940592,1.4152037,7.0044246,1.411748,10.4748.0686213,3.877499-1.5006745,7.6452189-3.2593495,11.1903974-5.4532984,2.2578481-1.3972703,4.2901174-3.0495147,5.8666895-5.2267001.9229207-1.2745269,1.1537153-2.854866,1.9242718-4.4298712.4197982,3.1457713-.6026094,6.0337566-3.1614295,8.562677-5.0154165,4.9568513-11.0889787,7.9852559-17.9755108,9.3120054-3.2854393.6329706-6.5342927.2519905-9.5857178-1.2827477-2.4454887-1.2299778-2.8428138-1.1019112-4.2885827,1.2634621-.648339,1.0606998-.9715051,2.2456456-1.3488899,3.4166289-.2314278.7180764-.0385176.895264.6638684.9716768,3.0827736.3354222,6.151574.8354538,9.2410982,1.0636297,3.9304513.2902935,7.8033999.8456601,11.5580803,2.0316576,3.6312501,1.1469862,6.6857124,3.1070819,8.4383559,6.6644091.5780328,1.1732156.5811237,1.3751729.2522266,2.6412107-1.0642951-3.6707015-3.6550004-5.613336-7.0091468-6.7651731.9282331,1.262904,2.3136659,2.2399039,2.2105301,4.1180705-1.4194-2.0639613-3.4089769-3.3029541-5.6232417-4.2658091-2.3311593-1.0137038-5.2510835-1.8386938-6.9122678-1.8028592,5.1849091,2.7442714,9.530136,6.0284979,10.6644261,12.0782132-1.1169362-1.6252209-1.9556848-3.4333925-3.3554665-4.8917501-4.4766204-4.6639391-10.2102422-6.8675899-16.2575857-8.5411054-7.1498129-1.9785979-12.9773945.5235565-18.1873202,5.2090028-1.0218066.9189498-1.6643181,2.1200474-2.0276116,3.4402718-1.3363547,4.8561624,1.1839155,8.8661388,6.1372896,9.7972374.4083041.0767562.8820957.119073.8818166.6561091-.0002468.4886878-.4256365.6582448-.8335542.7669613-.9734154.2594494-1.8701819-.0393011-2.6881101-.505548-1.0539601-.6007849-2.0536263-1.2967961-3.1573405-2.0034321-1.7072359,6.5856567-1.3757524,12.9728655.9364539,19.2483957.3743476,1.0159683.3116827,1.8216297-.1169159,2.8142449-1.8492327,4.2827873-4.3228719,8.1639138-7.2200976,11.7979435-.4907161.6155094-1.2116473,1.2134181-.7826946,2.3135049,1.2901207-.7795608,1.5502999-2.1408893,2.5100747-2.9060476.2773506-.2211034.6130947-.490201.9264623-.20273.3585606.328897-.0156153.6338184-.2174223.8832547-.4406937.5446988-.9377203,1.044666-1.3651383,1.5988735-.2020539.26195-.4578544.633754-.1457102.9462738.4615033.4620613.743737-.0633196.9844695-.3183151.6807501-.7210707,1.2977405-1.5019623,1.9681877-2.2333144.1949063-.2125821.4937533-.3538385.7597171-.0579106.2858182.3180146.0087896.5302104-.1793662.7356449-.5159367.5633942-1.2495318.9609554-1.5262277,1.8573892.9901897.1310608,1.3703434-.5219896,1.898783-.9514467.5739546-.466483.96762-1.8751401,1.7450237-1.1959033.7137836.6236229-.6477488,1.0715822-1.017825,1.6451934-.1756207.2721884-.5877668.5011049-.2232284.86838.2877607.2898964.6634499.1674428.9874423.0194681.7396588-.3378905.9836539-1.1373702,1.5206362-1.662558.2485241-.2430614.7536105-.826911.8826859-.1347742.2261797,1.2127957.8448659.6217126,1.3853362.4837188,1.6172362-.4130155,2.8062924-1.4361314,3.7182019-2.7765751,1.4172536-2.0832792,2.8406567-4.1395133,4.7035514-5.8822404,1.1829067-1.1066119,1.3592464-2.5051165.2651159-4.1895251-.2342718.3553839-.3655258.6199311-.5555812.8316975-.8842743.9853173-1.8804955,1.8005518-3.3164551,1.5783322-.4954276-.0766704-1.1927266-.234304-1.2016128-.8415496-.0110219-.7532242.7526017-.5638449,1.2186876-.6203603.916138-.1110776,1.8871923.0492605,2.5714947-.8231977,3.0246377-3.8563137,6.0155335-7.8388589,6.2463388-12.9142788.1961942-4.314254-.3797351-8.6311051-3.4890386-12.1024571-.0419305-.046835.0236-.1899373.0404494-.2889627.6798164-.3596768,1.1178592.4765712,1.7525791.4118886.1333468-.6193623-.6653387-1.037615-.271845-1.6516005,1.613598.5474462,1.9492455,1.1252644,2.1633087,3.6904379.4854037,5.8165704,3.7327761,9.6019233,9.4707659,10.6009134,6.0086435,1.0460827,11.3464104-.646375,16.0156619-4.539661,7.2992364-6.086269,9.2861839-14.1774511,8.9686737-23.6655601-1.1967082,1.9199468-2.1444953,3.4405508-3.092293,4.9611549.3607071-1.988772,1.2841214-3.6777203,2.2087056-5.3571921,2.7678069-5.0277048,4.7704663-10.3084949,5.2444081-16.0690436.532432-6.4713702-.1609928-12.7692769-4.4813104-17.9273879-3.2936279-3.9323509-7.3295547-7.2245836-10.3386629-11.4371506-.555667-.7778866-1.0299845-.9223841-1.954676-.2797868-1.6558182,1.1506888-4.0971321.449376-5.242648-1.2780041-1.0153136-1.5310464-.7696873-2.4526792,1.2478576-4.0599023,1.2382738-.9864442,1.2429208-1.9264075-.0647899-2.9198598,1.5894185-.4144321,1.559508,1.086736,2.3448749,1.69982.7880607-1.1294606.7135689-2.0470582-.3057478-2.794326-.7438658-.545332-1.5648204-.9854998-2.3596746-1.4779223.7067755-.2967757,1.3593215.6481244,2.0911565.1262421-.0802764-.6841629-.5855882-.9946436-1.0267648-1.3577224-.4829568-.3974968-.8220064-.1185257-1.1958067.2031057-.5755429.4952344-.1470624.7674335.1950351,1.0738467ZM108.6411669,39.5650384c-2.2906347,1.4517467-4.4775327,2.0806712-6.6931605,2.6508052-7.652109,1.9690356-12.6771093,6.5160373-14.2509662,14.4907221-.1537378.778992-.1140075,1.2825224.4701319,1.8548457,1.4434078,1.4142056,2.404771,3.162127,3.1544965,5.0228968,1.8081716,4.4877926,2.3709111,9.1619058,1.9689175,13.9569164-.0737512.879638-.0257679,1.3236586,1.0333007,1.1914387,5.7321944-.7156724,11.3416131-1.8509177,16.3107527-4.9996403,2.5123499-1.5919405,4.6115556-3.6334395,5.6869584-6.4986084.8830615-2.3527094.1987162-4.9092006-1.5146048-6.0134836-1.7018805-1.0969101-4.0033869-.6287851-5.8465989,1.262464-.7332517.7523334-1.3344659,1.631467-2.030037,2.4227688-2.3288089,2.6493564-5.1883542,4.3651672-8.7524319,4.8677746,4.5338334-1.8944794,7.7421516-5.3536505,10.9500297-8.8712903,1.754468-1.9238855,4.5676826-2.1474788,6.617456-.9107719,1.9843503,1.1972448,2.9864098,4.0725877,2.2104764,6.5148353-.8770301,2.7604018-2.5268168,5.0214695-4.7731601,6.8096686-5.4999617,4.3781853-11.8807419,6.1467982-18.8154613,6.1533234-.83232.0007834-1.4162877-.0064178-1.6252316,1.0416825-.6656285,3.3391536-1.7407201,6.5547696-3.2030701,9.6354398-.200369.4221163-.4263985.7745811.105411,1.2119156,2.7453016,2.2576549,5.7398357,3.6575546,9.3860142,2.7797411,3.1734709-.7639885,4.4317494-3.1646598,3.3084275-6.2587237-2.1046683.7736582-1.6672372,3.8316835-4.1303803,4.5998575.5502151-1.2731532,1.0065562-2.3183988,1.4541936-3.3673577.6978786-1.6353091,1.8889738-2.485541,3.7077917-2.3555212,1.0517922.0752001,2.1032624.1605742,3.1563317.2112406,2.38482.1147695,4.6769465-.2121958,6.7399204-1.5222353,1.2341312-.7837142,1.6797509-1.3914106,2.0546029-2.7274434q-3.6924555,1.3858728-4.9635911.9401887c8.7380401-4.5741541,10.506052-6.0218225,10.5257992-8.6828984-2.5093878.953357-2.909997,4.8706508-6.2861121,4.5389312,1.0204973-1.1505278,2.5372055-1.7904206,3.1675682-3.3049932-.4503848-.2543194-.8757422.3123803-1.2325428-.1983299,1.6460949-1.3143324,3.3063777-2.6035301,4.9269515-3.94084,4.5782859-3.7780228,7.5352682-8.5935104,9.0372735-14.3133521.570413-2.1722164.8186258-4.3809864.3312795-6.6061014-.4641219-2.1190279-1.2242147-2.4639158-3.0437194-1.3250323-1.2088033.7566585-2.3353985,1.6446246-3.4987834,2.4738108.1167656-.6716063.4459202-1.1175909.7977196-1.5449123,1.6083392-1.9535276,3.0108147-4.0444159,4.024937-6.3645747,2.0073815-4.5925597,1.974949-9.2091593-.041469-13.7900425-.2942108-.6684188-.6828643-1.575515-1.5366486-1.5031697-.9132618.0773948-.9099992,1.0857111-1.1086296,1.790265-.970185,3.4413665-2.0573503,6.8388922-3.7727104,9.9961254-.793255,1.4600211-1.6528561,2.8805587-3.0640031,3.9871385-.0270235-.2493934-.0851917-.3828689-.0429071-.4639717.2160808-.4144429.4404683-.8267178.693575-1.219353,4.346944-6.7426893,5.9914935-14.1683395,5.5176912-22.1040773-.198523-3.3247726-1.0579095-6.4843936-3.0722454-9.2018025-.7772212-1.0484652-1.5453631-2.4924525-3.0993333-2.2454256-1.5442255.2454761-1.8571316,1.8095936-2.2649527,3.0767368-1.1027698,3.4265722-1.3270929,7.0047627-1.7390566,10.5501396-.6218199,5.3511768-1.7563569,10.5254074-5.3365542,14.8077547-.4425289.5293304-.5392683,1.1208857-.6683652,1.7607463-.6451086,3.1975216-2.034566,5.9557555-4.8281622,7.8455879,1.4839109-2.4791984,3.0771607-4.8907199,3.8968812-8.1118093ZM86.6275185,56.9728085c.5078876-3.5381596,1.0622453-6.8967491,3.574842-9.2362365,2.9660402-2.7616574,3.9948549-6.2042688,4.5286069-9.9821736.4860799-3.4403898.1632787-6.6174024-1.0720437-8.5707744-.3691855,3.0677755-.9439557,5.902508-2.9641084,8.2028124.7748065-2.9286924,1.6568807-5.8212711,1.9005109-8.855353.2522481-3.1413818-.2878144-7.1708961-1.2944565-8.8167388.2281974,4.7504294.3255915,9.3882465-1.7537489,13.7357808-.0454506-.7578283.0053339-1.5074679.1553799-2.2366843.9285229-4.5125033,1.1273357-9.0539083.5391825-13.6214728-.1406554-1.0922631-.1431667-2.2932856-1.3655032-3.1065078-.4102359,3.3778966-.2933307,6.7341573-2.2038869,9.596568-.0632552-.5990893-.0147245-1.1739722.0578355-1.7458018.0514713-.4056693.1309642-.8080439.2054989-1.2104883,1.040942-5.6206768.5618273-10.9586101-2.9074427-15.7483352-.8770623-1.2108693-1.9361952-2.2194753-3.3407098-2.7521648-.8382442-.317918-1.800745-.9739252-2.6379696-.2493719-.8637437.7474986-.8382012,1.8639304-.635879,2.9483644.3595802,1.9273359,1.3518734,3.6080795,2.0867993,5.3860455,1.4480226,3.503087,2.1241364,7.0577311.9363573,10.7711733-.2753759.8609158.0496898,1.4237412.6011391,2.028658,1.4994188,1.64485,2.9434813,3.3386277,3.9579363,5.3461809.930401,1.8412051,1.5801889,3.8791732.6001732,5.7349311-1.4818932,2.8061207.1667023,5.1477116.8051892,7.5602312.5251126,1.9841679.6940686,3.6389558-.8139251,5.1667504-1.5650565,1.5856193-3.2526741,3.0320536-5.9018694,2.9623913,1.9245938,2.7336465,4.2770886,4.6859722,6.9420924,6.6922161ZM16.7767674,131.2086403c.7849698,1.1898074,1.1272337,2.408377,2.6455089,2.3803876,1.1588238-.0213569,2.2072246-.3105665,3.1713674-.8780818,3.0249918-1.7806544,6.0105645-3.6286422,9.0462777-5.3904725.8538487-.4955456,1.0887322-1.0547757.8635076-1.9965635-.9764097-4.0828047-.7553599-8.159857.4628233-12.1375834.5057948-1.6516005.419605-3.1430668.0542724-4.7693716-.258623-1.1512683-.5255205-1.1874571-1.41207-.5590584-2.9286602,2.0759384-5.6048039,4.4128715-7.9309728,7.15754-2.4305496,2.8678519-4.4315133,6.0374485-6.5251758,9.1416757-.649804.9634238-1.3584522,1.2628933-2.5969728,1.2125166-3.4619722-.1408271-6.8349266.5741263-10.0239001,1.9359913-.900614.3845968-1.1294606-.0678915-1.0300918-.6286456.1390777-.7848196.0154489-1.2527836-.7559501-1.4623822-.3937352-.1069994-.8275174-.2047477-1.1410567.1741611-.4753853.5744912-.3542141,1.2154143-.0948935,1.8249567,1.4470996,3.4014429,3.5997728,6.1043956,7.4947007,6.659848,2.0410911.291077,3.5799022.8994817,4.9037057,2.6755428,1.731131,2.3226058,3.8270257,1.9586147,5.3131743-.505505.5081237-.8424511.6060222-1.2925784-.5617307-1.6800084-1.8198482-.603747-2.1703436-1.2900241-1.8825238-3.1549472ZM51.9484052,84.6733187c-3.6105371-2.0101718-6.0451112-4.8949483-8.9200034-7.2627256-2.035328-1.6762737-4.3478992-2.6230948-7.0508733-2.7489398-1.6683641-.0776685-3.3122481-.1687306-4.9965709.3405843.0354697-1.0583173.7954551-1.3509612,1.1872317-1.8965829.7071833-.984888.3188839-1.8939428-.1514841-2.7911171-.3363666-.64161-.8953284-.9621788-1.6079207-.7091258-2.5638212.9104929-5.172256,1.7294085-7.5399904,3.309329,1.4240256,1.3128728,2.9771265,1.9850694,4.8201239,2.0002446.5685027.0046792,1.338748-.0363497,1.435788.6793442.0979522.7224015-.6406763.9314527-1.2050471.9890092-1.1421138.1164651-1.0143692.6128908-.5695008,1.3795301,2.0234368,3.4869136,4.5483862,6.5306974,7.9142736,8.787483,2.2047777,1.4782765,4.5562958,2.6294804,7.3360583,2.5105791,2.4561887-.1050461,3.8581167-1.2005825,4.5629283-3.5602785.2325761-.7786271.181856-1.7251263,1.0369818-2.2924377.6505391,1.1258117-.0341175,2.1131252-.1011504,3.2883691,1.2269943-.6449584,2.3384679-1.2291944,3.8491554-2.0232651ZM10.2795596,86.4235046c1.9397368-7.25033-.6809218-14.887092-6.4944175-19.3694649-1.1785172-.9086684-1.4609548-.5213242-1.6916689.7042856-1.1266703,5.9849898,2.8641225,15.25177,8.1860864,18.6651793ZM12.8460048,81.0866069c2.9878694-5.8584794,7.5852209-9.2097711,12.9930365-11.6526626,2.4591185-1.1108726,5.0029887-1.9610079,7.5684627-2.7708227.5436256-.1715854,1.4610729-.2122172,1.0738682-1.1912241-.3943738-.9971119-1.0255843-.1691063-1.4287906-.0062246-4.2953547,1.7352897-8.7187437,3.0425067-13.2298679,4.0634869-3.4683256.7849806-6.9423553,1.0345027-10.4091086-.0373264-.4150975-.1283456-.8157818-.4626945-1.4245407-.0663461,2.9038367,3.1777852,4.266233,7.0342278,4.8569405,11.6611195ZM51.2556781,68.2342526c.7629046.1151021.8279628-.4040971.9315815-.7342498.8537414-2.7204568,2.6427132-4.6188534,5.1246375-5.912784.6162177-.3212557.7882753-.6208111.1903344-1.1370805-.6174305-.5331188-1.205369-1.1018898-1.7866644-1.6748999-.4369052-.4306699-.8321805-.5111179-1.3648486-.1098112-1.2696116.9564586-2.7494121,1.5223534-4.2166023,2.083644-1.2301281.4706041-2.1142199.9534-1.0333222,2.4286822.4955778.6764143.4531107,1.5449767.3273409,2.3726712-.1476849.9719988,1.0686309,2.60602,1.8275431,2.683828ZM43.2574899,34.9361397c-.8083015-1.6665718-.7014309-2.5950839.5438402-3.6139177.6680861-.5466037,1.4750676-.9303312,2.2412347-1.347382.4145931-.2256807.651065-.4223363.3840709-.9371891-.253493-.4887897-.4952558-.7591322-1.0746302-.4350378-1.1785709.6592697-2.3593526,1.2972039-3.0335131,2.5580581-.9628872,1.8009059-.6575257,3.7784092.7540076,4.7290295.731835.4928626,1.5223319.6392167,2.3201159.2191395.7033627-.3703553.8612968-1.0448592.8416462-1.7952823-.0224516-.8570147-.0051944-1.7150811-.0051944-2.7054747-1.8116059.4564699-2.0574684,2.1836461-2.971578,3.3280566ZM32.7270974,69.0235904c1.0934973,1.2191062,1.5941514,2.6232129.9385682,4.4418912,2.8971936-.5561178,5.4573444-.3067566,8.0101008.6057968-.0949365-.8994388-.5606253-1.1563124-1.184817-1.3036969-1.744251-.4118779-3.1625563-1.4410789-4.0051577-2.9361083-1.0117935-1.795175-2.1740837-1.7744512-3.7586942-.8078829ZM82.6257307,44.7076522c.371686.4196909.5102486.590686.6640079.7467205.3171346.3218031.187147,1.1077603.7492104,1.0569436.5894089-.0532958.9386111-.6559481,1.1838296-1.1882513.2776189-.6025987.2780696-1.2486517.1120006-1.8927408-.0765094-.2967543-.2795936-.6961507-.5443446-.4510609-.9933557.9196581-2.7643405.7285295-3.2522233,2.3683032-.5625463,1.8906695-1.8640753,2.7526532-4.074219,2.3799476,1.5438391,1.2565506,2.9796164,1.2743981,4.4611983.560958,1.6186099-.779475.4056425-2.1894092.7005401-3.5808198ZM45.7981941,58.2086675c.8262671.8499636,1.1484136,1.9388675,2.2202427,1.5671386,2.056041-.7130753,4.0521323-1.5968344,6.2556757-2.9637865-3.4551251-1.5482178-5.6147526.9459089-8.4759184,1.3966479ZM25.9300606,62.5505138c.554186.2578932.9082928.4117706,1.2523436.5855453.4402536.2223591.6494659.6367054.8598587,1.0551406.2067117.4111481.5123951.6476844.9697772.3424732.4462636-.2977846.5569227-.7120128.3427415-1.209018-.4309382-.9999882-2.0990017-1.4734685-3.4247209-.7741411ZM28.4034743,61.0802864c.8738534.6285812,1.6497224,1.2878562,1.9509734,2.3617888.0874776.3118222.1951639.728873.7051335.5032191.4137775-.1830902.4291888-.5409855.3127666-.8867749-.460634-1.3680897-1.4607831-2.015334-2.9688735-1.978233ZM23.9585996,63.8946708c.9613525.5457076,1.62213.8017656,2.0569747,1.3593752.3058444.3921737.6426081.4668157,1.0028858.0675588.3445659-.3818279.2171111-.7687643-.0597029-1.0939158-.736643-.8652247-1.6166781-.8930854-3.0001577-.3330182ZM22.3404511,66.7542375c.8076468-.0893343,1.0496779-.8247431,1.6899679-.5409103.3632935.1610357.8837484.3627676.9902648-.218077.1095429-.5974365-.4793294-.7089434-.9235539-.8059512-1.1770147-.2570454-1.4551487.5078446-1.7566788,1.5649385ZM80.4631947,43.0811005c-.7861289-.2335957.0268733-.9417878-.3116612-1.4065429-1.0573944.8479889-1.9278349,1.6707466-2.6924029,2.9372566,1.4839967-.1558843,1.8843054-1.4991827,3.0117806-1.5787185,0,0-.0071369.048359-.0077164.0480048ZM57.8354536,45.9739905c.3871296-.5577491,1.1234936-.6003556,1.4376768-1.2793027-1.0889146-.7858928-2.2320695-.4637892-3.3142336-.1622162-1.4881823.4147004-1.5242422-1.8667905-2.90579-1.5531439-.4877755,1.0695217,1.5121471,2.1254779-.0943033,3.1065453,1.1776479.4196372,1.3291749,1.8182813,2.3538899,2.5968333.2202556-1.0307465.4071987-1.9055872.6179134-2.8916987.9202806,1.4571557.987893,1.5040873,1.9048467.1829829ZM59.5250458,69.6527833c3.467027,1.6568592,6.1869579,4.3210903,9.1563787,6.6595796-.7704814-3.1630071-5.9152846-6.857448-9.1563787-6.6595796ZM52.6046001,41.1174525c-.4075958.0886474-1.0518351.2137949-.9011452.8281989.1113352.4539264.6847853.4015643,1.071872.3483222,1.3674028-.1881021,2.7153483-.5794172,4.4636023-.0965463-1.6173328-1.3087195-3.0961029-1.4145169-4.6343291-1.0799748ZM68.6764019,80.5760256c-.8419467.1208975-1.3080756.7351191-1.435305,1.5519526-.0539504.3463689.09103.8130129.5088213.7669613.8794341-.0969219,1.1338608-.8786292,1.4301536-1.4598494.0393225-.499978-.0982098-.9172756-.5036698-.8590645ZM106.1843128,60.1821999c.7741948-2.49051.1984157-4.665066-1.772616-6.3483048-1.838125-1.5697358-3.8939191-1.6156908-6.0631627-.5855775-2.7260375,1.2945101-4.5765044,3.4017112-5.8399665,6.0670263-.6817804,1.4382671-.8200424,2.9590536-.3404877,5.0408517.2807956-1.1576969.4354457-1.8207282.6026845-2.4805828.7258465-2.8638381,2.4096112-5.0428693,4.8511827-6.6410667,2.1196826-1.3875148,4.4551347-1.2913656,5.995679.1735494,1.618685,1.5392243,1.8564233,4.1659358.5598848,6.3078983-1.3204175,2.1814245-3.2096811,3.6934536-5.5540946,4.6501269-1.2314267.5025-2.4761504.9724602-3.7148642,1.4571127,5.2176529.0430251,9.9127903-3.2564947,11.2757608-7.6410334ZM122.7707741,14.8799845c-.3628535-1.0478749-1.121873-1.7603385-2.2256517-2.0662902-.3440508-.0953658-.7428569-.264413-.95941.0805608-.2590952.4127418.1978147.5951881.4511146.7927131.8875047.6921154,1.6998844,1.4204893,1.9775462,2.5904584.4084221,1.7209569.5578135,3.441565.4052025,5.2170143-.2273925,2.6455035-.9858539,5.1964462-1.2737113,7.8215211,2.2603379-4.6155586,3.3786479-9.3716761,1.6249097-14.4359775ZM95.53606,83.7839681c.3595695-1.0152815,1.3053496-1.2368893,2.2092852-1.4937415.3598592-.1022558.9455548-.064908.8089562-.6481458-.1005816-.4294464-.5823149-.5604321-1.0137897-.4819909-1.5362515.2792931-2.9336721.8064985-3.6567068,2.3460662-.8017656,1.7072359.1130416,3.9146322,1.7990386,4.4867623.5801148.1968703,1.1138776.1142865,1.4149891-.3295624.4010921-.5912119.3318054-1.3342512.2485884-2.0321835-.0596385-.500257-.3601812-.5192851-.8826001-.2615529-1.275965.1748372-1.2658553-.6310281-.9277609-1.5856515ZM127.8247726,52.8365363c-.0319388,5.8876708-3.0195721,10.196548-6.1911971,14.4597921,4.8686546-3.0439448,8.2245074-10.695925,6.1911971-14.4597921ZM126.5124257,45.7059661c2.2480174-3.7198224,2.7287742-7.6560369,1.4853919-11.7724654.006289,4.0013371-.4746179,7.9167527-1.4853919,11.7724654ZM109.592839,71.1557974c2.6759184-.8262564,4.4428786-2.5969728,5.0457885-5.0678108-1.4882681,1.881354-3.1611504,3.576366-5.0457885,5.0678108ZM65.4785583,31.9204312c-2.111451,1.3932673-3.3660054,1.3959396-5.12013.0108717-.3345743-.2032022-.6691486-.4064045-1.0036907-.6095638-1.46323-1.0475262-2.4727054-2.7288493-4.809102-3.4092613,1.0292547,1.0236793,1.7342594,1.6912343,2.4006713,2.3953321,1.0799748,1.1410513,2.0729978,2.3760196,3.4452837,3.1965557,1.5921552.9519941,3.2534897.9365934,4.8201131.0450857,1.3733484-.7815141,2.434059-1.8901007,2.5606231-3.689429-.8144939.7340458-1.5361764,1.3844454-2.2578588,2.0348343.0000107.0000107-.0359097.0255747-.0359097.0255747ZM69.1986705,34.9918288c-1.1851819.1918906-2.1729139.9112012-3.2917712.7682062-1.0847076-.138627-2.1504623-.425497-3.5539358-.7152646,2.0294253,2.0299297,5.4026534,1.961405,6.8457071-.0529416ZM65.4784509,31.9204097c.0001073.0000215.0360278-.0255425.0362317-.0258537-.0219043-.3185942-.1568394-.6657036-.4993341-.5370146-1.7795275.6686657-3.4227462.2741631-5.0439855-.5177397-.4680713-.2286481-.619491.0535319-.6166256.4819373.3345421.2031593.6691164.4063616,1.0036907.6095638,1.7080944.679913,3.4134736.0892806,5.1200227-.0108931ZM61.5798741,27.115284c2.0343513,1.8819336,3.5817213,2.0747417,5.4888432.7365786-1.8479234.6858317-3.5262255.010378-5.4888432-.7365786Z"/>
  </g>
</svg>