<?xml version="1.0" encoding="UTF-8"?>
<svg id="Layer_2" xmlns="http://www.w3.org/2000/svg" viewBox="0 0 79.8668983 121.9494053">
  <g id="Layer_1-2" data-name="Layer_1">
    <path d="M79.5910735,90.9421998c-.7724227-4.4312189-2.5934982-8.412811-5.4842627-11.8664516-1.2015238-1.4355789-2.7032754-2.5211984-4.5985908-2.8478238-2.6923487-.4639744-5.2122196.0629559-7.5275476,1.5255962-.8036709.5076811-1.5649628,1.0895-2.4757558,1.408007-1.1215652.3920321-1.9654707.1578749-2.7277837-.7584325-.3873347-.4655062-.6815375-.9903432-.9529679-1.5283023-1.4264904-2.8266343-2.2297529-5.8579136-2.9037336-8.9279978-.70962-3.2326055-1.1630252-6.5089687-1.6160219-9.7847192-.3339268-2.415455-.7975438-4.8150305-.9856457-7.2481009-.3112565-4.0266263-.9873817-7.9792168-2.1132359-11.8631327-2.6261761-9.0591688-6.634421-17.3922254-12.7506939-24.6433899-1.6915895-2.00545-3.3952289-4.0020668-4.9309858-6.1347052-.4148045-.5759472-.6602969-1.1934564-.7569008-1.8806104-.1865701-1.3271293-.2725537-2.6612537-.1951481-4.000484.025938-.4475845.031044-.9046659.1991307-1.3333585.2352805-.599945.1766646-.7149301-.4662721-.8711201-1.7366236-.4219528-3.3580578-.1284137-4.8334629.8595807-.9353014.6262915-1.301804,1.2285851-.5572595,2.423216,1.3332564,2.1391229,2.892909,4.0901949,4.582354,5.9484925,1.1247308,1.2372141,2.2201537,2.4998557,3.2300015,3.8337759.1236652.1632871.3515933.312482-.0107224.5373464-3.6982139,2.2955681-7.0027617,5.0786489-9.9961551,8.22716-3.1636246,3.3275245-5.5435935,7.2329874-8.0312971,11.0560919-.049221.0757207-.1402084.154556-.0713807.278834.1747244-.0479445.2405907-.2098531.3327014-.3321908.5930009-.7876384,1.1940692-1.5700176,1.7620511-2.3755267,2.0345027-2.885097,4.1294594-5.7122418,6.7089674-8.1559325,3.1353378-2.9701104,6.6247198-5.5367515,9.7249289-8.554347.0935404.2111806.2053599.453252.3090099.6987955,2.2153542,5.2473483,2.5529572,10.7099109,1.8472177,16.286846-.416132,3.288311-1.2273597,6.4933957-2.1102745,9.6807117-1.3590923,4.9071412-3.0147361,9.7239078-4.464918,14.6033239-1.8651906,6.2753731-3.2645175,12.6714501-4.9185274,19.0015586-.936629,3.5845562-1.6925085,7.2148614-2.7621976,10.7663313-.3509806,1.1652207-1.099814,2.0017738-1.9550547,2.7890037-.1211123.1115642-.2478411.1365832-.4087795.1347961-1.1953967-.0131222-1.725697.4186339-1.8860227,1.5982533-.2108743,1.5508194.5598125,2.7404975,1.5260557,3.8206026.7483228.8363488,1.7268203,1.276785,2.8477727,1.2659604,2.6181087-.0253764,4.6118662-1.2640202,6.1648811-3.297808.1289754-.1689037.2186353-.3775824.2860333-.5812573.083737-.2533555.1673719-.5545023-.0665811-.7522033-.2423267-.2048493-.5409206-.0784268-.7342305.1003823-1.2522766,1.1584299-4.3230757.3502657-5.5497206-.8624911-.1078369-.1066115-.1642062-.180443-.0292058-.320243.4849598-.5023199.9568484-1.0173535,1.4386425-1.5327955.142455.172682.1045691.3664515.1376555.5429629.1507266.8060707.3917258,1.5650649,1.1445418,2.0260269.1866722.1143214.4116388.3476107.6190411.1645636.1712524-.1511861.0269592-.4120984-.0559608-.608625-.1909612-.4518224-.396219-.8975687-.6033149-1.3629218.2213925-.0393155.3395433.0709722.4715823.1261671,1.1383126.4761776,2.2948022.5604762,3.4723282.1643594.7273886-.2446754,1.4457907-.5175355,2.1778768-.7473527,1.6400197-.5149315,3.3293626-.8056622,4.9639701-.1375023,3.184661,1.3017018,5.4995805,3.5072016,6.5667166,6.856222.7573092,2.3768542.5856484,4.7924624.1478673,7.194693-.687154,3.7703604-2.3953887,7.0975785-4.5548842,10.2151478-1.9527059,2.8191796-4.2714038,5.2744097-7.2372253,7.0481022-2.4512474,1.4660102-5.0639439,2.4573745-7.9798295,2.2077974-2.1131338-.1808515-4.2177917-.5567489-6.2677143-1.0545756-3.4369953-.8347149-6.425487-2.6044249-8.6974147-5.3418077-3.8672196-4.6594533-5.6023115-10.0169873-4.7384929-16.080516.770074-5.4055806,3.5506529-9.5434137,8.1781432-12.4171245,2.2224003-1.3801797,4.5988972-1.7247779,7.0998762-.7711973.3589458.1368385.4002016.2350763.0896599.49895-.7804901.6632072-1.461517,1.4171976-1.9826266,2.309303-.5732921.9817652-.8269539,2.6434851-.3492445,3.7586679.0757718-.3969338.1480715-.7552158.2119976-1.1149785.2606059-1.4646316.8376763-2.7692948,1.8723388-3.8647177.6840904-.7242229,1.4757114-1.0650938,2.4735092-.8791364.1683931.0313503.3353565.1436294.555932.0373753-.57319-.8951179-1.3290695-1.5502578-2.2938831-1.9548504-1.8975621-.7957057-3.792469-.5726794-5.6805341.0447278-2.0526797.6713767-3.6647191,2.0384853-5.2869702,3.3808302-4.9694844,4.1120482-6.8159873,9.4071368-5.9140786,15.7276462.5034432,3.5289017,1.8808147,6.7310249,3.6604301,9.7882423,1.5695581,2.6962292,3.7644886,4.7000964,6.5356726,6.1032017,2.3154301,1.172318,4.7863863,1.8340445,7.3142225,2.359341,5.7015705,1.1846743,10.6558393-.3073761,14.9370464-4.1415093,2.5241599-2.2605926,4.464101-5.0078809,6.2013374-7.8989518,1.1354533-1.8896989,2.1226308-3.85374,2.9000573-6.0584739.7099263,1.4767326,1.4450759,2.788442,2.4000862,3.9555519,4.4940217,5.4925343,10.2253086,8.3606286,17.3652151,7.4807774,6.1683532-.7599643,11.2084013-3.646542,14.5870871-9.0807668,2.843688-4.5735718,4.4165139-9.4345045,3.469571-14.8668912ZM49.5128462,54.1456102c.0087822-.0907321-.028491-.2020921.1602236-.3170773.2162865,1.3836007.4241994,2.7160401.632827,4.0484796.67684,4.3209312,1.2861799,8.6556483,2.5056765,12.8702233.7872299,2.7206355,1.854366,5.3194949,3.3071008,7.7636961.5115105.8606529,1.1935586,1.3117094,2.147037,1.437366.161449.0212917.3203451.061322.4788327.1265756-.6743892.1538923-1.3533737.2188395-2.0370556.1282606-.6467151-.0857283-.9474535-.5714539-1.1898823-1.1040008-.7192191-1.5797699-1.4745881-3.1459581-2.04257-4.7882245-1.6831136-4.8662428-3.050886-9.8175502-3.8326015-14.9135592-.2663245-1.7365215-.2995129-3.4960196-.1295881-5.2517394ZM59.0429335,80.1961901c-.8268518,1.401165-4.0800341,2.5500979-5.8679211,1.9827287.5290749-.4068393.9467387-.8714775,1.335503-1.363126.1358173-.1718651.3057422-.0726572.4608598-.0352819.5019114.120857,1.0030058.2350252,1.5198265.2881778.946126.0973187,1.7626638-.1878466,2.5517318-.8724987ZM24.2714517,2.1713835c.1330601-.2389568.3251446-.4254248.5578722-.5635908,1.1098216-.6587651,2.3070564-1.033335,3.5997718-1.0890916.0830222-.0036252.1672698.0021445.2496792.0128669.0461575.0059739.089762.031044.2082192.0746485-.5416354.1835066-1.0471209.1868765-1.5344294.2784766-.5413291.1016588-1.0901127.1809536-1.5565891.5055366-.1788091.1243801-.4028567.2977259-.323715.5126849.082001.2224647.35915.1051308.5347935.0722487.9026236-.1689547,1.7776752-.4442656,2.6488463-.7316265.0727082-.0239978.1511351-.0308397.2269068-.0456469-1.0836793.9751275-2.2234215,1.8250581-3.7456989,1.9008298-.1785028.0088843-.368647-.0229766-.5388782-.0795501-.4616768-.1535859-.5608336-.4274672-.3267785-.847786ZM24.9352205,3.8283549c1.2499279.0978804,2.3072606-.3104907,3.2904555-.9551124.1964756-.1287712.2914456-.105284.3106438.1521563.0818989,1.0988949.1718651,2.1971771.2656097,3.295153.0184834.2164908-.0149093.3002788-.2681626.246003-1.6047889-.3440365-2.7180825-1.3267208-3.5985464-2.7381998ZM28.2203659,7.5106893c2.1162994,1.608312,3.6984181,3.6920357,5.2409149,5.8111944-.6268021-.4155704-4.4202923-4.5939444-5.2409149-5.8111944ZM31.6886094,46.2118872c.8752559-3.2030933,1.8218924-6.3873458,2.4119319-9.6626878.7306564-4.0561385,1.1333088-8.1357641,1.0565158-12.2628237-.0638239-3.4297959-.7432169-6.6935986-2.4132594-9.7182402-.0391113-.070768-.0714828-.1453143-.0441151-.285727.1358173.1221845.2798041.236506.4064308.3676258,6.3542084,6.581728,11.1068958,14.1274526,13.7871945,22.9193268.6375245,2.0909741,1.3161005,4.1729618,1.6332799,6.3447114.1946375,1.3336649.0402346,2.669321-.0751591,4.000484-.0641303.7400002-.1705375,1.4763241-.2579508,2.214333-.339237-.8216438-.4453379-1.6793353-.5926946-2.5266107-.8159251-4.6900888-1.7145661-9.3567925-3.4003348-13.8357007-1.8703986-4.9689738-4.3361468-9.6109649-7.4938486-13.8813476-.4374748-.5915713-.9093634-1.1584299-1.509002-1.5982023-.1429656-.1048244-.332395-.2678052-.4897593-.1581302-.1493991.1041607-.0103139.3070186.0370689.4625959.6645858,2.1836975.9603204,4.434691,1.2090805,6.693088.1150873,1.0459466.2193501,2.0937823.2965515,3.1430988.1716608,2.3319222-.2403865,4.5924127-.8784215,6.8221655-1.115336,3.8977019-2.2169881,7.7997439-3.6156002,11.6092156-.1315284.358231-.2751067.7120708-.5065067,1.0401769.1458249-.5625186.2854206-1.1267732.4385981-1.6873516ZM26.1007987,90.6580557c-1.3797202,2.2386882-4.2743652,3.6295393-6.6798637,3.2239255-1.6938361-.2856249-3.3179253-2.4364403-3.1115443-4.1397733.0745464-.6150074.3769186-1.0885299,1.0394621-1.3960591-.3091121,2.2509935.5719645,3.8380138,2.5703173,4.7576911.6808226.3132989,1.4106621.2568275,2.0905656-.1659933-.9031342-.1762051-1.8550808-.1235121-2.6017698-.8069898-.7169725-.6564164-1.1189101-1.4738733-1.4046371-2.3594431,2.5827758,1.2922048,5.2144662,2.0077987,8.0974698.886642ZM20.7790062,90.4049555c-1.2542168-.2035218-2.2804035-.8421695-2.6679424-1.6486487,1.0824539.2773022,1.7659316,1.1394869,2.6679424,1.6486487ZM21.112933,85.7149178c-.2432458.6418134-.5376528,1.2587611-.9542954,1.8104041-.3895813.5159016-.9081379.736375-1.557406.7138068.0251211-.2025006.1627766-.2870545.2787829-.3692597,1.0878661-.7707888,1.6242935-1.8921498,1.9305463-3.1299256.8537089-3.4502706,1.6615667-6.9118764,2.5154798-10.362045,1.5355527-6.2042477,3.1688326-12.3817915,5.1997612-18.4464436.3050273-.9108441.6383414-1.8134166,1.081739-2.6723335.0104161.5780916-.1646147,1.1174804-.3365819,1.6508443-1.3267208,4.1134268-2.5692962,8.251311-3.6755436,12.4300424-1.0682594,4.0356127-1.8306746,8.1404616-2.7823149,12.2023186-.4870021,2.0786178-.9405094,4.1685707-1.7001674,6.1725911ZM39.5469181,89.619768c-.1064073.4217485-.2430415.4242504-.54041.1818727-.7122751-.5806446-1.4274095-1.1567449-2.1807361-1.6860751-2.5013875-1.7574558-5.1730062-2.1128274-8.0352797-1.0232253-.576662.2194522-1.1603701.4214422-1.7461206.6153648-1.494399.494661-2.8618651.0309418-4.2123794-.5670629-.252947-.1119727-.2022963-.3191707-.1992328-.5096213.024202-1.5247792.2556021-3.0270414.484347-4.5309374.7789583-5.1214875,1.7957501-10.1912521,3.1895627-15.1845301,1.620413-5.8056801,3.5467724-11.5147051,5.3977685-17.247677,1.764604-5.4654219,3.3612235-10.9795032,4.7888372-16.5419885.6071953-2.3656723.4896572-4.7758682.3236129-7.1803454-.1058967-1.5337146-.3027807-3.0585449-.5373464-4.5782693-.0214448-.1384724-.0806734-.287463.0165432-.4622895.2851143.2527428.4884318.5535832.6922599.850339,4.7615716,6.932198,8.0653025,14.4835902,9.5631736,22.7791184.5131444,2.841952.8054069,5.7236791,1.3163048,8.5660906.5815637,3.2362818,1.2813803,6.4511698,1.841397,9.6928638.6736744,3.8991316,1.3776778,7.7931573,2.3923252,11.6225931.1966798.7420936.3787567,1.4897527.6979785,2.1921733.4684166,1.0305778.5104893,2.1331489.5748239,3.2354648.0204237.3481723-.1588961.2854206-.3715063.2457477-1.3977951-.2609122-2.8215283-.3718127-4.1580525.1535859-4.4636926,1.7548007-8.0475339,4.4239685-9.2978703,9.3768077ZM71.7727952,109.2573193c-3.1178756,2.9703147-6.927092,4.5319076-11.2222894,4.876761-1.0923593.0877196-2.1797149-.024202-3.222649-.349653-2.1979941-.6858264-4.4026258-1.3592966-6.5669208-2.141829-4.2820241-1.5481133-6.8675571-4.6865147-8.1825343-8.9668028-.3149328-1.0253697-.394483-2.0529861-.2044408-3.115629.3049252-1.7054776.03278-3.3578536-.5557277-4.9687696-.4405383-1.2054043-.9384671-2.3851769-.989322-3.7057706-.0698489-1.8106083.3618051-3.4265281,1.5228901-4.850006,2.6086117-3.1982427,5.8947783-5.1183729,10.0559964-5.4261574.2310937-.0170538.4646382-.0021955.7998926-.0021955-.277966.3741614-.5410227.6408433-.8867952.8187844-.1482758.0762824-.3030871.1400552-.454937.2092914-1.2373673.5638972-1.4544708,1.4780601-.5719645,2.5427454.7865151.9488831,1.8570211,1.3851325,3.0437377,1.5801274,1.4331281.2354337,2.7955903-.0365073,4.1065849-.6049998,2.1154825-.9173286,3.8651773-2.3025632,5.2290691-4.1663241.2979812-.4071456.5455159-.8419653.6263936-1.3504633.0275719-.1737543.097523-.3579757-.0939488-.5487326-.6171008,1.3491868-1.5661882,2.410298-2.6829538,3.3252779-1.6811734,1.3774225-3.5411559,2.3918656-5.7292445,2.6903063-1.0834751.1477652-2.1335574.0213427-3.1209392-.4793943-.6347673-.3218258-1.0792882-.816691-1.341528-1.4430846.022466-.0894556.0441151-.0926213.0780184-.0519782,1.5329998,1.8374144,3.5210386,1.8626887,5.5894446,1.3148751,2.1978919-.5820742,3.9267546-1.818114,4.8959593-3.9515693.2137336-.4706632.3713021-.9642519.3550653-1.6521207-.3600691.4728077-.6523316.8379316-.9244769,1.2174032-1.1097195,1.5471942-2.5024087,2.7326854-4.325118,3.3508074-1.4385403.4879212-2.8973001.6591736-4.3704586.1325495-.4622895-.1653295-.896088-.3821777-1.1604722-.823584-.0845539-.1410254-.1632871-.3186091-.0551439-.4708674.1117174-.1572622.2786808-.0403367.4160299-.0110288.6196538.1322432,1.1785472.4470739,1.8165823.5477625,2.0492077.3231533,3.8427112-.1775837,5.3792851-1.5716515.8663716-.7859534,1.6936318-1.6174005,2.5873711-2.3702676,1.4498755-1.2212326,3.1143015-1.9612328,5.0456647-1.8684073,1.4768347.0709722,2.8395012.5898352,4.1135289,1.3205427,4.4132461,2.531155,6.9955113,6.3168842,7.8161339,11.3412062,1.27076,7.7802904-1.2000941,14.2724606-6.8157831,19.6228463ZM2.1416014,53.7029275c-.2038281-2.6264824-.0855751-5.2460718.1227462-7.8640274.2637715-3.3160872.662135-6.613691,1.3884003-9.8659543,2.0081562-8.9926897,7.7977526-14.5215271,16.1800303-17.674123.6415071-.2413055,1.3214107-.3580267,2.0003952-.4499842.9127333-.1236652,1.8306746-.1477141,2.762504-.0957359-.0618837.1607342-.2084234.1454675-.3225917.1724778-2.1778768.5150847-4.3324705,1.1208503-6.4371285,1.8748918-2.9918616,1.0719867-5.4208473,3.0006438-7.6024003,5.2554156-2.4066217,2.4872952-3.9432977,5.4967722-5.0642502,8.7293777-1.81985,5.2481142-2.6188235,10.658188-2.4478775,16.2092361.0651515,2.1174227.1587939,4.2338753.2432458,6.4488721,1.5459688-2.2166817,3.9057182-2.7096067,6.2147149-3.1809337,5.0840612-1.0377771,9.3836496-3.4232604,12.8783417-7.2414632,2.1820636-2.3840025,3.9248143-5.0719091,5.2200827-8.0344628.7970332-1.8231178,1.1308579-3.7720454,1.3340733-5.7358822.4156214-4.0166187.1529732-8.011333-.4781178-11.9886872-.0706659-.4448783-.1570579-.8873058-.2246602-1.3325416-.0156241-.1033437-.0776099-.257236.0748527-.3028828.1357152-.0407452.2001518.0982378.2565211.1939737.429918.7305032.6434473,1.5387694.799382,2.3596984.4234845,2.2280168.4898614,4.482176.4393129,6.741441-.0762824,3.407432-.4901678,6.762171-1.6326672,9.9954403-.8402293,2.3777223-2.2422113,4.4353037-3.7388569,6.4288569-1.7907463,2.3853811-3.739776,4.6219248-6.1168855,6.4629134-2.4458352,1.8942432-5.2273331,2.915324-8.2560595,3.3526456-1.305276.1884593-2.614024.3554227-3.882231.7457188-1.1334109.348734-2.039915.9564399-2.6004422,2.0418552-.282255.546435-.6037233,1.0774501-1.0974653,1.5400459.0255296-.3927469.0571862-.7851875.0753633-1.1782408.0556545-1.2045363.0046974-2.4084599-.0883323-3.6079413ZM32.1472226,112.883744c2.8317402-2.9674554,4.0189674-6.6018453,3.9480973-10.6643151-.0366605-2.0980203-.4220549-4.1181243-1.5497472-5.9393018-.0823073-.1330091-.1944332-.2697455-.1617554-.489453.4854703.2062789.7727291.5885588,1.0053546,1.0033122,1.0651959,1.8990938,1.5473984,3.9609642,1.4369065,6.1166813-.2963473,5.7770359-2.894645,10.2664622-7.757518,13.4054763-1.793912,1.1580214-3.7953283,1.7960565-5.9192866,2.0299074-.2704092.0297164-.5469456.0040847-.8364509-.0803671.6594799-.2050535,1.3278441-.3851902,1.9768058-.6193474,2.9376368-1.06009,5.6820659-2.482802,7.8575939-4.7625928ZM76.2576262,97.9849919c.1265246,3.1187947-1.114519,5.8343242-2.9609198,8.2844484-1.4721373,1.9533186-3.181189,3.6531797-5.3664182,4.818043-1.1331045.6040297-2.3344241.9874839-3.6115154,1.1235054-.3647665.0388049-.7319839.0421749-1.1611871-.1144746.4827132-.2075044.9087507-.384986,1.3301928-.5728836,2.2016703-.981561,4.3444184-2.0660572,6.2342195-3.5892536,3.0102429-2.4263306,4.5665257-5.5565625,4.5761248-9.4386914.0130711-5.2201848-1.7129322-9.7469865-5.3719326-13.5063692-.4012228-.4122515-.7943782-.8323662-1.1634337-1.2795422.3203451.0435535.5603231.2218009.7750778.4180723,4.0772769,3.7271644,6.4939063,8.2880736,6.7197919,13.8571455Z"/>
  </g>
</svg>