<?xml version="1.0" encoding="UTF-8"?>
<svg id="Layer_2" xmlns="http://www.w3.org/2000/svg" viewBox="0 0 98.8363207 127.975085">
  <g id="Layer_1-2" data-name="Layer_1">
    <path d="M28.1537428,117.4470041c3.5533607-2.0488588,5.7170155-5.2011649,6.7943029-9.1188013.5563045-2.0232559.7559095-4.0700808.1873708-6.1353435-.0414466-.1507954-.1104207-.3135595-.0172081-.5151865.4076277.3347887.5754484.78252.6817631,1.2460228.4866186,2.1223659.3679861,4.2365586-.3457071,6.2736869-1.9129348,5.4591849-5.6714129,9.0340852-11.2219906,10.6748798-2.0476379.605334-4.1476835.6533314-6.2513615.278938-.2679161-.0477386-.5259651-.150277-.7798595-.3128562.6904917-.0108667,1.3824958.0047297,2.0712396-.036995,3.1171974-.1889732,6.1514672-.7803139,8.8814503-2.3543451ZM72.1341891,100.3978688c-.1505786-.248766-.3305767-.4874731-.6256302-.6195235.2278836.5330019.4868134,1.0469443.7554412,1.5555934,2.4507674,4.6383373,2.8306993,9.4681825,1.3465866,14.4729389-1.1036425,3.7219734-3.4791104,6.2865828-7.0512682,7.7659061-2.2426375.928649-4.6042696,1.3650687-6.9933439,1.6861702-.4572566.0614564-.9160387.1116499-1.4376296.1746877.3676242.2713157.7208831.3715479,1.0817619.4371857,1.2636562.2294895,2.5244515.2002424,3.7818254-.0598519,2.4249329-.5016019,4.5439279-1.6507456,6.5070336-3.1098232,2.462134-1.8302808,4.4184015-4.0857943,5.1761428-7.113765,1.3532768-5.4068868.3204011-10.4640774-2.5409195-15.1895184ZM72.3388783,123.0557901c-4.7735551,4.26135-10.4229262,5.6100682-16.5554396,4.6002844-7.09836-1.1685653-11.7885902-5.5359928-14.551972-12.0726639-.5872117-1.3889849-.9228473-2.8547561-1.1875969-4.4717151-1.3675848,1.8961484-2.8682859,3.502286-4.4904302,4.9951943-2.4818599,2.2841048-5.1175835,4.3730603-8.1766572,5.8304229-5.1883458,2.4717395-10.3622583,2.5066766-15.4987053-.2372872-2.2772348-1.2165704-4.4614192-2.5480443-6.352465-4.3255294-2.2631795-2.1274183-3.8042132-4.6687565-4.5500586-7.6981033-.8455344-3.4348578-1.2644128-6.8954416-.7525948-10.4231638.9164927-6.3183898,4.1807517-10.8782225,10.1078733-13.4225347,1.9349302-.8305677,3.8670079-1.6878013,6.0256382-1.7533194,1.9855259-.0600801,3.8664423.2601213,5.4627665,1.5584417.8116535.6601855,1.3521676,1.5018453,1.6498169,2.5222815-.2416905.0396769-.370268-.1150902-.5229319-.1926441-.904925-.4596573-1.7605232-.355822-2.6210276.1462025-1.3015014.7592948-2.2229214,1.8484018-2.8858648,3.18019-.162783.3271191-.3331172.6504928-.5177392,1.0099369-.143917-1.2045994.5678917-2.7273799,1.3946611-3.5077726.7514665-.7090039,1.6174222-1.2404074,2.5532449-1.6566866.3723508-.165668.360449-.2715219.0546937-.5039843-2.1307165-1.6199719-4.5080608-1.9593124-7.029418-1.2616074-5.2498768,1.452675-9.0842073,4.6388009-11.3468498,9.6080725-2.5380713,5.574117-2.3836468,11.2035067.0131718,16.76419,1.4080368,3.2667887,3.7764666,5.8072047,6.8387726,7.5769741,1.8264548,1.0554952,3.7397396,2.0094632,5.7162132,2.7786832,2.7272773,1.061452,5.513463.846788,8.2784938.1312362,3.3455421-.8656701,6.2624737-2.5676021,8.9306636-4.7220207,2.9506935-2.3823645,5.5276161-5.0930687,7.2498845-8.5167978,1.0971857-2.1813923,1.942819-4.4506276,1.8862646-6.9446119-.0797631-3.514003-1.6790765-6.2826497-4.367536-8.4292954-1.3799923-1.1018655-3.082761-1.2991743-4.8014284-1.267432-.7671462.0141082-1.5334396.0733793-2.3002164.1031181-1.2414016.0481138-2.3272127-.3588358-3.2852446-1.1365873-.1110347-.090196-.193315-.2293243-.4167505-.2539424.0674558.5048223.138795.9903652.1945936,1.4777034.0241207.2119281.0890173.5028875-.1179207.5996598-.2505869.1171545-.4006766-.1700822-.5475253-.3323807-.5923358-.6544624-.6095553-1.4506407-.5269749-2.2664795.0180205-.1786804.1089567-.3539398.0209542-.5597642-.6075755.3587125-1.205544.7198024-1.8123482,1.0650643-.1689532.0961006-.1356461.1827977-.0622885.3154874.8350496,1.5093889,3.5534818,3.1504486,5.0814639,2.3919839.2359309-.1170713.5580389-.1541766.7327775.1106579.1687705.2557015.0035319.5210285-.1482343.7405033-.1220665.1764184-.2668596.3513756-.4381469.4770713-2.0634334,1.5134441-4.3255251,2.1398029-6.8446612,1.4260935-1.0784364-.3056066-1.8931073-1.0040209-2.3752925-2.0173524-.6226225-1.3087376-1.0266348-2.6673689-.3871812-4.0958835.4864361-1.0865665,1.1169186-1.351332,2.2600531-1.0017786.1539816.0470878.2826061.058798.4303412-.0140194,1.0424625-.5142124,1.9966993-1.1057485,2.6618982-2.1247777,2.0275029-3.1059208,3.7761046-6.3759157,5.6852557-9.5510265,3.3713416-5.6071565,6.5170716-11.3493068,10.0757131-16.8443679,2.7668988-4.272684,5.7131392-8.4274045,8.4004785-12.752346,1.7456417-2.8091454,3.427424-5.6555659,4.753794-8.693185,1.1309322-2.5907012,1.9854747-5.2306129,2.4833242-7.9330877-.552222.9190138-1.1532565,1.8067003-1.8333993,2.6423254-4.1218526,5.0627761-8.8569775,9.5284898-14.423631,12.9534846-3.7627908,2.3151968-6.4513707,5.4674089-8.5982626,9.1944418-1.8289652,3.1750062-3.1448069,6.5851322-4.4428465,10.0004889-1.4645912,3.8540311-3.757561,7.1519989-6.7465764,9.9769982-.0971866.091741-.1925901.1917033-.3061549.2582116-.2180998.1273997-.4510744.4119478-.7037089.1706015-.2008722-.1919125.0186682-.4424297.1258759-.6297662.3989378-.6961046.8305337-1.3734529,1.2347146-2.0666173.5586457-.9573312,1.0065732-1.9686957,1.3995904-3.0031916.4666883-1.2285054.2941381-2.4452075-.1560194-3.6290324-.5833937-1.5340509-1.2580896-3.0344937-1.8064328-4.5804478-.9333781-2.632716-1.0490455-5.2650014-.0738116-7.9580039.645319-1.7823367.7315366-3.7437711,1.6731404-5.4510766,2.5497223-4.6230178,5.7726868-8.7149432,9.9135393-11.9886205,5.225236-4.1310543,10.7503456-7.7229678,16.7973613-10.339308-2.9225147,1.0358943-5.9005456,1.8987289-8.9611996,2.5023562.1564709-.3844462.5362189-.3665738.8448254-.4391356,2.8697657-.6753635,5.6707261-1.5764205,8.4415386-2.5740609.2958976-.1063859.6748815-.1118939.9088977-.5043455-.8575452.1511655-1.6415169.4061392-2.4255445.4062539-2.64006.0005297-5.2725547-.0194921-7.8396155.7423949-.3816857.1134326-.7887875.1522833-1.1871663.1973867-2.4798904.2807405-4.9463931.4327769-7.2820534-.7382354-1.1671446-.5852411-2.0198572-1.4278522-2.3017188-2.7432137-.2746568-1.2809917-.3743707-1.3244122-1.6614694-.8990641-1.0407525.3438444-1.5909217,1.3381457-2.4913206,1.8226594-.7632556.410938-.5824894.7756381-.2229899,1.3015085.877516,1.2838819,2.0305937,2.2344034,3.4753855,2.7814355,1.1904851.4508096,2.4350946.7091823,3.7092739.8521935,1.5706421.1762995,3.142772.0998476,4.7139658.1396001-3.390867.5137289-6.7311178.4633041-9.8821606-1.0867287-1.3235183-.6510349-2.0833425-1.8604497-2.9589022-3.0314759-1.1933749-1.595842-1.0881241-3.2323357-1.2536443-5.0280972-.18727-2.0287495.291497-3.7513042.9946823-5.5201374,1.4376518-3.6172823,3.1684521-7.0787094,5.5054076-10.2111404.8636659-1.1579863,1.8227446-2.2310665,2.9827945-3.1030444.6954424-.5226596,1.4093383-1.0262836,2.3065284-1.1534592-1.7593292,1.0114926-3.2269936,2.3458398-4.4855703,3.937238-3.0733129,3.8861428-4.98934,8.3663987-6.7132789,12.9485154-.2160074.5740844-.295542,1.1665108-.1424162,1.7742425.232978.9235694.2225968,1.8431307.0714041,2.7863971-.1370256.8560775-.0755574,1.7086425.706263,2.3400237,1.8682552-2.8367342,3.6187297-3.5431217,6.9477586-2.8508722,2.0445099.4250769,3.8882254,1.4326522,5.8736542,2.0245995,4.0194933,1.1985029,8.074564,1.9693412,12.2479138.794336,2.1992916-.6191738,4.1976503-1.6396356,6.1414144-3.0528042-.8164264-.2663466-1.4000827.046466-1.9944921.2096769-1.2235668.3359964-2.4027206.838673-3.6770665.980291-.2234874.0249229-.5089361.0883852-.6162201-.1916817-.1097864-.286273.1592231-.4094018.3440796-.5288839.2232411-.1444647.4637917-.2716294.7121182-.366801,1.4721669-.5641707,3.0057812-.9053187,4.538449-1.2566688.4336967-.0994866,1.1158671.0673601,1.1421304-.6888784.0261685-.7502865.4940072-1.5384274-.3606873-2.2101778-1.1020291-.8661819-2.3406857-1.5237086-3.3322706-2.5817469-.9008738-.9610272-2.2296664-1.4516474-3.3736249-2.1439472-.4562916-.2761205-1.5077153-.3618879-1.1919379-1.014422.295188-.6101725,1.2087205-.1759132,1.8156812.0633039,2.117492.8344461,3.9012633,2.1781092,5.5653421,3.7013691.2997907.2744136.5260801.6708105,1.0004552.7598083.089328-.4131439-.1974089-.6012131-.3549538-.8310329-.9663165-1.4099128-1.9867618-2.7815295-3.1321184-4.0514846-3.477381-3.855465-7.4357382-7.0001883-12.4457261-8.6962136-1.9115888-.6470988-3.6699628-.4494731-5.462838.2695842-.7508307.3010991-1.4202873.7526383-2.1306521,1.1450825.0839123-.215874.2073297-.3644137.3534776-.4850908,2.910533-2.4024344,6.7818089-2.6541405,10.2768018-.6716765.2037239.1155215.4096513.2278736.6074534.3527242,4.9962471,3.1522753,9.6225235,6.6968156,12.6106709,11.9636078.2031324.3582943.3376769.4797626.7468917.2076831.471871-.3138498.6968078-.5303376.4128536-1.1600329-1.7160432-3.8081283-4.227033-6.9497999-7.568647-9.4638064C44.3668361,1.714738,39.9673135-.114271,34.7933156.4769562c1.010292-.5757656,2.1334462-.50073,3.2075447-.4267486,6.538646.4502758,11.5122525,3.7263737,15.4919094,8.7316117,1.2799126,1.609627,2.1703496,3.4505668,2.9735252,5.3273835.2417008.5643526.5627284.8712791,1.1659306.9067775.1986149.0116635.4395717.0095585.5846522.1168191,1.3154154.9722011,2.9651532.424198,4.3719075.9811742.4579224.1813677.5233394-.319275.6866173-.5623403,1.9086467-2.8408338,3.9102833-5.6023716,6.7299101-7.6317581,1.0737738-.772769,2.0925541-1.6584549,3.4118671-2.025863-.0493814.2308546-.2590253.2948334-.4271287.387176-3.9902061,2.1971673-6.7908762,5.5931713-9.3242454,9.255951-.4119164.5952144-.3922485.6088178-.4189829,1.4056316,1.6694158-2.6995405,3.8011455-4.7398814,6.1787983-6.4822582,5.0259029-3.6834361,10.4247648-6.4052907,16.9155901-6.1637918,3.5493593.1320311,6.3455606,2.0916881,7.5016507,5.4780944.2829651.8292202.5945299,1.6615635.5486299,2.6691013-.4632995-.4220136-.5022935-.9119845-.6452714-1.3407748-.394813-1.1851214-.9257092-2.2994091-1.6594179-3.308015-1.1731125-1.6124083-2.6516695-2.7499138-4.7346986-2.836043-1.2377743-.0512689-2.4807871-.0634904-3.7007821.2096858-7.8394344,1.7563474-13.9011543,6.1976864-18.7559315,12.449802-.1061607.1370065-.3646042.3047168-.1519097.5637818.4722709-.300055.7591143-.8302976,1.6033717-1.1172416-.6532468.6921235-1.1044477,1.1703213-1.5556658,1.6485775.2447057.028005.376872-.0572115.5124122-.1361567,3.0974361-1.8022725,6.4723391-2.4638897,10.0147403-2.4216285.3278885.0038438.6783127.0033035.9616586.2232654.1920531.1491801.2374828.3301543.0041012.4740569-.089333.0550524-.2829075.2999033-.3290032-.0117415-.0943693-.6392607-.6021607-.4079775-.9166815-.412283-.7332943-.0101704-1.4719526.051177-2.2012686.1413515-2.974815.3677717-5.7057579,1.3548613-8.1634086,3.1170551-.6803758.4878359-.6853294,1.0897072-.6809926,1.7452639.0042297.6541894.6212698.5949591,1.0185268.7424711,1.4512098.5386121,2.9518427.847527,4.4997413.9730586,2.6340151.2136042,5.2115872-.1869769,7.7797352-.6637391,4.053803-.7525462,8.1354999-1.2999438,12.2562158-1.3539916,3.3991966-.0445366,6.683668.381496,8.6347065,3.8882392-.7423855-2.4695341-.1590504-4.9121513-.1686359-7.3525121-.0140154-3.5364166-1.5919822-6.5764716-3.6220666-9.4036828-3.213016-4.474185-7.5649201-5.9148907-12.8591079-4.9228319.1316744-.0956667.253291-.2545322.3968823-.2777387,4.7249811-.7660976,9.0101254-.1945885,12.2216442,3.8811161,2.3826566,3.0237459,4.2667859,6.2485444,4.5743514,10.1875704.0466424.5973105.0280753,1.2078413-.035459,1.8042691-.1844976,1.7329968-.2521116,3.4310594.0547876,5.1877605.4037904,2.309868-.5318359,4.211175-2.533777,5.4954144-2.3643434,1.5165093-5.0372007,1.895837-7.7715935,2.0325226-8.1228108.4058706-15.5891647-2.0070502-22.8538681-5.2985374-.0370493-.016802-.0733831-.037338-.1098957-.0563997,9.7832355,7.1466567,16.5331136,16.6326867,21.0222995,27.8562084.7624948,1.90615,1.2147398,3.8960843,1.2706741,5.9617559.0285057,1.0561182.5632005,1.9920635.7182595,3.0184424.7929551,5.2458655-.3801369,9.9000711-4.1226869,13.7935924-1.456338,1.5149071-2.7700216,3.1072263-2.8032207,5.3783953-.0211162,1.4402149.2886224,2.7858417.962887,4.0569522.1275022.240268.4600829.549444.11593.7854219-.2803571.1920614-.5772455-.0870339-.7740723-.3109013-.5743211-.6529862-1.1729904-1.2923879-1.6781584-1.9971316-3.272681-4.565573-4.5688829-9.7012793-4.2863995-15.2631127.1374624-2.7082971.3537719-5.4125755.5327194-8.1187346.1383067-2.090218-.0356293-4.1665144-.5813028-6.177093-.6507857-2.397199-2.1838714-4.2905074-3.9694356-5.9303172-1.6505368-1.515655-3.4503341-2.8688616-5.1848585-4.293096-1.0270621-.843328-1.9532561-1.7303037-2.7864207-2.6576321.3160693,2.8803592.4739176,5.7917132.4633123,8.7368444-.0145791,4.0438072-.4802173,8.0266511-1.3166794,11.9777047-.5054204,2.3874543-.7370389,4.8203688-1.0976461,7.2319873-.4887006,3.2706386-.9773391,6.5419316-1.207807,9.8434682-.2188471,3.1355437-.3027389,6.2703444.2690903,9.3844438.1088197.592678.2431229,1.1791662.4835125,1.7349908.4730968,1.0940607,1.2167414,1.5565866,2.4033494,1.4966355.9636095-.0488162,1.8581088-.392438,2.7722261-.6530032,2.6338304-.7505386,5.1999674-.5458093,7.6523541.6583546,1.7263274.8476351,2.8612044,2.3126088,3.6093081,4.0287104,1.7999197,4.1284564,2.424672,8.4619601,1.9166284,12.931215-.6229105,5.4789851-3.5021839,9.6993757-7.5199164,13.2858272ZM40.2537965,26.0775891c-2.2850053-.3478976-4.3853739-1.2029494-6.5177131-1.9556865-1.4778133-.5216825-2.9639332-1.0133618-4.51785-1.2803608-.6225381-.1069578-.7872596.0466221-.629688.6630393.4402915,1.720574,1.631646,2.6044771,3.2666498,3.0176967,2.8379726.7171836,5.6210607.2216388,8.3986013-.4446888ZM60.0174352,71.0618521c-.6865507,5.1097029-.7701324,10.2457386-.5271094,15.3891214.081994,1.7357862.3652223,3.4513709.6099464,5.1698285.0824766.5792761.2340162,1.1300514.8303406,1.394643.6304524.2796447,1.3002952.4087715,1.9906568.4511762-.1336278-.1072672-.2748302-.1904869-.4236744-.2563585-.8795101-.3894016-1.4067039-1.0144184-1.6548121-1.9843558-.7048058-2.7546213-.9960311-5.5489252-.9843754-8.3811488.0180707-4.3873849.6555003-8.7180479,1.22404-13.0545752.175585-1.3371934.3516384-2.6742491.5341464-4.062718-.2134829.0571255-.2090453.1745271-.2430461.2590692-.6579792,1.6366277-1.1221384,3.3341478-1.3561127,5.075318ZM60.4790782,93.7849024c-.4807803-.1966719-.9293804-.4474401-1.3769077-.7048909-.1381944-.0796005-.2732649-.2226616-.4520711-.0960581-.5116202.3620962-1.0433753.6900948-1.6656666.931312,1.5555015,1.048405,5.0006219.8631584,6.1888711-.2481244-.9500604.4344249-1.8137592.4779265-2.6942257.1177613ZM62.7871133,41.0396259c-.57811-.7539754-1.0969211-1.5335314-1.5595295-2.3372241.371877,2.0547456.6375415,4.1323568.7939661,6.2340433.354672,4.7724854-.0986509,9.5032459-.6379708,14.2331033-.0973739.854496-.2375107,1.7073057-.143529,2.5912438.2918958-.6834067.6015976-1.359864.8716913-2.0517759.4859416-1.2446684,1.0106175-2.4825998,1.1997811-3.8170758.3079489-2.1730751.2439141-4.3618685.2215436-6.5478351-.0285698-2.8256579-.290017-5.5905375-.7459528-8.3044794ZM60.6907326,36.1040661c.4914506,1.1264263,1.0895384,2.1956324,1.7716369,3.219673-.1584481-.7862094-.329581-1.5690846-.522085-2.346343-.9408275-1.5849993-1.5657899-3.4015013-2.0104607-5.2405413-.1810331-.7483147-.3050183-1.5037232-.40412-2.2680424-.1664242-.4169765-.3510439-.8291843-.5271117-1.2436506.0229043.9149642.0987243,1.8013908.2233029,2.6613027.5779922,1.7204468,1.0652087,3.460152,1.4688377,5.2176016ZM58.3086416,26.7151477c-.15873.3232844-.3173117.6469304-.476796.9701841.2239628.3151128.4111583.6497036.5702445.998555-.0189961-.428559-.0279667-.8613609-.0260714-1.2986676.0761346-.0278861.144226-.069968.218062-.1021555-.0948039-.2134209-.1787036-.429745-.2759941-.642497.0906272-.0711485.1821191-.1413431.2729289-.2122471-.2920023.0047919-.5838294-.004869-.875156-.0231618.1944359.1085939.3907034.214418.5927823.3099899ZM70.4392295,47.0955346c-.598825-.780037-1.2089176-1.5511706-1.8780461-2.2668743-1.7595424-1.8816629-3.4719907-3.8183839-5.1023737-5.7979793.1102273.6892141.221109,1.3783661.3102611,2.0717572,1.8062309,2.2194369,4.0603836,4.1996055,6.6701587,5.9930964ZM78.7349201,80.3077928c-.0163301-.1639634-.0201162-.3303482-.0506021-.4916004-.6297863-3.3329795-.8156193-6.6929641-.7575341-10.0833194.0578663-3.3722893.4314883-6.7462081-.0154595-10.1216521-.2174784-1.6418751-.5849628-3.0260979-1.1540859-3.7530681.6989536,3.2322424.4250238,6.3946057.1686448,9.5621893-.1941904,2.3990629-.3841911,4.8029192-.2095195,7.2136025.1939958,2.6787739.746018,5.2709433,2.0185563,7.6738483ZM84.9407284,56.026935c-2.8134182-5.9805535-6.6146363-11.3973719-9.8745534-17.12488-3.0539937-5.3657219-7.2566143-9.6783686-12.5775993-12.8633975-.1802722-.1078676-.3612939-.2231439-.5473695-.3420044.2565911-.0141785.5094375-.1442192.6908248-.3289721-.4699637.0969098-.900051.2832738-1.308298.5425328-.0145398.0092143-.0285661.0192793-.0430232.0286452.1003589.2733246.2238522.5025544.3503671.7223663.7706546,1.3397003,1.726004,2.5479112,2.6954796,3.7461501.8644716,1.0684649,1.7074486,2.1568238,2.2392724,3.4385649.3359657.8094864.5723015,1.6428182-.0059648,2.7214877-.5758225-3.8357787-3.4633021-6.1148214-5.1930303-9.1064616.4071294,4.0137012,1.390067,7.8088518,3.5363601,11.2945273,1.3643357,2.2156209,2.9869823,4.1938337,4.6582655,6.1528754,1.9099991,2.2386662,3.5709231,4.681575,5.7262069,6.7228368,1.2250373,1.1602839,1.9711561,2.6843841,2.5410067,4.2827149.8456771,2.3708716,1.0865621,4.8246746,1.0588758,7.316109-.0582981,5.2552365-.4150938,10.5183184.4271603,15.7483881.2498344,1.5508062.5294752,3.0958659,1.4319836,4.4414821-.1250074-1.9102615.3316526-3.6229625,1.5157974-5.1069642.7722515-.9681087,1.601927-1.8904638,2.4005339-2.8378512,2.96654-3.5192835,3.8255629-7.5969186,3.0433259-12.0405005-.4617491-2.6227082-1.6418133-5.0186084-2.7656214-7.407649ZM70.772597,31.6036849c6.223152,8.2670482,11.1609511,17.322437,16.1610113,26.3395654-3.2658619-10.0807901-8.5309838-18.9353971-16.1610113-26.3395654ZM70.6931192,24.5513601c2.5604335,1.0369218,4.9085092,1.6733337,7.2710642,2.2682606,4.0546259,1.0209062,8.1119601,1.3276367,12.1833423.1056226.9601512-.2881985,1.9274231-.5599278,2.7066531-1.2504049.6513804-.5770831.6041356-1.1476613.0031603-1.705168-.4973962-.4614221-1.1025139-.7497812-1.7384205-.9727569-3.3624627-1.1790599-6.7712416-.9832627-10.2037914-.3757345-3.3195337.5874887-6.541495,1.6751621-10.2220081,1.9301812ZM63.6446315,24.7567783c1.2889399.7141598,2.5929169,1.386235,3.9562586,1.9454688,6.609052,2.710918,13.3577573,4.7906469,20.6187062,4.5077643,2.5526998-.099419,5.1202142-.2986233,7.3445332-1.6971093,1.8971767-1.1926892,1.6465834-1.3885871.8990656-3.0529882-.0946068-.2106275-.1840648-.4236228-.2757614-.6354945.4117925.0469449.3879955.58997.766667.6890173.115928-2.6449657-4.1580147-5.2413003-8.3071233-4.6978694,2.0786834.5057943,4.0217025.9389658,5.5830304,2.2710889-.3006362-.0537263-.4347385.0056025-.3341329.3625264.265836.9425116-.2368634,1.5176044-.9817988,1.976611-.7468742.460409-1.5440622.8032327-2.3858582,1.0346004-3.1480808.8656711-6.3226694.9776017-9.5443972.4263612-3.1738483-.5431523-6.2405449-1.5038175-9.3614223-2.2510692-2.4748181-.5926056-4.9560364-1.1365812-7.2602231-2.2627215-.3606886-.1762725-.6750041-.4367597-.9252788.179039-.1967537.4838734-.4619087.8337778.2077351,1.2047748ZM56.0027089,16.7682444c.5049198,2.2267921.2277122,4.3744837-.5632903,6.4889638-.1937063.5181031-.3407697.9181637-.4284597,1.2378293.1483018-.0409706.2906692-.0933543.4396154-.133054.0110385-.0029273.0234792-.0049974.0345005-.0078661.0357459.1753935.1017223.3466282.2344655.4937131.332156.3682133.7025597.689393,1.095605.9785473.1984996.0181184.4083831.0364645.6441276.0564292.4877628.0230818,1.1458494.0246412,1.8542714-.0160728.145165-.1125687.2898648-.2257194.4350298-.3382881.0399925.0985854.0716396.1987265.1108606.2973396.202647-.0185141.4054561-.0362808.61015-.0639265.1390975-.0187378.2614428-.0575381.3856831-.0941277.01372-.0094552.0272057-.0189793.0410083-.028283.0022902-.0012992.0004374-.0001896.0030134-.0015956.0707547-.0394545.143446-.0755408.2183433-.1061442.0004374-.0001896.0016807-.000524.002001-.000748.0148169-.003662.026038-.0063448.0372076-.008852.0021383.0100433.0054816.0181506.0077714.0281112.4254751-.1996789.7613138-.5212448,1.0127098-1.004458,1.2931726-2.4842512.9243253-4.9844946.116125-7.4876799-.1620833-.5018996-.5768149-.7791682-1.1098756-.5142778-.958102.4760838-1.7777388.1838568-2.6215244-.3098101-.4542393-.2657844-.9699006-.4732139-1.4843491-.5782483-.8332432-.1701395-1.2613543.2900962-1.0749897,1.1124987ZM54.126565,24.6353879c1.1442212-1.7083977,1.7221786-4.6202941,1.3663007-7.1036221-.5165629,1.2809017-1.5269486,6.636242-1.3663007,7.1036221ZM52.1932386,25.3479117c.2747837-.0925508.5602506-.1651683.8373329-.2534177-.0098968-.028672-.0111466-.0521316-.0229967-.0819501-.269176.1184995-.5440434.2199955-.8143363.3353677ZM21.1121463,51.6044838c8.170343-10.1365474,17.5828516-19.102689,29.5767899-25.1352862-.2444246.0801598-.4939366.1477559-.7325672.2424048-7.845678,3.1069725-14.8490989,7.5667316-20.9560506,13.3679787-3.1185016,2.9621499-5.6558696,6.4241939-7.5374876,10.3235746-.4138424.8572521-.3774026.8748293-.3506845,1.2013282ZM22.540199,68.4264316c.9254621-1.5354524,1.7165053-2.9602679,2.1687971-4.5372889,1.3881207-4.8395705,3.8324571-9.0367955,7.5113252-12.4957694.3432266-.322894.6644113-.6625701.8404838-1.1119971.6989921-1.7866053,1.9131053-3.2128179,3.2400417-4.545828,3.2790204-3.2936877,7.5001102-5.3478235,11.0156188-8.3330873-.4120126-.5870391-.1443645-1.0528177.2384962-1.5296569,1.2264783-1.5280535,2.7922941-2.6885191,4.262996-3.949198,1.646553-1.4114339,2.6289327-3.3042839,3.8059338-5.0774799-1.590523,1.1211441-3.0737885,2.3622277-4.7705996,3.3055727-1.7542621.975194-3.5470929,1.9192714-4.6128989,3.7522389-.0554117.0954909-.2141516.1308499-.3353174.2002776-.2410845-.4898054.0682346-.7899639.2949335-1.1120441.8743101-1.2427115,2.1177655-2.0296215,3.4183825-2.7356757,2.0069921-1.0896831,3.8403083-2.4248675,5.6064712-3.8770505-.1898746-.0301521-.3789406-.0630565-.5657604-.1070697-1.0326859.3302471-2.0715458.6295444-3.1021921.9493854-1.9271027.5978094-3.7265669,1.4557748-5.4679266,2.4927132-6.7625302,4.0270232-12.537651,9.2354166-17.9956986,14.8378089-2.3379655,2.3997323-4.6509987,4.8176684-6.2952723,7.7741587-.3009935.5411618-.75525,1.0557403-.6095494,1.7549955.1350397.6472027.0687408,1.2859494-.188586,1.8716218-1.0506076,2.3926668-.4261598,4.9215081-.3405686,7.328792.058802,1.657532,1.2711394,3.307484,1.8808901,5.144581ZM47.7619729,36.3200906c-.2489465.3215869-.445716.6595859-.4447635,1.0815711,1.3688342-1.5093824,2.9682646-2.8059047,4.1432589-4.49909-1.3079117,1.0604106-2.6565222,2.071839-3.6984954,3.4175189ZM33.8638324,50.9111638c-3.4483969,2.9755288-6.2235688,6.4194203-7.5871344,10.8432916-.6908454,2.2421301-1.4319562,4.4678373-2.7364969,6.4430073-.7786761,1.1792048-1.1783761,2.4503578-1.2162889,4.0984304.2064311-.2621936.2873776-.35279.354792-.4523245,1.4558354-2.1428097,2.5590895-4.4652352,3.4989901-6.8708365,1.4501053-3.7107636,2.917903-7.4150566,5.2075829-10.7148181.790942-1.1399763,1.6502618-2.2325072,2.4785552-3.3467502ZM53.9988429,32.4764781c-1.1157183,1.3320912-1.960183,2.8373966-3.365523,3.8738883.7858164-1.053248,1.5716328-2.106496,2.3575663-3.1597096-1.6871911,1.2444633-2.6951663,3.0867253-4.6323952,4.1641444-1.922093,1.069207-3.5630984,2.6895292-5.4147757,3.952968-2.0442013,1.3947271-4.0878469,2.7936252-5.8532559,4.5463572-1.1143678,1.106654-2.1440841,2.2820112-2.9382564,3.8898189,6.8527473-3.3437521,18.8688133-13.8286385,19.84664-17.2674673ZM45.6122872,54.8451744c.3144411-.2496062.551917-.5486084.779154-.8551993,2.4158698-3.2607123,4.5727551-6.6939601,6.7416533-10.1191616,1.2407545-1.9594323,2.2733926-4.0120755,2.7659795-6.2978265.2217867-1.0285074.4170428-2.0632832.6015762-3.0992376.3251174-1.8274983.6067787-3.6603856.6914034-5.5142058-.1655462.3243988-.3345304.6466424-.5063189.9671714-.1428525,1.1240304-.3619134,2.2454535-.6682528,3.3647064-1.0898697,3.9812444-2.6261985,7.7819446-4.4707202,11.4675996-1.489366,2.9761775-3.2952838,5.7644317-5.0379861,8.5908535-.3050224.494684-.5979598.9967358-.8964884,1.4952998ZM21.0989063,91.2848481c.0244171.9301675.1797682,1.8278114.6825599,2.6597234.5237466.8662506,1.4519102,1.0840004,2.2686862,1.5076429-.7714418.214061-1.4876147.0624789-2.0525885-.4300588-1.6579851-1.4457038-2.055962-3.2167604-1.1248568-5.289312-.7223086.1083282-1.145898.4773959-1.3907089,1.0464524-.6783351,1.5760013.2736159,4.0974405,1.8182414,4.849002,2.1936049,1.0673124,5.3629501.5488667,7.3177347-1.2101205-3.0820682.2629737-5.4053233-1.1654706-7.519068-3.1333294ZM21.4883765,90.341234c.144628.8830425.9490903,1.7850795,2.0949936,2.3339259-.7218458-.7428347-1.1345452-1.7627227-2.0949936-2.3339259ZM28.5972764,82.8264925c2.058108-3.6288152,3.9466941-7.3522882,6.1092698-10.9231178,2.239448-3.697357,4.5980904-7.3171337,7.0305286-10.889718.3153849-.4632669.635384-.9314124.7884044-1.4890152-.6675185.6991265-1.2417975,1.4710699-1.7912619,2.2590196-3.6581602,5.2461572-6.9666935,10.71273-10.1889331,16.2324576-1.7919908,3.0695178-3.5429279,6.162994-5.3345845,9.2326736-.6427912,1.1012515-1.4735235,2.0259043-2.7345873,2.4587748-.13444.0461885-.2903812.0884769-.3715974.2756892.6166094.2046464,1.1762811.1393111,1.6954348-.2458268.5553713-.4118386,1.0116649-.9207929,1.4260055-1.4679652,1.2937775-1.708604,2.3180455-3.5859655,3.3713211-5.4429717ZM53.3757294,90.837144c1.4303335-.1273388,2.7651517.3804467,4.0326138,1.0248079.1928382.0980097.3470818.208726.4257832-.1310111.2489192-1.0758169.51944-2.1454777.3604594-3.2663324-.108126-.7639172-.0721115-1.5325582-.0516998-2.3000583.106027-3.9601295.5284614-7.8946606.9811353-11.8255868.3766201-3.2680728.6114679-6.5498742.9658265-9.8188261.3110231-2.8711758.843005-5.7183976,1.1519167-8.5897485.7674324-7.1356841.1150947-14.1215231-1.705338-20.9735852-.1913593-.5715721-.3533308-1.1556934-.4969664-1.7476592-.1806061-.610335-.3525187-1.2216782-.5514347-1.8298865-.1119338-.3421856-.2222462-.6881571-.4245871-1.0110395-.1425052.1403231-.1277022.2999572-.1461297.4388858-.2034267,1.5241844-.4443714,3.042689-.7751994,4.5440718-.5184151,2.353737-1.0850783,4.6993412-2.3345194,6.7978923-2.9379188,4.9344163-6.0241695,9.7748029-9.2578462,14.5211078-3.3921456,4.9786326-6.8496921,9.9131119-10.0410914,15.0264936-2.7448961,4.3978548-5.1495694,8.9753839-7.3408017,13.6695719-.6434215,1.3783651-1.2889722,2.7544505-1.7420031,4.2105762-.056628.1819046-.1636299.3663754.0474686.5451343,1.127225.9545035,2.3084831,1.7848659,3.8816973,1.7315705.6166028-.0209351,1.2336201-.0502093,1.8487482-.0981689,3.0533795-.238514,5.5164827.8555635,7.4210642,3.2469048.5733992.7202111,1.0971943,1.4745768,1.6169054,2.23245.2169778.3163685.3488571.3525091.5697619-.0221657,2.5958731-4.3994639,6.786721-5.9501285,11.5642366-6.3753985ZM79.265549,108.2326357c.6291068-5.0518968-.7812339-9.4120174-4.3020368-13.0846239-1.0162681-1.0602016-2.1774042-1.9421599-3.574422-2.4266166-1.8267767-.6335028-3.6323067-.3927333-5.3677274.3702418-1.0696681.4704035-2.0977674,1.0348936-3.1505265,1.5447448-1.867303.9043837-3.7291806.8792255-5.6041592-.0085238-.5838107-.2764369-1.0313348-.7361195-1.588565-1.0376356-.1235005-.0668223-.250636-.226064-.4022402-.1067356-.1466969.1156174-.1212244.3082221-.0798066.4673426.1292467.4980406.4843562.8284038.8811594,1.1173263,1.2649441.9205383,2.7128019,1.167444,4.2305999,1.1048639,1.9230735-.0791933,3.5934824-.8239916,5.0942714-1.9956751.3681464-.2873269.7514569-.5552488,1.2302545-.9073954-.1783352.664545-.4686816,1.0936916-.8064508,1.4850487-1.5312313,1.7736995-3.5385682,2.4722386-5.8112639,2.4111092-2.1390308-.0574805-4.0393152-.6421593-4.9921137-2.837247-.0211-.0485673-.0427249-.0516132-.0894989.0279036.074987.6749157.3620296,1.2750468.8803406,1.7627165.8060867.7588075,1.7779147,1.1760974,2.8591229,1.3397659,2.183504.3304794,4.2540177-.1184466,6.255293-.9660996,1.3293446-.5630673,2.5391926-1.31354,3.511571-2.4340499.1299916.2369917.0108372.3939725-.0646174.5529149-.2208766.4650804-.5809707.8124722-.9816408,1.1191243-1.8339794,1.4036939-3.9032782,2.2395029-6.1915481,2.5232359-1.418003.1758741-2.8018435.0527431-4.1104452-.5771782-1.0836794-.521594-1.9878284-1.2419729-2.474944-2.3740596-.5465145-1.2702809-.080564-2.086204,1.2655255-2.2784365.1652083-.0235981.3318132-.0411241.4956209-.0725131.3818379-.0732466.7094208-.2549946,1.0815748-.5356095-.3216101-.0944956-.5415957-.1745903-.7679862-.2233598-4.0793728-.877791-7.7735137.0380666-11.1779531,2.3712106-1.5152197,1.0384954-2.384884,2.4671833-2.8283088,4.2240415-.323431,1.2813483-.1782934,2.5536748-.0954113,3.8343642.110514,1.7114677-.0942458,3.3735599-.8675986,4.9239332-.481795.9659798-.6952311,1.9742937-.6821243,3.0468804.055103,4.4773984,1.6509588,8.2173877,5.3228616,10.9098037,1.8559296,1.3609205,3.7812558,2.6285507,5.6967647,3.9062103.9089261.6062573,1.9206705,1.0201986,2.9933806,1.2439676,4.2183141.8799367,8.3132436.4555148,12.142041-1.5153415,6.8961455-3.5503461,11.0969326-9.0826931,12.0710071-16.9056494ZM40.7050748,15.0593903c-.0899262.4550178.4230698.5390141.7504893.6414509,2.6254119.8214009,5.3365865,1.15259,8.0598818,1.4078851-2.7437692-.7597996-5.6357442-.8636321-8.314112-1.929162,2.1750238-.1858324,4.2440139.5062418,6.3659229.7410764-1.9457011-.6552769-3.9273629-1.100693-5.9796088-1.1348372-.3067849-.0050861-.805494-.116056-.8825732.2735868ZM30.6300692,4.2854192c-3.0590086,2.8276534-5.3294947,6.1707783-6.428659,10.2468774,1.5254373-3.8017374,3.6920675-7.1949707,6.428659-10.2468774ZM51.4933633,18.911418c-1.8556263-.1144184-3.7244963-.1530182-5.5499543.4071607,1.8498677-.1357546,3.6999695-.2714405,5.5499543-.4071607ZM46.1718329,13.7969701c1.6427455.4206471,3.0859476,1.0995318,4.8362062,1.7314814-1.4537333-.9994188-3.8368565-1.8395823-4.8362062-1.7314814ZM72.4494757,20.6569701c.1760608-.0644312.4114976-.1871822.3589873-.4146403-.0256121-.1111545-.2471909-.2360572-.3916127-.2520273-2.2937765-.2535251-4.5807085-.1150779-6.8666288.1078295,2.2447968.3409818,4.5185146-.1045381,6.9939917.2026288-.787474.458722-1.445425.3986766-2.258365.688588.9109847.0731304,1.5441257-.1054187,2.1636274-.3323787ZM71.2764394,13.596895c-1.1612013.4653928-2.24449,1.0440752-3.0137541,2.0790943.9998404-.6939165,2.1278053-1.2016458,3.0089763-2.0680295,1.4531135-.5478218,2.6772048-1.4091258,3.843576-2.7183186-.9605612-.0269445-1.6315456.0526329-2.0640768.7608778.3960869-.1130817.7394454-.4199696,1.2156248-.3457729-.182258.3639556-.5243408.5114804-.7896217.7414332-.6816323.5908414-1.5957047.8521196-2.2007244,1.5507157ZM70.7159545,18.3429263c-1.0409676-.0646285-2.0041617.0923284-2.8878711.5940871.96268-.1980761,1.9252084-.3960696,2.8878711-.5940871Z"/>
  </g>
</svg>