<?xml version="1.0" encoding="UTF-8"?>
<svg id="Layer_2" xmlns="http://www.w3.org/2000/svg" viewBox="0 0 380.0512642 348.9860831">
  <g id="Layer_1-2" data-name="Layer_1">
    <path d="M378.6340993,341.1177382c-1.468718-.7662533-3.0781656-1.1074241-4.6958991-1.3515309-5.9745005-.901196-11.9961521-1.1005849-18.0240509-1.0227233-6.4130641.0828595-12.8319811-.2788289-19.2387321.2238522-1.0430436.0815443-1.4108478-.3172336-1.2841911-1.3336438.1435574-1.1518789.2383198-2.310597.3263745-3.468263.4140346-5.4437392,1.0006274-10.8685391.4944609-16.3567332-.7512597-8.1449597-.7169979-16.333059-1.0415968-24.5014299-.1713088-4.3100105-.6426874-8.574514-1.2247427-12.8377023-.6981244-5.1133533-1.5594689-10.2125021-1.4806865-15.4000345.0077599-.5110986-.0137442-1.0679672.1736762-1.5233.6222356-1.5114629.5915907-1.6627145-.9776766-2.3434778-1.2259264-.5318792-2.6137577-.6113192-3.7819454-1.2870846-3.4287403-1.9841568-7.0850154-1.8034441-10.7838383-1.1555616-.6025729.1057445-1.400326.2101738-1.4486607,1.0371908-.0453097.7741447.6549191,1.0708607,1.2428271,1.3170719,1.566045.6563,3.241583.8598977,4.9112681,1.0079927,2.5272155.2238522,5.0629142.3509035,7.5915765.5602882.8353029.0691811,1.743075.0470853,1.7202558,1.3715224-.1534216,8.9217349.5189242,17.8000672,1.4987052,26.658934.109756.992473-.284024,1.4625364-1.2185611,1.7810852-2.7893409.9506486-5.4215776.5673905-7.9993637-.7052266-.4327766-.2138565-1.0046389-.764675-1.3573179-.2285871-.3261114.4955789.3578085.8883067.7220616,1.2123795,2.6476249,2.3553149,5.5721057,2.3913522,8.6577024.9877381,1.3660642-.6213149,1.4240659-.581858,1.4588537.889885.1058103,4.4759926.1866312,8.9525113.3276239,13.4274517.0704306,2.2348397.2504199,4.4659968.3812196,6.6987322.2312833,3.9493743.5679166,7.884018.1820937,11.8581186-.3153923,3.2488825-.66018,6.5127586-.566404,9.7879457.0466249,1.6298337.1413215,3.2722936.7176555,4.8297896.0996945.2696223.2187228.6078996.6073077.5495033.3128276-.0470853.3286104-.359321.4005535-.598956.0618816-.2057021.1563809-.4200846.1457275-.6257867-.0478744-.9235549.4214656-1.0453452,1.2111958-.9190831,5.6741019.9054047,11.4146886.724429,17.126143.9277636,5.4608372.1943911,10.9339061.0849639,16.378829.6510391,2.2365495.2325328,4.4836867.4655916,6.6261973,1.294976-17.5505022,2.2243179-35.1068571,2.0870078-52.8488569.2133304.6031647.872787,1.5048868.8759435,2.2264223,1.3649463-2.1306735.096801-4.1066759.2370045-6.084388.2677809-8.5676748.1325752-17.13581.2327958-25.7037479.3459056-.3013851.0039457-.6025071.0231481-.9037607.0313025-5.2484933.1433601-10.4972496.2764615-15.7452167.4382348-.9361153.028672-1.2002794-.336699-1.0836842-1.2413146.359321-2.7877627.2606787-5.5939386.0923292-8.3838056-.4045649-6.7039931-.700163-13.4124581-.6261155-20.12671.0641833-5.8093733.2607445-11.6187466.5026811-17.4239112.1845268-4.4283813.3630694-8.8567625.5353646-13.2856698.3397898-8.7328678.6788562-17.4615268.2325985-26.2014969-.050176-.9830033-.4358016-1.3015521-1.3556081-1.1826553-1.3219382.17098-2.6498607.2956638-3.9712071.4713786-1.1313613.1499363-1.4915372-.2893507-1.4810154-1.4399144.0603691-6.5866746.1413873-13.1709817-.1443466-19.7600237-.3113808-7.1803696-.3987121-14.3709981-.5425326-21.5579439-.1319176-6.5861485-.0166377-13.1744013-.2516694-19.761339-.3286104-9.2100334.0064446-18.426906-.2279952-27.6424634-.2277322-8.9535635-.1024565-17.9160705-.1519749-26.8746319-.005787-1.0492909.2283898-1.8226465,1.1570741-2.5247166,1.210867-.9154005,1.8834101-2.3092818,1.502059-3.8649365-1.8853172-7.6896269-4.8359054-14.9791607-8.4658102-22.0003874-.8292529-1.6043182-1.6256907-3.2354671-2.7546189-4.6648597-1.0154237-1.2860324-1.952394-1.3683659-3.1414939-.2391089-.7901248.7502075-1.3144414,1.7003301-1.8094942,2.6580809-1.743075,3.3727772-3.2509869,6.8476163-4.3933304,10.4697612-1.1000588,3.4882545-2.0940443,7.0107049-3.2252083,10.4884375-.6926004,2.1296213-.4612514,2.5994217,1.7690508,2.8119629.2141195.0205176.4301462.0189393.6451863.0305133,4.9397429.2672548,9.8804064.5179378,14.818308.815706,1.1985038.0723377,2.3880641.2969791,3.5805179.4600676.255089.0349851.5472674.0878574.5914592.3987779.0538587.3793125-.2555493.5529229-.5404282.6202627-.8356975.1972846-1.6819168.4261347-2.5480619.3261772-4.4940113-.5195161-8.9999911-.7880861-13.5245815-.6978613-.6284172.0126262-1.1733829-.0449809-1.558614-.6634023-.3019769-.485057-.6953624-.3174967-.8601608.1325752-.2050444.5597621-.3397898,1.1534572-.436525,1.7434696-.406472,2.4797357-.2306914,4.9823564-.2663999,7.4768226-.0062473.4366565.1993232.929868-.2624543,1.4017727-2.6184925-2.7183185-5.2678929-5.3716646-8.1523908-7.7509167-11.3030256-9.3239324-21.9187116-19.4070159-32.6631588-29.3501588-3.7263769-3.4485345-7.3810738-6.994133-11.5927708-9.875014-.5898151-.4035127-.6935211-.9225027-.6851694-1.5548656.1236317-9.3449761-.4141003-18.6852173-.2143168-28.0304565.0330123-1.5453959.0374841-3.1313009.3861517-4.621194.6626789-2.8322175.2665972-5.3406252-.8718663-8.0652568-4.1321913-9.8900076-7.908547-19.9278471-11.9714257-29.847842-.9475578-2.3134905-1.7933169-4.5054538-1.3682343-7.0462161.1248154-.7462618-.0514255-1.5425024-.08549-2.316121-.1156745-2.6220436-.2075434-5.2456655-.3549807-7.8663939-.057081-1.0150949.339198-1.4280773,1.3435738-1.3549505.7002287.0507679,1.3704702-.1183707,1.9813291-.4787439.3781288-.2230631.7667136-.4787439.7220616-.9769532-.0384705-.4292913-.4074584-.6434108-.7675685-.8025537-.5956679-.2633092-1.2250057-.4719047-1.8766367-.3974627-1.1992272.136784-1.4914714-.4595416-1.4344562-1.5219848.0483347-.8996177.0188078-1.8108094-.0676686-2.7077966-.0641175-.6652436-.3495225-1.323648-1.1204449-1.391777-.8360921-.073916-1.0308119.6347303-1.2098806,1.2649887-.2981628,1.0490279-.3098026,2.1293583-.2688989,3.206006.0307106.8080776-.2737652,1.1676617-1.1177487,1.1871271-.9410475.0215698-1.9101751.0736529-2.7530406.5689687-.8292529.4868983-.8234658,1.0911153.0128235,1.5414502.8149168.4387609,1.7210449.6518283,2.6261866.4611198.9912893-.2091217,1.3361427.1628255,1.3709963,1.1003219.1261964,3.399871-.0615528,6.806055.057081,10.1954042.1048896,2.9958321-.895935,5.5131834-2.0985819,8.1260204-1.3473879,2.9271771-2.363272,6.007184-3.5156113,9.0232707-2.7812523,7.2805902-5.6504277,14.5259322-8.6842043,21.7049867-.6924689,1.6385142-.8346453,3.2191583.0801633,4.8305788.476508.8391171.5704812,1.7873983.5639709,2.7525145-.0254497,3.788127-.0636572,7.5744127-.1760436,11.3625397-.1876834,6.3259959-.2314148,12.6562005-.2918497,18.9850899-.0090093.9503856-.3169048,1.6237836-1.0342973,2.224844-1.7820059,1.4930497-3.5417186,3.0142454-5.2756528,4.5627978-11.8196481,10.5568295-23.2749116,21.5079651-34.9217384,32.2518204-3.7338738,3.4445888-7.4522278,6.9094322-11.3754948,10.1425319-.2455535.2022825-.4446794.6128974-.8463509.4169281-.124355-.0605006-.1761094-.3737885-.1757148-.5713361.0093381-4.3397347-.2930334-8.7118241,1.2662382-12.8997812-.0526092-.0681289-.1052184-.1365209-.1578934-.2049129-1.6747488.0265677-3.3521939.0023674-5.0238519.0889096-5.2400758.2709375-10.478113.5815949-15.7165447.8833088-.522015.0299873-.7620446-.1202121-.5146497-.6610349.1431628-.3130249.305265-.6173692.4544779-.9275006,3.6018904-7.4897119,7.1302594-15.0130936,10.2970715-22.699827.2947432-.7154854.5372059-1.4535928.7781562-2.1895958.0924607-.2822485.1680865-.6318368-.1563809-.8128125-.3148004-.1759778-.5879081.0428765-.7940704.2654135-.3500486.3777342-.6975983.7633598-.9993779,1.1797618-1.3214779,1.8223834-2.3024426,3.8346862-3.2409254,5.8711892-2.886668,6.263654-5.1729333,12.7661538-7.6700957,19.1850049-.7696729,1.9786328-.6462385,3.7781313.6756339,5.4642568.7477743.9538052,1.0331794,2.0246659,1.0312723,3.246252-.0217671,14.0408752-.0925265,28.0828026.0544505,42.1220996.0279486,2.6746528-.4818347,4.5709522-3.0677095,5.5781558-.0780589.0305133-.1436889.0941705-.2131989.1452015-16.1006578,11.7647372-32.7188588,22.7950497-48.8988907,34.4461511-4.0167141,2.8927181-7.9833837,5.8719783-11.4178452,9.4754469-1.4103875,1.4798974-1.2275047,2.9166553.4833472,4.0643254.3560987.2388459.7310051.4824266,1.1330711.6136866,1.1710155.382469,1.4850926,1.1516159,1.4785822,2.356104-.0295927,5.4668873-.2237865,10.9374572.1791344,16.3998727.037221.5050485-.0630653,1.1389897.6639284,1.1965968.7367264.0581332.7809181-.5495033.7888753-1.0732281.0907509-5.9840359.1757148-11.9680719.2454878-17.9521078.0064446-.5573947-.0368265-1.4025619-.5255661-1.4956802-1.0727678-.2038607-1.2530201-1.2058034-1.9293117-1.7021714-1.0385718-.7620446-.7484977-1.2273731.0596457-1.9589044,5.4760281-4.9563148,11.4791349-9.2197661,17.5332069-13.4140363,14.2365158-9.8629139,28.0867483-20.2437655,41.6732114-30.9802555.520634-.4114041,1.0325875-.8338562,1.6433806-1.3278568.050176.3498513.0909482.5145182.0952227.6802372.1617734,6.3252067.3381458,12.6498874.4744694,18.9756202.1475689,6.8481424-.2739625,13.6839217-.5301037,20.5223314-.1336274,3.5679574-.4406022,7.1296017-.5398364,10.6978222-.1841323,6.6182401-.8577276,13.2383215-.0869367,19.8578769.0876601.7523119-.1047581.9885273-.8194544,1.0829608-1.1470783.1517776-2.3217107.2093847-3.4071047.6744502-.3094737.1325752-.6805003.2719897-.630653.707594.032815.2864572.3016481.4150868.5535805.4724308,2.5265579.5750188,4.9683492.3046074,7.2665172-.884361.7347535-.3801016.7773013-.9906316-.1291556-1.2281623-.7440917-.1949172-.9464399-.6118453-.9605129-1.2933977-.1147539-5.5560599-.1965612-11.1173808.0547794-16.6658123.4496773-9.9292015,1.1185378-19.8494594,1.1900206-29.7923393.0672083-9.3441869.02979-18.6875847-.2001781-28.0309825-.3432752-13.9451264.3077639-27.9031421-.5265525-41.8430077-.0537272-.8972503-.3847707-2.0212463.021504-2.6407199.5058377-.7712512,1.7616198-.1928128,2.668274-.4011453.1255388-.028672.2548259-.0531353.3830609-.056818,4.2157742-.1210012,8.4317457-.2375306,12.64752-.359584.6668876-.0192024.949728.3040813.8929758.9498595-.0752969.8570042-.1973503,1.711641-.2293762,2.5696974-.2567988,6.8804971-.540494,13.760205-.7312682,20.6422804-.2313491,8.3480313-.3742489,16.6984301-.5662068,25.0475136-.1484238,6.4546254-.3689222,12.9079356-.4581606,19.3633502-.1321149,9.555676-.4630927,19.1045128-.8141277,28.6536127-.1865655,5.0746855-.3353838,10.1506863-.4961707,15.226161-.2684386,8.4742935-.5309586,16.9485869-.7994629,25.4228804-.1607869,5.0757377-.3861517,10.1498972-.4799276,15.226424-.1661136,8.9956508-.6586017,17.9836734-.6073735,26.984059.0031566.5597621.0005919,1.1203134-.025647,1.6792864-.3389349,7.2308745-.243778,14.4659577-.1344823,21.6986736.0464934,3.0810591.1515146,3.063698-2.9642008,2.7133206-.7067391-.0794399-1.4696386-.3201271-2.2575932.2354263,1.0083873.7223246,2.0762229.9361811,3.1175567,1.0790151,6.2629963.8596347,12.5522315,1.5109369,18.8506076,2.025192,9.4797872.7738817,18.9850899,1.1700291,28.4934834,1.2691975,10.2471585.1067967,20.4965528.205176,30.7447635-.1404666,5.7219763-.1930758,11.4507259-.1252099,17.1768452-.2288501,11.3209127-.205176,22.6443901-.2764615,33.9647767-.5587099,5.2074581-.1299448,10.4174151-.1167925,15.6265829-.2175391,10.5025105-.2033346,21.0075857-.2827746,31.5095701-.558973,4.9920891-.13126,9.9860852-.0946966,14.980739-.2233261,11.6632014-.3003987,23.3331763-.3317011,34.9974957-.5971147,7.1474889-.1628255,14.2667003.5558164,21.421423.3585318,7.0143876-.1930758,14.020818-.4682221,21.0202776-.912507,2.4828922-.1575646,4.9852499-.427713,7.3104459-1.4499102.6981244-.3069748,1.5390828-.5994821,1.5412529-1.5425024.0019728-.8893589-.7262703-1.3368003-1.4171609-1.6971735ZM267.5326951,133.2900051c-5.6256356-.707594-11.2886895-1.0398213-16.9611474-1.2368428-.707331-.0247263-1.0356783-.2422655-.8224137-1.0282472,2.0055293-7.3923848,3.9506895-14.8071285,7.832461-21.5132261.3931224-.6791851.6989135-1.7705634,1.544541-1.7187433.8747598.0536614,1.242038,1.1232069,1.5807098,1.8910385.4056829.9198722,1.3892123,1.8673643.0624735,2.91534-.3618199.2856681-.0539902.9132961.1038375,1.3489004.3528106.9743228.8548341,1.8784123,1.4309708,2.7393622,3.154975,4.7137863,4.9713084,9.9823368,6.4352258,15.4055584.3368963,1.2478907-.2929018,1.2991847-1.2066583,1.1968598ZM196.5993524,101.0258215c2.5877819,2.4000327,5.2409964,4.729569,7.8303566,7.1280235,11.7175862,10.8535455,23.3410677,21.8112573,35.8398351,31.7859658,2.9590714,2.361628,5.691989,5.003137,8.81941,7.1601151,1.0527763.7260073.3709608,1.8392184.6213807,2.7319969-.1971531.8722609.4052225,2.1425106-.5136633,2.4852596-.7118685.2656766-1.3291062-.9038264-1.9326655-1.4846322-3.9721278-3.82206-7.5456092-8.0360586-11.5728451-11.8055094-13.1414548-12.3000361-26.3683339-24.5019559-40.7786573-35.3362991-.648869-.4879505-.8734446-.8733131-.3081585-1.5364523.221156-.2593635.4026578-.5631817.552068-.8712087.3720787-.7670425.7563233-.8940937,1.4429394-.2572591ZM112.7094106,146.7705921c3.5371153-2.0246659,6.436278-4.888975,9.4238242-7.6093979,11.9007978-10.8359214,23.769241-21.7073541,35.6274911-32.5898347,2.1553998-1.9781067,4.1935468-4.0832648,6.5230174-5.8685587.6510391-.4989985,1.2525598-.8391171,1.7894369.1131098.4506637.7991341.9348659,1.4575385-.2816566,2.2069569-3.2008108,1.9715306-5.8965731,4.6012025-8.711561,7.0672598-7.5425184,6.6069291-15.097663,13.1993907-22.4636116,20.0054458-6.4491672,5.9585205-12.8524329,11.9649153-19.1101683,18.1249291-1.1040045,1.0869065-2.2329984,2.1482976-3.3583754,3.2131082-.2093847.1980737-.3913468.5521338-.7307421.4371826-.4068008-.1378362-.3247304-.559236-.3386061-.8904111-.0179529-.4298173-.0043403-.8606869-.0043403-1.4820018-.3714211-1.2994478.4016056-2.0212463,1.6352919-2.7277882ZM108.9384474,135.9154683c-5.4487371.1765039-10.8978688.3406447-16.3472635.4950528-.4098916.011574-.8677891.1060076-1.3258839-.4406022,1.3248317-.6465673,2.6799138-.5950103,3.9644994-.6868134,3.7650447-.2688331,7.5402825-.3932539,11.3108512-.5868559.7696729-.03972,1.5353344-.1607212,2.3050731-.1954433.5554219-.0249894,1.1077529.1746626,1.1420804.7909797.0385363.6918113-.6080311.6094778-1.0493567.6236823ZM253.9791128,345.497982c-4.3908314.0160458-8.781071.1551972-13.1719682.188078-6.027044.0452439-12.0481037.2525243-18.0685057.5184639-1.6081324.0712855-1.5991231-.0602376-1.4797001-1.6832321.265019-3.6032056.5500952-7.2114091.6142784-10.8211908.1720979-9.686936.162694-19.3772916.369251-29.0634385.0899618-4.2192596.1872231-8.4366779.1309312-12.6548853-.1365209-10.2253914-.9687331-20.3616102-3.7786574-30.2624027-3.8888079-13.7025979-10.4667362-25.8571695-20.2073336-36.3298242-5.8813822-6.3233654-12.348042-11.9985852-18.7100752-17.7987519-.466315-.4253456-.9804386-.7980819-1.4722691-1.1950185-.0881204.0886465-.1762409.1775561-.2642956.2664657,1.3260812,1.9541695,2.9590714,3.6647584,4.5963362,5.3485165,3.7528788,3.8594125,7.5648115,7.6622701,11.3864112,11.4540798,13.5701542,13.4648042,21.8253303,29.7207908,25.4074922,48.4160038,1.4355741,7.4920793,1.3690235,15.0651768.9689303,22.6437982-.1156745,2.1917002-.1489499,4.3857678-.2647559,6.5785201-.2133304,4.0395991-.2130673,8.08972-.342223,12.134054-.2791577,8.7389178-.3085531,17.479414-.2149744,26.2204362.0193339,1.8060746.1037059,3.6137274.2278637,5.4155933.074442,1.0805934-.3479442,1.5198804-1.4068364,1.420449-.298097-.0278829-.6097409-.0310394-.9021824.0236741-.8308969.1551972-1.1434614-.1202121-1.1542463-1.0058883-.0451124-3.7013218-.1457933-7.4021175-.2467373-11.1026502-.2805387-10.2832616-.5362853-20.5675753-.8723267-30.8492586-.1786741-5.4658351-.3222315-10.9258832.0585935-16.3888248.0532011-.7633598.2318751-1.3107588,1.0244331-1.5832745.9700483-.3338055.9088901-1.1855488.7695414-1.9515391-.174005-.9566987-.5782411-1.8820949-1.5830115-2.1885436-.6810264-.2078064-.929868.4648025-1.129783.9922099-.46329,1.2223753-.6153306,2.5231383-.6910879,3.8002271-.3539943,5.9703575-.6710306,11.9438716-.3827979,17.9297489.0517543,1.0745434.0331438,2.1527694.0321574,3.2294171-.0076941,8.482974.4402734,16.9520065.8670657,25.4189347.1989944,3.947796.4319875,7.901116.9207271,11.831551.2177364,1.7510979-.0155855,1.9710045-1.7353809,2.0015178-3.2612457.0576071-3.3704756.051557-3.190552-3.2680849.3221657-5.9416855.2514063-11.8838971.1248154-17.822163-.2596265-12.1861371-.2165527-24.3714851-.1703881-36.5578852.0036826-.9737967-.089633-1.9278649,1.0218026-2.5754845.5998109-.3495883.2499596-1.1171568-.1739392-1.586168-.5084024-.5626556-.9329588-.1812388-1.2768258.2438437-1.0722417,1.3260154-1.1566795,2.9524295-1.2272416,4.5328106-.1246181,2.7938127-.1708484,5.5934125-.2299023,8.3882774-.1964297,9.2981539-.5126769,18.5992013-.2777767,27.8994595.165193,6.538011.155526,13.0839135.6486717,19.6111396.0538587.713381-.038602,1.2229014-.8975133,1.1755531-.7567837-.0415613-1.7724047.325125-1.7593181-1.0335082.0178214-1.8518446.0067734-3.7047414.0660903-5.5555338.1019304-3.1818057.3274924-6.3617702.3605047-9.5438389.071417-6.8852319.5614719-13.7654659.2032031-20.6564849-.1652587-3.1794383-.1003521-6.3651898-.292573-9.5493629-.3450507-5.7178333-.9344055-11.4012075-1.8836732-17.0482814-.0475456-.2830376-.0539902-.6115822-.5614062-.810182-.1042978,1.1779205-.2706087,2.3042839-.2929018,3.4332778-.1156088,5.8561955.1534216,11.7039736.4179803,17.5525408.1089011,2.4079241.0610925,4.8229504.0706279,7.2348202.0453755,11.4514493-.1923525,22.9073704.5243824,34.3475088.0764807,1.220797-.2679782,1.6556122-1.5487497,1.6598209-6.7593643.0223589-13.518926.108375-20.2773697.2296393-1.1664122.0207806-1.5592058-.3009247-1.5559835-1.5185652.0367607-13.6486735-.09542-27.2986622.0674056-40.9452313.074442-6.2420842.1659163-12.4839053.1300105-18.7259895-.0070365-1.2202709.445074-1.5317175,1.5876806-1.540135,4.7351588-.0355112,9.4703833-.125736,14.2040953-.250946,1.6487073-.0436657,3.2932058-.2467373,5.038714-.3845734-.299478-.6165801-.6908248-.4703264-.9872778-.4724308-5.9841675-.0415613-11.9630082-.410878-17.950135-.2806702-1.871047.0407721-1.8706524.0099958-2.2898821-1.8163334-.0459673-.2001781-.1129125-.3956213-.1886698-.6576153-.1655875.1336274-.3293337.1988629-.3413023.285405-.2974394,2.145141-1.7103916,2.2982339-3.5316571,2.2711401-4.1302185-.0615528-8.2637908.0962749-12.3958506.171243-.3345289.0063131-.6680714.062605-1.0038497.1933389,1.9289829.6063213,3.9315529.6097409,5.9049248.7178528,2.8777902.1573016,5.7638663.2075434,8.6465229.2104369,1.1415544.0013152,1.4820018.4290282,1.4804893,1.5272457-.0273568,19.898386-.0357085,39.796772-.011311,59.695158.0014468,1.2097491-.4214656,1.5393458-1.5793288,1.5322436-6.8478794-.0415613-13.6961533-.017361-20.5442957-.0223589-1.557233-.0010522-1.5770272-.1120576-1.4714799-1.608527.1906427-2.7027988.3760902-5.4116476.3997643-8.1194443.0629995-7.1922067.0220301-14.3854656.0556343-21.5779354.0186763-4.0032987.1498048-8.0063344.1463194-12.0096332-.0037484-4.2989626-.1041663-8.5976621-.1663109-12.8966246-.0132181-.913033-.1978764-1.7963419-.5454261-2.6394047-.1105451-.268044-.232467-.6057952-.6146072-.5560795-.3742489.0486635-.446192.4074584-.4715759.6883917-.1277089,1.4133467-.2616651,2.8282718-.3169706,4.2455642-.2752778,7.0577902-.2441068,14.1197891-.3035552,21.1809988-.0362346,4.3044865-.1588141,8.608447-.1995205,12.9131966-.0594484,6.2860129.1711115,12.5667648.5053773,18.8425189.0633284,1.1887054-.3041471,1.6027399-1.5096216,1.5711744-2.8414241-.0749681-2.5756817.1688756-2.4880216-2.4939402.2887589-8.7733769.7222589-17.5430711.9040237-26.3182893.1274458-6.1529115-.1771616-12.3139775-.0803606-18.4684673.0812155-5.1599125.1183707-10.3290316.5910646-15.477107.0350509-.3816799.1747941-.8435889-.2514063-1.0445561-.5055746-.2383198-.7909797.2046499-1.0246961.5539751-.7848638,1.1726596-1.1652285,2.4949923-1.2815606,3.8846649-.1292214,1.5430285-.2506829,3.0897396-.285142,4.6369768-.3668836,16.4487993-.239635,32.899966-.2023482,49.3506067.0028935,1.2899781.0270937,2.5865324.1622994,3.8673039.1475031,1.3970379-.5974435,1.4862105-1.7005273,1.5204065-1.2411831.0381417-1.5849186-.4479675-1.486079-1.5959007.3330164-3.8659887.2844844-7.7448666.2414106-11.6182206-.074179-6.6761103.0549766-13.3522205.3336082-20.0164937.4175199-9.9849673.5318792-19.9683563.4292913-29.9572692-.0086805-.8459563.1829486-1.6124727.5193845-2.3692563.1019961-.2293762.1923525-.5168856-.0605006-.7107506-.2408187-.1849214-.5105725-.0754942-.7159457.0833856-1.0790809.832804-1.93089,1.8355358-2.2836348,3.1904863-.1175816.4516502-.0440602.9217136.2969133,1.1976489.8632516.6989135.8108396,1.6277293.8195202,2.5825867.0808209,8.87123-.3497198,17.7324643-.5944842,26.5952769-.2460796,8.9091087-.5294461,17.8147978-.4065378,26.7278521.0218986,1.5877463.1789371,3.1794383.3751695,4.7566628.1030483.8278061-.1574989,1.1029523-.9432833,1.0937457-3.5425735-.0412982-3.0375249.2885616-2.8809468-2.8311653.4940664-9.8479202.8682494-19.6976818.689115-29.5577022-.1430313-7.8732331-.645844-15.7272638-1.4147277-23.5686683-.2931649-2.9897821-.2129358-6.0174428-.598956-9.0098553-.0764807-.5929059-.1267882-1.186338-.4453371-1.8189638-.4012768.3895713-.4412598.8477976-.4698004,1.2889259-.4761792,7.3560844-.2959269,14.7150624-.100089,22.0750925.0732583,2.7546189.0313025,5.5121312.057081,8.2683284.0930526,9.9465625.1849214,19.8931251.2985573,29.8394245.015717,1.374679.1275116,2.7501471.2389774,4.1214064.0757573.9319724-.3379485,1.2234275-1.2145496,1.1616116-4.118776-.290929-8.2402482-.5447685-12.3588269-.8378019-4.2464849-.302503-8.4898789-.6481456-12.7365611-.9480182-1.8449396-.1302078-3.693825-.2199065-5.542513-.274094-.8425367-.0247263-1.1504979-.4182433-1.1329396-1.203962.0912112-4.0885257-.0666822-8.1802079.2130016-12.2666292.2115548-3.0923701.1430971-6.1944728.2719897-9.2923669.2416079-5.8056907.2584428-11.620588.3633982-17.4318026.1773588-9.8139873.3042786-19.6292898.5402967-29.4416988.1830801-7.6146588.4633557-15.2274762.7682262-22.8381893.2978997-7.4371026.6193421-14.8744683,1.0416626-22.3055209.7012152-12.3368625,1.0507377-24.6781968,1.038243-37.0374183-.008549-8.4782391.2418709-16.9596349.5339178-25.4341914.1261306-3.6592344.1864339-7.3166275.1951802-10.9748098.0040772-1.6950691.4880163-2.8858789,1.8901836-4.0590645,3.926292-3.2851829,7.6276796-6.8381467,11.4342856-10.2672157,10.0083784-9.0161684,20.028528-18.0191846,30.0377613-27.0343008,4.1912452-3.7747117,8.3711794-7.5625756,12.5470364-11.3543853,1.3731665-1.2471016,1.5631515-1.8468467.701807-3.5035111-.845759-1.6269402-.8258333-3.3104353-.7444863-5.0336503.0360373-.7636229.2890219-1.2968173,1.2161937-1.3304872.9903028-.0363004,1.4962063-.5913277,1.6240467-1.6390403.3934512-3.2244192.2406214-6.4538363.1217903-9.675625-.1235659-3.3506813-.454741-6.6929452-.6509076-10.0415222-.1594059-2.7198968-.6437396-5.3840278-1.3341041-8.0076497-.269688-1.0248276-.1058103-1.4217642,1.0329163-1.3659984.7148278.0349851,1.9242481.4240303,2.0472221-.4206107.1304709-.895935-1.152405-.9311832-1.8788726-1.1987011-.7226534-.2664657-1.4871312-.4726939-2.2501622-.5626556-1.0807249-.1270513-1.1314928-.6034278-.7439602-1.4693756,1.3010261-2.9077117,2.6133631-5.8122668,3.8242301-8.7581202,3.5375756-8.6055535,6.713397-17.342893,9.3489875-26.2701519.2779082-.941442.4025921-.9075091,1.327528-.387993,1.2284253.690233,1.3374579,1.7034866,1.6902028,2.7511993,3.5845951,10.6467913,7.0188593,21.3501375,11.791831,31.5529069,1.1514843,2.4615855,1.0473838,2.6562396-1.6347658,3.0476522-.7298214.1062706-1.4485292.2330589-2.0960829.6000082-.30224.171243-.610267.4011453-.5043252.8088668.10535.4053541.4904495.4724308.8322121.4650655.6438711-.0139414,1.2870846-.0778616,1.9295747-.1328383.7085147-.0607637.9413105.2001781.7119343.9067199-2.1963035,6.7676503-2.2192543,13.8067642-2.6132973,20.8032646-.135666,2.4089763-.3117754,4.8063785.0083517,7.2150917.1544081,1.1616116.6997684,1.7787178,1.9046511,1.8465837,1.4420845.0812812,1.8437559.56476,1.6940827,2.0720142-.1961009,1.9749502-.5543039,3.9293828-1.3089832,5.7728099-.3721445.9088243-.1936019,1.5083064.5369429,2.1340931,7.5211459,6.4425253,15.0503147,12.8761071,22.5214818,19.3762395,5.6199144,4.8895011,11.0539867,9.9865455,16.5310012,15.0354526,5.4436735,5.0183937,10.5628138,10.3916365,16.3629148,15.0201959.5320108.4245564.6910221.9151374.707331,1.5601265.1679549,6.6263945.3588607,13.2519999.537469,19.8778684.1879464,6.9704589.3605047,13.9414438.5565398,20.9116396.152501,5.4205912.3315039,10.8403932.4971571,16.2604583.2629803,8.6034491.5224096,17.2071612.7876258,25.8103473.2533134,8.2159822.5122823,16.4317013.7682262,24.6476835.2612048,8.3882774.5214232,16.7768178.7826937,25.1650952.2559439,8.2159822.5128742,16.4322274.7690811,24.6482096.2588374,8.3017352.4773629,16.6053117.8022249,24.9046795.0892384,2.2798206.1218561,4.5601674.2226028,6.8381467.0478086,1.0821717-.2460139,1.5446068-1.4238686,1.5490785ZM273.9104453,334.7538637c.2159609,3.2628239.3887821,6.526437.7693441,9.7747934.1162664.9922099-.5485169.8925154-1.1518132.8948829-3.4887805.0126262-6.9775611.0192024-10.4662759.0289351-1.4644435.0039457-2.9302679-.0263046-4.3928043.0291981-.9607102.0365634-1.3602772-.2585743-1.4240659-1.2981325-.2769218-4.5138712-.1891959-9.0356339-.378063-13.5529247-.4063405-9.7187646-.6113849-19.4456836-.8985655-29.1694461-.1562494-5.2916986-.3181543-10.5831341-.4662492-15.8750957-.2781713-9.9397233-.5449658-19.8797097-.8226109-29.819433-.1550657-5.5500099-.2485786-11.1034393-.503273-16.6489774-.3044101-6.629288-.1144908-13.2619957-.2907975-19.8899685-.2072803-7.7874801-.4499404-15.574434-.7516543-23.3584945-.2949405-7.61045-.6229589-15.2209001-1.0471866-22.824774-.4722335-8.4653499-1.0356125-16.9251758-1.0042443-25.409202,0-2.8858789.0042745-5.7714947-.0031566-8.6571105-.0017756-.6883917.1114658-1.1563507,1.0017453-1.0916414,4.0795163.2977682,8.1747497.125736,12.2586721.4261347,2.9292157.2154348,3.0215449.1231056,2.888049,3.0602784-.4501377,9.9015816-.0562919,19.8094764-.2838925,29.7100059-.1475689,6.4170098-.1450699,12.8316523-.1202778,19.2470838.0278171,7.1908915.0666164,14.3838873.2629803,21.5713592.2623227,9.5982895.3878615,19.1973681.5422038,28.7972359.1001548,6.2299841.0895014,12.4846944,1.1491169,18.6639106.2493677,1.4543819.3793125,1.5475003,1.7334081,1.026932,1.3623158-.5237248,2.6118506-1.3041826,4.0538036-1.6637666.9283555-.2314806,1.2605827-.0670768,1.1913358.9393377-.4490855,6.5274892-.5924456,13.0668155-.7938732,19.6056157-.2861284,9.2892103-.8483895,18.5700031-1.1535887,27.8586873-.302503,9.2060877-.5076132,18.415332.1017331,27.6245763ZM87.9993194,344.1703883c-.8707484.0583962-1.2658436-.2562069-1.2133002-1.1826553.2068858-3.65108.3282815-7.3074209.5700867-10.9558705.3764847-5.6812699.2749489-11.3651702.0919346-17.0438096-.2147114-6.6640101-.7730268-13.3196028-.884361-19.9836129-.1624967-9.7313908-.0599745-19.4669904-.0689838-29.2010116-.0011179-1.198175-.0499788-2.3897739-.6161197-3.5308679-.1005494.541875-.2321382,1.0800673-.2971106,1.626151-1.058103,8.9033217-1.3396281,17.8287392-1.1076872,26.795455.2270746,8.7781117.7828252,17.5407037,1.0260113,26.3130284.2398323,8.6505344.0633284,17.3126427.0869367,25.9694902.0021044.7917688-.2271403,1.197912-1.0958501,1.1902836-4.3065909-.0373525-8.6272548.171243-12.9172738-.1049554-8.6717753-.5584469-17.3392761-1.1681878-26.0263739-1.4191338-1.1086736-.0320916-1.4461617-.3751038-1.5226424-1.4896301-.3482073-5.0736334-.0996945-10.1548951-.3373566-15.2335263-.3581373-7.6520113-.4331712-15.3182271-.5613404-22.9794451-.1520407-9.0861387.2277322-18.1659643.5595648-27.2421073.1020619-2.7909192.0760203-5.5926233.3442616-8.3824904.1649957-1.7166389-.0670768-3.4338039-.2733049-5.2183087-.5316162.2856681-.5114932.6534065-.5762025.9816881-.4421805,2.2432572-.630127,4.5209735-.727454,6.794744-.2926388,6.8355162-.6260497,13.6728737-.720023,20.5125987-.1325095,9.6432704-.2231289,19.2875929.1075201,28.9342829.2520639,7.3539801.320982,14.7140102,1.116565,22.0374769.106994.9845816-.1567755,1.2465755-1.1471441,1.2505212-4.4302226.0184132-8.8588669-.4311326-13.2915226-.0449809-.5329314.0462961-1.2703812.2819854-1.4236055-.6549848-.1503309-.9190831.2923758-1.3218067,1.1371483-1.5361893.9549889-.2422655,1.938321-.4361304,2.8003889-.9572248.2518666-.1523037.5654834-.3088161.4703264-.6831307-.0736529-.2896138-.3737885-.3356468-.6157252-.3950953-.8576618-.210963-1.7094051-.0891726-2.5602278.0736529-.9645243.1843953-1.4460302-.0194654-1.559995-1.2008055-.5103752-5.2872268-.3912811-10.5752427-.1660479-15.8622065.1170555-2.7475166.4676302-5.4842483.654656-8.2296606.2453563-3.6024165.8896877-7.1974676.5249743-10.816456-.4569769-4.5341258-.0935129-9.0358969.419427-13.5218852.9568302-8.3672337,2.5609512-16.6794907,1.9593647-25.1650952-.0702991-.9908947.3442616-1.3036565,1.2818237-1.2315819,2.101015.1622994,4.2047263.2940856,6.3090294.4061432,1.1597703.0620789,2.3228944.0647093,3.4846376.0789138.20682.0026305.4572399-.0236741.5130714-.2896138.0551739-.26252-.1625625-.3790494-.3480758-.47322-.7400145-.3761559-1.548947-.5100464-2.3573535-.638676-3.2640076-.5197791-6.5284756-.0831226-9.7928778-.0047348-.8006466.0192024-1.0311407.3829951-.8739707,1.1681878.365108,1.8236987.4011453,3.6765955.3428806,5.5305444-.1639435,5.219887-1.0175281,10.3582297-1.9590359,15.4747396-1.1351097,6.1686943-1.6711319,12.3707955-1.3057609,18.6276102.1690729,2.8956116-.045507,5.755975-.2824458,8.6263341-.339461,4.1124629-1.1103834,8.1767883-1.1465522,12.327919-.0414298,4.7558737.5886972,9.4438814,1.1581263,14.1376762.1419791,1.1700291-.224181,1.4062445-1.2204682,1.4822648-5.3585781.4082476-10.7292562.6973352-16.0571894,1.4367578-2.3833293.330649-4.7871761.6026386-7.0407579,1.5375045-.3936485.1633516-.8620021.3114466-.8639092.8396432-.0019071.530301.4870956.6718198.8618706.8504281.9822142.4684851,2.0352535.7325834,3.1131507.7844035,3.7391347.1804496,7.47919.3900974,11.2211525.4519132,5.1222969.0844378,10.2455144-.0476113,15.3684689-.1078489,10.1136626-.1191599,20.2344932-.3382773,30.3382257.4600676,3.4723402.2746201,6.9511907.4840048,10.4306989.6455152,5.859089.2719897,11.6993703.0586593,17.4983533-.8951459.3845077-.0633941.8005151-.1002206,1.1243248-.6776068-.7654642,0-1.3635653-.0318286-1.9569315.0076283ZM25.0852005,342.5684375c-4.9833428-.0599745-9.9662252-.1528298-14.9491734-.2414763-.1895247-.0031566-.3781945-.0560288-.5672589-.085753.0061158-.0649724.0122316-.1296817.0183475-.1946541,2.5028837-.1849214,5.0060305-.3656341,7.5084539-.5560795,2.6104038-.1988629,5.2245561-.3640558,7.8276604-.6342042.914151-.0949596,1.3229904.2359524,1.3699441,1.0587606.0555027.9719554-.7399487.6589305-1.2079735.6534065ZM271.6545619,189.1972991c.8825855.0631311,1.5012041.4590155,2.1196255.7954514,5.1558353,2.8035454,9.9471544,6.1763226,14.7089466,9.5804023,9.1757059,6.5593178,18.3205039,13.1625643,27.4319608,19.8110547,5.7087582,4.1653351,11.1282972,8.6855195,16.160172,13.662878.7681604.7596772.9090216,1.4180816.4725623,2.3834608-.5995478,1.3260154-1.3362742,2.5305036-2.5837704,3.3038591-.6992423.4332369-.8652244.9772163-.8169555,1.7263716.265545,4.124826.3578085,8.2541239.2998726,12.3876304-.0218328,1.5551286-.1786741,3.0905287-.5069556,4.6077787-.0811497.3751038-.2125413.7454727-.3687249,1.0963762-.1417161.3188119-.3604389.6236823-.7742762.5560795-.4143634-.0673398-.5262895-.4245564-.5558822-.7733556-.0981162-1.1568768-.2119494-2.3145427-.2456851-3.47405-.1265909-4.3442065.1725582-8.6942-.1886041-13.0373543-.0560288-.6741872.0035511-1.4072967.2172761-2.0436052.4049595-1.2055403-.0872655-1.9157648-.9974051-2.6207284-7.4870156-5.8006928-14.9228688-11.6676732-22.4305994-17.4412723-10.4441142-8.0315869-21.0426366-15.8564195-31.7870179-23.4831784-.6805003-.4829527-1.4039428-.9422312-2.0815496-1.831064,1.0276554.1015358,1.6743542.5113616,2.3242097.8851502,6.7666639,3.8928194,13.0497832,8.5132243,19.4229959,12.9921104,10.8538743,7.6278111,21.4314187,15.6207302,31.4791225,24.2959908,1.5964268,1.3783616,3.1875928,2.7646146,4.7350273,4.1971637.6521571.6036908,1.0464632.6315737,1.6393034-.1107424,1.6322669-2.0438683,1.6650161-2.0151962-.2483813-3.7010588-8.4756087-7.4681421-17.6536162-14.034036-26.6662336-20.8151017-9.7014036-7.2995295-19.3489484-14.6698185-29.3585105-21.5490003-.4956446-.3406447-1.113803-.6068474-1.4005232-1.4012466ZM89.1776345,196.0606982c-14.1787114,10.7946232-28.3566994,21.5900355-42.5456696,32.3709803-3.4325544,2.6081022-7.0551597,4.9300102-10.8586749,6.9623044-.4070639.2175391-.9261196.8454302-1.303525.3053965-.2838925-.4064062.4008165-.7599402.7448151-1.055341,3.3349643-2.8629939,6.924097-5.396654,10.440037-8.0244846,8.6865059-6.492241,17.5145964-12.7906171,25.9683722-19.6000917,5.0923096-4.101678,10.6584311-7.5833563,16.2151486-11.0418865.6305215-.3924648,1.2535462-.8890958,2.204721-.8880437-.1871573.5850145-.5667986.7441574-.8652244.9711662ZM316.357078,267.3851246c.012692-1.3683659-.0021044-2.7433079.5914592-4.0269729.6822758,6.5364328.9161238,13.1052202,1.4172924,19.6542792.8405638,10.9842794,1.37218,21.9819742,1.2045539,32.9972931-.1124522,7.3947522-.4868326,14.7858218-.751457,22.1779436-.00993.2788289.108112.6991766-.2685043.7720403-.4492828.0870683-.5588415-.3598471-.6102012-.6773437-.1300763-.804395-.2631119-1.6174705-.2794865-2.4294939-.1392172-6.8865471.4026578-13.7633616.3931224-20.6414912-.0070365-5.0686355.0833199-10.154369-.3177597-15.220374-.1562494-1.9733719-.1684153-3.9541091-.2477894-5.9282702-.3574139-8.893589-1.213629-17.7663973-1.1312298-26.6776103ZM316.9538639,263.3428951c-.0023017.0049979-.003025.0102588-.0053267.0152567-.0008549-.0081544-.001381-.0165719-.0022359-.0249894l.0075626.0097327ZM112.5951171,132.4427336c-.0523462-.0673398-.1049554-.1357318-.1576304-.2041238-3.508509-6.8562968-5.1684615-14.3746807-7.7209952-21.5732006-.0573441-.1615103-.0960118-.330649-.132378-.4987354-.0627365-.2893507-.2283898-.6739241.0716801-.833067.4130482-.2191174.5977065.2151717.7609266.4921593,1.359225,2.3061252,2.3374935,4.7895436,3.294784,7.2761184,1.7761531,4.6138288,3.4970665,9.2487012,4.8922631,13.9964204.048532.165193.1036402.3293337.1349427.4979463.0975243.5255661.5676535,1.2058034.085753,1.5438176-.4941321.3464317-.7666479-.5205683-1.229346-.6973352ZM33.4384927,259.0391977c3.6674546-.5205683,7.3441816-.8793631,11.0288-.1978107.7601375.1407297,1.9700181.2367415,1.8676931,1.1510898-.0931841.832804-1.3100354.8133386-2.0950307.8146538-2.3685329.0042087-4.7285169.1565124-7.0896187.2932964-1.2539408.0452439-2.4994641-.022622-3.7218394-.3088161-.500774-.1170555-1.0640215-.274094-1.0857228-.9253962-.0243318-.7310051.6021783-.7567837,1.0957186-.827017ZM39.1675712,292.2855954c.4678933.1575646,1.2803769.0615528,1.2784041.6226301-.0023017.6684002-.8406954.5718622-1.3440999.6899699-.5792933.1354687-1.1887711.1420449-1.7850967.205176-1.916554.2030716-3.8330421.4061432-5.8312719.6178953-.7111452-.1843953-2.0065157.1365209-2.0962802-.8246496-.0791769-.8477976,1.2058691-.9119809,1.9571946-1.0361386,2.4608621-.4069323,4.9498044-.4406022,7.4396673-.3264402.1280377.005787.2619282.011311.3814826.051557ZM78.2895642,280.2275618c.9712978-12.7598407-.3212451-25.1077511-6.4225996-36.6244359-.9068515-1.7119041-1.7209134-3.4727347-2.5916618-5.2038412-.5949445-1.1829184-.7201545-1.2023838-1.4850268-.1010097-2.9700536,4.2776558-5.0498277,8.9953878-6.8380151,13.8601625-3.3443682,9.0985019-4.6642021,18.4939828-4.2135383,28.159349.0480717,1.0314038.0064446,2.0670163.0064446,3.1005245.1705854,6.3309938-.1140962,12.6564635-.2105026,18.9840377-.0126262.8267539-.1717691,1.6240467-.4178487,2.4079241-.1667055.5310901-.4769684.9075091-1.0593524,1.00431-.6332177.1049554-1.1124878-.1646669-1.4291953-.6707676-.6622186-1.0582345-.8234001-2.2311571-.760006-3.4669477.2471318-4.8182156.1096902-9.6361681.0302503-14.4572772-.1382307-8.3824904-.8380649-16.8089094.9024454-25.1077511,1.7074323-8.1412771,4.4232519-15.9261267,9.0621358-22.9236793,1.389015-2.0948992,3.0429174-3.9530569,5.1767474-5.3469383.8533216-.5573947,1.5111999-.4911071,2.0505759.3977257,5.0054387,8.2483368,10.1696256,16.4235469,11.9110566,26.1583573,1.1914016,6.6600644,1.0687563,13.3669511.7023989,20.0806769-.1710457,3.1349835-.3686591,6.2689149-.5853434,9.4010049-.2377279,3.4377496-.3261772,6.8783927-.3395925,10.3232446-.0017756.4682221-.0787165.9498595-.2066227,1.4009836-.2441068.861213-.6099382,1.6532448-1.7094051,1.6187858-1.1199188-.0355112-1.772602-.6981244-1.9418721-1.7316325-.1870915-1.1426723-.2762642-2.3095448-.3062514-3.468263-.153882-5.9448421.2240495-11.8733753.674779-17.7945432ZM62.4541226,274.7683028c-.0134811-.4119302.054319-.8698935-.5610116-1.3241741-.0774013,1.6571905-.1660479,3.1497141-.2135934,4.643553-.1846584,5.8062168-1.042649,11.5758701-.9255277,17.3978697.0345906,1.7221629.7768409,2.5002533,2.5219546,2.5725909.9029715.0373525,1.9587071-.2756723,2.6776779.0925922,1.0984806.5626556,1.8657861.3524818,2.8901534-.08549.8731158-.3729994,1.9490401-.245159,2.9206667-.4195585,2.3184226-.416402,2.4484332-.678922,2.6129028-3.0360782.2972421-4.2592426.1181077-8.5234831.2488416-12.7832518.0566864-1.8471098.3326876-3.6889586.1152142-5.5423815-.1914318-1.631412-.2333877-3.2720306-.0011179-4.895025.7127892-4.980515.6264443-9.9510343-.1322464-14.9112948-.3909523-2.556019-.8497047-5.1130903-2.3259195-7.324782-1.3523858-2.0262442-3.119398-2.412922-5.2519129-1.2486799-1.2536778.684446-1.9471988,1.7676699-2.4141714,3.0671176-1.657059,4.6106722-2.397205,9.4149463-3.0194405,14.2431577-.055437.4303434-.2015591.924081.3176939,1.5311914,1.1523392-4.1653351,1.6150373-8.3532922,3.1065088-12.2692597.493606,2.2061677.831686,4.4033919,3.1233437,5.5557969.4154156.2091217.3682646.7462618.389111,1.1768683.0751654,1.5538134-.1096245,3.0905287-.2513406,4.6348724-.1823567,1.9862612-.1273143,2.0065157-2.0913481,2.5575973-1.5210641.4269238-2.9300706,1.0642846-4.20591,2.0186158.2372018.0823334.4434957.074442.6322971.0126262,1.4316284-.4674329,2.8616786-.9401268,4.2882434-1.4228164.6697154-.2264827,1.1389239-.1317861,1.095061.6968091-.1135702,2.1472454-.2418709,4.2939647-.3894398,6.4391057-.0408379.5936951-.2765272.9937882-.9841213,1.1471441-.6557082.142571-1.899982-.0904879-1.8240275.690233.073916.7596772,1.2357906.3716842,1.9263524.3317011.5126111-.0297242.691877.0802291.6582071.6263128-.1509885,2.447118-.2712663,4.8963403-.3885191,7.3452996-.0295269.616317-.2836295.9424942-.9303941.9903686-.9858311.0728638-1.9744899.1565124-2.9493387.3132879-.9324985.1501993-1.159573-.1010097-1.0867092-1.0855913.2888904-3.9046564.5503582-7.8150999.4218602-11.7363283ZM72.2047816,251.9419506c1.1687139,3.0928962,1.6680411,6.3165262,1.999545,9.5701435.1481607,1.4541189.1947199,2.9179705.3180885,4.3749829.0802291.9474921-.3197983,1.3136523-1.2618322,1.3170719-1.0295625.0036826-2.0584016.1373101-3.0881613.205176-.7264676.0478744-.9817538-.2483155-.8870572-1.0108862.259758-2.0909535.4659204-4.1892723.6494608-6.2883803.0520831-.5955364.2915866-1.0521844.6380183-1.5096216,2.075105-2.7396252,2.2167553-3.3725142,1.6319381-6.6584862ZM68.3465528,256.1869887c-.7354112-.2317436-.7033853-.9903686-.7469194-1.716902.02979-.2188544.0067734-.5437163.1233686-.8067624.2614678-.5900124.3324245-1.4575385,1.2082365-1.4267621.6283514.0220959,1.3518597,1.6706058,1.1144606,2.3271689-.0724034.2004411-.1506597.4127193-.2812621.5755449-.3815484.4755874-.6043484,1.3041826-1.4178843,1.0477127ZM67.9288355,294.8424036c.1214615-1.8018658.2688331-3.6026795.3354496-5.4066497.0389966-1.0566562.3978572-1.5909029,1.5470399-1.4880518.5764655.051294,1.1994903-.0260416,1.73012-.6121083-.6836568-.5082051-1.4290638-.2648874-2.1041716-.2861942-.7042402-.0220959-1.0189091-.2819854-1.0120041-.9998383.0209779-2.1953828.0239372-4.3912917.0150594-6.5869376-.0040115-1.0027318.4751928-1.3478483,1.4522776-1.3115479.7767752.0291981,1.6108944.1736104,2.5210997-.3829951-.9462426-.5965886-1.7717471-.5608143-2.5778519-.5402967-.80137.0205176-1.1789727-.1662451-1.0453452-1.1071611.3028976-2.1322518.0299873-4.2981734.298097-6.4433144.1062706-.850165.4915674-1.2226383,1.2816922-1.3112849.9823457-.1102163,1.962324-.2422655,2.945393-.3453795.8723267-.091277,1.3625131.2867203,1.1895603,1.192125-1.6302283,8.5340049-.4269896,17.1790153-1.0008247,25.7548446-.0680632,1.0177254-.3586634,1.5164608-1.3871079,1.5414502-.8167582.0199915-1.6320038.1115316-2.4486305.125473-1.7592524.0302503-1.8549354-.0849639-1.7398527-1.7921331ZM63.1309403,288.5487624c.9294734-.1525667,1.876834-.2083325,2.7974296-.3982518.8370785-.1728213,1.0942718.1341535,1.0444246.9227658-.0377471.5979038-.0074311,1.2002794-.0074311,1.8005506.0067077.0007891.0134811.0013152.0202546.0018413-.0871998,1.6687645-.1959036,3.3367399-.2515378,5.0068196-.0241345.7233768-.3540601.975638-1.0394267.9711662-.9848446-.0063131-1.9710045-.0097327-2.9461822.1980737-.6657039.1420449-1.0554068-.0828595-1.0830266-.8493759-.0806894-2.2358919.2542341-4.4502141.3124988-6.6782146.0193339-.7402118.5950761-.8838349,1.1529969-.975375ZM57.1161937,309.3696511c6.1201623-.5602882,12.2492024-.9017221,18.3788344-.1125837.6080968.0783877,1.5913632.051294,1.5887327.7370552-.0026305.6736611-.9918154.6833938-1.5995834.7433683-4.4932879.4429696-9.0021612.5784384-13.5086014.3419599-2.2349055-.1173186-4.4672463-.0323547-6.6980746-.1375731-.4883451-.0231481-1.0248934.102851-1.5395431-.370632,1.047055-.8059733,2.2232657-1.0961131,3.3782354-1.2015946ZM73.1565482,302.261093c.4780863.1238947,1.199556.0462961,1.210867.6941787.00993.5692318-.6916797.616317-1.1195242.6373607-3.4595167.1696647-6.9214008.6660327-10.4140612-.0647093,1.6616623-.9048786,3.5183075-1.0006274,5.3200418-1.1881793,1.6510747-.1720322,3.3295719-.5129399,5.0026767-.0786508ZM306.5517055,275.3028125c.9712978-12.7598407-.3212451-25.1077511-6.4225996-36.6244359-.9068515-1.7119041-1.7209134-3.4727347-2.5916618-5.2038412-.5949445-1.1829184-.7201545-1.2023838-1.4850268-.1010097-2.9700536,4.2776558-5.0498277,8.9953878-6.8380151,13.8601625-3.3443682,9.0985019-4.6642021,18.4939828-4.2135383,28.159349.0480717,1.0314038.0064446,2.0670163.0064446,3.1005245.1705854,6.3309938-.1140962,12.6564635-.2105026,18.9840377-.0126262.8267539-.1717691,1.6240467-.4178487,2.4079241-.1667055.5310901-.4769684.9075091-1.0593524,1.00431-.6332177.1049554-1.1124878-.1646669-1.4291953-.6707676-.6622186-1.0582345-.8234001-2.2311571-.760006-3.4669477.2471318-4.8182156.1096902-9.6361681.0302503-14.4572772-.1382307-8.3824904-.8380649-16.8089094.9024454-25.1077511,1.7074323-8.1412771,4.4232519-15.9261267,9.0621358-22.9236793,1.389015-2.0948992,3.0429174-3.9530569,5.1767474-5.3469383.8533216-.5573947,1.5111999-.4911071,2.0505759.3977257,5.0054387,8.2483368,10.1696256,16.4235469,11.9110566,26.1583573,1.1914016,6.6600644,1.0687563,13.3669511.7023989,20.0806769-.1710457,3.1349835-.3686591,6.2689149-.5853434,9.4010049-.2377279,3.4377496-.3261772,6.8783927-.3395925,10.3232446-.0017756.4682221-.0787165.9498595-.2066227,1.4009836-.2441068.861213-.6099382,1.6532448-1.7094051,1.6187858-1.1199188-.0355112-1.772602-.6981244-1.9418721-1.7316325-.1870915-1.1426723-.2762642-2.3095448-.3062514-3.468263-.153882-5.9448421.2240495-11.8733753.674779-17.7945432ZM290.7162639,269.8435536c-.0134811-.4119302.054319-.8698935-.5610116-1.3241741-.0774013,1.6571905-.1660479,3.1497141-.2135934,4.643553-.1846584,5.8062168-1.042649,11.5758701-.9255277,17.3978697.0345906,1.7221629.7768409,2.5002533,2.5219546,2.5725909.9029715.0373525,1.9587071-.2756723,2.6776779.0925922,1.0984806.5626556,1.8657861.3524818,2.8901534-.08549.8731158-.3729994,1.9490401-.245159,2.9206667-.4195585,2.3184226-.416402,2.4484332-.678922,2.6129028-3.0360782.2972421-4.2592426.1181077-8.5234831.2488416-12.7832518.0566864-1.8471098.3326876-3.6889586.1152142-5.5423815-.1914318-1.631412-.2333877-3.2720306-.0011179-4.895025.7127892-4.980515.6264443-9.9510343-.1322464-14.9112948-.3909523-2.556019-.8497047-5.1130903-2.3259195-7.324782-1.3523858-2.0262442-3.119398-2.412922-5.2519129-1.2486799-1.2536778.684446-1.9471988,1.7676699-2.4141714,3.0671176-1.657059,4.6106722-2.397205,9.4149463-3.0194405,14.2431577-.055437.4303434-.2015591.924081.3176939,1.5311914,1.1523392-4.1653351,1.6150373-8.3532922,3.1065088-12.2692597.493606,2.2061677.831686,4.4033919,3.1233437,5.5557969.4154156.2091217.3682646.7462618.389111,1.1768683.0751654,1.5538134-.1096245,3.0905287-.2513406,4.6348724-.1823567,1.9862612-.1273143,2.0065157-2.0913481,2.5575973-1.5210641.4269238-2.9300706,1.0642846-4.20591,2.0186158.2372018.0823334.4434957.074442.6322971.0126262,1.4316284-.4674329,2.8616786-.9401268,4.2882434-1.4228164.6697154-.2264827,1.1389239-.1317861,1.095061.6968091-.1135702,2.1472454-.2418709,4.2939647-.3894398,6.4391057-.0408379.5936951-.2765272.9937882-.9841213,1.1471441-.6557082.142571-1.899982-.0904879-1.8240275.690233.073916.7596772,1.2357906.3716842,1.9263524.3317011.5126111-.0297242.691877.0802291.6582071.6263128-.1509885,2.447118-.2712663,4.8963403-.3885191,7.3452996-.0295269.616317-.2836295.9424942-.9303941.9903686-.9858311.0728638-1.9744899.1565124-2.9493387.3132879-.9324985.1501993-1.159573-.1010097-1.0867092-1.0855913.2888904-3.9046564.5503582-7.8150999.4218602-11.7363283ZM300.4669229,247.0172013c1.1687139,3.0928962,1.6680411,6.3165262,1.999545,9.5701435.1481607,1.4541189.1947199,2.9179705.3180885,4.3749829.0802291.9474921-.3197983,1.3136523-1.2618322,1.3170719-1.0295625.0036826-2.0584016.1373101-3.0881613.205176-.7264676.0478744-.9817538-.2483155-.8870572-1.0108862.259758-2.0909535.4659204-4.1892723.6494608-6.2883803.0520831-.5955364.2915866-1.0521844.6380183-1.5096216,2.075105-2.7396252,2.2167553-3.3725142,1.6319381-6.6584862ZM296.6086941,251.2622394c-.7354112-.2317436-.7033853-.9903686-.7469194-1.716902.02979-.2188544.0067734-.5437163.1233686-.8067624.2614678-.5900124.3324245-1.4575385,1.2082365-1.4267621.6283514.0220959,1.3518597,1.6706058,1.1144606,2.3271689-.0724034.2004411-.1506597.4127193-.2812621.5755449-.3815484.4755874-.6043484,1.3041826-1.4178843,1.0477127ZM296.1909768,289.9176543c.1214615-1.8018658.2688331-3.6026795.3354496-5.4066497.0389966-1.0566562.3978572-1.5909029,1.5470399-1.4880518.5764655.051294,1.1994903-.0260416,1.73012-.6121083-.6836568-.5082051-1.4290638-.2648874-2.1041716-.2861942-.7042402-.0220959-1.0189091-.2819854-1.0120041-.9998383.0209779-2.1953828.0239372-4.3912917.0150594-6.5869376-.0040115-1.0027318.4751928-1.3478483,1.4522776-1.3115479.7767752.0291981,1.6108944.1736104,2.5210997-.3829951-.9462426-.5965886-1.7717471-.5608143-2.5778519-.5402967-.80137.0205176-1.1789727-.1662451-1.0453452-1.1071611.3028976-2.1322518.0299873-4.2981734.298097-6.4433144.1062706-.850165.4915674-1.2226383,1.2816922-1.3112849.9823457-.1102163,1.962324-.2422655,2.945393-.3453795.8723267-.091277,1.3625131.2867203,1.1895603,1.192125-1.6302283,8.5340049-.4269896,17.1790153-1.0008247,25.7548446-.0680632,1.0177254-.3586634,1.5164608-1.3871079,1.5414502-.8167582.0199915-1.6320038.1115316-2.4486305.125473-1.7592524.0302503-1.8549354-.0849639-1.7398527-1.7921331ZM291.3930816,283.6240131c.9294734-.1525667,1.876834-.2083325,2.7974296-.3982518.8370785-.1728213,1.0942718.1341535,1.0444246.9227658-.0377471.5979038-.0074311,1.2002794-.0074311,1.8005506.0067077.0007891.0134811.0013152.0202546.0018413-.0871998,1.6687645-.1959036,3.3367399-.2515378,5.0068196-.0241345.7233768-.3540601.975638-1.0394267.9711662-.9848446-.0063131-1.9710045-.0097327-2.9461822.1980737-.6657039.1420449-1.0554068-.0828595-1.0830266-.8493759-.0806894-2.2358919.2542341-4.4502141.3124988-6.6782146.0193339-.7402118.5950761-.8838349,1.1529969-.975375ZM285.378335,304.4449018c6.1201623-.5602882,12.2492024-.9017221,18.3788344-.1125837.6080968.0783877,1.5913632.051294,1.5887327.7370552-.0026305.6736611-.9918154.6833938-1.5995834.7433683-4.4932879.4429696-9.0021612.5784384-13.5086014.3419599-2.2349055-.1173186-4.4672463-.0323547-6.6980746-.1375731-.4883451-.0231481-1.0248934.102851-1.5395431-.370632,1.047055-.8059733,2.2232657-1.0961131,3.3782354-1.2015946ZM301.4186895,297.3363438c.4780863.1238947,1.199556.0462961,1.210867.6941787.00993.5692318-.6916797.616317-1.1195242.6373607-3.4595167.1696647-6.9214008.6660327-10.4140612-.0647093,1.6616623-.9048786,3.5183075-1.0006274,5.3200418-1.1881793,1.6510747-.1720322,3.3295719-.5129399,5.0026767-.0786508ZM316.973132,263.3336884c1.6711977-.952753,3.5019986-.5555534,5.2630266-.5366141,1.6623199.0178871,3.3221408.2867203,4.9827509.4490197.4627639.0449809.9075091.1473058,1.2708415.5637078-3.860662.2748832-7.6755539-.4861092-11.516619-.4761135ZM316.973132,263.3336884c-.0063789.0036826-.0128893.005524-.0192681.0092066,0,0-.0075626-.0097327-.0074968-.0097327.0089436,0,.0178214.0005261.0267649.0005261ZM250.5409028,257.8907383c.1030483.6150018-.3532709.5673905-.7285062.6271019-1.8661149.296716-1.8259346.3527448-1.7246618,2.202222.2001123,3.650817.3785891,7.3068948.416402,10.9621836.0997602,9.6422182.8141935,19.2586578,1.1445136,28.8914064.2656108,7.7456557.6169746,15.4918376.3566248,23.2361781-.1665082,4.9528952-.0774671,9.9002664-.1495417,14.8492159-.0125605.8606869.0043403,1.7266347-.0855557,2.5804823-.1762409,1.6734993-1.1990957,2.4550093-2.8856816,2.356367-.7521146-.0436657-.909745-.5847515-1.0437012-1.1174199-.4014741-1.5951116-.5113616-3.234415-.4829527-4.8668791.193865-11.1507876.4058144-22.3034166.1432944-33.453152-.1517776-6.4483123-.6599169-12.8876811-.9073776-19.3346782-.3202586-8.3430334-.6467646-16.6910648.0914085-25.0306786.0792426-.895409-.2839583-.9861599-1.0308119-.9743228-1.8023919.028672-3.6064279-.0197285-5.409346-.057081-.9689303-.0202546-1.5780794-.5939581-1.6526529-1.4988367-.1142278-1.3854639-.8550971-2.4013479-1.665871-3.416969-4.6774859-5.8598782-9.674244-11.4375079-14.8519779-16.8567838-7.0806752-7.4110611-14.2606502-14.7226907-21.7183363-21.7573328-4.9500674-4.6693315-10.0069974-9.2173987-15.2915279-13.5074177-3.3347671-2.7072706-3.7713578-2.675705-6.8676736.188078-6.9563201,6.4346339-13.6207248,13.1686143-20.3650298,19.8205243-5.1497852,5.0794204-10.3473133,10.1080728-15.3737299,15.3145445-5.7857649,5.9932426-11.1356625,12.3318647-16.003265,19.0855735-.402329.5581838-.8586483,1.0771738-1.2785356,1.6229945-.4613829.6002712-1.0554068.8517433-1.8073898.752838-1.2361852-.1625625-2.4761188-.2993465-3.709805-.479007-.9383512-.136784-1.4250523.0647093-1.4341931,1.1816031-.037221,4.5622717-.1619706,9.1237543-.2423312,13.685763-.1160033,6.5858854-.164075,13.1733492-.3449192,19.7571302-.2671233,9.7258668-.4986039,19.4512076-.45336,29.1812832,0,4.6080417.0151909,9.2160835-.0079571,13.8238622-.0084175,1.6800755-.1803181,3.354364-.5957337,4.9870912-.2295077.9017221-.6055321,1.7424174-1.7108519,1.8507924-1.0546176.1033771-1.6647531-.5447685-2.173287-1.3433765-.556474-.8741022-.6716882-1.8586838-.6572207-2.8548394.1280377-8.8246709.2513406-17.6496048.4125878-26.4737496.1423079-7.7893214.2968475-15.5789058.509323-23.3666489.2147114-7.8716548.4890027-15.7417314.7759203-23.6110188.0971298-2.6638679.3016481-5.3243163.4774944-7.9847646.1101506-1.665871.2933622-1.8460576,1.9324682-1.8497402,1.9356248-.0044718,3.8771024-.1296817,5.8026656.1820279.765793.1238947,1.300763-.1615103,1.7641845-.7822991,6.0690656-8.12944,12.9580459-15.5355032,20.1217121-22.6932509,8.4679146-8.4608781,16.9324753-16.925965,25.4684531-25.317925,3.6509485-3.5895272,7.3483903-7.1466997,11.4682843-10.217237.6887205-.513466,1.3974982-1.0203559,2.1579645-1.4120315,1.1192612-.576334,2.0982531-.0126262,1.9742268,1.203436-.1156745,1.1334657.4243591,1.7111149,1.1987011,2.3542627,6.4291757,5.3393099,12.4925201,11.0879196,18.600648,16.7828679,9.012157,8.4024819,17.5506337,17.2773946,25.8684147,26.3630072,3.8669751,4.2239944,7.6979129,8.4871827,10.8419057,13.3017157.3958186.6060582.8534531.7444205,1.5184337.6612979,2.3617595-.2951377,4.7245054-.2383198,7.081004.0778616,1.288071.1728213,2.323289,1.1574029,2.5271497,2.3737281ZM180.4792292,193.5536057c15.6607789-.0073653,27.3382506-12.3634302,27.4482039-27.2728837.1117946-15.1711844-12.2045503-27.3478518-27.454254-27.3465366-15.097663.0013152-27.1480025,12.1416823-27.2142244,27.2934013-.0638544,14.621418,11.7164025,27.3331212,27.2202744,27.326019ZM168.1900438,144.9437369c8.1539033-4.0601167,16.7111878-4.711945,25.1933726-.8801523,8.0834727,3.6518691,12.1154435,10.245646,12.9033323,18.9474743.5157677,5.6962635-.5761367,11.0797652-3.5596057,15.9674249-3.9332627,6.4435775-9.8460132,10.0909748-17.1660603,11.5090564-7.6503015,1.4817387-14.7641205.1307339-21.0023247-4.6393442-6.3926781-4.8884489-9.7595367-11.4177794-9.9371586-19.6400747.222537-9.761115,4.88595-16.9406955,13.5684444-21.2643844ZM177.9124911,219.631997c1.6884272-1.26078,1.8748611-1.272354,3.6574589.1625625,2.8214326,2.2711401,5.3557503,4.860303,7.8912518,7.433157,4.8416267,4.9129122,9.4261916,10.0594093,13.0407739,15.9708445,4.741998,7.7553884,7.4769541,16.21311,8.6020681,25.2148109.3275582,2.6209914.3432752,5.2327763-.0235426,7.8469285-.0656958.467696-.1578934.9324985-.253708,1.3951966-.079966.3861517-.1886698.8306996-.6660327.821493-.5265525-.0102588-.4953158-.4995246-.5370086-.8743653-.0237399-.2130673-.0174268-.4300804-.0163746-.6452521.0753627-15.6249389-5.2006189-29.3185933-14.9700856-41.377153-4.3384195-5.3548296-9.0480628-10.3805886-13.7617175-15.4026649-.7024646-.7483662-1.116565-.8514803-1.929509-.0586593-4.5956786,4.4807274-9.1819533,8.9685571-13.047087,14.1166325-6.7867869,9.0393165-11.6013856,18.9945596-13.8524027,30.1269339-.7461961,3.6902739-.7963063,7.4326309-.9175706,11.1718313-.0362346,1.1163677.0562919,2.2395746-.2001781,3.3446313-.1029168.4434957-.2532476.8925154-.7607951.9140852-.5182666.0218328-.6978613-.4342891-.8080776-.8635804-.4318559-1.6821799-.5128742-3.3982927-.4895288-5.1309774.2689646-9.2421251,2.4794069-18.0370717,6.2433336-26.4503385,5.0620593-11.3151914,12.9289793-20.3458274,22.7987324-27.7161164ZM113.6802481,206.2926657c-.5040621-7.8992747,2.973802-13.9493352,8.3189647-19.2473469,1.4428079-1.4301817,1.9869188-1.4367578,3.4676711-.0589223,3.6630486,3.4080254,5.499505,7.7432883,6.263917,12.5914912.8435889,5.3506209.5956679,10.7275464.3369621,16.1052611-.0806236,1.6761298-.0728638,3.3580466-.0602376,5.0370699.0338014,4.4788861-.0839775,8.95067-.5147812,13.4111428-.0324204.3351207.0184132.6928635-.5586442,1.2926086-.1377704-1.7434696-.323744-3.1707578-.3507062-4.6014656-.1108739-5.8972307-.1745311-11.7957767-.2531161-17.6935335-.0219644-1.6479839-.0372868-1.6845473-1.6667917-1.6327272-.6853009.0218328-1.3674452.1399405-2.0512336.2128043-3.0276607.3224945-3.0360124.3222315-3.1136768,3.3070157-.0291324,1.1192612.0318286,2.2416789-.0247263,3.3588358-.0514255,1.015358.3647792,1.2897151,1.3200969,1.1158416,1.1858119-.2162239,2.3371647.0481374,3.482862.399567-.9177021.564497-1.9080707.5955364-2.9033057.6068474-1.6980284.0194654-1.6777081.0181502-1.4835801,1.6435121.1485553,1.2431559.1868943,2.504199-.050176,3.7334134-.2089244,1.08375.2530504,1.3318025,1.1794988,1.1731856,1.0053622-.1722952,2.0084228-.3317011,3.3254947-.1820279-1.1552328.8564781-2.2898821.8977764-3.3326627,1.066652-1.0454768.1694017-1.3291062.6623501-1.3431792,1.6414077-.0180844,1.2592017-.1964954,2.5162991-.4738118,3.7741856-.5711389-.9148744-.5849488-1.9176061-.6007316-2.8903506-.0453755-2.7988106-.0681289-5.5997256-.0084175-8.397747.024529-1.1492485-.2925073-1.6790233-1.5225766-1.5882724-.6268389.0462961-1.7111807.1407297-1.6975023-.5768601.011574-.6084257,1.1051225-.3456426,1.6942142-.3030291,1.1139345.0804921,1.5440807-.2830376,1.5222478-1.4409666-.0299215-1.5887985.1027853-3.1818057.186697-4.7716564.0438629-.8301735-.2114891-1.2123795-1.1266922-1.0056253-.8847556.199915-1.7976571.1854475-2.6971433.0476113-.2429888-.0373525-.5351015-.1244208-.5557507-.4400761-.0203203-.3111835.2404899-.479007.485057-.5226726.8870572-.1583538,1.778389-.3238098,2.6751132-.3866778.7095011-.0494527.965708-.3472209,1.0003644-1.038506.1162664-2.3195406.2638352-4.638029.4333685-6.95415.0409037-.5584469-.1054157-.9264484-.7991341-1.0166732,1.1610198-.6986505,1.5837349-.5810689,1.6281239.5402967.0729295,1.8434271-.0537929,3.6944826-.0806236,5.5426446q-.0361688,2.4902575,2.4420543,2.4255482c1.0332451-.0244633,2.0672136-.0278829,3.1007875-.0218328.6000739.0034196.991355-.1680865,1.0123987-.861213.206557-6.8121051-.5516735-13.3524836-5.1906889-18.831471-1.1659519-1.3770464-1.0662574-1.3165458-2.300667-.0255155-1.792988,1.8749927-2.9122492,4.2090008-4.3922124,6.2889064-1.9920482,2.7995997-2.2733102,6.2765432-2.4035181,9.6498465-.2424628,6.2791737-.3282815,12.5643974-.6007973,18.8419928-.1334959,3.0752721-.2767245,6.1660638-.8748256,9.3176193-.6598512-.3890452-.4848597-.9530161-.4986039-1.4012466-.1236317-4.0424926-.2163554-8.0789352-.1025222-12.1308974.1413873-5.0297047.0775328-10.0828204-.2428573-15.1038446ZM174.6258615,77.5505345c-.1710457,3.69685-.1936677,7.3923848-.194128,11.090024-.0001973,2.0662272.4930799,4.1435023.4578318,6.1452832-.034459,1.9604827.9561068,1.5411872,1.9835649,1.7216368,2.5671985.450598,5.1584657-.2922442,7.3431294.1964954,1.1952815.005787,2.0142098.0105218,2.8114368-.2233261.3402501-.0999575.6788562-.217013.7158142-.6349933.0307764-.348273-.2045841-.6023756-.4893973-.6881286-1.0692167-.3214423-1.0460686-1.0963762-.8900165-1.9594305.2391747-1.3231219.168218-2.6620266.1671658-3.9954074-.0042745-5.5121312.0178871-11.0245255-.0491239-16.5358676-.0322889-2.6601853.2867203-5.2298827,1.2421037-7.7211924.4240961-1.1061089.6078996-2.2982339.2142511-3.4235451-1.3967748-3.9919878-3.5481632-7.5396906-6.4684354-10.6152257-.879955-.9267114-1.6333848-.8583195-2.480196.073916-2.2495046,2.4768422-4.09451,5.1967389-5.3607482,8.3101527-.8881094,2.1838088-1.0114781,4.3855047-.1058761,6.5414306,1.5992546,3.8065402,1.2852433,7.7714343,1.1026235,11.7181781ZM175.3228021,65.9278422c-.0893042-.393517-.1340878-.7602033.0719431-1.1197873.3797728-.6626131.6214464-1.5864311,1.4214354-1.7247933.908627-.1573016,1.5843925.5371402,2.1204804,1.2397363.7509309.9837924,1.2703812,2.0483401.9989176,3.2759762,0,.2383198.0063131.4103519-.0009207.5815949-.0895014,2.1141016-1.4804235,3.0071431-3.4297267,2.2148482-.4324478-.1757148-.5408228-.5197791-.556211-.924081-.0459673-1.2100121-.3602416-2.373202-.6259182-3.5434941ZM179.6570129,75.2330983h-.0132181c0,.5573947.0019071,1.1147894-.0003946,1.6719211-.0076283,1.8610512-.0122974,1.7873983-1.8151497,1.8865667-1.2885971.0710224-1.7792439-.330912-1.6950691-1.6566644.0975901-1.5369784.0461646-3.086583-.0054582-4.6285593-.0304476-.9080352.1613788-1.4351796,1.2131029-1.1424093.2020852.0560288.4264635.0494527.6399912.0447178,1.2119192-.0273568,1.8503321.445074,1.6905316,1.7679329-.0816758.6762915-.014336,1.3704702-.014336,2.0564945ZM184.4723349,94.8663338c-2.6175718.3172336-5.2474411.074179-7.8702081.1688756-.5569344.0199915-.5306298-.4035127-.5089285-.8267539.2230631-4.347363.1039032-8.6976196.048532-13.0457718-.0156512-1.2307927.4170596-1.5551286,1.5726869-1.5090955,1.912674.0760203,1.9423982.0176241,1.9285883,1.5106738-.024003,2.5875846.1173843,5.1617538.5149785,7.7193511.0495842.3190749-.0384705.7057527.4622378.9417051.2957953-.6029017.1972188-1.1723965.2038607-1.7208476.0272253-2.2395746.0077599-4.4794122.0505049-6.7181976.0177556-.9293419.1080462-1.8665752,1.4660217-1.7450479.3587291.0320916.9316436-.0199915.9192146-.473483-.0131523-.4787439-.5813319-.4456001-.9470975-.4082476-1.0944691.1120576-1.4753599-.4356044-1.4676-1.4372839.0120344-1.5501307.0258443-3.1010506-.0068392-4.6506552-.0171638-.815706.355178-1.1771313,1.1295858-1.2510473,2.8902191-.2761984,2.9215874-1.0684933,2.8346506,2.4513267-.1105451,4.4757296-.3099341,8.9496178-.223918,13.4287669.041364,2.1532955.1265252,4.3055387.6339411,6.4078032.1742023.7220616-.0208464,1.0708607-.7402118,1.157929ZM184.8096258,69.8588033c-.0870025.4726939-.3836528.639202-.8224794.6378868-.3013851-.0007891-.6028359-.0047348-.904221-.0094697q-2.0685288-.0315655-2.0113821-2.0607032c.0528065-1.4743734.2416736-2.9258619.9804386-4.2326749.3875327-.6852351.9200695-1.3773094,1.8035756-1.2271101.9787946.1662451,1.3579755.9932621,1.464575,1.9036647.1985998,1.6966474-.20682,3.3385812-.5105067,4.9884064ZM175.2216609,61.8829822c.6950993-3.1476097,2.357748-5.773336,4.4228573-8.1886254.4546094-.5316162.7162088-.3666863,1.1142633.0502418,1.8937347,1.9836307,4.1171977,6.1986816,4.6547982,8.9027956-1.5841952-1.2507842-2.304547-1.2481538-3.7804329.4132454-.8964611,1.0093079-1.5009411.8996177-2.4020055.0670768-1.6433148-1.5183021-2.1094325-1.4983106-3.9239903-.1801866-.3164445-.3343316-.1601293-.7262703-.08549-1.0645476ZM228.5034917,230.0641426c-.0896987-7.0996145-.2045841-14.199229-.2544313-21.2991065-.0247263-3.5324462.3403159-7.0351682.9890534-10.5147421.9219109-4.9452669,3.8546119-8.6489561,7.2655308-12.083023.5316819-.5352988,1.0115438-.3632667,1.4564205.0699703,4.2631883,4.1519198,7.5763198,8.7310265,7.7565721,15.0580745.1998493,7.0159658.1861051,14.0258816-.0777959,21.0331669-.1405324,3.7326243-.339198,7.4749813-.9664972,11.1720944-.0842405.496105-.2110287.9853707-.3181543,1.477793-.5637736-1.0171993-.589289-2.04229-.6011261-3.068959-.092658-8.0473696-.1696647-16.0947392-.2856681-24.1415828-.0447836-3.1063115-.4909756-6.1631703-1.2775492-9.1758374-.7988053-3.0597523-2.7066787-5.3230011-5.0162235-7.34188-.6812237-.5952733-1.0615883-.1972846-1.4916687.2743571-2.6228985,2.8766723-4.2864021,6.2536582-4.9295499,10.0680898-.8032771,4.7640281-.8693016,9.5717218-.6753709,14.4023006.2068858,5.1549146.3474181,10.3261381-.6032305,15.4437001-.0737187.3969366.0156512.8851502-.5664698,1.1360961-.2720554-.8325409-.3931224-1.6619253-.4038415-2.5105121ZM177.2761168,209.7396219c.2471318-.210963.4639476-.5008398,1.0102286-.4803222-.2201038.7970297-.7150908,1.3296981-1.1748954,1.853949-3.1770051,3.6231971-6.4533102,7.1622195-9.5450884,10.8559129-6.987228,8.3475052-12.9488393,17.3789304-17.8689195,27.103482-3.6763324,7.2666488-6.1736922,14.9320754-8.130821,22.8045194-.3199956,1.2873477-.8753517,2.516036-1.3263442,3.7702399-.0575413.159932-.1419791.3101314-.3180885.6886547-.5908673-1.4280773-.4509926-2.5184035-.2516036-3.5916316,1.4154511-7.6193936,3.9521363-14.8713118,7.2126586-21.8833319,5.8360067-12.550456,13.4899909-23.8816932,22.8904697-34.0321165,2.34065-2.5276101,4.8822673-4.8526746,7.5024038-7.0893557ZM206.0505334,274.3095504c.1644696,1.3210176.0105218,2.5833758-.8105766,3.6865912-.4008823.5384554-.5302352,1.1634529-.6755024,1.7950266-.0808867.3516926-.3042786.6605088-.7029907.6449891-.4080503-.0160458-.6054664-.370632-.630653-.713118-.0533984-.7270594-.0718773-1.4625364-.0281459-2.1901219.5205683-8.6644758-1.5574303-16.7373609-5.6266878-24.3257151-4.0978638-7.6414895-9.6833849-14.0974301-16.1205178-19.8515638-1.3886862-1.2413146-2.7266044-2.5320818-3.8443531-4.0485427,1.9704784.8404323,3.6175416,2.1240973,5.2069977,3.4814153,6.2893667,5.3706124,11.9743192,11.2646866,16.0835598,18.5334397,3.5572383,6.292589,6.0008051,12.9487078,6.7573257,20.1761627.098445.9406529.2746201,1.8728883.3915441,2.8114368ZM175.578746,232.4597035c.1421107.5779123-.3222972.8467454-.616054,1.1789727-5.9201815,6.6968909-10.8348035,14.0198315-13.9523602,22.4549311-2.0190762,5.4632046-3.0051703,11.1079111-2.9237575,16.9391173.0221616,1.5869572.1731501,3.1886449-.2578509,4.7527171-.1373101.4982093-.2623227,1.1026893-.8979737,1.1019002-.5831075-.0007891-.663205-.6050061-.7913742-1.0413995-.132378-.450598-.2299681-.9232918-.2556808-1.3912509-.653012-11.8931037,2.3209873-22.7548037,9.2576448-32.4880358,2.7289061-3.8288992,5.7810959-7.3837043,9.0713424-10.7375422.5723226-.5834363.5826471-.5731775,1.3660642-.7694099ZM237.651512,212.7599174c.04965,3.4829935.0233453,6.9691436.1717691,10.4479284.1100848,2.5791671-.0152567,5.1322926-.2028086,7.7146163-.6831965-.0386678-.5574605-.5268814-.6192763-.8535846-.5129399-2.7135837-.5253031-5.4732004-.6653751-8.2165083-.0588566-1.1529311-.4342891-1.7037497-1.6008329-1.5848528-1.1754873.119949-2.4079241-.3435382-3.5285663.3466948-.2107657.1296817-.4216629.1307339-.5112301-.1433601-.0937102-.2869833.0645121-.5118877.2847474-.6586675.6989793-.4650655,1.5047553-.621841,2.3171732-.7228507,2.9159319-.3627406,2.9078432-.3577427,3.0083926-3.2694001.0265677-.7720403.0805579-1.5485524.2006384-2.3108601.1995862-1.2670931-.4207423-1.700067-1.5735418-1.7411022-.9854365-.0349851-1.9840253.0539245-2.9516404-.2185913-.3181543-.0896987-.8262278-.0783877-.8134701-.4803222.0153882-.4868983.5587099-.4600676.9104683-.4774287.9011302-.0444548,1.8104806-.0849639,2.7073363-.0128893,1.0988094.0883835,1.5862338-.2756723,1.532967-1.4367578-.0689181-1.5027824-.072798-3.0134562-.0017756-4.5154495.0541875-1.1458289-.3978572-1.5532873-1.5100162-1.4688495-.4669726.0352482-1.2716964.2448959-1.3231877-.3790494-.0476113-.5773862.778485-.530564,1.2524283-.6297324,1.8012082-.3769451,1.7697085-.3601101,1.7567534-2.2966556-.0070365-1.0521844-.7328465-2.1977502.5443739-3.3861926.1329698,1.3949335.3164445,2.5828497.3370278,3.7736595.0159143.924081.0685893,1.6537709,1.5166581,1.5588112-1.8451369.5129399-1.4682576,1.8181747-1.4428737,2.9334902.0382074,1.6748146.1581565,3.3477878.2016248,5.0226024.020123.7746708.3605705,1.0729651,1.1167623,1.0424517,1.0740173-.0434026,2.1505335-.0565549,3.1323531-.5671274.283761-.1473058.5342466-.3353838.7623734.034196.2150402.3487991.2319409.7436314.1236974,1.1232069-.1057445.370895-.3899001.4127193-.7195626.2809332-1.1938348-.4776917-2.371821-.0578701-3.5585535.0497157-.6790535.0615528-.8632516.4521763-.8548341,1.0419256ZM227.3426692,236.5774273c2.0281513-1.2428929,14.0852643-1.5840637,18.3817936-.5200422-1.2417092,1.3212806-16.7109905,1.5190913-18.3817936.5200422ZM129.014784,236.1505035c.408116.0391939,1.0320614.0144675,1.0542888.5124138.0277514.6213149-.6264443.5915907-1.0788836.6384129-3.4418268.3559014-6.8719481.1728213-10.295559-.250946-.0854242-.0107849-.1779507-.0063131-.2545629-.0386678-.4469811-.1893932-1.2790617-.0773356-1.2117219-.6918113.0649724-.5923798.8502308-.410878,1.3372607-.4227151,1.2910303-.0307764,2.5832443-.0102588,3.8745377-.0086805,2.1993943-.1031141,4.3887928.051294,6.5746402.2619939ZM186.0324614,189.1473203c10.4921202-1.7242672,18.6295831-11.7681568,18.5836815-22.3147275.004143-9.2089812-5.3858033-17.0238181-13.9211892-20.4397349-5.4034932-2.1627651-10.8367106-1.8592099-16.3566016-.69602-10.2870757,2.1674999-17.6973477,12.185348-16.6155048,22.4004806,1.2966858,12.2432181,13.0588583,23.5563052,28.3096141,21.0500019ZM160.6199056,167.021986c-.02979-7.2000981,3.032264-12.7574733,9.1747195-16.3825117,6.9229133-4.0856322,14.1426083-4.0690603,21.3812427-.6820786,1.4990998.701544,2.7876969,1.6953322,3.7915466,3.0305542-1.5943882.5426641-2.7443601,1.7308434-3.9805452,2.7809235-1.5732788,1.3365373-3.0794808,2.7525145-4.6626896,4.0766886-.9122439.7628337-1.3670506.5944842-1.7842418-.5371402-.6252606-1.6961213-.2984916-3.3980296.0151909-5.0936249.2344398-1.2670931.5053773-2.5276101.7356742-3.7954923.0761518-.4190325.1593402-.9772163-.3518899-1.1103176-.6187502-.1612473-.7495499.4584894-.8953432.8833088-.547399,1.5940594-.7010836,3.2754502-1.0485676,4.9142274-.2316121,1.0926935-.4335,2.1956459-.9396007,3.2094256-.3601101.7210094-.832804.9709032-1.5204065.382469-.4953158-.4240303-.9166499-.707331-1.5104108-.0194654-.5561452.644463-.6603115-.1212643-.8121549-.4356044-.8222821-1.7021714-1.4531325-3.5008807-2.5467467-5.065742-.6297981-.901196-1.1940978-1.8642078-2.3172389-2.6809659.2276006,1.6164183.8987628,2.8116999,1.4620103,4.033286.5398364,1.1705552,1.2275704,2.2732445,1.7608307,3.4464301.7692783,1.6924387.303884,2.65282-1.2085653,3.6742281-1.438928.9716923-2.5580577.7096984-3.8083816-.2759354-1.3484401-1.0632324-2.6731403-2.1767066-4.2020958-2.989256-.4032497-.2143826-.9201353-.587382-1.2816922-.1191599-.3298598.4271869.0500445.901196.3523503,1.2676192.7223246.8759435,1.6574535,1.4993628,2.6090886,2.0883231.9507802.5884341,1.9396362,1.1153155,2.8928496,1.700067.769936.4721678,2.0317681.8396432.5772547,1.9783698-.0301845.0236741-.0533326.0749681-.0546478.114162-.0739817,2.247466-1.7382745,2.1693413-3.2949156,2.2643009-2.3847103.1452015-4.6725538,1.0348234-7.1249984.7970297-1.064153-.1033771-1.403351-.4248195-1.4076255-1.4541189ZM187.7037906,168.9369617c-.6217752-.1930758-.5431245-.7402118-.9736652-.9687988-.5957337.7102245-.2433834,1.2534147.2393062,1.7716155.306646.3290707.627365.7233768.3654368,1.135307-.2700168.4245564-.5912619-.0873313-.8971188-.1420449-.9077064-.1625625-1.6021481.3498513-1.4395856,1.1934402.098182.5089942-.2354263.4653286-.45941.5863298-.4529654.2441068-.9399953.4303434-1.3763888.6997027-1.9113588,1.1805509-1.9222752,1.2086969-3.7247987-.1691386-.6797111-.5195161-1.2766943-1.1497745-1.895576-1.745837-.560617-.5400337-1.0979545-1.0316668-1.9589044-1.1247852-.5712046-.0618158-1.3678398-.3435382-.4054856-1.1053198.4112068-.3256511.2467373-.6071104-.0842405-.8162321-.8944883-.56476-.5337863-1.1360961-.0150594-1.6819168.3540601-.3724733.7383047-.7283747,1.1560877-1.0256168,1.2013973-.8551629,1.8554615-2.0272964,1.9927058-3.4648434.0669452-.701807.2514063-1.021145,1.0273266-.8675261.5410201.1070598,1.1161046.0936444,1.6719868.062605,1.2607142-.0699703,2.2714032.0815443,2.5520076,1.6448273.1539477.8577934,1.0565247,1.1829184,1.7697742,1.5853789.6571549.370895,1.4835801.6336781,1.1091339,1.7048018-.0843063.2412133.0194654.5521338.3380143.5976408,1.3629077.1946541.8293186,1.2326341,1.008453,2.1304104ZM162.0606749,169.5559091c2.704377.1117946,5.4066497.4169281,8.123653.0962749,1.4286034-.1686126,2.4187747.9998383,3.6586426,1.4357057.225299.0791769.2704114.3085531.1588799.5413489-.7375813,1.5406611-1.3721143,3.1236725-2.8641776,4.1800657-1.2270443.8685783-2.3553149,1.8784123-3.508246,2.8485263-.2394377.2014933-.6324944.4587524-.350772.8393801.2023482.273568.5708101.1315231.8436546.0157828.5921168-.2506829,1.1963995-.490844,1.7479414-.8162321,1.343508-.793084,2.4878243-1.8418489,3.599523-2.9269141,1.3766518-1.3436395,2.6333546-1.4446492,4.1656639-.3672124.4925538.3461687.1443466.6707676.0209122,1.0085188-.7879546,2.1559259-1.2953706,4.3707742-1.3483086,6.6729537-.0104561.4553328-.0752969,1.1300461.4732857,1.1968598.5934978.0720746.5971147-.6431477.6956912-1.0627063.4722993-2.0096723.9109944-4.027762,1.3327231-6.0490083.1673631-.8020276.5242509-1.1234699,1.4167663-1.0671781,2.5683164.1617734,2.5464836.1223164,3.0713264,2.6328285.3429464,1.6406186.6541299,3.3001765,1.4012466,4.8224243.2166185.4413914.4269896,1.163716,1.0091764.99826.6509734-.1851845.3050677-.8990916.2202354-1.3483744-.3908208-2.0714881-.7908481-4.1440284-1.2978695-6.1889489-.2381225-.9603813-.0599745-1.5064651.8475346-1.962587,2.1204147-1.0655998,1.5451328-1.3773094,3.5999833.4058801,1.1060431.9598553,2.2174129,1.91708,3.4803631,2.669655.477889.2846159.9815566.5497664,1.5066624.7236398.3858886.1281035.9273691.2959269,1.1909413-.1323122.2888246-.4690112-.1761751-.8149168-.4971571-1.0587606-1.1987669-.9111917-2.4317298-1.7774026-3.6499621-2.6630788-.8347768-.6065843-1.7438642-1.135307-2.3883929-1.9581152-.324007-.4137715-.3662917-.7249551-.032552-1.397827,1.1262977-2.2708771,3.2140946-1.7518871,4.9781476-1.9831046,2.1665793-.2840898,4.3885298.1315231,6.5662885-.2919812.2013618-.0391939.4319217-.0102588.6432793-.4613829-3.6911945-.6815525-7.2911121-1.1668725-10.9414029-.0460331-.3226261-.4519132.1277746-.7173267.2540368-1.0290364.2719239-.6715567.2934279-1.3241741-.2906002-1.7660916-.8162321-.6176323-.4102204-.913033.1978764-1.2499951,1.5156059-.8396432,3.1825291-1.3060239,4.7771804-1.9507499.5983641-.2417394,1.2070528-.4642764,1.7854255-.7481031,1.885383-.9246071,2.1317914-2.0654381.8625282-3.8870324-.0564234.0536614-.1697963.1233686-.159932.1578277.4186379,1.4785822-.268307,2.179074-1.6280581,2.6380894-2.1187706.7152224-4.2118285,1.5227739-6.266942,2.4047675-1.4072309.6039539-1.6894794-.547662-2.2644982-1.2528886-.6512364-.798871.129616-1.1608225.583239-1.5375045,2.1198886-1.7600415,4.3320406-3.4222299,5.9576656-5.6938961.4471126-.6249976.8216903-1.3020782,1.2288199-1.9552217,2.6131658,3.7810248,4.6150782,7.8769157,6.030069,12.2350637.9067857,2.7930236.4045649,5.5831537-.8376703,8.1667926-5.6868596,11.8283944-19.1683015,15.3542644-29.3127405,10.2269697-5.3059688-2.6820181-8.5068454-7.1135559-9.7572351-12.9573883-.2135277-.9979969.0032881-1.1476702.9671548-1.1079502ZM183.324336,167.2553079c.0305133,1.0829608-1.0001013,2.0775382-2.1669081,2.0912166-1.3775067.0160458-2.237536-.7062788-2.2706798-1.9073473-.0324204-1.1773944.8360263-2.3440039,1.7389321-2.3361125,1.2889259.011574,2.6693919,1.112422,2.6986558,2.1522433Z"/>
  </g>
</svg>