<?xml version="1.0" encoding="UTF-8"?>
<svg id="Layer_2" xmlns="http://www.w3.org/2000/svg" viewBox="0 0 266.5841973 266.8043022">
  <g id="Layer_1-2" data-name="Layer_1">
    <path d="M264.7040898,150.9604268c-.2351997-.5423429-.5986063-1.0591674-.4368873-1.715267,1.2836063-5.2097507-.9955251-9.1918511-4.4352826-12.7527441-1.6866741-1.746012-3.6789541-3.1307696-5.6607807-4.507226-5.1522574-3.5787252-8.8957761-8.2381392-11.1131099-14.1230515-.6019883-1.5972059-1.3180408-3.1516763-1.9756777-4.728283-1.5996656-3.8342166-4.0355968-6.91026-7.7858794-8.8834781-1.4185771-.7464901-2.7031058-1.7444748-4.078025-2.5792032-.8897621-.5404982-1.0911422-.859017-.1168312-1.6737612,3.4225403-2.8617503,4.432823-8.7239112,2.2732899-12.4056323-1.2239609-2.0863599-3.1667413-2.9798114-5.0569477-1.6660749-2.0875897,1.4508595-4.0731058,1.161241-6.2372506.8258124-.9906059-.1534179-2.0027333-.2016876-3.006867-.227206-7.8713507-.2007653-15.352239,1.6756059-22.6815543,4.3190662-9.4378115,3.4040932-18.2779391,8.0985567-27.1789419,12.656512-.7664744.3926144-1.4311826.519899-2.2809761.3166741-2.7848877-.665938-5.6128184-1.1600112-8.3866379-1.8662252-6.8988844-1.7567728-13.8401969-2.5684424-20.9146356-1.2482495-2.1097261.3935368-4.214533.8144367-6.3857493,1.2353366.0338196-.2591809.0135278-.4187477.0753254-.5337343,3.6008616-6.6836689,7.623238-13.1324456,11.0805202-19.8954368.3615619-.7071364.644109-.4682473,1.1295736-.1620265,3.203328,2.0217952,4.5050739,1.7675336,6.6664517-1.2439452.5561782-.775083.9546342-1.8324057,1.7085031-2.2511534.8273496-.4599461,1.7263352.5180543,2.6422306.7329623,1.8317908.429816,3.3407584.0817819,4.1056955-1.0573227.8039834-1.1972127.6763914-3.1953342-.2877738-4.5539585-.781232-1.1009807-1.9393985-1.7321768-3.0323854-2.4469994-2.4116426-1.5766068-2.8190147-2.8586758-1.6310255-5.4664719.6035256-1.3244973,1.3564721-2.5801256,2.0011961-3.8874056.8258124-1.6737612.7538689-3.2666628-.3993783-4.8177511-.7175897-.9650875-1.3275718-2.016876-1.9194142-3.0674348-1.4081238-2.4995735-1.737096-5.1039877-.675469-7.8316895.6739317-1.7315619,1.3435592-3.4668131,1.9483146-5.223586.9168177-2.6640596.6391898-5.2374212-.678851-7.7265414-2.7123293-5.1218198-8.5440526-7.884571-14.5497929-6.8994993-3.7278387.6118267-6.6532313,2.173061-7.8034041,6.1038171-.5285076,1.8062724-1.7404779,3.1396857-3.3355317,4.1398225-.8516382.5337343-1.6789878,1.1111265-2.4857382,1.7109627-2.8051794,2.0860524-3.6063957,4.6209828-2.5275515,7.96912.2616405.812592.5546409,1.6162679.8648586,2.4119501.8633213,2.2130295.6253546,4.2388216-1.0007518,6.0306438-2.2806687,2.5137162-3.9848674,5.4218916-5.7330316,8.3039337-1.7967414,2.9625941-4.0325223,5.2697035-7.2853498,6.9271698-2.3556866,1.2005947-4.0100784,1.1427939-6.232024.1583371-5.4649347-2.421481-11.1251005-4.4263665-16.0473849-7.934378-2.1902782-1.5609268-4.2904733-3.2854173-5.335498-5.8289562-1.5741472-3.8314496-3.8950918-7.1288574-6.6409333-10.1726185-.195846-.2173676-.4356575-.4676324-.4848496-.7341921-.5023743-2.7154038-.9780004-5.4360343-1.4422508-8.1585095-.1715574-1.0072082.0513443-1.3792235,1.2666965-1.1581665,3.3278455.6056777,5.5956012-.7215866,6.7199481-3.6866403.4092168-1.0791517.348649-2.4303971,1.7330991-2.9539855.1254399-.0476548.2474977-.3630992.2164452-.5242033-.339118-1.7592324.8368806-2.1644523,2.1521543-2.4165618,1.2291876-.2355072,1.6759133-.9850718,1.5231103-2.166297-.1423496-1.0960614-.2050696-2.2136444-.4734739-3.2789608-.3197486-1.2691561-.1134493-2.2453118.7120556-3.3260008,2.8611354-3.7469007,2.5290888-6.5410118-1.1197351-9.4968421-1.9178769-1.5532405-3.779183-3.1507539-5.5556326-4.8647911-2.1460053-2.0706799-4.7507269-2.9438396-7.7403767-2.5795107-3.8302198.4664026-7.2444589,1.9553859-10.4022841,4.1318288-2.7913441,1.9237185-4.271104,4.6166784-4.7636398,7.8965616-.3240529,2.1586108-.3852356,4.3150694.563557,6.3700693.2216719.4802379.5672464.9509448,1.1126638.8663958.7108258-.1103748.460561-.7941449.4599461-1.2399483-.0024596-2.0104196-.2969973-4.0168423-.0565709-6.0318736.3271275-2.7433818,1.5043559-5.0111376,3.8314496-6.5490056,1.9307899-1.2759201,3.9774886-2.3765933,6.1751456-3.1233908,4.2837094-1.4554712,8.1206931-1.0736175,11.103579,2.7990304.5072935.6588667,1.2832989,1.1163532,1.9532338,1.643631,1.1846072.9328052,2.4611422,1.7561579,3.4701951,2.8971071,1.5274147,1.7260278,1.5575448,3.6503612.740956,6.0125042-.1202132-1.2221162-.1429645-2.1278657-.3096028-3.0062521-.35818-1.8868244-1.2135076-2.4353163-3.0944904-2.1306328-1.5910569.2576436-2.9137095,1.0539407-4.168108,2.0033482-1.201517.9094389-2.3307831,1.917262-3.6961713,2.5998024-1.3054353.6530251-2.3449258.9823047-3.7210748-.2807024-2.315718-2.1257136-4.2790977-1.4161175-5.3059827,1.6267212-.217675.6447239-.4593312,1.2027468-1.0490215,1.584293-1.434872.9291158-2.8614429,1.870837-4.283402,2.8196296-.5497217.3664811-1.2381036.579237-1.6799102.1239026-1.5341786-1.5824483-2.3452333-.3526459-3.271582.6966831-.532197.6026032-1.1212724,1.1557069-1.6946678,1.7208011-4.5871632,4.5179868-9.4956123,8.7051567-13.724288,13.5936215-4.946573,5.7179665-7.6493713,12.1904169-7.3671316,19.8530086.1426571,3.8772597.472859,7.729001.8722374,11.5832019.3987634,3.8465147,1.1861445,7.6628991.9158954,11.5650624-.3763196,5.4403386-2.2280946,10.4167343-4.9656349,15.0463257-5.1697821,8.7426657-10.3521697,17.4825643-16.252147,25.7677435-.7280431,1.0219658-1.4001301,2.0903567-2.0205654,3.1811915-.8347284,1.4665394-.7194344,1.8111916.8796162,2.456223,2.5300111,1.0210435,5.1919185,1.5532405,7.8704283,2.0251772,3.0139384.5309672,3.3794972.3366584,4.2053095-1.9925874.1669457-.4710143.4870018-.8986781,1.1046701-.8703927.6573294.0298227.756636.5586378.9229667,1.030267,1.3392549,3.7957853,2.3778231,7.6779642,3.302942,11.5915031.3575651,1.5129645.8384178,3.0194725.6723945,4.5997687-.5423429,5.158099-.6988352,10.3404865-1.0330341,15.5118059-.4024529,6.2240303-.8101324,12.4486754-2.667749,18.4697883-.3068357.9952176-.8319614,1.5932091-1.7521611,2.0676054-4.6022283,2.3725964-9.2404282,4.6935411-13.4045394,7.8175468-5.2715483,3.9544298-9.129746,8.8696428-10.6048941,15.449086-.6644008,2.9644388.0292078,5.4747731,2.1736759,7.5924929,1.360469,1.3432517,2.8162476,2.5954981,4.1164563,3.9937835,5.3235074,5.7259603,9.8737765,12.058828,14.4197413,18.4009193,1.3082024,1.8250269,1.9218738,3.7210748,1.8154959,5.9045891-.0857787,1.7583101-.1878523,3.5163127-.3009942,5.2730855-.1810884,2.8107135-.5361939,5.6131259-.3907697,8.4392119.1475763,2.8595982.9241966,5.4261959,3.7429038,6.7297865,1.1102042.5134425,1.3890619,1.1464833,1.3853725,2.2831283-.0073788,2.4860457.8445668,3.3115506,3.2863396,3.5836444,2.9487589.3289722,5.8938283.6896117,8.8385903,1.0517886,4.7418108.5832338,9.4704013,1.3223451,14.2657086,1.2940596,2.3864317-.0141427,4.7252085-.352031,6.8352421-1.5606193,1.1022105-.6315036,1.8216449-1.5729173,1.8130363-2.9309267-.0083012-1.3460188-.8427221-2.0571521-1.9283303-2.6342369-1.7976637-.9552491-3.7472081-1.4385614-5.6976748-1.9231036-2.3590686-.5860009-4.1702601-1.9338644-5.5399526-3.9104644-.2425785-.3501863-.5909201-.6244322-.2155229-1.179688,1.0853007-1.606122,1.904964-1.9077311,3.6952489-1.195368,1.12035.4461108,2.2493087.8725448,3.3579756,1.3466337,5.5399526,2.3692144,11.1567679,2.8921879,16.8713525.6785435.6539475-.2533393,1.1544771-.0783999,1.7088105.1758618,1.5646162.7178972,3.2119366,1.1477131,4.9115236,1.4038195,5.0277399.7578658,9.6573313-.6960682,14.2189761-2.5392346,3.912924-1.5806036,7.6767344-3.5187723,11.6809712-4.8767817.5248182-.1783214,1.0477917-.6026032,1.7260278-.320671-.522666,2.4094905-1.7051211,4.4503477-2.9358459,6.4659939-.9177401,1.5028186-1.8591539,2.991187-2.384587,4.6916964-.7544838,2.4423877.3308169,3.6488239,2.829468,3.0892638,2.4414653-.5466472,4.6034581-1.7186489,6.6430854-3.1319994,3.6598921-2.5361601,6.8318601-5.3810007,6.692585-10.3801477-.024596-.8796162.3919995-1.0843783,1.2494793-.7062141,2.1281732.9395691,4.0113082,2.2994232,6.041712,3.399174,8.7887833,4.7599504,17.9123803,6.1874436,27.430129,2.4147171,5.0249729-1.9919725,9.2471922-5.2826165,13.2093082-8.8810185,6.4143422-5.8255743,12.8548177-11.6025713,20.613334-15.6526183.1343559-.0704062.2376593-.2007653.3554129-.3028389-.4242818-.0310525-.7391113.0922352-1.0376458.2474977-4.8352758,2.5174056-9.3624861,5.4981394-13.5570349,8.9840144-4.2551165,3.5356821-8.2498224,7.3978767-12.8834106,10.4603923-7.1054912,4.6956932-14.751788,7.0882739-23.3188994,5.1445711-5.3176658-1.2064362-10.0182783-3.8419029-14.6786147-6.5434714-1.2691561-.7357293-2.5653679-1.3573945-4.0303701-1.6227243-4.3258302-.7833842-8.3915571.3723227-12.4206974,1.6734537-4.5973091,1.4843716-8.9391266,3.6196161-13.4103809,5.4265034-11.4513056,4.6271318-24.0306476-.1614116-27.1494266-12.8588145-1.2168895-4.9536443-3.2565169-9.6081392-5.6955227-14.0787786-1.5732248-2.8832719-2.0098047-5.9657717-1.8788307-9.1884691.1112971-2.7353881.6607114-5.3831528,1.4646947-7.987567,2.169679-7.0304732,5.6958301-13.41653,9.597071-19.5799924,5.7665437-9.1103766,10.9707603-18.4959216,15.1296448-28.4579364,2.4543783-5.8790707,5.7640841-11.2582266,9.8049076-16.2069517,2.8303904-3.4665057,5.556555-7.025554,7.993716-10.7893644.5020669-.7753905.9349573-1.5953612,1.3995152-2.3947328-3.377345,4.3461219-6.7359355,8.6648807-10.36539,12.7579707-5.3932987,6.0813732-9.6247415,12.8649636-12.7696539,20.3538456-2.8316202,6.742392-6.3768332,13.1017005-10.4702307,19.1618596-1.6888262,2.5004959-3.3195443,5.0412677-4.9312004,7.5921855-3.7982449,6.010967-7.1559131,12.2230067-9.0753273,19.1391083-1.7795242,6.4109602-1.4892908,12.5230785,2.1220241,18.2893148.6926862,1.1062073,1.2885255,2.2742122,1.9052715,3.4268446,1.6835996,3.1464496,2.9881125,6.4521586,4.3971587,10.1203519-.4267415-.3646364-.5567931-.4476481-.650873-.560175-6.6378588-7.956207-15.0054347-12.5436777-25.4298553-13.3937786-5.4025222-.4402693-9.6164404-3.050525-12.2780403-7.9030181-.9669322-1.7629218-1.898815-3.545213-2.863595-5.3093647-3.1449123-5.7514787-7.9457537-9.3400422-14.2678607-10.9833658-1.8969703-.4931508-3.8554307-.4943806-5.8483256-.8196633.7212791-2.0021184,1.7604622-3.7060097,3.0056372-5.2936847,2.9287746-3.7352175,6.8727511-6.1465527,10.9636889-8.3512811,5.182695-2.7938037,10.2903721-5.7096654,15.1013593-9.1162182,7.1602174-5.0698606,14.1236664-10.3949053,19.7829099-17.16712,4.6046879-5.5104374,7.9611262-11.8356189,11.2044228-18.2075329.9810749-1.9277154,2.0061153-3.8243782,3.2045578-5.6324953.5924573-.8940664,1.1520175-1.1753837,2.1985794-.7274282,2.5217099,1.0797666,4.7894657.6517953,6.7657582-1.3254196.9589385-.9592459,2.0331709-1.8022755,3.0431462-2.7110995,5.8836824-5.294607,11.0313281-11.3114156,16.5845011-16.9306905,2.9561377-2.991187,6.0598516-5.8455586,9.9202016-7.5288507,3.9166134-1.7078882,5.6490976-4.6652556,6.3574638-8.6408995.4851571-2.7224752.4870018-5.5193534,1.2952894-8.1840279.1730947-.5700134.3600247-1.301131.9946027-1.4108909.7080588-.1220579.9072868.6542549,1.226728,1.1387971.193079.2933079.3258977.6271993.52943.9118985.3840058.5365013.8642437,1.1713868,1.5664609.8522531.7055992-.3209784.6228949-1.1095893.3790866-1.7407854-.5328119-1.3786086-.7372666-2.7839653-.5343492-4.3448921.5577154.2991494.8516382,1.2211938,1.7696857.7732383-.8089026-1.5778366-2.3243267-2.7024909-2.5170982-4.5198315.8774641.983842,1.6196498,2.0423944,2.2576099,3.1605923.5011445.8786939,1.1480206,1.3257271,2.0808258.8362657.9795377-.5140574.9887612-1.4121207.6425718-2.3550717-.3139071-.8565574-1.0250404-1.4480924-1.696205-2.3240192,2.2735973-.339118,4.2981596-.9638577,6.6148-.5610974-.7978343.7009874-1.8342504.4916135-2.3861242,1.3008236,1.7121925.6634784,3.4997104.0814744,5.4212767.4436512-1.1261916.7139003-2.4359312.3824686-3.4508257,1.3294165,1.2851436.3037612,2.4356238.1752469,3.8766448.2041472-1.7269501.874697-3.4966358.6093671-4.9219769,1.6015103.5872307.5933797,1.1726166.4245893,1.6928231.3987634.5967616-.0292078,1.1836849-.2268986,1.7813689-.2890036.4814677-.0504219.9435659-.4282787,1.5701503-.1322038-1.7410928.8716225-3.7180003.6708572-5.5424122,1.8007383,1.3804533.4172105,2.5788958-.0126055,4.0755654.3120624-2.8094837,1.849008-5.8311084.5607899-8.4767209,1.4185771.233355.6573294.6736243.7984492,1.1145085.8854578,3.1858033.6287365,6.1914405.0867011,9.0126073-1.4803747.3695556-.205377.9687769-.5764699.8156665-.98046-.3163667-.8356508.3222082-.7726234.6871521-1.1028254.8473339-.7664744,1.936324-1.6666898,1.705736-2.8436107-.2189048-1.1188128-1.5873675-.7188195-2.471288-.9288083-.040276-.009531-.0722509-.053189-.1229802-.0928501.1644861-.6604039,1.319578-1.0929869.6293514-1.9215663-.5543335-.6656306-1.3082024-.3089879-1.9231036.068254-.3649439.2241315-.6905341.0584156-.7397262-.1853927-.1131418-.5614048.4347352-.4989923.7633999-.5807742,4.4214473-1.1006732,8.8662608-2.1297104,12.9058545-4.4595712.1730947.6431867-.2167527,1.0367235-.3963038,1.4797598-2.3427737,5.7822237-5.8430989,10.8717612-9.4488798,15.9099544-1.671609,2.3353949-3.0751211,4.8361982-3.4874123,7.7695845-.1217504.8660884.0556486,1.5338711.6607114,2.1933527,2.3132584,2.5217099,4.5773248,5.0886151,6.8632201,7.6352286.4771634.5312747.9703141,1.0484066,1.4560861,1.571995.1097599-.3720152.0086086-.5896903-.0630274-.8165888-.0694838-.2216719-.2899259-.4301234-.0768627-.7037545.1328187-.0181396.2800875-.0587231.4258191-.0550337,11.1429327.2853142,21.3957958-2.7950335,31.246206-7.8344566,9.478395-4.8494186,18.9112874-9.8335005,28.9609256-13.4715636,7.5239315-2.723705,15.2723019-3.9159985,23.2666328-3.4194657.9158954.0568784,1.8250269.2164452,3.0001031.3603321-3.044376,2.8190147-5.1996048,5.9214989-7.2890392,9.0516536-7.9140863,11.8556032-19.0533295,18.9140544-32.7296553,22.3101539-9.7452622,2.4202512-19.6550104,3.0652826-29.6468479,2.9410726-.8728523-.0107608-1.7463195-.0012298-2.6197867-.0012298.3956889.236737.790763.2521095,1.1824551.3000718,11.3206391,1.3807607,22.5066149.6899192,33.4918253-2.403034,10.89482-3.0680497,20.423022-8.4112339,27.732353-17.2688862,2.6609851-3.2245421,4.9330451-6.7365504,7.3818893-10.1178923.2945377-.4067572.5008371-.924504,1.1784582-1.2270354-.1518806.5432652-.2561064.9226593-.3640215,1.3008236-1.4769928,5.1722417-1.5120421,10.2577823,1.198135,15.0666174,2.3292459,4.1324437,2.6603702,8.4330629,1.6537769,12.9842544-.7883034,3.5655048-.476241,6.9846631,1.7881328,10.0677779,2.0510031,2.7934963,4.9662498,3.922455,8.1855652,4.650498,4.4113014.9976772,8.9468129,1.369385,13.2929348,2.6837364,6.3402466,1.9175695,11.6499187,5.2306573,14.891678,11.2228698,3.4935613,6.4573853,3.193797,13.9259756-4.2071542,19.1335742-4.2757157,3.0084043-9.0024615,5.0978387-13.7922346,7.063063-6.8586083,2.8140955-13.1419766,6.505655-18.5644831,11.6124097-5.0833885,4.7866986-9.2856235,10.3140458-13.4681817,15.8592251-5.9227287,7.8522887-12.0142477,15.5370169-20.2536167,21.1713568-.0485772.0332047-.0418133.1466539-.0817819.304991.9435659-.3099102,1.8191853-.6908415,2.7344658-.8836131,5.8839899-1.2377962,11.3910453-3.5630452,16.9771155-5.6958301,4.0568109-1.5489362,7.4778139-3.853586,10.3075893-7.1119476,2.9831933-3.4351457,6.6009647-6.0097372,10.7417096-7.8854934,1.9686063-.8916068,3.8542009-1.9437028,5.6899885-3.0981799,2.9521408-1.8557719,4.7762453-4.4011556,5.1931483-7.897484.3910772-3.2798832,1.8403994-6.0457089,4.1816358-8.3272999,1.6522396-1.6101189,2.6769725-3.5353746,3.0302333-5.7711555.1632563-1.0345713.6810031-1.5547778,1.5129645-2.0393199,3.433301-1.9999663,6.8924279-3.9701098,9.8089044-6.7264046,2.6197867-2.4752849,4.1607292-5.4489473,4.5957718-9.0780943.4129062-3.4434469-.4375022-6.5751389-1.7752199-9.6588685ZM109.3907997,246.553587c1.5901346-.2496499,3.1790394-.4691696,4.7977669-.3400404.6610188.0525741,1.0570152.2914632.962013,1.0428725-.7357293,3.9550447-2.3052647,7.4664382-5.562704,10.0253497-1.5040484,1.1815327-3.0920308,2.2388554-4.9803925,2.7418446-.6093671.1623339-1.2448675.2591809-1.711885-.2035323-.4805453-.4759336-.0903905-1.0441023.0870085-1.5458617.4215148-1.191986,1.1003658-2.2529981,1.7709155-3.3137027,1.5560076-2.4608347,3.215626-4.8687879,3.9578118-7.7416065.1023811-.3966113.2717863-.6013734.6794659-.6653231ZM23.8881686,251.537669c-.1365081-5.2574055.6013734-10.5169632.1297442-15.9250195.5005296.5337343,1.0287298,1.0444097,1.4978994,1.6045848,4.9296632,5.8867569,11.1921248,9.534351,18.6659418,11.1727554.9300381.2038398,1.8360951.5174394,2.7547575.7753905.768934.2158303,1.070543.4553344.2680969,1.1255767-2.2148742,1.8499304-4.5425828,3.4938688-7.2958031,4.4515775-3.140608,1.092372-6.3251815,2.0780587-9.6576387,2.2619142-4.2560389.2351997-6.2517008-1.1763061-6.3629979-5.4667794ZM56.3414258,259.6755793c1.18307.1832406,2.3132584.6766988,3.2967929,1.413043,1.4059717,1.0527109,1.2780722,2.3267863-.3474192,3.1387633-2.315718,1.1566292-4.8444993,1.1987499-7.2426141,1.3466337-5.2939921-.2066068-10.3764583-1.2205789-15.495511-1.936324-1.9387836-.270864-3.8680362-.6238173-5.8126613-.8390327-1.4493222-.1607967-1.3964407-1.1504802-1.4296454-2.1795174-.0390462-1.2196566.9251189-.8725448,1.5012814-.8962185,5.6850693-.2315103,11.0399367-1.4840641,15.6941241-4.9499549.5727805-.426434.9420287-.217675,1.2510166.2265911,2.0845152,2.9976435,5.1442637,4.1432045,8.5846361,4.6760164ZM3.2628441,204.0347042c6.4481618.2339699,11.6157917,2.8706664,15.2944383,8.2575086,1.4480924,2.1204869,2.8519119,4.2898584,3.893862,6.6218714,2.9582898,6.620949,8.3405203,9.4857738,15.2117341,10.1778452,5.5168938.5558707,10.8053519,1.7355587,15.3620775,5.1759311,3.0268513,2.2852804,5.7238081,4.9087565,8.2618129,7.7065571,3.0741987,3.3887207,6.0121968,6.9087228,9.6004529,9.7935319.2247464.1804735.3932293.4304309.6487208.7166674-1.0757697.6333483-2.1893558.6176683-3.2586691.7065215-4.1398225.3431149-8.1228453-.3797015-11.9253945-2.0024259-5.0852332-2.169679-10.2208883-4.1253724-15.6172615-5.4504845-6.6710635-1.6380969-11.3283254-6.2938215-15.642165-11.2831301-4.60684-5.3281192-8.3967838-11.3071113-13.0672661-16.5866533-2.8322351-3.2014833-5.7490191-6.328256-8.6107694-9.5039134-.5690911-.6315036-1.1507877-1.2814542-1.5676907-2.0138015-.8009089-1.4065866-.2102962-2.375056,1.4161175-2.3160255ZM136.5519094,27.8947093c5.5076703-1.2187342,10.2451769.3335839,12.8123895,4.3590348,1.4806822,2.321867,1.8317908,4.7768602.8614766,7.3443803-.6914564,1.8299461-1.5249551,3.6070106-2.3243267,5.394221-1.267004,2.8322351-1.036416,5.5765393.4427289,8.2513596.7295803,1.319578,1.4314901,2.6600627,2.2548428,3.9199953.7864587,1.2036692.7016023,2.2702153.0135278,3.4855676-.9374169,1.655929-1.9086534,3.3103208-2.3507674,5.2014495-.5798519,2.478052-.0910054,3.7392144,2.0473136,5.1098292.9727737.6235098,1.9655318,1.2165821,2.929082,1.8533123.8119771.5365013,1.4038195,1.2922149,1.9117279,2.1100336.4270489.6871521.3052985,1.3967481-.1666382,1.9630722-.4642504.557408-1.0342639.1235951-1.5117347-.0971544-.7289654-.3369659-1.4062791-.7876885-2.1404712-1.1102042-1.9449326-.8547127-3.7004756-.2868514-4.7802422,1.5510884-.4058348.6905341-.731425,1.4317975-1.0536333,2.1675268-.4740888,1.0822262-1.2405632,1.360469-2.3187925.9454106-1.0450246-.4021454-1.7124999-.9198922-1.2605475-2.241315.5063712-1.4791449,1.1338779-2.898337,1.7801391-4.3138396,2.1828994-4.7808571,1.7681485-7.3071788-1.9166471-10.9987383-1.8960479-1.8991225-3.3659693-4.0042368-3.7053948-6.7343983-.0756329-.6084448-.2705565-1.2460973.5718581-1.662078,4.8208257-2.3805901,6.7663731-6.6679889,7.4599817-11.6702105.3400404-2.4540708.167868-4.9235142-.6757765-7.2988776-1.7721453-4.9880788-5.6189674-6.6163372-10.4075108-4.4251367-1.4625426.66932-2.7273944,1.6500875-4.2732561,2.6898854,1.1713868-2.950911,2.6576031-5.0984536,5.8006708-5.7942143ZM139.2922167,62.5945081c-4.3282898,1.0511737-7.8999436,3.3130878-11.5650624,5.3739293-.812592.4568716-1.5145017.510368-2.3802827.0538039-1.6420937-.8663958-3.467428-.9494075-5.2890729-.9420287-.800294.003382-1.6005879.0006149-2.5250919.0006149.4335054-1.799201.7495646-3.5286107,2.7396924-4.2050021,5.3905316-1.8327131,7.1820464-6.1545464,7.8190841-11.2858972.2499574-2.0125717.2840844-2.032556,1.9271005-.9383393,1.1704645.7793873,2.3135659,1.6039699,3.4320712,2.456223.6985278.532197,1.4142728.9226593,2.315718.9595534.7701638.03136,1.2587028.4301234,1.0988285,1.2577805-.5411131,2.8027198.3624843,5.1448786,2.4270152,7.2693624ZM127.5555969,42.4386607c1.3174259-5.1165931,4.2163777-8.9569588,9.3114493-10.8711463,2.4952692-.9377244,5.0105227.0451952,6.2480114,2.4325493.9844569,1.898815,1.0391831,3.9615012,1.0305745,7.059681.0430431,2.4251705-.6554847,5.6644701-2.7329285,8.5120777-.5961467.8168963-1.2313397,1.5922867-2.0506956,2.1967346-1.5855228,1.1698496-2.6502243,1.2719232-4.2886286.1952311-1.9307899-1.2688487-3.9009334-2.484201-5.6816874-3.9756439-1.7733751-1.4849865-2.3913509-3.3939473-1.8360951-5.5494836ZM122.4248611,55.040754c2.5745915-2.0058078,3.1950268-4.4807853,2.0380901-7.4811958-.2702491-.70068-.4722441-1.4284156-.6902266-2.1484649-1.2018245-3.9682651-.4617908-5.7299571,3.2669702-7.7203924.0215215.7043694-.4089093,1.2322621-.629044,1.8204151-.878079,2.3473854-.9666247,4.7116807-.8516382,7.2303161.249035,5.4652421-.4150583,10.7497033-5.6727713,14.0818531-.2542617.1611041-.4931508.3461894-.7431081.5140574-2.0583819,1.3832203-3.3721184,3.0655901-2.185359,5.7191963-1.0456395.249035-1.986131.1924641-3.2931035.1033034,3.4391426-3.8557382,4.7079913-8.9621854,8.7601904-12.1190884ZM122.5724373,68.9067767c.4464183.0479623,1.1375673-.0098384,1.198135.6499506.0482697.526048-.5358864.6917639-.9269636.8611692-3.2380699,1.4004376-6.6258682,2.3978073-10.0806908,2.966591-1.6617706.273631-3.1273877-1.0653164-4.6326659-1.8204151,4.3851681-3.9387498,9.4353519-3.1987162,14.4421852-2.6572957ZM72.2440014,44.4699869c-1.1397194-.1878523-2.2400852-.9718514-3.545213-.9297307-.4445736.0144502-.5469546-.5641719-.6293514-.9303456-.1967684-.8750045-.3369659-1.7647665-.4556418-2.6545286-.1239026-.9269636-.111912-1.8056575,1.0708505-2.0961983.236737-.0584156.1826257-.2840844.1017662-.4697845.0956171-.0079937.2112186-.0230588.2189048-.0009224.8368806,2.4556081,3.8529711,3.8588127,3.2386848,7.08151ZM67.9728974,15.6707803c1.0634717-.551259,1.9461624.1208281,2.6855811.8368806,1.1686198,1.1314183,2.4439249.9985996,3.7678073.4073721,1.3869097-.6192055,2.5976503-1.5231103,3.8074684-2.4273226.8451817-.6315036,1.7134223-1.2322621,2.5745915-1.8416292.7222015-.5112904,1.4899057-.6201279,2.2554577-.133741.7692414.4888465.4820826,1.2144299.3720152,1.9071162-.4777783,2.9973361-.7464901,6.0020509.1097599,8.9760207.2195197.7624775-.0925426,1.0308819-.7283505,1.1283438-1.5729173.2416562-2.6342369.9411063-2.611793,2.720323.0027671.2324327-.1048407.5804668-.2757832.6828478-1.5009739.8971409-1.6414788,2.4393132-2.0802109,3.9172283-.4445736,1.4966696-1.8111916,1.8680699-3.2746565,1.8929734-1.4133505.0242886-2.3885838-.4922284-2.9047934-1.8880542-1.4115058-3.8151547-2.8642099-7.6155517-4.3282898-11.4110296-.2810099-.7283505-.3255902-1.4637724-.3262051-2.3086467.0553411-.8639362-.0224439-1.9510816.9574012-2.4586826ZM63.8247737,20.510053c.852868-.9177401,1.8920511-.8617841,2.381205.2290507,1.5394052,3.4342234,2.9435322,6.9256326,3.5774954,10.6657693.0700987.4119838.2782428.9872239-.1823182,1.229495-.4375022.2299731-.6127491-.3883101-.9355722-.5829264-.3185188-.1918492-.6471835-.6893043-1.0213509-.2751683-.416903.4614834.0823968.8507159.3747823,1.1329555.6468761.6253546,1.3770713,1.1637006,2.0399348,1.7739901.2597958.2391966.4571791.6342706.1804735.9423361-.376627.4193626-.6327334-.034127-.8224304-.2717863-3.2445263-4.062345-7.4750468-7.1479194-10.9061957-11.0239493-.1294367-.146039-.2468828-.3031463-.5700134-.7019098,2.7034133-.024596,4.3473517-1.4634649,5.8839899-3.1178567ZM54.1397719,25.4504769c.5128276-.4986849.9552491-1.6485502,2.0374752-.7455677.6929937.5783146,1.3878321,1.1547845,2.0626862,1.7540058,3.4166987,3.0345376,6.6258682,6.2824459,9.7824637,9.5820059.3323541.3474192.9220444.6293514.7215866,1.2863734-.1026885-.0977693-.1943088-.2351997-.3077581-.2564138-2.9690506-.5577154-4.7897731-2.7350807-6.7719073-4.7181371-2.1315551-2.1324775-4.4961578-3.9965506-6.9234804-5.7846833-.3185188-.2345848-1.3706148-.3683258-.601066-1.117583ZM51.8753981,27.1223934c.5666315-.5122127.9746185-.4513375,1.5547778-.012298,2.5764362,1.9492369,4.9948427,4.0577332,7.0953453,6.5259468,1.4714586,1.7291023,3.0240843,3.3838015,5.1710119,4.3092278.4688622.2019951.7231238.4316607.5491068,1.0216584-.6733168,2.2803612-.1481912,4.4691021.5368088,6.6563058.4113689,1.3137365.9653949,2.6062589-.2075292,3.9535075-.5125202.5887679-.0891607,1.5713801.2281284,2.3120286,1.3358729,3.1200088,3.4449841,5.668467,6.0463238,7.794488,1.5547778,1.2710008,3.1977939,2.4473069,4.8850828,3.536297.821508.5303523,1.1910637,1.0665462,1.1117414,2.0497733-.062105.7738532-.1162163,2.0187207.6763914,2.0891269.9472553.0836266.6308887-1.2568581,1.1129712-2.1349371,6.337787,4.4254442,12.451135,9.1521899,19.312203,12.8972459-.5481844.4027603-.886995.0906979-1.2067437-.0433505-1.3893693-.5826189-2.8236265-1.0945242-4.1318288-1.8274865-7.4661307-4.1822507-15.5582309-7.0449234-23.1184416-11.0399367-3.0305407-1.6015103-4.9425761-3.7545869-5.6764607-7.1008794-.8067504-3.679569-1.7251054-7.3373089-2.7037207-10.9750646-1.0431799-3.8784895-2.5770511-7.5180899-5.6715415-10.2857603-4.6830878-4.1877848-9.5155965-4.1579621-14.1135205.1140642-.4777783.4436512-.8974483.949715-1.3441741,1.4268783,2.9149393-4.0897081,6.1634625-7.894102,9.8940683-11.2668353ZM31.6918801,174.7906165c.5119053-5.8341829.5115978-11.4857401,1.1763061-17.1505177.516517,3.1129375,1.036416,6.2252601,1.5470915,9.3391199.1300516.7916853.2342774,1.587675.3461894,2.3824348.4799304,3.4127018.3910772,3.5802624-3.0695869,5.428963ZM63.3039524,137.9217536c-2.4682135,2.9376906-4.3116874,6.2962812-6.1723786,9.6318129-4.6769388,8.3851006-10.5710745,15.763608-18.0092273,21.8714219-.7268133.5967616-1.4923653,1.1461759-2.4079532,1.8462409-3.1556731-15.3611551-3.8234559-30.9633515-10.2980584-45.3335932,1.1458684-.3360435,1.9925874.0664093,2.8067167.3412702,4.1364406,1.3979779,8.2608906,2.8331574,12.3755022,4.2938553,6.9188687,2.4559155,13.9902328,4.3657987,21.1553694,5.9368714,1.0271925.2253613,1.4142728.3836984.5500292,1.4121207ZM67.4686784,136.465975c-8.3488215-2.0617638-16.385888-5.1482606-24.6366327-7.5325401-5.0154419-1.4496297-9.9281953-3.277731-15.0936731-4.1782539-.8353433-.1457316-1.7023541-.1949237-2.549688-.1632563-1.1148159.0415058-2.0783662.4559493-2.5032629,1.603355-.3535682.9546342-1.0564003,1.1292661-1.9397059.9549416-1.6780655-.3314318-3.3238486-.7744681-5.052336-1.5052782,3.0929532-4.5831663,6.2209558-8.9603407,8.9425086-13.6043823,4.9296632-8.4115414,8.2544341-17.4136954,9.9420306-27.0110738.7188195-4.0875559.865166-8.2409063.3157518-12.3336889-1.0699281-7.9740392-.2099888-15.7442386,1.8889766-23.4357306.927886-3.4016336,2.1423159-6.6870509,4.0924751-9.668707-.3132922,1.2630071-.8734672,2.4503814-1.0219658,3.7588912-.3753972,3.309091.2146005,6.4518512,1.8696072,9.3089897,5.2718557,9.1023829,11.0762159,17.8573466,17.3620437,26.2944064,1.404127,1.8852872,3.3850313,2.8113284,5.4723135,3.5618154,2.5038778.9005229,5.0218984,1.78967,7.5903408,2.4697508,1.4241113.3769345,1.7312544,1.0849932,1.7272576,2.428245-.0175247,5.8172731-.8236602,11.523864-2.1195645,17.1800329-.4245893,1.8536198-.8233527,3.7226121-.6727019,5.6730788,1.9538487-5.2491044,3.2048652-10.701741,4.6695599-16.1039558.2250539,3.1827288-.0322823,6.3359423-.3262051,9.4734758-.9426436,10.063781-2.1844366,20.0922052-3.8554307,30.0634435-.5654017,3.3736556-.8384178,3.5725762-4.1016987,2.7664406ZM105.7336746,106.2217505c-.1598743.3551055-.5272778.4356575-.8574798.5589452-6.2194185,2.3234043-11.031943,6.496739-15.215731,11.5186373-4.7052242,5.6475604-9.5601769,11.1567679-15.2040478,15.9084172-.4842347.4076795-.8888397.9395691-1.7530834,1.2033617.3495713-2.5890416.6782361-5.0517211,1.014587-7.5131707,1.749394-12.7979393,3.6518984-25.5731273,5.6171227-38.3393992.2029174-1.3174259.5761625-1.2387185,1.5882899-.843337,7.4842703,2.926315,14.9992857,5.7726928,22.6652594,8.1984781,1.6098114.5091382,3.227924,1.2713083,4.834046-.7581732-.1872374,3.8652691-1.3094322,7.0006505-2.6889631,10.0662406ZM110.8843947,87.326758c-.9552491,2.8263935-2.4174842,5.4025222-3.8649617,7.993716-.5352715.9583236-1.0533258.9872239-2.0319411.6806957-12.4345327-3.8947844-24.4536996-8.8757918-36.4707144-13.8644855-.4172105-.1730947-.8313465-.3821611-1.2679263-.4765485-4.3329015-.9343424-7.1995711-3.5698091-9.5549502-7.286887-3.8471296-6.0709199-7.928229-11.9964156-11.6496113-18.1506545-2.1008101-3.4738845-3.3035569-7.1921922-2.907253-11.3341669.6050628-6.3307156,5.6816874-8.5329844,10.0373402-8.912071,1.2639295.137123,2.3587611.8325763,3.3395286,1.7232607,1.7598473,1.5978208,2.7778163,3.6688082,3.6423674,5.8320307,1.5723024,3.9350604,2.3519972,8.099479,3.5203095,12.1513707.3062208,1.0613195.6296589,2.1180273.9672396,3.1698158,1.0413352,3.2476009,2.95706,5.5796138,6.0973606,7.249993,12.2608231,6.5207201,24.6234123,12.7714986,37.9529338,16.8710451,3.2356103.9952176,3.290029,1.0982136,2.1902782,4.3528858ZM112.6273323,89.6593858c-.8980632-.0230588-.85625-.6410345-.7022172-1.2952894.2069143-.8790013.4940731-1.7229532,1.0813038-2.7012611.5614048,1.0035188.818741,1.8923585.859017,2.8525268.0372015.8814609-.5143649,1.1624708-1.2381036,1.1440237ZM118.0830435,86.1590606c-1.2965192-.2733236-1.9098832-1.251324-2.7117144-1.939091,1.3094322-.0110682,2.0986579.6926862,2.7117144,1.939091ZM140.302192,76.1493909c-3.1166269,2.3787454-6.8041896,3.4120869-10.5289538,4.2972373-4.6584917,1.1068222-9.41629,1.5732248-14.169784,2.063916-3.0843446.3185188-5.8646205-.6105969-8.5566581-1.9397059-5.8882942-2.907253-11.2136463-6.7085724-16.5273153-10.518193-4.2920106-3.0766583-8.5182268-6.2400177-13.0712629-8.9403564-2.4774371-1.4696139-4.5511915-3.4542077-6.3897461-5.712125,1.653162.7904555,3.0745062,2.0125717,4.9456506,2.4270152-2.4193289-2.151232-5.126739-3.9719545-7.4753543-6.6879732,3.8375986,1.3930587,6.0595442,4.6022283,9.3206729,6.3076568-1.9055789-2.8021049-4.5810142-4.8952287-7.0867367-7.6994858,2.561986,1.0437948,4.0952422,2.9087903,6.3018153,3.8886354-1.1996723-2.0451615-2.3990372-4.0900155-3.5987095-6.135177.9826122.4033752,1.5729173,1.1710794,2.1456978,1.9553859,1.1326481,1.5513958,2.0104196,3.255902,2.8100986,4.9865415,2.1844366,4.7279756,5.7327242,8.0570508,10.3192725,10.3896786,6.3654575,3.2377624,12.9080066,6.0687677,19.5012851,8.8087676,3.6008616,1.4963621,6.9815886,1.3205004,10.5274165.0086086,4.8361982-1.7890551,9.3732469-4.1336735,13.7196763-6.8816671,1.7466269-1.1046701,3.5716538-2.0583819,5.5799212-2.6081036,2.2554577-.6176683,3.7650402.1165238,4.7196744,2.2818985,1.3739968,3.1163194.2401189,7.6260051-2.4866606,9.7074457ZM154.8129387,108.5955767c-6.0383301,1.7487791-12.0766602,3.5098562-18.471633,3.3524415-.9638577-.0239811-1.5796813-.2619479-2.0802109-1.1062073-1.2648518-2.1343222-2.9404577-3.9482808-4.6714047-5.7102803-1.239026-1.260855-1.2098182-1.3890619.5361939-1.920644,2.5675201-.7818469,5.2408032-.9232742,7.8808816-1.2756126,7.4166312-.9896835,14.4883028.8734672,21.5848779,2.5521476,1.1560143.273631,2.3101839.5555633,3.7505901.9023676-2.9094052,1.4299528-5.6985972,2.3861242-8.529295,3.2057876ZM224.7727113,92.4891613c1.1532473-1.5787589,2.7808908-2.4715955,4.7387363-2.5410793,1.1255767-.0399686,1.746012,1.1314183,1.7066584,2.9994882-.1798586,2.2041135-.834421,4.3295196-2.4445398,6.063541-.8648586.9315754-1.7287948,1.1068222-2.6173271-.0372015-.522666-.6730094-1.1009807-1.2980565-1.4856014-2.0706799-.7434156-1.4929802-.9229667-3.0105564.1020736-4.4140685ZM263.8204768,148.6004359c-.4430363.1875449-.5737028-.1743245-.7243537-.3895399-4.7408885-6.7746743-11.545693-10.0705449-19.4278044-11.5770529-3.3545937-.6410345-6.7466963-1.1074371-10.0321136-2.0805183-6.4137273-1.9003523-9.5152891-6.5019656-8.1723448-13.0558904,1.0533258-5.1408817.535579-9.8319632-1.8978926-14.4381884-1.5670758-2.9659761-2.0221027-6.1905181-1.4121207-10.0539426,2.0608415,4.1880923,5.512897,6.2750671,9.0679485,8.161584,4.2720263,2.2665259,7.0750536,5.6601658,8.6602689,10.1898357.9789228,2.7965708,2.1460053,5.5215056,3.592253,8.1243825,2.1712162,3.906775,5.1092143,7.0701344,8.8493511,9.5149816,2.1463127,1.4032046,4.2809424,2.8291606,6.2307942,4.507226,2.8011826,2.4113352,4.6738643,5.3656281,5.2869208,9.0522685.1137567.6828478.2259762,1.3752266-.0209066,2.044854ZM248.0909958,181.1081118c-.5534111,1.0849932-1.3598541,1.9987365-2.216104,2.84853-2.2637589,2.2471565-3.6011691,4.9278185-3.9322934,8.1047057-.2911557,2.7904218-1.7782944,4.8580272-3.947051,6.5068848-2.2966561,1.7457046-4.8826232,2.9890349-7.4612115,4.2354397-3.1086332,1.5028186-6.0463238,3.2789608-8.2396765,5.9783772-3.5323001,4.3470443-8.0386038,7.1703633-13.1884016,9.2066087-4.6077624,1.8219523-9.2653317,3.5255362-13.8245169,5.5144342,9.2176769-6.8767479,16.0295527-15.9932736,23.3416507-24.6074249,8.0321473-9.4624076,17.7300621-16.4184778,29.4414709-20.5496917.1875449-.0661019.3809313-.1162163.6862298-.208759.2973047,1.1440237-.1989205,2.0663756-.6600965,2.9708953ZM120.4786987,150.8774151c-.6026032-3.4615865-1.3743043-6.8930428-1.2187342-10.4628519.4556418,2.3990372.8611692,4.8088351,1.3749192,7.1952668,4.0509693,18.814133,12.5273828,35.5286857,24.0543213,50.8157452,6.7648359,8.9711015,14.3235093,17.2547434,21.8326831,25.5854253.7188195.7972194,1.3819905,1.6451682,2.1257136,2.5349303-.5650942.15557-.709596-.1730947-.8912993-.3606396-8.5068511-8.7746406-17.2117004-17.3651182-24.9708315-26.835827-11.6486889-14.2189761-19.1504839-30.3392267-22.306772-48.4720491ZM159.9879474,167.4296339c-.4313532-.304991-.8584021-.7464901-.6219726-1.2460973.2548766-.538346.7923002-.1457316,1.1978276-.0301302,9.3326634,2.6548361,18.8882286,4.3399729,28.3324966,6.5084221,5.1491829,1.1821476,10.3248066.3222082,15.461384-.2539542,6.9926568-.7843065,13.9530313-1.8732966,21.002259-2.0746768.7790799-.0224439,1.5590821-.0030745,2.3387768-.0030745.0043043.1466539.0086086.2930004.0129129.4396544-10.0779237.4027603-19.9123466,2.6572957-29.8860445,3.8634244-5.537493.6696274-10.9301768-.0353568-16.317634-1.1255767-6.3989697-1.294982-12.8139268-2.5318558-18.966321-4.8036084-.8983707-.3320467-1.7684559-.719127-2.5536848-1.2743828ZM118.6376844,232.9359844c.1478837-6.4472394.0931575-12.8846404-1.453934-19.199676-1.1809178-4.8195958-3.2500605-9.3022258-5.5986757-13.630823-2.6394635-4.8641762-3.8997036-10.0908367-4.6999976-15.4881322-.7547913-5.0883077-1.0917571-10.200904-.983842-15.3427081.0135278-.6471835.075018-1.2937522.1143716-1.9406283.585386,4.9385792.9039048,9.8464134,1.9701435,14.6749253,1.8745264,8.491786,4.9315079,16.5700509,8.7082312,24.357775,2.6225537,5.4080563,3.614082,11.0368622,3.458512,16.9552865-.1239026,4.718752-.7434156,9.3895418-1.3653882,14.0689402-.3246678-1.4812971-.1832406-2.9681282-.149421-4.4549594ZM176.2078121,188.6065248c-14.8729235-7.2463036-28.1590944-16.6982578-39.5781177-28.7109683-5.9144275-6.2221856-10.4536284-13.3593441-13.954876-21.1741239-.5936871-1.3248047-1.0124349-2.7135591-1.2713083-4.15581.3341988-.1509583.3615619.1165238.4165956.2413487,5.9356416,13.4853989,15.1779145,24.4281812,26.1535941,34.041547,11.1327868,9.7507963,23.5956049,17.3930962,37.0779293,23.4240475.8221229.3677109,1.6248765.7778501,2.4368536,1.1683123-3.9378275-1.16739-7.5958749-3.0388419-11.2806705-4.8343535Z"/>
  </g>
</svg>