<?xml version="1.0" encoding="UTF-8"?>
<svg id="Layer_2" xmlns="http://www.w3.org/2000/svg" viewBox="0 0 212.3808701 227.2686466">
  <g id="Layer_1-2" data-name="Layer_1">
    <path d="M204.1774989,56.2727986c-.8551233,2.5763785-1.7400548,5.141579-1.9570112,7.879955-.3119701,3.939173-.1456538,7.8684382.1637758,11.797788.5294346,6.7243784,1.4875317,13.3810956,3.1872776,19.9161241.8586799,3.3016836,1.8621668,6.5570459,3.6442241,9.5067046.5763487.953863,1.2544856,1.8350684,2.2014047,2.4551133.2567572.1681793.6224159.4671083.8891656.1500573.2196662-.261076-.0987397-.576518-.2786052-.7944906-1.3494993-1.6352179-2.1422963-3.5607272-2.7948592-5.5318803-3.4916263-10.5467743-5.3268641-21.3751178-5.4437259-32.4919743-.0453898-4.3340472.416807-8.5728267,2.0921643-12.619377.2535392-.612.4151133-1.261853.6227547-1.8930759,1.606934-4.882112,1.2573649-9.6136586-1.1315267-14.1705899-.5909141-1.1272926-1.2341619-2.2322291-1.9260174-3.3005827-2.1673623-3.3469887-4.5057832-6.587955-6.1509936-10.2501318-.8060075-1.7940821-1.9543013-3.3351332-3.4870535-4.5950385-1.3323935-1.0952827-1.9534545-2.5187945-1.7556363-4.2653698.0623263-.5503512.0926426-1.1043437.1439601-1.6561345.3417783-3.6662415.1204184-7.2601642-1.4375691-10.6660919-2.0415242-4.4631879-6.1101767-6.5828741-10.5387295-5.4371207-3.3176886.8584259-6.247701,2.5707895-9.0285876,4.4990086-2.045843,1.4186002-3.015457,3.4884084-2.8840298,6.0217682.0401395.7738281.2355865,1.4699178.8242989,2.0201843,1.3142715,1.2285728,1.8926525,2.7570062,1.8612353,4.5450759-.0151582.8579178-.0472528,1.718376.101873,2.5730759.1929066,1.1052752.5086027,1.4722042,1.6432627,1.4480697,1.0155965-.0216787,1.6021071.3676911,2.0521095,1.265071.5948095,1.1861469,1.3232478,2.3059028,2.0068044,3.4467446.370401.6181818.7655292,1.2211208,1.2631233,1.7499626,1.1992727,1.2745554,2.0200149,1.3651656,3.3673125.264802.4816737-.3934346.8334446-.5556015,1.2937783-.0120249.12533.1479402.4679552.506401.5492503-.069863.3072279-2.183198,1.3240946-4.16265,1.7905255-6.2998654.3094296-1.4169912.6432478-2.8286475.9928169-4.35996,1.245848,1.2035915,2.5997509,1.952523,4.2713822,1.9784358.3250112.0050809.3556662.2979128.4583014.5177484.4093549.8779875.7795865,1.7782465,1.2495741,2.6228692.2862266.5142765.1537833.6798306-.3316164.8916214-2.1070684.9192279-4.2331058,1.8154221-6.0459874,3.2750086-.7767073.6254645-1.4401096,1.4336737-2.2938779,1.909589-.9235467.5148692-1.04532,1.1443985-.7362291,1.9825853.2000199.5419676.129056,1.0089066-.087731,1.5149688-.5018281,1.172005-1.0554819,2.366112-1.1767472,3.6211904-.1266849,1.3108842-.6986301,1.7927272-1.9405828,1.9822465-1.3359502.2037459-1.3891307.3536339-.7413101,1.548249.4982715.9192279.4245977,1.6777285.0531806,2.629305-2.4744209,6.3389886-3.8506799,12.9371055-4.4675067,19.7032324-.3128169,3.4294694-.0613101,6.8721493-.2967273,10.3078005-.4025803,5.8777234-2.7526027,10.6646523-7.5479151,14.1716908-.8490261.621061-1.7371756,1.1884333-2.5992428,1.7920498-.7409713.518934-1.2345006,1.2072328-.8701967,2.1221419.3190834.8012652.0011009,1.1781868-.6550187,1.4851606-.173853.0812951-.3348344.1985803-.484807.320269-.2047621.1662316-.5467098.2847024-.4404334.6239402.0981469.3132403.4447522.3018082.708538.3294994.2432926.0255741.5001345-.0041494.7421569-.0530959.7054894-.1426052,1.4058978-.309599,2.1095242-.4617733.383188-.0829041.76934-.132528,1.140249.0503861.5362092.2645479.6942266.7536737.5441694,1.2599053-.1688568.5700822-.5981967.1321893-.8994969.0960299-.4099477-.0491158-.8137982-.1639452-1.2148543-.2708144-2.2932004-.6116613-4.3320995-.1481943-6.1122091,1.4295242-.1659776.1470934-.3519402.2744558-.5023362.4355218-.3050261.3264508-.5445928.3448269-.8705355-.0157509-1.1154371-1.2339925-2.3075965-2.4007471-3.3873822-3.6641244-2.1505952-2.5161693-3.721031-5.4405926-5.6199501-8.134341-.787716-1.1174695-1.5145454-2.1827745-.8683337-3.615432.0215093-.0477609.0142266-.1095791.016005-.1648767.1492951-4.5862315,1.3956513-8.9185004,3.23199-13.0711578,1.551467-3.5082241,1.0721644-6.6352078-1.3172353-9.5288914-1.1291556-1.367452-2.3108144-2.6938331-3.5105105-4.0003137-3.5442141-3.8600796-4.2964482-8.3921991-3.3968667-13.394052.3583761-1.9929165,1.4026799-3.0653349,3.3552029-3.5624208,2.8821668-.7336887,2.9321294-.8700274,2.9641394-3.7892004.0142266-1.2936089.2987596-2.4754371,1.0890162-3.5016188.3160349-.4103711.2528618-.6330012-.2269489-.7376687-1.3993773-.3052802-2.0190834-1.2914919-2.3540024-2.5793424-.1664857-.6403686-.4339128-1.2551631-.6669589-1.877325-.6701768-1.789594-1.3215541-3.5870634-2.363995-5.2090709-.6643337-1.0337185-1.5449464-1.6676513-2.8024806-1.8589489-1.9041693-.2897833-3.8098629-.3752279-5.7209762-.2277111-1.1839452.0913724-2.389061.2143313-3.4248119.8907746-1.6021917,1.0465056-3.261036,1.9964732-4.928772,2.9306052-2.5848468,1.4478157-4.7312079,3.3623162-6.3942016,5.8252203-.8071083,1.1952079-1.59999,2.3973598-2.3059028,3.65464-3.026381,5.39063-5.0926325,11.1779972-7.0064556,17.0259124-3.0500921,9.3194718-5.4847122,18.8170307-8.1533099,28.2469283-2.210127,7.8098379-4.6071481,15.5578577-7.7600446,23.049459-4.1741668,9.9186-9.1848267,19.4235263-14.2768664,28.8903455-2.4667148,4.5858081-4.823427,9.2334344-6.3599052,14.2379972-1.3264657,4.3201593-2.1465305,8.766072-3.2142066,13.1505053-1.31732,5.4091755-3.6077259,10.3066996-7.6171854,14.2493446-2.467985,2.4268293-5.2326973,4.39197-8.9246822,4.4116163-.1353225.0006775-.2723387.0467447-.4052902.0834969-.1840149.0508095-.4047821.0782466-.434929.3185753-.0280299.2233923.1449763.3473674.3029938.4613499.5800747.4181619,1.229589.6185205,1.9448169.6252951,2.0269589.0189689,3.8754918-.595995,5.6007271-1.6077808,2.9621917-1.7368368,5.154366-4.2513972,7.0611605-7.0513373,2.6797758-3.9348542,3.9136836-8.4043933,4.808777-12.9966373.8319203-4.2679102,1.6604533-8.5320098,3.0912477-12.656976,2.0694694-5.9664706,5.0079501-11.5229935,7.9579475-17.0751129,5.3338081-10.038595,10.1578279-20.3042237,13.9905551-31.0212097,3.0350186-8.4863659,5.1637658-17.2352474,7.5597707-25.905967,2.0792926-7.5247968,3.9519601-15.1082786,6.5070833-22.494789,1.8410809-5.3221219,3.9820223-10.5140022,6.8016088-15.4033969,1.6201444-2.8090859,3.7007073-5.1839202,6.5771157-6.777559.1664857-.0922192.3233176-.3157808.5988742-.1404035-.0862914.1531905-.1597958.300538-.2484583.4381469-1.5713673,2.4408019-1.9093349,4.9528218-.8629141,7.7502215,1.1515965,3.0784607.6208916,4.5840298-1.9008667,6.7260721-.3799701.3227248-.787716.6124234-1.1797111.9211756-.7619726.6000598-1.5573947,1.1607422-2.2268941,1.8705504-1.2178182,1.2912378-1.6961046,2.7996014-1.4632279,4.5755615.2174645,1.6580822.9813001,3.0470435,1.9548094,4.3430236.4137584.5509439.4502565,1.0526027.1901121,1.6834022-.44399,1.0767372-1.1032428,1.9752179-1.9548094,2.7540423-.7374994.6744956-1.4390934,1.3816787-1.9735242,2.2393424-.7253898,1.1639601-.8405579,2.3747496-.3571905,3.6576886.3869987,1.0268593.9943412,1.9122988,1.6831482,2.7520946,1.1637061,1.4185155,2.5159999,2.657589,3.7895391,3.9710136.347198.3582067.4251058.6059028.112543,1.0459975-.6262266.8813748-1.1391482,1.8347297-1.4596712,2.8788642-.6945654,2.262122.481335,4.8997259,2.6192278,5.8663759.3097684.1400648.6472279.2670884.9402291.0214247.3251806-.2725928.1352379-.6208916.0154969-.9192279-.1124583-.2800448-.2868194-.5351083-.4335741-.8013499-.3908941-.7093848-.1499726-1.6073574.6469738-2.0568518.7734894-.4361992.7423263.4792179,1.0988393.7507098.0417484.0318406.0636812.0897634.0943362.1358306.8800199,1.3201992,1.7312478,1.6320846,3.2660323,1.1994421,1.0326177-.2910535,1.9143312-.864269,2.7606475-1.4951531.3456737-.2577733.49734-.2457484.5753325.221868.1137285.6820324.298929,1.3517011.4352677,2.0303462.6290212,3.1298629,1.5218281,6.1410011,3.8340821,8.5096536.3799701.3892852,0,.5276563-.2111133.6930411-1.6368269,1.2818381-3.251721,2.5947546-4.9315665,3.8181618-3.9051307,2.8442291-7.4567122,6.0321842-10.1484282,10.0917756-.0613101.0923039-.1041594.2510834-.2224608.2062017.8082939-7.5890708-.1614894-15.1760245.4107098-22.7457878-.3941968.5059776-.449325,1.0786002-.5203736,1.6390286-.4796413,3.7813249-.3609166,7.584752-.3996164,11.3819972-.0297235,2.9110435.0270137,5.8275914-.4374695,8.7143311-.2888518,1.7945056-.3914869,3.6288119-1.4276612,5.2431132-3.0233324,4.7101219-5.8525727,9.5434568-9.1081044,14.1059772-4.1212403,5.7758504-8.4978827,11.3694642-12.3773546,17.3180668-.0572453.0878157-.1121195.2000199-.3241644.1268543.025066-1.9216139.3960598-3.810371.8719751-5.6813448,1.0667447-4.193305,2.6413299-8.2202937,4.0436711-12.3040196,3.5441294-10.3209263,5.9139675-20.9347691,7.8284681-31.6585298.3545654-1.9862266.7049813-3.9817683.5035218-6.0343012-.2742017,1.4327422-.5612752,2.8631979-.8204881,4.29865-1.5217434,8.4267495-3.3583362,16.7796559-5.8406325,24.9813195-1.8692802,6.1765677-4.1645977,12.2091753-6.1962987,18.3304454-.9713076,2.926371-1.6922939,5.9215889-1.4861768,9.0476411.0352279.5334147-.0718107.9595367-.347198,1.4003088-2.0007073,3.2024358-4.2642689,6.2152676-6.5745752,9.1964282-5.385295,6.9493797-11.1157557,13.6179524-16.6321391,20.4606321-3.3251406,4.1243735-6.6209812,8.2711032-10.4778428,11.9270134-2.1611805,2.0484682-4.4394769,3.9529762-7.1364432,5.2584407-4.0844034,1.9768269-8.2455291,2.4459676-12.4909138.4457684-.8497036-.4003786-1.7206625-.7717957-2.6472577-.9707995-2.7528567-.5909141-5.0811157.1144907-6.2715814,2.8375392-.2318605.5302814-.5576339,1.020254-.8497883,1.5232677-1.1656538,2.0069738-2.8298331,3.3061718-5.1735889,3.647442-.8230286.119741-1.6441095.2376189-2.4784009.2559103-4.0794918.0894247-8.1472974.2921544-12.0924829,1.4733051-3.7300921,1.1166226-7.1239948,2.7091606-8.8742115,6.5171605-.5517908,1.200797-1.3652503,2.1417882-2.5170161,2.7874072-.5598356.3138331-.9297285.7870386-1.1373698,1.3810012-.5824458,1.6668891-.6722092,3.34665-.1506501,5.0545254.7119253,2.3313075,2.1022415,4.2012652,3.9222365,5.7634868,2.6168567,2.246117,5.8251356,3.146122,9.1038703,3.7761593,5.839955,1.1220423,11.7097183.7198007,17.5690656.1302416,6.450092-.6490062,12.8781666-1.6477509,19.3973594-1.0927422.4056289.0345504,1.1171307.2227148,1.1819975-.1976488.0723188-.4682939-.6348642-.5826152-1.0697932-.7130261-1.9283038-.5782117-3.9169862-.7423263-5.9157458-.7697634-4.2804432-.0587696-8.5208317.4892951-12.7691803.8989888-4.8857533.4713425-9.7682887.9921395-14.6879997.5873574-3.0607621-.2518456-6.0468342-.8168468-8.7640396-2.3340174-3.0291755-1.6912777-5.2560696-4.0376587-5.9871331-7.5656984-.1865554-.8998356.0591083-1.6922939.4501718-2.4783163.2298281-.4623661.4219726-.42934.7685778-.0816339,1.4433275,1.4480697,3.2131905,2.3279202,5.159701,2.8974943,1.4963387.4378082,3.0307845.64799,4.569041.8532603,3.794366.506401,7.5754369.4606725,11.336184-.2818232.3771756-.0745205,1.0510784-.0599552,1.0188991-.4809963-.0342117-.4478007-.6799153-.3057036-1.0661519-.3067198-3.1356213-.0084682-6.2657383-.1077161-9.3763784-.5350236-3.1202091-.4288319-6.1360895-1.206386-8.9406025-2.6952727-.4819278-.255741-.6789838-.4356065-.2144159-.9313375,1.018391-1.0864757,1.5859327-2.4158206,1.6899227-3.8914968.0790934-1.1215342.6824558-1.7950983,1.5526525-2.3761892,2.7244881-1.8189788,5.7632327-2.8002789,8.9435664-3.4071132,2.7357509-.5221519,5.5262066-.3871681,8.2848217-.6542565,3.4584308-.334665,6.3398355-1.5315666,7.9018877-4.905823.2194969-.4738829.5318057-.9094894.8353076-1.33866.2871582-.406137.5913375-.8077011.937604-1.1628593.7243736-.7433424,1.580513-1.0509091,2.6417534-.8112578,1.084528.2447322,2.1415342.5538231,3.1745753.9616538,1.4434969.5695741,2.8919053,1.165061,4.463442,1.2397509,4.6067247.2188194,8.8441492-.8989888,12.6099773-3.6191581,3.0787994-2.2239302,5.639427-4.9989737,8.1705851-7.7951879,4.5430435-5.0191281,8.6459076-10.407133,12.991387-15.5922387,7.0542165-8.417011,13.8924928-16.9722238,19.8232274-26.2620567,7.0811455-11.0917058,14.8961491-21.7076657,21.6438152-33.02378,2.5651158-4.3017832,6.0004283-7.8110235,10.0349537-10.7521293,1.9713225-1.437061,3.9525528-2.8613349,5.8953373-4.3359949.495985-.3764134.7926276-.3466052,1.2422914.0510635,3.7188293,3.2894893,7.3038603,6.7244631,10.9769611,10.0620521,1.9038306,1.7299775,3.1917658,3.7123934,3.7256039,6.2083236.0694396.3245031.1700423.6422316.2544707.9635168,1.8583561,7.0775889,3.1428194,14.2772898,4.5861468,21.4439646,2.7227098,13.5203982,5.4670983,27.0363929,8.2338429,40.5478147,1.7724881,8.6562389,3.4347197,17.3353421,5.4686225,25.9372148,1.8037359,7.6288715,3.8752378,15.1828838,6.1372751,22.6867641.3265355,1.0832578.2940174,1.0819028-.8183711,1.2495741-3.3490211.5050461-6.6301269,1.2743013-9.8073273,2.4722191-1.991985.7511332-3.9171556,1.7044881-6.0271879,2.1104557-.7594321.1461619-1.5396961.3546501-2.3344408.0223562.1646227-.4447522.5050461-.6598456.7633275-.9403138.4687173-.5092802,1.0009464-.9636862,1.3597459-1.5667945.5505205-.9254097.3512628-1.4731357-.6668742-1.7312478-.9775741-.2477808-1.9769115-.3297534-2.95999-.048269-7.3456088,2.1014794-14.8571105,3.5905354-22.1244727,5.9777334-5.6532303,1.8569165-11.4300122,2.3241942-17.3240793,1.6662117-4.6535541-.5194421-9.2798404-1.2792129-13.9628639-1.5415591-4.5034968-.252523-8.9702414-.1043288-13.3979474.8696886-3.4486076.7587547-6.7159949,2.0760747-10.0616287,3.1478156-4.4142415,1.4140274-8.8765826,2.0628642-13.5149785,1.5842391-4.3943411-.4535591-8.6951928-1.3920099-13.0062064-2.283716-3.7897932-.78399-7.5817034-1.3344259-11.4683733-.8906899-2.0644732.2355865-4.1391082.3780224-6.2250061.2347397-3.1046276-.2132304-6.0133847-1.2145155-8.9410259-2.1511033-1.6840797-.5387497-3.3623162-1.1029041-5.1908641-1.3826949.3593076.5060623.8432677.7382615,1.2969116.9735093,5.0917857,2.6414146,10.4257631,4.3315067,16.2471727,4.0132701,3.4064358-.186132,6.7981368-.3539726,10.1972052.245071,4.9119202.8654545,9.7270483,2.1927671,14.6519249,2.9857334,2.8816587.4638904,5.7737334.7770461,8.6933298.4759153,3.9721992-.4096936,7.7532701-1.5991432,11.461514-3.0001294,6.2399949-2.3573897,12.6363135-3.4457284,19.3158949-2.8504109,5.1088915.4554222,10.1725626,1.2949639,15.2851802,1.698391,4.3524233.343472,8.7112825.527741,12.9634418-.7160747,7.7320148-2.2616986,15.5650557-4.1641742,23.2567616-6.5676312,1.0402391-.3251806,2.0936886-.613609,3.2987197-.6588294-.7028642.8795118-1.4687322,1.5881345-1.7585155,2.6061867-.2528618.8883188-.0118555,1.3835417.8539377,1.6841643.7467297.2591283,1.5149688.2767422,2.2987895.1678406,2.528787-.3514321,4.8358754-1.3779526,7.1702315-2.3233474,2.0513474-.8309041,4.0479899-1.8492951,6.2517657-2.2059775,1.7796861-.2879203,3.534645-.6849116,5.306371-.9987447.6515467-.1153375.8480099-.4520349.7726426-1.0273673-.0628344-.4787945-.1741071-.9511532-.2786052-1.5037907,3.4887471.6273275,6.9254992.4884483,10.3373547.1043288,2.2420523-.252523,4.3609762.0790934,6.4734644.6891457,1.7016089.4913275,3.4187994.6457883,5.1786699.4660921,1.5173399-.1549689,3.0299377-.3397459,4.5262764-.6341021,1.4954919-.2941868,2.9862415-.6281743,4.3630086-1.3081743.6871133-.3394072,1.4926127-.6661121,1.5463013-1.5778032.0540274-.9171108-.7174296-1.3125778-1.3644035-1.7314171-.4550834-.2945255-.9486127-.529604-1.5393574-.8541071.7856837-.3319552,1.5117509-.5074172,2.145853-.8883188.4840448-.2909689.7528269-.6208916.6715317-1.2732852-.6068344-4.8668691-1.2351781-9.7283186-1.5039601-14.6348191-.3731108-6.8094843-.912538-13.6098228-1.2683736-20.4213395-.2244085-4.2952627-.6579825-8.5554668-1.9913922-12.6894941-2.9510136-9.1489213-4.1572303-18.573738-4.3448866-28.1562335-.1060224-5.4113772.1575093-10.8130159.323995-16.2177032.0238804-.7741669-.2176339-1.7272677.1475168-2.274655.4085081-.6121694,1.4724582-.4253599,2.24798-.587188,2.1670236-.4522889,2.294386-.6531557,1.5684881-2.7683536-1.3306998-3.8772701-2.5169314-7.7946798-3.4604632-11.7884729-.8400498-3.5554769-1.6448717-7.123148-2.7626799-10.6072376-.0924732-.2883437-.0880697-.6532403-.4787945-.821335-.1092403.6007372-.0726575,1.152528-.0033873,1.7010161.9635168,7.6445378,2.6005977,15.1178477,5.6954021,22.2148289.2298281.5272329.1200797.6701768-.433066.7706949-2.6700373.4852304-5.3417682.9700373-7.9940222,1.5416438-3.7348343.8049913-7.3424755,2.1246824-11.1149088,2.7877459-2.6952727.4735442-5.3697134.6452802-8.0798902-.0237111-1.5310585-.3780224-2.2852403-1.2646475-2.6105902-2.7316014-.7634969-3.4413249-.715736-6.9380322-.7921195-10.4280496-.0049116-.2304209.0160897-.4288319.2748792-.5423063,1.8482789-.8104109,2.8807272-2.3989688,3.7319551-4.0942266,1.2942864-2.5778181,3.1217334-4.6942863,5.2989189-6.5451057.9084732-.7721345,1.786122-1.5803437,2.6905304-2.3575591,3.3713773-2.8980871,6.0969662-6.313838,7.8680148-10.3916361,4.4275366-10.1936486,6.4092751-20.8278999,5.370899-31.9439943-.2266102-2.4273374-.7116712-4.8280846-1.7546201-7.0662414-.9672428-2.0757359-2.5699427-3.3868741-4.8443436-3.767183-1.2663412-.2117061-2.5294644-.0404782-3.7991929.1712279-2.8888567.4816737-4.3582664,2.1933598-5.0404681,4.9945702-.855462,3.5123735-1.1855541,7.0394818-1.0798705,10.6307793.0670685,2.274655.0653748,4.5512577-.1873176,6.8138031-.5780423,5.1766375-2.0084981,10.1522389-3.6928318,15.0578925-1.1325429,3.2982963-2.2417135,6.6098031-4.0420622,9.6334742-1.2438157,2.0886924-2.9114669,3.7612552-4.883975,5.1496238-.191467.1348144-.4284085.381325-.6606924.1774944-.197056-.1730062-.1205031-.4693948-.0140573-.7033723.11466-.2517609.2449016-.4971706.3801395-.7386849.6357111-1.136269,1.2717609-2.2723686,1.9146699-3.4046575,1.5186102-2.6745255,2.3125927-5.5433971,2.4931357-8.6186399.2179726-3.7118853-.0775691-7.4335092.286396-11.1405676.2333848-2.3760199.5219826-4.740777,1.0656438-7.1192526.2509987.2542167.2206824.5165629.2694595.7558754.1605579.7857683.2670884,1.585848.5948095,2.3285977.1024658.2323686.2166177.441873.5302814.4485629.3241644.006944.4347596-.2129763.5169016-.4486476.1366775-.3914022.2850411-.7850909.3604085-1.1904657,1.061071-5.7110684,2.8968169-11.1969661,4.8253747-16.6559348.1453151-.4112179.2132304-.8884881.6794919-1.0911332.3106152-.1350685.4174844-.3383063.322132-.6534097-.1016189-.336274-.2699676-.6244483-.663741-.6428244-.2172951-.0101619-.4491557.0099925-.6544259.0772304-.5641544.1850311-.7423263-.077061-.6554421-.5721992.1158456-.6589141.2337235-1.3273972.624787-1.922122.8346301.8191332.8691806.8381868,1.5217434-.0630884.6639103-.9171108,1.4921046-1.6091357,2.4578231-2.1942914,2.4639202-1.4932901,5.0003286-2.8742913,7.3448466-4.5556612.579736-.4157061.8007571-.2848717,1.0519253.2962192,1.7436114,4.0334246,4.0142863,7.7704606,6.4421319,11.4198503.4440747.6676363.8263312,1.3782067,1.2124832,2.0824259,1.5049763,2.7444732,2.4524034,5.635701,2.2527222,8.8153572-.1420971,2.2632229-.8336139,4.3997608-1.5408817,6.5307097ZM173.4443788,5.0207849c-.9172802,1.5374944-2.0917409,2.8786948-3.2826301,4.2072776.220005-2.0699775,1.8473474-3.0652502,3.2826301-4.2072776ZM180.6523786,27.1367893c-.7968617.6882989-1.116792.6238555-1.7852752-.1856239-.9574197-1.1593026-1.6435168-2.4928816-2.409046-3.7753125-.4254446-.7128568-.8539377-1.4238505-1.2776886-2.1377235-.3878456-.6534097-.7816189-1.288528-1.5435915-.8742615-1.3273125.0963686-1.3099526.0956912-1.3593225-1.0998555-.0767223-1.8559003-.334665-3.6924084-.694396-5.512488-.086122-.4361146-.0621569-.6290212.4468692-.6979527,1.3446724-.1822366,2.6860423-.4096936,3.8429738-1.2079103.3256887-.2247472.4298481.0492852.5516214.2660722.4345903.7732353.8900124,1.5339377,1.4856687,2.1965778,1.1962241,1.3306152,2.3612851,1.6074421,4.0075117.9095741.4703263-.1993425.7753524-.1344757.8752777.3595616.1946002.9611457.7956762,1.6297982,1.519203,2.2081793.3602391.2879203.4942067.6158954.4682939,1.0697086-.1944309,3.4049115-1.544269,6.2500721-4.1280995,8.4814543ZM184.9864259,16.3411333c-.3680299-.4144359-.7094695-.7401245-.9804533-1.1166226-.5321444-.7391083-.2609913-1.5734844.5790585-1.886386.5434919-.2024757,1.1638754.3460124,1.1647223,1.0294844.0003387.4610959-.2347397,1.0803786-.7633275,1.9735242ZM190.8752427,16.3939751c-.0396314.2699676-.1673325.526386-.246934.7912727-.2330461.7748443-.7348742.959452-1.4795716.7277609-.8612204-.2680199-1.594401-.7566376-2.3384209-1.2404284-.3599004-.2340623-.3011308-.5113126-.2548941-.8618979.1556463-1.1775093.1627596-2.3294445-.771457-3.2634071-.6650959-.6649265-1.2961494-.7496089-2.079462-.2368568-.4000398.2619228-.7142117.6134396-1.0185604.9741021-1.1841992,1.4037808-2.771995,1.3612702-3.903183-.1243985-.6608618-.8678256-1.0697086-1.8716513-1.4846525-2.8707347-.1876563-.4519502-.2098431-1.197579-.6378281-1.2688817-.5199502-.0867148-.8298879.5975193-1.059716,1.0368518-.5722839,1.0944358-1.4937982,1.3737185-2.6168567,1.3590685-1.0214396-.0132951-2.0469439-.0628344-3.1268991.098401,2.208264-2.8294096,4.0916014-5.8994868,6.9958703-8.0851405.9840099-.7404632,2.0923337-1.2567721,3.2545155-1.6351332,3.4267596-1.1155218,6.7510534.0752827,8.6982414,3.2348692,2.1558455,3.4982315,2.6593673,7.3445079,2.0698082,11.3645527ZM207.3686719,164.577065c.6437559,6.4521244.9643636,12.9274517,1.3787995,19.3963432.325858,5.0860273.5536538,10.1813696,1.1767472,15.242839.1890112,1.5337683.5589041,3.0482291.901868,4.558625.1376936.6070037-.0291308.869858-.6217385.9692752-.6269888.1051756-1.2595666.2169564-1.8636911.4083387-.5773649.1829141-.7453748.064528-.7953375-.5592428-.2611606-3.2606126-.4374695-6.5246125-.4659228-9.794879-.067746-7.7865503-.105853-15.5734392-.1763088-23.3599895-.0272677-3.0199451-.1099178-6.0395515-.1661469-9.0593273-.0049116-.2608219-.0006775-.5216438-.0006775-.7824657.4677858.9580971.5323138,1.9775043.6324085,2.9804831ZM168.8003939,85.3223471c.1153375-.1052603.2626849-.281061.4193474-.150396.182406.1521743.0833275.3481295-.0494545.5103811-.7093001.8669788-1.6856886,1.3548343-2.713056,1.7971307.7803487-.719716,1.5590037-1.4413798,2.3431631-2.1571158ZM165.536902,90.9422971c-.3062117-.006944-1.3051257-.9387048-1.3307845-1.2439003-.0228643-.2717459.227203-.2874969.3789539-.3633723.7665454-.382934,1.5701818-.6715317,2.3849962-.939467.6446874-.2121295,1.3749888-.2388045,1.886386-.7826351.0728269-.0773997.1884184-.1592877.2821619-.0618182.064528.0672379.1089016.198411.0942516.290122-.1458232.9158406-2.7848667,3.1217334-3.695965,3.1010709ZM157.9022721,98.0360604c.1906202-.1874022.3283985-.4543213.422396-.7097235.5555168-1.5082789,1.7115168-2.2735541,3.1652602-2.8092552.8851009-.3261968,1.6847571-.1763088,2.5193026-.0095691,1.0028094.2003587,1.9966425.4448369,2.9975043.6555268,1.0023013.2110286,1.5811058,1.4597559,1.0575143,2.3170809-.6084433.9962042-1.317066,1.9142465-2.144244,2.7408318-1.0241494,1.0233873-2.0967372,1.9172104-3.7272975,1.4529813-.1015342-.365066.5692354-.7709489.0742665-1.0011158-.4234122-.1968867-.667721.3649813-.9416687.6580672-.1319352.1411656-.2435467.3033325-.3858132.4323885-.1673325.1518356-.3844583.2841096-.5843088.0978082-.1651308-.1539527-.0533499-.3637958.0326874-.537056.0736737-.1480249.1923985-.2791133.2395666-.4334894.0646127-.211452.0979776-.4563537-.1225355-.6043786-.2586202-.1736837-.3848817.0458132-.5380722.2111133-.6694994.7220872-1.6729863.5677958-2.1192627-.3946202-.3051955-.6578979-.638929-1.3843885.0547049-2.0665902ZM148.6036322,58.980943c.0461519.1000946.1011108.1997659.169873.2850411,1.4801643,1.8352378,1.4971855,3.7905553.6007372,5.8934743-.7585853,1.7796015-1.4158904,3.6038305-2.0789539,5.4224706-.9279502,2.5452154-1.3200299,5.1955217-1.4716114,7.8893547-.0193076.3449963.0641893.7146351-.1766476,1.0840199-1.6797609-1.6137932-3.0022465-3.3642639-3.4984009-5.7037857-.9188045-4.3328617-1.6594371-8.6972252-2.4757758-13.0483783-.2639552-1.4070834-.5666949-2.8067994-.889335-4.3951879,2.1556762.9514919,4.1990634,1.503452,6.3713373,1.4475616.3876762-.0099925.8099028.0697783,1.1565927-.0560598,1.2248468-.4444981,1.8350684.1927372,2.2921843,1.1814894ZM143.018656,18.8858406c.7277609.9025454,1.1245828,1.96531,1.460518,3.0528866.3836961,1.2420373.7181918,2.4998256,1.1206027,3.7355964.425868,1.3078356,1.0382914,2.499995,2.4732353,3.1676313-1.5158157.83065-1.0286376,2.1816737-1.0668294,3.3854345-.0225255.7084533.5016588,1.5982964.0167671,2.0651506-.4442441.4276463-1.3486525.3771756-2.0500772.5378182-.2695442.0618182-.5378182.1295641-.8084632.186386-1.6689215.3505006-3.0145255,1.0482839-3.2950784,2.9582963-.0469141.3195915-.1999352.6329165-.5417136.9876513-1.0676762-2.0936886-2.4453748-4.0093747-2.0066351-6.5185154.1937534-1.107731.8724832-1.96133,1.5294495-2.8180622.9098281-1.1865703,1.8840996-2.3258879,2.5839153-3.6608218.8803586-1.6793374,1.0402391-3.4267596.4711731-5.2303262-.2302516-.7297933-.5678804-1.4506102-1.4141967-1.5899975-.8894197-.1465006-1.4859228.4430585-1.8816438,1.1239053-1.1692951,2.0119701-2.0987696,4.1460522-3.0132552,6.2824208-.5771108,1.3481444-1.1104408,2.7183063-1.3167272,4.1856836-.0382765.2721694-.0655442.5538231-.0396314.8255691.0525878.5517061.2694595.9544558.9274421.8321743-.7208169,1.6491058-.4524583,3.1630585.6153026,4.5792876.4498331.5966725.9083038,1.1927522,1.2937783,1.8308343.7350436,1.2168866.665604,2.1135043-.2025604,3.2152228-.7956762,1.0099228-1.8044134,1.79332-2.7985852,2.5931456-.2656488.2138232-.4225654.1471781-.6120847-.0716413-.5257086-.6070037-1.054127-1.2120597-1.5923686-1.8079701-.2814844-.3118007-.191721-.5305355.1270237-.730386,2.5638455-1.607188,2.8422814-3.8883635,2.2750784-6.6641692-.9746949-4.769823-.2851258-9.476727,1.1288169-14.0848066.3009614-.9809614.8381868-1.8674171,1.566117-2.6180423,1.5195417-1.5667945,3.6709837-1.4612802,5.05063.2496438ZM137.2572863,30.4101043c-.1355766.4204483-.2587049.8490261-.4426351,1.2485579-.1310037.284533-.2872428.5847322-.6203835.7079452.4710037-3.1264756,1.5105653-6.0857881,2.6552179-9.0140222.3830187-.9796911.760787-1.965056,1.3545803-2.8410111.2595517-.3830187.5452702-.8701967,1.0890162-.7607023.5062316.101873.5281644.6646725.653071,1.0658979.2700523.8673175.22534,1.7592777.0061818,2.6283735-.5844782,2.3183511-1.9161095,4.2012652-3.6023909,5.8802639.6086974-1.1853001,1.2173947-2.3706002,1.8841843-3.6692054-1.1029041.7747596-2.355188,2.8256836-2.9768418,4.7539028ZM139.4878217,42.2582784c-.259721,1.9059477-.5193574,3.8118106-.7960996,5.8423261-.8900971-.7151432-1.6765429-1.3532254-2.4703561-1.9820772-.3443188-.2726775-.0571606-.4213798.1078007-.5761793,1.1010411-1.0329564,2.2528069-2.0183212,3.158655-3.2840697ZM130.7548605,60.4282505c.1939228,1.2983512.4270535,2.6032229.3847123,4.0451107-.6395218-.3593076-1.0475218-.7170062-1.1587098-1.3892154-.5037758-3.0473822-.6360498-6.1027246-.2916463-9.1761044.0425953-.3803088.1909589-.6809315.4773549-.9309141.3124782-.2728468.59066-.5880349.9176189-.8409813,1.3865056-1.0725031,2.2760946-2.4675616,2.7547197-4.1412253.068254-.2382964.1600498-.4698182.2447322-.7030336.0049116-.0137186.0433574-.0152428.0663063-.0224408.9685131.9956114,1.1376239,2.1391631.4912428,3.302107-.3809016.6854197-.8892503,1.2809913-1.4538281,1.8046675-2.3907546,2.2174097-2.8927521,4.9708592-2.4325031,8.0520297ZM126.4903376,54.1467613c.7225953-1.5881345,1.3532254-2.9739626,2.0427098-4.4893548.4393325,1.309868-.3729415,3.1014943-2.0427098,4.4893548ZM128.189406,62.8583825c-2.8962241-.7018481-3.1261369-5.2138978-.3487223-8.1771903.2375342,2.8013798.3932652,5.4798006.3487223,8.1771903ZM127.9574608,42.5963307c-.5683038-.8641843-.4661768-1.5689115.0075367-2.3754271.7602789-1.2946251,1.7014396-2.4549439,2.6143163-3.6369414.7437659-.9630934,1.5120896-1.9075566,2.1724433-3.0158804,2.1163835,1.8377783,2.2744856,4.338112.4185853,6.3051157-.606919.6434172-1.269051,1.2343312-1.8944308,1.8608119-.4462765.447208-.4801494.9267646-.1704657,1.4987098.5391731.9955268,1.3257036,1.7718107,2.1403486,2.518117.4024956.3687073.4190087.6613698.1817285,1.1318655-.7509639,1.4887173-1.5205579,2.9542316-2.8436363,4.0352876-.1033973.0844284-.2212752.1512428-.3499925.2380423-.2574346-.4419576-.1694496-.8956862-.1782565-1.3246874-.053858-2.6016139-.663741-5.0538479-2.0981768-7.2350135ZM121.1134261,45.3338599c-1.2173101-2.1433125-.9676662-4.0612851.7473225-5.8328417.9099128-.9398904,1.9557409-1.7239651,3.0060572-2.4896637,2.6426002-1.9262714,3.4406475-4.4130559,2.4549439-7.5192078-.4704109-1.4822814-.9154172-3.0018231-.5110585-4.5656537.952254-3.6833474,3.4537733-5.9519899,6.8813797-7.3256237,1.5454545-.6193674,3.1448517-.2958804,4.8490858-.323995-.1390486.2023063-.1822366.2994371-.2542167.3648119-2.7614943,2.5045678-3.7771755,5.7715316-4.1057434,9.3470782-.1476862,1.6074421-.1744458,3.2059078.112543,4.8033573.049878.2777584.1865554.7093001-.1491258.8277708-.4057982.143198-.5171557-.316543-.6581519-.590406-1.447985-2.8138281-1.6845031-5.7560347-.896787-8.7987594.2899527-1.1198406.5937086-2.2361245.8380174-3.3715466-1.4506102,1.8244831-2.2078405,3.9204582-2.3992229,6.2229737-.1649614,1.9846176.0558904,3.9460323.7398705,5.8100621.3067198.8360697.2277111,1.4752528-.2839402,2.1397559-.2520149.3272129-.4677858.6822017-.7914421,1.0194072.284533-2.3633175.1468393-4.6980123-.2712379-7.203427-.459741.7848368-.4699029,1.5175093-.5496737,2.2163088-.1321046,1.1554072-.238127,2.3158953-.29334,3.4770609-.0376837.7934745-.3455044,1.4476463-.8300573,2.0344109-.7584159.9186351-1.5439302,1.8147447-2.3058181,2.7305006-.3539726.4254446-.6868593.8691806-1.0163586,1.3141868-1.2081644,1.6316612-1.3629639,3.3248866-.3508393,5.1242191.501066.8909439.9426849,1.8141519.9795218,2.8808119.024812.7199701-.3450809,1.1226351-.9266799,1.4296936-.6106451.3224707-.9807073-.0443736-1.3696538-.4259527-1.0131407-.9940025-1.9417683-2.0564283-2.6453947-3.2953324ZM121.4762904,62.2277524c-1.4492553-1.2860722-2.8535441-2.6020373-3.4958604-4.4996861-.3204383-.9467497-.1763088-1.8596264.3819178-2.6965429.8565629-1.2842939,2.0500772-2.2466251,3.1691556-3.276787.1644533-.1514122.4540672-.1853699.6937185-.2338082,1.6150635-.3260274,3.0338331-1.0256737,4.2151531-2.1846376,1.057599-1.0376139,1.2572802-1.9627696.6457036-3.3013449-.3096837-.6776289-.6739875-1.335188-1.066914-1.9688667-.978929-1.5784807-.8032976-3.0413698.3648119-4.4337184.2838555-.3382217.5624608-.6808468.8434371-1.0216089.0406476.0386152.0812951.0772304.1219427.1156762-.2653948.5106351-.5019975,1.0387995-.8019427,1.5280946-.5877808.9585205-.6063263,1.9373648-.1634371,2.9372104.3360199.7585853.7065903,1.5020124,1.0652204,2.2505205.4275616.8927223.4851457,1.7726575.1133898,2.7246575-.5136837,1.3148642-1.0542964,2.6160946-1.6236164,3.9073324-.5564483,1.2621071-1.3318007,2.3563735-2.3627247,3.273315-.2894446.2575193-.5387497.5616139-.8363238.8084632-1.8752079,1.5557011-2.2599202,3.450386-1.3185056,5.6594121.0513176.1202491.077061.2513375.0548742.4123188ZM122.749999,62.7532069c-.4426351-.8962789-.6582366-1.8708044-.8587646-2.8460074-.0766376-.3730261.0132105-.7022715.1786799-1.0352428.7104857-1.4293549,1.8590336-2.4333499,3.2082789-3.3815391-.0135492.6225006-.2271183,1.1006177-.422142,1.5686575-.6835566,1.6408916-.6368966,3.2761095-.0734197,4.9348691.2660722.7830585.4804035,1.5841544.7006625,2.3819476.0641893.232538.1451457.5078406-.1036513.688807-.2569265.1868095-.5180872.0885778-.7759452-.0447123-.9454794-.4892951-1.4132652-1.3750734-1.8536986-2.2667795ZM124.716918,69.1488481c-.3758207.4065604-.7754371.7979626-1.1010411,1.2427148-.5240996.7156513-.8718904,1.4858381-.1296488,2.4966077-1.4212254-1.0316015-1.8857932-2.3602689-1.4483238-3.7466898.2962192-.9388742.8702814-1.7259975,1.3859128-2.5459775.1487024-.2366874.2987596-.2527771.5482341-.1382864.7021868.322132,1.4189389.6125928,2.1485628.9233773-.347198.7108244-.8980573,1.2211208-1.4036961,1.768254ZM128.9491769,65.0496253c.1564931.1169464.154122.2780124.0853599.445599-.3637958.8865405-.6457883,1.8269389-1.6943262,2.4541818.1414197-1.560782.0494545-3.0105454-.5729614-4.5451605.9220224.51199,1.5060772,1.1405031,2.1819277,1.6453798ZM130.7390249,70.7943126c-.7553674.5023362-1.541051.9636015-2.3507845,1.0280448-.6933798-.0732503-1.3061419-.1080548-1.5485031-.6964284-.2157709-.5238456.1834222-.9540324.4981021-1.321046.4657534-.5434072.9919701-1.0353275,1.4963387-1.5454545.5542466-.5605977.9428543-1.2265404,1.1833524-1.9678505.1419278-.4376388.338391-.4896339.710401-.2665803.63334.3797161.9702067.9459028,1.1568468,1.6423312.4808269,1.7952677.3857285,2.108254-1.1457534,3.1269837ZM146.3631042,89.4754279c-2.0372901-1.920513-4.0398604-3.8848916-6.17064-5.6972651-2.6939177-2.2915068-4.454381-5.138361-5.4117159-8.4897532-1.3782914-4.8255441-2.4560448-9.7161243-2.820772-14.7383857-.0887472-1.2212901-.0045729-2.4346201.2108593-3.642107.2684433-1.5051457.9333698-2.7750435,2.1521195-3.7221319,1.5490112-1.2038456,2.8305952-2.5360697,2.2449315-4.8985404.7888169.5285031,1.3737185.9851108,2.0164582,1.3356114.9295591.5067397,1.3005529.2913923,1.3986998-.7633275.1149141-1.2348393.1555616-2.4791631.6643337-3.7165429.4685479,4.4532801,2.7982465,7.862341,5.9787495,10.8378279-2.3316463.2550635-4.5466001.2364334-6.6563784-.7115019-.4034271-.1813898-.7878854-.4047821-1.1848767-.6014147-1.0233873-.5072478-1.197579-.4012254-1.1051905.7724732.0672379.8546152.1665704,1.712533.3350884,2.5521593.9595367,4.782102,1.4072528,9.6445676,2.2984508,14.4385252.4315417,2.3211456,1.2638854,4.3801991,2.8954619,6.12796,2.5675715,2.750655,4.6212901,5.8766225,6.4213,9.1689064,1.7095691,3.1265603,4.0479899,5.7420621,6.562889,8.2213946.1969714.1943462.4163836.3820025.5568717.6142864.290122.479726.2020523,1.0462515-.1046675,1.408523-.3276364.3869141-.6242789-.1390486-.8752777-.3201843-3.3818779-2.4408019-6.3805677-5.3239002-9.4066947-8.1765129ZM178.9550038,208.3738062c-.2318605-.8806974-.53333-1.7431033-.7829738-2.6195666-.1420971-.4986102.1478555-.7548593.5697434-.5638157,1.1327123.5126675,2.2417135.1431133,3.3449563-.0098232,2.2451008-.3111233,4.4800397-.6964284,6.7195515-1.048538.1883337-.0296389.3795467-.0398007.5695741-.0591083-1.2317908.9746949-2.6322689,1.6091357-4.0137782,2.2745703-1.8174545.874939-3.6442241,1.7292154-5.5317956,2.450371-.5126675.1957858-.7348742.1092403-.8752777-.4240897ZM200.0187443,208.1621001c-2.9295043.4362839-5.7722938,1.3056338-8.7092501,1.7038107-3.0241793.4100324-6.0580123.4826899-9.1165726.3844583.0494545-.2784359.2762341-.2733549.4398406-.3392378,3.3148094-1.3354421,6.5926972-2.7411705,9.4397208-4.964762.2472727-.1932453.4627048-.2296588.7516413-.0648667,2.6529314,1.5125977,5.4847122,2.4803486,8.5358205,2.7730111.0652055.0062665.1229589.089594.2532005.1901968-.5343462.3971606-1.0903711.2423611-1.594401.3173898ZM201.9889659,207.7718834c.633594-.1273624,1.2892054-.0799402,1.9211058-.2481195-.6164882.2481195-1.2417833.4278157-1.9211058.2481195ZM179.1248768,113.7689566c4.9205578.6329165,9.6407569-.5041992,14.3614642-1.6329315,2.449863-.5858331,4.8980323-1.1790336,7.348742-1.7618181,1.0907098-.259467,1.1123885-.2509987,1.0785155.8996662-.0899328,3.0524632-.5385803,6.0701219-.9286276,9.0921841-.7076065,5.4801393-1.2077409,10.9697631-.7267447,16.4989336.2723387,3.1289314.8712129,6.2049363,1.9273723,9.1638254.5973499,1.6738331.5614446,3.2320746-.2110286,4.8175839-.5089415,1.0445579-.9494595,2.1223113-1.4179228,3.1865155-.109071.2481195-.3079053.5311283-.0233724.7540124.2950336.2313524.5753325.0344658.8207422-.1614894.44001-.3513474.7621419-.8031282,1.0534495-1.276249.300792-.4886177.5854944-.9872279.8773101-1.4814346.0619875.0149041.1239751.0299776.1859626.0450511-.1925679,1.9546401-.357868,3.9124134-.5838007,5.8632427-.4085081,3.5268542-.0660523,7.0310135.2545554,10.5373746.5775342,6.3201891,1.1672627,12.6393621,1.603716,18.9714068.3544807,5.1444582.735721,10.2885776.4916662,15.4518352-.0299776.6351183-.0943362,1.2729464-.2030685,1.8992577-.2247472,1.2942864-.7575691,1.7664757-2.078107,1.7927272-2.5382714.0506401-4.9342763-.6100523-7.2567769-1.5664558-1.675188-.6899925-3.2314819-1.5879651-4.579965-2.8148443-1.2223063-1.1123885-1.2663412-1.6496139-.2875816-2.9684582.4786251-.6451108.9247322-1.3146102,1.4036961-1.9593823,2.6044931-3.5063611,3.2909289-7.289295,2.3448567-11.6169063-1.6572353-7.5817881-3.8305254-15.0189386-5.8393623-22.5030032-2.5220124-9.39594-4.3494594-18.9390581-6.126097-28.4950479-1.0981619-5.9071082-2.274909-11.7995663-3.4103312-17.6999-.1673325-.8700274-.2911382-1.7483536-.4542366-2.6193125-.062665-.3355965.0262516-.4612652.3749738-.4163836ZM177.720842,113.4835768c.2841943.1265156.5260473.2335542.5331606.6341021.0929813,5.2119501,1.2204433,10.2793472,2.1878555,15.3669834,1.3401843,7.0472726,2.5401344,14.1199499,3.9384109,21.1572299,1.345604,6.7739176,3.2924532,13.3865999,5.122102,20.0329858,1.4186002,5.1532651,2.5809514,10.3644531,3.7307695,15.5858029,1.5879651,7.2117259-4.0461269,13.9619324-9.2542663,15.2201441-2.0147646.4867547-3.9585653,1.2720996-5.7069189,2.4381768-.4928518.3283985-.5700822.0989091-.6784757-.341609-1.920259-7.797559-3.9152079-15.5783508-5.4357657-23.4675362-2.7363436-14.1966721-5.773564-28.3294937-8.96262-42.4303053-2.4556214-10.8578976-4.9065005-21.7168961-7.3837159-32.5698822-.5297733-2.3209763-1.1878406-4.6112975-1.9508293-6.8691007-.0679153-.2012055-.1099178-.4110486-.2085728-.7865305,1.0284682.739193,1.9174645,1.3843885,2.8140821,2.0190834.291477.2063711.2997758.5105504.3329713.812528.0499626.4547447.1894346.8705355.560259,1.1654844.2138232.170127.4464458.4004633.7347048.3076513.3172204-.1020423-.066391-.461858.1559004-.6396911.1798655.0780772.2205978.230675.2358406.3983462.1110187,1.2136687.5658481,1.7284533,1.6943262,1.9178032,2.6508991.4448369,6.3523685-1.3434869,7.6647769-3.7031631,1.265071-2.2744009,1.6969514-2.5220971,4.3347247-2.4871232.0549589.0007621.1102565-.010924.1649614-.0081295.2338082.0121096.3553275.200274.4108792.3676065.2865654.8637609,1.5612054.9623312,1.5269937,2.1043586-.0929813,3.1067446.0252354,6.2106101.3282291,9.3043136.2015442,2.0590535,1.1730211,3.6080647,3.1102166,4.4704706ZM171.1521946,86.4373608c.4457684-.2783512.8524981-.6185205,1.2950485-.9025454,3.2229289-2.0681992,4.8584856-5.3095042,6.3524531-8.639133,3.1054744-6.9204183,5.0059177-14.1923533,6.0923934-21.675317.4664309-3.2126824.2628543-6.4766823.3854745-9.716463.0880697-2.330122.3082441-4.6435615.9899377-6.8892551.080279-.2646326.1639452-.5287571.2589589-.7882241,1.0593773-2.8919053,2.5172702-3.9222365,5.6073324-3.9666948,2.8724283-.0414944,4.7494993,1.1596413,5.7619625,3.8603337,1.2510984,3.3371655,1.5120896,6.8516561,1.6558804,10.3754618.0123636.3045181.0015243.6098829.0015243.9148244-.0182914,5.4993623-1.1166226,10.8402837-2.3824557,16.155631-.8095641,3.3988144-1.798655,6.7391978-3.3126076,9.902595-1.7463213,3.6488816-4.1323336,6.8110086-7.2003784,9.4544556-.8818829.7599402-1.7297235,1.5616289-2.6361643,2.29066-2.4310635,1.9552328-4.3862116,4.2922988-5.8573149,7.0459176-.481335.9010211-.9755417,1.8029738-1.6853499,2.5619825-.7861918.8405579-1.482112.9068642-2.3834719.1832528-.6903312-.5541619-1.1067995-1.3071581-1.4544209-2.0972453-1.0374446-2.3578131-1.439178-4.8745752-1.8265155-7.3946399-.0491158-.3199303.0674072-.5067397.3377136-.6755965ZM171.4908396,95.5960206c.1906202.4438207-.1693649.5071631-.4810809.5583113-.7469838.1224508-2.2281643-.6976986-2.6493748-1.4612802-1.0737733-1.9470186-.6715317-3.5910435,1.2875118-4.9632377.3532951,2.0638804,1.0349888,3.9851556,1.8429439,5.8662066ZM181.6800847,39.3443556c-.4611806,1.5662017-1.0258431,3.0981917-1.6867048,4.5878405-.8766326,1.97598-1.0868144,4.1050659-1.5380025,6.1797857-.0851905.3925878-.1270237.8043985-.4486476,1.254655-.221868-2.0491457.105345-3.9077558.7076065-5.7140322.5675417-1.7024558,1.2309439-3.3729862,1.8545454-5.0565578.164792-.4449215.3414396-.8837459.0633425-1.3508543-.1600498-.268528-.105345-.459995.2123836-.5660174.2852105-.0952677.6232627-.3407621.8530909-.1809664.2755567.1918057.0658829.5624608-.0176139.8461469ZM193.8204979,25.5655067c-1.2455093,1.1155218-2.6944258,1.9391432-4.1025254,2.8216189-1.6641793,1.0428642-3.4320099,1.9286425-4.9195416,3.2398654-.1410809.1242291-.2869041.2924931-.5018281.1639452-.193076-.1155068-.1864707-.3236563-.1825753-.5802441.0785853-.6830486.4134197-1.3135093.8810361-1.8763935,1.3262964-1.5966027,3.1136039-2.5572403,4.9051456-3.4999252.8563088-.4506799,1.750386-.8300573,2.6298978-1.2362789.25066-.1156762.5035218-.2121295.7939825-.2122989.3455044-.0001694.683726-.0049116.8640996.3510087.2071332.4086774-.1365081.6217385-.3676911.8287023ZM138.8458441,102.8553379c.0487771-.143198.1423512-.2710685.2553176-.3911482-.4432279,2.940259-1.3074122,5.7726325-2.1611805,8.603143-1.4307945,4.7441643-2.933061,9.4667345-4.3758803,14.2074268-1.8017036,5.9199799-2.9564333,11.9866299-4.0330858,18.0697082-1.37067,7.7448865-2.6854495,15.502306-5.1629189,22.9989036-.8099028,2.4505404-1.8540373,4.8016636-2.97066,7.1243336-5.0645179,10.5353422-10.6892949,20.7365275-17.8791727,30.0046817-2.0055342,2.5853549-4.0368965,5.1507247-6.2333896,7.5785702-.3662515.4049514-.7975392.7507945-1.297589,1.2158705.0016936-.8502117.3591382-1.4768617.6980373-2.1014794,1.1676861-2.1522889,2.6503063-4.0915167,4.1256437-6.0334544,4.7035167-6.1916412,8.9342513-12.6806871,12.4823608-19.6100817,2.3848268-4.657026,5.0621468-9.1641642,7.0618379-14.0176535,2.768777-6.7200596,4.5281394-13.7029735,5.7084432-20.8627044,1.3083437-7.9363535,3.317858-15.715367,5.8219177-23.3532149,2.5697733-7.8383759,5.2979027-15.6249262,7.9603186-23.4329011ZM101.3174665,147.3092995c.2150934.3136638-.1192329.4945454-.3090909.674665-2.4947446,2.3662814-4.9294494,4.8007321-7.504219,7.0766574-5.9679102,5.2752078-10.8051405,11.5008914-15.4120345,17.9396359-2.7445578,3.8357757-5.6674569,7.5287769-9.0393423,10.8505303-5.3316063,5.252513-11.8382662,8.3959251-18.8783408,10.5822563-2.5455541.7904259-5.152503,1.304787-7.822879,1.4641594-1.0539576.0630037-2.0976687.0391233-3.1392627-.3392378,1.1637061-.1354919,2.3351183-.2242391,3.4899327-.413589,12.0774094-1.9802141,21.9383407-7.7025453,29.3899719-17.467616,2.909858-3.8132502,5.3551481-7.9655689,8.3824606-11.6873621,5.1608019-6.344747,10.8589985-12.1558254,17.5147841-16.9639249.828533-.5985355,1.7274371-1.1020573,2.6105902-1.6209912.2043387-.1200797.4807422-.4404334.7174296-.0951831ZM147.4112188,136.6074716c.7167522-7.1746349,1.2927621-14.3565526.9642789-21.5799646-.0880697-1.9375342-.0955218-3.8788791-.1337983-5.8186151-.0113474-.5750784-.0017783-1.1505803-.0017783-1.7259128.0795168.0112628.1589489.0224408.2384657.0336189.325604,2.525315.5157161,5.0649413.6663661,7.6048217.3137484,5.2882489.4125728,10.5796311.2132304,15.878042-.1710585,4.5467695-.6313923,9.0666947-1.0835118,13.5888216-.4712578,4.7146101-.9597061,9.4275266-1.4400249,14.1412898-.9555566,9.3773945-2.0971606,18.7200693-5.1285379,27.7140218-1.3478904,3.9993822-3.0693997,7.8331256-5.0941568,11.5322239-.4100324.7489315-.8342914,1.4976936-1.5839003,2.0347496.2329614-.4874321.443736-.9868891.7021021-1.4604333,4.400777-8.0654942,6.6622215-16.7859224,7.9561692-25.8117154,1.0073823-7.0272875,1.4860074-14.10657,2.1665155-21.1663756.4811656-4.9918604,1.0600548-9.9742364,1.5585803-14.9645725ZM182.2676115,84.6801155c.4188393-1.0045031,1.1140822-1.8432826,1.6203138-2.7913872.9884134-1.8509887,1.9299128-3.7270435,2.908503-5.5835366.3344956-.6346949.6986301-1.2580423,1.1772553-1.8001793.1353225-.1533599.2382964-.4360299.5080946-.3283985.232538.0928966.2437161.3444035.2227148.721071-.0750286.3145106-.1382017.787462-.2996065,1.2241693-1.2348393,3.3417384-2.9376338,6.4251954-5.1832427,9.1963435-.1886725.2328767-.3538032.7547746-.8049913.4710884-.4212105-.2647173-.3261968-.6843188-.1490411-1.1091706Z"/>
  </g>
</svg>