<?xml version="1.0" encoding="UTF-8"?>
<svg id="Layer_2" xmlns="http://www.w3.org/2000/svg" viewBox="0 0 259.1195621 276.9920865">
  <g id="Layer_1-2" data-name="Layer_1">
    <path d="M26.4055328,198.034624c4.0501814-9.7450725,10.3129382-17.3192681,20.0379571-21.9468645,7.6512267-3.6405159,14.6139481-8.4132618,20.8235471-14.2268827,7.1619837-6.7045717,12.6190969-14.6639229,17.0859466-23.3343795.9832608-1.9085891,2.0260456-3.6351046,2.1692853-6.0959622.3106709-5.3402933.9765763-10.676767,1.2057597-16.0367956.0483832-1.1370047.2053102-1.586459,1.4877827-1.1662893,1.789541.5863277,3.5972257.3806992,5.3304257-.3994795.595877-.2683357,1.2191288-.4755557,2.1759698-.8438408-2.4802745,4.5247821-5.1540818,8.5472705-7.2918543,13.2799093,1.5915519-.6569926,2.3815983-1.5724533,3.181194-2.4503534,2.8921682-3.1754644,5.1556733-6.8000648,7.3634742-10.458406,1.3849685-2.2946996,1.3932446-2.3554969,3.6538849-.9921735,3.2009292,1.9302342,6.3225992,2.191567,9.4636861-.1120453,2.8982161-2.1256768,5.2257016-4.7622417,7.1056427-7.804334.2683357-.4341754.4469078-.9463368.5659559-1.4460841.3132174-1.3117571-.018462-1.6482112-1.3343571-1.3556839-1.5234335.3390006-3.0420924.7031476-4.5527935,1.095306-.7820886.2027637-1.3155768.1502425-1.7939973-.6694067-1.0434214-1.7885861-2.6629847-2.9246358-4.6766162-3.3903239-1.091168-.2521018-1.4842813-.6318461-1.2500049-1.8659355.7613984-4.0132573.7824069-7.97654-1.4253939-11.6558897-.3160822-.527122-.4777839-1.1526019-.6741814-1.7446592-.8899958-2.6827199-.3762429-5.0378985,1.7083718-6.9878679,1.17934-1.1026272,2.4388942-2.1221753,3.5813102-3.2607716.7505759-.7483477,1.229633-.6757729,2.0432344-.0063662,3.8754289,3.1872419,8.2572897,3.921584,13.0519991,2.4888689,1.7309719-.5172544,3.2808251-1.4358982,4.9156673-2.1606909.0620705.1429214.1098171.1976707.0986762.2352314-1.682907,5.7894293-.6031982,10.7213304,4.4875398,14.3904942.7247927.5223473.2616511.8053253-.1241411,1.1758386-2.7498834,2.640703-4.3939566,5.9164351-5.3374286,9.5544045-.6016066,2.3211193-.809145,4.6762979.106634,7.4424151.5188459-1.9264145.8750353-3.4756311,1.3553656-4.9856956,1.0755708-3.3820479,2.1075331-6.9948707,4.6470133-9.4248522,2.4764548-2.3698208,3.4979128-4.448706,1.8557496-7.5630548-.3561893-.6754546-.6187954-1.7236507.2240905-2.0906626.7091955-.3087611,1.0147735.7314773,1.3515459,1.2579626,4.2048802,6.5813855,8.4100787,13.1634077,12.5446123,19.7893567,1.7768086,2.8472864,3.8267275,5.451702,6.1889088,7.8240693,2.9777937,2.9911627,5.9533592,5.9845536,8.9174655,8.9897219.2648342.2683357.7241561.4430881.6417137,1.0657032-3.3269802.1884397-6.6307237.1562904-9.9281009-.3832457-5.5541979-.9087762-10.6793135-3.0793347-15.7923332-5.29382-1.0695229-.4631416-2.1527331-.8823564-3.4944114-.9902636.9533396.9326494,2.0040822,1.4174361,2.9946641,1.9617469,8.8162428,4.8459573,17.8530746,8.877995,28.3248497,7.2692543.8588014-.1320988,1.3674614.2941188,1.8662538.8553,3.9359079,4.4289707,8.8413893,6.6504589,14.7915653,6.4868474.9040015-.0251465,2.460221.3122625,2.4805928-.5233023.0264198-1.0692046-1.5157941-.8578465-2.436666-.956841-5.1015606-.5481305-9.6257061-2.3319419-12.9988412-6.3318302-3.8474176-4.5620245-8.3072645-8.4804253-12.6961281-12.4806319-3.5949975-3.2770054-6.8793241-6.8280761-9.4426776-10.9868013-3.6061384-5.84959-6.7968817-11.9480987-10.574271-17.6958293-.7725393-1.1755203-1.5523998-2.349449-2.5872268-3.3190224-.2164511-.2024454-.4656881-.4710994-.8155112-.2785216-.2565582.1410115-.313854.4303556-.268654.6843673.4367218,2.4465336-1.8245551,4.3522579-1.2003485,6.8509944-3.103208-2.6512072-4.8383179-5.7566433-3.9766517-9.8189205.882993-4.1625449,3.3269802-7.4850687,6.0860946-10.5647217,1.1156779-1.2455485,2.4901421-1.0701595,3.6818962.1903496,1.7347916,1.8353777,3.0229937,3.9658291,4.0463616,6.2691231,1.424439,3.2050673,2.1807445,6.6106701,3.0866558,9.9758475,2.0916175,7.76741,5.2483016,14.9268472,11.7497913,20.1267657,3.9756967,3.1799208,6.9455326,7.1279245,9.1956687,11.6886757,1.4740954,2.9870247,3.1417235,5.8871506,5.6512826,8.1831234,1.794634,1.6421633,3.8741557,2.4414407,6.3057287,2.0209526,1.6373886-.2829779,3.2489941-.7133336,4.8793799-1.0415116,1.9366004-.3896119,3.5657129.2759751,5.0232562,1.4963771-1.2961599-.1725242-2.5550775-.499429-3.8684261-.2368229-.9775312.1957609-1.5810477.7461195-1.7809466,1.719831-.115865.5643643.0531578.9406072.7114237.8616662,1.4861912-.1792087,2.8845287.3017582,4.3207452.5213924,1.0329172.1575636,2.2552291.2107215,2.7632525-.8969987.7852717-1.7109183.2027637-3.1579573-1.1249089-4.0403137-2.9255908-1.9442398-6.0167029-1.9273694-9.29339-1.1627878-4.5254188,1.0561539-6.9783186-.0076394-9.5747764-3.903122-1.2748331-1.9127271-2.2650967-3.9823812-3.2333969-6.0555368-1.6876817-3.6140961-4.1224378-6.61258-7.226919-9.0890348-1.6287942-1.299343-3.2442195-2.6158748-4.895932-3.8859332-1.1761569-.9043198-2.0998936-1.9642934-2.7661173-3.3158393-2.1489134-4.3586241-3.7993528-8.8945471-5.0191182-13.5902619-.7655365-2.9465992-1.4830081-5.9056126-2.2374037-8.9219218,1.3846502.1085438,2.0238174.6006517,2.0734739,1.933099.0439268,1.1796583.3164005,2.3723673.8349281,3.4734029.6165672,1.3088923,1.5412589,2.2555474,3.0576896,2.335125.9345593.0490198,2.4344378.4077556,2.5633535-.624525.1120453-.9001818-1.4190277-.887131-2.3188912-.9635255-.9740298-.0824424-1.7112366-.3857922-1.9888033-1.414253-.5614995-2.080795-.6044714-4.1421731.4679163-6.0682692.4147584-.7448463.5850545-1.5001968.3733781-2.237722-.7747675-2.7027735-2.1785163-5.2540312-1.8665721-8.2085882.0178254-.1693411-.1782538-.3670119-.2883892-.5430375-.5379446-.8626211-.3491865-1.7102817.1018593-2.515607.3313611-.5920573.7508942-1.2837458,1.5056081-1.1866611.8384296.1075889.8371563.934241.9119593,1.603966.0464733.4141218.0989945.8298352.1063157,1.2455485.0257831,1.3926079.6363025,2.2272178,2.0852513,2.4376209.9816692.1426031,1.9111356.5226657,2.7390609,1.0838469,1.4397179.975303,1.6240196,2.408973,1.0236862,4.6339626-.4777839,1.7707607-1.6765408,1.586459-2.9265457,1.4253939-1.1296836-.1457862-2.0410062.0356508-2.5741761,1.1822048,3.994477.5694573,6.1013735-.702511,6.9340734-4.1536322.4258993-1.7650311-.0537945-3.033498-1.5476251-4.0686434-.9542945-.6611307-2.0266822-1.0832102-3.1369489-1.3604586-1.1131314-.2775667-1.6873634-.786545-1.4721855-2.03464.1426031-.8263338.110772-1.8153241-.5411277-2.3567701-1.169154-.9714833-.6296179-1.719831-.1069523-2.7517933,1.8321946-3.6172792,1.6774957-7.2160965-2.4423956-9.4754636-.5019755-.2750202-.9679819-.624525-1.4881011-.8556183-2.1088063-.9377424-3.30629-2.5795874-3.9203107-4.7644699-.6751363-2.4019702-1.3025261-4.8332249-2.2039811-7.153071-1.7914509-4.6084978-5.432285-6.7138027-10.347634-6.2815372-6.1239735.5385812-12.1193496,7.8129284-8.1471543,14.4837592.3950232.6633588.901455,1.4295319.8868127,2.1384092-.0572959,2.7963567,1.3913347,4.5741202,3.5921327,5.9625902.6359842.4013894,1.0415116.9062297.9622523,1.7876311-.4456345,4.9589575,1.3954727,9.0699361,4.8348165,12.5337898.5360347.5398544.6557194.8925423.1276425,1.5304363-1.8057748,2.182336-3.129946,4.6613373-4.2383028,7.2577951-.1878031.4395866-.3962964.7801788-.869624,1.0227313-5.7229024,2.931957-11.4136555,3.7662485-17.1839862.0607973-.9765763-.6270715-1.2500049-.9310579-.4096655-1.8987215,1.6749493-1.9276877,3.74524-3.2801885,5.9215281-4.5346498.9301029-.5360347,2.1266317-.9164156,2.4901421-2.0145864.7493026-2.2666883,1.5463519-4.5419709,1.6482112-6.9662228.0935833-2.2367671-.8250605-3.9241304-2.7969934-5.0226196-1.0446947-.5821897-2.0833415-1.1755203-3.1184869-1.7748987-.9880354-.5723221-1.1955738-1.1405061-.3596907-2.1661022,1.5469885-1.8990398,1.5087912-2.4401674.0171888-4.364672-.4405416-.5685023-.3246766-.8435225.083079-1.285019,1.3792389-1.493194,2.7011819-3.0360445,3.8445528-4.7230895,1.5269349-2.2533192,2.6696692-4.5925822,1.9569723-7.449418-.2759751-1.1064469.1636115-1.9407384,1.2710134-2.3491306.9256466-.3412287,1.8576594-.665587,2.7858525-1.0007679.8307901-.2998484,1.6682647-.5834629,2.4850492-.9180072.2616511-.1069523.6031982-.2743836.5019755-.6729082-.0821241-.3243583-.4138035-.3132174-.6448968-.305578-2.6107818.0862621-5.1575832.5080234-6.7962451,2.7915821-1.5453969,2.1533698-2.5531676,4.7262726-2.4287082,7.300767.1126819,2.3230292-1.0513792,3.6494286-2.2997925,5.1219324-.6385306.7531224-1.3343571,1.4690024-2.0776119,2.1180373-.656356.573277-.8015056,1.0341904.0210085,1.5256617.9160973.5478122.8705789,1.2449119.4373585,2.1014852-.277885.5490854-.4357669,1.1688357-.5831446,1.7723522-.5955587,2.4369843.0665269,3.8706543,2.3042489,4.975828.6038348.2985751,1.2286781.6280264,1.8789862.7410266.9380607.1629749,1.2621007.7473928,1.5138842,1.5453969.7489843,2.3723673.2326849,4.6104076-.5395361,6.8700931-.3208569.9390156-.6961448,1.0536074-1.5609941.7041026-3.2477209-1.3133487-6.6323152-2.0935274-10.1028533-2.5821339-5.0951943-.7174716-10.2709212-1.0109538-15.1939097-2.695134-4.720543-1.6147886-9.5871905-2.9513739-13.0921062-6.88951-2.3039306-2.5888184-4.9427237-4.7651065-8.0023231-6.4222303-.4017077-.217406-.9504748-.3746513-1.0472412-.9864439.5923756.1037692,1.1573766.3027132,1.7121916.2782033.976258-.0429719,2.3653645.4749191,2.7361961-.7766773.3635105-1.2261316-.9692551-1.6717661-1.8376059-2.1909304-1.2796078-.7655365-2.8097258-1.1532385-3.6440173-2.5665366-.34664-.5869644-.6105193-.193851-.9409255.1114086-1.609059,1.4855546-1.6768591,1.4690024-3.0465487-.2396877-.1301889-.1626566-.2696089-.3179921-.4026626-.4787388-2.5681282-3.1086192-5.650646-5.6302741-9.0763023-7.8030608,1.3786023-1.2751514,2.7565679-2.4000603,3.9425924-3.6997216.7964126-.8728071,1.3063458-2.0333667,2.4404857-.4061641.0970847.1391016.3676485.1833468.5672291.2199525.5541784.101541,1.068568-.0197352,1.3671431-.5217107.4080739-.6862772-.3495048-.716835-.637894-.9924918-.2775667-.2654709-.7499393-.355871-.7391167-1.1363681,2.0906626,2.1877473,3.7337808.8094633,5.3297891-.4870149.9256466-.7515308,1.7736255-1.6093773,2.5913649-2.4805928,1.1089934-1.1815682,1.9356455-2.5783141,2.8348723-3.9196741,1.3095289-1.9528342,1.9159102-2.210029,4.1994689-1.5797744,1.4499038.4001162,2.9112668.8559366,4.2532634,1.5180222.9838974.4854233,2.6585283.1219129,2.8743428,1.4785517.1776172,1.1150413-.4774656,2.3446743-1.0771623,3.3712253-1.6867267,2.8854836-3.3982817,5.7295869-3.486772,9.2281364-.0171888.6773645-.305578,1.3158951-1.2999796.624525-.8221957-.5716855-1.1876161.1601101-1.3770107.8775817-.1878031.7101505-.3154456,1.5087912-1.1688357,1.6918197-1.1564216.2482821-1.7780818.9816692-2.1664205,2.0193611-.4940177,1.3206698-1.452132,1.5049715-2.6486607,1.0361003-1.3859234-.5430375-2.5569873-1.3983375-3.5198762-2.5251563-1.7357465-2.0320935-2.8482413-4.3392072-3.041774-7.042299-.0289662-.4068007.0035014-.9737115-.4249444-1.0790722-.5108882-.1254143-.8314267.3889753-1.0345088.7983224-.5700939,1.1494188-.7442097,2.3663194-.5096149,3.6433807.6986913,3.8028542,4.2051985,6.9754538,8.6258932,7.7842805,2.1820177.3994795,3.343214-.3109892,4.0409504-2.4080181.5564066-1.6727211,2.3430828-2.2778291,3.2604533-3.6484736.0483832-.0719381.3116259-.0735297.4290824-.0152789,1.8605242.9186438,2.0250907-.5525868,2.0107667-1.6373886-.0353325-2.6534354,1.0262327-4.8281319,2.492052-6.9063804.919917-1.304436,1.3289459-2.7963567,1.5508082-4.3704016.1114086-.7897281.1636115-1.6189266.9453818-2.2144854,2.3020207-1.7548452,2.3841448-3.629375.3132174-5.6929813-1.4333517-1.428577-3.1792841-2.3831899-5.0920112-2.9351401-1.1685174-.3370907-1.6676281-.7970492-1.3232163-2.0390963.1960792-.7060124.1391016-1.3817854-.5252121-1.9722512-1.8958567-1.6851352-3.9779249-3.0137627-6.4260501-3.7328259-2.3122066-.6789561-4.4716243-.5153445-6.5635602.8457507-2.408973,1.5673603-4.3633988,3.5211495-5.8327195,5.9823254-2.1056232,3.5271974-3.2216194,7.4293644-4.3471649,11.3315314-.4373585,1.5157941-.8549817,3.024267-.1983074,4.5744386.1648848.3892936.042017.7107871-.0951748,1.045013-.5923756,1.4438559-1.1949372,2.8835738-1.7869945,4.327748-.1610651.392795-.3160822.8798099-.8228323.7916379-1.9668399-.3412287-2.5044661,1.1869794-3.1162587,2.4465336-1.3037993,2.6843115-2.7059566,5.2794961-4.8555066,7.4045362-1.8159608,1.794634-3.6261919,3.5962707-5.4007723,5.4316484-3.2454927,3.3569013-5.0175266,7.3195473-5.1177944,12.0531411-.1295523,6.0985087,1.3400867,11.8627915,3.366769,17.5309445,2.9166781,8.1567036,7.3042684,15.6452738,10.7238769,23.5737489.1139551.2638793.1884397.6140207.7754041.6025616-.3787894-1.220402-.684049-2.4210688-1.1207709-3.5717608-2.2698714-5.9823254-4.5801681-11.9493719-6.8624536-17.9272409-2.0260456-5.3062341-3.9737869-10.6379331-4.3669002-16.3770694-.2782033-4.0603673.3806992-7.8956891,2.8947147-11.2404947,1.6902281-2.2488629,3.8420064-2.9080837,6.4817544-1.9592004,2.0588316.74039,3.7165921,2.0686992,5.1668142,3.6761666,4.878425,5.4074568,7.7906467,11.7618871,9.0457446,18.8990426.6751363,3.8397782,1.0338721,7.7444917,2.4503534,11.425433.5669108,1.4731405,1.2627373,2.8679766,2.4710435,3.9247671.6703617.5863277,1.6548957,1.3432698,2.3262123.8139197.7591703-.5981052-.110772-1.5609941-.5739136-2.1444571-2.2625502-2.8520611-3.0662839-6.204506-3.5711242-9.691278-.6203869-4.2828662-1.4362165-8.5272169-3.0720135-12.5573447-3.0748783-7.5770604-6.893648-14.5225931-15.5227243-17.5086628,2.9332302-2.6454776,5.2817242-5.5828459,6.8264845-9.0603868.5344431.1282791.6433053.5159811.8212408.8145563,6.6183095,11.0864324,13.5361492,21.9942927,19.9265485,33.2160071,3.6592962,6.4257318,7.1167836,12.9612806,9.3147168,20.0691515.3908852,1.2640105.8823564,2.5273845.8199676,4.013894-4.9519547-1.9986709-9.5410355-4.7119486-14.9198444-5.1053803,2.6060071,1.7449775,5.4739837,2.9567852,8.2967602,4.2545366,5.7203559,2.6301987,11.4445316,5.2511664,17.1696622,7.8705426.5863277.2683357,1.1268188.3740147.5427192,1.2837458-2.0362315,3.1725996-3.4234282,6.6660561-4.5569315,10.2394085-.4596402,1.4489489-1.059337,1.5383941-2.3271672,1.0364186-8.2324615-3.2604533-16.2468804-6.976727-24.1279273-11.0167225-5.1798649-2.6550269-8.8725837-6.5320474-11.4677683-11.7007715-3.393507-6.7586844-6.4365543-13.6411916-8.62271-20.8907106-.5471756-1.8146875-1.1179061-3.6316032-2.1829726-5.645553-.0296029.615294-.0671635.8607113-.0477466,1.1016722.0416987.5182093.0862621,1.0389651.176344,1.5504899,1.6014196,9.1078151,4.8987968,17.6067024,9.1577898,25.7783666,2.6352917,5.0566788,6.3728922,8.8789499,11.4553542,11.5514839,6.777783,3.5638031,13.7035804,6.7972,20.6994061,9.8930868.7782689.3447301,1.3961094.6076545,1.3684163,1.7284254-.1448312,5.8973365-.7642632,11.7421518-1.6711295,17.5643671-.1225495.7862267-.4246261,1.122999-1.2866106,1.1822048-2.6486607.1814369-5.2852256.5427192-7.9338864.7232012-6.1838159.4211246-12.3698599.9078212-18.5673631.1795271-1.8258284-.2145412-3.5004593-.7251111-4.4999539-2.408973-.5720038-.9635255-.99472-.781452-1.5769097-.0381972-1.7303353,2.210029-4.0218517,2.3188912-6.5094474,1.6969127-.6531729-.1632932-1.0189115-.3434569-.6894603-1.1366864,2.4194772-5.8183955,3.3884141-11.9993466,4.4248327-18.1545146.5637277-3.3479886,1.0138186-6.7220787.6585842-10.1464619-.1941693.318947-.3272231.6464884-.3908852.9867622-1.5517631,8.2999433-3.7917133,16.418768-6.3948557,24.4436912-.3536428,1.0905314-.6242067,2.2097107-.5685023,3.3718619.0776677,1.6166985.8575282,2.649934,2.3325785,2.8937597,2.4751816.4099838,4.9156673.3924767,6.9700425-1.3419966.5914207-.4991107.9364692-.3857922,1.4231657.0878537,2.0285921,1.9735244,4.522554,2.5993226,7.2921726,2.6177846,5.3313807.0356508,10.597826-.735297,15.8935559-1.1389146,2.9911627-.2279102,5.977869-.5191642,9.2870238-.8097816-7.5178547,14.4595676-17.5869671,26.0400178-32.0936447,34.0156028.5573615-5.317375.929148-10.1942084,1.2566894-15.0751799.3549161-5.2893637.1874848-10.5160202-1.4021573-15.6201273-.2801131-.8992268-.569139-1.8293298-1.5173856-2.3793701-.3912035.726066-.2221806,1.3540924-.1448312,1.9550624.6547645,5.0834169.6181588,10.1817943.4354486,15.2909943-.1263692,3.5402481-.1400566,7.0849526-.1645665,10.6283838-.013369,1.9245046.7041026,4.1978774-.0907185,5.6792939-.8377929,1.5619491-3.3139294,1.9232314-5.1076085,2.7190073-8.4485943,3.7484231-14.311235,10.0185011-18.2149935,18.2932979-2.2288093,4.7246811-3.9260403,9.6282526-5.3014595,14.6556468-.8912691,3.2572702-1.7360648,6.5224981-1.6310224,10.0255039.2699272-.7142885.5605446-1.4215742.8065985-2.1441388,1.7949523-5.2693101,3.6538849-10.5102906,5.7929307-15.6570513ZM188.3459416,126.560255c1.1822048.1871665,2.3644095.3746513,3.546296.5618178-1.3267177.6356658-2.5006464.2982568-3.546296-.5618178ZM150.4771916,71.9697055c-.6398039.6207053-1.4683658.3819725-2.182336.0311944-1.2967965-.6366208-2.2240347-1.6647633-2.8978978-2.9297288-.3590541-.6738631-.7095139-1.3521825-1.170109-2.2313558,1.7873128.1865299,3.4307493.2393694,5.0213463.5557699,1.697231.337409,2.482821,3.3572196,1.2289964,4.5741202ZM128.6547865,43.1346043c-.2832962-2.0897077-1.1653343-4.0931533-1.7058254-6.1548496-.9466551-3.6128229.4736459-6.7357661,3.5911778-8.0373372,3.9636009-1.655214,9.6810921.647125,11.3757766,4.5658442.8320633,1.923868,1.2286781,3.9744235,1.7424311,5.9858268.7871816,3.0809262,2.4885506,5.3380652,5.4571133,6.5829771.3826091.1604284.7470745.3682851,1.1077201.5755052,3.6503835,2.0998936,4.1240294,4.6094527,1.4979687,7.9128779-.6805476.8559366-1.3891065,1.6908648-2.03464,2.5722662-.4590036.6273898-.8454324,1.3130303-.5965137,2.3710941.3103526-.3857922.4940177-.614339.6780011-.8432042-.6363025,1.7704424.7362519,3.4434818.2641976,5.5513331-1.4349432-1.8060931-3.2935576-2.4579928-5.0321689-3.3263435-1.9254595-.9612974-3.0226754-2.667441-3.8034908-4.5884442-1.0933962-2.6916326-1.9350088-5.5035866-4.3296579-7.4615138-.6458518-.5280769-.6986913-1.4884194-.9590692-2.274646-1.0596553-3.1983828-1.937237-6.4652023-3.638606-9.423579,1.5985548,4.4818102,1.7558001,9.4808748,4.8761968,13.4126447.8190126,1.0319623.998858,2.2864235,1.2449119,3.4940931.8638944,4.2383028,3.1659151,7.1584823,7.3860742,8.4613267,1.1446441.3533245,2.232629.8804465,3.1028896,1.7481606.7521674.749621.5818714,1.2153091-.4322655,1.5059264-1.0192299.2915723-1.9760709.0582508-2.9045823-.2715188-2.0234991-.7184265-3.8244993-1.8758031-5.6570122-2.9701542-.5637277-.3364541-.6999645-.8575282-.8320633-1.424439-.9240551-3.9683756-2.2323107-7.7416269-4.4719426-11.2328552-2.0702908-3.2270307-2.330032-7.0655356-2.7167791-10.8040911-.1858933-1.7952706-.4484993-3.5825834-.9043198-5.3609835-.5815531,2.362818-.3526879,4.7170416-.0471099,7.0760399.313854,2.4229787.8842663,4.7937544,1.5727716,7.5019392-1.8665721-1.5581293-3.5017326-2.7132777-3.8311838-5.1438958ZM132.5951508,51.0840878c2.5604887,3.0984333,4.2316183,6.5591038,4.849777,10.4902371-2.2972461-3.1958363-4.3248832-6.5148587-4.849777-10.4902371ZM59.7431344,19.5497145c1.1774301-4.2325732,3.0296783-8.1761206,5.1970537-11.9866142,1.7153747-3.0166275,6.5992109-5.7827448,11.4308443-4.3035564.6455335.1976707,1.2936134.3937499,1.9235497.6343926,2.7578412,1.0545623,2.8170469,1.0800271,1.9194116,3.9059867-.3023949.9517481.1330537,1.2003485.7824069,1.5049715,1.8821693.8836296,3.7722964,1.7522987,5.6360037,2.6734889.7684013.379426,1.8372875.7337054,1.4728222,1.8707101-.3479133,1.086075-1.447039.9008184-2.2873784.7684013-1.5877322-.2498737-3.1541376-.6382123-4.7265909-.9797594-.5080234-.1104537-1.0128636-.2384145-1.5113377-.3845189-2.5235647-.7384801-4.5314667-.1788904-6.0930974,2.0839781-1.2089428,1.7513437-2.6311537,3.3581746-3.9960686,4.9977914-.6900969.8291986-1.4238024,1.6389802-2.4665872,2.0954373-.4408599-.6480799-.0798959-1.1312751.0919917-1.6561689.2976202-.9081395.4898797-1.8484284-.2992118-2.6282889-.8479789-.8384296-1.5921886-.1496059-2.6741256.5646826,1.1554667-2.2087558,1.6844986-2.3201644,3.1732362-1.0809821.2393694.1992623.462505.4220796.7174716.5993785.2559216.1785721.564046.3345442.8425676.0735297.2212257-.2075384.0954931-.4857416.0085944-.7270209-.4278092-1.1917541-1.1853879-2.1377726-2.4108829-2.4767731-1.2232668-.3383639-2.2240347.2622878-3.0347712,1.169154-.6350292.7104688-1.1627878,1.5285265-1.2818359,2.4605393-.2027637,1.590597-1.312712,2.2074825-2.5659,2.8323258-.4106204-.7738125-.0152789-1.4097967.1518341-2.011085ZM111.8553193,104.0604854c-1.2165823-.1104537-2.1906121-.2330032-3.1684616-.2718371-.4567754-.018462-1.1573766.1209579-.8747169.7378435.6098827,1.3292642-.3409104,1.0421482-.9905819,1.0997624-.5659559.0499747-1.1335033.0719381-1.714738.9893087,4.2051985-.004138,8.0892218-.7992774,12.3908684-.9998129-2.1816994,2.936095-4.1093871,5.6757925-7.3555164,7.0486652-1.2003485.5073868-2.4844126.3173555-3.6497469-.2142229-2.1750149-.9924918-4.3127874-2.0661527-6.4728417-3.0914305-.4265359-.2024454-.6719532-.4472261-.5567249-.9590692.3090794-1.3687347.5882376-2.7438355.9078212-4.1100237.0557043-.2387328.2100849-.4876515.3889753-.6595391,3.0290416-2.917633,7.6254436-2.8221399,11.0956634.4303556ZM76.7606443,47.9458658c1.253188.577415,2.2386769,1.5049715,2.991481,2.5932747,2.8256413,4.0842406,6.8045211,6.2929963,11.401878,7.9800414,6.5269545,2.395604,13.2585825,3.4702198,20.0834755,4.2965536,2.7256918.3297696,5.4376963.7734942,8.1557487,1.1656526-3.0023036,1.275788-5.3982258,3.061191-7.324322,5.465071-.6509447.8123281-1.3108022.5678657-2.0842964.3536428-7.4274545-2.0569217-14.5776607-4.928718-21.874608-7.3634742-3.3820479-1.1284103-5.6815221-2.8106807-7.0200173-6.2299709-1.1070835-2.8285061-2.9275006-5.3775357-4.4270608-8.0529345-.013369-.0241916.0375606-.0840339.0977213-.2078567ZM82.9864771,71.9254604c-2.7460637-8.6640904-6.7405407-16.7934193-10.7480685-24.9170187,6.0631762,7.2428345,9.0470178,15.8050656,10.7480685,24.9170187ZM65.270276,41.5599228c.0302395-.2368229.2084933-.2957103.4313106-.3393189,1.1806132-.2298201,3.1824672,1.2197654,3.2327603,2.4162941.0471099,1.1121765.287116,2.2539558-.3008033,3.5074621-.7559872-1.0310073-.7002828-2.1209021-1.0558356-3.0729685-.3631922-.9724382-.4424514-2.237722-1.9910315-2.108488-.2696089.0222817-.3450485-.1811186-.3164005-.4029809ZM61.797828,39.4530263c-1.9270511-2.0989387-3.832457-4.2179309-5.7515504-6.3241907-.3756063-.4118936-.5478122-.8607113-.4208063-1.4190277.2094482-.9205536.605108-1.091168,1.3283092-.4055274,2.2934263,2.1746966,4.6053147,4.3302945,6.9054255,6.4979882.1801637.1696594.3243583.3778344.6754546.7932295-.5544967.4535923-1.0507426.8982719-1.5874139,1.2882021-.5579981.4052091-.8584831-.1136368-1.1494188-.430674ZM85.7933381,90.3323951c-1.276743-7.3446938-4.6212302-13.8872455-7.9679456-20.4135634-4.1125702-8.0188752-8.8948654-15.6541865-13.6049042-23.3286499-.2692906-.4386317-.5245755-.8858578-.786545-1.3292642,1.3248078.6939166,2.1944318,1.8595693,3.1439517,2.9469176,1.8353777,2.1021218,2.5636718,1.9973977,3.542158-.5443108,7.6276718,14.2475729,13.2534895,29.2005216,16.464923,45.0291421-.6299363-.6732265-.6496715-1.5438054-.7916379-2.3602715ZM88.9223292,94.7047065c-.7967309-.314809-.929148-.8374746-.9797594-1.5498533-.3329527-4.6750246-.7254294-9.3459112-1.0176383-14.0234824-.332316-5.3237412-1.2436387-10.5351188-2.7642074-15.6449555-.1123636-.3775161-.3495048-.7623534-.0859438-1.2649655,4.1797337,2.0040822,8.4244027,3.8311838,12.793531,5.3622568,4.3700833,1.5317096,8.821654,2.7642074,13.7271354,3.7181836-1.5568561,1.3353121-2.8619287,2.4974633-4.2122013,3.6051834-4.6858472,3.8442345-5.6831136,7.1626203-2.8090892,12.4048741,2.0257273,3.694947,1.7020056,7.2756205,1.0084073,11.0399591-.1941693,1.0536074-2.4930069,2.0333667-3.6048651,1.4871461-3.9269952-1.9299159-7.9930921-3.5287889-12.0553693-5.1343465ZM98.1348684,102.5736576c.078941-.1511974.3221301-.3227667.4714177-.3078061.2893441.0292846.4319472.3043047.383564.5799615-.1082255.6124292-.2330032,1.2248584-.4029809,1.822327-.3128991,1.0991258-.8371563,2.1836092-.7744492,3.3266618.1126819,2.0546935-1.2617824,2.8928048-2.7307848,3.72264-.2304567.1301889-.5010205.3205386-.6926434.096448-.1356002-.1591552-.0888086-.4742825-.1206396-.7002828.929148-3.0389093,2.4210688-5.77988,3.8665163-8.5399493ZM135.5032345,229.4181182c-.6098827,5.219972-1.2999796,10.4259384-2.3618631,15.5847948-.8769451,4.2612211-3.0860192,7.4414602-7.0960934,9.0521108-5.977869,2.4010152-10.7203755,6.2780357-14.684613,11.2678694-1.6864084,2.1231303-3.6863526,3.9680573-5.8253984,5.645553-4.7708361,3.741102-10.1817943,5.0235745-16.1405647,4.1787787-.1445129-.0203719-.2807498-.0954931-.5462206-.189713,1.5001968-.6573109,3.0108979-.8282436,4.4786271-1.035782,5.5166373-.7785872,9.9739376-3.4473015,13.7080368-7.4567391,2.6623481-2.8584273,5.2982764-5.7416827,7.9332498-8.6249382,1.7325634-1.896175,3.8827501-3.1070277,6.2789907-3.9429108,1.4728222-.513753,2.9259091-1.0838469,4.401596-1.5896421,3.4890001-1.1965287,5.1483522-3.6917639,5.2540312-7.3112713.0241916-.8333366.1063157-1.669538.0623888-2.4990548-.3380456-6.3907176.4287641-12.6983562,1.5966449-18.9483807,1.586459-8.4880648,1.7519804-16.9353858.2864793-25.4664224-1.4355798-8.3543744-2.3106151-16.8233405-5.2521214-24.8457172-2.0944823-5.7120799-4.3933199-11.3493568-6.5209066-17.0496592-2.6050522-6.9805468-4.73996-14.1017867-5.9425366-21.4709905-.2368229-1.4518137-.5334882-2.9383232.0060479-4.4146467.8845846,4.304193,1.6520309,8.6013833,2.8342357,12.812948,2.1715135,7.7339874,5.1241606,15.1884984,8.4135801,22.4876738,4.2099732,9.3424098,6.5692897,19.1600571,8.2967602,29.1830145.7960943,4.6180471,1.4928757,9.2465984,1.8926736,13.9200315.5955587,6.9579467-.2696089,13.834406-1.0730243,20.7130934ZM259.0060727,179.6888049c-.5089783,3.129946-2.8593822,4.7017627-5.6353671,5.6942545-4.3516213,1.5559012-8.4852.1378284-10.5774541-3.7146822,2.298201,1.4537235,4.6113626,2.6789002,7.4325475,2.4614942,1.5457152-.1193664,2.9720641-.5105699,4.2328915-1.4167995,3.5723975-2.566855,3.6023186-7.1559358.0576142-9.7584415-3.1506362-2.3131616-6.7895605-3.1907433-10.5943246-3.171963-12.9854722.0630255-24.5824745,4.3379339-35.0010917,11.9404592-8.6160255,6.2872667-15.734719,14.102105-22.3192876,22.4106427-6.274216,7.9176525-12.3186119,16.0183336-18.6131998,23.919434-8.0293795,10.0789801-17.6499926,18.0867144-30.0857428,22.2444847-.4430881.1483326-.8938156.2753385-1.3458163.3956598-.087217.023555-.1954426-.031831-.3390006-.0592057.4001162-.5357164,1.0160468-.6735448,1.5409406-.9269198,12.9125791-6.2299709,23.2423878-15.4399636,31.5716156-27.0474701,6.0402579-8.4177182,11.9009887-16.9945915,18.8315607-24.7203029,5.141031-5.7305419,10.2333606-11.5409797,16.3859821-16.27521,9.7590781-7.5092603,20.8709754-11.4964162,33.0173814-12.8912523,4.1237111-.4733275,8.2162277-.3195836,12.2880541.3641471,2.1848825.3666936,4.165728,1.312712,5.8931985,2.7196439,2.482821,2.0225442,3.7792992,4.6377823,3.2594984,7.832027ZM34.4820222,253.9509363c1.7694874-2.3067954,3.4552592-4.6810725,6.307002-5.8804661-3.5723975,4.5244638-6.8745494,9.2313195-9.8106444,14.2256095.088172-2.9211344.7142885-5.7369081,1.2544612-8.5641409,1.5431688-8.0796725,6.1608975-13.8423638,13.3317939-17.6821419,1.5597209-.8352465,3.1092559-1.6892732,4.6571993-2.5455282,6.3722556-3.5243326,11.184472-8.4762873,13.7872961-15.3587944,3.7261414-9.8517064,8.281163-19.3017052,13.399594-28.5002387,1.7427494-3.1321742,3.2375349-6.4075881,4.7485543-9.6626301,5.387085-11.6055967,9.353869-23.6924787,12.1413131-36.1734289.1470594-.6592208.3256315-1.3120754.5073868-1.9627018.0401071-.1426031.1575636-.2632427.3997978-.6509447-.1464228,2.9243175-.8256971,5.4832147-1.3241712,8.0685317-2.6722157,13.8608258-8.0580274,26.7517598-14.0514937,39.4322906-3.0449572,6.4429205-6.5584672,12.6665252-9.2106293,19.2886545-1.2159457,3.0357262-2.2062093,6.1755398-3.0955685,9.3252211-2.5031929,8.8674907-7.8928243,15.4737045-15.5972089,20.3247548-3.1716447,1.9967611-6.390081,3.9228572-9.5136608,5.992193-3.8079471,2.5226098-6.0431227,6.2993625-7.9310216,10.3237608ZM14.7420036,229.6781778c-6.3658894,6.537777-10.3705524,14.375852-12.8998467,23.0523565-.3393189,1.1637428-.4876515,2.4172491-1.4619996,3.5908595-.7668097-2.908402-.2240905-5.5421021.3183104-8.1567036,1.2506415-6.030072,4.4840384-11.0396408,8.2757517-15.7337641,5.6079924-6.9420312,12.5926772-12.4039191,19.4232998-18.0402411,16.4630132-13.585169,32.1025574-28.0052661,45.1790663-44.9954012,2.3847814-3.0984333,4.4582553-6.4082247,6.6450476-9.6416216.3361358-.4968825.5688207-1.086075,1.2792894-1.5317096-.4045725,1.4024756-1.054244,2.5130605-1.6781324,3.63033-6.3725739,11.4139738-14.6690158,21.3423931-23.7494562,30.6555183-10.1254534,10.3848763-21.1561815,19.7562524-32.4135466,28.8742534-3.1582757,2.5582606-6.0797284,5.3813554-8.9177838,8.2961236ZM84.6932574,276.5917175c-4.2583563,1.1417794-7.7132973-.2712004-10.848018-2.8103624-2.1976149-1.78031-3.9890658-3.9581897-5.7881561-6.1230186-.9985397-1.20194-2.0168146-2.3873279-3.0061233-3.5965891-2.9787486-3.6401976-6.8942847-5.0490393-11.4840021-4.7899347-3.2715941.18462-6.557194.2734286-9.7549401,1.1268188-1.1611963.3100343-2.2861052.6996462-3.3489436,1.2633739-2.3901927,1.2681486-3.7099075,3.2076138-3.97697,5.9406267-.444043,4.5435625-2.3325785,6.3588866-6.926434,6.8735945-4.3229734.4841501-8.3957547-.2918906-12.2097498-2.3901927-5.9629085-3.2811435-10.4803695-7.9867259-13.7099466-13.9528175-.3402738-.628663-.698373-1.2646472-.7123786-2.0419611.5786883-.0948565.6843673.4109387.8887226.698373,1.2048048,1.6981859,2.3570884,3.4336141,3.5593467,5.1337099,5.1015606,7.2148232,12.1212595,10.6939557,20.9139473,10.6990487.2600596.0003183.5210741-.0152789.7801788-.0397888,4.0788293-.3857922,5.3762624-1.470594,5.400454-5.5421021.0219634-3.6841244,1.9471046-5.7646011,4.8707855-7.3297333,3.8082655-2.038778,8.0086893-2.4252068,12.1989272-2.9765204,6.7609126-.8893592,12.1543638,1.3076191,16.3952131,6.6027123,1.756755,2.1934769,3.6284201,4.2981451,5.507088,6.390081,2.630517,2.9294105,5.7684208,5.0748225,9.6486244,6.0386663.5233023.1298706,1.1408244.1766623,1.6023745.8260155ZM243.9745013,171.3824954c-4.2621761,4.6256865-5.7856096,10.389651-6.6660561,16.3691116-1.2503232,8.4915662-5.7461391,14.6553285-13.057092,18.9617497-4.0329926,2.3755504-8.2365995,4.4706694-12.0512312,7.2119584-4.3322044,3.112439-8.1341036,6.8283944-11.9181775,10.5561273-11.832552,11.6568446-26.1180038,18.9079552-41.9373934,23.4012247-2.7409707.7782689-5.4822598,1.6065125-8.3677434,1.7723522,4.703036-1.4444925,9.4379029-2.7938103,14.10306-4.3516213,14.3806266-4.8013939,26.9411545-12.5045052,37.3422646-23.6234053,5.3753075-5.7461391,11.4929148-10.5526259,18.4075713-14.3392463,1.4578616-.7980041,2.8180018-1.7742621,4.2290718-2.6585283,6.4426022-4.0368123,10.1216337-9.8599825,11.2939708-17.3402766.3861105-2.4649956.8505254-4.9207603,1.5657688-7.319229,1.1627878-3.8996205,3.3782281-6.9802285,7.139702-9.1619278-.0518846.3463217-.0324677.4663247-.0837156.5217107ZM195.5970522,129.1684903c3.8493275-.0722565,6.8700931,1.317805,9.3545056,3.9148994,1.295205,1.3544107,2.5808606,2.7339679,3.7210484,4.2172943,2.8972611,3.7700682,6.7491351,6.1360693,11.1141254,7.7680467,2.0938457.7827252,4.2141112,1.5008335,6.3432894,2.1836092,8.332411,2.6709424,15.5809751,7.1648485,21.8987996,13.1548133,2.3360799,2.215122,4.3828157,4.7129036,4.8975236,8.1366501-.5449474-.8320633-1.1226807-1.6447098-1.6281576-2.5003281-1.0166834-1.7207859-2.2434516-3.2700026-3.76784-4.5553399-6.0930974-5.1381663-12.5866293-9.5518581-20.3963746-11.7647519-3.8983473-1.1048553-7.7110691-2.510514-11.4228865-4.1765506-3.0650107-1.3757375-5.5892121-3.4001915-7.7094775-5.9680014-.7626717-.9237367-1.5247067-1.8497017-2.2453615-2.8062244-2.265415-3.0067599-4.8539151-5.5732965-8.6332143-6.6097152-.4812853-.1320988-.9924918-.3144907-1.52598-.9944016ZM124.1481481,256.1676498c-.6254799,3.120715-.8763085,6.1968666-1.8363326,9.1246855-.3256315.9928101-.6907335,1.9760709-1.419346,2.7521116-1.1567399,1.2318612-2.2711446.9775312-2.7864891-.6175221-.3447301-1.0669764-.3316794-2.1578261-.1340087-3.2448561.3520513-1.9340539.7295674-3.8636515,1.1417794-6.03421-4.331886,3.2483575-5.8113927,11.466495-3.0261768,15.6554597.2011722.3023949.4227162.5949221.6633588.8664409,1.3553656,1.5282082,3.0293599,2.2682798,5.0299407,1.6313407,2.0709274-.6595391,3.4383888-2.2062093,3.4902734-4.3522579.105679-4.3669002.3695584-8.7465328-.0493381-13.1092949-.0856255-.8899958-.0302395-1.969068-1.0736609-2.6718974ZM122.5998863,272.0908086c-.3676485,1.0290975-.9215086,1.9888033-2.1259951,1.9630202-1.1697907-.0251465-1.9706596-.8323817-2.5019196-1.854158-.3488682-.6709983-.1489693-1.0023594.619432-.8393845,1.6214731.3440935,2.9574218-.0910368,4.1023843-1.6927746.2530568,1.0329172.1524707,1.7332001-.0939016,2.423297ZM184.2932138,142.263143c-2.848878,4.1520407-5.3648032,8.5176676-9.4258072,12.0830623-.0827607-1.0431031.2489187-1.5431688.57837-1.9684314,4.0441335-5.2228368,6.7338562-11.1940213,9.5537679-17.0989973.3625555-.7591703.5427192-2.150505,1.7465691-1.7838114,1.0507426.3199019.5026121,1.5683153.4516824,2.3516771-.4376768,6.7516816-1.5699068,13.4171011-2.6378382,20.0892051-.2368229,1.4791884-.5134347,2.9516922-.9253283,4.4127369-1.1013539-6.0679509-.208175-12.0595073.6585842-18.0854412ZM202.9391996,148.5803309c.5366713.2164511,1.220402.2463722,1.6536225.9851706-1.877713.4303556-3.5568003.0652536-5.1200226-.7636266-4.1259392-2.187429-6.1605792-5.9122971-7.1944513-10.255324-.5869644-2.4659506-.9167339-4.9904702-.3300879-7.7954214.9119593,1.7487973,1.3060275,3.4113324,1.7701241,5.0305773.7648999,2.6680777,1.9168651,5.1384846,3.2674561,7.5544604,1.3852868,2.4783647,3.343214,4.1915112,5.9533592,5.2441636ZM149.8698554,141.9655228c.3116259.1451495.7639449.3081245.6792744.7442097-.077986.4017077-.5299868.4338571-.8817198.5261671-1.8436538.4838318-3.5023692-.0875354-5.0735492-.9600241-2.12695-1.1812498-3.8480543-2.8533343-5.2511664-4.8141263-3.116577-4.3557593-4.7409149-9.2898886-5.5586543-14.6546919.703466.4621867.7432548,1.1159962.9355142,1.6864084,1.0294158,3.0548248,2.1307697,6.0797284,3.7277329,8.895502,1.8280565,3.222256,4.3264748,5.682477,7.8629032,7.0034651,1.2133992.4529557,2.3835082,1.0252778,3.559665,1.5730899ZM66.7921179,87.3402774c1.1510104.2100849.9768946.6869138.2415976,1.3092106-.8724888.7381618-1.7074169,1.5215236-2.5423451,2.3026573-.5742319.5376262-1.2445936.9262832-1.9579272.4669613-.8209225-.5287136-.8024605-1.3913347-.4822402-2.2354938.7378435-1.9445581,3.9546882-3.3031069,6.1433905-2.5101957-.4278092.4418148-1.0268693.1301889-1.4024756.6668603ZM137.298505,47.8051726c2.2781474,1.3770107,4.7536473,2.4226603,6.7895605,4.1717759,1.8850341,1.6192449,2.8049511,3.6612061,2.2991559,6.2439765-.2425525-3.0806079-2.5493479-4.3707199-4.6839373-5.8508632-1.7494339-1.2133992-3.2353068-2.7282383-4.4047791-4.5648892Z"/>
  </g>
</svg>