<?xml version="1.0" encoding="UTF-8"?>
<svg id="Layer_2" xmlns="http://www.w3.org/2000/svg" viewBox="0 0 240.4355623 254.3887506">
  <g id="Layer_1-2" data-name="Layer_1">
    <path d="M240.3203755,226.1291325c-.50752-5.9161835-.9087005-11.8386162-1.2074346-17.7667859-.5212478-10.3520149-.8941531-20.7118157-1.4744102-31.0601425-.4024099-7.1733046-1.3719637-14.2726428-3.5409611-21.1697516-1.2871379-4.0928405-2.3751199-8.2221519-2.5388294-12.5710063-.2059175-5.4703363.003893-10.9367795-.08626-16.4041448q-.0340122-2.0651167,2.0147131-2.5771444c.2917677-.0732493.5792326-.166578.8644436-.2628777,1.9186182-.6482815,2.2864012-1.1041685,2.3091443-3.1221598.0799083-7.1243351-.5722662-14.2060525-1.3613092-21.2732225-.3866331-3.4622822-1.062985-6.8923963-1.4467496-10.3548834-.6593457-5.9455856.0686392-11.8565443.6847525-17.7614587.6093518-5.838529,1.2434957-11.6706039,1.1137984-17.5590243-.1854282-8.4148538-2.8254747-15.815897-8.7010894-21.9889139-4.1519521-4.3621724-6.5189787-9.606819-7.2724728-15.5800651-.3312096-2.6259089-.4430812-5.2729218-.9337999-7.8859225-1.350245-7.1927694-9.8945912-10.8714187-15.7525851-7.5701824-2.1665388,1.2209575-4.3043925,2.468756-6.2463686,4.0243038-1.0215966.8181378-1.9906381,1.6999974-2.7781444,2.7588845-.9318534,1.2533306-1.2578382,2.5495863-.4310949,4.0158007.6081225,1.078352,1.1137984,2.2141764,1.6756151,3.3189596,1.1013,2.1655143,1.7433322,4.4140103,1.3926578,6.8807173-.1317462.926936-.1404542,1.871083-.2131912,2.8066246-.0796009,1.0251822.3853013,1.5833108,1.4100738,1.6769469.3000658.0274557.6030002.108286.8985583.0853379.6325047-.0489694.9386149.2503793,1.2089713.8027708.8098397,1.6543062,1.7089102,3.2648678,2.5317606,4.9133346.3915506.7845354.8042051,1.0419834,1.7071686.642647,1.6360708-.7235797,3.3418051-1.2901089,5.1126955-1.9578552-.0313486.486416-.0553211.8511256-.0782691,1.2158352-.1318487,2.0884745-1.3107006,3.7165545-2.463941,5.3102124-1.8584821,2.5679242-3.0564916,5.4096879-3.8960407,8.4370847-1.3261701,4.7822031-2.2584333,9.6543541-3.3197791,14.496386-1.5221502,6.9449513-2.871883,13.9194072-3.2239916,21.0456888-.1108471,2.2432712-.1331805,4.4936112-.4990169,6.7187494-.0820597.4995292-.1755933.9277556-.6526867,1.2774055-5.1482444,3.7734123-11.1792704,5.2302016-17.2474845,6.5390582-2.9645971.6392662-5.9474296-.0134205-8.9132561-.292075-.9970094-.0937386-2.2515694.1547967-2.9135787-.4668487-.7077005-.6644681-.3972876-1.9634898-.5508549-2.9823203-.0050199-.0331927-.0115765-.0662829-.0142401-.0996805-.3147157-3.8113175-.7031928-7.6214056.317994-11.399428,1.2369392-4.5756709-.038315-8.3794073-3.5448541-11.5158072-1.1986242-1.0721027-2.304022-2.2481886-3.458799-3.3696706-.3839695-.3727004-.5011683-.6947922-.1161743-1.1902235.49789-.6407005.5360001-1.4184744.3756713-2.2103859-.2609313-1.2881624-.7655828-2.4961092-1.2024147-3.7259795-.3823304-1.0765079-.7427372-2.1562941-.8063565-3.3079978-.1002951-1.8133032.3750567-3.29888,2.1949165-4.1173252,1.0511012-.4728931,2.0479057-1.0779422,2.2741076-2.3616994.2094007-1.1888917.3612264-2.3619043-.0807278-3.5654459-.3203502-.8722296-.4755567-1.8005998-.0888211-2.750279.2804985-.6886454,1.255482-1.2546624.8821669-1.9720953-.3165597-.60802-1.1639972-.974881-1.8280555-1.3596701-1.4567894-.8441592-2.2179669-1.9596993-2.3549379-3.7470835-.2129863-2.7799885-1.1837694-5.3481176-3.1206231-7.4749071-.5167402-.5673488-.9445568-.8079956-1.7006121-.4013854-.4515842.2429007-.9418932.5843549-1.5911992.2712784-1.9606213-.9449666-4.077576-.9718076-6.199653-.9305216-2.3080174.044974-4.177154,1.0812205-5.8744877,2.5342193-2.5072759,2.1462544-4.3972091,4.7751342-5.9965015,7.6340065-3.576715,6.3933793-5.7854617,13.3228612-7.8540616,20.293629-4.7694997,16.0720133-8.1471611,32.4863003-11.8653547,48.8155568-2.4542086,10.7774752-4.5785394,21.6321951-7.6438414,32.2649134-2.8405344,9.8529979-6.4119221,19.4008077-11.7664938,28.2037289-1.6745906,2.753045-3.5020315,5.4000579-5.5409219,7.8995479-2.63349,3.2284993-4.0672289,7.0608183-5.4591696,10.9129095-1.4145814,3.9147885-2.9047683,7.7874714-5.516847,11.1137047-4.5108222,5.7441758-10.3944277,9.880556-16.4358008,13.7566197-4.4791663,2.8736246-9.2300207,5.323428-13.8544561,7.9712604-.3261897.1866575-.7237846.3110276-.9813351.7587188,1.4560722.1878869,2.6578722-.3556943,3.8511692-.8288947,7.2862006-2.8895038,13.8591687-6.9617525,20.0335173-11.7821681,7.1071241-5.5486054,12.3616056-12.2867172,14.8512607-21.0717103,1.2750493-4.4992458,3.537478-8.5196566,6.4971576-12.1560979,2.1421565-2.6318508,3.9657044-5.4763806,5.5179739-8.5059288,5.3274234-10.3979109,9.3082898-21.2862332,12.0169755-32.6443753,3.7615285-15.7724597,6.851725-31.694901,10.656281-47.459165,2.389155-9.8992013,4.5940088-19.8424546,7.6644331-29.5622721,1.9600066-6.2047753,4.1261356-12.3295398,7.4384361-17.9756743.3765934-.6417249.7095445-1.3249407,1.3710416-1.9455617-.24413.9797984-.4842646,1.8147375-.6573992,2.6633019-.4956362,2.4286994-1.1590798,4.8757367-.4685903,7.3522786.7865843,2.8214793.6316852,5.5470687-.3169695,8.2940694-1.4776884,4.2791907-2.5689487,8.6676918-3.5590942,13.0825217-.9327755,4.1594307-1.2560967,8.4191566-2.0891917,12.5931347-4.0072977,20.0751106-8.2810587,40.0780989-13.9235051,59.7850167-2.368256,8.2716336-5.1363606,16.2520118-9.515744,23.6772323-5.1147444,8.672097-10.578729,17.1120502-16.4741158,25.2663826-5.5709387,7.7056166-12.0632814,14.5539609-19.5533505,20.4451474-4.7608942,3.7446248-9.9735775,6.7842127-15.1297103,9.9185637-2.0835571,1.2666486-4.1876035,2.5054318-6.3338579,4.0648726.8073809.3839695,1.4420371.3362294,2.0558965.1907554,1.2786349-.3031392,2.4686535-.8424176,3.6237379-1.463141,14.1890464-7.6248888,26.1557207-17.84024,35.8999205-30.6766852,7.8271182-10.3109338,14.6725939-21.2544748,20.6540358-32.7074823,6.2291575-11.9269251,13.2433627-23.312113,21.6448985-33.8290667,4.0431539-5.0611649,7.9738216-10.1978329,10.9791924-15.9721279.7575919-1.4557649,1.5793154-2.8813081,1.8892161-4.5252672.8124008-4.3103344.4206454-8.6220007.0069664-12.9310033-.1047003-1.090748-.9690415-1.5337267-1.8543843-1.9172864-.5810766-.2517111-1.2477985-.3019099-1.913291-.7887357.732595.0737615,1.2963581.152338,1.86258.1831744,1.727453.0940459,1.7269408.0867722,1.9705586-1.5452007.0065566-.0439496.0909725-.0764251.1941361-.1574603.1087982.3286484.2174939.6333243.3109252.9427128,1.2670584,4.2007167,2.5253065,8.4012284,4.363914,12.404838.7250139,1.5787007,1.8322558,2.4210159,3.5560208,2.7019242,3.9196034.6386515,7.8693262.810147,11.8241712.9240675.7361806.0213089,1.0187281.2817279,1.2189086.9550064,1.060014,3.5653434,2.3408003,7.055696,3.6922746,10.520232,2.9461567,7.5520493,6.3144955,14.9317836,9.1868907,22.5141571,5.3161543,14.0334302,10.1702748,28.2333359,15.260432,42.3480062,3.5669826,9.8905958,7.7797879,19.5450524,10.7972474,29.6373653,1.084089,3.625582,2.3224624,7.2062924,3.0420466,10.9322719.2954557,1.529219.2572432,1.6086151-1.1694269,2.2554623-1.3825156.6267677-2.8436078,1.00541-4.3318482,1.2596823-1.8498766.3160475-3.5531523.9111593-5.0085074,2.157421-1.221982,1.0464911-2.5484594,1.9721977-3.7557915,3.0341583-5.2719998,4.6372412-11.2841757,7.6826686-18.3067814,8.528467-7.0957526.8548137-13.9645861,2.4843278-20.4925801,5.4868301-3.0257577,1.3916334-6.271468,1.8727222-9.6165514,1.6991778-5.0942551-.264312-10.1233543-1.1000706-15.20214-1.6071808.0321682-.5376393.3314145-.9203794.5341561-1.3322144.9321608-1.8936213,1.0139131-3.7915453.1121789-5.7167201-.2558089-.5460399-.4929726-1.1006853-.7470399-1.6475448-.7212234-1.5522695-1.0436226-3.1641629-.8722296-4.8859814.4765812-4.785174,1.6259285-9.4341966,2.7343998-14.0975617,1.0306119-4.3355363,2.6217086-8.3390434,5.7074999-11.684844,1.7750907-1.9246626,2.3754272-4.3815348,2.4464226-6.9726119.0630046-2.2962361-.2056101-4.5679874-.7164084-6.7871837-1.3062954-5.6763562-1.196985-11.298928.3001683-16.9186312.9140278-3.4305238,1.8403491-6.8606378,2.6269334-10.3214858,1.8526427-8.1502345,3.1072026-16.4003543,3.7700315-24.7316118.463468-5.8236743.6801424-11.6568761-.1481377-17.4740962-.0909725-.6391638-.1139205-1.306193-.4904114-1.8817375-.0715077.5044466-.0839037.9984437-.0696636,1.4916212.2644144,9.18351-.6973534,18.2836285-1.7930188,27.3803663-.9083932,7.5424194-2.6986459,14.8921368-4.5944186,22.2266922-.9146424,3.5385024-1.6737711,7.1138856-2.024343,10.7591373-.3673732,3.8202303.255604,7.5674163,1.0367587,11.2773117,1.0228259,4.8578086.4101958,9.2427241-3.13138,12.99954-1.6897527,1.7923017-2.5748906,4.0412075-3.2412027,6.3941989-1.3440982,4.7461419-2.1316045,9.6139902-3.2284993,14.4138141-.4937922,2.1605969-.9452739,4.3302091-.5969558,6.567231.2570383,1.6513353,1.1257847,3.0717561,1.7570601,4.5822275,1.0912602,2.6113615.4446179,4.8078147-1.90571,6.3916377-.6929482.4669512-1.4203184.894358-2.1694073,1.2637801-1.7120861.844569-3.4403587,1.6575845-5.1747781,2.4556428-4.5111296,2.0757712-9.0656965,4.0005362-14.0359913,4.7547474-5.7972431.8796057-11.6268592.9832816-17.4636466.8353488-3.6371584-.091997-7.1263841-1.0814254-10.7420287-2.1169547.4109129-.2501744.6854696-.434783.9752908-.5913213,4.314125-2.3306581,7.8997528-5.5124418,10.9846221-9.3017333,2.9055879-3.5692364,5.5299601-7.3369117,8.0258644-11.196379,8.6253814-13.3373061,14.6394013-27.8400438,19.1040202-43.0226165,3.1001338-10.5425654,5.5044509-21.2715834,8.456652-31.8545127,1.8269286-6.5494053,3.5482348-13.132618,6.2634771-19.3941487,2.4484716-5.6462369,5.7109831-10.8466266,8.8489197-16.1153481.5564894-.9344146,1.0808107-1.8881916,1.6198842-2.8329533-.6768641.4346805-1.2662389.9191501-1.7443567,1.4959239-2.6618677,3.2121079-4.8863912,6.7270476-6.9339895,10.3470974-4.2401586,7.496216-6.860228,15.6188924-9.0819855,23.8876575-3.1200084,11.6126192-5.9209984,23.3092445-9.2522516,34.8665425-4.9673239,17.2332444-12.2074236,33.392747-22.5407932,48.1089832-3.2006338,4.5580501-6.7458977,8.7796658-11.44348,11.8919908-2.6240649,1.7385173-5.3326481,3.2371048-8.6336796,3.156377-2.601834-.0635168-5.1355411.3876576-7.633187,1.1035538-2.5787835.739254-5.1821542,1.3361074-7.8758827,1.5428444-4.9620991.3806912-9.8324062-.2497646-14.7071184-1.0662633-6.5586255-1.0986364-12.6147509-3.2506277-17.7766207-7.6332894-2.1558843-1.8303093-4.6963529-3.0789274-7.4470417-3.8646921-2.1562941-.6161133-4.3142274-1.2439055-6.4272891-1.9915601-4.8964309-1.7321656-8.0986015-5.1462979-9.5162562-10.1280668-.81404-2.8602041.4751469-4.9520594,3.3202914-5.7921207.1925994-.0567554.3881698-.1032661.5827157-.1528502,3.6841814-.9410736,6.9932036-2.5144471,9.4291767-5.5712461.2501744-.3138961.5464497-.590809.821621-.8847281,1.2336609-1.317667,2.7275359-2.1077345,4.5229109-2.4101566,2.3944823-.403127,4.7943942-.51715,7.2161272-.4351928,4.4559109.1505964,8.9076215.5853794,13.3728551.1950582,8.9476781-.7822815,17.33272-3.3759198,25.1446761-7.8056044,2.9786323-1.6889332,5.8675214-3.5183205,8.4379043-5.8027752,1.028563-.9140278,1.7971167-2.0151228,2.2680633-3.3233648-.4154206.1955704-.7662999.4476912-1.1179988.6985827-2.8925772,2.0645021-5.7710168,4.1452931-8.8445145,5.9457905-10.5024063,6.1522202-21.7687563,9.0725604-33.9675744,8.1677528-3.044198-.2257921-6.0938257-.3276239-9.1508295-.2675903-4.1670118.0817523-7.7804026,1.282323-10.3662549,4.7717535-.2775276.3745444-.6453106.6814742-.9635094,1.0267189-1.3953215,1.5135447-3.0729855,2.5706903-5.0401634,3.1862913-1.2460569.3899114-2.4881184.7980583-3.7120468,1.2516915-3.3977409,1.2592725-4.5139981,3.3500009-3.8029169,6.9268183,1.5249163,7.6713995,8.4423095,11.8770336,13.8656228,13.0283275,3.3597333.7132326,6.484864,1.9020219,9.3297012,3.8179765.9452739.6366026,1.9187207,1.2494376,2.7817301,1.9872574,3.9942869,3.4143373,8.7345894,5.1237597,13.7765968,6.220552,9.0469488,1.9677925,18.0496407,2.7754808,27.1313188.0051223,3.736634-1.1398199,7.6804148-1.4908016,11.5189831-.2878747,4.6326311,1.451667,9.365455,1.9665632,14.1851535,1.9337803,6.6882204-.0456911,13.3540049-.3434007,19.7884653-2.4095419,5.2790686-1.694875,10.2630913-4.0925332,15.1791919-6.6295185.5580261-.2878747,1.0972021-.4245383,1.7228429-.3954435,2.9556842.1374832,5.8703899.6085323,8.7712652,1.1328535,6.6471393,1.2016976,13.0710477.8111715,19.2138428-2.2804593,1.9108323-.9619727,3.9274918-1.7161839,6.0078731-2.2693951,3.895631-1.036144,7.8828491-1.5832084,11.8549052-2.1982972,6.1986285-.9601287,11.9684159-2.9548647,16.9136113-6.9321455,1.9590846-1.5757298,3.8203328-3.2729611,5.7354678-4.9041144.2420811-.2061224.4573212-.5293411.859936-.4161377,1.1715783.3293655,2.3418248.6637509,3.6720927,1.0414712-.3534405.2044832-.5513671.3183013-.7486791.4331438-.5365124.3120521-1.0148351.6542234-.9979314,1.3802618.0164939.7082127.5457326.9625874,1.0532526,1.2108153.4486133.219338.92417.3968778,1.4042343.5366148,1.9484302.5668365,3.9601723.6992999,5.9704801.764251,5.741922.1854282,11.4723699-.0782691,17.1888851-.5986974,3.6712731-.3341805,7.3607817-.6450032,10.933911-1.5967313,3.2584137-.8677219,3.2977531-.5529038,3.0033219-3.9873206ZM232.3785172,160.7684645c1.5885356,3.5171936,2.2960312,7.1867251,2.6502912,10.9754019,1.0125813,10.8282887,1.0865477,21.7030881,1.6364805,32.5542224.270049,5.3253744.5605873,10.650544,1.0879819,15.957683.0717126.7214283-.120682.8552235-.7712173.8125033-4.8395731-.3171744-9.5713725-1.1563138-14.1652788-2.751201-.6460277-.2242554-.6794252-.5911164-.6877234-1.1228137-.0729419-4.6285333-.2371637-9.2525589-.5106958-13.8751503-.3887845-6.5710216-1.3504499-13.0649009-2.4230648-19.5488429-1.8267237-11.0416848-3.9280041-22.0314292-6.3093732-32.9658524-1.2685951-5.8251085-3.0626384-11.523798-4.306339-17.3564876-.4050735-1.8995632-.7185598-3.8186936-1.0723076-5.7292186-.0927141-.5006561-.1441422-.8824742.6232846-.8663901,4.0017655.0841086,7.9585571-.5129497,11.9306131-.8692586,2.1724807-.1949557,4.3430149-.3710613,6.5268671-.3222967.6030002.0135229,1.2100982.0163914,1.8100249-.036471,1.3660218-.1200673,1.3570065-.1350245,1.3977802,1.2952312.0940459,3.2930406-.2669756,6.5664115-.4235139,9.8483878-.1505964,3.1585283-.0362661,6.3015872.3790521,9.4356308.0235627.17713.1163792.3751591-.120682.6430567-2.3669241-5.8622966-4.2057365-11.863818-6.7117831-17.6081987.258575,3.8441004,1.1093932,7.5558398,2.1373415,11.2293668,1.9436152,6.9454635,4.3550011,13.7311105,7.3222618,20.3006978ZM211.3906082,221.4078852c-.6776837-2.1954287,1.1456593-3.1547378,2.2926504-4.4687167.600439-.6880308,1.2516915-1.0353244,2.1535281-.5191989.2494573.1428104.5785154.1518257.8738687.2079664.606176.1151499,1.4025952-.0756055,1.7393368.5261653.4422616.7902724.3607142,1.7528598.4613166,2.6478325.0322707.2882845-.2026392.3941117-.404049.5145888-2.0084638,1.2013902-4.0095515,2.4121031-6.2271086,3.215591-.6370124.230812-.9466057.1890138-.8957923-.5789252.0330902-.4996316.0062492-1.0031562.0062492-1.5453031ZM218.0075258,214.8492596c-.183789-.0737615-.3879649-.1021392-.5855842-.1350245-.8279727-.1377906-1.1574407-.5595628-1.1071394-1.4531013.1664756-2.9579381.8932311-5.8259281,1.3038367-8.7431949.1536698-1.0918749.3161499-2.1854914.0901529-3.2957042-.3625582,1.4187817-.7251164,2.8376659-1.0875721,4.2564476-2.46097-19.3204896-4.7556694-38.6655664-8.8043555-57.7595468.2752738.8730492.5809742,1.7376977.8213137,2.6202744,4.0068879,14.7135726,7.1573229,29.6169785,9.8017747,44.6286704.7350537,4.172339.7698855,8.4088095.7254237,12.6367769-.0228456,2.1790373-.1362539,4.3571525-.1469083,6.5359848-.0039954.829202-.298734.9940385-1.0109422.7084176ZM221.9396277,31.1591853q1.2865233-1.4885478,2.6012193-.063107c1.7548063,1.9020219,3.3110712,3.9585331,4.8019752,6.0713899,2.7801934,3.9400927,3.8274016,8.4369823,4.2818543,13.1274957.603205,6.2264939-.1669878,12.388549-.9052174,18.5507066-.7177402,5.993633-1.4926456,11.9811193-1.114618,18.0452355.2212845,3.5530498.8208014,7.0571302,1.2686976,10.5804706.58415,4.5949308.8736638,9.2134244,1.1342878,13.8329424.1887065,3.3483617.2372661,6.7045094.4218747,10.0532808.0461009.8382173-.2473059,1.1337755-1.0029513,1.1939116-2.1452299.1706759-1.8051075.712413-1.9714806-1.5878184-.6654925-9.2032822-1.6100493-18.3648686-3.8677655-27.3408219-.3327463-1.3233016-.6945873-2.6431199-1.1699391-3.7397074,0,1.530346-.1209893,3.2153861.0200795,4.8782979.7832036,9.2357577.7590262,18.497127.9782617,27.7511202.012396.5257555-.0146499.8761225-.7061638.909725-6.6303381.3231163-13.2338352,1.1430982-19.8859944,1.0617556-1.3749346-.0168012-2.7444395-.0896407-4.1166081-.2132936-.8799131-.0790887-1.3107006-.5260628-1.6510279-1.2309973-1.3047587-2.7017193-2.1214623-5.5700167-2.8285481-8.4663844-.6513549-2.6672973-1.185511-5.3630748-1.7885112-8.0423583-.1628899-.7237846-.0739664-1.1924774.6900797-1.6048246,6.0216009-3.2507302,11.8440458-6.8344115,17.4918194-10.6975669.6668243-.4559894,1.3183841-.3769007,2.0117421-.3004756,1.7104469.1885016,3.2959091.8878014,4.9704997,1.2235187.2237432.044974.4560919.0478425.8681317.088104-.6173427-.5762616-.9232479-1.069644-.9341073-1.8410662-.0103471-.731673-.8669024-.9410736-1.4989973-1.1286532-.6673366-.1980291-1.3647924-.2949435-2.091343-.4447203.0960948-.1405566.1325658-.2534527.2085811-.2962753,2.6062392-1.4662144,4.1652702-3.8356998,5.4747415-6.4005506,3.3041048-6.4716484,6.0457783-13.1638642,7.2538275-20.3657514,1.0601165-6.3204374.7927311-12.5655766-1.8585846-18.5401546-.7949849-1.7914821-1.8776396-3.3970238-3.1778907-4.8633407-2.5402636-2.8647117-5.5185886-3.4257088-8.9616108-1.7425127-1.1854086.5796423-2.1155204,1.5090371-3.2375146,2.1638752,2.2382513-3.8210499,5.2645212-7.0302893,8.0932742-10.3934033.0647462-.0770398.1320536-.1518257.1979267-.2280459ZM213.6042724,41.8519373c.8061516.4134741,1.6796105.0600337,2.5741734.199156-.1516208.5158182-.5290338.8566577-.8138351,1.2443153-1.1693245,1.591609-2.3683584,3.1613968-3.5322532,4.7568988-.4004634.5490108-.6313778.7104665-.9712954-.0696636-.8726394-2.0029317-.9140278-2.0040586.5452203-3.6845912.7183549-.8271531,1.2527159-1.8226258,2.1979899-2.4461153ZM219.7716547,27.4428358c.2522233-.1255994.5595628-.4392906.8173183-.2026392.3268044.3002707-.0477401.6101714-.1831744.8832938-.5679634,1.1439177-1.2821181,2.2021902-2.0917528,3.1823984-2.5806276,3.1240039-4.9730609,6.3932769-7.4679407,9.5831538-.2639022.3373564-.5700124.6416225-.9808229,1.0997633-.5142815-1.8546916-.6369099-3.5716951-.5652998-5.3054998.00963-.2333731.2391102-.4685903.3938044-.6836256,2.6515206-3.6851034,6.0155566-6.5347555,10.077868-8.5568447ZM194.3825412,10.3306831c.7732663-1.5185646,1.8499791-2.5498936,3.0557745-3.4597211,2.4379196-1.8397344,5.2483347-2.940727,8.0596718-4.0406952,3.3258235-1.3012756,7.0948306-.456809,9.5351064,2.1615189,1.3822083,1.4831181,1.9761932,3.3128128,2.2859914,5.2652383.3688074,2.3236917.2827524,4.6843666.5762616,7.0136929.1002951.7955996.224153,1.5881258.3453472,2.4390465-1.1840768.07663-2.3822911.1366636-3.5768174.2405444-.4805766.0416957-.6261531-.2427982-.8000048-.5885552-.6218503-1.2368367-.9496791-2.5739685-1.3601823-3.8832349-.9187403-2.93038-2.007132-3.4319581-4.8688728-2.2976703-1.4979729.59378-2.2884501,1.6844255-2.4201963,3.3356583-.7892479-.2794741-1.1469911-.9662755-1.7019439-1.4078199-2.0449348-1.6272604-2.7698463-3.759582-2.4209135-6.2991285.1079786-.7850476-.1137156-.9465033-.8511256-.6144742-1.4942848.6729711-2.9688998,1.4052588-4.5708559,1.8097176-.3825353.0965046-.7649681.1936239-1.2872404.3258823ZM208.9793247,29.6673593c-1.4561747.9164865-3.1250283,1.353011-4.7428636,1.8956702-.4274068.1432202-.6669268.0067615-.9197648-.3450398-.9474253-1.3181792-1.6006243-2.7797836-2.2105908-4.2713023-.183789-.4494328.0357538-.665595.2917677-.9518305.429046-.4794497.2962753-.808303-.348523-.8304314-.6349635-.0219236-1.2856012-.0477401-1.9054026.0626973-.7522647.134-.8209039-.176208-.7913993-.802566.0915872-1.9389026.2784496-3.8897915-.1829695-5.8072828-.478835-1.9900234-1.2912358-3.8720683-1.9800861-5.7928379-.2268166-.6326072-.1392248-.9038856.5446056-1.0161669.523809-.08626,1.0470033-.2486377,1.5361854-.4575261.7821791-.3339756,1.2124544.0051223,1.2607067.723887.1430153,2.1305801,1.5516548,3.4776492,2.8612286,4.914359.7206087.7906822,1.3712465,1.6465203,2.0328461,2.4892453.426075.5425567,2.2231917.8152693,2.7072515.3706515.2672829-.2454618.1293899-.5753396.0867722-.8555308-.1272386-.8341195-.1983364-1.659531.0008196-2.4940603.2659511-1.1147205.9143351-1.7975265,1.9442299-1.8782543,1.0138107-.0794985,1.4604774.6806546,1.8447543,1.4390661.5335414,1.0532526.7429421,2.2179669,1.0727174,3.3400635.4276117,1.45556,1.1110324,2.4521596,2.7742515,2.9344778,1.68545.4888747,2.9273066,1.9567283,4.3396341,3.0254503.4388808.3321316-.0989633.4888747-.3003732.6040246-1.1351073.649306-2.2448079,1.3332389-3.2995972,2.1097834-1.0270263.7560552-2.0479057,1.5137496-2.9112225,2.4626092-.3441178.3781301-.7510354.6639558-1.2710538.7600507-.2274313.0421055-.404049-.0156743-.4933824-.2280459-.1016269-.241364.067-.3461668.2469985-.466439.4592677-.3073395,1.1030416-.2427982,1.6182451-.8318657-1.3477863-.3502646-2.5036902-.9224284-3.8057854-.1028563ZM207.6407586,43.2827053c.1253945-1.0584773.4828304-2.0540525,1.0211868-3.0039365.1309266.8222357.2755811,1.6426273.3845842,2.4677315.0338073.2561163.0463058.5642754-.0645413.7803351-.2530429.4935873-.6003365,1.2013902-1.1449422,1.0755859-.5981852-.1380979-.2513013-.8561455-.1962875-1.3197159ZM207.1545475,41.4265794c-.8571699,2.3053538-.428124,4.9924233-2.1554746,6.9113489.1712906-1.8386075,1.249745-5.3889937,2.1554746-6.9113489ZM208.1429514,48.1646912c.4925628.381101.6305583.9205843.8953825,1.37893.1768227.3059053.1154572.5394833-.1274435.8010293-1.5270677,1.6439591-3.0381537,3.3025681-4.5544645,4.9564646.8032831-2.6364609,2.1027146-4.9813591,3.7865254-7.1364238ZM197.9444014,87.3285574c.3164573-4.8131419.589887-9.6266936,1.6065662-14.3673034.5890674-2.7459762.8757128-5.5610014,1.9685097-8.1833247,1.3978826-3.3540987,3.5582746-6.2102049,5.9179251-8.9236032,1.3759591-1.5823888,2.8251674-3.1010558,4.3436295-4.7602795.2254848.8487693-.0116789,1.463141-.1548991,2.0460617-.9591042,3.9048511-1.1635875,7.8787512-1.1752664,11.8735504-.0119862,4.0563695-.0299144,8.1128415-.0120887,12.1691086.0032783.7491913-.2158548,1.3579285-.6603702,1.941054-.8591164,1.1269116-1.8655509,2.1052758-2.9299702,3.0300604-2.4871964,2.1604944-5.2022337,4.0026876-8.0074241,5.7172323-.2186209.1335902-.4415445.4089665-.710569.2716881-.3249603-.1657585-.2047906-.528624-.1860429-.8142449ZM190.6685479,95.1108041c.6531989-.4206454,1.1427908-.0542966,1.525531.4853916.8817571,1.2432908,1.2684927,2.7275359,1.9628751,4.0634383.3958533.7618947.682806,1.5854622,1.428719,2.302178.1198624-1.0005951.1094129-1.8008047-.676147-2.436178-.2788594-.2254848-1.04854-.5430689-.0199771-.8966118.4684879-.1609435.1829695-.5874283.096812-.8722296-.3823304-1.2629606-1.0567357-2.3884379-1.7701732-3.4823617-.3454496-.5296485-.2759909-.7816669.2910505-1.0607312,5.6593501-2.7857255,10.8069798-6.3338579,15.5089673-10.52894.4249481-.3791545.7024757-.1729297,1.0580675.004815,2.5769395,1.2877526,5.1516252,2.5818569,7.8424852,3.6212792.356309.1375857.7165109.4056882,1.1570309.1927019-.0990658-.640598-.5185842-1.0816302-.940459-1.5066808-1.5735784-1.5850524-3.3365804-2.8953432-5.4233133-3.7467762-.3417616-.1394297-.9204819-.2389053-.8726394-.6746103.0499939-.4545552.6240017-.4784252,1.0066394-.465312,1.1898138.0405688,2.1538354-.3618411,2.8832546-1.3034269.2797814-.3613288.5707295-.1931117.8910797-.0715077,1.1432006.4340659,2.299207.8276653,3.5462884.9348244-1.6348414-1.1781349-3.2266553-2.4005266-4.8789126-3.5233403-2.0229088-1.3748322-2.9026169-3.0243234-2.8764931-5.5819005.0487645-4.7910135-.3217845-9.5865346.0768349-14.3802116.2003854-2.4117957.603205-4.7869156,1.2852939-7.1110171.4105032-1.3985997,1.4208306-2.4107713,2.2935724-3.5099199.7705002-.9704758,1.7236625-1.894236,1.8178109-3.1785054.0655658-.893436.5128472-1.2683902,1.1588749-1.6836059.9774421-.6280995,1.9378782-.3576408,2.8963677-.0609557,1.9465861.6025904,3.371822,1.8929042,4.4730195,3.5608358,1.9706611,2.9852913,2.8404319,6.3436927,3.1867011,9.8473634.7171256,7.2521884-.9696562,14.1187681-3.4767272,20.836698-1.5595432,4.1788956-3.353484,8.2388507-5.6577109,12.0853074-1.2235187,2.0423736-2.6731368,2.6945481-4.9535961,2.1342681-1.6512328-.4056882-3.2609748-.9503963-5.0942551-1.4373245,1.5090371,2.0108201,3.5623725,2.5456933,5.6541253,2.9830375.0008196.2822401-.215445.343708-.3763885.4373441-6.8652479,3.9943894-13.7916564,7.8788537-20.86149,11.5014647-1.6180402.829202-1.6307435.7949849-2.4812545-.7611776-.8841134-1.6180402-1.7010218-3.2649703-2.3872086-4.9807444-.3486255-.8716149.0958899-1.3444055.7053442-1.7368781ZM186.1053755,98.0155724c.3670658-.1479328.775725-.192497.8821669-.2178013.8468228-.0468181,1.239193.2138059,1.5520646.6591408.9027586,1.2848841,1.3018902,2.7783493,1.7844133,4.2382121.0989633.2995536-.0484572.5116179-.2434129.7146668-1.5258383,1.5905845-3.2944748,2.8321337-5.301402,3.746264-.3808961.1735444-.5915261.0930214-.8549161-.1992585-.6551454-.7270629-1.222904-1.5167206-1.6695708-2.3787055-.3204527-.6187769-.6720491-.7751103-1.3549575-.5474741-.4157279.1387126-1.0499743.5509573-1.3619239.0215138-.2736346-.4646974.2192355-.9541868.5556699-1.3002511,1.7919943-1.844447,3.5500789-3.7446248,6.0118685-4.736307ZM180.4464352,99.6784841c.1857355-.5046515.5073151-.9007097,1.0266165-1.0283581.2967875.0646437.7056516.045896.5874283.4063029-.1893211.5781057-.7570797.7861745-1.2967679.9515232-.2612386.0801132-.396468-.1145352-.3172768-.329468ZM188.9626086,95.122483c-.3662463.8345293-1.035222,1.1201501-1.7048124,1.2516915-2.6537744.521965-5.3302919.9351317-7.8855127,1.8715953-.0848257.0310413-.1955704-.008708-.3028319-.0160841.8916944-1.0355293,7.6476319-3.1774809,9.893157-3.1072026ZM177.9665125,104.5780909c-1.2477985.8683366-2.3220526.7032953-3.3446736-.3153304-.4368319-.4349879-.9976241-.7456057-1.5896625-1.1764957,1.0715905-.619494,2.06358-1.1929896,3.1880329-1.8431151-.2005903.5572066-.8266409.7780812-.6482815,1.2715661.1659633.4592677.6688733.6219528,1.079274.8446715.5367173.291153.9871746.6781959,1.3153107,1.2187037ZM161.4281627,71.0725502c2.3630312,2.505022,3.446403,5.441139,2.9047683,8.8378555-.766095,4.8041266-.5698075,9.6275132-.5320047,14.4526413.0103471,1.3213551.004815,1.2647022-1.2903138,1.1456593-1.5023781-.1382003-2.4181474-.8470277-2.9589625-2.2802544-1.1815156-3.13138-1.7120861-6.3970674-2.2145862-9.6759704-.6337341-4.1356631-1.032251-8.3158905-2.3597529-12.3195001-.3921652-1.1824376-.8730492-2.3234868-1.564768-3.359221-.2903334-.4345781-.3808961-.7447861.1389175-1.0500767.6386515-.3749542.9675048-.9972143,1.2117373-1.719872.8949727.4927677,1.6327925,1.114618,2.3644654,1.7387222,1.5332145,1.3078321,2.9182913,2.7646215,4.3004996,4.2300164ZM157.0786937,62.5596551c-.4743273.212679-.5968534-.3972876-.7644559-.7130277-.5991072-1.1289605-.9455813-2.3534012-1.2549697-3.5869596-.6183671-2.4655801-1.3131594-4.906778-2.2700098-7.2666333-.0581896-.14363-.0713028-.3054955-.134-.5874283,1.2221869.3430934,2.333629.6644681,3.4510131.9636119.4004634.1073639.4411347.3072371.3039588.6636485-1.2608092,3.276854-.6736882,6.4406071.5897846,9.5661477.1240627.3069297.5257555.7601531.0786789.9606409ZM153.079182,29.8331177c.4104007-.1682172.7115935.0637217,1.0033611.2921774.8236699.6447983,1.3092664,1.5275799,1.6170157,2.4941627.3345903,1.0506914.6355781,2.1179791.8582969,3.1971507.3653243,1.770583,1.1666608,3.2029901,2.5949701,4.3830715,2.1110128,1.7442543,2.0420663,2.0222941-.2296851,3.537478-.1087982.0725321-.2090933.1576652-.3463716.2620582.2453594.4561943.722965.2993487,1.0561211.4556821.3479083.1632997.7173305.3309022.671332.7667097-.0476376.4514818-.368705.6468473-.8399589.6995048-.3773105.042208-1.0050003-.3142034-1.0851134.304471-.0643364.4964558.5685781.5623289.9416883.7534941.2083762.1066468.4210552.2054053.6347586.3008854.5028075.2244603.8087127.571754.7888381,1.1592847-.0203869.601361-.3042661,1.0219039-.842725,1.257326-1.1572358.5058809-2.3731734.3922677-3.5663679.2342952-1.2592725-.1667829-2.5787835-.2573456-3.7358144-.7208136-1.4031074-.5620215-.5733931-2.2124348-1.1699391-3.234851-.5167402-.8853427-.231734-1.5816717.4421591-2.302178,1.7279653-1.8475203,2.3541183-4.0964261,2.1087589-6.5859787-.1394297-1.4140692.0168012-2.8086735.1220138-4.2109613.0232554-.3097982.1457814-.739254-.259497-.8885186-.3632753-.134-.610991.2045857-.8566577.418494-.856043.7454008-1.3496303,1.5126227-.8554284,2.7812178.7891455,2.0250601.4417493,4.0167227-.6724589,5.8771513-.3938044.6571944-.7611776,1.3302679-1.2004682,2.100973-.3731102-.4239237-.6790155-.7959069-1.0115568-1.142381-.3511866-.3659389-.7669146-.7980583-1.2924652-.5768763-.5702173.2400322-.4114252.84754-.3432983,1.330985.3211698,2.2818935,1.1944239,4.3825592,2.1632605,6.4480857,1.1645095,2.4828936,2.5258187,4.8845471,3.201351,7.570797.6178549,2.4566673.7910919,4.9524692.5577188,7.4767511-.077552.8389345-.4765812,1.3969606-1.2426762,1.7958873-1.8535647.965251-3.6724,1.9972971-5.7052461,3.1121201.3450398-1.053355.5551576-1.930502.9112617-2.7438249,2.2212452-5.0728438,1.7693537-10.0957961-.7246042-14.83825-3.137117-5.9652553-1.8473155-11.6151803.622465-17.2739157,1.0767128-2.4671168,3.3586064-3.5387073,5.6849617-4.4916648ZM146.9765459,30.4748427c.1060321.7501133-.089948,1.2430859-.2599068,1.7215111-.3924726,1.1039636-.7587188,2.2249333-1.2557893,3.2824886-1.6181426,3.4423052-2.2462422,7.089196-2.1876428,10.8452948.0874893,5.6202155-.5273946,11.1801924-1.1697342,16.7454966-.1023441.8859574-.3711637.9320583-1.0164743.5225796-.1689343-.1072615-.350572-.2006927-.5370246-.2734297-.7590262-.2960704-1.4701074-.5767738-.5642754-1.5198964.21063-.2191331.3827402-.6544283.0481499-.9063443-.358153-.2697417-.5993121.1348196-.8449788.33039-.5372295.4274068-.8785813,1.0043856-1.173115,1.6133276-.3197356.6609849-.5713442,1.3588505-1.2038489,2.171866-.022026-1.75245.2454618-3.2371048.7312632-4.6469737,1.6981533-4.9285991,2.6962897-10.0196784,3.6483251-15.1243831.1114618-.5976729.2325536-1.1945263.5242188-1.7249943,1.6087175-2.9250527,2.6399441-6.065448,3.5582746-9.2576813.3628655-1.2609116.7391516-2.5482545,1.7025585-3.7792517ZM137.8080956,69.2852684c-.1315413.0946606-.243208.2454618-.4282264.1606361-.1880918-.0863624-.1504939-.2779374-.1491621-.4337585.0098349-1.1025293.4278166-2.0520036,1.1500645-3.0022974.7378198,1.715057.5959313,2.4325924-.572676,3.2754198ZM144.0024213,33.5368664c-.3748518,3.029958-1.7938384,5.6821956-3.0717561,8.3855541-.1499817-3.2198938.5519818-6.131526,3.0717561-8.3855541ZM139.861431,34.0724567c.5549527-2.1137788,1.9365464-3.6282456,3.6342899-4.8956113.1722126-.1284679.4321194-.1708808.656887-.1917799,1.0016195-.0934312,1.3336487.2294802,1.3143887,1.2437006.0284801.9898382-.5142815,1.6362756-1.308959,2.1013828-1.2360171.7234772-2.601834,1.247696-3.5451615,2.4097468-.1292875.1592019-.372598.3442203-.6187769.1669878-.3042661-.219338-.2038686-.5631485-.1326682-.8344268ZM138.8692365,37.5561503c.227841-.314101.428124-.6745078.9602311-.9048076.0511208,2.0907284-.3142034,4.034446-.4805766,5.9923012-.0792936.9327755-.2022294,1.8619653-.3184038,2.7910527-.0370856.2960704-.0772447.6017708-.1838915.8765323-.1750811.4509695-.2879771,1.1349024-.83791,1.1037587-.5209405-.029607-.4883625-.7257311-.5914237-1.1555966-.7430445-3.1012607-.475864-6.046393,1.4519744-8.7032407ZM137.8937409,49.8426626c.5626362.8592189.6271775,1.2337633.4508671,2.2724685-.2075566,1.2230064-.4943044,2.430441-.9200721,3.5955651-1.3174621,3.6055024-2.3177498,7.2798489-2.1831351,11.1567322.0801132,2.3018706-1.3324193,3.5488495-3.2199962,4.8843422,1.1092908-7.6642283,4.3544889-14.4463921,5.8723364-21.909108ZM131.8973418,77.0718178c.8578871-1.318589,1.6092298-2.7058172,2.0374562-4.2328849.1621728-.5786179.2871576-.4896943.6838304-.1553089.4500475.379257,1.0995584.4226943,1.32156-.2268166.2629802-.7697831.6536087-.500861,1.0632923-.2871576.5026026.2621606.9777495.5770812,1.4971533.8887235,0-.1136132.0301193-.2162646-.0043028-.2876698-1.104988-2.2870159-.9594116-2.5681291,1.6271579-3.0487057.4566041-.0848257.3767983-.438676.3492402-.7003243-.0803181-.7637387-.192497-1.5263505-.3405322-2.2799471-.0958899-.4879527-.047945-.9414834.1878869-1.3583383.1489572-.26339.1764129-.7645583.6097616-.6594482.3891943.0944557.7080078.4324267.6835231.8904651-.0428226.8003121-.0917921,1.6051319-.2182111,2.3954043-.3486255,2.1798568-.8334024,4.332258-1.3843597,6.4707264-.1379954.5355904-.378335.8260262-.9530599.9746761-2.7306093.7060613-4.780359,2.1747345-5.3946283,5.2110441-.7703977-.5253457-1.3496303-1.1046807-1.785028-1.8262115-.3561041-.5900919-.391653-1.1367465.0192599-1.7682267ZM135.8765691,116.0357085c-.0165963.5374344-.2122692.9561333-.4979925,1.382823-2.6354365,3.9355851-5.7873058,7.4744973-8.6248692,11.2539539-3.6880743,4.9120028-6.8740583,10.156342-10.1112656,15.3661568-.2088884.3362294-.4359099.6611898-.6544283.9912724,5.8106636-21.3424764,10.6555639-42.8806256,14.6745404-64.8976098.9571577,1.0585798,1.7920968,1.8106396,2.7843937,2.3562697.2440276.1342049.2641071.3614313.2747615.6021806.1333854,3.0197133,1.934395,4.8217474,4.4879767,6.0136101.6400858.2986316.7773641.5892723.6771714,1.2787373-.693358,4.774622-1.4164254,9.5478098-1.9560112,14.341077-.4235139,3.761426-.9368733,7.5203934-1.054277,11.3115289ZM144.0234228,90.8775094c.6276898.7710124.2064297,2.0655265.2658487,3.1286139.1106422,1.9748614.181945,3.9459322.0369832,5.9282722-.1641193,2.2448079-.7577968,4.345576-1.7586992,6.3453319-1.4867037,2.9703341-3.4743709,5.6366069-5.0993774,8.5232422-.0904603-.018133-.1809205-.0363685-.2713808-.054604.1640169-1.7864622.2857233-3.5780468.4998365-5.3584647.7601531-6.3181836,1.5616946-12.6315521,2.3169303-18.9502479.0820597-.6861867.2065322-.9976241.9697587-.7053442,1.0254896.3927799,2.3916138.3465765,3.0401002,1.1432006ZM143.5048386,86.9250206c-1.5806472-.0504037-3.1460299.1609435-4.7166373.2740444-.7262433.0522477-1.1876624-.413679-1.6665998-.809225-.8839085-.7301363-1.2780202-1.7399515-1.5902772-2.9335558.7093396.3134863,1.275459.5755445,1.8516182.8132204.283367.116789.6009512.2018196.8022586-.1394297.2225138-.3774129-.0390321-.6250262-.2789618-.867517-.2771178-.2800888-.7363855-.3360246-.921199-.7283947.2853135-.4068151,1.6188597.5170475,1.126092-.9415859.4759665.1124863.8613702.4258701,1.2645997.6973534,1.221982.8226455,2.3777835,1.7426151,3.6837716,2.4422223.7638412.4090689.662624,1.2557893.8636241,1.9348048.0831866.2812157-.230812.2641071-.4182891.2580628ZM139.4203987,79.1291486c1.5045294-.317994,2.1956336-1.6477497,3.4092149-2.3861841.4738151,1.798346.9353366,3.5501813,1.3967557,5.3020166-1.5248138-1.1856135-3.3417027-1.7860524-4.8059706-2.9158325ZM143.3306795,73.362742c-.3814084,2.3227697-1.9613384,3.6912502-4.1057488,4.3667825-1.3998291.4411347-2.7395221.8914895-3.7156324,2.0796641.313179-.9141302.9035782-1.5492986,1.7807252-1.903661.2170842-.0876942.433861-.2077615.6602678-.235627,2.3734807-.2912554,3.315169-1.9110372,3.8829276-3.9968481,1.041881-3.8276065,1.5823888-7.7363506,2.0108201-11.6636375.3847891-3.5259015.6949971-7.0599987,1.0398321-10.607414.3556943.061263.3232187.3786423.4132692.5935751,2.1329363,5.0930258,1.9830571,10.1699674-.1084909,15.23564-.8184452,1.9821351-1.5070906,3.9950041-1.8579699,6.131526ZM165.9877495,102.0040199c-3.9203206-.2262019-7.8224057-.583228-11.7132216-1.0996608-1.3528062-.1795887-2.2474715-.8341195-2.7564258-2.1452299-2.6581796-6.8485491-4.741122-13.8765846-6.5918182-20.9761277-.7053442-2.7061245.0365734-5.0349386,2.129658-6.9110415,1.2092786-1.0838841,2.6204793-1.8493644,4.0437686-2.6076734.6464375-.3443227.9509085-.1969022,1.2023122.4399053.7540063,1.9112421,1.1633826,3.9132518,1.6028781,5.9076804,1.2686976,5.7562645,2.1423614,11.5934617,3.5740514,17.317353.406098,1.6235723,1.2644973,3.0168448,1.9801886,4.4885914.2013074.4137815.5237066.4548625.9011195.4869283,3.7411416.3180964,7.4818735.6390613,11.2221955.9653535,1.5271701.1331805,3.052906.281523,4.6650042.43089-.3165597.8237724-.7126179,1.3844621-1.4514621,1.7858475-2.7590894,1.4992022-5.6672384,2.0983094-8.8082484,1.917184ZM206.1973897,205.151878c-2.2453201-7.1674651-5.2853179-14.0392696-7.7856274-21.1106399-6.8885033-19.4827649-13.8907222-38.9230145-21.5301584-58.1277396-2.2036244-5.5393852-4.757411-10.935038-6.7823687-16.5464431-.461624-1.279352-.9142326-2.5677193-1.2055905-4.0083221,1.346352.344835,2.5666948.7839207,3.8509643.9934238,1.7264286.2816255,3.4126981.1677049,5.071512-.3293655.5263702-.1576652.9320583-.1987462,1.3649973.219338.4106056.3965704.9451715.6436714,1.497768.7954971.7644559.2102202,1.409664.5540307,1.9102176,1.2034391.4714588.6116057,1.0957679.7786959,1.8805081.5274971,2.3238966-.7438641,4.2011265-2.1964532,6.0429098-3.7105101.9177158-.7543136.9198672-.7760323,1.4436762.3373564.4065077.8640339.9598213,1.370427,1.9782421.9989559.7800277-.284494.9186378.2749664,1.0283581.817728.5442983,2.691782,1.0621654,5.3889937,1.6176304,8.0785219.5290338,2.5614701,1.1466838,5.1015288,2.2367146,7.4948842.6592433,1.4475692,1.4615019,2.8015022,2.8530328,3.682952.5599726.3546698.4469741.9431226.5183793,1.4414224.6126301,4.2800103,1.2322266,8.5594058,1.7805203,12.8478167,1.0597067,8.2903813,2.8828448,16.4261708,4.8160104,24.545364,2.0833522,8.7494441,3.4786737,17.6158822,4.3443467,26.5688875.5426592,5.6120198.8755079,11.2336695.9835889,16.8699691.0099373.5173549-.0624924.9707831-.3625582,1.4194988-.6201087.9276531-.6305583,1.9705586-.3471912,3.0036292.1683196.6134497.0571652,1.0781471-.3387906,1.5692756-.8575797,1.0640094-1.6629117,2.1702269-2.6337973,3.4489642-1.4663169-4.5037534-2.8931919-8.7539518-4.2332947-13.0314009ZM238.6347206,224.7488707c-.0874893.2735322-.3401224.2913579-.5597677.3566163-9.2265375,2.7448493-18.4585047,5.4564035-28.264787,4.7737-2.2874257-.1592019-4.5877596-.2128838-6.8026531-.9541868,2.9262821-.6861867,5.8574816-1.2021073,8.6858248-2.1577284,3.1119152-1.0514085,5.9715046-2.5468202,8.452759-4.7170471.3780276-.3304924.7192769-.5392784,1.2493352-.3897065,5.2099172,1.4699025,10.5515807,1.2231089,15.8757258,1.1935018.8349391-.0047125,1.6229576,1.0843963,1.363563,1.8948506ZM164.0593989,143.4406619c4.1525668,29.4238668,8.7061093,58.7818605,13.2318887,88.1440545-4.2446662-8.2836198-14.5468921-77.2807292-13.2318887-88.1440545ZM180.4077104,155.0741802c-1.3421517-5.8753073-2.3498156-11.8272446-3.5050024-17.7451697-.044052-.2258946-.0436422-.4604971-.0639266-.6908993.0863624-.0274557.1727248-.0548089.2590872-.0821621,7.9937987,28.0814078,14.0048476,56.6375526,20.208496,85.2847725-.633939-1.1638948-.9816425-2.3107835-1.333034-3.4524474-2.3756321-7.7191396-4.2762197-15.5653128-6.1596988-23.4128179-3.1891598-13.2875171-6.3627478-26.5797468-9.4059214-39.9012762ZM68.3540748,223.0040018c-.5177647.0786789-1.0244651.1325658-1.6100493-.1097202,10.8732627-3.8590576,20.4962682-9.4507929,27.257328-19.1342419-.0295046.8703855-.4745322,1.5319851-.8730492,2.1978874-2.9268968,4.8918208-7.1182908,8.5190419-11.803477,11.6128241-3.9712365,2.6223233-8.1916229,4.707622-12.9707525,5.4332506ZM219.3455796,99.0134014c.0683318.5081347-.2684099.6133473-.6416225.7232724-1.7171059.5052662-3.4602333.7886332-5.2491542.5417371-.8882112-.122526-1.7075784-.4339634-2.0866305-1.3488107-.1892187-.4565016-.2531453-.8432372.5204283-.7435568,1.0602189.1367661,2.1345755.1643242,3.2028877.2388028.0002049.0270459.0006147.0540918.000922.0812401,1.1376685,0,2.2755419-.0149572,3.4125957.0090153.3429909.0071713.7683488-.0379052.8405736.4982998Z"/>
  </g>
</svg>