<?xml version="1.0" encoding="UTF-8"?>
<svg id="Layer_2" xmlns="http://www.w3.org/2000/svg" viewBox="0 0 213.9577718 301.871452">
  <g id="Layer_1-2" data-name="Layer_1">
    <path d="M213.9030631,287.3934989c-.4416137-2.2277492-1.3509482-4.1962336-3.3690363-5.452995-.8352302-.5201362-1.6710629-1.062363-2.5665406-1.4583895-2.9264185-1.2947173-5.0808667-3.4678421-6.9529552-5.9697171-2.3703348-3.1672074-3.1286491-6.6848541-2.1335623-10.5304476,1.1878785-4.5906534,1.7325153-9.228099,1.198723-13.9653545-.7370269-6.5426702-2.031945-12.974485-3.8058302-19.3121131-1.4897181-5.3218564-2.8470928-10.6762464-3.061172-16.2294529-.2638837-6.8416982.3395947-13.667933.5072834-20.5024015.1333476-5.4216663.7719704-10.8332914.4442244-16.262589-.4998529-8.2804069-.2867778-16.5696501-.4345848-24.8538726-.042374-2.3783677.6217535-4.4552975,1.937959-6.3826128.4815778-.7050958.9270071-1.4352946,1.375248-2.1624811.854911-1.3862934,1.4288682-2.8764132,1.6638332-4.4954625.4867992-3.3549786.7695605-6.7260232.8330211-10.115142.0933835-4.9975244.1518235-9.9958521.2831629-14.9921715.1580491-6.0173126-.4512533-11.9356185-1.9622588-17.7709838-1.4563812-5.624901-3.2019501-11.1722836-4.4671462-16.8485957-1.5859132-7.1140166-3.1216202-14.2440992-5.514849-21.1460449-1.1523325-3.3232483-2.4036717-6.6095448-4.6021004-9.4307312-.3853827-.4946314-.8207708-.757511-1.4682299-.8422591-3.7142541-.4861968-7.3891466-1.1878785-11.0329112-2.0660852-3.971109-.9573317-7.7421965-2.2735372-10.7971429-5.1668197-1.3166072-1.246921-2.8732-2.18899-4.5623371-2.8822371-.2546458-.1046297-.491619-.1988165-.481377-.5333906.0704895-2.3062717-.3889976-4.6292118.7402401-6.8714203,1.164382-2.3120956,2.1428003-4.7264109,2.709327-7.276283.3606813-1.6226641.6454508-3.2919196-.1682912-4.8214011-.4709341-.8852356-.5024636-1.6969693-.4098834-2.6291979.2454079-2.4701447.1492128-4.9310514-.5532722-7.3305057C155.7030408,3.7979977,150.1873885-.0451859,144.1636496.0004013c-4.3679387.0329353-7.8201165,2.1697108-11.0100171,4.8943005-1.4804802,1.2645936-2.2345772,2.8758107-2.5101088,4.7661742-.4315724,2.9595546-.1030231,5.9046499.124913,8.85336.0391608.5070825.1950009,1.0041238-.1737134,1.5085957-1.4248517,1.9492052-1.3085742,3.9721131-.196005,6.0201241.7257807,1.336288,1.6668456,2.5203509,2.6099187,3.7014013,1.4885132,1.8636539,2.7864437,3.815269,3.2905138,6.2076944.6183395,2.9344515.0696862,5.3184424-2.4665298,7.30962-4.8151755,3.7809279-10.2745968,6.3249761-15.7984829,8.7888952-.0393617.0176726-.110052-.0347427-.2084561-.0692845.0247014-1.2993363.2560516-2.6042956.0967975-3.9211036-.2845687-2.3556745-.9609465-4.6268019-1.4774678-6.9310653-.9711886-4.3307861-2.0825529-8.6256247-4.2888138-12.5352813-2.0540357-3.6405514-4.9041409-6.2552899-9.0881241-7.3156447-2.5438474-.6448483-4.6752006-.3568656-6.3316033,1.8321244-.0299229.0395625-.1072404.0433782-.1616639.0636615-1.1543408-1.7819182-2.1104675-2.0058378-4.0086632-.921384-.3695176.2110668-.731203.4476384-1.0603548.7167436-2.1946131,1.7943693-4.235796,3.7457836-6.0082754,5.9661022-1.6817066,2.1070535-2.9246111,4.4326043-3.5662463,7.0684294-.2172924.8918628-.5151155,1.7640448-.7693597,2.6470713-.7840199,2.7233847-2.1578621,5.0617883-4.4048905,6.8483255-.4351873.3460211-.8183609.7617283-1.2003296,1.1688002-2.260082,2.4084915-2.2900048,4.2380051-.0919777,6.7284331.7177477.8131395,1.4812835,1.5855116,2.2275483,2.3733471.2775398.2932042.4789671.5823918.4315724,1.039469-.2323543,2.2446184-1.165587,4.162495-2.6940643,5.7885731-.9539177,1.0147676-2.1393863,1.3742439-3.5043922.9629548-.5651209-.1702994-1.1169874-.3843786-1.681305-.5572887-.173111-.0530177-.4209287-.1399749-.5143122.0889654-.0443823.1090478.0594441.3102743.1457988.4353881.3879935.5625102.9609465.8908587,1.5718555,1.1453037.5715473.2379774,1.3848876.2725192,1.6837149.6892306.3554598.4958364-.234965,1.2322608-.2317518,1.8765066.0040165.835431-.3916083,1.2718233-1.1113643,1.6443532-3.3107971,1.7144411-5.2262638,4.5006839-6.0377967,8.0938407-1.2993363,5.7524247-1.950611,11.5920073-2.3851958,17.4643244-.308266,4.1636999-.3024421,8.3446708-.7490764,12.5009402-.3100734,2.8840445-.5131073,5.7676874.6506723,8.5535286.9515078,2.2773529,2.445644,4.1894055,3.9662892,6.0904128,3.6293052,4.5370332,7.9347875,8.4173694,12.0832247,12.4497299,1.0629655,1.0332434,2.1654935,2.0431912,2.900713,3.3403184,1.7568151,3.0995295,4.1845857,5.6247001,6.6884689,8.1062918,1.2276418,1.2165965,2.52015,2.3096857,4.0887923,3.0394829,1.5762736.7332112,2.7259954,1.8835355,3.6397481,3.3515646.4104858.6593077.4749506,1.1991247.1954025,1.9060279-.6514756,1.6471648-1.3415095,3.2844891-1.7710736,5.010578-.1227039.4924223-.2837654.9916727-.0212874,1.6748786,1.2911024-1.4009536,1.871486-3.1232268,2.9788338-4.6762048.1212982,3.3913279.2317518,3.6905568,1.5479573,4.0492298-1.0631663-2.3625026-.9123469-4.6910658-.1208965-7.3070092.1042281.7872331.1624672,1.3003404.2413914,1.8104353.3016388,1.9496069.6249667,3.8947956,1.5674373,5.6664717.1170808.2199031.2237188.5430302.5486533.4586838.2534409-.0656697.2255262-.3675093.2717159-.5896215.2650887-1.2704175.2403872-2.547663.0943876-3.8277201-.226932-1.9901735-.644045-3.9564488-.7075057-5.9685121-.0196808-.6267741.1086462-1.0346492.7326088-1.3143981.6898331-.3092701,1.3967363-.7484739,1.7154452-1.4320814.5631127-1.207961,1.4855008-1.2049486,2.5426424-1.0087428.4199246.07792.8382426.1771274,1.2621837.2190998.558092.0554276.8197667.2715151.927208.8860389.4584829,2.6197591,1.0286245,5.2198374,1.4945379,7.8381907,1.4270608,8.023552,2.4797843,16.1029333,3.5770908,24.1756874.1361592,1.0025172.1361592,2.0532324.6751729,2.9756206-.0490012-1.1515292-.1690945-2.291009-.2871794-3.4306895-.429765-4.1512488-.7912496-8.3109323-1.3039552-12.451939-.7629333-6.1619064-1.6154344-12.3131691-2.4791818-18.461821-.1068388-.7605234.118085-1.0105502.7834174-1.2475235,1.8425673-.6556929,2.172924-1.3075701,1.7766967-3.1854825-.2733225-1.2949181.2024314-1.8158576,1.4977511-1.618246,2.2823735.348431,4.2956418,1.3921173,6.3022829,2.4528737.3221229.1702994.4341832.4717374.5643176.7751836,1.8387516,4.2847973,3.7194756,8.5595533,5.0696205,13.0269003,3.8554339,12.7579959,7.6337511,25.5394884,11.4596638,38.3063206,2.5820041,8.6161859,5.1680246,17.2319702,8.2992844,25.670627.821775,2.2142939,1.8526085,4.3613115,2.3544696,6.6798335.632598,2.922402.4044611,5.8934037.293405,8.847536-.1002116,2.6713711.0190784,5.3264754.4293634,7.9637062.6412335,4.1203218,1.8710844,8.1239644,2.3548712,12.2822421.5848017,5.0274473,1.2836719,10.0344104,1.279053,15.1174862-.0026107,3.2045608-1.0848554,5.8745262-3.1808635,8.2438568-2.4574927,2.7776074-5.3391273,5.0629933-8.2496807,7.3190587-.809123.6271758-1.7909553.7832166-2.810141.6828042-1.6953627-.1674879-3.2577794-.7820117-4.7723998-1.4973495-5.8395826-2.7581274-11.5789537-2.4410251-17.2359866.5086891-1.4521639.7571094-2.8593431,1.6003726-4.3468521,2.4378119-.6544879-2.2217244-1.3364888-4.4075012-2.1761372-6.5370471-4.3560901-11.0475714-7.2250727-22.4162616-7.7399874-34.3420397-.4369947-10.1161461-1.2057519-20.2110048-2.7719843-30.2269393-.7557036-4.8336514-1.4714431-9.6769423-2.7603365-14.4083739-.0994083-.3650994-.0937852-.8161519-.6281799-1.1434962.1305361.813742.2263295,1.4913247.3490334,2.1638869,1.336288,7.3202637,2.0086493,14.71423,2.4211434,22.1341028.3980347,7.1557882.6645292,14.3174003,1.1430946,21.4703769.6751729,10.0928504,2.9485093,19.7886703,6.7320479,29.1519243,1.5618142,3.8650735,3.2417134,7.6837565,4.6010963,11.6289591.126118.3661036.3584722.7191535-.0837439,1.0553342-2.53963,1.9313318-5.0605834,3.8753156-8.2581153,4.6599379-2.6625348.6530821-5.2899252.3313609-7.9175165-.1486103-.7342154-.1339501-1.5204443-.1279254-2.2747422-.593638,3.5889395-1.3366897,7.0634088-2.6759901,10.21937-4.7149639-2.0150757.5848017-4.0221185,1.1904892-5.9630899,1.9626605-4.6657619,1.8562233-9.3855456,2.5336053-14.36359,1.3561697-2.6195583-.6197452-5.3363158-.6836075-8.043032-.3673085-3.8943939.4552698-7.7052447,1.3232344-11.4719141,2.3627034-7.0250513,1.9387623-14.141277,2.8952907-21.4420606,2.4856082-5.3911409-.3026429-10.7352889-.9342368-16.0430875-1.8963883-2.2082692-.4002438-4.4046897-.8659564-6.7718112-1.3344806.3422054-.3191106.5179271-.5062792.7165428-.6643283,2.7352334-2.1771413,5.2537768-4.5846287,7.5475973-7.2180439,2.6213657-3.0093592,5.007164-6.1621072,6.2787864-10.0382261,1.4047693-4.2817849.656697-8.0840003-2.2452209-11.5032428-1.2392897-1.4599961-2.6512886-2.7380449-4.0767428-4.0060525-1.7684629-1.5724579-3.5799023-3.0995295-4.9836675-5.0372877-1.5146204-2.0911883-1.8951833-4.3360076-1.1161841-6.812177.6970628-2.215298,1.8843388-4.1048583,3.5136302-5.7403752,1.8393541-1.8463829,3.9867733-3.3268631,5.9458189-5.0316646,1.785533-1.5537812,3.2852924-3.3138095,4.2147094-5.5104308,1.1197989-2.646268,1.8277062-5.404797,2.2273475-8.2490782.6518772-4.6376464.6153271-9.312847.7685564-13.9763998.2321534-7.070036,1.6266806-13.8804056,4.427182-20.3871281,2.9768256-6.91761,6.6197869-13.5020517,10.1016867-20.1670242,2.7079212-5.1834881,5.4401422-10.3519144,8.6445022-15.2552519,3.8638686-5.9126829,8.4424725-11.2435764,13.2204954-16.4202364,1.2453144-1.3491408,2.5155311-2.6936626,3.4726619-4.2811824.2413914-.4002438.4799712-.979824.1337493-1.2804587-.356464-.3092701-.7436541.2130751-1.0434855.4645077-1.9961982,1.6726695-3.7728949,3.571066-5.5124391,5.5003896-2.9708008,3.2953336-6.1357992,6.4484833-8.5979108,10.1520937-8.4225908,12.6692314-15.1152771,26.30202-21.8734322,39.8858074-2.3500514,4.7238002-3.7389556,9.81029-4.2715428,15.0951946-.3665052,3.6397481-.2801506,7.2911441-.316299,10.9401301-.0385584,3.8813403-.2419938,7.7419957-.9436756,11.5791545-.8362343,4.5721775-3.0264293,8.1362147-7.1345008,10.4384699-.6868207.3847803-1.3314682.844669-1.9990098,1.2643927-1.6523862,1.0392682-3.14592,2.2721314-4.4436497,3.7287135-3.4762768,3.901222-4.877632,8.51979-2.4040733,13.1084352.0178734.0333369-.0315295.1030231-.0662722.2050421-.3038479-.1062363-.6105073-.2038371-.9101379-.3199139-3.6317151-1.4051709-7.366855-2.1813586-11.2803273-1.8220831-.4976438.0455872-1.2360765-.0178734-1.3318699.5765679-.0919777.569539.6398277.6494673,1.0659779.812537,2.6300012,1.0057304,5.4104201,1.3330748,8.1693508,1.7479788,1.9488036.2932042,4.0255325.2458095,5.8120696.9456838,1.4124006.5532722,2.469743,2.012465,3.6859378,3.0682008.1488112.1293312.3046512.2506293.4542656.3791572,1.6453573,1.4136056,3.3750611,2.7352334,4.8366637,4.350467,3.1947204,3.5307003,3.963076,7.5148629,2.213089,11.9669472-.7643391,1.9437829-1.852006,3.6987906-3.1025419,5.3561974-3.051934,4.04441-6.8356735,7.3648468-10.6093717,10.6953247-.442417.3906042-.9011007.7792001-1.265196,1.2380847-.5261609.6629226-.3898009,1.1089544.3799605,1.4634101.6902347.3177048,1.4298724.4761555,2.1749323.6093023,6.405306,1.144902,12.8230632,2.1966213,19.3243634,2.6396408,5.9213183.4036578,11.838821.4002438,17.7000927-.6101056,5.0790592-.8753952,10.1243799-1.9453895,15.1877748-2.9127625.8374393-.1600573,1.6895388-.2504285,2.5380234-.3456194s1.6997808-.1841563,2.552282-.2237188c.812537-.0377551,1.6284881-.008033,2.6777975-.008033-.5414236.1291303-.8551119.2134767-1.1728167.2783431-3.8626636.7870323-7.7042406,1.6555994-11.4347615,2.9521241-.9308228.3235287-1.8154559.7619292-2.7233847,1.1366682-.766749.3167007-.3036471.9183717-.3944198,1.3298616-.0887645.4014487.511099.1431881.7808067.1166792.6844108-.0674771,1.3648051-.1954025,2.0407813-.3301559,4.0281432-.8028974,7.9327792-2.1092626,11.951082-2.9495134,3.701803-.7739787,7.4140488-1.5590027,11.2307236-1.0657771,2.376962.3070611,4.740067.7215634,7.110201,1.081843,5.0210209.7635358,9.5946042-.2387807,13.6470472-3.4009675,1.6833132-1.3135948,3.3716471-2.6273905,5.1947343-3.7495993,3.5650413-2.1944123,7.3419527-3.6680644,11.6269508-3.4128161,2.6173492.1560408,5.1413149.7661465,7.5465932,1.7658522,4.0026385,1.6634316,7.6305379,1.3063651,10.8545788-1.7289004.8649523-.8141436,1.8254972-1.0571416,3.0400854-.9663688,4.6984963.3512425,8.4105413-1.367215,10.8640175-5.5094267.6026751-1.0175791,1.234269-2.0178873,1.8263005-3.0412903.2106652-.3636937.4367939-.6484632.8858381-.6793902.672763-.0463905.8848339-.4655118.8587267-1.0742117-.0648664-1.5106039-.0839448-3.0250235-.2072512-4.5310084-.1070396-1.3079717.0363493-2.5356135.5735555-3.7477918.7316046-1.6501771,1.4226427-3.3294738,1.814251-5.096531,1.3806703-6.2319942-.2889868-8.8951315-4.3723569-11.4988246-.1108553-.0706903-.2134767-.1586516-.3319633-.212071-.5805844-.2606706-.7546995-.6787877-.7336129-1.3270501.1337493-4.1118872.5165213-8.1992737,1.0928884-12.2707951.4189205-2.9581489.2152842-5.8235167-1.1499226-8.5547335-.6004661-1.2013338-1.0764208-2.4665298-1.5776794-3.7152582-.2195015-.5462434-.5392145-1.2043461-.23376-1.711027.7557036-1.2539499.7048949-2.4480539.0755101-3.6923642-.0140577-.0277138-.0100412-.0644648-.0146602-.0971992-.6886281-4.9153871-1.3342798-9.8341881-1.535707-14.8011871-.3642961-8.9752606-.3556607-17.950722.0200825-26.9237735.1785332-4.2671247.5100949-8.5264172,1.4403152-12.971071.1345526.3871902.1962058.5358005.238379.6898331,1.9216922,7.0152108,3.0081542,14.1952988,4.1620933,21.3585175,2.7910626,17.3255545,6.2344041,34.5069168,10.9638275,51.4207805,1.6086064,5.753228,3.1670066,11.5199112,2.938468,17.6147422-.2323543,6.2004648,1.3487392,12.0378383,4.0940137,17.5741756.1482087.2988273.3020405.5647193.1415815.9219865-1.316808,2.9312383-.41149,5.6487991.8183609,8.3332238.1259171.2749291.2687035.5207386.5884166.6161304,2.0138708.6006669,4.0152904,1.2453144,6.1442338,1.3278534.653283.0253039.9930785-.1578483.9497003-.874391-.0180742-.2984256-.1492128-.7422483.2042388-.8719811.3120817-.1144701.6018718.2237188.8275989.4400071.4964388.4757539.9862504.9693812,1.4069783,1.5112064.7450599.9601432,1.4162163,1.9773207,2.1550506,2.9426853,1.6015775,2.0919916,3.6901551,3.3740569,6.3542965,3.4810966,2.493842.1000107,4.9969219.1883736,7.4841367-.1636722,1.9096427-.2701093,3.6987906-.8673622,5.3170366-1.9496069.9237939-.6179378,1.3356855-1.4618035,1.1234138-2.5330028ZM198.9307732,277.8406663c-.5631127.2568549-1.0296286.4500483-1.4758612.6820009-.2195015.1138676-.5309807.2309485-.4482409.5625102.0624565.251031.3315617.2988273.5594978.3138891.8199675.0546243,1.6429474.1140685,2.458296-.0387592.6866199-.1285279,1.3033528-.3241312.5725514-1.3559688.7125263.2104644,1.0111527.6070933,1.3656084.9127486.345017.2978231.66473.6251675,1.09329,1.0324401-1.0117552.4090801-1.9927842.3152949-2.9276235.4787662-1.8455796.3229262-3.1382887-.4000429-4.3450447-1.770672-1.2306542-1.3979412-2.7109336-2.576381-4.0030401-3.9707073,1.148316-.5211403,2.1849735-.7982785,3.3134079-.9251997-.0626573.6249667-.5757646.8830265-.7374286,1.3427144-.1004124.2859745-.226932.5751621.0084346.8322178.2110668.230346.4761555.1084454.7336129.0427757.9151585-.23376,1.0848554-.1028223.7956677.8119345-.2913967.9209824.1415815.9286137.8099263.8151477.7073048-.1198924,1.4162163-.199419,2.2269459.2341617ZM192.9393671,272.5340726c.9822339-2.235983,2.0166823-4.1173094,3.1925114-6.1472462.5663258,1.652587.4096825,3.1945196.5309807,4.701107.016066.1964066-.1538318.2765357-.3108767.3283485-1.047502.3462219-2.0964098.6874232-3.4126153,1.1177907ZM193.4560892,147.5758805c-.0807316-1.8998023-.0443823-3.6132392.1923901-5.3674436,1.0942942.9780166,1.0378624,3.7628537-.1923901,5.3674436ZM182.0502464,83.7168171c.386186-4.2345911.457278-8.4551244.0889654-12.6985518-.4817786-5.5493908-.1012157-11.104204.1176833-16.6554022.0490012-1.2431053.0072297-2.4896247.0072297-3.8686884.652078.254445.7336129.7008784.9023057,1.0553342,2.8695851,6.0277554,4.7685841,12.3848635,6.0026524,18.9124718,1.7027932,9.0061876,3.9371696,17.8886671,5.9080639,26.8321974.8936702,4.0560579,1.1571523,8.1932489,1.4601969,12.3226078.3725299,5.080465.7830158,10.1585201,1.1019255,15.2426.3699192,5.9040474.1158759,11.7615034-1.6792967,17.462517-.1154742.366706-.1381674.7824133-.5996628,1.2133833-.387391-2.5434457-1.9443854-4.1855898-3.6407522-5.7273216-.4805737-.4367939-.7717696-.9284129-.909937-1.5776794-.2869786-1.3467309-.5990603-2.6944659-1.1665911-3.9604653-.6649308-1.4832917-1.7297037-2.626788-3.0732214-3.5148351-.4076743-.2695068-.6595085-.5408211-.6589061-1.0920851.0066272-6.1739559-1.0230014-12.2342449-2.0616671-18.2917225-.9440772-5.5050086-1.8883553-11.0094147-2.1980271-16.5981672-.1678895-3.0316507.1245114-6.0470346.3990388-9.056193ZM182.8308523,120.9262328c-1.5451458-.0074305-3.0902915-.0030124-4.6354373-.0030124-1.5756711.2008248-3.1499365.2502277-4.7302266.1323435-.5167221-.0385584-.851497-.1970091-1.0926876-.6581028-.4408104-.8432632-.9227898-1.6648373-1.3824777-2.498461-.2357683-.4273551-.2761341-.7054974.386186-.6850133,3.4208491.1068388,6.7224083-.6307906,10.0103114-1.4567829,1.1880793-.2984256,1.2905-.2180957,1.6025817,1.0127593.3008355,1.1860711.3231271,2.407889.4934265,3.6102269.0821373.5803836-.2656912.54785-.6516764.5460425ZM167.3597137,47.4201499c-.1837547-.5980562-.3052536-.9013016.5731539-.6803943,4.0428034,1.0167758,8.098058,1.9871611,12.1908668,2.7850379.5572887.1086462.6932471.3305576.6470574.8470789-.7677531,8.5619632-.1807423,17.1560584-.6012694,25.7250505-.1494136,3.0491225-.5440343,6.0859946-.804504,9.1302973-.4817786,5.632934-.0524153,11.2307236.715137,16.8102381.5506615,4.0030401,1.2720241,7.9769607,2.2231302,11.9050931.1791357.7402401-.0650672.8848339-.7559044.9075271-3.4800924.1138676-6.9664104.1881728-10.4089486.7934587-1.5377153.270511-1.970091.9737993-1.5935445,2.5119162.5966504,2.4368078,2.5976684,3.8735081,5.5403537,4.0229218,2.340211.1188883,4.6625487-.1640738,6.9933209-.2554491,1.4549755-.0572351,1.4981528-.0128528,1.462406,1.4475449-.0722969,2.9585505-.1146709,5.9140886.3634928,8.8531591.1602582.9864513.4460318,1.9108477.9109412,2.7912635.3062578.5801828.6123147,1.1651853.8504929,1.7746885.1594549.4080759.5046726.9523111.1186874,1.281262-.4185188.3570664-1.0238047.1401757-1.478472-.131741-2.0106576-1.2017354-2.7786115-3.1569654-3.1244318-5.3333034-.4731432-2.9778297.2765357-5.7313381,1.6013767-8.3729871.1851604-.3691159.7000751-.8073156.0682804-1.1671936-.5611044-.3193114-.8436649.2548466-1.0756175.593638-1.1830587,1.7284988-2.0128667,3.6240838-2.2914106,5.7072391-.359878,2.692056-.1624672,5.3184424,1.2844752,7.7201058.7544987,1.2521424,1.8022015,2.1691083,3.1878924,2.6629364,2.0821512.7422483,3.6686669-.5773712,3.2137988-2.7201715-.3948215-1.8598382-.9209824-3.6915609-1.3350831-5.5477843-.1371633-.6153271-.1062363-1.2682084-.1707011-2.1632844,1.9891693,1.7720778,3.047315,3.7562265,3.5389341,6.0486412,1.2716224,5.9291505-2.1558539,13.1072302-7.5074323,15.7394405-3.2654107,1.6061965-6.4926648,1.4322823-9.6064528-.390805-3.4021724-1.9921817-5.6584387-5.0539561-7.5552286-8.4069265-3.1830726-5.6263067-5.064399-11.7384086-6.557732-17.9802432-1.5381169-6.4284009-2.5575034-12.9483778-3.2694272-19.517356-.0351443-.3239304-.0971992-.6289832.0753093-.9555243,2.3843925-4.5127334,3.9721131-9.3606433,5.8795468-14.0731974,1.6632307-4.108674,3.1449159-8.2846242,4.188803-12.6027584.0293204-.1206957.1112569-.2285386.2086569-.4219328,1.7789058,2.0281293,3.8492084,1.7293021,5.9671064.8095246.9314253-.4044611,1.827907-.8932686,2.7243888-1.3740431,1.1067453-.5934372,1.700785-2.1976254,1.269815-3.3818891-.1680903-.4620978-.3636937-.9143552-.5524689-1.3688216-.2458095-.590224-.2152842-1.0768224.2444037-1.6176435.7046941-.828603.2522359-3.7343366-.6207494-4.396255-.679591-.5155172-1.4465408-.3610829-2.1737273-.1433889-.6840092.2046404-1.2523433.2377765-1.7401466-.4128957-.4498475-.5998636-.7870323-.1919885-1.052121.2239196-.6737671,1.0565391-1.1374715,2.2177079-1.6459598,3.3565852-.2237188.500857-.4775613.9880579-.8061106,1.4589919-.1962058-1.2467202.1656804-2.4265657.3982355-3.6106285.601671-3.0631802,1.177034-6.1301761,1.417622-9.2465749.2536417-3.2820792-.165078-6.4940706-1.1302418-9.6343675ZM173.5003327,69.5136861c-1.0679861-.2423955-1.7228757.2769374-2.2486349,1.1477136-.366706.6074949-.6966611,1.2577655-1.2754381,1.7620365-.2494244-.173111-.2347642-.363292-.1986157-.4986479.3329675-1.2386872.0743052-2.3018535-.8547102-3.2093806-.3385906-.3307584-.1502169-.7352195-.0295212-1.1085527.2102635-.6504714.4241419-1.2999387.6528813-2.0004155.6183395.3012372.8322178.8213733,1.0655762,1.3049594.2160875.4480401.4080759.4482409.6611151.0514111.0176726-.0277138.035546-.0554276.0568334-.0801291.9278104-1.0728059,1.6646365-1.363801,2.2960296-.9075271.7065015.5104966,1.0466987,2.376962.597052,3.1971303-.1660821.3030446-.3877926.4175147-.7225675.3414021ZM174.3759287,73.1592581c.4715366.3424062.1078429,1.9008064-.6757753,2.4008601-1.6084056,1.0260137-3.2262499,2.1926048-5.4634378,1.4981528,1.1581564-1.1489185,1.8007957-2.5016742,2.3165137-3.9319482.324332-.8986908.7406417-1.7536019,1.4425243-2.430783.2263295-.2182965.4233386-.5488541.823984-.37012.3831737.1709019.6615168.442417.6506723.8956785-.0190784.7998851.2076528,1.431479.9055189,1.9381598ZM169.1597061,71.2793375c-.0620549.199419.129532.550059-.1775291.6587052-.2791464.098605-.4327774-.2255262-.6269749-.3825712-.1516227-.1225031-.2863761-.2660928-.426351-.4026537-.7679539-.7498797-.6926446-1.2937132.2160875-1.9339425.3036471-.2136776.3996413-.0455872.5115007.1640738.309471.5809861.5438335,1.1848661.5032669,1.8963883ZM168.3178487,72.3005314c.7902455.7408426.9513069,1.6172419.4833852,2.5926478-.2546458.5311815-.5215419,1.0587482-.8203692,1.5660316-.4195229.7121246-1.1019255.7595193-1.6716654.1331468-.520337-.5725514-.5980562-1.2921066-.6444467-1.9990098.0634606-1.0760191.2813555-2.0921924.6643283-3.0824594.1897794-.4910166.3719275-.6462541.8024958-.2436004.382772.3578697.8039016.674972,1.1862719,1.0332434ZM158.5957208,57.5344886c-.2729209-4.8234093-.1417823-9.6628846-.022894-14.4949294.0078322-.3164998-.0610507-.6583036.1937959-.9824348.8671614.4159081,1.5361087,1.0965032,2.239397,1.7192608,1.0426822.9235931,2.1725224,1.7068097,3.4626207,2.2293558.5032669.2038371.7635358.5275667.9605449,1.0191857,1.512813,3.7771123,1.7608316,7.7168926,1.0695927,11.6404061-2.2584754,12.8192475-5.0975351,25.4949053-10.209128,37.5433873-.6279791,1.4802794-1.3206237,2.9328449-1.9889685,4.3958534-.0371526.081334-.126118.1393724-.2480186.2689044-.4534623-1.0294278-.8121354-1.9771199-.546645-3.1159971,1.2366789-5.3063929,2.3773636-10.6316633,3.3348961-15.9997094,1.430274-8.0197363,2.2167038-16.061965,1.7548068-24.2232828ZM138.8948109,3.2619964c.1849596-.4839877.5607028-.6916405.9715902-.9089329,6.3916499-3.3790776,15.7559081.1365608,17.0452031,9.0234585.328951,2.2677133.1441922,4.478794-.5094924,6.8356735-.3749398-.8229799-.2648879-1.5668348-.4452285-2.2522498-.1582499-.6010685-.2341617-1.2254327-.413699-1.8192716-.9513069-3.1467233-2.4603042-4.311507-5.7937946-4.4440513-2.1956172-.0873588-4.4000707-.0198817-6.5786178-.3813662-.9161626-.1520244-1.7620365-.5163205-2.556901-.9898653-1.7618357-1.0497111-2.4540787-3.1388911-1.71906-5.0633949ZM132.9985957,27.8361201c-2.0423879-2.3733471-2.4558861-4.7197837-1.2611796-6.8151894.5697399.8928669,1.3923181,5.21803,1.2611796,6.8151894ZM134.0997179,28.7751767c-.1990173-.186767-.3414021-.3900017-.3566648-.6747712-.0771167-1.4358971-.1771274-2.8721958.1546351-4.4647363.2570557.2305468.383977.3307584.4950331.4462326.5540755.5763671.8049057.3582714.9121461-.328951.1024206-.6575003.0867563-1.3158039-.0038157-1.9662753-.4604912-3.3073831.3480293-6.1848004,2.7898577-8.5501146.4777621-.4629011.9302203-.984443,1.2031412-1.9716976-2.0807454.9860496-3.5130277,2.3044642-4.5591239,4.0373812-1.0697935,1.7724794-.9788199,3.8144657-1.1657878,5.9865864-.7115222-1.242302-1.0101486-2.4008601-1.1894851-3.595165-.3558615-2.3719413-.739236-4.7380588-.3659027-7.1549849.4333799-2.8051204,2.2076667-4.6107359,4.4153334-6.1195324.3233279-.2211081.538612-.2088578.5994619.2365716.035546.2602689.0937852.5173246.1385691.7763886.5777729,3.3467448,2.474362,5.0238324,5.8799484,5.2828964,2.195818.1666846,4.4109152-.014861,6.5910689.3703209.5781745.1022198,1.1533366.2660928,1.7039982.4711349,1.2055511.4488434,2.0032271,1.227441,2.328764,2.5607166.9766109,4.0002286,1.6614233,8.0390155,1.8985974,12.151706.0383575.6663366-.0714936,1.3011437-.3022413,1.9301269-.8529028,2.3241451-1.8803223,4.5526975-3.4306895,6.5081283-2.8193789,3.556205-6.3312017,4.2703379-10.2908637,2.0454003-1.9739067-1.1091552-3.6656545-2.5378226-4.8521272-4.5157458-.7438549-1.2396913-1.5256658-2.4611075-2.5938527-3.4616165ZM148.7042976,45.0897793c-.6044826.5436327-1.2246294.6492665-1.989571.4138998-2.8326334-.8713787-5.4813113-2.1751331-8.1617194-3.4073939-.5349972-.2458095-.6514756-.7297972-.7167436-1.2089651-.1781316-1.3079717-.0403658-2.6229723-.004619-3.9345589.0186767-.6785869.3924116-.3305576.6410327-.1711027.9946851.6380203,2.0104568,1.2306542,3.0742256,1.7529994,3.3409209,1.6405375,6.420167,1.2121783,9.2638458-1.1163849.9350401-.765544,1.8148534-1.5985652,2.9701983-2.6227715,0,1.6839157-.0022091,3.0850701.0018074,4.4860237.0008033.2859745-.149012.4986479-.3122825.70369-1.4533689,1.8275054-3.0270317,3.5411432-4.7661742,5.104564ZM149.7871448,47.5994865c.974201.1271221,1.9558324.2190998,2.9187872.4062685,1.1021263.2144809,1.2487284.5207386.9591391,1.6837149-1.2001288-.3150941-2.4002576-.629184-3.599784-.945483-.288786-.0761126-.5785762-.1624672-.695657-.4811761-.1447947-.3944198-.1877712-.7424492.4175147-.6633242ZM148.261479,48.1923212c-.0230948.6685457-.559297.6020727-.9264047.7085098-.5215419-.0283163-.8294063-.2632813-.7555028-.7338137.0708911-.4496467.2849703-.9681762.8103279-.9509053.5098941.0168693.8926661.3659027.8715795.9762092ZM136.016992,43.6705507c.6976652-1.1242171.6783861-1.1475127,1.8708836-.5548788,2.4641199,1.2248303,4.956757,2.3853966,7.6891788,3.4132178-1.418827.6030768-2.7350325.9583358-4.1177111,1.0613589-2.8499043.2122718-3.4441448.9484954-3.0842668,3.8343473.1441922,1.156349.7496789,1.564425,1.8449772,1.1224096,1.0629655-.4287609,2.0859669-.9591391,3.1157963-1.4666233.9376508-.4622986,1.898999-.6677424,2.9547348-.5400178,1.1228113.1359584,2.2538564.1572458,3.1087674-.802295.2990281-.3355782.5886174-.1325443.8910595-.0108445,1.0965032.4406095,2.1863793.9181708,3.3810858,1.019989,1.4121998.120294,2.0108584-.6689473,1.5584002-2.0160799-.3114792-.9266055-1.0557358-1.3768546-1.8883553-1.7489829-1.2268385-.5486533-2.5822049-.6299873-3.982556-1.0617606,2.0341541-1.6981742,3.8783279-3.41864,5.4702659-5.3893335.3375864-.4181172.7217642-.1807423,1.0760191-.0471938.4496467.1694961.821775.4281584.7856265.9966933-.0728994,1.1475127-.0833423,2.3026568-.2287394,3.4407308-.2178949,1.707613-.1829514,3.4126153-.1034248,5.1204291.3630912,7.7948126.3351765,15.5781782-.6488648,23.3356374-.5510632,4.3422332-1.5479573,8.5924886-2.618755,12.8288871-.4173139,1.6505788-.6167329,3.3531712-1.2266377,4.9981269-1.8845396-12.3412845-2.1464151-24.8837955-4.4659412-37.1901365.6775828,11.7201335,1.2081618,23.4446852,2.2663075,35.2923425-.4946314-.3791572-.6225568-.8237832-.8135411-1.2071577-4.4289895-8.8856927-7.5714955-18.239508-10.0767844-27.8212594-1.3055618-4.9933071-2.3396086-10.0418409-2.8940857-15.179541-.0518128-.4789671-.1620656-.946688.1365608-1.4280649ZM144.8653313,49.1255539c-1.5037759.8187626-3.1159971,1.3927198-4.7346448,1.9198848-.6534838.2128743-.4886067-.4884058-.589019-.8322178-.0889654-.6364137.1702994-.9258022.7984793-.9707869,1.4224418-.1022198,2.7601356-.5502599,4.0781486-1.0651746.265892-.1040272.5629118-.2986264.7486747.112261.1664837.367911.0084346.6673407-.3016388.8360335ZM127.4068308,49.2255646c2.2022444-1.234269,4.394046-2.4870139,6.718191-3.8068343.4082768,1.8919702.3072619,3.6785073.5598995,5.4325108,1.0967041,7.6146728,3.2931246,14.9317232,5.9506387,22.1206475,3.0732214,8.3137438,6.1725501,16.6182497,9.8279626,24.7022499.8215741,1.8170625,1.4700373,3.7038112,1.9279178,5.8516321-2.0897825-1.9917801-3.8239044-4.0494306-5.5234845-6.1311802-6.6145654-8.1024761-11.9950626-16.930733-15.5729567-26.7976556-2.3992535-6.6159712-3.8893733-13.4275457-4.2777684-20.4680605-.0216891-.3936165,0-.6848125.3896001-.9033098ZM97.9227423,23.3607401c1.2182031-1.050916,2.6555059-1.2121783,4.1745445-.9494995,4.6756023.8083197,7.8843804,3.5630331,9.989024,7.6841581,1.8106361,3.5453605,2.6183533,7.4130447,3.3654215,11.2837413.3231271,1.6750794.5765679,3.3662248.7872331,5.0593784.2725192,2.187785-.2251246,4.314921-.6354096,6.4436635-.0496037.257859-.1018182.5159188-.1307369.7763886-.4651102,4.1699255.6099048,6.1924318,4.3348026,8.1486658,1.1326517.5946421,2.3088824,1.1159832,3.3979551,1.7811149,1.3625961.8322178,1.610213,1.8108369,1.0015131,3.2836858-.4849918,1.1728167-1.3055618,2.1176972-2.0749215,3.1003328-.2917984.3727308-.453864.2197023-.6446475-.0819365-.8219758-1.2999387-2.0785364-2.0737166-3.3925328-2.7725868-.9274088-.4932256-1.8765066-.9472904-2.7874478-1.4684307-2.6022874-1.4889148-3.3758644-3.0766355-2.8918767-6.0560717.3000322-1.8457805.7004768-3.6750933,1.0499119-5.5130416.5257592-2.7629472-.1457988-5.4264861-.741445-8.0797829-.9338352-4.1584785-2.40327-8.1159314-4.7324357-11.7163179-1.44634-2.2357822-3.2148029-4.1504455-5.5967855-5.4584172.9378517-.4865984,2.4492589-.6358112,3.7947848-.3470252,1.379867.2960157,2.4217459,1.1089544,3.2921204,2.1942114.8265948,1.0304319,1.258368,2.2857875,2.0036287,3.5668487-.3707225-4.3044781-4.7842485-7.8773516-9.0459509-7.5082356-.9840414.0853505-1.9596481.2024314-2.8794255.6000644-.1785332.0771167-.3755423.1198924-.5685349.1530285-.6450492.1108553-.9836397-.2958149-1.2063544-.7960694-.2229155-.5002545.2231163-.7129279.5323865-.9183717,1.199928-.7972743,2.6171484-1.0223989,3.9560471-1.4529672.4795695-.1542334.9858488-.2480186,1.6120204-.7060999-1.9793289-.0369518-3.5941609.3859852-5.1465364,1.1083519-.5526698.2572565-1.2923074.8227791-1.6764852.2217105-.3916083-.6125155.3693168-1.1569515.8601325-1.5804909ZM121.1872877,135.1522578c-.1337493-.4315724-.3040487-.9987016-.9097362-.3841778-.1482087.1502169-.4004446.3321642-.4932256.1819472-.4596879-.7444574-1.6473656-.8992933-1.6057949-2.0540357.0269105-.7520888-.0514111-1.508194-.0839448-2.2624919-.0084346-.1958042.0329353-.4159081-.0421732-.5829943-.3307584-.7386335-.2926017-.8472797.5771704-1.0593507.6514756-.1590532,1.3704282-.2407889,1.8710844.2484202.5291733.516923.3407996,1.2208138.105433,1.8548176-.1365608.3685135-.3068602.7243749-.4476384,1.0914826-.3239304.8436649-.1498153,1.0627647.641836.9888612,1.0201898-.2399856,1.3607886.4416137,1.6650382,1.0270179.363292.6992718.641836,1.4710414.0337386,2.2090725-.1817464.2201039-.3675093.5012586-.7310022.3494351-.3213196-.1339501-.5554813-.35064-.5631127-.729998-.0058239-.2942083.0658705-.6095032-.0176726-.8780059ZM115.9766883,130.910437c.4267526.0789241.8539069.1196916.3470252.668144-.0212874.022894-.0439806.0606491-.0405666.0881621.149012,1.179243-.4201254,1.8144518-1.5110056,2.16951-1.3286567.4325766-2.5809999.4639052-3.7491976-.3984363-.6605127-.4874017-1.2328633-1.1671936-1.9650704-1.4702381-1.978124-.8187626-2.907541-2.5297896-3.9156814-4.2050698-.2538425-.4221337-.5010578-.8498904-.7812084-1.2543515-.8450706-1.2202113-1.1832595-2.4197376-.1809431-3.7642595.4805737-.6450492.5163205-1.438307.2962165-2.2651026-.1919885-.7217642-.2321534-1.489919-.2831629-2.2414052-.0421732-.6241634.4048627-.9772133.9187733-1.1294385.5147139-.1528276.7530929.3167007.9468888.6858166.4548681.8661572.4663151,1.8297145.5651209,2.7768041.0586408.559297-.1016173,1.4095891.4950331,1.5525763.5516656.1321427.9153593-.6376186,1.2567614-1.1053395.499652-.68421.9497003-1.4045684,1.4736522-2.1883875.4683234.680796.0953918,1.3401037.2942083,1.9190815.0853505-.0040165.1666846.0172709.1984149-.0132544q1.1107618-1.0603548,2.3926263-.100814c.3068602.2297435.5368046.5370054.9774142.0873588.3502384-.3574681.6548896.0821373.8747927.3379881,1.0352517,1.2041453,1.1043354,4.0436067.1486103,5.3116143-.7996842,1.0609573-2.8729991,1.2818645-3.8327407.3978339-.3185081-.2936058-.4141007-.669349-.2454079-1.079634.2369732-.5755638.4954347-1.1420905.7336129-1.7170518.2423955-.585605.3126842-1.1451028-.3902025-1.6242707.0094388.961549-.4735448,1.5461499-1.1993255,2.0725116-1.0997164.797676-.6920422,2.6984824.6741688,3.4369151,1.4077816.7609251,3.4385217.3112784,4.4326043-1.0302311.891662-1.2031412,1.5314897-2.5241665,1.6284881-4.313716,1.0047263,1.1941041,2.1257302,1.9917801,3.3826924,2.8709909-.6434426.2331576-1.0250096-.0269105-1.4278641-.1694961-.2353666-.0831415-.5163205-.2940075-.7267848-.0528169-.2295427.2632813-.0951909.6307906.11688.8020941.8384434.6767795.3476277,1.1089544-.1919885,1.6252749-.7344162.702485-1.4963454,1.3830802-2.099623,2.2148964-.4199246.578777-.3661036.9665696.3867885,1.1057412ZM101.3526286,138.5548319c.1305361.2425963.3092701.4594871.6253683.9185725-1.8994007-.7318055-3.4929452-1.4407169-4.8057367-2.6810107-.6099048-.5763671-.4727415-1.0663795.0963959-1.5620151.5743588-.5000537,1.2909016-.6261716,1.9937883-.7715688.8557143-.1769266,1.6616241-.410285,2.1371772-1.234269.07792-.1349542.1361592-.3112784.3600788-.2064479,1.0444896.4892091,1.3561697-.3462219,1.8064188-.9774142.2616747-.3671077.3520458-1.1517301.9195766-.9368475.6095032.2309485.1110561.862944.0532186,1.312189-.0542227.4209287-.2421947.8290046-.2630804,1.2483268-.0483988.9713894-.3642961,1.7680613-1.1900876,2.3420185-.6581028.4574788-.5719489,1.3828794-1.1159832,1.9098436-.4000429-.0335377-.6424384-.7500805-1.0015131-.3669069-.2924009.3120817.2084561.6781852.3843786,1.0055296ZM87.0316134,128.6164157c.6139213.0279146.7255799.6609143.7334121,1.1920958.0042173.2815563.1470037.7466665-.355259.746064-.6472582-.0008033-.7510846-.4902133-.7318055-1.0959008.1144701-.2438013-.1743159-.8663581.3536524-.8422591ZM87.4832683,126.2665651c-.7404409-.1970091-1.007337-.6374178-.8442673-1.391314.1146709-.5303782.3199139-1.0145667.692243-1.3883016.375944-.3775506.7892413-.9611473,1.3704282-.7193543.5667275.2357683.5510632.909937.5291733,1.7343227-.040165.1702994-.1321427.5844001-.2359691.9956892-.2096611.8300088-.7657448.9671721-1.511608.768958ZM84.5998263,124.3832304c-.3377873.1622664-.7241741.5064801-.4474376.8368368.5514648.6583036.4040594,1.2513391.1206957,1.918479-.0773175.1817464-.063059.4024528-.0775184.6111098-1.2716224-2.4133113-2.9884734-4.5193606-4.6504992-6.6625625-1.3897074-1.7915578-2.7994973-3.5646397-4.0689106-5.4493801-.640631-.9511061-.7474698-1.8998023-.5613052-2.9832519.5343947-3.1107757,1.4158146-6.1414223,2.0723108-9.22348,1.0436863-4.8997227.906523-9.7881993-.0612516-14.6812948-.2289402-1.1581564-.3257378-2.3418176-.4986479-3.5116219-.0803299-.5434318.0419724-.766749.6673407-.68421,3.1067592.4100842,6.2311909.5689366,9.3417658.1347534,4.7685841-.6657341,9.0465534.3799605,12.9009832,3.2965386,1.3097791.9912711,1.3804695.8992933,2.6113245-.196005,1.9102452-1.6997808,3.9299399-3.1937163,6.565765-3.5592174.7637366-.1058347,1.5142188-.0303245,2.2478316.1584507,1.6644357.4277568,2.7336268,1.3246402,2.9802396,3.1969295.3008355,2.2839801.6524797,4.5549066.5677316,6.8643914-.265892,7.261422-.45045,14.5244506-.3881943,21.7908932.0098404,1.1549432-.3271435,2.025117-1.3497433,2.7561191.0307262-1.0776257-.4610937-1.7248839-1.4557788-2.0064403-.7245758-.2050421-1.2184039.0144594-1.5413301.6723613-.1441922.293405-.2357683.6231593-.4257485.8814199-.4956355.6735663-.9637581.652078-1.4505573-.0753093-.5115007-.7639374-.9651638-1.5662324-1.4708406-2.3341863-.2148825-.3265411-.4701308-.6378195-.7549003-.9045148-.683005-.6390244-.9360442-.5705432-1.3346814.2849703-.1102528.2363708-.2024314.5576904-.3984363.6649308-1.3093775.7159403-1.6333078,2.0074444-1.9327376,3.2848908-.2201039.9384541-.5257592.8617391-1.1045362.277339-.4008462-.4046619-.8350294-.8703745-1.5682406-.6334013.0990066.6197452.6113106.828603,1.0330426,1.1079503.5773712.3821695,1.1700051.7420475,1.4780703,1.4047693.2381782.512304.2650887.9991032-.1034248,1.480681-.3755423.4912174-.844669.7456624-1.4527664.5956463-.4978446-.1227039-.9089329-.2104644-1.3270501.2620763-.4189205.4729423-.6900339.0612516-.8557143-.3251353-.3167007-.7390352-.355259-1.5284773-.3737349-2.3195261-.0200825-.8523003.0580384-1.7138386-.2004231-2.5466589-.2600681-.8372385-.585605-.9551226-1.2655977-.4143015-.4633027.3683126-.8759976.7908479-1.5073907.8737886-.9480937.1245114-1.9387623.2265303-1.5443425,1.7401466-.5968512-.6799927-.6095032-1.4240484-.8020941-2.0970122-.2442029-.8518987-.4128957-1.7299046-.8864405-2.4946453-.4783646-.7727737-.8510954-.804504-1.4316798-.1120602-.6677424.7962702-.9972958,1.7650489-1.3085742,2.7372416-.0700878.2186982-.1494136.4363922-.1945992.6607135-.449245,2.2295566-1.7710736,3.751005-3.7919733,4.7207879ZM86.0684579,130.7780935c-.6781852-1.0959008-1.2621837-2.0395764-1.8457805-2.9826495.1349542-.0735019.2911959-.1281262.3857844-.2365716.3022413-.3466236.5930355-.8101271,1.1081511-.6229584.5207386.1891769.5677316.7542978.6217535,1.2433061.0897687.8129387.0038157,1.610213-.2699085,2.5988733ZM78.4308911,78.6978044c.9061214.7723721,1.0856587,1.6286889.6848125,2.6123286-.0869571.2134767-.0821373.5839984-.4610937.5199353-.3050528-.051612-.3930141-.3454186-.4243427-.6000644-.1006132-.8169552-.0716944-1.6300947.2006239-2.5321995ZM80.4752872,70.3959093c.4375972.8083197.8759976,1.6164386,1.3023486,2.4309838.8424599,1.6096105.856116,2.9796371-.0443823,4.9260308-.0751085-2.980842-1.2167973-5.4419496-2.2303599-7.9464353-.8392467-2.0741182-.1761233-3.9855684.7908479-5.8106639-.140979.668144-.2875811,1.3352839-.421732,2.0048337-.3076635,1.5338996-.1488112,3.0051418.6032776,4.3952509ZM109.25187,65.9181194c-1.9761157-1.6973709-2.5669422-8.1159314-1.1330533-11.0023858.491619,3.7817312-.2283378,7.4875507,1.1330533,11.0023858ZM110.2788879,48.923725c.4639052,1.0175791.1058347,7.6554402-.6219543,11.1789108-.8770018-3.2115897-.5685349-8.352503.6219543-11.1789108ZM105.2996386,54.8380144c-1.3037544,1.8124435-3.3202359,2.6593216-5.4041945,3.2214301-1.0977082.2960157-2.1512349-.1251138-3.0302449-.8432632-4.1480356-3.388918-6.1213398-7.8518468-6.4545081-13.1224929-.0245006-.387391.1006132-.7030875.2926017-1.0161733,1.4515614-2.3645108,2.5432449-4.8812468,3.3035675-7.553622.6275774-2.2060601,1.6357177-4.1389985,3.8891725-5.1746518,1.118594-.5141114,2.1779446-.594843,3.3244532-.1847588,2.6607274.9517086,4.4745767,2.8248012,5.3363158,5.4296993.8418574,2.5446507,1.6708621,5.1168143,2.0809463,7.7867796.0843464.550059.1064371,1.1097577.1516227,1.6047907-.1494136,3.6919626-1.3983429,6.9445205-3.489732,9.8522624ZM107.1403984,67.0423365c-1.8931751-.6579019-2.6251814-2.2522498-2.0237112-4.2996583.4024528,1.6582101,1.1756282,2.9647761,2.0237112,4.2996583ZM92.8830447,35.1891182c-.5269642,1.198723-1.0643713,2.4119055-1.7652497,3.5120236-2.6769942,4.2030616-4.4575066,8.8302651-6.4854351,13.3444043-.8563168,1.9062287-1.9120526,3.7228896-2.9460994,5.7126614-.9418682-3.0690041-2.095004-5.8809525-.345017-9.0198437,2.4934403-4.4723676,5.0027458-8.9274643,7.9195248-13.1363498,1.226236-1.769467,2.8350433-3.1680107,5.0129879-4.0345696-.4590854,1.2091659-.8707762,2.4392176-1.3907115,3.6216739ZM88.4687155,68.1777997c-1.7891479-2.2890007-1.6967685-5.8114672.2448054-8.6250222-.4624994,2.9685917-.7520888,5.7036243-.2448054,8.6250222ZM86.335354,60.8097398c-1.1653861,2.521355-.9033098,4.8187903.2576582,7.1668335.56733,1.1473119,1.1489185,2.2875949,1.7206666,3.4326978.4552698.9119453.8464764,1.8503994,1.1131717,2.8362482.9209824,3.404984-.4723399,6.6232009-3.5927551,8.3059116-.5297757.2857736-1.0786298.4865984-1.6959652.3697184-.2672978-.0506078-.5494566-.1401757-.5990603-.4295642-.0540219-.3152949.2289402-.4566755.473344-.5416244.9713894-.336984,1.8598382-.8296071,2.6856296-1.4306757,2.4050774-1.7505895,2.727602-4.1207234.8804158-6.4599304-.9627539-1.2192072-2.1709158-2.193609-3.3013584-3.2447258-.3126842-.2909951-.6231593-.5844001-.9388558-.872182-1.9648695-1.7905536-2.3365962-3.9259234-1.4146097-6.3655427.5016603-1.3270501,1.1099585-2.6055006,1.8879537-3.7815304,1.8853429-2.8497035,3.2198235-5.9233266,4.0791527-9.2282998.3422054-1.3162055.7518879-2.6312061,1.4838942-4.0413977.3904034,1.962058.2496252,3.7096351-.0453864,5.448376-.5265625,3.1017386-1.6903421,6.0147018-2.9938957,8.8356874ZM82.8072644,82.0367171c.9296179-2.1719199,2.7211756-3.5590166,4.3044781-5.2314852.6014702.9266055.1771274,1.5764744-.3554598,2.1673009-.6629226.7354203-1.5160262,1.2425028-2.3149071,1.8138493-.5574896.3990388-1.0902777.8322178-1.6341111,1.250335ZM84.68839,54.0031859c-.8986908,3.0268309-2.5070964,5.7403752-3.8624628,8.5687913,1.0896752-2.9414804,2.1891908-5.8785426,3.8624628-8.5687913ZM82.1411287,78.6889682c.0865555-.3494351.1945992-.695657.3193114-1.0336451.7526912-2.0425887,1.3483375-4.0797552-.4452285-6.2486627.7585152.1377658.9999065.4496467,1.2668026.6783861,1.1232129.9633564,2.1901949,1.984952,3.1360796,3.1282474.2500268.3020405.4337815.5376079.0544235.9008999-1.6975718,1.6256765-3.5606232,3.0963163-4.8041301,5.1718403-.0747068-.948897.2654903-1.7596266.4727415-2.5970659ZM102.2756192,131.1664886c-.0196808.2576582.0152627.5353988-.0696862.7693597-.257859.710518-.6171345.7583143-1.1501235.2331576-.8571201-.844669-1.5728596-1.6845182-.8073156-2.9924899.242998-.4151048-.0397633-.8930677-.2419938-1.3067668-.3307584-.6759762-.6904356-1.3421119-.8396484-2.0877743-.1227039-.6135197.0847481-.9852463.7645399-1.1039338,1.4312781-.2500268,1.6403367-.1717052,2.2916114,1.1091552.5633135,1.1081511,1.1547424,2.2120848,1.3854901,3.446153.1022198.5462434.3343732,1.3262468-.8030983.89849-.4548681-.1709019-.5996628.1233064-.5297757,1.0346492ZM95.5592356,127.7508609q-.3956248.5932364.5289724,2.4207418c-1.0653754.1809431-1.3332756-.0084346-1.4744555-1.0410756-.0598458-.4381996-.020685-.9201791-.555883-1.2421012-.2500268.5932364.0767151,1.1187948.0544235,1.7068097-.6364137-.3000322-1.0834496-.9334335-1.8951833-.8336236.4363922.5325873.8776042,1.0093453,1.2414987,1.5389202.2020297.2940075.2907943.7048949-.0532186.9836397-.3040487.246412-.6404302.0502062-.919175-.1050314-.7145345-.3980347-1.1031305-1.6007742-.9147568-2.6414482.1602582-.8852356.6653325-1.3206237,1.6831124-1.2344699-.6181386-.841255-.4934265-1.4879107.1777299-2.1428003.6687465-.6526805.8719811-1.4252534.2620763-2.2954271-.2482194-.3540541-.5064801-.7607242-.4416137-1.3742439,1.2214162,1.2788521,2.4173277,2.4480539,3.2613943,3.9144764.1359584.2361699.3960264.5508623.0373534.7753844-.2956141.1849596-.4219328-.2054437-.6340038-.3221229-.3345741-.1839555-.5811869-.968377-1.0159725-.4227361-.4018504.5044718-.1761233,1.0422806.5141114,1.4053717.7135304.3753415,1.4296715.8848339,1.2866843,1.9018106-.0319311.226932-.035546.4912174-.3321642.5289724-.1512211.0192792-.3574681.0018074-.4629011-.0881621-.3018396-.2576582.0807316-.340398.1520244-.5151155.1968083-.4819794-.2293419-.6587052-.5000537-.9177692ZM94.3894313,120.4548971c1.941373-.8326195,1.8512027-1.2059527,2.2110807,1.1442995.1821481,1.1892843.3675093,2.2926156,1.376453,3.2413118.8739894.821775.6723613,2.2345772,1.0567399,3.5441555-.7115222-.3675093-1.1280327-.7820117-1.2529457-1.3150006-.5285708-2.2572704-1.9550291-3.8905783-3.6222764-5.3572015-.6900339-.6068925-.5621085-.9175684.2309485-1.2575647ZM96.9087781,130.9548193c.4076743-.2237188.8004875-.4735448,1.0479036-.8689688.4434211-.708309.8097255-.6052859,1.2021371.0417716.492824.812537.9916727,1.618246,1.1591606,2.5713603.0636615.5713465-.3032454.644045-.6779844.4994512-1.0464979-.4038586-1.9086386-1.1306435-2.841068-1.7325153-.3195122-.2060462-.098605-.3966289.1098511-.511099ZM102.6744572,122.2715579c-.66473-1.4865049-.0471938-2.8203831.4759547-4.1667123.1815456,1.4230443-.0066272,2.8119484-.4759547,4.1667123ZM91.4322866,120.7595482c-.6398277.2301452-1.1547424.5986586-1.548359,1.1545416-.1335485.1887753-.2068495.531784-.5811869.3405988-.2703101-.1379666-.3777514-.3815671-.3478285-.6510739.0574359-.5185296.1255155-1.040674.2516334-1.5459491.2998314-1.2015346.7615275-2.3450308,1.3744447-3.6309118.4590854,1.3527556.8472797,2.5585076,1.2816637,3.7471894.1745167.4777621-.1966074.5014594-.4303675.585605ZM89.4726385,127.1724856c.3074627-.3948215.4494458-.7544987.2488219-1.2563598-.2070503-.5177263.0247014-1.0366575.1580491-1.5409285.1407782-.5335914.3410005-1.0340467.2978231-1.6236683-.0467922-.6370162.940864-1.6009751,1.5843066-1.7182567.2460103-.0447839.3648986.0634606.4635036.2522359.1823489.3488326.363292.6984685.5510632,1.0442888.5484524,1.0109519.6366145,1.9295244-.3088685,2.818174-.5685349.5343947-.9679754,1.2364781-1.2941148,1.9632629-.9390566,2.0907867-.4763564,3.7295168,1.4178229,5.015197.2070503.1407782.5655226.1943984.5596986.4876025-.0064264.3187089-.3739357.31168-.601671.4012479-2.336797.9189741-3.8933898-.2650887-3.9494199-3.1479283-.1118594-.9193758.2251246-1.863453.8729853-2.6948676ZM89.823881,133.9525306c.9380525,1.0284236,1.8429689.5127056,2.7314177.1476062.9406632-.386186,1.8742976-.7924545,2.7922676-1.2290476.9808282-.4665159,1.7656514-.3458203,2.5554952.4126949.3476277.3337708.3902025.583396-.0761126.8139428-.1763241.0871579-.3454186.2014272-.531784.254445-1.4957429.426351-1.6162377,2.5101088-.4865984,3.4604116.8918628.7504822,1.9662753,1.1720134,2.9119592,1.8319235-3.0328557-.735822-6.1060771-1.3694241-8.6461088-3.3577901-.6850133-.5362021-1.3856909-1.1189956-1.2505358-2.3341863ZM122.0038412,125.3638577c-.0678788.379358-.1984149.3924116-.520337.2791464-1.910446-.672763-3.2577794-2.4627141-3.3836965-4.4912451-.0297221-.4795695.1373641-1.1665911-.3271435-1.3589812-.3998421-.1656804-.6974644.4890083-1.0605556.7534945-.1034248.0753093-.2050421.1528276-.3319633.2478178-.0660713-.090572-.1670862-.1644755-.1628689-.2319526.531784-8.4129512-.2020297-16.8331322.1321427-25.243071.1502169-3.7793213-.6926446-7.2927507-2.0853644-10.7324773-.2833637-.6996735-.6378195-1.3710307-1.1238154-1.9592464-.1200932-.145598-.2263295-.3626895-.4558722-.3146924-.27272.0570342-.1881728.3088685-.1817464.4855943.0130536.3675093-.0749076.5988595-.5010578.4490442-4.1072682-1.4461392-7.5453882.1576474-10.7497482,2.4854073-1.008542.7326088-1.7313103.8004875-2.7316185.0961951-3.0445035-2.1438044-6.4731848-2.9581489-10.168963-2.7484878-.5470467.030927-1.0971057.0042173-1.645759.0042173-.01948-.0763134-.0387592-.1526268-.0580384-.2291411.5966504-.4544665,1.1784397-.9298187,1.7921602-1.3599853,2.4896247-1.7449664,3.2310697-4.08337,2.4801859-6.9901077-.5665267-2.1930065-1.0155709-4.4093086-1.3419111-6.6571403-.2932042-2.0196947-.2172924-3.982556.2361699-5.9616841.6637259-2.8966965,1.5521746-5.7502156,1.6616241-8.8995496.6789885.460692,1.0665803.9850455,1.4865049,1.4684307,1.1210039,1.2896967,2.2030477,2.6119269,3.4176359,3.8208921,1.8013982,1.7929635,3.8118549,2.1932073,6.1042697,1.0378624.2586623-.1305361.5394153-.2180957.969582-.3889976-.1030231,1.365006-.1807423,2.6201608-.298024,3.8717007-.0775184.8253898-.0570342,1.6409392.079125,2.4560869.1660821.993681.6918413,1.749987,1.4975503,2.3420185,1.6533903,1.214789,3.5302986,2.0192931,5.3441479,2.9398738,2.1371772,1.0848554,4.2675263,2.1687067,6.2828029,3.4873221,2.9619645,1.937959,3.9889824,4.7728015,4.2625057,8.1233619.3241312,3.9691007.2442029,7.9514559.5402186,11.9189501.2966182,3.9723139,1.1141758,7.8671095,1.7094204,11.795242.5510632,3.6369366,1.2374822,7.282107.6731646,10.9762786-.4357897,2.8545233-1.0334443,5.6839434-1.5407276,8.527823ZM118.5014573,70.4609765c.2883844.383977.5777729.7653432.8151477,1.4603977-3.7740999-2.4139137-7.7170934-4.3548851-8.0241545-9.6397897.1962058.2271328.2683019.2713143.2733225.3219221.2052429,2.083557,1.6811041,3.2370945,3.1754413,4.3950501,1.3497433,1.0460962,2.7197698,2.0769298,3.760243,3.4624198ZM116.9765948,67.9685403c2.6055006.046993,4.3209457,2.4564886,3.3284697,4.7342431-.7524904-1.8738959-1.7714753-3.435911-3.3284697-4.7342431ZM114.6912089,70.367593c-1.4083841-.7107189-2.949915-1.2473226-3.6540067-2.8772165,1.1963132.9870537,2.4163236,1.9435821,3.6540067,2.8772165ZM111.1277742,58.1622668c-.0831415.0032132-.1664837.0064264-.2496252.0096396.1425856-3.567652.2849703-7.1353041.4273551-10.7027553,1.590733,3.6156491.7792001,7.1565915-.1777299,10.6931157ZM78.7761088,58.7789997c.6645292-1.6086064.4163097-3.0051418-.8462756-4.2281647-.8247873-.7988809-1.7054039-1.5477565-2.3512564-2.5175393-.9972958-1.4973495-.9989024-2.2094741.0327344-3.6750933.8386442-1.1916942,1.8626497-2.2287533,2.9581489-3.1643959,2.3412152-1.9988089,3.7082294-4.5394431,4.1321705-7.5216909.8934694-6.2834054,4.9113706-10.2651581,9.7811704-13.6655231.2946099-.2054437.6243642-.3636937.9472904-.5245543,1.352354-.6735663,1.399347-.6552912,1.8168617.7661465.3367831,1.1469103.9995049,2.1383821,1.5011652,3.2063683.4713357,1.0033205.4092809,1.1852678-.6558937,1.4101915-4.6731924.9860496-8.0623112,3.7285127-10.4378674,7.7534427-2.2195153,3.7606446-4.1582777,7.6767276-6.1191307,11.5787529-1.1469103,2.2819719-1.0398707,4.5259878-.0899695,6.8471205,1.0967041,2.6796049.3787555,4.8230077-2.2586762,6.6523205.6478607-1.122008,1.1997272-1.9737058,1.589528-2.9173814ZM76.5294821,64.127365c1.2489292-1.6363202,2.7721851-3.0420936,3.9867733-4.9031367.2313501.8751943-.0106437,1.5216493-.2907943,2.1257302-.5245543,1.1306435-1.0954991,2.2410036-1.6819074,3.3413225-.8143444,1.5278748-.9713894,3.068-.4398062,4.7489033.7804051,2.4673331,1.7923611,4.8720089,2.1462143,7.4650583.0909736.6663366.0676779,1.3135948-.1530285,1.9437829-.0994083.2829621-.3140899.5062792-.5339931.1046297-1.5569944-2.8426746-3.5088104-5.4879385-4.3315894-8.6987249-.5799819-2.263496-.1042281-4.2898179,1.2981313-6.1275654ZM76.6656413,75.3169195c-1.8269029-1.2842744-2.5285847-3.1611827-2.743668-5.2943434,1.1081511,1.6628291,1.9303277,3.4762768,2.743668,5.2943434ZM74.5238452,65.3299037c.0913753.9999065-.2972207,1.9016097-.535198,2.8340391-.2277353-1.028022.0562309-1.9510126.535198-2.8340391ZM103.6773761,145.9704873c-.1528276.3291518-.4026537.6151263-.8053073.6548896-.4673192.0461897-.7685564-.2488219-.911142-.6235609-.3265411-.8575218-.7014809-1.5318913-1.7437615-1.7781025-.6221551-.1470037-1.1434962-.7418467-1.8042097-.9699836-.223518-.0773175-.4689258-.1690945-.6010685.106638-.1028223.2144809.082539.3857844.2347642.4843893.5219436.3387914,1.0671828.6416351,1.5963561.9697828,1.3812728.8565176,1.7443639,2.8310268.7717696,4.134982-.3283485.4400071-.6129172.6247659-1.0687894.0923794-.5860067-.6844108-1.2184039-1.3166072-1.0302311-2.6167467-.6751729.6948537-1.0981098.5313823-1.5220509.0915761-.17532-.1817464-.4261502-.3088685-.6651316-.4058669-.2600681-.105433-.5755638-.066473-.7022842.1873695-.13636.2731217.1980132.3685135.3592755.491619.5498582.4197238,1.1057412.8308121,1.5399243,1.3760513.640631.8049057.8611366,1.668653.3636937,2.6474729-.4773605-.1301345-.6442459-.520337-.8121354-.852702-.5699407-1.1270286-1.4995586-1.7957751-2.6490795-2.2156997-1.1663903-.4259493-2.0845611-1.1943049-2.998113-2.0192931-3.4041807-3.0738239-6.5515064-6.3621287-9.0881241-10.2097304-.8370376-1.2696142-2.0488143-2.2181096-3.1429076-3.2609926-4.4038864-4.1964344-8.7479269-8.4330337-12.62264-13.1566331-2.6113245-3.1836751-3.3397159-6.5711873-2.7990956-10.5505301.7255799-5.3421397.7589168-10.752359,1.1939033-16.1260281.4167114-5.1447289.9348393-10.2772076,2.3667199-15.2628833.7948644-2.7683694,2.3052675-5.0585751,4.6631511-6.772012.5841993-.4245436.9848447-.5165213,1.1430946.3024421.4544665,2.3544696,1.8769083,4.0835709,3.5925543,5.6210853.9006991.8071147,1.3228328,1.7519953,1.0920851,2.9732107-.0785225.4157073-.0407674.852702-.0620549,1.2796554q-.0781208,1.5706505-1.6078031,1.704199c-1.1268278.0984041-1.2878892.3803621-.8077172,1.3899082.0684812.1441922.1271221.3088685.1313394.4655118.1044289,3.8455935.8442673,7.6506204.731203,11.5096692-.1162775,3.9678958-1.1027288,7.7954151-1.8668671,11.6602878-.3434104,1.7371343-.832017,3.4491654-.9304212,5.2326902-.0891662,1.6190493.3851819,3.0218103,1.3997486,4.2928303,3.4455506,4.3167284,6.8288455,8.6812531,9.9129114,13.2692958.8253898,1.2278426,2.2857875,1.8299153,3.1623876,2.9115575.8510954,1.0501127,1.0961016,2.5713603,2.0753232,3.642158,1.3830802,1.5118089,3.1660025,2.3046651,5.0631941,2.9119592,1.4995586.4797704,3.0398845.8346277,4.4852204,1.481886,1.3386979.5996628,2.4149179,1.4734513,2.9589522,2.8740033.1970091.5066809.6450492.7205593.9956892,1.0535267.2839662.2695068.6155279.5607028.4076743,1.0077387ZM104.9963932,144.7014756c-1.8009965-.6866199-2.2843818-2.1895925-2.5528845-3.8584463-.1176833-.7297972.1966074-.7538962.7546995-.4815778,1.3579771.6629226,2.7816239,1.1543408,4.2528661,1.492128.3689151.0847481.5860067.2341617.6621193.6002652.2251246,1.083048.4552698,2.1652927.7169444,3.4075947-1.4282658-.3229262-2.6378333-.7040916-3.8337448-1.1599639ZM107.3578916,140.9032767c-1.2051494-.1915868-2.3588877-.5783753-3.380885-1.2726266-1.2348715-.8386442-1.3627969-1.8497969-.3648986-2.9706.3580706-.4020512.683005-.8729853,1.3270501-1.0661787.0251031.1954025.0259064.2622771.0429765.3247337.0937852.3416029-.2219114.9876562.2560516.9792216.5783753-.0102421.4681225-.702485.4410112-1.1226105-.0590425-.9143552-.2094602-1.8224848-.3090693-2.7346309-.0644648-.5906256-.0140577-.8510954.7741795-.6366145,1.7859347.4861968,2.8822371,1.6005734,3.5132285,3.2696281.3825712,1.0111527.7619292,2.0233096,1.1428938,3.0350647.0672763.178734.2152842.3753415.0289188.5400178-.2152842.1901811-.4267526.0259064-.6259708-.0821373-.3562631-.1935951-.5858059-.5173246-.8454723-.8129387-.3634928-.413699-.6072941-.934036-1.140283-1.2923074-.0224924.836636.4880042,1.4553771.6414343,2.177543.2255262,1.0593507-.4215312,1.83594-1.5011652,1.6644357ZM110.3212619,146.3114878c-.7705646-.0684812-1.1511276-.7796018-.9864513-1.8773099.3964281.2839662.1954025,1.2402938.7601218,1.0410756.5064801-.178734-.0224924-.8484847-.0407674-1.3031519-.0200825-.5006561-.3211188-1.0181816.5394153-1.1683985.3424062-.059645.3167007-.5986586.3488326-.9541185.0690837-.7647407-.0391608-1.5513713.2779415-2.3743512.4406095.7324079.6181386,1.4838942.6105073,2.2150972-.0098404.9486962.0755101,1.8877528.0945885,2.8312276.0192792.9555243-.7350187,1.6670464-1.6041883,1.5899297ZM113.5957098,141.0623299c-.7546995.363292-1.1001181.173111-1.0856587-.6665374.0315295-1.8461821-.0582392-3.6666586-.8187626-5.4049978,1.7009858,1.3035536,2.4807884,3.0226136,2.4699438,5.1144044-.0024099.4289617-.1642747.7639374-.5655226.9571309ZM116.9998905,139.6862786c-.2480186.4255477-.6858166.5777729-1.1517301.6653325-.4247444.0797274-.7812084.0186767-1.0141651-.3900017-.3871902-.6781852-.4175147-1.4288682-.5044718-2.3201286.6263725.6434426.5416244,1.4069783.8438657,2.114484.7882372-1.5859132.7804051-1.5847083-.4100842-2.7430655-.5104966-.4964388-1.3854901-1.0527234-1.1844645-1.6664439.1749184-.5341939,1.222822-.2936058,1.8869495-.3735341.8832273-.1062363,1.7732827-.1194907,2.6332144.137565,1.1898868.3554598,1.4593936,1.0790315.8719811,2.1701125-.5263617.9774142-1.5130138,1.3003404-2.4088931,1.7017891-.0763134.4130966.7157395.2265303.437798.7038908ZM119.1529328,142.3361615c-.0646656-.0072297-.1325443-.0058239-.1935951-.0257056-.6390244-.2076528-1.5495639-.1369625-1.8013982-.7870323-.2064479-.5329889.5882157-.921384.9288146-1.3808711.0967975-.1305361.2044396-.2606706.3317625-.3594763.3181064-.2474161.4890083-.8695713.926003-.7237725.4602904.1536309.6119131.7221659.7328096,1.2085635.288786,1.160968-.1148718,2.0701017-.9243964,2.0682943ZM119.859836,138.9540715c-.1522252-.3309592-.1072404-.6478607.1586516-.8940719.5980562-.5532722,1.3545631-.7012801,2.3349896-.8918628-.605085.9517086-1.3810719,1.4111957-2.0986188,1.9275161-.159254.1146709-.3160982.0295212-.3950223-.1415815ZM122.6259964,143.2575455c-.6197452.1010149-1.2449127-.0959942-1.6527879-.663525-.4602904-.6404302-.4799712-2.3590886-.0831415-3.0445035.2534409-.437798.4649093-.1873695.6960587-.0132544.8145453.6141221,1.320222,1.6393326,1.3459276,2.7735909-.0998099.288786.2251246.8613374-.3060569.9476921ZM161.4197187,275.3275451c.004619.4532615-.3026429.6089007-.6048842.8099263-1.4505573.964963-2.9254144,1.9044213-4.1273507,3.1850808-.4787662.5100949-1.3334765,1.2475235-.8470789,1.7698687.4546673.4884058.9721927-.5530714,1.4553771-.9123469.6269749-.4659135,1.175829-1.0370591,1.7582209-1.5628184-2.0315434,4.3066872-5.0905063,7.1053812-10.2191692,6.6870632.0576367-.3030446.4018504-.5165213.6438442-.7749828,2.372343-2.5319987,4.4844171-5.287917,4.8878741-8.8133958.2385798-2.0855652.9870537-3.0047402,3.056553-3.1398953,1.1641812-.0761126,2.2606844-.66473,3.3059774-1.2244286.5287716-.2831629.7155387-.1237081.7107189.4261502-.0106437,1.1834604-.032132,2.3667199-.0200825,3.5497786ZM178.3829853,258.3393762c.1885745-6.4149456-1.313394-12.5937213-3.2079749-18.6640516-3.7998055-12.173395-6.2502693-24.6191085-7.8502402-37.2566095-.9282121-7.3327148-2.03315-14.643138-3.0549464-21.964205-.0494029-.3542549-.0648664-.7131288-.0959942-1.0697935,4.4464612,6.1303769,9.3050149,11.7882131,14.7640346,16.9413767-6.1311802-8.0024654-12.708593-15.7075093-16.3455296-25.3406719,1.8877528,1.7425565,3.7485951,3.5027856,5.9691146,4.8778328-.2946099-.3614846-.5858059-.7257807-.8844323-1.0838513-4.1978402-5.0336728-7.2913449-10.6591763-9.1853233-16.9478031-.4245436-1.4097899-1.0471003-2.7611398-1.6049916-4.1285556-.1405773-.3444145-.2540433-.7442566-.672763-.9599424-.4008462.7040916-.2779415,1.4521639-.0463905,2.0381706,1.1031305,2.7914643.5773712,5.5819245.0861538,8.3567203-1.8307186,10.3402665-2.3279607,20.7590556-2.0269244,31.238092.1757217,6.113106.2534409,12.228421.8958793,18.3180305.2654903,2.5171377.5765679,5.0292547,1.0808389,7.5086373.1803406.8860389.1016173,1.6501771-.270511,2.4673331-.9264047,2.0337524-1.7566143,4.1082723-2.0899834,6.3406404-.0648664.4349865-.0982033.874391-.1462004,1.3117874.0787233.0208858.1572458.0419724.2357683.0628582.702485-1.4917264,1.4047693-2.9832519,2.1070535-4.4749783,1.2523433,3.6038005,3.5935584,6.8069556,2.8930816,10.9337037-.5428294,3.197532-.8277997,6.4537048-.9298187,9.7110825-.0992074,3.1656008.1678895,6.2832046,1.3097791,9.3088305-.0407674-.7073048-.0817357-1.4148105-.1237081-2.1446077,3.4527803,1.2909016,5.1455322,4.7952938,4.3599057,8.6370717-.9135519,4.4677486-3.6266945,7.1505667-7.9317751,8.3669624-.483586.1367617-.8370376.2761341-.8703745-.507685-.2962165-7.0156125-1.6057949-13.897074-2.8703884-20.7785356-.8701737-4.7340423-1.5298831-9.4636664-1.1973173-14.299326.2825605-4.1094773-.8880471-7.9884077-2.0221046-11.8807933-3.1772487-10.904785-6.221953-21.8485299-9.4335427-32.7432737-4.3661313-14.8124333-9.6112726-29.3184081-15.5311852-43.5795774-.33116-.7980776-.5402186-1.3164064.4371955-1.8696786,1.0479036-.5930355,1.2662002-1.7831231,1.3840843-2.9185864.0473946-.4568764-.0028115-.9247981.0580384-1.3788629.1247122-.9298187.0202833-1.5511705-1.1250204-1.8198741-.9995049-.2343625-.1170808-.7056982.1355567-.8723828.5785762-.3819687,1.0583465-.7524904.5508623-1.469234-1.8011974-2.5446507-1.4935338-5.4232729-1.3360872-8.274583.0668746-1.2137849.2506293-2.4217459.296819-3.6355308.027513-.7205593.320918-.8388451.9723935-.8067131,2.395237.1184866,4.7830435.4213304,7.1871168.3335699,2.9999204-.1092487,3.4007666-.4976438,4.6649586-3.6027964.7450599-1.8299153.0210866-3.2115897-1.8226856-3.9387762-1.586114-.6255692-3.2628-.7456624-4.9412934-.7599209-1.2479251-.0104429-2.4978585.0632598-3.7445786.1387699-.536403.0325336-.757511-.1092487-.7641382-.6878248-.0731002-6.3370256-1.519641-12.5176087-2.1564564-18.7903704-.418318-4.1195185-.7456624-8.2484757-1.0971057-12.3746215-.2482194-2.9147707-.5231485-5.8259266-.9013016-8.7270412-.0759118-.5844001-.1124619-1.1796447-.100814-1.7684629.0178734-.8874447.298024-1.6196518,1.1039338-2.1713174,1.087667-.7442566,2.0000139-1.7116295,2.8127517-2.7500944,1.9034172-2.4327913,1.9562341-4.091403-.6394261-6.8260339-.7798026-.821775-1.8377475-1.2752373-2.871995-1.6901413-2.7300119-1.0954991-3.9307432-3.2268524-4.2400134-6.015706-.0379559-.3418038-.0066272-.569539.3405988-.6994727,2.5775859-.9647622,5.0188118-2.2444176,7.7269338-3.4306895,0,1.5750687-.0771167,3.0125724.0130536,4.4396332.4522574,7.1585997,2.6900478,13.8320068,5.6893657,20.2734613,4.4085053,9.468687,10.266363,18.0282404,16.6433528,26.2532196,1.1481152,1.4808818,2.3165137,2.9463002,3.5021832,4.3970583.3339716.4086784.5064801.7579127.3379881,1.3196196-.4307691,1.4362987-.2122718,2.8063253.6942512,4.0209135.3865877.5183287.2472153,1.0663795.1948,1.6100122-.7137312,7.4038068-2.1034386,14.6945492-3.7618496,21.9344829-1.1651853,5.0868914-2.2839801,10.1886438-3.8562372,15.1735163-.3657019,1.1595622-.758716,2.3064725-1.3625961,3.3708438-1.1479144,2.0227071-2.8798272,3.0770371-5.1989516,3.2222334-1.9016097.1190891-3.8084409.198214-5.6899682.5428294-.7137312.1307369-1.4128023.3036471-2.0723108.6103065-.4122933.1917877-.8073156.4106867-.9750043.9976975,1.2451136.0271113,2.3602935-.2640846,3.4823015-.4355889,1.2493309-.1909844,2.4866123-.1797382,3.7337341-.0437798,4.6039078.5018611,7.6076439-1.1374715,9.4484037-5.3913418,1.7913569-4.1404043,2.8340391-8.5322411,3.9221077-12.894356,1.3748464-5.5130416,2.5211542-11.0772934,3.4296854-16.6885383.0357468-.2207064.0546243-.4548681.2638837-.6350079.3544557,7.1214471.6751729,14.2288366,3.0063468,21.0558746-1.85542-8.8543641-1.7009858-17.8868597-2.3396086-26.8683459.5307799,2.1042419,1.0539284,4.2104921,1.5939462,6.3123241,1.6439516,6.3992813,3.4453497,12.745344,6.4840293,18.6588301,1.7724794,3.4499687,3.9146772,6.6236025,7.0113952,9.0463526,3.6949749,2.8910734,7.8634947,3.6142434,12.3822528,2.6263863,1.1764315-.2572565,2.1998345-.8617391,3.1415019-1.590733,2.9687926-2.2976362,4.9270349-5.2425306,5.6923781-8.9481492.1233064-.5978553.2156858-1.2155923.6321964-1.863453.3303567.5791786.343812,1.1141758.3430087,1.6473656-.0040165,2.1743298-.3532508,4.3235565-.4851926,6.4862384-.1636722,2.6896461-.2936058,5.3923459-.2178949,8.083197.1803406,6.414544-.6846116,12.7156219-1.7457697,19.0114784-1.2555565,7.4505989-2.4151187,14.917063-3.3857048,22.4112409-.0652681.5036685-.0604483,1.0163742.003414,1.5355062,2.2179088-7.1417304,2.9872684-14.6009648,4.9009277-21.8081642.0249023,3.6495885.0634606,7.2917465-.2883844,10.9106089-.7617283,7.8353792-.8265948,15.6948574-.8719811,23.5511223-.0498045,8.613776-.3305576,17.2335767.1554384,25.8419305.3096718,5.4799055.7870323,10.9503722,1.1977189,16.4244538.024099.3189097.1257163.6321964.2877819.9450814,1.430274-9.5060405.8418574-19.0998413,1.2856802-28.9039057.5339931,1.1350616.7679539,2.1106683,1.0296286,3.0724181,1.3808711,5.0750427,2.4725546,10.211337,3.2316722,15.4175184.1036256.7109197-.066473,1.3732398-.284167,2.028531-1.4148105,4.2608991-3.5612256,8.1816011-5.6668733,12.1197748-.5980562,1.118594-1.2475235,2.2096749-2.0016205,3.5395366,4.697693-3.0051418,6.9274504-7.3935647,8.4995067-12.2629629.1096503,2.1217137-.1608606,4.1898072-.3767473,6.2601097-.0783217.7508838-.2245221,1.4943371-.319713,2.2438151-.2399856,1.890966-.6803943,3.682323-2.2578729,4.9700114-.417113.340398-.6105073.8464764-.82057,1.3298616-.9699836,2.2317657-1.782119,4.5205656-2.4217459,6.8674038-.1253147.4594871-.2907943.7273873-.7934587.8458739-2.5307937.5958471-5.0698213,1.1033313-7.6813466,1.1862719-.58681.0186767-.8966826-.1660821-1.1129709-.7069032-1.9720992-4.9304489-3.6449696-9.895038-3.4849122-15.3422091ZM124.5599389,122.2779843c.2666953-1.4865049.5227469-2.9760223.7306005-4.4715643.0720961-.5175254.2685027-.6466558.7627325-.5894207,2.9089468.3363815,5.8259266.5424277,8.7565624.3932149.4755531-.024099.6645292.1425856.6014702.6187411-.0473946.3574681-.0247014.7271865-.0967975,1.078429-.7374286,3.5971733-.8127378,3.2571769-3.8476018,3.4750718-.9175684.0658705-1.837145.1028223-2.8989055.1606598-1.0410756,0-2.2251384-.0224924-3.4075947.0102421-.5309807.0146602-.6958578-.1431881-.6004661-.6753737ZM182.7125665,282.244151c-.6107081-.3474269-.4522574-1.2386872-.8559152-2.119103,2.2154989,1.2196088,4.3747668,1.9301269,6.1719476,3.3931353-1.9285203.1819472-3.6941716-.35064-5.3160325-1.2740323ZM195.0060548,287.4133805c-1.0288253-1.4607994-1.8678712-2.6306037-2.684023-3.8160723-1.8120419-2.6320094-4.2568826-4.1241375-7.4961862-4.2153119-.3932149-.0112462-.7856265-.0568334-1.1780381-.0915761q-1.7252856-.1528276-1.4495532-1.9020114c.2261287-1.4328847.2261287-1.4437293,1.6395334-1.434893,1.8206774.011447,3.5947634-.3020405,5.3413364-.7739787.6064908-.1636722,1.0625639-.071092,1.5049808.3835753,1.625074,1.6704604,3.255972,3.3361011,4.9183994,4.9690073.5934372.5829943,1.0699944,1.3842851,2.0190922,1.4666233,1.6479681.1427864,3.2806734.0982033,4.8382703-.5623094.0301237-.0128528.074506-.020685.0861538-.0437798.7318055-1.4682299,1.5441417-.5315832,2.3307723-.0731002.9346385.5448376,1.8443747,1.1350616,2.7972882,1.6449557.5554813.2972207.6510739.4667168.1305361.9446797-2.3500514,2.1586654-5.221444,2.4131104-8.1930481,2.333383-1.0167758-.0273122-2.0321458-.1052322-3.0483192-.1564425-.7685564-.0387592-1.4640126.0451856-1.5571953,1.3272509ZM205.9261024,289.7479685c-2.5824057.6010685-5.1808774.8665589-7.7903944.1369625-1.1067453-.3092701-2.0188914-.8952768-2.7705785-2.0130675,1.9038188.4900124,3.69377.6279791,5.4911517.4661143,1.4037651-.126118,2.8037146-.3179056,4.1958319-.5400178,1.7387409-.277339,3.4471572-.0062256,5.1877054.1931934-1.337493.8611366-2.7930709,1.402761-4.313716,1.7568151ZM119.1338545,167.4699838c-1.0489078-5.0129879-2.2064617-10.0060941-2.9754198-15.0743088-.1470037-.9693812-.2128743-1.9512135-.3307584-3.0649876.527165.367911.5450384.8300088.6205485,1.2121783,2.2894024,11.5723265,5.9448148,22.8048575,8.5127611,34.3093052,2.340211,10.4842579,4.4024806,21.018722,6.1327868,31.6190566,2.2546597,13.812326,5.0061598,27.5202231,8.3508964,41.1132484,1.6080039,6.534838,3.0776396,13.1090376,3.9472108,19.7959.202833,1.5600068.4012479,3.1250342.1945992,4.6932749-.7651424-3.6887494-1.3744447-7.3785028-2.1743298-11.0321079-1.9455904-8.8870985-4.330987-17.6639442-6.6954978-26.4436015-3.0947097-11.4907916-5.4477735-23.1281854-7.4550171-34.8537412-2.4211434-14.1442893-5.1887096-28.2265238-8.1277801-42.2742164ZM64.0004264,258.2588455c-1.8007957,6.0707319-2.5402325,12.2726025-2.336797,18.5957712.1227039,3.81065.2199031,7.6219025.1072404,11.4672951-.1024206-.7247766-.2640846-1.4469425-.2970198-2.1749323-.1688936-3.7433737-.3707225-7.4869482-.4396054-11.2327318-.1889761-10.2649573,2.3122964-19.9557565,6.8228207-29.0836439,5.9777501-12.0976841,9.2256891-24.9516743,11.3357549-38.1779936,1.3814736-8.659564,2.4958502-17.3613013,4.1024484-25.9849177,1.876105-10.0703581,3.8241053-20.1256543,6.5251984-30.016475.1588524-.5813877.3030446-1.1830587.7874339-1.8849413.1464013,1.7684629-.1986157,3.2658124-.4771597,4.7543256-2.8764132,15.3671113-5.4349207,30.7874412-7.8333709,46.2356858-1.3553664,8.7298527-2.8567323,17.4358073-5.2728551,25.9509783-1.3593829,4.7910765-3.5001749,9.2672598-5.6483975,13.736615-2.7886527,5.8018276-5.5379438,11.6191187-7.3756913,17.8149645ZM57.3961031,241.533757c-.8920636,4.3723569-1.187276,8.8107851-.8494888,13.2468034.4301667,5.6514098-.2928025,11.1489879-1.7208674,16.5837078-1.6650382,6.3370256-2.4368078,12.7644223-2.1516366,19.3173346.0616532,1.4204336.0090371,2.8460886.0090371,4.2691329-.0951909.0036148-.1903819.0072297-.285372.0110454-.0877604-.8898546-.1859637-1.7789058-.2616747-2.6697645-.6894314-8.1066935.1600573-16.0669857,2.2006378-23.9280704,1.117389-4.3050806,1.2965247-8.6945076.9000966-13.1150624-.523751-5.8369719.0044181-11.6171104.9344377-17.3781706,1.6901413-10.4702002,4.4297928-20.6552292,8.1283825-30.5950511,2.5777867-6.9280529,3.9594612-14.151519,4.9951145-21.4462779.3602796-2.5366177.676177-5.0794609,1.0133618-7.6192917.0297221-.2233171.0062256-.4651102.3122825-.7301989-.1138676,1.7941685-.2070503,3.4901337-.3317625,5.1838898-.3446153,4.6856435-.7727737,9.3586351-1.6746778,13.9812196-1.3160047,6.7446999-3.2844891,13.3172929-5.1158102,19.927641-2.2877958,8.2577137-4.3886237,16.5630228-6.1020606,24.961113ZM20.7923749,286.9434506c-6.2771798-.7109197-12.1617472-2.0781347-16.9933903-6.1791773-5.2025665-4.4159359-5.0290539-11.6371929.3203155-15.8840343,4.8860666-3.8789304,10.4211989-4.8938988,16.4491552-3.4949535,1.9130568.4442244,3.776309,1.0292269,5.5122383,2.0841595-1.2135841-.1028223-2.4271682-.2084561-3.6409531-.3086677-4.272547-.3528491-8.4804284-.1413806-12.4910998,1.5588019-2.3526622.997095-4.3271713,2.5038832-5.6990053,4.6886559-1.5581994,2.4813908-1.7064081,5.0539561-.3012372,7.6680922,1.2268385,2.2823735,3.1423052,3.8409745,5.3467587,5.1039615,3.2146021,1.8415631,6.7035308,3.0029328,10.201095,4.1458265.3112784.1018182.6217535.2070503.9270071.3249345.0861538.0331361.152426.1174825.3691159.2924009ZM183.4556181,98.1372405c-.9436756-3.0706107-1.367215-6.1538734-.2885852-9.285334.0851497-.2474161.1761233-.4934265.277339-.734617.0208858-.0494029.0996091-.0747068.2638837-.1899802.191386.9448805.358673,1.8114394.5428294,2.6741826,1.047502,4.9095631,3.6558141,9.0266717,6.6119547,12.960829,1.4796769,1.9694885,2.9979122,3.9060418,4.1054608,6.127967,1.0701952,2.1478209.7826141,4.1341787-.6235609,5.9986359-.7808067,1.0354525-2.1897933,1.5341004-3.2252458,1.2117767-.3522466-.1096503-.7882372-.2618755-.7585152-.6542871.0323328-.4257485.5074842-.2777407.8059098-.3068602,1.8736951-.1831522,3.0766355-2.2642993,2.5434457-4.4227639-.3365823-1.3621944-1.0497111-2.5422408-1.8242922-3.6869419-.4414128-.6526805-.9011007-1.2945165-1.3790637-1.9210897-2.9177831-3.8237036-5.15959-7.9866002-6.3962689-12.6597926-.1076421-.406871-.2662936-.8002867-.4193221-1.253749-.3891984,2.0570481,1.3284558,7.0686302,3.0445035,10.3938868,1.6805017,3.2561728,3.8281218,6.1894194,6.2046821,9.2766986-1.0519201-.3373856-1.6758827-.8920636-2.2958288-1.4226427-3.7630545-3.2202252-5.7702981-7.4885548-7.1893259-12.1059179Z"/>
  </g>
</svg>