<?xml version="1.0" encoding="UTF-8"?>
<svg id="Layer_2" xmlns="http://www.w3.org/2000/svg" viewBox="0 0 202.0487386 301.7674229">
  <g id="Layer_1-2" data-name="Layer_1">
    <path d="M200.5630643,286.8114372c-2.8894043-2.9318848-5.8461914-5.7976074-8.7983398-8.6669922-.6162109-.5991211-.887207-1.2194824-.8469238-2.1037598.197998-4.3515625.4411621-8.706543.125-13.0617676-.6513672-8.9714355-2.1755371-17.8405762-3.1665039-26.7727051-.8063965-7.2670898-1.6352539-14.5275879-1.8181152-21.8520508-.3249512-13.0327148.2314453-26.0620117.052002-39.09375-.0534668-3.8789062.2924805-7.737793.8955078-11.5791016.5910645-3.7670898,1.5744629-7.5737305-.3823242-11.2678223-.1794434-.3388672-.0070801-.5969238.2668457-.8259277,2.4121094-2.0163574,3.8781738-4.7421875,5.5078125-7.347168.6442871-1.0305176,1.0983887-2.1323242,1.2973633-3.324707,1.2233887-7.3244629,2.8486328-14.5864258,3.6066895-21.9824219.6379395-6.2263184.685791-12.4460449-.8928223-18.5808105-1.1464844-4.4545898-2.0039062-8.9558105-2.276123-13.5644531-.2619629-4.4418945-.8786621-8.8171387-2.8146973-12.9099121-1.8303223-3.8693848-3.2175293-7.9018555-4.3591309-12.0285645-.904541-3.2700195-1.9538574-6.4960938-3.5935059-9.4973145-.9526367-1.7429199-2.3452148-2.9018555-4.262207-3.4228516-5.0061035-1.3608398-9.9550781-2.9291992-15.0075684-4.1220703-4.8239746-1.1394043-9.4533691-2.7033691-13.1896973-6.1730957-.3496094-.3249512-.7507324-.5891113-.7563477-1.1530762-.0134277-1.3752441-.3723145-2.7016602-.8178711-3.9743652-.5512695-1.5732422-.2978516-2.9538574.5046387-4.3417969.8779297-1.5187988,1.2250977-3.1872559,1.2717285-4.935791.0578613-2.1633301-.1101074-4.3171387-.2749023-6.4672852-.8515625-11.1152344-6.309082-15.0739746-15.8217773-17.5087891-3.4375-.8798828-6.5766602.6616211-9.4018555,2.6638184-.6777344.4802246-1.3115234,1.0012207-2.1625977,1.2331543-3.4301758.9353027-5.6269531,3.2226562-6.4067383,6.6240234-.6879883,3.0007324-.8728027,6.1166992-.2629395,9.1611328.7924805,3.9562988,1.8425293,7.8574219,3.8430176,11.4165039.5849609,1.0412598,1.1672363,2.3325195,2.4455566,2.4638672,1.6328125.1682129,2.1674805,1.2080078,2.6960449,2.4313965.1894531.4384766.373291.907959.6765137,1.263916,1.6708984,1.9594727,1.1896973,4.0405273.4394531,6.1650391-.2929688.8291016-.7692871,1.4516602-1.5415039,1.9003906-2.2468262,1.3056641-4.5651855,2.4667969-6.9216309,3.5568848-3.7319336,1.7268066-7.4787598,3.420166-10.9855957,5.5939941-.7219238.4477539-1.0263672.9379883-1.0212402,1.8139648.0109863,1.9042969-.2963867,3.7768555-.9931641,5.8369141-.1586914-1.130127-.2714844-1.9880371-.4008789-2.8435059-.2321777-1.532959-.762207-3.0061035-.6972656-4.6018066.2119141-5.229248-2.0075684-9.411377-5.7336426-12.9023438-.6513672-.6103516-1.416748-1.029541-2.342041-1.0993652-.7226562-.0546875-1.2070312-.2810059-1.3696289-1.1594238-.2192383-1.1845703-1.0288086-1.90625-2.2675781-2.1821289-2.8449707-.6330566-5.6411133-.3103027-8.4267578.3227539-4.4750977,1.0175781-8.5251465,2.7324219-11.1152344,6.8310547-1.859375,2.9423828-3.2475586,6.0336914-2.3195801,9.5932617.2785645,1.0688477.1108398,1.6503906-.6640625,2.3232422-1.4807129,1.2856445-2.2109375,2.8479004-1.2695312,4.7885742.2727051.5622559-.079834.7919922-.3876953,1.0969238-1.255127,1.2424316-2.4331055,2.5490723-3.1394043,4.1965332-.6743164,1.572998-.7165527,3.1166992.4396973,4.5078125.8483887,1.0205078.8032227,2.0385742.076416,3.0668945-.5532227.7824707-1.177002,1.5151367-1.7231445,2.302002-.6489258.9353027-.9606934,1.9807129-.3930664,3.0439453.6455078,1.2092285,1.6899414,2.0534668,2.9733887,2.9089355-.1618652-1.2521973-.9055176-1.9555664-1.4504395-2.7634277-.7895508-1.1708984-.7770996-1.9628906.0771484-3.0556641.2949219-.3771973.6274414-.7253418.9467773-1.0830078,1.753418-1.9631348,1.8688965-2.5666504.5939941-4.8747559-.7175293-1.2993164-.6750488-2.4724121.0637207-3.7229004,1.1435547-1.9355469,2.7258301-3.4460449,4.5317383-4.7231445,3.3996582-2.4035645,6.6743164-4.953125,9.6425781-7.8820801.1765137-.1740723.3166504-.4763184.6669922-.3798828.1015625.4584961-.1069336.8662109-.185791,1.293457-.9182129,4.9770508-2.5974121,9.5598145-6.6298828,12.9458008-.2280273.1916504-.4191895.5153809-.4765625.8071289-.3049316,1.5473633-1.2028809,2.5490723-2.6452637,3.142334-.4726562.1945801-.8952637.5246582-1.3173828.8256836-1.8674316,1.3327637-2.1005859,1.8469238-1.519043,4.0390625.3833008,1.4440918.1669922,2.657959-.8491211,3.7670898-.4545898.4958496-1.0686035,1.0690918-1.125,1.6542969-.088623.9187012-.6704102,1.1865234-1.2653809,1.5427246-1.9291992,1.1547852-3.793457,2.3674316-5.017334,4.3493652-1.6503906,2.6723633-2.9370117,5.4680176-3.4711914,8.6018066-.5375977,3.1525879-1.0205078,6.3098145-1.2856445,9.4953613-.472168,5.6760254-.5490723,11.3391113.854248,16.9208984.7980957,3.1748047,2.1086426,6.0419922,4.986084,7.9060059,1.0720215.6945801,2.1279297,1.434082,3.2678223,1.9980469,1.0969238.5424805,1.1196289,1.189209.654541,2.175293-.7211914,1.5288086-1.6196289,2.9350586-2.6467285,4.2661133-1.4899902,1.9311523-2.8903809,3.9152832-4.0883789,6.0498047-3.3037109,5.8857422-6.3979492,11.8828125-9.5913086,17.8271484-1.9797363,3.6845703-3.4978027,7.543457-4.3293457,11.6298828-2.2055664,10.8371582-4.796875,21.5822754-7.4350586,32.3193359-2.3618164,9.6113281-5.0812988,19.1494141-6.8134766,28.8974609-1.8027344,10.1445312-1.4951172,8.4067383-6.5578613,15.595459-.888916,1.2619629-1.4694824,2.6159668-1.8007812,4.1296387-.6228027,2.8457031-.7111816,2.8735352-3.5441895,3.3342285-.5908203.0961914-1.1855469.1806641-1.7668457.3190918-2.6206055.6235352-3.9941406,1.9125977-3.8415527,4.5681152.189209,3.2875977-1.3762207,4.873291-4.21875,5.723877-.3049316.0913086-.6005859.2182617-.8945312.3422852-2.4262695,1.0224609-4.9277344,1.8747559-7.2314453,3.1723633-.3981934.2243652-.9577637.4003906-.9421387.9794922.0170898.6337891.5100098.956543,1.0314941,1.2084961.9553223.4611816,1.9851074.6030273,3.0249023.6411133,5.2509766.1931152,10.3569336-.480957,15.5263672-2.7802734-1.5820312,4.0629883-3.019043,7.8110352-5.1542969,11.2507324-.3837891.6181641-.8596191,1.0075684-1.5622559,1.185791-1.3527832.3430176-2.7075195.6865234-4.0388184,1.1027832-1.1359863.3552246-1.2915039.890625-.588623,1.8476562.7185059.9777832,1.7592773,1.5136719,2.890625,1.8156738,2.3398438.6242676,4.7111816,1.1696777,6.8378906-.5947266,2.28125-1.892334,3.0566406-1.8908691,5.1467285.2636719,1.2441406,1.2824707,2.6674805,2.0717773,4.4768066,2.2902832,2.1884766.2644043,4.373291.4187012,6.574707.3845215,2.4775391-.0385742,4.9587402-.173584,7.4321289-.0871582,4.7521973.1662598,9.4951172.5822754,14.2541504.6000977,3.6787109.013916,7.3596191.0400391,10.9858398-.7275391.979248-.2072754,1.9553223-.4558105,2.7211914-1.1555176.2856445-.2612305.6762695-.7956543-.0852051-.7668457-1.4477539.0544434-1.8000488-.817627-2.0998535-1.935791-.2260742-.8442383-.5644531-1.6625977-.902832-2.4714355-2.7785645-6.6433105-4.9104004-13.4963379-6.6486816-20.4758301-2.3688965-9.5117188-3.2067871-19.1125488-1.8798828-28.8811035.7900391-5.815918,1.6340332-11.6276855,2.0632324-17.4914551.4143066-5.6572266,1.0246582-11.2958984,2.2260742-16.8552246,1.7458496-8.0788574,4.098877-16.005127,6-24.0456543,2.0366211-8.6135254,2.8603516-17.3276367,2.5090332-26.1621094-.0114746-.2866211-.0661621-.5715332-.1008301-.8571777-.5556641.9697266-.6152344,1.9890137-.6386719,3.0012207-.2355957,10.1508789-1.8125,20.1101074-4.1928711,29.9626465-1.7055664,7.0598145-3.739502,14.0490723-4.9194336,21.2248535-1.4768066,8.982666-2.706543,18.0043945-4.2529297,26.9782715-1.4375,8.3427734-1.4121094,16.6809082.2900391,25.0195312,2.2463379,11.0041504,5.810791,21.5666504,10.3349609,31.8198242.4570312,1.0358887.2246094,1.2775879-.7924805,1.3588867-2.8703613.2297363-5.7412109.4128418-8.6218262.3566895-8.1879883-.1591797-16.369873-.7141113-24.5637207.0834961-3.9350586.3830566-7.7905273.0268555-10.6503906-3.2961426-.0510254-.0593262-.1237793-.1003418-.1879883-.1479492-1.0634766-.7919922-2.2197266-.8789062-3.3930664-.3364258-.6459961.2988281-1.246582.7106934-1.8320312,1.1223145-2.1152344,1.4870605-5.3886719,1.2148438-7.3098145-.6293945.0241699-.0305176.0437012-.0825195.0727539-.0883789.3503418-.0705566.7023926-.1318359,1.0529785-.2006836,2.2971191-.4509277,4.2832031-1.2104492,5.4824219-3.5439453,2.342041-4.5576172,4.3156738-9.2563477,6.0266113-14.0769043,2.454834-6.9172363,4.4074707-14.0200195,7.4560547-20.7177734,3.770752-8.2849121,7.6071777-16.5480957,10.480957-25.1940918,7.2268066-21.7421875,14.9379883-43.3061523,23.2922363-64.6413574,2.9135742-7.4406738,5.5869141-14.9650879,6.5283203-22.9719238.0981445-.8364258.5095215-.6760254,1.0668945-.4663086,3.1000977,1.1662598,6.1884766,2.369873,9.3220215,3.4399414,4.7302246,1.6149902,8.986084,4.3422852,13.7790527,5.796875.2390137.0725098.4443359.1831055.4626465.4748535.1645508,2.6066895,1.0727539,5.1643066.3950195,7.8308105-.296875,1.1679688-.2224121,2.3796387.2116699,3.541748.3842773,1.0290527,1.1276855,1.3859863,2.1748047,1.2246094,1.5715332-.2419434,2.2973633-1.2624512,2.5039062-3.5759277.2524414-2.8256836.5266113-5.6503906.7060547-8.4807129.0541992-.8562012.378418-1.1843262,1.1799316-1.3034668.826416-.1225586,1.7839355-.2871094,1.9958496-1.2460938.1513672-.6848145.4794922-.6623535.9838867-.6853027,1.1582031-.0527344,2.3391113-.0568848,3.6083984-.8103027-1.2192383-.3059082-2.2927246.3666992-3.0493164.0063477-1.7062988-.8120117-3.2109375.032959-4.8049316.1274414-1.1350098.0673828-2.2844238-.1015625-3.751709-.1831055,1.9379883.6782227,3.6333008.8491211,5.3505859.90625.3259277.0107422.8242188-.1572266.8518066.3754883.0229492.4470215-.4345703.513916-.7805176.5844727-.3505859.0712891-.7124023.1430664-1.0666504.1323242-1.2375488-.0383301-2.473877-.1286621-3.7116699-.1625977-.3823242-.0107422-.8452148-.1313477-1.2060547.4082031.8056641.21875,1.5078125.409668,2.3449707.6369629-1.5632324.6325684-1.8666992.5644531-2.786377-.5825195-.1520996-.1896973-.3193359-.204834-.5168457-.1940918-2.3200684.1257324-4.2641602-.9716797-6.1745605-2.0273438-3.0148926-1.6657715-6.1452637-3.0422363-9.359375-4.2646484-2.9833984-1.1347656-5.9423828-2.338623-8.8774414-3.5932617-2.6806641-1.1462402-5.3022461-2.4301758-7.7387695-4.0471191-3.1118164-2.0649414-5.1525879-4.8215332-5.623291-8.6386719-.3769531-3.0561523-.7209473-6.1088867-.7746582-9.1918945-.1220703-7.0056152.6218262-13.8637695,3.1225586-20.4802246,1.2075195-3.1948242,3.2885742-5.619873,5.9875488-7.5917969.3942871-.2883301.8259277-.7177734,1.3493652-.123291.2246094.2548828.503418.6433105.8945312.3469238.3278809-.2485352.15625-.6550293.0830078-1.0063477-.3105469-1.487793.2626953-2.7651367,1.6689453-3.7124023.0644531.1484375.1137695.3010254.1928711.435791.1943359.3308105.2963867.9094238.7524414.796875.4089355-.1010742.3288574-.661377.3503418-1.0498047.0131836-.2382812.0070801-.4819336-.0270996-.7177734-.2143555-1.4748535-.6740723-2.8796387-1.3491211-4.2004395-.3210449-.6279297-.2338867-1.0085449.3657227-1.3632812.7895508-.4675293,1.5336914-1.0119629,2.3212891-1.4833984,1.7209473-1.0305176,1.7290039-1.0205078,1.8500977.9455566.0957031,1.5603027.1860352,3.1208496.2788086,4.6813965.642334-1.3759766.2446289-2.8505859.6000977-4.3327637,1.595459,2.2729492,1.5068359,4.2541504-.2021484,6.1933594-1.1938477,1.3547363-2.6328125,2.4482422-3.9414062,3.6809082-1.588623,1.496582-2.9162598,3.170166-3.685791,5.2473145-.2678223.7229004-.2133789,1.3681641.1054688,2.0661621.779541,1.7067871,2.1633301,2.8405762,3.5864258,3.9519043.8190918.6398926,1.626709,1.2851562,2.0717773,2.2790527.2712402.6054688.2038574,1.1081543-.3459473,1.4641113-.6022949.3903809-1.2687988.880127-1.9663086.8029785-1.387207-.1530762-1.8369141.748291-2.2419434,1.7211914-.4611816,1.1071777-.3161621,2.2731934-.1916504,3.4313965.0976562.9116211.3054199,1.8500977.1870117,2.739502-.5644531,4.234375-1.1921387,8.4602051-2.1264648,12.6352539-.1618652.7231445-.4931641.8671875-1.1418457.8603516-1.2424316-.0136719-2.4848633.0925293-3.6425781.5864258-.619873.2641602-1.4641113.6757812-1.1755371,1.3986816.1899414.4758301,1.0124512-.0249023,1.4851074-.2480469,2.6040039-1.2299805,4.7971191-.6721191,6.6818848,1.427002.4536133.5053711.9475098.9743652,1.4189453,1.4638672,1.9992676,2.074707,4.041748,4.0693359,6.614502,5.4819336,3.5422363,1.9453125,7.4033203,2.9436035,11.2331543,4.0556641,4.1352539,1.2004395,8.3686523,2.1013184,12.2797852,3.9868164.6337891.3056641,1.3410645.5466309,1.8117676,1.315918-1.8903809-.1010742-3.6005859-.7807617-5.3984375-.4084473.3505859.1889648.7197266.2893066,1.0895996.3867188,2.9318848.7734375,5.8583984.5510254,8.7905273-.0183105,2.5488281-.4951172,2.9570312-1.0410156,2.4414062-3.5786133-.1186523-.5839844-.0231934-.8010254.5634766-1.0429688,1.5402832-.6350098,2.2875977-1.9458008,2.4680176-3.5385742.1176758-1.0383301-.4436035-1.6987305-1.598877-1.9726562.1027832.2092285.1315918.3149414.1958008.3911133q1.3393555,1.5881348-.1032715,3.0556641c-.0458984.0466309-.1235352.1230469-.1108398.1577148.5146484,1.3891602-.6218262,1.3601074-1.3684082,1.4587402-.8862305.1169434-1.1010742.4335938-.767334,1.236084.1518555.3652344.2365723.7641602.3056641,1.1560059.0524902.2973633.2375488.7307129-.0493164.8876953-1.3920898.7609863-2.8137207,1.486084-4.4641113,1.463623-.2714844-.003418-.5620117-.0778809-.807373-.1960449-.3898926-.1877441-.6252441-.4926758-.4482422-.9692383.1652832-.4453125.3510742-.6977539.8425293-.2839355.2565918.2158203.5036621-.1274414.7617188-.192627,1.0224609-.2583008,1.1108398-1.4648438,1.7431641-1.8781738.9709473-.6345215,1.3066406-2.3276367,3.0063477-1.9089355.3581543.0881348.5407715-.6987305.7907715-1.0888672.0368652-.0576172-.111084-.3039551-.2272949-.3779297-.5307617-.3364258-.5234375.286377-.7651367.4624023-1.3032227.9489746-2.3642578.9953613-3.612793.157959-.1159668-.078125-.3039551-.1064453-.4445801-.0810547-.8400879.1523438-1.3518066-.3039551-1.8063965-.9125977-.2429199-.3254395-.4907227-.7060547-1.0820312-.4516602.1464844.1816406.2810059.2885742.3354492.427002.1557617.3952637,1.0722656.513916.5905762,1.0549316-.3757324.4221191-1.0693359.6000977-1.5217285-.1350098-.1367188-.2216797-.3654785-.361084-.607666-.2050781-1.1604004.7478027-2.2565918.1733398-3.2932129-.2441406-.5703125-.2294922-2.1567383.0029297-1.1240234-1.5302734.0668945-.0993652-.1247559-.3581543-.166748-.5493164-.0498047-.2272949-.1052246-.4436035.2131348-.5778809,1.0883789-.4594727,2.7236328.2375488,3.1240234,1.3447266.0854492.2358398.0800781.5361328.3647461.6655273,1.3898926-1.2792969,2.7890625-1.2995605,3.7336426.1152344-.1257324-1.0522461.2495117-1.3300781,1.1352539-1.1621094.9272461.1757812.9487305.581543.5661621,1.2817383-.0749512.137207-.0314941.4772949.0739746.546875.2341309.1547852.4958496-.0307617.5876465-.2431641.3959961-.9140625.9291992-.6022949,1.5275879-.2421875.3208008.1931152.5876465.5380859,1.0681152.4941406.027832-.6669922.3444824-1.1269531.9716797-1.3637695.2131348-.0805664.5136719-.1572266.4291992-.458252-.0708008-.251709-.3620605-.3347168-.5996094-.3000488-.7832031.1147461-1.0195312-.1816406-.7907715-.9279785.0666504-.217041.0739746-.4453125-.1621094-.6403809-.9558105-.7895508-.817627-1.9135742-.8168945-2.9645996.0004883-.7145996.2907715-1.482666,1.048584-1.5546875.8896484-.0844727,1.8105469.1411133,2.713623.2644043.067627.0092773.1123047.2727051.1477051.4226074.2646484,1.1262207-1.0256348,2.6467285-2.2424316,2.690918-.3942871.0144043-.4963379-.1479492-.4851074-.4812012.0053711-.159668.0351562-.3208008.0209961-.4782715-.010498-.1159668.09375-.3195801-.1772461-.329834-.5163574.7451172-.2822266,1.4401855.2980957,1.9191895.5534668.456543.9995117-.185791,1.4616699-.4313965.1728516-.0917969.347168-.2216797.4609375-.3776855.5727539-.7854004,1.2468262-1.1726074,2.2802734-.4609375-.2636719-.7468262-1.1420898-.6247559-1.2050781-1.2783203-.0854492-.8835449-.4243164-1.5163574-1.0683594-2.2148438-.487793-.5288086-.630127-.7346191-1.2111816-.3596191-.5270996.3398438-1.0808105.4001465-1.5241699-.092041-.5009766-.5559082-1.3017578-.970459-.9997559-1.9680176.4741211-1.5651855.8879395-3.1484375,1.3659668-4.7124023,1.4345703-4.6953125,3.1091309-9.3496094,3.0759277-14.34375-.0236816-3.5861816-.9694824-7.0830078-.5612793-10.763916.3637695-3.2807617-1.237793-4.5446777-4.5576172-4.7854004-1.8195801-.1318359-3.5209961-.6535645-5.0664062-1.6533203-.4355469-.2817383-.7331543-.5864258-.6572266-1.1547852.3632812-2.7160645-.8613281-4.625-2.9360352-6.267334-2.3083496-1.8273926-2.5742188-4.0856934-.9504395-6.5615234.7211914-1.0996094,1.5581055-2.1269531,2.3825684-3.1550293,2.6477051-3.3012695,3.9174805-7.0061035,3.3876953-11.2614746-.2932129-2.3562012-.9987793-4.5983887-1.8691406-6.7927246-1.3166504-3.3200684-2.6669922-6.6049805-6.9199219-7.0847168-.6711426-.0756836-.7463379-.5500488-.2587891-1.0058594.3874512-.3620605.8481445-.6599121.041748-1.4365234.880127.4084473,1.4494629.7282715,2.088623.7458496.7822266.0212402,1.364502.4003906,1.8933105.9099121,2.5068359,2.4152832,4.3710938,5.2739258,4.9934082,8.6950684.5554199,3.0544434.7055664,6.1855469.9765625,9.2878418.3212891,3.6730957.1616211,7.2734375-1.8818359,10.536377-.2075195.3310547-.3151855.7348633-.4204102,1.1181641-.4438477,1.6191406-.0107422,2.7851562,1.3764648,3.7441406.8300781.5734863,1.7802734.9025879,2.7084961,1.2592773,1.802002.6923828,2.8051758,1.8547363,2.677002,3.8979492-.0637207,1.0151367.0969238,2.0441895.1560059,3.0668945.109375-.0019531.2185059-.0041504.3278809-.0063477.3034668-2.4189453.7167969-4.802002,2.166748-6.9133301.6811523.8930664.9692383,1.8933105,1.2680664,2.8786621.8498535,2.8034668,1.1123047,5.715332,1.5593262,8.5942383,1.5456543,9.9516602,1.9438477,19.958252,1.4265137,30.0043945-.1665039,3.2299805-.8969727,6.4868164-.6333008,9.6704102.4389648,5.3017578,1.0751953,10.6669922,4.2536621,15.2587891.1574707.2275391.2695312.4899902.3803711.7458496,2.5869141,5.9763184,5.6425781,11.7253418,8.5317383,17.5546875,6.0812988,12.2692871,12.1542969,24.5424805,16.782959,37.4599609,2.302002,6.4248047,4.6901855,12.8620605,6.034668,19.5437012,1.6713867,8.3051758,2.1271973,16.7961426,2.6911621,25.2478027.4257812,6.380127.7807617,12.7651367,1.1218262,19.1506348.2961426,5.5444336.6210938,11.09375-.2626953,16.8835449-.1391602-.6247559-.2568359-1.001709-.3037109-1.387207-.4243164-3.4890137-.7963867-6.9851074-1.2590332-10.4689941-1.2827148-9.6601562-2.7077637-19.2993164-4.9375-28.7954102-1.9250488-8.1994629-3.9404297-16.3713379-5.1696777-24.7226562-1.4677734-9.9716797-3.473877-19.8256836-7.734375-29.0627441-.3046875-.6611328-.4145508-1.9143066-1.2758789-1.6638184-.5576172.1618652-.0878906,1.3796387.1928711,2.0524902,3.1628418,7.579834,4.6928711,15.567627,5.987793,23.6208496,1.1027832,6.8569336,1.9741211,13.7595215,3.7329102,20.4951172,3.4760742,13.3125,5.9211426,26.8125,7.5664062,40.46875.4536133,3.7648926.673584,7.5673828,1.4931641,11.2790527.1826172.8271484,0,1.2236328-.6376953,1.6699219-3.0153809,2.1101074-6.3586426,3.5158691-9.861084,4.5288086-7.9179688,2.2900391-16.0224609,3.668457-24.173584,4.8017578-.6821289.0947266-1.4165039.0803223-2.0083008.6120605.7490234.4250488,1.5083008.423584,2.2695312.375,6.3464355-.4055176,12.6452637-1.1665039,18.859375-2.548584,4.5742188-1.017334,9.1325684-2.1950684,13.1154785-4.71875,1.5441895-.9785156,4.0788574-1.2060547,4.1486816-3.8879395.0043945-.1628418.3393555-.3144531.5161133-.4760742,1.1882324-1.0869141,1.9433594-2.4216309,2.2548828-4,.4436035-2.2468262.496582-4.5253906.4941406-6.8039551-.0097656-8.4389648-.5722656-16.8562012-1.0776367-25.2736816-.4692383-7.8193359-1.2687988-15.6103516-2.6118164-23.3327637-1.4067383-8.0893555-2.237793-16.2163086-2.1154785-24.4416504.0791016-5.3188477-.4177246-10.6191406-.8603516-15.9169922-.0568848-.6794434-.081543-1.3613281-.1210938-2.0424805.3476562.2978516.4821777.6184082.5837402.9489746,2.9104004,9.4821777,5.1984863,19.1040039,6.3757324,28.9655762,1.5026855,12.5905762,4.1269531,24.9655762,7.1096191,37.2719727,1.5039062,6.2053223,3.2397461,12.3554688,4.3110352,18.6621094.5039062,2.9658203.4216309,5.9802246.8051758,8.9431152.2087402,1.6130371.3374023,3.1203613-.1315918,4.6936035-.3330078,1.1176758.1086426,2.0317383,1.1228027,2.6503906,1.4067383.8586426,2.9289551,1.4492188,4.4865723,1.9604492.3110352.1020508.6364746.1611328.9367676.0185547,1.284668-.6098633,1.9631348-.0415039,2.4394531,1.1394043.2509766.6225586.6845703,1.1699219,1.0185547,1.7609863,2.1137695,3.7392578,5.217041,5.9672852,9.5737305,6.3007812,3.5708008.2734375,7.1303711.3903809,10.4165039-1.3769531,2.8708496-1.5439453,3.2495117-3.902832.9624023-6.2233887ZM96.1670683,153.1095329c.015625-.1899414.0065918-.4008789.2299805-.527832.4736328.0986328.6767578.5056152.8867188.8671875.3947754.6796875.6381836,1.5322266,1.7363281,1.1591797.255127-.0869141.3491211.1289062.3759766.3305664.0314941.234375.0397949.4748535.0292969.7114258-.0644531,1.465332-.9345703,2.7023926-1.8730469,2.675293-.8771973-.0253906-1.5302734-1.0358887-1.5683594-2.6091309-.0209961-.8669434.1120605-1.7380371.1831055-2.6066895ZM68.1031034,135.2203727c.6518555.2416992,1.605957.3395996,1.4406738,1.5412598-.3215332,2.3376465-.7531738,4.6477051-1.3769531,6.9221191-1.7988281,6.559082-4.6013184,12.7548828-6.9553223,19.1123047-4.2531738,11.4858398-9.144043,22.7275391-13.1691895,34.3022461-3.5639648,10.2485352-6.7189941,20.6357422-10.4384766,30.8317871-1.6689453,4.5749512-3.5012207,9.0856934-5.5100098,13.5205078-3.9868164,8.8000488-7.8505859,17.6518555-10.4743652,26.9719238-.7626953,2.7094727-2.2055664,4.1765137-4.9650879,5.0195312-4.2333984,1.2932129-8.4516602,2.0078125-12.8535156,1.6376953-.4316406-.0361328-.859375-.1230469-1.2888184-.1865234-.0002441-.0700684-.0002441-.1398926-.0007324-.2097168,2.6350098-1.1264648,5.2729492-2.2456055,7.9023438-3.3840332.6582031-.2849121,1.2988281-.6137695,1.9313965-.9526367,1.4228516-.7614746,2.1452637-1.9746094,2.2597656-3.5727539.0656738-.916748.1608887-1.8312988.2248535-2.7480469.0888672-1.2714844.717041-2.0959473,1.9758301-2.3735352,1.0515137-.2316895,2.1066895-.4570312,3.1699219-.6220703,1.8183594-.2822266,3.1159668-1.3149414,3.4599609-3.0480957.677002-3.4099121,2.4541016-6.1977539,4.480957-8.892334,1.6672363-2.2160645,2.2092285-4.809082,2.6188965-7.4831543,1.1398926-7.4367676,3.4194336-14.5959473,5.3833008-21.8352051,3.8652344-14.2470703,7.7138672-28.4992676,11.2966309-42.8212891.8359375-3.3417969,2.0661621-6.5441895,3.6210938-9.6157227,4.5437012-8.9743652,9.0197754-17.9851074,14.2946777-26.5671387.8991699-1.4631348,1.6333008-3.0136719,2.2729492-4.6132812.1335449-.3342285-.0595703-1.2150879.6992188-.9338379ZM71.0855253,60.6100212c-.3647461.2456055-.7731934.7543945-1.2607422.3581543-.5192871-.421875-.2878418-1.0153809-.1044922-1.5500488.161377-.4709473.512207-.8054199.8500977-1.1411133,4.6186523-4.5905762,9.5776367-8.7956543,14.6486816-12.8713379.8410645-.6760254,1.7973633-1.1831055,2.7834473-1.6240234.7497559-.3352051,1.5112305-.4587402,2.6516113.0100098-3.9511719,1.3251953-6.3029785,4.0864258-8.5651855,6.9484863-3.1010742,3.9230957-6.8798828,7.090332-11.003418,9.869873ZM77.0801542,68.7338005c1.3735352-1.65625,2.6738281-3.373291,4.1621094-5.2609863.9785156,3.5512695,1.123291,6.8803711-.1103516,10.1865234-.5158691,1.3823242-1.0224609,2.7758789-1.6657715,4.0996094-.5505371,1.1330566-.2211914,1.8911133.6779785,2.5859375,1.1142578.861084,2.371582,1.4799805,3.6147461,2.1088867,3.362793,1.701416,2.2036133,2.8894043.0297852,4.2841797-1.4416504.9248047-2.9934082,1.6762695-4.4643555,2.5581055-1.2822266.7685547-2.4260254,1.7207031-3.0461426,3.1276855-.3269043.7421875-.6213379.3762207-.9570312.0734863-2.2004395-1.9848633-2.1130371-5.6486816.1345215-7.5625.4594727-.3911133.6328125-.041748.8808594.1572266.9489746.7602539,1.9909668,1.1767578,3.2229004.9187012,1.0559082-.2211914,1.2692871-.6669922.7543945-1.604248-.6066895-1.1044922-1.5300293-1.9445801-2.4470215-2.7724609-.5385742-.4863281-.7456055-.9216309-.4272461-1.6459961.888916-2.0224609.7548828-3.9956055-.6311035-5.7568359-1.5307617-1.9453125-1.2116699-3.7084961.2717285-5.4973145ZM71.784744,100.1549431c2.7236328-.8308105,3.1245117-2.2746582,1.1557617-4.3671875-.8464355-.8996582-1.8222656-1.6767578-2.6960449-2.5524902-1.8674316-1.8713379-2.0336914-3.559082-.6264648-5.802002,1.2575684-2.0043945,3.0935059-3.4238281,4.9040527-4.871582,1.4370117-1.1491699,1.4360352-1.1569824,2.692627.1203613.6149902.625,1.3056641,1.1818848,1.7807617,1.9348145.4050293.6416016.0791016.9020996-.532959.8701172-.8032227-.0424805-1.4199219-.4956055-1.921875-1.0969238-.2749023-.3291016-.4782715-.6091309-.9255371-.154541-1.2316895,1.251709-2.7060547,2.2485352-3.8513184,3.5927734-1.6247559,1.907959-1.4343262,3.75.6416016,5.4492188-.326416-1.3544922-1.5585938-2.5180664-.3532715-4.2495117.5888672,2.8859863,2.7160645,4.248291,4.5319824,5.876709.2946777.2644043.560791.5739746.7851562.9006348.7749023,1.1279297.6582031,1.7915039-.5292969,2.4160156-1.6923828.8898926-3.4250488,1.7028809-5.142334,2.5446777-.3222656.157959-.6523438.3132324-1.0197754.0942383.1118164-.6481934.6777344-.5742188,1.1069336-.7053223ZM71.6099393,122.4432731c-.0527344.3098145-.1877441.6064453-.2922363.9067383-.2912598.8371582-.6433105,1.0236816-1.4157715.3532715-2.0227051-1.755127-2.0307617-1.7167969-1.4978027-4.3225098.4780273-2.3378906.9030762-4.6867676,1.3481445-7.0314941.059082-.3115234.0695801-.6364746.4443359-1.0290527,1.3640137,3.6994629,2.0598145,7.3234863,1.4133301,11.1230469ZM92.9417265,135.1852165c-.4680176-.2607422-.3049316-.7387695-.4685059-1.0800781-.2009277-.418457-.0844727-1.2919922-.7338867-1.0952148-.5117188.1550293-.0437012.8295898.0957031,1.262207.1674805.5195312.5205078.9890137.4121094,1.7998047-2.7680664-1.831543-5.4946289-3.5087891-7.3334961-6.25-.4125977-.6152344-.4868164-1.2768555.2768555-1.7626953.7028809-.4475098,1.2568359-.3129883,1.7446289.3581543.3244629.4465332.7192383.8417969,1.3466797,1.5637207-.1308594-1.4562988.7397461-2.0664062,1.2250977-2.9406738-.6162109.5134277-1.2324219,1.0266113-1.8486328,1.5400391-.0957031-.0754395-.1916504-.151123-.2873535-.2265625.4226074-1.0612793,1.8200684-1.4831543,2.0529785-2.6872559.2246094-1.161377-.1281738-2.4121094.5095215-3.4938965.5087891-.0480957.4084473.5761719.796875.6428223.2102051-.1982422.0310059-.4462891.0871582-.6591797.0791016-.2995605-.1459961-.8557129.4501953-.7539062.4750977.0810547.9931641.4179688.7851562.9829102-.2666016.7241211.2473145,1.5986328-.6318359,2.2509766-.3920898.2910156-.036377,1.0351562.456543,1.4321289.3564453.2873535.9794922.5834961.6428223,1.1123047-.4128418.6484375-.765625-.2358398-1.2580566-.2275391.0603027.2470703.1169434.4794922.1757812.7202148-.5654297.1774902-.6306152-.6254883-1.1171875-.4904785-.0327148.0446777-.0791016.1035156-.0769043.1052246,1.2248535,1.0371094,1.1640625,2.4812012,1.1618652,3.8693848-.0012207.8168945.8989258.6791992,1.083252,1.2106934.310791.8974609.5617676,1.814209.4526367,2.8168945ZM92.9761503,130.6349235c-.2875977-.1628418-.2207031-.5068359-.15625-.7624512.1452637-.5773926.3359375-1.1442871.5249023-1.7099609.0996094-.2980957.2988281-.4177246.6425781-.3723145,1.0742188.1425781,2.1420898-.0144043,3.541748-.2167969-.8190918.9289551-.970459,2.15625-2.4628906,1.7824707-.5424805-.1359863-.9084473.5454102-1.2724609.9685059-.204834.2380371-.4694824.5075684-.817627.3105469ZM94.9680936,127.2076774c-.6469727.1604004-1.2258301-.036377-1.3398438-.7902832-.1411133-.9331055.0834961-1.8896484-.2087402-2.8222656.1052246-.0290527.2104492-.0578613.3154297-.0869141.4575195.861084.9609375,1.7023926,1.3469238,2.5942383.1345215.3110352.7832031.8825684-.1137695,1.1052246ZM95.4480741,124.5577751c.532959-.1821289.4008789.4174805.4973145.7199707.1601562.5024414.4643555.2385254.7553711.1555176.7431641-.2119141.9221191.1994629.8789062.8779297-.095459.3825684-.1721191.8569336-.6713867.9855957-.4765625.1228027-.7294922-.2756348-.9333496-.6013184-.2277832-.3642578-.4335938-.7705078-.5219727-1.1855469-.0651855-.307373-.4118652-.8129883-.0048828-.9521484ZM97.2241972,135.3605095c.0498047-.0522461.0949707-.1101074.1499023-.1557617.9094238-.7539062,2.4150391-.5717773,3.1674805.401123.1835938.2375488.4909668.520752.2700195.8374023-.2324219.3330078-.5791016.1013184-.8710938,0-.1313477-.0454102-.2541504-.1154785-.5048828-.2316895.1645508.7612305,1.2729492.7612305.8674316,1.4594727-.3984375.685791-1.0769043.1733398-1.6193848.0236816-1.1872559-.3276367-2.3693848-.675293-3.5458984-1.0393066-.4692383-.1455078-.9111328-.359375-.7861328-.9980469.1228027-.6289062.6455078-.4545898.9482422-.3520508.6542969.2214355,1.3312988-1.0644531,1.9243164.0551758ZM99.1936796,129.7252556c-.6135254,1.0900879-1.902832.6757812-3.2421875.8735352,1.5771484-1.7902832,2.1062012-3.770752,2.505127-5.7438965.5791016-.0473633.7905273,1.6259766,1.4106445.1611328.3942871.104248.328125.4284668.3537598.682373.1477051,1.4638672-.3483887,2.8200684-1.0273438,4.0268555ZM98.7329862,122.2037712c1.5739746.1516113,1.6899414.4619141.9089355,2.2431641-.5778809-.6174316-.770752-1.3574219-.9089355-2.2431641ZM103.0679472,131.2506462c-.5083008-.0961914-1.1416016-.189209-1.2890625-.7182617-.1037598-.373291.4470215-.4692383.7905273-.5488281.6606445-.152832.7609863.4189453,1.0041504.7121582.029541.4558105-.1811523.6164551-.5056152.5549316ZM108.0257108,131.1129509c-.0085449.2277832.0861816.5366211-.2287598.5974121-.3999023.0769043-.8273926-.0007324-1.0944824-.3220215-.6464844-.7783203-.7287598-1.8205566-1.1730957-2.704834-.1862793-.3710938.3342285-.3015137.5773926-.2834473,1.2075195.0900879,1.9450684,1.1416016,1.9189453,2.7128906ZM107.9622343,124.9747673c-.7734375.3461914-1.5915527.7119141-2.5576172,1.1442871.5168457.3374023.9458008.2736816,1.3452148.263916.3474121-.0083008.623291.0024414.7302246.4133301.0986328.3798828.0217285.7180176-.2070312,1.0070801-.265625.3356934-.6943359.3798828-.9599609.1254883-.8122559-.7788086-2.3950195-.765625-2.4355469-2.3532715-.0048828-.1906738-.0817871-.4448242-.4545898-.3708496-1.2841797.2543945-1.857666-.7624512-2.4946289-1.5429688-.3483887-.4267578-.1694336-.979248.3361816-1.519043.260498,1.4555664,1.0168457.6672363,1.793457.6340332,1.8952637-.081543,3.8491211.0649414,4.9042969,2.197998ZM93.7190702,45.1769157c2.3952637.3818359,3.9753418,1.7878418,4.9934082,4.0009766,1.4599609,3.1730957,3.0075684,6.3647461,2.8935547,9.9125977-.1870117,5.815918-2.5092773,10.4880371-8.0319824,13.1201172-.4313965.2055664-.8476562.4448242-1.2629395.682373-.1323242.0759277-.2387695.1967773-.5563965.4658203,1.1472168-.2355957,1.9929199-.4094238,2.8967285-.5952148.0510254,1.2126465-.1035156,2.3339844.1494141,3.4350586.472168,2.0588379,1.779541,3.5656738,3.3442383,4.8400879,1.0112305.8237305,1.4592285,1.6992188,1.3789062,3.043457-.1225586,2.0498047,1.1213379,3.3312988,2.8935547,4.1247559,1.0268555.4597168,2.1494141.5917969,3.2485352.7961426,3.7460938.6965332,4.6914062,2.1296387,3.8916016,5.8847656-.0661621.3103027-.177002.611084-.2854004.9785156-.1660156-.0646973-.324707-.0861816-.4289551-.1730957-2.404541-2.0080566-5.2353516-2.6696777-8.277832-2.5305176-6.5180664.2978516-13.0219727.0175781-19.5266113-.3520508-.892334-.0507812-1.8015137-.057373-2.6760254.4243164,2.5825195.3413086,5.1750488.6210938,7.7453613,1.0368652,4.5024414.7282715,9.0080566.3637695,13.5168457.1867676,1.4379883-.0566406,2.8886719-.1184082,4.3063965.140625,3.9936523.7299805,6.4787598,3.8591309,6.5498047,8.2541504.0476074,2.9506836-.7421875,5.7624512-1.5551758,8.5686035-1.0195312,3.519043-2.427002,6.9423828-2.7104492,10.6484375-.0349121.456543-.2844238.6064453-.7001953.6347656-1.2839355.0874023-2.5063477-.7468262-2.8742676-2.0441895-.2224121-.7854004-.5566406-1.4655762-1.4382324-1.5515137-.5681152-.0556641-1.8237305-.8554688-1.1826172.9013672.1794434.4916992-.2475586,1.1323242-.8691406,1.2521973-.6965332.1342773-1.026123-.364502-1.0786133-.9851074-.0534668-.6330566-.0119629-1.2744141-.0119629-1.9770508-1.1660156,1.5029297-1.1945801,1.890625-.307373,3.3742676.1433105.239502.2810059.4841309.4020996.7353516.7871094,1.6340332.3991699,2.2277832-1.4714355,2.2355957-.2041016-.4125977.626709-.4055176.3103027-.8908691-.3540039.0463867-.7504883.173584-1.1289062.1333008-.8974609-.0959473-.4223633-.7160645-.4675293-1.2050781-.0671387-.7265625-1.076416.2561035-1.1762695-.4902344-.0397949-.2976074.2519531-.6396484.4016113-.9816895-.329834-.3540039-.512207.2104492-.7995605.1716309-.4084473-2.0412598-1.1677246-2.435791-3.0878906-1.581543-.956543.4255371-1.782959,1.0456543-2.5859375,1.7155762-.7536621.6289062-.7409668,1.2507324-.1633301,1.9523926.1777344.2158203.3754883.4152832.5498047.6335449.9453125,1.1835938.625,2.4606934-.8173828,2.9306641-.8647461.2814941-1.7993164.3413086-2.6943359.5380859-1.7199707.3781738-2.1967773,1.78125-1.0551758,3.1357422.7817383.9277344,1.8244629,1.5437012,2.8115234,2.2229004.3476562.2390137.7441406.4387207,1.052002,1.0187988-1.734375-.126709-3.2490234-.5175781-4.7336426-1.0153809-3.3198242-1.1137695-6.4213867-2.6430664-9.0878906-4.9572754-.3391113-.2944336-.7922363-.5244141-.513916-1.171875,1.7807617-4.1435547,1.1989746-8.2946777-.0793457-12.4160156-1.027832-3.314209-2.1066895-6.6137695-3.2299805-9.8964844-.2890625-.8447266-.046875-1.1960449.6865234-1.5632324,2.3544922-1.1789551,4.7456055-2.307373,6.8276367-3.9562988,1.3818359-1.0944824,1.5947266-1.7114258.5732422-3.135498-1.8203125-2.5375977-1.6035156-3.8581543,1.4379883-5.8173828,1.6088867-1.036377,3.3442383-1.8781738,4.9421387-2.9296875,3.0256348-1.9909668,2.9599609-3.3718262-.1572266-5.161377-1.1428223-.6560059-2.2805176-1.3129883-3.3366699-2.1123047-.7133789-.5400391-.96875-1.0551758-.435791-1.8864746.4938965-.7700195.8339844-1.6374512,1.3078613-2.421875,2.0788574-3.4401855,1.887207-7.0969238,1.0180664-10.7973633-1.2473145-5.3093262-.3205566-10.3068848,2.1022949-15.0837402,1.0356445-2.0419922,2.614502-3.4907227,4.9274902-4.0483398.9731445-.2348633,2.173584-.6147461,2.1342773-1.7631836-.0441895-1.2995605-1.3349609-1.4985352-2.4111328-1.722168-1.0476074-.2175293-1.9719238.1633301-2.8864746.5656738-2.5280762,1.1118164-4.6010742,2.8632812-6.572998,4.7460938-2.310791,2.2067871-4.4726562,4.5759277-7.0517578,6.4892578-.3325195.2468262-.6638184.7595215-1.1020508.5541992-.5512695-.2585449-.4248047-.8913574-.3986816-1.4008789.3613281-7.0620117,5.2617188-12.4250488,12.5009766-13.729248,2.503418-.4506836,4.9177246-.5126953,7.1345215,1.0356445,1.2072754.8435059,1.8371582,1.875,1.3901367,3.3662109-.2529297.8432617-.0891113,1.2988281.9006348,1.456543ZM91.0054472,38.8675895c1.4663086-.0253906,2.3388672.3510742,2.6977539,1.7822266-.8977051-.5930176-1.6567383-1.0944824-2.6977539-1.7822266ZM189.8599393,143.3248649c-.8813477,2.0976562-1.9550781,4.0708008-3.6459961,5.8461914-1.0944824-3.1474609-2.1936035-6.1137695-3.9199219-9.0178223,2.7207031.3112793,5.001709,1.1843262,7.2043457,2.3120117.3811035.1953125.5378418.4399414.3615723.8596191ZM180.9954374,52.0577751c1.494873,2.3354492,2.560791,4.8852539,3.3449707,7.5285645,1.7248535,5.8154297,3.5258789,11.598877,5.7058105,17.2666016,1.2441406,3.2346191,1.5368652,6.6945801,1.6918945,10.1257324.2268066,5.019043,1.201416,9.8950195,2.3964844,14.7514648.873291,3.5478516,1.1108398,7.1772461,1.0786133,9.8945312-.0119629,7.3095703-.9875488,13.5837402-2.0366211,19.8508301-.513916,3.0710449-1.0144043,6.1442871-1.4963379,9.2207031-.0966797.6179199-.1826172.9611816-.9301758.5654297-2.5935059-1.3730469-5.3791504-2.2321777-8.230957-2.8615723-.864502-.1906738-1.0288086-.532959-.9089355-1.3857422.2163086-1.5388184.2856445-3.1015625.3493652-4.6567383.0253906-.6230469.1977539-.8439941.8405762-.7785645,1.032959.1054688,2.0708008.135498,3.1022949-.097168.6879883-.1550293,1.3623047-.3581543,1.614502-1.0732422.2653809-.7526855-.2585449-1.2768555-.7272949-1.7744141-.1911621-.2028809-.4052734-.3857422-.6203613-.564209-.4699707-.3901367-.3979492-.597168.1853027-.7687988.5458984-.1608887,1.1103516-.451416,1.0996094-1.1071777-.0102539-.6171875-.6325684-.7729492-1.0888672-.9848633-.951416-.4418945-1.973877-.6943359-3.0131836-.6984863-.762207-.0031738-.920166-.307373-.9492188-.9885254-.1567383-3.6713867-.1347656-7.3530273-.6191406-11.0068359-.4162598-3.1408691-.8867188-6.3227539-2.4755859-9.0756836-2.6508789-4.5930176-3.5266113-9.6259766-4.2329102-14.7373047-.6447754-4.6674805-1.2563477-9.3395996-1.8901367-14.0085449-.4951172-3.6445312.2402344-7.1604004,1.1315918-10.6520996,1.0700684-4.1911621,2.4821777-8.2558594,4.7290039-11.9836426.7873535-1.3061523,1.1054688-1.3195801,1.949707-.0002441ZM182.6035917,128.3356071c1.1464844-.6674805,2.8254395-.4833984,3.5048828.4086914.2089844.2744141.5073242.576416.3518066.9521484-.1682129.40625-.565918.5319824-.9897461.5361328-.4375.0043945-.875.0009766-1.3125.0009766v.0043945c-.3579102,0-.7165527-.0117188-1.0739746.0029297-.5244141.0212402-1.010498-.128418-1.1569824-.6435547-.159668-.5625.1877441-.9770508.6765137-1.2617188ZM174.9187772,99.484777c1.4685059,3.8874512,2.7077637,7.5620117,3.2116699,11.4887695-1.0039062-1.1713867-3.2094727-8.9172363-3.2116699-11.4887695ZM174.9033964,117.5304313c-4.041748,1.4042969-8.2722168,2.0568848-12.4111328,3.0759277-.1738281.0429688-.4885254.0241699-.5529785-.079834-.4301758-.6958008-.6062012-1.4853516-.4855957-2.2856445.0981445-.6513672.6821289-.8896484,1.2509766-.9267578.9135742-.0598145,1.8337402-.0161133,2.7509766-.0161133,3.0400391-.0541992,6.0432129-.4384766,9.0163574-1.0708008.4929199-.1047363,1.0800781-.3757324,1.3237305.3300781.2685547.7775879-.4536133.8205566-.892334.9731445ZM160.3047636,45.6705681c6.048584,1.9020996,12.2519531,3.2697754,18.3427734,5.3464355-2.4677734,3.1218262-4.1416016,6.6887207-5.2758789,10.4897461-4.859375,16.2836914-5.1657715,32.4804688,1.0576172,48.5322266.4318848,1.1140137.7104492,2.2866211,1.1230469,3.4089355.3630371.987793.2021484,1.3522949-.9689941,1.4707031-3.8139648.3857422-7.6640625.3955078-11.4470215,1.1083984-3.0136719.5678711-3.7084961,1.9550781-2.4072266,4.7900391.2736816.5961914.6918945.5449219,1.1660156.5463867,4.4370117.0131836,8.7570801-.6989746,12.9162598-2.2368164,1.065918-.394043,1.7158203-.5068359,1.7685547.8869629.0070801.1931152.0651855.411377.1716309.5695801,1.251709,1.8613281.4780273,3.2866211-.7758789,4.8276367-1.7141113,2.105957-3.0947266,4.4609375-4.1635742,6.9755859-.3918457.9216309-.7016602,1.8662109-.6689453,2.894043.0290527.9150391.5458984,1.4887695,1.3063965,1.8500977.7131348.3388672,1.4289551.2099609,2.0158691-.3051758,1.5668945-1.3759766,2.2114258-3.1765137,2.2995605-5.2119141.0080566-.1870117.0383301-.4311523-.2282715-.4797363-.2294922-.041748-.3574219.1491699-.4682617.3078613-.5793457.8310547-.7592773,1.8415527-1.2119141,2.7290039-.3156738.6191406-.6220703,1.6005859-1.458252,1.1860352-.7041016-.3491211-.0776367-1.1530762.171875-1.6923828,1.482666-3.2038574,3.5095215-6.0715332,5.5427246-8.9411621.0966797.067627.203125.1071777.2033691.1477051.0847168,7.3210449-.001709,14.628418-1.8535156,21.7844238-.3510742,1.3557129-.8251953,2.668457-1.435791,3.9291992-2.3195801,4.7880859-8.6184082,6.3691406-13.0275879,3.4121094-5.5898438-3.7487793-8.9294434-9.1433105-11.4394531-15.1726074-3.7253418-8.9482422-6.6103516-18.1491699-8.0539551-27.7573242-.5410156-3.6003418-.8383789-7.2236328-.3759766-10.8706055.1123047-.8852539.3208008-1.7333984.6958008-2.5268555,3.9887695-8.4401855,6.5690918-17.3847656,9.4050293-26.2368164,1.5578613-4.8625488,3.6174316-9.5561523,4.8469238-14.5297852.855957-3.4641113,1.5107422-6.9499512,1.3664551-10.5375977-.0285645-.7087402.1169434-.9282227.8605957-.6943359ZM144.6773222,125.2926384c1.5825195,4.940918,3.4370117,9.7817383,5.4467773,14.5620117.338623.8056641.3798828,1.0710449-.6535645,1.2548828-1.703125.3032227-2.8444824-.1347656-3.876709-1.5620117-2.6472168-3.659668-5.1582031-7.3969727-7.3786621-11.3325195-.6645508-1.1779785-.6760254-2.4614258-.7556152-3.7172852-.5473633-8.6501465-.9987793-17.3044434-1.0400391-25.9765625-.0234375-4.9523926-.1416016-9.9047852-.2495117-14.8564453-.0148926-.6779785.1333008-1.1862793.581543-1.7226562,2.229248-2.6682129,3.5437012-5.8569336,4.9550781-8.9821777.8605957-1.9057617,1.6430664-3.8469238,2.4609375-5.7719727.1486816,2.8771973-.3151855,5.6616211-.6518555,8.456543-.8352051,6.9328613-2.1918945,13.7990723-2.7487793,20.7663574-.791748,9.9038086.9006348,19.4858398,3.9104004,28.8818359ZM150.2027128,46.7579704c.3969727-1.625.7426758-3.2629395,1.1464844-5.0480957,2.0759277,1.2712402,4.114502,2.2810059,6.260498,3.0437012.7429199.2636719.6960449.7453613.6496582,1.3168945-.3625488,4.4750977-1.0947266,8.894043-2.6064453,13.1220703-3.720459,10.4069824-6.9848633,20.970459-10.829834,31.3330078-.354248.9545898-.8083496,1.8718262-1.4306641,2.7282715.4318848-3.3190918.8442383-6.6411133,1.2995605-9.9570312.8967285-6.5302734,1.7814941-13.0690918,2.2299805-19.6413574.3955078-5.7922363,1.9177246-11.3178711,3.2807617-16.8974609ZM149.3894804,41.0030876c.5922852.4836426.3913574.8793945.3356934,1.230957-.4890137,3.0900879-1.5478516,6.0234375-2.4641113,8.9970703-.173584.5637207-.4660645.6518555-.970459.5664062-2.3796387-.4033203-4.4038086-1.5471191-6.4104004-2.9482422,2.2043457-1.2744141,4.310791-2.4799805,6.4050293-3.7070312,1.5568848-.9121094,3.2009277-1.7658691,3.104248-4.1391602ZM134.5274198,48.1793571c-1.5378418-.1433105-3.0449219-.6184082-4.5649414-.9506836-.4042969-.0883789-.7836914-.1977539-.7570801-.7429199.0869141-1.7805176-.010498-3.5581055-.2573242-5.5114746,1.270752.6923828,2.3547363,1.2687988,3.4255371,1.8693848,3.7753906,2.1179199,7.3190918,1.8447266,10.628418-.9985352,1.3937988-1.1975098,2.7958984-2.3852539,4.2045898-3.5651855.2312012-.1938477.4953613-.5356445.824707-.3066406.2910156.2026367.1767578.5966797.1062012.895752-.5285645,2.2370605-1.1469727,4.3425293-3.564209,5.4348145-1.8825684.8505859-3.6652832,1.9553223-5.4018555,3.0861816-1.472168.9587402-3.0712891.935791-4.644043.7893066ZM137.6536405,53.2657829c-.0097656.1188965-.0002441.4858398-.0793457.8325195-.0922852.4067383-.0837402.9448242-.6726074.9978027-.6186523.0559082-.9509277-.3691406-1.1464844-.8723145-.4118652-1.0603027-.1411133-2.1398926.0302734-3.1953125.0883789-.5439453.9606934-.5102539,1.4265137.057373.4633789.5646973.458252,1.2558594.4416504,2.1799316ZM149.0899198,27.3768669c-1.2087402-1.8376465-1.1420898-5.0910645.1826172-6.5129395.6870117,2.2353516.2910156,4.3410645-.1826172,6.5129395ZM126.163162,4.0116325c2.1486816-1.7365723,4.7678223-2.6359863,7.3605957-2.3833008,4.4758301.4365234,8.6171875,2.0598145,11.7893066,5.4997559,2.8574219,3.0983887,3.8820801,6.8916016,4.0842285,10.9855957.0148926.3029785-.0617676.5270996-.3156738.7199707-.3164062.2397461-.6159668.5085449-.8881836.7973633-.2685547.2844238-.4941406.609375-.9277344,1.1542969-.392334-3.3569336-1.6257324-6.1445312-3.7646484-8.776123.5297852,0,.8239746.0251465,1.1123047-.0063477.3605957-.0393066.9350586.2492676,1.0087891-.2883301.0539551-.3933105-.4836426-.5859375-.8483887-.7355957-1.8864746-.7739258-3.840332-.6691895-5.7756348-.3076172-2.3925781.4470215-4.7792969.9172363-7.197998,1.2004395-.590332.0690918-1.1853027.0991211-1.9367676.1601562.5744629-.9733887,1.5227051-1.3271484,2.3129883-2.2495117-1.6723633.5544434-2.9353027,1.5449219-4.496582,1.6279297,3.0073242-4.0004883,7.315918-3.6088867,11.7539062-3.3637695-2.1020508-1.8608398-4.4108887-2.6577148-7.0200195-2.4897461-1.3452148.0869141-2.704834.2189941-3.9736328.7878418-.5744629.2573242-2.6435547-1.0466309-2.7321777-1.685791-.0466309-.3364258.2487793-.4804688.4553223-.6472168ZM127.1729276,9.2115837c-.2409668-.3786621.269043-.7756348.5410156-1.1025391.8496094-1.020752,2.0849609-1.3549805,3.284668-1.5549316,1.8095703-.302002,3.6352539-.1984863,5.3815918.5539551-2.8112793.0869141-5.4472656.753418-7.9296875,2.0495605-.401123.2094727-.9772949.5263672-1.2775879.0539551ZM125.4116972,7.2557731c.2768555-.0002441.2392578-.5400391.3256836-.8413086.0769043-.2687988-.0239258-.7727051.479248-.6213379.4489746.1350098.5739746.578125.3637695.984375-.3903809.7543945-1.0305176,1.2988281-1.8845215,2.0048828.0615234-.7473145-.5073242-1.526123.7158203-1.5266113ZM118.5489042,21.8727165c-.6972656-3.2661133-.7998047-6.5671387-.3911133-9.878418.3513184-2.8461914,2.1931152-4.5910645,4.5039062-5.9770508.6811523-.4084473.7067871.1083984.7910156.5344238.2145996,1.0895996.3356934,2.184082,1.2687988,3.0070801.7189941.6340332,1.4736328.902832,2.5944824.6655273-2.0136719,2.0273438-3.1552734,4.3449707-4.3637695,6.59375-1.3271484,2.4697266.0244141,4.989502.2058105,7.7495117-.7507324-.6520996-.980957-1.6096191-1.7922363-1.7375488-1.0322266-.1628418-1.1225586.9289551-1.6606445,1.496582-.7583008-.6630859-.96875-1.5751953-1.15625-2.4538574ZM123.8086698,32.6998649c-.3981934.310791-.6611328-.1293945-.8789062-.3537598-1.6062012-1.6564941-2.2756348-3.8049316-2.9238281-5.927002-.1914062-.6269531.498291-1.1591797,1.0385742-1.8781738.309082,2.810791,1.559082,5.0256348,2.6379395,7.3078613.1220703.2585449.4724121.5810547.1262207.8510742ZM127.4639433,36.1171013c-1.4440918-3.0605469-2.9772949-6.0793457-4.4853516-9.1450195,2.0744629-.2937012,2.2788086-.5351562,2.0292969-2.5705566-.1894531-1.5446777-.4140625-3.0869141-.6928711-4.6176758-.1811523-.9938965-.0771484-1.8791504.4853516-2.7348633.7451172-1.1342773,1.4462891-2.2973633,2.1523438-3.4570312.2028809-.3330078.3972168-.5581055.8508301-.4406738,3.7880859.982666,7.4372559-.0771484,11.1237793-.737793,3.9428711-.706543,2.8464355-1.152832,4.9223633,2.2995605,1.4091797,2.34375,1.8659668,4.9880371,2.1665039,7.6601562.0668945.59375.0366211,1.1999512.736084,1.5083008.1599121.0705566.251709.3955078.2937012.6184082.8347168,4.4411621.6333008,8.755127-1.7128906,12.7612305-1.4907227,2.545166-3.7019043,4.2348633-6.4423828,5.2956543-1.269043.4914551-2.4990234.4829102-3.7312012-.0073242-3.2661133-1.2988281-6.1147461-3.0825195-7.6955566-6.432373ZM127.1712186,48.8851677c.0344238-.4338379.1140137-.7441406.7304688-.5654297,2.0153809.5842285,4.0493164,1.104248,6.3320312,1.7177734-1.7824707,1.4536133-3.3144531,2.8425293-4.9904785,4.0273438-1.4343262,1.0141602-2.3305664.4997559-2.3378906-1.2536621-.0053711-1.3083496.1625977-2.6179199.2658691-3.9260254ZM133.8692167,52.2984977c.2700195.4177246.1459961.857666.15625,1.2617188.0183105.7026367.199707,1.3388672.6242676,1.8999023.6291504.831543,1.3874512,1.520752,2.5046387,1.3295898,1.0756836-.184082,1.5366211-1.0769043,1.8234863-2.0236816.3034668-1.0024414.364502-2.0454102.296875-3.0861816-.0512695-.7871094.036377-1.1418457.9389648-.6557617,1.8937988,1.0197754,3.7822266,2.0817871,5.9733887,2.3696289.9208984.1210938.3710938.7402344.2788086,1.0766602-1.7302246,6.3234863-3.9599609,12.4672852-6.7580566,18.3981934-1.0383301,2.2009277-2.184082,4.3518066-3.1958008,6.5644531-.4348145.9506836-.6931152.7507324-1.220459.0974121-2.4382324-3.0222168-4.1103516-6.4477539-5.4301758-10.0695801-1.5981445-4.385498-2.6943359-8.9033203-3.7084961-13.6616211,3.8054199,1.2434082,5.3798828-1.8461914,7.7163086-3.5007324ZM127.2105253,113.1832634c-.4248047-14.4155273-1.4074707-28.8154297-1.2341309-43.248291.0202637-1.6975098.0026855-3.395752.0026855-5.09375.1274414-.0146484.2548828-.0290527.3823242-.0437012.315918.9645996.6364746,1.9274902.9465332,2.894043,1.1853027,3.6933594,2.5637207,7.3039551,4.5671387,10.6455078.8254395,1.3762207,1.7456055,2.6867676,3.0148926,3.6928711.4812012.3813477.5244141.8349609.5246582,1.3708496.0019531,7.5119629.0134277,15.0249023.3046875,22.5324707.2631836,6.784668.1499023,13.5993652,1.0170898,20.3378906.3188477,2.4790039.0551758,4.6865234-.7016602,6.9882812-.9960938,3.0297852-1.8356934,6.1118164-2.706543,9.1816406-.1928711.6794434-.4074707.973877-1.2216797.8305664-1.9248047-.3388672-3.8706055-.5708008-5.8154297-.7746582-.723877-.0759277-.9560547-.2675781-.8037109-1.0317383,1.8654785-9.3469238,2.0024414-18.8024902,1.7231445-28.2819824ZM123.6355741,48.7379509c.2043457-.1245117.4074707-.2543945.6228027-.3569336.3518066-.1672363.7045898-.6420898,1.0449219-.4501953.4438477.25.027832.7980957.1633301,1.3652344-.2097168,1.3120117-.3964844,2.7783203-.699707,4.220459-.114502.5437012.0175781,1.4018555-.9274902,1.4228516-.8601074.019043-2.0788574-.9675293-2.2102051-1.7265625-.3725586-2.1540527.1630859-3.3500977,2.0063477-4.4748535ZM110.503494,76.0209098c-.4453125.9326172-.8681641,1.8757324-1.4069824,3.0439453-1.1953125-1.7443848-3.1503906-2.2478027-4.7724609-3.2839355-1.776123-1.1347656-2.151123-2.0966797-1.1242676-3.765625,1.4067383-2.2858887,1.9902344-4.7412109,2.1025391-7.6315918.840332.6481934,1.2565918,1.3210449,1.71875,1.942627,1.2612305,1.6958008,2.3747559,3.4851074,3.3791504,5.3466797.7807617,1.4472656.8051758,2.8774414.1032715,4.3479004ZM124.5774686,131.6378532c-.2092285,3.6713867-.5070801,7.3203125-1.3041992,10.9304199-.4189453,1.8981934.2819824,3.8010254.5488281,5.6928711.1611328,1.142334.3999023,2.2741699.6071777,3.4296875-.0932617,0-.1884766.017334-.1967773-.0024414-1.9960938-4.7009277-4.611084-9.1091309-6.5332031-13.8459473-1.4150391-3.4873047-1.7392578-6.9907227-1.1628418-10.7724609,1.2685547-8.3200684,1.3186035-16.7199707.7983398-25.1176758-.407959-6.5852051-1.2355957-13.1196289-2.4643555-19.6005859-.3674316-1.9375-1.1079102-3.7514648-2.2485352-5.3754883-.2988281-.4255371-.3823242-.8156738-.2810059-1.333252.5202637-2.6584473.0100098-5.0761719-1.7670898-7.1818848-.4116211-.487793-.7563477-1.03125-1.1525879-1.5322266-1.4909668-1.8850098-2.4763184-3.8564453-1.6257324-6.3803711.2705078-.8017578.2358398-1.7556152.1437988-2.6188965-.125-1.1708984.3898926-1.6569824,1.409668-2.0930176,3.3771973-1.4445801,6.6306152-3.1555176,9.8911133-4.8459473.4172363-.2160645.8381348-.4248047,1.3566895-.6870117.0332031,1.359375-.3776855,2.4938965-.7023926,3.6291504-2.4321289,8.5058594-2.3859863,17.1914062-2.0717773,25.9250488.4111328,11.4255371,3.0205078,22.4631348,5.8137207,33.4511719,1.5510254,6.1008301,1.2912598,12.1853027.9411621,18.3288574ZM124.7815702,108.5060173c-4.9506836-17.4099121-6.2145996-35.0649414-3.776123-53.3269043,1.3022461,1.111084,2.197998,2.0864258,3.4353027,2.592041.3557129.1452637.1699219.4848633.1342773.7421875-1.1242676,8.1125488-.8874512,16.2663574-.7431641,24.4169922.1408691,7.9526367.4770508,15.8964844,1.0397949,23.8308105.0407715.5773926.0053711,1.1604004-.0900879,1.744873ZM169.4221952,256.0458122c-2.3273926-9.8239746-4.9321289-19.5898438-6.6855469-29.5383301-1.1428223-6.4855957-2.0266113-13.0185547-2.9462891-19.5415039-1.2546387-8.8979492-3.7766113-17.4545898-6.7307129-25.9101562-1.9741211-5.6501465-3.8850098-11.3242188-5.2062988-17.1757812-.1547852-.6855469-.3347168-1.3989258-1.2849121-2.1254883-.1074219,5.5510254,1.8486328,10.5507812,1.8830566,15.7836914.034668,5.2719727.8793945,10.5078125.9714355,15.7888184.0913086,5.2290039.3044434,10.4560547.4663086,15.753418-.4130859-.2607422-.4177246-.6403809-.5217285-.9589844-4.826416-14.8039551-11.2597656-28.9172363-18.3630371-42.7429199-.0546875-.1064453-.1027832-.2177734-.1679688-.3173828-4.0290527-6.1633301-4.8850098-13.2373047-5.8395996-20.2861328-.119873-.8847656.4589844-.6716309.8869629-.614502,2.3393555.3115234,4.6875.4733887,7.045166.5727539.8510742.0358887,1.2888184-.1965332,1.6159668-1.0019531,1.4301758-3.5214844,2.390625-7.1911621,3.5075684-10.8117676.0930176-.3015137.1943359-.6005859.3693848-1.1396484.5356445.7768555.9904785,1.3886719,1.3950195,2.0322266,1.699707,2.7036133,3.2871094,5.4755859,5.1677246,8.0688477.8518066,1.1745605,1.8244629,1.5310059,3.1779785,1.2182617,1.0031738-.2319336,2.2282715-.809082,2.9814453-.4499512.7546387.3598633,1.052002,1.6875,1.5400391,2.5959473,2.3015137,4.2839355,5.5341797,7.6538086,9.6489258,10.2714844,6.1577148,3.9172363,14.2844238.619873,16.4567871-5.6071777.6425781-1.8425293,1.1201172-3.7248535,1.628418-5.6540527.1413574.1027832.2729492.1484375.3166504.2373047,1.6044922,3.2600098,3.0693359,6.5766602,4.3178711,9.9946289.8757324,2.3969727.4555664,4.7539062-.0209961,7.0874023-1.3491211,6.605957-1.9633789,13.265625-1.8554688,20.0048828.1789551,11.1503906-.40625,22.2954102-.2314453,33.4487305.0864258,5.5007324-1.2346191,10.8535156-2.2529297,16.2275391-.5822754,3.0732422-1.8574219,5.9375-2.623291,8.9536133-.2573242,1.0136719-.498291,2.0290527-.154541,3.0649414.1494141.4506836.300293.9238281.5639648,1.3088379.4169922.6086426.9099121,1.5559082,1.7009277,1.173584.5744629-.2775879.0070801-1.1728516-.2043457-1.729248-.5656738-1.489502-.5415039-2.8647461.0600586-4.3913574,1.6586914-4.2106934,2.5612793-8.6374512,3.3857422-13.0754395.032959-.177002.0756836-.3522949.2636719-.5249023.3085938,3.0541992.5598145,6.1154785.9382324,9.1611328.7189941,5.7854004,1.4919434,11.564209,2.2763672,17.3413086,1.0131836,7.4611816,1.4064941,14.953125,1.2150879,22.4782715-.0136719.5332031.0290527.9885254-.7631836,1.0541992-4.7421875.3935547-9.4855957.6965332-14.248291.529541-.5549316-.0192871-.9956055-.0058594-.9509277-.8127441.3723145-6.755127-1.1904297-13.246582-2.729248-19.7419434ZM172.0108183,281.5765739c-.3391113-.1496582-.3056641-.4191895-.2436523-.7004395.1437988-.6533203.2910156-1.3056641.4787598-2.1464844,1.3520508,1.2841797,2.5864258,2.4619141,3.6472168,4.0593262-1.5483398-.0761719-2.7006836-.6911621-3.8823242-1.2124023ZM184.3867948,289.3971306c3.2346191,1.1962891,6.4946289,1.0529785,9.7485352,1.6098633-2.7573242,1.4077148-7.7338867.6240234-9.7485352-1.6098633ZM196.7935331,287.6703239c-3.0546875.6188965-6.0922852,1.3161621-9.2189941.5068359-3.0629883-.7929688-5.3547363-2.7429199-7.4265137-5.0036621-1.3706055-1.4956055-2.7084961-3.0209961-4.2429199-4.7363281,2.9318848.0112305,5.6352539.0871582,8.3254395-.1984863,1.2277832-.1303711,2.4577637-.2443848,3.6831055-.3952637.4155273-.0512695.7834473-.0864258,1.0812988.2851562,2.4519043,3.0600586,5.4746094,5.5751953,8.0996094,8.4709473.5280762.5825195.7248535.862793-.3010254,1.0708008ZM84.1636503,249.7543083c1.3630371-5.4318848,1.2480469-10.9472656.8083496-16.447998-1.0205078-12.7666016-1.3498535-25.5258789-.4384766-38.3178711.7839355-11.0019531,1.3125-22.0175781.9724121-33.0598145-.1328125-4.3112793-.0644531-8.6335449.7644043-12.8972168.0732422-.3771973-.0769043-1.0686035.5344238-.984375.5385742.0742188.3452148.7302246.3413086,1.1342773-.0300293,3.2365723-.111084,6.4731445-.1311035,9.7099609-.0537109,8.668457,1.390625,17.1708984,2.7358398,25.6982422,1.6364746,10.3740234,4.6445312,20.3603516,7.8747559,30.3137207,1.7397461,5.3615723,2.4333496,10.9802246,3.4174805,16.5195312,1.2792969,7.1999512,3.3901367,14.2023926,5.0439453,21.3134766.4157715,1.7878418.8203125,3.578125,1.2241211,5.3686523.0942383.4191895.2243652.8417969-.0124512,1.4865723-.7697754-1.3032227-.9748535-2.5683594-1.3452148-3.7739258-4.2712402-13.8999023-7.2189941-28.1274414-10.5480957-42.2631836-.9665527-4.1035156-2.6403809-8.0356445-3.7646484-12.1083984-1.7124023-6.2026367-2.6079102-12.5791016-3.6550293-18.918457-.4680176-2.8334961-.8549805-5.6806641-1.2956543-8.635498-.3374023.4760742-.3139648.9445801-.3129883,1.3779297.0224609,9.6435547-1.2414551,19.2145996-1.6166992,28.8371582-.2763672,7.0869141.1333008,14.137207.7126465,21.1894531.4968262,6.0510254,1.3513184,12.1176758.7963867,18.1799316-.7663574,8.3725586-4.0817871,15.7629395-9.7502441,22.0556641.2548828-.4111328.5046387-.8254395.7653809-1.2329102,2.9145508-4.5544434,5.5476074-9.2380371,6.8791504-14.5449219ZM121.6980741,223.3790641c2.5505371-17.4882812.4174805-34.7097168-3.0290527-51.8657227.9785156,2.0461426,1.3566895,4.2329102,1.8327637,6.3876953,2.5058594,11.3457031,4.1831055,22.7939453,3.6938477,34.4501953-.3137207,7.4758301-1.5100098,14.8442383-3.2077637,22.1347656-1.3483887,5.7900391-2.814209,11.5615234-3.6027832,17.4638672-.5441895,4.0734863-.9309082,8.1679688-1.3881836,12.2529297-.5751953-1.0910645-.4084473-2.2077637-.3603516-3.3051758.2626953-6.0014648,1.2495117-11.9047852,2.4343262-17.7817383,1.0805664-5.3591309,2.2602539-10.6987305,3.1074219-16.1044922.217041-1.385498-.0014648-2.6943359-.2265625-4.034668-2.1982422-13.0800781-5.8693848-25.8330078-8.605957-38.7929688-1.784668-8.4526367-2.7553711-17.0205078-3.519043-25.6147461-.0405273-.4570312-.1538086-.940918.213623-1.6337891.345459,2.625.6965332,5.0185547.970459,7.4213867,1.1323242,9.9321289,3.0925293,19.7104492,5.4365234,29.4169922,2.3520508,9.7387695,4.5993652,19.498291,6.1523438,29.4035645.0112305.0710449.064209.1352539.0983887.2019043ZM120.3455351,258.9567009c-.5305176,10.5358887-1.7756348,20.4938965-5.0012207,30.1147461-.9931641,2.9621582-2.3432617,5.744873-4.1359863,8.3312988-2.0690918,2.9853516-5.1699219,3.6555176-8.4316406,4.0744629-2.1047363.2705078-4.21875.3393555-6.3381348.2583008-.2392578-.0092773-.4897461.0102539-.7145996-.0549316-.5512695-.159668-1.2033691-.4418945-1.1750488-1.0283203.03125-.6447754.776123-.5722656,1.2587891-.5822754,2.9584961-.0620117,5.8925781-.2336426,8.7880859-.954834,2.71875-.677002,4.7312012-2.1818848,6.1459961-4.5812988,2.5478516-4.3210449,3.9194336-9.0742188,5.0280762-13.8989258,1.8161621-7.9038086,3.310791-15.8642578,3.4187012-24.0175781.0078125-.5952148.1254883-1.1906738.2185059-1.7817383.0446777-.284668-.0266113-.7302246.434082-.6918945.3544922.029541.501709.3659668.5026855.7167969.0041504,1.5178223.001709,3.0356445.001709,4.0961914ZM92.3731229,297.8531852c.0043945.3947754-.3178711.5175781-.6518555.572998-1.2587891.2094727-2.5117188.4873047-3.779541.6062012-2.1867676.2050781-4.3791504.4050293-6.5856934.3432617-3.0297852-.1831055-6.0600586-.3588867-9.0888672-.5559082-.4753418-.0307617-.9567871-.1130371-1.4140625-.244873-1.777832-.5136719-2.2939453-1.5358887-1.626709-3.2587891.3601074-.9291992.7387695-1.8588867,1.2055664-2.7373047,2.1665039-4.0771484,3.0927734-8.4431152,3.1635742-13.0275879.0053711-.3535156-.3164062-.9929199.3605957-1.0358887.5871582-.0373535.7138672.5517578.8256836,1.0192871.5458984,2.2839355.0644531,4.5236816-.3032227,6.7685547-.333252,2.0336914-1.0778809,3.9121094-2.0776367,5.7058105-.4853516.8706055-.927002,1.7692871-1.3334961,2.6796875-.845459,1.8925781-.6040039,2.3393555,1.4711914,2.6645508,1.5820312.2478027,3.1804199.2685547,4.7822266.2409668,4.3139648-.0739746,8.6164551-.5075684,12.9353027-.4069824.4758301.0112305.951416.0888672,1.4238281.1582031.3120117.0458984.6882324.0842285.6931152.5078125ZM52.7417753,219.0382438c-.0231934.6220703-.0029297,1.2456055-.0029297,1.8684082-.5332031-.5947266-.4853516-1.2749023-.4987793-1.9328613-.1293945-6.3398438.8032227-12.529541,3.2336426-18.3842773,4.0749512-9.8168945,7.2878418-19.9135742,10.2583008-30.1005859.4006348-1.3735352.9682617-2.6992188,1.4812012-4.0385742.0778809-.2033691.145752-.4665527.5432129-.574707.1708984.5737305.0654297,1.1325684-.0439453,1.6916504-1.0522461,5.385498-2.9765625,10.5068359-4.8022461,15.6525879-2.2663574,6.3881836-4.5095215,12.7890625-6.986084,19.0966797-2.1213379,5.4023438-2.9667969,10.9880371-3.182373,16.7216797ZM104.5430448,83.0919548c.2548828-1.3771973-.1435547-2.4819336-1.1796875-3.4360352-1.1030273-1.015625-1.8930664-2.2861328-2.5778809-3.6245117,2.2214355,1.7705078,4.9177246,3.2478027,4.9558105,6.5898438.0229492,1.9909668.0029297,3.8227539,2.6645508,4.3745117-1.7219238.7636719-3.4118652-.1989746-3.8737793-1.887207-.1853027-.6774902-.1120605-1.3515625.0109863-2.0166016ZM154.4468534,71.7345329c-.6049805.6992188-1.0234375,1.5297852-.6525879,2.4174805.3898926.9335938,1.3171387.4272461,1.8688965.4990234,1.6745605-.0837402,3.1557617-.4182129,4.6455078-.7021484,1.7250977-.3291016,3.4641113-.6098633,5.0874023-1.3149414.5722656-.2485352,1.3239746-.489502,1.2717285-1.2578125-.0512695-.7543945-.8513184-.7368164-1.3908691-.8806152-2.1425781-.5715332-4.3535156-.6125488-6.5419922-.5825195-1.6137695.0219727-3.1586914.5161133-4.2880859,1.8215332ZM164.9375761,71.5480095c-3.3552246.9836426-6.5361328,1.5581055-9.9414062,2.0383301.8168945-1.5251465,1.949707-2.3139648,3.4960938-2.361084,2.0649414-.0627441,4.1315918-.0102539,6.4453125.3227539ZM89.3491972,133.547277c-.5366211-1.1098633-.8569336-2.1176758-.8574219-3.2331543,2.1933594.6088867,2.2441406.7856445.8574219,3.2331543Z"/>
  </g>
</svg>