<?xml version="1.0" encoding="UTF-8"?>
<svg id="Layer_2" xmlns="http://www.w3.org/2000/svg" viewBox="0 0 148.0851089 250.4308899">
  <g id="Layer_1-2" data-name="Layer_1">
    <path d="M85.3214332,20.3262795c.2190207-1.9726434-.4371226-2.8308901-1.9474735-3.4828992-3.1948633-1.3792109-3.7678621-3.8009995-1.6972479-6.6402849,1.5007676-2.0578946,3.4832477-3.6103801,5.699543-4.8249018,2.726409-1.4940356,5.4578711-2.9948824,8.2745685-4.3048088,6.1452351-2.8579133,12.7376513.1943418,14.5177111,6.7439899.7686553,2.8282449,1.2442535,5.7339793,2.4187315,8.4481282.3104337.7174285.5857342,1.5177799-.0562481,2.1922501-1.7803607,1.8704591-.6398755,3.5158941.9006507,4.2308832,3.8462071,1.7851128,6.5634922,5.2750133,10.5825937,6.7087774,8.3807445,2.9896869,11.8815905,9.4619086,12.7868189,17.8173724.9512914,8.7807855,1.0072702,17.6074439,1.3767557,26.4178345.0924743,2.2043519-.2650361,4.3320063-1.6918147,6.1162003-.7497423.937558-.5771489,1.8476494-.3271925,2.911326,2.2018017,9.3705906,6.0578771,18.1756114,9.2257015,27.2154138.8562826,2.4435687,1.6580437,4.9063831,2.4688019,7.3656493.2170407.6583609.4931331,1.5021299-.2763142,1.8490591-.8448461.3809537-1.1521435-.5480982-1.4685648-1.0961963-2.1348299-3.697643-3.2027992-7.8160935-4.600147-11.8051463-.4203322-1.1999963-.5584893-2.5158945-1.6742006-3.9764442.3575104,2.309134.698072,4.1520472.9194211,6.0091531.5405266,4.5347592.307931,8.975555-1.7848593,13.1625613-.5505692,1.1014869-1.1279715,2.288732-2.3359671,2.6581542-1.9804842.6056927-2.0006961,1.9639155-1.8834479,3.6225928.9233495,13.0614699,3.4324802,25.8652219,6.5260463,38.5439957,2.9058612,11.9094215,4.471684,23.9213283,4.4202038,36.1847754-.0315534,7.5230521.8041688,15.0181624,1.3242617,22.522143.3507309,5.0606179.1141752,10.1537713.7734074,15.2020973.1921084,1.4712576-.457588,2.2560698-1.9696179,2.3808895-2.7449894.2266398-5.4094796,1.8119142-8.2661733-.0002218-1.0960063-.6952524-2.2430492.5950798-3.2001064,1.2529814-5.9443513,4.0866752-12.4030615,4.2771362-19.1222141,2.6456722-.5014808-.1217468-.992634-.3041294-1.4705448-.5018452-3.2845973-1.3590465-3.7713469-3.0999655-1.5554951-5.78245-1.4051886-.6623368-2.7985606-1.3064891-4.1788644-1.9775379-.4042862-.1965436-.7828797-.3732555-1.1789132-.035165-4.3804927,3.738954-10.06852,3.2185126-15.1564937,4.6508669-.4927688.1386957-1.1408653.0424197-1.4886658.3305823-3.7575027,3.1137463-8.3310067,3.0408503-12.7993009,3.3223284-3.3124125.2086771-6.5003062.7431528-9.4594217,2.3844377-1.4080398.7809472-2.9507045,1.3450122-5.4064859.8991142,4.4843402-2.7815483,8.4721892-4.8728814,13.1628781-5.37517,2.7479515-.2942452,5.5052487-.5766737,8.2222646-1.0650864,3.3646847-.6047739,4.036478-1.4428088,3.9576737-4.9161247-.1003944-4.4240371.3002169-8.8143348.6798559-13.2062799.1310608-1.5162751.2101027-3.0983498,1.2491798-4.6413629.8842245,1.0118638.7647428,2.1309649.7751656,3.1610764.0490725,4.8432921.1226655,9.68858.0274192,14.530003-.035957,1.8269622.4954933,2.2293634,2.2236927,1.7845425,3.0074753-.7741043,6.0659397-1.3480852,9.0953218-2.0396944,2.1548042-.4919293,3.3110661-1.7921774,3.7329189-4.0528091,1.4742513-7.9003943,1.4490339-15.8747618.7812482-23.7919466-2.4123004-28.6002321-5.8040558-57.0883482-10.7119596-85.3788752-.7672772-4.4228332-1.8245545-8.7947881-2.6915767-13.2013219-.2535362-1.2886057-.7466376-2.1237893-2.135907-2.5154193-2.5496022-.7187433-4.1775656-2.6372136-5.6243819-4.7485843-.9019179-1.3161674-2.2878608-2.6057394.9009041-3.111893-2.6794432-1.8187887-5.0669222-3.3433165-7.3490964-5.0119097-3.1219356-2.2825702-5.1547079-5.2619452-5.7017923-9.2043966-.8904655-6.4168607-2.2262904-12.7731014-2.5169241-19.2700812-.2183554-4.8807539.1347673-9.6774286,1.9353242-14.2779558.2539797-.6489361.5758025-1.2788641.4372652-1.9927127-.4252109-2.1911096-.6695282-4.3852764.1401371-7.1178948-1.9343104,1.9221927-1.8702215,3.7022367-1.4489072,5.504425.5410177,2.3141078.3013891,4.4547668-1.0870091,6.4281863-1.0520976,1.4954454-1.1806873,3.2411797-1.1704704,4.9701236.0164578,2.7851915-1.1163291,4.8986056-3.587507,6.1180536-1.6452608.8118829-1.6216115,1.6996397-.96965,3.2389621,2.0874522,4.9286067,3.9804992,9.9392492,5.9798965,14.9056345.6069757,1.5077056.6399231,2.9388086.1638814,4.5271559-1.6224669,5.413598-4.2379321,10.3786053-6.6638866,15.4402844-8.0896673,16.8789273-17.6776312,33.0534466-23.5185469,50.9889067-5.0001405,15.3537184-9.1680436,30.9662003-14.530399,46.204698-2.2090406,6.2775789-4.798829,12.3993232-7.356272,18.5371611-1.1927574,2.8626495-3.1263392,4.6552071-6.2671245,5.1575274-4.8812449.7805671-8.6835433,3.2091986-11.394144,8.1012781,1.8767001,0,3.4762464-.0397269,5.0732266.0076032,4.5052016.1335001,7.6260284,2.3520923,8.8458249,6.6530837,1.5042366,5.3038264,5.844543,6.607496,10.2860517,7.8904151.5409385.1562782,1.3345736.1492452,1.7643623-.1438912,1.898195-1.2946724,3.6352015-1.3922156,5.9027712-.5867479,2.2054132.78345,4.8141939.0029146,7.1627063.7858577.1440338.0479954.2509226.2074099.6466551.5501574-5.8624423.5059002-11.4388288,1.4106535-17.0345243.5555747-4.7999378-.733427-8.646335-3.0338173-10.3223888-7.9333733-1.6282802-4.760005-5.0028967-6.7602893-9.9080442-6.6626828-1.2278273.0244571-2.9704729.5254469-3.5663764-.7967239-.538214-1.1941513.7153535-2.3839308,1.4275231-3.4404636,2.0874997-3.0969242,4.699781-5.4944141,8.4987214-6.3575079,1.4239274-.3235493,2.7920503-.897942,4.179308-1.3762488,2.181463-.7520866,3.4376599-2.204146,4.2719565-4.4478289,7.4739004-20.0999426,12.8207484-40.8567096,19.1157039-61.3200234,3.3083574-10.7545535,7.7058466-21.0554157,12.9057462-31.0545245,6.2952881-12.1055058,12.2107789-24.4081887,18.3527509-36.5942096.6947614-1.3784664.6692589-2.4728095.0336918-3.8605582-2.5861294-5.6465897-5.5934937-11.1167685-7.3205368-17.1341267-.4467534-1.5566356-1.7438652-2.5505684-2.7412512-3.7293074-2.9552664-3.4927042-3.4269996-5.2227885-.7907998-8.7634882,2.4243705-3.2562278,1.7754978-5.9629793.0835089-9.0420041-2.7592297-5.0211127-2.6952516-5.4391956.998669-9.7412008,1.1590973-1.3499068,1.2202558-2.742851.7785079-4.3440922-1.7021583-6.1700565.3867037-11.4860956,6.2128089-14.3844961,6.4066438-3.1871967,12.9778027-4.5689104,19.1845131,1.2309795ZM134.3055729,82.6955492c-1.4060598.9960712-2.2642433,1.5672009-3.0831433,2.189985-6.6312719,5.0431463-12.1091014,11.3417925-18.2994966,16.8683778-1.7384637,1.5520736-3.3789566,2.2878766-5.1816677.5502841-1.386038-1.336015-2.2953532-.9675591-3.3674567.2468834-.5688645.6444216-1.2283025,1.2278749-1.9189614,1.7419961-1.7248571,1.2840121-1.964359,2.7360715-1.5668049,4.9215421,1.2687898,6.974748,4.806353,13.1187793,6.8041346,19.8034798,3.1896995,10.6728821,6.1647026,21.4107402,9.4246369,32.061668,3.7219576,12.16055,6.9675566,24.4179779,8.6253469,37.0508471,1.2926766,9.8506557,2.9022022,19.6717854,3.0771082,29.6345571.0368123,2.0967187,1.1052569,2.7638074,2.9545219,3.0794684,3.3026867.5636848,6.5343148.358841,9.7740848-.3819358,3.676354-.8406009,3.6203118-.8105365,3.3044291-4.6254911-.6777333-8.1855156-1.4980273-16.3671979-1.8705224-24.5681101-.5303256-11.6761289-1.4362193-23.2465729-4.212287-34.6746463-3.1609497-13.0125241-5.9839357-26.131747-5.5803623-39.6669618.0449224-1.5070245-.5580774-1.4891885-1.705849-1.1633899-4.4883319,1.273922-9.0172303,2.4044279-13.6266595,3.1365877-1.7654869.280401-3.6005751.7426459-5.6105218.0161252,1.3290612-1.3136489,2.8064489-1.5896779,4.2179577-1.799052,4.3655397-.6476372,8.6559341-1.6163526,12.9380916-2.6622726,8.3867162-2.0484698,9.8552493-3.6773678,9.3221358-12.3930981-.5969806-9.7603197-3.3074704-19.2199632-4.4187148-29.3668441ZM118.7329605,77.041388c-.6465759,1.9488516-2.5620524,2.5339838-3.6820564,3.7533209-3.4701955,3.7779681-6.966432,7.4426796-11.3746765,10.1280312-.9105824.5547035-1.0813067,1.1305218-.569609,2.102532,1.4593458,2.7720284,3.1551364,5.3400368,5.4539586,7.5123759,1.2024832,1.1363034,1.8103935,1.0604453,3.0319323-.2162803,6.2026871-6.4828821,12.221566-13.1734592,19.5831602-18.4428018,2.6291035-1.8818956,4.6228617-4.4332085,4.5182855-7.7817047-.3152174-10.0946244.0639305-20.2372126-1.665742-30.2512586-.6913241-4.002406-1.9967678-7.6887076-5.6637286-10.0720523-2.3295677-1.5140733-4.7833691-2.7563785-7.3422219-3.8133865-.6362482-.2628185-1.2219032-.6155294-1.8740706.057151-3.9946286,4.1204304-8.631176,7.7601938-6.9952926,14.7517482.8328868,3.5596285.5829146,7.3585055-1.0854093,11.5077014-1.1169468-4.3222646-2.0903826-8.0892555-3.0638342-11.8562305-.2678715-.0637088-.5357429-.1274175-.8036144-.1911263-4.3416053,11.0523469-5.8308097,23.0116012-10.1415586,34.2776465-.5012116-1.8492175-.5055834-3.6106969-.1176284-5.2421768,1.7948861-7.5478735,3.7355959-15.0610573,5.6217049-22.5872616.2114174-.843563,1.1132244-1.9120551-.3285389-2.3775631-1.5288204-.4935925-1.3123816,1.0760795-1.581552,1.7875521-3.0023906,7.936383-3.8882625,16.2513753-4.3014508,24.649829-.2718156,5.5253973-.6764661,11.0450763-.0506566,16.5749088.1054474.9317606.1564049,1.7733753,1.3781338,1.7079874.872392-.0467282,2.0848544.5464508,2.3923736-.8155895.4316261-1.9116908,1.9066219-2.8092051,3.3301851-3.7602589,3.7706499-2.5190942,7.0067925-5.6008594,9.9192273-9.0634358,1.092268-1.2985533,2.0182786-2.8309693,3.8296542-3.3666489.8973876-.2653687.6818517-.9956752.5936859-1.7145136-.8729622-7.11837-1.131884-14.2918-2.0450959-21.4143834-.7292611-5.6879798-.2427333-11.2718744,4.0068413-15.7845684,1.3893169-1.4753601,2.9625687-2.5983896,5.2694059-2.3725418-4.5139612,1.7444355-6.5913708,5.1895086-7.3968859,9.577557-.7508036,4.0899066-.0618872,8.1364906.8732156,12.0733821,1.133373,4.7717108.0676688,9.8312357,2.0821458,14.4507551-1.5476226,2.4488118.4664426,4.3930381.9316655,6.5559524.2355577,1.0951826.5632888,2.1760616.7138328,3.281857.083398.6125514.3764076,1.5198232-.5779092,1.7341236-.7657249.171944-1.2709282-.4583008-1.624732-1.0646904-.7164465-1.2279541-.8096019-2.6198212-1.2431447-4.2959384ZM108.7978456,230.7286571c2.4162446-.6564126,6.4408267-3.0822879,7.3130761-4.4342698,1.0003956-1.5506163-.1012973-3.1818269.0847127-4.7768905.0897023-.7690989.0628376-1.5540378.0575945-2.3315952-.0942484-14.0122544-.6789688-27.9786677-3.6380685-41.7451792-1.8318568-8.5223389-4.5308784-16.8386301-5.9743524-25.4523979-2.3115417-13.7938515-4.3593462-27.6356034-7.3673442-41.3028769-.1730686-.7863487.0948345-2.8705062-1.6154022-2.0544098-1.1700586.5583309-3.9496903.1087579-2.8923179,3.3013561,2.2556104,6.8105657,3.4706865,13.891458,4.6873624,20.9547045,2.7134519,15.7524447,4.5384658,31.6305646,6.6122638,47.4713019,1.8173473,13.8817639,3.3090861,27.8063594,3.1281133,41.8433243-.0364005,2.8236512-.2570685,5.6449265-.3956375,8.5269325ZM91.7833748,93.7915038c-1.5713035-1.0321074-2.8236512-1.956835-4.1682041-2.718885-4.1680457-2.3622933-5.7102351-5.7207529-5.0432255-10.5770814.8117879-5.9103744,2.2185605-11.7025185,3.0353221-17.6024701.4506976-3.2557526-.1648951-6.2288866-2.41135-8.6756391-3.0728631-3.3468171-7.8179467-2.2697556-9.2089268,2.0469491-.287925.8935543-.4397838,1.8478711-.5284723,2.7860627-.7872833,8.3276486.5085297,16.5195636,1.3979814,24.7666654.7012875,6.502508,4.3323547,10.475895,9.5429623,13.5694769.5812356.345076,1.0506245.809,1.8360703.2260378,1.7156857-1.2734467,3.5158307-2.4330667,5.5478427-3.8211164ZM62.2050974,65.7723173q-.826725-6.3921185,1.0525728-8.2741883c-1.1096129,2.6015417-.5799209,4.6861269-.0246472,6.7486152.1668752.619822.3285706,1.531133,1.1734484,1.510335.7561892-.0185962,1.0378098-.8140055,1.3174663-1.4524237.6945713-1.5856229.6275678-3.2452031.2015649-4.837463-.553262-2.067858-.0048787-3.7850169,1.3272713-5.8916356v5.15371c.7524668-.2011372.5360597-.8761461.8147499-1.2715459,1.91771-2.7209442,2.9514965-5.5425046,1.6920999-8.9656708-.4903294-1.3328153-.1066829-3.0144607,1.1176755-4.0617746,2.3058551-1.9724058,2.5369143-4.353327,1.7218475-7.0542335-.4503808-1.4923882-.3029255-2.8466669,1.5389105-4.2149323-1.4234364,3.4854019.2299186,6.3432994-.0892746,9.7003492,2.5221355-2.2284605,2.7885972-4.3371543,1.3154071-6.7699676-.4697215-.7757358-1.4543245-1.7608299-.7601492-2.5741067,2.4180662-2.8330444.5108106-4.6515955-1.2025149-6.6915751-2.1674604-2.5806962-1.6628274-4.8906222,1.2514607-6.6150358,1.5074521-.8919703,3.2249753-1.1251203,4.8722636-1.6484129-4.4332085-.7589771-8.5622084.2858975-12.3234335,2.4344765-5.3739503,3.0698852-6.4545125,7.9767751-3.2049059,13.1369637.138268.2195592.2683942.4448367.4166889.6574105,1.8454001,2.6451336,2.0469808,5.2459784-.1544407,7.8210356-1.1302842,1.322155-1.7968819,2.910439-1.1527612,4.5650454,1.4401635,3.6994013-.1349891,6.4786211-2.3346049,9.230406-3.1953702,3.9975273-2.8589588,5.9292241,1.4333048,9.3646189ZM106.3301524,132.4930291c1.2366661,8.8561526,2.0863117,17.7943567,4.2742692,26.5185298,2.5196961,10.0468825,5.4917846,19.9889987,6.6385108,30.3454279,1.1239323,10.1506983,1.6320977,20.3362764,1.9376051,30.5331961.0527316,1.7603072.5735215,2.5640641,2.3127772,2.5504734.7776683-.0060826,1.556097.0161886,2.333401.0461896,1.50449.057943,2.1973031-.4829955,1.982686-2.144619-1.1399941-8.8265633-1.9357994-17.7068879-3.3631799-26.4852657-3.4042532-20.9362984-10.8830007-40.8364976-16.1160694-61.3639321ZM81.5534603,38.7520848c1.2600144.1271166,2.2711178.2763142,3.2869258.3228207,3.1036403.1421013,6.7830673-2.7478565,6.2865603-5.2181632-.5145964-2.5602467-2.2593804-4.6046297-3.8035023-6.6988773-1.0892742-1.4773718-2.217515.065863-3.2871159-.2581773-.2446182-.0741157-.5338104-.024964-.7619233-.1250257-.5980894-.262375-1.5055196-.3869571-1.2515558-1.3164209.2379179-.8706179.8933167-.8779835,1.6402553-.4402114.763539.4474662,1.6917672.4613738,1.7129295-.6018594.054078-2.7175861-2.2365706-4.4550361-4.9739093-3.9267063-.8451946.1631211-1.6873478.3659373-2.5096693.6194102-4.0579572,1.2506846-4.4326066,2.312508-1.6950144,5.412711,1.8819273,2.131155,2.4236102,4.3349683.999366,6.8553456-.4940677.8743086-.3746652,1.577988.1510351,2.369358,1.5884424,2.3910747,1.2899046,4.7140054-.3211891,6.9812425-1.3277307,1.8684632-2.1609185,3.9025977-2.1933589,6.2521556-.018422,1.3348745.1763634,1.9303187,1.727249,1.369596,5.2845648-1.9107245,10.2412243,2.4886496,11.0161682,7.598435.3646226,2.4041269.0951038,4.7787121-.0222711,7.7745291,1.7100467-3.078423,2.5880618-5.5968677,1.3787199-8.5677682-1.0718502-2.6331427-1.8240635-5.3945424-2.8165074-8.0624383-.8565836-2.3026396-1.1156638-4.5182063.3485133-6.6706028.9101864-1.3380109.3184646-1.7628575-1.0509413-1.8910987-1.3564646-.1270057-2.7383683-.3093091-3.8607641-1.778254ZM102.286483,27.6492398c.3655572.6570145-.0548225,1.1616317.0027879,1.6213423.1229348.9809757-1.7802815,2.3283639-.0561055,2.7676883,1.7326188.441447,3.7820865,2.2225205,5.605358-.182541,1.5122358-1.9948036,3.1975403-3.8587207,4.8148908-5.7732469.4549902-.5385783.9525903-1.030365.3538197-1.7896589-.4563525-.5786854-.6150542-1.7389548-1.5440585-1.4908834-4.5833565,1.223899-6.0632469-2.0937249-7.7182335-5.1446495-.5775449-1.0646746-1.0153803-2.2107672-2.0267847-2.9573098-.9977978-.7365-1.9315067-.9829398-2.1639914.6710488-.2521898,1.7940782-.4531528,3.5977556-.5948897,5.4036505-.0471084.6003229-.2186722,1.5789225,1.0249319,1.0850925.3886837-.1543615.8767163-.4174176.9421992.2965737.0693795.7563793-.4342081,1.125548-1.1170102,1.1149035-2.1424806-.0333592-2.6467493-1.6240351-2.4591078-3.2193838.3395003-2.8869165-1.542427-3.5491741-3.6179833-4.0394876-2.0990471-.4958735-4.0932488.3497013-6.1129214.7596265-1.0267376.2084237-.7160188.9372887-.6432495,1.624732.5301672,5.0086783,1.3509839,9.8907944,5.3860997,13.5046118.3147739.2819058.5700367.6628595.7621926,1.0435915,1.0193878,2.0197042,2.3030039,1.7669917,4.0163611.7662318,2.4360764-1.4229612,3.4569373-3.9760957,5.1456949-6.0619322ZM94.8392256,63.5302501c.6243998-5.3627514,2.1839499-10.3677073,4.1423214-15.2679603,1.4090853-3.5257307,3.1748098-6.9097087,4.2014999-10.5875992.3729703-1.3361101.984207-2.8179488-.4644943-3.7813578-1.3607414-.9049275-2.7605761-.5222472-4.0483581.5166081-1.3548964,1.0929808-2.8136403,2.0982076-4.7230184,1.4008326-.8837493-.322789-1.212415.2760133-1.6343786.8493288-.8194228,1.1133195-1.6559053,2.2184179-2.5519306,3.270167-2.537041,2.9779811-3.0180248,6.2825527-1.7711577,9.9424647,1.6503296,4.8440999,4.279734,9.1962706,6.8495164,13.657516ZM86.4627263,14.5861383c3.3204434-.1537121,6.3965379-1.2590006,9.4433599.2223471.8865688.4310242,1.0892109-.5470844,1.4953345-1.0553131,1.5159424-1.8970862,3.7226228-2.1314242,5.6617011-.621311,1.206665.9397123,1.8790444,2.242083,2.4139795,3.6219592.5736482,1.4797795,1.3482911,2.7901336,2.6751347,3.732412,1.1373013.8076694,1.5281868.8089208,1.8964526-.8264399.9815459-4.3590136-1.5456109-8.0231074-2.0603657-12.0709269-.2045745-1.6086544-1.2821113-3.0346093-2.7412829-3.9450333-.4762634-.2971598-1.2343535-1.0225558-1.6159408.1855981-.6747554,2.1364772-1.419714.8691448-1.9031847-.0344522-.702428-1.3128252-1.5241317-1.7020157-2.9337397-1.0770932-3.7885175,1.6794912-7.654889,3.1919488-11.1668072,5.4375799-1.5374374.9830982-3.0453647,2.0197993-4.0016457,3.6208029-.8764629,1.4673926-.9746872,2.6709371,1.2801629,2.7236529.6037919.0141293,1.2066808.0661165,1.5568415.0862175ZM91.3919507,62.0955039c-.9259631,3.4616735-2.0209239,6.2395311-4.3164038,8.3731254-.2858341.2656855-.4068047.7631747-.4968714,1.1766322-.8626186,3.9595111-1.6607523,7.9284788-1.7342978,12.0045411-.017725.982227.1040693,1.8400303.8723286,2.5796349,2.4861785,2.3935616,5.2852618,4.3480206,8.4553196,6.4747245-.1930271-2.0190389-.3496854-3.6181892-.4981703-5.218084-.5295494-5.7065443.5088782-11.3593116.5919277-17.0457074.0435127-2.9805471-1.3682496-5.3865749-2.8738326-8.3448667ZM113.6773956,242.028616c.4945587.8841611,1.3664913,1.0531747,2.2018492,1.2133495,4.6072592.8833691,9.1089918.5693872,13.3732818-1.4851018,3.5208995-1.6963133,7.2421443-2.7105848,11.021332-3.5840697.7476197-.1727835,1.5588848-.3205397,2.1823184-.7244615,1.0836827-.702127,1.8808502-1.9662281,1.2257365-3.0748114-.779585-1.3192562-1.7825467.0222078-2.5632721.4524558-3.9562797,2.1803542-8.7480916,1.9483922-11.4783181-.9715667-1.3760587-1.4717011-2.03518-1.2363493-3.0333738.2046537-2.5037927,3.6144827-5.7416618,6.1262746-10.2826619,6.657012-.9812608.1146821-2.0606508.2863885-2.6468919,1.31254ZM88.870243,98.8304684c.9980988-.2437787,1.4889984-.3715606,1.9836364-.4828212.9748931-.2192266,2.1369524-.8992567,2.8396497.1830796.7371811,1.1354005-.18224,2.1396769-.8942037,2.9888157-1.0126558,1.2077105-2.1188156,2.3370284-3.1850266,3.4998322,1.8270414-.5979469,2.8756067-.490963,3.9091239,1.4679628.7037744,1.3339717,2.5154985,1.354342,3.7959624-.2359537,1.1866115-1.4736811,2.5743602-2.7867755,3.8907969-4.153948.665283-.6909439,1.4644939-1.3460418.7056277-2.4096551-1.0516541-1.4740137-1.1820654-4.1223787-3.3592199-4.1632303-3.3076605-.0621089-6.7671005.1502272-9.6863466,3.3059181ZM110.8377617,234.2247827c3.3028926,2.3689778,5.9917765,2.9198955,8.8278464,1.6453083,2.3644792-1.0626471,3.6518019-3.3806198,5.4662504-5.0885281.4189382-.3943228.4749329-1.1272112-.159763-1.2688214-2.3234693-.5183505-3.1972393-2.7455914-4.8746396-4.1231074-.8026956,3.939616-1.7321752,4.8216546-9.2596943,8.8351486ZM61.1472024,52.0273958c1.0114361-.8175536,1.008474-1.6819147.8159696-2.378466-.9204666-3.3307078-.126087-6.2090073,1.797167-9.0072193.9647871-1.403668.7386701-3.0062714-.6981353-4.4006571-.9522734,1.6028252-1.9429591,2.9046098-3.3179565,3.8312382-1.7847326,1.2027367-1.7891837,2.7159863-.9795501,4.489219,1.0684129,2.3400063,2.2663975,4.6447526,2.3825052,7.4658853ZM106.8958806,37.282538c3.0645312-3.2271771,6.1066804-5.6089378,8.464586-8.6780785.451252-.5873816,1.1455382-1.2950843.2282554-1.9961817-.7807096-.5967589-1.2640694.1373017-1.6977706.6450553-1.6818672,1.9690952-3.3835978,3.9242194-4.985726,5.9571818-.8026481,1.0185008-1.8217825,1.9889428-2.0093448,4.0720232ZM101.62516,94.6108157c-.1638497,2.3513161.7230201,4.145236,2.6691789,5.3523603-.279609-2.0961959-1.3252596-3.7936656-2.6691789-5.3523603ZM88.1333945,104.0941718c.6568878.0511318,2.7399048-1.8822758,2.6955684-2.5328275-.0255025-.3739049-.1374918-1.1311079-.6285182-.8134035-1.0598275.6857484-2.5313544.8868856-3.1187043,2.1030388-.2268932.4698007.4873673,1.0161089,1.0516541,1.2431922ZM67.6566483,113.581773c-8.4433761,24.8691507-8.5960428,50.8211445-10.0185763,76.6072927,2.9978603-25.5803857,3.3426512-51.5073205,10.0185763-76.6072927ZM21.7773845,230.4843715c4.9815759-3.6237016,8.0833947-8.6940136,10.7038495-14.0860375,5.4237357-11.1600277,8.2888246-23.2024108,11.8849169-34.9904023.0905102-.2967162-.0240294-.6560007-.0683816-1.4307387-1.2074095,1.3352864-1.6063575,2.6508044-2.0211932,3.9164261-2.0951505,6.3920076-4.0958783,12.8152519-6.223691,19.1962348-2.711757,8.1322613-5.8302078,16.0680106-11.4695269,22.73836-2.2346698,2.6432328-4.7567419,4.9170752-7.8350857,6.6048031,2.0150314-.0205921,3.562052-.8814366,5.029112-1.9486457ZM79.473643,117.2733493c2.6579007,16.3631429,3.5648557,32.876608,4.0690452,49.4246362,1.0532697-16.6817184.5465934-33.2295565-4.0690452-49.4246362ZM53.8455469,231.7753374c5.0440333-13.6597178,7.612992-27.6984885,6.577384-42.2893174-.018723,14.4293552-2.4424441,28.4903654-6.577384,42.2893174Z"/>
  </g>
</svg>