<?xml version="1.0" encoding="UTF-8"?>
<svg id="Layer_2" xmlns="http://www.w3.org/2000/svg" viewBox="0 0 71.3211317 116.4030626">
  <g id="Layer_1-2" data-name="Layer_1">
    <path d="M70.8276862,66.43947c.4042762-1.0924416.6455337-2.2145169.3853129-3.3782396-.4318492-1.9312617-2.2862067-3.2262669-4.4172788-3.073026-.42817.0307683-.5221768-.0214911-.4347274-.4728708.4339766-2.2396789.3729739-4.4547297-.5205917-6.5892891-.6610013-1.5789946-1.744733-2.7465883-3.4213052-3.2645771-.7749641-.2394054-1.5806632-.3467942-2.3908674-.3375503-.4428533.0050391-.4905075-.1312825-.3266379-.5028048.499451-1.1325539.653693-2.3217054.5512766-3.5523041-.1511051-1.8157637-1.2737477-3.2462896-2.9621667-3.7323087-.8520684-.2452788-1.7191873-.2339325-2.5859725-.0861646-.208537.0355404-.3876573.0420478-.5638242-.1084232-.7250407-.6192705-1.5268854-1.1096612-2.479952-1.3856082.5551643-1.0490256,1.0609892-2.0789629,1.352654-3.1968.2755465-1.0561671.3681684-2.0908764-.1054198-3.1398019-.7689907-1.7032358-1.8877289-3.1326271-3.2549828-4.3827813-1.9373185-1.7714133-4.169272-3.1308584-6.3625147-4.5452326-1.7359397-1.1194723-3.4812567-2.2255628-4.9846988-3.6652992-1.4928467-1.4295247-3.0043813-2.8395607-4.5130293-4.2524999-.0899356-.0842291-.2004612-.2708412-.3379174-.1570118-.1344194.1112932.0173197.2562245.0843459.3679515.3593918.599181.7425273,1.1846464,1.0880199,1.7916029,2.122479,3.7289048,1.3175808,8.1113524-1.9657008,10.7956366-2.1281187,1.7398775-4.6364863,2.6672315-7.2297003,3.4221228-1.9352495.5633403-3.928782.9528163-5.7774831,1.7791888-2.2464199,1.0041746-4.0593804,2.5180286-4.9180897,4.8923271-.8564734,2.3681249-.7291287,4.619784,1.256745,6.4661825.1959727.1821737.0580827.2510854-.0465029.3571059-.3967342.4022238-.7196179.8565068-.9413199,1.3765646-.0799075.1874797-.2014123.2854578-.3948321.352267-.6744666.2329982-1.3461967.475674-2.0101346.7371044-1.4684857.5782572-2.8823927,1.2498205-3.9493887,2.4706747-1.0316392,1.1804083-1.2603825,2.5695204-.9957985,4.0599811.2135928,1.2032676.7835739,2.1528135,2.1792268,2.5182955-.7268261.2748457-1.3303787.4976323-1.92976.7309641-1.0291697.4007221-2.042388.8366843-2.9182167,1.5275361-.6078909.479545-1.102136,1.1326874-.8531029,1.883207.3052136.9197787-.1549094,1.3182316-.7695747,1.7365737-.0767038.0521927-.1449314.1172666-.215278.1784028-1.6580845,1.4412381-2.8319186,3.1566544-3.1192118,5.3964667-.1904832,1.4848877.5612713,2.7752209,1.8751813,3.1389676.6190369.1713948,1.2307655.1100584,1.8374384-.0659416.1462996-.0424482.2890452-.1354873.4399667-.0161517.3774957.2985393.7764825.5744529,1.0800275.9546183.2815033.352534.2480152.5837969-.1295139.8548382-.1754327.1258764-.3819341.2077027-.562239.3277058-.389209.2590277-.4248996.5137172-.0780554.8118561.473972.4073296.8650832.8919471,1.3071523,1.328243.7808542.7705424,1.6936082,1.1329543,2.7971291.9056293.4252667-.0876997.8498826-.1784028,1.2752327-.2655018.1348199-.0276314.2846402-.1105924.4067957-.0235601.5121821.3647479,1.1238106.4271522,1.7475195.5775898-.3178613.450512-.3211483.4521806-.0842624.9170423.2252894.4421025.4846842.8673191.6324522,1.3463969.5422496,1.7581983.8458447,3.5617815,1.0369285,5.38759.2038817,1.9481475.2721927,3.9058392.4188427,5.8578578.2526038,3.3622214.6206721,6.7128295,1.0683809,10.0543607.4972819,3.711485,1.1192888,7.3981418,2.2750357,10.9735388.01757.0543952.0557634.1098582-.0481214.1654547-.3279227-.2073023-.6641549-.4293547-1.0097476-.6357893-.4323914-.2582936-.6992114-.6079576-.826139-1.1137325-.320848-1.2789202-.698861-2.5432239-1.0356604-3.818273-1.0075451-3.8140683-1.6505927-7.7080941-2.5244192-11.5514623-.8501496-3.7391831-1.8168984-7.4472643-3.0720582-11.0741865-.6757681-1.9527528-1.4077333-3.883347-2.5020104-5.6504221-.4103664-.6626865-.8636649-1.29634-1.5588718-1.7005995-.4221465-.245479-.8671689-.3391855-1.3374534-.1443641-.4719698.1955556-.5327722.5493577-.1471673.8894776.2326978.2052333.4917255.3808996.7221541.5884688,1.3483992,1.2143802,2.1282189,2.7794924,2.6591223,4.4714821.8040138,2.562379,1.4031281,5.1804879,2.0382499,7.7887858,1.1013518,4.5228739,2.2474043,9.0349354,3.3374933,13.560479.5016702,2.0827672.9431052,4.1768139,1.8057523,6.1539277.3197634.7328329.7769163,1.3239714,1.4087178,1.8131274,1.242946.962227,2.6270191,1.6482734,4.0971066,2.1723357,3.7585885,1.3399229,7.669884,1.7738161,11.6250793,1.9302605,3.5222699.1392916,7.0181766-.1300812,10.4882539-.734635,3.7550011-.6541435,7.4366856-1.5653791,10.9569366-3.070957,3.2192088-1.3767648,5.6342036-3.5499013,7.1111322-6.76896,1.010949-2.2035712,1.7793557-4.4776224,2.1657782-6.8600636.9026926-5.5653253,2.5612277-10.8964512,4.7759782-16.0689967,1.0134185-2.3668234,2.1418343-4.6860593,2.9381727-7.144053.4337597-1.3389218.2393887-2.5390858-.6344544-3.6341304-.1840592-.2306622-.3564885-.4768086-.5723338-.674233-.2534881-.2318635-.2265408-.3897096-.0105286-.6424635,1.1078592-1.2962066,2.0091001-2.7231617,2.6034256-4.3291203ZM66.3129049,60.8122076c1.7676591.9711705,2.8052717,3.3701637,2.2838457,5.340937-.8832038,3.3382608-2.9712604,5.6311335-6.1505572,6.9461614-1.9835544.8204658-4.0867448,1.1485721-6.1849963,1.495166-1.3324477.2200501-2.6656964.4340266-3.9767532.7659372-.6288147.1591809-1.1983954.4389656-1.6880519.8577082-1.6113981,1.3780996-3.622951,1.352871-5.3064311.2486826-.1865787-.1224058-.3779963-.2374032-.6862133-.4304225,1.3071857-.0895017,2.4636668-.1613167,3.6122222-.3152917,4.1549724-.5568329,8.1834844-1.5230644,11.7944384-3.7671483,2.0347293-1.2645706,3.6952833-2.883544,4.5689095-5.1836248.4237817-1.115668.6499888-2.2681112.612346-3.4632028-.0093606-.2978719.0565142-.5378113.2554236-.7616657.43995-.495096.6849785-1.0979145.8658174-1.7332366ZM57.5943457,75.2430758c-2.0281551.6894503-4.0980577,1.189552-6.2322834,1.3664864,1.9839549-.9135717,4.1236701-1.067213,6.2322834-1.3664864ZM60.5897836,49.8761447c2.6901242.4489102,4.1849565,2.0749917,4.5923528,4.9948436.1074555.7701086.1744816,1.5434876.1921517,2.1253489.0465029,2.8391602-1.0876362,4.9309376-3.0388372,6.6251299-1.9926815,1.7301664-4.3288367,2.8918868-6.6990973,3.9937391-2.7414158,1.274315-5.6462673,1.9513512-8.6116543,2.4603296-4.5942216.7885629-8.9892502,2.2613034-13.3037205,4.0027494-2.9347522,1.1845463-5.880617,2.3441977-8.9532259,3.1455084-.7467988.1947547-1.4397197.1522397-2.1326072-.1502374-.4551006-.1986925-.9047283-.4107335-1.3647678-.5971454-.9888739-.4006554-1.942124-.3113539-2.857114.2350672-.4972819.2970042-.9342785.6679592-1.3452456,1.0720852-.4656626.4579872-.9627609.512983-1.5065623.1545089-.141978-.0936398-.2720592-.2068351-.400355-.319363-.5074601-.4449724-.3696702-.3704877-.0680273-.9151735.5970452-1.0780252,1.7057387-1.3688892,2.6210123-1.9464122.9454412-.5966114,1.9931987-1.0046752,3.0523692-1.3702908,2.0874725-.7204855,4.234079-1.0676802,6.441955-1.1307518,2.6977829-.0770209,5.3371493-.60709,7.9524885-1.2248588,3.1020256-.7328329,6.2317494-1.2762505,9.395562-1.6545472,2.37263-.2837225,4.6241223-1.0578023,6.8626999-1.8532397,2.721076-.9668322,5.4103492-2.015691,7.9863103-3.3297845,2.1308218-1.0870355,3.5844406-2.7466551,3.948738-5.1545918.3106698-2.0534672.0406629-4.0475002-1.2960898-5.7399905-.7347851-.9303574-1.736507-1.5491941-2.8413961-1.9697054-.3432568-.1306151-.3507987-.2614972-.2226531-.5653425.4535822-1.075489.4418689-1.080428,1.5957136-.8878758ZM58.447482,52.6906102c-.0702799-.2652682-.2115071-.6252773-.0194721-.7989748.2040653-.1845764.5247798.0497232.7752311.1480683,3.1044451,1.2188853,4.5846274,5.4669469,2.8422304,8.1823664-.7082383,1.1037879-1.7711464,1.8143955-2.892938,2.435101-2.2820937,1.2628353-4.7425068,2.0664153-7.2358907,2.7842311-3.1210639.8985546-6.3093877,1.4844872-9.5001809,2.0599413-.0566978.0102116-.1168495.0012681-.1753994.0012681-.0078923-.0237603-.0158013-.0475207-.0236936-.071281.4500115-.1928859.898054-.3905105,1.3503514-.57779,2.59263-1.0737537,5.2636158-1.9606284,7.7644414-3.2532308,2.1365784-1.1043885,4.0081889-2.5314772,5.4991835-4.4417817,1.5006389-1.9227186,2.2668764-4.0125605,1.6161368-6.4679179ZM57.0929092,51.7145676c.4646614-.4871537.9293229-.9743074,1.393951-1.4614944-.2479818.6794055-.7860267,1.0966464-1.393951,1.4614944ZM58.512556,42.916201c.3774957.4227471.6292819.9007905.7647025,1.4295915.2538719.99126.2686387,1.9981377.106788,3.005249-.0522427.3249693-.2066849.6137976-.421479.870189-1.6341907,1.9506837-3.5045832,3.6341972-5.5784736,5.1136787-1.7912358,1.2778857-3.8288517,1.9098373-5.9169583,2.3843099-4.2506645.9658311-8.5006949,1.9282583-12.6931265,3.1282221-.1412939.040446-.2823209.1268108-.4782436.0353068.5913054-.3341131,1.198679-.5607707,1.803383-.7898978,3.1113362-1.1788732,6.3489159-1.9289924,9.5499541-2.8028857,2.9371049-.8018447,5.850683-1.6692973,8.5272918-3.1678338,1.2381572-.6931879,2.4325981-1.4713723,3.3383609-2.5771958,1.5301558-1.8681232,2.179377-3.9222579,1.0664621-6.2586133-.0396951-.083328-.0680941-.1726629-.0941904-.2614305-.0072916-.0247281.0125142-.0574319.025529-.1086902ZM57.7221076,43.5378409c.8586593,2.1794771.4258674,4.1108389-1.1742179,5.795854-1.1430658,1.2037348-2.5489637,2.0192283-4.0381897,2.7099133-2.731371,1.2668065-5.6068058,2.1125677-8.5218523,2.8043206-4.916855,1.1668262-9.5964236,2.9689411-14.1876585,5.0457682-2.5094188,1.1350901-5.1127109,2.0113527-7.8541601,2.4090046-.6987775.1013152-1.3987564.0296337-2.082033-.1247418-.7144453-.1614502-.87109-.5745196-.4779098-1.2014322.5541298-.8836043,1.4694034-1.2063711,2.3971912-1.486356,1.2926692-.3901768,2.6230813-.6325856,3.9308677-.9678333,2.4029311-.6159668,4.6136937-1.6346579,6.5471412-3.1456085,3.5037489-2.7380453,7.4776321-4.4357081,11.6971779-5.6776196,2.3661393-.6963915,4.7565895-1.3160958,7.0817822-2.1486421,1.0105986-.3618112,1.9959185-.7770165,2.902015-1.3618812.2881942-.1860448.5599197-.3910778.8012106-.6362565.8770468-.8912129,1.0414837-1.9576917.4695837-3.0744944-.0826773-.1614502-.1738309-.3185954-.2662526-.4872204,1.2613836-.2121745,2.3097585.3655488,2.7753043,1.5472252ZM52.6781248,40.9141255c1.0017719.5477225,1.7500557,1.3321474,2.1727027,2.4000612.2376868.6004825.0925218,1.1604523-.2660357,1.6741027-.4889224.700396-1.1855808,1.1257128-1.9495491,1.461461-2.4108067,1.0594041-4.9493085,1.7217569-7.4821039,2.3989933-2.9900484.7995421-5.9030926,1.8063864-8.688525,3.165431-1.1216582.5472887-2.1649272,1.2274951-3.1419544,1.9938328-2.9773172,2.3352542-6.3060672,3.8648593-10.0306338,4.5580472-1.0960457.2039652-2.1698495.528534-3.1861045,1.0132183-.5526114.2635662-.9806145.6500054-1.2666563,1.1904197-.3449921.6517407-.6687434,1.3205008-1.5500284,1.3688892-.9693684.0533273-1.8074209-.2544225-2.4934006-.9325933-.6429641-.6355891-1.0034071-1.5951463-1.0017886-2.5349478-.0169693-1.1334883.4954798-2.0336447,1.2662558-2.8062561,1.277869-1.2809225,2.8657237-2.0603417,4.5178348-2.7187233,3.3165361-1.3217356,6.7895-2.0752253,10.2711905-2.7941424,2.7341909-.564575,5.504306-.9644962,8.1848526-1.7754179,3.3348569-1.00888,6.5332588-2.3639534,9.6831889-3.83903.7338507-.3436239,1.4125888-.7826228,2.0181437-1.3260405.3848708-.3453258.7731454-.7197514.9098675-1.218585.2306622-.84169,1.0480912-.9394678,1.5985502-1.3708247.12611-.0988457.300575.0190884.4341935.0921047ZM14.5869485,61.8038013c-1.9746944-.5504923-3.9203891-2.8198049-4.157008-4.8439054.1863284.1095912.3372166.1935533.4833994.2850573.6551947.4100661,1.3791175.5423497,2.1384638.5365431.1652378-.0012681.3579402-.0546621.3072325.2448116-.2439773,1.4404371.1137626,2.7016039,1.2279123,3.7774934ZM52.1449689,40.6700481c-.4762246.2191157-.8501162.4680987-1.3419085.5775231.0859644-.4361624.3256368-.7664711.6268792-.9557863.2343664-.1473007.4272523.2062344.7150293.3782633ZM40.0092592,23.2886598c2.4143441,1.6401975,4.9441026,3.1111694,7.2366582,4.929803,1.4656992,1.1626881,2.8579149,2.4031313,3.8901714,3.9852628.6380085.9778781,1.3100556,1.9907626,1.1742846,3.2180575-.3737748,3.3789737-1.9829537,5.9600406-5.0763195,7.5202472-.0962928.0485886-.2015124.0813591-.305297.1123277-.0567311.0169526-.1192021.0146834-.2552401.0292332.2013121-.2397391.4337263-.3083171.6345879-.4193433,1.9511676-1.0784591,3.3713651-2.5794984,3.8183565-4.8397006.4133531-2.0902424-.060402-3.9772871-1.3733609-5.6460504-.9174761-1.1661254-2.0155742-2.1513785-3.165698-3.0836047-2.1433027-1.7372745-4.5615512-3.1341288-6.4471442-5.1910333.4528981.8664514,1.1349399,1.5193936,1.8612321,2.1257827,1.4071827,1.1748686,2.8447165,2.3139299,4.2372826,3.5056511,1.3990067,1.1972608,2.6716365,2.5119884,3.498009,4.1940334.6732652,1.3703909.8770635,2.8096934.6073903,4.3065613-.2124748,1.1792737-.8496824,2.118708-1.7482203,2.8922539-1.0609725.9133714-2.3074225,1.50451-3.5671877,2.0798305-1.6908885.772211-3.3383609,1.6278502-5.2010113,1.9754786-2.4241218.4524142-4.834428.6147988-7.2574485.0482548-.1931529-.0451847-.3952325-.0736504-.5968784-.2258233.4968313-.1957892.9955148-.2437437,1.4845706-.3217657.5057248-.0806583,1.0149202-.1456656,1.5248831-.1928525,1.9972033-.18481,3.9414464-.5801594,5.682642-1.6242794,2.4992239-1.4986366,4.2431893-3.5787341,4.7001587-6.5418352.348129-2.2574657-.1506379-4.3536148-1.3985395-6.2648871-.4072796-.623809-.8262558-1.2423453-1.2775687-1.8345851-1.3360685-1.7532594-2.6508962-3.519133-3.6908115-5.5377607.3589246.2864255.6680593.5681124,1.0104985.8007434ZM46.0776229,43.86261c-.7376884.408264-1.5508293.558101-2.3795378.6503392.7389065-.4131362,1.5644614-.5121154,2.3795378-.6503392ZM40.6187853,26.9430799c-.0776883-.3292075-.1545423-.6586486-.2407403-1.0261663.0776716.04989.1294471.0653076.1513554.0997467.9834344,1.5458236,2.2319034,2.9114424,3.0851231,4.5460335.6449163,1.2354709,1.1711311,2.5165602,1.2343029,3.9234926.1514722,3.3742017-1.3908141,5.8402044-4.1996398,7.5735745-1.7310675,1.0682141-3.6672514,1.4826518-5.668259,1.667028-1.1443173.1054532-2.2839458.2589276-3.4137299.4740054-1.3016794.247815-2.4848575.7610984-3.5495676,1.5588384-1.3237212.9917939-2.7753544,1.7098433-4.4355413,1.927424-.8632478.1131286-1.7326693.103818-2.7251306.0685112.7597969-.7316315,1.4904273-1.3032145,2.2357411-1.8557759,2.0563038-1.5244326,4.30244-2.7128166,6.624062-3.7770595,2.3300482-1.068114,4.635335-2.1897888,6.6986468-3.7388828,1.586403-1.1910871,2.9392073-2.5848712,3.7765256-4.4165196,1.0449543-2.2858313.9893411-4.6399736.4268518-7.0242502ZM35.3495298,19.1390768c-.1705105-.2658688-.3141571-.5489573-.5180221-.9084659.3284066.1426288.4733046.3282397.6102603.5068427,2.0319428,2.649478,3.676028,5.4996173,4.4239614,8.7913252.5685128,2.501977.4612576,4.9394807-.8661845,7.2184042-.9464424,1.6248134-2.3875803,2.7631405-3.8610884,3.8624566-1.8720944,1.3966207-4.0464991,2.227465-6.1239269,3.2377466-2.5730911,1.2513556-5.1153806,2.5510327-7.3414774,4.3822807-.5409815.4450391-1.0464227.9272873-1.5192934,1.4441414-.0595677.0651073-.1115935.1778688-.2158787.1452985-.1435298-.044851-.0905029-.1851104-.0760865-.2794509.0625711-.4096322.204983-.7989414.1105924-1.2365054-.2161123-1.001872-.8266062-1.4582908-1.8429279-1.3191994-.12314.0168859-.2468139.0303011-.3695367.0496898-.6811075.1075889-.6682428.1076223-.6929042-.6013168-.0630049-1.8107914.8229353-3.144574,2.1469401-4.2410202,1.238808-1.0258993,2.7024382-1.6329226,4.2057801-2.1528468,1.9654338-.6797392,4.0030664-1.131486,5.951264-1.8624501,2.6547172-.9960654,4.9328398-2.5489971,6.7469517-4.7391196,2.0978343-2.5326785,2.5741423-5.3306253,1.3171971-8.403718-.5613881-1.3725266-1.2881808-2.6505125-2.0856204-3.8940925ZM15.345494,40.0075952c.7470157-2.1742045,2.2855477-3.6171444,4.3248822-4.5727973,1.6534125-.7747806,3.4224899-1.2012319,5.1737136-1.6758047,2.592897-.7026987,5.0772206-1.6563158,7.3026165-3.1886241,1.6398471-1.12915,3.008169-2.5025109,3.6989708-4.4319705.2909807-.8127905.4033084-1.6569833.4305393-2.5145246.0101449-.3202306.0016352-.6409952.0424149-.9682338.3986531.5905378.5185727,1.2724796.6968253,1.9346655.8585091,3.1893916-.333429,5.7137607-2.5652656,7.8948396-2.0633284,2.0164251-4.5531249,3.2404496-7.320637,3.9812583-2.1558169.5770559-4.3328412,1.1060905-6.3512853,2.1046254-1.2823241.6343877-2.3973247,1.4729074-3.3291671,2.572991-.8486312,1.0018387-1.1973776,2.1151039-1.0066608,3.4101759.0575988.3911112.0754858.7880623.1115434,1.1823438-.0453682.0077421-.0907531.0154843-.1361214.0232598-1.3462634-1.7264289-1.8010804-3.6312939-1.0723688-5.7522044ZM16.1874009,49.5115303c.7182997-.3305757,1.4643643-.6051211,2.1285359-1.044654.1253425-.082961.2578431-.0943739.3977521-.1037513,1.0692653-.0716147,2.1398321-.2213516,3.207312-.2016625,2.1335916.0393447,4.0714608-.5467214,5.9021749-1.5916757.4030414-.2300615.8407889-.3986197,1.2582968-.6041867,1.1588671-.5705151,2.3696599-.7130438,3.6264217-.430823,2.9323661.6585819,5.8291085.4593554,8.7080639-.3254699.4685659-.1277118.9044279-.2658688,1.4554208-.1267441.5160198.1303148,1.1289164-.0910368,1.6933579-.1906834,1.4905775-.2631324,2.7587355-1.006811,3.9571976-1.8855764.5822618-.4269519,1.1477712-.8766964,1.8210864-1.3929832-.2266409.6011833-.5234282,1.0060768-.8673358,1.380469-.3835025.4175079-.8490817.7238227-1.3508353.9790795-5.264083,2.6783107-10.8072831,4.4961768-16.6209574,5.555047-3.7079643.6753676-7.3941539,1.4905274-10.9498118,2.7828629-2.0360141.7400077-3.9989117,1.6283841-5.6319177,3.1053628-.4857354.439366-.9327935.9159077-1.257279,1.4896264-.1079227.1908169-.2444278.2496838-.450462.2477482-.405878-.0038043-.8104044-.0330375-1.2011819-.1340857-1.2694595-.3282397-1.7971759-1.3018463-1.429458-2.6127696.2247888-.8013775.6957908-1.4512494,1.2795042-2.0243675,1.2566115-1.2337689,2.7335235-2.1386974,4.3241146-2.8707628ZM9.7832221,55.9207148c.0093106.3412545.0156344.6829095.0067911,1.0239638-.0032704.1266773.0887008.3140903-.0789564.3690862-.1433296.0469867-.2331483-.1258764-.3289739-.2180478-1.2738144-1.2247587-1.3979555-3.4352711-.2841229-4.9004697.6557787-.8626137,1.5330758-1.4389354,2.4809865-1.9185138.9420707-.4766417,1.9326966-.8377522,2.931365-1.1759699.116449-.0394448.2375033-.0652742.3016762-.0825939.2215184.0047387.3806994.039278.4509625.1985924.0817429.1853106-.0676435.2932666-.1917513.3782633-.5879182.4026243-1.2425956.6935883-1.8214202,1.1170696-.7899645.5779903-1.5835832,1.1455019-2.2297509,1.8918502-.8250043.9529164-1.2715285,2.0438563-1.2368057,3.3167697ZM3.8234818,71.7169348c-.6570635-.2512856-1.0519957-.667492-1.3505016-1.1846798-1.0077287-1.7461179-.667542-4.0796368.7942193-5.4647444.8675193-.8220009,1.8621498-1.4296249,2.9828902-1.8586458,1.8652199-.714145,3.1263867-2.115471,4.2195291-3.7673485.0455518.0550626.1130952.1188684.1594813.1954889,1.1104955,1.8342848,2.864172,2.6308568,4.8695345,3.0221015.3350975.0653409.6708625.1274115,1.006227.1914176.6919364.1320167,1.3332153-.004138,1.9038972-.4069959.2095882-.1479014.3566554-.1659887.5768556-.0218248.2696231.1766007.575721.2974714.967216.4929603-.790365.1087903-1.4923295.2108396-2.1957623.3013425-2.6329091.3387183-5.2713078.6520745-7.8314176,1.3921823-1.5096658.4364961-3.0016115.934996-4.2349466,1.963565-1.0610893.8849391-1.8506534,1.9556227-2.1727194,3.3337891-.1456656.6233084.0303345,1.1861481.3054972,1.8113921ZM4.5947918,71.9369182c-.4225636-.4096656-.56309-.8999562-.4401002-1.4872237.4278363-2.0425882,1.6783742-3.4182183,3.4905172-4.3385978,1.6405813-.8332137,3.4184019-1.1996301,5.2150606-1.490761,3.7378316-.6056217,7.498923-1.0744211,11.2052354-1.8653201,2.4049-.51325,4.6917992-1.410403,7.00064-2.2313361,4.0358537-1.4348975,8.2177567-2.2801248,12.4101549-3.0821697,2.5914787-.4957635,5.1649703-1.0674132,7.7297186-1.6888528,2.2947414-.5559652,4.3265174-1.5980162,6.1724654-3.0411898.1306985-.1021494.2652848-.1993599.4414517-.3313766.3531514,1.3562415.3095185,2.6379315-.1565613,3.8945597-.7383559,1.990796-2.127201,3.4866294-3.7583549,4.7689535-1.7114452,1.3454625-3.69535,2.2106459-5.6648551,3.0963192-5.7566261,2.5886088-11.727479,4.4979122-17.9318306,5.6664403-2.614872.4924931-5.247364.8266062-7.9159636.7607313-2.0404524-.0503906-4.0486515-.3622784-6.0437024-.774814-2.1935765-.4535154-4.3725697-.5277999-6.5249827.2368692-1.5577705.5533623-2.9245239,1.3622817-3.8587357,2.7770229-.0904695.1370224-.158964.2685719-.3465939.0818263-.3299584-.3282397-.6892334-.6269793-1.0235633-.951081ZM9.976058,76.6893863c-.4569193.151372-.9242505.2580933-1.3943514.3625454-.7041003.156311-1.2930363-.0276981-1.7907687-.5201912-.5184226-.5129163-1.0129513-1.0499934-1.5302392-1.564111-.1491028-.1481684-.0963762-.227325.0351066-.3241684.5268655-.3881745.8444264-.9354632,1.1720655-1.4861558.9395345-1.5791281,2.4598958-2.2959428,4.1541548-2.7527954,1.8788354-.5066425,3.7509966-.3665499,5.6262446.0102116,1.9799336.3977854,3.9678597.7347017,5.9953641.7628003.1321836.001802.2813364-.0200895.4250664.1221388-.952566.1795374-1.8824896.3307759-2.8012004.5329391-1.8131107.3990535-3.4461501,1.2107094-4.9745539,2.2466868-1.5450227,1.0472569-3.1303078,2.0181604-4.9168883,2.6100999ZM11.0355121,76.9821858c.1678241-.0907698.3298249-.1950884.5043899-.2702405,1.3044493-.5615049,2.5062485-1.2976749,3.6551209-2.1264835,2.4475485-1.7656735,5.229794-2.6689668,8.1911264-2.930731,4.3157218-.3816338,8.5309126-1.2619676,12.729885-2.2678442,3.7143883-.8898113,7.4710914-1.5482263,11.2378392-2.1842158,4.6812372-.7904317,9.1378023-2.31403,13.2183902-4.8112016.2433266-.1489026.4781434-.3116208.7169148-.4679318-.1559773.350732-.4333926.5637741-.7183164.7646024-1.5730045,1.108927-3.3302183,1.8583121-5.0982612,2.5796653-2.9474833,1.2025668-5.9532329,2.24068-9.0340678,3.0447272-1.6398137.4279531-3.3285831.6052212-5.0070408.8146592-2.2832117.2849238-4.5366228.7239562-6.7695774,1.2667064-2.805255.6817749-5.6618684.9542179-8.5326979,1.1156013-3.5348009.1986258-6.8008963,1.1657917-9.7155757,3.2392149-1.0356104.736704-2.1300376,1.3971212-3.3285164,1.8548415-.6493046.2479485-1.3116741.4405007-2.0496128.3786303ZM23.0751125,114.6790973c-1.3875103-.2154449-2.8067233-.5972121-4.171341-1.1774716-.2093046-.0889678-.2345666-.2778491-.2987729-.444305-.97077-2.517261-1.5799624-5.1298304-1.9962856-7.7875177-.6298659-4.0210368-1.1258129-8.0598272-1.4720731-12.1152364-.1916345-2.2444843-.3216155-4.4941746-.4976489-6.7400605-.2213516-2.8239429-.5852819-5.6238585-1.5928771-8.2958955-.1460994-.3873736-.0931392-.5773896.3329785-.6197711.1066379-.0106121.2133425-.0450512.3143907-.0833614.4074131-.1545089.6973259-.2062344.7236892.4101328.0173197.4044597.3700372.6706956.7354859.8418235.813241.3807661,1.6291016.394782,2.4019299-.0898354.351316-.2203171.4502618-.1144634.5581844.2354676.6473691,2.0986519.9907427,4.2607092,1.3689058,6.4157586.9055792,5.1609991,1.3595452,10.3761932,1.886127,15.5833114.3890088,3.8467721.7672721,7.6966143,1.5614413,11.4887911.143146.6834434.3102192,1.3618145.4556846,2.044724.037843.1777353.0953584.4043262-.3098188.3334456ZM28.3762876,115.0822221c-.279768.0028699-.5596027.0005339-.839404.0005339-1.0437029.0112795-2.0769773-.1376898-3.1157746-.1986925-.2113736-.0124141-.29622-.1045855-.3325446-.303545-.6049542-3.3145672-1.2093745-6.6262645-1.5337098-9.9870843-.6042201-6.2609159-1.0898053-12.5371159-2.1398654-18.746907-.4296216-2.5407544-.8934822-5.0771038-1.7035862-7.5321608-.0768373-.2328647-.0300175-.3482625.1626682-.4483095.0273477-.0141494.0530937-.0329708.0762867-.053394,1.0082126-.8877423,2.0803978-.9993358,3.2402494-.2956026.5731514.3477953,1.208073.4413016,1.8795362.4255503,1.179841-.0276981,2.3614172-.0373758,3.5297284.1986925.2781662.0562639.380082.1400258.3521836.4515799-.3954828,4.4202906-.3652151,8.8493912-.219416,13.2784251.1222056,3.7126196.381517,7.418565.6313509,11.1243101.2572257,3.8150027.4814472,7.6312734.599765,11.453284.0228259.7372379.0775381.6265121-.5874677.6333198ZM33.592633,114.6100855c-.0037042.3967176-.1272279.4854851-.5025712.4829489-.9787791-.0068077-1.9583591.0221585-2.9366043.0618703-.3330786.0135487-.4130361-.1022495-.414371-.4210786-.02346-5.5988968-.3781465-11.1829101-.8120396-16.7613837-.493611-6.3462796-.6047373-12.697031-.3738082-19.0564588.0156178-.4304225.0754858-.7326327.5653092-.8294093.2536216-.0501236.5882352-.2239212.5535792-.4836831-.0377763-.2831885-.4072128-.2008283-.6407783-.2075025-.5662436-.0162184-1.1332547-.0052727-1.6999321-.0052727-.0038377-.0472537-.0076587-.0945074-.0114797-.1417611.3285734-.1207372.6580813-.2390717.9855868-.3627456,2.6857192-1.0139524,5.3752593-2.0179602,8.0555556-3.0461288,3.724433-1.4286905,7.5611103-2.4154119,11.4956989-3.0653506,5.6923364-.9403354,10.8580241-3.1502471,15.4974805-6.5846172.396484-.2934669.8016778-.5752538,1.2566616-.9010241.0795571.6058886-.0212241,1.1319532-.1286295,1.6525449-.5881852,2.8508402-2.3485026,4.845574-4.7193472,6.3697062-2.4773156,1.5926101-5.2356006,2.463867-8.0863573,3.1008576-2.1323903.4764749-4.3038583.5927404-6.4669835.8031795-1.3236711.1288131-2.5513665.6524082-3.8155032,1.022362-1.4157758.4142708-2.8262789.8448269-4.304776.9879896-.2453288.0236936-.4431537-.0236269-.6565629-.1509716-.8570741-.511448-1.760868-.9183104-2.7454871-1.1212077-.1211711-.0249617-.2451286-.0433159-.3685355-.0491225-.2177642-.0102783-.4765583-.0349731-.5880517.1800046-.0962427.185611.1288798.3227668.2141768.4788109.534374.9773108,1.3799684,1.4571228,2.4757805,1.4568558.4715359-.0001335.5148185.2069686.4813304.591806-.2127919,2.4456463-.4078802,4.8928277-.6135473,7.3390746-.2603459,3.0965194-.5171878,6.1933725-.7899645,9.2887572-.4286205,4.8632607-.6407616,9.7380679-.7942861,14.6160787-.0498567,1.584601-.0967933,3.1697359-.1115434,4.7548709ZM35.4892553,77.2604353c-.6180525-.0140159-1.1939236-.1553766-1.7948399-.6153661.6963915.1716618,1.2533245.3702208,1.7948399.6153661ZM37.5788636,114.7944951c-.914139.0619371-1.8278775.1346864-2.7397139.2243216-.4110171.040446-.5424332-.1144634-.5399804-.5191233.0133819-2.2057069.0063572-4.4115473.0063572-6.6173877.0435829.0001335.0871657.000267.1307486.0003337.1305317-4.8935618.4658795-9.7745093.8857901-14.6507181.423765-4.9203923.8365508-9.8418525,1.2469673-14.7634462.0230762-.2766478.0638059-.4583877.3994206-.4989004,1.793138-.216179,3.5348009-.6645553,5.2546556-1.2054367.1140296-.0358407.2761472-.0971104.3487297-.0477209.1331513.0905029.0444005.2582268.0033371.3853713-1.1639562,3.602361-1.6725343,7.3466165-2.3764343,11.0472225-.6759349,3.5534387-1.2285296,7.1288357-1.6483067,10.7217192-.5645583,4.8321587-.9926949,9.6742621-.7844916,14.5490025.0145499.3408541.0514585.6815747.0954251,1.020026.0299674.2307289-.0261964.3373835-.2825044.3547365ZM44.2041269,113.4969537c-.0208904.2210512-.1275783.3374502-.3401199.3746258-1.8648362.326104-3.7338938.6225075-5.6653724.8255383.4222633-1.4067989.6490377-2.8218072.9000396-4.2316095.487404-2.7377783.8118727-5.4989833,1.1901026-8.2525796.4754737-3.4614675.9597909-6.9216669,1.4493139-10.3811989.5395799-3.8130004,1.0914238-7.6243322,1.63359-11.4369989.163953-1.1531106.3105196-2.3086906.4732379-3.4619347.0212575-.1507046.0842791-.2973379.1408601-.4408344.076587-.1940873.1901161-.2551567.3945651-.1300144.3440077.2105059.7152963.377429,1.0538144.5957438,1.2761504.8229353,2.6527817.9949308,4.1134252.6729649.1060706-.0233599.2136595-.0401123.3208313-.058066.0602685-.0100781.1211877-.0163519.2624817-.0349731-.2789837,1.2038349-.5463209,2.3499375-.749919,3.5095889-1.138227,6.4829683-2.5752436,12.9098729-3.6556048,19.4035867-.6298993,3.7862366-1.1298341,7.5888919-1.3488831,11.4245847-.0309352.542016-.1212712,1.080428-.1723626,1.6215764ZM48.5185472,112.7864128c-.9989187.2240547-1.9908794.4787441-2.9866111.7172152-.6913191.1655215-.6920866.1623178-.6996619-.5430172.2438104-2.1133353.4757073-4.2282056.7335671-6.3398723.8797332-7.2038543,2.4095219-14.2920438,3.8182063-21.4019246.4402671-2.2220588.7330832-4.4708814,1.2416445-6.6824617.1754995-.7632008.4693334-1.1242778,1.2970575-1.2160488,2.3670236-.2624983,4.6544234-.9186441,6.9258216-1.6161702.3599424-.1105256.4597559-.0421813.3470111.3195632-1.2887648,4.1354335-2.0354634,8.4114268-3.2877868,12.5590074-1.4979191,4.9610385-3.149296,9.8729546-4.6558083,14.8305892-.8805508,2.8977601-1.4957333,5.8624631-2.1774581,8.8096794-.080091.3462602-.2265241.4895564-.5559819.5634404ZM52.9566414,110.7250032c-.0872325.2684384-.2481487.4330255-.5219933.5398803-.8951507.3491969-1.7790887.7271598-2.6702849,1.0953116-.1199196-.16719-.0318529-.3106864-.0000834-.4523808,1.2190689-5.4429195,2.7499588-10.7956699,4.5969914-16.0596528,1.8630508-5.309568,3.2157048-10.7618315,4.4955428-16.2343847.2965704-1.2681079.6950566-2.5121886,1.0323734-3.7711528.0777717-.29033.2151612-.4006554.5207252-.3730907.4835663.0435829.9539843.1262101,1.4040124.310019.7147957.2919985,1.412155.6484036,2.2712648.5254639-.3106864.7269596-.5971287,1.3774322-.8680866,2.0343121-1.9502666,4.7276399-3.377739,9.6331487-4.9318053,14.4958087-1.67754,5.2490325-3.0347826,10.5918383-4.6586949,15.8563551-.2103391.6818416-.4493774,1.3547397-.6699615,2.0335112ZM68.6672975,74.8398175c-1.1290165,2.8413627-2.4579603,5.5964941-3.6422396,8.413429-2.1730865,5.1690082-3.9349056,10.4810457-5.4448551,15.8801821-.8231022,2.9430783-1.7354391,5.8594596-2.8575978,8.7068292-.2132924.5412151-.5222769.9776445-.9665819,1.3374534-.6486539.5252637-1.328877,1.0010044-2.1120505,1.4410378.0409966-.509112.2101222-.9090332.3491468-1.3129589,1.7426473-5.0630878,3.0937329-10.2449106,4.659963-15.3615927,1.8031828-5.8906951,3.7100834-11.743614,5.9538503-17.4834043.1106424-.283055.2589777-.4487767.5452864-.5649755,1.0778417-.437297,2.1417843-.9088329,3.214053-1.3601459.1182844-.0497232.2562412-.2044991.3766447-.0758862.1084232.115865-.0270975.2578931-.0756193.3800319ZM68.7535956,73.4274122c.0913538.1531073.141928.2693728-.0946743.345526-1.6542468.5322716-3.1945808,1.3592782-4.8549179,1.8791358-.3569056.111727-.6788716.1258764-1.0310385-.0164187-.7605144-.3072158-1.5326586-.5857324-2.3902834-.9101011.6875815-.2522867,1.3125585-.3729572,1.9332639-.4817475,1.892284-.3316436,3.5246059-1.163122,4.9046578-2.4872936.2655184-.2547562.4129861-.2404066.5881518.0680106.3062481.5392796.6270627,1.0702831.9448405,1.6028884ZM66.4383308,71.4946155c-.1051362.0804247-.190066.2087706-.4611908.1892818.7812546-.7005963,1.44299-1.417411,1.9873921-2.2362083.6511401-.979313,1.132387-2.0292397,1.3673207-3.1885573.2735442-1.3496006.1284794-2.6250502-.625244-3.8039901-.1569117-.2454123-.3047464-.4966311-.4723702-.7706759.9371985.3122215,1.7341376,1.3636165,1.9079852,2.4631328.1499705.9486782-.0082928,1.8610485-.3428897,2.7425838-.6981935,1.8393572-1.7877486,3.4008653-3.3610033,4.6044332ZM19.1241887,20.980136c1.0582361.8379524,2.2806087,1.3732942,3.5314804,1.8531395.8017613.3075829,1.6785077.447809,2.3217722,1.1142998.2128419.2205173.4886053.2043322.6597832-.1608495.599181-1.2782862,1.236739-2.5387187,1.8272434-3.820876.5099796-1.1072918.8460282-2.2671434.8763627-3.5535054-.0056564-.4294881-.063322-.9079319-.1942374-1.3724265-.1719621-.6100934-.5257309-1.0789596-1.1096111-1.3649514-1.255527-.6149322-2.6686664-.1588472-3.3932566,1.107125-.3034616.5302026-.4920759,1.1072918-.6227745,1.6982969-.0948411.4288541-.2522367.4359955-.5624059.1837422-.3487297-.2836891-.7103741-.5568996-1.0915406-.7943361-1.565546-.9753085-3.4555608-.1035844-3.7518309,1.7214899-.2366356,1.4576567.4213122,2.5276061,1.5090151,3.3888516ZM18.829704,16.5371863c.4359455-.5031385.983351-.5342739,1.5747398-.3486963.6279137.1970239,1.1711978.5655094,1.7479533.866051.7492182.390377,1.0046085.3133228,1.3783666-.4601563.1613501-.3339462.2755131-.6904514.4167403-1.034409.2066682-.5033054.5392128-.9022922,1.0041746-1.1885175.9697188-.5969451,2.1142363-.185344,2.4856751.8944166.1330012.3866061.1800046.7851924.1673736,1.1943241-.0536777,1.674036-.6675921,3.1707704-1.48105,4.5998947-.2760137.4849178-.5862163.9505804-.8885098,1.4200807-.0778885.1209708-.1324672.2789837-.3545363.2045658-1.7328195-.5807267-3.5127591-1.0493927-5.0134648-2.1675636-.4765583-.3550702-.908566-.7504863-1.2287299-1.2585638-.5584347-.8862406-.48979-1.9353663.1912674-2.7214264ZM35.7395397,10.219606c.0699962.1386242.1536079.3331453.3652485.311721.2122412-.0214577.334914-.1892484.3693698-.3735579.0902192-.4827153.4384817-.7259251.8148762-.9547518.4507123-.2739447.8955178-.5580009,1.3509688-.8237362,1.1566146-.674867,2.2526269-1.4340966,3.23491-2.3463334.6433646-.5974791,1.1875497-1.2710446,1.4349643-2.1380967.4096322-1.4355316-.3562382-2.6389994-1.774984-2.7706156-.5765386-.0535275-1.1008178.131416-1.5898737.4281533-.440484.2673038-.8144256.619671-1.2141466.9393009-.5856656.4682989-.6669914.4746728-1.1409301-.1207706-.3856049-.484484-.7043172-1.0217279-1.0803946-1.5144212-.4640274-.6079243-1.0918076-.9499463-1.8615825-.8341147-1.7752176.2671703-2.848671,1.5653791-2.8397442,3.4713788.0360243,1.1856809.6424802,2.241581,1.3829551,3.2372126.8592766,1.1553798,1.8900315,2.1846497,2.548363,3.4886317ZM33.9998625.7721684c.261297-.1368222.5261981-.1710611.8372182-.1502374.711759-.0350398,1.2482187.2913645,1.6288513.9170089.2335988.3839364.4752068.7655034.7444628,1.1246783.4450391.5937081.8982376.6850786,1.5347944.2955025.4091317-.2504179.7844249-.5559652,1.1759699-.8352827.3045628-.2172803.6182193-.4198105.9997863-.4702678,1.1635725-.1538749,1.9907126.7721776,1.7479366,1.9615961-.1977581.9689012-.8427245,1.6421998-1.5418691,2.2696463-1.4037121,1.2597318-3.0733264,2.087873-4.7494814,2.9048682-.1673235.081526-.2878939.0597012-.4183755-.0592674-1.4149415-1.2901997-2.654517-2.7122159-3.2616237-4.5706615-.4960805-1.5185259-.0164687-2.697032,1.3023302-3.3875835ZM47.2101435,18.3216812c.066025.5853319-.0069079,1.1870158.1769011,1.7568301.1699098.5267654.3589079.6076907.8569573.3905105.1345863-.0587.2694896-.0644733.4076466-.0770542,1.5505289-.1409602,3.1089669-.014383,4.6589952-.1280122,1.2322338-.090336,2.436853-.3257703,3.4882646-1.0330742.7654033-.5149186,1.0875361-1.415976.8952175-2.3340528-.1926523-.9198121-.8641155-1.2245918-1.6830462-1.3513025-.5825621-.0901358-1.1683279-.1609496-1.7489545-.2616641-.5690134-.0986788-.9049952-.4262178-.969018-1.0258326-.0560137-.5244961-.1198195-1.0513616-.2315131-1.5660466-.228493-1.0530635-1.0917241-1.636193-2.1479746-1.4594588-1.6099298.2694062-2.7078443,1.1708307-3.2591709,2.7146187-.3921791,1.0982482-.4925598,2.2396455-.4508124,3.3964603,0,.3262708-.0298339.6559122.0065074.9780783ZM48.1682658,14.1823766c.3381844-1.0072448.9922945-1.742981,1.9864244-2.1509113.1552097-.0636724.3248025-.1121608.4911582-.1256094,1.2484523-.1010482,1.7197046.2592947,1.9717076,1.4996711.0617035.3035784.1081396.6102936.1597983.9158743.1533243.906864.5579508,1.32267,1.4751766,1.4903939.4570027.0835616.9205296.1322169,1.3764978.2204172.5409815.1046523.9956316.3598423,1.2419783.878632.3382845.7124764.1212211,1.4331622-.5720502,1.8506367-.9425546.5675784-1.9980209.7417097-3.0740772.7944696-.6347715.0311354-1.2723127.0056731-1.9086193.0056731-.9166585.0074084-1.828595-.0617035-2.7376949-.1784028-.1946546-.0249951-.3767949-.0465529-.4208784-.280986-.3084506-1.6406647-.5385621-3.2843662.0105787-4.9198584Z"/>
  </g>
</svg>