<?xml version="1.0" encoding="UTF-8"?>
<svg id="Layer_2" xmlns="http://www.w3.org/2000/svg" viewBox="0 0 148.9795517 171.5566841">
  <g id="Layer_1-2" data-name="Layer_1">
    <path d="M147.2445653,101.1745411c-1.8038257-1.3836635-3.8506691-2.2654612-6.126008-2.5057969-.6082311-.0642378-.6927476-.2768374-.5466753-.7893005,1.0187118-3.574028,2.0837376-7.1302631,3.7800207-10.459638.0667236-.1310922.2290188-.2637543.0755546-.480933-.9824063,1.0864166-1.5873666,2.3770596-2.0753645,3.7134933-1.6591926,4.544398-2.9830666,9.1848255-3.8333995,13.951897-.0862827.4836804-.3058817.7971503-.7012516,1.0684928-1.5131857,1.0387943-3.1308396,1.8575317-4.9330954,2.2243804-4.3833456.8923949-8.8170609,1.1233108-13.2682421.7554154-3.285743-.2716041-6.4358801-1.067577-9.3142169-2.7785785-.9419143-.5599546-1.5651909-1.2652619-1.8749975-2.3300915-1.1774092-4.0471112-2.4074123-8.0787843-3.5942413-12.123148-.163669-.5577305-.206516-1.1527477-.2820706-1.7336352-.0291098-.223851.0663965-.5842891.3290387-.3559898.9722016.845296,1.7773326.1974232,2.5976399-.2183561.5644683-.2859955,1.0749689-.1980774,1.4609844.2063197.5931201.6215758,1.2215645.5313027,1.9060044.2761832.3660638-.1363254.7537146-.2336633,1.092631-.4197043.5077532-.2785382.9011606-.1869568,1.228564.2568203.8095792,1.0975372,1.8398041,1.2877648,3.0045228.6705064,1.1284132-.5981571,2.110427-.4656258,3.0664056.3617464.8161208.706354,1.6929469.5998579,2.5503447.0410808.280566-.1829011.5460866-.3886975.8226623-.5777476.9654638-.6603016,1.4301738-.6315189,2.3061495.1369795,1.1700173,1.0263654,1.5299975,1.0352619,2.5201228-.1414278.4984643-.5922697,1.0352619-.704784,1.7050487-.4645792.2880234.1032253.5628983.2446531.8398665.3767919,1.0742494.5120706,1.5194656.446917,2.4161125-.3612231.2076934-.1872185.4213397-.3685496.6199404-.5649262.4310211-.4266383.932887-.4467862,1.4786465-.2913596.4791668.1364562.7237544.3477475.4559443.8927874-.3073209.6255007-.5350314,1.2825315-.6878414,1.9713542-.5274432,2.3777138-.9033193,4.7796312-1.0870708,7.2045748-.1191866,1.5732369-.2502788,3.1582486.0037941,4.7371113.0866752-.1823777.1127759-.3663254.1286064-.551189.2777532-3.2303363.5367322-6.4642049,1.023945-9.6705992.3072555-2.0229014.6168659-3.9259621,2.6848384-5.2528452,1.3274064-.8515758,2.315046-1.2054724,3.7152596-.557338.4461975.2065814.5961292.3125541.4075371.8098409-.4946702,1.3046419-.9549319,2.6239368-1.3804582,3.9529132-1.1174888,3.4900348-2.0280038,7.0248137-2.1973639,10.738307.2465501-.1640615.2445876-.3957623.2905092-.6103244.5548522-2.5942383,1.0618859-5.1999897,1.6832654-7.7782666.6202675-2.5733054,1.1675969-5.1869066,2.7068179-7.4330049.7414819-1.08223.7370337-1.092304,1.9896051-.7514905.3294312.0894881.7076623.2514563.9574177-.0113823.7885155-.829858,1.649969-1.5114849,2.6972019-2.019369.6030633-.2922754.4715132-.9163369-.1583703-1.2041641-.5428812-.2483163-1.1397954-.2658476-1.7193092-.3459159-1.4610498-.2017407-1.717543-.5500115-1.2763825-1.9132655.4733448-1.4626852.1866951-2.7492724-.7690872-3.9202056-.8477817-1.0385326-1.9258906-1.7884531-3.1040848-2.382947-.5167805-.2606144-.7142692-.5510581-.7157083-1.1442437-.0047753-1.9899321-.9512033-3.4044717-2.7974835-4.1738859-.5646645-.2353641-1.1605975-.396809-1.744952-.5833733-.2108988-.0672469-.5161264-.0608362-.5833079-.2752674-.3066667-.9792664-1.0284587-1.905154-.9181686-2.9206604.2368686-2.181468-.680842-3.6883739-2.4148697-4.7865652-1.533072-.9707624-3.139082-1.825609-4.6884423-2.7715136-1.3362375-.8158591-2.7879329-1.1155918-4.3236215-1.106957-.2339904.0014391-.5670195-.1361946-.6755434.1406428-.0546217.1394653.1212145.4164335.2578669.5752618.5238454.6087544.3494483,1.0585497-.2250285,1.5231289-1.6883024,1.3657397-3.7408369,2.0476284-5.596864,3.1497447-.0427162-.1522867-.0813112-.2114221-.0683589-.2551195,1.3308734-4.4989998,3.1539312-8.6860996,7.3174161-11.3541263.5674774-.3637088.5005576-.7492664.1639306-1.176428-.1686405-.2140387-.3877816-.4501878-.6323693-.5320877-1.3741129-.4603926-2.3429129-1.5676112-3.6264256-2.2014851.2163937-.3915757.5913539-.5978955.8908904-.8759103,2.5367383-2.3556034,2.5194686-5.1492274-.0631257-7.4625726-.9686691-.867668-2.0923724-1.5079525-3.2943778-1.9674293-.8110838-.3101992-1.0480178-.6447328-.8301196-1.5698354.7895622-3.3513545-.4096303-5.6314687-3.5536839-7.0445691-.3814364-.171388-.7695451-.3383277-1.1698211-.4550285-.3785581-.1101593-.5369284-.2943687-.5371901-.7076623-.0009158-1.4348183-.7722271-2.4767525-1.8260669-3.3372248-1.1630833-.9496987-2.489901-1.6556602-3.9368865-1.986923-1.6684816-.3822868-3.1747987-1.0011151-4.5305299-2.0507683-.647284-.5012117-1.4245481-.752668-2.2831233-.6354438-.5835695.0796758-.725259.339636-.4162373.8409786.2033106.3296929.4783818.6371446.2395507,1.0718944-.3606997.6567692-.8462772,1.1901652-1.5917495,1.7705294.4581685-2.2025317-.3060126-3.6423215-2.1018576-4.5477995-.345458-.1741354-.3709045-.4194426-.3441497-.7538454.0747042-.9350457-.0460523-1.8398695-.5033704-2.6800631-.8338483-1.5318945-2.1240988-2.6192269-3.7673301-2.9936639-1.7954526-.4092379-3.2935928-1.2648694-4.7538576-2.2843008-.1826394-.1274289-.3745678-.2522412-.5796446-.3351878-.5303869-.214562-.8196532-.6037828-1.0247954-1.1329923-.6125485-1.5805635-1.6072529-2.801343-3.3020968-3.32702-.260549-.0808533-.4931002-.2587828-.7313426-.403743-.6656657-.4047896-.8821902-.9859388-.6292294-1.7212063.1724346-.5012117.3702504-.9940503.5682623-1.485973.1428015-.3546815.0382025-.5429466-.345458-.5487032-.2510638-.0036633-.5111548-.0206712-.7525371.0337543-2.4828361.5599546-4.9499071,1.1865019-7.2022199,2.4178788-2.5917525,1.4170253-3.0959079,2.8488345-2.0447501,5.5766507.0089619.0232878-.0047099.0550796-.0128214.1279522-.3618772.0740501-.7368375.1585666-1.114676.2265985-3.5767755.6443403-6.6936817,2.1416955-9.0840206,4.9508884-2.1501341,2.5271222-2.1706745,4.9915767-.1023749,7.5782268.0836007.1046644.1615757.2136462.277099.3669796-.7102135.2199261-1.3948495.4028272-1.935245.8555007-.3716241.3113766-.6277902.2674176-.9964052-.0295677-1.2641499-1.0189081-2.6052281-1.9296193-4.0776601-2.6290392-.4611122-.2191411-.9314479-.3646246-1.4512375-.1547725-1.2939792.5225371-2.6139283.9852846-3.8866475,1.5542665-1.409568.6300798-2.7321991,1.4184644-3.729978,2.6435614-1.0083108,1.2379183-1.0423921,2.0331062-.2105063,3.3474296.2746133.4339648.9445309.8984131.7000087,1.3158933-.2834443.4838112-1.0675116.3459159-1.6424463.3189648-2.0728133-.0973379-3.6746367.8428102-5.0018468,2.3001313-1.9389082,2.129005-1.6545481,4.4053251.6924859,6.0612469.8573324.6049603.8558278.6769171-.0857594,1.2298068-.8657055.5084074-1.8358138.8260639-2.6381973,1.4523496-1.0342806.8073551-1.303399,1.7320652-.8657709,2.9637037.2271872.6392379.6477419,1.1680548.9670992,1.7544372,2.7314795,1.787014,5.7382918,2.86074,8.9482839,3.344813,4.2309935.6377988,8.4687247.4929694,12.7031851-.023157,2.4185329-.2947612,4.8003679-.7380149,7.0824445-1.6224292,1.8698297-.7248011,3.6012408-1.6708365,4.9447393-3.2003761.2750057-.3130774.492119-.3809785.845296-.1511092.4908761.3193573,1.0233563.5755234,1.5093917.9012914,1.5335953,1.0284587,1.5792552,1.2148922,1.1191896,2.9633112-.1231115.4678499-.3307395.6578158-.8074205.6149034-.5394796-.0485381-1.0622784.0034016-1.4738712.4279466-1.1579809,1.1942209-2.5904442,1.3495168-4.1104985,1.0090958-.7308193-.163669-1.3615532-.2119454-1.8314964.4916611-.1983391.2969853-.4676537.2098521-.7467806.1318772-.536078-.1500626-1.0726794-.3107225-1.6196164-.4060979-.5424233-.0944596-1.1302448-.0126906-1.4711891.4187885-.5431429.6873835-1.0970139.5220138-1.7540447.2636235-1.0649604-.419181-2.1256034-.5191355-3.0607145.3328328-.2653243.2417748-.5388255.1083277-.7878614.0311377-1.2735042-.3943232-2.4957883-.6120252-3.5986896.46314-.3178527.3098067-.7785724.0610979-1.1047983-.1117293-.9386435-.4974176-1.8133764-.2905746-2.6053589.241644-.9188227.6173892-1.8525601.6994199-2.8707486.379016-1.0235525-.3219739-1.9860726-.3236747-2.7514966.5816725-.2125342.2514563-.4249375.1556883-.672338.048669-.4068175-.1760979-.8087942-.4378897-1.269056-.3842492-1.0631942.1238965-2.0890363.1668089-3.0770029-.4023038-.403743-.2324858-.8651822-.0728726-1.2239849.2810239-.4522811.4461321-.9879012.4262458-1.2823353-.0900114-.6498352-1.1392721-1.54851-.9667067-2.526926-.6392379-.1244852.0416041-.2585211.054818-.5082766.1057111.5736918-1.7246079.9427647-3.4157231,2.5355608-4.4681238.5195934-.3432993,1.0827533-.7054381,1.3251169-1.3491243-1.577031.3927532-2.6675688,1.4557511-3.3245342,2.8319573-.5306486,1.1115361-.9061321,2.1741415-2.2608167,2.5574749-.5612629.1588282-.6402191.6612174-.0312685,1.0259729,1.2236578.7323892,1.9662518,1.8636807,2.6107229,3.0915251,1.2192096,2.322765,2.2221563,4.7355413,3.17421,7.2511505-.3667179.0206712-.6396304.0350626-.912412.0514164-1.9130038.114215-3.7787778.4062288-5.4582491,1.4214735-1.5271192.9231401-2.7576456,2.127435-2.8439283,3.9926857-.0571075,1.2346476-.7681714,1.78165-1.6712944,2.2411267-.7704609.3919682-1.5773581.7134188-2.3120369,1.176428-2.3606404,1.4878046-2.8780097,3.1396707-1.7798183,5.7078737.2078243.4859045.7102135,1.0259729.6074461,1.418072-.1227844.4685041-.8864422.5689819-1.3650856.8411094-3.251727,1.8494202-4.9783628,4.7652399-3.0260444,8.7121348.1213453.245438.1582395.4352731-.0126251.6896076-.776937,1.1556259-1.6263541,2.1350232-3.2298129,1.9679526-.4321332-.0450057-1.1447016-.178322-1.2580662.3153015-.1123834.4891753.5170422.8315588.9591839,1.0340844.8531458.3909216,1.2788683,1.0763426,1.6519969,1.8874918.9223551,2.0053701,1.763857,4.0435787,2.6062093,6.0823107.1721075.4166952.2753982.6729922-.3610268.7753016-3.8642755.6213141-7.3748507,2.1805522-10.7067769,4.1721851-1.9050885,1.138618-3.7020457,2.4258594-4.9857547,4.286531-1.367833,1.9824748-1.1685127,3.9056834.5282282,5.5983686,1.0910611,1.0883791,2.4089823,1.8398695,3.8273159,2.3586125,4.6704532,1.7078615,9.2221122,3.700672,13.8015727,5.6285904,1.54694.6512743,3.1619773,1.0977989,4.8052086,1.4451539,3.3661383.711718,6.6981953.2708192,9.9762193-.4600001,3.7089797-.826718,7.2235452-.8200457,10.5996267,1.2186863,4.5072421,2.7216672,9.4660457,3.7227823,14.6908932,3.6131463,2.8823271-.0603129,5.6351974-.7755633,8.3764237-1.5600231.4895678-.1402503.6270052-.0663311.6290331.4586918.0095506,2.460922.1037486,4.9221056.0773208,7.3823735-.0500427,4.6544264-.48283,9.2625388-1.8919401,13.7348492-.2177674.6914393-.5942322,1.1946134-1.174858,1.6530436-1.8403274,1.452742-4.0125719,2.1706091-6.1568841,2.9756092-3.7378932,1.4030264-7.585357,2.5013486-11.2754317,4.0321965-1.7796875.7381458-3.3503733,1.7855749-4.4199781,3.4608596-.2937145.4601309-.3492521.887685-.1804153,1.4196419.5879523,1.8529526,1.8928559,3.0508368,3.4996509,4.0044604,6.5234057,3.8716674,13.6397354,5.7934369,21.147052,6.3902857,5.7945489.4605234,11.5687537.1742662,17.3127367-.680842,3.924523-.5842891,7.8381216-1.2419741,11.5720245-2.6595227,2.6173953-.9935269,4.8810903-2.4736126,6.4648591-4.8476631,1.3044457-1.9552621,1.1532056-3.8419689-.4294512-5.5804448-.8569399-.9413256-1.8929867-1.6516044-2.9784221-2.2946364-2.6732599-1.5838342-5.6112554-2.4635386-8.590855-3.2430268-3.3164881-.867668-6.7189974-1.4698808-9.7717312-3.1674068-.4906144-.2726508-.8367266-.5972413-1.0828188-1.0974064-1.1817266-2.4016558-1.6747614-4.968943-1.8173013-7.6102802-.2600256-4.8170487.421863-9.6009974.5243033-14.4856855.3911178.1122526.7346788.2127304,1.0791555.3098067,3.3092271.9334757,6.6260423,1.8536067,10.0808837,2.0412177,4.7755101.2594369,9.2524649-.9200002,13.5210067-2.9782259,3.0983283-1.4938228,6.3062925-2.583641,9.7685913-2.7665421,2.14948-.1135609,4.3018382-.1716496,6.4521685-.2697725,4.9408144-.2259443,9.444982-1.6832654,13.3038934-4.8519805,2.645393-2.1723099,5.4486331-4.0905469,8.4845552-5.6767361,1.0878557-.5683278,2.1405181-1.2116214,3.1719858-1.8783337,1.1487573-.7424632,2.2918236-1.5018035,3.1365308-2.6207969,1.5596306-2.0659447,1.3296959-4.2345913-.717867-5.8053425ZM120.3900321,49.2570677c.2892009.0730034.7992436-.0612287.8146162.3692037.0160267.4501878-.4053129.7454723-.825933.7834131-.3796702.0342776-.304508-.362008-.3380661-.6350513.1028328-.1784528-.1760979-.649966.3493829-.5175655ZM140.7556334,75.1117942c1.5470054.9479979,2.8188089,2.0961665,3.3540365,3.9081692.1339704.4534586.1267748.8595565-.0302218,1.3026794-.8820593,2.4899664-2.6758111,4.0600634-5.0448247,5.0653651-.3049005.1292605-.5741497.1211491-.8676026-.046314-.9334103-.5327419-1.841047-.3815018-2.5114226.3872583-.9666413,1.1087886-2.0482825,1.2919513-3.3395797.7391924-.7609757-.325768-1.4173524-.1360637-1.9519913.4584301-.9889479,1.0997613-2.1000914,1.2532255-3.3824921.5369284-.7823011-.4369739-1.4168291-.0860865-1.905481.531826-.3544199.4480945-.7165587.4979409-1.235498.3295621-.8483705-.2752674-1.7154497-.5008192-2.5857997-.69785-.6998778-.1584358-1.3593945-.2027873-1.7805379.6253699-.2827247.5561605-.9240559.7321276-1.3432369.2667634-1.2186208-1.3527875-2.6746336-1.0595963-4.160345-.779619-.0794795.0149147-.1641923.0019625-.2464847.0019625,2.5146933-1.245114,5.1728423-1.979204,7.8462985-2.6591302,3.1382316-.7980661,6.2849017-1.5629013,9.4254882-2.3519402,4.0608484-1.0200855,6.9824246-3.4140223,8.6251326-7.2826806.2977048-.7009899.5528243-.6924859,1.1345622-.3359728ZM114.3957049,86.2684972c.4013226-.2456997.7900201-.5152106,1.2057994-.7329125,3.8178307-2.0003986,7.7699589-3.6404899,11.9735433-4.6733968,3.5712806-.8776111,7.1309827-1.8294031,10.3598144-3.7431919-.7504438,1.3381345-1.8413741,2.3095511-3.1377082,3.0567242-2.6240022,1.5124008-5.5358316,2.1906261-8.4412503,2.8844204-3.57828.8544541-7.2255731,1.4503871-10.6597433,2.8446479-.406425.1649773-.8104296.3357111-1.3004553.3637088ZM134.305689,71.3156159c.256297-.4016497.4910723-.834437.5273778-1.310006.0646957-.8486976.4741952-.8233164,1.1025088-.5532822.5394142.2318317,1.0868745.4365814,1.5714053.7759558,2.1679271,1.5185498,2.2970568,4.0880611.2767065,5.8317702-1.2301339,1.0618205-2.7384789,1.6008422-4.229816,2.1542553-3.5392271,1.3132767-7.2495805,2.0374236-10.855662,3.1256718-3.1639398.9549319-6.0225211,2.4959846-8.790764,4.2453194-.6502277.4109386-1.1853899.9537545-1.5290162,1.6359048-.2371303.4707282-.4478329.5900456-.940606.3215814-1.067577-.5819341-2.165245-.7593403-3.2219631.0494539-.2715387.2080205-.3945194.0656769-.5069682-.1577816-.5681969-1.1295907-1.3927563-2.0202848-2.4976854-2.6362349-.2855376-.1590899-.2714733-.3979864-.262446-.6449944.0469027-1.2827932-.2122725-2.5020028-.7824973-3.6476856-.191405-.3845109-.1076081-.6186975.1691639-.9422414.7781799-.9099262,1.6567722-1.2892039,2.9097361-1.2245736,3.1275689.161314,6.2404848.4410297,9.3498028.7916554.358214.0405575.7200912.0494539,1.0802021.0730034-3.4796338-.7852448-7.0275611-1.3189024-10.8859493-1.3567124,1.8859219-1.0457283,3.6608995-1.7212063,5.5238606-2.1605351,3.5682715-.8415019,7.210593-.7661435,10.8401586-.8226623,2.4370454-.0379408,4.8629703-.1821161,7.2112472-.8883392,1.577031-.4743914,3.0132884-1.2054724,3.9412039-2.6595227ZM70.3031392,102.9348657c-.3260296-2.8038288-.8252135-5.5807065-1.3845793-8.3464636-.0875256-.4326565-.1182708-.7516213.4648408-.8277647.6039137-.0790216,1.002358-.4618317,1.1768205-1.0551481.1225882-.4169569.3410752-.501735.7442948-.3016952,1.076866.5339193,2.2163998.4683732,3.3665962.3052276,1.8496818-.2623152,1.9705692-.1666781,1.8991358,1.6508194-.1305689,3.3244034-.2874346,6.6477601-.4354694,9.9713786-.0733959,1.6468945-.1166354,3.2924807.2389619,4.9359737.0645649-.9346532.1561462-1.8685214.1891809-2.8042213.1508476-4.2747563.3897441-8.5475501.3527845-12.8270162-.0060836-.7092322.1306997-1.0178614.8631543-.5794484.2845564.1704722.6154267.262446.9224205.3966781.7471077.3262913,1.4375657.3783619,2.2118861-.0597895.9289621-.5255462,2.0852422-.2306542,2.8756547.535751.327665.3177873.1658277.6902618.123504,1.022048-.3321133,2.6045739-.6855519,5.206662-1.0445508,7.8077035-.3862771,2.7982031-.7085127,5.6013777-.6964108,8.4317651.0013737.325768-.0633874.6693289.2465501,1.1479069.4743914-3.7397903.9290929-7.3119867,1.3802619-10.8845756.29064-2.3018321.5566838-4.6041875.5603471-6.9316624.00157-1.0283279,1.8956688-2.071832,3.0129614-1.6501653.9495025.3583448,1.8776796.7155121,2.9200063.5920081.5250229-.0620137.3984443.3541582.4010609.6282481.0178584,1.8774179-.2195336,3.7395286-.4164989,5.5998077-.2326167,2.1979527-.3503641,4.3999611-.454636,6.6048477-.03938.8339137-.0850398,1.6674349-.0858902,2.5043577.4172839-2.5171791.544582-5.0634026.7585553-7.599683.2067122-2.4500631.3600456-4.904836.5129865-7.3592165.0240074-.3854267.1431286-.5199205.5290786-.5654495.4672612-.0549488.9503529-.1525484,1.3764679-.3435609.8641356-.38752,1.6300174-.5294711,2.4442411.1764904.4404409.3818943,2.0197615-.284818,2.2862633-.9481287.2248322-.5596929.4784472-.6531059.9884245-.3804551.8991327.4805405,1.7460641.4499261,2.540794-.2805006.2937145-.2699034.686664-.4414222,1.1904269-.5120706-.6567038,2.172964-1.2984274,4.2724013-1.9253019,6.376156-1.093416,3.6692726-1.8644003,7.4173052-2.6823526,11.1529089-.1498664.6843744-.4906144,1.1442437-1.0524661,1.5207739-2.0895596,1.4004098-4.4477142,2.0769344-6.8803114,2.4911438-5.5137212.9387089-11.0152752.9443347-16.4688799-.4474404-1.411465-.3603072-2.7656263-.879966-4.0093011-1.6605009-.5390871-.3383277-.9724632-.7567237-1.1439166-1.3860185-1.1436549-4.1978279-3.2257572-8.0188639-4.8289543-12.0319592-.497156-1.2447215-1.0117124-2.4859106-1.6803871-3.6492556-.32688-.5687203-.0474261-.6468261.4165644-.6971958.7349404-.0800683,1.4559474-.0405575,2.1402564.2522412.5509927.2356258,1.060643.1728271,1.6067296-.044744,1.0687545-.4259842,2.5213003.4873437,2.7082571,1.6126169.7280064,4.3825606,1.3361721,8.7808209,1.7961721,13.1994907.0107281.1029636.0310722.2048806.1095706.3015643.1909471-1.6915077.029306-3.3700632-.1653044-5.043778ZM102.3441866,88.5009891c-1.2027249,1.2850173-2.3548184,1.5487716-4.0012551.9252334-1.228564-.465495-1.4582369-.3885666-1.9308622.8417635-.1507168.3923607-.3169369.3502333-.6209216.2638851-1.7267011-.4906144-3.3584193-.3803243-4.7807433.8441185-.3198806.2753982-.6134643.3115075-.9867237.1147384-1.007722-.5309102-2.0780465-.7959729-3.2281121-.7238852-.2428214.0153072-.5192009-.0257736-.7339592-.1331855-.635313-.3176565-1.2119485-.1662856-1.7241499.2127304-.3998835.2958078-.7412203.3078442-1.1416925.0537713-.9703699-.6156884-1.8530834-.4819796-2.6290392.3498408-.2915558.3124233-.5802333.3035268-.9643517.1593516-2.5327479-.9519228-7.7471944-.9592493-10.2807273.0227645-.6710951.2602219-1.2351709.2310467-1.8179554-.1351479-.8980861-.5640104-1.800882-1.120825-2.6939311-1.692816-.6948409-.4450854-1.2739621-.341991-1.68163.3733903-.2602219.4565985-.4690274.4049204-.8129154.0873948-1.0631288-.9812289-1.8589054-2.0859617-1.8400004-3.6109222.0037287-.3048351-.0062144-.61752.2424944-.9253642,1.6560527,2.7081917,4.3999611,2.8823271,7.1267307,3.0524068,1.4515646.0906655,2.9074465-.0010466,4.3546283-.1350171,4.0011242-.3701195,7.9847826.1611832,11.9775991.2035723,3.4131065.0362401,6.815354-.0060182,10.1555879-.8611265,4.095453-1.0484757,7.3104821-3.1498755,8.8331531-7.2667193.2372611-.0440899.2862572.1136917.3151707.2343175.4113311,1.7201596.6894114,3.4552339.2803698,5.2126802-.225421.9682766-.7367066,1.8057228-1.4167637,2.5322246ZM58.8765328,86.2711138c-1.9091443,1.9425715-4.1579246,3.2937891-6.6533204,4.2470202-4.117498,1.5728445-8.3205591,2.7830267-12.8436317,2.4088514-2.7219289.1337088-5.4212895-.3835951-8.1374618-.7091014-.8154666-.0977304-1.6155606-.1805461-2.3259049.3684187-.0850398.0658077-.2023294.0955063-.3092179.1262514-.3048351.0875256-.6780946.162884-.8441839-.1358021-.1949375-.350495.1808732-.5421617.4196389-.69628,1.0334957-.6671048,2.2155494-.9097954,3.4039483-1.083015,3.5912976-.5234529,7.1954167-.9638284,10.7784066-1.5373894,4.0143381-.6426395,7.9405619-1.6166727,11.4262793-3.8432772,1.9957541-1.2748125,3.5964655-2.9282486,4.501878-5.1547223.2954807-.7266327.5167151-.511809.8543887-.0648919,1.0649604,1.409568,1.2561692,4.5201943-.2708192,6.0739375ZM59.0707507,88.1079742c-.380586-.0468373-.4397868-.1847327-.1968999-.4630092.2522412-.2890046.5163226-.5676736.8520337-.9350457.2551195,1.1929126.0938055,1.4904212-.6551338,1.3980549ZM53.9822287,75.3012367c-.1991895-.0973379-.3831372-.2029181-.5078841-.4126394q-1.1030975-1.854915-2.4819203-2.8366672c6.3486816-.4386747,12.4591208-1.4799548,18.271201-4.5338007-.3814364,1.1111436-.4735411,2.0927649-.5999887,3.0713772-.0853669.6604324-.7390616.9375315-1.29568,1.2067807-.8010752.38752-1.639568.6944484-2.2951597,1.3455919-1.4407711,1.431155-1.6295595,2.7719061-.5827845,4.5153536.227318.3786235.4849887.7391924.744164,1.1315531-.8301196.3593914-1.6239992.6992891-2.3373526,1.1976225-.7178016.5014734-1.2653273,1.1697556-1.8543263,1.8903701-1.3465731-3.3178619-4.0562039-5.1065767-7.0602688-6.5755417ZM66.136449,79.1285526c.2979011-.1590899.5401338.0630603.7853756.1627532,2.2570881.9179069,4.3451431,2.1712632,6.4971742,3.2975831,1.4621618.7652277,2.9508169,1.4672642,4.5205868,1.9835214,2.8724494.9445963,5.7103595.7007282,8.5716883-.1392037,4.0492044-1.1884644,7.8691284-2.7471792,10.7308497-6.0242219.4950627-.5670195.9479979-1.1745964,1.3781686-1.7929014.2225427-.3198806.4208164-.3769227.7547612-.1928442,1.1237687.61909,2.0829526,1.410353,2.7074721,2.55198.5305177.9698466.442665,1.9229469-.0898151,2.8730381-1.0537744,1.8797728-2.6586723,3.13483-4.5508741,4.0732773-2.4762946,1.2282369-5.1360135,1.6960868-7.8610169,1.8303189-2.7683083.1364562-5.5360933.0158305-9.5899422-.2621844-2.7143407-.3493175-6.7004848.1889193-10.6942172.3066667-1.6755464.0494539-3.3547561.0931513-4.9989032-.355074-.6271361-.1708647-1.2083506-.432264-1.7477649-.788908-1.2496931-.8263255-1.5758536-1.6953018-1.0183847-3.0789653.8674717-2.152947,2.6487292-3.3995001,4.6048416-4.4448359ZM65.8042049,77.1731598c-1.0505036-1.1072187-.8027106-2.6626626.6226878-3.5536185,1.6388485-1.0241413,3.4641304-1.3491243,5.37962-1.2107056,1.9005095.137372,3.7524808.5390217,5.5933316,1.0101424,3.416181.8742095,6.8510054,1.3416669,10.340386.4153869.5883448-.1562116,1.1751197-.3184415,1.7633991-.4749148.0156342-.0041866.0402304.0256428.107281.0713026-1.2780833.7715075-2.6692696,1.184147-4.0732118,1.516849-5.2382576,1.2411891-10.4755339,2.4808082-15.578709,4.2199383-.2008903.0685552-.4096303.1726963-.6468915.0716951-1.2595054-.5369284-2.5392895-1.0449433-3.5078932-2.0660755ZM73.2044367,81.5742983c7.5202034-.4699432,15.072722-.5904381,22.4226495-2.5695113-3.2330837,3.0111951-7.1969866,4.4219406-11.4061968,5.18429-3.9930127.7232311-7.6089065-.5068374-11.0164527-2.6147787ZM98.3809378,75.0615552c-.2279068,1.4645168-.9523807,2.4982087-2.4115335,3.0284648-2.5173099.9146361-5.1419009,1.2805691-7.7719213,1.5891983-4.2455811.4980718-8.515562.6937942-12.7850196.876172-.7520792.0321843-1.5222785.0465757-2.2471449.2220194-1.2816157.3101992-2.1249492-.3248522-3.049921-1.2330776,2.4794345-.7860297,4.8778195-1.4013256,7.2791482-2.0053701,3.4346935-.8638739,6.8835821-1.6729298,10.2769986-2.6951086,1.0459246-.3150399,2.0665988-.6729922,2.9803191-1.2936521,1.3253785-.9003756,2.1013343-2.1388173,2.30229-3.7231748.0587429-.46314.1646502-.6251082.6708335-.4249375,1.1717181.4634017,2.3188401.9558477,3.3393181,1.7130948,1.3544883,1.00504,1.6609588,2.3765363,1.4166328,3.9463717ZM90.9851542,71.358005c-1.4863655,1.2237886-3.2709591,1.6594543-5.1320886,1.7887148-2.5243094.1753129-5.011005-.0698635-7.4573394-.768106-2.2302024-.6366213-4.489907-1.1422812-7.0113381-.9112345.9572215-.9111037,1.9769799-1.3988399,3.0367071-1.804807,1.4870851-.5697669,3.0431832-.9141128,4.5736386-1.3411436.7803386-.217702,1.5423609-.4745223,2.2839083-.8055235,1.8466073-.8242322,2.9829357-2.2090733,3.3457942-4.1997904.0809187-.4441696.1463339-.6767863.6703756-.4097612,2.0283309,1.0336919,3.934924,2.2314453,5.4638094,3.9479416.3315245.3722128.6387146.7826281.8751253,1.2198637.67816,1.2541413.4541781,2.3757513-.6485923,3.2838459ZM82.6149449,65.6239652c-1.5076909,1.1940901-3.317404,1.7015817-5.1404618,2.1164452-2.3099436.5258078-4.6415396.9546703-6.8631726,1.8134418-.218814.0845165-.5121361.2700342-.6934017.0434357-.1639961-.2051422.0107935-.4864279.1206257-.7064848.8747982-1.7523439,2.1710016-3.0843294,3.9225605-3.9853592,1.4335754-.7373608,3.0002708-1.2326851,4.249833-2.3107286.2326821-.200694.3954352-.1740046.604437.1025711,1.2407966,1.641923,3.3353932,1.6270083,4.5510049-.009289.0624716-.084124.1420819-.1552958.2255518-.2453072.4764847,1.1858478.1420819,2.2948981-.9769769,3.1812748ZM71.8922721,69.8848534c-.7168204,1.5173723-1.0453358,1.7045908-2.6550091,1.5401368.6313227-1.0007226,1.6349235-1.1506544,2.6550091-1.5401368ZM103.8046476,79.0995083c-.2771644.2723891-.4531315.2187486-.6519285-.0745734-.9701083-1.4306317-2.0926341-2.6939311-3.7620969-3.3350007-.3139932-.1204949-.302611-.3675029-.2748095-.6219683.1261206-1.152486.0775825-2.2844316-.3382623-3.3844546-.1940871-.5136406.1913396-.4686349.4973522-.4711207,1.7323269-.0142605,3.4616446-.0828157,5.1899157-.2125996.7471077-.0561263,1.4891129-.240074,2.2909732-.1453527-.1846019.8348295-.7250627,1.5214281-.8146162,2.3720881-.1087856,1.0340844-.1522213,2.0637205-.0049716,3.0917867.0747696.5217521-.0647611.9040389-.4704011,1.2462915-.5757851.4856429-1.1237033,1.0063483-1.6611551,1.5349036ZM133.8733595,67.9963149c.2509329,1.4858422-.8079438,3.3831463-2.4099635,4.2952966-1.4869542.8467351-3.1235131,1.1785213-4.7991904,1.3731971-2.3661353.2747441-4.7465965.2327475-7.1207779.3109841-4.3600578.1435211-8.6655592.4755689-12.5069394,3.069938-.3415985-1.4074747-.4090416-2.6779698-.1201678-3.959978.5281628-2.3439595,2.0107996-3.6671793,4.3887096-3.9518665,2.4000858-.287173,4.7657632.0525939,6.8644155,1.1166384,3.4477766,1.7480265,6.7713296,1.1810071,10.1406078.0058874,1.6999463-.5930547,3.2353732-1.508345,4.6291761-2.6571678.57971-.477793.8041498-.372867.9341299.3970706ZM133.3421222,63.8890217c.166351.5119398.155165.9694541-.0472952,1.4594144-.4154523,1.0056942-.9950969,1.9075089-1.9191528,2.4814624-2.7208822,1.6901994-5.6484767,2.8048754-8.8970638,2.8217526-1.5244372.0079807-2.9023442-.5948864-4.2497676-1.2750742,2.8693094-.0576963,5.7314232.2743516,8.586603-.1499318-4.0974809-.4991184-8.2077178-.7589478-12.4490469-.6667123.5765047-.835222,1.2839053-1.3411436,2.086158-1.7325885,2.0292467-.9898637,4.2370117-1.3711038,6.4068358-1.8876227.9207852-.2191411,1.8435328-.4611776,2.7294516-.789693,2.006613-.744164,3.562842-1.901229,3.508024-4.4121283,1.9012945.9875087,3.5634962,2.0531233,4.245254,4.1511214ZM116.6389249,62.8752161c1.0451396-.713288,2.2132598-1.1768205,3.3716986-1.6636408,1.0823609-.4547669,2.164918-.9285042,2.9854215-1.8091244.4687003-.5029125.9374006-1.0296362.7660781-1.8188058,1.7064878.3185723,2.1678616,1.3402278,1.2838398,2.7694203-.6401537,1.0348694-1.6275316,1.7539139-2.4666131,2.6423839,2.2064566-.2590444,4.0554843-2.8490961,3.4596821-4.9227598.763854.3476167,1.4071476.7522755,1.8530834,1.4102221.5417692.7992436.3811093,1.7017125-.4418801,2.4720426-.8540616.7996361-1.8870339,1.2933905-2.9953646,1.6168035-.9900599.2890046-1.9928104.5390217-2.9983738.7695451-2.1779356.4992492-4.2854189,1.1913427-6.4269837,2.3669857.3744369-1.216593.6868602-2.2463599,1.0102732-3.2727253.0914505-.2903129.3719512-.4051821.5991383-.5603471ZM119.3393322,53.1492756c-2.0782427,3.5457686-3.5445912,7.3322654-4.4868979,11.3283527-.1215415.5152106-.3528499,1.0079183-.4428613,1.5267921-.2182253,1.2575429-1.0663341,1.7747159-2.2054754,1.9321051-1.1245537.155165-2.1419572.542685-3.1430723,1.0801367-1.2019399.6451253-2.5843606.666189-3.9066646.851445-2.383732.3344028-4.7748559.5454324-7.1892022.3393744-1.8661011-.1590899-3.4091162-1.1914735-5.1050067-1.8089935-.2857993-.1040103-.3519995-.4250683-.4648408-.6736463-.7058306-1.556229-1.800882-2.738021-3.304648-3.5584592-2.2323611-1.2179013-4.3897563-2.5581291-6.4708119-4.0218609-.2614648-.1839477-.4800826-.3660638-.5994-.666189-1.1458791-2.8806263-2.2530977-5.7742048-2.9593863-8.8022771-.0536405-.2297384-.246223-.5288169.02126-.6900001.2524375-.1520251.4493374.1352788.6393033.2801081.1992549.1518942.3973323.3171332.5543289.5103698.5296019.651536,1.0476254.7661435,1.5864508.0185779.2488396-.3451309.5361435-.2853414.8806856-.1278214,1.2545338.5734301,1.8853331,1.6088228,2.2071762,2.8874295.2722583,1.0820992.3453926,2.2072416.7081856,3.2706321.0430432.1261206.067574.2488396.1993203.3064051-.1976195-1.2014166-.4112657-2.4004783-.5850086-3.6054273-.0828157-.574346-.3788852-1.2368717.4335069-1.5906374.0647611-.0282594.0991041-.201479.093413-.3041809-.0402958-.7257169.4836804-.9162061,1.2338626-1.2315076-.4393289.6444711-1.028982.9945736-.8997215,1.7765476.5693744-.4970251,1.1260582-.8135041,1.8812774-.5778784.7028215.2190103,1.089949.7446873,1.5178302,1.2583279.206843.2481855.2699688.5356201.3207964.8459501.5548522,3.3906036,1.1199746,6.7793756,1.6854895,10.1682785.0266894.1598749.0832082.3149091.1984045.4637942.1291951-1.2559729-.1015899-2.4865648-.2929949-3.715325-.3524574-2.2625829-.8836947-4.494159-1.1762972-6.7689092-.0791525-.6152959.1142805-1.0597272.5818687-1.3695338.427685-.2836406.8433335-.1883959,1.166027.2511946.2213652.3016952.4603272.0740501.6586008-.0452674,1.0446162-.6289023,1.8621761-.2935837,2.8273783.3532424,1.4332483.960296,1.3759445,2.3850403,1.5299975,3.7613773.3519341,3.1428106.3510183,6.3077316.5131173,9.4627095.0182509.355074-.0225028.7220536.2445222,1.1374405.1660893-1.2220878.0963567-2.3494544.0616212-3.4713261-.0915159-2.9623954-.2343829-5.9220433-.5456941-8.8722714-.0760125-.7203528-.2713425-1.5236522.648396-1.9674293,1.0453358-.5042208,2.0079867-.4555519,2.8167156.2409898.4145365.3570365.7282681.8532766,1.4111379.7066156.2996673-.0643686.253157.2345791.2509329.4126394-.0425199,3.3823613.0429124,6.7676009-.2456343,10.1442057-.0627986.7347442-.0854323,1.4728899-.0462486,2.2132598.3433647-2.068038.5345735-4.1469348.6065303-6.2366907.0606399-1.7603246.11814-3.5209108.1772753-5.2813662.0046445-.139727.0007196-.2807623.0188396-.4187885.2544654-1.9404782,1.0204126-2.3201484,2.6993606-1.3504326.3860809.2229352.7771333.5551139,1.1885298.5931856,1.0054325.0928897.8938995.6075769.7448181,1.3427136-.7994399,3.9432317-1.4151937,7.9179936-1.9235357,11.9092401-.0275398.2162628-.0035324.439198.0837315.6710297.4047242-2.4365875.7834785-4.8776233,1.2221533-7.3079309.3769227-2.088055.8073551-4.1668211,1.244002-6.2434939.2092634-.9952277.8602761-1.3818319,1.8200487-1.0104041.6871873.2658476,1.2641499.2876963,1.8941642-.1102901.4033505-.254727.8853301-.4173493,1.3321817-.0720876.4257879.3290387.2116184.7675826.119252,1.1645224-.7471077,3.2095342-1.501411,6.4171059-2.2513315,9.6258552-.0561263.240074-.1794341.4755689-.0572384.7919171.3587373-.5837658.411789-1.2224803.5683278-1.8189367.8008136-3.0522759,1.5952819-6.1065143,2.3474919-9.1710883.1770137-.7208761.6707026-1.0173381,1.2645423-1.1704098.6561804-.1691639,1.3141925-.183686,1.8331972.4458704.6868602.8332596.7022328.8076168,1.3716271-.0049716.2438681-.2960695.6169967-.3349261.9687346-.3906599.1127759.1692947-.0147184.2819398-.0744426.3838567ZM86.2273062,36.0756316c2.2952906-.3192265,4.5091391.108066,6.6821686.7739933,2.8254158.8657055,5.5867247,1.935245,8.5133379,2.4669402,4.1565509.7551537,8.1700386.4443004,12.0108955-1.4127079.0946559-.0457907.186041-.1360637.3390473-.0245961-.9076367.8582482-1.9424407,1.5001027-3.1037577,1.9111722-1.6919002.5986804-3.4334506.9663142-5.2400238.9935269-3.8820685.0584812-7.7687814-.1757054-11.6462708.1611832-1.8669515.1622298-3.7141475.4393289-5.4734909,1.1314223-1.306866.5141639-2.4364567,1.2581971-3.1172333,2.5305238-.1842748.3444767-.3289079.3485325-.6356401.168248-1.7900231-1.052139-2.8787292-3.5863261-2.3815079-5.5897338.4200314-1.6922927,1.8810157-2.8080154,4.0524752-3.1099722ZM83.2658267,35.5057339c-.0340813-1.8407854.1967037-3.5015479.3017606-5.1675437.0351934-.5574688.4896332-.812065,1.0098153-.7787032,1.0741839.0689477,1.1927818.2231969,1.2427591,1.3148467.033558.7344825.1707338,1.4556203.5805604,2.0702621.2996019.449272.1418857.6784871-.2266639.941718-.864201.6171275-1.831431,1.0332994-2.9082315,1.6194201ZM95.8304623,33.0083102c-3.1673414.2672867-6.1871059,1.0886407-9.2633238,1.5761152,1.5259417-1.6175885,7.3456755-2.5606148,9.2633238-1.5761152ZM86.9659753,30.6807045c-.000785-1.5825259.643817-2.5785386,2.1256688-3.1640052,2.0225744-.7991128,4.0450179-.633743,6.0536588.0829465,1.4230435.5076224,2.7608509,1.2041641,4.1009479,1.8886693,2.6435614,1.3501709,5.3435762,2.1280892,8.2865432,1.0275429.1481001-.0554721.3152361-.1324005.586644.0294369-.8548466.733305-1.8501397.9405406-2.8206405,1.0979297-2.1474521.3484017-4.3089684.6116327-6.4671486.8910866-.6467607.0837315-1.3034644-.0384642-1.8980237-.2501479-2.9975888-1.0673153-5.8990171-.5683278-8.7481787.5165189-.767648.2922754-.9563711.0685552-1.0545594-.6256315-.0703214-.4975484-.1646502-.9893404-.1649119-1.4943461ZM82.1292366,44.6887278c.2366724-.1229807.4151906-.044744.6065303.110421.3031997.2459614.6192862.4775314.9417835.69785.7723579.5275086,1.5301283.6994199,2.4936296.3359728,3.8729757-1.4616385,7.805741-1.0474291,11.7153493-.1435211,4.3569832,1.0075258,8.7461508,1.804022,13.1974628,2.2475374,2.3181859.2310467,4.5580697-.1839477,6.7864405-.7719,1.4240247-.3757452,1.5893291-.2150854,1.5656488,1.4841414-.0571075.4292549.025839,1.189511-.2793232,1.7310185-.3387202.6010354-1.1753813.1877418-1.7745851.3442151-.3498408.0913197-.722119.1013936-1.0672499.2050114-.795842.2387657-1.5362773.403743-2.407674.1155233-.931317-.307975-1.8327393.1310922-2.5225432.7972812-.4602618.4445621-.8210923.4665416-1.3644969.1614449-.8568745-.4811946-1.754568-.7193062-2.6687463-.0395108-.3198806.2378499-.6860752.0832082-1.0314024-.0784983-.8929183-.4186576-1.785444-.7590786-2.7832884-.2391582-.3941269.2054039-.831755.1355404-1.2801112-.0586121-1.3506288-.5842891-2.7225176-.4861662-4.0818467.0209329-.2799773.1044028-.5449091.2561661-.7878614-.1274289-.7672556-1.2120139-2.0671221-1.3216499-3.4119944-.6453869-.4975484.2501479-.817887.2532879-1.2266015-.1568658-.7268943-.7289876-1.577816-.9249717-2.6079755-.572776-.8250172.2818089-1.6079724.2213652-2.1543861-.7143346-.4671304-.7998978-1.0568489-.8155974-1.8832399-.0996929-.4558789.3949773-.7229694.4097612-1.1674661-.0064107-.805131-.7537146-1.7672586-1.0716328-2.9133339-1.0056942-1.0493916.0603129-1.8044799-.6214449-2.4189908-1.4107454-.3024802-.3885666-.0377446-.6697214.268595-.9097954.6876452-.5391526,1.4907483-.8727704,2.2576768-1.2710185ZM116.3359869,36.6986466c1.3602449.836007,2.7280779,1.6505578,3.7201657,2.9468265,1.6513428,2.1576569,1.2174434,4.5835163-1.0859587,6.029586-1.7518206,1.0997613-3.7034848,1.5339878-5.7350211,1.6379981-3.8653222.1978157-7.6092336-.6087544-11.354715-1.4102221-3.7364541-.7993744-7.4458263-1.7982654-11.3258015-1.6127478-1.3321163.0637145-2.6396365.3141241-4.0617642.520313.6306685-.9168603,1.478254-1.3075202,2.3558651-1.6751539,2.789372-1.1689707,5.7024443-1.4637318,8.6984631-1.3826169,2.9870569.0811149,5.9769267.307975,8.9662077.029306,2.2730494-.2119454,4.4725066-.6524518,6.4087982-1.9721392,1.0853045-.7397157,1.9599065-1.6674349,2.5581945-2.8297332.226206-.4394597.3828755-.5718602.8555662-.2814164ZM111.4709887,27.9264605c2.1209589.743379,3.6900747,2.784335,3.8835076,5.0357974.1617065,1.881997-.721334,3.1582486-2.2666387,4.0581009-1.598291.9307283-3.3736611,1.3018945-5.1790568,1.5694429-3.6920371.5470024-7.2293672-.178322-10.7241119-1.2782141-1.7310185-.5447783-3.4569347-1.1081345-5.2007092-1.6089537-.845296-.2426906-1.7263741-.3609614-2.5912292-.5354893,1.1156572-.7552846,2.3624066-.9409331,3.5970542-1.08537,3.1918067-.373652,6.3935565-.6612174,9.5869331-1.0223096,1.7261124-.1951991,3.4154614-.5560297,4.963906-1.4119229,1.4344912-.7929638,2.5964624-1.8400004,3.2625206-3.3667925.1386149-.3176565.2425598-.5034358.6678244-.354289ZM103.4037829,22.1419201c-.0538368-.6431628.0917776-.6740388.6508818-.5429466,1.7300373.4058363,3.397276.9396248,4.7338405,2.1710016,2.0306204,1.8704839,1.680845,4.598431-.75378,5.9046428-1.235825.6630491-2.5796507.8757795-3.9707061.7753016-.8388853-.0605745-1.6389139-.2904437-2.4337747-.5685894-2.6319829-.9207852-4.9826802-2.5017411-7.6989179-3.266838,1.9585328.2619227,3.8991418.4034813,5.8302657-.0879181.456206-.1161775.9133932-.2615302,1.3386578-.4607851,1.7967609-.8415019,2.4692951-1.9454498,2.3035329-3.9238688ZM97.677135,22.2133536c.6291639-.5845507,1.147122-1.2093973,1.2302648-2.1136978.0268203-.2910979.0662002-.7250627.4115274-.7406315.4085183-.0184471.6720109.3162174.8158591.7236236.5188084,1.4694883.0397071,2.871599-1.3219769,3.8108313-.8392778.578925-1.803237.9152903-2.8719915,1.4106146,3.4658312-.5178272,4.734233-1.9951654,4.648212-5.399637,1.1352164.6682823,1.7739964,1.5755919,2.0069401,2.7602622.2207111,1.1225258-.3704466,1.8844827-1.2707568,2.4242894-1.2784758.766536-2.702108,1.0950514-4.1713347,1.0624746-1.6333536-.0361092-3.2637635-.2060581-5.1241734-.333487.6955604-.3417293,1.1903614-.5751309,1.6765276-.8252789,1.4495367-.7457339,2.7744573-1.6680891,3.9709024-2.7793635ZM94.4793756,18.5510149c2.2092695,1.4855805,2.2749464,3.7216048.1210836,5.3550238-1.1790446.8940957-2.5824635,1.3059502-3.9646879,1.7410925-1.1795679.371297-2.3151768.8148124-3.3070029,1.5707512-.3762031.2867805-.7824319.4212743-1.2523751.2768374-.0264932-.0081115-.0552105-.008504-.0824232-.014653-.9699774-.2237202-1.7699406.7844598-2.4970312.6219683-.8643972-.1931058-1.6364281-.6086236-2.5355608-.2310467-.3830717.1609215-.7759558.2865188-1.114676.5579921-.4316753.3460467-.9434188.3850342-1.4034189.0647611-.4721019-.3286463-.9759302-.3815018-1.514494-.325768-.8327362.0863481-1.6652108.1750512-2.4970312.26938-.9660525.1097668-1.9091443.2810239-2.8696365-.1777987-.7182595-.3432993-1.4660213.047099-2.2174464.2048806,1.4727591-1.221172,3.2292896-1.8270481,5.0463292-2.2803759,2.8204442-.7038682,5.7333203-.8893858,8.571165-1.4999719,2.5247019-.5430775,4.9209936-1.4426681,7.2002574-2.6460472,1.4402477-.760387,2.5876968-1.8591016,3.3663346-3.2924807.2894625-.5327419.5154722-.4872128.9506145-.194545ZM92.7840737,15.833011c.164454,2.0569174-.7486122,3.685234-2.3556688,4.9241989-2.2648725,1.7463257-4.8955471,2.6654101-7.6554168,3.2254955-2.6269459.5332652-5.2692644.9932653-7.91034,1.4537887-1.9812973.3456542-3.8092613,1.0704553-5.5350466,2.0841301-1.5199235.8927874-3.1285501,1.4812631-4.9274697,1.4082597-.1622953-.0066724-.365933.0005233-.4847271.0890956-.7337629.5475257-1.0639792.1691639-1.4096334-.4925769-.3075171-.5887373-.7206799-1.1365247-1.1614479-1.6370822-.4036121-.458561-.3622043-.7306884.0709101-1.16099,1.7382796-1.7265703,3.8897221-2.5678105,6.2237384-3.0691531,3.3905382-.7284643,6.8498933-1.0327761,10.2533837-1.679733,2.6767923-.5089307,5.2699186-1.2737659,7.6446233-2.6404215,1.5205122-.8751253,2.9148385-1.8829128,3.3464483-3.7612465.2413169-1.0503074-.1779295-1.964551-.5067066-2.9906547,2.4679214.5139023,4.242572,2.1865704,4.407353,4.2468894ZM59.5094255,35.9073836c-2.1772814,1.4009332-4.6273445,1.9082939-7.146159,2.1573952-1.7529327.1733504-3.5142385.2231969-4.5383797.1657623-3.1085985-.1478385-5.4774812-.3261605-7.8539521-.1479693-.3080404.023157-.83097.1647156-.894292-.1951991-.0773208-.439983.4414222-.6031287.8097755-.6863369,1.4967665-.3375427,2.9990279-.6527134,4.5046255-.9487829,2.3585471-.4636633,4.7036187-.9661834,6.8824047-2.0344145,1.5283621-.7493972,2.8647304-1.7526056,3.8877596-3.117822,1.170279-1.561593,2.3071961-3.1493522,3.4121253-4.7576517.2383078-.3469625.3748294-.279454.6489848-.125859,4.1471311,2.3238116,4.2896709,7.1156101.2871076,9.6908779ZM70.4941518,3.9083328c1.4943461-1.174858,3.2719404-1.7641187,5.0306296-2.3860869.5447129-.1925825,1.0998921-.3557282,1.6502961-.5322185-1.3022869,1.0688853-2.1547786,2.446269-3.0335017,3.8028506-.624127.9635667-1.3079781,1.880427-2.2561722,2.5531575-.4965672.3521957-1.0642408.8179524-1.6694628.4317407-.6903926-.4406372-1.0038625-1.1845395-.918561-2.0283963.0817037-.8087942.5948209-1.3679639,1.1967721-1.841047ZM65.2341763,10.2659109c1.5886095-.6379296,3.2596423-.9775656,4.9308059-1.3033336,1.9300772-.3760069,3.3654188-1.4294542,4.3709821-3.0975433.4757652-.7891697.9439422-1.5830492,1.4173524-2.3737889.3212543-.5364051.7636577-.9457738,1.3905975-1.3114451.1959187,1.0472983.3820251,2.004716.5531514,2.9647503.3654096,2.0503758-.4189847,3.5812237-2.3431745,4.481076-.56316.2633618-1.1827733.4059671-1.8354867.6235382,1.1278245.3606997,3.0319318-.4738681,4.1034991-1.7272245,1.1294598-1.3209957,1.0254496-2.8188743.516061-4.5748815,1.0825571.7802732,2.0232939,1.3712346,2.8617867,2.0825601,1.3122301,1.1133677,1.2653273,2.6835955-.0858902,3.8053364-1.1395992.9461663-2.5286268,1.2568888-3.9672391,1.4009332-2.5152821.2519796-5.0265738-.0744426-7.5408747-.0423891-2.2103161.0279977-4.414287.0750967-6.5901947.5183505-.1237657.0251195-.2571474.0031399-.5236491.0031399.8931145-.712503,1.8206375-1.0789593,2.742273-1.4490788ZM63.6625093,12.2521798c2.2962718-.4772697,4.6162239-.4032196,6.9332323-.2739591,1.8140305.1012628,3.6249211.1931058,5.4439232.186041,2.3556034-.0091581,4.636568-.1965074,6.5642249-2.012435-.0566496.7713767-.4524773,1.1714564-.8438568,1.5545282-.7467152.7308193-1.6204013,1.2803074-2.5873043,1.6748923-4.258337,1.7384759-8.2597883,3.94454-12.0207732,6.5899331-.9660525.6795337-1.9979782,1.2311151-3.142549,1.5417068-2.7857087.7554154-3.657825.2525029-4.662865-2.5525034-1.1218063-3.1310359.8234473-5.9826178,4.3159679-6.7082038ZM59.4693913,22.4007029c.4066867-.2327475.8172982-.3477475,1.278672-.2200569,2.0766728.5746076,3.9631834.0811149,5.7718498-.9780889,1.4728245-.8624348,2.8608709-1.8486352,4.2596453-2.8191359,1.4970282-1.0385326,3.0719659-1.9188912,4.759745-2.6121621,1.8593633-.7635269,3.6532459-1.6675657,5.4176262-2.6328333,1.3423211-.7342209,2.279133-1.7735385,2.6698583-3.2715479.0693402-.2661093.0904039-.6270707.5128556-.4064904,1.4371732.7504438,2.9194829,1.4502563,3.5767755,3.1081406.1878726.473999.3178527.9512687.3249176,1.4608535.0156997,1.1539251-.5485069,2.027088-1.3723467,2.7563373-1.3870651,1.2277136-3.0630694,1.9170595-4.7825749,2.520319-3.4477766,1.2096589-7.0386163,1.7056374-10.6396608,2.1712632-2.5740904.332702-5.1343782.7488739-7.5835908,1.6707057-1.2511976.4709899-2.3405579,1.1832312-3.2819489,2.1168377-.3677646.3648863-.667759.3737828-1.0582226.0575654-1.8387575-1.4893746-1.7026937-1.8635499.1463993-2.9217071ZM57.3834296,24.6070287c.5867749,1.2719343.0603783,2.6129471-1.1952022,3.3769973-1.1015275.6703756-2.3489965.8637431-3.5941759,1.0145906-1.8650544.2259443-3.7259222.0319226-5.6002656-.1550342,1.8680635-.6022129,3.5468807-1.4796931,4.7473815-3.0923101,1.2769058-1.7151881,1.0533819-3.5390963.3245905-5.4386245,2.2124748.9377931,4.2683456,2.0197615,5.3176717,4.2943808ZM50.7025693,21.3356116c.2924716-.3931457.4909415-.245438.6782908.0652844.456991.758032.7450798,1.5048126.3910524,2.4402508-.8744712,2.3105977-2.9236041,3.8390906-5.286207,3.8343807-1.0077875-.0018316-1.4054468-.6703756-.8982823-1.5576681.5110894-.8942266,1.3136038-1.5181573,2.1195198-2.1202393,1.0755577-.803561,2.1825801-1.5694429,2.9956263-2.6620085ZM43.5218711,26.67245c-.5517777-.9067863-.4696816-1.834898.2720621-2.690922.7649006-.8829751,1.7537176-1.4603302,2.8142298-1.8992666.9703699-.4019113,1.971485-.7292493,3.0949267-1.1390105-.4137515,1.0906032-1.0525969,1.8522984-1.8899122,2.4313543-1.2349746.8537999-2.2676853,1.8369913-2.8557685,3.2796594-.3880433.9519228-.8896475.9152903-1.4355378.0181854ZM37.243053,32.4747834c.9942465-1.9194145,2.7485529-2.7072759,4.7907518-2.9236695,1.4219315-.1507168,2.8444516.0329693,4.2678222.131223,3.2638943.2255518,6.5296856.348925,9.7596948-.610586-1.402176,2.3104669-3.4306378,3.8301942-5.852376,4.827646-3.1249523,1.2869798-6.4288807,1.8554384-9.7634889,2.2534248-.4628129.0552105-.9522499-.0082423-1.4165674-.0894881-1.7910698-.3139932-2.631525-1.9559162-1.7858365-3.5885502ZM67.2905704,42.9931643c-1.8907626,1.649642-4.1943609,2.4106831-6.5753455,2.9672361-4.374122,1.022833-8.8150985,1.0113199-13.2639247.7653585-2.6574294-.1470535-5.2805813-.5159956-7.8073764-1.4022415-.5507311-.1932367-1.100023-.3940615-1.6346619-.7611719.9460355-.9067863,2.0458622-1.4212119,3.2341303-1.7693519,2.9792071-.8726395,6.0668727-.9142436,9.1254284-1.1742039,3.1472589-.2675484,6.2953027-.5286861,9.2847146-1.6682199,1.558126-.5939705,2.9698527-1.4244827,4.1388888-2.6319175.5087345-.5255462.8963853-1.1189934,1.0827533-2.033237-.6357709.6541526-.8776111,1.375552-1.4504525,1.8648582-2.0077251,1.7149264-4.4044093,2.4784533-6.9321203,2.9429016-3.5289569.6485269-7.1197312.6565075-10.6764896,1.0169456-2.1418264.2170478-4.2763262.4797555-6.285098,1.3340788-.7755633.3299546-1.5508649.6855519-2.1475175,1.2789991-.4520194.4495337-.6952334.3007794-1.0581572-.0761434-1.6462404-1.7099548-1.3375458-3.2992839.9013568-4.1567471,2.0374236-.780404,4.1765025-.6497043,6.2994893-.473999,3.6215849.2997327,7.2378058.6804495,10.8570357-.0663311,2.5709505-.5303869,4.8714088-1.5779468,6.8616026-3.306218,1.1401879-.9902562,1.834898-2.2313144,2.2211751-3.6687493.0769283-.2862572.1590899-.571206.266698-.9565019,2.0830835,1.8444486,4.0019092,3.7026344,4.9892871,6.2949102.8334558,2.188402.3290387,4.1436641-1.4314167,5.6797452ZM70.2076984,42.2572427c-.3450655-.1177475-.5814108-.2228044-.4384785-.7004666.7293147-2.43698.094198-4.636241-1.2788029-6.6711788-.7518176-1.1142835-1.6045054-2.1507228-2.6688117-2.9924864-.087591-.0692093-.1774062-.1390728-.2509983-.2220194-.3218431-.3630547-.8432027-.612941-.7898238-1.1950059.0132139-.1444369.3015643-.1386803.4512344-.0837315.540003.1978157,1.2892039.141297,1.3039223,1.0221788.0016354.0958988.087591.1900967.1457452.3081059.38909-.245438.4690928-.6503585.652648-.974164.3788852-.6688056.9471475-1.0190389,1.6666499-.8056543.6253044.1853868,1.0590076.6595166,1.115461,1.3963541.1476422,1.9268718.0692093,3.8560986.0904039,5.7841479.0049061.4453471.0007196.8906941.0485381,1.3365645.3285808-1.8015362.30719-3.614978.2088709-5.4318213-.0286519-.5301252-.0730034-1.0612971-.0642378-1.5911607.0178584-1.0819684,1.0088341-1.6641642,1.9744287-1.2020708,1.0205434.4882595,1.5091954,1.2920822,1.4925145,2.4070198-.0289135,1.9300118.0580233,3.8547903.1721075,5.7811388.0544909.9202618.0870023,1.8379071.2700342,2.6869971.2020023-2.9156889-.218487-5.8742901-.1954608-8.8428345.0064107-.8305121,1.038598-2.0365078,1.9949691-2.3108594.661937-.1898351,1.744952.3357111,2.2044288,1.0831458.2727816.4437771.1070848.930205.0774517,1.3905975-.2100484,3.2664455-.2992748,6.5338068-.1608561,9.8054855.0149801.3541582.0416695.7079239.0629295,1.0619513l.2892663-.0031399c0-2.484079-.0138026-4.9682888.005822-7.4523678.0097469-1.2292835.0713026-2.4588287.1272981-3.6873272.0613595-1.3451994,1.2124064-2.5818094,2.3041216-2.4522872.6576196.0782366,1.2183592.5360126,1.921704.5152106.2438027-.0073265.2116184.2972469.2051422.480148-.0564534,1.5919457-.1266439,3.1832373-.1846673,4.7750521-.0094198.2579978-.1755091.401388-.3386548.5501423-2.0881204,1.9034532-2.3213912,4.1346368-1.2052761,6.6277431.4642521,1.0368318.4364506,1.0449433-.5766355,1.6516044-.8886009.5322185-1.7393263,1.1188626-2.5093293,1.8148809-.4166298.3766611-.8262601.7473039-1.4277534.8076168-.5756543.0576963-.5123323.5065758-.4762231.8918716.0569113.6065303.4680462,1.0033392.9126737,1.3501709.6394341.4987259,1.0334957,1.1297215,1.2979041,1.9004441.9863313,2.8748697,1.7318035,5.8311161,2.9928135,8.7330677-.5930547-.1364562-1.0090303-.0427816-1.215023.5289478-.1087856.3019568-.4719057.3028726-.7346133.30719-.9578102.0159613-1.6842466.5078841-2.4042724,1.0563256-.5772242.4395905-1.186044.8381003-1.7829583,1.2516555-1.0715019.7424632-2.2720681,1.0156373-3.5614683,1.0387943-.4077333.0074573-.4163027-.1615757-.3621389-.440768.9776964-5.0395915,1.5046818-10.1681477,2.9860757-15.1077846.176752-.5896531.3554665-1.1931743.7333705-1.6798638.3045734-.3919682.1443061-.6243232-.1662202-.8072243-.9239905-.5439933-1.6239992-1.2889422-2.2774322-2.1393406-.6416583-.8350912-1.6519315-1.2143688-2.6383936-1.5509958ZM54.4855337,52.6400832c.2723891-.1115984.5269199-.3344028.7169512-.5664961.5310411-.648396,1.2359559-.8217465,2.0174065-.8286805.4702703-.0041866.9373352.062537,1.3448069-.3050968.2814164-.2542037.3725399-.0189704.5041554.2506713.4305632.8820593.4469825,1.8367296.528032,2.771252.3453271,3.9843125.5613937,7.9754282.5036321,11.9775337-.0039249.2716041-.0793487.5575997.1369795.9148978.2663709-1.801667.2384386-3.5156776.1485581-5.2343981-.1533334-2.9304727-.5418346-5.8456383-.574346-8.7835683-.0126906-1.1520935,1.1210213-2.2611438,2.2533594-2.1681233.6573579.054033,1.4269684-.1711263,1.8772216.5886065.0302873.0512856.1431286.0777133.2163937.0754892.8836293-.0260353.8393432-.0325768.748416.8515758-.419966,4.085052-.8133733,8.1727206-1.2147613,12.2596043-.0052986.0539022.0094198.1098976.0147838.1648464.6629182-3.6168096.983453-7.3160424,1.2895964-11.0172377.0414079-.5008192.0986462-1.0011151.1710609-1.4985327.1899659-1.3046419,2.4163742-2.3601825,3.4675974-1.6003189.3854921.2787998,1.1087232.0939363,1.1708677.6777021.0503043.4725598-.1889847.9766498-.3033305,1.4658251-.7009245,2.9981121-1.0471674,6.0454165-1.2199946,9.117317.4049204-2.6781006.8328671-5.3530614,1.2056686-8.0356103.2067776-1.4881971.7507055-2.8471337,1.3572358-4.2004445.1677901-.3744369.3617464-.3571673.6493118-.2551195.6682823.2368032,1.2969883.3459159,1.6100003-.5492265-1.4070168,4.626167-1.6113086,9.4213671-2.5150858,14.0886149-.3751565,1.9373383-1.2503472,3.1464739-2.9763288,3.9693978-3.2154216,1.533072-6.6141367,2.3599208-10.1135913,2.8583851-.8020565.114215-1.6062717.2160012-2.4043378.3535041-.3660638.0630603-.5294711-.0230262-.4953897-.4113311.017008-.1941525-.0041866-.3914449.0030091-.5869057.1869568-5.0979419-.1842094-10.1712876-.6998124-15.2361293-.0568459-.5590388.0452019-.8880775.5819341-1.1080036ZM52.7468615,51.5086609c.3453271.0279977.6618716.1342321.7328471.5246304.0339505.186826-.0533789.365933-.2352987.4514961-.3682879-.1768829-.6629836-.3818943-.7621532-.750313-.0423891-.1576508.1155888-.2378499.2646047-.2258135ZM47.8385585,51.8200375c.4191156-.1545108.8172328-.1070194,1.164457.1724346.0760779.0612287.0503697.2289534-.0800683.2684642-.4490103.1363254-.8613227.1010012-1.2082852-.3014335.0880489-.1006087.1018516-.1313538.1238965-.1394653ZM37.5247311,52.7739228c.2455689-.0218487.3220393.19533.4509728.3253755.5670849.5721218,1.1904269.570421,1.6724065-.0130831.5473295-.6625257,1.0711748-.8990673,1.8080123-.3535041.3521957.260876.6247811-.0245961.9223551-.1471843.5816071-.2396815,1.1233108-.5006884,1.4830947.3754836.2211036.5386292.7735354.4325257,1.1522243.1573891,1.2689252-.9222243,2.3362405-.1443061,3.4318807.3603072.3435609.1581741.2260751.5422925.2439335.8339137.2958732,4.8246369.5838966,9.6497971.8752561,14.4748266.0049061.0818999.0295677.1627532.0604437.3255063.3414022-.3937999.2600911-.8191299.2649972-1.2052107.0419966-3.3309449-.33002-6.6392562-.56316-9.9551556-.0411462-.5853357-.0849744-1.1704098-.1255319-1.7556147q-.1727617-2.4919288,1.3887659-4.296605c.2054693-.2391582.3446076-.1856485.5613937-.0672469.6365559.3477475,1.270626.7036065,1.9277222,1.0089649.4543744.2111605.441553.605222.4904182.9837146.3149745,2.4416899.4256571,4.898687.4996417,7.3562074.079872,2.6532429.1161775,5.3084482.3489904,7.9542337.0596587.6783562-.087591,1.069147-.8681913,1.0381401-.4130974-.0163538-.8334558.0696018-1.2460298.1367179-1.7372984.2827247-3.1755837-.1314847-4.2711584-1.6181118-.4794284-.6504893-1.215023-1.0904723-1.9668406-1.39256-.655788-.2633618-.8174291-.6941867-.8746674-1.3417978-.3295621-3.7302397-.8720508-7.4306499-1.6895453-11.0876245-.0228953-.1024403-.076405-.1980774-.1156542-.2967236.3154978,3.5264057,1.0249917,7.0187955,1.2405349,10.6162422-.3996872-.1473152-.5279011-.4810638-.7272214-.7319967-.698177-.8787886-1.5453046-1.5414451-2.6438885-1.8156659-.4013226-.1002162-.6194825-.2857338-.7332396-.6829353-.7910667-2.7628788-1.5763115-5.5279818-2.8130523-8.1387047-.1489505-.3145166-.3175257-.6640957-.1848635-1.0472983ZM26.794928,66.7697788c.4223209-1.3998865,1.2861294-2.460137,2.5427565-3.2048243,1.8334588-1.0865474,3.8594348-1.4113996,5.796446-1.5139707.2870422,0,.4268346-.0006542.566627,0,.736772.0036633,1.5059901-.0279977,1.8335243.8343062.3136007.8254097.0089619,1.5426226-.5231258,2.1651142-.762284.8917408-1.8203104,1.2593745-2.9111098,1.5506033-2.2901228.6112402-4.6682944.4231059-6.9885082.7660127-.5774859.0853015-.3928186-.3444767-.3166098-.5972413ZM28.5092657,67.7960134c1.7575117-.0898806,3.5210417-.129653,5.2515369-.5023892,1.8609987-.4009955,3.4314228-1.3151083,4.7216079-2.7083225.9200656-.9936578.9449888-1.7540447-.0028783-2.6947161-2.427364-2.4085898-4.451312-5.0825039-5.6973419-8.3004112-.1169625-.3020877-.3737174-.549619-.5629637-.8242322-.1818544-.2637543-.424545-.5012117-.4333761-.8712004.4603926-.067901.5210325.2822014.6703756.5279011.6945792,1.1418887,1.2460298,1.2264053,2.1978872.3425143.0785637-.0730034.1711263-.1554267.2697725-.1779295.5854666-.1334471,2.1379669.7318659,2.3989083,1.3022869,1.1410383,2.4946763,1.9380578,5.1136415,2.7910074,7.7120664.2252901.6864677.5907652,1.1917352,1.2228074,1.6072529,1.3223694.8691071,2.4776683,1.9540846,2.1929157,3.7407061-.2810239,1.7634645-1.7008621,2.4785841-3.1908254,2.9816274-2.1053247.710933-4.2981749.73566-6.474933.4944085-2.8781405-.318834-5.7020518-1.0344769-8.7674107-1.2045566,1.0618205-.944858,2.1575914-1.3607682,3.4129102-1.425006ZM24.8694953,70.1640457c.3877162-.0363709.7818432-.0049716,1.172961-.0049716,2.3966842-.0116439,4.6816392.7221844,7.0273649,1.0618205,2.6182457.3791468,5.2322394.4414222,7.799592-.3856884,1.5520424-.5000342,2.8122019-1.3726738,3.5935872-2.8264625.2348408-.4369739.4183306-.4597384.8203073-.2237202,1.041738.6117635,2.0720283,1.2266669,2.7665421,2.2573497.8844797,1.3124917.6464336,2.1928503-.8263255,2.7317412-2.6885017.9835838-5.5044323,1.4536579-8.318335,1.8876227-4.9132092.7577703-9.8357073,1.4561436-14.7541497,2.1804214-.1655006.0243345-.3304125.0545563-.4939506.0900114-1.6666499.3616155-2.5097218-.2298692-2.7783822-1.951468-.4061633-2.6023498,1.2059303-4.5552569,3.9907886-4.8166563ZM48.0336268,73.4434434c-.6695252,1.4519571-1.5063171,2.4834248-2.4878731,3.3997618-2.6069288,2.4339709-5.8007634,3.4855866-9.2659404,3.8486413-4.116713.4313482-8.133079-.114215-12.0763761-1.3135384-.8052618-.2449147-1.5636209-.5760468-2.343567-1.1407113,1.6725373-.5288169,3.3063488-.8006828,4.9431694-1.0335611,6.3810621-.9071788,12.8150452-1.4940845,19.0645573-3.188078.6389108-.1732196,1.2799149-.3385894,2.16603-.5725143ZM17.3380405,82.0795657c.5716639-1.4042039,1.4116613-2.5962007,2.731087-3.4018551.4918573-.3005177.9367465-.4624859,1.3425827.1679864.2445222.3796702.6684785.5896531,1.094201.7431173,6.6304251,2.3915818,13.3084071,2.7931007,19.9859966.2731741,3.3164881-1.2515247,5.8568897-3.4469916,7.2018274-6.8272596.1857793-.4669341.3680262-.4251992.7327163-.2294767,1.6168035.8679296,2.279133,2.5684647,1.6833962,4.4440509-.7019711,2.2102507-2.3787604,3.6028107-4.1740168,4.8718667-3.3906036,2.3969459-7.2522625,3.6746367-11.2426587,4.6052341-3.8625093.9008989-7.778005,1.5290162-11.6939585,2.1456205-.4670649.0735267-.9471475.0639761-1.4212119.0928897-1.894295.0219795-3.5748784-.5433391-5.0112666-1.7926397-1.4940845-1.2996703-1.9707655-3.2694546-1.2286948-5.0927086ZM16.9032253,87.7984292c2.8787292,2.6731291,6.2775752,2.9193521,9.8363615,2.121286,5.7704761-1.2941755,11.5762765-2.47793,17.1460586-4.5271283,2.4459419-.8999831,4.7831636-2.0350687,6.7571345-3.7908142,1.4806089-1.31694,2.5657827-2.8732998,2.8209022-4.8964629.0588083-.46628.2173095-.5453016.6430974-.3346645.8999177.4450854,1.8477194.7980661,2.6324408,1.4509104.9618005.7998978,1.1843432,1.7089082.6665815,2.8345739-.6261548,1.3611607-1.6738456,2.3646307-2.8552452,3.2320371-3.4066958,2.5017411-7.279279,3.8470713-11.406851,4.548977-3.555123.6046986-7.1553171.8456885-10.724439,1.3349946-1.105387.1515017-2.203055.3637088-3.3005922.5680661-1.0859587.202264-1.997782.7193062-2.6415335,1.6301482-.2237856.3166098-.4318061.3756144-.7688909.2156087-.2502134-.1185324-.5379751-.1575199-.789693-.2738283-.757247-.3498408-1.5028501-.3897441-2.2373981.0421274-.7694143.4522811-1.4129696.2985552-1.9837831-.3591298-.1630148-.1877418-.3998835-.311115-.565057-.4974176-.2809585-.3171332-.5417037-.3507566-.9490446-.1766212-1.2424974.5314336-2.7694858-.3016952-2.9697219-1.6555293-.0824886-.5578613.4138823-.9893404.6896731-1.4671334ZM15.7173775,92.9076225c-.0160267-.0442207.0084386-.1029636.0158959-.1732196.1544454.0236803.3213852.1002162.4552902.0616212,1.0523353-.3028726,1.2647386-.2443914,1.623018.8001594.552301,1.6101312,1.0657454,3.2353078,1.5377165,4.8709509.6886918,2.3866103,1.1696902,4.8315709,2.0051085,7.1773621.1185979.3328328.1747896.7003357.5257424,1.0607738-.120822-1.2689252-.450384-2.3839937-.751883-3.499193-.7944029-2.9376684-1.6073837-5.8706269-2.4496706-8.7949506-.1605945-.5575997-.138157-.8292038.4869512-1.0293745,1.6193547-.5180888,2.2577422-.2224119,2.8362747,1.5600231.7688255,2.3689481,1.1924547,4.8231978,1.7084503,7.2540288.3754182,1.7685669.748416,3.5387038,1.4854497,5.214381-.7904126-4.548192-1.7768746-9.0534717-3.020942-13.6113452.7467152.3383277,1.2197329.9295508,1.9683451,1.1868944-.0372867-.326553-.065219-.5715985-.0932167-.8165132-.1163083-1.0178614.4518886-1.4502563,1.4526766-1.0713711.9134587.3456542,1.8165163.7206145,2.7141445,1.106172.5433391.2332708.9430918.1058419,1.3364337-.3251138.8963853-.9820138,1.1422812-1.0021617,2.2619942-.3275996.1435865.086479.276314.2059272.4315445.2559045,1.4811323.4770081,1.7940134,1.5563598,1.7328502,2.9860757-.1243544,2.9046991-.1371104,5.8141081-.1867606,8.7218163-.0133447.7790957.0445478,1.5543974.2598948,2.3154385.338851-3.8682658.5740189-7.7374475.3308704-11.619843-.0904039-1.4429298-.1047298-1.4467238,1.3612915-1.6431004.8359416-.1119909,1.6666499-.0646303,2.5065164.0303527.7143346.0808533.9443347.4156485.9411947,1.0947898-.0108589,2.3253816-.2740899,4.6319236-.4679153,6.9438296-.1845364,2.2012234-.3339449,4.4032318-.2050114,6.723511.2714733-.3472242.2719966-.6688056.3043118-.9807055.4320678-4.1737551.6447328-8.3625557.8393432-12.5518796.0273436-.5899148.2461576-.7698068.7843944-1.0247954,1.3528529-.6412004,2.6371507-.0051024,3.9466333-.023942.4920536-.006934.3236093.3501025.2984898.5971105-.1951991,1.918237-.4361889,3.8328108-.5925314,5.7541877-.1880035,2.3107286-.3349261,4.6264287-.1574545,6.9520719.4159102-1.7110015.4544398-3.4664853.5744114-5.2094095.1785182-2.5933225.2893971-5.190439.6489194-7.770286.0803954-.5767009.2984244-.8460809.8384274-.9372698.3379352-.0570421.6641611-.2042264.8645935-.4783164.5549176-.7582937,1.3383308-.6279865,2.0556745-.478578.3482708.0726109.627594.054818,1.0637829-.1159158-.6946446,4.5474071-1.8102364,8.9310143-2.0354612,13.4455829.4594768-.9358307.5390871-1.9652052.7195678-2.9623954.5971105-3.298499,1.1547101-6.6040628,1.7250658-9.9072716.0516126-.2993402.0281286-.6251082.4484216-.6988966,1.2952875-.2277759,2.407674-.8587715,3.6212578-1.7696136-1.323089,5.3013833-2.5974436,10.4107074-3.5451799,15.5949974.4900911-.6685439.6188283-1.4645168.806701-2.2298753.9252334-3.7694888,1.8224037-7.5460425,2.742273-11.3168396.2252247-.9232709.4833533-1.8441869,1.0638483-2.6234135.5220138-.7005974.6903926-.7049148,1.2609445-.0552105.2617264.2979011.5212288.6294256.9123466.7070081.7669939.1520251.6158192.541115.3898749,1.0623438-1.6552677,3.8182886-3.1446423,7.7025158-4.5918894,11.6038817-.4586264,1.23661-.7777874,2.5095909-1.0509615,3.7896367-.198797.9313824-.7043915,1.5342495-1.4832256,2.0085101-1.6177193.9851538-3.3836696,1.5796476-5.2000551,2.0550857-3.6353875.9516612-7.2990999,1.687452-11.0891291,1.4663484-3.5409933-.2067122-6.9522682-1.0340844-10.2996323-2.1626284-1.0611009-.3579523-1.8159276-1.0301595-2.2676199-2.0807285-2.2831233-5.3111956-4.4227256-10.6786483-6.3983972-16.1112546ZM85.988606,156.3588525c1.730299,1.1908194,3.527714,2.2651995,5.5884255,2.8047446.5037629.1317463,1.0111236.1962458,1.5792552-.0256428-4.2619349-2.0794202-8.2679652-4.4495458-11.1248458-8.6225159,2.4622957,1.0049092,4.8387012,1.6693974,7.252655,2.2126057,2.8634875.6442095,5.6984539,1.384841,8.3600699,2.6681575,1.2612716.6081002,2.4999749,1.2491698,3.5587208,2.1852621,1.8851369,1.6663883,2.0975402,3.4431975.5966526,5.4658373-1.7295794,2.3308765-4.2033882,3.5634307-6.878676,4.3928962-4.8347109,1.499056-9.8139894,2.2020084-14.8634586,2.3125602-8.9779825.1962458-17.7885673-.9254951-26.3675821-3.6376116-2.3762092-.751098-4.6641079-1.7273553-6.6879251-3.2265422-1.9171904-1.4202961-2.0100146-2.3325773-.3679608-4.0723615,1.5859275-1.6802563,3.6840565-2.377583,5.8451803-2.9027366,2.9262861-.7111947,5.9177259-1.1800912,8.6650359-2.5179641,1.1791754-.5740843,2.3509589-1.1585042,3.6632544-1.9440106-1.7205521,3.3985843-4.4723758,5.4426803-7.4469383,7.2782324.5841583.2422981.993854-.0242036,1.4128387-.1899659,4.7193838-1.8669515,7.6168872-5.4067019,9.2622117-10.0982842,1.4617693-4.1682602,1.8637461-8.4987503,1.9695226-12.8713678.0785637-3.2464284-.1329238-6.4852686-.3815672-9.719399-.0431087-.5603471.071826-.8061776.6319114-.9181686,1.2853444-.257082,2.5487093-.6432936,3.8818722-.5693744.6631799.0366325,1.0115161.2243743.9697158,1.0514849-.2004323,3.9652113-.3231514,7.9344783-.4640558,11.9025678-.051351,1.4459389-.0818345,2.8929244.1454181,4.4325379.4756998-.2878271.5218829-.7198295.6053528-1.0958364.3647555-1.6442779.4393289-3.3215251.5165843-4.9970715.1497355-3.2452509-.0304835-6.4848762-.1435211-9.726333-.0116439-.3351878-.3144511-.9476054.3515416-1.0088341.6975229-.064107.87035.4572527.8567436,1.0546248-.0501735,2.2078958-.1100939,4.4157916-.1486889,6.6240798-.0488652,2.7931007-.3964819,5.578744-.1367179,8.3798253.6152305,6.6344154,3.8880867,11.654644,9.2989751,15.3786038ZM147.2471819,106.3753158c-.4758306.6667123-1.084585,1.2002391-1.7361864,1.6900686-1.2769058.9597727-2.633095,1.7977421-4.0469149,2.5320938-2.8384334,1.4741982-5.5434852,3.1574637-7.9658776,5.2451262-4.3454047,3.7450235-9.437263,5.2461728-15.0799177,5.3152513-3.2673613.0400341-6.5442732.1300455-9.7341828.9948352-1.8924634.5131173-3.7273614,1.204949-5.4887326,2.0450118-6.3297766,3.0191758-12.8628638,3.2298129-19.5545176,1.5571448-2.599864-.6498352-5.1901774-1.3390503-7.7967791-1.959972-2.0527962-.4890445-4.0694832-.3387202-6.1180274.2527646-3.0259136.8735554-6.0499301,1.7757626-9.2293733,2.0236864-4.9903338.38909-9.7430793-.3417293-14.2286035-2.6345341-1.0676424-.5456941-2.1825801-.9999376-3.2817526-1.4824406-2.7940165-1.2269286-5.662868-1.4251368-8.6008635-.5993346-5.5181695,1.5511266-10.9130312,1.1250116-16.127216-1.1796988-4.1892585-1.8516443-8.4341854-3.5600292-12.6832989-5.2631808-.962978-.38595-1.8447103-.9334757-2.6360386-1.6124861-1.7762205-1.5239138-2.0071364-3.466747-.6355746-5.356463.6305377-.8687146,1.408783-1.5963939,2.2791984-2.2110357,3.7027652-2.614517,7.8105164-4.2946425,12.2221213-5.2807121.5915502-.1322697.8276993.0249886,1.0457283.5747385,1.2039678,3.0363146,2.4559504,6.0535279,3.6782999,9.082516.2402048.5952788.628706,1.0264962,1.1566072,1.3844485,2.2074379,1.4968319,4.7055157,2.2044942,7.2914463,2.5574749,6.6055019.9016839,13.0432791.240859,19.2430755-2.3133452.1547725-.0638453.3035268-.1419511.4571872-.2085438,2.0078559-.8709387,3.3348698-2.1450971,3.936494-4.4573957,1.4011948-5.3847223,3.6582829-10.4801784,5.9871315-15.7662546,1.0102078,1.8283565,1.8084702,3.5440678,2.5360187,5.2845062,1.5941044,3.8130554,2.9553305,7.7178229,4.3067443,11.6204972.7855718,2.2686011,2.2245113,3.6274069,4.4954673,4.3106038,5.2478736,1.5791243,10.5685544,2.3863486,16.0504839,1.7659503,3.3340194-.3773152,6.5113039-1.2793916,9.4893335-2.8555068,1.2731117-.6737772,1.992745-1.6670424,2.2911694-3.1014682,1.2175088-5.8517873,2.605686-11.6626246,4.4927199-17.3423698.0839278-.2525029.1896388-.4978101.4499916-.7459956.2969199,1.1442437.5927931,2.288749.8910212,3.4327311.9718745,3.727623,1.8154042,7.4875612,2.9340706,11.1789442.3722782,1.2283677,1.0781089,2.0158366,2.1630209,2.5999948,2.1959248,1.1823154,4.557481,1.8324122,6.9991709,2.1970368,5.7419551.8577249,11.4259522.6463027,17.0044346-1.0843233,1.6901994-.5243687,3.2845655-1.2557113,4.687919-2.3641074.3746332-.2958078.5594313-.6387146.6309956-1.1199092.2466809-1.6567068.4939506-3.3170769.9920224-4.9231523.362793-1.1698865.4706628-1.2606828,1.6724719-.9626509,1.9835214.4919227,3.7615736,1.4464622,5.3072053,2.7605239,1.2646078,1.0750343,1.3120992,2.9337435.2523066,4.4189315ZM127.5094362,92.0137884c.0812458,4.3348075-.1531371,8.6578402-.5475257,12.9748547-.3842492-4.3463205.117355-8.6592793.5475257-12.9748547ZM108.3017503,90.7531056c.7833477.9835838,2.4252053,9.3653716,2.2263429,11.5952469-.7530604-3.851912-1.6952364-7.6551551-2.2263429-11.5952469ZM115.7877416,104.7121983c-.4512999-4.0685674-.4043971-8.1583293-.4935581-12.2423346.3094142,4.0747164.8235127,8.1405363.4935581,12.2423346ZM122.2913265,100.5101838c.2836406,2.1558252.4015189,4.3176687.2040956,6.4802971-.333487-2.1594885-.412574-4.3155754-.2040956-6.4802971ZM30.9000625,119.5245675c.4617009.0240728.9368773-.0391183,1.5512574.184471-1.6836579.7190445-3.3051059.9135895-4.9452626.9160753-2.5441956.0040557-4.9839231-.5680661-7.3089122-1.5805635-1.9945112-.8685838-3.9331578-1.8571392-5.7960535-2.9855524-.4416184-.2675484-.9012914-.5246304-1.340097-1.0755577,1.0463825.1583049,1.7694827.525677,2.4988628.8642664,3.011653,1.3983165,6.0377629,2.7422076,9.331094,3.3732032,1.9948383.3821559,4.0066845.1988624,6.009111.3036576ZM104.3279697,120.7487487c-.2131229.7997669-.6150343,1.1345622-1.0112545,1.4670026-2.4248782,2.0336295-5.3339601,2.8570768-8.3812645,3.283061-4.4571994.6231457-8.7333948-.0209329-12.8025509-1.9671676q-.4824375-.2306542-.9468859-.8428102c8.0414322,2.9693294,15.7386493,3.4515707,23.1419557-1.9400857ZM64.9471342,123.0993805c-2.2738344,3.187293-15.8837404,1.7444941-18.6665709-1.8312347,5.9522651,2.7402451,12.0964586,3.5275832,18.6665709,1.8312347ZM9.9455276,114.6197315c.7068119.2237202,1.4514337.3425143,2.1289396.7179979-.21345.3061434-.4847925.1562116-.7014478.122719-2.1843463-.3367577-4.3225094-.843726-6.3107407-1.8483735-3.3474296-1.6916386-3.6606378-4.2300122-.8324092-6.6904109,1.2670935-1.1023779,3.0437719-2.1887945,4.2585333-2.5532883-.5432737.6582083-1.1690361.9851538-1.7284674,1.3930833-.9705008.7079239-1.9511409,1.4038114-2.6864738,2.3748355-1.1554297,1.526138-.9782852,2.988954.5390871,4.1528222,1.5814793,1.2133222,3.472569,1.7412233,5.3329789,2.3306148ZM123.4148336,118.4894365c2.5985557-.8904325,4.9507575-2.2460983,7.2911192-3.6547504-3.3395143,3.7451543-11.5839955,6.1957407-15.3134502,4.5339315,2.7059021-.0261661,5.4114772.0151763,8.022331-.8791811ZM146.9207598,103.6871412c.3207964,1.7370368-.9208506,3.6531805-2.63231,3.8559678,1.0002647-1.486758,2.4424095-2.8142952,1.5840305-4.752026-.7533875-1.7007967-2.3349322-2.4475773-4.2337409-3.0902168,2.2635642.0680319,4.9074526,1.9581403,5.2820204,3.986275ZM94.3624131,108.1867951c-.067574-.0125597-.1352133-.0251195-.2028527-.0375484.8582482-4.5887495,1.7164964-9.1773682,2.5747445-13.7661177-.5218175,4.6460533-1.3697301,9.239251-2.3718918,13.803666ZM96.9617538,107.5930862c-.0694056-.0183163-.1388766-.0363709-.2082822-.0544255.8579211-3.4141531,1.686667-6.8358944,2.6704471-10.2176016.0669198.0245961.1338396.0489306.2007594.0733959-.887685,3.3996309-1.7753047,6.7990002-2.6629243,10.1986312ZM28.1426132,94.7614909c.6714876,4.9260306.6199404,9.8763956.5122015,14.8289848-.6932055-4.9230215-.1974232-9.8936652-.5122015-14.8289848ZM85.8629432,57.1638099c-.0017662-.0105973-.0034016-.0213254-.0051678-.0320535.0087002.0039249.0089619.0130831.0187088.016223l-.001897.0022241c-.0009158.0236803.0017662.0467065.0011775.0703868-.0046445-.0188396-.0081115-.0379408-.0128214-.0567804ZM86.7448063,61.7191976c-.241644-1.5084758-.9067209-2.9334818-.8690417-4.4986073.3675029,1.4840105.686664,2.9777025.8690417,4.4986073Z"/>
  </g>
</svg>