<?xml version="1.0" encoding="UTF-8"?>
<svg id="Layer_2" xmlns="http://www.w3.org/2000/svg" viewBox="0 0 267.6431169 177.9055084">
  <g id="Layer_1-2" data-name="Layer_1">
    <path d="M152.1863763,177.9052901c-2.3131075-.0442588-4.5648789-.5383012-6.8370364-.9021653-4.7535064-.7612388-9.5170949-1.4591872-14.2747762-2.1946213-.6872002-.106239-1.370403-.2525175-2.0455447-.420137-4.0072908-.9947691-6.1002144-3.478372-6.032527-7.9350799.1342866-8.8409761.2292999-17.7186161,3.6255388-26.1175589.2296108-.567859.2155981-.7816027-.5008933-.8877751-6.151413-.9115812-11.632481-3.501201-16.7054595-6.969713-9.796805-6.6982973-17.8028034-15.058955-23.1092345-25.769684-3.675094-7.4179643-5.8062695-15.3140374-6.7384922-23.5427069-.9476012-8.3644218-.4382691-16.6464218,1.4064674-24.8385383,1.3813512-6.1342247,4.5641017-11.3748004,8.4956993-16.1847907,1.9174983-2.3459075,3.9117112-4.6316003,5.9295525-6.8924655,3.2066454-3.5928388,7.1221984-6.2822908,11.2952433-8.611976.5849918-.3265783.7519673-.6151824.5758646-1.2506399-.4201259-1.5161041-.7577634-3.0549817-1.1726595-4.5726625-.1150552-.420881-.0673654-.7473593.1395497-1.1139216.831369-1.4728557,1.9780794-2.5096519,3.6993554-2.8092485,1.5106079-.2629215,2.9193959-.8008452,4.1835822-1.6733418,2.537111-1.7510113,5.2618724-2.9447343,8.3950566-3.1372369,2.3952518-.147189,4.403011-1.445763,6.5090702-2.4252758,1.3205591-.614172,2.6685884-1.1332085,4.083106-1.497439,2.6595945-.6848518,5.2484149-.4112764,7.7421331.6246981,2.7521872,1.143335,5.5009657,1.3107991,8.3283574.3586343,5.1752423-1.7428391,10.3205605-1.374256,15.4373092.2712936,1.188371.3821739,2.2904673.9454915,3.3099752,1.6737971.4009945.2864611.5055901.5737772.3352169,1.0688189-.494642,1.4372021-.7706546,2.923471-.8526656,4.4467036-.0220073.4092444-.0023095.6890767.4760102.8083179,4.8958764,1.2204382,9.3143436,3.5606273,13.7251493,5.9065459,7.7749886,4.1352039,13.829856,10.2483873,19.4074696,16.9147063,4.4475808,5.3157136,7.6940658,11.2965646,9.8637262,17.8527029.9629463,2.9098025,1.280131,5.969703,1.6654472,9.007563.5668596,4.4691772.7590403,8.9258962.1422368,13.4094969-.7014571,5.0988609-2.1169851,10.0032981-3.8930905,14.8119227-2.2449205,6.0778518-4.4533324,12.1867936-7.841388,17.7477075-5.2023351,8.538759-11.7513781,15.7850398-20.5842708,20.7335472-4.7334089,2.6518442-9.7937293,4.4634367-15.0562679,5.7369943-1.1268128.2726816-1.1304326.2844291-.6824922,1.3842381,1.5298281,3.7561612,3.3641163,7.3821442,4.7857734,11.1845851.5516255,1.4753762,1.0117354,2.9781116,1.3936761,4.50754.4558239,1.8253386.104418,3.4813034-.9592377,5.0036921-1.0101143,1.4456853-2.337391,2.5275286-3.8855623,3.3545006-.93461.4992389-1.8533196,1.0285684-2.7923044,1.5192131-1.5512358.810472-2.210033,2.1568913-2.3817609,3.8259805-.5379015,5.2285173-3.1077792,7.5409475-8.4230265,7.5937117-.0606255.0005996-.121251.0000666-.1818765.0000666ZM146.6196109,99.6580862c.245289-.6828031.5032584-1.2866266.6809488-1.9132123,1.7839667-6.2908295,4.5875413-12.0359072,9.0002124-16.9288745.3036161-.3366492.5612079-.7147925.8402407-1.0736156,2.4978932-3.2122305,4.4906959-6.6906802,5.458439-10.6768742,2.5476927-10.4941094,3.7841422-21.1529403,3.9817192-31.9432042.1005318-5.4882521-.3079465-10.9696643-.176458-16.4567394.0668879-2.7901614.2687287-5.569297,1.0634558-8.2660552.1446574-.4907779.0586713-.7402974-.4298415-.9837433-2.8257262-1.4081552-5.8002403-2.2386914-8.9434398-2.5429071-3.2015933-.3098674-6.2779715.2545494-9.3076926,1.1899033-2.40107.7412746-4.7644323.712594-7.1256516-.1560496-.7090187-.260834-1.4469289-.4419666-2.1646527-.6804936-2.2170283-.7368109-4.4348783-.8655458-6.6889925-.1352859-1.3268548.4298637-2.6219312.9285696-3.9023731,1.4783076-1.9666316.8443268-3.8040176,2.1313087-5.9985723,2.2568679-3.1442766.1799112-5.8611101,1.3281206-8.3823208,3.127488-1.2447217.8883525-2.6616376,1.4299848-4.1839042,1.6686894-.2379829.037308-.4753995.0972007-.7036668.1744816-1.470635.4978287-2.0830304,1.6998794-1.60732,3.1562796.688466,2.107858,1.1288337,4.2703011,1.4412105,6.4619244.5083993,3.5667232.8184222,7.1603059,1.5270967,10.7002805,1.2334516,6.161384,3.5577404,11.9377183,6.1821477,17.6047823,2.611083,5.6382613,5.0448087,11.3292202,6.3992892,17.4340204.6951281,3.1331175,2.1308757,5.9764207,3.8912695,8.6532702.8155242,1.2401026,1.6159808,2.4901318,2.4344252,3.7282913,1.9285242,2.917475,3.0094903,6.1038564,3.2450415,9.6073891.1194967,1.777349.2928345,3.5639695.7439838,5.302245.1544063.5949517.4297194.9247944.9131801.2570477.4870471-.6726545.9835989-.5475061,1.5450067-.131111.2376942.1763025.5244329.4118093.7934503.0805231.273048-.3362828.0448584-.6357573-.1928913-.8760942-.1665203-.1683524-.37811-.3836507-.5863353-.4036704-.9897725-.095202-1.285383-.6692235-1.465916-1.5880331-.332652-1.6930507-.3784098-1.750545,1.3512494-2.2561906.3475752-.1015977.5091766-.2113676.4973846-.5955069-.1146888-3.7364191,1.239614-7.1207994,2.5491362-10.5134851.1078601-.2794436.2599124-.5500155.4356154-.7927285.1734822-.2396151.4153736-.5765642.7149036-.4446315.3303757.1455234.1665203.5465512.0779027.8071965-.1746925.5138623-.4165395,1.0049067-.630683,1.5053448-1.1373945,2.6581511-2.0843406,5.3655909-2.1046379,8.3056062-.0093936,1.3596548-.0004441,1.3582668,1.350461,1.550181.2398039.0340658.485748.0592709.7139487.1340423.6329814.2074259,1.0084043.0663994,1.3254558-.593919.4581001-.9540301.8578732-.9923264,1.6614166-.3514503.1431473.1141669.2449892.231665.4622307.207226,1.1702611-.1316995,1.534525.033666,1.5881996,1.0996091.074727,1.4843479.8385641,2.5884539,1.7263281,3.8128783ZM154.2972766,117.9218989c.0140349.4410561.2421245.6987701.3968417.9820667,2.279064,4.1730116,4.4905183,8.3793561,6.3674219,12.7532757.7623936,1.776705.7674568,1.7694877,2.6253955,1.2906128,7.3206082-1.8868524,14.040402-4.9433331,19.6643841-10.1217511,9.0059308-8.2924595,15.7120672-18.0298937,19.0785818-29.9412743,1.5488819-5.4802686,2.6458705-11.0013206,2.7993663-16.7041715.1071051-3.9786768-.1252483-7.9405873-.507078-11.8932707-.277234-2.8697297-.8415176-5.6785784-2.0223827-8.3492543-2.2420113-5.0706245-5.2918521-9.6095654-9.0601828-13.6421057-7.4515415-7.9739979-15.9482402-14.5832335-25.797665-19.3814873-.4631967-.2256468-.6567097-.2124003-.6504251.3493961.0077947.6970712-.0226957,1.3945866-.0140127,2.0916245.0615138,4.9398133.4115428,9.8771726.1354858,14.8192954-.027981.5010376.1953785.6714109.6139166.8311469,6.1753856,2.3567668,10.9465023,6.4614803,14.7472777,11.8018661,2.3812502,3.3458398,3.5934273,7.1639367,4.7545723,11.0337764,1.6137267,5.378038,2.1268451,10.7958157,1.0101587,16.3319575-1.0365852,5.138867-3.0697605,9.9334789-5.0511488,14.7479439-1.3805961,3.3545339-3.1285206,6.485031-5.4652455,9.2789121-2.3032364,2.7538639-4.806315,5.3061979-7.6467201,7.5005749-4.6890169,3.6225408-9.74192,6.3678772-15.9785418,6.2208658ZM188.1858602,74.6395479c0-.3333515-.0000666-.6666919-.0000222-1.0000433.0005552-4.1788299-1.1512629-8.1250176-2.3640396-12.0721603-2.8533297-9.2862738-8.9897639-15.59005-17.6594563-19.6240115-.9300797-.4327507-.9361201-.404059-1.0095369.6510358-.2146099,3.0831736-.4040812,6.1685347-.6610623,9.2482218-.3937105,4.7182415-1.49765,9.3231154-2.3129854,13.9735029-1.050287,5.9905666-3.1551692,11.515949-7.4938683,15.9506052-4.6698077,4.7730709-6.6706605,10.8673893-8.6083229,17.0078764-.1050509.3328629-.1000654.5780076.3077244.6957499,1.7054089.492388,2.5567865,1.8255052,3.2723785,3.3107636.2300438.4774759.2748912.8643022-.1826649,1.1898589-1.211633.8621259-1.7808244,2.0666415-1.9297455,3.513104-.0242946.2359731-.1064166.4785196-.2150651.6907533-.2331306.4553353-.1149553.8464254.087585,1.2818409,1.0765581,2.314229,2.4229996,4.4684555,3.7990543,6.6106457.3721141.5792956.8241183.815935,1.4680923.868255,1.8345213.1490988,3.6289698-.0022429,5.3766278-.6123177,7.8786516-2.7502663,13.8467779-7.9761409,18.6853598-14.58994,2.7793355-3.7990432,4.3681458-8.2165444,6.039278-12.569445,1.7976241-4.6824324,3.2215908-9.4583125,3.4006692-14.5242957ZM86.5417615,73.1269747c-.0541743,3.6550965.1917143,6.5829867.6242318,9.4938884,1.3318847,8.9637594,4.3679015,17.3532308,8.6642405,25.2972491,2.1478419,3.9714151,4.3629715,7.9176029,7.6043378,11.1466109,7.0022354,6.9755313,15.187068,12.0685406,24.5000126,15.3687447.5575881.1975992.6673914-.010615.7765395-.4542028.3976856-1.6161251.8335008-3.2230565,1.2168184-4.8424682.9559399-4.0385917,1.7058309-8.1160904,2.2809183-12.2267443.0836765-.5980829-.019731-.8313023-.6938179-.8995227-1.2624874-.1277577-2.519101-.3820073-3.7235722-.7959486-9.7102637-3.33729-16.9006825-9.6951518-21.7782602-18.622769-4.0248011-7.3667657-5.1720334-15.3041663-3.8839967-23.5923176,1.2958981-8.3386171,4.5959578-15.706471,10.6072104-21.7412742.4098884-.4114873.2484202-.7335243.0974005-1.1231376-1.435148-3.7025088-2.6024555-7.4859959-3.4787718-11.3607211-.4416113-1.95263-.6590526-3.940847-1.0049955-5.9083669-.1031189-.586513-.2993079-.8557968-.851855-.3555919-.2237814.2025736-.4823947.366207-.7202999.553713-4.4950374,3.5428616-8.2023873,7.8029585-11.3667836,12.5479152-5.6975766,8.5434336-9.1072842,17.8130076-8.8693568,27.5149436ZM141.4156103,107.2638674c-.4987725.5139178-1.1461886.5565999-1.7803914.5805392-1.211522.0457689-2.4247873.0832768-3.6365757.0674875-.558321-.0072617-.810683.1471001-.8923498.7338352-.5219568,3.7497656-1.107104,7.4908704-1.6146705,11.2425013-.8916614,6.590526-2.1675952,13.0799207-4.7217835,19.2637672-2.224823,5.3864323-3.2397007,11.0145894-3.3353469,16.832773-.0492999,2.9991196-.0149232,6.0016591-.2991081,8.9964039-.1698181,1.7893631-.0321671,3.5673117.5211906,5.3033776.2018519.633259.4050362.7101401.979635.3459207,2.5213772-1.5980485,5.2670023-2.0061714,8.1974352-1.5065328,2.4751975.4220468,4.7566487,1.3839716,7.0528788,2.3286414,2.5130385,1.0338759,5.0786746,1.6041333,7.7931429.8263501,2.2273324-.6382112,3.2603423-2.106681,3.0559588-4.4408298-.0634014-.7240418-.1602135-1.4456631-.2591241-2.1659963-.5150059-3.7510758-1.1603123-7.4892714-1.5254422-11.2547153-.5653273-5.8301311-1.5537008-11.5253316-4.2669589-16.7951985-2.8441137-5.5239834-3.9462322-11.4679261-4.3279842-17.6009405-.131644-2.1150087-.1268583-4.2416539-.4748776-6.3434937-.110847-.6695455-.2802542-.835766-.9075839-.4246451-1.0989984.7202444-2.022316.2102351-2.0387715-1.1328532-.0192425-1.5696233.3184505-3.0113557,1.7414511-3.9758787.3113997-.2110567.6383222-.447474.7392759-.8805134ZM113.3135985,51.7966437c-1.6131827,1.6266402-3.1194379,3.3143945-4.3285393,5.2453503-3.5802473,5.7177629-5.8223697,11.903064-6.2807141,18.6599327-.8262724,12.1808643,3.1392689,22.5405205,12.1471206,30.8177793,4.7326983,4.3488256,10.2068488,7.4417259,16.613433,8.6957635.8198323.1604911.9696529-.1295787,1.0708175-.8057197.2419025-1.6165248.5226563-3.2278088.8197213-4.8353175.2794214-1.5120846.2974536-1.5084205-1.1819532-1.5149049-.1514861-.0006662-.3035273-.0012658-.454336-.0137462-1.2444885-.1029523-1.6607615-.7420074-1.2301871-1.9064614.1781235-.4816952.6015361-.9934367.5216459-1.4177487-.0898279-.4770983-.8464476-.4572896-1.2736798-.7348789-1.0178424-.6613955-1.0591032-1.5247205-.0650447-2.2324401.622966-.4434989,1.3235348-.7548209,2.0607566-.9245946.5511148-.1269249.6419309-.3458208.5324719-.8801581-.2001863-.9772366-.3274888-1.97235-.4327507-2.9655646-.467305-4.4088071-1.6510347-8.5517169-4.3853563-12.1426125-3.208966-4.2142503-5.2054552-8.9586184-6.4132908-14.1083558-1.5462392-6.5924913-4.814998-12.5215109-7.5067707-18.6696594-.0339325-.077514-.1081599-.1373845-.2133441-.2666634ZM151.9182028,176.4363984c1.8580387-.067221,3.6531423-.1595806,5.2585858-1.0812882,1.3853373-.7953046,2.5507462-1.7659567,2.3938749-3.613125-.0328666-.387226.0629351-.784312.0869188-1.1776006.1358189-2.2277988,1.1163533-3.9341959,3.1086675-5.0014048.9605479-.5145618,1.9365076-1.0006985,2.9103132-1.4900329,1.743794-.876294,2.9861506-2.2476964,3.8930017-3.9447443.3210043-.6007033.417561-1.2360942.3278441-1.9317331-.2532503-1.9636448-.7334576-3.8701283-1.4333825-5.7132771-2.1060592-5.5458574-4.6898607-10.8953148-6.7126209-16.4794795-2.0353072-5.6189189-4.6469787-10.9787248-7.6560138-16.1475049-1.6755292-2.8781129-3.4600289-5.6985982-4.9074463-8.703314-.6422751-1.3333393-1.32248-2.5715654-2.8013205-3.1525044-.3273778-.1286238-.5933528-.414452-.8861873-.6298169-.2562927-.1884943-.4738672-.5214238-.857529-.2395263-.3944989.2898699-.1104583.6436519-.0006107.8934379.8098724,1.8418163.3096676,3.3088205-1.2312086,4.4799588-.3884807.295244-.4989946.6265746-.4689039,1.0887942.0787576,1.2098454.1214731,2.4220003.1810993,3.6331114.3466536,7.0431743,1.4645724,13.8972325,4.6346538,20.3107231,1.5588529,3.1537924,2.7737504,6.4607252,3.285292,9.9700762.3538376,2.4275521.59081,4.8718483.9164778,7.3037974.6271631,4.6831986,1.4584211,9.3376611,1.9841642,14.0354054.0270039.2413251.0786688.4724126-.0404503.7094295-.4618531.919065-.8482353,1.8774588-1.4415769,2.7273485-.5076221.7271286-1.1870275,1.2032054-2.0521624,1.4016707-3.7015205.8490903-7.315978.8595942-10.8059755-.9350985-1.6149481-.8304807-3.3381228-1.4277419-5.1156939-1.8406394-1.950809-.4531146-3.8490759-.4160731-5.6371843.6130727-.2032509.1169872-.4861478.2123447-.4688928.4988391.0178545.2963988.3188502.3430338.5385677.4049473.9311124.2625773,1.8564286.570546,2.8056287.7397423,3.9342514.7012129,7.8821936,1.3262774,11.8136803,2.0419472,2.8007432.5098761,5.5828101,1.1230154,8.3783901,1.2287881ZM211.1490716,73.0828602c-.1580483-5.3488023-.8032103-10.6223446-2.4442296-15.7439677-2.0976427-6.5467779-5.8501619-12.1061817-10.1372294-17.3934258-8.101256-9.9912508-18.4163869-16.6899478-30.4690272-20.8922617-.6164482-.2149208-.8370984-.1139116-.7949714.535703.0136352.2101129.0051299.4288977-.0383295.6341806-.155983.7365778.1391722,1.0497651.8673667,1.2615103,1.6589405.4823725,3.2243001,1.2205603,4.7432911,2.0462109,5.6263805,3.0581795,10.5755763,7.042175,15.4090729,11.1977206,5.9368808,5.1041795,11.0468564,10.87454,14.7368625,17.8288857,1.0523967,1.9833869,2.0498529,3.9872488,2.4739428,6.2180566.6909088,3.6346104,1.1062268,7.2989007,1.3514825,10.9931706.6887102,10.3750458-1.1378054,20.3625213-4.8342738,29.9912515-2.3681701,6.1687901-5.9472294,11.7086738-10.116488,16.8384581-7.1562087,8.8048228-16.0135958,15.0582443-27.0953396,17.9522353-.742607.1939572-1.8598485.0652668-2.1249575.6997028-.2731479.6536896.4330394,1.5051338.6383666,2.2905117.1472112.563151.4524484.6104967.9414276.4486288.7751183-.2566036,1.561229-.4830943,2.3503156-.6937291,14.4725531-3.8633551,25.3560759-12.3672267,32.8155897-25.324675,4.0122541-6.9694466,6.7276996-14.4781382,9.2302229-22.0734265,1.7970245-5.4539864,2.659106-11.0607692,2.496905-16.8147408ZM81.2558609,73.213205c-.0421714,2.6423063.0807896,5.2736755.3511838,7.900781.7989687,7.7623083,2.6208542,15.284946,5.6107356,22.4816161,3.0814637,7.4171648,7.9851903,13.6112045,13.6269715,19.2390506,5.162451,5.1497041,10.8795588,9.5489177,17.5421248,12.6246742,2.5981362,1.1994302,5.3150363,2.009658,8.1196102,2.5639928,1.1162644.220628,1.00655-.7393203,1.2829291-1.259656.3668954-.6907977-.3877812-.601636-.6930406-.7202888-3.3052118-1.2851276-6.5354967-2.7336332-9.6614524-4.407186-9.1116812-4.8781551-16.7227921-11.4210024-21.9015321-20.4573569-5.5880066-9.750492-9.1573835-20.2135891-10.3041272-31.443399-.6753304-6.6134216-.1626007-13.1236799,1.6672904-19.5290205,1.6702772-5.8466754,4.6690526-11.0113916,8.0505238-15.9939647,3.1708919-4.6723282,6.7318967-8.9647809,11.4669934-12.1617884,1.9323549-1.3046699,1.9252153-1.3677493,1.3794413-3.6481679-.1482882-.6195794-.3530936-.7091297-.8977239-.329976-8.333565,5.8014728-15.1947517,12.9515967-20.167487,21.8568624-4.0458868,7.2454481-5.2502914,15.1471507-5.4724406,23.2838271ZM145.0923921,104.33037c.3733021.8674112.7319254,1.5566766,1.38466,2.0339526.9336662.6826921,1.7798584.4305744,2.2634523-.6180249.1649991-.3577793.1281241-.5390119-.2613892-.6618174-1.0590921-.3338845-2.121371-.6434743-3.3867231-.7541103ZM138.6491883,99.24983c-.1350195.9468572-.1300673,1.8756933-.00171,2.7973122.0828771.5950627.1687854,1.2012068.5330826,1.7123709.1437024.2016409.3303757.4014608.5863797.3693715.342945-.042993.2528617-.368461.2627217-.5847364.0725507-1.5920748-.4299193-3.0095125-1.380474-4.2943181ZM141.0306827,96.8060001c-1.2334849,1.6350678-1.0170096,2.9447787.7373883,4.461116.3742904-.8491569-.0163889-3.212719-.7373883-4.461116ZM136.8367853,103.2222777c-.3037827-.3873148-.6950615-.3685942-1.0697072-.3130764-.7812474.1157659-1.4070448.0306903-1.7801471-.8198434-.1469336-.3349726-.4837827-.7865105-.9982779-.5579324-1.0737156.4769651-2.1247909,1.0048956-3.2593207,1.5473496.7701772.2824083,1.4046798.182676,2.0201175-.1403048.3843502-.2017297.8474136-.4290643,1.1978535-.1385282,1.2393587,1.0274803,2.6283713-.0855641,3.8894818.4223355ZM143.0050646,107.3959555c-2.0854621,2.0365508-2.9539169,3.619343-2.6778821,4.7885715,1.4999262-1.1932122,2.2424999-2.7762487,2.6778821-4.7885715ZM144.0503328,102.5837334c1.0838864-.023473,1.9104697-.0672654,2.2066354-1.0578596.2459664-.8226415-.2553933-1.8574058-1.172182-2.3708794.293845,1.2919563-.1427586,2.3438533-1.0344533,3.4287391ZM132.4042832,106.6290317c.6898095-.0351317,1.1627995.029802,1.5567765-.2394375.4988613-.3409463.7689336-.8271052.4188712-1.3857038-.3469756-.553602-.8211759-.3472532-1.2362719-.0226069-.4022825.3146086-.8027884.6329037-1.1846514.9714961-.1452125.128757-.3646414.2775227-.2457443.523911.0923373.191359.3136537.1272692.4819617.1484326.1480106.0186096.3002073.0039085.2090581.0039085ZM141.4351304,104.2853117c.0166776.4652175-.0357091.9281255.5292074,1.0380731.3950651.0768811,1.2915788-.552958,1.3030488-.8847994.0132021-.3813411-.9030536-1.7458593-1.1259468-1.6326028-.5944409.3020172-.5451299.9762928-.7063094,1.4793291ZM138.5315681,104.9831046c-1.3139414-.4498058-2.3736442-.153407-3.3094312.6952614-.1708507.1549393-.443932.3114108-.2961989.5833595.1398606.2574919.4425329.1542953.6569651.1021751,1.048788-.2550713,2.0066822-.7101179,2.948665-1.380796ZM146.3886787,103.0476629c1.1050942.7486473,2.1743017,1.0061614,3.3289179.9755822.3786763-.0100154.4127975-.3375042.4234348-.5859356.0160891-.3759892-.2649979-.2150762-.4483956-.1715058-.4416335.1049066-.8234632-.1233163-1.2294987-.2097909-.6324817-.1347308-1.2606886-.2924681-2.0744584-.0083499ZM149.8392141,102.1829166c-.3208378-1.0154884-1.1881823-1.6295715-2.0946336-1.602923-.4257887.0125248-.6163483.2920129-.702512.5890557-.1158214.3992845.3176177.3704818.5282414.4333947.7152589.213655,1.4462071.3748344,2.2689042.5804726ZM139.59267,98.5050356c-.0334329-1.5748864-.281731-1.9068389-1.5956612-2.1631205.3369046.8668671.820865,1.5813376,1.5956612,2.1631205ZM143.4638309,108.5785083c-.3924336.993148-.7145816,1.8084168-1.0841418,2.7436486,1.2550924-.7011018,1.579239-1.4899885,1.0841418-2.7436486ZM47.706164,44.4132781c.323003-.4297194.2611283-.9269929.2619555-1.401593.005463-3.1349052-.5377239-6.2138817-.9950689-9.2986765-.879353-5.9311292-1.9987209-11.8276597-2.5611669-17.8040914-.1335871-1.4194475-.2021406-2.8445801-.004075-4.2634169.0522978-.3746346.1042848-.840052.5992987-.9167887.4839437-.0750157.6888601.3351503.87243.6720882.6995029,1.2839395.7618439,2.7371197.9768147,4.1310734,1.2508287,8.1110049,2.4455232,16.2306818,3.6627635,24.3468832.1662594,1.108603.3680613,2.2122871.7347179,3.2747103.1530072.4433435.2609784.932789.7994295,1.2628982.344827-.681504.2630603-1.3608762.1811104-2.0307992-.445009-3.6376639-1.2275056-7.2231854-1.6490306-10.8662568-.7347012-6.3497561-1.6111452-12.6845224-1.9073552-19.0776824-.0266264-.574621-.0388958-1.1474877.2792715-1.6760622.323708-.5377905.6804492-.5502265,1.0730382-.1070051.3930609.4437765.5420043,1.0093592.6928019,1.5630167.734568,2.6969358.9483673,5.4858759,1.4334824,8.2271927,1.2132264,6.8558237,2.2153628,13.7520533,4.0059139,20.4946205.1864845.7022455.3951318,1.4002494.7429179,2.0441457.1811215.3353279.4445427.6135168.8514165.5752206.4549023-.0427932.532866-.4375918.5912708-.80361.3079299-1.9297122-.0915323-3.811346-.4831998-5.6725492-1.6521951-7.8512924-3.2463629-15.7137105-4.6994598-23.6043539-.1204627-.6541226-.1820042-1.3197929-.2539221-1.9819434-.0427321-.3934107.0872685-.7258184.4657005-.9041862.4154013-.1957893.6988145.0600481.948384.3329406.6960497.7610944,1.0378954,1.7128483,1.2866876,2.677227,1.0508922,4.0734347,2.0954719,8.1491013,3.0789543,12.2391914,1.2114387,5.0381021,2.20628,10.1177094,2.6679611,15.2889766.2917742,3.2682147.381058,6.5412595.0390624,9.8058322-.2249084,2.1468537-1.2455322,4.0339726-2.2268161,5.9161172-.6997861,1.3422222-1.4168049,2.6743956-1.9575544,4.0937765-.5577047,1.4638618-.791496,2.9564819-.731248,4.5344551.0971174,2.5432957.0401727,5.0903111.1612794,7.636305.296954,6.242862.999094,12.4434305,1.9315887,18.6162401.9089718,6.0171264,1.7427614,12.0510747,3.0601504,17.997549,1.1854675,5.3509897,2.9303219,10.5561228,4.2461064,15.8745124,1.0209292,4.1265987,1.775528,8.2905719,1.8386407,12.5587633.0655222,4.4307033-1.2485524,8.4253915-3.8779008,11.9601031-2.3930477,3.2170161-5.2289281,3.5676226-8.2307292.8861762-4.4996343-4.0194492-6.6169803-9.0754391-6.1115012-15.1631731.3481026-4.1923984,1.6418576-8.1845106,2.5564201-12.2544588,1.9114358-8.5062255,2.3256101-17.0877777,1.6076753-25.7538059-.4478571-5.4058969-.7919568-10.8209653-1.2180565-16.2276283-.3542095-4.4944267-.0773197-8.9698219-.0067454-13.448093.0563173-3.5742847-1.1067043-6.5691738-3.3121515-9.2647217-.4989002-.6097527-.9514874-1.2587899-1.4688584-1.8518207-2.8107197-3.2217018-4.2115632-6.9827486-4.6193308-11.22478-.6173809-6.4226844-1.4264927-12.8267148-2.0909195-19.2452131-.39612-3.8265579-.6837858-7.6646302-.9917989-11.4998155-.0728339-.9068622-.0108537-1.8213191.3559972-2.6801583.1571267-.3678503.3510117-.7606725.7894641-.7992241.4906169-.0431041.6323874.4173722.7911296.7601173.6751028,1.4576882.7561589,3.0496186.9637236,4.6050405,1.1860449,8.887922,2.6686384,17.7263664,4.3660916,26.5298124.0681759.3535489.0818944.729638.4832386.916922ZM41.06847,13.8502925c-.0116588.2252804-.0472013.4522708-.031362.6755969.2036284,2.8714396.2815866,5.7595235.649287,8.6101217.9995881,7.7491506,2.2016498,15.4725853,3.1637856,23.2260219.4901006,3.94953,1.9569882,7.3334217,4.7022079,10.1908597.6294227.6551552,1.1914578,1.3745114,1.8071177,2.0435017,2.5355732,2.7552407,3.5660514,5.8983181,3.310969,9.7200904-.4180717,6.2636146-.0899445,12.5455723.4758436,18.8013811.6280015,6.9437307,1.2238747,13.8888049,1.3094444,20.8650468.0171772,1.4005825.17673,2.7004779.7943774,4.0178058.8571515,1.828159,1.3446372,3.8190741,2.1180788,5.6966661,1.4408219,3.4977145,3.1111213,6.9012928,4.3488755,10.4816401,1.2236304,3.5395083,2.1965256,7.1264289,1.7399355,10.9359761-.4114207,3.4327141-2.5357619,5.2506578-5.9703581,5.1149277-3.3419535-.1320881-5.5232283-2.0564706-5.8384588-5.1899435-.1402104-1.3937427-.09664-2.7898172.2418469-4.1570224,1.1163755-4.509139,3.560805-8.392103,5.8847052-12.3242115.3184338-.538812.3960034-.9439148.156144-1.4933418-1.235156-2.8292349-2.4020638-5.6863398-3.4219492-8.6015608-.0285306-.0815446-.0536025-.1642663-.0802844-.2464549-.1863735.2416138-.2192789.3807415-.2224823.5205355-.1433249,6.2602169-1.4445194,12.3145736-3.2362586,18.2833661-.5314392,1.7703982-.9971342,3.5577182-1.1739808,5.405908-.4154513,4.3418969,1.3494339,7.9754081,3.7326883,11.3976405.6608347.9489336,1.4596702,1.7813241,2.418647,2.4456731,1.8421495,1.2760893,3.613497,1.0741375,5.1041406-.5937525.7143706-.7993018,1.2221481-1.7295148,1.6449944-2.7068513,2.2579339-5.2189016,2.5512348-10.6028023,1.3577005-16.1146605-1.1345631-5.239532-2.6625314-10.377644-4.0150133-15.5606366-2.3664546-9.0688214-4.120253-18.2460359-5.2044336-27.5569152-.652396-5.6027632-.969081-11.2296101-1.4010989-16.8490509-.4041701-5.2573199.1607631-10.2658199,3.0791097-14.8442119.9402006-1.475032,1.5060887-3.1702368,1.8587049-4.9050591.8412622-4.1388348.4287256-8.2757931-.1166097-12.3959294-.9914159-7.4904595-2.8011318-14.807237-4.8471595-22.0689518-.0625742-.2220715-.0440201-.5047684-.3593116-.6751972.0194313.1947234.021069.3441331.0506045.4878133,1.2308922,5.9889233,2.4741204,11.975315,3.6927043,17.9667255.5139789,2.5270623.7963427,5.087402.9549406,7.6602887.0752545,1.2207602-.7351287,2.3642506-1.8208361,2.6155911-1.0691686.247532-1.8225183-.2571699-2.3399226-1.6305709-.2767843-.7347012-.5340264-1.4837261-.7150812-2.2464528-1.692984-7.1320584-3.0950767-14.321178-4.1964179-21.5689246-.2166585-1.4257766-.4787639-2.8446467-.7199113-4.2667146-.1616514.2659639-.1566048.5060232-.1373401.7449498.5652385,7.0115735,1.6156588,13.9573917,2.7980117,20.8869542.370987,2.1743129.9443756,4.3274512.8334731,6.5662425-.0351262.7091741-.1482216,1.3930543-.5833096,1.9722056-.5082772.6765296-.9960794.7066314-1.5767963.0917932-.706748-.7482698-1.0815325-1.6701995-1.2965643-2.6625148-1.6690725-7.7022491-2.7753992-15.497535-3.8539504-23.2975955-.2892203-2.0916023-.6017915-4.1799846-.9036421-6.2698326-.2281951,1.7671226.0931867,3.4898975.2963266,5.2156038.8569793,7.2804688,2.2968574,14.4785934,3.1034321,21.7664571.1760583,1.590809.4782809,3.1870476.1148498,4.7904147-.0986775.4353489-.1908704.9443367-.7839845.9685869-.6151435.0251607-1.1369115-.1918809-1.4138069-.7891976-.1009592-.2177855-.1539066-.4585332-.2217939-.6908421-1.3278097-4.544093-2.1888308-9.1888177-2.8906377-13.8605796-.6251201-4.1612529-1.463129-8.2937142-1.768022-12.5007139-.0996435-1.3749777-.1021973-2.7636794-.602169-4.0986954ZM60.3981425,122.5336571c-1.4992933,3.3793726-3.3777792,6.2917288-4.722694,9.471548-.8802025,2.0810984-1.4774526,4.2273081-1.3268992,6.5285237.1936352,2.9596797,2.3189758,4.9168178,5.3569856,4.8978529,2.917897-.0182099,4.8789546-1.9162991,4.9898127-4.8962317.2118673-5.695045-1.8398899-10.7863665-4.2972051-16.0016928ZM234.4741484,27.9988433c.1566714,4.7271465-.4020382,10.1945683-.6130949,15.675059-.2332861,6.0574768-.4298415,12.1165524-.7019235,18.1722637-.2420579,5.388009-.8506226,10.7643704-.6964161,16.1641714.2085029,7.3007328.5203135,14.5984898,1.0010094,21.8879191.3469423,5.2612617.7962817,10.5095656,1.4991823,15.7389933.4946864,3.680235,1.5741536,7.2096613,2.4827812,10.7858114.8605269,3.3868564,1.5233881,6.8020047,1.3658062,10.3214599-.1943125,4.339654-1.4225454,8.351575-4.0015502,11.8751163-1.6781053,2.2927547-3.8054611,3.881565-6.8415778,3.84479-1.1533726-.0139683-2.1228034-.4305522-3.0230811-1.0806664-1.9558056-1.4123745-3.1621201-3.3953395-4.163729-5.5271812-2.1913124-4.6639006-2.5139379-9.5442764-1.7290485-14.569354.6504029-4.1640621,1.7500786-8.2290359,2.6325462-12.3417329,1.1173304-5.2071984,1.5142165-10.494609,1.6138822-15.7996966.1451459-7.7272988-.0302461-15.4574067.1720388-23.1861489.1439467-5.5000996-.8170009-10.7961488-3.3681135-15.7360731-2.9756466-5.7618552-3.4989581-11.939084-3.2681814-18.2953801.2649979-7.2996113.5067449-14.5998333.8692099-21.8953141.2648424-5.3304481.6321931-10.649404,2.355401-15.7628993.6696343-1.9871177,1.503868-3.9016514,2.6996784-5.6328039,1.0006318-1.4486222,2.2629305-2.4812045,4.1395898-2.6182948,2.1919786-.1601246,3.8419252.6946451,4.7917471,2.6991621,1.0901933,2.3008381,1.4960733,4.7884605,1.8362424,7.2800413.7806034,5.7177074.9643676,11.4709018.9476012,18.0007579ZM232.7209386,46.628119c.2527395-6.6334968.5292629-12.6599946.6998582-18.6894904.2009303-7.1026228-.027448-14.1843043-1.5350912-21.1658371-.3057258-1.4157001-.5306842-2.870357-1.3357821-4.1234674-1.1687621-1.8191595-3.1615205-2.1302872-4.79077-.7380823-.4577337.3911511-.8790033.8392525-1.2527718,1.3120038-1.865045,2.3586766-2.8839089,5.1148444-3.5071969,8.0023509-1.1294555,5.2321926-1.3535922,10.5734333-1.6298713,15.8951984-.3158745,6.0841364-.4598656,12.1770558-.7015016,18.265245-.2337968,5.8903014-.0034643,11.6906194,2.6677223,17.1397091,2.0222716,4.1252884,3.5783264,8.413977,4.0049701,13.0367278.052853.5729.3489409.535814.7417853.4022158,1.2660516-.43053,2.5706993-.4029043,3.8700617-.2679181,1.4242776.1479551,1.4212796.1775017,1.5206566-1.2403469.0063735-.0907162.0117254-.1815101.0166998-.2723262.5150281-9.382886.977492-18.768137,1.2312308-27.5559825ZM229.7501331,110.0648105c.1463895.1182975.2218272.1479662.2303991.190937.1003763.5040134.2267572,1.0064057.2781445,1.5160819.4780755,4.7415812,1.2803086,9.4160301,2.7433821,13.9661191.620823,1.9307116,1.1320093,3.895822,1.5278073,5.8869814.5410993,2.7219522.8933935,5.4554521.1001542,8.1883524-1.1103795,3.8254253-4.0642188,5.6237157-7.5704386,6.7901461-.3574684.1189415-.6466499-.0983332-.9316564-.2634212-1.3574341-.7861774-2.3300183-1.9202298-2.9608567-3.3469279-.5956845-1.3470633-.8581286-2.7714075-.9264155-4.2358578-.1871618-4.0140084.6750751-7.8889113,1.5460171-11.7649467.6963495-3.0991406,1.645483-6.1495587,1.9324215-9.3300219.5209353-5.773836.4598656-11.5689686.5440751-17.3572503.0201641-1.3856482-.0527198-2.7815118-.0981112-4.1706687-.0807452-2.4715555-.9954576-4.9632307.0643785-7.4344198.1073493-.2502523.219873-.7380434-.2703942-.8033991-.400306-.0533527-.536991.3227476-.6048339.6626057-.0292024.146334-.0159669.3018506-.0159447.4532035.000755,5.3965477.0383073,10.793384-.0060181,16.189543-.0491666,5.9875798-.7287497,11.9045408-2.0871609,17.7464639-.9393623,4.0399464-1.8471461,8.0860885-1.9659543,12.2694042-.1445907,5.0919655,1.5750641,9.5709916,4.3455833,13.7101817,1.1729371,1.7523438,2.5303711,2.1787876,4.5799353,1.6785272,2.3725672-.5790736,3.9906243-2.0891595,5.0925429-4.1979058,2.6957478-5.1587424,3.149462-10.6300726,2.1060592-16.2614942-.6007255-3.2424211-1.7936713-6.3435381-2.3573553-9.6075668-1.2381595-7.1695996-2.3625073-14.3457502-2.6568186-21.6329256-.1283795-3.1780315-.4323287-6.3491343-.671855-9.5222247-.0208081-.2756462.1393498-.7648919-.4584221-.654378-.8333232.1540843-1.2712703-.3073025-1.4830377-1.0068942-.2285337-.7550541.0844982-1.3648957.6952169-1.8239729.2397262-.180211.5659491-.2791327.7402752-.5027698.1624453-.2084474.5103869-.6560213.0041527-.7770614-.7795153-.1863957-.5360139-.7418631-.3737685-1.0454347,1.0478442-1.9605802.4711246-4.0460755.5576437-6.0784514.0151453-.355603-.1115909-.5220789-.4838937-.6186911-1.5725103-.4080452-3.1039595-.4040035-4.6342096.2119228-.5294628.2131109-.7340128.4842157-.7225761,1.0643885.0430152,2.1811082.2055494,4.3904196.0274036,6.5360186-.1498982,1.8055854.5865352,2.5030119,1.9635559,3.0580907.0840985.0338881.1625563.0818555.2468769.1150108.3107002.1221393.4434101.329332.4837605.6804603.5644168,4.9102667,1.0938574,9.8248637.9033867,14.7773572-.110636,2.8770469-.3601777,5.747143-.0196089,8.6264106.2170527,1.8350876.4067461,3.6754827.5355253,5.518587.3800531,5.4386413-1.0457345,10.5024038-3.3108191,15.3724089-.5652385,1.2152417-1.045779,2.4437633-1.3067129,3.7612245-.6134724,3.0975417-.0673987,4.4454711,2.5214439,6.2311255.3667066.2529394.8577288.4131862,1.0109359.9490224-.9860195.0494331-1.7180559-.2659528-2.5921514-.9855754-1.8618694-1.5328705-1.9617794-3.582679-1.6973811-5.7267346.3157634-2.5605729,1.3184605-4.9139975,2.4128065-7.2059971,2.1071473-4.4131153,2.5281726-9.047236,2.1396586-13.8375841-.3134983-3.8650651-.7480255-7.7316625-.4221134-11.6191568.2718599-3.2425099.2475875-6.4817443-.0391512-9.7182028-.15223-1.7184667-.3271113-3.4419412-.9805344-5.0654058-.0965123-.2397928-.1596694-.6260639-.455624-.6139499-.3652854.0149565-.3556697.4291531-.4172945.7045106-.2468991,1.1032955-.2498304,2.2240236-.1988872,3.3468058.2404812,5.3000465.3659072,10.602769.4770095,15.9073235.1266029,6.0459179-.6048783,11.9601253-2.1296654,17.8032476-.9953021,3.8140331-1.8573613,7.663753-1.5517466,11.6578416.1592919,2.0819866.6650818,4.0656178,1.8067068,5.8405018.9382297,1.4586098,2.0073484,1.8140796,3.5741293,1.0887498,2.7322785-1.2648525,4.5831998-3.3286959,5.3415739-6.2824241.6831585-2.6607715.323758-5.3043103-.2677516-7.9199569-1.0276801-4.5444705-2.6036103-8.9561645-3.2859471-13.5858439-.3620209-2.4563547-.7870657-4.9055143-.5778522-7.5020406ZM231.647645,87.1239173c-.0329998-.2973759-.1221171-.6578645-.4184493-.6051225-.4032374.0717513-.6360127.442755-.6440295.8717193-.005685.3052705.1335094.7344237.4087447.6929185.4535366-.0684424.5524472-.5637728.653734-.9595153ZM261.7264481,58.3360266c-.3130319,14.9783541.3367936,28.0030567.5864685,41.0344881.1691963,8.8312493,1.5717774,17.4753812,3.8366621,26.0013489.7932393,2.985973,1.3620309,6.0347477,1.4777302,9.133422.2115453,5.6658204-1.6992465,10.5214353-5.785095,14.4717314-1.8999324,1.8369086-3.2099987,1.9361745-5.3441277.3246019-2.7330558-2.0638656-4.2248653-4.9451541-4.9597664-8.226038-.8287485-3.6999327-.1927802-7.3203417.9728285-10.8247183,2.7620805-8.3041183,3.3098642-16.8384803,2.9180635-25.4919614-.3591118-7.9324484-1.1183741-15.8413461-1.3795968-23.7800569-.0960903-2.9197624-.6716552-5.7510625-1.6146594-8.5323856-3.1663394-9.3391046-4.1349485-18.9600845-3.4932064-28.7673934.5442972-8.3180755,2.4496037-16.3286264,5.5208744-24.0662515.5354143-1.3489398,1.1383383-2.6817128,2.01974-3.8515631.9545076-1.2668733,2.2216696-1.6651252,3.6906946-1.2595672.7861108.2170082,1.2394253.6950948,1.3971182,1.4925757.1662205.8405849.1550059,1.6886759.1550947,2.5368223.0016655,13.9145319.001177,27.8290637.001177,39.804945ZM260.6618375,46.1379518c.0504324-.0000333.1008427-.0000666.1512751-.0000999,0-9.1802569.0004664-18.3605248-.000755-27.5407817-.000111-.8505559-.0837209-1.6921846-.3026168-2.5172245-.1139005-.429353-.2922461-.7645365-.7903968-.8865537-.5136069-.1258035-.712161.2186405-.9576166.5151725-.8561521,1.034309-1.5183026,2.1949766-2.058225,3.412761-3.4577194,7.7990389-5.4897622,15.9478626-5.8823401,24.4820581-.2611116,5.6763577.1306224,11.3220806.9263711,16.9429538.6761632,4.776191,1.6085081,9.4845281,3.5583844,13.9399702.251074.5736994.5170934.716769,1.0826872.5633176,1.0919698-.2962766,2.2124536-.477387,3.3142834-.1190969.8332566.2709716.9794684.022085.9769812-.7960818-.0283585-9.3320649-.0180322-18.664252-.0180322-27.9963946ZM257.3383159,97.0043432c.1526963,2.567557.3102116,5.1348475.4571119,7.7027265.2843847,4.971514.323869,9.9307474-.5261539,14.8669076-.6852681,3.9792764-1.8529643,7.8336377-2.9320984,11.7099396-1.2101563,4.3468269-.9872409,8.5669843.8962138,12.6772163.6259306,1.3659394,1.4561004,2.5921736,2.7112706,3.470111,1.5964274,1.116642,3.0323193,1.0757586,4.2018143-.3519611,2.5585298-3.123524,4.1405669-6.7244129,4.2990594-10.7756183.1900932-4.8590126-.9499995-9.5681713-2.099175-14.2493712-1.4250104-5.8049926-2.5380104-11.6498692-2.8830873-17.6358279-.2898699-5.0278757-.2619999-10.0605148-.4181828-15.0898007-.0094158-.3028722-.016833-.6062773-.0418383-.9080613-.0359312-.4336056-.2310876-.6750306-.7128272-.5696355-.8802247.1925804-1.3868807-.1929468-1.6055989-1.039461-.0470792-.182243-.0066177-.4950639-.3147419-.4606428-.2450781.0273814-.2915798.2768232-.2968207.4959744-.0072173.3028056-.0174992.6068103.0004219.9087164.1385504,2.3349371.5782741,4.6278029,1.0259258,6.9153277,1.0065389,5.1433307,1.9875619,10.2851512,2.3198696,15.5322337.395265,6.2408523,1.2807306,12.4035576,3.0417795,18.427979.730815,2.5000584,1.2212598,5.0674044,1.3568345,7.679831.1741707,3.3565214-.8542867,6.2302595-3.6272265,8.2839542-2.349072,1.7397745-4.6882174,1.2928335-6.3373423-1.117508-1.1576364-1.6920513-1.5389997-3.6196317-1.5642492-5.6089923-.0530973-4.1861138.7544656-8.1743841,2.8179759-11.8792247,2.2211144-3.9877818,3.1636523-8.2633238,2.3598203-12.7956026-.952731-5.371709-1.424322-10.7971592-2.1287549-16.1892099ZM257.1823329,86.7709569c.1814102,2.1375489.3952428,4.2729437.5380792,6.4130798.4161841,6.2350784,1.4087104,12.3975284,2.327198,18.568206.387648,2.6042765,1.0057395,5.1725775.6852459,7.8436309-.472346,3.9367498-1.449949,7.7244673-3.0577465,11.3566017-.7499576,1.6942054-1.3165951,3.454144-1.2228365,5.355209.1228944,2.4924191,2.553511,4.3390988,4.9697374,3.7377959,1.8313124-.4557795,2.3786741-1.9414154,2.6490683-3.547725.4814732-2.8603471.1490766-5.6856958-.6204233-8.4552601-1.2612771-4.5396738-1.9472337-9.1759487-2.4699233-13.8460672-.40095-3.5827456-.6479379-7.1821688-1.1774673-10.7509461-.8255729-5.5637231-2.1139871-11.0567163-2.6209319-16.6745249ZM259.0342757,124.60474c-.1916255.1392388-.2515404.1617569-.277656.2047943-2.4773849,4.0829394-3.8318432,8.470361-3.5427061,13.2866026.102064,1.699735.3544261,3.3785953,1.3018052,4.8540604,1.2931666,2.0138995,4.113874,2.3285082,5.8389251.6665475,1.5890768-1.5310051,2.6879531-4.7507749,2.388734-6.956522-.1970662,1.082021-.5807835,2.1203606-1.2842393,3.0117777-.8214868,1.0410044-1.8910052,1.5665366-3.242621,1.481461-2.6591948-.1673531-4.4685443-2.0488536-4.5348548-4.7122011-.0593597-2.3861801.7312591-4.5819118,1.5039124-6.7795977.5785406-1.645483,1.1963434-3.2771531,1.8487006-5.0569227ZM257.0872641,85.9260304c.3307755-.8048314.7739857-1.2897134,1.4800397-1.5373119.6502475-.2280452,1.2562361-.4836606,1.7973354.2093912.5683253.7279614.1586923,1.2152861-.3600223,1.7055755-.2181408.2061712-.438147.4396571-.3170736.7861885.0584492.1673197.2146321.2155204.3717254.1768466.3438333-.0846759.6428525-.2798878.7008576-.6350023.0825218-.5054902.0988218-1.0235163.1184085-1.5371454.0212078-.5571662.1266029-1.1064711-.5421653-1.477708-.3542706-.1966332-.3399692-.6826699-.0526531-1.0505646.2645982-.3388366.5050349-.6973377.5063674-1.14087.0039973-1.3314295-.0044636-2.6630366-.023584-3.994344-.0089495-.6246648-.3010401-1.0761805-.8610377-1.3879245-.6052114-.3368713-3.285081-.3415459-3.7933582.0472346-.0822553.0629128-.163378.1986207-.1571156.2949664.0682204,1.0498873.1538955,2.0986309.2542052,3.3981709.1874727-.4970182.2731479-.7519784.3794535-.9980447.1032632-.23896.1438357-.6123177.4792524-.5698687.3608217.0456468.25365.4148739.2770786.6713998.0183209.2005083-.086408.4201148.1128345.616426.5867572-.207337.3965752-.8119044.5991488-1.2091458.1507643-.295666.2938894-.5627291.6764075-.3576461.3098119.1660984.5648832.3857603.3483191.7941054-.090583.1708063-.342523.2716822-.2091025.5905436.683536-.1631892.8565074-.9333442,1.3910113-1.2620544.6318377.9915602-.3006181,1.5090089-.6088311,2.1877704.3078577.2618778.7913961-.28977.9363421.2851398.0505657.2005416.1628672.4277541-.0469015.5872458-.2905361.2208945-.6179361.4323065-.999255.2816421-.3234915-.1278243-.4773426-.4280205-.6247981-.7417964-.118142-.2513516.0226513-.6303943-.3436334-.7672347-.3612215.2007415-.4376807.5797842-.60721.8927828-.1728604.3191056-.3079687.731026-.7489804.6756969-.5532689-.0694306.2459664-.5914985-.3179397-.7858332-.6573538,1.7162349-.0406613,3.3794725.1848745,5.2513684ZM11.1767759,136.8206472c-.041358-3.5481913.639663-7.0042229,1.5521907-10.3954097,1.6485642-6.1264633,2.249287-12.3845261,2.6509754-18.678298.3651299-5.7210052.4830082-11.4480618.3872732-17.1796043-.0719178-4.3057992-.3347561-8.6004171-.7382821-12.8877067-.3262119-3.4658472-1.9809358-6.1066767-4.8702522-8.0100735-2.7236927-1.7942819-4.9410402-4.0816958-6.6742886-6.8475848-5.3779547-8.5820851-4.4439416-20.6187807,2.20301-28.2559628,4.5172085-5.1901655,12.2899542-5.7242252,17.7414145-1.1889928,3.6178274,3.0097679,5.5823215,7.0348799,6.7877699,11.4668824,1.4629624,5.3788041,1.5055502,10.7167027-.7992519,15.916706-.7545655,1.7023888-1.7839168,3.2330608-3.0388926,4.6096041-.4288644.4704362-.8290428.976526-1.3080454,1.3902451-4.015735,3.468401-5.5196807,7.9010919-5.4029877,13.1234023.1240935,5.5529415.4972513,11.0806557,1.0878282,16.596378.7417964,6.9279858,1.6884038,13.8292342,2.8339373,20.7031234.7471372,4.4832454,1.9477944,8.8689127,2.8235332,13.3239106.714676,3.6356653,1.3153571,7.2895182.832607,11.0083048-.4448536,3.4269181-1.9215511,6.3593718-4.5287923,8.6602321-1.3775759,1.215708-2.8781351,1.4932974-4.5925324.5462292-3.7377265-2.0647761-5.5960456-5.3991126-6.5345695-9.3850956-.3490214-1.4823493-.4214028-2.9975651-.4126449-4.5162897ZM30.1997816,51.7693733c.026532-1.9673756-.2505133-4.0987731-.8100057-6.1845349-1.1248808-4.1935532-2.914305-8.0315478-6.210695-10.9940034-5.3137927-4.7755026-12.9270272-3.8034958-16.8758605,2.1367606-.8229191,1.2379263-1.5384084,2.5415413-2.1037719,3.9156085-2.9319818,7.1259403-2.8810525,14.1058131,1.2047988,20.8088294,1.8396789,3.0180623,4.4304535,5.378793,7.2456868,7.4590253,2.327928,1.7201656,3.6949889,3.991024,4.2261727,6.7632754.8064387,4.2087873.9591128,8.4849067,1.0759946,12.7554076.1759472,6.4280474-.0509876,12.8512093-.3933996,19.268897-.243654,4.5666777-.4569204,9.1407503-1.445713,13.6308578-.7940082,3.6055968-1.8430072,7.1551205-2.4212119,10.8075744-.5093154,3.2172604-.8510528,6.4392509.2526452,9.6174712.9455609,2.7228627,2.1195056,5.3409965,4.5492506,7.0623391,2.1686833,1.536357,3.1029269,1.1969874,4.5933374-.4035927,2.1635035-2.3234672,3.0837455-5.1712228,3.2201973-8.2885511.1737931-3.9704158-.5621906-7.8424983-1.3648346-11.7023669-.9365365-4.5037204-2.1080523-8.9575636-2.8153666-13.5102286-1.2838507-8.2636791-2.3669599-16.5520192-3.007314-24.8917133-.3457264-4.502499-.6244039-9.0107164-.2593739-13.5316251.2366505-2.9309214,1.2095955-5.5483002,3.1639466-7.7656172.9415608-1.0682526,1.9032469-2.1203384,2.889755-3.1471413,3.6553796-3.804695,5.3119606-8.3791451,5.2857617-13.8066718ZM63.7365151,146.396058c-3.3106415,2.5404754-6.6977477,1.906639-8.6952028-1.7438384-1.8864194-3.4475485-2.4726881-7.1136154-1.4723727-10.9793689.7434453-2.8731162,2.1658686-5.4477018,3.4779945-8.0715428.7331856-1.4661158,1.29637-2.9988087,1.845314-4.5381415.0540855-.1516526.2082198-.3458319-.0093936-.4844045-.1940183-.1235384-.3372655.0283807-.4695701.1520523-.3386423.3165629-.6265635.6979484-.7377214,1.1308767-.4820394,1.877481-1.5594136,3.4678458-2.4075268,5.1703568-1.9293958,3.8730819-3.3315661,7.8809167-2.7517875,12.3091772.3786096,2.891748,1.3957969,5.546346,3.5232027,7.6057479,2.5666854,2.4846244,6.8892732,1.9592922,8.641406-1.0210846-.4833941-.0130134-.692169.2766788-.9443423.4701697ZM47.9987931,49.7499553c2.0387549.8141362,4.1401117.8387195,6.2461098.3811746,1.2672786-.2753242,2.5332969-.6294061,3.5869594-1.4487498.3376264-.262544.6827865-.6732319.3640473-1.0814103-.2822473-.3614657-.5847475.1062501-.8225971.2534724-2.2118207,1.3690484-4.569176,2.0009306-7.186638,1.6577302-.8485795-.1112467-1.7022666-.402771-2.6209707-.2129554.0835766.3304201.2734977.3869928.4330893.4507385ZM59.8501145,111.9913026c.0856363,3.8917803,1.1700279,7.4888051,3.1445153,10.8230972-.7977307-3.6816118-1.8987999-7.2736845-3.1445153-10.8230972ZM229.7362314,80.8709399c.2059491.1342755.3178509.5352033.6471607.3232139.2425909-.1561607.2470101-.4652286.2284671-.7474037-.0142348-.2162199-.0588711-.4143743-.1954673-.5915984-1.0031634-1.3016941-1.4732887-1.3882021-2.8742932-.4868362-.3025724.1946567-.5946186.4210253-.8438716.6788614-.2505632.2591685-.4743447.5709791-.4268436.964734.0203195.1683302.0849201.3832287.2064376.4753218.1847857.1400494.3184061-.0822442.4341719-.1991759.2552934-.2577695.4832497-.5424762.7364334-.8024664.3334181-.3423787.6224441-.5472285.7391427.1772908.0554735.3443329.1766356.7841566.6216891.781414.4652619-.0028758.2148764-.5410882.4482068-.7955488.0963124.0776584.1816989.1588921.2787663.2221936ZM233.8952081,119.6244764c-.2924903-3.4412417-.5849807-6.8824834-.877471-10.3237251-.0815002.0064401-.1629783.0128579-.2444785.019298-.2253581,3.4824137-.264687,6.9500597.6759189,10.3397364l.4460305-.0353094ZM14.9156656,139.7051335c.4166644,2.2546916,1.1336887,4.3710993,2.9225688,5.941078,1.2568246,1.1030068,2.7127307,1.2939882,4.2407489.6347691.8032658-.3465425,1.5626392-.7948604,2.3174712-1.1846402-.9751658,2.1793872-4.1699637,3.1917444-6.2883423,1.9406604-1.6173715-.955196-2.5668158-2.4689906-3.2355702-4.1553125-1.5704395-3.9600228-1.3767987-8.0091185-.4676964-12.0686072.3439832-1.5360017.7680675-3.0585015,1.5859734-4.4269059.2078145-.3476751.5205161-.9563508.8607379-.7771835.4321094.2275566-.0057517.7557758-.1673586,1.0924362-1.1803404,2.4588419-1.9159716,5.0334053-2.0896426,7.7576004-.0457217.7172242-.0068953,1.4398004-.0068953,2.342743.3738185-.6255975.2632963-1.1877715.3421927-1.6932949.4665916-2.9895039,1.4753679-5.8227583,2.7070845-8.5482192,1.4864576-3.2891449,1.9509478-6.5459341.7789323-10.0251944-.4314293-1.2807306-.5876233-2.6631255-.478614-4.04119.0156061-.1973105-.0617192-.5037247.1911036-.5492049.3321467-.0597372.3382426.2862945.3782821.4973068.3497404,1.8433264.7155753,3.6844988,1.0155273,5.5362195.7921955,4.8904357,2.3633623,9.5680603,3.7933527,14.2891886.7462545,2.4637497,1.307468,4.9934324.8495788,7.6086793-.4073124,2.3263541-1.8537194,3.4674905-4.2161712,3.312196-2.3615274-.1551613-4.0188607-1.3483735-5.0332637-3.4831244ZM19.5299526,123.0393804c-.5290742,2.0853843-1.2094678,3.8942675-1.8522037,5.7160086-.8960389,2.5396759-1.7458815,5.0880349-2.0256582,7.7935982-.2720514,2.6309029.7758039,4.696212,2.8773412,5.5062843,2.4604297.9484672,4.5742947-.3252237,4.8561589-2.942669.1438579-1.3359375.0072784-2.6606161-.258147-3.9724144-.7935668-3.9220264-2.3003939-7.6382592-3.3241934-11.4940639-.0364086-.1371291-.1164432-.2626883-.2732978-.6067437ZM21.3634635,40.5443157c2.868747,3.1067132,4.3451614,6.8223908,4.6604529,10.9874634.384861,5.0841264-1.4285858,9.3770899-4.9998891,12.9510526-1.273652,1.2746125-2.8556281,1.7331124-4.5977149,1.273591-2.3158251-.610852-4.282268-1.7509447-5.6118709-3.8670193-1.1314819-1.8007553-1.9990568-3.7338319-3.0175488-5.5897942-.1229277-.2239924-.2350071-.5899218-.5684141-.456912-.3291738.1313331-.1842999.4708137-.0901916.7119278,1.1515905,2.9502195,2.4693348,5.8050592,4.8805313,7.9810265,3.55014,3.2038029,7.6017618,3.0195058,10.6714168-.6230326,3.125667-3.708971,4.8215658-7.9617507,4.1936975-12.9096474-.4769984-3.7590482-1.6994241-7.2383418-4.1507656-10.2013193-.5575881-.6739869-1.1926126-1.2697936-2.2055916-1.601957.1861514.6292395.5123133.9942029.8358881,1.3446205ZM22.1898303,120.4080112c-.8299699-3.215395-.7658967-6.586773-1.4820439-9.8217769-.1494763.0280032-.2989526.0559842-.4484234.0839652-.5402721,6.8930096,2.3366249,13.1025942,4.1620579,19.5274771-.5428093-3.3036906-1.3941147-6.5451568-2.2315906-9.7896654ZM16.2128627,69.7446596c-.2058714.6824589-.0260129,1.2603111.4639184,1.7424616.5624293.5534687,1.246229.7307151,2.0078953.5237778.4026045-.1093813.4368645-.3878811.0529918-.5076443-.4731066-.1476109-.309068-.3887805-.2527562-.6866228.215376-1.1392155-.2179076-1.6766174-1.4154558-1.7139476-.4658421-.1051397-.7154532.174104-.8565935.6419753ZM17.6493626,72.5657334c-.7106093.0479563-.5310589.7610944-.5696883,1.2075136-.0560175.6473938.3076328,1.2203715.9586076,1.1875938.7026619-.0353871.5005269-.8043651.6793166-1.2777992-.0886121-.6396436-.3986349-1.1624886-1.0682359-1.1173082Z"/>
  </g>
</svg>