<?xml version="1.0" encoding="UTF-8"?>
<svg id="Layer_2" xmlns="http://www.w3.org/2000/svg" viewBox="0 0 171.7067817 150.8432522">
  <g id="Layer_1-2" data-name="Layer_1">
    <path d="M11.405306,27.8497472c-2.9653826-4.5943196-5.678914-9.3103614-6.9404896-14.7055169-.6258514-2.6764698-.9033979-5.397088-.4454169-8.1201234C4.3823962,2.8658149,5.1077676.68864,7.5024173.1246434c2.2978426-.5411938,4.1048426.7511033,5.5140431,2.5016376,3.1787212,3.9486648,5.8330375,8.2515568,8.4229721,12.5959882,4.2176615,7.0748157,7.9722089,14.4091576,13.1123858,20.9426514,8.2985126,10.5479333,18.3599103,19.0106524,29.543016,26.2751688,3.3992442,2.2081313,6.7849731,4.4509986,9.6139265,7.4263819,2.7162351,2.8568494,4.4242486,6.0885403,4.5114238,10.1258891.0480135,2.2237131.549192,2.4389446,2.5272172,1.4376604,1.8595643-.94131,3.0339798-2.5452253,4.1090155-4.2474352,1.5970875-2.52879,2.7213559-5.3328709,4.5441237-7.732361,1.4806628-1.9491781,3.3651605-2.9596918,5.8532158-2.7297442,1.6808123.1553427,3.0419658.8369557,4.355691,2.7990943-2.22136-1.5835906-4.1446903-1.7391649-6.134542-1.0858503-2.0918041.686807-3.4058463,2.2700074-4.4631421,4.0800952-1.2399981,2.1228946-2.3527935,4.3209672-3.6189807,6.4273777-1.1250243,1.871586-2.6921674,3.2803139-4.8292783,3.9640729-2.1045207.6733223-3.1795686.09977-3.4565299-2.1831004-.2742668-2.2606803-.5261607-4.4427078-1.856626-6.4203671-2.3549027-3.500398-5.549724-6.074263-8.9264306-8.4668767-6.1860364-4.3832213-12.6777044-8.3572187-18.3881478-13.3799225-9.5498557-8.3997091-17.998133-17.7157522-24.1625645-28.9746333-3.0631439-5.5945857-6.1333106-11.202077-9.7904411-16.4513572-1.1052788-1.586471-2.228776-3.1635052-3.730306-4.4040885-1.9148566-1.5820726-3.4524119-1.2045946-4.2669246,1.2143972-1.1224578,3.3335366-.6475141,6.7108772.2035543,10.0304017,1.447146,5.6444646,4.1537919,10.7047695,7.960553,15.0371426,7.6747705,8.7344621,14.9815455,17.8547388,24.4228406,24.8641547.4238669.3146844.7904541.7095579,1.162406,1.0880388.0602241.0612787.0084615.2326178.0084615.6076116-3.0918934-1.7364521-6.046684-3.438089-8.5452369-5.8197356-5.9317467-5.6541941-11.1341839-11.9932383-16.7806175-17.9157005-.4447524-.4664852-.6688233-1.1665392-1.3896622-1.3496926-.5408433-.8439298-1.0816835-1.6878656-1.6225268-2.5317954ZM138.9549388,60.1821646c12.8454893-10.1740245,20.7594797-23.6988591,26.1757097-38.8539322,1.3283682-3.7168731,1.7700115-7.6674063.6377816-11.5909823-.7639236-2.6472508-2.5136715-3.2880439-4.8151961-1.8280044-2.9364532,1.8628319-4.9806706,4.5869371-6.9138036,7.3832576-5.050106,7.3050925-8.7696858,15.3458163-12.7443416,23.2439383-6.5240387,12.9640172-15.5392295,23.6294664-28.3336817,30.8424091-2.0247096,1.1414352-3.9307634,2.4924446-5.9002783,3.732906-3.1468321,1.9819999-4.5947829,4.8439822-4.5937465,8.5412622.0004023,1.4585947-.2039414,2.9206032-.3782553,4.3734674-.0435998.3633685-.3248285.7011574-.5094693,1.0439086-.20994.3896796-.3451531.7667522.0685819,1.3112136,1.141679-1.5196783,1.3852211-3.2061723,1.5100951-4.8085879.3865705-4.960029,2.9944522-8.2220544,7.3266729-10.3587507,1.4882221-.7340036,2.89834-1.6292022,4.3295384-2.4754363,3.7343203-2.2080216,7.2170028-4.7608548,10.458094-7.646466,7.7453703-6.8958869,13.1526267-15.4550475,17.6550038-24.6761,3.3825224-6.9275443,6.4327302-14.0353891,10.7393348-20.4752701,2.0344147-3.0421731,4.0992738-6.0842669,6.8990508-8.5009116,2.1048377-1.8167936,3.6792109-1.2587255,4.2259401,1.4734084.4499219,2.248366.2593068,4.5032489-.1404558,6.7477865-1.2355113,6.9369751-4.4836862,13.0246253-7.9335957,19.044858-5.422826,9.4630584-12.0596683,17.8558483-20.9949627,24.2734539-.6421099.4611755-1.2314878.9957488-2.2852844,1.8548093,2.5653914-.6885749,3.8621205-1.3413165,5.5172679-2.6522375ZM60.745658,131.3528104c-.5600615.3099904-1.1157886.8305426-1.721864.0342849-.5903168-.7755063-1.5901805-1.4158239-1.3118842-2.5290094.2056422-.8225932,1.1363571-.7949775,1.8470916-.9019044.9865131-.1484296,1.9871024-.2132197,2.9672328-.3926667,6.6695177-1.2210268,11.8469362-4.5498175,14.9644946-10.7220704.2840451-.5623719.8202157-1.1318398.3866071-2.0623474-.5183088.7698613-.9555019,1.4276017-1.4010346,2.0796362-2.7936809,4.0886177-6.6257594,6.6778695-11.4426868,7.7434561-1.6814951.3719519-3.4373757.3968608-5.1320569.7221526-3.8393025.7370151-4.9859499,3.8669608-2.6048641,6.9463084.3389716.438388.9258867.6907573.6823568,1.4987441-.5770881,1.9147347.7121,2.745009,2.1618491,3.4923998,1.3814232.7121793,3.5358472.0461115,4.2125529,1.1549809.6646779,1.08913-.3679284,2.8982546-.2381104,4.4466581.2693289,3.2125367,2.5017534,4.5339065,5.2265354,2.8735041,1.1912775-.7259444,1.3953774-.5209667,1.7818381.709814.932434,2.969653,2.533862,3.5256605,5.2599973,1.8362404,1.0175244-.6305637,1.0783398.138627,1.4415376.6001072,1.5008168,1.9068584,3.214963,2.4220704,5.4670842,1.5473306,2.4129017-.9371768,4.1622472-2.6384723,5.137391-5.018601,1.3193703-3.2203154,1.1775123-10.7383106-.1890789-14.2624593-.5395235,2.9205544-.3510786,5.7847558-.4123329,8.6345702-.0361015,1.6797272-.2206449,3.3277178-.991006,4.8443358-1.3412555,2.6405328-4.4827109,4.2908277-6.911487,3.6697984-1.9184412-.4905346-2.2438183-1.2435705-1.253178-2.892195.5821113-.9687428,1.2175154-1.9110282,1.7249243-2.9176526.6117997-1.2137236,1.4166774-2.3933696,1.2550313-3.858036-.6979874,1.0023815-1.2008119,2.0745519-1.7372629,3.1296287-.8517816,1.6753014-1.8761093,3.2387137-3.4111866,4.3641769-1.5023408,1.1014809-2.909057.9012947-4.1071257-.3349237-1.3058124-1.3473761-.7115575-2.2845041.3368745-3.4856208,2.4940784-2.8572761,4.3870375-6.0933319,5.6754027-10.2117964-1.2269279,1.0681958-1.4358681,2.1395006-1.9289875,3.0406978-1.667669,3.0477571-3.4236837,6.0343209-6.3534799,8.073893-1.0711097.7456473-2.357963,1.2073226-3.5612378.4931804-1.1890585-.7057173-1.0738042-2.0499478-.9638049-3.2506012.1171684-1.2788673.1152055-2.397454,1.8590888-2.9905872,3.2511986-1.1058091,5.4742533-3.4639307,6.3776208-6.86946-.92635.8373825-1.6265076,1.8843026-2.4985164,2.7601397-2.7615906,2.7736245-5.9890751,4.1379845-9.9474115,2.9800896-.7770182-.2273019-1.6461251-.4834143-1.8351979-1.3495585-.2117567-.9701327.5695837-1.5816032,1.2439667-2.1086296,1.3275087-1.0374101,2.9111236-1.5735441,4.4650624-2.1694694,1.6582077-.635904,3.3996282-1.1377653,4.5849315-2.6956422-2.9798946,1.3014109-6.2456204,1.7640983-9.1056764,3.3471036ZM154.6476212,82.8973453c.6166157,1.666084-.4685031,2.7977409-1.341475,3.9145354-2.4366768,3.1173267-5.8325986,4.6788125-9.5715154,5.5793757-3.9234845.9450165-7.7843004.5632864-11.6031991-.6512297-1.1398989-.362515-2.2160685-1.0371053-3.4913878-.8432714,4.8938124,3.3124895,10.2158199,4.2233309,16.0938227,2.4144989-.4687957,1.8756338-1.1174528,3.2530762-1.7763638,4.6291897-1.741896,3.6377813-4.6314819,5.3447462-8.648945,5.2023397-3.9104997-.1386148-7.6612675-.805719-10.9847911-3.0697887-.5656273-.3853269-1.1369484-.912658-2.2279438-.7863819,1.4311619,1.9670886,3.2261921,3.0909546,5.2541205,3.9151694,1.8625514.7569983,3.8245437,1.1399599,5.8006546,1.3981206,1.1268166.1472226,1.2614932.5032391.8319691,1.5238969-1.3588613,3.2290451-3.3880089,4.349924-6.8221781,3.4307309-4.6220816-1.2371573-8.849692-3.2337758-12.3287899-6.645255-.7360763-.7217503-1.4218835-1.7238757-3.0210071-1.7432615,1.7348732,2.4190711,3.5047141,4.3675785,5.6523835,5.9623861,2.1166765,1.5717884,4.6023909,2.4743024,6.8923694,3.8311641-6.7105084.9385667-13.0743031.7194215-18.176507-5.4686449.8614745,4.0939092,3.8185816,5.4499418,6.8601694,7.0096476-4.4975124,1.669949-7.5844557.4395584-9.7414889-3.9972604-.3384595,2.4693889,1.1979223,3.6425241,1.7769856,5.2132518-1.8512491.3310831-2.67661-1.159614-3.9263985-1.9605291.2096961,2.7576159,2.0987172,4.1046262,4.6511115,3.5210274.6884408-.1574154,1.284683-.6375012,2.1028992-.3682576,2.0548369.6761509,3.9575743.0855293,5.7017259-1.0028936.9120972-.5691753,1.7472362-.6618005,2.8109452-.4889618,3.2263506.524283,6.4018836.5106154,8.9995603-1.9558839.7364299-.699231,1.5111315-.2939574,2.251341-.10928,2.1838685.544815,3.9162057-.1927122,5.372496-1.7847887.8210082-.8975761,1.4233588-1.9404605,1.7599041-3.0992088.3311563-1.1402038.8934673-1.661585,2.1875262-1.8024066,3.4210502-.3722689,5.9345875-2.1999746,7.3917557-5.3613035.527831-1.1451538,1.1393625-2.2889787,1.4228101-3.5012027.4798663-2.0521424,1.6217526-3.2297889,3.5673096-4.0801562,3.2766684-1.4321373,5.6808039-3.9070615,7.0603799-7.2605782.3035772-.7379173.9128409-1.8395079-.8437103-1.5255063l.0634612-.0392837ZM100.1925711,120.0954107c1.8820592,1.8487497,4.2154425,2.9998534,6.567163,4.1017244,1.8047597.8456123,3.6497786,1.6054149,5.4534166,2.453295,1.2692475.5966934,1.2260135,1.4088377.2611357,2.306743-1.4049971,1.3074462-3.3942758,1.4448051-5.3663267.2958351-.9275083-.5403769-1.8034673-1.1692581-3.112401-2.0262093,2.1641413,3.6543385,4.6871033,4.8474449,8.2587778,4.2765017.3384717-.0541096.7968429-.501142,1.0087581.0528416.1220698.3191346.0259209.8022197-.1324333,1.1352171-1.1032975,2.3199473-5.2223229,3.2192669-7.2079561,1.6016109-1.1305108-.921022-1.8997625-2.1712982-2.8207235-3.2833255,1.1358145,3.8012319,3.6752118,5.7682474,7.3680782,5.8696877.3951051.010839.8856398-.07074,1.0729508.3414466.194285.4275368-.2223762.7369297-.5059579.9687672-2.638582,2.1571063-4.603476,2.4681818-6.8163867.1713878-1.116575-1.1588946-2.0144437-2.4699375-2.9445855-3.7677273-.4081022-.5693947-.6726029-1.3106649-1.7645616-1.8319609,1.5155939,3.0479522,3.2522228,5.4475033,5.2364173,7.6862862,1.5185322,1.7133659,1.06872,3.2957007-1.1398746,3.9641948-1.7764369.5376824-3.2750712.0453433-4.4783338-1.3613119-1.3794907-1.6126937-2.0541176-3.5517521-2.5592464-5.5647449-.1777522-.708424-.2992733-1.4307717-.4597246-2.1437801-.1422115-.631978-.3028335-1.2598107-.4553231-1.8894721.006718,3.9142184.6927934,7.6119616,3.2132439,10.6680096,1.0784129,1.3075925.5965349,1.9965453-.7223355,2.468255-.6818203.2438713-1.4090572.382547-2.12704.4995814-2.618867.4268662-4.4025462-1.0484076-6.2647075-3.1971134.2301915.7959285.2988832,1.1173065.4145154,1.4207862,1.9923268,5.2284191,6.5008001,6.1035125,10.2072487,1.9478003.4423505-.4959724.7678739-.4977403,1.3507534-.3872899,2.5545036.4841215,3.5743811-.0707644,4.7774486-2.4490642.3807548-.7527432.5239173-1.7130977,1.5267133-1.9593343,5.2338691-1.2852073,4.4863442-6.4644425,6.413576-9.8962097.1413093-.2516378-.1522336-.7543892-.2583436-1.13629-.1218259-.4384855-.3935079-.8554028-.1239718-1.334123,1.3482052-2.3945401-.0866144-3.7301871-1.9052003-4.8587716-4.2716004-2.6508719-9.1818115-4.1881926-13.1598202-7.9352295-.1060246,1.4902704.5530448,2.1613493,1.1950571,2.7919861ZM39.3999033,77.1351575c-1.4442748-.1016476-2.8737114.1057198-4.3105793.2176943-8.5328617.6648852-16.4160908-1.0197922-23.1500359-6.611787-1.9704354-1.6362859-3.5443239-3.6204804-4.078943-6.2219977-.3600643-1.752101.2149084-2.2586564,1.8934529-1.7408596.6329473.1952482,1.238093.4987645,1.8808034.6381108.4570545.0990994,1.0101968-.0429658,1.2067221-.5046534.2472516-.5808799-.3084541-.8155704-.7106613-.9895917-.9707332-.4199653-1.9396345-.8954668-2.9592743-1.1406061-2.2639021-.5442541-3.2230892.2613307-3.3616826,2.6037607-.1843909,3.1165342,1.3642046,5.4715344,3.3335396,7.6324935,2.1194929,2.3257386,4.816202,3.8394793,7.731599,5.1975115-2.3826891,1.0437867-2.6801336,1.9343887-1.414373,4.0424331,1.8272912,3.0432094,4.3160659,5.3956737,7.5412704,6.9028548,7.3780576,3.4478612,14.859299,2.7837075,22.3690583.4844263.337606-.1033545.5991075-.2703896.4814513-.8767881-2.0695409.3403006-4.1462753.7011574-6.2293253,1.0207675-6.8326391,1.0483588-13.2676066.2310206-18.9114311-4.1380942-1.7685789-1.3691394-3.3048145-2.9418666-4.2628524-5.3114855,1.3161698.2332396,2.3491601.4314139,3.3876736.5944134.5826661.0914426,1.3265638.3198418,1.6641637-.2650738.4069805-.7050955-.7222928-.7743237-.8290856-1.4405256,6.2802954,1.6460032,12.5281104,2.3240805,18.7285093-.0930032ZM9.6645164,26.3065986c-1.4390046-1.6531479-2.6851172-3.4856635-4.4756393-4.8107581-2.0697268-1.5317365-3.5794074-1.1175687-4.4286988,1.3041847-.9745098,2.7788062-.9505457,5.6363567-.2769705,8.4656819,3.5953916,15.1022985,18.3037737,23.9141333,29.6725566,25.7139429.4169416.0660033.9443642.2664027,1.0875145-.4253604-.4958871-.3980008-1.0895324-.4803967-1.6726922-.6232178-6.871935-1.683007-12.8959412-4.980189-17.9981147-9.8446361-5.5327095-5.2749085-9.1700763-11.5395489-9.2148619-19.4401826-.0073398-1.2948576-.2342576-3.0772748,1.056418-3.6106838,1.2595485-.5205461,2.1345017,1.0652452,2.9636726,1.9433562,1.8717231,1.9822071,3.6144574,4.0856793,5.442096,6.1105597.3163517.3504994.6675004,1.0037897,1.2898343.5600249.528846-.377091-.2127351-.8272567-.0817984-1.2679673-.5408433-.8439298-1.0816835-1.6878656-1.6225268-2.5317954-.8841005-.1708818-1.2289579-.9551483-1.7407895-1.5431486ZM112.2768313,77.1306951c-5.6176719,1.4804921-7.5840412,3.5578239-8.1456937,9.3553207-.9262281,9.5605301-2.991648,18.7321853-8.0181009,27.0736394-1.3405484,2.2246275-2.0477776,4.7496988-2.6387162,7.27844-.162719.6963292-.4512265,1.4461219.0548046,2.355744.2805581-.417917.4695638-.6100196.5556539-.8405525,4.0952259-10.9654662,10.25792-21.2188629,11.3965632-33.2033654.4931438-5.1903424,3.0529145-8.7149056,8.1856237-10.3386212,2.0558001-.6503641,4.037739-1.6718754,5.4991257-3.4912415-2.2655816.7700563-4.5996476,1.2072007-6.8892604,1.8106364ZM5.6498362,45.4376443c-2.4010965-1.1995866-3.8514125-.2899218-3.8394092,2.4416818.0221474,5.0395718,2.5362303,8.7568899,6.5948213,11.3985566,7.9754337,5.1910373,16.7946509,7.0889832,26.2319286,6.2155236.6483158-.0599985,1.4369654-.0441363,2.0347135-1.0377149-3.3317047-.0791527-6.4170447.3902404-9.5078165-.0302736-5.9190728-.8053044-11.6241028-2.18054-16.635681-5.6108442-3.5226856-2.4111948-6.1641633-5.4589398-6.6777018-9.907256-.0736814-.6382449-.3221522-1.5115521.2171975-1.8719396.5790572-.3869119,1.1962398.3314306,1.7758182.6081298,1.7597121.8400831,3.240128,2.2942458,5.939815,2.5802295-1.9062366-2.3703382-3.9414347-3.6908363-6.1336855-4.786093ZM154.5900367,82.9336297c.7649843-.5379629,1.5287738-1.0664035,2.2824314-1.6089507,4.4140192-3.1775934,7.4305152-7.2413265,7.8384101-12.8329312.1367372-1.8745243.3718787-3.8898215-1.4038632-5.3107052l-.0853952.1193631c1.7688167,4.3664446.0932227,10.5844676-3.8312007,14.1439497-3.7100088,3.3650142-8.0193932,5.6195373-12.8271642,6.9993572-3.7112524,1.0651111-7.391902,1.3316723-11.2080939.4813782-2.9745787-.6627637-5.9752734-1.3094945-9.0381978-1.4913921-1.3478516-.0800427-2.7181981-.2253267-3.9454795.4951799.0954051.5004592.3989945.4876207.6306003.5048728,3.8574996.2871663,7.6176311,1.1377409,11.3782259,1.9741846,3.8079987.8470022,7.5803713,1.1961544,11.4149614.0128507,3.0529511-.9421025,5.9367822-2.2616313,8.8523499-3.5234415,0,0-.0634612.0392837-.0575844.0362844ZM149.212298,59.8043604c1.918685-.6362454,3.6490836-1.6588295,5.1087146-3.0301453,3.4387779-3.2306789,6.9658283-6.3915932,10.1501763-9.862376,3.5410229-3.859554,6.1403577-8.3400885,7.0364951-13.6293718.2928358-1.7283076.3378743-3.4526162-.3891065-5.094285-.8521962-1.9244276-2.2586564-2.2987936-3.9990893-1.1114603-1.5166668,1.034679-2.6185744,2.4549348-3.5470093,3.9977786-1.918429,3.1879935-3.8363337,6.3729206-6.0642287,9.3606061-.2447613.3282423-.6849782.6462065-.4015305,1.3342145,1.4085939-1.0246447,2.4009532-2.3357973,3.3199513-3.6879162,1.717621-2.5271074,3.361771-5.1040328,5.0616888-7.6433569.6297712-.9407309,1.3455838-1.8234994,2.3202399-2.4416208,1.1742204-.744678,2.0509232-.4735873,2.4339579.8726123.1963455.6900867.2679878,1.4412998.2526254,2.1618309-.1116087,5.2352407-2.2732872,9.7203413-5.6349972,13.5177326-5.3165697,6.0055348-10.5271636,12.2244905-18.8433673,15.320255,1.4838572.6096417,2.3488066.2162556,3.1954796-.0644975ZM163.307015,63.1810548c.1538552-.8440273.8014882-1.3520214,1.3248446-1.9438744,1.6005258-1.8100024,2.8630553-3.8362239,3.7083262-6.0944109.7037178-1.8800597,1.1595652-3.8404852.8343466-5.8583549-.2002715-1.2425585-.7365152-2.5048015-2.3296158-2.0182416-1.9832191.6057096-3.4074313,1.9913758-4.6640964,4.0483098,1.3777106-.3003279,1.8676844-1.17939,2.634522-1.6490086.9190102-.5627865,1.7577217-1.8735977,2.9311739-1.0953786.9593425.6362332.5944256,1.9299203.4127597,2.9791447-.9808986,5.665344-4.4673729,9.6724558-8.7808662,13.0812771-3.3250964,2.6277309-7.0259,4.2550066-11.4133398,3.8382235-5.3742151-.5105423-10.1953855,1.3394998-14.8836471,3.6442433-.8127052.399531-1.6931998.8523791-2.1557042,1.92889,1.2566163-.0143016,2.0676999-.6563383,2.9788094-1.0084533,4.3481561-1.6804344,8.7261957-3.3644411,13.4946342-2.9495112,3.8452828.3345823,7.2272322-.6876361,10.333098-2.8345374,1.8538705-1.2814887,3.6611419-2.6303644,5.4893597-3.9489544,0,0,.0853952-.1193753.0853952-.1193631ZM69.5157401,76.7818965c3.2635617,1.021048,5.270251,3.1869693,6.2934936,6.3911909.7718242,2.4168764,1.2273912,4.893666,1.571825,7.3987663.7683128,5.5878372.8787145,11.2824184,2.7162229,16.6971975,1.2983751,3.8261165,3.336606,7.0968472,6.93158,9.1762152,1.0965552.6342458,2.2230913,1.2772579,4.191009.9209122-7.8498465-2.6608453-10.2559937-8.6802549-11.3281763-15.5463864-.4609804-2.9519985-.6246992-5.9505961-.9173765-8.9286374-.4231232-4.3052513-.8562196-8.6123192-2.7296589-12.5975336-1.0817171-2.3010248-2.6061138-4.2781233-5.1702738-4.9355589-2.5486147-.6534366-5.1747606-1.0046005-7.7669081-1.4883196,1.8849061,1.6328233,4.067275,2.2423186,6.208263,2.9121539ZM65.8452223,106.8800544c-3.2427798,3.0960145-7.0072152,3.7223718-10.9863517,1.7908848-.5198877-.2523694-1.2717165-.5911824-1.3706269-1.0167441-.1555317-.6691647.7502072-.7789568,1.2138699-1.0900444,2.2113805-1.4837475,4.1424042-3.221303,5.4522279-5.5690854-2.3605356,2.2978913-4.8712687,4.3306357-8.0006231,5.4810567-4.3798562,1.6101089-8.8605066.4812563-11.5485834-2.9243462-.277955-.3521393-.7738786-.6887334-.6291982-1.1716478.1699735-.5673586.792472-.2942135,1.2122483-.3982752.7073206-.1753381,1.4337284-.2837037,2.1276252-.4991302.3813217-.1183999.7705075-.464821.7082472-.871643-.0940335-.6145674-.6414393-.5369387-1.1136793-.4708562-.9858304.1379442-2.0014466.1677545-2.9517424.4325356-1.8355759.5114445-2.1836795,1.5180811-1.2098952,3.1307748,2.1851792,3.6189076,6.894308,5.7491542,11.0187224,4.7301057,1.4718538-.3636489,2.39365-.0373086,3.5508011.8198011,5.0468019,3.7381975,11.5927807,2.0757712,14.2054174-3.9664991-.8140341.7724704-1.247411,1.1815846-1.6784592,1.5931128ZM53.6546509,93.743802c-5.179735,3.2838863-10.8199445,5.0753076-16.9660326,4.958761-4.1717817-.0790917-7.846518-3.2142436-8.5428472-7.0001376,1.3214186-.0017435,2.6440686.030615,3.96364-.0189957.4730874-.0177886,1.2084626.150929,1.264462-.6032772.0479525-.6458529-.6009424-.8517694-1.0923061-.9894576-1.2848659-.36004-2.6044557-.5311595-3.9449004-.4657964-1.8987993.0925643-2.6001518,1.069098-2.0970834,2.9122148,1.2099623,4.433027,6.0218299,8.0569579,10.6397111,7.7994555,5.5216267-.3079055,10.7159743-1.8533584,15.5091998-4.6492949,1.1303584-.6593498,2.2040286-1.4078867,2.9110749-2.6700383-.819856-.1460155-1.1715747.4264882-1.6449181.7265662ZM67.2130084,114.343245c2.3443686-.3520296,4.6032078-2.8817949,5.204266-5.8284776q-5.4094266,5.523864-10.6888341,2.6334613c1.305977,2.4143282,3.3404466,3.5169796,5.4845681,3.1950163ZM71.0576328,113.1196944c-.2766809-.0463675-.7123012-.1534163-.8096327.3077592-.1041714.4935705.3090028.703669.6462431.8712772,3.0306025,1.5061448,7.178219-.2013322,7.1419345-4.3642134-1.7218518,3.0265669-4.1333636,3.6618246-6.9785449,3.1851771ZM103.3214317,73.9441647c-1.0691833-.6165547-.9893966-.5321105-1.5277862-.0234581-3.5040557,3.3105875-2.6854616,7.0071847-.9113656,10.7639146-1.3075193-4.0941286-1.8433607-7.9578341,2.4391518-10.7404565ZM96.1086109,72.2914435c-.2979565-.6140797-.6713349.0372476-.732955.4848774-.0713618.5184673.1972234.9417368.6472185,1.10726.8425276.309905,1.5367598.1063538,1.9009573-.8202522-.4502145-.596352-1.3574713.1715585-1.8152208-.7718852Z"/>
  </g>
</svg>