<?xml version="1.0" encoding="UTF-8"?>
<svg id="Layer_2" xmlns="http://www.w3.org/2000/svg" viewBox="0 0 168.5626627 239.5800302">
  <g id="Layer_1-2" data-name="Layer_1">
    <path d="M168.4740414,216.1052527c-.9650085-3.7908096-2.2838305-7.4706077-3.4373405-11.2020657-4.1125939-13.3042827-9.1580524-26.2420091-15.1180073-38.8268403-4.3584954-9.2029391-8.6435189-18.4399739-12.7882568-27.7419854-1.8207274-4.0861899-3.7927612-8.1018927-6.0517949-11.9667483-4.9196377-8.4166742-10.4589656-16.4193797-16.2673845-24.2408161-4.9024177-6.6013424-10.193548-12.831192-16.72911-17.9160268-2.0468834-1.5927347-3.8882748-3.4275825-5.5751455-5.4146551-1.2566004-1.4806899-1.9986674-3.1727266-2.3104641-5.061186-.1650823-.9994485-.2860815-2.0089994-.2775863-3.0292267.0477568-5.6148663,1.3782884-10.9342374,3.6841605-16.0287154.8056661-1.7800882,1.6292411-3.5520257,2.2863561-5.3947947,1.161546-3.256875,1.5867651-6.5577184.6752534-9.9615373-.3280983-1.2260636-.2527895-2.448798.2289111-3.6497205.4752719-1.1848504.8975061-2.3912833,1.3266284-3.5941573.2787343-.7807546.4713687-1.5877983.5393302-2.4142433.1522248-1.8471314-.6153278-3.0136139-2.3616649-3.6279085-.568719-.2000963-1.1553468-.3217843-1.7546027-.3959451-2.5719784-.3185699-5.15934-.5253246-7.694812-1.1050645-1.9853506-.4539191-3.924322-1.0341181-5.7092318-2.039651-2.0866042-1.1756664-3.6164285-2.7966419-4.1114459-5.230516-.0440832-.2168571-.0893144-.4813563-.2332735-.621527-.5811174-.5648158-.4417503-1.2289336-.3345271-1.8979878.2739127-1.7090271.7468886-3.3732822,1.1415708-5.0551016.3962895-1.6882483.7315054-3.3875173.5574686-5.132936-.3894015-3.9066428-3.4134621-5.3649467-6.5773492-4.1260255-1.3413228.5253246-2.0911962,1.5549655-2.2461761,2.9904243-.1012536.9394081-.0475272,1.8747982.1340864,2.8053667.3106487,1.5905535.8201309,3.1235922,1.326858,4.6569754.507875,1.5363679.8963581,3.1033874,1.224686,4.6851013.08036.3858427.2633511.8035998-.0580888,1.1871464-.8084213.9648937-1.2340996,2.1454965-1.8028186,3.243673-.9069197,1.7511587-2.1864801,3.1159006-3.9066428,4.1023767-1.8716986,1.0734945-3.8549828,1.8494274-5.914035,2.4639516-2.1224217.6334662-4.2671147,1.2019556-6.3144572,2.0645626-1.5858467.6682506-2.1203553,1.5057163-2.075813,3.228175.01148.4517379.075768.8941769.1811543,1.3370752.5037422,2.1156485,1.5132931,3.9999752,2.6654256,5.8131258.2803415.4410615.3042199.752973.0169904,1.2043664-1.6246491,2.5531512-1.8044258,5.3647171-1.3697932,8.2627274.3021535,2.014395,1.2467276,3.76762,2.3207961,5.4581643,1.148918,1.808329,2.3306689,3.5961089,3.4582341,5.4175251,1.3874724,2.2410101,2.597464,4.5735158,3.4660405,7.0720222,1.0958805,3.1520626,1.424438,6.3632472.8093397,9.6607614-.1097488.5873166-.2367175,1.0778569-.9082973,1.266014-.4546079.127428-.7815582.4636771-.8598517.9565133-.1306424.8227713-.6219862,1.4329332-1.1411116,2.0342554-2.3830177,2.7609391-4.7713161,5.5172863-7.1430834,8.2878686-9.1991507,10.7449323-17.3389274,22.2143671-23.9181134,34.767284-5.0321416,9.6010654-9.5612298,19.4164624-12.9407112,29.7304356-4.8328489,14.7486958-8.9897556,29.6942736-12.9032864,44.7086165-1.4687507,5.6353007-2.9012247,11.2817369-3.4862453,17.0985363-.150388,1.4968767-.2814895,2.9973123-.128576,4.501651.1379896,1.3577392.8224269,2.3437561,2.1391825,2.7693195,2.5655496.8289705,5.1451048,1.0429577,7.726956.02583.3425631-.1351196.6619366-.3688523,1.0591445-.3414151.1540616.2169719.0394912.4350919.0156128.653671-.1306424,1.1952972-.2582999,2.3888725-.2617439,3.5961089-.0064288,2.2568525.9911829,3.8797796,2.9834215,4.9070097.5668822.2923955,1.132846.5900718,1.7164891.8464201,1.1029981.484341,2.2546713.8309221,3.4217277,1.1223993,3.3999157.8489457,6.8742219,1.2165352,10.3432472,1.6451983,6.6480659.8217381,13.3064639,1.425012,20.0137666,1.2788716.5570094-.012054.9943973.1150296,1.4276524.4892774,1.0784309.9319461,2.3453633,1.4654215,3.7743932,1.6120211,2.5937904.2663359,5.1781672.1797767,7.7574928-.1726591.5581574-.0762272,1.1828988-.2923955,1.6636811-.0461496.5655046.2896403,1.0283781-.2261559,1.5599019.026404.5025942.2386691,1.0729205.3325755,1.6099547.5016758.3579463.1127336.7152038.2317811,1.0630477.3720667,1.4836747.598567,3.0201575.8464201,4.6218466.8585889,2.3793441.0181384,4.7292993-.2654175,7.0737442-.5884646,4.9386945-.6805342,9.8849657-.7863798,14.846161-.3315423.8603109.0788676,1.7174075.2194975,2.579096.2499195,3.244247.1145704,4.535517-1.0147169,4.8817537-4.2377259.1405152-1.3074568.2006703-2.6253604.3868759-3.9256996.4711391-3.2925778.5944342-6.5759716.1166368-9.8839325-.5060382-3.5040393-.6247414-7.0337938-.5482846-10.5744543.0610736-2.8191427.0280112-5.6401222.0523488-8.4601834.0202048-2.3336537-.08036-4.6645522-.2803415-6.9859222-.542315-6.2908084-1.0100101-12.5885049-1.6912331-18.8671445-.1030904-.9500845-.1258208-1.9088938-.1983743-3.0679142.4057031.4549523.4509343.8337921.5655046,1.1732556,2.1042833,6.2318013,4.3408163,12.4114833,7.0815506,18.3989903,2.0487202,4.4753618,4.1833107,8.9118064,6.0990925,13.4476678,2.5072312,5.9367654,4.5919986,11.9936115,5.4389927,18.4248203.3519767,2.672658.4575927,5.31145-.3331495,7.9288891-.1951599.6458646-.3703447,1.3082604-.4497863,1.9754778-.0718648.6044218-.4121319.8124393-.9243693.9491661-2.6555528.7088898-5.3359023,1.259126-8.0892647,1.416402-1.0488125.0599256-2.0934922.1957339-3.1400086.2968727l.0027552.2348807c.6561966.0768012,1.3133116.1485512,1.9685898.2315515,1.3792068.1746107,2.7551991.3795287,4.1371611.5276206,2.3040353.2468199,4.475821-.2765531,6.586074-1.1708448,1.3858652-.5874314,2.7951495-1.0896813,4.3403571-1.0918625,3.3895837-.0048216,6.7564371-.3274095,10.1060705-.8252969,6.2324901-.9265505,12.2891066-2.4951772,18.0591824-5.0661224,1.4820675-.6603294,2.9857175-1.2146984,4.5835034-1.5247731.8828117-.1713963,1.7546027-.4162647,2.6151432-.6807638,1.978233-.6079806,3.5594877-1.7572431,4.635393-3.5482373.119392-.1988335.3813655-.3802175.2199567-.7117598-.9066901.3315423-1.5927347,1.0752165-2.6080256,1.3820768.1570464-.3424483.3719519-.4244155.5540246-.5410522,1.2024148-.7703078,2.4103401-1.5316611,3.6099997-2.3058721,1.5243139-.9836061,2.7014728-2.2625925,3.3645574-3.9785076.2211047-.572163.2897551-1.1097713.1283464-1.7434671ZM96.1741718,27.0716134c.9746517.2665655,1.4203052.8905033,1.6168427,1.7334795.1384488.594549.0936768,1.200578-.0261744,1.7885834-.2702391,1.324562-.7445926,2.5885096-1.2164204,3.8513092-.03444.0919548-.0920696.2126095-.3462367.1542912-.0546448-2.4621148-.095284-4.9502893-.0280112-7.5276633ZM54.555052,36.6893248c-.6086694-1.318248-1.214354-2.682416-1.5576059-4.1393423-.2270743-.9636309-.3214399-1.937479.5632086-2.6871228.4024887-.3411855.6212974-.3007759.6683654.1835651.2096247,2.1551397.3923863,4.3128051.5776734,6.4702408.009184.1059604-.0472976.2196123-.2516415.1726591ZM76.3243396,19.5289114c-.3517471.3097303-.7021166.6602146-1.3904572.4264819.3978967-.4233823.7666342-.6095878,1.1243509-.8071585.0916104-.0506268.2436055-.0408688.2890663.0779492.0339808.088396.0335216.2529043-.02296.3027275ZM70.9930293,4.6331568c-.1818431-1.4789679,1.0855485-2.6128472,2.73178-2.5309948,1.5185739.0754236,2.53088.9243693,2.8514015,2.4043705.111356.5139594.1924047,1.0336589.1627863,1.5650679-.1802359,2.4455836-.641043,4.8292901-1.5977859,7.100837-.1017128.2414243-.2252375.4745831-.3531247.7034942-.1448776.2591035-.2638103.6245118-.5843318.6311702-.3942231.0082656-.509023-.3941083-.6424206-.697869-1.2896628-2.9369275-2.1766073-5.9912953-2.5683048-9.176076ZM72.1773057,19.1144835c.4761903-.0059696.9356197.3786103.8740869.6635438-.081508.3775771-.4036367.3987003-.7048718.3849243-.2966431-.0135464-.6596406-.0460348-.6121134-.4564447.032144-.2781603.1738071-.5806582.4428983-.5920234ZM55.6171812,31.7094172c-.0725536-.634155-.1180144-1.2731316-.2277631-1.9008578-.0978096-.560683.1361528-.8142761.6460942-.9652381,1.7628683-.5218806,3.5115013-1.0919773,5.2785024-1.5991635,3.4355037-.9861317,6.4361452-2.6774796,8.8354645-5.3603547.3262615-.3649491.6268078-.5292278,1.1617756-.4084583,1.7998338.4060475,3.5856621.2869999,5.3115648-.3925011.4525415-.1782843.8091101-.2704687,1.2079252.150388,2.2050777,2.3277989,5.0452288,3.4565121,8.0798511,4.1913467,2.4874856.6022406,5.022728.9100193,7.5653177,1.1536248,1.5952603.1529136,1.6108731.1391376,1.5539323,1.6772275-.1001056,2.7039984-.16072,5.4079967-.1003352,8.1138319.0050512.2220231-.0273224.4448499-.0410984.6498826-.3003167.1516508-.4461127-.0730128-.6132614-.1980299-2.6555528-1.9871874-5.5632063-2.2785497-8.6506365-1.2658992-1.926573.6317442-3.5744117,1.7323315-5.0199728,3.1382866-.619231.6022406-1.1946084,1.2491384-1.8080994,1.8573486-.533131.528539-1.0669509,1.0612109-1.6439355,1.5394675-1.4646179,1.2140096-2.0099178,1.2422504-3.5578805.0800156-1.2308852-.9241397-2.3926609-1.939775-3.6024229-2.8928443-1.4487756-1.141456-2.9437007-2.2180501-4.7132273-2.8220127-2.9831919-1.0182757-5.7650246-.688685-8.2901646,1.2818564-.1437296.1120448-.2663359.2670247-.6534414.2570371-.2422279-2.1197813-.4798639-4.2023675-.7181886-6.2849536ZM63.0491013,61.3051924c-.8550301-1.7597687-1.846213-3.4402105-2.8977807-5.0891972-1.5610499-2.4479944-2.9701047-4.9706089-3.5050725-7.8758516-.4617255-2.5058536-.1926343-4.9381205.7921198-7.2876165,1.1920828-2.8433655,4.1759635-4.5101462,7.5260561-3.2318486,1.3158372.502135,2.4870264,1.2357068,3.5879581,2.0893594,1.0095509.7827062,1.9800698,1.6156947,2.9847991,2.4047149.9468701.7436742,1.942645,1.4053812,3.0704398,1.8659586.6807638.2780455,1.3011428.2438351,1.9543546-.0450016.7700782-.3404967,1.4182388-.8418281,2.0133618-1.4229456.9140373-.8929141,1.811773-1.8030482,2.7414231-2.6794312.9039349-.8519305,1.8861634-1.6013447,2.9705639-2.2225273,3.1485038-1.8036222,7.053769-.5395598,8.3824638,3.1090126.7957934,2.1853321.8226565,4.4210614.4851446,6.6718295-.3365935,2.2452577-1.1686636,4.3424235-2.0776498,6.4113484-.9060013,2.062037-1.9394306,4.0728731-2.6298376,6.2237653-1.6434763,5.118586-2.2526049,10.3314228-1.3548692,15.6720319.1345456.8014186.1294944.8252969-.6977542.8355141-3.4577749.0429352-6.9144019.1214584-10.3685032.2911327-3.4580045.1275428-6.9146315.0394912-10.3705696-.0823116-.7778846-.0274372-.802911-.045346-.6247414-.8537673,1.1399636-5.1712792.3069751-10.0739265-1.9819066-14.784169ZM49.4829599,232.3379677c.0633696.8551449.1678375,1.7071903.2514119,2.540638-.3997335.2367175-.7852318.1548652-1.1525916.1585388-3.9100868.039606-7.8254544.1358084-11.7210764-.2632363-6.8960339-.706479-13.6752014-1.9837434-20.1907881-4.4348374-1.23387-.4641363-2.4027633-1.0594889-3.4733877-1.8435726-.5861686-.4293519-.9073789-.9600721-.9535285-1.6961695-.1306424-2.090737.2883775-4.1138567.6975246-6.1407649.0574-.2844743.2415391-.4564447.4532303-.618083,5.4557535-4.1679275,9.0742484-9.7709694,12.187853-15.7414859,4.1729787-8.0021315,7.1988762-16.4409621,9.2597651-25.2196006,1.9228994-8.1900591,3.7215852-16.4096217,5.6642302-24.594974,1.4570411-6.1386985,3.0575823-12.2431866,4.5897026-18.3640911.2263855-.9048533.4334847-1.8151022.5283094-2.8150099-.4396839.3596683-.5005278.8247229-.6440278,1.2381176-1.4189276,4.0845827-2.4468464,8.2828174-3.6074741,12.4424793-2.8571415,10.2415344-5.2355672,20.6014276-7.6789696,30.9459376-1.5729891,6.6586275-3.4095589,13.2399947-6.0869237,19.5586995-2.7072128,6.3894216-6.2942524,12.2180454-11.0024286,17.3337614-.712219.7737518-1.4797715,1.4965323-2.2266601,2.2379105-.1019424.101024-.2323551.1732331-.5705558.4199383,1.3886204-6.9513674,3.6198725-13.4019774,6.1202157-19.906199-.4612663.0555632-.5333606.3308535-.6488494.5157962-1.1989708,1.9207182-2.0909666,3.9917096-2.9301543,6.0850869-2.0588226,5.1348876-3.7277844,10.3943332-4.9047137,15.8009523-.1896495.8708725-.4034071.9808509-1.1656788,1.0571929-2.1683417.2172015-4.3325507.521077-6.5185716.2452127-.2966431-.0374248-.597419-.0764568-.8835005-.1592276-1.0770533-.3117967-1.408366-.732883-1.4464796-1.8471314-.071176-2.079257.2656471-4.1221223.5944342-6.1623473,1.5936531-9.8882949,4.1008843-19.5495155,7.2544393-29.0485238,3.3023358-9.9463837,6.292186-19.9914954,9.4749003-29.9756483,3.2412622-10.1672588,7.4725593-19.887831,12.6791969-29.2052257,5.0833424-9.0964048,10.3889376-18.0455212,16.5908908-26.4345286,3.7124012-5.0218096,7.6640456-9.8500665,11.8900619-14.4504455.8120949-.8839597,1.6430171-1.7517327,2.7558879-2.6618668-.2231711.6263486-.5466774.9314869-.8068141,1.26544-4.3500002,5.5853627-8.2334534,11.4869992-11.7839867,17.6030821-3.0380663,5.233386-5.0300752,10.9101294-6.6579387,16.7098236-1.6133987,5.7490674-3.1113086,11.5305084-4.6707513,17.294959-2.0831602,7.7000928-5.145564,14.9835765-9.2965011,21.803498-.2282223.3749367-.5138446.7307018-.6265782,1.2730168.3590943-.0755384.5257838-.3262615.716811-.5165998,1.6113323-1.6074291,2.8571415-3.4823421,3.956466-5.4609195,2.3106937-4.1590879,3.9390164-8.6009281,5.3951391-13.1110743,2.0089994-6.2234209,3.6042597-12.5629045,5.2080152-18.8977961,1.837029-7.2563909,4.4331154-14.1914568,8.389811-20.5812228,1.4843635-2.3972529,2.9903095-4.7792373,4.5938354-7.0986558,2.2457169-3.2481502,4.5942946-6.4193844,7.0797138-9.4883319.2346511-.2897551.4784863-.5720482.8164573-.8188681-2.8863007,7.7081288-5.3319991,15.536568-7.1717834,23.7607226.5533358-.3852687.6001742-.8096841.7216326-1.16786,1.2182572-3.5922057,2.3958753-7.1985318,3.6336485-10.7839643,1.1153965-3.2305858,2.2154097-6.468404,3.5633909-9.6135786.4594295-1.0720021.9806213-2.1117453,1.5488811-3.1301358.1974559-.3540431.4114431-.578477.8642141-.5729666,1.7265915.0208936,3.4538717.0083804,5.1827592.0083804.1035496.5081046-.1522248.8619181-.2931991,1.2375436-2.5386864,6.7672283-4.5857994,13.6694614-5.8148478,20.8045087-.9558245,5.5478231-1.1858836,11.1277901-.9062309,16.7415084.4040959,8.1086659,1.1055237,16.2032114,1.1082789,24.3310488.0020664,6.2111373-.2615143,12.4026437-1.2577484,18.5423754-.9654677,5.9495082-2.5471816,11.742544-4.5713346,17.4151546-1.818661,5.0962-3.978278,10.0600357-5.8936006,15.1190405-2.8334927,7.4844985-4.7887657,15.1882649-5.6846646,23.1408028-.5682598,5.0452288-.9055421,10.1105477-.5287686,15.1937753ZM100.218345,196.7629511c.2695503,5.670085.486063,11.3428105.751251,17.0131251.1301832,2.7797663.4697615,5.5396723.8972765,8.2898202.4550671,2.9267103.2309775,5.8494026-.13776,8.7648625-.1462552,1.1541988-.2259263,2.3196481-.529687,3.4504277-.5039718,1.8768646-1.3052756,2.5879356-3.2368998,2.706524-4.502225.2764383-8.9819492.8215085-13.4878478,1.0669509-2.7522143.1499288-5.4878975.0287-8.223351-.1790879-3.4097885-.2588739-6.8140667-.5912198-10.2206408-.8927993-.2619735-.0231896-.5232582-.075768-.7852318-.0773752-.4791751-.0029848-.6348438-.2317811-.6428798-.6986726-.0185976-1.0894517-.0785232-2.1785589-.1361528-3.2669774-.1271984-2.4025337-.2918215-4.8033453-.3889423-7.2069122-.1517656-3.7638316.0633696-7.5180201.4784863-11.2571697,1.3064236-11.7667667,3.2688142-23.4398567,5.1021696-35.1302815,1.1640716-7.4217029,2.5003432-14.8164278,3.6749765-22.2366383.9696005-6.1245781,1.7332499-12.2783154,2.1619129-18.4690183.3556503-5.138676.6118838-10.281944.7209438-15.4318704.0238784-1.1215957.003444-2.2441097.003444-3.3661646l-.2817191-.020664c-.079212.646783-.1889607,1.2913848-.2325847,1.9404638-.2445239,3.6380109-.4631031,7.2778585-.7094638,10.9157546-.3097303,4.5750082-.7161222,9.1419804-1.286678,13.6921917-1.6648291,13.2738607-3.8935556,26.4611622-6.1151645,39.6494969-1.2917292,7.667834-2.6631296,15.3229252-3.8069964,23.0148673-.7629606,5.1298364-1.4689803,10.2708084-1.8064922,15.4478276-.2624327,4.0245424-.2080175,8.0448371,1.0350365,11.9504467.0208936.0658952-.0041328.1465996-.0123984.3186847-3.4249421.3570279-6.8361083.3218991-10.2307432-.5186662,1.6384251-.4282039,3.3680014-.3465811,4.9885177-.9720113-1.1091973-.0313404-2.2183945-.0626808-3.3275918-.0936768-.8263301-.0230748-1.6528899-.067732-2.47922-.0607292-.593975.0050512-.8713317-.2764383-1.0054181-.8269041-.3129447-1.2857596-.4504751-2.594594-.4874406-3.908824-.1175552-4.1813591.2459015-8.335855.7459702-12.4825445,1.307342-10.8366574,4.629653-21.1011518,8.7704877-31.1415567,2.2930145-5.5601067,4.3350763-11.2082649,5.773979-17.0627187,2.1832657-8.8831064,3.1792702-17.8874416,3.0093663-27.0360804-.12054-6.5059436-.5758366-12.9934044-.8773013-19.4894751-.2564631-5.5210747-.5097118-11.0468562-.0741608-16.5696529.2603663-3.3040578.9592685-6.5383172,1.7754962-9.745369,1.0747573-4.2236055,2.1811993-8.4382566,3.8239868-12.4878253.1976855-.4869814.4171831-.9652381.636451-1.442806.0440832-.0956284.1338568-.1701335.3561095-.4425539.3462367,4.8798021.545759,9.5831566,1.243054,14.271128.0789824-.9978413.2098543-1.9947642.2273039-2.9935239.0463792-2.6688696.0280112-5.3387723.0672728-8.0077567.0220416-1.5035351.1306424-3.0047743.4275151-4.4835126.0762272-.3805619.1019424-.8158833.571015-1.0434169.4036367,1.3885056.4697615,2.7843583.696147,4.1518555.9507733,5.7445902,1.8627442,11.4956092,2.8206351,17.2390514,1.0070253,6.0396261,2.032189,12.0764971,3.0830678,18.108776,1.1927716,6.8464403,2.6075664,13.650175,3.9865436,20.4606828,1.9235882,9.4991231,3.7082684,19.0235021,5.3228151,28.5804843,1.6776867,9.9291637,3.0387551,19.9051658,4.5254146,29.8626851.776507,5.2008976,1.4102028,10.4250996,2.4408768,15.585932.2018183,1.0101249.3372823,2.0463094.8727093,3.2429842.1187032-1.4697839-.1345456-2.6493536-.2594479-3.8277752-.4559855-4.2967331-.9429669-8.5909405-1.4818379-12.8780304-.6704318-5.3305067-1.357854-10.6596359-2.1219625-15.9773998-.9186293-6.3956208-1.9401194-12.7759732-3.0479391-19.1425497-1.5266099-8.7714061-3.1703158-17.5180154-5.1012512-26.2117019-1.7920274-8.0684859-3.2800646-16.1987342-4.6505466-24.3490724-1.4951547-8.890798-2.9710231-17.7848105-4.4331154-26.6811189-.3652935-2.2236753-.6497678-4.460897-.9578909-6.6937563-.0399504-.2905587-.107912-.5940898.0254856-.9552505.2656471.2136427.2851631.511319.3375119.7641086,2.8245383,13.6521266,6.6127075,27.0714388,9.8172338,40.631955,1.987417,8.4105898,3.7101052,16.8739876,5.3457751,25.3572457.8463053,4.3888026,1.8041962,8.7555637,2.5742744,13.1596347.576755,3.2977438.9698301,6.6169551,1.2678508,9.9485649.4617255,5.1654244.9004909,10.3325708,1.4756387,15.487778.3960599,3.5495001.573311,7.1187458.7427558,10.6855807ZM153.4400677,227.578476c-3.1749078,1.4797715-6.470126,2.6228348-9.8271065,3.6015045-4.8757841,1.4212236-9.8558065,2.0041778-14.9272098,1.8659586-1.916241-.0523488-3.835926-.0171052-5.7461974-.2216787-.144648-.015498-.2867703-.0549892-.5554022-.1082564,1.0224085-4.8682073-.0844928-9.4240439-1.4852819-13.9352233-1.5300539-4.9277885-3.6400773-9.6240254-5.8472214-14.2766384-2.5276656-5.3291291-5.2279904-10.5798499-7.4459257-16.050183-2.9363535-7.2422706-5.7870662-14.5182923-7.646596-22.1334331-1.15925-4.7465193-1.9454002-9.568577-2.8819383-14.3604423-2.1111713-10.8021026-4.4191098-21.5623033-7.0723666-32.245588-2.2992137-9.2586171-4.6505466-18.5043767-6.9444794-27.7643714-.8669693-3.4995621-1.6388843-7.0225434-2.2930145-10.5697475-.0339808-.1847131-.098728-.3724111-.0874776-.5548282.0234192-.3786103-.3159295-.8520453.1958487-1.1139041.556091-.2845891,1.2719836-.0293888,1.6085771.5534506,2.4822048,4.2973071,5.11342,8.5026594,7.8135152,12.6653061,4.6023306,7.0948674,9.3371403,14.102372,13.8855149,21.2335162,8.1149799,12.7233948,15.2943401,25.9604047,22.0037092,39.4661613,2.6075664,5.248884,5.4649375,10.3744728,8.0399007,15.6387399,4.8259609,9.8655645,8.8444189,20.0731182,12.5088337,30.4201538,2.2195425,6.2675041,4.378241,12.5562461,5.9578886,19.0254537.6155574,2.521122,1.0731501,5.0689924,1.3982636,7.6446444.0801304.6342698-.0759976.9510029-.6518342,1.2194052ZM162.8855791,221.6813166c-2.1433153,1.5921607-4.3366835,3.1108494-6.6416371,4.4625042-.1903383.1115856-.3710335.2635807-.6518342.2462459-.3161591-.6897182-.2576111-1.4588779-.3590943-2.1937125-.682371-4.9345617-2.0964769-9.6852138-3.5957645-14.4139391-2.2941625-7.2353826-4.8098889-14.3933899-7.6107784-21.4484217-1.0396285-2.618128-2.1795921-5.1961908-3.2584822-7.7988208-.1487808-.3592091-.3884831-.7158926-.3053679-1.158676.2507231.0668136.3352159.2392431.4357807.3961747,5.6768582,8.8624424,11.3073373,17.7525517,16.186795,27.0916436,2.2808457,4.3654982,4.385129,8.8130785,6.2226173,13.3839538.3864167.9614497.4745831.7666342-.4222343,1.433048ZM166.5701988,218.6697691c-.4594295.5418558-.9365381,1.0575373-1.5502587,1.5706931-.3845799-.4891626-.5200438-.9229917-.6747942-1.3428152-2.3336537-6.3308736-5.4562127-12.2823334-8.7225013-18.1654872-2.592872-4.6701774-5.5214191-9.1338296-8.4485886-13.5931194-8.4237918-12.8332584-15.980155-26.1541871-22.8389937-39.885296-7.6514176-15.3183332-16.4368293-29.9758779-26.1181399-44.0959291-4.2306083-6.1701537-8.1427615-12.5441921-12.1593826-18.8515317-.9257469-1.4538267-1.7908794-2.9469151-2.5051648-4.6378038.6389766-.2512971,1.2676212-.2286815,1.8788162-.2708131.8972765-.0618772,1.9183074-.3799879,2.6587672-.0606144.685815.2958395,1.0570781,1.2978136,1.5931939,1.9675566,1.9075162,2.3825585,4.0177692,4.585455,6.2650933,6.6376191,11.2467229,10.2705788,20.4761808,22.1856671,28.5776143,35.0126115,6.2823132,9.9469577,12.2771674,20.0631306,17.3623466,30.6897041,3.9746044,8.3058922,7.4530433,16.8264604,10.927579,25.3484061,2.3963345,5.877873,5.0780616,11.6383056,7.3136761,17.5811553,2.3800329,6.3263964,4.8002457,12.6380985,7.0186402,19.0256833.4385359,1.2630292.2025071,2.1499737-.577903,3.0699806Z"/>
  </g>
</svg>