<?xml version="1.0" encoding="UTF-8"?>
<svg id="Layer_2" xmlns="http://www.w3.org/2000/svg" viewBox="0 0 160.4548427 273.1397461">
  <g id="Layer_1-2" data-name="Layer_1">
    <path d="M51.8848939,270.1526916c-3.8956456-.3433809-7.6360452-1.2931135-11.1534701-3.0348242-.3261004-.1613779-.7642456-.2338447-.9504294-.7158879,2.7855107-1.3459307,4.0313815-3.7734277,4.8212691-6.5196391.3149517-1.0948055.5908828-2.2021533.8481398-3.3122882.7413907-3.2005222,1.5900879-6.3521294,2.896998-9.3932247,1.367392-3.1822662,2.4089622-6.4976203,3.2506915-9.8660703.1376868-.5507474.3411512-1.1076265-.0897473-1.734882-1.432612,2.7190364-2.2553885,5.6839022-3.4535984,8.4890625-1.2196713,2.8550509-2.2879985,5.770723-3.3393239,8.6992161-.0576947-.1964964-.0643839-.3772452-.0289867-.5492144,2.0535964-9.9586048,4.2616028-19.8832059,6.4916279-29.8036263,4.1097013-18.2844778,8.196269-36.5743905,12.2427012-54.8729435,2.8367948-12.8266161,5.520852-25.6811039,6.796267-38.7862989.6304608-6.4769952.6050974-12.9467436.0228549-19.4116145-.5320732-5.9059014-1.2154905-11.7980062-1.837311-17.6956854-.0473821-.4483184-.0445949-.9238118-.498627-1.4891919-.1134383,2.1380481-.2182364,4.0492194-.314673,5.9609482-.1173404,2.3245106-.1669523,4.6543169-.3522999,6.9733924-.5312371,6.6447836-.8983091,13.2982074-.925066,19.96278-.0164444,4.1516484.1714118,8.3038542.2475018,12.4560601.0392993,2.1472458-.0445949,4.2928192-.40665,6.4135867-1.3902469,8.1387136-3.0817882,16.2169454-4.9871065,24.2490493-4.8725533,20.5411204-9.9508007,41.0338833-14.2700981,61.7034929-2.3713353,11.347458-4.5729311,22.7155412-5.2549548,34.3195595-.0657775,1.1173817-.0911409,1.1683871-1.1781422,1.0790579-1.6352403-.1340635-3.2629551-.3574562-4.8954082-.5290073-3.2197538-.3386427-6.4626412-.4610001-9.6528508-1.0722293-2.6893529-.5154895-5.3658847-1.0733442-7.9136486-2.1153325-.7617371-.3114677-1.5165063-.6446754-2.1210462-1.2223191-.5546494-.5301222-.5231542-.7572776.1418676-1.1109711.8174808-.4342431,1.7188557-.5939487,2.6185584-.7455714,2.7041249-.4557044,5.4503363-.4940282,8.1672823-.8188744,1.041849-.1245871,2.1388842-.1028471,3.1545337-.7840346-.5106119-.4593278-1.0385044-.3477011-1.5109319-.349234-2.2821454-.0080828-4.5642908.0289867-6.8461575.0256421-1.191242-.0016723-2.3727289.0999205-3.545018.2813661-1.2241308.1893891-2.4198323.4987664-3.4078886,1.3063527-1.3230758,1.0812876-1.4445969,2.3870829-.3603828,3.6927387.4409323.530819.9905648.9390019,1.5335081,1.3583336.2675696.2066696.687598.2720291.7661966.7514245-1.3607027.0195103-2.6464302-.3117464-3.9355024-.5681672-3.2637913-.6491349-6.2689319-1.9093597-8.9652528-3.8864479-.5356966-.3928534-.7464076-.7610403-.5858659-1.4784612,3.8861692-17.3676339,9.6676229-34.1173494,16.442986-50.5431941,2.0533177-4.9779088,4.4062576-9.8196637,6.7619846-14.6594676.3511851-.7216017.7556053-1.4358173.9010963-2.2852113-.1521802.0399961-.2645037.0344217-.3018519.0847304-.3796143.5124236-.7684263,1.0199696-1.1143158,1.5551087-2.2849326,3.5347054-4.1345072,7.3006077-5.8698073,11.1254589-2.6386261,5.8168509-5.0303078,11.7362701-7.3386528,17.6903897-.424488,1.0955023-.8570588,2.1921194-1.4911429,3.2798176-.0699583-.1778223-.1335061-.2564208-.1209637-.3199686.1666735-.849394.3378066-1.6980912.5198096-2.5444193,1.8799549-8.737958,3.7783052-17.4717352,6.3182651-26.0491514,2.3568419-7.9586616,5.1819306-15.7712749,7.5226069-23.7317482,2.8986703-9.8579875,6.2527663-19.534808,10.3326447-28.970816,6.2271242-14.4030467,12.9283482-28.5925953,19.2457772-42.9549491,1.410872-3.2077689,3.366917-6.1287366,5.2602504-9.1813988.1917582.4555651.030659.7490554-.0632691,1.0319545-.4593278,1.3848119-.9225576,2.7687876-1.4172825,4.1411965-1.2988273,3.6031308-2.7855107,7.1407628-3.9023349,10.8070233-2.3922391,7.8527487-4.9636942,15.6466878-7.5658082,23.4311505-3.7875029,11.3305956-7.6360452,22.6409841-10.9003939,34.1392287-3.2532,11.4592241-5.6404222,23.1202402-8.1628228,34.7500399-2.6979931,12.4394763-5.6788853,24.8006328-9.862447,36.8441898-2.1547712,6.2032938-4.1478857,12.4652578-7.1204163,18.3498372-.0535139.105913-.171133.2295245.0167231.4067894.4685255-.4943069.784592-1.088395,1.1087414-1.6741215,1.3052378-2.3585142,2.4248492-4.8059396,3.3992484-7.3160766,6.9492833-17.9013795,12.3522375-36.2482901,15.7754556-55.1564001,2.2119084-12.2184527,5.1103-24.2685596,8.6360864-36.1723394,3.4586154-11.6769031,7.4281213-23.1878294,11.2379218-34.7507367,1.9691448-5.9758597,3.7654842-12.0110863,6.1382131-17.8478655.1845115-.4537534.2725865-.9643653.6722685-1.3133206.1204063.1833966.0345611.3559233-.0075254.5298435-1.4685667,6.071042-2.8699623,12.1590857-4.4204722,18.2089451-2.4449169,9.5402486-5.0880025,19.0286556-7.6413408,28.5404749-1.8916611,7.0471134-3.2771697,14.2170023-4.6668592,21.3796444-1.5031278,7.746557-2.8066933,15.5279538-3.9179431,23.3400096-.8930134,6.2772935-1.6725885,12.5690803-2.3181001,18.8780084-.6363139,6.2190414-1.1820443,12.4444933-1.5775456,18.683463-.2193513,3.4609845-.4983483,6.9184849-.6825811,10.3812811-.2544698,4.7844783-.6452329,9.5629641-.694566,14.3571976-.0047382.4661564-.0936493.9546102.2260405,1.6738427.1663948-.8263998.3079837-1.3884352.3899269-1.9591109.8155297-5.6922638,1.2940891-11.4224333,1.8598872-17.141454.8216615-8.3076169,1.4752559-16.6308421,2.474461-24.9220147,1.0864439-9.0143072,2.4502126-17.9858311,3.9798186-26.9326884,1.8902675-11.0589846,4.12085-22.0527491,6.4751835-33.0210109.7829197-3.6477257,1.3751961-7.3619258,3.276891-10.6764437.336413-.5861446.5356966-1.2582738.7483586-1.9069906,1.5923176-4.8561089,2.8822259-9.7977843,4.1069141-14.7561828.316624-1.2821042.5914402-2.5796772.7004191-3.902753.017838-.2200481.0939281-.4806497-.2001197-.5742991-.2419275-.0769263-.4701978.0436194-.5939487.235517-.2904245.4512449-.5421071.9274351-.8091192,1.3934521-.0167231-1.0458904.2798332-1.9840562.5237117-2.9179019.5345817-.0150508.2224172.7259218.7923961.6796546.3160665-.5315158.41752-1.1580745.5053163-1.7815674.329445-2.3482017.584751-4.7085276.9819246-7.0448837.5276137-3.1012985,1.1491555-6.1869888,1.7531381-9.2749088,1.0858865-5.5502568,2.2559459-11.0815608,3.8477061-16.5140591.3500702-1.1954228.3603828-1.2270573,1.5641671-1.1268581,4.0542364.3376672,8.1159981.3626125,12.1777599.2858256,4.6127878-.0870995,9.2063441-.4157083,13.7344015-1.3733844,1.1973738-.2532156,1.19821-.2589293,1.8320154.7250857,2.0023122,3.1086845,3.8716759,6.2959676,5.6128291,9.5575291,8.5970659,16.1049007,15.4217621,32.9447815,20.9141849,50.3418202,3.7908476,12.0076023,7.0234224,24.1625073,9.9976253,36.3967076,4.0729105,16.752642,8.8331403,33.3209118,13.983297,49.7722593,3.0210276,9.6500636,5.9224851,19.3596336,10.657909,28.4353981-.9077855.7705167-2.0418902,1.2467069-3.2055391,1.6342647-1.1346622.3778027-2.2991472.665858-3.7370549,1.0748771,2.8459925.2182364,5.9024174-.6222386,7.8108016-2.0354797,2.907868-2.1530988,3.9394044-5.2288946,2.9376909-8.703815-.4724275-1.639421-1.2411326-3.1378106-2.1550499-4.5622005-1.677048-2.6136808-3.4722726-5.1475089-5.4818315-7.5157783-1.3512263-1.5923176-2.4153728-3.3008608-2.8961618-5.3591954-.248338-1.0637284-.6151313-2.0997243-.9289681-3.1481232-5.1780285-17.301717-9.9926084-34.7029365-14.2229947-52.2619105-3.04444-12.6375057-6.3288564-25.2074222-10.2863775-37.593942-4.7139626-14.753535-10.3075601-29.1501712-17.5107558-42.8856876-2.8618795-5.4574436-5.8890389-10.8256974-9.5037365-15.8277153-.7388822-1.0221994-1.0909034-2.0211257-1.1184965-3.2525032-.1505079-6.7339734.7673115-13.2753525,3.2743826-19.5679755,1.0797547-2.7102567,2.0577772-5.4620425,2.7345052-8.309986.5858659-2.4659601.9049983-4.9369372.239419-7.4409424-.1237509-.4658776.0103126-.8953825.1388017-1.3385446.4690829-1.6204682.9548889-3.2375917,1.3646048-4.8735288.6661367-2.6581364,1.1968164-5.3403819,1.2026695-8.101226.0011149-.6287885-.1270955-1.0128623-.852878-1.1187752-.6201482-.0905834-1.2553472-.2608803-1.7857481-.6494136-.7416694-.5429432-1.4716326-1.0541126-2.4786418-.6272555-.2174003.0921164-.5384838-.0338643-.8052172-.0910015-1.60486-.3433809-3.2191963-.6505285-4.8087268-1.0556456-2.5683891-.6548486-5.0860515-1.4588116-7.325553-2.9452162-2.7353414-1.8157103-4.217844-4.3445215-4.3967811-7.6356271-.0392993-.7273154-.136572-1.4529585-.2383041-2.1751176-.1446548-1.0270769-.1552461-1.01119-1.1499917-.9121056-.3623338.036094-.7634094.2201875-1.1452535-.0586702.2848501-.4924952.7216017-.6749164,1.0727867-.9470848,1.3554071-1.0504893,1.7291683-2.4238737,1.3013357-4.0224625-.4381452-1.6384455-1.47219-2.8153335-3.0240935-3.4994476-1.644438-.7248069-3.4430071-.2515433-4.5447806,1.1529182-1.2645449,1.6118279-1.3685068,3.4750597-.3305599,5.2226235.7993641,1.3453732,1.8975142,2.2002022,3.5001444,2.3674332-1.0178792.1923156-1.9373709.6981893-2.9594309.3215016-.7051573-.2600442-.9337063-.1498111-.9668738.5589695-.0426439.9097365-.0392993,1.8292282.0412503,2.7358988.3863036,4.3436853-1.5923176,7.3920273-5.2605291,9.4173338-3.6503735,2.015412-7.5660869,3.3835008-11.6175361,4.3611052-.3085412.0744178-.6622347.2854075-.9286894.1145532-.8643054-.5546494-1.5906453-.0947642-2.3016557.2728652-1.0521616.5440581-2.0491369,1.1943079-3.0996262,1.7417106-.6917788.3603828-.741112.7798538-.3974523,1.4227175.3642848.6820237.6516434,1.4065519.9540527,2.1203494,1.0677698,2.5189166,2.1578371,5.0290536,2.905917,7.6703275.178101.6293459.2500103,1.2081045-.0072467,1.8569607-.3054753.770238-.2798332,1.6022121-.1730841,2.4322352.3160665,2.4591315.9395594,4.8321391,1.9259434,7.1067592.9069493,2.0921989,1.837311,4.1743639,2.7381286,6.26935,2.4215046,5.6326181,3.740957,11.5171975,4.0547938,17.6386875.1231935,2.3975348-.3617764,4.6239366-1.6093194,6.6769755-.7110104,1.169502-1.4064125,2.3497346-2.1561647,3.4940126-3.5330331,5.3933384-6.5808177,11.0471391-9.2188864,16.9289313-2.8013976,6.2451015-5.3486041,12.5931895-7.7472538,19.0007838-3.2780059,8.7571895-6.9459387,17.3594117-10.3198237,26.0779988-6.79125,17.5494976-12.1287054,35.5491253-16.7080471,53.7890081-2.954414,11.768044-5.626765,23.5951762-7.8952532,35.5135887-1.0401767,5.4648297-2.1740027,10.9154447-2.6294284,16.4748992-.0785986.9585122.1407527,1.9779244-.0825006,2.8501733-.2433211.9516836.1329486,1.4635498.6285098,2.0287905.4191923.4780019.8918986.9160077,1.3793769,1.3260023,2.9081467,2.4458924,6.2669809,3.8517475,10.0293992,4.334627,1.4565818.1868806,2.9162295.3502095,4.3491203-.053932.6552667-.1847902,1.2383454-.1229148,1.8635105.0576947,4.3231995,1.2494941,8.6870919,2.1355396,13.2215599,1.3973542.375991-.0611787.7171422-.0273144.9841543.3056146.6212631.7746975,1.3264204,1.475674,2.1859876,2.2303038-1.3442583.4692223-2.5686678.5310977-3.7699437.6506679-5.7165123.5691428-11.3973486.206809-17.0366559-.8130213-3.3744424-.6102537-6.670565-1.5057756-9.7459427-3.0829031-1.9998038-1.025544-3.6227804-2.4354405-4.6821887-4.4548939-.3333471-.6354777-.6689239-1.2865637-1.2344433-1.8065126-.0510054.1390804-.1201276.228549-.1042406.2986467.7104529,3.125547,2.2355995,5.6692695,5.1813732,7.179644.7703774.3950832,1.5446568.7871005,2.3401188,1.1271368,3.8307043,1.63747,7.8749068,2.2661191,12.000495,2.4273577,4.2905895.1676491,8.5806215.0583915,12.8586687-.3116071,1.4950449-.1293253,3.006813-.2529369,4.4369166-.7668934.7882153-.2834565.8194318-.5356966.17615-1.0991256-.6750557-.5913009-1.2896296-1.2143756-1.5808902-2.1401384.4058138-.1184553.7059934-.2357957,1.0173218-.2916787,1.6082046-.2888915,3.2191963-.5620354,5.0698858-.8822828-1.279317,1.3048197-2.7977743,2.0013367-3.6375525,3.3953463.8774052,1.0610806,1.8286708,1.689869,3.6091232,2.3886158,2.5218432.9897287,5.1590757,1.5188754,7.8266885,1.8876197,5.4904717.7592286,11.0096515.8123245,16.533012.514514,1.5794966-.0851484,3.1732078-.1700182,4.9583985-.6598656-1.3450945-.306172-2.4680505-.3291663-3.5890555-.3522999-5.1100213-.1047981-10.222551-.160263-15.3180789-.6094176ZM68.2013418,97.3594713c.1560822,5.5212701.3361343,11.0419828.4610001,16.5639497.1248658,5.5200159-.1675097,11.0221938-.8930134,16.5135017-.921164-11.0258171-.1279317-22.0457812.4320134-33.0774514ZM54.0761772,122.5999216c-.2603229-.4643447.2544698-.714355.2455508-1.0477021.1482781.4279719-.079156.7076658-.2455508,1.0477021ZM150.3518877,239.5300516c1.3877384,1.8097179,2.7632132,3.6289122,4.140639,5.4465736.5521409.7284303,1.0647039,1.4836175,1.4590903,2.310296,1.2592493,2.6396016.7193719,5.790512-1.498947,8.1061036-1.6413721-5.5630779-3.5372139-10.8779571-4.8558302-16.3953251.4791168-.0476608.5822425.3071476.7550479.5323519ZM99.1585831,25.3312772c2.1207675.0305197,2.4039453.3634487,2.0580559,2.4320959-.0515629.3086805-.1354571.6120654-.2076451.9318946-.9930733-.712404-1.709658-1.925386-1.9680299-3.3008608.0390206-.0220187.0785986-.0636871.1176191-.0631297ZM98.1869711,36.7103698c.7962982.131555,1.1129222.9707758.6299034,1.6417901-.0813857.1130203-.1767074.2002591-.3302812.1790765-.771771-.106331-1.4975534-.3372491-2.1115698-.8349007-.2335659-.1895284-.2748162-.4573767-.1708543-.7370705.1087001-.2919574.3155091-.4208646.6329693-.3640061.1775436.0319132.3587104.0440375.5384838.0650807.2706355.0147721.5454517.0061318.811349.0500299ZM72.5164585,4.5696906c.0086403-1.446548,1.2798744-2.8066933,2.6238541-2.8080868,1.7249875-.001533,3.4354817,1.5771275,3.3780658,3.1180216-.0490544,1.3244693-1.4788793,2.708027-2.7888553,2.6985506-1.8289495-.0129604-3.2233771-1.3186163-3.2130645-3.0084853ZM54.8632777,27.8055989c1.9702596-.5685853,3.9519467-1.0967565,5.9227638-1.6633908,1.7102155-.4917984,3.3816891-1.0893705,4.9834832-1.876889,3.613304-1.7765504,5.9216489-4.6182228,6.9933208-8.4875296.3018519-1.0896492.314673-1.0850503,1.432612-.9316159,1.2430836.1705756,2.4602464.0857059,3.624174-.4147328.5914402-.2543304.9590697-.0946249,1.1307601.527335.0362334.131137.1103724.2515433.147442.3825409,1.0627529,3.7472282,3.7958645,5.9071556,7.1482882,7.4341138,2.8066933,1.2784808,5.8132275,1.8483204,8.8465188,2.2604054,2.468608.3354375,2.4697228.3070082,2.0056569,2.7283734-.5677492,2.9612426-1.3481604,5.8614458-2.4153728,8.6851409-.2338447.6186153-.5192522.7979705-1.2124246.6669729-5.8277209-1.101216-11.0037984.4923559-15.7163674,3.9102784-.4035841.2929329-.7968556.6007773-1.2439198.9387232-2.1517053-1.9120075-4.6189196-3.1511891-7.3974623-3.7197744-2.6952059-.5515835-5.4182837-.6884342-8.1689546-.4747966-3.1941117.2480593-2.1993661.6696207-3.9254685-1.9928358-1.2952039-1.9978528-2.3069513-4.1416145-2.9510693-6.4456393-.329445-1.1777242-.336413-1.1997429.7960195-1.5266795ZM52.297397,36.8961355c.8687649.6410521,1.367392,1.2740213,1.87884,1.8926366.2335659.2826204.3021306.5440581-.0738603.7905845-.3804505.2491742-.6937298.2116865-.9158683-.180052-.3982884-.7025095-.6552667-1.4568605-.8891114-2.503169ZM58.4105254,58.8008853c-.800479-2.1312195-1.7815674-4.1947104-2.6865657-6.2864912-.9239512-2.1358183-1.7573189-4.3000659-2.3298062-6.564234-.2243682-.8867423.0044595-1.4225782.7483586-1.9496345,2.4008794-1.7008784,5.1186615-2.3554483,7.9808197-2.4959224,4.6509722-.2284096,9.1021034.5037833,13.0900048,3.0873626.6792365.4400962,1.0089602.2112685,1.4571393-.296835,3.8114727-4.3223634,8.7812987-5.8502971,14.3489754-5.7838228,2.0117887.0239698,3.9703421.4774444,5.8305081,1.3191737,1.121005.5071279,1.6881967,1.299106,1.7573189,2.5247697.1114873,1.9809903-.0691221,3.9108358-.7464076,5.7902333-1.4518436,4.0305453-2.9351824,8.0499419-4.0422515,12.1967127-1.1957015,4.4780275-1.7497935,9.0343749-1.7968969,13.6601231-.0055744.5475421-.0345611,1.0981501.0119849,1.6417901.0607606.7114285-.1644438,1.0552275-.9259022,1.194726-1.7071496.3124432-3.426284.5263595-5.1473695.7011159-3.7214467.3778027-7.4490252.7011159-11.2788933.6505285-3.5238354.0714912-7.1248758-.0468247-10.7200632-.3350194-.4543108-.0363727-.9069493-.1468845-1.3595879-.1421463-.7904451.0082222-.993352-.4151509-1.015092-1.1164061-.0351185-1.139261-.2029069-2.2771285-.1956602-3.4148566.0328888-5.0102401-1.2414113-9.7497054-2.9806135-14.3811674ZM45.2349541,112.3443425c2.8055784-7.026767,5.4656658-14.1173605,9.0396705-20.8100836,1.6344041-3.0606056,3.4483028-6.0127898,5.4163327-8.8700705q.9373296-1.3602847,2.5315983-.9759321c.2151705.0518416.4295049.1070278.6705962.167231-.0629903.6526189-.4055351,1.1494343-.6605624,1.6717523-1.8456726,3.7769116-4.018003,7.3681969-6.3330372,10.8684807-3.8295894,5.7900939-7.2084913,11.8356331-10.3945202,17.9950288-.0409716.0790166-.1031258.1468845-.1571971.2219991-.1903646-.0259208-.1502292-.1747564-.1128809-.2684057ZM139.7647731,262.8965394c-3.3448983.4708946-6.6198383,1.3021719-9.9329627,1.9361167-2.6910252.5147927-5.3859524,1.0252653-8.1483294.6853683-2.0176418-.248338-3.8326553-.9739811-5.5735298-2.3408156.3241494-.0433407.4498513-.0884931.5666343-.0716306,2.23114.3235919,4.4597715.2551666,6.6867307-.0388812,1.6363551-.216146,3.2440023-.5513048,4.683861-1.405437,1.7035262-1.0110506,2.2130233-2.4879789,1.4850111-4.3244537-.2505677-.6322725-.5889318-1.2347221-.9314766-1.8250474-3.8078494-6.5664637-7.0426539-13.386143-9.5402486-20.5716401-6.4066188-18.4327559-10.2194851-37.4545829-13.0788561-56.699942-1.0457511-7.0381944-1.9064332-14.1016129-2.8412543-21.1549975-1.2717916-9.5973859-1.9487983-19.2436868-2.6205094-28.8920781-.4339644-6.2375761-.9259022-12.4624706-2.2102361-18.6006837-1.1215624-5.3615645-2.3479229-10.6891254-4.3775496-15.7969169-1.1653212-2.9335101-2.5753571-5.7428512-4.2855725-8.3963887-.2636675-.4090191-.4579342-.9533559-1.1895697-1.0790579.1647225,1.2730458.6694814,2.2925974,1.1575171,3.3099191.9267383,1.9320752,1.8977929,3.8390658,2.69214,5.8363612,4.3828452,11.0168981,6.3558921,22.5207172,7.0401455,34.2954504.4766083,8.1979413.7976918,16.4075887,1.9175819,24.556615.8197105,5.9642928,1.5747584,11.9373653,2.3852712,17.9029124.3378066,2.4851917.753933,4.9596527,1.1129222,7.4421966.0699583.4841337.3104922,1.1056755-.0964365,1.4423672-.7263399.6009166-.6455116,1.3779833-.6733834,2.1292684-.3233132,8.6777548.070237,17.3382291.7121253,25.9890877.4186349,5.6419551,1.0293067,11.2656542,1.7614996,16.8763929.8857667,6.7849789,1.9111714,13.5473816,3.2052604,20.267001.577783,2.999427,1.21995,5.9865903,1.7865843,8.9879683.2461083,1.3038442.1931518,1.3140174-1.0691634,1.1402366-.0903047-.012403-.1808882-.0249453-.2703567-.0436194-1.356522-.284432-2.4000433.2061122-3.246232,1.2620365-.298786.3727857-.4952824.8585917-.9180981,1.0810089-.2851288-.1321125-.2422062-.3347407-.2653398-.5002993-.5708151-4.0648277-1.1681084-8.1263107-1.698788-12.1962946-.9024898-6.9198785-1.8060946-13.8401751-2.6280348-20.7698088-.7363737-6.2058023-1.3551284-12.4254011-2.0404967-18.6371958-.8160872-7.3949539-1.3526199-14.8123446-1.7815674-22.2375394-.5984082-10.3600985-.182003-20.7101631.3035242-31.0635723.4771657-10.1748902.4651808-20.3418369-.8562226-30.4765916-1.2481005-9.5707683-3.824015-18.748265-7.8269672-27.5270552-.7765092-1.7029688-1.6213043-3.3722127-2.6704-4.9280182-.1811669-.2686844-.3174601-.6069091-.8623544-.8056352,2.3610227,7.4132099,5.2262468,14.4770465,6.9428728,21.909906,1.7091006,7.4013644,2.7629345,14.8852294,3.1877012,22.4599566.4027479,7.1793653.237468,21.0439283-.2330085,22.7456428-.1850689-.2658973-.1491143-.5408529-.1507866-.800897-.0353972-5.0703039-.3893695-10.1223518-.9139173-15.162136-.4069287-3.9054008-1.0075666-7.7807-2.1893322-11.5397737-.1552461-.4944463-.1647225-1.090346-.8054959-1.5510673.1329486,1.4055764.2299426,2.6663586.3754335,3.9215664.5245478,4.5311234,1.2316562,9.0469172,1.4359567,13.6068879.4005182,8.9361267.795462,17.8729502.9261809,26.8191107.1031258,7.0740098.3107709,14.1453717.850927,21.2016828.5153501,6.7324405,1.0518829,13.4634874,1.806652,20.175024.6881555,6.1195389,1.3088611,12.2473001,2.0513667,18.3604285,1.0064518,8.2854588,2.105438,16.5600476,3.465862,24.7963127.7578351,4.5879819,1.4841749,9.1869732,3.1470083,13.5674493.0214613.0561617-.0638265.1527376-.1181766.2720291-5.0347673.9578154-10.094898,1.9316572-15.2205275,2.4765514-3.3142393.3524393-6.6443655.5596663-9.9689173.0661956-1.0844929-.1608205-2.1985299-.2505677-3.2649061-.8298837.5802915-.4862241,1.1561235-.6555454,1.6915413-.8985878,1.952143-.8863242,3.90122-1.7780834,5.7502372-2.8699623,1.2600854-.7441779,2.4897906-1.5362953,3.4859297-2.6267806,1.549395-1.6965583,1.477207-3.0369146-.239419-4.5789236-1.0228962-.9185161-2.1965789-1.6309201-3.3426685-2.378582-1.4147741-.9226969-2.8181207-1.8569607-4.0868464-2.9827039-1.2079651-1.0719506-1.9345837-2.3657609-2.1868238-3.9812122-.4021905-2.5741028-.6126228-5.1636745-.7898877-7.7578451-.2893096-4.2334522-.4127818-8.4783319-.8473036-12.7016109-.0995024-.9647834-.0819432-1.9786212-.7748369-2.9737849-.4498513.6962383-.5596663,1.3533167-.6048187,2.0268395-.1042406,1.5489769-.1457697,3.09879-.1209637,4.6523658.0621542,3.9274195.3874184,7.8379766.7018127,11.7500666.2759311,3.4331126.8701585,6.7837246,2.4120281,9.9066238.1248658.2533549.2026282.5429432.5117268.6692026.2199087-.4577948-.0719093-.8871603.2288277-1.3877384,2.1542137,2.2484205,4.9263459,3.5932363,7.3960687,5.3692293.4395388.3160665.8453526.7048786,1.189291,1.1236528.861797,1.0495137.7257824,1.6385849-.4989058,2.2265411-1.1154306.5354178-2.312247.8354581-3.5093421,1.127973-2.1246696.5192522-4.2830641.9080642-6.3572856,1.6235341-1.1683871.4028873-2.3019344.8806105-3.2874823,1.6465283-1.3988871,1.0872801-1.4256441,1.7563434-.0668924,2.9397812,1.0780824.9387232,2.3125257,1.6352403,3.6896728,2.027815,2.875258.8194318,5.8154573,1.1598862,8.7996941,1.0011561,2.9190167-.1551067,5.8034724-.5861446,8.6706475-1.1637883,3.2166879-.6477413,6.3871085-1.5238923,9.6472764-1.9577173,1.3130419-.1747564,2.6113117-.4193317,3.8510507-.9061132.9036047-.3545297,1.5764307-.8719702,1.6154513-1.971932.0234123-.6577752.3456107-1.2113097.9158683-1.6040238.2093174-.1440974.4796742-.3079837.3411512-.6722685-.5853084-.2675696-1.3640473-.0675892-1.894727-.7429236.8080043-.4998813,1.696837-.6786791,2.5357791-.9501507.613459-.1984474,1.3682281-.8393602,1.8498533.2441572.0153295.0345611.2001197.0464066.2118259.0225762.4055351-.8230551.6312969-.068286.852878.1248658.3060327.2670121.5468453.6103931.8091192.9261809,1.5137191,1.8215634,3.5165888,2.7084451,5.8129488,2.9935739,1.5028491.1866019,3.0115512.1126022,4.5040877-.1243084,4.7482449-.7536543,9.3292589-2.116308,13.8015727-3.8587155.3475617-.1353177.7820835-.1668129.9702184-.5943668-.2932116-.1114873-.557994-.0080828-.826121.0296835ZM75.3147902,269.7006105c-.7004191-.3209441-1.4482203-.549075-1.855149-1.2782021.1722479-.4661564.6053761-.5561824.9638079-.7086413,3.2367556-1.3761716,6.6808776-1.9791786,10.0976852-2.6801551-.3291663.5492144-.8506482.7374886-1.3236332.989868-2.2447972,1.1977919-4.5018579,2.3723108-6.7413595,3.5797185-.3907631.210711-.7110104.2943265-1.1413514.097412ZM107.6246514,267.8043505c-.6834173.3514638-1.1329899.2123833-1.3866235-.4756328-.3673507-.9964179-.2792757-2.0356191-.0175593-3.197317.6212631.753933,1.2748575,1.4840356,1.8526405,2.2698818.4177987.5678885.2246469,1.0566211-.4484577,1.4030679ZM110.3365804,260.5427634c-1.301057.7190932-2.4295874,1.5852103-3.1054793,3.1509104-1.2676108-2.1490574-1.0114687-5.848346,1.3423073-7.8050878,1.1151519-.9270171,2.5616999-.5878169,3.103807.7664753.7310781,1.8258836.3754335,2.9393632-1.340635,3.8877022ZM114.9340387,261.0549082c-.3330684-.1853477-.6285098-.421004-.4409323-.8679288.1850689-.4403749.0261995-.8304412-.2162854-1.1550086-1.4362354-1.9220414-1.6076471-4.217844-1.9593896-6.4638954-.8751755-5.5853753-1.786863-11.1653156-2.6249689-16.7562653-.9802523-6.5402642-1.7863056-13.1038014-2.3657609-19.6928413-.4275539-4.8618226-.8473036-9.7244814-1.2235733-14.5903454-.1859051-2.4063144-.2658973-4.8207117-.393829-7.2313462.5632897,1.2716522.6644644,2.627338.9002601,3.9530616,1.3328309,7.4959893,2.6876805,14.9883552,3.9647678,22.4938208,1.1862251,6.9707446,2.5681104,13.8966156,4.424653,20.7218693.5861446,2.155468,1.2302626,4.2956064,2.0984701,6.3590973.190922.4537534.2982286.9597665.9286894,1.4898887-1.677048-9.169832-4.2217461-17.9325959-5.4979971-27.1488345.5368114.6979106.6148526,1.3453732.8010364,1.9441995,2.6149351,8.4147841,5.6022378,16.6829624,9.6191259,24.5481141,1.0588508,2.0726886,2.2107935,4.0926995,3.4218245,6.0798216.4743785.7783208.9420678,1.5624948,1.257577,2.4251279.6597262,1.8038648.1744777,2.8576987-1.6369126,3.5383288-.8174808.3072869-1.6767693.4439982-2.5357791.5412709-2.3997645.2717503-4.7986929.6335267-7.2215911.2115472-.4540321-.0790166-.8971942-.1755925-1.2993847-.399682ZM147.5739024,249.7670959c-2.3431847-3.8817097-4.0734679-8.0537046-5.745499-12.2498085-2.9552501-7.4166939-5.5032928-14.9795755-8.0446462-22.5442689-3.2534787-9.684764-6.9537428-19.2077321-10.4285238-28.8123646-1.5220806-4.2065559-2.7969381-8.4854392-3.9996076-12.7898252-.1808882-.6474626-.2742588-1.3333883-.7595074-1.892776,2.1910045,12.3777402,3.9865078,24.815823,5.9974603,37.4074795-.5655194-.6664154-.608442-1.318895-.7597861-1.9161883-1.5017342-5.9277808-2.5642083-11.9448907-3.6096807-17.9650666-.9362148-5.3909693-1.916467-10.7746919-2.8061358-16.1734654-.9270171-5.6242565-1.7863056-11.2598011-2.6439218-16.8953458-1.738366-11.4259172-4.4009619-22.6423777-7.6304708-33.7293735-2.1812494-7.4880458-4.5138428-14.9287095-7.4755035-22.1519729-1.0373895-2.5302047-2.2369931-4.9936564-3.3454557-7.4951531-.1942667-.438842-.5278925-.8541322-.4063713-1.4678699.5984082.5443368.9186555,1.2018333,1.2673321,1.8307611,1.907548,3.4395232,3.411512,7.062861,4.7881016,10.7369256,4.756049,12.6933887,8.9791887,25.5498276,11.8045561,38.8315906,1.2913019,6.0702058,2.2595692,12.1942042,3.1523039,18.3322779.3609402,2.4821258.7288483,4.9634154,1.1254645,7.4399669.0852878.5338849.2296639,1.0867226.478838,1.5613799,1.2807106,2.4382277,2.0162482,5.0806165,2.9215252,7.6582033,3.2791208,9.3380385,7.0501793,18.4928197,10.352155,27.8213817,3.103807,8.768617,6.1078328,17.5724919,9.2096887,26.3416663,2.2668159,6.4081517,4.7769529,12.722236,7.651096,18.886788.1245871.2668728.399682.5264989.1769861.957258-.5775043-.4869209-.9080642-1.1221199-1.270398-1.7222004ZM83.1314448,97.7992888c.694566,4.3294707,2.2403377,8.4577067,2.9532991,12.7864806.6898278,4.1908083,1.1544512,8.4029386,1.5335081,12.6281686.6814662,7.5908928,1.1845528,15.1946067,1.5234742,22.8073789.2594867,5.8353856.464066,11.674534.5950636,17.5141004.1814456,8.076002.4019118,16.1521434.3180176,24.2320475-.0797134,7.6682372-.2831778,15.3338265-.8581736,22.9808811-.4885932,6.502916-1.0031072,13.0095946-2.3875009,19.4060402-1.1890123,5.4921441-2.7105354,10.8825559-4.8781276,16.0768895-.1697394.40665-.2335659.8794956-.6884342,1.2316562-.0752539-.7210442.2174003-1.292138.4150115-1.8639286,2.1087826-6.1046275,3.3108947-12.4170395,4.2905895-18.7762762,1.7341852-11.255481,2.2517651-22.6030784,2.4301448-33.9693499.1705756-10.8624882.0813857-21.7258126-.294884-32.5831445-.3224771-9.3031987-.8406144-18.5966422-1.4869621-27.8849295-.5485176-7.8828502-1.635519-15.6935125-2.7364562-23.5072406-.534303-3.7930773-1.0357172-7.5906141-1.5438206-11.3871754-.0473821-.3536935-.171133-.7181177.0799922-1.1890123.5552068.4296443.6547093.9957211.7352589,1.4974141ZM37.8993672,226.7931828c-.1131596,3.881431.1853477,7.7472538.5805702,11.604715.6505285,6.3482273,1.3331096,12.6933887,1.9674725,19.043149.1245871,1.2462889.1973326,2.5098583-.0604819,3.7727309-.6547093-1.7999628-.9350999-3.680057-1.2419687-5.5453792-1.1692233-7.1082921-2.1319163-14.2462677-2.6670554-21.4314861-.356202-4.7841996-.2012346-9.5723012.3132794-14.3436797.5911615-5.4832251,1.1948653-10.9653353,1.8105541-16.4459125.1984474-1.7655411.4049777-3.5327544.8102341-5.267079.1103724-.4715914.2633888-.9330095.4568193-1.6084833.4774444.5914402.356202,1.052719.3478404,1.4629923-.0579734,2.7835596-.4281113,5.5434282-.6672516,8.3131913-.5880956,6.8121539-1.45045,13.6025678-1.6500123,20.4452414ZM62.8630502,101.2307291c-.7968556,5.3207323-1.4490564,10.6599994-2.1093401,15.9991271-.7221591,5.8417962-1.2893508,11.6937655-1.4705177,17.5791811-.0615967,2.0057962-.1145532,4.0122893-.1368507,6.019061-.0641052,5.7468926.1042406,11.4971298-.2569783,17.2397022-.0512842.8148329-.02174,1.6433231-.4824614,2.6069916-.4908229-.9865234-.566913-1.8459513-.6552667-2.6931155-.4980696-4.7794614-.3606615-9.5697927-.1527376-14.3549678.2020708-4.6473489.5345817-9.2877298.944855-13.9226758.547124-6.1779304,1.2012759-12.3434579,2.0574985-18.4861304.5724874-4.108029,1.1667148-8.2141069,2.07673-12.265138.1574758-.7011159.228549-1.4363747.7946259-2.0396605-.2026282,1.4393013-.3941077,2.8802749-.6095569,4.3176251ZM61.5424829,145.1627253c.0897473-.4476216.1792159-.8917592.4598852-1.3930341.4317346.5455911.2895883,1.1226773.2717503,1.6618578-.1371294,4.1113736-.7165847,8.179964-1.270398,12.2466033-.7815261,5.7383917-1.6023515,11.4728813-2.6731872,17.166678-.4030267,2.1425076-.8392208,4.2795801-1.5262614,6.3638355-.2834565-.8491153.0309377-1.6412327.180052-2.430981.881586-4.667974,1.2985485-9.394897,1.8671339-14.1030065.7873792-6.5188029,1.398051-13.0625511,2.6910252-19.5119531ZM158.2992612,258.536131c-2.0881575,2.5545926-4.8087268,4.0205114-8.0496632,4.4589353-2.2651436.3064508-4.5503549.1610992-6.8227452-.0377663-.3458894-.0302409-.7310781-.057834-1.2846126-.6106718.9989264-.0595064,1.7091006-.0947642,2.4181599-.145491,2.4535572-.1753138,4.9135249-.336413,7.2773347-1.0850503,3.0826244-.9762108,5.1663224-3.1786428,6.7630995-5.8447227.9403955-1.5701595.5794553-3.3612033.3548084-5.0834037-.1092576-.8378272-.4325708-1.6487581-.3818441-2.5363365.5002993.0916983.5878169.493192.753933.7918387,1.8108328,3.2552904,1.4195123,7.0975614-1.0284705,10.0926683ZM87.1260355,107.7907823c-.2876373-3.5579784-.8286295-7.0830681-1.4571393-10.7907182,1.2414113,1.4727475,2.026282,7.5238611,1.4571393,10.7907182ZM88.211922,72.9172702c-.5237117-.8336464-.6193121-1.7713941-.5663556-2.7175034.2778821-4.9476679,2.191562-9.3296769,4.6913864-13.5078036.1047981.5596663-.1861838,1.0113293-.3751548,1.486126-1.3478817,3.3854518-2.661481,6.7814949-3.3409962,10.3816991-.2695206,1.4291281-.4506875,2.8657815-.4088797,4.3574819Z"/>
  </g>
</svg>