<?xml version="1.0" encoding="UTF-8"?>
<svg id="Layer_2" xmlns="http://www.w3.org/2000/svg" viewBox="0 0 201.9346811 243.0762313">
  <g id="Layer_1-2" data-name="Layer_1">
    <path d="M199.1599061,208.5967282c-.4623301.4537259-.9484069.8818022-1.4438653,1.292832-1.1751744.9743636-2.4824222,1.6450749-1.7033213,3.8904445.491354,1.4166188-.6616861,2.7441812-1.8487339,3.5801011-3.0829822,2.1714479-6.3143088,2.5120609-9.7200718.9042655-1.8173647-.8580645-1.8742398-.8117041-2.2245786,1.2824766-.8525402,5.0951759-3.9312714,8.2269677-7.7423428,10.8942004-7.5523683,5.2853966-15.8379563,5.7365735-24.3947271,4.7602981-1.7228171-.1965933-2.8065223-1.1303318-3.2654809-2.9568652-.3112006-1.2378687-.6800092-2.4588501-1.0883959-3.9223072-.4366776,1.2407363-.7509565,2.2590705-1.1468835,3.2383728-2.3828908,5.8947721-7.0333097,8.4928626-12.8533328,7.2849449-2.8456606-.5905765-5.5362339-1.6696093-8.1971971-2.8545857-3.3565104-1.4945233-6.6954306-1.6627588-10.0353768.0184804-.6482002.3262748-1.2971334.6238731-1.3645626,1.614168-.0495458.7269491-.646148,1.0352215-1.1528935.648726-.8104702-.6184564-1.3468258-.0796569-1.9382975.3006253-2.8109199,1.8075751-5.6360585,3.5397947-8.9211819,4.1880428-4.5250885.8927949-8.7707854-.2142771-12.9143123-2.01771-3.4679152-1.5094988-6.8418693-3.2872822-10.3478967-4.6771363-6.9648544-2.7612278-13.9997765-3.3500519-21.0698791-.2743385-1.6390436.7130888-3.3362816,1.2929913-5.1411132,1.3946335-3.9122886.2206497-6.3126963-2.2311906-6.1946219-6.4671868.0384054-1.3777463.2519801-2.7497572.4045755-4.3215478-2.6059203,2.2812152-5.3309412,3.8334101-8.511989,4.2581409-3.5418675.4731622-6.3107174-.9278439-8.1986629-4.2047707-.8366356-1.4523051-1.4809514-3.0347697-2.2222333-4.5527122-2.5548353-5.2309113-6.6005899-7.6665016-11.9995467-7.4192465-2.0231704.0925614-3.767389-.4948288-5.3472855-1.840553-1.6304684-1.3887389-3.2022294-2.8362647-4.3518246-4.7356045-.5766666-.9526969-.7104257-1.9464967.1025364-2.8520367,3.8278555-4.2641948,7.9999665-8.0952152,12.4181943-11.6139804.1073004-.0853922.2644399-.0968628.592791-.209657-.494359,1.3516188-1.3418419,2.2272078-2.1141999,3.1321105-2.6098781,3.0578702-5.3282294,6.0083629-7.6965349,9.3026549q-1.6106061,2.2405901.0988718,4.4604695c2.410742,3.127809,3.9498144,3.2363018,6.681505.4299881,5.0654752-5.2039872,7.7237998-11.8179022,9.3961183-19.0077367,1.4839564-6.3797235,2.2888563-12.8953418,3.065392-19.3982149,2.3718969-19.8607031,8.6274249-38.2592235,17.3617106-55.7668609,5.2826414-10.588955,10.9872285-20.900226,17.1028409-30.9441683.262974-.4317406.55849-.8402213.9859328-1.4797071-.040824,1.0540205-.5531397,1.5899523-.8946834,2.1883352-8.9304901,15.6443024-17.2075028,31.6700023-23.8468645,48.637247-4.7389564,12.110721-7.6104161,24.7627905-9.1714763,37.799603-.9956807,8.3147497-2.0583509,16.6228082-4.4918136,24.6404375-1.4432789,4.7553594-3.5248636,9.1106817-6.3777802,13.0377684-.5890531.8105889-1.1479096,1.6473053-1.8090826,2.5992056,1.5786505.2359438,3.0414986.3425248,4.4554605.6868021,4.4729041,1.0889102,7.7184494,3.7811552,9.2461615,8.6357671.3094416.9834445.6747322,1.9535066,1.0934531,2.8875637,1.8286517,4.080028,4.7214395,5.1864627,8.4282888,3.1306767,3.9832359-2.2092053,6.4831017-5.5844287,7.3483948-10.5179011,2.0277146-11.5614068,4.1554736-23.1046519,6.4180179-34.614441,2.4266465-12.3444345,6.117518-24.3049225,9.9031569-36.2129963,5.0638628-15.928837,8.8761802-32.2081645,12.1542675-48.6592323,1.8802498-9.4361599,5.0753697-18.3382998,9.7935111-26.5565053,1.1146347-1.9418766,2.2736847-3.8498194,3.9528194-5.6755563-.1251839,1.0392043-.4813862,1.7158103-.8519538,2.3360191-7.2785469,12.1841647-11.1184957,25.7100708-13.6598452,39.8518842-2.7695828,15.4121822-7.4831067,30.2535427-12.0471136,45.1235798-3.9608083,12.904582-7.5055343,25.9275342-9.4976286,39.3967245-1.2409179,8.3902644-2.117718,16.828801-3.0431843,25.2631954-.4083134,3.7212531-1.0345258,7.4138298-1.5400985,11.1229751-.227647,1.6699279-.1494437,3.3414489.3051173,4.9554576.5634006,2.0005041,1.667188,2.6157743,3.4867514,2.0843032,2.5530763-.7455889,4.967996-1.900933,7.4246192-2.9326495,3.1959995-1.34206,6.4729874-2.2026734,9.9216999-2.3712275,2.9744358-.1452942,5.6859708.6104907,8.2811171,2.1214234,4.5643733,2.6571959,9.2054108,5.1050533,14.1377133,6.9110353,6.3305797,2.317698,12.1802131.9875866,17.8835543-2.2348548.5469098-.3090689.6669632-.646177.475083-1.2334079-3.1703471-9.7036479-2.1341355-19.6586931-1.4758209-29.5871329.7692797-11.6020319,2.5917748-23.0702401,3.7533168-34.6220881.7953719-7.9092959.6766378-15.8381874-.0093815-23.742226-1.1128757-12.8190304-3.2783804-25.4914921-4.6529109-38.2753142-1.14102-10.6136487-2.4391795-21.2186944-2.1247541-31.9465711.033568-1.1427583.1989163-2.2812152.3179435-3.4198313.0199356-.1918139.1158024-.3742283.4479647-.5760789.0246263.5141058.0809151,1.0290082.0691883,1.5421582-.3507786,15.3554664,1.8331959,30.4490208,3.964986,45.5492665,1.7459776,12.3668977,3.4152911,24.7430356,3.7635778,37.2776908.2094704,7.5366608-.6608066,14.9823534-1.4975155,22.4371268-1.434777,12.7841407-2.9028289,25.5684407-2.4429908,38.4967605.1841111,5.17085.8413997,10.2719205,1.7880476,15.3381012.1911472,1.0231136.5049864,1.1379789,1.30329.6124025,4.5133617-2.9718407,9.0300948-2.8319632,13.6602849-.1730149,2.8746845,1.6508102,5.9995901,2.4537521,9.3040627,2.1749528,2.1108284-.1781129,3.8823119-1.0893882,5.301844-2.7857622,2.0104175-2.402453,3.2351378-5.3229947,4.142794-8.3308404.4982435-1.6514475-.1910007-3.5002848-.4530952-5.2371245-1.4939975-9.9024716-2.1206497-19.8795021-2.2213538-29.899866-.0810617-8.0823108.1089129-16.1716313-.4481113-24.2410377-.72677-10.5304868-2.6918926-20.8315617-5.0454663-31.0504307-3.0939761-13.4346192-5.9737911-26.9320081-9.7781196-40.1623869-1.9079544-6.6351037-4.2146208-13.0780748-7.8901008-18.8380674-1.2267724-1.9225997-2.610098-3.7045252-3.9202775-5.0469038,4.4116315,23.4844561,11.9631202,46.3495,16.9700346,69.9397405-.1612438.0477942-.3223411.0959069-.4835849.1438604-1.2210556-4.4239866-2.4453361-8.846858-3.6622874-13.2722784-3.1681483-11.5209411-6.8065422-22.8929238-9.239272-34.6466224-1.6508437-7.9755705-3.2764748-15.9602218-5.7070058-23.714824-.1376436-.4393876-.4319869-.9660792-.0303432-1.2980893.3732062-.3085909.816187.0528922,1.1747347.3058826,2.4610207,1.7349279,4.3228008,4.1023319,5.9604518,6.7029714,3.805941,6.0438899,6.3289673,12.7570574,8.2221166,19.708399,5.0588056,18.5756775,9.8826349,37.2268697,13.1690776,56.2932339,1.6655023,9.6625449,2.201125,19.4356537,2.2424621,29.2595836.0356202,8.4974827-.0425097,17.0054801.7572597,25.4777912.75081,7.9558156,2.2348396,15.7481751,4.5911985,23.3273727,1.0216996,3.2860077,1.7418732,3.7626748,4.7937794,2.9911177,2.8543091-.7215325,5.6930802-.6896697,8.5769996-.4529293,7.1513109.5875495,14.9780868-5.1585828,16.6783298-12.1417872.5004422-2.0553081.2352694-3.8436062-1.3490246-5.2094039-3.3263138-2.8676495-4.9185234-6.7735474-5.9686606-11.1175584-3.7361663-15.4585425-7.3764659-30.9436904-11.9226627-46.1608724-6.477898-21.6835723-14.7579157-42.5734429-23.2809719-63.3629457-2.2622511-5.5183135-4.603365-10.9974358-7.0846146-16.4051854-.3525377-.7685301-.776609-1.5259082-.8953431-2.6802964.9569089,1.1779667,1.4283272,2.3677226,1.9599922,3.5017186,15.5040349,33.0745133,28.6374923,67.1670421,37.525839,103.0894499,1.7666461,7.1396506,3.7651902,14.2082473,6.0876879,21.1632532,2.1696092,6.4976158,5.8160653,11.3488821,12.3040776,13.0070208,1.8757056.4795347,3.77164.8829174,5.6244783-.1393996,1.5195033-.8384688,1.8053447-1.7306265.7952253-3.2106522-2.2282433-3.2652969-4.5536726-6.452052-6.8228132-9.6846896-2.0957302-2.9853824-4.1416213-6.010434-5.6819397-9.3915521-.3314294-.7274271-.568751-1.505516-.9720072-2.5898061,1.5316699,1.0685181,2.4000413,2.3090951,3.2769146,3.5154196,3.4790557,4.7867442,6.9459449,9.5843218,10.367246,14.4198161.6374995.9007606,1.0472054,1.1104176,1.86178.2255884,1.3242517-1.4381262,2.7143202-2.8016935,3.7877644-4.4853224,1.3779019-2.1609332,1.3805404-3.6256648-.2008219-5.6607401-1.8538644-2.3855657-3.8619365-4.6083127-5.4129557-7.2841483-4.4451995-7.6692099-7.1230199-16.1228813-9.5050312-24.7141998-4.98478-17.9777726-10.8883567-35.5953365-18.4739999-52.4647625-7.2508423-16.1249524-16.0820208-31.1887151-27.4957393-44.3004051-4.9002003-5.6291959-10.2257911-10.7081218-16.5922843-14.347169-.3649974-.2087012-.6912963-.5607848-1.3537153-.4782602,1.0174486.8800498,1.9467995,1.6310553,2.8227933,2.4496099,6.8833529,6.4318192,12.0267382,14.3344239,15.8861828,23.1616863,10.5904954,24.2230352,21.1248486,48.4809601,29.2919957,73.8421335.6438027,1.998911,1.3258641,3.9975034,1.6071613,6.4423339-.7446534-.8865816-.9633586-1.725847-1.2641517-2.5029801-4.4410951-11.4704386-8.2465963-23.2233407-12.945535-34.5777988-6.2301688-15.0538853-12.2450038-30.2180158-18.9864621-45.0144498-4.1540811-9.1172136-10.0644007-16.7027837-17.5440627-22.855485-1.360898-1.1193392-2.4462156-1.3000011-4.116995-.5732113-9.0478316,3.9363269-18.0956632,4.2383859-26.9948573-.6525496-1.0586391-.5818142-2.1111216-1.1910304-3.1682949-2.2109578,1.2034654-.0511397,2.1040855.3724758,3.0217096.6871207,7.5854966,2.6020733,15.1607321,2.9355172,22.7007873-.1795467,1.3850846-.5722554,2.6910131-1.368984,4.070674-1.9592419.8972487-.3836278,1.0920606-.8134566.7346856-1.8448545-1.5067504-4.347038-2.7546311-8.76513-2.9375696-13.4696683-.1678402-4.3137414.8343636-8.2472006,2.951202-11.8730247.6934951-1.1878441,1.3997431-2.3682005,2.059377-3.5783486,1.1902727-2.1833965,1.9610183-4.5065112,2.0008895-7.088033.0143654-.9275253.1949585-1.8521829.2996204-2.7774778.6785434.0044608.7194407.5211156.8318716.9597067.6040781,2.3573672.2811506,4.6637539-.4268564,6.9126284-.4645288,1.4752463-.9970733,2.9364731-1.624605,4.3376385-3.5050013,7.8256561-3.7108071,15.9403076-1.9075146,24.2534641.2044865.9421822.6961336,1.8531388.3302567,2.8838995-.0946941.2671693.0074759.5958338.2459701.65478,1.3339263.3304169,2.0183331,1.707526,3.2137363,2.2761171,5.2213687,2.4830658,9.5427036,6.3265127,13.6164559,10.5819452,11.0491608,11.5421299,20.9454282,24.1272876,28.9734658,38.3360128,6.3264753,11.197056,10.6791795,23.3957183,14.5801077,35.7855572,2.8859716,9.1662823,5.5470813,18.4119028,7.7180097,27.8082343,1.8172181,7.8656439,4.7628499,15.1235054,8.8505278,21.9121876,2.225165,3.6956036,4.1186074,7.6234868,6.3779268,11.317338,2.3919791,3.9106773,1.9504641,6.2984735-1.2550634,9.4428511ZM3.4854495,203.2410741c-1.4383683-1.9178202-2.5271307-4.0484838-3.1564947-6.433253-.7020703-2.6602228-.3612595-3.78004,1.8130404-5.2611809.929131-.632954,1.1662327-1.1580524.7616573-2.3382495-1.4981751-4.3701385-.7994763-6.4590618,2.7947222-8.9432429.9301571-.6429907,1.8318766-1.3505036,2.8109932-1.8907369,2.9365435-1.6200626,4.4969441-4.2823566,5.4481362-7.632727,1.5715411-5.5348821,2.4528853-11.2419825,3.8001508-16.8299162,1.9384441-8.0404112,4.6915361-15.7390942,8.1584252-23.1393823,5.1945436-11.0882447,10.0803785-22.3612934,16.6707807-32.609954,8.9989454-13.9938109,19.1919014-26.8141158,31.2997746-37.7597746,1.6825062-1.5209694,3.4098675-2.9837893,5.3348257-4.1270255.1180012.1473653.2360023.2947306.3538569.4419366-.4215793.3450738-.8657328.662427-1.2616598,1.0396823-9.6900218,9.2320789-17.6538551,20.1347229-25.4310852,31.2025754-9.1480959,13.0184914-17.33877,26.7417873-25.0510628,40.8053776-5.1201515,9.3364295-8.0318488,19.5353842-9.8885716,30.1456873-1.0470589,5.9831913-2.0659,11.9819954-3.7774301,17.7944023-2.1145664,7.1812316-5.5400452,13.3828422-11.6130745,17.4630295-.6836006.4591425-.4381435.8803684-.2460434,1.4239473.8386878,2.3718648,1.6058421,4.7685825,2.1202099,7.2898836-.5629609.0812501-.7272097-.3555885-.941151-.641079ZM3.7841903,188.8626796c.2648797.801986.4995627.7388977.943423.215711,2.4428442-2.8794387,4.5066187-6.0421375,5.9660221-9.7694445-1.5568093.8768635-3.1379517,1.7068887-4.6648576,2.6414238-2.5048498,1.5332366-3.2288346,3.9317068-2.2445875,6.9123098ZM88.8383368,81.8869274c-.9730333,2.2635313-1.9308217,4.5364622-2.8355462,6.8332901-7.185905,18.2452605-11.5381694,37.2772129-13.3105324,57.0136512-1.0650889,11.8628287-.8213175,23.7527407-.4699525,35.6385105.1307541,4.4244645.015538,8.8632673.5602491,13.553786.4635027-.6519123.4130774-1.1825868.4724445-1.6799647.4835849-4.0511922.342863-8.121502.2906787-12.1863951-.1802999-14.0868501-.0161244-28.1513964,1.6913013-42.1528543,1.129733-9.2652162,3.1102471-18.2020865,7.4377386-26.4097772,2.1899845-4.1537903,4.2027474-8.4206934,6.0135157-12.7964079,3.2615231-7.8812567,6.7304645-15.6650132,9.3893754-23.8257064.2365887-.7258339.5974817-1.4583591.2280867-2.3572079-5.8487538,15.6465328-12.6116136,30.7921829-20.2252546,45.8731515,3.055131-13.58071,7.2835308-26.3852429,11.8959841-39.0589791-.7003846.3144856-.8894797.9762753-1.1380883,1.5549033ZM114.0161226,134.596396c.8915318,14.4210906,2.8830399,28.6858944,5.0409222,42.9301466,2.7068443,17.8681646,8.5774393,38.5131698,10.3215113,41.3409908-9.5388924-41.816702-17.0273495-83.9246298-15.4357262-127.3338332-1.3444805,14.358321-.814428,28.7086762.0732927,43.0626957ZM81.5671192,63.822966c-7.2679928,4.8482394-35.7137515,54.9062474-36.8492013,64.9417461,10.7865532-22.6517226,22.4965939-44.6835549,36.8492013-64.9417461ZM87.1089234,32.6955868c.1328063,3.9702607-.2109363,7.9035606-.5114361,11.8453041-.1182943,1.5513984-.2367353,3.1072575-.2486087,4.6621608-.0055702.717231.4067742,1.2990452,1.155532,1.3528933.7675207.0552819.7522758-.695405.8888933-1.1937388.6311963-2.3022446.9903303-4.671879,1.1263615-7.0593565.2959557-5.1985706.6880714-10.4492368-1.4031146-15.367415-2.0058734-4.7179207-4.4013705-9.2817848-3.9668916-14.8130027-.7222258,1.1919863-.8562048,2.4532741-.8971021,3.7453095-.1037824,3.2868043,1.1407269,6.1840861,2.2316147,9.1208778.9208489,2.4789237,1.5343084,5.0050042,1.6247516,7.7069673ZM86.8239615,4.3150971c4.1002843-2.5279923,5.8335089-2.1931146,8.9716072,1.663874.855765,1.0521087,1.7409937,2.0975263,2.7276594,2.997331,2.1062843,1.9206879,3.4909291,1.7433716,5.2348545-.5266916,1.2591678-1.639021,2.4271595-3.3723558,4.0302165-4.6573814,3.1310622-2.5098306,6.0228972-2.2748426,8.7391229.7325251.8733553.9667165,1.6849981,1.9987517,2.5435483,2.9817182.262974.3011032.5878071.5384808,1.2005337,1.0890695-1.0990966-2.9294633-2.1932094-5.2841221-4.1281355-7.030202-1.7643008-1.5918641-3.6962951-2.0656635-5.8758721-.9734077-1.5539509.7787261-2.8796684,1.8677957-4.0338811,3.2103336-1.0800406,1.2565084-2.0979289,2.5762644-3.1694675,3.8421724-1.3180951,1.5571337-1.7575579,1.6069989-3.0870866.0152941-1.3185349-1.578641-2.4236415-3.3694881-3.75962-4.928215-2.5022112-2.9195858-5.6438276-3.0381153-8.4336392-.4479906-.6927622.6433094-1.3134044,1.3586286-1.8537178,2.3059088.4592518.1452942.6590475-.1296815.8938772-.2743385Z"/>
  </g>
</svg>