<?xml version="1.0" encoding="UTF-8"?>
<svg id="Layer_2" xmlns="http://www.w3.org/2000/svg" viewBox="0 0 155.3883936 120.5143746">
  <g id="Layer_1-2" data-name="Layer_1">
    <path d="M73.8167484,41.9382834c-.4759283,2.5705972-.9610808,5.1395207-1.4261735,7.7120789-1.9387429,10.7234871-2.1573341,21.5481541-1.9112449,32.4016931.2102476,9.2727259.8496587,18.5239306,1.3518546,27.782105.0685545,1.2637711.3488305,2.4945671.5598274,3.7366171.0625528.3682346.0760613.7461368.0928299,1.1204668.0210404.4695331-.0438919.9422013-.6178524,1.0010194-.5634934.0577689-.7658469-.402084-.8431573-.8454743-.1754238-1.0060406-.3887004-2.0180643-.426603-3.0336227-.5300312-14.203704-1.6100098-28.3939182-1.2401577-42.6208546.2290771-8.811524,1.1312024-17.5411786,3.8648078-25.9888086.1044836-.3228813.2273534-.6399482.3466946-.9578395.0432299-.1151381.1012486-.2247241.1525161-.336852l.0966583.0294715ZM108.4685681,65.7418851c-.6785129-.0554894-1.3611351-.0606792-2.0397104-.1157376-.2493493-.0202347-.61601.0126155-.6057927-.3777024.0083187-.3173667.3057068-.4216817.5765898-.488144.6891548-.1690786,1.3496813-.022789,2.0048243.1906686,2.8855595.9402028,5.094742,2.8161868,7.0522519,5.0554904.4341723.4966751.4201953.8396787-.1089053,1.2489635-1.5094607,1.1676124-2.9797134,2.3859428-4.4908853,3.5512632-5.7925278,4.4668409-11.2090519,9.3091484-15.8833362,14.9823288-6.8305942,8.2902925-11.0759274,17.9086325-14.715143,27.864243-.1297833.355057-.1611534.7321599-.0988816,1.1097499.0461652.2799262.1428859.5540693.4540823.6076788.2683662.0462401.4275148-.1796394.5615636-.3744549.3345537-.486208.4703825-1.0563901.6251656-1.6118584,2.9789702-10.6907931,8.028921-20.2857383,15.1599135-28.7942285,5.3148883-6.3415634,11.677161-11.5319706,18.1202478-16.6412329.6171592-.4893869.9842196-.6373002,1.6194277.0799896.9948491,1.1234208,2.2462295,1.0029492,2.7832492-.0922803.3192965-.651196.235822-1.2640209-.237808-1.8046503-.5900796-.6735666-1.4036031-.6603703-2.0715239-.3365959-.8359315.4052066-1.1471216.0793526-1.5967198-.5599461-1.8443579-2.6225455-4.1047517-4.7377739-7.3260828-5.5589353-1.0537172-.2686098-2.0941943-.3181786-3.0348843.369621-.4988485.3647497-.803581.8339955-.7162094,1.4826309.0849109.6302805.537869.9142537,1.0759254,1.1034234.3884568.1365657.788305.2309881,1.2041161.1728071.9408274-.1316569,1.880568-.2709205,2.8841106-.4162671-.2955144-.6210125-.7666214-.6117507-1.1955851-.6468243ZM118.727712,71.3172955c-.0105795.2994677-.2691968.4711319-.5861326.3881508-.3453893-.0904193-.8278626-.1030097-.8744525-.5396926-.0425554-.3989176.3706078-.3782395.7013082-.4045446.2970758.0987692.7779128.0290156.7592769.5560865ZM87.020045,58.8562449c-.1449906.3236495-.3064062.6410349-.4324486.9719039-1.5041272,3.9482324-2.8001552,7.9654751-3.945041,12.0311001-3.5677758,12.6696619-5.7944763,25.5732722-6.7069751,38.702862-.1630082,2.3454422-.4329045,4.6896852-.244403,7.047493.0365537.4571424.1243624.9178947.7463554.8837454.5794251-.0318135.576671-.4546693.5791129-.887705.0410628-7.2775569.8665772-14.4929732,1.8104272-21.6927388,1.4242874-10.8644745,3.8540222-21.5141236,7.0335723-31.9971235.5004223-1.6498797.90087-3.330074,1.3475329-4.9962476-.0627152-.0210966-.1254303-.0421932-.188133-.0632897ZM40.2325603,76.472292c12.4612879,12.0537268,21.9232648,26.079715,27.8931711,42.4038684.1515294.4143622.3383009.8177328.5348775,1.2131843.1976633.3976249.5618384.4865203.9576084.3883444.4956384-.1229697.3556003-.5462877.2856969-.8413649-.1484942-.6268519-.3417608-1.2479206-.573286-1.8495664-3.2324102-8.4002844-7.4226224-16.2825349-12.6513944-23.6203963-4.2045889-5.9005837-8.6922391-11.5445986-14.1219719-16.3821847-.7573159-.6747407-1.5580927-1.2944979-2.5974394-1.6132573.0906441.100724.1755675.2073685.2727379.3013725ZM81.5757419,6.3434224c-1.9631432-.3814121-2.4090879-1.294398-2.829864-2.9298979-.5999347-2.3318587-2.6615848-3.3329593-4.9537234-2.6666091-1.3558891.3941712-2.4481147,1.2102459-3.2099646,2.3955231-.3407615.5301592-.5520646.6877465-1.1411012.2702304-1.9400044-1.3750964-4.0569128-1.4620183-6.2261442-.6158071-2.5773234,1.005413-4.721405,3.6837101-4.7754892,6.0462675.4689398-.8957395.8807602-1.6767906,1.4313571-2.3711103,2.2567154-2.8458051,6.0147913-3.7016591,8.8492018-2.001558.313376.1879675.6788439.3383977.7544993.7744155.3369831,1.9421715.9762694,3.8203633,1.1217221,5.8073385.1463395,1.9990567.416392,3.9890578.6322353,5.9830309.333161-2.6247189.5465187-5.2429895.4677469-7.8660221-.046365-1.5439784.1772037-3.1645832-.7884736-4.5608824-.1137766-.1645196-.0567634-.2987058.0182362-.4661107.6896794-1.5394193,2.9165236-2.6986849,4.6208996-2.3924567,1.6416734.2949711,2.9241366,1.8746819,3.076253,3.789268-2.0403162-.2963576-3.4580024.7431609-4.220939,3.1713594.6845708-.6189266,1.2085191-1.2912941,1.9540626-1.703739,1.1730333-.6489414,1.9923025-.4261939,2.6146639.768548.2659493.5105396.4587288,1.0591943.7185326,1.6699208.4416916-.7394481.2274721-1.3733259.1068256-2.0013144-.0877712-.456877-.0021359-.6137961.5193517-.4727931,2.0332465.5497569,3.2292563,1.9903602,3.3566289,4.1177107.0198787.3321274.0388519.6643048.0672992,1.1513934,1.534854-1.638813.5890929-5.3618529-2.1638167-5.8967054ZM136.7020574,40.1762321c-.3808375.020191-.4320114.1990872-.501434.3446898-1.6332547,3.4260827-2.7774161,7.0147677-3.5520064,10.7251609-.0678987.325267-.0588431.6432395.2341358.9180383.6528447-.7423272,1.287141-1.4044212,2.0924956-1.8727989,2.5164506-1.4634891,4.6866625-.2964762,4.8529745,2.6163127.0274293.4802063-.0828874.9412333-.2367963,1.3994187-.515998,1.536203-1.203017,2.9173854-2.6893326,3.7925811-.6646858.3913921-1.2286851.9711857-1.7900863,1.5153125-.4923034.4771399-.9171203,1.0239084-1.3717396,1.5399314,2.7575936-1.5636822,5.3413059-3.2995033,7.9411435-5.0108053,2.6217336-1.7257037,5.6209323-2.7511234,8.2865578-4.409759-3.5745269.4107525-6.6993433,1.9592274-9.9315661,4.0090115,1.1080262-2.4457664,1.312959-4.5896045-.4985737-6.4223461-1.6030275-1.6218258-3.336619-.6466432-5.1491509.0499311.8858813-3.1545752,2.1286308-6.0278189,2.3133789-9.1946786ZM110.4074172,56.6129694c-1.6606091-.9405775-3.4260015-1.3223644-5.3143512-1.0028555-1.5871145.2685411-3.1049189.759533-4.5236355,1.5373958-4.775433,2.6182987-8.0787646,6.7169051-11.1319601,11.0665594-.0270546.0385459.007944.1206589.0291905.3382759.294715-.3399309.5290632-.5985669.7506584-.8677138,1.4310573-1.7382255,2.9229937-3.4230413,4.5408975-4.9887532,2.6078316-2.5237138,5.358318-4.8593696,8.8308594-6.1349131,3.6365801-1.335798,6.6867778-.481243,9.1317698,2.5143459,1.5836796,1.9403229,2.7694971,4.1233127,3.8733639,6.3555091.4462507.9024001.8752269,1.8133625,1.3120597,2.7204279-.0660002-1.2565453-.4865952-2.4039355-.9149719-3.5375361-1.9794559-5.2378527-4.8298919-9.8375683-9.6551123-12.9612043-.6890549-.4460696-1.3861912-.8689566-2.2196246-.9877295-.9216418-.1313509-1.5975192.2405684-2.0259833,1.0430689-.3718943.6965055-.1987125,1.3509178.3462511,1.8606518.6453004.6035757,1.4074876.9675509,2.3279554.6904164.1417305-.042674.3851718-.0895512.3355717-.3044702-.0320883-.1389764-.1811258-.2848662-.3155618-.3601032-.4445644-.2487935-.9173701-.4479681-1.3568259-.7047181-.2235063-.1305889-.4975245-.3111589-.3840476-.6383307.1109662-.3199148.4065057-.4731803.7241659-.4780954.2285775-.0035348.4751913.070172.6859572.1688163,2.5104676,1.1748757,4.46799,3.0064994,6.2852684,5.2297838-.6240789-.0440168-.961849-.3492426-1.3318947-.5588282ZM26.2704084,60.4456952c-.7472578-.5296877-1.4828745-1.0768185-2.2443528-1.5851972-1.3362757-.8921391-2.6257899-1.8363951-3.6853839-3.0594782-1.3529351-1.5617087-2.252631-3.3310545-2.3507631-5.4256485-.1067944-2.2794545,1.7646056-3.7777985,3.9634271-3.2245161.980282.2466701,1.8237328.7448815,2.5903167,1.3831622.7669367.6385743,1.5211893,1.292387,2.2810064,1.9395235-.1284062-.5825415-.4104745-1.0282052-.7089899-1.4625773-.5987449-.8712361-1.1715782-1.7314181-1.3144391-2.8360344-.3246268-2.5101179-1.1373228-4.9013067-1.9127937-7.2976292-.096168-.2971757-.0844862-.6723363-.5586034-.9105814-.5721244,3.1488857.9102286,5.8602829,1.6554973,8.7756948-4.0842984-2.1457054-7.9524069,1.1447484-6.9479213,5.9285938-2.594551-1.9446447-5.2785001-3.5335017-8.5930514-4.1176108.2901529.5012029.6638864.6165284.9746643.7986347,1.7039951.9984838,3.4383454,1.9466994,5.1216748,2.9784206,1.3017206.7978353,2.7245872,1.4825435,3.6665949,2.7338989,2.054696,2.7294585,5.1659414,3.8935611,7.9116314,5.6018967.0504931-.0735195.1009894-.147039.1514857-.2205523ZM27.8164852,69.1081505c-.1217237-.1996493-.4113988-.1815754-.6722488-.2202775-1.6536799-.2453461-3.321265-.3688029-4.9885471-.3796947-2.6641016-.0173931-5.3196628.1345172-7.7988509,1.262216-1.1954196.5437646-2.2739711,1.2680554-2.8141353,2.5400265-.2956019.6960746-.3351814,1.4291088.2868273,1.9803927.5860545.5194204,1.2575133.5054935,2.0478418.0730449-.2809973-.1501367-.454151-.2440908-.6285912-.3356217-.8861842-.4649491-1.0552035-1.0467099-.4955135-1.882629.2042021-.3049823.4744856-.5882185.7702811-.8056544,1.7179033-1.2628281,3.6943615-1.6804379,5.7916847-1.7157425-1.1372884.6189765-2.3412078,1.1114111-3.2555646,2.0891668,2.2103379-.8608565,4.4187616-1.6832732,6.9481212-1.8182776-1.1599869.9467666-2.2283836,1.7699016-3.2415439,2.6561764-1.9412941,1.6981807-3.6019906,3.6240271-4.5808705,6.0520694-.2761603.6849955-.5288009,1.3941477-.2203181,2.2797417,3.1071204-5.3748056,6.7961515-9.8704435,12.8514278-11.7749372ZM64.1185811,36.0272638c-.2650062-.1532593-.5317799-.3037582-.8016512-.4482929-4.8307225-2.5872721-9.9859501-2.9372517-15.2955923-2.2134543-2.6759052.3647747-5.2892014.9662144-7.729116,2.1639292-1.0259069.5035949-1.9301181,1.1676624-2.3316838,2.3111056-.2480565.7063169-.1334118,1.3601796.4398617,1.8614387.5584223.488269,1.19067.4758783,1.7909919.0724328.9882228-.6641237,1.961076-1.3512863,2.9359839-2.0350452,3.757595-2.635392,7.8098551-4.0197971,12.4915026-3.3152164,2.9259665.4403614,5.8342838.8882733,8.6505268,1.7393496-.0499123-.0460402-.093467-.1030722-.1508237-.1362472ZM40.0142564,38.9263131c-.2619273.1654938-.5596713.4522087-.90917.0994062-.3378075-.3409926-.3540702-.7152289-.141156-1.1180249.1952838-.3694524.4883689-.6592836.8239281-.8943749,2.3344317-1.6354593,5.0106617-2.0867936,7.8029416-2.1956927-2.8821371.7341334-5.1454849,2.5727081-7.5765437,4.1086863ZM41.3682906,63.4704371c2.0708682-2.2615055,3.9018736-4.7368121,6.1104815-6.8748421,1.726653-1.6714946,3.5629232-3.1750847,5.974353-3.7680309.5771768-.1419116,1.127755-.2595354,1.4874897.4151991-.1156127.0757054-.1936975.1578434-.2864151.1807323-.1632018.0402883-.3349909.0569195-.5037885.0616597-1.4755175.0414375-2.5333253.883633-3.5127236,1.853401-.3324428.329164-.4698204.765085-.2648876,1.2218777.2207396.4920349.6850017.5556618,1.1329261.4780642,1.5608281-.2703709,2.925292-.9342511,3.8718837-2.2430382.5529826-.7645854.7158222-1.6596723.1580932-2.4910635-.563331-.8397474-1.4502928-.965796-2.3739706-.761825-1.2051778.2661366-2.3253386.758771-3.3892293,1.3840366-5.1188238,3.0083918-7.9820626,7.9304641-10.8711819,12.8339067.9607186-.6287067,1.709747-1.4631643,2.4669692-2.2900777ZM54.5566735,54.2399418c.1244686.2347603-.0793776.3793449-.2272909.5052311-.8622991.733946-1.8278766,1.2965838-2.8908867,1.6861211-.2192782.0803581-.4880067.1777096-.6524013-.0690854-.1565443-.2349976-.0054459-.4708259.1516168-.6486604.8212239-.9298357,1.8954943-1.4036343,2.93619-1.6636318.3534957-.0234885.5748349-.0135773.6827721.1900253ZM80.6373689,29.8798351c.4266904-.5304496.8515822-1.0623919,1.2728268-1.5971757,3.5339014-4.4864261,7.7047782-8.1707827,13.0754993-10.3256936,1.9102706-.766459,3.8601738-1.386007,5.9573784-.8484752.8149224.2088705,1.5974942.5511652,1.7410234,1.5001864.1347983.8912148-.4960006,1.3431924-1.1941112,1.7070834-.063577.0331406-.091406.1348919-.1506988.2281903,1.4042151-.097364,2.2890972-.7664621,2.5066705-1.8634435.1941784-.9790922-.385484-1.9686703-1.5056635-2.5295657-1.4736127-.7378556-3.0360709-.8134797-4.5798806-.3749701-7.1917342,2.0427612-12.8150896,6.1735433-16.6308407,12.6608842-.2832175.4815178-.5072296.9978593-.8599572,1.6992299.2665176-.1836988.330157-.2095044.3677537-.2562503ZM128.5006728,71.0921155c5.7205821,2.471497,10.0208862,6.3735892,12.7613927,11.9835423-1.0672444-5.4572184-4.1794578-9.1932109-9.4569244-11.2524254,3.3309983.1177674,6.4792969.8000649,9.7049497.8455992-4.124899-2.3948798-8.5488848-2.2150406-13.009418-1.5767161ZM98.7794815,35.9110328c1.1574638.896617,2.3780925,1.73396,3.0051692,3.1358393.5985357,1.3380838.4493733,1.8271459-.7808356,2.6105171-.1458274.0928612-.3466134.1939786-.2885822.363332.040407.117886.2500363.21525.4010098.2518349,1.1747633.2847101,3.3243533-.7011832,3.8836936-1.7670038.5814236-1.1079013.2274658-2.5264493-.9143723-3.5839948-.7022574-.6504216-1.4684041-1.2182117-2.3365489-1.6324241-4.4450449-2.1208367-9.1327316-2.5948914-13.9518316-1.9364571-1.2896641.1762107-2.5763803.5635871-3.6500574,1.4805512.340543.1699717.5871568.0204471.8453994-.0406693,4.2011914-.9942683,8.4104892-1.3109168,12.6076587-.0162003,2.1605567.6664657,4.2341041,1.5480128,5.8493974,3.2051432,1.0371547,1.0640219.9197058,1.9153668-.3987116,2.8506733-.4221813-2.8127832-2.17271-4.4500661-4.7265449-5.3238878.1513358.1347545.2953396.2789519.4551564.402746ZM46.4756918,72.7778056c-.9705674-.6892922-1.9678272-1.3430737-2.9138007-2.0643543-.9455488-.7209621-.9036742-1.2803461.0246252-2.0152914.9647593-.763811,2.0950249-.7033941,3.2164285-.7038687,1.5955769-.0006682,3.1979674.2515414,4.7836518-.0991627.8490341-.187777,1.5681726-.559078,1.5800137-1.5779902.0098051-.8428825-.734633-1.573631-1.7324299-1.7147495-.6434206-.0910001-1.2888896-.0214276-1.933222.0610352-2.7056078.3462761-4.9369611,1.6758476-6.9543134,3.4040931-1.4081621,1.2063707-1.3067262,2.2331144.2333364,3.2601517,1.3865847.9246833,2.9982557,1.474893,4.2955202,2.5430617,1.0603434.8731035,2.0845703,1.7900863,3.1248039,2.6876089-.9501016-1.5547015-2.2630856-2.7425674-3.7246137-3.7805339ZM51.3790907,65.6817617c.360072.0399698.937355.0598298.9156651.6056553-.0187483.4716378-.5291194.5913849-.9164645.685951-1.0997512.2684724-2.2258637.2655058-3.3507209.2551074-.8642726-.007994-1.7286639-.0015988-2.8550887-.0015988,2.0688634-1.2480642,4.0481257-1.7847091,6.206609-1.545115ZM107.6179726,72.1158927c-.2715076-.0146827-.543852-.0213963-.8158092-.0191106-4.7768194.0400885-8.8528179,1.8642803-12.4921334,4.8533117-4.8833141,4.0107727-8.217997,9.2215645-11.3784615,14.5721884-.0227328.0384835.0233824.1176487.0477515.222632.4926594-.7259021.9656087-1.4274975,1.4433418-2.1258329,2.00212-2.9266909,4.1169987-5.7642366,6.5713961-8.3348089,3.8584002-4.0410248,8.2258161-7.2369875,13.8435508-8.3666348.9836825-.1978007,1.9654165-.4052254,3.0406799-.627339-.1613782-.1109975-.2092795-.1716454-.260316-.1744059ZM21.6468982,63.9531477c2.2957297.7007024,4.6145888,1.3329814,6.827787,2.2752326,2.2426479.9547918,4.1927478,2.3963287,6.2348314,3.7372166-2.3005448-5.2691978-5.1272986-10.2078201-8.4420435-14.8719371,2.0034503,4.5315296,4.3570706,8.8759816,6.9113239,13.1142825-4.5690919-3.917849-7.819045-4.4548687-11.5318988-4.2547947ZM48.0190955,21.882484c-1.0548725-1.3333186-1.1237081-2.8614527-.4864453-4.3479307.6523826-1.5217576,1.9244412-2.3363053,3.5963667-2.4820609,1.4600979-.1272883,2.8518349.116028,4.1687659.7602106,1.6917043.8274973,3.2574163,1.8473993,4.677001,3.0882346.4856022.4244671.9752826.8442784,1.4631019,1.2662161-1.3417435-2.67124-5.1656072-5.5691839-7.9435917-6.1955954-1.4750616-.3326239-2.9105531-.2086675-4.2840351.456596-2.0292433.9828925-3.181355,2.9467164-3.0104402,5.1329444.1466331,1.8756218,1.558736,3.576107,3.557546,4.2172668-.6130747-.6628934-1.2217091-1.2429681-1.7382692-1.8958815ZM67.6191701,94.9237398c-1.8054497-10.864462-4.3056189-21.4934017-10.4463526-30.8881355,4.7288119,9.8733975,7.8841678,20.2802174,10.4463526,30.8881355ZM17.0379552,85.5253712c-.1134363.4869949-.1349388,1.0230903-.0690479,1.5192158.2384169,1.79512,2.299658,2.784798,3.690964,1.8037635-2.9024561-1.1594374-3.3037751-3.1462377-.890481-5.8241664-.6958248,2.0169526-.9462795,3.7383658.6818541,5.3243562-.061057-.3773901-.0644357-.5833972-.1287341-.7682077-1.1402081-3.2773138.0141237-5.9404037,2.2711357-8.2638499,1.0646495-1.0959852,2.2386571-2.0857257,3.4718201-3.2239416-3.5330489,1.0888906-8.2343972,6.0279251-9.027511,9.4328301ZM136.8532558,91.1195737c.9950489-.8048925,1.1807463-1.8817796.9424886-3.049161-.6974735-3.417483-2.5254188-6.2124733-4.906609-8.6781872-.3680597-.3811248-.9329583-1.1496198-1.3360416-.7400414-.4203577.4271401.3915669.9338826.7213805,1.3761738,2.119038,2.8418799,3.5118742,5.8482108,2.1422455,9.4798571-.0364225.0965771-.0034224.1923798.199337.2280279,1.1643337-1.1757875,1.1582133-2.7101419,1.1120107-4.2661549.5541942.9364432.8984593,1.887313.9460109,2.9208703.0831123,1.806449-.8927636,2.6423555-2.6853481,2.3166389-.1942284-.0352859-.3858588-.0849983-.8127615-.1802639,1.4181796,1.2928991,2.6367473,1.4339427,3.6772869.5922405ZM14.3588305,58.1421339c-2.1922359.1283719-3.8442109,1.8817234-3.4838142,3.8073949.1487908.7950499-.0987536.9830392-.7518513,1.1665258-1.9366351.5440768-3.2682737,1.7714691-3.9073382,3.6954669-.6192185,1.8642554-.0440105,3.7825949,1.3998809,4.737368.506908.3351907,1.038029.5474305,1.6588135.282237-.1140983-.3959324-.3819992-.5079416-.5939548-.6686453-1.3629931-1.03342-1.8587814-2.7979568-1.277773-4.5733605.5586689-1.7071302,1.9119475-2.7794146,3.5950677-2.8400001.5783603-.0208155,1.1597527.0020297,1.7348249-.0498249.2394162-.0215775.6076382.0361914.6807674-.2939656.0593833-.2680914-.2290584-.3896559-.4317148-.5029766-.8600602-.4809183-.8801232-1.2062333-.6138679-2.0270512.4134442-1.274538,1.1765682-1.8993476,2.5361014-1.9960246.6359325-.0452221,1.2777481-.0077317,1.9168969-.0077317-.7696659-.6479984-1.6116835-.7792118-2.4620385-.7294119ZM36.9503815,43.4978812c-2.9082423-2.8390009-7.5295261-1.6010228-8.5410282,2.3324769-.8202777,3.1898673.4647336,5.8877184,2.182893,8.4466744-.2857093-1.4959646-.6951097-2.9615459-1.0288266-4.4441518-.3773652-1.6765283-.2442157-3.3041623.6197572-4.8401466,1.1734643-2.0862003,3.1247976-2.6562763,5.1817888-1.4423738.5512152.325292,1.0400025.76343,1.5327306,1.1790663.6979607.5887806,1.3729949,1.2047344,2.0578342,1.809072-.3768905-1.2416191-1.1304967-2.1867932-2.005149-3.0406174ZM61.8307018,38.6284816c-.5859327.1781593-1.1694735.3654054-1.7485427.5647425-4.2340167,1.4575249-7.7326196,3.9679675-10.5503616,7.4304665-.6239603.76674-1.1943922,1.5931974-1.0858929,2.672158.0385959.3837853.1208525.7799301.5864511.837955.4202515.0523605.6019644-.2760229.7000216-.6149046.3302632-1.1414384.9839073-2.0862003,1.7638999-2.9550133,1.1859423-1.3209904,2.4562772-2.5520237,3.8575571-3.647628,2.2919325-1.7919537,4.830785-3.1650548,7.359801-4.4996536-.2946339.0695662-.5938767.1239814-.8829336.2118776ZM67.1330495,20.7590383c.0013677-.488856-.0769232-1.2367446.4350154-1.334499.4712818-.0899914.583241.6537003.7340647,1.0797975.8202808,2.3174008,1.3176367,4.7164463,1.6466509,7.1450007.2758168,2.035932.452777,4.0852664.6735041,6.1286616.5797062-3.9771231.6349895-7.9387578-.29479-11.8605164-.2585424-1.0905456-.686538-2.1417053-1.4644446-2.9979528-.3481934-.3832607-.7741344-.8141417-1.2817138-.7045276-.554138.1196597-.8045427.684068-.9444371,1.2359327-.4493733,1.7726776.2118463,3.3227826.9767378,4.8410116-.1077562-1.1971839-.483916-2.340015-.4805873-3.5329084ZM121.8930353,47.5282016c-.1786901-1.4110349.3688966-2.3702234,1.6709887-2.9117772,2.496703-1.0383975,5.0052345.420033,5.3161748,3.1740417.2657244,2.3535298-.2922669,4.531617-1.7285953,6.45539-.1571814.2105161-.4395807.3732932-.4503351.7653411,2.7140389-1.7969437,4.1379766-5.783266,3.1562427-8.7244523-.5526329-1.655669-1.6980183-2.6825939-3.4208554-3.0207387-1.8009531-.3534707-3.3047681.2378205-4.4943202,1.5788458-.9384542,1.0579764-.9607623,2.6235697-.1370091,3.3429143.229914-.1929668.1159625-.436483.0877088-.6595647ZM60.2560466,14.0833209c-2.8776155-4.7273755-6.4620162-8.8345036-10.8295383-12.2392867-.7526382-.586729-1.6552131-.9411865-2.6078878-1.1102776-.2247991-.039898-.5108394-.0885082-.6185768.2023598-.119235.3218758.1857598.3972751.3774276.5047315,3.1977301,1.7927812,5.7308618,4.3520432,8.162033,7.0356207,1.8023583,1.989464,3.6333263,3.9529975,5.5787017,6.0662025-.0426491-.3314654-.0311203-.4083636-.0621593-.4593502ZM122.5947681,52.0233774c-.8822341-1.5949586-2.0062232-2.5228645-3.7347435-2.5257498-1.2171313-.0020297-2.0265828.9891346-1.7457073,2.1779811.1008739.4269965.2595666.8485033.4494857,1.2449166,1.0399525,2.1706803,1.5760604,4.4772643,1.9625062,6.8384321.1310886.8010204.0268422,1.6639878.4915165,2.558219.4696955-3.761517-.3026341-7.1807487-1.6912984-10.6532964,1.5009796.1264233,2.8332115.2386324,4.2682408.3594974ZM79.9481829,20.5397975c.8712299-1.409077,1.6464697-2.8734717,2.2445433-4.422387.2066565-.5352054.2866836-1.1647396-.2104599-1.6254887-.5145366-.4768807-1.1531921-.5549905-1.8129503-.3505479-1.0367674.3212762-1.8898985.8995679-2.5285539,1.7978305-1.203935,1.6933219-2.4500819,6.8593007-2.1202933,9.2157408.2392194-.7186825.4164981-1.25697.5974803-1.7939959.6609324-1.9612384,1.1215722-3.9954186,2.0981038-5.8419186.4545257-.8594357,1.035356-1.600645,2.011769-1.9235169.3248486-.1074189.6732543-.2583487.9508948.0294184.2581302.2675543.0380213.5906354-.0544089.8601289-.4494795,1.3105108-.9276498,2.6111822-1.3956591,3.9153353.073176.0464649.1463583.0929361.2195343.139401ZM68.654651,34.2028409c-2.3258819-3.49598-5.0797408-6.6435792-7.9660185-9.6774205-.4113395-.4323674-.9227473-1.3725452-1.4609535-.9532118-.6657163.5186835.0519358,1.3021734.4285203,1.8702945,1.3823753,2.0854696,3.1988355,3.7912571,4.9673631,5.5331486,1.4364158,1.4147946,2.9099536,2.7918927,4.4652546,4.2796697.0341305-.5659416-.2589608-.7891231-.434166-1.0524806ZM64.7968004,41.3182389c-.5859327.7332903-.9429632,1.6209702-.331912,2.4395461.6564608.8793987,1.5503923.4011472,2.3161518.047027,1.2123224-.5606268,2.2567591-1.3898947,3.3184765-2.1881359.2185475-.1643197.3729997-.4203952.7843642-.2214391,1.2481891.6036256,2.7821063-.0116412,3.3407284-1.2694793.3361775-.7569661-.0411939-1.2827755-.8905591-1.2111171-.7368563.0621593-1.3498998.4502539-1.9557488.8279438-1.5015291.9360747-2.9766782,1.9159226-4.4991103,2.8161619-.4941832.2922294-1.2424247.8722604-1.6393813.3608339-.416979-.5372008.2776717-1.1598933.6889113-1.6347973.9770063-1.1282734,2.2245709-1.8637432,3.6111805-2.3969783-1.9539439.1013735-3.5378109.922054-4.7431011,2.4304343ZM71.466972,41.0875567c.3820179-.783009,1.1272929-1.0816835,2.1069659-1.5095481-.4913541,1.1018621-1.3406506,1.2418751-2.1069659,1.5095481ZM41.3444211,51.2443341c.1293211-.4863891-.0222582-.8834082-.3777211-1.1944734-.8355318-.7311481-1.8455382-1.0638782-2.9257354-.959863-1.1701855.1126899-1.8578602,1.2570574-1.5344918,2.4943797.4079796-.7981913.9530806-1.3390955,2.0618999-1.4962394-1.1874475.8500271-1.3498062,1.8886557-1.3215962,3.2428335.3221069-.6016896.5218936-1.0196679.7621497-1.4129148.3380948-.5533698.8171207-1.0573394,1.4898255-.7699688.6917529.2955144.3391065.9429695.1811945,1.4372089-.7967299,2.4936865-1.2410195,5.0570767-1.5350413,7.6600369,1.2552588-2.9350471,2.3786109-5.913499,3.1995162-9.0009998ZM91.117777,46.9180621c.221945.3871578.5073545.7887859.1679357,1.2168815-.3169358.3997483-.7977104.3433658-1.233469.2394568-.259017-.0617721-.5342967-.171558-.7353075-.3397685-.7682077-.6428773-1.3440855-.6749031-1.814318.354395-.1879956.4114957-.5698074.8365686-1.1454729.6141052-.5156982-.1992933-.6211936-.6887551-.6321104-1.1833006-.0209592-.9495895.3142753-1.7918787.7712803-2.6092056.2155748-.3855278.5923404-.752557.4299005-1.2941732-1.8962562.6709686-2.9393501,3.3185639-2.0062357,4.9867797.5194079.9285928,1.6014537,1.5362592,2.2609809.995024,1.050657-.8622179,2.0562604-.8276878,3.1967621-.4587288.0929049.0300586.203359.0106982.305382.0069635,1.226874-.0448162,2.1858002-.881672,2.1539867-1.8782698-.0369721-1.1573702-1.1953228-2.0494968-2.5134279-1.9239603.0412689.5656605.5460628.8411339.7941131,1.273801ZM64.7162238,90.5515774c-3.010078-8.080301-8.2185216-14.3593615-15.473608-18.9615003,6.2859241,5.3962269,11.6864103,11.5179312,15.473608,18.9615003ZM142.7832922,66.8399812c.8567658-.0941976,1.4199782-.4496918,1.963418-.8579649.1729819-.1299519.2942279-.3791638.6038192-.235135,2.0917836.973128,4.5735729,3.5850378,4.2064749,6.1033307-.1798018,1.2334627-1.0452236,1.9619753-2.2007763,2.6624716,2.813339-.4908295,3.8643832-2.2465106,2.9509601-4.7072095-.7701687-2.0748214-2.2317655-3.5563282-4.192423-4.5404291-.4381068-.2198903-.6568167-.4265655-.6672089-.9731467-.0343741-1.8074732-1.177786-3.1589843-3.1946137-3.7665757,1.2868037,2.087031,3.8752999,3.9143017.5303497,6.3146587ZM95.4179438,26.8054182c.8242154-.0753369,1.6330174-.083843,2.429104.141437.402034.1137641.8236408.2996176.740541.818145-.0780661.4870199-.5081539.6069356-.9322338.611095-.3004232.0029478-.6255778-.0196914-.8985593-.1314133-1.4934977-.6111824-3.0049693-.8495025-4.578719-.3443713-.2400188.0770418-.4708821.0277041-.6901666-.0879086.1988749.5649673.6646483.4361021,1.1018183.4513468,1.4173427.0494502,2.8431915-.032819,4.0717142.9701053.6803989.555462,1.497707.3114961,2.1971041-.1462646.5992227-.3921915,1.0399276-.9230845.9748142-1.6819867-.074219-.8650096-.7966112-1.1159015-1.4685915-1.3732135-.5467998-.2093732-1.1293226-.3009104-1.7066618-.2677042-3.0311246.1743059-5.6518964,1.3863411-8.0122898,3.2325975-.0779786.0609915-.0573317.1227199.1184856.1736002.7348204-.3348348,1.5343544-.6934766,2.3275057-1.0657456.1452778-.068186.2645128-.191824.3957638-.2898687,1.3133212-.3217446,2.5607297-.8846635,3.9303708-1.0098503ZM93.2125334,68.1072122c-5.3535092,5.6292947-7.945128,12.6824335-10.3079758,19.8534958,2.8219013-6.9344159,6.4426808-13.4569801,10.3079758-19.8534958ZM122.2716245,70.4808019c4.2602219-4.404463,7.5011381-9.4062314,9.0179432-15.4183434-2.3457669,5.526335-5.9906657,10.2913695-9.0179432,15.4183434ZM124.1354802,84.0046565c.2141883.5023833.4230931,1.0077144.2718073,1.5725755-.0444539.1659622-.1256177.347063-.3118646.33782-.0959776-.0047589-.2547952-.1597794-.264975-.2592293-.1115908-1.0887407-.959788-1.0741267-1.7285703-1.1734768-1.5669423-.2024597-1.722275-.3326989-1.9925835-1.8110955-.0554831-.303446-.1890448-.5477366-.4848465-.5696076-.3016973-.0223207-.483535.2253549-.5505969.5040695-.1091426.453695.0285035.8728537.2396191,1.2727268.57629,1.091626,1.5616088,1.5693779,2.7123527,1.7641434.3890688.0658378.6955375.1432544.8814097.5499599.2556695.5594153.6636116.9745894,1.3550022.8106131.6965992-.1652128,1.0911389-.6387054,1.2379156-1.3376903.3036333-1.4460085-.8020571-3.4913772-2.3254073-4.1185913.1293024.9881416.6328723,1.6887628.9607373,2.4577824ZM30.0080591,84.0962249c-.0081251.5207694.0416779,1.0603122.5809521,1.3164688.5197546.2468637.9653307-.0076942,1.4138578-.3022968.506246-.332499.7970265-.9026437,1.4330839-1.1050284,1.6223192-.5161729,2.2139601-1.842147,2.4386343-3.4421768-.7427144.5838718-1.3344428,1.3118098-2.0074785,1.9546496-.3704079.3537705-.9118492.5698074-1.3813823.1422676-.4068211-.3704329-.6746907-.8267385-.455094-1.4498057.1064384-.3020095.3413361-.6007216.175605-1.0856056-1.2658726,1.0840692-2.1717358,2.2764817-2.1981783,3.9715273ZM31.6895961,84.1435892c-.140775.2309632-.5091469.4280019-.6962588.2076433-.3778742-.4450266-.14905-.931984.1051769-1.4953338.3628012.4447768.9829268.6448133.591082,1.2876905ZM90.3459346,12.1555916c.2677979-.9439375-.1413308-1.6121082-1.106265-1.8078292-1.0551286-.2140197-1.7698891.3956357-2.3980275,1.0753227-1.5460081,1.6728904-2.2176136,3.7589908-2.8111844,6.1068031.6090465-.6361292.8174642-1.2582159,1.1277175-1.8186835.3132261-.5658135.6065921-1.143387.938654-1.697831.5448762-.9097446,1.1433745-1.7832446,2.0497403-2.379913.2825867-.1860221.6051183-.3586543.954592-.1584054.4182468.239666.3099161.6511741.2611654,1.0096067-.0863348.6347022-.5002974,1.1551156-.7855695,1.8509904.9583891-.6820695,1.5615214-1.4480632,1.7691771-2.1800607ZM55.3200785,87.5630706c2.0506959,1.7595219,3.9987193,3.6349438,5.7613326,5.699523,1.7749977,2.0790682,3.2670403,4.3503663,4.6374559,6.716318-2.3482525-5.0632907-4.9361242-9.9511264-10.3987885-12.415841ZM52.3837324,27.2400339c-.2763726-.1303641-.6178586-.2464765-.573717-.6215121.041044-.3488117.2600787-.6087155.6220492-.7364629.598848-.2113655,1.199326-.2084177,1.8086973-.0739941,1.3125093.2895252,2.4881657.8911586,3.6232964,1.5862215.2879889.1763357.5803057.3456141.8706303.5181402-.6320292-.8321781-1.4459961-1.3880023-2.2690498-1.92762-.8860437-.5809178-1.8211317-1.0696364-2.8865899-1.224838-1.096922-.1597856-2.4568955.615373-2.6383211,1.4776659-.1860908.8844824.4216442,1.6335358,1.7210447,2.0404723,1.0614738.3324116,2.1391291.6131434,3.2096086.9167955-1.0262441-.9843383-2.2964042-1.3929299-3.4876488-1.9548682ZM65.2677887,63.8420378c-1.1187993-4.9304223-.7897851-9.7852703.7617688-14.5762978-2.6733134,4.1829427-3.0523149,10.6458145-.7617688,14.5762978ZM31.9909155,20.3273204c-4.0237347-3.3452843-10.0776808-3.9361228-13.1099202-1.2860355,4.5730045-1.6516471,8.8973468-.7554079,13.1099202,1.2860355ZM108.0226797,68.5884552c-3.6641968-1.3762112-9.9510264.6330909-11.7780849,3.7785354,3.5013072-2.6140894,7.4541361-3.7633407,11.7780849-3.7785354ZM124.7349027,69.3168992c3.2626623-.9816528,6.2388159-2.8306384,9.6980799-3.2171592-2.2313658-.9236653-7.8640267.9369803-9.6980799,3.2171592ZM114.4554242,32.3531308c-.0023482-1.0254697-.788992-1.810446-1.8035762-1.799754-1.2637586.0133212-2.2701989.9248082-2.2335641,2.0228107.0318634.9544358.8482722,1.6059503,1.9878995,1.5863776,1.185018-.0203534,2.051589-.7855133,2.0492407-1.8094342ZM113.3365437,32.3811284c-.023882.5427778-.3555192.9004891-.9315843.8251834-.587594-.076817-1.1815582-.2614964-1.1466595-1.0244517.0236696-.5175531.336446-.8560788.8225416-.9541923.667696.1832367,1.2907382.3580048,1.2557022,1.1534606ZM58.0230508,13.8807051c-2.4251945-2.6862599-8.0805445-5.0333664-10.1299851-3.7394806,3.7433183.5632936,7.0021023,1.9806206,10.1299851,3.7394806ZM40.478125,70.822188c.0346426-.6685704-1.4031534-1.5607532-2.5057899-1.5548951-.679712.0036098-1.3675428.6946319-1.3720331,1.3784033-.0054834.834951.8142292,1.4708461,1.8801434,1.4585366.9277248-.0107169,1.9663346-.6772576,1.9976796-1.2820448ZM38.0574771,71.2038311c-.2062943-.0564012-.394852-.1810196-.3682595-.4195771.0297963-.267267.2646253-.2904433.4687462-.251379.4121327.078878.8186196.1872524,1.2274298.2834548-.4656673.354014-.8807664.5097402-1.3279164.3875013ZM138.1306416,60.9947308c3.1021835-.3689028,5.8785878-1.9250157,8.9190179-2.4861984-3.2864319-.263676-6.2774618.4912667-8.9190179,2.4861984ZM146.021598,86.8837959c.0045591.901582.9269004,1.8225493,1.837563,1.8348401.7367064.00993,1.4613969-.8285246,1.4434605-1.6700769-.0196851-.9236029-.8577526-1.7625571-1.7612081-1.7630442-.777026-.0004247-1.5239247.7850325-1.5198153,1.5982811ZM147.8177297,87.6669922c-.4582791-.1321003-.8834831-.4163233-.8732409-.9706299.0055833-.3026216.2055948-.6347709.5712188-.5488607.4697579.1103542.8765259.3648746.8507329.9579769-.096065.2830988-.1388827.6796745-.5487108.5615137ZM49.1623826,28.3634422c-.9299855.0693789-1.7101404.8435695-1.7400866,1.6852092-.0322756.9073214.5003099,1.4621027,1.5917798,1.6273654,1.0343505.156613,2.0613441.0558641,3.318414-.1043962-1.0775117-.4824421-2.0399852-.5023333-2.9324741-.7743655-.3758413-.1145573-.8816283-.1361035-.8716858-.6801991.0083937-.4594345.381943-.7169089.7808918-.8440941.6036007-.1924298,1.2252314-.3282772,2.0779378-.5503409-.8724914-.324936-1.5439097-.4099718-2.224777-.3591789ZM96.4001649,6.1083186c-.8884419-.0518671-2.2289801,1.2255437-2.268775,2.1619182-.0328752.7735161.7715052,1.4547176,1.7598716,1.4903376,1.0311966.0371688,2.0647665-.9400717,2.0881988-1.9743816.0203347-.8975163-.6638739-1.6244332-1.5792954-1.6778742ZM94.8326855,8.0396795c.0660127-.7017547.6361448-1.1663478,1.311635-1.251343.5816859-.0731885.9748642.3763534.9818089.9506231.0091431.7571191-.5898423.9923978-1.171166,1.1699013-.5361578-.1447782-1.1843935-.208833-1.1222779-.8691814ZM98.7888119,18.1297947c-2.866349.0446819-5.4296892,1.1233739-7.8933296,2.4752535-.7128494.391161-1.4011424.8358316-1.9042127,1.5019788.4232181-.1576872.8045177-.3705453,1.1777111-.5967746,2.1772066-1.3197788,4.5486292-2.1662493,7.0257844-2.6455844,1.2391022-.2397721,2.6417685-.5826352,3.6150089.8684507-.2001614-1.1187993-.7820347-1.6226409-2.0209621-1.6033242ZM41.7375556,22.6525715c-.8331212.021821-1.7997103,1.0563089-1.7982427,1.9245598.0013427.7949874.6089529,1.3758615,1.4490625,1.3853044.9616242.0108043,1.9723175-.9261572,1.9740537-1.8300562.0015613-.8129551-.7556609-1.5025783-1.6248735-1.479808ZM41.7399538,25.0700156c-.4084417-.0174056-.7683076-.1989686-.7186888-.655474.0525853-.4838348.29805-.9217168.8733158-.9289676.448449-.005652.7454373.24509.8220108.7036064-.1917553.4711319-.3892562.9058538-.9766378.8808351ZM1.5026032,69.2724515c-.800602.0154321-1.487254.6956-1.5023629,1.4881642-.0161847.8489654.7876274,1.6233559,1.6428272,1.5827054.7749245-.0368409,1.4338271-.757853,1.4255521-1.5599288-.0088699-.8597386-.7010864-1.5276157-1.5660164-1.5109408ZM2.0838442,70.718841c.0255151.3343039-.1621854.5993226-.5389494.5989292-.4167323-.0004434-.7371124-.1928544-.7894166-.6346647-.0432096-.3649995.1727368-.5619134.5160511-.5897049.4381849.018155.7778863.1743434.812315.6254404ZM42.5693778,14.9049226c-1.3355169-2.3473844-5.0410637-3.8919561-8.5351264-3.6018376,3.0343534.6283507,5.7985357,1.8737513,8.5351264,3.6018376ZM153.7176639,72.3397175c-.7429392.0082688-1.4170679.6713245-1.4521039,1.4282157-.0407692.8804479.8499085,1.7682528,1.7639686,1.7582729.7287374-.0079565,1.3457217-.6904538,1.3586495-1.5029031.0148513-.9334329-.7397541-1.6939464-1.6705141-1.6835855ZM153.104789,73.6763274c-.0342367-.3326739.0480512-.7211931.5188709-.690941.5116013.0328752.935394.2759542.9913892.8291741.0337745.3336607-.1156502.6583781-.5069299.7460744-.4906671-.1400193-.9460609-.3279525-1.0033302-.8843075ZM6.8783331,81.9878788c-.7446317.0276291-1.5933145.9137853-1.5584065,1.6272218.0335341.6853202.751731,1.2455723,1.6107701,1.2565266.8654155.0110292,1.4969701-.6082784,1.485435-1.456638-.0113102-.8319346-.6866505-1.4586615-1.5377986-1.4271103ZM6.7470447,84.0540068c-.3634694-.0117661-.5816891-.2240309-.5824104-.5697949-.0008494-.4077173.2841699-.631973.6643454-.6002969.3279462.0273169.5457755.2571059.5145116.7151227-.0342679.2743679-.229558.4668476-.5964467.4549691ZM44.2020517,46.1516781c-.786344-.0502558-1.7565179.8134922-1.7789385,1.6301695-.0229389.8355069.4974683,1.2160446,1.2622285,1.2854235.7799988.0707778,1.6096475-.7670835,1.6386944-1.6679161-.0669869-.6409537-.3047325-1.1954414-1.1219844-1.247677ZM43.4195298,47.8754207c.0373593-.3484682.2533588-.6231546.6157602-.6967054.242417-.0491941.3651869.1356976.3824613.3545386.0309766.3925225-.2210519.6033134-.5331476.7626993-.2579241-.0323443-.4951138-.1403503-.465074-.4205326ZM19.6238877,30.6920908c3.0603681-1.2360171,6.1029497-1.4515356,9.2011893-1.1424127-2.4672689-1.464682-7.3842794-.8810287-9.2011893,1.1424127ZM143.7244693,73.6778887c.4167979.6519704.5441643,1.4263359.0257056,1.9900229-.5070423.5512839-.9454239-.1382332-1.3793713-.3944398-.1162498-.0686482-.2115903-.1864343-.33456-.2270661-.2399564-.0792527-.3899557-.0004497-.3620267.2891193.0662375.6864943,1.5832175,1.6098849,2.2392598,1.3601359.779649-.2968135,1.3454345-1.4739749,1.1120107-2.4062712-.2349227-.9382418-.83131-1.4231258-1.9702254-1.3574879.2823619.3098161.5141369.503395.6692074.7459869ZM37.1478949,56.6731177c-.1104666-.6140865-.4356587-1.1640901-1.1372603-1.2917937-.5169098-.0940977-.8268259.2402437-1.0328579.6521765-.0981509.1962206-.1995619.5268836.1596545.5599961.907565.0836931.884957.823366,1.0247515,1.4143949.152666.645494.2124147,1.3129652.312664,1.9708561.784258-1.0250638.8796985-2.156797.6730482-3.3056299ZM114.2553252,46.3011403c-.8083274-.0215337-1.7326422.8407217-1.7662418,1.6476376-.0335996.8073219.6781881,1.4720639,1.5897501,1.4846606.8341579.0115226,1.7629818-.8386607,1.7800189-1.6293202.0169872-.7883112-.7204062-1.4794645-1.6035272-1.502978ZM115.1816136,48.0488898c-.0372719.5706443-.4117392.8476165-.9535178.8345888-.5533199-.01329-.8786118-.3364023-.8901406-.9005203-.0129777-.634315.4112021-.8685819.9082395-.9857684.6248409.1239877.9752014.4428595.9354189,1.0516999ZM121.3423384,60.731723c1.3549523-1.9202818,1.4448469-4.9265314.1835365-6.0591953-.2295517,2.0360819-.213339,3.9312264-.1835365,6.0591953ZM120.253273,78.2135777c-.0491254.7173835.5548312,1.354615,1.2641833,1.3019048.7516452-.0558578,1.2092622-.5164852,1.2119352-1.2595618.0026605-.7443257-.4357336-1.1866043-1.2120227-1.2487075-.742552.0666622-1.2110984.4325235-1.2640959,1.2063644ZM33.599211,75.687984c-.766078.166924-1.0878601.7831589-1.0913512,1.5238998-.0035598.7543306.4916352,1.1397272,1.1826011,1.121466.8663711-.0228952,1.0607868-.7112257,1.1558213-1.3604731-.0109792-.720069-.6544872-1.4140077-1.2470712-1.2848927ZM18.1933487,57.5613598c-1.9410349-1.5086488-4.1629984-2.2004016-6.5687388-2.2880854,2.1140324,1.0391157,4.3094784,1.7594407,6.5687388,2.2880854ZM84.6129369,42.1987742c.0093429-.6891298-.4125886-1.136717-1.1453792-1.1592812-.7538685-.0232262-1.150032.4435402-1.1686741,1.1229961-.0192542.7016516.4301316,1.1008503,1.1140966,1.1761622.7622059-.0291093,1.1906263-.453108,1.1999568-1.1398771ZM16.1256313,43.2182235c.4692864,1.2536912,1.2819105,2.2122864,2.4199578,2.8934098-.4936337-1.2413193-1.250097-2.2510759-2.4199578-2.8934098ZM58.2377138.0018121c-.4836974.0445601-.7344207.4364643-.7492719.918513-.010211.3318027.1611971.6546777.5125506.6209563.4972622-.0477234.7017391-.4557903.7824906-.8747366-.0290593-.3884974-.2396504-.6929301-.5457693-.6647326ZM151.1965419,60.4913732c-.453745-.0075755-.6662221.2979751-.7570411.6805613-.0694975.2927977.0448911.5871256.3779647.5904293.5023208.0049962.603407-.4569051.7768386-.7782438.0299649-.3262787-.1101918-.4879504-.3977623-.4927468ZM6.0734594,57.07918c-.338468.013546-.590128.2206522-.5584129.5884746.0304567.3532271.2832987.5573231.6316482.5094405.2958579-.0406755.4573923-.270296.4598154-.5844401-.0527321-.3030213-.2231316-.5258843-.5330508-.5134749ZM141.593203,47.787612c.3823239.0031664.4425285-.3566745.4508472-.6607513.0065326-.2383389-.060217-.5253784-.3456641-.5367324-.3714072-.0147576-.4910918.2876891-.5462002.5974678.0256931.3027652.1409686.597524.4410171.6000159Z"/>
  </g>
</svg>