<?xml version="1.0" encoding="UTF-8"?>
<svg id="Layer_2" xmlns="http://www.w3.org/2000/svg" viewBox="0 0 82.0466817 101.9523732">
  <g id="Layer_1-2" data-name="Layer_1">
    <path d="M51.2637056,60.7887526c-.481895-.2426255-.6779959-.6320636-.8242162-1.0846092-.1188451-.3677879-.2336102-.7409062-.301719-1.1203417-.7917081-4.4108232-1.8164342-8.7549194-3.4737503-12.9367388-1.0623669-2.6806602-2.0453064-5.3905381-3.6945283-7.7920507-.755186-1.0996129-1.4745737-2.2239688-2.2085703-3.3381248-.1728057-.2622356-.2659866-.5013735-.0479065-.8209259,1.5856537-2.3232038,3.460984-4.3432407,5.9419239-5.7325961.4484657-.2511145.9376651-.428724,1.4031745-.650555.1604342-.0763346.4438593-.1048284.3489675-.366406-.0835074-.2302541-.3380438-.1409558-.5122972-.0983795-.2488771.0608044-.4938716.1523402-.7267579.2603273-2.0714312.9604339-3.7642165,2.400657-5.219575,4.1391115-.1382577.1651723-.2730936.3331084-.4098378.4994651-.1213457.1477338-.243152.2950727-.3648267.442609-.0529078-.0331661-.1059471-.0663321-.1589865-.0994982,2.6534167-7.1313616,5.0040614-14.3981513,9.432323-20.7905151-.629892.0644896-1.0781603.3527184-1.3944882.8499462-.5428311.8531707-1.1251455,1.6855467-1.6069089,2.5723441-2.6905969,4.9514826-4.7002365,10.1846136-6.359461,15.5590951-.1533272.4965697-.2796741,1.0014308-.4185241,1.5024753-.1441144-1.0390717-.0083573-2.0793279-.2691452-3.2304009-.3679854.6010691-.3221846,1.1421892-.3847,1.7239114-.1027885-.1165419-.1615529-.1553014-.1799127-.2080776-.3394257-.9760957-.5851441-1.9783162-.8402069-2.9788257-1.2678781-4.973725-2.1705346-10.0032531-2.4678446-15.1380046-.1333223-2.302804.0113186-4.6106092-.2001809-6.9090042-.0234268-.2547996.0211894-.5342105-.2217651-.7883521-.2415068.5178249-.2725671,1.0165003-.2900714,1.5035282-.1838611,5.1382392.1292424,10.2402852,1.07487,15.3021898.625154,3.3466137,1.6456027,6.5916234,2.4507352,9.8915809.0902854.3702228.231636.7407745.1889939,1.3055189-.1346384-.2488771-.1888623-.3379122-.2326889-.4318169-1.7676722-3.7844847-3.7680991-7.4472289-5.8195254-11.0823347-2.063732-3.6568217-4.4628755-7.0605547-7.6110192-9.8842107-.4424116-.3968741-.9074603-.7639381-1.5169526-.9208189,1.7620129,1.8816476,3.5169188,3.7605314,5.0632865,5.8204467-.5490168-.4813686-.9816233-1.0849383-1.6535651-1.4247588,2.2766791,2.954346,4.5555299,5.8946097,6.4678429,9.1032946,1.8955984,3.1803885,3.6183912,6.4411258,5.1052047,10.004306-.8911405-.665098-1.7313475-1.0418355-2.615381-1.3317096-2.1035444-.6897093-4.2807911-.9543798-6.4748841-1.0874389-3.4299895-.2080776-6.8577416-.1509582-10.2087643.6804307-5.8382142,1.448383-10.7784441,4.6557519-15.5679789,8.1324634-.1209508.0878506-.2270296.1990622-.3292916.3093525-.3460063.373184-.7962487.6633213-1.0116965,1.3003861.1874146-.0652134.2723039-.0779797.3377148-.1206218.2159084-.1408242.4358968-.2787529.6344984-.4418193,2.4116466-1.9795007,4.867383-3.810807,7.9557752-4.733271,2.3141226-.6910913,4.4420151-1.9450843,6.7631788-2.6952691,3.3690534-1.0888208,6.7270515-2.1122307,10.3416918-1.9000074,3.083391.1810314,6.1191386.4888704,9.0497288,1.5869698,1.2846585.4813686,1.8644065,1.5014882,2.5312813,2.5136454.0598174.0908776.1893887.2536809-.0340873.2856625-.7871676.1125935-.2021551.429053-.0605412.5690875.9429296.9327297,1.7486544,1.9724595,2.3353778,3.1545269,2.0675487,4.1654338,3.9724257,8.3972655,5.1043492,12.9344356.613967,2.4611325.968199,4.9850435,1.7868875,7.3961637.1763592.51947.2786213,1.0640121.9418109,1.2784728.3465327.1121329.3557455.5723778.1835978.843892-.2025499.319355-.4335278.0733075-.611269-.1245043-.115489-.1285185-.2456526-.2942172-.4289872-.1564859-.1804392.1356913-.1404293.3564694-.0644238.5367769.1257547.2982972.3699595.4715635.6868139.5261164.5690217.0979189.9625397-.1330591,1.179501-.663058.2226206-.5438181.0561322-1.1708147-.4922923-1.4470011ZM14.3040108,34.5386692c2.4378372-1.7055516,5.237869-2.293986,8.1181178-2.631964-2.7479794.7438016-5.4737823,1.5559095-8.1181178,2.631964ZM46.5878829,89.5187889c-.5605986-4.3762094-1.0372291-8.7611709-1.4704279-13.1515285-.5747468-5.8245266-1.0546676-11.6594505-1.8339385-17.4620638-.2143949-1.5971039-.4584024-3.1960503-1.0329518-4.7166222-.0850867-.2253187-.153393-.5698114-.4940032-.4896601-.3565352.083968-.2087356.4108907-.1962983.653582.2605905,5.0782902,1.0920453,10.0935385,1.6621857,15.1376756.1706999,1.5102404.3339638,3.0269297.3345561,4.5783644-.1934687-.0892325-.1697129-.2447971-.1914945-.3557455-.3769349-1.9194201-.8079621-3.8313383-1.0960594-5.764446-.4126016-2.7681818-.5179565-5.5705825-.7838773-8.3556105-.265855-2.7837777-.4498476-5.5789398-1.0412433-8.3206019-.087719-.4066133-.055869-1.0818454-.5482271-1.072172-.2590112.005067-.1791231.7556466-.1323352,1.1757501.3760137,3.3791217.7859831,6.7545583,1.1322525,10.1366412.2913876,2.8461615.4218802,5.7102879.9834659,8.5244021.4840666,2.426058.9741873,4.8515896,1.2643903,7.3099582.6537136,5.5366926.9156202,11.1107627,1.5717029,16.6475869.2911243,2.4573815.5621121,4.9171979.8545526,7.374382.0754791.6339719.4396478.750119.9551695.3552191.2598666-.199128.2996133-.4374762.2646046-.7367604-.0899564-.7694-.1735954-1.5399845-.2361108-2.311951-.041326-.5106521-.1074607-1.0391375.4106274-1.399292.1589865-.1104877.1322694-.3068519.1234515-.4789337-.1233198-2.4290851-.1907049-4.8632372-.4999916-7.2781741ZM44.2297364,75.489281c.6082419,5.8289356,1.3242077,11.6465526,1.8213696,17.4873332-1.3492797-5.7506268-1.3224968-11.6468158-1.8213696-17.4873332ZM60.4514289,29.0437632c-3.8801004.2569054-7.6721527.982084-11.3055476,2.434547-1.7672116.7063582-3.3841229,1.6864022-5.0312391,2.6163023-.1805708.101933-.4093113.3997037-.6057413.1214773-.1651723-.234005.10904-.4291846.2757916-.5834332.9877433-.9139093,2.1484239-1.5768357,3.3097625-2.2325235,2.9437513-1.6620541,5.926328-3.2525116,9.2259564-4.1023261,3.465393-.8925883,6.9689532-1.3749439,10.5327256-.6047542.8782426.1897836,1.73727.4579417,2.2572665,1.2800521-3.0192962-1.3883683-6.1369062-1.0418355-9.2512258-.593304-2.7173798.3912806-5.3249957,1.1864764-7.8408127,2.2833913-.1267417.0552768-.2479558.123254-.3564694.2328863,1.3645466-.380291,2.733568-.723007,4.128122-.9482599,3.8401563-.6202843,7.6879461-.9122642,11.5689019-.3600229.6534504.0929834,1.1501517.6052807,1.8318985.5590193.1058813-.0072386.1887965.103973.1684625.2287405-.0211894.1302952-.1320062.1621452-.2424281.1621452-.1501686,0-.3067861.0085547-.4494528-.0290203-2.7071141-.7136626-5.467136-.6469356-8.2159708-.4649171ZM38.5143156,36.0021875c.0042116.5161798.0017109,1.0324911.0017109,1.5488025-.306128,4.7480115-.2464423,9.5153698-.663058,14.2583801-.1617504,1.8410455-.0781113,3.7760616-.8051325,5.4681888-.5676398,1.3212465-.444649,2.6351227-.6436454,3.9464983-.2195278,1.4472643-.2521674,2.9158497-.2957965,4.3800919-.0092786.3123796.1490499.4551121.3815413.6045568.7545937.4851195.8937069.9936658.4785389,1.6549471-.500189.7967752-1.4169937,1.1159985-2.100978.7315618-.5963311-.3351483-.8792955-1.3303276-.5544787-1.9433734.1804392-.3406102.5055192-.3812781.7753225-.2351237.3916096.2120917-.0304022.3795014-.1176606.5334867-.1749115.3086944-.375882.6072548-.1662251.9558933.1709632.2841489.4979516.3615364.7945378.3440321.3916754-.0231636.5809325-.3385044.6966189-.6777985.1044994-.3065229.1866249-.6247591.0848893-.9491811-.0367196-.1172657-.1288475-.3213949-.1753721-.3158673-.8630415.1034465-.6037671-.6005426-.6653612-.9834001-.2276877-1.4156776-.090417-2.8406996.0638973-4.251705.4562308-4.1716853.9974167-8.3344869,1.4165989-12.5096599.2384798-2.3761773.2747387-4.7719647.456165-7.1547884.1289791-1.6944963.3470592-3.3822804.5293409-5.0726309.0137534-.1271366.0617257-.250259.0893641-.3763427.0288229-.1320062.0698856-.2782264.2302541-.257037.1458912.0192153.1878752.1663568.1889281.3004687ZM11.2077219,52.6806373c-.1202928.1565517-.2259767.4623507-.4802499.3112609-.2965204-.176096-.0656741-.4420826.0479065-.6141644.9424032-1.4280491,2.1356576-2.6417032,3.3495091-3.8331151,1.7692515-1.7363487,3.6935412-3.287915,5.8563107-4.7876265-.5301306.0288887-.8111866.3665376-1.2473467.1768857,4.9262791-3.6910406,10.1544746-6.8206272,16.074222-8.6623966.0856132.1460228.0590277.1897178-.0049354.2208439-4.3830532,2.1313802-8.2296584,5.0761186-12.1058104,7.9772936-1.1196837.8380353-2.2537788,1.6569212-3.3908351,2.4713323-.134112.0960105-.3158015.3564036-.4816318.1439828-.1472731-.1885991.1183186-.3358064.2430862-.4541908,1.4864187-1.410479,3.1380755-2.6185396,4.7667661-3.8535807.9870194-.7483422,1.9933857-1.4712176,2.9348676-2.3024092-.2463765.1495105-.505256.2818457-.7370236.4512954-3.595754,2.6285421-7.2400726,5.1947004-10.5635227,8.1752371-1.5586734,1.3978443-2.9850773,2.9182187-4.2613127,4.5793515ZM79.9559036,45.9915556c-.1805708-.19031-.2168297-.4142468-.2103808-.6402235.0207946-.7326804-.359299-1.193057-.9594468-1.5549882-1.4624654-.8821251-3.0393012-1.5140571-4.6169266-2.1415801-4.4397777-1.7659612-8.9486513-3.317396-13.6332261-4.3110618-.1567491-.0332319-.3153408-.1179238-.5617831.0284281,1.8377552.7467629,3.6199705,1.4831284,5.1794993,2.6724345-.2008389.1727399-.3237639.0234926-.4333962-.0419182-3.7430271-2.2338396-7.874571-3.2824532-12.1194322-3.9921674-2.6715132-.4465573-5.3410523-.9047623-8.1608257-1.3831038,1.6318493-.2627621,3.1163596.0326396,4.6104776.1960351,5.3334188.5833674,10.6016242,1.5072791,15.7681598,2.9709949,4.3502819,1.2324746,8.5977096,2.7491639,12.7023389,4.6516062.6229824.2887553,1.2351068.6131773,1.8145916.9805046.8456688.5361189,1.1211972,1.7113425.6203502,2.5650396ZM64.5748129,63.5477874c.2506538.7824295-.2046557,1.7817546-.9558933,2.1176268-.7611085.3402154-1.6875209.0388254-2.1376317-.6954344-.3216582-.5246029-.1726083-1.1995718.3073125-1.3843541.1223986-.0471169.2650653-.0908776.3573248.0269145.0771243.0985769-.0184256.1974828-.0786378.2840173-.2578267.370815-.2558525.7245205.0896931,1.0374924.3169202.2869128.6712179.3583119,1.0698688.1585917.4179977-.2093937.6978034-.5152585.6635187-1.0020231-.0049354-.0692276.1013407-.7031995-.3918728-.2298592-.1065394.1023278-.2744097-.2721065-.3702228-.4477419-1.0293983-1.8873069-2.0010191-3.8077799-3.078653-5.666922-2.722381-4.6968147-5.6725813-9.2399072-9.2696514-13.3313096-1.3247342-1.5067527-2.8330662-2.826354-4.2630236-4.225975-.1953771-.1912971-.4309614-.3562061-.5568477-.7080033.6692438.1747799,1.1188282.5428969,1.5661752.9087765,3.5691685,2.9194032,6.3718325,6.505418,8.9640498,10.2793738,2.4652124,3.5891734,4.6584499,7.3298974,6.4385594,11.3076533.2114995.472748.3877929.951945,1.061314.9518134.3311342-.0001316.4895943.3226453.5846177.6193631ZM34.6274372,38.624149c-.3889774.5669817-.8056589,1.1155379-1.2212218,1.6639624-3.6666267,4.8388233-6.9688216,9.9188244-10.0352347,15.1551141-.097524.1664226-.2025499.3286336-.3111293.4880149-.0184256.0269145-.0727811.0293493-.1661593.0633051-.1016698-.5605328.1032491-1.0188035.2998765-1.4681905,1.2695232-2.9015041,2.881894-5.6228322,4.5247986-8.3174432,1.3756019-2.2562794,2.8850527-4.4350397,4.6635828-6.4077624.5490168-.6089658,1.1408073-1.1714069,1.8156445-1.6395485.1838611-.1275314.400954-.3926625.6168625-.1893229.2636834.248219-.0590935.4655094-.1870197.6518711ZM4.9590777,21.3519346c-.0122399-.2373611.2546022-.2753968.4289214-.3113267.3779878-.0779139.7633459-.1356913,1.1484407-.161882,4.8438245-.3305419,9.4479848.7591343,13.9426444,2.4183588,4.1624725,1.5366285,8.2124173,3.3235817,11.9933485,5.6725155.4654436.289216.947865.5642837,1.2911075,1.123961-.5382905.0319158-.8925883-.2144607-1.2596523-.41247-3.0663473-1.6541574-6.116967-3.3394409-9.3136096-4.7370219-3.866347-1.6904163-7.8519338-2.960466-12.0915306-3.2295454-1.802944-.1144361-3.6152325-.0843629-5.4231778-.1198321-.0862054-.0017109-.1724109.0009213-.2584189-.0028954-.1926132-.0085547-.4451754.0098709-.4580733-.2398617ZM24.2425112,65.2301754c-.1053549.4508347-.0906802.7178084.3771982.980373.9931393.5575715,1.2460964,1.9323838.6011349,2.8655742-.3721969.5385537-.9293736.7341282-1.584535.5561896-.6863532-.1864933-1.113827-.6437112-1.1691695-1.2197741-.0461298-.4806447.1556962-.7755858.6050832-.9348355.2490745-.0882454.5219707-.1068684.6351564.1241095.129703.2642756-.1962325.2536151-.3397547.3397547-.2218968.1331249-.368446.2973759-.3073783.5761287.069096.3154066.2355843.5651392.549609.6627948.3273175.1018014.6514104.064358.8886399-.2129472.4409639-.5152585.3950973-1.1183017.2418359-1.7145012-.0625812-.2434152-.1712922-.5169036-.3476514-.6820101-.7913791-.7408404-.6997776-1.6469846-.5423704-2.5723441.4049024-2.3803231,1.3717194-4.5637556,2.3882856-6.7257354,1.78873-3.8041606,4.0483655-7.3448352,6.1749419-10.9595413.2030105-.345085.4279343-.680694.7843379-.9997199.1258863.3920702-.0709385.5921195-.1860985.812766-2.0698519,3.9653845-4.4376061,7.7722431-6.2902334,11.8536431-1.061314,2.3378784-1.8948088,4.7492618-2.4790316,7.2500751ZM52.1283922,38.4448944c2.8182599,1.5407742,5.5473531,3.2209248,7.8131743,5.5320204,1.3213781,1.3477661,1.9362663,3.0243633,1.9442288,4.9145657.0008555.2060376.0591593.4312904-.1236489.6394338-.2515751-.0969976-.3002055-.3467959-.3759479-.5463188-.920095-2.4252026-2.5901774-4.290662-4.4727463-5.9927917-1.5337988-1.3867889-3.1586727-2.6602604-4.8714629-3.8212043-.4035204-.2734884-.8162537-.5451343-1.2057575-1.0465735.5450685.0082915.9401658.1284527,1.2921603.3208685ZM70.1514495,13.6610273c.3511391-.159513.7196509-.2844122,1.0876363-.4019411.1785966-.0569877.4361601-.1242411.5305254.0677799.1175289.2392036-.1711606.3011268-.315275.401283-.1394422.096866-.3029035.162211-.4614294.2279509-6.8062157,2.8231953-12.779858,6.8889335-18.0192405,12.0552717-.9462857.9331904-1.9194201,1.839203-2.880183,2.7577187.2125523-.6978034.6843791-1.1721966,1.1363325-1.651591,5.4130437-5.7412166,11.7448005-10.1944844,18.9216338-13.456472ZM26.3390802,28.8821445c-6.5810945-2.8772876-13.0451207-2.2418679-19.433602.6610181,5.9240248-3.7894201,14.0937342-4.1037739,19.433602-.6610181ZM26.082767,44.7761247c-1.789059,1.3711272-3.7115062,2.5514179-5.491155,3.9385358-1.7725418,1.3813928-3.396626,2.9295373-5.0781586,4.4076645,2.6136042-3.9345216,6.299512-6.5155521,10.5693136-8.3462003ZM43.6243899,35.8385946c4.4277352.4992677,10.1771775,5.6425739,11.5787727,8.2892784-1.635666-1.7743844-3.4495338-3.3302939-5.4377866-4.7018159-1.9591667-1.3516487-4.1126576-2.3611078-6.1409861-3.5874625ZM55.7023645,51.7454069c-.0854158.067056-.1708315.134112-.2562473.2012338-2.2687166-2.9331566-4.4363558-5.9456091-6.8843271-8.7379415.0885744-.0694908.1771489-.1390474.2657233-.208604,2.7617328,2.5458902,5.119682,5.4088979,6.8748511,8.7453117ZM26.6367851,33.9932717c-4.0076318,1.2329352-7.9611713,2.6153152-11.8563411,4.1597087,3.6770898-2.1460549,7.57147-3.699398,11.7540133-4.4679425.0341531.1027885.0682405.2054453.1023278.3082338ZM20.1570313,53.4262156c.0591593.30547.0760714.6662167-.210973.8253348-1.9111286,1.0596031-3.0899715,2.8775508-4.5645452,4.3839744-1.058945,1.0819112-2.0191815,2.2604251-3.0235078,3.3958363-.030468-.0220449-.0609361-.044024-.0914699-.0660031.6257462-.8546842,1.2358965-1.7212792,1.8804631-2.5614861,1.3100595-1.7076574,2.8365539-3.2255312,4.274408-4.8211216.3023771-.3355432.6031091-.6667432.7933533-1.087044.101604-.2244632.1731347-.5421072.4792628-.5388827.2482848.0025664.4140493.2167639.4630088.4693919ZM8.9251861,44.3629308c2.8027956-1.9977289,5.6070388-3.6356322,8.8276346-4.4371454.4312246-.1072633,1.1485724-.2943488,1.2514924.2074853.0844287.4119436-.6574646.3269884-1.042033.3977953-1.406728.2591428-2.7218546.7761122-4.0106588,1.3700743-1.4443689.6656903-2.8392519,1.4275884-4.2257118,2.2055432-.1945216.1091058-.3709466.2896766-.8007235.2562473ZM61.8905991,33.0963402c.0802829.0209262.1520111.074492.4096404.2050505-3.7837608-.6543717-7.3744478-.6154805-10.9688857.1042362.287505-.4823556.7472235-.5960021,1.1910828-.6995802,3.1571591-.7366946,6.2738478-.416879,9.3681625.3902935ZM61.2890036,51.3683404c-.0052645.7898656.7792709,1.3974494,1.7791224,1.3778393.6565433-.0127663,1.176474-.6108083,1.1779217-1.3548074.0017109-.8283619-.6192315-1.4366696-1.4774691-1.4474618-.7176768-.0090154-1.4749685.7200458-1.4795749,1.4244298ZM63.4726993,51.2802924c-.0139508.4913052-.05146.9006165-.5971866.892325-.4571521-.0069754-.8362586-.2178168-.8082254-.7220199.0242165-.4360284.2228838-.8886399.7391294-.9127248.5105863-.0238217.7002382.3412683.6662825.7424197ZM9.5403376,53.8376327c-.8152008.0106605-1.735559.85271-1.7454957,1.5971039-.0108579.8134898.6252856,1.3587557,1.5541328,1.3320386.6720076-.0192153,1.5967748-1.0457181,1.6082908-1.7850449.0109237-.6984615-.5550051-1.1552845-1.4169279-1.1440976ZM9.0962809,56.3004761c-.4740641.018294-.7384713-.2194619-.7720322-.6724024-.0406679-.5500039.6129141-1.1008632,1.2936081-1.1017187.2308463.0451427.6125851-.1365468.5825777.3980586-.0398124.7093194-.5384879,1.3541493-1.1041535,1.3760626ZM30.3590176,23.4154691c-2.4190826-2.4342179-5.6004583-3.4068917-8.6275196-4.6840484,2.1147314.3093525,4.0438249,1.1221185,5.9100082,2.1051895.8191491.431422,1.6169772.8980501,2.2729282,1.5676229.2542073.259406.4807763.5346053.4445832,1.0112359ZM34.2873535,2.9302265c-.2999423-.6330506.0126347-1.6882447.6808914-2.3436035.6235088-.6114664,1.3915927-.7552518,2.1215751-.3825942.4385949.2240025.8551448.5147978.7216909,1.0810557-.1401661.5944885-.569614.9135803-1.2095084.9740557.0046064-.3306077.2362424-.4818292.382331-.6787198.1708315-.2300567.361668-.4637326.1778069-.7532118-.1690548-.266184-.4359626-.3981244-.7638723-.4048365-.9233195-.0188204-1.7283862,1.1027716-1.4339716,2.013259.0457349.1414164.1399687.2669736.1870856.4081268.0723862.2170929.4610346.4252363.1681335.641737-.2178168.1609607-.5384221-.0224397-.7589369-.2037344-.1123961-.0923912-.2108414-.2198568-.2732252-.3515339ZM2.4088444,42.7318712c-.2436126.1129884-.3375173.0475117-.4882782-.0485646-.183203-.1166735-.3628525-.2345973-.5938305-.2172246-.7011595-.0011187-1.4289046.8161221-1.3148633,1.4763504.1502344.8694247.929571,1.4740472,1.7015375,1.3201936.8246768-.1644484,1.5684784-1.2198399,1.3607299-1.9799613-.0860738-.3150118-.2542732-.7412352-.6652954-.5507935ZM1.4452518,44.7896149c-.4738667-.0086863-.7761122-.3629183-.7499873-.9314136.0232952-.5050586.1912313-.8990372.6872087-.8052641.5859996.0449453,1.0994155.0166488,1.1523233.641408.0390228.4616927-.6393022,1.1034297-1.0895447,1.0952697ZM40.9420188,25.4581433c-.96583-3.8251526-.3816729-12.9662197,1.3611905-14.5466089-.8511965,2.4467868-1.3654021,4.8280312-1.5418929,7.2831095-.1749773,2.4329676.090088,4.8504709.1807024,7.2634994ZM64.6100847,43.0407631c-1.5365626-.8871922-3.2326383-1.4697041-4.7032636-2.4635673,2.7331731.3438347,7.8295599,3.5412011,8.9235135,5.5899952-1.2035859-1.32276-2.6948084-2.2457505-4.2202499-3.1264279ZM73.9142183,13.5171761c-.5305254-.488344-.6845765-.9533927-.4144442-1.5045153.3781194-.7711768,1.7069994-1.2786044,2.5105525-.9932709.2836883.1007485.4911736.2653285.5885002.549609.2667762.7788102-.8378379,2.2328526-1.6576451,2.1865254-.1081845-.0061857-.2322941-.0071728-.2776342-.1216089-.0631076-.1596446.0795591-.2282799.181163-.289874.3689725-.2237393.7530802-.4350414.9718841-.8244794.124965-.222489.4195112-.4327382.1631981-.7395242-.2249896-.269211-.5188778-.3683802-.8663318-.3041539-.6190998.1144361-1.1480459.7415642-1.1975318,1.4300891-.0116476.16254-.0017109.3267252-.0017109.6112032ZM22.7320734,8.7279702c.2863205-.8467217,1.0222912-1.4340374,1.7934022-1.4311419.8776504.0032903,1.5049759.7950642,1.2284604,1.5484735-.0442214.1203586-.069096.2700007-.234005.2544706-.1165419-.0109237-.1597762-.1266101-.1877436-.2350579-.0321132-.1245043-.0696882-.2476926-.1041704-.3716047-.0936415-.3367277-.1954429-.6986589-.579748-.7842063-.417537-.0929176-.6720734.2209097-.8980501.5090069-.6981325.8900876-.6642425,1.4833258.1189109,2.3690703.0977872.1106852.2553918.2156452.1473389.3790407-.1089084.1646458-.2977707.150695-.4664965.0922596-.0989717-.034219-.1951138-.0898906-.2781606-.1543801-.578761-.4498476-.8078963-1.3829722-.5397382-2.1759306ZM12.0263446,15.8953276c2.2269958.741301,4.2789486,1.7888616,5.8277511,3.6441212.1795179.215053.3213949.4606398.3770666.7379449.0292835.1460886.2061692.3363328-.0326396.4449122-.1624742.0738998-.3781194.0444188-.4653778-.1171999-1.2670884-2.3451828-3.5808819-3.3949151-5.7068002-4.7097784ZM50.2772126,8.4793564c.2318992-.5548735.8827832-.8533681,1.628559-.8015132.6553588.0455375,1.0690133.4161551,1.2847901,1.009854.1691206.4649829-.0559348.9144357-.4902523,1.0262396-.0948918.0244139-.226898.0338899-.2992842-.0140166-.1095007-.0724521-.0212552-.1880068.0156618-.2849386.1216089-.3191576.4786047-.6980667-.0273752-.9352303-.4664307-.2186065-.9912968-.3028377-1.4431186.1214115-.2211729.2076169-.3050751.4585998-.3034958.7509744.0015793.291585.000329.5831041.000329.8903509-.8359296-.407732-.6446983-1.0954672-.3658138-1.7631316ZM66.4594876,48.8624601c1.7620129,1.6633702,3.5463997,3.3025239,5.363163,4.9069322-2.1494768-1.2452409-4.0974565-2.7079696-5.363163-4.9069322ZM44.3478576,8.0105567c-.7574234-1.2206954.9903755-4.3918711,2.7082986-4.814212-1.2808418,1.4928677-2.2864842,2.9515164-2.7082986,4.814212ZM43.1852686,23.4872631c-.1928765-2.5820833.3700911-4.9616167,1.860524-7.0962214-1.1562716,2.2287726-1.2957139,4.7189254-1.860524,7.0962214ZM33.1745794,53.3889696c-1.0503903,1.3334863-1.4233769,3.000081-2.2772714,4.5928417-.1064736-.5679688.0409311-.9533927.1723451-1.3308541.3662086-1.0515748.750119-2.0969638,1.1375828-3.1409051.0661347-.1782676.1608291-.3574565.2844122-.4997941.1429957-.1647774.2827012-.4622849.5556632-.3107344.2632227.1461544.2775684.4987413.1272682.6894461ZM21.6323946,16.1067612c-1.7535898-1.3326308-3.5579815-2.5898484-5.3115713-3.9163593,2.170403.7597924,3.8790475,2.1528986,5.3115713,3.9163593ZM.1611855,34.768002c1.4740472-.4258944,2.9478313-.8542893,4.3997678-1.3536887.0589619-.0202681.1277946-.0198733.1914945-.0173069.3558113.014214.8727149-.0636341.8602119.4178003-.0119766.4598501-.4826189.3050751-.8207284.2896766-.7593976-.0347454-1.4642422.2808586-2.2021213.3983218-.8011842.1274656-1.5860485.373184-2.4286245.2651969ZM56.1778764,17.4761774c-1.6409305,1.1935834-3.187693,2.4835722-4.5977113,3.9351797,1.0498638-1.8773045,2.5234504-3.262514,4.5977113-3.9351797ZM72.3600855,30.3240785c.5087437.2396643.748737.9279259.52355,1.5677545-.0985111.2799374-.2227522.565534-.613638.6040303-.1078555-.3502836.1443119-.6139012.2002467-.9158177.0696224-.3757504.1116064-.7432094-.3298839-.9299659-.5107837-.2159742-.9722131-.1044994-1.3637569.2675659-.3483753.3311342-.0944312.6245617.0977872.9083816.1066052.1574072.2278193.3049435.3852265.5138108-.5177591.0750185-.8284277-.1507608-1.0667759-.4772228-.2401249-.3288968-.0927202-.6598994.0885086-.9622765.3392941-.5663895,1.4547004-.8702801,2.0787356-.5762603ZM2.1995823,22.2497215c-.0057909-.6626632.4366207-1.1993743,1.0149868-1.2972932.5252609-.0888377,1.3817877.3136957,1.536431.7339966.0796249.2164349.0631735.4406348-.1472731.5737597-.2429546.1538537-.3287652-.0869293-.4471496-.2230155-.2552602-.2934933-.3691041-.9021959-.947536-.5434891-.5522413.3424528-.3844368.7800605-.0282964,1.1878583.0696882.0798881.1408242.1795179.0817307.2891502-.0725179.1343752-.2200542.1218721-.3419263.1127909-.5561896-.041326-.660031-.4551121-.720967-.833758ZM71.3976775,21.8515971c-1.6955492.3927941-3.2617244,1.1323842-4.8908756,1.6914692,1.3280244-1.4210079,3.0614777-1.705749,4.8908756-1.6914692ZM76.6130409,32.7398051c.8254665-.4612978,3.7255228.4811711,5.4336409,1.7112109-1.9880554-.3192892-3.5660756-1.4608861-5.4336409-1.7112109ZM42.9731769,49.5440753c-.9253595-2.110125-1.4346955-4.3469917-1.9662079-6.5868854.9759641,2.0932787,1.4581881,4.3437672,1.9662079,6.5868854ZM49.5563114,46.9609391c1.3425675,1.4887219,1.9897006,3.3418757,2.5484566,5.2414225-.9015378-1.7198973-1.8030757-3.4397287-2.7046793-5.1595602.0520523-.0273752.1041704-.0546187.1562227-.0818623ZM49.619419,23.6350627c-1.3709956.9599075-2.1543464,2.4427069-3.3198966,3.5853567.5754049-1.6679108,1.6611986-2.8814991,3.3198966-3.5853567ZM34.4513412,16.9118279c-1.1596277-1.9387012-2.0109558-4.0154626-2.7539677-6.1407229,1.1192888,1.9567319,1.9486378,4.0432984,2.7539677,6.1407229ZM79.3731943,46.7568099c-.4364233.3643661-.9143699.4702474-1.4183756.1152257-.5551367-.3910174-.8053299-1.21168-.5635598-1.8434145.255326-.667138.5529651-.7942746,1.2038491-.4630088-.8426417.4414245-1.0211726.8475772-.697277,1.540511.1907707.4083242.4581391.7476841.9740557.6991196.4931478-.0464588.5095992-.4382.451756-.9004849.49782.3682486.3123796.6326558.0495517.852052ZM50.5022022,15.5861725c-.7601214,1.2256308-1.422653,2.5059461-2.1300641,3.7609921.1766224-1.552685.8489591-2.8274727,2.1300641-3.7609921ZM72.3737073,36.856082c-1.3455946-.7062266-2.7304093-1.3390798-4.2071546-2.0510315,1.0513774-.1562227,3.097276.8529732,4.2071546,2.0510315ZM38.2401033,59.9836859c.0719914.0550794.1412848.19643.1207534.2743439-.0647528.2467713-.247561.4062843-.5047296.4336594-.4314878.0458666-.7098459-.1451673-.7740064-.5848809-.058238-.3994405.3575881-.9504973.7028047-.942469.1296372.0030271.2649995.0459982.3266594.1717528.0563297.1148309-.0297442.1989964-.1122645.2725671-.1610923.143588-.3210001.2884921-.3404786.5869209.2390062-.0536316.3169202-.414181.5812616-.2118943ZM33.7574861,33.035799c.8220446-.243481,1.6003942-.0333635,2.379665.1804392-.803619.0710701-1.6087515.1729373-2.379665-.1804392Z"/>
  </g>
</svg>