<?xml version="1.0" encoding="UTF-8"?>
<svg id="Layer_2" xmlns="http://www.w3.org/2000/svg" viewBox="0 0 163.2615792 120.8891293">
  <g id="Layer_1-2" data-name="Layer_1">
    <path d="M85.7955091.000001c12.7857633.2276525,27.4286038,2.5965868,41.4200109,7.8304524,18.7562238,7.0162824,29.9185563,21.0371399,34.7134318,40.2075428,5.5796639,22.3081174-6.6645115,49.8434877-31.0588239,60.5274923-12.9609002,5.6764954-26.3030323,10.1498758-40.418198,11.6632496-22.7517417,2.4394101-44.1747054-1.798938-63.6860131-14.0557886-10.3084174-6.4756625-18.2891163-15.1806724-22.9685864-26.5791694-6.2396673-15.1988601-4.7901514-29.7596074,4.3518913-43.3673385C17.8939011,21.7216908,31.4426413,12.0852116,47.8125737,6.2777947,59.392249,2.1697809,71.3161037-.0017077,85.7955091.000001ZM83.0364449,1.1365126c-3.47052.0798924-6.9284177.3126446-10.3583408.8301464-14.3282649,2.161797-27.6532991,7.1644604-40.174987,14.3636139-8.5842773,4.9353934-16.3101904,10.9311885-22.3477197,18.8843996-4.8607066,6.4029859-8.1806415,13.5400697-8.2033575,21.658197-.0435329,15.5561591,5.6577576,29.1344768,16.8149904,39.7336798,16.7888622,15.9491776,37.3149914,23.3170509,60.408278,22.9609791,9.2338591-.1423906,18.3247986-2.2106836,27.3607731-4.1141345,17.653855-3.7188519,32.9670571-11.2361201,43.7486022-26.5003351,9.2258709-13.0617629,13.6398955-27.0662156,9.5165983-42.9306761-4.0288356-15.5011518-12.6221908-27.5904888-27.2541229-34.8580284-7.0798651-3.5164917-14.6156806-5.6611856-22.3602469-7.0927943-8.9747247-1.6589967-17.9718375-3.1571453-27.150467-2.9350475ZM83.3339649,4.8794719c24.9287586-.2472791,46.0377604,8.6196263,63.4302909,26.498293,4.592473,4.7208235,6.4121697,10.4900347,7.4122686,16.7804666,1.8681336,11.750252,1.1458117,23.1655294-4.0750718,34.0089485-5.5882763,11.6065071-13.9418169,20.3951442-26.1618796,25.1968229-8.5503672,3.359733-17.1354381,6.5149897-26.2876379,7.8792649-9.2403026,1.3774584-18.4226459.9944278-27.5874998-.5700068-7.9862748-1.3632807-15.9785275-2.9801939-23.1056869-6.9290842-8.8617158-4.9099582-18.157306-9.3170102-25.3569462-16.7115673-9.3375362-9.5903329-14.8712072-20.9300242-14.6621708-34.595831.1649585-10.7844335,4.5979748-19.7252481,12.1078526-27.2937464,11.7836489-11.8756082,26.1123899-18.7596042,42.4305896-21.8196112,7.2230492-1.3544778,14.4916046-2.2249883,21.8558912-2.4439491ZM149.2895997,81.3857139c.5257386-.3592247.6031657-.9729073.8188995-1.4900441,4.1587837-9.9688139,5.1359655-20.2898061,3.4204431-30.9139363-.8980406-5.5614445-1.8887442-11.0810436-5.9097926-15.4369819-1.5276361-1.6548862-3.0337518-3.3377681-4.6607799-4.8915272-14.0399921-13.4076881-30.734853-21.0165029-50.0769224-22.7340937-9.9684013-.8851961-19.8418014.0893565-29.6629134,1.781274-16.1639167,2.7846264-30.5449301,9.2268126-42.3740799,20.8150315-9.4196345,9.227786-14.6757454,20.1729776-12.768475,33.6164167,1.6820037,11.8556642,6.5992941,22.1606905,15.9259113,30.0613384,5.4136102,4.5858815,11.6594988,7.8818254,17.6778672,11.5299369,10.8270089,6.5629294,22.7129118,9.7592062,35.2048265,11.0704949,13.774573,1.4459133,26.9933274-.6565966,39.9228462-5.5413523,9.4523226-3.5710864,18.4673691-7.5966421,25.0066513-15.7489229,2.7809656-3.4669015,5.4747066-6.9484675,7.3173838-11.2479383-5.645368.4583099-10.6974099-.9683684-15.6284548-3.0875318-2.0614264-.8859155-4.1874459-1.6280438-6.3593525-2.2415995-2.2011084-.6217978-4.1955187-.3676573-6.121146.8605967-2.0499996,1.3076068-4.0229,2.7224985-5.8588692,4.3062-4.2786169,3.6907187-9.0345567,6.5913165-14.1929631,8.8682968-4.2555517,1.87846-8.4924609,3.7991357-12.7883767,5.723832.9517043,1.0974383,1.9627327,2.1262946,2.8124422,3.2745293,1.3470292,1.8202892.9385106,2.6657348-1.3429029,2.8127384-3.8472658.2479192-7.5973087-.5455874-11.3187104-1.3270323-6.7726641-1.4221816-13.4863637-3.0712486-20.3624826-4.0437962-4.5000112-.6364833-8.8701166-2.1364729-12.8535412-4.4541664-3.507054-2.0405196-3.8208361-3.9646445-1.2997773-7.0900751,2.7248896-3.3781111,5.6833727-6.5252315,8.9332391-9.4184654,8.8899971-7.914487,19.212936-12.4160112,31.094173-13.2920129.962856-.0709837,2.1742131-.3374821,2.7372158.5972936.6375413,1.0584919-.5295687,1.7256901-1.0604493,2.5005964-.0510397.0745175-.0068138.2142842-.0068138.3644832,3.2731856.3968803,6.4979553.3518185,9.7507525-.5330496,4.2864464-1.166052,8.6350208-2.1516769,13.1387245-1.9121691,1.1993484.0637679,2.397607.2872888,2.5590635,1.7851306.1559335,1.4466434-.9096579,1.9668379-2.036298,2.4214129-.68765.277449-1.5456862.1952184-2.1706369.9089278.5269553.1137601.9219523.1934832,1.3143147.2845485,8.4961851,1.971726,16.1570183.7612259,22.5236819-5.735481,1.2426539-1.2680468,2.7361048-2.3147522,4.2065011-3.3292827,2.0889459-1.4413215,4.2393638-1.595488,5.4713209-.5558715,1.4127968,1.1922067,1.6271339,3.1744707.5381388,5.6009833-.3519877.7843122-.7769377,1.5557482-1.2886891,2.2436838-.7118473.9569204-1.5367987,1.8297163-2.3347914,2.7636455,8.3315758,2.9179073,8.9938011,3.5133388,12.1028216,10.833939ZM133.2692479,71.8362318c1.8769365-1.686257,3.5448471-2.851981,4.8612991-4.4005028,1.1043578-1.2990049,1.9793121-2.7006288,2.0129154-4.4816331.0377719-2.0011288-.8389598-2.6487321-2.7002797-1.9768363-1.58805.5732444-3.0283135,1.4255461-4.3656299,2.4404046-1.563366,1.1863557-3.0994876,2.409256-4.6313876,3.6363356-3.8049338,3.0478554-8.1671039,4.4397454-13.011686,4.4071261-4.5223252-.0304397-8.9910925-.6330553-13.3904209-1.590875-12.6894502-2.762725-25.1552209-2.0851687-37.6310746,1.5206319-9.0888551,2.6268942-14.9338747,9.0396564-20.4886535,15.9888222-.9920102,1.2410456-.7215442,2.3218728.7041871,3.1261078,1.8165014,1.0246559,3.7383515,1.7980386,5.6791722,2.5384847,5.2945864,2.0199831,10.6987748,3.7839423,16.334631,4.3483098,8.8172465.8829213,17.3101305-.6252364,25.5708284-3.9399499,8.9384975-3.5866925,17.5949964-7.5528605,24.8527069-14.0793617,1.5830349-1.4235359,3.4179144-2.5396273,5.3579311-3.4770481,1.5420043-.7451014,3.0332968-.8384097,4.6880455-.3988482,3.4719061.9222485,6.7165034,2.4380135,10.0654021,3.6782021,2.889626,1.0701092,5.8470933,1.7453907,8.9252826,1.9383026,1.2280001.0769616,1.5414752-.2994245,1.1170966-1.4841614-1.0796209-3.0139876-3.1824906-5.0400967-6.0089518-6.3671925-2.3650089-1.1104416-4.872345-1.6371112-7.941414-1.4263185ZM100.2616997,67.7740786c3.2044449.9809273,5.8206953.0226632,8.4440028-.8059491.5452699-.1722378,1.1962907-.468922,1.1231697-1.1326498-.0723591-.6569034-.7779746-.8379865-1.3362478-.8711242-4.4757292-.2657789-8.6950115,1.0232276-12.9487751,2.1117889,2.9570335.5163432,5.779781-.631775,8.732868-.431933-1.197116.336879-2.3942319.673758-4.0150176,1.1298671ZM68.849957,68.9042314c1.5176271-.317591,3.0379945-.6227606,4.5523311-.9553333,3.3190938-.7289452,6.7528893-.8825933,9.994884-1.9974363.904209-.3109253,1.804736-.6204011,2.2515556-1.8521149-6.0622451.5195173-11.5357561,2.3878414-16.7987707,4.8048845ZM90.4655469,101.326865c-2.182487-3.6246549-3.406202-4.3431995-5.7260962-3.5812542.669092.5848934,1.7270444.0974664,2.4224286.891904-1.0917884.753936-2.3206666.7028328-3.4758208.735907-1.2606722.0361108-2.5346757-.1147759-3.7906926-.277904-1.1409236-.1481887-2.2651514-.2742326-3.405218-.0138709,4.5356459,1.0156732,9.0297955,2.2099324,13.975399,2.245218ZM45.4744495,28.003558c1.9899771-2.1990135,3.9501494-4.3289266,4.6314617-7.344697.7637757-3.3808144,2.4550055-6.2854962,5.339225-8.4136794-1.304147,2.4678184-3.495204,4.462599-4.1095426,7.6202786,1.7095867-1.9005307,3.1928276-3.6287071,4.7629228-5.2740023,1.7988427-1.8850093,3.7501804-3.60424,6.0957849-4.8014882.48821-.2491889,1.0858634-.717439,1.5664238-.142835.4385987.5244213.0066868,1.0955338-.2849717,1.5843892-1.7438142,2.9228536-4.1652906,5.2253802-6.7773617,7.3476119-2.6303858,2.1371078-5.1010608,4.4235257-7.3289905,7.598938,1.9448307-.9518524,3.4489467-1.7524267,5.009657-2.420831.6434558-.2755763,1.565334-.8839793,2.0762283-.2125279.5427836.7133497-.3611609,1.3418131-.8148683,1.8879189-2.0809048,2.5046275-4.6593621,4.3684654-7.7998381,5.2101021-1.8069685.4842635-2.888843,1.5468289-3.7140484,3.0633662-.7144183,1.3129604-1.4147859,2.6335599-2.2015581,4.1002742,1.5001325-.0009311,2.5944919-.6752604,3.681572-1.2379985,2.0477354-1.0600049,4.0941799-2.1464925,6.0298692-3.3945741,6.4358803-4.149674,13.2372806-7.4635622,20.8710704-9.3203113-.2860297-.3383179-.449634-.5601142-.641636-.7537773-.6497088-.6553851-1.5116386-1.3025388-1.2742892-2.3115939.278105-1.182314,1.4601651-1.4154313,2.4617452-1.624637,7.6764075-1.6034022,15.1656906-.9171276,22.4085992,2.0720226,2.2577557.9317709,4.5644985,1.5743167,6.9506047,2.0412284,6.0363761,1.1811502,11.55898,3.5607706,16.4793811,7.2804795.5514066.4168666,1.085091.8664794,1.5762212,1.3522559,2.6369244,2.608167,2.7151239,5.1551583.2022438,7.8882477-2.7595086,3.0013229-6.0427032,5.3588092-9.4809531,7.5049738-8.1221585,5.0698805-16.8038598,8.9171886-25.9316825,11.7734759-.766971.2400051-1.5639268.4204322-2.3605334.5219296-1.6337255.2081688-2.5318402-.4587331-2.3964855-2.0874964.118479-1.4258212-.6109211-1.2390565-1.5149714-1.2888054-6.4304631-.3538605-12.5921532.9495776-18.6647988,2.8955192-1.4310162.4585638-2.9302123.6556761-4.4386345.6677695-.8556663.0068667-1.8425503.1522409-2.3724681-.6988969-.5361814-.8611998.0273397-1.653934.4777883-2.400559.1192831-.1976942.2334876-.3984567.3907119-.6674309-1.1282589-.5025041-2.2042614-1.0609466-2.3628082-2.4823558-.0631965-.5665894-.6014411-.6380704-1.019207-.804034-3.1618906-1.2560275-6.3505602-2.4487525-9.4806727-3.7793187-2.5047227-1.0647449-4.8449947-.7176982-7.1573399.469652-2.2760439,1.1687182-4.2377873,2.7897155-6.2238074,4.3753109-2.0339333,1.6238434-4.100634,3.2040534-6.6087583,4.0503666-3.5834919,1.2091776-5.8857593-.8426947-5.325772-4.6065238.4564477-3.0679158,2.2983367-5.2122711,4.5991598-7.2483046-3.3554585-1.78913-5.0854072-4.5002122-5.1623794-8.1510217-.0790354-3.7484875,1.9494437-5.3823505,5.5452089-4.3372428,3.3188293.9646335,6.5656961,2.1783924,9.8386331,3.2988324,2.4118535.8256497,4.8614684,1.4853887,7.4202409,1.5909067,2.4463561.1008732,4.1524725-1.9490628,3.7343468-4.4169764-.0288421-.1701852-.072174-.3402647-.1300222-.5028427-1.9000017-5.3399973-.2248805-10.0949002,2.4246822-14.6782371.3895057-.6737844.7528145-1.6388887,1.7373073-1.4151456,1.1153614.2534686,1.1818167,1.3522718,1.183827,2.2594433.005068,2.2817308-.7490584,4.4216847-1.4004178,6.5752238-.1795489.5936011-.3444651,1.1916247-.5160999,1.7876276ZM26.4065545,44.4252549c-2.1346848,1.3994549-3.9642318,2.4923966-5.6741307,3.7482547-1.9019908,1.3969791-2.9585095,3.3862368-3.2696729,5.7103632-.3016411,2.2529628.8308976,3.1922775,2.9507435,2.5141604,2.1204966-.6783075,3.9334482-1.9106878,5.6806588-3.2549979,1.8298697-1.4079087,3.6374254-2.8493994,5.5233393-4.1788864,3.5332775-2.4907672,7.2536159-2.5706702,11.1571852-.8318816,9.3818785,4.1789922,19.1828454,6.55966,29.486909,6.8259785,16.2412381.4197339,31.0291883-3.872955,44.2064994-13.4650654,1.5385339-1.1199427,3.0777026-2.2514181,4.3883989-3.6540577,1.0985281-1.1756061,1.2038768-2.4221006.3712123-3.7879417-.5795609-.9506886-1.3118389-1.7575052-2.1785299-2.4445098-2.5032626-1.9842849-5.2422241-3.5748848-8.179557-4.8196336-10.8313151-4.5899919-22.0434283-4.4532724-33.3785912-2.6371995-9.3871475,1.5039784-17.9963733,5.0764932-25.82973,10.3616842-7.4520084,5.0278976-15.0775244,6.1349323-23.4130043,2.4618299-2.5625444-1.1292006-5.2806626-2.0412496-8.073055-2.548007-2.1542162-.3909447-3.1425868.4993088-3.1863154,2.6954127-.1095174,5.5002053,3.5546393,8.548759,9.4176401,7.3044969ZM91.121953,21.4330795c-4.94153-2.1594641-10.0647144-2.4428646-15.2823286-1.7712915-1.0231853.1316939-2.0367424.3891566-3.0319002.669621-.6453285.181866-1.0293748.7003623-.5697423,1.3166424.6611356.8864393,1.5124004,1.713803,2.7138437,1.5617419,2.573146-.3256902,5.1294162-.7846402,7.9099163-1.2232918-1.0853555-.658993-2.3100862-.352776-3.3035618-1.3025599,4.0872392-.3752169,7.7855123.9289089,11.5637729.7491378ZM43.7693806,29.3624266c1.9691761-2.9837807,3.2223892-9.3878617,2.1735254-11.0746319-2.7355811,3.5148994-4.9411227,9.955525-3.3819835,12.3024203.1029946-2.2065361.2859821-4.3274665,1.5008995-6.5566764.1071262,2.0210411-.5519197,3.6445671-.2924414,5.3288879ZM65.018932,56.3979908c-2.8561814-.0935834-5.692567.3295891-8.5275348-.1668419-.7374306-.1291334-1.2247625.5922574-1.5714494,1.1754474-.4146341.6974686-.2435284,1.2983913.6830581,1.2385169,3.2564157-.2104224,6.374038-1.0374158,9.4159261-2.2471224ZM91.9305049,55.0049582c-3.1101844.4411908-6.1903099,1.029142-9.3221206,1.2196839-.7880048.0479397-1.158286.4844328-1.0763728,1.2398289.1079727.9957609.8327492.9837628,1.5465221.7963527,3.0501937-.8008494,6.0047514-1.86898,8.8519712-3.2558655ZM62.3601803,10.7545291c-3.3041331,1.7557859-5.5089764,4.6275575-7.7209509,7.4920922,3.1007255-1.962283,6.1064287-4.0210325,7.7209509-7.4920922ZM47.6958194,29.381302c2.7833885-.8658763,5.3596451-2.050317,7.0475421-4.6009373-2.7545464.9102398-5.0505396,2.525693-7.0475421,4.6009373ZM53.5786002,53.7176763c1.4931018,1.9540674,3.6188674,1.8654039,5.7615087,1.725087-1.7958379-.941928-3.7554176-1.366021-5.7615087-1.725087ZM120.0328349,91.9963331c3.1448986-.7754247,6.2270661-1.4390044,9.4179787-1.4754749.5482324-.006253,1.344564-.2325565,1.4964981.4635577.1357144.6218083-.6210466.9373679-1.1151498,1.15763-1.4191662.6326215-2.84303,1.2994493-4.3299317,1.72733-5.3397222,1.5365871-10.3077138,4.0085424-15.45773,6.0197438-.3079205.1202671-.5927017.2997419-.8520478.5839624,2.2050549-.3094652,4.3773212-.7101227,6.5901527-.7909673,1.2728291-.0465007,2.5396697-.076877,3.7998975.1377882.4470841.0761575,1.0040348.085701,1.0583121.6730385.0515052.5573739-.4647004.779149-.8799059.9423406-1.9934581.783487-4.0593494,1.3030784-6.183602,1.5830349-.400467.0527749-.8046795.1107553-1.2070827.1102051-5.7677405-.007766-11.351901.9029393-16.694279,3.1722171-1.1423837.4852369-1.5478235.3923942-2.6311264.2539818-.0619692-.5130739.3430473-.7039543.6751757-.8913009.6008275-.3389316,1.2098018-.6904961,1.8576273-.9145778,3.7290619-1.2899164,6.5928189-3.2919445,8.011054-7.3249488,1.0378073-2.9512355,3.5303203-5.0897822,5.9247744-7.1157643.4080531-.3452586.8782871-.9220687,1.5072795-.525527.6723825.4239131.4578972,1.1648352.2837867,1.7414019-.6583318,2.1800641-1.9477403,4.0407491-3.15167,5.9394493-.2619171.4130576-.5706311.7964479-.7519892,1.3055436,2.0522743-1.0637504,3.7675957-2.5569368,5.4624968-4.0714427,2.6230641-2.3439011,4.8597649-5.1137573,7.8000074-7.1068027.9540637-.6467251,1.9339435-1.2596777,2.9344867-1.8312187.3605155-.2059363.8021507-.6987805,1.2277038-.2563412.4266957.4436243.1151885.9956234-.1271972,1.4445167-.7533329,1.3951487-1.9324411,2.4338871-3.0423113,3.5262892-.5285106.520205-1.0813773,1.0156626-1.6232086,1.5223354ZM102.824223,100.8749457c3.0447765-1.402428,6.9768652-6.67287,7.1136165-9.5225762-3.1182995,2.6538424-5.6773418,5.5567785-7.1136165,9.5225762ZM128.6980732,91.5687592c-5.160787.0725919-9.847637,1.4730732-13.6428156,5.1852277,4.3662647-2.1802968,9.1718581-3.1856965,13.6428156-5.1852277ZM123.3858917,86.9931724c-3.6163598,2.0401175-6.2875118,4.7072277-9.1443703,7.7038212,2.6340677-1.2062574,7.7483011-5.5136424,9.1443703-7.7038212ZM107.6893945,102.2310529c3.6861691.2351381,9.0158929-.561204,10.4167974-1.5564465-3.3149251-.2442267-8.2593436.4945582-10.4167974,1.5564465ZM30.3483613,59.9469643c.9203282.0610382,1.8497079.060033,2.7595827.1927532,8.5902182,1.2530967,10.2196322,8.131046,9.0342181,13.6667802-2.2343414,10.4340116-13.8894652,15.4269834-23.1774429,10.1318151-5.9738779-3.4057682-7.4256898-11.9699957-3.0836964-18.0650717,1.860119-2.6111401,4.3721897-4.2479127,7.4474642-4.9960612,2.297612-.5589609,4.6286896-.9841225,7.0198744-.9302155ZM27.1687168,84.7897151c7.2678254-.0845901,12.6072778-4.4576897,13.9783509-11.4484892,1.1943809-6.0898705-2.0388426-11.386848-7.6922675-12.5273696-3.7788003-.7623368-7.5077405-.3452798-11.0613482,1.0191435-6.1451317,2.3594331-9.3106991,8.9175695-7.4539182,15.0931622,1.5644611,5.2033518,5.8175899,7.9381764,12.229183,7.8635531ZM130.1386117,55.4901528c5.2059335,1.9922307,11.1591267-.2418778,13.9860323-5.2379602,2.6529219-4.6886063,1.4139818-11.0720397-2.8303759-14.3960851-.7053721-.5524223-1.3814366-1.2698983-2.4277082-1.143611.6025521.4445554,1.2136531.8780649,1.8063442,1.3353696,5.2253061,4.0317346,5.8168969,10.6795397,1.2266034,15.402839-3.5757418,3.679366-7.8604742,5.1050179-12.9063584,3.327357.254405.441085.7254113.5513537,1.1454626.7120906ZM122.7703469,43.5966215c-.1604725,2.2739119-.1918962,4.5762956,1.583638,6.3992511-2.9229012-6.6798742,1.7177019-14.8075662,8.7164579-16.0910603,1.5254354-.279745,2.9727454.2262718,4.4619536.1336512-6.2829728-2.7158963-14.2584768,2.4220477-14.7620495,9.558158ZM120.4705871,57.7288427c1.4047663.0072793,2.5898947,1.1614813,2.5573071,2.4905662-.0355289,1.4490875-1.5192776,2.9827015-2.8496851,2.9454586-1.3523617-.0378566-2.4950734-1.1920162-2.5353317-2.5607246-.0448396-1.5245361,1.291387-2.8832672,2.8277097-2.8753002ZM122.2282193,60.1466794c-.1204998-1.0850381-.7594484-1.7078092-1.8368686-1.6139508-1.1689616.1018255-1.9632723.8601206-1.9551677,2.043937.0079141,1.1575242.9182174,1.8469094,1.9604367,1.7765393,1.1630683-.0785275,1.6954302-1.0544926,1.8315996-2.2065256ZM49.8215321,67.1766051c.9076265-.8177568.6539409-1.261762-.431933-1.6234202-1.3146427-.4378369-1.6528125.7264905-2.3236608,1.3109607-.289627.2523207-.7461383.759861-.1311437,1.1125047.4229926.2425127,1.1325651.3314936,1.331-.2628799.3252088-.9741135.8873016-.8731768,1.5938163-.5891256,0,0-.035349.047855-.0380788.0519602ZM49.7796761,69.6135077c.667251.2614409,1.1398762.0038195,1.2727656-.6464923.1292392-.6324522.2980596-1.3865681.0674181-1.9229611-.1948375-.4530832-.8932795-.3081956-1.2983278.1325509.0027297-.0041052.0380788-.0519602.0416232-.0562876.5218027.8570417-.3924365,1.6769146-.0699468,2.532602l-.0135323-.0394119ZM49.7902882,69.6474072c-.4130047-.5869566-1.2687768-.5190729-1.6608853-1.1697445-.1356298-.2250445-.5607173-.2808559-.759131-.0263874-.2566798.3292188-.2598539,1.0778646-.0705076,1.085546.8228565.0334128,1.641756,1.427567,2.4799117.0766865,0,0,.0135323.0394119.0106121.0338995ZM79.8643231,84.2310081c-3.2817133,2.431041-7.03529,2.1023089-10.4780366,2.9129769.3802691.2449673.7403085.3778779,1.1118593.456215,3.5814658.7550787,7.0046598.6040122,9.9510706-1.9025727,1.4278632-1.2147005,1.3472408-2.275499-.1519341-3.128827-2.6673853-1.5182725-7.6060692-.8977338-10.1721369,1.4195576,3.2674298-.299435,6.3722076-.8679606,9.7391776.2426502ZM125.2463756,73.0034159c4.6830304-1.6902035,8.5515945-4.6151891,12.1498091-7.9949613-4.6812212,1.6920233-9.1747995,3.7096046-12.1498091,7.9949613ZM61.1282972,77.4076006c2.5778965,5.1645748,1.5284191,10.2773693,1.3092467,15.3692252,3.0064862-5.2910208,2.4607295-12.6431929-1.3092467-15.3692252ZM138.4972203,77.294433c-2.9282232-2.4523605-9.419788-4.1224189-12.5001251-3.1655197,3.9939627,2.312234,8.1016114,2.3677069,12.5001251,3.1655197ZM52.8940715,83.7735024c.0431044-1.3046019-.8812602-1.6249967-1.9342715-1.675592-1.1467322-.0550814-2.490873,1.260175-2.4950946,2.3967818-.0042745,1.1522129.8318181,1.3682746,1.6168921,1.4989633,1.2761725.0398139,2.7772413-1.1533238,2.8124739-2.2201531ZM72.7499342,75.7287816c2.3811334,1.2515625,4.2483253.8151752,6.0948961-.1048832-1.9372869-.8247822-3.7863017-.2744442-6.0948961.1048832ZM90.5222894,84.8791616c.2560026-.2141573.5356206-.5023136.2559074-.8614431-.2035134-.2613034-.5346684-.1723119-.795411-.065556-1.2123623.496431-2.3527674,1.1048869-3.4879671,2.4209791,1.7820094.017701,2.9612868-.6021077,4.0274707-1.49398ZM90.7827569,75.6496298c.3619862-.1243299.8875449-.2348842.7164497-.7560203-.156071-.475376-.6797993-.3343185-1.0454146-.2662233-1.2879802.2398887-2.5675489.524998-4.3951174.9067483,1.870366.6675684,3.2934046.6069535,4.7240823.1154953ZM73.2526182,73.5731899c1.6846488-.1722907,3.1866487.44555,4.787501-.5508881-1.8812321-.9433352-3.4922839-.7815931-4.787501.5508881ZM86.6522863,73.4705921c1.7860193.0984503,3.1671068.4466609,4.6283193-.7109056-1.6993026-.5754769-3.0085282-.4005834-4.6283193.7109056ZM109.3846977,75.1534951c-1.72733-.2549129-2.7560277.3698792-3.8430654,1.4668202,1.5881347.1656463,2.6870119-.2823266,3.8430654-1.4668202ZM131.2415941,36.0264303c2.2100594-1.7174374,4.589373-1.2762994,6.8135572-.2452212,4.5947372,2.129966,6.6139585,7.0702581,4.9179464,11.5642914-1.8158242,4.8115184-7.5527547,7.9830055-12.1319388,6.7067589-5.1669025-1.4400624-7.7120634-8.0907771-5.093644-13.4413336.8122867-1.6598484,1.8078678-3.2216274,3.7247346-3.8505563-.3442006.3723126-.6762443.7568244-1.0347179,1.1148642-1.7500778,1.7480358-1.7589336,1.8567174.2736401,3.2177762.859909.5758366,1.7750052,1.0769124,2.6976769,1.5479716.4444496.2269172.9738172.5560302,1.4719516.2270018.5288069-.3492898.3203101-.9541378.235646-1.4398508-.2963773-1.7001808-.9688233-3.3196228-1.0664166-5.0686743-.0266414-.4775238-.4604048-.4042971-.8084355-.3330277ZM142.2584783,44.1535192c.4201888.1137284.7600303-.1804588.6147407-1.0615074-.3178766-1.9277117-1.0965495-3.5999285-2.5341467-4.9635795-.5813278-.5514383-.886762-.4227281-1.3249797.177782-.8453081,1.1583706-1.8198025,2.2226606-2.6610053,3.3837293-.327272.4516972-1.1706756.8260835-.6661612,1.566191.4115552.6037582,1.1218366.712736,1.8531729.6874066,1.4330899-.0496537,2.8713431-.1745549,4.7183794.209978ZM133.014261,53.7321397c.4739582-.0750677,1.0389923-.1967949,1.6102477-.2459407.5688218-.0489342.8538782-.2125173.6364516-.8509686-.559236-1.6423168-.8202114-3.3514485-1.0747328-5.0600725-.0533251-.3580503-.1537963-.7213696-.511709-.8345478-.4700647-.1486648-.7214966.2397406-.9775627.5500523-.6969501.8446203-1.4207003,1.6691274-2.0797939,2.5423888-.6033668.7994422-2.107652,1.4712957-1.7270867,2.3200635.5025464,1.1207997,2.070462,1.2855361,3.3365514,1.4831457.227224.0354654.4567651.0560971.7876345.0958793ZM134.9912243,35.519493c-1.5922187-.1468767-2.2476515.2457079-2.0662828,1.5229596.2279012,1.6049257.5689488,3.1783854,1.1808539,4.6869452.3101318.764601.6846346.8682569,1.2117909.1855479.6352877-.8226872,1.2689249-1.6475435,1.9314888-2.4481177,2.1042663-2.5426004,1.9632934-2.9499447-1.3454422-3.7551426-.4472111-.1088191-.9011724-.1898542-.9124088-.1921924ZM129.5265796,45.8085959c-4.4498285.1551082-4.9271936.9312736-2.8208536,4.3539598.8564175,1.3916255,1.2808067,1.4372798,2.4230634.2303452.5538083-.5851579,1.1370406-1.1550061,1.6059309-1.8046937.5469628-.7578719,1.7271607-1.4961066,1.2245932-2.4377384-.4341972-.8135458-1.6903199-.2518974-2.4327339-.3418729ZM140.1625705,44.6481621c-1.1417489.2536855-3.227563-.3838347-3.6248982.7811064-.4350013,1.2753895,1.5738512,1.9748472,2.5976501,2.8163992,1.9448201,1.5986198,2.0205121,1.5441627,3.0622341-.7611201,1.1566249-2.5596031.956931-2.8654498-2.034986-2.8363856ZM140.497672,50.1138754c-1.1310204-.8912163-2.1844655-1.7673238-3.2892042-2.5731142-.5821108-.424622-1.2804152-1.2252068-1.9140736-.8746369-.7067687.3910399-.1838445,1.352076-.0776599,2.0395356.2230765,1.4443157.0607948,3.7396952,1.2041942,4.0205617,1.4514998.3565479,2.8477489-1.3090668,4.0767435-2.6123462ZM128.2772072,45.213376c.9181328-.0592818,1.8387307-.0946731,2.7532027-.1892934.3797401-.0392955.8648606-.0711107.9938141-.5258444.1402428-.4945371-.3234736-.7014997-.6430855-.9069281-1.2082677-.7766521-2.4983216-1.4401999-3.6403455-2.3017277-1.1317716-.8538041-1.474967-.3878764-1.8283091.7040072-1.0134196,3.1316414-.819693,3.425363,2.3647233,3.2197864ZM134.0982199,45.3174869c.4802853-.1245204,1.075156-.2116497,1.019736-.9014793-.0354442-.4411062-.4255425-.7082394-.8769857-.6396997-.5798254.0880181-.9157099.5487826-.9511964,1.0736536-.0286305.4232677.432462.4471793.8084461.4675254ZM78.715041,39.8036752c2.5167314-1.2044905,5.2099963-1.2234188,7.7856287-2.8124104-2.9669262-.4772699-5.4263649-.3559448-7.6771587,1.0284754-1.4738244.9065155-1.4938742,1.9325363-.1883729,3.0210977,2.9528754,2.4621685,8.170479,2.7068924,11.8524054.3043549-4.2001635.1714232-8.0095305.2019687-11.7725025-1.5415176ZM35.7420593,42.7388814c-5.388757,2.2651408-10.461801,4.9648915-13.9089701,9.9027818.1062058.1463159.2124168.2926319.3186225.4389478,4.6184161-3.3256748,9.2368322-6.6513495,13.8552483-9.9770243-.0882985-.1215685-.1766022-.2431369-.2649007-.3647054ZM103.0409301,45.6825096c-.970495-2.5680568-2.0279501-5.0853067-1.8832212-7.9345262.1460303-2.8747606,1.3805478-5.4183238,2.3732616-8.5242337-5.118328,4.6639011-5.2189262,12.3273159-.4900404,16.4587599ZM34.9218478,41.6822411c-4.1057443-1.3360362-8.0859525-3.0945677-12.4219415-3.5887768,3.831517,2.3193758,7.7493274,4.2852191,12.4219415,3.5887768ZM114.9146656,33.3021543c.0157965-1.1356863-.7985957-1.6709049-1.7904948-1.7032597-1.0643641-.034693-1.7132899.6972146-1.7795018,1.7223467-.0759247,1.1759658.8670507,1.4866055,1.9182105,1.7839879.828644-.2687837,1.6365081-.705097,1.6517862-1.8030749ZM89.5734101,35.91522c-1.983047-1.4781094-3.7776364-2.9530976-6.499426-3.4257227,1.5150772,2.5012418,4.0531281,3.7997177,6.499426,3.4257227ZM95.7311748,30.4604468c-1.5807284-.4043606-2.9699098-.8023835-4.7037045-.1003865,1.8367205.9541166,3.0160508.9626761,4.7037045.1003865ZM63.5340617,35.5249631c-1.9861682-.0502356-2.8741681.2541193-4.3072051,1.5875422,1.8289227.0237953,3.1915474-.2315514,4.3072051-1.5875422ZM96.4552636,28.6568112c-1.5730788-1.2197685-3.0078405-.9366801-4.43509-.6204435,1.3066757.7290086,2.6826739.7732346,4.43509.6204435ZM63.4166196,33.2365666c-1.5856271-.6760539-2.3550528-.5021973-3.7607184,1.0124568,1.2023744-.3675409,2.6626453.0826221,3.7607184-1.0124568ZM66.0506662,46.3548181c-.1830298.1857807-.0939748.4800525.1597107.5166395,1.028285.1483474,1.8694561-.1652336,2.3944647-1.1190328.0238482-.0433055.0030577-.1111679.0030577-.2089306-1.0384104-.3147131-1.8535962.097149-2.5572331.8113239ZM26.5065761,84.0602939c-4.9065566-.0112152-8.6712956-2.3092821-10.2479082-6.2554956-1.7406613-4.3568482-.5299125-9.724418,3.1540294-12.9669628,4.390134-3.8641098,9.563718-4.6586744,15.055332-3.0765705,3.6326219,1.0465255,4.9802753,3.9755846,5.3491758,7.5145173.83404,8.0010238-5.2712831,14.8029003-13.310629,14.7845116ZM17.2534977,76.3800034c.6645742-.8762028,1.6294034-1.0906351,2.5283328-1.3946091,1.4740042-.4984624,2.9700051-.9402246,4.4758562-1.3324706.7044146-.1834636.6986483-.6248978.6813652-1.1714691-.0179284-.5670126-.3864798-.6222739-.8165771-.645392-2.249831-.1209019-4.5003656-.2319005-6.7485355-.3787667-.7935806-.0518332-.9394363.3609176-1.016509,1.0350987-.5205754,4.5539287,2.0428684,8.712395,6.4327855,10.0959582,4.7813697,1.5069409,9.0562147.4248971,12.5707226-3.1082587,3.7049546-3.7246182,4.4062691-8.2622955,2.8467914-13.1387668-.8575919-2.6816794-3.504684-4.3145267-6.3220673-4.2522083-.3664194.0081151-.843065-.1890289-.9274382.4506603-.3075714,2.3318395-1.6364499,4.2969527-2.351064,6.4847404-.237561.7273052.0264721,1.1238892.5101272,1.6450465.5944634.6405356,1.0288563.2871618,1.5005451-.0021161,1.3778445-.8450436,2.7237946-1.7425658,4.1096061-2.5739077.5228713-.3136762,1.024275-.8248033,1.9306001-.6235224-2.2892641,2.4598725-5.6819708,3.0973292-7.8962464,5.6315712,2.7854358.7726738,5.3570793,1.4860447,7.9287282,2.199405-.8277341.6188564-1.5834529.3503055-2.3252003.1499556-1.7262244-.4662875-3.4378426-.9873495-5.1673733-1.4404433-1.6393172-.429489-2.9260383-.0427235-3.720222,1.6126282-.698188,1.4552664-1.4902239,2.867386-2.2858836,4.2730517-.3123431.551798-.5864382,1.2091353-1.5224094,1.4245622.6784821-2.6168006,2.2575388-4.6255155,3.3219452-7.0347292-2.760646.5148302-5.0703513,1.9599606-7.7378795,2.0939822ZM24.1059589,71.1228927c.4827664.0637679,1.0279623.3653508,1.3379936-.3253464.2481679-.5528772-.157018-.8541321-.4128355-1.2139493-.9073461-1.2762254-2.0689331-2.3135354-3.1788616-3.4020968-.2906269-.2850457-.9526406-.6229616-.5304521-1.0833452.4927384-.5373241.9204975.1138025,1.2699512.423966.3828666.3398203.6836559.7739858,1.009854,1.1754474.7248823.8921368,1.4060518,1.8231882,2.1757155,2.6744847.6577657.7275486,1.3274873.9229151,1.7815544-.2593354.8036214-2.0924057,1.6209232-4.1798492,2.4630519-6.2569768.2615203-.6450323.0060361-.7829051-.578413-.8586817-4.3813418-.5680918-10.7465875,3.2777774-12.3293791,7.4407086-.2682864.705626-.2295464,1.0098222.6348592,1.073114,2.1225439.1554256,4.2384115.4020646,6.3569613.6120109ZM26.7072698,73.0373471c.6889619-.1736662,1.5073271-.3257167,1.6560818-1.1879851.0804584-.466351-.4908234-.6296167-.8774883-.5335786-.7266545.1805011-1.4945143.4677687-1.630927,1.3120188-.0546899.3384555.4528081.4315627.8523334.409545ZM30.02885,82.0982912c-.302916-2.6969786-1.1896515-5.1614113-2.8413107-7.3323762.0973394,2.7872503,1.6164954,4.9981033,2.8413107,7.3323762Z"/>
  </g>
</svg>