<?xml version="1.0" encoding="UTF-8"?>
<svg id="Layer_2" xmlns="http://www.w3.org/2000/svg" viewBox="0 0 120.5196186 194.5040965">
  <g id="Layer_1-2" data-name="Layer_1">
    <path d="M38.5360767,95.8514915c-.8064388-.9017089-1.3689572.0627968-1.9215939.3367516-6.0741707,3.0108383-12.2991919,3.5857651-18.7302482,1.3041112-.6433684-.2282559-1.2804257-.4849998-1.8939294-.7830425-.4133901-.2008365-.7801635-.4975843-1.221105-.7863363,2.0880148-2.4268974,4.765125-4.4051153,5.0029356-8.2890237-2.0451194.9600175-3.8371974,1.6684833-5.4822529-.015124-1.4850463-1.5198454-.9642354-3.5519215-1.2535154-5.402308-4.0215898,1.8053413-5.5200253,1.0586569-5.858273-2.9069816-.9311838.4812785-1.7906888,1.0312249-2.7246761,1.3839932-1.4797158.558885-2.8929702.4100208-3.7975329-1.0585689-.8299295-1.3473963-.611398-2.6701516.6137992-3.6741898.6916949-.5668493.6587941-1.0134545.2668392-1.7243341-.8324627-1.5098005.1486505-2.4215481,1.2134801-3.2785323,1.1112641-.8943355,1.5306699.1128205,2.1199098.7322833,1.1078005,1.1645942,1.6518381-.7998009,2.8846853-.1364494-.5182023-.8125111-.7979528-1.2511393-1.0771376-1.6893213,1.0756101.4129878,1.8649448,1.5116925,3.5327556,1.4537611-1.1522737-1.2293773.5674654-3.1525993-1.3780027-3.7768835-1.3558446-.4350767-2.8517028-.449767-4.3310855-.0551719.443261.8867295,1.3839429,1.1400664,1.624117,1.9864337-1.2389697-.3759069-1.9956677-1.3843263-2.848057-2.2394123-1.2745797-1.2785964-1.1066502-1.9419165.6125106-2.2425867,1.7869675-.3125318,3.5275319-.1524723,4.9050192,1.2630827-1.6739647-.1664397-3.3048705-1.5134903-5.3363808-.1345636,1.950786.8231595,3.640365.4916064,5.3308869.1335642-.0775436-.3565964,1.2388126-.0411982.3742474-.7886433-.4299473-.3716953-1.0551367-.5539757-1.2146933-1.2078228.438578-1.3525759-.2190847-3.2603345,1.978023-3.7170097-2.7795023.1096209-2.935413.4235859-1.947731,3.7311217-1.0437654-.609047-1.6761208-1.4638752-1.3012133-2.7043599.4005165-1.3252006,1.4981337-1.6150589,2.7493171-1.6927409,1.3188957-.0818747,2.5323319.4558832,3.8334069.5517693.4245414-.720956-.0962758-1.3327877-.1833427-1.9745218-.2057082-1.5162561-.8736735-2.2450131-2.6054691-1.8709542-2.4403179.5271095-4.9123172.5086602-7.1681986-.8059737-1.0109212-.5891331-1.868245-1.3296762-.5540637-2.4925983.0962444.7513675.2001388,1.5332283.998651,1.8725257,2.6074114,1.1079137,5.2548519,1.512472,8.0788399.4613332-1.2944559-2.3856929-3.1593819-3.3023499-5.6499121-3.2499689-1.2838389.0270045-2.3064332.7577415-3.4981199.9840425,1.6695771-1.7132645,3.7143633-2.098437,5.9484765-1.5581207.5827214.1409313.7063223.065154.6735159-.4681094l.1010469-.0985513c1.7811718,1.5797758,2.4734827,4.1263705,4.6036826,5.3962358-1.5361575-2.6116105-1.6157881-5.1447092-.1195842-7.2364705,1.3387845-1.8716771,2.9182901-1.7242524,3.8580605.4062933.6977105,1.581781.6012839,3.2381387.0382312,4.8206049-.3497007.9828607-.238106,1.6384553.5926909,2.3037491,1.3132384,1.0516166,1.9704862,2.6020872,2.8338444,4.1940201.8353354-1.4735745.9031295-2.595883-.2121513-3.9393883-2.033459-2.4495709-2.769979-5.3717834-2.4526259-9.0316726,1.101678,1.9850633.8197965,3.8889246,1.6856817,5.6118003.2473527-.5781264.4194561-1.0482536.6437707-1.4919923.6937127-1.3723202,1.5967982-1.5719435,2.7638314-.5028079.2809071.2573348.4470703,1.0657411,1.0748432.4416329.5326474-.5295421-.0871675-.845349-.3216842-1.2036112-2.1776967-3.3267645-4.3683676-6.645043-6.5494524-9.9696012-.6059229-.9235841-1.0665017-1.918935-1.3290099-2.9936462-.3295731-1.3492758-.2152503-2.7903518.8086955-3.6540055,1.7974399-1.516055,3.2872447-3.1439373,3.9131067-5.4567508.0488734-.1806272.2261061-.4219705.3871022-.4624709,2.3584873-.5932692,3.1116966-2.6820698,4.4377583-4.3653126,2.1883702-2.7778176,7.6287649-2.9587591,10.4819324-.8526281,1.2920547.9537535,2.5473428,1.4925706,4.1403505.0771885,2.1926384-1.948171,2.5479839-1.7994734,4.9895025.2008994.561148.459746,1.0366686.0867306,1.4996172-.1217214,1.7950324-.8082555,3.4286663-2.0083308,5.5730097-1.8760647.8991442.0554611.7966076-.86388.7276129-1.408235-.130308-1.0279908-.7611296-.3756523-1.1899203-.2287242-5.5629647,1.9062342-9.9870322.3662391-12.4046829-4.3286749,6.499787-1.8568925,6.9834667-3.5470404,14.0403661,1.9121556.5080819-2.3478797.1825821-4.5281851-.4005542-6.717363-.2250752-.8449781-.7277763-.8068726-1.3948428-.7523167-2.0078374.1641988-3.7106169-.3989324-4.5898849-2.3656501-.9469553-2.1181089-.2615212-4.04685,1.0223114-5.7704643.9064611-1.2169657,2.0673906-1.2860924,3.1615883-.1908733.8711591.8719606,1.7024024,1.7971759,1.8461121,3.1122309-.4269929-.0062482-.5214458-.3784747-.7145003-.6422715-.6781549-.9266265-1.3926678-2.4337994-2.5049062-2.0798745-1.4282087.4544783-2.1920538,1.9724788-2.2684031,3.6144385-.0095547.2052619.0048653.4120386-.0116542.6165147-.1103061,1.3661473.6071738,2.228327,1.7833907,2.6959838,1.1204604.4454957,2.3256683.529121,3.3239799-.2618575,1.0251401-.8122439.8037359-1.9259658.4471709-3.0180577-.10182-.3118341-.0879155-.6614531-.1270645-.993748.9311901,1.0209662.9268402,2.3672185,1.2253732,3.601172.1760447.7276694.2943968,1.1570102,1.180944.6033771,3.054136-1.9072179,3.9754571-6.0205357,1.9369568-8.916102,1.8308498.9003731,2.3893576,2.7900281,1.6316099,5.5157099-.4447822,1.5999286-1.4715441,2.8106146-2.7824944,3.715982-1.2038626.8313973-1.6608019,1.8041281-1.5284195,3.2642192.1416479,1.5623165.0319327,3.1474229.0319327,4.765059.6091099-.2447377.6155718-.8435858.7873924-1.3076439,1.756864-4.7448748,5.3153983-7.5022882,9.9417544-9.1290421,1.4314774-.5033454,1.9917704.1221394,1.8828724,1.4192323-.3371288,4.0152944-1.2672126,7.8452284-3.8239528,11.1085267-1.0794005,1.3776852-2.6896633,1.8176084-4.2861472,2.4287549,1.8469167,1.7089995,3.4519998.7899728,4.9710783-.3586111,1.1007477-.8322867,2.1513585-1.7184536,3.5717097-1.9142457.8193125-.1129399,1.8149086-.2865519,2.3941601.2764315,2.0383997,1.9811032,4.5681104,3.1486518,6.9837056,4.5123601.573305.3236517.9175495,1.9463921,1.7717114.6569649.6276535-.9475022,2.1279747-2.1042923.5813762-3.5187253-.9273808-.8481305-1.6325779-1.7654349-1.5973891-3.366055,1.9378369,3.4600993,2.1132027,3.5367314,3.9541477,1.5689985-1.0661497,2.2617714.1345951,2.150337,1.443911,1.8056211.7124637-.1875763,1.5080278-.2463563,2.0430765-.8744121l-.0278845-.0383758c-.3542266,1.6654252-1.7875395,1.3788638-2.8733894,1.4258231-.9636634.0416728-1.6261788.2252418-1.7615533,1.2187729-.1496311,1.0980478-1.5390553,2.1424167-.1484745,3.3267551,1.3557566,1.1546749,1.9436325,2.6228749,1.6488837,4.403569-.1538804.9295872.0221517,1.5933598,1.0997922,1.8235581,1.7608367.3761458,2.1237128,1.7818758,2.1957625,3.2896145.1443006,3.0192866-1.3062358,5.4068402-3.1890957,7.5707706-2.1541117,2.4756702-4.9418235,4.1011198-7.7915902,5.6328709-2.5075212,1.3477986-5.1258639,2.5121665-7.3766035,4.3757787,2.3718198-.5999827,4.727623-.8128254,7.1350339-.720164,1.1207747.0431469,2.0777876-.6395025,2.9623861-1.3033003,3.310289-2.4839991,5.8409929-5.5872914,7.331508-9.4699111.9683778-2.5224818,2.0737017-4.9462048,4.2217538-6.702767.6729878-.5503298.6177971-1.1589368.3934762-1.8360734-1.1662223-3.5203974.9377275-6.3859859,1.9776396-9.4327108.3831169-1.1224688,1.180768-.1289251,1.5617854.2680869,1.6545159,1.7238658,2.5825253,3.8512622,3.1500598,6.1465504.143848.5817785.2474658,1.173514.4733079,2.2594833.4331029-1.2309048.7194914-1.9675632.9527635-2.7206845,1.2713864-4.1048097,3.9514448-6.807202,8.0359634-8.1289516.7129917-.23072,1.4498449-.6426361,2.1352916-.0467644.7607022.6612991.4338195,1.5301921.2313486,2.3062132-.7412911,2.8412901-2.6693219,4.8428478-5.2407965,6.7978642,2.4890907.1235255,4.585359.2150742,6.4102497,1.4626997,1.1158843.7628897,1.5791346,1.2871139.1379518,2.2919566-1.6111176,1.1233268-3.2424132,2.2076493-5.2194745,3.2112097,2.0756503,1.4766106,3.6847942,3.0502073,4.4535424,5.2423931.3535603,1.008256,1.3000504,1.9969752.220411,3.2094245-.3930613.4413941.2763687.9699682.528549,1.4208226,3.0225553,5.4035526,2.254926,8.1876248-3.2091353,10.9489732-1.656364.8370766-2.0289708,2.7081817-3.9926555,3.8753532,2.2770275-.2143954,4.347737-.4689517,4.8322214,1.680521.4792167,2.1260952-1.8236838,2.1365236-3.5183293,3.1604065,2.6217623.3284479,1.7654632,2.1508996,2.0486458,3.8805517,2.1650367-2.9283916,4.1289101-5.5866313,6.0954109-8.242935.3903709-.5272792.0199516-1.0531629.025697-1.5790404.0176258-1.6121108.1969392-3.1729093,2.0178572-3.8506745-1.6101747,2.1879302-1.7456121,3.8183395-.4290673,5.1427543,1.2124618,1.2196781,3.4196019,1.2743786,5.1003429.0684667,1.1902472-.8539796,1.7488557-1.4848766.2391055-2.9331501-1.2589277-1.2076719-1.3315683.984275-2.0716022.2503196-.3640202-.7586592.7654292-1.4793827.1121164-2.285809-.7812698.1817838-.5733427,1.0198033-.9732306,1.4577967-.2520294.2760292-.4890103.5176177-.8499.3052275-.3057241-.1799169-.458033-.493995-.3933127-.8762319q.1766859-1.0434825-.798858-1.0661372c1.6547045-1.6312641,3.4712851-.032071,5.2054694-.222454.3826643-.0420217.493863.6072241.3790059,1.0285219-.1391335.5104202-.0281737.8740632.3256506,1.2946256,1.3588116,1.6150149,1.2768049,2.3147747-.4475983,3.4827256-1.552017,1.0511954-3.3013001,1.531619-5.0474654.6698574-1.2414401-.6126866-1.7915625-.1767864-2.4692145.7869209-1.3779209,1.9595926-2.8902107,3.8242043-4.3010575,5.7615006-.355597.4882685-1.1898198.954819-.4815677,1.7373335.6266603.6923863,1.1193415-.021014,1.6152915-.2610749,3.5260987-1.7067586,7.3215133-.8339714,9.97419,2.2535683,1.0311998,1.2002482.6721204,1.6335522-.7471371,1.660519.074891-.3059693.3500527-.5394614.1420754-.9367092-1.3993938-2.6730683-7.0926917-3.9956665-9.5006809-2.2299079-.673629.4939699-.3260781.771602-.0544239,1.2935507,1.4382285,2.7633473,3.7133576,3.60104,6.6467277,3.064973-2.5113053,1.1818115-4.6168014.4984266-6.4284539-1.4623729-1.5641363,3.1653536-2.0268713,3.2980503-5.0330454,1.4422515-.3012108-.1859514-.5658624-.4580707-.8448587-.0497785-.3007582.4400929-.0502248.8530304.3051835,1.0481467,1.7733458.9734946,2.2826597,2.7189056,3.0063124,4.4295677,1.0633085,2.5136186.785846,3.7445108-1.6890133,4.9534902-.9026895.4409729-1.9010263.6861381-2.8709127,1.0259573.1645162,1.428611,1.5329454,1.3750545,2.4014141,1.9255667.7301021.4628104,1.4149453.9674727,1.1776753,1.947819-.2210899.9134888-.7845763,1.4742093-1.8067997,1.0497434-.4752063-.1973164-.5718718.0379295-.7010107.3940922-.9574906,2.6412362-3.432727,2.3010147-5.4879606,2.7474816-.7760902.1686021-1.0868683-.4479629-1.2586888-1.0715179-.5184663-1.8816026-1.6462939-3.6956312-.6595862-5.8944738-1.8058819,2.2233705-3.5791146,4.3198651-6.4358462,5.1036745,4.5106189,5.49573,4.9705,9.302145,1.9756281,14.1508105-.6636343,1.0744221-1.2877677,1.367788-2.4796492.876037-1.8835639-.777096-3.9519979-1.1141116-5.6101723-2.4086556,1.818655.6000581,3.6297417,1.2094571,5.4498676,1.7905065.6687008.2134839,1.310372.3194652,1.8247901-.4119318,3.151669-4.481012,2.4684099-9.951133-1.472135-12.6207944-2.94515-1.9953157-6.3499925-2.0241054-9.7938708-1.9569336,3.7539523,2.3741833,7.9902141,4.1328451,9.4827533,8.7956346-.2871554-.0900401-.4882057-.2814729-.6223481-.5118786-2.462124-4.2289072-6.6467528-5.9418071-10.9381676-7.4968917-1.0839264-.3927847-2.0866382-.0612504-2.8653434.6432049-.7853432.7104522-.0898013,1.5614459.1567216,2.2814151,1.0348582,3.0222662,3.2561166,5.175523,5.5107032,7.2918436-3.2957685-1.6297869-5.3593372-4.3680533-6.8304538-7.6275517-.2957294-.6552489-.2734394-1.5609808-1.3621558-1.465849-.9540081.0833644-.9220126.8999237-1.0776027,1.5179722-1.0447523,4.1498675-2.7519572,8.0197707-4.7175277,11.8099051-1.322617,2.5503663-2.4501806,5.2106113-3.5274439,7.8772553-1.3410223,3.3195923-2.3052514,6.6882025-1.9250889,10.3993097.2056516,2.0075482-.2384517,4.1014027-.5283855,6.1365337-1.1582391,8.1302905.4050675,16.008187,2.2822071,23.8249211,1.8477842,7.694447,2.333224,15.5958781,3.8255998,23.3391796.0959238.4977477.3375814,1.2299242-.4245791,1.386407-1.8717463.3843238-1.4648558,1.6737007-1.2235628,2.8813349.613246,3.0692098,1.262913,6.1311278,1.664586,9.2386819-8.9201093-16.0103368-9.3954539-33.5507652-8.8206779-51.2708968.1934945,2.1791927.3953494,4.357694.578887,6.5377291.5179005,6.1514817.2538901,12.3526352,1.2653016,18.4763581.6386791,3.8668985,1.5678576,7.6549082,2.7306729,11.3877649.1889309.6065326.1461989,1.7405582,1.3244525,1.3848481,1.0129579-.3057996.977065-1.2074708.8459273-2.0561639-1.1930508-7.7210743-1.7486922-15.539317-3.7083037-23.1441261-1.843032-7.1524334-2.672138-14.4239105-2.1860067-21.8245012.0396267-.6031634.6262077-1.7146223-.6060423-1.7775825-1.1986075-.061263-.7740787,1.0246121-.8315953,1.7030436-.799826,9.4358726-1.5386028,18.8691805-1.2612912,28.3593513.218475,7.4764749.1868943,14.9600152.3512471,22.4385644.0302983,1.3791153-.5370853,1.4932684-1.5881487,1.2474872-1.2650753-.2958174-2.5174153-.7065423-3.7998273-.854363-2.189552-.2524443-3.8472109-.9562208-4.0184531-3.4917899-.0941512-1.3941764-1.4085587-1.5709377-2.3079293-2.0778253-1.2679292-.7146009-1.8272039-1.4669302-1.556964-3.0979743,1.8489848-11.1597101,4.3792612-22.1831531,6.5492387-33.2777533,1.1856082-6.0617685,2.3137752-12.1222169,2.9542018-18.2707568.5162285-4.9560046-.3995233-9.6942131-1.9120267-14.3713472-.6111717-1.8899127-1.1973126-3.7919573-1.6842234-5.7164553-.270485-1.069079-.737243-1.3114406-1.6645357-.781911.1810358-.8980379,1.0155854-1.2315586,1.5835348-1.7782488,1.7811529-1.714484,3.4792935-3.4885087,4.7103743-5.6568267,1.6885104-2.9739397,1.9031258-6.0800983.8161569-9.2954065-.2871805-.8494977-.4932973-1.4644158-1.6784529-.683498-5.7493812,3.7883114-9.3619245,9.0993598-11.3874883,15.5716017-.7166627,2.2899388-1.1928245,4.6363131-.9054176,7.0717594.1217151,1.0313506.4571467,1.385703,1.302678.5126455-.1357894,1.3345478-.9515503,2.3481972-1.6435846,3.4763139-.6615725-4.8684914-2.7046176-9.5603095-1.4411452-14.5712157.2567125-1.0180998.36661-2.1342229,1.2447465-2.9038889-.6602902,2.919541-1.1558756,5.8462856-.2871177,8.8481979,1.4679674-5.9743559,4.1122523-11.2627748,9.0052024-15.6927071-1.7538719-.0453721-3.0675377-.3872028-3.9407586.9872735.237446-2.0529454-1.2439671-1.4722607-2.319332-1.5137229-1.9971009-2.2482126-4.3623708-3.9131381-7.4168525-4.2597838-5.6305514-.6389556-11.5386092,3.057191-14.7640377,9.1357681-.6010073,1.2463683-2.2796676,1.4091496-2.9097286,2.8533372,3.9579067,1.5281303,7.8656452,2.561417,12.0862423,1.9093615,4.9794261-.7693014,9.4887753-2.5032342,13.1678052-6.067715-.8990814,1.2941542-1.7981565,2.5882958-2.6972379,3.88245ZM69.9100127,25.7372056c-.0645066.5453828-1.2230097.9509406-.2186635,1.6299001.6358755.4298719,1.3325363.6917829,2.0900829.3834438.5451816-.2219071.8969316-.6699957.7054863-1.2767106-.2533118-.8027804-.9777062-.8308032-1.6653403-.8143089-.332364.0079706-.662792.0963953-.9941.1484053.4789401-.2431536.9578803-.486301,1.4836634-.7532345-.6115991-.4749548-1.1954771-.6361269-1.81428-.6549754-1.2218405-.0372129-2.7332627-.2279636-3.3589927.8804089-.5148079.911867,1.0044216,1.465453,1.4365313,2.3492909.7714009-.6478817.9611616-2.0207236,2.3356127-1.8922196ZM39.4539468,62.7455211c-.749004,2.3707952-3.1375445,2.559261-5.0421663,3.6101295,1.2913255.3410575,2.2968471-.3846884,3.381069-.2604526-4.1043257,1.678918-7.9876872,1.7357431-11.4744986-1.6714503-.1504231,1.8568611.5995049,3.2559657,1.6368775,4.5528669-.8240521,1.4918352.5177874,2.2698049,1.272191,2.8881803,1.0128888.8302375,1.680653-.5705078,3.1136892-1.054835-1.0506485-.1962604-1.4977754-.4483338-1.7443612-.9300586.852471.3666728,1.7637597.3703627,2.6310089.2153948,2.6098441-.4663368,4.8440767-1.8713942,7.1147428-3.1124886,3.7886132-2.070785,3.773288-5.1028007.0774682-7.4551277-.7877192,1.5936741.2933722,2.040713,1.4944061,2.413062-1.098183-.4328452-1.7108444.5303279-2.5361663.8820527.1622407-.5842175.3730719-1.1598923.4775195-1.7542616.3027634-1.7230392-.9598478-3.3967965-2.6394447-3.4323059-1.1429705-.0241632-1.9583857.3267695-1.1523617,1.698612-1.1955526-.9122442-2.3862838-.8129825-3.5386958.0611687-.4657019.3532649-1.1880974.6801664-.9383498,1.3973383.2201596.6322108.7282226,1.1515131,1.5196066,1.1783039.756962.0256279,1.6537805.1279822,2.0610669-.5802007.4294256-.7466656-.814378-.9892724-.8159558-1.7435755.525494-.2628476,1.0973092-.3834061,1.7084243-.3124941.478651.3437982.7372367.7543596.414817,1.3485718-1.4354187.5201823-.7119168,2.474589-2.0645305,3.0947182-.3580296.1641391-.9108047.5082642-.5331754,1.1160037.3644162.5864867.9177004.4725599,1.4577904.3026503,2.1516854-.6769417,2.9965189-3.0703475,1.0621393-4.583467,1.2686018-.000308,2.2774989.2679266,2.2671962,1.8712057-.0034321.5347846.5219738.1637682.789693.2604589ZM96.3652199,78.2844609c3.1300579.5012427,4.8462642-.4002776,6.4847761-3.5065808-.9845705.2574982-1.9159114.713746-2.7935954.0608418-2.3711535-1.7638917-4.454611.0199454-6.8293726.2626024.8854031,1.5543491,2.0382111,2.3855609,3.2230021,3.2114863-2.774134.6375727-.2777642,1.9591966-.59733,3.1908054,1.2782759-.8333176,2.5939783-1.1069833,3.1031414-2.4750228-.8857551-.4266912-1.8649448-.1449417-2.5906216-.7441324ZM63.1844339,52.8089526c-.4712587-3.0789153,1.4283847-4.5864591,3.7125781-5.8179674,1.3266652-.7152547,2.6921022-1.3584219,4.0381533-2.0378906,1.7740624-.8955235,3.5829867-1.7258427,5.1192762-3.0311545,1.9980815-1.6976628,2.1264158-2.1860256.3834564-4.0933881-4.7574184-5.2061357-10.9740982-7.2815534-17.765315-7.9354005-1.4665153-.1411953-2.8197199.529913-3.7866645,1.7457693-.8314067,1.04545-1.1671023,1.9188784-.0094918,3.1665479,3.4787906,3.7494265,5.7258466,8.1587974,6.5409098,13.2714105.2563542,1.6080124.6978174,3.204798,1.7670975,4.7320734ZM26.230756,33.2479704c-4.2372675-.1263793-5.2534124.7907491-5.2414816,5.0369238.0098564,3.5098684,1.2679354,6.6821805,2.9904466,9.6867391q1.4597076,2.5461421,3.9703152,1.2720213c.9809309-.4946928,2.0059956-.8841145,3.1128406-.9667183.993308-.0741304,1.7581275-.6104111,2.6132825-1.0474616,2.149875-1.0987236,2.8366165-3.1994864,3.9139238-5.0736967.6123849-1.0653828.5964751-1.9213739.0258605-3.0221907-2.4249613-4.6782342-6.684236-5.6805813-11.3851876-5.8856169ZM54.2326559,140.0636911c-.0912219-.0087249-.1824312-.0174498-.2736531-.0261748-.2366288.8426586-.4640927,1.6880201-.7112442,2.527586-3.5282863,11.9853463-6.3310592,24.0934072-6.3756141,36.6877251-.0125091,3.5354397.0129491,3.637398,3.4877795,4.1571969,3.2436201.4852261,3.5104718.2527209,3.4782751-3.1144687-.0877521-9.1782612-.2629796-18.3566859-.2379112-27.5345826.0115536-4.2329679.4095808-8.4648924.6323679-12.697282ZM59.6427586,68.2407985c.1022978,2.7333319-1.1795485,4.4361428-2.5056857,6.1091961-1.8215843,2.2981043-2.2015708,4.8482569-.5535294,7.2417633,2.055045,2.984651,4.291616,5.8451919,6.3486473,8.8397118.9633491,1.4023859,2.6765256,2.3401511,4.5113733,1.6312453,1.7252959-.6665762,1.5281806-2.4078635,1.591166-3.9020245.0171858-.407783-.0446555-.8211606-.0938117-1.2291322-.7897936-6.5541606-4.1433678-11.9632134-7.7424717-17.2554982-.2918573-.4291616-.7764799-.7272168-1.555688-1.4352615ZM77.3130172,72.645631c-.4094174-2.3500515-.9413231-4.3673367-1.7227941-6.3114721-.3949597-.982603-1.17501-1.6755173-2.0829546-2.2065115-3.2614471-1.9074191-8.7443537-.7697037-11.0325199,2.2281855-.8704425,1.1404247-.9188445,2.248376-.1884658,3.4189733,1.3409595,2.1491835,2.6308392,4.3355611,4.0763091,6.4129967,2.2329,3.2091227,6.070506,4.6051724,9.5918399,3.636254-2.2317685-4.6359925-2.5194897-9.1597931-.5412215-11.5798954-.074803,1.7763756.2849804,3.2103234,1.8998068,4.4014695ZM102.7786629,57.9506949c-4.0819665-4.9292013-9.2417872-8.1356713-15.1828777-10.0649278-2.429701-.7889953-4.2525047.2972066-5.2596795,2.6430528-.4691969,1.0928525-.4749926,2.2700752-.6591713,3.4181185-.2582525,1.6097661.3409507,2.1877605,1.9745218,2.1934807,3.7313606.0130874,6.979934,1.2998933,9.5009952,4.1415512.5198115.5859398.9269156.8820087,1.6664718.2824346,2.2738845-1.8434531,4.9033785-2.6514509,7.9597398-2.61371ZM88.0826205,46.8612933c4.4057942,1.6978765,7.9669435,4.227342,11.6068559,6.6274863.5006016.3300948,1.1078382.6915691,1.6699165.6985151,1.5775129.0195179,5.1787917-3.2896836,5.4791476-4.8493507.1531764-.7954824-.0068391-1.4102308-.8617176-1.5591453-4.1139872-.7166376-6.3874945-4.4355142-10.1853229-5.9703768.7929995-.2901161,1.4296293.318076,1.9547461-.3235323.6615851-.8083372,1.1111698-4.4575843.4672105-4.6453711-1.6095964-.4694043-2.8660097.3765607-3.9698752,1.462398-.14376.1414216-.2785562.3193772-.3466206.5062275-1.1437437,3.139996-2.9650891,5.8174268-5.8143404,8.0531492ZM29.9429695,74.0347598c-2.4043685-2.6959744-4.11862-5.0835908-4.9762014-7.9661452-1.0076148-3.3868772.8154529-7.3937076,4.1058154-8.6727063,1.3158093-.51147,2.3818585-1.256451,3.4585875-2.0954323,3.0124915-2.3472983,5.4770293-2.2030291,8.236561.4119255,1.4338346,1.3587236,2.5396425,2.9941679,3.9864073,5.0511427.1089609-4.0975494-1.8111558-6.5495152-4.2913645-8.6592355-2.0371802-1.7328642-4.3398796-2.1944802-6.9023778-1.1313666-2.8039421,1.163293-5.416508,2.6266653-7.8312924,4.4727146-3.8542386,2.94647-4.8214347,7.2981232-4.5646908,11.570435.2335801,3.8866805,4.1401557,5.0782729,7.2514562,6.5156088.2959117.1366946.6219898.208078,1.5270994.5030594ZM36.7932556,45.5288261c3.6860074-.9089566,6.7252268-.3197167,9.2662144,2.3525093.9447678.9935594,3.8958517.5442953,4.5938325-.4867913,1.0973784-1.6210872.8417282-7.6431661-.6965728-8.8000977-2.1813425-1.6405359-3.9873125-3.4478699-4.6664605-6.7559149-2.3852341,5.3033921-6.3280419,8.7664175-8.4970136,13.6902945ZM45.2629001,58.5045889c0,1.0563813.0324356,1.8768819-.0060597,2.6940383-.1174595,2.4936041-1.2360593,4.4121556-3.266765,5.880871-3.0429596,2.200829-6.4945885,3.5046007-9.9728699,4.7830086-.7012118.2577182-1.9542244.6964345-.6134095,1.5923226,2.5939658,1.7331785,5.5487584,2.6081155,8.646255,2.9352873.7772405.0820947,1.4415538-.3750143,2.0816094-.7839854,5.4158228-3.460511,6.2340039-9.8808811,5.031675-14.951372-.1948523-.8217326-.6488497-1.6478402-1.9004354-2.1501704ZM65.0609701,53.4263977c3.8533083-2.6295946,8.0260567-4.0763091,11.851053-6.2092749,3.2116497-1.7909339,5.7144187-4.2387447,7.3015742-7.5787789.5675597-1.1944085.9188947-2.4547694.8037485-3.7816232-.0930071-1.0714802-.4565495-2.1014039-1.6700045-2.3199669-1.3473586-.2426822-1.299711,1.0229086-1.5168282,1.7663746-1.2602603,4.3156158-4.0338537,7.2176377-8.0658468,9.0685523-2.1160942.971414-4.2069817,2.0146954-6.2341673,3.1586024-2.6057959,1.4704189-2.9886488,2.4602445-2.4695288,5.8961145ZM54.1377002,23.5864285c.7399585-1.5217312,4.2873666.2971469,3.5723257-3.0301142,2.0324658.8069229,3.9485532.1274353,5.3776796-1.527596,2.3964482-2.775253,3.3947347-6.1902787,3.7921836-9.7750443.1136502-1.0250175-.3852793-1.4944313-1.5193928-1.1465252-4.6153934,1.415863-7.6050103,4.4066554-8.927665,9.0540223-.1090238.3830572-.0779962.9958978-.3151154,1.1229591-2.1796328,1.1678975-1.6436663,3.3485486-1.9800157,5.3022983ZM79.8165028,77.2254647c2.1081991,3.7708867,3.9479498,4.0113374,6.2596003.9958475,2.9367645-3.8309554,3.7689381-7.9483307,1.4468403-12.459352-2.3549483-4.5748552-6.1377281-6.619302-11.1679196-6.5888339-1.7081603.0103467-2.9961794.8404711-3.9720753,2.1956305-.2242706.3114255-.6210029.943542-.1476573.9965264,2.2535683.2522369,3.715168,2.6506777,6.2234057,2.167042,2.8388795-.5473943,4.9057169.5954316,6.3577745,3.0539852.6987603,1.1831189,1.347258,2.3749502,1.8142674,3.6703113.7522538,2.0865439.728254,4.033904-.9604072,5.68886-1.6767431,1.6432829-3.5461132,1.4977251-5.8538288.2799831ZM55.2061883,55.2663747c.2224351,7.1033212-.339002,9.7213496-3.4351157,13.9044447-1.5119628,2.042781-2.2584084,4.318105-3.078337,6.6373742-.6697066,1.894338.291455,1.932783,1.6327162,1.744116,3.0336941-.4267289,7.7259773-4.5486616,7.9417242-7.5717072.3513979-4.9240971-.0788134-9.8133259-3.0609877-14.7142277ZM36.7290633,82.0527076c2.5811927,4.3088521,6.6548743,6.4509199,10.4913362,5.7840797,3.1691314-.5508516,5.2376786-3.0918392,6.0627365-7.4474086.5211818-2.7513663.4836043-2.7689418-2.2222893-2.1555575-.653011.1480219-1.3554046.115008-2.033899.1021972-.5520208-.0104221-1.104733-.1257067-1.5136098.3856942-2.7347839,3.420482-6.2816138,4.4533915-10.7842747,3.330995ZM55.959737,123.2756423c.1084957.6062309-.5567604,1.5864389.8913748,1.7410736,1.3535817.1445394,1.3270675-.7156444,1.5671913-1.5992497,2.0902589-7.6917566,2.8430911-15.611945,4.0604811-23.4526412.2939819-1.8933951.6181114-3.7822895.8928583-5.6784001.0922277-.6366173.5178-1.5823656-.3448983-1.7901796-.8020764-.1932305-.9131368.8740884-1.1623878,1.4315025-.668814,1.4957576-1.3025648,3.0209713-1.7791163,4.5865785-2.4478297,8.0416082-3.1080193,16.3881861-4.1255031,24.761316ZM43.4868891,175.3676871c-.0310401.2723959-.0266273.5546231-.0991045.8155158-.3567662,1.2841972.2561153,2.0440319,1.4282338,2.2178011,1.4960216.2217562.6908525-1.1367285.9863683-1.7361706.1977438-.4010822.1320052-.9401413.1535032-1.41883.3671757-8.1711493,1.728992-16.1805356,3.694286-24.1151189,1.397772-5.6433999,3.2212169-11.1866141,4.113434-16.9504656.1268507-.8194131.471925-1.8743864-.8697385-2.1264661-1.4327723-.2692404-1.0646285.98667-1.2329541,1.630403-1.9579394,7.4879028-3.5958101,15.0514005-4.6591563,22.7160897-.8853403,6.3815732-2.8619741,12.5501024-3.514872,18.9672416ZM60.5911973,52.2277336c-.6112848-6.9769859-2.3548226-13.2626667-7.7092315-18.1872163-1.774691,5.1590601-1.2588648,9.9101674,1.0396984,14.5244419.2107935.4231585.3977758.8923994.9492434.9938989,2.10312.3870708,3.9136661,1.4564641,5.7202898,2.6688756ZM85.9533131,82.1390893c-5.9358983-.9924028-11.9057786-.3336715-17.9429564-2.4537636,1.3449574,3.5329882,1.9371831,6.9014475,1.9115238,10.8758234,3.0489438-3.0614403,6.4948839-4.0111614,10.0813154-4.7683434,2.2828357-.4819825,4.2583884-1.7209334,5.9501172-3.6537164ZM28.398546,32.3556401c4.9210924.5773406,8.4955176,2.9763284,10.6843404,7.5695574,1.8248467-2.4619102,3.5521855-4.5942977,4.7668788-7.0622424,1.0913816-2.2174365.4725787-3.5998079-1.9182435-3.7400352-4.7716687-.2798825-9.377784.4585485-13.5329757,3.2327202ZM78.4979843,58.0582352c6.6465391,1.4930044,10.0769529,5.5091505,11.2715751,11.5840378.1921242.9769393.6571849.9711814,1.4615117.6153393,2.9595951-1.3093411,3.9801968-4.0373927,2.6138923-7.1608126-2.1031074-4.8077753-9.3957682-7.3936636-15.3469791-5.0385644ZM48.9678345,63.6964177c.0504386-.1250467.2302423-.4889348.3466835-.8720832,1.3147093-4.3260316-1.7638414-12.9829036-5.520635-15.5470425-2.9192832-1.9924996-7.3095637-1.5473277-9.7341353,1.0458083,8.9463658,1.4421195,11.7439842,8.5649838,14.9080868,15.3733173ZM79.0879974,91.4074787c9.3752382.166314,14.8022878-7.4036708,11.5003716-15.7237346-.2219951-.5593879-.3478904-1.4391022-1.0642639-1.2781753-.8080103.1815135-.7045685,1.0520692-.5394991,1.7342157.5136512,2.1228768-.2834718,3.8942865-1.4776289,5.5505373-1.2540875,1.7393387-2.885119,3.1031162-4.556519,4.4120047-1.7780477,1.3924038-2.7034547,3.3498655-3.8624607,5.3051522ZM54.6607301,79.7572497c-.7503052,1.7672358.1634979,2.7573128.8746038,3.6531255,1.9858239,2.5017004,2.2836906,5.2054065,1.8545353,8.312156-1.0493411,7.5964739-2.5398059,15.1367262-3.0193998,22.810618-.1968261,3.1494312-.5390214,6.291797.0750167,9.6124328.1406799-.3059756.2219574-.4196006.2460955-.544289,1.9358002-9.9976115,1.7998851-20.360098,5.333351-30.0812905.5515682-1.5174568.4032949-3.0676383-.3585639-4.5814869-1.5288721-3.0379811-3.9022005-5.5779756-5.0056386-9.1812659ZM23.4295923,75.6755723c-.0716726,2.6351262.9785548,3.9739234,3.5363511,4.3720763,2.1614537.3364499,4.3559025.4553678,6.5302551.716361,1.653969.1985359,4.5459838-1.3916998,4.483011-2.8997779-.0650597-1.5580641-1.9179607-1.2358456-3.011052-1.6301452-1.2814125-.4622195-2.6420722-.7025759-3.9644441-1.0539235-1.7159046-.4559147-3.4880498-.751487-5.0844331-1.5714406-2.0902903-1.07363-2.0800819-1.0971332-2.4038782,1.2170569-.0473962.3387694-.0691645.6811282-.0858097.8497931ZM46.8967981,49.3452107c5.6689083,7.4254831,4.6090194,14.9058239.3901446,22.4431217,4.6253755-3.4618436,7.1444126-7.8764067,7.1343173-13.5431653-.0052173-2.9214393-1.0670926-5.4893686-3.049585-7.647648-1.0845425-1.1807051-2.4023319-1.7109513-4.4748769-1.2523085ZM38.5019313,26.5889536c.629885-1.4472237-.5015633-1.570592-1.2905586-1.8791825-.9959795-.3895537-2.0064293-.3281682-3.0210341-.0108181-2.7720094.8670293-5.1752779,2.510463-7.7428992,3.7906624-1.2622215.6293381-.7267831,2.314341-.1666598,3.2937318.5346338.9348234,1.2846247-.1215768,1.7902613-.4571216,3.8323195-2.54315,8.1769135-3.0002276,12.5862656-3.1648381,2.3343932-.0871423,3.2532816-1.4597013,2.3719078-3.697781-.2899338-.7362278-.6215749-1.0000874-1.3300093-.4068873-1.0419676.8724886-2.1292759,1.6908331-3.1972737,2.5322345ZM52.4786961,114.6313862c1.2817834-2.1536089,1.185847-4.4959098,1.5420852-6.7592967.8185959-5.2010566,1.7259622-10.3882338,2.529082-15.5915785.5417872-3.5101198-.4375031-6.6535165-2.5794326-9.8725585-.3388637,1.3846846-1.350841,2.2092396-.5829477,3.4098084,2.3357761,3.6519312,1.7387101,7.3067287-.0690199,10.9255706-.4986906.9983116-.8556957,1.9834855-.8501137,3.1203272.0241507,4.9224753.0103467,9.8451391.0103467,14.7677275ZM85.2654276,44.7652387c-.0177893.9450066.0782351,1.5182991.6080916,1.8087358.620236.3399763,1.1985447.0330956,1.7082609-.3486635,2.9371919-2.1998296,4.4482119-5.3123936,5.5368025-8.6906968.2474784-.7679939.7361618-1.6760893-.0880286-2.2566798-.7253122-.5109357-1.5732761-.0906122-2.3096516.3470418-3.6107455,2.1459777-4.4072274,5.9016398-5.4554747,9.1402626ZM81.1778163,92.460893c9.4129163,2.1838946,15.7863931-2.0876817,13.5247537-9.2175359-3.8006696,4.2282157-7.4163559,8.5470499-13.5247537,9.2175359ZM80.5688321,86.7555513c-3.1323963.4598811-6.1177261,1.0942228-8.5181848,3.2472282-1.6232873,1.4559423-3.2435572,2.8906004-5.5749709,3.4016115,5.3514169,2.9045678,11.1888896.1201751,14.0931556-6.6488398ZM53.6110496,18.568658c-4.7539109-4.7604294-6.6671319-5.1417517-12.6071161-2.5979071,2.2804345,4.2604439,7.1068351,5.1997114,12.6071161,2.5979071ZM107.7437696,23.2820244c-.0659146-1.0635065-.7574083-.9690442-1.4699097-.842646-3.6115376.640678-7.5075904,4.8634784-7.9107218,8.5393402-.0772671.7045937.0173744,1.1192473.8308661.780371,2.2678122-.9446798,4.5641879-1.8524169,6.2445266-3.7671906,1.196684-1.3636644,1.8932191-2.9771518,2.3052389-4.7098746ZM36.9054852,80.920857c6.369567,1.7583978,10.9434478-1.6537113,11.594988-8.632539-1.3982623.9381172-2.7211559,1.7809329-3.9941893,2.6933217-1.1024826.7901519-1.9156223,2.1634087-3.3375953,2.2864941-2.3989877.2076757-2.9146819,2.262532-4.2632034,3.6527232ZM92.2318971,24.4401755c-.7873547,2.1029157-1.8202642,3.8551595-2.2094282,5.8842937-.2270867,1.1840933-.1679609,2.3682054.3846255,3.4014606.5869456,1.0975167,1.6149898-.1049002,2.4036645.2393821.1203133.0525318.2754886.0198008.4034834.0609424,1.8014189.5789687,2.2415243-.5036314,2.200917-1.9243158-.0807998-2.8267916-1.0895335-5.3054099-3.1832623-7.6617631ZM97.6998934,34.00932c2.2241499.4631687,3.8390014,1.4238148,5.2247547,2.7802943.3689609.3611789.77868.5377956,1.2949462.3092694,1.6255376-.7195794,3.2378873-1.4563258,4.6119612-2.6233024.5022485-.4265655.6772372-.6931846.015388-1.2171889-2.5888867-2.0496579-8.2776335-1.8131611-11.1470502.7509275ZM104.3416678,68.9814296c-.5636372.0814472-.5497578.5394614-.5819545.9348925-.0545999.6706683-.1684513,1.3284944-1.0557527,1.0863654-.9420774-.2570771-.5650578-.9329439-.3052841-1.479873.2519037-.5303279.3606006-.9243761-.1473304-1.4379519-.710427-.7182971-.1118524-1.0385229.5605697-1.246142.5870964-.1812809,1.1950245-.3222814,1.7484408-.5788115.7442832-.3449988,2.0200196-.4105991,1.6170516-1.6654158-.4287153-1.334969-1.5373707-1.0349085-2.5756736-.6769857-1.9819518.6832277-3.5142308,2.0807923-5.394702,3.2641249,2.1417158,1.3704532,3.0591648,3.0408601,1.535246,5.3485065-.3644979.5519705.0871737.8804121.4857416,1.1606592.4906195.3449925.893952.725023,1.6493866.3966254,2.0561764-.8938515,2.9945577-2.7206656,2.4642612-5.105994ZM51.7311567,29.8433982c.0329133.2316755.0090769.7407631.1891572,1.1628341.2326058.5451502.5257706,1.2853098.9789634,1.4607385.594011.2299468.7303913-.6394019,1.0302443-1.0458398.9424922-1.277509,2.2073413-1.9857485,3.73869-2.2843443.5702375-.1111861,1.3845966-.0698936,1.1059147-1.0126436-.4320594-1.4615871.1717954-3.0951268-.778856-4.450632-.0466544-.0665275-.2586674-.0197945-.3937276-.0212026-2.5157055-.0262062-5.8289867,3.3328305-5.870386,6.1910896ZM55.4618007,51.0157306c3.1413098,3.4045219,6.6362804,6.2965995,11.2856054,7.4003079.6541928.1552947,1.3671845.2125976,2.0314349.1338156.6706495-.0795426,1.6812061.1033915,1.6711737-1.0363165-.0084986-.9674349-.4667579-1.740313-1.4815011-1.9738617-.5280587-.1215328-1.0968881-.1689793-1.6360855-.1218157-2.9157317.2550215-5.3587086-.778284-7.5735302-2.5925954-1.2142722-.9946972-2.553811-1.8092072-4.2970973-1.8095341ZM108.4159654,48.796094c-1.3903169,3.5188384-1.4540314,3.576399-4.8699749,5.6991501-.434511.2700199-1.5365158.4736725-.7934143,1.2103937.8354171.8282574.8455124,2.8454357,2.5922685,2.3959516,4.3579329-1.1214159,5.7976448-5.4874577,3.0711207-9.3054954ZM82.1431769,48.9218447c-3.101683,2.6399727-5.5799996,5.0993371-9.3938447,5.2370689-1.0773387.0389038-1.1279659,1.4066918-.9681767,2.1693803.1845685.8810407.874981.1217591,1.2978378-.0282743,1.2245309-.4344669,2.4433415-.2986461,3.6402141.0055316.9613376.2443291,1.8898498.2635893,2.8368428.0200962.4452725-.1144925.9738089-.0956095.9146077-.8245424-.1747749-2.1521254.4283381-4.1547705,1.6725189-6.5792604ZM59.452759,27.7279828c-.1597641.7510469.3151908,1.3966468,1.4847195,1.6406491,1.8109484.3778367,3.6036927.84225,5.4074248,1.2557092.3161211.0724646.6884262.3147885.9623936-.0052676.3205841-.3745177.1487008-.8001026-.1229786-1.1160351-1.1615958-1.3507907-2.3067727-2.7202193-3.5438-3.9998404-.6816499-.7051154-1.3856778-1.6447161-2.6201531-1.0834676-1.2421064.5647121-1.5156213,1.6753665-1.5676062,3.3082524ZM105.5084683,84.410736c-.1616624-.8291563-.2609932-2.091931-1.2776724-1.480445-.8798338.5291776-2.4650406.3877057-2.5836945,2.1389877-.0685044,1.0109715-1.314131,1.0501959-1.6743041.3801751-.4156153-.7731861-.0234215-1.8650706-.1847319-2.8447128-.103731-.6299793.7862483-.5246265,1.3182169-.5384934.4017485-.0104724.9002129.0319578.8704174-.5589605-.0196122-.3887114-.4122712-.4995958-.7545168-.5736948-.4005039-.0867086-.8017747-.2340264-1.2037998-.2377477-1.3268412-.0122325-3.1953565,1.3729425-2.8632564,2.1376677.6239448,1.4366696,1.2765661,2.8852825,2.4267214,4.0072767,1.0903758,1.0636856,2.3401763,1.0184141,3.5898384.349399,1.1495016-.6153958,2.2766377-1.2963166,2.3367818-2.779452ZM98.2675034,87.266047c.5733302,1.2954868,1.1022437,2.313046,1.4758437,3.3847526.3721165,1.0674823-.195418,1.8452698-1.0660869,2.4212526-.3053973.2020309-.9140923.1923631-.8533824-.0639785.1824438-.7704328-.2381374-1.6058123.5066235-2.3562432.7860849-.7920817.009781-1.646231-.5736948-2.1326137-.7462696-.622059-1.2012477.0768145-1.5380873.7267454-.7385002,1.425028-.3762275,5.0410788.6257928,6.1276328.0868092.0941386.1935197.1904396.3102374.2332973,1.2144733.4457754,4.1348943-1.462794,4.4273425-2.7338285.6321165-2.747205-1.028874-4.1703597-3.3145886-5.6070167ZM78.0883154,38.3320578c.0987273-2.4121254.1619641-4.1814544-.2951889-5.9246402-.1808723-.6896456-.3834815-1.3847475-1.2890626-1.2767232-2.5286043.301632-5.0727727.0287897-7.6781537.2491693,3.3022681,1.8152417,6.5977977,3.5389221,9.2624052,6.9521941ZM103.2774792,59.7269951c-.0057328-.6942721-.4901543-.6250637-.8770428-.6465679-2.8395584-.1578091-5.2404696.9962184-7.306075,2.7619959-1.1216296.9588295.1901755,2.0028337.4711455,2.9474821.2778647.9341759,1.0744975.2305943,1.5288595.0102964,1.9821403-.9610484,3.7776756-2.214765,5.3399387-3.778015.3802254-.3804579.7945207-.7660515.843174-1.2951914ZM101.9825833,41.6300829c-1.0597632-1.4459162-.3044166-3.2613025-1.0794382-4.7112795-.7997254-1.4961725-2.262444-1.632515-3.6981456-1.7059162-1.0531001-.0538267-2.0950614.0953706-2.647145,1.324748.7595078.3100866,1.142147-.0957038,1.5657204-.231468.9270539-.2971186,1.8794654-.7162101,2.7025495.069617.8632514.8241967,1.0532006,1.8819421.6393076,3.0335935-.2083546.5797167-.3543649,1.1815412-.5442262,1.7682981-.1796403.5551134-.202584,1.0545584.2565553,1.5170859,1.794102,1.8073277,3.7577365,3.3238541,6.3647393,3.9731942-.3964306-3.0311294-3.6245495-3.3033116-5.2423051-5.6250071.8447832.294818,1.2635918.4409792,1.6823879.5871341ZM47.4183948,34.5469773c.9312404-2.7487199,1.7161435-5.0812524,1.4468151-7.5921366-.1065219-.993132-.5628829-1.8419822-1.6588658-2.1162451-.8095944-.2025966-1.613632-.0812461-1.9194316.734276-.4061361,1.0831093-2.0518014,2.267762-1.2375805,3.0997847,1.5541794,1.5881424,2.3564066,3.4652192,3.3690628,5.874321ZM62.9161993,111.5716683c1.0056913-2.0834575,2.0170274-4.1642372,3.0156785-6.251064,1.2720402-2.6581077,2.2892725-5.4142639,3.0688703-8.2537091.1249775-.4551918.4812282-1.0924628-.350279-1.3643684-.5414855-.1770882-.9197245-.0438635-1.1530092.5018336-2.1192246,4.9572367-3.9938373,9.9917027-4.5812606,15.3673079ZM79.0252635,38.859645c1.6492483-2.6402493,2.5049565-4.9598705,2.7890066-7.4789578.1329858-1.1793976-.1213945-2.3061692-.7666864-3.3190517-.2132827-.3347527-.4238877-.7420329-.925231-.6449273-.5602177.108502-2.4873935,3.1868893-2.2120809,3.6769179,1.2705441,2.261476,1.0498565,4.7372342,1.1149917,7.7660189ZM20.9735217,77.0026775c2.3192503,1.7940392,3.4035476,4.3142706,4.6123007,6.7550474.240325.4852638.3983541,1.0427408,1.1753495.6067086,3.0301991-1.7004789,6.2186473-1.6652775,9.6255578-.4538466-.5701746-1.3051798-1.2901626-1.7313807-2.3658356-1.8327733-1.9740315-.1860771-3.9576176-.4048538-5.8949704-.8113796-2.3151581-.485817-4.5291562-1.2615803-5.3959843-3.8470726-.2859611-.8529424-.822248-.9398584-1.7564177-.416684ZM31.8807938,56.883508c1.538609.5689049,2.8934479.6836551,4.3581592.2637968,1.860903-.5334269,3.4379507.068385,4.8049592,1.490094,1.1502811,1.1963069,2.0724194,2.5551311,3.0096314,4.0786852.5335652-.9072657.0834776-1.4081879-.2158348-1.9142708-1.0133791-1.7134594-2.2166885-3.280085-3.6864474-4.6318186-3.0177089-2.775385-5.3371917-2.6045387-8.2704675.7135134ZM73.5746289,26.0775213c-.0903796-1.9219648-1.1164123-3.1994926-2.2253191-4.3557328-2.1690346-2.2616426-5.8114111-1.3618195-6.7809456,1.6393636-.1503477.4653687-.4790156,1.0868431.0646574,1.4950882.4635772.3481104.8835048-.090587,1.3104726-.2946797,3.0795816-1.4721601,4.1869547-1.2931736,6.759875,1.03037.1929037.1742092.4634012.2625018.8712597.4855907ZM74.2986085,23.8834843c.1919608,1.0481939-.1032281,1.9398452-1.259242,4.6089094-.4404575,1.0169118-1.0846179,1.5231016-2.1954734,1.430855-1.0041827-.0834022-1.541708-.3906664-1.0147808-1.541356.1242232-.2712519-.4295325-.4684992-.7555728-.5284861-.2427765-.0446681-.5608588-.0409593-.3899686.3981907.7148146,1.8368906-.9202525-.0209197-.9774925.6703163.3880954.6773629.8082115,1.3111326,1.7835668,1.3395074,1.3633878.0396707,2.7231297.2016914,4.0865301.2437068,2.6702774.0822833,3.0377674-.3793579,2.4785303-2.9528943-.1293903-.5954442-.6144404-1.2210736-.0103341-1.8251107,1.1511234.3555718.9302472,1.5283818,1.5407274,2.1431679.1314646-2.8246732-.4501379-3.5657852-3.2864904-3.9868064ZM8.0095954,77.4020122c-.8991568-.5810116-1.677906-1.115658-2.4866204-1.6003183-1.7568514-1.0528612-2.9807662.1834244-4.1359126,1.1447054-.749664.6238505-.7024753,1.6615625-.0240564,2.3979003,1.1001756,1.1940817,2.4771914,1.0673441,3.7279787.3245946,1.0190804-.6051623,1.8925088-1.4555777,2.9186106-2.2668819ZM11.35843,77.3101492c-1.710285-.0606218-3.5168772,1.393573-3.5000434,2.8605409.0162618,1.4169568.7561323,2.3135741,2.2428004,2.3521573,1.4848452.038533,3.4081363-1.5933661,3.4824553-2.9011105.0917248-1.6140217-1.03736-2.0376203-2.2252123-2.3115877ZM93.3132337,73.4394602c.2680712-.0407519,1.0749124-.1554205,1.8788745-.2875891,1.0886283-.1789677,1.9931282-.6783875,2.2142433-1.8227032.2332344-1.2070622-.2998279-2.2755126-1.0057668-3.2187654-.4305634-.5752851-.786022-.3194212-1.0286477.2400672-.7453519,1.718859-2.1972586,2.5439232-3.9013582,3.011316-.7071081.1939408-1.0744346.6172188-.9863306,1.3194866.089487.7133123.7097733.7222195,1.2568407.7544728.3398443.0200271.6818008.003715,1.5721447.003715ZM81.2071089,80.3213772c-2.8774376-2.1652379-2.5636297-6.4453945-6.1076057-7.962185-.4852387,5.1643654,1.8414982,8.3602248,6.1076057,7.962185ZM60.3027596,65.9666626c.2367923-2.1880685.2006102-4.1629989.7088933-5.9861483.6888033-2.4707106-.2434177-3.7224722-2.4481314-4.432629-.8278111,1.6679867.2074242,8.4939084,1.7392381,10.4187773ZM17.4881623,52.1379512c-.3025623-1.1162929-.1735366-2.7767239-1.7021635-2.8994762-1.3758403-.1104884-1.6139212,1.4167493-1.9699519,2.5014112-.4282438,1.3046769-.4704792,2.5801115.5540511,3.6581228.4609937.4850627,1.0670046.7022804,1.6676787.2786819,1.2033975-.848668,1.2607192-2.2009296,1.4503855-3.5387398ZM55.3580069,130.8950977c2.3168428-.0329007,2.8768844-.6644138,2.9249846-2.8712648.0295566-1.356423-.7547179-1.5770603-1.839889-1.5661227-2.6286014.0265393-3.6952163.8585243-3.5641665,3.0587499.105139,1.7655763,1.7035213,1.051868,2.4790709,1.3786375ZM34.9028211,49.4894044c-5.1872275-1.0803246-10.004218,1.7015726-10.7570439,5.8806824,3.3087553-2.1789539,6.6133618-4.333229,10.7570439-5.8806824ZM15.9465989,61.5458575c-.1759441,1.0384098-.1822238,1.7968679.0818558,2.5072572.3721479,1.0011089,1.2477449,1.6067049,2.2063041,1.4761768.6802858-.0926237,1.5680085-.7056371,1.8473819-1.3206558.8848877-1.9480516-1.6024556-4.9535279-3.6771002-4.5855162-.3010034.0533993-.4470074.2955912-.4545003.5887622-.013804.5403351-.0039413,1.0812738-.0039413,1.3339758ZM16.5806703,83.4542009c-1.4568412.0038344-2.3569535.6977797-2.6003774,1.9560033-.2237426,1.1564036,1.3898077,2.6256722,2.6514383,2.523563,1.4681748-.1188299,2.5156678-.960269,2.5631834-2.4069332.0566931-1.7259748-1.4079616-1.9062059-2.6142443-2.0726331ZM13.3705984,67.2669959c-1.1362068-.0105856-2.1257746.9269345-2.1302628,2.0182218-.0051859,1.2613163,1.5003087,2.6001511,2.9590042,2.575133,1.2235125-.0209825,2.1444691-.5234008,2.2512299-1.8667929.0996514-1.2539429-1.5972382-2.7127453-3.0799713-2.7265619ZM34.9988958,23.3578552c-4.6519525-1.574637-9.075624.5306768-8.9674992,4.3345114,1.4946764-.795143,2.9014122-1.5983948,4.3563048-2.3020959,1.4620837-.7071835,2.9721042-1.3152499,4.6111944-2.0324155ZM12.7529145,66.0979072c.8546773.1278125,1.3209953-.2813472,1.3882299-1.0956938.1112238-1.3472957-2.3330668-3.5699308-3.8085019-3.4669981-1.0553504.0736149-1.6285612.7506258-1.6400833,1.7381192-.015388,1.3199958,2.2400094,2.8329832,4.0603554,2.8245726ZM8.9140702,76.5591714c1.0844544.0092152,1.8994988-.4136541,2.0252558-1.5644255.1304903-1.1940942-1.7830199-2.7517623-3.3294235-2.7916782-1.1122007-.0287143-1.8609281.4297022-1.931048,1.6154047-.0851245,1.4395422,1.4895534,2.7496628,3.2352158,2.740699ZM19.0239301,78.8826458c-1.4293841-.3613926-2.4637897.4372139-2.2187063,1.5614711.2426633,1.1131562,1.3802405,2.2856015,2.7327347,2.2347607,1.2193638-.0458498,3.0490444-.362587,2.8789902-1.9451663-.1770756-1.6478528-2.0164806-1.7294446-3.3930186-1.8510654ZM50.4582616,28.6461232c.8832533-1.0577768,1.0381772-2.3128952,1.9350836-3.079217.955567-.8164398,1.1649902-2.1822634.6656081-2.9745463-.6234042-.9890178-1.8975187-.2739769-2.7928159.1406422-.6643006.3076445-2.0564153.6575055-1.6040019,1.4143827.809167,1.3536886.993308,2.9154928,1.7961261,4.4987385ZM23.5690715,81.7995215c-2.5151335,1.9855976-3.1414669,3.9275581-2.0704896,6.4195907,4.4796606-3.619395,4.4074034-2.6153883,2.0704896-6.4195907ZM52.0494653,99.2920509c-.9341696.6585553-1.9252021,1.1615832-1.7324996,2.4177451.5264369,3.4314447,1.0468392,6.8637946,1.5696428,10.2957924.3189372-4.2383487-.0140931-8.4424138.1628567-12.7135375ZM61.6879471,65.5716275c2.2934338-2.5567403,6.0476628-2.2389094,7.0529644-5.5678112-2.9077108-.9614004-5.5571942.953235-7.0529644,5.5678112ZM50.5816048,112.1313831c.1671438-.0066003.334275-.0132005.5014062-.0198008-.4217756-3.4834045-.8435637-6.9668089-1.2728574-10.5123565-1.8127336.6165022-2.2871102,1.570108-1.682149,3.1983486.8972962,2.4150924,1.6432389,4.886419,2.4536002,7.3338086ZM32.4213238,58.0073063c-2.3252911-.7381544-4.0568541.1262473-5.2762242,1.9968495-.8952092,1.3733196-.6838626,2.7794394.5843432,4.27878.1310435-3.362318,3.1539697-4.1080407,4.691881-6.2756295ZM85.1286199,69.5212996c-.1568725,1.1767575-.2224854,1.9105809-.3576713,2.6313547-.2597109,1.3845526-.7782903,2.6092784-2.0801259,3.3793341-.4625086.273584-1.4730904.292379-1.1238297,1.109328.2933282.6861192,1.1423733.5751091,1.8466024.3890949,2.8360382-.7491109,3.6807209-3.7856713,1.7150246-7.5091116ZM63.2644417,104.2581382c.1140651.0319076.2281428.0638277.3422079.0957352,1.0931668-2.6958864,2.1578707-5.4038418,3.2931535-8.081876.4705421-1.1100006-.3548175-1.2442436-.9956589-1.5852572-.8243538-.4386597-1.1176695.0138291-1.2327152.7265065-.475772,2.9471992-.9390978,5.8964099-1.4069872,8.8448914ZM25.3747083,31.8250419c.0358991-2.327202-.4218384-3.4565948-1.1837161-3.511597-1.3103406-.0946038-2.6799137,1.7149617-2.6790463,3.5841999.00022.4779092-.168445,1.4058621.706492.9811069,1.0603415-.5147576,2.8383703.28884,3.1562704-1.0537098ZM52.3473949,47.2635635c-1.6127017.993484-1.5155458,1.7524072-.3105015,3.0888974,1.3430338,1.4895345,3.0368119,2.7170575,3.9550026,4.5942034.1746744.3571245.4874639.9765056,1.0739192.4930898.4512568-.3719593.6567449-.8718066.099972-1.3856087-.8000523-.7383053-1.6053848-1.472619-2.3714175-2.2453651-.424026-.4277598-1.108052-.5213453-1.0561425-1.5143264.0580697-1.1109372-.7489349-2.0959351-1.3908323-3.0308905ZM20.4846246,76.0036556c.4505967-.2273319,1.2978189.4564238,1.2958703-.7223327-.0026024-1.574351-1.3655565-3.0933039-2.8990173-3.0992252-1.0472038-.0040482-1.7268611.4050675-1.660387,1.5525639.1237455,2.1361905,1.8320252,1.998729,3.263534,2.268994ZM76.6961756,57.8921977c-.8448335-.8861574-1.6150652-.8813487-2.3418609-.8230778-2.4979791.2002897-3.6916459,2.0551267-4.8444665,3.935535-.1994285.3253175-.6698323.6867227-.3103632,1.0503468.3801248.3845501.9646943.2442034,1.2490964-.186008,1.4502975-2.1938516,3.5280097-3.4739692,6.2475941-3.976796ZM107.6317286,75.3261796c-.1579034-.9380669-.4355544-1.9954917-1.5397594-1.8038578-1.1811074.2049727-2.1278867,1.2203381-2.1818706,2.4012695-.0416131.9099435.6527848,1.8212071,1.8883412,1.7137423,1.4258954-.1240346,1.6652272-1.1987144,1.8332887-2.311154ZM17.3013372,75.8678914c-1.6989388-.967611-3.0577567-1.7219015-4.3936246-2.5148506-.377755-.2242266-.7638012-.407387-1.1363451-.1763464-.619532.3841667-.1614864.8662938.0439703,1.2277618.4505464.7926914.2524317,1.5114914-.317592,2.2999964,2.0023686.0538896,3.7138982-.2898772,5.8035914-.8365612ZM92.6284659,84.3274344c.9192593-1.038328,2.2086865-1.2294968,2.3879622-2.4686991.1809477-1.2507182-1.5214169-4.5352725-2.6271682-5.3212379.1675335,1.2085834.4339201,2.4138038.4752817,3.626693.0428828,1.2573436-.1322692,2.5221298-.2360757,4.163244ZM22.7244203,74.2800507c.4776892-2.3009141.4843272-2.3079167-.7963436-3.5219563-.8544322-.8099841-1.5576869-1.7069031-1.8394113-2.8791474-.1331744-.5541454.0874566-1.3414875-.7899885-1.4358587-.3855119-.0414559-.9982739-.0084232-1.1526194.2253392-.4444868.6732141.1567845,1.2867682.4217504,1.8664912.9681767,2.1183006,3.5107987,2.9980966,4.1566123,5.7451319ZM14.5675024,60.8348082c.8626354-1.8384432,2.2320954-2.6731563,4.3268739-2.2459685-1.4323574-2.3638303-1.8663466-2.5068423-4.2061709-1.2362165-1.8703948,1.015686-.2737097,2.2475086-.1207031,3.482185ZM80.1681397,72.2864887c-1.4457591-1.6310441-.0737092-2.1596811.784614-2.8781667.6703729-.5611668,1.3187323-1.1075365.3999004-1.9819455-.8228829-.7831179-1.4449167-.3514859-2.08826.2959369-1.6966444,1.7073997-1.5535759,2.8416327.9037456,4.5641753ZM19.2822895,40.3732547c.2771544-2.2517705.5278638-4.288649.8126431-6.6023236-2.7887363,1.6578098-2.9590545,3.5063608-.8126431,6.6023236ZM22.6122033,57.0913471c.3662077-1.3316248.7547117-2.4113585.9357411-3.5248227.1123805-.6912234-.2747909-1.4140275-1.0108584-1.5708309-.7230618-.1540375-.9986573.5253494-1.2226765,1.0910233-.5961419,1.5052306-.2762932,2.7709785,1.2977938,4.0046303ZM102.5669642,38.776488c1.1171289.9636885.2447754,1.5753128.313569,2.2618406.0773676.7723438.2985958,1.494249,1.0806703,1.8292343.6389808.2737034,1.2379954.0762425,1.6177305-.4808196.493599-.7241179.2541541-1.4378262-.2546947-2.0583765-.5614246-.6846672-1.1653674-1.332002-2.7572751-1.5518787ZM33.8858465,62.3218911c-1.0834801.4730251-3.2880682-1.199739-2.4881038,1.7737041-.9153935.0015652-.6769857-1.1124207-1.3897386-1.3081216-.1594812.7417563-.1062642,1.4050637.2469504,2.0324029.4962831.8814367,1.3100703,1.238536,2.2474583,1.1162363,1.2204827-.159236.521075-1.2235125.4173188-1.6132926-.2678889-1.0063891.8604793-.9668566.9661149-2.0009291ZM49.9571195,37.1695568c.7281032-3.3987074.719328-4.5419105-.0454098-5.9181405-1.5494146,3.5042299-1.5394702,4.7996098.0454098,5.9181405ZM79.2411486,73.2616994c1.5295007,1.1679635,2.233868,1.286391,3.2074758.6372018,1.1766695-.7845826,1.639769-2.4521984,1.2233868-4.4054233-.6556134,2.7821047-1.3619295,3.405754-4.4308626,3.7682215ZM104.5694459,81.0543457c-.047459-.1510517-.0554673-.4631121-.1759818-.515273-1.0699842-.4631749-1.7703788-1.2889243-2.5333691-2.1377305-.4279484-.4760863-1.1225222.2919956-1.3826857.8021267-.3508825.6880239.3583376.8787651.7548562.8294455,1.1091709-.1379392,1.3727665.5211692,1.5497918,1.3663925.1024109.4889474.2481321.9597535.925319.7419323.5047755-.162379.7678053-.528901.8620696-1.0868934ZM61.7457906,62.0061912c1.0829207-1.1410155,1.8924774-1.9940082,2.7232806-2.8693853-.5943127-.5578101-1.3943147-.8750501-2.2802962-1.1431025-.5039206,1.1788445-.4142324,2.3927772-.4429844,4.0124877ZM3.1522679,74.0301773c.6728998-.0589749,1.2843292-.2106112,1.1579311-1.0642388-.0956032-.645625-.15928-1.5640798-1.0124362-1.4541068-.7611736.0981239-1.1418893.9530464-1.2225319,1.7033013-.0757333.7045434.4836798.8735352,1.077037.8150443ZM14.0497968,77.219229c.8743901,1.7138051,1.4313705,1.645703,4.5897718-.5732233-1.6457659.0604773-3.0492707.0819564-4.5897718.5732233ZM95.928446,82.7215215c-.3029583,1.4333254.1789865,2.355514.490104,3.2982954.1187796.3599469.2988347.8155661.8566637.5775418.5138524-.2192418.713306-.5445153.4139181-1.1147905-.4572284-.8708825-.7914531-1.8146697-1.7606858-2.7610467ZM17.3552267,67.8125861c-.5617891-1.3480249-1.3275955-2.4982054-2.3536031-3.5931134-1.1004774,2.7240789,1.2736305,2.6967601,2.3536031,3.5931134ZM84.7533353,80.9292802c2.4842003-.1702742,2.4893548-1.758008,3.0568264-3.6251655-1.1680075,1.3851749-1.9741446,2.3411946-3.0568264,3.6251655ZM14.9306614,80.6945874c-.6186017.726758-1.4723487,1.354512-.8263276,2.2577673.3272976.4576433,1.4040328.1720468,1.6225707-.177327.5159142-.8247939-.4955728-1.3027911-.796243-2.0804402ZM107.0715738,42.4956538c-.760325,1.4937021-.4377419,2.5652263.1729017,3.805315.9320198-1.3104286.7833316-2.4113774-.1729017-3.805315ZM9.3009587,51.3226114c-1.0193256-1.1803028-1.9979684-2.399082-3.0685309-3.5309138-1.2624352-1.3346672-2.4953893-.939123-3.7739857.1115193-.4135724.3398443-.1918853,2.1507927-1.4904586.8304889-.8676076-.8821219-1.4251788-1.8905601-.4623703-3.0710138.497446-.6098956,1.1579059-.9477662,1.9526466-.9822887.7926852-.0344408,1.7343791.4713027,1.397992-1.2570796-.1416856-.7280466,1.3458625-1.79942,2.6086058-1.8260347,1.3651982-.0287646,2.18177.8485422,2.4070338,2.0913275.1535284.8470399.0091146,1.766997-.1079803,2.6401487-.2277593,1.6983605-.3984295,3.3699303.6380819,4.8953073.0000126-.0000126-.1010343.0985388-.1010343.0985388ZM7.6312873,42.6923164c-1.4476009-.4692975-1.7641117-.4056395-2.1818831.3439491-.726626,1.3037466-.0002389,3.1251988,1.857408,4.6575345,1.5540977-4.4558179,1.0009706-3.688792-1.0779359-4.1601136.2186258-.6534196,1.021972-.2599875,1.4024111-.8413699ZM2.3998883,45.4239448c-.9437054.0347614-1.6329739.3677037-1.6765168,1.4140024-.0201151.4832649.2901349.8591781.7610668.7069635.8930971-.2886577,2.0550072-.5784721,2.3143158-1.4483677.2141691-.7184919-.860077-.5474257-1.3988658-.6725981ZM85.7823978,20.5372364c1.055011.4120921,1.2829149-.4514768,1.5931649-1.0790139.3615938-.7313467.0313041-1.4337812-.5601674-1.7971696-.667431-.4100554-.8693111-.925715-1.0334124-1.6284826-.47454-2.0323998-3.1419384-2.9066987-5.0409531-1.7040965q1.3825851.7179168.6223104,2.4780997c3.1471306-.6848055,3.7348933-.4070476,3.6561428,1.7166087.5193212-.1561779,1.073982-1.0113738,1.5658964-.1742689.5339926.9087052.1169315,1.7014972-.7807418,2.2202118,0,0-.0278845-.0383758-.0222397-.0318887ZM46.0796857,103.9449086c-1.9468384,1.1992739-3.7984695,2.4894679-4.5825555,4.7990567,1.5275206-1.5996897,3.0550412-3.1993669,4.5825555-4.7990567ZM32.2389617,91.1644382c2.8376474-.2775882,5.6996781-.564379,8.0671229-2.437923-4.5549098,1.5319899-9.2937218,1.9817129-14.0389329,2.4189268-1.6087478.148223-3.237309.3285925-4.5671297,1.418918,3.4639054-.8388493,7.0081203-1.0545081,10.5389398-1.3999218Z"/>
  </g>
</svg>