<?xml version="1.0" encoding="UTF-8"?>
<svg id="Layer_2" xmlns="http://www.w3.org/2000/svg" viewBox="0 0 146.6997502 155.4397829">
  <g id="Layer_1-2" data-name="Layer_1">
    <path d="M141.4385161,70.529121c-2.0990035,3.017544-4.9971309,5.061941-8.3308663,6.7472892.5873231.3146996,1.0617214.0784329,1.5298855.0278316.4541506-.0491005.9181409-.1628868,1.5946601.3083233-2.9622982.4493374-5.5699432,1.1707388-8.1289407,2.0907268,2.6283367-.3000911,5.2750384-.4217189,7.8684746-1.0243521-1.4336737,1.1089303-3.1651829,1.1816352-4.8398033,1.4068279-3.6034018.4845576-7.1070041,1.2851823-10.3054357,3.2319201,3.1218281-.4423217,6.243674-.8846435,9.3655021-1.3269652l-.02483-.0203275c-.6335374.7479987-1.5749631.585174-2.3783319.7271116-2.0484377.3618907-4.1152937.6363792-6.1838902.8622823-1.7376367.1897682-3.2446104.8273907-4.6493513,1.8565737-3.7762881,2.7667132-7.0858774,6.0206748-10.2044285,9.4931065-.6438033.7168369-.5885131,1.0777507.2568251,1.4670379.5244667.2415328,1.0913824.5062261,1.4768775.9140203,1.5610384,1.651309,3.370865,1.7367309,5.5208161,1.4368441,4.0253694-.561463,8.0967488-.7932894,12.1492393-1.1595227.4818756-.0435413.8903625-.1090441,1.2786906-.5248219,1.2194042-1.3056342,4.0210534-1.625964,5.6715721-.7763009.5006669.2577576.553062.5207102.1525321.85405-1.3223118,1.1005471-2.7219198,2.0461643-4.5558571,1.9499526-.2311781-.0121397-.5691358-.0405574-.6686866-.1885338-.8707366-1.2943914-2.1330159-.8655059-3.2929027-.7611863-4.1016265.3688708-8.1992568.782091-12.3000397,1.1607127-.8239628.0760707-1.0619967.2728811-.4484049,1.0141927,2.5523726,3.0836862,3.6028157,6.7242886,3.6511258,10.6476561.0157541,1.2794011.4898592,1.8403579,1.5971466,2.3397371,5.1616428,2.3278194,8.3261685,6.5913114,11.1227026,11.7790452-2.4860528,0-4.6922798-.0610981-6.8938979.0136405-3.7443803.1271249-7.3662625,1.1265315-11.0536387,1.6673295-2.7404091.4019153-5.4813865.7826594-8.2081551-.0691794-.8675751-.2710162-1.0902279.029137-.9895759.8902382,1.0736124,9.1852272-1.4472698,17.6576137-5.2049887,25.8711149-.4016489.877912-.677505,2.2255334-1.9581759,1.9733794-1.1214962-.2207879-.8919166-1.5097089-.9031505-2.3618496-.0455394-3.4560915-1.868225-5.8167156-4.5489302-7.6699058-1.0346624-.7152739-2.1058859-1.3897861-3.2117613-1.9879968-7.0063077-3.7899641-11.8893859-9.6688789-16.0325023-16.2692663-.5362689-.8543431-.9404754-1.8068072-1.3001815-2.7539519-1.14463-3.0139296-1.6926302-6.0699973-.2922851-9.254522-1.7104534-.2855092-3.2628066.0783174-4.7791848.4904098-8.5700991,2.3289916-15.2377609,7.0318748-18.9579551,15.3588426-.8372569,1.874024-1.3394779,3.8362317-1.5350584,5.8782221-.0323474.337709-.0380353.6807996-.1037779,1.0119371-.2136568,1.0761611-.5251416,2.2128697-1.7500783,2.4265887-1.2661735.22093-1.7329878-.9291527-2.141226-1.8243463-1.9376663-4.248928-2.351526-8.732977-2.0805409-13.3530403.3089894-5.2679695,2.9072877-9.0993258,7.0692308-12.090086,1.8411083-1.3230223,3.591826-2.7718462,5.6192169-4.3465695-5.4804452-1.3046928-10.3778432-3.8177158-15.8302481-4.2806226-3.5750418-.303519-7.023758.5961237-10.4567334,1.4738138-2.2965421.5871455-4.5440548,1.4075383-6.9137681,1.6538755-1.5658649.1627802-2.13818-.5919943-1.2477508-1.8547266,4.7259104-6.7018386,9.4329009-13.4568893,17.315127-16.9476593,1.5793056-.6994133,3.2575849-1.0832567,5.3058094-1.5682849-2.4641445-1.2319346-4.458069-2.582744-6.7881485-3.2790846-2.419613-.7230888-4.4107402.214536-5.8212491,2.0034489-3.4681468,4.398565-8.1614568,5.1772282-13.2878883,4.9192486-.409628-.0206206-.983062.1118859-1.1539901-.361349-.1372109-.3799093.3248633-.6647436.5864839-.9331223,3.6646242-3.7593707,7.9159233-6.1534744,13.3718937-5.9799487,1.7264517.0549084,3.4644303-.2525624,5.2760774-.4006454-1.8811373-2.6433182-7.0814948-4.392766-9.9331726-3.3228124-1.9447441.7296692-3.8097144,1.6700203-5.7232346,2.4859551-.6552237.2793994-1.3181957.6453574-2.2796469.3218217,1.3386342-1.8687845,3.4479081-2.4393767,5.3402748-3.5435825-1.3306728-.3872979-2.4015278.5279479-3.5672358.3057835-1.9930587-.276309-3.9829581.5195202-6.2542596-.00587,2.1293527-.2944608,3.9910772-.5519164,6.1199548-.8463151-6.4207074-1.0988331-10.1650478-.7427947-12.1365534,1.9176097.1350952.0572972.2598467.1438824.3932856.1604358.3829887.0474931.7700024.0612935,1.1545452.0977392,3.6727766.3480371,7.1960959-.5114034,10.7252431-1.3245941-3.2540304,1.5810285-6.7207541,2.0005627-10.27496,1.7654062-.9748608-.0644993-2.0278327.0243327-3.026036-.6027042,3.3160143-3.2629221,7.2992567-4.0951881,11.6679497-3.4874486,3.8243096.5320063,7.6294416,1.2018385,11.511488,1.6956229-3.1622212-1.9177251-5.98089-4.3790811-9.457793-5.7856958-.4399773-.1780015-.9605632-.1906917-1.2037966-.6982765-.8825077-.7697205-2.4745813-1.4995939-2.994348-1.2531591-1.3261859.6287508-2.7897738.8636943-4.1788406,1.5006596,1.1525826,1.0146012,2.3028429.3219461,3.4062162.3012544-.7273603.6764127-1.6443178.8008467-2.5524037.7127873-.8498606-.0824025-1.6304065-.4120036-1.589596-1.5107923.0111517-.3003042-.052837-.5591629-.2478225-.8075871-.3440075-.43829-1.1471366-.9209116-.7598164-1.412094.6059811-.7684505.5873831-1.8959944,1.6620811-2.4254609.8015683-.3949174,1.4571139-.5350345,2.1425914-.0217662.6651233.4980293.9668173.3081901,1.2393632-.3919336.3157452-.8110949.8109284-1.5544135,1.8338174-1.1900806,1.0805747.3848913,2.4426625.5426363,2.2514778,2.2889493-.2064636,1.8858617.8191895,3.3112943,2.1970224,4.337236,3.1064692,2.313131,6.4612427,4.2576664,10.081291,6.3970675-4.8992319-7.4744363-12.5719972-11.9321457-17.4810154-18.9533106,7.0447338,1.6527743,11.4476059,6.3160503,14.4437922,12.669097-2.1618866-5.9608022-2.7549909-12.0227893-1.6259817-18.5645829,1.7455004,1.9974723,2.2164353,4.2065589,2.6032536,6.4124929.4485115,2.5577542.1041376,5.1273817-.1645252,7.6807312-.5238495,4.9786238.9923333,8.7035203,5.0534024,11.9098289-1.2845162-3.5482004-3.2988749-6.7412948-2.3898277-10.5189682.8809625-3.6609566,3.4218392-6.1875845,6.1593444-8.8803939.2403428,1.390319-.0898089,2.5015493-.3363636,3.5825148-.7534291,3.3032574-1.5662024,6.5965776-2.9793088,9.6982557-1.1541811,2.5333594-.7091641,4.8761069,1.0281041,6.9071388,2.6690007,3.1203362,6.2764431,4.772107,10.0885331,6.0288538.2691557.0887343.5761603.0776336.8661897.0837879.2866992.0061009.5741888-.0248211,1.0256797-.0479016-2.2447198-3.4421846-1.4220758-6.9580598-.4371311-10.4223746.8462574-2.9764981,1.8406643-5.9152185,2.8901038-8.8272084.3561095-.9881372.2269465-1.643876-.3535563-2.4924201-1.689411-2.4694817-3.488461-4.8787001-4.7696782-7.6068451l.0979079-.0942758c4.0168884.6994133,7.8398437,2.3542834,11.9707538,2.5647876-.3453729-.5275838-.7598187-.8601421-1.1373302-1.2303627-1.5998419-1.5689332-3.6764664-2.4998176-5.3281173-3.9976177,1.0886693.0206384,1.7091746,1.1363001,2.9223402,1.2924377-1.7319443-2.1684226-3.4827375-4.0959341-5.2632672-6.0008757-2.8436497-3.0423473-6.0679504-5.6724779-9.1106573-8.499006.0457037-.0518268.0914162-.1036403.1371421-.1554405,3.8110509,2.8721874,7.3155902,6.0879404,10.6027961,9.5808462-.8319686-2.167539-1.8419431-4.1897614-2.7780048-6.2456366-.3281846-.7207887-.8039993-1.097914-1.5291306-1.3879301-1.865845-.7462403-3.8765582-1.1720576-5.5320189-2.4032551l.0876065-.1017132c8.4899123,3.0524445,16.960727,6.1676832,23.9266105,12.1818175,2.5636775,2.2134114,4.5983415,4.9604987,7.0337664,7.521965,1.0639326-2.2442624,2.0977425-4.4568213,3.1651651-6.6530223.2504134-.5152221-.0635758-.8362179-.2805983-1.188118-.8902471-1.4434246-1.7621292-2.9006228-2.7131547-4.3036942-3.7680913-5.5591045-5.2197126-11.6650991-4.0204762-18.2631553,1.3477457-7.4151365,1.7313493-14.9075604,2.2227538-22.3989585.1364317-2.079806.4310168-4.1545856,1.2169798-6.1065718.7584067-1.8835772,1.7372549-2.0257213,3.0617779-.4848173.5046365.5870789.988377,1.1998958,1.4149624,1.845069,3.8730238,5.8576149,7.823619,11.6585586,10.9937572,17.9582399,3.282921,6.5237794,4.3598281,13.4133525,3.8273778,20.5958989-.5810535,7.8382408-2.1480152,15.5421147-3.4407903,23.2799033-.225459,1.3494862-.0751737,2.6015619.1838804,3.8778548.3560917,1.7543765.7720116,3.4966045,1.263718,5.698116,1.6102721-6.3834714,5.1248952-11.7620301,5.1904069-18.1949306.0285953-2.8073328.1008918-5.6269873.6231383-8.4026477.1580647-.8400499-.4003878-1.2165624-.9147307-1.6635153-1.2869584-1.1183481-1.107687-2.1801316.4860939-2.7734402.6266284-.233265,1.2784331-.6094889,1.9590995-.3986517.9398715.2911306,1.8720081.7332925,2.0404275,1.8443319.1536155,1.013389-.5328588,1.7117322-1.347346,2.0326792-1.0529652.4149297-1.290999,1.2178811-1.4393839,2.1413281-.523552,3.2581221-.4764496,6.5529608-.4410785,9.9089154.8384114-2.0806474,1.7342177-4.1403901,2.5015759-6.2469242,1.1099249-3.0469563,2.1036658-6.1361351,3.2009981-9.1878736.2494099-.693632.1656842-1.1430582-.3421759-1.6762189-1.0787631-1.1325214-.6311131-2.9596695.8372392-3.3856644,1.3507739-.3918936,2.2853615.5483553,3.2448857,1.2617466.6209093.4616413.7191014,1.1675152.4582357,1.8441321-.39815,1.0326998-1.3082894,1.2212424-2.2826174,1.1409491-.6201989-.0511164-.8530021.2906688-1.0338542.7829169-1.8502863,5.0361031-3.7061052,10.0701726-5.4735983,15.1650604,1.109916-1.3882054,2.7813661-2.2922439,3.0545847-4.3843473.2098204-1.6065156,1.2663378-2.9228908,2.3297553-4.1288232,2.4043518-2.7265998,4.8143783-5.4499183,7.2937352-8.1077384.8665094-.9288863.921844-1.7387246.1240256-2.6365246-.8535616-.9605277-.3730802-1.5684758.5867725-1.747281.7952875-.1481495,1.2240487-1.1225086,2.2172922-.7728597,1.0728753.3776848,2.3342933,2.0498719,2.1845053,3.1147592-.1673271,1.1896055-1.8082725,2.4330493-3.1081876,2.2893533-.3788259-.0418762-.7119082-.2684542-1.0518462.1099588-2.2907609,2.5500415-4.5912637,5.0913356-7.0041853,7.7634534,1.0828482.2993273,2.1154769.2035019,2.6140923,1.1461131.4178914.7900302.4026968,1.636594-.1097013,2.3431117-.4950366.6825758-1.3067709.8912151-2.0889596.6042317-.9767169-.3583474-1.6358658-.0521998-2.3154754.6446381-1.5191844,1.5577348-3.1442071,3.0141782-4.6212,4.935278,2.1245972-.6196305,3.8482648-1.5764372,5.5378223-2.5862341,3.2112196-1.9192614,6.1081659-4.2847432,9.1156393-6.4933413.4675691-.3433704.6331289-.8248908.8361113-1.3196654.5368639-1.3086313,1.1584837-2.5818205,2.3114348-3.4668325.5260652-.4038113.5627951-.994327.7822065-1.5148374.5971805-1.4167341,1.2772608-1.8126817,2.4049557-1.3526433,1.3655156.5570583,2.0297975,1.9450949,1.5095135,3.164841-.4760678,1.1160702-1.4668159,1.6454923-2.4848805,2.1149796-4.5726057,2.1086833-8.022321,5.8255428-12.1897256,8.5708095,1.2648103-.2832358,2.5296296-.5664627,4.1687101-.9335042-.5978288.8644314-1.1352256.9063653-1.6255288,1.018189-3.3215602.7575364-6.437021,2.0843151-9.5683779,3.3859175-1.7887797.7435406-2.9351592,2.07912-3.6497671,3.7494245-1.4843638,3.4694922-2.575089,7.1006368-4.2615738,10.4912965-.3852288.7745248.0190132,1.5114583.1773265,2.3507312.1479142-.1200382.27408-.1728952.3177012-.2648886,3.7072508-7.8181575,10.4130057-12.1616365,18.0021963-15.4235728,2.898456-1.2457971,5.9697094-2.0022856,9.1084017-2.3933933.9725697-.1212016,1.4044035-.4266209,1.3899815-1.516911-.0230095-1.7403364.2053002-3.4825377.2634233-5.2260755.0266327-.7986532.3904416-1.7351679-.7158156-2.232105-.4303685-.1933293-.0189422-.4868443.1127118-.6845117.2138167-.3209959.5162433-.475788.8149135-.0971309.1844487.2338556.3590312.4534846.6585805.5334893l-.0293413-.0286086c.1588106.5570405-.2603951,1.032531-.2347037,1.5543602.0278582.5658189-.5207635,1.241974.2699417,1.6866935l-.047875-.0330178c.3918714,1.0712591.032556,2.0787292-.2098293,3.1169971-.660179,2.8279179-.6408372,2.7896517,2.2193525,2.5366541.8685164-.0768255,1.2988761-.4698425,1.6215415-1.1834646.1902921-.4208308.2113479-.7738055.0479105-1.2357976-.3500707-.9895315-.2201218-2.6219694.2106286-3.7529811.4551896.7865091.0229384,1.5801004.2872054,2.299486.6479417.0903062.860222-.5106663,1.2239066-.8283231,2.2959471-2.0053538,5.1603019-2.1692885,7.299321-.4836518.7698004.6066383.656911.9892295.0335329,1.5760376-1.4345263,1.3503299-3.1202296,1.4238075-4.8946051,1.0359589-2.1143935-.4621431-3.2694048.1745292-4.0987226,2.3928071,1.7287207.219891,3.4556474.3520067,5.1465725.6734732,3.1834324.6052174,3.4521041,1.295608,1.5418742,3.8873125-1.2062698,1.6366029-2.4701477,3.2376036-3.8042351,4.7710147-1.1393461,1.309586-1.8899468,2.76301-2.4084724,4.4145144-.7057984,2.2479301-1.3794048,4.4953007-1.7591454,6.8597878,3.0701167-3.8671004,6.5453546-7.2776081,10.6788978-10.0182126-.7755194.7287812-1.5269016,1.485465-2.3307677,2.1815303-3.5384229,3.0638826-6.5416248,6.6011422-9.2545131,10.3975358-.1776285.2485662-.5941878.5226462-.1630466.8421412.4664679.3456749.5704323-.2084351.7088799-.4292585,1.882274-3.0022073,4.5957129-5.232172,7.0748566-7.6813972,1.2408773-1.2258958,2.4971712-2.4437637,3.6468987-3.7527369,2.19248-2.4961588,4.0627209-5.1761358,4.1315273-9.114618.5622445,1.4670201.1644675,2.4598019-.1393711,3.4115556-.6569998,2.0579665-1.8361574,3.8314096-3.2165124,5.4793085-1.6224384,1.9369603-3.3696306,3.7644237-5.2629076,5.4240804-3.3878179,2.9697933-8.5866613,10.5663104-10.4020737,14.1021047,2.0708699-1.7952448,3.8628822-3.2921124,5.7713538-4.6403465,1.8948488-1.3386254,3.8042085-2.6454939,6.25148-3.7423111-1.248257-.2583703-2.1958191.1788096-3.2551161-.1737832.9609806-.1472659,1.7587457-.3437567,2.5637752-.3804244,4.1575295-.1893419,6.5620945-2.9451765,8.8094207-5.9453146.2731298-.3646526.3491472-.7504941.2543386-1.2258958-.3223635-1.6162398.6494514-3.7779043,2.0168052-4.6074885.8089458-.4908006,1.2673413-.1448149,1.2171485.6788282-.1007408,1.6523303-.2701814,3.3217645-2.0682058,4.1662502-.2460797.1155802-.4978606.3263775-.6300563.5594294-.7924635,1.397077-1.795005,2.6309032-3.0590782,3.8973564,5.3122656-.9070491,9.511054-3.3846387,12.9657246-7.2007471.1894929-.2093231.4133712-.3875288.6212645-.5802187l.0788059.0753336ZM113.9046719,73.2458723c-.7538065.93203-1.542558,1.8382265-2.2543241,2.8013296-1.6004946,2.1656786-2.789252,4.5672685-3.8969923,7.0185451-.2397656,1.4828719-1.1345862,2.6448279-1.9220943,3.849739-1.509034,2.3088594-3.3668066,4.3410014-5.3873949,6.4772232,1.1750903.5499538,2.2305775.9982078,3.2405964,1.5324519.6922911.3661623,1.0077099.1670962,1.3025881-.5009688,1.0939311-2.4783622,2.0933466-4.9910033,2.5907809-7.6617357.2265158-1.2161628.6331645-2.4543404.159077-3.7128544.6301984.1799641.7994347.6245237.7105761,1.2245282-.1343181.9071201-.2740622,1.8136452-.3918092,2.7229766-.2406803,1.8587406-1.0456032,3.5710855-1.4084175,5.413779,2.4034727-3.8965394,5.0967527-7.6257784,5.8789059-12.2860084.3882482-2.3133263.9004064-4.6058545,1.3656399-6.8974057.7632199.3707002.4205378.963698.290287,1.5010504-.4051745,1.6715122-.9854997,3.3036038-.8911174,5.1081909.896277-2.9429031,1.792554-5.8857972,2.8118441-9.232596-.9206274,1.106426-1.5593866,1.8740862-2.1981458,2.6417552ZM119.8598794,115.5926372c-.8951669-1.0632222-2.1983412-1.4699685-3.3722503-2.0807806-.2671976-.1390426-.6923088-.4684216-.8579575-.0360195-.2169959.5664805-.3072665,1.216296-.2911573,1.8260069.0123173.466166.5142807.2846922.8090524.2864772,1.2458504.0075307,2.4918695-.0133119,3.7378265-.023791-1.190276.673784-2.522756.5576-3.7967044.5732031-1.3448684.0164734-1.1723906,1.0553895-1.4336204,1.7983441-.3045136.8660476.4700912.9153968.9697634,1.0992771,3.4956543,1.2864522,6.9247667,2.7164228,10.1871026,4.5301745.362468.2014994.7309214.6639533,1.3430923.2796925-1.8438124-3.301286-3.9753009-6.2945861-7.2951472-8.2525844ZM62.8246014,63.2495236c-1.3293274-1.2733978-1.5738885-2.9041306-1.5194686-4.6305157.0149193-.4734569.1728063-.9428554-.1923524-1.3844844-2.0700618-2.5035741-4.2634032-4.8668934-7.1499771-6.5623742-.1498235.5993563.152763,1.0116307.3121686,1.4445968.7350775,1.996491,1.4604929,3.9975866,2.2536047,5.9712236.3953082.9837147.1531182,2.9111196,2.2864006,1.7105866.3785417-.2130352.8056156.2488681.9747454.6807286.0566489.1446373.0112428.453529-.0913985.515595-.5702192.3448667-.545336-.2533351-.7532382-.5070431-.1670695-.2038793-.422456-.2671354-.6523642-.1313609-.1514398.0894359-.3314749.2552355-.3560118.4095348-.0561783.3532677.2528644.5180283.5184635.601088.3423624.1070815.7131337.1233773,1.1090724.1845464-.1957004.5034021-.3251963.9451821-.6818209,1.2468983-.4340451-.2417282-.263672-.9846649-1.0050902-1.0075234-.0000444.685009.4275179,1.0498836.8712516,1.4190919.8561636.7123788,1.6850462,1.4583971,2.5562712,2.1514697.4292762.341501.7969659,1.2320056,1.2832552.9108943.4571434-.3018761.5733363-1.1700017.7630245-1.8116116.15945-.5393238-.6320721-.7190481-.5749614-1.2582565.4790516.13232.9510521.2893279.6113361-.5405849-.4762276-1.1634124-.7891511-2.3709255-.8791109-3.631935-.0297942-.417474-.2049717-.7350775-.7724379-.7616569-.2261162,1.7995341.6020559,3.355697,1.0886383,4.9810926ZM113.5629755,125.5586855c4.0588312-.240405,8.0238573-1.2886812,12.1302083-1.2679718-3.0308381-1.8186716-6.1709246-3.1924461-9.4032799-4.3437099-.6989692-.2489569-1.5107124-1.1022965-2.2312613-.2991853-.8283231.9232116.684343,1.2290218.6775583,2.0494679-.9479173-1.3224361-3.1608758-1.2308423-3.4719699-3.2700975-.0434791-.2850563-.3401689-.4270028-.6451798-.5170692-2.7772811-.8200731-5.5907148-1.4666116-8.6707688-1.9408855,2.7306138,3.9832667,5.6444065,7.4034276,10.2279353,8.9305867.4967683.1655154,1.0461271.2470565,1.4119253.6730825-2.2622988-.1769891-4.1448925-1.2651656-5.9383611-2.5271785-2.1632364-1.5221949-3.8644452-3.5163992-5.5189423-5.5517559-.9256005-1.1386712-2.0275862-1.9678291-3.6492787-2.1135764.5059863,1.6608467,1.0756993,3.162794,1.402654,4.7158488.2819481,1.3391937.9880662,2.2232067,2.0598137,2.992119,1.6470464,1.1816175,3.4459055,2.0640408,5.2750917,2.924547-2.5087337-.0976237-4.3969754-1.6494708-6.7321212-2.9991169.5909464,1.2728916-.1928675,2.71224,1.5037145,3.1428572,3.9269997.9967247,7.7680446.6282091,11.572262-.597962ZM80.4070681,116.8804126c-1.1621158-1.856778-2.3598515-3.6807868-4.4345845-4.6679117-.3704604-.1762786-.7571101-.5575112-1.2085521-.2499427-1.3016113.8867837-2.8622056,1.1718222-4.2447452,1.866662-1.2550062.6307578-1.9983959,1.6108315-2.2413052,3.0178459-.5958484,3.4515358.3295567,6.6332187,2.1752695,9.4161655,4.5314356,6.8324446,9.1546071,13.5735174,17.0832384,17.132854,3.895305,1.7487019,6.4798696,4.8677415,7.0870762,9.3086133.0171661.1255175.1285546.2381405.3015031.5422988,1.0473615-2.8307419,2.1137274-5.3763831,2.9373261-7.998308,3.1893912-10.1533655,3.0700723-20.2306602-1.0306572-30.1342428-1.2391278-2.9926074-3.0926555-5.6018599-5.6739876-7.6155214-1.0858143-.8470255-2.3594607-1.6410431-3.7463074-1.0591371-2.9203021,1.2253008-5.7607948,2.6408405-8.6903771,4.0045445,3.0416013,2.2252581,5.5175392,5.5543756,5.3732127,7.3722658-.3590134-.5604417-.6315482-1.0014936-.9192953-1.4323861-1.3268231-1.9868423-2.7587119-3.8781389-4.88822-5.0896749-.9950641-.5661164-1.1051205-.5407358-2.1821875.1684371,2.1091362,1.2698456,3.6995247,2.9456383,4.302593,5.4174378ZM122.7120766,60.6794432c-1.0462159-.2379806-1.8388038-.458511-2.6458047-.5916302-1.0023195-.1653467-2.0135638-.3286775-3.0261137-.371828-10.0519497-.4285036-18.9876427,2.5846534-26.8487553,8.8190827-3.1182759,2.473025-5.7024231,5.3940731-7.1751711,9.1611876-.7439403,1.9029035-.0237466,3.0891744,2.0067436,2.9065106,1.6318518-.1467864,1.3563331.9841499,1.386003,1.7111194.0339414.8319641-.3990469,1.5687467-1.5166268,1.5173905-1.8222238-.0837346-2.977626.8447787-3.3856599,2.6173693-.7500501,3.2582687-1.3981693,6.535959-1.6904633,9.8702273-.1814471,2.0698664-.2655014,4.1470061-.0143509,6.2262059.3821383-.4149519.5845879-.8530376.8330209-1.2632918,4.1227355-6.8081652,9.5758553-10.9026784,17.927289-8.3767077.5159147.1560399.8906023.1364406,1.2752983-.3104991,2.5012207-2.9059156,5.1062727-5.7957575,6.4827202-9.4072583,1.6376863-4.2969095,4.1672892-7.947387,7.1041002-11.3985498,3.072772-3.6109236,6.0851564-7.2732389,9.2877707-11.1093285ZM72.958332,110.7209616c.2628639-3.2611992-.9582365-5.8289973-3.0666533-7.9861594-1.5556834-1.5916673-3.4121683-2.9014754-4.8869501-4.5574467-2.7348854-3.0709426-6.0547672-5.2875955-9.6866045-7.060408-5.896818-2.8783948-12.1025188-4.0505634-18.6335846-2.8982695-4.7822352.8437397-8.8514478,3.0654189-12.160562,6.6223933-3.1705334,3.4080034-6.2989553,6.8556583-8.9855972,10.6718289-.2420568.3438366-.6744101.7654045-.4046327,1.1612544.2660298.3903528.8095452.1353127,1.2152525.0380176,1.8829223-.4514864,3.8256195-.7521104,5.6274092-1.4261786,7.0077286-2.621703,13.8593419-2.3689007,20.8474712.2791064,4.5629304,1.7290404,9.3580468,2.8706421,14.2685481,3.2558531,5.2881549.4148276,10.6690404-.0273609,15.8659034,1.9000084ZM76.2415905,84.0242854c2.0839954-2.5664749,2.0757542-2.5832236,4.62477-3.8379368.4310168-.2121649.5649708-.4740253.5560281-.8886308-.0146174-.6774428.055379-1.3720695-.0688952-2.0294689-1.6432455-8.6919844-3.9458974-17.1675502-8.3121373-24.9544216-1.2020249-2.1437569-1.4429628-2.1561142-2.7769702-.0972197-.1052255.1624028-.2067744.3274387-.303741.4948989-2.6815489,4.6307555-4.8054534,9.4984881-6.1386705,14.6888772-1.9492865,7.5889064-2.3613523,15.1954052-.112765,22.807623.2164719.7328129.3817387,1.4901895,1.0721738,2.0016195,1.6173676,1.1980465,3.1862741,2.4578659,4.8046719,4.2917233-.959018-2.7634452-2.0275329-5.0466221-2.4825894-7.5241318-.1052788-.5731587-.593655-.547787-1.0105073-.6399137-1.7009335-.3759397-1.9057541-.8157572-1.072529-2.3728082.2504578-.4680309.726339-.8711184.8193627-1.3574343.2986613-1.5613492,1.2039343-2.0668293,2.8224564-1.6136733-.4083182-1.412911-.8112547-2.6024766-1.0851305-3.8210371-.2113035-.9401202-.4281839-1.5096911-1.5740839-.957304-.6146752.2962902-1.390541.2383447-1.7383916-.5503357-.3084832-.6994044-.1372842-1.3788187.5225663-1.7855472.7497393-.4621609.9220838-1.0975366,1.000419-1.9250782.0915139-.9666463.8053492-1.6654468,1.7584172-1.620911,1.3278621.0620572,1.9899594,1.0709926,2.3196848,2.2678669.2388864.8670867-.0155942,1.6182646-.9312752,1.8306159-1.0359944.2402629-1.0291476.8782761-.8039727,1.6287081.4309102,1.436107.7532559,2.9353013,1.4093677,4.2659608.9172706,1.8602947.1189903,3.9491832,1.1476494,5.8244505,1.229448,2.2413141,1.9153629,4.7477388,2.6394818,7.2102404.0931923.3169552.130162.6831708.5874208.9870538-.2459464-4.8322637.3114049-9.448837.8924317-14.0639628.046685-.3708334.2388864-.8088836-.1934092-1.0537111-.3030305-.1716075-.5222821.1481273-.7465067.3085809-.5767997.4127407-1.1978333.6102171-1.6299869-.095377-.4296759-.7015446-.588744-1.5238112.3560651-1.9789209.6221348-.2996826.6953193-.6809329.5630615-1.2741793-.1603825-.7194566-.3134474-1.6519662.5312159-1.8975219,1.2432129-.3614289,2.4926244-1.4328034,3.8779081-.4601894,1.1180328.7849595,1.0660107,2.0104734-.3706736,3.4646878-1.3559246,1.3724691-1.3516975,2.8688572-.952917,4.7268074ZM62.4671865,91.5745171c-2.1056017-7.7128876-2.3613878-15.3551927-.3490406-23.0416518.0989469-.3779556.0049198-.6464941-.2434777-.917759-2.5456944-2.7800784-5.2807663-5.2738395-9.0930206-6.2032142-3.2014865-.7804659-5.3867999.2198288-6.7530881,3.1902437-1.9464448,4.2317086-3.4182071,8.6272986-4.4974631,13.15964-.4178914,1.7549538-.7488734,3.5052808-.5234055,5.3150541.3046201,2.4451934,1.6650517,3.7945287,3.9854913,3.7448599,4.591135-.098272,8.9202275.9546931,13.1144514,2.7294239.3905127.1652401.7694984.6086009,1.3122146.2973647-1.0956628-2.6774106-2.1794611-5.3258262-3.2901675-8.0399933-.877992.8015749-1.5825115,1.7773682-2.7162007.9013655-.7322801-.5658234-.322772-1.8158565.8375145-2.8459276.0362237-.0321653.0661689-.0789213.1082893-.0958299,1.1678171-.468768.9007528-1.2872337.5103289-2.1237358-.2862818-.6133697-.6191598-1.2057992-.8879115-1.8263444-.3221947-.7439403-.9962452-1.3617769-.9243217-2.4882551,1.2535942,1.4203973,1.7152311,3.0143115,2.390587,4.4964995.1121345.2461152.1073479.9202899.5585058.5916657,1.1221712-.8174001,1.8164071.1427102,2.6062863.5264826,1.0570946.5136236,1.2422982,1.4187367.7036137,2.4484082-.6047467,1.1559527-1.2920913.3468915-2.2182957-.2068898,1.3252868,3.9729564,2.78078,7.4764611,5.3691099,10.3885931ZM65.482688,2.2416068c.0392431.2832891.0661156.568936.1195498.8495254,1.2168199,6.3905802,2.1710424,12.8533881,2.0658436,19.3370052-.1451168,8.943086,1.529619,17.5266214,3.8950386,26.0486679.1270272.4576362.1743338.9667307.6865542,1.2127571,1.0307105.4950588,1.5274344,1.4435888,2.0320531,2.3895213,1.7122295,3.2096344,3.1962914,6.5171545,4.3699164,9.9645519.1261924.3707002.05315.8974314.7049991,1.1635278.3666329-4.2820435.7777129-8.4990903,1.0788786-12.7239831.6030683-8.4603534-.4302975-16.6334215-4.4079428-24.2739239-1.9698183-3.7837744-3.5994144-7.7176609-5.0669585-11.7226871-1.5313152-4.1790515-3.3892566-8.219813-5.477932-12.2449626ZM78.8842871,108.9341178c2.3163457-1.1539635,4.4735256-2.236039,6.6380053-3.3033107.8705234-.4292585,1.7644027-.8792175,2.7664823-.73244,1.4496409.2123336,2.9013066.1272137,4.3525194.147186,4.6894026.0645704,9.0740251,1.2488609,13.2019114,3.4746429,3.0077931,1.6218168,5.1289358,3.890847,5.9258129,7.3105638.239286,1.026883.4525788,2.1237979,1.2373517,3.0615559,1.3249316-3.3937412,1.6552875-6.7980858,1.2221394-10.2529429-.5523338-4.4055362-2.4985299-8.0333684-6.4381932-10.3345994-3.3129106-1.9351398-6.8159179-3.4839053-10.5507606-4.3916737-6.927564-1.6837674-14.469821,2.7503642-16.5451312,9.668355.7740453-.437322,1.207451-1.3156336,2.3303859-1.7136504-2.0030493,2.1303163-4.2237605,3.7982319-4.1405233,7.0663135ZM72.291981,111.9608532c-7.5071167-2.3774882-14.8053632-2.6888132-21.6520966,2.1222172,1.8026778-1.631088,3.8998341-2.6510265,6.4097133-3.7420714-2.3000943-.4398974-4.139875-.7899592-5.9787498-1.1446744-.4921771-.0949418-.8211743.212902-1.1783406.4555893-2.6508134,1.8011503-5.18233,3.7541134-7.5316447,5.9372955-1.1803875,1.0969238-2.2686484,2.2862407-2.8917112,3.7891382-2.6367821,6.3602843-2.1264088,12.6782883.3432993,18.9523692.1211438.3077461.2509684.7382922.63082.7007453.4645986-.0459301.5042013-.5372191.5313624-.9029374.1151761-1.5508258.3192153-3.0879577.7601606-4.5793549,3.1852751-10.7734311,11.0527062-16.4220204,21.322238-19.4092373,1.3991817-.4070127,2.8727024-.6411481,4.3165088-.461557,1.9550411.2431846,3.3609188-.8568208,4.9184405-1.7175223ZM64.9469607,1.6790914c-.4897793,1.2897535-.6532611,2.3785494-.6836681,3.4865761-.2189407,7.9802028-.1652845,15.9704362-1.6700914,23.8723149-.5327878,2.7977241-.5733896,5.6870109-.3383928,8.5504953.2867703,3.4944954,2.0508887,6.4137717,3.6858576,9.3796266.795403,1.442874,1.6560424,2.8478946,2.6887155,4.1353681.1862248.2321683.3850068.929317.8177553.3381841.8868636-1.2114694,1.976239-2.150737,1.3460939-4.1493416-1.909484-6.056197-3.3534769-12.2985966-3.4817385-18.6472029-.1813938-8.9777912-.6697167-17.8972039-2.3645315-26.9660206ZM41.0577417,44.0365506c2.0142521,5.1241448,4.5086836,9.7143695,8.2499025,13.6577804,2.2327355,2.3533953,5.0605024,3.0971047,7.9521292,4.2809601-.6090982-2.4536832-1.7944633-4.5420478-2.2436141-6.7799873-.9417986-4.6926573-4.0601633-7.0665222-8.1487177-8.6959629-1.9093596-.7609465-3.6782336-1.8682161-5.8096999-2.4627902ZM66.3179645,2.0978575c.182273.4856432.3477618.9783798.5494476,1.4558218,1.8077397,4.279457,3.7636422,8.4959599,5.3765695,12.8581614,1.1252083,3.0431377,2.4531948,5.9924658,3.9773168,8.8677036,2.7330738,5.1559193,4.1793046,10.6994829,4.70743,16.5099066.2576865,2.8351289.154921,5.6728997.2980219,8.509485,1.0338187-6.2338698,1.4938571-12.4769755.3288818-18.7423224-.6725852-3.6171489-2.4074511-6.8362988-3.9260406-10.1274698-3.1292433-6.7819299-6.6872745-13.3233904-11.3116271-19.3312862ZM10.7773341,90.214614c5.5229119.4117993,10.289251-.3361283,13.9009428-5.2354312-2.7445474,1.1648333-4.9951194,2.6121386-7.6793058,2.8773203,1.8945291-.8990743,3.9306274-1.4909532,5.7594938-2.6799504-.5976778-.4547012-1.2144089.000524-1.7590877-.285154.9565359-.4795933,2.0959575-.2559104,3.2197937-.9348895-5.4738247.0783796-9.7027049,2.2739056-13.4418368,6.2581048ZM108.3716539,111.8116513c-1.3895819-1.0261637-2.2373356-2.2657178-3.8713009-2.1031063-2.476444.2464615-4.8457177.9157964-7.1612198,1.7966745-.2824188.1074367-.6484567.1222672-.5997115.6368588.1416801,1.4953135,1.5605855,2.6205751,2.9701929,2.1642754,2.7539075-.8914815,5.4982151-1.8085656,8.6620393-2.4947024ZM91.9475022,106.2950801c1.5532945,1.420868,2.9223091,2.9479028,4.0569841,4.674652.1456053.221596.3596528.3258979.6219483.2369327,1.2343767-.4187262,2.4516762-.8960106,3.7034499-1.2528039,1.1977268-.3414033,2.4304073-.5601753,3.9464747-.899767-4.0991755-1.910896-8.0227561-3.023565-12.328857-2.7590138ZM74.5421401,105.5988549c.3020892-.3952105.1307393-.6578701.065938-.9255561-1.3662971-5.6449571-3.2258547-11.1358369-5.1134925-16.621717-.4462381-1.2968336-.8450452-1.0415448-1.6135223-.3449822-.5708586.5174244-.3386859,1.0108004-.2182214,1.5788083,1.2436125,5.8634183,4.9453485,10.6667492,6.8792983,16.3134469ZM44.3587701,65.6461938c.9845806-2.1744348,2.0948163-4.0605274,4.265055-5.3351152-3.1369206-.8338379-6.0514015-1.6085581-9.3320136-2.4806001,1.6116574,2.8903747,3.3168802,5.2583074,5.0669585,7.8157153ZM8.6196924,60.6252187c3.9265068,4.987833,8.8825474,8.5726389,13.0833873,12.9354242-.5171269-1.2691529-1.3431056-2.3279171-2.1844165-3.3623485-.8518565-1.0474237-1.7899875-2.0246734-2.6903317-3.0326675.0714883-.0656804.1429722-.1313609.2144605-.1970413.740206.7005855,1.4804164,1.401171,2.4219309,2.2922884-1.8296879-3.690209-7.0911657-7.8709789-10.8450304-8.6356552ZM31.2143736,61.7998294c-4.7178602,3.756298-6.5978297,9.3213036-4.5401873,13.0669539.1684638-2.274323.3247568-4.4745913,1.4021301-6.4700211-.1328617,1.9705377-.9636092,3.8601026-.6814746,6.2865936,1.8119002-4.3134895,3.1111892-8.3553411,3.8195318-12.8835264ZM100.7761492,114.6583604c4.4113174,1.5572997,6.6092323,1.8586518,9.6920927,1.3797422-.1719627-1.0084293-.5204349-1.9453613-1.0267853-2.8290812-.3441563-.6006439-.8092566-.9555457-1.5449557-.7817625-2.3404919.5528666-4.6360838,1.2450067-7.1203516,2.2311015ZM20.7129666,55.0207035c-.5316777,4.6414033-.7786543,8.8608123.8521452,12.9881213v-2.8606871c.7188261,1.0704509.2998691,2.1297301.6897868,3.2567234.5337335-4.5990697.8222755-8.939858-1.5419319-13.3841577ZM76.8844525,107.660427c.5978199-1.963673.307231-3.9474959.0750228-5.9087978-.4658818-3.9350188-1.3350465-7.8426411-.1996344-11.8148516.2754653-.9637069.0044403-1.7117144-.6338927-3.045864-1.8615646,7.1633067-.1347888,13.945976.7585043,20.7695134ZM121.1363765,55.3621424c1.3800442.0143243,1.9463027-.0976149,2.6464974-.468022,1.1975758-.6335197,1.2340748-1.0243787.1246117-1.722975-1.3165039-.8289581-2.7025247-1.0092818-4.1141481-.265457-.6012745.3168309-1.3536867.8163877-1.3126498,1.4258677.0488429.7254687,1.0043353.7504497,1.6272161.9301473.4084159.117827.8598313.0865852,1.0284726.1004389ZM8.8533771,68.9663065c-1.1943677-.9798073-2.0692248-1.5399471-3.4725249-.9082479-.895531.4031231-.0292281,1.1087616-.5708964,1.3890046-2.4897271,1.2881306,1.5956947,1.3114332.4485337,2.3390266.5039083.4233263.885869-.0837079,1.2596374-.2358315.5272663-.214607.907109-.615057.8796126-1.330251-.0293058-.7622963.1581668-1.4991233,1.4556375-1.2537008ZM64.7846334,92.8815544c1.4185768,3.6562676,4.405181,5.620882,6.671627,8.1743114-1.5201968-3.1478303-3.4511273-5.9677912-6.671627-8.1743114ZM10.5186175,68.5783781c.3214221-.330427.6080015-.7469064,1.0774044-.6559697.694378.1345312-.1880276.7730329.3402489,1.0868888.7893065-.6905682.3975683-1.3477013-.1127695-1.9314011-.4317006-.4937489-1.1838376-.6703739-1.4974737-.1085646-.486418.8713227-.6822028,1.9069441-.9751939,2.8807393-.0269613.0896135.1679065.3494402.2023075.3390944,1.2540449-.3770409,1.7619672.8670156,2.6709566,1.2297944.2818105.112472.535443.2842482.7833077.0445536.2753677-.2662918.0292969-.5343152-.1018997-.7698359-.5381738-.966078-1.5732047-1.3885162-2.3868883-2.1152993ZM79.1016559,92.8520799c.4073857-2.3691405.8147714-4.738281,1.2750496-7.4150167-3.0496293,2.2980873-1.8899201,4.9446469-1.2750496,7.4150167ZM77.6827683,87.0562514c.7034894-1.0942152,1.4756964-2.0352324,2.5767763-2.6534953.4101032-.2302901.4353772-.7255842.5323793-1.136975.1052077-.4461937-.1146211-.6074198-.5596691-.5432934-1.7521475.2524381-3.1833436,2.5723893-2.5494864,4.3337637ZM105.4075175,49.0932832c1.0688169-.4168612,1.9941599-.7603781,2.9032959-1.1424321.2905179-.1220852.6763061-.2729344.5142452-.7224893-.1783389-.494748-.3846338-1.0113554-.8485352-1.293823-.376366-.2291711-.6104214.1505784-.8186789.3877242-.6851422.7801551-1.3464136,1.5807887-1.750327,2.7710203ZM60.6528753,92.1608279c-2.0186258-2.6335762-5.2345698-2.8298894-8.0564045-3.8569677,2.6729792,1.2899245,5.4619914,2.3408294,8.0564045,3.8569677ZM19.0794586,79.428466c-2.5505787-.3467228-4.3944977,1.2141735-6.2499037,2.7540141,2.0833027-.9180076,4.1666054-1.8360153,6.2499037-2.7540141ZM77.6129051,92.8177478c-.3462166,2.1830134-.0853242,4.3603521.2843548,6.5341208.2087725-2.1800917.1105183-4.3505213-.2843548-6.5341208ZM63.2035073,59.6468767c-.1190525,1.417227-.0276718,1.7398924.7321291,2.5850263.5597491-1.2213046.50913-1.4000343-.7321291-2.5850263ZM38.7278088,57.3308595c-1.2172018-2.3447279-2.4441677-4.6844561-3.645651-7.037212-.360492-.7059271-.8044522-1.3884718-.9524996-2.4285291,2.3497499,1.6484761,4.5282164,3.205203,6.7408641,4.7117149.6617775.4505895,1.2436214,1.0921461,2.128438,1.1433512-2.161851-1.8558988-4.5118451-3.4862809-6.9269824-4.9507079-3.3373676-2.0236255-3.9609233-5.4775324-5.1371503-8.7407208.6155677.4771556,1.2311309.9543113,1.8466986,1.4314669.0457037-.0518268.0914162-.1036403.1371421-.1554405-.2750391-.3204497-.5500782-.6408994-.8518965-.9925509.6940139-.1679842,1.0315542.5479646,1.6155515.5365575-.0000133.0000178.0875932-.1016955.087571-.1016733-1.2931392-.8769174-2.5862563-1.7538615-4.172027-2.8292677.6717815,2.5606981,1.4967833,4.6555233,2.3805076,6.7219707,1.89361,4.4279152,3.9145047,8.794155,6.6515215,12.7853165l.0979123-.0942758ZM130.1725971,81.9750218c.56585.260626,1.1460865.1759145,1.7159327.0745965,2.7675125-.4921149,5.5619152-.6169575,8.3641151-.6099507.5136147.0012788,1.0415093-.0458236,1.5246282.3028796,1.5564915,1.1234056,3.2273822.9876399,4.6229051-.2694887.540132-.4865734.2709452-.7224405-.1856032-.9386549-1.1336359-.536855-2.4690554-.8702836-3.5012224-.2952867-1.3304641.7411784-2.664889.6949375-4.0386014.7796933-2.844933.1755149-5.6728153.4938999-8.482759.9719125,0,0-.02483-.0203275-.0193951-.0157008ZM141.4384806,70.5290855c.3955924-.1322134.5944808-.5652905,1.1107774-.5685408,1.4927826-.0093778,2.1152904-1.1310695,2.6852432-2.2706021.2279278-.4556692.312737-.9259646-.1269029-1.317463-.399038-.3553546-.8099049-.161981-1.2068471.0227519-1.7243337.8024985-2.9362959,1.9280088-2.541041,4.0585559,0,0,.0788059.0753336.0787704.0752981ZM111.9847888,49.5185588c.6467961-.2038172.5896587-1.0696028,1.3218323-1.3078277.363063.9485167.0115181,1.7796061-.3953526,2.6250021-.3062098.6362549-.8609946,1.1602509-.8912417,1.9238793,0,0-.047875-.0330178-.0478394-.0330711.9485656-.6942759,1.3708972-1.7303946,1.6375176-2.7946159.197139-.7868599.7459295-2.0825878-.152017-2.3213366-.9587071-.2549069-1.1943078,1.079105-1.4435578,1.9365785l-.0293413-.0286086ZM87.2830895,123.896329c2.862028,5.539554,4.64135,11.4593193,6.13447,17.455919-.3532677-4.8405138-4.2296838-15.6941272-6.13447-17.455919ZM91.1548611,78.4628675c2.3374725-2.6322175,4.8497762-4.8463749,7.4358415-6.9820106-2.030428.8367063-6.9181951,5.4276593-7.4358415,6.9820106ZM65.4214211,102.6663687c-7.7008189-6.3028539-16.5703431-8.9391031-26.4341009-8.4561441,9.7377608-.0876687,18.5694094,2.66742,26.4341009,8.4561441ZM66.235047,101.5677221c-2.1885015-2.4100176-4.7685814-4.1957158-7.9212694-5.0684327,2.6856695,1.6173321,5.4243735,3.1501126,7.9212694,5.0684327ZM101.3547428,102.4132912c-4.1135176-2.7689955-8.5873629-3.6838239-13.4459663-2.6187457,4.8156927-.8442548,9.2266815.3939939,13.4459663,2.6187457Z"/>
  </g>
</svg>