<?xml version="1.0" encoding="UTF-8"?>
<svg id="Layer_2" xmlns="http://www.w3.org/2000/svg" viewBox="0 0 288.3220835 259.7251367">
  <g id="Layer_1-2" data-name="Layer_1">
    <path d="M288.0893076,99.0823536c.4439331-.5462758.2223351-1.810338-.4058148-2.3140721-.5850012-.4692152-2.298634-.2983983-2.7576149.2747641-.4914617.6137092-.3617987,1.2065595.3895093,1.787094l-.562321-.4234212c-.0572859.0758897-5.7947641,7.5685016-12.0134264,6.0112449l-.1722913.6885147c-.1479199-1.3328833-.2151798-2.659869.3130125-3.9434457.5622343-1.3662748,1.244461-2.6733123,1.9156295-3.9870281.2231157-.4368211.5878633-.6869969.988214-.899358,2.907573-1.5422088,5.9625888-2.6443007,9.2408504-3.0773491.5057723-.0668697,1.0151006-.1361244,1.5082102-.2616677.5219043-.132872.9051256-.4546444,1.0507471-1.0085958.2883809-1.0976253-.4428056-2.410864-1.4670997-2.6246995-1.0912505-.2278859-2.1026651.5062927-2.3302041,1.710337-.0521254.275935-.0486561.5637954-.054814.8465821-.0035993.1670441.0574593.3529522-.1608428.4283648-1.3955032.482485-2.7921773.9617177-4.1883743,1.4419043.8422456-1.4598143,1.8730446-2.6737026,2.6562263-4.0603592.3669159-.6496592.7057309-1.3033514.6416799-2.0786406-.069992-.8494443-.7301023-1.4367872-1.6742135-1.5108122-.8954551-.0701654-1.5880462.4417648-1.8067386,1.335572-.209152.8546048.0820042,1.5861815.9276757,1.8481961.8063823.249959.5501353.6412897.279144,1.0585096-.8079001,1.2437238-1.7658016,2.3649833-2.8691945,3.3580542-.4468386.4021287-.8673109.8470592-1.6040047,1.1518322.2938449-.779539.5078972-1.4148009.7699986-2.0295508.611671-1.4346623.6728164-2.8923083.0180834-4.2970483-.4107584-.8811878-.2070271-1.3200905.6483149-1.6615508.6891219-.2750676,1.0175725-.8301032.7552543-1.5807174-.2469668-.7071619-.670518-1.2685722-1.5085572-1.2926401-.7398162-.0213358-1.3172718.47572-1.5021824,1.2485374-.2140957.8949781-.0477455,1.7582993.2794476,2.585844.678107,1.7149771.6422437,3.4158605.1081537,5.1663107-.5677417,1.8605986-1.3457195,3.6251426-2.3688862,5.2616281-1.6200066,2.591178-2.2117295,5.3069018-1.4130229,8.3006421.1958822.7343087.2401584,1.5124167.3170455,2.2741325.0824379.8165298-.1428895,1.567968-.5491812,2.2792062-.8483168,1.4848796-1.7698346,2.922404-2.7150733,4.3459647-.0760632-2.8866708-.5938044-5.3617592-1.4011841-7.4767835-.3508706-2.23042-.58344-4.4697733-.3804893-6.7419543.2294905-2.5694518,1.3224322-4.8552496,2.4145501-7.1334151,1.4585133-3.0423964,3.2208023-5.929284,4.6097139-9.0091049,2.0105133-4.4580646,2.7191063-9.0149593,1.0082055-13.7277965-1.059984-2.9196286-2.4420439-5.6798454-4.5110139-8.0401019-.2500891-.2853453-.5570304-.7876484-.9314051-.6112807-.3973151.1871657-.1112326.7178732-.0717266,1.0906001.0537299.5067697.1313976,1.0179628.2684761,1.5077766.7310997,2.6125138.6379939,5.2159642.0022984,7.8298657-1.1487966,4.7235485-1.9834532,9.502388-2.4689305,14.3408118-.016132.160626-.0566354.3188668-.1949281.4915918-.0597144-.2877304-.1306604-.573596-.1773217-.8633646-.3895527-2.421662-1.1851369-4.7302701-1.9521867-7.0471177-.1871657-.5655301-.3436719-1.1416413-.542633-1.7027914-1.0675296-3.0108263-1.287523-6.0611153-.7077257-9.2202951.4656592-2.5378383.7818374-5.1100656.7550375-7.7057535-.0070686-.684395-.0534697-1.3648871-.3184766-2.0058732-.1049012-.2536451-.1815282-.6162677-.5123205-.6044723-.2890313.0102776-.3166986.3711657-.3958407.5962762-.2647466.7527825-.3901598,1.5393467-.4841763,2.3296404-.3928918,3.304281-.4784087,6.6260382-.5673948,9.9477955-.012576.4696055.1474428,1.1810172-.3036455,1.3170549-.5318784.1604525-.7488362-.5455819-1.0081622-.9540853-1.6184888-2.5492435-2.9374518-5.2361726-3.8211115-8.1366336-.644412-2.1151544-1.3223455-4.2235437-2.3025369-6.217318-.2263248-.460412-.4696922-.9096356-.8213868-1.2859618-.1663936-.1779722-.3409833-.4481829-.626979-.3153109-.2298807.1068093-.1996983.3897695-.1966627.6141862.0127061.9487514.2926741,1.84451.5516964,2.7452124,1.2383031,4.3064153,3.0794306,8.3414924,5.3764601,12.1852407,2.0064803,3.3575338,4.0553288,6.6952496,5.5750309,10.3191346,1.6652802,3.9710696,2.3397879,8.0407957,1.4241678,12.3172021-.3689974,1.7234768-.3650945,3.4978214-.4632741,5.2629291-.0631402-.0191676-.1384228-.0220731-.1469658-.0473985-1.9968532-5.9343578-4.8970106-11.4675843-7.6310781-17.0700223-3.5823408-7.3405289-7.4480755-14.5346124-11.4562226-21.6516787-.069515-.1234183-.1277549-.2533415-.1999585-.3750686-2.316544-3.9006873-2.6839802-7.9048447-.8439368-12.1265238,3.2948706-7.5595249,1.5435965-14.6002678-2.3957728-21.3638182-.8834429-1.51684-1.7175357-3.075441-2.8868009-4.4052454-.2630988-.2992223-.5644025-.8359142-.9893849-.6067273-.3636634.1961857-.1013453.7348725-.0158718,1.1074259.1075465.4684346.2451888.9367825.4313571,1.3793278.9654037,2.2945143.9594193,4.6445364.420906,7.0226161-.8511355,3.7587952-1.4017478,7.5421787-.9170945,11.4041839.1835663,1.4622428.4382088,2.9155522.6938921,4.5921509-3.0057526-4.5476145-4.9213821-9.3179977-6.2827999-14.3261976-.9493151-3.4924007-2.0593863-6.9169777-4.2185567-9.8823135-2.5806401-3.5443092-6.0045233-5.8167504-10.3461514-6.6083451-2.1243912-.3873844-4.2709423-.624247-6.4303729-.7153146-.53847-.0227235-1.079325-.0151346-1.6180118.0065482-.2134886.0085864-.4947575-.0199915-.5872562.2441046-.0988734.282223.1652661.3987895.3398991.5219043.9273721.6534754,1.8501475,1.3147565,2.7988555,1.9361414,1.9406081,1.270914,3.2961716,2.9756569,4.1275324,5.1535178.9415093,2.4661551,2.068363,4.8526477,3.5330342,7.0626859,1.9294631,2.9113891,4.5079783,5.1428499,7.6181551,6.6374434,3.24461,1.5592515,5.6321867,3.9440528,7.6298205,6.8414349,2.0774264,3.0131247,3.8754052,6.2091219,6.0338817,9.1681264.0664794.0910676.1349536.1894207.1678247.2951459.5775857,1.8589508,1.1498808,3.7195928,1.7826708,5.7724309-1.2155796-1.0081188-2.0395249-2.1155447-2.9259166-3.153976-6.1223041-7.1722272-13.1339921-13.3418865-20.9279945-18.6328731-3.3882366-2.3001084-6.8774716-4.4345171-10.4104625-6.4954646.0070686-.0202951.0173029-.0395494.0242413-.0598878-.0020815-.0088466-.0051171-.0172161-.0071553-.0260193-.1435833-.6231195-.3530389-1.231061-.5309677-1.8463314-.5722517-1.9787264-1.0713458-3.9802197-1.7569116-5.9239934-.8131039-2.3052256-2.0496724-4.3980467-3.2519821-6.5076503.1607127-.1192986.3004799-.2714249.4007844-.4598916.3613651-.6790177.1038605-1.5224341-.5751572-1.8837992s-1.5224341-.1039038-1.8837992.5751138c-.3614084.679061-.1039038,1.5224341.5751138,1.8838426.2994824.1593684.6295376.1921527.9374763.1277549.2209474.4243318.4559453.8412482.6998765,1.2522234,1.6620712,2.8001565,3.0059694,5.7282847,3.7058459,8.9257997.0397662.1817016.0649616.3665689.0970087.5499618-1.3143663-2.051407-2.9545812-3.7898449-4.5050295-5.5986218-.166914-.1946679-.2412859-.4127532-.2887712-.6532585-.0980929-.4969691-.4565524-.6683498-.9082913-.6737271-.4627537-.0055074-.6727297.2976177-.7504841.7120189-.1016922.5417657.0970955.8356107.6413764,1.0011803.3886854.1182145.8112826.1186048,1.1292821.4584605,2.1399595,2.2867518,3.9726307,4.7810945,5.3324874,7.615293-2.020444-1.1691784-4.0529437-2.317975-6.0890427-3.4599633-2.3147226-1.298321-3.798388-3.1672025-4.6338685-5.6334443-.714404-2.1089097-1.0648409-4.2936225-1.4013575-6.4827151-.2329597-1.5153222-.4858675-3.0258308-.8196088-4.524067-1.0113712-4.5405459-3.7878501-7.5048843-8.079738-9.1388546-2.0619015-.7850031-4.2097535-1.1644082-6.3969381-1.3334037-2.1837587-.1687353-4.3720707-.1218138-6.5566967-.0111883-.6094593.0308329-1.4544803.062403-1.5248626.7824011-.0538166.5504822.7668329.6487919,1.2521801.8006147,3.0308612.9478841,6.0922951,1.7893491,9.0538582,2.962387,3.6654292,1.4517483,6.8738289,3.5713693,9.8001358,6.1916456,1.286222,1.1517888,2.0161942,2.5355833,2.2087372,4.1859892.3673929,3.1500297,1.1331417,6.1920792,2.2350601,9.1576319.0271902.073201.0218996.1585878.0464445.3575055-1.3202206-.8097648-2.4230931-1.7615517-3.5542833-2.6687589-2.7513269-2.2063955-5.1248532-4.8257177-7.7668122-7.1541872-.9141457-.8056884-1.4233439-1.9787698-2.3171077-2.8247014-4.0312176-3.8155607-8.7273156-5.7467585-14.3346105-4.968824-2.1351459.2961867-4.2482621.7492265-6.3739977,1.116099-1.616017.2788838-3.2156851.2042083-4.8154834-.1865586-.9345275-.2282329-1.897893-.3409399-2.8510677-.4880358-.2171746-.0334782-.487342-.0548574-.5961895.2056828-.1149187.2749375.0397662.4831355.2493519.6613245.5451482.4633175,1.1711732.8006147,1.7957672,1.1336187,3.6325148,1.936445,7.3812058,3.6318643,11.2035315,5.1455386,2.4708819.9785435,5.0884261,1.0910771,7.7214952.7484026,1.3511836-.1758473,2.7028009-.355424,4.0589281-.4849135,2.8771304-.274634,5.2480547.6437181,6.9792939,3.0328127,1.320264,1.8220033,2.9726213,3.3571869,4.4133547,5.0755899.1219005.1454047.2480509.28721.4018251.4648353-.393629.1062889-.6519576-.1071563-.9268084-.2108433-5.8409918-2.20349-11.6953835-4.3671704-17.7810437-5.8204799-5.182963-1.2377827-10.400792-1.8652388-15.6422551-2.0679293-.369778-1.8750827-.8808843-3.7043715-1.9357078-5.3358699-1.241729-1.9203997-2.7584389-3.5352458-4.9611483-4.3480029-1.2433335-.4588075-2.517153-.5564667-3.775621-.0412406-1.8655857.7637973-2.3061362,2.4291643-1.1208258,4.1268819-.4127099.1598888-.8325317.3114947-1.2437238.4836993-.3035588.1271911-.5634919.2841744-.7890361.4611492-.2255442-.1769748-.4855206-.3339581-.7890794-.4611492-.4111921-.1722046-.8310139-.3238105-1.2437238-.4836993,1.1853104-1.6977177.7447598-3.3630846-1.1208258-4.1268819-1.2584681-.515226-2.5322875-.4175668-3.775621.0412406-2.2027094.812757-3.7194193,2.4276031-4.9611483,4.3480029-1.0548235,1.6314985-1.5659298,3.4607872-1.9357078,5.3358699-5.2414631.2026906-10.4592921.8301466-15.6422551,2.0679293-6.0856602,1.4533095-11.9400519,3.6169899-17.7810437,5.8204799-.2748508.103687-.5331794.3171322-.9268084.2108433.1537742-.1776253.2799246-.3194306.4018251-.4648353,1.4407335-1.718403,3.0930908-3.2535866,4.4133547-5.0755899,1.7312392-2.3890945,4.1021636-3.3074466,6.9792939-3.0328127,1.3561273.1294895,2.7077445.3090662,4.0589281.4849135,2.6330691.3426745,5.2506133.2301409,7.7214952-.7484026,3.8223257-1.5136743,7.5710168-3.2090936,11.2035315-5.1455386.6245939-.333004,1.2506189-.6703012,1.7957672-1.1336187.2095857-.178189.3642706-.386387.2493519-.6613245-.1088475-.2605402-.3790149-.239161-.5961895-.2056828-.9531746.1470959-1.9165402.259803-2.8510677.4880358-1.5997983.3907669-3.1994664.4654424-4.8154834.1865586-2.1257356-.3668725-4.2388518-.8199123-6.3739977-1.116099-5.6072949-.7779345-10.3033929,1.1532633-14.3346105,4.968824-.8937639.8459317-1.4029621,2.019013-2.3171077,2.8247014-2.641959,2.3284695-5.0154853,4.9477917-7.7668122,7.1541872-1.1311902.9072072-2.2340627,1.8589941-3.5542833,2.6687589.0245449-.1989177.0192543-.2843045.0464445-.3575055,1.1019185-2.9655527,1.8676672-6.0076022,2.2350601-9.1576319.192543-1.6504059.9225152-3.0342003,2.2087372-4.1859892,2.9263069-2.6202762,6.1347066-4.7398973,9.8001358-6.1916456,2.9615631-1.173038,6.022997-2.014503,9.0538582-2.962387.4853472-.1518228,1.3059967-.2501325,1.2521801-.8006147-.0703823-.7199981-.9154033-.7515682-1.5248626-.7824011-2.184626-.1106255-4.372938-.157547-6.5566967.0111883-2.1871846.1689955-4.3350366.5484007-6.3969381,1.3334037-4.2918878,1.6339703-7.0683668,4.5983088-8.079738,9.1388546-.3337412,1.4982362-.5866491,3.0087448-.8196088,4.524067-.3365166,2.1890926-.6869536,4.3738054-1.4013575,6.4827151-.8354806,2.4662418-2.3191459,4.3351233-4.6338685,5.6334443-2.036099,1.1419882-4.0685987,2.2907848-6.0890427,3.4599633,1.3598567-2.8341985,3.1925279-5.3285412,5.3324874-7.615293.3179995-.3398558.7405968-.3402461,1.1292821-.4584605.5442809-.1655696.7430686-.4594146.6413764-1.0011803-.0777544-.4144011-.2877304-.7175263-.7504841-.7120189-.4517389.0053773-.8101984.176758-.9082913.6737271-.0474853.2405053-.1218572.4585906-.2887712.6532585-1.5504483,1.8087768-3.1906632,3.5472147-4.5050295,5.5986218.0320471-.1833929.0572425-.3682602.0970087-.5499618.6998765-3.197515,2.0437747-6.1256432,3.7058459-8.9257997.2439312-.4109753.4789291-.8278916.6998765-1.2522234.3079387.0643978.6379939.0316135.9374763-.1277549.6790177-.3614084.9365223-1.2047815.5751138-1.8838426-.3613651-.6790177-1.2047815-.9364789-1.8837992-.5751138s-.9365223,1.2047815-.5751572,1.8837992c.1003045.1884667.2400716.340593.4007844.4598916-1.2023097,2.1096036-2.4388782,4.2024247-3.2519821,6.5076503-.6855659,1.9437738-1.1846599,3.9452671-1.7569116,5.9239934-.1779288.6152703-.3873844,1.2232119-.5309677,1.8463314-.0020382.0088032-.0050738.0171728-.0071553.0260193.0069385.0203384.0171728.0395927.0242413.0598878-3.5329908,2.0609475-7.0222258,4.1953561-10.4104625,6.4954646-7.7940024,5.2909866-14.8056904,11.4606458-20.9279945,18.6328731-.8863917,1.0384313-1.710337,2.1458572-2.9259166,3.153976.63279-2.0528381,1.2050851-3.9134801,1.7826708-5.7724309.0328711-.1057252.1013453-.2040782.1678247-.2951459,2.1584766-2.9590045,3.9564554-6.1550017,6.0338817-9.1681264,1.9976338-2.8973821,4.3852105-5.2821834,7.6298205-6.8414349,3.1101768-1.4945935,5.688692-3.7260542,7.6181551-6.6374434,1.4646712-2.2100382,2.5915249-4.5965308,3.5330342-7.0626859.8313608-2.177861,2.1869244-3.8826038,4.1275324-5.1535178.948708-.6213849,1.8714834-1.282666,2.7988555-1.9361414.174633-.1231148.4387726-.2396814.3398991-.5219043-.0924987-.2640962-.3737676-.2355183-.5872562-.2441046-.5386868-.0216828-1.0795418-.0292717-1.6180118-.0065482-2.1594306.0910676-4.3059816.3279302-6.4303729.7153146-4.3416281.7915946-7.7655112,3.0640358-10.3461514,6.6083451-2.1591704,2.9653359-3.2692416,6.3899128-4.2185567,9.8823135-1.3614179,5.0081999-3.2770474,9.7785831-6.2827999,14.3261976.2556832-1.6765986.5103257-3.1299081.6938921-4.5921509.4846533-3.8620052-.065959-7.6453887-.9170945-11.4041839-.5385133-2.3780797-.5444978-4.7281018.420906-7.0226161.1861683-.4425454.3238105-.9108932.4313571-1.3793278.0854735-.3725534.3477917-.9112402-.0158718-1.1074259-.4249823-.2291869-.7262861.3075051-.9893849.6067273-1.1692652,1.3298044-2.003358,2.8884054-2.8868009,4.4052454-3.9393693,6.7635504-5.6906434,13.8042933-2.3957728,21.3638182,1.8400434,4.221679,1.4726071,8.2258365-.8439368,12.1265238-.0722036.1217271-.1304436.2516502-.1999585.3750686-4.0081471,7.1170663-7.8738817,14.3111497-11.4562226,21.6516787-2.7340674,5.6024379-5.6342249,11.1356645-7.6310781,17.0700223-.008543.0253255-.0838256.028231-.1469658.0473985-.0981796-1.7651077-.0942767-3.5394523-.4632741-5.2629291-.9156201-4.2764063-.2411124-8.3461325,1.4241678-12.3172021,1.5197021-3.623885,3.5685506-6.9616008,5.5750309-10.3191346,2.2970295-3.8437483,4.138157-7.8788254,5.3764601-12.1852407.2590224-.9007023.5389903-1.796461.5516964-2.7452124.0030356-.2244167.033218-.5073769-.1966627-.6141862-.2859958-.132872-.4605854.1373387-.626979.3153109-.3516946.3763262-.595062.8255499-.8213868,1.2859618-.9801914,1.9937742-1.6581249,4.1021636-2.3025369,6.217318-.8836597,2.900461-2.2026227,5.5873901-3.8211115,8.1366336-.259326.4085034-.4762838,1.1145378-1.0081622.9540853-.4510884-.1360377-.2910695-.8474495-.3036455-1.3170549-.0889861-3.3217573-.1745029-6.6435145-.5673948-9.9477955-.0940165-.7902937-.2194297-1.5768579-.4841763-2.3296404-.0791421-.2251105-.1068093-.5859986-.3958407-.5962762-.3307924-.0117954-.4074193.3508272-.5123205.6044723-.2650068.6409861-.311408,1.3214782-.3184766,2.0058732-.0267999,2.595688.2893783,5.1679152.7550375,7.7057535.5797973,3.1591798.3598039,6.2094688-.7077257,9.2202951-.1989611.5611501-.3554674,1.1372614-.542633,1.7027914-.7670497,2.3168475-1.562634,4.6254556-1.9521867,7.0471177-.0466613.2897686-.1176074.5756342-.1773217.8633646-.1382927-.172725-.1787961-.3309658-.1949281-.4915918-.4854773-4.8384238-1.3201339-9.6172633-2.4689305-14.3408118-.6356955-2.6139015-.7288013-5.2173519.0022984-7.8298657.1370785-.4898138.2147462-1.0010068.2684761-1.5077766.039506-.3727268.3255885-.9034344-.0717266-1.0906001-.3743747-.1763677-.6813161.3259354-.9314051.6112807-2.0689701,2.3602564-3.45103,5.1204733-4.5110139,8.0401019-1.7109008,4.7128372-1.0023078,9.2697319,1.0082055,13.7277965,1.3889116,3.0798209,3.1512006,5.9667085,4.6097139,9.0091049,1.0921178,2.2781655,2.1850596,4.5639633,2.4145501,7.1334151.2029507,2.272181-.0296187,4.5115343-.3804893,6.7419543-.8073797,2.1150243-1.3251209,4.5901127-1.4011841,7.4767835-.9452388-1.4235607-1.8667566-2.8610851-2.7150733-4.3459647-.4062918-.7112383-.6316191-1.4626764-.5491812-2.2792062.0768871-.7617158.1211633-1.5398237.3170455-2.2741325.7987066-2.9937403.2069837-5.7094641-1.4130229-8.3006421-1.0231666-1.6364855-1.8011445-3.4010295-2.3688862-5.2616281-.53409-1.7504502-.5699533-3.4513335.1081537-5.1663107.327193-.8275447.4935433-1.6908659.2794476-2.585844-.1849107-.7728174-.7623663-1.2698732-1.5021824-1.2485374-.8380391.0240679-1.2615904.5854782-1.5085572,1.2926401-.2623182.7506142.0661325,1.3056498.7552543,1.5807174.855342.3414603,1.0590733.780363.6483149,1.6615508-.654733,1.4047401-.5935876,2.8623861.0180834,4.2970483.2621013.6147499.4761537,1.2500118.7699986,2.0295508-.7366939-.304773-1.1571662-.7497035-1.6040047-1.1518322-1.1033929-.9930709-2.0612944-2.1143304-2.8691945-3.3580542-.2709913-.4172199-.5272383-.8085506.279144-1.0585096.8456715-.2620146,1.1368277-.9935913.9276757-1.8481961-.2186924-.8938072-.9112835-1.4057375-1.8067386-1.335572-.9441112.074025-1.6042216.6613679-1.6742135,1.5108122-.0640509.7752892.2747641,1.4289814.6416799,2.0786406.7831817,1.3866566,1.8139807,2.6005449,2.6562263,4.0603592-1.396197-.4801867-2.7928711-.9594193-4.1883743-1.4419043-.2183021-.0754127-.1572435-.2613208-.1608428-.4283648-.0061579-.2827867-.0026887-.5706472-.054814-.8465821-.227539-1.2040443-1.2389536-1.938223-2.3302041-1.710337-1.0242941.2138355-1.7554806,1.5270742-1.4670997,2.6246995.1456215.5539515.5288428.8757238,1.0507471,1.0085958.4931096.1255432,1.0024379.194798,1.5082102.2616677,3.2782616.4330483,6.3332774,1.5351402,9.2408504,3.0773491.4003507.2123611.7650983.4625369.988214.899358.6711685,1.3137158,1.3533952,2.6207533,1.9156295,3.9870281.5281923,1.2835767.4609324,2.6105624.3130125,3.9434457l-.1722913-.6885147c-6.2186623,1.5572567-11.9561405-5.9353552-12.0134264-6.0112449l-.562321.4234212c.751308-.5805345.880971-1.1733849.3895093-1.787094-.4589809-.5731624-2.1726137-.7439793-2.7576149-.2747641-.6281499.5037342-.8497478,1.7677964-.4058148,2.3140721.5218176.6421136,1.747935.5332661,2.7620816-.2434542l-.5611068.4225105c.2529946.3360396,6.1967627,8.1023748,13.20754,6.594815-.0276239.142716-.0539034.2860391-.0959246.4239416-.9243799,3.0342003-.055161,5.6535659,1.6610738,8.1895395.6973613,1.0304087,1.3973679,2.0596465,2.094946,3.0905322-.0429319.3981391-.0793156.7972755-.1058553,1.1980165-.296577,4.4773623-.5699533,8.9563724-.8812312,13.4326939-.0733311,1.0540863-.2588056,2.1003234-.4099778,3.2861975-.3399859-.4493104-.3421975-.8287155-.4212529-1.1771143-.4832223-2.1304624-.697795-4.3137007-1.3108536-6.4207457-1.0300184-3.5401895-2.7477276-6.7717898-4.4300505-10.0197823-2.015457-3.8911469-4.0316946-7.7767863-3.9012944-12.3468207.0078492-.2751977.001301-.5943681-.2780599-.8605892-.3725534,1.0083356-.5876898,1.9793335-.6796248,2.9676776-.4052076,4.3539006-.9487947,8.6937073-1.231408,13.0604441-.6657912,10.2885619,2.45475,19.2883866,9.0797474,27.1337772.9497488,1.124642,2.069317,2.1389187,2.7320292,3.4725393,2.47279,4.9759793,3.845136,10.3464549,5.5907292,15.6079963-.41284.0433222-.6526514-.1945378-.9153165-.3394655-2.223178-1.226898-4.2463974-2.7477276-6.1107688-4.4526005-4.2199878-3.8587962-9.1510404-6.5700099-14.2514354-9.0240227-.2715117-.130617-.6506566-.3892491-.8564695-.1936705-.280922.2669149.044016.6262418.1755004.9232524.1140514.2574179.2729861.496839.4273674.7342654,1.239474,1.9060891,2.6269979,3.7038944,4.086075,5.4428094,3.5731473,4.2583663,7.8736649,7.3322895,13.5106218,8.2169466,1.1478859.1801838,2.2716173.5144021,3.4195899.6939788,1.1726477.1834796,1.7898261.8383861,2.2021457,1.928379,1.7795484,4.7038171,4.0313477,9.181006,6.5092982,13.5581505,5.1841339,9.1576319,10.9642838,17.8980873,17.7881123,25.926784.6830073.8036069,1.3659713,1.6073005,2.0489786,2.4109508-.9386472-.3912439-1.7567815-.8956719-2.5508046-1.435573-3.3703267-2.291869-6.524346-4.8276258-9.0892878-8.0349414-1.7158878-2.145597-2.8382748-4.6407203-4.1601433-7.0154174-2.0972011-3.7676418-4.6297054-7.1651153-8.2109621-9.6350432-4.1286166-2.8475117-8.0031978-5.9735169-11.3707491-9.7048617-.1086741-.1204261-.2127947-.3655715-.5162234-.195622.066913.8644487.2540354,1.7215687.5158765,2.5560952.7641442,2.435539,1.5481933,4.8648768,2.3375763,7.2923932,1.7341014,5.3326609,4.6800528,9.8579855,8.9332152,13.5401971,2.8347622,2.4542296,6.0339251,3.9565421,9.829104,3.8072779,1.2073401-.0474853,1.9737393.335259,2.7656375,1.192856,3.1698044,3.4329465,6.6101664,6.5581278,10.7449843,8.8239341,1.5888268.8706934,3.2718002,1.5747763,4.6465746,2.8093066,2.6219241,2.3543587,5.4088975,4.5051596,8.2872855,6.5331926,2.3169776,1.6325393,4.6613623,3.2443931,7.0211851,4.8691266-9.3375122-1.1775046-17.0200218-4.1081914-20.0245167-5.3784549.0400264-.1763677.0771907-.3532557.1201659-.5290596-.4738119-1.0679632-.8511355-2.1711393-1.2496649-3.2672034-.4480528-1.2323187-.931275-2.4484186-1.6874834-3.5330776-.565877-.8117162-1.2273316-1.5317577-2.1281207-1.9737827-.9964101-.4889465-1.8534433-.1178242-2.2148951.9278492-.0592807.1714674-.1228112.3536894-.1225077.5308376.0008239.3871676-.1323516.4336988-.5052519.357202-2.233152-.4582871-3.292182.3844355-3.2414876,2.6449079.0163054.7315767-.1318313,1.2466293-.6885581,1.7576055-.9052557.8308404-.9194363,1.8765138-.1751101,2.8570521.2254141.2969239.4657026.582486.697448.8711704-1.5691822.7320537-1.9481103,2.1219194-.9179618,3.4563639.6949328.9001386,1.6577346,1.3631525,2.7498091,1.5520528,1.9347104.3346953,3.7089682-.1985708,5.41228-1.0681367,1.4540033-.7423747,2.5945605-1.8591676,3.6520726-3.0680255.0049437-.03144.0121424-.0624464.0172161-.0938864,3.5658619,1.4852265,12.370108,4.7461419,22.7503013,5.645153.2838708.2857789.5585482.5814886.8158793.8942842.6133189.0504341,1.1563422.2202102,1.7109442.5843507,3.5872845,2.3554862,7.3743974,4.3496507,11.3105577,6.0570389,1.673086.7257224,3.3610031,1.408773,5.0604554,2.0583022-1.1295423-.1391167-2.2519293-.3501768-3.3648193-.6613679-5.2042555-1.4552175-10.2157512-3.421021-15.1342711-5.6412501-.7308829-.3299251-1.425729-.6447155-1.7887419-1.4535697-.1674344-.3730304-.5226415-.6721226-.9194363-.860329-.7703455-.3653547-1.4205685-.0578496-1.628116.7626264-.2660476,1.0523516.2914598,1.8671468,1.5345765,1.9490644,1.7926882.118041,3.4477775.681663,5.0758935,1.3447655,4.1338204,1.6835371,8.2342928,3.4524177,12.523145,4.7235051-3.6528098.04935-7.3058365.0979194-10.9586897.1495244-.3774103.005334-.6382541-.2014329-.8837898-.4467518-.5525638-.5521301-1.1523092-.57893-1.7535725-.109498-.5101523.3982692-.4862145.9229489-.2359519,1.4582531.333828.7141004.8677879.9058628,1.601663.6162244,1.06805-.4216432,2.1746519-.5793203,3.3291294-.5863021,5.1911591-.0312232,10.3822749-.0821343,15.5730003-.1531671,3.7026368,1.3151468,7.4587434,2.4757389,11.2594731,3.5074052.8356107.2268018,1.6543955.5158331,2.4809427.7760264-8.6732388.489597-17.2745775,1.5095112-26.0540619,1.5199623.3663087.6500929.8152289.8787594,1.2345737,1.0825774,2.8555777,1.3878709,5.6700015,2.8947801,8.7333434,3.7809984,5.0014782,1.4469347,9.9595909,1.6195296,14.7557767-.8328786,2.0507566-1.0485788,3.9652586-2.3197097,5.8622409-3.6149517.687127-.4691718,1.3400387-.6756785,2.2064822-.5454518,4.6452303.6981853,9.2961415,1.0987528,13.9517361,1.1195249-.0451435.1521697-.0868612.3045996-.1487438.4555117-.3553806.8665303-.5851313,1.7733038-.716659,2.7071374-.308806,2.1926052.4522593,3.6894971,2.439095,4.6579364,1.124642.5481838,2.3069168.9607203,3.5208918,1.2545218,1.8098176.437992,3.4681593,1.1979298,5.0786689,2.1220929,3.6607457,2.1005836,9.2132699,1.447802,12.3841585-1.3622852,1.2101155-1.0723865,1.7351421-2.431983,1.8301127-3.9827349.0369908-.6029979.2892482-.9933745.7442395-1.3448089.6962772-.5377761,1.3381306-1.146585,2.038831-1.6780731,1.0688306-.8106755,1.8601216-1.7641103,2.4299449-2.8296017,4.887687.0187773,9.770257-.3863436,14.6465822-1.1192213.8664436-.1302267,1.5193552.07628,2.2064822.5454518,1.8969823,1.2952421,3.8114844,2.5663729,5.8622409,3.6149517,4.7961857,2.4524082,9.7542984,2.2798134,14.7557767.8328786,3.063342-.8862182,5.8777658-2.3931275,8.7333434-3.7809984.4193448-.2038181.8682649-.4324846,1.2345737-1.0825774-8.7794844-.0104511-17.3808231-1.0303653-26.0540619-1.5199623.8265473-.2601933,1.6453321-.5492246,2.4809427-.7760264,3.8007297-1.0316663,7.5568362-2.1922583,11.2594731-3.5074052,5.1907255.0710328,10.3818412.1219439,15.5730003.1531671,1.1544775.0069819,2.2610794.164659,3.3291294.5863021.7338751.2896385,1.267835.097876,1.601663-.6162244.2502626-.5353043.2742003-1.059984-.2359519-1.4582531-.6012633-.469432-1.2010087-.4426321-1.7535725.109498-.2455357.2453189-.5063795.4520858-.8837898.4467518-3.6528532-.051605-7.3058798-.1001744-10.9586897-.1495244,4.2888523-1.2710874,8.3893246-3.039968,12.523145-4.7235051,1.628116-.6631025,3.2832053-1.2267245,5.0758935-1.3447655,1.2431167-.0819175,1.8006241-.8967127,1.5345765-1.9490644-.2075475-.8204761-.8577705-1.1279812-1.628116-.7626264-.3967947.1882065-.7520019.4872986-.9194363.860329-.363013.8088541-1.0578591,1.1236446-1.7887419,1.4535697-4.9185199,2.2202291-9.9300156,4.1860326-15.1342711,5.6412501-1.1128899.3111911-2.2352769.5222512-3.3648193.6613679,1.6994523-.6495291,3.3873693-1.3325798,5.0604554-2.0583022,3.9361603-1.7073882,7.7232732-3.7015527,11.3105577-6.0570389.5546019-.3641405,1.0976253-.5339166,1.7109442-.5843507.2573311-.3127957.5320085-.6085053.8158793-.8942842,10.3801933-.8990111,19.1844394-4.1599265,22.7503013-5.645153.0050738.03144.0122724.0624464.0172161.0938864,1.0575121,1.2088579,2.1980693,2.3256507,3.6520726,3.0680255,1.7033118.8695659,3.4775697,1.402832,5.41228,1.0681367,1.0920745-.1889003,2.0548763-.6519142,2.7498091-1.5520528,1.0301485-1.3344445.6512204-2.7243102-.9179618-3.4563639.2317455-.2886844.4720339-.5742465.697448-.8711704.7443262-.9805383.7301457-2.0262117-.1751101-2.8570521-.5567268-.5109762-.7048635-1.0260288-.6885581-1.7576055.0506943-2.2604723-1.0083356-3.1031949-3.2414876-2.6449079-.3729003.0764968-.5060759.0299656-.5052519-.357202.0003036-.1771482-.063227-.3593703-.1225077-.5308376-.3614518-1.0456734-1.218485-1.4167957-2.2148951-.9278492-.9007891.442025-1.5622437,1.1620665-2.1281207,1.9737827-.7562083,1.084659-1.2394306,2.3007589-1.6874834,3.5330776-.3985293,1.0960641-.7758529,2.1992402-1.2496649,3.2672034.0429753.1758039.0801395.352692.1201659.5290596-3.004495,1.2702635-10.6870045,4.2009503-20.0245167,5.3784549,2.3598228-1.6247335,4.7042074-3.2365873,7.0211851-4.8691266,2.878388-2.028033,5.6653613-4.1788339,8.2872855-6.5331926,1.3747745-1.2345303,3.0577478-1.9386133,4.6465746-2.8093066,4.1348178-2.2658063,7.5751799-5.3909875,10.7449843-8.8239341.7918982-.857597,1.5582974-1.2403413,2.7656375-1.192856,3.7951789.1492642,6.9943418-1.3530483,9.829104-3.8072779,4.2531624-3.6822117,7.1991139-8.2075362,8.9332152-13.5401971.789383-2.4275164,1.573432-4.8568541,2.3375763-7.2923932.2618412-.8345265.4489635-1.6916465.5158765-2.5560952-.3034287-.1699496-.4075494.0751959-.5162234.195622-3.3675513,3.7313448-7.2421325,6.85735-11.3707491,9.7048617-3.5812567,2.4699279-6.1137611,5.8674014-8.2109621,9.6350432-1.3218685,2.3746972-2.4442555,4.8698204-4.1601433,7.0154174-2.5649418,3.2073156-5.7189611,5.7430724-9.0892878,8.0349414-.7940231.539901-1.6121574,1.044329-2.5508046,1.435573.6830073-.8036503,1.3659713-1.6073439,2.0489786-2.4109508,6.8238285-8.0286967,12.6039784-16.7691521,17.7881123-25.926784,2.4779505-4.3771445,4.7297497-8.8543333,6.5092982-13.5581505.4123196-1.0899929,1.029498-1.7448994,2.2021457-1.928379,1.1479727-.1795767,2.271704-.513795,3.4195899-.6939788,5.6369569-.8846571,9.9374745-3.9585803,13.5106218-8.2169466,1.4590771-1.7389149,2.846601-3.5367203,4.086075-5.4428094.1543813-.2374264.3133161-.4768475.4273674-.7342654.1314843-.2970106.4564223-.6563375.1755004-.9232524-.2058129-.1955786-.5849578.0630535-.8564695.1936705-5.100395,2.4540127-10.0314476,5.1652265-14.2514354,9.0240227-1.8643714,1.704873-3.8875909,3.2257026-6.1107688,4.4526005-.2626651.1449276-.5024766.3827877-.9153165.3394655,1.7455932-5.2615414,3.1179392-10.632017,5.5907292-15.6079963.6627122-1.3336206,1.7822805-2.3478973,2.7320292-3.4725393,6.6249974-7.8453906,9.7455386-16.8452153,9.0797474-27.1337772-.2826132-4.3667368-.8262003-8.7065435-1.231408-13.0604441-.091935-.9883441-.3070714-1.959342-.6796248-2.9676776-.2793608.2662211-.285909.5853915-.2780599.8605892.1304002,4.5700344-1.8858374,8.4556739-3.9012944,12.3468207-1.6823229,3.2479925-3.4000321,6.4795928-4.4300505,10.0197823-.6130587,2.107045-.8276314,4.2902833-1.3108536,6.4207457-.0790554.3483988-.081267.7278039-.4212529,1.1771143-.1511723-1.1858742-.3366467-2.2321113-.4099778-3.2861975-.3112779-4.4763215-.5846543-8.9553317-.8812312-13.4326939-.0265397-.400741-.0629234-.7998775-.1058553-1.1980165.6975781-1.0308857,1.3975847-2.0601235,2.094946-3.0905322,1.7162348-2.5359736,2.5854537-5.1553392,1.6610738-8.1895395-.0420212-.1379024-.0683007-.2812255-.0959246-.4239416,7.0107773,1.5075598,12.9545455-6.2587754,13.20754-6.594815l-.5611068-.4225105c1.0141466.7767203,2.240264.8855678,2.7620816.2434542ZM267.4196416,93.9675178c.2167844-3.5438756.7458006-7.047985,1.293334-10.5527015.7923318-5.0718605,2.5812472-9.9405534,3.0412689-15.0778092.006765-.0754994.0679972-.1461852.1339562-.2805317.3134028.1999585.4363007.4552515.5895979.6916371,2.7389677,4.2237172,3.0446948,8.7530314,1.6423399,13.4705087-.8108489,2.7275626-2.0352751,5.2788442-3.4708046,7.7355457-.9901655,1.694552-2.0239566,3.3565798-3.2615225,5.166701.0143106-.5437606.0132265-.8491841.0318303-1.15335ZM222.8437658,31.6450305c-1.9343201-2.638403-3.1289541-5.6512242-4.2496932-8.7004724,2.1551374.9784568,11.8933472,11.9958634,14.1323536,15.8209645-2.1629432-.7020881-8.4496461-5.1658336-9.8826604-7.1204922ZM234.2555387,39.3021279c-5.5484478-8.309055-12.1613897-15.4686195-19.9161029-21.7090513.2049022-.0964883.2532114-.1400273.2990488-.1375555.4248956.0226802.8493142.0535998,1.2739496.0815706,7.1639444.4716003,11.9845883,4.2475249,14.7500091,10.7052181,1.3927278,3.2524158,2.4233533,6.6549197,3.4872835,10.0344398.0827415.2629253.2448852.5147924.1058119,1.0253783ZM242.583501,36.6331955c-.225761,3.1130389-.6605873,6.2099892-.6904662,9.3386397-.0112317,1.185267-.0845628,2.3698836-.1335225,3.6583173-2.3547924-3.2493368-2.4450361-17.2171616-.2016064-20.4831074.2469668.2924139.3307924.6536488.4443667.9980146.6978383,2.1168023.7399896,4.2983927.5812284,6.4881358ZM243.7282213,31.6757333c3.3082272,5.3167891,2.6198859,12.7822108-.5825727,19.1747689-.4396832-6.4955079.865186-12.742618.5825727-19.1747689ZM179.5793941,1.4423605c3.4030677-.3499599,8.3011191.9879104,11.016626,2.9074862,1.6478907,1.1648419,2.9863682,2.5786019,3.5867207,4.6131832-4.3187311-3.579392-9.3659166-5.7315372-14.6033468-7.5206694ZM164.9903146,11.4967485c5.2128853.4743323,10.4786331.6756785,15.6277277,1.8385256-5.4427226,1.4512713-10.6800227,1.1458911-15.6277277-1.8385256ZM182.875609,12.6857016c-3.7251002-1.2522668-7.6071403-1.1037832-11.4436899-1.3765958-2.8645977-.203688-5.6959774-.6539524-8.4840349-1.3493189-.67763-.1689955-1.3690068-.3326137-2.1293349-.8639717,2.4953835.1660033,4.7688221-.0994806,7.0331973-.4821381,1.4561282-.2460127,2.9148584-.4763271,4.3962253-.4991808,3.9676437-.0612755,7.1649418,1.8786821,10.2988396,3.9768372.1591515.1065491.2797945.2705576.4183908.4077662-.0298789.0622296-.0597577.1244157-.0895932.1866019ZM107.7040413,13.3352741c5.1490945-1.162847,10.4148424-1.3641933,15.6277277-1.8385256-4.947705,2.9844167-10.185005,3.2897969-15.6277277,1.8385256ZM105.775272,12.0913335c3.1338977-2.0981551,6.3311959-4.0381127,10.2988396-3.9768372,1.481367.0228536,2.9400971.253168,4.3962253.4991808,2.2643752.3826576,4.5378138.6481414,7.0331973.4821381-.7603281.531358-1.4517049.6949762-2.1293349.8639717-2.7880575.6953665-5.6194372,1.1456309-8.4840349,1.3493189-3.8365496.2728126-7.7185897.124329-11.4436899,1.3765958-.0298355-.0621862-.0597144-.1243724-.0895932-.1866019.1385963-.1372086.2592392-.3012171.4183908-.4077662ZM97.7260634,4.3498467c2.715507-1.9195758,7.6135584-3.2574462,11.016626-2.9074862-5.2374302,1.7891322-10.2846157,3.9412774-14.6033468,7.5206694.6003526-2.0345812,1.9388301-3.4483413,3.5867207-4.6131832ZM65.4783177,31.6450305c-1.4330144,1.9546585-7.7197172,6.418404-9.8826604,7.1204922,2.2390064-3.8251011,11.9772162-14.8425078,14.1323536-15.8209645-1.1207391,3.0492482-2.3153731,6.0620693-4.2496932,8.7004724ZM54.1723567,38.2767496c1.0639302-3.3795202,2.0945558-6.7820241,3.4872835-10.0344398,2.7654207-6.4576932,7.5860646-10.2336178,14.7500091-10.7052181.4246354-.0279708.849054-.0588904,1.2739496-.0815706.0458374-.0024718.0941466.0410672.2990488.1375555-7.7547132,6.2404318-14.3676551,13.3999963-19.9161029,21.7090513-.1390733-.5105859.0230705-.762453.1058119-1.0253783ZM46.3198109,30.1450597c.1135744-.3443658.1974-.7056008.4443667-.9980146,2.2434297,3.2659458,2.153186,17.2337706-.2016064,20.4831074-.0489597-1.2884337-.1222908-2.4730502-.1335225-3.6583173-.0298789-3.1286505-.4647052-6.2256008-.6904662-9.3386397-.1587613-2.1897431-.1166099-4.3713335.5812284-6.4881358ZM44.5938622,31.6757333c-.2826132,6.4321509,1.022256,12.679261.5825727,19.1747689-3.2024587-6.3925581-3.8907999-13.8579798-.5825727-19.1747689ZM17.6727496,89.9541669c-1.4355296-2.4567014-2.6599557-5.0079831-3.4708046-7.7355457-1.4023549-4.7174773-1.0966279-9.2467915,1.6423399-13.4705087.1532972-.2363856.2761951-.4916785.5895979-.6916371.065959.1343465.1271911.2050323.1339562.2805317.4600217,5.1372557,2.2489371,10.0059487,3.0412689,15.0778092.5475334,3.5047165,1.0765496,7.0088259,1.293334,10.5527015.0186038.3041659.0175197.6095894.0318303,1.15335-1.2375659-1.8101212-2.2713571-3.472149-3.2615225-5.166701ZM11.0644045,140.5298391c-3.172363-5.674338-4.1357285-11.8396607-4.1068037-18.2290965.0126194-2.7842847.1882932-5.5623682.3881216-8.3386736.0075022-.1039038.040807-.2060297.1616667-.3215989,1.1955447,5.4733387,1.8641546,11.042602,3.310222,16.4633383,1.4376111,5.3888626,2.8348489,10.7895207,4.2656951,16.1911328-1.5713071-1.7736074-2.8711893-3.7121773-4.0189017-5.7651021ZM15.7212134,144.733348c-2.3923036-7.5869319-3.9968721-15.3671441-5.6435485-23.1364715-.3512609-1.6574311-.6654443-3.3227547-.9966703-4.9843922l.2221617-.1016055c.3820504.6886015.7566854,1.3814094,1.1472355,2.0651973,3.5382381,6.1948113,4.9134462,13.0012501,5.6780674,19.9856612.3520848,3.215425.7071619,6.4315871,1.2808881,9.6180873.0290549.1613632.0343889.3271063.0507377.4908112-.840511-1.2091615-1.3074711-2.5691916-1.7388716-3.9372878ZM18.9265776,143.9108337c-.4223804-1.015144-.2875569-2.0593863-.1655263-3.1029347.2876003,1.022256.2677822,2.0604704.1655263,3.1029347ZM8.1081321,159.9562583c4.0667773,1.6297205,7.6072704,4.1100128,11.0310668,6.6654141-4.5062437-.203688-9.3346501-3.0984681-11.0310668-6.6654141ZM17.9338102,180.7789612c2.9957785,2.9351534,6.3677097,5.0563356,9.4833505,7.5050578,2.7998963,2.2004978,4.835605,5.086865,6.6294641,8.1399727.8429394,1.4346623,1.6179251,2.9024558,2.277992,4.4979609-8.224232-4.766437-14.8005733-10.9355758-18.3908066-20.1429914ZM28.5154365,200.1028642c-4.1355984-3.0120406-8.5249286-9.6322244-9.6713835-14.7530013,2.3468565,3.4731897,4.5573717,7.0514542,7.731079,9.8737271,3.158486,2.808873,6.6143295,5.2334405,9.9709961,7.7946963-3.0276088-.0738082-5.6412067-1.1751195-8.0306915-2.9154221ZM40.5366687,216.0815492c.8501381-.6862597,2.219145-.4157888,2.889663.6457997-.9803215-.2905058-1.890651-.4180005-2.82275-.3541664-.0768437.0052472-.1795334.0323941-.2140523-.068214-.0424549-.1238086.0747622-.1650059.1471393-.2234193ZM39.2726498,219.8220008c.0467481.0581966.082091.0817007.0850398.1088475.1151355,1.0450229.6344813,1.8949008,1.2816253,2.6867122.0882489.1079368.2425435.2500457.1335225.3882083-.0954042.1208164-.284955.0585868-.4216865.0078925-.4686081-.1737657-.9131049-.3987895-1.2690493-.7573792-.6134056-.6178723-.5411153-1.5881763.1905482-2.4342814ZM47.4346089,225.7246584c-.0674334.2739835-.2834372.4131435-.4846533.5191289-1.7042225.8975367-3.4709781,1.5913854-5.4472327,1.4636738-1.0749885-.0694716-2.0658911-.3574622-2.7094358-1.3243837-.3043394-.4572463-.4781918-.9441546-.2937148-1.5030064.2408089-.7290615.6538657-.9827933,1.4971087-.8650992,2.024824.2824832,4.0579307.428148,6.1024427.3964912.507984-.0079359,1.0157078-.0317869,1.5235616-.0483526.0134867.0394626.0271035.0788386.0406335.1183446-.4771511.2938016-.954519.5877766-1.5507085.9548659.8373453-.1586312,1.5124601-.460412,2.3612538-.4961885-.5196059.5707339-1.3119378.4121028-1.7811963.9287598.2738534.0207287.463144-.2076776.7419411-.1442338ZM48.5732146,222.780962c-.5750705-.1160028-.9601565-.4808805-1.5133707-.6668753.1710771.438469.4814876.6676559.8612397.980972-.35447-.0549008-.5967966-.1253698-.836131-.11674-.1348235.0049003-.4998746-.3005666-.4106717.213185.0164355.0945803-.1311374.0483959-.1963158.0239811-.248181-.0927155-.4861711-.2177818-.7398162-.2888579-.3226396-.0904605-.6044289-.4733783-1.0103738-.1268008-.073201.0625331-.3337846-.0869913-.5046015-.1478765-.3073316-.1096715-.5999623-.2842611-1.0746849-.1830893.6698676.2734631,1.2664907.4127532,1.8481527.7732944-3.4426604-.4807938-5.2465369-1.9573905-5.0631874-5.6642338.018864-.3808362.2071138-.5090247.54298-.5626246,1.6017497-.2561169,3.0210172.189811,4.1745407,1.2748169,1.3762923,1.2948084,2.5609088,2.7764789,3.7750139,4.2247146.0488296.0581966.0755861.1349102.147226.2660476v.0000867ZM48.7871802,219.5628917l-.7934593-.9883007c.194321.6840914.5575508,1.1379986.780363,1.7473712-.5827028-.4553382-.8840933-1.0498364-1.3677059-1.5081235.2447985.5330059.489597,1.0660118.7404233,1.611984-.1719444.0158718-.2448852-.1098883-.3124487-.1980938-1.0046495-1.3100297-2.2517558-2.3675852-3.4994259-3.4310818-.587473-.5008287-.9539552-1.136741-.7441961-1.9772086.0828282-.3321801.2668282-.5084176.5798407-.6000057.7580297-.2220316,1.3658845.0800094,1.9060457.5606731,1.2221711,1.0876078,1.8828452,2.5353231,2.5152015,3.9969588.1035136.2394645.1813113.4900306.2710346.7354363-.0252387.0167825-.0504341.0336083-.0756729.0503908ZM249.8225112,224.8800711c.184477.5588518.0106246,1.0457601-.2937148,1.5030064-.6435447.9669215-1.6344473,1.2549121-2.7094358,1.3243837-1.9762545.1277115-3.7430102-.5661372-5.4472327-1.4636738-.2012161-.1059854-.4172199-.2451454-.4846533-.5191289.2787971-.0634438.4680877.1649625.7419411.1442338-.4692585-.5166571-1.2615904-.3580259-1.7811963-.9287598.8487938.0357766,1.5239086.3375574,2.3612538.4961885-.5961895-.3670893-1.0735574-.6610643-1.5507085-.9548659.01353-.039506.0271468-.0788819.0406335-.1183446.5078539.0165656,1.0155777.0404167,1.5235616.0483526,2.0445119.0316568,4.0776187-.114008,6.1024427-.3964912.843243-.1176941,1.2562998.1360377,1.4971087.8650992ZM249.0494336,219.8220008c.7316635.8461051.8039538,1.8164092.1905482,2.4342814-.3559444.3585897-.8004412.5836135-1.2690493.7573792-.1367316.0506943-.3262823.1129239-.4216865-.0078925-.109021-.1381626.0452736-.2802715.1335225-.3882083.647144-.7918115,1.1664898-1.6416894,1.2816253-2.6867122.0029489-.0271468.0382918-.050651.0850398-.1088475ZM247.7854148,216.0815492c.0723771.0584134.1895942.0996107.1471393.2234193-.034519.1006081-.1372086.0734612-.2140523.068214-.932099-.0638341-1.8424285.0636606-2.82275.3541664.670518-1.0615885,2.0395249-1.3320594,2.889663-.6457997ZM247.8456495,217.0152961c.3358661.0535998.524116.1817884.54298.5626246.1833495,3.7068433-1.620527,5.1834401-5.0631874,5.6642338.581662-.3605411,1.1782852-.4998313,1.8481527-.7732944-.4747226-.1011718-.7673533.0734179-1.0746849.1830893-.1708169.0608852-.4314004.2104096-.5046015.1478765-.4059449-.3465774-.6877342.0363403-1.0103738.1268008-.2536451.0710761-.4916352.1961424-.7398162.2888579-.0651784.0244148-.2127514.0705991-.1963158-.0239811.0892029-.5137516-.2758482-.2082847-.4106717-.213185-.2393344-.0086297-.4816611.0618393-.836131.11674.3797521-.3133161.6901626-.5425029.8612397-.980972-.5532142.1859948-.9383003.5508725-1.5133707.6668753v-.0000867c.0716399-.1311374.0983964-.2078511.147226-.2660476,1.2141051-1.4482357,2.3987217-2.9299062,3.7750139-4.2247146,1.1535235-1.0850059,2.572791-1.5309338,4.1745407-1.2748169ZM239.7302651,218.7770647c.6323564-1.4616356,1.2930304-2.9093509,2.5152015-3.9969588.5401612-.4806637,1.148016-.7827047,1.9060457-.5606731.3130125.091588.4970125.2678256.5798407.6000057.2097591.8404676-.1567231,1.4763799-.7441961,1.9772086-1.2476701,1.0634966-2.4947764,2.1210521-3.4994259,3.4310818-.0675635.0882055-.1405044.2139656-.3124487.1980938.2508263-.5459722.4956248-1.0789781.7404233-1.611984-.4836125.4582871-.7850031,1.0527853-1.3677059,1.5081235.2228122-.6093726.586042-1.0632798.780363-1.7473712l-.7934593.9883007c-.0252387-.0167825-.0504341-.0336083-.0756729-.0503908.0897233-.2454056.1675211-.4959717.2710346-.7354363ZM254.2754587,196.4239917c1.7938591-3.0531077,3.8295678-5.9394749,6.6294641-8.1399727,3.1156408-2.4487221,6.487572-4.5699043,9.4833505-7.5050578-3.5902333,9.2074156-10.1665747,15.3765544-18.3908066,20.1429914.6600669-1.5955051,1.4350526-3.0632986,2.277992-4.4979609ZM261.7469515,195.2235901c3.1737073-2.8222729,5.3842225-6.4005374,7.731079-9.8737271-1.1464549,5.1207768-5.5357851,11.7409607-9.6713835,14.7530013-2.3894848,1.7403026-5.0030828,2.841614-8.0306915,2.9154221,3.3566665-2.5612557,6.8125101-4.9858233,9.9709961-7.7946963ZM280.2139514,159.9562583c-1.6964167,3.5669461-6.524823,6.4617262-11.0310668,6.6654141,3.4237964-2.5554014,6.9642895-5.0356936,11.0310668-6.6654141ZM146.5167231,7.7738166c.1438869-.6888617.6155305-1.0886052,1.2044346-1.3794579,1.2453283-.6151402,2.4432581-.319474,3.597432.252691,2.1217026,1.0518746,3.5343352,2.8283875,4.7603224,4.7782758.1447542.2302277.2848683.5036474.1905048.8276314-.3265425-.101432-.385563-.4511751-.6814028-.5938044.1761075.815836,1.0911204,1.1263333,1.2869159,2.0283366-.8569899-.5455819-1.3748178-1.262371-2.1463776-1.9282055.3970549.7370841.7149677,1.3272892,1.0327071,1.917234-.0376413.032741-.0753259.0653519-.1129239.0981362-.5156163-.321382-1.026766-.6503097-1.5477162-.9628018-2.0968975-1.2576875-4.2882018-2.3250003-6.5528806-3.2457808-.9431572-.3834381-1.2186585-.8935037-1.0310158-1.7922545ZM153.977548,19.4400151c.0160453.0324808.0320905.0649616.0480924.0974857-.2398548.2002187-.4704728.4128833-.7211256.5987047-1.5300665,1.1337921-3.0811219,2.2361443-4.9975753,2.6294697-.8469724.1738091-1.6569541.1222041-2.3084346-.5617139-.2690398-.2823531-.3539062-.5749837-.240592-.9683092.2864728-.9954561,1.0467141-1.4340118,1.9547452-1.600362,1.9283356-.3530823,3.8525949-.7003535,5.6771134-1.4541768.1228112-.0508244.2736366-.1372953.4420684-.0177799-.5866924.4147047-1.1593778.8196088-1.7320632,1.2245996.7750724-.1845204,1.4431619-.6192166,2.3189724-.741334-.5956691.497186-1.243507.7492699-1.8544841,1.3408192l1.4132831-.5474033ZM145.5683187,18.8116484c.3715993.1319613.75391.2524308,1.1625435.3510007-.5881235.3081556-1.2208701.3627961-1.7887853.2353882.2551195-.1794466.4650955-.3743747.6262418-.5863889ZM144.8466293,17.7596437c.0446231-.0191676.0917181-.021596.1404176.0207287.0326543.0284044.0467481.0576762.0522988.0872515-.065135-.0323507-.1282319-.0729408-.1927165-.1079802ZM148.9345256,18.2790761c-1.0600707.2482677-2.0825001.215917-3.047687-.0812237.238337-.7537799.027407-1.6709611-.643935-2.7728796-.2220749-.3645741-.3697346-.6994862-.4344794-1.0468442,1.8863144-2.2274278,4.300214-2.2971162,7.4507208-1.0167485-.8180042.024675-1.5188782-.1886401-2.3759548-.3069847.4306632.389119.8380825.3837417,1.2218676.4543842.2132284.0393325.5724685.0407202.6108037.1493076.2124044.6018704.7334848.3744181,1.1215631.4740721.3050766.0784483.6262852.091588.9386906.1443205.082091.0137902.2624483.0544238.1888136.1424124-.4000905.4782352.1606693.3808362.2973142.4667.2424568.1523432.5354777.2245901.9351779.3801424-.580708.0967052-1.0392553.1479199-1.4789819.4991808.6839614.1389866,1.3010964-.0078925,1.9657601.2165675-.1527768.0929757-.2264982.1562461-.311885.1872524-2.1241311.7712996-4.2377676,1.5949413-6.4377884,2.1103408ZM145.5475899,10.8381126c.5831798-.1578506,1.1779816-.1244157,1.7670592-.0234608.171901.0294452.4053377.0786217.4316606.2608437.0300523.2082847-.2147462.2628819-.3707754.321729-.8835729.3333943-1.7073014.7509611-2.3806382,1.3890417.0971388-.5585916.0192977-1.0592901-.2171313-1.4866576.2070271-.2146161.4616262-.3781042.7698251-.4614961ZM144.1610634,15.2683366c.1830893.2855621.3627961.5863021.5353043.9214311.208675.4054245.090634.6508301-.2248503.9075541-.1015621.0826981-.2068103.1518661-.3104539.2269753-.1036436-.0751091-.2089352-.1442772-.3104973-.2269753-.3154843-.256724-.4335253-.5021296-.2248503-.9075541.1725081-.3351289.3522583-.635869.5353476-.9214311ZM144.7647985,18.483935c-.1574603.2372529-.3655282.4316606-.6037351.5880801-.2382069-.1564195-.4463182-.3508272-.6037785-.5880801.2053358-.0951006.4078963-.1956653.6037785-.3060306.1958822.1103653.3983992.21093.6037351.3060306ZM142.7744935,10.8381126c.3081989.0833919.562798.24688.7698251.4614961-.2364289.4273674-.3142701.928066-.2171313,1.4866576-.6733368-.6380806-1.4970653-1.0556474-2.3806382-1.3890417-.1560292-.058847-.4008277-.1134443-.3707754-.321729.0263229-.182222.2597596-.2313985.4316606-.2608437.5890775-.100955,1.1838793-.1343898,1.7670592.0234608ZM133.9033344,18.6465991c.8758105.1221174,1.5439001.5568136,2.3189724.741334-.5726854-.4049908-1.1453707-.8098949-1.7320632-1.2245996.1684318-.1195154.3192571-.0330445.4420684.0177799,1.8245185.7538232,3.7487778,1.1010945,5.6771134,1.4541768.9080311.1663502,1.6682725.604906,1.9547452,1.600362.1133142.3933255.0284478.6859562-.240592.9683092-.6514806.683918-1.4614622.735523-2.3084346.5617139-1.9164535-.3933255-3.4675089-1.4956776-4.9975753-2.6294697-.2506528-.1858214-.4812708-.398486-.7211256-.5987047.0160019-.0325242.0320471-.0650049.0480924-.0974857l1.4132831.5474033c-.6109771-.5915494-1.258815-.8436333-1.8544841-1.3408192ZM141.5912213,19.1626491c.4086335-.0985699.7909441-.2190394,1.1625435-.3510007.1611464.2120141.3711223.4069423.6262418.5863889-.5679152.127408-1.2006618.0727674-1.7887853-.2353882ZM143.2827377,17.8676239c.0055508-.0295753.0196446-.058847.0522988-.0872515.0486995-.0423248.0957945-.0398963.1404176-.0207287-.0644846.0350394-.1275814.0756295-.1927165.1079802ZM143.0791798,15.4249729c-.671342,1.1019185-.882272,2.0190997-.643935,2.7728796-.9651869.2971407-1.9876163.3294914-3.047687.0812237-2.2000208-.5153995-4.3136573-1.3390413-6.4377884-2.1103408-.0853868-.0310064-.1591082-.0942767-.311885-.1872524.6646637-.2244601,1.2817987-.077581,1.9657601-.2165675-.4397266-.3512609-.8982739-.4024756-1.4789819-.4991808.3997002-.1555522.6927212-.2277992.9351779-.3801424.1366448-.0858638.6974047.0115352.2973142-.4667-.0736347-.0879887.1067226-.1286222.1888136-.1424124.3124054-.0527325.633614-.0658723.9386906-.1443205.3880782-.099654.9091586.1277983,1.1215631-.4740721.0383351-.1085873.3975753-.109975.6108037-.1493076.3837851-.0706425.7912043-.0652651,1.2218676-.4543842-.8570766.1183446-1.5579505.3316597-2.3759548.3069847,3.1505067-1.2803677,5.5644064-1.2106792,7.4507208,1.0167485-.0647448.347358-.2124044.6822701-.4344794,1.0468442ZM132.0526665,12.2529568c-.0943634-.323984.0457506-.5974037.1905048-.8276314,1.2259873-1.9498883,2.6386199-3.7264012,4.7603224-4.7782758,1.1541739-.572165,2.3521037-.8678313,3.597432-.252691.5889041.2908527,1.0605477.6905963,1.2044346,1.3794579.1876427.8987509-.0878586,1.4088164-1.0310158,1.7922545-2.2646788.9207806-4.4559831,1.9880933-6.5528806,3.2457808-.5209503.3124921-1.0320999.6414198-1.5477162.9628018-.0375979-.0327844-.0752826-.0653952-.1129239-.0981362.3177393-.5899449.6356521-1.1801499,1.0327071-1.917234-.7715598.6658346-1.2893877,1.3826236-2.1463776,1.9282055.1957954-.9020033,1.1108084-1.2125006,1.2869159-2.0283366-.2958397.1426293-.3548602.4923724-.6814028.5938044ZM32.83742,156.415982c-.4152684-2.1527089-.5004384-4.3272741-.3545133-6.6305482,3.0663776,5.3675268,5.4320981,10.7877427,5.3588103,16.9671158-.0436691,3.6834693-1.2093783,10.0682216-2.2254763,11.9511535-.268823-1.1784153-.2983549-2.304922-.359934-3.4253142-.2160471-3.9338185-.0764101-7.8925289-.9702607-11.7757399-.5406382-2.3489814-.9918567-4.7192553-1.448626-7.086667ZM34.076894,174.5456847c.004987.1014754-.0235475.2045986-.0612321.5040811-2.6452114-6.5608598-3.9091002-13.1181203-2.7851087-20.0061298.1749366.1695159.1504351.455902.1551185.6976649.0283177,1.4577327.3570719,2.8547104.7305359,4.2570219,1.268659,4.7634448,1.719227,9.6425888,1.9606863,14.5473619ZM111.9898579,246.5799289c-.1644855.1101918-.3425444.1997417-.5103691.30512-1.2003582.7536931-2.3871431,1.5300231-3.6015084,2.260429-4.7772784,2.8736611-9.8543427,2.896905-15.0539148,1.5051313-2.780165-.7441527-5.3719067-1.9653264-7.903804-3.3152091-.0941032-.0501306-.1696894-.1348668-.2471836-.3392486,8.1164686-.3160914,16.1853652-1.3272458,24.3281133-1.1209559-4.44744,1.3324063-8.9514288,2.3563535-13.5707698,2.8346755,5.8164469.2212944,11.307392-1.7091662,17.0265266-2.480856-.1552486.1176507-.3055103.2427169-.4670903.350914ZM109.2491556,241.6407669c.3166118-.2998294.5960594-.7099373.7819675-1.2047815l-.2524308.6554702c.3925449.1511723,9.5463607,3.5937893,14.6963225-1.3963705.0521254.1356908.1056818.2712081.1430196.4104115.7089399,2.6426529,2.3898751,4.3143946,4.6341287,5.5221683.0029055-.210453.0008673-.4225105-.0084129-.6385576.0252387.5872128.003556,1.1503578-.0908942,1.7021843.0332614-.1901145.0575461-.3816168.072247-.574897-.3980523-.0168692-.7963648-.0388555-1.1950243-.0695583-6.5659336-.5059458-12.8258799-1.97465-18.7809231-4.4060693ZM129.146698,246.7254636c-.0336517.1895508-.0778845.3782343-.133349.5651398.0554645-.1869055.0989168-.3753721.133349-.5651398ZM152.3698573,253.6935259c-.1795334.9440679-.577976,1.7499298-1.3613311,2.3774726-2.0382239,1.6329295-4.3871186,2.3153297-7.4757427,2.408132-1.2625878.0056375-3.0239661-.2186924-4.5517342-1.1823182-1.9275117-1.2157964-3.9983898-1.9951186-6.2076908-2.4670224-.7262861-.1551619-1.402485-.4465784-2.0459863-.817267-1.7169286-.9889946-2.3205336-3.3821221-1.3004893-5.0938468.2661343-.4466217.406205-.0971822.545235.0618393.728758.8336592,1.4419477,1.6808485,2.1623361,2.5218365,1.6761216,1.95661,3.7123074,3.0510695,6.3684469,2.6452982.3004799-.0459241.5546887.0455338.8094612.1837398,3.550684,1.9260373,7.01893,1.664543,10.4285893-.3808362.5821824-.3492661,1.1792392-.6910733,1.8069988-.9423766.7307961-.2925006.9663578-.0743719.8219071.685349ZM145.7936894,241.9101971c1.4200481.5807514,2.1019279,2.5158086,1.5435098,3.9604016-.1109724.2870365-.2599764.5742465-.452823.8114127-.3310526.4071591-.7168324,1.09047-1.2461956.7815772-.4152251-.2423267.0993505-.8449343.2803149-1.2383898.6501362-1.4136734.8508753-2.8108678-.124806-4.3150017ZM145.5005383,245.2529433c-.0626198-.1607994-.1479199-.284131-.1544681-.4114523-.0747622-1.4574726-1.3196135-2.2678445-2.9360208-2.0951629-.9943719.1062456-1.8345793.5740731-2.5479859,1.2469762-.5511761.5198661-.6472741,1.1748159-.3476182,1.871787.1284921.298832.2877737.5843507.4600217.9300608-1.1136272-.3974018-1.4345755-2.0647203-.7788018-3.6399303.7291049-1.7514476,3.0792138-2.3007589,5.3011775-1.2391704.9965402.4761537,1.5846637,2.34265,1.0036955,3.3368918ZM141.0213981,245.4330404c-.2790573.0162187-.6036484.4257195-.8193919.0161753-.1668706-.3166986.0114485-.6796682.2834372-.9141023.2529078-.218042.459588-.6150969.9209107-.2830903.5743333.4134037,1.2115032.7474919,1.6631553,1.309943.2268885.2825265.5159199.6107169.2921537.9863059-.221728.3721197-.6595032.2828734-1.0142333.2397247-.7629734-.0927589-1.1684846-.6173519-1.0785011-1.3556936-.0843893,0-.1662201-.0039896-.2475305.0007372ZM142.2329013,244.1357601c-.1414584-.0791855-.3705152-.1575037-.3060306-.3465341.0683875-.2006524.3027349-.2093255.51167-.2143992,1.2747735-.0310064,1.9719614.9736432,1.5458515,2.5424351-.3653113-1.0164016-.9961065-1.558601-1.7514909-1.9815018ZM139.7648381,241.3515188c-1.9406081,1.2163601-2.6085242,3.0221447-2.469234,5.2181325.01353.2134452.1274947.446058-.0839557.6503964-.3028216-.0549441-.4901607-.2858223-.612625-.5190856-1.1526561-2.1956408-1.6451153-4.4849079-.6000924-6.8458582.9941985-2.246075,2.8782145-3.3511157,5.2508735-3.6608325.7613688-.0993938,1.5307603.0292284,2.2580872.2918501.8677879.3133594,1.0172689.7620627.5261975,1.5578204-.4100212.6644902-1.0129324,1.1458911-1.6434674,1.5807608-.8621937.5946717-1.7383078,1.1705661-2.6257837,1.7268159ZM137.9378044,250.2034236c.4808371.4899439.9553429.9976677.8205628,1.6705275.0104945,1.2719114-.5789734,1.7492359-1.8197917,1.5820618-1.9518397-.2628819-3.9079293-2.1060043-4.2731973-4.0293962-.2845213-1.4982362.4389894-2.5609088,1.4968051-3.4878907.3282772-.2876437.5088947-.1334791.6357822.1740693.6796682,1.6468932,1.9262541,2.8541466,3.1398388,4.0906284ZM138.2250577,247.46554c.0330879-.4941937.1126637-.7242913.3193872-.7478388-.0542503.0076757-.0999576.0292284-.1380759.0660891.1134876-.0128362.2270186-.028231.3405496-.0416743-.076757-.0244148-.1414584-.0323941-.1970097-.0256724.1421523-.0132699.3420674.0663059.6328767.2339571,1.6838407.9707811,3.3982541,1.8327146,5.4278483,1.7340146,2.7259581-.1325251,4.8566373-2.9228376,4.0673844-5.4137111-.5609333-1.7703116-2.067062-2.3890945-3.6972161-2.7478577-.7418977-.1632713-1.5144549-.1870356-2.5338487-.3039925,1.0730804-.7653585,1.9838002-1.421219,2.9025426-2.0657177.2310516-.162057.5013057-.0754994.746798-.0272769,1.3003158.2555965,2.5044902.7470582,3.527787,1.599408,1.059507.8825322,1.556823,2.0726562,1.3554768,3.4110903-.3933688,2.6147688-1.5381758,4.8821796-3.6787424,6.5010154-2.2918256,1.7331907-4.8302277,1.7986293-7.4201481.7409003-1.1024822-.4502644-1.7385246-1.6743003-1.6556097-2.9127335ZM145.8884431,237.1622772c.0997841-.4382088.7961046-.1654395,1.2282423-.1282319,1.2215206.1051181,2.3178449.5113231,3.1999868,1.4020948.2902456.293021.5292331.5961461.3225095,1.1428989-1.1654923-.8264172-2.4488956-1.1916418-3.7002951-1.6394344-.4293189-.1536008-1.162717-.2839576-1.0504436-.7773274ZM150.012593,237.1896842c-1.0878247-.7636239-2.3089984-1.0693076-3.6142145-1.038518-.8392534.0198181-1.6432505-.1010417-2.4066142-.4338289-2.4461636-1.0661853-4.5891153-.4238982-6.5715711,1.1424652-.6896422.5448881-1.3501428,1.128198-2.0573481,1.6485411-.3004365.2210342-.7072053.6142296-1.0517445.3327004-.3742013-.3057704-.1231148-.7992703.0721603-1.1756399,1.149794-2.2167599,2.8594806-3.8363762,5.2928513-4.4828697,3.2177667-.854865,6.3023144-.4767174,9.1123583,1.4236474,1.1524393.7794089,1.9819788,1.8199218,2.5280811,3.3760076-.5803611-.3503502-.9576413-.5493981-1.3039585-.7925053ZM134.2588885,241.0590182c.005811.1702965-.0054641.3424143.0149611.5108027.2020401,1.6667547.0352128,3.144609-1.4807598,4.2816536-.7968419.5976639-1.1825784,1.5797634-1.0866104,2.6600858.0186472.2098025.0073721.451045-.2429771.6416799-.661021-.6674391-.8033467-1.5368749-.943374-2.3936479-.3965345-2.4268659.8556455-5.1552958,2.828691-6.2123743.7913344-.4239416.8799302-.374288.9100693.5118001ZM153.3412888,250.4408933c-2.8227066,2.8026717-6.1914287,4.4561132-10.3200887,4.0282687-.8284987-.0858638-1.589087-.3997002-2.3316352-.7575527-.3689107-.1777554-.6607174-.4487466-.8336592-.8201292-.1698628-.364791-.3285374-.7908574-.1400273-1.1479727.2083714-.3947132.6675692-.2115805,1.011111-.1748065.8727749.093366,1.7389583.328017,2.6102154.3406363,2.3210974.0336083,4.2344285-.9233392,5.7686581-2.6381428,1.4091633-1.5750799,2.2697092-3.4412293,2.8200179-5.465663.3727702-1.3712185.0788819-2.7005459-.2206439-4.0323017-.1106255-.4918086-.2175649-.9844412-.3261956-1.4766835.1034702-.0362536.2069404-.0724638.3104106-.1087174.8807542,2.2780354,2.6062692,4.143621,3.3066227,6.4452473.6417233,2.1088664-.0894631,4.2535961-1.6547858,5.8078171ZM154.8637663,242.127285c-1.5566496-2.1115117-2.4067009-4.4453585-3.7622211-6.5218308,2.6152025.3434551,5.1471865,2.2635946,3.7622211,6.5218308ZM155.3212294,249.4512916c0-.2176517-.0268433-.3108442.0039029-.3774537.8666604-1.8766873.8514824-3.840626.6105869-5.8352675-.1337393-1.1070356.0348225-2.2011483.1985275-3.2975159.0941466-.6307085.3425444-.5275418.7066415-.2516069,1.3811926,1.0467141,2.0241735,2.4403526,1.7922979,4.1536385-.3082856,2.2782088-1.4223898,4.1092322-3.3119567,5.6082056ZM160.2920048,246.0468363c-.383655.0295319-.7669196.0514749-1.1500108.0681273-.0000434.0000867-.0000867.0002168-.0001301.0003036.0755428-.2109734.1383361-.4284516.1993514-.6467537-.0000434.0001301-.0000434.0003036-.0000867.0004337,2.1049201-1.1954579,3.6835126-2.8309027,4.3629206-5.3634504.0373377-.1392034.0908942-.2747207.1430196-.4104115,5.1499619,4.9901598,14.3037776,1.5475428,14.6963225,1.3963705l-.2524308-.6554702c.1859081.4948442.4653556.9049522.7819675,1.2047815-5.9550432,2.4314193-12.2149895,3.9001235-18.7809231,4.4060693ZM158.8500572,246.8128019c.0555513-.1215536.1083705-.2445383.1584577-.3688239-.0509545.1238954-.1018657.2477907-.1584577.3688239ZM203.6490054,246.9961514c-.0774942.2043818-.1530804.2891181-.2471836.3392486-2.5318973,1.3498826-5.123639,2.5710563-7.903804,3.3152091-5.199572,1.3917738-10.2766364,1.3685298-15.0539148-1.5051313-1.2143653-.7304058-2.4011501-1.5067358-3.6015084-2.260429-.1678247-.1053783-.3458836-.1949281-.5103691-.30512-.16158-.108197-.3118416-.2332633-.4670903-.350914,5.7191346.7716898,11.2100797,2.7021504,17.0265266,2.480856-4.6193411-.4783219-9.1233298-1.5022692-13.5707698-2.8346755,8.1427481-.2062899,16.2116447.8048645,24.3281133,1.1209559ZM255.4846635,156.415982c-.4567693,2.3674118-.9079878,4.7376856-1.448626,7.086667-.8938506,3.883211-.7542135,7.8419213-.9702607,11.7757399-.0615791,1.1203922-.091111,2.2468989-.359934,3.4253142-1.0160981-1.8829319-2.1818072-8.2676842-2.2254763-11.9511535-.0732878-6.1793731,2.2924327-11.599589,5.3588103-16.9671158.1459251,2.3032741.0607551,4.4778393-.3545133,6.6305482ZM256.2058758,159.9983229c.3734641-1.4023116.7022182-2.7992892.7305359-4.2570219.0046835-.2417629-.0198181-.528149.1551185-.6976649,1.1239915,6.8880095-.1398972,13.4452699-2.7851087,20.0061298-.0376847-.2994824-.0662192-.4026057-.0612321-.5040811.2414593-4.9047731.6920273-9.7839171,1.9606863-14.5473619ZM266.6543265,155.9798548c-1.8729145,10.0729484-5.7458478,19.3818394-10.9188367,28.178193-.9449352,1.6067368-1.991606,3.1536291-2.9913552,4.7281452.4202121-2.0667584.9205638-4.0756672,1.2880867-6.1109857.7792788-4.3149583,1.989828-8.5004271,3.5557144-12.5946982.801005-2.0942956,1.4130662-4.2532058,1.7386547-6.4839293.6460599-4.4267547.2835673-8.8359897-.13916-13.2545049-.3021277-3.157532-1.0970615-6.2605968-1.2636286-9.4332633-.3272798.3592835-.6784106.7003969-1.0456734,1.0284572-.1226378,1.4480189-.4543408,2.8747886-1.061762,4.2860335-.9646232,2.2410879-1.946289,4.4728089-3.0411388,6.6515372-3.5252284,7.0149838-4.7019524,14.2754599-2.4930417,21.9514213.6585058,2.2881829,1.1101145,4.6357332,1.6617676,6.9548358.3021711,1.2700467.2374264,2.5359736-.0146142,3.8026811-.5176111,2.601499-1.4654518,5.059935-2.4547066,7.5090474-1.2690926,3.141877-3.301679,5.8026133-5.2346548,8.5357267-1.6010125,2.2637247-3.3027632,4.4375961-5.0879491,6.5375725.0535564-.1947547.1062889-.3897695.1629243-.58344.5783229-1.9769918,1.2304973-3.933992,1.6943785-5.942207.5501353-2.3817224.6288871-4.8113203.7455838-7.2366684.1996116-.0144841.3991365-.0679104.5848711-.173202.6691737-.3792317.9042149-1.2291963.5249399-1.8984134-.379275-.6691737-1.2292397-.9041716-1.8984134-.5248965-.6692171.379275-.9042149,1.2291963-.5249399,1.8984134.1672609.2951025.4282347.4997879.7227301.6105869-.0411105.4766741-.0663926.9546057-.0809201,1.4322772-.0990035,3.2547575-.5352175,6.4469385-1.6594259,9.5210352-.0638774.1746764-.1417186.3441923-.2130983.5161801-.0090634-2.436363-.4610625-4.7833062-.7995739-7.1414811-.0364271-.2538185.0177365-.4777582.1066792-.7062079.1837398-.4720773-.02693-.8089842-.405251-1.0557775-.3876446-.2528211-.727457-.1096281-1.0153175.1983974-.3764129.4027358-.366222.7573792.0043799,1.1890398.2646599.3082423.6210813.5352175.7072053.9925939.5862154,3.1123451.795671,6.2350978.4058581,9.3923696-.0317869.2573745-.0882055.5032571-.1342164.7539533-2.3294669,2.649071-4.7971832,5.1756776-7.3910498,7.5916588-.2128381.1982673-.3928918.4675673-.8634513.5527372,1.365581-2.7470337,1.4959812-5.5819694,1.09498-8.4608777-.1209031-.8678746.036774-1.5892604.4997012-2.3209673,2.3110365-3.6522894,2.8547104-7.7806892,3.1583125-11.9675457.0158284-.2178685.0896366-.509415-.1497412-.6196936-.2929776-.1348668-.4481395.1794466-.6176121.3390752-1.5516191,1.4618958-2.6191921,3.2629536-3.5880651,5.1363884-1.1889097,2.2987207-1.462503,4.6822645-.7766335,7.1840227.2699505.9847014.5877332,1.9747368.6949762,2.9824653.4018251,3.7760547.1124035,7.2690625-3.1358925,10.0213001-3.6362008,3.0809484-7.44517,5.884314-11.4114693,8.4393251-.2410257.0212925-.4809672.0441895-.7236842.0628367l.029185.3793184c-3.9520754,2.5048372-8.0575348,4.767738-12.3138629,6.7974189-8.3600962,3.9865944-17.0277842,7.060561-26.1970815,8.5911045-.4729446.0789687-.9508763.1281452-1.4264662.1911987.3180429-.261581.6557304-.3973585.9971473-.5229451,2.635194-.9692199,5.2813161-1.9144153,7.7539326-3.26716,3.163473-1.7307188,6.4301561-3.2380618,9.7626246-4.6130097,3.8938355-1.6065199,7.4821608-3.6842065,10.3073392-6.896856,1.3892586-1.5796767,2.6250898-3.2776545,3.8678596-4.971079,1.9209201-2.6175008,3.9321273-5.1481405,6.74963-6.887359.7488796-.4623201,1.4985831-.9261145,2.1498902-1.5221306.2138355-.1957521.5861287-.4088937.382831-.7558181-.164312-.2803582-.519736-.1302267-.7905539-.0751091-2.5050974.5101089-4.9770201,1.1468018-7.3982051,1.9715711-4.192494,1.4282442-7.637713,3.9062381-10.4784163,7.3001122-2.2099948,2.6403545-4.0608362,5.5340505-6.096198,8.2968259-1.360724,1.847112-2.658568,3.7754476-4.695144,4.9866472-1.9723517,1.1729512-3.9833854,2.2234381-6.0301957,3.1609578.0266698-.2419364.0133566-.4801433-.0589338-.6865633-.2479642-.7077257-1.7922112-1.4699185-2.4850625-1.2265944-.741811.2604968-.945629.832098-.6155305,1.7223493l-.2529512-.6569013c-.0887259.034042-8.9227208,3.3536743-13.3742805-1.2593787l-.5106293.4929361c.5800575-1.2091181,1.2254669-2.3705341,2.3530144-3.1799519,1.2002281-.8614999,2.4709687-1.609252,3.7357681-2.3685826.4205157-.2524742.8624539-.2716418,1.3144964-.2398548,3.2831619.2306613,6.4584304.9128447,9.4689532,2.2808108.4645317.2109734.9332699.42186,1.4180966.5763714.5131011.1635748,1.0085958.0934094,1.4253387-.2994824.8256799-.7785416.9005289-2.27977.1447108-3.0033674-.8052114-.7710394-2.0519274-.6835711-2.8823342.2175216-.1902446.2065067-.3397257.4525628-.4946274.6892519-.0914579.1397671-.1380759.3298383-.3632298.2782767-1.4393458-.3293613-2.8779543-.6621485-4.3166929-.9938082,1.487308-.7926788,3.0044516-1.2768984,4.4029036-2.0387877.6551666-.3569418,1.2886939-.7321838,1.644725-1.4237775.3902899-.7577695.1411548-1.6055225-.6206477-2.1680603-.7225567-.5335263-1.5811511-.4658327-2.239787.1766712-.6298412.6143597-.7701287,1.3891718-.1913288,2.0590827.5517832.6389479.1272345.8353071-.323507,1.0458034-1.3437681.6275428-2.7500259,1.071736-4.211835,1.3301947-.5919397.1046411-1.1841829.2595428-1.9705737.1281452.6619317-.5058591,1.1798463-.9314485,1.7275965-1.3142795,1.2784162-.8934169,2.1019279-2.0976781,2.2900043-3.6360707.1179976-.9650134.5231619-1.2295433,1.4296319-1.0664888.7302324.131441,1.3027009-.1655696,1.4775074-.9412925.1647891-.730666.1026029-1.4311497-.5956257-1.8952043-.6163545-.4097177-1.3693971-.2937148-1.9353608.2640528-.6554268.6459731-.9713014,1.4664926-1.131754,2.3417827-.332527,1.8139373-1.263325,3.2380184-2.6430431,4.4403281-1.4665793,1.2780259-3.0606967,2.3632487-4.7950149,3.2100476-2.7460363,1.3408192-4.685647,3.3316012-5.5927241,6.2942918-.222552.7266764-.5968833,1.4102475-.9348744,2.0972011-.3622758.7363903-.9512232,1.2546085-1.6724356,1.642947-.1290125.0694716-.2621013.1303135-.3915909.1987443.0169993-.1571567.0413707-.3106274.0526024-.4706029.0532095-.7573359-.4424153-1.7131558-.7142739-2.399112-.0755428-.1905482-.1603224-.3390318-.2670017-.470256-.1014754-.124806-.2227254-.2339571-.3746349-.3487457-.2395079-.180921-.3511742-.4505246-.3024747-.7219496-.2870365-.2542088-.6059034-.4758067-.9848749-.6331803-.4987905-.2071138-.8303634-.544411-1.1077294-.9976677-.5374725-.8782824-1.1487099-1.7429479-2.0966807-2.1889625-2.6894443-1.2653198-5.3016112-2.7724893-8.2329484-3.4027641-4.6006505-.989168-8.6290493-.0399397-11.6250446,3.8847288-.8531737,1.1176168-1.2994051,2.4504134-1.9616404,3.6655593-.4220335.7743351-.8378223,1.5429027-1.5086439,2.0699241-.2314853.864362-.5446279,1.7009267-.9191327,2.5116022-.4582871-.2317888-.921301-.4535602-1.3739939-.6973179-.7212124-.3883384-1.3101598-.9065567-1.6724356-1.642947-.337991-.6869536-.7123224-1.3705246-.9348744-2.0972011-.9070771-2.9626906-2.8466877-4.9534726-5.5927241-6.2942918-1.7343182-.846799-3.3284356-1.9320217-4.7950149-3.2100476-1.3797181-1.2023097-2.3105162-2.6263908-2.6430431-4.4403281-.1604525-.8752901-.4763271-1.6958096-1.131754-2.3417827-.5659637-.5577676-1.3190064-.6737704-1.9353608-.2640528-.6982286.4640547-.7604148,1.1645383-.5956257,1.8952043.1748065.7757228.747275,1.0727335,1.4775074.9412925.90647-.1630544,1.3116342.1014754,1.4296319,1.0664888.1880764,1.5383927,1.011588,2.7426538,2.2900043,3.6360707.5477502.382831,1.0656649.8084205,1.7275965,1.3142795-.7863908.1313976-1.378634-.0235041-1.9705737-.1281452-1.4618091-.2584586-2.868067-.7026519-4.211835-1.3301947-.4507415-.2104963-.8752901-.4068555-.323507-1.0458034.5787999-.6699109.4385124-1.4447231-.1913288-2.0590827-.6586359-.6425039-1.5172303-.7101975-2.239787-.1766712-.7618025.5625378-1.0109376,1.4102908-.6206477,2.1680603.3560311.6915937.9895583,1.0668357,1.644725,1.4237775,1.398452.7618892,2.9155956,1.2461089,4.4029036,2.0387877-1.4387386.3316597-2.8773472.6644469-4.3166929.9938082-.2251539.0515616-.2717719-.1385095-.3632298-.2782767-.1549017-.2366891-.3043827-.4827452-.4946274-.6892519-.8304068-.9010926-2.0771228-.9885609-2.8823342-.2175216-.7558181.7235975-.6809691,2.2248258.1447108,3.0033674.4167429.3928918.9122376.4630573,1.4253387.2994824.4848268-.1545114.9535649-.3653981,1.4180966-.5763714,3.0105228-1.3679661,6.1857912-2.0501494,9.4689532-2.2808108.4520424-.0317869.8939807-.0126194,1.3144964.2398548,1.2647994.7593307,2.53554,1.5070827,3.7357681,2.3685826,1.1275475.8094179,1.7729569,1.9708339,2.3530144,3.1799519l-.5106293-.4929361c-4.4515598,4.6130531-13.2855546,1.2934207-13.3742805,1.2593787l-.2529512.6569013c.3300985-.8902512.1262805-1.4618525-.6155305-1.7223493-.6928513-.2433241-2.2370983.5188687-2.4850625,1.2265944-.0722904.20642-.0856036.4446269-.0589338.6865633-2.0468103-.9375197-4.057844-1.9880066-6.0301957-3.1609578-2.036576-1.2111996-3.33442-3.1395353-4.695144-4.9866472-2.0353618-2.7627754-3.8862032-5.6564714-6.096198-8.2968259-2.8407033-3.3938742-6.2859223-5.8718681-10.4784163-7.3001122-2.421185-.8247693-4.8931077-1.4614622-7.3982051-1.9715711-.2708178-.0551176-.6262418-.2052491-.7905539.0751091-.2032977.3469243.1689955.560066.382831.7558181.6513071.596016,1.4010106,1.0598105,2.1498902,1.5221306,2.8175027,1.7392185,4.8287099,4.2698581,6.74963,6.887359,1.2427697,1.6934245,2.478601,3.3914023,3.8678596,4.971079,2.8251784,3.2126496,6.4135037,5.2903361,10.3073392,6.896856,3.3324686,1.3749479,6.5991516,2.8822909,9.7626246,4.6130097,2.4726166,1.3527448,5.1187387,2.2979402,7.7539326,3.26716.3414169.1255866.6791044.2613641.9971473.5229451-.4755899-.0630535-.9535216-.11223-1.4264662-.1911987-9.1692973-1.5305435-17.8369853-4.60451-26.1970815-8.5911045-4.2563281-2.0296809-8.3617875-4.2925817-12.3138629-6.7974189l.029185-.3793184c-.2427169-.0186472-.4826585-.0415442-.7236842-.0628367-3.9662993-2.5550111-7.7752685-5.3583767-11.4114693-8.4393251-3.248296-2.7522376-3.5377177-6.2452454-3.1358925-10.0213001.107243-1.0077285.4250257-1.9977639.6949762-2.9824653.6858694-2.5017582.4122762-4.8853019-.7766335-7.1840227-.968873-1.8734348-2.0364459-3.6744926-3.5880651-5.1363884-.1694725-.1596286-.3246345-.473942-.6176121-.3390752-.2393778.1102786-.1655696.4018251-.1497412.6196936.3036022,4.1868565.847276,8.3152562,3.1583125,11.9675457.4629272.7317068.6206043,1.4530926.4997012,2.3209673-.4010012,2.8789083-.270601,5.713844,1.09498,8.4608777-.4705595-.0851699-.6506132-.35447-.8634513-.5527372-2.5938666-2.4159812-5.0615829-4.9425878-7.3910498-7.5916588-.0460108-.2506962-.1024294-.4965788-.1342164-.7539533-.3898129-3.1572718-.1803573-6.2800246.4058581-9.3923696.086124-.4573764.4425454-.6843516.7072053-.9925939.3706019-.4316606.3807928-.786304.0043799-1.1890398-.2878605-.3080255-.6276729-.4512185-1.0153175-.1983974-.378321.2467933-.5889908.5837002-.405251,1.0557775.0889427.2284497.1431063.4523894.1066792.7062079-.3385114,2.3581749-.7905105,4.7051181-.7995739,7.1414811-.0713797-.1719877-.1492208-.3415037-.2130983-.5161801-1.1242084-3.0740966-1.5604224-6.2662777-1.6594259-9.5210352-.0145275-.4776715-.0398096-.9556031-.0809201-1.4322772.2944954-.110799.5554692-.3154843.7227301-.6105869.379275-.6692171.1442772-1.5191384-.5249399-1.8984134-.6691737-.379275-1.5191384-.1442772-1.8984134.5248965-.379275.6692171-.1442338,1.5191817.5249399,1.8984134.1857346.1052915.3852595.1587179.5848711.173202.1166967,2.4253481.1954485,4.8549461.7455838,7.2366684.4638812,2.008215,1.1160556,3.9652152,1.6943785,5.942207.0566354.1936705.1093679.3886854.1629243.58344-1.785186-2.0999764-3.4869366-4.2738478-5.0879491-6.5375725-1.9329757-2.7331134-3.9655621-5.3938497-5.2346548-8.5357267-.9892548-2.4491124-1.9370955-4.9075485-2.4547066-7.5090474-.2520405-1.2667075-.3167853-2.5326345-.0146142-3.8026811.5516531-2.3191025,1.0032618-4.6666529,1.6617676-6.9548358,2.2089107-7.6759614,1.0321867-14.9364375-2.4930417-21.9514213-1.0948499-2.1787283-2.0765157-4.4104492-3.0411388-6.6515372-.6074212-1.4112449-.9391242-2.8380146-1.061762-4.2860335-.3672628-.3280603-.7183936-.6691737-1.0456734-1.0284572-.1665671,3.1726665-.9615008,6.2757314-1.2636286,9.4332633-.4227273,4.4185152-.7852199,8.8277502-.13916,13.2545049.3255885,2.2307236.9376498,4.3896338,1.7386547,6.4839293,1.5658864,4.0942711,2.7764356,8.2797399,3.5557144,12.5946982.367523,2.0353184.8678746,4.0442272,1.2880867,6.1109857-.9997492-1.5745162-2.04642-3.1214085-2.9913552-4.7281452-5.172989-8.7963536-9.0459223-18.1052445-10.9188367-28.178193-1.3995796-7.5274778-1.518271-15.1315825-1.2313646-22.7540741.0032091-.0852133.0157417-.1708169.0101475-.255293-.1351704-2.0309385.0564186-3.9501674.5282791-5.7752496.0464011-4.7405478.3405496-9.4755014.3470978-14.2169598.000477-.3399425.1987009-.5635786.4465784-.6634928.1435833-1.3270724.320905-2.6498515.5310978-3.968034,2.6534075-6.9373161,8.5327344-9.6429791,11.209039-10.5398653.2387273.2387273.4730747.4819213.7037794.7288447,1.1530464.18851,2.2827188.4769342,3.4180288.7438058,1.2764214.3000462,2.5586104.5617573,3.8803055.5230752.989038-.0289248,1.9537478-.1879896,2.816939-.6996163.9548225-.565877,1.1137139-1.4861805.4367344-2.3612972-.1110158-.1434966-.2286665-.2964902-.3770634-.3932387-.3243743-.2113637-.2903757-.3482687-.0221164-.6183493,1.6064332-1.6174914,1.481367-2.965119-.4376884-4.1607071-.6210379-.3869941-.9708678-.7930257-1.0935055-1.5386962-.1993514-1.2124572-1.0664888-1.7969814-2.2945143-1.7112477-.3719029.025976-.7424615.0706425-1.1108518.106419.24688-1.7138496-.7085063-2.7920905-2.3891813-2.6609965-1.1337488.0884223-2.0484582.6404223-2.8046232,1.4507075-1.3396484,1.4354429-1.8651954,3.2119991-2.0704879,5.1133613-.1592816,1.4759463.0837389,2.9043639.4539071,4.3143512-2.3639425.8924629-6.3838417,2.9169833-9.3478332,7.0100835.8747264-3.2170728,2.1674966-6.3049597,3.4092689-9.3989612,2.5398765-6.3283338,5.5513967-12.4250522,9.2048136-18.1922358.8847438-1.3968042,2.2283385-2.3465963,3.5072751-3.3191987,6.641433-5.0508716,13.9846939-8.7215914,22.0095745-11.0209192,2.405877-.689382,4.7768881-1.451358,6.8222239-2.977695,2.6959925-2.011901,4.6430186-4.6327844,6.2501891-7.5454745,1.2189187-2.2091275,2.3949922-4.4436239,3.9118322-6.4764705.6528683-.8750299,1.6254707-1.4254688,2.2424323-2.3240896.1843903-.2685628.5611935-.5689993.3129691-.874206-.2440613-.3001329-.6499628-.0794023-.9216479.1217704-3.029647,2.2431261-6.5310243,3.6430092-9.7946284,5.4664436-4.5720726,2.5545341-7.7017205,6.3511874-9.5793618,11.1248664-.8242489,2.0955098-2.1013208,3.0342437-4.1742805,3.7207203-6.7328042,2.2296394-12.9087948,5.5549527-18.31457,10.2136263-.2269753.1955352-.4112354.4818346-.8494443.4731614,1.1323177-2.2005411,2.3536649-4.2979157,3.797087-6.2547424,6.0211323-8.1627396,13.1013812-15.2981062,21.0273016-21.6100044,4.9362565-3.9311299,10.164363-7.4296885,15.6032261-10.624298,1.0418138-.6118878,1.9739562-.7383417,3.1773066-.3535159,8.2928363,2.6521499,16.0205327,1.14884,23.2910697-3.3759642.2869932-.178666.5504388-.3970983.8142748-.6104134.8526533.4279745,1.9142852.2990054,2.6296432-.4095008.8967561-.8881697.9036946-2.3351044.0155249-3.2318605-.8881263-.8967127-2.3350611-.9036946-3.2318171-.0155249-.8334857.8255065-.8879529,2.128164-.1798369,3.0286929-2.0936017,1.2590318-4.2731106,2.3452086-6.5609465,3.2071855-4.8814858,1.8393062-9.839425,2.4666321-14.9279379.9018732-.2168277-.0666962-.4314872-.1408513-.6448456-.218042-.0508244-.0183436-.0922385-.0629234-.1542512-.1070262.0424115-.0663926.0698619-.1693424.1294028-.1936705,3.8702013-1.5810644,7.3499392-3.9279208,11.1324988-5.6787613,8.1336413-3.7647797,16.6267397-6.5324987,25.2419987-8.9221137,3.8669489-1.07256,7.8553647-1.5356606,11.8838068-1.4985397.1584577.0014744.316872.0094537.4752864.0154381.101432.314617.2014329.6297111.2944954.9471902,1.1301494.8213434,2.1815904,1.7369201,3.2506811,2.632462,1.2019628,1.0068612,2.4306821,1.9758643,3.8630893,2.6453415,1.0719529.5009588,2.187835.8498346,3.3848975.7675701,1.3241235-.0909375,1.9887005-.9884742,1.7362696-2.2871855-.0413707-.2129682-.084823-.4395965-.1912854-.6227292-.2327862-.4001772-.1228546-.528149.3088928-.6723394.249959-.0834787.4754598-.1748932.6881244-.2705576.2126646.0956644.4381221.187079.6880811.2705576.4317474.1441904.541679.2721622.3088928.6723394-.1064624.1831327-.1499147.409761-.1912854.6227292-.2524308,1.2987113.4121461,2.196248,1.7362696,2.2871855,1.1970625.0822644,2.3129446-.2666114,3.3848975-.7675701,1.4324073-.6694773,2.6611266-1.6384803,3.8630893-2.6453415,1.0690907-.8955418,2.1205317-1.8111186,3.2506811-2.632462.0930625-.3174791.1930634-.6325732.2944954-.9471902.1584143-.0059844.3168287-.0139637.4752864-.0154381,4.0284422-.0371209,8.0168579.4259797,11.8838068,1.4985397,8.6152591,2.3896149,17.1083574,5.157334,25.2419987,8.9221137,3.7825595,1.7508405,7.2622975,4.0976969,11.1324988,5.6787613.0595409.0243281.0869913.1272779.1294028.1936705-.0620127.0441028-.1034268.0886825-.1542512.1070262-.2133585.0771907-.4280179.1513457-.6448456.218042-5.0885129,1.5647589-10.0464521.937433-14.9279379-.9018732-2.287836-.8619769-4.4673448-1.9481537-6.5609465-3.2071855.708116-.9005289.6536488-2.2031864-.1798369-3.0286929-.8967561-.8881697-2.3436908-.8811878-3.2318171.0155249-.8881697.8967561-.8812312,2.3436908.0155249,3.2318605.715358.7085063,1.7769899.8374754,2.6296432.4095008.263836.2133151.5272816.4317474.8142748.6104134,7.2705369,4.5248042,14.9982334,6.0281141,23.2910697,3.3759642,1.2033505-.3848258,2.1354928-.2583719,3.1773066.3535159,5.4388631,3.1946095,10.6669697,6.6931681,15.6032261,10.624298,7.9259204,6.3118982,15.0061693,13.4472648,21.0273016,21.6100044,1.4434221,1.9568268,2.6647693,4.0542013,3.797087,6.2547424-.4382088.0086731-.622469-.2776262-.8494443-.4731614-5.4057752-4.6586736-11.5817658-7.9839869-18.31457-10.2136263-2.0729597-.6864766-3.3500316-1.6252105-4.1742805-3.7207203-1.8776413-4.773679-5.0072892-8.5703324-9.5793618-11.1248664-3.2636041-1.8234344-6.7649814-3.2233175-9.7946284-5.4664436-.2716851-.2011728-.6775866-.4219034-.9216479-.1217704-.2482244.3052067.1285788.6056432.3129691.874206.6169616.8986208,1.589564,1.4490596,2.2424323,2.3240896,1.51684,2.0328466,2.6929135,4.2673429,3.9118322,6.4764705,1.6071704,2.9126901,3.5541966,5.5335735,6.2501891,7.5454745,2.0453359,1.526337,4.416347,2.288313,6.8222239,2.977695,8.0248806,2.2993278,15.3681415,5.9700476,22.0095745,11.0209192,1.2789366.9726024,2.6225312,1.9223945,3.5072751,3.3191987,3.6534169,5.7671836,6.6649371,11.863902,9.2048136,18.1922358,1.2417723,3.0940014,2.5345426,6.1818883,3.4092689,9.3989612-2.9639915-4.0931002-6.9838907-6.1176206-9.3478332-7.0100835.3701683-1.4099873.6131888-2.8384049.4539071-4.3143512-.2052925-1.9013623-.7308395-3.6779185-2.0704879-5.1133613-.756165-.8102852-1.6708744-1.3622852-2.8046232-1.4507075-1.680675-.131094-2.6360613.9471468-2.3891813,2.6609965-.3683903-.0357766-.7389489-.0804431-1.1108518-.106419-1.2280255-.0857337-2.0951629.4987905-2.2945143,1.7112477-.1226378.7456705-.4724676,1.1517021-1.0935055,1.5386962-1.9190554,1.195588-2.0441216,2.5432157-.4376884,4.1607071.2682593.2700806.3022578.4069856-.0221164.6183493-.1483969.0967485-.2660476.2497422-.3770634.3932387-.6769795.8751167-.5180881,1.7954202.4367344,2.3612972.8631911.5116267,1.827901.6706915,2.816939.6996163,1.321695.0386821,2.6038841-.223029,3.8803055-.5230752,1.1353099-.2668716,2.2649823-.5552958,3.4180288-.7438058.2307047-.2469234.4650521-.4901174.7037794-.7288447,2.6763045.8968862,8.5556314,3.6025492,11.209039,10.5398653.2101928,1.3181824.3875145,2.6409616.5310978,3.968034.2478774.0999142.4461013.3235503.4465784.6634928.0065482,4.7414584.3006967,9.476412.3470978,14.2169598.4718605,1.8250823.6634495,3.7443111.5282791,5.7752496-.0055942.0844761.0069385.1700797.0101475.255293.2869064,7.6224917.1682149,15.2265964-1.2313646,22.7540741ZM209.7920815,217.8908031c-1.5272477,1.182535-3.0074872,2.4191468-4.3937535,3.7663408-3.4828169,3.3846373-6.6928645,7.0391384-10.2436786,10.3559086-1.3250775,1.2377393-2.7059232,2.408132-4.3671271,3.3468226.263836-.6471006.7026953-1.0634966,1.0446326-1.5444205,2.2509753-3.1659015,4.328445-6.459211,6.9128146-9.3802706,2.3975074-2.7097827,5.1094151-4.9953203,8.5133067-6.349713,1.0330973-.4111054,2.0769927-.8024794,3.4226689-.9503993-.4161791.3550771-.6441518.5661805-.8888635.7557313ZM213.8622847,216.7750076c-.2287966.2103229-.4471855.4335253-.6880811.6289738-2.5744389,2.088658-4.7966194,4.5103635-6.6924309,7.2201462-3.7291765,5.3302324-8.6986076,9.0291398-14.7369994,11.3504974-.0698185.0268433-.146749.0678671-.1688654-.0708593.0544238-.0549875.1079368-.1218572.1735055-.1733754,4.0751035-3.1991629,7.7632129-6.8110356,11.2873571-10.5962838,1.6646731-1.7880047,3.3551054-3.5485157,5.2288438-5.121384,1.6749074-1.4059543,3.5155145-2.5389225,5.5966703-3.2377148ZM159.5366638,244.6247066c.0021249-.0111883.0046835-.0221598.006765-.0333915-.0020815.0112317-.0046401.0222032-.006765.0333915ZM93.1674341,232.0130525c-3.5508141-3.3167702-6.7608617-6.9712713-10.2436786-10.3559086-1.3862663-1.347194-2.8665058-2.5838058-4.3937535-3.7663408-.2447118-.1895508-.4726844-.4006543-.8888635-.7557313,1.3456762.1479199,2.3895715.5392939,3.4226689.9503993,3.4038916,1.3543927,6.1157992,3.6399303,8.5133067,6.349713,2.5843696,2.9210596,4.6618393,6.2143691,6.9128146,9.3802706.3419373.4809239.7807966.8973198,1.0446326,1.5444205-1.6612039-.9386906-3.0420495-2.1090832-4.3671271-3.3468226ZM96.7461755,235.9037657c-.0221164.1387264-.0990469.0977026-.1688654.0708593-6.0383917-2.3213575-11.0078228-6.0202649-14.7369994-11.3504974-1.8958115-2.7097827-4.117992-5.1314881-6.6924309-7.2201462-.2408956-.1954485-.4592845-.418651-.6880811-.6289738,2.0811558.6987924,3.9217629,1.8317606,5.5966703,3.2377148,1.8737384,1.5728683,3.5641707,3.3333792,5.2288438,5.121384,3.5241443,3.7852482,7.2122536,7.397121,11.2873571,10.5962838.0655687.0515183.1190818.1183879.1735055.1733754ZM36.6691994,98.2401947c.7001367-.2381636,1.3625887-.1647023,2.0109036-.3183898-.5800575-.087078-1.1600717-.174156-1.754223-.2633156.0808767-.1526033.2260212-.1447108.3368635-.1529503,1.6462861-.1230714,3.2141674-.5873429,4.7872958-1.048839.7407702-.217218,1.4735612-.1755437,2.0618581.4602385.2325694.2512166.2792741.501696.184477.8137544-.2294037.7558614-.815012,1.099013-1.5129804,1.2876964-1.5793731.4269338-3.1525016.1868621-4.7217271-.0846062-.2571143-.0445364-.5093283-.1166533-.7637973-.1759774-.0002602-.0303125-.0005204-.0605817-.0007372-.0909375l1.2615037-.1225944c-.6788009-.2120575-1.257514-.1567231-1.8894367-.3040792ZM42.6055954,95.7344469c.780016-.6611077,1.3852256-1.3529182,1.8422984-2.1677568.0376847-.0672166.0712496-.1679981.1743295-.141762.1268442.032264.0970955.1529503.1063323.2454923.1085873,1.0871308-.8674843,2.0844082-2.1229602,2.0640264ZM43.9803265,93.1086199c-.6629724,1.4804563-1.8133736,2.4237002-3.3529805,2.7946057-1.8370945.4424153-3.7255772.6220787-5.6022211.8447608-.0753259.0089767-.1541211-.0104511-.3028216-.0225067l-.0001301-.0004337c.412016-.4173066.9279793-.5397709,1.3864398-.900659-.4605854-.0970087-.8223408.0372076-1.2924667.1833495.2400716-.2664813.4317907-.4306632.5555993-.6356521.0697752-.1154824.5252435-.2536017.0465312-.4603686-.0881188-.0380316.0313533-.1362112.0875117-.1773651.2134886-.1568965.4484865-.2875136.6468404-.4608023.2523875-.2203837.7271101-.2464897.6594598-.7758963-.0122291-.0955343.2555965-.2316587.4000471-.3412435.2601065-.1970964.5664407-.3462739.7417676-.79888-.5956691.4107151-1.0389517.8336158-1.6592091,1.1228207,2.2877926-2.6171539,4.511144-3.3177243,7.5122131-1.1341391.308329.22433.3124921.4520424.1734188.7624096ZM42.153553,90.5758119c-.9373462-.4760236-1.932889-.5069432-2.949811-.3991365-.1386396.0147443-.3420674.0660024-.3979222-.1008683-.048873-.1460118.1070262-.2705576.22433-.3571586.402042-.2969239.8337026-.5455819,1.3287203-.6470139.8529135-.1748499,1.6251671.4170464,1.9323686,1.4925986-.0743285.007242-.1133142.0239811-.1376856.0115786ZM38.386475,88.873671c-1.3452859,1.5394768-2.5806401,3.160741-3.6738855,4.8886845-.2715984.4293622-.5297101.8672675-.7939364,1.3012265-.0404601-.010321-.0808334-.0205119-.1212934-.0307895.0154815-.5601527.030963-1.1205656.0503474-1.8204422-.3258921.7874749-.4431091,1.5176206-.8780655,2.2474193-.1929767-.7473618.3737243-1.3233863.1984407-1.9990215-.1673043.2178251-.0798793.5012623-.2856488.6998331-.1923262-.2065067-.1904615-.4634476-.1689088-.6898591.1823955-1.9174509.5694763-3.7756644,1.7586463-5.359244.6468838-.8614132,1.4304992-1.5327551,2.5920019-1.5416451.5492246-.0042065,1.0518746.1170002,1.4184002.5774122.4781485.6007862.4641848,1.0853528-.096098,1.7264257ZM61.8344412,58.4809732c2.2796399-5.9782871,7.0535791-9.3922395,12.5019393-12.1127769-3.8319963,4.3823484-7.5861514,8.8447495-12.5019393,12.1127769ZM74.3142206,48.5809231c-.052559,1.4031789-2.7245704,5.6450229-4.7101485,7.6322056-2.1933858,2.1952072-5.4668339,4.028659-7.7656413,4.243145,4.7491341-3.2852001,8.5528127-7.5580505,12.4757899-11.8753505ZM213.985703,46.3681963c5.4483602,2.7205374,10.2222994,6.1344898,12.5019393,12.1127769-4.9157879-3.2680274-8.669943-7.7304285-12.5019393-12.1127769ZM226.4836527,60.4562737c-2.2988075-.214486-5.5722555-2.0479378-7.7656413-4.243145-1.9855781-1.9871827-4.6575895-6.2290267-4.7101485-7.6322056,3.9229772,4.3173001,7.7266557,8.5901504,12.4757899,11.8753505ZM255.3524419,95.4597695c-.4349564-.7297987-.5521735-1.4599444-.8780655-2.2474193.0193844.6998765.0348659,1.2602894.0503474,1.8204422-.0404601.0102776-.0808334.0204685-.1212934.0307895-.2642263-.433959-.522338-.8718643-.7939364-1.3012265-1.0932454-1.7279434-2.3285996-3.3492077-3.6738855-4.8886845-.5602828-.6410728-.5742465-1.1256394-.096098-1.7264257.3665256-.460412.8691756-.5816187,1.4184002-.5774122,1.1615027.0088899,1.9451181.6802319,2.5920019,1.5416451,1.1891699,1.5835796,1.5762508,3.4417931,1.7586463,5.359244.0215527.2264115.0234174.4833523-.1689088.6898591-.2057695-.1985708-.1183446-.482008-.2856488-.6998331-.1752835.6756352.3914174,1.2516597.1984407,1.9990215ZM251.024951,98.6668683c-.0002168.0303559-.000477.060625-.0007372.0909375-.254469.0593241-.506683.131441-.7637973.1759774-1.5692256.2714683-3.142354.51154-4.7217271.0846062-.6979684-.1886835-1.2835767-.531835-1.5129804-1.2876964-.0947971-.3120585-.0480924-.5625378.184477-.8137544.588297-.6357822,1.3210879-.6774565,2.0618581-.4602385,1.5731285.4614961,3.1410097.9257676,4.7872958,1.048839.1108423.0082395.2559868.0003469.3368635.1529503-.5941513.0891596-1.1741655.1762376-1.754223.2633156.6483149.1536875,1.3107669.0802263,2.0109036.3183898-.6319227.1473561-1.2106359.0920217-1.8894367.3040792l1.2615037.1225944ZM243.5935279,93.6704205c.0092369-.0925421-.0205119-.2132284.1063323-.2454923.1030799-.0262362.1366448.0745454.1743295.141762.4570728.8148386,1.0622824,1.5066491,1.8422984,2.1677568-1.2554759.0203818-2.2315475-.9768956-2.1229602-2.0640264ZM247.6947374,95.9032256c-1.5396069-.3709055-2.690008-1.3141494-3.3529805-2.7946057-.1390733-.3103672-.1349102-.5380797.1734188-.7624096,3.0010691-2.1835852,5.2244205-1.4830149,7.5122131,1.1341391-.6202574-.2892048-1.06354-.7121056-1.6592091-1.1228207.1753269.4526062.4816611.6017836.7417676.79888.1444506.1095847.4122762.2457092.4000471.3412435-.0676502.5294066.4070724.5555126.6594598.7758963.198354.1732887.4333519.3039057.6468404.4608023.0561584.0411539.1756305.1393335.0875117.1773651-.4787122.2067669-.0232439.3448862.0465312.4603686.1238086.2049889.3155277.3691709.5555993.6356521-.4701259-.1461419-.8318812-.2803582-1.2924667-.1833495.4584605.3608881.9744238.4833523,1.3864398.900659l-.0001301.0004337c-.1487004.0120556-.2274956.0314834-.3028216.0225067-1.8766439-.2226821-3.7651266-.4023455-5.6022211-.8447608ZM246.0308449,90.5642333c.3072015-1.0755522,1.0794551-1.6674485,1.9323686-1.4925986.4950177.101432.9266783.35009,1.3287203.6470139.1173038.086601.2732029.2111468.22433.3571586-.0558548.1668706-.2592826.1156125-.3979222.1008683-1.016922-.1078067-2.0124648-.0768871-2.949811.3991365-.0243714.0124025-.0633571-.0043366-.1376856-.0115786ZM280.8146943,113.6404701c.1208598.1155692.1541645.217695.1616667.3215989.1998284,2.7763055.3755022,5.5543889.3881216,8.3386736.0289248,6.3894358-.9344407,12.5547585-4.1068037,18.2290965-1.1477125,2.0529248-2.4475946,3.9914947-4.0189017,5.7651021,1.4308461-5.4016121,2.8280839-10.8022702,4.2656951-16.1911328,1.4460674-5.4207363,2.1146774-10.9899996,3.310222-16.4633383ZM270.9127362,148.1798246c.5737261-3.1865001.9288032-6.4026623,1.2808881-9.6180873.7646213-6.9844111,2.1398294-13.79085,5.6780674-19.9856612.3905501-.6837879.765185-1.3765958,1.1472355-2.0651973l.2221617.1016055c-.331226,1.6616375-.6454094,3.3269611-.9966703,4.9843922-1.6466764,7.7693274-3.2512449,15.5495396-5.6435485,23.1364715-.4314004,1.3680962-.8983606,2.7281263-1.7388716,3.9372878.0163488-.1637049.0216828-.329448.0507377-.4908112ZM269.5610322,140.807899c.1220306,1.0435484.2568541,2.0877907-.1655263,3.1029347-.102256-1.0424643-.122074-2.0806788.1655263-3.1029347Z"/>
  </g>
</svg>