<?xml version="1.0" encoding="UTF-8"?>
<svg id="Layer_2" xmlns="http://www.w3.org/2000/svg" viewBox="0 0 136.2171249 153.0670084">
  <g id="Layer_1-2" data-name="Layer_1">
    <path d="M132.9328297,92.7398539c-.5250095-.4766929-.9032197-1.0336822-1.1526628-1.8284786,1.5689406-.0823,3.0535006-.1020274,4.436958-.8465806-.5414232-.8943578-1.2888277-1.4353187-2.1359478-1.7107309-1.3100192-.4261415-.7991888-.8669245-.1592829-1.4616732.7239012-.6730416,1.5386561-1.2842812,1.949848-2.3101033-1.0249744-.4851695-2.0061017-.1248371-2.957638.0661174-.8373334.1681448-1.2373517.2057501-.9339666-.8815659.2311799-.8283945.511524-1.7380102.1070363-2.5443655-1.155514,1.059112-2.290453,2.0995755-3.425392,3.1400389,1.2291833-.326426,1.8965225-1.4385552,2.9200328-2.1194569.7742984,2.2715733-1.340612,2.821319-2.3812296,4.0020316,1.7826279-1.0305998,3.7963586-.8738599,6.0235453-1.5983775-1.1807126,1.7033332-2.447347,2.683844-4.1523755,3.7444972,1.8060541-.0718199,3.0836311.3261177,4.1239404,1.3852297-1.6198773.9512281-3.2203354.7080268-4.8289619.2186961-.0958626-.3590994-1.1893433-.1949617-.4992714-1.0114889.2948314-.3486192-.3901545-.4864024-.4327687-.5036639-2.199291-.8835694-1.1045003-2.5892144-1.0378434-4.0277696-.7832374.6019923-.5344878,1.5726395-.8334034,2.3481709-.0879254.2284057-.0584114.5324843-.3456139.6209491-.3688089.1135864-.555294-.1943452-.7068709-.4292239-.9386673-1.4553543-1.0262074-3.0222913-.4869418-4.627296.2815-.8376417.6592479-.5384949,1.0043224-.0078601.3736637.574559.4501842,1.3604164,1.1874939,1.6775952-.1425609-.8129825-.5969835-1.4881818-.9852886-2.1891191-.1973505-.3561711-.4734563-.6913819-.9318089-.6721169-.5811091.0243509-.6866812.5434268-.8184538.9552352-.3443809,1.0759111-.2675522,2.2276491-.3728931,3.4234655-1.1514298-.4879436-2.1265465-1.789178-3.1408866-.8942037-1.1455733,1.0107183.2053648,2.1897356.4445589,3.3972651-.8864977,0-1.730073-.0544043-2.5633993.0146414-.8991355.074594-1.7941098.2376529-2.6797599.4172026-.370119.0750564-.9171676.026971-1.0387682.4535749-.1458745.5113698.3703501.7992658.7064856,1.0623485.951151.7443991,1.9406778,1.4404046,2.9221905,2.1455032,2.4159836,1.7360066,4.0149006,3.4160677,4.5518543,4.863716-3.719761-2.395948-7.6851891-3.6652796-12.0470136-3.4179171-.0196503-.185098-.0624956-.2937525-.0342917-.3789808.0789094-.2382694.1770067-.4719151.285353-.6987797,3.110602-6.5161896,3.7729323-13.3039385,2.2834405-20.3392039-.3204923-1.5137657-.4333852-1.618259-1.6399129-.7222059-1.7617446,1.308478-3.7716994,2.1146792-5.7449736,2.9991734-2.5693329,1.1515839-5.282768,1.9770501-7.7019111,3.4698555-3.4257773,2.1140627-6.2188152,4.8630995-8.3613131,8.446079-3.4777927-6.1706528-7.4718101-11.593824-14.1137615-14.4342538.3871492-.5969064,1.0074818-.745478,1.508988-1.0473989,2.9053143-1.7497233,5.3639892-3.9833831,6.9784722-6.9714598.7315301-1.3537892,1.2899836-1.9440685,2.5851302-.703095.2344934.2245527.6350511.3446121.9734213.3816009,3.2415269.356017,5.2917069,2.3703641,7.1449988,4.8368991,1.727453,2.2988525,3.8022151,4.3042607,6.1420635,6.0086727.6183291.4503384.9697224.5556023,1.4630603-.3312037,2.6463929-4.757065,2.0998066-9.2576745-.7984182-13.669665-1.0509436-1.5999187-2.2423676-3.0877923-3.4877335-4.526964.4051042-.3994788.8757864-.4213638,1.3037773-.5495916,3.647787-1.0933266,6.8433091-2.8786516,9.3369692-5.8460762,2.4328598-2.8952965,4.9051742-5.7676292,8.2116627-7.7456041.8801788-.5266277.6416782-.9698766-.1136634-1.3604164-1.3409973-.6935396-2.6731327-1.4055735-4.0281549-2.0709092-5.4844339-2.6932453-10.9499881-2.6984854-16.4056786.115744-.4958037.255839-.9612458.741625-1.7697589.5221582,1.4326216-1.9123198,2.8579225-3.7324759,4.0364774-5.7201603.4848612-.8176061.8582167-1.7333866,2.1122133-.8905048.4951873.3327449,1.074601-.1333137,1.5260182-.4282992,3.4397251-2.2492259,5.0545935-5.5261233,5.1209421-9.5542012.0248904-1.5082174-.8710086-2.6573354-2.1959775-3.3931038-1.6133272-.895899-3.4314026-.582265-5.0050439.8205344-2.686387,2.394561-3.5765836,6.6419514-2.2226402,10.4729099.1596682.4518796.6311981.9039132.305851,1.4149748-1.1729295,1.8420411-2.3864697,3.6581901-3.820016,5.8426856,0-.6517731-.0165679-.8031188.0023889-.949841,1.1444174-8.8438625-2.0702156-15.8748126-8.9038152-21.3955417-1.4635226-1.1824079-1.7246017-1.1668418-2.9191081.3250389-2.0168901,2.5186275-3.3413195,5.3673798-4.0009527,8.5354686-.3963193,1.9030726-.3805991,3.8479117-.5747902,5.9376235-1.7301501-1.4604402-3.4632284-2.5611646-5.4217071-3.2528547-1.814916-.6409847-3.6782257-1.12076-5.6222941-.9194794-.9518445.0986367-2.0165819.2755664-1.8773346,1.6500077.5172264,5.1055301,1.345698,10.1096493,4.831582,14.2098553.0722052.0850742.0507054.2495201.0811441.4239839-6.173504.4020988-9.9878175,4.3404789-13.4132095,8.8588122-2.2140095-2.9316688-2.8048282-5.8291231-2.0142701-9.5944265,1.1045774-5.2613453,4.1254046-9.4546397,7.4931557-13.4522018,1.0717498-1.2722598,2.1881174-2.5056814,2.8902106-4.0428734,1.9972399-4.3729982,1.6995573-8.7071582-.1985064-13.0188166-1.650393-3.7494291-4.1778053-7.0016673-6.0344878-10.6344276-.0868466-.1699943-.2626974-.3093186-.5996806-.1607471-.0545584,1.1833326-.0290516,2.4289297-.1820927,3.6523335-.8776358,7.0173875-1.1852591,13.960181,1.9065403,20.6229386,1.0121054,2.181259.6275763,4.1788071-.852129,6.2065627-3.0014852,4.1134603-5.3193715,8.5686044-5.3048071,13.8969919-.1207529-.2234739-.1857145-.4457148-.2176173-.672271-.5575288-3.9568744-.3459992-7.9525871-.6073095-11.9239488-.059182-.899752.1210612-1.610553.7386196-2.330293,1.0981814-1.2799658,1.1743166-3.1862749.3448433-4.3566615-1.0465512-1.4766228-2.5761913-1.3775237-3.4034299.204363-.7138063,1.3648859-.5608423,2.6160313.4193603,3.7844143.3834503.4571196.870161.8348675.9375114,1.5059056.4724546,4.7037395.3453056,9.4478584,1.0285192,14.1528309-1.474234-1.8451235-2.6946324-3.8230984-4.3604374-5.4515293-.2125313-.2077536-.4354658-.4504925-.151731-.7709078.7362308-.831631.2452048-1.6395276-.133699-2.3694394-.9104633-1.7541928-2.3417749-2.9661917-4.0966612-3.8847463-1.1576717-.6059995-2.2524624-.8199179-3.154218.1860227-.8945119.9976181-1.2294915,2.3315259-.7689042,3.6060975.8423423,2.3313718,4.0206801,3.9638098,6.4210206,3.338083.7240553-.1886428,1.0123366.1476469,1.3819932.5608423,2.1588346,2.4133636,4.1563056,4.9646645,5.5594132,7.8838496.9021409,1.8768722,1.452426,3.9228139,2.1604528,5.8930828-1.60539-1.1034985-3.0106553-2.245527-4.5602539-3.191515-.4652109-.284043-.6891472-.6809017-.8513584-1.1828703-.5264736-1.6295098-1.9506956-2.0895577-3.3911773-2.4130554-.7373867-.1656789-1.451116.273717-1.7976546.8846483-.3919269.6910737-.0057024,1.3730542.5659283,1.8682415,1.0355316.897132,2.209463,1.4869488,3.5977751,1.0258221.5820338-.1932664.9438303-.0283581,1.3764449.2610791,3.1099856,2.0806187,5.6763902,4.6316114,7.3882,8.0259482.5045886,1.0003923.4484119,1.366273-.564233,1.9123198-5.4394309,2.9333642-9.764729,7.0753366-13.0053311,12.3437714-.1477239.2404271-.2061354.5819568-.6951578.6106231-2.9836843-4.831659-7.1308198-8.4841467-12.2190114-11.0898519.584885.9450633,1.6033094,1.3618035,2.4785563,1.9036891,3.8751138,2.3982598,6.6240735,5.8346714,9.1022445,9.5521976.3346714.5019685.3171017.8885013.0708181,1.3847673-.6155549,1.2409735-.7474815,2.7257646-1.9223376,3.6879352-.2898225.2373447-.2363429.6175585-.1558152.9879086.7736819,3.5569333,1.0254368,7.2237541,2.4199908,10.6504561-.1127387.0468525-.2255545.0937049-.3382932.1405574-.2044401-.394547-.4306881-.7792302-.6099295-1.1845656-1.6392964-3.7087414-2.6557942-7.5897889-3.2546271-11.5941322-.1041851-.6969302.0855365-1.1463439.5986788-1.570636.5537528-.4578902.6024547-1.0353775.1673742-1.6046965-.4323834-.5656201-1.0382287-.608003-1.6358287-.3504687-.6262662.2700181-.9641741.80466-.7168117,1.4723075,1.2051406,3.2527006,1.0957925,6.830286,2.5378154,10.0325894-1.5962199-2.1652305-2.3340689-4.7317893-3.5215628-7.0770319-.1865621-.3685007-.1177476-.888193-.5939011-1.0961008-.1276883.7180446.2959873,1.3294383.4042565,2.0030964.0550979.3424544.2636221.68121-.0827624.9721884-1.1444174.9614-.7065627,1.6073165.4321522,2.0679809.5264736.2131478.7296036.6778193.9867527,1.0936348,1.181252,1.9101621,2.1732448,3.9168033,2.9228069,6.0670842-1.8609979-2.0051-3.8385104-3.9175739-5.5376823-6.0516722-.9634035-1.2098413-1.3436944-2.8866658-2.9712777-3.5496897-.174772-.4469477.1548905-.7494851.3208006-1.0950219.2999944-.6249562.0664257-1.04632-.4879436-1.3604164-.6816723-.3862245-1.2474465-.2287139-1.6888459.3862245-.4027153.5611506-.2105278,1.0695921.2824247,1.4262256.4355429.3153293.9484539.5238536,1.4272274.7795385.0949379.1752343.313634.4002494.2661651.5184594-.7376949,1.8377257.9277248,2.0567301,1.7913357,2.9597187,2.1681588,2.267412,4.3151262,4.5819848,6.0496686,7.2251412-2.4094335-2.2798958-5.2535623-3.9981786-7.8327589-6.0547546-5.45754-4.3514214-9.443466-9.7315932-10.9351155-16.6780855-.7622-3.5489191-.6656439-7.1087806.7219747-10.5265436.7284477-1.7941098.924103-1.7779272,2.2217926-.3281213.8011153.8949743,1.6223432,1.7884074,2.8862035,2.0413181-.7341502-.6861418-1.4869488-1.353481-2.1990599-2.0618161-2.3504827-2.3378448-2.728847-2.2347386-3.6929441,1.0524848-.056562.1929581-.0960938.3910022-.1422527.5867345-1.6141748,6.8574111.0476231,13.0625867,3.7873426,18.8374595,1.4570496,2.2498424,3.2688061,4.2124052,5.2497863,6.0929763-.654239.4401664-1.4483418.777689-.9516904,1.7276841.4148908.7934093,1.0624256.8519748,1.7835526.4441736.2411206-.136242.4805459-.2154596.7066398-.0773682,1.3100192.7998823,2.7472644,1.4155913,4.1768806,2.816233-3.4107506-.8541325-6.4632494-1.0031665-9.4819189-.2205456-1.2694857.3292001-2.187655-.0354476-3.1793395-.7601194-2.781556-2.0322251-5.0251566-4.6473316-7.8068667-7.0203158,2.113138.6751993,4.0499629,1.1471145,6.0569123,1.197974.4286845.0107884,1.2688692.1260701.7551105-.7308366-1.0968714-1.829095-1.8708615-3.9967915-4.1789612-4.7410365-.9355078-.3014585-.8142155-.7396214-.4497219-1.4263797.591281-1.1136704,1.0018564-2.3064044,1.2791952-3.539826.096402-.4289157.3934681-.9322713.0000771-1.2744175-.3751278-.3261177-.8538243-.0332899-1.2793493.1088087-2.0744539.6930772-3.8563883,1.8327939-5.312359,3.728777-.5815715-2.1168369-.9179382-4.0780127-2.4933518-5.5691228-1.5309501,1.9141692-2.2222549,4.0872599-2.5623205,6.4684124-.6303504-.2902078-1.1243818-.5331008-1.6305115-.7476357-1.4006417-.5936699-2.8127653-.6975467-4.2607989-.135009-.7229765.2808065-.8938184.5722472-.4435571,1.3189581.7823126,1.2973814,1.7872515,2.3506368,3.2000687,3.2340521-.7981099.3285836-1.3942457.5693189-1.9868368.8186849-1.5868185.6676474-2.7746977,1.8041276-3.7229975,3.2093929-.2137643.3167164-.5617671.6408306-.291749,1.0791476.2619268.4253709.7212041.3399885,1.0998767.2771076.6920754-.1148193,1.3917027-.2513696,2.0494865-.4867107.7341502-.2629286,1.2092248.0348311,1.7605887.4622056.7037115.5455845.1438709.9994676-.0139479,1.4548919-.5427332,1.5660124-1.08485,3.1235481-.8524372,4.8983929,2.2758116-.5224665,3.8553865-1.9539322,5.4244042-3.7996721.4872501,1.9329719,1.6802152,3.1471285,2.924117,4.3242963.6641027.6283469,1.0743699.5494375,1.3871562-.3680383.6977008-2.0464041,1.1498116-4.105446.4731481-6.5055553,2.1294747,1.4162078,4.1982262,1.9340507,6.4214829,1.8674709.36118-.0107884.6798229.061648.9788926.3037703,1.2336528.9991593,2.4843358,1.9772043,3.7393342,2.9715859-.4214409.592591-1.3300548.4205932-1.5435879,1.1691536,3.9218122-1.5589228,7.9013422-2.0944895,12.1213764-1.258389,3.8590854.7645888,5.9517254,3.3000154,7.5937189,6.5596514-.5700125.1142028-.9929945-.2051336-1.4301557-.3866868-4.6853222-1.9476132-9.1341474-1.3764449-13.4538971,1.1355555-3.8806622,2.2567778-7.4842167,4.9278298-11.2368052,7.3752539-1.1355555.7405461-2.3179634,1.4149748-3.5120844,2.0579631-.7746837.4172026-1.1381755.0986367-1.0207361-.76613.1016421-.7485604.2059042-1.4968125.3090104-2.2452188-.545045.5400361-.5078251,1.293066-.6990108,1.9579393-.334209,1.1625264-.0661945,1.8901265,1.2203985,2.4150589,2.2164754.9046838,4.3758494,1.0079442,6.6380984.3510851,2.3681294-.687683,4.7294005-1.3890827,7.2407073-1.399717,3.8052975-.0163367,7.2164334-1.223712,10.2106749-3.5869867.535952-.422905,1.0871618-.8265451,1.931893-1.4669133-.7732966,1.8616143-1.2914477,3.4129853-1.5852773,5.0369467-.7390049,4.083561-.0032365,8.0324212,1.1122834,11.9276477.3176411,1.1095092.1414821,1.7717624-.8514354,2.3514074-1.4337775.8370252-2.793115,1.8004287-4.2150253,2.6587225-4.4478234,2.6847687-7.3680103,6.4872151-8.5584325,11.5740966-1.2152355,5.1935326-2.4321662,10.3864487-3.6407745,15.5812142-.1524246.6551637-.2923655,1.3223488-.006396,2.1243888.5947487-.4974991.6399058-1.0729828.7413938-1.5749513.431921-2.1371807,1.5684012-3.7936615,3.3253681-5.0414162,1.9299665-1.3707424,3.7811007-2.8838917,5.8281213-4.0518123,4.510319-2.5731859,7.2595099-6.4153952,8.7392922-11.2898995.4401664-1.4499601.9060709-2.8919059,1.3947081-4.4477463,1.222402,1.2717975,1.7809326,2.972973,3.911255,3.777633-1.6201084-3.9732112-1.3481639-7.7395934-1.4672986-11.4708363-.3621818,3.3132697-.5267048,6.6154428.3312807,10.1504911-1.0181932-.9547728-1.6534754-1.8073641-2.0697533-2.7773948-2.6813011-6.248021-4.8379009-12.6122483-3.9393048-19.5792386.3312807-2.5687165,1.0593432-4.9410842,3.5002942-6.3646897,1.3901615-.8106707,1.5529122-.7393132,1.6975537.7958752.0281269.2991467.0266627.613089.4033318.8257745.2165385-.6184832-.0140249-1.4009499.6753534-1.9144775-.3577894,2.4304709-.3006109,4.7757135-.0496266,7.1360599.2205456-.7656677.2984532-1.5479803.4066454-2.3258235.194037-1.3949393.3280442-2.804674.6288863-4.1771118.4672916-2.1314783,2.1368725-3.0716097,4.2087834-2.3985681,2.8233225.9171676,4.5832948,2.8185448,5.1150085,5.7847365.4682163,2.6115618.4239839,5.210794-.141328,7.8066356-1.1919633,5.4731061-3.7962044,10.2602245-7.095141,14.7164474-.7038656.9507657-1.4617502,1.8794922-1.8086741,3.1913609.6014529-.1268407.8146778-.4675998,1.0388452-.777689,2.1851891-3.0212125,4.3414036-6.057837,5.9840136-9.4275146,2.7433343-5.6276883,4.2582559-11.4165861,2.4387163-17.6652235-.2469001-.8479677.1306937-1.0290586.8788688-1.111821,2.302089-.2546061,4.5974738-.5702436,6.8949393-.866308,3.5894526-.462668,7.0370378.1249912,10.5743208,1.3073992-.2774158.1994312-.3814468.3168705-.5105992.3612571-9.8090384,3.3787707-15.2559441,10.5676937-17.7388929,20.3307273-.3481569,1.368893-.5031244,2.776316-.4802376,4.1954521.006473.402253-.0440783.903605.3962423,1.0586496.4201309.1482633.755727-.2330293,1.0158814-.528323.699165-.7940258,1.3609558-1.6204167,2.0420117-2.4304709,2.8784204-3.422849,6.2411626-6.1470724,10.6523825-7.3441217,4.5664957-1.239124,9.3083029-.4084177,14.078468-1.3892368-3.0757709,7.5168901-1.317494,14.1740994,2.7309277,20.4467796,2.5149286,3.8964594,5.451221,7.4945428,8.2936545,11.1579729.8815659,1.1360178,1.574566,1.0800723,2.5838973.3307413,1.1124375-.8256203,2.0493324-1.7790061,2.6900088-3.0152018.8150631-1.5726395,1.4572037-3.2160201,1.8257815-4.9443207.566853-2.6579519,1.0765275-5.3286957,1.5717919-8.0009808.1800891-.9714178.5485898-1.2998473,1.4998179-.7732196,1.0828465.5993723,2.2104647,1.1181399,3.3037913,1.6646491-.7420103.8128284-1.4798593,1.5686324-2.1530551,2.3782243-.404873.4868648-1.1314713,1.0575708-.825158,1.6540148.3625671.7060233,1.2733387.3352108,1.9479985.3094728.7025556-.0268169,1.4039553-.1404032,2.1004231-.2504448.6556261-.1037227.9140852.0608774.8180685.7947964-.1037998.7937175-.0946296,1.6093201-.0581032,2.4119765.0226556.496112.1254536,1.0850041.6472265,1.2810447.573249.2154596.8948202-.3202612,1.2271027-.6787441.8194555-.8840318,1.2295686-2.0288344,1.8370322-3.0882547.9451403.8831071,1.8095989,1.7269135,2.7182898,2.5198605.3140964.2741793.6535455.7773808,1.1500427.4934919.4642862-.2658568.3369832-.8285486.2522172-1.2483712-.1584353-.7850868-.3674989-1.5686324-.6476118-2.3182716-.3438415-.92025-.7820815-1.8050523-1.250683-2.8666302,2.1401861.2133019,4.0416404.1513457,5.827736-.6975467.3090104-.1470304.7322237-.2629286.72105-.6787441-.0100949-.3731243-.3356732-.6086195-.6688804-.7553417-.7067168-.3111681-1.4213708-.60415-2.1893503-.9285724.8681574-1.0612697,1.6421476-2.018046,1.2441329-3.4304009-.3658807,1.4693792-.9493786,2.7662982-2.3631205,3.4861923-.3570958.1818615-.7109551.3837586-.8453477.8066636,1.5215488-.5369537,2.8242473.0237345,4.2379892.793101-1.496196.7826209-2.984532.9530775-4.476875,1.0748322-1.145188.0935508-1.3903927-.5178429-1.0724434-1.501282-.7566517-.080913-1.48456-1.047553-2.2767363-.0485478-.8082048,1.0190408-1.4500371,2.1761731-1.1064268,3.45506.6174043,2.298236-.827701,3.5755818-2.1881944,5.4231712-.584885-3.2935424-.2872795-5.8719684,2.3337607-7.7383604-.972959-.6469954-1.8717862-.7809256-2.7580528-.9603211-.3309725-.0670422-.7756855-.075827-.7370784-.5691648.0374511-.4788505.4210556-.6397517.8506648-.7058692.8591414-.1322349,1.6227285.3720455,2.8170807.514144-1.9155563-1.9155563-2.0778446-4.0871058-2.1332507-6.2867051-.7579617.9143934-.3365208,1.9641041-.3070839,2.9626469.0164138.5572976.1089628,1.0076359-.7481751.7277542-1.8233155-.5955193-3.5933056-1.2952237-5.254487-2.2607849-.374049-.2174632-.6132431-.4796211-.596367-.9510739.0865383-2.4287756-.4336934-4.7567568-1.5024379-7.3926695,2.8942177,1.528253,5.6567399,1.484637,8.4166421,1.492343,2.474318.0069354,4.9064842.4725316,7.3574531.7323778,3.7155227.3942387,7.1244238-.2052877,9.9008939-2.9577151.942212-.9341207,1.214696-1.8794922.7396985-3.2434534-1.2229414-3.5117762-3.4293991-6.1025318-6.66453-7.8648929-.6308898-.3435333-1.2662491-.6792064-1.9990893-1.0717498,2.4302397-1.7867121,3.8469099-4.05659,4.7408053-6.6937357.183865-.5423479.4231362-1.1770137.0250445-1.5868185-1.3036232-1.3420761-.5814173-2.2797416.4807-3.2254214.1703796-.1518081.2608479-.3928516.3877657-.5935158.52185,1.6541689,1.2588514,3.1853502,2.5107674,4.6645931.5786432-1.8218514.7062545-3.4578342.7490998-5.1839771,1.0794558.354784,1.8848864,1.1324731,2.9595645,1.2304933.4178191.0382217.8703922.0215768,1.0754487-.3721996.2485183-.4770011-.3055427-.5255489-.5352584-.7340731ZM103.147925,31.5200369c1.9147086-2.8435123,4.3461813-5.4129993,4.7999103-9.0317347.5988329,3.3755342-1.5577669,7.4398302-4.7999103,9.0317347ZM106.5609103,20.0126742c.6578608.4210556.6701904,1.0802264.6220279,1.7420173-.2653174,3.6409286-2.3541045,6.3386435-4.6494122,8.9226178-.4692951.528323-.7770726.2330293-.9968475-.2640074-.2709428-.6129349-.326426-1.2619338-.3319743-1.938366.5803385-2.9520127.982052-5.9892536,3.6089488-8.0247152.4995797-.3871492,1.0101019-.9093074,1.7472574-.4375464ZM104.5306118,19.6105753c-2.7112774,3.0622084-3.3153503,6.637482-4.0965841,10.2554467-2.0020946-3.9349894.1476469-9.710787,4.0965841-10.2554467ZM67.2125573,16.4403289c.4360052,4.0481134-.9758872,7.4595575-3.7793283,10.4761464,2.514081-7.8175781-.3955487-15.162008-1.7991958-22.6449918,2.6520953,3.7227663,5.0768638,7.5114959,5.5785241,12.1688454ZM60.6321768,2.8848668c1.6167178,7.7445252,4.4749485,15.357278,2.4458829,23.4006417-3.6969512-7.4365937-3.8197077-15.3392459-2.4458829-23.4006417ZM53.8899704,29.1447409c-.5693189-.643913-.3857621-1.4454906-.5669301-2.1656929-.6033024.2151514-.070664.8504336-.4790817,1.1885727-.5744819-1.2457512-.4864024-2.3583428.4927213-3.318818.4115001-.4034859.897132-.3859162,1.3550993-.0134084.9676418.7869362,1.1488098,2.5687165.3077775,4.0812492-.0016183-.7809256.4261415-1.3870791.1279195-2.0940272-.4700657.7778432-.4623597,1.7623611-1.2375058,2.3221246ZM44.7049634,35.9451276c.9432138,1.2163143,2.4773234,1.6473877,3.6453981,2.7032631-.4489513.3147128-.8948202.0884648-1.2986914.1513457-.1481092.1522705.608003.6634862-.1410968.5144522-1.340612-.2669357-2.5983075-.7672089-3.5469926-2.2398246.9641741.3789808,1.4579743,1.2186261,2.343162,1.1588276-1.1901139-1.0207361-2.3828479-2.0396228-2.791805-3.8955347.7726801.4682163,1.0593432,1.2422064,1.7613593,1.4784723-.3260407-.5027391-.6853712-.9876004-.9676418-1.5139198-.2260168-.4213638-.9860592-.7684418-.4437112-1.3473162.4886372-.5212335,1.1740854-.8334804,1.9148628-.4497219,2.173553,1.1263083,3.7564415,2.7590545,4.4967565,5.2856963-1.938289-.158127-3.3706023-1.2323428-4.9715999-1.84574ZM49.7338959,50.201373c-.9731901-.1450268-1.76868-.5777955-2.2835946-1.629818,1.0557214-.1553529,1.8010452.2868171,2.5939921.533409.4119625.1280736.5472798.5377243.5277066.7849327-.0376053.4749975-.5262424.3580205-.838104.3114763ZM22.0366995,79.5604443c.4638239.6899948.9154722,1.3883121,1.4990473,2.276351-2.0713715.0016953-3.8479887-.1923416-5.8479257-1.0036288,1.2914477-.6026088,2.3475544-1.0581873,3.3657476-1.5868185.497422-.258305.7445533-.0408418.9831309.3140964ZM20.926805,78.5589732c-2.2143948,1.2895212-4.4429686,2.1302453-6.9534278,1.9542404-.3732014-.0262004-.8893489.1627506-1.0443165-.343225-.1357796-.4435571.0452342-.9339666.3318972-1.2717975,1.7009443-2.0046376,5.3595968-2.209463,7.665847-.3392179ZM20.1436447,71.742558c-.1007944,1.6681939-.5518263,3.2306615-1.5915192,4.4657784-1.0659703,1.2664033-2.9710465.6442212-4.3003307,1.7828591.3500834-3.298166,2.5741877-5.6010256,5.8918499-6.2486374ZM10.6271259,72.8146161c.343148-.7730654.7289872-1.5273283,1.2456741-2.6018522,1.5509857,2.3632746,2.0185084,4.6064898,1.7531139,7.0047497-.0604921.5465092-.2967579,1.3787567-1.1399479.6325081-.6473807-.5730178-1.8915136.0585656-2.1884256-1.2203214-.3087792-1.3297465-.2160761-2.5858238.3295854-3.8150841ZM3.5352985,76.1007607c-.3117075-.5406526-.2329522-.7779973.3627212-.9677189,1.7723019-.5645412,5.0588318.5962899,5.9494907,2.1347148.0497807.0859989.1031062.1698401.2385006.3923893-.8464265.1716896-.8525143,1.553991-1.8253962,1.3614952-1.899759-.3760526-3.6698261-1.089936-4.7253163-2.9208804ZM4.9431838,82.5207795c-.7101075.8331722-1.5831197,1.4086559-2.6638084,1.6013058-.4729169.0844577-1.1204517.3803679-1.4105824-.0742858-.3156376-.4944167.2764141-.8966696.5937469-1.2570019,1.6466171-1.8694745,3.8318832-2.6692026,6.2582699-3.0224455-1.0901671.7658218-1.9325866,1.7611282-2.777626,2.7524274ZM5.5528821,82.7894105c.655472-1.0911689,1.4410211-2.0553431,2.661959-2.5529962.9153181-.3728161,2.1733989.4916425,2.3235888,1.5717148-1.1096633,1.0039371-2.4322433,1.6678856-3.768617,2.2946913-.4339246.2035924-1.0135696.4324605-1.3903157-.0544043-.3039245-.3926975-.0634203-.8649209.1733849-1.2590055ZM4.8845412,90.1164249c-.2315652-3.7523573,1.2222479-5.7532961,5.1883695-7.1412999-.0272022,3.1278635-2.2198661,6.1456853-5.1883695,7.1412999ZM13.3430269,90.5155954c-.110581.4574279-.359947.5347961-.740392.2099113-1.1644529-.9946899-2.2896824-2.0444005-2.2714192-3.7161392.0188797-1.7356984.1676825-3.4701638.2613874-5.2050916.9174758-.4954955,1.3825326.2626203,1.7869432.8012694,1.8279391,2.4341698,1.6302804,5.1537696.9634806,7.91005ZM12.654265,82.2251775c-.2401188-.3105516-.5862721-.6432965-.3674219-1.0717498.2495972-.4885601.7093369-.1655248,1.0786852-.1636753,3.3677511.0161826,5.0307049,2.5226346,7.1822958,4.9153461-3.3977274-.1106581-5.9795441-1.2029059-7.8935592-3.679921ZM40.2226942,122.8551916c.8992896.9472209,1.3209617,1.8978325,1.0601908,3.0457176-.772449,3.3995769-1.8160719,6.7066818-3.6206619,9.7197259-1.0514831,1.7554257-2.5001331,3.1539097-4.1628557,4.3304611-3.1021255,2.1945133-6.5710563,3.8767321-9.348297,6.9283062.9792008-4.1556891,1.8943648-8.0173175,2.7982781-11.88172.7242094-3.0959607,2.3759895-5.6338531,4.6577347-7.7963095,2.3215081-2.2000616,4.9699046-3.9111008,8.0265647-5.4225547-.2897454,1.7615905-1.1016491,3.0697603-2.0195102,4.2663472-1.4707663,1.9172516-3.0841705,3.7247699-4.6201295,5.5927031-1.3723607,1.6691186-2.5647864,3.4448881-3.0523447,5.6355485,2.1224623-5.6975047,8.0640929-8.63503,10.2810306-14.4182254ZM113.6186002,134.6606222c.3120157-.5606882.6114707.0778306.8375646.0143332,1.8724798-.5267818,1.7986564,1.0652768,2.2264162,2.042397.3376767.7715242.6055371,1.5920586.5304807,2.7479579-1.5550698-1.0612697-2.7984322-2.1183781-3.562944-3.6477099-.1843274-.3686548-.2514466-.7619688-.0315175-1.1569781ZM112.109381,133.2145152c-.921637.8334804-2.1951298.9401314-3.282831,1.577109.7331484.1965029,1.2740322-.3765149,1.9165581-.3120928-.1987376,1.4271503-1.3648088,1.8596108-4.7922814,1.7819343.9340437-2.7260729,3.9545626-4.8496911,6.1585544-3.0469505ZM104.3288688,127.1181482c1.0416194.356017,1.6701204,1.2574643,2.9649587,1.2668656-1.0887801.7974164-2.0426282,1.7498774-3.0881776,1.091323-.6483824-.4084177-.0202668-1.5092962.1232189-2.3581887ZM122.2190303,85.1377354c.6064618-.6886077,1.4821711.2915949,2.1434226.7234388.6226444.4065683,1.1406414.9706472,1.722367,1.4437953,1.00255.8154484.9402855,1.5202387-.1810909,2.1450408-.5479733-.3014585-1.1109733-.5797991-1.6359057-.9170134-.458892-.2949855-.9431368-.6019923-1.2878259-1.0117972-.5808779-.6903031-1.3362966-1.7299959-.760967-2.3834643ZM119.6264253,91.2177657h2.6702044c-.7543399,1.6068541-1.0437,1.6125566-2.6702044,0ZM117.1649763,89.175677c2.4995166-.4426324,4.8448363-.9933028,7.3086741-.0465442-2.1853432,1.9832149-5.4632424,2.0454794-7.3086741.0465442ZM92.6219979,86.7436649c2.5271811-4.6226724,6.4171676-7.6686982,11.2103737-9.6758018,3.1088297-1.3018508,6.2701372-2.4972048,9.1293696-4.3275328.4094966-.2623121.7852409-.5252406.9613229.2566096,2.3974122,10.6459866-.6255727,23.0637356-11.7729884,28.3537472-.6627156.3145587-1.3292071.7020162-2.403654.6616368,1.4350875-2.0041752,2.7662982-3.8597789,4.0926541-5.7187732.3347484-.4689869.8352528-.2166926,1.2562313-.3088563.780232-.1706107,1.3091715-.5987558,1.2348087-1.4467236-.0647304-.7383885-.539805-1.2269486-1.291833-1.2297227-.8070489-.0030824-1.4624438.4974991-1.3750578,1.2875177.1323119,1.1944293-.5787973,1.8680874-1.2243285,2.6147983-2.3087162,2.670898-4.2304373,5.6226024-6.2468651,8.5217519.5079021-1.7398596,1.2955319-3.3427066,2.3961792-4.7658498.6036877-.7804632,1.1334748-1.5556863,1.1089698-2.57072-.0138708-.5747131.2987614-.9327337.6563967-1.2955319,1.1875709-1.2046012,1.4303098-2.6984854,1.3550993-4.5619492-1.334216.9185546-1.9470738,2.1982122-2.2682597,3.4063581-.4874813,1.8334104-1.354791,3.4573718-2.1707018,5.1164726-1.3548681,2.7547392-2.7851008,5.4731061-4.2089376,8.1934765-.3184117.6083113-.5882757,1.2802741-1.5606182,1.5194681,1.3237359-3.1831925,2.6474717-6.3660768,3.9712076-9.5492693.1116599-.059182.277647-.0890813.3270424-.1815532,1.6344416-3.0561977,3.0601278-6.2031721,4.0645272-9.5276925.1817074-.6013759.3230353-1.2221708-.0401482-2.1299371-.8802558,4.2060863-2.7269976,7.7639443-4.3783153,11.3999411.4033318-2.4779398,1.0251285-4.9256722.9803567-7.4668012-.0055483-.3159458.2610791-.6363611.4008659-.9550811.1210612-.2760288.2881272-.5417315.3533969-.830398.2768764-1.2247909-.2232427-2.165847-1.1682289-2.8948342-.4304569-.3322825-.9978493-.4506466-1.3860774-.0311322-.8819512.9530775-.5528281,2.3215081.0188026,2.9443067,1.7289171,1.8833452.7106469,3.9134126.7098763,5.8826027-.0002312.6604038-.2448195,1.3206535-.5253948,1.9735054-.2663192-3.8697967-1.2665574-7.5259832-2.5958416-11.1060345-.222318-.5986017.1308478-1.0845418.3897692-1.5579981ZM104.0612396,101.6711024c-2.1365642,1.4015664-4.2731285,2.8031328-6.6861068,4.3862525.8621467-1.8639261,1.8117565-2.9933168,3.6033234-3.3280652,1.0403864-.1943452,2.0060247-.7883233,3.0827834-1.0581873ZM78.1023616,73.5315819c7.5673644,4.3172068,12.2586973,10.8831771,14.6266725,19.1629608,1.0727516,3.7509703,1.5664747,7.5737604.4783111,11.8544407-.3231124-2.1109803-.7717554-3.7628375-1.8352598-5.2488616-.3177182.6895325.2549143,1.2479089.0104802,1.9977022-.5906645-1.1968952-1.1292365-2.2880641-1.6677315-3.3790789.9786614,2.7604416,1.8511342,5.5133314,1.3863856,8.70947-.8073571-1.5637006-1.4898001-3.0750003-2.8247867-4.1544562,1.0037829,2.3426226,2.7191375,4.4585347,2.2934583,7.3774116-.7450156-.4262957-1.2197049-1.0097936-1.6370616-1.6068541-1.7241394-2.4666891-3.9548709-4.4428145-6.7523783-5.3846412-5.3478066-1.800737-7.5460959-5.9182044-8.5502641-10.9274095-1.1717736-5.8451515-.6487677-11.6318916,1.3604164-17.242935.7921763-2.2123912,1.0907836-2.3105656,3.1117579-1.1577487ZM83.6175424,65.453387c-3.719761,4.1919073-8.4570216,6.5638126-13.9436131,7.4916145-.5146834.0870777-1.0700545.2362658-1.7272218-.0826083.9060709-1.4286915,2.3038614-2.366357,3.1073655-3.85084-1.312331,1.236504-2.624739,2.473008-3.9003895,3.674835-.4337705-.0943214-.3985541-.3836044-.3597929-.6090819.7292954-4.2355232,1.7618988-8.3717933,4.143976-12.0352234,1.1860297-1.8241632,2.5469085-3.2516218,5.0374091-3.2582489,1.677364-.0044695,3.3532638-.5445056,5.3345523-.8995979-1.1254606,1.9178681-2.1300142,3.6296779-3.1345677,5.3414877.0862301.0542502.1724602.1086545.2586903.1630589.7842391-.9549269,1.5689406-1.9092374,2.3524862-2.8644726.5468945-.6667227,1.2090707-1.1950457,1.8954437-1.715971.8589102-.6520813,1.3210388-.4953414,1.8276309.4495678,1.9637188,3.6629678,1.88427,5.066846-.891969,8.1954801ZM101.0601397,58.6775054c1.3335225,1.9641041,2.7004119,3.8644025,3.5304247,6.1071554,1.1553599,3.1218528.5351814,6.0034327-1.152894,8.9740938-1.4679921-2.6887759-2.5232511-5.4123828-4.2580247-7.7842882,1.1368655,2.3765289,2.2736539,4.7530579,3.4105194,7.1295868-2.2925336-1.456279-4.2310538-3.2682667-5.7422765-5.4895969-1.7366231-2.5525339-3.8993107-4.3799336-7.0724854-4.9531055-1.9770501-.3570958-4.4620024-3.715985-4.5074678-5.6807056-.0167991-.7237471.5123716-.4256792.8448853-.4096507,2.5512239.1229877,4.9825424.6570132,7.1342104,2.1296289.2804212.1920334.5914351.3392179.9600129.4287616-.9252589-1.2828941-2.1397237-2.2766592-3.2923094-3.4291679,3.5813613.2969891,7.4980875-.9219453,10.1454051,2.9772883ZM112.7054398,38.286209c1.7998893.7308366,3.5058425,1.6933154,5.557872,2.6974066-4.3246045,2.5358889-6.9125089,6.4557746-10.1857075,9.6844325-3.4502053,3.4031216-7.7585501,4.9917896-12.6943942,4.3019489-2.0635114-.2883583-4.1197021-.1943452-6.1835988-.150421-1.3039315.0278957-2.6088647.0052401-4.1280246.0052401,2.0948748-2.7624452,4.4372662-5.0371009,6.962752-7.154246-2.2980819,1.2369664-4.155535,3.0182842-6.1673392,4.7206927.3863015-.5363373.7548022-1.0865453,1.16191-1.6067,1.8317921-2.3398484,3.7317823-4.6286831,5.5018494-7.0138428,4.2766732-5.763468,12.4763146-8.6100626,20.1746809-5.4845109ZM82.6965219,18.9503257c.5857327-1.1226094,1.3659647-2.102812,2.1923557-3.062979.7171199-.8334804,1.3693554-.9068415,2.1538257-.1673742,6.2084121,5.8531658,9.7312849,12.7558881,8.4398372,21.5475039-.1347008.9173217-.4499531,1.7705295-.9926092,2.5044485-1.974353,2.6702815-3.9820731,5.3159038-5.9772323,7.9709274-.0888501-.0457736-.1776232-.0913931-.2663963-.1373208.9904516-2.5132333,1.9795931-5.0270831,2.9721253-7.5395458.2882042-.7296036.9358161-1.1743937,1.4068836-1.7591246.5058986-.6278845.7514887-1.3451585.370119-2.1025037-.24297-.4827035-.7266754-.4700657-1.190268-.2755664-.9002914.3775938-1.5123786,1.1333978-1.1952769,2.0120354.5737113,1.5900551-.4689869,2.6090959-1.0184243,3.8366609-.1366273-2.6420775-.1148964-5.2695137.1804744-7.8927886.0520925-.4628221.3889216-.6602497.6869124-.9316548.5502081-.5011979.6717316-1.1199894.2556079-1.7637482-.2813459-.4352346-.6957743-.5425021-1.1844885-.316254-.7106469.3292001-.838027.8989814-.7773037,1.6228826.4997338,5.9542684.5366455,11.8448853-2.5422849,17.2734507-.0724364.1276113-.1745408.2385776-.3601782.3298166,1.052639-2.9862273,1.7624382-6.0509016,2.2597061-9.1639696.1023356-.6405223.1952699-1.3124851.1103499-1.9454556-.1127387-.8397994-.8091295-.9951522-1.5021297-.805893-.6818265.1861768-1.1119751.8345593-.6815182,1.3913945,1.7885615,2.3134939.3977064,4.6078769.057872,6.889468-.151654,1.0184243-.6120872,1.9906127-.9990052,3.190282-.2848136-.7742984-.0112508-1.2428229.0820688-1.7185911.5603029-2.8566124.5896628-5.6844045-.1830944-8.5214437-.2829641-1.0387682-.6063077-2.1240805.0174926-3.2189483.3361355-.589971.1404032-1.2150813-.4499531-1.5794208-.5317137-.3279672-1.0675115-.2314881-1.4732322.2854301-.4644403.5915122-.2354952,1.1082762.1515769,1.641377,1.2719516,1.7520351,1.7803161,3.6329144.880487,5.7233968-.251986.5853474-.3248848,1.2600843-.0593362,1.7692965.9529234,1.827708.2103737,3.6184271.0389923,5.429336-.2861236-3.6699032-.8297816-7.2989646-1.6130189-10.8859513-.3416068-1.5644712-.9741149-3.0649826-1.3198829-4.6289914-1.1404873-5.1576226-.9725737-10.2048954,1.5289465-15.0001821ZM70.6448076,39.3499446c-2.1488938-3.5450661-2.8627002-7.4721954-3.1405013-11.526936-.0510907-.7453239.3496981-.949841.9480686-1.0896277,3.2035363-.7477898,9.2826419,1.5310271,11.1437939,4.2039287.1981211.2846595.3768232.6076948.4660586.9393608,1.4361663,5.3417959,2.8943718,10.6803553,3.2995531,16.2316002.0214997.2951396.0027742.5930534.0027742.8897342-1.3045479-5.7372676-3.8555406-10.8107408-7.7603996-15.2087064,3.0866364,3.924201,4.5165609,8.6168439,6.1651815,12.8273997-.7103386-.605383-1.6197231-1.4095807-2.5607022-2.1752483-1.268638-1.0319869-2.6958654-1.7823967-4.3206745-2.0288344-1.9621776-.2977597-3.2574013-1.4365516-4.2431522-3.0626708ZM58.422945,52.6478723c.0698163-.1320808.1036456-.28281.1567399-.4239839,1.9893797-5.285388,9.6756476-9.8541185,15.2466969-9.0628669,5.3780141.76351,8.6852731,4.4639289,8.9784863,10.1848598-.6404453-.5113698-1.2096871-.9660236-1.7754613-1.417749-.2149973.1672201.5947487,1.0788393-.507748.5559105-1.9672635-.9327337-4.0589789-1.5350343-6.2638953-1.4055735-1.5879744.0932425-3.2089305-.0943214-4.758298.4373923,2.4582895-.0278957,4.9235916-.3319743,7.3617685.2823477,1.9221064.4840906,3.7007272,1.2331134,5.4257142,2.6884676-7.3592255,3.1471285-14.6320667,1.3786026-22.295679.6499236,3.258403-1.8172278,6.4088451-2.7265352,9.5519664-3.6546453-2.6042411.1041851-5.0007286,1.0023959-7.3827288,1.9565522-.6988567.2800359-1.402337.5486669-2.1012708.8283945-.4286845.1716896-.8250809.3572499-1.1897286-.1605929-.3164082-.4495678-.7859345-.8166814-.4465624-1.4584367ZM59.2178955,55.7310411c-.0400712-.0853824-.0255068-.1963488-.050089-.4232133,4.2964777,1.2696398,8.6314082,1.4154372,12.940832,1.7716083.2496742.4437112-.1549676.6453-.3604094.8787917-3.4391086,3.9080184-4.7495131,8.6895885-5.5607232,13.6564107-.2739481,1.6768246.3391409,2.2754263,2.1045844,2.3077915,1.7833985.0329817,3.4823393-.4697575,5.1985415-.8676951.5240077-.1216006,1.0208132-.4686786,1.7224441-.2408894-2.93059,5.1594721-3.1119121,10.8218374-3.0508806,16.7606938-3.6663584-2.01034-7.3682415-3.3152733-11.5495145-2.7325459.0235803-.1712272.0020806-.3156376.0618791-.4065683,4.6491811-7.071946,5.7593838-14.9184986,5.078405-23.1579028-.0871548-1.0544884-.1084234-2.1226935-.3016127-3.158071-.2820394-1.511608-.9645594-1.8075182-2.3685147-1.1674583q-1.8861965.859835-2.8211649-1.0437c-.3542446-.7226682-.701785-1.448573-1.0437771-2.1772519ZM44.411288,82.5335714c.7615835,2.5922968,1.5885139,5.1639415,1.5905945,7.8995699-.9419809-2.5496056-1.5044415-5.1790453-1.5905945-7.8995699ZM34.0632922,104.7118881c-1.7694506.8208426-3.6495594,1.1304695-5.5631892,1.2271027-2.6782187.1351632-5.2959452.5347961-7.8473232,1.3827638-1.9918457.6617909-3.9970997.8917378-6.2105698-.145181.8676951-.5730178,1.5915192-1.0594202,2.3232805-1.5331848,4.2624172-2.7602875,8.3103765-5.8476174,12.7785437-8.2950415,4.0165959-2.1999075,8.0596234-2.660726,12.462675-.2601544-2.2239502.1908004-4.2663472.1579729-6.065543,1.1565158,2.7240693-.4212097,5.4105334-.8803329,8.149167.1897216-3.9146456,1.2469842-6.4321942,4.6098805-10.027041,6.2774579ZM42.2842021,91.842876c1.4798593,1.4274586,3.2520071,2.6203466,3.8976153,4.7166856-2.0519524-.9752708-2.9986339-2.8270214-3.8976153-4.7166856ZM47.4606273,94.1981364c.0375282-3.2929259,1.0507895-6.0479733,1.9538551-8.836773-1.2533801,1.8764098-1.6675003,4.0735432-2.5227117,6.167108.3360585-3.9507097-1.6638785-7.5107253-1.7233688-11.4441736-.0251986-1.6640326.3150211-3.0347751.9610147-4.4064422,2.9587169-6.2830062,7.6714724-10.9079904,13.6893153-14.2662631,1.1433385-.6380564,2.3030908-1.2465218,3.4549059-1.8691662.948608-.512911,1.5319519-.2077536,1.8002746.8028106.0258151.0974038.059105.1958864.064268.2951396.4262186,8.1702044.334209,16.250711-3.924201,23.6487747-.9521528,1.6541689-2.1461967,3.0041052-3.8498382,3.9380718-2.4482718,1.3422303-4.5762823,3.1061326-6.4604752,5.1781206-.7280624.8004988-1.5215488,1.5920586-2.8407381,1.8932089.154274-1.8321774,1.2993079-2.9201098,1.8101383-4.3874855-.7472504,1.0181161-1.4944237,2.0362322-2.4124389,3.2870693ZM73.4905546,100.1020076c-4.0644501-1.4834041-8.1917812-1.3718213-12.3634217-.6588626-.942135.1612094-1.8897412.2966808-2.8391198.407493-1.751881.204363-3.4098258.3295084-4.8616354-1.155591-.9432909-.9647906-2.4027293-1.2015188-3.7397195-1.4854076-.3652642-.0773682-.9374343.0673504-.9864445-.447256-.038607-.4054895.4431718-.6399058.771216-.8613762,1.3332913-.9005226,2.8704832-1.1665336,4.4218542-1.3718213.484553-.0641139.9735754-.0943214,1.6056212-.1538117-.9412103-.4467936-1.8106777-.0397629-2.7696888-.3205694,2.3769913-1.3050874,4.8371303-1.119527,7.6961316-1.0261303-2.462759-1.5052891-4.6575806-1.2024435-6.9337004-.8273157,2.1624564-2.3629664,4.6764603-4.2456951,7.9000322-4.6541129,3.3774607-.4281451,6.5852353.4959579,9.5735432,2.1126757.577102.3122469,1.1612164.6830594,1.2770375,1.4018747.3115534,1.9332801.9059939,3.7822566,1.8052835,5.7970661-1.6602567-.4617432-3.0323862-1.111821-4.5842966-1.0196573,2.6357586,1.1258459,5.7067519,1.636291,6.7040618,4.9477113-.9079204.0155661-1.8052064-.3668054-2.6767545-.6849089ZM77.839356,115.1041933c-8.6795707-.5622294-15.5301234,2.9953204-20.7362938,9.8718423-.1193659.1576647-.2675522.2932902-.6068471.6604038-.19789-1.7420173.1592829-3.1480532.566776-4.5291217,2.1369495-7.2422485,6.2353831-12.8958289,12.8564513-16.8189511,6.1807476-3.6621972,11.5774102-2.2085382,16.8992476,2.8219355-1.4336234-.4979614-2.8606196-.9225618-4.406211-.9358161-1.5979922-.0135626-2.8246326,1.0695921-4.3751559,1.2044471,4.4603071-.055329,8.7392151.3583288,12.32389,3.6376921-4.0929623,1.9642582-7.7751951,4.3948832-12.521857,4.0875681ZM103.0481324,121.980407c.5144522,2.6520953.0800653,5.224973-.366343,7.7993919-.6795147,3.9189609-1.5129951,7.8086391-2.7562033,11.5958275-.4558867,1.3887745-1.0851583,2.6892382-2.4327827,4.1484455,1.4011811-5.0150617.093859-9.3979236-.9284183-13.8165413.515454,5.0480434,1.3504757,10.1059504-.8645356,15.1062166-.3362126-.3037703-.6332016-.4995026-.8364858-.7665924-3.3245975-4.3662169-6.8375296-8.6045143-9.3798916-13.5113839-2.2824387-4.4053634-3.0300744-9.0012189-1.8589172-13.899766.9110798-3.8107688,3.8569277-5.1824359,7.1009976-6.2242865.9573929-.3076233,1.587358.4981155,2.137566,1.1401791,1.3383773,1.5615429,1.6984014,3.507769,1.9886091,5.4576941.2586132,1.7380102.4551931,3.4852675.6791294,5.2286719-.1919563-3.5959256,1.9610987-7.4874532-1.1246129-10.8978185,4.2773668.408726,7.7451417,4.0163647,8.6418884,8.6399619ZM119.1136684,119.455923c-2.9064702-.2653945-5.8040786-.6266515-8.7080829-.9213288-.8506648-.0863071-1.7093439-.1085004-2.5650946-.127303-2.737786-.0607232-5.1128508-.9287265-7.0237064-2.9734353-1.0304457-1.1027279-2.2333515-2.0175837-3.8687949-2.8781892,2.6161083-.717274,4.8866798-.52185,7.167115-.0850742-2.8113012-1.4354728-5.7747958-1.7316913-8.8685217-1.1793255,4.6215936-1.8087512,9.3074552-2.6650414,14.2301991-1.28536,2.6238143.7353061,5.204321,1.5507545,7.6233099,2.8227061,3.3735306,1.773766,6.8885433,3.0748462,10.7503257,3.2278873.1813991.0072436.35856.1202135.7167346.2476707-2.678604,2.8336486-5.9168173,3.4747874-9.4534838,3.1517521ZM120.8976063,106.2278115c3.539903,1.4268421,6.1009135,3.8332703,7.3807252,7.5124207.3175641.9130063.1437939,1.2556149-.8530537,1.3556387-2.4037311.2408894-4.591232-.484553-6.7330363-1.392011-3.1949827-1.353481-6.30073-2.8928306-9.6276393-3.9590321-5.2358385-1.6777493-10.3111611-1.4431788-15.3481078.6755075-.3409903.1434856-.6775882.4671374-1.282817.2305634,1.507755-1.0085607,2.5203999-2.3705183,3.6627366-3.6176565,1.5317977-1.6725092,3.7569039-2.0857047,5.8886133-2.4824093,5.7914407-1.0777605,11.4437112-.5275524,16.912579,1.6769787ZM124.4667921,99.0979165c-.9698766,2.1703165-2.4114371,3.9294411-4.3469519,5.3152873-.6892242.4934919-1.2932201.3073151-1.9876844.0978661-5.0888081-1.5341095-9.6082202-1.7620529-14.7992098-.7353061,2.8983789-2.6117159,6.6816373-4.5893825,10.439543-5.5077831-1.0245891-.1622883-2.1867303.0245051-4.0934247.7624312-1.3440797.5203088-2.6570272,1.1210682-4.0459558,1.6039259,2.1164516-1.4239138,3.8181665-3.2345145,5.2376109-5.3165203.2932902-.4301487.715964-.4699116,1.171003-.5577599,4.471712-.8630715,8.3099912.7648971,12.0121054,2.989772.5952111.3577123.6890701.7302201.4129643,1.3480868ZM128.3857531,96.3357795c-1.0512519-.8595267-1.0082524-2.4666891-2.2116206-3.2023034.0003082-.0006165.0006165-.0010788.0009247-.0015412.6847547-.2718675.8421112-1.0034747,1.2912936-1.4806299-.9645594.04115-1.7642876.266011-1.9989352,1.4048029-.0742087.3600241-.4039483.6768946-.6479201.9891416-.2123772.2721758-.4477183.5616129-.8643044.453729-.4066454-.1052639-.5549858-.4555784-.5522887-.7995741.0140249-1.7958051.1481092-3.8670225,2.5140039-4.2157959.2542978.9094616,1.4578202,1.0816135,1.5992252,2.0676726.6265745-.7770726.7808485-.0597985.988371.3338237.6264204,1.1881103.5746361,2.8237849-.1187494,4.4506746ZM128.7716693,91.0084709c-.15805-.1985064-.2495201-.408726-.026971-.656859.4628221-.5159934,1.0094854-.5298642,1.6072394-.334132.5159164,1.1290824,1.6302033,1.8882771,2.0585796,3.2457652-1.6570202-.2142267-2.7263811-1.1090468-3.638848-2.2547742ZM37.9938122,78.1431577c-.0032365.015412.001233.0289745-.0014641.0442324-.0123296-.0053942-.0161826-.0157202-.0292828-.0206521l.0307469-.0235803ZM111.2162562,125.0329059c-.0080913.0095554-.0120214.0194191-.0198815.0288204-.0005394-.0225015-.0016953-.0448489-.0022347-.0673504l.0002312.0003082c.0125608.0090931.0228868.0194191.0353705.0285122-.0047007.0041612-.0087078.0053942-.0134855.0097096ZM111.2297417,125.0231963c.6347428-.5636165.979432.0864613,1.2845124.4064142.5481274.5747131.9825144,1.2582349,1.5465162,2.0047917.9017556-1.3836885,1.7425567-2.7367072,2.8577683-3.8708755.44479-.4523419.9352766-1.2520701,1.5673224-.9364325.6737352.3362896.2417371,1.1686912.0609544,1.7535763-.4591232,1.4854076-.9798944,2.9517044-1.4847141,4.4515993.5021997.2883583,1.3055497-.0348311,1.7308436.8012694-.8905819.1807826-2.0325333-.8453477-2.6865411.566853.6496154-2.2845194,1.6912348-4.3720735,2.0595043-6.697897-2.2102336,1.1121292-3.3256764,3.0111947-4.1458255,7.3034341-.0621874-2.6752133-.9862133-4.4700937-2.7903409-5.782733ZM14.0825712,101.3070712c.4864024-2.7997422,2.137566-4.9195074,4.0508105-6.8731313,1.0265156-1.0481695,2.2294215-1.8730192,3.53212-2.5492974.0305157.2102196.0050089.4013282-.1969652.5213876-3.5180951,2.0907906-5.7923655,5.2135682-7.3859653,8.901041ZM37.9701548,78.1132584c-.4476413-.4312275-.4772323-1.0279798-.6163255-1.5818867-.2250921-.8965155-.2549914-1.8411164-1.1434926-2.4859541-.5119863-.371429-.3931599-1.0050159.0485478-1.4596696.4984238-.5130652,1.1005702-.7097222,1.7605887-.3062363.528323.3231894.6316604.9709554.2909784,1.3032379-1.314874,1.2825859-.6203326,2.6342174-.3119387,3.9960209.0379135.1673742-.0085537.3538593-.0283581.5344878ZM37.9701548,78.1132584c.0096325.0092472.0136396.0209603.0236574.0298993,0,0-.0307469.0235803-.0305157.0232721.00131-.0174155.0049318-.0354476.0068583-.0531714ZM100.3077264,87.6264637c-.0251215-1.0577249.8081277-2.4329368,1.5044415-2.2848276.9903745.2106819.9135457,1.1637594,1.0988749,1.7728413.057872,1.1309319-.5421168,1.8577613-1.3762908,1.9437602-.6074636.0627268-1.206913-.5844227-1.2270256-1.4317739Z"/>
  </g>
</svg>