<?xml version="1.0" encoding="UTF-8"?>
<svg id="Layer_2" xmlns="http://www.w3.org/2000/svg" viewBox="0 0 279.2768583 237.2710513">
  <g id="Layer_1-2" data-name="Layer_1">
    <path d="M279.264531,116.3213504c-.0529797-.724529-.2526763-.8250188-.815769-.3902953-.5163868.3983204-1.0295622.8115427-1.4851519,1.2760021-2.4320211,2.4798473-5.1102292,4.6683365-7.8851507,6.7461491-.3396933.2543701-.6493997.5489109-1.059978.8989006.2350512-1.0655646,1.0642358-1.8775311.86979-3.0516921-.8114189.3741868-.9943753,1.1903457-1.5357417,1.8064793-.0836766-.6631137.0793069-1.2017109.246555-1.7391998.1264205-.4060424.2717556-.8069005.3798339-1.2176486.0842533-.3197122.2538732-.717368-.1668899-.9016256-.4218511-.1848191-.5937213.2035751-.7599952.4913218-.6698043,1.1579772-.8553599,2.4582182-1.0420389,3.7481094-.1630613,1.127513-.3406398,2.2446539-.7962406,3.2982951-.7087281,1.6393295-2.0803871,2.6957082-3.3668685,3.8372663.0564325-.3643276.1463902-.6892582.4595189-.9260852,1.9427564-1.4694845,3.240247-3.2713636,3.196671-5.8542727-.0295033-1.7418351.5940341-3.332869,1.3990583-4.8583355.6413577-1.214905,1.3096831-2.4230106,1.5276127-3.8180276-2.2721762,2.5748155-3.513987,5.7551541-5.134358,8.715706-.1967908-.0906998-.0816601-.226955-.0677445-.3317515.0182928-.1393427.0734139-.2734382.1063784-.4112693.323815-1.3554885.5701551-2.7272864.6650269-4.1157803.091762-1.3420647.4365381-2.626888.718985-3.9293.0985178-.4541434.2662336-1.0923234-.2339504-1.3106966-.463975-.2027353-.7732908.3783589-1.0446067.7169304-.7364611.9190766-1.198426,1.9934123-1.5571822,3.102462-1.0816841,3.3433929-1.6610619,6.7782383-1.7498291,10.2902476-.0399632,1.5853109-.4546736,3.1561027-.1792991,4.7547893.0205262.1185164-.062237.2819895-.1447045.3869019,0,0-3.3105331,6.7577756-8.4408895,11.7421521,1.2955852-4.4554992,2.3001156-8.9883668,3.1658791-13.556184.6510726-3.4351127,1.2194042-6.8768032,1.1467545-10.3948297-.0433524-2.1004816-.0273098-4.2019085.178503-6.2984155.3237926-3.3011803,1.4405477-6.1719674,4.2653579-8.1706436.5773563-.4084963,1.0732942-.9297634,1.6292323-1.371035,2.0002479-1.587916,3.4584029-3.588116,4.49715-5.9031194,1.7056724-3.8009976,2.1591045-7.8454705,2.368121-11.9515732.1626638-3.1936185-.2368206-6.3465636-.4581477-9.5156555-.1372955-1.9683062-.1425413-3.9458413-.2122056-6.0753835-.4554908.5383594-.6010983,1.0555805-.7706254,1.5511433-1.390013,4.0619529-2.4490461,8.2126727-3.1529636,12.4447818-.8307257,4.9941453-2.16259,9.7812827-4.9055127,14.1242397-1.7974125,2.8458737-3.0174761,5.9658099-3.6732155,9.2900102-.10207.5177616-.0411718,1.0964149-.4694153,1.670952-.183841-1.3916799-.3279443-2.6578533-.5216934-3.916335-.664281-4.3148194-1.6334686-8.5836783-1.9063811-12.9569936-.1899647-3.0443987-.1019595-6.0006853,1.7913758-8.6355203.7567759-1.0530024,1.232925-2.2914804,1.6039061-3.5538185,1.1616473-3.9521308,1.1834715-7.9294371.4630276-11.9666309-.616158-3.4526184-1.5351543-6.8829519-1.1530513-10.4522867.0438934-.4108643.1735275-1.0128091-.1913595-1.1861031-.462265-.219436-.7562529.364829-1.0862377.6538204-.212816.1864239-.410287.3940255-.5932652.6100403-3.5211636,4.1572415-4.6869844,8.9159995-3.5751377,14.2295485.4878164,2.3309102,1.0931923,4.637307,1.5758938,6.9691314.67852,3.2783675.160927,6.5647519-.0400414,9.8465178-.0121064.1973111-.064206.3920908-.1362244.8135944-.1396114-.4864584-.2129885-.7284815-.2786438-.9725247-1.9973342-7.4293524-4.2673715-14.7640104-7.5893397-21.7301441-.9191781-1.9274467-1.3763866-3.930093-1.3487467-6.0843034.0494726-3.856376-.4539729-7.6425823-1.8404377-11.2720471-.7447296-1.9497046-1.8773045-3.6250122-3.5763778-4.8768163-.1892488-.1393566-.3703643-.4330969-.6397355-.2817829-.2053998.1154897-.146932.4115221-.1609148.6311317-.1220079,1.9285033-.1212533,3.8577676-.0695431,5.7895304.0234451.875539.1985864,1.7590931.0065941,2.8200731-1.5873355-2.2174884-3.2389359-4.1685816-4.4783734-6.4095249-.5018533-.9074534-.7119286-1.9030997-.7649606-2.9391205-.0926776-1.8121568.3178842-3.5587545.6912083-5.3052378.6548978-3.0636621.3706166-5.8730124-1.6788328-8.4406615-1.6441528-2.0600368-3.1815163-4.2154311-4.5767133-6.4624381-.1928726-.3106428-.4361795-.5964315-.690144-.8611141-.3426084-.3568679-.6127381-.2753726-.6881498.214502-.0948754.6172111-.1451189,1.241135-.2192848,1.8616669-.5145941,4.3044071.111321,8.3572606,2.4781254,12.088796,1.3683714,2.1574536,2.5372189,4.4343248,3.4256801,6.8404451.0753177.2040725.2983251.4128098.0995937.6961648-.0956547-.0915028-.1809286-.1651644-.2572206-.2470995-5.487435-5.8949878-11.3476567-11.3903906-17.855015-16.143215-2.6533465-1.9379793-4.6143697-4.2362743-5.4540024-7.4369141-.0928451-.3538915-.2579608-.6908588-.408515-1.0271493-2.2304443-4.9809936-5.5673451-8.8040754-10.9665402-10.465799-1.5584863-.4796174-3.1305276-.8865077-4.8267982-.8944079,5.0255469,5.0109398,10.5785193,9.4607425,15.022263,15.0250145-3.8515943-2.4158412-7.9069626-4.4446801-11.8947449-6.5977035-6.7420066-3.6401274-13.5611111-7.1089556-20.7122349-9.8929989-7.1033252-2.765259-14.4027492-4.8441414-21.8565334-6.4153432-3.6097368-.7609561-7.1880864-1.6903514-10.8497539-2.1710102-7.4270204-.9749744-14.8406555-.7649076-22.2286007.4302947-11.984736,1.9388569-23.1362554,6.2144657-33.7194616,12.0696781-6.6275568,3.6666986-12.7145631,8.1179398-18.7730874,12.647292-6.4522452,4.8237417-11.8396902,10.5732991-16.3897401,17.1658992-4.1567864,6.022786-7.4238748,12.4689981-9.2710742,19.5855262-.4743877,1.8272297-1.1293003,3.5785708-2.2900085,5.0870593-3.2660566,4.2451739-5.9223394,8.8626546-8.3817928,13.6033698-.091297.1761301-.0982234.4514259-.4220898.4597538.0181894-.2382508.0230154-.4643874.0543515-.6868473.4170221-2.9614378,1.1562475-5.8501748,2.160248-8.6579829,1.2407568-3.4695956,1.9391517-6.9970382,1.5494891-10.688792-.13162-1.2473887-.3307231-2.4927098-1.2323843-3.4658281-.6745685-.727884-1.0837866-.6737083-1.5480797.1861658-.2012012.3726725-.3670008.7681409-.5138673,1.1662725-2.8568748,7.7439228-3.5167849,15.7393397-2.7382767,23.901461.1098664,1.1517857.3803199,2.3181802.0030052,3.4629549-1.0524512,3.194056-2.3242335,6.3146538-3.1700462,9.6276483-.3493734-.3104133-.3938227-.6943596-.5244781-1.0258255-.9489348-2.4069969-1.9621698-4.7829787-3.4777263-6.900436-1.1589511-1.6192164-2.5406316-2.9859624-4.4989025-3.6181395-.7963686-.2570341-1.3021996.0064414-1.5940842.7898853-.1923183.5160905-.2462391,1.0377891-.1714009,1.5888021.1539322,1.134013.6878174,2.0924486,1.3282544,3.0053502,1.0682694,1.5229612,2.4272802,2.7742021,3.7792974,4.0327375,1.1841448,1.1023703,2.4479309,2.1186184,3.5466911,3.3139791.477058.5190057.6695789,1.0746542.5373402,1.7859123-.2490926,1.3394909-.3763267,2.7041161-.6722891,4.0320262-1.3586661,6.0952365-1.2793549,12.2262336-.5617659,18.382388.2587723,2.2206123.6786197,4.4141185,1.1325469,6.7263494-.393907-.3776591-.494096-.7663828-.6508706-1.1157608-.6941827-1.5465043-1.6453208-2.9129121-2.8275851-4.1230854-2.0361608-2.0843111-4.3139615-3.8564461-6.8526036-5.2882097-.4439898-.2503117-.9019248-.4820297-1.3713546-.679397-.5420004-.2277851-.8320991.0047548-.8080443.5749413.0240753.571058.1650109,1.1279001.4137901,1.6416554,1.4605085,3.0162301,3.4159976,5.6513375,6.2675444,7.4701461,3.0405719,1.9394467,3.9804327,4.9130571,4.3819878,8.2086392-.2057534-.3846054-.3520745-.797988-.4929488-1.2132164-.2745056-.8091147-.6085636-1.5901572-1.1156823-2.2839462-.1494075-.204336-.3365625-.4508704-.6264443-.3271304-.3375381.1441091-.1435589.4357001-.0928783.6662483.3247925,1.4777687.9779989,2.8386533,1.5118804,4.2426181.2426578.6383702.5600221,1.2620898.6013845,2.1900561-.2321211-.441418-.3634196-.6881242-.4919983-.9362754-.8226828-1.5883247-1.6251373-3.1886745-2.7360382-4.6055522-.3336211-.4255946-.6889422-.8301432-1.1404492-1.1392207-.14318-.0979147-.2994123-.2208333-.4614032-.1202091-.1649167.1024884-.1268585.3035424-.0883682.4693141.1043875.4488018.336459.8384609.5710192,1.2297017.1916539.31977.5164168.5754185.5980697,1.0736309-2.9608752-2.566341-4.7091279-3.7163018-5.7972186-3.7992859,1.1557276,1.8904457,2.8503454,3.2837797,4.2057905,4.963403-.5106497-.3091567-.9572432-.691708-1.4484845-1.004428-2.6782107-1.7045873-5.6618276-2.4372261-8.785403-2.6730884-.9598147-.072408-1.9351742-.1086868-2.8907734-.0221151-1.0729804.0973554-1.3363011.8233963-.6711506,1.657551.5051818.6337095,1.1867002,1.0461131,1.8917789,1.4222168,2.8004459,1.4935033,5.8361456,2.1295655,8.947182,2.5741007,2.2058483.3151484,4.4034778.6354102,6.0778161,2.4732472,4.7775888,5.2440874,9.1878005,10.7861411,12.8045516,16.8727616,1.782947,3.0003997,3.6209311,5.96351,5.4782252,8.9140903.1232593.3679563.250673.7361862.3864547,1.1041851l.2499015-.0922599.0025073-.0009394c1.3803812,2.1858573,2.7675316,4.3673603,4.1531597,6.5505737,3.7275704,5.8735341,7.3577933,11.8121804,11.6917481,17.2752592.0436419.0550001.1111769.1433993-.0433132.2164135-.2483782-.1510036-.5179306-.3037976-.776457-.4734076-6.1440334-4.0326975-11.7958394-8.6656654-17.0421836-13.8128904-1.2822909-1.2580832-2.1926673-2.6388627-2.6077597-4.3705584-.1826279-.7615659-.5616168-1.4212174-1.1431867-1.9567265-2.4007346-2.2104361-5.1955306-3.7346481-8.2994892-4.6888881-.5580392-.1715135-1.3391624-.557598-1.7392546.0287435-.3978325.5829477.1244738,1.2555415.4807133,1.7881999,1.1365666,1.6993589,2.3226177,3.3646579,3.6016778,4.9624259,2.1226294,2.6516081,4.7866781,4.4026942,8.1808745,4.9379994.3442241.0542887.5604104.2464133.7707124.4780141,2.4683902,2.71767,5.2002717,5.1571031,7.9690162,7.5580333.3556983.3084607.6963332.6342118,1.2038721,1.0980485-.4234505-.056771-.6158297-.0639778-.798293-.109918-2.0357841-.5124038-4.0699819-1.0307753-6.1045447-1.547783-4.3311651-1.1006441-8.7062489-1.9040262-13.1923367-1.9700867-.4850858-.0071119-.9693953-.017557-1.433449.1350728-.4830615.1589201-.6469975.4285787-.2473504.8632153.5423612.5899248,1.1654212,1.0821524,1.8337205,1.5150318,6.2150127,4.0258518,12.9628773,6.4795368,20.3979312,6.9060848,1.9846279.1137672,3.9755527.1769558,5.9506762.3855922,2.5086373.265025,4.9475667.8745756,6.9639475,2.4887965,2.6807855,2.1459641,5.3992706,4.2504448,7.9204461,6.5888955.2256619.2092879.5475547.3783426.5874713.8387492-1.0739913-.1457536-2.0817767-.3167229-3.096563-.4119423-1.4359919-.1346832-2.6298434-.7179813-3.7511209-1.6241013-1.5671397-1.2663478-3.2523612-2.3748763-5.1472996-3.124517-1.8497745-.7316664-3.7676221-1.0752776-5.9638461-1.1951961.8508902.7357785,1.6540528,1.0781402,2.4450165,1.433314.7676757.3446105,1.5501331.656252,2.3261796.9823652-.5512522.0289797-1.0417943-.0969333-1.5290171-.2344227-1.0104651-.2851223-2.017923-.5925437-3.0667908-.6936703-.4358014-.04197-1.1337263-.2622619-1.2488762.1476854-.1260638.4480827.5908916.5626638.9793223.7169662.8418593.3345301,1.7046458.622817,2.5733753.8811134,1.6608218.4938671,3.331735.9535372,4.9985122,1.4275048-1.2662459-.0634449-2.4818524-.3276088-3.7027781-.5642571-1.7266514-.3345811-3.4380815-.7705536-5.207842-.8344279-.1866781-.0066845-.4360988-.0733937-.5033613.1855529-.0664927.2557.1670882.3430328.3463219.4062101.5874082.2072443,1.1750989.4199032,1.7756327.5828312,1.5461389.419178,3.0991878.8127886,4.6493689,1.2166182-1.0765639.1237858-2.1237314-.0167016-3.1676298.1030543-.3239763.037111-.7924301.0103928-.8929056.3625726-.12624.4424153.3568368.6000292.656235.7731945,1.4413223.8339155,3.0355932.8562092,4.6326653.7985181,2.3252019-.083779,4.6155628-.6044395,6.9512638-.5682495,4.3134562.0667981,8.3192783,1.3614541,12.219392,3.0699965,4.4654672,1.9562899,8.8427812,4.1420969,13.5585369,5.4632925,3.8181473,1.0697407,7.426529,2.6106613,10.923229,4.4614149,2.9066172,1.538403,5.8401346,3.0298011,8.9103756,4.2297178.3342967.1307722.7298523.1587096,1.0994392.5586934-.5819426-.0954012-1.030432-.1534749-1.4722878-.243748-3.6209601-.740415-7.1142418-1.9318338-10.6305832-3.0376817-3.7985159-1.1947159-7.6160826-2.2959874-11.635342-2.3858172-3.0941978-.0692207-6.1902618-.1333649-9.2844817-.1020344-2.1820203.0221661-4.3722624.0096069-6.5441653.3094138-.2874688.0397243-.5953401.0778039-.6906978.3994083-.1063654.3586888.2184575.4984798.4410489.6431655.9987201.6485994,2.0047779,1.2865381,3.0190963,1.9108423,6.3841833,3.9291681,13.2995318,6.1635679,20.8036556,6.547896,5.4811398.2807671,10.8994152-.2670857,16.2343437-1.4367969,4.8425383-1.0617797,9.5299914-.2710826,14.2906746.8068579-.2103769.0667469-.4204138.1347375-.6311372.2003271-2.4935915.7763592-5.0413569,1.3553921-7.5857342,1.9151124-5.7198938,1.2582703-9.8008177,4.7834634-13.2276381,9.2738347-.1540635.2018693-.2805681.4267187-.4040604.6497105-.2398145.4329615-.0849516.6387578.3907173.6381921.6876737-.0009069,1.3585584-.1282647,2.0070378-.3392716,5.1855142-1.6872752,10.1040219-3.9013531,14.4529944-7.2631679,1.7754685-1.3723961,3.6282425-2.635119,5.660002-3.6183555,1.4816212-.7170548,2.9738298-.9632426,4.612789-.5578541,2.0919429.5173871,4.2113927.9319722,6.330533,1.328963,3.3026601.6188666,6.6339662.9411319,9.9994976.7547213,3.5777957-.1981268,7.0320889-1.0139581,10.2953616-2.4483862,2.7288351-1.1995796,5.2396832-1.1970759,7.9747235.0935465,3.3796911,1.5946134,6.7562079,3.2216903,10.2710211,4.5275705,3.6644479,1.3614048,7.4045073,1.9204187,11.2863804,1.2861471.412929-.0674618,1.0391753-.0852361,1.1088849-.4730794.0773083-.430407-.5564466-.5375924-.906832-.7219569-5.9155095-3.1134929-12.0239721-5.6114346-18.8039922-6.0944412-1.518481-.1081011-3.0569045-.2853979-4.5453064-.7430509.6028965-.182477,1.2060902-.3107406,1.8118531-.4248037,6.7551128-1.2711772,13.58296-1.9250466,20.4191094-2.589677,5.0503409-.4909602,10.077438-.5794828,15.1311704-.365183,2.3824152.1010797,4.7667626-.0008864,7.1483109-.1584748,5.5301662-.3659524,10.4443831-2.4645828,15.0931577-5.3201418.2392803-.1468266.4682296-.3292353.6567807-.5362132.5209469-.5719827.3338938-1.1855797-.4256848-1.2955864-.5849365-.0846698-1.1931584-.1058798-1.7817476-.0526988-4.4480626.4020303-8.778229,1.4587398-13.1303832,2.3944294-5.3727001,1.1551717-10.6420438,2.8284793-16.1662914,3.2262846-1.6943601.122025-3.3877335.2596084-5.0816032.3900212.3701451-.3080191.761232-.4630882,1.1589954-.5985111,2.6076023-.8876922,5.292888-1.6797735,7.5439161-3.2894257,3.4425991-2.4616687,7.2597048-4.2152304,10.9624036-6.1883746,5.2969018-2.822691,10.4634254-5.8414806,15.0689738-9.7316159,2.8467548-2.4046054,5.409885-5.1069499,8.0600159-7.7172345.4220352-.4157443.8006677-.504526,1.3520059-.3489202,2.3750258.6706923,4.5673104,1.68076,6.5022208,3.2421379,1.0379621.8375661,2.1543291,1.5789994,3.4062594,2.0703539.3158602.1238847.7218321.4289639,1.0180373.0571948.2522341-.3164992.2223694-.7638738.0773689-1.1478421-.2828195-.7492089-.8595423-1.2536429-1.4975479-1.697083-1.6956386-1.1783017-3.6040607-1.9051384-5.5294425-2.5921267-.8442283-.3012223-1.6989367-.5734094-2.6320024-.8868071.1839221-.1360918.2645112-.2164008.3612301-.2641642,3.3530881-1.6538152,6.878073-2.8270575,10.5425563-3.5135021,3.2314665-.6053813,6.5288027-.8134382,9.7557808-1.4739618.9733286-.1991665,1.9453403-.4095675,2.8548947-.8204496.3475818-.1571727.8701997-.286195.8253266-.736368-.0383495-.3840895-.5450014-.4265975-.892632-.5399471-.4929236-.1608013-1.0040579-.2015639-1.5146459-.2061867-5.6852435-.0512302-11.1723808.936025-16.4368959,3.1180327-2.0355447.843687-3.9917404,1.8454791-5.9632399,2.8745464.6756657-1.2894401,1.4085981-2.5211873,2.1328067-3.7582976,1.2267249-2.0951971,2.7758527-3.9209216,4.9114006-5.0935128,4.8710344-2.6746265,8.7508699-6.5577998,12.7789719-10.2661246.4543159-.4181509.9749369-.8161046,1.1225284-1.5621148-.8616935.1326226-1.4165786.635298-1.9833458,1.0885294-1.9118904,1.5289022-3.5749694,3.3261817-5.3430816,5.0101054-1.4154178,1.3481293-2.9895747,2.4705951-4.7288368,3.3903969.1990293-.3784052.4574101-.6945222.7364097-.9913203,1.9446939-2.0690877,3.9364547-4.0961354,5.826255-6.2141235,1.2631353-1.4156858,2.0959507-3.0932522,2.3440456-5.0121293.0413311-.3203361.0018186-.6561515-.2751152-.8512612-.3083903-.2171695-.5427203.0824301-.7385808.2450102-2.804393,2.3271188-5.4470671,4.8328967-7.577743,7.7953711-1.9051943,2.6488908-3.7163775,5.3652386-5.748105,7.9226177-.1469358.1848428-.310356.3565974-.635032.7275846.1992287-1.1785511.3699456-2.0930224.5060826-3.0125694.346926-2.3429438,1.3134684-4.3638886,2.9293437-6.1171049,1.83306-1.9888874,3.8413493-3.7869504,5.8235181-5.616582,1.9205909-1.7727485,3.7990066-3.5832493,5.4290293-5.6402627.0267581-.0337508.048985-.0696743.0753207-.1035878.8147978-.1256344,1.669246-.1155049,2.5735306.0621758.5444355.1070204,1.1088918.106753,1.6603978.1838256,1.9843226.2772728,3.90968.0234894,5.786902-.6388771,3.0822156-1.0874871,5.625397-3.0181149,8.0712577-5.120963,1.9024533-1.6354381,3.4775055-3.5683041,5.1582274-5.4086852,1.0439032-1.1429422,2.1645704-2.21583,3.3367621-3.4076048-.5523045.0325092-.9249413.2296081-1.2981713.4014365-3.0597143,1.4079995-5.9908834,3.0520568-8.7760704,4.9418973-3.2868763,2.2300907-6.7271751,4.0634793-10.678541,4.8548871-1.2361501.2476007-2.4354242.60692-3.5967875,1.0666857-.2282708.1940293-.4463655.397186-.663159.6015293,1.0516015-1.979788,1.7790649-4.1117533,2.5463997-6.2213644.3671682-1.0095942,1.3839905-2.5942185,1.3839905-2.5942185,6.1311219-4.7009516,9.1063493-12.223425,9.8086687-14.2037842.9556357-.8458478,2.1389467-1.3412972,3.4783236-1.586323,1.3401717-.2451825,2.68325-.4737468,4.0253935-.7082973,3.8143204-.6666113,6.5101668-2.7614209,8.1071167-6.2947639,1.0410786-2.3033871,1.9903415-4.6391831,2.6774364-7.0741059.2162683-.7659922.374212-1.5496153.3155862-2.3528605ZM257.4398816,106.6104191c.8484919-2.4810538,2.0856777-4.7896056,3.4073018-7.0317792,2.5167312-4.269589,3.6873299-8.9325613,4.3945606-13.7663431.4066163-2.7795669.8792323-5.5497458,1.6399524-8.2608742.0681231-.242876.081435-.5072463.3428541-.7218825.3710245,1.4908665.4165805,2.9916782.5276041,4.4792215.3032877,4.0643204.1669568,8.1116047-.5346323,12.1354791-.7710928,4.4226934-2.3447556,8.388165-5.9858296,11.3132641-1.4318819,1.1502027-2.7901115,2.4077991-4.1085598,3.866668-.1803521-.7947938.1094817-1.4078196.3167487-2.0137536ZM13.4490541,87.2767861c-.0823275-.4335482-.3957552-1.0712326-.0826638-1.2745302.3962034-.2574059.9254277.1832961,1.3558245.4282209.6715563.3822427,1.2344244.900667,1.7360776,1.4826129,2.0106066,2.3324376,3.0629707,5.1643298,4.1338895,8.0004219-2.9396265-2.4231097-6.34747-4.448788-7.1431278-8.6367254ZM14.8858804,124.356028c.3844055.5818668.7767836,1.1584275,1.0774493,1.8014873-2.522589-1.9268658-4.786463-4.0511775-5.807711-7.4193828,1.9971899.9769065,5.0886119,3.7086537,6.4577552,5.646359-.4700693-.2220325-.863539-.4288227-1.2747969-.5906087-.1409406-.0554697-.3812003-.0621568-.4790358.0218805-.1650472.141795-.0868825.3689616.0263392.5402647ZM13.4544079,136.9990417c-1.7716739-.303138-3.5475657-.5840693-5.3139277-.9157672-1.7321473-.3252585-3.4419165-.7533627-4.9660719-1.6849348-.4579959-.2799116-1.2386371-.5333094-1.1016256-1.0997236.0915202-.3784366.9140825-.1591542,1.4065289-.1459133,2.4279539.0651529,4.8083765.3917157,7.0392182,1.4288215,1.154851.5370028,2.1776441,1.2542434,3.0209049,2.1993306l-.0850267.2181869ZM21.8555787,166.8968957c4.9300837.8369687,8.7332569,4.4441792,9.5509212,9.0525353-4.4990274-1.6682403-7.1404733-5.1589231-9.5509212-9.0525353ZM23.0134544,184.1789719c5.3666568-1.0566459,22.7608892,4.051372,24.542329,7.2070961-6.6535674.8013035-19.9995796-2.7596138-24.542329-7.2070961ZM86.9564694,223.7461126c-6.543179-.8348656-12.4481899-3.2382066-17.8573195-6.9915107,3.9995423-.06207,7.9988324-.1345102,11.9985951-.1835159,5.0518577-.0619289,9.7973304,1.4146265,14.527202,2.9451382,3.4263486,1.1088065,6.8407917,2.2550637,10.4427718,2.8065802-1.3937573,1.107708-11.2621262,2.4248543-19.1112494,1.4233081ZM101.2820699,235.6506413c3.752809-5.2750388,9.0274898-7.5355124,15.2829017-8.2703137-4.3907296,4.1799249-9.6383355,6.4776939-15.2829017,8.2703137ZM179.9584387,230.0624402c-2.7381147.9212198-12.9776387-2.0763421-17.3734653-5.2592623,4.5812765-.260167,15.7733772,3.1564014,17.3734653,5.2592623ZM199.4634417,218.0743443l2.3990257.1831555c-.8036419.1902885-1.6045513.099829-2.3990257-.1831555ZM206.238134,215.1157036c3.4062086-.742,6.831979-1.3824756,10.2821472-1.8867859.2236937-.0326765.4514729-.0516456.6771487-.0498992.1020682.0006598.2488658.0386581.2958703.1111376.0919718.14202-.0235039.2622874-.1335463.3569616-.1073497.0924442-.2093906.1973844-.3313154.2654043-2.7964326,1.5586186-5.540318,3.2504195-8.8243742,3.613799-.618634.0684579-1.2445659.1356628-1.8646468.1171138-2.2741286-.0679352-4.5065773-.4858413-6.7920692-1.0087849,2.2300417-.507608,4.4563286-1.0321165,6.6907857-1.5189462ZM235.9664349,194.1137733c.008055.0107051-.0425552.0652071-.0725105.1089344-.9857083-.5433128-1.8933318-1.1956564-2.715993-1.96964,1.1309433.3158052,2.0784318.9096949,2.7885035,1.8607056ZM247.5021654,183.0806981c-2.7732749.8553855-5.6440592,1.1923856-8.5060363,1.5758113,2.7551257-.9526269,5.624269-1.2977547,8.5060363-1.5758113ZM237.4231239,173.1468867c1.8921765-2.8110651,4.3614644-5.1011397,6.8009244-7.4152374-1.4470782,3.7874255-4.7191699,6.0357807-7.4376983,8.990517.0732981-.7185415.3552031-1.1570749.6367739-1.5752796ZM250.3576238,71.3112053c-.3977155-4.1160651.7300015-7.741119,3.3673469-10.9085521.1757238-.2110016.316754-.4745805.6292111-.554497.2832274.4168762.1792757.8897846.1585111,1.3235516-.1350005,2.8187441.66372,5.5047976,1.1405502,8.2348191.8014077,4.5865868.7759772,9.0953478-1.1699941,13.4359117-.3822253.8524833-.8273678,1.6768516-1.2480116,2.5118755-.0444045.0882905-.1190442.1613121-.252785.2143386.2751602-2.9763565,1.2003435-5.8501136,1.25847-8.8377338-.0721831-.0161229-.1443663-.0322457-.216556-.0482821-.394842,1.5862695-.7896775,3.1724526-1.1944347,4.7985865-.0930711-.0638188-.1947377-.0948052-.2090505-.1488709-.874374-3.3129784-1.9308801-6.5816699-2.2632575-10.0211472ZM239.8652598,53.0975427c.9560461,3.0566976,1.2218147,6.2133513,1.3150636,9.3920623.0157208.5369315.0007499,1.0748252-.0001551,1.6654609-.3364232-.1154515-.4342866-.4161442-.5813984-.6539676-1.133969-1.8325063-2.1780126-3.7160781-3.1533694-5.6368539-.7256056-1.4288661-.7967872-2.9916529-.8915408-4.5498894-.1116157-1.8352615-.0496572-3.6630993.1124907-5.6923963,1.6978944,1.6318319,2.5758932,3.4834165,3.1989094,5.475584ZM229.5124098,43.0940294c-.1924449.0289734-.2714918-.1706868-.3742783-.2986583-3.3431166-4.1643577-5.5949355-8.7195463-5.107291-14.2569142.0594141-.674544.1042264-1.3503768.1666581-2.1681263.7654503.7440427,1.264386,1.5632461,1.8146949,2.336182,1.0184066,1.4309531,1.9631203,2.9156898,3.0120128,4.3233103,1.6550945,2.2209218,1.8631142,4.6767769,1.3255842,7.2775142-.1602931.7756587-.3634298,1.5428274-.562216,2.3099804-.0459164.1775941-.0213073.4385967-.2751646.4767118ZM191.8907064,11.8802028c6.3614931.207935,11.4064492,6.0048607,12.9813904,12.6469484-4.1712492-4.5271532-8.5341037-8.5475557-12.9813904-12.6469484ZM43.3696313,63.1240323c3.6956421-2.5392495,7.8746381-3.893415,12.1920443-4.9299618-6.3920593,5.67947-12.5712828,11.6359657-20.9620376,14.9785145,2.327586-4.0662228,5.0457057-7.4895703,8.7699932-10.0485527ZM29.5595975,59.400867c.5493812.3851798.7148509.9795582.8729944,1.5582422.4918683,1.7993156.2615999,3.6009081-.0307937,5.3981926-.5447574,3.3482434-1.7776672,6.5008614-2.7806477,9.7180047-.4660573,1.4948059-.7157223,3.0309227-.9985736,4.7066369-1.4703598-3.3520426.5064826-17.5340835,2.9370207-21.3810764ZM25.1425694,147.5148885c-.4308911-.526702-.8058683-1.1044566-1.2728791-1.5955565-2.3012151-2.4202099-2.8703232-5.3155864-2.4088345-8.5119641.0524286-.3631546.0592543-.7328352.0872482-1.0995079.0846861-.0234569.169359-.0467408.2541316-.0701911,1.3939337,4.4966514,2.9191946,8.9422666,5.0165346,13.1726949-.6990646-.525517-1.1457795-1.2471393-1.6762007-1.8954753ZM25.1710958,140.6812083c.0552254-.1377408.1055051-.1423396.138113-.061304,1.0606337,2.6369846,2.7965199,4.7829189,4.8388532,6.7157411,1.0465577.9904434,1.8181788,2.1709185,2.2700819,3.5526196.1141086.3488171.2836315.680467.4404901,1.0139334.0625682.132947.1374483.2641374.2429656.3517831.0789699,1.7752296.3259229,4.9367967,1.0846264,8.5640008-3.5661025-6.4219023-6.5903726-13.1231025-9.0151302-20.136774ZM31.5044333,146.0739059c.4598218.6217221.748658,1.0870413.7496345,1.8148197-.5204814-.506229-.740613-1.0010094-.7496345-1.8148197ZM146.0726973,225.2205333c-4.5187901,1.0561393-9.0053589.6967338-13.4970447-.2450688-5.7177518-1.1988496-11.454297-2.3076273-17.1760693-3.4879955-6.1362393-1.2659407-12.1036578-3.0181908-17.4990791-6.3335303-1.2022556-.7386833-2.3746589-1.5265818-3.5365695-2.530529,6.3169543.7343511,12.3813543,1.853198,17.8722026,5.106932,7.8908711,4.6759584,16.6197022,6.1258282,25.6336319,6.4197078,3.834082.1250119,7.6577631-.0466881,11.4851589-.1667842.1302698-.0041458.2612266.0180299.6221053.0455815-1.3954547.5955936-2.6495635.898406-3.9043362,1.1916865ZM230.540812,172.9806059c-.0402403.1579343-.0327824.3450832-.3721831.5124487-.0426366-2.7194014-.0815426-5.3828485.1185747-8.0382243.2636458-3.4977448.8598388-6.922695,2.5995524-10.0461889.8218291-1.4755597,1.8577137-2.7743796,3.1137285-3.9053902.4312506-.3883368.6887103-.3505883.7795172.2305224.0828355.5305736.1736449,1.0694975.1649045,1.6032567-.0743704,4.5527786-.4997871,8.9982095-3.3223124,12.8685098-1.4784878,2.0272653-2.4594817,4.3320647-3.0817819,6.7750658ZM246.6086127,158.2245783c1.8685873-.8603043,3.8494938-1.4064605,5.8384342-1.8687166,3.7873105-.8802172,7.0698605-2.7380445,10.1987254-4.9515376,1.7991833-1.2728596,3.6286043-2.5031374,5.5805239-3.5377878.1747839-.0927323.3322149-.2281936.5956515-.1958167-.6463736,1.0174175-1.4743193,1.8553128-2.2593259,2.7232336-2.144951,2.3712886-4.5181169,4.4835574-7.1838151,6.2620917-2.92984,1.9547769-6.0341425,3.2062378-9.6659158,2.7202503-1.2541859-.1678611-2.5286293-.2526774-3.8640582-.2450761.1808734-.2613633.3506617-.5279221.5149972-.7971153.0821143-.0364833.1646346-.0725877.2447829-.1095255ZM250.2550061,138.1819271c-.091469-2.0011666.7792876-3.7974393,1.007482-5.7473231-.485285.9787437-.9706565,1.9574807-1.456028,2.9362177.0896448-1.6641087.6166058-3.2548178.5242247-5.013892-.6169718.3451923-.7371054.9149827-.9122221,1.418817-.635909,1.8305552-.9090565,3.7471717-1.2901738,5.6378874-.1002128.4968534-.2060805.9925792-.3567574,1.7174778-.3198465-2.4335135.1582157-4.6039604.2801476-6.9894807-.5982589.5786059-.722461,1.1526958-.8544296,1.708883-.599409,2.5271221-.3547013,5.0219633.3641791,7.4822881.3336999,1.1423445.706682,2.2771631,1.1392969,3.3851333.29411.7528544.3031836,1.4372373.0782889,2.2170972-.8890158,3.083626-1.8540553,6.1353528-3.2724531,9.0252978-.1367776.2785167-.2791778.5543426-.4487964.8904577-.4141654-.5452573-.587877-1.139917-.8077617-1.7028736-.6502545-1.6650145-1.2304829-3.3517346-1.6015068-5.1080746-.2220274-1.0510105-.0495025-1.9447288.6890997-2.75513.5914469-.6488867,1.1388781-1.3433209,1.6525601-2.0559886.742527-1.0304308,1.0811392-2.1775514.8036702-3.4559943-.0409247-.1885732-.0343313-.4412788-.2715871-.4759191-.2231458-.0326063-.3272119.1945651-.4397253.3535053-.4488104.6342903-.6151529,1.3934821-1.0360866,2.1058373-.1144139-1.3793338-.2281294-2.7587012-.3432418-4.1380013-.1850462-2.2167233-.2340848-4.4193226.4613161-6.5802223.1072114-.333312.3357194-.8790844-.1260329-1.0744739-.4792713-.2029028-.7468808.3058739-.9651611.6493207-1.1442166,1.8006204-1.6248067,3.8549253-2.1989514,5.8722524-.0451557.1585158-.0894599.3172706-.1822523.6462904-.3261386-.6705777-.3138276-1.253384-.4037523-1.8038961-.1782406-1.0913333-.2934277-2.1950754-.6476049-3.2492163-.0962455-.2865649-.2035873-.6670493-.5924351-.6210606-.3776201.0447583-.412522.4289962-.4519464.733473-.1914141,1.4772401.0352321,2.9496903.1093338,4.4195406.3379458,6.7093507,2.6296532,12.9045268,5.1366265,19.0327204.1929516.4713943.1987695.8030716-.0289922,1.2467824-1.0602965,2.0651943-2.4101004,3.9097026-4.0717854,5.5280766-2.2176254,2.1599373-4.4352508,4.3198747-6.6552124,6.4773721-.2410794.2341946-.4981329.4520346-.8111601.6396801.4529955-1.7452717,1.1428169-3.381913,2.1558906-4.8684451.9781005-1.4351854,1.855398-2.9149478,2.4398664-4.5616329.8799968-2.4789965,1.0206662-5.0518404,1.0124736-7.6436169-.0031791-1.0190803.058475-2.0442577-.1870356-3.0520036-.3637352-1.4929195-.9414435-1.7326509-2.0877607-.7407894-2.9518368,2.5539359-4.7996236,5.7725152-5.6407475,9.5823694-.8152284,3.6928377-.8490867,7.4369794-.7832534,11.1901238.0508405,2.8967782.1054194,5.7935808-.381738,8.6676386-.0904001.5335267-.1518052,1.0769216-.4015423,1.5600979-2.1103438,4.0815905-4.1063616,8.2300143-7.5623776,11.4336716-4.3032593,3.9889764-8.7875164,7.7271044-13.9978854,10.4987318-.7240589.3852055-1.4978882.6771922-2.2503686,1.0085597-.0972139.0428546-.2029618.1097609-.3679916-.0426209.6088132-1.0928293,1.3664059-2.1018427,2.1620308-3.0826404,1.8891806-2.3286225,4.1564886-4.2700045,6.4129154-6.2203938,2.8090513-2.428012,5.4203653-5.0197752,7.0320566-8.4420021.6771638-1.4378066,1.2725684-2.9098638,1.6989974-4.4438803.0828457-.2978563.1211664-.6129423.1403726-.9226159.0301868-.4865425-.2001152-.6327737-.6184837-.3767121-.3131646.1917233-.6550278.3799507-.8884624.651871-3.4451738,4.0141273-7.6642069,7.2827001-11.0399969,11.3496175-3.0810387,3.7119122-5.9586978,7.5900069-8.4091979,11.7622728-.3157465.5377204-.72335,1.0640787-.8696098,1.650228-.3608179,1.4459533-1.4600303,1.9780501-2.7390229,2.4450141.0019494-.4630382.2739471-.7900323.4722485-1.127002,2.0714125-3.5203879,4.1624618-7.0290995,6.2340341-10.5493012,3.7771573-6.4188394,5.1604575-13.4497031,5.2853951-20.7976626.0110923-.6545737-.0720166-1.3023349-.3087161-1.9207659-.2424888-.6337472-.6278765-.6900478-1.0834517-.2291972-.2568764.2599535-.4909231.5547036-.6812233.866624-3.3418604,5.4773355-5.3848055,11.3569752-5.5675867,17.8276393-.0536426,1.8989293-.057153,3.8145595-.5000632,5.677246-.5818476,2.4463504-2.0000337,4.4995305-3.2732702,6.604659-3.2560507,5.3833338-3.3769684,5.4677835-9.1573122,7.9485147-4.0932473,1.7565739-8.2245116,3.4186517-12.4835245,4.7373948-1.372876.4251771-2.784004.6939949-4.4517143.8543266,3.1877254-2.6529196,5.238349-6.083301,8.4223624-8.4585918,3.7127383-2.7700162,6.3061074-6.4939347,8.2768127-10.6571646.1918762-.4054813.3135434-.8529428.4053203-1.2939879.0536132-.2579011.1046884-.6033274-.202715-.7582284-.2593223-.1307021-.4904885.0602357-.6903745.2208559-.3541739.2845351-.6990485.5805662-1.0487757.8706599-2.3390503,1.9399931-4.7084935,3.8451339-6.7247524,6.1406559-1.8362079,2.0905047-3.2694324,4.424972-4.2455461,7.0270186-.3774275,1.0061145-.918741,1.8824632-1.6671736,2.6370534-.5997207.6045893-1.2185236,1.1902382-1.8273893,1.7858659-1.6030567,1.5682243-3.5219984,2.5172782-5.6869499,3.0837853-5.5352125,1.4483375-11.1900787,2.1465277-16.8534276,2.8077111-.2524121.0294401-.5051391.055029-.7652083.0833626-.0328769-.3179121.2469583-.3294276.4031439-.4269288,1.4451287-.9021582,2.9532967-1.7139989,4.3366462-2.7013335,2.0425959-1.457861,4.3402504-2.0079739,6.7674656-2.2795035,2.5078386-.2805094,5.0266759-.4863302,7.5090565-.9654529.3331738-.0641566.6654182-.1480424.9868193-.2562415.8666178-.2916874.9578465-.6332653.3471432-1.3386159-.5940822-.686076-1.4141735-.9229145-2.267701-1.049923-1.7252963-.2566274-3.4495106-.1696744-5.2615675.0971517.1650013-.3724787.4467676-.5425917.6788159-.7496411,2.7359849-2.4416798,5.9180903-4.2006643,9.108285-5.9471144.3007542-.164749.6353343-.3168255.5488868-.7545156-.0700957-.3545032-.2786327-.6285911-.6058221-.7772612-.3163505-.1436673-.6102378.0245634-.8921041.1481325-.8885997.3893443-1.6888136.9312209-2.4876439,1.473203-.468409.3179138-.9293084.6468389-1.4782845.8864054.5475421-.5591663,1.121925-1.0950595,1.6335019-1.6855893.3581777-.413313.9838206-.8914499.6970157-1.4335075-.3264203-.6167564-1.1112759-.470874-1.7097617-.3222447-3.4307375.85251-6.2680168,2.6829649-8.3253293,5.5390056-.8462682,1.1747317-1.308013,2.626723-2.0378287,3.9110722-1.0043447,1.7675463-2.3044353,3.200156-4.015237,4.3111457-1.7873174,1.1607305-3.6201161,2.2370071-5.4600617,3.3089108-1.6182696.9426085-3.3723491,1.10287-5.166036,1.1678182-6.0199027.218094-11.9672649-.2348313-17.8098847-1.8113282-2.8888865-.7794232-5.5011139-2.0858946-7.9348147-3.79617-.7363809-.5175365-1.4905148-1.0098984-2.2391919-1.5099332-5.7153369-1.6793794-11.4178565-3.3375132-17.34998-4.1051122-.2709716-.0350833-.4338241-.1897779-.5202093-.3799082-2.5164591-.4952585-4.8849679-1.3606877-6.9528016-3.009629-3.0586194-2.439066-4.0553215-5.5636701-3.1836906-9.3253549.3842177-1.6578852.8352699-3.3002299,1.2263333-4.9566357.8092607-3.4278197.1710759-6.4552049-2.4167027-8.9968018-1.3750792-1.350672-2.5535106-2.906138-4.1526591-4.0209688-.4957769-.345598-1.0389351-.9797714-1.6311757-.7055831-.6316497.2924905-.3990221,1.1180663-.3986609,1.7126259.0011708,1.9010264.0343384,3.8033649.1149727,5.7026295.0789546,1.8586021.6920177,3.5926255,1.3952202,5.3126547-.8071579-.8710914-1.4953688-1.8293055-2.36588-2.61912-.2138592-.1941215-.4160943-.5450566-.7818687-.3637866-.301395.1492171-.3845955.4779254-.4191891.7966013-.1582184,1.4582895.2248928,2.8216041.8038323,4.1287169,1.0870236,2.4542464,2.6255481,4.6388688,4.1598093,6.8246444,1.2021827,1.7126318,2.4195204,3.4170265,3.4330951,5.2838329-.3637511.1251461-.5303002-.1246862-.7245966-.2503369-5.8139987-3.7595108-10.928113-8.3121986-15.3642616-13.6238997-1.6996491-2.0349603-2.9285892-4.3906163-4.3942272-6.5854181-1.0400583-1.5575144-2.0824832-3.112513-3.642247-4.2533025.7298755,1.8218356,1.8893755,3.4122154,2.7030006,5.2479255-.1834029-.1646574-.3697441-.3261468-.5494508-.4947843-.2069811-.1942053-.4116491-.3913653-.6115368-.5930315-2.5036559-2.5269111-5.3116838-4.6092626-8.6484119-5.9178126-.5460835-.2141794-1.2108376-.6707086-1.6683868-.2535004-.518875.4730667-.073718,1.1923085.1742761,1.7288805,1.7497589,3.7860232,4.1154634,7.0614202,7.8493935,9.1453955,1.0144047.5662057,2.0307554,1.1502177,3.1024802,1.5888456,3.5696212,1.46072,6.7326038,3.4716184,9.3269407,6.3716531,1.0756088,1.2023785,2.3410266,2.2337123,3.5040847,3.3593501,3.1050157,3.0048694,6.6816152,5.3471778,10.4133253,7.4807382,1.1291636.6455977,2.2104345,1.3750443,3.2397691,2.2128216-.9333831-.3912721-1.8692174-.7766425-2.7995512-1.1748145-5.4201741-2.3200506-10.9405675-4.4211605-16.1349136-7.2393472-6.5096908-3.5316673-12.4580855-7.800376-17.3172183-13.4575106-3.2562005-3.7909126-5.785319-7.9963743-7.1448634-12.8432052-.1983618-.7070107-.3110683-1.4410576-.4223411-2.1688193-.3098598-2.0242766.3903261-3.7408473,1.6659175-5.2661381.8739482-1.0451006,1.7609007-2.0793793,2.6431944-3.1175799,2.5074438-2.9504976,3.2419701-6.2846879,2.2118223-10.0228175-.6715248-2.4368771-1.4343486-4.8400163-2.4621345-7.1518713-.3232842-.727334-.7026575-1.4309414-1.2611508-2.011225-.5037748-.523394-.721598-.4730466-.8768956.221229-.1425258.6363629-.2730726,1.2821646-.3265748,1.9305431-.2855049,3.4616305-.9465586,6.8565776-1.752652,10.2280999-.0986646.4127716-.1486434.8372626-.2407209,1.3688346-.5002261-.9697833-.3814724-2.124208-1.2814455-2.9029634-.3849724.8064333-.0040323,1.5510426-.0266175,2.3709643-.4881775-.4565307-.7070256-.9749596-.9219035-1.4952599-.1623142-.3930317-.3067857-.7941825-.486151-1.1792087-.1395109-.2997842-.2632425-.7139647-.7046542-.5867452-.4425623.1274796-.3264904.5360303-.270519.8636211.2250812,1.3186309.9133974,2.4372505,1.5942658,3.5486038.5951772.9713785,1.1725945,1.9440975,1.4956677,3.0456183.502662,1.713765.1229323,3.402872-.1369157,5.1031321-.1893969-.3162923-.3278878-.6237402-.2384252-1.0059872.5549365-2.3718595.4011688-4.5869777-1.2832633-6.5455355-1.1358904-1.3208421-1.6732962-2.9429696-2.0291143-4.6307365-.2832275-1.3442941-.5413574-2.7005894-1.2654151-3.9127485-.1018341,3.4325092.9757621,6.6721926,1.6218401,9.9847033-.2092987.0560432-.2078579-.1223369-.2641782-.2117935-.0749495-.1188876-.1182268-.257277-.1809813-.3843668-.6173548-1.2494182-1.3046805-2.4619043-2.1191504-3.5904162-.7872549-1.0907709-1.3431886-2.2993147-1.9583696-3.4815026-.2145166-.4122393-.4934842-1.0102378-1.017659-.8585447-.4864511.1406557-.3530018.7853016-.3452362,1.2190722.0210907,1.1775399.3523773,2.2990851.7853034,3.381332,1.3050403,3.2627018,3.0547408,6.2747415,5.231199,9.0324908.9825188,1.2447651,1.6675129,2.7179367,2.9010539,3.7714532.0916292.078148.1325151.2569761.136064.3905057.0475164,1.787311.2994791,3.5479566.7460748,5.3136325-3.7513311-4.8707324-7.1603589-9.9160893-10.2074899-15.1477527l-1.8857385-10.6593146c-.004935-.0971459-.0091016-.1884052-.0131877-.2784406.1163102-.1266405.0876566-.3415027.0796519-.5021199-.0586043-1.1829264.4433388-2.2169376.855517-3.2680659.5569129-1.4201963.5205763-2.8287105.0262616-4.242789-.0769567-.2202026-.1307922-.5814669-.4530464-.5224785-.3466111.0635656-.2110115.4214171-.2031183.6484377.0301127.8679586.0965778,1.7348653-.1759084,2.6014676-.124966-1.2901115-.2441517-2.5807385-.3790285-3.8697799-.0322327-.3081208-.0849167-.6218042-.1857615-.9130694-.0969737-.2804447-.1195357-.74144-.4714525-.7314264-.4147637.0117393-.4067042.505464-.4586694.8067217-.1007088.5831031-.1067175,1.1824825-.1584864,1.8605676-.3493717-.2147314-.3613865-.5415757-.4636602-.7958951-.3099586-.7708522-.6905075-1.4943816-1.2658396-2.1024807-.1352235-.1428866-.2787504-.3353788-.4992382-.1988602-.1562991.0967096-.1381285.3007684-.1195523.4698907.0747419.6844384.3257183,1.3175288.5669587,1.9550949.1146675.3027586.3297808.5841332.2953795.9481422-.3594466.0220514-.3612307-.2701754-.4541569-.4407119-.7595983-1.3960591-1.4999584-2.8025661-2.2578278-4.199624-.2162516-.3986283-.4497086-.7917855-.715745-1.1581166-.1705517-.2350028-.3026685-.7136693-.618722-.5832291-.3785605.1561993-.1437092.6142657-.0843774.9206281.2127954,1.0990164.7433724,2.0768578,1.2423849,3.0648149.2739801.5425572.5353851,1.0914609.731464,1.6688659-2.3038102-2.7462482-3.8143808-5.8541537-4.5234739-9.3769303-.6743234-3.3492866.1886838-6.1651624,2.6104603-8.5415856,1.0764411-1.056432,2.2451672-2.0045697,3.4046006-2.9642898,2.3710532-1.962688,4.5196457-4.1435527,6.4248193-6.5620259.5278352-.6701831,1.017551-1.3697194,1.3530503-2.1570531.1150838-.2700829.3320645-.5828368.111047-.8825808-.2343385-.3178098-.5728652-.1345466-.8685245-.0866623-.6223939.1006157-1.1919741.3582675-1.7635994.610805-3.9765383,1.7568728-6.8068802,4.7337778-8.9937754,8.408704-1.1599098,1.9492078-2.1765457,3.9745916-3.2961134,6.1405109-.3865692-1.7441314-.6200897-3.3373175-.4154842-4.9759487.5596972-4.4850207,2.2261857-8.6056298,4.191815-12.6192007,1.7220004-3.515837,3.4953674-7.008355,5.7826295-10.2046031,2.5433506-3.5541181,3.0717882-7.6137407,2.9878179-11.8254549-.0130117-.6498902-.0285606-1.4784642-.6549296-1.7439175-.6551857-.2776565-1.1835007.3908373-1.6413493.8313342-4.5148616,4.3429362-7.4357272,9.5389244-8.4460123,15.7684439-.4143286,2.5547347-.8552409,5.1170079-.7894792,7.7021327.0704911,2.7704127-1.1029409,5.1508091-2.0251152,7.8894496-.5200853-1.9139394-.6480877-3.6268485-.6726309-5.3493426-.1121875-7.908405,1.9380066-15.3903359,4.5528235-22.7505272,1.6551373-4.6589466,3.7657725-9.1135,6.1778139-13.431442.9753943-1.7460971,2.2260152-3.1653478,4.0864659-3.9293302,6.0949029-2.5027302,11.0709609-6.6338795,15.9916518-10.8624152,1.9380607-1.6654689,3.9514389-3.2430752,5.9255374-4.8667371.293659-.2415752.8381425-.4507796.6540306-.8773114-.1938502-.4493691-.7649758-.2649015-1.1545098-.1973932-2.7481954.4756167-5.4049378,1.2903183-7.9966622,2.3050008-3.0006689,1.174651-5.8000768,2.730085-8.4143301,4.6163617-.2416459.1743937-.4893499.3404095-.7801447.4726912.9182625-1.6961811,1.8911744-3.351657,2.7026359-5.0890456,1.4037634-3.0058805,2.7890625-6.0205642,4.1506346-9.0457577.939032-2.086717,2.1240927-4.0133026,3.6288065-5.7323838,5.5590665-6.3511671,11.2951582-12.5464271,17.6569709-18.0986009,8.4047009-7.3351568,18.0632359-12.6350308,28.3344209-16.8859079,5.2486358-2.1722601,10.7968284-3.2460126,16.2702671-4.5961649,4.4950589-1.1087494,9.0367363-1.959948,13.6827427-2.1166208,2.9560923-.09972,5.9039734.0391377,8.8514879.2579923,11.1640877.8291936,22.0017959,3.1294984,32.5170884,7.0039446,8.6926792,3.2028714,17.044517,7.1456976,25.2982445,11.3197161,5.6530428,2.8587732,11.1891404,5.9083322,16.2175502,9.7994043,1.5711685,1.215857,3.0874218,2.4958905,4.476011,3.973807-1.4415288-.6489173-2.8741823-1.3183811-4.3264994-1.942201-2.607158-1.1199397-4.9005822-2.853777-7.5935585-3.8135213-2.0307966-.7235668-4.0444104-1.492184-6.1395485-2.0132945-.4661702-.1158759-.9471473-.1847804-1.4254668-.2360852-.572963-.0614879-.7220549.2028672-.4775818.7126404.44208.9213304,1.1388806,1.6166403,1.9524778,2.2097022,2.0432362,1.4891884,4.3725378,2.3828078,6.7236717,3.2308621,3.657326,1.319109,7.4047308,2.3561361,11.115786,3.5035535,3.233645.9998912,5.9297386,2.7550765,8.3166416,5.1125025,3.07538,3.0375742,5.9605596,6.2365079,8.5614003,9.7360944-.9109682-.5458702-1.8245348-1.0873286-2.7326056-1.6381095-4.7785308-2.8983887-9.5636936-5.785106-14.734566-7.9559962-1.1781752-.4946829-2.3785266-.9290396-3.6482666-1.1347083-.2239993-.0362378-.4494567-.0978121-.6735132-.0945637-.7051829.0103561-1.4911815-.0851409-1.9356124.611416-.4515685.7080157.1165907,1.2892981.4169169,1.87414,1.026336,1.9992997,2.888248,2.8659343,4.9066666,3.3483077,6.1540045,1.4707513,11.9707128,3.8549122,17.7700036,6.3156805,1.8537507.7866826,3.2744517,1.9795702,4.373455,3.6331785.9017749,1.3567242,1.8138482,2.7038836,2.5854021,4.2076711-.4442817.029231-.6686625-.2196236-.9274539-.3641155-2.4512522-1.3687265-4.9703504-2.614419-7.3593851-4.096258-1.9615798-1.2166108-3.7630894-2.6237594-5.4484825-4.2051433-2.0679345-1.9404306-4.6979464-2.2335105-7.3767055-2.2857144-.2001069-.0039695-.4385137.0653346-.4091277.3161769.0225145.1927346.2614651.2017572.4220266.195053.8702632-.0363735,1.7431035-.1144764,2.6964356.3459049-.6632558.2416277-1.2223076.1255324-1.7629561.1090464-1.708815-.0520887-3.4022226.0722706-5.0792928.3939379-1.3822274.2651094-2.1122397.8012116-2.1398307,1.6149233-.0412535,1.2205341.913551,1.5921307,1.8042284,1.9833608,1.3954633.6131296,2.8751029.8824901,4.3850829.9561057,1.3609185.0664105,2.7279684.1299838,4.087474.0759013,2.6541892-.1056333,5.0020968.8929171,7.3378929,1.9293373,3.3461421,1.4848885,6.6007779,3.1520669,9.754982,5.0159019,1.2532574.7405765,2.2422289,1.6729546,2.9105749,2.998462,4.1568655,8.2440771,7.3974816,16.8124116,9.2739338,25.8718258.051002.2457079.1618835.4886807.0298272.7646004-.0621418-.0678943-.1351491-.1176557-.1667722-.1865254-2.2075515-4.8011906-5.0455035-9.2658688-7.4419351-13.9697058-2.9520515-5.7945813-7.5554805-10.1730211-12.7101654-14.0074523-.4808502-.3576799-1.1659503-.9840755-1.626266-.5887374-.4479293.384628.1914345,1.0734652.4562932,1.5668762.752091,1.4009659,1.4338284,2.8324847,2.1128617,4.269799,1.5194003,3.2167001,3.6860835,5.9919697,6.5817347,8.0226449,7.3151575,5.1301595,11.07151,12.5202735,13.485312,20.7746238.7449996,2.5477366,1.1591192,5.1922498,1.768591,7.9941562-.2945964-.2907483-.4691766-.4399449-.6169492-.6121462-3.2283266-3.7640813-6.9748198-7.0028516-10.6576134-10.2875571-2.9346292-2.6173102-6.5831294-3.9620144-10.3945439-4.821437-3.9152319-.8827447-7.9159728-1.1820956-11.8825955-1.7130013-.4167382-.0558236-.8497204.0042793-1.2749072.0169625-.2338195.0069392-.4793147.0460406-.5711583.2897152-.099017.2624372.1361912.4150448.2877163.5654387,1.1587352,1.1503589,2.5827535,1.9340686,3.9222809,2.8378017,4.2500009,2.8678668,8.9819579,4.3927099,14.0034507,5.2024728,2.5758752.4154207,5.1294412.9840558,7.5829528,1.919864,1.799566.6863421,3.4358577,1.6131668,4.7472778,3.0570961.5726642.6305111,1.1401924,1.271329,1.7647112,1.848129,3.6709337,3.3899199,4.5431155,7.8208166,4.7546758,12.5283356.1983879,4.4152056.1077892,8.8216568-.8363401,13.1421554-.5952117,2.7239382-1.5482246,5.3697615-2.3407319,8.0506284ZM242.3945029,142.8392664c-.4960426-1.0519242-.1910815-4.0745424.6469527-5.9195885-.0016963,1.9818762-.257378,3.9294874-.6469527,5.9195885ZM207.2810975,198.8786197c3.0091503-6.3090734,8.3247023-10.6999576,12.9069162-15.7131785.2748197.2205214.1314907.3729339.0766601.5032242-1.6669054,3.9506115-3.9753948,7.4351549-7.364208,10.1368291-1.9734689,1.5732596-3.8278713,3.278865-5.6193683,5.0731251ZM207.8886996,175.6005604c1.5901518,3.0795357-2.138377,17.9988953-5.4951496,21.7517756-.4072688-7.9079696,1.2709271-15.1350828,5.4951496-21.7517756ZM177.9446585,210.6211529c1.4066803-4.6459923,5.0338499-7.4003606,8.7147012-10.1195773-1.7881612,4.3266039-4.9914503,7.4465674-8.7147012,10.1195773ZM158.9968132,213.1079576c1.3224409-3.7978109,3.6559763-6.5382991,7.9209033-7.5083958-2.7384441,2.5958007-5.3296671,5.0520118-7.9209033,7.5083958ZM82.7998616,190.1154035c-.6806636-2.4003459-1.3285118-4.8101032-1.9735399-7.2203411-.0917679-.3429363-.2793464-.689882-.1139337-1.1452246,1.6348071,1.1217284,2.8940107,2.5682819,4.0984624,4.0734573,1.8976053,2.3713034,2.0976194,5.0881067,1.5366789,7.916867-.345541,1.7426025-.8415468,3.4553641-1.2996865,5.301057-.5778164-.5322652-.6814018-1.1134816-.8246044-1.6679743-.6173713-2.3908167-.7479856-4.8761645-1.4233768-7.2578414ZM82.5539378,199.8740937c-1.3379579-.8001029-3.9463066-5.4204359-4.0783956-7.3111033,1.8211061,2.2875258,3.00285,4.7236046,4.0783956,7.3111033ZM82.1325193,192.8453167c-1.3703554-2.1257691-1.8173646-4.4727872-1.6313661-6.9717138,1.0033501,2.2137858,1.2503753,4.6087729,1.6313661,6.9717138ZM54.5979549,181.9889766c3.9422617,1.4903003,6.7271868,4.3947955,9.2208599,7.6551721-3.3919907-2.1626848-6.432199-4.7551757-9.2208599-7.6551721ZM61.339088,189.7170871c-2.4240366-.9937505-4.1277457-2.8240007-5.7310371-4.7709708l.1881614-.1904808c1.8475698,1.653784,3.6952194,3.307661,5.5428756,4.9614516ZM49.6420494,154.8548424c-.356193-1.4253664-.646489-2.8696222-.6592151-4.3663618,1.3178501,3.1085882,2.4904188,6.2595796,2.3575343,9.717118-.122287,3.1808702-1.8763357,5.6319311-3.679002,8.1205104-.1874645-.2641287-.0026999-.4158132.0588875-.5605489.1662214-.3907391.3416756-.7816431.5574224-1.1465943,2.1997204-3.7210052,2.3889408-7.6646554,1.3643729-11.7641233ZM48.2629034,163.6416979c-.089996-2.0193207-.2079836-4.0388648.08477-6.0550592.5174205,2.0229003.1985045,4.038837-.08477,6.0550592ZM40.3871007,164.2656628c-1.1546596-1.5364284-2.0037064-3.2328858-2.6299591-5.0459403,1.104193,1.5628458,1.9189924,3.2772166,2.6299591,5.0459403ZM26.7519964,123.6769431c1.9347322-3.9996638,4.750035-7.1487265,8.9486871-9.1294991-.0965631.9218724-.5739886,1.5242296-1.0348021,2.1186349-1.3615821,1.7561037-3.0067652,3.2323888-4.6942219,4.6619546-1.008381.8542595-2.0378364,1.6837725-3.0578795,2.5244421-.0539012-.0584798-.1078889-.1169662-.1617836-.1755325ZM25.0876455,110.5314068c.4235962-4.6038799.7478428-9.2235212,2.7179513-13.5224908,1.3906227-3.0342835,3.3038365-5.6765602,5.7428643-7.9439808.1947457-.1810188.3699408-.5366273.6730469-.4165868.2985551.1181273.2005627.5084215.2326565.7716482.3691221,3.0208477-.5180249,5.7792111-1.8222734,8.4397971-.7747662,1.5803146-1.6795592,3.0898137-2.660014,4.5490008-1.65082,2.4570284-2.9430965,5.1032193-4.2018219,7.7702382-.1502583.3183698-.2211263.6929032-.5342358.9226424-.1856335-.168481-.1656461-.3801516-.148174-.5702683ZM204.5818309,32.6050666c-3.5830044-.5209284-6.7690553-1.8582482-9.3016012-4.5365416,3.635497.4315157,6.2740083,2.8771288,9.3016012,4.5365416ZM214.8861911,45.8710207c-2.1693508-.5733124-4.2335734-1.2270609-6.032705-2.5240809-.1810485-.1305541-.3489464-.2966373-.4782717-.4780422-.2828368-.3969271-.6070362-.8992177-.3989795-1.322948.2153389-.4382224.7688401-.1184007,1.1527022-.0660438,2.0486752.2797503,3.8604618,1.1763077,5.6093149,2.2249785-1.9933006-.4126087-3.8153477-1.395802-6.0797307-1.7873547,1.6883504,2.1909289,4.1681688,2.6716473,6.2276698,3.953491ZM217.6116214,54.7570031c-.4454551.2565162-.7421096.2741412-1.038929.2711386-1.4553467-.014471-2.8805603-.2151346-4.2519358-.7222189-.2382178-.0881216-.4737037-.1915178-.6947269-.3157296-.5269661-.2959631-1.1528319-.6466218-1.0333701-1.3090139.110649-.6141802.8021936-.7318713,1.3628094-.834507,1.7577984-.3217669,3.3777794.2456146,5.1880153.7466266-1.2642961.8999591-2.5928096.0741342-3.8009107.5900893,1.1253387,1.2482752,2.8114662.9105115,4.2690477,1.573615ZM239.0803917,77.8634904c-5.3880226-2.6169931-7.8440754-7.5983362-10.1657155-12.6904984,5.2985296,3.8154038,9.5548866,8.5323289,12.4672887,14.4133021-2.9729273-3.3290625-5.7006323-6.8713882-8.8408949-10.0583085,1.740225,3.1224812,4.5514552,5.4067049,6.5393217,8.3355048ZM238.6951986,96.6219061c-.5736932.1497392-1.0054752-.0052634-1.4396438-.2042009-2.1143664-.9688037-4.2504746-1.8852505-6.4571796-2.6266834-.3183715-.1069406-.6522689-.1677476-1.018472-.1540406,2.4199498,1.3138856,5.1277215,1.997804,7.6251995,3.4036352-4.5128576.2777421-14.1852658-3.3656061-19.5108927-7.3615688,4.3349895.2769415,8.4430691.7198336,12.4725843,1.7804862,4.0569654,1.0679673,7.7531291,2.7989508,10.8087808,5.7462956-1.9192366-.7355778-3.5278829-2.1031248-5.5205085-2.684082.9026727.8231491,2.1028907,1.1988687,3.040132,2.1001586ZM263.0622923,118.2958077c-.149732,1.9076852-.6187779,3.7469785-1.2024181,5.561692.0939317-1.9196433.5252363-3.767037,1.2024181-5.561692ZM272.2510809,123.8086941c-.8949546,1.8864973-2.4287251,3.2330714-3.9352027,4.6026923,1.2213888-1.6105846,2.4213645-3.2392003,3.9352027-4.6026923ZM272.8787796,127.7356447c-2.1269725,2.3682251-5.0426188,3.1321944-8.0195942,3.8939605.0246531-.3229142.2636626-.3214981.4035456-.3934529.3776407-.1942814.7624056-.3827563,1.1616016-.5255505,4.0699417-1.4558681,6.7360671-4.3679385,8.5682029-8.1756341.6370645-1.3238752,1.3369129-2.6201674,2.2837711-3.7794344-.9733169,3.2330643-2.0853853,6.4059115-4.397527,8.9801114Z"/>
  </g>
</svg>