<?xml version="1.0" encoding="UTF-8"?>
<svg id="Layer_2" xmlns="http://www.w3.org/2000/svg" viewBox="0 0 107.8570232 182.7413566">
  <g id="Layer_1-2" data-name="Layer_1">
    <path d="M31.9002065,27.4594803c.2005965.2681381.4011856.5362798.6726846.8991986.0622036-.3342078.1017078-.5464505.155908-.8376175.4996349.9340568.3896382,1.9201318.6161486,2.8310572-.6308519-1.9654609-2.509561-1.2247075-3.841274-1.7237237.6556967.8258834,1.3114008,1.6517667,1.9671048,2.4776501-1.3077982-1.2178464-2.5969023-2.4565983-3.9291059-3.6471359-1.1336501-1.0131202-1.9022505-1.0231811-3.4307085-.0865248,5.2723883,2.0883157,7.9232785,6.8223447,11.3735304,11.0177508v-1.8501445c.9931411-.760674,1.2339154-1.7089947.7102924-2.8479572.8790072-.7637091.45037-1.6937532.3236856-2.5822868-.0827282-.580225-.1982899-1.1535999-.4905772-1.6735874.655294.3170918.7477829.9898496.9789064,1.5686175.5063349,1.2678839.8456538,2.6157501,1.8158685,3.7962671.0604901-.3785668.1017298-.6366219.1429621-.8946807.0365753.5774462.255258,1.1035661.4655859,1.5986758.2770787.6522991.3839927,1.7994151,1.1703865,1.701731,1.0707948-.1330183.6128901-1.2867573.6531632-2.0171972.0864846-1.5683722-.3377738-2.7718155-1.7112098-3.9020644-1.0874972-.8949517-2.3819174-2.0768819-2.3749757-3.840216.8479017,1.4987547,1.7156471,2.980635,3.3449781,3.9966146.2297542-1.5382772.2003548-2.951243-.0746955-4.3495018-.2246139-1.1418182-.6638172-2.1227309-2.1365812-1.8954334.5284924-.8126701,1.1028302-.6627775,1.6220818-.0238636.8145996,1.0023233,1.2855235,2.2119321,1.0771653,3.4587532-.4200993,2.5138226.9528314,4.8174491.6874539,7.2940704-.0735679.6866045.4463354.4981046.816789.4182467,1.7292008-.3727345,3.5021016-.259721,5.2442265-.4846387.5910768-.0763101,1.1772036-.0309663,1.8467103.2348212-.1755613-1.215668-.3454697-2.3009978-.4835623-3.3903622-.0611272-.4821784-.4048688-.6582449-.7700063-.8254294-2.7467181-1.2576179-4.1986426-3.7182032-5.7042693-6.1295858-.1062696-.170194-.2454533-.3734411-.1076975-.5450886.1736208-.2163359.4981412-.1990112.6494214-.0306185,1.258006,1.4002431,2.743196.5260797,4.129102.4044038,1.0240561-.0899078,2.0150664-.4197625,2.9472853-.9456921-1.0056843.0758342-2.0107755.1609788-3.01717.2258477-3.8255895.246581-7.2795978-.8887606-10.382791-3.0266232-2.4869495-1.713315-4.0247874-4.0612126-3.5010765-7.2277187.222505-1.3453143.4742483-2.8945715,2.2751059-3.2427998.3547251-.0685905.2047995-.3645865.2059052-.582883.021352-4.236783,1.9436146-6.0504035,5.8734821-7.2180679,2.3451224-.6967954,4.5968919-1.4358592,6.7279886-2.6912749,2.6299408-1.5492846,5.0334372-.9922587,7.1942775,1.3664376.4228159.4615275.8201939.7682837,1.4833082.8347508.910098.0912203,1.7811531.4162386,2.6319179.7754853.9924161.419054,2.0030796.7253618,3.0956512.8648329,2.4172625.3085685,4.5875266,2.4666079,5.0125758,5.0098061.3394067,2.0306539.9641664,3.904122,1.909983,5.7499646,2.9495552,5.7563387.0472,9.8230943-4.7460706,12.4142705-.3070418.1659799-.6399024.284185-.9737294.4302994,1.4339993,1.7567257,1.2917841,3.8180877,1.2948888,5.8271168.0028264,1.8320399-.6523358,3.6122558-.545927,5.4868131.9457433.0766616,1.2432368-.8183743,1.8900222-1.1347595.0000439.0000476.0261409.0241895.0261409.0241895-.156567.8043409-.8825805,1.0961193-1.4327984,1.5135239-.5553436.4212965-.8623854.9280232-.9278914,1.5948426-.1674334,1.7040485-.4877288,3.4019389-.2096835,5.1477102.4108145.1478461.351474-.4624592.6765875-.4638871-.7137851,1.7272238-.274882,3.5438684-.2907569,5.3281848-.1738478-.2062347-.1743604-.405125-.2054366-.5991094-.0248668-.1551685.0726673-.3756452-.1654271-.4495719-.780038,1.1151538-.6763971,2.2320942-.1221226,3.463747.8991144-.7610657,1.4496252-1.6627283,1.9257114-2.6250056,1.0618615-2.1462394,1.6809098-4.4517844,2.4296959-6.7107884-.1596131,2.015059-.8894928,3.8646837-1.647139,5.7078133-.3751399.9126096-.7271997,1.8347163-1.1504916,2.9064191,1.1445897-.1669282,1.8857166-.4317712,2.1844988-1.5819259.5855557-2.2541053.8421317-4.5439877,1.0049813-6.8511143.2882526-4.0836556.8791683-8.0644429,3.1303593-11.6379743.6888744-1.0935381,1.0634578-2.3850733,1.5819698-3.5859392-.096421.4654834-.2948867.9381976-.2625804,1.3945683.0376517.5317582.2797147-.1285077.4324595.0028887,0,0-.0267852-.0227067-.0267706-.0227067.0043056.1177365.0252475.2377136.0097388.3527774-.0428359.3175458-.5068694.728093-.0030168.9207008.4273338.1633549.4996789-.4102287.658428-.6840966.6619574-1.1420672,1.3060628-2.2942392,2.189024-3.2861501,1.9936777-2.2396729,4.150703-2.7117281,6.8862544-1.5196491.0365533.0159188.0696358.0397678.106233.0555366,1.9093972.822808,1.9267658.8347947,3.1471568-.9246256.8423075-1.2143427,1.6219354-2.4719789,2.4410016-3.7026651,1.2944202-1.9449144,2.4586192-3.8794785,1.6742025-6.4155355-.2575865-.8327627-.1891077-1.8273317.2653922-2.6928455.7142391.045331.4487151.8838088.9220481,1.1141158.5867273-.2695952.5320438-1.056637,1.0891008-1.3446901.1676531.2970505.0780272.5472798-.0446226.8135909-.3566729.7745682-.8967713,1.5453799-.0557526,2.3644572.148366.1444924.3361263.3434999.1833376.6288968-.1556737.2908118-.5237988.6963505-.0196679.8852166.4527717.1696301,1.0561062.2373145,1.4307774-.2484628.371054-.4811203.7963229-.8387927,1.3479614-1.0379101.380866.5237732-2.0041341.9013111.0165779,1.3951907-.2099764.2744902-.6801168.0032109-.8244555.4991077.3418817.0463213.6666437.0903215,1.1776722.1595582-1.1134257.6853194-2.1993925.7112113-3.2365191.866193-.5157588.0770717-.8552681.2368825-1.155793.6816399-1.6329775,2.4166584-3.2898699,4.8175077-4.9695349,7.2019696-.2939787.4173461-.235634.6061865.1886244.8017818.9653526.4450686,1.7030234,1.1779395,2.4070551,1.9481948.8157272.892473,1.9470635,1.1504916,2.9934748,1.6350681,1.8644524.8633849,3.3944334.3557466,4.9926296-.5430566.7269654-.4088302,1.5125684-.7324828,2.3023598-1.0058271,1.0509073-.363717,2.1024296-.6102541,2.1897856-2.0550099.0318084-.5261712.5671912-.8866627,1.2610448-1.2368151-.2859241.6164854-.5197275,1.0222804-.6618402,1.4579764-.1145073.3510603.0897723.6271944.4409974.7317835.2491804.074194.5259955-.0177055.6271761-.2382005.1466379-.3195558-.0805901-.5498884-.3802949-.5614724-.3787572-.0146448-.3097511-.2368203-.1646509-.3531618.5737374-.4600355.6128828-1.1870412.9502978-1.7525299.3942367-.6607089,1.0982537-.9477057,1.8615235-.8557111.6363876.0766982.5913843.6913054.8329202,1.0916233.3970924.6581863.4503993,1.4145511.8675989,2.0256033.5097252.7465637.3125043,1.2541471-.5809865,1.4181976-.541021.099339-1.1028961.0850274-1.7202016.126084-.1322421.0814578.0187746.2483091-.0031926.3899275-.046131.2974605.3875294.6136956.0555036.851281-.3035417.2172073-.5966711-.0728393-.8580066-.25059-.2015703-.1371078-.4403676-.3162058-.6468293-.1318394-.2936565.2622326.3722842.3572074.1840992.643937-.2221316.1050688-.4345683.0475771-.5677184-.0916835-1.0631796-1.1119759-2.2459482-.6996346-3.4118021-.2640082-1.5257926.5701165-3.0366768,1.1801838-4.5313493,1.7642274,0,.1234552-.0315155.2229334.0045252.2663551,1.7465915,2.1044836,1.8073965,2.5829019.3769559,4.8588462-.5724633.9108302-.9843029,1.7810103-.6661604,2.9046544.1824882.6445631.0139711,1.3385704-.236293,2.1115277,1.4108167-.6556052,2.6980023-1.1831494,4.0389928-1.5701113.2192758-.0632763.5900223-.1237884.5622559-.3712261-.1684293-1.5007574,1.209261-1.943157,1.8934783-2.8565976.1077854.3705378-.0901091,1.0759901.5639108.9276021.6907489-.1567208,1.2542936-.6923269,1.3524427-1.4726468.0599556-.4767635-.3465241-.5128628-.6387894-.3482851-.4669479.2629282-.8815993.6187114-1.318379.9352284.0942683-.7756995.6773051-1.1083769,1.2885037-1.4086236.1489078-.0731578,3.0364279,1.529505,3.0241556,1.6869654-.0359089.4607641-.2907715.9017102-.1205995,1.3819848-.2850015-.2408476-1.1685339-.0651325-.7246515-.8089943.5635007-.9443081-.1227816-.9483684-.6586476-.9582573-.8929783-.0164827-1.2503102.6614448-1.557147,1.3291429.3214962.3707648.8358198-.0591465,1.1867373.5265813-.2676182.206685-.6062634.3843002-.81211.6607785-.1115784.1498487-.2070768.5306672.1628496.669774.5943133.2234825,2.2684425-.6049453,2.5616743-1.261129.6593506.763083.0207077,1.0175795-.5199472,1.2743935-.868214.4123998-1.8947524.2478368-2.7486878.7287447-.52746.1705381-1.3709097.1607774-.6088701,1.0670934.0156699.2750431.0950151.6170199-.3029852.6568537-.4715317.0471927-.9489798-.1502588-1.0925277-.5829709-.3609492-1.0882294-1.0542023-.8600642-1.8790679-.6783961-2.337185.5147483-3.9508021,1.8212211-4.7728119,4.0812942-.0409614.1125669-.0849103.2241086-.1300307.3350865-1.4801303,3.6409778-1.9600387,4.8817909-7.585263,4.7306644-.8883213-.0238709-1.177394.2363443-1.4997103,1.0033118-1.0141636,2.4132498-2.904918,4.1706491-4.9849412,6.1663551,2.2065831-.2120853,4.1902731.4770527,6.0741737-.7799647,1.4889025-.9934706,3.110501-1.7933961,4.6985045-2.6312516,1.2200248-.6437027,2.5504125-.7835747,3.9602041-.6460751-1.1087101,1.1309335-2.5528582,1.7915509-3.6416075,2.9182081-1.0944168,1.1325151-2.5966021,1.6327359-4.3131132,2.1833492,2.1060322.9410131,3.6044977,2.3646366,5.823646,2.6625913,2.7743601.3725039,4.531525,3.0433182,4.3898664,6.0154849-.0514031,1.0783808-.2542475,2.1373427-.7900989,3.1572031-.5910475-.1854538-.7149421-.7305314-.9066565-1.1671427-.6024997-1.3721252-1.4548241-2.5569148-2.4671718-3.6542825-.9727043-1.0544-1.8149239-2.1753458-2.3929082-3.545926-.4744167-1.1250097-1.7749877-1.5158342-3.1224218-2.2859869,1.8527073,3.4846011,1.7959004,6.9991435,2.080814,10.5063854-.25703-.0199681-.3820815.0008714-.4019398-.0355867-1.1554122-2.1212188-3.0139042-3.5780566-4.7802515-5.1337538-1.5427659-1.3587839-2.3864792-3.1707202-3.0538258-5.0772543-.5684799-1.6240515-1.3446517-1.9156285-2.9175271-1.1073042-.3172492.16304-.5999075.3934019-.898514.5927243-3.4908837.6107154-6.9179164,1.5011235-10.3431038,2.393516-.6918034.1802476-.3153747.8963978-.4761155,1.3496382-.0832408.2347187-.0175883.5352949.294213.5260614,1.0673094-.0316327,2.2602854.3990328,3.1790677-.1757224,2.2723673-1.4215146,4.7749208-2.4118586,7.0115988-3.8846371-.3486622.6832874-.3829309,1.167992.619883,1.1720853.435652.0017793.8450753.209398,1.3363188.73234-3.0660688-.8733543-5.0721653.9914423-7.6296952,2.3418347.985372-.0176982,1.6084915.4670138,2.2843028-.1965472.1288884-.126538,1.3494259-.8520828,1.478944.4838699.0086843.0895966.5047167.1371847.7760546.19509.8188466.1747704,1.653114.2952821,2.4549581.5279506,1.4115928.409599,1.5865097.7442901,1.2566953,2.1690925-.7840213,3.3870671-1.8965098,6.6784015-2.9160041,9.997246-2.3019058,7.4936674-3.6231405,15.2160638-5.3056173,22.8542383-2.604027,11.8218428-4.2632772,23.8151316-6.4907437,35.7047503-1.7825004,9.5145184-2.6881903,19.139224-3.8532388,28.7327069-.2888531,2.3785857-.6011231,4.7561169-.9908345,7.1196039-.1163525.7056573.0218793.9712984.6919352,1.1890951,1.5207401.4942457,3.0039019,1.1061033,4.2696769,2.1186707,1.6592648,1.3273416,1.5958824,2.5926773-.2414919,3.6642483-2.4570815,1.4329742-5.2146587,1.9787254-7.969717,2.450506-6.5678043,1.1247022-13.0500394.8159469-19.3976819-1.3383837-.7216054-.2449188-1.412845-.5575403-2.0179148-1.0298335-1.2675397-.9893993-1.3075492-1.8757728-.1370456-2.9579174.8354244-.7723934,1.8550359-1.2491533,2.8745082-1.7017493.8403011-.3730604,1.0975288-.7985196.9472444-1.8161833-3.939284-26.6744459-9.3479857-53.0802485-14.4947953-79.5335147-1.2045746-6.1912585-2.6440437-12.3377846-3.4711499-18.599067-.1307776-.9899558-.2722679-1.9806878-.3415668-2.97574-.0410932-.590059-.2373035-.7037169-.8195495-.637896-1.5046382.1700768-2.8457459.7020547-4.1379767,1.5889847.2436886-1.6989082.7679561-3.2670168,2.0762961-4.3724611,1.8745866-1.583881,4.0812795-2.502656,6.5554149-2.6168997.6734095-.0310908,1.1546287-.196657,1.4897079-.866918-.8213508-.5210382-1.3732602-.5761025-2.4134255.0494846-1.6381178.9852109-3.6351565,1.3737874-5.4807465,2.0134994-.1129476.0391454-.2284215.0769948-.3458651.0961281-.6140617.1000895-1.4533597.7391425-1.7708871.2581796-.4116859-.6235954.4142121-1.2581598.8096497-1.8143381.6951936-.977786,1.7161158-1.5319873,2.8352676-1.9102978.4803478-.1623737.9639467-.3151257,1.691249-.5521657-1.415049-.4268652-2.5835536-.7546513-3.7337669-1.1374065-.5257831-.1749608-.9263244.0742928-1.3683176.2349384-1.43974.5233155-2.8509082,1.1632252-4.7144526,1.2113332,2.2437002-1.993934,4.5525183-2.4558587,7.2555584-1.5383138-.3143935-.6556894-.7682343-.7047493-1.1258225-.7462891-2.5560654-.2970029-4.9547437-1.2284675-7.4377318-1.8153339-.713624-.1686636-1.1607575-.1134382-1.6140419.5113654-.5186585.7149347-1.2367052,1.239949-2.1103231,1.5090024-.5106185.157248-1.0010639.2300251-1.6140858-.2913353,1.0229944-.0002343,1.9561359.0752887,2.6173903-1.0885662-1.1284952.6304272-2.0991565.9032516-3.0691882.2582309-.27527-.1830447-.7724154-.4073437-.4877068-.7700356.3062583-.3901654.4664792.0930088.6635536.3217378.3540661.410939.8513945.3681983,1.3365019.3134928.2509817-.0283083.5344821-.1073021.589129-.3389161.0700166-.2968052-.3868997-.3043618-.4379293-.4349637-.3826746-.9794995-1.3283081-1.0251179-2.0998302-1.3710342-.2729635-.1223862-.7345074-.1760738-.7171388-.5264788.0230948-.4660985.4717953-.57734.891858-.6291531.0963698.0637632.2724949.1753123.2635909.1928421-.3970192.7813706-.3870388.8231375.5609232.9234174.5992192.0633898,1.216144.1717976,1.8969711-.0701044-.7929254-.9627019-1.688979-1.234157-2.7540771-1.0308806.3732141-.8042897,1.0039562-.7145174,1.6049255-.379753.5450483.3036223,1.0222182.7291035,1.5236032,1.0966721.127834-.883159.1042194-1.7167601-.8962075-2.1919603,1.3130483.4234603,2.1066693,1.383863,2.7295032,2.5226754.2065276.3776295.3164291.7653127.8395762.9049138,2.1161737.5647235,4.2180468,1.1830395,6.3609399,1.7917266,0-.1128598.0179911-.2050631-.0025482-.2146408-2.3794278-1.1098597-3.7066009-3.0538185-4.4377181-5.5025379-.2893949-.9692921-.9043573-1.7512485-1.8741912-2.388632,1.8078724-.0386182,4.3251512,2.0386444,6.6052949,5.3027103.2131177-.5008431-.3658039-.8750092-.1724273-1.4530155.641506.7875873.5008431,1.7683682.907623,2.5394216.1228475-.1041022.2576963-.2183679.3925452-.3326409.0188478.0775293.0559796.1555346.0539.2324927-.0717739,2.6564039,2.1633957,2.8309986,3.934605,3.6808994.3349401-1.2449136-.4255325-2.3796401-.1111097-3.556873.1272116-.4763425.1899131-.7261819.7231724-.6340371,1.5016214.2594684,1.5025953.2538375,1.4492738-1.4024106.6306835.6726114-.3332559,2.2124556,1.2673494,2.119315-.1903451-2.7394763-1.6588694-4.5527819-4.3789927-5.1826892-1.5916574-.3685864-3.2252646-.552605-4.8291064-.8739914-.5373232-.1076609-1.0518958-.3596458-1.5558216-.5914209-.295099-.1357568-.5656608-.409372-.4886367-.7502359.0871363-.3855816.4856126-.3384182.7983146-.3559699,1.594308-.089516,3.2015767.1106923,4.7853771-.2140916.1766157-.0362165.3525357-.0757793.5677111-.2414626-1.9897676-.2749918-3.5858623-1.2598952-5.0439375-2.5202077-.3350499-.2895999-.6813763-.0311128-1.019443.0519449-2.4759.6083136-4.972603.7377366-7.4930889.3244618-.2723118-.0446445-.5684287-.021191-.8725635-.4921222,2.6029433-.8067134,5.2607604-.5210895,8.0410589-.8669839-1.0355449-.7609559-2.102869-.826103-3.1057927-1.0505778-1.5970979-.3574564-3.2072589-.657315-4.8014864-1.0264798-.6182794-.1431744-1.221482-.377959-1.8059906-.6302368-.3345374-.1443972-.894926-.2624559-.7409951-.7573752.122474-.393801.6402392-.2435751.9714302-.2059711,2.0975163.2381639,4.1913129.5091394,6.3718283.5716139-1.269612-.6696129-2.5376423-1.3422646-3.809224-2.0081174-1.7690785-.9263537-3.5535633-1.826647-5.1916079-2.9792511-.2906836-.2045359-.5414677-.4690238-.7955541-.7210709-.1462059-.1450526-.2504326-.3592723-.1245756-.5369791.1263769-.1784463.3625674-.1435259.5526563-.0671022.5926511.2382847,1.202107.4470639,1.7664351.7413392,2.1952554,1.1447472,4.3775868,2.3143904,6.5605112,3.4826314.8697078.4654358,1.398581,1.2993518,2.0803453,1.9680018.6175179.6056263,1.2142768,1.2473593,2.4955094,1.4480216-2.3560621-1.5203997-3.7302449-3.4129188-4.7836417-5.6057834-.7080297-1.4739465-.8177043-2.8150615.299141-4.1038837.5060713-.5839887.5087513-1.1179802.1641676-1.8331969-.9019482-1.8720311-1.7757565-3.7526953-2.920068-5.4956951-.300481-.4576851-.640371-.7333615-1.210147-.8513872-2.2298536-.4619027-3.805021-1.7294425-4.9164403-3.9901819,1.0754226,1.0983563,2.1214751,2.2417305,3.7081972,2.5867498-.7750661-.9427448-1.7428351-1.7136591-2.0896594-2.9454254.4127843.4511645.8077898.92058,1.2452065,1.3464347.2501323.2435092.5963123.6040593.9238494.4104923.3867825-.2285862.0437292-.6356737-.0371391-.9612301-.1892761-.7620139-.6564949-1.4604404-.5019122-2.654998.5839082,1.4566511.886476,2.7111863,1.8867564,4.0095825-.3401243-1.8165165-1.3269535-3.076225-1.3813514-4.6357005.5664809,1.1131768.9136786,2.3367383,1.7838477,3.6198271-.0896478-1.2071924-.2731392-2.1330115.0402145-3.0784912.3996406,1.4867607.1032308,3.1205144.8932053,4.7016128.3179888-1.749158.7396404-3.3137555.0383839-5.1293054.7459523.3613189.7739384.7942031.7783245,1.2071521.0072052.6788098.1166161,1.3998551-.0680688,2.0294658-.6172396,2.1042053-.1630034,3.96712.923476,5.7993064.5165277.8710478.8116633,1.8733857,1.275155,2.9785372,1.6156601-1.9211862,3.9836796-2.8189533,5.3278553-4.8842402.2373768-.3647238.6355675-.475731,1.0353912-.5320365,1.2791896-.1801304,2.470562-.6127071,3.6299869-1.1707087.8526979-.4103789,1.8470838-.6855647,2.6615076-.2012482,1.6102489.9575726,2.7736571-.0218573,4.0066572-.595613-.4000873-1.7180232-1.7314781-1.8290012-3.0880872-1.8539229-1.6535314-.0303805-3.2926451-.098907-4.6597252-1.203187-.3379056-.2729489-.6857111-.5688424-.921909-.9251491-.486484-.7338558-.2930268-1.2852782.5807888-1.5389655,1.0447418-.3033038,2.0644192-.0614823,3.0741527.1798595,1.8186144.4346965,3.3891613,1.3846282,4.9173117,2.4197521.551946.3738658,1.0714465.8169318,1.9470708,1.03106-.4627228-.7538239-.8345091-1.3784554-1.2246526-1.9914114-1.0337729-1.624176-2.0191815-3.3060816-2.4743916-5.166364-.3831067-1.5655751-1.359809-2.0098309-2.7226421-2.1744891-.7942507-.095967-1.574318-.2580405-2.0674067-.9960901.9410716.100095,1.7697961.7420623,2.9251278.6055879-.662177-.4180124-1.1979772-.7562439-1.7337773-1.0944791l.0724915-.1238452c.6224751.2690424,1.2449502.5380866,2.1807058.9425343-1.2390337-1.8224806-2.0282613-3.6045288-4.2614685-3.7383654-.7877118-.0472074-1.1931224.6065398-.8319975,1.3828983.2163982.4652289.4890029.9043115.7363454,1.3551446-.5504815-.4075433-1.0026894-.9052433-1.333302-1.5045247-.6254773-1.1337563-.3267683-1.6713907.9515866-1.6357124,1.1894393.0332015,2.2790087.3707538,3.1161612,1.2889668.2392879.2624577.4863888.5177944.8599544.9144951-.5704203-2.3207353.2407743-4.1529015,1.3679515-5.8884069.5253365-.8088442,1.0194723-.7784051,1.5863852.0679553,1.2697511,1.8956714,1.2307302,3.3878982-.252168,5.0520892-.118066-.5350643.3166049-.8713773.4900792-1.2972118.4280587-1.0507553.4053667-2.0747547-.3307077-2.9142339-.246808-.2814721-.7727302-.4143183-1.0358232-.8807902-1.607686,2.1319315-1.0485202,4.2785223-.5391758,6.4865662.7319666-.330067.7730378-1.1996156,1.4553001-1.4310136-.0070002.078624.0158017.181097-.0252842.2324488-1.9641026,2.4543411-.42945,4.6265493.5577014,7.1580665.5334936-2.2917972,1.7719928-3.8284013,3.1491705-5.2743525.4653443-.4885836.9717524-1.1640325,1.6987032-.7943697.608321.3093411.2968637,1.0868766.3001002,1.6588292.0026361.4651466-.0503194.9537503-.4129527,1.3280445-.0076153-.9273239.1379975-1.8698271-.2458634-2.7620585-1.8087365,1.2497207-3.1912082,3.2783225-3.9586956,5.2117627-.2954432.7442865.51004.6602036.4730401,1.1301683-.0084573.1074412.4451418-.1590237.6578568-.2869346,1.3502753-.8119342,2.2370295-2.0647084,3.1110648-3.3264452-.4101848,1.6994683-1.5653041,2.8582159-2.9790204,3.6914839-.9867486.5816053-1.0044322,1.1059093-.4347733,1.9334658.3588842.5213678.6856892,1.0743096.9520406,1.6478456.5100181,1.0982501,1.2206765,1.9482094,2.4865321,2.1151523.8394883.1107143.8312507.8001013,1.0434165,1.354028-1.4933984-1.5083141-3.6874236-1.5742228-5.3887555-2.7929442-.1892907,2.1959034,4.0201157,5.6192675,6.1153767,5.153213-.0691891-.3432656-.1387444-.6864727-.2083069-1.029676ZM35.7510216,68.0117089c-.0685228.952004-.8998613,1.6742757-.8247191,2.746535.6287284-.7175781,1.0144126-1.4956317,1.304115-2.3214053.0907242-.2586116.3549155-.6394118-.2335179-.6983056-.2817137-.4385444-.9300808-.5478747-1.106982-.3345666-.3797457.4578974-.0968091,1.074024-.0096289,1.7100748.407849-.3979491.4480488-.8961416.8707329-1.1023323ZM37.9820834,66.4921256c.8855607-.1737746.1339702-.5138696.0128654-.6119089-1.0403411-.8421683-1.2025244-1.8733638-.8205161-3.0965006.1758542-.5630394.4156546-1.1609919.1166528-1.8040648-1.5220728,1.2075988-1.7171995,2.1602251-.7213638,3.6917951.424954.6535806.9634195,1.2333735,1.4573284,1.8516017-.7539191-.0083622-1.1097938-.7036143-1.7050956-1.0055305.0815786,1.4268014.1920513,1.5012187,2.1349629,1.3917858-.1891589-.1661886-.3319965-.2916795-.4748341-.4171777ZM66.8472081,60.7224529c.6870145-1.1214437,2.0492838-1.5643595,2.8294243-2.7961954-.7181785.0727332-1.2272594.3460188-1.748012.6097854-1.3554595.6865605-2.1492928,1.9744272-3.2181253,2.9670264.0558551-.187797.0653156-.4095551.1743311-.5584409,2.9207636-3.989413,5.4197584-8.3012668,8.9976466-11.7899978.193135-.1883315.4894568-.6080134.4575606-.6399024-.5719947-.5721411-.648411-1.5333566-1.04688-1.9780078-1.447575-1.6154038-2.7624539-3.2667532-3.6254251-5.5694022-.136079,1.0182531-.2684383,1.7515341-.3272077,2.490662-.345909,4.3511347-.8828588,8.6534547-2.6682735,12.7093329-.6594824,1.498114-1.3467166,2.9792694-2.057192,4.4523921-.1071703.2222048-.6612398.6932385.1355811.8413482-.1351564.2312992-.4069776.4121033-.3228142.761776.6429778-.2118143.9361803-.9120384,1.6209395-.9522383-.2726852.6873587-1.129037.9061293-1.4007557,1.6244543,1.9509004.1928128,2.5417721-1.1853168,3.2750201-2.6735309-.4587322.213601-.7672824.357266-1.075818.5009383ZM26.2820996,58.3928539c2.4620022.6779714,4.8617788,1.6381984,7.6096245,1.7428058-.3226971-.4860666-.2458341-1.0581784-.8679797-1.1433303-.1607042-2.924974-1.5574399-4.3105943-4.8039028-4.7647793.234067-.3247693.9659897.2708839.9499317-.5163226.6706051.1745435,1.1894539.752396,2.0672969.8013534-.7108855-1.2886355-1.3458818-2.4740548-2.0130234-3.6411023-1.0506583-1.8379528-1.0636189-1.8381285-2.7308578-.6612398-.4129453.2914964-.9318015.4441606-1.2311841.892517.7125257.5251534,1.6588914.6389797,2.2170687,1.3792792-1.0810828-.2540571-1.9727797-1.0593353-3.1910325-1.1806158.2213554.7146199.8937178.9129318,1.1745236,1.4456053-.2822117.1877091-.4291424-.2761927-.6281719-.1305579-.245219.1794275-.0647078.4259792.0276932.6268905.1493838.3247839.3107323.6453063.48737.9560752.7790641,1.3706461,2.0164357,2.3505483,3.0216293,3.5287111-1.9842611-1.0108173-3.1366126-2.7104211-3.9320788-4.7164736-.2693975-.6793773-.3354087-1.4846189-1.1174091-1.9474296-.5319559.9018457-.3576834,2.1935493-1.6154111,2.6461526,1.3252034,1.1475846,2.5749571,2.2298316,3.8247181,3.312086-.2833393-.0678784-.5666786-.1357568-.8657683-.2074063.0135977.597623.4622249.8233279.7728474,1.1468743-.5538937.4538847.1059474.6291678.2137401.9311718-.4419419.4120008-.0581982.8244701.0262434,1.2166712.2001644.9295975.7187058,1.8380333.595807,2.778153-.1508629,1.1540136-.312021,2.0795618,1.3324233,1.926202.244128-.0227653.5051414.2158563.7684247.3031024.8167304.270657,1.592082.6950838,2.7013926.7509608-.4823541-.3988058-.8146362-.6604343-1.1324419-.9386113-1.202744-1.0527159-2.4733006-2.1072477-2.8603028-3.7230543-.2054219-.8576405-.4965376-1.541997-1.1790562-2.0688126,1.228863.3254869,2.300185.9656675,3.3387321,1.6713321-.1828836.0772364-.7661694-.0930161-.3354746.3945076.8926268,1.0104145,1.7140069,2.107277,3.0133258,2.6794328.9397609.4138387,1.8494196.8960537,2.7725002,1.3477783-2.8565317-.5116876-5.1727381-1.8817699-6.7647176-4.3853851,1.5493999,3.7632761,3.7324489,4.9893273,8.0475831,5.7383623-.7747512-1.2901512-.8347215-2.7454879-1.3063923-4.0809866-.2291464-.6487771-.4534088-.9500123-1.2681402-.8162398-.7538898.1237994-1.6681688.4705871-2.335186-.3444372.9359094.1917803,1.8826192.4899328,2.7688024-.3486988-2.7754145-.1838722-5.2650513-1.1092446-7.5531471-2.6005415ZM30.9501063,44.5097845c.1364744-.6532035-.2634298-1.099418-.6120773-1.7152993-1.5273156,4.0444663,1.0863549,7.1462976,1.937991,10.5867814.1728227-.4970575.0606805-.9608201-.0622475-1.4224006-.5436644-2.0415368-1.1064987-4.0782261-1.6215546-6.1269315-.1227157-.4881095-.4584173-1.1277117.4011929-1.3659817-.3011693.6623381-.1643873,1.3096873.0564335,1.9591088.435469,1.2806907.8919898,2.5552819,1.2852819,3.8489699.394039,1.296097.9404492,2.673919.5236084,3.9770528-.7076343,2.2122067,1.087585,3.504313,1.5140402,5.2811532-.1967742-1.7032284.3515033-3.5050306-.7107097-5.064323-.1691395-.2482944-.2232299-.6033417-.2492829-.9158095-.1148075-1.3769873-.7565331-2.8387457.6179059-3.9982072.1585953-.1337871.2947842-.3805878.1016346-.6377715-1.0881928-1.448915-1.7535404-3.2029094-3.1822163-4.4063417ZM62.7687624,13.6034488c-.0513006.101371-.0755083.2435605-.1578265.2982257-3.1543035,2.0946716-6.2012316,4.440442-10.2585596,4.4605566-.1497133.0007396-.324762.0032548-.3439246.2533688,1.3888349,1.2634429,3.0629641,1.5558583,4.8803557,1.404988,3.309201-.2747135,5.7854378-3.0443031,5.8808484-6.4203646.7343756,1.2936989.0445933,2.3936441-.5645551,3.4367897-.4610314.7895058-1.1296667,1.4577787-1.7423152,2.225603,2.0764352-.2486788,3.499202-2.9577892,3.2269707-6.0027788-.4026281-.1435936-.5134889.5054031-.9209937.3436116ZM55.7929407,3.8574664c-.28733-.0040127-.3914322-.249034-.543679-.4229532-2.539612-2.9011397-5.8162358-2.9458043-8.6644932-.0283156.2798758-.0717739.4656738-.1036208.6402612-.1665602,2.6586006-.9585062,5.2517539-.8394133,7.7705337.4715024.260142.1353889.5223709.1834951.8069404.1470095.1874015.7598337.8860733,1.0126204,1.4482267,1.3183186,2.486188,1.351996,3.6736283,3.5385304,4.1677421,6.2088688.0506123.273542.1274533.5425843.1704502.8171093.0760209.485371.4873919.6560372.844387.7404404.3654012.0863912.4712534-.3536689.6271028-.6053151,1.5686578-2.5329267.8914113-5.2024413-1.6309419-6.7923944-1.7351393-1.0937468-3.6592764-1.448353-5.63653-1.6877104ZM88.0312054,31.8131266c-.8383387-.8914699-2.3570433-1.0803762-3.7678306-.244311,1.510357-.3813786,2.6315591.0807951,3.7904714.2174819,1.8198592,1.0141306,2.8049236,2.4011715,2.1672326,4.5973605-.1138629.3921352.0191553.8694735.0892158,1.2991504.298006,1.8279431-.6009473,2.6694853-2.3982682,2.2031892-.7471166-.1938379-1.3864624-.5989556-1.9273663-1.1509456-1.0301264-1.0512551-1.6387183-2.3254106-2.0390618-3.7297726-.2698588-.9466769-.2089806-1.9230131-.2239475-2.9209723-1.0915611.3253624-1.3756107,1.3344846-2.1280286,1.8296053.3168538-1.2370311,1.3670435-1.9001344,2.1569813-2.7686266.1867352-.2053011.6549279-.3514081.3684766-.7248236-.2159222-.2814721-.6000833-.4026464-.9797484-.2463137-.4076952.1678764-.8256857.3572404-1.0677487.7383517-.7053351,1.1104894-.6081525,2.453402-1.3578466,3.776936.6686793-.2429051.532366-.7507338.9219017-.8172796-.0861551,1.0416994.0546542,2.0737589.2233324,3.0911626.2012921,1.2140718.6391555,2.3696011,1.9439734,2.7889645,2.1689168.6970828,4.3815921.6292337,6.5912506.161722.59692-.1262963.844636-.4830424.7894985-1.1087247-.0976805-1.1082451-.269522-2.2293081-.1903232-3.3291654.1132186-1.5724105-.5492221-2.6564369-1.6984395-3.6019276-.461705-.3798482-.8305184-.3052991-1.2637248-.0610613ZM42.8696662,43.4667781c-.7203533,2.9583054.4566892,5.3778598,2.1822069,7.6348794.1382025.1807748.3482009.336119.5578332.4279196,1.1556465.506086,4.9111096-.2102547,5.8171291-1.1151611.17149-.171285.4587029-.3404172.3237954-.701425-2.3181029.2863122-4.5059187.1065113-5.9869276-2.0130893-1.5134104-2.1659439-.6138713-4.3219513.3741294-6.6116178-1.4111388.6636744-2.442056,1.3806192-3.2681005,2.3770809.2040233-1.3391233,1.5472618-1.7974857,2.3005292-2.8288825-1.6885617.2420887-3.2988032,2.2234795-3.6315246,4.3298449-.3985422,2.523144.8264618,5.1198339,3.0188761,6.167578-.8680383-1.20013-1.579839-2.3430722-1.949143-3.6532208-.3846078-1.3644514-.62052-2.7278996.2611964-4.0139064ZM77.6052709,48.02399c.4816951.0736924.9633902.1473921,1.5602956.2387168-1.118566-1.3627745-2.8121435-1.91021-3.7034376-3.3290446-.8699567-1.3848478-1.6083743-2.8202933-1.5224829-4.5233057,1.1244679,1.6020991,1.1934593,3.7888239,3.0744163,4.9668439-1.9205858-3.8780433-3.5004468-7.8349743-3.2612834-12.5657924-1.2409376,1.3422097-1.8481968,2.6323938-2.5878884,3.842885-1.3804874,2.2591394-1.0543781,4.4169628.2401593,6.5363694.581543.9520808,1.5296002,1.5478586,2.3375804,2.2664179,1.2155728,1.0810388,2.518238,1.8568591,3.9076001,2.6020865-.4261769.2012335-.8141017-.5012385-1.304569-.023578,1.4994906.9883156,3.1709399,1.5704225,4.7270325,2.3947681-1.403919-.0092335-2.5673126-.9889966-4.1712495-1.0149691.6282891,1.3060994,1.5165664,2.0590226,2.776425,2.3306095,1.1767496.253669,2.103484-.257008,2.943214-1.0219619-1.5821895-1.2375619-3.3779434-1.8186876-5.0158123-2.7000453ZM81.7593861,42.7012128c-.1648267,1.3664797-.9312597,2.2940818-2.2808173,2.9047166,1.7053958.0682445,3.4407108-2.5130794,2.8754381-4.1499817-.2233178.4641031-.4226182.8782859-.6219186,1.2924651.3585767-1.3759841.3105126-2.6579709-.2563124-4.043335-1.0495892-2.5652513-1.800572-5.2323898-.2682772-7.928946.0414886-.0729931-.0134292-.2007502-.0245446-.3147523-.5192296.1494973-.844387.5117169-1.1902374.8378994-1.8429979,1.7381671-2.4688852,4.0492112-2.9606413,6.4066791-.4743581,2.2739819-.3865775,4.5108357.5297299,6.6926948.3888181.9258484.8446653,1.1773061,1.8177064.7099262,1.1100867-.5332007,1.7720587-1.4145804,2.3798744-2.4073663ZM42.661535,54.7480904c.281992.0264265.3671512.2822849.51633.4555396,2.6777633,3.1101715,6.684523,3.7277406,10.2103564,1.5649673.1671039-.1024986.3692234-.2100204.457502-.3692747.8378994-1.5113895,1.475195-3.0938939,1.5726997-4.8456769.0335877-.6036053-.0910611-.928587-.8092542-.5491049-2.1257514,1.123223-4.4031345,1.8612672-6.7151964,2.4845771-1.7234601.464634-3.4638495.8664786-5.1946613,1.2989747-.4314197.1306458-.6790624.5239672-1.028596.7703871-.8490147.5985529-.7780683,1.7595667.0536584,1.9560334,1.0157525.2399249,2.0580194.3880419,3.2431385.1279951-.929473-.9486283-2.0421372-1.5990237-2.305977-2.8944177ZM63.1049033,31.0930186c-.2028591,5.1242713-.0010984,6.9026932.9975564,8.3652241.0518863-.7301836.0597652-1.3818676.5316337-1.9430215.403375-.4796815-.2186608-1.0634102-.0047742-1.6084512.610979-1.5569603.3635852-3.1448686.1194426-4.7183005-.1211414-.7808105-.2112505-1.6149279-.9715327-2.3369799-.263298.8626527-.479352,1.5705213-.695406,2.2783863.0311933-.4366991.0036612-.8876183.1052811-1.3072636.2450945-1.0122451-.2072671-1.3802787-1.1493932-1.407269-.4353006-.01247-.8837082-.0342101-1.2994287-.148798-.5646576-.1556407-.8576698.0330459-1.1588977.5153744-.8921509,1.4285331-2.0795692,2.6904713-3.6718196,3.1597-1.5724288.4633965-2.2543543,1.3073808-2.6976362,2.8209853-.6031001,2.0593448-.7440998,2.0199284,1.4400988,2.0334748.3818326.0023724,1.0355815-.1463303,1.1009996-.007381.3854718.8187038,1.231089.8411578,1.8480503,1.000533,1.1264669.2910058.678667-1.0359586,1.1792026-1.457127.0490233-.0412433.1105459-.0676368.1702159-.1032784.1692933.2477452.0522525.4794215-.0666849.6741967-.5185633.8491941-.3489624,1.3770019.4717806,2.0471054,1.5482869,1.2641019,2.8667684,2.7637609,2.9324355,4.9679057.0141761.4752368.0997161.9914423.5383996,1.4184759.4259426-.8369255.0067952-1.6443125.0086697-2.6653335,1.0339047,1.3060774-.0079375,2.8053447.9569026,4.0349033.0754205-2.6652384.2851919-5.1241468-.5739131-7.6077244-.8968738-2.5927249-.8161812-5.3242673-.1111829-8.0053367ZM48.691877,168.7864159c0,1.4329156.0637706,3.8336441-.028052,6.2283976-.0431215,1.1245411.3565264,1.4087371,1.3680247,1.2497683.9455822-.1486003,1.8997097-.2446113,2.8514427-.3516058.6193485-.0696358.8475649-.3644639.8451778-1.0184106-.0159115-4.3565789.0366997-8.7126452-.1027476-13.0692533-.2109869-6.5917924-.3398754-13.1812417.3014402-19.7652871.5693073-5.8446905,1.0180225-11.7010822,1.5338399-17.5510741.5438328-6.1676365,1.0759791-12.341995,2.2718108-18.4242087,1.7091449-8.6930285,3.9561328-17.2776053,5.2454273-26.0563496.6033491-4.1083943,1.3705582-8.1951436,1.6098388-12.3501595.0931699-1.6178934.0757719-1.6414568-1.4891075-1.5439448-4.3869155.2733662-8.7667868.6247304-13.1377468,1.1028961-.990959.1084078-1.2374008.4687052-1.2334175,1.4077486.0305343,7.1987954-.4730108,14.3785892-.8612431,21.5613851-.5377113,9.9484131-.5487095,19.893414.0082011,29.8405676.2972079,5.3085023.5172819,10.6165945.1912604,15.9361242-.3494018,5.7009962-.8454487,11.3997664-.2550969,17.120782.5047093,4.8911269.7348296,9.8020828.8809476,15.6826236ZM38.5890863,68.1663574c-.7740922.0869239-1.5628511-.4795936-1.9847444.3284378-.8410846,1.6108859-1.8909521,3.1465344-1.7590176,5.1287087.5177066,7.7777536.858856,15.5695442,1.5115945,23.3354428.8337183,9.9191016,1.5712792,19.8440099,2.2843321,29.7717593.4466795,6.2191128.9086116,12.4410228,1.7767963,18.6177391,1.2745106,9.0675167,2.4199717,18.1430881,2.6953223,27.3086368.104212,3.4689166.1387444,3.4678622,3.6610118,3.5808757.1199039.0038516.2409281-.0013034.3595213.0132681.5545235.068186.7928887-.1370602.7815024-.7302458-.1265306-6.5934473.0159481-13.1940559-.7652102-19.7657411-.5382971-4.5285229-.8416484-9.0671946-.4544925-13.6400617.5910914-6.981416.7263576-13.9797028.2312992-20.9720291-.8975987-12.6778284-.4588493-25.3329868.4436554-37.98846.3497825-4.9048783.6152186-9.8167275.6287577-14.7382935.001794-.6498974-.0902702-.9488846-.8552022-.7888248-2.0412072.4271508-4.1333196.4015005-6.2017295.5899345-2.2654184.2063811-2.2500707.1748876-2.8075524,2.3976971-.3699264,1.4749899-.493367,3.0137797-1.1520512,4.4269689-.2213188-1.0126186-.2603178-2.0107535.2250752-2.9599749.2267447-.4434284.4476827-1.125471.1245243-1.3061799-.7921345-.4429817-.2444502-.9389774-.3357602-1.3932283.2925289.2786383.2364541.7356863.6914153.9711154.2861291-.694725.5563174-1.3507659.9009524-2.1875449ZM54.4469197,157.5807802c.1222544,7.0657551.1888514,12.02416.01824,16.9809979-.0286085.8311335.1539603,1.1147291.9685306.7124964,1.0011151-.4943921,2.0049322-.9863971,3.0290762-1.4297816.5070598-.2195248.5596125-.5816895.573298-1.0508048.0571218-1.9580617.1374629-3.9154643.2167569-5.8728231.2928657-7.2294688.5480944-14.4660403,1.8201374-21.6087536,1.673397-9.3963793,3.3418148-18.7948088,5.1495481-28.1658819,3.1687139-16.4261522,6.2640136-32.8769369,11.9626667-48.681317.3880127-1.0761402.0353671-1.379206-.9280818-1.5819479-3.5060264-.7377879-7.0561921-.804297-10.6166823-.8327371-.8416191-.0067219-1.1414704.1700402-1.2149138,1.0865746-.7444219,9.2920793-2.2131586,18.4775229-4.1927773,27.5839581-1.3315007,6.1250789-2.7478018,12.2287252-3.4769053,18.4740375-.6861139,5.8770261-1.1552438,11.771333-1.7112171,17.6591084-.9057265,9.591667-2.0118226,19.1703441-1.5976763,26.7268741ZM27.8801347,67.9060397c-1.2120801.4723664-2.4830027-.0361799-3.2196703.9051627-.6465291.8261689-1.3569679,1.466474-2.317583,1.8001766-.7108781.2469471-.8700007.6669878-.7569286,1.3616689.2951137,1.8130494.4613316,3.6501234.8217682,5.4490113,3.3489688,16.7142877,6.8129208,33.4061469,10.6357864,50.0179653,3.4304302,14.9065397,5.8825692,29.9354803,6.5384196,45.234016.0847931,1.9776856.2034009,2.0906699,2.0611095,2.5957234.6150942.1672138.7424888.0444908.6951643-.5923948-.5448506-7.3324507-1.1124958-14.6625143-2.1197178-21.9497419-1.4066795-10.1772373-2.4455122-20.3919066-3.0009656-30.650188-.5813673-10.7368865-1.761844-21.4300071-2.321149-32.1656707-.3593236-6.8970183-1.0545831-13.7877101-.6006251-20.7149698.1439652-2.1967638.3004956-1.7864325-1.7795056-2.2397681-.5409771-.1179049-.8512481-.1302651-1.0478685.5232862-.3452061,1.1474381-3.5976586,4.3324443-4.8348032,4.8405.1863764-1.4544287.718347-2.7885435,1.2465685-4.4147771ZM48.8600354,181.4474468c3.3864081-.1035677,5.8155987-.2642206,8.216708-.6970315,2.3141927-.4171411,4.6657735-.7518029,6.6772592-2.1085218,1.118156-.75419,1.1127081-1.4406773.0206345-2.2293557-1.2062734-.8712162-2.5732583-1.4300013-3.9479903-1.9757965-.4438092-.1762203-.7250543-.0274882-1.0848245.2062713-5.7856502,3.7591316-11.9091035,4.0552485-18.1206011,1.3726964-1.4227668-.6144498-2.3627327-.6844078-3.5182694.1701134-.7249591.536115-1.841116.8540525-1.8102302,1.8891581.0330605,1.1084904,1.225912,1.251965,2.0350418,1.5653334,4.017055,1.5556825,8.2420947,1.745991,11.5322721,1.8071329ZM44.2794065,26.1887224c.9987353,1.5975372,1.9611737,2.8382405,3.1788334,3.9006182,2.0847314,1.8188816,4.4458825,2.1518117,7.0558333,1.5557374,3.0454783-.6955487,5.9519047-4.5810316,5.8414833-8.7312184-.0126238-.4747425-.1914655-.5852152-.5804007-.37019-1.5310647.8464519-3.2381593,1.115443-4.9099234,1.4794859-3.4533053.751986-6.6999512,2.4540135-10.5858259,2.1655668ZM73.4671331,53.2434668c.9142571-.4378341,1.8325708-.8674671,2.7405014-1.3180495.3075983-.1526422.8710844-.1534184.8478871-.5333179-.0316912-.5192223-.5627831-.8340991-.9181819-1.2020484-.3782007-.3915347-.6641101-.0109396-.9274081.179054-1.5003254,1.0826205-2.7471648,2.4321196-3.9513733,3.8228729-.7318128.8451778-1.4543262,1.6984103-2.3442584,2.7388831,3.8523162-.427202,6.72484-3.6700403,10.6260111-2.4278946-2.3894814-.0599263-4.4118774.9173179-6.3549575,2.1729148.7726131.2015118,1.5246796.2469105,2.2658504.3623551,1.2999266.2024783,1.4494056.2875643,1.9790183.8646334-6.3441497-1.5220948-7.5334352-.0605268-9.1899908,3.4518701,2.9305902-.5148069,5.7274739-1.2861166,8.502039-2.1456902.5285144-.1637356,1.2204788-.2364468,1.5268617-.607369,1.6093555-1.948301,3.6758909-3.4434567,5.2573921-5.406439.4047223-.5023442,1.1504476-1.1383584.5847063-1.7327009-.465542-.4890834-1.1830908.1349294-1.6661918.4979069-1.3481957,1.0129627-2.7179924,1.0582223-4.1209009.1947239-.4793227-.2950258-.8586949-.225639-1.3291722.0016622-1.1041849.533479-2.2457724.9820989-3.5278324,1.0866331ZM63.8422958,5.9728457c1.7109169,2.8278463,1.2525655,5.8368684.9248746,8.8024431-.247672,2.2415108-1.0604996,4.2989152-3.4077894,5.0670469-3.3604503,1.099678-6.7294897,1.6928416-9.9480616-.6372334-2.5582987-1.8520776-5.500927-1.6163923-8.4305799-1.2074743-.4406239.0615006-.5437742.2092405-.5119805.6924441.1019934,1.5501505.4332796,1.9942891,2.3312612,2.255427,2.6085888.3589099,5.2268358.7578475,7.8519293.8615873,4.257844.1682718,8.3727405-.5018756,11.9543192-3.0635243,2.1137354-1.5118068,3.4203107-3.4538911,3.0456833-6.2045157-.3670121-2.6946706-1.2659801-5.0890525-3.809656-6.5662007ZM30.145846,35.7443963c-.5243113.9793603-.9828897,1.8540583-1.4586244,2.7193214-.4509411.8201609-.7931523,1.6494126-1.4639991,2.4047449-1.2941053,1.4570758-2.7579726,2.4707524-4.5596503,3.1433272-3.3762227,1.2603565-3.7233692,2.5454626-1.6673121,5.5148029.5068182.7319446,1.0839019,1.0578855,1.982123,1.0374487,2.6684639-.0606952,5.0134911-1.9559089,5.7670221-4.8725427.4485541-1.7361754.8816432-3.4718016,1.4205408-5.18482.4814315-1.5303471.4595449-3.1006561-.0200999-4.7622824ZM56.7233363,22.8404017c-4.3930736.3595213-8.7021815-.1257728-12.9573601-1.1545884-1.6654522-.4026684-2.3572336-1.3233765-2.0065651-2.8386908.2118143-.9153005-.1845971-1.0340146-.8328103-1.2784244-1.226161-.4623348-2.527164-.8095288-3.4914256-1.8203681,1.470245.4931986,2.8170495,1.3533909,4.6356639,1.3761196-1.5681086-1.3426856-3.0553196-2.468585-4.6149562-3.4962181-.7040317-.4638725-1.3852542-1.4910864-2.2652207-.9591268-.8161007.493356-.9169737,1.6300504-.9392557,2.6004811-.0127263.553945-.0063192,1.1403501.1557616,1.6610002.9201589,2.9557206,3.1820479,4.6115659,5.8049154,5.9205759-.545041-1.1061912-1.473401-2.0314172-1.3417227-3.6772162.5772961.9408739.9872685,1.6543222,1.44108,2.3387044.8082584,1.2189265,1.9134172,2.0953013,3.3702769,2.2971792,4.4124705.611422,8.7511682.0577882,13.0416187-.9694275ZM54.2956614,60.3298637c1.4074044-.8775427,2.1658341-2.6663843,1.7763936-4.0995855-.0807585-.2971859-.2660878-.5335888-.5219755-.612546-.381525-.1177291-.4154057.2877547-.5351045.5061665-.2440035.4452224-.369055.9264123-.9426752,1.1541894-2.4957949.9910688-4.9939477,1.8943204-7.7594037,1.5951282-1.5833904-.1713143-3.1804297-.2199934-4.7616087-.4063699-.6753134-.0796015-.9030392.3406662-1.2342449.7314467-.3887742.4586882-.1150931.779789.1536088,1.1501767,1.0286106,1.4178535,2.6158526,2.0575288,4.0413433,2.9154329,1.4074703.847067,2.9231873,1.009016,4.4827654.4808457,2.1979647-.7443487,3.9165261-2.0964033,5.0874251-4.1184845.0689841-.1191277.1647168-.222754.2655313-.3569292.2167496.3878442-.2278577.6299-.0520548,1.0605289ZM60.4413894,27.4011137c4.3180339.2385849,7.7854714-1.7936853,9.1287757-5.2470419.9732608-2.5020446.4414806-5.4269161-1.3139709-6.8580779-.9797777,3.5345288-4.0302938,4.9782156-6.7484766,6.7851361,2.2342324-.7364113,4.4035153-1.5506154,5.8225916-3.6156387-.4764377,1.1428287-1.2445255,2.0653931-2.2927821,2.548117-2.7408529,1.2621834-3.5621597,3.8094217-4.5961377,6.3875055ZM39.0455046,13.5788456c-.3151331-1.4972097-.1106118-1.8559493,1.2499148-2.4595876.9386406-.4164546,1.872961-.7943752,2.9943974-.1570466-.3380521-1.7306488-.1800206-3.2246532.4053081-4.6512038.1644459-.4008085-.2519117-1.0272395.5136134-1.2302469.2765295-.0733318.7987466-.2936657.6359995-.7177831-.1608726-.4192078-.7578585-.3665087-1.0622716-.2973671-1.9032903.4323112-3.796527.9367935-5.3317435,2.2497668-2.5714277,2.1992076-2.3234189,5.7806142.5947819,7.2634684ZM14.0236309,42.5364593c.3215328,1.091865.8983163,1.9938059,1.9065927,2.3525144,1.1989803.426565,2.7924976.4954173,3.6706847.0428872,1.3432677-.6921878,2.70088-1.4828725,4.0338598-2.2648802,1.3357477-.7836259,3.1909666-1.1161899,3.017873-3.3552734-.0450326-.5824876.4575899-1.1863639.5751799-1.8057563.7714488-4.0636106-.7968941-5.4447204-4.0425881-6.7532288,1.5417993,2.5907405,1.6198265,5.2473421,1.3927011,8.0577832-.3627578-.6455626-.498046-.1708713-.7142171.2513625-.3810125.7441949-.7839994,1.4794603-1.2195269,2.1929891-1.5345794,2.5141228-5.7700462,3.8343324-8.1260131,1.5605995-.1318247-.1272189-.3282108-.1875407-.4945459-.2789971ZM61.3571695,44.6308819c-.5086561,2.6682954-1.6587523,4.6554123-3.0977601,6.4901579-.6642346.8469059-1.3874436,1.6473367-2.0666891,2.4828563-.1913922.2354363-.4657763.4504139-.3871486.8261982.2370326,1.1328813,2.1215557,1.9319135,3.097555,1.2749427,1.9234342-1.2946984,3.4107111-2.9819714,4.459612-5.058531.2683797-.5313262.3445763-1.0678366.1966351-1.6215253-.4033018-1.5096467-1.1315998-2.8583111-2.2022043-4.3940987ZM42.3294433,11.4013269c-.8744087.0036703-1.4684364.3430148-2.0969598.5944213-.758664.3034539-.8281679.668844-.3302171,1.3114136.9591359,1.2377102,2.0719246,2.3180315,3.2085622,3.3839606.3988058.374005.8387707.3814811,1.325943.3775124,2.0412146-.0166438,4.0689853.0820948,6.0238471.7663854.2169547.0759404.4976725.1399672.69761.0677539,1.8581113-.6711067,3.9102069-.7034533,5.6621876-1.7148563,1.2751404-.7361257,2.4800445-1.6033512,3.9151422-2.0365722.3017258-.0910794.6734828-.2608852.4437945-.6668157-.2082044-.3679091-.5276503-.2659395-.7879608.0106486-1.025938,1.0900765-2.3764402,1.4011529-3.7831856,1.570384-1.4026376.1687368-2.8015334.5097984-3.9431429,1.2896423-.8647432.590718-1.5646231.3821548-2.3566845.1604186-.5348409-.1497243-1.2352847-.6822623-1.5401664-.5014619-1.0302728.6109826-1.6613737-.0662455-2.3496696-.4997997-1.1374944-.71652-1.9266121-1.7740431-2.5896751-2.9315916-.3694065-.6448944-.8500106-1.1602578-1.4994247-1.1814433ZM46.9081831,13.0935662c-.6759284-2.7533375-.0149962-4.7303019,2.042518-6.1870372,1.8897439-1.3379554,3.9389838-2.049822,6.3601711-1.6276011-.2881208-.4730529-.6038177-.7274761-.9677178-.8806547-2.0547683-.8649189-4.1902804-1.3787154-6.4043103-.8663926-2.8499929.6594824-4.2503019,2.5771319-3.7696905,5.180703.3009423,1.6302463.9244059,3.1628468,2.7390296,4.3809825ZM48.3185384,12.0077147c.0187087-.9597144,1.0360575-.7923597,1.5200006-1.2500686,1.372484-1.298096,3.216983-2.0075115,5.0181408-2.4579987,1.2465611-.3117739,2.1643623.7550925,2.8095587,1.8584316.4133481.7068545.5703252,1.5635303,1.2648378,2.2368245.1222837-1.6164051-.6288675-2.7259482-1.8706179-3.7792242,1.8975496.2378564,2.2724112,1.7207032,3.0889146,3.0364553-.6251697-4.2477922-2.67326-5.5562384-6.3872126-5.6155935-2.9472267-.0470993-5.8483737,2.143521-6.3821235,4.5464389-.1454663.6549022-.1692128,1.3126877.3249231,1.8031825.4895447.4859458,1.0451446.1100846,1.5597757-.0684477.3037028-.1053598.6008448-.2296187,1.2072327-.4635338-.9519454-.0101195-1.5148237.5963873-2.15343.1535337ZM30.7924629,34.312147c.5243333,1.783661,1.1395153,3.6260438.4325766,5.3829964-.824148,2.0482404-.2114555,3.5971607,1.0364968,5.1265083.5038892.6175032.9413206,1.2911617,1.4661665,1.8890849.4593838.5233375.9699364,1.4454368,1.6089382,1.1936057.5665029-.2232592.1557835-1.2233346.1200723-1.8647893-.1044683-1.876095-.7770504-3.010038-2.0388714-3.6538688-.0876781.4659996.3176007.9065796.0680468,1.4304223-.3305979-.4994079-.3929479-1.0321766-.4478072-1.5647403-.0240467-.2334666-.0918738-.5275442.1438188-.6564436.2814208-.15392.5529784.0279642.7386299.2406608.5187903.5943828,1.0146029,1.2088289,1.5194807,1.8153559.2210625-3.990958-2.5157411-6.502291-4.6475481-9.3387924ZM46.7948913,36.8801662c-5.9471232-1.4021689-11.9705529,5.0545513-10.4521779,10.1079713.6894822-2.0433454,1.5999316-3.9480086,3.5066342-4.8912038,2.0144366-.9964874,3.7874985-2.3265199,5.6901591-3.4699857.7056939-.4241156,1.1506307-.8737058,1.2553846-1.7467819ZM16.071853,38.7942387c2.8637736,1.5851587,4.7407839,1.149547,6.4322598-1.4248317.3471904-.5284119.6385184-1.1024495.8878087-1.6844868.60939-1.4228034.1816535-2.6167789-1.1583338-3.4286216-.6661458-.4035983-1.4115782-.5277638-2.1539132-.6558432-.2905811-.0501326-.6786084-.2195834-.8718459.1058779-.1516317.2553861.1018103.5270389.2610427.7491449.2299226.3207274.2181336.6796409.1901328,1.0333519-.1906893,2.4080912-1.0271242,4.4068726-3.587151,5.3054086ZM35.4518074,48.7235404c-1.8156927,2.3773262-1.8043138,5.5241096-.1429035,7.2549799.3734777.3890817.7136314.7916586,1.2185677.1042706.6149697-.8371745,1.0891594-.5555779,1.4537477.2575645.1134163.2529734.2530027.5027836.4239948.71987.6767339.8591416.9969267.8433179,1.5699538-.0744393.42275-.6770781.8113411-1.3757205,1.242651-2.0470944.2334593-.3634095.2911303-.59785-.1898472-.809613-2.4718434-1.0883173-4.6092081-2.5499878-5.5761644-5.4055384ZM43.4196059,51.7338201c-1.5982841-1.4834473-2.6640411-2.8319652-3.0565058-4.6410385-.4018959-1.8525389,1.1074799-3.2108066,1.3065021-4.984846-2.8881058,1.1203344-4.76702,3.6821442-4.7089462,6.3061685.0231973,1.0479197.2717407,2.0793202,1.3440878,2.4669008,1.5215603.549925,3.1332809.7427524,5.1148621.8528151ZM87.9938466,68.5103772c-.1395205-2.0608898-.4698915-3.9487738-1.1947919-5.7671685-.8678625-2.1769934-2.5619526-3.0156909-4.7843813-3.08756-.6122531-.0197997-.7616881.1088325-.5439939.73595,1.1953484,3.4435739,3.5105224,5.9690757,6.5231671,8.1187786ZM75.8178059,40.4100013c.2000619-2.2200453.4020277-4.387029,1.1071578-6.4915052.7306266-2.1806289,2.229136-3.7923752,3.9933744-5.3233191-2.4673329-.7680659-5.6546456,1.1488953-6.2155542,3.6956649-.618067,2.8063881.0475076,5.5056133,1.115022,8.1191593ZM51.2126193,39.1352674c.5216899.3921132.8722486.6351245,1.2002178.9055398,1.6745247,1.3806778,2.4513847,3.2634288,1.7202016,5.2245439-.7590301,2.0358033-1.1086955,4.2728255-2.4748603,6.0880789,1.6828063-1.0920956,3.3358251-2.2015526,4.4317284-3.9327451.8566373-1.3532262,1.0171365-2.753894.1562156-4.1699718-.5584409-.9185334-1.1715141-1.8038342-1.730658-2.7219575-.7030652-1.1544383-1.7170384-1.5986539-3.3028452-1.3934883ZM82.2081891,45.6424241c1.0225404-.0746296,1.8409476-.1718195,2.6608925-.1871379,2.4184487-.0452083,3.9919539-1.3244236,5.0960948-3.3626763.4032871-.7444952.3433901-1.0651786-.6019285-1.0094773-1.1511945.0678235-2.3144563.1351454-3.4597197.0433192-1.2130539-.0972594-1.8678354.4530866-2.2409397,1.5005231-.355926.9991893-.6554697,2.0211146-1.4543994,3.0154493ZM55.8954319,13.8879634c-.9032003-.5380811-1.812815-.9250832-2.7528616-1.2429677-1.2461145-.4213862-2.4349826-.5110963-3.6464549.2459805-1.1624124.7264144-2.4651874.8193536-3.8009058.3153033,1.2647792,1.2287495,2.8750574,1.817948,4.3863663,2.5757626.2184631.1095391.4288276.136101.6831922.1048344,1.6531799-.2032032,3.052786-1.1291432,4.611771-1.5976617.1742798-.0523769.3095241-.2346382.5188928-.4012515ZM59.7528079,63.3920956c-.0002343.0031852-.0411371.360627-.0490746.7188083-.0073956.3342005-.2223512.8024664.2243869.9361071.3835021.1147197.5996439-.3162607.8155368-.587767.6068492-.7631965.9564926-1.6438512,1.1722244-2.5910444.2917381-1.2808738.6262974-2.5519795.9193242-3.8325751.2070475-.90476,1.2326779-2.0568039.6029976-2.5918499-.6601121-.5608939-1.9548691.1154812-2.9571558.3495848-.6850668.1600159-1.0268606.4172143-.3477835,1.0572265.3753596.3537732.700971.7654664,1.0180152,1.1750435.9613546,1.2418675.8182022,1.9508491-.6262535,2.5767511-.617862.2677207-.8612138.5882137-.781151,1.2374594.0484741.3931676.0089333.797187.0089333,1.5522556ZM23.2613416,67.2143095c-3.0235185-.4320055-6.7537194,2.1947355-6.9206696,4.8996135,1.2323484-.9868731,2.6923641-1.1109068,4.0824511-1.4459787.9361583-.2256536,1.8520044-.5045263,2.6712976-1.0190476.5119878-.3215475.9696802-.7188302,1.107868-1.3545735.0411298-.1892688.083336-.428542-.1311877-.5264422-.1221885-.0557526-.3899311-.0394969-.4452004.0429091-.6256237.9326509-1.9126483.4826031-2.5563876,1.3500995.4676508-.9676592,1.1582679-1.6314398,2.1918285-1.9465802ZM93.4808684,40.5295135c.4769649-.8977049.9345547-1.8063604,1.4345851-2.6910204,1.402762-2.4817579.8397886-4.092988-1.8342403-5.1489624-.6827822-.2696318-1.3686105-.5557683-1.955865-.5657743.7183982,2.8061245,3.1359096,5.0979657,2.3555202,8.4057571ZM55.9123906,41.1081056c.3233707.6434025.494026,1.1407931.7909337,1.5455703,1.1084319,1.5110929.9970366,3.0291384.4091231,4.7398942-.5173404,1.5053924-.6521307,3.1422508-.9558628,4.7210501,1.4118345-1.5654359,2.674168-3.2063289,3.2218597-5.2271434.5745575-2.1199814-1.1627492-5.0875276-3.4660536-5.7793713ZM60.1413331,45.1867234c.3890085-2.2043168-.0159188-4.2505033-1.7558323-5.7014832-2.167877-1.8078651-4.7799806-1.9956804-7.6739955-1.7171885.838844.8434241,1.7458153.2424036,2.4588389.6726663,1.599258.9650634,3.2485131,1.847827,4.839182,2.826261.6186235.3805219.9836586,1.0462612,1.270476,1.7117699.3124604.7250652.5763002,1.4710871.861331,2.2079743ZM67.2588867,53.2590635c-1.157111.91991-2.6923934.9803415-3.0796299,2.0475484-.8287318,2.2839659-1.6280715,4.6125032-2.0384614,7.3476812,2.6484152-2.7277312,4.0037136-5.7989183,5.1180912-9.3952296ZM55.9003452,11.8673521c.4151347.3950934.8345384.809959,1.2730096,1.2035879.168378.1511631.3524039.3698147.6187773.2501159.2659853-.1195268.2623094-.4034336.226093-.6283769-.2577915-1.6011929-.9095928-2.9790424-2.3877533-3.8001754-.6293655-.3496214-1.3139343-.3683795-1.8934344.157821-.6507029.5908479-.953732,1.3659726-1.0332823,2.2227985-.0206711.2225746.2090465.3074867.4186934.3441663.9362462.163807,1.7446657.6500585,2.544086,1.1263643.1794202-.3266951-.1503284-.6380718.2338108-.8763016ZM19.6125801,50.2605582c.3146498-.0241126.6598119.1086933.8207943-.1680705.1818878-.3127094-.0437439-.6118577-.2188658-.8776526-.5463517-.8292663-1.2349991-1.5815159-1.3574805-2.6328185-.0319548-.2742303-.2072086-.4449734-.5014362-.3464875-1.1934593.3994941-2.4390172.3837876-3.6706261.4900426-.4919684.0424332-.636102.2616431-.2627854.6828554,1.4025863,1.5825483,3.0909356,2.6318154,5.1903997,2.852131ZM39.5072096,65.5369731c-.0346055-1.2413549-.8780699-2.0389959-1.5727729-3.0767595-.4787296.9290849-.8263593,1.6823523-.1004996,2.5220676,1.1544017,1.3354694,2.3667234,2.4818971,4.5702018,1.775427-1.7338872-1.2964485-2.1014704-3.0355272-2.0922076-4.9343069.0016622-.3397948-.1821294-.6885742-.3197462-1.0166605-.0493821-.1176999-.2979108-.2798612-.315609-.2641474-.4427035.3931603-.8797101.7948658-1.2901,1.2216358-.3706513.3854279.0399655.6395948.2040307.9239739.5065839.8780846,1.2294268,1.678508.9167028,2.84877ZM58.3236194,62.5568982c-.1113953-.5006088.21024-1.0085107-.2058979-1.3220109-.6187846-.466157-3.5601241-.0962746-4.1014893.4450979-.1563254.1563327-.2613209.2590656-.1083199.4799524.7350127,1.0610634,1.3746148,2.2059021,2.3843557,3.0386392.6642126.5477722,1.5556093.218053,1.7231233-.6020603.1429621-.6999678.2162444-1.4141703.3082281-2.0396183ZM13.6280542,51.7858382c.198905.6218234.6138933.724981.9737221.8462615,1.9069588.6427654,3.9088815.7307364,5.8860546.9453626.6525335.0708367,1.1169405-.3934678,1.5140548-.836823.3130974-.3495482.6462435-.7911387.3814298-1.2868635-.2643011-.4947436-.7964035-.3155285-1.1932689-.2245846-2.2369563.5126322-4.5005441.5669129-6.7773341.4837234-.2242038-.0081937-.4504725.0401413-.7846584.0729235ZM15.8671267,29.6961071c-.1835719.0226335-.4377169.004906-.6527971.0881431-1.9807244.7665502-3.5031414,2.1620667-4.9020079,3.6938197-.4488982.4915401-.3344129,1.1368976.0398191,1.6682274.2643963.3753889.5183216.9905563,1.0239024.8452913.3787279-.1088178.3660455-.7328965.4048541-1.1696396.0352572-.3968325.0749079-.7940859.1366575-1.187378.0277225-.1765242.017398-.5445797.2317825-.4602406,1.0883612.4281429,1.367827-.6605258,2.004588-1.0392501.7774092-.462375,1.3919835-1.1730152,2.3262087-1.4149245.3268855-.0846393.9757504.085994.9246329-.4697377-.0383619-.4170276-.6247304-.3989376-1.0085986-.4795131-.1556151-.0326578-.315426-.0453401-.5290416-.0747981ZM46.9276533,44.1642087c.4668453-1.5329978,1.3655571-2.1706375,2.5524921-2.4280666,1.1537281-.2502202,2.0458643.2867662,2.6792424,1.1912809.4623714.6602915.7871187,1.4169565,1.231067,2.2375897.2359928-2.1323525-.7587592-3.893391-2.4196642-4.4662754-1.576295-.5437083-3.179778-.0918446-3.9330088,1.108322-.7753224,1.2353652-.559305,2.9138293.506042,3.9320202-.0573928-2.0094611.7066092-2.5872038,3.3633792-2.5433977-1.1309115-1.0090819-2.0721077-.8208529-3.9795498.9685269ZM89.9301169,45.4211419c-3.3631522,1.4435403-6.8397281,1.1292567-10.4835469,1.3161896,3.3283856,2.4232156,9.0699331,1.679665,10.4835469-1.3161896ZM24.5716147,22.619687c-1.2744301-1.5312038-4.7483552-2.50847-6.4469046-1.8759376-.4549538.1694215-.3855523.3982384-.2245553.7268153.7165603,1.4623003,4.2527769,2.5644019,5.7807076,1.7953768-.444102-.6276886-1.3654619-.1161841-1.9584058-.7982194,1.042633-.0273271,1.9185428.4022254,2.8491581.1519649ZM37.5361214,36.1435389c-1.1543139-1.192284-1.2267541-.0281728-1.4103114.6818266-.4085666,1.5802564-.046519,3.1467211.1756418,4.8731358.894538-1.1770242,1.4611067-2.4625111,2.6470386-3.1859544.9786354-.5969896.8587828-1.1530727.0330239-1.7593471-.3165316.1767621.1318101.8419853-.4137581.7765965-.3270173-.039193-.2814794-.4447867-.2668932-.7930938.0299046-.7140487-.4311707-1.2334761-.9282502-1.8605935-.1930471.5614578.4999864.7788078.1635086,1.2674299ZM40.448662,61.4652346c.1454004,2.0726056.6275422,3.6463158,1.9084233,4.9350026.65618.660178,1.5097932.5664955,2.0995959.2622655.5923435-.3055334.124063-1.0558792-.0657476-1.5864585-.6360874-1.7780264-2.3607337-2.3592985-3.9422716-3.6108096ZM24.4947957,63.9474026c0-.8786997.0015377-1.6311176-.0008055-2.3835136-.000864-.2781111-.0090431-.5562515-.0170392-.8342895-.0172442-.5994462-.2417775-1.0719591-.8037991-1.3535117-.7983512-.3999408-1.4684218-.3135734-1.9176861.518739-.4774555.8845576-.1618831,2.9783395.5209723,3.276675.6790624.2966807,1.4010413.4951463,2.2183575.7759008ZM23.5962304,64.3759592c-2.9575366-1.1991341-6.6195003.2126857-7.2989728,2.72046,2.4524392-.7378904,4.9893126-1.1054077,7.2989728-2.72046ZM16.5826985,60.2048708c-.7803675-2.6571728-2.5434416-4.784352-4.7587017-5.8287936.2417409,2.5679716,2.0741653,4.8514762,4.7587017,5.8287936ZM92.7875566,45.9243356c-1.2283577,1.0185424-2.3107366,1.9550082-3.4353509,2.8376327-1.1370916.8923925-2.6117155,1.0233678-3.943553,1.4757515,4.0878184,1.0640656,6.3441644-.2676914,7.3789038-4.3133842ZM25.8124863,29.3927485c.7804773,1.0095834.8729955,2.0076891,1.3458233,2.8299881.8490147,1.4765203,1.2496365,3.0114.8193738,4.7003314-.0581397.2281835-.1822686.4570553.1283466.6076912.4224864.2048874.450143-.177736.5674548-.3908794,1.480555-2.6898598.2677353-6.2198341-2.8609984-7.7471314ZM95.370583,69.1414049c.5575989-3.3664912-1.1768668-5.6057175-4.2688568-5.7855989,1.0459134,2.1576257,3.1898316,3.3915923,4.2688568,5.7855989ZM35.2583649,61.8950214c.7342658-.8186415,1.600554-1.4090227,2.2756477-2.1859633.4291205-.4938722,1.3392624-.8279702,1.2986379-1.4947018-.0407856-.6694701-.9246476-.7333359-1.5527462-.8502888-.050993-.0094898-.0858768-.1055301-.1280024-.1616121.0479616-.312043.6686134-.5003818.2497003-.8877428-.2198031-.2032325-.4224132.058147-.5702446.2530613-1.2046991,1.5883696-1.0231921,3.5684277-1.5729926,5.3272475ZM15.5040833,42.1516978c2.9139685,1.8769627,7.3863507-.6237638,7.7074441-4.3096095q-4.3282779,3.8842088-7.7074441,4.3096095ZM52.3713778,47.1632814c-2.20331,1.6289209-3.3274849,1.516808-4.8026506-.4306875-.382638-.5051633-.6809809-1.073387-1.0429771-1.5953478-.1598841-.2305303-.1598474-.652592-.6098879-.598077-.3129876,2.8979178,1.9586255,5.0302374,4.7896534,4.5088843.9862214-.1816169,1.709057-.6075741,1.6658623-1.884772ZM17.6640888,33.0850012c-.9414158-.7509901-1.6656353-.4576997-2.2871072.3910771-.3567168.4871686-.667537.9910066-.8211311,1.5833794-.1713216.6607528-.1444046,1.2956394.4031114,1.7586697.5524293.4671895,1.1443994.2211614,1.669648-.0948504.6344399-.3817081,1.1549143-.8791427,1.1573307-1.6975462.0009446-.3180107-.1956758-.5227883-.5118706-.5653166-.1681437-.0226152-.4636381-.1041022-.394244.221835.1779191.8357027-.449484.597839-.7870089.5490024-.5712038-.082644-.6333488-.5562882-.5067596-1.0193625.2949819-1.0791314,1.1348949-1.1753034,2.0780315-1.1268879ZM80.4846045,48.4594663c2.8241961,1.208785,5.6621144,1.1204772,8.4276876-.1661227,1.6639219-.7740922,2.890654-2.8492313,2.6886883-4.3844442-1.0976972,2.0439495-2.0882096,4.0580713-4.4845008,4.5866296-2.2112108.4877214-4.4238422.0615153-6.6318751-.0360627ZM104.7487588,28.5205035c.2425903.197371.5139868.279301.7077515.5847136.382023.6021445,1.7378339.4836429,1.8518579-.1607005.1324471-.7485554-.6769829-1.3040271-.7700649-2.0812936-.01381-.1154006-.5884261-.1636478-.8656219-.2334044-.0016841-.474662.8725928-.5135987.4065236-.9839625-.2885162-.2911706-.7647489-.0842659-1.095603.166185-.1857101.1405823-.3580202.3217012-.4795277.5194822-.2491072.4054033-.5588876.8607525-.3376054,1.330201.2306255.4892482.774473.2283666,1.1830908.2889556.0992768.0147143.1970012.0398886.509608.1045708-.4789419.1497206-.8251438.1178793-1.1104089.4652527ZM89.3782588,36.8447662c-.5053757.2544232-.5115851.8745259-1.0558133.8904338q.6129267-2.8488762-.2210625-3.6159316c.3325969,1.862091.2214872,2.1435008-1.1893734,3.8258458-.0847492.1010707-.5609818.745264.0550936,1.0770628.795166.4282564,1.6882468.8384449,2.4786679.3095022.6987303-.4676069.3065878-1.3066449.124041-1.9929125-.0388965-.1462754-.1090595-.2842326-.1915533-.4940004ZM26.0656575,31.1574299c-1.4444703-2.7525577-2.8215161-3.3402295-5.8694035-2.6867808.246354,1.2304958,1.2954966,1.2746827,2.1924729,1.4019273,1.2289069.1743274,2.4230911.381796,3.6769306,1.2848535ZM29.5808002,66.2732599c-1.0101802-.318289-1.7569453-.5846184-2.5206983-.7867819-1.0865453-.2876156-2.4163618,1.1070552-2.1394003,2.1941717.0969922.3807122.3204198.2484189.5406622.2021488,1.3659305-.2869126,2.6763427-.71678,4.1194364-1.6095386ZM19.1390641,40.619121c-1.59165-.0820179-2.6869895-.5844354-3.7979475-1.1175079-.782015-.3752351-1.7688442.2206378-2.0341485.8161885-.2811206.6310533.6946151,1.0264249,1.2572957,1.0543708,1.4219833.0706316,2.8726336.0824866,4.5748003-.7530514ZM55.5207826,65.4948401c-.621677-1.1185294-1.6477467-1.79973-2.4868104-2.6385007-.6486233-.6483963-1.1010948.2151167-1.625289.4372776-.2065203.0875317-.4333015.3505734-.107368.5307038,1.3117596.7249664,2.3094625,2.25721,4.2194674,1.6705193ZM39.704943,52.2116417c1.463589,1.6501338,5.4699313,1.6240808,7.7427966.2986504-2.5992674-.2963731-5.1417132.1885951-7.7427966-.2986504ZM27.6738707,70.9935484c1.0878926-1.0369581,2.1405792-2.0282979,3.1768344-3.0365304.2604349-.2533835.5177798-.6163536.2886041-.9536149-.2749552-.4046271-.7196137-.1953097-1.0842021-.0581763-1.4703622.5530663-2.4137111,2.1326637-2.3812364,4.0483215ZM57.8807768,58.8989032c.4028478.647957.5819311,1.0575121.8694369,1.3660037.3201562.3435219,1.0135046.2211723.9357263-.0907975-.1743458-.6993088.3782593-1.1151245.3764579-1.7201431-.002885-.9713497-.8073065-1.8310624-1.7365232-1.5920894-.4088155.1051347-.7523594-.2758192-1.1588464.0134219.5260467.7801112,1.0486007,1.5550528,1.6636363,2.4671352-.3470806-.1620661-.5167839-.2413015-.9498878-.4435309ZM51.9055357,44.3166495c-.1318247,1.5238741-.8048169,2.3009758-2.1356732,2.5798192-.5855118.1226791-1.0162431-.3498631-.7488666-.6945346.5261273-.6781984.0513445-1.5270813.7975238-2.1923118-1.3444759.3578079-1.7336309,1.2022315-1.3134437,2.4255587.3847396,1.1201257,1.3544563,1.5902661,2.3545024,1.1414997,1.2323118-.5529784,1.7251882-1.9473637,1.0459573-3.2600312ZM29.2296411,46.810753c-.3601437.7993544-.9540322,1.2576765-.6729995,1.8089708.8957535,1.757187,1.8926729,3.4628171,2.8505128,5.1883641.0995038-.0515349.1990075-.1030698.2985186-.1546046-.7927716-2.1908912-1.5855432-4.3817825-2.4760318-6.8427302ZM88.1291055,29.6996145c-1.5147358-1.3164422-2.4626758-1.4974806-4.6281658-.8838839q2.1113336,1.2645888,4.6281658.8838839ZM51.3321278,34.7420071c0,.3636255-.0081498.5622046.001794.7598722.0173247.3443969-.0840902.7952136.3799214.8882517.519669.1042011.4842726-.4000982.5977694-.7063712.2337009-.6306542.5231398-1.2536309.6460605-1.9067941.0599922-.318732.800482-.9207118-.1705381-1.0628867-.5909889-.0865322-1.3266386-.2650553-1.3341294.7731659-.0034122.4729705-.0891792.9453443-.1208778,1.2547622ZM56.381396,56.629582c.1850145,1.1048292.0872241,2.1314702-.526757,3.0619829-.14923.2261442-.1567061.4719783.1280537.5877817.5067669.2060809,1.015196.4905845,1.5901929.2535812.2602372-.1072582.5045263-.2495832.3869875-.6148525-.3698532-1.14932-.7075172-2.3129699-1.5784771-3.2884933ZM10.0636172,35.7982999c-1.4575334,1.783013-1.4356395,2.3824153.0063558,3.1586712.6657723.3583973.9750841.2355315.9081429-.52411-.0829625-.9415183-.307364-1.84559-.9144987-2.6345613ZM15.7134959,29.211538c1.3271073-.241697,2.0511803,1.3934992,3.2860183.419649.214465-.1691359.7265773-.0354183.649253-.4830498-.0571731-.3309274-.2964903-.6861139-.6974343-.7225463-1.0451812-.0949822-2.1377015-.3832202-3.2378371.7859471ZM65.9483866,63.3597015c-1.4293423.1663204-2.3331723.4636601-2.7388905.9264782-.2642645.3014768-.6232952.646822.1285956.8240454,1.4488784.3415009,2.3104729-.2015044,2.6102949-1.7505236ZM50.3079179,64.0725493c-.7932329.2351361-1.424634.429018-2.0602308.6079402-.3271784.0921008-.4895008.277086-.3341346.6018699.1619416.3385354-.1208119,1.0689716.5678355.9364805.5306745-.1020959,1.4602354.3265047,1.5012992-.8110482.0138613-.3841684.1801377-.7628377.3252306-1.3352424ZM94.3597731,41.1553715c-1.5888089,1.0523717-1.4352441,2.5774175-1.6558965,4.1180928,1.294552-1.1482216,1.8378722-2.4336353,1.6558965-4.1180928ZM50.0869506,38.391325c-1.5091928-.5646979-3.9560376.5571998-4.3479311,1.9627114,1.4551829-.6568866,2.8008158-1.2643216,4.3479311-1.9627114ZM84.6748337,33.400731c.1994176,1.5000398.2288828,2.7248498,1.6489403,3.1998157.2828633.0946124.8042604.2099728.6396388-.214714-.1955513-.5044787-.1250515-1.2076244-.7823226-1.5120375-.543906-.2519227-.9242009-.7164578-1.5062565-1.4730642ZM12.5900123,39.2710242c.5981062-.0160836,1.4781093-.4007682,1.497477-.6367208.0235634-.2869932-1.5080944-1.1906511-1.9762724-1.1504989-.6408323.0549727-.3888035.5893853-.419638.9082491-.0617423.6382146.2943082.9423274.8984335.8789706ZM84.9507554,33.088699c1.1002015.9128695,2.0205362,1.6105674,2.7723684,2.8388702-.0252915-2.2372968-.7711925-3.0097634-2.7723684-2.8388702ZM52.8894212,65.6311974c-.3791379-.623881-.9476691-.8232912-1.4834985-1.0640729-.2813696-.1264355-.5843036-.3291334-.8071527.0976073-.1857687.355721-.3900702.7568041-.2722679,1.1258591.1349733.4228598.5533006.1457519.8291345.1129916.5392124-.0640268,1.1088639.0539073,1.7337847-.272385ZM61.4964411,54.7418225c1.9374858-.18396,2.1231812-.4701843,1.6440636-2.4686362-.6438272.7474754-1.1918191,1.496342-1.6440636,2.4686362ZM46.7740298,66.3989484c.2376404-.1832058.9507372.2675889.896925-.4644802-.0439196-.5974399-.1275997-1.27093-1.0677634-1.2583648-.7186545.009607-.6271687.4526766-.6163536.8695394.0117671.4534747-.0840535,1.0429845.7871919.8533057ZM86.6141061,58.4611424c1.7011195-.0524429,3.0289444-.7901575,3.940829-2.2661653-1.3136048.7553909-2.6272242,1.5107744-3.940829,2.2661653ZM58.9197193,61.1758031c-.6931141,1.501431-.5242894,3.3305018.2797001,3.9334481.2886261-1.3460136-.241924-2.6225013-.2797001-3.9334481ZM34.9343131,56.9714271c-.1705088,1.1835594-.2778256,2.362806.1595472,3.5048329.3230485-1.1939865.8277286-2.4003697-.1595472-3.5048329ZM12.9315499,43.2724276c-.5526343-2.1261102-1.0215665-2.7185562-2.4564665-3.1847902.6716961,1.1470903,1.3987567,2.1421425,2.4564665,3.1847902ZM78.7986423,27.5800652c.9236883.2146371,1.6790792.4034848,2.4413238.5587924.2146335.0437292.5064155.0932358.5938007-.2206049.0747468-.2685042-.0973583-.4594937-.3134709-.5772851-.9068615-.4943152-1.7383758-.186878-2.7216536.2390975ZM22.9271191,27.819225c-.6814642-.7505764-1.500567-.8927806-2.3351127-.949939-.2698295-.0184817-.6240714.0549617-.6737391.3666203-.0605268.3798299.3275372.4106827.5759414.4334736.808749.0742086,1.6216205.103359,2.4329104.1498451ZM19.2401495,30.6938613c1.0464333.2838262,2.0928666.5676525,3.1392999.8514751-.8772205-.8976463-1.819764-1.5584504-3.1392999-.8514751ZM14.0977919,33.4342016c-.9052286,2.2208068-.8433472,3.1655579.3257651,3.835709-.7387105-1.2543595-.2551262-2.4375821-.3257651-3.835709ZM50.2300591,44.1802337c-.0852544.2940593-.1976968.5878037-.2511355.8919239-.0567411.3229241-.2492976.7360598.1114465.9409398.2200154.1249563.5055075-.1285443.7247687-.3005322.3216793-.2523217.4155521-.5776475.2491438-.9400612-.152342-.3317988-.3992818-.5811476-.8342235-.5922703ZM44.2763091,64.0856783c.5267131.8897272.4544925,1.8349067,1.2572005,2.3702528-.178666-.8391881.636373-2.0976408-1.2572005-2.3702528ZM61.9175802,64.7828417c.9454944-1.0290866,1.5001203-1.8974397,1.8166227-2.907598-.8393931.6844737-1.5858068,1.4243484-1.8166227,2.907598ZM92.3651581,39.7476888c.8722853-1.7781985.8427468-2.4522927,0-3.1373412v3.1373412ZM50.7891517,35.8730028c.2657802-1.0857471.4926128-2.1536716.0489574-3.2335499-.2227467,1.0772788-.4117518,2.1536936-.0489574,3.2335499ZM12.8134034,36.5594938c.0774707-.9849254.1549341-1.9698507.2459805-3.1274413-.7912266,1.0627439-.6807246,2.0839077-.2459805,3.1274413ZM60.3337505,58.5774363c-.0457648.6411545-.3881445,1.1957146-.0172369,1.6529163.1900303.2342574.586903-.1293864.7581587-.3844833.499342-.7437117-.2954139-.8152879-.7409218-1.2684331ZM89.8775862,43.7883658c.0976365.0971057.1952585.1942114.292895.2913207.7552591-.7938114,1.5105181-1.5876191,2.3406118-2.4600837-.9448353.7780975-1.7891784,1.4734303-2.6335068,2.168763ZM89.2294535,34.5290394c.2417409-1.0875484-.395584-1.5920528-1.4818583-2.1591744.6142155.8949627,1.0480369,1.5270667,1.4818583,2.1591744ZM50.5018144,10.9916986c.7304875-.3608466,1.1873597.3430423,1.6360309-.2372944.1313341-.1698919-.0031559-.4140785-.1684293-.5031057-.518761-.2794237-.9541567-.1786001-1.4676017.7404001ZM74.5440202,25.07485c-1.4848898-2.1764991-2.3643656-4.3117769-2.2140666-6.7950726.6193558,1.2233968.6090605,2.6422461,1.2774908,3.857321-.5861268-1.5343707-.0673366-3.3509019-1.4336625-4.8407673.8680383.1636221,1.075364.9554198,1.6707463,1.1931957-.5357928-.8844843-1.1729566-1.6545346-2.2999873-2.0608971.2149849,2.9214995.5015827,5.7231647,2.1409893,8.1350416.5223489.7684796.8465544,1.4773331.6566706,2.3874531.3341639-.1005399.065916-.8797211.6068052-.6340701.3938266.1788527.1656614.6534488.0586229.9698522-.4292523,1.2687516-.893154,2.5257801-1.344227,3.7871507,0,0-.0267852-.0227067-.0267852-.022725.9496242-.9608457,1.3064582-2.2261741,1.6897699-3.4538801.2280334-.7303337.5737227-1.0784357,1.3438755-1.2511706,2.402398-.5388206,4.607707-1.5498686,6.5197256-3.1275328.8748481-.7218544,1.5987088-1.5700417,1.7946116-2.7442028.1396963-.8373356-.193091-1.3342283-1.0760816-1.3219999-1.6379714.0226774-4.9717169,2.1857326-5.8059698,3.8014074,1.3084059-1.0630258,2.4841304-2.1601409,3.9226696-2.8682366.7551126-.3716838,1.7032137-1.0624254,2.3758618-.157951.6149038.8268279-.2180457,1.5917379-.7805945,2.1595881-2.0515391,2.0708629-4.6598863,3.1143709-7.4987125,3.9494768.3312057-.7073744,1.0620226-.829669,1.3873411-1.3683286-.5469228-.3571049-.6522772.6081196-1.1731763.2875423.1780948-.881343.5385607-1.7556639.4608264-2.6798282-.1042999-1.2402163.0261702-2.3169349,1.4369429-2.7457296-.5447554.0145093-1.435947.531685-1.0876217-.7496245-.4730547.5135401-.2718798-.3533998-.5317802-.2721214-.0638658.3241542-.1259595.6392909-.2065496,1.0482968-1.7008999-2.2209972-1.7658054-4.5691511-.2250898-6.2118381.6620452,1.1274481.5803714,2.3764512.6984667,3.5860819.1647534-1.1907976.2344625-2.3765757-.1743604-3.5259451-.2662855-.7485939-.669353-.8302219-1.1850678-.1762715-1.4329888,1.8171041-1.344183,4.5898825.2164933,6.37745,1.1986728,1.3729453.9124558,4.4144659-.588675,5.7069566-.0967286-1.6067707.413392-3.2194726-.3272662-4.7297161.0913686,1.424147.252124,2.8526106-.2782356,4.4910946ZM71.8675896,27.001993c-.796733.7796169-1.4851388,1.6356868-2.2432682,2.4247496-.7287374.7584589-1.1658686,1.6044788-1.4979236,2.6232409-.6884936,2.1122746-.2287656,4.4669893-1.4410727,6.4455024.0000439.0000476.0261409.0241895.0259212.0239808.8741598-.7580452,1.4044462-1.7786012,2.0154398-2.7264314.5435545-.8431861,1.2766561-1.6154368,1.3344443-2.7062729-.7592131.8797358-1.1020028,2.0695778-2.0752197,2.8983096-.0558111-3.0001711.6641248-5.5575948,3.1597513-7.514408.0413421.5276796.071481.912346.1016199,1.2970123.439035-.8585448.4077245-1.8254095.6203077-2.765683ZM35.6320403,28.4426849c.4590104-.4197844.5525025-1.4407212,1.5643961-.9511985-.0931553-.6785096.5749822-1.1609992.4741458-1.8414821-.2622289.0798871-.2909399.4960799-.6499706.4460974-.2998513-.942181-.4759178-1.9413557-1.1154394-2.7440344-.616112-.7733087-1.5234641-.8866408-2.0577631-.2777377-.6228193.7097871-.4262208,2.5095793.3498704,3.202968-.2797147-.8062045-.3381766-1.6170184-.1862593-2.4677356.1402455-.7853687.5302791-.7759301,1.0917295-.4705468.9415842.5121452,1.772542,2.4125725,1.5054803,3.4400225-.2211357.8507721-.9093951,1.112375-1.617293.5953384-.2519849-.1840406-.4625764-.424749-.692067-.6395912.2707302.7048555.6427068,1.3306806,1.3331702,1.7079001ZM103.8045825,43.9346156c1.0292477.3664007,1.576273.0644076,2.14941-1.0581564-.4161452.026507-.8575966-.1162098-.987144.4323167-.1205702.5104318-.4413781.5092199-.8125347.3661737-.8373722-.3227264-1.623268-.7070083-1.6388501-1.7887903-.52746.1705381-1.3709097.1607774-.6088701,1.0670934.6305151.3331681,1.2331173.7446819,1.8979889.981363ZM80.6361484,15.8559395c-.0990864-.857981-.5294809-1.0835394-1.1795321-.5277968-.6836902.5845086-1.4188127,1.1801948-1.4924758,2.1987738.3301659-.394482.6327557-.8173089.9995774-1.1741136.2739447-.2664759.4281393-.9233405.9921965-.5584409.4872894.3152136.3276324.8376651.1724273,1.3008492-.3531435,1.0538619-1.2065956,1.7163098-1.9405758,2.4719643,1.4503721-.5088318,2.6144247-2.2732789,2.4483826-3.711236ZM15.7061443,54.772408c1.3370437,1.4387662,3.0187516,2.334937,4.7942958,3.0833423-1.6305025-.9757651-3.0502012-2.2838195-4.7945667-3.0802083l.0002709-.003134ZM68.5048035,42.9048956c-.3957011-.3936362-1.0521081.2546319-1.5113968.593614-.6323603.4667245-1.2807566.9444436-1.5096101,1.7666292.470653-.4143146.9113428-.8713846,1.4215952-1.2292327.3984104-.2794182.7783538-.9351039,1.2610741-.6815044.4555396.2393208.1281562.9287847.1966058,1.414163.4468406-.6013903.5308136-1.4766338.1417319-1.8636689ZM97.3539948,15.6830656c-.6480888-.4098114-.4753686-.8046521-.2693609-1.3335985-.3288332.4164345-1.8260393.4359596-.5589901,1.2712339.8794758.5797637,1.0064751.9822527.280447,1.742458.9883156-.7163443,1.1769693-1.2823163.547904-1.6800933ZM15.7057928,54.7745608c-.0185183-.6798386.3950202-.7952246.9384942-.6950325.668877.1232868,1.3327382.273747,1.9987668.4124694-.5651775-.4111587-1.1930126-.5702592-1.8169522-.7433895-.9257313-.2568762-1.2598879.1211121-1.1199573,1.0237998,0,0-.0002709.003134-.0003515.0021528ZM31.6518169,31.1891541c.7607948,1.5081566,1.7971232,2.807124,3.0135601,3.9693534-.775132-1.4972683-1.7390641-2.8512084-3.0135601-3.9693534ZM59.8522897,34.601941c1.0936846-.4513256,1.7237457-1.254678,1.9611224-2.3751698-.6659114,1.0985906-1.4352441,2.001271-2.870598,2.0364514-.7276024.01783-1.0778097-.1312426-.6876296-.9487711.4535113-.9502356.827875-1.9382437,1.2445035-2.9286938-.7485664.1540225-1.8726242,2.2073483-3.3815241,6.2145107,1.2305325-1.1882055,2.528299-1.5007244,3.7341257-1.9983274Z"/>
  </g>
</svg>