<?xml version="1.0" encoding="UTF-8"?>
<svg id="Layer_2" xmlns="http://www.w3.org/2000/svg" viewBox="0 0 174.1154248 231.4238019">
  <g id="Layer_1-2" data-name="Layer_1">
    <path d="M171.2341299,87.1367369c.2688139.2830465.6437835.4345753,1.025816.0855025,1.8849075-1.7222494,2.3558668-3.1930208,1.3112167-5.1845121-.8294492-1.5809937-1.998019-2.8608559-3.419672-3.9278715-2.3181986-1.7399064-5.0041971-2.618688-7.7593253-3.3374869-.7039242-.1836324-1.4143762-.342117-2.1218318-.5122659.3308808-.2456993.6329753-.296851.9372101-.3200726,1.0472184-.0798309,2.0931526-.1516359,3.1437954-.0040665.234356.0328527.6538427.1779608.6793115-.2261161.0207603-.3278844-.377859-.3400838-.6420714-.3982983-.1359051-.0299633-.2784449-.0294283-.4178814-.0438749-1.6591124-.171219-3.284623.0524358-4.8939749.4314719-3.3503283.7891057-6.6688741,1.64702-9.322876,4.0516843-.5773292.5231811-1.2807183.8246336-2.0663996.9563653-.5987315.1004842-1.2233599.1781748-1.9178671.6956843.7863234-.1472484,1.3641876-.2574706,1.9426939-.3631984,2.150939-.3925196,4.3061585-.5642737,6.4599869-.0434468.7643859.1849165,1.4392029.5510042,1.8968928,1.2269984.1387944.2049278.2734154.4255863.0757644.6683963-.1942266.2384225-.377645.0379892-.5537865-.035742-3.4159266-1.430749-6.9063335-1.2223968-10.4168586-.4616493-.5095906.1104363-.99917.3137589-1.4970964.47738-.4829447.1586986-.8214233.5253214-1.1922195.8427186-.3655526.3131168-.7204041.638861-1.079964.9590406,7.5735526-7.7622146,16.8336127-11.8661206,27.6319687-12.687758-3.4093989-.6073995-6.8140892-.7144114-10.2108607-.1930495-7.2370002,1.1104624-13.201415,4.4169158-17.6253937,10.6712259-.0792958-1.0485025-1.098263-1.6822269-.3526042-2.6120533,2.024879-2.5249456,4.1955082-4.9108827,6.9626217-6.6457595,3.1806075-1.9941666,6.6078773-3.5103111,10.0364313-5.0183227,2.6964857-1.1860128,5.5438581-1.9416238,8.3030527-2.9477496.2775888-.1011262.7435186-.1562374.6584442-.5351665-.0958827-.4269774-.5540006-.3172903-.8976157-.2809062-.1735733.018299-.3442573.0636721-.5163324.0964177-3.6989731.7058504-7.1907711,2.0668277-10.6712259,3.4404323-5.2572802,2.0745325-10.4246705,4.319-14.5367094,8.3950829-1.0445431,1.0355541-1.0788939.9958527-2.0756027-.1244548-.4188445-.4707453-1.1587248-.9030734-1.2002454-1.3991805-.0515797-.6142483.8658332-.8596265,1.3237371-1.3106817,3.2789514-3.2298329,6.776421-6.1855014,10.789795-8.4864711.3623423-.2076031.8066556-.3923056.9549741-.9423467-.7694155-.1318387-1.3692172.1499237-1.9583176.432328-1.4921738.7152675-2.8319627,1.6721678-4.1385779,2.6752973-2.5869055,1.9863547-5.0205699,4.1516334-7.4080052,6.3705249-.2900022.269563-.5289598.6829499-1.0519269.3134378-.7851463-.5546426-1.6674593-.97231-2.3957822-1.6413484.3818184-.4281546.84625-.6246284,1.2990174-.7731609,1.3024417-.4272985,2.1729835-1.2232529,2.4698345-2.5940753.0604617-.279194.2192674-.4971772.4920407-.6412153,3.6858106-1.9446201,6.9963305-4.5274591,10.7665735-6.3318936.59413-.2844376,1.2278544-.5467238,1.7945894-1.1952158-1.1563705.017871-1.9910633.467963-2.8315347.87311-2.8756236,1.3864461-5.5459983,3.1299908-8.2645284,4.7886752-1.538831.9388153-1.5345505.9458781-2.5540528-.729179.4338262-.081008.8430397-.1409347,1.2443343-.2348911,3.2649328-.764493,5.8820157-2.295084,6.7180996-5.8383548.5497201-2.3288998-.3195375-4.0653818-2.4757201-5.0760021-.6672191-.3126887-1.3630105-.539768-2.0834145-.7036032-.1899461-.0431258-.6743889-.0867866-.4721365-.3609511.6605844-.8953685.8265599-2.1894633,2.1159461-2.5948244,5.3408565-1.6796587,8.0516818-5.6496928,9.3159202-10.8306736.2829394-1.1595809.3206076-2.3570439.0293213-3.5435918-.3387996-1.3804534-1.0119044-1.9829304-2.4315242-2.2288437-1.0906652-.188876-2.1721274-.1253109-3.239892.0772626-4.7572137.9025383-8.5539956,3.2231982-10.8540022,7.6084385-1.0754695,2.0505619-1.15209,4.1795635.0923513,6.2117193.3979772.6497762.2730943,1.0823183-.1105433,1.6699206-2.4304541,3.7234788-4.8278415,7.469109-6.5860469,11.5766535-.0748013.1747504-.1927284.3310948-.2906443.4961071.233821-1.1741345.6125361-2.294335.8971877-3.437864.2779099-1.116134.7422345-2.2354784.3314158-3.4787426-.5392329.2674227-.6187428.7370979-.7794746,1.1418169-.6996437,1.7604526-1.1527321,3.5968837-1.6139534,5.4278572-.1215655.4821956-.3171832.8143605-.7617106,1.0461483-1.151876.6007648-2.0743185,1.4410221-2.5162776,2.699482-.1594477.4539444-.41435.4759889-.7998069.3458624-1.6182338-.5459747-3.2818407-.7058504-4.9755179-.5239302-.5552847.0594986-.6635807-.1656544-.5726206-.6633667.251799-1.376922.522004-2.7530949.692795-4.1410392.0920302-.7485482.3931617-.8471061,1.0840305-.7926371,3.2816267.2585407,5.9288869-.7808658,7.496183-3.8743655,1.9202214-3.7898262-.0552181-7.4112156-4.2819738-7.8770384-1.0395135-.1145027-2.0651155.0504026-3.1068763.1265951q.1995772-1.5587352,1.6271158-1.3917967c1.2141569.1386874,2.3775902-.0141256,3.4457829-.6499902,3.8323099-2.2810655,5.5556294-8.4371386,3.4800267-12.3765674-.4736346-.8992209-1.151983-1.2428361-2.1584299-1.0338419-1.7247107.3582758-3.3868194.8838112-4.9241522,1.7530688-2.1873231,1.2367364-3.7651064,3.0086393-4.5787178,5.4047426-.6170306,1.8167409-.5528234,3.662268.8901249,4.9847209,1.1118536,1.0189672,1.1652525,1.934775.7182638,3.1825337-.1853446.5175095-.3736855.9476973-.8316964,1.2710873-.8357629.5902776-1.5303771,1.3267334-2.1403448,2.1515811-.1459642.1973299-.2235478.7136623-.6667911.3880251-.2929986-.2150939-.6801676-.422911-.5316351-.918162.0500816-.1673666.0917092-.3386926.1204954-.5109818.6438906-3.842155-.6342595-6.415898-4.0869982-8.2276093-1.0588827-.5553917-2.1759798-.9785167-3.3342765-1.2482937-.7012489-.1631931-.8297702-.3657666-.5026349-1.0388714,2.1561826-4.4374621,4.1583751-8.9553972,7.0087439-13.0196018.2193744-.3126887.4125308-.6589792.5389119-1.0174691.1624441-.4607932.6844481-1.0851006.1298054-1.3924387-.4335052-.2401347-.7483342.4866901-1.0063398.8638-2.5142444,3.6757515-4.6950397,7.5453015-6.6391248,11.5497935-.261109.5378418-.4434573,1.1238389-.9494095,1.682548-.2484816-.8418626-.0160518-1.4807235.161802-2.1001084,1.4050661-4.8936538,3.248453-9.6033542,5.8189856-14.0191999,2.6320645-4.5217875,5.3754214-8.9545411,9.2500009-12.5544211.9230846-.8575933,1.9052397-1.6516215,2.8336749-2.5038642.1988281-.1823483.6487061-.4004385.3741136-.7338876-.2391716-.2906443-.5766871.0276091-.845822.1636212-1.5382959.7775484-2.9533142,1.7465411-4.2857193,2.8329258-4.1440355,3.3790075-7.1153277,7.6926569-9.727702,12.2843231-.944487,1.6599685-1.8369661,3.3496862-2.753202,5.0258135-.2477325-1.3324051-.1911232-2.6477952-.2745925-3.9544104-.0352069-.5525024.2737364-1.5400081-.4289037-1.5815288-.6427134-.0379892-.5888864.9814061-.7116291,1.5579861-1.1231968,5.2749372-2.0181373,10.5881846-2.6114112,15.9514066-.0395944.3580618.1295914,1.0624141-.6666841.8708628-.5525024-.1329088-1.2549285-.0192621-1.1907213-1.0422958.1092591-1.745364.0657053-3.5014291.0507236-5.2527857-.0052436-.6078275-.0333877-1.2424081-.5699453-1.772545-.422697.6270897-.4370366,1.295807-.4737416,1.9407677-.0853955,1.5038381-.1762486,3.0102445-.1718611,4.5154738.0024613.8567372-.108189,1.1803412-1.097514.8984718-1.8126744-.5165464-3.6372272-1.016827-5.5223487-1.2462605-1.3160322-.1601968-2.6382712-.0021402-4.1405041-.1070119,1.1441711-1.6588983,1.6461639-3.428875,1.9967349-5.2500034.081008-.4205567.4258003-.5031699.7408433-.6549128,1.6367469-.7886776,2.852509-2.0083992,3.6401165-3.6435409,1.0703329-2.2217809.2859358-4.7266083-1.8586896-5.9680532-1.3617263-.7882496-2.7218475-.7701646-4.0873192.0051366-2.6881387,1.5263106-4.4730971,6.6349513-.2621791,9.124262.6953633.4111397.8062276.8346928.5971264,1.5198899-.296637.972096-.6972895,1.9026714-1.052997,2.8513319-.5981965,1.5955473-1.5452517,2.5186319-3.3622066,2.7410026-1.9481515.2384225-1.8822322.4040769-1.8934684-1.5580931-.0302844-5.3137825-.6955773-10.5475201-2.204552-15.6515593-.2456993-.8312684-.2939617-1.3571248.6767432-1.6590054.4848709-.1507798.9549741-.4632545,1.2643455-.908638,1.5767132-2.2701503,2.4327013-4.7500439,1.8904721-7.5285006-.8001279-4.0996256-3.5165178-6.6004935-7.0857924-8.4360685-1.5014839-.7721978-2.6464041-.4534094-3.8083392.5512183-2.7992171,2.420395-3.7487336,5.4837174-2.8214755,8.9941355,1.0015243,3.7918594,3.2332573,6.6345233,7.0993829,7.93643.1635142.0552181.3456484.0960967.5153693.0855025.6452817-.0400224.8982578.234249,1.0054837.890446.4176674,2.55523.9517638,5.0918398,1.3502761,7.6496381.2362823,1.5159305.4636825,3.0476987.4640036,4.886377-1.6744151-2.26801-3.5704518-3.8793951-5.4869277-5.4593187-.6426064-.5296019-.854597-1.0144727-.6788834-1.8665014.6082556-2.9490337-.9122764-5.6793351-3.5585735-6.5844417-1.9234317-.6579091-4.0456916-.0859305-5.2335236,1.4104167-1.0823183,1.3633315-1.070761,3.2197738.018192,5.0106178.422697.6952563.9466272,1.3103606,1.5366908,1.8565493.4612213.4266564.449664.6521305-.1119344.9690997-1.7811059,1.0056978-3.0857949,2.5038642-4.2000027,4.1897296-.1951897.2953528-.3212497.6666841-.7596774.9036084-.7027471-3.5109532-2.8373133-5.4308535-6.290266-5.9044881-.449664-.0616388-.5466167-.3565636-.5772221-.738168-.1121485-1.3939369-.6450677-2.5339346-2.0663996-2.9925876-1.5165725-.4893654-2.8242579.0456941-3.9802003,1.0219636-1.4890705,1.2576038-1.8035784,4.3490703,1.1488797,5.0536366.7255406.1731452.8556671.3317369.5057382,1.0656244-1.709622,3.5860755-.5881374,8.7146204,2.3790884,11.2786254.9665314.8353348,2.1074922,1.4805095,3.3391991,1.2713013,1.7521057-.2976001,2.9182143.6384329,4.1958293,1.4639227,1.088953.7034962,1.7441868,1.5553108,1.6326804,2.9961189-.0612108.7912459-.1583776,1.3808815-.7901758,1.890151-.45876.3699401-.8749292.8206742-1.2154411,1.3024417-.4216269.5962703-.7077767.5389119-1.178629.0352069-1.7521057-1.8743133-3.338878-3.8805722-4.7472615-6.0163156-3.1799654-4.8228119-6.3004321-9.6850043-9.4658439-14.5176613-.2593968-.395944-.2564005-.6405732.0350999-1.0012033.5316351-.6576951.9008261-1.4123429,1.1261932-2.2346223.9226565-3.36531-.9262949-7.5416631-4.3292731-9.4515043-2.0197424-1.133577-4.2164826-1.8822322-6.5294376-2.1948139-2.024772-.2735224-2.9404728.2982421-3.4795987,2.294977-.8700067,3.2221281-.5695173,6.2730371,1.3300508,9.1421329,1.9515759,2.9476426,5.992773,5.4337428,9.8563303,3.8317748.3541024-.1468203.6439976-.1397575.9055346.2311457,1.1593668,1.6437027,2.2457516,3.329782,3.1670169,5.1337885-.2169131-.0663474-.3812834-.1784958-.5393399-.2989912-4.4159527-3.3702325-9.9017033-3.6458952-14.64126-.7346366-1.0938756.6719277-1.3684681,1.2813604-1.1326139,2.5527687.1690788.9125974.5618124,1.7409765,1.1185953,2.465554,1.6654261,2.1668838,3.6376552,3.9835177,6.1783316,5.0861682,2.4785024,1.0755765,5.012651,1.1717802,7.586287.3448993,2.0455323-.65716,3.7688518-1.6676733,4.3053024-4.1554858,2.7555562,4.3543139,5.4568574,8.4419541,7.7461628,12.7809653.0977019.1852376.1762486.3808553.2581127.5739048.1211375.2861498.360095.647636.089569.8697927-.2911794.2390646-.5674841-.1284143-.8039803-.2995263-1.6527987-1.1952158-3.0613962-2.6682345-4.5580645-4.0409831-1.4979525-1.3737117-2.9920525-2.7530949-4.7464055-3.80652-1.3721065-.8239916-2.8161249-1.5092957-4.4581154-1.2299947-1.2364154.2102784-2.6313154.2940687-3.1258174,1.8382503-.1344069.4195936-.486155.3469326-.7895337.2666736-.6078275-.1607319-1.2246441-.3103345-1.8070028-.5414802-2.0655435-.8200321-4.1696114-.9423467-6.2750703-.2706331-1.7974787.5734767-3.5618908,1.2536443-5.327373,1.9224686-1.4379188.5446905-2.3571509,1.6101009-2.4059484,3.1435813-.035849,1.1290825-.5694103,1.7791797-1.3841988,2.3859371-.5881374.4379997-1.1212706.9517638-1.6640349,1.4480849-2.1440903,1.9601368-3.8204316,4.1903717-4.1415742,7.2021143-.1605178,1.5050152-.8915161,2.6733711-2.0422149,3.6518878-1.4061363,1.1956439-1.7936263,2.7795269-1.5060854,4.5653413.207175,1.2877811.6231302,2.5087868,1.1236249,3.707106.4463466,1.0688348.4389628,1.0641263-.6805956,1.0059118-2.024879-.1052997-4.0448355-.4198077-6.0787035-.0614248-2.402845.4234461-4.2843281,1.575001-5.2123352,3.8973731-.9108852,2.2792463.1121485,4.1527035,1.4998787,5.8871522.7942423.9928563,1.7665523,1.7941614,2.7912982,2.537787.2711681.1967949.6311561.2959949.7884636.6613335-1.4350295.4870111-2.8838635.9122764-4.1689693,1.7234265-1.9267491,1.2159761-2.5903299,2.9892702-1.952325,5.1555119.4385347,1.4886424,1.2813604,2.717353,2.4271367,3.7386745.6721417.5990526,1.3884793,1.1484516,2.1105955,1.7410835-1.484897,1.3207408-2.7572684,2.7489215-3.3537527,4.6577996-.8873426,2.8398816.2730943,5.3791668,3.005536,6.5433491,1.4095606.6005507,2.8899632.791674,4.4160597.755932,1.5034101-.0350999,2.960377-.3724014,4.4308274-.6628317-.576152.6127501-1.1238389,1.1976771-1.6743081,1.7799288-.6508463.6884075-1.2772939,1.3953281-1.7201092,2.2432903-.1309826.2507289-.3184674.5630966-.0957756.774338.2561865.243238.5171885-.0609968.7128062-.2204445.8678664-.7086327,1.7466481-1.4084905,2.564861-2.1724484,1.7832462-1.665212,3.7892911-2.9835986,5.9739389-4.0562858.6016209-.2955668,1.1267282-.3825675,1.781641-.1254179,2.222316.872789,4.499529.9548671,6.7993216.2981351,2.0553774-.5869602,4.157198-.8795307,6.325687-1.0185392-.1963668.4644316-.6294439.584499-.9613948.8109361-6.7879783,4.6304046-12.3510985,10.3174445-15.5571748,18.0342861-1.4168374,3.410255-2.4995838,6.9102929-2.6735851,10.6319525-.0209743.4464536-.1625511.963.4926828,1.5974735,2.0809532-6.92902,4.6022604-13.4656274,9.6124502-18.861595-.6939721,1.6803007-1.3211688,3.2318661-1.7766114,4.8460335-.441317,1.5637648-.6846621,3.1456146-.5346314,4.7734795.0222585.2420609.0059927.5427643.2892531.6191708.2905373.0783327.4392838-.1902671.5413732-.404505.3007034-.6305141.5826798-1.2704452.8567372-1.9131586,1.9647383-4.6093232,4.0772601-9.142347,6.8961673-13.3079989.2280423-.3369804.3887742-.7695225.9865426-1.0196093-.2422749.8306263-.3929477,1.5122921-.6371488,2.1586439-2.1109166,5.5855927-1.5427904,10.9813463,1.0653034,16.2623832,1.6887547,3.419244,3.2791654,6.883647,4.66101,10.4428625,1.3522023,3.482702,3.4565911,6.4915554,6.1234345,9.0787819,7.1217484,6.9092228,15.7599624,11.0268264,25.2425001,13.5582997.2416329.0644212.5744398-.0278231.6825218.3760398-1.4377048.5689822-2.9185353.9727381-4.4061076,1.3596931-.2424889.063137-.6203479.0325316-.6517024.3982983-.027074.3170762.2538322.4958931.4982474.6192778.4667859.2357472.9413836.4722435,1.4375978.6308351,3.3513984,1.070975,6.8183697,1.5403292,10.2968983,1.9497567.5496131.0646352,1.1475955-.0468712,1.3085414.8297702.9352839,5.0919469,2.2643716,10.11455,2.7498846,15.2853646.549078,5.8486279-.2149869,11.4320804-3.2152793,16.629327-1.3024417,2.2561317-3.0161302,3.7050727-5.5217066,4.481551-5.7126158,1.7700837-10.7505217,4.7275714-14.8909188,9.1022175-1.5736099,1.6625368-2.969152,3.4622628-3.7490546,5.6493718-.5007086,1.4045311-.2906443,1.8371802,1.0467903,2.4676942,7.4893343,3.5302153,15.4484507,4.8733216,23.6509123,5.0015218,6.5341461.1020893,13.003015-.5945581,19.43764-1.7130464,5.7458965-.998742,11.2008277-2.763047,16.197962-5.8179155,1.4545056-.8891618,1.6700276-1.6191969,1.0141517-3.2331503-.6145693-1.5126131-1.5218161-2.8419148-2.65443-4.004599-3.8408708-3.9427461-8.2977021-6.9450718-13.7278065-8.1016563-2.4289559-.5174025-3.8041657-1.8022943-4.6191683-3.9721744-.135263-.359774-.3133308-.7032822-.4553356-1.0607019-1.8841584-4.7411619-3.1309539-9.6492623-3.7483055-14.7093196-.692474-5.6763388.2313597-11.1643367,2.0612631-16.5337653.2255811-.6621896.5320631-1.0836024,1.3286596-1.2670208,2.3159514-.5331332,4.6132827-1.1633263,6.8881415-1.853446,2.0729274-.6288019,4.1518474-1.2858549,5.9697654-2.5248386.3892023-.2653895.9195532-.585141.6680752-1.1640754-.2474115-.5696243-.7932792-.2870059-1.2105185-.1909092-1.493993.3443643-2.8001802-.1301265-4.1138582-.8142535.1990421-.3083013.4663578-.2901092.6923669-.3583828,1.8776307-.566735,3.7316117-1.1987472,5.4957027-2.0647945,5.6919625-2.7947226,10.8892091-6.2986129,14.7408881-11.401368,2.7798479-3.6829213,5.1997078-7.6385088,7.4129278-11.7023925,1.0562074-1.9394835,2.1269684-3.9223069,2.6168688-6.0551609.5565688-2.4227492,1.7121903-3.6818512,4.2389551-4.1090426,2.3452726-.3964791,4.4078198-1.6486252,5.633427-3.8529632.378287-.6803816.8491394-.8763204,1.5791745-.936033,6.0751721-.4969632,9.6072066-4.3652291,8.9510097-10.2281966-.2150939-1.9223616.2757696-2.6892088,1.8731362-3.4838792,2.5347907-1.2610281,2.8992732-2.8069219,1.6710977-5.372532-.4626124-.9662104-1.1382855-1.7988699-1.6980647-2.6880317,1.0272072-.6048312,1.9215055-.566949,2.8588227.1296984.6373628.4737416,1.4019628.7852533,2.1299647,1.1259791,1.0851006.5078784,2.231626.8309473,3.4258787.9397784,2.3048221.2099573,2.996975-.7315333,2.1428061-2.8631032-.1650123-.4118888-.4887233-.7668472-.4880812-1.2662717,1.4139481-.1089381,2.8175161-.215736,4.1263786-.7642789.7872865-.3300247,1.7424746-.8056925,1.6063555-1.7168988-.1365472-.9150587-1.2287105-.8347998-2.0024065-.9517638-1.5945842-.2413118-3.2711395.0514727-4.8005535-.449557-1.979506-.6484921-3.7747375-.3219988-5.5939396.4530884-.8680805.3699401-1.7875266.3574197-2.6778656.0882848-.8015191-.2423819-1.5905177-.5386979-2.3585421-.8723609-.269991-.117285-.935819-.0318895-.6619756-.6187428.1851306-.396372.4832657-.7849322,1.1617211-.5676981,3.2891175,1.053104,6.6550696,1.2318139,10.0666087.7320684,2.0688609-.3030577,4.0438724-.8667963,5.7550995-2.1132708.6675402-.486262,1.3532724-1.0405836.8678664-2.2371906-1.2646665,2.1127358-3.0410639,1.6342856-4.8033358,1.1645034-.4708523-.1255249-.9282212-.3131168-1.3785272-.503598-3.0575438-1.2931317-5.7259923-3.2165634-8.3454294-5.3590485.1994702,0,.3989403-.0046015.5981965.0007491,3.6527439.0971668,7.1854205-.4625054,10.5591844-1.9112324.7834341-.3363384,1.6102079-.503812,2.4618086-.4128519.5023138.053613.8511726-.1095802,1.2077362-.459295.6277318-.6155324,2.744641-.3049839,3.2368957.4280476.1701489.2535112.2031086.5108748.0815431.7933862-.4383207,1.0178971-1.7653752,1.4965613-2.6285331.8049435-.8743942-.7007139-1.755102-.7366699-2.7417517-.4791993-.57551.1500307-1.1632193.2628212-1.7265299.449664-1.9021364.6313702-3.8288855,1.1129237-5.8468087,1.1734924-.3545304.0107012-.9058557-.1511008-1.0132956.3004894-.1089381.4573688.4103906.6718207.7463009.9119553.1131116.080901.2394926.1483185.3681209.2016104,1.907487.7877145,3.7954978,1.629149,5.8116018,2.1192635,1.8217704.4428152,3.6182861.4070732,5.3469562-.3702611,1.106931-.4978193,1.5443956-1.6295771,1.0049487-2.4364468-.8902319,1.8641472-1.3479218,2.2519583-3.1670169,2.4091587-3.0241561.261216-5.5956518-1.0674436-8.3463925-2.3625015,1.7063046-.4815535,3.2517704-.8211022,4.7257522-1.3571248,2.0026205-.7283229,3.8479336-.9326086,5.4777247.783006ZM163.6157392,70.2989507c-4.1028359.5859971-7.8071596,1.6447728-11.3233563,3.3242174-3.5349238,1.6884336-6.5584378,4.1191017-9.5783134,6.6073423,1.6042153-4.985684,14.4177122-11.167119,20.9016697-9.9315597ZM86.089476,27.1351691c-1.6862934-2.5294401.0103802-5.8784843,2.2483198-6.9212081,1.7644121-.8221724,4.4583294,1.3999296,4.4886138,3.8915945-.1127905,1.8577264-1.4278597,3.3281768-3.0982083,4.4912891-.8273089.575938-2.8873949-.3347332-3.6387254-1.4616754ZM75.470793,16.4319467c-3.3589963-1.719146-5.7495349-6.3016093-5.200992-10.0286194.3272424-2.2236001,1.6365329-3.8048078,3.4199931-5.0592012.4006525-.2817623.80077-.1870568,1.2018506-.0600337,3.7507668,1.1872969,6.9438947,5.4945256,6.9640129,9.3845149.0319966,1.4708785-.3661947,2.8382764-1.0566354,4.1167475-1.017041,1.8834093-3.4350817,2.6154776-5.3282291,1.646592ZM38.620927,28.8331268c-3.7008993-.6701085-5.6643535-3.1990135-6.7864802-6.5575817-.2783379-.8330876-.342224-1.7124043-.3935897-2.5418535.0404505-1.5373328.3534603-2.9582367,1.0906652-4.2690254.1699349-.3023086.3161131-.6231302.7713417-.5772221,4.0934189.4128519,7.7267937,1.7065186,10.0676788,5.3727461,1.1905073,1.8645752,1.2730135,3.8978012.5922038,5.9558539-.5894215,1.781962-3.0943559,3.023942-5.3418196,2.6170828ZM45.3688828,42.5105307c-6.2649042,2.8274682-12.6498757-1.6922861-14.4819193-6.1364899-.3923056-.9516568.1290563-1.4824357.8447519-1.8727081,1.9421588-1.0592037,4.0530754-1.4909967,6.2436088-1.5733958,3.7564384-.0589636,6.5902204,1.6703486,8.7453328,4.5973379,1.5576651,2.1154111,1.0206794,3.914495-1.3517742,4.985256ZM151.5447978,77.9650687c-.2748065-.0104872-.5504692-.0014982-.8257038-.0014982,2.528691-2.2832057,5.3762774-3.6155038,8.7957354-3.1339503,4.2521175.5986245,8.0732982,2.2305559,11.3941982,4.9792633.1966879.1628721.5642737.2750206.4642176.6065434-.0756574.2509429-.4115677.2193744-.639075.2957809-.4640036.1558093-.9817271.2242969-1.3845199.476845-1.4092396.8842393-2.7694678.7563601-4.2502983.1301265-2.2742167-.9616089-4.6952538-1.0342699-7.1291322-.873217-.3640545.0241847-.7854673.1852376-1.0579196-.2314667-1.2820025-1.961956-3.2978925-2.1700942-5.3675025-2.2484269ZM141.4956321,83.5239084c2.0705731-2.2882353,4.6919364-3.1828547,7.7105278-3.140906,1.6875775.0234356,3.3576051.1399716,4.9545436.7389171.3487518.1308755.8106151.2315737.8228144.6982526.0111292.4272985-.3638404.6588722-.7071346.8406854-1.5198899.8053715-3.1954821.9741293-4.8641185,1.1582967-2.5343626.2797291-5.0807106.2302896-7.640221.2710611,1.0641263.6158534,2.2581649.8349068,3.3995538,1.1961789,1.1997103.3796782,2.4275648.6922599,3.4853773,1.4074204,1.0922704.7385961,1.0741854,1.2365224-.02686,1.9114464-2.1252562,1.3026558-2.1838987,1.3077923-4.2145564-.1810641-.9308964-.6826289-1.8399625-1.3954351-2.7518108-2.1038538-1.0731153-.8336226-1.106717-1.7590615-.1681157-2.7964348ZM142.1859658,87.6784311c1.467133,1.007945,2.8856827,2.087267,4.3581663,3.0871861.7530427.5113028.6679682.9046785.0098451,1.3978963-.4574758.3429731-.9222285.6256985-1.5201039.6680752-.7629948-.0827202-1.4710925-.3469326-2.1316769-.7672753-.9471623-.602691-1.7687996-1.3627964-2.6503635-2.0473515-.5924178-.4600441-.6853042-.8881987-.4083574-1.5940491.7223303-1.8415676.6966474-1.8751694,2.3424903-.7444817ZM135.420888,110.8459706c-.5319561-.5363436-.8522427-1.143101-.0530779-1.8607228.0739452.7071346,1.4172655.6148903.9051066,1.6231564-.143824.2831535-.5053102.5870672-.8520287.2375664ZM135.5749852,111.8632257c.0794028.4627194-.2284704.6811307-.5843919.782471-.4234461-.0612108-.9231916-.25212-.8988999-.5093766.0468712-.4965352.5724066-.7937072,1.0130816-.9219074.4209848-.1225286.4240881.3796782.4702103.6488131ZM136.5263209,111.0246805c.4795203.035956.7071346.3788221.7766923.8107221.0147676.3584898-.1485325.5598862-.477273.5771151-.6538427.0342438-.4978193-.5462957-.6307281-.8898039-.1065838-.2756626.0348859-.5200778.3313088-.4980333ZM132.1940514,107.5042033c-.7526146.323604-1.4324612.7628878-1.9567124,1.3829147-.4662508.5514323-1.0083731.6772783-1.6771974.566521-1.4230441-.2355332-2.82597-.5370927-4.0598172-1.3303718-1.6978507-1.0916283-2.0884441-2.5453849-1.1403187-4.3366569.5613844-1.0600598,1.2543934-2.0392186,2.339708-2.6354889,2.2870582-1.2563196,4.7269293-1.9337049,7.3515029-1.7597036,1.8795569.1245618,2.4004908.6988947,2.4370888,2.5535178.0169079.8608037.0028893,1.7222494.0028893,2.5834811.0435538.0115573.0872147.0231146.1308755.0346719.2209796-.7535777.4820886-1.4979525.6552338-2.2624454.4674279-2.0630823,1.7373381-3.2204159,3.8274943-3.4638679,2.8177301-.3282055,5.5364743-.0108082,8.0144416,1.4632806,2.249925,1.3383977,2.6340977,3.4484582.7866444,5.218863-2.3346784,2.2374046-4.9476948,4.1245593-8.2001073,4.8698972-.3104415.0711629-.5980895.2727733-.8734311-.2095293-1.7950175-3.1442234-4.4412075-4.0499721-7.6382948-2.6750833ZM132.2225166,111.7425162c-.2079241-.2750206.0608898-.3578478.1596617-.4828377.2170201-.2744855.4873322-.3771099.8077258-.1225286.1948687.1548462.2736294.3258512.0877498.5189007-.3989403.414136-.5228601.9483394-.6724627,1.5602334-.3456484-.3898443-.7338876-.5926319-1.2171533-.6498832.2210866-.2708471.5093766-.2633563.7578582-.3519621.3100135-.1104363.3295966-.1369752.0766205-.4719224ZM129.1746039,115.5598445c.2306106.3484307.0229005.504347-.1906952.6885145-1.6537618,1.4248633-3.4471741,2.6449059-5.5038356,3.3945242-1.8834093.6864813-3.2194528-.0587495-3.7874719-1.9804691-1.0485025-3.5474442.3003824-6.757694,3.473285-8.3139679.4934318-.2420609.9753064-.3362314,1.5152884-.233714,1.4744098.2799431,2.95203.5427643,4.5953047.8428257-1.1275843,1.9050257-1.3212758,3.7607189-.1018753,5.6022866ZM107.0751501,121.7181648c-.188769-.5262845-.4112467-1.0412257-.5822517-1.5728608-.2723453-.8466781-.3303457-1.6510865.5227531-2.2540985.8415415-.5947721,1.1443852-.5915617,2.2374046.1021964.0613178-.9713469,1.0898091-1.0556723,2.5695695-.2030016-.3198585.3683349-.8274159.3528182-1.2047399.6077205.3175043.1096872.6084696-.0193692.8903389-.1162149q1.6931422-.5811816,2.798575.7884636c.0755504.0936354.1809571.1631931.2769468.2402417.2772678.8888408.9575424,1.6312893.981192,2.6147286.0465502,1.9304945-1.1836585,3.3876755-3.167124,3.698331-1.6968876.2657105-3.3442286.0102731-4.9468387-.5879233-.4414241-.1646913-.7749801-.3278844-.4327561-.8896969.4796273-.7871795.3492868-1.6125622.0569303-2.4278858ZM81.9686621,106.5109189c-.7706996-1.5379749-.0170149-3.9493809,1.4874653-4.7899593.6893706-.3851358,1.2807183-.1405066,1.8507707.2569356.1987211.1386874.4669999.3404048.2631422.5815026-.1643703.1943336-.5541076.306054-.7362418.0340298-.4663578-.6972895-1.043687-.7529357-1.56537-.2096363-.5797904.6037611-.306054,1.3959701-.1366542,2.0986102.080794.3347332.4193796.1611599.6185287.063351,2.9690449-1.457502,4.7756197-.6555548,8.3391157-.0922443-.9740222,1.3367926-1.2248581,2.7340468-.7955264,4.2408813.116857.4099626-.0048155.6050452-.4009736.7992718-2.8834354,1.4140551-7.4848398-.1096872-8.9242567-2.9827425ZM87.4448886,111.0390201c-2.0922965,1.0737573-4.8735356-.5624545-5.5833455-3.266431,1.7086589,1.5681523,3.3303171,2.8229737,5.5833455,3.266431ZM80.9676728,103.3504297c-.1783888.3395487-.3591319.6465659-.7059575.8797448-8.3971161,5.6458404-20.4781167,4.6497737-27.8733875-2.312741-3.320365-3.1259244-5.0898066-7.5166223-4.6459213-11.8129357.9772326,1.9393765,2.6779726,3.0798022,4.3329115,4.336978,1.8611508,1.4138411,3.4793847,3.1427252,5.2582433,4.670427,2.6751903,2.2973313,5.6453053,4.0112338,9.2495729,4.3625538,3.0332521.2956739,5.9871013-.20664,8.7229674-1.4152323,7.8442927-3.4652591,12.7125847-9.286706,13.7653677-18.0054999.2571496-2.1300717-.3822465-3.84269-2.1532933-5.0007727-4.6987852-3.0725254-9.6623177-5.2018481-15.4973552-4.2372429-2.1752307.359774-4.3965836.3740066-6.6033828.3638404-3.1630575-.0143396-6.1959885.5902776-9.0782468,1.8744203-.6564109.2925705-.9346419.0943845-1.241766-.4291177-1.844671-3.1435813-1.3350804-6.1811139.4415311-9.1306827,1.0767537-1.7877407,1.1365733-1.7800358,2.4081956-.1966879,2.6755113,3.3312802,6.2425387,4.6027955,10.3852901,4.4948205,2.3801585-.0619599,4.7564646-.2766257,7.1366231-.3371945,4.8781371-.1237057,9.2655176,1.214585,12.939985,4.5424408,1.052997.953797,1.8823392,2.0775289,2.3741658,3.4188159.2116695.5772221.495144,1.1625772.0949195,1.8070028-.1055137.1698279-.0477273.4841218.0157307.7092748.5155833,1.8277631.7573232,3.7030395.899435,5.5849506.1791379,2.3738448-.7617106,4.3018781-2.6001749,5.7857049-.4601511.3715453-.9791588.6773853-1.4947421.971882-2.5565141,1.4606053-3.2525194,2.7779217-2.8490846,5.6774089.0847534.6091117-.0016052.8861655-.612322,1.0399416-1.2822165.3226409-2.078599,1.2336331-2.6693046,2.3579ZM80.9912154,110.1005258c-2.7870177,3.176541-8.6692474,2.6821461-11.0882512-1.0985841,3.9071112-.2846516,7.3861748-1.556381,10.6251037-4.1348325-.0011771,1.7439728.1035875,3.1937699.6258055,4.5759355.0933144.2473045.0254688.4430292-.1626581.6574811ZM50.0913176,112.4729794c-.3111906-1.3502761.1994702-2.0469235,1.7309174-2.3630366-.0670965.432007-.5210409.8289141-.0376682,1.1086432.3947669.2283634.719762-.1486395.9824762-.413922.6187428-.6247354,1.2567477-1.2007804,2.0815953-1.5623736.5894215-.2584337,1.124588-.287648,1.4905686.2643194.4089995.6169236,1.0986911,1.3310139.6113589,2.0651155-1.0902372,1.6420975-2.4451147,3.0669608-4.3018781,3.8896682-.486369.2154149-1.0093362.2957809-1.5321963.0973808-.2963159-.1124695-.6355436-.2357472-.5823587-.6321192.117071-.872682-.2555444-1.6413484-.4428152-2.4536757ZM46.8133294,106.8253198c-.585141-1.4414502-.0789748-2.015355,1.4887494-1.709836,2.393535.4664648,4.4461301,1.7085519,6.4473595,3.1052711-.3823535.0265389-.7657771.0429118-1.1469535.081115-1.2384486.1242408-2.3725607.0042805-3.0493039-1.2454044-.0321036-.0592846-.090318-.1073329-.143931-.1515288-.3888812-.3206076-.8954755-1.0277422-1.2427291-.6811307-.4475237.4467746.0972738,1.0931265.4845498,1.5365838.8976157,1.0282773,2.0751746,1.3176374,3.500145,1.0834954-.4738487.5365576-1.0108343.4793063-1.4699153.5332403-1.1169901.1311966-1.8551582.647743-2.2958331,1.7041644-.2889321.692688-.6259126,1.4339594-1.6387801,1.340859-.4291177-.0394874-.6420714-.0685946-.485513-.5918828.5147272-1.7206442.2172341-3.3670222-.4478448-5.0049462ZM39.4072503,113.6787894c.8297702.2745925,1.682441.2489097,2.5030082.6975035-.8203532.4905425-1.6218722.7667402-2.5030082.9619299v-1.6594334ZM37.8994528,111.8683622c-.0760855.2641053-.3031647.3629843-.5411591.4383207-.3291686.0515797-.3180393-.1772117-.3107625-.3888812.0155167-.4509481,1.5275948-2.4948752,1.9866758-2.6048835.5498271-.1318387,1.0005612.2692419,1.1904003.6383259.2318948.4506271-.3717593.4545865-.6373628.5434064-.746729.2496587-1.4420923.5202918-1.6877916,1.3737117ZM39.4775572,112.0220313c-.1229567-.6641158,1.0477534-1.2009945,1.8338628-1.4527934,1.0731153-.3437222,2.0458533-1.1307947,3.2804495-.8512796.576152.1304475,1.2847848.1910162,1.4242213.872682.1483185.7241495-.3467185,1.2469026-.9363541,1.6154515-1.0097642.6309421-2.1611052.7360278-3.0350713.8426116-1.2077362-.0220444-2.4081956-.1684367-2.5671083-1.0266721ZM43.426831,108.7625561c-.5202918.0831482-1.0502147.1000561-1.5552038-.0461221-.4657158-.134835-1.0930195-.1040156-1.1001893-.8616598-.0068488-.746729-.1110783-1.3870881.9423467-1.6939982,2.4957313-.7270388,2.51082-.7891057,3.8296346,1.4267896.2481606.4170253.4816605.8427186.7220092,1.2644525-.0306054.0960967-.0609968.1921934-.0916022.288183-.8578073-1.0041996-1.8122464-.5269266-2.7469953-.377645ZM37.0048334,92.4137073c-.1399716-.8987929.1829903-1.5042662,1.0535321-1.7766114,2.5354328-.7932792,5.129187-.9751994,7.7648899-.7309982.3738996.0346719.4632545.2240829.4558707.5480079-.0291072,1.260065.0672035,2.5129603.2360682,3.7605049.0530779.3925196-.0636721.6253775-.4999596.539768-2.9888421-.5864252-5.8188786.170577-8.6413173,1.0064468-.0523288.0155167-.1237057-.0334947-.2714892-.0782257.3750767-1.0936615.07234-2.1794042-.0975948-3.2688923ZM42.4040114,104.1234836c.5386979-.2315737.7460869.3072311,1.3370066.7049943-.7337805.00931-1.2123377.4795203-1.620053-.0062067-.2000052-.2383155.0636721-.6044032.2830465-.6987877ZM45.9617287,104.0515716c-.6052593.0529709-1.2901354.0894619-1.6337506-.4485939-.3341981-.5232882.3303457-.8959036.5229671-1.3466376.108082-.2527621.2935336-.4729926.4485939-.7047803.9712399-1.4517233,1.1364663-1.5327313,2.8292874-1.1649315,1.1572266.2514779,1.1987472,1.313678,1.4730187,2.1761938.0908531.2857218.0231146.6225952.0241847.93614.0022472.6720347-.1513148,1.0632702-.9770186.7602125-.683806-.2508359-1.42176-.3548514-2.0094693-.2539392-.3295966.0223655-.504026.0311405-.6778133.0463361ZM50.7689169,102.4296993c2.9779269,2.4973365,6.2497085,4.4571523,10.1089854,5.6251871-3.1718325,1.0427239-9.0200324-2.2280946-10.1089854-5.6251871ZM47.8509167,87.3960267c.845715-4.5884559,3.8399077-7.4264113,7.7868273-9.4119099,3.1085884-1.5638718,6.5311498-1.736803,9.9277072-1.8968928,2.4141883-.1138607,4.8206717-.2836885,7.2200923-.5805395,2.6331346-.3256372,5.1526226.2154149,7.612826,1.1115325,2.1062081.7670612,4.1810616,1.6119201,6.0855523,2.807564,1.9587457,1.2297807,2.6537879,2.9568456,2.17812,5.2249626-1.853553,8.836828-9.3479168,15.9785877-18.2624354,17.376805-.8965456.1407206-1.8125674.1580566-2.7194932.2326439-3.8936277.1387944-7.0541169-1.5587352-9.9029875-3.977204-2.0295875-1.7231055-4.103478-3.3873544-6.2169629-5.0040901-1.5009488-1.1483446-2.63688-2.5877616-3.4937242-4.2697745-.2722383-.5345244-.3213567-1.0389785-.215522-1.6130973ZM93.1008951,81.8314083c.0499746.890981.1425398,1.7924492-.1915513,2.7467812-.6016209-.8434677-.8389732-1.7085519-.7846112-2.6702677.0225795-.3999034.2043927-.7072416.5812886-.7485482.4943949-.054148.3805343.4172394.3948739.6720347ZM98.2423885,78.3792047c.6643298.089783,1.1007243.3043418,1.124695.8530988.0331737.7599985-.6467799.9780887-1.2353453,1.251076.341582-.6595143.5008157-1.3056521.1106503-2.1041748ZM100.5560926,74.0258539c-.017871-.6357576-.108189-1.2613492-.4377856-1.8143866-.1749644-.2934266-.1573075-.512801.0821851-.7353857.2536182-.2357472.4153132-.0053506.6532006.0500816,1.5130411.3520691,1.7338067,1.6546179,2.2173934,2.7753534-.8142535.3042348-1.2877811.0153027-1.511757-.8380101-.1115064-.4247302-.242917-.8841323-.7175147-1.1178462-.2550093.4079293.0591776.7216882.1430749,1.0689418.0804729.333235.675138.6407872-.0068488,1.0379083-.1767836.1029454.135049.5070223.3762538.6459238.2372454.1367612.522111.1881269.7782975.2954598,1.2307438.5156903,1.223681.5118379.3379436,1.4077414-.1394365.1410417-.197758.3636264-.2891461.5506832-.2674227.5469378-.7252196.9440589-1.3034048.908531-.6110379-.0376682-.7821499-.656732-.8892688-1.1660016-.1778538-.845929-.1570935-1.7034153-.017764-2.645548q1.3295157,1.6674593,1.7899879,1.2755818c-.9413836-.2107064-1.1820534-.8847743-1.2048469-1.6990278ZM134.3426362,80.8329874c.9134535.9459851.9498376,2.1299647.8736451,3.3438006-.3285265,5.2233575-4.2345676,9.2669088-9.4014228,9.7698647-3.1067692.3024156-6.209472.6127501-9.3094995-.0256829-.5460817-.1124695-1.0732223-.3142939-1.6147024-.4534094-2.3653909-.6077205-2.9766428-3.9030447-1.3834497-5.9185067.3441502-.4354314.6136062-.1267021.9074608-.018406,3.266859,1.2043118,6.6278885,1.709622,10.1044909,1.3913686,2.2010206-.2013964,3.9031517-1.1624702,5.0563119-3.1082674.3846007-.6489201,1.0084801-1.1549793,1.5170006-1.7316664,1.0063398-1.1411748,1.1257651-1.9769377.2901092-3.2197738-.8573793-1.2751537-1.7694416-2.5034362-2.5234474-3.8558525-.5796834-1.0399416-1.7864565-1.3249142-2.8821513-1.5456798-2.1399168-.4310439-4.3242435-.2739504-6.4906993-.3349472-.7078837-.0199042-1.3666489.2634633-1.9999452.5767941-1.6276509.8050505-3.3858563,1.2479727-5.1350726,1.9230037,2.0047608-4.6931135,5.8914327-6.7075054,10.6936984-5.6343901,1.7053415.3811764,3.3766532.8914091,5.0995447,1.2170462,1.7344487.3278844,3.1080534,1.2658437,3.7783759,2.9944068.459081,1.1836585.4943949,2.3241913-.5679121,3.3940962,1.4493691-.558174,2.1912825.4113537,2.987665,1.2362014ZM116.6533565,80.7367837c.2154149.224832.0652773.5425503-.333235.5516463-.7277879.0164798-1.2647736-.3402978-1.6796587-.9012542-.3820325-.5165464-.0395944-.9115273.243131-1.3177444.1919793-.2759837.4673209-.5185796.4248372-1.0309526-1.7898809,1.7435448-1.5539197,2.9376905.6820938,3.7214456.539554.188983.8747152.458653,1.1146359.9703838.9524058,2.0321558,2.8492986,2.9980452,4.6573716,4.0624925.314829.1852376.7240425.233821.9930704.6783484-3.9444583.6060083-7.7260446.8893758-10.6648051-2.5057905-1.2709802-1.4683102-1.7151866-3.1168284-.9579705-4.9561488.7959545-1.9337049,2.5873335-2.4103359,4.3829931-2.8188002.3756117-.0855025.6801676.0739452.6078275.5792554-.1491746,1.0416538-.3228549,2.0775289.5297089,2.9671187ZM127.7558402,87.3523658c-.4605792.4164903-.9934984.665507-1.565798.8122203-1.9857127.5091626-3.977418.4620773-5.9654849.0143396,2.0433921-.3747556,4.1398621-.2936406,6.1696636-.8807079-1.8821252.0042805-3.6122934-.4956791-5.2271029-1.3995015-1.2323489-.6897987-2.3658189-1.512185-3.113404-2.7441059-.341582-.5627755-.7064925-1.1894372-.296637-1.8617929.4338262-.7117361,1.1645034-.6986806,1.8744203-.5916688,1.691644.2547953,3.1523563,1.1062889,4.6573716,1.8417817.413922.2022525.3308808.5828938.3360173.9143096.0143396.9067118-.1427539,1.7989769-.2439871,2.7323346,1.1726363-1.6813708,2.7679696-2.6877107,4.6683938-3.4676133.2530831,1.5050152.1572005,2.8696309-1.116241,3.7829774-.4651807.3335561.1115064.5861041-.1772117.8474272ZM124.3012824,79.7896214c.7564671-.1100082,1.3282316.1794589,1.6507654.7751941.5837499,1.0773957.1123625,2.0559125-.4726715,3.2230912-.4328631-1.4689522-.7945633-2.6963786-1.1780939-3.9982853ZM127.2648697,82.9729042c-.3263863.0769416-.4657158.0048155-.4360735-.3384786.0150887-.1744294.0219374-.3497149.02686-.5247863.0535059-1.9114464-.2758767-2.3611104-2.4017749-3.1320241,1.0306315-.6879795,1.9056678-1.2942018,3.1110497-.8394013,1.0817832.4081434,1.808822,1.3326191,1.7342347,2.3613244-.072019.9930704-1.1294035,2.2598771-2.0342961,2.4733659ZM125.1483885,77.8346212c-.6157464.3622353-.7477991-.3359103-1.0055907-.6247354-.3470396-.3885602-1.0593107-.8093309-.755825-1.3250212.3141869-.5335613,1.0913073-.2633563,1.6622157-.1833114,1.0388714.1455362,2.0563405.3981912,2.9260262,1.0292404.3950879.2867919.7580722.6184217.8308403,1.34942-1.2666998-.6994297-2.4270297-.9695277-3.6576665-.2455923ZM124.0087118,77.9204447c.3629843.6252705.2206585.87311-.5104467.8654052-.6701085-.0071698-1.3896564-.3014525-2.1032117.3208217,2.2357995.3018805,2.456565.50424,2.8555053,2.6232895-.8466781-.2260091-1.5488901-.657267-2.258379-1.0559933-1.3638666-.7664192-2.7515968-.998421-4.1830949-.2255811-.4119958.2224777-.5821447.1183552-.7865374-.2741645-1.061986-2.0394326-.2379944-3.7672466,2.0959349-4.3384761,1.8031504-.441317,3.9633994.4881883,4.8902294,2.0846987ZM129.8084353,84.5673814v-4.8873401c1.9499707,1.6525846,1.9189372,3.8935207,0,4.8873401ZM109.7750601,82.1816582c-2.2811725-1.3963982-3.1003485-5.1240504-1.6723818-7.8845292,1.5271667-2.9522441,5.6387776-5.6520471,10.54645-3.4265208-5.3826982,1.9568195-7.6515643,6.2213504-8.8740681,11.31105ZM108.3272962,82.0583805c.2191604.2592898.2639983.4549076-.0690227.6719277-2.4894176,1.6214442-2.5687135,3.9585839-1.8907931,6.4992602.6494552,2.4340925,2.04275,4.4401374,3.7692799,6.2104351.9489815.9730591,2.0378275,1.8096781,2.9078341,2.8780848-1.0021664.0246127-1.6135253-.5497201-2.2608402-1.0308456-1.1296175-.8396153-2.096684-1.8621139-2.9762147-2.9506389-1.0904512-1.34942-2.3351065-2.5244105-3.8023465-3.4275909-3.7291504-2.2955121-3.4143214-7.0976707-1.6695995-9.5279108.9018962-1.2564266,2.3771622-2.6922052,3.9335431-3.6329467.3344122,1.6928211,1.025495,3.0888983,2.0581597,4.310225ZM112.8219027,105.2711861c-.4095345.4922547-.8856304.8856304-1.7982278.7438397,1.1039347-1.2335261,1.8477743-2.5449568,2.0672557-4.0973783.0830412-.5863182.2144518-1.1673927.2682788-1.7558511.054255-.5946651.3284195-.7100239.8333016-.4919337.3514271.1517429.7092748.2891461,1.0558863.4510551.3443643.1608389.3826745.4247302.0863586.639075-.9163428.6629387-1.1650385,1.7018101-1.5559529,2.6625629-.2630352.6459238-.5053102,1.3057591-.9569003,1.8486304ZM115.6279685,108.2115519c-.9905021-.0489044-1.9133726-.2717032-2.933838-.9697418,1.2203636.1142887,2.1681679.2676367,2.933838.9697418ZM107.2258228,105.7273778c-.1145027-.9710259-.1254179-1.9587457-.5022068-2.8829004-.1030525-.2527621-.2271862-.4969632-.341689-.7452308-.0639931,1.1038277.657267,2.0739975.1921934,3.4923331-.4203427-1.7683715-1.1535882-3.0795882-1.926-4.3957275.5823587,1.9082361,1.4418782,3.7578296.6636878,5.7900924-.2091012.5462957-.729179.8227074-1.2551425,1.2532163-.108403-.6015138-.1840605-1.1309017-.3012385-1.6509795-.2837955-1.2586739-.8849883-2.3478409-1.8020803-3.2589402-.8676524-.8623018-.9061767-2.16881.134835-2.7557702,1.0364102-.584499,2.1455884-1.2207917,3.5018572-.8498884,1.2580318.3441502,1.9476164,1.0358751,2.204338,2.3429184.1818132.9259739-.242917,1.9311366.5452256,2.8236158.3184674.3607371-.2259021,1.0838164-.7454448,1.3343313-.4806974.2317878-.3432941-.2845446-.3683349-.4970702ZM95.7787607,96.9074577c.0472993.0227935.0832553.1187832.0842184.1812781.0223655,1.3487779.5029559,2.5678574,1.0921634,3.7965679-2.2176074-.917734-4.0021377-2.2900545-5.4647763-4.0758689-.314615-.3839587-.5787203-.7706996-.1265951-1.287032.4384277-.5007086.9242617-.7929581,1.5616245-.5456536,1.0910932.423232,1.8051836,1.4272176,2.8533651,1.9307086ZM94.2079332,93.8574047c.8756783-.2600389,1.5699715-.1339789,2.1005364.4505201.5108748.5628826.1335508,1.1600089-.0241847,1.8376082-.8864865-.6238793-1.5347646-1.3189216-2.0763517-2.2881283ZM91.5920275,100.7222176c-1.2445483.1642633-3.257442-1.6159866-3.1536405-2.7249508.0547901-.5866392.4795203-.9192322.9922143-1.1165621.512587-.1972229,1.0417608-.234142,1.4785833.1737873.3926266.3666227.5505762.7758362.1740013,1.2890652-.2438801.3323789.0544691.5994806.2681718.8143605.4663578.4691401.9606458.9103502,1.6215512,1.529735-1.7106921-.4570478-2.7169249-1.4314981-3.707748-2.8365642.3030577,1.5624806,1.1623632,2.3106008,2.3268666,2.8711291ZM91.5301746,98.628744c-.1155728-.1203884-.1791379-.3363384-.0082399-.4631475.0820781-.0608898.2779099-.0521148.3759328.0048155,1.1317578.656732,2.0348311,1.5628017,2.8405237,2.5851933-1.376815-.2795151-2.3058922-1.1871899-3.2082165-2.1268614ZM91.2228364,95.1522486c-.3208217.7209391-.3911285,1.5763922-1.6321454,1.1187023-.7591424-.2800501-1.5165725.4560847-1.6793376,1.3331541-.2270792,1.2231459.2588618,2.2543125,1.4442325,3.0123848,1.1616141.7428766,2.4851372,1.0763256,3.815509,1.5314472-2.1175513.8968667-4.265387,1.3459956-6.4097983.1214585-2.4377309-1.3920107-2.6396623-4.8254872-.5059522-6.6972322,1.4048521-1.232456,2.9761077-1.2083783,4.6366113-.9665314.3108695.045266.5155833.1311966.3308808.5466167ZM100.5425021,104.0634499c.6437835.5653438.4930038,1.3381837.4735276,1.8425308-.0501886,1.3030838.0200112,2.5584403.2909653,3.8404428-1.2167252-.9118483-1.0803921-2.2191056-1.0003472-3.7583647-.8355489,1.6892897-.6274107,2.9920525.5910267,4.301022-.7491903-.0678455-.9253318-.5537865-1.2282825-.8674384-.3104415-.3212497-.4981404-.7597844-1.0053767-1.025709.1276652,1.0926984,1.1306876,1.4920668,1.6353557,2.3744869-2.1950279.0158378-4.3200701-.0380962-6.3742704-.5340964-1.593193-.3844937-2.4151514-2.7550212-1.700419-4.4013991,1.3247002-3.0518721,5.8099966-3.9738866,8.3178203-1.7714749ZM101.3754827,111.4776618c-1.4065643,1.0599528-5.1440616.7765853-6.7614394-.5111958,2.3030029.1194253,4.4979238.1896251,6.7614394.5111958ZM95.9683858,102.2799897c1.7564932-.8395083,4.8561997.5180446,5.7638745,2.5274069-1.4369557-1.8735642-3.5679905-2.1623893-5.7638745-2.5274069ZM100.0028411,93.3312273c.638861-.891195.647743-1.9283543.9647122-2.8579666.1087241-.3184674.0978089-.9380662.5902776-.7581793.3853498.1408276.5409451.6575881.3258512,1.1746695-.4641106,1.115706-1.1239459,2.1899984-.8451799,3.5125583.3821395-.080901.800984-.1692928,1.2198286-.2580057.4610072.7721978.116643,1.8250878-.8824201,2.1983453-.3790361.1416837-.5380558.2347841-.6335104.593916-.0742663.2795151-.2950318.4933248-.6176726.4575828-.3190024-.0353139-.467856-.2802641-.530993-.5734767-.0368121-.170577-.0618529-.3444713-.0794028-.5182586-.0803659-.7948843.1371892-1.5553108-.3356963-2.3941771-.3971211-.7043523.1338719-1.592551.8224934-2.2300208.2329649.5716575-.1788169,1.0679787.0017122,1.6530127ZM102.260685,94.1190488c-.7715557-.882206-.7572161-2.1852898.0008561-3.0790532.2294335-.2705261.4019367-.1913373.6042962-.0378822.5156903.3908074,1.2050609.7126992,1.0333068,1.5197829-.1838464.864014-.6457098,1.5266316-1.6384591,1.5971525ZM101.1885329,100.4204441c-.1818132-.8465711-.0400224-1.4468008.7416994-1.9625981.1675806.8824201-.1973299,1.3909406-.7416994,1.9625981ZM100.2888839,98.7583354c-.2489097.5030629.008561,1.0730082-.2408838,1.790737-.2802641-.7079907-.3000613-1.242194-.2710611-1.7824971.0112362-.2082451.0291072-.4461326.3307738-.4071802.2414188.0310334.2510499.2576846.1811711.3989403ZM99.3507107,101.2782514c-1.1956439-.8309473-.7823639-2.6264999-2.1581088-3.2453496,1.3965052.2296475,2.2072273,1.5045872,2.1581088,3.2453496ZM106.4651823,98.512636c-.6561969-.1594477-.927151-.4156342-.8941914-1.1145289.0445169-.945022.072126-1.8800919.3856709-2.7864827.2641053-.7634228.5474728-1.0582406,1.2308508-.2925705,1.0000261,1.1204145,2.0743185,2.1755518,3.1367326,3.2390359.5367716.5374137,1.1022225,1.0491446,1.7235335,1.538831h-2.0715362c.4252653-.215736.6465659-.3278844.8678664-.4401399-1.4887494.0829342-2.9293435.2081381-4.3789266-.144145ZM107.983039,100.653837c-.2403487-.6504183-.0222585-.9054276.576152-1.0023804.6534146-.1059418,1.3078993-.2039647,1.961956-.3054119,1.7784306.0374542,2.4896317.9552952,2.0357942,2.6770095-.3375155,1.2798622-1.0646613,2.33928-1.9065239,3.3311732-.3002754.3536743-.6914038.4606862-1.1332559.368656-.5091626-.1059418-.476738-.548757-.5121589-.9153797-.1386874-1.4354575-.5260705-2.8122725-1.0219636-4.1536666ZM106.2430256,75.8988831c-.935926-1.1043627-1.3271615-2.4846021-2.429812-3.4051184-.2123116-.1772117-.225153-.7130202.0774766-.6537356,1.250969.2451642,1.6523706-.9286492,2.6056326-1.4150182-.0866796,1.8733502-.1700419,3.6736112-.2532971,5.4738723ZM104.3215201,74.7352357c-.5303509.0413066-.9905021.1847025-1.1988542-.4034348.413494.1033735.314508-.1483185.2023595-.3789291-.2187323-.450199-.4535164-.8925862-.6178867-1.3740327.6782414.5828938,1.1264072,1.3213828,1.6143814,2.1563966ZM101.3475526,80.0051434c-.3106555-.4832657-.8059066-.6401451-1.0312736-1.3011576.8380101.8219583,1.1593668.3710102,1.6723818-.2629282.872468-1.0780378,1.781748-2.1311418,2.5714958-3.2634347.0980229.0565023.1342999.0657053.1515288.0890339,1.2258212,1.6638209,1.2098764,1.6454148-.3407259,2.9743955-.9262949.7940282-1.8094641,1.6408133-2.6797918,2.4966944-.3722944.3660877-.6962194.6585512-1.2645595.4155272-.6259126-.2676367-1.2388767.5597792-1.8927193.0658123.9196602-1.2657367,1.3664348-1.4662769,2.8136637-1.2139429ZM100.7704374,81.8089358c-.2626072,1.4793324-.7968105,2.2863091-2.258914,2.3314681-1.3832357.0426977-2.7586596.3391207-4.436178.5640597,1.9284613-2.0671487,4.4872227-1.8395344,6.695092-2.8955278ZM100.2699428,81.630333c-2.2640506.7498323-4.8495649.7222233-6.6472577,2.879155-.2561865-1.1927545.2262231-1.5416133,1.0178971-1.9424799,1.7930913-.9078889,3.6914822-.9196602,5.6293606-.9366751ZM93.9772155,81.8711097c.5208269-.9608598,1.2399468-1.7598106,2.1249351-2.3856161.5904916-.4175604.6953633.0315685.7161236.4256933-.0029963,1.2602791-1.5788535,2.663847-2.6853564,2.4825689-.4252653-.0696647-.269563-.3125817-.1557023-.5226461ZM97.4605596,79.0730698c-.2908583.3465045-.4627194-.0170149-.6636878-.1737873-.4247302-.3312018-.7346366.0023543-1.0101923.2277213-.8896969.7277879-1.691858,1.5421484-2.3611104,2.7639031.2181972-1.7528548,1.8975349-3.5500125,3.3210071-3.7081761.3002754-.0332807.6674332-.0066347.8168218.3124747.0698788.1491746.0099521.4432433-.1028384.5778642ZM93.8848643,85.5188241c1.7669804-.4712804,3.5861825-.5534655,5.3933994-.7231864.3030577-.0284652.5864252.0788678.6765292.3816044.3091574,1.0380154.8156446,2.0226318.1031595,3.1634855-.6420714,1.0279562-1.043687,2.2040169-1.5831339,3.2991766-.2148799.4361805-.48562.9490885-1.008052.9870777-.5734767.0417346-.5641667-.6178867-.81008-.9641771-.4096415-.5769011-.6063294-1.3056521-1.2862829-1.8562283-.0389523.9363541.3171832,1.6618947.5615984,2.5423885-1.1000822-.5780782-1.9754395-1.1901863-2.6525038-2.0489567-.9621439-1.2202566-1.0661595-2.5319014-.3862059-3.9259453.2140238-.4387488.5207199-.7296071.9915722-.855239ZM92.847491,92.7427689c-.5389119-.3099064-1.3331541-.2546883-1.538831-.9620369-.0592846-.2033226.261109-.6979316.5618124-.6326543.773696.1675806.7983087.9387083.9770186,1.5946912ZM93.5875852,94.336818c-1.2227179-.3694051-2.348483-.476524-3.6065148-.5913477.7284299-1.1099273,2.1993084-.8511726,3.6065148.5913477ZM84.4382825,102.7378936c-.1054067.4375716-.3300247.8340507-.7745521.9860076-.2327509.0796168-.3195375-.2170201-.3178253-.4155272.0044945-.486048.2037506-.8723609.7174077-.9726311.2450572-.0477273.350571.1538831.3749697.4021507ZM88.1387537,112.2289923c.3343052-.4319.8040874-.6714996,1.3078993-.8347998,1.0657314-.3455414,2.1654926-.5201848,3.4438567-.6614405-1.2217548,1.1617211-2.8814022,1.7326295-3.2147442,3.4817389-.332593.1780678-.3252091,1.0824253-1.0355541.4635755-.7296071-.6357576-.9883618-1.8202723-.5014577-2.4490742ZM89.6998432,114.196727c-.0008561.000428-.0012841.0011771-.0020332.0014982.8418626-.9543321,1.5450377-2.0417869,2.7468883-2.6117322.2768398-.1311966.5123729-.3996894.8565232-.179566,2.5355398,1.6220863,5.2708707,1.9217196,8.2120926,1.1398907-2.2027328,3.6527439-6.7827347,5.2247486-10.4813868,3.6497476-.8559881-.3644825-1.7109061-.7864304-1.332084-1.9998382ZM90.210932,119.7882053c.6016209-2.0110745.5969123-2.0241299,2.6292822-1.908129,1.2879951.0736242,2.5674293-.0709489,3.8145459-.2292195.1271301.377966-.0389523.5870672-.1560233.7901758-.9303614,1.6148094-1.3821656,3.3587823-1.3637596,5.2127633.0059927.5964843-.1635142.8055855-.7713417.7501534-.9864356-.08989-1.952539-.2780169-2.8358151-.7045663-.8675454-.4189516-1.3718925-1.179164-1.4889635-2.1495479-.071698-.594237-.0022472-1.178736.1720751-1.7616298ZM98.1822478,117.3938143c1.0106203-1.3997155,2.2369766-2.5980347,3.4535948-3.8093023.3517481-.3500359.5614914-.333128.7211531.1417908.0890339.2650685.2170201.5200778.2797291.7906039.3278844,1.4142692,1.2436922,2.2330171,2.6111972,2.5784515.6077205.1535621.882313.3590249.6066504,1.0734363-.3499289.9078889-.1025174,1.8635051.0290002,2.8019994.4596161,3.2770252-.2552234,4.3305572-3.0017906,5.5117545-.8053715.3465045-1.6418835.5946651-2.5239825.6754591-2.9033396.2656035-4.2447337-.9755204-4.2087777-4.4045025.0436609-1.6777324.7690945-3.608762,2.0332259-5.3596906ZM103.5770383,111.3298784c.6545917-2.1019276,2.9975101-3.5823301,5.1781984-3.2561578.2709541.0404505.6328683.2587548.7621387-.0483694.5986245-1.4228301,1.5764992-.7419134,2.4456498-.4599371,1.5287719.4961071,3.014311,1.1300456,4.6261241,1.3442834.3079802.0409856.5842849.1862007.764921.611894-2.006901.2925705-3.1752569,1.6882196-4.3607346,3.0735956-.4279406.5000666-.9061767,1.2110536-1.5968315,1.0196093-.7304632-.2026805-.6052593-1.1089642-.6996437-1.7228915-.180422-1.1724223-.2264372-2.3656049-.3340911-3.6208544-.4554426.4057891-.3142939.9151657-.3287405,1.3581949-.0332807,1.0151148-.0417346,2.0326909-.0113433,3.0478057.0229005.7638509-.1859867.9844024-.8785676.5264985-.3903794-.2581127-.7688804-.5773292-1.2923826-.6247354-.1935845,1.269268,1.8671435,1.6516215,1.0594177,3.0702782-.3527112-.0997351-.3198585-.6282668-.7950984-.6374698-.0535059,1.3647227-.971882,1.2226109-1.9132656,1.0564214-2.1916035-.386634-3.3380219-2.4511074-2.6257508-4.7381655ZM114.6126397,119.325807c-.0474063-.2206585-.0952406-.4440994-.1941196-.9063907.9108852.8605896,1.5218161,1.6154515,1.54782,2.8995942-.666149-.6536286-.6766362-1.556488-1.3537004-1.9932035ZM112.5870116,116.2460047c1.2939878-.1127905,2.2217809.5183656,3.302173.5547496-.5330262-.5467238-1.4115939-.3400838-1.7667663-1.0303105-.0165868-.0321036.2374594-.2035366.4119958-.3488588-.4443134-.1275582-.8389732-.2408838-1.376708-.3953019,1.3492059-1.3877302,3.0671748-1.7669804,4.8520262-2.322051-.0836833.8020541-.161909,1.4853251-.224832,2.1699871-.0980229,1.0682997.0520078,2.1311418.5098047,3.0739166.4626124.9521918.2352121,1.6496953-.4036489,2.3511583-.3268143.3585968-.6293369.7393452-1.1039347,1.3005155-.4428152-2.5708537-2.384439-3.797103-4.2001097-5.353805ZM118.0156178,112.0935152c-1.7579914.3593459-3.3552509,1.1394626-5.2091249,1.9924544.4469887-.6622966.7804377-1.0175761,1.3376486-1.1590458.4888303-.1241338,1.0274212-.2656035,1.1475955-1.0196093-.3407259.2125256-.6136062.3826745-.8862725.5528234-.0574654-.0653843-.1149308-.1308755-.1722891-.1962598.5802185-.7412714,1.1749906-1.4692733,2.1590719-1.7864565.3978702-.1283073.8090099-.2192674,1.1989612-.3670508.4542655-.1722891.9530479-.3102275,1.1562635.2405627.1963668.5320631-.5345244.3992614-.7303562.7679173.2752346.0306054.5291738.0589636.7994858.0890339-.0698788.5181516-.36887.7973456-.800984.8856304ZM117.5714115,106.5109189c.008668.6817728.0512587,1.3275895.8675454,1.5907318.2576846.0831482.3488588.4054681.1722891.6094327-.2392786.2763047-.4683911-.0171219-.5765801-.1810641-.8887338-1.3468517-2.3144532-1.6860794-3.7399586-1.9902072-.5096976-.1087241-.6161745-.2467694-.2779099-.6403592,1.3162463-1.5317682,1.2502199-1.9492216,2.9413289-.1720751.1406136.1478904.287862.2893602.432007.4336122-.5071294-1.1124956-1.0668016-2.1438762-2.5754552-1.9484725-.3946599.0511517-.3604161-.2256881-.2621791-.4811255.4565127-1.187725,1.3289807-2.0278754,2.3292208-2.7558773.0740522-.053827.2035366-.0736242.2955668-.054148,1.9666645.4157412,3.9318309.8395083,5.9522155,1.2733345-.3257442.5969123-.6467799,1.1332559-.9173059,1.6942123-.3225338.6688243-.5870672,1.4019628-.3559216,2.1231159.2484816.7751941-.0169079,1.0983701-.7259687,1.2424081-.1359051.0276091-.2757696.062923-.3984053.1249899-1.3187075.6683963-2.3908597.4541585-3.1604892-.8685085ZM123.8723787,108.5679015c-.980443.287862-1.9173321.5628826-2.8542212.8379031-.0154097-.0528639-.0307124-.1059418-.0460151-.1588056.2497658-.2369243.5730487-.4319.7363488-.7181568.6524515-1.1438501,1.3356154-.8858444,2.1638875.0390593ZM120.1143351,109.5479164c.1149308.2714892-.1610529.5901706-.4209848.6065434-.5534655.0348859-.6619756-.4213058-.8000209-.9006121.4779151.0365981.9872917-.2578987,1.2210057.2940687ZM140.8639409,97.8319334c-1.485111.0297493-2.8287524.4798413-3.9453144,1.4733397-.395516.3517481-.6541637.3710102-1.0268861-.0161588-.4809114-.4994245-1.1265142-.6859462-1.8070028-.7369909-3.4584103-.2595038-6.6839628.4452765-9.5869814,2.3885054-.4753468.3181464-.9164498.4295457-1.4657419.3339841-2.3104938-.4017226-4.6507368-.7548619-6.7891555-1.7421536-4.9164473-2.2694012-8.1742104-6.0141753-9.4680912-11.3125481-.3718663-1.5228862-.1781748-3.0760568.8929072-4.3750742.2436661-.2956739.4940739-.5473658.9008261-.6714996.9190181-.2805852,1.6124552-.3116186,2.1409869.7426625.4986754.9945685,1.304903,1.8215564,2.1622823,2.5494513.4064312.3450063.386848.5981965.1538831,1.0470044-1.6033592,3.0880422-1.142887,5.3974658,1.7112272,7.3803962,4.2850772,2.9771778,8.9775486,3.4615137,13.9052322,1.8352539,2.8011433-.9243687,5.3112142-2.3248334,7.3221817-4.53495.1904812-.2093153.3375155-.5183656.9128114-.5623475-.5705874.7819359-1.0145797,1.4736608-1.5416133,2.0948648-1.0863847,1.2808253-2.2234931,2.5187389-3.3228263,3.788863-.1625511.1878059-.5095906.4101766-.2682788.6976105.2078171.2476255.5213619.0430188.7805447-.0492255.9554022-.3402978,1.6597544-1.0229267,2.3335013-1.7380871,1.296021-1.3754238,2.3225861-2.9572736,3.4502774-4.571441-.5260705,1.8944315.9934984,2.2026258,2.0619051,2.7246298,1.3975753.6831639,2.3882914,1.6278649,2.8775498,3.2512353-.8629439,0-1.6239055-.0126274-2.384225.0026753ZM139.1272449,90.2857758c.3727224-.4335052.6766362.1016613.9398854.2889321,1.3988595.9954246,2.6653452,2.1782271,4.4506246,2.9098674-2.3974944.4629334-4.6282643-.3460765-5.5367953-1.7793937-.3680139-.5804325-.1767836-1.043794.1462853-1.4194057ZM142.9749645,94.7130718c2.5270858-1.2808253,4.6193823-.9783027,6.6624534,1.0016313-2.4716537.7674893-4.4876507-.2272933-6.6624534-1.0016313ZM138.4020253,76.4721458c2.1387397,3.5336397,2.0690749,7.1733281.3580618,10.8374153-2.8368853,6.0752791-9.8108502,10.2233811-16.4724475,9.7427907-2.8727342-.207282-5.4859646-1.1974631-7.7444506-3.0494109,3.0540124.7619247,6.1395933.9851515,9.2646616.7659911,2.0022995-.1403996,3.9517351-.5086275,5.8119229-1.2800763,1.6982787-.7043523,3.0580788-1.7875266,3.9718534-3.4259857.7503674-1.3456745,1.5305911-2.672408,2.0021925-4.1478879.8687225-2.7187441.2268652-4.9531524-1.989137-6.7597272-.4752398-.3875971-.7311052-.7390241-.6674332-1.3885863.206961-2.1134849-.8221724-3.5400604-2.6468321-4.463038-1.2906704-.6527725-2.6876037-.9727381-4.0918137-1.2755818-1.6952824-.3655526-3.3822179-.7696295-5.2405864-1.1955369.5630966-.4618633,1.0507498-.6339384,1.5420414-.7418064,6.532862-1.4358856,12.9099146,1.4374907,15.9019671,6.3814401ZM130.8707424,69.2046471c-1.7038433-.908852-3.2687852-2.0280894-4.8024797-3.1974083-.4759889-.3628773-.5118379-.5923108-.0939564-1.0490376,2.1267543-2.3242983,5.147272-2.9167161,7.9201641-1.4733397,1.0632702.5534655,1.9174391,1.3025487,1.9645243,2.4347346-.0310334,2.6262859-2.8914613,4.4035394-4.9882523,3.2850511ZM141.4955251,54.1019518c1.6342856.5550707,2.2097956,1.7205372,1.7491094,3.3757971-.8285931,2.9768568-3.599559,4.9307869-7.1071948,4.8762109-1.0030225-.0879638-2.1790832-.2355332-3.2499512-.8269879-1.9869968-1.0972999-2.4488601-3.1506441-1.0754695-4.9638536,1.1115325-1.4677751,2.7139286-2.1345662,4.4232295-2.6335627,1.781641-.5201848,3.5339607-.414029,5.2602766.1723962ZM138.3331097,36.573939c2.5411044-2.0182443,5.506939-3.0060711,8.7090558-3.2893315,1.7145445-.1515288,2.6342047.7364558,2.6806479,2.4549598.1125765,4.1501352-3.4305872,9.7899829-7.2419228,11.4292981-1.6862934.7253266-3.4507055.9422397-5.2024901.2062119-1.8694978-.7856813-2.7818811-2.2719695-2.7205633-4.669999.1362261-2.4496092,1.6839391-4.4699937,3.7752725-6.1311393ZM131.3418087,54.3800757c1.2293526-1.9921334,2.4920929-3.9635065,3.7172721-5.9579941.2854007-.4648597.5174025-.647636,1.0552443-.306268.8342647.5294948,1.7919141.7608546,3.0374255.9196602-1.5599123,1.71005-2.4087307,3.7636082-4.7275714,4.4793038-1.5309121.4725645-2.8715571,1.4338523-4.0459056,2.6538949.3193235-.5973404.6084696-1.2133008.9635351-1.7885968ZM129.1112529,58.881424c.3043418-.4124238.5630966-.8738591,1.0521409-1.1666436.1692928.5020998.1568794.9892179.1264881,1.4709855-.0199042.3116186-.0676315.6586582-.4938599.6787764-.342117.0161588-.7668472.0979159-.9846164-.1783888-.2421679-.3073382.1249899-.5675911.2998473-.8047294ZM123.3992791,63.0634487c.4966422-1.1082152,1.304796-1.7515706,2.592042-1.8022943,1.1141008-.0438749,2.2199617-.2729873,3.3341695-.3543164.6140342-.044838,1.241873.0354209,1.700633.5565688-.2169131.3907004-.5811816.3316299-.8603756.3129028-1.8312945-.1228497-3.2320802.7243635-4.4924662,1.9193653-.2286844.2166991-.4512691.4450625-.7049943.6290159-.6507393.4717084-1.2323489.0766205-1.7282421-.2680648-.4555496-.3166482.0223655-.6877654.1592337-.9931774ZM124.9313684,66.2084212c1.4630666.9465202,2.9719343,1.8218775,4.4600416,2.7297664-1.6766623.0492255-3.3318153-.2001122-5.0086916.0950266-1.1828024.2080311-2.3438815.4846569-3.3844651,1.0552443-.7930651.4347893-1.4594282.3915565-2.2491759.0499746-1.5289859-.6613335-3.13181-.9576494-4.8131809-.7614966-2.5627208.2987772-4.3650151,1.7248177-5.7606642,3.7892911-.1849165.2734154-.2662456.6343665-.6055803.8090099-.7789396-3.491584,1.0561004-6.9405773,4.6269802-8.4336072,4.3250996-1.8082869,8.6102838-2.0015504,12.7347362.6667911ZM116.3391695,37.8122806c.818855-2.5978207,2.7579105-4.1400761,5.1550839-5.1664271.990288-.4239811,2.0555914-.6691454,3.0670678-1.0486095.693116-.2600389,1.0583476.0282511,1.3207408.6144623.4806974,1.0741854.6036541,2.2149321.6339384,3.4581963-.1537761,2.7205633-1.0114764,5.1959624-3.3643469,6.9352267-1.6600755,1.2272124-3.8205386,1.1859058-5.57029-.0492255-1.3266264-.9365681-1.853446-2.8045677-1.242194-4.7436231ZM114.8339403,49.4853518c1.5739309-2.0218827,5.2672323-4.0257874,8.1911183-2.5840162,1.9039556.9390294,2.7692537,2.5726729,2.3102797,4.6402497-.6261266,2.8200844-3.3816828,4.9911417-6.6239291,4.9241522-.702212-.0246127-1.7507146-.2150939-2.6244666-.8338367-2.0386836-1.4440185-3.239143-3.5949575-1.2530022-6.146549ZM82.4367321,37.3487051c4.9411671-1.4561108,9.763444-.8681875,14.586577.5023138,1.4134131.4017226,2.8403096.7582863,4.1886595,1.3525233.8023752.3536743,1.6409204.3042348,2.4789305.3023086,2.8391325-.0068488,5.0605924,1.2914195,6.8037091,3.4032992,1.7177549,2.0814883,1.5705065,4.4039674.4717084,6.7141401-1.070761,2.2509951-2.8392395,3.8771479-4.8880892,5.2310623-2.762619,1.8256229-5.8431703,3.0051079-8.836828,4.3613767-1.4188707.6427134-2.8420218,1.2762238-4.2632468,1.9138007,1.2982683-2.0013364,2.7505267-3.7808372,4.4950345-5.3148526,1.5785324-1.3879442,3.1233561-2.8177301,4.3957275-4.5069128.9374242-1.2443343,1.6236914-2.5978207,1.925679-4.1501352.3892023-2.0017644-.1384734-3.6117584-1.88983-4.7220067-.5959492-.377645-.9164498-.7088468-.3274564-1.3546635.2041787-.2238689.4028998-.6179937.153348-.8591985-.3194305-.3088363-.5394469.1093662-.7384891.3036997-.2459133.2402417-.4359664.1183552-.6471009-.0190481-6.3124175-4.1079725-14.5999534-1.3371136-19.2091697,4.3263838-.4447414.5464027-.9297193.8949405-1.5979016,1.0826393-1.8007961.5059522-3.4870895,1.260172-4.9454476,2.4599894-.5962703.4905425-1.151448,1.0219636-1.6077467,1.6520496-1.3145341,1.8150287-.8680805,3.1320241,1.322453,3.3618856,5.2168297.5475799,10.4616966,1.2757958,15.6113228-.4753468,3.1617734-1.0750415,6.1724459-2.465768,8.872356-4.4642151,1.5247054-1.1285474,2.8368853-2.4080886,3.1005626-4.4261189.0197972-.1512078.1474624-.28829.2744855-.5239302.9326086.9571144,1.2501129,2.0051888,1.0162919,3.2167775-.2527621,1.3096115-.8595195,2.4903807-1.8072168,3.383716-4.2738409,4.0284627-8.7771154,7.7098858-14.730829,9.0055858-2.8665275.6237723-5.7471807.819176-8.6589742.3650176-2.5993189-.405361-4.7552874-1.5428975-6.3853996-3.6640872-1.151662-1.4985945-2.4137602-2.9120076-3.5912121-4.391554-.8861655-1.1133517-.8478552-2.4133322-.5544286-3.7083901.4359664-1.9252509,1.5882705-3.410362,3.0513371-4.6667886,3.4616207-2.9727904,7.6380808-4.4263329,11.9311839-5.6913205ZM70.2461514,59.718364c6.0106439.8780326,12.0231071,1.4567529,18.0284004-.0529709,2.1618542-.5436204,4.1406111-1.4564318,5.9339164-2.7964348,1.3032978-.9739152,2.573636-2.0032626,4.0812195-2.7223825-.0731961.0962037-.1307685.2115625-.2219427.2857218-2.1886072,1.7792867-3.9136389,3.9885472-5.7178594,6.1272869-1.3123938,1.5557389-3.0817285,2.3749149-4.9886804,2.9390816-5.5381864,1.6384591-10.9807043,1.4631736-16.2754386-.945236-1.9089851-.8684015-4.2683833-2.8585017-5.6723794-4.6858367,1.7026662.8451799,3.1823196,1.6096729,4.8327641,1.8507707ZM64.4060844,51.7118412c.6010858-.9643912,1.2309578-1.9108043,1.7843163-2.7671135,1.9181882,4.4168088,5.0736478,7.7811557,8.9701648,10.7122114-3.3040992-.1768907-6.4857767-.4577969-9.3436363-2.1163742-2.4736869-1.4356715-2.9234579-3.4025501-1.4108448-5.8287237ZM92.2454421,44.9272873c-.7257547.0191551-1.3012646-.116857-1.9150848-.575617-2.1752307-1.6261527-4.4986729-1.4293578-6.8363477-.3367664-.4571548.2138098-.9017892.4546935-1.3886933.6076135,2.4710116-2.6270349,5.4934555-4.2432355,9.0043016-4.9574329,2.8730553-.584499,5.6541873-.3394417,8.2129487,1.16964,2.5090008,1.4797604,2.7661504,3.5688466.7814008,5.7187155-1.4260405,1.5448237-3.2050062,2.5566211-5.2609186,3.455414.099307-.8566302.2375664-1.5435395.2475185-2.2321611.0262179-1.8315085-1.0323437-2.8971329-2.8451252-2.8494056ZM79.0484145,51.3868461c-.1576285-.4041839-.1608389-.8193901-.1695068-1.2384486.0054576-1.1676068.4058961-2.1513671,1.1895442-3.0430972,2.0597649-2.3438815,4.6221646-3.4242735,7.7231553-3.2478109,1.0174691.0578934,2.8238298,1.1227688,2.5848722,1.4430554-.593809.7954194-1.3331541,1.4913177-2.4157935,1.6588983-1.8568703.287648-3.6005221.872575-5.0511753,2.1291086-.7212602.6248424-1.3286596,1.3303718-1.5972595,2.2834197-.1498166.5316351-.2846516,1.1567986-1.0200374,1.1302596-.6863743-.0246127-1.0138307-.5256424-1.2437992-1.1153849ZM79.8680186,52.9941647c-2.016104-.1479974-3.9651116.11675-5.8424213-.4576899-1.1680348-.3572057-1.4195127-1.1148499-.6384329-2.0706801,1.5683663-1.9191513,3.6426848-3.0787321,6.0770983-3.725405-1.4774062,2.1911755-2.0898352,4.2672062.4037559,6.253775ZM82.0718215,51.0697699c1.2796482-2.1516881,3.2784163-3.1719395,5.6683129-3.4926541,1.4232582-.1910162,2.9716132.8038733,3.5327836,2.132961.4854059,1.1497358.1734663,1.997698-1.0126535,2.4092657-2.4262806.8420766-4.9327132,1.2320279-7.5068842,1.1187023-.5862111-.0257899-1.1716732-.0703068-1.880948-.1138607.4642176-.7959545.8269879-1.4280737,1.1993893-2.0544143ZM89.122407,46.9474578c.9978859-.7632088,1.9363802-1.4113798,3.1737587-1.3828077.7986297.0185131,1.4133061.3816044,1.8209144,1.0512848.9169849,1.5067274.0487974,4.0057761-1.5685803,4.6739584-.4812325.1987211-.5593512.0893549-.6395031-.3827815-.4113537-2.4248895-.5100187-2.5431376-2.7865897-3.959654ZM64.2280166,45.725596c-.6274107.261323-1.1803412.70157-1.8010101,1.0792149-.1633001-4.3955135,2.3386379-9.2923776,6.6942359-10.9583388,1.9728712-.7546479,5.1479141.6168165,6.15511,2.5461339.2315737.4438853-.0164798.5114098-.2936406.6801676-3.6005221,2.1908545-6.8104508,5.0099757-10.7546951,6.6528223ZM64.9800962,21.3689403c-.1581636-1.4004646,1.6389941-3.4144284,3.4487793-3.1522493,1.9961998.2889321,3.725298,1.6584703,4.193368,3.581153.405361,1.664784-.2660316,3.2738148-1.7540319,4.246981-.3637334.2378874-.7312123.3716523-1.1761677.3451134-2.2635155-.135156-4.7374165-2.762191-4.7119476-5.020998ZM48.6736241,26.61263c-.3888812-.6443186-.2860428-1.2986963.1048717-1.8780587,1.1456693-1.6979577,2.1186214-1.9093062,3.6849545-1.0007752,1.1147429.6465659,1.1081081,1.9872108.071698,2.7528809-.7713417.5698383-1.6660681.9747713-2.2236001.9783027-.6243074-.045052-1.2535373-.2153079-1.637924-.8523497ZM54.3994024,40.2771925c-2.4348416-1.0953737-4.2857193-4.2494422-4.301771-7.7741999.1073329-1.8003681.7248986-3.7832984,2.9356572-4.840897,2.1284665-1.0182182,4.4879717-.3552795,5.8422072,1.5768202,2.0128937,2.8717711,1.5313402,7.9734561-.9842954,10.4253125-1.2246441,1.1936106-1.9268561,1.3168883-3.491798.6129641ZM61.0534018,42.7067905c-.6968614-.5835358-1.4474428-1.1101414-2.2924087-1.4658489-.495251-.2086732-.4238741-.4186305-.1125765-.7482271,1.5760711-1.6692785,2.3097447-3.7187703,2.6374151-5.9448316.0828272-.5634176.2977071-1.0278492.7071346-1.4643507.4973913-.5303509.8679735-1.1808762,1.2854268-1.7848513.7588213-1.097728,1.5806727-2.1342452,2.6214703-2.9894842,1.0623071-.872789,2.096898-1.5178567,3.5954926-.908745,1.0012033.4068592,1.8934684-.2598249,2.6652382-.8751433.3658737-.2917144.5919898-.3587039.9654613-.0160518,2.0645804,1.8934684,4.1603013,3.7503388,5.8383548,6.0226293.6645438.899756,1.2073082,1.8018662.9213724,3.0035028.4172394,1.2966631-.2146659,1.9111254-1.4477639,2.1469796-.4073943.0779047-.8044084.2436661-1.1862268.413922-.5095906.2272933-.7883566.0819711-1.1088572-.3820325-2.5404623-3.6788548-6.3239748-4.211774-9.8688507-1.4990226-2.1085623,1.6137393-3.149146,3.9172773-4.2190509,6.2057266-.2864708.6128571-.4622914.7374189-1.0016313.2858288ZM58.3975807,54.0949961c.666256-2.9432551,2.4096938-5.155833,4.8352253-6.8641708,1.2899213-.908531,2.7129655-1.5824919,4.3435057-2.3198038-.512694,1.3528443-1.2216478,2.3495531-1.8113903,3.4085428-.7306772,1.3123938-1.4440185,2.6348468-2.2012346,3.9316169-.8848813,1.5155024-.6056873,2.9398307.2514779,4.3421145.810294,1.3257703,1.9402326,2.3797305,3.0106726,3.5022852-2.4355907.530779-6.2704688-.3900583-7.6072614-2.1336031-.8924792-1.1640754-1.1366803-2.4721887-.8209952-3.8669817ZM57.9678209,58.791748c.7103449-.4808044,1.2957.5686612,1.9431219.9142026,1.835682.9799079,3.8132618,1.1490937,5.8098896,1.1513409,1.169426.0012841,2.1387397.2420609,3.0802303.9917862,3.9312959,3.1300978,8.6230182,3.383502,13.3571173,3.3400552,2.7398255-.0250408,5.3019042-.8228144,7.7626426-2.006473,4.8809194-2.3478409,10.0998894-3.9125688,15.0361339-6.326329-.3169692.3711172-.6371488.7396662-.9504796,1.1137798-1.4891775,1.7774675-2.726235,3.7315047-3.9281925,5.7045899-2.9319118,4.8127528-7.3457243,6.4331269-12.7295996,5.9255695-4.013374-.378287-7.8083367-1.5415063-11.3996558-3.3716237-.0817571-.0417346-.1881269-.0348859-.4661438-.081222.6426064.6149973,1.2887442.918269,1.9120885,1.2230389,3.6003081,1.7605596,7.3934516,2.6886738,11.4164567,2.8485496,5.5238468.2194814,9.4884234-2.2775341,12.2393781-6.8486541,1.6603965-2.7590876,3.5829722-5.2536418,5.9847471-7.3954848,1.8851215-1.6811568,3.5955996-3.5250787,4.8643326-5.7744687.5776502.4483798.8291281.9136675.7940282,1.5683663-.1045506,1.9514689.7058504,3.4808828,2.3155233,4.5431899.6073995.4007595.7131272.8696856.6106099,1.5010558-.2748065,1.692072-.5342034,3.3867124-.8121132,5.0782493-.0489044.2978141-.0512587.6458168-.450199.7509024-1.475801.3890952-2.8927455.9350699-4.4341448,1.8605088.4548005-1.205596.8211022-2.1342452,1.1551934-3.0744517.3274564-.9213724.5244653-1.8692837.4884023-2.8537931-.2528691-.0209743-.2657105.1393295-.2890391.2675297-.6573741,3.6120794-2.5366099,6.6350583-4.6156369,9.5592653-.4098555.5765801-.9489815,1.0141517-1.5625876,1.3792763-.8140395.4845498-1.5762852.4749188-2.3524424-.0663474-.3431871-.2392786-.7034962-.4620773-1.0790009-.6450677-.4458115-.2172341-.6947212-.1125765-1.1052188.3167552-1.8510917,1.9368082-1.8468112,4.2057814-1.4089186,6.5820874.1223146.6642228-.0748013.7807588-.6887285.6969685-1.9326348-.2637843-3.5161967.3092644-4.6310466,1.9964139-.224939.3406189-.5560338.6376839-.8962246.8698997-.6701085.4575828-1.2519321.3561356-1.638031-.414136-.0157307-.0312475-.0346719-.0614248-.0464432-.0941705-1.187404-3.3013169-3.2608664-5.8362146-6.5039688-7.4808803,7.6743578-.2586477,14.4983992-2.0016574,18.4018719-9.4385559-.5780782.6233443-1.1991753,1.2124447-1.7272789,1.8755974-3.7231577,4.6754566-8.7550709,6.5401388-14.5352113,6.8280008-1.7928772.0893549-3.5601786.0143396-5.2974097-.5201848-3.4172107-1.0514988-6.9066545-.9438449-10.4134342-.6108239-2.6472602.2514779-5.2973027.5324912-7.9205922-.2737364-2.3626085-.7259687-4.2316783-2.1473006-5.7868821-4.0039569-.8979368-1.0718311-1.2084853-2.357579-.9575424-3.7443461.1054067-.5827868.2391716-1.169426.4442064-1.7231055.2784449-.7525076.4463466-1.7575633,1.0101923-2.1391677ZM41.6799689,46.2172086c1.6529057-.4999596,3.1283856-.0263249,4.4590785.9138816,1.890151,1.3355084,3.6025553,2.8914613,5.2828561,4.4819791,1.8309735,1.7334856,3.6839914,3.4436427,5.5213856,5.1704936.3225338.3030577.7141974.5684472.5095906,1.1437431-.5815026,1.6348207-1.1332559,3.2801285-1.7599176,5.1058584-.6855182-1.6891827-1.4142692-3.1803934-2.2085114-4.6397146-1.2100905-2.2232791-2.5458129-4.3476791-4.4207683-6.0909029-1.5128271-1.4063503-3.275527-2.375557-5.1884716-3.1092305-.5410521-.2074961-.7713417-.1103293-.7307842.5111958.0375612.57551.0080259,1.1551934.0080259,2.0081852-.9650332-1.2064521-1.8146007-2.1261123-2.4135462-3.2257665-.6681823-1.2269984-.3753977-1.871638.9410626-2.2697222ZM22.8093849,54.2622556c.5071294-.4551216,1.1530531-1.2037768,1.7677294-.0097381.2107064.4092135.7514375.4561917,1.2065591.7911389-1.3221319.8924792-2.7389694,1.6172707-3.4137864,3.1658398-.2240829-1.3957561-.827951-2.8097042.4394978-3.9472406ZM28.1245585,54.1658379c.5523954-1.3559477,2.1752307-2.3998487,3.5126654-2.2951911.8296632.0647422,1.5081186.4307229,1.7844233,1.2312788.1855586.5376277.4192726.9113133,1.0192883,1.0217495-2.1441973-.1108643-4.211346-.6367208-6.3163769.0421627ZM31.2191284,54.8828176c-.827523.1990421-1.656009.2125256-2.4878125-.0646352.8324455-.2465554,1.665212-.3246741,2.4878125.0646352ZM28.5823554,52.7325206c-.3592389.4274055-.7586073.8257038-1.1723153,1.2013155-.4609002.4184165-1.0043066.602477-1.647127.486155-.396265-.071591-.5476869-.2076031-.4123168-.6251635.8227074-2.5365029,2.1487988-4.5030604,5.0247434-5.0696884,1.4258264-.2809062,2.5571562-.0031033,3.5352449.998421,1.4473358,1.4821147,2.330398,3.2886895,3.0336801,5.3745653-.9778747-.1873778-1.566012-.5815026-1.8663944-1.3920107-.9322876-2.5162776-4.7867489-3.0063921-6.4955148-.9735942ZM21.2824322,57.2636182c.053934.710559.4006525,1.1501638,1.1228758,1.3179585.7800097.1810641.7235074-.5187937.9323946-.8755713.8690436-1.484469,2.3679591-1.7684785,3.8453653-2.0310857,1.4966683-.2660316,2.9888421-.1688648,4.4610047.3029507.98986.3172903,2.0025135.5983035,3.3005678.6629387-1.1907213-.8143605-2.5299751-.5854621-3.5493704-1.296128,1.287139-.6743889,4.2933171-.3820325,5.2307413.4727785.4373576.3989403.5626685.6991087-.1836324.9010401-3.311269.8963316-6.6671619,1.5893406-10.0295826,2.2553826-.4871181.0965247-.7761573-.0068488-.5534655-.593702.0691297-.1821342.1431819-.3823535.0224725-.5678051-.0749083.0040665-.1370822-.0029963-.1410417.008989-.5878163,1.8016522-1.9495426,1.7708328-3.4580893,1.5135762-1.1545513-.1969019-1.7712608.2627142-2.0894072,1.3937229-.2345701.8340507-.1516359,1.6613596-.008775,2.4975505.3405118,1.9929895,1.0395135,3.8414059,2.1558616,5.5313377.7150535,1.0826393,1.7267439,1.6330015,3.0083183,1.6068906,3.2897596-.0672035,6.4858838-.765135,9.4750469-2.0588018,3.8576717-1.6694925,5.9709425-6.0014409,5.3007271-10.1469746-.1418978-.8770695-.5182586-1.5369048-1.3273755-1.8644682-.7636369-.3092644-1.070654-.7723048-1.1803412-1.6256176-.2722383-2.1191565-1.3402169-3.8922365-2.8850406-5.3405355-1.1962859-1.1214846-2.6162267-1.5787464-4.2539367-1.0457202-.2896812.0941705-.5750819.2748065-1.0287053.1023034,1.9019224-.8091169,3.725619-.5597792,5.5568065-.1307685-2.9771778-1.7566002-6.9084737-.6803816-8.9010351,2.3974944-.3985123.6155324-.7341016,1.2721574-1.0923774,1.9133726-.3077662.5504692-.5877093.6093257-.9479113.0217234-.6496692-1.0599528-.5416942-2.0821304.3594529-2.9450743.5139781-.4922547,1.1237319-.8505305,1.7765044-1.0985841,1.6667102-.6332964,3.3432655-1.2428361,5.0316992-1.8153497.8221724-.278766,1.6003628-.1608389,2.4173986.2577916,1.7076958.8749292,3.482167,1.619625,5.2291361,2.4177197-1.4152323-1.2629543-3.239143-1.78132-4.8750337-2.6702677,2.0958279-.1779608,3.9730305.4000105,5.5981131,1.6728099.8839182.6922599,1.8022943,1.4182286,2.1042818,2.6078798.7505814.7958474,1.0271001,1.7514636,1.1416029,2.8327118.2356402,2.2256333.7097029,4.4298643.5663069,6.685675-.2708471,4.2582172-2.8780848,7.3992303-7.0497294,8.3014475-2.222637.4805904-4.3303432,1.1032926-6.0778474,2.6381642-.8475342.7442677-1.8829812.3896303-2.8321767.3503569-3.9421041-.1635142-7.6149662-3.3543948-8.3672598-7.2021143-.2712751-1.3877302.045052-2.7097551.4162763-4.0319941.4513762-1.6076397,1.2394117-3.104629,1.6783745-4.7749776.0333877.4836938.0639931.9674945.1008052,1.4509742ZM37.6379157,57.1915992c.693009-.7138763.9844024-.2385295,1.2434782.3740066.3069101.7258617.3203936,1.4989156.3362314,1.9040626-.0387383,1.8226265-.4123168,3.1999766-.999063,4.5241418-.7700576,1.7379801-1.9802551,2.9167161-3.8053429,3.6687957-2.6741202,1.1019015-5.5036216,1.2909915-8.27844,1.799405-1.3184935.2416329-2.4554949-.3029507-3.1085884-1.4966683-1.0645543-1.9460113-1.8250878-4.0164773-2.0215616-6.245214-.0509377-.5781853-.2084592-1.1527321.900184-1.2524672,5.0867033-.4575828,9.9171131-2.2912316,14.9756722-2.9548124.2653895-.0347789.5800045-.1385804.7574302-.3212497ZM13.3729692,68.8339579c-.0276091-.8301983.3886672-1.5328383.9819411-2.0193144,1.5170006-1.2436922,2.0586948-2.9224948,2.366247-4.7485457.432114-2.5640049,1.6929281-4.6370393,3.8100514-6.1904239-.9726311,1.8251948-1.9284613,3.6525299-2.366247,5.6866119-1.0953737,5.0896996,2.9398307,10.654746,8.1361141,11.3539617,2.096256.2821904,3.9386797.0743733,5.4873558-1.5668681,1.0375873-1.0998682,2.5607946-1.2299947,3.9463845-1.5630157,5.3892259-1.2950579,8.3643705-5.0910908,8.2462294-10.609908-.0202252-.9435239-.0623879-1.9006382-.2381015-2.8241508-.3976562-2.0913334-.2781239-4.1796705-.1113994-6.3323217.6774923.0843254,1.1538022.5728347,1.7088729.8856304,3.1823196,1.7930913,5.4874628,4.3690815,7.0790507,7.666546.9680296,2.0051888,1.6779465,4.1687553,3.2084305,5.8740968.3796782.423018-.080901.6311561-.2754486.8605896-.9768045,1.1523041-1.8783797,2.3512653-2.5599385,3.70732-1.3928668,2.7709659-1.3001945,5.4693778.4361805,8.0560692.3640545.5422293.413494.7954194-.225367,1.1645034-2.9385466,1.6968876-4.9957432,4.1505632-5.9879574,7.415282-.2268652.746943-.5386979.6954703-1.13347.5138711-4.0158353-1.2263563-7.7340705-3.0569017-11.221053-5.3850524-2.3063203-1.5400081-4.805476-2.7294453-7.3106244-3.9012255-1.3560547-.6343665-2.7744973-.9558302-4.2821879-.8002349-2.5441007.2626072-5.0239943-.1937985-7.5073123-.6530936-.4581179-.0846464-.6384329-.3394417-.8117922-.702319-.8903389-1.863077-1.3080064-3.8365903-1.3759589-5.8880083ZM3.3515196,84.0842227c-2.4752921-2.9638014-1.4598562-6.4149349,2.2399729-7.5802944,2.2234931-.7002858,4.508732-.4493429,6.7794174-.3642685,2.2795673.0853955,4.526068.4038629,6.7565168.8899109.7073486.1540971,1.4744098.1812781,2.195456.1003772,2.519488-.2825114,4.8382217.25212,7.0993829,1.3694312,2.4221072,1.196928,4.8427162,2.3682802,6.8795805,4.1875894,2.4621296,2.1992014,5.4045286,3.4484582,8.5437224,4.3061585.7415924.2025735,1.4976314.3622353,2.1835777.7324964.3319509.1793519.5741188.4070732.4805904.8297702-.1013403.4582249-.4651807.3285265-.7611756.3291686-1.6763413.0037454-3.3526826.0017122-5.1269397.0017122.5609563-1.277508-.2115625-1.8152427-1.1285474-2.096363-1.9034205-.5837499-3.4402183-1.68319-4.7999114-3.086437-2.8623541-2.9540633-9.6846832-2.9706501-12.5298084-1.0664805-.4905425.3283125-.9643912.7069206-1.3669699,1.1363593-1.0647683,1.1360382-.8037663,2.1024626.7329244,2.3806936,1.5630157.2831535,2.4885615,1.3160322,3.4115391,2.4231773.3902724.46807.3633054.7805447-.2951388.9325016-1.2386626.2857218-1.8769886,1.0314876-1.6930351,2.3454866.090104.6444256-.2662456.7799027-.7972386.7786185-1.4359926-.0034244-2.8721992-.0072768-4.3078707.0119853-.3639474.0049225-.5922038-.1273442-.7513305-.4396049-.0950266-.1865217-.2331789-.3518551-.3219988-.5406241-1.6204811-3.4450338-4.5322747-4.3340886-8.0184011-3.9921856-.6868023.0674175-1.1976771-.0820781-1.7427957-.458867-1.3305859-.9192322-2.618795-1.8819111-3.6615189-3.1303119ZM22.7450707,93.5145386c.2887181-.0978089.4764169.1162149.4309369.4058961-.1122555.7137693-.647957,1.0008822-1.2531093,1.1910424-.3130098-.1131116-.7243635-.206854-.620562-.5832148.188662-.6847691.8686155-.819176,1.4427343-1.0137237ZM18.0868431,93.3212751c1.3019067-.0575724,2.393214-.1058348,3.5857545-.1585916-1.0059118,1.4833988-1.7261018,1.5234213-3.5857545.1585916ZM17.9303917,109.1284297c-2.9979382,1.3168883-6.0721758,2.3163794-9.6265758,2.3712765-1.0921634-.063137-2.4073395-.207175-3.635087-.7881426-1.9808971-.9372101-2.7655083-2.6588175-2.1677399-4.7611731.5023138-1.7669804,1.5685803-3.1780392,2.7919403-4.5019903.3634124-.3931617.6464588-.2390646,1.0018453-.0428048,1.5321963.845608,3.1241052,1.5615175,4.7658816,2.1692381,1.1623632.4302948,2.3626085.6560899,3.5964557.6020489.5242513-.0230076.7693085.1519569.8682945.6438906.3077662,1.5277018,1.2269984,2.6395553,2.4495022,3.5349238.3978702.2915004.557746.5081995-.0445169.7727329ZM32.97926,106.8651282c-.6403592-.0851815-1.161079.0023543-1.6927141.3030577-1.0355541.5856761-2.0662926,1.1808762-3.1153302,1.7416185-4.6770617,2.5000118-10.8122675-.1265951-12.1730308-5.2308483-.1498166-.5615984-.4871181-.6410012-.9130255-.6266616-4.2226893.1418978-7.568095-1.9535021-10.8060608-4.2722358-1.2990174-.9301474-2.2914456-2.1519021-2.7935454-3.7184492-.6665771-2.0799901-.0497605-3.689235,1.9006382-4.634043,2.2532424-1.0914143,4.5946626-1.8882248,7.1559922-1.79063,2.0301226.0772626,3.6511387.8563092,4.7218997,2.645227.9485534,1.5846321,2.0278754,3.0229789,3.9029377,3.6329467.7255406.2360682.6191708.6936511.0830412,1.0472184-.7541128.4972843-1.5905177.4908635-2.4201809.2016104-.4954651-.1726102-.3604161-.611894-.3432941-.9861146.0222585-.4885093-.1423258-.8721469-.6864813-.8327665-.6265546.0454801-.6676472.5342034-.5804325,1.0162919.2288984,1.2652016,2.0073291,2.0890862,3.2869773,1.5469639.567163-.2402417.9754134-.6664701,1.3908336-1.0952667.3244601-.3350542.6891566-.9420257.9503726.054255.0257899.098558.0798309.207282.2114555.1207094.7152675-.4704243.7076696.1647983.8568442.557853.1356911.3572057.2205515.8033383.710559.7854673.494502-.018085.6823078-.4149921.8085819-.8423976.2450572-.8296632.3335561-1.7476112,1.3451395-2.2824566-.6765292-.4527673-1.1150639-.9853655-.5059522-1.5891266.4941809-.4896864,1.1112115-.2153079,1.6094589.1854516.4888303.3932687.4646456.8253827-.107654,1.0246389-.7039242.2450572-.7654561.6356506-.621311,1.2767589.0883918.3932687.4725645.9879338-.4800553,1.0954807-.351106.0395944-.4073943.7082047-.2186253,1.1135657.1904812.4089995.5604213.6303,1.0333068.5470448.486262-.0856095.8490324-.3108695.8660472-.881778.0154097-.5196497-.3452204-.9113133-.4428152-1.3870881-.0780117-.3797852-.4988894-.9303614.4246232-.881564.333235.01755.1239198-.4175604.3169692-.6264476.2904303.4576899.6181007.854811,1.2334191.5351665.369298-.1917653.6308351-.4404609.5620265-.9030734-.0843254-.5664139-.4075013-.8430397-.9579705-.8675454-.2677438.3412609.2916074.5920968-.0624949.9820481-.2276143-.59413-.6996437-1.1539092.4449554-1.151662.3531392.0006421.612322-.0997351.7101309-.4725645.1247759-.4757749-.1125765-.8233495-.4290107-1.1114255-.2963159-.269884-.6727838-.3751837-1.0753625-.2778029-.2176622.0526499-.2356402.2301826-.1838464.41435.2799431.9932844-.3786081.8259178-.9438449.7593564-.539982-.0636721-1.017148-.4387488-1.6220863-.2315737-.4042909.1385804-.3921986-.2116695-.2672087-.4346823.3089433-.5511112.7410574-1.0146868,1.4341734-.7045663.8722539.3903794.9206233-.0654913.8878777-.7293931-.0517938-1.0457202-.5557128-1.8590106-1.2706592-2.5699976-1.0908792-1.0849936-2.4521775-1.7160427-3.9562296-2.2727186.8674384-1.3365785,1.9785429-2.2130059,3.4958645-2.4759341,2.1342452-.3697261,4.2600364-.2194814,6.3588606.2813343,1.142994.2726663,2.1795112.7961685,3.0160232,1.6265808,1.4382398,1.4275386,3.0164512,2.6025292,5.0221751,3.1084814.2920355.0736242.6845551.143824.7306772.5010297.0458011.3537813-.3089433.5373067-.5715505.6846621-.6395031.3584898-1.3042609.6718207-1.9581036,1.0048417-1.458144.7424485-1.8485234,1.5077976-1.6060345,3.1397289.0618529.4154202.1230637.8308403.1754995,1.2474376.242917,1.9293174-.4877602,3.4432146-2.0625472,4.5161159-.8633719.5881374-1.8246598,1.0317016-2.7360801,1.5503883-.2011824.1145027-.5274616.1920863-.4603652.4930038.0783327.350999.4324351.3157921.6971825.2934266.7090608-.0600337,1.3595861-.3142939,1.9612069-.6908688,1.142459-.7152675,2.0901563-1.6389941,2.8989522-2.7118954.179673-.2384225.2711681-.5979825.6970755-.5063803,1.9478305.4186305,3.9406059.6197059,5.8501261,1.2278544.6727838.2143448.7797957.6144623.5061662,1.20581-1.1169901,2.4137602-2.5038642,4.6158509-4.7791511,6.1261098-1.6513005,1.0961228-3.4845212,1.4524724-5.4150158,1.1960719ZM112.9038738,221.36293c.1917653.3343052.062709.6237723-.2581127.7936002-.6166025.3262793-1.2310648.6651859-1.8744203.9311105-4.9916767,2.0627612-10.096251,3.8086602-15.4770229,4.4408865-5.1050023.5996946-10.2178165,1.259744-14.9764213,1.1591528-8.6302951.0909601-16.6305041-1.305117-24.485819-3.6553122-.0668824-.0199042-.1292704-.0545761-.1958318-.0755504-.3587039-.1125765-.8800658-.1966879-.7431976-.6696804.1270231-.4391768.6010858-.1863077.9174129-.1048717,2.5042923.6447466,4.9893224,1.3740327,7.5108437,1.9409817,5.7098335,1.2841427,11.5158707,1.5561669,17.3345353,1.2495779,7.378577-.3887742,14.712637-1.2410169,21.9645118-2.6931683,3.3356677-.6679682,6.5851908-1.6215512,9.5766012-3.3063464.224618-.1264881.4870111-.3935897.7069206-.0103802ZM90.1531456,172.1695633c-1.3100396,2.8784059-2.2192126,5.8800894-2.9382255,8.9565743-2.2268105,9.5286599-.1201744,18.0947478,5.6021796,25.8997672.8990069,1.2261423,2.0826654,1.9383064,3.509562,2.3255824,4.238099,1.1499498,8.1724982,2.8892141,11.4985348,5.8430633,1.3413941,1.1913634,2.5461339,2.4980856,3.6676186,3.896089.5493991.6847691.6463518,1.02603-.2951388,1.4833988-3.464938,1.6837251-7.1417596,2.6571053-10.8877109,3.3989117-7.6446085,1.5135762-15.3678708,2.4109779-23.1619749,2.3534055-6.6012426-.0487974-13.1361378-.791888-19.4449169-2.9114725-.5269266-.1771047-1.0398346-.396265-1.7057696-.6523445,1.0534251-1.511543,2.3619665-2.5673223,3.7102093-3.5672414,3.4667572-2.5708537,7.0986338-4.91313,11.0044609-6.731476,7.6589481-3.5652082,10.8421239-10.0058259,11.9793392-17.8902481.9236196-6.4026285-.5229671-12.4531879-2.6268209-18.4179237-.395516-1.1213776-.7482271-2.2579509-1.1392486-3.3810407-.1740013-.4997455-.0522218-.6619756.4963212-.6728908,3.4684694-.0689157,6.92902-.2919284,10.3741608-.7012489,1.062093-.126167.5008157.4541585.3574197.7690945ZM130.6169102,132.7677847c-4.2419514,9.7072627-10.6506796,17.8324617-18.528681,24.7897328-3.2711395,2.888893-7.4542344,4.2393831-11.599554,5.4638132-.7579652.2238689-1.5955473.1763556-2.3958892.2593968-.2469834.0256829-.5352735.0815431-.5987315.3359103-.0672035.2693489.2078171.4215198.396265.5683402,1.2496849.9729521,2.6940244,1.6189829,4.0782232,2.6083079-11.158772,3.788221-22.5093094,4.7853578-34.0879961,2.556086-.0199042-.1104363-.0398084-.2209796-.0596056-.3315228.9923213-.458546,1.9937386-.8988999,2.9739675-1.3819516.6912968-.3405118,1.35873-.7339946,1.8440289-1.3607632.1776397-.2294335.3133308-.4906495.1305545-.7674893-.1241338-.1879129-.3728294-.2585407-.5618124-.1752855-1.0928054.4805904-2.1485848.0603547-3.1846739-.1610529-7.0421316-1.5050152-13.6721603-4.1087216-18.6504606-9.4264635-6.5317919-6.9771754-12.2496513-14.613865-15.2756265-23.8769214-2.0181373-6.1776895-1.9811112-12.3259507.7412714-18.3376648.1137536-.2510499.2629282-.486048.4360735-.8026962.5656649.6182077,1.0294544,1.2951649,1.9624911,1.2427291.3700471-.0207603.4892584.3295966.5408381.665614.1164289.7608546.2208725,1.5247054.3733645,2.2786042.1033735.5111958.2458063,1.0207864.4343613,1.5066204.1672596.4310439.4483798.8925862.9932844.737526.6056873-.1723962.5458677-.7492973.4806974-1.2351313-.0967388-.7210461-.6254845-1.2349172-1.0433659-1.9623841,2.8352801-.7642789,5.2754722-2.4880265,8.2264322-2.8372063.5823587-.0689157.8163937.0352069.8966526.6224882.0606757.4438853.2051418.89066.3911285,1.3004085.5457606,1.2024926,1.5417203,1.7401204,2.8210475,1.4462657,2.4402992-.5604213,4.1593382-2.0926175,5.335827-4.2399182.6529866-1.1918985-.0871077-2.0542003-.9189111-2.8273612.081436-.0726611.1323737-.1488535.1638352-.1415767,2.4846021.5750819,4.9119529.3745416,7.3581377-.3302387,1.2131938-.3497149,2.5066466.0465502,3.7638223.1029454.3469326.0155167.4451695.2906443.6088977.5083065,3.3508634,4.45437,7.5421981,5.1143123,12.1310821,1.8364311.8242056-.5887794,1.3936159-.8633719,2.2954051-.1051927.8918371.7499393,2.0944367.9318596,3.2403201,1.1133517.3655526.0580004.7094888.0867866.719869.5722996.0365981,1.7267439,1.0145797,2.8644943,2.3980295,3.7021834.6097538.369191.6554478.7120571.3657666,1.3470657-1.9444061,4.2633538-.215736,7.1854205,4.4611117,7.5333162.6966474.0517938,1.1127097.2688139,1.5177497.8487113,1.2851058,1.8393204,3.2290838,2.4792515,5.4656324,1.9017083,1.6229424-.4190586,3.0486618-1.2260352,4.3288451-2.2873792.3994754-.3310948.7103449-.4286896,1.1942527-.1294844,1.6046433.9925353,3.3314942,1.1803412,5.1500543.6773853.7407363-.2049278,1.4928159-.4031138,2.2528143-.4958931,1.1212706-.1369752,1.8300104-.8085819,2.1227949-1.7775745.3368734-1.1149569.9022173-1.9828233,1.7745782-2.7319066.4610072-.395837.6968614-1.2284965,1.179057-1.3696452.3886672-.1138607,1.0040926.4988894,1.5015909.8166077.5311.3392277,1.439952.0458011,1.6658541.6345805.1815992.4733136-.2000052,1.1422449-.2588618,1.7314524-.2842236,2.8480145,1.9861407,5.6596449,5.1723128,6.4919834,1.4168374.3701541,2.8409517.1429679,4.3361219.108082-.2298615,1.0276352-.6728908,1.8981769-1.0602738,2.7844494ZM140.8500294,124.2829188c-.6756731,1.1935036-1.6266878,2.1204406-2.8430919,2.7184231-2.6327066,1.2944158-5.4381303,1.9805761-8.3529202,2.2241352-2.5363959.1162149-4.3582733-1.1863338-5.8116018-3.0421341-1.2718363-1.6240125-.7769063-4.7851438.855025-6.0904748,1.530056-1.223681,3.1059132-2.3900036,4.6322238-3.6182861.3547444-.2855077.6137132-.206533.9386013-.0404505,2.14195,1.0944106,4.2547928.9438449,6.3190522-.1990421.4481658-.2481606.738168-.1930495,1.097621.1503517,1.9237528,1.8375012,2.9959049,4.0988765,3.4221333,6.6981953.0725541.4424942-.0432328.8215303-.2570426,1.1992823ZM146.9702535,122.070448c-1.1495217.603333-2.3735238,1.0181111-3.6193562,1.3838778-.7220092.2118835-1.160437.072233-1.286497-.7091678-.4385347-2.7181021-1.9250369-4.8440003-3.8217157-6.730727-.3696191-.3676929-.5638457-.620669-.0482624-1.0659455.8792097-.7593564,1.3451395-1.7792867,1.4964543-2.9278454.0875357-.6648649.351213-1.017255,1.0923774-1.1368943,1.5304841-.2469834,2.9392956-.8723609,4.2805827-1.6590054,1.8036854-1.0575985,3.8146529-.6178867,5.0503192,1.1124956,1.044115,1.4621035,1.1753116,3.185744,1.295379,4.6499877-.0233286,3.4771374-1.6878986,5.6387776-4.4392813,7.0832241ZM154.8674101,105.540428c.8127553,1.2460465.7039242,2.2970103-.4446344,3.2365747-.7252196.5932739-1.5616245,1.0494656-2.3339294,1.5874144-.3076592.2144518-.5010297.1406136-.6870163-.1432889-.7854673-1.1991753-1.8584755-2.0548423-3.3909928-2.61826,1.5670821-1.2135149,2.7435709-2.4228562,2.8424499-4.319214.0218304-.4156342.3246741-.3824605.6148903-.2577916,1.3301578.5711225,2.5785585,1.2563196,3.3992327,2.5145654ZM150.8479364,101.9357324c-.0526499-.251906.1412557-.377752.3375155-.4492359.5175095-.188555,1.0433659-.3538883,1.5633367-.5357015.2110275-.0737312.4175604-.1097942.5374137.1226356.1409347.2730943-.0048155.4660368-.2424889.5886724-.5284247.2726663-1.098263.4035418-1.6864004.4630405-.188769-.017978-.4458115.1143957-.5093766-.189411ZM154.1351277,103.5630623c-.6906548-.3376225-1.3900845-.4673209-2.0393256-1.0398346,1.3276965-.3533533,1.7584194-.1309826,2.0393256,1.0398346ZM164.1760535,102.921312c-.0151957.5140851-.3916635.6065434-.7904968.6489201-2.5138164.2674227-4.5419057-.8892688-6.4931606-2.3329663,2.2001645.3022016,4.400757.6001227,6.5996374.9103502.4280476.0603547.6977175.30584.68402.773696ZM168.1179436,97.7496413c.1924074.0205463.4699962.0043875.4907565.2634633.0098451.1224216-.1569864.30584-.2895742.3858849-1.2704452.7679173-2.7126444,1.0149008-4.1195298.8492464-.7904968-.0928863-.8708628-1.2208987-1.5240634-2.0589088,1.9904212.2033226,3.7169511.3766819,5.4424108.5603143ZM162.5585688,99.1880951c-1.7450429-.4520182-3.4238455-.8871286-5.1216962-1.3270545,2.5846582-1.7022382,4.1706815-1.3176374,5.1216962,1.3270545ZM162.5218637,99.8198933c.6537356.2262231.7522936.855239,1.1850497,1.5623736-2.573208-.4535164-5.0748249.1583776-7.4035107-.9290772-.3888812-.1817062-.6412153-.053827-.9042505.2476255-.3223198.3694051-.7056364.6799536-1.1973561.8123273-.2368173.0637791-.4980333.1490676-.647743-.134728-.1414697-.2679578.0570373-.4370366.2126326-.6363997.360202-.4614353,1.350169-.359774,1.2292456-1.1706031-.0835763-.5606353-.4806974-1.0738643-.7317473-1.611171-.0424837-.0907461-.0547901-.1958318-.1185692-.4350033,2.9569526.4870111,5.6746266,1.3599071,8.3762488,2.294656ZM153.4872777,98.0918653c.8747152,1.7342347,1.340966,1.4929229-.8611247,2.2299138-.1650123.0552181-.3455414.0725541-.5014577.1451081-1.0859567.5053102-1.9779008.4389628-2.8547562-.5469378-.8265599-.9295053-2.0295875-1.4588931-3.2504862-1.5375469-1.6529057-.1064768-2.2518512-1.0864917-2.6168688-2.6415886.8947264.2938547,1.6431676.5538936,2.4003837.7850392,1.4275386.4357524,2.8513319.593488,4.3090479.063351.9824762-.3572057,2.861498.4839078,3.3752621,1.502661ZM151.7160169,93.9785422c-.4378927.2985632-.4811255,1.2134078-1.3350804.8686155-1.0371593-.4187375-2.0722853-.8429327-3.1141531-1.2495779-.4354314-.1699349-.566628-.3665157-.1736803-.729179.7210461-.665614,1.1480236-1.4202618.4465606-2.5182038,1.8004751.5185796,3.2143162,1.1993893,4.1232752,2.6590315.2020385.3244601.5250003.6474219.0530779.9693137ZM159.2970603,90.3551195c2.2581649,1.3683611,4.5872788,2.537466,7.2212695,2.987237.1278792.0218304.2448432.1086171.440568.1993632-1.0070889.6769572-2.0812743.9908231-3.1601682,1.1927545-3.0961751.5791484-6.1936343.5207199-9.268835-.2037506-.9028593-.2126326-1.5801376-.6067574-1.808608-1.6368539-.2125256-.9581845-1.0418678-1.4652068-1.8480954-1.898391-.9148447-.4913986-1.8662874-.9149517-2.9115796-1.4211179.8233495-.3805343,1.5645139-.6796325,2.2641576-1.0559933,1.1488797-.6178867,1.1849427-1.0508568.1491746-1.781534-.6720347-.4738487-1.394793-.8759993-2.0635103-1.3910476,1.9376643.0313545,3.7789109.3921986,5.489175,1.3417151,1.9330628,1.0731153,3.6097251,2.5243035,5.4964518,3.6676186ZM163.3782799,85.0744037c-3.4762813,1.0363032-6.9862714,1.3221319-10.5539408.4480588-2.0003733-.4902215-4.0232191-.8796378-6.1028882-1.0174691,1.5330524-.0792958,3.068138-.1310896,4.598408-.2463414,1.277401-.0960967,2.5861564-.3839587,3.4633329-1.3215969,1.9651664-2.1006434,4.4223734-2.0075431,6.9166066-1.772759,2.4283139.2285774,4.6530911,1.187404,7.0917851,2.1909615-1.9312436.6156394-3.6633381,1.1974631-5.4133036,1.719146ZM168.6039916,82.3314749c1.0679787-.4216269,2.0499198-.8300912,3.0480197-1.1939317.4596161-.1675806.7168727.1842745.899542.5279967.1931565.3631984.3290616.7570021.494502,1.1486656-1.2841427.2424889-3.2019028.0423767-4.4420636-.4827306ZM146.9310871,46.1335253c-2.4263876,2.7139286-2.1227949,6.8459788.7032822,8.9243637,2.0438201,1.503089,4.3921961,1.8409256,6.7991076,1.2491498,3.4579823-.8502095,6.0010129-3.0713483,8.0778997-5.8635026,1.1886881-1.5980086,2.4159005-3.1861721,2.8871808-5.1899697.3756117-1.5966174-.0400224-2.375771-1.5854882-2.8770147-1.7105851-.5548567-3.4727499-.7980947-5.7519962-.827844-1.0736503-.0372401-2.5909719.2484816-4.0738357.6632597-2.6562492.7428766-5.1594714,1.8003681-7.0561501,3.9215578ZM150.7124593,44.7211824c2.4991557-1.2830726,5.1616116-1.9177601,7.972707-1.9108043,1.5106869.0302844,3.0077832.1853446,4.4786617.5090556,1.2205776.2684928,1.5310191.8669033,1.161186,2.0772078-.3214637,1.0522479-.9404205,1.9492216-1.5503883,2.8441621-2.1004294,3.0823705-4.490005,5.8285097-8.2313547,6.9793156-1.7757553.5462957-3.5335327.4749188-5.2262468-.2653895-2.6718729-1.1685699-3.6076919-4.2428075-2.1490128-6.9099719.8174638-1.4949561,2.0529161-2.5577982,3.5444479-3.3235753ZM20.9194478,96.4999564c.2583267.2103854.2929986.6052593.0743733.7420205-1.3095045.819283-2.105887,1.9957718-2.6027432,3.4243805-.0755504.2173412-.3438292.2361752-.5428713.1087241-.2352121-.1504587-.2332859-.4075013-.2268652-.6110379.0790818-.6998578.4295457-1.2302087.8385452-1.7059836.5446905-.6337244,1.1408538-1.223574,1.7224634-1.8250878.206961-.2139168.4606862-.3583828.7370979-.1330158ZM24.1852368,99.2525163c.315257.4601511.4652877.945129.045373,1.4289298-.2277213.2623932-.4725645.5627755-.8745012.3100135-.4930038-.3101205-.8614457-.7244705-.8114712-1.3537004.0613178-.77391.5011367-1.340538,1.1834445-1.9424799-.2373524.7284299.1579496,1.1205215.4571548,1.5572371ZM58.769554,94.7231309c.278873.2724523.6639018.3703682,1.0400486.4710663,1.8787008.5029559,3.8090883.504133,5.7293097.5872813.9802289,0,1.961956.035849,2.9404728-.0070628,2.456886-.107654,4.8737496-.4391768,7.1730071-1.386125,2.4411553-1.0053767,4.5688727-2.3956752,6.082984-4.6337219.6523445-.9643912,1.4275386-1.9508268,2.8146268-1.5213881.9608598.297386.9765905-.1629791.8916231-.8487113-.2405627-1.9420518-1.5058713-3.0983153-3.1076253-3.950451-.5080925-.270312-.863586-.548757-.9193392-1.1433151-.2057839-2.1935298-1.6316103-3.4128233-3.4955434-4.1951872-1.5779974-.6622966-3.2116409-1.187725-4.8855209-1.5739309-2.3429184-.5406241-4.5477914-.2085662-6.4959429,1.2032417-1.4285017,1.0353401-2.9409008,1.8685346-4.5577435,2.5582263-2.0631893.8801728-4.0657028,1.8865126-5.749963,3.4112181-1.5741449,1.4251844-2.1768359,3.1669099-1.4819007,5.2123352.7841831,2.3080325,2.3048221,4.13922,4.0215069,5.8165244ZM73.4186259,94.0232732c-3.7134197.773696-7.4963971.837047-11.2681382.8710768-1.7145445.0154097-3.2373238-.6051522-4.3616977-2.3096377.9241547.2208725,1.5562739.5985175,2.0534512,1.1165621.5366646.5593512,1.1383925.7027471,1.872066.7130202,4.4865806.062709,8.9559322-.044945,13.2544929-1.5308051,1.3715714-.4741697,2.681504-1.1271563,4.0195807-1.6981717-1.5092957,1.6053924-3.4700746,2.4004908-5.5697549,2.8379554ZM64.4056563,91.6792847c-1.2216478-.6191708-2.2005925-1.2109466-2.9916244-2.0674698-1.0383364-1.124481-1.070761-2.088016-.0509377-3.2285488.413922-.4629334.9093871-.8648701,1.412557-1.2336331.6009788-.440675,1.0905582-.2078171.93614.5267125-.4268704,2.0312997.1902671,3.9168493.6938651,6.0029391ZM64.1462595,87.4857027c-.0235426-1.9906352,1.3714644-3.1951611,3.0312188-2.6241456.5706944.1963668.9070328.530993.7336735,1.1716732-.1768907.6539497-.0483694,1.2427291.3253162,1.7891318.1463923.2141308.2105994.4481658.1534551.6947212-.2601459,1.1226618.1940126,1.9633472,1.0096572,2.6842863.2053558.1814922.3820325.413708.5163324.6536286.4214128.7535777.1603038,1.2312788-.6908688,1.2276404-1.3489919-.0057786-2.6149426-.3617002-3.8081252-.9913582-.2998473-.1582706-.4943949-.3796782-.5725136-.7030681-.3114046-1.286711-.6823078-2.5629348-.6981456-3.9025097ZM68.5288245,87.011961c-.0344578-.2313597-.2018244-.4393908-.0410926-.693223.3672648-.5796834,2.8503688-1.412664,3.4678274-1.1379645.620669.2761977.6689313.8465711.6612265,1.4148042-.027074,1.99727-.7887847,3.788863-1.5554178,5.6431651-1.1801271-1.637924-2.2380467-3.2456707-2.5325434-5.2267818ZM73.3609465,86.1581131c.1155728-.3730435.198079-.9856865.6496692-.9228706.5264985.0733031.6432485.6692524.6534146,1.178522.0134835.674496-.1930495,1.3090765-.4325421,1.9252509-.5778642,1.4872513-1.3372206,2.8698449-2.474436,4.0448355,1.0117974-1.9651664.9702768-4.1813827,1.6038942-6.2257378ZM74.7260972,88.5160132c.2683858-.6502043.4314719-1.3290877.5059522-2.0240229.1314106-1.224216-.2807992-1.7220354-1.583562-1.8572984,1.3989665-1.2428361,1.6858653-1.3450325,2.4619156-.8950475-.2347841.0328527-.432114.0604617-.6367208.0890339.0074908.072126-.008882.153241.0219374.179994,1.5866653,1.3797043,1.7408695,2.6498285.4865831,4.3567752-.6405732.8715048-1.3254493,1.7103711-1.9947017,2.5605805-.0612108.0777976-.1544182.1306615-.377966.314508.4144571-1.0119044.7633158-1.8690697,1.1165621-2.7245228ZM74.2847802,83.583407c-.9185901.6459238-1.7965156,1.3755309-3.0467356.9749853-.0572514-.018406-.1453221.0103802-.2018244.045159-1.6526917,1.0180041-3.1454005.3660877-4.5650203-.5007086,1.5805656-.8900179,3.1994415-1.4592142,4.9278976-.0528639.7350647.5980895,1.4725906.0941705,2.096684-.3589179.6499902-.4717084,1.2303157-1.0392995,1.9492216-1.4174795,1.2746186-.6703225,2.2903755-.1898391,2.5470971,1.2314929.1391155.7705926.0472993,1.5317682-.3293826,2.4798936-.1942266-.6850901-.2733084-1.1664296-.4640036-1.5986507-.558174-1.2658437-1.781748-1.5988647-2.9139338-.8029102ZM72.5359918,83.7589065c-.2711681.2332859-.531207-.0392734-.7505814-.1911232-1.8785938-1.2997664-3.7481985-1.1379645-5.5871979.0582145-.63854.4152061-1.2707662.6651859-2.0554844.5868532-1.0263511-.1023034-1.8036854.4372506-2.4800006,1.1470605-.5335613.5598862-.8933353,1.2435852-1.4268966,2.0998944-.4957861-1.4545056-.1131116-2.5233404.7032822-3.482381,1.0299895-1.2096624,2.4261736-1.862542,3.8430111-2.4853512,2.8595718-1.2570687,5.8412441-1.2853198,8.864009-.899649.91752.117178,1.8992471.0025683,2.8207265.7751941-1.4148042.7216882-2.7752464,1.3968262-3.9308678,2.3912877ZM66.5054437,93.3658991c-2.3262245.1732523-4.6102863.2976001-6.7252694-.8052645-1.1353962-.5918828-1.5152884-1.5788535-1.1816253-2.8341029.1789239-.6728908.4368225-1.3173164,1.0915213-2.1027837,1.1259791,3.4163546,3.9018676,4.6381094,6.8153734,5.7421511ZM80.9790161,85.184947c.737526-1.4961333,1.7862425-1.5668681,2.7210984-.1744294.5104467.7606405.8001279,1.6166287,1.0215355,2.5999609-1.7338067-.0601407-2.9736465.8000209-4.1059393,1.9853916-.4844428.5071294-1.2221828.7723048-1.844778,1.1473815.8200321-1.520746,1.3282316-3.1073043,1.8492725-4.6892611.0979159-.296958.2204445-.5884584.3588109-.8690436ZM80.4784145,83.4622695c-.2553304-1.0630561-.5496131-2.114448-.8673314-3.1714044.9245827.8784606.954011,2.0090413.8673314,3.1714044ZM57.3756171,83.3387778c1.701168-1.1976771,3.6362641-1.9375573,5.5100423-2.7930104,1.3706083-.6258055,2.7326557-1.2626333,3.9652186-2.1348872,2.1293226-1.5067274,4.4190561-1.7712608,6.8853591-1.0112624,1.5741449.4851919,3.0826916,1.1311157,4.6105004,1.7333786.3267073.1288423.5062733.3263863.6485991.6236653,1.9535021,4.0815406.9112063,10.8364522-5.2096599,12.6312557-.089676.0263249-.1965808-.0059927-.3914495-.0158378,1.5985436-1.431177,3.0827986-2.8567895,4.2444127-4.5843894,1.151769-1.7129394,1.4779412-3.4656871.6952563-5.4586766-.5953072-1.5162515-1.8639331-2.1014995-3.1825337-2.1997364-3.0533703-.2276143-6.1399143-.5952001-9.1735944.3022016-3.5852194,1.0605949-6.0411423,3.2335783-7.072844,6.9159645-.4457045,1.5904107-1.3204197,3.1054851-.3759328,4.9622484-3.8259962-1.881162-4.319428-6.7420702-1.1533742-8.9709139Z"/>
  </g>
</svg>