<?xml version="1.0" encoding="UTF-8"?>
<svg id="Layer_2" xmlns="http://www.w3.org/2000/svg" viewBox="0 0 113.8889523 168.2467935">
  <g id="Layer_1-2" data-name="Layer_1">
    <path d="M113.2291867,31.7701671c1.4271012.5859719.1416247.8965607-.1721337,1.1147161-3.1221807,2.1708037-5.8983252,4.8946534-9.994718,5.9568384,1.1535528.8427003,2.0492346,1.4142637,2.8500605,2.0970855,2.7522273,2.3466673,4.1037646,5.4241886,4.3729075,8.9665137.0864733,1.1381609.4751694,2.0189563,1.1066302,2.9363691,2.1920458,3.1847148,3.1079754,6.8727076.930904,10.1080364-1.5593435,2.3173338-2.4893576,4.3417832-2.8804377,7.1752434-.8157234,5.9101795-6.5291488,8.8069758-12.1379516,6.5663375-1.9937317-.7964644-3.2586967,1.1159686-5.037558.8229634-.3030687-.0499109-.1033703.591119.0091846.9170392,1.4329898,4.1495226.3348191,8.0129065-1.2582744,11.8553614-.4697641,1.1330523-1.0973797.6397994-1.7042531.3838401-3.4455631-1.4532596-5.9382605-3.9961206-7.9027686-7.0952081-.5033603-.7940913-.9960968-1.39111-2.0212524-1.5449405-1.4552591-.2183751-1.7947804-1.7408156-2.7940303-2.6851668-.8773237,1.1119476-1.6677785,2.3275401-3.0348065,2.9208783-.4230063.1836144-.5778585.5503708-.5898666,1.0169379-.0914392,3.5505154-.9089972,6.9919366-1.7627553,10.9331806,2.9811932-3.3874674,5.3959098-6.5703585,7.0291473-10.3149803-.3760069,2.4115085-1.5142117,4.4861325-2.8928962,6.4206589-1.077088,1.5113223-2.2987559,2.9205597-3.4732596,4.36124-1.3346733,1.6371596-1.4366483,1.619219-2.2804417-.2491258-.1375378-.3045408-.2959715-.5996444-.5841647-1.1797112-1.0868328,3.0884637-1.6572317,6.0056836-2.3160044,8.8978547-.3192845,1.4017008-.5771334,2.818321-.9297284,4.2112328-.3012339,1.1900164-.3208335,2.2373534.2864134,3.4248319.8269184,1.6170437.1270238,3.1582378-.956546,4.4774204-.4623154.5628402-.8948029,1.0444366-.8178657,1.8797156,1.2974077,14.0866503,2.5528476,28.1774095,5.7925929,41.9965649.5440207,2.3206187,1.835221,4.3752805,2.5679428,6.8668024-1.315612-.1531713-1.5979165-1.0861077-2.0098706-1.771808-2.3374827-3.890608-3.0050445-8.2971116-3.8137916-12.6553743-.1904039-1.0261114-.352617-2.0574524-.7391158-3.0732147-.3586924,4.5089401-.4468576,9.0058172-.1721007,13.5270401-.8376521-1.0411517-.7966292-2.2991295-.8236665-3.4841361-.073894-3.2378008-.2861827-6.5007162.0070862-9.7125453.5523483-6.0494201-.3179771-11.9555566-1.244091-17.8762171-.6681991-4.2718553-1.0484466-8.5681991-1.236928-12.8858124-.0198083-.4537461.2820189-1.2396965-.5402853-1.2623503-.8001118-.0220276-.649753.7231416-.6412826,1.2281499.0886267,5.2922758-.4067356,10.5139755-1.3150077,15.7413331-.6341744,3.6497988-.3950461,7.4152835-.2960484,11.1383501.1801098,6.7732759.5166208,13.5501223-.1311108,20.318773-.0268066.2801292-.0927685.5565231-.1404821.8346308-.1490624-.0054932-.2981138-.0110083-.4471653-.0165234v-25.9772339c-.1848668-.0047241-.3697446-.0094482-.5546115-.0141724-1.7976698,5.1090899-1.4759354,10.3968174-1.2270952,15.7432228-1.5379532-2.2703563-1.5510598-4.8979877-1.8305189-7.4883536-.7084529,4.2273827-1.0325714,8.5119162-1.9472596,12.7034834-.5361435,2.4568491-.9721027,4.9430316-2.1013097,7.2242314-.2295482.4637326-.4633701,1.1641326-1.1044219.9603363-.6932369-.2204076-.3643284-.8953412-.2485435-1.3922306,3.1538872-13.5358181,4.3102964-27.3402848,5.4802628-41.1385442.2121459-2.501882.1433935-5.0392828.0339917-7.5528653-.0820568-1.8853077-.1495348-3.7867762-1.5823599-5.3776835-.9537775-1.0590155-.9090302-2.5141318-.1286059-3.7094655.6646505-1.0180145.6167831-1.9479407.3479368-3.0467596-1.4355057-5.8670802-3.7065102-11.3746989-6.827032-16.5484432-.5733651-.9506024-1.1767778-1.3691154-2.2932078-1.1936858-.6963845.1094347-1.4458713.0550085-2.1468151-.0673901-3.9298017-.6861507-5.430286-3.8609449-3.5093167-7.3598356.1047711-.1908324.2113494-.380676.1179217-.7862141-.6491982.4597666-1.2921507.9286518-1.9486164,1.3777946-4.0220044,2.7517989-8.4571823,3.6431081-13.1851348,2.6058346-3.3628635-.7377864-4.6141232-2.6103939-4.3202445-6.0385656.0576727-.6726705-.2672972-.8115046-.6758345-1.0596856-.971817-.59035-1.9540381-1.1684722-2.8867823-1.8166761-.7455043-.518082-1.5159421-1.1802275-1.5938131-2.0951025-.1755944-2.0632092-1.1915105-3.6659267-2.3212614-5.3048442-.9954706-1.444108-.8456062-3.0902215-.0585681-4.6295754.7034487-1.3758665,1.4764188-2.7161867,2.1314507-3.9127784-4.9732825-2.013183-10.4293863-2.5438333-14.7096077-6.1123443.546932-.6455233.8720228-.0737237,1.1234338.0673187,3.6914974,2.0708557,7.8166139,3.0040228,11.7222072,4.5075229,1.5755374.6065109,2.8309553.4447098,3.5732241-1.4136869.5817422-1.4564786,1.7394862-2.5698324,2.9404889-3.5864407l-.0238678.0258838c.2303282-.3219541.7892628-.3330009.8308131-1.1909447-5.9211219.3339073-11.7722334-1.9735224-18.1325664.1445031,2.4354862-1.5476761,4.7269527-1.5917697,7.493649-1.5032144-1.0919305-.7732942-1.8852473-1.2963035-2.6366183-1.8738874-3.4238651-2.6319381-4.4945206-6.1544713-3.0188653-9.6445455.5298758-1.2531932,1.2316216-1.7181178,2.4528336-.8864368,1.8310902,1.2470079,3.6591976,2.4984103,5.4851407,3.7529384.4671823.3209874.8964014.6506594,1.2932329-.10927.3370933-.6455453.0437036-.9042731-.4970432-1.2294298-3.2884916-1.9774335-3.2603337-4.8119044.0906152-6.8662037,1.0073907-.6175741,2.1828942-.8990601,1.4383347-2.5746884-.4175461-.9396985.0864294-2.2865721-1.2890635-2.8092518.4591074-.2881383,1.1533166.4614859,1.456171-.2186608,1.0263531-2.3049852,3.2310991-3.4154386,5.0608544-4.9785504-.9383252-.6128939-1.7607338-1.1762835-2.469791-1.9126307-1.9765985-2.0526568-3.9137342-2.3785496-6.4568918-1.1663244-2.6139974,1.2459917-2.9545954,3.0091864-1.1406713,5.2766368,1.0169324,1.2711888,2.5551547,1.8702015,3.6104128,3.0619482-1.1770635-.1730895-2.1012493-.8429145-2.9567926-1.5899679-2.3248374-2.0300415-2.8977357-4.140382-1.6027999-5.7181111,1.9412226-2.3651298,5.702148-2.9765241,7.8903486-1.2446513.8423322.666672,1.5662759,1.4852518,2.4206711,2.1338183,1.2884538.9780573,2.0439886.7096944,2.8344709-.8896943l-.0486364.0496087c.8127021.2979655,1.353383-.3238713,1.9773126-.6133663,2.0326397-.9431263,4.1680236-1.501929,6.3845743-1.7357399,1.1237139-.1185314,1.2697221-.5004874.704789-1.4670694-.9518384-1.6285821-2.4398093-2.6112316-3.9658698-3.566072-2.3238981-1.4540396-3.7384035-3.4964572-4.1080987-6.229637-.3003935-2.2209041.5302548-3.5283862,2.7362422-3.8387608,3.7263899-.5242837,7.1794677.224261,9.987934,2.8875706.7321614.6943218,1.065014.7575288,1.7578444-.0247659,1.7691987-1.9976538,3.8742768-3.4145542,6.7279628-3.1413326.5697836.0545553.856576-.3163319,1.1906481-.6626565,2.1319726-2.2102144,4.7749959-2.6517766,7.618915-1.9936493,1.411182.3265712,2.7074471.4816101,4.1926219.2465193,2.8293843-.4478574,4.6769869,1.3998084,6.3038304,3.4153315.3343687.4142557.572673.9060337.8553401,1.3622077,2.0146496-1.3340443,2.4051365-1.154396,3.099494,1.2549428.4360691,1.5131296.3187242,3.0641537.4219407,4.8147554.714858-.5547268,1.2959025-1.0304483,1.9021497-1.4714996,1.9857776-1.4446656,4.0801879-1.7291316,6.1891112-.3444679.9755304.6404998,1.9649695.8303489,3.0631951.6613656,3.4051224-.5239487,5.8222889,1.0480648,7.5708718,3.7488267,1.2419817,1.9182996,2.7540401,3.5973803,4.1748461,5.3613358.2430174.3017009.4662155.5426364.8656342.5274698,1.5070377-.0571893,2.7021187.8305714,4.0283545,1.3206822l-.0376501-.0290259c1.1432915,2.1821636,1.1335796,2.1605535,3.1987993,1.2328026,3.3474333-1.5037582,6.8089814-2.2332994,10.4692282-1.3845237.1999401.0463733.3651194.2426714.5464816.3691789l.0346618-.0395617c-.5312106-.0424786-1.0677056-.0509875-1.5927639-.1328741-3.7125746-.5790341-7.1192571.4766635-10.3337779,2.1367187-1.5087405.7791554-.0117004,1.8933497.2027965,2.760912.2696043,1.0904748.9438678.0897473,1.3274223-.1101214,1.2001018-.6253359,2.3815708-1.2410478,4.1714183-1.3241813-1.2181963.5727883-2.086632.9571942-2.9337433,1.3839139-2.5274801,1.2731553-3.1881646,3.3005052-2.0163635,6.1280382l-.0368261-.0348541c-.6454134.8192005-1.1192754,1.7141738-1.460994,3.0176678,3.1943938-1.7487971,6.3313401-2.5021567,9.6593715-2.4970645-3.876161.6873317-7.5737942,1.7773396-10.8234272,4.398978.7574739.2648143,1.3169194.4711594,1.8832423.6565151,2.4647592.8067201,4.8325752,1.1742675,7.402858-.002807,3.0405853-1.3924558,5.3797599-3.7926374,8.3105699-5.3018888.1216625-.0626495.0933727-.4164969.134945-.6346798ZM82.29621,19.5738891c-.1508202,1.4377524.8051216,2.295048,1.6733266,3.2017162.9399897.9816223,2.1282043,1.7674135,2.5262277,3.1799852-1.8854285-1.8263221-3.7810304-3.6423171-5.6500564-5.4852725-.5587643-.5509695-1.0934027-1.2200804-1.0713861-2.0184454.0428576-1.5538641.0268835-3.0683065-.8639533-4.6197454,1.6074197,4.4589166,5.117044,2.5147552,8.1638256,2.69868-1.8045692-2.3176194-3.1727727-4.8675336-6.3542466-5.3135124-1.7640407-.2472801-3.5689175.4128934-5.3470426-.5617498-.7190767-.394148-1.8094801.4017835-2.6032748.9357242-2.301107,1.5478189-4.014314,3.5641302-4.8798933,6.2486269-.9472736,2.9378632-1.2263042,5.976828-1.3913737,9.030141-.0872094,1.6129842-.0432641,1.6153628,1.7743678,1.6948433-.1988085-2.1562414-.326063-4.3184153.0174792-6.453151.4894296-3.0413434,1.1544207-6.0291504,4.0577539-7.8371858-.1775499.3039998-.3134727.6436913-.538912.9066324-3.2931169,3.8408811-3.3344474,8.4204084-2.9688666,13.0845028.0343323.4380356.0838146,1.0596472.7260201,1.0637341.571838.003653.4768063-.6072579.6265499-.9607813.4587009-1.0829492,1.1119695-2.1783403,2.1450683-2.5684976,2.6864962-1.0145373,2.9446967-3.3391715,3.396652-5.60259.4158323-2.0825231.028927-4.182932.0727954-6.2745326.0158642-.7564879-.4458689-.8838084-1.0484906-.8645713.4895725-.2828099,1.2901677-.8084999,1.3476151.0996789.1605211,2.5370712.9772662,5.0659356.224121,7.637784-.3057164,1.0439862-.507645,2.118366-.7960029,3.3457908,2.7967659-.6533346,5.189356-.0545361,7.5529202.9003071,1.0811968.4367887,2.1158337,1.1436706,3.3763602.8805537.5993478-2.620743-.394321-4.7219594-2.1559337-6.5640524-.4574155-.4783225-.9542719-.9104145-1.6743374-.4419632-.0360681-.4352011.1804174-1.0003705-.4956149-1.1307122-.5112375-.0985693-.738951.290786-.8759834.6781636-.2387547.6749611.0619189,1.2225578.5089963,1.7110207.1751-.200374.3502-.400748.525289-.6011221ZM52.3810721,7.7994695c.0298938.7019271.2596507,1.1688292,1.081054.8635139,1.0478753-.3894953,1.3239726-1.3177818,1.4313419-2.2720949.1073254-.9538791-.4696213-1.5981445-1.3178202-1.8864722-.5875375-.1997203-1.4343082-.4802286-.9619623.807577.3142967.8569138.2592882,1.7504396-.2697581,2.5560089-.0337939-.2930986.0184021-.6360943-.1173449-.8700205-.421666-.7266106-.6804598-1.6271978-1.9433374-1.294532-.5888558.1551186-.6768563-1.1224313-1.6383022-.953772-.8013862.140581-1.2724577.8661671-2.1102306,1.0831359.5921298-1.5521283,1.8652137-1.4372828,3.0658099-1.5387634-1.2866301-1.3274552-3.1319585-1.4268018-4.4186106-.3010994-1.4044803,1.2287926-1.219652,2.9474185.5457345,5.0271869.457789-.4804483-.3151426-1.0107635.0703454-1.5038681,2.1327306,1.404181,4.3530442.9066105,6.5830807.2831999ZM41.5830452,4.5664862c-.0584692-.0957815-.1259307-.2796513-.1741222-.2747377-2.7173677.2773607-5.7938893,3.9113447-5.7341402,6.8095857.3845872-.2104622.7644887-.6048272,1.1085308-.575697,1.9120209.1618972,1.7036763-1.3058781,2.039303-2.4380899.4330149-1.4607358,1.2055565-2.713138,2.6658529-3.3953364-.2747844.5623568-.4019126,1.3403532-.8511323,1.6479592-1.5495437,1.0610397-1.7105043,2.7079991-1.4507273,4.1521456.1992919,1.1078661,1.8070082.7882356,2.778979,1.1253591.2202153.0763824.471066.0748855.7089748.0875555.4583603.0244226,1.0432776.2408366,1.2415147-.3599366.179088-.5427545-.4483957-.6127786-.7461855-.8356416-1.0443048-.7815504-2.0453564-1.5732962-2.2594249-3.3028013.9267566,1.2468184,1.6182687,2.2936445,2.7015859,2.9827231.4800693.3053703.9442743.5893914,1.43366.0773657.5277389-.552156-.0853967-.8511515-.3375547-1.1819799-.7544307-.9898346-1.0981103-2.0921417-1.1098107-3.3294596-.0058777-.6211968.5812203-1.4096274-.0927026-1.8271379-.7120235-.4411145-1.3011979.3331574-1.9226008.638124ZM33.1953294,29.7784843c-1.1162048.031333-2.0530688-1.1144579-3.2265123-.5594125-1.6142257.7635384-3.2607512,1.4928488-4.771634,2.4326462-2.1386577,1.3302787-2.7892347,3.4538028-2.6895119,5.8790772.0421655,1.0255731.8780817,1.1699773,1.5523233,1.4817526.4846066.224077.5568527-.1883495.704366-.5263547,1.7236055-3.9494068,5.3143638-6.0980346,8.4253-8.7086482.6463473-1.3401884,2.366124-1.8439771,2.8542353-3.5616555-1.9586084.382725-3.34606,1.387924-4.789344,2.3412016.6599538.6616787,1.5244949.5483108,1.9407776,1.2213933ZM83.7225531,50.0775808c.5822531-.0748114.7506734.7749147,1.3719828.6240945-.2509935-5.4747971,1.3295866-8.2746556,5.7192372-10.0031225,1.0534893-.414827,2.1790819-.6435732,3.2632231-.9843305,1.0918316-.3431907,2.2712242-.4879575,3.2598283-1.2880253-5.3848246-2.1424041-11.0031415-.1519958-13.4986954,4.9390546-1.0438763,2.1295721-2.092257,4.5065726-.0549536,6.7762202-.491561.3070292-1.0753302-1.0332965-1.4643778.0184241-.6710775,1.8141383-2.0090466,3.0416565-3.8848402,4.2902849,4.3144273.3622904,6.8676044,2.2920762,7.649468,6.2592094,1.6242178-2.8726264,1.1233733-6.6115517-1.1594744-9.1637236-.418458-.467814-1.1443902-.7020479-1.2013982-1.4680856ZM35.4579129,19.8311833c-1.7413319-1.0500012-2.9042066-1.0500122-4.1413598.5231961-1.9740881,2.5103085-4.4864621,4.1980437-7.2752134,5.6125875-1.0428106.5289419-2.0369409,1.2349339-2.2069707,2.5759518-1.0883544,2.4320859.2408586,5.0312793-.4498679,7.6141909-2.9396595-5.5669943-1.6859005-9.9137763,3.6631856-12.4345877,2.4451981-1.1523113,4.2195769-3.0465344,6.2774028-4.7258595-6.6118758.012019-11.1294512,3.6689095-15.1031103,8.2738426-.3281999.3803464-.4994711.9618799-.5840328,1.4761771-.6241329,3.7960048,2.2917137,8.0283477,6.0820825,8.8938337.1106213-1.0548077-.1216351-2.108775.2531194-3.1803533.776645-2.2207585,2.3722819-3.5211984,4.445203-4.3944297,1.5025772-.6329604,3.1155944-1.0383941,4.6259994-2.0272455-3.1878295-1.268206-6.0562701-.8487428-8.8619898.5066836,2.1703753-2.355742,4.9350775-2.1546044,7.6651674-1.6067385,2.2481749.4511478,2.8450123.1382189,3.150855-2.2156609.1879595-1.4465415-.3671574-2.8411341-.2623918-4.5370541,1.1132,2.0852917,1.173004,4.0462017.6830635,6.0917394,3.18984-.7531728,3.3798045-1.0026996,2.7815114-3.9269617-.1786156-.8730445-.5158133-1.7136464-.7753377-2.5623342,1.5048349,1.2636796,1.3619633,3.1407036,1.8338752,4.912237.3361814-.7274153,1.8514039-.6028304,1.2570164-1.8107875-.6544662-1.3300315-1.0219751-3.0648211-3.0582074-3.0584271ZM49.2673069,71.9560049c1.6383681.5892294,3.363737.2285265,5.0347784.4611838.0520752.6498739.2742296,1.3418473.1256286,1.942041-.532518,2.1508251.4993173,3.3702079,2.2671263,4.2627037,1.5906326.8030671,3.2603776,1.1716143,5.0387664,1.0346478,1.7696107-.1362633,2.9938495-1.0758136,3.8569569-2.5800717.4056589-.7069918.4769931-1.1998601-.3192515-1.7858925-1.5568606-1.1458623-2.1389928-2.8065657-2.1070336-4.7287434.040122-2.4130137-1.1977397-3.3439945-3.5984707-2.78545-1.6559682.3852683-2.8021052,1.5522244-4.0260144,2.6021322,1.1743169-1.9653101.718-3.9402332-.0981408-5.8393617-.8404646-1.955719-2.8447871-3.0033856-5.1666692-2.8508845-1.7927589.1177404-2.9987714,1.0767639-3.6618398,2.7296285-.8113948,2.0226257-.4135691,3.5599087,1.2962541,5.2600969.4056479.4033628.9978656.7150667.9554035,1.4308036-.1842516-.1475463-.3818516-.2813157-.5507663-.4447263-2.5889706-2.5048923-6.9978088-2.5587362-9.6066427-.1022387-1.1354967,1.0691888-1.5905282,2.3408335-1.1761022,3.9023304.7773537,2.9289203,2.2458293,3.8579456,5.9850623,3.724308-.5318588.6964449-1.4457779.7653511-2.0936523,1.2811918-1.3271311,1.0566644-1.9319281,2.3752537-1.6754305,4.0897021.2170458,1.4507218.9383637,2.5832467,2.3695683,2.836833,6.1149206,1.083471,9.0230987-1.7374867,9.558594-7.2169804.0343103-.3510789.0428027-.8359272-.3865208-.8975934-1.7406728-.2499937-2.1320495-1.7099001-2.7690584-2.9609674-.1761876-1.2160539,1.3856278-2.0460156.7474544-3.3646928ZM20.0318542,74.9616647c.5473605.5337265,1.0788403,1.085064,1.6461959,1.5966091.6723739.6062362,1.4675144,1.3085148,2.3447447,1.1415447,1.5667813-.2982127,3.0795208-.8890241,4.6008572-1.3992509.1101598-.036936.1068694-.4121299.1563244-.6300655,2.3652946.0127991,4.6977236-.1346484,6.7643001-1.4768253.3621311-.2351952.56746-.5858236.6449959-1.0319122.6987026-4.019906,3.5469558-5.3590726,7.1606206-5.2831682,1.4221628.0298608,1.9318732-.1407348,1.9301593-1.7296645-.0023181-2.1461559,1.0943255-3.9798993,2.9846869-5.0131628,2.0226367-1.105559,4.0188733-.5622525,5.9284717.6434469,1.8146437,1.1457525,2.5999349,2.8615687,3.0073627,4.8189906.2027086.9738275.5258603,1.2937272,1.5254178.8364106,1.1192864-.5120944,2.3026121-.5155661,3.501077-.0976135.4571958.1594555.9957233.8221174,1.4379886.264232.4213364-.5314853.7837422-1.3273674.4226767-1.9972693-.8214253-1.5240335-.6918965-3.0843109-.2723179-4.794991-.583143.1188665-.9885931.175479-1.3791129.2852269-3.1352874.8811799-6.1859801.9186487-9.2121184-.5513815-1.3310807-.6466219-2.8273738-.9499652-4.2422032-1.4282438-1.5890505-.5371762-3.222321-1.0420361-4.4081736-2.3008213-.7599568-.8066926-1.3717521-.6725222-2.1535387-.0895935-1.7244295,1.2858226-2.5301663,3.13359-3.2430907,5.0571081-.6189419,1.6699648-.9415717,3.4632565-2.0369574,4.9368738-.187943-1.1437859,1.4952328-2.2887803.0512292-3.4117197-1.4865427-1.1560302-3.0856732-.9618524-4.7376534-.3083146-1.6950685.6705941-3.1475701,1.6896193-4.4837595,2.8898969-.9751569.8759724-1.8608027,1.8538538-2.8573994,2.7029097-.6699514.5707833-1.4578739,1.2166582-2.4056363.8711823-.9605121-.3501121-.3081498-1.4141044-.673846-2.0667468.6490774-.3077269,1.0008868-.7330403.7653731-1.5195071-.6645296-2.2191765-.69717-4.429943.2751744-6.578851.5158023-1.1399352-.1807305-1.2645146-.9849567-1.1574309-.5114847.0680987-.9911639.3750895-1.485109.5749527,3.2811638-1.1733226,1.7366298-4.186975,2.9004383-6.6486855-2.4174961.9954157-4.4458017,1.7920338-5.1132098,3.8865375-.8077418,2.5348959-2.1578014,4.5812246-3.9739447,6.477601-1.5569046,1.6256844-1.4890311,3.2079344-.0024554,4.9799841,1.0841577,1.292343,1.7077797,2.6394637,1.7458473,4.3719297.0395013,1.7972523,2.0652856,3.3303935,3.8715412,3.179782ZM96.5398109,53.1730153c.2840843-.4000834.2713512-.7672847-.153402-1.0534839-.5347592-.3603239-1.091491-.8113783-1.735652-.25619-.4368491.3765177-.6104769.990329-.355792,1.450101.4742246.8561585.9612482-.0964269,1.4580057-.1378399.2733836-.0227966.5304306-.245775.8145369-.0271307.236162.2832768.2523448.4954666-.1472607.6589046-1.6668337.6817672-1.8680701,1.2499138-1.0077533,2.7370717.6590584,1.1392431,1.6825881,1.8057612,2.8290327,2.3965122.7206587.3713541,2.2382213.4624527,1.8457679,1.4496945-.2968065.7466524-1.6022341.041803-2.423165-.2985862-.0783325-.0324756-.1964684.0310528-.306046.0518994.2720982.717253,1.2560112.8861182,1.362216,1.7752852-.6871065-.0374084-1.0615313-.5402194-1.4819009-.9215601-2.8241548-2.5619607-5.0097626-8.030589-2.9903558-12.5148483.2086193-.4632602.6715719-1.0357849.2676488-1.467009-.3754356-.400825-1.0273529-.1079131-1.5415567.0124365-2.9218561.683904-3.6040847,1.9253528-2.7772542,5.0082739.6708577-.2105913,1.0905572-1.185869,2.1006396-.6412716-1.2230742.8478309-1.6167361,2.0373639-1.2747648,3.3467191.6247701,2.3921781,1.5402493,4.6764595,3.3052348,6.4965689,2.4540146,2.5306442,8.1838976,3.0564386,10.6496016,1.0018426,3.7698573-3.1412914,2.5096933-10.4443003-2.1217553-12.3920926-2.1442113-.9017573-4.5047324-.5236685-6.6852864-1.1936803-.2096849-.0644293-.4982187-.0215826-.7028499.0733831-.7810066.3624772-1.1898076,1.0790875-1.2051226,1.8628407-.019303.9878076.801595.2979985,1.2158452.4532517,1.783058.6683034,2.985368,1.93206,3.7727357,3.6433608.1884044.4094822.1256176.9951849.7077388,1.3082786.0954711-3.0107519-1.6040359-5.0414691-4.6581893-5.6741878.5326278-.5202353,1.124417-.3368571,1.675425-.1653222,2.3478648.7309419,4.1253857,3.5506308,3.6066335,5.9625018-.2543443,1.1824962-.5852523,2.2550468.4439572,3.3199784-1.2749296-.635339-2.5691842-.9994147-3.8836646-1.4671243.8471333-.6163107,2.0916967-.9571448,1.8970411-2.0323486-.2341515-1.2934636-.7189339-2.7128304-2.500289-2.7662294ZM60.520508,45.8798502c1.9570923.5426584,2.6150521.1690355,3.7110475-2.2316185-1.8314418.2562614-3.6181802.2743504-4.5434701,2.1927269-.8136689-.1843395-1.3208964-.7306288-1.6092654-1.2243266,2.5510238.2910441,4.5519296-2.2479991,7.2677922-1.4316385-1.3907474-1.922035-3.555679-1.4114127-5.3369901-2.3429099,1.6112319-.0759869,3.1743877-.4656223,4.4004612.3219157,1.3969987.8973133,2.5050131.945351,3.7079714-.1290563-.4419687,1.4226078-1.9997632,1.7699458-2.963681,3.0546423,1.3844193-.1932878.7777656,2.3134446,2.4983884,1.4975949,1.3866386-.6574819,2.2116344-1.8405549,2.346074-3.3408579.0845397-.943346-.2242308-1.883462-1.4500406-2.0234222.0913403-.2659404-.1402953-.8516157.542142-.5220975,1.5554983.7510799,2.0356115,2.3293748,1.0843389,3.9204633-1.0205524,1.7069502-2.3705845,3.1606218-3.8546388,4.4724161-3.2908867,2.9088923-6.7637178,5.0155249-11.2237028,2.1016943,1.8959424,2.0341778,3.2724956,2.4684561,5.6304787,1.9072309.3480027-.0828259.7014986-.1550225,1.0566424-.1933812,3.9037696-.4217045,6.9253046-2.5117862,9.5766885-5.1960521,2.0078931-2.0327936,2.6669405-4.5273916,1.7355422-7.2705772-.9187531-2.7059419-3.0634259-3.8153187-5.7723341-4.0981231-4.6043014-.480679-8.4318589,1.215642-11.8160084,4.1651122-2.3110167,2.0141772-2.6597884,3.4547696-1.5899954,6.3428593-.1647728.2705546-.8800922-.5713986-.6108834.1450194,1.1539263,3.0707482,4.2437962,5.6571755,7.6631789,4.6700435,2.5306003-.7305464,4.443978-2.3464091,6.0917834-4.354401-2.1587243.5374069-4.2254601,1.2883-6.3410191,1.8577869-2.8795808.7751509-5.5847317-.2234014-6.8680878-2.3807413,2.8657819,2.1221398,6.7204866,2.487457,8.6367977.819651-.6358334-.2989048-1.6177139.3372965-1.9692102-.7299532ZM45.9760687,44.011412c-1.2005852,2.7989467-.8573835,4.6385897,1.3317179,6.8271968-.3656907-1.9849481-1.3844852-3.9229517.1206518-5.776009-.0175342.235706-.0056909.4780148-.0569641.7061293-.8887934,3.9531037.8994282,6.7962867,4.8687641,6.1764385.2188805-.034173.5347592-.1231402.7154952.2387602-.8032539.1807579-1.5458523.3478654-2.4600131.5535843,1.3911759,2.5805551,3.7080483,3.1537114,6.1285985,3.1633739,6.9596039.0277734,13.2613798-2.3628721,19.1774809-5.781667,2.3875693-1.3797227,4.0099524-3.6042715,4.6839522-6.3574766.67467-2.7559352.9192914-5.5214065-1.280291-7.7691694-2.2004613-2.2486473-4.8185896-1.5581845-7.3953104-.7830006-.055426.0166772-.1024584.0612762-.153402.0928619.1385815-.1879924.244951-.4986197.4207651-.5447787,1.5507852-.4071696,1.1184734-1.063432.3436961-1.9239081-1.2707219-1.4112424-2.6912862-2.6292519-4.5536325-3.0618164-2.6305318-.6109823-5.3319254-.9643134-8.0259472-.7681911-2.3636521.1720733-4.6680111.7557655-6.5319613,2.8745325,3.3487296.0264001,6.3965439.6551912,9.5256241-.0335357,3.0764556-.6771584,5.899336-.2358489,7.3577921,3.1499157.0781347.1813952.3855759.2640178.5862631.3926182.1166637.1996105.1934362.4424137.3558689.5924923,3.7000832,3.4186136,4.0555017,7.8068086.9272016,11.5883169-3.8159449,4.6127389-10.9949676,6.5156082-16.5471249,4.3261222-.1038207-.040946-.4343222.0767395-.7255037-.392382-1.0255731-1.6522988-1.0718035-3.6462832-2.2414513-5.2303514-1.3247196-1.7940718-1.2945952-3.9545484-.1081054-5.9221161-.2471263,1.4283866-.3802695,2.5429709-.0027136,3.2831028,2.2377489-6.6174844,7.6214199-8.6528377,14.5658956-9.1343462-3.8461244-1.3143705-7.3028495-1.9248529-10.8382478-1.9630084-5.2561967-.0567279-8.4576877,3.1675103-8.3794211,8.2947605-.7826436-.4667868-.1063256-1.5584756-.9304316-2.0701251-2.0648901,1.3653471-4.0117816,2.9074201-4.4490097,5.5417257-.4676712,2.8177442-.2074327,5.6078085.904372,8.2895036.8961103,2.1614104,2.3504136,3.7327675,4.5669699,4.5473153,2.9183954,1.0724517,5.7947242,2.2937736,8.7751155,3.1527721,2.6315536.7584627,5.5801834.7683229,7.7559035-.8722425,3.2891618-2.4801346,5.045589-2.9121772,8.4513486-.6602999,1.0484686-1.8642249,2.5675582-3.3032023,4.383729-4.3868052,4.7461568-2.8317408,4.5316928-7.6133395,4.8621833-12.1861101.0066467-.0920104-.2205065-.2009178-.3613621-.3214433-1.3136345,7.3849998-5.5790518,11.5000308-13.0298761,12.6368569-1.0586309.1615264-2.1852233.1330718-3.1166985.7502339-2.4591013,1.6293099-5.2508574,1.9851953-8.0755615,2.0210821-2.9860822.0379468-5.7484938-.6178872-7.358715-3.5347995-.2967625-.5375937-.8067256-.6080599-1.3095915-.8085054-3.6349892-1.448909-5.2123778-6.3934733-2.8780537-8.9176081ZM29.7591432,45.8279453c.5619943.9561066,1.3407597.4998282,2.0099585.239727,1.8681745-.7261464,3.7366347-.7390004,5.6430636-.2057573,1.1455767.3204325,2.3396086,1.713163,3.2084343,1.1450109.679482-.4443308.3424656-2.250927.7658125-3.3312559.4549051-1.1608587.2894731-1.9788452-.463035-2.9123969-1.4650479-1.8175166-1.8853187-3.9764771-1.7017263-6.2622636.1199542-1.4934146.3151261-2.9807263.4392606-4.4738828.1514025-1.8211586-.0363043-3.6050021-.5786111-5.8417841-2.9905261,4.9103638-7.077597,8.0764514-10.9437659,11.4668631-.8506379.7459547-1.5695443,1.6426638-2.3444315,2.4743118-.8395967.9010981-.9172205,1.6152035.2303117,2.4528665,1.1345904.8282093,2.3160319,1.7324056,2.6871553,3.2444859-2.0096234-2.2514433-4.2253172-4.1743682-7.5043497-4.7249532,1.7390797,3.7251155,4.9068042,5.6100661,8.2124016,7.3130558.412844.2126952.3283647-.3191691.3395213-.5840274ZM70.0193474,74.332511c-1.6146597,1.8619947-1.7072414,2.0236145-1.7489235,2.9924652-.0775085,1.8016029,1.2315666,3.6501064,2.9015973,4.0972497,1.6640212.4455173,3.2513359-.2953453,4.2347435-1.9439307.8322908-1.3952518.808033-2.9806769.8717426-4.7350386.5966891.7828853.551777,1.4681131.7112654,2.0980139.3255247,1.2856962.7451472,2.5222397,1.803954,3.4398502,1.5289663,1.3250602,3.7181337,1.2279631,5.1786223-.2645067,1.2901896-1.3184465,1.2712932-3.1446697-.1331872-4.6598043-.6699349-.7227242-1.4684976-1.3262467-2.4158262-2.1676342,1.5813601.3861033,2.8094111,1.0652008,4.2112657,1.0571588,2.8182222-.0161499,4.4295859-2.1360705,3.635176-4.8240937-.819228-2.7719807-3.3919608-4.2675706-6.3355259-3.6368349-.97107.2080699-1.9174537.5313095-3.3342167.9316181,1.6395437-1.2446074,3.0049567-2.0245044,4.0435376-3.2059184,1.603113-1.8235755,1.609595-3.924292.0238074-5.8546711-1.6547597-2.0143475-4.5276059-2.6919564-6.4223838-1.5148215-2.3354502,1.450903-3.0795428,3.5188199-2.1217004,5.8082978.2761192.6599758.5478549,1.3390898.6845797,2.0362982.2505321,1.2775114.3042662,2.6052963,2.0491247,2.8322517.4468247.0581176.7084639.5547323.8852338,1.0453265.5795834,1.6085073-.0474389,3.1222466-1.6575393,3.8502662-1.4290238.6461495-3.3823148.1168176-4.0269702-1.0912823-.6653426-1.2468706-.0855505-2.7721126,1.5716702-3.7088722.6885128-.3891904.9855829-.7625056.7984968-1.5311966-.4568222-1.877024-1.0524566-3.6879158-2.3445469-5.1834838-1.4527652-1.6815389-3.3782828-2.23648-5.3248832-1.5452261-1.8145668.6443752-3.2227165,2.5409164-3.2689689,4.5322751-.0510534,2.1976103,1.5473575,3.1075414,3.2322966,3.8480525,1.283455.5640597,2.627961.9891534,3.9453089,1.4760672-1.6649111.008833-3.2050725-.4386728-4.7404109-.9143586-.4930112-.1527428-1.0149054-.5197409-1.5017532-.0187207-1.2528911,1.2894096-1.7587672,2.8442707-1.4588626,4.6113766.2533006,1.4925357,1.2121648,2.4033787,2.6056588,2.9359186,1.2606474.4817502,2.0867419-.6905892,3.4476175-.7920918ZM60.4852749,91.8087271c.8614375,5.3311125.8067585,10.7270113,1.3007805,16.0790746.0439013.4755979-.4061423,1.3264775.6548726,1.3240934.7853352-.0017578,1.3465055-.2215282,1.4798575-1.1773821.7961128-5.706537,2.4653964-11.2187041,3.7993336-16.8058528.110017-.4607773.2983995-.9886041.1767919-1.4054581-1.0273749-3.5216324-2.0409619-7.0446161-2.521185-10.8371162-.6519942.4585031-1.0511493.9345185-1.5331631,1.0432721-1.7829811.4022422-1.7563393,1.4153238-1.4813406,2.964516.5593466,3.1510857-1.8273219,6.2187303-4.856042,6.5690072-1.8177308.2102233-3.2569279-.6105648-4.5185641-1.7960219-.8233589-.7736348-1.5323282-2.1746544-2.3915903-2.2566453-.7968599-.0760363-1.6784792,1.2991984-2.6116683,1.8965247-.6547079.4190842-.8155146.7001033-.3328855,1.3747074,4.097821,5.7277516,6.7912715,12.0839648,8.3750925,18.926817.2027526.8759834.7246468,1.3267521,1.7729396,1.3630399-.2602879-6.062384-1.9902051-11.8305433-3.0583502-17.7066322,1.4823953,3.5675003,2.2542943,7.341005,3.3948282,11.0344525.5058432-3.7472145.0461645-7.5567324,1.0177289-11.238051.0239831,5.9739002-.2921043,11.9582263.7897737,17.8897632-.0169629-5.7596449.5266073-11.4896377.5427902-17.2421086ZM92.6468519,25.247242c-1.2699309,2.0226752-3.3729215,2.6448031-6.2887901,1.7812617-2.1159325-.6266378-4.1447655-1.5470498-6.2601597-2.1759508-3.3385783-.9925317-7.1953154.4295432-8.9000629,3.0742529-.7845772,1.2171636-.9827814,2.2084319.3627683,3.2124608.7005757.5227566,1.2307427,1.3032579,1.7498354,2.0302063.387894.5432242.7876204.7344081,1.4752762.7285304,4.3541648-.0371667,5.8690137,1.116809,7.0842657,5.2719566.4190842,1.43288,1.8540296,1.8839124,2.9485529.865843,1.4895035-1.385452,2.976579-2.7814509,4.3632175-4.2676201,1.8679054-2.0020154,3.1343316-4.3604545,3.7480495-7.0487689.2591344-1.1351562.2696702-2.2489989-.2829527-3.4721719ZM65.5283919,5.7704964c-.224077.5633181-.3890256.8261109-.4314988,1.1073965-.706783,4.6795357-3.3807438,7.7656236-7.6072366,9.7385884-1.9561145.9131308-3.6835817,2.2420995-5.087315,3.9341742-2.3929746,2.8844916-2.9382697,7.6513357-1.223239,10.8451362.2487303.4632108.5026352,1.1570464,1.1062786.3450419,2.4522129-3.2986155,6.0122424-3.6024258,9.6804982-3.631578.779117-.0061908,1.7125807.2848863,2.3026451-.0462359.9621161-.5398898-.1121594-1.4367362-.0212475-2.2186162.2904014-2.4975644.5798361-5.0046484.6583443-7.5146658.0717407-2.2932628.228922-4.5237689,1.0678485-6.6956053.7270308-1.8821738.4209079-3.7704066-.4450779-5.8636359ZM28.2515342,58.6105028c-2.7163844.8041548-3.388187,1.8032783-2.9457624,4.3250675.2436876,1.3889841.5596377,2.7934974-1.3219346,3.416334-.3953977.130891-.7235811.6230892-.9636542,1.0207062-.2432921.4029233-.4204685.9484272-.0354144,1.3440885.4414194.4535813.9293879.0892639,1.2642784-.2070153.8047975-.7119795,1.5399856-1.5019839,2.3170426-2.2461095,2.1473369-2.0563208,4.4932681-3.7382442,7.4812509-4.4211704,1.565353-.3577805,2.7118306.385532,3.9030665,1.2597575.473873-1.2668767.8331697-2.3427122,1.2772038-3.3823643.4497196-1.052951,1.0923315-1.9867938,1.9154651-2.8037422.7970192-.7910426,3.1282561-1.2521111.706415-2.8566358-.0357495-.0236865-.06906-.1049963-.0554535-.1415038.5931515-1.5911599-.624468-2.9544086-.5665426-4.4838638.0174518-.4607389.0526465-1.1405944-.4265384-1.2824003-.5172525-.1530724-.9944379.3182737-1.3270158.7526454-.2120525.2769487-.3452891.6142288-.5262723.9473065-1.543688-3.4303305-3.3982285-4.1940337-6.9071277-2.7935249-2.3647398.9438404-4.5070889,2.29869-6.2449162,4.1531591-1.6270138,1.7362233-2.4441599,3.8729859-2.5326602,6.3582346,1.0301874-.1386639,1.3825626-.6271377,1.4764298-1.4510459.1486889-1.3052189.9190717-2.2418468,2.1009966-2.709941,2.4609195-.9746021,4.8480933-.818058,6.90693.9698889.636542.5527932,1.134909.8367787,2.026405.7403243,1.2784178-.1383068,2.5911733-.0010492,2.6614144,1.8057228.0162598.4182877.078739.8354768.1329894,1.2514793.2744768,2.104743-.0756573,2.6148599-2.4164908,3.3483341.3278099-.3451023.5576107-.6104989.8115486-.8503523,1.1811559-1.11565,1.1395287-2.3773466.2075261-3.534371-.8965882-1.1130572-2.1639483-.9141718-3.2920897-.3754026-1.1942461.5703494-2.2039055,1.4382029-3.1327715,2.389415-.8375917.8577516-1.65777,1.7446938-2.7410817,2.3070231-1.1133209.5779025-1.5110477.5491128-2.4656052-.1057983,2.3293693.1053643,2.6134481-.1820543,2.7123689-2.7442458ZM63.9361114,8.3742985c-3.4591861,2.8896799-7.3267118,4.0110071-11.625143,3.8352589-.8329609-.0340548-1.6968483-.0127359-2.5049802.168283-3.4965616.7832066-6.9036341.4474454-10.2810325-.626874-.3473875-.1105032-.8093238-.5160824-1.1095031-.0248785-.2196935.3595081-.0553656.8244438.1427618,1.2058065.6778011,1.3046504,1.7368111,2.2846632,2.8128334,3.2436015,1.4788358,1.3179274,3.2880247,2.5118466,3.8444599,4.4311624.6976424,2.406323,2.717917,3.81589,3.884994,6.4794193-.5202023-6.8136506,3.0220953-10.2480873,8.3419798-12.4101102,1.2764238-.5187411,2.5742379-.9946191,3.7220778-1.7794655,1.5492581-1.0593231,2.525997-2.4709473,2.7715523-4.5222033ZM90.1236015,53.4573743c-1.3511418,2.3884153-2.8459626,4.6160622-1.2960673,7.382385-.3047606-.4632218-.6095321-.9264435-1.0469415-1.5912863-.3846531,2.5252389-2.4625949,3.6898879-3.6091824,5.6197945,2.576578.1880309,4.9058759.8435737,5.5774587,3.5140738.4522299,1.7982631,1.6227236,2.369365,3.0731817,2.8234407,3.660082,1.1458184,9.2070317-.7866206,10.6514364-3.6888332-.7166707-.0348486-1.5080484.1143676-2.1355321-.1402734-1.6478823-.6687264-3.1940422-.3918821-4.8313667.0162158-1.6418069.4092405-3.3436649.4102952-4.9062714-.4246323-.9618415-.5139291-1.4404496-1.2227776-.5925912-2.3076878,1.3183256,2.7577095,8.1211877,2.2746959,11.3379826-.7277998-7.7006532.8868159-9.928888-.9970416-12.2221068-10.475397ZM33.593221,17.8955802c.1794066-3.4897281.6049069-6.3786884,1.6927614-9.0910684.4627603-1.1538082.1113464-1.8267918-.7079915-2.4667478-2.4135465-1.8851374-5.1849889-2.6751363-8.2180101-2.6187875-.559841.0103986-1.1570904-.017894-1.6902346.5443805,1.991463,1.8191481,3.8893445,3.5528115,5.7872261,5.286475-2.5824996-1.2845674-4.5517868-3.3333543-6.8014009-5.081863-1.3085643,3.1566146-.1234368,6.1308672,3.255681,8.0381338,2.3818125,1.3443577,4.9171534,2.4348819,6.6819686,5.3894773ZM29.1087914,47.0448342c-2.1357629-1.2786046-4.1595092-2.5385983-6.2300627-3.7163045-2.1390807-1.2166857-4.4577384-1.998335-6.8431489-2.5795553-.4852823-.1182403-1.0453595-.4936264-1.3559538.2858915-1.2720567,3.1925536-1.5358822,5.9229895,2.0691912,7.5472183,1.6257558.732469,3.3472245,1.2570659,5.0405462,1.830876.3113853.1055236.721252.0730975,1.0430578-.0294214,2.2201982-.7072719,4.4197257-1.4679538,6.2763701-3.3387046ZM88.0280815,74.6363487c2.1948802.9953827,4.4114036,2.1403441,6.1677868.9333869,1.3888578-.9544037,2.0478943-.4911215,3.1001202-.0342663,5.4285501,2.3569175,10.5761251-.7586934,10.9300714-6.5917269.0488781-.8056489.0619519-1.5654409-.8189753-1.9889087-.9139741-.439365-1.7538673-.3182518-2.4912802.3415208-.3979026.3560008-.7182637.7985408-1.074627,1.2011455-3.4957706,3.9492969-7.8330494,5.0501702-12.5757565,3.1691253-.4640073-.1840319-.892342-.5313424-1.0365814.2866881-.2094652,1.1880278-1.0368561,1.9431177-2.2007579,2.6830355ZM108.1836856,64.7968455c2.3296055-1.4390982,3.3927079-3.5052023,3.3110905-6.1742138-.0777722-2.5429489-.8299177-4.956814-2.4552011-6.811316-1.6326992-1.862967-2.6519662-3.9859912-3.7578712-6.1154259-.5302548-1.0210083-1.2067156-1.919162-2.5183835-2.0752008-2.2760362-.2707524-4.5494796-.3780228-6.8059272.0826501-2.0538598.4193094-3.9257093,1.1978936-5.2907048,3.1053552,3.624772-1.1272955,3.6712551-1.118825,7.0730267.5792648.3711509.1852678.7719649.3694425,1.1760967.4214518,5.5228457.710793,8.7079561,3.8487116,9.7099635,9.2819694.0321899.1745781.1147961.3399333.1745946.5093368.8770271,2.4844742,1.0263751,4.9018-.6166842,7.1961284ZM61.212053,83.6518779c-.1048205-1.8316615-.1936888-3.4506058-2.5869052-3.5891213-1.4500736-.0839245-2.6303011-1.0386578-3.7809205-1.9201673-1.277039-.9783759-2.6262801-.3624278-2.8457539,1.2463103-.1774511,1.3005937-.339741,2.6049337-.8551533,3.8304029-.2418968.5751339-.3693162,1.1064983.1835595,1.6270193,1.0434918.9824188,2.0220434,2.0332055,3.3166386,2.7105123,3.2752861,1.7135365,6.602098-.3191636,6.5685348-3.9049561ZM12.4722269,46.8688499c-.3551109-1.2861137-.5246023-2.3455137-.2105254-3.4085447.1333245-.4512192.1485296-.8317469-.3315122-1.059367-2.2410667-1.0626849-4.0324524-2.7808467-6.0567865-4.1592785-.8256056-.5621865-1.2003984-.3833952-1.5515377.524487-.9205494,2.3801426-.5980129,4.582532.7959535,6.6550521,2.3698978,3.5235055,6.3316862,5.2784166,10.8949866,4.7903822-1.8046022-1.0884753-3.023529-2.7405928-4.9955847-3.5362661-1.8337873-.7398958-3.2085552-2.2254387-4.1778289-3.9932861,1.6010421,1.6378188,3.2742479,3.1535851,5.6328353,4.1868212ZM90.3058096,89.4912945c1.342122-2.5615487,2.2463951-5.0871612,2.1507812-7.9042847-.12208-3.596636-1.6188345-5.3643241-5.1325786-5.8654761-.582308-.0830566-1.6324136-.4294553-1.6637905.701949-.0292456,1.0550384.0116235,2.215974.4187656,3.1587981,1.0437884,2.4170786,1.7660731,4.9439545,2.7438338,7.3782926.3446519.8580976.5954806,1.7917482,1.4829886,2.5307211ZM40.0457952,78.8673898c-.7599788-.4993942-1.2423662-1.0468316-2.09669-.7447847-4.7015688,1.6622304-9.5228006-.542175-14.2544005.4030002-.2097454.0419018-.4549875-.1390649-.6895455-.1668712-.4900174-.0580847-1.0403827-.6143881-1.4610599.009602-.4561685.6766365-.2563878,1.3868473.193958,2.0091455.7999745,1.1053997,2.0132764,1.5700003,3.2643822,1.6876528,5.2432878.493121,10.2576097-.2245714,15.0433557-3.1977446ZM60.139832,115.2464069c3.6871303.0252356,5.9631555-1.931637,5.6065176-4.6001595-.135714-1.0154547-.3499253-1.6290737-1.6824453-1.0887994-2.6064828,1.0568072-5.277697.9809577-7.8560328-.21765-1.5495108-.7203182-2.0941247-.4126462-2.1488146,1.3483183-.0382324,1.2318523.5233005,2.1845092,1.4737711,2.9329963,1.4268045,1.123615,3.1041741,1.4941068,4.607004,1.6252944ZM90.3900198,36.4216547c1.1841607,0,2.1223705-.0544647,3.0508355.0172266.7435872.0574145,1.0549725-.3218553,1.3452421-.9016254,1.2597026-2.5160654,1.8948987-5.143153,1.5500161-7.9705597-.4331247-3.5508505-2.6848702-6.2499535-5.6921669-6.6960036.2188805,1.8460591.1989293,3.6609005-.8298847,5.4892551,1.6972219-.2392381,2.5394113-.8362623,1.9579383-2.5280844,2.1355321,1.1491582,2.7666194,2.6330642,2.272949,5.047973-.5572921,2.7261128-1.9610034,5.068001-3.6549294,7.5418185ZM98.9109777,42.316728c-3.3041362-1.8733051-6.1374206-1.498765-8.9065668-.0771679-2.5094736,1.288278-3.7764271,3.4040787-3.7417873,6.2616209.0304211,2.5095669,1.249738,4.6903078,1.8132923,7.2797508,1.3762565-1.8914051,1.1196709-3.8218391,1.149356-5.6927986.0713232-4.4959708,2.4817441-7.1080346,6.9726337-7.5347982.7458723-.0708673,1.4928214-.1305724,2.7130721-.2366069ZM40.4826388,37.9281815c.4786301-1.7519337.9087775-3.4815927,1.5113608-5.1674437.6832064-1.9114002,1.4848178-3.7991029,1.9558179-5.764012,1.1066851-4.6169082-2.8517909-8.8242903-7.5961569-7.9878796,2.1044573,1.1283007,3.2784172,2.8385523,3.9104218,4.9762653.7086891,2.397067.7660103,4.8103663.4646115,7.2800255-.2689067,2.2034166-1.0668707,4.3956492-.2460551,6.6630446ZM67.3970663,76.4101453c-1.6366762,6.1310265.2519383,11.5485464,3.1944707,17.2896244.7049153-3.5901211,1.4036564-6.6523494,1.6949147-9.7944374.0749047-.8080439-.0950976-1.2251836-.9931195-1.2717546-2.240045-.1162243-3.2310222-1.56944-3.6008877-3.5759487-.1605651-.8710395-.2005992-1.7643153-.2953782-2.6474837ZM56.4421438,139.2820392c2.9507611-7.320109,2.9748761-14.8655256,2.1909911-22.4966354-.1170483-1.1394683-.6913912-1.3330363-1.6843569-1.3528556.6106197,8.0177514.2910606,15.949491-.5066342,23.849491ZM21.5101132,41.7598533c-1.0499133-1.9262372-2.0519043-3.5505648-3.8052168-4.6559591-1.1507787-.7255367-2.1290557-1.7802785-2.6651607-3.0814874-.4079935-.9902741-.7960579-.8127681-1.3514274-.179901-.3147526.3586649-.6859749.66743-1.0054846,1.0223266-1.8194996,2.0210052-1.4623014,3.5454727,1.1024774,4.4223844,2.4731967.8456062,4.9782867,1.5979659,7.7248122,2.4726364ZM42.2028715,41.2422713c3.5496695-2.7787977,5.6251943-13.5808126,3.1445489-16.4446994.1223107,5.7350081-3.982113,10.4393839-3.1445489,16.4446994ZM75.0771751,10.0442386c-3.5529654-1.4684839-8.7089668,1.9443729-8.9199701,5.849719-.1586425,2.9364762-.5716183,5.8179356-1.0431842,8.7057616-.2577721,1.578608-.1087536,2.1076983.8500227,3.4059189.3254148-7.4018583.3828953-14.8080122,9.1131316-17.9613995ZM108.8877001,50.3752717c.0002087-7.8664204-7.6999831-13.421868-13.7595326-9.9772388,2.5433554.143399,4.148424,2.2395946,6.5755551,2.1571312,2.5208005-.0856494,4.1568505,1.1382928,5.0998064,3.4643881.5503378,1.3575962.9312775,2.8137397,2.0841711,4.3557194ZM82.9973021,17.7619701c.4784873.2401939.8653706.3375328,1.1182867.5765896,2.1066052,1.9911224,3.9225452,4.1119604,2.8591572,7.3423454-.1681786.5108749.0151062.8032429.5380771.887475.6499947.1046832,1.297968.2972184,1.6121218-.6073513.5546884-1.5972518.9839789-3.2053527.7231087-4.9129511-.4701267-3.0774499-3.7520045-4.8928654-6.8507514-3.2861076ZM46.7479676,2.3841441c1.3100529.2600215,2.5308749.3306471,3.1502727,1.2264113.6548287.9470044,1.2171636.9279789,2.0743603.4489203,1.0155975-.5675726,2.0069812-.3541221,2.8125203.4039011.8541975.803806,1.0459857,1.8716737.7551448,2.9851456-.1274633.4879602-.4185349.9331836-.6707808,1.4738452,2.7352095-.7691441,3.3627152-3.3250541,1.4797806-5.5446536-2.0959484-2.4707001-6.5315329-3.0368033-9.6012978-.9935699ZM100.295397,66.3508387c3.1107769.5183896,6.3744285-.5697396,7.603655-2.466517,1.1397539-1.7587178.7984309-3.6057931.2317564-5.9399579-.681921,2.1443212-1.1537505,3.9190845-2.7903938,4.7851252-1.8524586.9802216-3.1498882,2.6802065-5.0450177,3.6213497ZM60.9516442,9.6862685c-2.1322033-1.1807631-3.8814234-.9753821-5.6453762-.1446102-2.4925656,1.1739269-5.0861614,1.7887599-7.8078907.9955228-1.4094132-.4107676-2.2406603.1218877-3.2316155,1.8230592,5.7099977-1.0246612,11.2412919-.0852951,16.6848824-2.6739718ZM55.9321478,1.4888688c2.7603902,2.8282691,2.7742,2.8235368,4.043999,6.5291159.2417101.7053768.8179646.9298218,1.3664127.9317829,1.0693975.0038287,2.2489989-2.1965474,1.7042421-3.1719075-1.4769022-2.644295-3.7032912-4.1275555-7.1146538-4.2889912ZM85.3051657,80.431018c-.9627973.5741232-1.4973148,1.3469889-2.3754404,1.6057937-.7564632.2229564-.6500716.6512911-.3323033,1.2130986,1.3632377,2.4100583,3.2860417,4.2282835,5.9859741,5.8726942-1.1825457-3.1352764-2.2159081-5.8750562-3.2782304-8.6915865ZM25.2205675,57.8349894c2.4000168-1.5984878,4.7217067-2.7263271,7.4916275-1.8768592.2187596.0670825.6604317-.2828044.8588722-.5447073.2066857-.2727794-.0627923-.5419058-.3060899-.7281239-1.743694-1.3346897-3.6742434-1.6275027-5.7397157-.9545685-1.8446803.6009847-2.2113872,2.1028204-2.304694,4.104259ZM47.4480819,27.4754492c.3790501,4.2325682-1.4627628,7.6262923-2.4672202,11.379802,3.4700626-1.6273159,4.9991937-8.1689782,2.4672202-11.379802ZM34.9239941,16.5680563c1.3943345-1.1112582,2.7671248-1.2772423,4.3274241-1.0583261-.6662215-1.2101406-1.5752682-2.0750167-1.621191-3.3471201-.0423578-1.1733803-.5592202-.9462381-1.1862261-.3952604-1.3381559,1.1759154-1.5286532,2.7350749-1.520007,4.8007066ZM44.1924394,20.4919007c-2.7759852-4.3233619-7.5063217-5.8064466-9.0863085-2.8487916q4.3315165-.2757374,9.0863085,2.8487916ZM28.9210242,60.4125012c.9465705-1.0172674,1.7910615-1.9285114,2.640414-2.8352015.2370134-.2530205.6928908-.4864029.510853-.8381739-.127293-.2459673-.5937612-.4246433-.9191486-.4423862-2.1922545-.1195312-3.9389423.8444361-5.7842762,2.436008q2.9185273-.7675648,4.2488719-.2023955c-.3426744.4685501-1.2973033.5780728-.6967141,1.8821491ZM46.4698049,8.6136081c.7832918,1.9303846,4.9648285,2.2237248,7.0397821.5737579-2.3506004.0479663-4.5761434-.3257554-7.0397821-.5737579ZM37.2786045,76.8059824c-.4736093-.8406294-.8165748-1.4493814-1.2010137-2.1317419-1.6770015,1.2085393-3.5919613,1.3788822-5.5228402,1.5361624,2.1565874.5028549,4.2903288.9484381,6.7238539.5955795ZM23.7195503,59.5001532c-.9211152,1.6387142-1.1081957,3.1143804-.3290348,4.6194735.2046587.3953428.477504.9422638,1.071397.7068379.4572672-.1812743.4272141-.7237129.343339-1.0958032-.3064964-1.3596671-.6866671-2.702723-1.0857012-4.2305083ZM57.4561373,3.6798379c.5560946,1.3724635.5219382,2.4838617.3237559,3.5881985-.1158288.6454629-.0094592,1.0432034.7370503,1.0618115.8579328.0213794.7981672-.5964529.6957747-1.1017193-.2446104-1.2069957-.5590829-2.4034583-1.756581-3.5482907ZM64.340441,46.5117505c.5588522-.2340361,1.410358-.2699834,1.439296-1.1858031.0148755-.4704892-.4813217-.7154457-.8941987-.6162887-.6382833.1532866-1.2002666.4996359-1.2805986,1.2650365-.0525256.5005423.2538499.5880868.7355013.5370553ZM49.6416768,31.059852c-.2203307.9983105-.4106797,1.8607917-.6325155,2.8659248,1.4289469-.7461415,2.223983-1.4775559.6325155-2.8659248ZM95.0770921,21.1398464c.6953023-1.5302737,1.2255461-3.1069427,1.5226272-4.761219.5623129-3.1311703-.5134347-7.3202683-3.206314-8.4347071,2.857707,3.9981503,3.0766973,8.1077651,1.5426773,12.4081244-.0799914.2242363.1181908.5477066.1868663.8249794-.000011,0-.0376611-.0290259-.0458569-.0371777ZM109.3344589,21.3258943c-1.5510489,1.7242482-3.1077996,3.4434043-4.6515536,5.1741564-1.5582559,1.7470064-3.603074,2.8254292-5.5384243,4.1097192.3377195.0281854.6754281.0563763,1.0131476.0845672.1238927-.0278503.2477965-.0557006.3716892-.083551.0769921-.1601641.1128845-.4111136.236975-.4673032,3.7691762-1.7066811,5.9933569-5.1213396,8.7766536-7.915694.4205344-.4222098.9044709-.8759943-.2431493-.8623328l.0346618-.0395617ZM21.4435361,20.6645507c-.1679369-.9169788-.9958276-1.297957-1.5599643-1.8808308-3.1429998-3.2474385-2.4836392-6.7146501,1.6364071-8.4819812-2.2527068-.0616058-3.866493,1.4110254-4.1231335,3.7624827-.2804973,2.5701098,1.4033323,5.2638597,4.0950854,6.5512039,0,0-.0486364.0496087-.0483947.0491253ZM19.334871,52.6525603c-1.4748367-.5851425-2.9522223-.0289819-4.4242521.012486-3.458505.0974322-6.9147083.2763829-10.3718455.4223417,4.9755457.6386513,9.9074866.3110228,14.8205805-.4612277,0,0-.0238678.0258838-.024483.0264001ZM98.1594584,32.1682949s-.0368371-.0348486-.0368042-.0348926c2.6652376-1.3228465,5.4718472-1.7166786,8.4284311-1.4541989,1.3518998.1200201,2.6708846.5988918,4.0518762.3940079-3.3201872-.9753436-6.6569307-1.5899734-10.0736437-.4624253-.1238927.0278503-.2477965.0557006-.3716892.083551-.6003256.5804238-1.5850735.6397115-1.9981702,1.4739578ZM89.7889032,17.158615c-.1837572-2.9679245.2713182-5.6218352,2.1649315-7.8988245-2.2563597,1.6356078-3.2884147,5.4267237-2.1649315,7.8988245ZM49.9717828,44.3036427c-.825677-1.309954-1.5351077-2.4354807-2.2445494-3.5610018-.2529491.8872718,1.1875444,2.0056628-.3705466,2.71472.6207931-.3036894,1.2051226-.4287412,1.6215371.311671-.3946067.6469515-1.5838211.3177244-1.6154287,1.3650449.7612752-.4597721,1.5513125-.8482209,2.6089877-.8304341ZM28.4174277,62.0738802c-.4557016.4519443-.4575693.8025123-.0788543,1.1785906.3571049.354622.5102487-.1053698.6165963-.300421,1.3367167-2.4515427,3.815088-3.7615297,5.5838033-5.7820186-2.2957072,1.3316081-4.2556944,3.0534118-6.1215453,4.9038489ZM35.8886261,50.48302c-2.0134027-1.6996169-4.1977086-1.8642744-6.4549637-.388773,2.1974675-.6531093,4.3346311-.6243746,6.3778837.4661441l.07708-.0773712ZM35.8117438,50.5601989c.6223861.9970581,1.6195376,1.6520131,2.2564806,2.6899239.5986007.9754205,1.3929667-.7109084,2.2370403-.2862871.0049493.0024829.0924169-.1590655.1653386-.2856553-.2438359-.3089738-.4984055-.6315487-.7889442-.9997003-.0511468.7861317-.1447008,1.310811-1.1382159.8128834-1.0267596-.5145883-1.5005118-1.7044618-2.6548171-2.0083435,0,0-.07708.0773712-.0768823.0771789ZM23.3195383,70.6802293c-1.4731229-.809582-2.0887414-1.7009133-1.3269773-3.286602-1.6257119,2.0050366-1.2422398,3.7022914,1.1112609,4.5404599,1.7066207.6077853,3.5499496.8518684,5.049967,1.9835803-1.0265838-1.9400196-3.1426757-2.3077977-4.8342506-3.2374382ZM18.1897777,69.24602c-.5797372-3.507482.1793023-6.7563185,1.4925577-9.9497675-1.3751853,1.3202812-1.769435,3.0772521-1.9922321,4.8420838-.4908414,3.8882569-.4899954,7.7067726,2.3693815,10.8821161-.6928249-1.9010621-1.5323886-3.7335805-1.8697071-5.7744325Z"/>
  </g>
</svg>