<?xml version="1.0" encoding="UTF-8"?>
<svg id="Layer_2" xmlns="http://www.w3.org/2000/svg" viewBox="0 0 106.1588206 158.9005164">
  <g id="Layer_1-2" data-name="Layer_1">
    <path d="M83.1566614,42.9727252c-.5442901.9131126-1.6008539,1.1746824-2.498766,1.9945381,1.341629.205384,2.5643962.3925717,3.8431277.5883313-.3450916.7434379-.8069863.5803595-1.2063158.4059304-.9141419-.3992972-1.859331-.4431076-2.8159955-.2938864-.3142106.0490126-.8062939-.2230309-.9212783.3088053-.0967512.4474697-.0461507.8597609.3426636,1.251811,1.0818132,1.090819,2.4177277,1.8037822,3.6797216,2.6295786.2077104.1359225.4038163.2895889.5343381.5468059-2.0040793-.6070353-3.7580457-1.680826-5.0856329-3.2894486-.7417992-.8988168-1.3418967-.8719841-2.3051067-.4861102-6.5051891,2.6061063-10.4609008,7.4745706-12.6089437,13.9935107-.160895.4882428-.1458838,1.1292657-.9764117,1.321411.3508154-1.751723-.7590907-1.9938041-2.0542182-2.0915062-2.6614798-.200768-5.3405557-.2974915-7.9757058-.6859688-3.5285293-.5201762-6.6959496-2.0994319-10.0155129-4.1158451,1.295663,4.9735658,1.9432405,9.7251901,2.0099601,14.8597201,1.0960767-1.0003502,1.4857772-2.0704942,1.8601804-3.0969525.5681733-1.5577221.9766055-3.1729779,1.4989513-4.7485269.2037684-.614661.4543152-1.2427544.8226345-1.7670296.5317439-.7569212,1.125896-.6033241,1.4825922.1885171.4887598,1.0850167.2534734,2.1803225-.1504352,3.2355708-1.1732007,3.0651114-2.5044714,6.0489628-4.5232019,8.6761919-.2738391.3563823-.5508356.7463229-.6861673,1.1659536-.326046,1.0110039-.7105028,2.2469082-.154488,3.0565903.3984248.5801933,1.5510843-.1635631,2.3700721-.291103,1.8887903-.2941403,3.7636772-.7874145,5.6901525-.6333973,2.3464844.1876032,2.7777012,1.0615213,1.3779846,2.9403873-1.3443247,1.8045207-2.2303091,3.7887421-2.8018706,5.982511,1.7391583-2.0261899,3.8251253-3.6221786,6.0272954-5.0768625.3586811-.2369297.4458218-.4736932.1661757-.8597471-2.0222294-2.79166-2.2934282-6.189566-3.2137463-9.3626269-.6307385-2.1746403-1.211098-4.364721-1.8863623-6.5252732-.3643495-1.1657366-.1318051-1.3896907,1.0759602-1.1135713,5.902959,1.3495316,11.3551847,3.4917491,15.3317054,8.3851305.4963946-.6335265.3883527-1.3297105.5259924-1.9564238.9013372-4.1041528,2.892464-7.5952788,5.8449452-10.5611325,1.8788659-1.8873593,4.0685728-3.4678844,5.5736818-5.7261295.60175-.9028604,1.1727945-.6916649,1.3802187.2706541.5907363,2.7405055,1.9753402,5.1620229,3.0019923,7.7267053,1.6201672,4.0473438,1.7032089,8.1381195.3408911,12.2687035-.1984692.60175-.4818542,1.0195712.4109526,1.5533092,1.4223812.8503212-.1141812,1.3801725-.6028856,2.1657591,4.1854405-1.0301695,8.118977-.5597445,11.8066011,1.3639242,3.2484678,1.6945678,6.1776382,3.8244145,8.0047035,7.1390295.7711846,1.3990796.7022402,1.4851033-.8389013,1.6785688-1.680886.2110247-3.2324226.8521122-4.6393772,1.7351239-3.394684,2.1305021-7.0812742,2.4168691-10.9252512,1.9886158-1.0436667-.1162676-2.098024-.1366149-3.1504795-.2011557-.0139034.1966136-.0609496.3379922-.0209012.3698333,4.3541088,3.462096,4.8802489,8.1052121,3.9660239,13.1305047-.4896737,2.6917053-1.3731101,5.2827173-3.1108836,7.4567113-1.2610153,1.5775524-2.6331191,1.5937176-3.6674892-.1235886-2.3274388-3.8641582-5.3421805-7.1970894-8.0004752-10.8027797-.7145003-.9691461-1.3291381-2.0119081-2.0263007-3.0769006-.144656.1851659-.3016459.320433-.3763696.4916124-1.2239581,2.8039108-3.3386828,4.7074261-6.2038755,5.5949153-2.4974643.7735757-3.7227241,2.3770238-4.3429012,4.8162251-1.9196528,7.5501021-3.9460736,15.0730621-6.022504,22.9536323,3.1849702-3.5603428,6.0139644-6.8864793,9.0226314-10.0412794,3.1941838-3.3493457,7.2594976-4.7813097,11.8572755-4.7475576.5431361.0039882,1.2608491-.1291647,1.5058937.4433107.2541842.5938751-.4006312.9740391-.768415,1.3507133-3.0759682,3.1504057-6.5441942,5.6989229-10.9275961,6.689441-6.434749,1.4540469-10.0075088,5.8283368-12.0560586,11.736198-2.4882877,7.1760682-4.3566938,14.5686541-7.5227292,21.5071556-.2605912.5710721-.3628078,1.2614031-1.0608197,1.640653-.4525334-.7446888-.0579215-1.3986642.2189273-1.9705672,3.2478955-6.709419,2.4820007-13.5674915.5278572-20.3544684-1.2111811-4.2065909-4.2060186-7.1655807-8.0708137-9.1733158-2.0116265-1.0450238-4.0460421-2.0276301-5.8886448-3.3744383-2.5845958-1.8891503-4.0940854-4.5258515-5.3290665-7.3761807-.2892796-.6676479-.1087897-.9395853.6307431-.8499242,1.2212947.1480718,2.335466.6216726,3.4135727,1.1608113,1.9388784.9695985,3.7719537,2.1155832,5.5517835,3.3611442,2.3573089,1.6496819,4.0729395,3.8043257,4.9390613,6.50662.6775908,2.1141061,2.3736726,3.2742805,3.772106,4.7780508-1.2853416-5.9652656-2.1308253-12.0065382-4.3684369-17.7015744-.5228304-1.3306522-1.6118908-2.1786008-2.7901229-2.8846722-2.8033615-1.6799536-5.3582672-3.6084229-6.8502437-6.6305225-.3446669-.6981504-.6013023-.3791853-.9768733-.0343707-3.6356527,3.337935-7.6959074,6.1975609-11.0717028,9.8296915-.2389099.2570462-.5247599.4712836-.7942277.6989905-1.5611425,1.3192599-2.3230536,1.2125935-3.0107673-.6712392-2.0820434-5.7032065-2.5694784-13.6468404,3.5364965-18.0570151.1050692-.0758777.1501259-.234834.2795861-.4478159-2.3593215-.5154494-4.7003775-.8367964-6.8664182-1.7919929-1.4311285-.6311077-2.8508093-1.2928841-4.052066-2.316582-1.5557695-1.3258146-3.2425132-2.3829415-5.4995074-2.694401,1.9355503-3.2416823,4.9344268-4.7172397,8.0492755-6.0309605,3.1847441-1.3432077,6.4877175-1.5656431,9.9083296-.9188041-1.9328638-2.0714267-4.3371681-2.9059243-7.011665-2.9297335-2.3402944-.0208551-4.5916894.4952129-6.700284,1.5769708-.3907945.2004726-.9520023.7828169-1.2979386.2000017-.304794-.5134922.3961629-.8360486.7563535-1.1469264,1.559827-1.3462727,3.4853883-1.6937277,5.4726192-1.9805101-1.9572916-.7699476-3.9752559-1.0802992-6.1282333-1.0932978-.1330883.8491949.5701305,1.4111643.5847262,2.2164981-.6111574.3097423-1.0452177-.3297296-1.5907772-.4321769-.1932993.5148493-.3098531,1.0060463-.5542468,1.4221411-.2165916.3687532-.8492042.6219034-.9251234.1238102-.2264583-1.4858141-.923127-.5947614-1.503955-.4164364-.2405417.0738466-.4875804.1267552-.7321934.18704-.3018998.0744098-.6211418.1281953-.796838-.2013311-.16919-.3173218.0321019-.5686534.2349056-.8045952.5424853-.63108,1.400656-.7672795,2.350985-1.5419538-1.030525,0-1.7503775.0841403-2.4394274-.0254157-.6006283-.0954957-1.4787563-.2074889-1.3283072-1.0844905.128777-.7506435.9048522-.9111877,1.5861704-.8115284.6913718.1011179,1.3630657.3367736,2.1573349.5431177-.003552-.5625325-.1960943-.9965097-.6322017-1.3565387-.3778282-.3119026-.4918155-.7424639-.4619939-1.2208192.0287599-.4613223.0480409-.9955496.6048935-1.0721566.5127883-.0705416.5712937.4602698.7171383.8219236.1684837.4178027.3196483.8436557.5105195,1.2509248.0967604.2064549.2312935.5153848.5209009.3645711.1837073-.0956618-.1319989-.4753826.3544021-.7222921.2366389,2.1715752,1.857997,1.7825025,3.2875468,1.7982338,1.474228.0162391,2.8572025.5326209,4.6581366.8971089-1.4803857-1.3975748-2.6331976-2.6652002-3.5707934-4.0990383-.3715274-.5681641-.775976-.2193058-1.19154-.1599626-1.0875879.1553281-2.1318731.1250749-2.8760172-.859904-.3939011-.5213948-.4456556-.8880154.3971-.9521408.586448-.0446182,1.1632578-.2189735,1.7427772-.342839.0285314-.0061023.0608111-.0847589.058757-.1280846-.0085581-.1802176-.1129303-.2405209-.2831404-.2002141l-.0249079.0105706c.4471189-.4867103.9466801-1.1105432,1.6449413-.7380326.7984375.4259638.7479662-.2377513.8321942-.5522481.1371458-.5121074.6545247-1.3079046-.0448813-1.523693-.5683625-.1753708-.5285219-.245617-.2571477-.55451.2175656-.2476388.5471521-.2544427.7725971.0437411.2542304.3362751.2897597.7317918.2701787,1.1486344-.0218937.4661229-.6114898,1.0389953.5823582,1.1768565.7909272.091332.1607381.9896411-.2034314,1.2408619-1.3441816.9272883-.8125116,1.7743414-.0516622,2.7112032,1.905514,2.3463182,4.3734775,3.9765114,7.0089,5.4846208-1.675393-2.6176648-3.3780295-5.2110586-3.959663-8.641452,1.3673816,1.0651495,1.3415598,2.6263705,2.4271073,3.7735831.0891994-1.6529962-.7757175-3.0022508-.6168582-4.5547937.6417107.2783167.6147948.9045314.897132,1.3163149.1931193.2816679-.1242994,1.3704974.8883016.5827875.2582602-.2009065.3432498.3809763.3668191.6454265.0982329,1.1022621.2553983,2.2096849.2266452,3.3109222-.0873992,3.347167,2.2696235,4.9459714,4.5946621,6.5767.2877425.2018112.702868.2535657.9933616.0228215.307979-.2446291-.0126478-.5499124-.0796259-.815849-.7421593-2.9466188-.4917694-5.7558288,1.1244189-8.3876278.2278546.5926842-.1849767,1.0670975-.3381907,1.5734811-.6597638,2.1806687-.7308593,4.358494-.0886178,6.5428371.1360702.4627717.1807392,1.0287755.707447,1.2804856,2.1809134,1.0423004,3.2694475,3.0635512,4.4558961,4.9858443,1.3649075,2.2114482,2.6873478,4.449106,4.2025381,6.964785-.0260019-1.0851275-.4653105-1.6407915-.7869252-2.2307061-.6738103-1.2359043-1.3621517-2.4645061-2.0720591-3.680017-1.5539647-2.6607227-2.2176521-5.8426741-4.673674-7.9810973-.1652018-.1438343-.2076458-.4506409-.264501-.6917157-.0831525-.352551-.0851974-.7346168.2305504-.9656472.3623462-.2651334.6776693.0178547.9423733.2319167.8845719.7153219,1.4026293,1.7078988,1.9037784,2.6917053.7839432,1.5389627,1.5103481,3.1072369,2.2611301,4.6630941-.1243595-2.359243-.7320087-4.6191684-.5003921-6.9444192.0562551-.5648036-.0626483-1.5556633.9357125-1.3530305.74732.1516723.9039729,1.0002302.6444756,1.6260018-.4279441,1.0319882-.1715026,1.9763003.0880362,2.9450679.9029482,3.3704316,1.6602248,6.7831918,2.8028307,10.130405.1808684-.1279738.3102963-.1689453.3347195-.2440475,1.8190473-5.5942783,3.3436173-11.1959884,1.2414573-17.094036-1.1434229-3.2081056-2.8671084-6.0746277-4.7136116-8.9059576-1.6977574-2.6032536-1.6294269-2.6509507-3.3179385.0374034-1.3515765,2.1519065-2.6962613,4.3081474-4.0440065,6.4624681,1.1123527-3.2846203,3.0051681-6.1220063,5.0807999-8.8532845.6594038-.8676958,1.2256891-.6069107,1.7854198.1426619,3.8743272,5.1883249,7.3159743,10.5525883,7.2102865,17.5379975,1.2274478-1.090676,2.4805513-2.0242051,3.7506186-2.9362421.4473312-.3212362.3179542-.9294209.335495-1.4228612.1020873-2.8729291.044572-5.7412331-.1371319-8.6127959-.1446421-2.2859503-1.0109855-4.0813129-3.0314839-5.235288-3.4131249-1.9493567-4.9429341-5.0202473-5.2910307-9.020508-1.1285917.8862429-2.1168296,1.7711887-3.2090473,2.5003816-3.9403682,2.6306634-7.8164171,5.3381877-11.4846495,8.349555-2.2165488,1.8196381-3.203425,1.4913857-4.2664696-1.1315321-2.4696899-6.0936549-2.5470539-11.960743,1.6877315-17.4088651,1.4845355-1.9098762,3.4709725-3.1715977,5.9280146-4.3743315-1.7433081-.5132845-3.1432094-.9546011-4.5591143-1.3365837-3.4914306-.9419394-6.476653-2.7137466-8.9724048-5.3321869-1.8726205-1.9646726-3.6285025-4.0662232-6.2847662-5.0873131-1.0864916-.4176642-1.0167647-1.03401-.1309072-1.7325713,6.0038761-4.7345035,12.6870163-6.0786944,20.0458316-4.0456751,1.2047694.3328408,2.3774993.7816537,3.5919577,1.1858277.1664019-.6441664-.6501902-1.4133546.0028296-1.8346239.7304901-.471249,1.3140531.5173558,2.2089971.6134631.1393707-.7177545-.003462-1.4272164-.1164476-2.1378831-.5644943-3.5505984-.1242764-6.9404702,1.7291739-10.0646571,2.157538-3.6367513,4.3571231-7.2486685,6.5579037-10.8595137.2507915-.4114846.4731854-1.0281235,1.0257197-1.0008937.585294.028843.6461697.7062976.8323004,1.1411738,1.5102466,3.528549,3.6019605,6.7482338,5.3580503,10.1457105,1.9916715,3.8532413,3.4554028,7.8418766,3.1467775,12.2718701-.100961,1.4491793-.3543605,2.8877349-.5787993,4.6514965,1.9547898-1.4907394,3.9715538-2.4074801,6.1191536-3.0610124.5745249-.1748307.7715724-2.6896235.2215769-3.477878-4.9828716-7.1414806-1.5441418-15.2274844,2.3576367-20.749025.5587567-.7907241,1.1387284-.8733873,1.5426186.0822743,2.1271602,5.0331698,3.7302574,10.1396127,1.8013726,15.639584-.6409767,1.8276769-1.5778109,3.48092-2.9989088,4.8342621-.3241812.3087222-.6815513.639982-.8565528,1.0349101-.2845021.6420476-.5547315,1.4513696-.1504444,2.0274178.3361827.4790108,1.0112255-.0480548,1.5133255-.1506498,4.6655222-.9532971,9.2222454-.2946411,13.7516696.8512398.8692837.2199174.8611134.7337374.3838936,1.3364245-.3121611.3942358-.6642321.7579898-1.0107916,1.1236734-2.4686974,2.6049154-4.6983142,5.3844491-6.4855065,8.5154815-1.1525856,2.0192706-2.4658909,3.9458104-4.4550514,5.2580033-.8271489.5456426-.2037776.9201104.0749914,1.305158,2.1839738,3.0166942,3.8543076,6.2613493,4.4052171,9.989331.3245135,2.1959384.0373249,4.4167479.2728975,6.6682213,1.4604354-5.001451,4.5452017-9.3792168,5.36755-14.6241153.1626583-1.0373843-.0571829-1.8560583-.4824912-2.7295103-1.18595-2.4355777-1.4155126-3.8001713-.9791905-6.0170986.7669195,1.7563436.0989761,3.6358604,1.2126489,5.0669566.4115988-.1223423-.0199503-.6557341.3364043-.8323235.1917022.4917602.3821303.9829941.6530429,1.6818784,1.0173925-2.1961231.6009838-4.5293227,1.8118417-6.781927.3065573,4.6085239-1.4828876,8.538543-2.2124083,12.6818302,2.2979611-2.9029054,4.4008965-5.9170101,6.0258459-9.2501398.2617175-.536863-.0793212-.8612196-.2881949-1.2357197-.6865273-1.2308129-1.4141001-2.4390535-2.0851362-3.6780459-.3014705-.5566379-.6279135-1.136702-.4684032-2.1249537,1.1335955,1.6779825,1.3410843,3.5853753,2.7289933,4.9533893.4952498-1.2182481.1131841-2.4514613.5680163-3.600705.4349188,1.315064-.2303842,2.8300881.786759,4.0885185,1.0243718-1.1503284,1.7372842-2.4463006,2.0374899-4.0219189-.8135133-.1012887-.523989.8805283-1.1918308.8675527-.3304404-.4009266-.1117993-.8022364.1318604-1.1568647.3019875-.4395302.6344682-1.0823441,1.2549961-.7967619.5381047.247648.3280124.8851489.1860153,1.3666892-.2226662.7550656-.478143,1.5004515-.770003,2.4059292,1.2675793-.631657,2.1647528-1.5948162,3.871516-1.7963227-1.4199347,1.175144-2.9313676,1.5886446-3.8943837,2.8156262.2278546.4098817.7563765.0202734,1.0421249.3890728-.1411571.1119655-.2688723.2939002-.4272932.3264799-1.6239154.3339071-2.6034937,1.3783585-3.3081803,2.8145553-1.7143612,3.4939417-4.0942008,6.5652293-6.5229422,9.8715263.7494156.0222075.9810092-.4091293,1.2681701-.6609455,1.4110074-1.2373122,2.8996465-2.3774439,4.6711352-3.0179544,2.3936322-.8654571,3.9414114-2.5171607,4.8998761-4.8109121.0922368-.2207321.2078581-.4666815.6587483-.4758581.2375759,1.1147437-.0129432,2.1469212-.6148964,3.2502404,1.2826459-.1901235,2.1095086-1.2270324,3.2827831-1.4082562l-.0360694-.0257249ZM26.8521782,85.0382377c-1.1128004-.5439578-1.6611388-1.8284777-2.8648927-2.2624641.4984395.7209073,1.1145222,1.3155025,1.6488002,1.9762449,1.940074,2.3992821,4.0825869,4.6385925,5.7559258,7.2495271-.6144532-.1091498-.8623136-.6554617-1.2061589-1.0598227-1.661965-1.9544205-3.2968296-3.9318932-4.9399106-5.9023589-.7859697-.9425857-1.6765793-1.7242025-2.9023976-2.0576341-6.1881211-1.6831663-11.4818984.1345839-16.2204363,4.1298547-.048094.0405561-.0180162.173829-.0267635.2964575.2014235,0,.3981201.0170422.590847-.0033697.4728115-.0500558.9103799-.456337,1.4195839-.1365595-.2525363.3583026-.5399465.647993-.9005248.9303533-.4089631.3202576.5508402.2786028.5284573.7523699-.466723-.0757207-.8855966-.1436866-1.3044749-.2116525,2.4282567,1.3049688,4.2756185,3.4313535,6.8400378,4.4537496,6.2329517,2.4850288,12.6938595,2.797393,19.2713581,2.1212517,1.3762997-.1414802,1.0148213-.782383.4438831-1.461534-.5379339-.6398874-1.3747764-1.0209375-1.6411885-1.8979854.7073916-.0762377.7634852.8610673,1.6451536.9194226-.591184-.8238716-1.0646879-1.5467176-1.6011493-2.2193508-1.5148764-1.8993886-3.0555794-3.7781899-4.5849223-5.6652908,1.2833336.501463,1.7401969,1.9454747,3.2185977,2.7731868-1.4047019-2.1980249-2.6805761-4.0281459-4.9966965-5.3313791.5277649,1.2013028,1.6542517,1.5628643,1.8268714,2.6069833ZM75.3805234,82.2262397c-.1241333.597171.0124078.7756252.5474013.3489967.9911921-.7904241,1.1771058-2.1330132,2.0616131-2.995493.1800422-.0526223.4424706-.0466308.5278387-.1666096,1.40172-1.9700779,3.2967603-3.3594825,5.2876102-4.669575.8817377-.5802303,1.4863219-1.4403835,1.81042-2.514922.5423884-1.7982984.838412-3.6086814.8595255-5.4917571.0596848-5.3206607-3.214568-9.6069006-4.3890519-14.8404438-1.4384818,2.1703612-3.0936382,3.7795193-4.7969118,5.3430852-5.6694082,5.2043839-7.6361165,11.7783143-7.0605576,19.2603213.1532048,1.9915515.2649303,4.0303523,1.6469031,5.8844581,1.3403919-3.4073134,2.2693512-6.8881041,4.564635-9.7044781-.3551545,1.2599444-1.0278061,2.3766269-1.6173145,3.5277077-1.0078927,1.9680192-1.6222906,4.0887077-2.4314372,6.1333709-.428798,1.0835489-.3313359,1.1849253.6868874,1.263591.1006471.0077733.1703486.4160671.2895981.7315425.2897182-.6140747.5197238-1.1015974.7497387-1.5891201.0686952.185766-.39127.9096644.3641649.3891559.3434575-.2366342.4247082-.773428.8989369-.9098306ZM38.3233352,108.2327048c.6677956.5842646,1.3355867,1.1685293,2.3244615,2.0337232-.6858119-1.8510315-1.2157555-3.2835771-1.7477209-4.7153749-.1118224-.3009719-.3396124-.4716344-.6359868-.582012-1.4025924-.5223826-2.5882055-1.4265448-3.8477898-2.2005083-.6711884-.1410832-.5867203-.9655272-1.0961136-1.2638957-1.5901956,2.2968902,2.2930728,7.6429851,6.2062712,8.4763471-.4305798-.6256886-.8168507-1.186984-1.2031215-1.7482795ZM36.7960186,33.7406109c.0643562.4469758.061185.9175116.43803,1.2554623.670833-.3783129.9772379-.1754954,1.13877.57789.1434558.669102.2858869,1.37257.7859558,1.9796515-.2820371-4.2910821-1.3816312-8.4211583-1.6411515-12.6605528-.0393836-.6432916-.1970706-1.3025662-.4274732-1.9057725-.3964353-1.0378898-.2308135-1.8776196.6711099-2.5287607.4710343-.3400625,1.0004287-.3305928,1.3351851.1622152.6627088.9755923.4050118,1.8997279-.2902952,2.7655381-1.1705095,1.4575366-1.0317343,2.8788492.4299705,4.144762.3475058.3009581.3593135.7043774.4949636,1.0705456,1.0246673,2.7659443.8490611,5.6421046.7751359,8.5104547-.0175038.6791187-.2299226,1.4071346.4589127,2.1176651.3475658-.5271094.7362185-.9857868.9819509-1.5113037,1.2134521-2.5950787,2.5128817-5.1597242,3.5491536-7.8256076,1.572364-4.0450081,2.0077167-8.2719348.5866003-12.4209828-1.9555468-5.7093596-5.3440777-10.7527989-7.9274318-16.6210063-2.676154,5.0343873-6.1966838,9.1610915-7.9941421,14.2176183-1.1689309,3.2883869-1.1164517,6.7230778.3573978,10.0120163-.1826087,2.1569079.7830431,3.9300861,2.0767258,5.4799194,1.9410433,2.3253755,3.6962376,4.768108,5.2929925,7.3349553.3434206.5520589.7581029,1.0597903,1.1399609,1.5879384-2.1263247-4.1906288-4.6813919-8.0840893-7.424187-11.8657089,1.5769292,1.2271293,2.6800868,2.8302312,3.7622047,4.4590257.4029254.6064722.6017731,1.4139062,1.4296606,1.6640376ZM65.6558642,100.5846698c-.167062.422548-.3341332.8450959-.5509556,1.3934943,3.4336707-1.2669053,5.8493119-3.3198495,7.1416329-6.6315195.3843552-.9849605.2758056-1.751243-.3073974-2.6470686-1.1822019,1.5304231-2.1066098,3.0858926-3.4201458,4.3297456.021132-.909609.9370834-1.3618194,1.1653812-2.3087625-1.2327377.2610713-2.0277132.9909705-2.6509645,1.9426682-.383192-.2978054.3725568-.7475415-.1863015-.8879231-.2538704-.0637561-.5803041.1019027-.6960824.4449171-.6319386,1.8722558-1.6028019,3.6258437-2.1186021,5.8155321.6734272-.6019254,1.1484313-1.0265044,1.6234353-1.4510834ZM54.8372332,130.6377725c.7881346-3.1053074,1.390817-6.273217,2.4124285-9.2997202,1.2150677-3.5996341,1.1864486-7.0288457.0029912-10.625941-1.1635717-3.5366627-1.3833022-7.2140393-.4317707-10.879756.1445914-.5570672.2196197-1.4236829.8903049-1.4156788.8016133.0095551.600753.9021865.6730302,1.451665.3369213,2.5612758.1204128,5.1332607.1000563,7.7015159-.0208366,2.6257889.1789897,3.8942452.8575683,5.1385968,1.2769589-5.4655937,3.0268263-10.6473592,5.3991972-15.6052122.5042141-1.0537388-.0701262-1.05168-.8425017-1.0341577-3.0845078.0699508-6.1369806-.2421642-9.1560336-.8650093-1.2421174-.2562614-2.4726303-.568838-3.9804258-.918961,1.0833181,1.7317081,1.9345994,3.2124077,2.5490065,4.8111198.7793734,2.0279625,1.4555332,4.0813037,1.3583758,6.2987619-.0294685.6724301-.090695,1.1320076-1.0489381.8149996-4.4101008-1.4589583-8.9400051-.15747-13.6980456-.8036535,2.1299621,4.4765065,3.8706252,8.6761734,5.1725197,13.4311351,1.0826626-3.3747891,1.8216553-6.3964732,2.2257393-9.4998973.0921629-.7077517-.0210212-1.8818017.8871384-1.7813485.8312479.0919506.5149047,1.256307.5190314,1.9637725.0213443,3.6588388-1.1308351,7.0333694-2.6274876,10.305545-.5435516,1.1883873-.5988327,2.3041835-.3548775,3.6188828,1.4037787,7.564984,3.4587263,15.0206152,3.9322163,22.746485.0127401.2079966-.0448951.5141293.4691049.5351782.9110677-2.9462403,1.8366942-5.917804,2.7486205-8.8935682,1.4656884-4.7828145.8752107-9.5075783-.7591831-14.0784634-.9270113-2.5925722-1.3386563-5.1548358-1.0458454-7.8429314.2007772-1.8431474.4603252-3.6958129,1.4233044-5.5055589.6302307.859027.7851157,1.6502727.9810738,2.4221128.8562851,3.3728227.652489,6.8046562.5245891,10.2262607-.0959573,2.5668704.3011843,5.0719418.8188125,7.5838265ZM62.6548782,58.3521969c.7408576-4.1079564-.0530562-7.9239836-2.0026576-11.490978-2.753975-5.0386328-6.4225813-9.0348868-12.4309603-10.0637039-3.6588665-.6265056-5.2087599.2348109-6.9976047,3.794849,1.881497-.1539757,3.7329163-.3453824,5.3836321.7576136-.7304993-.0736805-1.4414637-.2681569-2.1652513-.378276-2.5460061-.3873879-4.4083698.8178154-5.0773149,3.2563935-.2259159.8235531-.3001272,1.726155-.6929759,2.45899-.927159,1.7295709-.3402864,2.9738394.8966704,4.2537064,5.8564205,6.0595658,13.1566589,8.2478463,21.3525753,8.0807981.6909402-.0140788,1.1860978-.2775458.7806474-1.1479096-.1182525-.2538473-.5043433-.5130214-.1976199-.8869307.5257708.3252244.4970224,1.0980246,1.1508593,1.3654475ZM4.7000853,28.5285183c2.9248314.7544378,5.2984948,1.8888041,7.4926745,3.4270375-2.1353859-.8163106-4.0922574-2.1600214-6.5355254-2.1471659,2.0646412,1.2825951,3.4076596,3.2723233,5.0792766,4.9245624,2.5647839,2.5350477,5.5064175,4.3843574,9.0374349,5.2041762,3.4774626.8073833,6.9572424,1.6104921,10.4544107,2.3254678,2.7262514.5573765,5.3925133.197666,8.0165066-.7362139,1.0637416-.3785852,1.0435836-.7398144.4254883-1.5467314-2.5712048-3.3566667-5.0276883-6.7976168-7.6215669-10.141488-1.9367274-2.4967073-4.238409-4.0621335-7.1782239-4.890014-.6777616-.1908644-1.3475421-.4202192-2.0351403-.5643997-6.2389017-1.3082323-11.8251066.1046122-17.1353352,4.144769ZM31.2095598,43.3411876c-1.655318-.2923077-3.1251793-.3794484-4.473303-.8304771-2.0054087-.6709253-3.6155454-.045366-5.2067611,1.0471102-1.2996881.8923175-2.4555419,1.9344194-3.3762431,3.2125508-3.6514809,5.069043-3.7795055,10.5622588-1.8277115,16.2478322.8429218,2.4554311,1.6391113,2.6624168,3.4739083.8505566,2.9995089-2.962004,6.3949499-5.3950059,9.9757508-7.5480941,5.4555908-3.2803874,8.0485646-8.3378535,9.4223994-14.4017721-1.5535677.5387925-2.9629964,1.3317-4.5044886,1.3519365-2.1075745.027659-3.9110382.627835-5.4491515,2.0573387-.0272528.025328-.1581301-.0608434-.3123042-.1246318.7171129-.5862911,1.4029709-1.147028,2.2779046-1.8623499ZM71.5212397,83.8537094c-.7047882-1.9505338-1.7130595-3.702663-3.3401599-5.0361125-1.6153481-1.3238297-3.4632961-1.7275906-5.3663037-.8703823-5.937662,2.6745799-10.9880656,6.3276765-13.3663173,12.7505254-.1639878.442886-.5481399.8634768-.1982661,1.5662155.9572184-.6148317,1.5815221-1.6333874,2.6830272-1.9923916-.7285883.6395458-1.4571765,1.2790915-2.185774,1.9186373l.287484.3778559c1.3612193-.5097348,2.7224478-1.0194789,4.0836671-1.5292137.0307794.080826.0615589.1616521.0923291.2424781-1.2897637.621608-2.5795274,1.243216-4.2499259,2.0482636,5.3097485,1.1819341,10.1787713,2.4180323,15.2485067,1.8822171,2.4799143-.2620961,4.6746711-1.2703212,6.1056841-3.4519408,1.4367185-2.1902885,1.3864595-4.4888958.1204682-6.709419-1.209667-2.1217041-3.2803274-2.0179827-5.3438146-1.820409-.4582203.0438796-.8918098.4378915-1.4970864.0700892,2.4394413-.8322727,4.7439479-1.5007146,6.9264815.5535868ZM104.8399264,84.3658261c-4.2247041-6.3858103-13.4103077-11.7437959-23.5712059-5.7658455-.9986054.5875051-1.9989556,1.175444-3.0885699,2.2574696.6546678-.1589194.9278237-.2252235,1.2009797-.2915369-2.188876,1.1916923-3.8624133,2.9441077-5.4433261,4.8162435-.5242752.6208787-.5209886.9529347.2418134,1.3369576,2.132487,1.073606,4.3080412,1.9078267,6.7462177,1.9769465,3.3205512.0941478,6.6725557-.2012942,9.9555604.3783821,4.9382073.8719333,8.5274-2.1753327,12.9141993-3.9837216-1.8559706-.7534962-3.4300148-.5204624-5.3468057-.4087831,2.2947668-.7019171,4.2470824-.5971063,6.3911371-.3161124ZM51.9180333,102.9881987c.0689168-.047554.1378243-.0951079.2067411-.1426526.5853725.6871459,1.1707542,1.374301,1.8108631,2.1257015.2415918-.6445587.0806599-1.1235787-.0071271-1.6025526-.7531915-4.1100521-2.7130312-7.5966867-5.3967877-10.7558443-1.4466982-1.7029781-2.952555-3.2893101-4.9596624-4.3176517-3.0632696-1.5694652-5.9464232-.3345117-6.9043893,2.9129221-.2200351.7458982-.2122664,1.1611899.7561411,1.0166816.7906595-.1179848,1.5945992-.0950433,2.3848895.1713087-.2125018.2566584-.4737762.1935209-.7193101.1974075-4.2016472.0665995-6.5446696,3.2766162-5.2013466,7.2643352.8755153,2.5990161,3.0609154,3.7573625,5.5070915,4.4946658,4.0334035,1.2156955,8.1522906.2276146,12.2437495.6452604-.0530378-.4988134-.5376523-.4924156-.4287334-.982514.541059.2749193,1.0467686.5318824,1.8211106.9253311-.469271-.823013-.791255-1.3877058-1.1132297-1.9523987ZM89.5060884,99.6298426c.1153721-3.21839-.7023048-6.0834997-3.1388195-8.3404431-1.2199607-1.1300504-2.528373-1.8358356-4.3216122-1.7149613-2.3417576.1578392-4.6673778-.0918306-6.7222884-1.4647375-.5394249-.3603982-1.1583926-.6043073-1.7487226-.885135-.4532166-.215613-.7328904-.1629722-.8101067.4390547-.506079,3.9461659.1882494,7.6166093,2.5500774,10.8712441,2.8360658,3.9081209,6.1612699,7.4545603,8.6057334,11.6541072.6172598,1.0604227,1.3871335,1.073209,2.1579581.1635354.4202215-.4959238.8473762-1.0138289,1.1343802-1.5900802,1.4308377-2.8727537,2.3565565-5.8831379,2.2934005-9.1325843ZM69.8030011,26.0880176c-4.3574877-1.253722-8.4191365-1.5756829-12.5569861-.9453207-6.1153316.9316181-10.9797661,3.5271122-13.0463275,9.8237461-.0780564.2378067-.2463463.8391874-.1359964.7497572.6988797-.5663684.9847943.3753956,1.6272943.2974453,3.7076945-.4498331,6.9024968.9514761,9.7855257,3.1561803,2.3423023,1.7912082,2.3705245,1.8139374,4.4480627-.3270754.3149215-.3245412.6222912-.6619195.8918652-1.0240949,2.8955475-3.8902524,4.8245523-8.4907259,8.986562-11.730638ZM27.970924,96.5647127c-1.4135923-.1384059-2.5574676-.0921721-3.6077121-.3834967-2.9114634-.8075956-4.6809673.7634482-6.2646543,2.7972361-1.1317121,1.4533637-1.8380929,3.0987343-2.1716537,4.9215066-.5867711,3.2064346-.0394067,6.3225712.696544,9.4206315.4502162,1.8952527,1.127567,2.1513203,2.512554.8142242,3.119557-3.0117136,6.3131592-5.9221707,9.7617857-8.5632201,2.7918908-2.1381093,4.3921169-4.9090435,4.1116584-8.6080137-.0676428-.8921513-.2880564-.9524639-1.0310373-.9094982-1.8689831.1080973-3.5701333.7459444-5.2820803,1.4419899.3512355-.2566584.702471-.5133076,1.2745956-.9313596ZM53.6516247,62.2834993c1.6849296,4.8657362,2.451009,9.6552809,4.2875185,14.1268113.9982546,2.4305324,1.0337977,2.374642,3.3835318,1.318826,2.2460958-1.0092498,4.5117634-1.5250224,6.7097052.1847228.2518486.195912.5593752.5514449.9299933.2864962.3220024-.2301995.2424042-.6441433.1964197-.9837696-.1949426-1.4397927-.803275-2.760779-1.2844092-4.1211305.7479477.7207965.8946071,1.7628291,1.5751613,2.8230857,0-1.0818779-.0952649-1.8920492.0209843-2.6706287.204987-1.3728423-.3147091-2.3261187-1.2327377-3.334076-3.8486853-4.2257012-8.8782431-6.1177226-14.5861672-7.6303372ZM37.8165961,87.9617858c3.0260232-1.7659864,4.6947322-1.3624656,7.8611692.6665032.8153228.5224103,1.2621508,2.0602744,2.4242639,1.4882514.8827993-.4345403,1.2514694-1.6593016,1.6845696-2.6236748,1.4589675-3.2486155,2.3746697-6.7443067,4.5220109-9.6812689.6466359-.8844242-.1268752-1.1441568-.8146765-1.221604-1.5154396-.1706532-3.0339904-.0084288-4.5074336.3059388-6.0372474,1.2880835-10.8660419,3.7938474-11.1699034,11.0658543ZM54.5568763,15.14319c.2644964,1.9807824-.1540911,3.7064066.3101762,5.5399896.9335476-1.3911678,1.0977384-2.8813395,1.8437382-4.2861914.2469925,1.1890543-.6208325,2.0458171-.442766,3.0905386,3.523461-4.154451,3.3504997-10.6240969.6200386-16.5834137-.5908286,3.0418895-1.1511455,5.9266956-1.7114623,8.8114993-.0644023-.0085904-.1288047-.0171807-.1931978-.0257734.3990618-2.9568964.7981143-5.9137927,1.2124089-8.9835789-4.5624009,4.7783289-5.657102,13.5427371-2.1361613,16.6430708.1551158-1.3121882.308016-2.6055409.4972255-4.2061409ZM37.3281364,55.4839392c-.384166-1.4727786.0994608-3.0395572-.4465142-4.6030032-2.254063,2.6347809-.2531364,8.9830169,3.2093427,10.3705843-.9117878-2.3717293-.9214814-4.7699682-.734626-7.1851802.1335084-1.7256057-.5419268-3.0619263-2.1233566-4.3468802.5167696,2.1255122.2186734,3.941176.0951541,5.7644792ZM39.9031771,52.7718866c-.4828605,3.9352214-.4559447,7.6155845,2.7600727,10.6750136.0569383-2.7113002-.3930702-5.206318-.6653722-7.7191674-.1488427-1.3735163-.7260679-2.3272173-2.0947005-2.9558462ZM29.0675962,117.4076639c.7699568,4.016846,5.200308,7.603943,11.0553853,9.4175295-3.8408058-3.2717878-7.4194049-6.320217-11.0553853-9.4175295ZM30.3608911,117.2479506c3.186692,3.4354894,6.9831982,6.1313398,10.6587561,8.9738957-1.9248689-4.9659217-6.2982541-6.9620985-10.6587561-8.9738957ZM77.3614489,116.8070956c-4.5173673,1.4397558-8.3907112,4.033842-12.1873743,6.7653649,4.7845686-.9608281,8.9592723-3.0147694,12.1873743-6.7653649ZM75.8659781,116.3252137c-5.0220891.2417672-9.0035766,2.3170898-11.7596749,6.5515798,3.9644821-2.1052988,7.6535465-4.6958862,11.7596749-6.5515798ZM34.9672224,93.041898c-.695607-4.1558704-2.1758496-8.0881422-3.1866043-12.1504556.212271,4.2788405,1.3133884,8.3218776,3.1866043,12.1504556ZM40.1584876,38.227328c-.1078204-2.6981354.2699202-5.4094632-.3978478-8.1266211-1.0940364.9768133-.9081919,4.9568744.3978478,8.1266211ZM52.1100679,113.9071906c-.7872298,2.7886227-.9255711,5.5550978.3223902,8.2514652.166822-2.7589603.1604057-5.5098518-.3223902-8.2514652ZM80.375729,78.149792c.0942493.1030105.1885079.206021.2827572.3090315,1.059398-.6478361,2.1254615-1.2851385,3.1738365-1.9503399.2895797-.1837257.6263256-.4276532.259188-.837221-.2945834-.328631-.6120068-.2862562-.9209736-.0114477-.9322828.8292261-1.8633008,1.659874-2.7948081,2.4899772ZM53.2777109,122.4614372c.3834597-2.6212468.3768958-5.2450969-.3657343-7.8336994.1219084,2.6112301.243826,5.2224601.3657343,7.8336994ZM3.5297143,76.4484387c-.7056352-.6914388-1.4823614-.8261334-2.3647476-.7159774.5025823,1.2040355,1.2375107,1.4833584,2.3647476.7159774ZM7.5778797,69.7835548c.2719927-.9300117-.1090067-1.7048984-.5804749-2.4531046-.0137741-.0218613-.1727074.0477386-.2697678.0764224-.2374651.4686433.6391257.647116.3221778,1.1210676-.9815216-.0133033-1.0225485-.8348023-1.2175973-1.6131971-.6226605,1.2456718-.3386708,1.885079,1.1950666,2.9173812.0222029-.3382692-.6346067-.4798324-.1764417-.891302.2794707.2510731.716042.3356011.7462029.8361132,0,0-.0249079.0105706-.0191656.0066193ZM82.4657581,47.5279529c.0097674.6661985.4410858.981757,1.026329,1.0607228.5342827.072088.8717487-.2634901.8623136-.775316-.0128879-.6994013-.620334-.7954232-1.0482181-.9239094-.5990635-.0885994-.8476993.1426019-.8404245.6385026ZM86.403569,43.5128656c-.0158698-.4937635-.5065313-.5780238-.9191272-.5280511-.5305806.0642685-1.2216501.0725034-1.23848.7908949-.012694.5416129.5325378.6424492,1.0549112.6627181.4972255-.1182063,1.1256652-.2109693,1.102696-.9255619ZM83.1554335,42.9719775c.2294425-.1803468.4885567-.3337178.6839978-.5457765.2814555-.3053941.4532351-.6768753.2409456-1.0948488-.1627137-.3203822-.4644889-.3348349-.7771393-.2729944-.4908646.097102-.8256903.4174565-.9559167.8639892-.2029006.6957732.6644814.632571.8454098,1.0761033,0,0-.0360694-.0257249-.0372972-.0264727ZM8.3822165,65.4138624c-.5038125-.021529-.8303617.3084499-.8865521.8090081-.0578522.5153202.2254589.900017.7181977.9588801.8802144.1051615.069863-.9111415.644628-1.0299295.1420941-.4614423-.0977575-.7217797-.4762735-.7379587ZM37.2340533,34.9960732c.1377458-.2756348.2443891-.5638481.1044184-.8636614-1.4940352-3.2001707-3.1471145-6.2994635-5.8129748-8.7111165-.2466602-.2231348-.5285127-.8657686-1.059735-.2967783,2.7663043,2.3899186,4.6848955,5.4026339,6.3302568,8.616094.0643562.4469758.061185.9175116.4380346,1.2554623ZM27.5423614,27.9244603c-.8411585-.0048052-1.1428274.7464198-1.1387746,1.4718138.0044498.7970942.4770859,1.3253069,1.3256392,1.2570779.7815106-.0628375,1.2662129-.5163357,1.2949475-1.6157867-.1511968-.5720184-.7037404-1.1086737-1.4818121-1.1131051ZM36.5077453,26.2674736c.1951595-.6500887-.2904106-1.6849527-.772731-1.586789-1.5625089.3179888-1.3123221-.9338799-1.7014687-1.6296993-.3177049-.5680787-.542176-1.1935018-.8990338-1.7333075-.6002498-.9079634-1.2228549-.4921433-1.6593939.148538-.4643873.681549.3640772,2.1736478,1.1855715,1.973503,1.3089755-.3189212,1.3480268.5910594,1.5209372,1.2659729.4914278,1.9180788,1.3958392,3.643066,2.3526329,5.3984772-.4238497-1.2959861-.4143961-2.5446074-.0265143-3.8366953ZM94.2550677,85.4232023c-4.8249493.2680415-9.6537484.3681346-14.4863233.3028276,4.8428132.5123013,9.6707998.376942,14.4863233-.3028276ZM85.1555801,79.8926339c1.3604715.4559031,1.9643172-.2756394,1.221724-1.3371515-.9028328-1.2905484-1.6539194.196272-2.447667.5736386.4068259.2598988.7818661.6147117,1.225943.7635129ZM83.5639766,72.285949c.4739332-.4337002.7263726-.9772426.4325185-1.6286053-.1797468-.3984155-.5364337-.6467467-.9446536-.6639182-.7523606-.0316472-.9996947.5704351-1.2076083,1.1471295-.8922806,2.4749106-3.1918019,3.7998204-4.6697042,5.8260104,1.0752308-2.1482829,1.5162612-4.4820549,2.3688997-6.6661764.2646995-.6780247.0144204-1.1678738-.4473451-1.6155605-.4080168-.3955629-.9181209-.4325185-1.4099088-.2602774-.5102703.1787035-.9937032.6623026-.7825585,1.1316475.4264162.9478202-.0582815,1.7520646-.1392737,2.6166031.1022996-.1053.2035745-.2116248.3070835-.3157339.3448885-.3468918.262013-1.2998635.9927431-1.0275661.8558512.3189189.4569556,1.1120203.2313166,1.6951956-.6870074,1.7756708-1.4360814,3.5272092-2.1361521,5.2979593-.6047043,1.5295368-1.56508,2.9181936-1.8205475,4.5859978,2.0838621-3.6306905,4.8053775-6.7488858,7.5897627-9.8165452.1069525.0781026.2139143.1562052.3208669.2342986-.571266.8388459-1.142532,1.6776917-1.7138073,2.5165284,1.3333571-.6968487,1.9682962-2.0868902,3.0283681-3.0569872ZM23.813535,87.0344052c.6203571.0684921.8902311-.5599661.9245233-1.1289148.0465338-.7720986-.4223172-1.2287495-1.1442953-1.2977217-.6274473-.0599433-1.0083451.3217347-1.0658188.9970821.1229423.7412361.5553501,1.3489315,1.2855909,1.4295544ZM50.256156,30.0620156c-1.8132727.7529469-3.1693866,2.025456-4.2040152,3.6675861,1.3401796-1.2843722,2.724645-2.5269051,4.2040152-3.6675861Z"/>
  </g>
</svg>