<?xml version="1.0" encoding="UTF-8"?>
<svg id="Layer_2" xmlns="http://www.w3.org/2000/svg" viewBox="0 0 121.322663 147.3681033">
  <g id="Layer_1-2" data-name="Layer_1">
    <path d="M121.2918692,67.5134062c-.2329467-2.4403937-1.4730139-4.3915511-3.1089458-6.1200829-2.3397877-2.472032-5.2525375-4.0973535-8.2955058-5.5177976-.6835031-.3190839-1.3743371-.4807479-1.0319103-1.5931044.3200485-1.0402057-.0680031-2.0180995-1.1576919-2.5106153-1.2214508-.5523199-1.6040042.3553522-2.1502473,1.1837356-.8877053,1.3461713-2.3774064,1.4308617-3.4551345.2608231-.532546-.5781707-1.006156-.6429907-1.6360283-.1921448-.3415587.2446181-.6541798.7543035-1.4147531.3104026,1.2100687-1.0872774,2.3181811-2.0941086,3.4416303-3.0837702.2609196-.2299565.4648323-.4815196.9622675-.3310447,1.8465002.5592649,2.9099524-.4896221,2.4479174-2.3535813-.1198011-.4834487-.3075089-.949535-.4537396-1.4268104-.2044915-.6674911-.0544025-1.7846705-1.1480461-1.547962-.9003413.1948457-1.2565616,1.3286159-.9603383,2.0194499.6177186,1.4408933-.3118495,2.0534032-1.092679,2.8111792-1.2675578,1.2300356-2.554118,2.4403937-3.8314181,3.6603976-1.1643475,1.1121636-2.3271517,2.2258705-3.4907275,3.3386129.4835452-1.0157054,1.2461441-1.8315492,1.6590819-2.7969034,1.0080852-2.3566679,3.7118099-3.7203946,3.6453501-6.7592153-.03241-1.4814058-.3579566-2.0302532-1.8756306-1.7538039.7067496-1.8083992,1.5694722-3.2303867,3.4131751-3.8598733.776296-.2650673,1.3263974-.868703,1.6078625-1.7393351.1929165-.5968836.3526514-1.0197566-.2958374-1.2933122-.718421.3893055.0259473,1.9926345-1.5605015,1.6324594-.6344059-.1439157-1.2709339-.9302433-2.0370053-.1327265-.6122205.6370103.0071379,1.330738-.0763949,2.0753957-1.3049836-.6692273-.316576-1.8546992-.8298303-2.5592302-.7982885,1.3496438.7658785,2.9743865-.5650524,4.5381677-.1444945-1.0946082-.2352617-1.9675553-.3780199-2.8318213-.6107736-3.6995597-1.8492975-7.2017657-3.6079243-10.4917637-.9335229-1.7462801-2.1258433-1.751296-3.1347966-.1659082-.6401934,1.0060595-1.1331915,2.1066481-1.679531,3.1711614-1.9661085,3.8309358-4.1473188,7.5534525-5.404845,11.0608673-1.3818609-1.1449594-2.8123367-2.2904976-4.1980559-3.4877373-2.1524658-1.859715-2.2015631-2.4311337-.3965399-4.673595.5110358-.6346953,1.1117778-1.2064998,1.7209116-1.7518747,5.6865031-5.0906805,11.8225981-9.354328,19.61546-10.569509-.9593737.0939503-1.8267263-.2054561-3.2524757-.6742432.9312079-.8353284,1.6404654-1.471567,2.3496265-2.1076127-4.3133235,3.7111346-9.835944,5.3127274-14.3938856,8.5969378,3.9185199-5.6103976,7.6521293-11.3461908,12.7519733-15.8571573,1.6717179-1.4787049,1.264857-1.8288484-.0502547-2.7257172-.0851726-.0580679-.1415043-.1585774-.2080604-.235744-.2999852.4915512.1280001,1.1918381-.5193312,1.5441036-.00463.4832558.1705382,1.000465-.3238103,1.3789671-.3368322.2577364-.6406757.7477443-1.0830332.5409379-.2547462-.1188366-.4212332-.6057578-.4705233-.949535-.1152676-.8034972-.1121809-1.6183765.1922413-2.3979521-.7663608.773981-.5254081,1.7514889-.5319672,2.6747872-.0042442.6159824.3700138,1.270741-.048422,1.8410021-1.4948135,2.037584-3.0222298,4.0508606-4.5372995,6.0733971.0004823-1.508607-.292172-2.9693707,1.0266051-3.9605757.7726306-.5806787-.3691457-.6582311-.4000124-1.0579541-.6847571.5581074-1.8352146.8173872-1.5236545,2.0588049.560133,2.2320439-.2608231,4.0803768-1.5390878,5.7961761-1.8055055,2.423417-3.6350291,4.8292787-5.4852912,7.2187424-1.0642239,1.3743371-2.2648397,2.624436-3.764669,3.7992975,1.6729719-7.6883011,3.7966931-14.9483276,10.196505-20.1385531-.9136525-.0354966-1.595323.2974772-2.2235555.2166452-.9939058-.1279036-1.456616.4064751-1.4488993,1.1326128.0294198,2.7806984-2.276897,4.2337454-3.3595443,6.3866935.4381134-2.8192817-.1782548-5.7442816,1.1098486-8.3995843-.850183-1.5128512-.4485309-3.0094973.8599253-3.2016422-.7924045-.4770825-1.5369657-1.3180055-1.6836787.6078799-.0551741.7247873.3379897,1.8498763-.5755664,2.398145-.7573902.4545113-.8754551.4466017-.4386921.9811733.8753586,1.0714582.5316779,2.1980906.02315,3.1545706-.1390928.2615948-.7489018.2756777-.334903.8376434.6715423.9117234.4408142,1.910645.2910145,2.9076374-.7883533,5.246557-2.4390433,10.2743468-3.8490699,15.3650273-.2609196.9418183-.556757,1.0621982-1.39768.6356599-2.7470345-1.3938217-5.6663433-1.5170953-8.6640728-1.0921003-1.2435397.1763257-2.5107117.1898298-3.7679486.2621735-.6509967.0374258-1.0921003-.0544025-.8596359-.9412396.6339236-2.418787,1.6294692-4.6170705,3.4287049-6.4117727.5585897-.5571428,1.0805253-.6516719,1.8524807-.4398496,1.4605708.4004946,2.9658982.5841512,4.4695858.1153641,2.3285986-.7259448,3.1046052-2.645271,1.7856351-4.6882567-1.4840101-2.298793-3.3692866-4.0666797-6.4700335-4.0234665.1541403-.3723288.2390235-.6686486.389209-.9269638,2.7407647-4.7150721,4.307536-9.7721851,4.4280123-15.2440686.0188094-.8530767.5942793-2.0167491-.1455555-2.4890086-.8211491-.5237683-1.7764716.3541947-2.55161.8295409-2.1089631,1.2929264-4.5989364,2.0493519-6.1076398,4.2136821,2.6338889-1.4437871,5.0220987-3.3492233,8.0059381-4.3554757-.2341042,6.6648791-1.9368816,12.7726154-5.2878412,18.4028834-.1798946.3021072-.4939627.5999703-.8145899.7311535-3.2067545,1.3133755-6.2676641,2.8783141-9.1237928,5.4197961-.4820019-5.302117.0252721-10.1113323,1.6516546-14.8015182.0803497-.2316927.2300529-.6547586.2967056-.6449198,2.3250296.3430055,1.606898-1.9999653,2.5466907-2.8607587-1.1150573.203334-1.0374085-.8926246-1.4895083-1.3972942-.4246092-.47361-.8010858-1.1328057-1.5007939-.9155817-.8353284.2592798-.8879946,1.1439948-.6239884,1.7507172.8951325,2.0578403.2095073,3.9310594-.486246,5.815082-.6366244,1.723516-.8737188,3.4960327-.9996933,5.3248811-.1251063,1.8153442-.2981524,3.634161-.3853507,5.4579935-1.1177582-3.7516471-1.5371586-5.4576077.3842897-10.7230705.2933295-.803883.5874307-1.88055-.4472769-2.5854669-.7087752-.48287-.8490255-.8804709-.3879551-1.8141867.8032078-1.6262861-.6339236-4.5514789-1.7560224-4.0427581-2.0054634.9090225-2.826709-.5764345-3.9833398-1.3909279-2.851981-2.0086466-5.8373638-3.7460525-9.2028885-4.7233675-1.2168208-.353423-2.62106-.7427285-2.7913088,1.286753-.3631653,4.3298178-1.0534205,8.658864-.2687327,13.0060444.2832014,1.5693757.7205431,3.1109714,1.1223882,4.8126878-1.1623219-.2249406-2.130184-.4913583-3.1148298-.5889741-4.130728-.4097546-7.9411182.5527058-10.4772949,3.9285515-1.7372131,2.3122971-2.2414968,5.4209536-3.9975192,7.8304806-.2166452.2974772-.2535887.753146.2013084.9672833.4025203.1892511.5525128-.189444.7042417-.4356054.7690616-1.247591,2.0385486-1.5807578,3.337166-1.90833,2.3174094-.5847299,4.4749875.1072616,6.6780939.6781015,1.1983008.3105956,1.3830184.810828,1.1967575,1.9968787-.4514246,2.87407-.5659205,5.7853728.3703032,8.6102491.7155273,2.1591214,1.3026686,2.2899188,2.8667391.6817669,2.0840769-2.1429164,4.3920334-3.9432132,7.1227664-5.2255291,1.1744756-.5515483,2.0928546-.4491096,3.1463716.2089286,2.0876459,1.3037297,3.6070562,3.1053768,4.9310421,5.1385238,1.4431119,2.2164176,2.7218588,4.6218934,4.5428941,6.484888,1.5661926,1.6021715,1.3298699,3.2392609,1.2811585,5.022581-.0124431.4548971-.1416972.8854867-.668938,1.0205283-3.6269266.9290858-6.8727466,2.6607043-10.017382,4.9838048-.6063365-4.6016372-1.3311238-8.9355063-2.3793356-13.207835-.4503636-1.8356005-.9063217-3.675638-1.7789795-5.3655865-.8920459-1.7275672-1.8375296-1.8606796-3.2261426-.4911654-.3559309.3509151-.6579417.7637564-.9452908,1.175826-2.8758062,4.1230114-5.7397481,8.2541252-8.00507,13.113113-.6362386-1.5033983-1.1904877-2.7544617-1.6985333-4.0240452-1.6451919-4.1118222-.9790512-8.2244161.1725638-12.2781704.4820983-1.6972793-.0389691-3.5703056-1.6269613-3.8054708-.9383458-.1388999-1.7103012-.6128957-2.6016719-.7726306-.1129526-.2106648-.2258088-.4209438-.3387614-.6316086l-.1345593-.1284824c.0419593-.0011575.0840151-.002315.1260709-.0030867-.6335378-.4313613-1.2163385-.596112-1.5961911.3040364.1425653.5376583-1.0885313,1.1756331-.3718465,1.2987139,2.1390581.3680847,2.3567644,1.9584883,2.8636525,3.5145527.1606994.4934804.6969108.8762267,1.3212851.9246488,1.6176048,2.494989.219539,5.1672684.5223214,7.7789719-3.1919964-5.5257072-7.2736271-10.4456566-9.7753683-16.3087748-.5316779-1.2462406-1.3699-2.2563513-.4111051-3.8888107.7232439-1.2311931-.3381826-2.5515136-1.7217797-3.0619706-.807452-.2978631-1.8316457-.4568263-1.8860481.9711416.5654383-.903235,1.2957236-.7980955,2.0739488-.3285368.8853903.5341858,1.4191902,1.3523446,1.0993347,2.337955-.3875692,1.1945389-.4351232-.1061041-.6038286-.1188366-1.7896863-.1344628-1.791519-.1111199-2.5726379-1.016477-.0991591,1.647314,1.6472175,1.9345666,2.2441011,3.0374702,1.3763627,2.5430253,2.6203848,5.1574296,3.9755267,7.7124157.8656163,1.6320736-.8638801.1585774-.840923.806391,5.2983551,5.0138997,8.498261,11.3355804,10.8352515,18.2008998-3.2756257-2.6537593-7.5248044-4.2229421-9.1753015-8.5726304-.4608775.314261-.4320365.9319796-.6923773,1.3569746-1.8849871-.5164375-2.9136178-2.4967253-4.9015259-2.7722101,2.201756,1.9779728,4.8168355,3.428512,7.0673994,5.3754253-.6999975.0341462-1.3101924-.0929858-1.9263677-.1765186-.7292244-.0991591-1.3196453.2342006-1.4043356.9329442-.0847868.7002869.4626138,1.1466957,1.1393648,1.2628314.4236446.0725366.9358379.1238524,1.3010289-.046107,1.3241788-.6159824,2.4692347-.115557,3.5595987.5094925,1.4675158.8411159,2.8784106,1.7817768,4.306475,2.6911851.6699025.4263455,1.3788707,1.0114612.7126335,1.7929659-.5347645.6269786-.9649683,1.9978432-2.3118148,1.0380837-.2411456-.1718886-.569393-.3929709-.8288657-.1089978-.1284824.1404432-.1754576.5625445-.0670385.6806094.9122057.991205.9554189,2.3474079,1.4859393,3.4925603-.0914424-.2947764-.0525697-.6026711.0682924-.8943609.1600242-.3862188.2584116-.9946775.7564256-.9653541.6270751.0366541.6225415.6539869.6289078,1.1470815.0152404,1.1825781-.0596112,2.3717154.2100861,3.6067668-.4567298-.5829937-.9133632-1.1656015-1.370093-1.7485951.2049738.6848536.7754279,1.7925801.5539597,1.9839533-1.203606,1.0400128-.2439429,1.5838444.311946,2.2586663.4556688.5530916,1.119398.9580233,1.3129897,1.8516125-.6569771-.3792738-1.2177854-.7029877-1.7785936-1.0268945,1.5387984,1.7725168,3.5672189,3.098046,4.6359763,5.3486099-2.7356524-2.7754896-6.3439625-4.3359912-9.2615352-6.8606894,1.3085526.2685398,2.6172016.5370795,3.9257542.8054264-.1444945-.3213989-.5374654-.5814503-.2812723-1.0052879.5926395-.9804016-.1999579-1.3575534-.8044618-1.7468589-.9121092-.5876236-1.9463345-.6096161-2.8561287-.0941433-.7898001.4475663-.2331396,1.2381381-.1862609,1.8849871-1.3667169-.9931341-3.556705-1.4009596-2.4226454-4.0307973.3307553-.7672289-.2885066-1.7947022-1.2690047-2.0505094-.9434581-.2465473-1.4816952.5056341-1.9539547,1.1916452-.5944722.8636872-.3934532,1.7842847-.0129254,2.7951671-2.4983651.2411456-4.863232.5455679-7.1097446,1.4424366-4.5941134,1.8340571-8.1077981,4.800727-10.0020451,9.4642904-.2485729.612124-.5999703,1.4063613.0350143,1.9499999.5931218.5077562,1.2218366-.0345321,1.7098189-.3638405,1.3566853-.9159675,2.6432454-.8272259,4.0907943-.1510536,2.5420607,1.187401,5.0863399,2.4201374,8.3514516,2.6277156-1.0251583.9962208-1.8230609,1.6806885-2.5150524,2.4594924-2.9739043,3.3467154-3.4772234,9.312658-1.1238351,12.8999403,1.2672685,1.9316729,1.8598115,1.952122,3.2068509.1834636,3.3578081-4.4085278,8.0065169-6.8124602,13.1707951-8.3824147.45972-.1396715,1.0433889-.1769044,1.4856499-.0221854,4.8526216,1.6970864,9.6467894,3.5056786,12.3922805,8.3382368.9907227,1.7439651,2.3538706,3.1140581,4.1081568,4.0794122,1.9421868,1.0683716,3.302634,2.6672635,4.426469,4.5474277,3.78425,6.3311336,6.2574395,13.1842992,8.1687597,20.2651063.6020924,2.2306934,1.1767906,4.4706469,1.4696379,7.1518004-1.5978309-3.0289819-3.0038063-5.699525-4.4146046-8.3675601-4.4057305-8.3316777-11.2089307-13.7981595-20.0719969-16.8130585-4.6501557-1.5819153-9.2912443-3.190453-13.9375417-4.7835574-.3348066-.1149782-.6855288-.351108-1.0056737.0420558.0323135.1257816.0328923.2681539.1001237.3632618.2173204.3080876.4405248.6157895.6943065.8937821,6.6293825,7.2625344,13.6401609,14.0308168,22.9826245,17.7953893.8143005.327958,1.5992778.7562327,2.3449965,1.2227048,3.6278912,2.2688909,7.4110801,4.3296249,9.8090322,8.1188908,2.9152576,4.606653,5.550497,9.2991539,6.2077635,14.855149.1221161,1.0321033.1866467,2.2509497,1.7182108,3.1156014-.548751-3.1053768-.9898545-5.8827956-1.5359047-8.6395724-1.5809507-7.9815342-.4577908-15.3843189,4.4081419-22.0962697,2.752629-3.7971754,6.5650448-6.2979519,10.5008307-8.5195783,9.4678594-5.3445586,17.3103972-12.5833643,24.6799039-20.4244553.4167961-.4433221.9643896-.8310843,1.0041304-1.5321428-.4607811-.2901464-.8549095-.05556-1.2581049.1192224-4.3983032,1.9071725-8.9352169,3.4458745-13.4953771,4.8939057-14.2044416,4.5101948-22.721705,13.9359019-25.1212968,28.7405067-.1005095.6202265-.2734591,1.2292639-.4292392,1.8394588-.1528863.5988128-.1141101,1.2855955-.7488054,1.8051197-.2032375-6.0878659.5205852-11.9540707,1.9014814-17.7436877,1.8852765-7.9043676,6.5210599-14.409319,10.8245446-21.0763202.2565789-.397408.7256554-.7130194,1.1638652-.9285071,2.120924-1.0427137,3.891608-2.5517065,5.6492702-4.0919518,2.7916946-2.4461812,5.9552358-4.2258359,9.5590124-5.1713196,2.9196947-.7662643,5.6358625-.6551444,8.2518102,1.2379452,3.1525449,2.2812376,6.1240377,4.6695438,7.9632071,8.1837107.6137638,1.1725465,1.1727394,1.2786505,2.0763603.2500198,2.2427507-2.5534427,3.129202-8.4265926,1.729207-11.4592399-.4139988-.8966759-1.7189824-1.7952809-1.2636031-2.5194894.4462159-.7099327,1.8561461-.8399584,2.8627844-1.1629006.898605-.2884102,1.8131257-.5534774,2.7400895-.7205431,1.5028195-.2708548,2.9820067-.3150326,4.4224178.438885,1.4016348.7334685,1.8376261.3800455,1.6793381-1.277493ZM25.3403162,36.7995566c-.5910961-.7460081-.0577785-1.492402-.0007717-2.238603.5710328-.214909,1.1384967-.5274337,1.7140631-.0015433.5241541.4788187,1.1451523,1.3045013.7967451,1.7161852-.5518376.6516719-1.5957088.6717352-2.5100365.5239612ZM40.9255576,117.8840964c-6.7430103-3.2832459-12.2589752-8.0957408-17.2422013-13.5961759-.1449767-.1601207-.2607266-.3468639-.2650673-.6605461,9.4263823,6.8680202,19.874161,12.2716113,28.39345,20.3455525-3.449347-2.3912-7.1551764-4.2721358-10.8861814-6.0888305ZM57.2176451,129.4916891c-4.0592525-6.9556043-10.5437547-11.204976-17.0234339-15.4753755-5.3026957-3.4946823-10.5594774-7.0588146-15.7648467-10.7006922,11.4640628,3.0303323,22.4671516,6.8234565,28.9393072,17.8621384,1.5356153,2.6190344,2.8339433,5.3773544,4.2414621,8.0716262-.1307974.0806391-.2615948.1614711-.3924886.2423031ZM99.7633528,88.6030376c-5.6156063,5.814889-11.3200506,11.5217448-18.3777077,15.6879695-5.0209412,2.9637761-10.108535,5.8499998-14.335239,9.966452,1.6459635-2.9450632,4.0563587-5.1616738,6.6127917-7.1884545,8.2403317-6.5327313,17.0776435-12.2501975,25.5005706-18.5356099.1474847-.1101553.3108849-.2328502.5995845.0696429ZM65.5823115,112.682296c3.2160145-8.6876086,8.8485974-15.1933316,17.4985873-18.7651805,4.6870992-1.9357241,9.5094329-3.5436831,14.4294787-4.9830331-4.3593341,3.1414522-8.6995694,6.3102986-13.0829216,9.4181834-5.3926913,3.823605-10.9774309,7.3894735-15.5647923,12.2461463-1.6194375,1.7144489-2.7730782,3.712678-4.042951,5.724797-.0906708-1.2859814.3317199-2.4770478.7625989-3.640913ZM105.2689002,54.3673045c.0882593.1904086.1765186.3808172.2647779.5714187-2.5527675,1.1802631-5.1055351,2.3603333-7.6583026,3.5404035-.0996414-.1670657-.1993792-.3341314-.2990206-.5011971,2.5704194-1.189909,4.8472199-3.026474,7.6925453-3.6106251ZM98.3139712,54.3927695c.639904,1.554907.0070415,2.3420063-1.0392412,3.1939255-1.9203873,1.5632024-3.682583,3.3208646-5.5106597,4.9973089,1.5376409-3.2502571,3.6574074-5.9827264,6.5499009-8.1912344ZM97.3315439,50.6698669c-2.1622081,3.5284427-4.3537395,7.0387513-6.5365897,10.5544615.5007148-2.9053224,2.0085501-5.3453303,3.5834239-7.753314.72199-1.1036753,1.4061683-2.2330084,2.1563241-3.3170062.2419173-.3495647.3071231-1.2140235.9805946-.796938.5368866.3323951.0528591.9267708-.183753,1.3127968ZM90.5257393,58.1150933c.6971038-3.2479421,2.3839656-5.8932131,4.9305598-8.0058417-1.6830035,2.642956-3.4833003,5.2135683-4.9305598,8.0058417ZM83.3917837,49.7477261c.1446874-2.3948654.91481-4.7112138,1.9669766-6.8716856,2.0580332-4.2260288,4.2162865-8.4034426,6.3330627-12.6009197.1601207.0389691.3202414.0777453.4803621.1165216v7.0154084c.143337.002315.2866739.0044371.4301073.0067521v-6.9116193c.7851701-.0449495.9211763.4801692,1.0740626.8229818,1.9075583,4.2773446,3.513974,8.6415015,3.5838098,13.4117478.0264296,1.8037692-.5029333,3.3362979-2.0971952,4.3730311-1.7928695,1.1659873-2.7311188,3.1028689-4.1269662,4.6276809l-.0074273-.0200633c-.9417219,2.640641-1.8834438,5.2816678-2.7916946,7.8285514-5.7678174-2.2766076-5.1252126-7.1587454-4.8450978-11.7983871ZM67.9233532,38.2182646c6.4208398-.8210526,10.970293,2.2729422,14.6874081,7.0808071.3940319.5096854.7287421,1.0205283.533607,1.7177285-.8801815,3.1447318-.9127844,6.3261178-.2587975,9.7918626-1.1002992-.6148249-1.4765829-1.4424366-1.9861718-2.1311485-.884908-1.1962752-1.9801914-1.9959141-3.5037494-1.7929659-1.0730016.143144-1.2749851-.3796597-1.419576-1.2362089-.2716264-1.6096952-.579907-3.2164967-.9585056-4.8040066-.8910813-3.7360209-3.266848-5.8121882-7.0958546-6.2528095-1.6701746-.1921448-3.3465225-.4271171-4.8763503-1.6976652,1.6758656-.8206668,3.3205752-.4765037,4.8779901-.6755936ZM68.6689754,41.6741707c3.0223263.5214533,4.8703699,2.2366739,5.5599499,5.1728629.4598165,1.9581024.7692545,3.9511228,1.1753438,5.9225364.0706074.3424268.0939503.6373961-.1969677.8395726-1.2402602.8619509-1.3388405,2.1857439-1.5057133,3.5133952-.181245,1.4420508-1.5439107,1.9793233-2.5317396,2.1340423-1.0024906.157034-2.6193237-.0119608-3.051939-1.2331222-.384772-1.0861199-1.1462134-1.4497675-1.9327339-1.8599079-1.8958869-.9885041-3.7992975-1.9866541-5.8841461-2.5401315-.5831866-.1549119-1.0649955-.2859022-1.0247724-1.0633557.0813143-1.5714978-.2143302-3.2818954.5797141-4.6496734,1.490087-2.5665611,2.3943831-5.2411554,2.3084388-8.723684,2.1176444,1.8791996,4.3498812,2.1159081,6.5045655,2.4874653ZM61.8829448,71.2621596c1.654259,5.3491886-1.0112683,9.6024186-2.6817322,14.2044416-.6026711-5.7550849-.7145627-11.5225165-.4171819-17.2976647.0193881-.3756084.0987732-.7481302.1510536-1.1221953.5131579-3.6712009,1.7484022-4.4955331,5.3763898-3.4250395-1.7695266,2.2781509-3.2376211,5.0241243-2.4285293,7.6404578ZM60.6053553,61.6279097c.1748788.1743965.3614291.3368322.5426741.5046696-.9752893-.1196082-1.0135833,1.1972398-1.9267535,1.2354372-.3466709-.432133-.1415043-.9410467-.0794816-1.3905421.103982-.7537248-.1659082-1.9496141.923009-1.9745003,1.0409774-.0237287.0695464,1.1555698.540552,1.6249357ZM69.4710258,64.0034835c-.4642535-.0790958-.9242629.4286605-1.3544667.0717649-.5149906-.4271171-.6967179-1.0456074-.502451-1.6882123.3057726-1.0114612.9140384.0719579,1.3453032-.1579986-.615693-1.1040611-2.1726256-1.298328-2.5435075-2.6543381-.1308938-.4786258-.4484344-.9211763.1718886-1.3016076.495506-.3038435.8336886-.0540166,1.1488177.2700831.6294865.6478136,1.3658488,1.1779481,2.2604026,1.2333152,1.0388553.0644341,2.1193806.2785714,1.7297858,1.4837208-.3208201.9923625-1.2609987,1.9127671-2.6218316,1.0699149.2381554.5334141.4487238,1.0726157.3660591,1.6733577ZM66.5990779,63.3248033c.5953403.5999703,1.754672,1.3160763.576338,2.6286802-.903235,1.0060595-1.4777404,2.3300454-2.0935298,3.5650969-.6059507,1.2149881-1.0797536,2.4959536-1.6685348,3.8822516-1.5509522-2.9236495-.2074817-7.8486147,1.3386476-9.409695.4822912-.4869212,1.2049564-1.3137613,1.847079-.6663336ZM65.3253467,62.1451189c.3449347.7448506-1.0021047,1.1167936-1.6283117.635274-.7426321-.570647-1.84351-.226484-2.3758631-1.1131282-.0436956.0451425-.1111199.0837258-.1262638.1369707-.0297091.1049466-.0303843.2183815-.0430204.328151h-.0004823c-.5239612-2.2986001,1.3707682-4.2756083,3.6205603-3.5220765,1.892125.6335378-.016205,2.3053521.553381,3.534809ZM67.7140388,67.5257529c-.2562896.3310447-.6404828.3387614-1.1310694.4240305.6722175-1.5907894,1.8433171-2.7073901,2.9057083-3.9015432.4879823-.3786951.9640037-.7747527,1.4696379-1.1281757.326897-.2284131.6926667-.6765582,1.0565072-.0152404.2717229.4940591.1094801.8351355-.3713643,1.0429066-1.1248961.4855708-2.0108651,1.2263702-2.5639567,2.3360259.3218812-.5409379.8544272-.690834,1.6076696-.8144934.2466437,6.293129-3.9954936,9.9610504-7.9904084,14.4050748.6809952-4.9317173,2.3539671-8.8429064,5.0172758-12.3485849ZM71.4455261,64.7037704c3.0105584,5.6516817.2637169,11.8745891-5.8610925,12.9157594,3.8980707-3.5930697,6.3990402-7.5835475,5.8610925-12.9157594ZM68.3024341,22.1240129c1.7995251-.6165611,5.6877571,2.8702116,5.7047337,4.8489561.0109962,1.273056-1.1495894,1.8120647-2.6991912,1.205921-.1180649.3628759.9984393,1.1125494-.3513974,1.1092699-1.7995251-.0042442-3.4617901-.4830629-5.1148915-1.1121636-2.2370597-.8509547-4.4869483-1.6884052-6.9931265-1.0863128,2.8516917-2.3115255,6.0877694-3.81203,9.4538729-4.9656706ZM32.0331682,29.3240424c-3.2019316-1.1262465-6.4112904-1.7921943-9.7762364-.2048773,1.1464063-.9788583,1.1888479-2.2582805,1.5371586-3.4670953,1.2284922-4.2642262,6.3365352-6.7769636,11.3719452-6.2323603,3.2862361.3553522,4.5365279,2.3925504,5.5337132,5.1643746-2.8906608.7519885-5.7240254,1.7914226-7.3464531,4.6847842-.3642263.6497428-.8769019.2110506-1.3201276.0551741ZM35.4911964,40.714604c-.9153888,1.0560249-1.4051073.7915364-1.7145454-.3636476-.8966759-3.3484516-1.011847-6.7738769.0264296-10.0486345.9259027-2.920177,3.3400598-4.3330974,6.3754079-4.468139,3.635222-.1620499,7.1044394.7249802,10.5129845,1.8955975.5890705.2021765,1.1982044.3458993,1.7979817.5166304-2.5474623-1.9395825-5.5800132-2.5567223-8.6281903-3.0060248-1.2050529-.1774832-1.8743767-.7157202-2.496243-1.6741294-3.0302359-4.6697367-4.2060619-9.7970714-3.8904505-15.3017507.1219232-2.1267115.3348066-4.2484071.5057306-6.3658586.8823036-.0864266.7562327.8951325,1.3597719.9393104-.2181886-.584537-.4363771-1.1692669-.6545657-1.7538039.1562624-.265646.4199792-.2527206.6416403-.182499,4.9430029,1.5668678,9.2229519,4.1189601,12.9185567,7.8501581,1.4996364,1.5140087,1.4339483,2.7382568,1.1843144,4.5454985-.3113672,2.2532647-.0747551,4.5825385-.0747551,6.7293132-1.0784997-2.0547536-.3544841-4.4779777-.6854323-6.8066727-.0788064.847868-.1576128,1.6955431-.2384448,2.5655965-.856067-.1116987-.5396839-1.0139691-1.0596903-1.2674614.27616,2.9782449,1.5838444,5.6734812,2.3428744,8.5193854.2084463.7815047.4601058,1.5516274.5501014,2.3825187-2.1560348-4.0331123-4.1226255-8.1430053-5.363368-12.5665806-.1204764-.429625-.1916625-.840923.3505293-1.1210378.5999703-.3094381.8020503.0902849.9848387.4824842.1546226.3318164.4372452.420365.7206396.5420954-.6271715-1.4270033-1.105508-2.9284724-2.0317965-4.2078946-.3952859-.5457608-.8453601-1.3509942-1.5903071-1.0041304-.8669667.4031955-.5749876,1.3299663-.2488623,1.9901266,1.2269489,2.4824495,1.7358626,5.2131825,2.7523397,7.767204.2181886.5482687.6591957,1.1034824.3169618,1.8419667-1.1032894.0011575-.6025747-1.3978729-1.3908315-1.6341956-.2295706-1.5516274-.8272259-2.7405717-2.6659131-2.7079689-.9843564,2.0956519-.9545508,2.1475464,1.4047215,2.7789621.1605065.0430204.2833943.2262911.4236446.344163,1.6075732,2.4693312,3.2288434,4.9297882,4.8160639,7.4120447.6654655,1.0407845,1.4736891,2.0211861,1.6977616,3.3112187-.6212876.3499505-1.0521666-.4448654-1.6117209-.1925307.1924342.7288385,1.2077537.6707707,1.3716363,1.4518896-1.1001063,1.0975019-2.526338.9003413-3.9176518,1.094994.486246.0528591.9724921.1057182,1.7442545.189444-1.942862,1.2454689-3.8233156,1.9301295-5.7039621,2.5893252-4.163138,1.4594133-7.9115055,3.5639394-10.8324542,6.9330331ZM54.5653327,45.1420376c-.6903517-.8079343-1.2550183-1.7354768-1.7988499-2.654531-1.7526464-2.9624257-3.7397827-5.6968241-7.3738472-7.5710079,4.680733-1.612589,8.4710598-3.7830925,12.1296247-6.2668924,2.5070463-1.7022952,5.2019933-.9314008,7.7473336.2947764.551066.2654531.5821255.572962.1539474.9915908-3.0017807,2.9338741-3.6828724,6.771369-4.1580257,10.6908535-.1927236,1.5898248-.67569,3.0824198-1.6675702,4.3624207-1.364209,1.7605559-3.5806266,1.8521913-5.0326126.1527899ZM46.3564464,61.0645936c.0215102-.9103729.3208201-1.480827,1.0848659-2.0044024,2.1888306-1.5003116,4.4269513-2.8677037,6.9418108-3.7778838,4.1493445-1.501662,7.8836291-.6638257,11.4694645,1.7823555-.3136822.5625445-.6591957.5050554-.9538756.5490403-4.678225.6975861-8.3941826,2.9041649-10.9353751,6.9586909-.0333746.053245-.0768772.1001237-.1116022.1525969-2.1320167,3.2191976-3.874342,6.944608-8.922388,6.3783981-.1658117-.0700287.0444673-.5156658.1598313-.9007271.8933963-2.982489,1.1942496-6.048318,1.2672685-9.1380686ZM30.2609408,56.3132532c1.9062079-5.9252373,5.5125889-10.8756675,9.0708372-15.8432673.9249381-1.291383,1.8117753-.7759101,2.3431638.5193312,1.3476182,3.2849821,1.993792,6.7605657,2.7143351,10.2095268,1.1040611,5.2845616,1.4572912,10.6026906.6252424,15.9785017-.3802384,2.4562128-1.4102196,4.3722595-3.584292,5.6964383-1.2818337.7805401-2.4279506,1.7842847-3.8597768,2.8559358-1.4130169-5.475356-1.3566853-10.8664075-1.4217946-16.250514-.344163,3.5861248-.3675059,7.161832.1672586,11.2790559-.4016521-.8125643-.6096161-1.1212307-.713984-1.4619212-1.0981772-3.583231-2.7067149-6.921651-4.8407572-9.9969328-.6582311-.9485704-.8645553-1.8535417-.5002325-2.9861544ZM29.5795597,60.1254761l.4499777-.2488623c1.7086614,2.1683814,2.9616541,4.5979718,3.7588815,7.3794418-1.4028888-2.3767312-2.805874-4.7534625-4.2088592-7.1305795ZM29.8305441,62.4736557c2.7504105,3.7117134,4.326056,7.9967746,5.9151092,12.2905171-2.3361223-3.9106103-5.5130712-7.4384743-5.9151092-12.2905171ZM10.4501528,77.8573959c-1.3495474-.5048625-2.6248219-1.2070785-3.9374257-1.8120647-1.8101355-.8345568-3.6008829-1.2348585-5.396839.2542639.7979026-3.3293529,2.8541996-5.6262167,5.4725587-7.4548722,3.3444004-2.33564,7.1354989-3.3677433,11.1777747-3.5377027,1.0134868-.0426345,2.0248515.0538237,2.892397.6618965,3.2948208,2.3092105,6.6108625,4.5898693,9.8577436,6.9650572,1.2571403.91944,3.2288434,2.2578947,2.8463864,3.4182874-.3800455,1.1526761-2.6819251.3532301-4.125037.2866739-4.4678496-.2058419-8.8836117-.5644737-13.0979691,1.6731648-1.7720345.9410467-3.8486841.2340077-5.6895898-.4547042ZM21.6941944,87.8815299c-3.6006899,1.8037692-6.6344948,4.2690492-9.0690045,7.5345467-1.830874-1.8900029-1.8756306-3.9895131-1.2225118-6.2221358-.2750025.2158736-.5539597.6080728-.8241393.6020924-.3210131-.006945-.3006604-.4923229-.3048081-.7936585-.0323135-2.3366046.5555031-4.4586861,2.1138825-6.2721011,3.5919122-4.1801146,8.0989239-5.9900572,13.5824789-5.3050107,1.9909947.2486694,3.9792886.5191383,6.1460302.8027255-1.8503586.9001484-4.030315.1620499-5.5192445,1.651751,2.8725266-.9661258,5.8443088-.7375198,8.7814625-.6057578,1.4285467.0642412,1.9323481,1.661011,3.1130935,2.402582-1.9785516,1.5159378-4.1936188,2.1973189-6.4258556,2.8379946-3.495454,1.0029729-7.0766594,1.7163781-10.3713838,3.3669716ZM48.8503744,96.5515831c-.3504328.718421-.5160516.7905718-1.3476182.5131579-3.1994236-1.0672141-5.7507443-2.830085-7.7969131-5.5731647-1.4442694-1.9363029-3.7931242-2.8572862-5.9683541-3.8660466-1.0722299-.4971458-2.1587356-.963425-3.412307-1.5207607.889345-.7666502,1.8395553-.7874851,2.6760412-1.0444499,1.5083176-.4635783,3.1572714-.7874851,4.299337-1.8465967,1.4897012-1.3820538,2.6539522-.9275425,3.9441778.0925999.1971607.1558765.3977938.3190839.621577.4278888,2.4112633,1.1710031,3.7573381,2.9246141,3.5233304,5.7716757-.0897062,1.0911357.2625594,2.2220122,1.0351899,3.5558369v-5.4201819c2.5444721,2.3520379,3.5929733,6.5167193,2.4255391,8.9100413ZM49.9561717,92.2275528c-.9003413-3.7846358-3.2269142-6.4436039-6.4344404-8.513405-2.1088667-1.360833-4.4390086-2.4029679-6.2326497-4.2437771-.8346532-.8567422-1.1015532-1.4898941.019581-2.4058616,1.7966313-1.4679016,3.4052655-3.1717401,5.6927729-4.2239067.3414622,1.8176592.5679462,3.4535911,1.7791724,4.7125642.2164523-.242689.1267461-.4568263.0435991-.6944994-.9326548-2.666106-.7556539-3.7090126.7795756-4.6840125,2.1781237-1.3832113,5.0913557-1.2427681,6.6456839.3684705,1.8923179,1.9615749,2.1190913,4.341007,1.6120102,6.8745794-.5943757,2.9701424-2.1490898,5.6576621-2.5630886,8.6825928-.2303423,1.6837752-.4704269,3.366007-.7113796,5.0860505-.5730585-.1049466-.5469183-.6057578-.6308369-.958795ZM58.3770733,120.2770326c-.3566061-1.2196181-.7120548-2.439622-1.0702043-3.6586614-1.337683-4.5543726-3.3068781-8.8378905-5.5954465-12.9805794-1.2457583-2.2551938-1.7744459-4.488781-.5787495-7.0028688.4930946-1.0367333.555696-2.3254154.6194549-3.5101157.1877078-3.4906311.8896344-6.8487285,2.1073233-10.1294665.8542342-2.3018796,1.5756455-4.6627917,1.0311387-7.194242-.3724253-1.7316185-1.0953799-3.352117-2.6182627-4.2165759-1.5432355-.8760338-1.0475366-1.5269341-.2650673-2.5191036,1.6699817-2.1176444,2.8285417-4.6072318,5.0158289-6.5651413-2.1556489,19.3522254-2.5347298,38.6022051,1.933795,57.7155999-.1933023.0204491-.3865082.0408983-.5798105.0611545ZM60.467227,127.657439c-3.7393969-19.3800054-6.3145428-38.9390373-2.8227542-58.7762548.3993371.4471804.1758434.9915908.1501855,1.4746537-.769351,14.4779972.5357291,28.8522054,2.1725291,43.2067361.5369831,4.7102492.5629303,9.4259.5000396,14.0948651ZM71.7821654,85.7227943c-1.1836392,1.6245498-2.1049119,3.4391224-3.2730213,5.0764047-4.0331123,5.6526463-6.4643424,11.9108574-7.3065194,18.7962401-.0278764.2280273.005884.5100712-.5329318.6414474-.3919099-3.2952067-.8755515-6.5556884-1.1464063-9.8337255-.3838074-4.6458151-.6647902-9.3030122.5016793-13.9054211,1.0244831-4.0425652,3.1958547-7.064795,7.2741094-8.4885188,1.8730263-.6539869,3.4327561-1.8029976,4.9025869-3.2867184.0847868,3.7084338,2.2089903,7.3927531-.4194969,11.0002915ZM73.6599181,77.2255943c-.2635239-4.6541105-.7797685-9.1573603-.6797413-13.7287096.0441779-2.0184853.8044618-2.2416897,2.1962579-2.5383953,1.2065962-.2573506,2.0517634-.1435299,2.362359,1.337683.2176098,1.0378908,1.0921967,1.9716066,2.1761945,1.455362,1.2133483-.5777849.8990873-1.6899485.1554907-2.6194202.0141794.0131183.0261402.0219925.040416.0351108-.884908-1.9717995-2.2122699-2.5912544-4.8134595-1.89907-1.2687153.3377968-1.4168752.1194153-1.1314553-1.0589186.4551865-1.8788138.4729348-3.9754302,2.9523941-4.5399039,1.8776563-.4271171,4.0809556,1.3650771,3.9168801,3.2714779-.0545954.6350811.426249.8044618.7678077,1.0591116,1.7647037,1.3153047,3.5735852,2.5717698,5.3334659,3.8934407,1.2590695.9456767,1.4984789,1.9002275-.0499654,2.8759991-1.275178.8036901-2.4213914,1.8217105-3.7267609,2.5655965-4.1220468,2.3493371-8.3694893,4.5387464-9.4998835,9.8906359ZM79.8537916,61.1178385c.0252721.305001.0433098.6109665.0782276.91481.0508335.4417788.1093837,1.0722299-.3429091,1.1218094-.4469875.0491937-1.1335773-.2251336-1.3880342-.5870449-1.4994435-2.1344281-1.4673229-2.1571923-3.4120176-2.4405866,1.9987114-1.048887,3.0446081-.8459388,5.0647332.991012ZM79.3915637,79.5639352c-1.2119014.9454837-2.9061906.145652-4.3733205.1394786-.5664993-.002315-.5986199-.7701227-.5282054-1.2593589.3552557-2.4704887,1.1222917-4.7438166,3.363692-6.5603184-.0093565,1.6255144-1.1727394,2.8551641-.6106772,4.3869211.6948852-.6833102.7972274-1.5344578.9937129-2.2860605.8026291-3.0718094,2.8195711-4.9699148,5.6417465-6.1771862.4806515-.205649.8851009-.4662792,1.366524-.0154333,2.3117184,2.1652948,4.9680821,3.8220616,8.3763378,5.2978728-5.7725439.7932726-10.1406556,3.2836317-14.2298102,6.4740847ZM109.754884,72.4478244c1.9240527,3.3552037,1.2321577,7.7016124-1.8578823,11.532934-3.3065888-5.6119409-8.1559307-9.3217251-14.1612283-11.6564006-2.7112484-1.0540957-5.1926369-2.5383953-7.4756107-4.3626137-.9573481-.7649139-.8719826-1.1843144.2124975-1.663326,2.204071-.9734566,4.3853778-.887223,6.5639838.0943362.1207657-.6281361-.750831-.3595963-.5313885-.9238771,6.1671546-1.7264097,14.0778884,1.4480312,17.2496285,6.9789472ZM114.7597167,67.6924327c-1.2127696.3360605-2.4304585.6617036-3.6242258,1.0575682-1.6155792.5355362-2.8849697.3196626-4.3006875-.8615651-3.1205208-2.603794-6.9606201-3.3945587-10.9429953-3.5272852-1.3085526-.0435991-2.619806-.006945-4.4085278-.006945,3.4532053-3.9447565,7.0695215-6.5792242,12.2861765-6.2061237-.7816976-.039355-1.5633953-.0787099-2.4460847-.1232736,2.9902057-2.6373614,5.1511598-2.984997,8.4259174-1.3988375,3.541561,1.7157993,6.9183714,3.6544172,9.2073256,7.0167588.8959042,1.3160763,1.5527849,2.7201226,1.656381,4.5198406-2.0496413-.8482538-3.9313488-1.0029729-5.8532794-.4701375ZM27.4054872,62.3370708c-.086716-.1134349-.1401538-.2318856-.1773867-.3518797.0551741.1188366.1100589.238059.1773867.3518797ZM23.0966008,60.0801407c-1.1615502-.3048081-1.8659848-.9904333-1.9180723-2.3553175.0616368-.2596656.1209586-.6343094.2397952-.9885041.497821-1.4842995,1.9721853-2.6564602,2.8505342-2.1633656,1.5153591.8503759.8708251,2.132499.4749604,3.3177779-.0987732.2959339-.1819203.7083894-.403099.8306984-.5858874.323521-.0024115,1.6845468-1.2441185,1.3587109ZM19.2370169,44.0509019c1.2622526.2230115,1.68773-.4724525,1.769623-1.3546596.0968441-1.0429066-.6552409-1.7285318-1.5949371-2.1099277-.9710452-.3941284-1.8954046-.2845518-2.5351157.6032499-.4740923.658424-.668745,1.3776167.3516868,1.7744459.4078255.8337851,1.8621265,1.0635486,1.2304214,2.4610357.8446849-.2899535-.1947492-1.5458399.7783216-1.3741442ZM17.2461187,42.9283208c-.4696552-1.004902-.0899955-1.6754798.9198259-1.966012.6127993-.1765186,1.4052038-.1412149,1.6594677.515087.2571577.6640186-.6084586.6279432-.9614958.9067075-.462035.364998-.9175109.8723684-1.6177977.5442174ZM13.8499202,32.5658112c-.1014741-.0596112-.1865503-.1234666-.2696973-.1875148.0941433.053052.1844282.1147853.2696973.1875148ZM9.3389538,30.2870816c.5652453,2.469717,2.8447467,1.302958,4.2412692,2.0912148-.7529531-.5818362-.7986743-1.3527305-.7938514-2.2632963.0054981-1.0162841-.7072319-1.6995943-1.6559952-2.0968094-.6590028-.2760635-1.2897432-.1830778-1.7370201.3138751-.5458572.6067224-.6103878,1.3183913-.0245004,1.9827958-.0096458-.0100317-.0202562-.0177483-.0299021-.02778ZM11.2685046,28.6750713c.6727963.4512317,1.5447788,1.298328.9684408,1.9631183-.8410195.9695983-1.9735358.5795212-2.8487979-.3051939.1914696-1.8226751.8010858-2.3817471,1.8803571-1.6579244ZM14.102255,44.4778261c-.8534626-.1151711-1.7305574-.0113821-2.5372378-.4357984-1.4389641-.7573902-1.6682454-1.8570142-.6430871-3.2766867-.0817001.9852245-.668745,2.1130144.8823036,2.5787148.8632049.2588939,1.9160466.5955332,2.3076671-.3150326.412359-.9589879-.4140953-1.7422289-1.3418307-2.113979-.5020652-.2012119-1.0851553-.2002473-1.6317842-.2905322,1.312218-.9485704,2.2907869-.2197319,3.0629352.7517956.7907647.9946775,1.1072442,2.1135931-.0989662,3.1015185ZM14.1193281,44.4793695c.0239216.0217996.050737.0397408.0747551.0613474-.0455283-.0063662-.0848833-.0233429-.1313761-.0279729,0,0,.005884-.0034725.0075237-.0042442.012636-.0100317.0197739-.0206421.0320241-.0306737.005691.0007717.0113821.0007717.0170731.0015433ZM74.8734593,14.8568485c.7079071.1099624,1.3056588-.1967748,1.9036035-.5029333,1.344628-.0870053.4999431-1.2807726.945966-1.8668529.8248145,1.1443807.0995449,2.268698.1624357,3.4678669-1.0609443-.5424812-2.3176023-.0293233-3.0120053-1.0980807ZM91.0360999,53.7324163c-.0000965.0052087-.0075237-.0148546-.0075237-.0148546-.5238647-3.2294222.5423847-6.3523544.6486817-9.5420358.051991-1.5583795.2752918-3.1113573.4943485-4.6608626.3143574,4.7916599-.7585477,9.4749008-1.1355065,14.2177529ZM94.4510112,66.8243085c3.9777452,1.5460328,8.2480484,2.5005836,11.2998909,5.8185545-3.3663929-2.7716313-7.5420704-3.8857241-11.2998909-5.8185545ZM67.5668435,49.3317981c.5913855-.7510239,1.8492011-.1244311,2.3209784-1.122774.1818238,1.5300207,1.1191086,2.2355164,2.563185,2.4322912.3456099-.7685793-.3455134-1.2099723-.4280817-1.8076276.943844.3630688,1.3511871,1.3178126.9650648,1.9743074-.7648175,1.3004501-.3051939,2.5665611-.358053,3.8463691.3890161.9890829.3447418,1.0652849-1.3169445,3.4202166-.4222942-.9694054-.8036901-1.8452463-1.185086-2.7207014.8486397-.1319549,1.6231029-.0054017,2.3364117.7751385.0514122-.5993916.0925035-1.0791749.1335947-1.5587653.0097423.0245004.0158192.0422487.0250791.0657845-.4518104-1.2583943-.7675183-2.5252769-1.6281188-3.6659922-.9328477-1.2367877-1.8878808-1.9139246-3.4280297-1.6382469ZM74.6088744,66.6580145c1.0171522,1.8157301.0474575,3.077404-.3424268,4.3952165-.7448506-1.4266175-.0717649-2.7172289.3424268-4.3952165Z"/>
  </g>
</svg>