<?xml version="1.0" encoding="UTF-8"?>
<svg id="Layer_2" xmlns="http://www.w3.org/2000/svg" viewBox="0 0 286.3314052 245.4776266">
  <g id="Layer_1-2" data-name="Layer_1">
    <path d="M283.2655057,96.3600394c-3.5259656-.6861296-7.1419581,2.8173293-6.7296385,6.4781184.2081546,1.8477191,1.2843139,3.1793882,2.4860599,4.4428867.4388593.4614527.5465793.9121942.4242885,1.528939-1.5608126,7.870239-3.8741042,15.5128957-6.9894848,22.9038154-1.2891709,3.058355-2.7058365,6.0616357-3.430041,9.3244592-.139984.631012-.2815291,1.2616771-.4222069,1.8924723-.2130115-1.3277228-.3382512-2.6280387-.4093707-3.9313033-.224807-4.1234127-.2643564-8.2352902.9727759-12.2429169.800181-2.5919152,2.1278605-4.9466208,3.3561461-7.3415263,1.7351421-3.3829894,2.1252586-6.9222683,1.2761612-10.5899958-1.183012-5.1101089-2.7887514-10.1119774-3.9440095-15.2311064-1.2307141-5.4538676-4.7500882-9.1167816-9.4396381-11.7955579-1.2246429-.6994862-2.5809437-1.1677474-3.8753184-1.7451162-1.2321018-.5494414-2.1778176-1.3698742-2.7724459-2.6266943-1.7854462-3.7730625-3.9448768-7.3463833-5.9546095-10.9996701-.4296658-.7810568-.8142314-1.5869187-1.2534377-2.4477247.5212538.0204252.8124968.262535,1.1273307.4323111,2.0806788,1.1215197,3.9658657,2.5403102,5.8862654,3.9037229,2.6265642,1.8647184,5.3611954,3.5160783,8.4713722,4.4627047,1.3578619.4132736,2.7021937.8824021,4.1537252.7937629.2483978-.0151779.5634051.02693.6657478-.2584586.0914146-.2543389-.185778-.3890757-.339292-.5405949-1.194634-1.1790224-2.4910903-2.2392232-3.8215452-3.2600915-1.8421683-1.4135866-3.8576253-2.452972-6.0959812-3.1232732-3.2038464-.9595494-6.4014481-1.9452916-9.5549904-3.0698468-.9427669-.3361697-1.584577-.8799302-2.1014942-1.7161914-1.2713043-2.056264-2.2201424-4.2810898-3.4163375-6.3750385-1.1837059-2.0720924-2.5936064-3.9561084-4.6728975-5.2013934-2.180593-1.30591-4.1634391-2.8579194-6.0416875-4.5560274-1.3472807-1.2182682-2.6884902-2.4433882-4.0324752-3.6654726,6.2416894,2.0078247,12.1080067,4.9646609,18.4836089,6.5131577-.4874287-.8278049-1.1712166-1.41814-1.855178-2.0037917-5.5528711-4.7549885-11.6771266-8.6383729-18.2407618-11.8273882-4.1316955-2.0074777-8.2725845-4.017861-12.856149-4.8425435-.84372-.1517794-1.7054801-.2471836-2.7448654-.635522,2.441827-.4224238,4.656939-.6320528,6.8916522-.6301013,4.6021249.0039896,9.2025153-.010321,13.7319596-1.0052133.1298364-.0285345.259326-.0581532.3889022-.0870346,1.2022663,1.3016168,2.2551817,2.727606,3.3380193,4.1308716,1.0136262,1.3133255,2.0613377,2.6018459,3.5259656,3.4615244.324461.1903314.6669621.3181296,1.0361763.3918511,1.476857.2947556,2.2355805-.3464907,2.0260382-1.8273373-.0829149-.5857818.212231-.5186953.5549055-.5575942,1.5883931-.1803573,2.5048805-.8549083,2.7832006-2.0324129.1895942-.8025227-.0426717-1.5268141-.4499609-2.196725-.7519585-1.2366986-1.8773811-1.9373123-3.2907509-2.1934292-.1902013-.0344756-.3994834.0120123-.6176121-.1764544.5576809-.3752854,1.1031327-.7324874,1.6381768-1.1046939.8604591-.5985746,1.6207438-1.3010964,2.181894-2.1969418,1.0965411-1.7507537.3188235-3.6082734-1.6936847-4.0162131-.5555993-.1126203-1.1240349-.1895942-1.689695-.2159604-.4242017-.0197747-.4366043-.1608428-.295753-.4943238.2503059-.5922432.5117134-1.183489.5942814-1.8320208.1342597-1.0548235-.079012-2.0086486-1.0039123-2.6193656-.9050389-.5975772-1.8113788-.3091963-2.6429564.2392911-1.62907,1.0745114-2.4641169,2.7434344-3.2251822,4.4437106-.9938515,2.2199689-1.6046986,4.5807891-2.4446024,6.8580005-.0994806.2696903-.1101485.6978817-.3897695.7486194-.0657422.0119255-.1212501.0024285-.1724214-.0154815-.0026887.0388555-.0043366.0777111-.0069385.1165666-3.8870271.859375-7.8155117,1.3559104-11.8178045,1.1280679-3.7682923-.214486-7.4873213.1585444-11.1766883.885481-.6216884.1224643-1.1500542.0540768-1.7056536-.2316587-2.648247-1.3618082-5.2581589-2.8131228-7.9738827-4.0260571-6.2241697-2.7799915-12.7090531-4.8545558-19.2227312-6.8367514-.2969672-.0903738-.6739005-.0708159-.9471035-.4529097,5.846716-.1137912,11.620578.1796201,17.3557578-.5847844.3694744-.0492633.4889899.1802272.6404223.4287985,1.3415565,2.2034033,4.1710714,3.4247071,6.6604271,2.8464709,1.5857912-.3683469,2.6900514-1.3537422,3.2137337-2.8802093.4477059-1.3047391-.100955-2.390699-1.0369569-3.2978629-1.2293264-1.1915984-2.7367127-1.8070856-4.4151327-1.9966364-1.205909-.1361678-2.3804214-.0189507-3.4399284.6699976-.747622.4862145-1.1661862,1.2330559-1.577465,1.9756908-.3902899.7047334-.9184822,1.0573387-1.7484987,1.1313637-1.6985416.1514325-3.3970832.2683026-5.1006552.2857789-4.2319567.0434089-8.4647806.0563752-12.6948292-.0875117-2.0969842-.071293-4.2059373.149958-6.2904323-.1904181-3.4992524-.5714278-6.9941683-1.1707396-10.4885638-1.7718727-1.6661042-.2866029-3.3542381-.4583738-5.0047306-.8868254.0818741-.2193429.2324393-.2245468.3698214-.2375564,2.5184973-.2386406,4.9951902-.7386453,7.474832-1.2128475,3.0995956-.592807,6.1684884-1.1162291,9.3581108-.4191713,1.6808485.3673495,3.4113071.0323507,4.8090653-1.1691351.7873448-.6767193.9085949-1.5659298.410238-2.5454273-.4787556-.9409889-1.2019194-1.2801508-2.249284-1.0745982-1.1169229.2191695-2.0674957.7717332-2.9424389,1.465712-1.6470233,1.3064737-3.3917059,2.3730059-5.5717785,2.5034061-.5630582.0336517-1.1196983.1788829-1.6791138.2738534-4.9811398.8455414-9.9645346,1.6786802-15.0157531,1.9912157-3.9394994.2437577-7.887672.3801857-11.8190187.7167891-9.8840481.8463653-19.6364385,2.5354966-29.2835373,4.8326562-1.7020109.4052944-3.3754004.9301042-5.2250276,1.4451567.6400754-.6138393,1.2798039-.9185256,1.8841461-1.2694829,5.1525204-2.9919189,10.6197012-5.2353486,16.3214029-6.9493717,5.5110667-1.6566939,11.0446835-3.246041,16.4345002-5.2865633,3.1544096-1.1942871,6.117317-2.8557945,9.368692-3.8117445.2933245-.0862107.5743333-.2513033.8277615-.4274108.5328758-.3701683.497663-.7240745-.1068527-.9599397-.4810106-.1876861-.9934179-.2052925-1.5101617-.1313109-4.5221589.6473608-9.054899,1.226898-13.5649155,1.9489343-6.2054358.993548-12.2866727,2.4673693-18.0501269,5.0658761-4.3573698,1.9646326-8.2031997,4.6058977-11.2946425,8.2944408-1.0119783,1.2072967-1.6794608,2.7188461-3.1126053,3.5616121-.1134443.0667396-.227062.2063333-.2562036.3316597-.2723356,1.1685713-1.2818855,1.5005779-2.1887457,1.9335395-9.8132756,4.6846929-18.4589773,10.9929918-26.1081387,18.7023447-3.6300429,3.6587075-6.8201858,7.6869329-10.0047778,11.7227472-.2679991.3395956-.5425897.6739873-.9592458,1.1908178,0-.437515.0027754-.603128-.0003469-.7686543-.0513448-2.7353684-1.8348829-4.5575452-4.5682998-4.5400255-4.0184247.0257158-6.8347566,2.0465067-8.5740618,5.5552562-1.5287221,3.0837238-.6246373,6.1148886,2.2605591,7.9950451.4678275.3048598.5231619.5389903.281876,1.0084223-.8685251,1.6901287-1.7181428,3.3904483-2.5474655,5.1001782-1.944511,4.0086675-3.4862428,8.1917078-5.2879944,12.2636456-2.0147632,4.5531219-4.918173,8.4253614-8.5997342,11.9158973.5396408-1.3845751,1.0549969-2.6655065,1.538436-3.9583634.5953222-1.5925562,1.3974113-3.0291699,2.7623851-4.1108367,1.4782446-1.1712166,2.1521452-2.8236173,2.5778214-4.589679,1.0402527-4.3155221.6161376-8.5769239-.6149234-12.7767467-.4411143-1.5051747-.8470158-3.0087014-1.0784143-4.5467038-.4879491.4412444-.9575112.9030007-1.4066048,1.3791977-.5313146,2.1997606-1.5698327,4.1882008-2.6472062,6.1595984-1.0473646,1.9165402-2.1374009,3.8112675-2.8702786,5.8811916-.6745944,1.9047881-.9842244,3.8443121-.5845675,5.8566467.2737233,1.3788508.7941098,2.6647693,1.5131105,3.8634796.850832,1.4184002.9868263,2.8646411.3233335,4.3870752-.4305331.9875635-.8263738,1.990305-1.2650596,2.9740957-.7047768,1.5807174-1.4308895,3.1525016-1.7776404,4.8627519-1.5351402,7.5687618-1.2366118,15.1312789.1209031,22.6821307.2404186,1.3380005.6317492,2.6488975.9535216,3.9723272-1.1823182-2.0864464-1.9989781-4.3007778-2.5842395-6.6055697-.7811002-3.076395-1.4130229-6.19763-2.6905718-9.1276663-.7219496-1.6559133-1.6208306-3.1811662-2.9849371-4.3535536.8657497-1.7463304,1.9001047-3.4000754,2.902716-5.0734217.9774594-1.6316286,1.9141551-3.2893632,2.2185812-5.2125383.0673033-.4260231.0603648-.8450643-.0156116-1.2700467-.3035588-1.6996257-1.3056498-2.2410879-2.7984653-1.3974546-.5906387.3337412-.6425039-.0094103-.827588-.3588932-.8574235-1.6198765-1.9609899-2.3156333-3.3342899-2.1197511-.9360019.1335225-1.6118105.6846986-2.1563083,1.3999265-1.0052133,1.3202206-1.2818855,2.8147707-.9635824,4.4305275.0428452.2174782.1800537.4213396.0702522.7330945-.6340042-.4381221-1.2437238-.8708235-1.8648918-1.2860486-.9991421-.6678727-2.0673222-1.1852237-3.2583135-1.40912-2.3276889-.4374716-3.9847731,1.1702192-3.5776573,3.4890615.1124035.6401622.2681725,1.2791101.4768475,1.89386.1564629.4611058.0111016.5334396-.4038199.5226415-.7368673-.0192109-1.4773773-.0507377-2.2041838.1326118-1.1821447.2982682-2.1108612.9252472-2.3755645,2.1681037-.258979,1.2161433.4282781,2.0628122,1.3618515,2.7207108,1.8288117,1.2889974,3.9597945,1.4816272,6.0932058,1.5822352,2.7854556.1313976,5.5610238-.2049889,8.3431836-.2617544.3295781-.006765.7909875-.174633.9621947.1026029.0402432.0651784.0534263.128362.0556814.1905482.31414-.0990469.6278463-.1992213.9396446-.3053368.8947179.759721,1.5079934,1.7432515,2.0640264,2.7747877.566354,1.0508772,1.0142333,2.1541834,1.3977582,3.2842027.7032157,2.0713118,1.2190922,4.1946189,1.6879604,6.3263823.7989668,3.6321678,2.0241301,7.082981,4.0529437,10.2265492.8865652,1.373647,1.4990601,2.8464275,1.5698327,4.5248909.117087,2.7820297.4673071,5.5436776.8886467,8.2941372.3136196,2.0465067.6799717,4.0849475,1.027243,6.1262503.091588.5377761-.009367.8960189-.6688701.8430695-.4483997-.0359934-.7380816.2108866-.9566439.5837869-.4098911.6996597-.6858694,1.3904294-.449614,2.2486335.2941918,1.0688306.5819656,2.1288145,1.0862201,3.1247042,1.5889135,3.138321,3.1610012,6.2851851,4.7414151,9.4277993,4.1580618,8.2685515,8.5145643,16.4258271,13.6408919,24.1465851,1.013366,1.5262503,2.0975046,3.0055791,3.2246618,4.6145275-1.3406891-.728758-2.5646382-1.4134999-3.8059336-2.0649805-2.586321-1.3571681-5.2720359-2.5447768-7.6045817-4.3381589-2.8123422-2.1620759-5.0888598-4.86028-7.3632958-7.5475994-6.8732652-8.1208919-11.8519765-17.286026-15.0428132-27.4319153-.4123196-1.3108103-.4704294-2.5899204-.1451878-3.9316503.5224681-2.1561348,1.2895178-4.2291813,2.0012331-6.3223493.7226434-2.1253453,1.3809324-4.2668226,1.533926-6.5253434.114485-1.6901287.0032958-3.3603092-.7255923-4.915918-.8062522-1.7207448-2.3481575-2.1438624-3.9512949-1.1352232-.2627952.1653528-.5431101.3405496-.7325308.5774122-.4138807.5176545-.6416366.4370813-1.0574254-.0647448-2.4900495-3.0052322-4.8071572-3.0153363-7.1622532.0568089-.7621928.9941551-1.5120698,1.5229979-2.8029753,1.608428-2.0990658.1389432-3.2387123,1.5196587-3.2959548,3.6264869-.0173462.6379505-.0026019,1.2767683-.0026019,1.9105124-2.8794721-.70456-4.8748075.7448032-4.9299685,3.6304332-.0371209,1.9465058.7519585,3.5965647,2.0074777,5.0192581,2.2243055,2.5204921,5.1644893,3.7102258,8.3702437,4.3748461,2.7795579.576198,5.5414226.2916333,8.2906246-.2029507.5542116-.099654.7257657.0471383.8792798.5575942.4820514,1.6012293.9883875,3.1974716,1.5549149,4.7705567,4.3355136,12.037928,11.4462485,22.2481284,20.5597776,31.132037.2038181.1987877.4733783.330272.7122357.4931096-.070946.0766703-.1418921.1532972-.2126646.2299241-1.2208268-.3558577-2.432807-.7460174-3.6640415-1.0605911-2.653104-.6778034-4.9122753-2.0137224-6.8704898-3.9142607-.710848-.6899458-1.4874381-1.3211313-2.2834561-1.9125506-1.6010559-1.1894735-3.3929201-1.8417346-5.4146218-1.6267283-1.3873505.1475729-2.62986.6448456-3.2317738,2.0184926-.5885572,1.3428141-.171901,2.5835456.7118888,3.6449607,1.836444,2.2055282,4.2206816,3.1694575,7.082634,2.9691087,1.641646-.1149621,3.2739251-.3816601,4.9273665-.3077653,2.6029734.1163064,5.195886.1443205,7.6968636,1.1331417,3.4407957,1.3604205,6.7473316,2.9724478,9.9371276,4.8321358,3.9332548,2.2930832,7.7972982,4.6800962,10.6183135,8.3860722.153514.2017365.3559444.3661786.5346104.5490078,7.2116899,7.378734,14.9012681,14.2505681,22.5041152,21.2143372.3429347.3141834.6851756.6293641,1.0275899.9440245-1.1302795-.1471827-2.1053104-.5836135-3.0718416-1.0410332-4.1712449-1.9740863-8.0415329-4.4521235-11.7971625-7.1122961-7.2765647-5.1539515-14.1912874-10.7122433-19.709813-17.8153892-.3457101-.4450606-.7769371-.8264172-1.1883894-1.2164035-.1566363-.148527-.3774537-.395407-.5791902-.2618412-.2626217.1738091-.0699053.4585039.0289682.6845251.0563752.1289691.1372086.2479642.213185.3676097,1.7472845,2.7568777,3.4725393,5.5281094,5.2487919,8.2662965,3.0338534,4.6772341,6.2619845,9.2105379,10.3069489,13.0884582,3.934469,3.7720217,8.2907981,6.7982862,13.8540769,7.6495951,3.2376715.4954513,6.4729145.9417695,9.7256772.2052491.5438039-.1231148.9656639-.0673901,1.4465011.1708602,3.7861589,1.87582,7.5107387,3.8780071,11.4110357,5.5197398,8.1567118,3.4332501,16.5007628,6.3871374,24.7122886,9.679623.2596729.1040773.6043422.1030799.7665293.4573764-.5784964.0801829-1.1157087.1352138-1.6451153.2324827-.8648824.1588914-1.7415602.3062475-2.4525817.8875626-.2966203.2426736-.5301004.5609767-.4314004.9588989.1124035.4542541.5410285.32754.8567297.3449295,1.4803262.0815272,2.9505916-.086601,4.4192958-.2323526,2.7509366-.2730295,5.4376922-.2498289,7.9308641,1.2226481.8246392.4870384,1.7439887.819522,2.6361047,1.1833156.3007834.1226811.6615847.4669168.9741636-.0096705.3191704-.4866481.4444101-.9908593.0485694-1.496198-.2697337-.3443224-.6482281-.5470563-1.0458034-.7082027-.4615828-.187079-.928543-.3608013-1.4213491-.5512194.2553363-.2305312.5210804-.2043818.7708659-.225761,3.5963913-.3082856,7.2002414-.424939,10.808775-.3992232.5656601.004033,1.1512684-.0099307,1.6928174.1246759,3.9927523.9923771,8.0309517,1.4668395,12.150158,1.2808013,1.9746934-.0891596,3.8808692.2906792,5.7518322.9724723,4.6534697,1.6959397,9.4207307,2.7652472,14.4237267,2.2576969,4.2498233-.4311402,8.3948754-1.3609409,12.4533699-2.6826359,3.0022833-.9777195,5.9268556-2.1321537,8.5589706-3.9177733.5705171-.3870375,1.1682677-.7537365,1.6850116-1.4760764-1.9337563.6329635-3.7526807,1.0445892-5.6118483,1.2517464-4.1998662.4678708-8.4014669.2428904-12.5897111-.1054216-5.1853048-.4311836-10.3197851-.1760641-15.4372662.7208221-3.0427.5332661-5.9984954,1.5072996-9.1090191,1.7037888-3.3167702.2094989-6.5993684-.0524289-9.882487-.5236389.7488362-.1877728,1.4976724-.3437587,2.2543144-.4127966,6.7287712-.6140561,13.4277069-1.4491897,20.0978479-2.5365807,15.440215-2.5170229,29.7433855-8.0283064,42.9952018-16.293779,1.8959416-1.1826651,3.8546764-1.7854462,6.0822777-1.8400434,4.1565006-.1018223,8.2855942.2147028,12.4172897.5600226.233827.0195145.4381655.0681706.6256781.2196898,1.2206533.9871732,2.6768683,1.3298478,4.189285,1.4850964,4.915918.5047749,9.6722508-.3038624,14.3390772-1.7928183.5216008-.166437,1.0829244-.2869064,1.6497987-.7879519-2.4223993.3133594-4.5624021-.2095857-6.6751714-.919523-1.8293321-.6147066-3.66196-1.2226481-5.6017875-1.3892586-2.8262192-.2427603-5.5722989-.0838256-7.9705869,1.6854018-.261581.1929767-.5162234.1821786-.8026095.1521263-4.239589-.445234-8.4842084-.7699986-12.7525921-.5284525-.0582833.0032958-.1209031-.07177-.2150931-.1315711,1.4409503-1.0873476,2.8883187-2.1219194,4.0262305-3.4654707.7280207-.8596352,1.5663634-1.1899505,2.5608221-1.3133255.4641848-.3404195.928543-.6978383,1.3739939-1.0749017.2052925-.1738091.393152-.3668725.5909856-.5493113-.3436286.0270601-.6978383.0416309-1.0624558.0431054,8.8430149-2.6665473,17.0244451-6.7351459,24.3339676-12.6415763,1.1517888-.9307113,2.2687118-1.9065228,3.3693293-2.8974254.350914-.3158313.5481405-.3482253.9219515-.0181268,1.8543106,1.6377431,3.8146067,3.1222758,6.183753,3.9632638,2.7327231.9699137,5.5055159,1.4201782,8.3476069.5338732,1.6042649-.5002215,2.9599585-1.3869602,3.8263154-2.8777375,1.2843139-2.2100382.4394664-4.2243243-2.0643733-5.0140542.2911563-.4797964.5958426-.9566873.8758972-1.4476719.9247269-1.6214377.6963639-3.1904898-.8290625-4.2601876-.9380834-.6578987-1.2628046-1.402832-1.3831006-2.5057912-.3714692-3.4081414-2.1303757-4.4652199-5.3966684-3.3341164-.5453651.1889003-.7548207.1452746-.8302767-.4368645-.0346057-.2663512-.1661768-.5277153-.2892482-.7737714-.7503974-1.5003177-2.1122489-1.8884827-3.5133029-.9561235-1.2666208.8428527-2.1183201,2.0563073-2.8082659,3.3885402-.9219515,1.7802857-1.4075588,3.7041113-1.8370512,5.6453265-.4229875,1.9118134-.7948037,3.8338176-1.3899524,5.7063851-.3703417,1.1652755-1.002091,2.107045-1.9165836,2.9100014-7.0779506,6.2154966-15.0588585,10.8668415-23.9943287,13.8570691-.4067688.1360811-.8144049.2699505-1.2216941.4044271,1.3490153-1.4601179,2.7077445-2.7437379,4.0543314-4.028182,3.4954363-3.3342465,6.9008457-6.7526656,9.9985332-10.4691794,3.6381956-4.3650021,6.2628518-9.3905483,9.2687778-14.1657884,1.4350526-2.2797266,2.6201461-4.7054217,3.6064521-7.2227047.5484874-1.3997964,1.1412076-2.7753081,2.196725-3.9060646,2.4614283-2.636625,4.8661344-5.3262862,7.3424804-7.9485138,5.8212171-6.1641952,9.2070253-13.4601877,10.4431167-21.8317758.5261108-3.5627396.875984-7.1530163,1.6177082-10.685877.4367778-2.0801584.8973198-4.1617045,1.0719962-6.2882206.0246316-.2983116.1141381-.6619317-.2827433-.8039972-.41735-.1493509-.7184803.060625-.9257676.4062918-.2914165.4863446-.5838737.9740768-.8397304,1.4794589-2.1916946,4.3290955-4.0565864,8.8098836-6.1211332,13.1980863-.9283696,1.9732623-1.8126797,3.9691615-3.008181,5.8173576.6529116-3.382469,1.7549168-6.6232628,3.0668112-9.795886,3.35684-8.1186802,6.0269432-16.4530607,7.7829008-25.0648939.2145727-1.0521782.6310554-1.6144992,1.6128513-2.0682762,2.83628-1.3111572,4.3330851-3.598733,4.2966581-6.7548773-.0254989-2.1871846-1.3027009-3.8407127-3.0652501-4.1836474ZM264.6835437,72.5736484c-3.2093971-.2466632-9.7072902-3.5387584-13.358669-6.8116861,5.0531266,1.3510101,9.9468414,2.6233118,13.358669,6.8116861ZM239.7846965,33.9574993c-.3624492.498617-.9855253.315441-1.5048711.1689955-.505382-.2529512-.9502258-.5597191-1.351704-.9347009-1.2599425-1.1768975-2.1921282-2.609695-3.151721-4.0210267-.0929757-.1367749-.2335668-.3029083-.1014754-.4697356.1469225-.1855178.3275833-.0360368.463144.0412406,1.9204865,1.092725,3.7643026,2.291392,5.1837436,4.0235852.2745906.335259.79437.7357832.4628838,1.1916418ZM240.8954616,27.6849336c1.4798058.4171765,2.2206628,1.5831459,2.0460731,3.099292-.0643545.5585048-.4656592.8822286-.9302776,1.0491426-.725679.2607136-1.522651.2210775-2.1320236-.2199934-1.4340118-1.0381277-2.6235287-2.3743936-4.2447061-3.5299552,1.8876154-.4735951,3.5498167-.8809277,5.2609343-.398486ZM241.4620758,19.9223712c.8277615.2276257,1.1288051.9225586,1.2015725,1.703095.0627066.6721226-.4044271,1.1518322-.7640141,1.637136-.7723403,1.042551-1.8528362,1.6938148-3.025267,2.1955541-1.092725.4677408-2.2032298.8887768-3.3914457,1.0498364-.6895121.093366-1.3132821.3719896-1.9800707.7478822.011275-.4742022.3719029-.5946717.4533434-.8914221-.0388555-.1740259-.1795334-.0923252-.2889013-.1043809-.0617525-.0068084-.1311374-.0125326-.196099-.024675.001301-.0119255.008066-.0195145.0077191-.0326976-.0039896-.1273212-.0863842-.1817016-.1823087-.2190827.0499571-.1771482.2647033-.1062889.4039934-.1164365.2434542-.0175197.4827452-.0202951.7399896-.2588923-.6935018-.262535-.5002649-.5841772-.1426726-.9588989,1.4488428-1.518271,2.8278671-3.1090059,4.34861-4.5506934.7823144-.7416809,1.8662795-.4374716,2.8155513-.1763243ZM235.3922006,16.4661374c.3889889-.7617591,1.0281103-1.3215649,1.7799821-1.7360528.5358247-.2953194,1.1181372-.4135338,1.5814546.05386.4635777.4677408.7378214,1.0591167.4384256,1.7527919-.8709536,2.0177554-2.0218751,3.8437917-3.654848,5.3407269-.7444129.6824869-1.5243856,1.3272458-2.2393967,2.0546161.2953194-2.624873.9026972-5.1323988,2.0943823-7.4659421ZM196.7741433,13.9391404c.6855225-.7826613,1.4638473-1.4504907,2.4092161-1.2873062,1.7339279.1186481,3.1278699.5335263,4.2780976,1.5604657,1.1786755,1.0522215,1.1314938,2.2446873-.1006081,3.2403168-1.8324544,1.4809333-5.5827066.7571624-6.7561782-1.3020938-.4431959-.7775876-.415095-1.5440302.1694725-2.2113825ZM173.4653372,6.3463541c.7420712-.3485722,1.3110271-.2268018,1.7916908.3849993.4520424.575374.3719029,1.3453293-.1585444,1.9395673-.332527.3722498-.7627132.5985312-1.2255103.726503-1.6362687.4526062-3.2827716.4712967-5.0723809.0340853,1.6366156-1.0497497,2.9880594-2.2973764,4.6647448-3.0851549ZM106.7627131,13.0106841c3.9901504-3.2760934,8.6241924-5.3011341,13.4986529-6.8410012,5.7011813-1.800971,11.55154-2.8645977,17.4832525-3.521152,1.0714758-.1185614,2.1450332-.2175216,3.2180703-.3211652.0424982-.0041197.089333.0369474.2140523.0927155-1.2327957.7385152-2.5068753,1.2631949-3.7852916,1.7680132-5.2565977,2.0758652-10.717187,3.5096602-16.1345841,5.075243-5.9643234,1.7236503-11.6785143,4.028659-17.0530663,7.1524959-.1833495.1065491-.3550771.302041-.7467547.1563761.8399038-1.4766835,2.0617714-2.5403102,3.3056687-3.5615254ZM24.220911,91.8744376c.242847-.4334386.4527363-1.1559519,1.0780674-.9929842.6839614.178189.7491831.9199133.8104153,1.5355305-.0584568.6452793-.199655,1.248494-.4319208,1.8339722-.7287146,1.8374414-1.8676672,3.432296-2.9724478,5.0472722-.1070262.1565062-.2255008.3761527-.4588075.3049465-.2594994-.0791421-.1755437-.3344784-.1498713-.5115833.3623625-2.5072223.8699128-4.9770201,2.1245647-7.2171539ZM20.5903477,88.8404541c.6230761-.165136,1.1366976.1277549,1.5092944.5537346.5821391.6654009.873382,1.532625.6577686,2.3677153-.5077238,1.965153-1.4360933,3.7941815-1.9908254,6.0082527-1.295589-1.8163658-2.4262154-3.420067-2.627605-5.4483168-.1743295-1.7541796.7601112-3.0330295,2.4513674-3.4813858ZM8.4684641,102.8922345c-.9758982-.0963149-1.8409541-.5440641-2.5981164-1.1731247-.5396408-.4482696-.9094622-1.0203045-.6046891-1.7105105.3052934-.6905529.8216903-1.230931,1.68744-1.2017026,2.5181504.0849531,4.9490493.5488777,7.2304238,1.6651501,1.0400792.5088947,2.0548329,1.0715192,3.1304719,1.5301098-2.9252661.7836587-5.856083,1.1850502-8.8455301.8900778ZM19.6441116,100.63328c.0497836.1845638.1640952.4335253-.0869045.5118869-.2725091.0851699-.2709479-.225284-.346404-.3830478-.1207297-.2524742-.2237662-.5067697-.5861287-.6814028.0100608.8501815-.4140542.7785416-.9637558.5537346-2.2270809-.9108932-4.5022107-1.7168419-6.6775999-2.7363658-1.1191779-.524593-1.2482338-1.8089503-1.3668819-2.931424-.1035569-.9788037.5120603-1.5909951,1.3146698-1.9954655.6912468-.348312,1.398799-.0505209,2.0673222.1300966,1.4360933.3879482,2.5835456,1.2685722,3.6099213,2.309909.9566439.9704775,1.870963,1.979507,2.5401801,3.1803422.3883818.6968409.94693,1.2460222,1.6272487,1.8002772-.5108461.1865586-.7904671-.1479199-1.1412076-.1106255-.1694725.1143116-.0234174.230271.0095404.3520848ZM14.3096293,125.9694687c.0759764-.2107565.2766722-.1400707.4359104-.1405044,1.8704426-.0049437,3.4081848,1.8234344,3.1655112,3.9592308-.9974075-1.4385218-2.0759953-2.5843696-3.388757-3.4982117-.1082404-.0753259-.2744172-.1491775-.2126646-.3205147ZM9.049042,129.4677671c0,.1277549.0220297.197053-.0031223.2364289-.9663578,1.5184445-1.1838793,3.2097441-1.1686147,4.9604111.0020815.2385972.0558548.593761-.2378166.6613245-.2568975.0590639-.4431959-.2271054-.5713844-.4413311-.4393797-.7343087-.7916814-1.5110724-.8825755-2.3713147-.1566363-1.482321.9798878-2.7001989,2.8635136-3.0455188ZM12.4737057,145.4931134c.3434551.3212086.8409446.2191695,1.1451973.602651-.3836983.2935414-.8209965.2478341-1.2034806.1735923-3.2371511-.6283667-6.3391752-1.5956352-8.8408466-3.8842951-1.3606373-1.2448947-2.3746972-2.6913957-2.1975923-4.6719868.0837822-.936609.3734641-1.773087,1.2187452-2.3213142,1.1028725-.7152713,1.9262974-.6112807,2.9261334.4496573,2.4001961,2.547292,4.9582428,4.920775,7.7218421,7.0698412.6865633.5338732,1.3897789,1.0461937,2.0855357,1.5684016-.0241112.0671732-.0482225.1343898-.0725072.201563-.9519604-.1191685-1.9040943-.238337-3.0936979-.3872109,1.2879566.6856526,2.5125996,1.0063842,3.6841631,1.8683611-1.3054763.2049456-2.1930823-.8559925-3.3734924-.6692604ZM18.2940555,143.386372c-.6433712-.7712996-.7665293-1.671178-1.3056498-2.5123828-.2416328.7686976-.0728541,1.4073853.0983531,2.232675-.4144011-.4532567-.6621051-.8070328-.9911629-1.0519614-.1852576-.1380325-.3450163-.9370427-.7767636-.1555956-.0794457.1438001-.2267151-.0759331-.2877737-.1784492-.2317455-.3897261-.4156154-.8118463-.6778902-1.178502-.3339147-.4666132-.2997426-1.2798039-1.213021-1.2521801-.1646156.004987-.3524751-.4738987-.5151827-.738255-.2928041-.4758067-.4962753-1.0225162-1.2385199-1.3962404.6012199,1.0830111,1.2484073,1.9084308,1.6385237,3.0132114-4.0806976-4.3318275-4.9063776-8.2364177-.6884714-12.988544.4333085-.4882527.8220372-.4575498,1.3280264-.1692124,2.4126854,1.3748612,3.8296979,3.4913165,4.2064577,6.1761641.449614,3.2036729.4430224,6.4514485.5117134,9.6860844.0027754.1300533-.043539.2611473-.0886392.5131878ZM20.0441153,139.1857252c.0629668-2.8255254-.4683479-5.5741202-.9942852-8.3311714-.2475305-1.2982776-.055161-2.5399632,1.125596-3.4372397.4666132-.3546.901136-.392675,1.417186-.1795767,1.2499684.5160933,1.7377441,1.5708301,1.9436437,2.7913967.4659194,2.7619948-.2036446,5.4027396-.9261145,8.031819-.1184747.4306632-.2830903.8485336-.42637,1.272345-.0516917-.0046401-.1033835-.0092369-.1550752-.013877v-2.1698383c-.4737252,1.1215631-.4752864,2.116889-.8310573,3.1691539-.2896818-1.2324054-.0549875-2.3490681-.2093688-3.4792176-.2444082.9739467-.4889899,1.9478935-.7392958,2.9456045-.2466632-.1630978-.2091954-.4091539-.2048588-.5993985ZM29.173603,182.3856557c-.8829225.44879-1.8362706.5302305-2.8099138.2935847-1.5915154-.3866906-2.9679378-1.132231-3.927704-2.4887052-.9982748-1.4105944-.5732925-2.8348923,1.0109376-3.5385416,1.4586434-.6478379,2.8874514-.6290606,4.3264935.1206863,1.9616837,1.0220825,3.519721,2.536017,5.2696074,4.111227-1.5004478.2948857-2.6817252.8981871-3.8694207,1.5017488ZM82.1538079,222.6063734c-6.1062155-.223506-11.0781617-2.9760472-15.4613774-7.0017139-4.0595353-3.728396-7.3903559-8.0633892-10.430454-12.6359388-.0577629-.0869913-.0966184-.1866453-.1443205-.2803582.0535998-.0590205.1070262-.118041.1604525-.1770181,8.4420571,8.5084931,18.3673892,14.8458469,29.0894331,20.1005799-1.0713024,0-2.143819.0336517-3.2137337-.0055508ZM186.5629455,241.0009528c-5.386174.0317436-10.7680114.3775838-16.3129032.242847.7641009-.5530408,1.541038-.6652274,2.2779053-.8158793,4.5814829-.9366957,9.2019949-1.2537846,13.8681274-.8128437,2.542782.2402451,5.0964921.2647033,7.6482942.3080688.2967938.0050304.6914202-.0555513.3444959.4483564,1.4990601-.4368211,3.0270884-.6598935,4.6094104-.5725553-4.5740241,2.0331935-9.2777978,3.6273976-14.2669169,4.275886-5.0368211.6546029-9.9447599.1662635-14.8582494-1.7355758.9615008-.1971398,1.7868339-.1859948,2.6073099-.2208607,4.1101862-.1748065,8.2278313-.0787518,12.335936-.3411134,2.834025-.1809644,5.6468876-.5017393,8.4111808-1.176247.1614933-.0393759.3448428-.0261494.4442366-.201086-2.3665444.2387273-4.7252831.5869526-7.1088268.6010031ZM240.0678735,218.9283248c1.6175348-.6107603,3.45103.2880773,5.425203-.2629253-.7745086-.1541645-1.3478011-.2682593-2.1262993-.4232043,2.0978515-.355901,4.93205.1017789,8.4658214,1.3053462-2.8175461,1.1370879-9.3079803,1.3222588-12.4384521.3613651.2849984-.1428461.527325-.2314419.7325308-.3735074.5143153-.3561178-.30512-.2632722-.0588037-.6070742ZM276.8073355,194.6129177c.3880349.8035202.2230724,1.5699194-.1438869,2.3175414-.7758963,1.581021-2.2084337,2.2101683-3.8107038,2.527474-2.9455612.5833533-5.7388226-.1098016-8.4784841-1.1215197-.323507-.1194721-.6757219-.285909-.8314042-.6844384.4065953-.1505652.7363469.155292,1.143983.0699486-.8078133-.6837879-1.967408-.2883809-2.8616055-1.0434617,1.2830997-.1142682,2.3576979.2056394,3.6479095.2783201-.9689597-.4338289-1.7447693-.7811869-2.5202319-1.1283714.0124893-.0620127.025152-.1239387.0376413-.1859515.7667028-.0756729,1.5347066-.1403309,2.2998482-.2290568,3.0797342-.3572887,6.1071695-.9788904,9.0950554-1.804527,1.2443309-.3438888,1.9155428-.0442762,2.4218789,1.0040424ZM274.537236,187.3428578c-.000954-.0413707.0475286-.0837389.1063323-.180444,1.2674014,1.1269837,1.5682715,2.5713165.7685242,3.62163-.464098.6095461-1.0876946,1.035786-1.7577789,1.3898223-.1954919.1032967-.4680877.2343474-.6354787.0715965-.191242-.1860815.012576-.4302729.123852-.6099797.8160528-1.3184426,1.428461-2.6989413,1.3945491-4.2926251ZM273.2057403,183.9197986c1.0097233,5.5360887-1.4095536,8.112956-6.4895669,9.5175659.8029564-.6572048,1.6722621-.9847448,2.6250898-1.5284619-.7336583-.0581098-1.1389526.2623182-1.5792864.4880358-.2446684.1253698-.6067707.401695-.729235.322206-.6788442-.4405939-1.0266359.1908084-1.4936828.3907235-.3672194.1570266-.7002668.392198-1.0549969.580708-.0931492.0496535-.3058138.1482668-.2998294.0028621.0323507-.7899467-.4559453-.258502-.6595899-.2391176-.3614952.0343455-.711802.1882932-1.2338364.3410266.5088513-.546189.9301042-.9521772,1.100444-1.645202-.7948037.3891624-1.3014867,1.0138864-2.1430384,1.3022239.0817007-.2115371.1068527-.3320933.168692-.4292755,1.5383493-2.4174556,3.0257007-4.8794476,4.838207-7.0984191,1.5191817-1.8595579,3.5643875-2.8109112,6.0229536-2.7431308.5155296.0140938.8239453.1694725.9276757.738255ZM272.0026067,181.7898132c.1203827.0735046.304773.11223.2654839.3066811-.0320038.1581108-.1917624.1376856-.308329.144971-1.4138034.0886392-2.7570078.4605854-4.173153,1.091424.7977525-1.7285939,2.802108-2.4063106,4.2159981-1.5430761ZM260.4274758,187.4370911c.6610643-2.322485,1.3675758-4.629532,2.9894471-6.5066095.7167457-.8294961,1.5707-1.4039161,2.7542324-1.2203064.4886429.0757596.800181.3042527.990469.7871713.4817045,1.2219109.0568089,2.2504115-.7271534,3.1196305-1.6649767,1.845811-3.3303003,3.682602-4.5810493,5.8508358-.0841292.1460118-.1688654.3495263-.4305331.3596738.2689531-.8703898.5314014-1.7200943.7938496-2.5698855-.6362593.7846995-.9715616,1.738091-1.7573453,2.5379684.2142258-.9601565.6704313-1.7144568.8270676-2.7812925l-.9970606,1.6428169c-.041284-.0202517-.0824813-.0405034-.1237653-.0607551.0862974-.3866906.1536008-.7787151.2618412-1.1592477ZM270.8081462,121.1717218c-.8360877,2.1830648-1.687787,4.3602753-2.5356701,6.5388301-.2098892-5.5259411-1.1042602-10.916972-2.1445129-16.4472497.545712.2886844.7732944.6666151.9991421,1.0242941,1.6466764,2.6083073,2.710173,5.4735555,3.659358,8.3869395.0501306.1537309.0766703.3539929.0216828.497186ZM270.3326864,116.3886325c-.6478812-2.2925628-1.9460721-4.1912364-3.4283064-6.0011407-.786651-.9604167-1.4418176-2.0070441-1.6976743-3.2598313,3.3764412,3.0781296,5.4031733,6.9220514,6.3998869,11.3361434-.6966241-.5453217-1.0537827-1.2966731-1.2739062-2.0751714ZM269.2815056,94.75881c.5391204,2.0858393.9739901,4.19154,1.3670554,6.3075617.0281009.1518661.0036427.3135762-.0922819.5236823-3.4586623-7.5809041-8.3313882-14.1938893-13.7628358-20.425171,6.4435994,2.4776903,10.7484102,6.8641584,12.4880623,13.593927ZM257.2541588,83.8748826c5.5384738,6.8008881,10.4727788,13.9975301,14.2318775,21.9490796,1.5486703,3.27605,2.0699241,6.7049635,1.2204799,10.2808862-.0260193.1096281-.0513448.2203403-.0905473.3255451-.0185605.0500005-.0688645.0882055-.1758906.2179552-.3427613-.8831827-.6352185-1.7095998-.9805817-2.5133802-1.1602885-2.7008061-2.8850229-5.0160057-4.9858233-7.0448626-1.1961952-1.155128-1.9717445-2.4893123-2.489876-4.077532-2.0508433-6.2847948-4.5551167-12.4022853-7.0089126-18.5372087-.1453613-.3635334-.2846514-.7294952-.474419-1.2169672.415095.1408513.577629.4004374.7536931.6164846ZM217.4617626,32.1718363c8.6883734,3.3550186,16.6913977,7.9127806,23.9051691,13.8259327.1533406.1257601.3006099.2596295.4440632.396708.0369474.0352996.0483959.0972689.096445.2006957-.6518709-.0026019-1.2180514-.2382937-1.7915173-.4239416-3.0069668-.9734264-5.7388226-2.5700589-8.623672-3.8215885-1.6687061-.7239877-3.3563196-1.3556503-5.1455819-1.7294179-1.2026133-.25126-2.3063531-.8220806-3.3080971-1.5187481-4.2161716-2.9319444-8.4920142-5.7719972-12.8363743-8.5097507-.0418044-.0263229-.0643545-.0829583-.1694725-.224807,2.6579609.1743295,5.0784521.8972331,7.429038,1.8049173ZM47.5180953,54.8306363c.7228169-3.0650766,2.7715786-4.9761094,5.6831412-5.8845742,1.2364384-.3858232,2.600198-.1645722,3.808362.4519557,1.1752062.5996587,1.6437276,1.6478907,1.4759896,3.1555371-.2846514,2.560692-3.6968259,6.4437728-7.020708,6.2724789-.4234212-.039029-.8506585-.0541202-1.2695697-.1210766-2.0236097-.3234636-3.14591-1.8871817-2.6772152-3.874321ZM37.5467956,64.0953811c.3313128.1728551.3939326.4376451.4562055.6706048,1.091424,4.0777922,1.8027924,8.1901033,1.0664454,12.4252256-.4716437,2.7120377-2.0754749,4.7323083-4.0111393,6.5466793-.160626.1504784-.3538628.3418072-.5941079.2146594-.2381636-.1261504-.1776253-.3995268-.176411-.6178289.0114485-1.9093849.3830045-3.775968.7117153-5.6445459.7944568-4.5184294,1.8343625-8.9908047,2.547292-13.5947943ZM31.5441371,79.8537692c-.2570709-1.8080396.0190808-3.5606147.6150969-5.2671356.9663578-2.7668951,2.5528428-5.204429,4.1297874-7.6660307-.9991421,5.6772869-2.2943842,11.2850154-3.1394919,17.1996419-.9897752-1.423127-1.3979317-2.8083526-1.6053924-4.2664756ZM32.5498708,125.7888079c-.5065095-.7776309-.7422446-1.5189215-.9627151-2.2548782-1.6059128-5.3596776-2.0472006-10.8591224-1.9115532-16.4213171.0652218-2.6727919.3771068-5.3157483.9935913-7.9251398.5391204-2.2809842,1.5259467-4.3235013,3.015293-6.1278115.6688701-.8101551,1.3176187-1.6378298,2.0104266-2.4270394,1.9169305-2.1840622,3.6713269-4.4732425,4.8163507-7.1948207-4.8201669,13.6677785-7.800247,27.6650051-7.9613934,42.3510066ZM248.0164307,189.6313009c-2.7946491,4.38005-6.3022277,8.1743616-10.3350498,11.6451662.0104077-.4285817.2341739-.6408126.3814433-.8733387,2.4612548-3.8834278,4.8251973-7.8299958,7.1547943-11.7890965,2.5651586-4.3592779,3.9733246-9.1392449,3.9447033-14.2636645-.0190808-3.3887137.3993099-6.7434287.7752025-10.1005289.6320962-5.6418572.2900288-11.2229159-.9647966-16.754668-.3137931-1.3828405-.5868225-2.7749611-.9073806-4.1561537-.3864737-1.6662343-.1304436-3.2710629.405728-4.8542088.9467565-2.7950827,1.9119001-5.5850917,2.1753891-8.5534632.0777111-.8765911.2050323-1.7533557.2123177-2.6308141.0260193-3.1230563.0102343-6.2464596.0102343-9.3728551-.0411105-.0022116-.1189951-.0259326-.1347801-.0043799-2.3736564,3.2630403-4.6989168,6.5542249-5.9528749,10.4550856-1.0976686,3.4150366-.6581155,6.7044865.7096338,9.9582032,3.2510281,7.7344615,4.2227632,15.8495858,3.9283979,24.1654491-.0744153,2.099326-.2803149,4.1862927-.6135357,6.2771624-.4659194-1.9274683-.9349611-3.8456564-1.5262937-5.7292388-.5934141-1.8900438-1.2437238-3.7608768-2.1519717-5.6842253-.1155258.7425048.0787518,1.3286335.1571567,1.9124205.490898,3.6587943-.3443224,7.1011511-1.6135451,10.489648-1.1726043,3.1311223-2.4468574,6.2296338-3.0614339,9.5443225-.4626236,2.494733-.2123177,4.9823107-.0213358,7.4718831.1176074,1.5327551.1209031,3.0634287.0645279,4.5973981-.0497836,1.353959-.6083318,2.5256093-1.2938544,3.6479095-3.0491181,4.9909404-6.7296385,9.4863861-10.7506652,13.7180392-1.2150158,1.2786331-2.502799,2.475392-3.8354221,3.6441801-.0200349.0034692-.0395494.0089333-.059671.0123592.012576.0025152.0254989.0039896.0381617.0065048-1.8244751,1.5990611-3.7349875,3.1446524-5.6807127,4.7621872.3052934-1.0057771.5810983-1.8310667.8015687-2.6709706.1403309-.5341768.559242-1.3529616.1736356-1.5732586-.4879491-.2786236-.9901221.4519991-1.4133698.8357408-1.0584662.959506-1.9491945,2.0796814-2.6942145,3.285894-2.2983738,3.7209371-5.6257252,6.2587321-9.370947,8.3422296-8.2293925,4.5779703-17.086718,7.4322904-26.2118691,9.5487458-3.1769597.736824-6.3842753,1.3069941-9.6519558,1.6057827,1.095934-.4077228,2.1936027-.8106321,3.2872817-1.2239491,5.3559915-2.024,10.2797154-4.7820052,14.6190451-8.5502108,1.7627226-1.5306302,3.7623946-2.7417431,5.7004874-4.0277483,3.1268292-2.074651,5.5540854-4.7444073,7.213251-8.1116984,1.5167533-3.0784332,3.0380165-6.1546548,4.5499128-9.2355164.068691-.1401574.2189093-.2779731.1214235-.4743757-.0449267.0074155-.1071996-.0017346-.1320047.0245015-2.0669753,2.1843224-4.673071,3.5748819-7.2812482,4.9666123-1.804527.9628452-3.5415772,2.0308518-5.1863455,3.2560585-2.3493717,1.7500165-3.907062,3.9974792-4.5608409,6.8662833-.1953184.8563828-.4706029,1.6942484-.6775433,2.5482461-.6208211,2.5616027-2.1443394,4.4351242-4.2824342,5.9241235-6.2449852,4.3490436-13.1602282,7.0764328-20.5653284,8.6561094-1.9105124.4076361-3.8208513.8133208-5.8085544,1.0638869.1241989-.3760226.435737-.4134905.6591563-.5427198,1.7207448-.9948489,3.4435711-1.9839303,4.9771502-3.2651219.8603724-.7187839,1.6411256-1.5112458,2.0470271-2.5721838.9604601-2.5096507,2.4161546-4.7457516,3.7863323-7.0327637.9774594-1.6316286,1.9141551-3.2893632,2.2185812-5.2125383.0673033-.4260231.0603648-.8450643-.0156116-1.2700467-.3035588-1.6996257-1.3056498-2.2410879-2.7984653-1.3974546-.5906387.3337412-.6425039-.0094103-.827588-.3588932-.8574235-1.6198765-1.9609899-2.3156333-3.3342899-2.1197511-.9360019.1335225-1.6118105.6846986-2.1563083,1.3999265-1.0052133,1.3202206-1.2818855,2.8147707-.9635824,4.4305275.0428452.2174782.1800537.4213396.0702522.7330945-.6340042-.4381221-1.2437238-.8708235-1.8648918-1.2860486-.9991421-.6678727-2.0673222-1.1852237-3.2583135-1.40912-2.3276889-.4374716-3.9847731,1.1702192-3.5776573,3.4890615.1124035.6401622.2681725,1.2791101.4768475,1.89386.1564629.4611058.0111016.5334396-.4038199.5226415-.7368673-.0192109-1.4773773-.0507377-2.2041838.1326118-1.1821447.2982682-2.1108612.9252472-2.3755645,2.1681037-.258979,1.2161433.4282781,2.0628122,1.3618515,2.7207108,1.8288117,1.2889974,3.9597945,1.4816272,6.0932058,1.5822352,2.7854556.1313976,5.5610238-.2049889,8.3431836-.2617544.3295781-.006765.7909875-.174633.9621947.1026029.2182154.3530823-.1987877.661021-.4039934.939341-2.1857969,2.9647721-5.2288438,4.7290993-8.5698987,6.0628933-1.6237794.6481848-3.3190252.9810587-5.0645751,1.0161414-4.7419355.0953175-9.4791874.2259345-14.1961443.7982729-2.1972454.2666547-4.3008211-.018387-6.3886119-.9401216-3.9927523-1.7628093-8.0899289-3.2877153-12.1097413-4.9917643-2.3864926-1.0116314-4.6227669-2.3110799-6.4814141-4.1660844-2.1578694-2.1535763-3.1974283-4.7271912-2.8113015-7.7908367.5349573-4.2427113-.8562093-8.000726-2.8600443-11.6106473-.1309639-.2356484-.2555098-.6066406-.5705171-.5606731-.3561178.0519519-.392198.4595447-.4409408.7503974-.7842225,4.6781014-.9445015,9.3184747.8877794,13.8303993.1679114.4134471.307375.8383861.4036465,1.2955022-1.8263832-1.6607702-3.5519849-3.4034146-5.1684789-5.2523913-2.4425209-2.7940853-4.5219854-5.8252501-6.0271167-9.2346058-.2504794-.567308-.5944549-1.09498-.9176149-1.6274221-.0934961-.1540778-.2171746-.3860401-.4593278-.2767155-.2260212.101909-.1555956.3493528-.1394636.5323554.0707726.8065124.4145746,1.5282018.7516116,2.2465953,1.7755588,3.7826463,4.1499091,7.1562254,6.9299873,10.2674429,2.6942145,3.0149027,5.8522668,5.5494452,8.6429263,8.4619619.1552486.1621004.3595871.2771492.541202.4140976l-.1176074.1786227c-.5372124-.1807042-1.0666189-.3915909-1.6131982-.5374292-5.0066387-1.3356154-8.671721-4.5498261-11.8805978-8.4239737-1.3424238-1.6208306-2.6701032-3.2578365-3.7216309-5.0786255-2.3693198-4.1024238-5.7565157-7.1154184-9.7941947-9.4908961-1.9318482-1.1366109-3.8281367-2.3372727-5.5273722-3.8206345-1.2921197-1.1280245-2.3941249-2.4155909-3.393614-3.8051963-.3642706-.5063361-.2196031-.6684365.2893349-.8935037,1.9021862-.8409013,3.682255-1.8957247,5.2931982-3.2210191.8390365-.6903795,1.5920358-1.4606382,2.123177-2.41893.9505727-1.7151072.2900288-3.7816055-1.4773773-4.6310498-.6693905-.3217723-1.277202-.1078935-1.839046.2787103-.9021768.6208645-1.5783323,1.4637172-2.2246524,2.3314184-.931145,1.2500985-1.7146736,2.5973792-2.5887495,3.9003404.2057261-1.2716078.6569013-2.4639435,1.1309734-3.6478228.6426774-1.605219,1.3630658-3.1825105,1.7007966-4.893845.4017384-2.0347547-.1198624-3.5531124-1.5299364-4.4376394-1.1576865-.7262428-1.8074759-.6457563-2.8080057.2877304-.4508282.4204289-.6843083,1.2508791-1.2721716,1.266404-.5046015.0133132-1.0116314-.55651-1.5389564-.8270243-1.9559595-1.0035654-3.7944851.1064624-3.8276163,2.3275588-.0176931,1.1778949.325762,2.2968126.7144907,3.3979505.4891633,1.3854858,1.1634108,2.6910054,1.6810219,4.098174-.3523017-.4095008-.7346123-.7970587-1.052395-1.2317549-5.0139241-6.8576102-8.6351205-14.3758078-10.6370474-22.6446195-.6490955-2.6813783-.3904634-5.3070752.8650559-7.7910535,1.9658468-3.889152,2.0282932-7.9113929.8379958-12.0086129-.4501343-1.549581-.9006156-3.1077483-1.6354014-4.5573283-.1314843-.2593693-.2100627-.6637964-.6097195-.6087655-.3412001.0469215-.3559444.4199519-.4085034.6801452-.3543832,1.7513175-1.325251,3.2501608-1.9845807,4.8755013-1.4418176,3.5543267-1.8076493,7.1299458-.4053811,10.7790696.1720745.4480962.3498732.9089418.6147499,1.303655.795671,1.1860042,1.1812774,2.4834579,1.3318426,3.8979119.6067707,5.6971916,2.6191054,10.9539195,5.1644893,16.0262136,2.5573528,5.0957116,5.7778516,9.7628848,9.3126637,14.2239416,1.0220391,1.289778,2.0251709,2.6014122,2.9387962,3.9686411,2.1578694,3.2291718,4.94107,5.7601584,8.2934,7.6916597.7375612.424939,1.4475418.8976668,2.1861438,1.3206976,3.856758,2.2090408,6.8748263,5.2548631,9.1862098,9.0437106,1.6732161,2.7426104,3.5675965,5.3315767,5.7214764,7.7233599.0862107.0957078.1493509.2121442.3065077.4392062-4.7001311-1.9243026-9.0359916-4.1738902-12.7241443-7.4991601-8.8182965-7.9505087-17.6572351-15.8812426-25.4508906-24.8808505-2.5155484-2.9047108-4.7428028-6.0190507-6.8070026-9.2548141-3.8036786-5.9622418-7.4189772-12.0178497-10.0403376-18.6262815-1.05014-2.64777-1.075292-5.3847429-1.1436361-8.1235805-.1304436-5.2392081,1.3708716-10.1554731,3.3263107-14.9311036,2.3004554-5.6179628,4.8045553-11.1473732,7.7280868-16.4774755.3346085-.609893.73149-.982403,1.4510111-1.1276342,3.3351572-.6732501,5.5790639-4.9523884,5.5218214-7.4261325-.0397228-1.7216988-1.0818836-2.6305539-2.8333312-2.5071355-3.1457365.2215979-6.3206147,3.1463436-6.7700552,6.2654537-.1866453,1.2945916.2104096,2.4357992,1.1592477,3.3227547.4126665.38591.4147481.6692604.2032977,1.1509215-2.3034042,5.2449758-4.7797502,10.4141052-6.92461,15.7285092-1.247193,3.0904021-4.6434089,13.1560651-4.6552044,15.1576018-.6593297-1.8214396-1.3271591-3.6399303-1.9766015-5.4649258-.5498751-1.5452444-.6078115-1.5333189-1.0218657-3.1068376,0,0,3.2003771-32.1614916,14.8049966-44.4678523.4107584-.4355635.8059053-.8767212,1.288824-1.2340099,1.0074683-.7451068,2.0872703-.8663135,3.2048871-.3182164.5828329.2858223,1.1797162.5984445,1.6631553,1.021432,2.1681037,1.8973293,4.6541636,2.3443413,7.3997229,1.7545699.2216847-.0476154.4503078-.0625765.6726863-.1072864,1.0395588-.2088485,1.9169305-.0143106,2.8721867.5762413,2.941745,1.8184907,5.7584238.4592411,6.3998869-2.9563592.1935838-1.0314495-.0740683-1.9098619-.781794-2.6628178-.2327862-.2476173-.4596748-.5311412-.7488362-.6896422-.921778-.5052086-1.0915975-1.1224304-.5405081-2.0428207.3469243-.5793637.4414612-1.2795871.5290596-1.9601659.2653971-2.0623352-.7524789-3.7773557-2.7028876-4.4987415-1.4017478-.5184784-2.8355862-.5005251-4.2800057-.2088918-.2466632.049827-.4933264.0991336-.873382.1755004.4374716-.7715164.832445-1.4332746,1.1939401-2.1129427.8383427-1.5765977,1.2891709-3.1802555.6013934-4.9725534-.9212576-2.40102-3.115901-3.6584473-5.6337045-3.1311223-1.3108536.2745473-2.4371435.8911619-3.4383672,1.7728268-3.3159029,2.9198888-4.8761952,6.7562216-5.7325779,10.9575622-.4031261,1.9772953-.6818798,3.9771841-.7474485,5.9932048-.0778845,2.3902654-.9018298,4.4837804-2.31121,6.3768164-2.552149,3.4283064-4.7702098,7.0634665-6.4106416,11.0092105-1.0192637,2.4520613-1.8695753,4.9745049-2.7606505,7.4796889.0003469.0000867.0005204.0002602.0006938.0003469l-.0006938-.0001735s-3.368462,12.0949536-4.5624021,20.735755c-.816313-3.5630865-1.3266387-7.1877521-1.6135451-10.851837-1.0907302-13.9351271,1.1217799-27.5035986,4.6867745-40.9096227.6629724-2.4932586,1.3772897-4.973811,2.2862315-7.3926543.9767655-2.5996342,2.8076587-4.591934,4.7651794-6.4458544.9023502-.8546915,2.215112-1.1164459,3.3988178-1.5075598,2.0187528-.6669621,4.0898911-1.2109828,5.9174886-2.34265,2.4496328-1.5167966,4.3185143-3.5164686,4.9141834-6.4397832.4749394-2.3313316-1.4863974-4.273761-3.8394118-3.8829074-1.8060882.2999595-3.1856328,1.2795004-4.3225039,2.6583512-1.1840528,1.4361801-2.0503229,3.0698902-2.820495,4.7452746-1.4555211,3.1663352-3.5648211,5.8554759-5.9272025,8.3719784-.0888126.0946236-.2003488.1680415-.3217723.2683026-.0218562-.1056818-.0579364-.1695159-.0405901-.211407,2.0310686-4.92754,3.5851162-10.0428961,5.8533076-14.8768099.240939-.513448.5309677-1.0043894.7599378-1.5227811.7169192-1.623259,1.7394787-2.8014575,3.4685496-3.5805195,2.83177-1.275901,4.8173915-3.6491238,6.6590394-6.0912977,2.3771256-3.1520679,4.7655263-6.2933378,7.3631224-9.2705558.3528221-.4042102.6631459-.5506557,1.2267245-.469432,1.6980212.2447551,3.409746.0836955,5.0961452-.1322215,2.7361923-.3503069,5.3658789.0467914,7.9842904.8066858,2.5306397.7344822,5.053647,1.5072128,7.7218421,1.6387405,4.0924931.2016931,7.7964309-.9014396,11.1808514-3.1685034,1.3712185-.9184822,2.6279519-1.9834099,3.8845119-3.0466896.2367759-.2002621.6197803-.5006986.3646175-.8427226-.2340005-.3134895-.6431977-.1360811-.9295838.0568522-2.2806807,1.535704-4.8690832,1.7620288-7.5032798,1.756001-2.1028819-.0047702-4.2007335-.1672609-6.2907792-.3848692-3.5870243-.3735074-7.0569616.2041216-10.529154,1.0509206-3.2041933.7814037-6.4828018,1.1396031-9.7881236,1.1700457-.272856.0024718-.5594155.0821777-.8142314-.060972-.0756295-.1552053.0433655-.2265416.1143116-.2986585,2.5302927-2.5721838,5.1041245-5.0977064,7.8515918-7.4416574.8549951-.7294952,1.8062616-1.240428,2.8675032-1.6167108,4.7487005-1.6839274,9.6878624-2.6091747,14.58071-3.7212407,5.0987471-1.1589008,10.1055593-2.5675437,14.7987519-4.9672195,2.1068716-1.0772001,4.3905011-1.5196154,6.7764733-.9631487.5490078.1280585.6976649.3221193.6676559.974684-.0959246,2.0894386-.9120641,4.0385463-1.0445892,6.1143682-.1018223,1.5984973-.1528202,3.1813396.4171765,4.7093246.827588,2.2177573,3.4560604,3.1554938,5.5041282,1.9587782,1.024988-.5989649,1.2071233-1.5914721,1.1025256-2.6647693-.1276682-1.3110705-.5795371-2.538749-1.0357426-3.7629149-.1236785-.3320933-.2340005-.6692171-.4314004-1.2372623.5665275.6303182.9503993,1.0823172,1.3616781,1.5078633.4086769.4227707.768264.8060354,1.5240387.5848277.5998322-.1756305,1.1722574.3286241,1.690042.6724695,1.3219552.8775885,2.5805968,1.872264,4.2286609,2.0950328.9618478.1300099,1.9221344.2193429,2.8701051-.062403,1.6529211-.491375,2.2324582-2.0102965,1.334618-3.4957398-.2468367-.4082432-.5311412-.7938063-.8048645-1.1998379.4279312-.3076785.9020033-.2919368,1.3302814-.4125364.766009-.2157436,1.5280283-.4370813,2.2369682-.8026962,1.2048683-.6214716,2.1330644-1.487655,2.065761-2.9563592-.0702522-1.5319746-.9255942-2.6080472-2.3035777-3.2116955-1.9694895-.8626708-4.0683818-1.2079472-6.1957219-1.4144973-3.9913646-.3875579-7.9381495.1060288-11.8858016.5818789-2.0284667.2444949-4.0536375.5153561-6.0824511.7572491-.9960198.1187782-1.9599491.3621023-2.8558812.797449-6.6364893,3.2247919-13.7083687,5.0464917-20.8791215,6.5828028-2.6281254.5630149-5.2158341,1.3140193-8.0658176,2.0415197.3724233-.3269328.5767617-.5205166.795671-.6962338,4.8284931-3.8786142,10.1830969-6.9057026,15.6846232-9.6973161,4.4760179-2.2711836,9.3331323-3.3295197,14.1675231-4.4450549,7.0583493-1.6287231,14.2029094-2.7621683,21.4034977-3.5309527,2.9356738-.3134461,5.8803677-.5471431,8.8320001-.6778468,1.4527457-.0643111,2.8034957.3685204,4.1587556.7882989,3.25363,1.0078586,6.4456809,2.1756493,9.5216857,3.6505982.5488343.2631421.9117172.6398152,1.1354834,1.1895169.3739844.9189592.8293227,1.8109017,1.130453,2.7525411,1.2874363,4.0249729,3.8921443,7.0385746,7.3169814,9.3434099,4.173153,2.8085261,8.6144785,5.1549489,13.2332558,7.1540571.5800575.2510865,1.1738185.54749,1.8811973.4368645-.112577-.4975762-.4556851-.7899034-.8052114-.9892548-3.2300391-1.8415612-5.186519-4.859803-7.2449946-7.7840717-1.3563007-1.9264275-2.6269112-3.9159519-4.1819996-5.6951101-2.735325-3.1295612-6.2222616-5.1637955-9.9711262-6.8128136-3.0659439-1.3485383-6.2352713-2.4263455-9.3737224-3.5848994-.3137931-.115786-.6223823-.2453189-1.1684412-.4615828,1.8350563,0,3.441663-.1611464,5.0064653.0265397,9.1912402,1.102222,18.2893313,2.6925666,27.2299186,5.1637521,2.256049.6235532,3.7249267,1.6475437,4.7374254,3.8581023,2.2900476,4.9994401,5.6057771,9.2630102,10.1936781,12.429779.5948018.4104982,1.1630639.868872,2.0007127,1.1490134-.2430205-.7036927-.6445854-1.1338789-1.0397323-1.5615065-1.4673165-1.588263-3.13689-2.9642517-4.6987434-4.4535546-1.8159755-1.731803-4.2461806-5.3444563-5.2916371-7.9639953.4865614.3340448.8652293.5545152,1.1993175.8292793,6.8482866,5.6320132,14.1843489,10.6130229,21.2551875,15.9476786,1.2005317.9057761,2.341219,1.8912581,3.5025482,2.8482923,2.2624671,1.864198,4.0878096,4.0674712,5.4272845,6.6977215,1.6230856,3.1869338,3.2088768,6.3854462,4.4708141,9.7368221.1866453.4954947.2400716.9557766.1202093,1.4802828-.752132,3.2893632-.4771944,6.4724808.978847,9.5483988.9606335,2.0295508,1.9304605,4.048477,3.3205864,5.8280689.2359086.3019109.5200396.8347433.8742494.7006571.4704294-.1781023.2107565-.7505275.1618402-1.1439397-.7764167-6.2472402-2.6244827-12.1805572-5.2454961-17.8896744-1.3972378-3.0432204-2.8867575-6.0396493-4.4312647-9.0098855-.1496979-.287687-.396708-.5505689-.3694744-1.0124987,3.5113948,3.3164233,7.2547085,6.2730861,10.4752072,9.7893378.9922036,1.0833146,1.6404318,2.4168051,2.0281197,3.806584.9864794,3.5366769,3.0869329,6.056215,6.4324978,7.5628207.7316635.3294914,1.3602904.8729918,2.2086939,1.0856564-1.0886486-1.3082951-.9833571-2.9796031-1.4699185-4.4617507-1.1589008-3.5311261-3.475835-5.9297611-6.9076107-7.2615603-.8244657-.319951-1.4456338-.8406844-2.066108-1.4368306-6.3870507-6.1374386-12.5883234-12.4797795-19.5639313-17.9745408-4.6172162-3.6371982-9.5032987-6.919623-14.0771493-10.6161886-2.6477266-2.1397426-5.2834844-4.2953137-8.0684196-6.29182.1852576-.2002187.3259354-.0668697.4596748-.0179967,13.9579808,5.1051219,26.9634807,11.9382306,38.5811098,21.2848062,2.4147669,1.942733,4.6846929,4.0469593,6.8791629,6.2337969.2234193.2225086.4305331.4448871.518305.7624096.7559482,2.7377969,2.3526675,4.9536894,4.3452275,6.9096922,1.0333142,1.0143201,2.0548329,2.0553533,3.187194,2.9508084,2.4531021,1.9396974,4.2104474,4.402947,5.803177,7.0551403,5.3971021,8.9870319,9.5102372,18.5661335,13.2840802,28.3127562,2.650502,6.8452944,4.7719444,13.8269301,5.8758577,21.1012398,1.0314061,6.7952072,1.2997521,13.6179082.850832,20.4720058-.0759764,1.1597247-.1826557,2.317498-.343802,3.4832072-.362189-.8234683-.3684337-1.7135461-.4759802-2.5770842-.9370427-7.5302098-3.6009013-14.5048203-6.8500213-21.2871045-2.6995918-5.6349187-5.796412-11.0539638-9.0141353-16.4057055-.467654-.7776309-.869219-1.5947679-1.3347914-2.3736998-.2393778-.400264-.2617544-.7006571.1248928-1.0219524.6771963-.5627113,1.0223861-1.3329701,1.3099863-2.1494132.4712967-1.3384341.9209107-2.6790799,1.2222145-4.0697262.5732925-2.6457752.1937572-5.1902051-.7620193-7.6778695-.2038181-.5307075-.4948876-1.0203045-.8589847-1.4628932-1.1122395-1.352181-2.3537082-1.3915136-3.3575338.0445798-.5394674.7717766-.9295838.8489672-1.7694876.4615828-1.7020109-.7850031-2.7289069-.3686071-3.6881527,1.2705237-.3153542.5385567-.6138826,1.0868706-.9200434,1.6307613-.362189.6436314-.8546481.8496611-1.5618534.5294499-.541202-.2450153-1.0992298-.4663097-1.6688796-.6320528-1.3021805-.3788414-2.09577.1219873-2.3370559,1.4580797-.1110158.6143597-.222552,1.2455885-.0855169,1.8625935.1183012.5329192-.0869045.6843083-.5719048.7747254-.6111072.1138779-1.2060825.3200377-1.7443356.6539958-1.0929852.6779769-1.3122413,1.5786792-.6239434,2.6743964.5864756.9337902,1.4152779,1.6406052,2.3360151,2.206699,4.058321,2.4949932,8.3698968,4.0543748,13.2365516,3.3599623.4589809-.065482.6142296.2004355.823078.4447136,1.1483196,1.3432477,2.0785972,2.8387952,2.9877125,4.3463983,2.62535,4.3535103,4.9513043,8.8657818,7.103623,13.4689475.0908942.1943644.2577648.3811831.1946246.6287137-.0497836.0163922-.1143116.0587169-.1379024.0422814-3.8427075-2.6667641-8.240841-4.1518605-12.5211936-5.8864389-1.4988866-.6073778-2.9790394-1.2539581-4.4265812-1.9771219-.4338289-.2166976-.7195211-.4858675-.8588112-.9688296-.6572482-2.2814179-2.2478963-3.6794363-4.3811341-4.5491756-.910156-.3710356-3.1814697.1757172-3.9695084.9807551-.9804082,1.0016573-1.0126722,2.1786849-.5287127,3.3981674,1.1831855,2.9817714,4.6635306,4.1411492,7.523228,2.4518011.7517851-.4441065,1.3037417-.4650521,2.0694037-.0603648,3.3233618,1.7565647,6.9776894,2.6924365,10.4379129,4.1155635,2.1811134.8970596,4.3370747,1.8390893,6.2581683,3.236544,1.0046929.7308829,1.8031393,1.6271186,2.3169343,2.7773029,2.9360208,6.5726986,4.9929352,13.3950526,5.6661419,20.5801595.3035588,3.2403168-.1195154,6.4769908-.6595032,9.6676974-2.439572,14.4172652-7.9468226,27.6436693-15.7828028,39.9249213ZM246.2779928,162.6850796c3.2779147,6.1012718,1.6301975,21.7287826-2.8107811,25.5256961,3.1948263-8.4054132,3.3495546-16.9289975,2.8107811-25.5256961ZM242.2930463,187.5867022c-.137729-4.0756239-.6352185-8.1451766.4633175-12.1577036.8138845-2.9728815,1.7361829-5.9064738,2.8605647-8.8013406.2277558,7.2080472-.8466689,14.1999605-3.3238822,20.9590442ZM250.0799368,122.3350893c.930798,1.6769889-.3014773,12.3019374-2.4291643,15.1191799-.442502-5.206684,1.0893425-10.1027839,2.4291643-15.1191799ZM247.4011604,129.478435c-.7386019,2.5562253-.4098911,5.1849578-.9063399,7.7757455-.8421589-1.9102956-1.0768532-3.9425784-1.015621-6.0034825.1061589-3.5689409,1.2841405-6.7296819,3.7769654-9.3470526-.3672194,2.5918718-1.1351365,5.0830922-1.8550045,7.5747896ZM189.5997478,223.0941057c.7523054-4.1391978,2.4480717-7.5067057,5.8687457-9.8504832-2.0836276,3.1434815-2.93949,7.0028848-5.8687457,9.8504832ZM199.5042645,211.6946053c.933053-1.1924657,2.2711402-2.0105133,3.5695046-2.8439557-2.196725,4.6577629-3.8626557,9.6542108-8.5999077,12.5332926-.3106708.1888569-.5835268.4494405-.9682659.5262842-.1823087-.431704.0504775-.790337.2175216-1.1280245,1.5993212-3.2365006,3.5630865-6.2528777,5.7811473-9.0875966ZM163.7736586,227.2512134c.0497836.1845638.1640952.4335253-.0869045.5118869-.2725091.0851699-.2709479-.225284-.346404-.3830478-.1207297-.2524742-.2237662-.5067697-.5861287-.6814028.0100608.8501815-.4140542.7785416-.9637558.5537346-2.2270809-.9108932-4.5022107-1.7168419-6.6775999-2.7363658-1.1191779-.524593-1.2482338-1.8089503-1.3668819-2.931424-.1035569-.9788037.5120603-1.5909951,1.3146698-1.9954655.6912468-.348312,1.398799-.0505209,2.0673222.1300966,1.4360933.3879482,2.5835456,1.2685722,3.6099213,2.309909.9566439.9704775,1.870963,1.979507,2.5401801,3.1803422.3883818.6968409.94693,1.2460222,1.6272487,1.8002772-.5108461.1865586-.7904671-.1479199-1.1412076-.1106255-.1694725.1143116-.0234174.230271.0095404.3520848ZM161.4435412,228.6200902c-2.9252661.7836587-5.856083,1.1850502-8.8455301.8900778-.9758982-.0963149-1.8409541-.5440641-2.5981164-1.1731247-.5396408-.4482696-.9094622-1.0203045-.6046891-1.7105105.3052934-.6905529.8216903-1.230931,1.68744-1.2017026,2.5181504.0849531,4.9490493.5488777,7.2304238,1.6651501,1.0400792.5088947,2.0548329,1.0715192,3.1304719,1.5301098ZM164.8961323,224.3880901c-1.295589-1.8163658-2.4262154-3.420067-2.627605-5.4483168-.1743295-1.7541796.7601112-3.0330295,2.4513674-3.4813858.6230761-.165136,1.1366976.1277549,1.5092944.5537346.5821391.6654009.873382,1.532625.6577686,2.3677153-.5077238,1.965153-1.4360933,3.7941815-1.9908254,6.0082527ZM168.350458,218.492371c.242847-.4334386.4527363-1.1559519,1.0780674-.9929842.6839614.178189.7491831.9199133.8104153,1.5355305-.0584568.6452793-.199655,1.248494-.4319208,1.8339722-.7287146,1.8374414-1.8676672,3.432296-2.9724478,5.0472722-.1070262.1565062-.2255008.3761527-.4588075.3049465-.2594994-.0791421-.1755437-.3344784-.1498713-.5115833.3623625-2.5072223.8699128-4.9770201,2.1245647-7.2171539ZM107.8218732,224.4470239c-1.7318463-1.6126345-2.4341947-9.7586784-1.9105124-12.919853,2.111555,3.2561452,2.7084384,7.4081792,1.9105124,12.919853ZM74.7251169,196.7606829c.1300966-.3126222.2808353-.6180457.4416347-.9164007,1.0102437-1.8742154,2.2083469-3.6252727,3.5526788-5.2718624.2981815-.3653113.4574198-1.0544332,1.2138883-.7682206.8633212.3268027,1.5171002,1.1112854,1.5183144,1.9170172-.0671299.7773274-.479276,1.4420778-.9937648,2.0615112-.9979279,1.201399-2.2813745,2.0177987-3.6489503,2.7226623-.5026934.2591091-1.0022644.5241593-1.5066924.7797992-.1722479.0873382-.3800556.2460995-.5470997.1101051-.1991346-.1621004-.11674-.4262399-.030009-.6346114ZM72.7722797,193.7917044c-.1045977.201086-.2058996.4791459-.4267169.4914617-.307028.0172161-.3524751-.3194306-.4501343-.5430233-.518305-1.1864813-.7143172-2.4356691-.7078991-3.2246618.0482225-2.5724007.6754617-4.508889,1.4692246-6.3902598.2513467-.5959727.593761-1.2739496,1.4567353-1.1791525.8067726.0886392,1.2940278.6456262,1.4588169,1.6299373.2078077,1.2402545-.1155258,2.4230497-.454124,3.5888023-.5698232,1.9608164-1.4043498,3.8176856-2.3459024,5.6268961ZM70.4607228,192.7132033c.1939307.4603252.311885.9526543.5297535,1.6340137-.263489-.236559-.3804025-.309153-.4542974-.4125798-1.7963743-2.5186708-3.1117379-5.2482282-3.56777-8.3367655-.1483102-1.0042159.3739844-1.8371813,1.1028725-1.8953344,1.2532642-.1000443,2.2149385.5458421,2.3433005,1.5893472.105465.8569465-.0336517,1.7021843-.2496121,2.5214462-.4411143,1.6739967-.3797087,3.2969522.295753,4.8998728ZM56.2808839,146.4311969c2.2655895,2.612297,2.4883149,11.6350187.4130134,14.5221665.1588914-4.7791865.6940222-9.5676965-.4130134-14.5221665ZM54.8987373,158.4247185c-.1465755.4912015-.224807,1.28349-.765662,1.2726486-.437992-.0087598-.4510017-.8175272-.5769352-1.2904285-.7753759-2.9117361-.3457101-5.7258996.761152-8.4692473.3344351-.8285854.7304492-1.6323224,1.137218-2.5337186.3316597.6195202.3250681,1.164625.3555975,1.6896083.1840434,3.1566646-.0010408,6.2827999-.9113703,9.3311375ZM51.5784978,121.5793579c.0150912-2.5579166,3.0244865-5.5870865,5.5931143-5.6299751,1.5490172-.0258892,2.4697544,1.0180929,2.0021004,2.4728334-.8211699,2.5540137-2.334107,4.5176489-5.1112364,5.1598926-1.2591619.2911996-2.4914372-.7325308-2.4839783-2.0027509ZM62.7924805,101.1766503c-.0745887.001301-.1500448-.0481358-.2378166-.0782748.0520387-.0491765.091588-.1192119.1302701-.1186481,2.0614245.0302258,3.806107-1.0179194,5.6682235-1.6628951,1.5776385-.5463625,3.1216253-.5533877,4.6003903.298832,1.1412076.6577252,1.6000151,1.8372246,1.2262041,3.0560132-.4829187,1.5745595-2.1648079,2.2690587-3.6149517,1.4919915-.1000877-.0535998-.2062465-.1026029-.2921103-.1745029-2.1651549-1.8117257-4.6149611-2.8621692-7.4802093-2.8125157ZM66.7833247,103.5301417c-.0143974.4997012-.7854367.3812265-1.2203064.4755466-2.6622974.5775857-5.0663097.1722046-6.9686694-1.969663-.087078-.0979194-.1672175-.2018666-.3812699-.4614961.6669621.059671,1.1698289.0490031,1.6458091.1571134,1.8768607.4262399,3.7904954.6341343,5.6760293,1.0007466.5052953.098223,1.2652331.2150497,1.2484073.7977525ZM72.0631664,97.2718866c-.1510856.1560292-.3035588.334305-.5800575.2862993-.0966184-.387688.162881-.6541692.3019976-.9432873.5335696-1.1098977.3585463-2.1246514-.4858675-2.9660731-1.3840547-1.3789376-3.0345473-2.232675-5.0288419-2.3147226.4690417.0200782.9358284-.106419,1.4050436-.1432364.5009588-.0393325,1.0177026.0477888,1.520396.1259769.5019995.0781447,1.0053868.1799236,1.4902135.3295781,2.4397455.7528258,3.1740109,3.768856,1.3771162,5.625465ZM66.7139398,92.2937391c2.0005393.2134452,3.2871082,1.3837511,4.2222428,3.0634721.1762376.3165251.0180401.527802-.1035569.7809701-.8204761,1.7079086-2.4163281,2.4088692-4.0244959,3.0743568-.7049503.29172-1.4546538.464445-2.3757379.589251.6381673-.4691284,1.3393014-.5041244,1.8995843-.9945454-.7049503-.0702955-1.2151025.3545567-1.7783342.3745048-.543457.0192977-1.2874363.7607617-1.6385237-.3399425-.0530794-.1668706-.3675663-.0636606-.5564667-.0172595-.4945407.1214669-.9731228.3241141-1.4959378.2952326-.2187358-.012099-.5288862.0647014-.5989649-.1945378-.0813538-.3008701.2353882-.4154419.4483997-.5338298.5719048-.3177393,1.272692-.2868197,1.9743465-.7410304-1.8078228-.4417648-3.3398407.3650945-5.1176545.608939,1.1228207-.95595,2.2437332-1.6406052,3.2407938-2.8286043-1.4785916.4759368-2.4923045,1.3576451-3.6980401,1.8770776,1.2761612-1.6971973,2.8962979-2.9813811,4.7705567-3.9409305,1.5094678-.7728174,3.0966467-1.2582512,4.8317889-1.0731237ZM65.8979738,88.3036321c-.5812717,1.062239-1.4525722,1.9480236-1.78163,3.1736206-.1320047.4920688-.7113684.4360839-1.24754.4547311.6074645-1.4905605,1.3453726-2.8259156,2.0700976-4.1672553.2525609-.4674806.7231638-.3918511,1.0464973-.2303144.4343493.2168711.0348659.5457554-.0874249.769218ZM65.3298851,86.4211338c-.2395513.0407636-.2749375-.088856-.3583729-.2415894-1.5556088-2.844346-2.6449512-3.2759633-5.7908612-2.307177-.1280151.0394193-.2657441.0472251-.4851737.084346.9155334-1.330238,2.0583022-2.2105586,3.4987321-2.6818553,1.5311506-.5009154,4.3500844,1.0139731,4.8109734,2.5595645.2976611.9984049-.6268923,2.4083922-1.6752977,2.5867113ZM60.3822235,84.3495184c2.3559632-.4241584,4.0458317,1.375902,3.3998586,3.6798699-.4168296,1.4867443-1.0383446,2.8009805-2.4308989,3.7328193-1.8876154,1.2629347-3.5082725,2.8733575-5.1745501,4.4653067.0834353-.2634023.1666971-.5267613.2501325-.7901636-.8690455.7644912-1.244938,1.8545275-1.9493679,2.881597.1000877-1.5272043.8754636-2.7179354,1.1569927-4.0747566-.3557709.5612802-.7113684,1.1226038-1.1682677,1.8432958-.149004-.9631921.0124893-1.7344483.1347801-2.4875777.3283639-2.0215715.8891671-3.9877653,1.7117247-5.8638454.784396-1.7889588,2.0648937-3.0256573,4.0695961-3.3865454ZM49.459137,75.6314397c.9739901-2.2553986,1.792905-4.4924535,3.1785209-6.4532699,1.0277634-1.4546538,2.3261278-2.5502842,4.0907585-3.0046684,1.5238652-.3923714,2.5927391.5094584,2.4758256,2.0755183-.0522121.697795-.3169154,1.3180523-.6593297,1.9116833-1.4253387,2.4719227-6.0588603,5.3005704-9.0857752,5.4707368ZM81.3515454,43.2482634c5.2156607-1.8636776,10.5190932-.4980099,15.7864455-.4512618-5.2451492.7751591-10.5293274.1156125-15.7864455.4512618ZM99.6908337,43.3061998c-2.1289013,3.3076635-12.7616121,3.8519878-17.8908886.9525675,6.0566053-.0188206,11.9558803.0253255,17.8908886-.9525675ZM119.076099,27.9332447c.1396371-.0009974.1935838.1030365.2402451.2060297,1.0189168,2.2455546,2.0227424,4.4984379,2.5929126,6.9106897.3660052,1.5482366.0173462,2.3616875-1.1458911,2.7984653-1.2464992.468131-2.6409616-.056115-3.260395-1.2662739-.4168296-.8141013-.6312289-1.697761-.7285411-2.6070064-.2284497-2.1309394.2173481-4.1742805.7986198-6.2022701.1281885-.4472722.3911572-.6628423.8622805-.6614546.114832.6127551-.0362536,1.2641923.3295781,1.8682743.4072892-.2725524.1030365-.7436323.3111911-1.0464539ZM122.7205393,27.0138952c-.1942776-.0627066-.8038237.0477455-.3013038-.4981834.1663502-.1807042-.1091077-.1911553-.1967061-.2519104-.2392043-.1657865-.6140561-.1285788-.7614989-.5370823.6872571-.0934527,1.3072109.0905473,1.9150224.2653538,3.3365449.9596361,6.4073458,2.4338044,8.9761471,4.8155701.8171803.7576394,1.5023559,1.6235626,1.4961113,2.8480321-.0041631.8002244-.3484855,1.2019194-1.1620231,1.2419892-1.6166675.0796191-3.1856328-.123375-4.6094104-.9158803-3.0113033-1.6761216-5.3141872-4.0727184-7.0810729-7.1478992.8848306.1641819,1.5930766.6765025,2.549894.5770219-.2756314-.3312694-.5673948-.3137931-.8251596-.3970116ZM135.1112893,27.2634205c-1.8281179-1.5297195-3.996395-2.2076965-6.2812388-2.6330257-1.5885666-.2957096-3.187194-.5487476-4.737252-1.0219524-.3382512-.1032534-.7066849-.1483102-1.1195249-.5032138.4985303,0,.8516993-.0097572,1.2041744.0015612,2.4681933.0791421,4.9351723-.2477907,7.4045798-.0043799,1.7830177.1757605,3.5644742.3483988,5.1686524,1.2474532,1.1840528.6636663,1.6586453,1.6007523,1.4950705,2.8897931-.1217704.9608937-.7512647,1.3527014-1.6109432.9454556-.5346104-.2532548-1.0728635-.5446279-1.5235183-.9216913ZM134.7990574,29.720729c-1.0213453.150305-2.027079.0095838-2.8655951-.5558595-2.4262154-1.6358784-5.0524327-2.9077031-7.6012859-4.3210295-.3649644-.2023436-.7418977-.4147481-1.0687005-.9119774,3.1440019.8923762,6.2222616,1.4368739,9.120988,2.6089145,1.0782409.4359104,2.1630733.8912487,2.9238784,1.8295923.6709517.8276748.5174377,1.1992307-.5092849,1.3503597ZM166.4121917,30.948581c-4.631787-2.3871431-6.9374462-6.4908678-8.3168174-11.2781203,3.4857224,3.2329446,5.1835701,7.7851558,8.3168174,11.2781203ZM161.1306154,20.8032121c1.2914259.5226849,2.421185,1.2882168,3.4857224,2.1561348,1.6624615,1.3553033,3.0775659,2.946602,4.3117493,4.6904606,1.6211775,2.2908282,3.1937855,4.6160886,4.9010003,7.0914806-1.9136347-.4835258-3.25363-1.4686609-4.5025577-2.5939967-1.3556069-1.2214339-2.5132934-2.6228348-3.5924016-4.0891973-1.6966335-2.3055725-3.1840717-4.7452312-4.6035126-7.254882ZM222.2912965,61.3222847c1.5516191,3.5233203,2.5825048,7.1982032,3.1610012,11.0047005-2.129942-3.355062-4.0000377-6.7857102-3.1610012-11.0047005ZM228.7751391,57.7779755c4.5318728,1.6078209,7.5742258,5.4244224,8.1324271,10.1308415-2.8824209-.8084638-4.9506104-2.4881848-6.1207863-5.1891643-.6931548-1.5997549-1.3174452-3.2293887-2.0116408-4.9416771ZM244.8453687,93.2417532c.0673033.4695187.2737233.9190026.2178685,1.4972821-1.4463276-.7197379-2.5408739-1.7586463-3.4891916-2.9710601-1.038518-1.3280698-1.8175367-2.7964704-2.363769-4.3914551-.2287966-.6680028-.3861268-1.3317125.1826557-1.9039208.398963-.4014348,1.7616818-.4710365,2.3504125-.1496979.6818798.3722065,1.2367853.9003554,1.7268159,1.4918614,1.5991478,1.9302437,2.4517144,4.1828235,2.8139034,6.6380505.0444063.3002197.0570691.6213415-.2411124.8569899-.2978346-.3695178-.2974876-.8550384-.5098053-1.2486241-.1510856-.2798379-.1883799-.8201292-.5719048-.7146208-.3824841.1050747-.1618402.5745067-.1158727.8951949ZM241.5431693,95.5239517c-2.1094735.1412416-3.9630903-.4132303-5.6794985-1.4569522-1.4966316-.9100259-2.6487674-2.1329776-3.1316861-3.8718492-.328017-1.1819713.3916776-1.9145454,1.5791996-1.556346,3.46456,1.0448928,5.9209579,3.3446543,7.7761358,6.3662786.0853434.1389866.1935838.2912864-.0234174.5599793-.6542993-.635869-.7479689-1.7768164-1.8628103-2.1211388.410238.763407,1.0303653,1.2537846,1.3420768,2.0800283ZM232.8719687,92.6956943c-.6974914-.3916342-1.1994909-.7909875-1.6175348-1.2899081-.2759783-.3292312-.4839595-.7004403-.4525628-1.1509649.0279274-.4024322.11223-.885481.5018261-.9943719.5002649-.1398539.5087646.4235079.6279331.7270233.3262823.8318379.7281942,1.6407353.9403384,2.7082216ZM234.4459645,85.1964041c.3871676-.5076804.8758105-.5322687,1.4376545-.3660919,2.1906538.6481848,2.5403535,1.6745171,2.9467754,4.0300901.0895065.7006137-.1647891.7330511-.5948018.4538204-.284131-.1845638-.6050361-.3332208-.8412915-.5670045-.781794-.7737714-1.7016639-1.1935932-2.801761-1.2040877-.3287108-.0031223-.552477-.1589347-.6364327-.4568994-.20191-.7175263.0594975-1.3255112.4898572-1.889827ZM240.427981,83.3557536c-.0568956-.4312703.2960999-.7091567.5866491-.9798445,1.4012274-1.3047825,2.3988084-.6941089,3.2047137.5244195.6145765.929367.7993137,2.039655,1.1033929,3.2877153-.3472713-.2275824-.5510893-.3323102-.7207353-.4771511-.9429404-.8050379-1.985448-1.3910799-3.2234476-1.6240396-.4065953-.0764968-.8843102-.2275824-.9505727-.7310997ZM245.5891745,84.0720657c-.311885-.8045609-.0378148-1.4981061.135127-2.2278614.1196889-.5040377.4366043-.2019533.6499628-.0937997,1.8980231.9627584,2.7724459,2.6041009,2.9587443,4.6439293.1056385,1.1556484.121597,2.3247834-.4220335,3.4117841-.4350431.8699995-.579884.9037379-1.3866566.1754136.1361678.7672666.4626236,1.4021381-.1026896,2.0262117-.272856-.2034278-.2574179-.486041-.2742437-.7483158-.1587179-2.4742211-.6631459-4.8793175-1.5582107-7.1873618ZM246.4014979,80.8251573c.0586302-.1962724.2662644-.1663502.4315739-.1736356,1.0052133-.0444063,1.7502333.627456,1.8439029,1.8271638-.63279-.6135791-1.2333161-1.0175291-1.9271648-1.2764214-.1620137-.0604516-.4310535-.0999142-.348312-.3771068ZM237.4485947,106.5600922c.0105812.5870394-.1724214,1.0604176-.6138826,1.3770728-.9738166.6983587-1.9826726,1.170436-3.2144275.5633184-.8142314-.4013047-1.6579515-.7398595-2.2647221-1.4499703-.9826632-1.149794-.7082461-2.4786877.6402489-3.1511139,1.9217874-.9584219,4.2761895-.1458383,5.2246807,1.8084733.1358209.2798812.2496121.5720349.2281028.8522197ZM261.9211586,166.1137763c-.1677379.1875126-.3406797.3704285-.575374.5292765,2.5819845-7.8274806,4.6005638-15.780331,5.8805412-23.9482745.0692114.4883394.1332189.9775461.2093688,1.4648447.0742418.4755899.0383351,1.0190903.2624483,1.4121122,1.2140618,2.1290747.8697393,4.3408475.4060749,6.5455518-1.0719962,5.0974028-2.6074834,10.000528-6.1830592,13.9964894ZM269.9906189,150.7899544c.1484836-2.6430431.9261145-5.118305,1.8667999-7.5630375,1.8343625-4.7675211,4.2186001-9.2775377,6.580808-13.8578931-.0333047.4255027-.0487429.8533038-.1025161,1.2762479-.7262861,5.7112421-1.384922,11.4320246-3.054322,16.9770899-1.4661023,4.8701674-3.9282244,9.1558106-7.3617347,12.8943974-.0544671.0593241-.1340863.0954042-.2987019.2090653.2164808-1.1765072.5562932-2.1705756.9500523-3.1368466.8896875-2.184149,1.288477-4.4659571,1.4196144-6.7990234ZM283.1274298,104.9822803c-1.9797238,1.819358-5.0251992.8088108-5.6010936-1.8344492-.6114542-2.8076154,1.8026189-5.8531341,4.6874683-5.9133689,1.9014924-.0397228,2.9779986,1.1353533,2.9502447,3.7375895-.0617525,1.2731256-.7236842,2.8036691-2.0366194,4.0102286Z"/>
  </g>
</svg>