<?xml version="1.0" encoding="UTF-8"?>
<svg id="Layer_2" xmlns="http://www.w3.org/2000/svg" viewBox="0 0 108.9146547 201.6598753">
  <g id="Layer_1-2" data-name="Layer_1">
    <path d="M108.4693583,38.8258193c-.7406751-6.1336201-4.1203684-10.2522349-9.6197307-12.827292-.6804058-.3182365-1.6623425-.2890709-1.8509031-1.4457239-.4861228-2.9830053-.8039901-3.2809367-3.7984401-3.8553867-1.326939-.2543677-2.5265095-.5633745-3.3667719-1.8016171-.7151091-1.0540198-1.9056346-1.5479878-3.1553219-1.4889184-1.2302128.0579619-2.0460168-.5002441-2.8415156-1.2877132-3.238019-3.2056232-6.961884-5.7592677-10.8138557-8.1648695-4.1351357-2.5824409-8.8009732-4.3113287-12.434019-7.6974828-.5419619-.5050435-.8031594-.1790542-1.1329329.2392311-4.1500877,5.2623463-9.5163592,9.2358718-14.4623149,13.6564789-.7146476.638688-1.1126278.8731197-1.7015683-.1849611-1.0975835-1.9718108-2.9229206-2.7777391-5.1506682-2.7456201-1.0261464.0147674-2.0558001.0406102-3.0787162-.022151-2.5237406-.154688-4.5608047.8565065-6.3919565,2.4860839-1.2055698,1.0728482-1.3089413,2.9627002-2.8872944,3.7689977-.2901785.1480427-.1923448.6984958.0067376,1.0104561.5736194.8993318,1.2585477,1.6831091,2.4775927,2.1050862-.0197513-1.0396217-.7776857-1.3663493-1.1515766-1.926032-.2468917-.3699222-.495537-.7509199-.0934958-1.1219496.3446331-.3178673.691389-.0660839.9418802.1964058.8649054.9056079,1.9697803,1.3759481,3.4668207,1.6155484-1.3228779.9240671-2.3610229,2.2468528-3.3374218,2.2029199-1.8547795-.0841739-1.7787277.4910145-1.4827345,1.8795149.258521,1.2127689-.1389977,1.9548284-1.6775713,1.4486773-1.5447574-.5079969-3.1469229-.8177422-4.5084729-1.7938642-.7195393-.516119-1.5668162-.5980778-2.4305217-.4677559-1.3120793.1978825-2.6269275.3806285-3.9332845.6109992-2.1927673.3869046-4.239061,1.0104561-5.2886506,3.2813058-.1642868.355524-.5403005.660839-.8885332.875704-2.4095705,1.4870725-2.6047765,2.1025019-1.031315,4.4619557,1.2714691,1.9064653,2.6392952,3.7531228,4.0455164,5.5636003.7529504.9694767.7653181,1.4966712-.3929962,2.1936903-2.9999878,1.8053089-5.7912021,3.9155637-8.5235316,6.1162684-1.991839,1.6041037-2.4623638,3.359942-1.5011014,5.7101662,1.8482265,4.5191792,3.5716689,9.0893058,5.3764241,13.626575,2.3457017,5.8973424,5.0179466,11.6292905,8.6735125,16.8550876,1.8695469,2.6728909,3.5123226,5.4845949,5.113196,8.3254645,4.043855,7.1761952,8.8031883,13.84144,14.2732928,20.0086558,4.981582,5.6167627,10.6310175,10.5401982,16.0528511,15.7010189.4193928.3994569,1.2591937.7479664,1.0654645,1.3460442-.8539222,2.6363417.4443127,4.309852,2.4271991,5.6909687-2.2585744,2.4052326-4.9227894,4.0599145-7.5742677,5.7352707-2.3974798,1.5151304-4.3426171,3.4610984-5.513299,6.0830419-1.1882181,2.6607078-1.1552685,5.2715759.4981213,7.7554446,1.2939893,1.944122,3.0689329,2.2283936,4.9149443.8070358.9314508-.716955,1.5590633-1.6764638,2.0739824-2.7090709.902193-1.8097391,1.7793737-3.6316613,2.7277147-5.5728299.0597155.2850099.1310603.4142243.1009718.5124272-2.9086148,9.4743645-3.3927994,19.3389564-4.7021098,29.0713804-.6553936,4.872119-1.6508978,9.6401281-4.6477475,13.7321616-.2785492.3802593-.7589497.8302944-.1996362,1.5169763,2.4955904-1.4364943,3.6283386-4.076897,5.4524759-6.2285003.1911449,1.1511152.340849,2.1468039.5275637,3.1358474.0919268.4865843.3024538,1.026331.8391548,1.0525431.4648024.0228894.5961396-.5290404.7629184-.9070847,1.1698512-2.6536933,2.2596819-5.3579649,2.7567879-8.212125,1.0908459-6.2643112,1.2554096-12.6031975,1.2020625-18.9487291-.0376568-4.4663859.0082143-8.9283417,1.0289153-13.3219984.0441175.2802105.1138009.5585751.1287529.8402624.7213852,13.5715666-.6079535,27.0150265-2.5573364,40.4160302-.5912479,4.0650831-1.8018017,7.9968909-2.7462662,11.9855529-.1349367.5700198-.4696941,1.1850801.1361365,1.6768329.6363806.5168574,1.2985118.1816384,1.8529336-.1329062.7822082-.4444973,1.5391274-.9650465,2.2152875-1.5572174,1.3798246-1.2083387,2.7660175-1.5287902,4.4415583-.5401159,2.796106,1.6498825,5.6549733,1.6439756,8.6736048.4020412,4.0856651-1.6805248,8.2774706-2.1357284,12.4859816-.2665507.4832616.2144958,1.0357452.273196,2.0683524.5334706-3.6868543-13.9341051-6.4443806-27.7814521-11.1852547-41.1193254,5.2699145,8.3081128,7.0472578,18.3285002,13.1561425,26.2220196-.0279657-2.1922136-.3974264-4.3120671-.467479-6.4418886-.2120038-6.4426269-1.839643-12.331109-5.8850671-17.5177725-1.9996842-2.5639817-3.3297612-5.5894431-4.6480244-8.573556-.5229489-1.1836033-1.186003-2.3229046-1.4400015-3.7970557,1.5041472.7767628,2.8213028,1.4734127,4.3688291,1.556479,2.3291808.1255225,3.6430137-1.261132,3.2934889-3.588836-.2587979-1.7233501-1.1193654-3.1742425-2.1925827-4.5033043-2.9948192-3.7084515-6.9797894-5.8604241-11.4514362-7.2382181-.5787879-.1783158-1.1549916-.3651228-1.9732876-.6242898,1.1209344-.634627,1.963135-1.0890923,2.7828154-1.5808451,1.2572555-.7542426,1.6138871-2.0327261,1.3368146-3.2835209-1.0270694-4.637318.282241-8.5510358,3.3569885-12.0125033,2.6477864-2.980421,5.1574981-6.0727048,7.5184286-9.2875575,7.2511395-9.8738214,15.2254179-19.2163873,21.8304857-29.5635024,3.8040701-5.9593653,7.2888886-12.0505293,8.7420884-19.1344285,1.3981914-6.8155026,1.7483623-13.6247291.916222-20.5166528ZM97.2144202,27.0455326c.0047071-.9650465.6166293-.6874203,1.1028444-.4865843,1.3924691.5755576,2.5913013,1.4412937,3.9322692,2.7526346-1.88736.2580595-3.4223341.6911121-5.0365903,1.5863829,0-1.4209885-.0045225-2.6367109.0014767-3.8524332ZM99.6937665,31.1467957c3.2072845-1.8721312,3.8598169-1.6041037,5.2846819,1.8957589.6830824,1.6783097.4660023,3.2986575-.1196156,4.9389412-1.5862906,4.4427582-4.7357055,7.6539191-8.3098664,10.5114019-1.5917361,1.2722075-3.2202059,2.5130343-5.3570419,3.6467978.786823-2.3797589,1.4683364-4.4756155,2.1775385-6.5622425.1853303-.5452845.7206468-.5674355,1.1964325-.6634233,1.2905744-.2606438,2.5779184-.5371625,4.1920823-.875704-1.6895698-.968-3.2124531-.2709809-4.754257-.5515606.9473257-3.4481769,1.8131541-6.8775255,2.8567444-10.2522349.3822899-1.2360274,1.817492-1.4948253,2.8333013-2.0877345ZM23.3017877,49.5867895c-.5924477-.6634233-1.1121663-1.3899771-1.1791731-2.3660991,1.9541823,2.3683142,4.5931083,3.6575042,7.2404332,4.9430022.5191648.2521526,1.287344.3326346,1.388685,1.0089794.1041098.6940656.2300938,1.6842166-.1443509,2.0785049-.5290404.5574676-1.178804-.2687658-1.6631731-.6276125-2.0309725-1.5055316-3.9535896-3.1458154-5.642421-5.0367749ZM23.826121,52.2774012c-1.3698566,1.0813394-3.026569,1.311341-4.6458093,1.652836,1.333492-1.1891411,2.9432258-1.5586941,4.6458093-1.652836ZM21.1462156,43.2290748c-.8373089-1.3851777-.7381831-2.968238.6024157-4.9481708,2.0575538-3.0387521,4.925466-4.6365797,8.7749458-4.3637528-4.7810228,1.5815835-7.7251716,4.8396308-9.3773615,9.3119236ZM21.6052957,49.3364828c-2.5701655-.9019161-4.5250862-1.9976537-6.4167841-3.1768268,2.1713547.6593623,4.4042707,1.1496384,6.4167841,3.1768268ZM23.0215772,29.8642511c1.7264882,3.7438932,1.5055316,4.6347338-1.5586018,6.7091777-.4154241-2.4569184,1.1943097-4.299884,1.5586018-6.7091777ZM48.8510621,24.1245502c.4451434,1.2969428,1.139209,2.4775927,1.6411144,3.9635576-1.3770557-.164656-2.4996514-.5633745-2.9712837-1.7750358-.866659-2.2261785.5355011-3.9613425,1.2956506-5.9482898,2.014267,1.4036369-.4145011,2.4513806.0345187,3.7597681ZM50.3007547,35.7054776c-3.0199237-1.930093-3.0101403-4.8112036-2.7485736-8.1475179,1.1002601,1.5136537,2.4207383,2.4144622,2.0698291,4.4409122-.196775,1.1370862.4151472,2.414093.6787445,3.7066056ZM51.2509415,39.91565c-.1221998.140659-.1783158.2706117-.25446.2835332q-3.1460923.5371625-3.140093-2.6200976c.0014767-.8236491.0001846-1.6472982.0001846-2.930212,1.8543181,1.7229809,3.2218673,3.3414828,4.9969031,4.51881-1.8448116.200836-2.7761701-1.273315-4.4563257-2.369791.6796674,1.670926,1.9536285,2.2498062,2.853791,3.1177574ZM52.0989568,36.7458376c-1.1341327-1.7484546-1.4863341-3.6202166-1.8209069-5.6466666,2.4966056,1.0499588,2.8559138,2.2309779,1.8209069,5.6466666ZM55.5066158,41.4820969c1.7188276.680775,2.8246255,2.5621358,2.5403539,4.7624714-1.1296102-2.4890374-3.1490457-2.8312708-5.3710709-2.4196308-2.3216125.4300992-4.3275728-.5515606-6.3276262-1.2648238,1.5155919-1.662804,6.1705385-2.2608818,9.1583432-1.0780168ZM53.4095594,31.3716287c1.8208146,2.2021815,1.7749435,4.5258245-.1198924,6.705855-.2324012-2.3037071.0035995-4.400302.1198924-6.705855ZM26.3757045,43.6348078c4.2603814-.1100168,8.4701845-.3669687,10.9649442-4.6631609.6999725,1.5358047-.1039252,2.9911274-2.5323242,4.5350541-3.3566193,2.1335133-6.6955179,2.1733852-8.4326201.1281068ZM26.7109234,44.886341c-1.8674241.6253974-3.6716254.1148162-4.3332029-1.0167323-.5584828-.9554477-.2381236-1.6912311.9229596-2.5004821.2193875,2.1021327,1.5579557,2.9379649,3.4102433,3.5172143ZM31.6791225,41.4067834c.6708993-.0671915,1.3395835-.1484119,1.8991739-.524241.8957323-.6017696,1.7245499-1.428003,1.1059824-2.5340778-.5687277-1.0167323-1.5793684-.5633745-2.4054172-.136598-.6876049.3558932-1.333492.8269718-2.6475095.387643,2.0110366-1.2736842,3.8057315-1.6956613,5.7641594-1.2138764.8386011.2063738,1.0555889.8513379.9017315,1.7011991-.4058253,2.2431609-5.8547017,4.7709626-8.038424,2.6632921-.2294477-.2215103-.3859817-.4574188-.2593516-.9783371,1.1722509.5471304,2.3999718.7627338,3.6796552.6349962ZM28.786198,39.8687636c1.8524721.0299039,3.3996293-1.5712464,5.3429206-.8502304-1.7300877.7099405-3.5053081.9672616-5.3429206.8502304ZM41.9489858,41.1826889c-1.3755789,3.1531991-2.8711426,5.7784652-5.076093,7.9725247-.4092403.4072098-.791807.475878-1.2819908.3942883-2.2524828-.3743524-4.45891-.9181602-6.7771998-1.7787277,4.3418787-2.2224866,8.8054034-3.7885644,13.1352836-6.5880854ZM37.2357082,51.0236529c.2656278-1.5446651.9615393-2.6341266,2.3720984-3.3104714.3898581.5297788-.2467994.8247567-.1245995,1.2323356.0119062-.0095988.0240892-.0191976.0359954-.0284272-1.8812685,2.2811869-.6374882,5.8829443,2.3596384,6.5223707,2.6758444.5714966,5.2777597.0387643,7.7853485-.9668924,1.767929-.7092021,3.5224752-1.452,5.5390495-2.2856171-3.5314279,6.1450648-9.0582021,6.6840732-14.1330029,4.163286-1.852749-.9203753-4.3695675-2.215103-3.8345278-5.3265842ZM53.7639758,51.8705606c2.1224378-3.1517223,2.197659-4.1806376.4248383-5.8124302.499598,3.8989504-.5700198,5.7212418-4.4034401,7.4106269-1.8323516.807405-3.7332791,1.3460442-5.7675743,1.2888207-3.9798016-.1122319-5.2191518-1.7281495-4.4761693-5.8578398.6274279-.4917529,1.2558711-.9835057,1.9431991-1.5210374.5091968.3946575.2132037,1.2153532.1655789,1.9478139-.1092784,1.6801556.6879741,2.6418795,2.2895858,2.9165522,2.9729451.5094737,5.7826186-.0317498,8.2737787-1.717074,2.0797048-1.4069596,2.0179588-3.0169702-.0086758-5.6688177,2.5660122-.9643082,4.002045-.4035179,4.8211716,1.8832067.8461693,2.3620381-.3262662,4.2061113-3.2622929,5.1301784ZM44.3417585,46.8958086c1.4702746-1.1429931,3.2190061-1.6210862,5.0580953-1.6908619,1.6886468-.0646072,3.1523684,1.2338123,3.4398703,2.8807414.1305065.7475972-.3776751,1.1130892-.7990984,1.5036857-1.6907696,1.5657086-3.8075774,1.9636888-6.2688337,2.1098856-1.069987-.1897605-2.7897376.128476-3.338437-1.4416628-.5433463-1.5553715.8238337-2.5193104,1.9084035-3.3617879ZM48.5856189,44.4547651c-1.9301853.8472769-4.0788352,1.1806499-5.672048,2.6573852-.1830229.1694554-.4083173.3204516-.5900481.0465172-.3036537-.4581571-.4958139-.9823982-.2966392-1.5236217.6690534-1.817492,5.1541754-2.6706758,6.5587353-1.1802807ZM44.1400919,42.992428c-.9835057.4334218-1.6970458,1.2301205-2.8962471,1.9282471,1.2320587-2.428122,2.5090656-4.4996125,3.0558268-6.9631761,1.9286163,1.5321129,1.7686674,4.185437-.1595797,5.034929ZM42.0511575,39.0724341c-1.0350069,2.0349412-2.7667559,3.3400061-5.2388108,3.9480518,3.7203577-4.9105141,3.2986575-8.6902181-1.3183554-10.2655255,2.3343493-1.0842929,4.9760442-.6641617,6.4451189.9196369,1.1930175,1.2862365,1.2326125,3.1949168.1120473,5.3978367ZM37.8983009,35.3613983c.2371083.6154294.5064279,1.3925614.0413486,1.8787765-.4093326.4278841-.9755683-.1912372-1.4424012-.3846895-3.2395881-1.3427216-7.5283966.3344805-8.9987635,3.4769733-.4288993.9166834-.6637925,1.6772021.3612464,2.4166773-1.1322868-.4345294-2.6936575.2898093-3.0694866-1.5247292-.3841358-1.8544104.1258917-3.3263463,1.8411197-4.2685034,2.2065194-1.2123997,4.4411891-2.3996949,6.7551411-3.3824622,1.898897-.8066667,3.8550175.0834355,4.5117955,1.7879573ZM24.0221576,47.7977247c-.5353165-.4300992-1.0530969-.9746453-1.089923-1.9134798,2.4053249.8413699,4.7794538.5545141,7.4703424.0265812-1.0933379,1.1341327-2.4280297.9790755-3.5463798,1.7890648,2.524479,1.6879085,5.3211388,2.2043966,8.1123531,2.6946727,1.2451647.2185568,1.9281548,1.2400885,1.5681083,2.4772235-.154688.5312555-.5049512.4581571-.827987.3688146-4.1982662-1.1621907-8.2422135-2.6743676-11.686514-5.4428771ZM31.8972178,53.3439733c1.6605888.5552525,3.5881899.2883326,4.5429916,1.4719359,1.3597963,1.6860625,2.879357,3.4478078,2.9998032,5.8600549.0457788.9163143-.051778,1.4213577-1.1393013,1.0366682-.5062433-.178685-1.0605728-.2178185-1.589521-.3363265-4.4321441-.9919969-4.6779283-1.2950969-4.8115728-5.9541967-.017167-.5988162-.0023997-1.1987399-.0023997-2.0781358ZM39.2423146,56.8574958c1.2605782,1.4095438,2.4972517,2.8512067,4.0971098,4.0613913-2.3588078.6656384-2.5589977.5467612-3.1959321-1.5572174-.2566751-.8480152-.5982624-1.6701876-.9011777-2.5041739ZM46.2993558,63.0590457c-1.7017528-.224833-3.2051617-.3869046-4.8961159-.9768604,1.818138-.0838047,3.4254721-.4729245,4.8961159.9768604ZM41.7271987,57.7708565c2.8680968,1.046267,5.3915606,1.2703615,7.9736323.61063.8939786-.2285248,1.3920999.544177,1.8394584,1.2042776.9755683,1.4394477,1.9485522,2.8803722,2.9226438,4.3209275-2.5243867.6239207-9.3917596-2.5702578-12.7357345-6.1358352ZM53.7040758,60.2997657c-.3056842-.2547368-.4576034-.3440793-.5608825-.4729245-1.7580534-2.187045-1.7684828-2.2032891.4706171-3.9085492,2.3941571-1.8230297,3.9654958-4.255582,5.3367368-6.8934004.2492914,4.6897421-3.4907254,7.4597284-5.2464714,11.2748741ZM55.5329201,59.0733371c1.5409733-2.4897757,3.5485949-4.6830968,4.7313676-7.7218489,1.1303486,2.2848787,1.1406857,4.2474599.0432868,6.2728024-.9984577,1.8429657-1.856164,3.7653058-2.705656,5.683585-.3499863.7904226-.5886636,1.0344531-1.3489054.3562624-1.8712082-1.6690801-2.0472166-2.446212-.7200931-4.5908009ZM58.6379407,63.2742798c.3446331-.6855744.6731144-1.37964,1.1608985-2.3827124.4868612.660839.8097124,1.0189474,1.0398985,1.4294798.3725988.6641617,1.3148482,1.3811167.9802754,1.9814096-.431299.7734401-1.5203913.1421358-2.3193974.2170801-.9971655.0934035-1.3397681-.2935011-.8616751-1.245257ZM61.5217279,51.3201075c-.7763013-2.2830328-2.3168131-3.707344-2.1510496-6.1845675.1622563-2.4247994-1.8460114-4.0012143-4.191344-4.5719725-1.6130564-.3920732-1.4457239-.9606163-.7434439-2.1095164,1.8273676-2.9896506,1.8352128-5.0858764.162164-7.1902242-.4324066-.5434386-.8529069-1.3305385-1.6711106-.3894889-.4168085.4795698-.8491228.2839024-1.2725766-.0365492-.7657796-.5788802-1.550849-1.1356094-2.2049504-2.2424226,5.630884,1.5228833,11.2067596,2.4011716,16.3005735,4.8916857,1.1403165.5574676,1.947537,1.6155484,2.5593669,2.7511579.8593677,1.5941358.6429336,1.9758718-1.1562837,2.1386819-4.1765766.3780442-6.4735461,4.9171594-4.3087444,8.5148558,1.2281823,2.0412174,1.2484874,3.4935865-.0167056,5.0109321-.7790702-2.2660503-.2674737-4.8654736-2.5671197-6.372482.6874203,1.7466087,1.5415271,3.4407933,1.2612242,5.7899099ZM66.6423075,19.1667806c.0238124.2292632.1916064.3429718.3707529.4703402,3.2707841,2.3258581,3.0785316,4.4918596-.7073562,6.3388863.6409954-1.538389,2.0468474-2.8405004.977968-4.7687475-.9513867,1.4088055-.7659641,3.2979191-2.3749596,4.0953562,1.2581785-3.4315637-.4975675-5.8511945-4.2322311-5.747823-2.34081.0646072-4.4594637.9030236-6.4898825,2.000238-1.1656056.6298276-1.3914538,1.7185507-1.3627498,2.9327963-2.1681243-1.2496873-2.3373951-2.1242837-.7608879-3.7265415,2.721254-2.765556,9.067524-3.8834447,12.6295941-2.2671579.6191213.2809489,1.1745583.8247567,1.9497521.6726529ZM74.8229596,26.6519827c-.3150061-.9550786-.0797437-1.4121281.8051899-1.8149077.8506918-.3872738,1.6127795-.9691075,2.6799054-1.6303158-.1446278,5.171527.1627178,10.0846254-.4879687,14.9807413-.1040175.7823005-.339003.8734889-1.1683745.6231823-1.8901289-.5696506-2.2647582-1.5055316-1.7623913-3.4171655.7536888-2.86782.8878871-5.8493485-.0663608-8.7415346ZM80.0129459,42.5549451c1.129241,1.871762-.4502197,4.7853608-3.1939016,5.5200366,1.4097284-2.5617666,1.0853082-4.679405-1.2680541-6.3591914-2.1155156-1.5095927-4.4817071-1.6978764-6.6015606-.433791-1.3653341.8140503-1.6351152,1.5712464-1.2940816,3.9177788-1.844627-1.9625812-1.0389756-4.9212204,1.4719359-6.0608909,3.5161068-1.5959817,8.8766559.086389,10.885662,3.4160579ZM79.074296,31.9482938c.1557033-.0871274.3114989-.1749931.4672021-.2621205,1.3393066,2.0209123,2.8560061,3.9510053,3.9544203,6.095225.7132632,1.3925614.3306964,3.0682868-.2111731,4.5786178-.3561701.9934737-.942434.9871976-1.6220091.3437101-1.5837063-1.4999939-3.2895202-2.8201952-2.6591388-5.542926.3830282-1.6543127.0706987-3.4695896.0706987-5.2125064ZM89.2599855,23.9975509c-1.3249085-1.1215805-3.1173882-.9635698-4.7581334-1.7067368.781839-.7346758,1.6171175-.907823,2.4071708-.3924424,1.1804653.7701175,2.4774081,1.2024317,3.7796117,1.6635423.5544218.1964058,1.3011884.3939191,1.2894668,1.0839237-.013106.7730709-.7201853.9835057-1.486611,1.0831853-.0207666-.8742273.1774851-1.9308314-1.2358429-1.7451319.0022151.0047994.0022151.0084912.0043379.0136598ZM86.99172,25.2232412c.6277971.182746,1.2438726.2480915,1.2177529-.7228619-.0289809-1.0735866.6376728-.4792006,1.0626956-.4644333.5881098,1.4372326-.5088276,1.839643-1.4687056,1.9673806-1.8661319.2484607-3.733556-.3647536-5.0666788-1.510331-1.1309024-.9713226.4890763-1.3645034,1.1987399-2.2165797.0786362,2.237254,1.6278238,2.5303859,3.056196,2.9468253ZM92.2280388,25.6415265c.6695149,1.5321129-.0935881,2.3937879-1.0985065,3.1583676-2.5209718,1.91791-5.6173165,2.7039023-8.3342326,4.2345385-.6846514.3861663-.8372166-.1668711-1.0722021-.5456537-1.5996735-2.5761647-2.4434432-5.3254767-1.8449962-8.6204423,3.9940152,2.3225355,7.8852128,4.2024195,12.3499374,1.7731899ZM85.0795324,37.6045592c-.6006621-.3119603-.6414569-.8491228-.8795805-1.2541175-1.3340458-2.269373-1.3364455-2.2933699,1.0386987-3.4149504,3.0860999-1.4567994,6.308244-2.6773211,8.8376147-5.2018001-.905331,5.291881-5.945244,6.6718901-8.996733,9.870868ZM95.7997078,26.8203305c.3912426,4.5778794-1.0792166,8.8094645-2.019897,13.142575-.5882944,2.7094401-1.6161022,4.6136903-4.7334904,4.779823-1.0389756.0553776-2.0476781.6578856-3.0729939,1.0015957-.4836308.1620717-1.0527277.7889458-1.430495.3769367-.5044897-.5504531-.7951297-1.41582-.467479-2.182984.6700686-1.5694004,1.1709588-3.1524607,1.0831853-4.8817177-.0329497-.6501327.506151-.9362502.9153913-1.2522715,1.570508-1.2135072,3.1823646-2.3734828,4.7562875-3.5825598,2.4638406-1.8928055,4.7261068-3.9325461,4.9694912-7.4013973ZM79.180344,48.7380359c1.3020191-1.8721312,1.7619298-3.5172143,1.6798787-5.3889763,1.9558436,1.466029,1.559894,2.8622822-1.6798787,5.3889763ZM66.2661092,44.9428261c.1844996.046148.3170366.3477712.449389.5471304,2.2568207,3.3975988,5.4984393,4.2197711,9.3100777,3.5825598.5214722-.0874966,1.055312-.100418,1.6242242.0158749-3.4281487,1.5660778-6.9420404,2.8482532-10.7090998,3.2680152-1.2438726.1388131-1.5378352-1.0148863-1.5579557-1.8270908-.0418101-1.6853242-.694804-2.9449794-1.8171228-4.1455652-1.0944455-1.1706819-1.5596171-2.5909321-.5833104-4.1197223,1.0818932-1.6941846,2.2852479-3.2211289,4.7462273-3.0963447-.754058,1.1832342-1.5111617,2.1984897-2.0749977,3.3112097-.4529886.8941632-1.1537918,2.0209123.6125683,2.4639329ZM76.1986309,46.8016667c-.409794,1.02227-.7796239,1.8957589-1.9143104,1.7399634-1.7131975-.2355393-3.1409237-1.0012265-4.357569-2.9243051,2.2647582.8122044,4.1771304,1.1249031,6.2718794,1.1843417ZM70.7394173,44.4521808c.1492426-.8849336,1.108013-1.0267002,1.8960358-1.0481129.6946194-.0188284,1.4184966.2000976,1.3684721,1.0732174-.0611922,1.0662029-1.0069489.9953196-1.738302,1.1669901-.6465332-.2709809-1.6938154-.1978825-1.5262059-1.1920946ZM74.0659482,45.9529131c1.2036316-.7283997,1.4886415-1.6015194.5405774-2.7035332,1.7029527-.5504531,2.1783692.6996034,2.1050862,1.6587429-.1221998,1.6004119-1.5753997.935881-2.6456636,1.0447902ZM69.0516012,45.4833113c-.8405393-1.1352403-1.0911228-2.219164-.0578696-3.2517711,1.4534767-1.4527384,3.7004218-1.4752586,5.8192601.032119-4.1094775.2218795-5.1642357.8166346-5.7613905,3.2196521ZM73.7173464,36.2769742c-.282241,1.2659313-.7884844,1.7698673-2.1588024,1.7875881-1.1932944.0155057-1.7634065-.2362776-1.8987124-1.4475698-.1165698-1.0440519-.5162113-2.1050862-1.3813936-2.6643997-1.4465545-.9351426-1.2776529-2.0873654-.9380961-3.4559298.3953959-1.5930282.8574294-3.1461846,1.7981098-4.5036735.8364783-1.2068619,1.3537048-2.502328,1.1940328-4.3072677,3.323762,2.6300656,4.3181586,5.8951273,4.1902364,9.601733-.0581465,1.6845858-.4369291,3.3363142-.8053745,4.9895194ZM65.9718697,31.6913419c-.1248764.5567292-.4372059.4068406-.7943913.301254-2.2340236-.662685-4.4710007-1.3146636-6.7070549-1.9703341,3.1194187-.2920244,5.8368886-1.3619191,8.6489618-3.1864256-.4465278,1.8787765-.8125736,3.3636338-1.1475156,4.8555057ZM61.0954128,24.905374c-.6475484,1.3766865-2.3181975.341495-3.2247284,1.5059008,1.1840648.343341,2.2340236-.1343829,3.2709687.0849123-1.4453547.4459741-2.8683737.5589443-4.5153951-.3230358,1.4833806-1.1621907,3.197778-.4264073,4.4691548-1.2677773ZM55.5561787,24.8422435c-1.2431342-.0524241-1.9594432-1.1396705-1.4019756-1.9289855.6128452-.867582,1.4727666-1.4771045,2.6329268-1.1105049.5577445.1761007,1.3166941.3392799,1.3980991.9949504.0993104.8014981-.7714096.7896842-1.27673.9923661-.6111838.2451381-1.3034958.309376-1.3523204,1.0521739ZM58.4990353,21.1481902c.5033821,1.1843417,2.8550831.4991365,2.5006666,2.2926316-.1759161.8904714-1.3096796,1.2297513-2.4073554,1.8485034.588479-1.8230297.3669687-3.1764576-.9658772-4.3607994,1.4682441-.4404363,2.7289145-.7808238,4.056315-.6117376,1.4375095.1834844,2.5218024.8845644,2.8013669,2.3937879.3077147,1.6605888-.7866384,2.4524882-2.0466628,3.2569397-.9891358-4.7801922-1.0870618-4.8975926-3.9384531-4.8193257ZM51.2985662,25.5348324c.3765675-.3256201.7884844-.1380748,1.1580374.1048482.302177.1989901.5981701.4090557.9108688.5899558,4.0086903,2.3188436,7.839434,2.2125187,11.4528207-.8051899-.3552471,1.5572174-1.3085721,2.502328-2.8676354,2.9674996-2.7231922.8129428-5.4699199.8059283-8.238614.4064714-1.2418421-.1790542-2.0521083-.9668924-2.5394309-2.08072-.1680709-.3839512-.2443997-.8642593.1239535-1.182865ZM63.9050864,52.7333432c.3329115-.3451869.6403493-.863521,1.1264721-.2473532,1.247749,1.5808451,3.0764088,2.5008512,4.4371281,3.94436,2.2555286,2.3934187,1.4720282,5.7910175-1.5944126,6.9945568-1.9387689.7605187-5.3086788-1.7772509-5.6473127-4.259643-.0485477-.3558932-.0600847-.716955-.0588848-.7014493.1020793-2.3140442.2862098-4.2256781,1.7370099-5.7304713ZM70.6387225,55.9245682c-1.1050595-.9045004-2.2163951-1.8008787-3.4436544-2.7965675,5.4299557-1.5413425,10.963929-1.9444912,15.3585086-5.5957193.4560343.9030236-.1678863,1.5328512-.6422876,2.1933211-2.5460763,3.5445339-6.5687955,4.7240762-10.2776162,6.4049702-.373614.1690862-.6933272.0409794-.9949504-.2060046ZM73.649878,56.3993386c2.9471945-1.3641342,5.8985423-2.7009489,8.3411548-5.2616079.0657147.39355.088881.4522502.0829741.5079969-.3797056,3.5962197-1.5147612,6.5116643-5.6468512,7.3356826-1.4039138.2798413-2.6643997,1.2795911-4.1523028,2.032357-.0846354-1.132656-.1320755-2.0633684-.2288017-2.9892814-.1258917-1.2035393.9244363-1.3106026,1.6038268-1.6251472ZM84.1487277,48.6833967c.1075248-.3950267.3602311-.624659.7060641-.7464897,2.2457452-.7926377,4.496659-1.570508,7.0676552-2.4654096-.5974317,2.9176598-1.721135,5.2885583-2.7952753,7.6432128-.2752265.6032464-1.3907155.8491228-2.1468962,1.2020625-1.5729077.7339374-3.1636285,1.4294798-5.0117627,2.2597742.7847002-2.8323783,1.4911335-5.3605492,2.1802151-7.8931502ZM95.1407146,21.9755311c.9067155.4042563,1.0839237,1.2367658.8472769,2.1379435-.2555675.9731686-.8975782,1.6923387-1.7269496,2.2099344-.342418.2133883-.5605133-.1941907-.6187521-.4474508-.4992288-2.1671091-2.3017689-2.7323295-4.0569611-3.392061-.8337094-.3138063-1.6310541-.7243387-2.4448276-1.090569-.0037841-.1602258-.0075683-.3200824-.0114447-.479939,2.6991952.0804821,5.4314325-.0878658,8.0116582,1.0621419ZM89.3890152,20.189789c-3.1373242.423823-6.5555972-.1528421-7.8865049,3.6778093-1.4305873-1.4172967-1.4001297-2.671045-.0202128-3.8708924,2.7272532-2.3712677,6.0234187-2.3734828,7.9067177.1930831ZM45.0249332,15.341667c3.6818703-3.219283,7.405643-6.3916796,11.0539175-9.6486193,1.5166072-1.3537971,2.7482044-3.8221602,4.3533234-4.0481007,1.4708284-.2063738,3.2076537,2.0360488,4.9360801,3.0051563,5.846672,3.2779832,11.7595201,6.4429961,16.643453,11.1530434.5187956.5002441,1.0471899.9905202,1.8339207,1.7336872-3.7558917.9480641-5.2833897,4.3703981-8.0707276,6.304183-1.0854927.753135-1.5958894.9447414-2.4971594-.3156522-1.6164714-2.2601434-3.4814958-4.3785202-6.6417093-4.4161769-1.2544866-2.1032403-3.4122738-2.1959054-5.4591212-2.2328238-3.9496209-.0712525-7.5557162,1.3822242-10.597514,4.0429321-.8165423-.6944348-1.0119329-2.0113135-2.2741724-2.5230023-.0168902,1.7709748-.9246209,3.0261998-1.7835271,4.4929672-.8090664-2.0430633-1.5120847-3.9642959-2.3333341-5.8338428-.4440358-1.0108253.3360496-1.2762685.8365706-1.7137513ZM43.4416884,17.4803489c1.8449039,5.4111273,4.9645995,10.3988008.8939786,15.8900411-1.6074264-1.3438291-2.7743242-3.1413852-3.713897-5.1109809-.4426514-.927759-.41164-1.8366895-.0557468-2.7958291.9403112-2.5337086,1.8352128-5.0840305,2.8756651-7.9832311ZM28.8844932,17.2695449c-.7131709-.6353654-.7042181-1.3028497-.2860252-2.0954874,1.359058-2.5776415,6.0206498-4.0181968,8.5814934-2.6230511.7669794.4179161,1.4797811.9255439,1.3056186,1.9422761-.1851457,1.0802319-1.0653722,1.5531564-1.9616583,1.9315698-.5115042.2159725-.7577498.07236-.6558551-.5932784.321836-2.1025019-.2144958-2.6562776-2.9038154-2.8246255.5180572.3920732.7886689.5973394,1.1143814.8439542-1.4889184.9104073-4.0015835-.4910145-4.6170129,2.1438505,1.8036476.4769855,3.4860183,1.2098154,5.6701098,1.0588192-1.771344,1.4320641-4.9387566,1.3814859-6.2472364.2159725ZM35.0564161,15.0895144c-1.1969863,1.1610831-2.212611,1.478212-3.6740251.2573211,1.3221396-.0634996,2.3214279-.5312555,3.6740251-.2573211ZM35.0003002,18.390387c.9431724-.3920732,1.8916056-.7948528,2.7761701-1.3006346,2.6604309-1.5206682,2.776447-2.5307551.6541014-5.0002257,3.0719786.1007872,4.4587254,1.8916979,3.8404348,5.0485888-.650225,3.3200701-2.0814584,6.3758047-3.2917353,9.6268375-2.8139191-2.1693242-6.1702616-3.104836-9.4301548-4.8034508,1.7692212-1.5778917,3.4863875-2.7537422,5.4511838-3.5711152ZM27.7348548,23.8484007c.1347521-.8616751.3877353-1.1673593,1.2702692-.7797162,2.4755621,1.0876156,5.0245919,2.0209123,7.4454225,3.2163295,2.2289474,1.1001678,3.6649801,2.9981419,4.5670808,5.5296353-2.7247612-.6822517-5.0986132-.3160214-7.5092913.7900534-1.391823.6383188-3.0383829.3311579-4.0661907-1.2205217-1.5573097-2.3509626-2.1372975-4.7846224-1.7072906-7.5357803ZM25.8611546,25.7142557c.3280198.064238.596878.1650252.6012159.5308863.0294424,2.4868223,1.3405988,4.4331594,3.0433669,6.6460472-1.8123234-.0243661-3.0590572.5751884-4.3647681,1.0780168-.3677994-1.5856445-.6441335-3.1292021-1.0952761-4.6195972-.4296377-1.4195118-1.0417445-2.783646-1.646283-4.3619069,1.2664851.2687658,2.3612075.5124272,3.4617444.7265538ZM18.3265741,23.3784297c2.323643.3725065,3.5463798,1.9278779,3.6382143,4.6638993.0810358,2.4166773-.8586293,3.502447-3.6382143,4.1219374v-8.7858367ZM9.9622531,25.7615113c1.2340892-1.4671365,4.9474325-2.4739008,6.7089008-1.7768818,1.3224165.5235027,1.1924638,1.4723051.4991365,2.7899222-.3931808-1.428003-1.176958-1.9769794-2.4651327-1.839643-1.6137025.1720397-3.1443386.5393776-4.0005682,2.0570923-.5632822.9982731-.1032792,1.6029962,1.038791,1.6613272,1.508762.0767902,2.9796827-.1753623,4.5053348-.6353654-1.184434,2.2985385-3.8494798,3.1454462-5.9826239,2.0065141-1.3376453-.7143707-1.4900259-2.8530526-.3038383-4.2629656ZM16.362147,33.2529895c-2.6438177,1.4693516-4.2338924.8819802-6.4371815-2.6943036,2.99445,1.1684668,5.2179519.2030511,7.2411716-1.510331.9451106,1.9695957.6539169,3.3946453-.8039901,4.2046346ZM15.61898,25.885557c-1.0208856,1.1189962-2.3448711,1.1621907-4.1485187,1.4582761,1.4180351-1.5166072,2.711286-1.7285187,4.1485187-1.4582761ZM6.9650342,29.5183259c.3629077.5401159.6429336.9569245.9879359,1.47009,1.0217162-.9059771-.3782288-1.7979252.3898581-2.9759908-.0279657,2.8009977,1.3574889,4.5782486,3.1622441,6.2506514-2.074167.0775286-4.0006605-1.9924851-4.5400381-4.7447505ZM10.3869068,35.2185242c3.9002425.0590694,7.1266323-1.3741022,10.5257078-2.8921861-1.4577223,2.5517986.2016667,5.3605492-.9726148,7.9703096-.7142784,1.5871213.0563005,3.1790419.7072639,4.6926956.2247407.5227643.7345835,1.1577605.2152342,1.6605888-.4229001.4094249-1.0025187-.0841739-1.5100541-.2119115-1.2203371-.3075301-2.1104393-.9657849-2.815119-2.0593074-1.9456911-3.0199237-3.9979839-5.9711792-6.150418-9.1601891ZM1.7183782,47.8143379c2.7277147-3.3130557,6.2648649-5.6241464,9.7582669-7.99726.6078612-.4131167.851061-.0428253,1.1395782.3677071,1.1014599,1.5690313,2.2053196,3.1358474,3.4248261,4.8691655-1.7038757-.1015256-3.0344142-1.0525431-5.0261609-.7937452,3.2210366,3.3510816,7.6603798,3.8971045,11.0525331,6.3806041-.9397574.9192677-2.2733417,1.1983707-3.3484973,1.9060961-.9644927.634627-1.8681625,1.3309077-2.6220358,2.2021815-.3039306.3510938-.7282151.7930069-.3847818,1.2681464.288148.3987185.7627338.1303219,1.1639443-.0059069,2.393511-.813312,4.7915446-1.612595,7.1865324-2.4214767.450958-.1521037,1.0208856-.5929092,1.3591503-.269135,1.9495675,1.8673318,5.3661792,2.2715881,5.7514225,5.7109046.0392258.3503555.1785927.6896354.3245126,1.2297513-2.4423356-.1554264-4.7198306-.6829901-6.971852-1.2219985-5.2470251-1.2555942-10.7361426-1.7104287-15.4732325-4.6993409-2.4518421-1.5468802-4.7989283-3.2281434-7.1217406-4.9559237-.7018185-.5216567-.7625492-.9015469-.2124653-1.5697696ZM46.0120384,119.7719575c-3.0185393-3.7590297-4.7509344-8.2416597-6.8111647-12.5252997-2.5077734-5.2139832-4.8345545-10.5150937-7.2600922-15.7689488-.2956239-.6401648-.5380854-1.3438291-1.5904439-1.5867521,4.1103081,9.0808146,8.2206163,18.1616291,12.3675659,27.323295-4.5423455-2.6865507-14.405276-15.9465262-23.9060372-30.4070875-7.2106216-10.9750968-10.9427009-23.3778274-16.0943843-35.2596397.249476.1329062.5238718.2333242.7448284.4035179,5.5898123,4.299884,12.0023508,6.4784378,18.8774766,7.7495377,9.4841479,1.7536232,18.8681547,4.0510541,28.4376764,5.3472585,3.0803775.4171777,6.1888131.6276125,9.305186,1.0665721-8.4828291,3.0874843-16.7854964,6.6907185-25.845729,7.8355575-3.3035492.4171777-3.0891457.2728268-1.4386171,2.8227795,4.1917132,6.4762227,6.9065987,13.6490952,9.5278962,20.8470723,3.0556422,8.3904408,6.1361121,16.7605765,10.7865361,24.4469838.4606491.761257.7348604,1.6495133,1.0030725,2.5074965.1653021.5294096.5699275,1.2076003-.125061,1.6266239-.6315812.3809977-1.2710999.1484119-1.8393661-.301254-2.2830328-1.8064165-4.3224042-3.8646163-6.1393424-6.1277131ZM52.5177958,129.0015531c-.1445355-.7335683-.1589336-1.1987399.6986804-1.437971,3.7580145-1.0492204,7.6218001-1.2644546,11.5127207-1.4641831-3.5013394,2.014267-7.3821998,2.739344-11.2176506,3.6032341-.5208261.1174005-.8639824-.0424561-.9937506-.7010801ZM40.6452132,148.8662273c-.155611-4.0233653,2.0642914-6.7272677,5.2804363-8.796543-2.507312,3.7737971-4.518164,7.6133089-3.261093,12.4252509-1.4889184-.8062975-1.9633196-2.1796613-2.0193432-3.6287078ZM45.5174244,183.0759082c1.5550023-6.3868802,1.7406094-12.9590907,2.9777444-19.366276.111955,6.6342334.2355393,13.2695743-2.9777444,19.366276ZM51.7833046,153.0324667c-.2070198,6.6231578.0380259,13.2584987-.6635156,19.8709503-.4152395,3.9140869-.9840595,7.7650434-2.473347,11.431408-.1229382.3027307-.0588848.7616262-.6600084.8066667-.4074866-1.8555179-.0515934-3.6855621.3313425-5.4668741,1.3293387-6.1823524,1.5388505-12.4208206,1.2327048-18.7091288-.2673814-5.4930861,1.3250008-10.678273,2.7847536-15.8863492.1879146,2.6835972-.4686789,5.2907734-.5519298,7.9533272ZM47.8405136,148.466032c-.665823,1.2821754-1.3804706,2.5351853-2.480823,3.5135225-.7086484.6294584-1.2072311.6335194-1.5406041-.3953959-.3263585-1.0067643-.3907811-2.0098367-.1641945-3.0210312.9581243-4.2751487,3.4991243-7.5933729,6.5533821-10.5571807.9618162-.9332967,2.307122-1.1603448,3.7336483-1.2183066-2.9634386,3.4762349-4.0914798,7.8078687-6.1014088,11.678392ZM52.0611154,136.1024348c2.3229969-2.5702578,4.1169534-2.998511,5.2345652-1.4320641-1.6240397.4441281-3.2033158.8760732-5.2345652,1.4320641ZM60.5514205,199.32295c-1.1337635-.2384928-2.2109496-.6213364-3.1984241-1.2031701-1.7162433-1.0111945-3.2509405-1.0038108-4.7541647.4570496-.7609802.7394752-1.8854218,1.9884241-2.6586773,1.5166072-.9146529-.5578368.0047994-1.962212.292209-2.9324271,2.1882448-7.3851533,2.8955087-15.0095376,3.7874569-22.6095559,1.1280412-9.6117009,1.2423959-19.2396459.7860847-28.8963873-.1433356-3.0335835-.508643-6.2030266,1.7287956-8.975228,1.270177,1.7240885,1.6514516,3.6050801,1.7795583,5.5303737.8246644,12.3927627,2.6137292,24.7035665,3.1040053,37.1254947.2473532,6.268003.5371625,12.5326833.6078612,18.8069625.0143982,1.2758993-.4520656,1.3951457-1.4747048,1.1802807ZM78.6508421,196.9679263c.0806667.341495.1473043.6859435.2168032,1.0115637-.1589336.0775286-.2851945.1938215-.3575545.1665019-4.6783897-1.7617452-9.2487009-1.2507948-13.7122257.7265538-1.4207117.6298276-1.7938642.3503555-1.8156461-1.2175683-.1668711-12.0077039-.5340244-24.0095009-1.7263959-35.9677343-.5445461-5.4602288-1.2125843-10.9079053-1.8064165-16.3633347-.0645149-.59254-.0087681-1.1983707-.0087681-1.7979252.1455507-.0339649.2910092-.068299.4365599-.1026331,2.4672555,8.4063157,5.3694096,16.6701265,7.8789366,25.0882561.4857536-2.1479115-.3453715-4.0595454-.8980397-6.0003447-.5772189-2.0271884-1.2705461-4.0207811-1.9081266-6.030987-.6193059-1.9522441-1.2437803-3.9030114-1.8447193-5.8607932-.6186598-2.0157437-1.1655133-4.054746-1.829029-6.0549839-.6563165-1.9788253-1.4191426-3.922209-2.0162052-5.9383218,1.5816758,2.3247506,3.1822723,4.6173821,4.1776842,7.2803051,6.2332997,16.6749259,11.1194477,33.750047,15.2131425,51.0614458ZM67.0220131,136.958203c3.7565377,1.7192891,6.9835736,4.0802196,8.9001914,7.8636155.583495,1.1514844,1.3950534,2.5274325.2514142,3.6910999-1.127672,1.146685-2.5888093.6320427-3.9004271.1192464-1.3115255-.5127963-2.4535034-1.2928818-3.3241312-2.4185232-2.5137727-3.249556-4.5979077-6.7675087-6.6032219-10.5409366,1.7849115-.0059069,3.2424492.6290892,4.6761746,1.2854981ZM71.1628712,154.3582059c1.2913127,3.0594264,2.9849435,5.9290922,4.9184515,8.623765,3.65372,5.0917833,4.6841121,10.8647108,4.6598383,17.4232615-1.9873165-3.3606804-3.3548657-6.4695774-4.6636224-9.6438199-3.5073386-8.5056262-6.7945514-17.1098244-10.8563119-25.3791729-1.1483463-2.3380412-2.7675866-4.3770434-4.1635629-6.5581815-.6716377-1.0492204-1.4468314-2.0589382-1.8179535-3.7867185.5192571.566328.7725172.813312.992643,1.0868772,4.4830915,5.5743066,8.144749,11.6337207,10.9305178,18.2339892ZM57.3241078,133.0592526c2.4140007-.662685,4.7471502-1.3028497,7.3743546-2.0238657-2.4821152,2.606807-5.7721891,3.4839878-7.3743546,2.0238657ZM63.4772023,130.0330527c-2.5316781,1.2260595-5.2540396,1.7041525-8.0332555,1.9086804-.3016232,0-.6043539.0169825-.9045004-.0036918-.6332426-.0435637-1.3833318-.2683966-1.4418474-.8613059-.0670069-.6789291.7776857-.5659588,1.2559634-.6811442,2.8695736-.6911121,5.7417315-1.3733638,8.6254263-2.0017147.5837719-.1273684,1.4835652-.5659588,1.7316567.2898093.2097887.7239695-.6663768,1.0746941-1.2334432,1.3493669ZM106.4077435,53.9771235c-1.106167,10.9056902-6.4181685,19.980967-12.1824202,28.8742362-7.3708474,11.3719694-16.14607,21.6747824-24.7043049,32.1381904-2.1953516,2.6839664-4.1815606,5.460598-5.1373775,8.8489671-.1769313.6272433-.474955,1.0536506-1.2060313,1.1385629-1.9764256.2292632-3.9538665.4677559-5.9163554.7907918-1.3032189.2144958-1.3861007-.3038383-1.1215805-1.3755789.7530427-3.050566,1.3553661-6.125498,1.1464081-9.3019557-.1320755-2.0087292-.5381777-3.9395606-1.4471083-5.7470846-.1891144-.3765675-.415701-.9041312-.8625057-.8026056-.6485637.1473043-.4462509.7634722-.3441716,1.2153532.8467231,3.7505385.855122,7.5402105.5602365,11.3453882-.0257506.3330038-.1067864.6619466-.2342471,1.423942-7.9223157-15.6766528-12.0959389-32.5970859-21.6460784-47.3995114,1.8487803-.3451869,3.4598985-.6534554,5.0737856-.9462181,7.6959137-1.3973608,14.84562-4.5612662,22.2731371-6.8199328,5.2633615-1.6004119,9.9600259-4.2267856,14.7260045-6.7992585,3.9878314-2.1527109,8.2851311-3.6146788,12.3801181-5.5292662,5.8783295-2.749312,11.0644393-6.3854035,15.0450716-11.5971715,1.2787605-1.6742487,2.1979359-3.5545019,3.2967193-5.9058337.7507353,5.8072616.8438619,11.093974.3007002,16.4489854ZM77.2682487,94.2587708c-2.5682273,8.2841159-6.8160564,15.6415803-12.3881479,22.2529243-1.5050702,1.7857422-3.0107864,3.5810831-5.1037818,4.8429534,7.1014355-9.0579252,12.4172211-19.1056322,17.0172516-29.6746268,1.1661594.9746453.7116941,1.8141693.4746781,2.578749ZM45.1423336,50.3857033c1.7265805-.1336445,3.3411136-.9414188,5.0455431-1.1721586.837955-.1137086,1.6455446,0,1.8192456-.9096689.1688093-.8830877-.6150603-1.3781632-1.3263852-1.7366407-.7615339-.3839512-1.559894-.365492-2.4302448-.3503555-2.2777719.0391335-2.8687429,2.000238-3.9857086,3.2783524-.7277536.8325095.2448612.8646285.87755.8904714ZM50.4639339,48.031418c-1.8744386.7583036-3.4662669,1.5502029-5.3476277,1.6170252,1.2770992-2.0120519,3.1559679-2.642987,5.3476277-1.6170252Z"/>
  </g>
</svg>