<?xml version="1.0" encoding="UTF-8"?>
<svg id="Layer_2" xmlns="http://www.w3.org/2000/svg" viewBox="0 0 212.8798574 142.5046665">
  <g id="Layer_1-2" data-name="Layer_1">
    <path d="M107.7578489,0c22.0045843.6514337,41.3647126,9.5750004,56.3002339,27.5461719,7.6411734,9.1942638,12.6698909,19.757853,14.7081096,31.5779746,3.2645365,18.9318881-.6046122,36.3958222-11.3727716,52.2966545-4.8896022,7.2201959-11.0541544,13.212168-18.1512451,18.258581-.8252426.5867964-1.6220162,1.2138187-2.450529,1.7957599-.4062915.2853731-.5475536.6314762-.491779,1.1157117.059426.516035.0748543,1.0381088.0900619,1.5580961.0510397,1.7448205-.4234051,2.4819072-2.0770803,2.9742882-.6214448.1850391-.7906744.4510315-.7798807,1.0781341.0409281,2.3812924-.067732,2.547352-2.3323392,3.2469214-3.1327441.9677085-6.3720817.9502137-9.6061428.9250751-4.7707703-.037076-9.5115568-.5677568-14.2608299-.9266801-4.2374112-.3202422-8.4193086-.011175-12.6059709.5776478-4.6335509.6516795-9.2873953.5537329-13.9385914.2157753-3.0302232-.2202092-6.0616301-.4555256-9.0164373-1.2360683-.158496-.041871-.3165105-.0865509-.4724586-.1369686-1.6053139-.5191046-2.0018549-1.0026779-1.8745966-2.6914029.0659865-.8755601-.204831-1.05446-1.03529-1.1403488-4.5175278-.4672021-8.9056406-1.4511615-12.9621155-3.5984816-.3377069-.1787594-.6463227-.4117085-.979054-.6008404-.8468703-.4813665-1.2183729-1.2076394-1.1975678-2.1736826.0176954-.8217918.0124791-1.6435235.1517048-2.4568689.0528153-.3085055.0551225-.544805-.2723323-.765616-3.7367142-2.5197858-6.8184887-5.7534657-9.731776-9.1416893-8.8054069-10.2409093-14.439825-22.0280878-16.6647681-35.344151-3.1259177-18.7082583.5638145-36.0849594,11.0718047-51.8555641C58.4943969,15.0573677,73.4973994,5.2516001,92.356911,1.3603322c4.6516174-.9597586,9.3808678-1.2790629,15.4009379-1.3603322ZM145.8176988,57.9817011c-.2813204-.0109944-.1683468-.4568798-.4757088-.4441099-.3839817,2.8465685.9158863,5.3929675,1.4070033,8.0859854-.6480682-1.0240949-.6410261-2.2842186-1.2552283-3.5597002-.0212465.353406-.0346083.4615244-.0332842.5694722.123667,10.1057764.473562,20.2091554.32594,30.3174397-.0090082.6166498.1914993.779991.7749051.6134398-.1362865.4555657-.7120083.3816845-.7285601.8935464-.0427739,1.3243245.050177,2.6335117.1973576,4.1346094,1.7113156-2.5836155,3.4911657-4.8810254,4.711244-7.5449221.0954989.4592472-.1041459.7885679-.2927763,1.1097731-.6927079,1.1795515-1.397333,2.3522414-2.1084986,3.5208185-.696901,1.1451337-1.4528267,2.2581269-1.9702058,3.5014078-.1169259.2810195-.4116884.7167431-.1000732.889283.3413683.1889814.5074481-.3055663.6696557-.5599223,2.3006399-3.6073493,4.3045312-7.3679884,5.8416216-11.3686888,2.5141883-6.5439094,3.8903149-13.2835314,3.3699464-20.3218681-.469409-6.3494208-1.9596127-12.4658323-4.3325389-18.3770417-1.7792683-4.432281-4.1840542-8.5292025-6.6043285-12.71432-.3305946.8051698-.4375493,1.4630085.0550122,2.2123336,1.0521929,1.6006092,1.9612378,3.2902169,2.7619837,5.0329107.2353365.5121929.5149917,1.0185175.4978581,1.6258482-1.2874893-2.1826808-2.2216327-4.5567204-3.6619803-6.8164223-.1676848,1.0703196-.1297862,1.8905967.4979784,2.6864473.7789778.9875706,1.3242242,2.1369778,1.8514341,3.2824325.3390611.7366153,1.1065229,3.8411711,1.0535973,4.43195-.5649681-2.9198779-1.7185583-5.5748668-3.5167257-8.112358-.1664409,1.0465051.0302948,1.8367582.4745852,2.5976896,1.1650461,1.9953244,2.0372958,4.1164626,2.6190364,6.352701.111529.4287317.3014434.8567914.2055834,1.5047592-.9905399-2.7682935-1.489682-5.5496278-3.2069362-7.982632-.334868,1.3061677.0215876,2.3409862.6019839,3.3207625.8687388,1.4665496,1.5637137,3.0095485,2.0771004,4.631996.1924423.6082034.4170452,1.2203692.3145043,1.8953716-.7665991-2.3981652-1.4539502-4.8266251-3.0277354-6.8693278-.350537,1.9566133.922808,3.4512809,1.4469884,5.1526354.5430194,1.7625058,1.2502728,3.4771118,1.4204654,5.343914-.749646-2.6865878-1.6947638-5.2989433-2.8293746-7.8504082-.1283417,1.302436-.0270246,2.5773058.4820085,3.7718341.783492,1.8386341,1.5613463,3.6752819,2.0331027,5.6248532.2838884,1.1732517.2985945,1.3873819.1218614,2.0780634-.5143096-2.5466298-1.1594686-4.9772565-2.3799481-7.2161232-.0716442.2060749-.058483.3902312-.0553131.5745581.023634,1.3740201.2917531,2.7018455.7501075,3.9940696l.0163512-.0130609ZM144.758524,135.0717977c0-.6966402.0326422-1.3216562-.0048953-1.9424389-.5771261-9.5441689-.901742-19.0988908-.8669331-28.6582873.0606097-16.654842-.1368683-33.30519-.5503423-49.9540934-.1700522-6.8473591-.6412468-13.6692284-1.395106-20.4801435-.5680979-5.1327732-1.2578164-10.2955804.0258409-15.4364992.1477223-.5915112-.0876343-.7558053-.6432932-.7931823-3.4419116-.2315346-6.8796-.5342419-10.3235379-.7257262-6.8951587-.3833798-13.8016227-.139948-20.7019576-.3114647-8.7342241-.2171044-17.4691906-.3833648-26.1975764-.7983735-2.2691113-.1078927-4.5447129-.1068845-6.8172448-.103208-1.0119269.0016401-1.3247158.3918413-1.2895557,1.3719185.0549821,1.5327267.0936732,3.0664967.1791206,4.5975984.6888357,12.3426268.6822251,24.6904297.358522,37.04376-.2576162,9.8313777-.2333402,19.6637084.1401887,29.493471.3213557,8.4567457.6931292,16.9121172.7572599,25.3765469.0481507,6.3543863.1022299,12.7087325.1279103,19.0632191.0027085.6709799.1196545.7706518.7551733.5001051,1.9877507-.8461079,4.0764976-1.2373925,6.2426366-1.1888004,2.2550874.0505382,4.4683539.4473801,6.6630423.9034674,7.8246576,1.626109,15.6848664,1.8400987,23.6080925.8577644,4.5646352-.565911,9.1501458-.9777399,13.7586984-.9597837,4.0817741.0158897,8.1527243.2249841,12.1961684.8245605,1.3874621.2057238,2.6383368.8452854,3.9777887,1.3195897ZM59.3010915,80.2125535c1.4543113,6.4558438,4.1052877,12.3601014,7.9692401,17.7722791.2806583-.2897267.2714395-.5163259.3050346-.7309174.59754-3.8161428.8526484-7.6706556,1.2706064-11.5065803.9756634-8.9544132,2.376056-17.847344,3.7364333-26.7470259,1.0544299-6.8982383,2.1238768-13.7958146,2.7803312-20.746497.2153439-2.2800254.1156218-4.5692597-.0993008-6.9506223-9.9754586,9.6149905-15.6762896,21.2765458-17.6519124,35.0285533-.2961568-.6240229-.2077-1.0376373-.176372-1.4336968.1273686-1.6110218.3821259-3.2050604.6902803-4.7910438,1.4815466-7.6246617,4.7187977-14.4799155,9.1634073-20.794106,2.068985-2.9392886,4.338016-5.7269828,7.071631-8.0761848.7104233-.6105206.9551191-1.1721683.9456294-2.0673599-.0440779-4.1618346-.4155405-8.3182423-.2132373-12.4837283.0487526-1.003646.3740907-1.4344241,1.3198606-1.7179514.4749765-.1423906.9625824-.1897137,1.4594173-.1982254,3.3979741-.0582222,6.7906516.112161,10.1845831.2256863,9.853828.3296015,19.7045161.7648687,29.5634099.9252707,7.6681277.1247604,15.3343094.2840439,22.9858151.8481142.7419821.0546962,1.5932863.0740517,2.0147252.7323569.4420434.6904508,1.0643911.9598439,1.7347088,1.241726.5902271.2482168.8610748.6840508.9142813,1.3307446.1753488,2.1310994.200989,4.2580558.1158024,6.3971401-.109924,2.7609104-.3483101,5.5240477-.0992305,8.2917895.0503375.5594308.2112612,1.0506882.5087722,1.5330076,2.3729262,3.8469191,4.5423956,7.798897,6.2242791,12.0070666,1.4673521,3.6714901,2.2466911,7.5360845,3.320933,11.3201067,2.0560144,7.2423753,2.1061513,14.4693725.4977578,21.76039-1.6145127,7.3187343-4.6494908,13.9935032-9.1474272,19.9955369-.3154873.4209875-.5343523.8227047-.4992023,1.4101431.4710742,7.8738214.9153847,15.7493482.7237249,23.6439146-.0061994.2544363-.1147993.5369805.1058513.7877653.0793082-.033545.1610039-.0496153.2193866-.0954387,2.7585129-2.1650958,5.5328152-4.324273,7.9665517-6.8536488,14.9509697-15.5385485,22.648038-33.8355297,21.0182776-55.6419337-.5546157-7.4210244-2.1525565-14.6154697-5.0132291-21.489422-4.9094242-11.7969089-12.7428192-21.2989961-23.2273309-28.5139857C131.0430108,2.9673013,112.3790311-1.1316516,92.1431019,2.8143576c-12.8183054,2.4995775-24.0908433,8.2896027-33.5274455,17.3408539-12.0427633,11.5509692-18.9371697,25.75139-20.9905608,42.2999896-1.1014922,8.8770812-.5264927,17.6574297,1.7569685,26.3056546,3.7461588,14.1879518,11.2746996,26.0129586,22.3867302,35.5724555.5290657.4551645,1.0082955.9817123,1.7033607,1.3525529.19492-1.3912941.3754249-2.7180061.5673455-4.0430529.9492808-6.5537101,1.9024237-13.1068384,2.849939-19.6608093.0419212-.2900176.0999327-.5712578-.189473-.8234771-1.3707398-1.1946587-2.2056527-2.7770108-3.053476-4.3407245-3.2382041-5.9723908-5.3958566-12.3118705-6.3678384-19.0402071-.2663937-1.8440811-.4699407-3.7015441-.3019149-5.5788292.2365503,1.037206.4159216,2.0807719.567496,3.1283804.7185487,4.9662421,1.721979,9.8607697,3.6069381,14.5376161,1.3508576,3.3516592,3.1492758,6.4343365,5.5170057,9.1723653.1550352.179271.3219275.577718.6289584.3378573.2361691-.1844974.1715067-.5575248.0668793-.8460778-.0439576-.1212495-.1489963-.2304412-.2490193-.3196002-.6214649-.5539235-1.0782946-1.2387567-1.5175994-1.9317354-2.6852837-4.2360669-4.6161364-8.8110646-6.043062-13.6048168-.2311434-.7765202-.477715-1.574036-.2532425-2.4601993ZM71.5571574,117.3163112c1.4773735,2.129063,2.954737,4.258146,4.5178388,6.5107557.1734027-1.0073927-.0110546-1.6610383-.5500514-2.3186162-1.1790499-1.4384216-2.2483463-2.9661025-3.2115005-4.5620772-.1371492-.2272913-.3646913-.437449-.2777392-.9228882,1.3576087,1.9185642,2.6260483,3.7111341,3.9701447,5.6106187.3283777-.9904196.22047-1.7582626-.291091-2.4659373-.5931563-.8205279-1.2268294-1.6154556-1.6431924-2.5477934-.1960235-.4389537-.4085185-.8819601-.3516706-1.3865794.4294741,1.1143073,1.0947862,2.0885763,1.6890359,3.100142.119193.202915.1971069.5606747.4718567.4941063.334878-.0811941.21727-.4603808.2159558-.7104434-.011817-2.245387-.0099913-4.4915565-.071564-6.7358602-.1231053-4.4867615-.1083892-8.9749675-.2675975-13.4632839-.1122212-3.164052-.0008025-6.3508753-.0814549-9.5224308-.1620471-6.3724127.1924122-12.7519076-.4456246-19.1216119-.3014534-3.0095385.3087864-6.0601555-.0296829-9.0977117-.1497988-1.3443472.2597429-2.6676786.3441571-3.9921937.2769969-4.346001-.0027887-8.7044509.0426936-13.058156.0014044-.1345611.0925396-.339021-.1631807-.3921874-.199705.2265891-.1392458.5154732-.1972573.7733302-.285664,1.2694929.5732039,2.6295794-.3052854,3.8518144.3293407.8137567-.2412149,1.4981385-.3244955,2.2528002-.1230952,1.11519-.2240913,2.2337807-.3840017,3.3437945-.9948334,6.9053907-2.0926992,13.7972792-2.9853528,20.7157107-1.159278,8.9848284-1.7322812,18.0340985-2.8204567,27.029209-.7525752,6.2210189-1.4999341,12.4419275-2.3971921,18.6441978-.5171585,3.5747874-1.0028585,7.154069-1.3718432,10.7480765-.0751251.7316497-.115351,1.3464137.8361167,1.6454495,3.4221698,1.0754457,6.9116503,1.8749277,10.4012311,2.68089.4093511.0945359.5631323.0120577.5776478-.462046.0452516-1.4773033.0007724-2.8393659-1.3627247-3.8806246-.7632887-.5829042-1.2904686-1.4787478-1.9061454-2.2479149-.1197447-.1496082-.3520116-.2795148-.2230179-.6519403,1.1634912,1.1708442,1.9812705,2.5875177,3.2495998,3.7058175.137711-1.4477508.1156921-2.6320772-.9605059-3.6770675-.9822741-.953805-1.7236542-2.1557064-2.5711967-3.2482455,1.3852953,1.0679823,2.2734649,2.5581458,3.5117201,4.0432736-.0378585-1.8846982.3672293-3.5743059-1.1253619-4.9377328-.6914941-.6316568-1.1575626-1.5197561-1.6858961-2.3180143-.7187293-1.0859385-1.4480718-2.1698105-1.8229149-3.42863ZM138.6781352,139.8997069c-.2884628-.071584-.5754007-.1500295-.8655688-.2137289-5.289594-1.1613144-10.6835747-1.3991587-16.0576631-1.8133349-4.3699259-.3367739-8.7497928-.4850179-13.1286567-.5966071-4.5703932-.1165046-9.1399037-.3036703-13.7172587-.109924-4.3218554.1829325-8.6488269.3495941-12.9769619.164254-1.2443141-.0532667-1.2131667-.0711426-1.3699774,1.1705633-.0766198.6066586.0990099.914502.7014552,1.0207144.4566792.080532.8983013.247635,1.3552914.3250773,6.0685618,1.0286191,12.1529732,1.0151971,18.2468743.2540751,4.3730657-.5461893,8.7381263-1.1253418,13.1645891-1.1000025,6.3347148.0362735,12.6207873.8423562,18.9406154,1.0913554,1.9031861.0749947,3.8073151.1809663,5.7072611-.1924423ZM110.6677857,135.9539384c5.2504013.2119633,10.4886346.5113603,15.7178497.9438739,4.9858635.4124107,10.0067566.6254173,14.8038593,2.2695426.4580334.1569913.5818409-.0232528.6043313-.4250301.0427939-.7654154.0663075-1.5330778.1452546-2.2948819.0492943-.4758091-.0885973-.6705786-.5809581-.7604599-2.1079168-.3848043-4.2379428-.5184224-6.3708177-.5969281-5.3143214-.1956122-10.6227844.1189121-15.9333039.2350155-1.915625.041871-3.8307284.1426264-5.7437152.2561215-.8856918.0525645-1.7852871.0703-2.6424998.3727465ZM96.124211,135.4271298c-.1521762-.0511802-.3009518-.1185711-.4570002-.151153-4.2006862-.8767839-8.4300723-1.5528397-12.7219338-1.7693172-.4320822-.0218082-.8860228.0021467-1.3011721.1125924-.876493.2332299-.5600326.9844007-.6089457,1.5723608-.0439174.5278118.2988854.5406319.6841711.5517868,4.8076257.1392959,9.6102156-.044098,14.4048807-.3162698ZM143.5659318,39.8306266c.3261808-1.3492124.2069677-2.7173842.2278731-4.0788349.0782449-5.0933599.1559681-10.1866596.3923479-15.276027.0127599-.2749304.1465988-.5798045-.2385265-.7831208-.6849837-.3616016-.8871564-.2519485-.9178123.6832783-.212826,6.4939932.2437027,12.9704817.5361178,19.4547043ZM65.6696522,98.6833285c.3371551.8005353.7954394,1.5194953,1.4364153,2.1154404.1189021-1.1076364-.9325384-1.4271764-1.4364153-2.1154404ZM12.7608118,49.4080796c.279284-.9192167.3911541-1.8631809.4001824-2.8138962.0652542-6.8743034.1190827-13.7487172.1732171-20.6231209.0047499-.6031074-.0027085-1.203677.1631656-1.7931718.1208131-.4293236.3037406-.778075.8237881-.7432059.4885389.0327525.5921331.3990388.6713109.7968839.518272,2.6041699.9259127,5.2261655,1.2972598,7.8547217.7244171,5.1277676,1.0164711,10.2962325,1.4724882,15.4492792.0094747.1070751.0291262.2132474.1679657.3289294.1117648-1.217109.2188649-2.4346694.3360517-3.6512568.6538362-6.7879833,1.4847165-13.5480091,3.2912702-20.1467902.6657686-2.4318506,1.4789534-4.8111968,2.729151-7.0179028.7227619-1.2757375,1.5952073-2.4222656,2.8166599-3.2698381,1.6632602-1.1541419,2.9710681-.7647533,3.6485082,1.1422949.8414333,2.368723,1.0863397,4.8576271,1.3020097,7.3359532,1.0868764,12.4894362,1.0414141,25.0029177.7478003,37.521475-.2094605,8.9306187-.1634114,17.8572851.6139815,26.7655138.7330642,8.4002088,1.7015751,16.7751987,2.7023321,25.1469785.6921361,5.79,1.4396705,11.5777731,1.3667122,17.4282625-.0205142,1.6450884-.125578,3.2874081-.4873101,4.8951997-.8997759,3.9992759-3.284173,5.4415897-7.3381852,4.7459527-3.8288325-.6570162-5.7502005-3.3504654-6.6105881-6.9016189-.809393-3.3406547-.6799178-6.7537762-.4184947-10.1396525.7588198-9.8277363,1.5834705-19.6502563,2.2275562-29.4868403.1413323-2.1583948.3717033-4.3083933.3073168-6.4778728-.089776-3.0251574-1.3504362-5.3029458-4.1065867-6.6832455-.6354687-.318246-1.2344533-.7090691-1.8682317-1.0310567-.6178285-.3138723-.8977847-.7565075-.9567893-1.4771929-.5163208-6.3062356-1.06085-12.6095822-.6289232-18.9469051.0140791-.2065765.0017806-.4149486-.0856029-.6620218-1.2113008,2.7993607-3.4248633,4.9199973-4.908055,7.5255616-.7973152,1.4006534-.8486559,2.9352761-.8561193,4.4638799-.0165969,3.4000205.3541182,6.7781525.6739843,10.1587121.9973763,10.5408079,3.3245493,20.8495596,5.4203181,31.1990487,1.1414974,5.6370213,2.0424519,11.3097343,2.5060227,17.0468488.3285081,4.0655433-1.5605338,7.5249095-4.8565588,8.8750348-5.8742964,2.4062505-12.386652-1.3985568-13.1801904-7.6967072-.4488422-3.5623285-.2132273-7.1168525.2425516-10.6496084,1.2220821-9.4723441,2.7374043-18.9057864,3.8218732-28.3965682.840044-7.3516673,1.3790508-14.7204081,1.2074538-22.1309397-.0543049-2.3452295-.7837754-4.3368223-2.5222234-5.9336496-.1007679-.0925697-.1861626-.2030254-.2920013-.2887436C1.2520923,58.2727219.0892707,54.4334066.013975,50.0668312c-.0837697-4.8580434.2156975-9.6900956.7202164-14.5135106.3273595-3.1297246.713375-6.2534404,1.0923887-9.3775073.0858462-.7076145.2965982-1.3948854.6409333-2.024255.3196102-.5841581.6834188-.5831049,1.0150491-.0060489.2818245.4903847.2942208,1.0420812.3183262,1.5924135.1918629,4.3800877.1543681,8.7630042.1742478,13.1452687.0139186,3.0680917.0991603,6.1340568.3060954,9.1957485.0145831.2157251.0264954.4458152.108946.6397722.1640158.3857974.4719319.5965369.9105697.5585681.4056194-.0351099.5420087-.3342761.6115689-.669435.1679105-.809062.192505-1.6297905.1729939-2.4533278-.1278-5.3940108-.2711711-10.7873595-.5513881-16.1763044-.0982399-1.8893729-.0998851-3.7790768.237586-5.650654.0661796-.3670387.0920982-.9000367.4881878-.9572558.4627106-.0668291.5964968.4794404.7765302.8293555.2825242.5491285.2732,1.1722486.3378774,1.7647428.6930464,6.348859.993745,12.7201382,1.0462041,19.1045986.008785,1.0687848-.0921233,2.129053-.2941706,3.1902841-.3445207-6.9220428-.7498417-13.8385282-1.5981916-20.7273471,0,.6022949-.006543,1.20466.0010182,1.8068647.0698009,5.5597896.6243188,11.1029572.5734371,16.6668596-.0097631,1.0674306.0093869,2.135463-.1621249,3.1966842-.1686453,1.0434756-.5617154,1.4790186-1.4737472,1.5639645-.9270738.0863502-1.6910497-.3671891-1.9564553-1.2771569-.4484861-1.5376622-.5098205-3.1318513-.5169654-4.7203425-.0219211-4.8754178-.0192427-9.750946-.025259-14.626424-.0016527-1.3408763-.0002508-2.6817627-.0651765-4.031266-.4085736.7183481-.4324032,1.5288346-.512524,2.3058161-.6880107,6.6721809-1.4798412,13.3385134-1.3757781,20.0649441.0292641,1.8914092.1668948,3.7747131.5269591,5.6354464.3715127,1.9198984,1.363625,3.5013576,2.7008048,4.8885589.874562.9072794,1.7370186,1.8237575,2.5182836,2.8154912,1.0149313,1.2883419,1.5633425,2.7421517,1.658696,4.3789942.3654537,6.2733828.162802,12.5369449-.279447,18.7988417-.5229315,7.404272-1.4513019,14.7643557-2.3916147,22.1226136-.5341893,4.1801821-1.2855958,8.3320354-1.6992955,12.5282677-.3009594,3.0526333-.6186887,6.1165821-.0769909,9.1707402.786529,4.4345983,5.763931,7.1324413,9.7364707,5.277456,2.2892944-1.0689654,3.2236034-3.1187603,3.5757906-5.4581816.3963253-2.6326189-.0318447-5.2492477-.4174113-7.8469173-1.0728475-7.2281207-2.7197315-14.3522359-3.9483315-21.5535628-1.6871851-9.8892488-2.8978389-19.8246019-3.18498-29.8609711-.036118-1.2623305.0700944-2.5177594.1716422-3.7736197.1297711-1.6048525.7535508-3.0151159,1.7109971-4.2869562.6751379-.8968267,1.3677254-1.7806225,2.0592696-2.6649701,1.4595026-1.8663909,2.0371503-4.023261,2.1259533-6.3503838.1141422-2.9915722-.1791155-5.965419-.3777973-8.9427166-.29716-4.4531363-.6154812-8.9048982-.941356-13.3560383-.087554-1.1958224-.2350857-2.387241-.4036884-3.5788-.1775406.7908149-.0810486,1.5856724-.0861697,2.3800083-.0338961,5.2583663.2482068,10.5171037-.0090433,15.774838-.0695677,1.4217595-.1565198,2.8450437-.4898079,4.2360168-.2986396,1.2463605-1.1566799,1.8969064-2.282749,1.7627767-1.1809508-.1406602-1.8104659-.8700529-1.8652975-2.1923711-.0909672-2.1936551.0678549-4.3806595.2168436-6.566139.3323501-4.8751068-.0051561-9.7474651-.0275211-14.6210472-.0042709-.9301008.0128653-1.8628298.0828167-2.7896102.0314334-.4164633.0884017-1.0169727.5963964-1.0503471.5591223-.036735.8277881.5268388.9096844,1.0067808.1746767,1.0237037.2902985,2.0603881.3733785,3.09631.4050727,5.0508268.6344405,10.1118454.868809,15.172834.104492,2.2565319.0944556,4.5206375.3951466,6.7728559ZM30.4203731,52.3625457c.0622799-10.5249382.1947094-19.6179351-.1641888-28.7070499-.1133648-2.8709548-.2076599-5.7503058-.837175-8.5697644-.3350034-1.5004156-.9943418-1.6973319-2.1545528-.7121738-1.9433769,1.6501643-2.943888,3.855837-3.5657642,6.2449237-1.0696876,4.1094908-1.7209107,8.3034961-2.2962713,12.5036708-1.0476788,7.6481853-1.9321618,15.3156008-2.3977087,23.0255594-.4018376,6.6547965-.3412379,13.2992907.3856619,19.9332419.0741521.676768.3498549,1.0580913.9588959,1.3587523,2.1653967,1.0689955,4.1665243,2.3443166,5.1213174,4.7304642.1243642.3108027.3342009.3103111.5933068.2675373,1.2001359-.19811,2.4018116-.1723293,3.5976139.0195913.4862367.0780342.6062172-.0756568.5795688-.5573442-.2059044-3.7220884-.1088507-7.4470358-.0626962-11.1710703.081796-6.5997141.1734578-13.1993178.2419923-18.3663382ZM23.7110761,124.8444709c-.0317393,2.0271641.0046044,4.0524824.3103262,6.0611286.438096,2.878368,1.7869574,5.0837899,4.6338719,6.1526149,2.6140407.9814114,4.670346-.0034508,5.5501444-2.657898.5510295-1.6625029.6127877-3.3816029.5865958-5.1113963-.0685245-4.5246802-.7187243-8.9994441-1.1736329-13.4899975-.4798266-4.736483-1.0467157-9.4640983-1.5519017-14.1981035-.4965038-4.6526105-.9743543-9.3073377-1.4283601-13.9642417-.0535024-.5487574-.2344587-.6997399-.7522191-.6464029-1.0343019.1065334-2.0720696.2193364-3.1099477.23647-.6337182.0104627-.7634693.2551184-.771991.831753-.0355864,2.4085777-.096507,4.8172759-.1871156,7.2244693-.1946341,5.1709928-.6125721,10.3267079-1.0824425,15.4791928-.4274577,4.6875098-.9672872,9.3675963-1.0233275,14.0824115ZM10.4672841,26.8664948c0,1.6459511-.04953,3.0597155.0091938,4.4689758.1835695,4.4053166.3093431,8.8073931-.0585382,13.2109342-.1069773,1.2805375-.1394314,2.5700431-.0337456,3.8559173.0365444.4446014.2285753.8449242.7043393.8726811.4561525.0266133.4116382-.4369675.4661488-.7329538.2603448-1.4135538.1561236-2.8363665.062947-4.2564507-.1934604-2.9484373-.3978852-5.8961523-.5929707-8.8444792-.1839908-2.780612-.3617822-5.5616354-.5573743-8.5746246ZM28.0347973,83.6357064c-.00001-.0177556-.0000201-.0355111-.0000301-.0532567-.1360708-.0080652-.2721517-.0158998-.4082025-.0242258-1.840846-.1125522-1.8227143-.1141673-1.6594182,1.7272856.040246.4538503.2053175.5443034.6086047.4893916,1.110059-.1511229,2.2231575-.2285553,3.3406347-.0520429.1222526.0193004.3412078-.0005317.3723703-.0681232.2539899-.5507737.0866863-1.1169355.0081405-1.6771387-.0644467-.4596686-.4408296-.3226798-.7094653-.3349884-.5165666-.0236841-1.034984-.0069016-1.552634-.0069016ZM194.443114,76.3663366c-.0069618-2.7272049.1522164-5.980095.0775627-9.2427255-.0714837-3.1243076-1.1716868-5.6933576-3.3296603-7.8662177-3.7317988-3.7574992-6.6113906-8.0867077-8.6410224-12.9686158-1.9760842-4.7531151-3.4944159-9.6394571-3.3631852-14.8566044.1472007-5.8522549,1.7212467-11.2596275,5.7084849-15.707427,2.9789628-3.3230346,6.7214149-5.1399306,11.2744438-4.8829564,3.1170148.1759155,5.8027199,1.5324709,8.2044361,3.4301899,6.4848145,5.1239958,9.1632769,11.885446,8.3703353,20.0413603-.8070457,8.3013594-4.0845026,15.596229-9.2250702,22.1030323-1.2055328,1.5259355-2.3544283,3.0900906-3.2284034,4.8410904-.4999847,1.001735-.7519131,2.0445886-.7354416,3.1628583.0509795,3.4588847.5599323,6.8702808,1.0420612,10.2853183,1.80218,12.7652594,4.5533298,25.3574773,6.9213005,38.019624.8249016,4.4110847,1.5856423,8.8330434,1.9591111,13.3112782.1328357,1.5928449.0398447,3.1767016-.2557604,4.742863-.7532172,3.9907893-3.4954191,6.1298837-7.6604537,6.0055546-5.0574876-.1509725-8.3381747-3.1821386-9.2513525-8.5145266-.7687458-4.4890085-.5854923-9.0064862-.4151392-13.5203525.2778897-7.3627019,1.1471701-14.6815064,1.6903099-22.0246571.3897999-5.270093.6753736-10.5468067.8574434-16.3590864ZM193.2430183,120.1492771c-.0459638,2.4934032-.0067612,4.9844591.2395096,7.4680516.1111278,1.1208277.3494737,2.2130258.7932425,3.2569528,1.1585457,2.7254695,3.2082002,4.0770593,5.9231166,3.891318,2.7229817-.186283,5.4033099-2.2971691,6.0860064-4.7850952.6612293-2.4095809.5406921-4.8406891.0779038-7.247401-1.2965777-6.7431429-2.5737948-13.4892552-3.7571181-20.2535443-2.0143038-11.5142142-3.7910442-23.0588336-4.8225123-34.7106484-.406773-4.5948096.3966212-8.8018859,3.258959-12.5476083,1.5604033-2.0419604,3.0130294-4.1711137,4.3451182-6.3768466,4.3891159-7.2677347,5.8425044-14.9330636,3.3567852-23.2168481-1.1018884-3.672112-2.5139676-7.1241854-5.3507253-9.8210303-1.9678384-1.8707897-4.1979777-3.2999323-6.9750487-3.5094429-4.1625067-.3140378-7.5821486,1.310401-10.1758257,4.4822022-4.0499946,4.9527599-5.2366282,10.8272844-4.8539306,17.0377002.3779027,6.1328129,2.6250352,11.6992332,5.6838679,16.9691256,1.7111953,2.9481062,3.8349617,5.5962236,5.9029535,8.2881481,1.4181181,1.845947,2.52432,3.8463573,2.7776929,6.2162841.2887436,2.7007321.3281469,5.4088472.2585291,8.1229411-.1256733,4.9011483-.3126184,9.8000798-.6018234,14.6935842-.3037105,5.1385112-.6732871,10.2732706-1.0351796,15.4081805-.3907027,5.5436491-1.032431,11.0702047-1.1315211,16.6339767ZM11.3723164,102.9319347c.9331854,7.1101515,2.1678845,14.1607165,4.1612378,21.0758578-1.0734845-7.0784122-2.2293468-14.1545974-4.1612378-21.0758578ZM13.8861887,132.1792654c1.7089482-1.436315,2.3394364-4.2521473,1.4247739-6.7846729-.22846,1.8374905-.1219617,3.6007888-1.0289602,5.1399657-.965963,1.63923-2.6659131,2.0192192-4.4329205,2.4207358,1.0106654.6015225,2.8819417.1948498,4.0371068-.7760286ZM4.6663498,35.0861084c-.3169168,4.2563203-.0980493,8.5042845.2291321,12.7397696.1007804-4.2570025-.0569432-8.4984663-.2291321-12.7397696ZM92.5331325,72.601384c-.6698664-1.1912982-1.3297314-2.388214-1.9994574-3.5795825-.2178718-.387583-.4951797-.709039-.932087-.8827927-.5545956-.2205603-.9056443-.1157623-.9721323.5250532-.0676918.6525522-.1526678,1.3054254-.1762115,1.9600942-.0954186,2.6520999.0834512,5.3076204-.0991001,7.9601215-.0314484.4568698.0354309.934334.1403593,1.3827474.0983277.4202452.2677178.926971.8165755.8732729.5800352-.0567677.4579432-.6004491.458856-.983217.007042-2.9278629-.0045442-5.8557759-.0069016-8.7836689-.0002006-.2517077.0245167-.5034456.0494648-.9813512.3024766.5726321.49209.9298299.6801084,1.2878704.5588891,1.0643208,1.0540387,2.1658782,1.7613422,3.1451629.6386888.8843175,1.1246597.9139502,1.8215005.0765596.8591688-1.0324611,1.5095141-2.2118822,2.2545858-3.3248452.118541-.1770441.1499593-.4799019.4929327-.4667908,0,1.9836479-.0030194,3.9523591.0011737,5.9210401.0023975,1.1218308.0221293,2.2436315.0227612,3.3654523.0002608.4643733.2457391.6195589.67102.6172216.3831892-.0020966.6251163-.110556.6215151-.5583072-.0308265-3.8292939.1627594-7.6621289-.1891018-11.4861865-.0590849-.6420192-.3977448-.7462956-.8872968-.417637-.6731767.4519444-1.1311099,1.1112377-1.5448346,1.7883668-.7531771,1.2327078-1.4738525,2.4852677-2.24952,3.7997414-.2659423-.4464371-.509986-.83718-.7355519-1.2383254ZM114.7142593,74.722151c-1.1166646-2.0688746-2.1875861-4.1642522-3.5046379-6.1190598-.2528012-.3752243-.5772866-.6089156-1.0281878-.5162356-.5053014.103845-.3437658.5615975-.3621734.8803651-.2052423,3.554524-.1858516,7.1127898-.1488057,10.6710455.0022771.2186944.0018959.4400271.0349393.6551704.0434961.2831662.1473311.5395084.4995534.5470219.3647214.0077743.6488305-.1404395.7558555-.5002054.0528153-.1775256.0305055-.3796682.0295625-.5705957-.0135925-2.7643712-.0324716-5.5287324-.0383099-8.2931136-.0004514-.2113815-.1304583-.4730003.1568609-.6870401.6125069,1.0777529,1.213277,2.1189213,1.7988195,3.1685862,1.1453143,2.0531153,2.2822925,4.1108752,3.4224005,6.1668996.2913117.5253341.7641314.7094603,1.3186468.6063877.6073708-.1129134.3851253-.6592532.401015-1.0144548.1639531-3.6681496-.1838654-7.3303205-.1532496-10.9977178.0030395-.3638587-.1702929-.5604138-.5370908-.5826434-.3889372-.0235537-.5525191.2139496-.5733443.5477843-.0527651.8459173-.1074964,1.693209-.1129836,2.5402598-.0150471,2.3237723-.0051762,4.6476952-.0051762,7.2269571-.7199531-1.3768188-1.32287-2.5606436-1.9536942-3.7294113ZM127.8501285,68.770475c-.0071022-.3999517-.1831231-.7693276-.6621021-.8021203-.5011885-.0343174-.5396689.3940933-.6121257.7238252-.2555197,1.1628993-.1444019,2.3384182-.0881057,3.5126831.0928305,1.9366007.2931474,3.8859011-.3157782,5.7788552-.3835202,1.1922512-1.2692722,1.8403093-2.3534552,1.8160334-.8063134-.0180364-1.4643227-.6781222-1.8284823-1.8575132-.2932277-.9496319-.3750036-1.9273618-.3674399-2.9175606.0154584-2.0237835.0255399-4.0476372.0236139-6.0714408-.0002909-.3074522.0922587-.678704-.3335037-.8356352-.6533045-.2408036-.9177722.0630272-.9341234.6760959-.0721658,2.7060888-.1323943,5.4127695.0039223,8.1182765.0189995.3771704.1272382.7545414.2293778,1.1220415.545447,1.9625519,1.8873164,2.9569338,3.7735094,2.810957,1.7367252-.1343906,3.1225622-1.5384647,3.3630348-3.3849935.1985815-1.5248621.1487254-3.0571374.1109673-4.5877175,0-1.3673191.0149668-2.7348889-.0093091-4.1017867ZM100.7500176,79.9059439c.0348089.4762404.1801939.7644022.7030803.8208388,1.9124451.2064461,3.8224024.2532024,5.7278054-.0494648.305145-.0484617.7376385-.0837822.709701-.5196663-.0308766-.4817677-.4624372-.4581037-.8214708-.4581839-1.4512618-.0002909-2.902985-.016933-4.3535145.0166321-.4892712.0113254-.6811417-.1026312-.6668168-.6258486.0337255-1.2314439.0414497-2.4654056-.0003411-3.6963178-.0204339-.6020642.2144411-.7698794.7623759-.7120484.9808496.103534,1.9683099-.0804417,2.9521388.065184.3633471.0537783.7842343-.0372666.8668228-.4356835.0714837-.344769-.3396229-.4464873-.5947613-.5831951-.3464643-.185651-.7324422-.2051219-1.118069-.2065564-.7663884-.0028489-1.533128-.0228114-2.299045-.0055875-.4551444.010232-.6311753-.1586966-.6142824-.6237521.0337857-.9301409.0593056-1.8633314.0202634-2.7923989-.0250985-.5973896.1403392-.8040563.7705113-.7997127,1.3403146.0092489,2.6810404-.0883064,4.0221374-.1170062.4300659-.0091988.8247912-.1146889.8578346-.5630922.0333042-.4521049-.4291631-.4455644-.7332648-.4514528-1.6937105-.0327926-3.3880831-.0291613-5.0820043-.0535777-.7765302-.011185-1.0546205.3916256-1.0498656,1.1166145.0116665,1.7788269.0038119,3.5577742.0038119,5.3366713-.1856209,1.7802815-.193014,3.5597203-.0630473,5.3376043ZM129.5112671,20.9737432c2.7701694.364912,5.5530585.4032721,8.3507741.19493-2.7612615-.6351578-5.5590974-.3042923-8.3507741-.19493ZM85.2517953,19.7375144c2.1496675,1.4178071,4.3260084,2.7860591,6.7663456,3.6637458-2.063558-1.5778178-4.3147632-2.8069645-6.7663456-3.6637458ZM94.2828684,22.7562416c-2.0250575-1.237894-4.2405309-2.04184-6.4713524-2.8107865,1.909215,1.5019203,4.1790184,2.1820388,6.4713524,2.8107865ZM130.6415243,22.0691513c2.291722.3458323,4.5931143.5673656,6.9181707.4980587-2.270626-.6542174-4.5894529-.6437948-6.9181707-.4980587ZM131.2214693,23.6373992c2.3222375.1771745,4.4237543.3375163,6.5252711.4978581-1.0185777-.6678902-5.4261313-.9855443-6.5252711-.4978581ZM99.1090421,22.5579912c-1.1803339-.9916635-2.6697651-1.7333245-3.7745727-1.8651671,1.0424524.9074499,2.2179512,1.527691,3.7745727,1.8651671ZM132.6387848,24.792454c1.6973419.1981301,3.3834687.5147208,5.278409.5114807-1.1481933-.5677067-4.2267277-.8591186-5.278409-.5114807ZM137.9406071,26.8569048c-1.3104812-.6602463-2.7417404-.7391231-4.1591362-.8195649,1.3340449.5869368,2.7250482.813536,4.1591362.8195649ZM88.4751228,126.931703c-.2429002-.0208452-.2905794-.4043855-.6872006-.3043124.8631111,1.2662628,1.7755968,2.4118279,3.0896291,3.1878766-.8015184-.9607668-1.6030267-1.9215135-2.4045451-2.8822602l.0021166-.0013041ZM88.473247,126.9328867c1.4335865.893416,2.32303,2.3444972,3.5488061,3.4567982-.727266-1.4236554-1.7999029-2.5374009-3.0864492-3.4538289-.1024807-.0729884-.3046434-.006059-.4604811-.004153,0,0-.0021166.0013041-.0018759.0011837ZM134.5823272,27.1620397c1.0075231.6558425,2.1201752.8329768,3.2866958.6902-1.0681428-.4185398-2.1710444-.584419-3.2866958-.6902ZM137.9124389,37.7403751c-.2582683-1.0005513-.9592821-1.484255-2.018838-1.3752639.6116341.5977106,1.235005,1.0586431,2.018838,1.3752639ZM93.5224185,130.2997434c-.9347754-.5105578-1.3934308-1.5709162-2.5172779-2.2186032.7293525.9396406,1.3730771,1.6379661,2.1098228,2.2484968.1451442.1202563.3022258.2875599.3791967-.0573595l.0282584.027466ZM89.355177,129.0318555c-.6363415-.6904809-1.2726929-1.3809618-1.9090444-2.0714427.3378072.9729449.9326789,1.7066611,1.9090444,2.0714427ZM84.747798,101.2291458c.5356564,1.0061688.8909683,1.3051846,1.735391,1.436315-.5352952-.5765644-.9578075-1.1479726-1.735391-1.436315ZM137.1918839,40.6897252c.4405387.7934331.8541732,1.3661655,1.6061866,1.6191071-.2987148-.6813624-.7330541-1.2345436-1.6061866-1.6191071ZM93.4948322,130.2728593c.3324905.1205974.3705998.6539064.8982812.6185357-.3735691-.7747045-.8276401-1.4001619-1.5994355-1.9088739.1706039.5680778.7251594.7892701.7287406,1.3172223,0,0-.0282584-.027466-.0275863-.0268841ZM135.6003833,28.2588723c.5776879.7133926,1.2275015.7165625,1.9003472.6431126-.5643662-.2871687-1.1419939-.5302795-1.9003472-.6431126ZM136.4848212,129.9143774c-.1135855-.0523037-.2503033-.1531794-.3453307.0123386-.0905835.1577938-.062947.3190786.107366.4111066.3914049.2114618.8011573.3590035,1.3892176.3481295-.3947554-.4015768-.7678831-.594982-1.1512529-.7715747ZM133.0828245,129.8604486c.6044015.4998643.8338596.6059965,1.7520632.7738618-.5669543-.5142092-1.0318191-.8983314-1.7520632-.7738618ZM41.6327678,86.4510872c1.3651623,5.1408686,5.810123,14.9393333,7.7537758,16.9163905-.1910429-.382798-.3011675-.6228492-.4277537-.8538923-.6961386-1.2705563-1.4793045-2.5008264-2.0817349-3.8141365-4.183673-9.1204027-6.3892504-18.6953278-6.5052083-28.7411165-.0075085-.6508469-.1129384-1.2974404-.3423414-2.0964911-.2356776,6.3877808-.0010683,12.5477688,1.6032625,18.5892458ZM133.4531635,9.0977016c6.0590821,2.334837,11.4481876,5.7946947,16.4926745,9.8333087.0751151-.1256532.1502302-.2513065.2253653-.3769597-4.7028979-4.6119583-10.4884039-7.4188125-16.5070796-9.8368799-.0703201.126842-.1406401.2536839-.2109602.3805309ZM49.5893933,34.1007547c-4.0972425,4.9467711-6.0295748,10.8604282-7.624767,16.9092883,2.3841162-5.716179,4.4044489-11.5785255,7.624767-16.9092883ZM100.9896576,3.3465582c3.8770534-.2944966,7.7495726-.1307592,11.6248103.0583376-3.315506-1.409165-20.4158322-.3102509-23.1307587,1.5080094,3.8059308-.723439,7.6366994-1.2724472,11.5059483-1.5663469ZM155.4233802,24.7004561c1.7158899,2.4461152,4.0394215,4.2739856,5.5346409,6.7815331,1.4789083,2.4801818,3.0289392,4.917961,4.5477925,7.3743383-.7947071-3.6638662-7.6998971-13.3078274-10.0824334-14.1558714ZM167.0020962,98.9082825c1.9646284-2.7756565,4.9676465-12.0847397,4.9322557-15.3123406-1.4498775,5.1667596-2.9019417,10.332817-4.9322557,15.3123406ZM59.4205955,61.1945358c1.6508965-6.1389019,4.1667199-11.9263841,7.1364137-17.5487796-3.4768309,5.3950139-5.7084448,11.3102158-7.1364137,17.5487796ZM173.101324,67.5610601c.2803373-3.8658383.1973576-7.7031674-.8279511-11.4573362.3204228,3.8222619.4609024,7.6490279.8279511,11.4573362ZM61.0624337,83.9564702c1.534081,4.4171135,3.1766515,8.7793453,6.2770543,12.4042496-2.5372103-3.9097557-4.6497416-8.0342937-6.2770543-12.4042496ZM71.4153135,123.3185956c1.093121,2.2482159,2.4007232,4.341527,4.364218,5.9612359-1.6086443-1.8759509-2.8801134-3.9953637-4.364218-5.9612359ZM73.7178493,111.2728379c.3378573,1.7436368.8005453,3.4403266,1.8486454,4.9168475-.5321153-1.6705681-1.3995399-3.2150416-1.8486454-4.9168475ZM73.8681296,109.6070648c.3155776,1.3135709.5381843,2.6650604,1.5141386,3.7093686-.4128922-1.2739067-.8329467-2.5448843-1.5141386-3.7093686ZM74.0568402,107.0976114c.2997982,1.3192486.6858664,2.607721,1.3432638,3.7836812-.3271538-1.3164399-.6703679-2.6103492-1.3432638-3.7836812ZM75.0832123,72.2823957c-.0970638,2.0126487-.1783782,4.024876,0,6.0677493v-6.0677493ZM75.2438651,103.0899292c-.2465014-1.1211286-.6409459-2.1890407-1.163441-3.2108986.1603318,1.1521156.494648,2.2416654,1.163441,3.2108986ZM74.8215735,86.0783006c.0352603-1.7864207.2395697-3.5721592,0-5.3604156v5.3604156ZM74.9337445,93.8824741c-.1135955-1.4296642.1655381-2.8867141-.2563924-4.3085337.0854675,1.4361746.1709349,2.8723592.2563924,4.3085337ZM75.5257272,100.6288371c-.3390611-1.052233-.6271226-1.9462107-.9768772-3.0316477-.0587137,1.1095624.3177444,2.2688304.9768772,3.0316477ZM74.1636545,105.263672c.3605383.8842674.7210766,1.7685347,1.081625,2.6528021-.0020966-1.0329727-.4679344-1.8735233-1.081625-2.6528021ZM74.5284863,94.5205911c.1228244.8292151.1468997,1.6880127.8157028,2.5941585-.2302305-1.037527-.4145172-1.8483344-.8157028-2.5941585ZM71.6581936,124.7954174c-.2189853.7549827.3740606,1.1610536.7384911,1.6661543-.2461604-.5553781-.4923207-1.1107562-.7384911-1.6661543ZM145.8175583,57.9818616c.3235124,1.3983863.6434136,2.7974949.9728847,4.1943464.1081986.4587457.1478828.9427905.4538002,1.3395722-.1427267-1.9295687-.5623399-3.7851558-1.4428956-5.5210183,0,0,.0163512-.0130609.0162107-.0129004ZM146.5555278,68.3490462c-.1283617-.8322546-.2066266-1.6787337-.6862276-2.4113063.1058513.8386546.2059846,1.6789243.6862276,2.4113063ZM20.6736804,55.9764055c.1983658-.1525875.1838102-.3817547.2237753-.5893845.3369345-1.7505785.5059283-3.5234668.6351828-5.2969771.675173-9.2642729,1.7099163-18.4737644,4.034787-27.4960601.1579393-.6129282.3715127-1.2362188.2441591-1.9509757-1.9477556,3.3436842-5.9685839,31.1227499-5.1379043,35.3333973ZM27.8802637,68.6139151c.0701194-.0032401.1402439-.0064803.2103633-.0097204-.2447459-4.788887-.4894969-9.577774-.7342479-14.3666611-.5302745,4.8233649-.4471945,9.6196651.5238845,14.3763815ZM28.2764486,52.5952239c.2134029,3.670838-.4338327,7.3648386.2333001,11.0171887.1096481-3.6815616.3030885-7.3615483-.2333001-11.0171887ZM28.2037561,74.2412661c.3399188-.74771.3424567-1.5025122-.0054521-2.4805931-.2224361.9296393-.36587,1.7044341.0054521,2.4805931ZM27.6008292,109.5827688c-1.3439158,3.272361-1.9764654,16.4778481-.9783016,19.7687872-.198446-6.5534493.5459837-13.0617372.9783016-19.7687872ZM32.9838857,123.4269949c-.0939891-2.5607339-2.7514959-17.9033292-3.3265857-19.205384-.0917271,2.9769364,2.4902935,17.8837078,3.3265857,19.205384ZM33.0543111,130.6347117c-.1438953,1.3411973-.3364228,2.6708586-1.2023879,3.7747733-.9739079,1.2415254-2.3142776,1.386138-3.6022735.4938254-1.1416077-.7908951-1.6759249-1.9000663-1.9148677-3.2126742-.0918575-.5046393-.1546791-1.0276962-.4639118-1.5670441-.6378161,1.7620544.3334235,4.3730858,1.8724198,5.2772755,1.8895233,1.1100941,3.5793116.9350864,4.6848013-.5791324,1.1680655-1.599907,1.3265766-3.4049158.8379474-5.2850799-.2591259.3446586-.1722691.7303055-.2117276,1.0980564ZM192.1761194,49.2678708c-6.2067443-8.4295005-8.3743679-17.5037788-5.6163366-27.5647149-4.0199606,5.6666641-.3903617,23.7863905,5.6163366,27.5647149ZM193.0741698,52.5835072c-2.6227881-3.0274545-4.9991651-6.2184007-6.5694393-9.9701821-1.5694517-3.7497751-2.0739906-7.7013818-2.385987-11.7060345-.3930501,8.6296468,2.6395205,15.8467631,8.9554264,21.6762166ZM199.1695055,95.7886395c.5941394,6.3215837,1.0673002,12.6618056,2.8485145,18.8012192-.8120012-6.285892-1.6461918-12.5729275-2.8485145-18.8012192ZM205.6054269,28.2303631c-1.0430844-3.5919612-3.1000016-6.4838214-6.0365717-8.7656224-.4286415-.3330623-.883826-.6697159-1.5405612-.7040935.3255789.5228463.766579.8082595,1.1711652,1.1247901,4.0619721,3.1778552,6.2138264,7.3848311,6.7651318,12.469895.088818.8193141.1043265,1.6647098.5328476,2.4161815.2488588-2.2634837-.2724928-4.4077743-.8920116-6.5411508ZM207.0009944,33.3469557c1.1379412-6.0458006-3.5178693-13.6338276-8.6116505-15.5326902,5.7225891,3.5907875,8.3863855,8.8793683,8.6116505,15.5326902ZM200.7835567,132.6316612c2.318857-.2967688,4.3171908-2.3725249,4.2616771-4.5631004-1.0978558,1.9809394-2.1747259,3.8675236-4.668089,4.0407256-2.6097473.1812873-3.7778229-1.7138034-4.9978409-3.5441716.5424777,2.7016549,2.8488957,4.3935899,5.4042528,4.0665464ZM203.0481639,46.9241059c-.9509761,1.6762158-2.4824289,2.7351899-4.1037027,4.0281563,3.4881563-.9684307,6.303467-6.1717347,6.4877838-9.2410904-.7598379,1.912094-1.4715854,3.6045305-2.3840811,5.2129341ZM204.2797983,42.2833525c-1.1802537,2.5246209-2.4572099,4.9887826-4.3479471,7.0895169,2.0375967-1.995505,3.9376029-4.0912939,4.3479471-7.0895169ZM195.1033803,118.0503885c-.4797012,1.0390919-.6570362,2.0930503-.1939871,3.178407.0646624-1.0594556.1293247-2.1189313.1939871-3.178407ZM193.1103832,16.1232785c-.9189559-.0587388-1.5071166.2008686-1.9660127.7949879.6718024-.0576705,1.3315672-.151133,1.9660127-.7949879Z"/>
  </g>
</svg>