<?xml version="1.0" encoding="UTF-8"?>
<svg id="Layer_2" xmlns="http://www.w3.org/2000/svg" viewBox="0 0 118.7873282 71.3020103">
  <g id="Layer_1-2" data-name="Layer_1">
    <path d="M6.3126493,40.8314147c-.5158384.6543962-1.1714893.7782271-1.8107823.9213743-1.6198336.3626905-2.4138653-.2908756-2.1843325-1.9000988.0964942-.676505-.1282691-.7552369-.6869175-.7849576-.6286471-.0334334-1.4369762.1356639-1.6163912-.7852085-.1391031-.7139599.7694377-2.0116464,1.5232638-2.1435011.5749195-.100564.7821715-.378442.9562603-.9110148.3739347-1.1439611,1.4877328-1.4498226,2.3930274-.6607534.2803489.2443546.430989.2015333.7070396.1147712,1.6560081-.5204632,1.7581533-.4732343,2.6660217,1.0406625.0466385.0777732.149313.1219457.2280433.1834332.2875136-.2165513.1471558-.4724558.076993-.6731269-1.6234771-4.6432905-1.9133345-9.4895749-2.028347-14.3315868-.1301962-5.4813773-.3365441-10.9462437-1.0436755-16.3904814-.4564903-3.5145564-.1806133-3.7994448,3.2814991-4.3818428.732697-.1232551,1.4940289-.2089523,2.2003881-.0136571,1.8998012.5252665,3.8281183.4058206,5.7568054.4047782.9274935-.0005051,1.9038437-.0417499,1.6570923,1.409662-.0765828.4504596.2847372.6849437.7299752.7171063.4553144.0328929.9121698.0465404,1.3667861.0864725,1.1737108.1030992,1.3526078.3084899,1.1317325,1.4594872-.3899211,2.0319053-.9183919,4.0332244-1.2796604,6.0741926-.6680147,3.7738904-1.1753452,7.5503996-1.2079517,11.3974658-.0384748,4.5393227-1.3191293,8.8619975-2.5970846,13.1720286-.0976138.3292249-.202077.6564166-.3176558,1.0308757.2322128.0372555.4050839.0515142.5706036.0942389.3988392.1029383.898117.1170362.9616057.6552327.0653708.5541346-.3322524.8772662-.7941202.9580249-.7537215.1317904-.7272663.4849579-.5727817,1.10825.6551297,2.6432003.5313052,5.3712517.8095468,8.0558641.4956648,4.7823904,1.1189311,9.5514228,1.6525302,14.330094.1907589,1.7083523.2654403,3.4294062.4152471,5.1427259.0614522.7027704-.1247832,1.1256937-.9101494,1.2270363-.7142816.092167-1.4852539.1956072-1.6210626,1.1644742-.019091.1361851-.2226287.338349-.3572534.3524276-1.4878277.1555142-2.6518032,1.2604118-4.228489,1.276337-2.4694863.0249335-4.9192076.0261496-7.2914839-.7353737-1.3989824-.4490858-1.4742816-.7207096-1.237103-2.1359857,1.2525923-7.4743187,2.4745727-14.9537786,3.7318477-22.4272995.1703568-1.0126405.4366239-1.9614963-.5243544-2.7797264-.2763241-.2352756-.3044346-.7620574-.5067128-1.3224012ZM7.1711462,40.9823153c-.0909413,1.3792432.0176111,1.4428734,1.5608619.8114739-.5360747-.3469969-.8190827-1.0069846-1.5922105-.7780856-.0217629-.3224495.2130027-.389194.4500188-.4828667.2937985-.116116.456109-.3503943.3385308-.6668726-.1290605-.3474023-.4166224-.4355092-.7696999-.373198-.3404241.0600784-.661228.2046798-.6117117.5799303.049045.3716794-.1213537.9841423.6242106.9096186ZM18.2120857.9972002c-3.1678394.0536826-6.0851939-.1022498-8.9933873-.4048683-.1679584-.0174792-.3452403.0531904-.5180213.0837572-3.0923923.5470374-3.1340168.5611514-2.6775651,3.7188952.4056839,2.8065291.9919007,5.5679914.9804087,8.4464833-.02129,5.3337035.0011968,10.6786254.7679272,15.9800119.3179341,2.198284.9743411,4.3070262,1.7342525,6.3847029.2056176.5621777.5568918,1.1004643,1.18089.4480821,1.0751769-1.1240787,3.2875572-1.4298694,4.4060009-.407011.571765.5229018.6992507.2176581.8345736-.2173814,1.0535797-3.3870804,2.1276273-6.8101036,2.1230074-10.3721237-.0092463-7.1273476-.2406355-14.2543863-.3765471-21.3816213-.0137182-.7194871-.1238084-1.4563632.5384603-2.2789269ZM16.3666925,46.513817c0-.5621841.006798-1.1244648-.0012386-1.6865331-.0271244-1.897287-.0626587-3.7951273-.4218392-5.6667601-.149839-.7807945-.3833805-1.347013-1.3428644-.6728309-.6187156.4347435-1.3920188.5879927-2.1037459.2000727-.5537711-.3018335-.7269365-.0581481-.8963395.397295-.0714368.1920554-.184577.4051579-.3428016.5218723-.5967548.440142-1.0169532.8743256-.923702,1.7528079.0610822.5754391-.4133843,1.1626339-.9852989,1.3950526-.8159845.3315928-.9968118.9814913-1.1436073,1.7193488-1.4929961,7.5044577-2.7993756,15.0422072-4.0318587,22.5929865-.2326503,1.4253331-.153534,1.5314629,1.2613995,2.0126502,2.4567783.8355066,4.9879549.6614097,7.5163518.539522.743449-.0358399,1.0494906-.3598014,1.2082493-1.1203145,1.514003-7.2526198,1.9557343-14.6078434,2.2072954-21.9851693ZM18.6116359,15.3400634c.6466105-3.4023879,1.5188449-6.7444529,2.3755884-10.0905523.644944-2.5188997.3804142-2.0076088-1.5855702-1.8595843-.6765597.0509415-.8926734.2605855-.8791482.9317981.0254,1.2603764-.0166298,2.5232847-.0661912,3.7837416-.0948019,2.4112513-.1131658,4.8196587.1553211,7.234597ZM17.2909752,55.8870442c0,.6549753-.0074447,1.3100471.001303,1.9649066.0356726,2.6704502.0332725,5.340495-.1662243,8.0052765-.0406239.5426684.12164.7588273.6844451.7660982.4961152.0064151.8120048-.0457747.7914274-.6531608-.115183-3.3995954-.5634099-6.7562473-1.3109511-10.0831205ZM16.5712115,57.8127778c-.026941-.0045299-.0538853-.0090597-.0808263-.0135896-.2992597,2.0237303-.584605,4.0496483-.903197,6.0703287-.17955,1.1388072-.4104373,2.2696292-.6248138,3.4027933-.1311694.6933439.3083033.8131662.8411142.8940472.6429847.0975977.5561776-.3538174.5772343-.7220995.0679252-1.1879985.1645932-2.3759134.1822332-3.5648706.0299974-2.0218.0082554-4.0443656.0082554-6.0666096ZM10.9314197,38.0692479c.0142861-.8544818-.8965116-1.6549078-1.8612476-1.6357009-.5995554.0119359-1.2499011.8805156-1.27681,1.7052638-.0231334.7089989.6673375,1.48841,1.338756,1.5111879.8763589.0297336,1.785733-.7691867,1.7993016-1.5807508ZM3.8917238,41.4388651c1.0415666.0055079,1.8148955-.7307988,1.7957337-1.6374125-.0142571-.6745746-.4352116-.8992527-1.0516863-.8868857-1.0470294.0210085-2.1464754.7912569-2.1087181,1.5468734.0468605.9378272.8117924.9009578,1.3646707.9774248ZM4.6022686,36.8605497c-.0255882.5774209.2715514.9972171,1.0300055,1.0179489.7604665.0207768,1.6885857-.7426575,1.7116676-1.4159324.0109772-.3201524-1.0131601-1.4741641-1.3225846-1.4903082-.5775078-.0301325-1.359832.9401822-1.4190885,1.8882916ZM14.3687579,36.7381923c-.0504219-.9133377-.612487-1.3032395-1.3795761-1.3086444-.6974973-.0049224-1.1863046.3975845-1.1999376,1.1686308-.0125086.707474.7246732,1.5010859,1.3893645,1.4390513.7740834-.072246,1.1376811-.588057,1.1901492-1.2990378ZM1.6858439,36.9997397c-.5485439-.0325326-1.1627119.1459526-1.2542902.838267-.0985661.7451348.5623048.8573773,1.1341848.9101462.5875214.0542231,2.1249731-.8072272,1.972784-1.0763094-.3719014-.6575619-1.112553-.5674539-1.8526786-.6721038ZM3.6476057,34.858362c-.6068247-.2270459-.8154279.2148076-.8328572.8051682-.0110769.3751605.0841561.9455035.5099702.8629817.6254235-.1211928.9571048-.7561184,1.0834049-1.34765.117789-.5516767-.3672139-.3035322-.7605179-.3204998ZM28.0818335,8.2720157c.6663739,4.0834356.1682544,8.1424267.6783581,12.2111596.4208997-.3452982.2843575-.7211279.3184054-1.0411966.3360101-3.1588216.0167328-6.3175659.0019625-9.4767124-.0025384-.543965-.2372767-1.5211259.397755-1.5317042.6690506-.0111412.3972403.9624775.4623794,1.506761.3803917,3.1782472.441165,6.3756979.5212385,9.5715208.0085642.3420359.054947.683126.1758438,1.0208316.1922034-2.8590053.3540748-5.7119847.2134178-8.5742618-.0499538-1.016617-.0600527-2.0356501-.064412-3.0536859-.0009426-.2193535-.0211082-.5485721.3240323-.5465259.2485305.0014735.2995943.2715819.3504039.469483.2910108,1.1334666.2469444,2.3019333.3055526,3.4546936.1087904,2.139827.1246771,4.2842258.2030551,6.425848.022083.6033389-.0785614,1.246996.3895769,1.9601644.2980983-4.2126039.3219219-8.257909.8204403-12.5711831.718435,1.0867525.7647984,2.0408588.8807665,2.9360288.5647418,4.3593061.9544827,8.7301878.5093187,13.1316782-.075016.7416988-.1179048,1.5416679-.6005141,2.0986594-1.649979,1.9042555-1.7991166,4.2367814-1.8955143,6.5430804-.295502,7.0700488.0208444,14.1117603,1.1237152,21.1150647.5508949,3.498229,1.1946196,7.0015606.7366606,10.5772475-.2123014,1.6576553-.6050311,3.2500974-1.6444936,4.602406-1.5240118,1.9826914-3.682058,1.7517912-4.7348784-.51695-.7619223-1.6418844-.772568-3.4028641-.6935048-5.1667714.1801645-4.0193614,1.2476812-7.8981815,1.8817253-11.8456187,1.1187381-6.9650386,1.4430471-13.9656533.9476622-21.000673-.0792563-1.1255007-.3746747-2.2432157-1.0437671-3.1692228-1.1072333-1.5323766-1.3863822-3.2682619-1.4496907-5.0806849-.1535742-4.3965616.1844885-8.7788194.3877913-13.1649249.0127917-.275996.0015378-.5719001.4967136-.8845113ZM30.5568502,31.9068165c0,.5938287.0014638,1.1876639-.0002188,1.7814862-.0216616,7.6458611.1178598,15.2972559-1.2459343,22.8745451-.3906064,2.1702041-.7209734,4.3777215-.3673362,6.5912616.1425294.8921555.3932477,1.985188,1.5136684,2.0089053,1.1458336.0242386,1.3430494-1.0864372,1.5408958-1.9654342.3801793-1.6890489.3610176-3.410875.2951159-5.1329198-.1075486-2.8102965-.6219473-5.5749213-.9152326-8.3642608-.4602432-4.377181-.2104161-8.7647537-.2333517-13.1490962-.008175-1.5627665-.0594672-3.1395214-.5876066-4.6444873ZM29.8409214,48.1700824c-.413854,2.7362489-.8505503,5.4650338-1.3801826,8.1792511-.557783,2.8584841-1.1804992,5.7136673-1.0591197,8.6538302.0492235,1.1922774.1205944,2.3983953.70001,3.4805214.8646804,1.6148919,2.3732752,1.7845104,3.5844185.423554.9985812-1.1221098,1.4006248-2.4959737,1.5971908-3.9396643.5522558-4.056057-.1615304-8.0369404-.6928871-12.1336889-.2251992.4039353-.1238084.7160511-.0944094,1.0176594.2213353,2.2707681.4914502,4.5375661.6685488,6.8116543.1955236,2.5106121-.5134335,4.8647127-1.4461775,7.1555626-.1444405.3547633-.3709877.978924-.8246999.7659438-.51039-.2395867-.1730995-.815592-.000518-1.2115164.2656043-.6093165.5952765-1.190701.9599552-1.9059091-1.8461363.8050009-3.1462937.1711563-3.5625188-1.6152458-.183607-.7880139-.1953434-1.597609-.1440094-2.4103634.1687659-2.6721489.7745112-5.2736862,1.2343394-7.899565.3106777-1.7741767.6802981-3.5489775.4600598-5.3720238ZM30.2747672,22.4079438c-.2290213.0213817-.753313.0548537-1.2729332.123625-.4395082.0581803-.6502138.2613801-.5823207.7787998.1963407,1.4963694,1.9735995,3.1226889,3.4372852,3.0600817.1417091-.0060612.3035805-.1541629.4096523-.2765719.5320645-.6140265.9538264-1.3010003,1.2026658-2.0759072.2382226-.7418339-.0116785-1.1926377-.8166311-1.3683496-.6906286-.1507462-1.3800217-.2272711-2.3777182-.2416779ZM27.9071189,22.9140067c.4792859-.4487319.8181561-.8933137,1.4400841-.9136079,1.1980942-.0390957,2.3808035-.0153719,3.5363145.3677544.2175841.0721366.5147526.4778671.7017923.0602071.2068932-.4620191-.1932361-.5564382-.5535716-.6591255-.4588759-.1307737-.9976611-.1922935-1.0678095-1.0910636-.268561,1.1109589-.8947518,1.2003398-1.5093638.851612-.4755314-.2698093-.7030599-.248537-1.115434.1008664-.6433579.5451071-1.2164291.2715015-1.2737504-.5772472-.0566521-.8389169-.020883-1.684236-.0217002-2.5267432-.0016118-1.6579545-.0004761-3.315909-.0004761-4.9738634-.1213633.0028601-.2427267.0057234-.36409.0085836-.1313303,3.0826634-.2154639,6.1644228.2280047,9.3526273ZM33.9285329,22.2749052c.1097781-.0036097.2195562-.0072195.3293343-.0108227.1121009-3.5441195.0099734-7.0805305-.3293343-10.2296297v10.2404524ZM33.1824909,12.4842207c-.0650619,2.6855132-.6107674,5.3733718-.0348522,8.055758.3347907-2.6868259.1067057-5.3709107.0348522-8.055758ZM29.8205789,19.0937143c.3461765-2.1221484.1268551-4.2279372,0-6.3339545v6.3339545ZM31.2144701,14.6014339v6.016852c.5419188-2.0004183.2785022-4.0053021,0-6.016852ZM31.4487612,27.2221075c1.3914461.2757225,2.6930576-1.5301181,2.6141584-3.6268601-.9347483,2.5219303-1.211288,2.9055971-2.6141584,3.6268601ZM31.0954778,30.6991414c.1095272-.5094796.2021221-.8834625.2664022-1.2622456.0341122-.2009928.0886313-.4608416-.1022562-.5847626-.253913-.1648377-.4711624.0447838-.6457644.2082895-.8320996.7792567-.0867621,1.1351266.4816184,1.6387187ZM27.9989192,23.786003c.2053039.7497354.2938966,1.3040888.5107986,1.8026169.2325442.534471.4610057,1.3353409,1.2664151.5280687-.3071419-.3318695-.6379401-.643863-.9128454-.9991153-.2746351-.354892-.4933291-.7530813-.8643683-1.3315703ZM90.4212686,38.7147259c.148565,5.7481752-1.1173483,11.0493429-4.2936747,15.8466998-1.0420459,1.5738466-2.262236,2.9679276-3.754378,4.0955324-4.194166,3.1694738-8.7206906,5.7334339-13.6664837,7.577257-4.2356553,1.5790778-8.3846837,1.2420093-12.5801109-.0952427-7.7450288-2.4686402-13.9449923-6.791611-17.6527624-14.2710387-3.117802-6.289338-3.4435073-12.8156116-2.1644871-19.6052666,1.4551149-7.7244643,5.9114171-13.1637153,12.4073459-17.2151202,3.2516353-2.0279963,6.6412765-3.6256311,10.4982389-4.0857295,2.0437093-.2437916,4.0722847-.0982669,6.0933254.1458175,2.5090614.3030207,4.9896954.77935,7.4279843,1.4638819,4.1733763,1.1716454,7.7020081,3.3221825,10.452046,6.7189628,4.6034355,5.6860313,7.5316368,11.9849373,7.2329562,19.4242462ZM89.7786281,39.0073646c0-.7723525.0527818-1.5489067-.0084163-2.3163819-.4593166-5.760169-1.94209-11.1390584-6.065535-15.4481115-3.3431974-3.4936895-6.8796085-6.733746-11.6531257-8.2273068-2.4241975-.7584959-4.8926382-1.2658971-7.4221868-1.42856-8.5006067-.5466321-15.7238469,2.1196293-21.186635,8.7957999-5.1338367,6.2741656-7.0420461,13.7151539-6.7351583,21.6323363.3301161,8.5164998,4.2399535,15.3478885,11.4716582,19.8815103,9.1017578,5.7059717,18.6192132,5.5962129,27.7269615.1982582,8.612431-5.104383,13.9411124-12.5866354,13.8724375-23.0875446ZM106.6116515,10.4557868c1.1930882-2.0328704,4.3507161-3.2493285,7.0248082-2.7062708,2.6443392.5370158,4.7223956,2.5939897,5.0392921,5.1526188.5683548,4.5889709-1.0754922,8.4794181-3.9993695,11.8981945-.6420807.750752-1.0599594,1.472948-1.1348435,2.499236-.2758705,3.7799999.1200024,7.5102358.7074289,11.2256725.8048593,5.0906776,2.1551539,10.076892,2.8075039,15.2057966.3386707,2.6627353,1.3229997,5.2331878,1.5203828,7.947463.1056408,1.452628-.0198181,2.8786625-.3498924,4.2863588-.1771532.7556101-.5028135,1.4578528-1.023785,2.0546157-1.1192336,1.2820637-2.5646679,1.3604353-3.7506781.1330708-1.4770532-1.5285674-2.1192883-3.4440188-2.3748002-5.5078486-.5224128-4.2197236-.0623369-8.4200474.3097929-12.616414.6596338-7.438318,1.0374389-14.8589091-.72578-22.2192738-.2135722-.8916021-.5854961-1.6530868-1.229224-2.2678146-1.656304-1.5817288-2.8123169-3.5074174-3.7332794-5.5621553-1.3234758-2.9527777-.8782378-5.8963219.3071805-8.7842082.126128-.307277.2400692-.6710389.640678-.7725037-.0131649.5894437-.5081283.969652-.6513077,1.509367-.1407214.5304366-.3886921,1.0370657-.313319,1.6102849,1.444096-4.0809648,4.4877184-5.4331382,8.5600546-5.1061653-1.0935859-.4233159-2.1647541-.5807507-3.3117073-.3756527-1.728357.3090562-3.0080914,1.3668343-4.3191359,2.3956285ZM110.4602105,26.0543904c.9602898-.3134155,1.7806819-.6466556,2.6585593-.2617919.2414205.1058402.3316186-.1880853.4636148-.3388638,2.3382783-2.6709971,3.7942136-5.7792085,4.5801557-9.2216799.6235752-2.7313458-.0257635-5.0651328-2.1661568-6.9264352-.2268271-.1972383-.544676-.5748922-.7983091-.3777664-.647936.5036113-1.343281.2108472-2.0030436.2409025-4.4821848.2041908-7.1894529,3.2565544-6.7854725,7.6962621.1527152,1.6784482.7411325,3.1947258,1.6520187,4.6012317.2373282.3664675.6026246.7043661.4367832,1.2322932-.6235237.0997018-.7114697-.5670936-1.2651154-.8367549.6309233,1.2509017,1.4630132,2.1651273,2.3183058,3.0687039.384381.406078.6718593.4687173,1.0975366.0258793.4109553-.4275047,1.0036323-.4679967,1.5769544-.4171002.425021.0377187.9763116.1220936.8913254.6411412-.0704701.4304002-.5921751.1532235-.9054812.1416093-.6382972-.0236595-1.3031172-.1808273-1.7516754.7323688ZM112.2524615,29.6823057c.2927288.4220933.2744935.8168403.2927159,1.195115.3938011,8.1766001.6282723,16.3527884.0814472,24.5340148-.1333604,1.9953351-.175313,4.0004827.1376972,5.9924719.1245966.7929749.4224601,1.4857333,1.0806269,1.9760832,1.0593546.7892622,2.2150457.3911501,2.4979555-.8874197.1354966-.6124243.1989145-1.2484566.2229922-1.8765616.0988202-2.5792419-.2455128-5.1375333-.8000592-7.628842-1.399235-6.2860693-2.2296905-12.6404016-2.659087-19.0544457-.1007506-1.5050881-.090108-3.0176594-.1293067-4.526827-.0101407-.3899854.0242579-.857017-.4991587-.8949545-.6273072-.0454594-.5900646.5079417-.6054687.9016785-.0188658.481998.0588623.9677731.1099518,1.6553968.2057479-.5780386-.0106683-.9893671.2696934-1.3857098ZM111.6315116,55.1175679c-.2928961,1.9537171-.4110969,3.9122793-.270916,5.8749724.1256133,1.7587147.4221255,3.4937571,1.2807382,5.0635757.6429944,1.1755993,1.3316218,2.5347027,2.9429105,2.2610649,1.5862329-.2693782,2.0278805-1.6982952,2.2712056-3.0874088.5901032-3.3688065-.1502186-6.6153779-.9475239-9.9465365-.2130188.4413452-.0307309.7672886.0059197,1.1021565.2202383,2.0127596.8603757,4.0309434.2506989,6.0469588-.2671454.883366-.4462418,1.7048391-.3758232,2.6335615.0911375,1.2018776-.6099599,2.1613052-1.5299444,2.348657-.8453963.1721601-1.59555-.3500661-2.0987109-1.5487265-.6408195-1.5266306-1.0030017-3.132347-1.2512427-4.766375-.3016469-1.9856319-.1192174-3.9901168-.2773118-5.9819001ZM114.9629983,64.1768455c-1.1226181.0031722-1.3100407.149247-1.2988705.9326474.0125086.8767964.6123406,1.6444775,1.2931824,1.6550558.7467691.0116077,1.1995226-.6442298,1.2369325-1.6402887.0395204-1.0520708-.6469708-.9749153-1.2312444-.9474145ZM114.7350001,44.4300983c.3672654,2.7072939.8436462,5.3937144,1.5477806,8.0365736-.2054648-2.7382435-.7586986-5.4099678-1.5477806-8.0365736ZM111.7917164,54.0714361c.2728849-2.0266001.4315455-4.0742022.2881732-6.13513-.1602177,2.0366442-.5329524,4.0617901-.2881732,6.13513ZM112.1470009,26.8291043c-.5214991.0071808-.861727.1800616-.838164.734415.0114147.2683744.0435612.731468.3940327.5175291.4253041-.2596235,1.2175391.1678747,1.294701-.6029077.0550789-.5502804-.4446718-.6250873-.8505696-.6490363ZM96.6921397,38.0424098c-.7225627-.1691488-1.4184869.1888832-2.10705.5405773-.204017.1042059-.6474213.0375321-.4890566.4996027.1542723.4501475.5051878.2964543.7897191.2022283.707371-.2342718,1.4398042-.3274876,2.1721859-.359943.7447487-.0330023,1.0389059.1877443.7856847,1.0878721-.3993347,1.4195035-.1445563,2.9168059-.1193333,4.3791371.0843299,4.8864804,1.4313557,9.5559012,2.4961796,14.2743588.6127653,2.715382,1.0386485,5.4514507.5448562,8.2432867-.0762353.4310179.0462379.8224318.1566402,1.2341399.3599945,1.3425411.0322881,2.0032173-1.232171,2.6202486-2.3143679,1.1293807-4.1846495.4734595-5.2103969-1.8970811-1.3555837-3.1328232-1.6657884-6.4391512-1.4144203-9.8025464.3898053-5.215641.9325252-10.420781.9467646-15.6594316.0082554-3.0380566-.3771423-6.0093044-1.3405979-8.9021806-.8723245-2.6192513-1.1983451-5.3377733-1.2924489-8.0800705-.1781312-5.1913638-.4618067-10.3920641.7254003-15.520454.380707-1.6445387.9152937-3.2381647,1.6626291-4.7550182.4900604-.9946691,1.1488192-1.8463326,2.1290236-2.4091602.691909-.3972885,1.4097746-.4563954,2.0960985-.0286011.6591319.4108395.6908795,1.0939591.6301898,1.7802701-.0215168.2432897-.0656442.4895328-.1375556.7226721-1.1081663,3.593179-.9846764,7.28291-.8339044,10.9677927.2383577,5.8255559.301737,11.6534861.3279252,17.482613.0029985.6664029.0057653,1.3366021.0748584,1.9981276.148018,1.4173866.1283672,1.4567718-1.3612203,1.3815596ZM93.182985,8.7660783c-.3628835.1923224-.3294759.5846436-.425761.8967625-.5598034,1.8147362-.8185068,3.6877718-.9578962,5.5727239-.2608654,3.5277535-.0341734,7.0578202-.0031851,10.5877002.0812349-1.0098544.0841883-2.0203394.0806944-3.0307986-.01173-3.3948854-.1715874-6.7979393.450643-10.1623704.2405454-1.3006367.55371-2.5878415.8335183-3.8814905.8372375-1.46578,1.2945916-3.1556816,2.6118967-4.3379663-1.4506012,1.1092827-2.2799822,2.5810403-2.5899102,4.355439ZM94.8032883,37.2864523c-1.2435664-2.1881819-1.8766067-4.5455126-2.3878235-7.165935-.0532708.3220119-.0923343.4244483-.0831781.5223742.2235134,2.3914397,1.22878,4.6008231,1.6226133,6.9531928.0814858.4867595.4125832.2765268.6381363.1845979.7246668-.2953605,1.4795305-.4863349,2.2512009-.4780795.7136961.0076313.8644037-.3328668.9102427-.9515519.0993993-1.3418848-.1702812-2.6630313-.1586735-3.9968215.0750771-8.6239937-.9890003-17.2527263.116708-25.8751307.088435-.6896184.1669739-1.6263935-.6702507-1.9328276-.7868557-.2879866-1.2708291.450984-1.6805748,1.003124-1.4315102,1.9290024-2.2032257,4.1494949-2.6016402,6.4841634-.8685797,5.0898604-.7765992,10.2155704-.3177781,15.332063.2826782,3.1522616.8527895,6.2578221,2.3771874,9.1030833.1086135.2027237.3449507.478369-.0161698.8177475ZM96.9753583,46.264244c0-1.5345321-.0060226-2.9028496.0036548-4.2710512.0029212-.4113156-.0824896-.7175181-.5798982-.5893568-.4211732.1085105-1.1993617-.1257098-1.1539731.5131408.0927847,1.3060771-.1745151,2.5753684-.1748625,3.8690334-.0010617,3.997066.198522,7.9995627-.2175937,11.9900205-.1857368,1.7812739-.2746222,3.5680621-.1969777,5.3594316.0636367,1.4681351.4558098,2.8367935,1.3251552,4.0364127.4482751.6185949,1.0451473,1.1572805,1.8468538.9654503.8049365-.1926152.9575488-.9956793,1.0020237-1.6937718.1585448-2.4884454.2290149-4.9866197-.3047483-7.4408146-.9255052-4.2554606-1.8304202-8.5079741-1.5496338-12.7384948ZM94.3855446,48.0011974c-.1546519,3.7342832-.7420655,7.4547709-.9463207,11.2050887-.162013,2.9746323.1801131,5.8869405,1.1915696,8.7050806.2505188.6980089.5231463,1.3842106,1.0742503,1.9062051.3127528.2962227.6784224.5995618,1.0827374.1624441.3397774-.3673297.4420852-.8122782.0578328-1.2261805-.2608911-.2810309-.5350115-.5657038-.8515348-.7760459-.8086556-.53736-1.2513971-1.2822953-1.4800002-2.2127615-.4660535-1.896991-.5816612-3.8108274-.4020179-5.7502535.3694595-3.9886305.4713619-7.9842938.2734833-12.0135771ZM97.439874,48.6565266c.1939857,5.8922811,2.3105201,11.5110982,2.3050894,17.4409629.5039459-.363186.5496949-.8159973.5330039-1.253958-.0680121-1.7844782-.1520203-3.5681522-.4899317-5.3295179-.6976099-3.6361771-2.0734493-7.1292071-2.3481616-10.857487ZM95.7353631,39.5542862c-.4348657.2201868-1.0535379.1217655-1.3158703.6629025-.1070756.2208624-.0771941.7057302.1485714.7631963.7554556.1923063,1.4930364-.1206202,2.21659-.3087312.2688698-.0699038.2732195-.707416.2402494-.721308-.3973915-.1674565-.8236994-.266251-1.2895405-.3960596ZM99.3899363,66.9283183c-.4279422.8463937-1.4103537,1.5628952-.1256262,2.3748774.1814128.114649.3388766.2613608.5570945.1909873.2794738-.0901337.317437-.3446934.3217095-.5939381.0124185-.724937-.2498239-1.3486216-.7531778-1.9719266ZM97.6214026,68.9265617c.3168451.6147986-.6590419,1.2579474-.001274,1.7300235.2936296.2107346,1.0795202.0420491,1.1825614-.3834673.1774363-.732742-.5978889-.9676444-1.1812874-1.3465562ZM29.429609,68.5530292c.1644323.1175638.379063.2481445.5722926.1132591.2088171-.1457724.1278107-.3688869.025741-.5596361-.3103238-.5799175-.6131482-1.1643197-.9423409-1.7334145-.1131144-.1955493-.2421797-.4989399-.5289116-.3910536-.2601576.0978873-.1636891.4147902-.2020513.6210722.0535989.8339237.4161897,1.4785782,1.0752702,1.9497728ZM84.1260109,37.346357c.0102243,4.8799752-.6228095,9.0476377-2.2693653,13.0407337-3.0369049,7.3648495-11.1052003,13.7838802-21.7446882,11.4239886-3.5328271-.783587-6.8565281-2.0122384-9.8976154-3.9882637-4.2943761-2.790414-7.1534393-6.4940242-7.9686774-11.7066282-1.2027495-7.6903296-.4578206-15.0450062,3.2893154-21.9677641.9057643-1.6733875,2.0313616-3.2012342,3.289103-4.629154,2.9248747-3.3206125,6.7935284-4.4378289,11.000055-4.3523923,5.5597681.1129246,10.7952273,1.6053883,15.6654349,4.3463504,4.9182344,2.76799,7.4544813,7.0592969,8.1966949,12.5440136.2641019,1.9516259.4687688,3.9057162.439743,5.289116ZM42.2056616,39.7473325c.0426604,1.173669.1082338,3.2140903.5747313,5.2056741,1.3152075,5.6149242,3.9875173,10.329206,9.1230237,13.3155361,4.70925,2.7384559,9.747178,3.7878306,15.1851935,2.9415464,4.2839201-.6666731,8.0724586-2.1254267,10.6442687-5.8466094,2.0274752-2.9335869,3.6518129-6.0750902,4.6594281-9.5027719,1.7602718-5.9880707,1.2183498-11.950661-.3847285-17.864549-.6716405-2.4777321-2.0809068-4.5763529-4.1705645-6.0494425-5.6980895-4.0168198-11.9634077-6.4590401-19.0517046-6.2085696-4.4870299.1585544-8.1640272,1.908647-10.8757737,5.6577551-3.7900248,5.2398667-5.7712363,11.0190624-5.703874,18.3514308ZM117.1216268,18.1980778c.3457872-2.5469925,1.3450827-5.1482788-.6505741-7.477803,1.3478238,2.3991482.6321073,4.9725379.6505741,7.477803ZM78.4164295,52.8223167c-.9839686.9865166-1.6296912,2.2381325-2.6088597,3.2394291-3.2032739,3.2756357-7.230421,4.3753858-11.6152461,4.2592505-4.9296298-.1305614-9.4511291-1.6816622-13.397408-4.6845674-3.5766907-2.7216555-5.4375587-6.5644106-6.5556276-10.7736654-2.3208216-8.7372721.1516857-16.4470595,5.7347658-23.14272,3.655133-4.3835093,8.7414674-5.4383405,14.2730655-4.3881357,2.0347718.386321,3.9328695,1.2393937,5.9297489,1.7566653l.0150952-.0205002c-.1999633-.3372294-.5750788-.362446-.8890541-.4863799-2.2875941-.9029653-4.6315669-1.6082902-7.0435904-2.1085749-5.1940727-1.0773389-9.4321474.4380218-12.6499246,4.6513786-2.1211543,2.7774486-3.7219741,5.8558621-4.9702505,9.1182493-1.5778746,4.1238118-1.9782452,8.3236658-1.2623743,12.7148546,2.4835488,15.2340824,17.1431059,19.7730576,26.6984987,16.992173,3.8532883-1.1214213,6.6583729-3.467749,8.3256541-7.1396052l.015507.0121482ZM74.9936894,21.4471521c1.4997089,1.0747844,3.1370828,1.9577386,4.2781034,3.4984993,2.2129803,2.9882669,3.076644,6.4090895,3.3270534,10.0276749.4157876,6.0083392-1.0566457,11.601071-3.8180018,16.8984231-.1561833.2996136-.4478311.5559234-.3644729.9505288.0000579.0000386-.0154491-.0121096-.0154105-.0120839.2122467-.0187307.2738051-.2043001.3537852-.3471706,3.9125431-6.9896826,5.2087497-14.3916395,3.3774866-22.2402694-.9433994-4.0433619-3.1685537-7.1385886-7.0685367-8.8600736-.0233506.0281378-.0466884.056295-.0700068.0844714ZM70.1768683,19.0885731c1.6056135.7861866,3.2112205,1.5723731,4.8168275,2.3585661.023312-.0281636.0466497-.0563207.0700004-.0844521-1.5203249-.9848051-3.1099165-1.8225316-4.8717327-2.2946141l-.0150952.0205002ZM56.9423677,52.3442695c-.5655815-.6193928-1.0912501-1.2816262-1.7029474-1.8515187-5.677229-5.2892318-7.1964536-13.4000461-3.7989108-20.3642547,1.2552578-2.5730005,2.9862979-4.6652705,5.7317674-5.7521131,4.9947979-1.9772736,12.4562413-.1855502,16.0151214,3.8554374,3.0194804,3.4285247,3.9511241,7.5041295,3.6689478,11.9467553-.0293025.4613949-.218501.9162653-.0214589,1.6202132.6897857-3.8525483.2609297-7.3285528-1.1247028-10.737536-1.315999-3.2376403-3.5545369-5.398952-6.8838681-6.4671089-2.69373-.86423-5.423345-1.4511481-8.2720873-1.3102208-4.3491847.2151551-7.7416893,2.1914892-9.4441927,6.1621483-3.0595477,7.1356158-2.3542936,13.9914233,2.5173747,20.212035.8782571,1.1214406,1.8506244,2.2117899,3.2461402,2.7633894l.0688164-.0772262ZM63.2539238,53.9414602c5.7205457.868155,12.2972461-4.6628319,13.1700532-11.0152982-2.3175207,6.124777-5.9102396,10.7310243-13.1700532,11.0152982ZM56.8735513,52.4214893c1.1246449.8560454,2.4734145,1.0794043,3.7893041,1.396436-1.0710138-.937499-2.5111783-.9029589-3.7204877-1.4736558,0,0-.0688164.0772262-.0688164.0772198Z"/>
  </g>
</svg>