<?xml version="1.0" encoding="UTF-8"?>
<svg id="Layer_2" xmlns="http://www.w3.org/2000/svg" viewBox="0 0 195.4163013 140.1492522">
  <g id="Layer_1-2" data-name="Layer_1">
    <path d="M193.8444863,88.7822741c-1.5189253-1.3798255-3.342306-2.2200107-5.2744341-2.8143971-6.0699286-1.8662093-12.3024197-2.9436277-18.5996192-3.6318645-1.1983626-.1310927-1.6259968-.4968117-1.8298981-1.6926604-.766818-4.4988642-1.7957283-8.9396304-3.231231-13.285429-8.0453508-24.3560611-29.2887976-45.6925204-59.0576478-47.5077078-4.9264052-.300545-5.4323413-.9005177-6.3433799-5.8485234-.0109865-.0595876-.0073553-.1232719-.024673-.1806249-.3141384-1.0435279-.1680557-1.8166771.9446498-2.3816421,1.1685688-.5928967,1.9251452-1.64648,2.3979356-2.8885092,1.1862589-3.1164317-.2462644-6.5203737-3.3469613-7.9195651-3.312326-1.4952765-7.8121212-.2238259-9.3705233,2.6471794-1.4967662,2.7577888-.4394586,6.473076,2.5462528,8.2223446,1.2404463.7269688,1.6529974,1.5064491,1.1195952,2.7503404-.8383231,1.9552183-.118151,4.7599324-3.0140155,5.6079385-.0578186.0171314-.120758.0156417-.1808111.0256972-3.1806746.5292124-6.3975673.8994004-9.5363444,1.6133344-30.0245183,6.8279947-51.3089315,30.212033-55.4321144,60.8519795-.1535312,1.1407302-.5328435,1.6498318-1.7706829,1.7932145-3.382807.3914161-6.7697106.839068-10.1079199,1.5019801-3.8740323.7686801-7.7565372,1.629721-11.1653206,3.8005719-3.4588743,2.2028793-3.419863,4.7580703.0995299,6.7732486,2.6200856,1.4997455,5.5260986,2.1782994,8.4195424,2.90862,9.060854,2.2863019,18.5140551,1.8211462,27.5996752,3.9849211,2.9731422.7083477,6.0275656,1.120247,9.2372892,1.2632572-1.6243209,1.65877-1.5705058,2.5153418.0808157,3.8299933.9649468.7679353,2.0716934,1.2792714,3.2221066,1.6811153,7.5622257,2.6404757,15.3451118,4.6243706,22.7444026,7.7627752,1.8801751.7977291,4.0119217.9627122,5.4246135,2.7406574.3254042.4092924,1.0712734.5325642,1.6504836.6856299,7.8281354,2.0676899,15.5129812,4.5629209,23.0207401,7.603006,1.6368901.6629121,3.3347645,1.1761104,5.1180166,1.2721954,3.1594465.1698247,6.3356521.1694523,9.4769431.5027704,4.1718772.4431828,8.3134951,1.163448,12.4746651,1.7157506,2.7719409.3679535,5.5614788.5504405,8.2953395,1.2435188,1.4468615.3668362,2.164706.8372059,1.5776749,2.4378779-.3369493.9187664-.2967277,1.9280314-.1131233,2.8940955.1009265.5310745.2998001,1.2807611.885807,1.2316013.8144881-.0681533.365812-.8599236.3891815-1.3343899.0266282-.5426196-.148969-1.0986465-.0968299-1.6356798.0743914-.7660731-.1363998-1.8300843.5545371-2.1876099.6736193-.3485875,1.3979811.4051957,2.2063242.8733308-1.2502224.8498682-1.5052388,1.9883639-.9869197,3.1853299.5115223,1.1809518,1.666777,1.3146515,2.8048072,1.2617675,1.2763851-.0588428,2.5606842-.0972023,3.8216138-.281179.7633731-.1113543,1.8907892.5999727,2.1750407-.1255064.3519393-.899028-.9926923-1.1738758-1.481683-1.8211462-.0539082-.0715051-.0234626-.2063221-.0410596-.4212099,4.1460869-1.781297,8.2095892-3.7826957,11.7827972-6.6797705-1.8753337,3.6553271-4.3925375,6.7427099-8.0013119,9.0584332,1.2882095.6040693,2.0348236-.0368698,2.6999702-.5861931,3.1874713-2.63191,5.8137019-5.7271137,7.3884906-9.5947217,1.1613066-2.8523842,1.449934-5.7788804.3001726-8.7236254-.7750113-1.9850121-2.294309-3.1060039-4.4394628-3.8929327.2800617,1.2248977,1.0868221,1.6215277,1.6878189,2.1812788.639915.5962485,1.4016122,1.0949222,1.6181759,2.1980378-1.8060631-1.2636296-4.388534-4.1219726-5.0035898-5.5185571,5.9200286,1.3187482,9.6521679,4.9457712,11.6306625,10.5179571,1.3025478,3.6683619,1.1496684,7.417912.6446634,11.1942764-.0988782.7396311-.4077096,1.5515123.3778227,2.3373238,1.3261966-2.7868378,1.0024683-5.7643559,1.5496502-8.6282852.9362702,1.8453536,1.8725405,3.6903349,2.8088107,5.5356885.1745731-.0837951.349053-.1675901.523533-.2513852-.1246684-4.3584609-4.3221497-7.1333812-4.8819008-11.7268407,1.9221658,1.1690343,3.4622261,2.0825868,4.6868445,3.6456442,2.1018597,2.6829319,4.5706486,5.0653188,7.4673511,6.9333903.6325597.4078027,1.2708919.9295666,2.5214867.5087292-2.9719318-2.6460621-6.2008351-4.6910342-8.5935568-7.8447082,2.5558427.3947679,4.554262,1.8688163,7.0379479,2.5674809-.4152511-1.3176309-1.2963097-1.682605-2.1076322-2.0438549-1.9432077-.8647651-3.9152781-1.6662184-5.8866967-2.466182-2.996791-1.2155871-5.643691-2.9775181-7.5270318-5.5971382-2.3464482-3.2639111-5.4696766-5.1547003-9.3269499-5.8663997-1.6684529-.3079934-2.8331113-1.0439004-3.8099756-2.4453263-2.4381572-3.49742-5.7745976-5.5103638-10.1396689-5.5990003-.3389045-.007076-.7511762.0688982-.968671-.3422563.3492392-.935153.9492119-1.3373693,2.0108955-1.4591515,11.1275197-1.2792714,22.2230111-2.7875826,33.1278221-5.4194927,4.5532379-1.0986465,9.1324522-2.2166589,13.1345047-4.7982919,2.5133866-1.6211553,2.609006-3.9000087.4046371-5.9025247ZM170.9435731,84.1087438c3.7695678.6506222,7.593323.9653192,11.3257416,1.8498227,2.0241165.4800526,3.9618309,1.1671722,5.7232964,2.2870468,1.7746865,1.1284403,1.7728244,1.7392132-.0471115,2.7760375-3.6471338,2.0777453-7.6473243,3.0486508-11.7529102,3.679907-1.5518847.2387228-3.0973451.5187846-4.6456918.7798528-.0212281-.0916159-.0424562-.1832319-.0636843-.2752203.9648537-.6092833,1.9945089-1.1377508,2.8805021-1.8457261,1.681767-1.3440729,1.553002-2.7831136-.2642338-3.9473064-.9895267-.6342356-2.1212256-1.0755563-3.2403553-1.1358887-1.6105412-.0867744-1.9668565-.8264056-2.0406893-2.2788535-.1173131-2.3097645-.2241984-2.2948676,2.1251361-1.8896719ZM169.6920472,89.7520624c.9289149-.3139522,1.6646356.0763466,2.3935596.3094831.791491.2532473,1.8161185.495322,1.856247,1.4896901.0386388.9597329-.91318,1.3094376-2.2242936,2.1112633,1.5695748-2.9238893-.7279929-3.0568441-2.025513-3.9104366ZM141.3357025,35.4841408c12.7086396,9.8516932,19.6653993,23.2354417,23.537104,38.4861444,1.5165977,5.9740298,2.3205648,12.0638831,2.6387998,18.2166757.0306318.5932691.3963507,1.4114814-.7034131,1.5362429-4.7474562.5388954-9.4968677,1.0394313-14.8187856,1.04539,3.9691862-3.0274228,5.8319506-6.7293027,6.4199127-11.0985639.9435325-7.0112266-.0309111-13.8503939-2.1202015-20.535006-3.7713368-12.0668624-10.9801335-21.8746098-20.2285953-30.3021593-1.1246229-1.0249068-2.2713119-2.0252337-3.4017074-3.0438093-.0703879-.0636843-.0869607-.1865837-.2327641-.5206467,3.3701446,1.7481514,6.1027018,4.0396672,8.9096504,6.215732ZM99.743368,19.3146718c-1.5871717-1.5634298-1.5305635-3.643782-1.7101643-5.6492774.5700858,1.8829683,1.1401716,3.7663091,1.7101643,5.6492774ZM93.572606,10.1221664c-2.1536264-.906104-3.2886772-4.2217818-2.1521367-6.2384498,1.1199677-1.9868742,4.0589401-3.0035877,6.79038-2.3488689,2.0957147.502398,3.5555179,2.5142245,3.5683665,4.9182119.0157349,2.9238893-1.8792441,4.6295845-5.344822,4.3968204,1.4260059-.8368334,2.5034243-1.3869015,3.4910888-2.0673175,1.5939684-1.0986465,1.9177898-2.6475518,1.0027477-4.2962663-.8984694-1.6189207-3.2153099-2.6806974-4.6493229-2.1175945-.2686098.1053956-.6153351.221219-.5794895.5884276.0378009.386947.4016577.439831.6974543.4241893,1.0064719-.0521392,1.9208623.151576,2.7419609.7705422,1.4861521,1.120247,1.5805612,2.4609681.1431034,3.6214367-1.4350371,1.1582341-3.2897944,1.5429465-4.8621624,2.4669268-.1949632.1147061-.587031-.0085657-.8471682-.1180579ZM95.9792004,13.001365c1.0830978,1.9082931.9884094,4.0180667,1.1830002,6.0518661.0522323.5467163-.6465255.386947-1.0297483.4085475-.6549981.0368698-1.3137205.0100554-2.1896583.0100554.924632-2.1768097,1.3387659-4.3342534,2.0364064-6.4704691ZM48.0569863,42.5631483c3.0658754-3.1406392,6.2408706-6.1650826,9.8196649-8.7310738.5770687-.4137614,1.1803001-.790653,1.7713347-1.1846761-6.127561,5.966209-11.3702461,12.585647-16.0653769,19.6635372-5.0708121,7.6439725-7.518373,16.1594136-8.3614445,25.2022051-.1988736,2.1332363-.0930125,4.2698243.4081751,6.3572526,1.2140975,5.0571256,4.5227923,8.0432094,9.4357904,9.4096277.9207216.2558543,1.8337154.5396402,2.7391677.966064-1.1463166.466273-2.339279.2294123-3.4599915.0916159-3.3824345-.4152511-6.7347028-1.0830047-10.0034554-2.0352891-3.2278792-.9403669-3.8724495-1.9101552-3.9808244-5.247061-.5650581-17.3992082,5.6210664-32.1214433,17.6969601-44.4922026ZM33.8812813,60.0778075c.163028.8945589-.2293192,1.3604595-.4210237,1.8636023-3.221548,8.4525018-5.2644718,17.0860009-4.2460824,26.2334431.24943,2.2412388,1.3142791,3.7696609,3.3747068,4.564783,4.5767936,1.7660276,9.3281602,2.7778997,14.2284028,2.9745388,1.1411957.045808,2.8774296.3165592,3.0732307-1.1671722.1713144-1.2982649-1.5287945-1.4934144-2.5692499-1.8989825-.8460509-.3295939-1.7498273-.5105913-2.6269754-.7612317-4.6827478-1.3366245-7.6055198-4.644109-8.060434-9.501616-.818864-8.7426189,1.1931487-16.9981092,5.2128913-24.6662891,4.8147716-9.1846845,11.1922281-17.2521013,18.9590069-24.1650084,7.4234983-6.6071481,16.2278463-10.1127614,25.9858752-11.497056,11.2384085-1.5943409,22.3366931-1.0658733,33.3115195,1.9015894,3.5265621.9537741,6.6503491,2.6121716,9.5131611,4.8671901,10.9169148,8.5996087,19.7415598,18.8348971,24.5627556,32.0506831,2.8439116,7.7959208,4.4107863,15.8421096,2.7035083,24.1847468-.69103,3.3767551-2.1853754,6.3017617-5.1298411,8.3381681-.7743595.5355436-1.9766326,1.2453809-1.5612884,2.204369.3885298.8971659,1.7418202.5679444,2.6977357.5076119,3.5773046-.2260605,7.1525609-.4852666,10.7286552-.7321827-4.9967,1.2208011-10.022449,1.5976927-15.056205,1.9198381-13.0175641.8323644-26.0656668.5601235-39.0904931,1.1053501-3.4050592.1426378-6.8239911.2819239-10.2000945.7105822-5.2250881.6632845-10.3259733-.3794986-15.4677319-.8193296-6.562085-.5612408-13.1271494-.8539649-19.7105556-.7206376-10.8253919.218612-21.5132668-.9697883-32.0834562-3.2285309-3.8083928-.8137432-4.1484146-1.2937959-4.439649-5.091016-.7858115-10.2468335,1.8220772-19.7674431,6.3116309-29.1774432ZM115.6539103,99.7009579c-4.2155437.2431919-8.3864899.6238077-12.5733571.377264,4.1975744-.3556635,8.3950556-.7031337,12.5733571-.377264ZM81.2069675,99.7810288c-8.6106882.211536-16.7601312-.2659097-24.9057568-.8744481,8.1681572-.1530657,16.3422731-.5083568,24.9057568.8744481ZM56.9374016,109.1016475c-.3127418.9511671-1.1373784.7489417-1.8447019.6051866-2.1469228-.4364792-4.2557654-1.0092651-6.1499995-2.155954-.5004428-.3031519-1.1492028-.6766917-.9383186-1.3977018.2096739-.716541.9382255-.3143246,1.3542214-.4789354,2.3135819.2808066,4.5276338.6465255,6.5410431,1.7351166.6430806.3474702,1.3315037.7984739,1.0377554,1.692288ZM147.1281763,137.7874929c-.3662776-.2633027-.5644063-.9645744-1.141382-.6941956-.7018303.3288491.1673108.9958578-.3003588,1.6155689-.7704491-.3087383-1.0542351-.8342265-.669895-1.6237622.3754019-.7709146.9734194-.766818,1.678229-.3649741.8000567.45659,1.5372671.9750022,2.2741982,1.7939593-.8952107.0294214-1.3506834-.3750295-1.8407915-.7265964ZM153.552465,111.5886851c.9776091,1.0833771,1.9356661,2.1969205,2.7814377,3.3834587,1.597972,2.2408664,3.3798276,4.2925421,5.4242411,6.1457166,2.3877871,2.1648922,2.6562106,4.5439273,1.0237895,7.3627934-.7151444,1.2353255-1.6766462,2.2561357-2.8424219,3.0501405-1.1033949.7515487-2.2798776,1.3969569-3.4309426,2.0773729-3.8177034,2.2568805-7.3426826,3.5927602-11.7373616.4692524-3.7985236-2.7000634-8.7871234-2.4766098-13.3617756-3.1652191-7.4733098-1.1250885-14.9803239-1.7447996-22.511173-2.2147968-1.457848-.0908711-2.8833883-.5139431-4.2299751-1.0800253-6.2319324-2.6214822-12.7070568-4.5323822-19.1234315-6.6160863-.51385-.1668453-1.2036696-.2804342-1.4641792-.6588155-1.4882935-2.1596783-3.8491731-2.3563174-6.0769116-2.8993094-1.2390498-.3020347-2.5280972-.5243709-3.6792553-1.0401761-4.9539645-2.2200107-10.1770974-3.6389406-15.3164352-5.3100005-.6309769-.2048324-1.3464937-.2241984-.8521959-1.4152056.6849781-1.6505767-.4429035-2.7991277-1.8193772-3.5104548-1.0679216-.5519302-2.2612565-.8614133-3.3988211-1.2785266.0056794-.0659188.0113589-.1314652.0170383-.1970115,6.1359405.8081569,12.271881,1.6163138,18.5661942,2.4456988-.3671155.5176673-.6285561.8863656-.9497706,1.3396038.2550163.0893814.4410414.2256881.5384299.1787628,4.6462504-2.2438458,8.6064054-.1188028,12.5692604,1.966391.2700063.141893.6984785.4267962.7988463.2070669.7059269-1.5466708,1.7959146-.4942047,2.6017438-.3228903,2.3755902.5053774,4.7073277,1.2152147,7.0597346,1.831574.692799.1813698,1.1860727.3690707,1.0956671,1.3168861-.1782042,1.8680714.8230538,3.1119627,2.4556611,3.8836222,2.4737236,1.1694067,4.9632751,2.3056679,7.4341124,3.4810334,3.0282607,1.4405304,5.6852162,3.7625848,8.7386154,4.8575071,2.9772388,1.0677354,6.4716794.690099,9.6800064,1.4356889,1.2412843.288255,2.5048208.5113361,3.770685.6517394.6788332.0752294,1.4632481.3120901,2.1132185-.4394586-.698106-.8610409-1.7514101-.7232446-2.6273479-.9083386-2.2006447-.4655282-4.4218658-.8480061-6.6480215-1.1723861-1.0667112-.1556726-1.2961235-.4610591-.8379507-1.5038422.5837723-1.3288036,1.4076641-2.6996909.5426196-4.5074299-.5815378,1.5604504-1.0334725,2.9108545-1.5943409,4.2143334-.2479403.5765101-.6131006,1.4744208-1.3542214,1.1880279-.6415909-.247661-.1849078-1.0751838-.0621946-1.6341901.2417953-1.100881.4794009-2.192079.0901263-3.6285127-.9779816,1.3869015-.9932509,2.7555543-1.3534766,3.9942316-.3457943,1.1895176-.9244458,1.5507674-1.9370627.7206376-2.3326685-1.9131345-5.0523772-3.1376598-7.7894966-4.3889995.1855595-.7478244.8773344-.9839403,1.3010581-1.4490961,1.8342741-2.014061,1.509894-4.2631207-.8467026-5.6336356-3.0925036-1.7984284-6.5649713-.8446543-8.15745,2.3678625-.4828458.9742573-.7292964.7202652-1.1811381.1098646-.9975338-1.3477971-.4736284-3.3063672,1.2205217-4.379689,1.3224724-.8379507,2.8351596-1.0614042,4.3619058-1.1816967,5.7552316-.4528658,11.1048019,1.0636387,16.2246807,3.494813,1.4201402.6748296,2.7211983.7601144,4.2018572.3910437,4.7283696-1.1783449,9.1467905-3.3201469,13.9056056-4.4027792,2.2566012-.5135707,4.5195336-.9560086,6.815053-1.2513397,3.922261-.505005,7.2110313.6997819,9.8513208,3.6247885ZM79.3712038,107.2566662c2.927148-.3389045,5.2647511.4644109,8.1615467.8926968-2.9767733.2763375-5.3858815.1024162-8.1615467-.8926968ZM119.0843873,108.9236295c-8.4685159.3310836-16.8704614-.839068-25.311418-1.1340266-.621387-.0216005-1.2356049-.2465437-2.341048-.4796802,17.6113029.4439277,34.6561511-.6718502,51.8953107-1.9712325-.830316,1.3310381-2.0168542,1.5451811-3.176578,1.8069941-6.9398146,1.5682713-14.0174254,1.5019801-21.0662667,1.7779452ZM129.5742265,109.805526c-3.9087607,3.103397-9.9778514,3.1406392-14.7362009.0338905,5.0451149.134817,9.8102612.4070578,14.7362009-.0338905ZM97.4268067,109.4781666c-.8386955,1.8457261-1.9652737,2.3607864-3.7488052,1.6397764-1.5014214-.6066763-3.0897104-.9984648-5.1300273-1.6397764h8.8788325ZM100.2961361,114.0280527c.7064855-.6096557,1.7434961-.9939957,2.9670903-.9839403.2398401.0472977.7817149.1184304,1.3033858.2629303,1.9440456.538523,2.8869264,1.8297119,2.3590174,3.1912887-.6330252,1.6327004-2.6438276,2.4624578-4.2603275,1.7675173-.6116109-.2629303-1.2335565-.5020256-1.8514986-.750059-2.0367788-.8174675-2.215821-2.0222543-.5176673-3.487737ZM191.3717869,92.1176903c-3.8217069,2.6780904-8.2691768,3.771523-12.7128293,4.8306927-8.8483869,2.1086564-17.8784229,3.0248158-26.8956104,3.9979559-24.27748,2.6192477-48.6288858,2.9305929-73.0059888,2.1812788-11.5072976-.3538014-22.9898291-1.1619583-34.4715226-2.0278407-8.1356633-.6133799-16.2905995-.9247251-24.3490782-2.3287581-3.7169631-.6476428-7.4212638-1.3217276-11.0339485-2.4512851-2.1175014-.6621673-4.0788647-1.5466708-5.7867944-2.9942772-.3167454-.2685166-.7204514-1.206649-1.3691183-.2789445-.5265124-.3742846-.4651557-.7817149-.0812812-1.2219183.8563856-.9820782,1.917045-1.6706875,3.0836586-2.2296937,4.340957-2.0799798,9.0165357-2.8885092,13.7114803-3.6098916,1.8636955-.2867653,3.7411705-.4863838,5.6151076-.7012716.5388023-.0618221,1.1370991-.1500863,1.2023661.690099.0512081.6599327-.1900286.9772367-.8760309,1.1109364-1.5180873.2953311-2.8811538.9735125-4.0535399,1.9861294-1.8852029,1.6286037-1.8821304,3.4486326-.0012104,5.1155959,1.0600076.939622,2.3486827,1.5060767,3.5874531,2.1578161.561427.2953311,1.2971477.363112,1.6976881,1.213725-5.6334494-.0603325-10.9032282-1.920583-16.3621046-2.442347,2.2842536,1.4356889,4.8614175,1.8431191,7.3775041,2.3801524,2.7929828.5966209,5.6037487,1.2222907,8.4768954,1.2379325,1.1869106.0067036,3.0369195-.0148969,3.2598144-.9966027.2514783-1.1075846-1.5798164-1.3187482-2.5601256-1.7842763-1.5954581-.7578799-3.2410071-1.4081296-4.5901077-2.5901987-1.3412797-1.1753655-1.3720046-2.1414296-.0508357-3.3540373.8608547-.7899082,1.8666748-1.3585974,3.0403644-1.5775818.3069693-.0569806.6591879-.1191752.831154.1716868.2287605.386947-.0754156.6852575-.33937.9336633-.1750386.1646108-.3861091.2994277-.5986692.4148787-.9771436.5303297-2.1055839,1.0725769-2.0232785,2.3432826.0924539,1.4263783,1.4391338,1.966391,2.5298663,2.3641382,6.5165563,2.3760558,13.0657928,4.7118899,20.065288,5.1878459,25.7984536,1.754855,51.6219526,1.5206012,77.4489896.8882277,16.7627381-.4104096,33.4169151-2.1485056,50.0426018-4.1826774,5.6157594-.6871196,11.2297497-1.5030973,16.4841661-3.7987098,2.2979401-1.0040511,2.665335-1.6371694,2.4740029-3.9767278,1.9313832,1.1541374,2.033427,2.079235.2330434,3.3410025ZM25.130469,90.7963352v2.5522116c-.8076914-.0804433-1.3816876-.4819148-1.4400648-1.1980833-.0658257-.8070396.6711985-1.014479,1.4400648-1.3541283Z"/>
  </g>
</svg>