<?xml version="1.0" encoding="UTF-8"?>
<svg id="Layer_2" xmlns="http://www.w3.org/2000/svg" viewBox="0 0 162.676643 217.6150108">
  <g id="Layer_1-2" data-name="Layer_1">
    <path d="M157.5238102,103.1046479c-.2117359-.2063068-.4436372-.3947751-.6786408-.5840189-.1326258-.1070314-.2590469-.2086336-.3746097-.3102358l.0279212-.0255945c.5878969-.5374835,1.195959-1.0935812,1.759037-1.6900096,5.1111349-5.4136148,5.6633546-12.593247,1.4402697-18.7366915-1.9606903-2.8533938-4.5713246-5.1181152-7.9808161-6.9236876-.134177-.0705786-.2745587-.134177-.4172672-.1962241.3210941-.4133892.6321055-.8229005.9252783-1.2455968,1.4689665-2.1235641,2.2414537-4.0827032,2.4322487-6.1659367.338157-3.7158494-1.0757427-6.9430773-4.3215848-9.8654986-2.399674-2.1600168-5.3523432-3.7305856-9.2900112-4.9412808-.0953975-.0294724-.1923462-.0558424-.2900705-.0798857.3622003-.723625.7329321-1.4705177,1.0416167-2.2546387,1.719482-4.366569,1.1478725-8.5035635-1.698541-12.294645-.7399124-.9865499-1.6217577-1.9025211-2.6951736-2.7998782-2.6796618-2.2406781-5.8052875-3.9260341-9.5575896-5.1522412-.9570775-.3125626-1.9250132-.5948772-2.9162166-.8826209-.047311-.0139606-.0953975-.0279212-.1427085-.0418818.2218186-.606511.4304522-1.1897543.6088378-1.8047968,1.4650886-5.0397807-.0240433-9.7189122-4.0865812-12.8375577-2.0180839-1.5480767-4.3836319-2.6067564-7.0322701-3.1457911-4.4999704-.9167468-8.6005121.1721809-12.0193107,1.3588328-.2264721.0791101-.4490663.1783856-.6701093.2807634.0356771-5.5307288-2.4082054-9.1853066-7.4697026-11.1700402-5.0498633-1.9793044-10.3370571-2.118135-15.716546-.4102869-4.0485773,1.2859274-6.8748255,4.0160025-8.40041,8.1157687-.1031534.2761099-.2008777.5537709-.2970508.8391879-1.8350448-2.9992047-4.5340963-4.6232891-8.0250247-4.8272691-5.5392603-.3296255-10.5953284,1.4177776-15.049539,5.1762844-2.4376778,2.0553122-3.8787232,4.6643953-4.2851321,7.7527928-.0271456.2047556-.0488621.4126136-.0713542.6227984-.0488621.4568222-.0938463.8818453-.1892438,1.2773959-.6584755-.4320034-1.2890298-.8415146-1.95371-1.2370653-1.880029-1.1215024-3.7491997-1.5325649-5.545465-1.2246558-8.049068,1.3782226-13.2160454,7.4867656-12.8569474,15.2007789.0930707,2.0250642.5925504,3.8895814,1.1897543,5.6214728-.0046535.0007756-.0093071.0007756-.0147362.0015512-.1698541.0178386-.3397082.0364527-.50646.0628228-.6747629.1070314-1.3456478.2427595-2.0165327.3777121l-.0876416.0178386c-7.5511395,1.5255846-10.6604779,8.5182997-11.306544,12.4102078-.224921,1.3549549-.1396061,2.7936734.2536178,4.2750494.7422392,2.8022049,2.4074299,4.9498123,3.7747942,6.5079716.0217165.0248189.0442086.0496377.0674763.073681-2.7719569.9663845-5.6998074,2.4182881-7.9521193,5.1972253-2.2321466,2.7533428-3.1093384,6.1023383-2.7603231,10.5387103.2799878,3.5560779,2.2833355,5.9619566,4.5046239,8.1351584-.0953975.0403307-.1892438.0814369-.2830902.1233187-4.3983681,1.9692218-6.8538846,5.9828975-6.567692,10.7357101.2582713,4.319258,2.3709772,7.8520683,6.2799483,10.4999309.0286968.0193897.0573936.0387795.086866.0581692C2.2585451,110.760492-.0131566,115.0890571.0985283,119.6146219c.1140117,4.6349229,2.7137877,8.9146259,7.1796321,11.892114l-.9283807,1.6062459c-.8810697,1.5201555-1.9599147,3.5677118-2.48654,5.9278307-1.3852029,6.2093697,2.0591902,11.9184841,8.1910009,13.5759189,1.2983368.3505665,2.5927958.4614758,3.8453728.5692827.1419329.0116338.2838658.0240433.4257986.0364527-.0651495.1031534-.1287479.2063068-.1876927.311787-1.1323607,2.0312689-1.8839069,3.7747942-2.3663236,5.4880714-1.7411985,6.1938579.4692317,11.1715914,6.2233303,14.0156781,1.2820495.6344322,2.6114099,1.0230026,3.6274322,1.2913565l.160547.0418818c.4800899.1264211.9756916.2574957,1.4891319.3606491l-.030248.2241454c-.0589448.4467396-.1178896.8942547-.1931218,1.3371163-.3179917,1.8831313-.3590979,3.7887548-.1217676,5.6625791.6856211,5.4182684,4.1974905,8.9774486,9.3947158,9.5211369,2.2073278.2303501,4.3277895.1721809,6.303216-.1714053-.4033065,1.0043884-.7453415,1.9924895-.9842231,3.0488424-1.3844273,6.1162989,1.2936833,11.4818272,6.9880615,14.0024931,3.0604762,1.3541793,6.4172277,1.7776512,9.97253,1.260333,2.5377289-.3691806,4.9071549-1.1246048,7.0431284-2.2453316.4979285,1.1649355,1.1215024,2.2848867,1.6706198,3.2481689,1.772222,3.1085628,4.3541595,5.2220442,7.4673759,6.1116454,2.0630681.589448,4.0276364.8833965,5.891378.8833965,4.4759271-.0007756,8.3647329-1.6969899,11.6074727-5.077009.7662824-.7988572,1.4751713-1.6240844,2.2259419-2.4981738.0162874-.0193897.0333503-.0387795.0504133-.0589448,2.369426,3.8523531,6.4226568,6.4777236,10.9071154,7.0477819,4.8078794.6080622,9.5948179-1.2044905,13.4743167-5.1103593,1.1804472-1.1874275,1.9436273-2.6176146,2.2693749-4.2525573.0915196-.4645781.1745076-.931483.2574957-1.3991635.1729565-.9795696.3366058-1.9040723.5863457-2.8053073.0573936-.2086336.1023778-.3924483.1403817-.5553221.1458108.0271456.3086846.0581692.4715584.0891928,3.8570067.7445659,7.5201159.0162874,10.877643-2.1638947,7.5674269-4.9118084,10.3781633-13.585226,7.1602424-22.0965453-.1202164-.3172161-.2435351-.6336566-.3691806-.9524239,5.7789175-.6894991,11.4422721-6.7111761,12.6777862-11.895992.9268295-3.8911326.3792633-7.8342297-1.6752734-12.0549878-.2629248-.5390347-.5436883-1.0703135-.8353099-1.6132262,1.7435252-.7127668,3.508767-1.4937854,5.0638239-2.6897444,3.2481689-2.4981738,4.9079305-5.7851222,4.9319737-9.76855.0209409-3.3482199-.9710381-6.6855816-3.1201966-10.5038088-.3443617-.6127157-.7112156-1.213022-1.0687624-1.7970409.0651495-.0325748.1295234-.0674763.1915706-.1047046.2637004-.1566691.5343812-.3017043.8050619-.4475152.1659762-.0891928.3327279-.1783856.4971529-.2699052,4.2750494-2.3748551,6.5816526-6.2179011,6.8538846-11.4221068.2388816-4.5565884-1.4387186-8.5175241-5.1305246-12.1100547ZM54.9164197,10.120772c2.2864379-.91442,4.4076752-1.226207,6.4878063-.9524239,2.1801821.2869681,3.8112469,1.2742936,4.9878162,3.0185944.7197471,1.0672112,1.5023169,2.0971941,2.2592923,3.0922754l.4413104.5886724c.2295745.3342791.706562,1.0307585,1.7970409,1.0858253l.9632822.0488621.402531-1.5023169c.120992-.4436372.2450863-.8989082.3567712-1.3572817.3831412-1.5697932.8337587-2.915441,1.377447-4.1137268,1.0873765-2.3926937,2.8231458-3.9997151,5.3058079-4.912584,4.2897856-1.5767735,8.7300356-1.6008168,13.1974312-.0698031,3.6949085,1.2673133,5.3802645,3.9198294,5.0087571,7.8838674l-.0403307.4234719c-.1016022,1.0710891-.2032045,2.1421782-.2730075,3.2155941-.073681,1.122278.4568222,1.6426986.7786919,1.8528834.3241964.2101848,1.0167979.4870702,2.0211863-.0364527.8725382-.455271,1.8071236-.9555263,2.7300751-1.5255846,3.9089712-2.4097566,8.3220755-2.8502915,13.1167699-1.3068683,4.3386478,1.3960611,6.3862041,5.1297491,5.3438118,9.7445067-.3032555,1.3456478-.7980816,2.6889689-1.4705177,3.9935104-.1969997.3831412-.385468.7701604-.6003063,1.213022l-.3204154.653822c-.366563.7476683.1292326,1.6308709.9584347,1.7074603l.0033932.0003878c.9020106.0837637,1.759037.1016022,2.5873666.1186652,1.1533016.0240433,2.2430049.0465354,3.2884995.2466375,4.2416991.8112666,7.767529,2.9278504,10.4774388,6.2908066,1.7202575,2.1351979,2.443107,4.7295449,2.1476074,7.7101354-.1458108,1.4759468-.706562,2.6657012-1.7132772,3.6367392-.6623534.6383102-1.4100217,1.403817-1.9001943,2.4144102-.4661293.9594042-.4800899,1.7574858-.0418818,2.3702016.4405348.6158181,1.2068173.8601288,2.2755796.7282786,3.6933573-.4521687,7.043904.6863967,10.2579469,3.4847237,1.7187064,1.4976634,2.8053073,3.2822948,3.3226255,5.4570478.4924993,2.0754775.0031024,3.8655381-1.5395452,5.6331067-1.1540772,1.3216045-2.6059808,2.3950204-3.9935104,3.3800191-.6724361.4777631-1.3409943.9586286-2.1072767,1.5108484l-1.3086134.9400145c-.0077559.0054291-.0116338.0129911-.0191958.0186141-3.3018785-11.2111465-8.1047165-21.9749717-14.3549016-31.8517163-6.3406382-10.019841-14.4018248-19.4426719-25.133463-24.4855549-13.3426603-6.2698656-28.827305-4.7890714-42.4726392-.3276866-3.1481178,1.0292073-6.9806934,2.027391-9.7554619,3.8145431-1.3833609.8911524-2.7115579,1.908338-3.9880813,2.9889281.0444025-.1334014.0722268-.2761099.0652465-.4339423l-.0389734-.8857232c-.0178386-.4529443-.0317992-.7996328-.0558424-1.1447701-.4560466-6.5901841.8973571-11.0521506,9.1674681-14.3600399ZM144.4813031,97.0042486c1.4672215,7.9990425,1.509685,16.0186381.6251251,24.086708-1.6446376,15.004167-5.4821575,29.415008-11.5372818,43.2286451-3.0165585,6.881418-6.5764174,13.4673364-11.5056766,19.2074744-8.130311,9.468009-18.3794356,15.240334-30.6715599,17.3402426-3.6953932.6313299-7.3571452.045372-10.9343579-.8787429-16.3166583-4.2149412-29.5988227-13.0531716-39.8439724-26.4227836-7.7500782-10.1132995-12.8978598-21.5121386-16.3752153-33.7051814-3.4692119-12.1647338-5.0847649-24.587351-5.0508328-38.6181532-.0257884-11.9076258,1.7771664-24.9340396,5.7632118-37.6331545,2.8683239-9.1383835,6.8523334-17.7408346,12.3340062-25.6320701,4.5577518-6.5610995,10.6967367-11.1076053,17.9155361-14.3142801,6.4304127-2.856884,13.1877363-4.396817,20.1500095-5.3492409,9.0965016-1.2440456,17.6667658.3939995,26.0124968,3.8981129,6.3177583,2.6525161,11.2192901,7.1001342,15.6157193,12.1938184,5.8900207,6.8247999,10.5172847,14.467459,14.4314911,22.5541431,6.1725292,12.7522428,10.514764,26.1071187,13.071301,40.0444623ZM135.5032727,189.3401194c-1.3153998,4.8280447-4.436372,7.8699068-9.5405266,9.3000939-.3885703.1085825-.8236761.2024289-1.3665887.2954996-2.7037051.4583734-4.3316674.0822125-5.6168193-1.2983368-.2993776-.3210941-.6483928-.5281765-.9283807-.6949282-.0767834-.0457598-.1543423-.0915196-.2536178-.1551179-.4800899-.2923972-.9477704-.15124-1.1703646-.0853148l-.697255.1574447-.1884683.6894991c-.2070824.7546486-.090744,1.4767224.0031024,2.0568634.0209409.130299.0418818.2613737.0589448.3908971.1636494,1.2649865.1884683,2.5183392.073681,3.7267076-.4219207,4.4549862-2.9061339,7.4588444-7.3828366,8.9301377-4.0927859,1.3440966-7.8225959.3086846-11.0785206-3.0829683-.6646802-.6926014-2.205001-3.1046848-2.205001-3.1046848-.2516788.0314114-1.2105013-1.1381776-1.910277-2.0417394-.4657415-.6014697-1.3722118-.6255129-1.8526895-.0356771-.91442,1.1226658-2.0206046,2.847383-2.2699566,3.2406069-.0347076.0544852-.0740688.1078069-.1164354.1566691-2.3204669,2.6748143-4.6319175,4.3180946-7.2683402,5.1671713-2.9495669.9531995-6.0441691.7515462-9.1938381-.593326-1.6776001-.7166447-2.9728346-2.0545366-3.9601601-4.0889079-1.0144711-2.0917649-1.4232068-4.3208092-1.689234-6.2248815-.0418818-.3040311-.0884172-.606511-.1442596-.9733648l-.1103276-.7327382c-.1399939-.9285745-1.2504442-1.3363407-1.9579757-.7187776l-.0040718.0034902c-1.1036639.9625066-1.537994,2.0118792-1.8877849,2.8557206l-.0527401.1279723c-.2931728.7057865-.7647313,1.1463213-1.6279624,1.5224822-3.6413928,1.5899585-7.1579156,1.9327691-10.7574266,1.0462703-2.6090831-.6437393-4.8629463-2.4624967-6.0286573-4.8637219-.7980816-1.6442498-1.4387186-4.28901.0395551-7.5550175.4352996-.9605676.9772428-1.9692218,1.7051336-3.170416.0222982-.0368405.04353-.0763956.0614655-.1155628l1.2254314-2.6699669c.3069396-.2894888.1230279-.9564958-.1548271-1.5812331-.2670936-.6006941-.9889736-.85024-1.5835599-.5700583l-1.4006177.6598328c-.018808.0089193-.0375191.0184203-.0559394.0281151l-.9798604.5266253c-2.941811,1.5845294-5.9270551,1.9420761-9.1255862,1.0974592-3.1000313-.8190225-4.7877141-3.6328613-5.3337291-5.9922046-.6639046-2.8727836.0628228-5.6424137,1.897092-7.2284943l.324972-.277661c.7321565-.6227984,1.5620373-1.3278093,2.1623436-2.2941938.2629248-.4273498.1783856-.8360855.1419329-1.0105931-.0085315-.0387795-.0193897-.090744-.030248-.1636494l-.1349526-.9035618-.9082153-.103929c-1.4488012-.1636494-2.7261971.2225942-3.8515775.5646292-.1869171.0573936-.3738341.1140117-.5607512.1675273-1.3952855.4040821-2.8006537.4878458-4.1796519.2505154-4.1230339-.7096644-6.6351683-4.245577-6.1093186-8.5974098.3528932-2.9200945,1.4992145-5.4516187,3.4056136-7.5224427.7437903-.8081643,1.4899075-1.6124506,2.3321977-2.5214415l1.3016331-1.4047865c.7560059-.8157263.0782376-2.1303505-1.0247476-1.987642l-4.5178089.5840189c-1.8443519.238106-4.0160025.402531-6.1473225-.1861415-3.2846216-.9058886-5.2732331-3.2559248-5.1910206-6.1318107.0317992-1.0881521.2536178-2.2174104.6600267-3.3567514.7313809-2.0436784,1.7792023-3.9159515,2.8882954-5.8983583l.1318502-.2350036c.1838147-.3280744.2737831-.402531.7290541-.3699562,1.5961632.1147872,2.8301261.0310236,3.9865301-.2745587l.100051-.0248189c1.3898564-.3389326,1.62486-1.1913055,1.5775491-1.8443519-.0581692-.8353099-.7329321-1.4751713-1.719482-1.6295136-.268354-.0418818-.5367079-.0899684-.8050619-.1380549-.7608533-.1357282-1.5473011-.2768855-2.3709772-.2916217-3.6910305-.0659251-5.7370356-1.9544856-6.8042468-3.5258299-1.7419741-2.5672013-2.2174104-6.3288104-1.1548528-9.1473028.7911013-2.1026232,2.2662726-3.6421684,4.5092774-4.7055016,1.199837-.5685071,2.4648235-.9663845,3.8050422-1.3883052.7329321-.2311257,1.4674154-.4622514,2.1949183-.7228494l.0024237-.0007756c.6672978-.2392694.9786001-1.005164.6672009-1.6421169l-.0010664-.0021329c-.5095623-1.0416167-1.4697421-1.1851008-1.9319935-1.2541282-.0767834-.0116338-.1527911-.0209409-.224921-.0395551-2.7564451-.727503-4.7186866-1.5837538-6.3644876-2.7742837-1.8319424-1.3262581-2.9945511-3.2846216-3.2729878-5.5159926-.281539-2.2577411.3777121-4.4743759,1.8567613-6.24272.9004594-1.0772938,2.1763042-1.5015413,3.8151248-1.806348l1.126156-.2055312c.8779673-.1597714,1.7551591-.3187673,2.7068074-.5095623,1.2006126-.2070824,1.5279113-.9345854,1.5899585-1.5054193.1147872-1.0175734-.6057354-1.5690176-.9454436-1.8303913-.8438414-.649944-1.762915-1.1300339-2.7308507-1.4263091-3.7538533-1.1486481-5.4299022-3.7305856-5.4337801-8.3724888-.0038779-4.158711,1.7055213-6.7530579,5.5408115-8.4112683,1.8148795-.7848966,3.7406682-1.1470969,5.7789175-1.5302381l.9663845-.1838147c.1078069-.0209409.2179407-.0356771.3280744-.0511889.5623024-.077559,1.4123485-.194673,2.0739264-.9438924l.4661293-.5281765-.2373304-.663129c-.3071334-.8554752-.9935302-1.2099196-1.403817-1.4216556-.0791101-.0403307-.1589959-.0798857-.2311257-.1256455-.4444128-.2807634-.8965815-.5483418-1.3495258-.8159202-.4738852-.2799878-.948546-.5607512-1.4123485-.857802-2.6594964-1.7000922-3.8523531-4.0299631-3.6491487-7.1222385.2830902-4.3122777,2.2988473-7.4945215,5.9898778-9.4575386,2.5408313-1.3518525,5.0366783-1.3588328,7.4192893-.0209409.7771407.4358813,1.6574348.8593532,2.8277994,1.0082664l.0088223.0011634c1.0409381.1320441,1.7304372-1.050536,1.1026944-1.891275l-.7880959-1.0555773c-.5863457-.7911013-1.1719158-1.581427-1.7761-2.3570165-1.6900096-2.1724262-2.3919181-4.6465568-2.144505-7.5643245.3707318-4.4053485,3.3947553-8.2615795,7.3525886-9.3784284,2.9937755-.8438414,5.4198195-.2621493,7.4146358,1.7830803.6639046.680192,1.3115219,1.3766714,2.0436784,2.1631192.3707318.3978774.7624045.8182469,1.1874275,1.2719668l.0069803.0073681c.3113992.3313706.7207166.4195939,1.0941629.3433923-.9815085.8680786-1.9321874,1.7654356-2.8520365,2.6645378-4.8171865,4.7087978-8.8853474,10.1582837-12.2023499,16.0145662-2.3641907,4.1742228-4.351348,8.5609571-5.9646712,13.0779904-5.137505,14.3850526-6.6033691,29.8617475-6.3020526,45.1334929.4126136,20.9230784,4.2472251,42.232982,14.7684847,60.3230258,7.6505119,13.1541921,18.8352883,24.3597155,32.3736881,31.3074464,7.5278718,3.8632114,15.8872726,6.4207178,24.3447854,6.1700085,11.1395014-.3302072,21.7856309-5.5801727,29.9487105-13.1671832,4.5709368-4.2484855,8.4165035-9.1891846,11.6784391-14.5165151.1636494.9173285.7951732,1.4327077,1.1880092,1.7474032.090744.0729054.1830391.1427085.2613737.221043,3.6111448,3.5933062,4.7163598,7.7287495,3.3776923,12.6428847ZM155.2614156,122.0321344c-1.5310137,1.126156-3.2791925,1.8559857-4.7869385,2.4221661-.1008266.0380039-.207858.0643739-.3164405.0930707-.5305032.1411573-1.4193288.3769365-2.0064501,1.3495258l-.4971529.8236761.7011329.6600267c.2024289.190795.4110624.3792633.6204716.5685071.4382081.3955507.8523729.7693848,1.2207779,1.1719158,3.2225744,3.5312591,4.5185845,7.1858369,3.9632624,11.1739182-.6003063,4.3068486-3.2815192,7.1773054-7.5519151,8.0824183-.3187673.0682519-.6414125.120992-.9679357.1745076-.8795185.1450352-1.8769266.3094602-2.9146654.7585265-.7147057.3094602-.9439894,1.211083-.4638025,1.8243804l.6817432.8707931c.4575978.5793654.8965815,1.1339119,1.3161754,1.7031946,1.8125527,2.4601699,2.7882443,4.7535881,3.0721101,7.2168604.3870192,3.370712-1.195959,7.338628-3.9399947,9.8740301-1.8443519,1.7039702-5.0134106,3.5436685-9.6429045,2.6377799-.1155628-.0224921-.2295745-.0542913-.3451373-.0853148-.4668079-.1256455-1.1040517-.2925911-1.8434793-.1072253,2.1890045-3.7433828,4.1067465-7.6573953,5.7923934-11.6448949,10.4365264-24.6870143,12.0941551-52.6830813,5.7656355-78.7285406-.3201246-1.3173388-.6667161-2.628279-1.0275592-3.9349534,1.3540823.1710175,2.3501332-.0824064,3.1492812-.2892949.1690785-.0442086.3335035-.086866.4956017-.1233187,2.3562409-.5250741,4.5240136-.0550669,6.632066,1.4348406,3.4591292,2.4477605,5.4167172,5.7385868,5.8192481,9.7809594.4002042,4.024534-1.2099196,7.117585-4.7846117,9.1946137-.8066131.4684561-1.6713954.8849476-2.5858154,1.3262581-.445964.2156139-.9043374.4358813-1.3751202.6724361l-.0033932.0017451c-.8447139.4230841-.8825239,1.6147774-.0663129,2.0906015l.0030054.0017451c.6049598.3521176,1.1944079.6708849,1.7683441.9811207.9221759.4979285,1.7939386.9687113,2.5935713,1.5147263,3.4133695,2.3321977,5.0056547,5.7036853,4.8675998,10.3075847-.077559,2.5408313-1.2021637,4.6271671-3.3427908,6.2016138ZM82.440395,10.5595618c0-1.4858356,1.2043936-2.6901322,2.6901322-2.6901322,1.4857871,0,2.6901807,1.2042966,2.6901807,2.6901322s-1.2043936,2.6901322-2.6901807,2.6901322c-1.4857387,0-2.6901322-1.2042966-2.6901322-2.6901322ZM53.1568009,15.6433572c0-1.4858356,1.204442-2.6903261,2.6901807-2.6903261s2.6901807,1.2044905,2.6901807,2.6903261c0,1.4856417-1.204442,2.6901322-2.6901807,2.6901322s-2.6901807-1.2044905-2.6901807-2.6901322ZM31.5274029,30.2430542c0-1.4856417,1.204442-2.6901322,2.6901807-2.6901322s2.6901807,1.2044905,2.6901807,2.6901322-1.204442,2.6901322-2.6901807,2.6901322-2.6901807-1.2044905-2.6901807-2.6901322ZM21.8771788,54.2921461c-1.4857387,0-2.6901807-1.2042966-2.6901807-2.6901322,0-1.4856417,1.204442-2.6901322,2.6901807-2.6901322s2.6901807,1.2044905,2.6901807,2.6901322c0,1.4858356-1.204442,2.6901322-2.6901807,2.6901322ZM16.4563413,74.1166019c0,1.4856417-1.204442,2.6901322-2.6901807,2.6901322s-2.6901807-1.2044905-2.6901807-2.6901322,1.204442-2.6901322,2.6901807-2.6901322,2.6901807,1.2044905,2.6901807,2.6901322ZM13.7661606,97.3681939c0,1.4858356-1.204442,2.6901322-2.6901807,2.6901322s-2.6901807-1.2042966-2.6901807-2.6901322,1.204442-2.6901322,2.6901807-2.6901322,2.6901807,1.2042966,2.6901807,2.6901322ZM15.1180131,119.9085703c0,1.4856417-1.204442,2.6901322-2.6901807,2.6901322s-2.6901807-1.2044905-2.6901807-2.6901322,1.204442-2.6901322,2.6901807-2.6901322,2.6901807,1.2044905,2.6901807,2.6901322ZM17.8081938,139.9156775c0,1.4858356-1.204442,2.6903261-2.6901807,2.6903261s-2.6901807-1.2044905-2.6901807-2.6903261c0-1.4856417,1.204442-2.6901322,2.6901807-2.6901322s2.6901807,1.2044905,2.6901807,2.6901322ZM27.2575402,163.1672695c0,1.4858356-1.204442,2.6903261-2.6901807,2.6903261s-2.6901807-1.2044905-2.6901807-2.6903261c0-1.4856417,1.204442-2.6901322,2.6901807-2.6901322s2.6901807,1.2044905,2.6901807,2.6901322ZM36.9077643,180.4708655c0,1.4856417-1.204442,2.6901322-2.6901807,2.6901322s-2.6901807-1.2044905-2.6901807-2.6901322c0-1.4858356,1.204442-2.6901322,2.6901807-2.6901322s2.6901807,1.2042966,2.6901807,2.6901322ZM55.8469817,197.8219663c0,1.4858356-1.204442,2.6901322-2.6901807,2.6901322s-2.6901807-1.2042966-2.6901807-2.6901322c0-1.4856417,1.204442-2.6901322,2.6901807-2.6901322s2.6901807,1.2044905,2.6901807,2.6901322ZM80.1800363,207.052645c0,1.4856417-1.204442,2.6901322-2.6901807,2.6901322-1.4857871,0-2.6901807-1.2044905-2.6901807-2.6901322,0-1.4858356,1.2043936-2.6901322,2.6901807-2.6901322,1.4857387,0,2.6901807,1.2042966,2.6901807,2.6901322ZM108.2982101,204.3625127c0,1.4856417-1.204442,2.6901322-2.6901807,2.6901322s-2.6901807-1.2044905-2.6901807-2.6901322c0-1.4858356,1.204442-2.6903261,2.6901807-2.6903261s2.6901807,1.2044905,2.6901807,2.6903261ZM131.5602726,189.221842c0,1.4856417-1.204442,2.6901322-2.6901807,2.6901322s-2.6901807-1.2044905-2.6901807-2.6901322,1.204442-2.6901322,2.6901807-2.6901322,2.6901807,1.2044905,2.6901807,2.6901322ZM141.3070091,160.4771373c1.4857387,0,2.6901322,1.2044905,2.6901322,2.6901322,0,1.4858356-1.2043936,2.6903261-2.6901322,2.6903261-1.4857871,0-2.6901807-1.2044905-2.6901807-2.6903261,0-1.4856417,1.2043936-2.6901322,2.6901807-2.6901322ZM148.3839241,136.1439857c1.4857387,0,2.6901807,1.2044905,2.6901807,2.6903261s-1.204442,2.6901322-2.6901807,2.6901322-2.6901807-1.2042966-2.6901807-2.6901322,1.204442-2.6903261,2.6901807-2.6903261ZM154.859224,114.5283059c0,1.4856417-1.204442,2.6901322-2.6901807,2.6901322s-2.6901807-1.2044905-2.6901807-2.6901322c0-1.4858356,1.204442-2.6903261,2.6901807-2.6903261s2.6901807,1.2044905,2.6901807,2.6903261ZM150.6353635,91.8039209c-1.4857387,0-2.6901807-1.2044905-2.6901807-2.6901322,0-1.4858356,1.204442-2.6903261,2.6901807-2.6903261s2.6901807,1.2044905,2.6901807,2.6903261c0,1.4856417-1.204442,2.6901322-2.6901807,2.6901322ZM141.3070091,64.5103441c0-1.4858356,1.2043936-2.6903261,2.6901322-2.6903261,1.4857871,0,2.6901807,1.2044905,2.6901807,2.6903261,0,1.4856417-1.2043936,2.6901322-2.6901807,2.6901322-1.4857387,0-2.6901322-1.2044905-2.6901322-2.6901322ZM127.5182393,40.361395c0-1.4856417,1.204442-2.6901322,2.6901807-2.6901322s2.6901807,1.2044905,2.6901807,2.6901322c0,1.4858356-1.204442,2.6901322-2.6901807,2.6901322s-2.6901807-1.2042966-2.6901807-2.6901322ZM110.2147403,21.7788519c0-1.4856417,1.204442-2.6901322,2.6901807-2.6901322s2.6901807,1.2044905,2.6901807,2.6901322c0,1.4858356-1.204442,2.6903261-2.6901807,2.6903261s-2.6901807-1.2044905-2.6901807-2.6903261Z"/>
  </g>
</svg>