<?xml version="1.0" encoding="UTF-8"?>
<svg id="Layer_2" xmlns="http://www.w3.org/2000/svg" viewBox="0 0 185.9669314 195.010268">
  <g id="Layer_1-2" data-name="Layer_1">
    <path d="M175.1724547,116.8513637c-.9372999-1.2197115-.9387057-1.2656651.4879428-2.0238039,5.3912197-2.8649307,8.6267368-7.2201567,9.8022396-13.2782864,1.4845753-7.6506089-.2614221-14.2060854-5.8657835-19.6844619-1.320732-1.2910657-2.7363768-2.4621089-4.2135355-3.5667423-1.0879097-.8135934-1.0928056-.8450048-.2057736-1.8462908,1.5605346-1.7617516,3.11564-3.5290292,4.1734472-5.6548232,3.6776516-7.3907864,4.9496669-15.1842976,3.5650942-23.3212981-1.2371138-7.2700853-4.5953194-13.2810979-11.1135191-17.1629234-.8449563-.5031637-1.0839833-1.0686654-1.0590675-1.9825038.0554547-2.031075.0173053-4.0646708.0173053-6.097297h-.0730508c0-2.286244-.0130396-4.5725849.0064956-6.858732.0076589-.9017198-.3798934-1.2579092-1.2776868-1.1768601-1.0113203.0913257-2.0314628.0849271-3.042977.1748954-3.0422499.2706807-6.0917709.2198796-9.1398862.2586591-.8139812.0104705-1.387869-.1334014-1.8266587-.9763703-2.6195051-5.0328973-6.9470522-7.9795558-12.2187342-9.6504664-5.6152196-1.779784-11.3610776-1.9572971-17.1474601-1.069441-5.0580555.7761712-9.9067503,2.2205128-14.3146194,4.8992051-.7209105.4382081-1.2088047.4341362-1.8261255-.1545362-.9634761-.9187827-1.9805648-1.7877338-3.0256232-2.6135428C100.5862892.0967355,93.3532383-.7736698,85.7716085.5624771c-4.6417094.818053-8.5157305,3.2445818-11.4571538,6.9963991-.5868789.7486378-.9987169.86168-1.8216174.2735892-2.5114073-1.794908-5.3617473-2.8479647-8.3590614-3.5376577-4.9434137-1.1373051-9.9358834-1.3021178-14.9565652-.7381673-5.8504656.6571182-11.4799367,2.0942856-16.6760471,4.961737-2.5797077,1.4236915-4.9677963,3.1197119-6.7247489,5.5136659-.7299267.9945966-1.4975179,1.3325597-2.6991969,1.3015362-3.2373591-.0838606-6.4782569-.0486682-9.7176034-.0317992-2.2607465.0118277-1.9988881-.1483315-2.1030594,2.0854633-.0886111,1.9004852-.0503164,3.8090171-.013282,5.7130893.064277,3.3020724.1365038,6.6049203.2807149,9.9041812.0441117,1.0097206-.2366518,1.6350396-1.1401651,2.1484799-4.0706331,2.3131957-6.6496621,5.84969-7.9698124,10.2771428-3.6606856,12.2770003-1.9994213,23.59353,6.2642426,33.6639782,1.0516509,1.2815647,1.2202932,1.0709922-.0118277,2.4482453-3.1621269,3.5345553-5.7588491,7.4244276-7.3132759,11.9398128C-1.3656798,101.379807-.0012724,108.4806199,5.5720654,114.7395304c1.5292202,1.7173491,3.2835067,3.1748757,5.1558283,4.5004551,1.2575699.8902798,1.264114.9100573.4474182,2.1730079-2.5996306,4.0199774-4.7305144,8.2591558-6.0475138,12.8795364-1.9653923,6.8951847-1.8843432,13.6651117,1.2795288,20.2359061,1.7630604,3.6615581,4.2689416,6.7598443,7.3326657,9.3949097.8512095.7321565,1.2211172,1.4831211,1.1807866,2.5976432-.0619987,1.7117261.0090647,3.429269.0486682,5.1437097.0997117,4.3180946.1897286,8.6365771.3327279,12.9531205.0598658,1.8069297.1230279,1.7879277,1.8835676,1.6642212,3.2305242-.2270538,6.4679803-.3693745,9.6929784-.6551792,1.3628077-.1207981,2.4140224.2094092,3.4769678,1.0848558,3.3597568,2.7671095,7.0556348,4.9670692,11.2892386,6.150231,6.0431027,1.6886523,12.1968723,2.5005006,18.4629084,1.9959796,5.6283562-.4531382,10.8370699-2.1117364,15.0772663-6.059487.6457752-.6012758,1.0311463-.621635,1.7130349-.0428513,5.6653421,4.8090428,12.2456859,6.7844693,19.6182944,6.1343314,5.9708274-.5266253,11.0714434-2.6911017,14.4798685-7.9249737.1730049-.2656394.3833836-.5068477.558279-.7715177.3153741-.4769876.6646317-.5165426,1.0958595-.1425146.335394.29104.6938618.5557099,1.0458825.8273601,6.1737895,4.7625074,13.1121648,6.7383217,20.8866257,5.8619056,4.1872139-.4721401,8.2307983-1.4947549,12.2260053-2.7754471,3.9235619-1.2578123,7.5106634-3.1746818,10.5243619-5.9609871,1.515405-1.4009086,3.0582949-1.8784778,4.985344-1.5350855.1867717.0333503.3791663.0445964.5692827.0480865,3.1742455.0614655,6.3502361.2127054,9.5223488.1545362,3.5239394-.0645678,4.6591601-1.3462295,4.493184-4.8195133-.2091183-4.3768455-.4099475-8.7554361-.7328351-13.1243319-.0985968-1.3345957.2522605-2.2271053,1.2268857-3.1461789,5.5709141-5.2522922,8.2497518-11.7886698,8.2071428-19.4100002-.0448388-8.0247339-2.7870809-15.1547283-7.4810456-21.5816508-.9356518-1.28108-1.9837641-2.4795597-2.9511666-3.7382445ZM180.2021527,90.4565013c2.183236,5.8543436,1.0866009,11.3654888-2.1664154,16.4959165-1.0156829,1.6017862-2.6571697,2.6688035-4.3992892,3.5157473-.4292403-1.2777837-1.6087181-25.0228446-1.3654738-27.9119155,3.896077,1.575804,6.534681,4.1556086,7.9311784,7.9002518ZM170.7421904,36.1116225c.9355549-.2882285,1.3953825.3522146,1.8852157.7755895,1.9642774,1.6977655,3.3016846,3.8311214,4.1805244,6.2621098,2.1555572,5.9626352,2.3075242,12.0406394.9923668,18.1871864-.5713671,2.6705486-1.3771561,5.2749782-2.4819834,7.780811-.8043833,1.8243804-1.9195841,3.4061953-3.8547284,4.9402144-1.1684256-12.846283-.7418998-25.3968726-.7213952-37.945911ZM112.3405422,13.6668375c2.7732657-2.8307078,6.0781496-4.7983784,9.9050537-5.7992767,6.0703452-1.5878256,12.1818452-1.7297585,18.2648423-.0865752,3.8462454,1.0389991,7.0099719,3.1639205,9.3649041,6.5689524-12.7725051.1638433-25.4802.8299777-38.1827081.5208084-.1215252-.7071437.3615217-.9117055.6479081-1.2039088ZM101.7852537,7.0801435c2.4613333,1.3445814,4.2979293,3.3517101,5.3002333,6.0282695.5236683,1.3983879.3651572,1.6527813-1.1469999,1.8048938-.7566845.0761047-1.5222883.0781406-2.2841596.0857996-9.1456061.0915196-18.2912608.1780947-27.4369154.2646699-.6276943.0058169-1.2554855.0006786-2.141742.0006786,6.8609133-11.138241,17.3395155-13.8489264,27.7095836-8.1843114ZM31.0509081,14.1261804c4.2698627-3.0562105,9.1314032-4.6157271,14.2232453-5.5774581,4.9547567-.9357488,9.9524131-1.0980409,14.9715437-.7659916,4.4068027.2916217,7.931033,2.0744111,10.0964789,6.0906075.1452291.2693235.3458644.53283.234228,1.1651294-13.5167317.615915-27.0008887.0827942-40.5505829.3498878.1135269-.8239669.6437878-.9891675,1.025087-1.262175ZM7.5509821,68.7955464c-2.7710844-6.1077674-3.3274244-12.442104-1.8050392-18.9516268.7039929-3.0100629,2.0957883-5.7022311,4.1364128-8.0402457.2807634-.3216758.4927417-.7567815,1.0097691-.7831515.7567815,1.8238957,2.0041718,28.6012207,1.5874378,34.7446652-2.3406807-2.0618078-3.7728552-4.4222175-4.9285805-6.9696413ZM5.2692947,96.3206366c1.3049294-4.4844586,3.8075628-8.2038951,7.0159828-11.7077176.642382.8093277.5895935,1.5783247.6611901,2.2996229.4450914,4.4854281.5791715,8.9885977.7183898,13.4901193.1274391,4.1221613.2015563,8.2459708.2943847,12.3691985.0139606.6210533.001939,1.2426883.001939,2.1287024-7.6517723-4.1844024-10.8433231-11.1870062-8.6918863-18.5799255ZM11.4588383,154.7211699c-3.0608156-5.2965978-3.6906912-10.9827353-2.5609481-16.9109538.6817432-3.5772127,1.9731482-6.9406536,3.8297156-10.0776224.3157134-.5334117.5589577-1.133718,1.4770133-1.7795901.7674943,10.9334854.5687495,21.6140317.6474233,32.6575538-1.5500156-1.2599452-2.5834402-2.4880912-3.3932041-3.8893875ZM68.7771818,187.332964c-2.1364583,1.4780797-4.5812134,2.1768859-7.1046908,2.4973982-6.4439855.8184408-12.7682394.1679151-18.9265655-1.900776-1.8503142-.621635-3.6071699-1.477498-5.5528816-3.0009497,11.753235-1.5843355,23.1793167-1.8375655,34.5786406-2.6379738-.0745051,1.9093075-1.2135067,3.8100835-2.9945026,5.0423013ZM97.8799181,189.3178914c-6.9738586.6966733-13.5526027-.3466885-18.9065456-5.4374642-.4485816-.4265742-.96653-.8271662-1.1476301-1.4755591,2.1163414-.8583837,24.4454182-1.6934997,31.3480194-1.1432189-3.058101,3.9991334-6.1952152,7.5470677-11.2938437,8.0562422ZM148.2816997,184.447771c-5.475565,2.3511996-11.1875394,3.6811417-17.1759146,3.546577-4.9947965-.1120727-9.6467339-1.3565061-13.6451887-4.5108286-.5936653-.4684561-1.1619785-.9884888-1.6534599-1.5608739-.4328274-.5039393-.2837203-.9456375.4139224-1.0829169.2463466-.0484743.504521-.0416879.757654-.0504133,11.6732524-.404276,23.3212012.0063986,34.9479182,1.0918361.1230279.0114399.2421778.0643739.6722422.1838147-1.4416755,1.1319729-2.8907675,1.7702831-4.3171736,2.3828049ZM172.492502,180.5791305c-7.8135312-.0063986-15.6123261-.3992347-23.411218-.8492705-11.7321002-.6768957-23.4749133-.9520361-35.2271789-.6914381-8.5703126.1900194-17.1432429.2350036-25.7109863.5752935-9.5802271.3806206-19.1546858.8533424-28.7280296,1.3838456-11.8569701.6571182-23.6691985,1.8577308-35.5087663,2.7172779-1.7729007.1287479-3.5514244.1861415-5.3217075.3410655-.8330801.0729054-1.1473877-.2192979-1.1608636-1.0369632-.028309-1.7140528-.1296689-3.4267484-.1651521-5.1408012-.3039341-14.6656222-.5907084-29.3317291-.9011865-43.9972543-.2365548-11.1737243-.5002068-22.3468668-.709422-31.636878-.2953542-18.9007287-.9424867-35.9035899-1.7831772-52.9019914-.4986071-10.0827607-.8802941-20.1742467-.8536817-30.2743612.0009695-.3810083.0152694-.7621136.008483-1.1428312-.0110037-.6222167.2718441-.937106.9080699-.944668.6982729-.0085315,1.3961096-.0482804,2.0943825-.0650526,7.9375285-.1906981,15.8749601-.0822125,23.8123432.0092101,22.2899579.2568171,44.578801-.1747015,66.8678379-.1162415,19.8141793.0519645,39.6240443-.3849832,59.4370602-.345816,2.4334606.0048474,2.5636142-.6098073,2.6402037,2.5780596.059478,2.4752939.0646163,4.9531085.0347561,7.4289842-.1982601,16.4510292.1281177,32.8950781.8638613,49.3270085.7185352,16.0468501,1.642844,32.0844901,2.4645811,48.1267837.4644327,9.0676109.8942547,18.1369669,1.3579118,27.2045779.4604093,9.0038187.9628944,18.0056984,1.4044957,27.0104866.1191984,2.4297281.549796,2.4434948-2.4126166,2.4409741ZM179.4820178,151.3221488c-.64912,2.0948673-1.7115806,3.9190538-3.6459009,5.7091144-.7268728-11.5329192-1.6167163-22.6892896-2.1491101-33.8329598.682034-.3220635.8965815.2012655,1.1689588.4731096,2.1090218,2.1049499,3.4899104,4.6618747,4.4010827,7.463304,2.1784371,6.6979911,2.3181886,13.432047.2249694,20.1874317Z"/>
  </g>
</svg>