<?xml version="1.0" encoding="UTF-8"?>
<svg id="Layer_2" xmlns="http://www.w3.org/2000/svg" viewBox="0 0 160.2937414 215.2341325">
  <g id="Layer_1-2" data-name="Layer_1">
    <path d="M155.5024535,102.7699976c-.6173693-.6006941-1.4427419-1.0235843-1.8228293-1.8906933.8694843-.8203798,1.7398412-1.5639763,2.5211022-2.3915303,4.7645433-5.0469549,5.2568488-11.5233212,1.3247069-17.2442634-1.9489595-2.8353614-4.531818-4.942832-7.5566656-6.5448121-.5260921-.2786305-1.1810289-.4013676-1.5462831-1.0158284.5666651-.7451476,1.128919-1.4305749,1.6317434-2.1569144,1.1702192-1.690979,2.0349045-3.506828,2.2252148-5.5958784.3362665-3.6912244-1.3088558-6.5112679-3.9309785-8.8715807-2.5503322-2.2955511-5.5987868-3.6904488-8.84555-4.6899898-.536514-.1652006-1.1323122-.1772222-1.5496279-.6447088.5192572-1.0871826,1.1049727-2.1468318,1.5446835-3.2636807,1.5711989-3.9911836,1.0308554-7.7149828-1.542793-11.1432824-.7278908-.9696808-1.5769674-1.8241865-2.506269-2.6013272-2.717084-2.2717017-5.8160004-3.8391681-9.1637356-4.9335249-1.379386-.4506175-2.7802945-.8353099-4.2413113-1.2708034.3584678-1.0218392.7367616-1.9583635,1.0173795-2.9235847,1.3168056-4.5296367-.0230738-8.7608653-3.668296-11.5589984-1.9433365-1.4916525-4.1372853-2.4339938-6.5448606-2.9245542-3.9490594-.804868-7.6890006.0333503-11.3904531,1.3175327-.6941041.2408205-1.3312994.7327382-2.112318.6156242-.2936576-.4593429-.1473135-.9122872-.1413997-1.34526.068058-5.0186459-2.0463929-8.3470883-6.7124364-10.1763161-4.9015803-1.9219108-9.897831-1.9781411-14.9206942-.383529-3.7830833,1.2010004-6.2753917,3.71837-7.6447435,7.395246-.3669993.9853865-.6662799,1.9959796-1.0850497,3.2623234-.5088352-.8382184-.8958059-1.4660581-1.2732271-2.0993269-1.616377-2.7130121-3.9868694-4.1924491-7.1495781-4.3774272-5.4087674-.3164405-10.1173713,1.4433721-14.2120962,4.8980417-2.1603076,1.8226354-3.4945155,4.1298203-3.8717913,6.9969808-.1507067,1.1453518-.1439203,2.3884279-.936185,3.497327-1.0569831-.6805798-2.0435814-1.3555366-3.0685714-1.9661194-1.4550544-.8667213-3.0403594-1.3629047-4.7351194-1.0730281-7.4199195,1.2698339-12.2038526,6.7511189-11.8684101,13.9716634.1044622,2.2474645.7562967,4.3427196,1.5463316,6.4472817-.6144123.4106746-1.2631445.3717013-1.880029.4698133-.6883357.1093581-1.3721633.2491581-2.0556031.3872131-6.5045299,1.3136547-9.6885673,7.351813-10.3671112,11.4366491-.2083912,1.2543221-.1028141,2.5212476.2297684,3.7757637.620714,2.3418925,1.9524981,4.2420869,3.5188496,6.0255549.3884249.4422799,1.0621698.7278908,1.0151982,1.5147263-3.4073102,1.0357998-6.5680798,2.4535774-8.8702719,5.2930107-2.3105781,2.8499037-2.7760772,6.1550784-2.4977376,9.6948689.2988443,3.8005825,2.8539755,6.1717536,5.4692149,8.6344442-.7828122.3224513-1.3729389.5477601-1.9485232.8054497C1.9473147,87.8864347-.2366969,91.4151731.0204111,95.6997235c.2510971,4.1823665,2.3585192,7.2810405,5.7589945,9.5843474.4880397.3304011.9996379.6262885,1.5580139.9741404-9.8615722,6.4699677-9.5650062,17.8273128.3563834,23.6605216-.5001098.8655579-1.0006559,1.7347998-1.5039165,2.6024906-1.0224694,1.7633028-1.9062536,3.5777944-2.3549321,5.5896736-1.2475357,5.5935516,1.8115832,10.6728873,7.3390158,12.1666727,1.484139.4009798,3.0056033.4653537,4.5204265.6109706.402531.0385856.8884863-.1456169,1.165808.3461068-.1195377.6712727-.5694766,1.1470969-.8728775,1.6911729-.9303196,1.6686808-1.7398412,3.3829276-2.2592923,5.2298001-1.5918975,5.6606401.3381086,10.0221677,5.6035858,12.6258217,1.0860677.5370957,2.2349581.8985205,3.4020749,1.2060417.5521228.145423,1.1046334.2954996,1.6646575.4036943.6936194.1337892.9665784.5388408.8754467,1.2174816-.0760078.5655987-.1465379,1.1321668-.2414507,1.6944692-.2982626,1.766599-.3395143,3.5380455-.1147388,5.3143394.6166421,4.8749679,3.6491002,7.9951645,8.3371995,8.485531,2.0236585.211542,4.0577389.185172,6.0753866-.1781917.5926958-.1066436,1.1983828-.3461068,1.8968011.0126033-.6483928,1.4837027-1.2642594,2.9377392-1.6157469,4.4906633-1.2449666,5.5002869,1.1599426,10.3713769,6.3086451,12.6502528,2.9835959,1.320635,6.1041803,1.6397901,9.3183687,1.1713341,2.343783-.3416472,4.5839764-1.0294012,6.6783105-2.1299627.7837817-.411838,1.2153972-.3957446,1.5936426.5039393.4656446,1.1077357,1.051554,2.1702934,1.6480308,3.2167575,1.5432777,2.7071952,3.8087747,4.7132575,6.7602806,5.5563233,6.091674,1.7400351,11.7165884.916359,16.312635-3.8729062,1.0948416-1.1408922,2.0964669-2.3713649,3.2585909-3.6945207.3120294.4556588.5449971.7540669.7343863,1.0780694,4.0856117,6.9882554,14.5127341,10.2044313,22.6793524,1.982019,1.0080725-1.0148589,1.6640273-2.2348612,1.9445483-3.6444951.2846414-1.4309627.4765998-2.8869381.8640067-4.2892039.4469819-1.6180736.0768803-1.6857438,1.9855092-1.31889,3.6049885.6931831,6.9467614-.0087254,10.0048624-1.9936529,7.1182636-4.6207684,9.7155675-12.6834093,6.6937253-20.6758592-.2863864-.7575571-.5906114-1.5083277-.8994415-2.2951633.2930759-.0979182.4636571-.2037861.6353048-.2053373,5.5894797-.0531279,11.3786738-6.2194523,12.5286791-11.0455581.9478673-3.9778047.154003-7.6785301-1.5876802-11.2569062-.4401471-.9043374-.9340521-1.7826925-1.4390579-2.7407395,2.1491585-.8746711,4.2309862-1.6587921,6.0126608-3.028871,2.9022075-2.2319527,4.4440795-5.1328514,4.4671048-8.83125.0224921-3.6150227-1.2343507-6.8333314-2.9675994-9.9126157-.5208084-.9250844-1.0918361-1.8218598-1.6053733-2.6744265.3106721-.5436883.7857691-.6131035,1.157325-.8345343.4357844-.2594347.8893588-.4890092,1.333093-.7356467,4.0968092-2.2755796,6.0034991-5.879938,6.2425261-10.4433128.2353429-4.4926023-1.6154075-8.1213917-4.7712328-11.1929201ZM90.9837793,203.8678971c-.1320926.6307482-.3760155,1.2238803-.761532,1.7309219-2.4551771,3.2280036-5.2760446,6.0170235-9.2541402,7.2992668-3.4119152,1.0999798-6.7820456.7540669-10.0282755-.6322994-2.1273451-.9086031-3.5607799-2.5986127-4.5634718-4.6647831-1.0103992-2.0820701-1.4796794-4.3089815-1.7971379-6.579132-.0668461-.477957-.1432417-.9547507-.254054-1.6890401-.9422928.8221249-1.2785593,1.7146345-1.6236967,2.5439336-.4503267,1.0821413-1.208223,1.702419-2.2504215,2.1574961-3.7269985,1.6273807-7.5443531,2.0904076-11.5200735,1.1100625-5.5047951-1.3580572-9.7915268-7.4322804-6.7890744-14.0657037,1.0529597-2.3263808,2.4811109-4.4218297,3.8352902-6.5680798.4959895-.78606.9147109-.8448109,1.6491942-.2764977,2.0076619,1.5529241,4.0816853,3.0195639,6.1057315,4.551741,9.808105,7.4241367,20.8931697,11.5888585,33.0661441,12.9886037,1.008024.1159506,2.0206531.2063068,3.0212605.3687928,1.0708467.1741198,1.383167.6790286,1.1642568,1.7247172ZM90.2010156,199.6785503c-3.6953447.6313299-7.3570967.045372-10.9343095-.8787429-16.3167068-4.2149412-29.5988227-13.0533654-39.8439724-26.4227836-7.7501267-10.1134934-12.8979082-21.5123325-16.3752153-33.7053753-3.4693089-12.1645399-5.0848133-24.5871571-5.0509298-38.6179593-.0257884-11.9078197,1.7772149-24.9340396,5.7632118-37.6331545,2.8683724-9.1385774,6.8523334-17.7410285,12.3340062-25.6320701,4.5577518-6.5610995,10.6968337-11.1077991,17.9155361-14.314474,6.4304612-2.8566901,13.1878333-4.3966231,20.1501065-5.349047,9.0964047-1.2442395,17.6666688.3939995,26.0123998,3.8981129,6.3178552,2.6525161,11.2193871,7.0999403,15.6157678,12.1938184,5.8900692,6.824606,10.5172847,14.4672651,14.4314911,22.5539492,6.1725292,12.7522428,10.514764,26.1073126,13.0712525,40.0446562,1.4672699,7.9988486,1.509685,16.0186381.6252221,24.086708-1.644686,15.0039731-5.482206,29.415008-11.5373303,43.2284512-3.0165585,6.8816119-6.5763689,13.4673364-11.5056281,19.2074744-8.1304079,9.468009-18.3794841,15.2405279-30.6716084,17.3404365ZM158.6036482,114.678399c-.0894836,2.9654665-1.4223342,5.3554456-3.8276312,7.1241775-1.5496279,1.1397288-3.2836036,1.9060112-5.0739066,2.5782534-.5673437.2130932-1.2753115.2051434-1.721227.9435046.6278397.5908053,1.3120066,1.1560162,1.9044116,1.8051846,3.1381321,3.4381883,4.928726,7.3655797,4.2637064,12.1408844-.6676856,4.7943066-3.7678139,8.083-8.4846585,9.0838983-1.1693951.2479947-2.3889127.3119809-3.6563229.8609044.7155783.9177163,1.3891778,1.7423618,2.0199259,2.5984188,1.7173491,2.3310343,2.9571289,4.8373518,3.2963039,7.7873065.7668157,6.6708454-5.2558793,15.7235263-14.9958779,13.8163516-.5482933-.1072253-1.0868433-.3649149-1.6925787-.20398.06132.7455354.7133969,1.0276561,1.1388563,1.4507402,3.9107647,3.8909387,5.126065,8.5179119,3.6868617,13.8004521-1.4641191,5.3744476-5.0654721,8.6478231-10.3682745,10.1342404-.4881367.1366977-.9886343.2369426-1.488841.3218696-2.4669564.4186244-4.812436.3544444-6.6861633-1.6587921-.2524544-.2712624-.6152849-.4413104-.934246-.6470356-.0373252-.0240433-.1205557.0228799-.2846898.0601082-.1763012.6429637.0085315,1.3163693.0945734,1.98008.1723263,1.3297482.2042224,2.6606598.0780922,3.9919592-.4887668,5.1603848-3.4937884,8.4048697-8.1975934,9.9492623-4.7183958,1.5488523-8.8799667.1816818-12.3085087-3.3893262-.8400604-.8752528-1.477595-1.9029089-2.1221099-2.9245542-.3503726-.5553221-.499722-1.1246048-.4848889-1.7943263.0701909-3.1583944.0540004-3.1574249,3.102552-4.2461587,7.5783336-2.7068074,14.7402242-6.1909494,21.0356843-11.2879298,6.0240522-4.8772947,10.6325082-10.8503034,13.956394-17.8513561,5.0777361-10.6946038,9.247984-21.7089444,12.0058833-33.2407972,2.8103001-11.750569,4.0461536-23.6434586,3.2070142-35.712601-.4858584-6.9878676-1.6642697-13.8774293-3.8477965-20.538386-3.2431276-9.8934199-6.8229094-19.6677867-11.392489-29.0433067-4.0540549-8.3180037-8.9201035-16.0839815-15.3774194-22.8025257-7.6790633-7.9901232-16.8961207-12.7910223-27.9347954-14.1738984-11.963032-1.4988267-23.4103939.1797429-34.3658382,5.1832647-9.1654322,4.1858566-16.2289198,10.7554876-21.6370085,19.194871-5.5808028,8.7087069-9.1626691,18.2366302-11.5260358,28.2452251-3.5447834,15.011729-4.6436483,30.2373268-3.3941251,45.5930297,1.4643615,17.9944524,6.2765551,35.0488902,14.9056671,50.9775599,3.4560754,6.3796116,7.9008819,11.9531917,13.2117311,16.8679086,1.6311132,1.5092972,1.6367363,1.5798758-.2053373,2.8935306-3.5961177,2.5642928-7.5196797,3.5345553-11.8882361,2.3798964-6.5001188-1.7181247-8.6250886-11.1993187-3.9113464-15.2740721.804044-.6951221,1.6726557-1.3644559,2.2517303-2.2955511.0247704-.0399429-.0138637-.1192469-.0517706-.3736402-1.4191349-.1619043-2.6799041.3278805-3.9467811.6941526-1.5600014.4508114-3.1331877.551638-4.7128212.2794061-4.7588234-.8197981-7.6908911-4.9387601-7.0895183-9.9147486.3765487-3.1159309,1.5757071-5.8661713,3.7119714-8.1867351,1.1030337-1.1982858,2.2128054-2.390173,3.633443-3.9239013-1.8121649.2338402-3.162854.4075723-4.5134462.5824677-2.2175074.287162-4.4293917.3856619-6.616845-.2181346-3.8164336-1.0534445-6.1638038-3.8665076-6.0645768-7.3149725.0365981-1.2744875.298602-2.5183392.7294419-3.7236053.7947369-2.2232273,1.9543886-4.2630278,3.1020672-6.3146559.4399532-.7862539,1.0062304-1.0363815,1.8538528-.9756916,1.2053146.0862843,2.4126166.0738749,3.5967479-.238106.367581-.0969487.8286689-.1498827.7937674-.6332688-.0231707-.3207063-.3915758-.4861007-.7143179-.5363202-1.0030311-.1560874-2.0074196-.3978774-3.0148134-.4159099-8.4832527-.1531789-11.0425042-9.0028492-9.0531171-14.2840321.9545568-2.5340448,2.719944-4.2265751,5.1143827-5.3620381,1.9546795-.9268295,4.0615684-1.4235946,6.1089308-2.1567205-.306164-.6266763-.9129173-.5388408-1.3905835-.6648741-2.4093688-.6363712-4.7210619-1.4864173-6.7592142-2.9610069-4.3736462-3.1645991-5.1113288-9.3278212-1.632422-13.4884712,1.1822408-1.4138997,2.8027866-1.895153,4.5123313-2.212563,1.2463239-.2313196,2.4955077-.447709,3.7379052-.6982245.2845929-.0573936.6728239-.066119.7192139-.4839679.0406215-.3658844-.2429534-.5642414-.4894939-.7542608-.71044-.547954-1.5022199-.9706503-2.3517813-1.2306667-4.7224676-1.4449233-6.2727741-4.9571804-6.2767975-9.5106664-.0040718-4.6205745,2.0066924-7.6672841,6.2601708-9.5064007,2.2384968-.9679357,4.6247433-1.3314933,6.9898551-1.7898667.607529-.1176957,1.2677011-.0827942,1.7367873-.6136852-.1967574-.5496991-.7343863-.6809676-1.1494721-.942923-.9121902-.5756813-1.8596213-1.095908-2.7681275-1.6770184-2.9929999-1.9145427-4.4288585-4.6665282-4.1962301-8.2051554.3063094-4.6597418,2.4849403-8.2317193,6.6199958-10.4303217,2.789844-1.4835088,5.7025704-1.6134201,8.5609571-.0087254.6994848.3926422,1.4231098.7422392,2.3953597.8651701-.8463136-1.1306156-1.6753218-2.2746102-2.5424309-3.3891323-1.9296182-2.4803353-2.6549883-5.2877754-2.3926452-8.3955626.4091719-4.8478223,3.7636451-9.1678559,8.2162075-10.4248926,3.2340629-.9128689,6.1687482-.3850802,8.5908657,2.0970002,1.0054549,1.0301768,1.974457,2.0960307,3.2473933,3.4517611-.0413971-.9355549-.0533703-1.464313-.089823-1.9911322-.5231351-7.5594771,1.4733292-12.1730713,9.9138276-15.5486308,2.2511486-.9002655,4.6153878-1.3526281,7.0847679-1.02785,2.4772329.3255537,4.4149464,1.4493829,5.8204115,3.5339736.8154839,1.2095319,1.7115806,2.3653541,2.5936198,3.5285445.2184254.2881315.379748.6836822.9772913.7145118.1628253-.6113584.3462522-1.254516.5044725-1.9034906.3613762-1.4829272.8174713-2.9313406,1.4503524-4.3239116,1.2200508-2.6847031,3.2220412-4.525177,5.9789711-5.5384847,4.6524707-1.709981,9.3387764-1.6746917,13.9946888-.0777528,4.2642396,1.4627618,6.2291472,4.6376375,5.8083414,9.1215144-.1127513,1.2010004-.2320952,2.4021946-.3102358,3.6057157-.0522069.804868.35522,1.0491787,1.0596977.6817432.8989082-.46865,1.793987-.950485,2.6563456-1.4825394,4.4749576-2.7599353,9.2578727-2.9881525,14.1073916-1.4272786,5.0199062,1.6157469,7.3063441,5.9766928,6.1404876,11.1411495-.3371875,1.4939793-.8720535,2.9156349-1.5734772,4.2767945-.2839627.5510564-.5486326,1.1120015-.907973,1.8431885,2.1195407.196418,4.0655918.0129911,5.9891992.3806206,4.5713731.8740894,8.293815,3.1298915,11.1814802,6.7135028,1.997143,2.4785902,2.7201379,5.40392,2.4060241,8.5756933-.1689331,1.7057152-.8242578,3.1729367-2.0725206,4.3766516-.6388434.616012-1.2607208,1.2638231-1.655108,2.0766409-.5224565,1.0770999-.199375,1.5461377,1.0165555,1.396255,4.3379206-.5345751,7.9905595.9859682,11.1856489,3.7689773,1.858361,1.6186553,3.1175305,3.6311162,3.6987864,6.0796523.6151879,2.5914385-.115272,4.7605684-1.8010158,6.6917863-1.2199054,1.3972245-2.6966763,2.5008884-4.2009806,3.5686813-1.0236327.7265335-2.0398489,1.4633435-3.4053227,2.4440765,1.4238854.1900194,2.363706-.1884683,3.2746359-.3918666,2.8009931-.6249313,5.3012998.0141545,7.578673,1.6252478,3.6742099,2.5991944,5.8723275,6.1748559,6.3160617,10.6350773.4498904,4.5226564-1.4078404,8.0401487-5.3714906,10.3424862-1.2450151.7232372-2.5720487,1.3053172-4.0248248,2.0335957,1.5906371.9276051,3.0768606,1.615553,4.4327849,2.5416068,4.0122215,2.7401578,5.5270933,6.6623139,5.3863722,11.3278727Z"/>
  </g>
</svg>