<?xml version="1.0" encoding="UTF-8"?>
<svg id="Layer_2" xmlns="http://www.w3.org/2000/svg" viewBox="0 0 140.5335206 227.4288713">
  <g id="Layer_1-2" data-name="Layer_1">
    <path d="M136.9528699,173.2609994c-2.7529065-1.1356569-5.4600048-.7733597-8.1602197.2466375-.7920708.2993776-1.493543.916359-2.4752455.878549.0872053-.8153385.5136342-1.3769622.8176652-1.9804678,2.9443317-5.8448426,5.7231235-11.7622028,7.4609288-18.0981875,2.1788733-7.9439756,2.898475-16.1058919,3.3584965-24.2860345.7501405-13.3391702.4924993-26.6615682-1.0919816-39.9387882-.6246404-5.2342597-1.5032864-10.4219841-3.2442909-15.4308382-2.5248347-7.2637836-6.2779124-13.8561975-10.8144324-20.0296962-.5172697-.7039444-1.0314371-1.4101187-1.5470102-2.1152265,1.8016944-.0294724,3.3854967.0613685,4.9698322-.0612716,2.1713598-.1679151,4.3083028-.5285643,6.0945824-1.8968981,2.7139816-2.0789677,3.8004371-4.9629973,3.3518555-8.2353064-.3965201-2.8922703-2.6580907-4.3333156-5.2220927-5.2570427-.6483444-.2335494-1.3592691-.374028-2.0474594-.4003981-1.6426016-.0628228-3.1703676.272135-4.2419414,1.6839987-1.0941629,1.441627-.9969234,2.8205282.2879861,4.0800856.9360396.9176193,2.077465,1.4479287,3.3569453,1.6684869.6338021.1092612,1.2661014.0571997,1.8503142-.268257.4643357-.258853.9191221-.5512502.6806283-1.17337-.2097-.5468876-.7215406-.4381111-1.140359-.3360242-.6780107.1652975-1.3405095.4041791-2.0496892.3863405-1.7347514-.0437239-2.5938137-1.4920403-1.8139585-3.0474851.6895476-1.3754111,2.0857541-2.0881778,3.6469673-1.8071236,2.1161475.3808145,3.5412933,1.6649968,4.3608005,3.5946635,1.5939819,3.7534655-.7863993,7.9075229-5.0745853,8.7505887-4.3966715.8644915-8.3168403-.2061129-11.6092178-3.2898568-1.9487171-1.8253499-3.6769729-3.8625327-5.40392-5.8962254-3.6572439-4.3068486-7.1285887-8.7754076-11.1474996-12.7672699-4.5386529-4.5080171-9.7029157-7.9574515-15.9864996-9.5446954-.8591108-.2171651-1.7064908-.4958925-2.5378743-.8039955-.696237-.2579805-2.9563049-1.0747732-6.3792238-1.6979593.7733597-.4846465,1.5027047-1.0695379,2.1575446-1.7450764,1.16765-1.2044905,1.6378512-2.7781616.7565876-4.381693-1.1721581-2.1324834-3.0828714-1.5197677-5.180841-.9931424,0-1.9533222.0961731-3.5335858-.025546-5.0967865-.1372793-1.7636906-.5655502-3.6596191-2.6321084-3.9407703-2.0862873-.2838658-3.0510722,1.4670276-3.5192859,3.1318305-.5895935,2.0964185-.5381137,4.0768863-3.9342748,3.4211254-1.88381-.3637515-2.074605,2.0712118-1.6804601,3.6662116.5385984,2.1797943,1.7240385,3.9475567,3.262081,5.2248557-2.3591009.1053832-4.8934851.3842077-7.5699476.9180071-.3455251.1988418-.7070468.3531841-1.057177.5137311-2.0752352.9514544-4.145526,1.9250132-6.2708351,2.7539245-8.5138885,3.3204926-15.7172246,8.4645901-21.6910574,15.3655917-1.5375093,1.7761-3.1220871,3.5130327-4.7256669,5.230091-2.1702934,2.3236662-4.455277,4.5297336-7.0681412,6.3614822-2.1524063,1.5089094-4.4641963,2.6577514-7.1055149,3.0531081-1.535231.2298653-2.926784-.0803705-4.101996-1.0767121-1.8920506-1.6039191-2.9214518-3.6642727-2.8859201-6.1668092.0484259-3.4100732,4.3605582-5.7588491,7.2984912-3.9921531.7184383.4321003,1.3893232,1.0186399,1.4342589,1.8973828.0487652.9554293-.7560059,1.3978062-1.4848177,1.8038273-.3308859.1842995-.7226071.2662211-1.0378842.4702011-.526189.3404838-1.721227.2224003-1.4488982,1.075161.242711.7600777,1.3341594.4596337,2.0672369.4031127.3560441-.0275334.7400093-.2158078,1.0338608-.4351057,1.2115193-.9043374,2.2199311-1.9816312,2.0256459-3.6368362-.1901164-1.6196248-1.2703672-2.5709823-2.7137392-3.1483117-3.9571062-1.5828813-8.811424,1.6336824-9.0883095,6.014212-.2887132,4.5674467,3.4534577,8.6880568,8.068894,8.8886436,3.044819.132238,5.7058182-.9946936,8.2642456-2.4857644.6014697-.3504695,1.1318275-.8835904,2.1347132-1.0733189-.705738,1.1769571-1.2535466,2.09923-1.8097412,3.0163646-1.6789574,2.7681759-3.3928648,5.5157987-5.0352241,8.3054003-2.9404053,4.9945056-5.36611,10.2222698-7.0103113,15.79585-1.8096442,6.1343314-2.5973523,12.4162187-2.6660405,18.7921462-.0952036,8.8324134.5052481,17.6452432.8793246,26.4626295.2879861,6.7886381,1.0403079,13.5368486,2.3085422,20.2260173,2.3291438,12.2844654,6.7199015,23.7829678,12.9753702,34.5898382.363703.6282275.8499007,1.2217474.9704079,2.1365552-.7730204-.0228799-1.2955738-.4054394-1.8569552-.6280336-1.6332461-.6474233-3.3107977-.8589654-5.0441434-.5632719-2.9405992.5018064-5.1861732,2.7578024-5.6682021,5.6813871-.5293883,3.2109406.883251,6.2440773,3.5306289,7.5808058,2.4488269,1.2362897,5.2968886.3959384,6.5896024-1.9445968.8606135-1.5579654.6048144-2.7333714-.7785465-3.6169617-.7472805-.4773753-1.5632007-.5692827-2.3767456-.3020921-.709519.2330646-1.6639788.1956425-1.8732426,1.4315443.8133995-.2111542,1.5139023-.4715584,2.2355883-.5609451.9453951-.1169201,1.5156958.4275437,1.8821134,1.2806922.3418896.7959487.0165782,1.3543732-.5333632,1.8488115-.956108.859741-2.1389789,1.2686706-3.3503043.9658028-2.2642851-.5661803-3.7349483-2.1160021-4.395896-4.3310858-.5045695-1.6907851.4720916-3.563446,2.3309373-4.8179621,2.9853895-2.0143999,6.9583952-1.8164306,9.72216.5337995,2.3728192,2.01789,4.5934289,4.1996233,6.7116124,6.4825711,3.110017,3.3517101,6.1754861,6.7451081,9.3106128,10.0729688,3.4054197,3.6150227,7.1148219,6.8787034,11.2599116,9.6454251,4.3624971,2.9119508,9.080699,4.6871783,14.3366268,5.1680438,1.0394354.0950097,2.0772711.1653945,3.1142828.2212369-1.7062,1.2931016-3.0317309,3.157231-3.6101753,5.498348-.3941449,1.5949998-.2033499,4.0299631,1.6804601,3.6662116,3.3961611-.6557609,3.3446813,1.3247069,3.9342748,3.4211254.4682137,1.6648029,1.4329986,3.4156962,3.5192859,3.1318305,2.0665583-.2811512,2.4948291-2.1770798,2.6321084-3.9407703.1217191-1.5632007.025546-3.1434643.025546-5.0967865,2.0979696.5266253,4.0086829,1.139341,5.180841-.9931424.8812636-1.6035313.4110624-3.1772025-.7565876-4.381693-.5071871-.523329-1.060037-.9908156-1.6420684-1.4016842,2.7115094-.1876927,5.4203528-.4880397,8.130214-.8926066,12.0814548-1.8040212,21.6402563-7.6318008,28.7048588-17.5748584,1.6547687-2.3289014,3.2655712-4.6890203,4.9106935-7.024902,1.4293145-2.02933,3.0055548-3.9384436,4.811418-5.6462917,2.3696683-2.2410659,4.9664875-4.1602622,8.0137302-5.3870509,1.7262199-.6951221,3.5097365-1.1833557,5.3772591-.5956527,1.8032456.5675376,3.193102,1.6461887,3.5353794,3.5981537.3614732,2.0607413-1.4654764,4.9021135-3.4715387,5.6300043-1.1880577.43084-2.1637009.0562302-2.9011411-1.1137465-.6819856-1.0819474-.6019059-1.6198187.408978-2.6563941.2094576-.2148383.5285643-.3404838.5469845-.725564-.4763089-.565017-1.0387083-.3810083-1.5255361-.0725176-1.5827358,1.0024494-1.8309245,3.3358105-.4701042,4.6486897,1.2823888,1.2372592,2.8620707,1.6033374,4.5848489,1.2384226,2.6483958-.561139,4.3874129-2.9270748,4.6518405-6.2524149.1960303-2.4652113-1.0979924-4.4805806-3.5612162-5.4966029ZM54.6337377,199.7274099c-8.7789462-3.9789681-15.7208117-10.1873683-21.5112176-17.7701131-7.3765349-9.6598705-12.3354119-20.5358653-15.8797106-32.0892406-4.9457404-16.1219854-7.0153041-32.627112-6.0466898-49.4593434.8560085-14.8760008,4.2425231-29.1222229,11.520025-42.2643934,8.9037192-16.0790371,22.0790945-27.2970669,39.0659107-34.1484308.5480025-.221043,3.9945284-.3380601,7.6247236-.364721.4247807.2221094.9357003.2317074,1.4080343-.00572,3.7124562-.0036841,7.2515196.0851209,7.719394.2525513,7.5161895,2.6893566,14.1900888,6.7373522,20.0004662,12.2252297,7.5723228,7.1520018,13.4309806,15.5481461,18.0598442,24.8281716,5.9157606,11.8599271,9.6176978,24.4077051,11.542711,37.5050853.8699206,5.9184266,1.2476327,11.8671982,1.4148692,19.990335-.5957982,19.7139343-5.380119,40.4764657-16.1910128,59.6515592-6.1122271,10.8409964-15.2214775,18.2595101-26.7235185,22.7418358-10.7822939,4.2019501-21.4837326,3.6755187-32.0038288-1.0928056ZM75.1306296,205.6744364c-.3886673,2.4778146-1.2757963,3.588071-2.909818,3.9779986-.6163028.1471681-1.1246048.1729565-1.474735-.4449945-.3966171-.6997756-.1073707-1.2698339.4622514-1.6378512,1.1637721-.7521279,2.4158644-1.3456478,3.9223016-1.895153ZM69.7739237,206.0176348c-.7243037,1.4984389-1.7353815,2.7273605-3.2049298,3.5655789-.4462548.2545873-.8920249.4694256-1.4285874.3104297-.6643894-.1971936-.9715228-.8157263-.5086898-1.2876725,1.3275669-1.3537915,2.8291567-2.4723855,4.7572722-2.8392393.0831335-.0157057.1956909.1231248.3849348.2509032ZM73.1945643,18.4536229c-.1980177.188856-1.6057611,3.0282893-1.653363,3.0631908-.8921703.6524647-5.1091475.1597714-6.3028282.2637004,1.0383689-.7921677,3.3883567-3.3422091,3.3523887-3.7794477,1.6108994.0692214,3.2017305.1960303,4.6953705.3584193-.0313144.0305388-.0598658.0638892-.091568.0941372ZM75.8076223,10.4865735c.28532-.017063.9314345.7620167.8727806,1.0691501-.4992858,2.6125733-2.3969109,3.4583537-5.3006696,3.5847747.8955635-2.4473727,1.7331032-4.4945412,4.427889-4.6539249ZM68.4340443,3.7145136c.169127-.755812.611213-1.6140018,1.5377516-1.5065826.9093787.105868,1.1253319,1.0152467,1.1950865,1.8028578.2837203,3.2024091-.6252706,6.172917-1.7540926,9.9465477-1.7880247-3.862048-1.6966505-7.0349847-.9787455-10.2428229ZM62.9323516,9.0354455c.013185-.1985509.7556181-.593326.8874198-.5021942,1.7956352,1.2386165,3.0823866,2.7828152,2.574327,5.8374745-2.0480895-1.5996534-3.6232634-2.9038071-3.4617469-5.3352803ZM62.6639976,207.7088077c-1.3093405,1.7658234-3.0493271,1.6128384-4.8230519,1.2731302-2.1331135-.4085418-4.1082492-1.2913565-6.0265729-2.2932243-4.8865533-2.5520773-9.1285917-5.9757233-13.0545288-9.7970529-5.4187531-5.2743965-10.4013825-10.9590799-15.4014627-16.6235979-2.0741687-2.3496484-3.5257815-5.1175335-4.9779759-7.8683556-6.8299867-12.9382874-11.0998978-26.6560422-12.7031383-41.2196743-.7861569-7.1414344-1.0834016-14.3024524-1.3504952-21.4705476-.1442112-3.8702886-.2632157-7.7414498-.4077177-11.6116415-.4861492-13.0209846,2.695319-25.146648,8.8837477-36.5464566,4.4356449-8.1710294,9.6487214-15.8170817,15.503889-23.0303551,6.5035605-8.0121305,14.5895659-13.8649229,24.1728469-17.6670566,1.1790415-.4676805,2.3456735-.9675479,3.5299503-1.4213647.1630192-.062435.3224513-.1014083.4734974-.117114,2.3044219-.9260539,5.4216131-1.3051233,8.6861663-1.3625169-.1338861.1252577-.8362309.7668641-1.0604732.9544598-.1236096.1034443-.396714.3240995-.408154.3328249-.004799.0040718-.0183718.0144454-.0296178.0233646-.0298602.022589-.0602536.0446933-.087884.0694153.0092586-.0082406.0167236-.0140576.0256914-.0217165-.4576463.3440709-4.2476614,3.4499191-4.4453398,3.5103181-.4009798.3882795-.8042379.4832892-1.1547558.6440301-19.6949324,9.0339697-33.4192312,23.7533015-41.5874976,43.7337477-3.7968015,9.2873936-6.0544457,18.9671386-6.9283411,28.9531444-2.5832463,29.5180644,3.8547768,57.0068959,18.8622401,82.489665,8.3857708,14.2392418,20.8395086,22.9304979,36.973758,26.3927295.1059164.022686.1948669.124676.3170707.2065007-.0545821.6043781-.6212472.7265335-.9996379,1.0103992-.6590087.4944383-1.5157928.8279418-1.9822129,1.4569449ZM63.3081247,218.8956201c-.1318017.0911318-.8742348-.3036433-.8874198-.5021942-.1615165-2.4314731,1.4136573-3.7356269,3.4617469-5.3352803.5080596,3.0546593-.7786919,4.598858-2.574327,5.8374745ZM70.6552357,223.4180825c-.0697546.7876112-.2857078,1.6969899-1.1950865,1.8028578-.9265386.1074191-1.3686246-.7507707-1.5377516-1.5065826-.717905-3.2078382-.8092792-6.3807749.9787455-10.2428229,1.1288221,3.7736308,2.037813,6.7441386,1.7540926,9.9465477ZM75.2959756,216.9422979c-2.6947858-.1593836-3.5323255-2.2065522-4.427889-4.6539249,2.9037587.1264211,4.8013838.9722015,5.3006696,3.5847747.058654.3071334-.5874606,1.0862131-.8727806,1.0691501ZM118.9602111,180.0929735c-2.7147572,3.3629561-5.1989219,6.892664-7.6753793,10.4301278-7.5239939,10.74715-17.9083619,16.8033408-30.7950241,18.7442535-.2510002.03781-.5020003.0798857-.7545517.1029595-1.8688314.1704358-2.353381-.2270538-2.5879968-2.1146448-.1791127-1.4408514-.0732932-1.6033374,1.3959157-1.8794473,15.1415433-2.8448623,26.6615682-11.0083298,34.9978952-23.8377438,4.738658-7.2926743,8.047129-15.2385889,10.7567479-23.4693388,5.3184597-16.1553357,7.7349542-32.71582,6.8043438-49.703945-1.3084195-23.8825341-9.1398862-45.4485761-23.0156674-64.9429217-9.6473156-13.5537176-28.0066828-20.9107659-31.5097298-21.5674963-.492257-.0922952-1.3864632-.1773192-2.5331723-.2346158.8794216-.6681704,1.6904458-1.4199105,2.3728676-2.2947755.1324804-.1698541.2434382-.3329218.3212395-.510241,3.1302308.4896878,5.2931561,1.052378,5.3394975,1.3090012,2.1468318.4336515,4.1906556,1.1549497,6.1496008,2.1260848,3.0345909,1.5042559,5.7939445,3.4060014,8.2597375,5.7354845,7.1267466,6.7328926,13.4772736,14.1665303,19.6280863,21.7763238,3.87247,4.7910103,7.676882,9.6416441,10.8600468,14.9316494,3.5476434,5.8957407,5.6303921,12.3490332,6.7948913,19.0836709,2.3350577,13.5040799,2.8509701,27.1328358,2.496041,40.8062851-.1747985,6.73202-.5981249,13.4498856-1.7048912,20.1012443-1.5632491,9.3953944-4.2084457,18.4311093-9.2057143,26.6419846-1.8854096,3.0978984-4.1209495,5.9493533-6.394784,8.7661005ZM63.6087141,19.3113279c.0659736-.0565211.1162415-.0921982.0918104-.0710634-.0100342.007562-.0553092.0439178-.0832789.0649556-.002763.0021329-.0057684.0040718-.0085315.0061078Z"/>
  </g>
</svg>