<?xml version="1.0" encoding="UTF-8"?>
<svg id="Layer_2" xmlns="http://www.w3.org/2000/svg" viewBox="0 0 159.6509064 204.6163105">
  <g id="Layer_1-2" data-name="Layer_1">
    <path d="M159.4684281,94.5784834c.5851823-3.6256871-.2235152-6.9642122-2.6223651-9.798604-1.3321235-1.5740589-1.7131318-3.3168086-1.5121572-5.3114309.2418385-2.399674.4485816-4.8074916.5380652-7.2166665.1392668-3.7478424-1.0594553-7.0134621-3.9255494-9.5234637-.791586-.6931831-.8717141-1.1550467-.1747015-1.9730997,2.4140708-2.8328407,2.9718651-6.2514454,2.7928978-9.8210961-.1826513-3.6439134-1.7764393-6.7125334-4.1936125-9.3726115-3.281083-3.6109509-7.3962155-5.9320964-11.9121824-7.6273412-.8808273-.3307889-1.8345601-.4826106-2.7153874-1.0509238,2.9596496-7.5410569,2.4263833-14.3458854-4.4438371-19.6148528-2.6907624-2.0636498-5.8429036-2.9842746-9.2458511-3.0715284-4.4600275-.1143995-8.3084542,1.4259213-11.6381085,4.26264-.6850394-.3887642-.8952242-1.0218392-1.2255769-1.5482706-1.1815137-1.8833252-2.3717527-3.7594763-3.7401835-5.515217-1.5309652-1.9639866-3.2096318-3.7858463-5.3473019-5.1037668-3.9028149-2.4062665-7.9756294-3.0748246-12.3422953-1.2504442-2.3337489.974916-4.2882829,2.4384534-6.1063617,4.1433931-.6900323.6470356-1.2628536,1.4266969-2.1088279,1.9286972-1.3232527-1.0020617-2.5820344-2.0750897-3.9550703-2.9732224-4.1357341-2.7050623-8.6887354-3.8930716-13.5978293-3.1583944-6.4325455.9625066-10.7658126,4.7642525-13.5767914,10.4853886-.3029162.6165937-.4193516,1.3378919-1.0135985,1.8753754-1.5166653-.5813043-3.0289194-1.2331873-4.5879028-1.7419741-2.6057384-.8506278-5.2539888-1.45869-8.0416029-1.0992042-3.334017.4300644-6.1255575,2.0361164-8.7000784,4.0394641-4.7967788,3.7325245-6.0306932,8.6043901-3.7362086,14.2429259.5483903,1.3473929,1.2906779,2.5939591,1.9963674,3.8269526-.1338377.1601592-.1949638.2968569-.2978264.345719-.5142643.2445046-1.0421015.4601185-1.5603407.6964794-4.945692,2.2550265-9.6372814,4.9172375-13.2739722,9.0548137-4.6513557,5.2918473-5.5807544,11.2299545-2.6416094,17.6727766.4159099.9117055.4547378,1.5699871-.0893867,2.4382595-1.3931042,2.2230334-2.288086,4.6444239-2.7178111,7.2575789-.6153333,3.7418316.0966094,7.3370768,1.0596977,10.9028496.2837203,1.0503421.170145,1.7239416-.714124,2.450669-2.1213827,1.7433313-3.0981893,4.1110122-3.3526796,6.8162685-.1733927,1.8431885-.1157083,3.6836624.0323324,5.5183194.0371313.4595368,2.6931376,4.6428727,3.3592236,5.2433729.8403512.757751,1.7217603,1.4844783,2.4285647,2.4774268-1.4259213,1.362323-2.9993986,2.4101444-4.6667221,3.3201048-.0485228.02637-.8565417,1.5412903-1.4462805,2.1216251-.4108201.5669559-.3279774,2.547036-.4330213,3.539015-.0464869.4389837.0097918.88805.0087739,1.3326567-.0083861,3.5682935,1.1954258,6.6010424,4.0321445,8.8543238.729248.5793654.8244032,1.0697318.4575009,1.9164817-1.1861187,2.7370554-1.5135629,5.6005319-1.1326515,8.5722031.4106262,3.2031847,1.5217066,6.1451896,3.0830168,8.9392509.4948746.8855293,1.3391522,1.7049397,1.4686272,2.6321569.1494464,1.0707013-1.0325035,1.7929691-1.5787125,2.7017661-1.9902596,3.3111855-2.9945026,6.8389545-1.5648003,10.5435578,2.090747,5.4172989,6.0028205,9.012738,11.6826564,10.5427822,2.1799882.5871213,4.420424.5029698,6.631048.3596796,1.6743523-.1083886,1.8294218,1.2950406,2.5463573,2.1509036.6691399.7984694-.1227855,1.2775898-.494099,1.7916118-1.751475,2.4252684-2.9570805,5.0804991-2.9737556,8.0952156-.0327687,5.9326781,2.8732683,10.1798063,8.0439297,12.8007172,5.0435132,2.5567308,9.9465477,2.0060623,14.5091954-1.3563122.5837765-.4302583,1.1397288-.8981327,1.6887007-1.3328506.2072763.2212369.3187188.2991837.3748036.406215,4.0874052,7.7900211,10.6319265,11.8593454,19.2829004,12.7355676,2.2911884.2319013,4.5775778.0674763,6.8346887-.300347,2.4654052-.4019493,4.5053025-1.6919485,6.2055887-3.4810396.7057865-.742627,1.265859-.8364733,2.0802765-.1733443.7328351.5968161,1.5694054,1.078845,2.3988984,1.5424536,6.9702715,3.8944289,13.9156271,3.8445972,20.800002-.2142566,3.5544298-2.095449,6.4180517-4.957956,8.9007138-8.2214428,1.4042048-1.845903,1.4289752-1.8872032,3.1216993-.4170733,2.4474697,2.1255031,5.2320299,3.0453522,8.4527623,2.5716609,1.7673746-.2600164,3.4731868-.7414636,5.1026519-1.4786614,7.2014456-3.2578638,11.1466756-11.2388738,9.1590335-18.5470599-.5396164-1.9841519-1.5032864-3.7569556-2.7136423-5.4159416-.6057354-.8300747-.485519-1.0786511.5079627-1.1845191,1.4513704-.1543423,2.9090909-.2540056,4.3658419-.3519237,6.0921587-.4089296,10.413792-3.546577,12.9494849-8.9357607,2.4877518-5.2873876,1.8231686-10.3921239-1.9439182-14.9570499-.5901267-.7150935-.6838761-1.1835496-.071839-1.9413006,1.4107973-1.7468215,2.3506664-3.7604458,2.9646425-5.9204626,1.2677011-4.4592519,1.1759391-8.9101663-.1822635-13.3257913-.2659787-.8645884-.335297-1.517247.366563-2.2366063,2.4587157-2.5202781,3.3755595-5.655211,3.1449185-9.0786631-.1060134-1.5742528-.766234-4.6510164-1.1974133-5.0785602-1.3846212-1.3731812-2.8218855-2.6930407-4.4257561-4.2120328,1.1597487-.8942547,1.9502198-1.5110423,2.7485923-2.1175533,1.1258651-.8550874,3.6392599-5.0106961,3.8148825-6.0986543ZM151.4473298,66.0005304c.5339934.7209105.8862564,1.5315954,1.0796206,2.4078177.590369,2.675396.7911983,5.3858875.6011303,8.1138297-.2014109,2.8917855-1.7539957,4.9226667-4.3830018,6.4812138-.7816488-2.5291974-1.1813683-4.8961027-1.620158-7.2519559-.579123-3.1095323-1.1418132-6.221973-1.6810418-9.3386795-.2343735-1.3545671-.0358225-1.6128384,1.3120066-2.0275849,1.7326185-.5330239,3.5612647.0897745,4.691444,1.6153591ZM146.6715889,42.953888c4.6698729,4.2975415,5.5856987,10.3205758,2.4417982,15.7308944-.9452497,1.626799-1.9053326,2.446791-4.3275956,3.6111448-2.1781947-8.9316889-5.3505012-17.4309866-10.2921214-25.2964338,4.3838258,1.3751202,8.726497,2.7781616,12.1779188,5.9543946ZM127.5297003,15.575578c4.4435462,1.8654867,7.0188912,6.7970726,6.2640487,11.518086-.1844449,1.1538833-.6283245,2.1955-1.4891319,3.0145226-.9406447.8946425-1.5222398.9053069-2.4482937.0323809-.5068477-.4777631-.9615856-1.0102053-1.4511765-1.5067765-3.8680588-3.9233196-8.4355055-6.8818058-13.1941834-9.5808573-.9320647-.5285643-1.925401-.9679357-2.9978959-1.917839,5.0687683-2.698082,10.0707875-3.7619969,15.3166326-1.5595166ZM89.1961885,4.9532979c2.4848434-1.1641599,4.8874258-1.0619759,7.3474503-.0880294,1.925401.7622106,3.5167652,2.0000515,4.8971207,3.5147778,1.799707,1.9746509,3.2250951,4.2089304,4.5737968,6.6483533-.8018626.2780488-1.4160326-.1163384-2.0128002-.2989898-4.0567694-1.241331-8.1203738-2.4485361-12.3278499-3.0804477-2.129381-.3197368-4.2631247-.5942955-6.4228992-.6334627-.8760768-.0158996-1.7501177-.1429024-2.9703139-.2497398,2.1001025-2.6226559,4.1996718-4.5401071,6.9154954-5.8124617ZM50.860059,12.2271642c.3263778-.5396164.6617718-1.1135526,1.1238292-1.5257785,5.1175335-4.564926,10.8755101-6.9659572,17.8037543-4.9474855,2.8279933.82387,4.9129718,2.7180535,6.808658,5.2495776-1.1694436.1126544-2.0891473.2264721-3.0123897.2861925-6.2291472.4017554-12.3278984,1.477498-18.2664419,3.4346982-1.2002733.3955507-2.4365145.7073376-3.6777485.9454436-1.0308554.1979692-1.2206809-.0201653-1.3007606-1.0625576-.0650041-.8455865.0838121-1.6568531.5210992-2.3800903ZM27.199489,18.251168c4.5345326-3.782744,9.6324825-4.9259629,15.2909412-2.9164105,1.3692548.4862946,2.6805828,1.1154916,4.0888595,1.9692218-3.0540291,2.4636601-6.7128242,3.7484241-9.5944786,6.2188706-2.8940153,2.4811109-5.4795884,5.2732331-8.2282292,8.1318622-2.0350499-1.7712526-3.6649998-3.6892854-4.207767-6.2782032-.6039419-2.8807334.4541561-5.2930107,2.6506741-7.1253409ZM9.7685994,48.4689111c.9526663-2.0456173,2.369426-3.7462913,4.0728144-5.2067263,3.25544-2.7911528,7.0357603-4.7309021,10.8419174-6.6239223.0872538-.0432391.2313196.0275334.616933.0851209-.9013804,1.5538936-1.7368842,2.9672116-2.5467451,4.3950719-2.7725386,4.887959-4.7993964,10.0603655-5.880956,15.5858591-.1839117.9394328-.402531,1.8687829-.861583,2.7071952-.5561946,1.0158284-1.2068658,2.0058684-2.5437397,2.0041233-1.4120092-.001939-2.5937168-.502582-3.319717-1.8164306-2.0159026-3.6479853-2.1338891-7.3622835-.378924-11.1302912ZM8.2729234,65.1006527c.3494031-.6811615.7606109-.886111,1.511624-.6947343,1.2266918.3125626,2.470495.5853762,3.7231205.7596899.8645884.1202164,1.0084603.4983163.8702599,1.2789471-.8064677,4.5563945-1.5675149,9.1209327-2.3668568,13.6784906-.2157593,1.230085-.2599194,2.5018579-.7897925,3.7885609-2.3638029-.725564-4.1171685-1.9527405-4.7702148-4.442189-1.3223801-5.0405563-.5251226-9.7947261,1.8218598-14.3687653ZM2.9989632,92.4551132c-.0049929-2.6335142.9202854-4.954078,2.3484851-7.1191362.397635-.6026331.8796639-.8744772,1.5901039-.7546486.3122717.0527401.6340444.0554547.9426806.1219615,3.2418672.6980306,3.3931072,1.0142772,3.0019677,4.2800907-.369326,3.0839378-.5632719,6.1886226-.8338072,9.2843882-.0221043.2528422-.0239948.5083989-.063259.7585265-.2113966,1.3446783-.6449996,1.5717322-1.9554551,1.035412-3.1426402-1.2865091-5.0281468-4.1364128-5.030716-7.6065942ZM5.0578625,120.0343008c-1.3498651-1.649485-2.3119354-3.4878261-2.5780596-5.6183705-.232483-1.8604454.4146011-3.4986843,1.5608739-4.9321676,1.3235435-1.6549141,3.0267381-2.8312895,5.0153981-3.8824072.5935684,1.4187471.6781076,2.6920712.858723,3.9351473.3728647,2.565844.6836337,5.1409951,1.0138409,7.7130438.0633075.4934688.3139683,1.0897033-.1072737,1.4534548-1.2473903,1.0772938-2.5427218,2.1068889-4.3301163,2.1177472-.6408793.0038779-1.0570316-.3265232-1.4333864-.7864478ZM7.3795413,137.2419176c-.8154354-2.2757735-1.3571362-4.6128186-1.336777-7.053405.0420757-1.1977041.0887565-2.3878462.4333606-3.5632521.523426-1.7854071,1.6586951-2.9373514,3.3558304-3.6047462,1.3021178-.5118891,1.6953417-.3674355,2.030251.9931424.4684076,1.902715.8650732,3.8238502,1.2609631,5.7436282.587606,2.849322,1.1193696,5.7104717,1.7341212,8.5539768.2307379,1.0672112.0146393,1.819533-.9679357,2.3767941-.7680275.4354935-1.4617439.9999288-2.2074247,1.4773041-1.1029368.7061743-1.1450125.6993878-1.9564246-.3864375-1.031728-1.3807432-1.7682471-2.9247481-2.3459644-4.5370048ZM10.1382647,159.5108377c-.4065543-.6381163-.6853303-1.3565061-1.0472882-2.0246764-1.810953-3.3433725-.9849502-6.3511086,1.1676985-9.1843371,1.1329909-1.4912647,2.6495107-2.5268706,4.2070399-3.5215642.7234796-.4620575,1.1890272-.2980203,1.4890834.4393715.1902618.4676805.3213849.9621188.4469819,1.4526792,1.5724593,6.142669,3.2323663,12.2576106,5.6631123,18.1325073.0914711.221043.0903077.4802838.1486223.8157263-5.3129821.3558017-9.2810435-1.7237477-12.0752501-6.1097064ZM44.1274088,187.9073027c-2.1039805,3.1415253-2.9510696,3.5642216-6.703808,3.5039195-5.2702277-.0845393-8.6231981-2.8599863-10.6197594-7.5301986-1.3874812-3.2454543-.9104451-5.6953477,1.5969388-8.493093.8898435.3748036,1.5425506,1.0840802,2.2289473,1.7196759,3.8910841,3.603195,8.2017622,6.5806831,12.9778424,8.8921338,1.3514163.6542098,1.3309116.6964794.5198389,1.9075624ZM75.2501679,197.2221328c-.4125167.5374835-.9441348.8118483-1.5425506,1.0423923-2.3481457.9045313-4.7802006,1.2700278-7.2776957,1.0216453-5.6689777-.5636597-10.4652717-2.8514549-14.1153414-7.3200139-.5590546-.6844577-1.1083174-1.3855907-1.5105575-2.5586698,2.2331161.6303604,4.2318588,1.1965407,6.2315224,1.7592309,5.1269375,1.4425965,10.2753977,2.775641,15.6230389,3.1134102.5054905.0319931,1.0106901.096367,1.5110423.1766405,2.2450408.3594857,2.4650174.9613432,1.0805416,2.7653644ZM107.0626685,193.9270408c-5.6486669,5.2996032-12.1601287,6.7530579-19.508597,4.1517307-1.0387083-.3678233-1.9197295-.9857743-2.5680254-1.8858459-.6460661-.8969693-.505442-1.3615474.6118917-1.575804,1.8040212-.3461068,3.6246691-.6375346,5.4512309-.8283296,5.8417887-.6100012,11.4445019-2.1631192,16.9489092-4.1426175.6392312-.2297684,1.2505411-.6169815,2.3180916-.5153792-.8047711,1.9221047-1.8729033,3.5010111-3.2535011,4.7962456ZM135.1048831,182.0147614c-1.3467627,5.2045934-6.4537773,9.4695602-11.794923,9.9236679-1.3666372.1161445-2.6486382-.2702929-3.8159974-.9506788-1.5431808-.8994899-2.7874202-2.1404332-4.0160995-3.7113897,7.3462385-3.2084199,13.3026205-8.0201773,18.3178247-14.5995031,1.7668899,3.2287792,2.1139177,6.2281777,1.3091951,9.3379039ZM134.2521224,162.1790595c-1.8862822,4.782285-4.9070579,8.7048289-8.7805943,12.0241582-4.7826243,4.0984089-10.2382664,7.0276166-16.0945004,9.2459965-9.8933229,3.7474546-20.1313469,5.7620484-30.7166896,5.5633036-7.732579-.145423-15.206305-1.9616598-22.5347049-4.3403928-6.4821348-2.1039805-12.692377-4.8065221-18.3499147-8.6683762-1.6288349-1.1118076-3.1629025-2.3424742-4.6151454-3.6743553-2.9044373-2.66415-5.0035703-5.8558947-6.4686589-9.5211369-4.1580323-10.4016249-7.1344056-21.1460604-9.4818727-32.0793519-1.6543324-7.7049001-2.8186862-15.4807667-3.2877724-23.3506736-.2952572-4.9542719-.0506557-9.9077683.3360726-14.8442016.8047226-10.2709381,2.4821773-20.4011066,5.2548613-30.335051,1.6917062-6.0612321,3.8835706-11.9310874,6.5251315-17.6506723,5.7682047-12.4898997,15.4631706-20.3142406,28.4553614-24.3279163,6.220131-1.9217169,12.6191323-2.8250848,19.0744123-3.397276,3.1603334-.2801817,6.3305555-.4486785,9.2926288-.6534342,15.640829.2586591,29.3659519,5.0430769,40.9415285,15.4169745,4.560127,4.0867751,7.70713,9.241343,10.3414198,14.7119636,3.9059173,8.111503,6.4466516,16.6761441,8.2258055,25.4707475,2.13132,10.5350263,3.6348972,21.1497444,3.1853946,31.9389702-.3015104,7.2348929-1.1672137,14.4222809-2.275822,21.5751553-1.4777404,9.5350975-3.3179235,18.9967079-6.0410667,28.2673294-.8586261,2.923003-1.8670379,5.7917147-2.9858742,8.6282395ZM149.0640886,160.1764874c-1.9939437,2.5270645-4.3641937,4.6227074-7.6117809,5.4229219-.9749645.2402389-2.1873079.7585265-2.9146169.0469232-.7816488-.7647313-.0722752-1.9160939.2866773-2.8235336,2.1781462-5.50591,3.6064912-11.2264643,4.9439469-16.9753277.1830391-.7866417.3875524-1.568242.5883816-2.3771819,5.8544405,2.7866931,10.1277448,9.8360262,4.7073921,16.7061982ZM151.8220365,137.9637975c-.3108175.9630883-.7360829,1.8889483-1.1004161,2.8351675-.3277835.8515973-.8518397,1.1891726-1.7728522.8211554-1.2289216-.4911421-2.9147139-.4215329-3.6284501-1.4456989-.6825672-.9793757.1772707-2.4246867.3794572-3.6565168.6886265-4.1957454,1.4845268-8.37404,2.1478982-12.5734694.1569599-.9933363.5703976-1.2459846,1.4785645-1.2250436,4.04722.0936524,3.3298482-.5908053,3.6271898,3.3621806.0617563.8207676.0089678,1.6500667.0089678,2.4754878.059478,3.1867034-.1537606,6.3497514-1.140359,9.4067374ZM155.6447233,114.7354732c-.2059675.8686603-.4768421,1.7117261-.8772402,2.503603-.4232295.8368611-.6368075,1.9302484-1.5500156,2.3139713-1.2938287.5436883-2.7185382.5603634-4.1207556.4007859-.7417544-.0843454-.6588148-.5871213-.5814982-1.1279011.4567253-3.1977556.8816514-6.3997769,1.1206784-9.6227391.1121696-1.5122057.2053373-3.0259625.3170222-4.6857241,4.4859128,1.6998983,6.7286753,5.846006,5.6918091,10.2180041ZM151.5958067,99.5418685c-1.2558248.2260843-1.6044523-.0599143-1.777021-1.2882542-.5824193-4.1439748-.6361288-8.3339032-1.0630424-12.4912569-.0811945-.7903257.1805185-1.1042456,1.007006-1.1982858,2.5486356-.2896827,4.4511567.6466478,5.7619999,2.8198496.8390424,1.3910198,1.2081746,2.9136959,1.1801564,4.5350658.0326717,1.7464337-.3527963,3.4017356-1.1783144,4.9343005-.8390909,1.5577715-2.2416476,2.3843561-3.9307846,2.6885811Z"/>
  </g>
</svg>