<?xml version="1.0" encoding="UTF-8"?>
<svg id="Layer_2" xmlns="http://www.w3.org/2000/svg" viewBox="0 0 142.2704366 60.8249859">
  <g id="Layer_1-2" data-name="Layer_1">
    <path d="M90.1013593,25.2657865c1.1640865,1.4740838,2.4514432,2.5490101,4.2789263,3.092012,1.9532995.5803824,2.8137761,2.1370194,2.622681,3.9311827-.1661455,1.5597393-1.3748048,2.8523493-3.0144852,3.1455842-1.5902641.2843964-2.8067376-.3676594-3.7095188-1.6483434-.7393283-1.0488061-1.0904668-2.2426273-.9609776-3.5100536.1215434-1.1896654.3425927-2.3322191-.6419736-3.3178317-.3052049-.3055268-.1613165-.8078044.1843053-1.3445725-7.7045316,2.206454-15.315718,3.6644047-23.1103317,4.4940784.1556535.4518589.6406127.712491.6532558,1.2304628.0128626.5263566.3836389.7522348.8676177.8239814.0786681.0116627.1558291.0351636.2327705.0564696,2.350635.6514852,3.7295224,2.3403479,3.4343852,4.2058773-.2985029,1.8868354-2.2332474,3.2784098-4.4538956,3.2034878-2.0525126-.0692297-3.856685-1.8093233-4.0341566-3.8880879-.1616238-1.893274.4934758-3.5256672,1.5912592-5.019996.0863652-.1175778.1388106-.2601053.1713988-.6277794-7.7735272,1.7858809-15.493153.5705928-23.3140406-.2356971.3384808,1.2546368.7118545,2.1724611,1.6742588,2.868358,1.2386866.8956549,1.5557444,2.942885.8849288,4.4896885-.6476659,1.4934216-2.3263512,2.4911577-3.968695,2.3587711-1.690487-.1362498-3.1679949-1.3594838-3.5463512-2.936022-.387385-1.6142041.235741-3.3503321,1.8063454-4.0372442,1.2884542-.5635249,1.2601243-1.6716687,1.7748914-2.9785534-1.9321033,0-3.7503455.0372342-5.5664952-.0084873-2.9292541-.0737294-5.7815229-.6011396-8.5847412-1.4715815-1.212281-.3764247-2.4903383-.5454749-3.7427728-.7866375-.9296918-.1789934-1.3026703.2211517-1.0348314,1.1298887.1804348.6122096.4713357,1.1633695-.1410495,1.7532049-.268095.2582176.7548249,2.2747911,1.2391549,2.5040789,10.776101,5.1012689,21.7311589,9.7176809,33.653911,11.3828232,8.6634459,1.2099324,17.3656113,2.058761,26.1254461,2.2710743,4.1567829.1007643,8.1842375-.7000528,12.2449095-1.3187888,7.6537398-1.1662522,15.2914854-2.4125042,22.9096665-3.8119952,7.8515661-1.4423809,14.5881109-4.9829886,20.7562139-9.8501846,1.1904409-.9393789,2.3940079-1.8679878,3.7965425-2.4886262.3362126-.1487685.7733505-.3400831,1.0030627-.0476604.2713583.3454462-.1549803.6472854-.3796001.8928966-1.2800401,1.3997178-2.884557,2.3906642-4.4265754,3.4584056-1.2094495.8374879-2.426318,1.664235-3.8125805,2.6140913,1.9572504.601381,3.0061736,2.2861611,4.939806,2.6873306,1.3513477.2803577,2.4089191,1.3838188,3.0374594,2.7184261.8169721,1.7346939.2040748,4.0406538-1.323091,5.0330196-1.4685597.9542902-3.5463.5573644-4.8535286-.9472662-1.205718-1.3877844-1.4650331-3.0830711-1.4157192-4.8258572.0395828-1.398774-.8720076-2.3301046-1.4690573-3.4208934-.2095037-.3827902-.498451-.2655635-.7959588-.0624545-4.4428329,3.0330402-9.4744184,4.5085946-14.6692228,5.5691219-.5873039.1199045-1.728387.174662-1.6109116.6192775.1947095.7370163.6699376,1.6300811,1.5766553,1.9511484.8337418.2952397,1.6306957.6517193,2.3514691,1.1652425,1.9500509,1.3894087,3.1002066,3.9971931,2.6106233,5.9056564-.6452953,2.5154489-3.1801478,3.3841055-5.227012,1.7879296-1.7671943-1.3780972-2.6186715-3.2961453-2.5942048-5.4315404.017633-1.5391796-1.0557276-2.8728797-.59484-4.427629.0640496-.2160886.0766634-.447425.1312014-.7831255-7.6358872,1.1911141-15.2207924,2.3742823-22.8056975,3.5574359-.0266032.1023593-.053221.2047186-.0798242.3070779,1.188524.061401,1.4447222.9881368,1.8310244,1.7764132.2224833.4539661.5892794.7449914.9650749,1.0423236.7830085.6195555,1.5977856,1.2038742,2.3401576,1.868939,1.8285952,1.6381733,2.3982076,4.0461851,1.5557883,6.3504182-.9924682,2.71468-4.3427125,3.415084-6.3261417,1.3089846-1.3609325-1.4451027-1.6591719-3.232681-1.5235221-5.1228089.0540843-.7535372.1586386-1.5161762.3545188-2.2439004.3152872-1.1713739.2553056-2.1914111-.4001012-3.2980476-.8839044-1.4924704-.7777405-1.5446671-2.6648101-1.2636509-3.8985653.5805287-7.8130076.3132678-11.7219918.1744132-1.9123118-.0679127-3.82098-.2388725-5.6781978-.3597575.5251713,1.7787838,1.6448899,3.1261513,2.792397,4.5089311,1.0797114,1.3010973,1.6798633,2.9184914,1.2257801,4.6965143-.5978983,2.3410649-3.0358936,3.1250538-4.8626158,1.5390333-1.9959699-1.7329965-2.3859742-4.0053438-1.8420871-6.4486363.3334616-1.4980018.4320163-3.0919974,1.5715629-4.4935663-7.267423-.7514593-14.3914405-1.1665742-21.4219811-3.3817349.7608465,1.9212674,1.2948489,3.5207651,2.6441333,4.7854695,1.2818985,1.2015329,1.607985,2.898839,1.3617812,4.6588776-.2320827,1.6590988-1.149585,2.7804856-2.5609508,3.1285804-1.0293147.2538716-2.6533083-.5586374-3.4256638-1.7804812-1.1220892-1.7751255-1.1422538-3.7165428-.6463562-5.6666376.3122434-1.2278727.8569354-2.3937737.6288988-3.7180207-.0959426-.5571156.4928831-.8858653.6358862-1.507645-2.6518231-.6313938-5.2636097-1.4086075-7.8428081-2.2905218-3.6264095-1.2399744-7.1490184-2.7407418-10.6664471-4.2546791-.3464193-.1490978-.7099009-.5217618-1.0942422-.1851979-.3616378.3166773-.32455.7961344-.2492767,1.2362722.2097305,1.226424.9743084,2.1688906,1.6427901,3.1585785,1.2362063,1.8302195,1.3275614,3.7336051.2716948,5.6522824-1.0317657,1.8748655-2.8964977,2.1595399-4.5163721.766151-1.1041196-.9497246-1.5811769-2.1887478-1.6511968-3.5948384-.0769926-1.5461889.2387628-3.0300989,1.0060186-4.377642.3430025-.6024054.5884307-1.1311325.4690968-1.8774409-.1431786-.89545.4852519-1.556198,1.1343226-2.1668419-.2797577-.1531804-.4850543-.2749873-.698348-.3806537-.7149567-.3541969-1.415529-.9392033-2.1538696-.992995-.9101198-.0662592-.8959256,1.1082169-1.4070271,1.6557185-1.2645508,1.3545963-2.9209059,1.6987401-4.4218196.7855985-1.4959531-.9101272-2.1772168-2.9514893-1.2032157-4.6269919.7842669-1.3491381.2792163-1.7688917-.8200085-2.3649463-2.3496765-1.2741136-4.6375205-2.6632955-6.9364051-4.0293862-.6582164-.3911238-.8567818-.3185357-1.0867866.4887492-.3389271,1.1895483-.0969377,1.9420392.7754285,2.8553784,1.7633311,1.8461697,1.9806197,4.8437829.740338,6.781059-.8215816,1.2832594-1.9892094,1.9986478-3.5238966,1.793417-1.5562931-.2081282-2.3233514-1.3167548-2.5883735-2.7673303-.3918847-2.1449945-.2960518-4.2381582,1.1339421-6.0319557.58696-.7362919.7367236-1.6385464,1.0171691-2.4584013.3081169-.9007619.6279842-1.501843,2.0874128-1.356923-1.2545417-1.1982185-2.1863919-2.1193718-3.152813-3.0026982-1.0105768-.9236995-1.6446046-2.0415889-1.870256-3.4513085.6503365-.1023666,1.1850705.288384,1.7269456.5578911,2.9271908,1.4558508,5.7926295,3.0276112,8.9575661,3.968695,4.3336106,1.2885932,8.7463723,2.1712904,13.2088796,2.843006,2.3736531.3573064,4.5896845,1.3526867,6.9688031,1.7064592,3.2865532.48872,6.6121552.4725064,9.9076639.8290153,5.1190702.5538012,10.211603,1.3950717,15.3879256,1.3061457,2.4461021-.0420266,4.8434902-.5971228,7.2679059-.6934532,6.8979491-.2741166,13.6545852-1.4478903,20.3149641-3.1310607,10.5187468-2.6582397,20.9386608-5.6296302,31.0975916-9.5208789,7.5774568-2.9024534,13.994822-7.2548604,19.1666083-13.471275.6869561-.8256935,1.2571245-1.7493125,1.8698024-2.6355875.2042357-.2954592.3509337-.6825954.817616-.4525174.4033352.1988434.5694514.5250396.448186.987632-.2271952.8666885-.6773713,1.618338-1.1967625,2.3293583-1.2312969,1.6856141-2.6945301,3.1564567-4.2418019,4.5502919-.5864698.5282955-1.2283556,1.0158009-1.6851166,1.9212966,1.0940227-.42369,1.8106842-.2335899,2.2526657.812531.1593996.3772734.7711409.3319251,1.2056741.3955503,1.367254.200175,2.6476892.6350374,3.7015437,1.5589564,1.2320724,1.0801358,1.8257271,2.4100898,1.3770875,4.0645791-.4571561,1.6858702-1.5292876,2.8490788-3.2409488,3.1726264-1.703335.3219745-3.0111342-.5239714-4.0008222-1.8720047-.9219215-1.255727-1.1445658-2.7026003-1.0515571-4.2116867.0541721-.8790535.2050991-1.7603972-.6793468-2.3657877-.324389-.2220443-.1629554-.6508998-.3641474-.9909903-.5130696.3506849-1.0154277.6722497-1.4947678,1.0251003-4.0578185,2.9871065-8.553331,5.1016493-13.3029931,6.721714-.5437262.1854686-1.5263463.2938934-1.4259039.8438826.1231238.674174.5331757,1.4886365,1.3398753,1.841809,1.1157969.4884931,2.0655947,1.2030474,2.8640119,2.1222545.5073041.5840626.8833191,1.2303311.9918244,2.0105007.1802226,1.2960708-.1765497,2.4064827-1.2883956,3.1334459-1.071312.7004625-2.2219506.6141924-3.279083-.0611376-1.7473078-1.1162652-2.2886926-2.8912151-2.476305-4.820538-.0460946-.4739331.0210133-.9577729.0110773-1.436535-.0321199-1.5471986-.6680353-2.0073765-2.124069-1.5685558-6.0306094,1.817496-12.0178314,3.7984741-18.2501596,4.859177-.2196884.0373879-.433582.1089735-.6806784.1724524ZM97.0244775,56.1697953c-.0171501-2.237813-1.6089361-4.4995951-3.6200807-5.1437783-1.39554-.4470007-2.3039843-.1199338-2.6687025,1.1519702-.5995958,2.0910565-.5718073,4.1859908.5440335,6.1300713.9339939,1.6273008,2.8768453,2.2495781,4.1747671,1.3071847,1.1336055-.8230742,1.6079996-2.0406305,1.5699825-3.4454479ZM131.0564082,14.7508737c.0615326,1.0473281.5067042,2.2543192,1.4291818,3.2728053,1.5846157,1.749532,3.6683117,1.5071329,4.777831-.5580155,1.1317764-2.1065604-.1211337-4.5028291-2.8444766-5.4402252-2.0541369-.7070548-3.3746964.2399115-3.3625362,2.7254354ZM121.2413871,51.2418422c.0067605-2.2233993-1.8625297-4.5737563-4.0238402-5.0594032-1.1625793-.2612321-2.22716.56831-2.2592506,1.7528391-.0519772,1.9187797.5520232,3.6030622,1.8251564,5.0348341.7444207.8371806,1.6491335,1.5666169,2.8051718,1.0824186,1.1546042-.483613,1.6684787-1.5388723,1.6527626-2.8106885ZM134.664914,41.3189744c.0163014,1.4029883.7684923,2.9692101,1.8550082,3.8624944,1.1203479.9211167,2.5365939,1.1181382,3.3982412.4727112,1.2930197-.9685576,1.6736003-2.4520871.9705916-3.9159934-.6138339-1.2782256-1.6426657-2.1200888-2.9362561-2.6546546-2.0886274-.8631107-3.3138954-.0280665-3.2875849,2.2354424ZM6.8435501,33.1913089c-.0532429-1.3422898-.419439-2.6609908-1.3497966-3.7821727-.6071539-.7316752-1.1982917-.8602938-2.1520038-.3877289-2.0431327,1.0123767-2.4775708,5.6399246-1.1928188,7.1076796.9496149,1.084877,2.4844411,1.1504045,3.5929653.0836142.8305005-.7992367,1.083238-1.8236346,1.1016539-3.0213921ZM20.1587546,27.0873139c-6.2787594-1.1891313-12.0587897-3.1081744-17.5253108-5.9430736,4.1298212,3.3972608,8.6968608,6.0723872,13.3647891,8.5871776.38868.2093866,2.5764986-.4542807,2.5479273-.7739651-.093038-1.0410724.6958896-1.326142,1.6125944-1.8701389ZM44.8997015,50.6573772c-.0069288,1.9534897.432287,3.3412595,1.2298262,4.1838836,1.351355,1.4277477,3.0008471,1.1509313,3.7813825-.6345838.8540966-1.9537824-.0147649-4.8843315-1.8029579-6.0810647-1.4305061-.9573778-2.6671514-.4952464-3.0436127,1.1672766-.1220922.5391899-.1349328,1.1031099-.1646383,1.3644883ZM66.8700695,38.9067629c1.8312146.0423339,3.3052032-1.2203805,3.3348501-2.8568417.0325882-1.7989923-1.8168009-3.4599641-3.8611921-3.4678221-1.5092108-.0057801-2.7851536,1.4495512-2.8489105,3.2494214-.0503968,1.4226993,1.721407,3.0370058,3.3752524,3.0752423ZM67.2763459,53.9800086c.0553721,1.347865.6780444,2.7937286,2.0881299,3.8503635.6641283.4976462,1.3494747.8435168,2.1936207.4006427.8316785-.4363477,1.1889776-1.1525117,1.2096104-2.0464106.0456556-1.9781174-.7028185-3.6475326-2.070731-5.0441701-.3961795-.4045058-.8226206-.6198628-1.4887389-.3967502-1.5918006.5331903-1.9315984.9531488-1.9318911,3.2363247ZM27.5138232,44.3757058c-.0412876-1.3185547-.636552-2.768501-1.7797496-3.9665805-.7738773-.8110164-1.9656865-.6801955-2.5107004.2698949-.8479287,1.4781591-1.0818698,3.0820029-.6746056,4.7331558.359216,1.4563556,1.772872,2.6573617,2.8333042,2.5200876,1.2087032-.1564729,2.1508917-1.5730701,2.1317515-3.5565579ZM90.0026729,30.6138006c-.0681761,2.1824994,1.5196443,4.0817877,3.4541547,4.131687,1.4510291.0374318,2.8101471-1.223951,2.8511494-2.6461234.0533527-1.8510133-1.9601478-3.6008892-4.2671905-3.7084506-1.2890541-.0600986-1.9907019.7051451-2.0381135,2.2228871ZM43.0570218,35.4163178c.0171574-1.5663974-1.0560642-2.8017184-2.4708395-2.8440376-2.0212854-.0604644-3.8933851,1.5027136-3.9104621,3.2651814-.0126797,1.3085895,1.7476516,3.036918,3.083993,3.0279332,1.7842127-.0119992,3.2767636-1.5732311,3.2973086-3.449077ZM112.1206534,23.2247902c.0920136,1.604334.5278931,2.9802728,1.7926561,3.9604565.8381318.6495609,1.7438251,1.0081916,2.740932.3224647,1.0147692-.6978505,1.1164554-1.6853946.785101-2.7639501-.4224315-1.3749438-1.4682963-2.2544802-2.5741866-3.0498391-.4536588-.3262621-.9620165-.8789511-1.59761-.3884239-.6375104.4920124-1.4871585.9155268-1.1468925,1.9192919ZM16.9926912,36.5528793c1.2561879-.0110334,2.5084469-1.0083745,2.7870339-2.21579.0730124-.3164285.1587484-.6266233-.2015213-.8415559-1.0582445-.6313938-2.1113308-1.2715236-3.1742799-1.8948544-.1186168-.0695663-.3058707-.1085931-.4300627-.0674737-.6098903.201909-1.344236,1.9079804-1.1913482,2.7191871.2544349,1.3499722,1.1763711,2.3095742,2.2101782,2.300487ZM19.4891535,31.5207084c-.3035586-.9869369-.5508892-1.1427074-1.5768382-.9930975q.605054.6858878,1.5768382.9930975Z"/>
  </g>
</svg>