<?xml version="1.0" encoding="UTF-8"?>
<svg id="Layer_2" xmlns="http://www.w3.org/2000/svg" viewBox="0 0 213.4366369 61.4803013">
  <g id="Layer_1-2" data-name="Layer_1">
    <path d="M211.4805822,12.1916325c-1.4882812.8675537-2.8103027,1.9703369-4.1872559,2.9952393-.3154297.2348022-.6135254.6261597-1.0234375.5646362-1.4858398-.2229004-3.1047363-.147522-4.1374512-1.5740356,1.2177734-.736145,2.4243164-1.4378052,3.6010742-2.1865845.7741699-.4924927,1.5202637-1.0358276,2.121582-1.7435913.1765137-.2076416.4064941-.4454346.1672363-.7327881-.2099609-.2520752-.4606934-.0455322-.6464844.0557251-.7353516.4004517-1.4819336.7910767-2.1713867,1.2625122-4.0681152,2.781189-8.307373,5.2236938-13.0102539,6.7908325-3.6550293,1.2178955-7.4736328,1.6185913-11.2243652,2.371521-6.4416504,1.2931519-12.9147949,1.5227661-19.4348145,1.197937-3.2287598-.1608276-6.4763184-.2449951-9.6479492-.9255981-2.2609863-.4851074-4.4941406-1.0755615-6.791748-1.4075928-4.541748-.656189-9.1311035-1.1389771-13.590332-2.1711426-7.6506348-1.7709961-15.2634277-3.7522583-22.5703125-6.71521-.501709-.2034302-.96875-.28479-1.501709-.0952148-5.1181641,1.8203125-10.3449707,3.2149658-15.6801758,4.2687988-2.8876953.5703125-5.6787109,1.5691528-8.6660156,1.7198486-6.6408691.3348999-13.2504883.1914673-19.8366699-.8158569-5.4821777-.838501-11.0996094-1.0666504-16.4206543-2.6217651-8.6049805-2.5148315-17.1418457-5.3046875-25.237793-9.2507935-.9272461-.4520264-1.7802734-1.1324463-2.8510742-1.1842041-1.3371582-.0646973-2.4414062-.6483154-3.5419922-1.3212891-.5385742-.3292236-1.0629883-.8059692-2.0144043-.6383057,1.7580566,1.5588989,3.7236328,2.4570312,5.5368652,3.6123047-.1855469.2025757-.5273438.4070435-.5166016.5908203.0678711,1.152832-.6291504,1.8751221-1.3188477,2.637207-.8986816.992981-1.5344238,2.1352539-1.7739258,3.4736938-.279541,1.5609131.3457031,2.7855225,1.7519531,3.4188843,1.2368164.5571899,2.7446289.1828613,3.6306152-.9551392,1.0725098-1.3776245,1.2580566-2.9126587.604248-4.5167847-.4394531-1.0787964-1.3439941-2.0368042-.734375-3.34552.0317383-.0682373-.0576172-.1928711-.1992188-.6167603,4.3330078,2.7786255,8.9592285,4.1553955,13.5083008,5.7237549.074707.0257568.1401367.0786133.2148438.104187.6083984.208252.7060547.4488525.5524902,1.1890259-.2487793,1.1983643-.8342285,2.0409546-1.6171875,2.9108887-.9465332,1.0518188-1.440918,2.3752441-1.6152344,3.8016357-.239502,1.9595947.6311035,3.5691528,2.2182617,4.0595093,1.1071777.342041,3.1953125-.6981812,3.934082-2.0076904,1.0480957-1.8572388.9108887-3.8108521-.2453613-5.4467163-.9199219-1.3012085-.6625977-2.5105591-.6118164-3.911499.7216797.3087769,1.3369141.5883179,1.9643555.8374023,3.0424805,1.208313,6.1105957,2.3502808,9.3552246,2.8878784,1.5715332.260376,3.1740723.3267212,4.715332.7843628.5563965.1652222.7248535.4338379.824707,1.0661621.2019043,1.2807007-.2617188,2.2405396-.9501953,3.208374-1.0441895,1.4675903-1.7365723,3.0466919-1.4621582,4.920166.2783203,1.9025269,1.9233398,3.0872803,3.8068848,2.7089233,2.6174316-.5257568,4.0700684-3.3552246,3.0031738-5.8553467-.4428711-1.0375977-1.1503906-1.9125977-1.7573242-2.8498535-.1879883-.2905273-.5910645-.6013184-.3835449-.9437256.395752-.6532593-.0422363-1.1259766-.3010254-1.7532349.5710449.0317993,1.0493164.0167236,1.5136719.0905762,5.7636719.9170532,11.5517578,1.5401001,17.3964844,1.5605469,1.2290039.0042725,1.7265625.7659912,1.2910156,1.921936-.1245117.3305664-.3620605.6185303-.5478516.9260254-.4946289.8186035-1.0283203,1.6124878-1.2919922,2.5536499-.4008789,1.430481-.1625977,2.7086792.9213867,3.7409668.9880371.9408569,2.1804199.9412842,3.3520508.4262695,1.3747559-.604126,2.25-1.6244507,2.2988281-3.2122803.0471191-1.5309448-.4348145-2.8244019-1.666748-3.7886963-.8071289-.631897-.7993164-1.6248779-.6787109-2.4004517.0839844-.5397949,1.0500488-.2562866,1.621582-.3411865.1564941-.0232544.3190918-.0020142.4787598-.0067749,3.0285645-.0906982,6.059082-.0134277,9.0222168-.9229736,2.2077637-.6777344,4.4841309-1.135437,6.7375488-1.6593018.3537598-.0822754,1.1152344-.1646729,1.048584.0988159-.2275391.899353.671875,1.6362305.0456543,2.6571655-.8251953,1.3455811-1.2495117,2.9445801-.9150391,4.5995483.2739258,1.3536377,1.0061035,2.3486938,2.3803711,2.730896,1.3413086.3731689,2.3137207-.2992554,3.1430664-1.2491455.6171875-.7070923.9807129-1.5324707,1.130127-2.4689941.3442383-2.1554565-.3525391-3.5111084-2.3239746-4.3740234-.434082-.1900024-.777832-.4317627-.8210449-.9260864-.0629883-.7225952-.5178223-1.2332764-.9370117-1.7910767.1706543-.0768433.3093262-.1646118.4609375-.2039795,3.0085449-.7822266,6.0568848-1.4381104,8.888916-2.7817383.1984863-.0942383.3557129-.111145.5458984.0029297,1.8662109,1.1184692,3.949707,1.6984253,5.980957,2.4083862.2077637.0725098.6345215.2208862.4460449.387085-.9094238.8018799-.4523926,2.2460327-1.5390625,2.9790649-1.0324707.6964111-1.869873,1.6221924-2.2739258,2.8579712-.4887695,1.4949341-.1694336,3.0280151.8154297,3.871582,1.0100098.8651123,2.526123.9517822,3.8164062.2181396,2.0981445-1.1929321,2.7272949-3.6398926,1.4321289-5.6594849-.2780762-.4335938-.6352539-.8184814-.9731445-1.2111206-.2062988-.2399902-.5219727-.4537354-.1923828-.7921143.6479492-.6652832.4355469-1.3545532.0324707-2.0597534.3881836-.1581421.6809082-.0264282.9763184.0872192,5.2404785,2.0162354,10.7773438,2.8878174,16.2033691,4.1869507.9511719.2277832,2.1589355.203125,1.2875977,1.7611694-.104248.1865845-.0722656.4783936-.0344238.710144.1357422.8314819-.1467285,1.4817505-.5891113,2.2037354-1.0078125,1.6445923-1.144043,3.4733887-.5524902,5.3105469.4338379,1.3465576,1.5163574,2.0365601,2.9348145,1.9932861,1.496582-.0456543,2.6928711-1.0790405,3.2102051-2.7727051.6103516-1.9988403.1325684-4.1504517-1.239502-5.0076294-1.0175781-.6358032-1.9777832-1.0432129-1.6782227-2.6575928.1308594-.7047729.1970215-.819397.7768555-.835144,1.2446289-.0337524,2.4777832.0942993,3.692627.3322144,5.1269531,1.0039673,10.2070312,2.2631226,15.4216309,2.7843628,2.0126953.2011719,2.8271484,1.7824707,1.9204102,3.6409302-.3312988.678833-.6738281,1.3665161-.8835449,2.0872803-.5803223,1.9945068.2509766,3.887146,2.064209,4.8646851,2.0979004,1.1311646,4.1723633.1671143,4.6643066-2.1677246.6274414-2.9772339-1.1091309-6.0790405-4.2009277-7.4071045-.2324219-.0997925-.4555664-.1052246-.4440918-.3790283.0114746-.2703247.2268066-.416748.4875488-.4406128.5939941-.0543823,1.190918-.1397095,1.784668-.1275635,5.2348633.1071167,10.4665527.1838379,15.6679688-.597168.3967285-.0595703.9533691-.4938354,1.1882324.022522.2272949.4995117.519043,1.1346436.1494141,1.7171631-1.298584,2.0459595-1.2106934,4.0620117.1938477,6.0645142-.744873.265686-1.3754883.5133667-2.0200195.7169189-6.651123,2.1004639-13.1894531,4.5830078-20.1135254,5.7431641-5.6877441.9530029-11.4331055,1.2007446-17.1706543,1.5688477-4.284668.2749023-8.5397949.0620117-12.7617188-.7474365-3.6279297-.6955566-7.0419922-2.0499878-10.4501953-3.407959-1.2409668-.4944458-2.2568359-.4274902-3.267334.5092773-.6062012.5619507-1.342041,1.0081787-2.0737305,1.4066772-5.2189941,2.8416138-10.4492188,5.479187-16.4086914,6.7197876-6.1569824,1.2816772-12.1679688,3.331604-18.4345703,4.1213379-8.4379883,1.0632935-16.8911133,2.0274658-25.4030762,2.3268433-4.8371582.170105-9.6479492.0818481-14.4672852-.538147-5.3791504-.6920776-10.4882812-2.3850098-15.6831055-3.7774048-2.2341309-.5988159-4.4741211-1.1680298-6.6564941-1.9512329-3.9057617-1.4018555-6.8381348-4.2030029-9.9211426-6.7958374-.3752441-.3154907-.6560059-.8098755-1.2609863-.7944946.2006836.8584595.1704102.8916626.8720703,1.6138306,3.706543,3.8161011,7.6694336,7.2471313,13.043457,8.517395.5419922.1281128,1.0595703.3618164,1.6025391.4837036.6696777.1502686.7026367.4736938.402832,1.006958-.4689941.8347168-.9216309,1.6798706-1.3466797,2.5377197-.6855469,1.3835449-1.1096191,2.8297729-.8144531,4.3929443.2854004,1.510376,1.4873047,2.2900391,3.0029297,1.9835205,1.411377-.2853394,2.3508301-1.4647217,2.5585938-3.2353516.1428223-1.2154541.0014648-2.3735962-.5905762-3.4818115-.3525391-.6602783-.3945312-1.5084229.0302734-2.0577393.3352051-.4331665,1.0336914.0498657,1.5603027.1538696.5449219.107605,1.0727539.3070679,1.6022949.4844971,2.6130371.8756714,5.2321777,1.7192993,8.003418,1.9530029,1.5114746.1275024,3.0202637.2854004,4.5300293.4332886.6025391.059021.987793.1759644.9023438,1.0073853-.0688477.668396-.2080078,1.1463623-.6542969,1.6719971-1.34375,1.5825195-1.8618164,3.4313354-1.2836914,5.4737549.5432129,1.9182739,2.1865234,2.6801758,4.0407715,1.9433594,2.5559082-1.0154419,3.3139648-4.2935181,1.4914551-6.7548828-.6682129-.9022217-1.1804199-1.7848511-1.0805664-2.942688,7.2312012.4161377,14.3920898.171875,21.3569336-.6210938.1445312,2.2544556-1.6218262,3.5300293-2.4536133,5.2802124-.8786621,1.8496704-.8220215,3.7307129.2495117,5.501709,1.0563965,1.7459717,2.8701172,2.1793823,4.6601562,1.1870728,2.7495117-1.5239868,3.378418-6.1688843,1.0124512-8.3040161-.9040527-.8156738-1.4318848-1.5804443-1.6865234-2.8134155-.232666-1.1265869.1340332-1.1466675.9570312-1.2601929,4.625-.6379395,9.3000488-.9006348,13.8806152-1.8740234,2.4492188-.5204468,4.9106445-.9846802,7.4064941-1.4822388.0563965.6881714-.6560059,1.1129761-.3132324,1.6855469.3491211.5834961.0517578.9277954-.3000488,1.3603516-1.7946777,2.206543-1.6450195,5.8578491.2927246,7.9501953.9829102,1.0610962,2.2016602,1.3769531,3.3422852.704895,1.8317871-1.0794678,2.7348633-2.8031006,2.7875977-4.8738403.0488281-1.9265747-.75-3.56427-2.5678711-4.3826904-1.1484375-.5171509-1.0581055-1.5952759-1.4995117-2.4300537-.1594238-.3013916.2001953-.3634644.4199219-.4195557,1.8935547-.4830322,3.7641602-1.124939,5.6875-1.4083862,5.0092773-.7380371,9.6794434-2.3353271,13.989502-4.9942017.5075684-.3131714,1.0625-.5494995,1.7307129-.8903198-.1743164.770813-.7871094,1.2363281-.3862305,1.8009033.546875.7702026.2297363,1.3931274-.112793,2.1031494-1.0041504,2.0800781-1.029541,4.2008667.1645508,6.1911621,1.2807617,2.1348877,4.065918,1.9500732,5.2358398-.2269287,1.1733398-2.1835327.4790039-4.1819458-.78125-5.9185791-.765625-1.0545044-1.5541992-2.0202637-2.0695801-3.2518921-.6015625-1.4382935-.7160645-1.390686.7478027-2.2825317.1362305-.0830688.2902832-.1444092.4099121-.246521,1.310791-1.1188965,2.644043-1.4560547,4.1569824-.3110962.4216309.3191528,1.0380859.3899536,1.5727539.5494995,1.7128906.5112305,3.4296875,1.0106812,4.9736328,1.4642944-.0998535,2.6124878-.9487305,4.9893188-1.3869629,7.4503174-.1704102.9568481.0654297,1.9174805.4919434,2.7946167.7438965,1.5296021,2.3774414,2.3105469,3.9853516,1.9467163,1.4287109-.3233643,2.3730469-1.5974121,2.4633789-3.2884521.0825195-1.545105-.2155762-3.0900879-1.3510742-4.0829468-1.3981934-1.2224731-1.7009277-3.0357666-3.0476074-4.4597778.8515625.0783691,1.4909668.0947266,2.1149902.2018433,2.8027344.4810181,5.6174316.7435303,8.465332.6327515,2.8339844-.1102905,5.6694336-.184021,8.5043945-.2667847.3149414-.0092163.6311035.0268555.9467773.0419312-.2294922,1.1734619,1.036377,2.0148315.7468262,3.1708374-.4052734,1.6183472.2419434,2.9994507.9343262,4.3396606.6496582,1.2577515,2.7128906,2.1738892,3.7658691,1.8253174,1.5109863-.5001831,2.4416504-2.2089233,2.1804199-3.9806519-.1633301-1.1072388-.7670898-1.927124-1.6955566-2.4864502-.8186035-.493103-1.673584-.9331055-2.5405273-1.3363647-.6721191-.3127441-.6672363-1.00177-.7304688-1.4967041-.0583496-.4551392.6269531-.3171387.9870605-.3499756,6.2507324-.5699463,12.4389648-1.4609375,18.2207031-3.4629517,1.3100586,1.6503296,1.0371094,3.5733032,1.1899414,5.44104.1616211,1.9762573,1.1459961,3.4762573,3.125,4.1253662,1.3178711.4321289,2.5551758.256958,3.5083008-.819519.9423828-1.0640869,1.0100098-2.3100586.4807129-3.5888062-.4758301-1.1494141-1.3276367-1.9923096-2.3754883-2.6190796-.6818848-.4078979-1.4074707-.7504883-2.1364746-1.0701294-.8686523-.3809204-1.0378418-1.2674561-1.1896973-1.9677124-.1359863-.6260376.7692871-.6447144,1.2502441-.8069458,2.6074219-.8793945,5.230957-1.7106934,7.8466797-2.5648804.435791-.1422729.7705078-.1699829,1.1865234.190918,2.4682617,2.1405029,4.9470215,1.3529663,5.8637695-1.8314209.1091309-.3791504.1052246-.7940674.5344238-1.0078125.9987793-.4970703,1.9616699-1.0712891,3.083252-1.2774658.746582-.1372681,1.2229004-.0875244,1.4604492.8551025.1635742.6486816.2075195,1.208313.0957031,1.8449097-.5234375,2.9747314.6508789,5.7565308,2.8925781,6.9282227,1.4030762.7333984,2.8371582.572937,3.8759766-.4335327,1.2851562-1.2451782,1.6279297-2.6522827.9851074-4.088501-.7653809-1.710144-2.1269531-2.7594604-3.8356934-3.4016724-.887207-.3334961-1.8115234-.5476074-2.0205078-1.7285767-.0898438-.5067139-.6362305-.7196655-1.4121094-.802063,3.2119141-2.1503296,6.4387207-3.7044067,9.6745605-5.2427368.564209-.2681885.6906738.2545776.9165039.519104.9987793,1.1694336,2.2028809,1.9512939,3.7556152,2.1403809,1.7216797.2095947,3.0649414-.7328491,3.4458008-2.4282837.269043-1.1986694.0019531-2.3443604-.6140137-3.336792-.5703125-.9187622-.270752-1.3441162.4975586-1.8920898,1.331543-.949646,2.5854492-2.0095825,3.8510742-3.048584.3361816-.276062.7780762-.5148315.8408203-1.0797119-.7971191-.107605-1.3781738.2561035-1.9560547.5930176ZM20.2706213,7.928632c.286377.5916138.2932129,1.2327881.3364258,1.8289185-.0356445,1.1935425-.2678223,2.2659912-1.291748,2.9799194-1.4121094.9846802-3.1625977.255188-3.3044434-1.4221802-.1315918-1.5559082.5473633-2.8775635,1.5075684-4.0370483.4387207-.5294189,2.4306641-.0136108,2.7521973.6503906ZM37.1209631,17.6608098c.0878906,1.1757812-.4355469,2.2525635-1.5024414,3.0343018-1.5412598,1.1293335-3.3845215.3250122-3.5727539-1.5825806-.1882324-1.9071045.5751953-3.5214233,1.8884277-4.8353882.9023438-.9031372,1.7580566-.7180176,2.4521484.3707275.5524902.866333.7316895,1.8348389.7346191,3.0129395ZM56.3426428,20.1157048c1.236084,1.9324341,1.0014648,4.496582-.6013184,5.6157227-.7565918.5283813-1.5852051.9214478-2.5544434.4317017-1.015625-.5132446-1.3752441-1.3733521-1.3796387-2.4458008.0227051-2.177124,1.2392578-4.0103149,2.8249512-4.3250732.7617188-.151123,1.2866211.0606689,1.7104492.7234497ZM79.3716955,23.9446843c-.3237305,1.4577026-1.5661621,2.6087036-2.8625488,2.6519775-1.4123535.0471802-2.1630859-.8067017-2.1074219-2.6174316.0649414-1.2651367.7294922-2.4423828,1.7883301-3.4440918.5358887-.5067749,1.0925293-.4188232,1.6547852-.1506958.8713379.4152832,1.7565918,2.5266724,1.5268555,3.5602417ZM100.3362951,17.4888127c1.2565918.8196411,1.6049805,2.0415649,1.4177246,3.4324951-.1862793,1.3842773-.869873,2.5461426-2.1984863,3.0458984-.9406738.3538208-1.786377-.138855-2.3288574-.9978027-.3718262-.588562-.4853516-1.2553101-.4460449-2.2344971.1586914-1.0525513.2341309-2.4137573,1.5681152-3.2648926.708252-.4519653,1.3293457-.4104614,1.9875488.0187988ZM115.8077307,17.5948308c.9265137.9473877,1.2966309,2.0889893.9338379,3.3972778-.3640137,1.3115845-1.3007812,2.1010742-2.5549316,2.4476318-1.3562012.3748169-2.583252-.725769-2.5712891-2.484314.1535645-1.5249023,1.0749512-2.8376465,2.6047363-3.7589111.6623535-.3989258,1.168457-.0305176,1.5876465.3983154ZM136.6639318,22.2621892c1.5080566.7988892,2.3693848,1.9726562,2.2978516,3.8634033.0649414,1.3203735-.534668,2.40979-1.7866211,3.1469727-1.3166504.7752075-2.8410645.21521-3.2348633-1.2581177-.501709-1.8775635-.048584-3.6516113.8688965-5.2914429.3835449-.6853027,1.0690918-.8768921,1.8547363-.4608154ZM160.266715,25.8383c.5092773-.1279907.7172852-1.024231,1.3881836-.5554199.7355957.5140381,1.2060547,1.2529297,1.5061035,2.09552.296875.833313.4345703,1.6851196.3215332,2.5739746-.1269531.9984131-.4587402,1.9109497-1.4558105,2.2869873-1.0678711.4025269-2.0239258.0133667-2.840332-.7384644-.7756348-.7142334-1.1508789-1.5990601-1.1325684-2.4607544.0058594-2.0200806.5117188-2.774292,2.2128906-3.2018433ZM20.7845373,53.2252629c-.434082.9137573-1.3525391,1.1222534-2.2670898.87854-1.0664062-.2842407-1.1152344-1.2224731-1.137207-2.121582.0310059-1.2329102.4050293-2.3625488,1.0361328-3.3982544.6499023-1.0662231,2.0610352-1.0183105,2.5524902.1222534.6508789,1.5099487.5056152,3.06604-.1843262,4.519043ZM40.9429846,52.5963567c.5866699.881958.9692383,2.1229858.9714355,3.1514893.0039062,1.6766357-1.1950684,2.9976196-2.7397461,3.0188599-1.3383789.0183716-2.3964844-1.3667603-2.2954102-3.0823975.0771484-1.3026733.4418945-2.5136108,1.453125-3.4277954.9216309-.833374,1.9221191-.6954956,2.6105957.3398438ZM64.5443029,52.6352361c1.2661133.9476318,1.5893555,2.3227539,1.684082,3.777771-.0773926.6536255-.1403809,1.282959-.3676758,1.890625-.6057129,1.619873-1.921875,2.5269775-3.3525391,2.2801514-1.541748-.2659302-2.6958008-1.6613159-2.6367188-3.368042.0595703-1.7283936.6577148-3.2713013,1.9785156-4.4629517.8608398-.7766113,1.7548828-.8208008,2.6943359-.1175537ZM90.2464514,49.2550481c.5698242.807312.8056641,1.7235718.7866211,2.2678223-.0195312,2.0471802-.6079102,3.3676758-1.8503418,4.4186401-.8686523.7348022-1.6635742.5802002-2.4682617-.045105-1.6711426-1.2988892-2.0703125-5.210022-.7033691-6.8169556,1.2636719-1.4851685,3.112793-1.4152222,4.2353516.1755981ZM112.8973303,41.6284612c.9533691.9361572,1.3950195,2.1044922,1.4194336,3.7369385.0222168.6081543-.2089844,1.428894-.8183594,2.1253052-1.0273438,1.1738281-2.3557129,1.1239624-3.3193359-.1272583-.9758301-1.2672729-1.1008301-4.3480835-.2316895-5.7122192.5456543-.8563232,2.0683594-.8883057,2.9499512-.0227661ZM125.9649572,41.638532c1.6396484.9033203,2.4257812,2.3487549,2.4926758,4.1990356.0036621.7000732-.1591797,1.3441162-.5444336,1.9315796-1.1057129,1.6861572-3.300293,1.6241455-4.3037109-.1256104-.9118652-1.5900269-.6928711-4.5021362.5065918-5.9026489.5280762-.6165771,1.2526855-.4307861,1.848877-.102356ZM149.2369299,40.9761784c1.3098145.6598511,2.2285156,1.6694946,2.5166016,3.1499023.2119141,1.0890503-.3669434,2.2310181-1.4147949,2.7926636-.9914551.5314941-1.7727051-.0148926-2.4819336-.6077271-.9335938-.7808838-1.5146484-2.2196655-1.517334-3.5203247-.0039062-1.9750977,1.1364746-2.7016602,2.8974609-1.8145142ZM170.3804846,36.678571c1.925293.1549683,4.2548828,2.6721191,4.2414551,4.5756836-.0126953,1.8465576-1.815918,2.9793701-3.5510254,2.2310791-1.9296875-.8321533-3.1879883-3.7545166-2.3566895-5.6890259.2729492-.6351929.8220215-1.1856689,1.6662598-1.1177368ZM194.1204748,28.9048894c1.5947266.6394043,2.9279785,1.6078491,3.5786133,3.2952271.4904785,1.2713013.1911621,2.3449097-.9416504,3.2865601-.9755859.8109131-2.0395508.6444702-2.998291.0658569-1.7631836-1.0637207-2.375-2.7941284-2.4892578-4.5222168.0876465-2.1228027,1.1037598-2.8258667,2.8505859-2.1254272ZM182.6795568,31.282636c-.9960938.2651367-1.8691406-.1079712-2.5498047-1.0667725,1.4807129-.5862427,2.8886719-1.1883545,4.6208496-1.625061-.3815918,1.355957-.8720703,2.3726196-2.0710449,2.6918335ZM184.3538732,27.3230412c-1.3432617.4831543-2.6721191,1.0079346-3.9990234,1.5351562-.5981445.2375488-.8339844.0430298-.9760742-.5696411-.2507324-1.0805054-.6530762-2.1187134-.1745605-3.2515869.6936035-1.6426392,1.4836426-2.1347656,3.1179199-1.8349609,1.6884766.3097534,2.6394043,1.3887329,2.6533203,3.0844727.0698242.4506836-.0478516.8303223-.621582,1.0365601ZM200.3487463,19.1215031c.1623535.3944092-.2380371.5354614-.5178223.6769409-2.5986328,1.31427-5.097168,2.9348755-7.8330078,3.8327637-1.9594727.6431885-3.5385742,1.8205566-5.3535156,2.6189575-.560791.246521-.8527832.3140869-.8686523-.4645996-.0339355-1.6416626-.8876953-2.6484375-2.4768066-3.0941162-.963623-.2702637-1.8623047-.7112427-2.9123535-1.7528687,7.1865234-.7457275,14.0021973-1.9580688,20.0336914-5.9934082-.2575684,1.4868164-.6311035,2.8182983-.0715332,4.1763306ZM201.4644689,18.8671696c1.2575684-2.8016357,1.4611816-2.9142456,3.8964844-2.2768555-1.3754883.803772-2.6359863,1.5403442-3.8964844,2.2768555ZM208.0738439,20.5234196c-.0114746,1.3101196-.8867188,2.1184692-2.5673828,1.9368286-1.2902832-.1395264-2.3325195-.7370605-3.1318359-1.7758179-.3137207-.4077148-.3027344-.677002.1567383-.9394531,1.3146973-.7510986,2.6289062-1.5038452,3.9255371-2.2857666.46875-.2827759.7436523-.0927734.9804688.2778931.4655762.7280884.6340332,1.5407104.6364746,2.7863159ZM5.2462072,39.603864c.1750488-1.1566772-.2893066-1.7774658-1.1499023-2.06604-.6879883-.2307129-1.1948242.4293213-1.2197266.8209229-.1091309,1.7068481-1.2346191,2.7648926-2.184082,3.9734497-.4406738.5606079-.5786133,1.3024292-.6635742,2.026062-.2214355,1.8875732.8479004,3.4661865,2.5476074,3.7435913,1.7548828.286377,3.4824219-1.0037842,3.7956543-2.8629761.2258301-1.3408203.0146484-2.6297607-.6235352-3.8283691-.3388672-.6362305-.7719727-1.2286377-.5024414-1.8066406ZM3.0855627,47.2530339c-1.0349121-.0097046-1.7285156-.4880981-2.0292969-1.5081787-.4333496-1.4705811.2663574-3.5966187,1.4665527-4.4080811.6960449-.4707031,2.3659668.0421753,2.7851562.8789062.2709961.5410156.387207,1.1277466.3530273,1.6381226,0,1.9299316-1.151123,3.4125977-2.5754395,3.399231Z"/>
  </g>
</svg>