<?xml version="1.0" encoding="UTF-8"?>
<svg id="Layer_2" xmlns="http://www.w3.org/2000/svg" viewBox="0 0 101.386197 88.1160861">
  <g id="Layer_1-2" data-name="Layer_1">
    <path d="M99.6637572,27.6202655c-4.0942198-9.7213628-16.2029664-19.2437347-31.0913867-15.9517904-3.4628139.7656445-6.7730174,2.0340918-10.2022434,2.9012887-.4464475.1129362-.6420571.029023-.8868086-.3246071-1.1139208-1.6094539-2.0650309-3.3183186-3.0878251-4.9831699-.9010101-1.4667056-1.8765221-2.8148395-3.3741105-3.7965506-1.5141005-.9925313-3.0084767-1.9934032-4.6610988-2.741972C40.4863045.0627005,34.379408-.5426129,28.0318739.4487913c-7.2944739,1.1393935-13.4715329,4.4926525-18.7782954,9.4526603C3.6819455,15.1089723.8828855,21.6773068.3338712,29.2710842.047304,33.2338832-.037849,37.1918356.0145615,41.1609464c.0789539,5.9765465,1.3314527,11.6558746,4.0449088,17.006369,3.0035174,5.9225017,6.1902462,11.7322925,9.824155,17.301953,2.5213406,3.8645715,5.3143142,7.4976914,8.5187949,10.7991035,2.182701,2.2488059,1.4407821,1.8548816,4.5597154,1.7626842.4607054,0,.9218616.0138634,1.3819471-.0021415,4.8998766-.1697425,9.7329157-.8145609,14.4816471-2.0519001,9.1196562-2.3761127,17.9020817-5.6860908,26.4550843-9.6155837,5.4052154-2.483357,10.5870944-5.3721348,15.4020998-8.8814983,2.3778034-1.7330413,4.4148257-3.8591051,6.5640515-5.8541989,1.9523201-1.8123333,3.787421-3.7307838,5.2315845-5.9850562,1.3602503-2.123246,2.561691-4.3274184,2.8528794-6.8854464.3007124-2.6422229.7720126-5.2471386,1.4158167-7.826976,1.1360121-4.5523328.7465963-8.9627628-1.0834889-13.3079895ZM52.6751885,8.0190122c.3680571.6430151.6689949,1.1896625.9892627,1.7247007,1.0124811,1.6913383,2.0223699,3.3844235,3.0576186,5.061842.1981456.3211131.2277885.5776428.0665557.915099-1.0219488,2.1380112-2.3466952,4.0866682-3.7142153,6.0104724-.1721657.2421592-.3256779.2303809-.5503668.0850403-1.006282-.6510176-2.1244859-.915888-3.3106543-.8952055-.3118708.0054665-.4418263-.1146832-.5622015-.3895849-.4045191-.9237777-.4075623-1.7898475.0003945-2.7490728,1.2318727-2.8963858,2.3811283-5.8279937,3.5658879-8.7444983.1240946-.3056717.269886-.6024392.4577186-1.0187929ZM29.0542735,64.7205467c-.9020245-.7295206-1.5602556-1.5134806-2.1208228-2.3847351-1.0774589-1.6746571-1.5231174-3.5408098-1.6528475-5.4997235-.030601-.4612126-.0866182-.9164515-.184733-1.3681964-.079123-.3644504-.2418774-.4758086-.6274047-.3479382-3.6497447,1.2106267-7.0035673,2.925916-9.7708428,5.6580821-.0755162.0745582-.1624163.1375072-.3222402.2714076-.077545-1.0007592-.0120601-1.9165344.1036939-2.8227856.5540863-4.3362662,2.2935521-8.2236617,4.6794143-11.8227429,3.7892244-5.7157901,8.7167151-10.220728,14.7346828-13.5267612,1.6479446-.9052931,3.2889575-1.8225336,4.9739276-2.6582842,1.1755736-.583053,2.3794377-1.0851796,3.6750483-1.3434.2285775-.0455352.4723146-.0856602.6997086-.2679136-.3445569-.1818025-.68438-.1363237-1.019751-.0929864-1.9843863.2563044-3.86243.9388246-5.7875305,1.4352593-5.5058098,1.4195925-11.0553515,2.0614805-16.678606.6999341-1.7207558-.4166355-3.0872615-1.3636316-4.016562-2.8977947-.2920337-.4820077-.4515195-1.0095506-.517568-1.5631861-.1611764-1.3492046.3075314-2.1289943,1.5726538-2.647464,1.0448291-.428132,2.1885056-.5126087,3.2361525-.9315548.1603875-.0641324.2452587-.0063118.2348893.1735746-.004283.0736002-.0003381.1476511-.0027051.221364-.0154414.4791336.1088786,1.0282043-.0856602,1.4181273-.2076696.4162973-.8471344.3225783-1.2823108.4963784-.4969419.1984837-1.0017172.3771303-1.4164366.7330147-.5852508.5022957-.6717,1.0696818-.2526976,1.7172617.19251.2973874.4395158.5471546.7321694.7464273.9905025.6744051,2.067905,1.1225432,3.2681623,1.2556547,3.196591.3545318,6.3739084.1137252,9.545703-.303023,3.2196967-.4230036,6.3815164-1.1584416,9.5683579-1.7595283,1.0127065-.1909884,2.0481243-.2597984,3.0718201-.3948259.2452587-.0322916.4171427.0203443.5598345.2382706.1404377.2143759.320155.4042936.4917572.5967473.3086022.3460785.6765466.4951949,1.1401824.3363854.2063735-.070726.4214257-.1219531.6372669.0038322.0010144.217081-.1927918.254501-.3081513.3549263-4.4236735,3.8508772-9.250288,7.2195212-13.512785,11.2613868-2.5015035,2.3719988-4.5381876,5.089118-5.879108,8.2910064-.1032431.2464985-.2603619.4790773-.1964549.7903845.1273068-.2341567.2675754-.4622833.3798354-.7034845,1.8442868-3.9621791,4.6750185-7.1357207,7.9453787-9.9604788,2.6123546-2.2563575,5.399918-4.2958594,8.0450151-6.5114156.5069732-.4246943,1.0101705-.8537843,1.5697233-1.327057.0100313.3163792-.1757161.4613253-.2945697.62222-1.5688216,2.1243168-3.3419316,4.0822161-5.0080226,6.1275226-2.8433553,3.4907098-5.7100418,6.9629914-8.0895922,10.7994416-.9238904,1.4895296-1.7795908,3.0170427-2.3300704,4.6938976-.0276141.0841386-.0519597.1694043.0067626.3044882.1267996-.2009634.2572624-.3997852.3793846-.6035663.1231929-.2055281.2418774-.4139304.3561661-.6245305,1.1522425-2.1229079,2.2918614-4.2535929,3.672625-6.2415859,2.476538-3.5657188,5.3139197-6.8482518,8.0396613-10.2179666,1.6593284-2.0512802,3.3390574-4.0864991,5.1044467-6.0485687.2490345-.276705.4616071-.6187823,1.0429694-.7494141-.3902048.7094018-.7972035,1.2262935-1.2064564,1.7383387-3.8845777,4.8598642-7.5857749,9.8486133-10.7583022,15.2122385-1.9844427,3.3549497-3.6927439,6.8428417-5.0795939,10.4862746-1.085405,2.8514142-1.9257204,5.7366416-1.0655679,8.9370647ZM59.2222207,69.0257048c-.1466931.1252781-.2541629.0054665-.3605618-.0433373-3.0141122-1.3827361-5.2135507-3.5546732-6.4506645-6.660532-.1224039-.3072496-.274-.6032846-.4215947-.8997703-.047733-.0958042-.1262361-.176336-.2156721-.2978383-.5216256.9503211-1.3331433,1.5978446-2.0999149,2.2809848-.9147608.8149554-1.7903547,1.6525657-2.3675467,2.8216022-.0361238-.3630415-.0804755-.7254631-.1070189-1.0891808-.2614891-3.5835835.1892414-7.104218.9354433-10.5996053,1.086363-5.0883854,1.4000372-10.2281669.9214108-15.4061574-.2630107-2.8452151-.7412989-5.6689024-.9079418-8.5252758-.0279523-.4786828-.0530304-.9583236-.0528614-1.4375135,0-.1605002-.1267996-.4155647.1207133-.4714693.2326351-.0526359.5014503.0165685.6252632.2545573.1433118.2756343.2614327.5704857.3458531.8696202.9815984,3.4765646,1.8646875,6.9772493,2.5343587,10.5288793.680266,3.6080981,1.2308583,7.2336664,1.4548146,10.9028538.0039449.0642452.0207388.1277013.0533122.319986.3005997-.6583438.3537992-1.2375082.3868235-1.8158837.0996363-1.7427344-.2100929-3.4560512-.3792718-5.1803574-.4607617-4.6963772-1.8943304-9.1530749-3.3097526-13.6161972-.2049646-.6462837-.355828-1.3096995-.4613253-1.9904164,2.4220987,5.0436392,5.2327116,9.9249185,6.3161441,15.5241092-.3650139-5.6230854-3.0211566-10.4264252-5.4282085-15.3438283.2227165.2165174.4569859.4225528.6650501.6523701.2100366.2319025.4056462.4791336.5878432.7337473,2.5454607,3.5559694,4.2595102,7.4864767,5.2062245,11.7462687.7551624,3.398287.8922187,6.8693851,1.1205708,10.3288177.2081768,3.1552261.0295302,6.3083107-.0025923,9.4625224-.0244019,2.4001765.2666738,4.7470407,1.2911022,6.9510441ZM53.2902513,30.8499371c.0418721-.0326861.0837441-.065485.1256162-.0981711,3.7931129,4.3750951,8.5983687,7.6931883,12.5128712,12.0233118-.5793335-.0215278-2.3038087-.714981-3.1256395-1.2236448-2.0699338-1.28124-3.7249229-3.008533-5.1993492-4.9125565-1.4331742-1.850824-2.8125853-3.7433511-4.2145386-5.6182952-.0391106-.0522978-.066274-.1134998-.0989601-.1706442ZM56.7314247,36.5693903c.5420262.7423133,1.0710907,1.4945452,1.6285583,2.2250802,1.6329541,2.1397018,3.6953363,3.6830508,6.2818237,4.4977244.4377687.1378453.8483742.3624216,1.2865938.498069.8620122.2667865,1.3107139.8976288,1.6017332,1.6955086.1899177.5204985.3343002,1.052268.460649,1.5910256.0887034.3779193.0232748.5553261-.4297099.580517-2.1865332.1215022-4.0488537-.6186132-5.6644503-2.0517874-.805206-.7143047-1.4773568-1.5440816-2.078838-2.4335952-1.371465-2.0283435-2.3060066-4.2668927-3.0863598-6.6025423ZM66.8740441,42.2224568c-1.5394041-1.6731918-3.2178933-3.2012685-4.9659251-4.6480243-2.2784488-1.8857644-4.4099227-3.9182219-6.4080598-6.0970343-.9598452-1.0466325-1.9610552-2.057592-3.1333602-2.8748016-.1887342-.1315899-.2262106-.2390596-.1329987-.4510123.1638251-.3723401.2498798-.7732524.2794101-1.1779406.0265997-.3660283.1973566-.4059279.5145248-.3335676,1.2741956.2905684,2.4232258.8735087,3.5468961,1.5082959,2.7622036,1.5605937,5.2641579,3.4341853,7.3892073,5.8265848,1.9826957,2.2321247,4.2197796,4.2326286,6.1028389,6.5607266.5571858.6888321,1.0761064,1.4079833,1.4656912,2.2072719.7748867,1.589504.7490196,2.4614911-.9625502,3.8823798-.4624524.383893-1.0305148.6316313-1.6432107.8500648-.0606384-.6635285-.0865055-1.2730121-.1772377-1.8726336-.2048519-1.3537694-.9773717-2.4044595-1.8752259-3.3803096ZM52.5669861,23.4819194c-.1372818.7868341-.4926589,1.5002935-.7625449,2.242325-.2268305.6236852-.4747942,1.245398-.3900357,1.9269602.0327988.2635742-.1015524.3224656-.3046009.3484454-.29209.0373636-.5843491.0728675-.9278353.1155849-1.4291166-.1661921-2.8139942-.6587383-4.1930672-1.1729813-.2637996-.0983965-.2576569-.254501-.1338441-.4734981.9432203-1.6682325,2.008281-3.2583565,3.0811751-4.8439157.1176701-.1739691.2423282-.2325787.4597474-.1973566.8574474.1389161,1.6953958.3424718,2.4843714.7109234.6094273.2845948.8025009.6795334.6866342,1.3435127ZM47.2862597,22.746256c-.6898464-.7616996-1.2320981-1.5504498-1.7448759-2.3567828-1.6826595-2.645886-3.319953-5.3223167-5.3736001-7.7094187-.6006358-.6981307-1.20037-1.3965995-1.9134349-1.9984752,1.4846266,2.1136656,3.2229653,4.0424855,4.5608425,6.2597887,1.3327488,2.2088499,2.6622291,4.4196159,3.9288167,6.7279894-.231677-.1138379-.4674117-.2202933-.6944112-.3427535-1.7194032-.9272154-3.2036354-2.1677668-4.6315122-3.4831018-1.2756608-1.1751228-2.5507017-2.3510909-3.8283914-3.5240722-.1446643-.1327733-.30477-.24864-.5242743-.3073623.2129107.2353965.4165791.4800353.6402537.704837,2.1201465,2.1310231,4.1519841,4.3585266,6.6089668,6.1248175.5384195.3870489,1.1108213.7265902,1.6562852,1.1043404.1201497.0831806.421313.0890415.2560226.3746507-.1217277.2103747-.289385.3459094-.5461402.2189971-.4787955-.2366363-.9657061-.4600291-1.4289475-.724505-2.2571465-1.288848-4.5072485-2.5900378-6.7611827-3.8845777-.1843949-.1059482-.3787083-.1948206-.6220509-.2010761.7551624.4790773,1.505929.9651989,2.266276,1.4357665,1.9596463,1.2128246,3.9236883,2.4186047,5.8855325,3.6280479.0940008.0579897.1909884.1151341.2729292.188058.1131053.1006507.3423027.1738001.1984274.379779-.1015524.1454533-.263067.0526923-.4039555.000958-4.5753822-1.6793909-9.3023604-2.3957244-14.1665077-2.1769527-2.9302554.1318153-5.852621.3768486-8.7526698.8354688-.469046.0741637-.9307658.1943698-1.4571252.306348.1231365-3.2115815.425596-6.2764699,3.638361-8.0460858.4675244-.2574878.9087308-.5633849,1.3580524-.853108.4648757-.2998107.9187621-.6168662,1.3879208-.9095762,1.9207611-1.1986794,3.4253375-2.7687408,4.4593464-4.8024944.7903281-1.5543946,1.9421198-2.7260234,3.7284732-3.1243434,1.4477702-.3228601,2.9041065-.3220711,4.2168491.3649576,2.7627671,1.4459668,5.0184483,3.4253939,6.1382301,6.4582161.4876433,1.3208015.7403972,2.6985783.991855,4.0765242.2581077,1.4136188.4741743,2.837438.9606341,4.1976883.1536248.4295409-.1467495.6814495-.3049954,1.0574527ZM27.6004169,24.2576515c1.1732631-.1264052,2.349682-.2255343,3.5259319-.3215076,2.0236097-.1651777,4.016562.0358984,5.9723198.5699222,1.3878081.3789337,2.798271.6521447,4.2015205.9600706.3028539.066443.6130904.1137816.8626321.2538811-4.7047178,1.3047402-9.4181707,2.6767688-14.3489864,2.908164-2.3156997.1087096-4.6471226.2662229-6.9428162-.2817206-.7233779-.1726166-1.3858356-.4752451-2.0340918-.8391883-.4827404-.2709568-.3161538-.6911426-.3544755-1.0683857-.0389979-.3826532.3011633-.3602237.5236544-.4377687,2.7853656-.9704963,5.6761159-1.4289475,8.5943112-1.743467ZM29.6416095,61.4512009c.3668737-2.9669427,1.4873317-5.6947695,2.7552155-8.3610562,2.5161559-5.2914339,5.5774939-10.2619801,8.9987175-15.0127403.4731599-.657104,1.0083108-1.2710397,1.5343885-1.8883567,1.229224-1.4422474,2.4370893-2.8998234,3.4584745-4.5132222-.3145758,2.1522691-.6940167,4.2742753-1.6845756,6.219551-1.8055707,3.5459381-3.6278225,7.0834229-5.4528358,10.6193861-2.6281904,5.0923303-5.1220859,10.2489621-7.4642727,15.4792503-.2402994.5366161-.5317132,1.0527189-.8310167,1.559692-.2671809.4525339-.4268922.437656-.6795334-.0192735-.7096835-1.2832688-.8098271-2.6662867-.6345618-4.0832305ZM30.9137199,68.0602804c4.007038-8.152034,8.0394359-16.2915571,11.9398495-24.4956634.6164154-1.2966814,1.3333688-2.546306,2.0223699-3.8075962,1.0319801-1.8893711,1.7821832-3.8802947,2.2176977-5.9892265.0223167-.1082024.0495364-.2157285.0816026-.3214512.0151032-.0499309.0470004-.0947898.1156413-.2281267.15571,1.2885099.2934426,2.4927684.4479127,3.6948854.5171171,4.0232683.5962965,8.0551591.2152776,12.092629-.2201242,2.3324373-.6747996,4.6318503-1.0450545,6.943098-.4615507,2.8806626-.8408226,5.7659464-.6112307,8.6982305.1162048,1.4847957.5833911,3.616326,1.0905897,4.6262148.1936935-.1232493.1967931-.3383578.2588967-.514074.509002-1.4414584.9490813-2.9125598,1.9961083-4.0953469.516779-.5837292,1.1170767-1.0704708,1.6967484-1.5841503.3221838-.2854965.4534355-.2690407.6449312.1458478,1.1612594,2.5170012,2.9290155,4.4936669,5.3442953,5.878319.8649427.4958148,1.7610499.925412,2.6775577,1.3149969.128603.0546647.2546701.1153595.4466165.2027104-.7638974.4062661-1.5214267.6242488-2.2639655.8741286-6.8550145,2.3067392-13.8664152,4.0258043-20.9363691,5.5126288-3.4468653.7248995-6.9344756,1.2146279-10.4385416,1.5784584-.9677913.1004253-.9813166.0923101-.5903228-.8234087,1.4120409-3.3071039,3.1047317-6.4793494,4.6893892-9.7031036ZM59.6996636,63.3509414c-.0271069-3.3211928.0738256-6.6426673-.0708951-9.9640292-.1594294-3.6568455-.6442549-7.2709737-1.3096995-10.8650956-.0197244-.1065117-.0327988-.2143196-.0490292-.3215639.9067584,1.3588414,1.8769729,2.6067754,3.0718201,3.6674403,1.7498352,1.5533239,3.71337,2.6017034,6.1360323,2.4991366,1.5369808-.0650905,2.9139687-.5902101,4.144207-1.5093667,1.0681039-.7979925,1.4724539-1.899177,1.4501935-3.1898283-.0121164-.7008358-.0576516-1.4013334-.0614837-2.1020564-.0036067-.6675861.0149342-.6652191.6405918-.50393,4.8031144,1.2381281,9.5105936,2.7819279,14.2007154,4.3880568,1.9193522.6573294,3.8482848,1.2735193,5.6217329,2.2827318.1753216.0997491.4563097.1270814.2105438.4527029-2.0329647,2.6938445-3.9544584,5.47983-6.5039203,7.7403578-2.7196552,2.4114476-5.7235671,4.4192777-8.9082107,6.1465144-5.2978584,2.8733928-10.6524104,5.6367234-16.2080384,7.9917592-.4879251.2068807-.6822385.1218404-.8988686-.3499107-.9293005-2.0236097-1.4474321-4.1307381-1.4656912-6.3629191ZM72.4833225,38.7986408c-.3162665.9753993-.5337983,1.9799906-.6503413,3.1291899-.8254939-1.2444963-1.7168109-2.2910724-2.691083-3.2619632-2.5482221-2.5395997-4.9807466-5.2018288-7.6643907-7.597046-2.4076717-2.1488877-5.1147597-3.8644025-8.2555589-4.7905471-.1575697-.0464368-.3275376-.0666121-.5521139-.3111382,2.6407577-.6062714,5.1535322.019668,7.7208025.1378453-1.2058365-.4212566-2.4152234-.5152574-3.6186366-.6441986-1.2088233-.1295047-2.4246347-.0599058-3.6612976-.1595985,1.6565106-1.0619612,3.4353125-1.832114,5.3229929-2.3440465,1.8840737-.5109181,3.8063-.8366523,5.7448131-1.0866448-1.2246028-.1399868-2.4317919.0420411-3.6353178.2033303-1.2255045.1641633-2.4230568.4686515-3.5949109.8678732-1.1701635.3986581-2.2528635,1.0021681-3.475832,1.5052527.0880835-.4785701.1060609-.8923878.489503-1.1943963,4.0691416-3.2056642,8.658669-5.3738255,13.6145629-6.794207,1.6734172-.4796408,3.393215-.6814495,5.1420357-.6320822,2.2085681.0623854,3.7241902,1.4851338,3.9340577,3.7014227.139536,1.4741445-.2222657,2.8553027-.7205601,4.2141441-.2662793.7261957-.5361653,1.4531803-.851192,2.1589754-.8408226,1.8835665-1.1815473,3.8765189-1.2776896,5.9120759-.1130489,2.3948227-.5824894,4.7111987-1.3198435,6.985759ZM11.123676,9.3013229c.773027-.7197712,1.6542-1.2936946,2.4954735-1.9225081,3.8495246-2.8776758,8.1017086-4.8747421,12.8112167-5.8661463,3.0217765-.6361398,6.079057-1.105073,9.1666002-.824085,4.5741987.4162973,8.9456871,1.6401112,13.0072207,3.8236575,1.1870701.6381685,2.1207664,1.6501425,3.1584384,2.5061246.1476511.121784.1806191.2324097.1099494.425765-.2591221.7081056-.4783446,1.427595-.7844108,2.1218935-.9878538,2.2408034-1.9371042,4.4986261-2.9091784,6.746474-.0835751.1930736-.1317026.4186079-.3785392.597649-.5377432-1.8844682-1.1395062-3.6847978-2.1661325-5.3026486-1.4557163-2.2938902-3.3625576-4.0952342-5.8642865-5.2149596-1.3069944-.5850254-2.6834187-.7759011-4.1054345-.6369851-1.4738064.1440444-2.6445898.8560949-3.5995884,1.9548561-.4732163.5443932-.8719307,1.1471705-1.2308583,1.7686015-1.3771569,2.3843406-3.4876666,3.9617282-5.7907427,5.3374199-.1835495.1096113-.3273685.0888725-.5118197.0181464-3.9887788-1.5291474-7.9927173-3.0159719-12.0631551-4.3174435-.4191715-.1340131-.8169279-.3347511-1.2251664-.5031974-.4222147-.1742509-.4753578-.381357-.1195862-.712614ZM5.2707733,16.054954c1.156131-1.9718754,2.6597494-3.6620302,4.2439561-5.2900814.2382143-.2448642.4618325-.1305755.7074857-.0627236,2.6835878.7412426,5.2724985,1.7551889,7.8720604,2.7374635,1.8932033.7152627,3.7875901,1.4266933,5.7944622,2.0978298-.3933607.305559-.7011739.5359962-.9996321.7779863-1.4104629,1.1434511-2.1311921,2.6945771-2.5890234,4.3992152-.0612583.2281267-.050269.4507868-.4422208.3494035-3.7060438-.9583236-7.4304594-1.848908-11.0505049-3.1130723-1.1299821-.3946005-2.239-.8411607-3.3468345-1.2931874-.3707058-.1512579-.3638305-.3058408-.1897486-.6028337ZM16.6345015,77.7247806c-.2520777-.0928737-.3327786-.2850456-.4429534-.4348383-3.5026572-4.7638346-6.4513971-9.8704792-9.3066998-15.0355079-1.4712141-2.661271-2.9446823-5.317301-3.9170384-8.2188715-1.1139772-3.3245177-1.7527093-6.7346957-1.9526019-10.2303648-.063118-1.1047349-.1120909-2.2104278-.1537375-3.3162335-.0185973-.4935042-.0031559-.988361-.0031559-1.4825415.4521957.6218818.5704294,1.3156168.7512175,1.983541,2.4718605,9.1316035,6.8870807,17.3047708,12.4671669,24.8590431,1.5355719,2.078838,2.2057503,4.2682453,2.3049358,6.7510387.0618219,1.5477447.1677137,3.093686.2518523,4.640529.0077207.1426355.0010144.2860037.0010144.4842056ZM11.8533657,61.4393099c-2.7686281-4.5149128-5.4265741-9.0851103-7.3116059-14.0567273-2.1792633-5.7475745-3.3249122-11.6943653-3.2647247-17.8464025.0360675-3.6823745.6139357-7.2723262,2.2870712-10.6126798.1978638-.394995.4471801-.7646864.6367033-1.1632318.1601057-.3365544.3531793-.3770176.6956511-.257826,2.1398709.7448493,4.2824468,1.4828796,6.4340396,2.1931831,2.3099515.7626013,4.6711864,1.3510644,7.010499,2.0139166.2036684.0577643.4354018.0597367.6420007.2608128-.7875104.2108819-1.5560853.3535174-2.266276.69644-1.925664.9298641-2.5815281,2.5002637-1.8951194,4.5290017.7021883,2.0754567,2.2781107,3.1958584,4.2292473,3.9027805,2.6512961.9605214,5.4039193,1.0959998,8.1856218.9577037,2.4511218-.1218404,4.881392-.4399666,7.3393891-.8194075-.1441571.2570933-.3905429.3038683-.5840674.4173681-6.2730322,3.6807966-11.7014098,8.2924153-15.7436699,14.4022987-2.0243987,3.0597601-3.6867702,6.3005337-4.4463283,9.9320756-.4062097,1.9423452-.5168354,3.9094868-.3894158,5.8898155.0370819.5770793.2606437,1.058129.7200529,1.4310327,1.6963539-3.2748123,7.1567413-5.9320257,9.2163057-6.7226356-2.447515,3.7707961-4.2348829,7.9126362-6.6558545,11.7867318-1.5294855-2.4258182-3.3734906-4.543485-4.8395199-6.9342502ZM24.4232122,80.3259204c-.1622472,1.780887-.2556844,3.5680294-.3751015,5.3528049-.0086224.1288284-.0038322.2600802-.0276141.3859218-.0260362.1378453-.015216.3198732-.1692353.3772994-.1424101.0530868-.2241818-.101327-.3106873-.187269-1.8480626-1.8348755-3.5911915-3.7614412-5.1313846-5.8662026-.4472365-.6112307-.6747432-1.2688982-.7178551-2.0426578-.1291102-2.319701-.3261851-4.6356261-.4926589-6.9533546-.0155541-.2168556-.0020288-.43574-.0020288-.8235778.3525594.4608745.6267848.781593.8598707,1.1299258,1.768996,2.6448716,3.8145843,5.0670267,5.9686004,7.3998021.3412883.3695787.4442496.7205038.3980945,1.2273079ZM24.624401,78.4149652c-.6990324-.7682932-1.3815526-1.4867682-2.0286817-2.2357314-1.7258278-1.9972917-3.2255577-4.1701869-4.8299959-6.2618175-.1320971-.1722785-.1952151-.3175063-.0667248-.5432661,2.2062012-3.8750536,4.4027092-7.7556865,6.6031622-11.6340087.0155541-.0273887.0574262-.0398996.1086532-.0734874.2200678.2526976.1806754.576403.2246326.867535.4916445,3.2583565,2.101042,5.8103544,4.7959572,7.7018107.9240031.6485379.9029262.6784063.4053644,1.6833921-1.6344193,3.3015247-3.2685568,6.6031622-4.9036524,9.9043488-.0879144.1775195-.1832678.3514886-.3087149.5912245ZM92.6375913,53.2735816c-1.0373338,5.2905886-3.9051474,9.4327668-8.0013396,12.821586-3.7156242,3.0739616-7.8476021,5.4980891-12.0714393,7.7737765-8.6825637,4.677949-17.886753,7.976825-27.4615354,10.2750546-5.0932883,1.2224613-10.2309847,2.2131893-15.4346169,2.8326478-1.4281585.1700806-2.8652776.2657721-4.3063415.2729856-.2783957.0013525-.4780065-.0164558-.3918391-.3798354.3629851-1.5305563.4476309-3.0992088.6192895-4.6552941.1155286-1.0478723.6125832-1.6620334,1.6704304-1.9786381,2.8148959-.8425132,5.682484-1.4520532,8.5735724-1.9035163,8.2249579-1.2843959,16.1856653-3.5419932,24.0245323-6.2888681,4.4617697-1.5634115,8.6956382-3.6420241,12.9717168-5.630468,4.5245496-2.1038598,8.8760882-4.4999787,12.9157559-7.4412797,2.595617-1.889822,4.9467079-4.0302564,6.818158-6.6616591.0497618-.0699371.0786158-.1734619.2276195-.160951.0410267.3867108-.0812645.7536408-.153963,1.1244593ZM93.9147174,56.7260824c-.1854093.225647-.3638868.4570423-.6373796.6478617.0812081-.3175063.1349712-.6451003.2481328-.9507156.6707983-1.8117134.90163-3.714328,1.1657114-5.6085457.1825351-1.3098122.510749-2.53171,1.3630117-3.6082672.854686-1.0796004,1.5915892-2.252638,2.4759181-3.3233343-.4601982,4.6751312-1.5551836,9.1170075-4.6153945,12.8430011ZM99.5127247,39.6036777c-.1270251.5220201-.2679136,1.0287678-.5660336,1.4873881-1.2985411,1.9977989-2.7640069,3.8681219-4.2835176,5.7001233-.2462167.2968802-.4613253.2184899-.7185877.1191353-2.9201114-1.1274461-5.8509303-2.2241222-8.8357377-3.1726963-3.7554111-1.1934383-7.5179794-2.3632073-11.3121067-3.42731-.5053389-.1417902-.6190077-.3168301-.4746252-.8253248.4323586-1.5217649,1.022456-3.0003051,1.2733503-4.5729589.1193044-.7479489.1953842-1.4993918.1956659-2.2563575.0001127-.3143504.0703879-.5131159.386429-.4294281,1.6818705.2308881,3.2675988.6424516,4.8453246,1.0913787,4.3915509,1.2494556,8.8252556,2.3538523,13.1657485,3.7791367,2.0289071.6662335,4.037639,1.3938381,6.059558,2.0818248.234213.0796865.3303554.1542447.2645322.4250888ZM99.6749719,37.85249c-.0277832.3850201-.2142069.288596-.43512.2171374-5.4341258-1.7585139-10.9397102-3.2704166-16.4507047-4.7632147-2.4360185-.6598654-4.8719807-1.3282404-7.3784998-1.6742062-.4693278-.0647524-.5866597-.2470057-.5449567-.7134594.1305191-1.4606756.3853582-2.8729419,1.0460689-4.2082268.7018501-1.4185781,1.3681964-2.8569933,1.6816451-4.4303234.6617815-3.3213618-1.11347-6.2029261-4.3295599-6.9507623-1.3976139-.3250579-2.7963549-.1203751-4.1684962.1754907-4.5736352.9859941-8.9067455,2.5939827-12.8710097,5.1160559-.5273738.3354273-1.0126502.7369032-1.5174255,1.1078344,1.0246539-1.907743,2.0216936-3.8329562,3.0430225-5.7449822.0971567-.1818025.264025-.2454841.434162-.3163792,3.9579524-1.6491844,7.991252-3.0644376,12.2804615-3.5315675,8.6268846-.9396699,16.326272,1.1711779,22.5729299,7.3856005,3.7264444,3.7072273,5.7662281,8.362465,6.6467813,13.5317204.273211,1.6041001.106399,3.1990706-.0092986,4.7992822Z"/>
  </g>
</svg>