<?xml version="1.0" encoding="UTF-8"?>
<svg id="Layer_2" xmlns="http://www.w3.org/2000/svg" viewBox="0 0 153.3251546 179.1762883">
  <g id="Layer_1-2" data-name="Layer_1">
    <path d="M150.1504042,100.3636675c-4.5274813-1.8109111-9.3455223-2.5828883-14.0180799-3.8712804-1.7753033-.4891495-2.2314902-1.2745559-2.1743142-3.0337848.3355272-10.3063225.5375761-20.6167145.8147065-30.9248683.0885108-3.2917888-.1088581-3.6037131-3.3257688-4.6483444-3.3638183-1.0926509-6.8619289-1.580783-10.2998114-2.3399413q-4.8556835-1.0727105-4.9275095-5.973565c-.0516822-3.195139-.0925803-6.391092-.2067287-9.5839928-.0999053-2.7924657-.337562-5.579641-.4364499-8.3719032-.1021435-2.8781279-1.2476974-4.8046117-4.1182968-5.871625-3.4285228-1.2741489-6.8737303-2.4844073-10.3549526-3.5955742-1.4497463-.4629014-3.0545391-.6464342-2.8701924-2.7991803.0258411-.3023611-.3440731-.7589549-.6515211-.947371-1.0222492-.6271043-.4608667-.9465571.1725452-1.3258311,1.0326263-.6185584,1.9716549-1.357166,2.7865649-2.2489888,2.2573312-2.4697572,3.3516099-5.2772799,2.3236635-8.6069147-1.076373-3.4869196-3.6985316-5.2583569-7.1010098-5.9762102-1.9767418-.41712-3.964878-.3100931-5.9009251.3984004-3.73007,1.3653049-6.1656437,4.0505402-7.8117416,7.5588244-1.2529877,2.6701783-1.948459,5.5354873-2.8040636,8.7621647-.708697-2.0436844-1.2301987-3.6702489-1.8375661-5.2642576-.6409405-1.6821126-1.4922722-3.263913-2.5366999-4.7360413-2.9098697-4.1024259-7.4224974-5.9819074-11.9872143-4.8829489-3.2299329.7776744-5.8303199,2.5255089-6.7374033,5.8543298-.863947,3.1697049.7552924,5.6610303,2.9165843,7.8333097,1.3701883,1.3775133,3.1200574,2.2166366,5.0453205,3.4128553-1.0250978.2398949-1.6697008.3951449-2.3167454.5414421-5.1885656,1.1736332-10.3382678,2.4644669-15.3280401,4.3581916-2.2225373.8433963-3.240717,2.2282346-3.2197593,4.635729.0671461,7.7901734.2897458,15.5734288.8657783,23.3414236.0689774.9317036-.0248237,1.2761837-.9614107,1.4497463-5.0168342.9290585-9.5843998,3.1070352-14.2044613,5.1511265-1.5813934.6997442-2.3940652,1.8137598-2.5495187,3.4867161-.0921733.992949-.2693985,1.9832529-.2860833,2.9768123-.1601334,9.5843998-.3296265,19.1687995-.3955518,28.7542166-.0093598,1.3581833-.4456062,1.9840668-1.6391798,2.5269332-5.935719,2.6996819-12.0610751,4.9163185-18.1471608,7.2318431-5.1808336,1.971248-5.6323406,2.5657966-5.7491341,8.1670057-.0040695.1996072.0018313.3996213-.0061042.599025-.3967727,10.1162786.0362182,20.2349989-.1045852,30.3508705-.0480197,3.4509048,1.318913,6.0175152,4.0702771,7.967602,1.4180045,1.0051574,2.9652144,1.7653331,4.5175111,2.5297818,5.8197393,2.8659195,11.9760233,4.7565921,18.2511355,6.2812165,12.9199353,3.1389804,25.3442099,7.5340007,36.8795103,14.2575678,1.5449717.9005722,3.2128412,1.6009268,4.8556835,2.3208149,10.0881993,4.4190301,19.7747426,4.4393774,28.9696947-2.4239758,4.9030927-3.6598717,10.0125073-7.0428165,14.9927164-10.6007482,3.6295542-2.593062,7.1939971-5.3096321,11.3218571-7.0633673,10.0733458-4.2794475,18.3565346-11.4897224,27.7795802-16.8276373,1.0731174-.6079778,1.3962328-1.5529072,1.4357066-2.8270561.3243362-10.4459051-.7247714-20.8924206.1029574-31.3417848.2665498-3.3648357.0270619-3.4126518-3.0938094-4.6607562ZM150.9608378,102.3096848c.5402212.65966-.2376567.9286515-.6297494,1.1561345-7.7940394,4.5240222-16.0005189,8.2109559-24.5240096,12.2596649.4065394-1.3217617,1.1455539-1.5573836,1.7466136-1.9116303,7.0332533-4.1469865,14.4640931-7.547023,21.6076288-11.4874842.6277147-.3463113,1.2936824-.6340224,1.7995166-.0166848ZM138.0325601,98.3846876c3.0785489,1.2757767,6.4415533,1.8662558,9.9502445,2.8323464-7.6143726,4.1414927-14.9050194,8.1031151-22.1883412,12.0777599-.5099037.2781478-.9538822.3501773-1.4938999.0691809-3.6747253-1.9114269-7.7006452-2.8034532-12.1514171-4.0407735,6.5797116-2.8014185,12.5308946-5.6427177,17.8140752-9.5764643,2.6243968-1.9541562,4.8916983-2.6787242,8.0693386-1.3620493ZM111.4504195,119.3273661c-9.4189761,3.8967145-18.3465645,8.7753905-27.2230811,13.740746-1.5061083.8423789-2.7428182.8881603-4.2790406.3139591-8.0292544-2.9998048-16.0707172-5.9676643-24.1351724-8.8710229-4.7370586-1.705512-9.5245786-3.2702206-14.6791642-5.0314843,3.9477863-1.9110199,7.7704365-3.0472141,11.5517817-4.290842,1.7673679-.5811193,3.6794052-.8704582,5.2984411-1.7234177,3.6916136-1.9452034,7.2794558-1.4090516,10.9440074-.1159797,6.2167155,2.1936441,12.6792265,3.4936342,19.0214849,5.2304811.7845925.2148677,1.4340788.0549378,2.1287362-.1469076,3.2702206-.9498127,6.3213007-2.4349633,9.3805196-3.8908138,1.0743383-.5111246,2.0530442-.6220175,3.2417344-.2698054,2.7365105.811044,5.5373186,1.402337,8.2968216,2.1393168,1.2562433.3357307,2.4766753.8061607,4.1376267,1.3559451-1.5087535.6393127-2.5932654,1.1083183-3.6846955,1.5598252ZM115.6739119,119.2744631c-9.6047471,6.3731863-19.8083156,11.5355039-30.8015636,15.0850932,9.9264381-5.734891,20.0168756-11.1210291,30.8015636-15.0850932ZM80.4594224,134.7927506c-2.1350439.6777691-5.4791253.57237-9.3188673-.594752-10.1331669-3.0797698-19.775353-7.376309-29.2270882-12.1168267-.1047887-.0524961-.1725452-.1782425-.257597-.2700089.0502579-.1878057.1005157-.375408.1509771-.5632137,13.0609422,3.7481791,25.5153309,9.2582323,38.6525755,13.5448013ZM58.7895308,102.998645c-.0311314-.0022382-.0622628-.0044764-.0931907-.0065111.7172429-9.953907,1.4544262-19.9065932,2.1291432-29.8633488.0956324-1.4108829.6378884-1.2977518,1.6247332-.8484831,3.5072669,1.5964504,7.0082261,3.2120273,10.5629022,4.6973814,4.1956166,1.7535317,8.5780215,2.3700554,13.0908527,1.6241228,1.5014285-.2480338,2.1269049.1735626,1.9307568,1.751497-.4511,3.6281299-.8765624,7.2599224-1.2592954,10.8955808-.8344434,7.9254831-.5174322,15.821666.8372921,23.6647425.3064306,1.773879-.1444659,2.0225232-1.7775415,1.6096762-8.634994-2.1826566-17.1833084-4.6709299-25.7487146-7.1028411-1.0466659-.2972743-1.3445506-.8352573-1.3107741-1.8302411.0520891-1.5288973.0138362-3.0610502.0138362-4.5915753ZM55.4930622,66.5378824c-.0874935-.477755.6142855-.648469,1.0226561-.8204038,2.2030039-.9276341,4.3712139-1.9830494,6.6476716-2.6787242,2.2677084-.6930296,4.0729223,1.0928543,6.7528672,1.535205-3.1933078,1.1742436-5.7875906,2.1743142-8.4160569,3.0757003-1.3124019.4504896-1.8524197,1.2183973-1.9148859,2.6276524-.5414421,12.2218189-2.0544685,24.3858513-2.187133,36.63168-.0142431,1.3091463-.4142714,1.5866837-1.667666,1.2542086-2.7299994-.7243645-2.691543-.6657642-2.5784119-3.5955742.4179339-10.8331145.867813-21.6662291,1.1276483-32.5034131.0476127-1.9850842,1.5838351-3.5034009,1.2133105-5.526331ZM90.4930909,76.047404c-.7227367.3208772-1.375682.2673637-2.1183591.124729-8.6978672-1.6711251-17.01585-4.7134558-25.6903178-6.9738391.4567972-.5955659,1.0153311-.6981164,1.5248279-.8714755,7.8121485-2.6600046,15.7292892-4.8939365,23.9437042-5.9408059.9341453-.1190318,1.8339036-.1851606,2.7652003.0246203,6.1573013,1.3860592,12.3072776,2.7997907,18.3878695,4.4979777.1713244.0480197.3164008.189637.8057537.4948467-6.7388276,2.9639935-13.1852643,5.7888114-19.6186787,8.6439468ZM110.673559,68.6747575c.3784601-.1448729.826508-.3806983,1.0421895.0944115.303175.6692232-.3060236.9677184-.7540715,1.189911-2.2609938,1.1205267-4.5651238,2.1560016-6.8128918,3.3015555-3.7498069,1.910613-7.5763231,3.5436886-11.8622818,3.6181597,6.0449841-3.0179139,12.1276108-5.8091587,18.3870556-8.2040378ZM89.317016,114.4594742c-1.9537493-10.1419162-2.0670838-20.2913609.0309279-30.4522001.8228455,10.1492412.8899916,20.3005172-.0309279,30.4522001ZM85.1470371,77.0324176c-6.0748947,1.3630667-13.6237489-1.4285851-22.7214409-6.5198905,7.5382736,2.3134898,15.1034058,4.5297195,22.7214409,6.5198905ZM71.7312377,28.0576487c-2.3271225,1.5160785-4.8485619,2.7446495-6.9347723,4.6125331-.4968815.4447923-.9518474.3725594-1.4580887.2132399-1.296124-.4071498-2.5845161-.8383094-4.3168866-1.4039648,6.3166208-2.3796186,12.1151989-4.7714456,17.6370535-7.8904857-1.1290726,2.0788853-3.054946,3.248856-4.9273061,4.4686776ZM72.9508558,30.4519174c-1.091837,3.8228537-2.092518,4.4147572-5.4193042,3.0950302,1.864628-1.064775,3.5943534-2.0528407,5.4193042-3.0950302ZM70.4550541,35.7790482c1.266417.2203614,1.2428141,1.133142,1.2391515,2.1016743-.015464,3.9905156-.0065111,7.9814382-.0065111,11.9719538-.151384,0-.3027681-.0004069-.4539486-.0006104,0,3.9939747-.0449676,7.9885598.0254341,11.9811101.0233994,1.3262381-.341021,1.6890307-1.5891254,1.1929631-3.7662882-1.4971555-7.5366459-2.9855617-11.3257231-4.4235065-.8448206-.3204702-1.0499215-.8421754-1.069048-1.6613584-.1806842-7.7234342-.0716226-15.4403573.3743906-23.1540248.05331-.9192917.3450905-1.1715985,1.2065958-.8967062,3.8033203,1.2133105,7.6640201,2.2032074,11.598784,2.888505ZM92.7772806,115.5716585c-.583561.2775374-1.1333455.6991338-1.9366575.6387023-.227076-2.9220781.2067287-5.8118039.3540433-8.70682.4596459-9.0480445-.0297071-18.0794042-.4492687-27.10995-.0704017-1.5154681.2673637-2.0412427,1.880092-2.0941458,3.7789035-.1237117,7.2646022-1.4450664,10.6229268-3.115581,2.3781943-1.182993,4.7856887-2.3086065,7.141501-3.5341253,1.2251119-.6374814,1.5818003-.3542468,1.6326686.9964081.1701036,4.5230049.0948185,9.044382-.0887143,13.5602653-.2588179,6.375628-.6641364,12.7451518-.9614107,19.1193555-.0559551,1.201509-.5247573,1.8542509-1.6469118,2.3747353-5.5409811,2.569866-11.0319078,5.2475728-16.5482687,7.8711557ZM109.2887206,65.5490028c-5.0229384-1.4422178-10.0772117-2.7757809-15.6599048-4.3046782,3.2148759-.6439926,5.8645034-1.8320723,8.7676585-1.1020106,4.0655972,1.0222492,7.9285352,2.6573595,11.8647235,4.0696667.6018736.215885.7917141.341428.5680971,1.2116827-.2787582,1.0849189.7109352,2.1848948.7764536,3.4549743.3013438,5.8514811.3202668,11.701538.1955377,17.5540365-.1149623,5.3859346-.345294,10.7698344-.39779,16.1559724-.0185161,1.9051192-.7213124,2.9778297-2.7474981,3.2913818.2411157-5.1914142.5739978-10.3384713.6952678-15.4906152.151384-6.4484714.2075426-12.9018262.1538257-19.3517219-.0354043-4.2287827-.1699001-4.3268568-4.2163708-5.4886885ZM101.5640656,29.711682c-2.9031551.4260728-5.7285834,1.5901427-8.5993862-.4264797-2.8256318-1.9846772-5.8583992-3.6730975-8.7808842-5.5218546-.5860027-.3709316-1.288799-.6661711-1.6524055-1.7612637,6.5565156,2.4170577,12.5333363,5.6628615,19.032676,7.7095981ZM82.3602687,20.6805258c3.7455339-1.4342823,7.0572631-2.2200957,10.5553737-1.6711251.8134857.1273742,2.0363594.2628873,2.0888555,1.1888937.0581933,1.0232665-1.1785165,1.0379166-1.9702306,1.209241-3.4519222.7467465-6.8373086.2649221-10.6739985-.7270096ZM94.8238137,57.4359175c.5497845-7.5140603.5092933-15.0299519.1505701-22.5480818-.0594142-1.243221.6114368-1.9995307,1.6839439-2.0613866,1.281067-.0740642.8598776,1.1166607.8680165,1.8046035.0443571,3.7270179.0211612,7.4546462.0211612,11.1818675h-.2071357c0,3.8594789-.0630767,7.7201787.0323522,11.5772159.0358113,1.4495428-.7917141,1.7278941-1.8314619,1.7085641-1.2000847-.0221786-.7601757-1.0798321-.7174464-1.6627827ZM133.0641525,62.8623432c-2.0699325,9.6613126-.7768605,19.3842776-.4578146,29.0726521.1078408,3.2738832-.8665922,5.0982235-3.9079055,6.3194694-3.5072669,1.4080343-6.8521622,3.2319677-10.2241194,4.9594548-1.3225755.6775656-1.5622669.2848624-1.5512794-1.0263186.0447641-5.3928526.0187195-10.7863157.0187195-16.1795753.0431363,0,.0862726,0,.1298159-.0002035,0-5.2601881.0349974-10.5209867-.0272654-15.7805644-.0138362-1.1734297.3764253-1.7612637,1.4393691-2.2432916,4.359209-1.9771487,8.6850484-4.0291755,13.0003072-6.1011427,1.1667151-.5599581,1.8923004-.477348,1.5801726.9795198ZM132.4128349,59.9119824c-1.2951067.6264939-2.4642634,1.2076132-3.6464425,1.7608567-3.3046076,1.5472099-6.6027041,3.1096803-9.9360014,4.5919823-.4797897.2134433-1.1905215,1.1457574-1.6446736.2051009-.435636-.9026069.5514123-1.1781096,1.1880798-1.4938999,3.388642-1.6802814,6.8314079-3.2612678,10.1455787-5.0770623,1.3315284-.7296548,2.4298765-.84889,3.8934589.0130223ZM126.5886192,58.6128063c.0457815.2020488.0913594.4040977.1369374.6061465-2.9540233,1.5042771-5.9088606,3.0071298-8.8612561,4.514459-.3605544.1841432-.7420666.4230207-1.1182885.1467041-3.2946374-2.4197028-7.2961406-3.1202609-10.9956896-4.5537293-.1027539-.0398807-.1625751-.1906544-.2970708-.3575023,3.0354126-.5428664,6.1880258-.648469,8.9764219-1.7099884,4.4910596-1.709785,8.1655814.5581269,12.1589457,1.3539104ZM114.6425064,51.2183881c-1.1760749-3.8427941-1.2597023-7.1508608,0-10.4935178v10.4935178ZM114.0296453,30.3282057c.4138644,2.3391275.3524155,4.6277936-.2893388,6.9058791-1.5862768,5.6309162-2.0174364,11.2410782.3190459,16.7938608.5510053,1.3091463.4238346,1.9405235-1.2542086,2.1732968-4.1412892.5744047-8.2549061,1.3620493-12.3652674,2.1387064-1.4104759.2665498-1.838787-.0824066-1.7925985-1.5756962.1147589-3.7194894.0376425-7.4450829.0376425-11.1684383-.0248237-.0002035-.0496475-.0002035-.0744712-.0006104,0-4.1199246.0598211-8.2414769-.0435433-12.3587563-.0248237-.9862344.2811999-1.2916476,1.1093357-1.4658206,4.2230854-.8881603,8.4465778-1.7753033,12.6596931-2.7088382,1.1492164-.2547484,1.5014285.1778355,1.6937106,1.266417ZM99.9340421,23.2538508c3.7070775,1.4161732,7.546616,2.4823726,11.5554443,4.2965393-2.4978365.8651679-4.3811841,1.1768888-6.6177611-.030521-2.5936724-1.4007092-5.5566485-2.1169348-8.4917489-3.1782508.9795198-1.2851365,1.9956648-1.68313,3.5540657-1.0877675ZM101.5099417,10.1514002c-.4305492,3.1758091-4.1537011,6.2563927-7.9330116,6.7133935,3.2026675-1.7274871,6.1261699-3.2628956,7.9330116-6.7133935ZM97.0258002,2.2015003c-7.2318431-.0954289-11.0599871,4.6416297-14.5467032,10.3020496,1.1860451-8.415243,7.8756321-13.1272744,14.5467032-10.3020496ZM81.2956971,18.6321615c2.0371733-6.0805919,4.9452117-11.4905363,11.167014-14.309657,1.1089287-.5023752,2.2634354-.7662799,3.4883439-.6958782,1.8491641.0974636,3.7001594.4114227,4.6074462,2.2237582.9013861,1.8003305.1165901,3.5139815-.928855,5.041251-1.686589,2.4632461-4.19582,3.8769776-6.8731199,4.9214053-3.4598576,1.3498409-7.0043601,2.4813552-10.5032845,3.7316978-1.0055644.3593336-1.250953-.0364217-.9575447-.9125771ZM79.6312867,23.32059c.288118-.78093.416713-1.2442384,1.266417-.5046134,3.2860915,2.8608326,6.599245,5.6907374,10.158601,8.752398-2.9617553.4608667-5.6392586.8816492-8.3187967,1.2906303-.5182461.0789476-1.1557276.2307386-1.3549278-.4464201-.8724929-2.9690804-3.0071298-5.6895165-1.7512935-9.0919947ZM90.8271938,32.9989944c2.2213165-.3239293,3.0875017.3815122,3.1092734,2.6581734.0352009,3.6568196.0095632,7.3144532.0095632,9.260674.1422277,5.5057802-.17458,9.2846838-.3499738,13.0700985-.0512752,1.1097426-.371135,1.644877-1.5101778,1.8678836-5.6679484,1.1105565-11.3365071,2.2272172-16.9721033,3.4891578-1.7525143.3924997-2.0597588-.1560639-1.8371592-1.6990009.9534752-6.6071805.9565273-13.2526139.7306721-19.9051689-.0225855-.6645433-.0394738-1.3296971-.0817962-1.9930196-.2738749-4.2810753-.2734679-4.2639836,4.0832994-4.8788794,4.275378-.6030944,8.5454658-1.2468835,12.8184022-1.8699183ZM78.6521738,33.1149741c-.826508,1.1856381-2.8518798.7613966-4.6617736.9925421.7858133-1.8693079,1.9230248-3.2630991,2.9428323-4.8658572.2173093.1318506.2976812.1521979.3263709.2022523.6812281,1.1905215,1.9795904,2.8286839,1.3925703,3.6710628ZM67.4851598,24.7754231c-.8214211.1774286-2.0982152.6861115-2.486849-.3125348-.3544502-.9115598.8163343-1.5183167,1.5069222-2.122632,3.1314519-2.74058,6.6596765-2.5012956,10.6760333-1.2717073-3.3044041,1.607031-6.3790871,2.9910555-9.6961065,3.706874ZM77.108016,15.5031512c-2.058131-3.3137639-3.9024117-6.3015638-6.7595819-8.4400667-2.9222815-2.187133-6.1615742-3.0335813-10.2092658-2.0870242,6.185991-5.105752,14.8944388.3552641,16.9688477,10.5270909ZM57.5988059,10.7001673c-.5485636-1.944186-.0207543-3.1666528,1.788936-4.0733292,2.5643722-1.2847295,5.1413598-1.09143,7.6998313.0109876,2.1185625.9127806,3.8541886,2.350115,5.2955925,4.1252149,2.1387064,2.6333496,3.7565215,5.568043,5.1804267,9.0722578-4.6145678-1.0010879-9.0492653-.9217334-13.2186339-2.3737179-3.3105083-1.1528789-5.7564592-3.2525185-6.7461526-6.7614131ZM68.4720046,26.4809352c-4.397055.9717878-8.0951797,4.4546379-13.0222823,3.5208996,3.9144167-2.7049722,8.2005788-4.0747535,13.0222823-3.5208996ZM55.8283859,55.665701c-.0054938.5556852.4913877,1.5234036-.5923104,1.5547384-.9339418.0268585-1.0942787-.8167413-1.0971273-1.5931948-.0085459-2.1938476-.12127-4.3954272.0219751-6.5799151.3485495-5.314719.2449817-10.6355421.3973831-15.9518888.0160744-.565045-.5263851-1.6467083.7082901-1.6054032,1.1097426.0370321,1.2407793.8590637,1.1693603,1.8554718-.2659394,3.7131817-.4502861,7.4322641-.5886479,9.8206321,0,5.0534594.0177022,8.7766113-.018923,12.4995597ZM62.0998357,21.4282897c-1.0674202,1.0712862-1.8880275,2.0742054-1.2594989,3.597609.2850659.6905879-.1231013.9040313-.6985234,1.1176781-2.1743142.8073815-4.3779285,1.5573836-6.3467348,2.82787-.3043958.1965551-.5921069.2055079-.9294654.0569725-2.225386-.9807406-4.4574865-1.9460173-7.0824938-3.0879087,5.6528913-1.9277047,10.8760474-3.543892,16.3167162-4.5122208ZM52.7203334,30.7257922c.5168218.2278899.5876305.6490794.5798985,1.1429087-.1245256,7.9735027-.318639,15.9443603-.8248802,24.1601996-1.0014949-.3990109-1.6806883-.6535558-2.3476733-.9380113-4.9934348-2.1291432-6.1229143-4.794845-4.2656113-9.9673362,1.106487-3.082008.4443854-6.1843632-.0008139-9.2673886-.3979935-2.7562474-1.0137033-5.4852295-1.0012914-8.6150536,2.7369175,1.2143278,5.2970168,2.3533706,7.8603717,3.4846813ZM43.2376702,55.1254798c-1.6290061,1.1028245-3.4663688,1.4963416-5.3773887,1.6383659,1.6851647-.9127806,3.4338131-1.607438,5.3773887-1.6383659ZM47.2766125,56.2122299c.5184496-.1349027.9152223.0445606,1.3148436.2714332,3.8843026,2.2040213,8.0685247,3.7164373,12.2822504,5.5049664-3.6397279,1.1840103-6.5585504,4.2676461-11.1055651,2.9523956-5.5153435-1.5952296-11.0760615-3.040296-16.5405367-5.1214194,4.6839522-1.1986604,9.369939-2.3895888,14.0490078-3.6073757ZM27.8087074,61.6760947c.2073392-.901793.8140961-.9347557,1.5229966-.7589549,1.5484308.3841573,3.1186331.7046276,4.6341012,1.1931666,5.193042,1.6741772,10.5020637,2.9117009,15.7748672,4.2884003.6714614.1753939,1.4753839.1528083,1.9401166,1.3551312-4.6621805-.6531488-9.0258659-1.470704-13.3244399-2.6014044-3.1481367-.8281358-6.2336037-1.8896552-9.4444102-2.4913254-.4726682-.0885108-1.338243.037846-1.1032315-.9850136ZM27.5437854,64.9223055c.007325-1.1532859.5965833-1.1138121,1.4041683-.8995548,3.0142514.799853,6.041932,1.5518898,9.043975,2.3950826,4.4220822,1.2420002,8.941628,2.001769,13.4650399,2.7114833,1.3402777.2101878,1.7409164.5937347,1.6597306,1.9771487-.3312543,5.6396656-.5298441,11.2872666-.7772675,16.932019.0449676.0020347.0899351.0036625.1346992.0056972-.258004,5.7108812-.5449011,11.420745-.750816,17.133661-.0435433,1.2102584-.2779443,1.6509812-1.5852594,1.2377272-6.4543721-2.0398184-12.9484215-3.9481932-19.6003661-5.249811-1.7221968-.3369516-2.1610884-1.2399654-1.9038984-2.9458844,1.148606-7.6196629,1.1056732-15.1955791-.697099-22.7615251-.8173517-3.4305575-.4156957-7.0143303-.3929067-10.5360437ZM27.2638063,80.6479322c1.2468835,5.1157222.7976148,10.2340896,0,15.3052511v-15.3052511ZM6.7681583,104.8697841c5.7096604-2.3476733,11.4480104-4.6269797,17.1436311-7.0080226,1.2314196-.5147871,2.0113322-.7158186,1.8438738,1.0043435-.1924856,1.9781661,1.1443331,2.8083366,2.5816675,3.5965916,4.0267338,2.2093116,8.4974461,2.9631796,12.8961289,3.9630467,2.3098273.5251642,4.692905.7587514,7.3372422,1.7156857-6.1509936,2.4365911-11.925155,4.7504879-17.724954,6.9986628-1.1718019.4543556-2.357847-.0063077-3.4944481-.4071498-7.4548497-2.630501-14.6891344-5.8022406-21.9641138-8.9172113.159116-.7900863.8899916-.7441013,1.3809723-.9459467ZM2.5308297,107.0746193c.2844555-.5312684.8328156-.204694,1.254819-.0844414.7027963.2004211,1.4096621.4051151,2.084786.6814316,6.0893413,2.4917323,12.1776652,4.9854994,18.2521529,7.513043,1.3809723.5746082,2.7403765,1.2297918,4.2940976,2.6581734-4.7425524-.0042729-8.6191231-1.0596882-12.4071829-2.6083224-4.5177146-1.8469259-8.684031-4.3221769-12.7754693-6.9431147-.4388916-.2811999-1.0482937-.5721665-.7032032-1.2167695ZM7.0833382,150.9145395c-2.095977-1.0873606-3.8899999-2.5328339-4.7240364-5.0536629,9.2623017,3.9447342,18.1978256,8.5940959,27.3649019,12.6664077-7.8593543-1.7339983-15.5132007-3.9152306-22.6408655-7.6127448ZM23.5935574,154.0982841c-6.1918917-2.9119044-12.3207068-5.9603393-18.5429161-8.805301-3.2810047-1.5000041-3.3186472-1.3604216-3.369719-5.06404-.0579899-4.1956166.1414138-8.361933.6395161-12.5398474.5131593-4.3030504.1273742-8.6331627-.420986-12.9349923-.2181232-1.7105989-.9129841-4.154515.1283916-4.9545715,1.0395444-.7986322,2.8254283,1.114626,4.1691651,1.9944439,6.5705553,4.3038643,13.6719721,7.0835111,21.5421104,7.6953549,1.0474798.0813893,1.1309038.5721665,1.1361941,1.3948085.064094,9.8039473,1.2424071,19.5039198,2.7912448,29.1652324.4187478,2.611985.9656836,5.2032157,1.5254383,8.1851148-3.5101155-1.2055785-6.5451212-2.7002923-9.5984394-4.1362024ZM33.9792345,155.1703841c-1.7413233-11.1096346-3.4329992-22.2017704-3.5831624-33.4851711-.0231959-1.751497,1.0782043-3.0919781.9935594-4.7669692-.0240098-.4736855.556906-.4989162.9097285-.6409405,5.8547367-2.3529636,11.7170019-4.6870043,17.5650241-7.0564492,1.4316372-.5803055,2.7824955-.5746082,4.2466883-.0449676,1.8603551.6728857,3.7919258,1.1490129,5.9576941,1.7879187-3.5935395,1.6994078-7.194404,2.6321288-10.708182,3.7898911-3.6647551,1.2070028-7.232657,2.6435233-10.7787872,4.1549219-1.3067046.556906-1.9464243,1.4151558-2.1958823,2.7892101-.7695355,4.2403807-.5282163,8.4974461-.1786494,12.7337573.666985,8.0868373,1.917938,16.1014416,3.3204785,24.0916291.1245256.7093074.1141484,1.4422178.1800737,2.350115-3.4197734-.6163202-5.1824614-2.2170436-5.7285834-5.7029457ZM61.8440699,170.936095c6.5697414,1.9132581,13.2412194,3.5027905,19.5260984,6.3351369-7.3982841.6287321-13.3787672-3.1054074-19.5260984-6.3351369ZM81.0661794,175.0857267c-12.5905122-3.8271267-25.1895703-7.6275984-37.5631802-12.1263899-.8138926-.29585-1.5734579-.5449011-1.7779485-1.6251401-1.9932231-10.5258701-3.9388334-21.0558096-4.3722313-32.4138849.0724364-1.3830071.2698054-3.3772475.2531206-5.3696567-.0142431-1.728301.6238487-1.6143561,1.8658489-1.0128894,7.4208696,3.5923186,14.8978979,7.0649951,22.5895903,10.0475047,6.0282993,2.3372962,12.0863057,4.6050046,18.73296,4.0959147,1.4214635-.1088581,1.2835087.7432875,1.2035437,1.6338895-.4413333,4.9065518-.7913071,9.8155453-.8596741,14.7465138-.0964463,6.9394521.2409122,13.8443138,1.5321529,20.6704314.3243362,1.7148718-.3072445,1.7478344-1.6041824,1.3537069ZM83.5717479,169.4623389c-1.3864661-8.4402702-1.1911319-16.92856-.655387-25.4760605,1.2275536,2.6398608,1.7915812,21.2523647.655387,25.4760605ZM84.8275842,177.945135c-.166848-.2862867-.333696-.5725735-.500544-.8590637,9.5192883-5.4919441,19.2538513-10.6141774,28.6986684-16.2341061-9.1676867,6.0956489-17.0445397,14.408138-28.1981245,17.0931698ZM118.0576,156.0428771c-10.5325847,6.0940212-20.8214085,12.6141151-31.7017288,18.0989376-.4511.2272795-.8924333.6010597-1.5071257.4338048-.2661429-1.6933036.2492546-3.3155951.3794774-4.9610826.8181656-10.3407095.1112998-20.6150867-1.3524861-30.8489728-.2225996-1.5567732.2567831-2.3924374,1.6123213-2.9296066,2.0990291-.8317983,4.1738449-1.7285045,6.2897623-2.5149283,8.3297842-3.0956407,16.0009259-7.4922887,23.6543653-11.9243411,1.9755209-1.1443331,1.9608708-1.1697672,2.1808253,1.1125912.5241469,5.4412793.4500826,10.9053475.5939382,16.3598525.1334784,5.0556976.0268585,10.1197376.6057396,15.1569192.0933942.8134857.1680688,1.4829124-.7550889,2.016826ZM120.3002811,153.1486748c-.5351344-4.7708352-.500137-9.5646629-.6210001-14.3501481-.1574882-6.2482538-.0333696-12.4997632-.7878481-18.7321461-.2191406-1.8109111-1.0533806-2.7137215-2.5251019-3.4325922-2.6569525-1.2973449-5.5365047-1.8410252-8.3544045-2.600387-1.0863432-.2925944-2.1669892-.6055361-3.4116345-.9542891,3.119447-2.3000606,6.0968698-3.2761214,9.6934614-1.8923004,2.6512553,1.0202144,5.4754627,1.5758996,8.1145096,2.7110764,1.2753698.5485636,1.758822,1.3372256,1.9627021,2.6622428.9626315,6.2604622,1.2167695,12.5726066,1.5451752,18.8819023.2315525,4.4497545.4570007,8.900323.758141,13.3456011.0659253.9715843-.1346992,1.6058102-.9652767,2.1661753-1.3213547.8912124-2.5757667,1.8859927-3.8228537,2.8813834-1.0187901.8128753-1.4393691.6199827-1.5858698-.6865184ZM123.7226997,154.3741937c4.9472464-4.4395809,10.2703078-7.3134358,16.1997191-9.8639719-1.9728758,2.5224568-12.213273,8.7617578-16.1997191,9.8639719ZM151.39098,133.4357881c-.8179621-4.044843-.8924333-7.9983265-.1029574-11.9489613.4679883,4.0078108.7609896,8.0158252.1029574,11.9489613ZM151.7206066,106.7047051c.3164008,4.4090599-1.4727387,9.4549908-1.9769452,14.6761121-.4822314,4.9979112-.5760325,9.9746613.9119667,14.8295309.4122366,1.345975-.057176,1.9431687-1.1634595,2.4372015-4.3054921,1.9224144-8.6321454,3.8008786-12.8892108,5.826047-2.335058,1.11076-4.5974761,2.399152-6.7960036,3.763643-1.5557558.9654801-1.7791693.4783654-1.8796851-1.0946856-.4761272-7.4349093-.3520086-14.9003395-1.1569484-22.3165293-.2223962-2.0487713-.4220033-4.1022224-.731486-6.1383783-.1644063-1.0808494.0828136-1.6900481,1.1500303-2.1543738,7.8676967-3.4220116,15.4596873-7.399505,22.9556385-11.5633797.9998671-.5554817,1.9327916-1.0853258,1.5761031,1.7348122Z"/>
  </g>
</svg>