<?xml version="1.0" encoding="UTF-8"?>
<svg id="Layer_2" xmlns="http://www.w3.org/2000/svg" viewBox="0 0 80.8538538 174.643788">
  <g id="Layer_1-2" data-name="Layer_1">
    <path d="M80.4386653,27.9213071c-.9263578-2.7090622-1.510854-5.5016748-2.0306833-8.3039072-.5150193-2.7755106-2.3607873-5.064327-2.7211761-7.8947065-.4932855-3.8719976-2.7154755-6.6017247-5.9538087-8.5912563-2.8332298-1.740662-5.9529179-2.6689794-9.2356094-2.9490245-6.2965611-.5369313-12.5729916.2600928-18.8551229.4888319-6.0635464.2207226-12.0704425,1.0321764-17.8612478,2.9974802-5.2057747,1.7666713-10.2836408,3.7456923-14.3248768,7.7078316C3.7661654,16.9550118,1.478596,24.0909956.0662566,31.6319046c-.2437034,1.3011765.2157345,2.5047291.8736267,3.6614293,6.4214412,11.2882046,12.9365871,22.5361483,16.0772964,35.3186393.1298682.5287365.3591418,1.0400148.9480916,1.1431612.6333081.1108066.9434598-.4291531,1.1846691-.8652538.6327737-1.1451208,1.1932201-2.3297899,1.9246865-3.7802525.2839643.814126.4866942,1.3325301.6463127,1.8637607.854387,2.8423152,1.784664,5.665747,2.5143489,8.5399503.4752928,1.8733806,2.2524747,3.4538895,2.0586521,5.19758-.2059365,1.8523594-1.3535513,3.6714055-1.8872759,5.5802371-1.963166,7.0180513-3.1968252,14.1939397-4.5836898,21.3343771-2.2752773,11.7141511-5.6019708,23.2054418-7.3859222,35.0223829-.3919206,2.5952271-.7122267,5.1972237-.7601479,7.8227356-.070902,3.8734228.9625214,7.3121699,3.701334,10.227703,1.9588905,2.085374,3.9070923,4.1641566,6.1225127,5.9767895.6060518.4957796,1.336093,1.381342,2.0641746.5046869.5944723-.7159677-.345959-1.3455347-.8021903-1.8621574-.7293286-.8262399-1.5357944-1.5990361-2.3875092-2.2998615-4.9096965-4.0403453-6.8735751-9.2197545-6.1691869-15.502242.5460167-4.8689011,1.448503-9.6761638,2.4806794-14.4552795,2.6296092-12.1750141,5.3580893-24.3284725,8.0030191-36.50028,1.0127585-4.6606488,1.6642375-9.3995035,3.2224782-13.938835.4366352-1.2714261,1.0973777-1.8288441,2.4815701-1.953368,2.5433867-.2290954,5.1434237-.1941789,7.5979157-1.0303949.9101466-.3103299.9826519.2718504,1.1162612.8121664,1.0350267,4.179299,2.2535436,8.3156648,2.9069821,12.5842148.9121062,5.9595093.865432,11.9664054.9103247,17.9676008.0445364,5.9445451.0573629,11.8819643.6662651,17.8120796.7915015,7.7080097,1.4381705,15.4316963,2.0586521,23.155561.1877656,2.3370939-.0340258,4.6284044-1.6528361,6.6029717-3.5336988,4.3104142-7.7667978,7.8808111-11.9578544,11.4975258-1.3628149,1.1761182-2.8685027,1.1693486-4.3510315.1820649-.8119883-.5406723-1.5838937-1.1412016-2.692851-1.9462422,1.2502268,4.1506175,5.8177053,5.5770304,9.2140538,3.1633338,3.5764538-2.5417834,6.5390174-5.7854609,9.7575764-8.738761,3.7872002-3.475267,4.8086879-7.6296256,4.3268036-12.6337393-1.3120433-13.6217356-3.0845934-27.2074858-2.9342384-40.9500042.1108066-10.1122646-.6758849-20.1561212-4.6488911-29.6621559-.2511855-.6012419-.1735139-1.0973777.2926934-1.5876348,2.6602503-2.7977788,3.5741379-6.3247081,4.1584559-9.9955791.1911504-1.200346.2903776-2.4511072,1.0760002-3.6282942.1193576.2955438.1804616.3969087.2009484.5057557.1667444.8832466-.1706636,2.2360853.7539128,2.4819264.8647194.229808,1.3685155-1.0592545,1.954615-1.7392368,4.1454513-4.8081534,7.7831872-10.0572176,12.4522088-14.4093179,3.8367247-3.5764538,7.7616316-7.0597374,11.5596987-10.676274,2.4910118-2.3721886,4.7677143-4.9526296,6.5014287-7.9641833,1.1980301-2.0812766,1.5619818-4.2566142.7777843-6.5498843ZM19.0384213,66.037547c-.1756517.4279061-.3527286.8550995-.6607425,1.6015302-.3986902-1.3852612-.6849704-2.5043728-1.0423307-3.6003253-1.6644156-5.1042316-3.7946823-10.0176692-6.3394942-14.7367498-2.431333-4.5088686-4.9417627-8.9787233-7.5548044-13.3842673-1.2053341-2.0326429-1.5637633-3.9879705-1.0303949-6.3149101.8228552-3.5896366,1.8258157-7.0836089,3.4164789-10.419566,3.1731319-6.6549903,8.04328-11.2233595,15.2289664-13.4115236,6.8058797-2.0723694,13.7471502-3.0503894,20.8027902-3.3988425,4.7148051-.2326583,9.4374485-.3071232,14.1570635-.4391292,3.1168378-.0872914,6.1643769.3486312,9.1094822,1.3745725,8.9534266,3.1187974,10.677521,10.793672,6.6245274,18.4795917-2.8535384,5.4106423-7.24875,9.6766983-11.668902,13.8472681-5.6367093,5.3187191-11.2769814,10.6338753-16.9231324,15.9429745-1.9271806,1.8122766-3.0181451,4.1285274-3.8746698,6.5532691-.3441776.9744572-.8590187,1.4330043-1.8541408,1.501056-.7539128.0516623-1.4999871.2109246-2.2522965.2960782-2.3648847.2682875-4.5988322.442514-5.2939569-2.7382781-.2561736-1.1714864-1.4087765-1.9539024-2.3094813-2.7927907-5.4327324-5.0604078-10.1307917-10.7705131-14.6065252-16.6687403-1.3410811-1.7673839-2.3272959-3.7492552-3.1888087-5.8020285-.46211-1.1011188-.3213749-1.9480236.3577166-2.9027066,4.7871322-6.7298115,11.4374907-10.5813223,19.2543475-12.7634294,7.484615-2.0894713,15.0957134-1.9763488,22.731396-1.5349037,3.657332.211459,7.3499368.1711981,10.9301317,1.1449426,2.6622099.7239843,5.2490641,1.5773024,7.0844997,3.845632.3539756.4373478.7840194.8828903,1.4531348.8463704.2032643-1.9425011-1.3147155-3.9371989-3.8002049-4.9791733-3.3694485-1.4123394-6.9049287-2.0924998-10.5351826-2.2645886-7.9695277-.3774908-15.9431527-1.0143618-23.8820393.476718-4.3098798.8094942-8.5034304,1.9597812-12.4775055,3.838328-4.9474634,2.3383409-9.0711809,5.6383126-11.9879611,10.545515-.7252313-1.8448772-.4223835-2.8232536,1.0175684-4.2528732,2.6203456-2.6014622,5.3076741-5.0438402,8.342743-7.1217321,3.2084047-2.1965369,6.6382446-3.8589929,10.5583415-4.338205.5992823-.073396,1.2936943-.0480993,1.6143567-.7731525-2.1106707-.8187578-6.8625301.6678684-11.7070252,3.7273432-3.5928432,2.2690422-7.0588467,4.709817-9.896352,8.4743927-.0541563-1.9168481.5112783-3.2189153,1.2414976-4.4242494,2.9358417-4.8448515,6.5035664-9.093271,11.5326205-11.9236504.3792723-.2134186,1.0150744-.3995809.7348512-.9776638-.1989888-.4109822-.7416207-.1514239-1.124634-.0676954-.2809358.0614603-.564722.1646067-.8143042.3069451-6.0403875,3.4476544-10.918374,7.9951807-13.1954329,14.7502888-1.3455347,3.9913552-.6520134,7.9444091,1.0784943,11.726265,2.2619164,4.9431879,5.6997728,9.0498034,9.3188035,13.0210282,2.0020018,2.1968932,4.024134,4.3768626,6.0808266,6.522628.6407902.6684028.8358598,1.1125201.2556391,2.0383435-2.1764065,3.472773-3.3601849,7.4055183-4.9059554,11.170094ZM43.9211052,54.7416821c.5807551.8789711.8754081,1.8794375,1.1654294,2.8765192.0969113.3327762-.0969113.5445915-.4378822.5948286-1.351948.1984544-2.635488.8162638-4.1709261.7574757.4647822-1.716256,1.4292632-2.9803782,2.4687436-4.1978261.2951875-.3456027.6450657-.5294491.9746353-.0309974ZM29.725384,59.6203813c-1.8263501.1941789-3.3576908-.1083126-4.8950885-.3131802-.1140133-.0149642-.306767-.0065914-.3286789-.0619947-.5258862-1.3353804.6596737-2.123319,1.0421526-3.1699252.2926934-.8009432.7881167-.6609207,1.3191692-.1856279,1.1258811,1.0075923,1.9895316,2.2054442,2.8624457,3.730728ZM45.8550553,62.9335357c-2.0490323,2.1149462-2.67949,4.8393289-3.3060286,7.5708375-.1948914.8502896-.3627047,1.7100209-.6153154,2.5435648-1.795709,5.9254835-3.1342961,6.584979-9.6138128,6.9829566-.1934663.0117576-.3958398-.1182888-.5939379-.1822431,1.5459487-.6700061,3.0890471-.9110373,4.6007918-1.2188731,3.2037729-.6523697,3.5215849-3.5638055,4.9082713-5.6445477.090498-.1357471.0265437-.5082498-.1001179-.6263604-.2526107-.2355087-.6773101-.0778497-.7403737.1499987-.6887114,2.4879834-3.5447439,2.7566271-4.7577382,4.6937839-.4501743.7191743-1.2985043.689424-1.9667289,1.0018916-1.0818791.5057557-2.3864403.2996411-3.2488438,1.6143567-.6627021,1.0100863-3.329722-.0787404-3.7804307-1.4782533-.9090777-2.8228973-1.7224911-5.6764357-2.6217708-8.5025397-.4934637-1.5505805-1.0588983-3.0797835-1.6396534-4.6004355-.2176941-.5700664-.265259-1.0517724-.0609258-1.6635249.981583-2.9386921.9600274-2.969155,3.9963433-2.2692204,6.0640809,1.3980877,12.0349915.6375836,17.988622-.7072386.5132379-.1159729,1.1960705-.6133558,1.4958897.2123497.2410312.663771.7307538,1.4267692.0557596,2.1234972ZM77.3191553,34.3015966c-3.542428,4.7140925-7.3346163,9.2147664-11.686004,13.2027368-4.8615972,4.4561375-9.5056784,9.1114418-13.7574827,14.1577761-1.0727936,1.2732076-2.175872,2.5416052-3.767426,3.6701585-.5062902-3.3885101-.8486863-6.5101578-2.0490323-9.4622108-.3979776-.9789108-1.7166123-1.7554481-1.2432791-2.8196907.3896047-.8759426,1.4905454-1.4273036,2.2544343-2.1459435,7.0442387-6.6291591,14.1714933-13.1767276,20.8722671-20.1568338,3.7018684-3.8563208,6.78183-8.1528396,7.8615714-13.5690045.0169238-.0844411.1642504-.143051.2754133-.2339054.5796862.7034975.7181055,1.570711.8944697,2.40568.6012419,2.8462344,1.0988029,5.7161622,1.7679183,8.5460073.5689975,2.4067489.0226245,4.4819686-1.42285,6.40523ZM10.508269,149.384455c.0970894.382657.1886563.8618691-.2048676,1.1230307-.3252941.2160908-.7013598.0680517-.8859187-.2857458-1.9243302-3.6902889-4.7425958-6.9539188-5.3867708-11.2554258-.042755-.2866365-.0399046-.5798644-.0538-.8020121.1622908-1.9353753.6384743-3.7284121,1.1782559-5.5155701,3.2493782-10.7578647,7.6848508-21.0867545,11.4080967-31.6721742,1.8131673-5.1541125,3.4093531-10.3844713,5.1101105-15.5781321.1989888-.607477.407063-1.2156665.6687591-1.7974905.3087266-.6858611.3546882-1.8234998,1.5495116-1.3968407,1.0480314.3742842.5577743,1.2644784.3566478,1.9476673-2.2971893,7.8091965-4.4890944,15.6575851-7.5886521,23.1999193-3.3184988,8.0753462-6.0806484,16.3455839-8.9071087,24.5976507-1.4928613,4.3588699-1.6097249,8.5123377.766383,12.6080864.8732704,1.5053315,1.5577063,3.1250325,1.9893534,4.8270369ZM18.7243504,111.3040224c-3.5955154,9.8920765-5.7318391,20.1288649-7.2923957,30.5085263-.1150821.7651359.0602133,2.062215-1.0927459,2.0835925-1.004742.0185272-1.1853817-1.1768307-1.4310447-1.9767051-.6536167-2.1267038-1.0257632-4.3098798-.7907889-6.5459651.0605696-.5777266-.0776715-1.5283123.7400174-1.502303.7020723.0224464.5005895.9151346.5369313,1.4616858.1018994,1.5422076-.0473868,3.117016.8045061,5.020325,1.7757567-10.8898707,4.1803679-21.1986301,8.2880522-31.5016887.7177492,1.1679234.4631789,1.8315163.2374683,2.4525324ZM30.3608299,169.6100531c3.647534-2.9709364,7.4473825-5.7943682,10.1762189-9.7153559,1.7789633-2.5556787,2.210076-4.2380871,2.0924998-7.3673951,0-.639365-.0224464-1.279799.0083728-1.917917.0179927-.3723246-.1499987-.9530797.3945928-1.0018916.6117525-.0546907.6598518.5711352.704032.9976161.2586676,2.5033039.3302822,4.9918217-.7535565,7.3641885-.9293863,2.0338899-2.1911926,3.8474135-3.7806088,5.3981721-2.3290774,2.2726052-4.7231779,4.4796527-7.125295,6.675477-.6817637.6231538-1.4631109,1.1704175-2.4585893,1.1946453-.6263604.0153205-1.1394201-.1972073-1.4036103-.8198267-.1451888-.3420398-.2032643-.7051008.1099159-.9587804.5486889-.4446518.7898982.1175762,1.1344321.3833696.3666239.2828954.6593174-.0350947.9015956-.232302ZM39.1136644,93.2676573c.1337874.2941186.3632392.5447697.5536769.8132353.6017763,2.8246788,1.7604362,5.5059503,2.1548508,8.3849635.0541563.3937021.2583113.7820598-.1749391,1.2281367-.7314664-.3126458-.7895419-1.085442-.9085433-1.6670878-1.0727936-5.2381972-3.1941531-10.0618493-5.6518516-14.7686379-.5062902-.9698254-.8144823-2.0479634-1.163648-3.0929663-.1184669-.35451-.35451-.8958949.1296901-1.0906082.7072386-.2839643.7093763.474224.8244585.8269525,1.0699433,3.2787723,2.8164841,6.2482836,4.2363056,9.3660121ZM39.6673413,94.0808926c-.0005344-.0028503-.0014252-.0055225-.0021377-.0081947-.0016033-.002494-.0039192-.0064132-.0046318-.0074821.0078384-.0046318.0112232-.0106887.0188834-.0153205.0021377.0199523.0067695.0388358.0087291.0587881-.0065914-.0096199-.0140735-.0185272-.0208431-.0277907ZM39.6794552,94.0498952c-.2091431-1.9571091-.7099108-3.7752644-1.8582382-5.460345-.7067041-1.0369863-.6643055-2.4372118-1.6939878-3.4829273-.5632968-.5723823.8479737-1.5386447.7193525-2.5824006-.0217338-.1768987.6726783.2194755.8889472.5013021.90213,1.17594,1.5496898,2.5893483,1.579262,3.9877923.0368762,1.7376335.6144246,3.2573948,1.1066413,4.8354097.2951875.9472009.1257709,1.6792017-.741977,2.2011687ZM56.0360842,3.950373c-.0076603-.4238087.581824-.4861597.9733883-.5698882,6.1367643-1.3107963,12.9877149,2.5724244,14.9022472,8.4861503.264012.8155512.7403737,1.7216004-.0156768,2.587745-.6936995-.3577166-.6117525-1.0337797-.7735088-1.5502242-1.6866838-5.3855238-5.9220987-8.5431569-11.5559576-8.5556271-.8127009-.0016033-1.6268269.0741086-2.4381026.0477431-.4029657-.0131828-1.0795632.2536795-1.0923897-.4458988ZM71.6127911,15.7972427c.5704226.8298028,1.1183989,1.730864.759079,2.8221848-.4783213.0591444-.5836054-.2355087-.7091982-.4870504-1.4964242-2.9990835-3.6291849-5.3518542-6.737828-6.7533267-.4735114-.2132404-1.3311049-.4603286-.9669751-1.1524248.2900213-.5508266.961987-.0167457,1.3888242.1934663,2.5442774,1.2530771,4.6577984,3.0380974,6.2660981,5.3771509ZM16.6990115,14.3533715c.2440597.2880617.1562338.6128213-.0983364.7501717-1.6644156.8974982-3.0042497,2.1837104-4.3264474,3.4987823-.1099159.1093815-.3078358.1300464-.4207802.1745828-.6032015-.0997616-.5429882-.4268372-.2975034-.7453618,1.2267115-1.5935136,2.8538947-2.7202854,4.5159944-3.7984234.1934663-.1257709.4491054-.0897855.627073.1202484ZM18.9685882,10.57686c1.0898956-1.146546,2.3511674-2.0126905,3.9471751-2.260135-.8431638,1.5664355-2.3962383,1.9001024-3.9471751,2.260135ZM18.1818966,11.566994c.0774934.19311.1309371.2609835.1143696.2942968-.46692.9423909-1.2600248,1.4278381-2.2745648,1.571958-.0363417.0053444-.2062928-.3274319-.1574808-.4172173.5080716-.9325929,1.3389434-1.314003,2.317676-1.4490374ZM75.591498,26.9680492c-2.092678,4.8074408-5.0304793,9.1499213-7.6775468,13.6520204-.2153782.3662676-.4177518,1.0480314-.9650155.706526-.4850908-.3024915-.0595007-.8449452.1501769-1.2331248.3858637-.7147207.7833068-1.4269473,1.230987-2.1035449,3.0201047-4.5639156,5.676792-9.3173783,7.6419177-14.4401371.1304027-.3402584.1403788-.8497552.6705406-.8967856.2754133-.0245841.3195935.1567682.2661497,1.2121036.7890075,1.361746-.8428075,2.0134031-1.3172096,3.1029424ZM76.839587,27.0344976c.8339002.8549214.70902,1.8520031.4132981,2.7461165-1.5651884,4.7315508-4.5713977,8.579855-7.7147793,12.3337419-.1749391.2087868-.3787378.5180478-.7022505.2885961-.2873491-.2037987-.2048676-.519473-.0349166-.7752902.2244636-.3375862.4793902-.6548637.7179273-.9830082,1.4689897-2.0215978,3.0117318-3.9945619,4.3854136-6.0790451,1.4941083-2.2672608,3.069451-4.5475262,2.9353073-7.531111ZM43.085958,64.7741374c-2.1270601,4.301507-4.7568475,8.244941-8.4412576,11.3842251-.9356214.7973803-2.1015853,1.3115089-3.3516339,1.301889-1.1561658-.0089073-1.6555083.3582511-1.211391,1.5667918-1.0140055-.1334312-1.3613897-.6885333-1.3293235-1.4688116.0338477-.8162638.7692333-.8166201,1.3009983-.8622254,3.9062016-.3342014,6.1291041-2.9810908,8.1706542-5.8813033,1.438705-2.0436879,2.6679106-4.2152844,3.872532-6.4027359.1954259-.3550445.2885961-1.0644208.9060492-.8292684.6422154.2447722.2670405.820183.0833722,1.1914387Z"/>
  </g>
</svg>