<?xml version="1.0" encoding="UTF-8"?>
<svg id="Layer_2" xmlns="http://www.w3.org/2000/svg" viewBox="0 0 129.8255218 65.2897862">
  <g id="Layer_1-2" data-name="Layer_1">
    <path d="M129.5993305,23.5133118c.257957-2.9208153.0832038-5.8507349-.2513816-8.7681782-.4422361-3.8548557-1.72494-7.310131-4.369421-10.255899-1.3961713-1.5554977-3.2693102-2.2521502-4.9408885-3.3197214-1.5515356-.991027-3.2326398-1.304959-5.0169268-1.1184881-4.5287474.4724154-8.9445331,1.4786164-13.1607816,3.1959694-3.8970056,1.5868572-7.8816828,1.8249195-11.9872458,1.2678672-.7625749-.10352-1.2863288-.3688954-1.763465-.9842831-1.9934345-2.5714774-4.6528365-3.5571093-7.8509977-3.0870542-1.0368018.1524138-2.0612958.1524138-3.0931238.0060696-1.959546-.2778517-3.7685329.1574718-5.4021763,1.2439261-1.6478901,1.096233-3.0849468,2.4278308-4.2088301,4.0740349-.2770087.4059873-.4755345.8237765-1.1635885.6123529-.5669996-.1743317-1.0175814.3328151-.7034808.7968006.5705402.8426596-.0316967,1.2091946-.434059,1.7025163-.4061559.4980425-.8330494.9798995-1.2243685,1.4890695-.2307282.3001069-.4613721.4875893-.8795829.4764618-.6584648-.0175343-1.6036328-.1564602-1.7023477.6555143-.0965231.7944402.9320173.6561887,1.5785958.997771-.7192449.8335552-1.3848751,1.5723576-2.0102944,2.3435311-.2896537.3574306-.5027633.0987992-.7289393-.0202319-.6953881-.3655234-1.3763609-.7769058-2.1760276-.8571591-.7193292-.0724977-1.2542949.5263672-.8606154,1.0217121.4600233.5789702.1099268.6814786-.248937.9040298-.4549654.2818981-.8978759.585377-1.3662449.8429968-.9805739.5388435-1.842791,1.3723988-3.1183294,1.1815443-.397473-.059347-.7351775.274817-.7360205.6383172-.0017703.8156837-.6039229.9583188-1.1494261,1.1872767-1.5157082.636294-3.0370645,1.2833783-4.340169,2.2956489-4.0597039,3.1538196-8.6515075,5.3816915-13.1995595,7.6904911-.7573483.3844065-1.5201761.5300764-2.3714343.356419-.6710254-.1372399-1.3557917-.0869973-1.9377124.3675466-3.2673713,2.5505711-6.8745545,4.0268271-11.108253,3.4741584-1.5115775-.1972612-3.0089927-.0954272-4.4618977.2967349-4.0783342,1.1002794-7.1904254,3.3278141-8.263476,7.6469925-.2275248.9158317-.5501397,1.2530304-1.4717881,1.364306-1.4362979.1736573-2.7012146.7438604-3.1560957,2.3216132-1.1145261,3.8656461.7674643,8.3146459,4.3153006,10.1945288.6616682.3506867,1.3277199.695641,2.008187,1.0072126,8.3706209,3.8359726,17.1203375,6.2975232,26.2895293,7.2339241,1.9183235.1959125,3.7022733,1.0146309,5.6596276,1.1039886,7.1075588.3247224,14.1737265.3658606,21.2458795-.8257997,5.654401-.9529236,11.0427522-2.3711814,16.024526-5.3290885,5.3961911-3.203725,10.7040361-6.5797586,16.4078366-9.2405936,1.2469609-.5813306,2.4151015-1.8289658,3.7200605-1.6475529,1.2842213.1780409,2.4877678,1.1795211,3.6493331,1.9382182,1.444475.943482,2.9735869,1.1518708,4.6090007.8180441,6.8041643-1.3879099,13.2787168-3.8214731,19.7672631-6.2189559,2.8836391-1.0658851,4.4892108-3.1440408,5.1949677-6.045973.2959762-1.2169502.5093387-2.4423303.5771156-3.6950235.204511-3.7813464-.5241754-7.5411121-.1893371-11.3335861ZM128.6218757,14.8058294c.5523315,4.844534.3574306,9.5983615-1.4563613,14.2173095-.9180235,2.3377987-2.5627945,3.8089967-4.8261566,4.6843646-.8625543.3331523-1.7618633.5712146-2.6427106.8578335-.4877579.1584834-.829846.1422979-.8405521-.5165884-.0628876-3.8922848.5967574-7.5930407,3.4373194-10.4757525,2.6316674-2.6706138,5.1394985-5.3668548,5.9480168-9.1637123.3570091.0448474.3635002.2478411.3804445.3965457ZM127.9615564,13.6283315c-.3988218,2.580919-1.4941275,4.8168837-3.3008382,6.7031733-.5183587.5412039-1.0190145,1.1016282-1.5652764,1.6131587-3.4813238,3.2593628-5.0086654,7.2777599-4.7276946,12.0177622.0244469.4113824.2416029.8986346-.4618779,1.1164649-1.1157063.3452915-1.2029564.3294431-1.2444319-.8271485-.1782095-4.9743555,1.2408913-9.2284545,5.2227866-12.5225487,3.7491439-3.1015538,5.4820924-7.2069482,5.382113-12.1128523.6994344,1.272588.912544,2.6062089.6952195,4.0119903ZM126.2330757,13.323841c-.5496339,2.577547-1.7780488,4.8030585-3.631293,6.680581-.4266407.4319516-.8335552.8871698-1.2881834,1.2877619-3.9495243,3.4812395-5.4148213,7.9393438-5.0861368,13.0677991.0597685.9330288-.2013919,1.2985523-1.1024712,1.5163826-3.7778058.9127969-7.5701955,1.7773744-11.2763466,2.9636395-.4232687.1352167-.6934492.0880089-.9917014-.3112344-4.6338691-6.2024332-10.7806645-8.190894-18.2488573-6.5521083-3.4121981.7489183-6.7846068,1.7052139-10.2779012,2.054889-.8764638.0876717-2.7863573.3382103-3.4597431.356419-1.9281023.0515914-3.8512308.1041944-5.7746966-.1685994-1.4255076-.2023192-2.5739221-.7802778-3.3891843-1.9891352-.7981494-1.1835675-1.6028741-2.3630886-2.4276622-3.5281102-1.2525246-1.7689445-1.5936854-3.6930003-1.1283512-5.8028527.1214758-.5506455.2288736-.685525.7243028-.3361871.7870218.5553663,1.5989963,1.0770127,2.519043,1.3987003.4606977.161181.9605948.2866189,1.2290893-.2370507.2691689-.5250184-.2206123-.7458836-.5661566-.9896782-.7001931-.4936589-1.3887529-1.0048522-2.1057217-1.472884-.5256085-.3432683-.5857985-.6642815-.2398326-1.2179618,1.6067519-2.5728262,1.5906506-2.5829422,4.0552361-.8945882.4138271.2835841.8362528.5597499,1.3346325.6605723.4738485.0957644.8693826-.0455218,1.0079713-.5496339.1204642-.4380211-.0836253-.6835018-.4988012-.9158317-3.9211996-2.1951636-3.0359686-1.5251498-.8211632-4.250727.6169051-.7590343,1.0376447-.7033965,1.6826216-.0579982.6260094.6265152,1.358405,1.15558,2.0848997,1.669808.5334484.3776626,1.1616496.5462619,1.5697443-.1642158.407336-.7091289-.0889362-.9809111-.6797926-1.2408913-.8390347-.3688954-1.3530941-1.1447896-1.9866062-1.7686073-.1879883-.1854593-.18959-.3621514.014921-.5381692.081012-.0694629.1555329-.1473558.2293794-.2245743q2.1887569-2.2976721,4.7671469-.4194752c.2597273.1895057.5158297.3847437.7853358.5590755.4407187.2852701.971048.7728595,1.3972672.1898429.3601282-.4926473-.2104963-.9168433-.5488752-1.2395425-.6706039-.6389916-1.3749278-1.2499956-2.1147417-1.8070479-.5068097-.3817089-.6888127-.6143761-.0632248-1.0797103.9155788-.6811414,1.757564-1.4641168,2.7856829-1.98374,1.1642629-.5884118,2.3143634-.5958301,3.4759287.0603586.7456307.4211612,1.0072126.8767167.3586951,1.5878688-.5159983.5658194-.3535529,1.0308165.257114,1.3916191.3384632.200296.7044924.4430791,1.0706059.0853113.3472304-.3395591.1733201-.7148613-.0006744-1.0793731-.5637963-1.1815443-.7579384-2.6392544-2.4730997-2.952512.5962516-.571889,1.1151162-.6433752,1.7128852-.5331112,1.2913025.2383995,2.4167032.8554731,3.5239795,1.5062667,1.6939178.996085,3.289795,2.1361539,4.8114885,3.3443369-.0765441.4349863-.6511307.4444279-.7111521.8821118-.032624.0222551-.0749424.050917-.1046159.0711489-.071739.0485566-.1809071.1224031-.2550908.1729829-.0715704.0515914-.1577247.0859857-.2085574.1675878-.014921.0242783-.0653323.0209063-.0901164.0488938-.082698.0940784-.2121823.1298215-.2915926.2272719-.0460276.055975-.1183567.0677769-.17273.1116128-.143731.1122872-.3166296.2475039-.4590118.3591166-.0453532.0316967-.1187782.0832881-.1841948.1291471-.0875031.0691257-.0921395.0728349-.1848692.1463442-.0694629.0461962-.120127.1190311-.2042581.1456698-.0214121.006744-.0172814.0293363-.0266387.0434986-.0257957.0394522-.0692943.0515914-.1025927.0772185-.06019.0461962-.1259437.0964388-.1766921.1355539-.0583354.047545-.1125401.1014968-.1767764.1446582-.0908751.0613702-.1734044.1409491-.2475039.2255859-.0232667.0236039-.0375134.0381035-.0537832.0549634-.0870816.0836253-.1550271.1837733-.2316555.2765029-.0540361.0657537-.1204642.1210543-.1824245.1800641l-.3853338.3608026-.2189263.19861c-.0721605.0623818-.1266181.1463442-.2147113.1911917-.0137408.0070812-.0295892.0188831-.030095.0414754-.0004215.0242783-.0209063.0418126-.0395365.0455218-.056818.011802-.0876717.0512542-.1145633.0957644-.0210749.0350687-.0600214.0438358-.0893577.0660909-.1036043.0819393-.1823402.1439839-.2799592.2212024-.0668496.0519286-.1250164.113636-.2006332.1557858-.0858171.0482194-.1494633.1264495-.2315712.1814129-.1572189.105206-.2969878.2323299-.4398757.3557446-.0347315.0259643-.1042787.0778929-.1417921.1058804-.039958.0327083-.0591784.0873345-.121813.0981248-.0224237.0037092-.0497368.0310223-.0574081.0640678-.0024447.0104532-.0124764.0263015-.0202319.0269759-.0815178.005058-.1089152.0896949-.1785467.115322-.072582.0266387-.1097582.100148-.1653117.1500534-.0386093.0347315-.075111.0853113-.1128773.1038572-.0570709.0276503-.1087466.059347-.1553643.0991364-.1105169.0974504-.2067871.1824245-.3165453.2788633-.0574924.0455218-.1277983.1008224-.2072929.1632042-.0227609.0171971-.045859.0306851-.0502426.0620446l-.0061539.0151739c-.1181039.045859-.1876511.1547742-.2898223.2228884-.1007381.0674397-.1863866.1567974-.2775988.2380623-.0128979.0111276-.0200633.0293363-.0289148.0448474-.0068283.011802-.009273.0279875-.0236882.0330455-.1359754.0472078-.2181676.1635414-.3171354.2552594-.0695472.0647422-.1538469.1126244-.2138683.1878197-.0134879.0168599-.0352373.0276503-.0472078.0451846-.059347.0873345-.1573032.1315075-.227862.2046796-.0443416.0451846-.092561.0873345-.1316761.1402747-.0440887.0600214-.1189468.0937412-.1766078.1446582-.0886833.0853113-.1573032.1517394-.2409285.2323299-.0903693.0859857-.1677564.1598322-.2606546.2481783-.1452483.1338679-.2572826.2370507-.4277366.3938481-.0828666.0755325-.1248478.1139732-.2109178.1922033-.110264.0907065-.2023192.2026564-.31056.2960605-.1467657.1271239-.2879677.2599802-.4235216.3985689-.1466814.1416235-.3220248.3108972-.4682847.4521835-.0589255.0617074-.1274611.1159964-.1772822.1841105-.0494839.0606958-.0718233.0880089-.1132988.1389259-.0316124.0394522-.0794946.0606958-.1134674.100148-.079326.0903693-.1659018.1763549-.2560181.2552594-.0934883.0819393-.1511493.1959125-.2597273.2650382-.0718233.0455218-.1245949.1213915-.1852907.1844477l-.2149642.2249115c-.0518443.0579982-.1185253.1038572-.1659861.1702854-.0577453.0809277-.1503906.1247635-.2142898.2016448-.0856485.1031828-.1960811.1837733-.2656283.3017929-.0037092.0064068-.0153425.0155111-.0153425.0155111-.0633934-.0074184-.0768813.0465334-.0994736.0853113-.0198104.0337199-.0477136.0573238-.0755325.0819393-.0102003.0087672-.0266387.0121392-.0249527.0293363.0044679.0472078.0056481.0880089-.0608644.0566494,0,0-.01745.0074184-.0236882.0144995l-.1838576.2016448c-.0604429.0603586-.1362283.1358911-.1953224.1945637-.0987992.1058804-.195491.2134468-.3017929.3115716-.0220865.0205691-.0556378.0428242-.037682.0863229.0040464.0097788.0026976.0249527-.0098631.0222551-.0560593-.0128136-.0711489.0343943-.1008224.0633934-.0939098.101834-.1648059.1787153-.2471667.268073l-.4505818.4859034c-.035996.0387779-.0918024.061033-.0931511.1301587-.0003372.0168599-.0423184-.0013488-.0571552.0195575-.0453532.0637306-.1358911.0910437-.1406962.1874825l-.0107904.0104532c-.1120343.0246155-.1598322.1267867-.2220454.205354-.030095.0381035-.0694629.0600214-.0995579.09509-.0337199.0394522-.082698.0657537-.0900321.1254379-.0015174.0128136-.0095259.0198947-.0218336.0252899-.0937412.0397894-.1550271.1156592-.2003803.2046796-.0133193.0263015-.0342257.0037092-.0488938.0202319-.0306008.0293363-.0789888.0755325-.1096739.1048688-.091128.0964388-.188747.1878197-.2682416.2937001-.0957644.1277983-.223057.220528-.3235422.3429311-.1252693.152751-.2628464.3075252-.4332161.470055-.1054589.0981248-.1969241.2110864-.2872933.3213504-.0871659.0994736-.1830146.2212024-.2428674.3537215-.0271445.064405-.0870816.1173452-.1274611.1790525-.0580825.0789045-.1275454.1669134-.1524138.2751542-.0319496.1183567-.1135517.2029936-.1438153.3159552-.0499054.1389259-.1137203.3075252-.1202113.483543-.0010116.0704745-.0096102.1571346-.0342257.2367135-.016607.0704745-.0072498.151065.0335513.213784.0056481.0080928.0128979.0225923.0115491.0306851-.0235196.1638786-.0114648.3490007.0417283.4980425.0166913.0630562.0461962.1213915.0690414.1807385.0479665.1426351.1041944.2673986.164553.3803602.036839.0701373.0631405.1203799.0932354.1777037-.081855.1537626.4197281.6143761.4802553.6959782.0120549.0148367.0254585.0303479.0414754.0394522.0297578.0171971.0632248.0158483.056818.0745209-.0037092.0303479.050074.0799161.0761226.1156592.0711489.0869973.1075664.1315075.159495.1949009.0215807.0259643.0456904.0482194.0726663.0694629.0272288.0215807.0727506.0357431.0670182.0890205-.0023604.0192203.0214964.0455218.0407167.0583354.0586726.0391151.0774714.1082408.1219816.1567974.0391151.042487.0848055.0795789.1139732.1304959.0409696.0805905.1299901.1217287.1589049.2090632.0188831.0583354.0663438.0923924.1069763.1318447.0460276.0485566.0638992.1106012.1027613.1608438.039958.0600214.0714018.1072292.1078193.1621926.0379349.0468706.0520972.1004852.0795789.1490418.0504955.106892.126028.2063656.1916975.3028044.0306008.0381035.0740151.0923924.1025927.1281355.0096945.0138251.0184616.0310223.0444259.0293363.0410539-.0023604.0331298.0350687.0403795.0465334.0193889.0343943.0810963.050917.0718233.0974504v.0047208c.0563122.0229295.0364175.0846369.0712332.1197055.0057324.0060696.0187988.0158483.0187988.0158483.0579139-.0158483.0968603.0310223.1580619.0182087.0633934-.0138251.0617074.0418126.072582.0735093.0091044.0269759.0124764.0381035.0521815.0404638.0361646.0023604.0760383.0151739.1063862.0468706.0486409.0495682.2944588-.0445102.2861974-.0792417-.0120549-.0499054-.0130665-.0896949.0124764-.1409491.0130665-.0263015-.0134879-.0842997-.0151739-.1281355-.0058167-.0792417-.0541204-.1392631-.0733407-.213784-.0179558-.0691257-.0213278-.1497162-.0962702-.1928777-.0034563-.1062176-.1105169-.1625298-.1140575-.2751542-.0080928-.0606958-.031781-.1298215-.0671025-.1888313-.0107061-.0178715-.0100317-.0428242-.0389465-.0472078-.0145838-.0020232-.0134879-.0185459-.0138251-.0300107-.0053109-.1095896-.0611173-.1992844-.1343737-.2734682-.0552163-.0617074-.083541-.1348795-.1099268-.2114236-.0039621-.0114648-.0040464-.0279875-.0166913-.0286619-.0525187-.0023604-.0590941-.0495682-.0752796-.0819393-.0322868-.0657537-.0553006-.1375771-.1272082-.1750061,0,0-.0076713-.0141623-.0070812-.0212435.0064911-.0718233-.0230138-.1186939-.0938255-.1409491-.0159326-.005058-.0332984-.0343943-.0336356-.0532774-.0004215-.0691257-.0490624-.110264-.0805062-.1608438l-.0111276-.0138251c-.0917181-.0448474-.1516551-.1277983-.2283678-.1895057-.0324554-.0266387-.0893577-.0505798-.0865758-.1224031.0017703-.0438358-.0395365-.0883461-.0797475-.1244263-.0490624-.0438358-.0708117-.1116128-.1116971-.164553-.0731721-.0954272-.1490418-.1817501-.2542478-.2421087-.028409-.0161855-.013235-.0711489-.0637306-.0647422-.0283247-.0671025-.1123715-.0856485-.1289785-.1655646-.0068283-.0357431-.0440044-.0660909-.0664281-.100148-.0337199-.0556378-.088599-.0991364-.1205485-.1554486-.0085143-.0131507-.011802-.0276503-.0122235-.044173-.0011802-.0411382-.0205691-.0795789-.0493996-.0998108-.0422341-.0310223-.0549634-.0782301-.0733407-.1224031-.0578296-.1389259-.0939098-.2879677-.1310017-.4366723.0011802-.006744-.003372-.0124764-.0010959-.0192203l-.0007587-.0161855c-.0026133-.0124764-.0106218-.0239411-.0171971-.0360803-.0012645-.0057324-.0032877-.0111276-.0044679-.0168599-.0048051-.0155111-.0057324-.0320339.0152582-.0532774.0277346-.0266387-.0069126-.0802533.0175343-.1186939.0127293-.0185459-.0027819-.0445102-.0057324-.0671025-.0145838-.0539518.0164384-.1041944.0313595-.1537626.0029505-.010116.0102846-.0202319.007587-.0303479-.0147524-.0782301-.0137408-.1584834.0360803-.2255859.0055638-.0091044.0100317-.0212435.0079242-.0310223-.0136565-.0633934.0056481-.117008.0691257-.1473558.0128979-.0064068.0238568-.0155111.0244469-.0289991.0030348-.0630562.046702-.1079036.0634777-.1659018.0336356-.0664281.0800004-.1274611.1207171-.1908545.0040464-.0064068.0102846-.0128136.0112962-.0198947.0163541-.1156592.1033514-.1847849.1795583-.2559338.0062382-.0064068.0161012-.011802.0205691-.0195575.055975-.0981248.1351324-.1817501.2029936-.2727938.0497368-.0667653.0978719-.1419607.1695267-.1881569.0435829-.0276503.0460276-.0805905.0828666-.1156592.0354059-.0340571.0738465-.0596842.1130459-.0859857.0370919-.0246155.0667653-.0532774.0821922-.0977876.0182087-.0522658.0762912-.0546262.1122872-.0856485.0156797-.0134879.0323711-.0236039.0461962-.0414754.0733407-.0903693.1332778-.1642158.1982728-.2444691.007587-.0091044.0203162-.0171971.0218336-.0276503.0069969-.0468706.0198947-.0839625.0773871-.0728349.0103689-.0465334.0556378-.0617074.0807591-.0957644.0574081-.0785673.1117814-.1618554.1975984-.2127724.0064911-.0040464.018293-.0124764.018293-.0124764.004215-.0674397.0749424-.0728349.100148-.1146476.0370076-.061033.1079036-.0805905.1407805-.1416235.0037092-.0070812.00843-.0155111.0148367-.0182087.1108541-.0455218.1661547-.1524138.2381466-.2377251.0788202-.0937412.1682622-.1773665.2403384-.2785261.0304322-.0428242.0875874-.0718233.1197898-.1234147.0087672-.0141623.025037-.0202319.0183773-.0421498-.0065754-.0219179.0100317-.0246155.0252056-.0316967.0689571-.0327083.1406119-.0617074.1606752-.1517394.0051423-.0229295.0287462-.042487.0470392-.0603586.0440044-.0421498.0697158-.1062176.1143104-.1396003.0863229-.0647422.1484517-.1497162.2195164-.2272719.0303479-.0330455.0706431-.0606958.0935726-.093404.0425713-.061033.0971132-.1072292.1490418-.1554486.0933197-.0974504.1237519-.1291471.2189263-.2286207.0330455-.0300107.0557221-.0687885.0755325-.1031828.0358274-.0623818.0907908-.0987992.140359-.1422979.0697158-.0745209.0690414-.0735093.1394317-.1487046.068367-.0579982.0972818-.1537626.1872296-.1901801.02588-.0104532.0504112-.0428242.0681984-.0681141.0497368-.0711489.1193683-.115322.1835204-.1685994.0477979-.0397894.0864915-.0954272.1312546-.1419607.0880089-.0917181.1712126-.1881569.2723723-.2660498.0349844-.0269759.0631405-.0637306.0922238-.0977876.0977876-.115322.196334-.2292951.3070194-.3324779.0702216-.0748581.1041101-.1109384.1644687-.1750061.0552163-.0553006.1130459-.1132988.1621083-.1625298.0572395-.062719.1347952-.10352.1750904-.1861337.0206534-.042487.073425-.0681141.1116128-.1011596.0238568-.0209063.0507484-.0401266.040801-.0792417-.0032034-.0121392.0030348-.0182087.0111276-.0246155.0972818-.0772185.1691895-.1783781.2507072-.2700962.0846369-.0974504.1616025-.203668.2574512-.2893165.0749424-.0667653.1379986-.1480302.2190106-.2046796.1036043-.0724977.1764392-.1699482.2572826-.2616662.0602743-.0694629.1246792-.1331935.2013076-.1837733.014921-.010116.0316967-.0168599.0311909-.0394522-.0001686-.006744.0076713-.0198947.0076713-.0198947.0944999-.0097788.1175981-.1072292.1875668-.1503906.0686199-.0418126.1401061-.098462.1767764-.1675878.0503269-.0940784.1417921-.1345423.2109178-.2023192.0856485-.0772185.1960811-.1766921.2815609-.2539106.0566494-.055975.1181882-.1082408.1600008-.1807385.0209063-.0364175.0566494-.0677769.0880089-.0974504.073425-.0694629.1487046-.1406119.2348589-.1918661.0857328-.050917.1415392-.1257751.2077144-.1938893l.2467452-.2276091c.0665124-.0667653.1339522-.1365655.2056912-.1932149.0553849-.0438358.087756-.10352.1394317-.1426351.0933197-.0708117.1740788-.1557858.2701805-.2232256.0595156-.0414754.1100111-.0957644.1644687-.1443211l.0115491-.0131507c.0032877-.0954272.0837096-.1038572.147693-.1277983.0274817-.0104532.0523501-.0279875.0671025-.0468706.1059647-.1348795.2591372-.2144584.3812031-.3297803.1032671-.0971132.2204437-.1760177.3315506-.263015l.0796632-.0853113c.1532568-.1217287.3078624-.2448063.4789065-.3806974.1213072-.10352.1987786-.169611.2909182-.2485155.1155749-.1025084.2490213-.1810757.3697384-.2768401.0228452-.0178715.0457747-.0354059.0552163-.0674397.0047208-.0158483.0177872-.0340571.0372605-.0434986.1649745-.0792417.3128361-.1827617.4417303-.3132576.0908751-.0920552.2063656-.152751.3060078-.2336787.0564808-.0455218.11195-.0971132.1765235-.1247635.1305802-.0563122.1972612-.1807385.3043218-.2603174.010959-.0074184.0234353-.0155111.0444259-.0289991.0832038-.0448474.1406119-.1190311.2009704-.1884941.0481351-.0549634.0968603-.0994736.1678407-.1298215.0421498-.0178715.0901164-.057661.1173452-.1041944.0116334-.0195575.0176186-.0333827.0432457-.0391151.0298421-.006744.0548791-.0239411.0751953-.0519286.0345629-.047545.0757854-.0903693.1168394-.1328563.0505798-.0522658.1215601-.0755325.1787996-.1186939.0418126-.0316967.0923081-.0532774.1138889-.1072292.0037092-.0091044.0173657-.0148367.0271445-.0209063.1174295-.0748581.2168188-.1716341.3237951-.2593058.0472078-.0391151.0869973-.0883461.1453326-.1173452.0494839-.0249527.1006538-.0573238.120127-.1197055.0043836-.0141623.0372605-.0171971.0550477-.0286619.0636463-.0404638.1140575-.1021712.1782938-.1369027.0794103-.0428242.1289785-.1156592.2012233-.1648902.0565651-.0384407.1122872-.0842997.1607595-.1362283.0375134-.0401266.0796632-.0741837.1284727-.10352.0554692-.0333827.1044473-.0839625.1429723-.1372399.055132-.0758697.1377457-.1156592.2040895-.1763549.0676926-.0617074.1360597-.1234147.1973455-.1911917.0777243-.0873345.1626141-.1652274.2514659-.2407599.0866601-.0785673.1481988-.1342051.2350275-.2127724.0495682-.0418126.0918024-.0944156.151908-.1271239.1072292-.0579982.190433-.1483674.27566-.2333415.0495682-.049231.10352-.0910437.1574718-.1342051.0537832-.0428242.0914652-.1011596.139516-.149379.0389465-.0391151.0783144-.0819393.1261966-.106892.113636-.0596842.2020663-.1500534.3001069-.2286207.0581668-.0461962.0643207-.1264495.1004009-.1878197.0220022-.0374291.0526873-.0718233.0390308-.1220659-.003372-.0124764.0086829-.0205691.0171128-.0296735.0556378-.0590098.0823608-.1348795.1067234-.2094004.0100317-.0306851.0338885-.0465334.0519286-.0579982.02588-.0168599.0289991-.0323711.0175343-.0522658-.0332984-.0586726.0079242-.0698001.0476293-.0708117.0353216-.0010116.0328769-.0124764.0291677-.0394522-.0004215-.003372-.000843-.0070812-.0015174-.0104532.478485-.0333827.9186979.3769882,1.3911976.7084545,2.0167855,1.4158974,4.0950255,2.7383908,6.2585768,3.9212839,7.5347896,4.1195567,15.0624981,3.7135695,22.5191419-.1608438,3.0224807-1.5706716,5.7983005-3.5152966,7.7859184-6.5241208.8630601,1.8539185.8348197,3.6710824.4453552,5.4973507ZM58.8492232,28.870725c.6990129.9913642,1.3832734,1.9958792,2.0232766,3.0260213,1.2930728,2.0818649,3.2068441,2.8648403,5.5858653,2.9818482,5.6319773.2768401,11.0849863-.695641,16.5078161-2.0670281,3.3006696-.834904,6.6438263-1.3902703,10.0527367-.5418783,4.0698199,1.0132821,7.1502988,3.4171718,9.6485198,6.7820778-.6063676.3823833-.9799838.5610987-1.4324201-.0907065-3.3268025-4.7929426-8.0534012-6.3282083-13.6493825-5.726983-3.8154878.4096964-7.4189619,1.7665841-11.1509929,2.5532687-3.4823354.7337444-6.9841441,1.0196889-10.5357739.5948185-1.8805572-.2249115-3.3982887-1.055432-4.5380203-2.5401179-1.1299529-1.4718724-2.2451534-2.9589187-3.2886991-4.4924985-1.3646432-2.005658-2.1004108-4.2186931-1.7483753-6.6751858.0638992-.4457767-.0023604-1.2766343.6670634-1.2091946.8043032.0809277.8204888.8092769.6642815,1.5086271-.4775577,2.1378399-.0719919,4.1010108,1.194105,5.8969312ZM59.3631983,19.7282563c-.4177892.5847026-.9831872.5573895-1.4140428-.011802-.149379-.1972612-.0866601-.3115716.0355745-.4417303.7020477-.7472324,1.3922092-1.5062667,2.1197997-2.2275347.4175363-.41408.5680955.1288099.90521.2255859-.1463442.2383995-.2310654.3887901-.3277572.5314252-.4367566.6433752-.8668536,1.2914711-1.3187842,1.9240559ZM67.2138588,11.4287842c-.1824245.1598322-.3898017.2906653-.5926267.4397071-.2172403-.1247635-.4243646-.203668-.579476-.3412451-.2565239-.2276091.019979-.3776626.1362283-.5179372.5930482-.7162101,1.2595215-1.3562132,1.9920857-1.9334974.4438378-.3500123.8797515-.2067028,1.1453797.1079036.3725203.4413931-.2298009.5391807-.4336375.739814-.5330269.5253556-1.1040729,1.0122705-1.6679535,1.5052551ZM125.0355988,6.4190229c.5873159.4906241.3349226.9144829.1272925,1.3322721-.6514679,1.3106914-1.6577532,2.3273455-2.7892235,3.208783-5.4363177,4.2358903-11.4858313,6.5453643-18.4942537,5.8942336-3.4335259-.31899-6.4501899-1.7251086-9.3750516-3.4026722-3.692916-2.1179451-7.023765-4.7737222-10.5473229-7.143892-1.3346325-.897623-2.681067-1.7767-4.2754268-2.1530138-.9749258-.2303067-1.9174805-.2815609-2.6480215.6110041-.1000637.1220659-.3011185.2346903-.4521835.2306439-1.6859936-.0445102-2.8543871.9701207-4.0579337,1.9321486-.4445965.3550702-.92266.6706882-1.4000491.9819227-.2010547.1311703-.481014.307188-.6758305.0829509-.2406756-.2771773.0188831-.527716.1996216-.7384652.1618554-.1891685.3463874-.3608026.5337856-.5253556.886664-.778929,1.8328436-1.4755816,2.8229434-2.1203055,3.3697111-2.1955008,6.7457446-2.3249851,10.1007875-.0161855,2.9401199,2.0231923,5.8408719,4.1033712,8.7641318,6.151179,2.2566181,1.5807876,4.5750279,3.1116698,7.2083813,3.9391554,6.5430039,2.0555634,12.8158273,1.4907555,18.6573736-2.3236364,1.2270661-.8015213,2.4266506-1.6367626,3.516814-2.6210456,1.0614173-.9583188,2.0288404-1.997228,2.7841655-3.3197214ZM102.6043815,14.8338169c3.9042553-1.6441809,7.2746408-4.0035604,11.2473475-5.0424696,2.2952274-.6002137,4.6004021-.4521835,6.7936268.4754502-2.7224581,3.629607-12.852582,6.259757-18.0409743,4.5670194ZM123.5827781,6.7363269c.090285.1891685.2217925.3392219.1457541.5884118-.324048,1.0618388-1.998914,2.1341307-3.0843567,1.8630229-3.9070372-.9768647-7.5594051-.2940373-11.0665247,1.5602185-1.9218641,1.0159797-3.8657304,1.9918328-5.8176895,2.94914-1.7130538.839962-3.3872454.794103-5.1184236-.113636-2.5025203-1.3120402-4.9091918-2.7589599-7.1985182-4.4132568-.4730055-.3419195-.7237127-.7425116-.8511739-1.2840527-.1231618-.5233324-.1191997-.8895302.4945019-.7020477,3.0146408.4430791,5.932337.4973681,8.7719717-.4444279,1.4846859-.4923101,2.9104464-1.1626612,4.3627613-1.7524217,3.6866779-1.4974995,7.4627977-2.5853026,11.4713317-2.8257252,3.859998-.2309811,6.2192931,1.0746523,7.8903657,4.574775ZM91.1687085,5.1407026c3.4544322.3513611,6.840076.1072292,10.0968255-1.1909859,4.4272505-1.7648981,9.0188012-2.8783282,13.7361269-3.4984367,1.9364479-.254585,3.6218514.3833949,5.1331761,1.5851712-1.6585962-.2097376-3.3129774-.4636482-4.976463-.6204456-4.0318851-.3806974-7.637298,1.0905006-11.2025001,2.681067-2.4124039,1.0760011-4.8357668,2.1051316-7.469626,2.5225836-1.9574385.3098856-3.907543.2195164-5.8602608-.0522658-.8564004-.1193683-.8806787-.8986346-1.4460767-1.5875316.8201516.0654166,1.4056971.1014968,1.988798.1608438ZM82.3507935.995856c1.6248763-.0144995,3.037486.670351,4.0489979,2.0575866-1.435202-.570203-2.772785-1.4155602-4.4391368-1.3393533,2.9241873.7735339,4.8091281,2.8307832,6.59704,5.2073598-.4738485-.0165227-.6733858-.3230364-.9227443-.5010773-1.2483939-.8918906-2.5306764-1.7294922-3.8207144-2.5610243-3.141849-2.0255527-6.2666695-1.7736652-9.4209949-.0896949-1.6190596.8639031-3.0673281,1.9584501-4.3061962,3.3146634-.2934472.3213504-.5587383.588749-.9476127.1938893-.3981474-.4043013.1096739-.5614359.285523-.7273376,3.6308715-3.4215554,7.8607765-5.509827,12.9258384-5.5550117ZM68.0709337,6.0096637c1.4543381-2.9157573,5.7472992-5.3702268,9.0386959-5.0458416-3.5067824.850078-6.1607048,2.9292452-8.4316539,5.5829991-.1831832.2144584-.3822147.3331523-.6361254.1264495-.2776831-.2262603-.0763755-.4521835.0290834-.6636071ZM73.5959346,11.4045059c-2.165153-1.6940864-4.5059864-3.1032398-6.9523631-4.3417707,2.7914153.6791182,5.1720382,2.0242039,6.9523631,4.3417707ZM64.7589679,10.3470508c.5343757-.7047453,1.1103954-1.3771196,1.6628955-2.0680397.2184205-.273131.4710666-.2957233.744872-.1234147.1335307.0839625.3520355.1099268.3303704.3830577-.0612016.093404-.1256908.2208652-.216313.325734-.6020683.6963153-1.2223453,1.3771196-1.8103356,2.0848997-.3044061.366535-.6586334.3135948-.930247.0802533-.3309605-.2845957.0778929-.4970309.2187577-.6824902ZM62.4847311,11.5656869c1.8405992-.641352,5.1651256,1.1093838,6.3034242,3.3079194-2.1559643-1.0200261-3.7252028-3.0911006-6.3034242-3.3079194ZM61.7927994,14.8709087c.5854613-.6248292,1.2177089-1.206497,1.792717-1.8407678.4384426-.4832058.8358313-.4265564,1.3404492.0124764-.7667899.8750307-1.5184901,1.6876796-2.2141311,2.5458503-.345713.4262192-.6224688.4929845-1.0533245.1365655-.4749444-.3924993-.082698-.6221316.1342894-.8541243ZM64.9087684,18.8646903c-2.4299382-.9178549-4.2729821-2.7680643-6.4334986-4.1229287,2.5143222.7903938,4.3993474,2.5718146,6.4334986,4.1229287ZM58.0268798,15.901388c.6611624-.4080104,1.1382143-.0128136,1.4914299.3817089.3829734.4282424-.2202751.6548399-.4395385.8969486-.6361254.7013733-1.1295314,1.8336866-2.0077655,1.9334974-.8427439.0957644-1.7713049-.5644707-2.8522796-.9620279,1.3779626-.8106257,2.6066304-1.5082899,3.8081537-2.250127ZM53.1277196,18.426332c2.0859956.3395591,3.9019792,1.2965291,5.5927779,2.5104444.8617113.6187596,1.6804298,1.2972035,2.5185372,1.9490086-.9400257.0590098-1.6347394-.4424047-2.3050061-.9340404-1.8204516-1.3353069-3.6997443-2.5262928-5.9721265-2.9349776-.2290422-.0414754-.5866415-.042487-.5309194-.3806974.0695472-.4221728.4410559-.251213.6967368-.2097376ZM52.2857345,19.695548c.6137017-.21547,1.239121.1436467,1.9379653.4569043-2.3909075,1.3491321-5.0451672,1.5332426-7.4720707,2.4291796,1.6584276-1.3413765,3.5630945-2.1928033,5.5341053-2.8860838ZM49.1191013,22.6440136c1.8767638-.5219836,3.7417256-1.0668967,5.4479511-2.0387034.6573689-.3742906,1.1453797.0944156,1.5089643.4457767.4392013.424196-.1401904.7698247-.399159,1.0240725-1.4851917,1.4573729-3.385728,2.1230031-5.3661804,2.4140056-1.7878276.2623406-3.6153603.1348795-5.6770776-.1891685,1.5897233-.7725223,3.0261056-1.2503328,4.4855016-1.6559829ZM35.5329435,29.3869763c1.780915-1.2537048,3.6185637-2.4153544,5.5574563-3.4168346,1.2938315-.6679907,2.6303186-1.057118,4.1046357-.9967594,3.62202.1490418,7.2420168.2441319,10.226647-2.0309479.3763138.1082408.3677995.2741426.3616456.4026153-.1346266,2.830446.9950734,5.2107318,2.6388329,7.4031978.8134919,1.0851055,1.6811885,2.1300843,2.4752915,3.2286777,1.5601342,2.158409,3.7437487,2.8668635,6.3024126,3.0445672,5.271849.366535,10.2731804-.8902046,15.2691166-2.2737309,3.1474128-.8716587,6.3159849-1.4958135,9.6121023-.9984454,3.5748965.5391807,6.4098104,2.2538362,8.5544785,5.1638611.4595176.6234804.4196438.8322064-.3163767,1.1855907-4.9504144,2.3759022-10.3015894,3.8228218-15.0930145,6.5672822-3.8066363,2.1803269-7.6296268,4.3343523-11.4821221,6.4324027-5.2702473,2.8698983-10.9909922,4.10472-16.9294831,4.4756386-1.7458464.1089152-3.4957391.1554486-5.2400681.2822353-.5990335.0438358-.8295931-.1466814-.9077389-.7290236-.2560181-1.9088819-.5718047-3.8103455-.8252939-5.7195646-.161181-1.214927-.4957664-2.3759022-.977792-3.4916927-1.3925464-3.2226081-3.1415118-6.2455946-5.2358531-9.0618783-1.8831705-2.5326996-4.3262595-4.4355119-6.9882748-6.0807045-.9670859-.5975161-1.9307155-1.2007646-2.9482127-1.8340238.5608458-.6700138,1.2092789-1.1070234,1.8416108-1.5524629ZM50.2901924,58.3678572c-.5896763.4245332-2.3377144-.1547742-2.5878315-.8595195-.8966114-2.5246068-1.4243274-5.1443036-2.0270701-7.7471405-1.5369517-6.6377567-5.2962116-11.8258962-10.5686508-16.0051371-.3013714-.2390739-.6147133-.4629738-1.1193311-.841648,1.0781929.1294843,1.8171639.4626366,2.5339641.8402992,2.8220161,1.4877207,5.2080342,3.4572984,6.9917311,6.1471326,1.1235461,1.6940864,2.1803269,3.4293109,3.2935042,5.1274437,2.1057217,3.2128294,2.63858,6.877505,3.1914173,10.5475758.1114442.739814.2475039,1.4755816.3581893,2.2153956.0284933.1905173.1709597.4049757-.0659223.5755982ZM6.3414821,41.1724086c.3886215-2.5303392,1.8891558-4.2621918,4.1022753-5.4093418,2.5563878-1.325191,5.2907322-1.6441809,8.1155301-1.2678672,2.9119638.3877785,5.6928416.1200427,8.2413052-1.4867091,2.3642688-1.4900811,4.60487-1.2580884,6.8763248.320676,6.2273016,4.3282827,10.2768053,10.0943808,11.7970657,17.5616463.4978739,2.4453651,1.1613124,4.8438596,1.9605576,7.3903843-1.8765952-.2495271-3.6434321-.4245332-5.3884355-.726326-8.1472268-1.4074674-16.2936949-2.8213417-24.4285296-4.298272-2.3193371-.4211612-4.5489793-1.2061598-6.6058915-2.3954597-3.1517121-1.8222219-5.2207634-6.1029596-4.6702022-9.6887307ZM4.3561403,43.8814631c.4220042.0198947.4337218.266387.4972838.5428899,1.0845154,4.7201076,4.5875042,7.1435548,8.6742684,8.8676518,3.1431135,1.3255282,6.5502537,1.7213994,9.9165927,2.0663537,4.9834598.5108561,9.8476356,1.5915779,14.7070906,2.7356932,4.1007579.9657371,8.2252883,1.786816,12.4599141,1.8704413.2733839.0053952.5456718.0600214.8185499.0917181-2.5286532.41408-5.0553675.3270828-7.5705327.0438358-6.9815308-.7860102-13.950501-1.6522737-20.7791965-3.3895215-5.6135156-1.4283738-10.9953757-3.5018087-16.2904915-5.8109455-1.8851937-.8217533-3.5993434-1.9297883-4.5631416-3.8622741-1.0121862-2.0295991-.15528-3.2650952,2.1296628-3.1558428ZM101.4028582,46.4178718c-.1375771.8062421-.2938687,1.6097867-.4198124,2.4183892-.0859857.5509827-.3384632.7276748-.8725017.5047865-1.2126509-.5061353-2.3323192-1.1724399-3.5270143-1.9210211,1.3546958-.7054197,2.6462512-1.2705648,3.9730439-1.7622005.794946-.2947117.9646412.0657537.8462845.7600459ZM124.5851013,42.4062187c-2.2628563,1.5399865-4.8059247,2.4895381-7.3063375,3.5314822-4.0681339,1.6950979-8.3089136,2.7893078-12.6289349,3.5985847-2.5697071.4815198-2.6507191.3958713-2.3444584-2.1685249.0845526-.7084545.1715498-1.4175834.228705-2.1287355.0497368-.6190968-.2055226-.8622171-.8410579-.6416892-5.6587003,1.9624965-11.3025638,3.8518209-16.2568559,7.4652424-5.6893853,4.1499046-11.7497736,7.8007551-18.6118517,9.6870447-9.3625753,2.5738378-18.9997146,3.9654569-28.62227,2.7559251-11.3786864-1.430397-22.7126939-3.5496909-33.0469073-9.0483904-3.3163494-1.7645609-4.5425725-4.2335299-3.8873111-8.1814525,1.5281846,1.7949088,3.2819551,3.1696679,5.3567388,4.048745,7.9979321,3.3898587,16.1482779,6.298872,24.8021458,7.5272869,5.0863897.7222797,10.1511145,1.7487125,15.2884212,1.9163003,9.8048957.3200016,19.1119174-1.9388926,28.0051964-5.9910096.7402355-.3371987,1.4401757-.7937658,2.0966173-1.2793319,5.635012-4.1664273,11.8660228-7.2480864,18.2922717-9.9392694,4.1321174-1.7305038,8.5743733-2.3968085,12.9274401-3.3389417,4.3205272-.9347148,8.7159124-1.5082899,12.981982-2.7114149,2.7172316-.7664527,5.3574132-1.7018419,7.9643808-3.4987739-.4906241,3.5436213-1.5281846,6.4442047-4.3979143,8.3969224ZM127.5836409,34.3131123c-2.9239344,1.8114315-6.1679546,2.7646923-9.4899521,3.4765188-4.4204223.946854-8.9087058,1.5470677-13.3574527,2.4271564,2.2495369-.6416892,4.4931729-1.304959,6.7501282-1.9189979,2.4063343-.6548399,4.8275054-1.2543792,7.238139-1.8933708,4.9836284-1.3214818,6.2230023-1.9780077,10.2271528-5.3999002.3530471,2.1027712.2713607,2.2932885-1.3680152,3.3085938Z"/>
  </g>
</svg>