<?xml version="1.0" encoding="UTF-8"?>
<svg id="Layer_2" xmlns="http://www.w3.org/2000/svg" viewBox="0 0 139.3272499 217.9151691">
  <g id="Layer_1-2" data-name="Layer_1">
    <path d="M138.9035223,67.9726275c-.3415533-2.2858472-.8317726-4.5458014-2.0167357-6.5593369-1.6041951-2.7263171-2.6756951-2.9061127-5.1346464-2.3126128-.5236763.1265551-.9466904.0392757-1.397343-.2534012-1.337993-.8695936-2.7696659-1.5695743-4.2112305-2.2503535-6.2748061-2.9637171-12.546121-5.9341256-18.3548552-9.7735458-1.9259652-1.2728244-3.9662663-2.3294869-6.1046113-3.1964621-1.3240283-.5367682-2.5052094-1.28708-3.6060934-2.2038045-2.3131947-1.926547-4.6595556-3.8135274-7.0131897-5.690907-.7994792-.6377214-1.837522-1.058408-2.4467322-1.8305397-.6353939-.804425-.8550471-1.9274198-1.3138457-2.883711-.2784212-.5804079-.3831565-1.1186308-.1012441-1.7194039.3892661-.8285723.1571029-1.5591008-.3502813-2.273628-.6487768-.9132333-1.4468013-1.6463802-2.4100748-2.2049683-.8291542-.4812004-1.7071848-.8550471-2.6122721-1.1695438-3.4303709-1.1913636-6.9349292-1.9937521-10.5846623-2.0685215-.783478-.0157103-.8000611-.0517858-.7177275-.7796959.3112965-2.7516282.8099527-5.457871,1.8322853-8.0515235.4797457-1.2169656.8911225-2.4604059,1.1410325-3.7535955.6179381-3.1976258-.4585077-5.7616033-3.2235187-7.4446408-3.095218-1.884071-6.3615036-1.9413845-9.7077954-.7724226-.537641.1879416-1.0197142.5076751-1.4031616.9362169-1.7426784,1.9472031-2.6090718,4.1862104-2.2151509,6.8272846.2376909,1.5940126.8489375,3.0629246,1.5372809,4.5050711.6252113,1.3100636,1.2696242,2.6111083,1.8628331,3.9354276.4780001,1.067136.8422461,2.1747114,1.0141865,3.3428005.0605137.4105041-.072151.5806989-.4491979.6639052-.7599125.1681583-1.5151702.3566818-2.2727553.5358954-2.858109.6764153-5.7194183,1.3420661-8.4253702,2.527902-1.79941.7884238-3.471974,1.7668257-4.8248046,3.2194457-1.075573,1.1547063-1.1040843,1.9451666-.1344103,3.1856977.372683.4765455.8244993.8751213,1.2760246,1.2751519.2307085.2045247.537932.3409715.6624506.6644871-.2181985.4314511-.6089192.6915437-.9397081.9996399-.7188912.6700148-1.2859163,1.4200356-1.3964702,2.43044-.050913.4654901-.3537725.7497299-.6641961,1.045898-2.1543462,2.0539749-4.2569067,4.1594447-6.2724787,6.3504482-1.3257739,1.4412736-2.8173786,2.6818047-4.4317564,3.7885073-3.1010366,2.1261259-6.3772139,3.9540472-9.6702652,5.7560756-3.6351865,1.9888063-7.2610632,3.9956504-10.6076458,6.4566382-1.0549169.7756228-2.0612482,1.6172871-3.0902722,2.4284035-.397994.3136239-.770677.5254219-1.3490484.3331163-.7986064-.2656203-1.5975037-.0904796-2.3614893.2915132-1.3781415.6895072-2.3975648,1.7354052-3.1746423,3.0434322-.7468206,1.257696-1.2591506,2.6143086-1.6603449,4.0125244-2.0379737,7.1033784-1.98997,14.2617429-.5076751,21.4457093,1.6036133,7.7736841,4.352914,15.1601387,7.6480018,22.3560333,4.0832207,8.9170441,8.4710464,17.6883316,12.7038058,26.5338067,3.2395199,6.7699712,6.4164897,13.5696173,9.7409615,20.29944,4.6517004,9.4157003,10.2530006,18.2763038,15.8016422,27.1683278.7119089,1.1404507,1.401416,2.3024302,2.2669366,3.3375638,1.795337,2.1470729,3.6462419,4.2458513,5.5396227,6.3073904.1914328.2083068.3913026.4102131.5993185.6025187.165249.1530299.3674462.224308.5804079.1032806.2123798-.1204456.2566014-.3316617.2155801-.5518967-.1061899-.5693525-.3942119-1.0578262-.7180184-1.5259346-.7695133-1.1113575-1.6728549-2.1118703-2.633801-3.0544876-2.8549088-2.7999228-5.182941-6.0004579-7.194149-9.4372293-4.5426012-7.7611741-7.9194407-16.0611529-11.0617896-24.4501567-2.172384-5.7997153-3.8885877-11.75857-5.4491431-17.7558277-1.7580978-6.7557155-3.1696964-13.5792181-3.9601568-20.5214206-.1963786-1.7237679-.3534815-3.4516089-.542005-5.1762496-.038112-.3485357.0061096-.76224-.4523982-.9813112-.270857.432033-.2440914.8614476-.2577651,1.2798068-.0433488,1.3164641.1236458,2.616927.3331163,3.9106984.6679782,4.1227873,1.4156717,8.23161,2.2288246,12.3279226,1.6548172,8.3380908,3.6666071,16.5854111,6.3452115,24.6605001,1.6286334,4.9097565,3.4827385,9.7299061,5.6597774,14.4243735.3505722.7558395.7302375,1.507315.9676375,2.3961101-.3857749-.1707767-.4794548-.4521072-.6263751-.6804883-1.3027903-2.0269183-2.5098643-4.1111501-3.6407142-6.237276-7.3052848-13.7331207-13.8070173-27.8421247-19.7105951-42.2292589-.3351528-.8175169-.6164834-1.6591812-.8858858-2.5014273-1.3487575-4.2138488-2.6128539-8.4527178-3.7466132-12.7296987-1.6443437-6.2009096-2.9605168-12.4672787-3.6346046-18.8532205-.6193927-5.868957-.6409216-11.7393686.1914328-17.593779.308969-2.172093.673215-4.33604,1.4214903-6.4159078.5888449-1.6367795,1.498878-3.0195759,2.8554906-4.1396614,1.6984569-1.4022888,3.4900118-2.6620213,5.3682642-3.8053813,2.5424486-1.5471726,5.1974875-2.887784,7.8309976-4.2685439,3.1362393-1.6443437,6.2637507-3.3052704,9.1259328-5.4130676.0302569-.0221108.1175362.0334571.2211078.0669142-.8701755,2.28672-1.9463303,4.4727777-3.1263477,6.6067587-1.545427,2.794686-3.2549393,5.4761997-5.4101583,7.8583451-.6129922.6778699-1.1613977,1.0042948-2.083359.5740074-.57168-.266784-1.2306394-.4928376-2.0077168-.2993683.2100524.4395972.3796653.8204262.5708072,1.189909.6179381,1.1945639,1.2480952,2.3821454,1.8023194,3.6098755,4.0922396,9.0680375,8.3139435,18.0752703,12.7128247,26.9990058,4.2420692,8.6057476,8.4399168,17.2391337,13.1663866,25.5914802,4.7453803,8.3855126,9.353441,16.8332846,13.3700385,25.5984625,1.6239785,3.5447069,3.1490403,7.1196706,4.3113108,10.8444639.5481146,1.7569341,1.0685906,3.5252145,1.7057302,5.2498552.3392259.9181792.3118783,1.7479152.0829154,2.6739495-1.5896486,6.4289997-2.985246,12.8937839-3.6127848,19.5049066-.406431,4.2830905-.3790835,8.5565802-.0200743,12.8379251.4110859,4.9039379,1.0005127,9.7950747.9973125,14.7292695-.0011637,1.5911032.0913524,3.1865704.3578455,4.7625453.0410213.2426367.0843701.4931285.1809593.7165638.3304979.7616581.8189716.8375912,1.3557398.2196531.3584274-.4122496.5201852-.9167245.6412126-1.439819.2822034-1.223657.2865673-2.4653518.1681583-3.700646-.287731-2.9954286-.6071736-5.9882388-.9318529-8.9801762-.4512344-4.1565354-.8501012-8.3130707-.7587488-12.5045179.0605137-2.7853762.5015655-5.4858004,1.4107258-8.1236745,1.4552383-4.2237405,3.2537756-8.3063793,5.0974072-12.3657436,3.7201384-8.1911705,7.236334-16.4600197,10.0435301-25.0168909,2.3611984-7.1964764,4.7584722-14.379861,7.503409-21.4436728,1.409853-3.6282041,2.6227456-7.3311776,4.0846753-10.941635.2522374-.6231748.5318224-.931562,1.2864982-.9530909,6.1977093-.1783409,12.2278422-1.3670861,18.1477122-3.1583501,1.4913138-.4515254,2.9491705-1.0019674,4.331676-1.7304593.3718102-.1957968.7625309-.3822837.9548365-.8050069.7796959-1.7127125,1.4543655-3.463537,1.7505336-5.3304431.1361558-.8605748-.3869386-1.2824251-1.2128926-1.0074951-.4218504.1405198-.8061706.3930482-1.2338396.6083373-.1757225-.4689812-.2484553-.9609461-.5111663-1.3094817-1.0560806-1.3999614-1.4840405-3.0373227-1.9201465-4.6828301-.2356543-.889086-.4942923-1.7746809-.9597823-2.5802696-.1047353-.1815411-.1984151-.4288327-.4430884-.4000305-.3255521.0378211-.2947134.3508631-.3272977.58419-.0913524.6525589.0925162,1.3024994.0244382,1.9829877-.4299965-.5289131-.7904603-1.0822644-1.1407416-1.6420162-.6953258-1.1107757-1.3758141-2.2320249-2.2235879-3.2374834-.8073343-.9577458-.8262449-.9693831-1.6495804-.0826245-1.011859,1.0904105-2.0021892,2.2011862-2.9878644,3.315453-1.4319638,1.6181598-2.828434,3.2691949-4.4041179,4.7535264-.2702752.2545649-.4896374.5934998-.9397081.7101633-.0427669-.4535619.2019063-.7779503.3491176-1.122122,3.3122528-7.7454638,6.6349791-15.4868546,9.9449044-23.2334821,1.1424872-2.6739495,2.1421271-5.3964845,2.6070353-8.2848504.3270068-2.0301186.7040537-4.0459815,1.5570643-5.9379077.0724419-.1603031.1192818-.3334073.164958-.503893.0864066-.3223519-.0075642-.5481146-.347372-.6557591-.3747195-.1187-.7540939-.1957968-1.1471421-.1966696-.9562912-.0020365-1.9143279-.0398576-2.8677097.0087279-.6112466.0311296-1.0560806-.1579757-1.5212797-.5524785-2.1101247-1.7906821-3.700646-3.988668-5.1302824-6.3274647-1.2926077-2.1147796-2.5648503-4.2446876-4.1137685-6.1901451-.0477127-.0599318-.1696129-.1690311.0232745-.2554377.3773379.0578953.6924165.2947134,1.0296058.4736361,2.0356463,1.0787732,3.959284,2.3443244,5.9256886,3.5394701,4.9027741,2.9805911,9.9355946,5.7202911,15.188359,8.0413409,1.7802086.7866782,3.5898012,1.511679,5.2865125,2.4737888,1.6071045.9114877,2.7397,2.1520188,3.1088918,4.0663467.4093403,2.1211801.825663,4.2382871,1.0767367,6.3841963.3674462,3.1391486.5321133,6.2977897.2106343,9.4395567-.6991079,6.8363035-1.8767978,13.6024926-3.213918,20.3410432-1.833449,9.2385232-4.094567,18.3755114-6.5284982,27.4703145-.8410824,3.1423489-1.5460089,6.3309559-2.9389879,9.3010734-1.3091908,2.7923585-2.3434516,5.6929435-3.3812035,8.5926557-1.5983765,4.4657953-3.2206094,8.9228627-5.1209726,13.2722856-.1379014.3159514-.2094705.69038-.5449143.9501816-.0869885-.2970408-.0014547-.4957469.050622-.6999807.5678979-2.2291156,1.1709985-4.4497941,1.6935111-6.6893832,1.4953868-6.4095073,3.2625035-12.7570462,4.450085-19.236668.8134439-4.4384478,1.3019175-8.9024975.7602035-13.4189149-.1434291-1.1963095-.2726026-2.4025106-.8332272-3.7663965-.072151.7869691.0110554,1.3094817.0698235,1.8343218.3002411,2.6850049.3185698,5.3720463.0317115,8.0596696-.3988668,3.7370124-1.15587,7.4117656-1.9288745,11.0839004-1.9329475,9.1838281-4.4553218,18.2163719-6.9730412,27.2509523-2.0341916,7.2994661-4.8632075,14.2634885-8.6325133,20.8428996-.9327257,1.6280515-1.8191934,3.2828687-2.7219532,4.9277942-.2211078.4029398-.4512344.8061706-.5009837,1.2766065-.0258929.245546-.0907706.5452052.1300463.6964895.288022.1969605.5422959-.0392757.749439-.2234352.5772077-.51233.8550471-1.206783,1.0953563-1.913746.7770775-2.2858472,1.7636255-4.4820875,2.9160043-6.5980308,2.5628138-4.7063955,4.6432634-9.624589,6.5331531-14.6303528.6993988-1.8523595,1.2018372-3.777161,2.0929597-5.5602789,2.184894-4.3718245,4.14548-8.8457659,6.0746454-13.3348358,2.0821953-4.8454607,3.891206-9.8078757,6.1913088-14.5587837,1.7156218-3.5435431,3.116456-7.211023,4.4413571-10.9113781,2.1610376-6.0356606,3.8501847-12.2173687,5.6510494-18.3638741,2.2500626-7.6776768,4.4972159-15.3576811,5.4744541-23.3338534.5661523-4.6199889.8055887-9.2452146.1140451-13.8745133ZM7.8229739,65.3036238c-1.8075561,5.2405454-2.553213,10.6504127-2.6096537,16.1757799-.0738965,7.1961855.9638554,14.2521421,2.6279824,21.2321657.8207172,3.4422991,1.7755537,6.8485226,2.7632654,10.2457273.0386939.1335375.1146269.2618382-.0285113.5475327-.3924663-.8631931-.7892966-1.6149596-1.0837191-2.405129-1.7671167-4.7401435-3.7215931-9.4122092-5.2242532-14.248651-1.5832481-5.0959525-2.6204181-10.2940219-2.6192544-15.6494851.0011637-4.3392402.766313-8.5234141,2.9162953-12.3695258.7471116-1.3365384,1.6577265-2.5517584,2.6908235-3.6770806.1774681-.1934693.330207-.4454158.6319028-.4902192.1245186.2522374.0026184.4425065-.0648777.6388851ZM88.1269929,34.9603628c.5684797.338644.6895072.8323544.7988973,1.291444.8634841,3.6180216,1.6463802,7.240698,1.5515366,11.0044761-.0864066,3.4335711-.1588485,6.8703425-.0285113,10.3059501.0523676,1.3798871.1134632,2.7600652.17805,4.1396614.1925965,4.1265695-.3121693,8.1984438-.9365078,12.2633358-1.7869,11.6363789-4.805894,22.9905544-7.8592179,34.3360021-2.464479,9.1576443-4.8582617,18.3321626-6.8249572,27.6125799-.8949047,4.2225768-1.6391069,8.4765741-2.6419471,12.6770401-.1041534.4355241-.156812.8902498-.4768364,1.283007-.6036824-3.6453691-1.3333381-7.2680455-1.7167856-10.9148693-.4579259-4.3555324-.9335985-8.7247385-.8550471-13.1343841.1216093-6.8360126-.1765953-13.6688249-.4521072-20.4993098-.0584772-1.4508744-.1006622-2.9029124-.1114267-4.3546596-.0075642-1.0342607-.0945527-2.0528112-.397994-3.0419776-.5457871-1.7810814-.300823-3.5938743-.156812-5.3833926.2196531-2.7277718.1745588-5.4511796.0564407-8.1751693-.1809593-4.1757368-.5347317-8.337509-1.1683801-12.4725154-.546078-3.5650721-.9216703-7.1612738-2.0219725-10.5791346.2772575-.3275886.5068023-.0823336.7194731-.0418941,1.9634953.3738467,3.8821872.2996592,5.6943982-.6173562.4078857-.2062703.6589594-.0372392.965601.1306282,2.1147796,1.1576156,4.3031647,2.1505641,6.5858117,2.9317146,1.5788841.5399685,3.1807518.9752017,4.8600072,1.0485164,2.3341418.1021169,3.6488603-.7084177,4.6039877-2.8377438.5597518-1.2475134.7840598-2.5764875.8364275-3.9246631.0939708-2.4339312-.2979136-4.7968751-1.2059102-7.0655574-.0922252-.2298357-.1841595-.4611261-.2973318-.6807792-.6240476-1.2126016-1.2792249-2.3958192-2.8648004-2.6436927,1.6277606-4.0928214,2.6419471-8.2679764,3.1659143-12.6572568ZM73.3337186,56.4767684c.5356045-.1300463.974038-.2365271,1.4971324-.3636641-.6031006-.4474523-1.3056996-.2926769-1.8773796-.6447037.2656203-.3782107.8457373-.3817019,1.0217507-.8466101-.0907706-.241473-.4041036-.034039-.5219307-.2918041,1.6629633-1.5585189,3.577873-2.7234078,5.7328011-3.5025218,2.0307004-.7343106,4.141116-1.1901999,6.2090556-1.7950461.4282509-.1251005.6586684.0162922.8407914.393921.4337786.9007233.6624506,1.863124.8855949,2.8272703.6871797,2.9701176.7759138,5.9512905.118409,8.9382821-.105899.4812004-.2542739.9586186-.4372697,1.4159626-.4916739,1.2303484-1.2524592,1.6859468-2.5631047,1.5780113-.1053171-.0087279-.2094705-.0331662-.3136239-.0529495-2.8450171-.5393866-8.5932376-2.7653019-11.2241293-5.2783664,1.2318031-.4681084,2.5366299-.3307889,3.6930818-1.0185505-.8291542-.9327257-2.0853955-.7060902-3.0611791-1.359231ZM81.6881015,44.9957468c-.1742678,1.0450252-.4128315,2.078995-.6031006,3.1214018-.0581863.3194426-.2051066.5146575-.5143665.5905905-3.1260567.7692223-5.7522935,2.4822258-8.2796136,4.4413571-.5318224-.3334073-.4227232-1.1224129-.9551274-1.177108-.4570531-.0468399-.9458176.2269264-1.4223631.3508631-.1611759.042185-.330207.0730238-.5847719-.0872794,4.6525732-2.0403012,8.4000592-5.2629471,12.2278422-8.4861749.3022776.4337786.1952149.8626113.1315009,1.2463497ZM70.1587854,53.8386035c.3560999-.0107645.503893.169322.5312405.5044749.1120085,1.3711592.2266355,2.7420274.3482448,4.1126047.0314206.355518-.1140451.5216398-.4681084.5414231-.7753319.0433488-1.549791.0983348-2.324541.1486659-.0002909.0119282-.0002909.0238564-.0005819.0357845-.5999003,0-1.1998006-.008437-1.79941.0026184-.4576349.0087279-.7244189-.2065612-.8437007-.6377214-.3444627-1.2475134-.3203154-2.5124826-.1803774-3.7826887.0474218-.4285418.3552271-.5978638.7258736-.6455765,1.3313016-.1710676,2.6704583-.2388546,4.0113607-.279585ZM65.7793966,52.3600906c-.5585881-.0651686-1.08401-.0273475-1.4130533.4942923-.3011139.4777092-.6016459.3249703-.9693831.0989166-1.9992798-1.2297666-4.1344246-2.1601648-6.3795414-2.8391985-.6426672-.1943421-1.2934805-.3619185-1.9428392-.533568-.3110056-.0820426-.6147378-.148375-.7642765-.4925467-.6403398-1.4753126-.9495997-3.0050293-.8547561-4.7791283,1.5809206.9280708,2.8551997,2.0437923,4.2240314,3.0187031,1.3894879.9891664,2.8787651,1.7962098,4.3927716,2.5683414,1.4956778.7628218,3.0693251,1.3787234,4.5620936,2.2974844-.3831565.3773379-.6263751.1934693-.8550471.1667036ZM59.9648438,52.9207152c1.0342607.3982849,1.9963705.8969412,2.8415259,1.6149596.0808789.0686598.1669946.1309191.3194426.249619-.3700646.1635034-.5443324-.0581863-.8015157-.016874.1585576.4747999.7523483.5670251.8303179,1.0659723-.3645369.1841595-.8070434-.3264249-1.1864178.1635034.2513646.3293342.6918346.2778394,1.0607355.5187305-.8704664.4302874-1.8325762.4096313-2.684714.7497299.0986257.3238065.4477433.2388546.5824444.4497798.046549.0561497.0261838.1047353-.0474218.1617578-.3482448.270857-.9248706.5213489-.6961986,1.0182595.1925965.4189411.7700951.1911419,1.1776899.152448.8634841-.0814608,1.723477-.1966696,2.6102356-.2257627-2.4336403,2.0941234-4.9766707,3.9331001-8.3619472,4.0867119-1.3441026.0608046-2.3675989-.3453354-3.0850354-1.5724836-1.7595525-3.0108479-2.2035136-6.1572699-1.1061208-9.4776687.3971212-1.2015462.537641-1.2437313,1.7880637-1.0621901,2.3667261.3438808,4.5492926,1.2725335,6.7589158,2.1235075ZM54.8374707,64.1771379c1.9312019-.165249,3.7175201-.8556289,5.4546708-1.6647089,1.0895377-.507966,2.1438727-1.0909923,3.2153726-1.6373613.6109557-.3112965.6639052-.3060597.9158517.334571.6135741,1.5585189.8917044,3.1990805,1.138996,4.8454607.3840293,2.557577.5271675,5.140465.8143167,7.7082246.4329058,3.8705499.8148985,7.7457547.9894573,11.6378336.0747693,1.6626723.1367377,3.3259265.1739769,4.9897626.0311296,1.3926881-.3325345,2.7376635-.5888449,4.0916577-.2368181,1.2524592-.2021972,2.4647699.3107146,3.6430416.6752515,1.5515366.8899588,3.171442.9269071,4.8614619.1722313,7.8603817.3787925,15.7195996.3889751,23.5831815.0037821,2.760938.2525284,5.5166392.5277494,8.2659399.0174559.1733951.0194924.3479538.0311296.5612065-.3712283-.2571833-.3869386-.6356849-.4672357-.9609461-3.3166167-13.4160056-8.0884718-26.3778675-12.334614-39.5029418-2.9561529-9.1384428-5.3135691-18.419151-6.9433662-27.887219-.5943726-3.4513179-1.2553685-6.8924532-2.028373-10.3100231-.046549-.2056884-.1067718-.4131224.0229836-.8151895.8076253,1.2143472,2.112743,1.9329475,2.0542659,3.5819461-.0299659.8439917.2577651,1.6821647.7020172,2.4231667,1.0656813,1.7775902,2.7021698,2.4214211,4.6950492,2.2509354ZM85.916497,31.783684c-.0352027-.1297554-.1047353-.2571833.0325843-.4352332.9562912.7267464,1.2120198,1.7706078,1.3106455,2.8674188.1635034,1.820648-.139938,3.5976564-.6342302,5.3397529-.6458675,2.2745008-1.3272286,4.53911-2.0144083,6.8016827-.1850323.6089192-.4512344,1.1919455-.9539637,1.6248513-.1416835.1219002-.3031504.1908509-.4846915.1253914-.2152892-.0776787-.1707767-.2755119-.1745588-.4454158-.0005819-.0352027-.0014547-.0727328.0090189-.1053171.5105844-1.5716108.3182788-3.1429308-.0145466-4.7101776-.0968801-.4558893.0445125-.8163532.2935497-1.1861269.6313209-.9376716,1.232385-1.8945446,1.752861-2.9011668,1.1471421-2.2195148,1.5416449-4.5300912.8777397-6.9756596ZM84.8255046,32.1467663c.2423458.4474523.3072234.9338894.3136239,1.4369097.0241473,1.8578872-.5708072,3.5575078-1.3819236,5.1832319-.7628218,1.5288439-1.7578069,2.9189137-2.9610987,4.1294788-2.9619715,2.9794274-6.2518225,5.5605698-9.9486865,7.5557766-2.9171681,1.5739383-2.2497717,1.3609766-4.8984102.1963786-3.9709212-1.7458787-7.6247273-4.0506364-11.0620805-6.6867648-1.7196949-1.3187915-3.268904-2.8293068-4.509435-4.6228982-1.0636448-1.5378628-1.8456681-3.1859886-1.8363583-5.1131175-.0104735-1.5230253-.0020365-1.5192432,1.5585189-1.2847526,4.3398221.651977,8.6712072,1.3766869,13.0523415,1.7048574,5.6827609.4259234,11.322755.2734754,16.8332846-1.3999614,1.2896984-.3915935,2.5130645-.9501816,3.7477769-1.4817131.6031006-.2595107.7843508-.186196,1.092447.3825746ZM61.8378595,6.8136331c.5905905-2.5904522,3.3186533-4.4113912,5.94489-3.9560837,1.3045359.2260536,2.125544,1.0694634,2.6233275,2.2474442.5900087,1.397343.7290738,2.8729465.6886344,4.3142201.0116373,1.6606358-.1815411,3.2438839-.5559697,4.7951296-.4067219,1.6856559-.8259539,3.3669478-1.1709985,5.0668594-.245546,1.2079467-.804716,1.4296364-1.8895987.8125711-.1829958-.1041534-.3645369-.224308-.5143665-.3703555-3.0207396-2.9424791-4.945541-6.4330727-5.3109507-10.6931796-.063714-.745366.0197833-1.4901501.1850323-2.2166055ZM48.3147911,26.3432689c.5143665-.5568425,1.1800173-.8972321,1.8570144-1.2088195,1.7729353-.8160623,3.6276223-1.3990886,5.5052928-1.9157826,1.7002025-.4678175,3.4068054-.9088694,5.2431638-1.2390764-.1960877.9830568.1774681,1.6009949,1.0514257,1.9611678.5620793.2315813.7500209.7293647.6618687,1.3132639-.0788424.5236763-.2109252,1.0394975-.288022,1.5634648-.1006622.686016-.0029093.8265358.6828157.8844311,1.4558202.122773,2.9026215-.0302569,4.3398221-.241473,1.3993795-.2056884,2.7961407-.4407609,4.1649724-.8090799,1.2507136-.3363166,1.5596827-.8550471,1.1773989-2.1089609-.1937602-.6356849-.4852734-1.2416948-.7503118-1.9050181.402358-.2228534.7904603-.0730238,1.1355048.004364,2.2544266.5065114,4.4218647,1.253332,6.4167806,2.447605.7343106.4393063,1.4139261.9458176,1.9620406,1.6082682,1.2923168,1.5620101.8341,3.4370623-1.0191323,4.2313047-1.9524399.8367184-4.0288165,1.0764458-6.1121755,1.2190021-4.433502.3037323-8.8443113-.0674961-13.2484292-.5507329-1.477931-.1623397-2.9532435-.3412624-4.4058635-.6685601-.1309191-.029675-.2909313-.0064005-.4125406-.2292539,4.2577795-.4390153,8.5045035-.6170653,12.7515185-.9929485-.4558893-.5940817-1.0845919-.6004822-1.6553991-.6897981-4.1428616-.6490677-8.3092886-.8320635-12.495499-.5568425-1.3778506.0904796-2.756574.1940512-4.1393704.0992076-.867848-.0596409-1.6748914-.2967499-2.3419969-.8797762-.5594609-.4890555-.5780805-.7974427-.0808789-1.3359565ZM46.6550281,34.6062994c.0800061-.152448.1760134-.317697.3974121-.2536921.1582666.0459671.2013245.1937602.2304176.3293342.1114267.5175668.1818321,1.045898.3223519,1.5553187.4692722,1.7042755,1.422945,3.1449673,2.5249927,4.4957613.4689812.5748802.9560002,1.1360867,1.4604751,1.6801282.2662021.2874401.3479538.5475327.2275083.9458176-.5321133,1.7601343-.3371894,3.4876843.2888948,5.1945782.3523178.9603642.3747195.830027-.5582971,1.1555791-.0983348.0343299-.2053975.0433488-.3787925.0779696-1.2015462-2.7600652-2.3891278-5.4372149-3.5330696-8.1329843-.6217202-1.4654209-1.0997203-2.9820457-1.3135548-4.5702397-.1154997-.8570836-.0808789-1.6935111.3316617-2.4775709ZM45.0953455,38.414881c.0765149-.1882325.1090992-.4250506.3741376-.4707268,1.2652602,4.0730381,3.0137573,7.9246775,5.2856397,11.5351348.1437201.2277992.2487463.4026489.0858247.6644871-1.0618992,1.7036936-1.3807599,3.6174397-1.5579371,5.5701705-.0157103.1733951-.0564407.3444627-.0861157.5219307-.3904298-.0290931-.4349423-.3619185-.5702253-.5795351-1.6292152-2.621-2.4403317-5.5535874-3.2665766-8.4887932-.5609155-1.9922975-.9624007-3.9880862-.8439917-6.067663.0526586-.927489.2298357-1.8247211.5792442-2.6850049ZM26.8306789,62.9764644c2.8616002-3.4617914,5.1104991-7.2921928,6.8898349-11.407125.3366075-.779114.6880525-1.5518275,1.0133137-2.3355964.8294451-1.9978252,2.0723036-3.6913362,3.7003551-5.1122447,1.1227039-.9798566,2.0929597-2.10867,3.0803805-3.2194457.7031809-.7904603,1.4241087-1.5637557,2.2154418-2.248317.3689009.1806683.2109252.4515254.1835776.6726331-.1320828,1.0589899-.474218,2.066485-.8058797,3.0728163-.4425065,1.3432298-.8713392,2.6940238-1.3923972,4.0072876-1.1823448,2.9803002-1.8238483,6.0865736-2.3146494,9.2385232-.3697737,2.3763268-.7546758,4.7619634-1.6967113,6.9931155-.8396277,1.9893882-.4279599,1.5908123-2.4164753,1.7639164-2.7644291.2406002-5.508784-.1283007-8.2385923-.5638248-.1384833-.0221108-.2766757-.0576044-.4081766-.1056081-.0590591-.0218198-.1009532-.0901887-.1544845-.1408107-.0354936-.2862764.1952149-.4346514.3444627-.6153197ZM66.50207,147.6339793c-2.8691644-7.4196207-6.5270435-14.4403747-10.5782618-21.2699868-3.4859387-5.8759393-7.1746566-11.631724-10.5218211-17.589415-5.7429837-10.2221619-10.8639563-20.7521291-15.518857-31.5125139-1.7420966-4.0270709-3.4318255-8.0779983-5.3254973-12.0384459-.0602228-.1262642-.0989166-.262711-.2065612-.5542241,1.9332384.5132028,3.7416674.8239174,5.5716252.9789838,1.9402208.1643762,3.8804416.2615472,5.8235717-.05935,1.1506333-.1899781,1.9262561-.8157713,2.4842623-1.7901002.6752515-1.1794355,1.0677178-2.464188,1.4063619-3.7675602.6505224-2.5034638.9827659-5.0697687,1.4907319-7.6014528.4666538-2.324832,1.1669254-4.5850772,1.9335294-6.935802.2705661.2723117.3319526.5289131.4180683.7744591.0936799.2670749.1838686.5367682.3022776.7930787,1.65569,3.5828189,2.2960298,7.422821,2.8179605,11.284352,1.7112579,12.6645301,4.6077698,25.0378379,8.862349,37.0989765,2.2710097,6.4386004,4.4890698,12.8984388,6.4723485,19.4339194,2.2113688,7.2875379,3.8487301,14.7147229,5.318515,22.1811836,1.0863374,5.5189666,2.0289548,11.0670264,3.3273812,16.543517.4503616,1.8997813.4009033,3.7829796-.1856142,5.7185455-.3735558-.3974121-.4116678-.8707574-.5353136-1.2891166-1.033097-3.4943758-2.0403012-6.9934064-3.3570562-10.3990481ZM118.9750197,102.0723933c-.3965394,1.147433-.7930787,2.2791557-1.1776899,3.4146606-.1460475.4311602-.5315315.5353136-.8815218.6950349-3.006193,1.3752322-6.1517422,2.3277413-9.3659511,3.0637974-3.074271.7043447-6.1921816,1.1552882-9.3199839,1.5422268-.2106343.0258929-.4230141.0436397-.6353939.0520767-.7052175.0270566-.795988-.0477127-.5641158-.6871797.3860658-1.0636448.8503922-2.0984874,1.2495499-3.1577682.1536117-.4084675.4602533-.4980744.8195535-.5550969,4.6551916-.7389655,9.1980837-1.9841514,13.7776332-3.0617609,1.8253029-.4297055,3.6389686-.9071238,5.457871-1.3627222.1655399-.0413122.3278796-.1384833.6400488.0567316ZM107.3537692,95.5721155c1.3534124-.96531,2.7164255-1.9143279,4.1719547-2.7245716.4177773-.2324541.7139454-.3028595,1.0825553.127137,1.8648696,2.1750023,3.7611597,4.3229481,5.6452308,6.4816583.1149179.1317919.2339088.266784.207434.5777895-6.4476193,1.0464799-12.7104972,2.9794274-19.0900386,4.7925112.0459671-.499529.2874401-.8486466.4491979-1.219584.5510239-1.2638055,1.1154306-2.5215015,1.6734368-3.7821068.1594303-.3604639.3520269-.6711785.7316922-.8658115,1.8337399-.9391262,3.4591731-2.1968222,5.1285368-3.3870221ZM112.8680809,59.7023236c.6932893-.025311,1.3886151-.0037821,2.053684-.0037821.1189909.2481644.0116373.4131224-.054986.5644067-1.9483669,4.4201191-3.1539861,9.0831659-4.5370735,13.6920994-2.5567042,8.5210866-5.7389107,16.8120466-9.5742579,24.8400047-4.3511684,9.1076041-8.2479021,18.4092594-11.8996717,27.8115769-1.8052287,4.6482093-3.3361091,9.4028994-5.0066366,14.1037672-1.2920259,3.6357684-2.6957694,7.2287698-4.2627253,10.7554389-2.2011862,4.9554327-3.861822,10.1133536-5.7255278,15.1950505-1.2431494,3.3890586-2.4929902,6.774917-3.8650222,10.1139354-.1309191.3188607-.1957968.6799064-.6068827,1.0613174.1073536-.8084981.1803774-1.4764763.2868583-2.1392178,1.363595-8.4908298,2.8924389-16.9514027,4.6202799-25.376191.8244993-4.0203795,1.8287941-8.002938,2.5633956-12.0422281.8102436-4.4561946,1.5809206-8.9199534,2.4214211-13.3703294,1.0124409-5.3609909,2.5351753-10.5960086,4.0398719-15.8330628,3.1400214-10.9270884,5.6426124-21.9987697,7.58807-33.1993335.660705-3.8030539,1.2821342-7.6098898,1.5812116-11.4600745.2580561-3.3250537.1070627-6.6550533.0386939-9.9833073-.0069824-.3366075-.1323737-.6915437.1256823-1.1005931.3828656.2740573.7506027.5300768,1.1104847.7962789,3.2799594,2.4272398,6.8336851,4.2763991,10.8520281,5.1439562,2.7266081.5882631,5.4872551.5306587,8.2511024.4302874ZM103.6109382,49.3285866c.7802777,1.1381232,1.5535731,2.2814832,2.3306506,3.4219339,1.202419,1.7642074,2.5633956,3.3829491,4.2589432,4.7026134.2714389.2112161.58419.4017761.7826052.8940319-1.8168659.2621291-3.5490708.3124602-5.2664383.0849519-5.0494035-.6694329-9.281872-3.0617609-13.0892898-6.3251372-.3686099-.3159514-.4407609-.6787427-.4483251-1.1218311-.0270566-1.6274696-.0363664-3.2543574-.1405198-4.8812452-.1585576-2.4798983-.6769971-4.9036469-1.0473527-7.3503791-.0686598-.4547256-.1605941-.9056691-.0782605-1.3670861.3043141-.1338284.470145.1006622.6400488.2528193,2.1368903,1.9146188,4.450376,3.6136576,6.6495256,5.4523433,2.1403815,1.7895184,3.8426205,3.9525925,5.4084127,6.236985ZM137.9344302,81.4802765c-.651977,6.4001975-2.1802391,12.6133262-3.9074982,18.7889247-2.0507747,7.3308867-4.2897819,14.5995141-7.0286091,21.7066747-.1489568.3866477-.2219806.8157713-.5422959,1.1552882-.1829958-.3412624-.0357845-.6371395.0261838-.9306892,1.6245603-7.6861138,3.2590123-15.3699002,4.8757175-23.0574686.9469814-4.5036164,1.7092213-9.040399,2.4464412-13.5824183.3281705-2.0237181.8198444-4.0209614,1.2579869-6.0257689,1.0540441-4.8265501.5897177-9.5710577-.7218005-14.2786169-.3814109-1.3697045-.8855949-2.6832593-1.5212797-3.9555019-.1891053-.3782107-.57168-.867848-.1501205-1.2591506.4203957-.3901389.9522181-.1061899,1.3938518.1003713.8771578.4105041,1.3999614,1.1733259,1.8363583,1.9975343.7543848,1.4241087,1.134923,2.9753543,1.447965,4.5367826.9827659,4.9010286,1.0927379,9.8384235.5870993,14.8040388ZM73.6348324,187.4616004c-2.4324765-.0308387-4.3633875,1.8898897-4.3913169,4.3680424-.0282203,2.4921175,1.956222,4.412264,4.5836225,4.4355385,2.188967.0194924,4.1536261-2.2331886,4.1725366-4.7834923.0180377-2.4164753-1.6868196-3.9863406-4.3648422-4.0200886ZM75.834273,191.7324718c-.1469203,1.1244494-.9818931,1.9056-2.1374722,1.9757144-.308969.0186196-.6336484.0727328-1.0156411-.1739769.2504918-.4110859.64354-.5036021.9679284-.6889253,1.2515864-.715691,1.3435207-2.1630742.177759-3.1097646-.1090992.3482448.1629215.5934998.2208169.8902498.2670749,1.3667952-.686016,2.515101-2.0414649,2.4528417-.3014048-.0139647-.5425869-.0989166-.7363471-.3398077-.5644067-.7025991-.5428778-2.0208088.1283007-2.6247821.7956971-.7154,1.6399797-1.3554489,2.8450171-.9269071,1.1282316.4011943,1.7473333,1.3475937,1.5911032,2.5453579ZM71.7702538,97.4401853c.3502813-.4046854.6255023-.8579564.7587488-1.3775597.2912222-1.1360867-.397994-2.0484472-1.7199858-2.3009756-.8471919-.1617578-1.5192432.4832369-1.6591812,1.5960491-.0177468.139647-.0221108.2807487-.0200743.2525284-.0151284.830027.1605941,1.4261452.6359758,1.9041453.6534317.6572138,1.3982158.6269569,2.0045166-.0741875ZM70.0566685,96.3233001c.114336-.2251808.3846112-.1073536.5422959-.241473.1684492-.1431382.3054779-.2973318.2574742-.5402594-.0372392-.1891053-.1556482-.3395168-.3342801-.3668644-.3723921-.0576044-.1960877.2522374-.2662021.4125406-.0864066.1966696-.3016958.1675764-.4384335.0427669-.2833671-.2592198-.2819124-.5972819-.0314206-.842537.2275083-.2231443.7767866-.109972.6953258-.6743787-.0005819-.004073.1891053-.0663323.2787122-.0480037.8076253.1637943,1.494805,1.2274391,1.3286832,2.0411739-.1844504.9036326-.8533015,1.181472-1.6137959.6612868-.1658308-.1134632-.3927572-.1841595-.4183592-.4442521ZM72.5162016,125.1944487c.004073.0061096.008437.0119282.01251.0183287-.3549362-.4014852-.876576-.3444627-1.3269376-.4803276-.2109252-.063714-.3700646.0439306-.4032308.2283811-.2024882,1.1285225-.2760938,2.2622817.4116678,3.2633763.4038126.5879721,1.3595219.622302,1.8861076.1437201,1.1919455-1.0834281.9234159-2.5523402-.580117-3.1734785ZM73.1178475,127.598414c-.372683.0861157-.5009837.4820732-.76224.5850628-.368319.1448838-.5859356-.2915132-.8268267-.5326952-.1230639-.1233549-.2170347-.2810396-.1585576-.5364773.1763044-.2379818.4800366-.1021169.7398383-.1341193.1998698-.0247292.478291.0241473.4570531-.2830761-.0177468-.2542739-.2600926-.2740573-.4797457-.3051869-1.0717909-.1527389-1.071209-.1576848-.8882132-1.3350837.4285418.2897676.867848.5411322,1.3432298.1763044.3578455.5425869.7901694,1.0566625.698817,1.7764265-.0264747.2068521-.0407304.5696435-.1233549.5888449ZM69.4771333,70.9948218c-.2522374.0628412-.482655.0308387-.7162728-.0800061-.719764-.3418443-1.2504227-1.4913138-1.0232054-2.2497717.0497493-.1658308.1146269-.3395168.3278796-.359882.1632125-.0157103.2862764.0907706.3281705.2170347.0989166.2976227.6036824.5614974.0058186.9365078-.2347816.1475022.0605137.525131.4724724.4457067.2315813-.0445125.3901389-.194633.3348619.2016154-.0596409.4256325.2705661.3540634.487019.2944225.5030202-.1381924.5937908-.5641158.5763349-1.0069132-.0136738-.3560999.0826245-.7002716-.4812004-.8914135-.4451249-.1512843-.6964895-.7610763-1.206783-1.007786,1.0354245-.3107146,1.8762159.2205259,2.1197254,1.2288938.2443823,1.0112772-.3153695,2.045247-1.2248207,2.2715915Z"/>
  </g>
</svg>