<?xml version="1.0" encoding="UTF-8"?>
<svg id="Layer_2" xmlns="http://www.w3.org/2000/svg" viewBox="0 0 71.253522 123.3385041">
  <g id="Layer_1-2" data-name="Layer_1">
    <path d="M25.3705233,102.6913754c-.0017766.2212665-.2277068.200761-.3879011.2384407-.5869595.1381342-1.1990141.1338407-1.7730189.3608072-.8162949.3226093-1.3075376.888175-1.4340496,1.7584356-.1095598.7531499.1742594,1.3292275.8226612,1.715648.456302.2719749.9305184.514043,1.3889672.7826127.1192574.0698814.2727152.1738892.2280029.3366745-.0527812.192322-.2541344.195135-.4171417.2126794-.0932739.0099936-.1915817-.0157677-.2864102-.0326459-1.0925634-.1936544-2.3449509-1.547903-2.4228272-2.6183323-.0951986-1.3077597.6292289-2.3932165,1.908118-2.8531458.5041974-.181366,1.0269015-.2728632,1.6378457-.3068416.0682528.0063663.2131235.0139171.3561435.0344225.2149742.0308692.3813127.1603423.3796101.371245ZM71.0731183,56.4271381c-.2670151.8009713-.8433147,1.4062895-1.5217715,1.9066375-.7256859.5350666-1.536799.8900997-2.3908476,1.1613344-1.5557499.4943518-3.1639108.6652059-4.7809549.7136196-5.1285854.153976-10.0395316-.7957894-14.6974538-2.9812123-.3337134-.156789-.681714-.2830049-1.0230521-.4237301.1040819.2733074.2679775.4301705.4392017.5785204,1.8253559,1.5827697,3.7970631,2.9647043,5.8593792,4.2156113,1.5133324.9179339,2.8132452,2.0711253,3.9501508,3.4170088,2.0948139,2.4801241,3.5612873,5.3066201,4.5536923,8.3822168.8895075,2.7563926,1.0366731,5.5562389.4326874,8.4011677-.2614631,1.231586-.7136936,2.4000269-1.0572525,3.6036307-.1417616.4966466-.1608605,1.1981258-.717543,1.3194559-.5502421.1197015-.8613773-.5184106-1.2047882-.8939491-1.1813957-1.292288-2.2100739-2.7104959-3.3009346-4.0774771-.2358498-.2955155-.4195106-.6573591-.8355419-.8349497-.0892024.291444-.1688554.5413589-.2421421.7929764-.5007181,1.7185351-1.1776203,3.359712-2.1395262,4.8760795-.569119.8974284-1.2221105,1.7224585-2.0516562,2.3956594-.6221963.5047156-1.3054648.8911361-2.0959243,1.0690969-.1947648.0438239-.4012259.1208119-.5535733-.0561864-.1867699-.217121-.0519669-.4352043.0599618-.6359653.0799491-.1434642.16508-.2895933.2747879-.4101832.4580786-.5028649.6918556-1.1156598.8844737-1.7506628.4049273-1.3347055.6249353-2.7002061.6290808-4.093837.0091793-3.0468742-.7275366-5.9510245-1.7876022-8.775892-1.4401198-3.8369636-3.147995-7.5436398-5.4118124-10.9833749-.9013518-1.3695721-1.7615447-2.7641654-2.4066894-4.2529949-.0327199,1.839421-.0703256,3.6788421-.0558903,5.5197437.0062923.8034142.0346446,4.1771173.0361251,4.4254776.027464,4.4864018.4044831,8.9556294.6706099,13.4301128.1885466,3.169981.3154287,6.3424789.3493331,9.5163093.0803192,7.5131407.217269,15.0228761.695483,22.5243206.1541241,2.4177934.0535215,4.8458025.0131768,7.2694441-.0076248.4567461-.1779607.7049584-.5799269.8832893-.8255483.3661372-1.6593135.6512889-2.5799124.6703878-1.5544174.0323498-3.101136-.0011844-4.6256464-.3389693-1.2633435-.2798958-1.435086-.4750308-1.451668-1.740299-.0103638-.7988986.0200613-1.5993517.0638852-2.397362.0203574-.3708009-.0734347-.5013844-.4722918-.5099715-1.9385431-.0417512-1.938321-.0541877-1.7896009,1.8314261.0972714,1.2329925.0999363,1.2440965-1.1028531,1.5359106-2.012496.4883556-4.0318025.5681567-6.0274203-.0607021-1.8930906-.596509-3.2712498-1.748516-3.8027631-3.7460585-.4512681-1.6961789.0032572-3.106762,1.3347055-4.2365609.8021558-.6807516,1.7362275-1.1417913,2.6864371-1.5733683.3301601-.1499786.6569149-.307952.9817451-.4691827.2453252-.1217003.3406719-.3214989.3065455-.5972492-.0393083-.3178716-.2784153-.2764165-.4898362-.296848-1.1218781-.1085235-2.1840904-.3951557-3.1602094-.9853724-2.2798072-1.3784554-3.0431729-3.9939747-1.8397171-6.3664636.926447-1.8263923,2.3941788-2.8790552,4.4450208-3.0784097,1.7448146-.1696697,3.4845214-.0487837,5.2249684.098974.3564396.030277.4266172.1863258.4552656.494944.0649956.6988882.1767763,1.3933348.2519136,2.0914827.0484876.4504538.1673009.7601085.712065.519521.0855751-.0379018.1912115-.0279822.285892-.0481175,1.4387133-.3064715,1.4511498-.3733178,1.6040154-1.8556329.1439083-1.3952595.4157352-2.776824.5797789-4.1705289.3667294-3.1163115.3287536-6.2457257.1170366-9.3661087-.3888634-5.7315347-.6207158-11.4688435-.7942349-17.2096315-.0062923-.2087559-.0215418-4.4388025-.0572968-4.9563247-.1422057-2.0585407-.2359238-4.1202646-.2795257-6.1835431-.5838504,1.5116298-1.3645383,2.9250999-2.2128128,4.299928-2.0918529,3.3904332-3.6162153,7.0347787-4.8710457,10.7990478-1.0616201,3.1845643-1.6945503,6.4407126-1.5050414,9.8204119.0972714,1.7344509.3548111,3.4165647,1.5080025,4.8215217.1035637.1259938.1822543.2759724.2542085.423434.1122988.230816.3496292.4854686.1587878.7269444-.2217847.280562-.5477992.1077832-.8253262.0236886-.673571-.2041663-1.2613448-.5666021-1.7978919-1.0138728-.6623929-.5522409-1.2374341-1.1859854-1.7453328-1.8830229-1.2158922-1.6695292-2.0804527-3.513688-2.746621-5.4600779-.0897206-.2618332-.1152599-.566232-.3264587-.7831308-.3698385.176036-.4842841.5033831-.6660943.7655865-.9781178,1.4096207-1.9406158,2.8301974-2.9182894,4.2401882-.2250419.3247561-.4847283.6254535-.7349393.9322211-.1829946.2243756-.3950817.2328887-.585553.0195431-.1527175-.1708541-.302326-.3542929-.4081104-.5558682-1.1769541-2.2438301-1.9813307-4.5923343-2.0956282-7.1550725-.1030455-2.3099362.3483707-4.5157905,1.0100234-6.7136499,1.3132377-4.3621106,3.6678861-7.9205849,7.5673284-10.4085558,1.6106038-1.0275677,3.1611718-2.1604758,4.6123956-3.4139737.4856907-.4196586.9463602-.8679657,1.514813-1.3920763-.5131546-.0079949-.7897192.1858816-1.0844945.3068416-3.1797525,1.3029479-6.4298307,2.3792994-9.8070871,3.043469-2.6044153.5121923-5.1795899.2251899-7.86314.3043987C-.5839089,61.6587689-.0196757,56.0812102.0334017,56.0709205c-.0509305-.0105118.6754957-1.4349379.7433044-1.6741929.2793776-.9844841.769806-1.8693279,1.432421-2.867507-.2194158.0547799.9203027-1.261863,1.528508-1.6367353-.4136625-.5946583-.7688436-1.1860594-1.2017531-1.7137233C.5472225,45.7552685.0158573,42.9339543.246155,39.906105c.2659787-3.4969579,3.0385832-5.7319048,6.5276202-5.3223879,1.6604239.1949869,3.224909.6798633,4.7061877,1.4311625,3.618288,1.8350534,7.1862378,3.7636769,10.7068103,5.7811327,2.2048179,1.2636396,4.429327,2.4898216,6.749701,3.5315285-1.976889-2.5286117-4.0021917-5.0172489-6.3432932-7.2268045-.5173002-.4882816-1.0680605-.9208209-1.6527251-1.2914737-.5147832-.6010986-1.06125-1.1785086-1.583732-1.7790151-.1010468-.1160742-.2191197-.2138638-.3379329-.3102468-.8170352-.8134819-1.6183766-1.6151935-2.4244558-2.4065413-2.2670006-2.2252494-4.5285231-4.4555326-6.2665273-7.1435983-2.2126648-3.4222648-3.4903695-7.1717285-3.8113503-11.2295144-.4200288-5.3109137,3.274507-10.8568629,8.4765271-12.8247206,7.0805273-2.6785162,13.5993384-.41803,18.1334875,5.5374361.6264899.8228833,1.1916854,1.6924036,1.8061089,2.5702148.8490888-1.2794073,1.7463692-2.4818267,2.7783786-3.5783135,3.2555561-3.4589821,7.2891352-4.6717652,11.8958308-3.926092,5.111115.8273989,9.4370265,3.1723499,12.7148647,7.230802,3.2913851,4.0754043,3.7855889,8.6239887,1.9790358,13.4705315-1.1916114,3.1968528-3.2423793,5.8195527-5.5991005,8.2294252-1.8163246,1.8573356-3.8513988,3.4711225-5.7826873,5.2004655-.3806464.340894-.756111.6934102-1.2755579,1.1716982-1.1693293.5373615-2.144634,1.3874867-2.9338351,2.3977321-.0279082.035755-.0506344.0775062-.0760257.1161482-.0211717.0204314-.0432317.03842-.0642554.0590735-1.4718774,1.4494472-2.9030399,2.9344273-4.2375973,4.506093,4.0154425-2.4589524,8.0373994-4.9073189,12.0499548-7.371009,1.7437783-1.0707254,3.4659406-2.1743188,5.4032253-2.8773526,1.2819243-.4652592,2.5796903-.7812802,3.967399-.5908829,1.8456393.2534682,3.1904124,1.2225547,4.0432026,2.8391547,1.2329184,2.3371781,1.1993102,4.7520104.2654606,7.1795013-.3458538.898983-.8507174,1.7083934-1.4784658,2.4443691-.5133027.6016908-1.0437796,1.1973115-1.3736436,1.9288456-.3907141.8658929.4175119,1.1203235.8647825,1.7756098.5870335.8600448,1.0698371,1.8024076,1.6924036,2.6368391.4675541.626934,1.1255054,1.1240248,1.3326327,1.9123376.1982441.7542603.2234133,1.7020271-.0254653,2.4488847ZM43.5487231,45.2088017c-.0836504.0510786-.1633034.1086715-.2459915.1612306-.1244393.1579735-.255763.3097287-.3779815.4696268-.3330471.4356485-.6623189.8821789-.9806347,1.3786775.4937596-.0380498.9468044-.2321484,1.3931867-.4300224,5.8382075-2.587167,11.5504211-5.4508246,17.4321565-7.9438293,1.0301587-.4366108,1.9901399-1.0300106,2.8892709-1.7032855.7611448-.5695632,1.4852762-1.18221,1.9949516-2.1722461-1.9851801-.3172794-3.733696-.0159898-5.3830159.8751463-1.0430394.5637891-2.0851164,1.1290587-3.1242324,1.6998803-4.5606508,2.5050711-9.1548358,4.9512909-13.5977098,7.6648219ZM36.6981234,10.8863659c.5149313.1135573,1.0206832.3295679,1.4441913.6604682.3611774.2821166.5064922.1373199.6990363-.2001688,3.9484481-6.9214435,13.2071437-6.9842923,17.9581918-1.3573577,3.2268337,3.8218621,3.4970319,8.2072171,1.9706708,12.7994034-1.0885659,3.2752473-3.3084854,5.7491531-5.9748612,7.7895572-5.1861783,3.9685094-9.5639826,8.7741153-14.1460272,13.3713354-.1535318.1541241-.2780451.3374888-.4335017.489318-.1342848.1311017-.1966155.2499149-.1980961.3696905.4129222.0447863,2.1176882,1.2467615,2.5170635,2.1340482,2.0410704-2.6250688,5.0419739-6.0065447,7.4320072-8.2846493,2.5823553-2.4612472,5.4744392-4.5570975,8.1550282-6.9029367,2.8489262-2.4931528,5.3809432-5.2360725,6.9924353-8.7224445,2.2556744-4.8799289,1.9115973-9.5168275-1.4125078-13.7938811-2.6793305-3.4473599-6.2606791-5.5242593-10.5267028-6.359283-3.4907397-.6832685-6.8625921-.2700502-9.9646904,1.5627084-2.1764656,1.2859957-3.8524352,3.0650108-4.9362634,5.3798328-.2610189.5574968-.3085442.9026843.4240262,1.0643591ZM30.4427002,12.2298065c.0645515-.2049065.1396888-.4044831.0025169-.6247872-1.7443705-2.8028074-3.8844889-4.9426297-7.4601374-5.2350361-5.59229-.4574124-9.8477278,3.2169141-9.8182651,9.4524981.0490058,2.1341963.9821152,4.7999799,2.5538549,7.2538984,1.7199416,2.6854748,3.8135711,5.0729171,6.0251995,7.3548711,4.0641522,4.1934773,8.2538541,8.2707322,11.8602238,12.883498.415069.5309211.7852036.9235599,1.5373172.7103624.3921206-.1111884.8256963-.0038494,1.2156702.1310277.3253483.1125209.5081208.0558163.7081416-.244585,2.5135102-3.7734485,5.7307204-6.8793222,9.2859375-9.6460045,3.7780382-2.9400534,7.1526296-6.2386931,9.6380096-10.3768723,1.5658175-2.6071543,2.3913658-5.3462986,1.998653-8.4434371-.4637787-3.6581145-3.0068997-6.6766364-6.4894223-7.4142407-.7085857-.1501266-1.4340496-.2417719-2.1566264-.3003272-4.1274452-.3343796-7.3497633,1.2798515-9.7651138,4.5916681-.208904.2864102-.3954518.5676385-.3203145.9928491.3638423,2.0580225-.9203768,4.0357259-2.9714408,4.5815264-1.8196558.4841361-3.4793395.137468-4.8463947-1.1799892-1.3008752-1.253572-1.5305067-2.7977736-.9978089-4.48692ZM34.0489959,11.4482303c-1.6327379-.0901648-2.9240635,1.2019012-2.636765,2.4841956.3365264,1.5020803,1.4284235,2.3309598,2.8244973,2.7264857,1.3350756.3782776,2.4833813-.0720282,3.3658562-1.1269119.9086065-1.086049.7133975-2.3296273-.4745126-3.1003957-.9978089-.6474395-2.1289403-.8867685-3.0790759-.9833737ZM4.771421,36.5454307c.7895712.9840399,1.756807,1.6071245,2.7513587,2.1821657,2.3228169,1.3428484,4.7803627,2.4023218,7.3703428,3.0784837,2.405801.6283405,4.6961201,1.5123701,6.9497218,2.5423807,2.4576939,1.1235807,4.9485519,2.1755773,7.5643673,2.8941567.228151.0626268.4514162.1409473.6860815.1614527-.112817-.4471967-.2208963-.874258-.2894453-.9625721-.0586293-.0755075-.1174067-.1507188-.176036-.2261523-.6225664-.2959596-1.2498706-.5825179-1.866885-.8898777-4.514532-2.2484938-9.0214393-4.5120891-13.5410792-6.7500711-1.9501653-.9657553-3.9240193-1.8868723-6.0675429-2.3577576-1.1089974-.2438447-2.2134051-.3347498-3.3808837.3277912ZM29.2443523,52.4374569c.3371186-.3349718.7111026-.6549162.887953-1.2573473-.7268704.1600462-1.2394328.5117481-1.7441484.8567876-.8503473.5814075-1.759472,1.0109117-2.7404768,1.3378146-3.6440494,1.2146338-7.3752285,1.7181649-11.2070843,1.4938634-.7951232-.0465629-1.5769216.0300549-2.3592381.1840309-1.7859736.3514798-3.5005852.9310366-5.2035006,1.5567122-.2491006.0912752-.4925752.2827829-.8344315.1903232.1026753-.1107443.1596021-.1957272.2375524-.2513954.2146041-.1532357.4327614-.3027701.6587656-.4382394,2.6722239-1.6022388,5.5623832-2.3843332,8.6804713-2.2482717,2.0495835.0892765,4.0903578.0905349,6.1096642-.3305302,1.3409237-.2798218,2.6610459-.6247132,3.8730887-1.3140519-1.2714124.2549487-2.5330533.5423953-3.8502884.371097,1.767763-.6623929,3.6709212-.8911361,5.3779081-1.7434081-2.5471184.1804036-5.0943849.5619384-7.5801351-.4021143,1.2725228-.3857543,2.598271-.1096339,3.8773083-.3551072,1.3147182-.2524318,2.642169-.4487512,3.898702-.9829295-1.2469095-.3097287-2.4961879-.5079728-3.7699692-.517004-1.7822723-.0127326-3.5628419-.0707697-5.3406725-.1940986-.327199-.0228003-.7102143.068697-.965015-.3009935.4477889-.2813023.9121598-.2790815,1.3694981-.3202405,2.6371352-.2365901,5.2741223-.1517552,7.9117757-.0121404.2569475.013769.5406927.09357.893431-.1048221-2.9789915-1.3286353-5.8142228-2.6566043-8.73192-3.7978774-.9009077-.3523682-1.8388288-.5087871-2.7930359-.6030974-.3935271-.0388641-.7900153-.0638852-1.1786567-.1322861-2.7620186-.4861348-5.3044734-1.5490134-7.7121991-2.9597445-1.1689592-.6849711-2.2701837-1.4678799-3.343278-2.2936503-.6367796-.4900582-.7179871-.4745126-1.1833944.142872-.7334588.97338-1.1757697,2.0718656-1.2241092,3.2890163-.12096,3.043469.9753788,5.674534,2.8259038,8.02822.27501.3497032.6173846.6466992.7913478.8262885-.5594955.6437381-1.0921933,1.2740774-1.6436938,1.8876866-.7365679.819182-1.3437367,1.7048401-1.6237066,2.7920735-.5944362,2.3083816.3969324,4.1575742,2.6409846,4.9136852.9558357.3218691,1.9388392.3730957,2.9322065.3240899,5.1084501-.2525799,10.065441-1.2252937,14.8531324-3.0567938,2.7205635-1.0408926,5.1424284-2.5243922,7.2092602-4.5784173ZM31.4573132,55.5694621c-.3385992.442607-.6216781.7986025-.8900257,1.1651838-1.7766462,2.4283793-3.2288324,5.0590001-4.7637067,7.6380981-.4385355.736864-.8712969,1.4783177-1.3397393,2.1960828-.2377745.3642125-.4841361.7681034-1.0314912.8368744-.2174911-.8913582.0874258-1.6265936.3819789-2.3529458.6731268-1.6598317,1.6315534-3.1639848,2.6106335-4.6525922.7612929-1.1573369,1.5678903-2.2853592,2.3325884-3.4407715.1846232-.2787114.5044195-.5351406.3740581-1.0079506-.5922894.1938025-.9693826.6171625-1.3638721.9906283-1.3435887,1.2723748-2.7815617,2.4325248-4.2101333,3.604519-1.8112908,1.4861646-3.6377571,2.9541185-5.3693209,4.5344453-1.3173091,1.2024934-2.631065,2.4172012-3.6946098,3.8539898-2.7907411,3.7695251-4.3530793,7.9003015-3.5241258,12.6794798.2769347,1.5967608.7920141,3.1163855,1.6433977,4.6525922,1.7744254-2.042699,3.4868903-4.0142581,5.3085448-6.1115889,1.0058779,2.5780617,1.9506835,4.96543,3.827044,6.947501.1479798-.3024.0846868-.4990895.0568527-.6897829-.3374147-2.3081595-.2206002-4.6032903.1643398-6.89546.5272198-3.1412585,1.5346522-6.1353516,2.7424755-9.0687425,1.6729345-4.0625977,3.7375454-7.9336136,5.7994914-11.805666.3565137-.6694255.7219106-1.336186.9475446-2.0649071.0895726-.2890011.225486-.5885141-.0019247-1.008987ZM31.8187127,45.5839702c.3523682-.3900479.7485603-.6634293,1.1722904-.8559733-.0116963-.1026013-.0654398-.2080897-.1546422-.3337874-1.0095792-1.4225754-2.0110895-2.8520353-3.1496976-4.1752666-3.5585483-4.1355882-7.5182486-7.8947495-11.2022725-11.912931-2.7235986-2.9706265-5.1057851-6.1598545-6.2324749-10.1060818-.9848542-3.4496547-.8811425-6.7555491,1.5071142-9.6953064,3.6485651-4.4909174,10.9083856-5.7705469,15.4336516-.7617371.7324224.8106689,1.4025141,1.6679007,2.0487692,2.5463782.1501266.2040922.2579098.4727359.6238989.3314926.5005701-.1932103,1.0350445-.2485824,1.5686305-.2656086.4522305-.0145093.4512681-.2087559.2870764-.5546838-.3341575-.7034779-.7512252-1.3530641-1.1950167-1.9894736C28.6601318,2.2677071,22.9213425.3280536,17.448754,1.7157624c-4.6343816,1.1752515-9.9345614,4.7927992-9.7973155,11.970598.1105222,4.5772328,1.5978712,8.6704776,4.3504143,12.3152673,2.0264131,2.683328,4.5371102,4.8997682,6.9416528,7.2228071,4.1457299,4.0053008,8.4664594,7.8592906,11.6004633,12.7755668.4549695.1225146.8393913.0658099,1.2747437-.4160313ZM33.1264723,116.8541327c.0453785-3.9515573-.497609-7.8806844-.4303925-11.8315754.0060702-.3605111-.1365057-.4653333-.4771035-.4280977-.8419822.0920155-1.6878879.1501266-2.5286857.2504331-.7387887.088092-1.0454082-.1439083-1.1037415-.9163053-.0567046-.7484862-.1108923-1.4975647-.1418356-2.2474574-.0135469-.3267548-.1271783-.4878374-.4694788-.4915388-1.5003777-.0161379-3.0029762-.186844-4.5002448-.0046637-1.811735.2204522-3.1018762,1.173993-3.7701913,2.8874202-.8837334,2.2659642.2961817,5.1106709,3.038139,5.4113682.7215404.0790608,1.4403419.1916557,2.1635849.2437707.5572747.0401226.8471641.3041766.8816607.8482005.0367174.5796308-.0002961,1.1698475.0949765,1.7386704.2322225,1.3867464-.1241432,2.4454054-1.4903841,3.0331052-.129251.0555942-.2342212.1702619-.3465941.2622774-.6219002.5090091-1.0387458,1.135425-.7903115,1.9593447.2662008.8828451.7037,1.641325,1.7630993,1.8084778.4579306.0722503.9790061.0151015,1.4225014.4735502-.1641177.0857232-.2634618.1608605-.3751685.192396-1.2577915.3540708-2.5452678-.1958752-3.2208375-1.3689059-.6675748-1.1593357-.5156716-2.592719.371171-3.494367.4112936-.4182521.89617-.7439706,1.3982206-1.033712.5868855-.3386732.3015857-.8362081.1930622-1.220778-.1259938-.4468265-.4853205-.0749893-.7088818-.016508-.5355848.140281-1.072206.3097287-1.5731462.5432096-1.5816593.7370121-2.5409742,2.2844709-2.359016,3.9021813.200761,1.7845671,1.3392951,2.8421157,2.9419781,3.4463235,1.7528836.6606903,3.532861.362806,5.3069903.0772841.2958116-.0476733.360067-.2829309.4494175-.508713.2489525-.6289328.1727048-1.2876243.1879544-1.9386171.0154716-.6572851.266793-1.0394861,1.0166118-.9902582.7961596.052263,1.5997959-.008365,2.3959555.044046.5098234.0334602.6547682-.1144456.6606903-.6305613ZM38.99281,112.8119665c-.0743971-2.9547847-.1776646-5.9091253-.2219327-8.8644282-.0729905-4.869047.0227263-9.7446083-.3454096-14.6030695-.5309211-7.008203-1.031047-14.0143333-.8075597-21.0510367.0850569-4.0437208.0809114-8.0919572.3525162-12.1304221.0455266-.6757178-.1636735-.7633657-.7453771-.6388524-1.1142533.2385888-2.2212519.2219327-3.2847227-.1892128-.1747776-.0130287-.3510357-.0408629-.5242587-.0723243-.0609982-.01103-.1102261-.019321-.1616748-.0281302-.0463409.0595917-.0775802.1448707-.0857232.2806361-.0593696.9912205-.1632294,1.9818488-.1755919,2.9736616-.085279,6.8574102.0133248,13.713784.1935804,20.5688253.1553085,5.9080149.6954089,11.805592.4996077,17.7232303-.1113365,3.3660043-.222821,6.7297137-.0623307,10.0991973.228077,4.7886537.830434,9.5616138.6215301,14.3690703-.0062923.1447967.0074027.2906297.0131768.4357965.0062923.1578994.0364212.2619073.2472499.258576,1.1608902-.0184327,2.3123791.1844751,3.4777849.1390226.4690346-.0183587.6042818-.1945428.662541-.6384082.376723-2.8680992.4191405-5.7473764.3465941-8.6321317ZM39.8429352,83.6660855c-.4440135-7.4022484-.8861763-14.8036084-.7328666-22.2261401.03309-1.6019427.0185067-3.2049217.010956-4.8076787-.079801-.3622137-.1444265-.7310159-.1895089-1.107961-.0034052-.0289445-.013769-.0445642-.0190989-.0696593-.0009624-.000074-.0019247-.0002221-.002813-.0003701-.035755.5976934-.0845387,1.1950167-.1051182,1.7933023-.0874998,2.5428989-.178701,5.0857978-.2466577,7.6292889-.1637476,6.1319463-.1818101,12.2667057.2958116,18.3832544.4114417,5.2681261.8042285,10.5321068.8325808,15.8188136.0128067,2.3743396-.0723243,4.7484571.0641813,7.1233149.225338,3.9194296.4219535,7.841228.1865479,11.7688006-.0535955.8946894-.1065988,1.7895269-.1657463,2.6838462-.0298329.4510461.321721.503161.6165703.558237.3853101.0719542.3451135-.2789335.3591786-.4878374.0390862-.5793347.0567787-1.1620747.0453045-1.7428159-.1443525-7.34088-.6144235-14.6714703-.6523253-22.0166439-.0228003-4.4338427-.0313134-8.8707205-.296996-13.2997514ZM39.9656719,50.7704446c1.240025-4.2922292-3.3805876-5.2579844-3.4705303-5.2854484-1.4959361-.4561539-3.3263259.1109664-4.1176737,1.4031063-.0364212.0594436-.0639593.1202938-.0981597.1801075-.6016908,1.5601915-.6980739,3.1915969-.2769347,4.8570546.0242068.0956428.0552981.1892128.090683.2808582.1339147.2571695.2852998.486505.4514162.6911154.0374576.0370135.0707697.076988.1121508.1110404.6154599.5056039,1.2597162.4964246,1.946538.2755282.4711074.2983285,1.0702813.4813971,1.5407964.5060481.4658514.0244289.9875932-.0909051,1.4510018-.3014376.2558371.0755815.5533513.0347186.8789957-.1302134.247472-.1253276.404113-.3321588.5677125-.5357329.5047156-.6274522.7830568-1.3194559.9240041-2.0520264ZM43.4250241,56.006369c-.3014376-.2405875-.640481-.8573798-.9984752-.5153755-.2810802.2684957.2397732.7350874.4979791,1.0434835,1.3370743,1.5960205,2.5259467,3.2996762,3.6865409,5.0233191.7923842,1.1770281,1.5442017,2.3805579,2.0595031,3.7120802.2118651.5472811.4432732,1.0959686.2756022,1.9852541-1.9859203-1.8517835-3.054573-4.1023501-4.4519053-6.1103305-1.3895594-1.9971724-2.826422-3.9612548-4.357595-5.8619701-.0265016.9251885.3722074,1.6818917.7877945,2.4260104,1.0608058,1.9004192,2.147299,3.7863292,3.2006281,5.6907458,1.9966542,3.609849,3.8634652,7.2818066,5.185216,11.2043453,1.094192,3.246895,1.7296391,6.5612285,1.4807606,10.0110312-.0441941.6117585-.2558371,1.2106363-.1797374,1.9798501.9986972-1.0445199,1.7276404-2.1181324,2.3614589-3.2658459.6348549-1.1497122.9743424-2.413944,1.3658708-3.7946942,2.0247104,1.9530524,3.7676744,3.9676951,5.8596013,5.7090305.4000415-.9060896.5751892-1.7470354.7877945-2.5722136.6320419-2.4545108.8943933-4.9256776.2879647-7.4340059-.5217418-2.1580329-1.608309-4.0323947-2.8901592-5.8045993-2.5178038-3.4814863-5.6257502-6.3709793-9.0557138-8.9286836-1.9832554-1.4789099-3.9691757-2.9533782-5.9031291-4.4974318ZM70.0231204,53.7392204c-.4924271-.9857425-1.201457-1.811735-1.9568277-2.5998256-.4115897-.4293562-.8145923-.8627098-1.1531174-1.3545447-.604726-.8788477-.6746074-1.7738332-.08254-2.6797007.3967843-.6070948.8015635-1.2112286,1.2381744-1.789897.9611656-1.2739294,1.5089648-2.7082751,1.6401406-4.286159.1410953-1.6994361-.1596761-3.296419-1.3643162-4.6020319-.6061325-.6568409-.6813438-.648846-1.3285612-.024799-2.2609303,2.1799449-4.8175983,3.8979618-7.7927404,4.9452947-1.2113766.4265431-2.427639.8627098-3.673068,1.1650357-3.8018748.9229677-7.2057069,2.7089413-10.513452,4.7183282-.2100884.1276224-.4822114.2032039-.6053922.5352147,3.3189232.109856,6.5082992-.5930297,9.7280263-1.0665799-3.0619017,1.5182922-6.4226501,1.7754618-9.7087793,2.3523536,1.132686.3376368,2.2832865.4195106,3.4347013.4514902,1.1440121.0316835,2.2896528.0068845,3.4345532.0068845-3.0467262,1.3235274-6.1368321,1.7276404-9.3225068.4671839.2687177.4979051.7342731.593844,1.1413471.7595163,1.1617786.472884,2.3666408.8232534,3.5821629,1.1237287,2.658603.6573591,5.3165397,1.3366302,8.1012106.9725657,3.535748-.46178,6.8116615.3501474,9.9015454,2.0512121.1729269.0953467.4001155.1288068.4373511.4450499-.5261094-.1470915-1.0477771-.241846-1.5292482-.4361666-2.6631927-1.0758333-5.4345387-1.2884386-8.2642179-1.1021869-.8556032.0564085-1.7121688.0749893-2.5716954.0290186-3.4741576-.1852154-6.7454815-1.1372016-9.8973999-2.5631083-.3387472-.1532357-.6610604-.3809426-1.0782022-.4305406.0498201.3930089.2538383.6203456.4429031.8396874.3652488.4241003.7350133.8500512,1.1471953,1.2269963,1.3311522,1.2172247,2.8875683,2.089632,4.5429584,2.7646836,5.3001798,2.160994,10.8078571,3.1605796,16.5351722,2.7942943,1.4151727-.090683,2.8253857-.2938869,4.1429909-.8731476,1.8254299-.802822,2.2783267-2.064685,1.3916322-3.8398506Z"/>
  </g>
</svg>