<?xml version="1.0" encoding="UTF-8"?>
<svg id="Layer_2" xmlns="http://www.w3.org/2000/svg" viewBox="0 0 74.3377463 141.2577533">
  <g id="Layer_1-2" data-name="Layer_1">
    <path d="M40.6259472,66.2851844c1.8449054-.1713895,3.4552309-.0065385,4.9861807.6884249,2.0764648.9425764,2.3187973,2.9282854.5222501,4.3306089-1.557579,1.2158166-2.8613137,1.1682921-5.0750276-.2126827-.1796101.6642019-.3136412,1.3284916-.5422604,1.9584508-.2343898.6458518-.5679974,1.3034641-1.3822986,1.3029887-.7822964-.0004608-1.0091092-.6690144-1.2559616-1.2649574-.0902731-.2179266-.1868653-.4332276-.2866463-.6637558-1.377925,1.5953397-1.4033767,1.6128048-.2590955,3.2803162.993275,1.4474565,2.079266,2.8311447,3.0780043,4.275032,2.4616194,3.5587638,2.4185563,6.3856372-.1089962,9.9156143-1.1904234,1.6625234-2.612728,3.1223912-4.0373584,4.5767884-2.6673029,2.7230115-4.5724148,5.8011767-4.9408357,9.7141508-.2521548,2.6780687.3588911,5.1473017,1.4444725,7.541752,1.0074197,2.2220515,2.3009738,4.2873556,3.5785327,6.3579841,1.6422279,2.6617079,3.0613803,5.4146763,3.7376133,8.4998189.2445632,1.1157651.8483027,2.0870258,1.4988499,2.9761243,1.4092423,1.9260218,1.4412398,3.7052867-.1717625,5.5138649-.3904278.4377695-.6499256,1.0018174-.9242409,1.5313155-.3972076.7667255-.3180733,1.528273.0700873,2.2935357.1607261.3168885.7289063.5574364.3524258,1.0108133-.3408482.4104893-.6692923-.1940474-1.0205552-.1404818-.1819432.4897992.3038481.9509872-.0511667,1.4868627-.8078213-.3809419-.9023144-1.1358192-.9471913-1.861588-.079873-1.2918646.252345-2.534581.5988905-3.7644838.4147825-1.4720744.6085519-2.9653878.5579557-4.4949334-.0675494-2.0414029-.5516586-3.9057262-1.8534332-5.5677231-1.400678-1.78829-2.7309029-3.6342705-3.9543331-5.5582591-3.3796656-5.3149612-4.2231266-11.2158092-3.9719226-17.3329382.0910776-2.2176633,1.1545862-4.2123828,2.2014415-6.1501065,1.1024395-2.0406349,2.4233907-3.9404663,3.7835726-5.8158553,1.1269697-1.5538271,2.134287-3.1718758,2.6961555-5.0391685.5032857-1.6725652.3410456-3.2308682-.6111922-4.6955265-.3477523-.5348955-.7086254-1.0632526-1.0945334-1.5710216-1.3546967-1.7825048-2.7745146-3.5282802-2.9168979-5.9854456-.322403.166226-.5280572.2726112-.7340332.3783821-.9101986.4674046-1.8108382.7003317-2.6172479-.1858706-.8073971-.8872774-1.0199189-1.890916-.4446882-2.9751736.5861939-1.1049188,1.5494973-1.8034586,2.6680562-2.30436.3864345-.1730643.7834739-.3224322,1.3522685-.5547523-3.7957719-2.1177141-6.6941369-5.2203511-10.3253356-7.3564446-7.4402231-4.3768096-13.1166498-10.6061456-18.0519307-17.5800538-2.6478887-3.7416651-5.0116434-7.650218-5.7332872-12.2480663-1.3191484-8.4047772.1761215-16.0619707,6.5125886-22.2535276,1.5919242-1.555522,3.4817504-2.6829031,5.58031-3.4030384,4.1894031-1.4376195,8.4906987-1.8359224,12.8665868-1.1119235,3.9426605.6523208,7.2924935,2.4928837,10.1281873,5.2835196.2742861.2699271.4434742.6466582.7714648,1.1389385,1.1990097-2.3099038,2.3961105-4.1463637,4.0506108-5.6200216C44.7951133.6692466,50.097824-.5483262,55.8348449.2158313c4.6521123.6196496,8.736454,2.7040269,12.2696417,5.8079821,5.6739328,4.9846302,6.9666969,11.3909744,5.8840118,18.5106595-.984323,6.4728423-4.1045787,11.9568745-8.2101594,16.9093829-6.2600243,7.5514025-13.2378161,14.3921646-20.7826326,20.6604461-1.4109903,1.1722635-2.716334,2.4717928-4.0665108,3.716835-.0789003.0727568-.1225705.1837204-.3032484.4640476ZM14.0378411,7.4876964c-.5628668.7119696-1.1683104,1.0120256-1.728164,1.3645098-.7084755.4460522-1.4340687.858604-2.0603088,1.4305106-4.5230838,4.130632-6.2522059,9.3242057-5.7633538,15.31996.4625191,5.6727553,2.6148892,10.7294145,5.8209676,15.3756356,3.2411513,4.6970478,7.273273,8.6793266,11.3487212,12.629703,2.8684592,2.7804241,6.1494995,5.1108794,8.8349111,8.0810577,1.739076,1.9234986,3.7505512,3.4358788,6.0373291,4.6410979.7091959.3737599,1.0654028.3000377,1.5743054-.2896814,3.4731495-4.0246106,7.1888143-7.8179689,11.0821438-11.437144,2.1046153-1.9564249,4.504529-3.6084678,6.3534935-5.8220939,4.2764143-5.1198022,8.334412-10.4145373,11.7447367-16.1589377,2.6658036-4.4903111,4.1382291-9.3158242,3.4564669-14.6296042-.7228579-5.634137-3.1860937-10.1797636-8.2734449-12.9977545-3.6692813-2.0324948-7.6512895-2.4461125-11.7341465-1.7352199-5.1562318.8977872-9.4877403,3.205369-12.5091365,7.6433852-.3812272.5599669-.4601714.9891373-.0673958,1.5912513.7861873,1.2052026,1.39942,2.5066006,1.7815321,3.9040477.2984067,1.0913555.4370454,2.1910487.1495581,3.3100757-.199518.7766173-.5685605,1.417196-1.4030037,1.6347569-.8450407.2203219-1.4816919-.1977408-2.0069773-.7809032-.6576415-.7301204-.9640348-1.636077-1.1719124-2.5843947-.3766561-1.7183362-.1750975-3.4130344.1590293-5.1076815.1057197-.5361699.2229658-1.0095407-.2319909-1.5480474-6.3518991-7.5182714-17.4032595-8.8665301-25.2022237-2.9031719-4.6129145,3.5271923-7.2950972,8.3743723-8.7086948,13.9476867-.3155756,1.2441938-.3081303,2.5175949-.1430598,3.8056052.5577107,4.3517931,2.104842,8.3519393,4.3774861,12.0572223,5.8950372,9.6111555,13.684362,17.4103209,22.9837157,23.7355103.5092902.3464139,1.0402949.6609108,1.5611847.9902618.0157391-.3020562-.0792733-.4609612-.2081482-.5845337-1.0660099-1.0220984-2.093162-2.0907046-3.21627-3.0462775-5.7303288-4.8755169-11.1675679-10.0459153-15.8139755-15.9821763-4.7609586-6.0826119-7.6607681-12.9047022-7.3953462-20.7575283.2067732-6.1176611,3.071049-10.877764,8.0768304-14.3572654.60465-.4202897,1.2360829-.8702676,2.2951411-.7398623ZM37.2752146,11.0996729c.4570777.0026878.575984-.2849038.7200567-.5045564,2.9911613-4.5603874,7.3741145-7.0125082,12.5895288-7.947833,7.1159112-1.2761593,13.3715765.4681031,17.6977387,6.5236214,4.5211238,6.3284038,4.534347,13.2650011,1.5383512,20.2541768-1.8184079,4.2420509-4.5176132,7.9697138-7.2865694,11.636033-.3645592.4826939-.7260613.9677063-1.0889749,1.4516436,1.3260123-1.1429135,2.4651739-2.4190207,3.5590783-3.7328045,2.9321616-3.5215077,5.4197813-7.3212217,6.7813163-11.7349546,1.9692824-6.3838893,1.6183852-12.5214674-2.738575-17.8879866-4.8480393-5.9713923-11.3456348-8.3564125-18.9014731-7.7541925-5.3889175.4295114-9.6109763,2.9734119-12.3276248,7.7661796-.3260745.5752617-.7480244,1.1458006-.5428529,1.9306733ZM70.6903221,32.1755707c-6.3783747,10.7821354-16.4168228,18.3256756-24.4327153,27.6485868,8.4008717-6.7789832,15.8501638-14.4642559,22.1520079-23.2355743.968306-1.3477486,1.7963863-2.7974614,2.2807075-4.4130125ZM33.2951372,96.3159674c.0744024.053061.1487974.1061219.2231998.1591829,1.7398074-1.8921154,3.493584-3.7716659,5.2132641-5.6819047.8026651-.8916145,1.4880256-1.8796382,1.9978644-2.9725479.7746024-1.6604463,1.0561949-3.393057.2537126-5.0941384-1.3778592-2.9207742-3.6439246-5.2578338-5.3345546-7.9816352.2053909,1.7613024,1.1646499,3.1094972,2.2505384,4.3962568,2.6384065,3.1264577,2.8382317,5.2190638.8868898,8.8369956-1.1223108,2.0808677-2.5747406,3.9400129-3.8988806,5.8857451-.548148.8054516-1.062375,1.634-1.5920339,2.4520458ZM39.9022556,67.2724768c.5126033.9424009.9175123,1.7586402,1.3872354,2.5357,1.0335224,1.7097627,2.7504744,2.0205881,4.3424864.8176436,1.2444205-.9403018,1.2403834-1.9276893-.0967092-2.700712-1.7222106-.9956739-3.5730548-1.2010722-5.6330125-.6526316ZM20.7521602,57.1066386c-7.8766761-7.0923465-14.7103037-14.9829771-18.9992976-24.8251544,3.5554507,10.3887345,10.7680309,17.9955384,18.9992976,24.8251544ZM32.0025705,112.2598564c.7320805,4.8582054,3.6014539,8.5748868,6.5179496,12.2663944-1.5434416-4.4248534-4.2869826-8.2087478-6.5179496-12.2663944ZM30.9711033,71.9595779c-.0337162.9985921.8791299,1.549,1.8036415,1.0797816,1.6356602-.8301647,2.1511085-2.4676386,2.8496703-3.9723541.1464644-.3154988-.0275507-.4093776-.2977558-.4800208-1.4685346-.3839771-4.3026632,1.8061062-4.355556,3.3725933ZM36.7091407,12.9090045c-.592725,2.3960612-.5933394,4.4495189.3008568,6.4535048.1809997.4056586.4246048.8164807.9636106.7244779.4692111-.0800924.7655115-.4290442.8894423-.8690334.0841589-.2987468.1168219-.6339488.0792514-.9414501-.2309743-1.8902431-.9911321-3.5650079-2.2331611-5.3674993ZM40.0663167,71.14878c.0086594-.9393218-.0653187-1.7696839-.5699575-2.4765467-.1360131-.1905295-.4882341-.6752091-.6511104-.1045495-.3882703,1.360416-.8054151,2.7490848-.3772704,4.18707.1003734.3371182.3064372.7056707.7170069.6961482.3505461-.0081328.4988828-.3581158.6115067-.6519076.2148914-.5605374.2942452-1.1478503.2698247-1.6502145ZM10.2418206,7.1542424c-3.868664,2.1077254-6.2137358,5.4333281-7.6954241,9.4521426,1.9554997-3.6525054,4.415938-6.8907312,7.6954241-9.4521426ZM40.8892335,130.4473431c.0094713,1.2217992-.0701677,2.4310774-.1696123,3.9325383,1.4434412-1.7192924,1.4469811-2.201383.1696123-3.9325383ZM65.8787709,15.1603438c-1.1981174-5.8710373-5.5199792-9.4298833-11.0740768-9.2743335-2.2903104.0641431-4.4767661,1.003218-5.3060897,2.2947005.2938649-.1741833.5635433-.3444173.8424956-.4978077,3.8678193-2.1267886,9.3201393-1.2326948,12.0725445,2.0058253,2.5418801,2.9908011,3.4580174,6.493893,3.1618707,10.3567023-.1983332,2.5870167-1.0470235,4.9588128-2.3764659,7.1799062,2.7841248-3.5933101,3.575066-7.6776225,2.6797216-12.0649931Z"/>
  </g>
</svg>