<?xml version="1.0" encoding="UTF-8"?>
<svg id="Layer_2" xmlns="http://www.w3.org/2000/svg" viewBox="0 0 175.8781531 133.713734">
  <g id="Layer_1-2" data-name="Layer_1">
    <path d="M144.8924737,60.1984682c2.2874962,3.3598938,3.4551467,7.103118,3.6406579,11.4084948-.0135566.1904166.0060648.6376949-.0941826,1.0564329-.0702802.2944099-.0460211.8232061-.5151504.7568501-.3742332-.0527994-.3139421-.5040911-.3050233-.8180332.0296104-1.0244144-.0392428-2.0441911-.1965706-3.0529084-.8387248-5.3769717-2.9449908-10.0509628-7.5121346-13.3222037-1.8875768-1.3520915-4.0209559-2.0854852-6.3198682-2.3650898-.4908913-.0596668-.982496-.145555-1.4594739-.2729156-.219046-.0584182-.6282409.0385293-.605052-.3403418.0210484-.3406985.3767305-.3076989.6296679-.2997612.6400137.0201565,1.2853788.0198889,1.9186142.1046176,4.7547956.6359111,8.1963856,3.293627,10.8185155,7.144858ZM98.4504505,53.8165251c.376017.0082053,1.0420737.1312849,1.0716841-.2677427.0424535-.5654525-.6239599-.5807929-1.0713274-.614506-3.2485871-.2449105-6.1996426.6888888-8.812497,2.5368661-5.0426947,3.5669885-6.9249202,8.7304439-7.1550255,14.4438331.1013177,1.4550145.0770585,2.6867021.4505782,3.8732605.0638587.202011.1055987.4059842.3724495.405895.2479429-.0000892.3742332-.1713303.414903-.378871.0492318-.2531158.0891881-.5198774.0638587-.7738851-.1698141-1.7199032-.108096-3.4316902.0256862-5.1541798.5811496-7.481008,7.2627647-14.2299601,14.6396901-14.0706701ZM143.0505612,69.4660028c.04174.7561366.005708,1.5166435.005708,2.275099.0934691,5.9739968-1.4237987,11.5495011-4.4001837,16.7039485-4.5478792,7.8757544-10.4093206,14.6973057-17.0902222,20.8250627-2.179757,1.9991511-2.5382931,1.9867539-5.0426947.4250704-7.7811259-4.8518322-15.0956197-10.3094299-21.2267659-17.1770914-4.6071001-5.1602446-7.4001144-11.2339537-8.069025-18.1597658-.5750848-5.9548213,1.9699866-10.4255528,6.8731911-13.6996477,6.3516191-4.2412505,13.1102927-3.1995336,18.4940427.8232061,1.2183093.9102537,2.3649114,1.9075549,3.4012771,3.0183926.4330974.4644024.6332355.5170234,1.1002243-.0247943,3.7030896-4.2961904,8.4610959-6.6408561,14.0885077-6.3583083,6.5299953.3279446,11.4688751,4.1524192,11.8659405,11.3488279ZM141.9767366,68.6796314c-.3439093-2.7333475-1.200115-5.1865551-3.5211459-6.9728142-4.9363825-3.7993235-11.1067715-3.4879679-16.5468883-.1763249-1.8476205,1.1249294-3.238598,2.7581417-4.6602562,4.3412304-.5190747.5781172-.8940214.557604-1.436285.0895448-1.2589791-1.0866677-2.5133204-2.1835029-3.8315204-3.195431-2.2864259-1.7550433-4.7383849-3.2200469-7.6551923-3.6468119-3.245733-.4747482-6.223545.4608349-8.9280847,2.1225874-4.9884684,3.065038-7.7158402,7.5266723-6.9912761,13.4668667.7484665,6.134357,3.1058861,11.7260936,7.1396851,16.4716136,6.3591109,7.4814539,14.0546163,13.3698301,22.4201025,18.4285787.8280222.5007911,1.577559.3576442,2.2339833-.2699724.8640542-.8264169,1.7002818-1.6836036,2.5218825-2.5523848,4.1725757-4.4107971,8.3661998-8.8050944,11.9162426-13.753874,4.3295467-6.0356257,7.4810971-12.5144271,7.4600488-19.7433003.1127337-1.8172074.0535129-3.2195117-.1212958-4.6095082ZM119.7581992,30.0283664c.5483284.0041027,1.2240174-.8076874,1.210104-1.4900655-.0124863-.6378732-.3646009-1.0377926-.9846365-1.130905-.4577133-.0686748-1.1886989.9452154-1.2090338,1.6138585-.0160539.5323637.4434432,1.0030985.9835663,1.0071119ZM150.9533397,57.9780415c1.3285458,3.3830827,1.8026697,6.9256337,1.7855456,10.4221637.0367455,6.7683059-1.9853269,12.9176465-4.5004311,18.9567505-2.5728981,6.1773456-6.4754122,11.4419403-10.9872594,16.3147317-3.2742732,3.5359511-6.6534317,6.9633603-10.1617344,10.2652818-.8084009.761042-1.6806604,1.4446687-2.5985842,2.0719286-2.0152941,1.3775101-4.1051495,1.5935236-6.3801593.6219086-2.8793484-1.229547-5.5553479-2.8240517-8.286644-4.3310629-11.6964831-6.4540963-20.1600763-16.0965776-26.9744032-27.338915-2.2842854-3.7683753-3.7887101-7.8963569-4.3730705-12.2810219-.681397-5.1119047.4730536-9.920659,2.8754241-14.4336657,2.4740777-4.6481266,5.9731049-8.2689847,10.9102009-10.3006895,6.4140508-2.6394324,12.4563657-1.5038004,18.204003,2.0044132,2.1861785,1.3341647,4.071258,3.0231196,5.6177795,5.0790835.6268139.8333735.6146843.8015334,1.2782437.0395103,5.4804299-6.2938253,14.658598-9.9957554,23.9487864-6.9454335,4.8653888,1.5975371,7.8221524,5.2204466,9.642303,9.8550166ZM148.3098046,56.9362354c-1.7798376-3.9284679-4.5864084-6.7698221-8.8292643-7.879322-7.2492081-1.8957821-15.5115929.1978192-21.0904865,7.2393974-.2704183.341412-.5540364.6776511-.8690488.9769664-.4277461.4066085-.8840324.4259623-1.2910868-.0470913-.5137234-.5967575-1.0492087-1.1785314-1.5165543-1.8101615-1.5904021-2.1485411-3.5568211-3.8612201-5.9121002-5.1102993-3.5350592-1.8747337-7.3202018-2.9220695-11.2994177-2.3469846-11.5662685,1.6716524-18.1355066,12.2043201-18.1865222,21.4105825-.0260429,4.7027989,1.1769261,9.1185905,3.2171928,13.3175659,3.1105239,6.4001375,7.6687489,11.7664066,12.3768099,16.9979125,4.4219456,4.9132828,10.0036931,8.3812726,15.4848365,11.9420179,2.5186717,1.6360664,5.163277,3.0646812,8.0790141,3.9210653,1.5550836.4568214,2.9838768.3000287,4.3491681-.5881955.9314804-.6058547,1.8372747-1.2421226,2.6831346-1.9613353,4.1704352-3.546832,7.8770923-7.5567286,11.5241717-11.6203165,5.1236775-5.7090189,9.1938653-12.0400356,11.3886058-19.474755,1.2004717-4.0648365,2.3588467-8.1281567,2.3131823-11.3856626-.0114161-5.516551-.9268427-10.2820492-2.4216351-13.5813842ZM63.5593555,79.6254183c2.8843429,5.2323978,4.1588407,10.8683717,3.9471082,16.8166823-.3239311,9.0889801-2.3019447,17.862591-5.3291669,26.4077021-.9878473,2.7879306-1.3101731,2.9451692-4.2546287,2.7402149-9.1476658-.6364462-18.1670792-2.0267102-26.8029837-5.217325-6.4887904-2.3972867-11.804044-6.4520449-15.6425211-12.2554249-3.3004945-4.989717-3.1492315-10.1318564-.3538983-15.3229601,3.6212149-6.7246037,10.0791463-8.9738382,16.7208051-7.9455887,1.502641.2327809,2.9831633.5758875,4.41927,1.0709706.6004142.2070947.8018009.1598251.960199-.5378042,1.2561251-5.5309995,4.3589788-9.8331655,9.4619647-12.2226037,5.921019-2.7724118,12.0766028-1.7105384,15.8019894,4.4594046.3913573.6483082.7161804,1.3368403,1.0718625,2.0067321ZM63.4389516,81.4420906c-.7525691-1.6579174-1.4625063-2.8686458-2.2687667-4.014356-1.5850508-2.2530696-3.4917138-4.0183695-6.3794458-4.5075662-6.1418488-1.0406467-11.4456862,2.1278495-14.697484,7.6037308-1.1045053,1.8601068-1.5672131,3.9548676-2.0802231,6.0197503-.1876517.7539961-.5283503.9117699-1.2268714.7526583-1.6214395-.3694171-3.2435925-.7499827-4.8825129-1.0255739-2.8424245-.4778698-5.6950164-.6219978-8.4714417.3688819-3.0891187,1.1026324-5.2804702,3.325378-6.8899585,6.0614011-2.9687148,5.0464406-3.2853326,10.2659953.1402037,15.1727674,3.5375565,5.0672214,8.2418716,8.9005256,14.0300004,11.2002406,9.1250121,3.6257635,18.6831215,5.2179493,28.4440446,5.7630669.9662638.0538696,1.56097-.423911,1.8463719-1.2860923.3756602-1.1350968.7124345-2.2842854,1.0306576-3.4370415,1.6168017-5.8523442,3.2600031-11.7000506,4.0748255-17.7356764.9937337-7.3612283.7391909-14.561383-2.6693996-20.9361911ZM15.7568572,84.7111909c.3358824-.1690114.9817825-.3726278.8210656-.7390125-.2277864-.5193423-.8237412-.2202946-1.2347199-.040313-2.9838768,1.3069623-5.1525744,3.5157054-6.5934973,6.3731135-2.7814198,5.5153024-2.0224292,10.9583625.4534323,16.1126315.7718337,1.237574,1.3280107,2.336728,2.2145403,3.2095227.1509063.1485874.2836181.3091259.5190747.1839058.219046-.1163013.2502618-.3267852.1889004-.5291529-.0752747-.2466051-.1651763-.5009695-.3064503-.7135939-.9564531-1.4394066-1.7049196-2.9801309-2.3945219-4.5642898-2.9947577-6.8799694-.257932-15.9741224,6.3321761-19.2928113ZM70.5447452,72.1340646c3.2063119,5.9607969,4.3043957,12.3400644,4.914799,18.8534707.624495,6.6625288-.3538983,13.1425788-2.0538234,19.5621593-1.2334713,4.6583832-2.6110706,9.2703886-4.1611596,13.8317352-.3572875,1.0513492-.8069739,2.06408-1.3235513,3.0485382-1.1341158,2.1618302-2.8786349,3.3326022-5.3436153,3.5413024-3.1197995.2643535-6.2310368.1108608-9.3501228.0606479-13.3571654-.2154784-25.3542124-4.7631792-36.6448897-11.4972369-3.7846075-2.2571722-7.0492484-5.1976144-9.621433-8.7962647-2.9990388-4.1954078-4.2342938-8.9840949-4.2289426-14.0966239.005708-5.2656649,1.3981125-10.1044757,4.8058111-14.2141738,4.4276536-5.3390667,10.2967652-7.169474,17.0185149-6.7662546,2.5564875.1533143,5.013441.7609528,7.3433907,1.851634.9445019.4421946.9189941.4197192,1.1476724-.5645606,1.8890038-8.1288703,8.2595308-15.7026338,17.8950555-17.3647431,5.0467974-.8708325,9.3569011.9427181,13.1377627,4.1825648,2.7601931,2.3649114,4.839881,5.2715514,6.4645313,8.3678052ZM73.0610981,86.0863821c-.8462166-4.1530435-1.7282868-8.285217-3.2965703-11.1407521-2.5969789-4.8669942-5.6402549-8.6467855-8.5072953-10.8600772-3.4142985-2.6351514-7.2258408-3.8283988-11.493491-2.8187005-7.29184,1.7250761-13.6076055,7.4486327-15.2329693,16.2841402-.0786639.4284596-.1715979.8583462-.3093043,1.2704844-.1871166.5596553-.5811496.7907416-1.1624776.5638471-.7336612-.2862046-1.4792737-.5489527-2.188319-.8876891-2.4120028-1.1518642-4.952258-1.7423786-7.6182684-1.7411299-4.0013346.0019621-7.8355306.8519247-11.0803718,3.2258441-9.4318191,6.9003935-10.2948031,19.2836249-6.0226935,27.4388056,2.1822542,4.1659758,5.3156103,7.5019672,9.0868395,10.2537765,5.7483509,4.1942484,12.2908326,6.796311,18.9025242,9.2091164,6.2094533,2.2660018,12.76567,2.7115856,19.2767574,3.2861352,2.9917254.2638184,5.9975424.2854911,8.9742842-.3253582,1.5877264-.3257149,2.7760685-1.1342942,3.5655615-2.5590739.5383393-.9718826,1.0402899-1.9586597,1.45002-2.9905659,2.0202887-5.088359,3.4134067-10.3680265,4.7291094-15.6674045,1.8485124-7.4452435,2.474256-14.9455161.9266643-22.5413983ZM68.3341292,76.9384487c-2.1831461-3.7153975-4.9697389-6.4739852-8.5658027-8.3688754-4.1219169-2.1719084-8.4079398-2.9053913-12.9056953-1.2373956-.5986305.2219892-1.1685424.5248719-1.7436272.8073306-.2270729.1116635-.5563553.2491023-.4152598.5599228.1567927.345693.473232.0679613.6940617.0168565.4809022-.1112176.9553828-.2658697,1.4170204-.443354,2.1612058-.8308763,4.3894811-1.1836152,6.6905339-.8745784,5.5681909.7473962,9.6203627,3.8878873,12.882328,8.2438337.6120087.8171413,1.1512399,1.6854766,1.605564,2.6041139.138955.281656.2977099.7083318.6530352.579455.4454053-.1613413.1760573-.6170924.100069-.9099861-.108096-.4166868-.3351688-.8026036-.4122274-.9773231ZM173.2995945,76.2162035c-.2119109.4397865-.4223948,1.0581275-.9386155,1.0452844-.4787617-.011862-.6143276-.6460785-.7712986-1.0685625-1.2422117-3.3432156-2.8882672-6.5253576-3.9685133-10.1426482-.3942114,1.2563926-.6196789,2.3707979-1.0959433,3.3936069-1.2818113,2.7525229-2.6909831,5.4386898-4.4044647,7.9500481-.4081247.5983629-.8315898,1.6539932-1.5565106,1.3968639-.5415501-.1922895-.1719546-1.3162379-.1084527-2.0095861.3214339-3.5062515.3389147-7.001622-.4070545-10.4567686-1.0809597-5.0095167-3.1415613-9.5145856-6.9855681-13.0524989-1.0552735-.9710799-2.2250645-1.7819781-3.574302-2.3843544,2.3542089,2.9464178,3.9688701,6.2360314,4.7861898,9.9158429.7013752,3.1601125.788066,6.3647298.682824,9.5796038-.002854.0808936-.4809022,3.7176272-.5417285,5.342991-.0181944.48554-.4065193,3.3381319-.3569307,3.3004053-.0893665.4024167-.9011565,2.2135593-.9650152,2.5350823-1.0028309,5.0597296-3.5161513,9.4076491-6.3416301,13.6247297-4.9114098,7.330726-10.4243042,14.1414855-17.0952167,19.9594031-1.5821967,1.3797398-3.1576152,2.7740172-4.9609984,3.8778982-2.0770123,1.2712871-4.1158521,1.5151273-6.4643529.4910696-11.0282859-4.8090219-20.5403743-11.7116451-28.7774297-20.4328135-4.3502384-4.6056731-8.2299204-9.5441961-10.9569355-15.310563-.2458024-.5198774-.4710915-1.039398-.6867483-1.5588295,0-.0000892,0-.0001784.0001784-.0002676-.1407388.2003165-.3130502.3832412-.5354853.5361988-.3401634.2340296-.3396283.5296881-.2452673.843541,1.4869439,4.9392365,1.3060704,9.9580288.7884227,15.0075018-.9006214,8.7780704-2.5755737,17.3785673-5.7396105,25.6455007-.7504286,1.9605326-1.4880141,3.930876-2.5630874,5.7514725-1.2382875,2.0967229-2.9246559,3.2682084-5.4790029,3.4650466-11.9957984.924167-23.6341308-.7118993-34.999191-4.5519818-6.0020018-2.0277805-11.7442879-4.5704438-16.8569061-8.3846617C3.9025111,114.3485722-.0528024,105.9387595.0005321,95.7717629c.0372806-7.0909884,3.0962538-12.9976482,8.5900619-17.5632758,8.8667233-7.3688985,16.7077836-4.2200238,16.8865166-4.366649-.0158755-.0613614.8533517.0395995,1.2925138.1715979.4887507.1468928,2.9410665,1.1658667,3.7330568,1.4472552.2295701.0816963.4512917.1399361.5725875-.1760573.396887-1.032263,2.35189-5.106821,2.4305539-4.9926602,1.9739108-4.1873809,5.1898551-7.1007991,9.0572291-9.7371991-.0362104-.0092756-.0656424-.0164998-.1009609-.0255078.2115542-.1083635.4197192-.2345647.6214626-.3815467.1996029-.1453766,2.0067321-.8138413,2.7455662-1.2272281,1.9714136-1.1030783,4.0384368-1.7878645,6.1900103-1.9772108,4.4870529-7.0165164,10.5432811-12.3534426,18.2578727-15.9222149,4.3645085-2.01904,8.8578045-3.7614186,13.0813958-6.0827171,1.6271475-.894289,3.2485871-1.7995481,5.0580351-2.8027358-1.2493468-.4575349-2.3010528-.8440761-3.353829-1.2282984-3.3909313-1.2381091-6.4211859-3.029987-8.9238037-5.6776247-5.6220606-5.9478647-5.2274924-12.8032181-.0256862-18.5603095,3.2064903-3.5491509,7.4753891-5.1848605,12.0593003-6.0662173,3.7041598-.7121669,7.4632595-.918459,11.1199713.0742045,5.3316641,1.4475227,9.2074218,4.7722764,11.5241717,9.8228197,1.3652913,2.9765634,2.1540708,6.1584377,3.1808041,9.2548699.6225329,1.8774985,1.424869,3.6333445,2.8197707,5.0772997.3132286.3243771.5865009.5131883,1.0431439.2661373.190149-.1031014.4951723-.1745411.6717647-.0937367,1.021382.4674348,1.964992.2483888,2.9845903-.0816071.9136428-.2957477,1.735957.2054894,2.3074743.9195292.4084815.5108694.747753.4554836,1.2493468.2062029,2.5646928-1.2739627,4.5699978-3.2184415,6.4261804-5.3345181,2.1180388-2.4146784,4.225375-4.837027,6.5817244-7.0282,4.4223023-4.1124629,9.3208691-7.4302599,15.3089576-8.7651381,6.6041998-1.4722278,12.6722008-.0296996,18.0149243,4.0158722,4.5828409,3.4702195,5.3876743,8.686385,2.3866733,13.6232135-2.0277805,3.335813-4.8543295,5.8861465-8.0854357,8.0039177-5.6548818,3.7067463-11.9569123,5.7247161-18.5357827,6.9953788-.7723689.1492117-1.5493755.2715777-2.339582.4090166.0938259.3597848.4413027.3506876.6806835.4510242,4.0198857,1.6847631,7.6983593,3.8697821,10.7917591,7.0019787,2.1676274,2.1943838,4.7861898,3.6824871,7.7504452,4.5947921,2.5382931.7812877,4.7776277,2.1345386,6.8211053,3.8324123,3.1626097,2.6276596,4.6113811,6.0878008,4.9335285,10.0850327.3492606,4.3291008-.6375165,8.4009831-2.5090394,12.2825381ZM123.5351365,32.8587505c-.2575752.4657402.3464065.5804361.6029115.7692473,3.9624485,2.9135074,8.4204261,4.3121551,13.4748937,4.3080524,3.4522927-.1103257,7.0080435-.5650066,10.5338272-1.2588899,6.1140221-1.2032365,11.9561988-3.1299669,17.1815508-6.6278347,3.1847284-2.1317738,5.995937-4.6641805,7.9388104-8.0181878,2.4676561-4.2598908,2.0252832-8.6202075-1.3738534-11.7436636-4.2053969-3.8642525-9.3169448-5.5013891-14.9646916-5.1697877-4.1276249.2424132-7.8110931,1.999597-11.3564981,4.0359395-4.3741408,2.5122502-7.830001,6.0418689-11.0842961,9.8182711-2.3649114,2.7442284-4.7576496,5.5096836-7.9684209,7.290413-1.3135622.7284883-2.1219631,1.4256716-1.728822,2.9899416.0067783.0267564-.0017838.0582398-.0064215.0868692-.0767018.459943.0592209.5705362.5197882.3994735,1.3756371-.5110478,2.6570916-1.18968,3.8686227-2.0138671,2.2614533-1.5384946,4.1261979-3.516954,6.0548012-5.4255792,3.3616776-3.3275185,6.7073013-6.6797421,10.7118466-9.2563861,3.7458999-2.4100406,7.7286833-4.165619,12.3250808-3.6809709,5.4336953.5727659,8.7753947,5.2715514,6.0284015,10.6083884-.9361182,1.8189019-2.1686976,3.4096608-3.7127219,4.7173366-8.8924095,7.5310425-19.0024148,10.7885483-30.632542,8.6011212-1.7191897-.323396-3.4423036-.6269923-5.1536447-.986777-.600771-.1262903-1.0317278.1457333-1.2586224.5568904ZM128.6891379,32.2242664c4.74552,1.104327,9.5392016,1.3435294,14.3346669.4965101,6.6505776-1.1746964,12.2597951-4.5049797,17.3328138-8.8045592,1.7074168-1.447166,3.0127737-3.2514411,3.729846-5.4156793,1.2725357-3.8406176-.2461591-6.8689993-4.1033657-8.0951572-3.4654925-1.1016513-6.7551061-.3636199-9.9062997,1.1675613-4.5592953,2.2154322-8.2081585,5.6193849-11.7357259,9.1685358-2.6503133,2.6665456-5.0519703,5.587188-8.1143326,7.8321415-1.6064559,1.1778179-3.395569,2.0136887-5.4058686,2.9847687,1.4730305.1687439,2.6756428.388325,3.8682659.6658783ZM116.074731,32.2369311c-2.7509175,2.1881406-4.1005117,8.5715108-2.4062947,11.5644847-1.1622992-4.3618328.5426204-7.9672614,2.4062947-11.5644847ZM76.972531,79.4902984c.0007135.1407388-.0051729.2796939-.0181944.4157057-.3681684-1.113335-.6710512-2.2252429-.9031186-3.3353671-.3906438-.5793658-.8870648-1.0540249-1.4625063-1.3158811.940756,1.9665974,1.4985383,3.847931,2.0267102,5.8150636.2504402-.4470107.3606766-.9966769.3571091-1.5795211ZM76.972531,79.4899416c-.0008919-.1405604-.0085621-.2828154-.0228322-.4264975.0142701.1435036.0219403.285937.0228322.4264975ZM76.6528809,77.7659358c-.1523333-.4240002-.3553254-.8298952-.6013061-1.1947637.2459808.3647793.4489729.771477.6013061,1.1947637ZM76.7868414,78.1908279c-.038886-.1425226-.0833017-.2837965-.1336038-.4235542.0503021.1396686.0948961.2812101.1336038.4235542ZM76.8865537,78.6237469c-.0267564-.1427009-.0593993-.2852235-.0979285-.427211.0385293.1418091.0711721.28451.0979285.427211ZM76.9491637,79.0593415c-.0140917-.1423442-.0344266-.2854019-.061183-.4288163.0265781.1432361.0470913.2865613.061183.4288163ZM75.6545094,74.1083322c-.7242073-6.0596173.5442257-12.0559111,3.6929221-17.9115553,3.35811-6.2454853,8.7853838-10.2604656,15.8230377-11.4842155,5.9481322-1.0344035,11.6272732.0173025,16.5265534,3.897698.1120202.0884746.2090569.2099488.4359514.1643737.1719546-.7173398.5187179-1.3803641,1.0884515-1.898101.344266-.3127826.1020312-.5904252-.0167674-.8621813-.5968467-1.3669859-1.0987973-2.7613525-1.3417457-4.240537-.5397663-3.2889001.4288163-6.2262207,2.0902121-9.0019325.4627078-.7727256,1.1012946-1.4330743,1.4837331-2.2825016-.3125151-.1305714-.5080154.0978393-.7327694.1857788-1.0852407.4246245-2.1319521,1.0116605-3.2550086,1.2650439-4.7423092,1.0700787-8.7771785,3.5902666-12.774232,6.158081-6.3341383,4.0693851-12.7524701,7.994107-19.3052976,11.6998723-5.5248455,3.1242589-10.0384765,7.2585729-13.6022543,12.3299861-.0005351-.0004459-.0010703-.0008027-.0016054-.0013378.9109672.7863714,1.7728809,1.6394555,2.5734332,2.5771791,2.1016282,2.4621265,3.6809709,5.2518408,5.0953157,8.1408215.2937856.5997007.6289544.9244346,1.33907,1.021828.3150123.0432562.607906.1262903.881.2416997ZM118.9455173,32.5171601v-.0215835c-.1744519,0-.3567524.0324645-.5226422-.0053513-.8554922-.1949652-1.3285458.1604494-1.6503365.9568098-.3913573.9689394-.9325507,1.8763391-1.3428159,2.8386786-1.2179526,2.8591918-1.3717129,5.7479941-.1402037,8.6530287.3906438.9214914,1.5689969,1.1059323,2.230059.3380229,2.6617294-3.0910809,3.729846-6.7320955,3.5964206-10.7454705-.0659992-1.9788162-.1337821-1.9765865-2.0830771-2.0140455-.0288969-.0005351-.0581506-.0000892-.0874043-.0000892ZM120.6404478,41.7353737c-.5697335,1.5542809-1.6339258,2.832703-2.3877436,4.2823662,2.3017663-1.9016685,3.9849239-6.3173709,3.4990272-9.3289852-.1059555,1.8945334-.5390528,3.4839544-1.1112836,5.046619ZM113.9160224,49.4618273c.5790091.5683065,1.3189135.9527072,1.839772,1.5917399.0674262.0825882.1566143.1288768.301099.0894557.6175383-.1680304,1.8897173-1.7676188,1.8758039-2.4425051-.038886-.3346337-.2001381-.6644513-.4602106-.9555612-.1719546-.1922895-.2750561-.1906841-.4784049.001427-1.0695436,1.0124632-1.1355428,1.0088957-2.3406523.2263594-.1387767-.09008-.2482996-.2788912-.4380919-.2202054-.308234.0953421-.5533229,1.4600983-.2993152,1.7092898ZM114.1150902,50.6956554c.5654525.6220869,1.1298347,1.2454225,1.6974278,1.8654581.1644628.1798032.33285.3351688.5882847.1130013,1.0552735-.9174779,2.2086539-1.7484434,2.8543757-3.0417599.5426204-1.0879163.1594683-2.0233211-.9457505-2.4153919.5779388,2.424935.5251395,2.5832439-1.4120259,4.2193102-.1337821.1130013-.2886127.2084326-.3981356.341412-.3624604.4405-.6749755.3405201-.9778582-.0606479-.3492606-.4619051-.7003049-.9224724-1.0506357-1.3836641-.1184418.1207607-.2368836.2415214-.3556821.362282ZM120.8887474,49.4042118c3.7070138-2.7728578,7.9138378-3.837942,12.5658886-4.352914-.6221761-.5677714-1.0634788-.9446803-1.4758845-1.3514672-1.9928187-1.9666866-4.0355828-3.9179437-5.5293049-6.2914172-1.1608722-1.8447665-2.8904077-2.992974-4.5892625-4.3088551.0392428.1319984.072064.2663156.1187985.3956384.7720121,2.1381061.907578,4.3131361.41633,6.5346331-.4801887,2.1723544-1.4701765,4.0965874-2.7733929,5.8800817-.1562575.2142298-.5947062.4417486-.1551873.779058.8683353.6665918,1.2896598,1.5796103,1.4220149,2.7152423ZM116.5663357,30.1592054c.034605.8624488.5426204,1.3349674,1.3792047,1.4186258.8993727.0898124,1.80374.1293227,2.70561.1907733,1.2803842.0435238,2.3138959-.2628373,2.6652969-.7900281.7331261-1.0996.7099372-3.346694-.0453076-4.4426372-.5643822-.8188359-1.4252257-1.1045053-2.1658436-.5535905-.6749755.5019506-1.2208066.5420852-1.9510787.1453766-.6400137-.3479227-1.4198744-.4650267-1.8026697.3876114-.5155072,1.1480291-.8362275,2.3664276-.785212,3.6438687ZM79.8871978,4.7229399c.3246447-.013289.6271707-.0922205.9300534-.1691006,1.9582137-.4960642,3.921422-.9036537,5.9595483-.5141693,3.0027847.5738362,5.7408591,1.7888456,8.1835426,3.5881261,4.9859711,3.6724981,9.2452376,8.1107651,13.1969836,12.852004,1.6671038,2.0003105,3.4497954,3.8812874,5.4194252,5.5835313.6760457.5842712,1.315346,1.2184877,2.1697679,1.7252544.1462685-.5599228.223327-1.0854191.5155072-1.5203894.1962138-.2918234.0560101-.4710023-.149836-.6702485-1.7919671-1.7368489-2.7263016-3.9493379-3.5507563-6.2485177-1.0716841-2.9870876-1.9921052-6.0316123-3.3302833-8.9205929-2.2175727-4.7889546-5.9606186-7.6543004-11.0689557-8.8000106-4.0837443-.9158725-8.1207541-.492675-12.1277967.484113-2.1858218.5328988-4.2471369,1.3813452-6.1472,2.6100003ZM106.504492,21.2883794c-2.8886239-4.2138698-6.2242586-8.0180095-10.2676899-11.1725923-2.0738015-1.617872-4.1936241-3.1346047-6.6748368-4.1175466-2.0406235-.8084901-3.8240286-.3234852-5.385177.9453938-2.9471313,2.3953246-5.3905283,7.8539926-2.15086,12.5904154,1.9703433,2.8803294,4.6930774,4.7474821,7.8335685,6.0861954,5.4868514,2.3390469,11.2387698,3.0063522,17.1405242,2.5971572,1.4419931-.0999799,2.8904077-.256505,4.4190916-.6696242-1.9071982-1.9672217-3.4319578-4.0965874-4.9146206-6.2593987ZM103.1096364,32.7628733c3.4851139-.2068272,6.8799694-.9206887,10.0654113-2.4174432.5062316-.2377755,1.4616144-.4454945,1.3670751-.8597732-.1423442-.625922-1.0342251-.8433626-1.6485527-1.1621208-.370309-.1922895-.7366936.0909719-1.1012946.1575062-7.2288732,1.3212324-14.3007754.7267046-21.1967987-1.790005-3.0480922-1.1125323-5.8032908-2.7296907-8.025858-5.1527528-3.2164793-3.506965-3.7808616-7.6443114-1.6403474-11.8811917.8886701-1.7591459,2.2015189-3.1206021,4.0562744-4.2731799-1.7552216-.1681196-3.1643935.1669601-4.5578682.6352868-6.675907,2.2439724-9.4364569,9.5819226-5.8532361,15.6344049,1.8429827,3.1138239,4.3673625,5.5147673,7.6295061,7.1303204,6.6013458,3.2692787,13.6122433,4.4119565,20.9056887,3.9789483ZM53.2278069,56.8944953c.9807123.0000892,1.9767649.0945394,2.9906551.3118016.09008.0192646.2065596.0455751.3348121.0750964.1491225-.0485183.2971747-.1006042.4468323-.1472495,1.0952298-.3408769,2.1044822-.6558892,2.1786867-2.0416046.005708-.1061338.0866908-.2189568.1576845-.3087692.1712411-.2163703.296818-.591763.646792-.4508458.3353472.1350308.1384199.4647591.0788423.6970941-.2647103,1.0296765-.4252488,2.0665773-.5180044,3.1077591h0c.015162.0155187.015162.0281834-.0041027.0372806-.0016054.016589-.0033891.0329996-.0048162.0495886,1.9871107.8674434,3.8072613,1.9556273,5.462949,3.2667814,2.8962941-4.0962307,6.4713096-7.6056037,10.891293-10.371594,7.3669364-4.6101325,15.0545931-8.695839,22.2531424-13.5851301,2.114828-1.4364634,4.3220549-2.7312961,6.5414114-4.0289829-4.5336091.2395592-9.0215539.1960354-13.4324401-.8646786-1.1958339-.2876316-2.1266009-.1040825-3.1768798.5343259-5.1461529,3.1287183-10.6783119,5.4864055-16.1922764,7.8651411-7.8904705,3.4038635-14.031249,8.7640678-18.6488733,15.8538076-.0019621,0-.0037459.0001784-.005708.0001784ZM59.4618762,58.1904875c.0060648.0025865.0117728.0056188.0178376.0082945-.0058864-.0027648-.0117728-.005708-.0178376-.0082945.0173025-.0011594.0228322-.0046378.0347834-.0068675-.0124863.0021405-.0174809.005708-.0347834.0068675ZM59.3992661,58.0601837c.0076702.0031216.013735.0060648.02087.0090972-.007135-.0030324-.0131998-.0059756-.02087-.0090972ZM59.150253,57.9688551c.0007135.0001784.0017838.0005351.0024973.0008027-.0007135-.0002676-.0017838-.0006243-.0024973-.0008027ZM58.7820846,57.8546943c.0090972.0026756.0174809.0051729.0262213.0078486-.0087404-.0026756-.0171241-.0051729-.0262213-.0078486ZM57.9323004,57.6208431c.1480522.0387076.2941423.0775936.4352379.1163013-.0690316-.1222769-.2033488-.156971-.4352379-.1163013ZM71.8668695,71.8026416c-2.8115654-5.2551407-5.8733926-9.0333267-10.3267324-11.5470931-3.976897-2.2449535-8.1196839-3.23289-12.5996017-1.7609297-2.8529487.9372777-5.4768623,2.3682114-7.8833354,4.1307465-3.6588523,2.6801022-6.54926,5.9673077-7.5788473,10.5662024-.1591116.7103832-.3906438,1.4070313-.6271707,2.0969012-.675689,1.9692731-.7820012,1.9616029-2.7214854,1.1472264-2.6401459-1.1088755-5.3332695-2.2827692-8.2468661-2.1175929-6.2442367.3542551-11.7637309,2.4959287-15.7650655,7.5219453-4.0453935,5.0811348-5.9299378,10.8807688-4.9724145,17.413083,1.011393,6.9010178,3.4995623,13.1063685,8.7695083,17.9410766,3.4995623,3.2104146,7.5585124,5.5399183,11.8159952,7.5686798,8.4992684,4.0500313,17.5279573,6.2096317,26.7946001,7.5115995,5.1069101.717429,10.2147122.8334627,15.3473085.1211174,1.9776567-.2745209,3.3422346-1.2240174,4.3768164-2.8212869.2697048-.4162408.543869-.8299844.7919903-1.2589791,2.2668045-3.9200842,3.8097585-8.1285135,4.9973872-12.4829437,2.0309912-7.4453327,3.0923295-15.0465662,3.2847974-22.7375229.1976408-7.9072378-2.7657227-15.0564661-5.4568842-21.2922299ZM78.1576624,81.5022034c.0003568-.0005351.0003568-.0010703.0005351-.0016054-.0001784.0005351-.0001784.0010703-.0005351.0016054ZM78.2675421,81.0801653c-.0046378.022297-.0099891.0443265-.0148052.0665343.0049945-.022297.0101674-.0442373.0148052-.0665343ZM140.0534846,46.2223374c-2.9592609-.5099775-5.9477755-.4766212-8.9002581-.0483399-4.4883015.6512514-8.5823917,2.1992892-11.6486783,5.7783181-.4734104.5527878-1.0046147,1.0595545-1.537246,1.5579376-1.5201218,1.4225501-1.6103802,1.3658264-2.9414233-.2629265-1.8119453-2.2174835-3.6399444-4.5171985-6.2909712-5.7376483-5.6812814-2.6151732-11.5605605-3.3119106-17.4516123-.74918-5.955624,2.5907357-10.3397539,6.8294889-12.5573266,13.0480395-1.7882212,5.0141545-2.6210596,10.0740625-1.8561826,15.1862348-.0001784-.0002676-.0003568-.0004459-.0007135-.0006243.2104839.2388457.3984924.5072127.5583175.8091144.7861038,1.4849817,1.1096782,3.0612921.9218481,4.7214392,1.5907588,4.1659758,3.9476433,7.8965353,6.5959945,11.4680724,5.6074337,7.5627934,12.5690994,13.7041963,20.1433089,19.1995205,4.1740027,3.02856,8.63091,5.5262725,13.4984393,7.3039696,1.8754472.6849645,3.5257836.4862535,5.1886064-.4393405.4334541-.2411646.8697623-.4780482,1.2900166-.7406179,3.8404392-2.399338,7.1764306-5.3928472,10.2676899-8.6818364,5.2849296-5.6235768,9.7871444-11.8394516,13.5633683-18.5421151,3.8828928-6.8912071,4.6178026-14.5952745,5.1654175-21.364829-.0189079-5.9600834-.9514586-10.732895-3.7059436-15.0413933-2.4601643-3.8477527-5.6555953-6.663064-10.3026516-7.4637947ZM174.9891737,64.8521244c-.1847977-3.017144-.7484665-5.9032706-2.7373609-8.3299894-2.1997351-2.6836697-4.8882209-4.687191-8.2110125-5.7262322-3.3588235-1.0501898-6.2916848-2.765366-8.7532761-5.2711946-1.9228953-1.9573219-4.1465328-3.4878787-6.5517572-4.7790547-3.0084927-1.6153747-5.9855912-2.8158464-9.638022-2.24094-3.6099772.568039-7.2823861.0449508-10.7154141-1.4687495-.4427297-.1951435-.9007997-.356574-1.351378-.5335232,1.6314286,2.5591631,3.6538577,4.7153744,5.6770004,6.8936152,1.2803842,1.378402,2.6014383,1.7829591,4.3976864,1.7433596,3.6927438-.0814287,7.0918803.9291615,9.9801475,3.3579317,1.0335116.8692271,2.2482534,1.4614361,3.3987798,2.1499681,3.3334941,1.9950484,6.0137747,4.6087055,7.7140564,8.1426052,1.9960295,4.1489408,3.2485871,8.4861577,3.2653544,13.1308952.005708,1.6209044.0299672,3.2416304-.1031014,4.8782319,2.7309394-4.1222736,5.5314455-8.1963856,5.7897342-13.4152268.1430577-.0015162.2857586-.0029432.4284596-.0043702,1.1259105,4.3888568,3.2421655,8.3765456,4.8154435,12.7663835,1.6649633-3.7059436,2.8376083-7.3341152,2.59466-11.2937097Z"/>
  </g>
</svg>