<?xml version="1.0" encoding="UTF-8"?>
<svg id="Layer_2" xmlns="http://www.w3.org/2000/svg" viewBox="0 0 92.9250784 128.3361875">
  <g id="Layer_1-2" data-name="Layer_1">
    <path d="M43.5523578,47.9439307c1.0762004,2.6231269,1.2328396,5.2908748,1.7624315,7.8766187,1.0745373,5.2464002,2.9602134,10.1120092,6.5780373,14.1717538,1.3624059,1.528824,2.8848159,2.8766848,4.6330257,3.9616247.5340578.3314578,1.0713264.6790316,1.5350378,1.0988459,1.8989046,1.7191349,4.1432501,2.1910698,6.6169757,1.955445,1.6518454-.1573476,3.2975694-.4949885,4.9578308-.4312563,5.0196995.1926901,9.6422456,1.5832238,13.5728243,4.8313137,1.7963572,1.4844418,2.9799329,3.4610153,4.0725418,5.484489.5086558.9420065.9913167,1.8986428,1.4640909,2.8593139.995413,2.0226575,2.1094046,3.968878,3.5613759,5.7065389.212117.2538505.3873053.5385622.6185488.8637985-.5941863.0960948-.9738302-.223844-1.3791147-.439526-3.1908641-1.6981141-6.4461302-3.2566136-9.8523915-4.476271-.3799904-.1360727-.8426777-.5867174-1.2687982-.0086855-.0164085.0222527-.1476842-.0414332-.2259152-.063324-2.5183774-.7045106-5.1361837-1.0003795-7.627496-1.8833046,1.1596828,1.474917,1.9065044,3.1240751,2.4525663,4.8742945.7091767,2.2730122.8639448,4.5771398.3254981,6.9041899-.3510156,1.5170278-.6298985,3.0419171-.7459053,4.5957273-.0096711.1296125.0503882.332043-.152204.3614028-.1317762.0190958-.2004055-.1294508-.2706671-.2320829-.0593432-.0866624-.1292737-.169498-.1708532-.2643994-.7489621-1.7094638-2.0578229-2.9379838-3.4614003-4.100069-1.0986534-.9096361-2.1543798-1.8719934-2.8811585-3.261272-.7337856,1.5717895-1.9805005,2.7785418-2.1489898,4.5268286-.0703617.730159-.3474737,1.3644233-1.1613537,1.5407897-.8955299.1940684-1.5935956-.1405233-2.2309707-.9739534.3156961.1285268.4961511.2433709.6899578.2741628,1.2277731.1950617,1.8897186-.2379733,2.1213241-1.4535112.143711-.7541827.4155639-1.4461963.7433335-2.130564.710555-1.4836487,1.2619299-3.0159684,1.4675944-4.6641949.2918033-2.3385384-.2637911-4.553424-.9510847-6.7458337-.2881998-.9193457-.6647483-1.8118726-1.0197447-2.7092427-1.1903131-3.0089692-3.4457772-5.0095973-6.1999873-6.5410008-.9178519-.5103498-1.8207197-1.044677-2.8202291-1.3903489-1.0100814-.349337-2.0115773-.3908164-3.0180628.0094401-.3116537.12393-.6327552.224306-.9503224.3331518-1.1161091.3825313-1.410207.30554-2.145086-.6349496-.2770811-.3546115-.5014333-.7504174-.7647547-1.1501041-.1786455.2427318-.1251158.4823683-.0916828.6921368.13876.8705822-.1417322,1.6137155-.6380527,2.3027801-.0859309.1193254-.1489701.2602953-.2518947.361449-1.4879298,1.4622506-2.1446009,3.3022432-2.6239431,5.2914831-.4658674,1.9333155-1.2567401,3.7879071-1.3094768,5.8164704-.0307996,1.1845381.0834747,2.3479092.4098737,3.490221.1022855.357984.2451342.7158757.1726011,1.1547934-.3878674-.2089446-.5112661-.5710173-.6308071-.9026754-.3517317-.9759477-.8738931-1.8537754-1.4215027-2.7288389-2.2015494-3.5180562-3.3692632-7.3477199-3.3860721-11.5120061-.001694-.4187594-.000231-.8375342-.0616223-1.2644477-.3186683.4537863-.3264606.9904928-.4051613,1.4940204-.4731284,3.0272565-.8406218,6.0693122-1.7145072,9.0258297-.4028899,1.3630604-.203393,2.7977454-.1381209,4.2044489.1855369,3.9984764,1.2544456,7.8250217,2.2489269,11.6678522.2732312,1.0557803.4833693,2.1286467.6991284,3.1983715.4225785,2.0952137-.1611667,4.0366141-.9434079,5.9430877-.60261,1.4686877-1.4608415,2.7897991-2.393508,4.0623317-1.2197113,1.664173-1.9140888,3.5331018-2.239841,5.5535571-.1743028,1.0810668-.1357262,2.1341521.3976693,3.129442.1156295.2157668.2277709.4537863.1393683.718201-.1631071.0656032-.2400677-.0638014-.3088201-.1492858-2.3226304-2.8878651-5.0868851-5.3768135-7.4800004-8.1915757-4.4678473-5.2550087-5.0284697-12.5162586-1.6042176-18.7489089,1.2840055-2.3370831,2.996711-4.3018065,5.1684733-5.8629701.8698391-.6252863,1.7277395-1.2686673,2.5694393-1.9312904,1.5364238-1.2095474,2.5187701-2.780821,3.0593112-4.6600754.6399084-2.2247107.9758707-4.5053612,1.399327-6.816565-.298433.1141742-.3323048.3643056-.4506139.5425354-2.3458687,3.533995-5.230985,6.5196489-8.9575662,8.5992164-1.7238742.9619954-3.6702564,1.2942849-5.594767,1.6465171-2.7670767.5064459-5.5298876,1.036261-8.2980808,1.5364161-.7034095.1270869-1.4236702.1632765-2.1360578.0646484-.5858743-.0811262-.6931417-.3215173-.2682994-.7025856,2.026442-1.8177091,3.2696996-4.1898961,4.6885304-6.4482477,2.896104-4.6097181,6.7259217-8.1997299,11.7265409-10.4622009,1.6855633-.7626064,3.4954724-1.0280683,5.3021167-1.3057192,2.4034101-.3693645,4.264231-1.5751851,5.5650223-3.6350101.179454-.2841727.3689487-.5632019.5299152-.8576617,1.1120127-2.0341303,2.3567795-3.9766703,3.9368079-5.6850099.6866314-.7424018.8848809-1.5724671.6332403-2.5568307-.675582-2.6427925-1.3243761-5.292461-1.974818-7.9416136-.1751729-.7134348-.329633-1.4324712-.4740755-2.1528475-.6816188-3.3995085-2.8070084-5.7488267-5.5468582-7.65649-.9678628-.6738919-2.0097601-1.2234611-3.0388141-1.7902512-1.2667423-.6977193-2.1747999-1.6797037-2.7324425-3.0164343-.5574886-1.3363533-1.1568031-2.6554627-1.7519865-3.9757309-.1457477-.3233152-.3152996-.6458412-.5297689-.9259637-.3435814-.4487736-.5929659-.402039-.7681003.1338475-.406863,1.2449593-.5437058,2.5440181-.7212425,3.8328977-.1347137.9779766-.2337537,1.9608888-.3473197,2.9417567-.1278377,1.1041165.1531049,2.172617.2835182,3.2544076.0405169.3360778.3190841.3482552.5493844.4273756,2.9353658,1.0083989,5.5636786,2.541558,7.9282966,4.5530391,5.0643128,4.3079895,5.1871648,10.1018761,2.9714553,15.0516451-1.7839296,3.9852095-4.9553745,6.0698974-9.2489884,6.5323461-.1778024.0191497-.4461518.1105629-.4857486-.1270869-.0369557-.221842.2467704-.259533.4180933-.2942211.6168202-.1249002,1.2444164-.199366,1.8579141-.3374407,3.7113315-.8352319,6.035217-3.2231267,7.3740921-6.673262.9073569-2.3381688,1.1324714-4.7787849.8765265-7.255348-.2335612-2.260061-1.449284-4.0617581-2.9529293-5.6553229-2.3554705-2.4963364-5.3489437-4.0188119-8.4704894-5.3162537-.1341593-.0557627-.2836453-.0783542-.4281918-.1039603-.0800867-.0141909-.164751-.0025487-.2588208-.0025487-.0449829.3060482.1978568.3915402.3673048.5214761.6556008.5027307.6340565.8059684-.1222976,1.1468856-.9431884.4251311-1.9148241.4144243-2.8905678.1073367-.1598731-.0503189-.3420606-.0825199-.4672418-.1819064-.9506265-.7547486-1.7747282-.3399893-2.6149496.2291107-2.334007,1.5808677-4.2707336,3.5507308-5.237707,6.2147711-.8640257,2.380399-1.0646005,4.9438016-1.0025085,7.4569893.0610795,2.4725399,1.5653562,4.3384196,3.4295073,5.7863946,2.2205566,1.7248174,4.5762427,3.2822543,7.3487517,4.0350972.3140368.0852765.483581.3232805.6840904.531024.7309367.7573088.7905262.7727857,1.7364597.3486979.0954557-.0428038.1893407-.096757.2898168-.1187094.1163186-.0254174.2733775-.0715706.3243316.0782464.0255752.075205-.0383032.1988347-.0923604.2802227-.3872591.5830523-1.1272046.7989961-1.7814579.5267275-.0772609-.0321625-.1655788-.0581651-.2234051-.1135274-.8544547-.8179995-1.9805775-.8880609-3.0476921-1.1714945-3.6818601-.9779496-6.4331828-3.1115628-8.1579232-6.5770748-.9456986-1.9001751-1.2432461-3.8389267-1.0224012-5.9234067.2304851-2.1754968.3529675-4.3698929,1.4532302-6.334547,1.5159382-2.7068942,3.682634-4.7763171,6.3412074-6.3476677.477117-.2819937,1.0118947-.409943,1.5430226-.5292145.7156177-.1607009,1.1165942-.5746363,1.2613909-1.2998211.5513364-2.7612132,1.0658364-5.5274352,1.2857457-8.3390828.0934076-1.1942477.1715077-2.3896927.2547437-3.584722.0175866-.252453.0027912-.4914542-.1234295-.7308289-1.341801-2.544738-2.63172-5.1155826-3.8519819-7.7210999-.0245742-.0524768-.0757401-.092499-.1733095-.2078705-.3205663,1.9440183-.904454,3.7767461-.8686264,5.7022731.024428,1.3128648-.0885181,2.5933976-.4725163,3.8580994-.4554263,1.4999648-.1548836,3.0029979.1127921,4.4931338.2522104,1.4040008.1234718,2.7548685-.42567,4.0750982-1.254615,3.0163034-3.1060881,5.4812165-6.2453821,6.7380298-2.3720407.9496371-4.8365188,1.0271636-7.3184102.5981402-2.3158006-.4003143-4.5671453-1.1209446-6.9014603-1.4424811-.1635075-.0225261-.3204739-.0925529-.4969134-.1454166.0242201-.0719595.0254982-.1467564.0625194-.1754732,1.3638805-1.0579748,2.2609811-2.4631537,3.0175392-3.9847398.6171128-1.2411324,1.316195-2.438283,2.0242283-3.6310408,2.1071562-3.5497221,5.2052557-5.6272645,9.2577547-6.3199095.4963436-.0848337.9909663-.1862338,1.4801106-.305667,3.1080362-.758895,5.1930668-3.178244,5.735964-6.6897591.1796157-1.1617541.2889082-2.3343362.4336818-3.5015553.0289054-.2330357.0315966-.4531067-.0833592-.6727793-1.9622594-3.7497271-3.3508296-7.7397683-4.8769202-11.6717868-1.3311212-3.4296738-3.4793218-6.3659973-5.6169081-9.3051361-.36409-.5006161-.9105216-.8675657-1.3655552-1.3037384-.1335857-.1280514-.3091012-.281972-.168216-.4856908.1607201-.2324058.3495757-.0265695.5003899.0389384,2.223471.9657848,3.9653553,2.4972508,5.290717,4.5189015.839771,1.2809438,1.6029549,2.6117378,2.6405634,3.7600883.6201427.6863359.6314539,1.6134335.8028846,2.4795035.9469306,4.7838957,2.9189881,8.9312787,7.291064,11.5636417.9895188.5957802,1.9644346,1.2161963,2.9388308,1.8366451,2.8657125,1.8247583,6.0431787,2.1381214,9.3333485,1.9735706,2.4890562-.1244805,4.8932902-.7677345,7.343354-1.1254028,3.7718451-.5506241,7.5543315-.8863034,11.3700583-.4724412,1.5561048.1687762,2.9782081.6742942,4.3048942,1.491439,1.7971272,1.1069077,3.3744299,2.5051913,5.0210085,3.8072108,2.04317,1.6156289,4.3658543,2.1641625,6.9001706,2.0943552.3975692-.0109493.7971944.0122852,1.1943093.0411483.2218189.0161236.5355131.0101947.5698546.2719183.0327323.2494847-.2695737.3428807-.468008.4465175-.2786596.1455321-.5600527.2987563-.8579697.3923603-1.8476001.5805383-3.460869,1.6037864-5.0590615,2.6552124-2.1170275,1.3927551-4.3388508,2.5514139-6.8071942,3.2053438-3.0563698.8097144-6.0398678.3548771-9.0172135-.4298395-2.4505951-.6458835-4.7087388-1.655757-6.6240673-3.3556921-2.0520711-1.8213049-4.4393884-3.0833503-6.9391013-4.1655182-2.4243308-1.0495357-4.7484858-2.2611813-6.4747893-4.3536038-.1474763-.1787533-.3384725-.2357442-.5531073-.2560835-2.8029313-.2655775-5.3816221-1.2580876-7.9027599-2.4374707-.11228-.052523-.2275707-.098605-.3876364-.1675865-.0286629.3209167.1171887.5541237.2270009.7827051,1.3179236,2.7433148,2.5634065,5.5263688,4.4130509,7.9771141.4953465.6563284.8319556,1.4093715,1.1890041,2.1465913.3294366.6802097.662831,1.3588524.9747773,2.0471162,1.0128495,2.2346782,2.641549,3.796812,4.9551243,4.6573304,1.8875087.7020389,3.5523439,1.7339149,5.0407126,3.1357482,2.0631898,1.9432252,4.5120602,2.2373463,7.1316759,1.1890156.1827342-.0731299.4253813-.2826481.5613693-.0926568.1625912.2271703-.0962334.4283304-.2646458.5677141-.8260074.6836554-1.8503798.8594019-2.8551482,1.080162-.1796619.0394736-.3830549-.0024678-.5845076.2100419,1.5887601,1.4089827,3.1697972,2.8065387,5.1266897,3.6947729.2780051.1261899.5579121.1385329.8549283.0258755.7648933-.2901055,1.5604706-.5098762,2.3020948-.8489262,3.0754579-1.4059951,6.1083969-1.2230877,9.1424602.1303402,1.6308093.727464,3.229918,1.51856,4.8202797,2.3272157,1.3980796.7108823,2.4801936,1.7913061,3.3851404,3.0547914,1.0315025,1.440175,1.8388915,3.0106786,2.5945834,4.6050442.7759965,1.6371925.8354321,3.3237183.1729707,5.0168429-.3363627.8596791-.6716628,1.723262-1.0746913,2.5523879-.4202224.8644992-.587087,1.7139991-.3596626,2.6743544.2297036.9699802-.1360188,1.3263011-1.1320941,1.2298906-.4170423-.0403706-.8531881-.0603596-1.2396386-.2017221-.7190634-.2630519-1.3018616-.0539147-1.8847907.3463726-.7614745.5229006-1.5264524,1.0417126-2.380834,1.4120626-2.1580988.9354462-4.3095988.742217-6.444929-.0557627-2.6396894-.9864734-4.9963688-2.4829425-6.9053988-4.5230787-1.9747102-2.1103209-3.0753886-4.7455136-3.5989206-7.5860628-.3879829-2.1050465-.3898308-4.2196678.0939004-6.3234553.1733326-.7538208.5624858-1.3977524.9251668-2.0589048.1052808-.1919163.2172066-.3502302-.0158541-.5419309-1.8957476-1.5593156-3.7249912-3.2037383-5.9288351-4.6080318ZM49.9355028,52.0943224c.9761171,1.2807407,2.1784497,1.3158331,3.3292776.1617904.1810864-.1815946.3914016-.5180574.656648-.2916378.2754102.2350935.1280032.5916569-.0875017.8461157-.1327233.1567085-.3029682.2952182-.4819448.3968762-.8974702.5097376-1.8275496.5694927-2.7800664.1566469-.1809401-.0784274-.3139175-.2395171-.48407.0865816-.7861681,1.5067599-1.2969182,3.0440346-1.3220584,4.7936226-.0540918,3.7659624,1.2248548,7.0787083,3.5920061,9.8497812,1.9644385,2.2996539,4.6654423,3.6340938,7.666188,4.3268851,2.8084483.6484091,5.4187626.0970496,7.9310186-1.0992694.7562386-.3601092,1.4206095-.5509129,2.2087719-.2271395.346388.1422943.7177005.245088,1.1028652.2329068.1547604-.0048894.2899939-.07405.3521629-.2250605.0893189-.2170064-.1123339-.2622896-.2289028-.2941903-.3287013-.089958-.2562067-.3294713-.2469745-.554655.0491562-1.2006309.3917096-2.2981524,1.0360454-3.3246115,1.114469-1.7754058,1.3517493-3.6951155.6905199-5.6822687-.5858011-1.760468-1.4075274-3.416479-2.4868078-4.9331719-.7483077-1.0515877-1.5926331-2.0238587-2.7191602-2.6822507-1.907336-1.1147346-3.9141317-2.0158469-5.999451-2.7556924-2.8824213-1.0226438-5.7218232-.9615989-8.5403121.2056645-.3171052.1313257-.6840365.2378193-.6256328.7359763.0302529.2580623-.2294572.2444951-.4128228.2738741-.6910281.1107439-1.3833728-.012266-2.1497983.0032263ZM32.6254137,79.7291268c-.5699778.0755438-1.0901103.2955147-1.6500321.3870666-1.3460051.2201018-2.6844028-.0106105-4.0258265-.0065064-1.6785987.0051358-3.1395365.4539249-4.3575461,1.735913-1.5560316,1.6377546-3.0211774,3.3278531-4.11041,5.3141516-1.3618285,2.4834121-3.1390206,4.6096411-5.3660952,6.3606305-.0871013.068483-.2391706.1138739-.192771.3058711.7315334.0242085,1.4787246.0137443,2.1808097-.1593419,3.3830345-.8339537,6.7930572-1.5323968,10.2208512-2.1494903.5212952-.0938542.9317541-.3709045,1.2745962-.7559229,1.6698016-1.8751812,1.9279679-4.1826505,2.0493492-6.5740103-3.1970933,1.7709091-6.124509,3.8610639-9.1460868,5.8034345.8724879-.9678551,1.9096075-1.7151232,2.9576301-2.4495326,2.0462346-1.433915,4.2060235-2.7007189,6.2038642-4.2051804,1.4261342-1.0739213,2.762141-2.2503514,3.961667-3.6070825ZM34.3285482,121.3150634c.2090293-.4460863.4001487-.9016436.6303605-1.3365189.7679424-1.4506854,1.7240012-2.7843245,2.6136484-4.159289.7447888-1.1510974,1.3785604-2.35025,1.6984144-3.7002822.5027423-2.1220094.1712844-4.1949395-.4637884-6.2100665-1.4071578-4.4649598-2.0859738-9.0320589-2.147704-13.7021134-.0025487-.192898-.0356044-.3854034-.0628312-.6639013-1.1016717,2.0990405-1.4633055,4.3499078-1.1809038,7.0642633.2229739,2.1429993.0848222,4.2378588-.8463583,6.2263056-.3916018.8362175-.7606968,1.6829761-1.1494112,2.5205719-.9404357,2.0264458-1.0813825,4.1109798-.52538,6.268709.6497643,2.521596,1.7047361,4.9728533,1.4339535,7.6923215ZM34.6541772,96.999161c-.4188133.6602515-.7184166,1.179949-1.0632261,1.6676841-1.2537988,1.7734962-2.9773534,2.9925607-4.8298353,4.0590593-1.8722706,1.0779021-3.3706338,2.4924133-4.0827596,4.6031192-.557889,1.6535702-.5840032,3.3435147-.2903134,5.0388723.491997,2.8401103,1.7309234,5.3172085,3.7057145,7.4522076.0945279-.2230509-.0396391-.3644288-.0889031-.5152854-.9312921-2.8521606-.5527801-5.5157429,1.1956106-7.9517698.5857472-.8161361,1.2835512-1.5518544,1.9301932-2.3242859,1.9069856-2.2779941,3.3375666-4.781811,3.6473261-7.8029306.1390064-1.3558841-.0078847-2.7040683-.1238068-4.2266708ZM73.3097683,32.5266208c-.3535181-.0414948-.706528-.0881216-1.0606543-.1236066-1.6808972-.16842-3.3300091-.4863222-4.8540207-1.2398157-2.9656188-1.4662392-6.0599953-1.9014379-9.3061833-1.2682938-1.2606209.2458772-2.5190704.4995622-3.8651526.932832,1.8946388.9228337,3.7403217,1.5901692,5.6501062,2.0982205,1.9349017.5147272,3.8952438.837411,5.8956947.9355501,1.9686349.0965799,3.7981942-.7533395,5.7401027-.8699046-.0673896.1312757-.1472068.1994083-.2391976.2271357-1.9376505.5840186-3.9044606,1.0290193-5.9422561.9010353-3.289138-.2065654-6.4635628-.9892339-9.582787-2.0197238-.4921934-.1626028-.9890914-.3109299-1.4838181-.4658559,1.7162089,2.1635234,3.616615,4.0547127,6.272274,4.9852656,2.4500177.8584856,4.8030319.8544778,7.0386765-.66809,1.8339559-1.2489902,3.6496707-2.5385781,5.7372153-3.4247487ZM67.5575921,30.822239c-.9743846-.6511194-1.955676-1.2921597-2.9218448-1.9552602-2.8092799-1.9280718-5.907799-3.2164162-9.2342045-3.8336003-3.1555908-.5854874-6.2668456-.0293694-9.3226457.8628072-1.9705445.5753139-3.9160874,1.2521086-5.9637696,1.5358194-.6651487.0921563-1.3548523-.0220679-2.1456866.2397135.3370557.0892034.5361829.1439189.736342.1945458,1.91221.4836811,3.858392.5665283,5.8167784.4776752,2.3435203-.1063203,4.6212448.1576132,6.7186915,1.2854839,1.538626.8273664,3.1155821.8518175,4.7624303.4417898,2.863056-.7128303,5.7354905-1.0437992,8.6428903-.192667.9796359.286783,1.9129646.7041949,2.9110187.9436928ZM71.3380534,80.1358204c.1037177.0646099.2007519.1454127.3121465.1914582,2.5908951,1.0711647,4.6289678,2.8560183,6.4027181,4.9749785.5460927.6523745,1.166836,1.2104175,1.8930219,1.6448.8282173.4953888,1.655064.9974612,2.5116477,1.440252,2.8549634,1.4758256,5.4974787,3.237718,7.7285957,5.576857.2930815.3072647.635273.5676987,1.0027356.8922266,0-.1365116.0158772-.1862222-.0022484-.2120477-1.6923469-2.4108097-3.0677811-5.0102133-4.5188669-7.5652191-.6759285-1.1901591-1.4415687-2.3126744-2.5441028-3.1742708-2.2732817-1.7764838-4.81355-2.9651491-7.6365511-3.55152-1.6885124-.3507384-3.3910386-.4749995-5.1490965-.2175146ZM44.2507932,28.974327c2.0946439,1.6518377,3.400956,3.8726523,5.1413581,5.712437.6947933.7344709,1.4992102,1.3411619,2.346554,1.8967679,2.1790349,1.4288061,4.6360671,1.7580964,7.1571703,1.8663994,1.0935098.0469771,2.1618795-.0540187,3.3281765-.4197565-.4065781-.1568047-.6925526-.2825211-.9881828-.3785351-1.5446858-.5016643-2.8717723-1.3671568-4.0923075-2.4174702-1.4693345-1.2644208-2.7088038-2.7557232-4.0781936-4.1186951-.2086751-.2076934-.4079718-.4282649-.6791779-.5554173-2.5237135-1.1832214-5.1243259-1.9960582-8.1353972-1.5857302ZM40.0475994,72.5265886c-.070431.1009381-.1445657.1995123-.2107233.3031838-.8836643,1.3846741-1.8262098,2.7067325-3.1418773,3.7427164-2.3844145,1.8775374-4.3808076,4.1620686-6.4965992,6.3207988-.5756219.5873026-.8614154,1.2874628-.9065061,2.0872597-.105585,1.8728789-.5404641,3.6460671-1.5130931,5.2688762-.0632239.1054887-.2044017.2325449.0109262.4247576,3.541976-1.9732241,6.4559168-4.692007,8.6798883-8.0526001,2.0024529-3.0258859,2.6536494-6.6240365,3.5779846-10.0949924ZM61.9302237,77.894732c.7146206.1484157,1.2672274.2587091,1.8178092.3782579,3.4441833.7478303,6.8561425,1.4970003,10.4560025,1.2470152,2.8617008-.1987346,5.5132866.9273921,8.0145625,2.2960503.1473223.0806026.2928813.1647549.4428678.24006.146175.0733955.2970008.1375511.5874104.2706979-3.4519448-3.4259268-7.5224-4.9497305-12.1507518-5.1272287-1.5154262-.0581112-3.020727.1078988-4.5306862.2000975-2.0622658.1259243-4.1401932.6275038-6.3456079-.2522797.4291697.5628092.7158603.9777186,1.0418666,1.359018.9991706,1.1686686,1.9266089,2.3960182,2.7116528,3.7120399,1.5913088,2.6676324,4.0231469,4.2266169,6.8165265,5.3286352.6659957.2627439,1.3715919.425081,2.0589779.6335945-1.0867955-1.0288999-1.9662018-2.1778953-2.8086947-3.35816-1.7694846-2.4789154-3.8355772-4.6140916-6.6925657-5.8540075-.4951886-.2149198-.9540029-.513191-1.4193699-1.0737904ZM17.7061145,36.4178068c-.9506034.667936-1.6574009,1.4730343-2.5980445,1.9424476-2.4335091,1.2144099-4.0590862,3.1157284-4.9885842,5.6613635-.5976397,1.636769-1.5319887,3.0758814-2.7790385,4.3040048-.0856345.0843332-.2141767.2022419-.2038858.2907022.0211285.1815445.2186812.1526545.3555355.1679657,1.2537911.1402538,2.5102425.2309356,3.7723071.1427948,2.685527-.1875543,4.6213411-1.9711028,5.0469919-4.623447.143326-.8930813.2580816-1.7898354.2866829-2.691556.0558397-1.7604025.5906136-3.418123,1.1080357-5.1942757ZM60.6418216,79.469663c-1.9569542-2.2875496-3.9247267-4.3300421-6.1623502-6.0828564-3.1495079-2.4671499-5.661479-5.4290496-7.3319659-9.0820005-.0590583-.1291428-.074743-.3378026-.3349536-.3325358.0147992.1943071.0136211.3829009.0454371.5657429.4139392,2.3788628.7982877,4.763593,1.2605285,7.1331081.3881215,1.9895402,1.0258354,3.9002025,2.2044061,5.5846955.5469551.781756.9394886.8902169,1.8327162.5552479.2358019-.0884257.4744374-.171423.7037175-.2747865,1.1713636-.528098,2.3596362-.4966901,3.5685522-.1433337,1.4676098.4289772,2.7660911,1.2012623,4.2139121,2.0767185ZM32.117859,108.9725455c-.0592662-.0137597-.1185401-.0275118-.1778062-.0412715-.7459707.8788596-1.5455752,1.7182032-2.2277291,2.6440784-1.9439644,2.6385422-2.2217732,5.4468903-.7226092,8.398757.7594302,1.4953217,1.8427107,2.7499983,2.9360704,3.997614.3778113.4311177.7800775.8407835,1.2648712,1.3607428.0185645-1.018405.0943546-1.8701993.2265004-2.714879.3072647-1.964015.4133771-3.9222705-.0953479-5.8725411-.2010599-.7707837-.3847951-1.5461565-.5916377-2.315354-.4799043-1.7845918-.8442639-3.5826045-.6123119-5.4571466ZM79.2807605,89.9774859c-.2882152-.705912-.5553711-1.2962715-.772855-1.9043946-.7910806-2.2120983-2.2750681-3.8770027-4.0624857-5.3413092-2.9710395-2.4339634-6.6284101-2.9981201-10.3508372-3.9217238.2667016.1778601.3770644.2746941.5049598.3332442,1.6986608.7776597,3.0235605,2.0245132,4.2730936,3.3723663.700984.7561231,1.4148577,1.5098437,1.9503015,2.3883799,1.9092764,3.1326913,5.0796279,4.1359736,8.457823,5.0734372ZM5.2027148,41.1966956c1.6135345-.4994505,3.1158016-.9474349,4.6064571-1.4312008,1.2169316-.3949359,2.5046523-.5570612,3.6768283-1.0887243,3.1013103-1.4066573,5.1381203-3.8434042,6.5685356-6.855438.0093284-.0196348-.0280238-.0614414-.0608177-.1277607-1.1172024,1.4355859-2.5752836,2.2778285-4.344464,2.5929895-.7026472.125162-1.4068421.2450803-2.1042457.3955904-3.7765921.815035-6.4806219,3.017108-8.3422936,6.5145439ZM43.9091792,55.838032c-.1311602-2.4295282-.1440652-4.8688853-.7909343-7.2380155-.1511415-.5535424-.3812454-1.0879736-.8090984-1.4757601-1.3519187-1.2253168-2.6245052-2.5497083-4.1944929-3.512801-.879414-.5394593-1.8426337-.9138325-2.7820222-1.3306631-1.7318243-.7684545-3.0811943-1.9406689-3.9643774-3.6292659-.4475262-.8556559-.9096515-1.7040392-1.3397644-2.5683614-.851598-1.7113079-1.7839719-3.371577-2.780694-5.0066251-1.5184368-2.4908811-2.8691351-5.0822536-3.9589528-7.7973655-.1401152-.3490714-.3477393-.6988704-.2564954-1.1791289,2.1595541,1.1550783,4.2488158,2.3425039,6.6353593,2.8159769-1.1032887-.6484206-2.233504-1.2424125-3.3437688-1.8715988-2.6568487-1.5056377-4.8700942-3.4462777-6.0636874-6.348582-.8315205-2.0218952-1.5388608-4.0838318-1.9464554-6.2400114-.2002553-1.0593531-.8801839-1.8103874-1.6631104-2.4920563.0398894.2525733.127264.4788735.2216764.7021987.6290554,1.4880001,1.3716612,2.9276611,1.891709,4.4621176,1.1581313,3.4171817,2.4693675,6.7533796,4.0318671,10.0277434,2.6243166,5.4995057,5.6535019,10.7794236,8.3636493,16.2276845.1213621.2439754.2747249.4718156.405273.711479.5706785,1.0476184,1.4038853,1.8227063,2.4503796,2.3810303.4816445.2569613.9645441.5126212,1.4355012.788301.7429639.4348945,1.4728072.8921611,2.2143928,1.3294696,3.1517871,1.8585956,5.0074413,4.5746835,5.5243822,8.2158727.1453203,1.0236178.3471811,2.0479093.719664,3.0283614ZM45.8810327,65.1582022c-.4876042.8215723-1.1420577,1.4469663-1.7392316,2.1138167-.70786.7904415-.9122233,1.6552719-.6072993,2.6760253.2464432.8249525.534797,1.6324801.8421464,2.4351337.7418936,1.9374349,1.5350455,3.8573295,1.9067123,5.9158223.1849055,1.0240798.2140189,2.0631898.2878687,3.2308343,1.1877105-1.4969002,2.1408895-2.9197119,1.8517196-4.8194789-.0977965-.6424493-.1500019-1.2940462-.2850967-1.9282412-.6843599-3.2124777-2.057846-6.2635038-2.2568193-9.6239122ZM35.4252381,92.6404522c-1.0643426,1.0685159-2.2376235,1.9526884-3.4987679,2.7059779-2.9588313,1.7673286-4.9794598,4.3323443-6.3896514,7.418405-.4983033,1.0904915-.9172551,2.2180503-.9995979,3.4465087.1646625-.0048432.1923898-.087956.230643-.1620522.8135682-1.5758781,2.0492992-2.7457325,3.5347303-3.6757965.7291618-.4565428,1.4539424-.9201542,2.1861842-1.3716766,3.1147159-1.9205952,4.0872756-5.1067547,4.9364597-8.3613663ZM21.1778289,31.0166347c-.5501506,1.1820665-1.0346287,2.2065697-1.6912574,3.1368878-.5615734.7956428-.9290244,1.6842736-1.2805752,2.5881078-.7725701,1.9862716-1.0320877,4.0554442-1.1371414,6.164818-.1097699,2.2041327-.6489904,4.2217929-2.8956343,5.5359667.9339562-.1712459,1.5532481-.561173,2.1375709-1.0002139,1.7734077-1.3324803,3.0063166-3.0959897,3.9397415-5.0782381.603303-1.281195.8742897-2.6345459.5956147-4.0470243-.3645058-1.8475385-.3458875-3.6667452.2227814-5.4785215.1652708-.5265465.2831294-1.0883586.1088998-1.8217823ZM34.8470059,27.5278304c1.0033747.7156485,1.9287956,1.3195906,2.9763139,1.7103531,2.0158277.7519728,3.9075867,1.7324249,5.6588456,2.9885375,1.6544403,1.1866671,3.324573,2.3515551,4.9939126,3.5172785.9128777.6374791,1.9509791.9892955,3.0307677,1.2768138-1.6593682-1.0873384-2.8096187-2.6483672-4.0241479-4.1465841-1.0059157-1.2408745-2.0400901-2.451727-3.2699729-3.4858051-.4092808-.3441242-.8253067-.4947536-1.361405-.5007364-2.3588585-.0263298-4.697497-.1954198-6.890846-1.1994721-.3005196-.1375704-.6307917-.231463-1.113468-.1603852ZM66.9894084,87.2560466c-.0365053.0330095-.0730105.0660113-.1095158.0990131.1431798.3394735.3449712.6665809.4195987,1.0204993.3636358,1.7245094,1.2845291,3.0620139,2.6349771,4.1788775.4537016.3752164.8510321.7238913,1.4296646.9287395,1.7569029.621983,2.7077874,2.0260839,3.3524312,3.6898257.1344635.3470194.1436109.7550066.4929634,1.1095487-.0884796-2.4052581-.7340012-4.5528851-1.931814-6.5237838-.5987447-.985203-1.2264179-1.9919195-2.2830144-2.5512406-1.311833-.6944545-2.6681714-1.304803-4.0052908-1.9514795ZM42.5434931,75.6094307c-.6373828.7040255-1.249995,1.2779688-1.710973,1.9853668-.4413586.677276-.5870639,1.4266232-.5190199,2.2257579.2052333,2.4102938.5953798,4.7894031,1.2561395,7.1174465.2919727,1.0286843.6286588,2.047636,1.1831829,2.978262.0274733-.1787764.017371-.3446555-.0081927-.5081245-.4459631-2.8512598-.8150042-5.688344.140223-8.5311877.5786094-1.7219685.1903186-3.4374998-.3413599-5.267521ZM11.501411,39.9918413c-2.1417712.5899976-4.3280671,1.0008107-6.3961501,1.8260712-.2327913.0928994-.365734.2763034-.4752921.4818524-.8178956,1.5345142-1.5060785,3.1415809-2.6972578,4.6405985,4.110691-1.2252937,6.9294726-3.9447696,9.5687-6.9485221ZM37.6466301,74.808371c-1.4335608.9781113-3.0559848,1.2772142-4.7122269,1.478636-2.4465411.2975475-4.6529184,1.2256402-6.691172,2.5831952-.2175608.1449045-.456666.274594-.5911025.5074161.1187056.1698753.2540391.1031017.3661806.0938311,1.0094461-.0833746,2.0123589-.0389384,3.0178164.0841446,1.4845996.1817409,2.8821133-.1145977,4.1846679-.8532882,1.7420036-.9878825,3.1233821-2.3908439,4.4258366-3.8939348ZM68.2276764,91.6806358c.0333021.3629736.0552545.6885641.0943007,1.012091.1365347,1.1312933.1634459,2.2623401-.0423495,3.3870654-.3013435,1.646879.5182653,2.784825,1.6466942,3.8334905,1.8987352-3.2630122,1.2130817-6.6086829-1.6986454-8.232647ZM78.5115322,86.5675672c.4724277,1.0392948.9549962,2.0741698,1.4114081,3.1204485.1459209.334507.3556972.5163249.7080602.6287666,2.0750476.662215,4.1451134,1.3400454,6.0944909,2.3342496.5685765.2899785,1.1574422.5401638,1.7370064.8085979-2.8980598-2.9051745-6.5235759-4.7278577-9.9509657-6.8920626ZM10.081687,42.6643978c-1.2889527,1.1504237-2.6269807,2.2145006-4.1086505,3.1080324-1.4780393.8913373-3.1872297,1.1970274-4.7353882,1.871004.065634.2198593.1648203.2599065.2690232.2610807,1.4325444.0161621,2.8363335.2700164,4.241882.508829.2212914.0376025.4060507-.0239352.5887348-.1494937.6428613-.4418321,1.247096-.924597,1.7245556-1.5495599.9264103-1.2126158,1.3817597-2.6632588,2.0198432-4.0498926ZM71.0003818,94.0151087c1.4470048,3.2507694,2.5974016,6.4925067,3.2499147,9.9438664,1.4771499-3.8002039-.2089754-9.0603869-3.2499147-9.9438664ZM43.2417513,81.6138712c-.8991642,3.3521771-.4787493,6.4664503.3238426,9.567341.1306751-1.374387.3705657-2.7219244.8227811-4.0100032.7196255-2.0497534-.2544126-3.6942685-1.1466238-5.5573378ZM43.6787672,77.3508645c.0108107,1.2576487-.1270022,2.3484097-.4510451,3.4098263-.051805.1696982.0726871.2720069.1616595.3858731.8813158,1.1278976,1.5387877,2.3505195,1.6298545,3.8170204.0048201.0775843-.0094401.1994045.1460364.2348163.1656327-.661214.3653066-1.3037327.4815598-1.961012.1494013-.8446566.4969673-1.7742662.2307046-2.541223-.4183513-1.2049891-1.1999764-2.2744906-2.1987697-3.3453011ZM71.650146,96.7418147c-.0833207,1.1556173-.5839224,2.1416287-1.0891055,3.1275709-.1219896.2381119-.255737.466314-.0072302.7414316,1.1465622,1.2693603,2.4007537,2.4465912,3.365421,3.8911012-.5566108-2.6433238-1.2337713-5.2398014-2.2690853-7.7601038ZM43.4254172,71.040861c-.1284421,1.4160435-.2267237,2.8132915-.1119951,4.2113942.0182488.2223887.1021932.453178.2079668.6523668.6637473,1.2500027,1.8202655,2.1559043,2.407776,3.472981-.1869768-2.9819503-1.6719191-5.5528564-2.5037476-8.336742ZM40.6684582,76.9613802c.3683866-.4491124.7441112-.8924653,1.1025187-1.3493931.2308509-.2943135.5999382-.5667593.6119423-.9295326.0465074-1.4059566.0189187-2.8143695.0189187-4.2218584-.054754-.0038885-.1095004-.0077692-.1642544-.01165-.6825274,2.116065-1.4256607,4.2160219-1.5691253,6.5124341ZM27.4778341,47.2209557c-.9607673-.2265428-1.1511706-1.0387982-1.4749093-1.8185869-.237519,1.1941784-1.1863399,1.4142687-2.1235031,1.66035,1.1986597.4519113,2.3617575.7063855,3.5984124.1582369ZM60.5208483,103.0584633c-.9666693-.0078847-1.9337929.0132592-2.9000695-.0077615-1.2630156-.027481-2.4422792-.3604095-3.5165932-1.041728-2.3109343-1.4655539-4.165318-3.3938798-5.6539793-5.6702415-1.3278796-2.0305037-2.4227138-4.1713085-2.8329725-6.6043248-.1173312-.6957866.0452061-1.4220571-.2618199-2.2633257-.0520129,1.0514298.1317454,1.9151052.2228276,2.7857336.2518331,2.4071061.9472809,4.6378304,2.546151,6.5251004,1.3735862,1.6213692,2.815101,3.1760726,4.3600332,4.6355897,1.2333632,1.1651729,2.5996884,2.0722064,4.3465969,2.2106353,1.2789082.1013462,2.56075.1268482,3.8359314-.0672048.2403988-.03659.5039126-.0414871.687309-.3377179-.2857897-.1973486-.5666746-.1625835-.8334147-.1647549ZM51.0640472,79.9995552c-.4865032.4588836-.9534023.9459488-1.6881813,1.0044065-.1803472.0143526-.5151622-.0228379-.4862568.2495309.0296446.2792217.3473736.2301579.5732349.2253762,1.1837989-.0250632,2.6562211-1.2143291,3.0717851-2.5739014-.6526979.2691425-1.049297.6972111-1.4705819,1.0945878ZM62.8810928,102.346915c-.0629929-.3037767-.3352308-.3711894-.5801263-.3538107-.3209475.0227686-.4245805.2885155-.4563734.5743206-.0268496.2413613.1179241.2755257.2987948.2426779.3605558-.0173556.7776366-.2706055.7377049-.4631878Z"/>
  </g>
</svg>