<?xml version="1.0" encoding="UTF-8"?>
<svg id="Layer_2" xmlns="http://www.w3.org/2000/svg" viewBox="0 0 57.7171161 117.9502447">
  <g id="Layer_1-2" data-name="Layer_1">
    <path d="M37.5215755,72.4523032c.0728641-.4384918.2634636-.5956904.7194285-.6104296,1.6923954-.0546778,3.3761136-.2122923,5.0296402-.6077551.4268431-.1021048.8295566-.2574015,1.0990823-.610073.2078349-.271903.4789652-.3635476.7830211-.4469312,1.8076347-.4954874,3.5618396-1.1188138,5.086933-2.2502273.536674-.3981373,1.0234249-.8594511,1.2013653-1.5322252.0886136-.3351984.2735076-.5027976.5722146-.6572028,1.9137214-.9889542,3.5649896-2.2883829,4.7202948-4.1430285.5410126-.8685442.9297595-1.7971151.9579899-2.8379537.0076073-.2778462.1143478-.698746-.1734236-.7864682-.2502696-.0763111-.3769793.3388832-.4885338.5677572-1.5200416,3.1185932-4.1815407,4.9439387-7.203913,6.3455317-.6745571.3127924-1.3182093.6582132-1.9270342,1.0797668-.7354752.5091569-1.4699401,1.0206316-2.22063,1.5067287-.7332762.4748644-1.4666119.9584059-2.3480529,1.1332559-1.6419967.3258675-3.3049136.5039863-4.9636109.7134258-.2702389.0341142-.3980184-.0136694-.3598628-.3287797.0582437-.482234.0754791-.9693415.1148827-1.4539528q.0826704-1.0174223,1.1147724-1.1428839c.2509828-.0303105.5035702-.0469515.754969-.0738744,1.2190168-.1305134,2.4337544-.2893761,3.5947652-.7073043.3220639-.1158931.7455193-.1727104.8631359-.5328704.1803772-.5522453.6138767-.7530078,1.0609862-.9978096.6131635-.3357333,1.2234147-.6870973,1.7915879-1.0924259,1.4417097-1.0285361,2.917177-2.0450669,3.8280371-3.6204994.7982952-1.3809105,1.6512682-2.7266964,2.4788041-4.0889451.7805844-1.2850461,1.4452757-2.6234624,1.7033903-4.1242479.0555692-.3231931.0569956-.6565491.0690009-.9857448.0042791-.1169034-.0427319-.2432566-.167302-.2815904-.1317021-.0405329-.219127.0641275-.2866422.157258-.0910503.12564-.166054.2629287-.2462282.396176-.7820702,1.2991315-1.5366232,2.6158551-2.4781503,3.8116338-2.3988082,3.0466207-5.266062,5.6126715-8.2607389,8.0469013-.5210433.4235743-1.1180412.6901283-1.7874871.8045356-1.1301654.1930957-2.2594988.3930261-3.3834238.6188095-.4424738.0888514-.5593178-.0370263-.5816643-.4849679-.092239-1.8447799-.1374076-3.695087-.4162641-5.5249493-.058838-.3858942.1851912-.414184.4179282-.4863348,1.9174062-.59468,3.6606756-1.526282,5.2120975-2.7906456.869198-.7083741,1.8223145-1.2483763,2.8270776-1.7228841.9491345-.4482387,1.895654-.9084828,2.7313915-1.5545123.4956657-.3832197.9592974-.8047139,1.0926042-1.4626894.0752413-.3715116.0239512-.6652262-.4481199-.6954773-.1143478-.0073102-.3590902.0128968-.2552619-.1896486.3372785-.6580349.2900893-1.4884236.9848533-1.9914589,1.4852736-1.0753094,2.6895512-2.4333384,3.6096233-4.0072256,3.5619585-6.0933602,4.6039263-12.6223595,3.0686701-19.4992163-.8202852-3.6741073-2.4856388-6.9879358-5.0408135-9.7990856-1.6749222-1.8426403-3.67173-3.113066-6.2364733-3.283102-1.0384019-.0688821-1.3680136.3387049-1.0578957,1.3376437.3684805,1.1869827.7083146,2.3865057,1.1539383,3.5446637.3907082,1.0152233.4647015,1.9911023.0672774,3.0039483-.4201867,1.0708519-.4199489,2.1615543-.1454309,3.2664015.1264126.5089786.257342,1.0196212.3358522,1.5370986.1157148.7624575.1742556,1.5303828-.2296466,2.2742974-.2270315-.2489026-.3128518-.5304931-.4222074-.7966311-1.2588364-3.0637966-1.5263414-6.2464579-1.1181601-9.5054898.0372641-.2979938.0454063-.5825558-.0568768-.8613529-.2063491-.562646-.6857898-.6692676-1.0688312-.2137187-.2481895.2950816-.4597092.6296262-.6405023.9714216-1.1323644,2.1411095-1.7596133,4.4365054-2.0193327,6.834541-.218711,2.0192138-.3266996,4.0390814.3372785,6.0084314.1341982.3981967.2360653.7950859.0973502,1.1928071-.0814223.2334502.2112225.6024062-.1425188.6756269-.2559157.0530136-.5622894-.1191024-.805546-.2887223-.110247-.0769054-.2026643-.1790102-.3052445-.2672078-.1120894-.0964587-.1213608-.3588525-.3016786-.304769-.2200185.0659699-.1697388.3195083-.1876873.505056-.0777375.8031092.3795349,1.3522641.8907719,1.8804393.1481648.1530383.3798915.2642362.2215638.5790493-.5554547,1.1051444-.4799756,2.2633619-.1990983,3.4185483.5890934,2.4222839,1.8063272,4.535698,3.2535641,6.532803.342152.47219.6857304.9436073,1.0177194,1.4229885.0783318.1130997.2399284.3669353.0543212.3780491-.6391354.0384527-.718537.6755674-1.1586929,1.0217014-.0328067-.7801683-.7187153-.6500115-1.0974776-.930235-.2153234-.1592787-.3415577-.0993114-.4563215.1099498-.2521714.4598875-.5174774.9127619-.7629924,1.3762153-.4289826.8094685-.4244063.8119052-1.1680238.2950221-.590282-.4102615-.7526512-.3746615-1.0607484.2639985-.3735323.7742845-.5955715,1.6015233-.8006131,2.4311988-.3255704,1.3174367-.6324195,2.6395091-.9783752,4.0902526-.9769488-3.4780995-1.7642491-6.8754898-3.074435-10.1506279.4399182.0701302.8396007.1267692,1.2199677-.0977662.747956-.4415229,1.1998795-1.6292188.9229248-2.457349-.3025106-.904798-1.0970022-1.192926-1.9017755-.6601744-.3352578.2219204-.6236236.5148029-.9760573.8112515-.4080625-1.2316758-.7427854-2.4721477-1.2300117-3.6495024-.5080871-1.227991-.8926738-2.4257904-.4095483-3.7432866.0112327-.0304888-.0137289-.074231-.0395225-.1944626-.6007421,1.1044312-.8322905,2.2854113-1.3032324,3.4171219-.153692-.2513988-.1378236-.4702881-.145847-.6797871-.2300032-5.9633223.2979343-11.8610312,1.7662698-17.6443924,1.6506738-6.5014227,4.7925646-12.1218798,10.1312529-16.3616047.155475-.1233815.3457774-.2284579.4164424-.45543-.2303598-.0341736-.376385.116428-.5389919.2037935-1.4798653.7950859-2.6751685,1.9358302-3.7747857,3.1784416-3.3926358,3.833802-5.5739216,8.3007368-6.8659807,13.2275591-1.2908705,4.9220082-1.7282925,9.9499249-1.8653435,15.0149273-.0139072.5168236-.0018424,1.0343605-.0018424,1.6403326-.2445047-.151077-.3896979-.3186762-.5262734-.3119009-.6692082.0331038-.595096-.4160264-.5886179-.8359753.0315586-2.0631343-.0203259-4.1236536-.1523845-6.1834002-.2377888-3.709113-.5593178-7.4042594-1.4030193-11.0380716-1.4901471-6.4180985-4.8306013-11.4414389-10.8241152-14.4879407-.4018221-.204269-.7829617-.4671976-1.4096163-.5544443.6982111.3952845,1.2578261.7042138,1.8100714,1.0259805,4.6602087,2.7148694,7.8379966,6.5998426,9.3495988,11.8119401.7775533,2.6812306,1.2161046,5.4198135,1.4780229,8.1926294.3441133,3.6433214.6026439,7.2912785.4882961,10.9537371-.0351839,1.1268372-.0789261,2.2611629-.4213753,3.3682091-.3071463-1.3411502-.6549444-2.6565662-1.358029-3.8484224.0511712.5052938.1161308,1.0064867.2463471,1.4901471.1329501.4937639.0725669.9172193-.1441234,1.3895281-.7877163,1.7169409-1.5047675,3.4628848-1.4934159,5.4051337.0003566.0621662.0013669.1596947-.1152393.1434102-.3926695-.9254804-.7089684-1.3695589-1.2061199-1.6680281-.429993-.2581147-.8779345-.3546328-1.3018654-.00838-.534059.436174-.6415127,1.5165351-.2580552,2.3453785.3644985.7878351,1.0545675,1.2020785,1.8141128,1.0731104.211698-.036016.4162641-.1141695.6240396-.1730075-.4766474.5005986-.8568955,1.0038717-1.0033368,1.6929302-.3756124,1.7669235-.8023366,3.5229115-1.2046936,5.2841295-.1081669.4735569-.2042095.9498477-.30257,1.4255441-.0932493.4507943-.1821007.9024801-.2729133,1.3537499-.4696938-2.2819642-1.6490692-4.2187453-2.6726724-6.222685-.1687284-.3304438-.3282448-.4087756-.5911141-.1270069-.1977314.2118763-.3857159.4329646-.6112616.6874539-.2971617-.5616356-.5372684-1.0494563-.8075072-1.5199227-.6968442-1.2133707-1.1842488-1.2074869-1.9196646.0704868-.4002768-.5195575-.7421316-1.0297842-1.3028164-1.2988344-.3595657-.1725321-.2563911-.3446481-.0629983-.5698373.418166-.4869886.8309236-.9790884,1.2322702-1.4799842,1.3596931-1.6968528,2.5334818-3.5008026,3.0661739-5.6426848.3277694-1.3179122.7451033-2.6543078.2799263-4.0118613-.1898269-.5540877-.0925362-.8693763.3423303-1.2250789.4525773-.3701446.8369857-.8306858.7282245-1.5009043-.0222871-.1371698-.0541429-.2948438-.1788319-.3453019-.1510176-.0611559-.2440886.0887919-.3190922.1974342-.2185327.3165367-.4825906.4782521-.824802.2010596-.3225987-.2612646-.8201663-.416383-.55908-1.0404226.18531-.4430087.2900893-.9287492.3690154-1.4056343.7370799-4.450472-.1569014-8.6556668-1.9514015-12.7184616-.1074537-.243316-.2745774-.4759342-.4629779-.6646913-.4312411-.4323109-.7960368-.3454802-.9965615.2272693-.2226336.6360449-.2647116,1.3074521-.1765141,1.9613861.4114501,3.0481659-.4374815,5.8987787-1.3188037,8.747252-.0555098.1793668-.0879599.4604818-.2983504.4514481-.2629881-.0112921-.3359116-.2993013-.3771576-.5273432-.0556287-.3074435-.0473081-.6230292.0273983-.9278577.1108413-.4525773.1858449-.9239352.3694909-1.3467963.5975922-1.3763936.5900443-2.7561154.1112573-4.1505764-.4041399-1.1767604-.312733-2.326063.1094744-3.4785155.3606354-.9841996.7333951-1.9683991,1.0127271-2.976966.3766822-1.359812-.1676586-1.9311945-1.5564736-1.7285302-.0575899.00838-.1139318.0249616-.171284.0356594-1.6313583.3031049-3.0641532,1.0433942-4.2746712,2.1442C3.1251674,14.9143083.8359524,19.7548942.1411884,25.381354c-.3524338,2.8541788-.0031499,5.6730547.5848142,8.4615013,1.0504666,4.9815,2.8510883,9.5460227,7.2519343,12.6098787.3089293.2150856.4130548.939031.2100339,1.2004144-.5508189.7091467-.5548603.9153769.022822,1.6031874,1.2101019,1.4406994,2.7079752,2.4978819,4.4045308,3.2914819.4214347.1971371.8699112.3759096,1.2290608.6602339,1.8428186,1.4593017,3.8537119,2.6237001,6.0174057,3.5296868.2557374.1070971.3348418.2303598.2971617.5235395-.2584118,2.0079217-.426011,4.0245799-.4011683,6.0506284.0060027.4865131-.1426971.4761125-.5287101.3456585-1.4365986-.4856811-2.8544165-1.0170062-4.2396655-1.6335573-.3154669-.1403792-.6205925-.2488432-.9277983-.0002377-.2264967.1832893-.3372785.0138477-.4732597-.1331284-1.387864-1.5004289-2.8121007-2.9686455-4.3339252-4.3307753-1.6966745-1.5186152-3.1693485-3.1992429-4.2989195-5.1851746-.5859435-1.0300813-1.25218-2.0150535-1.9732726-2.958958-.089624-.1173194-.1618937-.3055417-.3490461-.2588278-.2218015.0552721-.1958296.2777868-.1910155.4389078.0099252.3288986.034233.6610659.0946163.9841401.296508,1.5877944,1.1173874,2.9278749,2.026524,4.2234999.8362725,1.1918562,1.7676367,2.3195254,2.3816322,3.6594276.1424593.3108311.3872017.5823775.6162539.844593,1.3521452,1.5488068,2.835517,2.9372057,4.7088838,3.8543062.3391804.166054.7107514.3325834.7984735.7834966.1243325.6389571.5400023.9881815,1.1462716,1.1893006,1.6547747.5491548,3.3648809.7915199,5.0897857.9448554.3788812.0336387.5533745.1273635.5666874.5382193.0225843.6989243.0937842,1.3970166.1643304,2.0935637.0310831.3069086-.0193155.4351636-.3691343.3455396-.3561186-.0911692-.7262632-.1349708-1.0927825-.1774055-1.8920286-.2190676-3.7533307-.5205679-5.4267077-1.5367421-.6112022-.371155-1.2957439-.6171454-1.907481-1.0010784-1.4969224-.9395065-2.7284794-2.319466-4.590138-2.6626878-.516467-.09527-.9591191-.4992911-1.3944016-.8296755-1.8233842-1.3841792-3.1673278-3.1987675-4.513292-5.0129991-.1149421-.1548807-.1803772-.4709419-.4500217-.3562375-.2606108.1109602-.1702142.4013466-.1513147.6296262.0079639.0962804.0338764.1911938.0523005.2865827.6900689,3.5696253,2.9183657,5.8223488,6.1650356,7.2048639.1922042.0817789.3962949.1265315.542855.3135056,1.7114731,2.1840197,4.0322466,3.4004214,6.6394246,4.1554499.2647116.0766677.5619922.133485.6771721.4044965.1807932.4252384.5480851.5372089.9281549.6115588.5523047.1081074,1.1120385.180496,1.6704648.254727,1.0631852.1413301,2.1358201.1128026,3.2042353.1608239.2800452.0125997.4694561.0723886.5352477.3954628.1705114.8374017.3655089,1.6700488.5635969,2.5016261.069417.2914562-.0115893.3864291-.3127924.3563563-.8897616-.0889108-1.7799986-.1862015-2.6724347-.2319644-1.4143114-.0725075-2.574193-.6672469-3.5831759-1.6235727-.2957353-.2803424-.617502-.5348316-.9395065-.7856361-.5628243-.4384918-1.141933-.8215927-1.8895919-.3854187-.079045.0461789-.1872119.0501015-.2831951.0586597-2.2859461.2027237-4.5731404.4148377-6.8699626.2163337-.9782563-.0845128-1.7398224.2971617-2.3940536.9704113-.4810454.4950714-.8407893,1.0732887-1.0706142,1.7209229-.1051952.2963891-.3500565.7014205-.0310831.9128808.3030455.2008219.520449-.2220392.7380308-.4097266,1.1122763-.9593569,2.5360374-1.4661959,3.8586448-1.423464,1.7754818.0574116,3.5638009.2205534,5.3501588.2559751,1.7926577.0356,3.4415486.3811396,4.639764,1.8727131.0840373.1046009.2043878.1793668.3037587.2724379.5280564.4944771,1.15691.7625169,1.8667698.8857202,1.1616645.2015945,2.326895.1185675,3.4931953.0985983.2603137-.0044574.6310526-.2265561.7597831.1821601.1579117.5011929.7194879.9222116.3184385,1.5506492-.2813527.4411068-.4166207.9392093-.2568666,1.4501491.1388339.4439596.0534891.8187399-.1353869,1.2239496-.3791783.8137476-.4842547,1.6743874.0185429,2.4578839.2956165.4607195.2171658.7914011-.0247239,1.2067737-.6727741,1.1553647-.8356187,2.341456-.0548561,3.5177409.2419491.3644391.3110094.7339894.2741614,1.155127-.038631.441404.0593729.866583.373354,1.1899543.252944.2606702.2567477.5294233.1801989.8479806-.3108311,1.2941987-.1241542,2.5239727.5980082,3.6360112.3210535.4943582.3390021.925421.1263532,1.4555575-.4192357,1.045296-.3819122,2.0803697.3861914,2.9603249.4633345.5306119.5742947,1.0555184.4601252,1.7439826-.0747659.4508537-.2048633.4736163-.5710259.4037833-1.5053023-.2872959-3.0163696-.3364465-4.5170362.0211579-1.9584739.4666627-3.7226041,1.2757746-4.8930052,3.0142895-1.1813961,1.755037-.8866117,3.660319.7652508,4.9716342.2887223.2291711.4160264.4533499.418582.8209984.0081422,1.169153.5120096,2.0976051,1.4613818,2.7776299,1.652754,1.1840111,3.4997329,1.55475,5.4815043,1.2206214.4039616-.0682283.6492983.0269823.9320774.2694662,1.0703765.9176354,2.2520697,1.6588755,3.5743799,2.1638127,3.2082767,1.2251383,6.1004327.3826254,8.0151644-2.3657638.2122329-.304769.3702635-.2289334.6169077-.126472,2.5742524,1.0697821,4.8091462.0645435,5.5729706-2.6048007.2287551-.7992461.5618139-1.0811932,1.3745512-1.1588118,1.7570577-.1678369,2.915929-1.7695385,2.6187078-3.4796447-.1182704-.6809758-.4210187-1.2932477-.8376394-1.8419271-.878826-1.1575043-2.0363303-1.9705387-3.3261904-2.5971933-1.8993388-.9226277-3.9262193-1.2124792-6.0150284-1.0972993-.4875829.0269229-.7595453-.0315586-.6427608-.6040109.0598484-.293358.016225-.589866-.1950569-.8231379-.1526817-.1685501-.1261749-.2552025.0439205-.4105586,1.1802074-1.0782215,1.5223-2.6808741.7948481-4.1287648-.2663163-.5300176-.2220392-.8548748.097053-1.3299175.9436073-1.4049211,1.4405805-2.9005954.5068984-4.5298736-.1031745-.18008-.0093309-.2754095.0716754-.4110341,1.0299625-1.725202,1.0564693-3.4564661-.0052895-5.176973-.1478677-.2395718-.2004653-.418582-.0321529-.6775881.6172643-.9494911.5123068-1.8756847-.0179486-2.8563183-.4653552-.8603426-.0665642-1.8438884-.1916693-2.7643171-.0061215-.044812.0687632-.0950917.0845722-.1491752.2948438-1.0047632.9440827-1.3463208,1.9510449-1.0783404.2397501.0638303.5030353.0394631.7555039.0549155,2.0312786.1246891,3.9104698-.1952947,5.41809-1.7369696.9682123-.9900239,2.1516885-1.2761907,3.5280226-1.0725755,1.2867696.1903618,2.6146664.33817,3.8917486.0266851,1.7070157-.416383,3.1881291-.033401,4.5672566.9603078.4574507.3295523.9014698.6777664,1.3556517,1.011895.1595758.1173194.3400719.2264372.5309685.0757168.181863-.1435885.0656133-.3268184.0124808-.4825906-.2458122-.7204983-.5994346-1.3876263-.9904994-2.0406689-.551235-.920607-1.3571969-1.3838226-2.4127153-1.3614166-2.5569576.0542617-5.0696381-.4893065-7.6203554-.5429144-.5925999-.0124808-1.1100178.065019-1.6214926.3192705-.717705.3568318-1.3752644.8114892-1.9958569,1.3108397-1.651387,1.3287883-3.5538163,1.2851649-5.4993934,1.0606296-.3508885-.0405329-.3760879-.1863798-.286761-.5011335.1695605-.5970573.3044719-1.2068331.4061606-1.8192834ZM53.9818973,63.1017535c1.1484706-.9134157,2.1137707-1.9941928,2.9938448-3.2893424-.2194836,2.2395889-3.8244712,5.3265047-6.6055481,5.7090707,1.1966702-.816957,2.4739901-1.5148115,3.6117034-2.4197283ZM48.9746037,66.0824043c.256926-.1729481.439205-.2641173.6707534.0336387.3712144.4773606.8517843.1289682,1.4628676.0774403-1.9540165,2.1230421-4.4425081,2.7833948-6.8954591,3.5144126,1.5237264-1.306204,3.107836-2.5119673,4.7618381-3.6254917ZM54.5272485,52.0451985c-.6400269,2.1159102-2.0078622,3.7126789-3.6294142,5.1290111,1.412053-1.5684789,2.5470324-3.3310639,3.6294142-5.1290111ZM45.0912351,62.5102234c1.4167482-1.2982995,2.814894-2.6168654,4.218567-3.9294881.2834923-.2651277.5441625-.5071362,1.004882-.4596497.2524686.0260314.5281158-.1738396.8060214-.2765981.0941408.3545139-.0789856.6332516-.2453367.8790638-1.5148115,2.2381625-3.6276313,3.7204051-6.0802851,4.8215676-.090872-.4412257-.0160467-.7487881.2961514-1.0348954ZM38.6431232,64.5087548c1.3536904-.2437915,2.7042904-.507255,4.0497197-.7930652.4160264-.0883165.7445684-.1299785.9381395.3526715.0893268.222693.5644289.2056359.4839576.49941-.0885542.3231931-.4888904.3457774-.7763052.4221479-1.5426259.4100832-3.1285184.5473719-4.7098348.7071854-.5767909.0583031-.2757661-.4208404-.3505914-.5565839-.1076914-.4261893.0159873-.5690052.3649146-.6317658ZM38.4596556,69.9408113c1.5860709-.1274824,3.1556196-.3787623,4.7248117-.6330139.1109007-.018008.2232279-.0270417.3783463-.0454063-.1243325.3822688-.2673267.7035601-.0661482,1.0871364.1568419.2991824-.1886977.2562723-.3447076.2891978-1.3321759.281115-2.6896106.3496999-4.0415775.4630968-.1931551.016225-.3873206.0209202-.5808917.0326878-.3125547.0190183-.6946452.1849534-.7319687-.3596251-.0418404-.6098353.1005001-.7889049.6621357-.8340735ZM23.4227383,40.7486556c-.6005044-.5391702-1.1520365-.9807525-1.0893948-1.8179165.8282491.2320239,1.2118254.8407299,1.0893948,1.8179165ZM3.190959,50.9080201c1.0181354,1.2784491,1.7646056,2.7271124,2.5472107,4.1559848-1.0145101-1.2812424-2.1342748-2.5018044-2.5472107-4.1559848ZM6.6386885,56.3383531c2.4634705,1.9196052,4.678395,4.1051701,6.7578732,6.4334321-3.1502113-1.1881119-5.351704-3.3855039-6.7578732-6.4334321ZM19.3711167,65.3626192c-1.4245338-.1883411-2.8633313-.288544-4.2527406-.6888803-.2971023-.0855826-.596463-.1834082-.8712187-.3221827-.5688269-.2873554-.5802974-.4718334-.0788073-.827001.1355652-.0959832.2439698-.2181167.2619183-.3706201.0660888-.5606847.3573072-.445386.7207954-.2869393,1.3541065.5904009,2.7559965,1.0540326,4.159313,1.5093437.3252732.1055518.5243121.2358275.4356391.5911141.0621662.3246789-.0564013.4373032-.3748992.3951656ZM7.2443041,65.0254001c-.0585409.1252239-.2007624.1018076-.3121387.09004-.153692-.0162845-.3121387-.0354217-.4564404-.0871278-2.7846429-.9976313-4.5960813-2.9217533-5.3810636-5.7749217.4257139.5278781.8611152,1.0482676,1.2751209,1.5852388.9966804,1.2928317,2.1753426,2.3725985,3.6059979,3.1738059.3881526.2173441.7484909.4855028,1.1153073.7393978.087841.0608587.2164526.1384774.1532166.2735671ZM4.7551588,73.2642084c-.4558461.1611805-.9225682.2934769-1.3891715.4217319-.4652364.127839-.8681876.3980778-1.4229291.6390165.5757805-1.205169,1.6453249-1.8546456,2.7060139-1.7223493.2593033.0323312.6492983.002199.6882859.2779056.0340547.2407604-.3558809.3036993-.5821992.3836952ZM6.2401352,73.0307582c.8124401-.2585901,1.6558445-.1251645,2.4786258-.2475951.6143521-.0913475,1.2526555-.0498043,1.8561315-.1798423.9985822-.2152639,1.7104628.2198402,2.442907.9411706-2.3031221-.2902676-4.5463958-.2657814-6.7776642-.5137332ZM56.5393898,75.3637153c-1.2220478-.9928173-2.4764268-1.6756949-3.9505272-1.9090857,2.2072577-.5783955,3.5297462.101035,3.9505272,1.9090857ZM47.6988291,72.7108933c1.1309975.1649842,2.2836283.1945815,3.4133182.396592.216096.0386905.5264517.0068347.4977459.4132331-.0277549.393977-.3283637.2782622-.5177151.2993013-1.8185702.2027831-3.6279878.0209796-5.4844165-.0951512.5554547-.752354,1.1409821-1.152512,2.0910675-1.0139752ZM43.2094289,16.624474c.09842.7653697.0231786,1.5329384.046595,2.3015769.0662671,2.1774821.5865972,4.2595159,1.1932825,6.3321594.0792827.2710709.4053286.7174078-.0388688.8531513-.3344852.1022236-.3909459-.408003-.4856217-.6740222-1.0219391-2.8709387-1.3143462-5.8077284-.7153871-8.8128653ZM41.1411834,23.1936495c.1689067-2.538177.7522946-4.9815,1.7867739-7.3111289.0613936-.1383585.1404981-.2688719.2114008-.4030701-.3800104,1.4875915-.5417852,2.9608004-.5233612,4.4642603.0248427,2.0234335.4049125,3.9723983,1.1645767,5.8432689.1687878.4157292.1602296.6544095-.3026295.8372234-.5409532.2135998-1.0463658.515635-1.4951988.8907719-.2826008.2362436-.3941553.1699765-.4878801-.1628446-.3844678-1.3648637-.4468718-2.759087-.3536819-4.1584809ZM43.775403,40.7875244c-1.3053125-1.9896759-2.4838558-4.0422313-2.9358388-6.4241606-.1134563-.5978894-.0713782-1.2023163-.0737555-1.8041876-.0021396-.5440437.4123416-.6410967.8951699-.7149116-.5331675-.6527454-1.1584552-1.1023511-1.6386091-1.8445421.9197155.2959136,1.7360781.2256052,2.5415646.02199.0275766-.1517902-.0736367-.1900646-.1426971-.2467036-.7898558-.6475154-.7815353-1.144548.094022-1.6610745.7011828-.4136491,1.4443248-.7574058,2.175818-1.1179223,2.0362114-1.0035745,2.5859012-2.1225072,2.1121065-4.3353516-.1057896-.4938233-.2185922-.9862203-.3367436-1.4772503-.2282796-.9492534-.222277-1.8906022.1066216-2.8154289.426427-1.1993446.3110689-2.3340269-.1952352-3.5069242-.506423-1.1730756-.846376-2.4176482-1.2702474-3.6269775-.159457-.455014.0449309-.5471936.4452077-.5209245,2.2490981.1475705,4.1120048,1.1154856,5.6236664,2.7404253,2.1682701,2.3306393,3.7040612,5.0462812,4.561135,8.1084732,2.0099424,7.1809721,1.1359303,14.0467744-2.4124182,20.5800529-.6334299,1.166122-1.5089871,2.1697559-2.4370826,3.1178801-.1821007.1859638-.3646768.4891876-.6714666.0903966-.0717943-.0931899-.3340098-.0703679-.5036297-.0527759-1.2390455.1283739-2.2326353-.3942742-3.1228129-1.1747397-1.1052633-.9690443-2.0124979-2.1123443-2.8147751-3.335343ZM45.6989308,45.3724918c-.1951164-.480451-.3872611-.9535325-.6001478-1.4776663.8482184.6753891.9819411,1.0157581.6001478,1.4776663ZM37.8098818,51.5061471c.5509972-1.5711534.6671875-3.2711561,1.200771-4.8597826.0912881-.2719624.190659-.5411909.3111877-.8822137.3180819.290743.5479662.5289478.8061997.7307801.4909706.3838141.8479212.2994201,1.1058576-.2681587.2404633-.5291856.379-1.1030643.6938132-1.6006912.08166-.1290276.1519091-.315764.3208158-.2948438.1615371.0199693.2259618.2031397.2641173.3544545.0807686.3198649.1487592.6429985.2194242.9653001.0292407.1330096.0329255.3114255.1715217.3486301.1888165.0506364.2430783-.1540486.3261053-.2724379.3435784-.4897225.6785985-.9853882,1.062472-1.5455975.462027.8345489.7007073,1.7099873,1.3270053,2.3645157.0555098-.0356.1088206-.0609181.1513147-.09842.3158235-.2791537.4522801-.846376.870981-.8750818.3614081-.0247833.7432014.2847998,1.1200025.43659.2338068.0941408.4696344.2155611.7140201.2443264.5489171.0646624.6432957.3042936.4762908.8123807-.2251297.6847794-.4838981,1.351016-.7823079,2.0058415-.1056113.2317267-.2809367.3606354-.4782521.4869292-1.5062533.9641709-3.0232043,1.9100366-4.60773,2.7430403-.3595062.1889948-.7061156.4025947-1.1422302.652686.314932.0445743.4830661-.0847505.6608876-.159873,1.6323093-.6897718,3.1664363-1.5703213,4.7088244-2.4342893.5622299-.314932,1.1422896-.5847548,1.7747686-.7196068.1627852-.0347085.3819717-.0876627.4791435.0971719.1007378.1917882-.0895051.3182008-.2099745.4291609-.5369712.4945365-1.1887063.8046545-1.8437101,1.101935-1.9149695.8691386-3.7665841,1.8356273-5.4527985,3.1168697-1.1932825.9066998-2.5218925,1.6032468-3.9288938,2.143784-.3381106.1298597-.4186414.0445743-.4957252-.2770736-.3838141-1.6015233-.3834575-3.1508056.176098-4.7463262ZM33.735557,40.7317174c.2031397-.5891528.5937291-1.0319237,1.1028265-1.3753238.0561041-.037799.1511959-.0534297.2151451-.0347679.0837402.0244267.104066.1258777.0596701.1920259-.3437567.5123068-.6932188,1.0207505-1.0473167,1.5259254-.0257342.0366698-.1017482.0381556-.1411518.0515278-.2208506-.0525382-.2469414-.1918476-.1891731-.3593874ZM30.9622063,34.7317254c.639492,1.867483,1.1420519,3.6550296,1.5985517,5.5738621-.5104644-.3022135-.8896427-.6050212-1.3522641-.7528889-.0723886-.0231192-.1280767-.135684-.1676586-.218295-.6731901-1.404624-.7213898-3.0479282-.078629-4.6026782ZM15.1797103,14.7410036c1.3270647,3.9365011,2.158226,7.9245895,1.2679296,12.2023512-.7606745-.6952395-1.5282432-1.2651363-2.40909-1.6699299-.2572232-.1182704-.0515873-.3558809.0010103-.5167642.5451134-1.6673743.9837241-3.3581056,1.1134649-5.1137964.1205882-1.6312395.0859986-3.2630138.0266851-4.9018606ZM13.2412651,23.9831487c.9511552-2.7185542,1.5266386-5.5005821,1.4669685-8.3942239-.0083205-.4034862-.0358377-.8064969-.0543806-1.2098047.2764793,1.4475341.3529687,2.9102829.2891978,4.3781429-.0807091,1.8588059-.425179,3.6641227-1.1641607,5.3800533-.130038.3019163-.2387991.8062591-.6336676.675508-.2394529-.0793422.0007132-.5571782.0960427-.8296755ZM8.1762032,45.4137973c-1.1311163-.7968094-2.0015624-1.6959613-2.7838109-2.6820033-1.9401094-2.4454031-2.9430895-5.3061194-3.6838542-8.2908116-1.0933768-4.4053034-1.2539035-8.8076947.0762517-13.183698,1.1554241-3.800936,3.0324164-7.1882823,6.0556207-9.8499002,1.0508827-.9250644,2.2656797-1.5646158,3.6382102-1.8835298.1131592-.0262691.2271504-.0528948.3423303-.0666237,1.047911-.1250456,1.2717332.1551778.9370103,1.1660031-.3661032,1.1056793-.8728234,2.1592958-1.1949467,3.2822105-.3132679,1.092307-.3806047,2.1881799-.0326878,3.2737711.4334995,1.352799.4104397,2.6728507-.1302757,3.9877912-.1104253.2683965-.1908967.5507595-.2651871.8319933-.4696344,1.7781562.0862363,2.9704879,1.7575926,3.76177.9114544.4314788,1.8457902.8067346,2.6601322,1.4331515.4160858.3201026.5070173.5824369.2638796,1.0550429-.3721653.7234105-.3428057.7400515.4671382.9099686.2281608.0479025.4590554.0826704.6877511.1284333.2056359.0410677.4291015-.0077856.6846606.1592787-.4886527.6925056-1.0482676,1.2720898-1.7563446,1.7312047.2073.1722349.3404285.0653161.4736758.0187806.6431768-.2249514.7816542-.1538703.7957991.5488577.0285275,1.416035-.2937741,2.7781054-.7603179,4.10309-.7511654,2.1333833-2.1341559,3.8682134-3.6003518,5.5372518-.6967848.7931246-1.379068,1.581138-1.7230624,2.601413-.1166063.3458962-.3130896.4219696-.6681978.2813527-.4781332-.1892326-.9866957-.2170469-1.4850359-.0411272-.5023221.1772867-.832766.4927535-.7559794,1.186329ZM13.5077597,69.334542c-1.9893193-.5739976-3.7459016-1.592549-5.3445127-2.8893033-.4683268-.3798915-.4354013-.6672469.0341142-1.0371538.2017728-.1589815.3290174.0286464.4537065.1105442.8605803.5652016,1.7071346,1.1517988,2.5664074,1.7191399.7149711.4721305,1.4880075.8368074,2.2625892,1.2001767.4487142.2105688.88679.4582828,1.1444886.9624473-.4187008.1547618-.7781476.0318557-1.1167931-.065851ZM19.7892827,70.8442424c-1.6419373-.094022-3.2860142-.1684313-4.931458-.4765285.0843939-.3861914.3865479-.6973197.2531818-1.1207751-.0692387-.2197214.132653-.1770489.2618589-.1611211,1.4798653.1823979,2.9616919.3514829,4.4382884.5578914.531444.0742904.3510668.5613979.4004551.8911285.0484968.3240251-.202902.3218856-.4223262.3094048ZM20.3498485,55.7095589c-.0523005.3071463-.1331879.3441133-.4031296.2251297-.9961455-.4390861-1.9964512-.8662858-2.896554-1.4920489-1.5184369-1.0556967-3.1018928-1.9992445-4.763205-2.8165581-1.4273865-.7022525-2.603196-1.7204474-3.5299839-3.0399643,1.220978.7410024,2.4322091,1.4986459,3.6656085,2.2182527,1.2196705.7116429,2.4814785,1.3398427,3.8755235,1.6682658-.6739628-.3674107-1.3519669-.7275707-2.0210562-1.1035397-1.5768589-.8862551-3.1141358-1.835865-4.5944766-2.8775951-.2748746-.1935117-.4242281-.4129359-.4730814-.7513437-.0973502-.6734873-.245515-1.3401993-.1584466-2.0267617.0656133-.5172991.3252732-.7532455.8742497-.6556576.712356.1267098,1.3977298.3406662,2.065155.6059127.3261647.1296219.4417012.0508147.4979242-.27535.1148233-.6658205.2536572-1.3274808.3974835-2.0676512.7872408.5983648,1.1280258,1.4093785,1.5608121,2.2177772.4525773-.4986373.6107267-1.1573854,1.0425621-1.7200908.2606108.6038326.4924564,1.1526903.7346432,1.6969716.1186864.2666135.2332719.5168831.6122125.5272837.3447076.0094497.3832197.3467877.4513292.6009798.1836459.6844823.1175572,1.3905385.1765141,2.0940985.3643203-.9290464.3504131-1.9336907.5602687-3.0186875,1.0043471,1.9913995,1.8502477,3.8960277,2.342288,5.9830538.325927,1.3825151.2110442,2.6709489-.0166411,4.0075228ZM21.3637643,76.4748624c-1.047495.0584814-2.0959409.1456092-3.1423068-.0087366-.74754-.1103064-1.4165699-.3812585-1.9629908-.9321963-.3543951-.3571884-.744925-.678539-1.1192893-1.0159364.0407706-.0568173.0814223-.1135158.1221929-.1702737,1.7298377,1.0727538,3.6995444.8696735,5.5883042,1.0912372.4849085.0569362.7852201.371571.7855767.8508334.0002377.2376105-.1535137.1785348-.2714869.1850723ZM22.8949791,90.2125292c-1.0301408-2.0754962-.8240294-4.5086563.4608384-5.7419962.2089641,1.9728566-.6917925,3.8136545-.4608384,5.7419962ZM23.1499439,80.9990899c.3467283-.5644884.8492287-.9729074,1.4364797-1.244751,2.5563039-1.1836545,5.1699005-1.4910386,7.8456634-.4102615.7837937.3165961,1.4784389.7736308,2.0171337,1.4430767.7100976.8825108.8958831,1.8567852.5389325,2.9700718-.536674-.3940959-1.0219985-.8150551-1.5654479-1.1384859-2.7423271-1.6322498-5.6271729-1.7164655-8.5838131-.6914953-.851606.2952004-1.4462266.9537108-2.0665814,1.7626444-.2095584-1.0303191-.1158931-1.8871551.3776331-2.6907993ZM23.4808631,78.6050364c1.504292-1.5483314,3.4173596-2.139802,5.4938662-2.3693892,1.4709504-.1626663,2.8721868-.0163439,4.1291808.837996,1.1096018.754137,1.8074564,1.7347706,1.6822919,3.1449812-4.002471-2.8848458-7.9861614-2.7684773-11.9942785-.0162845-.0780941-.6325384.2440292-1.1394368.6889397-1.5973036ZM26.3387267,100.0687887c-.0969936-.3727596.0369669-.5194981.3422114-.661482.8854825-.4118661,1.7943812-.4398588,2.7302623-.2334502,1.4571621.3214101,2.7790563.9620313,4.0699267,1.6860955.2536572.142281.31933.3119009.2538355.5661525-.1063839.4128765-.1896486.8340735-.3293146,1.2355389-.6107267,1.7552153-1.6099627,2.4391627-3.4681743,2.4004128-2.344071-.0487345-2.5612962-.2271504-3.0466207-2.493781-.1786536-.8344895-.3372785-1.6743279-.5521265-2.4994865ZM26.50799,104.3586151c-1.7143259-1.0103498-2.0381727-3.0783576-.6726552-4.2614177.3058388,1.4053371.4569158,2.802116.6726552,4.2614177ZM32.0561179,99.5474482c-.7320876-.3105934-1.4689297-.6015742-2.2377465-.8179079-1.166122-.3281854-2.2989618-.3250949-3.4015506.2156205-.2456933.1205288-.4312411.1901835-.4447916-.1993361-.0383339-1.1052038-.2157394-2.2039889-.1501261-3.3144228.0401168-.677707.3085727-1.2182441.9757007-1.4477124,1.3867348-.4769445,2.7979558-.6300423,4.2290865-.1884005,1.0511798.3244412,1.6894832,1.0520713,2.023909,2.0795971.2852158.8761516.3958788,1.7779779.4325486,2.9912297q.02722,1.2978835-1.4270299.6813324ZM33.3052669,94.6641305c-.0150364-.0121836-.0274577-.0274577-.0414838-.0408895-2.0806668-1.9997794-4.6395263-2.3529858-7.2470608-1.0005435-.5631809.29211-.5409532.2883063-.6508436-.357545-.2083104-1.2246034-.4187603-2.4500983-.6811541-3.6637661-.1191024-.5505218.0235352-.8845315.4678514-1.226743,3.2001939-2.4650158,7.9413495-.8580841,8.7821982,2.9988965.1204099.5523047.1277795,1.1185167.1223118,1.8689688-.0166411.2605514-.0367292.7073637-.0778564,1.1521554-.0172354.186261-.0033282.4348664-.1882817.5180123-.2044473.0918824-.3390021-.1293248-.4856811-.2485461ZM33.3252956,88.8264482c-.7867059-1.0424433-1.8188079-1.7531352-3.089828-2.0598061-2.2534367-.5436276-4.2651025-.0133128-6.041773,1.4550226-.1321775.1092366-.2527063.2325588-.3933232.3630127-.2689908-1.7046978,2.0053661-3.6364272,4.7568457-3.9896931-2.0450669-.3511263-3.4715619.4661279-4.6075517,1.9645955l-.1463819-.0600861c0-.8820354-.0001783-1.7640113.0001189-2.6461061.0000594-.2502102.2004059-.3661032.3543356-.5052938.8905936-.8053082,1.9928853-1.0856506,3.1391568-1.2609166,1.4512189-.2219204,2.8624993-.0019613,4.2633196.3613486.5732844.1486997.9894891.4751616,1.3103643.983843.9650029,1.5295507,1.4539528,3.2066125,1.6059807,4.9907714.0221683.2603731.1534543.6689704-.1759792.7600208-.3354956.0927145-.7115834-.0072507-.9752847-.3567129ZM24.0540881,89.6239113c.290743,1.8698603.4082408,3.7470903.0982417,5.6323436-1.001435-1.8514957-.983843-3.7287257-.0982417-5.6323436ZM25.2505205,95.2647537c-.1097121,1.4430172-.1977908,2.7778676.0415432,4.1103407.0462978.2579364-.1526817.5124256-.3796538.6088843-.261324.111079-.3420331-.1903618-.4487736-.35178-.9014698-1.3626647-.609657-3.1383842.7868842-4.367445ZM15.0448583,109.088122c-.930651-1.2042181-.6351534-3.0913138.6714072-4.316571,1.2534875-1.1754528,2.7859504-1.73798,4.4422109-2.0261674,1.1928071-.2076566,2.3873972-.2879497,3.6005301-.1506016.4083596.0462384.6820455.1394877.8665235.5212216.1476299.3054822.364142.5776824.5890934.9247672-.5619922.0577682-1.0423244.0865335-1.5158813.1593975-1.8411545.2832545-3.3336789,1.2358361-4.6602087,2.4836775-.8082798.7603774-1.5441711,1.5906472-2.2605685,2.4380335-.644722.7625169-1.1264806.7511059-1.7331065-.0337576ZM25.1782508,104.5490363c-.7942538.3298495-1.6217897.5805351-2.3896556.9781375-.7775533.4025947-1.50869.8747252-2.2129632,1.3907168-.7162786.5246687-1.4264951,1.0575391-2.139386,1.5869624-.0335198-.0425536-.0670397-.085226-.1005595-.1277795,1.7457062-2.2117152,3.9452377-3.6325047,6.8425643-3.8280371ZM22.6670561,113.781494c-.024189.4024758-.114645.5167048-.5127822.5444002-1.7834457.1237381-3.4517115-.1653408-4.86947-1.3273619-.6146493-.5036297-1.0611645-1.1388425-1.0443451-1.9939551.0042791-.2183544.020207-.4331429.254727-.5436871,2.1530554-1.0158176,3.8277994-2.7139184,5.763273-4.0399728.9373669-.6422259,1.9562749-1.1101961,3.0575562-1.3938073.1651625-.0425536.3369814-.0591946.5989591-.10365-2.5924387,2.4847473-3.0537526,5.6281239-3.247918,8.8580339ZM23.3612853,112.7221719c-.0091526.0304294-.0401168.05444-.1691444.2221581.0684661-1.902667.5373872-3.5502503,1.2036238-5.1513576.2540733-.6106079.5572376-1.1945901.9527004-1.7292434.2533006-.3424492.6019308-.5433305.9781969-.7080769.1308106-.0572928.274102-.0523005.3826848.0506364.1180326.1119705.0204447.2102716-.0492694.2994201-1.6331413,2.0880959-2.5467947,4.5141241-3.2987921,7.0164634ZM32.2231228,116.6237863c-.7900935.366341-1.6220869.5271649-2.4450465.5148029-2.4185397-.0111733-4.3153229-1.1409821-6.0796908-2.5804334-.1481054-.1208854-.2083698-.2391557-.1273041-.4489519.8258718-2.1358795,1.3446567-4.3828974,2.338306-6.4586314.2946655-.6157191.6466239-1.1932825,1.0559938-1.741011.1945221-.2601948.389995-.3209346.693516-.2272693,1.430061.4417012,2.8568532.5660336,4.2642111-.0980634.358793-.1693822.495428.1179138.6300423.3435189.5716797.9580493.9258964,2.008932,1.2577666,3.0651636.3672919,1.169153.6598179,2.358513.774344,3.5818683.1756226,1.8746149-.6356289,3.2485718-2.3621384,4.0490066ZM35.4543404,113.9461216c-.1068593-3.1489632-1.148114-5.9580922-2.830287-8.5732341,1.7353649.6293885,2.504776,2.0491083,2.9983022,3.6539003.5064824,1.646989.6997564,3.3096682-.1680152,4.9193338ZM36.2956646,114.4459475c-.1472733-.0420781-.4096077-.0413649-.227923-.3192705.7227567-1.1052038.6720609-2.3194066.4985185-3.5471599-.2124706-1.5032816-.7158626-2.893523-1.6298131-4.1228215-.4195923-.5643695-1.0195024-.9229843-1.5348402-1.3944016,1.933869.2599571,3.8357039.5596149,5.2184567,2.1541846.8456034.9751659,1.5151087,2.0630154,2.1458641,3.1797491.0465355.0824921.1035906.1807932.0977068.2678021-.1773461,2.6015913-1.7965802,4.5758148-4.5679698,3.7819176ZM43.2746856,110.1647983c-.8010885.4669005-1.4837878.385597-2.0236118-.3075029-.4648203-.5968196-.857787-1.2490301-1.3079275-1.8580927-.9587625-1.2966948-2.0390642-2.447305-3.6294737-2.986594-.709325-.2405821-1.4510406-.2517554-2.176234-.3775142-.241533-.0418404-.4959035-.0507552-.7892021-.3489867,2.1518668-.4592931,4.1745277-.5634186,6.1671752.2329748,1.6592321.6632649,2.9757179,1.7370885,3.8945419,3.2787634.1284927.2155017.2435537.4445539.3259864.6809758.271903.7793957.1070376,1.3547008-.4612544,1.6859767ZM34.3151412,102.8470129c3.4922444-.3145754,6.7179941.2482489,9.2689491,2.9042208.7128909.7423099,1.2527149,1.6025337,1.0380453,2.7234276-.0181863.0952106-.0313208.1920853-.0582437.2847998-.0213362.0734584-.060205.1416867-.069417.1627258-2.0627777-4.5824712-5.7143602-6.1432834-10.5965487-5.4261133.0742904-.33294.036016-.6147087.417215-.6490606ZM34.0490032,99.5045381c.0091526-1.296576.0595512-2.585604-.4697532-3.9031596.7020148.2114603.9839618.6620763,1.0876713,1.1954815.189292.9741555.0375018,1.8972586-.6179181,2.707678ZM34.5712946,94.3559738c.2632853-1.5146927.108048-2.9783924-.4970327-4.423252,1.5406646.3413794,1.8158363,2.8928692.4970327,4.423252ZM35.3037388,89.0790356c-.078213.1569014-.1491752.3496999-.3588525.3214101-.1799611-.0242484-.1431131-.2082509-.1328907-.3354956.1583278-1.9772546-.3012031-3.8062254-1.3174961-5.520373,2.0302088,1.0732292,2.8087725,3.5277849,1.8092393,5.5344585ZM37.5517077,75.3313841c1.4813511.2571043,2.9419009.1591004,4.3870577-.2508045.1743745-.0494477.3790595-.2634636.5561679.0397008.1751471.2998956-.0045169.4709419-.1901835.6494172-.5310874.5105832-1.2011871.7114646-1.9030236.797166-.597295.0729235-1.2022568.0825515-1.7112948.1144073-.6379468-.0363726-1.1815744-.0877816-1.725618-.0922984-.487048-.0040414-.5359014-.2092018-.4044371-.6224943.243732-.7663206.225724-.7679847.9913315-.635094ZM34.896865,77.6823493c-.1468573.0352434-.2135998-.0784507-.2820659-.1571985-1.691801-1.9477167-3.8897279-2.268057-6.2761741-1.9285795-1.2191951.173483-2.3790766.5734627-3.4868955,1.1082943-.3486895.1683124-.4795001.1460847-.5852897-.2726756-.9500854-3.7609974-1.5707373-7.5725123-1.8300407-11.4429247-.0375612-.5603875-.0822544-1.1202996-.1240947-1.6878785-.1692633.0147987-.137051.1308106-.1389528.2047444-.1084046,4.24757.2700606,8.4309531,1.6919199,12.4693807.4015249,1.1403878.4226828,1.1329587-.6733684,1.8766356-.6800843-1.454666-1.0598569-2.997173-1.4331515-4.5405714-1.3061446-5.4002603-1.3883395-10.8571595-.7574058-16.3484702.5224103-4.5460987,1.4591828-9.0119042,2.569379-13.4452597.1015699-.4056257.2947844-.7191313.6125097-1.015461.6547067-.6108456,1.1882902-1.3360985,1.6545964-2.1034294.1144073-.1881628.3407256-.4079436.1496506-.6261791-.1715217-.195889-.4329052-.0864741-.6527454.0028528-.105433.0428507-.2116386.0837996-.3983156.1576146.239334-1.866651.7915794-3.526418,1.4808162-5.2500747.407171,1.0723377.421197,2.0502969.2130055,3.0572591-.623267,3.0149432-.8526758,6.0814738-1.1500752,9.1380791-.1336039,1.3737191-.2269127,2.7513608-.3384672,4.1271006l.1428159.0185429c.242484-1.9330963.4712985-3.8680945.7312555-5.798873.2672078-1.9840893.541072-3.9678814.8561823-5.9448388.3107123-1.9493808.6670686-3.8929372,1.6957236-5.7156083.4455048.6889397.6409184,1.3813265.8482184,2.0612325.2660192.8728234.5049372,1.7555719.7134258,2.6439071.3605166,1.5365638.8241483,3.0369926,1.4736843,4.4762062,1.2663843,2.8058008,2.0976051,5.7646994,3.0642127,8.6760521.0587192.1768706.0774998.3725219.2776679.4945365-.932018-3.6901541-1.1724812-7.5707888-3.1667334-11.0476996.5675194.0941408.9631605.2289334,1.2156885.7313744,1.1351577,2.2583695,1.726985,4.693372,2.4067127,7.1056119,1.799433,6.3856485,2.171004,12.9044848,1.84163,19.483229-.1655191,3.3050325-.8122024,6.5150921-2.3453191,9.4930685ZM35.6762607,53.039977c-.2399878.9096714-.6844823,1.7112354-1.2099236,2.4597857-.3020352.4302902-.3666975.850774-.3195677,1.3595742.4133519,4.4626556.4569158,8.9272131.0106384,13.3916517-.1073942,1.0738235-.1990389,2.1491923-.3628939,3.2218272-.2517554-5.6211703.0217522-11.2487592-.2372539-16.9883187-1.3853679,1.2530121-2.7387017,2.2882046-4.6506401,1.6088929.0307265-.1412112.1289682-.157258.2256646-.1664106,1.5899934-.1501261,2.8764065-.8873249,3.934837-2.0513667.6538152-.7190125,1.2904544-1.4537151,1.9355331-2.1808103.2059925-.2321427.4142434-.4623242.6736062-.6548255ZM28.1007173,58.0717568c-1.8473949-.0285275-4.8924109-2.8103771-5.3709007-4.8990673,1.2512291,2.1882394,2.9854648,3.8485413,5.3709007,4.8990673ZM3.5712665,34.4956601c.8146391,3.3206038,2.5889917,6.157666,4.4260453,8.971728-4.5679103-3.7120252-7.2294689-11.7170267-5.296432-18.9645035-.1196373,3.3658318.0628794,6.7014125.8703866,9.9927756ZM50.1348419,43.7724543c4.5612539-5.7507922,5.2772353-12.3960412,4.5707036-19.3818969.3682428,1.2162234.5615762,2.4575867.7137824,3.7054282.3566535,2.9231797.2939524,5.8184262-.6362826,8.646633-.9065809,2.7562937-2.5135126,5.0562064-4.6482034,7.0298356Z"/>
  </g>
</svg>