<?xml version="1.0" encoding="UTF-8"?>
<svg id="Layer_2" xmlns="http://www.w3.org/2000/svg" viewBox="0 0 83.4274372 100.3166453">
  <g id="Layer_1-2" data-name="Layer_1">
    <path d="M82.8831354,31.2242278c-.5820508-2.5445788-1.8305388-4.7566222-3.7637422-6.5429748-.3144851-.2906268-.6942814-.7648313-1.1441152-.5096218-.4308155.2443907-.2237781.8048039-.1992935,1.2425662.1320461,2.3575846-.2835092,4.5616562-1.794666,6.4666739-1.06622,1.344035-2.4051872,2.3830941-3.7592439,3.4068931-.6761173.5112162-1.3574731,1.0154855-2.0380318,1.5240824-.1192914-.1692286-.0374672-.2722918-.0019929-.369547,1.1706497-3.2055497,2.4282483-6.3742017,4.0233931-9.3982236.2433658-.4613359.4887814-.9218746.7231505-1.3878796.0753899-.1499826.1352918-.3298022.0164559-.4775071-.1363737-.1694564-.3350408-.1382527-.5173658-.0776675-.5512457.1834639-1.0786331.4260325-1.5506739.762212-4.1999671,2.9915655-7.0545326,6.9048917-8.1607821,11.9984906-.0921875.4243242-.2058986.602094-.7025379.6067631-1.327636.0126409-1.4587142.1786808-1.5234561,1.4609918-.0498234.9874706-.1720187,1.0925836-1.1231609.9671996-.6709926-.0886002-.833673.0868919-.7286169.7780416.053069.3496177.1098961.6992353.1450287,1.0509028.0616101.6167848-.5442989,1.3435795-1.0572233,1.2213841-.5059776-.120601-.5459502.1063658-.3920956.4518837.4625886,1.0389452.2179701,1.9853044-.2920503,2.9248307-.1855707.3418737-.3182432.7160898-.4415773,1.0866618-.1122876.3374323-.2833383.4393566-.6248704.3005345-.6169556-.2507681-1.1251539-.0695819-1.5403675.4350291-.1658691.2015711-.3555395.3803658-.5898517.5077997-1.56787.8518371-3.2282692,1.443454-4.9792045,1.7854415-.1711646.0334813-.3500732.0805146-.4686243-.0701513-.4788167-.6081297-1.1651264-.6939967-1.8579844-.7442187-.4435703-.0322286-.4898064-.2279917-.328094-.5871754.2369884-.5267041.4559834-1.0614939.6830071-1.5926394,1.1202-2.6208797,2.3262101-5.2123778,2.8010979-8.0568078.136089-.8150533.4866177-1.4739744,1.2251422-1.9018289.1894996-.1097822.3487066-.2807191.5009668-.4431148.1311351-.1398471.376323-.2851605.2196783-.5059776-.1281172-.180389-.3543438-.0465777-.5169103.0194738-.3271829.1330141-.639675.3017872-.9616194.4483533-.124473.0565993-.2437074.1916634-.4484103.0282427.3247914-.8220001.5129813-1.689439.4608234-2.5952562-.0158296-.2737723.1966742-.3809352.3832128-.5030167,2.5189553-1.6482138,4.6073799-3.7754151,6.6256531-5.9770953,1.8880492-2.0596693,3.6676828-4.2175049,5.7804211-6.0679731,3.6244076-3.1745738,7.6672746-5.4623488,12.5150023-6.131747.2617577-.0362145.5928126.0119576.822114-.3006484-.118665-.0286983-.1885316-.0594464-.258569-.0599019-.2235503-.0014805-.4492644-.00968-.6703093.0165129-2.3496128.2786692-4.6076646.8895321-6.7416988,1.9194806-4.0915515,1.9745995-7.3596793,4.9840445-10.3196426,8.3489151-2.0357541,2.3140817-4.1110253,4.5745249-6.5798156,6.4410504-.359924.272064-.65801.6679178-1.1927428.2873242-.1516908-.1079601-.3958537.016399-.5967415.0621796-.2298708.0524996-.4375345.2068097-.7415994.1587515.2340275-.5600715.4859913-1.0925836.6747507-1.6466194.0866642-.2542984.353148-.6303367.027958-.8043484-.3205208-.1715062-.4916285.2355079-.660003.4623608-.5957166.8024124-1.3574731,1.397104-2.2332255,1.9091174-.0592186-.2396077.0468055-.3815046.1020952-.5328537,1.4700454-4.0260693,2.9493722-8.0497472,4.1487772-12.1670359.8333883-2.860829,1.6728123-5.7233662,2.0928659-8.6850947.0372963-.2628396.113825-.5370674-.0812548-.80469-.2290736.1836916-.2125038.4218188-.2590815.6273758-.1481604.6537964-.2699003,1.3136285-.4227299,1.9661722-1.5511863,6.6237171-4.0373437,12.9429138-6.3048476,19.3331729-.2885769.8134589-1.0133218,1.2865246-1.9572325,1.324789.1347224-.2967764.2729181-.5800009.3919248-.8711971.0755607-.1846027.2031654-.4106584.0099077-.5664489-.1539684-.1241313-.3659597-.0218653-.5252806.0726567-.9147569.5427615-1.8908393.965833-2.8267783,1.465661-.4053629.2163757-.7479198.5178213-1.2271352.6265786-3.6705298.8328189-6.7845184,2.63409-9.3214102,5.4236289-.1459397.1604597-.2657436.359867-.5395158.459286-.144744-.498803-.1406442-.963897-.1414414-1.4293326-.0012527-.819153.0952053-1.6594881-.1656413-2.4444765-.4266019-1.2841331-.2386966-2.440149.495899-3.5512954.2348246-.3551979.3990994-.7582262.5845562-1.1446277.283623-.5907058.5183338-1.206124.5993608-1.8549096.0870058-.6961605.1860831-1.4012038-.3481372-2.0196968-.4340042-.5024473-.3250191-.720759.3342436-.8186975,2.1100052-.3135171,4.1660872-.8262137,6.1269639-1.6804424,2.8604874-1.2462104,5.3165229-3.0659304,7.1526989-5.5745225.9236397-1.2618122,1.9572894-2.3828664,3.0452039-3.4782971.1707091-.1719618.3333895-.3518953.5040416-.5238571,2.6729238-2.6933086,4.2950586-5.9206098,4.873579-9.6653907.1278895-.8276942.1328433-1.6708763-.0259651-2.502898-.0314314-.1645594-.0831338-.3452901-.2705266-.3918679-.2051584-.0510191-.2930183.130281-.3848641.2629535-.180389.2603342-.3626571.5215794-.5151451.7985404-.8036081,1.4590558-1.7657969,2.8051407-2.842494,4.0742414-1.2827096,1.5121248-2.6484961,2.9330302-4.3050232,4.045657-.1037465.0696958-.201628.2271945-.3311688.1613708-.1751505-.0889418-.0506775-.261473-.0417377-.400409.0621226-.9621888.466062-1.780203,1.0047237-2.5645081,1.4051896-2.0460035,3.1749155-3.7497917,4.9862082-5.4195291,1.2171705-1.1221929,2.5282936-2.0874565,4.1287909-2.5976478.2840216-.0905362.5640574-.1935994.8457445-.2913101.3075383-.1065935.3301438-.265345.0864934-.4731796-.3143142-.268192-.6642735-.4833151-1.0363259-.6569851-2.116952-.9884955-4.313963-1.2935853-6.6405716-.943626-3.2397143.4874148-6.1939265,1.6043692-8.7692534,3.6520809-1.5815359,1.2574847-2.9761914,2.7101632-4.2915282,4.2368649-1.6416086,1.9053593-3.330763,3.7757568-4.6094867,5.9630878-2.102489,3.5963927-3.1978058,7.5255484-3.8464775,11.603548-.126409.7944406-.2638645,1.6157574-.8409614,2.2048688-.4851941.4952727-.7219548,1.0448671-.7063529,1.6968414.022207.9293908.0943512,1.8580982.1679759,2.7853253.0403142.5073442.2213866,1.049764-.5482278,1.1769702-.0994759.016399-.1866526.1184373-.2755374.186197-2.5989005,1.9796103-3.568093,4.63716-3.21876,7.8228943.2714377,2.4751108,1.1865932,4.7222298,2.5247064,6.80422.1682606.2619285.1715062.4449369-.0166268.6944523-.4938492.6550491-.9608222,1.3333301-1.3293443,2.0669578-.2118774.4220466-.3291189.4432286-.6093824.0407697-1.0591023-1.5212354-1.777242-3.2315148-2.7146046-4.819485-.0609838-.1031771-.0717456-.2531596-.0621226-.3779743.0441293-.5752178.0786355-1.153055.163022-1.7230342.1935424-1.3069095.4893508-2.6052779.4481825-3.9328-.012584-.4054198.0798882-1.0234573-.4832581-1.1316452-.5498222-.1056825-.7144955.4721547-.888621.8559369-1.3177852,2.9053569-1.5605816,5.8809789-.4666883,8.9116059.6164431,1.7076602,1.6561286,3.1619329,2.8301948,4.5270361.1538545.1789086.3523508.3283217.2250308.6287424-.4070142.9608222-.7944976,1.9298439-1.1921165,2.894652-.0797174.1935994-.2004323.3375462-.4235271.1824389-1.0995304-.7648313-2.2614682-1.4566643-2.6980917-2.865612-.3170474-1.0232295-.5062623-2.0596693-.5492527-3.1251491-.0232889-.5771538-.006776-1.1562437-.0389476-1.7327142-.015431-.2763915-.0715179-.5997025-.3964231-.6732702-.3206916-.0724289-.504611.1818695-.654138.4275129-.2053292.3372045-.3336172.7065238-.4340042,1.086434-.4856497,1.8391938-.2291875,3.6232688.4210216,5.3702182.5932112,1.5936643,1.5294918,2.9798357,2.6575497,4.239598.6769144.7557208.6826085.7453575.2337427,1.6745205-1.127944,2.3346943-2.0973073,4.7368067-3.0178153,7.1587346-1.0329664,2.7175655-2.0734491,5.4319423-3.197578,8.1135211-.1057394.2522486-.1880761.450631-.5513026.4063309-2.4206752-.2956376-4.8468167-.547089-7.2824104-.6765728-1.4040508-.0745927-2.8024076.0033026-3.7535498,1.2578264C.5556376,79.4125869-.0356376,81.332523.0016587,83.3921924c.0184489,1.0212935.206468,2.100553,1.2122166,2.7448972.2217851.1420108.0915611.2943849.0301218.432296-.2022544.4538197-.2691031.910828-.2073791,1.4136169.1893857,1.5440118,1.0216352,2.7378365,2.0325654,3.8356587,1.2979128,1.4095172,2.8268352,2.5358099,4.437411,3.5577867.4898064.3107839.963897.6422943,1.3300275,1.0996443,1.111488,1.3886768,2.5619458,2.3343527,4.1499729,3.0559088,2.3354345,1.0609244,4.6450179,1.1759452,6.8090031-.4682827.2135287-.1621679.3639098-.0776675.5556301.0162851,2.1408672,1.0498779,4.9224343.5219211,6.3763085-1.374897.8242208-1.0751597,1.7203011-1.9514815,2.8696549-2.6904616,1.7058381-1.0967973,2.5104142-2.9115065,3.0872264-4.7907868.4153275-1.3530317.1382527-2.6066444-.7499128-3.7310011-1.07869-1.3654448-2.4701-2.3681756-3.8481288-3.3884442-.7639772-.5656518-1.5351859-1.1204847-2.2384071-1.7641456-.2409743-.2204755-.3057731-.412025-.1290852-.7220117,1.0612092-1.8619702,2.0792001-3.7487667,3.2291233-5.5593762.9416331-1.4826294,2.0321668-2.852174,3.1501462-4.202928.3244497-.3919817.6125711-.4305877.9572349-.048286.2866979.3180723.5960582.6159876.8775175.9385013.6904664.7912519,1.4279091,1.5197549,2.3810443,2.0010201,2.6679699,1.346996,5.343456,1.2848164,8.0279388.0600158.5624061-.2565761,1.0919573-.5696376,1.5378052-1.0040973.1285727-.1251563.3137448-.2588537.2494015-.4657773-.0622934-.2000906-.2839078-.1276617-.4379901-.1649011-.3680665-.0890557-.7365886-.0540939-1.1108047-.0253957-1.4294465.1093267-2.7696095.561552-4.1088615,1.0259627-.2242336.0777814-.4593999.21034-.6972993.058877-.5764705-.3672694-1.2194482-.5508471-1.8754083-.6992353-.1983824-.0448695-.3295744-.166951-.4394705-.3211472-.7223533-1.0140051-1.572767-1.8796219-2.6820343-2.4860434-.4974365-.272064-.7110221-1.1022636-.4227299-1.4374182.5711181-.663818,1.1667208-1.3065679,1.7440455-1.9651473.2137565-.2438213.3774618-.3006484.6152474-.0056941,1.263976,1.5674715,2.9615007,2.5210052,4.8384464,3.0715107,3.0973049.9083226,5.9953733-.023118,8.8262514-1.2344806.1316476-.0563716.2916517-.1426941.2465545-.326158-.0338229-.1377972-.180446-.188133-.308734-.205557-.6082436-.0824505-1.2163164-.2003184-1.8271793-.2197922-.8696027-.0279011-1.7295824-.0225486-2.6074986.1543101-.9545587.1923466-1.9608198-.0909917-2.9451586.0365561-.0807993.0104771-.1818695-.0448695-.2570886-.094522-1.4150974-.9342877-2.8879329-1.7799752-4.2563387-2.7866918-.2919934-.2147814-.2781567-.371483-.0419086-.6133683.4033699-.4130499.8087898-.8296302,1.1607989-1.2852719.2463836-.3189834.4466451-.3323076.7964336-.1653566,1.2441036.5937806,2.4924778,1.1834614,3.7663615,1.7089129,1.5751015.6496966,3.1966669.9750574,4.910192.5441281,3.1362526-.7887465,5.5097806-2.632154,7.354213-5.2279797.0510191-.0718595.1067074-.1595486-.0089967-.2670532-.1093267.028015-.2365898.0478304-.3542868.0926999-1.4817753.5653101-2.97659,1.1237873-4.2583886,2.0766377-.802754.5967415-1.623843.9070699-2.6301041.8098147-.4341181-.0419086-.8955678.0487415-1.3263833.1538545-.8666418.2113649-1.6936527.3366351-2.4833672-.2618147-.2047028-.1551072-.5305192-.150552-.8006472-.2195644-.1608013-.0409975-.3417598-.0343924-.4680549-.1628512-.5384909-.548-1.1961593-.8782578-1.9310966-1.0709461-.2278778-.0596742-.3324215-.1535129-.1400748-.3817324,1.3457433-1.5970808,2.5261299-3.3112322,3.5794242-5.1545258.1191775.2183117.0760162.4301322.2115927.6019801.67737.8586701,2.3053127,1.274567,3.3187484.8214307.2562914-.1145653.5013084-.2618147.7955795-.2119343,1.0587607.1792502,2.1180908.1163874,3.1738336-.0083134,1.680841-.1984963,3.3871345-.1719618,5.0458824-.5604132.5826202-.1364306,1.1719024-.2784414,1.4792699-.8852046.1231064-.2430241.3057731-.2224115.5172519-.1174123,2.0734491,1.0293791,4.17981.8775745,6.3013742.1712785,2.9223822-.9726659,5.6065803-2.4235222,8.1677858-4.1090893,2.1924557-1.4428846,4.2250781-3.0819878,5.735153-5.261461,3.0709982-4.4324002,3.7758706-9.3180507,2.5895052-14.5045773ZM40.9792391,73.6518673c1.2077752-.3539452,2.4263123-.6681455,3.6762239-.8743858-1.0824481.7205312-2.2663651,1.1693401-3.5566479,1.3171589-.1880191.0216376-.4777349.1113766-.5413949-.1317614-.0783508-.2993957.2588537-.2632951.4218188-.3110117ZM44.1494854,68.1396383c.4915146-.0335952,1.0078554-.0671904,1.4168056.314542.0792619.0739094.1906954.1512353.1555628.272064-.0383782.1321031-.178453.1078462-.2844772.1145653-.4236409.0271039-.8380574.1560183-1.0909893.1267506-.6152474-.0378088-1.2914216.1392777-1.2635205-.5038138.0215806-.4977781.6831779-.2979152,1.0666185-.3241081ZM54.3221064,60.9358064c-.8100425.8606061-1.7437607,1.5369511-2.926425,1.8078763.7845329-.8995537,1.8604898-1.3377715,2.926425-1.8078763ZM46.9945987,63.3401965c1.2204161-.2774165,2.4530177-.5569967,3.7198407-.1260673-1.1191181.5729402-2.2642583,1.0278987-3.5367185,1.0292653-.1513491.0001139-.4096335.0676459-.4015478-.16399.0088828-.2532735-.1139389-.6635902.2184256-.7392079ZM42.8585194,36.7431759c.2785553-.3079369.9768796-.5950333,1.6059636-.6627931-.1567016.9110558-.605966,1.3121481-1.3837229,1.2372137-.1492423-.0143491-.3120935-.0128687-.3755258-.1824389-.0621796-.1662677.0530121-.2810607.1532851-.3919817ZM46.682676,14.8831898c.5785204-.5877449,1.2540113-1.0529527,1.9187973-1.5309153,1.8038904-1.2968879,3.0189541-3.1235547,4.339017-4.8495499.5738513-.7501405,1.0345608-1.5868314,1.6414947-2.5320518-.1863109,1.3212586-.5410532,2.4328606-.9003509,3.5474234-.8294593,2.5728215-2.2452969,4.7682381-4.1679663,6.6541236-.6509493.6385362-1.2644315,1.3153368-1.9180002,1.9511398-.1377972.1340391-.2984277.4809236-.5806842.1832361-.2424547-.255665-.2999651-.5579078-.0515885-.8550258.1191205-.1425802.2626688-.2647756.3819601-.4072419.362828-.4333209.2877797-.7682478-.2225254-1.0187881-.066621-.0326841-.1368861-.0587631-.2066958-.0842727-.9042229-.3303716-.9106002-.3701164-.233458-1.0580774ZM48.970394,7.2999033c-.6236746.6411555-1.189668,1.3318497-1.773427,2.0079669-1.0513584,1.217626-1.5587025,2.6372787-1.7043006,4.2216047-.0558591.6077881-.217116,1.2058962-.3296314,1.8086735-.0206126.1106933-.0329119.2419992-.1489576.2815162-.1555628.0529551-.2260557-.0901945-.3071397-.187222-.3053176-.3651056-.2864132-.7851023-.2112511-1.2192204.2105678-1.2169427.7802054-2.2817392,1.4049619-3.3219371,1.4439095-2.4041623,4.5697419-5.6708667,6.7389087-6.993378-1.2654565,1.0808538-2.5027271,2.202819-3.6691632,3.4019961ZM39.2524468,6.9517661c-3.5618864,4.0943985-6.6962599,8.4615444-8.5955834,13.6145897,1.2715492-5.5453687,4.9136654-9.5923923,8.5955834-13.6145897ZM29.5095594,25.2937103c.2391521-.1005578.2502556-.4399261.3105561-.6896692.9537046-3.9535265,2.6679129-7.5834005,4.7993849-11.0151198,1.4080367-2.2670484,3.2086245-4.249278,4.9107045-6.2972175,1.1335811-1.3639644,2.3889021-2.6076694,3.8321853-3.6554974,2.0515837-1.4895762,4.4163429-2.1164964,6.8614457-2.5046062,1.8571302-.2947265,3.708908-.2827689,5.5135956.3503009.1393346.0488554.2738861.1113766.4106014.1676343-.6273188.0665071-1.1730982.3302577-1.6852824.6217956-3.8803004,2.2097658-7.0370517,5.1804909-9.3270473,9.0298154-.6126281,1.0298347-1.0382619,2.1510027-1.0946335,3.3701092-.0412822.8942012.2664269,1.3427823,1.1126269,1.6533385.4005229.1470216.8208043.2418853,1.2345945.3507565.2197353.057852.3001929.1545378.1256118.3424431-.5309178.5715736-.3407349,1.1295953.0427057,1.6692819.1682037.2367606.2279917.4252353.0423641.6963883-1.9551257,2.8574125-4.5495848,4.9300644-7.7299666,6.285146.1459397-.0926999.2922781-.1847166.4377623-.2780998,2.7418223-1.7616402,4.858091-4.0888183,6.3206772-7.003969.1761754-.3509842.2739431-.7324888.3384572-1.1199153.0150324-.0905362.0079717-.1949659-.1015258-.2326609-.1175831-.0404281-.1656413.0625212-.2109094.1358612-.0583076.0944082-.0989634.1999767-.1433774.3024705-1.8762055,4.3289954-5.1118201,7.2506374-9.4081882,9.0634106-.7581123.3200083-1.5752154.4425453-2.385144.5700931-.3002498.047261-.5375229.0207265-.6206567-.3640807-.1077323-.4982336-.4880412-.7734864-.938843-.957178-.8141422-.3316243-1.378769-.3093034-2.9776719.1229925.0209543-.2671671.0039859-.4765961.329973-.6138238ZM29.0193544,26.8721144c.5592174-.4685104,1.1896111-.7590233,1.8764332-.699577.8485346.0069468,1.4160084.2505403,1.4591697.6753201.0657668.6478745-.4593999.9246077-.9065574,1.21569-.5879157.3825295-1.2526447.4566667-1.9320646.3817324-.4240965-.0469194-.7166592-.3101006-.8555953-.7061821-.1324447-.3774049.0952053-.646508.3586143-.8669834ZM27.9787579,29.2022534c.951313.6640458,2.0373485.7157482,3.1408078.6699676.4691937-.0194738.9265437-.089739,1.3015571-.4141887.3383433-.2927905.4248936-.1176401.4516559.2307249.0571687.7443326-.1097822,1.4373044-.4221605,2.1077275-.5497652,1.1795895-1.3226252,2.2422221-1.7891427,3.4675921-.1523171.3999535-1.5564818.7450159-1.9314952.5265902-.1609152-.0937249-.2163757-.25669-.2457573-.4197689-.3603226-1.9964648-.5690682-4.0077343-.5732249-6.0380221-.0000569-.030862.030919-.061724.0677598-.1306226ZM29.0379172,38.3800015c.5419074.0292677,1.0785762-.0234597,1.6018638-.1774281.3249053-.0956609.4530225.0547772.4543891.3620308.0014805.3350408.0003416.6700815.0003416,1.0051223-.0868919.7661979.0528412,1.5246518.1084156,2.2827641.0540939.7373858-.4981197,1.0476003-.8839519,1.4608779-.2077777.2226393-.2882922-.1257257-.3566214-.2611314-.5985067-1.1863085-1.0088234-2.4387824-1.2778127-3.7386312-.0264206-.1274339-.0469194-.2564622-.0785216-.3826434-.0929846-.3713691.0059788-.5739651.4318974-.550961ZM28.5765813,37.2640721c-.0411114-.2987124.1170707-.4414065.3877681-.5154298.4301891-.117754.861631-.2351663,1.2819124-.3829851.2611883-.0917889.4940769-.1538545.5454377.202596.0439584.3049759.2396077.6883026-.2482627.8401073-.3403363.1060241-.6931426.1387082-.8838949.1277756-.3147698,0-.4639552.0046692-.6127419-.0011388-.2022544-.0078579-.430303.0189044-.4702187-.2709252ZM27.2951814,34.7780286c.1474772.5475445.2580565.9784739.5051235,1.3542844.0653113.0993051.0677028.2120482.0344493.3229693-.5096218,1.6992329.0833616,3.2690959.5853533,4.8430586.2601634.8158504.6110337,1.6012944,1.0133218,2.3574707.1908092.3586143.1364306.5997025-.1410998.8817881-.7048155.7160898-1.390328,1.4518813-2.0646801,2.1968971-.2420561.2673949-.3474539.2574871-.4833151-.0831338-.3184709-.7983126-.5684988-1.6137075-.7297557-2.4575729-.2205894-1.1545354-.5421921-2.2803726-.9689078-3.3761449-.0875183-.2246891-.1710507-.4408371-.0833616-.6992353.3465428-1.0216352.6592627-2.0550002,1.0181048-3.0721939.2798649-.7933018.7282752-1.498459,1.3147674-2.2681872ZM23.6600119,39.5291845c.1788516-1.6066469.8315092-2.977558,2.0695201-4.0520344-.7074348,1.3078206-1.0251655,2.7426195-1.405816,4.1570336-.0623504.231522-.1322739.5116717-.4613359.4478978-.3255316-.0632045-.2244614-.3542868-.2023683-.552897ZM23.7752035,42.0550866c-.0207835-.108985-.0310898-.2213866-.0326841-.3323076-.0027332-.2014572-.0440723-.4407232.2131301-.5158853.297175-.0867781.3809921.1680898.4720977.3651056.282712.6120017.4292212,1.2698979.552897,1.923922.2401771,1.2709228.6960466,2.4622421,1.2143235,3.6370485.0785786.1782253.2250308.3501871.1257257.5959444-.1549934.0103633-.1994073-.0757315-.2493446-.1519185-1.1113172-1.6967275-1.914299-3.5219138-2.2961452-5.521909ZM26.2333459,50.2629019c2.0314266-3.212041,4.4879746-6.0807279,7.0918859-8.8350772,1.2084585-1.2783251,2.4818298-2.4686195,3.964687-3.4245448,1.5431007-.9946451,3.5684916-1.7910218,5.2108974-2.0244798-.2142689.2446185-.4296767.444823-.5901364.682153-.4607095.6815836-.0982801,1.4123642.7333999,1.4895762.9181165.0852976,1.784018-.1027215,2.3980127-.8144839,1.5670729-1.8167591,3.8283702-2.6939919,5.6349369-4.2088499-.2157494.4598554-.442887.9148139-.6420096,1.38173-.0867211.2032793-.1614846.4744323.0131534.6342087.1897843.1734422.3573616-.099419.5406547-.1563599.2406326-.0748205.4378762-.2747972.8107258-.2609036-.5855242.9296185-1.1390475,1.8083318-1.6925708,2.6870451.0809131-.5773816.3707428-1.0889394.2716654-1.7143792-.168887.3392544-.3443791.6753201-.5054082,1.0182187-.625269,1.3316219-1.153966,2.7090243-1.8976153,3.9847302-.0930416.1597764-.1703674.3336742-.2245752.5101912-.2169452.7073209.1295407,1.2158039.869375,1.3004182.611774.0700374,1.179077-.1201455,1.7516755-.2857299.1221954-.0354173.2658575-.1208288.3723371-.0314314.1445732.1215121.0275594.2780998-.018335.4113417-.1831222.5313733-.4272282,1.0332511-.7696144,1.4817183-1.8829245,2.4666835-3.5059134,5.0863105-4.8451654,7.8929317-1.2132416,2.5426428-2.5894483,5.0029489-4.4525573,7.1438161-1.0982208,1.2619261-2.2501369,2.4772745-3.4325165,3.6827152.3815615-1.0080832.7380691-2.0105862.9713563-3.0524924.3906152-1.7442163.520099-3.4948099.1713924-5.2644219-.1168429-.5930973-.3567922-1.1381364-.6125142-1.6747483-.1795919-.3769493-.1342668-.626237.1854568-.9191414,2.5147417-2.3039462,3.7049222-5.3022307,4.4203287-8.5417173.018335-.08302-.0081426-.1759476-.0234597-.4189718-.3652195.526818-.4855927.9781323-.6522021,1.4061007-.7571443,1.9448763-1.4466427,3.9252838-2.7893111,5.5739531-.8713679,1.0699211-1.8570164,1.9841656-3.275701,2.2893693-.8823575.1899551-1.7151194.040542-2.4997093-.3407349-3.2065747-1.5583609-6.2324187-.616557-8.2606566,2.0827874-.1197469.1593209-.2466684.3132893-.4012062.4494921.6042577-1.4436818,1.3390242-2.8149346,2.1733235-4.1340294ZM50.7443904,40.0983666c-.0371825.4098612-.9468147,1.2333418-1.4571198,1.2066934-.1663816-.0113882-.1748088-.2144398-.1129709-.3941455.1662107-.4829734.4809236-.8759801.8462569-1.223434.15152-.1441746.3471122-.1113766.5191879-.0127548.160175.0917889.2214435.2384688.2046459.4236409ZM30.9066065,51.8159104c-1.4326921.1625096-2.8027492.2540707-4.1030535.7272503,1.2380109-.8138006,2.5838111-1.0383758,4.1030535-.7272503ZM19.5137402,45.6446463c.0321147-1.676912.3164211-3.3033743,1.0374648-4.8435141-.1249285,1.1758314-.2554942,2.3513211-.3718246,3.5280635-.0419086.4244381-.0580229.8521788-.0699805,1.2787807-.0079717.2841355-.1395624.5066609-.4092349.4942478-.2257141-.0104771-.1897843-.2839078-.1864248-.4575778ZM19.8943907,47.7836914c-.0133242-.0538662-.0227764-.1087573-.0350187-.1677481.0204988-.2709252.1956492-.4608803.4217049-.5346759.2443907-.0798313.2792386.1988379.3547423.3458595.8139144,1.5856926,1.5661618,3.2052081,2.5836403,4.6782714.1549364.2243475.1554489.4392428.0288121.6777116-.1281172.2414298-.265345.2964348-.4628163.0790341-1.3422129-1.4773908-2.4047887-3.1138747-2.8910647-5.0784526ZM17.1459062,55.0829564c-.5044971-1.4441373-.7685894-2.8996628-.2000906-4.4079156.0539801,1.3259278.3639668,2.6001532.8002486,3.8467052.0957747.2736584.0989065.4912868-.1545378.6876193-.2278778.1765171-.3513828.1432635-.4456202-.126409ZM17.8330131,56.6889199c-.2184826-.4015478.1677481-.5621214.3546854-.7803193.1941688-.226739.324222.028926.4532502.1295977.7179119.5600715,1.4294465,1.1281148,2.1433726,1.6930833.1285158.1016966.2927336.1769726.2760499.4722685-.2068097.4855927-.4307016,1.0562553-.6951356,1.6075579-.0934971.1950798-.2256002.0175378-.3034955-.0671904-.857759-.9340599-1.6213376-1.938385-2.2287271-3.0549978ZM15.2004605,74.8885117c.4422037-1.7978547,1.6746913-2.7740509,3.2213793-3.5089313.5563134-.2643201,1.1142212-.5199851,1.6850546-.569296,1.0042682.0707207,1.7122154.575104,2.2501369,1.29871.9601389,1.2914216,1.6675737,2.7323701,2.3285447,4.1932481.2222407.4912868.2073791,1.0149161.0777814,1.5352429-.1844888.7406883-.5101912,1.4410625-.6195179,2.2033884-.0546633.3812768-.2675088.1478188-.3923234.0711762-1.0001115-.6143932-2.001134-1.2282171-2.9863269-1.86607-1.4950995-.9678829-3.0278939-1.8247308-4.8325815-2.0877982-1.1133671-.1621679-1.0026169-.1701397-.7321472-1.2696701ZM23.561561,81.6106228c-.4064448.6922885-.8870267,1.3320774-1.4128767,1.9371323-.1027785.1182095-.1931438.3352685-.3820171.2652311-.1843749-.0684431-.1151347-.2898296-.1333558-.4121389.0249402-.9907732.6935981-1.9618447,1.5320542-2.2541797.174638-.0609269.3868571-.1503242.5214655.0154879.1256118.1548795-.0446417.3112394-.1252702.4484672ZM14.0689862,77.9980589c.1992365-1.0691239.3954551-1.2407441,1.4874694-1.1338089,1.4943592.1462245,2.8391914.7271364,4.1226412,1.4747715.9992004.581823,1.9492608,1.2380109,2.8966449,1.8981847.1834069.1277756.432239.2862993.0374102.4620192-1.245641.5543774-1.5084806,1.6617657-1.5966252,2.8536544-.1037465,1.4026842-.3434111,1.6347757-2.0704881,1.6173518-1.6302204-.1096683-3.1537334-1.0504473-4.4978823-2.3565596-.148559-.1442885-.1924605-.3050898-.1175262-.5059776.4638413-1.2430217.2520208-2.4544981-.1748658-3.6565223-.0740802-.2086318-.1309073-.4162386-.0867781-.6531131ZM19.2509006,85.6726788c-1.1528272.3331048-2.3046295.4313849-3.4507376.0507914-.8331036-.2766193-1.3963638-.8257582-1.5829594-1.7106211-.032798-.1555628-.1633067-.3553118.0098508-.4575778.1621679-.0958886.302983.0954331.4252922.1945104.875126.7090292,1.8345247,1.2589652,2.9181116,1.5809095.5479431.1628512,1.1076161.267281,1.6804424.3419876ZM12.8654246,80.4257948c.1421247-.130281.3551409.007744.5138355.0940665.2457573.1334697.4926534.2804913.4489797.6706509-.0268192.1005578-.0523857.2482627-.1059672.3850349-.078123.1990657-.0476596.5312594-.2770748.5589327-.2664269.0321147-.3438097-.2892602-.4446522-.4990308-.0795466-.1654705-.148616-.3436958-.1777128-.5234015-.0373533-.2301555-.1530004-.5067748.0425919-.6862528ZM.8915324,84.9888176c-.4892369-.876094-.4847956-1.8291722-.355084-2.7770119.1503242-1.098961.5811966-2.1094358,1.080683-3.0973619.7474643-1.4783019,1.8984125-2.2046411,3.5802784-2.033932,2.3676062.1629651,4.749106.2476933,7.1132957.553808.1184373.0152602.2908546-.0404281.3221152.1362028.0218084.1232203-.1072199.189158-.1991226.2462128-2.2106768,1.3736443-4.1669413,3.1371067-6.5576656,4.2375482-1.5384316.7080042-2.8460813,1.7607292-4.092007,2.8923743-.4793292.4354847-.5688404.4218188-.892493-.1578404ZM12.5020272,78.6739484c-.1011841.3687498-.2000906.7381829-.3044065,1.1060217-.0652544.2303832-.2581704.2980291-.4629872.3490482-.9932216.2478072-1.9448194.6224789-2.9509096.8946568,1.2026506-.810498,2.4053011-1.6208821,3.6079517-2.4313801l.1103516.0816534ZM7.4991922,94.6109331c-.181414.0288121-.2922211-.0526135-.3964801-.1234481-1.8604328-1.2628372-3.5980439-2.6550443-4.8144173-4.5936571-1.0406535-1.6586909-.9283658-3.0188972.3793408-4.4708923,1.4707287-1.6332952,3.3728423-2.6172355,5.3350857-3.495721,1.1215666-.5019917,2.2846432-.9042229,3.4528444-1.2902827.4367374-.1444023.6420666-.0413392.6682025.4092918.0363283.6257814.3212041,1.1434889.7144385,1.6040276.1957631.2292444.1877914.4078113.0052386.6346642-.479557.5957166-.9833708,1.1648987-1.5473143,1.6851115-.9987449.9215329-2.0408788,1.8077624-2.8664662,2.8947658-1.4632125,1.9266552-1.9611614,4.0245889-.9982324,6.342998.0355881.0856392.0603574.1762893.0825644.2664838.0079717.0323425-.006719.0703791-.0148047.1366584ZM20.0317893,97.1219167c-1.0064319,1.9781298-2.7005971,2.511553-4.5694002,2.2023634-2.695814-.4461896-4.8546746-1.8626535-6.4509582-4.0687751-1.6938235-2.3408439-1.5379191-4.7007061.3582157-7.0142184,1.1734968-1.4317241,2.6106873-2.6045946,3.8588906-3.9621816.21034-.228675.3475678-.1720757.4346875.0879169.6562449,1.9587699,3.151285,2.4255721,4.8072427,2.1629603.7946684-.1260673,1.5558555-.3786576,2.2728564-.7513932.2512236-.1306226.434232-.2020266.4825179.2105678.1599472,1.3676086.4207939,2.7256511.3413612,3.9428216.0491401,2.6322679-.4092349,4.9766422-1.5354137,7.1899383ZM26.0330844,97.1374047c-.0940096.4091779-.2880644.7171148-.6327852.9413484-1.2878343.837488-2.6815218,1.0867757-4.1646637.687961-.7276489-.1956492-.762269-.3616891-.3954551-.9932786,1.0770387-1.854454,1.5831302-3.8747202,1.8083888-5.9949747.2294722-2.1597716-.1454273-4.2696629-.4014339-6.3915118-.0391754-.3249053.0007402-.5850117.2174007-.8226834.4769377-.522946.9568363-1.0432727,1.4262578-1.5729378.2394938-.2702419.3573616-.2208171.48434.1048853.8690333,2.2287841,1.5468588,4.5085872,1.880533,6.8829125.1425802,1.0149161.2603342,2.031996.2260557,2.9652588.0203849,1.4794407-.1387082,2.8429495-.448638,4.1930203ZM26.7416581,96.4349807c.848136-3.9397468-.0068329-7.7029765-1.0745903-11.4561847.0423072.0078579.0884294.0051247.0942373.0190183,1.0842703,2.621563,2.0999836,5.2566779,2.0694062,8.165679-.0128117,1.2201314-.471813,2.2686428-1.0890533,3.2714874ZM28.1150177,90.0151123c-.5481139-2.7965996-1.8735862-5.2695466-3.1593706-7.7591204,1.7306074,2.3044017,3.3044562,4.6740578,3.1593706,7.7591204ZM30.8178355,86.1536024c1.4051896,1.3869685,1.6840297,3.0224275.8619726,4.8145881-.6333546,1.3805911-1.3661281,2.6993444-2.7272455,3.5228249-.155392.0939526-.2916517.2351663-.5552316.221956.1728728-1.346996-.0822228-2.7004832.1494701-4.0430378.3442652-1.9946427-.2446754-3.7943195-1.1638737-5.5206563-.4648093-.8729053-1.0170229-1.6914889-1.6003264-2.4900293-.1946243-.2664838-.417833-.5203267-.4767669-.8834963,1.855422,1.4489203,3.8369683,2.7246262,5.5120013,4.3778507ZM27.9794412,73.9122015c-.8897029.8511539-1.7065783,1.7658538-2.3586095,2.9159479-.6085283-1.5337624-1.3438642-2.9082039-2.1648393-4.2373204-.3235387-.5237432-.7067515-1.0036418-1.1621655-1.4234108-1.118321-1.0307457-2.3666951-1.2563459-3.7601549-.6220233-.6395612.2911962-1.2486019.6397889-1.8615716,1.0511306-.0958317-2.1557857,1.8764902-4.5986679,3.8857098-4.9022772.4813791-.0727706.8741011.1265229,1.2528156.3718246.5198143.3366351.9429997.7869244,1.3719361,1.2251422,1.0944627,1.1184348,2.2265064,2.1933668,3.4491433,3.173435.582791.4671438,1.0753305,1.0211796,1.4589419,1.6754316.1885885.3217166.1458828.5260208-.1112057.7721198ZM28.3654442,71.9188115c-1.2364166-1.0136634-2.5039229-1.8334997-3.5631391-2.9169728-.6507216-.6656401-1.3352092-1.2984822-2.0111556-1.9391822-1.1962162-1.1335811-2.1856797-1.2661398-3.6479812-.4960699-.2559497.1347224-.5079136.2770748-.8685778.4744323.3122644-.824961.6746937-1.4603085,1.2172844-1.9835962.6141655-.5920724,1.3567898-.7722336,2.1706473-.5869477,2.628339.5983359,6.0672329,2.9878074,6.6999611,6.8990837.023118.142808.0029609.2925628.0029609.5492527ZM30.3087261,71.3053293c-.2688184.2728612-.4985753.5842145-.8131742.9594556-.0527843-.7888604-.0756176-1.4718106-.2418853-2.1374507-.1498117-.5998163-.3514398-1.1775396-.6575545-1.7151764-.2121621-.3726218-.4267157-.7273642-.8936888-.8653891-.1932577-.0571687-.3452332-.2725196-.5027889-.4292212-1.4746576-1.4661165-3.152253-2.6084666-5.1614726-3.2095356-.4414635-.1319892-.8959664-.2593092-1.3710251-.1330141-.0997606.0265345-.2423408.0681014-.2901713-.0709485-.0438446-.1274339.0786924-.196788.1695703-.2552095.4513143-.2898296.9683384-.4415204,1.4831988-.4412926,2.5238523.0009111,4.8768815.5400283,6.790725,2.3325305.1903537.1782253.4732365.3263857.2269098.6723592-.0437307.0612685.0248263.2136426.0593894.3181862.4495491,1.3606618.8844643,2.7267899,1.3659004,4.0761774.1320461.3700025.1075615.6230483-.1639331.8985288ZM31.706969,69.5705652c0-.5718014-.0128687-1.0399702.0052955-1.5070001.0095091-.2439352.2280486-.321261.4225591-.3850349.608813-.1998629,1.2155192-.4028005,1.7690995-.7402328-.708175.8485346-1.4163501,1.6970691-2.1969541,2.6322679ZM34.6822494,70.6084855c.2585121.0083134.4396414.1113766.5990192.2371023.6357461.5013084,1.1351755,1.123104,1.5468588,1.8157342.0599019.1008994.1845457.2366467.0546064.3441513-.0593325.0489692-.2103969.0081995-.312663-.0189044-1.0796011-.2867548-1.7967159-1.0545471-2.3521182-1.9430542-.24217-.3874265.3321937-.2804913.4642968-.4350291ZM32.2604354,66.6217055c-1.0059195.2343691-1.6022055.1637623-2.2603294-.767109-1.5228297-2.1541914-3.7985332-3.0758382-6.3591693-3.4041599-.8611755-.1103516-1.7066352.0002278-2.6213352.0480582.9309851-2.9750526,1.8555928-5.8708434,3.8501217-8.3074621.6950217-.849104,1.6030026-1.0900782,2.5063714-1.4255745,1.346939-.5001696,2.7541785-.6326144,4.1843083-.5159992.8315662.0677598,1.5421327.5435586,2.398696.6943384-.4116833.3063425-.9678829.2381272-1.3497291.7122178.893461-.0512469,1.6474166-.3111255,2.4115077-.513266.7022532-.1857415.7071501-.1772003.9627012.5042694.8058288,2.1488389.5990761,4.3270594.174638,6.5016356-.3189265,1.6340924-.8484776,3.2001973-1.6398434,4.6783853-.5030736.9395263-1.1566992,1.5380899-2.2579378,1.794666ZM35.7050803,63.3602397c.5616089-1.5915006,1.0047237-3.1301599,1.1765716-4.7274684.1924605-1.788858.2027099-3.5679222-.58951-5.2524643-.0740233-.1574988-.2339705-.3744439.0019929-.4870732.2397215-.1142236.2974597.1589792.3768354.3075952.6675761,1.2500824.8622573,2.6195131.8505275,3.9998765-.0174809,2.0616053-.6076173,3.9987377-1.5263031,5.8370204-.0543786.1087573-.0687847.2557789-.2901143.3225137ZM41.3608006,67.3736681c.3132893.2454156.5251667.5331954.6083006.9556975.065596.332877-.0632045.3268413-.2635798.2645478-.3538882-.1101239-.705328-.2371023-1.042077-.3912985-.711079-.3257024-1.3780857-.7307806-2.0365513-1.1538521-.7571443-.4866177-.9167499-1.1961023-.8663002-2.1432587,1.2673355.8801938,2.486499,1.5959419,3.6002077,2.468164ZM43.9336221,63.0515057c.1031771-.3698886.3450054-.4473284.6631347-.3981314.6336962-.0251679.986047.3856044,1.3225683.8142561.0937249.1194622.1448579.2628396.050165.4127083-.096515.1528296-.2496862.1578404-.395569.1190067-.3931775-.1047714-.7871522-.2105678-1.1716747-.3424431-.2741708-.0940665-.5897378-.1712785-.4686243-.6053966ZM42.9398311,61.8259079c.2212727.1395054.3136309.3118088.2077207.5574523-.1102947.2560067-.2876659.4532502-.592414.379227-.4358263-.1057964-.8285483-.3194389-1.1931414-.5787482-.2284472-.1625096-.1808446-.3836684-.0956039-.6004996.0772689-.1965603.2130732-.2987124.4691368-.228675.3856044.1319892.821089.2293583,1.2043018.4712436ZM38.1856004,62.3840434c-.6379668.626237-1.2959199,1.2323168-1.9465845,1.845799-.0219792.0208404-.0644572.0197016-.228675.0652544.2611314-.2765054.4388442-.4754572.6278313-.6631347,2.3314487-2.3151066,4.5485598-4.7282656,6.3072391-7.5209932,1.3427823-2.1322122,2.3354915-4.452899,3.530455-6.6651701.609838-1.1290259,1.2952935-2.2079437,2.1498069-3.1892646-.4441966.8492179-.7655716,1.8040043-1.3746123,2.5113252-.4227299.4909452-.630052,1.0069444-.8505844,1.5533501-1.8635646,4.6176862-4.6754243,8.5881811-8.214876,12.0628339ZM49.2949576,53.143888c.0161712.357931-.0178225.6872777-.108017,1.0132079-.344493,1.2442744-1.3275791,1.7635762-2.5566503,1.3443767-.3716538-.1267506-.5992469-.8068538-.3365212-1.3159062.4846817-.9392985,1.0332511-1.8455712,1.4398098-2.8254117.026022-.0626351.0867781-.1310781.1479327-.1554489.2667685-.1065935,1.1948496.397562,1.2645454.6947939.097426.4152137.186254.8341854.1489007,1.2443883ZM57.7595768,54.9503977c-1.2991086.3566783-2.6478128.3717108-3.9700963.569296-.753557.1126293-1.5105874.2023683-2.2663651.2998512-.4075836.0526135-.8147116.0711762-1.2199606-.0268761-.2925058-.0707207-.4092918-.2178562-.2848188-.5252237.3078799-.760276.5596729-1.5395704.6787935-2.3537126.0406559-.2780998.2085748-.399498.4480117-.4067864,1.7987657-.0552328,3.3641873-.7154065,4.8547884-1.941346-.494931,1.5788597.3390266,3.1342596,1.7570849,3.5448041.2221837.0643433.538434.057852.5464057.3748995.0083134.3269551-.2910823.395626-.5438434.465094ZM57.6926711,52.8077085c-.4505171.1145653-.6499244-.1976991-.8263276-.5055221-.4929951-.8602644-.3237664-1.7864665.3964231-2.4923069.2213866-.2169452.3403932-.1182095.5018778.0379227.3525216.3407349.8320217,1.4710134.8305412,1.9765355-.0013666.4912868-.3197806.8350965-.9025146.9833708ZM76.3981266,32.7945463c-1.2382387,2.4612172-3.4686171,3.8067327-5.7373737,5.108973,1.9000638-1.7154041,4.0077343-3.1996279,5.7373737-5.108973ZM65.63554,38.0086324c.266313-1.0673018.6328991-2.1029445,1.0724835-3.1106861,1.43571-3.2909612,3.5396794-6.0607985,6.4341606-8.2092958.1014119-.075276.1855707-.1896135.4242673-.1795919-.8845213,1.8471656-1.7469494,3.6400095-2.602203,5.4362698-.9283089,1.9498871-1.7597042,3.9419106-2.537632,5.9555716-.1270923.3288911-.3249622.5158853-.6442303.6318172-.5178213.1880191-1.0477141.2423408-1.5924685.2145536-.5657656-.0288121-.6945092-.1767448-.5543774-.7386385ZM60.7314976,44.7760685c.9141306-1.0120691,1.6427474-2.1557857,2.3403884-3.3222788.2456434-.4106584.3809352-.834641.3928928-1.315109.0168545-.6809003.1789086-.8347549.8565063-.7486601.7131289.09065,1.4182861.2441629,2.2679595.3951704-2.7773535,1.2729727-4.683453,3.3096379-6.0758309,5.9731094-.1320461-.4702187-.0094522-.7303251.218084-.982232ZM78.8527386,45.6698142c-.7100541.9765379-1.6351173,1.7274756-2.6274848,2.4035929-2.484563,1.6928555-5.0420104,3.2544051-7.8445318,4.3752315-1.65573.6621098-3.3572405,1.1130824-5.1605615,1.0742486-.7115915-.0152602-1.4051896-.151463-2.0996419-.2881214-.2126176-.0417947-.4276268-.071404-.6555046-.0512469.7148371.5041555,1.5299473.6853417,2.3817276.7414855,2.4398074.1609152,4.6704135-.5997025,6.8408331-1.5886535,1.643146-.7488878,3.2018486-1.6578937,4.7443799-2.5967367-.8022415.6539103-1.6855671,1.1825504-2.5879109,1.6780508-2.2228053,1.2204731-4.4548919,2.4213585-6.94606,3.029716-.8247332.2014572-1.658577.2062403-2.499026.1781114-.9970367-.0332535-1.6912612-.590478-2.3143094-1.2875496-.1905245-.2131871-.2210449-.465094-.198724-.7321472.0938387-1.1235595-.1015827-2.1896087-.6274327-3.1914284-.0880308-.1676343-.1556197-.3332186-.0420794-.5259069,1.3501847-2.2918747,2.4976594-4.7229131,4.4722589-6.5882998,1.2211564-1.1535105,2.567469-2.1511166,4.2640827-2.4124757.9342877-.1439468,1.8903268-.1240175,2.7812255-.5106468.4276268-.1855137.8646489-.3526925,1.2505379-.617468.1584098-.1087573.4324098-.2400632.3057162-.4557556-.1094975-.1865387-.3393113.0017082-.4968101.0759593-.8095869.3816185-1.6138214.7750807-2.5090476.9211913-.1092128.0177656-.2216143.0161712-.3354963.0236875.0232319-.1986102.1999767-.1801613.3101006-.222867,2.2081145-.8574174,4.1217302-2.1900642,5.7903288-3.8299646,2.2467774-2.2081714,3.4472073-4.9146904,3.4133843-8.1115851-.0064913-.6149626-.0128687-1.2298114-.0161712-1.8447741-.0002278-.031887.0285844-.0638878.0756176-.162054,1.1082993,1.1032885,1.9507982,2.34073,2.4529607,3.7528665,2.1099482,5.9337062,1.6561855,11.566878-2.1223614,16.7635401Z"/>
  </g>
</svg>