<?xml version="1.0" encoding="UTF-8"?>
<svg id="Layer_2" xmlns="http://www.w3.org/2000/svg" viewBox="0 0 147.5776259 117.9035812">
  <g id="Layer_1-2" data-name="Layer_1">
    <path d="M147.4478228,88.0907716c-.2026264-.7402778-.53698-1.4531627-.665686-2.2034442-.6239254-3.635928-1.3266052-7.2562798-2.0155885-10.8799884-.4876998-2.5647879-.7073795-5.1794602-1.1492903-7.7541847-.6462828-3.7651712-1.4350351-7.506105-2.0653387-11.2737603-.4091468-2.4460185-.5572561-4.9362146-.9772794-7.3799503-.6397031-3.7212621-1.4647107-7.4104316-2.1156932-11.129948-.6168758-3.5250811-1.0971902-7.0733252-2.0372074-10.5363696-.6557494-2.4157722-1.2766535-4.8415482-1.5603841-7.3372162-.4390909-3.8627245-.7221502-7.7448523-1.442689-11.5723959-.3128019-1.6618987-.6570251-3.31705-1.1914538-4.9247673-.568804-1.7114811-1.7511269-2.6734864-3.5453571-2.9185112-.7659921-.104603-1.5303729-.1432081-2.3020718-.1802354-1.3153258.088456-2.6313229.1676468-3.9457758.2672144-3.0678625.2324026-6.1261913.5812248-9.2010363.7332617-3.8642016.1910784-7.7205479.4897475-11.561855.9579769-4.8193922.5874352-9.6384488,1.1776231-14.4551554,1.7870799-6.190645.783314-12.4403054,1.0036988-18.6111444,1.9834624-3.2107349.5097886-6.4645733.7065738-9.6711456,1.2576195-7.4192939,1.2750086-14.6454282,3.3220854-21.7650123,5.7092563-5.4088752,1.8135664-10.7345647,3.8695392-16.2687218,5.3029294-4.886263,1.2656091-9.7991131,2.4406809-14.5787588,4.0881447-1.7035922.5872338-3.3761661,1.2432517-4.9620632,2.1133769C.4437377,24.7025575.0016255,25.3893588.0001484,26.4706035c-.0026856,2.0699042.0281985,4.13672.3318024,6.1835954.9868132,6.6512876,2.3453095,13.2281178,3.9845823,19.749491.8290359,3.2985531,1.9884642,6.5092881,2.5679434,9.8740405,1.7190343,9.9818662,4.0946908,19.8192487,6.5201646,29.6466274,1.47787,5.9883543,3.1837449,11.9194389,4.4947066,17.949621.4104225,1.8876882.8266189,3.7744364,1.2704767,5.6544707.4214333,1.7852336,1.4516185,2.5163804,3.2710932,2.3528291.3912878-.0351138.7815013-.1197765,1.1633224-.2167256,15.5543598-3.9500728,31.1602154-7.6858369,46.8094431-11.2409292,6.1012155-1.3860234,12.2386862-2.6123225,18.3114346-4.1213451,3.2157032-.7989575,6.3682956-1.8419663,9.6217311-2.5010727,6.8212172-1.3819951,13.6557279-2.6973208,20.4570719-4.1784806,3.1309735-.6817994,6.2164265-1.587307,9.397553-2.0239809,6.0318606-.828096,11.9852354-2.0723212,17.9368645-3.3274902,1.3099546-.2762782,1.6649872-.8814717,1.3094846-2.1804826ZM129.5999178,1.9313287c.3255584-.2535515.4654095.0995676.6164729.2585534.4343912.457185.6307736,1.0496892.8162794,1.6364194.7718332,2.4410837,1.0983316,4.9693814,1.453297,7.4919722.5144212,3.6553984.6696472,7.3587343,1.3391602,10.9888884.5769279,3.1282879,1.4512828,6.2016558,2.0297549,9.3297423.9263879,5.0094635,1.7166844,10.0441715,2.5647879,15.0681371,1.0746986,6.3665499,2.1642349,12.7306829,3.2187245,19.1005226.5415455,3.271496,1.01998,6.5534657,1.5287615,9.8304.3236114,2.0840034.9966827,4.0971078,1.2553704,6.1947405.1714066,1.3896489.3555697,2.7778208.541814,4.2278951-.1413953-.1141368-.2504295-.1850359-.3387848-.2760767-5.7654519-5.9387384-12.4552775-10.6923341-19.3394713-15.217522-5.7151646-3.7567116-11.523787-7.3337585-17.6928132-10.3060147-2.9368066-1.4148933-5.6741425-3.1723313-8.3280913-5.0574681-3.3352112-2.3692111-7.017331-3.9774656-10.9475977-5.0530369-.16194-.0443119-.3214629-.0970834-.4959579-.1501234.1011789-.29595.3454988-.4248574.5333545-.5957269,7.8275679-7.1169657,15.4364632-14.4599223,22.7690803-22.0862067,1.6144984-1.6792207,3.1706528-3.4171211,4.6983401-5.1761368.3861852-.4447978,9.1210063-12.7271916,12.074732-17.693216.1683853-.2830592,1.2853145-2.1906206,1.7027866-2.5157426ZM7.7770262,22.7707588c4.2303121-1.4158333,8.5900688-2.3639743,12.8974568-3.4960433,6.3372772-1.6655243,12.4511149-3.9897521,18.6408199-6.0946358,7.4327889-2.5276263,14.9909269-4.606695,22.7847238-5.6469846,5.39773-.7204717,10.788209-1.530205,16.2252156-1.9416346,5.0401462-.3813847,10.0549809-1.0032959,15.0679357-1.6411863,7.7603615-.9875182,15.5230058-1.9292138,23.3537292-2.2056934,2.9617153-.1045694,5.9151054-.4468119,8.8720538-.6828737.903292-.0721076,1.791679.0421635,2.8078321.1559981-.2729883.3777256-.48253.6684723-.6928774.9586147-1.484651,2.0474461-2.8503312,4.1751572-4.120808,6.3582247-3.9062979,6.7122837-8.7712106,12.6661956-14.1737075,18.2165668-7.8079633,8.0216676-15.8680345,15.779075-24.1420116,23.3174069-1.8684192,1.7022495-3.552541,3.5967858-5.4194832,5.304675-1.0520726.9624417-2.2009601,1.7412574-3.5508626,2.2131123-.2070576.072309-.4306314.1280346-.6084162.2479454-1.3027707.8787861-2.6637512.6514525-4.0286257.2184041-.9615689-.3050809-1.9235405-.6162044-2.8635577-.9807036-2.2504417-.8727436-4.4894026-1.7754313-6.7295049-2.6746277-.3119291-.1252819-.6870363-.1932269-.6965701-.6718628-.0053711-.2721155-.290646-.3424775-.4313028-.2122273-.4102882.3796055-.7776072.1210521-1.1548629-.0046326-3.0892128-1.0293124-6.0396488-2.3942541-8.9747098-3.7845744-8.9076376-4.2194356-17.8410567-8.3882481-26.6807494-12.7465277-4.7424506-2.3382599-9.3053036-5.0394748-13.9645687-7.5482014-2.4742841-1.332312-4.9814665-2.603393-7.4735425-3.9025381-.1896013-.0988962-.3771885-.2015186-.6311093-.3373749,1.8416306-1.0644598,3.7536903-1.7714365,5.6875032-2.4186256ZM21.5579689,113.814719c-.1097056.2043048-.1733536.4460063-.4341898.6114375-.301724-.964523-.4252602-1.9403254-.5584646-2.9100852-.5013962-3.6481474-1.6371243-7.1422772-2.5890251-10.6794434-1.4097236-5.2386099-2.691144-10.5031356-3.5607992-15.8625963-.2150471-1.3251281-.6399717-2.6046015-1.1241131-3.8511766-1.6108729-4.1482008-2.7770823-8.4143653-3.5642233-12.7918467-.9101402-5.0621679-2.3627658-9.9813291-3.773765-14.923989-1.6954013-5.9394098-4.8132154-26.0586368-4.6708801-27.3150143.6641418.0899666,1.2466423.4002844,1.8295455.6844179,4.2436729,2.0686285,8.3292998,4.4338113,12.4802533,6.6763977,2.9347253,1.5856285,11.2149463,5.806474,11.6338283,6.0081604,5.1226604,2.4668988,10.2421652,4.9407801,15.3798648,7.3761234,5.5741049,2.6422666,11.1684188,5.2425711,16.9221213,7.4783094.5257677.2043048.5290576.3746372.2341818.8060743-2.0607732,3.0150911-4.4007116,5.8188276-6.5834098,8.7412665-.9470668,1.2681268-1.884734,2.5441761-2.666101,3.9229485-1.8892324,3.3335998-4.0682379,6.4737042-6.3906529,9.5130997-3.1545394,4.1282604-5.8525316,8.551128-8.5873161,12.9581508-3.1725998,5.1123881-6.7058719,9.9999938-9.5593587,15.3123227-1.4755201,2.7469367-2.9423792,5.4983718-4.4174965,8.2454429ZM145.0052956,88.5405377c-.2247823.1849016-.499382.3265655-.8080884.2833949-.0461247.0502202-.099299.0946664-.1541518.1229992-.1256847.0649908-.2564721.0641852-.3896764.037128l.0150392.0028199c-.1453566-.0266543-.292123-.0324954-.4392252-.0262515-.0497502.0063111-.0976205.021216-.1466322.0311526.0635809.0822456.1231335.1632827.1880571.2457969-1.4919021.2991727-2.8542925.6240597-4.2339377.8370926-2.1281139.3285125-4.1936541.9880889-6.3372772,1.2075001-6.0991342.6241268-11.9585139,2.3971411-17.9199454,3.6830598-4.5486866.9811064-9.1167094,1.8720447-13.6729156,2.8187758-4.8367142,1.005008-9.6244166,2.2097553-14.3815036,3.5413288-4.3384064,1.2144154-8.7941722,1.9046744-13.1794418,2.9070639-4.8133497,1.1002786-9.5931297,2.3466523-14.3996312,3.4780164-5.106077,1.2019275-10.2684167,2.1518813-15.3602601,3.4229622-3.1311749.7816356-6.1768143,1.8676135-9.3304809,2.5639151-.0625738.0138307-.1256847.0195375-.1885271.029407-.8453508.3272369-1.735282.5420826-2.6375669.6433286.0277285.0116822.0552556.0237673.082917.0355838-3.2360464.854616-6.3574861,1.8683521-9.8031414,2.1825639,2.7242437-5.3459656,8.4688153-15.5781943,8.4610271-15.5051467.5129441-.6997256,2.5725089-4.3915136,3.2469901-5.4405649,4.9521266-7.7034945,9.7777628-15.4909132,15.184758-22.8930195.3491243-.4779646.692206-.9715055.9561977-1.4986831,2.0197511-4.0329226,4.6853151-7.62756,7.4770337-11.1423688,1.2162953-1.5312457,2.3670627-3.1161357,3.3499818-4.8101941.2421043-.4170692.4689008-.3285797.7987561-.1886614,3.0703467,1.3029721,6.1130991,2.6686523,9.2203053,3.8880361,3.5214556,1.3819279,6.6614257.9108116,9.4576427-1.670694.2904446-.2680872.6055964-.5090501.9015463-.7713633,1.9589901-1.7364234,3.7984722-3.5972558,5.6375516-5.457014.3626864-.3668491.6966372-.4353311,1.1667465-.3071622,3.5701315.9737211,6.9370996,2.4558879,9.9556819,4.5598989,4.3386749,3.0240206,8.8993124,5.624258,13.6095361,8.010791,5.3813481,2.7265264,10.2584801,6.2806116,15.2800287,9.5969567,1.9668454,1.2989438,9.4689892,6.5437305,9.4248116,6.7373602,3.1513167,2.5408191,6.0424015,5.3603335,8.812837,8.3080838.1405897.1495863.4091468.3269683.1549575.5361072ZM66.6182993,47.9924373c2.3861974,1.4432932,4.8215407,2.8165602,6.8930562,4.7215703.2088703.1921526.4586285.3397248.6888491.5087815.4350626.3195159.7217473.2284079.85898-.3030667.2084003-.8072156.3945776-1.6213466.6368833-2.4183571.8644183-2.8424088,2.2132466-5.4941421,3.2768-8.2584679.6942202-1.8045026,1.3803837-3.612765,1.4226815-5.0510899.0178591-1.9309259-.317636-2.92781-1.091282-3.9009268-2.2542687-2.8356949-6.864992-2.2454734-8.4884199-.0420292-.2606347.353824-.5620901.6818666-.7867382,1.0565038-.2375388.3962561-.4448649.3783299-.7710276.1064829-1.1881639-.9900359-2.5794242-1.189171-4.0356753-.8763691-3.6010156.7735117-5.7263097,5.3603335-4.1674026,8.8398941,1.1568099,2.5820427,3.2362479,4.209499,5.5632955,5.6170741ZM64.8767062,34.6315179c1.265307-.5728324,2.7527779-.3048795,3.7698709.7030826.3430818.3400605.6751527.6911318,1.0116548,1.0377719.3179717.3275726.5935784.2444541.7778758-.122932.1858415-.3704746.3485872-.7580025.4715863-1.1536544.9231652-2.968295,5.4506358-3.6126307,7.4470225-1.4228829,1.0372348,1.1376081,1.0079621,2.4777082.7722361,3.8472154-.4953537,2.8774555-1.6016077,5.5576558-2.7505623,8.2171772-.7986218,1.8486131-1.6557219,3.672049-2.516179,5.5718893-2.9719876-2.2788416-6.3669528-3.7734964-9.252465-6.0547551-1.1733262-.9276635-2.0669501-2.0617132-2.6590514-3.4574047-1.0955789-2.5829826.6620605-6.1394849,2.9280114-7.1655074Z"/>
  </g>
</svg>