<?xml version="1.0" encoding="UTF-8"?>
<svg id="Layer_2" xmlns="http://www.w3.org/2000/svg" viewBox="0 0 110.0309137 130.0712941">
  <g id="Layer_1-2" data-name="Layer_1">
    <path d="M40.1522856,122.3204253c1.6002456-.2896329,2.0190245-1.1435196,1.3353474-2.2164563-.6240752-.9793967-1.6547337-1.3402125-2.6699267-1.7081977-2.8100757-1.0185948-5.696309-1.8167789-8.4236282-3.0758444-9.2498099-4.2701943-17.1909751-10.2013407-22.8909713-18.7255906-8.5927441-12.8502784-9.9762735-26.3874821-3.2629719-40.5328929,2.0050989-4.2248875,4.3362158-8.2682477,6.6894045-12.3009123,3.8234324-6.5522294,7.5219108-13.1726422,10.3458207-20.2293187,1.4604112-3.6494185,2.5321773-7.4130918,2.0179637-11.4303675-.2167748-1.693577-.7950749-3.2354827-1.9376946-4.5128743-.2874309.0443411-.2369664.2334768-.2078202.3677621.6465274,2.9796306-2.2483751,4.6156944-4.7722051,4.1587342-2.5093301-.4543337-4.310958-2.353518-4.7059824-4.9388922-.3505297-2.2942636.8087408-4.3565391,3.076598-5.5772734,3.4920482-1.8796876,10.8053486-1.2743116,13.8562461,4.7679839,1.4528759,2.8774104,1.7774052,5.9330047,1.6932515,9.0779323-.0199063.7435204-.151825,1.3984536,1.0266642,1.3428498,1.7778369-.0838794,1.9925705-.1510532,2.0552085-1.3442288.0194308-.3700556-.0429584-.6076073-.4038181-.749523-.2962537-.1165079-.5917173-.2495057-.8603465-.4184241-.421515-.2650481-.7649411-.6155961-.6854694-1.1665973.0927791-.6432462.6702964-.5089901,1.0518671-.522572,3.2776657-.1167164,6.2702489-1.058883,8.9718018-2.9364344,1.0812547-.7514544,2.1961622-1.456446,3.3165858-2.1488948.8130937-.5025157,1.6272995-1.0212541,2.5506132-1.3064024,3.1623173-.9766131,5.1777424-.1391833,7.3014049,3.0898908.5248362-1.5028722,1.4067278-2.5971747,2.8916762-3.1611139,1.7024109-.6465274,3.3678916-.4830958,5.0392688.0612553,1.8710842.6093996,3.5539033,1.6174121,5.2900474,2.5128965,1.5252293.7866946,3.0538385,1.5480583,4.7742097,1.8587022,2.9556749.5337212,4.2084781-.1353827,5.2499714-2.8964644.0500109-.1325917.1135999-.2600697.2394318-.5454485.4152015.7817601.158797,1.3944811-.0392566,1.9615003-1.16535,3.336386-4.5885198,4.9902675-8.0440108,3.9069314-1.5786859-.4949328-2.9730792-1.3490243-4.334032-2.265004-1.4232688-.9579285-2.7888964-2.0140168-4.357289-2.7337206-2.1349874-.9796967-3.904711-.6893468-5.1149655.789204-.8793603,1.0743084-.7914462,2.1594661.2926543,3.029667.9380185.7529468,2.0235091,1.1278382,3.2316492.9611182.5583133-.0770428,1.192594-.2832938,1.183442-.9718687-.0099641-.7492304-.6913806-.9339436-1.2864559-1.0022001-.4900349-.0562183-.9993177.0553807-1.7287697.1096128.8940797-1.0739133,1.8173642-.9000568,2.688882-.5510231.8752269.3505151,1.245641,1.1019768,1.1085647,2.0395417-.1458407.9974192-.8502873,1.4428789-1.7691091,1.4575178-2.1528526.0343148-4.0230882-.5791561-5.239166-2.7352606-.703342,1.350557-1.7242266,2.1804222-2.9937391,2.7042891-.5209369.2149678-1.0692495.3376575-1.6377976.2913887-1.0287711-.0837258-1.8897761-.4778431-2.203895-1.5323951-.2560094-.8594943.2635813-1.4705326.9353116-1.8915355.921097-.5772796,1.8801997-.7640339,3.0387825.1436862-.879214.0567487-1.5267363.0601469-2.1621144.1497217-.7203951.1015617-1.1702369.5602045-1.161875,1.2958823.0078133.6883921.5810509.9070836,1.1394227,1.0426236,1.2288.2982839,2.8810683-.406075,3.5556811-1.4891916.6356341-1.0205335.4320425-2.2067372-.5444352-2.9908055-1.3974952-1.1221282-2.9375537-1.0944561-4.5258672-.4959534-1.2828565.4833958-2.4158852,1.2393786-3.4995981,2.0560425-2.7885892,2.1014042-5.5982625,4.1407776-9.2316228,4.5115209-.2078275.0212085-.573084.0529335-.4270458.3903826.1915206.4425406.1337257,1.1390204.797694,1.2023716.710987.0678395,1.4375859.0261211,2.1532038-.0255505.5724914-.0413343.392837-.6081157.5529728-.9363798.2204253-.4518573.2675611-1.1253837.8796018-1.1612458.638597-.037424.8285959.6039567.9224066,1.0875793.244509,1.2605579,1.2042993.8799419,1.9800239.9536634.7803116.0741567,1.3332259-.1503289,1.4474769-1.0237854.0254151-.1942933.1136438-.382006.1844755-.5683689.141656-.3727076.2647226-.8387722.6980087-.8954149.4896545-.0640097.5890617.4533827.769989.784723.838999,1.5364115,1.5180305,1.8178434,3.3240991,1.4917997.4974165-.0897979.534932-.4050544.6177177-.7374592.1333014-.5352393.3440772-1.0466656.9538206-1.0791185.5807363-.0309166.6445521.5694517.7394235.9466841.1881553.7481184.648788.9881574,1.3174457.8523138.8049073-.163523,1.9135964.5142539,2.3265811-.8065388.1448311-.4632115.3399584-.9848726.8878686-1.0120947.4796025-.0238239.7614587.4437917.9392622.8301469.3174696.689837.7986962.8947821,1.5232686.8037551.7113601-.0893699,1.4337231-.0946776,2.1517187-.1265525.550244-.0244348,1.0092086-.0882726,1.0647722-.8203766.0306606-.4040888.3309819-.7372434.8085433-.7449762.4832897-.0078243.7377482.3247342.8216166.7317053.1240542.6020655.4725062.7281645,1.0292174.7099701,4.7508869-.1552854,9.5020591-.3061301,14.2541164-.4159257.7265916-.0167861.8333439-.3268301.8479609-.9402169.0782499-3.2834927.8301542-6.3951919,2.4215623-9.2916234,2.3074357-4.1996406,7.8360077-6.2331358,12.1936113-4.4659544,2.4154463.9795577,3.5393156,2.985443,3.2974403,5.8851995-.2117195,2.5380117-1.9907196,4.6663051-4.3073001,5.1530223-1.8782171.3946111-3.5266885-.4133103-4.4678528-2.2192655-.2566971-.4925588-.4443915-1.0210749-.7146376-1.6518696-1.9116943,2.73965-2.6886625,5.6990304-2.0970183,8.8863861.807285,4.3490404,2.8762691,8.2145131,5.3309428,11.8104238,4.4124282,6.463891,8.9420997,12.8508783,12.7959219,19.6702299,4.2579037,7.5343769,6.7004916,15.6167226,6.6040254,24.329018-.094491,8.5337385-2.495847,16.3732285-7.0021371,23.6788693-5.071451,8.2218728-12.4815908,13.6559832-20.6495169,18.2964891-1.7506586.9946136-3.5796257,1.8513827-5.3674194,2.8668903,2.3694591-.0064233,4.1589062,1.0832227,5.636334,2.7657126,1.3298679,1.5144604,1.4562851,2.8573797.4662658,4.607892-1.476067,2.6099151-3.9265707,3.8275-6.700477,4.3801509-3.8899331.7749637-7.8400314.849424-11.577108-.6055003-4.731478-1.8420624-9.4070194-1.7416456-14.2026205-.4223124-2.879949.7923168-5.7638851,1.6008894-8.7613479,1.904832-2.1362677.2166065-4.2249387.0695587-6.2971345-.4468204-2.4509865-.6107531-3.9781545-2.1021833-4.166778-4.0564117-.2236663-2.3171803,1.0261667-4.3476833,3.6613506-5.5636733-.5874595.6893688-.983713,1.1293123-1.3524957,1.5912179-2.4063162,3.0139234-1.4241906,6.1742069,2.3019195,7.1899632,3.4533841.941413,6.8899272.4856527,10.2935858-.381856,1.739107-.4432503,3.4838764-.8669966,5.2121487-1.349445,4.2438647-1.184693,8.4313683-1.1037947,12.5871287.4178059,3.7534859,1.3743188,7.6207693,1.7200932,11.5555044,1.0484872,2.2120082-.3775689,4.2014403-1.2786426,5.7224118-3.001589,1.2272271-1.3901941,1.3990901-2.8885012.5527241-4.3497171-.6655777,3.6355185-2.6891015,5.3729941-6.6295722,5.7020299-2.6559169.2217861-5.2602282-.1341427-7.8443843-.6982063-6.3457553-1.3851608-12.5956151-.9365261-18.8292995.778607-3.2657994.898557-6.5906448,1.660323-10.0419365,1.1549176-.6375509-.0933644-1.2511278-.2380418-1.8439133-.4849943-1.8750859-.7812407-3.0978796-2.7346204-2.8387683-4.5395478.2898231-2.0188855,2.1790505-3.9327891,4.1115729-4.1652709.8964428-.107835,2.7120146,1.2656497,2.9198348,2.1591296.1363228.586128-.3900351.7973355-.7917462,1.3411196ZM29.2718549,15.1203833c-.0878043-3.3857165-.4003796-6.5082724-2.1204875-9.3053296C24.6591344,1.7624462,19.3849989.1491126,15.2114025,2.1603641c-2.2340435,1.0765799-3.3936944,3.3367957-2.8199081,5.4961301.6151645,2.3150697,3.0682287,4.166233,5.3676974,3.9671734,1.3008022-.1126086,2.4032142-.6730947,2.90821-1.973158.4389852-1.1301207.0456068-2.1191414-.7389041-2.9614032-.4392559-.471599-1.8793876-.4932173-2.2372844-.0103299-.640843.8646519.4007235.7856814.69359,1.1250399.1257661.1457382.3470986.2446151.183122.4804512-.1197671.1722434-.3479911.3259669-.5090048.2242661-.5818922-.367528-1.4816783-.4290247-1.6953072-1.1309071-.200797-.6597434.4001602-1.1645855.9120181-1.5628216.4551897-.3541547.9760022-.4932282,1.5703313-.4392266,1.4085275.1279828,2.4760212.8542378,3.3569252,1.8851342,1.3831197,1.6186083,2.1846983,3.5220979,2.5312921,5.6047918.6309813,3.7915977-.2340766,7.404075-1.5925933,10.8860822-2.7243783,6.98286-6.5452941,13.4018027-10.5253872,19.7181558-2.4306558,3.8574217-4.6249671,7.8288236-6.5477997,11.9598492-2.6351035,5.6612662-4.1886998,11.5575675-3.8144778,17.8431284.3107244,5.2189377,1.5676793,10.2135874,3.5547629,15.0703926,5.6216584,13.7404369,15.6560524,22.7458622,29.4358337,27.8195811,1.7961191.6613492,3.5967301,1.3105688,5.398058,1.9576083.8702522.3125899,1.521725.8621974,1.9073852,1.7076271.5025376,1.1016439.2092468,2.2223235-.7393065,2.8581259-.8921191.597965-2.3802646.4551165-3.083804-.3284799-.4867208-.5421308-.5804583-1.1148709-.008501-1.6907568.1875262-.1887918.7338781-.1778181.4561554-.6541943-.1936787-.3322402-.5366439-.4385535-.9303369-.420147-1.2227352.057195-2.9022842,1.5716847-3.2828599,2.9790563-.4356126,1.6109559.0290438,2.8734745,1.3746407,3.7345599,1.0799745.6911099,2.2870246.9175635,3.5408446.9359701,2.7458209.0403247,5.4002162-.5405213,8.0035325-1.3232544,6.2682151-1.8845672,12.5970928-2.4455874,19.0378513-1.0449464,2.534277.5511146,5.0547198,1.2589045,7.6758427,1.1253179,2.5876897-.1318602,4.9169265-.8508579,6.025418-3.5280785.5585767-1.3490938.1299141-2.6686318-1.0229697-3.4999566-1.1143734-.8035539-2.7923568-.8051634-3.8150777-.0036725-1.2039336.9435054-1.1084769,1.7623639.2566386,2.361836.3293578.1446336.8509165.1986242.6215951.8014909-.2834584.7452176-1.8547187,1.2819786-3.1191248,1.0274031-1.0069188-.2027211-1.7251411-.7563084-1.6238318-1.8742812.1570851-1.7335982.9577858-3.121934,2.5366692-3.9454308,1.6620057-.8667918,3.3728663-1.6401607,5.0320481-2.5120296,13.977791-7.3449267,23.4005394-18.2604514,26.6378437-34.0211418,1.1993539-5.8391063,1.7184252-11.6939196.4186106-17.5861532-1.9028129-8.6258079-5.4606375-16.4712897-10.9548838-23.4338043-4.7952207-6.0766945-8.3760169-12.8078979-10.5585425-20.2606816-.6573694-2.2447721-1.1437391-4.4967247-.6230144-6.8373924.6088071-2.7366067,1.5696801-5.2974913,3.9125097-7.0670759.8388307-.6335747,1.7764249-1.1332957,2.8861601-.7958869.5390289.1638888,1.0880219.457026,1.0996394,1.1179362.0121881.6932937-.4698652,1.0575442-1.0933624,1.2492879-.3375807.1038187-.7765586.3294163-.9369065-.1194745-.1601284-.4482836.3667708-.3866954.619254-.5178752.2523223-.1311066.7497388-.0315604.6488392-.5101241-.0798155-.3784724-.4527462-.5206223-.8289837-.5847088-1.4573386-.2482547-2.7367128,1.1745386-2.3432539,2.6564693.3904887,1.4706972,1.3593652,2.4589863,2.8223224,2.8189242,1.4936542.3674841,2.783373-.1477135,3.7174556-1.3584947,1.3285218-1.7220392,1.6026598-3.6449449.7208999-5.6386823-.9044389-2.0450249-2.5527787-3.1307862-4.7797112-3.2570534-4.4028445-.2496374-7.8056764,2.0464149-9.7633139,6.6628738-2.0981011,4.9477041-1.8993598,10.0654386-.829247,15.1833999,1.0402935,4.9752481,3.4410935,9.4211901,5.6806531,13.9209398,2.7898841,5.6054466,5.7323466,11.1355038,7.9447207,17.0153591,3.5161245,9.3448642,3.8636401,18.6934303.1111564,28.0385286-1.8963018,4.7224137-4.9571927,8.7460798-8.1466517,12.6391295-5.9154028,7.2203531-12.350711,13.7667591-21.3898695,17.2048386-4.070063,1.54804-5.6378483,4.6670769-5.4138529,9.0373515.0122686.2393587.0093789.4818485.0483575.7171103.1607064.9699593-.6065757.9836545-1.1928208,1.1271907-.6705891.1641521-.9431396-.2447138-1.0120838-.8474195-.0272368-.2380418-.0627184-.4766104-.0677956-.7155008-.1171261-5.5189445-3.2316127-8.6890019-8.1694624-10.4300915-.5263213-.1855728-1.0528694-.3735891-1.5882404-.5298841-3.3349485-.9736465-6.600009-2.1280666-9.7600218-3.5852589-6.7227171-3.1001183-12.8751521-6.9661726-17.2186289-13.1432473-4.9400298-7.0254745-8.1453129-14.6799405-7.487841-23.469447.6625124-8.8567827,3.13282-17.2416444,7.1532305-25.1643591,1.3720874-2.7038794,2.8281823-5.3678072,4.1186838-8.1098678,3.1764953-6.7494783,5.1116514-13.8275096,5.4046203-21.1117919ZM77.7727108,101.2329548c.4153332-.3335863.6444936-.4888863.839972-.6788633,4.4284938-4.304125,8.4130349-8.9721969,11.5595208-14.3075731,3.1416136-5.3271313,5.3634104-10.9660184,5.5095071-17.249187.1121806-4.8249448-1.0102109-9.4180589-2.7458868-13.8833146-2.1883635-5.6298156-5.1786423-10.8715274-7.9011477-16.240849-3.4346995-6.7738985-5.6559842-13.8762988-6.0734682-21.4891268-.0425926-.7767012-.3278653-.9032245-1.0097427-.8827-4.3516485.1310152-8.7047748.2135119-13.0565769.3406204-1.98276.057912-2.3571612.5235376-1.9962065,2.4834467,1.2932669,7.0222812,2.6247077,14.0375575,3.911405,21.0610348,2.6885016,14.6754193,5.3695703,29.352214,8.0287501,44.0329519,1.0011978,5.5274308,1.933349,11.067357,2.9338738,16.8135598ZM14.647178,69.1797293c.0219767,1.5694168.1698292,3.1191028.3824559,4.6630459.7929387,5.7577032,3.3931457,10.7162055,6.5563044,15.5052223,5.2338986,7.9241633,12.1000275,13.7179188,21.0386814,17.0168223.932656.3442088,1.2119005.3008846,1.1264591-.8324953-.9038464-11.9897636-2.7345985-23.8735869-4.0483497-35.8160392-.9646407-8.7689637-2.0294422-17.5269098-2.9956851-26.2957052-.852643-7.737793-1.6421506-15.4826311-2.4259884-23.2277546-.0905624-.8949832-.5788708-1.5440492-1.1935597-1.9830271-.7401112-.528549-1.7130481-.2340766-2.5474893-.089882-.6253481.1080618-.4438648.8536672-.5026766,1.3290741-.4767786,3.8538589-1.3109638,7.6191452-2.5847853,11.2934375-2.1485363,6.1973761-5.1287338,12.0282667-7.826146,17.9850477-2.9438745,6.50107-4.5909559,13.3275106-4.9792206,20.4522534ZM58.8800783,17.1129867c-.9217116-.1466491-2.0852106-.2342522-2.3376646,1.4586847-.0605895.4063713-.0747237.7831245-.0192406,1.1736827.3480131,2.4494502.6813287,4.9012121,1.0561615,7.3465947,1.6385804,10.6901173,3.3028906,21.3763133,4.9325165,32.0677987,1.5635495,10.2579285,3.1032202,20.5195076,4.6388013,30.7816647.7914243,5.2890378,1.5610694,10.5814263,2.3134785,15.8761412.1025238.7214705.243953,1.0006418,1.0084551.5785928,1.8898053-1.0432784,3.771534-2.0879321,5.4201225-3.5036437.3825291-.3284945.630418-.6168106.5313473-1.204987-.7555622-4.4857327-1.435318-8.9842826-2.2012394-13.4681571-1.5385294-9.0069689-3.1049906-18.0092265-4.6814452-27.0096551-2.4300852-13.873987-4.8723586-27.745845-7.3242815-41.6159912-.4317718-2.4424124-.5214563-2.4823896-3.3370115-2.4807253ZM57.8976748,114.1349267c.8782849-.735751,1.6769738-1.5445869,2.6085032-2.1485216,1.0799818-.7001962,1.1952789-1.5537024,1.035648-2.735908-.9662868-7.1561642-1.8734838-14.3204635-2.772787-21.4854945-1.2372059-9.8571904-2.4430635-19.7183167-3.6746874-29.5762168-1.5679536-12.5498986-3.1538529-25.0975439-4.7121935-37.6486312-.121501-.9785335-.4049008-1.8643646-.9612462-2.6677612-.3861723-.5576732-2.5581704-.8365775-2.7830438-.2833925-.3481155.8563411-1.0054849,1.6120167-.8780728,2.6673698.3730185,3.0898396.6668653,6.1891239,1.0174901,9.2817873.98443,8.6828566,1.9691014,17.3657206,2.9775126,26.0458191,1.0682326,9.195095,2.1295444,18.3912142,3.2573204,27.5791104,1.1132395,9.0695191,1.8783342,18.1778047,3.0884057,27.2370744.2197816,1.645428.8564106,2.9216711,1.7971506,3.7347648ZM52.7023744,17.2210522c-.8696303-.2104063-1.3106639.1955479-1.4505495,1.2051553-.1005119.7254832-.1167018,1.4258074-.0305362,2.1398926.5068539,4.2002551,1.0346384,8.3980741,1.5213373,12.6006556,1.2856804,11.1017048,2.9906445,22.1463242,4.4963259,33.2180634,1.0862734,7.9876864,2.1420033,15.9795355,3.2298276,23.9670098.8346315,6.1283661,1.5055717,12.2794843,2.5703586,18.3765679.1315309.753148.2872626.9679987,1.0385304.6117626,1.0792722-.5117848,2.1921751-.9650724,3.3213337-1.3545807.6842331-.2360227.8952869-.5088146.776939-1.2851976-.547186-3.5896923-.9796455-7.1966938-1.4960758-10.7913315-1.5548291-10.8224969-3.1266893-21.6425722-4.6974888-32.4627792-1.3930838-9.5960014-2.8001189-19.1899909-4.1881914-28.7867165-.714023-4.9365475-1.393691-9.8780478-2.1039903-14.8151366-.1539539-1.0701128-1.8836235-2.6203438-2.9878206-2.6233653ZM49.5021027,108.5886065c.0456872-.2339742.0969491-.351115.0861656-.4622275-.497497-5.1257929-.9615169-10.255229-1.5118999-15.375374-.8020322-7.4611895-1.6713333-14.9151364-2.5032287-22.3731436-.7743785-6.9423304-1.4867847-13.8920131-2.3186874-20.8273862-.9411058-7.8458182-1.8920074-15.6929168-3.0361635-23.5105545-.3836045-2.6210571.2069862-5.5396372-1.8880349-7.7915861-.2946881-.3167563-.4821704-.5196859-.931844-.5304328-1.9947067-.0476479-2.6964758.6804435-2.4595679,2.6854253,1.0022513,8.4822974,1.9293034,16.9746795,3.0459155,25.4419978,2.1346582,16.1872021,3.586627,32.4528444,5.68445,48.6434044.5025669,3.8787253.9968522,7.7586357,1.5299553,11.6331764.0584094.4245803-.045636,1.0020465.5720671,1.2069184,1.235911.4098902,2.4676373.8324075,3.7308728,1.2597824ZM54.4863273,110.8891946c.0580217-.1685709.1103883-.2435726.1040162-.3131752-.6804069-7.4349989-1.444375-14.8615116-2.4026436-22.2660475-1.1632796-8.9886063-2.0464807-18.007895-3.0199004-27.0173587-.7719277-7.1446052-1.5495617-14.2886178-2.303807-21.4350885-.6745103-6.3910841-1.6897253-12.7470377-2.0323393-19.1710832-.0696758-1.3065378-1.1297366-1.9530944-1.6243366-2.9636309-.0625868-.1278657-.3408216-.1929545-.52657-.2110831-1.6825704-.1642143-2.4919477.7040845-2.2815523,2.4185079.2820318,2.2981336.5818117,4.5944273.8322831,6.8960542,1.2999755,11.9457517,2.9388632,23.8495691,4.446476,35.7692911,1.2774721,10.1000899,2.3949108,20.2171891,3.5253717,30.3336372.5762371,5.156768,1.2077085,10.3077272,2.0325368,15.432013.0643425.3997505-.0440192.9008396.4751765,1.1489333.9278422.443382,1.8427501.9138032,2.775289,1.3790301ZM32.0732174,13.1933075c.8260866.8689755,1.6399631.7917206,2.4241667.8017359,3.5101109.0448423,6.3380298-1.6663037,9.0669586-3.5818863,2.3414688-1.6436137,4.5098968-3.6591193,7.7576993-3.1148596-1.3147169-.7644326-2.6138071-.7028116-3.9566094-.2773606-2.1738051.6887579-3.9218666,2.1004056-5.7761098,3.330837-2.0152056,1.3372386-4.1480349,2.3855063-6.5743232,2.691779-.8899756.1123452-1.7962215.0958627-2.9417822.1497546ZM75.9882238,10.9984841c-1.9296619.6246677-3.7126271.4447427-5.4784588-.1999813-1.3160995-.4805207-2.5653545-1.0982274-3.7983831-1.7534423-1.5158577-.8055109-3.0397116-1.5888256-4.7090258-2.0411292-1.5095954-.4090306-2.4075159-.4607973-3.6780599-.0962505,3.0504659.0613906,5.3944001,1.2944338,7.6539319,2.7661991,1.3358669.8701314,2.6634961,1.7582707,4.1677217,2.3369294,2.2235233.8553681,4.4727398.5139503,5.842274-1.0123252ZM75.0440893,118.2442756c-.8449321.3838605-1.2375716.8920021-1.5963097,1.4077666-.4602522.6617443-.9464317,1.4449163-.3286408,2.1754731.5898152.6974454,1.4608209.6550576,2.3591584.3065032-2.1154542-.8225165-1.8528459-1.8669947-.4342079-3.8897429ZM97.6445863,47.8567921c1.2269637,1.5775081,2.3793501,3.1827357,3.0874473,5.0903185,2.5788961,6.9476416,3.5483726,14.1286576,3.2626024,21.5074199-.3549192,9.1640321-3.1343855,17.4428658-8.900897,24.6579222-3.2914852,4.1183181-7.141913,7.6214789-11.4387807,10.6558574-1.0482092.7402429-2.1471024,1.4328745-2.8857943,2.5527055,1.9658312-1.1915406,3.9239224-2.3981517,5.7458077-3.7838539,8.3875174-6.3794446,14.4252113-14.4168566,16.9249064-24.7931184,1.774713-7.3668522,1.4981901-14.8004538.2950027-22.2361185-.6611005-4.0855652-1.6024403-8.0584888-3.8750528-11.5936856-.9260937-1.4406-1.8895712-2.8552728-3.325694-3.8666469.1823392.7373312.6785999,1.2539737,1.1104521,1.8091998ZM6.8491028,57.8246707c-1.1631918,2.9255777-2.4664521,5.8359897-2.7047244,9.0173281-.2988289,3.9898524-.1968392,7.9837578.4246828,11.9503753,1.8784366,11.9882638,6.8378643,22.0211507,17.7454806,28.3990444,3.9258757,2.2955402,7.6986534,4.8552981,11.9502363,6.5474156.6189687.2463379,1.242444.5604934,2.0936604.4859892-5.2690218-2.4233766-9.9529982-5.5440523-14.6799478-8.5883803-7.6795738-4.9459556-12.7008749-11.8774074-15.2737611-20.6079046-3.135739-10.6403844-3.1242422-21.0199529,2.6217192-30.91302.167254-.2879722.4514879-.5781611.2413705-1.1042337-1.0718247,1.5367883-1.7656853,3.170928-2.4187164,4.8133858Z"/>
  </g>
</svg>