<?xml version="1.0" encoding="UTF-8"?>
<svg id="Layer_2" xmlns="http://www.w3.org/2000/svg" viewBox="0 0 150.7038981 83.4914074">
  <g id="Layer_1-2" data-name="Layer_1">
    <path d="M145.8315459,41.5312434c-1.8917754-1.3881829-3.8695629-2.6368868-5.8386635-3.9046773-4.1806989-2.6914549-8.8166621-4.0243356-13.7006287-4.6141849-1.4218291-.1717794-1.4152222-.1438836-1.5905498-1.5876134-.264276-2.1745262-1.0093874-4.1145076-2.7637637-5.5505293-1.2835737-1.0507416-2.7056475-1.8538469-4.2815153-2.3726109-2.8239599-.9297375-5.7361342-1.0403419-8.6710656-.8916867-1.5199538.0768358-3.0385618.1799768-4.5569251.2837296-.3292438.0225124-.4993103-.0259382-.5376058-.4214957-.0918848-.9496806-.5481279-1.7412849-1.1905877-2.4369669-.8926655-.9665649-.9088157-.9838162-.2344226-2.0672253,1.8586186-2.9860737,1.6620022-5.9327506-.2067715-8.8055282-1.6733807-2.5725307-4.0934634-4.3234813-6.7559213-5.7281815-3.554634-1.8753805-7.412696-2.7408843-11.3807506-3.1610341-6.0885022-.6449068-12.0815713-.1778969-17.919256,1.7182831-4.7748304,1.5509084-8.861381,4.1751931-11.9827126,8.1612332-2.7381926,3.4965178-3.2192116,7.2493588-.6670521,11.0359684.1931906.286666.1098703.4630947-.0488788.6860164-.3299167.4635841-.6321212.9576333-.5223732,1.5490731.0627655.3385424-.0336462.5727203-.21815.8239048-.6925621.9430737-1.0534945,1.9803568-.7977219,3.157853.1159878.5339353-.0628267.6192133-.5703956.5728426-2.1571525-.1972282-4.3207284-.2833626-6.4750058.0227571-5.3624774.7622404-10.2498698,2.6315034-14.3769794,6.2435196-.2325261.203468-.4840165.313216-.8013924.3504103-1.768569.2066491-3.5556128.2542433-5.304667.6305918-7.6169593,1.6392451-14.1985319,5.1930226-19.7510188,10.6580293-1.711921,1.6848816-3.26026,3.4912567-4.0792708,5.7931493-.8360174,2.3497314-.9633226,4.6549274.6121781,6.8070636.5418881.7403397.8259236,1.5890816.8893008,2.5133133.0853391,1.2424641.6576312,2.2473245,1.5559247,3.0857889.663871.6197027,1.4143658,1.1181565,2.2092125,1.5450356,1.2371418.6642381,2.4224685,1.4072695,3.5549399,2.2359459,4.2641416,3.1202916,8.8900721,5.4423719,13.9520579,7.072196,9.8445243,3.169721,19.8614397,5.2849075,30.1891852,5.9274896,3.7974376.2363802,7.572791.6672968,11.2940657,1.5195868,2.9897442.6847929,6.0109323,1.1865501,8.7093611,1.0979687,4.8019921-.1050986,9.1725782-.646375,13.5369244-1.2549438,4.4795999-.6245967,8.9615244-1.232309,13.4391667-1.8701195,4.5773575-.6520031,9.1468847-1.352212,13.5297057-2.9107061,4.2207073-1.5007449,8.4469204-2.9847278,12.7018858-4.3866139,2.167797-.7141568,4.3298435-1.4809242,6.3109344-2.6154756,4.1946468-2.4022196,8.1848468-5.1097023,11.8050604-8.3344808,1.761595-1.5692609,3.3522672-3.2694362,4.3990936-5.4205936,2.4742837-5.0849876,1.9044998-11.2166793-3.4649515-15.1570828ZM125.3080704,33.6116514c2.0143701.3066091,4.0216439.6507796,5.9900104,1.1914441,3.3440697.9182366,6.4419713,2.3674722,9.3184193,4.2980325.1326274.0890708.2634195.1812003.3921317.2758992.1121949.0825862.2203523.1710453.3302226.256935l-.0455142.0789157c-.289113-.1640713-.5820189-.3219028-.8667273-.4931928-3.6561845-2.1988739-7.6424693-3.5141362-11.7852397-4.4147544-1.053678-.2291615-2.097201-.5076301-3.1729021-.624719-.0787934-.0085645-.1567303-.032178-.232832-.0555469-.1920895-.0589727-.4299378-.110115-.4017973-.365337.0369497-.3370742.3236157-.1706782.4742285-.1476764ZM124.4452584,36.0540018c.5598735,1.0057169.7112204,1.962249.5652569,2.9684553-.1840144,1.2692587-.8659932,2.2977327-1.6126951,3.3019813-2.285253,3.0734316-5.4374779,4.8172858-9.0094856,5.9278566-.9677884.300981-1.9380237.5943762-2.9428841.9023311.0194536-.1095032.0149267-.1623584.0325451-.17129,1.3141612-.6622805,2.4011184-1.6398568,3.5563469-2.5272612,1.2027003-.9238647,2.6056876-1.4859405,4.0414646-1.9224853,1.8553151-.5637887,2.998431-1.8156737,3.7327756-3.5410532.5888705-1.3835336.9384244-2.8434136,1.40886-4.264631.0604409-.1821791.1228394-.3636241.2278157-.6739037ZM48.4243204,53.741527c3.200125-.4843836,6.4101603-.6686427,9.6366516-.3097902.5160722.0573821,1.0378949.1183124,1.538551.2488599,2.0466705.5333236,4.0546784.2714946,6.0431103-.2763886,1.7745641-.4890329,3.5124233-1.0922183,5.1751595-1.8910413.347841-.1671301.7084064-.3374413,1.0489064-.8113027-1.0914842.1071786-1.893733.5297754-2.7317081.8275753-2.2651876.8046958-4.5412643,1.5684044-6.9685656,1.6900203-1.5608187.078304-3.0843207-.2363802-4.6132061-.4843836,2.8308115-.5871576,5.5817285-1.4877758,8.4557296-1.8326804,1.2501721-.1501234,2.4780765-.453062,3.6778405-.8499653,2.0116784-.6655839,3.7180936-1.7595151,4.9576213-3.591339.3544479.6157875.5258602,1.2461346.7414409,1.8562939.0922519.2608502-.1139078.4584454-.2319756.6550618-.9887102,1.6468308-2.5272612,2.5960219-4.2667109,3.2404393-2.6930455.9978865-5.4837262,1.6178338-8.3333796,1.950014-2.8232258.3291215-5.6482869.6951926-8.4872959.805797-3.4676432.1350744-6.9190138-.271617-10.3594953-.6496784-2.6034853-.2861766-5.2161468-.5357706-7.7955291-1.014159-1.3038838-.2417636-2.5661685-.6242296-3.6938683-1.3563719-1.3013756-.844949-2.0553574-2.0383507-2.2872106-3.5737206-.0712077-.4711698.0976353-.5668475.4844448-.3616665,2.0292356,1.0760681,4.2624899,1.5967896,6.4056945,2.3623335,1.0806562.3860142,2.1112713.8915643,3.0314043,1.5644892,2.5959607,1.898627,5.4914954,2.2678793,8.5723903,1.8016035ZM40.7836252,51.4335169c1.4101447.2120325,2.8076262.4400929,4.2213803.5760237,2.2035844.2119102,4.4011736.0619091,6.5990075-.0411096,2.818393-.1322603,5.6347673-.3075879,8.3992651-.9357327.0973906-.0221453.2011434-.0285075.29156-.0669254,2.9104614-1.2376924,6.0597499-1.7647761,8.9647055-3.0243692,1.643772-.7126886,3.2251455-1.5082082,4.5203424-2.7796692.0516317-.0507752.1234511-.081118.2557115-.1655395-.0983694.6495561-.4017973,1.109592-.7504948,1.5422215-.7736189.9594686-1.8091892,1.5599623-2.8967582,2.0864342-1.7992788.8710095-3.7178489,1.3352054-5.6737357,1.6781524-1.261673.2212088-2.5145368.4909905-3.7024328.9825927-1.8463836.764198-3.7988446.9349986-5.7576678,1.0314103-2.8388866.139479-5.677345.2722287-8.5022226.6019619-2.176178.2539986-4.1455844-.3234934-5.9686604-1.4854511ZM35.8484552,54.2792551c3.1335054.4189263,6.2787564.7515959,9.4216827,1.0963782,3.4280018.3759815,6.8640787.5453139,10.3137364.3500433,2.2026056-.1246746,4.3711978-.5176628,6.5564908-.7782682,1.9468329-.2320979,3.8906071-.5015126,5.7993892-.9602027,2.5728978-.6182345,4.9926134-1.5784371,7.0939743-3.3686621.1930683.8418902.5859341,1.4997661,1.1844702,2.0277063.1941694.1711676.0567704.3231263-.0196983.4791225-1.0030252,2.0458141-2.5191861,3.5929296-4.5430995,4.6337609-3.0244916,1.555313-6.2734953,2.4045442-9.6145063,2.8664154-6.0697826.8390762-12.1752914.9239871-18.2845931.5933974-3.5315099-.1911107-7.0147527-.6697438-10.2087602-2.3642911-1.5680374-.8319799-3.0333619-1.793406-4.1543936-3.2014096-.6556124-.8235377-1.1373654-1.7258688-1.361633-2.7726953-.2537539-1.1841031.2458011-2.1025844.9172578-2.9864407.1320156-.1738593.2380931-.1928236.3559773.0046493.0409261.068516.09892.127611.134952.198207,1.3358783,2.6206143,3.6328157,3.8113243,6.4087532,4.1822894ZM40.5683504,61.9658928c2.3656369.3418459,4.7465064.4109736,7.1326369.3532244,3.8239263-.0923742,7.6512173-.1042422,11.4639486-.4708027,3.8614878-.3714545,7.6356177-1.1059215,11.238947-2.6050758,2.5222449-1.0492734,4.6573744-2.5615192,6.133894-4.9050108.2465352-.3912752.4573442-.5258602.7192955-.0178631,1.19071,2.3102124,3.2688245,3.4165009,5.6216146,4.1756825,3.3403992,1.0780257,6.7790455,1.5839429,10.2672435,1.7504612,5.8890717.2810379,11.7293257-.1225947,17.4721892-1.5211773,3.1215151-.7601604,6.1272871-1.8402661,8.8824864-3.5366486.1402131-.0862567.2851978-.2692923.4791225-.1305474.1851155.1322603.1882966.3474739.1616243.5491067-.0824639.6228838-.4393588,1.1147307-.8218248,1.5756231-2.0964669,2.5260377-4.5533769,4.5772352-7.547281,6.0046924-5.1382099,2.4498137-10.5597823,3.9161782-16.1364945,4.9046437-8.132481,1.4415275-16.3301745,1.5303536-24.5508698,1.254332-3.6840803-.1236958-7.3674265-.2480034-11.0316861-.6603229-4.5380832-.5106888-9.0390943-1.1792091-13.3432444-2.8429242-2.2729568-.8787176-4.6360855-1.5252149-6.7975815-2.6860715-.8584687-.4611371-1.719629-.9200719-2.4150051-1.6894086,1.0234576.1671301,2.0447129.3497986,3.0709846.4980868ZM112.3404405,57.504156c-4.6287445,1.452539-9.4057772,1.8677948-14.2245313,1.9656748-3.6290228.073777-7.2499705-.0046493-10.8366603-.6318153-2.3750579-.4152558-4.6940794-1.0158719-6.7796572-2.2911258-1.2708493-.7771671-2.297855-1.7809263-2.9523051-3.2542648.5725979.0945765,1.0605296.1744711,1.548339.2557115.893889.1488999,1.7957307.1347073,2.6959819.117456.9050228-.0173737,1.7485036.1934353,2.5288518.6406245,3.6462742,2.0897377,7.476318,2.3852129,11.4752048,1.2303514,2.5731425-.7432761,5.1052977-1.6328829,7.7420622-2.1512797,2.1067443-.414277,4.2461561-.5516761,6.3735776-.7874445,2.7883561-.3089337,5.4766299-.9020864,7.9347634-2.3481409.9790446-.5759014,2.0431224-1.0096321,3.0772244-1.4888769,1.6274995-.7542876,2.9266116-1.8651031,3.8269851-3.4295924.2692923-.4679887.5755343-.9145661.8492312-1.3802301.1205147-.2048139.2148466-.4279802.2957199-.6518807.0379285-.1050986.056648-.2553444-.0699842-.3247169-.17129-.0938424-.2492269.0467377-.323371.1687206-.2910706.4787555-.6048983.9451536-.8684402,1.4385911-.8380974,1.5685268-2.1326825,2.6317481-3.7130773,3.3701303-1.883945.8803081-3.7807368,1.7327204-5.6711664,2.599203-2.018163.9249659-4.1715226,1.3303114-6.3570604,1.3671387-4.1808212.0705959-8.1491206,1.0612637-12.0689693,2.4062571-2.1698769.7444996-4.414265,1.1861831-6.7291267.9130979-2.0297862-.2393166-3.9667088-.7860986-5.6386213-2.0273392-.6681533-.4961292-1.4252549-.5941315-2.2133112-.6192133-1.2785573-.0407425-2.5580934.0984917-3.8371401-.1177007-1.1436053-.1931906-2.0033586-.6966608-2.500956-1.9118408.7026559.5098324,1.3296996.9244765,1.9851285,1.2994792.9830821.5625652,2.033212.7304294,3.1276326.5652569,1.2293726-.1856049,2.4044219-.0937201,3.6104256.2510622,4.5276834,1.2945852,9.0616067,1.0922183,13.5766881-.1113385,2.4017302-.6401351,4.821201-1.1661177,7.314816-1.2868771.3965363-.0192089.8139944-.0586056,1.1793315-.1991858,2.1243627-.8175426,4.367772-1.1401795,6.5743539-1.6079235,4.9807454-1.055758,8.8870133-3.7897907,12.0803478-7.6526243.3292438-.3981268.5921739-.8509441.9365891-1.3523344.6857717,1.2231328.9866303,2.4905562.877127,3.8488857-.1787533,2.2178381-1.2397724,4.0398741-2.684848,5.6444941-3.3148281,3.6810216-7.4507469,6.0716179-12.1411558,7.5436105ZM76.6208526,49.653447c.1233288-.1673748.3467398-.0080751.4949057.0599515,2.8060968,1.2912817,5.8704745,1.535737,8.8438238,2.092307,1.8176313.3402553,3.7130773.0586056,5.57035-.0742664,6.7943392-.4857294,13.3239131-2.160456,19.7104598-4.4444855,1.1247634-.4021644,2.1838248-.9878538,3.2739632-1.4872864.1372767-.0630102.259382-.1818121.5563254-.1333615-.7630968.5099547-1.4296595.9764752-2.1168994,1.4104506-1.6579646,1.0470711-3.3548365,2.0187747-5.1668397,2.787989-1.0983358.4661534-2.2463457.5218227-3.4016966.621905-2.760705.2393166-5.4424943.9095498-8.1119262,1.6010719-3.9120183,1.0131802-7.7774213.7261471-11.6252059-.2761439-1.2250904-.3192111-2.4405151-.4230862-3.6799204-.2111761-1.5539671.2656218-2.8122143-.3632571-3.9886094-1.2662-.0630102-.0484506-.1219829-.1057104-.1706782-.1683536-.1189242-.1529375-.3249616-.3266745-.1880519-.5124017ZM117.1900268,44.4122185c1.9222406-1.0526992,3.4946825-2.3043396,5.0695715-3.6281664-.3455163,1.7149797-2.6535264,3.3936215-5.0695715,3.6281664ZM104.0136678,23.7336033c2.2531973-.1989411,4.4996653-.4835271,6.5463358-.4969856,1.9237088.0376838,3.6177666.1416813,5.2924932.4985762,2.1867612.4660311,4.08808,1.4880205,5.7897235,2.902998,1.2419747,1.0328785,1.8725665,2.4312165,2.1958151,3.9712357.5209662,2.4822364.235279,4.8971804-.7146462,7.2394484-.6398904,1.577703-1.7244006,2.7878667-3.1587095,3.67209-4.9210386,3.0341572-9.9875514,5.7194946-15.6955451,7.0368369-2.1761168.5022467-4.2853081,1.2786797-6.520887,1.5715855-3.3178868.4348318-6.6489874.8708872-9.9866949.8471513-3.2732291-.0233688-6.4757399-.7857316-9.5222544-2.0099655-1.9267675-.774353-2.7555663-2.5196755-3.3753913-4.3685061-.0668031-.1994305.0533446-.3520009.1281004-.507263.3647253-.756857.7533088-1.5022131,1.112406-2.2615171.6058771-1.2813714.8845904-2.6157203.5448245-4.0237239-.1102373-.4568548.1536716-.4422952.4585677-.43838,1.9640843.024837,3.9286579-.0019576,5.8753685-.2822614,3.8284533-.5511867,7.6423469-1.256779,11.2006515-2.8015699,3.01764-1.3101236,5.6999186-3.1786525,7.6307237-5.9424163.8815316-1.2617954,1.4286807-2.6766506,1.8299887-4.1529254.0560363-.2064044.0526105-.426512.3691299-.4544078ZM52.7146449,15.6559351c.0721865-1.6301912.7219872-3.0631542,1.6687314-4.3659368,2.8456771-3.9160559,6.6684411-6.5172165,11.148041-8.2095615,4.5730753-1.7277041,9.3483951-2.2677569,14.2126633-2.3570724,5.2765877.0940871,10.4255643.8810422,15.2555746,3.1775514,2.4773424,1.1778633,4.6379208,2.7619285,6.2152567,5.0551342.9463771,1.3759479,1.5209326,2.9042215,1.7935284,4.5400408.1845038,1.1067779-.115009,2.1424705-.6363423,3.1190681-.8904632,1.668242-2.2380259,2.9184141-3.7534528,3.9879977-3.4189479,2.4129863-7.1268865,4.088447-11.3600735,4.483148-2.0115561.1876849-3.9576549.7962537-5.9427833,1.1666071-3.1593212.5893599-6.3278187.6086912-9.5007208.1343403-3.3422345-.4996773-6.7029438-.8952348-9.9941583-1.6928344-2.0231793-.4902564-4.054189-.9681554-5.7504492-2.2867212-2.2033397-1.7127774-3.4825699-3.8918306-3.3558153-6.7517614ZM100.0217549,20.9254265c-1.5628987,1.9233417-3.351166,3.3522672-5.455341,4.352723-2.9684553,1.4111847-6.1047747,2.263597-9.3747003,2.6131509-.5997596.0641114-1.2018439.0423331-1.8000129-.0183525-2.0337014-.2062821-3.9805343.1099926-5.8780602.8674614-1.0568591.4218627-2.1441834.7759436-3.2351782,1.1020063-2.2474468.6715791-4.4284576.3792849-6.5630977-.5182745-1.330189-.5593841-2.6005489-1.2391606-3.8759251-1.9047445-1.7647761-.9209283-3.6151973-1.4856958-5.6019163-1.6358193-1.3117142-.0991035-2.4923303-.5702733-3.4888097-1.443118-.4407046-.3861365-.8335704-.8242718-.8324693-1.465141.0004282-.2183947.0379285-.4582007.2749204-.5549795.204508-.083565.3973927.0074633.5491679.1519587,2.2936951,2.1823566,5.2305229,2.8256728,8.1861314,3.4200491,3.5529211.7145239,7.138265,1.2361019,10.7357215,1.6448732,2.3784837.2702711,4.7625954.0261829,7.1208913-.3540808,2.9426394-.4743509,5.8763473-1.0003335,8.8288971-1.4187704,3.6274323-.5141146,6.7138329-2.263597,9.6252731-4.3763365.1778969-.1292016.3505327-.2658665.5284296-.3953128.0275287-.0200654.0698618-.019576.2560785-.0672925ZM53.6634078,24.8599572c.1761228-.2101973.461443.1857273.6644216.3341378,1.312693.959958,2.8217576,1.2773338,4.3955455,1.4193821,1.719629.1550174,3.311647.7101193,4.8231586,1.5364711,1.5770913.8623227,3.1233503,1.7858203,4.8626777,2.3206121,2.9525498.9075922,5.8184758.6391563,8.6024272-.6093029,1.8107797-.8120368,3.6959483-1.1210929,5.6639477-1.1033521,4.8234033.0434342,9.328085-1.2363466,13.6211012-3.3533683,1.5583717-.7684802,2.8797515-1.8632679,4.2105523-3.2286937-.0442907,1.1542497-.4661534,1.9678771-1.1077567,2.6819116-.6504125.7239448-1.4251326,1.3063308-2.3018926,1.7076387-3.9259662,1.7965871-7.8406763,3.6312251-12.0969874,4.5506852-2.3789731.5138699-4.7955076.6740261-7.2201171.685894-3.5843651.017496-7.1699537.0403755-10.7530952-.031811-2.9896218-.0601962-5.9514702-.3973927-8.7587905-1.5436897-1.5838817-.6468644-2.9322397-1.6297018-4.0721133-2.900551-.3353613-.3740239-.628206-.7829175-.823966-1.2476028-.1958823-.465297.0341356-.9118744.2908871-1.2183611ZM62.5476683,32.1255885c6.7646082.636587,13.5505052.7427867,20.3301624.1326274,2.3625782-.2126443,4.6448947-.7548994,6.8276184-1.7330875,2.3706533-1.0623649,4.788656-2.0186524,7.1694643-3.0588719,1.0522098-.4596689,1.9828038-1.1258645,2.7615614-1.9831709.957878-1.0545345,1.4507037-2.3012808,1.4044554-3.7207853-.017129-.5231685.2684359-.8601204.4923363-1.2480922.1531822-.2652548.3095455-.049307.4344648.0494294,1.0922183.8618333,1.3418123,2.0170618,1.0201542,3.2915816-.7349563,2.9126637-2.3110688,5.2647197-4.7004416,7.1184443-2.6846033,2.0827637-5.7506939,3.2061813-8.9896649,4.0922399-5.467209,1.4954838-11.0024445,1.7368803-16.6090101,1.3697081-2.7357456-.1791204-5.4815239-.1999199-8.2065027-.5514314-3.9336743-.5075077-7.3800286-2.0124125-10.1964028-4.8698963-1.1105096-1.126721-1.5388569-2.478933-1.5599623-4.1229497,2.5130686,3.3618105,5.9342188,4.8684281,9.8217672,5.2342546ZM33.9514799,32.6613591c3.7963364-2.40797,7.9890256-3.6094468,12.4432379-4.0054937,1.8083939-.1607679,3.59972.0214112,5.3974083.1258981.2030398.0117456.3359731.0669254.4087101.2684359,1.0159331,2.812092,3.3287148,4.3294765,5.7760815,5.658809,2.817353,1.5303536,5.9249202,2.0073962,9.0751876,2.258703,2.6564628.2119102,5.3221019.1955153,7.9824799.3139501.4425399.019576.622272.1934353.747436.5885034.3096678.9778211.2388272,1.9287251-.0789157,2.8863584-.9155449,2.7593591-2.8472064,4.5730753-5.3876815,5.8282638-2.3486303,1.1603672-4.899138,1.7069046-7.3810074,2.4723261-5.1019943,1.5736655-10.3629211,1.9410825-15.6373065,2.2424305-2.9877866.0694948-5.8474115-.5935198-8.6636022-1.4811689-2.3253226-.7329987-4.6806821-1.3821877-6.9395686-2.3103347-1.7994012-.7393609-3.2803254-1.8454048-3.962243-3.7694806-.5495349-1.5506637-.2449447-3.0416206.3642359-4.4972183,1.1975005-2.861399,3.2849135-4.9495462,5.8555478-6.579982ZM29.1080723,35.634219c-.0961671.3055079-.3705981.3614218-.58312.4611371-1.6943026.7952749-3.5061223,1.2145683-5.3195325,1.6172221-3.1188234.6923785-6.2183155,1.4503367-9.2325908,2.5402303,4.7353114-2.5035253,9.6665662-4.3779271,15.1352434-4.6185895ZM8.1478074,44.2120539c-1.2830843,1.3146506-2.6633144,2.5323999-3.9230298,3.8690735.4951504-.9179919,2.7888455-3.1744926,3.9230298-3.8690735ZM2.2119981,57.4373529c-.21815.0682713-.296454-.22023-.3912752-.3832001-.4416223-.7580805-.647782-1.5879804-.6559183-2.4577664-.0099103-1.0689718.2346673-2.0830084.7732519-3.0101766-.3668664,1.6557623-.163949,3.2640528.2393166,4.8640235.0389073.1544057.0735323.311136.0940871.4688451.0234912.181078.1865225.4413164-.0594621.5182745ZM44.3108529,78.7895047c-4.3705861-.781694-8.7773265-1.3931992-13.0758485-2.5288518-4.700931-1.2418523-9.3258827-2.7293834-13.7942264-4.6671624-2.0133913-.8732118-3.8288203-2.0860672-5.6076667-3.3505543-1.7634303-1.2534756-3.554267-2.4588676-5.4496517-3.5066728-.7899527-.4366671-1.5143869-.9698683-2.1732416-1.5945873-1.0845102-1.0283516-1.1557179-2.2944292-.9194601-3.8054515,1.4270902,1.952461,3.0287738,3.5143809,4.6827009,5.0307866,2.2292167,2.0439788,4.875035,3.4226184,7.5570078,4.7284598,4.9833148,2.4262001,10.043343,4.6298457,15.4076556,6.1528583,4.2608381,1.2095519,8.5738585,2.1303579,12.8908553,3.0682929.9321233.2026116,1.8480965.4791225,2.759665.7769224-.7817552.0423331-1.5256431-.1695771-2.2777896-.3040397ZM105.4336617,78.4885238c-2.7388044.4955174-5.5135796.7361798-8.2668212,1.1324714-4.4562311.641481-8.9163773,1.2576355-13.3755448,1.8796628-4.2070041.5867905-8.4202481,1.1061662-12.6825545.8932772-2.5886809-.1293239-5.1134952-.6845482-7.63574-1.2299844-2.8836667-.6236179-5.8050173-.9445419-8.7400098-1.1689317-2.5273224-.193313-5.0511578-.4157452-7.5553561-.8360174,1.0933806.0894378,2.1857824.1931906,3.2802642.2653771,3.1401735.2070162,6.2878103.0403755,9.4306143.1889084,3.0047932.1420483,5.9792436.5412763,8.9572422.9237424,3.2185386.4132982,6.4423383.7723954,9.6926879.7701931,2.777834-.0019576,5.489232-.5380952,8.2041781-1.0555133,3.6959483-.7046135,7.4190582-1.2463793,11.1470622-1.7502165,4.1714003-.5639111,8.2414948-1.614041,12.3400969-2.5292188,3.7437871-.8360174,7.4817014-1.700053,11.2492244-2.3885164-5.2688796,1.92273-10.5083953,3.9028421-16.0453437,4.9047661ZM120.8496371,72.5139294c-5.5446565,1.3166082-11.0907812,2.6332163-16.6521996,3.8750686-5.2734066,1.1776186-10.6303782,1.9164901-15.9829452,2.6556064-2.0009116.2761439-3.9886094.6462526-5.9853611.9542075-2.8331362.4371565-5.6743475.2679465-8.5112765.0522434-4.3320458-.3291215-8.6255514-1.0492734-12.9623689-1.3207681-2.2979774-.1438836-4.6036628-.2514292-6.9047601-.2333214-3.609875.0283852-7.1043129-.5644005-10.6235878-1.3427911-5.2002413-1.1502122-10.3788266-2.3839894-15.4282104-4.0442787-5.8797119-1.9332521-11.5363798-4.443262-16.7738155-7.7891669-2.3992832-1.5329229-4.4190367-3.5274723-6.1264307-5.7953516-1.5573929-2.0688158-2.2449998-4.4430173-1.9653689-7.052253.0764076-.7129333.3787344-1.3501321.7926444-1.9228523,2.5489172-3.5278394,5.6229605-6.5128119,9.3038597-8.8441908,1.153638-.7306741,2.4694509-1.1273327,3.7664219-1.5436897,3.7149125-1.1924229,7.5844754-1.7871662,11.4496337-3.018007-.311136.602696-.5566312,1.0808397-.8043288,1.55776-1.5082082,2.9042215-1.1480711,5.565823,1.0844491,7.9467537.4253497.4536737.5798777.8952348.488727,1.4952391-.0546293.3592195-.1980846.6321824-.4227192.8998841-.6159098.7338552-1.2969098,1.43333-1.4975638,2.423019-.2480034,1.2234998.1019787,2.3460609.6493114,3.4112399.7567346,1.4729714,1.9146549,2.6025065,3.2120541,3.6022282,1.0823079.8339375,2.199975,1.6051094,3.5193972,2.0246475.8517394.2708829,1.6059047.7142792,2.2922269,1.2790467,1.4196268,1.1680753,3.0098096,2.0382284,4.7076603,2.7284046,3.7282487,1.5153045,7.4883083,2.9231858,11.4692097,3.6487212,3.3723326.6146863,6.7785561.937935,10.1875936,1.2450334,6.1934784.5579159,12.4040859.5379729,18.6123687.5060395,5.5615408-.0286299,11.0522409-.7925832,16.5200616-1.7596374,5.0327442-.8899738,9.8795164-2.3497314,14.4693536-4.6108814,2.7100521-1.335083,5.2184714-2.9576885,7.2744405-5.2211631,1.0814515-1.1905877,1.618935-2.5124569,1.2713387-4.1180557-.063989-.2953529.0725535-.4563654.2546103-.6178674.7041241-.6244743,1.4169351-1.2391606,2.1171441-1.8680395,1.9899001-1.7870438,3.5923178-3.8253945,4.1218486-6.5300632.3165194-1.6163656.1402131-3.1922334-.5357706-4.6965264-.4180699-.9302269-.862078-1.837452-1.016606-2.8706976-.0916401-.6133405-.5224344-1.1164436-.8504547-1.6423038-.1771628-.2840967-.3661935-.56073-.6050207-.9248435,1.1626919.0940871,2.1811331.3590972,3.2083836.5836094,4.186694.9154226,8.1969594,2.2983444,11.9285115,4.4375115.8859362.5079971,1.751807,1.0452359,2.6091134,1.6002154,3.1551613,2.0425106,4.7366572,5.1111705,5.6533033,8.6160081.3438034,1.3147729.0134585,2.538028-.5728426,3.7122208-1.278802,2.5606628-3.1311807,4.6822115-5.138944,6.6830007-.825373.8226813-1.7241559,1.5600846-2.70161,2.1916552-2.437701,1.575256-4.7448547,3.3441921-7.2359003,4.8411441-3.6467636,2.1915329-7.5357801,3.8156065-11.6655814,4.7962417ZM147.3819648,57.4511784c-4.6806209,5.3074199-10.0111649,9.7843281-16.5106407,12.7382237-.4360553.198207-.8911973.3548149-1.3393653.5258602-.0516317.0198207-.115009.0085645-.2190065-.0772028.473005-.2543656.9441748-.5120347,1.4192598-.7624851,3.5850992-1.8895731,6.9869181-4.0674028,10.1747469-6.5676247,2.8884384-2.2653099,5.3519553-4.9363324,7.3953223-7.990922.1411919-.2109314.239806-.4617488.5500855-.6594664-.1700665,1.1664847-.789035,2.020977-1.4704021,2.7936171ZM144.1217049,41.4999218c2.6186567.6126064,5.607422,5.8708415,5.2757312,9.4693992-.962405-3.7168701-2.5364375-6.927823-5.2757312-9.4693992ZM130.2828207,65.0700342c-.2968211-.1971058-.6263096-.3550596-.9583674-.4867082-.4431516-.1756946-.9033099-.3084443-1.4600023-.4941716.759671-.3064867,1.4450756-.5470268,1.9458541-1.1009051.3973927-.4396035.2874001-.8635462-.2743087-1.0551462-.4498809-.1535492-.9069804-.0913954-1.3651811-.0299757-1.0480499.1405801-2.0395742.5037149-3.0636436.8300223-.063622-.6587323.0534669-1.26412-.1277334-1.8506658-.2664783-.862078-.8217025-1.0957664-1.5293748-.5443351-.9215401.7181944-1.6578423,1.5873687-1.6032742,2.8632343.0144373.3354837-.1239405.4036326-.4162346.4106065-.4990656.0119903-.9964183.0484506-1.4897334.1525704-1.4405487.3042844-2.6152309,1.0694612-3.6455401,2.082519-.2105643.2070162-.4351989.465297-.313216.7892797.1170889.3106466.4294484.3959245.7345893.4455986.3185994.0516317.6342623.0296087.955431-.0078304.8492312-.0993482,1.6487884-.4268791,2.5388845-.5768802-.0924966.2849531-.1749605.507263-.2358908.7354457-.0617867.2309968-.1255311.4655417-.1477988.7022889-.0756123.8031053.3414788,1.2079614,1.1412806,1.1323491.3472292-.0327898.6557959-.1731252.9515158-.3419682.8913196-.5089759,1.5708514-1.2190952,2.0504634-2.1307249.3932328-.7471913.4504926-.7627298,1.0815738-.2723511.4935598.3833225,1.0445018.5718638,1.6553953.6299801,1.2051473.1145196,2.4095605.1612573,3.5173173-.4312837.7832846-.4189263.7950302-.9619156.0579939-1.4509484ZM117.9919086,66.6293847c-.3559161.0527328-.7102416.0934754-1.0727646.0363379-.4076701-.0641114-.4539184-.2692923-.2478811-.5772472.0988588-.1477988.2078726-.3019598.3468622-.4075478,1.3715433-1.0416877,2.8637237-1.7445884,4.6445277-1.5429556.5834871.066069,1.1082461.2877672,1.5304759.8623227-1.9037657.1431495-3.3961908,1.3617553-5.2012201,1.62909ZM123.3830158,65.6682032c-.0427001,1.1127731-1.2106531,2.6228166-2.2671452,2.9310162-.4389917.1281004-.8264741-.3074655-.7130557-.8732118.1683536-.840422.6275331-1.503926,1.3989497-1.905968.3507774-.1829132.7282271-.3099125,1.0734987-.514604.3872377-.2296509.551309-.0577492.5077524.3627677ZM123.96271,64.0739829c-.1732476.3430694-.3818543.3867483-.7216202.2190065-1.0457253-.5168063-1.3101236-1.3939333-.6798989-2.3666157.3516338-.5427445.8247612-.9712142,1.3166082-1.3847571.3140724-.2640313.4727603-.1846261.6004937.1747158.1106044.3110137.1118279.6264319.117456,1.0441347-.0247147.7546547-.2486152,1.5531107-.6330388,2.3135158ZM124.415405,64.3626066c.3378083-.7444996.9472336-1.1691764,1.6525812-1.4759078.8318575-.3616665,1.7137562-.5394411,2.6062993-.6611793.2929059-.0400084.6797765-.0846662.796376.2409071.1282228.3577513-.2114208.5696615-.4837718.7353234-.8986606.5466597-1.9224853.6518807-2.9322397.7781459-.5547348.0692501-1.1196247.0581162-1.6392451.3827107ZM129.2676829,66.4321565c-.5384623.1557515-1.0883031.2470246-1.4536401.2329544-1.2775785-.0128467-2.2419411-.3089337-3.0006333-1.1203588-.154528-.1654172-.2930282-.348208-.1846261-.5865458.0965341-.2119102.2723511-.3379307.5154605-.350655,1.4212174-.0740217,2.8338703-.029731,4.1981949.4228415.4062019.1347073.9638732.3095455.9276576.7938067-.0336462.4498809-.6079571.4938045-1.0024134.6079571ZM30.4357531,62.2751935c.2213923-.2675794.41287-.5866682.2752263-.9351209-.1493282-.3781838-.5252485-.4661534-.8968254-.4868306-.360076-.0200654-.7169097.0108891-1.0714188.0970235-.9609368.2333214-1.8690795.6012278-2.6948807,1.1373654-.404489.2626854-.612117.2662336-.85229-.1967388-.4166629-.8028606-1.0690941-1.3147729-2.0044598-1.4562095-.6019619-.0910284-1.0084086.1465753-1.3345324.5976797-.3179264.4398482-.2596878.8986606-.0378673,1.3623671.0787934.1649278.2493493.2957199.2372978.5570595-1.28755-.2710052-2.5416985-.5149711-3.8231311-.5571818-1.3831665-.0455142-2.7155579.1375214-3.9225404.8756588-.3556714.2175383-.6513913.5190086-.6557347.9464995-.0047105.458323.4538573.5013902.7616898.6517584.2130113.1041198.448535.1689653.6802659.2264698,1.0969899.271984,2.216737.2948635,3.3386863.2921718,1.0350808-.0025693,2.0701005-.0004894,3.1820783-.0004894-.3999009.406936-.7935008.7235778-1.0617531,1.1527815-.5408481.8653814-.0893155,1.7951189.9160343,1.7792134,1.4223185-.0226347,2.8505099-.6337729,3.4488013-2.0672253.2037127-.4881764.4055902-.526839.8779835-.3885835,1.1559626.3386648,2.3420234.5503302,3.5521259.3045291.4701298-.0955553,1.044563-.2115431,1.1080626-.7579581.0605021-.5212109-.4599748-.7571017-.8849574-.9341421-.4914187-.2046915-1.0057169-.3546926-1.5786818-.5519208.4025314-.2208417.7639533-.4195381,1.1258645-.6176227.4952727-.2710052.9531675-.5932751,1.3149564-1.0305539ZM20.1713849,64.946216c-1.5392851.0159055-3.0778362-.0023246-4.605131-.2174159-.5062231-.07133-1.2041685-.1009387-1.263753-.6896868-.0604409-.5979244.6321212-.7235778,1.1066556-.8870374,1.5986249-.5506973,3.2326089-.4024091,4.8618212-.1890307,1.3091448.1714123,2.599203.4340977,3.8077761.9955618.1758169.0817298.4482292.1369096.4421117.3523679-.0067904.2410295-.2844025.3124819-.4842612.38944-.4707416.1813227-.9656472.2442106-1.468261.2453117-.7989454.0017129-1.5980131.0004894-2.3969585.0004894ZM24.621009,65.8007082c-.3575066,1.1415253-1.67803,2.0831308-2.9780597,2.0646559-.0855838-.0070963-.2746145.0099103-.4415611-.0429448-.4120136-.1304251-.5908892-.3907858-.3760427-.822926.2040798-.4107289.5530219-.6796542.9174413-.9259447.7326929-.4952727,1.5461979-.8223142,2.3692462-1.1356525.4353212-.1656619.548495.041599.5740661.3939669.0112562.1542833-.0183525.3195782-.0650902.4688451ZM25.0532715,63.5755291c-.8506994.0779369-1.5963002-.1781416-2.2433481-.7232107-.2941294-.2478811-.5486785-.5358929-.6201309-.9296152-.1269993-.6995972.5008397-1.246991,1.1863054-.9932372.9086321.3364625,1.8679172,1.2009874,1.6771736,2.6460631ZM29.6099519,64.9276188c.4556313.3594642.3997786.7130557-.1656619.832714-1.2381818.2620737-2.4663309.1813227-3.6416249-.332792-.2235334-.09788-.4586901-.2630525-.431039-.521945.0266723-.2491046.2749816-.3803861.509343-.4605253.4597301-.1573421.9360385-.205548,1.3527014-.1923342.9146885-.0412319,1.7032341.1438836,2.3762814.6748825ZM26.4303818,63.8215749c-.4773485.0166396-.5377893-.397148-.7085899-.6949479-.1881743-.327898.1058327-.4243097.2880119-.5454362,1.0826138-.7199073,2.2801143-1.1428712,3.562648-1.3251727.2251851-.0320557.4987597-.1158654.6504737.1534269.1514693.2688029-.0647843.4517161-.2060374.6321824-.5947433.7601604-2.6297905,1.7628185-3.5865062,1.7799475ZM132.8837366,51.6893507c.3101572.1408248.4682334.6166439.6927456.9457654.0337686.0496741.0655796.1005717.0983694.1508575.7245566,1.1065332,2.4959396,1.859108,3.7798803,1.6059659.6895645-.1359308,1.0744775-.595355,1.0982134-1.2971545.0296087-.8772494-.504449-1.4053119-1.1650165-1.8282758-.4279802-.274064-.898783-.4815695-1.3607765-.7243119q1.1231728-1.034102.2360131-1.9879425c.7673791-.3406224,1.5412427-.658977,2.2919822-1.0248035.6866281-.3347496,1.3262738-.7508618,1.7805593-1.3901405.4278579-.6019619.482793-1.2309632.1574644-1.6742372-.3244722-.4419281-.8766376-.5909504-1.5751337-.3685181-1.8494423.5887481-3.5332228,1.4967073-5.0256479,2.7368468-.3091784.2568126-.4501256.2848308-.7393609-.0323004-1.1396901-1.249071-2.6504677-1.3775384-4.0136912-.3883388-.7377704.5352812-.8043288,1.2818608-.1851155,1.9486682.3252063.3501656.7575911.548495,1.2052697.8116698-.2077503.1448624-.355549.2437212-.4991879.3485751-.6636263.4847506-.8384644,1.0069404-.6144416,1.8275417.1540386.5642781.7854869,1.0613861,1.428436,1.1239069.5130135.0499188.9862632-.078671,1.4537625-.2845861.3435588-.1512246.6398904-.6425821.9556757-.4991879ZM137.9295723,52.2053006c.2932729.3464951.4645629.7668897.2347896,1.219707-.2213311.4361777-.6272884.5821412-1.0935641.6044089-1.2893241.0620314-2.2585807-.5481279-3.0651118-1.4756631-.2850755-.3280203-.4511044-.7219872-.2684359-1.1631813.1881743-.4542855.6238626-.4385023,1.0168507-.4807131.1578315-.0170066.3190888-.002814.4787555-.002814,1.1279445-.0472271,1.9957729.4700686,2.696716,1.2982557ZM133.8803996,47.6668503c.1747158-.465297.5204768-.8051852.906491-1.0968676,1.2732963-.9621603,2.7147014-1.6025401,4.2021101-2.1460187.4015526-.1466976.8252506-.1033857,1.1057991.2333214.2881342.3456387.1802215.7589369-.0154161,1.1259869-.2728405.5119123-.7282271.8434808-1.2058814,1.1425041-.7664003.479979-1.6015613.8141168-2.4438185,1.131982-.0743888.0280181-.1602785.0876026-.2246346.0707183-.6562853-.1727582-1.3019262-.1683536-1.851767.0770805-.4649299-.0002447-.6035525-.190866-.4728827-.538707ZM134.9781236,48.7387585c.2143572.0095433.3152959.0068516.4141547.0198207.4224745.0553022.8604874.2736969.9633838.6187239.0913954.3064867-.4011856.4682334-.6791648.6208038-.6560406.360076-1.3898958.494661-2.1151865.639401-.2725958.0544457-.5407869-.0200654-.6819788-.2685582-.1436389-.2528974-.036705-.5157052.1298133-.7256577.5308766-.6692544,1.3007027-.8020041,1.9689783-.9045334ZM131.9691705,51.6438365c-.4143994.2757769-.891442.3161524-1.4629387.3553043-.5059172.0614197-.8471513-.3119925-1.0695835-.7693367-.2243899-.4617488.02239-.8462948.374758-1.1569414.5515537-.4863412,1.2422194-.7086511,1.9119632-.9511488.4518385-.1635819.5031031.2467799.4870753.5241473-.0291193.5017573-.2472693.9854068.0808733,1.4909569.1258981.1941694-.1393566.3852801-.3221475.5070183ZM132.0352395,48.565878c-.380019.0094209-.7697037-.0013458-1.1367537.0802616-.7137898.1584432-1.1913218-.2368696-1.6508683-.6504125-.3382977-.3044068-.2459235-.6348741.0751229-.9269235,1.1324714-1.0300645,2.6056876-1.026027,3.7129549.0172513.3259404.3070985.2856872.7246789.3266745,1.0218671.0110115.3369519.0184748.5946209-.1488999.7820611-.1750828.1960047-.3959245.5970679-.5913175-.0047716-.0906613-.2790803-.3405-.3255733-.5869129-.3193335ZM16.6709519,53.9642039c.2172936.5606076.7091405.8530241,1.2743362,1.0013123.9762917.2563232,1.9297651-.1173336,2.3332753-.8984159.3967198-.7676238.1743487-1.5824747-.6182956-2.2936951-.1148866-.103141-.2814661-.1610126-.3350554-.3743909,1.3030885-.2727181,2.3662487-.9402596,3.1571801-2.0084973.3264909-.4410717.6009219-.9425843.3356672-1.5016013-.2634195-.5554689-.8202343-.6739037-1.3697081-.7086511-1.7387156-.1095032-3.1566295.4325072-3.9780261,2.0757898-.1972893.394701-.3361566.3296109-.5715579.0457589-.2161312-.2606055-.4663981-.4960068-.720152-.7217425-1.0480499-.9316951-2.2659217-1.4325959-3.6780852-1.3046179-.9968465.0902943-1.4460544.8833669-1.0922183,1.8219136.1662736.440827.473005.7794917.8077546,1.1033521.570518.5517984,1.2533532.9606921,2.0140031,1.5539671-.7378927,0-1.3124483-.0329121-1.8819874.0067292-1.2553108.0872355-2.4039325.4268791-3.1900311,1.5171398-.3221475.4469445-.4956398.9335304-.2703935,1.4622046.2097079.4923363.7117098.4659087,1.1367537.5061619,2.153482.203468,4.1098583-.440827,5.9628487-1.460247.34154-.1878072.5098936-.2710052.6836917.1775298ZM20.0065795,53.3608962c-.0032423.6440503-.677513,1.217627-1.4499696,1.2334102-.8342434.017129-1.5038036-.4968633-1.4876534-1.1421371.0163337-.6571418.9419725-1.7921825,1.4693009-1.8016035.5508196-.0099103,1.4715644,1.0626096,1.4683221,1.7103304ZM17.9890283,49.2476121c.7071217-1.0741105,1.7690584-1.5729314,2.9275904-1.7185278.6117499.075857,1.2283938.0390296,1.4488685.6045313.2135007.5473938-.1596667,1.0232129-.555163,1.3643247-.9175025.791482-1.8728724,1.5418545-3.2233715,1.1848372-.8040841-.2125219-1.0538004-.7427867-.5979244-1.4351653ZM14.0880826,51.1751137c-.6507796-.5325895-1.346278-1.0142814-1.8862085-1.668242-.3318132-.4019197-.7074888-.8296552-.3965363-1.3957686.3089337-.5623205.8691743-.4933151,1.3905687-.4299378,1.6199138.1967388,2.8142331,1.0711741,3.7215806,2.3830106.2045692.2958423.3910305.6050207.572965.9157896.3336484.5696615.2292227.8031053-.4399705.9018417-.3130936.0461259-.6386669.0079527-1.0981523.0079527-.6778801.1803439-1.2744586-.2319756-1.8642467-.7146462ZM10.7492128,54.881217c-.5814071.0074633-1.2068602.0015905-1.5162833-.6139522-.1901319-.3781838.2922941-1.0436453.9715812-1.4486238.5384011-.3210464,1.1226223-.5138699,1.7389603-.6189686.9604474-.1638266,3.8166465-.0632549,4.8387583.188786-.4134818.6374434-.8804305,1.1310032-1.5206268,1.4020084-1.4417722.6102817-2.9280186,1.0706847-4.5123897,1.0907501ZM61.7215612,72.6579354c-2.1219157-.3732898-4.2320859-.1469423-6.3242706.2295286-.5771249.1037528-.942829.02447-1.2687081-.4641958-.3406224-.5109335-.7966819-.9041664-1.451499-.9615485-.4785108-.041966-.957878-.0867461-1.4377346-.0995929-.8007806-.0214112-1.6031518-.0259382-2.3848459.1949035-.4159288.117456-.8456219.2745534-.9078369.7588146-.0579939.4513491.301348.7174603.6356693.9457654.682407.4659087,1.4393864.6725579,2.2688581.6385446.8081828-.0331568,1.5740325-.2675794,2.3537078-.4440081.3923764-.0888261.7856092-.2568126,1.2318808-.149267-.1125008.2522857-.3412953.2437212-.5070795.3292438-.6980678.3598313-1.2435652.8700307-1.5873687,1.5808841-.2639701.5456809-.4172134,1.1152201.0057504,1.6402239.5810401.7214978,1.3944839.7135451,2.2041349.5752896.6195803-.1058327,1.041076-.4633394,1.1816561-1.1190129.1109714-.5176628.0862567-1.0363043.0775087-1.555313-.0064234-.3822213.0680878-.5506973.5116065-.3978821.526839.181445,1.0759457.3176206,1.6261536.4082819,1.3557602.2234111,2.7170261.3178653,4.0014562-.3140724.4380129-.2155807.9789222-.4714145.8932772-1.0720305-.0828309-.5796942-.6582429-.6429492-1.1223164-.7245566ZM53.0343454,72.9483942c-1.3429746.5893599-2.6983065.6664404-4.0412199.0166396-.2655606-.1284675-.6445397-.2766333-.5580383-.6775742.0822192-.3807531.4643182-.4153782.773986-.4372788.4755744-.0336462.9553087-.0088092,1.4332077-.0088092.7969878-.0357262,1.5965449-.0397637,2.36007.2385825.2053644.0748782.4669487.1595444.4926422.3887059.0310769.2781015-.2472081.3861365-.4606477.4797343ZM53.8026421,76.9744427c-.4851789.024837-.863852-.1656619-1.1163212-.5650122-.2417024-.382466-.1377049-.7684802.0872355-1.1262316.4395423-.6992301,1.0827362-1.1602449,1.8045399-1.5286407.3447211-.1759393.4949057.0446577.560057.3099125.0801392.3264298.0977576.6681533.1424154,1.0032699.0559139,1.2183611-.4348318,1.8532352-1.4779266,1.9067021ZM61.8683812,73.9807834c-2.1040526.5617088-4.1830235.6605676-6.1874833-.3863812-.047533-.024837-.0775699-.083198-.1400907-.1531822.7092628-.2931506,1.4282525-.3988609,2.1626583-.460403,1.1005381-.0923742,2.1987515-.1303027,3.2935392.0429448.2938847.046493.582753.1331168.8686849.2185171.1945365.0582386.409016.1606455.4201498.3778167.0124797.2412742-.2356461.3121148-.4174581.3606877ZM98.2055918,71.4344355c-.4323848-.129691-.8705201-.0989811-1.3101236-.0554245-.9789222.0970235-1.9382684.3046515-2.8759587.5869129-.4287143.1290792-.6225167.0841768-.6672968-.3888282-.0457589-.4830377-.3520009-.7793694-.8246389-.8062864-1.1034745-.0628879-2.16327.2612172-2.7181272,1.1969499-.4169687.7029006-.835528.7144015-1.4508261.5918069-.215336-.0430672-.4345871-.0657019-.6510243-.1037528-1.2089402-.2131337-2.3088665-.0221453-3.2355453.8486195-.5143593.4832824-.4674993.9524946.1512246,1.2868771.3839342.2073832.8004136.2241452,1.2265586.1853602,1.2106531-.1103597,2.324772-.5675816,3.4617704-.9458877.3847907-.1279781.7556335-.3447822,1.1893642-.2825061.0061175.2012657-.0764687.3416012-.1744711.4665205-.4968633.6329165-.4070584,1.2611836.009788,1.8846791.4032655.6033078.8782282,1.1464193,1.4710138,1.5682821.759671.5406646,1.369341.3430694,1.6884298-.5269614.347841-.9482124.1984517-2.4876198-.8295329-3.1397452-.14474-.0918848-.3118701-.1867061-.3856471-.4536737.8423796.2215758,1.6347181.4858518,2.4630275.5921739,1.560574.2002869,2.8417007-.2727181,3.7992116-1.5412427.365337-.4838942.2515516-.7874445-.3371966-.9638732ZM85.4420416,74.3359654c-.1553845-.0037928-.3197005-.0409872-.4618712-.1033857-.4466998-.1962494-.4951504-.4458433-.1222276-.7539206.4195381-.3466175.9007406-.6206815,1.4488685-.6692544,1.1811667-.1044869,2.3396987.0690054,3.661935.3889506-1.575256.5858117-2.9694341,1.1751716-4.5267046,1.1376101ZM93.2105314,75.8693777c-.0078304.0510199-.0141926.1722688-.0463706.2860543-.2582808.9127309-.6869952,1.063099-1.445198.5164393-.4462104-.3216581-.7542876-.7577134-1.06836-1.200498-.3456387-.4871976-.2736969-.8515559.0849109-1.3190552.3928658-.512157.7314082-.5402975,1.2385489-.2141125.7573464.4870753,1.2484592,1.1837361,1.2364689,1.9311721ZM91.5541574,73.0760052c-.495028.2076279-.7945408-.1490223-1.0971123-.4049784-.377205-.3190888-.3241051-.7020442.0966565-.9732941.4539184-.2926612.9548193-.495028,1.4761525-.6230061.5399305-.1323827.9580004.2165595.8959689.7710496-.1968611.6434386-.7504948.9698683-1.3716657,1.2302291ZM97.9492686,72.4429664c-.7195402.7282271-1.6000931,1.1027404-2.6171885,1.165873-.0994705.0061175-.1996752.0007341-.2995128.0007341-.5883811.0085645-1.151191-.1107267-1.6834134-.3583631-.1714123-.0797722-.4332413-.1312815-.4222298-.3544479.0092986-.1878072.259749-.2197406.4224745-.2794474,1.0916065-.4008185,2.2332542-.5930304,3.3722102-.7938067.2944964-.0518764.5902163-.1075456.8876491-.129691.2044468-.0151714.475085-.107668.5741885.16921.083198.2320979-.0791604.4230862-.2341779.5799389ZM55.5926835,19.3901789c-.4336695-.5017573-.8248836-1.0315327-1.1039639-1.6374098-.1180677-.2562009-.2990234-.5646452.0192089-.7458455.2591984-.1476764.4047337.1804662.5345471.3488198.7834069,1.0164837,1.5719526,2.0212217,2.5956549,2.8204118,1.8779499,1.4662422,4.071318,2.1358636,6.3741894,2.4295036,3.1787749.4053455,6.3171743.967666,9.4429716,1.6895309,3.1629917.7304294,6.2842621.1726358,9.3124242-.9141991.29364-.1054657.705837-.3839342.8633015-.0643561.1722688.3496762-.286299.5388293-.5756567.6926232-1.9604138,1.0416877-4.0935857,1.322481-6.2698248,1.406413-.2199853.0084421-.4405823.0011011-.6604452.0004894-1.5376946.0597068-3.0446793-.1654172-4.4985641-.6325494-2.3836224-.7657885-4.8388194-1.0744775-7.3150607-1.2761103-3.4255548-.2788356-6.4200706-1.4578-8.7187821-4.1173216ZM88.0686511,22.9120231c-.0234912-.2070162.2018775-.2144795.3423353-.2612172.4741062-.1580762.9460101-.3298556,1.4302713-.4497585,2.5984689-.6431939,4.8620659-1.9186924,6.9046989-3.6192348.1230841-.1024069.2384601-.2213311.3769603-.2966987.2614619-.1424154.514237-.6477208.7708049-.3679064.2811603.3067314-.1493893.6431939-.3862589.8787176-2.4539736,2.4379457-5.394166,3.8937882-8.8340358,4.3222578-.0595844.0074633-.1197806.0090539-.1799768.0138255-.1851155.0070963-.3989833.0084421-.4247991-.2199853ZM99.4180801,46.6830341c.1064445.2620737-.1555068.3883388-.3354837.4961292-1.2904253.7722731-2.7291387,1.1262316-4.1792307,1.4245208-1.8870038.3882165-3.7979881.5690498-5.727325.5451915-3.0625424-.0222677-6.0686815-.3588525-8.9014506-1.6341064-.2169265-.0976353-.4225968-.2253687-.6200697-.3587301-.1201477-.0812404-.19368-.2194959-.137399-.3676617.0697395-.1840144.2371143-.1179454.3608101-.0862567.2120325.0544457.4183146.1339732.6236179.2120325,3.535058,1.344504,7.1919767,1.6304359,10.9263428,1.2750092,2.5206543-.2399283,4.9746279-.776433,7.3671818-1.602173.2199853-.075857.4958845-.2170489.6230061.0960447ZM111.1312557,42.8872483c-.1000823-.1856049.0411096-.3041621.1650501-.4004515.3843013-.298901.8362621-.4596689,1.2907923-.6172557,1.8362285-.6368317,3.6290228-1.3638353,5.2026883-2.5396186,1.4368782-1.0736211,2.466698-2.4938597,3.4185809-3.9840825.1039975-.1629702.1502458-.5028584.438747-.3812425.2948635.1243076.1656619.411463.0824639.6318153-.7065711,1.8698748-1.9303157,3.3563047-3.5014118,4.5493394-1.9645737,1.4918133-4.2790683,2.2091513-6.6169317,2.8554039-.0385402.0106444-.0775699.0192089-.1385002.034258-.1262652.0154161-.2678241-.0113785-.3414788-.1481658ZM32.8669696,44.4090374c.6396457.0865014,1.1160765.3581184,1.5387346.6719461,3.2702927,2.4281577,7.1077999,2.9447194,10.9943694,3.3012472,3.5559799.3261851,7.0741536-.1213712,10.5944073-.529286.2554668-.0296087.6715791-.2208417.7410738.0805063.0750005.3259404-.3411118.4159899-.6396457.4847506-3.6547163.8420126-7.357088,1.0933194-11.0932282.8644026-2.6693096-.1635819-5.2771994-.6538383-7.7842117-1.6097587-1.3021097-.4966186-2.4829094-1.2000086-3.5126068-2.1455293-.3244722-.2980446-.6227002-.6183568-.8388927-1.1182788ZM62.2569647,46.6165981c-.0119903-.4102395.553389-.3718216.8805528-.3814872,2.8156401-.0833203,5.3046058-1.2007427,7.7759531-2.3941445.2123996-.1025293.5081195-.4715368.7121992-.1192912.1929459.3330367-.2418859.4451092-.4501256.5755343-2.4362328,1.526316-5.0382499,2.5814623-7.924486,2.7428419-.401675-.0457589-.9783105.1113385-.9940936-.4234533Z"/>
  </g>
</svg>