<?xml version="1.0" encoding="UTF-8"?>
<svg id="Layer_2" xmlns="http://www.w3.org/2000/svg" viewBox="0 0 102.5146127 75.8863697">
  <g id="Layer_1-2" data-name="Layer_1">
    <path d="M101.6440548,56.8313483c1.0198418-.5728872,1.1447132-1.4536489.3689542-2.2845918-.2309943-.2475613-.278278-.4430045-.0411521-.6876769.4641111-.4790273.3702513-.9680774.0319548-1.4661479-.2406633-.3543328-.5088007-.6968742-.8617186-.9292835-.5016079-.3303372-.5006646-.6390372-.1604815-1.1042685.4534989-.619994.950626-1.2600335,1.0421276-2.0429852.2480919-2.1229901-.2153117-4.063154-1.6418404-5.7188493-1.1813846-1.3713447-2.6323215-2.3940164-4.2689736-3.1144735-5.6934977-2.5062709-11.5980621-4.057553-17.8845514-3.776563-1.084341.0484628-2.1685641.0969257-3.4006518.1519917.3427772-.1808218.5567919-.2985593.7750515-.4080428,1.2412851-.6230008,2.4561573-1.2919293,3.6432018-2.0145089,3.8171255-2.3236215,6.2834235-5.7046995,7.653589-9.8989154.8722129-2.6698182-.1031751-5.3581491-2.2810544-6.6218379-.5065603-.2939017-1.1054477-.4576259-1.2452942-1.1550896-.0253516-.1265811-.1854794-.2531623-.3137703-.3269767-.36919-.2124818-.3236751-.4608095-.1144949-.75365.1120187-.1565314.212246-.3224959.30587-.4908777.4784967-.8614238.3061058-1.7025073-.469889-2.3157802-.3074029-.2429037-.6518309-.4374625-1.0315153-.5017258-.4663515-.0788258-.4713039-.2886545-.3629406-.6831961.1264043-.4605737.4248456-.9357688.0696874-1.432896-1.0355244-1.4496399-1.7785032-3.065539-2.6186434-4.6260184-.4412358-.8195052-1.0587536-1.4661479-1.8564446-1.9418146-1.5634273-.9321135-3.2286147-1.6484436-4.9480427-2.2235122-1.6958452-.5671683-3.4495863-.5019617-5.2145293-.382986-3.0624733.2063502-6.1361484.3707229-9.1165532,1.1333344-5.628291,1.4401477-11.0937422,3.3877402-16.4303129,5.672391-4.3802848,1.8753109-8.1180539,4.6544948-11.106359,8.398985-1.1868086,1.4871366-2.2303512,3.0575209-2.7778279,4.9014665-.9625354,3.2414084-.2571713,6.1113274,2.6753602,7.6893761.0990481.0532973.2511577.1305902.2598834.2098287.0916195.8257547.7061894,1.5190914.4992496,2.4368783-.3298066,1.4623746-.0029479,1.8728347,1.4752273,2.102473.8144349.1265222.9166667.2128945.8303533,1.0532705-.1159099,1.1276745.2331168,2.0882643.9062902,2.9625408.1048259.1360732.2010441.2788086.3575165.4968324-.2910128-.0539458-.4806192-.082599-.6671598-.1245766-6.398508-1.4399119-12.8804993-1.9493022-19.428287-1.788408-2.9767495.0731069-5.8202557.6277764-8.4559966,2.0650942-2.3647736,1.289571-3.9931718,3.1974853-4.7350893,5.7961422-.4384058,1.5359532-.3191943,3.039362.7359039,4.3269285.3326366.4060383.2977339.8518727.3985507,1.2931085.1833569.8021718-.5846197.5104515-.8665531.774285-.0400909.0375557-.1030572.0508211-.1554112.0752884-1.4537669.6798356-1.6443166,2.455214-.360936,3.4388561.2401917.1841234.4235486.3970178.5132815.6789512.1728625.5435855.4359296,1.031987.8551154,1.4216941.2069398.1924363.1885452.3238519-.0174513.5088597-.4591587.4124057-.91761.830825-1.2686412,1.3448729-.2983235.4368729-.490524.8877777-.403739,1.4577759.522125,3.4301304,2.4631143,5.8807458,5.2942394,7.714315,2.2900159,1.4831865,4.8383823,2.3646557,7.4336786,3.1318659,2.3341159.6899762,4.725774,1.0952481,7.1167247,1.5245745,2.5989517.4666463,5.168071,1.1276156,7.825862,1.1728947,1.8713018.0319548,3.7443723-.0356691,5.6154383.0021225,2.9381915.059252,5.863884-.0233471,8.7707102-.4981295,2.0636202-.3370584,4.0965827-.7711013,5.9151768-1.8680592.330632-.1993933.5033766-.0063674.7079582.1503409,2.6626255,2.0400373,5.6060052,3.520217,8.820588,4.4772104,6.2525299,1.8612791,12.6173144,1.9977061,19.0364573,1.241403,4.665166-.5495991,9.2252703-1.6035771,13.7192246-2.9571757,2.763914-.8324758,5.4382129-1.8612201,7.7769275-3.6044079,1.1888132-.8861858,2.2198568-1.9281366,2.8298281-3.3069098.8505167-1.9224767.8646664-3.7431342-.7592509-5.3220083-.1103679-.1073611-.1993933-.2373028-.312827-.3409495-.2018695-.1844181-.2444366-.4047412-.2519831-.6727607-.033016-1.1767269.6027785-1.8763132,1.5703842-2.4198986ZM100.7428349,52.2316837c.7070148.6897404.6274226,1.5994501-.2125997,2.1291217-.2242732.1413794-.4895807-.0046576-.7586614.0520003-.1911393-.0991071-.5824972.2280465-.6294272-.2056427-.0485807-.4472494-.4459523-.9475013.1183861-1.3607913.2301689-.1686176.4617529-.3613487.6237673-.5916356.2986772-.424374.5505424-.3234392.8585349-.0230523ZM79.6174057,36.5516013c5.6733343.2090623,10.9656871,1.802145,15.9553536,4.4551604,1.4917353.7930924,2.8569484,1.7664169,3.879856,3.1456029.4565646.6156312.7573643,1.2891583.7492282,2.0834298-.0038912.3757343-.143266.6426925-.4680023.7909699-.3346411.1528171-.5393405.4030315-.7203392.7116725-.5505424.9386577-1.4077802,1.5081844-2.382225,1.9372749-.507032.223212-1.0166581.4544422-1.3734671.9110068,1.0514429-.4514353,2.1333076-.8014643,3.0976118-1.4113766.4056256-.2565228.6808378-.6123296.9062902-1.0268577.1620144-.2977929.326505-.6146289.887306-.7263528-.5261341.7136181-.4253173,1.4637896-.6087921,2.152115-.2765093,1.0377058-.9600592,1.7876415-1.7800361,2.429096-1.4902024,1.1659378-3.2545558,1.7339315-5.0285783,2.2698525-4.1321929,1.2481241-8.3731028,1.9191751-12.6564619,2.3625333-5.8650631.6071413-11.7183348.2854708-17.5685408-.2213254-3.3949919-.2940786-6.7251309-.8927301-9.8804028-2.2450905-1.2088586-.518116-2.353218-1.1565636-3.4090237-1.9438192-.2615342-.1949125-.5083291-.4169454-.7313052-.6551325-.9036961-.9651295-1.0303362-1.8603358-.355512-2.996677.7738723-1.3030722,1.8031473-2.4033906,2.898808-3.4420398,2.2467413-2.1299471,4.9883694-3.3270143,7.919486-4.1277121,4.4050468-1.2033166,8.8066741-2.4135902,13.1540608-3.8166539,2.4484929-.7902624,4.9851858-.728829,7.5146858-.6356766ZM92.8678026,55.797003c-.32509.0120273-.651713-.0168028-.9777464-.0274741l.0021225-.0007075c1.8926443-.5093313,3.7648894-1.0767355,5.5522362-1.8967713.1547037-.0709845.4306235-.3400062.5077395-.0102586.0721636.3088179.2233299.9343538-.1594203.9453199-1.0000322.0285353-1.2856209.5921662-1.3484693,1.4004695-.2431395.0516465-.3381786-.0986944-.4459523-.1863637-.4379341-.3560426-.8185619-.2986183-1.1199511.1580643-.2263957.343131-.4289727.363766-.6976996.0562452-.3484371-.3985507-.8151424-.4570363-1.3128591-.4385237ZM93.6100738,56.7076561c-.456093.1673206-.8259905.3150673-1.2043779.4364602-.174985.0561273-.4451269.1279961-.480855-.1206854-.0328981-.2283413.0760548-.5257804.3968999-.5185876.4117571.0091973.840494-.0459277,1.2883329.2028128ZM77.7846619,59.3231158c-.493236.5067962-.9722044.950744-1.7951291.7031237-.6302526-.1896064-1.3588458-.0861365-1.8314467-.6931009-.0458687-.0590751-.1210981-.1452706-.1755746-.1402592-1.0322228.0955696-1.4898487-.8330064-2.24851-1.2435254.1192115-.1762231.285235-.0811841.4213082-.0801228.9444945.0071338,1.8888711.0333698,2.8332476.0368483.8627798.0031837,1.7207251-.0067801,2.5549696.2861193.3436026.1206264.3494983.0711024.6481756-.2164319.067565-.0651477.2151938-.0614334.3266229-.0646761,3.5774055-.1044132,7.0798175-.7788837,10.5874177-1.4047145.9440228-.1684997,1.8808529-.3944237,2.7830161-.7363755-.3789769.7707476-.9364763,1.3780068-1.6694323,1.8190068-.1062409.0639686-.2917203.1185629-.3810994.0693926-.7456908-.4099884-1.2347998.1133158-1.7325165.4899344-.3041013.2301689-.5842659.3421876-.9533381.2680195-.5807285-.1167353-1.1520239-.1080096-1.6848791.1949715-.1478647.084014-.2928994.0623178-.4472494.0320727-1.0326945-.2019874-2.0637381-.3022736-3.0709631.1175017-.1917288.0798281-.3445459.0010612-.4926464-.075819-1.3882064-.7199854-2.6037862-.4594535-3.6719729.6380349ZM80.523578,59.4008214c-.0611976.2805184-.4667053.5553769-.8574736.530438-.2820513-.0179819-.5310865-.213602-.5144606-.5190003.0200455-.3669497.3413622-.338945.6104429-.3346411.0380864,0,.0787668-.0088436.1139053.001415.2477382.0720457.7230512-.024762.647586.3217884ZM70.6932888,57.8619203c-.7877862.3160106-1.3705193.8708569-1.939928,1.446692-.1148486.1161457-.2381871.2956114-.4356938.1971529-.1483363-.0739913-.1501051-.2591759-.1745133-.4072764-.1824136-1.1016744-.365063-1.279961-1.5232184-1.5077717,1.3547187.0270024,2.7002402.2380692,4.0733536.2712032ZM63.5956663,57.3388519c-.5584427.352682-1.0288033.5413451-1.3925693.8869523-.148808.1414973-.2556385.1036468-.3859339-.019338-.903814-.854231-2.0324908-1.1197743-3.2224831-1.2432896-.4872224-.0504674-.9826988-.1111933-1.4050682-.4229001,2.1006454.1436787,4.1396215.7470468,6.4060545.7985754ZM56.2734168,56.5462902c-.9041678.03449-1.8313288.0920912-2.6739453-.1842413-.4157662-.136368-.6822528-.7280036-1.0161865-1.1137017,1.234564.4476031,2.5396407.637917,3.6901317,1.297943ZM51.4529574,54.7327664c-1.3688685-.4384648-2.6155776-1.0908852-3.7165445-1.9986494-.3094074-.2551078-.2723823-.6412776-.2084727-1.162813,1.0081683,1.5539941,2.4922391,2.3193766,3.9250172,3.1614624ZM30.2341401,26.9589097c-1.4305377-.7621988-2.2822336-1.8339819-2.4361119-3.3765383-.1676743-1.6792192.2123639-3.2720072.9973201-4.7469986,1.7467842-3.2827374,4.2495177-5.9026778,7.2465485-8.0667022,2.6938728-1.9452341,5.6753388-3.3444066,8.7656399-4.5196596,3.1882879-1.2126319,6.4283403-2.2806417,9.6632044-3.360384,3.855094-1.2867411,7.8420163-1.8053287,11.8870704-1.9803137,1.6778043-.0725763,3.361858-.2610625,5.0020475.2381871,1.9038462.5794904,3.7357646,1.3425146,5.4228841,2.4117036,1.2189993.7725163,1.6596454,2.0780058,2.255467,3.3915724-.5012542-.0962182-.9210295-.2009851-1.3472901-.2544593-2.1654983-.2718517-4.2673228.1429123-6.3539363.6418082-2.6838501.6418082-5.2924707,1.5349509-7.8858804,2.4674181-3.9725367,1.4283563-8.0131101,2.6165799-12.0729035,3.7794519-6.7872718,1.9441729-12.9475926,5.2538538-18.6294168,9.4425276-1.313095.9681363-2.306406,2.1639654-2.5146429,3.9323869ZM31.4475973,25.0596622c.4933539-.7777635,1.1934118-1.3555441,1.9085628-1.9200005,3.3849692-2.671469,7.1563439-4.6632794,11.0545946-6.4722045,3.1296845-1.4522929,6.3683219-2.5188878,9.6906785-3.4054863,4.6387532-1.2379245,9.1160815-2.9910171,13.6985896-4.4128881,2.3424878-.7267655,4.6920505-1.4038891,7.1463212-1.6275138,1.1832712-.1077738,2.3510956.0018277,3.4974595.3109403.3746141.1010527.727414.2622417.9968485.5583248.0762906.0838372.1739238.1809986.1166174.3033938-.0655604.1402002-.2030486.06615-.3074029.0544765-.6893277-.0766444-1.3759433-.1924363-2.0672756-.2352393-2.2743333-.1410846-4.4348792.436814-6.5866994,1.0740824-4.7326131,1.4016487-9.3670034,3.0773305-13.9671986,4.8631443-2.2272854.8645485-4.6419369,1.1385227-6.8976397,1.9365085-4.2004653,1.4858985-8.3439779,3.1129406-12.2675802,5.2450691-2.510398,1.3642109-4.845693,2.951221-6.5206673,5.5392066-.1117829-.7883168.185951-1.3092627.5047916-1.811814ZM31.6152716,26.8086278c1.5650781-2.0731123,3.5406162-3.6706758,5.790895-4.9007001,5.1100571-2.7931567,10.478111-4.9709181,16.1382389-6.3698548,2.7255918-.6736451,5.2811509-1.7972516,7.9145336-2.7163944,4.2858353-1.4958623,8.5693124-3.0522147,13.0666862-3.8486087.702652-.1243997,1.4167417-.1701505,2.1321285-.1207444,1.0054562.0353743,2.0048988.121275,2.969085.4262606.7561852.2391304.8725667.5198847.5695266,1.2531355-.0441.1067715-.0672112.2509808-.2110668.2323504-.8361311-.1084223-1.3244147.7344889-2.1552397.7403257-.7809472.005483-1.5571778.2504502-2.3411908.338945-1.2811401.144681-2.4718399.5700573-3.6474467,1.0667717-1.4729869.6224113-2.9462096,1.2457658-4.4333463,1.8329796-.7092552.2800467-1.3587278.6262435-1.9175243,1.1503731-.7554777.7086657-1.6653053.9512156-2.674299.772929-.6567833-.1161457-1.2279607.0660321-1.7362898.4405283-1.234564.9094739-2.6066161,1.1961239-4.104483.9831704-.114377-.0162722-.2302869-.0240545-.3457251-.0313652-1.3491768-.085488-1.5567061.099166-1.6083527,1.4293586-.0295965.7616092-.1712117.8849477-.9277506.6850828-.613155-.1620144-1.2105094-.3841652-1.8139954-.5825562-.5301432-.1743365-1.0583998-.325149-1.620262-.4029725-1.4265286-.1976246-2.5965934.3943648-3.5896686,1.2560244-1.0282137.8922584-2.1871945,1.3188728-3.4791828,1.5400213-.6452277.1104269-1.2843238.2598834-1.9229483.4055666-.8317683.1896064-1.2605051.5903975-1.326773,1.4315989-.0436283.552429-.3301604.8178544-.7448654,1.0627037-.9181996.5419936-1.9556106.686203-2.9680238.9173742-.5069141.115733-1.0180731.2187902-1.5164973.3645324-.5551411.1623682-1.0397693.4714808-1.2706458,1.0159506-.1627219.3836935-.4302697.5720028-.7874325.6918039-.5350956.1794657-1.0434247.37202-1.341984.9209116-.1769895.3253259-.3235572.1313567-.4124646-.1052976-.2583505-.6882665-.1379599-1.2784281.3163644-1.8802043ZM33.835836,31.6247832c-.5761298.618579-1.8478368.4761384-2.3441386-.2169625-.128173-.1789941-.2196746-.3891176-.1673206-.5973544.216255-.8621902.5768373-1.6503302,1.4418575-2.0388582.5629234-.2528675,1.0451934-.5636899,1.3668639-1.1045044.2783959-.468415.6629149-.739913,1.2396343-.8334191,1.0258554-.1662004,2.0379149-.4223694,3.0510356-.6609103.9640683-.2269853,1.7651788-.7502894,2.4845747-1.4168596.2128355-.1971529.3328724-.3927729.2841737-.7035953-.0927986-.5931095.161189-.9540456.7736365-1.0602864.6643298-.1153203,1.3192265-.2983235,1.9870938-.3768545,1.2536661-.1475109,2.335413-.6596133,3.2758984-1.4688599,1.4931503-1.2846776,3.1254396-1.5562345,4.9533489-.8160267.7476953.3027453,1.5084791.5987694,2.3335263.6350281.635205.0278278.8756325-.1676743.9624175-.8038226.0311294-.2285181.0338414-.4621066.0340773-.6933957.0005896-.8405529.4955943-1.2111579,1.3184011-.98376,1.2458837.3443691,2.4440121.1916699,3.6044079-.349911.5062066-.2363005,1.0114699-.4749003,1.5208602-.7044207.396782-.1787583.8421448-.2969085,1.2402238-.1547037.7147972.2554026,1.3311359.0248799,1.8408799-.3714304,2.3503881-1.826966,5.1854044-2.5975367,7.8825788-3.6519274,2.22646-.8704442,4.6076238-1.0848126,6.9706287-1.3134487.2281644-.02205.5829689-.1365449.6706972.1407898.0837192.2642462-.2018695.4709502-.4121109.6449329-.0147393.0123221-.0350206.0202813-.045515.0353154-.1193294.172155-.5422884.2497427-.3689542.4631089.1646085.2026359.4886373-.0504084.614452-.2421373.2998564-.4570952.7231691-.5172316,1.2029629-.5006646.3908863.0135012.7952148-.0021225.9929573.4294443.148808.325208-.0971615,1.139407-.4540884,1.3511813-1.0109982.5998896-1.9940507,1.3057843-3.0872353,1.6826387-.529082.1824136-.753709.5736536-1.1592166.8086571-1.0713704.6209373-2.1478111,1.2127498-3.3426379,1.56101-.1285267.0374378-.2993847.123987-.3875847.0746988-.662679-.3697207-1.0776199-.0369072-1.4627284.4582744-.077116.099166-.2167267.2006314-.3542149.1554702-.1858331-.0608438-.1380778-.252101-.1549395-.3991993-.0086078-.0763496.0007075-.1546448-.0054241-.231407-.0174513-.2141915-.0383222-.5086828-.2853529-.4922337-.2426679.0161543-.1417331.3191943-.1374882.4879888.0192201.7486976-.2895978,1.2526049-1.0114699,1.4982206-.4659978.1585949-1.0500279.6317855-1.3825465.2981466-.3385323-.3396525.1475109-.9124807.3489088-1.347467.3399473-.7337814.7386159-1.4405604,1.1183003-2.1555935.1084813-.2042278.2256882-.4089862.4896986-.4507868.0841909-.0133243.2215612.0070749.1686176-.1452706-.1729805-.4978347.224627-.702711.5072678-.9243311.4691815-.3677161.9862362-.673704,1.471454-1.0218463.2754481-.1976246.5322657-.0217552.7718678.0350795.4637574.1100731.8639589.0874335,1.2485958-.2198514.2263957-.1808807.4920569-.3161286.7962761-.150164.6100892.3329903,1.1483685.1243408,1.6727339-.2142505.4035031-.2604729.8062988-.520769,1.2251308-.9827577-.5730641.0765265-.8695009.3657705-1.1986001.5846197-.4971272.330632-1.0007397.5744201-1.6160171.3191354-.4691815-.1946767-.8325937.0902045-1.1545001.3479065-.247974.19845-.4610454.231407-.7338993.1273476-.548302-.2091212-1.0606402-.0841319-1.5581211.174985-1.0737287.559327-1.8959459,1.3813674-2.5161758,2.4121163-.5986515.994726-1.0351707,2.0665091-1.4818305,3.1336346-.0795922.1903139-.1119008.3756753-.004127.5543157.1958558.3246773.0575422.4479569-.2650716.4775534-.2497427.0229344-.4999571.0731069-.7488745.0669754-.7318948-.017923-1.3839615.052295-1.888989.7237587-.3754395.4992496-.9785718.4691225-1.5475088.2860604-.781183-.2512756-1.5638989-.3973126-2.3858803-.1759873-.9739731.2622417-1.4265286.7499947-1.5697946,1.7593421-.1148486.8097183-.2116564.8856552-1.012649.6721122-.7447475-.1985679-1.483835-.4267323-2.1821242-.7564799-.3227318-.1524044-.6176357-.1909624-.934118-.0245852-1.4233449.748167-3.0773305,1.0486719-4.2896086,2.2060608-.296201.2827588-.5707058.2075294-.8753966.0025941-.4887553-.3287454-.8158499-.818444-1.2463554-1.2048495-.2845275-.2554026-.4856895-.3163644-.8160857-.0201634-1.2925778,1.1591577-2.8179188,1.6459674-4.555034,1.4751094-1.2687591-.1247535-1.7609339.1800553-2.299567,1.3679252-.5664609,1.2490674-.7011191,1.3768867-2.0579603,1.2775438-1.0578102-.0774108-1.9126898.1400823-2.4514407,1.1247267-.1109575.2026949-.3201376.2752123-.5137531.3537433-.5176443.2100645-1.0430709.4012628-1.5624839.6073772-.6854365.2720286-1.3187548.6099713-1.8371066,1.1664094ZM62.2862267,22.1370354c.2898336-.095039.5323836-.1313567.8291742-.0441.5903975.1734521,1.1922327.2969085,1.8077459.3757343.6415723.0821274,1.13528-.0974563,1.5229826-.5949372.2601192-.3336978.5893363-.4150588,1.0081683-.4303287,1.8372245-.0671523,3.4630285-.661323,4.7243591-2.0606724.1348941-.1495744.2898336-.1564135.4603379-.1857742,1.5449147-.2656612,3.0417203-.7004706,4.4706072-1.3452856.3959566-.1786403.9143084-.2458516,1.0214926-.8118997.0064853-.0340773.0961003-.0573064.150223-.0767033,1.0216105-.3662422,1.8993654-1.0270346,2.9042321-1.42193.3013893-.118445.6833141-.4799117.9635966.0018866.2885366.496066-.0902045.7794143-.4432403,1.0377648-1.4173313,1.037529-2.8938556,1.9847355-4.3997407,2.8874883-5.8852265,3.5282352-12.2026093,6.0731821-18.7038208,8.1917504-4.7658649,1.5530508-9.6603745,2.6390426-14.4991105,3.9269039-2.8109618.748167-5.6181503,1.5199168-8.505167,1.9382772-.5009004.0725174-1.3854944-.4724241-1.5097762-.9462632-.0126168-.0481091-.0102586-.1315925.019338-.1547037.4578617-.3572807.596647-1.0206672,1.2805506-1.18221,1.3192265-.3115888,2.5033231-.8960906,3.3696403-1.9941097.1809986-.2294615.4313309-.224568.6853186-.201221.4990138.0409753.9983814.1196242,1.4970414.1147307.8930838-.0086667,1.3930409-.3997888,1.6799267-1.2350356.4503152-1.3109725.6894456-1.5129599,2.0541871-1.4048913,1.6950198.1341866,3.112469-.5987105,4.5285032-1.346111.3092895-.1632525.4735443-.1706222.7290648.0896739,1.409431,1.4354901,1.4172134,1.4275899,3.0673077.3112941.6418082-.4342788,1.302011-.8243987,2.0847269-.9572292.1871302-.0318369.3927729-.0831297.541463-.1917878.9115964-.6660396,1.8176507-.3336388,2.726653-.0135012.3813352.1343635.7526477.3022147,1.1405862.4117571.8081854.2279875,1.3030722-.0711024,1.518384-.8843581.0147393-.0557735.0357281-.1150845.0300682-.1702684-.0961003-.9365942.4372267-1.3691633,1.2451763-1.6339401ZM34.0814517,34.6503493c-.0232291-.2578788.2432574-.2228582.3838114-.2180827,2.0067855.0685672,3.8753753-.6099123,5.7707316-1.0956018,8.9410966-2.291313,17.8264196-4.7697561,26.4553967-8.0857454,4.9455665-1.9005446,9.6740526-4.2255811,14.0990269-7.152099.578606-.3825144,1.1812666-.7285932,1.774612-1.0888217.1288805-.0783541.2646-.1909034.4157662-.0464583.1676743.1604226.0884358.3203735-.0318369.458805-.2146042.2471486-.4289727.4962428-.6629149.724702-2.7759412,2.711442-6.1136267,4.4966074-9.6314855,6.0623929-6.9548282,3.0955483-14.2608055,5.0475035-21.596851,6.9321886-3.6192651.9298141-7.1695503,2.1147361-10.8122804,2.9597108-1.7662401.4097526-3.5423849.7644981-5.3618044.8284077-.1348941,0-.2707315.0099638-.4045644-.0024172-.1824136-.0169207-.3813352-.0946853-.3976074-.276981ZM34.3480562,35.6160683c5.9590409-.7278267,11.5787242-2.5510784,17.2407387-4.1777078,3.4284796-.9849981,6.9266466-1.7034506,10.3353166-2.7447529,4.9078339-1.4992818,9.7030595-3.319114,14.3223568-5.5593111,2.7113241-1.3149816,5.0608868-3.1765555,7.1814597-5.3131647.3287454-.3312216.5661071-.3309858.9282223-.099166,1.3376212.8561766,2.2259884,2.90435,1.8725989,4.6289663-.7186884,3.5074823-2.5290284,6.3974467-5.2152368,8.7266102-2.6014279,2.2555849-5.6870124,3.6755103-8.8551369,4.9257569-4.7964048,1.8928801-9.7925566,3.130392-14.7357648,4.5565668-4.8596069,1.4020614-9.7071865,1.4140297-14.596272.523599-3.2262564-.5876265-6.0159936-2.0373843-7.9949513-4.7768899-.1561187-.2161371-.3059879-.436755-.4833312-.6905068ZM1.931614,42.9266443c.7563031-2.3386556,2.4127648-3.9040285,4.4616457-5.1118258,1.9179959-1.1307403,4.0390405-1.5904297,6.226235-1.802086,4.3839401-.4242561,8.7507827-.159774,13.1133803.3233213,2.5515501.2825229,5.081286.6775362,7.5745864,1.3013035,1.1942372.2987951,2.3111226.7437452,3.2787283,1.5178533,2.2621881,1.8097505,4.9412037,2.553024,7.7281109,2.9963822,2.816268.4479569,5.6511664.4392312,8.4891306.2614163.1884272-.0117914.3782695-.0015329.7256453-.0015329-1.3834899.8868933-2.6146343,1.7141808-3.7146579,2.7200498-.9170204.8386073-1.7145935,1.770485-2.3663065,2.8330708-.6729376,1.0970757-1.0825723,2.2593582-.9933111,3.5607206.0249979.3644145-.0755831.5124561-.4658799.618579-5.2076903,1.4156805-10.5130137,1.5339487-15.8547726,1.2747728-4.2062431-.2041688-8.359071-.946499-12.5545839-1.2210038-2.0999379-.1373703-4.1583699-.5309686-6.1228241-1.1482506-2.4343432-.7649108-4.9081876-1.4914405-7.2213148-2.6035503-2.3545151-1.1320374-3.1108182-3.0237384-2.3038119-5.5192202ZM54.1220682,63.9915834c4.4624711,1.317222,9.0363714,1.9072067,13.6699364,2.1475753,2.0971079.108835,4.1792407.4425328,6.2837772.4754899.187366.0028889.3737887.0646761.5605651.0991071-1.222065.3109993-2.4592231.1906676-3.6803448.068862-2.4203113-.2413708-4.851235-.2574072-7.273315-.4309772-3.9094525-.2801057-7.7822337-.7916774-11.5066785-2.0930988-.9647758-.3371173-1.8968892-.7560672-2.7449297-1.3385645-.1690893-.1161457-.3268588-.2486815-.4492539-.4355759,1.7135323.5021975,3.4277721,1.001683,5.1402432,1.5071821ZM48.5679454,61.3057288c4.4696639,2.2511041,9.2815155,3.0444913,14.0787456,3.8911758.338886.0597826.6837857.0994019,1.1282051.3312806-1.375-.0849573-2.5858632-.3074618-3.7940143-.5587375-3.4730513-.7223437-6.8976397-1.6225024-10.2486495-2.7912701-.8908434-.3107045-.9296373-.354097-1.164287-.8724488ZM72.5095246,65.9701873c-6.4620638-.2565228-12.7144758-1.6940764-18.8982616-3.4572507-2.325744-.6631507-4.4956051-1.723673-6.4847034-3.1276799-.6028964-.4255531-.9560501-1.0500868-1.3382107-1.6358267-.3530358-.5409913.0957465-1.44398.7293007-1.6499175.0363176-.0118504.0911478-.0476374.1052976-.0353743.4576259.3977843,1.1830354.3728454,1.5502209.8037047.5012542.5879802,1.0991982.9574061,1.7764986,1.2421105.3608181.1516969.621409.3519156.715033.7534142.08537.3660653.343131.5793725.6968742.7065432,1.3987008.502905,2.7469343,1.1216609,4.0608546,1.8142312.5159935.2720286,1.0729033.3428951,1.6295773.3047498,1.7794465-.1219825,3.5019403.096513,5.1607603.7624936.4178887.1677922.8248114.1575926,1.2289041-.0339594.3160106-.1498103.560801-.1025855.8079496.1765179.8526392.9629481,1.919293,1.2279607,3.1487866.8940271.1486901-.0403857.3019788-.0644992.449136-.1090119,1.0568669-.3197249,2.0894435-.5568508,3.241939-.5344471.9814017.0190432,1.6985572.0257053,2.412529.8463897.8028793.9230341,1.4802976.801936,2.3777442-.0859596.0643813-.0637327.1495155-.1277013.2347676-.145978,1.0243225-.2194387,1.9747128-.6534817,2.9505725-1.0124132.3676572-.1352478.6899173-.1383726,1.0282137.0993429.410578.2884776.8623081.3363509,1.297884.0360229.2123639-.1464497.4197753-.1505178.6573729-.0847805.9281044.2569355,1.8659957.4813267,2.787261.760489.9223266.2794572,1.7934783.1710349,2.637038-.2465001.5352135-.2649537,1.059461-.5532544,1.5806428-.8450926,1.056749-.5918125,2.1706865-.8808207,3.3898037-.7200444.4000836.0527667.8088929.0520592,1.2139289.0539458.7193959.0034195,1.3093217-.278278,1.7592831-.844621.1155561-.1455064.1872481-.3194302.4334534-.326564.8084212-.023406,1.616135-.0733428,2.5260806-.1180913-.4032673.6084384-.9380092.8818819-1.4562431,1.160042-2.0636202,1.1075701-4.2562388,1.8980684-6.4843497,2.5974778-3.8986044,1.2237748-7.8691366,2.0476428-11.9670163,2.1965687-1.9923999.0725174-3.9733621-.115674-5.958923-.1945588ZM46.9816427,63.4943383c-.250804-.5486558-.2820513-.9887124-.1726267-1.4495219.2267494.4193626.2077652.8650791.1726267,1.4495219ZM45.7172464,60.3929533c.1693251.0392655.1646085.1980962.1509305.3333441-.0429208.421662-.0054241.8796416-.1630756,1.2546094-.1967992.4677665-.7196317.208001-1.0855201.2492711-3.3237716.374732-6.6554435.4399387-9.9912424.1580643-1.0866993-.0918553-2.1541785-.0126758-3.2027914.3158927-.6454635.2022822-1.3244147.2430806-1.9006625-.1503998-.9757418-.6663344-2.0276563-.8034688-3.1490224-.5974724-1.7281537.3173667-3.4172777-.034431-5.1164245-.259058-3.9066226-.5165241-7.6722195-1.6750922-11.5058531-2.5226021-1.0177193-.2249807-1.96469-.6775952-2.890672-1.1578606-.8205664-.4256121-1.6237994-.8856552-2.4933004-1.212514-.1894885-.0712203-.4069227-.1314746-.5710595-.4578027.4769638.2183775.8590065.1651981,1.2645142.0795333.5984157-.1263453,1.2052033-.1560008,1.5505746.5321478.0476374.0948621.161189.2048173.2575251.2192029.7238766.1084813,1.1207765.7073686,1.6634187,1.084341.9525127.6617357,1.9906312.6253002,3.0575209.4022061.7541806-.1577695,1.5095404-.3098201,2.2647822-.4630499.3625868-.0735196.7272961-.1017601,1.0901188-.0083719.1562366.0402088.3289812.0682724.4494898-.0240545.6129191-.4703606,1.0396514-.1182092,1.5484521.2423141.9725581.6890919,2.1033574,1.0257375,3.2678802,1.2509541.5490095.106123.9710252-.0629663,1.1909356-.5712954.314124-.7257043.9036961-1.1285589,1.5687334-1.4633179.1173248-.0591341.2774526-.212246.3594031-.125343.5412272.5734178,1.4948011.2674299,1.9816697.9562859.1438556.2036382.4160021.2144863.6440485.1476878.593817-.1741006,1.1436519-.0215194,1.6855866.194264.3769724.1501051.7285932.1824136,1.1004953-.0380274.2884187-.1710349.6151595-.2146632.9477961-.0886127.3564553.135012.7072507.0918553,1.0708987-.0077824.5685833-.1557649.7180988-.0610797.7091373.5300253-.0087257.5835585.1628398,1.0473159.5927558,1.4391455.3760291.3426003.7875504.4327459,1.213811.1660235.5702341-.356809,1.1417653-.549776,1.8430023-.5214176.6727018.0272382,1.3100292-.3038655,1.9185855-.5909281.4470136-.210772.8436777-.2038151,1.2616843.0326033.2008083.1135516.4380521.1731573.6190507.3097612.770217.581436,1.5628377.5182339,2.4049825.1743365.4675307-.1909624.8091287-.4324511,1.0187806-.92722.3150673-.7432735.5832047-.7844257,1.2221829-.3039834.6877948.5171726,1.2567319,1.2114527,2.1508769,1.4191ZM44.3554528,58.0500528c.0391476-.1107216.201162-.2237426.2610625-.1302365.1824136.2846454.2133072.6179895.1854794.9508619-.0561273.0052472-.0864313.0154468-.0922091.0075465-.1839465-.2483867-.4874582-.4511406-.3543328-.8281719ZM45.0674201,58.9683113c.010966-.095039.0940957-.2327631.1561187-.1940871.2913665.1813524.5486558.4049181.5123381.8980952-.3511491-.1700915-.7221079-.2365953-.6684568-.704008ZM45.150196,64.5351689c-.5613905.1123724-1.0659463.0363176-1.5298217-.2156655-.1352478-.0734607-.2753302-.1720371-.1797016-.3608181.0939778-.1854204.2366542-.1423227.3888817-.0665627.4382879.2180827.8802311.4291495,1.3206415.6430463ZM44.8753375,63.8155372c-.1469214-.3746141-.0653246-.6304294.3344053-.8347751.4222515-.2158423.5211817.0819505.6492368.3187816.172155.318251.2982056.661382.4751951,1.0646493-.6372095.033134-1.1996613.1126083-1.4588372-.5486558ZM46.6342669,53.4582295c-.1445631.4184783-.312827.8376051-.3204914,1.2817297-.0100227.5739484-.2258061.734312-.8057092.6332004-1.0783274-.1878966-1.9245991-.6184611-2.2577074-1.804857,1.0063996-.2836431,2.0452256-.3442511,3.0648315-.5135173.3328724-.0553019.4206007.1091888.3190764.4034442ZM43.0869295,54.3000205c.0201634.1614838-.0360818.3250311-.2531623.2671941-.2666045-.0710434-.6104429-.0926807-.6706972-.4238434-.033134-.1819419.2102414-.157062.3781515-.1732163.2081189.041388.5027871-.0140318.5457079.3298656ZM40.6439786,54.339345c.2180238-.0146214.3486729-.0287711.4796759-.0313652.7268245-.0143266,1.0785632.5327963.7689199,1.1968313-.0656783.1410846-.2055248.1564724-.3368815.168028-.106123.0093152-.1668489-.0471068-.2039919-.1546448q-.2559922-.7410921-.7077223-1.1788494ZM40.602119,55.4269876c-.2710852.548361-.560801.6699308-1.1548538.5454721-1.2118065-.2538697-2.233417-.8696188-3.2642248-1.5524612,1.4129685.0076055,2.847869-.5409913,4.2109597.2614752.3507954.2064681.4059793.3455482.2081189.7455139ZM34.1629305,54.3424108c-.3138882.3768545-.5953499.4486644-.8993333.443712-2.2943787-.0374968-4.5960682.0052472-6.8443424-.5737716-.3030401-.0780593-.5708237.0249979-.8481584.0996377-.5973544.1608353-1.1836249.2210895-1.7003259-.2180238-.1403182-.1192115-.2615342-.119919-.4160021-.0352564-.9022811.4948868-1.8316826.3425414-2.7570749.0904993-.6317855-.1720961-1.2614484-.3563374-1.882032-.5647511-.8909613-.2990899-1.7907663-.4328638-2.7319591-.3187227-1.2850313.1558829-2.5712418-.0170976-3.7783317-.3866414-2.9050575-.8891926-5.7778065-1.891701-8.4467993-3.3808422-.447839-.2498607-.9711431-.449136-1.1158241-1.0466084,1.2237158.6072593,2.4224338,1.2039062,3.6901317,1.6776863,5.9084556,2.2078296,12.0881144,3.0596433,18.3056238,3.7308122,2.6871517.2900695,5.3836186.4504331,8.0869245.4816214.4013807.0046576.8028793.0006485,1.3375032.0006485ZM2.0254739,53.5844569c-.1853615-.7403846.0713382-1.4925017.6961667-2.0380918.2928994-.2558153.6258897-.4475442.978218-.6101482.2018695-.0931524.3970178-.2009851.6673956-.3391219-.5100978-.3491446-.8795236-.1871302-1.2392805.0235239-.6070234.3555709-1.055334.8986847-1.5815861,1.3497074-.1387853.1188577-.2699061.314124-.4947689.208001-.1939692-.0914426-.2339422-.2856477-.2625954-.4843924-.1536425-1.0646493.1936155-1.4719846,1.3050768-1.5522254.3884101-.0280636.8632515.0696285.9632429-.478084,2.8949169,1.4801797,5.8332262,2.8747535,9.0210425,3.6516326,1.8970072.4624014,3.8600464.5024923,5.7730899.8702084,1.1733664.2255703,2.3540434.4141154,3.5251694.650298.5433496.1096604,1.0660643.1514021,1.585831-.0726353.2756839-.1188577.5834405-.1828853.8458001-.0602543.6836678.3193122,1.3633265.1727446,2.0392119.0350206.2775705-.0565989.5188234-.0406215.7883758.024762,2.1269403.5156397,4.2864249.7588972,6.475624.7185705.4095168-.0075465.8453285-.064735,1.164287-.2967906.4990138-.3630585.8883672-.2008083,1.370873.0214604,1.293757.5962343,2.6035503,1.1590398,4.0050811,1.4775856.5042021.1146128.8837686.0094332,1.1404682-.4276756.1748671-.2977929.3436026-.3728454.6261256-.1347762.2391304.2014568.491821.1930259.7217542-.037261.1443272-.1445631.315539-.2164319.5230684-.1881914.3865235.0525309.7769381.1325358.9448482-.3820427.0492882-.1509305.1871302-.0793564.2925457-.0318369.2107131.0948621.4196574.1940871.6327288.2833483q.9191429.3848727.4389954,1.2264279c-.5271954.9246849-.5687012.8966802-1.618965.7682124-.471186-.0576602-.9924857.0599005-1.3498843.4967145-.2682553.327861-.5619801.6354408-.8538183.9430795-.4274398.4506099-.9197325.5261341-1.4668554.22728-.0168618-.0092563-.0396192-.011084-.0524719-.0235829-1.2748907-1.2503645-2.5672327-.5244244-3.8573343-.0347848-.1437377.0544765-.2899516.1654929-.4294443.157062-.779768-.0472837-1.4530594.1371345-2.0857881.6393909-.3407727.2705546-1.1357517-.4211313-1.1666452-.9728529-.0107302-.1919647.0160364-.385816.0101406-.5783702-.0143856-.4784967-.2124818-.7454549-.7461624-.7297723-1.056749.0308936-2.1101964.0667396-3.1365235.3532716-.1802911.0502905-.3387681.0083719-.5017258-.0672112-.2272211-.1052976-.4942972-.3234392-.6856723-.2726181-.8204485.2180238-1.4887874-.0696874-2.198986-.420247-.2835842-.1399644-.6673956-.095039-.9243311-.3750858-.1379599-.1503409-.3525641-.2211485-.5328553-.1720961-.9209116.2505092-1.8978326.4668821-2.3541614,1.4331908-.2367722.5013721-.4843924.6416903-1.0074608.4530272-.541463-.1952663-1.1155883-.2984414-1.6710831-.4571542-.5261341-.150223-1.0256196-.3773851-1.384669-.7992239-.3790949-.4453628-.7966298-.4952406-1.2843238-.2407812-.3195481.166672-.626833.2734435-.9700819.0402088-.1228668-.0834834-.316954-.1245176-.4447732-.0321906-1.0204314.7364345-2.2427322.5826151-3.3828467.7965119-1.0259733.1925542-1.8466577-.093624-2.5081576-.8992153-.2570534-.3129449-.5540798-.5926968-1.0095832-.5980619-.1976246-.0022993-.3441922-.141969-.3713125-.3153032-.0860775-.5509551-.4977168-.5857399-.909356-.5888056-.3456072-.0025941-.6918039.0507622-1.037529.0830707-.4924106.0460456-.8723309-.122572-1.0938921-.5795494-.0977511-.2016337-.2120101-.355512-.4647007-.3662422-.8218635-.0349616-1.2918704-.6203478-1.4555356-1.2748907ZM47.7129479,68.9791864c-1.6433732.9159002-3.4372053,1.3570181-5.2692416,1.6542803-2.7110883.4398208-5.4416325.5900437-8.1891563.5136942-.9222087-.0256464-1.8479548.0998146-2.7728754.1379009-3.0087043.1238101-5.9656441-.3026863-8.9041893-.8800543-3.6486258-.7168607-7.3257869-1.3152764-10.880435-2.4448965-2.3641841-.7513507-4.6314425-1.7175414-6.5705451-3.3123929-1.8369887-1.5107785-3.1790906-3.3550189-3.6861226-5.7234479-.1643727-.7676818-.2651895-1.5295269.5339165-2.0806589.2739152-.1888399.4399387-.2826409.6248285.06615.1080096.2036972.2600013.3836935.3717842.5856809,1.2487137,2.2572357,3.1582198,3.7563406,5.4862041,4.765747,2.616403,1.1345136,5.2378764,2.2578253,7.926443,3.2140522.3918296.1394338.779768.3190175,1.3071992.3048677-.3460788-.4181835-.7388517-.5393995-1.1004953-.7074865-2.5348062-1.1782009-5.2171234-2.0061959-7.7261064-3.2450048-1.8198911-.8986258-3.4612598-2.0287176-4.6655198-3.7041635-.1764-.2453799-.3750858-.4815035-.4990138-.9005124.626833.3052215,1.1730126.5686423,1.7169518.8364259,1.9190571.9447893,3.806867,2.0127402,5.9558572,2.3148369,2.2671405.3187227,4.3956137,1.1540284,6.6195975,1.6102393,2.059847.4226053,4.155422.6267151,6.2417997.877696.7019445.0844267,1.380542-.1169121,2.0567812-.264541.9315239-.2034613,1.7957187-.1218056,2.5881036.4555034.9402496.6850238,1.9486537.793564,2.9996249.2800467,1.0796244-.5276081,2.2138432-.272854,3.3078532-.1768716,2.544711.2233299,5.0815218.3272715,7.6270583.0609618.3584598-.0374378.727532-.0952159,1.1104001.0294196-.0535331.2385998-.2563459.2743279-.4264964.3257386-.2597655.07859-.3974895.2475024-.3855801.5065603.0292428.6380349-.2908949.4569184-.5810823.2403096-.3724916-.2781601-.6563116-.184654-.9513335.1203906.0571885.0450433.0985765.0890254.1076559.0831886.6504159-.4228411.8789341.1671437,1.0238509.5389278.0825401.2118922.1404361.2220328.2912486.2455568,1.2187634.1900191,1.6964347.7626115,1.676743,2.0064317-.0080182.4961249-.1317104.9984993.1078917,1.5797584.3273304-.3980791.5776627-.7423892.4234307-1.2454121-.0396192-.1289984-.0918553-.2545772-.1249893-.3851085-.1234564-.484982-.067447-1.0219053-.3166002-1.4624336-.2492711-.4408231-.8053555-.5589733-1.1468356-.991955.8315325.5585606,1.6762714.2646,2.5217177.12947.3983149-.0637327.6191686.1912572.7151509.5326194.1142591.4070995.1963275.8248114.2667224,1.2422873.1044722.6204067.2983235,1.206913.7171555,1.6798678.2662508.3006818.1660235.4217799-.1293521.5863294ZM100.3510053,62.3337067c.461517.716448.2607088,2.0675114-.3904146,2.6254235-.1368986.1173248-.0433925.194323-.0280636.2936659.0340773.221797.1090708.4543243-.1407898.6109146-.2222687-.0746398-.1519917-.3592852-.4157662-.4645238,0,.1895474-.0627305.3999067.0116735.5339754.2294615.4129952-.0252337.6433411-.2612983.9036371-2.0219964,2.2297027-4.6688214,3.4166292-7.4215335,4.4042804-3.9905776,1.4318348-8.1283125,2.24851-12.3110906,2.8708623-3.4422756.5122202-6.8969322.8495734-10.3797704.6907427-5.4553105-.2487994-10.7740762-1.1319195-15.7328491-3.5749293-1.3898572-.684729-2.6872696-1.5156719-3.8475475-2.5495455-1.0236151-.912068-1.4768781-2.0741146-1.5281709-3.4655047,3.3032545,1.2304369,6.5461368,2.4981349,9.9714327,3.2215988-.1650802-.2845864-.4575079-.3579292-.7210467-.4517301-2.6134552-.9306395-5.2341031-1.8411747-7.8449641-2.778948-1.4407963-.5175264-1.4347826-.53598-1.46603-2.0579603-.0043628-.2103593-.0005896-.4208366-.0005896-.7269424,3.8238467,2.729365,8.1563761,3.5680903,12.594321,4.0614442,3.9151124.43534,7.8505061.6642709,11.7827161.7393234,7.9931825.1524633,15.8261194-.7552418,23.2142831-4.1053084.8362491-.3792128,1.6532781-.7954507,2.4760849-1.2103915-.309997.427086-.7125568.748167-1.162872.9870616-1.9064403,1.011234-3.8020325,2.0484682-5.7997386,2.8735744-1.9664587.8123124-4.0494169,1.1250804-6.1508877,1.2583827-3.0657749.1944409-6.099477.6040756-9.1285805,1.0997288-3.0005682.4910546-6.0253088.6097944-9.0580677.3065185-.2097697-.0209888-.4155304-.0814199-.6231777-.1231616-.2470307-.049642-.588275-.2716159-.67506.1256378-.0839551.384342.3295708.359639.5648101.4110497,1.0425993.2279286,2.108074.2410171,3.1674171.2616521,2.1295344.0416238,4.2389054-.2164909,6.333655-.5609189,3.2578574-.5358031,6.5296288-.9278686,9.8260443-1.11606,2.7714605-.1581822,5.3931696-.8733921,7.8746786-2.1175661,1.1886952-.5959984,2.4010913-1.1453617,3.5814146-1.7571017,1.0418918-.5399301,1.9520732-1.244115,2.4950691-2.3321114.0844267-.1690893.1896064-.3703692.4289727-.3043371.2002187.055066.3028042.2391894.3507954.4301518.0847805.3371173-.0175692.6478218-.1756925.9443176-.4384058.8214508-1.0907084,1.4410911-1.8553834,1.9505993-.325208.2168446-.6380349.4372856-.7664437.832122-.0360818.1108396-.0898508.2396021.0160364.3221422.1231027.0961003.2181417-.0185126.2813438-.1083633.174985-.2489173.3889997-.4214261.7046566-.4520839.06615-.0064263.1723909-.0571885.1833569-.1051207.1298238-.5660482.6467606-.7910289,1.0063996-1.1497835.3806277-.3796255.7823622-.7366703,1.0206672-1.2464144ZM100.1530269,56.8567588c-.6942801.4836849-1.5133136.7736955-2.1239924,1.3897983-.2061144.2078831-.4813267.0212246-.6440485.0478733-.6411007.0076644-1.1965955.0484039-1.7142398.3014482-.4569184.2233299-.8290563.5530776-.8890747,1.066359-.0556556.4761384-.3303962.603486-.7209288.664094-.3636481.0563631-.7252916.0966898-1.0930667.0287122-1.2481241-.2308175-2.4179531.055125-3.5362534.5836174-.6612641.3125322-1.3187548.6453456-1.9365085,1.0345811-.7919132.4990138-1.6247428.5761298-2.5008469.3792128-.8270517-.1858331-1.645142-.4110497-2.46901-.6118579-.1337149-.0325444-.2642462-.0462814-.3351128-.1867764-.3118836-.6177536-.757718-.4054487-1.1586271-.1468035-.4504331.2906001-.8599498.6100302-1.3831361.1424406-.1562366-.1396696-.3309858-.0050703-.4912315.0457508-1.0811573.3427183-2.1178609.8223941-3.2641069.9652474-.3878205.048286-.6145699.4462471-.8919047.706779-.212246.1994522-.373435.2131893-.5927558.0312473-.4454807-.3695438-.8999228-.7283574-1.3558979-1.0848716-.3441922-.2690217-.701237-.4385827-1.1726589-.3042782-.2693165.0767623-.5839122.0778825-.8620723.026177-1.0539191-.1957969-2.0236472.0725174-2.9887767.4493718-.3564553.139139-.7373189.2211485-1.1120509.3075208-.7144435.1646085-1.3536575.0159184-1.8321542-.560742-.5326194-.6417492-1.151788-.8838865-1.9414609-.5276081-.2164909.0976921-.4200112.0343721-.6169282-.0340183-1.9060866-.6620305-3.8574523-.9258051-5.8674214-.6761802-.4029136.0500547-.7425071-.0584856-1.0833977-.2812259-1.0874068-.7107881-2.2707959-1.2286093-3.5038269-1.6274548-.2970264-.0961003-.5092724-.2407812-.6561937-.5136352-.3859339-.7167428-.9681953-1.1879878-1.7689521-1.3775941-.3785053-.089615-.6638582-.2833483-.7941536-.6783027-.1091888-.3309268-.4029136-.4369319-.7098448-.526311-.8384894-.2440828-1.2641605-1.5581211-.7493461-2.2577074.1254609-.1705042.2329989-.1482184.3881743-.0707487,1.3799524.6887381,2.768041,1.3602018,4.2157942,1.89854.2412529.0896739.3552761.3008586.4566825.5011363.3703692.7323664.9496827,1.0189574,1.7696596,1.0561005,1.540316.0697464,3.082165.1613659,4.6082134.4217209.9090022.1550575,1.7432468.4043285,2.4253817,1.0927129.5513678.5564381.8902539.6098534,1.4636717.0820095,1.3669818-1.2585595,2.8583634-.8038815,4.3605931-.4633447.4359296.0987533.6409828.3966641.6386245.8403761-.0008254.1351299-.0073107.2703778-.0024762.4052719.0136781.3831629.2276927.6569602.5327373.8430291.3226138.1967402.5421705-.0818916.7603122-.247974.5366285-.4085145,1.0134744-.8891337,1.5738037-1.2730041.3551582-.2433164.6157491-.2337653.9720865.0260001,1.4932682,1.0888217,3.0860561,1.963393,4.9599521,2.232061.3595211.0515286.63379.0341952.9047573-.191552.1331254-.1109575.2809901-.203874.4204828-.3073439.8462718-.6277174.852875-.6383297,1.7536232-.0488755.2864141.1874839.46022.1451526.6918039-.0900277.4213082-.4278525.8709159-.844562,1.5605973-.5633361.2157834.0879642.3563374-.0656783.520828-.1651981.5534903-.3348769,1.1254931-.4637574,1.7540949-.179171,1.7102307.7744029,3.3322614.6115631,4.859489-.4880478.0882-.0635559.2155476-.1256378.3148315-.1127851.7929745.1023497,1.3553083-.3569269,1.9296694-.7779993.6480576-.475313.8798774-.5031408,1.496216.0218142.2927815.24933.4710681.2916024.7461624-.0063084.3221422-.3490267.6524205-.3864055,1.0260913.0154468.3262692.3509133.5845018.2560512.7438041-.203874.1089529-.3140651.2525727-.591046.6422798-.529023.7090194.1128441,1.1296201-.264541,1.4556535-.8144349.1642548-.2772168.3176614-.4552676.6652731-.2021643.2147222.1562956.5345061.2664276.7466341.03166.2200283-.2437291-.0571885-.3931267-.2156655-.5562023-.1581232-.1627219-.0012971-.2791034.1031751-.3859339.4424149-.4527914,1.5771053-.6428694,2.1238745-.3515618.3117657.1662004.4476031.4084555.3033938.7662668-.181824.4511995-.5246012.7511148-.9102993,1.0199008ZM57.5131689,52.8132966c.3222601.1064767.6308421.2543414.9459095.383045-.0100227.0478143-.0200455.0956286-.0299503.1434429-.5709416-.0464583-1.115942-.2206179-1.6635366-.380274-2.0728175-.6041935-4.075476-1.4073675-6.0960575-2.1587772-.7059536-.2625954-1.3996441-.5131046-2.1762285-.507032-.5962932.0045987-.6644477-.1715655-.4472494-.7180398.3489088-.8782266.9003945-1.6033413,1.5900759-2.2418479,2.2008726-2.0376791,4.5999594-3.8088715,7.16448-5.3586207.1484543-.0897329.2926636-.2618879.5494812-.1412615-.2594117.3390629-.607613.5409913-.9268073.775759-1.831093,1.3471133-3.7527443,2.5735411-5.4652153,4.0790135-.8442672.7422713-1.5979762,1.5620123-2.1228133,2.5710649-.1588307.3052215-.21767.4813856.246677.571826,1.0403589.2027538,2.040509.5574994,3.0212032.9633608,1.7794465.7364345,3.5810609,1.4137939,5.4100314,2.0183411ZM70.7222958,55.4684345c3.9274934-.2377744,7.8601751-.410637,11.7658543-.9235647.3818069-.0502315.7580718-.1421458,1.1397608-.1944409.2140147-.0294196.5478304-.1861279.6150416.071692.074404.2859425-.3013893.2953756-.498778.3344053-.6803662.1343635-1.3652131.2594707-2.054305.333462-3.8196017.4102832-7.6502874.6633865-11.49076.7588382-.2229762.005542-.4687098.0604311-.6947517-.2209127.4127005-.2038151.8230426-.1356016,1.217938-.1594793ZM89.8464814,53.1175747c-.0511749-.1726857.1011706-.2389536.230051-.2644231,1.3301925-.263185,2.5533188-.8325347,3.8060416-1.3179294.1166174-.0452202.2539877-.099166.4467777.0723405-.9959052.6196992-2.0507676.9703177-3.1002059,1.3316665-.344428.1185629-.6926293.2281644-1.0441322.3234982-.1318283.0357281-.2930173.0089615-.3385323-.1451526ZM16.8413026,50.6574673c-2.178351-.049583-3.9513121-1.2875075-5.8935984-2.0291892,2.1086635.2538697,3.9205365,1.3777121,5.8935984,2.0291892ZM42.5038427,65.5677454c-.6775362.2161371-1.3215848.5003109-1.9727082.7663848-.050939.0207529-.1594203-.0153878-.1947946-.0610207-.0495241-.0639686-.0090794-.1537604.0643813-.1930259.6526563-.3492625,1.3187548-.6511824,2.1031216-.5123381ZM4.9246357,54.7128979c-.1384315-.2717927-.2912486-.5861526-.0696874-.8630156.1457422-.1822957.3627047-.0507032.5012542.0856648.1843002.1812934.3776799.1248714.5887467.0864902.4542063-.082717.9068798-.0690978,1.3668639.1094246-.6419261.3171898-1.3101471.5313813-1.9208259.883179-.2504502.1442683-.3766187-.1256968-.4663515-.301743ZM12.9781904,54.4774228c.8712696-.1302365,1.698793.082717,2.5276135.3608771-.8647843.0800049-1.7458409.1982731-2.5276135-.3608771ZM7.5436328,53.9733386c.0034195-.1706811.1554112-.1416152.2591759-.1352478.3561015.0217552.7280036-.0531794,1.0661822.2382461-.3610539.03166-.7217542.0719868-1.0833977.0897329-.1111933.005483-.2446724-.0491703-.2419604-.1927311ZM31.497593,61.925487c-.4865149.0035374-.9137188-.0472837-1.336442-.1537014-.1481005-.037261-.3339336-.1314156-.4431224-.027533-.1663772.1581232.0692158.2984414.0983406.4545601.0097869.0526488.0132064.1065357-.0196917.205289-.2630671-.9816965-1.3167503-.8224531-1.912336-1.355721.7334277-.3069902,2.7517688.1803501,3.6132515.8771064ZM76.9398051,58.9174902c-.0832476.1147897-.2207358.0577781-.3140061-.0010023-.3815711-.2403685-.7433325-.4757257-1.2101557-.1469803-.1352478.0952748-.2985593-.0839551-.339004-.2240374-.0611976-.2119512.1484543-.2097697.2572893-.1936155.490524.0723995.9332926-.1712117,1.4367872-.2205589-.0431567.1961506-.2805184.3925961.0602543.504261.0970436.031719.194323.163901.108835.2819334ZM73.9789741,58.0033586c.2891262.0280047.5172906.1869533.8518138.4236665-.4141154.0541817-.6780079.067506-.9354151-.0310704-.1176786-.0450433-.2932532-.0624946-.2517473-.2378923.0361997-.1530529.2056427-.1672616.3353486-.1547037Z"/>
  </g>
</svg>