<?xml version="1.0" encoding="UTF-8"?>
<svg id="Layer_2" xmlns="http://www.w3.org/2000/svg" viewBox="0 0 74.7160537 94.2628699">
  <g id="Layer_1-2" data-name="Layer_1">
    <path d="M74.3780382,75.7938231c.674826-2.0722502.4247307-2.6878431-1.5341596-3.6019844-.4016956-.187458-.4136103-.3091014-.1580684-.6514505.6436208-.8621705.6295501-1.0208062-.004085-1.8468922-.3484766-.4542338-.5892671-.9184533-.5354807-1.528259.0390348-.442773-.0542403-.8822553-.442546-1.2066756-.2659815-.2221808-.2102661-.4882758.0024964-.7334917.3199948-.3685614.7098892-.6572376,1.1104502-.9245808.815079-.5439912,1.1459673-1.3144752,1.1837539-2.2682187.0647933-1.6320871-.2502087-3.2122035-.5793949-4.7956105-.6790245-3.2665572-2.2249853-5.9567832-5.0942724-7.7891508-1.5345-.9798423-3.2338769-1.5655917-4.9583313-2.0881365-3.9733826-1.2040657-8.0805504-1.5509537-12.1893067-1.8916007-1.6165413-.1338985-3.2299053-.306378-4.9692247-.4732973.2791444-.1495579.4493544-.2497548.6269402-.3344059,3.9345748-1.8734449,7.8856032-3.7137556,11.6807192-5.8656641.9530626-.5403601,1.9343801-1.038735,2.7814586-1.7401137,2.0672574-1.7115185,3.8843061-3.6722244,5.5963919-5.7311982.4399362-.5291262.7643565-1.1439248,1.0233026-1.781418.755619-1.8599416,1.4124027-3.7547195,1.6735049-5.7549142.225585-1.728426-.0014752-3.3976189-.7543708-4.9947562-.6293232-1.334787-1.8075169-1.9545784-3.0530003-2.532952-.8609223-.3996531-.8482133-.4268867-.579168-1.3319501.5738347-1.930522-.0245102-3.8176972-1.6218745-4.4974026-.800214-.34042-1.1174855-.8603549-1.3665595-1.5719462-.112906-.3223778-.1673732-.6360181-.1573875-.976892.0173614-.5935791.0455028-1.1924914-.0118012-1.7813046-.0986083-1.0162673-.2834564-2.0184639-.9400132-2.8575992.0002269.0004539.0003404.0010213.0004539.0014752-.7972637-1.3912967-1.7697303-2.5802704-3.4243986-2.9907035-.3592566-.08919-.7539169-.1252746-1.0651743-.3032008-1.4319201-.8189371-3.0087457-.902567-4.586933-.9394458-3.5572759-.0830625-7.0847083.3609587-10.5954601.8220009-2.8443229.3734408-5.6942059.8394758-8.4501331,1.6917741-3.8915684,1.2036118-7.5441619,2.9997813-11.2656337,4.6229041-.7314492.319087-1.4301046.7122722-2.0896116,1.1632153-4.0165025,2.7461684-7.9239572,5.6440507-11.8332274,8.5386423-2.8562376,2.1148027-5.1390943,4.7088034-6.5651138,8.0024807-.9192476,2.1230863-1.611208,4.269775-1.0034448,6.6338787.1812169.7046695-.0776158,1.4392959-.0531055,2.164731.0367654,1.0849187.4920204,1.7378443,1.5014793,2.0940371.2094718.0738711.4250712.1403665.6201318.2436273.5413813.2864067.5733808.5439912.1376432.9537435-1.1615132,1.0921809-1.2236966,2.8249189-.1500118,3.9989142.6610957.7229387,1.4868412,1.1527757,2.4199326,1.4063886.8928083.242606,1.8075169.3153424,2.8463654.3396257-.5730404.2683645-1.047132.4613826-1.4929688.7060312-.7084141.3886462-1.1649174.9994732-1.0339691,1.8177295.2645064,1.6539875.8844113,3.1527434,2.3220051,4.1581173,1.1325775.7922709,2.3511677,1.400715,3.7264646,1.6819019,1.2376538.2530456,2.3301751.9806366,3.6183246,1.1189607-.2499818.1481962-.4909992.2374997-.7324704.3254416-1.7613333.6413513-3.4873763,1.360205-5.1731363,2.1862909-2.8478405,1.3954952-4.967863,3.4147534-5.8686145,6.5443482-.2671163.9280985-.5944869,1.854041-.3693557,2.8358124.1556854.6785706.1690753,1.3486307.1460402,2.0411585-.0676301,2.0327615.5309418,3.7173868,2.7418564,4.3478447.5778063.1646498.5928982.3111439.1014452.7239599-1.1146487.9362686-1.7420428,2.0930158-1.306759,3.5331061.2777827.9190206.0308647,1.4503028-.5823452,2.1372705-1.7069795,1.9125932-1.4563169,4.2089533-.6926413,6.3640391,1.089798,3.0747872,3.3111522,5.1202577,6.4315557,6.1839569,2.2126168.7541439,4.4958139,1.2779368,6.6841474,2.1078809,2.3857771.9048365,4.8438367,1.5357483,7.3787177,1.8428071,2.1580361.2614426,4.3315045.3370158,6.4977107.5010983,1.6842849.1274306,3.3564281.4688719,5.0487695.4129295,2.5244415-.0834029,5.0518333.023489,7.5746862-.1783801,2.5531503-.204252,5.1183287-.2486201,7.654458-.6681311,1.8108076-.2994562,3.5944951-.772867,5.4388909-.8621705.9475024-.0458432,1.8942105-.1188066,2.7823664-.4882758,2.0125632-.8373198,3.6666642-2.3066862,5.6404196-3.2146999.049134-.0226947.0878284-.068084.1319695-.1018991,2.3283596-1.7858435,4.6554709-3.5730487,6.9859865-5.3559419.5177789-.3961354,1.025799-.804526,1.4406576-1.3086881,1.3653113-1.6589803,2.2143189-3.4755751,1.6570513-5.693752-.0550346-.2192305.0123686-.3989723.0750059-.5909692ZM70.9414979,70.0414053c-.5251546.1826921-1.0533731.3577815-1.585563.5188001-1.1785342.3566467-2.3134946.7932922-3.2793797,1.5927119-1.0828761.896099-2.3873657,1.1112445-3.7228335,1.0352173-2.2016098-.1252746-4.2773777.3151155-6.2871042,1.1685485-.2557689.108594-.5218639.1927912-.7800158.296052-2.5154771,1.0060547-5.0836059,1.6653348-6.4764912,1.3865308-4.3709932-.5195944-7.2873717.1653307-10.2352957.6682445-2.6667371.4549146-5.3381266.9308218-8.0392461,1.1539104-1.8846788.1556854-3.7455282-.0852185-5.5733568-.55114-2.9730016-.757775-5.9884423-1.2393559-9.0415561-1.5382447-1.7890208-.1752028-3.5787224-.3906887-5.3422116-.7674202-1.1267903-.240677-2.1325046-.7467681-3.0655959-1.4019632-.2681375-.1881388-.5488706-.4035112-.6394223-.7459738-.1140407-.4315391-.2721091-.9304814.1529621-1.2415119.4334682-.3173849.9259425-.6351103,1.5318902-.3698096.5333247.2335281,1.0899115.3347464,1.677136.3354272,4.4389638.0056737,8.8779276.0249641,13.3167779.0363115.7797888.001929,1.5600315-.02973,2.3393665-.0140707.3409874.0068084.7424561-.1611321.9873316.2948038.0542403.1012182.3441647.0870341.5275376.1058706,1.5556061.1599974,3.1165454.1050763,4.6758961.1220973.1746355.001929.5509131-.2353437.5157364.2605348-.0011347.0154324.1611321.051063.2491875.0632047,4.2121306.5792814,8.4285731.7616331,12.6548879.1442246.6461172-.0942963,1.2993833-.0668358,1.9472026-.0262123,1.2530861.078864,2.3919046-.217188,3.4113492-.9561264.0600274-.0435738.1290192-.0752328.1865502-.12153.60243-.4845312,1.2114414-.5435373,1.8697003-.0877149.9021131.6248977,1.8962531.6681311,2.9335129.4161068.5986854-.1454728,1.2140513-.1543237,1.8278286-.1486501,1.0838974.0098722,2.0876826-.2542938,3.0166889-.8266533.536275-.3304344,1.0908193-.6363585,1.6588668-.9076733.3674267-.1755433.7282719-.3593701,1.1702506.0009078.2668893.2177553.7180593.0676301,1.0843513.01078,2.0926754-.3254416,4.146543-.8274476,6.1793045-1.4102467.4336951-.1243668.5821183-.0260989.7065985.3777528.2584923.8382276.2802792.8370929-.5528421,1.1269038ZM64.8420787,68.8679775c.5936925-.3834264,5.3241693-1.8568778,5.8418347-1.845417-.3304344.5487571-4.1263447,1.7608794-5.8418347,1.845417ZM70.9370724,67.7175847c.1146081-.0498148.2738112-.1458132.340647.0052198.0799987.1805361-.1028069.2495279-.2394288.3049029-1.119528.453553-2.3045302.6688119-3.4725113.9447791-.4280215.1011048-.8626244.1742951-1.2941635.2603079,1.564684-.4399362,3.1519491-.8570642,4.6654566-1.5152096ZM72.9775501,62.6056105c.0899844,1.2247178-.5183462,2.1445327-1.6632923,2.7939407-1.1449461.6495214-2.3705717,1.0647204-3.6454447,1.3236666-2.4900591.5060911-4.754987,1.5621875-6.9150656,2.8400109-1.140861.674826-2.3225724,1.0480398-3.6305797,1.0741387-.8365255.0166806-1.6701007.0622969-2.4897187.2438542-.2315991.05129-.4296101.0090779-.6352238-.1101826-.3041086-.1765645-.6202453-.3356542-.9416018-.4786306-.8680711-.3862633-1.7358018-.346888-2.4730381.2453294-1.0590467.8508231-2.2256662,1.0400967-3.546269.9573746-1.7247948-.1080266-3.4465259.1672597-5.1650797.3092149-2.7293744.225585-5.408707-.0903248-8.0913303-.5148286-1.5914637-.2517974-3.1798635-.564076-4.8096812-.4494679-.6882158.0483396-1.3619071-.0625238-2.0311729-.2582653-1.1956686-.3496114-2.4264005-.2870876-3.6513453-.2073158-.9654312.0627508-1.9312029.0828355-2.8945916.0031773-1.9834006-.163742-3.9780351.0504956-5.9561024-.1646498-.9456869-.1030338-1.8867213-.0987218-2.8320677-.1127925-1.3032414-.0192905-2.4993639-1.12384-2.6464254-2.4107412-.021333-.1864367-.053219-.4052133.1388914-.4986019.1918834-.0932751.3442781.0660415.4772689.1986918.0787505.0787505.1496713.1666923.2354572.2365919.2120817.172593.4049864.2504357.431993-.1420686.0358576-.5239064.2615561-.5673667.6797053-.3138673.570544.3458668,1.1606054.6600744,1.7849357.9042691.8485537.3317961,1.6902989.3653842,2.5439589.0007943.4075963-.1740681.8333482-.3098957,1.2585329-.4375532.7054638-.2119682,1.3651978-.1430899,1.9031749.4136103.5686149.5885862,1.2130301.6486136,1.9310894.3224912.2698396-.1226647.5526152-.2175284.8197314-.3452994,1.3454535-.6432804,2.6940842-.5900614,3.9438796.1645364,1.3276381.8014622,2.6466523.9252617,4.0953665.4139508,2.4699743-.8718157,4.8644888-.3342925,7.2247344.5025734.4250712.1508061.6248977.5685015.8807801.9017727.2083371.2714282.3984049.4124756.7397327.2227482.2118547-.1177853.4621769-.146721.7056907-.12153.8242704.0852185,1.5375638-.1959685,2.1818655-.6725565.3142077-.2323934.623763-.2996831.9841543-.1437707.1011048.0436872.2194574.0481127.3198814.0930481,1.0927483.4886162,1.9663796.2884492,2.6273618-.7627678.238294-.3788875.6781167-.4517374,1.0992163-.3831995.4744321.0773888.9573746.1610187,1.4058213.325555.7823987.2869741,1.511238.202096,2.2716229-.0902113,1.0377137-.3988588,2.0487612-.8619435,3.1072406-1.2139378.7221444-.2401096,1.2316397-.0751194,1.7386386.4527586.8722696.9077868.770711,1.1379107,1.5331384-.2289892.0899844-.1613591.1870041-.3220374.3024065-.4654677.6040186-.7503992.693776-.7540304,1.5854496-.3868306,1.4958056.6158198,2.0174426.3104631,2.6902261-.5786006.5174385-.6837904,1.1718392-.9253751,2.00723-.6399897.8783972.300137,1.6770226.1846211,2.3609264-.493836.2642794-.2622369.5806431-.3483632.9674737-.2750594,1.8084247.3430299,3.1643177-.293896,4.035566-1.9247349.1227782-.2297835.3112574-.3600509.5414948-.4509431.5345729-.2108335,1.0673303-.4259789,1.6033784-.6326139.7193075-.2774423.8454899-.1912026.8597875.5739482.0018156.0928212.0002269.1857559.0002269.3912561ZM68.2655695,21.1979387c.3493844,1.6370799.3934121,3.2764294-.0729634,4.9059066-.178607.6239899-.3493844,1.2504763-.5098357,1.8793455-.3965893,1.5550387-1.107046,2.958704-2.1281926,4.184897-1.4042326,1.6858735-2.9463354,3.2452242-4.5888621,4.7004064-.8517309.7547112-1.8357718,1.3159504-2.8368336,1.8539275-3.7586911,2.019939-7.5587999,3.9580637-11.3911352,5.8333242-1.3995802.6848116-2.8125503,1.3418223-4.214627,2.0215276-1.5199755.7370094-3.1500201,1.079018-4.7948162,1.3865308-2.2810412.4266598-4.4639279,1.245143-6.7436074,1.6909798-4.0149139.7851221-8.0534302,1.1286059-12.1321162.7201018-1.6587534-.166125-3.1888279-.8314192-4.7196968-1.4478064-1.296206-.5218639-2.6100004-.9544243-4.0052687-1.1229322-.4464041-.0538998-.900411-.1576145-1.3000641-.6073093.5985719.023262.8930352-.6224013,1.5003446-.3900079.1879119.0719421.2219539-.1951742.2528186-.3718522.2154859.1291327.1370758.4273406.4068019.5564733.0544672-.4483332.0368788-.9009784.3831995-1.2585329.2007343-.2074293.3439377-.2848181.6051533-.1429764.3179523.1727064.6238765.225585.8584259-.161586.1038281-.1712313.3137538-.1710043.5001905-.1964224.2500953-.034042.5134669-.1281114.5393388-.4020361.0373327-.3984049.2672297-.3996531.538658-.3263493.5363885.144792.9875585.0104395,1.5213371-.168281,1.3289998-.444929,2.6887509-.8576315,4.1172668-.8966664.5113109-.0139572,1.0080972.0802257,1.4636927.289357.7188536.3299805,1.3246878.1801957,1.9055579-.3033143.6416918-.5342325,1.2745326-1.0784507,1.968876-1.5492516.6907123-.4683045,1.4299911-.6725565,2.2607295-.6227417.738598.0442546,1.4826427.1517139,2.2162479-.0587792.304222-.087261.6083306-.18099.8686385-.3648168.4958785-.3501787,1.0529192-.4267733,1.5928253-.2221808.9198149.3484766,1.7412485.0506091,2.271169-.5881323,1.2836105-1.547663,3.0592414-1.9364226,4.8518933-2.3510542,1.3352409-.3088744,2.7136016-.4419787,3.9918788-.9815444.204479-.0862397.4512835-.1337851.6006144-.2792579.7502858-.7311088,1.6778169-1.1439248,2.6200995-1.5419893.5604449-.2368189.9434174-.6869676,1.1682081-1.2214271.3098957-.736669.8897445-1.0515575,1.6041727-1.0716423,2.2513112-.0633181,4.09548-1.2172286,6.0156759-2.170972.5064315-.2514569.8735178-.687535,1.2544478-1.0934292.6760742-.7203288,1.458246-1.1416553,2.4866549-1.1768321,1.3242339-.0453893,1.5326845-.2665489,1.8938701-1.5208832.2830025-.9825657.7272507-1.3362621,1.7490781-1.200548.8279015.1100691,1.4087716-.1882523,1.8661826-.8201853.2715417-.3750294.5327574-.7612927.7575481-1.1653713.4158798-.7474489.8507097-1.4788981,1.3810841-2.1531567.3450724-.4388014.6087845-.926056.7171515-1.5379042.4653542.4232556.5985719.9521548.7081871,1.4653948ZM61.0567213,5.5554112c.208791-.3965893-.0102126-.8731774.0517438-1.3118653.2200248.8418587.5074528,1.6715758.5152825,2.6987366-.4197379-.4714817-.9191341-.7180593-.5670263-1.3868712ZM9.3386345,17.2002728c.6099192-.6015222,1.3070995-1.1009184,2.0138115-1.5804567,1.5824993-1.0736848,3.1450272-2.171199,4.6513859-3.3535912,2.773629-2.1773265,5.7979206-3.9359364,9.0672011-5.2707234,3.3114926-1.3520349,6.5505893-2.8873293,10.0183347-3.8363068,1.7269508-.4726165,3.5071207-.6071959,5.2580144-.9252617,4.469942-.8120153,8.9743799-1.1850021,13.5192143-1.011161,2.4620312.0941829,4.4077586,1.2891707,6.164326,2.8829038.1738412.1576145.3069454.3753698.4141777.5877919.1946068.3859228.2000535.7330378-.2374997.9998136-.2987753.1821247-.5707709.4158798-.7576615.7270237-.1721391.2866337-.2716552.5734943-.0098722.8971203.2187766-.1922238.1881388-.438688.2721091-.6390819.1904083-.4543473.5258355-.5544308.9280985-.2691588.749151.5312822.9885798,1.2083777.6075363,2.0312863-.3061511.6607553-.2859528,1.2015693.1678271,1.7928789.4571841.5956216.3701501,1.2050869-.132083,1.7536171-1.6485408,1.8002546-3.4421004,3.4135052-5.5144641,4.7396681-3.0808013,1.9714859-6.1958716,3.8561647-9.4614075,5.5245633-1.9074869.9746226-3.805896,1.8962531-5.838544,2.5511077-.4249577.1369623-.8554755.2571306-1.30483.263939-.7793349.0116878-1.4462178.3025199-1.8544949.9540839-.8509366,1.357822-2.179596,1.9420963-3.6103814,2.4203864-1.885927.6304579-3.8216688,1.0659686-5.751283,1.5250818-.8544543.2032308-1.6975612.4417517-2.4402443.906879-2.615901,1.6381012-5.5549741,2.4420599-8.4628421,3.3286271-2.7981392.8532061-5.7100922,1.1229322-8.571663,1.6510372-.1178988.0216734-.3299805.1214165-.3143212-.1501252.0343824-.5973237-.3912561-.8974607-.7888667-1.1918105-.5064315-.3750294-1.049515-.7001305-1.5675208-1.060068-.1935855-.1345794-.4060076-.261783-.5223178-.5178923.5764446-.336335,1.1139678-.6733508,1.8464383-.6084441,1.0339691.091573,1.9911168-.2402231,2.8216282-.8510501,1.002537-.7373498,1.9865779-.8690923,3.0009161-.0583253.2173015.1737277.4431134.1475153.6843577.0873745.8398162-.2095853,1.4810541-.6660885,1.8491616-1.468799.1082536-.2360246.2076562-.4774958.3353137-.702627.2657546-.4686449.5968698-.5756503,1.0719827-.3379236.2308048.1155159.4631982.2491875.6536065.4204187.7393923.6643864,1.5430105.6130965,2.3894082.263939.7957886-.3282784,1.5161174-.7911362,2.2007021-1.2987024,1.0838974-.8033913,2.2723037-1.1134005,3.61197-.9909627.791817.072396,1.5902155.1451324,2.3908834.0390348,1.502841-.1991457,2.2706016-.9857429,2.4048406-2.4917612.0641124-.7190806.223656-.900411.9642965-1.0762947.6966129-.1653307,1.4060482-.1417282,2.1077674-.0806795,1.3372834.1165371,2.4577192-.2353437,3.269394-1.3634957.6162737-.8568372,1.5242874-1.2446891,2.5132076-1.2112145,2.2982891.0779562,4.0050417-1.1704776,5.7468576-2.3759049.3640225-.2517974.4509431-.638628.3422356-1.043047-.1737277-.6465711.1095018-1.0590467.6133234-1.4066156.7772924-.5363885,1.6678312-.800214,2.545888-1.0945639.4568437-.1529621.9209497-.2848181,1.3830131-.42144.6607553-.1952876,1.0146787-.6247842,1.090025-1.3184468.0957715-.8822553.2477123-1.0206927,1.1263364-1.1480098.1832595-.0265528.370377-.025645.5552251-.0431199,1.243214-.1173314,2.2530133-.628075,2.6225959-1.8870617.2934421-.9999271.8328944-1.4272677,1.8800264-1.3600915.610827.0391483,1.2084911-.15943,1.6638597-.8806666-.9501123.3835399-1.8206798.4572976-2.6974884.5132399-.4090714.0260989-.647025.3439377-.8294902.6758472-.1960819.3572141-.3578949.7330378-.544899,1.0954717-.4285888.8303979-1.1140813,1.264547-2.0470591,1.3174255-.3519943.0198578-.7059177.0375597-1.0540539.08919-.7265698.1076862-1.0545078.3886462-1.0877555,1.1095424-.0408504.8848651-.4797653,1.3312693-1.2959791,1.5557196-.8212066.225812-1.6257326.5138073-2.4321877.7904553-.5143747.1763376-.9645234.4732973-1.3814245.8197314-.4646733.3861498-.7823987.8456034-.7156764,1.4867278.0447085.4287023-.1432034.4241634-.4454964.2557689-.2909457-.1619265-.5868841-.3159098-.8875885-.4586593-.2463506-.1171045-.4966728-.1073458-.7547112-.0018156-.3671997.1503522-.4374397.3695827-.2033442.6876485.0219004.02973.0508361.0542403.0751194.0822682.8347099.9581689.7462007,1.3459073-.449014,1.8827497-.7771789.3489305-1.6186973.4251846-2.4496626.4603614-1.411041.0600274-2.6081848.4771554-3.4610505,1.6820154-.5498918.7768385-1.3555526,1.0362386-2.2886439,1.0231892-.8510501-.0118012-1.7066391-.1049628-2.5536042.0910056-.964183.2230886-1.3272977.6195645-1.4133105,1.5872651-.0996296,1.1214571-.4888432,1.5731945-1.5992933,1.8192047-.7865972.1742951-1.5923715.204479-2.383848.1089344-1.679292-.2026634-3.1521761.2289892-4.4829914,1.2562634-.589494.4551416-1.2545613.7862568-1.9857835.9759842-.6347699.1648768-1.1842078.0938425-1.7091355-.3553985-.9947073-.8511636-1.7069795-.7409809-2.4534072.329867-.2439677.3498383-.4495814.7265698-.695932,1.0745926-.5190271.7331513-1.1187337.8687519-1.8598281.4057807-.8441282-.5273106-1.6694199-.5421756-2.5044702.0089644-.3249877.2145781-.6540604.4246173-.9926648.6167276-.7266833.4124756-1.5005715.6421457-2.3461749.5361616-.5358211-.0671762-1.0442952.0122551-1.4931957.313073-.2830025.189614-.470347.1180123-.6514505-.1252746-.1993727-.268024-.3974971-.5375232-.6096923-.7952212-.276648-.3359946-.606515-.389327-.9884663-.1671462-.4423191.2571306-.5512535.2026634-.6455499-.33225-.1871175-1.0610892-.0925942-2.1112851.1798553-3.1443464.132083-.5006444.2793714-1.004693.4888432-1.4765152,1.4677777-3.3064998,3.4418735-6.2721257,6.0235056-8.8182406ZM7.5582377,35.8464398c-.2322799.1689618-.4654677.1587492-.6214935-.0944098-.3859228-.625919-1.0362386-.8810071-1.6457039-1.1810306-1.5022736-.7395058-2.0919946-1.1898815-3.2490823-2.5710791.2424925-.1636286.447085-.0629777.6293232-.0120282.2783501.0776158.5177789.0495879.7160168-.1502387.2778962-.2800522.485439-.155572.6876485.087261.0711478.0854454.1647633.1586357.2141242.2548611.5992527,1.1682081,1.5689959,1.9447062,2.6805808,2.5833342.2199113.1262958.4066885.3230586.5801892.5134669.155572.1706639.266095.3826321.008397.5698631ZM42.9028017,17.7194133c.6053803-.044595,1.0596141.1698696,1.4549552.5288993.1041685.0944098.2612156.2221808.166125.3724195-.1539833.2432869-.427681.3506326-.6942299.4210996-.2245637.0593466-.2272871-.1753163-.2387479-.2901513-.0451624-.453326-.5902883-.5537499-.6881024-1.032267ZM1.3113031,28.4781616c.8543408-3.6191189,2.5462284-6.7493946,5.404395-9.1916814.0654741-.0559424.1477423-.0923673.2222943-.1378701-1.053827,1.5703576-2.1065192,3.1143894-3.0157811,4.7533984-.8164407,1.4717493-1.4209132,3.0146464-1.6735049,4.6893995-.1100691.7300875.0747789,1.4437214.0529921,2.1660927-.0041985.1380971.0778427.334179-.0888496.4002205-.1973301.0779562-.2901513-.1235725-.3795683-.2520243-.5114244-.7347399-.7306549-1.5434644-.5219774-2.4275353ZM1.7771112,34.7061461c-.3559659-.0271201-.6441882-.9587363-.5207292-1.470728.068311-.283116.1646498-.5595371.2583788-.872837.3633417.1795148.6622304.4146316.8821418.7089815.7525552,1.0069625,1.7810776,1.5990664,2.922506,2.0447897.4317661.1686214.8477594.3779797,1.2084911.6786841.2398827.19994.1934721.3433703-.1014452.3902348-.696159.1106365-1.396176.1982379-2.0919946.3113709-.2319395.0376732-.355285-.0898709-.4558224-.2445351-.5069989-.7792215-1.0531461-1.4659621-2.1015263-1.5459609ZM5.2032119,41.5369011c-.9680411-.2259254-1.7950348-.702627-2.4029116-1.5086281-.3706039-.4913396-.5572676-1.0417988-.2036847-1.6024706.3349733-.5309418.7821718-.9219709,1.4976212-.8669364,1.0809471.0832894,2.1523624-.0161132,3.2026717-.2941229.379001-.1004239.6728969-.0548076,1.006849.2216134,1.6477464,1.3638361,3.5689636,1.7064122,5.608874,1.2476394,3.837782-.8631917,7.605324-1.9863509,11.3395048-3.2211678,2.5423703-1.5544714,5.5225208-2.0324211,8.1716695-3.3229534,1.4008284-.6824287,2.7909904-1.3867577,4.2351657-1.9755709,2.0236836-.8249512,4.1493798-1.2618236,6.2906218-1.6251652,1.0034448-.1703235,1.9271178-.5228852,2.8148198-1.0028774,1.6034918-.8671633,3.1283466-1.8569913,4.5918124-2.9411156,2.7003252-2.0004216,5.4054163-3.9948291,8.0844085-6.0237325.9629348-.7291797,1.8347505-1.5717193,2.5082148-2.5921851.1268632-.1919969.2301239-.3995396.3867172-.6747125-.3523347.1063245-.5020061.3052433-.6416918.4841908-1.1227053,1.4380477-2.5574622,2.5269379-4.0006163,3.6074311-2.8536277,2.1365896-5.644845,4.3587381-8.6049107,6.3497414-2.0631724,1.387779-4.2323288,2.5122999-6.7606284,2.8345642-2.0148327.2569037-3.9443335.885546-5.8051829,1.6926819-1.2075833.523793-2.3852097,1.117372-3.5706657,1.6913202-.9556725.4627443-1.9378978.8463977-2.9842355,1.0440682-1.0498554.1983514-2.0386621.5582889-2.956775,1.1021666-1.6310659.966339-3.4214483,1.4998907-5.2367949,1.9830602-2.5803839.6867407-5.125591,1.5053374-7.7298043,2.1024341-1.9040827.436532-3.6840256.0621834-5.3445945-.936609-.0865802-.0521977-.2162802-.0793179-.2165071-.2643929,1.2450295-.312846,2.5007256-.6227417,3.7869459-.7451795,2.7976853-.2665489,5.4311747-1.1670734,8.0789617-2.0211872,1.57501-.5081336,3.1025882-1.1227053,4.5397281-1.9532167,1.589875-.9186802,3.2944716-1.4798059,5.1068679-1.8206798,2.0992569-.3948872,4.0898063-1.1951013,6.0703701-1.98828.4495814-.1799687.8505962-.4754533,1.16435-.8457168.9283254-1.0956986,2.1352279-1.6758878,3.4975889-2.0332154,1.0029909-.2631447,1.983968-.6111674,2.97164-.9308218.7999871-.2588327,1.5537905-.6079902,2.1974113-1.166279.2826621-.2451024.6053803-.4290427.9589632-.5542038,2.9146763-1.0306784,5.470323-2.7250624,8.0390191-4.3860852.8710214-.5631682,1.7218445-1.1609458,2.5845824-1.739206,1.9141819-1.2829296,3.4894188-2.9361228,4.8741341-4.7667883.225585-.298208.3644764-.3185197.7085276-.2032308,1.4971673.5016657,2.1583765,3.4459585,1.128152,4.5064804-.5326439.5480763-1.0573446,1.0953582-1.6757744,1.5424432-1.1015992.7963559-2.1578091,1.6442288-3.0558372,2.6702548-.5502322.6287558-1.2156399,1.0963795-1.9775,1.4084312-2.7710191,1.1351873-5.2374757,2.7817991-7.6624011,4.5034166-.5446721.3867172-1.1206628.7294067-1.664654,1.1169181-.8317596.5925578-1.73705.9806366-2.7535442,1.1189607-.3669728.0499283-.7145417.1756567-1.0228487.4075963-2.8716699,2.1603055-6.1054333,3.4040869-9.6705389,3.8049882-1.1447191.1286788-2.1977517.4978076-3.1522895,1.1594706-.557835.3867172-1.2601215.4119082-1.8770761.6710814-2.3080478.9690624-4.6101951,1.9722802-7.0217306,2.6516451-2.2654953.6381741-4.5095442,1.3722332-6.8278046,1.80729-.9825657.1842807-1.9866913.2503222-2.9760654.4023765-.8094054.1243668-1.5178195.4754533-2.0884769,1.0794719-.0756867.0799987-.1569336.1847346-.2536129.2103796-1.7393194.4607018-3.4731921,1.0125227-5.3070349.5846147ZM13.8670153,40.281205c-.6992228.3219239-1.4274947.5241334-2.2044467.5218639.6512235-.5490975,1.4238635-.5520478,2.2044467-.5218639ZM11.564868,50.1907188c-1.3117519-.3901214-2.6141989-.6823152-3.6331896-1.6628384-.2641659-.2541803-.5818913-.4599075-.7246408-.8209797-.5598775-.468418-.8718157-1.0988759-1.0848052-1.7706381-.2483932-.7838739.0169075-1.3406876.8190506-1.7919711,1.0869612-.6113944,2.2492686-1.0523518,3.4270085-1.451551.8779433-.2975271,1.7578156-.5907422,2.6828503-.7165842.1456998-.0198578.3794549.0334746.2305778-.2978675-.0503822-.1122251.2835699-.1752028.4529856-.2133299,1.5190677-.3420087,3.044036-.6582589,4.5603803-1.0112745,5.8190266-1.3548717,11.4959846-3.1967711,17.2032399-4.9460762,3.2544155-.9974307,6.2389915-2.5504269,9.3226296-3.9070007.679138-.2987753,1.3545313-.6033378,2.0574987-.8427665.7409809-.2522512,1.3927718-.6655212,2.071229-1.0489476,1.0747061-.6074228,2.1654118-1.189768,3.2429547-1.7971908,3.5185815-1.9834006,6.7464443-4.393461,10.0206042-6.7366855.6978611-.4995097,1.298589-1.1039822,1.8330484-1.7788082.2810735-.3549446.4616096-.6964994.2760806-1.1648039-.0695592-.1757702-.1134733-.4399362.059687-.5736078.1648768-.1273171.3446185.0603678.5045025.1354872.6387415.3002505,1.2452565.657578,1.8375873,1.0423661.3178388.2065215.3897809.4622904.2974136.8092919-.1011048.3799088-.2210461.7572076-.4559359,1.0692593-.7053503.9376302-1.2799793,1.9541245-1.8443957,2.977654-.4710279.8544543-1.1093154,1.3131135-2.162802,1.2092854-1.01309-.0997431-1.6138179.3713983-1.851885,1.3816514-.2131029.9040421-.6542873,1.3976512-1.632768,1.38585-1.1480098-.0138437-1.9995138.5732673-2.8192453,1.351581-1.711178,1.6244844-3.8138391,2.5186544-6.1182558,2.9555267-.4369859.0828355-.8811205.1360545-1.3107306.2463506-.6469115.1660115-1.1820518.4512835-1.4203459,1.170591-.238521.719421-.8381141,1.1153295-1.5396063,1.3389855-.700471.223429-1.3167447.5618065-1.8532467,1.0804932-.4992827.4829426-1.1944204.570544-1.8384951.7337186-1.4737918.3734408-2.9879801.5674802-4.4497438.9977711-1.2291433.361753-2.3439054.8752199-3.1899627,1.9108911-.5146016.630004-1.1739952,1.0522383-2.090406.6721026-.5936925-.2462372-1.1995267-.1093883-1.7742692.1781532-.8964394.4484467-1.8232897.6942299-2.8480675.4995097-1.202704-.2285353-2.2129572.2516839-3.1463889.9633887-.6042456.4608153-1.1894276.9489776-1.8607359,1.3185603-.2835699.1561393-.5407005.2032308-.834483.0372193-1.381311-.7808101-2.7670475-.6785706-4.1618619-.0229216-.8921274.419511-1.9174726.4164472-2.8077844.8779433-.2271736.1177853-.587565.0266662-.8746525-.0296165-.6093519-.1196009-1.0920675.032113-1.4527992.5485301-.1700965.2436273-.3534695.4041921-.5376367.0065815-.1367354-.2951442-.3215835-.2795983-.5747425-.1244803-.4659216.2853855-1.0726635.3379236-1.394247.8638726-.1090479.1782666-.2041385.051063-.3053568-.0341555-.3187466-.2681375-.4191705-.6444151-.5279915-1.019785-.0392618-.1356006-.0481127-.3445051-.2117413-.3470015-.1905217-.0029503-.2354572.2067484-.2847046.3648168-.1174449.3765046.0411908.7320165.0869206,1.0966064.0393753.3137538.2536129.7367824-.1132464.8958721-.3390584.1471749-.5905153-.2269467-.7909092-.4912261-.1889331-.2493009-.3442781-.5239064-.5658916-.8672768.061616.7496049.4456098,1.3482903.4217804,2.0950584-.8374333-.4246173-.9664525-1.3154965-1.5381312-2.05852-.0453893,1.1528892.50246,1.956167.8788511,2.8118695.3201083.3738947.7717322.4663754,1.2071294.4267733,1.9267774-.1754298,3.6428348.5413813,5.381133,1.1936261,1.4566573.5466011,2.8859676,1.185683,4.4427084,1.4179629,2.3470827.3502922,4.7036971.2443081,7.062354.1638555,3.5576163-.1211895,6.9420723-1.166506,10.3864422-1.8938701,1.1771725-.2486201,2.3554797-.4907722,3.558751-.6158198-.3788875.2912861-.8319866.4033977-1.2712419.5347999-2.477577.7415483-5.0458192,1.0511036-7.5654949,1.587719-3.1362898.6680176-6.3174015.5258355-9.4746839.7868242-3.2255933.2667758-6.309118-.1851885-9.3878768-1.1008049ZM13.3936045,53.7905472c1.1509601-.3516539,2.3471961-.3391718,3.5321983-.3928447,1.1129466-.0503822,2.2278222-.0591196,3.3415631-.0949772.3189736-.0102126.6447555-.0144111.9370629.0965658.644869.2448755,1.26432.1520543,1.9068061-.0094183,1.8046801-.4534395,3.6649621-.5694092,5.4969893-.8583124,2.9921786-.4718222,5.945209-1.0922944,8.8390062-1.9937267.6359046-.1981245,1.2965464-.3164772,1.9445927-.476588.4890701-.1207356.955786-.3007044,1.3819919-.5727.1716852-.1096153.4061211-.2321665.3799088-.4465176-.072169-.5931252.3801357-.7339456.7464277-.9669064,1.1292867-.7182863,2.3311964-.9902819,3.6926496-.9316162,5.1802851.223429,10.3458188.5414948,15.4242048,1.6738453,1.979656.4412978,3.8813558,1.1052304,5.7006739,2.0202794,3.1172263,1.5677477,5.0131389,4.0429418,5.6871706,7.4597377.136395.6915066.2374997,1.3905024.3927312,2.07747.0712613.3157963-.0222408.417355-.3140942.5029139-.4791979.1405935-.9412614.3397392-1.4109276.5131265-.81315.3004774-1.5003446.708641-1.9697838,1.5143018-.6719891,1.1532296-1.8252188,1.3226453-3.0291709,1.13462-.5299205-.0827221-1.0093454-.0004539-1.341028.3488171-.594033.625692-1.2974542.6169546-2.0034854.4373263-1.0316997-.2622369-1.7931058.0390348-2.4572653.8391354-.6204723.7474489-1.4293103.8517309-2.2746867.3888732-.8560429-.4686449-1.1353008-.4228017-1.7912902.2746055-.3581219.3808165-.6686984.7922709-.8686385,1.2958656-.2327338-.2003939-.4381206-.3877384-.6544008-.5613526-.5656646-.4541203-1.2177959-.6049264-1.8815015-.3280514-1.107046.4616096-2.3441324.5687284-3.3638038,1.268632-.4056672.2784636-.8873616.2546342-1.3495385.1592031-.4899779-.1011048-.9718992-.2409039-1.4590403-.3571006-.928212-.221273-1.7655318-.1750894-2.3660327.7224848-.3942064.5890401-.9886933.6595071-1.5820454.3922774-.8776029-.3952277-1.6450231-.2866337-2.3832807.3073993-.2293296.1846211-.5251546.2647333-.806909.3635686-.2466911.0864667-.4191705.0408504-.6018626-.1295866-.2225212-.2076562-.4334682-.5571541-.7421157-.0486801-.1043955.1720256-.3339521.019177-.4225747-.1073458-.5955081-.8511636-1.5232662-.9783672-2.4340033-1.1549317-.2909457-.0565097-.5932386-.1003104-.8625109-.2151455-1.7634893-.7519879-3.5393471-.4129295-5.2356601.1114308-1.2956387.4005609-2.4278757.302066-3.5956299-.2659815-.9775729-.4754533-1.9869183-.8095188-3.1070137-.7083006-.6668828.0602543-1.2552421.3266898-1.8441688.5905153-.7796754.3491575-1.4776499.3737812-2.1540645-.2457833-.6189971-.5671398-1.3700772-.4771554-2.1101503-.2834564-.5021196.1314021-.996296.2926478-1.4984155.4237095-.9650908.2519108-1.8707216.1227782-2.7202965-.4207592-.5147151-.3292996-1.0179694-.6860598-1.5988394-.8974607-.2857259-.1039416-.5901749-.2033442-.7455199.1957415-.072169.1856424-.1949472.1663519-.3566467.1502387-.5772389-.0571906-1.147102-.1244803-1.6211937-.5063181-.108367-.087261-.2444216-.1554585-.3556255-.0605948-.4198514.3582354-.5057507-.0329073-.5955081-.2811869-.363909-1.0051469-.2402231-2.0168752.0479992-3.0110152.6929817-2.3896352,2.1710855-4.1573229,4.3503411-5.3288218,2.6155606-1.4061617,5.391686-2.3736354,8.3084048-2.9329455.8906523-.1707774,1.7783543.0262123,2.6657158.0657011.8888367.0394887,1.7741557.1592031,2.6609499.2437407.0031773.0283683.0063545.0565097.0096452.0847646-.8384545.1335581-1.6811076.2453294-2.5145693.4046459-2.5147963.4807866-5.019153,1.0191041-7.5746862,1.2601215-.2379536.0224677-.6881024-.0010213-.6557625.3196544.0246237.2445351.4516239.1160832.6936626.1091614,2.1076539-.0598005,4.1499472-.5591966,6.2136869-.9245808,2.0825763-.3686749,4.1362169-1.0467916,6.2265094-1.1704776,4.2105419-.249074,8.0414021-1.8453035,12.009111-2.9666471,1.5146422-.4280215,3.0253129-.8701136,4.5797842-1.3179929-.1908622-.2455563-.3900079-.1471749-.5716787-.1181258-1.8206798.2921939-3.5577298.8953047-5.3131624,1.430445-2.3395934.71318-4.6124645,1.6426401-7.0267234,2.115597-2.1461214.4203053-4.3032497.4594536-6.4864768.2251311.8384545-.1306078,1.6817884-.236138,2.5145693-.3967028,1.9321106-.3728734,3.8849869-.6018626,5.8292392-.8921274.7608388-.1134733,1.4399767-.4566167,2.0336693-.9930052-.5614661.176678-1.124067.3500653-1.6841714.5307148-1.3923179.449014-2.867358.3592566-4.2833918.6692658-2.5070801.548984-5.0278904.9325239-7.6174656.7912496-2.2542615-.1228916-4.3444405.6609822-6.4305345,1.3958356-1.9306355.6802727-3.8350586,1.4172821-5.4426355,2.7327786-1.9502664,1.5957757-3.0626456,3.6410192-3.2398909,6.1735173-.0270067.3862633-.0776158.7708244-.1279979,1.2597811-.3687884-.4805596-.4720491-.9543108-.5233391-1.4416788-.2666624-2.5321577.4272271-4.738193,2.2490417-6.5534261,1.6186973-1.6129101,3.3710661-3.028944,5.6049024-3.7115996ZM3.7548381,62.1419584c.4503757-1.3541909.8966664-2.713715,1.8000277-3.8544626.7346264-.9278715,1.6471791-1.6268673,2.730736-2.0916542.034269.0443681.0685379.0887362.1028069.1332177-.3112574.2879953-.6253516.5731539-.9333183.8647804-1.666583,1.5785277-2.4559036,3.5341273-2.4848393,5.8121047-.0070353.5562463.0095318,1.1127196.0053332,1.6690794-.0010213.1402531.012936.3336116-.1688483.3626608-.1542103.0245102-.2911726-.1100691-.3359946-.2478258-.1048494-.3228317-.2389749-.5304879-.6415783-.5351403-.255542-.0030638-.2833429-.302066-.3029738-.5273106-.0476588-.5459203.0582118-1.0726635.2286488-1.5854496ZM3.7036616,65.1942779c.106438.0352902.1226647.1344659.136395.2182092.0782966.4785171.3514269.6356777.7936326.4653542.2735842-.1053033.495992-.1091614.6731239.1565932.0296165.0444816.0790909.0987218.125615.1055302.611054.08919,1.0726635.3796818,1.3611128.9423961.0548076.1067784.2292162.1740681.3487036.1270901.5100627-.2003939.6883293.1669193.904496.4921339.3199948.4812405.4745455,1.066536.9357012,1.4606289.1432034.1224377.2538399.3173849.1676001.4923608-.1137003.2305778-.3738947.1548911-.5494379.1026934-.9869912-.2937825-1.960479-.6208127-2.3839615-1.7082277-.0245102-.0628642-.0771619-.1146081-.1823517-.266095-.0720556.977119.536502,1.4386151,1.1196415,1.9512876-2.6215747-.1356006-3.7879672-1.6944975-3.4502705-4.5399551ZM5.2215946,72.5943287c.2287623-.4250712.598118-.6849251,1.0892306-.8694328-.1118847,1.6865543.9497719,2.4792791,2.2484743,3.0594683,1.7830067.7965829,3.6918553,1.1446056,5.6137533,1.3059647,3.9106319.3285053,7.7726972.8847517,11.5636147,1.9280256,2.3419764.6444151,4.7101651.3733273,7.0781268.0726229,3.3345277-.4232556,6.62412-1.1004645,9.9339105-1.6642001,1.302674-.2218404,2.6270214-.1744085,3.9472838-.136395,1.8167083.0523112,3.6409057.2176419,5.4433164-.1606783,1.4049135-.2949172,2.7272184-.849121,4.0414667-1.4032114,1.9823793-.8357312,4.0171834-1.300745,6.1797584-1.1290598,1.5456204.1226647,2.9260237-.31069,4.1674221-1.2476394,1.5489112-1.1690024,3.4300723-1.5512941,5.2243128-2.1317103.4306313-.1392318.5376367.195855.4232556.466035-.5708844,1.347496-.9266233,2.809827-2.3966705,3.6093602-3.4576463,1.8808207-7.0544109,3.2918617-11.0190561,3.6036865-2.6301987.2067484-5.2222703.7021731-7.8347671,1.0374868-2.0413855.26201-4.1055791.3499518-6.1612622.4928147-.3654976.025418-.7530091-.0061276-1.1056843-.102126-1.6285694-.4428865-3.2287706-.1382105-4.8560918.0476588-3.2656494.3728734-6.5427596.6758472-9.7708493-.3535829-1.2050869-.3842207-2.462712-.334179-3.7033161-.2078832-2.7451472.2793714-5.4471745-.0716017-8.1512443-.4736377-2.8291174-.4205322-5.5465771-1.1781937-8.0800965-2.5377179-.5589697-.2997966-1.0791315-.653266-1.5889672-1.0248913-.587565-.4283619-1.2074699-.7966964-1.8845653-1.0660821-.5594236-.2226347-.6917335-.5754233-.4013552-1.1148756ZM9.43225,76.4617272c-1.0323805-.0440277-2.6805808-.9664525-3.5009931-1.9866913,1.2396963.5344595,2.2431411,1.4820754,3.5009931,1.9866913ZM52.8872079,91.7261616c-2.9379384.5939195-5.9129825.8159868-8.899374.9968633-3.6177572.219117-7.2440249.5419487-10.8537254.19994-3.8791998-.3675402-7.7928954-.3802492-11.6402092-1.0808336-1.5744427-.2867471-3.0979358-.7633352-4.5964648-1.3097093-2.4587404-.8964394-5.0103021-1.4933092-7.4744892-2.3752241-2.4899456-.8909927-4.1446139-2.6107947-5.1758597-4.9811394-.500304-1.1500524-.6680176-2.3973514-.7572076-3.6301258-.0738711-1.0205793.4411844-1.8778704,1.1933992-2.6983961.0827221.3551716-.0253046.5880189-.0936155.8187102s-.1634016.453326-.2453294.6800458c-1.0505362,2.9040098-.0987218,5.7931547,2.477577,7.5184034,1.2779368.855816,2.716098,1.3473825,4.1501741,1.8628919,3.1947286,1.1483503,6.5187033,1.7276317,9.8410893,2.3304021,1.587719.2879953,3.1133682.8437878,4.7030163,1.1406341,1.4436079.2694992,2.8893718.5333247,4.3574899.5624874,2.17744.0431199,4.3243557.5219774,6.492037.5172115,3.6207075-.0079431,7.2405072-.212876,10.8615551-.2569037,3.3170528-.040283,6.4886328-.9602114,9.7282968-1.4650544.1965358-.0306378.3905753-.0777292.5857494-.117218-1.5054509.6440747-3.0783049.9686085-4.6541092,1.2870147ZM73.3545086,78.7908811c-.3699231,1.3195815-1.2200654,2.3175796-2.2068296,3.2158346-.6048129.5505727-1.2514975,1.0498554-1.9230328,1.5167982-1.4184168.9863103-2.8124369,2.0037123-4.1033096,3.1563746-1.9517415,1.7428371-4.2456052,2.7446933-6.8140744,3.1847429-2.5955893.444702-5.1437467,1.1396128-7.7618037,1.4725436-1.82624.2322799-3.6580402.3996531-5.4975566.3691288-1.673051-.0276875-3.34179-.0262123-5.0091673.1230051-2.8688331.2566767-5.7096383-.1321964-8.5574788-.3704905-1.5167982-.1269767-3.0415395-.18099-4.5516428-.361753-1.7911768-.2143511-3.4883976-.8671633-5.242809-1.2585329-2.4611234-.5488706-4.9603738-.9155029-7.4035684-1.5570812-2.0680517-.5431969-4.1052387-1.1781937-6.0177184-2.1374974-1.8611898-.9334317-3.139694-2.3951954-3.6663238-4.4511054-.0696726-.2718821-.0910056-.5480763-.0159997-.9606653.9324105.874993,1.8531332.6529256,2.7600122.1300405.3568737-.2057272.5166441.029957.6829961.2427195.8995032,1.1499389,2.0824628,1.623917,3.5220992,1.5121458.2032308-.0157728.4103196.0111204.6123022-.0108934.3148885-.034269.5800757.0602543.8308518.240677.5425161.3903483,1.102507.7573211,1.6331084,1.1628748.8306249.6349968,1.7456739.7628813,2.7412891.5403601.6709679-.1500118,1.3386451-.3186332,1.9649044-.5990258.4175819-.1868906.7098892-.0905517,1.0511036.1787205.8283554.6536065,1.6502429,1.3861904,2.7637568,1.453934,1.6907528.1028069,3.3423574-.1095018,4.8348723-.9926648.293896-.1739546.50246-.2039116.7985119-.0230351.4419787.2700666.9182263.4838503,1.3785877.7240734,1.2156399.6339756,2.4597617.6672233,3.7029757.1186931.4907722-.2166206.9007514-.202096,1.4070695-.001929,1.1624209.459794,2.3751106.7292932,3.6457851.5352538.9269638-.1415013,1.6890507-.6428265,2.4673644-1.1110175.1856424-.1116578.3337251-.2343225.6008414-.1177853,2.5963836,1.132237,5.0668118.8791915,7.3737249-.76186.3995396-.2842507.7371228-.3168176,1.166506-.1186931,1.4340761.6620035,2.7375444.4822617,3.8721644-.6573511.0392618-.0393753.0905517-.0675166.1258419-.1097287.4764746-.5699766.96441-.6763011,1.6653348-.2778962.9551051.54297,1.9929324.463879,3.0155541.076708,1.2241504-.4633117,2.3340332-1.1353008,3.4265546-1.8378143.2843642-.182919.504389-.182919.8103132-.0427795,1.9247349.8825957,3.0973684.6753933,4.6568326-.785349.1627208-.1523947.3347464-.2962789.4846447-.4604748.4627443-.506772.8647804-.9487506,1.7232062-.7018326.715336.2057272,1.3418223-.3112574,1.8482538-.8308518.4223478-.4334682.8197314-.8913331,1.2825892-1.3981051.1941529.7286123.0954311,1.3604319-.078637,1.981585ZM73.3842386,75.8122058c-.6277345.9520414-1.3831266,1.7858435-2.2740058,2.5054915-.3891001.3143212-.749151.3822917-1.1423362.0865802-.3375832-.2538399-.5955081-.1707774-.872837.0961119-.5083606.4890701-1.0295437.9652043-1.5529962,1.4382746-1.2971138,1.1722931-2.3871388,1.3331983-3.9011001.4790845-.4844177-.2732438-.819618-.2336416-1.2375403.0694457-.9757573.7075063-1.9685356,1.3762047-3.1147298,1.8134175-1.2609158.481127-2.4325281.4507161-3.5360564-.3438242-.3735543-.2689318-.6418052-.2380671-.9537435.0776158-.325555.3296401-.6835634.6281884-1.0373733.9285524-1.1944204,1.0142248-2.0404777,1.0834435-3.299124.1605648-.436305-.3198814-.6930952-.2962789-1.0736848.0434603-2.2778639,2.0340097-4.7860787,2.2445028-7.4573548.8576315-.321243-.1668058-.4711413-.0114608-.6741451.1502387-1.5605989,1.2427601-3.2703018,1.713561-5.1982139.9695163-.3440512-.1328773-.7071659-.2757402-.9851756-.5060911-.368448-.3051298-.6452094-.2032308-.9839274.0141842-1.3036953.8372063-2.6208938.8038452-3.9369577.0201983-.4462907-.2657546-.9012053-.5191406-1.332404-.8077033-.3206757-.2146916-.5466011-.2014152-.8759008.0438007-1.4145587,1.0530326-3.0613974,1.2626179-4.7578239,1.1342796-.8448091-.063999-1.5670669-.53219-2.1231998-1.1313292-.649408-.7000171-1.262391-.8306249-2.1208168-.3896675-.6704005.3443916-1.4354378.4833964-2.1992269.5639625-.50246.0529921-.9677007-.019177-1.3847152-.2962789-.7417753-.4928147-1.4753804-.9979981-2.2044467-1.509309-.3008178-.2110604-.604359-.3375832-.9841543-.2685914-.2352302.0427795-.4814674.023489-.7224848.0376732-1.4025305.0827221-2.5132076-.4215535-3.2202601-1.6615902-.2055002-.3602779-.4190571-.4082771-.7583424-.242833-.3329308.1623804-.6750529.3062646-1.0137709.4569572-.4304044.1916565-.8269937.1516004-1.1907893-.1636286-.3649303-.3163637-.6301175-.6439612-.5025734-1.1933992.204252-.8794184.6014087-1.6714624.9964094-2.4692935.0868071-.1754298.1742951-.2068619.3395122-.095658,2.0655553,1.3906158,4.5149909,1.6340162,6.8379038,2.2111416,2.9559806.7343995,5.9907118,1.0532596,9.0243082,1.3173121.4786306.0416447.9734878.0584388,1.4454235-.0138437,1.9946345-.3054702,3.9601063-.1589762,5.9137768.2924208,2.1209303.4902049,4.2722714.4795384,6.4287189.3935256.8720427-.0347228,1.7445392-.0582118,2.6168088-.0899844.2222943-.0080566.461723.0212195.6632517-.0506091,1.660342-.5917635,3.3400879-.274492,5.0121176-.1157428,1.0850321.1030338,2.1557666.0331342,3.2123169-.185075.6414648-.1325369,1.2798659-.2201383,1.930749-.2176419,1.7202559.006468,3.3800305-.4561628,5.0753223-.6454364,2.3970109-.2673432,4.8078656-.4275676,7.1820684-.8799858,2.9795831-.5677071,5.772843-1.6470656,8.4013395-3.1435521,1.0416853-.5930117,1.9333589-1.3808571,2.5268244-2.4549958.0747789-.1353737.136395-.2381806.3411009-.1679406.6058342.2078832,1.1575416.9547647,1.1394993,1.5860169-.0389214.4738647-.2073158.9052903-.4652407,1.2965464ZM46.0139004,49.3014282c1.3529427-.1119982,2.5440724-.2106065,3.8043074-.3148885-.5965294.553523-3.0417665.7915901-3.8043074.3148885ZM22.3256588,75.0030274c1.9039693.3332712,3.8258673.1648768,5.8763306.2690453-2.1110581,1.5697903-10.3797473-.483283-11.1944859-2.7764658,1.8171621.9552186,3.350187,2.1629154,5.3181553,2.5074205Z"/>
  </g>
</svg>