<?xml version="1.0" encoding="UTF-8"?>
<svg id="Layer_2" xmlns="http://www.w3.org/2000/svg" viewBox="0 0 75.746478 117.0572912">
  <g id="Layer_1-2" data-name="Layer_1">
    <path d="M75.5200581.7375744c-.3024041-.181474-.586931-.3951-.8676078-.6098967-.2247711-.1720175-.4029353-.1854367-.5945863.0539469-.2575985.3218799-.5462908.6187228-.8082573.9372704-2.9867333,3.6320918-5.8329706,7.3781114-8.884976,10.9570669-.4014268.4707517-.8392159.9104321-1.24402,1.3783918-.2489526.2878367-.5106489.3757367-.8886147.2568555-.4773712-.1501326-.9818959-.1893094-1.4816249-.2301973-1.930334-.1576077-3.4958962.6414183-4.8845101,1.8817458-.2069164.1848063-.4044213.2499208-.6737053.2233526-3.6808826-.3636685-7.3618328-.7271569-11.0441114-1.0761453-4.4645306-.4231992-8.9380898-.6639337-13.7355104-.6130489-1.1938332-.0410681-2.6948889.0952851-4.1992543.0902417-2.6720133-.0090962-5.3295041.2049801-7.9815012.5208259-2.5461298.3032372-5.0736618.7294084-7.6084438,1.1075768-2.664966.3974416-5.2382718,1.1206357-7.6810109,2.2690104-.9427867.4431928-1.7863256,1.0348971-2.4116679,1.8901215-.8062084,1.1026234-.6798971,2.5255057.2843693,3.4928566.3532889.3543922.7121391.7133774,1.0047941,1.1164929,1.7859428,2.460121,3.8382426,4.7085073,5.6782674,7.1211658,4.0529268,5.3143513,8.3476014,10.4242628,12.7435501,15.4536594,1.2703405,1.4534131,2.6521772,2.8164044,3.7660583,4.3994161,1.9935122,2.8331559,3.5427057,5.9025432,4.7828306,9.1354822,1.1989667,3.1255857,1.8824888,6.3754563,2.4254023,9.6639633.6414858,3.8854349,1.0696159,7.7922144,1.3033481,11.7243011.181429,3.0518253.0608816,6.1022096.0599134,9.1528641-.0008331,2.675278-.3009406,5.3237177-.9656848,7.9221732-.3063668,1.1974582-.5874489,2.4032021-1.2801347,3.4624158-.3137294.4796678-.7437057.7435481-1.2883753.8445971-.2602553.048363-.5246535.0944746-.7882411.1014994-1.9518362.0519655-3.8733666.3097216-5.7646139.8002868-2.1539343.5586517-4.2279614,1.2897713-5.9828105,2.7212994-.2621016.2138061-.5014401.4554412-.752239.6832068-1.8589602,1.6880234-1.280585,4.0218781.3204164,5.2313145.9262379.6996881,1.9429651,1.2300605,3.0249194,1.6260611,4.8821009,1.7867309,9.9611889,2.5255957,15.1258354,2.6237628,3.9409353.0749312,7.8105644-.5831485,11.586552-1.7124301,1.722562-.515152,3.403358-1.1762037,4.9140052-2.1694023,2.0161626-1.3255257,2.3256366-3.5839089.8047899-5.463223-.612486-.7568772-1.3647926-1.3383145-2.2310269-1.7769142-1.4061758-.7118464-2.9164628-1.0938874-4.4478692-1.4129755-1.7167756-.3577244-3.4799103-.4523791-5.1819833-.8768391-1.9279924-.4806584-1.605437-.1422972-2.0155997-2.041515-.7677296-3.554909-.9919828-7.1795257-1.0761228-10.8065741-.1124418-4.8474722.1757551-9.6982768-.1685952-14.5464695-.1409013-1.9836054-.0023866-3.9787386.1569097-5.9649558.2887823-3.5999398.9267107-7.12729,2.2402583-10.5047778.7552786-1.941997,1.6380843-3.832929,3.0784835-5.3767639,2.0611934-2.2092095,4.1170507-4.422742,6.2327763-6.5825978,5.7787086-5.8994811,11.3371041-12.0064639,16.8542964-18.150282,1.615006-1.7983488,3.293573-3.5426607,4.7480893-5.4802446.463209-.6170116.8694091-1.2693273.9967561-2.046018.2051827-1.251315-.4121666-2.1526509-1.29522-2.9270901-.724455-.6352941-1.5525483-1.1194649-2.3813397-1.5999432-.1888365-.1094248-.3244017-.2367718-.3842025-.4518387-.2967978-1.0673193-.9236711-1.9027301-1.8350038-2.5169498-.3207542-.2161477-.2926775-.3642089-.057009-.6393469,2.6087676-3.045611,5.2040034-6.10275,7.8032919-9.1564665,1.0033306-1.1787254,2.002023-2.3614135,3.0160033-3.5309527.2145941-.2474891.2330342-.399603-.0664429-.5793659ZM1.6164377,22.6078482c-.7827473-1.1548591-.635159-2.2350572.4485965-3.1163994.9044655-.7355326,1.9613377-1.1888123,3.0411755-1.5884154,2.4531187-.9079104,4.9966817-1.4734068,7.5616568-1.9446087,4.4566727-.8188395,8.9399811-1.2950849,13.4825725-1.3788422,2.8742239-.0529562,5.7451831-.0689871,8.618484-.0462916,2.8043362.0220651,5.5946228.2742374,8.3868006.4889441,2.6156122.2011074,5.229018.4329258,7.8415231.671769,1.3623159.124465,2.720624.2931503,4.151927.4496773-.3451608.474174-.6521806.8686435-.9299754,1.2825664-.8870611,1.3221034-1.3146508,2.7593955-1.0246526,4.3573574.0521456.2871162-.0421713.3679914-.3134592.428783-1.2757217.2855851-2.5551134.1195117-3.8325463.0607915-4.4806516-.2061509-8.8382791-1.1801664-13.2048453-2.1096015-2.2216605-.4729131-4.4730639-.7651628-6.7468701-.8421654-3.9735826-.1345519-7.7543435.7382344-11.4014755,2.2462248-3.076232,1.271849-6.0663201,2.7330074-9.0389362,4.2286594-.1560541.0785337-.2928126.1123067-.4596516.0634033-1.6965793-.4968695-3.3886104-1.0048166-4.9523714-1.8562584-.6423189-.349799-1.2109674-.7804733-1.6279524-1.3955936ZM55.0566355,30.8847738c-2.4294325,1.2740105-5.046936,1.8246468-7.7652635,1.9697359-.180033.0095465-.3377308-.0152204-.4960364-.1271669-.8026509-.5677479-1.3780091-1.4926799-1.5316766-2.5192014,1.0704264-.0858286,2.1399522-.1618406,3.2075642-.259107,2.8468002-.2594673,5.6566752-.7494921,8.4442374-1.3746093.0430269-.0096366.0845903-.02927.1279099-.0337731.1974149-.020444.4461649-.1435581.5634475.0828566.1073759.2072316-.0846128.3860038-.2198627.5346954-.6624702.7282376-1.4672601,1.2740105-2.3303198,1.7265698ZM55.7396848,31.1889116c-1.7840966,2.1409429-6.3451731,3.4952883-7.7372993,2.3028735.1177329-.1606698.2997698-.1807535.4694908-.1903,2.5409287-.1427475,4.9030627-.8908887,7.1332566-2.0918594.0332102-.0178322.0787813-.0127887.1345519-.0207142ZM48.5547779,38.0043185c-.1186336.428783-.2743725.8481996-.5234377,1.2121382-1.1717907,1.7120698-2.6366866,3.0480427-4.7152619,3.5632848-.7513159.1862473-1.5200136.1591387-2.2856042.1687753-.1782993.0022515-.2686536-.112667-.3492586-.2316383-.4671042-.6890608-1.1145341-1.1596324-1.8243766-1.5707633-.9354017-.5419003-1.4787204-1.3802831-1.6768108-2.4300404-.2097758-1.1117196.2814873-1.9895494,1.0416968-2.7277839,1.2025692-1.167918,2.6930652-1.8350939,4.2729697-2.3072866.3105997-.0928534.6727147-.0133291,1.0110759-.0133291.8875565-.0271085,1.7654313.0797945,2.6320935.2574859,1.874068.3843826,2.9383252,2.1945295,2.416914,4.0791573ZM39.6334845,47.9562086c-1.3049241,1.3038209-2.9743724,1.9348821-4.7336795,2.3262895-1.6535073.3679914-3.1535273-.0463817-4.4835786-1.0703814-.6972339-.5368568-1.0476183-1.2585199-1.0073833-2.1550826.0421938-1.6956786.7898172-3.0428191,2.1416859-4.0174651,2.2102678-1.5935489,4.5814305-2.119148,7.1244306-.7981254.9855209.5119998,1.7623242,1.2606814,2.0337697,2.3808668.3181424,1.3129171-.1650828,2.4244566-1.0752447,3.333898ZM38.1711778,34.8673851c-1.0655856.920609-1.8201212,2.0017978-1.7903333,3.4892542.0133967.6693374.2389558,1.2665354.5674778,1.8349138.108344.1874181.2201329.3727647.3179623.5381177-.5428684,0-1.0658108-.0037826-1.5886855.0007205-2.794587.0235061-4.9452566,1.255638-6.3778655,3.613449-.9560032,1.5734651-1.0416292,3.2500507.1362631,4.8014508.2786954.3670908.3690046.5652262-.021975.8937707-.4377891.3679014-.5789831.90737-.6274362,1.4658416-.0189129.218039-.0426667.4356277-.0702705.7144582-.8111843-.3619573-1.4902933-.8350506-2.0943811-1.4100034-1.4042395-1.3365132-2.5643447-2.8835903-3.7372161-4.4161675-1.7370394-2.269821-3.379244-4.6110607-5.1791914-6.8339596-1.5422813-1.9046214-3.2846344-3.6253372-4.9319275-5.4333226-1.0236169-1.1234276-1.9898196-2.2923363-2.8226187-3.5663469-.0676587-.1034807-.2248161-.2129055-.1399331-.3416034.073918-.1119465.2460706-.0580897.3742057-.0549375,1.7305325.0425991,3.4256933.3560133,5.1141445.6994179,3.5054878.7129271,6.9518952,1.6782968,10.4400461,2.4667855,2.0985689.4743541,4.2187076.6183625,6.3645363.5468537,2.1645615-.0721393,4.323922-.3038676,6.493527-.2190297.3801948.0148602.7598267.0442202,1.1397288.0669157-.5418552.4058173-1.0863448.7289581-1.5660576,1.1434213ZM30.2483067,50.1649678c.3035299-.1939025.53053.1166297.8182991.2453276-.5936857.3697026-1.2175194.627909-1.7736269,1.1801664.1386497-.6938341.4804783-1.1220767.9553278-1.425494ZM29.540378,52.1271386c.9674861-.8170383,2.0361113-1.2315915,3.3265355-1.1529678,2.2772285.1386948,4.3425647-.5409997,6.1783116-1.8626527,1.7920895-1.2901315,2.625519-3.0210242,2.1604637-5.2566218-.0544872-.2618089.0458864-.2886472.2615162-.3050384.5432287-.0413382,1.0957787-.0566487,1.6247327-.1728281,2.8915608-.6349338,4.8861086-2.375193,5.9887996-5.0913589.4367985-1.0759652.2072091-2.1763371-.3602687-3.1901598-.0628179-.1122167-.1190614-.2281259-.1844685-.3540319,3.1798928-.016031,5.877461-1.0330959,8.0158372-3.3726245.1673118-.183005.3099243-.2438866.5264998-.1064527.1486916.0943845.3187953.1558065.4641096.2545139.6182274.4196868.9491586.7679547.3138194,1.5625677-1.1250713,1.4073016-2.3620665,2.7103119-3.5971029,4.0168347-3.0078077,3.1817841-5.8483036,6.514061-8.7803696,9.7639316-1.4708175,1.6302039-2.9396086,3.2602277-4.6576901,4.6478959-2.3536682,1.901109-5.0177561,2.4962357-7.9630386,2.0017978-1.1028711-.1852566-2.2053594-.3713237-3.2351681-.8449574-.332935-.1531046-.4207675-.2522624-.0825189-.5378475ZM57.451597,30.8265941c-.234948-.1169899-.3154631-.2050701-.1173052-.4438233.4618581-.5564902.8408821-1.1730515,1.211778-1.792855.0868418-.1450891.1827574-.2530729.3599084-.2919795,1.3475458-.2963925,2.6936506-.5992695,4.0440107-.9009756.0152654.1513934-.0945421.2202005-.166096.3050384-1.2070047,1.4317083-2.4563159,2.825951-3.714408,4.2127185-.2059707.2270451-.3001076.2381227-.4481687-.0463817-.2544238-.488854-.688588-.8020881-1.1697193-1.0417418ZM57.0675746,27.5605124c-2.5495971.622055-5.1323369,1.0475958-7.7438964,1.3114761-1.2012408.121403-2.395074.3108024-3.6000749.4077986-.3611918.0290899-.4148685-.0372855-.3252572-.3950099.3423239-1.3671342,1.2005653-2.3683483,2.206913-3.2857151,1.5642113-1.4259443,3.3510773-2.2776563,5.2822218-2.2092095,1.1733893-.0118881,2.1117855.0348538,3.0357268.264871,1.1543863.2874764,1.8650169,1.002475,2.1567937,2.1529211.3575893,1.4098233.3645466,1.4169382-1.0124268,1.7528677ZM44.4140635,29.077689c-.0534065.2058807-.1344168.3140446-.3780333.3301656-4.9489491.3274638-9.894746.421488-14.8410383-.0713287-2.3604679-.2350606-4.7277579-.396541-7.0803229-.7161694-3.6223877-.4923664-7.2034371-1.1997098-10.7653484-2.012335-.640968-.1462599-1.2813505-.2950416-1.914213-.4407612.0038276-.1578779.1000809-.1840858.1713871-.2204706,3.830002-1.9568571,7.6752244-3.8712052,11.8347841-5.0665019,3.8284034-1.1001017,7.702333-1.1395486,11.6099005-.6187228,2.6312829.3506096,5.1945694,1.0488567,7.7968075,1.5488783,2.9848871.573692,5.9958019.9350189,9.0270481,1.1383778.057099.0037826.1139278.0119782.1708918.0181024-1.2061717.6216047-2.2571673,1.4218015-3.2422604,2.3135008-1.1502435,1.0412915-1.9958312,2.2790072-2.3896028,3.7972646ZM39.839838,104.6413011c-.0028369-.2289364.062255-.3149452.3024266-.2878367,2.9552343.3341283,5.8536172.8799913,8.5231313,2.278647.7495372.3926683,1.4327665.8790006,1.9725278,1.5404126,1.1356085,1.3915408,1.0181232,2.8433328-.3382261,4.0108006-1.1974582,1.0308444-2.6374747,1.603996-4.1184016,2.06358-4.0866099,1.2684267-8.2547479,2.0581763-12.5544434,2.0427758-4.9655429-.0545773-9.7722398-.9726646-14.4299299-2.6832935-.7616054-.2797311-1.4771218-.6627629-2.1373629-1.1416201-.3118606-.2260545-.5965901-.4798479-.8399364-.7796627-.725198-.8933204-.8008047-1.8309511-.2186919-2.8277522.4559591-.7807435,1.1087701-1.3799229,1.8445504-1.8784135,3.006817-2.0371019,6.3556878-2.9451924,9.9653092-2.9740121.2159676-.0017112.3001301.0381861.2060833.2728865-.070203.1750796-.1035933.3679014-.1324355.5560399-.0668257.436168.0784661.7784019.4669466,1.0113911,1.6206349.9719441,3.3811353,1.450351,5.2634215,1.3892893,1.4274304-.0462916,2.8538025-.1694958,4.2161634-.6679864.5169532-.1891292.9943019-.441932,1.4215088-.7893894.3611017-.2936907.5932579-.6592505.5873588-1.1358561ZM37.7674995,104.5230503c.3009631-.1328408.5981662-.244427.9301556-.084928.3270134.1570673.4003235.3770877.1876882.6690672-.2228573.3060291-.529787.5071365-.8752856.6521356-1.3933871.5846795-2.8602419.7847062-4.4280106.8423456-1.3262012-.0323321-2.6742648-.3174669-3.9849529-.7889391-.3050835-.109785-.5913666-.2664921-.8361313-.4860621-.27435-.2462282-.2802715-.4967794-.0118656-.7548958.4805684-.4621058.7466327-.478497,1.3549984-.2158775,1.9734735.8520722,4.0133448,1.2459113,6.1565392.7901999.5384554-.1144682,1.0093647-.4035658,1.5068646-.6230457ZM38.7735544,56.5790605c-1.4485273,1.9307393-2.0461982,4.1865106-2.4699152,6.502263-.5383879,2.9424906-.4990535,5.9269498-.6087935,8.9006017-.1154364,3.1279273.0201513,6.2479292.2378976,9.3667602.088598,1.2689671-.0514026,2.5341516-.099563,3.8000566-.1099201,2.8894443-.1838156,5.7804197.1339665,8.6583362.2219792,2.0101735.2105188,4.0322352.4168048,6.0411479.1026476.999503.2766916,1.9803632.6248244,2.9288012.3298279.898634.1261312,1.2782434-.8013225,1.5550926-.8995121.2686536-1.8095615.1881386-2.7178321.0589002-.5928526-.0843877-1.1767215-.2109241-1.780314-.4400407.5891601-.5971981,1.1024883-1.1980886,1.4658641-1.9160592.4646275-.9179973.5774521-1.9122766.6479027-2.9121398.1641372-2.3295318.0512225-4.6589734-.1149636-6.9812102-.1916735-2.67816-.2096407-5.360733-.3180298-8.0407842-.1357903-3.3580345-.3939067-6.7081436-.6654197-10.0575322-.182172-2.2470354-.3301656-4.4967726-.6517528-6.7302087-.5050426-3.5074466-1.4131106-6.9175367-2.4791915-10.2898009-.0425541-.134642-.1443461-.2584766-.0840049-.4822795,3.2115494,1.5695024,6.3297501.8643206,9.4138399-.4538201.0663979.2496506-.0614445.3739355-.1499975.4919161ZM66.8449029,26.493103c-3.6040601,4.0581729-7.3479633,7.9858467-11.0994091,11.9068559-2.6703696,2.7911872-5.1695999,5.7435846-7.9428423,8.4383158-2.2208275,2.1579645-4.3950706,4.3698759-6.7796075,6.3476273-2.559729,2.1231107-5.5279772,3.1029802-8.8638341,2.7488583-1.4914191-.1583282-2.7552301-.9084507-3.9222475-1.8152804-1.2392693-.962938-2.288959-2.1241914-3.383657-3.2395135-5.7022463-5.8102301-10.8490831-12.0874293-15.693921-18.6199529-1.6959263-2.2867525-3.6299753-4.3823945-5.3516367-6.648703-.0976717-.1286079-.1912232-.2603679-.3639162-.4959689.3811629.1266265.6489834.2014677.9061992.3030571,3.715151,1.4681832,7.5922327,2.3428609,11.4979089,3.0931635,8.8919108,1.7081071,17.878904,2.0514217,26.9039033,1.8020413.4716523-.0130589.9862864-.1430177,1.4034515.002972.439838.1538251.3327549.7817342.5610158,1.1639553.2426483.4062676.4682525.8175786.8212487,1.1426107.0708109.0652046.1995313.1139278.1552661.2392935-.0407303.1152788-.1744267.0957354-.2682933.1163595-.3641863.0798846-.7363882.0648443-1.1011824.0240464-.5899031-.0660151-1.1732091-.0692573-1.7617838.0176521-1.0692106.1578779-2.1464817.156617-3.2223793.099518-2.1855909-.1159092-4.3644722.0407078-6.539616.1936323-3.145782.221011-6.1949505-.2671225-9.2227744-1.0509281-3.6063342-.9335779-7.2213143-1.8359045-10.8950595-2.4728197-.9426741-.1633716-1.8929359-.316116-2.8565043-.2294768-.7119365.0639437-.8747677.3609666-.5398964,1.006888.493267.9515902,1.221955,1.7301722,1.9165996,2.5319901,2.0853974,2.4073449,4.3442534,4.6603244,6.3649867,7.124318,2.1980419,2.6801413,4.1902707,5.5156388,6.2210908,8.3218663.8930052,1.2339331,1.8738654,2.3903233,3.1066953,3.3083206,1.7041895,1.2689671,3.6729797,1.8328424,5.7331599,2.1443652,1.9144156.2894578,3.8143313.3138645,5.6770066-.3369202,1.6394352-.5727914,2.9739671-1.5963408,4.2003351-2.7873146,1.5785761-1.5331176,2.9582063-3.2477992,4.4323111-4.8758416,2.2868426-2.5256858,4.6250653-5.0016576,6.99553-7.4476389,2.8051693-2.8945778,5.2910478-6.0655546,7.9119512-9.1193612.6598584-.7689454,1.4512741-1.4325188,1.9300413-2.3523173.0342459-.065835.13543-.1174402.2147743-.136083,1.0590787-.2485698,2.1020363-.553158,3.1947755-.8477493-.1131173.1328408-.2238705.267753-.3396896.3981621ZM66.7516442,18.8632696c.0274463-.1286079.061422-.2556847.0996306-.4134725.8724036.4530996,1.7007671.923401,2.3421854,1.6562317.8599076.9824813.8355459,2.3193548-.0344035,3.2947213-.6261754.7021198-1.43056,1.1310829-2.2753147,1.4829533-2.482141,1.0336363-5.1272259,1.4989842-7.7092227,2.2158741-.089341-.2505512.0665555-.4301339.0759894-.6297103.0062142-.1306793.0880802-.2930602.0363623-.3854634-.3189304-.5697293.1307694-.6232258.4770785-.730219,1.3382919-.4132924,2.6638852-.8470288,3.8308351-1.661095,1.703469-1.1884521,2.7264104-2.8133423,3.1568596-4.8298202ZM65.8231547,19.6314045c-.641801,1.8148301-1.7823629,3.2070914-3.5874213,3.9845926-1.1273903.4855218-2.276508.8877366-3.5264946.9094414-.2531855.004413-.4521765-.0496239-.6356318-.2282159-.8291516-.8071315-1.8441001-1.1962874-2.9834236-1.2705882-.316814-.0206241-.5085325-.1381544-.6413057-.4305842-.3030346-.6674461-.4864224-1.3569572-.4814465-2.0926699.0018463-.5192048.0529562-1.0392201.2551669-1.5164562,1.0524591-2.4838072,2.7752688-4.2064142,5.5038858-4.7486747.741274-.1473407,1.4642205-.0081055,2.177643.2068714.1922364.0579096.295627.1966944.3763221.349799.1387398.2631598.3250096.3109825.5754707.1782318.3452734-.183005.6605789-.1060024,1.0016194.052686,1.918581.89278,2.6735893,2.6036791,1.9656156,4.605567ZM74.6714082,1.6709722c-1.3414216,1.5877849-2.6895978,3.1698059-4.0270567,4.760833-2.1248894,2.5277572-4.236157,5.0671323-6.4671164,7.503387-.0954877.1042913-.1817442.2962124-.3433146.17562-.1680999-.1254557.0082406-.2697343.0790065-.3769075.7494471-1.1348654,1.6689529-2.1357193,2.5314948-3.1809735,1.257169-1.5236611,2.5978701-2.9842791,3.7712819-4.5693622,1.2462265-1.6832502,2.542077-3.3230906,3.8591369-4.9487014.1123968-.1386948.2049125-.3071098.4246852-.1875982.1774212.096546.3784161.1622909.5117972.3766374-.1114512.1473407-.2184668.3033273-.3399148.4470655ZM23.9976081,113.8609008c.1700812.0660151.3307735.1561667.4996614.237042-.0758768.1187011-.1548383.0961857-.2206057.0876299-1.9592212-.2556847-3.7991109-.8067713-5.3097131-2.163008-.3647267-.3274638-.6655097-.7067129-.8941084-1.1421604-.505583-.9631181-.3282518-1.8462615.5353933-2.5057822.8105538-.618993,1.7609958-.8426158,2.8292832-.9408729-.2829283.313234-.6193757.3927584-.908901.542981-.550276.2855851-1.1016327.5680181-1.5538768,1.0012141-.7406886.7094147-.7728856,1.4460281-.0931461,2.2141629.7111935.8036191,1.6340766,1.2964358,2.6042645,1.7004519.8280933.3447556,1.6751671.6436698,2.5117488.9683417ZM45.7832916,107.3743086c.026298-.0367451.0354167-.0581798.0419462-.0574593,1.5115253.1777815,2.8167647.7518337,3.653594,2.079701.4649652.7376941.1688204,1.7237778-.5835988,2.1745358-.0693474-.2744175.0628179-.4703914.1628313-.6545673.3371229-.6210644.1494121-1.1300021-.2913266-1.6019246-.4294134-.4598542-.9662027-.7662436-1.5122683-1.058043-.376142-.2010174-.7605922-.3864541-1.1359462-.5888223-.1334037-.0719592-.2933079-.1318501-.3352316-.2934205ZM34.2764216,115.1328399c1.9498323-.4618356,3.921392-.7622809,6.05164-.841445-.8128954.7086942-5.2396002,1.3049016-6.05164.841445ZM16.6749971,36.2554135c-.205588.004323-.2718958-.103931-.3522082-.1778715-1.4079771-1.2965259-2.8127119-2.5965642-4.1655488-3.9513599-.0623676-.0624126-.1182958-.1315799-.1826898-.191741-.1111359-.1037509-.0763497-.2046198-.0104246-.3151253.0756967-.1268967.1726705-.0843877.2661769-.039537.1587785.0761921.3283419.1403159.4684551.2433463,1.6219408,1.1929551,2.7392217,2.8326155,3.9762394,4.4322886ZM35.750864,59.3538565c.0613319.1367134-.0355518.2274054-.1194441.3026968-.3440351.308731-.780766.3009857-1.2101569.3407028-.2545589-.032242-.5252389-.0054938-.768315-.1334712-.0778132-.040978-.1558515-.0996981-.1523391-.1977751.0041203-.1142881.1202547-.133111.193227-.1441885.6231133-.0942944,1.2478476-.1780517,1.8726496-.2609083.074616-.0099068.1508306.0181024.1843785.0929435ZM35.5164789,102.7392014c-.0025668.1523841-.100914.2379426-.2291166.2917994-.2885572.1210427-.59632.1379743-.913967.1635518-.2563602-.0381861-.6765198.0383662-.7206499-.2319985-.0468995-.2874764.3772228-.3404326.6243066-.4427425.3187278-.1320302.6532614-.1631014.9862639-.0417886.1225287.0445805.2559774.0931236.253163.2611785ZM58.9522474,15.3508696c.0318142-.0137794.0818434.0144098.1252306.023416.0329175.1896696-.103143.2815324-.2174536.3523207-1.1859529.734632-2.0584916,1.7880818-2.9305124,2.845044-.0990227.120052-.1873505.3842025-.3808928.2662219-.1371412-.0835771-.0011708-.3076502.0625928-.4451742.6862464-1.4805216,1.8812054-2.4086058,3.3410354-3.0418285ZM63.2118429,20.1646588c.3209118-.7058123.7279449-1.3783918.8353433-2.1654396.0473273-.346917.0774529-.6961757.1258835-1.1407194.381298.3812305.4336463.7811938.4126845,1.1685485-.049759.9188078-.4230641,1.6990109-1.1257467,2.3078269-.0828116.071689-.1723102.2060608-.2953793.1054621-.1033006-.0843877.0097492-.1932721.0472148-.2756784ZM42.9539859,36.2264137c-.49034.5520772-1.0979177.9305158-1.8443027,1.0260711-.2668298.0341333-.5606556-.0127887-.7001834-.2738771-.1456971-.2725262.0196109-.5214563.2082673-.7119365.4612277-.4657082,1.0194516-.7367934,1.7404843-.7659734.0915476.0159409.2406219.024857.378371.0690772.3776956.1212228.4739939.3677213.2173635.6566387ZM34.4166023,44.4398459c.1282927.2076819.0275363.4056372-.0838923.5754932-.3889758.592785-.9551702.885485-1.6306992.9376307-.2315032-.0165713-.4458496-.0256675-.5631548-.2320886-.1266716-.2228122-.0486557-.440491.0971989-.6118781.4210827-.4948882.9433496-.8292866,1.6029603-.9052986.2293417-.0264781.4462099.0235961.5775872.2361414ZM52.6694194,25.3071727c-.0134192.0521456-.0266807.1092446-.0427567.1655331-.2347904.8222618-1.5106697,1.5685118-2.324736,1.3600193-.5611284-.1437382-.7488842-.5777448-.466091-1.0774062.3348038-.5916142,1.5000425-1.1570206,2.1703705-1.0436331.3369427.057099.627864.1817442.6632132.5954869Z"/>
  </g>
</svg>