<?xml version="1.0" encoding="UTF-8"?>
<svg id="Layer_2" xmlns="http://www.w3.org/2000/svg" viewBox="0 0 109.504361 174.3240317">
  <g id="Layer_1-2" data-name="Layer_1">
    <path d="M109.504361,1.9930078c-1.1441769-.5239922-2.029016-1.1875384-2.9128582-1.8472635-.3291149-.2457148-.4796339-.167631-.7002622.135899-.4616913.635137-.9401622,1.2631301-1.4663142,1.8449376-2.5241005,2.7910807-4.9834081,5.6351587-7.2830592,8.616797-3.763141,4.8787426-7.3812454,9.8751092-11.5931191,14.3933372-.1948772.2091649-.3372556.3748023-.6798275.3362588-3.1293331-.3528723-6.2722893-.4798001-9.419565-.4525538-5.016303.0431953-10.0326059.1068253-15.0485766.1784298-2.4225916.0347224-4.8441863.1063269-7.2624584.2774467-3.434026.2432227-6.8690489.4698319-10.3045702.6894634-3.8596658.2465455-7.7176703.5128611-11.5642115.9210566-5.259858.5582161-10.5070897,1.2174428-15.7152794,2.1474708-3.6780795.6569008-7.3458585,1.375604-10.8777385,2.6375712-1.3815849.4937555-2.7527033,1.0273835-3.8520236,2.0512782-.8808518.8202122-1.039013,1.6708273-.5552257,2.7643328.1991968.4502279.4698319.8559314.7668826,1.2450213.8938104,1.1707587,1.9487724,2.1901677,3.0273257,3.1844901,1.7990841,1.6585332,3.5441741,3.3659104,5.0648146,5.2917561,1.1596276,1.4691385,2.4036521,2.8678354,3.7048273,4.2118736,5.7961442,5.9858712,11.6552539,11.9109368,17.182092,18.1529893,5.7266995,6.4679972,11.1196322,13.1911789,15.9257734,20.3775471,1.847928,2.7631699,3.3413223,5.6599129,3.8480363,8.9982447.3801186,2.5046626.5811429,5.0217855.6738466,7.5498732.1006783,2.7399109.2016888,5.4793233.4286302,8.2127549.3834413,4.6175772.6881343,9.2409691.8393178,13.871671.1442058,4.4185465.1907238,8.8404158.3239647,13.2596268.0960265,3.1934615.0197702,6.3732998-.4224832,9.5415087-.0458535.3284504-.1433752.4837873-.4739853.5386121-2.5392189.4213203-4.9957021,1.1848802-7.4741153,1.8517491-3.792547,1.0204058-7.4241085,2.4307322-10.6659154,4.7043-1.2486763.8757016-2.3282265,1.9248489-3.0030699,3.3220505-.9778751,2.0248626-.6765048,3.8835894.8673948,5.5064034.5148547.5412703,1.0758951,1.0303739,1.701064,1.4374065,3.2409763,2.1112532,6.7567411,3.6156124,10.5640742,4.2454331,3.7245975.6160314,7.454179,1.2350532,11.2236332,1.5784558,2.2195737.2021872,4.4212047.584964,6.6617115.5528998,3.5543083-.0510037,6.9969734-.8085827,10.4225266-1.6488974,2.0386518-.5004009,4.1455855-.7662181,6.100671-1.5581872,3.2034296-1.2976864,5.8124255-3.5033047,8.3514782-5.76408,2.3104499-2.0570929,2.3486612-4.5914938.2611654-6.8886529-1.189532-1.3091497-2.6138138-2.3043029-4.1935987-3.0678628-3.1587391-1.5264553-6.4138369-2.8120138-9.8030063-3.7343995-3.628571-.9878432-7.2855512-1.7156839-11.0644751-.9501304-.3113384.0629655-.3093448-.1026719-.3357604-.2935619-.1187871-.8622446-.248373-1.7234923-.3507126-2.5877305-.3495496-2.9558873-.4844519-5.9290528-.7148822-8.894576-.2879133-3.7071532-.632645-7.4093224-.828519-11.1244501-.3189806-6.0566451-.1681294-12.1129579-.0827356-18.1699352.0581475-4.1219942.0209331-8.2506338.6122103-12.3445511.3553644-2.4611351.7515982-4.9204426,2.0811826-7.097984.6416163-1.0513071,1.266619-2.1155727,1.9647214-3.1286685,5.1038565-7.4045044,10.620062-14.5004948,16.128459-21.6042935,3.1442853-4.0550415,6.7281658-7.7229867,10.0158262-11.6496052,2.5902225-3.0936139,5.5324868-5.8885157,7.8244956-9.2373141.5269826-.7702054,1.1273972-1.4915668,1.7121951-2.2205705,2.0207092-2.5196149,4.0836168-5.0079962,5.7056002-7.8176841.5636986-.9762137,1.0700804-1.9766832,1.3113095-3.0939462.1867366-.8658996-.0388758-1.5937403-.6479294-2.2177462-.6344724-.6505876-1.4018535-1.0898505-2.2360211-1.433087-2.0007729-.8233688-4.1216619-.9689037-6.2410558-1.1240745-2.8809601-.2106601-5.7624186-.4140103-8.784428-.6303191,3.2702162-4.3761819,6.6191807-8.4907,10.0965682-12.5057028,3.4903461-4.0297889,7.3453601-7.7077022,11.1659841-11.5411186ZM5.1014963,38.1225503c-.6760064-.364668-1.3242681-.7745249-1.8231738-1.3712845-.644939-.7712022-.6213477-1.49057.0750934-2.2122637.6613864-.6854761,1.49057-1.1207518,2.3524823-1.4922313,2.7066837-1.1661069,5.559733-1.8298192,8.4338816-2.4046489,7.0433253-1.4089973,14.1462934-2.4279079,21.2836515-3.2223691,10.4268461-1.1609567,20.8894114-1.5874271,31.3749034-1.6488974,5.3578781-.0313997,10.7137625-.0390419,16.0686502.1417138.6080569.0206008,1.2151169.0774193,1.9481079.1255986-1.2122926,1.4865827-2.2743985,2.9402706-3.6672806,4.1048822-.1460333.1221098-.3017025.2663156-.5095384.2169733-.7065754-.1681294-1.3314119.1088189-1.9815011.3115045-.8833438.2754531-1.8160299.1339054-2.7218021.2500343-2.2822069.2923989-4.4153899,1.0461568-6.4485593,2.0909846-.6981024.3588532-1.3638084.5306376-2.1763784.4435825-2.1152404-.2262769-4.2474267-.1036687-6.3719707-.1498545-2.5923823-.0564862-5.1834355-.2053438-7.7758179-.2266092-6.4093513-.0531634-12.7745104.4960814-19.1122572,1.447707-4.6630984.7000961-9.319219,1.4221221-13.8899459,2.605507-2.05593.532299-4.091093,1.1308861-6.0358781,2.0014374-.5819735.260667-1.1995001.4801323-1.6817922.8934781-.5000686.4289625-.9808655.4395952-1.574967.2694722-1.9829964-.5675197-3.9420692-1.1908611-5.7659075-2.174717ZM64.5452016,43.0803735c.1475285.5658584-.0561539.6291561-.5246567.6761725-3.3439805.3362588-6.6995904.3875947-10.0552004.461359-7.8874611.1732796-15.7603022-.0551571-23.6160314-.8105763-2.3659393-.227606-4.7350351-.4228155-7.1024696-.6328111,2.0295144-.9810316,4.1683461-1.577459,6.3409033-2.0585881,4.114352-.9110885,8.290008-1.3795913,12.4869294-1.6676707,2.9234909-.2003597,5.840004-.5278133,8.7759551-.5141902,3.2964656.0154506,6.5726627.3852688,9.8594925.5693472.9964823.0558216,1.9952904.1030042,2.9927695.1025058.5362862-.0003323.7693747.1098157.6592267.715879-.1927175,1.0591154-.0850615,2.1278667.1830816,3.158573ZM64.0544365,38.407307c-6.6417752-.4525538-13.2911926-.5743313-19.9399455-.2339191-6.2875738.3219711-12.5346104.9718942-18.5816196,2.873484-.6462681.203184-1.2933668.4263043-1.9032512.7173742-1.2410341.5924401-2.5003431.6597251-3.843883.424643-2.2390116-.3914158-4.4449621-.9293634-6.6668617-1.3953742-.1006783-.0210992-.1953756-.0716045-.3688214-.1373943,1.4928959-.7805058,2.9962583-1.3443705,4.5205539-1.8487587,4.1867871-1.3859045,8.5108024-2.155113,12.8575783-2.814672,4.8933625-.7424607,9.8043354-1.3307474,14.7362414-1.7563872,3.4805441-.3007057,6.9624172-.2477084,10.4472808-.1727812,3.8666435.0830679,7.7336194.1511835,11.6005952.2267753.1249341.002492.249702.0177765.3658309.0264156.0584798.1550047-.0480132.2126538-.1222759.2774467-1.0448278.9130821-1.80872,2.0258594-2.3082902,3.3134115-.1535094.3960676-.3458946.5303053-.7931321.4997363ZM22.1046601,43.3621397c5.69314.5060495,11.3791362,1.085531,17.0895544,1.3794252,5.5025823.2830953,11.0045001.3154918,16.5105713.1147998,2.9316315-.1066592,5.8589435-.2804372,8.7865878-.4582024.3993904-.0242558.6688625.0448567.8595864.4459084.4452438.9375041,1.2207655,1.5673247,2.1034448,2.0675595.3141627.1779314.440592.3118368.1769346.6660382-1.462493,1.9643892-3.1823304,3.7099775-4.7234056,5.6064172-.2078358.2558491-.4889375.2272737-.758742.2359128-3.2509444.104001-6.5022212.1948772-10.0817821.1018412-3.7304122-.1277584-7.7902717-.1719505-11.8368402-.5537305-3.900203-.3681568-7.7271401-1.1436785-11.539125-2.0042617-3.0426102-.6871375-6.0895399-1.3623132-9.0886226-2.2278805-.7964548-.2299319-1.5691522-.540938-2.2170816-1.0838697-.7447866-.6243382-.8600848-1.386569-.2224558-2.1167356,1.2981848-1.4865827,2.9655232-2.3489934,4.9413757-2.1732218ZM40.7615392,53.942163c7.0222261.5754943,14.0544203.4962475,21.2502582.3816138-.5334619.7120578-.9893384,1.3299167-1.4561799,1.9393027-.1601549.2091649-.3570257.036716-.5289762.0041534-1.9198648-.3641696-3.8380682-.4691674-5.7473003.0505053-2.4518315.6675335-4.3047435,2.1637521-5.7047695,4.2377908-1.5711458,2.3275619-2.5694556,4.8750876-2.7864289,7.6970695-.1538417,1.9986131.4243107,3.7478565,1.8946121,5.1342594.4143426.3907513.3807831.6394565.0694447,1.0469875-.9024494,1.1812252-1.7821382,2.3808915-2.6428876,3.5931841-.3066866.4317868-.5087077.4774742-.9006219.0674511-2.6442167-2.765828-5.2135061-5.5981104-7.7191656-8.4903677-5.4828122-6.3286093-10.8446775-12.7597244-16.2688438-19.137676-.0656236-.0772531-.1227743-.1616501-.2835937-.3748023,7.0275424,1.36331,13.8027246,3.2752003,20.8244523,3.8505284ZM48.9291052,74.3396464c-.9360088,1.7695119-2.151458,3.3454757-3.425387,4.8809023.8732095-1.8128734,2.1451449-3.3499614,3.425387-4.8809023ZM46.6804577,67.8767994c.38178-3.8204578,2.0492845-7.0272101,5.2337747-9.3054297,2.0188817-1.4442181,4.2650371-1.991137,6.7520893-1.5914144,1.7427641.280271,3.4724034.5809767,5.1292753,1.2068101.5573855.210494,1.091678.4708287,1.564002.8404808.3694859.2892423.6037373.6434438.5633663,1.1431801-.4372693,5.4135336-2.7121662,9.7186094-7.5855924,12.3987114-1.896938,1.0431664-4.0221466,1.2832326-5.7379967,1.4315918-4.039757.0470164-6.2955483-2.3553066-5.9189185-6.12393ZM62.3842738,56.3473103c-.2221235.2578427-.5344587.2526925-.7424607.083234-.2294335-.187235.0511698-.3826106.1666342-.5271487,1.6568719-2.0737065,3.3260378-4.137611,4.9872292-6.2078286.4384323-.5465866.9016187-1.0800485,1.2772517-1.6683352.3674923-.5754943.7549209-.6635462,1.3329072-.2164749-2.4187704,2.7314379-4.517065,5.6766926-6.8981227,8.3906863-.0420323.0478471-.0817388.0976878-.1234389.1458672ZM66.3783435,44.2275409c4.8318923-.4231478,9.5116042-.8408131,14.161744-1.6299579-1.9097305,2.5181196-4.2577271,4.2421104-7.5372469,4.3208587-2.5192826.0604734-4.7745754-.5632002-6.6244971-2.6909008ZM67.0724587,43.3810792c-1.1456722.050173-1.3114756-.1069914-1.548053-1.2606381-.4877746-2.3797285.0762563-4.4962981,1.7666876-6.2244422,2.572446-2.6297629,5.776374-3.9404078,9.41591-4.2490881.3625082-.0307351.560542.0249204.6093859.4738192.2764499,2.5442029,3.0927832,3.1007577,4.6511366,2.0084151.2915682-.204347.5857947-.4048728.9466415-.6540765.3929111,2.7997197-.015949,5.3447534-1.3903901,7.7133508-.1204484.2076697-.2310948.3659971-.5062156.4163362-4.6165803.8443019-9.2481129,1.5709797-13.945103,1.7763235ZM79.8396591,32.4775896c.4071987.5525675,1.0302078.4067003,1.566494.5156854.0431953.2837599-.1953756.3236324-.3447317.3824445-.7426268.2933957-1.4968831.2890762-2.235855-.0126263-.4470713-.1824171-.7152144-.5200049-.7419623-1.0217349-.0260833-.490765.2983798-.7064092.6768371-.8968008.4930909-.248373.9599324-.4186621,1.473458-.0106327.3211404.2551845.73432.3115045,1.1461706.3301117.1980338.0089713.4326175-.0613041.5926062.1869027-.61437.5416026-1.4593365.1363975-2.133017.5266503ZM62.6971074,151.5769893c4.9887244.2852551,9.8709559,1.1214163,14.5574794,2.907708,2.5242667.9622583,4.9885583,2.0541025,7.1508151,3.7187827.4389307.3379201.857925.697604,1.1788993,1.1556403,1.1739152,1.6761436,1.1265666,3.3595972-.1682955,4.9878938-.9830253,1.2362161-2.256622,2.1290297-3.6275742,2.8683338-4.4029298,2.3747445-9.0700154,4.0389263-13.9786624,4.9867308-7.7113572,1.4889086-15.3426369,1.0396776-22.8964974-1.0534668-2.5960373-.719534-5.2336085-1.2970218-7.7605334-2.2513056-1.6922588-.6389581-3.3497952-1.3659682-4.7569651-2.5319089-.9135805-.7572468-1.6467376-1.6623544-1.8198511-2.8994012-.017112-.1226082-.0023259-.2498682-.0023259-.3664955.1636437-.0453551.2221235.0493423.2689738.143209.7823333,1.5646665,2.1217197,2.5202794,3.6340535,3.2575899,3.3072645,1.6125136,6.8524353,2.490375,10.4187054,3.2855007,3.113384.6942813,6.2603275,1.1830527,9.4481404,1.3634761,1.5304426.0865567,3.0598883.0716045,4.5624201-.3041946.2445518-.061138.5013977-.0928699.6798275-.3483867-.2242833-.2038486-.4992379-.1800912-.7602372-.2091649-1.8618834-.2070052-3.7400481-.0053163-5.6019315-.2405646-5.8720682-.7419623-11.6805065-1.7371154-17.0839058-4.3191973-1.347361-.6439422-2.6435521-1.4126523-3.5622828-2.6236158-1.1911934-1.5703152-1.1592953-1.6816261-.0066454-3.2120687,1.1996663-1.5925773,2.8944171-2.6000246,4.6154174-3.5479952,3.041115-1.6754791,6.3595105-2.5837433,9.6724236-3.5067935,1.2671174-.3532046,2.5353977-.7044156,3.8114865-1.0220672.2423921-.0604734.5826381-.3718118.7740265.0019936.1890625.3691536-.2372419,1.0262206-.6396227,1.1097868-1.0596138.220296-2.1222181.4273012-3.1771802.6675335-3.629734.8263592-7.2076336,1.8125411-10.5080865,3.5960084-1.6038746.8665641-3.0479266,1.9389704-4.1098663,3.4551253-.4389307.6264979-.4972443,1.2948621-.1558353,1.9854884.0744288.1503529.1754394.3380863.3658309.2965523.1648067-.0358853.1747748-.2417275.1523465-.3821122-.2211267-1.3880642.6592267-2.2079442,1.5525386-3.013038,2.2936702-2.0670611,5.0561756-3.2534365,7.9554106-4.1514002,2.5747719-.7974516,5.1975571-1.4241157,7.8092111-2.0893232.5065479-.1289213.60706-.0373805.4545474.4591992-.2425582.7904739-.4754805,1.5875933-.6492585,2.3953453-.2325901,1.0802147-.057483,1.3257633.9835237,1.7062142,1.2619672.4611929,2.5767656.5542289,3.8948866.5116981,1.8259981-.0586459,3.6500025-.1865705,5.4738408-.3008719.6414501-.0402049,1.2553218-.2184685,1.822177-.527481.9964823-.5427655,1.2915394-1.4407293.8340015-2.4775825-.3533707-.8009405-.9836898-1.3654698-1.7656908-2.025361,2.3162647.0194379,4.4441314.2332546,6.5638575.5557241,4.1399369.6298206,7.9324839,2.1459755,11.4080439,4.4672243.6371306.4256398,1.2179412.9250439,1.7357864,1.4945572.6992654.7688763.7579113,1.4822632.1757716,2.3611213-.4532183.6844793-1.0606107,1.210299-1.7361186,1.6670062-2.8508895,1.927507-6.0425235,3.0640417-9.3079218,4.0390925-1.6261368.4854487-3.3154051.745285-4.8970175,1.3855722-.2302642.0932022-.4573717.1943788-.6725175.3581887.7544225.0744288,1.4839246-.0937006,2.1996374-.2591718,4.1136874-.9509611,8.066057-2.3438432,11.7723796-4.3916325.9167371-.5063818,1.7693458-1.1028091,2.4780809-1.8779986,1.1599598-1.2689449,1.1712571-2.5701201.0516682-3.8774424-.7295021-.851778-1.6369356-1.4850875-2.6076668-2.0197124-3.9545294-2.1777075-8.24349-3.4737325-12.5673391-4.6431621-1.517484-.4106876-3.1293331-.2408968-4.6963255-.3588532-.2103279-.015949-.4213203-.0220961-.6389581-.0870551.5479157-.2033502,1.1169307-.3028655,1.6989042-.2694722ZM61.1502174,155.7054628c.3620098-.2731272.6726837-.5871238.719534-1.1622857.7688763,1.0662593.5545611,1.9607342-.5294746,2.4478442-1.0461568.4703303-2.1695668.5509062-3.2954688.5801461-1.676642.0438598-3.3476355-.0279108-5.0116512-.2588395-.3505464-.0486778-.5799799-.1287552-.4939216-.5394428.0847292-.4045406.3415751-.4296271.6711884-.3091786,2.0919814.7638922,4.192768.7211953,6.2975419.0594766.5894497-.1854075,1.146669-.4435825,1.6422519-.8177202ZM58.9108736,145.9087696c.1636437,2.7729719.8491198,5.4494189,1.7394413,8.0695459.2108263.6210155.0646268.9069351-.5175129,1.1493271-1.0202397.4248091-2.0781922.584964-3.2055894.6220123-1.0838697-.0877197-2.2120976-.1109787-3.2933091-.483455-.2287689-.0789145-.3739716-.1289213-.2782774-.4326175.915408-2.9110307.729336-5.8782153.405039-8.8453998-.2103279-1.9251811-.3060221-3.8548479-.3281181-5.7890004-.0817388-7.1862021-.4912634-14.3559567-1.156471-21.50943-.5060495-5.4412782-.7223583-10.8945182-.9250439-16.3520778-.1428767-3.8420555-.4256398-7.679293-.6642107-11.5175273-.0235913-.3809493-.0508375-.5248228.4321191-.4166685,2.0489523.4591992,4.0528817-.0091375,6.0571435-.3804509.3129998-.0578152.6251688-.1224421.9343475-.1977015.4974104-.1212791.6050664.069777.4670076.5256535-.5854624,1.9344847-1.0129297,3.9016982-1.232395,5.913436-.4268028,3.9144906-.4975766,7.8439335-.5075447,11.7763668-.0099681,4.0854443.4140103,8.1463006.671853,12.2169588.2282705,3.6048136.4123489,7.2126176.6068939,10.8194249.2666479,4.9438678.5025607,9.8893969.7946273,14.8316033ZM95.7481544,41.9481583c-3.9809449,5.1982216-7.4923903,10.7305422-11.3949191,15.9839209-1.6259706,2.1885063-3.572251,4.1017256-5.3625299,6.1490165-3.5398545,4.0482299-6.9735483,8.1813552-10.2808128,12.4254592-2.3960099,3.0745083-5.1927391,5.7888342-8.2519629,8.2169083-.9183985.7288376-1.9231875,1.3262617-3.0057281,1.7824705-2.7103387,1.1423494-5.3464147,1.0700804-7.8401124-.5778202-3.5172601-2.3244053-6.6259923-5.1332625-9.3162286-8.3616125-4.5323495-5.4389523-9.3572641-10.6210588-13.9123742-16.0387457-1.1079593-1.3177888-2.3491596-2.5189503-3.6066411-3.6950253-4.1869533-3.9159859-7.8351283-8.3225706-11.5838155-12.6394421-1.239705-1.4274384-2.5634747-2.7819432-3.8448798-4.1733302-.2138167-.2320916-.407531-.4824582-.5826381-.791803,4.2301486,1.3347347,8.5159526,2.3571341,13.1074465,2.7900839-.6509199.3502142-1.1496594.6073923-1.6377663.8835099-.7084029.4007194-1.359655.8742063-1.8218447,1.5623406-.5435962.8095795-.544593,1.4315918.0016614,2.23951.4063681.6017437.8869988,1.1473335,1.424448,1.6292933,3.0977673,2.7786205,5.6936384,6.0181016,8.4220859,9.135639,5.3480761,6.1109715,10.5024379,12.3830946,15.5674186,18.7298127,1.4744548,1.8477619,3.1205279,3.5393561,5.0111528,4.9760981,1.7876207,1.3584921,3.7402142,2.35215,6.0001589,2.6136477,2.5996923.3007057,4.82425-.6195202,6.8879884-2.1203906,2.3857094-1.7351218,4.387313-3.8261064,5.9679286-6.3073439,4.2705196-6.7045745,9.3358326-12.8015906,14.3926727-18.906415,2.9997472-3.621261,6.3267818-6.9429793,9.4936616-10.4112293.1342377-.146864.3178177-.2664818.3741377-.5477496-.5123627.0533296-.8836761.2922328-1.2446891.5381137-.8845068.6024082-1.6327822,1.3573291-2.3531468,2.1408253-3.5114453,3.8207901-6.8135596,7.8148598-10.0031999,11.9082786-2.5074869,3.2177173-5.2351038,6.259663-7.6784623,9.5318728-1.5648327,2.0958025-2.9291395,4.3288332-4.4737036,6.4370959-1.6452424,2.2454909-3.7343995,3.9975585-6.0983451,5.4371248-2.8332792,1.7253198-5.6761942,1.6066989-8.5191092.0179427-1.0637672-.5945999-2.0054247-1.3516805-2.9067112-2.1665764-.263159-.2380725-.3505464-.4186621-.1016751-.7359814,1.1928547-1.5218035,2.3677668-3.0575624,3.5436756-4.5926568.129752-.1691262.2583411-.2339191.4831228-.2026856,4.9538359.6904602,8.9899379-.9466415,12.2506844-4.7195845,2.1346783-2.4697741,3.3494629-5.3484083,4.0188239-8.4785721.4570395-2.1366719-.1900593-3.2605803-2.1782059-4.1911067-.3826106-.1790943-.7688763-.3498819-1.2124587-.5514046.8389856-1.089186,1.6515555-2.1426528,2.4621319-3.1976149.2060083-.2683092.528644-.2543538.8074198-.3209743,5.0156384-1.1996663,10.0352641-2.3840481,15.0505703-3.5865387,1.1445092-.2744563,2.2976575-.5381137,3.3512904-1.1202534-6.1468568.8718804-12.1139547,2.6053409-18.3656431,3.8284323.3462269-.4334482.5841333-.7499368.8414776-1.0501441.8717143-1.0165847,1.7504063-2.0270223,2.6257756-3.0402843.1651389-.1912223.2990444-.3668277.6228429-.3400799,3.945558.3252938,7.2642859-.9848528,9.7468524-4.0640128.9554467-1.1848802,2.0227028-1.7871223,3.4906783-1.9597374,1.3247665-.1555031,2.6322549-.4701642,3.9404078-.7466141.3673262-.0775854.4847841.0192717.5490787.3704827.1453688.7951257.3453962,1.5789542.7982823,2.2670885.102838.1560015.2315932.3628405.440592.309677.2322578-.0591443.1747748-.308348.18358-.4914296.0312335-.6545749-.1975354-1.2533281-.418496-1.8507523-.298546-.8067552-.3038623-.80526.5495771-1.0614413,2.0316741-.6100505,4.1223265-1.0159201,6.1144603-1.7628665.5897819-.2209606,1.1782348-.4449116,1.7673522-.6675335-.632645,1.3099804-1.4427229,2.4541574-2.293338,3.5651072ZM88.2860009,26.5641536c1.9780123.2922328,3.97729.3329361,5.9669318.4887714,2.2300402.1747748,4.4351601.4621897,6.4982339,1.4048439.6399549.2923989,1.247015.6426131,1.7543936,1.1386945.8836761.8640721,1.0636011,1.8966058.5382798,3.0259966-.8855036,1.9032512-2.3066288,3.2873282-4.1537261,4.2454331-3.0419457,1.5779574-6.3241236,2.442694-9.6438483,3.1730268-2.1723911.4779726-4.3617281.8800211-6.6961016,1.3465303.6181911-1.2769194,1.136867-2.4411988,1.2627979-3.7270895.1824171-1.8676982.1684617-3.7320736-.2013565-5.5791709-.050173-.2498682-.0518344-.4229816.1239373-.6303191,1.2915394-1.5223019,2.5722799-3.0539074,3.8460427-4.5909954.1947111-.2347498.3864318-.3425719.7044156-.2957216ZM83.4987991,30.5083825c-.2291012.2892423-.4188282.6414501-.769707.7594065-.2465455-.0224283-.4356079-.0802436-.5512384-.2438873-.1495222-.2123215.030569-.3615114.1528449-.4954168,5.1239589-5.607414,9.4335204-11.8660801,14.1959679-17.7627365,2.231037-2.7625053,4.7172586-5.3017242,6.9637463-8.048945.6457697-.7896432,1.2709385-1.5959001,2.0285176-2.2856957.2063406-.1878995.4196589-.4321191.7065754-.1794266.2591718.2284367.1227743.5023945-.0139554.7534256-.3297795.605731-.8308449,1.0704127-1.2814051,1.5784558-4.059361,4.5768739-8.318085,8.9819634-12.0129441,13.8734984-3.0735115,4.0686646-6.2528514,8.0545936-9.4184021,12.0513215ZM59.766805,161.2279814c.2249478.0523328.4500618.0925376.6967734.2882455-.3050252.2183024-.6087214.2292673-.9100917.2452164-2.1069336.1103141-4.2042314-.0692786-6.3028583-.2093311-1.2490086-.083234-2.4877168-.0508375-3.8591674.2922328,1.3491885.8999574,2.7118339,1.3611502,4.173164,1.5056883,1.456346.1442058,2.9196697.2148135,4.3829935.3605146-.7888126.3482205-1.6314531.3900868-2.4654546.4322852-1.9613987.0990169-3.8447136-.2339191-5.6349925-1.0715756-.4482343-.2096633-.7944612-.4947523-.9788719-.9451463-.1754394-.428298-.4950845-.6461019-.9087626-.8168895-.8818486-.3641696-1.768349-.7296682-2.5427077-1.3048302-.5158515-.383109-.9517917-.8275222-1.133212-1.6962461,1.0140926.8256947,1.9044142,1.5091772,2.9329606,1.9816673,1.1011478.5057172,2.1680716.8549346,3.4650934.6178589,2.1669086-.3959015,4.3632233.0470164,6.5470778.1269277.8471262.0309013,1.7017285-.001163,2.5380559.193382ZM65.012043,162.4494115c1.5748008-.9431527,3.4954963-1.29237,4.815611-2.8517202-.137062,1.2204333-2.2185769,2.4272434-4.815611,2.8517202ZM31.4300262,48.022746c.4264705-.5088738.9283666-.6751757,1.4292659-.832174,1.9599035-.6140377,3.9209699-.5548934,5.9008097-.0584798,1.80872.4538829,3.5890307,1.0222333,5.4311439,1.3450351,2.6114879.4573717,5.1563554.1081544,7.6791268-.5794815.6073923-.1656373,1.2199348-.313332,1.8470973-.414841-.8135668.5600436-1.734125.8567621-2.6646514,1.1127773-3.2414747.8919829-6.4674988.702422-9.6785706-.1785959-1.2465166-.3422397-2.4790777-.7383073-3.7609812-.9416575-1.626469-.2578427-3.2127332-.096691-4.7757384.4033776-.417333.1335731-.8484553.2475423-1.4075021.1440397ZM54.8584903,59.0531633c.0870551-.3214727.2731272-.5550596.6623833-.5733345.6585621-.030569,1.3111434-.0242558,1.940964.1925513.3515433.121113.7100642.3085141.6226768.7472786-.0777515.3912497-.4030453.5693472-.8115732.5643632-.1687939-.0021598-.337754.0131247-.5725038.023259-.4430841.0003323-.9537854-.0056486-1.4129846-.2644881-.2611654-.1475285-.5256535-.3327699-.4289625-.6896295ZM52.4176237,71.3430558c-1.2197687.2541877-2.3094531.2123215-3.2728744-.518842-.5688488-.4317868-.6110473-1.1146048-.1834139-1.6970767.1252664-.1704553.266814-.2953894.4764773-.1996952.2511973.1147998.0571507.2870826.019604.4301255-.1727812.6585621-.0272463.945977.6372968,1.1292247.4685028.1290875.9526224.2013565,1.4264416.313332.3060221.0724352.6140377.1563337.8964685.5429316ZM49.9614728,69.890697c-.1425445-.223951-.1681294-.3947386.1927175-.368323.532299.039208,1.0380162.1636437,1.484423.4663431.153011.1036687.3513771.2394016.2746224.4449116-.0707738.189727-.2990444.0616364-.4635188.1043333-.5567209-.0627993-1.1363686-.0928699-1.4882441-.6472649ZM87.4908751,34.8817401c2.5204455.4218187,4.9651332,1.1102852,7.3071489,2.1371703.4040422.1772669.8743725.3256261,1.0699143.8122377-.243555.1574967-.4381.0252526-.627827-.0425308-1.2181074-.4346111-2.4350518-.8718804-3.6480089-1.3197824-1.1749121-.4339466-2.35215-.8539378-3.5988327-1.039013-.2089988-.0309013-.4199912-.0764224-.6168621-.1501867-.1560015-.0586459-.4603622-.0350546-.3912497-.2928973.059975-.2244494.326789-.1350684.5057172-.1049978ZM73.5462706,45.1082265c-1.0142588.0674511-2.0323387.0446905-3.0052297-.3179838-.2126538-.0794129-.5060495-.1731135-.4658447-.4409243.0332272-.2219574.3337667-.2143151.5329635-.263159.4309561-.1056623.8642382-.0797452,1.3882304-.0544925-.1923852.3209743-.4495634.2852551-.6675335.4972443,1.409828.2003597,2.7216359.0410355,4.0204853-.314495.1427106-.0390419.2820985-.0898794.4241446-.1310811.1955418-.0566523.4593654-.1915545.5490787.0616364.0817388.2317594-.1962063.3419074-.376962.4357741-.7509336.3895883-1.5791203.4729885-2.3993326.527481Z"/>
  </g>
</svg>