<?xml version="1.0" encoding="UTF-8"?>
<svg id="Layer_2" xmlns="http://www.w3.org/2000/svg" viewBox="0 0 74.8207295 211.0278522">
  <g id="Layer_1-2" data-name="Layer_1">
    <path d="M74.6529863,192.3586802c-.6598756-3.5212349-2.923008-5.7574938-6.1088058-7.0985658-4.1089616-1.7296863-8.3818333-1.6198079-12.6449877-.7666218-6.4895539,1.2987508-12.0177162,4.5357327-17.0487026,8.7202246-2.7329009,2.2730631-5.0683244,4.9482306-7.5749192,7.4501981-2.2970889,2.2927821-4.6664335,4.4990354-7.4627628,6.1878955-3.5468625,2.142113-7.3448757,3.1591024-11.4942008,2.4601803-3.3392788-.5623839-6.0185752-2.0984749-7.6991775-5.1840759-1.3023814-2.3911993-2.2840972-4.8817411-2.8683001-7.5409626-.4195455-1.9097204-.2786292-3.7339797.5530939-5.5152772.5037607-1.0788872,1.0464967-2.1307942,1.7138826-3.1172795,2.2792208-3.3689641,5.3182293-5.9723387,8.4909286-8.4438734,2.3599478-1.8384257,4.7836087-3.5569,7.6629785-4.5202137,3.1470361-1.052868,5.9571401-2.7375281,8.6154361-4.6929154,2.7888545-2.0514197,4.9412542-4.5885897,6.0298585-7.9338482.608478-1.8697484.9201027-3.8000064,1.1414257-5.7449648.0444924-.3909636.1470741-.6792031.5165745-.8105091.7413501-.263395.9388251-.8493064,1.0711989-1.5573406.5529871-2.9576052.8100107-5.9533316,1.2033235-8.9312609.0337074-.2551728.0519671-.4872807.286887-.673864,1.5282604-1.2141797,2.3168792-2.8801885,2.8318875-4.7070818.7401755-2.6254784.9159382-5.3220379.9507491-8.0277094.0509705-3.96203-.0815813-7.9265871.1707796-11.8855559.0192207-.3014805-.0768473-.6397294.2390131-1.0073078.3342981,3.9914305.5213441,7.8763641.7447315,11.7668146-.1604218-14.7242063-.760642-29.456884.8668186-44.1456032.3464712,5.1276951.6807336,10.255497.7365093,15.4028043.0994494-.054779.1328365-.1098784.1337263-.1655473.0800863-4.9676649-.0948934-9.9268228-.4366306-14.8832399-.1713847-2.4856655-.4096504-4.9699429-.2820462-7.4715545.1531606-3.0028807.2296519-6.00957.3684326-9.0132693.2077261-4.495298.240864-8.9935503.2689832-13.4920161.0134901-2.1588778.6286953-4.0797034,2.1429673-5.6691853.8199058-.8605897,1.6167824-1.7432476,2.440924-2.5997084,3.4084734-3.5422709,5.6549122-7.7155507,6.7809613-12.4927881.3778294-1.6030076.5889013-3.2438515,1.426355-4.718543.4161641-.7328075.20826-1.5150906-.2811919-2.1688797-.2709053-.3618122-.3399219-.7310634-.3675428-1.1590803-.0795524-1.2319766-.1500639-2.4676906-.3092755-3.6908399-.7724236-5.9345024-3.3273904-11.034897-7.2083019-15.5482767C42.3738251-.1959327,31.307214-1.956301,21.7403169,1.9616993,12.3087835,5.8242798,6.0430085,12.7730308,3.5319289,22.8268527c-.8412978,3.3685014-1.31039,6.7687882-.6335361,10.2379136.9902939,5.0757636,3.5574695,9.3634779,6.6856052,13.3654442,1.2652213,1.6187045,2.7490961,3.0431374,4.1629932,4.5288987.1430164.1502775.402496.4249202.3685394.4731499-.5071777.7197446.1909614,1.1249457.4518292,1.5730731.4562784.7838492.7632047,1.5878802.858988,2.4809315.4323593,4.0311889,1.084333,8.0306281,1.7322135,12.0308503,1.12071,6.9196708,2.1780629,13.8492011,3.1491361,20.7914028.5775113,4.1287874,1.1039809,8.2647293,1.6608833,12.396471.1431231,1.0620157.3144722,2.120294.4728652,3.1802808-3.9135866-15.9638356-6.8349573-32.0804047-7.6909198-48.5252921-.0441365.6059508-.0391533,1.2108694-.0449195,1.8156456-.0483009,5.0703889.5371122,10.0942565,1.110281,15.1187649.7499994,6.574659,1.8155033,13.1007322,3.0271202,19.6043813,1.6117637,8.6515995,3.6906975,17.2110108,5.1659586,25.8879177,1.0768227,6.3333678,2.2972313,12.6629271,1.889325,19.1482453-.0353092.5612093-.0046628,1.126583-.0046628,1.8098082-2.3290523-6.2797634-3.4831494-12.6692272-3.780501-19.2327097-.04435,3.1851216.1975106,6.3390628.6359921,9.479514.5051133,3.6173385,1.5443132,7.0810536,2.8476912,10.4873557,1.5130262,3.9541993,2.7602726,8.0127243,4.7202515,11.7873523.1193464.2298655.1990412.4948622.4788094.6263105-1.7877044-3.7634871-2.7826611-7.8088068-4.3792974-11.7269851.1583217.0622182.2150228.0662759.2349554.0954629.0912628.1336552.1768662.2717595.256205.4129606.7304227,1.299961,1.408558,2.6390041,2.6691521,3.5391386.2162686.154442.2124601.3984739.2572728.6255631.5949879,3.0145199,1.2607009,6.0134853,1.9226054,9.0138744.3051822,1.3833931.9080008,2.1687373,2.3585596,2.1549624.4484477-.0042357.4754635.250332.4397272.5916777-.1066038,1.0191606-.2233874,2.0359008-.366119,3.05168-.3140451,2.2354047-1.2814522,3.9422397-3.3491739,5.0697482-3.7179981,2.0275006-6.9927807,4.7086835-10.2686311,7.3630642-2.2106669,1.7912638-4.4864707,3.3722388-7.3226651,4.0285194-2.5337885.5862674-4.7581947,1.8498158-6.826913,3.4061954-2.986116,2.2465456-5.1709417,5.0498156-5.9190902,8.7764986-.7025883,3.499843-.4939368,7.0521513-.3955552,10.5913256.008329.2997008.0669877.6041355.1450096.8949022,1.3688708,5.1007149,4.5450583,8.6015545,9.4990195,10.3653042,4.0871782,1.4552217,8.1747479.9831751,12.1731904-.5020166,5.0875096-1.8896098,9.2980918-5.0631989,13.0039168-8.9641141,3.180174-3.3476078,6.3726279-6.6790915,10.1721004-9.3571777,4.1237331-2.9066703,8.4824928-5.2525586,13.6208305-5.7078047,3.130734-.2773478,6.1952278.0054815,9.0574414,1.4490283,3.5896464,1.8103421,5.5231791,5.3256685,5.1520769,9.2896205-.3180672,3.3976528-2.1229991,5.844521-4.8876853,7.6707024-2.848759,1.8818147-6.021921,2.7807747-9.4012074,3.0319253-.2445658.0181529-.6350666-.0459873-.6641113.2288689-.0357719.3385693.3821007.3468271.6315428.4138861.9351945.2515066,1.8937743.2626831,2.8460539.1488538,5.2468991-.6273072,9.0950997-3.3739117,11.6840588-7.8993221,1.3359464-2.3352456,2.02177-4.8797123,1.5138448-7.5902246ZM38.1936756,145.7001821c-.1614896,1.2801352-.3371812,2.5584551-.5084235,3.8373445-.0537468-.0014949-.1075292-.0029899-.161276-.0044848.0754591-1.2960813.148747-2.5923405.2292248-3.888137.0095748-.1541217.0030611-.3741632.2231739-.3693225.2739308.0059086.2386216.2557779.2173009.4245998ZM41.231118,118.8381658c-.1739831,5.2101306-.7172886,10.4013253-.7857357,15.6180407-.0212852,1.6211249-.2126381,3.2351666-.9050465,4.7485131-.23193-7.6660396.9870905-15.223233,1.6945907-22.8193662,0,.8176634.0234564,1.6360743-.0038085,2.4528123ZM42.6107026,52.7669597c.6602315-.7562283,1.2428328-1.4302347,1.8329799-2.0975495.5539837-.6264529,1.147797-1.2208001,1.6631969-1.8770807.3394592-.4322169.664752-.5787215,1.1731399-.3334794.2855344.1377485.6044915.2062667.9165433.3085992-1.2284528,1.941221-3.605023,3.6713344-5.58586,3.9995103ZM14.9791102,47.2198259c.5552651-.4586276,1.1086081-.9196044,1.6658664-1.3757404.0694081-.0568435.1580014-.090195.2554931-.1442977.1477503.120521.3015872.2263061.4321101.3556188.9773021.9684037,1.7849281,2.0799305,2.6481873,3.1447581.1647642.2032413.1703525.3381066-.0517891.5062167-.5744502.4347085-1.1438461.8774612-1.694306,1.3417838-.243498.2054125-.3985807.1396705-.5818537-.0580537-.9655562-1.0416204-1.8101642-2.1815511-2.6900814-3.2929355-.137001-.173022-.1703525-.3231216.0163732-.47735ZM14.4248774,46.4661959c-.2395115.2122109-.3778294.1764746-.5472565-.0730031-.9159382-1.3486535-1.7859247-2.7213328-2.4131607-4.3691888,1.2886065.2878836,2.4089962.6855032,3.4913004,1.1447003.6480228.274963.8607321,1.063475,1.263584,1.624186.100446.1398129-.0874543.2389064-.1890393.3242962-.5350833.4498359-1.0824466.8856122-1.605428,1.3490094ZM45.1980243,42.8229806c-.6840795,1.0003314-1.5103922,1.8854453-2.30015,2.7999598-.1427316.1652626-.2812631.2849293-.5325206.1708864-1.1802587-.5356172-2.395257-.9964873-3.7401019-1.7251659,2.4485411-.5184254,4.6151427-1.2429039,6.8417913-1.9667774.0615063.3459017-.1390298.5310256-.2690188.7210971ZM46.2542026,42.3096808c.181351-.243498.4157013-.4401544.6893474-.5820317,1.4849782-.7699676,2.9701343-1.5395792,4.6157122-2.392445-.2749274.8584897-.6627943,1.4382078-1.0384169,2.0177123-1.2426192,1.9169459-2.6197478,3.7364713-4.0299075,5.5325403-.2537134.3231572-.4677752.4306508-.8615151.2435692-.6081576-.2889158-1.2399852-.5294951-1.868289-.7737761-.310023-.1205566-.307923-.2602983-.1232617-.5072845.8783867-1.1747416,1.7401509-2.3618699,2.6163308-3.5382844ZM42.0311269,46.539021c-1.1144455,1.4088784-2.4198168,2.5274172-3.7276796,3.6437136-.1790374.1528047-.3387829.0914052-.5058607-.020075-1.1031622-.7363669-2.2041888-1.4759729-3.3134376-2.2030854-.3773667-.2473777-.1403824-.3855889.0592995-.5635229.8707696-.7760186,1.79703-1.4787848,2.7653981-2.1277687.1839494-.1232973.4145623-.1927055.5609957-.4895943-1.0958655.2668476-1.9613315.8432555-2.8067582,1.4446147-1.4481385,1.0301591-1.4424078,1.0407305-2.8830004.0227445-.4908045-.3467915-.9759852-.7014849-1.5613627-1.1228457.5378953-.1990056.9981246-.1609557,1.440379-.2089363,1.6890381-.1833799,3.3793931-.3546578,5.0683956-.5382868.2579491-.028048.5097761-.0633928.7514943.0589791,1.3665928.6917322,2.7326517,1.3846033,4.1521371,2.1040631ZM32.5207173,47.6609769c.2740376.2103956.2040599.3401711-.0152698.529851-1.0027518.8672102-1.9872795,1.755136-3.0592259,2.5399818-.3031178.2219281-.5318087.2839683-.8419741-.013063-1.1583328-1.10932-2.3399084-2.1943293-3.6022822-3.3719184,1.420482-.7133733,2.7294838-1.3616808,4.0279499-2.0304193.2661713-.1371078.4501207-.0324617.6333937.1100564.9546644.7424179,1.8982235,1.499109,2.8574084,2.2355115ZM24.5120863,46.5855779c-.1390298.0537468-.2753901.0607232-.3918178-.0466992-.5398529-.498208-1.0706294-1.0046027-1.5073311-1.6978298,1.8477158.1258601,3.5983669.2532863,5.3830814.3975129-1.1613227.4489817-2.3226454.8979633-3.4839325,1.3470161ZM23.3106137,46.7937311c.2404725.2477337.2442099.3944518-.0592283.5802164-.6346751.3886144-1.2646518.7867679-1.8764756,1.2100864-.3567222.2468438-.6238902.2155923-.9045126-.1068529-.9152619-1.0516578-1.8413445-2.0939545-2.8102464-3.1931658.7474722-.3597477,1.4035393-.6231427,2.087156-.7250481.8577066-.1278533,1.694306-.1231194,2.2681511.7745236.3464.5418462.841547.9929279,1.2951558,1.4602404ZM16.5394407,43.5597391c.6876389.1251126,1.3042679.1955886,1.9045948.4267355-.9904363.6884575-1.4729474.5990812-1.9045948-.4267355ZM20.4662327,50.6635016c.3378219-.2830784.5346562-.2108228.8018953.0724692.8438606.8945819,1.7163742,1.7621836,2.5556076,2.66093.160137.1715271.5949879.3328031.3246877.6345327-.249371.2783088-.507854.639765-1.0493442.4993826-.9701478-.2515422-1.9004659-.5863742-2.8042667-1.0144266-.7059341-.3343337-1.4282771-.6340344-2.2221638-.983887.8630813-.6686673,1.6484966-1.2447192,2.3935841-1.8690009ZM21.7146181,50.0778749c-.1447605-.16391-.1198091-.2766715.0455958-.3969433.7908256-.5751621,1.5791953-1.1536344,2.3687751-1.7304694.1761187-.128672.3315217-.1187769.4931537.0428907,1.1036605,1.1038741,2.2123754,2.2027295,3.3179936,3.3046815.047945.047767.0814389.1100208.1399909.190819-.0860305.0765981-.1620235.1635896-.2552084.2242061-.7804678.5078184-1.5693002,1.0029654-2.3440373,1.5193619-.2811563.187402-.5156135.15462-.7606064-.0424991-1.1326696-.9112754-2.0498536-2.0299922-3.005657-3.1120472ZM26.2367183,53.9519879c.8161685-.5348342,1.639171-1.0593461,2.4479004-1.6051432.2200772-.1485334.3732022-.090978.5608889.0381211,1.0120774.6961102,2.0291379,1.3849949,3.1049996,2.1175888-.8619067.58043-1.7739652.7141207-2.7163141.706468-.6275207-.0050899-1.2550059-.0605808-1.8821707-.0546011-.7148326.0067984-1.0875365-.5652314-1.600872-.8961836-.1873664-.1208413-.0286887-.231396.0855678-.3062501ZM29.6740583,51.5792263c1.1808637-1.0351779,2.3334659-2.0411687,3.4793409-3.0548122.1708508-.1511318.3284607-.1430519.5033336-.0394737,1.179618.6987442,2.2906109,1.4998564,3.4133853,2.2837412.2422522.1691067.1494944.2892362-.0170851.4259168-1.1320289.928752-2.318908,1.782045-3.5417014,2.5868234-.290304.1910681-.5331257.057413-.7777627-.075993-1.0827669-.5903607-2.0473976-1.3487602-3.0595106-2.1262026ZM35.0845471,54.2620109c.9822497-.7829594,1.9799828-1.5465556,2.9573917-2.3353524.2820106-.2275875.5495701-.290304.8977141-.1900715.9850616.2835767,1.9117136.6974628,2.9556832,1.2335072-2.3844008,1.1967386-4.7956395,1.7851417-7.4005802,1.925702.1300958-.3420219.3857669-.4711211.5897912-.6337853ZM41.7526045,52.0954449c-.813321-.3864787-1.6407015-.7432721-2.5526889-1.1517123,1.287254-1.1304984,2.4539869-2.2309555,3.4675949-3.4811206.1624862-.2003937.3017652-.2985262.5844877-.1746949.742845.3252928,1.5037718.6092255,2.3251725.9366183-1.0341456,1.3538502-2.0697506,2.6295005-3.2694079,3.766121-.1632337.1546912-.3155757.2186534-.5551583.1047885ZM54.4290572,39.9593077c-1.3271903,2.8429216-3.0482274,5.4281433-5.1436056,7.7637093-.4442833.4952537-1.3906543.5042946-1.8629856.0245954-.0963527-.0978833-.1176735-.1922071-.0540672-.3068551.0337074-.0607588.0723624-.1204854.1179582-.1726305,2.0861594-2.3853263,3.4590879-5.2270733,5.0585361-7.9226361.7501774-1.2642959,1.9860693-1.9851439,3.0950689-2.8742799-.2226043,1.2449684-.6923728,2.3773888-1.210905,3.488097ZM48.9965714,19.8968683c-.7791152.8327908-1.5676628,1.65679-2.3440729,2.4920724-.2069074.2226043-.3293861.271724-.4983504-.0500095-.9619968-1.8320188-1.895554-3.6813363-3.0830026-5.3841493-.1304517-.187046-.1135446-.3260759.0453111-.4868892.8506946-.8612304,1.7007485-1.7232794,2.5368496-2.5985694.2439607-.2553508.3986163-.1477859.552204.0695505.268129.3795023.5512786.7510316.7877645,1.1498614.7833153,1.3210682,1.4488859,2.7045325,2.121433,4.0838679.050579.1037207.0934696.2111787.1545488.3500306-.0862441.1198447-.1657253.2599068-.272685.3742344ZM49.5098713,20.8661618c.2910514-.3332302.4200082-.2453133.5596431.1025461.6847558,1.7058028,1.2000489,3.4672389,1.7357729,5.2224817.0736438.2413267.0065493.3958755-.1559014.5545888-.8135701.7948121-1.6235097,1.593326-2.5006861,2.4553751-.6741844-1.7891282-1.3539214-3.5168568-2.1240669-5.2065-.1116225-.2448861-.0097171-.3796091.1407739-.5431632.7876578-.8562116,1.5792664-1.709291,2.3444644-2.5853285ZM9.0804509,32.2201226c1.9338174.4215387,3.2327106,1.6141129,4.1516031,3.3069239.2426793.4470596.5515633.8581693.9164365,1.4184175-3.1029352-.7784033-5.5255639-2.1894885-6.7087056-5.2551925.6055949.06083,1.0920925.4102911,1.640666.529851ZM6.5595118,30.4013803c.639943-.3720632,1.2181306-.6988865,1.7859603-1.0429017.2274807-.1378196.3877601-.0766337.5478616.0982392.7528825.8220771,1.3429584,1.7567733,2.0635217,2.8566609-1.652234-.4844688-3.0684091-.979509-4.3973435-1.9119984ZM11.5380684,31.6433588c-.4361678-.8603049-1.0935875-1.6136858-1.6913517-2.384472-.2693036-.3472542-.1895376-.4818348.1657965-.6523653.9849904-.472794,1.9986696-.8737239,3.009608-1.2844776.3434457-.1395281.5511362-.0720421.7809305.1916732,1.3314972,1.5279044,2.4746314,3.1968675,3.6556731,4.8378538.2238145.310984.0897323.3884008-.220006.4133165-.7874086.0633928-1.5738206.1394926-2.3606241.210538-.0006407-.0067984-.0012814-.0135969-.0019221-.0203597-.1856579.0115324-.3711734.0295785-.5570092.0335295-1.1531005.0246666-2.163683-.1273906-2.781095-1.3452365ZM14.6340984,26.8265766c1.6045381-.6891694,3.1391342-1.3439907,4.6693167-2.009063.3196334-.1389231.4792365.0736438.6468838.2573084,1.4598133,1.5993414,2.7455367,3.3410229,4.1038361,5.0235117.2331046.2887023.0940391.3770819-.1626642.4899147-1.4714881.6466703-2.9961535,1.1303916-4.552533,1.5228857-.284431.0717573-.4973894-.007012-.6856456-.2149161-1.4363213-1.586314-2.6809337-3.3214462-4.0191938-5.0696414ZM26.2371454,20.3311853c-.2500117.1499216-.4557089.2047718-.6769251-.036199-1.1489716-1.2515177-2.2986907-2.5023591-3.4563828-3.7457613-.2288689-.245776-.0914052-.3379286.1215176-.4590191,1.4758661-.8392689,2.9506288-1.6805667,4.4182016-2.5342156.2777749-.1615608.4821196-.0872763.6883507.0992358,1.2441141,1.1250881,2.3366694,2.3921959,3.4979565,3.6504764-1.5363046,1.0765024-3.0365881,2.0923883-4.5927185,3.0254828ZM31.0456699,18.2029895c.2539982-.1655117.4308999-.1901427.659662.0455602,1.3012424,1.340716,2.3931925,2.851571,3.5404912,4.3175776.0427127.0545655.075032.1172464.1326941.2085803-.0842864.0929713-.1664372.1981513-.2628967.2879548-1.2811674,1.1918979-2.6648453,2.2524542-4.1071463,3.2418583-.3446915.236486-.5167525.1105547-.7432366-.1477503-1.2906354-1.4717728-2.4600735-3.0392221-3.6597664-4.5831438-.1993259-.2565254-.2132787-.3917466.0919035-.5829216,1.4590302-.9140162,2.9057449-1.8478581,4.3482951-2.7877155ZM24.5712434,20.8568362c.1679677.2081176.1957665.327464-.0579113.479984-1.2573551.7561571-2.5032845,1.5332791-3.9124476,1.989166-.2671679.086422-.5635941.1818493-.7894731-.056274-1.3750286-1.4496334-2.7394501-2.9093755-4.0989953-4.3568021,1.5073667-.4996318,3.0978097-1.1577277,4.6532282-1.8986507.2906955-.1384959.4961436-.1196667.7420264.1016562,1.2690299,1.1422799,2.3935841,2.4150828,3.4635728,3.7409205ZM20.9631593,24.5707054c-.2616153-.3130485-.1356484-.4052011.158998-.5274662,1.3144833-.5455479,2.55276-1.2441141,3.7918554-1.9374836.3081009-.1724525.516005-.2102889.7758762.0812965,1.3668064,1.5334927,2.5856488,3.1833775,3.8267731,4.815928.0419652.0552062.0754235.1168904.1153243.1795001.0313582.1488893-.0953561.1963716-.1825256.2558491-1.2337207.8415825-2.5443599,1.5505778-3.8664247,2.2400675-.2301859.1200583-.3732734.0506857-.5304205-.1418418-1.3559502-1.6612036-2.714392-3.3204852-4.0894562-4.9658496ZM26.162683,30.5267777c1.2771453-.7199225,2.5499125-1.4477469,3.8173763-2.1846122.2383369-.1385671.4022824-.164088.5769062.0922594.9828548,1.442657,1.975925,2.8784088,2.9644749,4.317186.0389753.0567011.0677708.1203786.0987375.1761543-.0201818.1777916-.1674338.2159483-.2837191.2784512-1.2500939.6717996-2.5075558,1.3301802-3.748858,2.0177835-.346578.1919936-.5427716.0925442-.75573-.1851951-.9923584-1.294266-1.9060898-2.6434177-2.8262281-3.9887254-.1937733-.2833276-.0859949-.3863008.1570404-.5233017ZM31.3916427,27.7234721c-.1141141-.1706016-.0986663-.2812275.0588011-.4075503,1.4354314-1.1518903,2.8674103-2.3081587,4.3013468-3.4619354.0525722-.0423212.1150039-.0723624.1949835-.121838.1189193.1050732.256027.1975462.3570782.3198469,1.1767349,1.4241838,2.090573,3.0240947,3.0615395,4.5861693.1289568.2074413.0789117.3304183-.0931493.4686295-1.3989477,1.1237711-2.8160838,2.2226977-4.2925195,3.2443854-.2492286.1724525-.4097928.1558302-.5723502-.0896611-1.0027874-1.5143076-2.0062155-3.028188-3.0157301-4.5380463ZM36.9630516,23.2292063c-.2176568-.3084569-.1457215-.4712634.0926154-.6970001,1.5397572-1.4583183,3.0754567-2.9210859,4.5967407-4.3986249.2852852-.277063.433961-.231396.6356006.0736082,1.0802042,1.6338675,1.9941491,3.363981,2.9616274,5.0633057.1276754.2242417.0983104.373309-.0683047.5528091-1.3819694,1.4886443-2.841747,2.8920412-4.4680687,4.1148702-.0922594.0693369-.1912105.1297398-.3167859.2143466-.0922238-.1160006-.1811374-.2152364-.2561338-.324047-1.057424-1.5342757-2.1030665-3.0768449-3.1772909-4.5992678ZM45.2088093,13.1377973c-.7974817.8151719-1.607706,1.6181706-2.3930146,2.4448749-.2575932.2712256-.4147403.2625051-.6450329-.0263395-1.0166334-1.275152-1.8955184-2.6481873-2.8524964-3.9653758-.1785391-.245776-.0500806-.3725615.1098072-.5241204.8614439-.8166312,1.7276575-1.6284216,2.5770707-2.4574039.2461675-.2402589.4301169-.2123533.6365972.0232428,1.0800974,1.2323681,1.8833097,2.6511772,2.7252838,4.043896.0239547.0395804.0403279.0837169.0784846.1643371-.0706895.0895543-.1442977.2024226-.2366995.2968889ZM41.3514967,16.6575016c.0530705.073893.0923306.1577166.1460062.2507235-.0933984.1136158-.1738051.2271604-.2696595.3256131-1.4951224,1.5355571-3.0157301,3.0441341-4.618097,4.4697416-.3676851.3271081-.5444801.2844666-.847242-.1079563-1.0095858-1.3086815-2.0641268-2.5833708-3.1245051-3.8517956-.2675951-.3201673-.2705494-.4917299.0688386-.7660878,1.6661512-1.3469094,3.3104833-2.7208701,4.9604037-4.0878188.2412556-.1998598.4442121-.4044537.7503553-.0541028,1.0593105,1.2123288,1.9968899,2.5164543,2.9338997,3.8216831ZM37.263571,12.1129417c-1.627425,1.5735002-3.3884696,2.9890347-5.168201,4.3834619-.2304706.1805679-.3772599.1879715-.584025-.0226733-1.1426003-1.1640634-2.2875498-2.3260624-3.4494776-3.4707627-.3564731-.3512052-.0485501-.463148.1675762-.6146357,1.4691389-1.0298744,2.9361421-2.0622047,4.2760039-3.2614705.1562573-.1398841.3139027-.2782376.4683803-.4200438.9428828-.8657152.9564441-.8794901,1.8396715.0247022.8300501.8497336,1.627781,1.7310745,2.4366527,2.6013813.1098428.1182074.2017819.2531083.2901972.365336-.0199326.2076549-.1620947.3038297-.2767783.4147047ZM32.9256693,7.675199c-1.6080975,1.5999821-3.3906764,2.9745835-5.3157022,4.1709662-.3261471.2027074-.5719942.1812798-.869417-.0654928-1.4498114-1.2029676-2.884353-2.4255118-4.4935183-3.5625238,2.2550169-1.2337919,4.4178456-2.4113098,6.5727369-3.6031365.2909447-.1608845.5247967-.0982748.7836712.0392245,1.2212628.6486635,2.3018229,1.4881816,3.3286006,2.4073945.2689476.2407572.2152008.3931348-.0063713.6135679ZM26.1573795,12.3931726c.2728274.2152008.2202196.3397795-.0470196.4989199-1.4794611.8808782-2.9558967,1.7669176-4.4276696,2.660574-.2617221.1589268-.4607276.1286008-.6846134-.0689454-1.4295584-1.2614128-2.8658797-2.5151729-4.3765567-3.8385547,1.4793187-.9810395,2.8912582-1.8363613,4.32701-2.6544519.2824733-.1609557.498386-.1561149.765198.0188648,1.5609712,1.0239658,2.9817023,2.2304215,4.4436512,3.3835932ZM20.2318111,16.3355903c-1.6436202.8589524-3.2922236,1.5261247-5.006391,2.0389619-.2590525.0775235-.4391933-.0006407-.6284818-.1681457-.7503197-.6641469-1.5018853-1.3274039-2.2699664-1.9706571-.2511863-.21036-.2593729-.3560459-.0732523-.6279835.8558201-1.2503787,1.9489093-2.2479337,3.1819893-3.1093065.2036328-.1422689.3529137-.1560793.5538413.004556,1.473339,1.1779806,2.8625339,2.4466902,4.2422609,3.8325749ZM13.6440536,18.933697c-1.2808115.392067-2.4301746.7862696-3.745441,1.0028586.3824566-1.0249624.8877479-1.8724179,1.4101598-2.7124699.1268567-.2039887.2454556-.1613828.3881872-.0333871.6181951.5543041,1.2372089,1.1076827,1.947094,1.7429985ZM13.9960774,19.4978249c.37217-.0261971.5654805.1597099.7577589.3200605,1.4518402,1.2107626,2.7140005,2.6128782,4.0073054,3.9838134.2174432.2305062.2223196.3704615-.0914764.5039743-1.3466958.5729909-2.6897254,1.1545598-4.0314737,1.7390475-.2601915.113331-.4243151.0196478-.6015016-.1745882-1.3953527-1.5296129-2.7738694-3.0756703-4.3278286-4.4520514-.244637-.2166602-.5224119-.4742533.0171563-.7152953,1.3924696-.6220037,2.8875208-.8661068,4.2700597-1.2049608ZM13.0161769,26.7223576c-1.1919691.4405459-2.349234.8569235-3.4962836,1.2997474-.3097738.1195956-.4500139.0379431-.6925864-.1912105-1.1660567-1.1017029-1.4707406-2.2679731-.5903963-3.711342.3292793-.5399241.4340678-1.2167068.6425058-1.8348664.787551.3923517,3.1445089,2.9151773,4.1367605,4.4376714ZM8.1467869,28.5254386c.1739475.2083312.1719542.3554408-.0778795.490057-.4274829.2303638-.844786.479984-1.2758639.703229-.4230337.2190806-.5684348.0382279-.4696261-.3813532.1642659-.6976407.4158437-1.3645639.7590047-2.031238.4369153.3643037.7256176.8136413,1.0643649,1.2193052ZM6.7695871,33.1333913c1.1397884,2.4923928,3.1098404,3.9260801,5.7327205,4.5579077.9704681.2337452,1.9455634.4654616,2.8741731.8430775.6172697.2510083,1.2324037.5149372,1.6466101,1.1459461-1.4126869-.4353848-2.8297163-.8572795-4.2370285-1.3092866-2.1610134-.6940814-4.0485232-1.8586075-5.7195507-3.3855509-.4836145-.4419341-.9203875-.9233062-1.263584-1.4831629-.1964428-.3204876-.3379998-.6626875-.3418796-1.0481696-.0027763-.2757817.0891984-.5592516.3305963-.6454245.2833632-.1011579.3505289.2367707.4666362.4127115.1915665.2902684.3666885.5957354.5113066.9119517ZM16.9694152,38.2535049c-2.1528624-.8427571-3.1112286-2.7573895-4.3145877-4.7460571.9624595,0,1.7867078.0256276,2.6086425-.0073679.7903629-.0317142,1.5838937-.0870271,2.3651445-.2044515.4357407-.0655284.6967153.0725048.9590425.3838804,1.0518714,1.2484566,1.9843252,2.5840471,2.9759005,3.9685436-.3899669.1358976-.6882084.2398318-.9864854.343766,1.2615908-.1562929,1.9446736.6254563,2.6207088,1.6214808-2.1992769-.1050376-4.2421541-.5822453-6.2283658-1.3597944ZM22.9219637,37.43965c-.3079942.0539248-.4814433-.1393146-.6358853-.3494967-.908855-1.2367462-1.8072099-2.4812163-2.7246075-3.7115556-.2481964-.3328031-.1158226-.3966586.2117838-.4824043,1.5521439-.4061978,3.0744957-.9082855,4.5496855-1.5409674.2915854-.125077.4673125-.0758506.6573128.1546556,1.0662869,1.2937321,2.0158614,2.6739573,3.0017061,4.0273092.1140785.1565776.2381233.3177825-.0532129.4236744-1.6391354.5958777-3.3026883,1.1087861-5.0067826,1.4787848ZM23.555393,38.1035833c1.617957-.243498,3.1407715-.8042801,4.6417314-1.4279567.2686273-.1116225.4608344-.1502419.6541094.122621.7073579.9986585,1.4289533,1.9872795,2.2013057,3.0574462-1.9936152,0-3.8501227-.0090409-5.7065234.0037018-.9628154.0066205-1.5303248-.5441242-1.990305-1.2985372-.1735203-.284609-.1374993-.4065181.1996819-.457275ZM29.8666926,36.5000063c-.1896088-.3146146-.1694982-.4539292.1800696-.6192629,1.2824844-.6064847,2.5554652-1.2341834,3.8164508-1.8841995.3061077-.1578234.4800907-.164871.6864287.130772,1.052868,1.5084701,2.1134955,3.0116724,3.1894284,4.5037338.2237789.3103078.0592283.3712801-.1829883.4841484-.9060431.422215-1.8762621.5290324-2.85271.5984049-.8127159.0577333-1.6273538.0880238-2.2992958.1230482-.4248846.107814-.6037084.0206445-.7561216-.2542473-.5753756-1.0377762-1.1687618-2.0660844-1.7812619-3.0823975ZM35.4334743,33.7050296c-.1649422-.2362012-.2505812-.4175878.0536044-.6312937,1.4460028-1.0157436,2.8804376-2.0479315,4.3193929-3.073677.0567011-.0403991.1174955-.0750676.1763679-.11237.164871-.0119596.257344.1022257.3383558.2113211,1.0573529,1.4239346,1.8516667,3.0048384,2.7120784,4.5466244.1346518.24122-.0331735.3397795-.1659388.4591259-1.1423511,1.0270624-2.3221115,2.0058239-3.5947719,2.8718595-.4426815.3012669-.7259379.2347775-1.0207623-.2003226-.9258333-1.3663081-1.8734146-2.7179514-2.8183263-4.0712677ZM43.2706138,36.0012643c.3992214-.3215198.6066627-.2052345.8153142.151203.1283517.2193297.2601915.4425747.345083.6802709.2539626.7110241.1364315,1.03201-.5502819,1.3323515-1.4203396.6211138-2.9519814.7096715-4.4723399.8590592,1.3733912-.9321335,2.5979287-2.0046849,3.8622246-3.0228845ZM44.338894,33.8077537c-.1227634.0991646-.2639289.1755492-.3576477.2369843-.2581271-.0249513-.3060365-.1991836-.3849482-.3346184-.7958088-1.3655962-1.5783766-2.739023-2.3897755-4.095258-.1840561-.3076382-.1276042-.4694837.12376-.6918033,1.4289177-1.2638332,2.8483675-2.5385581,4.257495-3.8243527.3404202-.3106281.5246187-.3550849.7198158.1418062.5944896,1.5132753,1.2193052,3.0148403,1.8507412,4.5132017.11447.2716172.1199871.4501207-.1076004.6692012-1.2070253,1.1618566-2.4071097,2.3305472-3.7118403,3.384839ZM45.4858012,34.2321755c.9194264-.8197635,1.8330867-1.6465745,2.7286296-2.492108.2953583-.2788427.4606209-.2553508.5834555.1168192.2325706.7045816.4582717,1.4114411.6867846,2.1173397.034099.247876-.1546912.3423779-.2986685.4428951-1.0855788.7580436-2.1790595,1.5047684-3.2634994,2.2643781-.2594085.1817069-.4573462.200109-.6115035-.1130463-.0202529-.0411466-.0531417-.0760642-.0800507-.1139717-.8719086-1.2289867-.8662847-1.222651.2548524-2.2223061ZM49.7204449,35.057812c.1794289.1699609.202565.3577544.2748206.5251526.2804801.6497669.0842864.9866989-.5913217,1.2320122-1.2169204.4418985-2.4225219.9078228-3.7020164,1.1897266,1.2533686-1.1171862,2.6618554-2.0033324,4.0185175-2.9468915ZM49.5468534,30.8245564c-.0832898-.259978.0051611-.4376984.1822408-.6208647.7118427-.7362246,1.4227244-1.4738729,2.1149549-2.2283927.2744647-.2992025.4389086-.3001635.560533.1010867.3676496,1.2127203.4727584,2.4622803.5233373,3.7195642.0103222.257344-.198792.3479305-.362524.4698753-.6541094.4870671-1.3422822.9191773-2.1548913,1.3239869-.295821-.9507135-.5736671-1.8599245-.8636508-2.7652557ZM51.4482804,33.8836399c.3161452-.1935241.6287665-.3944162.9555899-.5682569.2348843-.1249346.4752144-.4554597.7169682-.3014805.2476981.1577522.2009632.5428072.2004649.8994583.0672013.3257555-.0830762.6018931-.3617766.8605897-.5151863.4781331-1.1128082.8298366-1.7002858,1.2011167-.2660645.1681457-.3780786.1216956-.4799484-.1952326-.3451186-1.0737617-.2732189-1.3193953.6689876-1.8961947ZM55.9588482,30.9879325c-.392245,1.0999232-.8978921,2.124672-1.9966051,2.8986617-.0193631-.3603884-.0395448-.587264-.0423924-.8143532-.016124-1.3059408.4165912-1.9152018,1.6591392-2.3372745.1246143-.0423212.2694815-.1364671.37936-.002456.0424991.0517891.0282972.1774357.0004983.2554219ZM56.3729478,29.2270659c.0137748.3242606-.0529282.6126781-.3378574.7906832-.6837235.4272694-1.3773422.838735-2.1583795,1.3119917-.1185277-1.5600457-.3937043-2.9668597-.8091921-4.3453764-.0511485-.1697118.0038085-.3100942.1255753-.4427527.7824255-.8522963,1.5592627-1.7097181,2.418571-2.6540603.4242439,1.837963.6862863,3.5746614.7612827,5.3395145ZM53.532055,17.3932635c.6519738,1.6649766,1.1588311,3.3782185,1.6763667,5.0879367.0643538.2125313.0941815.3869771-.0580537.5827436-.697178.8966463-1.443974,1.7480528-2.328198,2.6921814-.7271481-2.0057883-1.4018308-3.8815521-2.0917832-5.751692-.0878814-.2381589-.0168715-.4037418.1155379-.5733468.7272193-.9315284,1.4564318-1.861455,2.2076058-2.8208534.3021212.2204331.3749819.5186745.4785246.7830306ZM49.3167031,10.2158215c.564128.4979945.9940669,1.1050487,1.4048207,1.727088.7186056,1.0882128,1.3281514,2.2374691,1.8969421,3.4091141.0504722.1040054.0945374.2110719.137784.3082433.0132053.2233874-.148747.3436237-.2585542.4862485-.6125001.7954172-1.3574096,1.4677151-2.0441586,2.1942937-.2661001.2814767-.4117148.1894308-.5733468-.0908001-1.0219013-1.7715448-2.0447281-3.5426268-3.0794076-5.3067325-.1315907-.224384-.0943239-.3658699.0626453-.5484311.6215054-.7227345,1.2444701-1.4452198,1.8359342-2.1923005.2498337-.3155401.4138861-.166366.6173409.0132765ZM33.7696011,1.6632443c3.9120917.3213775,7.3893325,1.7918333,10.5786185,4.0143174,1.4773255,1.0294828,2.8133431,2.220562,4.0374891,3.5429472.3102366.3351167.3937755.5424869-.0015305.882302-.6173765.5307409-1.1867367,1.11861-1.7609022,1.6976518-.2336029.2355605-.3682547.2710477-.568506-.0510417-.8370265-1.3463043-1.7454544-2.6443432-2.7783187-3.849304-.2205399-.2573084-.1747661-.4197235.040755-.6432888.2825445-.2930803.5245831-.6252071.6718352-1.0607699-.294682.2367707-.6123933.4505834-.8780307.7163987-.3029398.3031534-.4973182.2597288-.7944206-.0357363-.944449-.9392167-1.978737-1.7700498-3.1892149-2.3532206-.1160362-.0558824-.2268756-.1828459-.4467748-.0663827.7347296.6607655,1.4645117,1.290671,2.1643592,1.9522907,1.2687451,1.1994794,1.262267,1.2083778-.0227801,2.3919823-.5827792.5367562-1.1897622,1.0489527-1.7481952,1.6097348-.3383558.3397795-.5409919.2753545-.8316162-.0553841-.892909-1.0162419-1.8584295-1.9662079-2.8842462-2.845698-.4412222-.3782565-.3398863-.570962.0324617-.8981057.874934-.768793,1.7194709-1.5731799,2.4802552-2.4592548.0691946-.0806202.1226566-.1747661.2661713-.3823498-.9786903.3429118-1.631198.9334148-2.3323981,1.449847-.5385359.3966586-.9599323,1.2173831-1.5608644,1.1725348-.5424869-.0404703-1.0317608-.7283583-1.5542795-1.1175422-.7232328-.5386427-1.4556844-1.06497-2.2330911-1.6322658.9330945-.6055593,1.7885943-1.2021845,2.5784589-1.8858368.2253451-.1950191.4826891-.1145056.7347652-.0938256ZM32.6567573,1.6158332c-1.0757905.6696995-1.9983492,1.226068-3.0074367,1.6262148-.1221227.0484077-.285214.0642114-.4088317.0270158-1.2411954-.3732734-2.4887622-.7234819-3.7518479-1.0416915,2.3038518-.5290324,4.6236853-.7166123,7.1681163-.6115391ZM22.881707,2.6814438c.2733969-.1098072.551065-.0360566.8276297-.0009966,1.6009431.2031345,3.0906909.7789373,4.7343111,1.3698318-1.0029654.5989388-1.8846978,1.1516411-2.7912037,1.6601714-1.0954739.6144934-2.2100262,1.1952081-3.3206632,1.7822586-.261117.1380332-.5102388.2971736-.8497336.1551895-1.4529436-.6077305-2.9149993-1.1936064-4.5077915-1.8419851,1.9240291-1.3431008,3.8757859-2.3087282,5.907451-3.1244695ZM13.307086,8.6690523c.7878357-.7603572,1.6168536-1.4709542,2.4656973-2.1611914.2634662-.2142398.5255086-.266634.8378452-.1620947,1.4143242.4734347,2.7041766,1.1960979,4.0951868,1.9736826-1.4984683.9469049-2.9113687,1.7578055-4.2198723,2.7273838-.2249891.1667219-.3886144.1538369-.6110052-.005695-.8312603-.5963405-1.667041-1.1875198-2.5209747-1.7504732-.3337641-.220006-.3149706-.3628088-.0468772-.6216121ZM9.3449493,13.3434233c.8198703-1.1881961,1.6862262-2.3394457,2.6500026-3.4168023.1810307-.202387.3273216-.2077973.5276086-.0580537.8725848.6524721,1.748124,1.3010288,2.6587587,1.9778827-1.2597755.9986941-2.3790617,2.0456179-3.2874897,3.2973848-.1946987.2682713-.4137437.2586966-.6644316.1170328-.6936186-.3919958-1.2807759-.9231282-1.8814944-1.4375671-.2011768-.1723101-.1158582-.3162519-.0029543-.4798772ZM4.9676807,23.0264989c.7217378-2.8084311,1.6774345-5.520296,3.2363412-7.9920443.2357029-.3737361.4200438-.4851095.7861628-.1694982.5642703.4864976,1.152709.9451608,1.7351322,1.4103377.1865833.1490673.2697663.2817614.1111598.5228746-.756086,1.1495767-1.3098205,2.4080352-1.897654,3.6633614-.6812675-.3285318-1.2755436-.7575097-1.9750352-.9554831-.1539437-.0436025-.3661546-.219045-.4985284.0066561-.0990935.1688575.0764201.3128349.1796069.4194031.4857502.5016962.9818582.9939245,1.4888935,1.474122.2173009.205804.3651936.3958043.2635374.724087-.3645885,1.1773044-.7070019,2.3617275-1.3508247,3.6089027-.6845422-.7235531-1.3165122-1.4056749-1.9665638-2.0701421-.2002514-.2047006-.1714203-.4121064-.1122276-.642577ZM4.0641292,27.7161397c.0705471-1.1102098.2549236-2.2015193.5331257-3.4224262.8221483.8334671,1.4221193,1.683877,2.0700354,2.4938521.131306.1641591.1302025.3337641.0600469.5217-.218511.5856267-.4515088,1.1670889-.6378074,1.7629666-.1020122.326325-.2648187.2644272-.4558513.1380688-.4641447-.3069619-.918679-.6283394-1.3800473-.9395014-.207299-.1398129-.2032413-.3389253-.189502-.55466ZM4.3736894,31.1812786c-.2753901-.5727061-.3129061-1.1903673-.3830617-1.9623994.53818.408191.8520116.793424,1.1100319,1.2282037.1531606.2581271.1832731.5196-.0129918.7723168-.1094869.1410231-.1920292.3392812-.4139572.3103434-.1856579-.0242039-.2316452-.2062667-.3000211-.3484644ZM4.8590837,34.8848255c-.0418229-.1723813-.1459706-.3397083-.005873-.587442.3231572.3610291.6418295.6921237.9327386,1.046034,1.9790573,2.4075725,4.6763998,3.6259522,7.5402507,4.5731419,4.5088593,1.4912783,9.1562501,2.1430029,13.8863967,2.1955751,6.8093652.0756727,13.4583799-.9840294,19.9527034-3.0145911,1.7132419-.5356884,3.3371432-1.3031644,4.9640699-2.0559758.2675239-.1237956.5294239-.2931515.9103856-.1991124-.1629845.4940791-.5269679.6616909-.8666763.8593083-4.6096612,2.6810761-9.6150912,4.2356048-14.8363627,5.1281578-5.692357.9731377-11.4064262,1.0786736-17.1198192.1623794-4.2160637-.676142-8.2377491-1.9352412-11.9727254-4.0535419-1.6489237-.9351589-2.9222961-2.1463487-3.3850882-4.0539334ZM6.740756,39.4054308c1.3401465.5759452,2.4605718,1.2632637,3.6082264,1.8969777.2642848.1459706.0743201.2735748-.0355939.3660478-.5712468.4805179-1.0242149,1.070487-1.545559,1.6894652-.8802019-1.2302325-1.4520894-2.5086236-2.0270735-3.9524908ZM12.093903,47.7452277c-.9067906-.839091-1.7086147-1.7615785-2.3922315-2.7985004-.3768328-.5716383-.3163231-1.0146402.1232261-1.4739441.1283161-.1340823.2575576-.2688764.3709954-.4153098.3712801-.4793433.6349243-.4403323.9480084.0949646.7027663,1.201615,1.4248956,2.395079,2.2077838,3.545154.3280335.4818348.1840917.6746115-.2374826.8820884-.2285485.1124412-.445885.2476269-.6541806.3646241-.1761543.0072612-.2669188-.1072445-.366119-.1990768ZM12.8650096,48.6936987c.0528926-.0561316.0651369-.0777727.0837169-.0876322,1.2686383-.6729742,1.2760419-.6798438,2.2554797.3564731.6722267.7113088,1.3224563,1.4435113,1.9778471,2.1705526.1519504.1685728.3787905.3526289.1888257.6000422-.1769374.2305062-.4430375.1208769-.6408329.0149494-1.4709898-.7878713-2.7062766-1.8714213-3.8650365-3.0543851ZM44.7850281,52.9481683c-.2153788.4779551-.3006618.5728841-1.1034826.9385048-1.9549602.8903462-3.994634,1.5382979-6.0764153,2.0539469-5.1718316,1.2810962-10.3934234,1.5891616-15.6673739.7592894-.8292315-.1305229-1.6283505-.3827058-2.4128404-.6867134-1.3023814-.5046861-2.2898278-1.3202851-2.7715203-2.7821984,9.4211756,3.7538767,18.741834,3.7681855,28.0316324-.2828293ZM16.9223245,55.0836609c4.3980554,3.223741,9.2980206,3.2605095,14.222083,3.08165,4.6175987-.1677897,9.0977693-1.0728362,13.5123759-2.8502896-.125077,1.2046049-.2263417,2.3221471-.3718852,3.4338874-.0228869.1746949-.2329622.3370744-.3796447.4816569-2.8581558,2.8162262-6.3731618,4.3048705-10.257597,5.0026893-3.3692133.6052389-6.7238331.5063235-10.0367012-.4060554-1.8052878-.4972114-3.3296684-1.5319977-4.8482117-2.5739028-.1653337-.1134378-.2284773-.2787004-.2791275-.4651769-.4989911-1.8375715-1.0043535-3.6734345-1.5612915-5.7044589ZM18.6592364,62.5896346c.4058418.0005339.6674215.2542473.9381132.4492664,2.6229157,1.8897166,5.5746835,2.7415146,8.7770681,2.7443621,2.5180916.0022424,5.0176387-.2071566,7.4798478-.7967342,2.9548645-.7075003,5.6006315-1.9830794,7.8345056-4.0696304.133228-.1244363.270051-.4219659.4937944-.238942.1541928.1261092.0911916.3973349.0111053.5968032-.1410943.3513831-.3779006.636526-.6448906.9016651-2.0582182,2.0441586-4.5657384,3.2730385-7.3472961,3.9480771-4.9135265,1.1924318-9.7399191.9537034-14.4261073-1.0509816-.9439862-.403813-1.8187067-.9383624-2.6433822-1.5511117-.3047907-.2264485-.5571872-.4847179-.4727584-.9327742ZM27.5018328,123.0652636c-.7205988-5.7069505-1.4009765-11.4193112-2.1692356-17.1198192-.8552506-6.3461104-1.7481596-12.6878072-2.701329-19.0198936-1.0050298-6.6764576-2.1005038-13.3393538-3.156682-20.0081231-.0974917-.6155612-.1964784-1.2309444-.2932583-1.837002,8.424368,4.5172238,16.5252585,3.6250268,24.5354912-1.0983571.1655829.3202029.0385126.780183.0269446,1.2230781-.066881,2.5635806-.3539815,5.1133863-.4955029,7.6719838-.2161974,3.9095645-.1576099,7.8288462-.3934196,11.7387666-.2777037,4.6054612-.5236221,9.2128088-.7922138,13.8188039-.4707295,8.0725933-1.3029865,16.1155725-2.0811407,24.1607941-.5588957,5.7787078-1.1506445,11.5468086-1.0350711,17.360968.0087205.4391577-.1769374.6185867-.5404224.7589335-2.6554129,1.0254251-5.3301533.9777293-8.0096633.1310568-.8101887-.2559914-1.2169204-.8361367-1.2757571-1.7224964-.356651-5.3708727-.9445913-10.7192857-1.6187401-16.0586934ZM31.5261521,150.8252789c-.4069452-1.969269-.8138905-3.9385024-1.2366394-5.9841203.4470952.0962459.630831.2530371.6973204.5737027.368753,1.7779873.5576143,3.5765834.7062901,5.3804119-.0556689.0100019-.1113378.0200038-.1669711.0300057ZM29.3723643,142.3164465c.799297-.040755,1.4789984.1273906,2.1505488.2815479,2.0764067.4766381,4.1340198.6494822,6.1898887-.1152887.2112499-.0785558.6019999-.3129061.7404958-.0007475.1294907.2917989-.2114635.5281425-.4465257.7096003-2.3973926,1.8506701-6.5347226,1.4676083-8.6344077-.875112ZM34.1134383,155.0307712c-.7292481-.1222295-1.0723379-.485679-1.1803654-1.3393635-.2074057-1.6389219-.3787549-3.2824353-.588403-4.9210368-.1091665-.853115-.256027-1.7020655-.4094724-2.5486312-.0806202-.4446036-.0108917-.6756437.5081387-.5267188,1.4792831.4243507,2.9547221.2883463,4.4125421-.0948222.4832586-.1270347.5861962.0166224.5080676.4501918-.4647142,2.5788148-.288809,5.2024779-.5448717,7.7959218-.0373736.3785057-.0554197.7636675-.3645529,1.0718752-.1092021-2.7650066.1691067-5.5148145.1597455-8.2745532-.4102555.6048474-.4338186,1.2979677-.4958944,1.9776336-.1545488,1.6923839-.044528,3.4004647-.2942905,5.0874028-.1787526,1.207666-.5762299,1.5123143-1.7106436,1.3221004ZM32.0263534,165.0418448c.0259124.5151863-.2193297.7522418-.3964806,1.0063468-1.1380443,1.6322658-2.6597909,2.8607898-4.2691699,3.9864118-2.2775479,1.5929345-4.7242381,2.883214-7.3438079,3.8994914,3.9016983-3.0319965,7.5922178-6.3596005,12.0094584-8.89225ZM.8480765,191.2914322c-.160493-2.3802719.3700699-4.6038594,1.5753155-6.6148089,2.3322201-3.8913404,5.8964169-6.2452729,10.0496574-7.8161747.8427571-.3187791,1.6949111-.6154544,2.6684403-.8299789-.3386761.5148304-.7946342.7544486-1.2012235,1.0353202-2.9761141,2.0559402-5.797359,4.2951534-8.278255,6.9400305-1.9266275,2.0539469-3.478807,4.3601479-4.6327617,6.9317015-.0541739.1207702-.120521.2360588-.181173.3539103ZM1.5381357,197.5311524c.3692157,1.9632536,1.0426882,3.8178746,1.8973337,5.6156165-1.1036605-1.7033824-1.9984204-3.4874563-1.8973337-5.6156165ZM28.967875,205.2030294c4.6242548-4.2814498,8.5615825-9.2981274,13.8242853-12.9012283-4.7302178,4.1646661-8.7642543,9.0862013-13.8242853,12.9012283ZM67.365488,185.312473c3.1210525,1.0544342,5.404331,2.9901737,6.469301,6.1986804-1.3532451-2.9082365-3.641222-4.8345436-6.469301-6.1986804ZM35.5999114,96.834363c1.3794422-.9224163,1.8499938-2.2505677,1.3722522-3.8606585-.1323738-.446063-.2610814-.8937632-.2806224-1.3636385-.1006596-2.419532-.2191161-4.8384589-.2982414-7.2586672-.0989155-3.0255896-.1839494-6.0518911-.2341368-9.0785486-.0134545-.8125735-.3988654-1.2481007-1.1069708-1.490424-.7123766-.2438539-1.44853-.3368608-2.2023023-.3356506-1.7234574.0580181-3.3497434.4985996-4.8725579,1.3028441-.3682191.1944496-.9666596.3968366-.2500117.9400709.1120852.0849627.1166413.3442644.1271415.525473.0550994.9528847.1198091,1.906161.1373213,2.8601135.0406127,2.2117703.0263751,4.4237542.0823287,6.6362364.0626097,2.4747382.4559225,4.9121739.6698775,7.3689728.0137037.1572895-.0031679.317213-.0058374.4759618-.8396961-.029009-.2831852.6037796-.4174454.9075381-.0804778.1821697.0144511.5177847-.0995918.5968744-.754413.5233729-.0955341.8541116.180034,1.1251237,1.7797314,1.750224,5.1265917,2.0340143,7.1987627.6483788ZM28.9193249,75.1420426c1.6449372-.9519593,3.3733066-1.0840839,5.1575228-.4531105.4252405.1503843.4248134.380143.0346685.6104712-.3897534.2301147-.8278789.3119095-1.2605585.376726-1.1014537.165049-2.2079262.2967465-3.3349363.4447104-.1169972-.0135257-.2593373-.0135969-.392245-.0491196-.2173009-.0580893-.5009488-.0525722-.5753401-.3200249-.0844644-.3035093.1605642-.487957.3708886-.6096526ZM28.672054,80.0413671c-.0708675-.9985517-.1001257-1.9999865-.1574675-2.9995705-.0265887-.4629345.0596198-.6803065.6245308-.5588957,1.4234007.3059653,2.8224196-.1075648,4.2291623-.2500117.9253706-.0937188.9611781-.1157514,1.0133588.7941359.3108061,5.4171092.6300479,10.8339693.6265241,16.2638567-.0004627.7092444-.3868703,1.0146402-.9637053,1.1727127-1.3993036.3835244-2.7669286.1131175-4.1282535-.2426793-.2368419-.0618622-.2733257-.2375894-.2976007-.4170539-.4516156-3.3392076-.6835456-6.6947884-.8020021-10.2536461.9347318,1.3153376,1.7808348,2.4014147,3.4159125,1.9679876,1.1314238-.2999143,2.0328753-1.6246487,2.0419518-2.8946752.0090409-1.2662891-.8384503-2.4074301-2.3165232-2.8057972-1.5606864-.4206489-2.3492696.7245142-3.1525531,1.8833453-.1744102-.5875132-.0958544-1.1315662-.1333348-1.6597087ZM29.8733131,82.2876991c.0737506.5161474.1475012,1.0322947.2373402,1.6609901-.5355461-.5561193-.483401-1.0930892-.2373402-1.6609901ZM31.9380449,80.9450611c1.1725348.4103623,1.6070297,1.3775913,1.2298766,2.4515665-.3188503.9077872-1.0132164,1.2679977-1.9706571.9370098.7859848-.198792,1.5143787-.3829905,1.6329065-1.2807047.1067106-.8081599-.2780953-1.4258211-.8921259-2.1078717ZM32.3738924,82.266236c.1639456.4317898-.1400977,1.4246109-.5050421,1.6462542-.3713869.2255586-1.0489883-.4018553-1.0681734-1.1011334.0389397-.1373213.0714726-.3992214.1861918-.6180172.132267-.2521829.2309689-.6423278.5798961-.6107204.377865.0342058.663613.3056805.8071276.6836167ZM30.7934514,96.9041627c-.6314361-.1754424-1.2300189-.4280524-1.7648175-.808765-.2325706-.1655473-.4551394-.4099351-.310984-.7034782.1404536-.2860327.4563496-.1718118.6916254-.1045393.3330523.0952493.66703.2096482.9752021.365941,1.8279255.9270435,3.5037939.6203664,5.0796077-.5906098.1967632-.151203.4024604-.2908023.6040288-.4357763-.7637387,1.7759228-3.314897,2.8217789-5.2746624,2.2772275Z"/>
  </g>
</svg>