<?xml version="1.0" encoding="UTF-8"?>
<svg id="Layer_2" xmlns="http://www.w3.org/2000/svg" viewBox="0 0 199.202939 72.8754189">
  <g id="Layer_1-2" data-name="Layer_1">
    <path d="M89.2927903,41.1672163c4.6339381-1.2397799,9.2257719-2.2889595,13.8966543-3.0089818,13.606482-2.0974498,27.0061754-1.4464839,40.2336031,2.5950556,7.9431794,2.4269666,15.979449,4.491839,24.3179132,5.1779516,9.9759502.8208313,19.8256935.2139046,29.577102-2.0656443.5834744-.1363893,1.6217208-.7955815,1.775398-.1043724.182945.822872-.9947042.6216558-1.5995584.7634905-17.5203026,4.108439-34.8302639,3.1499918-51.8992097-2.3578996-19.7186778-6.3629178-39.3311751-5.5478703-58.8770267.6787005-9.4996925,3.0262274-18.9772967,6.125434-28.4246656,9.3109426-6.4582814,2.1776297-13.1595027,2.9080987-19.8590058,3.6995882-3.0484584.3601486-3.0614799.3096278-2.7242866,3.3629977.3579757,3.2415066.3112297,6.452762-.6504953,9.6038957-.3052027,1.0000122-.6953276,1.9619275-1.3831161,2.7639801-1.1656111,1.3592514-2.6126608,1.6426354-4.1946247.8522879-3.6069816-1.8020118-5.7787667-7.2491365-4.4015058-11.0395311.64072-1.7633546,2.0890966-2.845672,3.7603681-2.7914609,1.8782953.0609147,2.7060577,1.3213555,3.2305787,2.8901764.8818412,2.6375722.4832839,5.3726545.5502256,8.2745782.936803-.8549524,1.0430151-1.9057392,1.2421537-2.8484951.6534401-3.0935497.4487345-6.1946595-.0675285-9.2935384-.1416603-.8503318-.4725781-1.1588282-1.3613609-1.0545933-8.7730379,1.0288359-17.5252035,2.1357581-25.8081362,5.4810237-.5822941.2351788-1.5111734.8969932-1.8089719.0944014-.2831461-.7630887.8449419-.8981035,1.4382193-1.1013393,8.2296376-2.819259,16.7215305-4.3942655,25.3653745-5.1611501,1.4834811-.1316312,1.8094768-.4585363,1.4270443-1.9722051-1.3028358-5.1567092-1.2548103-5.3195115-6.4948926-4.6402717-6.7722259.8778444-13.3395479,2.6354681-19.6210686,5.3740397-.632384.2757181-1.2826772.5156868-1.9384263.7301518-.3190766.1043724-.7507929.2053929-.8803516-.2415547-.126581-.4366911.3079386-.5397841.6046111-.6777383,2.8305424-1.3162802,5.7792412-2.302536,8.7781067-3.1529524,3.6516976-1.0355396,7.3452746-1.9001035,11.1786035-2.7751247-3.41092-1.3978981-5.2996542-3.9870008-6.2803033-7.3320338-.3208728-1.0944982-1.1223861-.5926523-1.7019324-.4393134-3.8474816,1.0180296-7.6522881,2.1683143-11.2860831,3.8277935-.5721196.2612745-1.4657306.9717594-1.7955989.1805871-.3356852-.8051189.7902722-.8795362,1.3792964-1.1167768,3.9089766-1.5744672,7.8814809-2.9509854,12.0317095-3.7510184.6301543-.1214594,1.0720503-.3164055,1.0034459-1.1026081-.2877879-3.2980967.6996046-6.3823204,1.7930586-9.7381386-6.210068.6019254-11.893598,2.5134378-17.5444224,4.6365921.2770953-1.24439,1.1861755-1.4759844,2.0389181-1.767711,4.7546203-1.6265529,9.5639697-3.0403749,14.5846332-3.5707273.8891264-.0939256,1.4586674-.403934,1.8136957-1.2867057.7557374-1.8791359,1.8187076-3.5997731,2.9950827-5.2486892.2905371-.4072541.6936701-.7622322.3490886-1.3823971-.3616157-.6508073-.8720791-.3706482-1.3621037-.35022-7.1922583.2998789-13.9454146,2.404635-20.5793862,5.0008326-.3758531.1470898-.7545571.2870425-1.1286722.4383724-.3229281.1306161-.7131653.3241771-.9127202-.0713192-.2510181-.4974896.2052422-.7158986.5583831-.8961262.4093834-.2089245.8379752-.385113,1.2695619-.5449017,6.5155892-2.4124595,13.1607121-4.308693,20.1379079-4.7020111,1.5293046-.0862069,1.6460111-.6033105,1.2390318-1.8797175-.8100198-2.540464-1.2510514-5.1485675-1.083943-7.8410275.1497993-2.4135856,1.142328-4.3396051,3.1874621-5.6438419,3.2068832-2.0451209,6.4549243-.3382559,6.5339992,3.4742006.0690353,3.3283108-1.1136682,6.3265181-2.7648312,9.1569587-.4563793.782338-.9611699,1.5364497-1.6513904,2.6335595,3.2288076-.2126781,6.1357168-.3943966,9.0411615-.5971566,16.406571-1.1448921,31.8920673-5.8978417,47.1457209-11.7497093C93.9080553,2.9485357,104.5255397.4905091,115.5275767.0478967c9.1421345-.3677933,18.0201501,1.4441154,26.8922656,3.3255247,10.8305749,2.2967099,21.6453845,4.6872398,32.6768161,5.8810561,5.6973074.6165593,11.4037505.722026,17.1227974.4899347.646599-.0262491,1.2543927-.1448007,1.8021493-.5197629.4327155-.2962045.8870857-.5774632,1.4295344-.2305475.206926.1323238.3830828.3376003.2577852.5678201-.2916209.5358296-.8501837.5164587-1.3608692.5450762-4.3809321.2455145-8.7614413.57897-13.1509169.1904153-3.218382-.2848855-6.4391114-.5515684-9.6506206-.9014606-1.1492907-.1252077-1.3154026.2845312-.9571466,1.225976.1024374.2692048.1896064.5445158.275845.8195202,1.5260717,4.8660875,1.5293283,4.8233912,6.5525665,5.2383641,5.2447981.4332812,10.4950523.4185838,15.7495993.422422,1.4595212.0010574,2.8710804-.7800277,4.3447914-.1204337-8.2562541,1.4370099-16.5117893.5390122-24.9746522-.2942431.9168399,2.9811837,1.7850834,5.7654228,2.6232767,8.5586813.1963313.6541697.5721394.8886612,1.243375.9186163,6.6334125.2959984,13.258197.4874023,19.796468-1.0386588.5232046-.1221255,1.0927218-.3656786,1.8922155.4577327-7.4988646,1.5560162-14.8171738,1.2534199-22.3074738,1.1771523.5038972,1.7931406.9486454,3.4812849,1.4554821,5.1505659.5342435,1.7595587-.1951259,2.9440702-1.6979355,3.7011531-2.1064374,1.0611701-4.3078683,1.2278106-6.5309752.3500614-.9292534-.3669157-1.8892338-.8386479-1.9285254-1.9860777-.0385303-1.124559.8629778-1.7095771,1.7263363-2.1956154,2.0806166-1.1713368,4.3135146-1.0571732,6.8146024-.6182616-.4307488-1.4015037-.8352115-2.6720423-1.2087569-3.9516425-.1939628-.6644473-.7280794-.6637494-1.2415986-.6890415-9.7725663-.4814705-19.3245349-2.5016059-28.9258612-4.1676196-1.2775489-.2216657-1.7298468.0746076-1.3840572,1.3739065.2222578.8351798.3571986,1.69341.5725624,2.5306834.5613332,2.1823878.6401067,4.2516166-1.6465054,6.0219392,3.021945.6273338,5.7157267,1.1154551,8.3744039,1.7505711,12.6506042,3.0219873,25.4505927,3.6146713,38.3582949,2.3884468,3.1491036-.2991704,6.3333328-.4647324,9.3554047-1.5855061.4074656-.151129,1.1271918-.5259009,1.2981887.2060167.1791808.7669798-.5917218.6698187-1.0704537.7413282-12.9054605,1.9277958-25.8323855,2.5971175-38.8093767.7037495-5.7120682-.8334034-11.2973692-2.9312232-16.98921-3.0571658-4.8712422-.1077876-9.2558856-1.8582953-13.94616-2.3305773-4.7124367-.4745236-9.4205594-.8799591-14.1603502-.9495336-7.7965653-.1144385-15.3892181,1.1962377-22.919497,3.0571024-.9711038.2399792-1.0556718.6196996-.9559624,1.5433596.2341003,2.1687584,1.2569938,4.5204301-1.0326424,6.4182919ZM110.7361972,19.4433226c-7.5954971.581846-14.7485298,1.7493869-21.7862464,3.6250335-.943697.2515151-1.3145038.5629192-.9677626,1.6513375.663263,2.0819383,1.2441997,4.2044687,1.6463996,6.3500814.2640025,1.4083448.6561681,1.7604469,2.1353351,1.3508454,13.1208878-3.6331752,26.405889-3.7566647,39.7670203-1.6116441,1.0936311.1755858,1.5945254.0432356,1.5660823-1.1989128-.0189268-.8266468.4773574-1.5262197,1.1375223-2.053326,1.3460872-1.0747889,2.925154-1.1818047,4.5724524-1.230824.9956135-.0296273,2.3518197.9270329,2.8202635.0694688.414053-.7579499-.2277667-2.0884305-.3919752-3.1678612-.1283005-.8433109-.3685229-1.4501741-1.4117495-1.622186-7.6278841-1.2577551-15.2676636-2.3653857-23.0225265-2.3840905-2.7700493-.0066825-2.2569848-.0507323-2.3269717,2.3300063-.0203225.6911986-.0321227,1.3908454-.1474388,2.069694-.7159937,4.2150001-4.8379881,6.252381-8.3098625,4.1263084-1.9046818-1.1663672-2.2475531-2.9723441-.8012595-4.6637769,1.7885622-2.0916977,4.0914048-2.6589416,6.7227598-2.0476797.5039395.1170713,1.0456903.4331067,1.0642576-.4891364.012498-.61989.0071266-1.1759469-.8723884-1.1112785-.5734611.0421677-1.1525263.0079408-1.3939118.0079408ZM81.7402116,43.5808072c-3.4491093-2.6416537-3.1181968-5.3043912.7238817-7.2055308,1.6474676-.8152167,3.3736136-1.1844481,5.2015625-.8532184.6428242.1165003.8523725-.0982925.769158-.7157082-.0666879-.4947721-.2518217-.7403237-.7949682-.5206775-.3186894.1288609-.6649971.1882001-.9966392.2863975-8.3445334,2.4708472-16.6789531,4.9768199-25.0437827,7.3768449-1.2283921.3524404-1.6038513.7630253-1.5301108,2.071851.249136,4.4219578-2.1159008,7.3696971-6.2394547,7.9160897-1.6291858.2158713-3.1576471-.1590592-4.0891791-1.6587391-.9057588-1.4581784-.4948303-2.8851328.4099081-4.2095864.3419461-.5005876.7270696-.9716854,1.2508505-1.6661512-4.5226188,1.0953229-8.8784491,1.5753448-13.1966426,2.2842542-1.2570625.2063551-2.437186.6468633-3.5874971,1.214731-.8688356.4289301-1.1797587.9385265-.9120501,1.9054854.4148672,1.498411.7414022,3.0224631,1.0678209,4.5436921.1687288.7863613.4627393,1.1397745,1.3934096,1.0492853,6.4403062-.6262659,12.810689-1.6319032,19.0877754-3.2224529,8.9560438-2.2693665,17.4019308-6.0983654,26.4859578-8.5965666ZM172.8177862,26.0797486c1.1167662.2440078,1.2801501-.3274232.8118649-1.6272508-.7800382-2.1651633-1.4618474-4.3698827-2.080828-6.587026-.2820412-1.0101628-.7097447-1.4719188-1.8249249-1.6198863-4.2828722-.5682959-8.533516-1.3932985-12.8227747-1.8952924-3.4165848-.3998632-6.7537088-1.9151656-10.2967332-.8826131-.0889666.0259318-.2640448-.0285594-.3099556-.101528-1.0476358-1.6653529-2.8754367-1.0751325-4.3450981-1.5109514-1.1392035-.3378224-1.4363438.1191332-1.2063884,1.2149372.496834,2.3675903.9518492,4.7442951,1.3937743,7.1228767.1558131.8386373.5170508,1.2829203,1.4439145,1.3974857,1.6550594.2045893,3.2883161.5806935,4.9345782.8623011,7.9505703,1.3600233,15.8886426,2.8050481,24.3025708,3.6269473ZM58.4250069,33.6362713c.4234477-.1335027.9154548-.2964847,1.4120509-.4440187,8.5812137-2.5496102,16.4090928-7.0479202,24.9695399-9.6496372.7080001-.2151735.8391766-.5615023.5834215-1.277126-.6004979-1.6802881-1.1224126-3.3902671-1.6263415-5.1028788-.3472065-1.1800177-.9542812-1.272204-2.0707619-.895016-8.835811,2.9850536-17.5184469,6.4714245-26.7024477,8.3332936-.9589706.1944069-1.1216936.5682695-.7379182,1.4025187,1.0834434,2.355235,2.1430327,4.7215301,3.1969757,7.0901513.1849858.4157448.4031992.6959778.9754813.542713ZM88.0938986,32.576645c-.553699-2.2942886-1.1637449-4.5769356-1.6410177-6.8870106-.3111715-1.5060769-.918426-1.6877743-2.3537124-1.1878951-8.4853954,2.9552677-16.4739621,7.1875239-25.1143458,9.7294999-.8920395.2624376-.8209424.7590601-.5924408,1.436016.5339845,1.5820062,1.0317383,3.1752205,1.2823547,4.8341287.1244887.8240351.4451025,1.1510142,1.3993044.866594,8.7163923-2.5980691,17.4477569-5.1459346,26.1776465-7.6985583.570289-.1667568.9566285-.405076.8422112-1.0927747ZM118.5279515,9.5854535c-1.4387123.0728682-2.8767479.1764634-4.3163589.2076398-.9381247.0203278-1.3522094.2364159-1.0879742,1.3274618.4462497,1.8427098.8366389,3.7141375,1.0371996,5.5962235.1523767,1.4299203.6485551,1.8995483,2.1361493,1.8579728,3.5696699-.0997305,7.1377009.1223475,10.6993349.4620573,4.0762634.3888243,8.0960107,1.1245802,12.128901,1.7876951.9941438.1634684,1.8717661.315972,1.44678-1.2725159-.4302624-1.6082394-.6696072-3.2681469-.9794147-4.9079063-.5929272-3.1383079-.580408-3.2036212-3.6929268-3.6197202-5.7650845-.770707-11.5332247-1.5554717-17.3716902-1.4389079ZM112.8659706,17.5755639c-.3693688-1.9804049-.7641989-3.956517-1.0985161-5.942822-.199239-1.1837449-.7229089-1.6104546-1.9967782-1.440071-7.0262866.9397371-14.0167073,2.0496887-20.8331918,4.0476723-1.3063832.3829084-3.2368119.1752527-3.7647429,1.2556932-.5140373,1.052008.6868951,2.5334854,1.1275513,3.8275186,1.1482545,3.3719747,1.1668747,3.3727571,4.5691323,2.5164301,6.7239334-1.6923844,13.5549884-2.6635834,20.4697654-3.1026113.6814497-.0432673,1.8292601.303199,1.5267801-1.1618099ZM56.1080907,34.2512656c-1.1545881-2.6451535-2.3104028-5.150439-3.335004-7.7082755-.4307488-1.0753387-1.0584738-1.3321829-2.1089803-1.1435387-2.1517084.3863924-4.3041728.7995466-6.4739093,1.0483019-4.7471658.5442356-9.5065495.9811699-14.25721,1.4963492-.5403947.0586097-1.2696002-.0887234-1.5831878.4413647-.5369451.9076409,1.3928862,4.3535675,2.4688197,4.4995472,3.0529892.414201,5.8145796,1.4202402,7.8495022,3.8726046.4689777.565182,1.0306123.4310131,1.5787971.3496807,5.2355515-.7767498,10.4670639-1.5792253,15.8611723-2.8560341ZM140.6715657,3.7119575c-3.4739257-.6384097-6.4677977-1.2380881-9.4790422-1.7318082-6.510494-1.0674667-13.0459419-1.6391567-19.6503192-.9471704-1.0678526.1118849-1.2078475.4241508-.9052618,1.3534465.5885391,1.8074837,1.1619474,3.6258741,1.6038513,5.4727129.2341109.9784472.6395463,1.3104752,1.6443484,1.2499782,7.8103111-.4702572,15.5734954-.0228761,23.2759025,1.3604092,1.2662034.2273966,1.6493603-.0585727,1.3301739-1.3993889-.4814493-2.0224563-.7626129-4.0834323,2.1803471-5.3581792ZM51.8621734,18.2800747c.3188797,1.3432218.6847011,2.677456.9443102,4.0320444.2990066,1.5601505.957633,1.9018693,2.6067448,1.519664,7.829111-1.8144993,15.3802781-4.4803877,22.9015059-7.2380025,1.5013611-.5504635,3.999245-.2951313,4.2764752-1.8039785.2559771-1.3931822-1.2273453-3.1060636-1.9458556-4.6775649-.0237695-.0519906-.0671532-.0950094-.0910073-.1469735-.3518906-.7665251-.828825-.9188648-1.6615517-.5950948-8.4476475,3.284425-17.043014,6.0855872-25.972851,7.7619895-.6114839.1147874-1.1446542.3168813-1.0577706,1.1479162ZM83.7748117,7.704705c2.6413047,1.0045165,4.1959675,2.6699646,5.1048666,4.9448717.2995405.7497289.8386691.6101569,1.4253261.4545712,6.4651014-1.7146102,13.0218974-2.9496584,19.6767639-3.6153798,1.0497611-.1050068,1.0916539-.5340743.8671121-1.3159947-.5079469-1.7688423-1.0469485-3.5299078-1.5024079-5.3122579-.3018456-1.1812178-.9168611-1.5451095-2.1241694-1.2931345-2.9278291.6110821-5.8961658,1.0355131-8.8118564,1.6956146-4.8621488,1.1007683-9.6053126,2.6157165-14.6356351,4.4417094ZM29.1937712,27.3007286c7.0925753-.6293322,14.5243026-1.4940441,21.9208938-2.650821.7381614-.115443.766578-.4501091.60109-1.0702951-.4003919-1.5005258-.7973843-3.0131583-.7579341-4.5839988.0271848-1.0824442-.4381767-1.4030368-1.4828678-1.2427405-7.1741694,1.1008-14.3675881,2.0051631-21.6391963,2.1617375-1.2325211.0265398-1.8851867.743168-1.4808958,2.0787239.4665326,1.5411708.9609558,3.075067,1.376267,4.6300153.1707986.6394723.4849624.8685078,1.4626431.6773788ZM142.5401914,4.2125293c1.3753339,1.3600074,2.6714713,2.5199881,3.0549982,4.063686.82689,3.3283161,2.9894417,4.1833902,6.1364305,4.5480749,5.8242651.6749416,11.5936319,1.830143,17.3805297,2.8165945,1.3332931.227275,1.9725329.0392493,1.3718658-1.5049191-.4785204-1.2301632-.8623857-2.5052432-1.1797217-3.7872542-.2268468-.916491-.707926-1.3170996-1.6324001-1.4436713-2.1661361-.2965693-4.3302104-.629126-6.4772717-1.0403189-6.0967477-1.1676149-12.1845501-2.3819335-18.6544308-3.6521919ZM38.3713511,45.8918022c5.2719565-.8651877,10.1432146-1.4346837,14.8681652-2.7218018,1.6319613-.4445579,4.1439875.0742163,4.6542289-1.8499421.4304739-1.623328-.5937995-3.5675235-1.2028832-5.3117081-.0189004-.0541053-.0594397-.1018453-.0723607-.1566801-.1461911-.6200063-.5124671-.8419575-1.142862-.6942332-4.9957732,1.1707341-10.0425007,2.0606747-15.1323845,2.7040381-.5853882.0739837-.8382567.2729373-.6039185.8908922.9424176,2.4851639.3764109,4.7514535-1.3679852,7.139435ZM25.6838978,19.1636182c1.4998517-2.2913174,2.702986-4.2280268,3.5669234-6.3692461.8107176-2.0093238,1.2176096-4.0697659.9497081-6.2304143-.2489034-2.0074153-1.7837565-2.8333695-3.615467-1.9948485-1.5079485.6903104-2.2473205,1.9938123-2.5246907,3.4962836-.6872652,3.7227973.2018031,7.2434426,1.6235262,11.0982253ZM27.9328625,47.5769965c.3909655-.0640868,1.1828779-.283162,1.9799185-.30377,1.2196424-.0314989,1.4486145-.5077248,1.0941069-1.6258339-.4514519-1.4238669-.8559966-2.8811148-1.0781857-4.3545192-.2791889-1.851359-1.0981831-2.6237736-2.9771128-2.0233075-.9544821.3050282-2.5060574-.1471956-2.8168324.6922665-.3971854,1.0728962.785177,2.0226519,1.5613453,2.8765575.3225038.3547983,1.0194597.713879.6091048,1.2483234-.4474234.5827025-1.0733826.0945389-1.5347421-.1939522-1.235532-.7726155-1.8880072-1.9837621-2.3318382-3.3259688-.3251393-.9832741-1.0933509-.6170562-1.7346393-.5479575-.6284678.067703-.6286581.5162155-.5592396,1.029925.4284146,3.170494,4.2591556,6.5751835,7.7881143,6.5282366ZM19.7135368,37.0622244c0,.1727626-.0453239.361206.0080412.515507.203598.5886766-.5832074,1.6258128.7076802,1.7179726,1.0390659.0741741,1.6591329-.2931963,1.8223608-1.5087203.3226545-2.4027424,1.7669576-3.9152798,4.1237522-4.5752544.4182904-.1171453,1.0275168-.031594,1.0727667-.8471914.1427996-2.5739507-1.1921483-4.0157293-3.6801618-3.8496598-.2299766.0153423-.4603179.053566-.6895306.0471267-1.0136548-.0285277-1.5475494.4762577-1.8503043,1.4322307-.7316242,2.3101385-1.4442212,4.6168405-1.5146046,7.067989ZM38.550183,40.7981436c.0354904-2.2181796-.5145924-2.7114502-2.7419393-2.4933901-1.2015456.1176317-2.4044817.2326306-3.6095378.2987158-.8144501.044663-1.1512469.3559614-.9349473,1.1946411.5163476,2.0020439,1.0269485,4.005991,1.4996164,6.0186402.1875869.7987536.5889251.9209954,1.3618895.8031839,2.3735856-.3617558,4.3788385-2.941596,4.4249184-5.8217909ZM139.6572686,7.2171441c.1106848.6087506.2645524,1.6263996.4926151,2.6271361.0946129.4151579.105324.9790288.6818726,1.0858701,1.2359205.2290249,2.4768953.4336882,3.7202279.6185683.5758719.0856306.726652-.2469948.5193135-.723464-.7997792-1.8378406-1.6260771-3.6695908-3.0336818-5.1420488-.4305479-.4503946-.993964-.8948944-1.6680333-.6459751-.8109873.2994824-.7030199,1.0795312-.7123141,2.1799136ZM37.2856872,37.3955371c-1.0611753-1.5518925-2.4026895-2.2273258-3.7529216-2.8348974-1.0903956-.4906273-2.5727611-1.3835179-3.3868967-.6677039-.8651851.7606991.2992286,2.1910159.4437411,3.3507428.077933.6253988.4673018.8181033,1.1149634.7367075,1.759564-.221137,3.5275921-.3748671,5.5811138-.5848489ZM81.6578007,8.8804775c.7608154,1.4049983,1.5212078,2.7409031,2.2152718,4.1104162.6780027,1.3377975,2.4132737,1.7452526,3.5323979.793969.3360513-.2856573.2561252-.5838074.1433679-.9260073-.6589172-1.9997705-3.4880415-3.95814-5.8910376-3.978378ZM24.8920461,38.7681113c.9718017-.1192918,2.0561703-.2334447,3.1336423-.3938996.4375978-.0651653.9748469-.1219034.7907282-.82394-.2615997-.9974428-.5141774-1.9973386-.7870988-2.9916727-.1434393-.5225914-.4924988-.5067521-.9454548-.3754381-1.4674091.4253668-3.0006259,2.293633-3.1477898,3.7999849-.0692415.7087296.1504549.9747835.955973.7849656ZM24.8509173,23.1811556c-1.1997032,1.500198-1.9158529,2.9860793-2.6505593,4.5870546q4.2006226.1110232,3.0737876-3.5346818c-.0833202-.2691836-.2094849-.5250973-.4232283-1.0523728ZM30.9108053,62.120863c-.3482797-1.509101-.9971916-2.3202257-2.2928691-2.1758004-1.1223756.1251073-1.8506003.8256952-2.2606221,2.3944738,1.6378667-1.1444374,2.9550271-1.0230733,4.5534912-.2186734ZM87.8285215,37.9314512c-2.5008657.6727053-3.1081096,1.155286-3.3848957,2.5792375,1.4496666-.3031038,2.4213308-1.1748261,3.3848957-2.5792375ZM53.2829528,48.699758c1.0650876-.0432567,1.9468548-.4487028,2.433813-1.4963175.0524082-.1127467-.0804918-.4460805-.112144-.4439975-1.0455317.06857-1.6540074.8679157-2.3844288,1.4636872-.1611686.1314514-.1254985.293429.0627598.4766278Z"/>
  </g>
</svg>