<?xml version="1.0" encoding="UTF-8"?>
<svg id="Layer_2" xmlns="http://www.w3.org/2000/svg" viewBox="0 0 112.593214 152.1684426">
  <g id="Layer_1-2" data-name="Layer_1">
    <path d="M90.6775125,42.5537816c3.8496761-5.3418286,8.3768225-9.917059,14.3807036-12.8663747,1.6506959-.8108805,3.3350436-1.5777603,4.8614815-2.62892.9594974-.6607149,1.8276844-1.4069671,2.4099724-2.4353168.5692638-1.0055397.2027553-1.6861077-.9682975-1.7951591-.8642446-.0804685-1.6962455.0796941-2.5112797.3641852-2.8348434.9893475-5.4050488,2.4892441-7.8100228,4.2444154-5.2874085,3.8588282-10.0484276,8.2456651-13.4254303,13.9521013-.1712156.2894192-.3835455.4536651-.7327352.3686909-1.0764337-.2621035-2.1461089-.5413145-3.0931452-1.1524669-1.6969495-1.0951604-2.5766824-2.7997836-3.3216674-4.5711471-1.4876469-3.5368837-1.5390397-7.2799021-1.3495198-11.0184851.1094738-2.1597667-.0002112-4.2834176-.4178309-6.389961-.6247399-3.1508038-1.0585518-6.3123086-.8869138-9.5359071.0367494-.6892977.0257668-1.3842276-.011757-2.0739477-.1113042-2.0444496-.4958354-4.0230741-1.521017-5.8306238-.8165126-1.4392813-1.6541456-1.5812804-2.7164287-.3494713-2.5721063,2.9824746-4.6956868,6.2693639-6.3584213,9.8392657-.716895,1.5392509-1.0291945,3.202971-1.085797,4.8972453-.1538969,4.6063477.9114838,8.9531264,2.8404051,13.1134123,1.2992534,2.8023181,3.2379604,5.144987,5.3419694,7.3502328,2.4529875,2.5710503,5.2316508,4.7239176,8.5244537,6.1437682.6792304.2928688,1.3722594.5537051,2.2467825.9046549-.3431352.0440007-.4742926.0624458-.6058724.0774413-2.3446401.267102-4.535665-.3092019-6.6343939-1.2773586-2.1129499-.9747744-4.1766895-2.0569106-6.2971723-3.0141551-3.5937679-1.6223243-7.1242451-3.367921-10.6153681-5.1989847-2.7134014-1.423089-5.2853669-3.1049726-8.0927538-4.3570572-4.541297-2.0254413-9.2374766-3.2951966-14.260388-3.027461-1.6925142.0902543-3.335114.4288134-4.8832355,1.1414844-1.0862899.5000594-1.2956629,1.055595-.8400266,2.1625827.2479529.6020707.6299496,1.1247289,1.0201832,1.6393613,1.7015256,2.2441073,3.9157828,3.8774141,6.3040716,5.3095145,5.0900037,3.0523126,10.4648504,5.5414159,15.854059,7.9967266,4.2213942,1.9232188,8.6898964,2.8971484,13.3107468,3.1172224,5.0849348.2423208,10.0610294-.4966802,14.9539098-1.8570417.3846719-.1070098.776384-.1882527,1.2123783-.2929392-.039143.1541785-.0424519.2270437-.0742732.2839279-1.5082744,2.6947451-3.0000749,5.3990647-4.8271257,7.8997138-2.4666453,3.3760875-5.3303532,6.411715-8.1053556,9.5258398-1.3830307,1.5520639-2.9659304,2.4769943-5.0695169,2.8999645-5.8684997,1.1800642-11.669203,2.6838329-17.5417859,3.8648827-6.071959,1.2211785-11.6914498,3.6069329-16.9774503,6.8153952-3.2245138,1.957293-6.2012155,4.2353336-8.9745987,6.7842779-.3360951.3089203-.6724719.4205061-1.1272633.327647-1.153875-.2357735-2.3332352-.2882223-3.503584-.3266614-4.0498266-.133199-7.9891937.473659-11.792053,1.9011128-1.7769252.6669806-3.4503607,1.5392509-5.0413565,2.5685158-.7577981.4902737-.7504059.8960659.0208387,1.3904229.4839376.3102579.9873762.5971426,1.5055287.8455179,2.1441376,1.0279977,4.391765,1.7914982,6.6292546,2.5847081,3.9874511,1.4135848,8.0968371,2.1325215,12.3178089,2.240024,4.6445051.1182739,9.1765092-.5268823,13.6230463-1.8990008,5.7714869-1.7810085,11.5436073-3.5463879,16.9786471-6.2376129.0934927-.046324.2013473-.1341142.3452473.0045761-.0518857.110037-.0977872.2371111-.1669915.3499642-1.446603,2.3591428-2.9747305,4.6616126-4.6674559,6.8546791-2.5280352,3.2754138-5.6662371,5.7173484-9.5952553,7.0814412-2.4152525.8384778-4.8504989,1.6195082-7.2645546,2.4611541-1.3260762.4623244-2.6135726,1.0272937-3.9643596,1.4304107-4.2763775,1.2763026-8.4268777,2.8505429-12.1767954,5.332254-3.4146673,2.2598771-6.6251713,4.7705232-9.3215356,7.8728206-3.2419733,3.7299941-4.9525806,8.2152518-6.1887545,12.9123466-.4419081,1.6789972-.5841184,3.4043888-.5277271,5.1390029.0414663,1.2751762.3751678,1.5702978,1.6405582,1.5933894.7655422.0140098,1.518905-.0462536,2.2555123-.2668204,1.2796818-.3831231,2.5576036-.7722303,3.8404535-1.1444412,2.0598675-.597565,3.9192324-1.5958534,5.6728548-2.8090062,2.5973099-1.7968487,4.7902355-4.0265942,6.8727722-6.3807385,2.2454449-2.5382433,4.600434-5.0090423,6.3592661-7.910626,1.9556033-3.2262738,4.1064291-6.280276,6.6157375-9.0942103,2.886025-3.2363412,5.6946088-6.5444212,9.6532659-8.578733,1.4043623-.7216823,2.6663734-1.6823765,3.966894-2.6765112.0355526.3955841-.1384791.6237543-.2494313.8688911-.959427,2.1211165-2.2097515,4.1013602-3.079769,6.263591-1.7390494,4.3217158-3.1777674,8.7500894-4.5155302,13.2080315-1.2185032,4.0607387-1.8705587,8.2186311-1.6907542,12.4738178.075822,1.7933991.305893,3.5760972.5232918,5.3587953.4871056,3.9933648,1.3143192,7.9059092,2.7423363,11.6751871.3337015.8810001.5856672,1.8039593,1.0982581,2.6068844.4942161.7741311,1.0702384.7571644,1.5296763-.0325957.4072003-.6999283.6835248-1.4602608.9492188-2.2222829,1.7159578-4.9214633,3.0464693-9.9545124,4.3491019-14.9961505.8688911-3.3630633,1.3647264-6.7758298,1.2793298-10.2493525-.0942671-3.8339766-.7537852-7.6000161-1.533126-11.3465545-.4029762-1.9373694-.9928675-3.8553786-1.0271529-5.842944-.0694155-4.0217365,1.0218024-7.7746814,3.1817099-11.1387303,2.2774774-3.5473735,4.7423628-6.9747834,7.1400854-10.4444341.635652-.9198615,1.3253722-1.8024104,1.9902407-2.7021372.0155587.5784159-.1094034,1.0813618-.2359847,1.5838852-.5511003,2.1883496-.6243175,4.4183766-.5664477,6.6576966.0121794.4692941-.0883535.729356-.6357929.7320312-1.0176487.0051393-1.8836534.4471882-2.5975211,1.1396539-1.2085063,1.1723201-2.3169725,2.4375697-3.3086432,3.8009585-.4372616.6009443-.7631485,1.2580687-.9766049,1.9732036-.5533531,1.8542257-.5156885,3.7497064-.2244389,5.6178715.9773793,6.2696455,4.0088531,11.4232918,8.9828357,15.2976082,4.6427451,3.6163666,11.3794318,1.9639107,14.1553495-3.2305683,1.1243065-2.104009,1.547699-4.3685326,1.6992727-6.7093711.1579098-2.4382737-.4022018-4.7586958-1.1674624-7.0450438-.1161619-.3473593-.2785774-.6959154-.1706524-1.0754481.6934514-2.4372177,1.2880596-4.8923876,1.3924645-7.4695628,1.3015062,1.7792484,2.8657495,3.1856524,4.7905875,4.1646509,2.0096714,1.022084,4.1074147,1.8550705,6.40207,1.7106073,2.8519509-.1795934,5.1817364-1.4953206,7.0499719-3.6467095.6390313-.7359033,1.1433852-1.56016,1.6273227-2.3990602.230775-.4001602.4142404-.3719997.5962274.0332293.1887455.4204357.3893888.8353801.5829216,1.253563,1.3157272,2.8425875,2.4227854,5.7868343,4.0464473,8.479749,1.9103354,3.1684745,4.2783487,6.001417,6.6023613,8.8639985.4221957.5199829.8977556,1.0893875,1.6468943.9720992.780256-.1222164.9618206-.8685391,1.1756993-1.4910965,1.2617999-3.6728284,1.8552817-7.4383047,1.702652-11.3366983-.1336214-3.4141745-.6945778-6.7437268-1.8264876-9.9519076-1.9036473-5.3954039-4.1615532-10.6422613-6.9404277-15.6545421-2.9771241-5.3697779-6.9032559-9.8855897-12.0012853-13.3439761-1.4691313-.9965988-2.9447396-1.997844-4.7810834-2.2105963-.2918832-.0337926-.5058323-.2216228-.7024627-.4148036-.5589148-.5489882-1.0806578-1.1386683-1.6657618-1.657384-.8075717-.715839-.780256-1.4599792-.3746046-2.4015243,1.8668979-4.3330504,4.0611612-8.4787634,6.8235618-12.311684ZM77.735175,37.6067627c-2.958679-2.4817816-5.5068489-5.3157802-7.3039089-8.7583264-1.7308829-3.3158945-2.5429602-6.8829803-2.8816602-10.5967822-.2616107-2.8681431.0271044-5.6151963,1.2782738-8.2193351,1.400983-2.9158751,3.3146273-5.510017,5.2260891-8.1172534-1.0023013,3.0079598-.8042628,6.1791096-1.4426605,9.2168491-.3741117,1.7800933-.8324233,3.5405446-1.1184632,5.3416174-.4582411,2.8846874-.1041233,5.6854567.6806384,8.4653871,1.1131127,3.943028,2.442709,7.7890432,4.889642,11.1431656.5258966.7208374,1.1026933,1.4044327,1.5809988,2.1982761-.3036402-.2237349-.6205158-.4316999-.9089493-.6735983ZM78.5941395,36.7940517c-2.0736661-2.5225439-3.5304068-5.3938551-4.6447867-8.4402539-1.0063141-2.7512068-1.8325421-5.5554961-2.1435744-8.4867187-.1796638-1.6925846-.0116866-3.3770027.3790398-5.0055927.6999283-2.9170719,1.1240249-5.8781446,1.6355597-8.8264043.2250021-1.2965077.6205158-2.5503523,1.0634799-3.7882863.0518857-.144956.058785-.3606651.2557674-.3648892.1883231-.0040833.2247909.2071202.29132.3454585.8150342,1.693711,1.0810802,3.5106241,1.1760513,5.3613297.0319621.6207974.0354822,1.2456781.0073921,1.8666163-.1443928,3.1948045.1341142,6.3457491.8565709,9.4650132.2803374,1.2106183.354681,2.4615765.3859391,3.7039457.0659659,2.6245551.0682891,5.2510111.2709037,7.8707086.2265509,2.9300962,1.1213496,5.6333598,2.7491652,8.0876145.0851854.1284821.1594586.2641451.2388007.3964289-1.0398251-.5172373-1.8115626-1.3212889-2.5216286-2.1849703ZM74.9679871,46.4480216c-4.6442939.3793214-9.247896.123202-13.7743384-1.0589742-2.2625524-.5908065-4.3865553-1.5502335-6.484369-2.5557732-4.9446957-2.3701958-9.8405329-4.8363483-14.6054241-7.5567898-2.4046219-1.3728226-4.3718415-3.2095888-5.9787479-5.4463743-.2221157-.3092019-.5896801-.7098549-.3485561-1.0423595.204093-.2814638.6855665-.0480136,1.0328554.0398471,2.5803432.6526891,5.0001014,1.7342621,7.4288005,2.7921803.2198628.0957456.4160004.2947696.8271432.1897311-.8466443-.7594877-1.7879078-1.2156872-2.7043901-1.7581985.2454888-.148124.4236742.002816.5974242.0604042,6.4141086,2.126819,12.5406989,4.8541598,18.1380133,8.688066,2.6073773,1.7859366,5.2462942,3.5213251,8.2582669,4.5746672,3.7861038,1.3239642,7.6621099,2.1596963,11.6984899,2.0927448.2985009-.0049281.597213-.0006336.8958547-.0006336-1.6128905.5669405-3.2899165.8433355-4.9810227.9814625ZM74.232647,44.1230938c-3.1690377-.5192789-6.2789384-1.2587727-9.2150891-2.5992107-2.1883496-.9989924-4.1526827-2.3806855-6.1793912-3.6573401-5.0513534-3.1818507-10.4479541-5.6518049-16.0401293-7.712658-.532444-.196208-1.0562286-.4161412-1.5650881-.6836656,1.7776292.1712156,3.4500791.8193287,5.2043351,1.0755889-3.493939-1.7634786-7.2916591-2.2307311-11.1250021-2.5966763,1.1184632-.5056211,2.2935993-.6493803,3.4735227-.7379449,3.9748493-.2980785,7.7075891.7680766,11.4120276,2.0254413,3.3463078,1.1358523,6.3299088,2.9638887,9.3427264,4.7506701,3.6510744,2.1653988,7.5165908,3.9162052,11.3320519,5.7620531,1.5760003.7624445,3.1562951,1.5158777,4.7341258,2.274591,1.8922423.909935,3.819122,1.7234907,5.9000394,2.1597667-2.4331344.5024531-4.8563422.3354615-7.2741292-.0606154ZM34.5973587,107.4377409c-1.5329852,1.7501024-3.0549878,3.5099201-4.6009268,5.2485471-.7252023.8155974-1.2893268,1.7362333-1.8685171,2.6513076-2.1891944,3.4587385-4.8741537,6.5334386-7.4870223,9.6648821-2.1444192,2.5700646-4.358958,5.0641664-7.0760907,7.0610953-3.0604087,2.2491762-6.5541365,3.4116401-10.2297809,4.1301543-.5051987.0987728-.4903441-.1473496-.3508794-.5057619.5699678-1.4644849,1.291298-2.8539925,2.0823254-4.2081588,1.7463711-2.9893739,3.733655-5.8152764,5.8206269-8.5742273.436628-.5772191.8236935-1.191962,1.1747137-1.8378926-.4377544.1139091-.6744431.4544395-.9357722.7487163-2.9312226,3.3012511-5.5676051,6.816592-7.6714029,10.7092832-.4482442.8293256-.8061637,1.7072281-1.2232201,2.554154-.1657243.3365879-.2413352.9653407-.6147429.8838865-.4086787-.0891983-.2723117-.7032372-.2989233-1.1019893-.1202452-1.7983272.1674844-3.5518792.7789184-5.2284123,1.386058-3.8007473,3.0079598-7.4854734,5.6854567-10.5987534,2.3263358-2.7048125,5.1378765-4.8032598,8.1839937-6.6234817,4.4431578-2.6549684,14.3835196-6.8703081,18.9364329-7.9523035-6.848695,3.5156226-13.6225535,7.1266387-19.1917075,12.5495695.0659659.1051089.1319318.2102883.1978977.3154676,6.3646166-5.2664994,13.4289503-9.3474432,21.0334017-12.5555536-.7817344.8898002-1.5644545,1.7785444-2.3447809,2.6694711ZM48.1512007,119.8695996c.5989026,4.0132884.4685197,7.9919394-.4880912,11.9296873-1.3100951,5.3925878-2.5614757,10.8008047-4.1022754,16.1345372-.2276773.7880706-.5474394,1.5496703-.8120069,2.28846-.2489385.0105602-.2870959-.1113746-.3245493-.2141603-1.1650688-3.199099-2.5370465-6.3321617-2.9928236-9.7523907-.3891072-2.9194656-.8465035-5.828019-.9137366-8.7832484-.0706828-3.1101119.2557674-6.1698166,1.1179704-9.1539105,1.4702578-5.088314,2.8922907-10.1940172,4.8288154-15.1337848.2748461-.7010547.6033379-1.3809187.9069781-2.0705684-.7247095,3.5054848-1.2453261,7.0302596-1.8561265,10.5387716-.5335,3.0642104-.8939539,6.1452466-1.0831922,9.2511345-.2493609,4.0930529-.427335,8.1867394-.4001602,12.28817.0033793.5097748.0442119,1.0130023.1599514,1.5079928.0513928.2199332.1038417.5029459.4033282.4680269.2668204-.0311173.3399672-.2903344.3555962-.5280087.0348486-.5311063-.0752588-1.0560174-.0976464-1.5823364-.1568538-3.6825437-.1554458-7.3638202.0481544-11.047068.1550937-2.8057677.3862207-5.6022425.7530812-8.3867491.5839072-4.4325977,1.4099944-8.8194346,2.5524644-13.1440368.0755404-.2856879.1871263-.561942.3078643-.9195799.1165139.2531626.0158403.4114244-.0268932.5647581-.6436074,2.309862-.3101171,4.612191.0456904,6.9150129.4570443,2.9580454,1.1755585,5.867162,1.6176074,8.8292907ZM25.794398,83.4709341c7.5261653-6.4130526,16.2516847-10.2984925,25.9229733-12.1368075,4.5705839-.8686799,9.1187803-1.8254316,13.5953787-3.1504518-3.9787214,1.7068057-7.9382233,3.4516279-11.8498524,5.3064872-3.8743165,1.8371182-7.6614059,3.8401015-11.4183637,5.9029258-4.5442539,2.4950874-9.1035736,4.9604655-13.8385443,7.0836236-1.2023814.5391321-2.4794584.8622734-3.710493,1.3176281-.3349687.123906-.6885233.221482-1.0325034.5699678.51069.0574473.8731152-.0743436,1.2384268-.1712156,3.5944719-.9524573,6.8804459-2.6313137,10.1300225-4.3733199,9.3234365-4.9979894,18.68848-9.90495,28.5706904-13.7401938,1.0520749-.4083267,2.0839447-.8681871,3.128205-1.2969301.3117363-.1279893.6334696-.2316198.9506972-.3463737.0395655.0579402.0792013.1158803.1188372.1738909-.816583.7499131-1.6078216,1.5297467-2.4539027,2.2446705-4.7731985,4.0325783-10.124672,7.2056992-15.4417898,10.4414772-6.4809897,3.9441544-13.4698534,6.4768361-20.8983019,7.8676109-2.6099117.4886544-5.2559392.6074212-7.9025299.7023219-.1864223.0066881-.3943873.0201347-.5062547-.1491097-.1290453-.195504.0566025-.343276.1529113-.4877392,1.4570928-2.1839143,3.2594328-4.0670749,5.2443934-5.7584627ZM41.7180134,90.4342422c-2.7377602.7325944-5.366117,1.8332461-8.1489339,2.4091276-2.0771157.4297287-4.174507.6952818-6.2940043.8160902-1.3343835.0761741-2.6683447.1178515-4.0038546.1555162-5.6635619.1597402-11.084803-.9183127-16.2951926-3.1229249-1.0829106-.4582411-2.167722-.9088789-3.2067727-1.4609648-.1982497-.1053905-.4867536-.1620635-.5187861-.4112132-.0361158-.2815342.2751277-.3365879.4575371-.4499338,2.9392483-1.8253612,6.178124-2.7298753,9.5913833-3.0621687,2.1312542-.2074018,4.2668029-.4107204,6.4127006-.2825902.7978563.0475912,1.5918406.1605146,2.5176862.2573866-.7249911.9437979-1.4344236,1.7314461-1.9815814,2.6192047-.5158997.8369994-1.0775601,1.121068-2.0824662.9522461-1.2404684-.2083874-2.5077596-.3551034-3.7789933-.3308854-.1613595.0030977-.3231413-.0030977-.4837968.0080961-.2141603.0148546-.4337415.0582922-.471547.3139892-.0405511.2747757.1979681.3499642.3872064.4084675.7994755.2474601,1.6313356.2720301,2.4581268.3213109.7577981.0451975,1.522073-.0537865,2.2750838.1032785.1995169.0416071.4670413.0280197.4982994.2854063.0965904.7951107.731116.7035188,1.2145608.6840176,3.2200081-.1299605,6.438045-.3075827,9.6222894-.8477707,1.5702274-.2664684,3.1436229-.4278982,4.7421515-.3914304,3.4560632.0791309,6.90924.0159811,10.3509413-.3596091.3160308-.0344966.6391017-.0045761.9589342-.0045761-1.3696545.6450858-2.799502,1.009623-4.2209718,1.38993ZM34.9293706,88.7067386c1.2903124-.353273,2.5664742-.7833537,3.8772733-1.0252521.5981282-.110389,1.2624336.1722012,1.9006904.2390119,1.7615778.1845918,3.5310404.2380263,5.3112041.3234229-3.6714203.4018498-7.3702971.4301511-11.0891679.4628172ZM54.0900311,84.984207c-2.2417136,1.3339611-4.6017012,2.1686372-7.2638506,2.0488145-1.896748-.0853262-3.8025073.0556169-5.829075-.1737501,8.3861154-3.3211042,15.6863634-8.2163783,22.7926562-13.45521-1.1198008,1.6928662-2.383924,3.2657689-3.6352342,4.8470493-1.3003094,1.643163-2.642437,3.2534487-3.9348615,4.9026662-.594397.7583613-1.3072087,1.3410012-2.129635,1.8304301ZM56.1348327,85.3986586c1.4321707-2.3869512,2.9993005-4.674144,4.9080167-6.7052174-.9720992,2.7328321-3.4410678,4.3460042-4.9080167,6.7052174ZM80.8749962,68.2819549c.1728348.5080148.1347478.7932098-.4445129.9658335-3.6781085,1.0959348-5.7990137,3.7210532-7.0244163,7.2150626-.0871566.2485161-.0828622.547721-.3857983.7739199-.7397754-1.6608337-1.2509582-3.367569-1.8063529-5.0655745-.5439897-1.6629457-.2433768-2.970084.9311961-4.2710974,2.4828376-2.75001,4.9413164-5.5260684,7.2229475-8.4506733.1067986-.1368598.221482-.3582011.4263494-.2901936.2107107.0699788.1618523.3149748.1527001.4880912-.0340742.642833-.0948304,1.2841171-.1344662,1.9266685-.1429143,2.314086.3230709,4.5353833,1.0623535,6.7079631ZM73.6923885,90.3922831c.9445019,2.2638196.8684687,4.586213.5098452,6.9317683-.1096146.7166134-.1712156,1.4494894-.4638028,2.2828983-.3128627-.533148-.5593372-.9611166-.8132742-1.3845092-.5353304-.8923347-1.1811202-1.7055384-1.8581681-2.4896665-.3228597-.3739709-.3918528-.7329464-.2703404-1.1996357.9514012-3.6509336,1.4327339-7.3610042,1.3745122-11.1436584.3786174,1.2177992.4812623,2.4857241.6713454,3.7347814.170934,1.1226873.4160708,2.227915.8498828,3.2680217ZM71.2036372,84.9819542c-.0216132,3.0937085-.5239958,6.1388401-1.0944564,9.1718628-.0583626.3102579-.1725532.426631-.4465545.1862815-.7811712-.6851441-1.6166922-1.2936917-2.5114205-1.8240236-.3926273-.2326758-.2601323-.5948898-.1631195-.9281689.6365673-2.1885608,1.2724305-4.3772623,1.9159675-6.5637111.7452667-2.5325408,1.4301995-5.0770499,1.6093705-7.8000962.3954433,2.6194159.7082356,5.1783571.6902129,7.7578555ZM69.5558981,72.583184c-.035623,3.7161955-.3258166,7.3932479-1.4720882,10.9665291-.7096437,2.2120044-1.5268603,4.3916242-2.0671892,6.6576966-.1102482.4625356-.0190787,1.1084662-.414522,1.3386076-.3979073.2315494-.8827601-.2338726-1.3464221-.3382776-.923452-.2080354-1.8385966-.3809407-2.7983756-.2275365-.8396746.1341846-.9442907.0313285-.9230296-.7936322.0936335-3.6222803.658814-7.1421974,2.300921-10.4245809.5924257-1.1841475,1.3904229-2.2194669,2.2550899-3.2121232,1.4196393-1.6299276,2.8834202-3.2218386,4.2483578-4.9955253.2356327.3829823.2202852.7092917.217258,1.0288425ZM63.9349994,92.795849c-.6747247-.2373223-1.2595471-.3112435-1.5094712.6657837-.1022225-.7580093-.4728142-.6183334-.8602317-.4184645-.1021521.0526601-.191984.131439-.2970225.1757917-.2136675.0901839-.4425417.4205061-.6546604.1446744-.1927584-.2505577-.1466456-.6316392-.0514632-.9342234.0971536-.3089907.3862207-.1452376.5999587-.1332694.9408411.0527305,1.8784437.1282709,2.7728904.4997074ZM74.549241,105.9323529c.6569836,3.5007679.1239764,6.8239842-1.6007111,9.953738-1.4402669,2.6137134-3.9299334,3.8343286-6.9140976,3.5615945-2.9881067-.2730861-5.6667299-1.2199113-7.9281559-3.2062095-2.6363825-2.3154941-4.2937666-5.2538976-5.343307-8.5720449-.8626958-2.7270592-.9752672-5.462989-.2605547-8.239329.4573963-1.7766436,1.6673106-2.9867691,2.9877547-4.1277606.1668507-.1441816.3334199-.1597402.487176.0032385.9045845.959075,2.0428304,1.2323723,3.2892829,1.0298985,1.2727825-.2067682,2.3173245-.8966291,3.1898764-1.8165611,1.0305321-1.0865715,1.0027237-1.0900915,2.3434433-.452257,1.2474381.5934818,2.2416432,1.5270715,3.3038559,2.3722374.2977969.2368999.5746142.5181525,1.1690816.6354408-.6341032-1.1337402-1.4067559-1.908857-2.215806-2.6665142.8887442.4354312,1.6706899,1.0281385,2.3849096,1.7008216,2.8431507,2.6779192,4.3972563,6.0407713,5.1072519,9.8237071ZM89.3593213,61.7153573c.4528906.3138484.9112726.6200934,1.3571935.9435867.4476106.3247605.8762128.6755695,1.3243162.999626,6.1520755,4.4490715,10.1070717,10.5708746,13.2128188,17.3409314,1.3357916,2.9119327,2.6021676,5.8538562,3.7061985,8.8615345,1.6072584,4.3788112,2.3650565,8.9084216,2.0620499,13.565599-.160937,2.4739671-.4057923,4.9596911-1.1887939,7.3446711-.0699083.2127523-.1562906.4201541-.2350695.6300904-1.6832213-11.7654414-5.0445245-23.0094918-10.0278-33.7729839-.0644875-.1393943-.1503065-.2911792-.4003714-.3045554-.1460824.4192389.0796941.7825793.231479,1.1290938.9804065,2.236856,1.9596162,4.4728671,2.8090766,6.7648472,2.2137644,5.972975,4.0643292,12.0517629,5.1872277,18.3278149.4847824,2.7088253.767795,5.4538368,1.1730241,8.405335-.3976257-.4573259-.6707822-.75287-.9235224-1.0649583-1.7703075-2.1856039-3.4740155-4.4236567-5.0646592-6.7419668-1.7776292-2.5910442-2.7126974-5.5842198-3.8911424-8.4585582-.4544395-1.1084662-.8298184-2.252837-1.3426205-3.3327908-.3893184-.8197511-.4176197-1.5957126-.2538666-2.4667861.4868944-2.5892138.864667-5.2331292.3480633-7.8262854-1.0589742-5.3151466-3.639599-9.7181757-8.345494-12.6661538-.5032979-.3152564-.8110213-.7034484-.9936419-1.2575055-.7330168-2.2242542-1.1213496-4.5006756-1.1596479-6.9672505,3.2418325,2.1908136,5.5764757,5.1493518,8.1111285,7.9093588-1.2329355-2.980785-3.5609609-5.0781763-5.6959464-7.3626938ZM88.5373173,70.5067722c3.5641994,2.2121452,5.6396255,5.5179019,6.6700168,9.4821911,1.0059621,3.8702332.8827601,7.7531386-.3703805,11.5747247-.1507993.4598604-.328703.9101462-.6154469,1.3075607v-.0001408c.1130643-.3745342.2264805-.7487867.3387-1.1233913,1.7158874-5.729035.8389706-11.0555161-2.4879769-16.0000006-.1024337-.1522777-.2223973-.294136-.3455289-.4305031-.0908879-.1005329-.206909-.2240165-.3500346-.1301717-.134959.0884239-.1003921.2541482-.0482248.3797438.1056017.2544298.2116259.513154.3559483.7462523.5347672.8634702,1.0008229,1.7620706,1.4012646,2.6939003,1.182317,2.75177,1.6768148,5.6237148,1.5567104,8.6173128-.0706828,1.764253-.398893,3.4692282-.9240856,5.1471694-.075118.2399271-.3077939.5972834.2185956.6693742-1.2957333,2.5857641-3.3363812,4.2987651-6.2195902,4.5977588-4.8145239.4994258-8.5582463-1.4549103-10.9906063-5.6177307-1.876754-3.2119824-2.8064717-6.7588631-2.761415-10.4970941.0273156-2.2726902.4895696-4.4790624,1.5989511-6.5057709-.0823694.2877999-.1573466.5777119-.2478121.8626958-.6484651,2.0419856-.8936723,4.15923-.8285512,6.2730247.0768781,2.4956506.6964786,4.9178024,1.546643,7.2704683.3386296.937321.7687102,1.8286701,1.397463,2.6081517.1778333.2205668.3812927.6153765.6865521.4518346.3441209-.1843806.0550537-.5397657-.0528713-.7875777-.4046659-.9288729-.8869138-1.826206-1.253211-2.7690183-1.2630672-3.2508438-1.8132522-6.6032061-1.3533918-10.0922875.1814942-1.3763426.6044643-2.6943931.900994-4.0426456.0440007-.1997281.1448856-.4609164-.0449159-.5800351-.2357735-.1479832-.3201141.181635-.4871056.2754093.8330569-2.0019977,2.3490754-3.3313828,4.2646205-4.2249142,1.424849-.6647277,2.9410083-1.1126199,4.488989-1.3419869,1.4595568-.2162724,2.7491652.4367688,3.9557002,1.1856963ZM85.4382584,60.6760955c.2194404.229719.3270838.4778127.3440505.7958147.1128531,2.1097819.2099363,4.222239.7325944,6.2845705.0873678.3449657.0123202.5543387-.4039618.4687309-.7557564-.1372823-1.511372-.1036305-2.2607924.0316805-.403117.0727948-.5249814-.2107107-.6658541-.4677453-.6286823-1.1475389-.9584414-2.3918089-1.0599598-3.6834589-.1486168-1.8918199.0257668-3.7607594.521391-5.6005529.1434776-.5327256.2870255-.5307543.6295271-.1481944.7050676.7873665,1.4329452,1.5545984,2.1630052,2.3191549ZM82.506895,54.7871795c-1.5324924,3.9942801-1.7082841,8.0736047-.8527692,12.2294554.036679.1782557.1144019.3516538.0237252.6118565-.5999587-1.0372907-.8394634-2.1339295-.9244376-3.2409173-.1091218-1.4221738-.1003216-2.8531477.0437191-4.2802496.0703308-.696549.2600619-1.4703282-.477179-1.9560962-.452961-.2983601-1.4242858.082299-2.0578962.8139782-1.0104678,1.1669696-1.9780613,2.3708294-2.9698728,3.554132-3.5082305,4.1857712-7.0219522,8.3669663-10.5269442,12.5554832-.9529501,1.1388091-1.8384558,2.3299263-2.6586997,3.5721547.8696655-2.3014138,2.0894359-4.3958483,3.6350229-6.3023116,1.7591841-2.1697637,3.8216564-4.0614428,5.6580002-6.1577076,2.4894553-2.8418835,4.7917844-5.8413952,7.3086257-8.664552,2.3352064-2.6193455,4.3623373-5.4795333,6.0364768-8.5767618,1.2280074-2.2717749,2.5401442-4.4949027,3.979707-6.6386179,2.0031241-2.982897,4.4425242-5.5871062,7.0780619-8.0146085.1336918-.1231316.2875183-.2243685.4318407-.3358135-1.7457375,1.9774981-3.457964,3.9958993-5.0536767,6.1096236-3.4531768,4.5743152-6.6043326,9.3273789-8.6737042,14.7209524ZM70.0033679,117.2003398c-.0801165-.6924658.4357832-.9668895.8862098-1.2520142.7242871-.4586635,1.0931188-1.1490877,1.3990822-1.9051961.2235237-.5525083.4714765-1.0955828.7223863-1.6364749.0824398-.1777629.1617819-.4275462.4353608-.3358839.2475305.0829326.205149.3268726.2168356.679512-.4877392,1.8947767-1.2775698,3.7355558-3.2664729,4.7798162-.1550233.0813837-.3517242.2251429-.5080852.0771597-.1626971-.1540377.1296085-.2776622.1146835-.4069187ZM70.7044226,99.5823094c-.058433-.1527705-.2116963-.3672124-.0050689-.4950609.1624859-.1006033.3010353.0746252.3924865.2000097,1.2177992,1.6702675,1.8309229,3.5864462,2.2493874,5.4543297.0105602.2403496.012461.3593275-.1123602.4192389-.1243988.0597706-.2351399-.002464-.3052594-.0914511-.09828-.12461-.1898015-.2628779-.2473897-.4098051-.6631789-1.6901206-1.3226969-3.3817196-1.9717956-5.0772611Z"/>
  </g>
</svg>