<?xml version="1.0" encoding="UTF-8"?>
<svg id="Layer_2" xmlns="http://www.w3.org/2000/svg" viewBox="0 0 96.9662328 108.9201861">
  <g id="Layer_1-2" data-name="Layer_1">
    <path d="M96.567272,68.4552719c-.7162485-2.6251618-1.4722489-5.2476808-1.929615-7.9258083-.7083202-4.1475134-2.6733925-7.6079039-5.397108-10.7152629-1.5465771-1.7643862-3.2908671-3.3368405-4.8934381-5.0411035-1.7391697-1.8496159-3.6917439-3.4328615-5.6178903-5.0604839-1.8114607-1.5306103-3.5041065-3.1755208-4.6091741-5.3181549-.3463694-.6713763-.6304683-1.3749065-.9434175-2.0636811-.7505496-1.6516276-.2907058-3.0586879.8018636-4.3968156,3.8071453-4.6629656,7.6980887-9.261954,11.1084866-14.2344553.8454695-1.2326368,1.8312816-2.4027278,2.3890734-3.7882054.8267498-2.05311,1.5894121-4.1387041,2.1834871-6.2771538.2265083-.8154078.4327553-1.6368721.6303031-2.459988.0999852-.4162379-.0020371-.7858968-.3595282-1.0585436-.3454885-.2636173-.6037652-.0158567-.8799357.1443619-.1087945.0630964-.2211126.128285-.3403681.1636321-1.229003.3644835-1.8708682,1.2741505-2.2694325,2.4182541-.9417107,2.703344-2.3270231,5.2017625-3.7507109,7.6591077-1.6158399,2.7889041-3.4327514,5.4614157-5.0915365,8.2289572-.9934101,1.6573536-2.1258965,3.216594-3.387714,4.6822359-1.1760372,1.3660972-3.3463655,1.8464225-4.9657842,1.0808972-.7194419-.3400377-1.3902676-.7610106-2.0332891-1.2285625-1.6499208-1.1994919-2.9838091-2.7143556-4.2444153-4.2949585-1.793677-2.2487858-3.8340136-4.2016904-6.380002-5.5941052-1.3153888-.7193868-2.5554034-1.566508-3.6618474-2.5803446-1.4990621-1.3736952-3.2191817-2.3641872-5.1020526-3.0912822-2.353506-.9087861-4.7149954-1.7951085-7.0125075-2.843962-1.7189084-.7846855-3.3861173-1.6969953-5.2343017-2.1754487-.9420961-.2437965-1.8627747-.556966-2.7829027-.8759716-1.8719694-.6490228-3.7450399-1.3048728-5.7532777-1.4090424-1.3190227-.0683819-2.5805098.1652839-3.7928853.6787541-.1143002.0483409-.219571.1246511-.318455.201512-.0851195.0661796-.1660547.1529509-.1136396.2755098.051314.1201364.1666603.1347818.2750694.1141901.3712556-.0704741.7474664-.1267433,1.1096924-.2305826,1.1834701-.339377,2.393423-.4021431,3.5879597-.1887386,3.227055.5765666,6.2899273,1.7393899,9.3170119,2.9298523,3.1991957,1.2580735,6.25926,2.8635626,9.4804789,4.085408,2.0600473.781382,3.9431934,1.8538003,5.5955368,3.3188916,1.3820089,1.225259,2.9056819,2.2457026,4.5059955,3.1627474,1.4656419.8399637,2.7292213,1.9282386,3.8707372,3.1764017,1.7462722,1.9095189,3.2616864,4.0317816,5.2598486,5.7176552-.9911527-.4351778-1.9592913-.902069-2.9316142-1.3604813-3.1493132-1.4848021-6.1609266-3.2252932-9.213448-4.8936583-3.9498004-2.1586009-8.2186614-3.6000174-12.4425952-5.1021076-2.6398072-.9386275-5.1657546-1.9987127-7.369503-3.759355-.9284968-.7417403-1.9069862-1.4235777-2.8859161-2.0990283-1.2298839-.8485527-2.4360929-1.7444552-3.8552659-2.2719102-.1689177-.062766-.397353-.2247464-.5368148.0064968-.1316435.2181395.0331449.4128243.1864812.57029.0867713.0891938.1886284.172992.2991297.2282702,2.126337,1.0639393,3.9680796,2.5503931,5.8696151,3.9477632,1.761303,1.2944118,3.5533283,2.5486313,5.6260388,3.296428,1.8651422.6728078,3.7040769,1.413447,5.5673471,2.088347,3.6991216,1.3397795,7.3435708,2.7871422,10.7505,4.7880573,2.6256023,1.5420623,5.2495528,3.0923833,8.0330061,4.3461624,1.2649558.5698495,2.5435109,1.1163545,3.7735049,1.7548061,1.2384179.6428563,2.4605937,1.287034,3.8824645,1.4056288.0991043.0082587.2396121-.017068.2445673.1388561.0036338.1163925-.0918917.1907206-.1814709.2530462-.1367088.09503-.2779324.0312729-.4172289.002863-.9353791-.1909409-1.8700424-.3851852-2.8060821-.5724923-2.2758743-.4555493-4.5886375-.7430617-6.773446-1.5994327-1.1903523-.4664507-2.401076-.8870933-3.6202787-1.2723886-2.1601976-.6826081-4.1874854-1.6487646-6.160431-2.7477207-2.1579402-1.2020246-4.3077319-2.4432504-6.7494407-2.9888744-3.1478817-.7035301-6.1653312-1.7655975-9.0543306-3.1869728-1.875438-.9226607-3.7907931-1.8199947-5.3118233-3.2894907-2.1777611-2.1038734-4.3153299-4.2550966-5.8646599-6.9010702-.1951253-.3332106-.4091354-.6685133-.7504395-.937196-.1054359.1859857-.0463037.2907058-.0072676.3828728.1547128.3644835.2796392.7516508.4938696,1.0792454,2.4381851,3.7296237,5.2442672,7.0958652,9.2276529,9.2960899,3.2483624,1.7942276,6.605244,3.319222,10.2567956,4.0898127,1.8726851.3953159,3.6135616,1.1031406,5.2797245,2.0210663,1.2154587.6696145,2.4260723,1.3480382,3.6446694,2.0118165,2.4765605,1.3490292,5.1666906,2.2146499,7.7151016,3.3975143,1.9293398.8954621,3.9273918,1.5125513,6.0124354,1.8920105,1.0628382.1933634,2.1135636.4526862,3.1744747.6579422.4200369.0812655.4609449.2204519.2204519.5624717-1.1199332,1.5929358-2.2417935,3.1828986-3.5242026,4.6531653-.7153125.8201428-1.5263158,1.4802873-2.6224089,1.7082271-.6880038.1430405-1.3772189.2526058-2.0849334.2757301-2.412418.0787328-4.773522-.3217585-7.1368283-.7154227-1.8642613-.3104166-3.7157491-.7362346-5.610953-.7978994-3.1428714-.1022976-6.2623983.1482159-9.3525793.7458146-4.2342296.8189316-8.3202433,2.1040936-12.1566243,4.0788011-2.6117827,1.3444044-5.1931184,2.7478308-7.8557746,3.9911489-2.6883132,1.2552105-5.2360636,2.738471-7.5693083,4.5794978-2.9737886,2.3464586-5.8240822,4.8349666-8.5469718,7.4672859-.8713467.8424963-1.6195288,1.797421-2.171044,2.8832733-.9805816,1.930551-.5882939,2.7825173,1.4925102,3.3624975,1.1513713.3209877,2.335447.429672,3.5123101.5902209,3.0884742.4215235,6.1386281.261415,9.1594912-.5342821,2.5182944-.6632277,4.8677811-1.7938973,7.337129-2.5914663,1.7153847-.5541029,3.4150228-1.1565467,5.0108216-2.0119266,3.1964428-1.7135127,6.2768786-3.6191775,9.2708183-5.6625973,5.1971927-3.5470517,10.3849705-7.105225,16.0477329-9.8989742,2.5784176-1.2721684,5.2091402-2.3878621,8.0360343-2.9824877.2780976-.0583614.6252928-.1942444.8110032.0532961.1787731.2382907-.0945345.5062025-.2209474.7276455-.866887,1.5180571-1.7825553,3.0090256-2.6180043,4.5438203-.4703048.864079-1.1151432,1.4871145-1.9821403,1.9151348-.6664762.3291363-1.3616926.5842747-2.0830615.7439427-3.128226.6921882-5.9333171,2.0800883-8.5658567,3.8733249-2.2010506,1.4993374-4.0990624,3.3489532-6.0816432,5.1050808-1.7937321,1.5888616-3.3338674,3.5318557-5.7523968,4.2873605-.0336954.0105711-.062711.0353472-.0946996.0518646-2.181505,1.1313302-3.4937005,3.0227901-4.4584805,5.1876677-1.343083,3.0137606-1.9653476,6.1740854-1.6663831,9.4748079.2727019,3.0104571,1.5722341,5.2720164,4.5769101,6.4089625,2.5878876.9792602,5.0274491.9639541,7.396096-.5263537,1.0851366-.6828284,2.1067914-1.4536393,3.0362242-2.3400719,2.3499823-2.2412979,4.1293443-4.8988338,5.6055573-7.7680123.4934291-.959109,1.0473669-1.8541306,1.9264767-2.5007309.2308028-.1697986.4750398-.5664359.7400886-.3880482.2032739.1367639-.0347966.533291-.1214027.7981197-1.5035768,4.5956849-2.59967,9.2976315-3.6486886,14.0110302-.8054424,3.6191775-.9138514,7.2712797-.5187007,10.954875.2169282,2.0217269.4729476,4.0403707.6001314,6.0724485.110226,1.7591007.2016221,3.5223857.517049,5.2623262.2126888,1.1732843.4650743,2.3356672,1.0467062,3.3938805.3734028.6791945.8542237,1.2456305,1.6285033,1.4991171.3625014.1187049.6527667.075099.9264046-.2165979.3974081-.4235055.751871-.8767424,1.0419161-1.3766683,1.8106349-3.1206831,3.1516257-6.4343993,4.0637152-9.9237502.2963217-1.1335325.6404338-2.2512084,1.0416959-3.3536882.8501494-2.3355571,1.8204352-4.6378592,2.3197555-7.0828715.9831693-4.8137142,1.3157192-9.701096,1.498952-14.5979477.0949199-2.5373995.1474451-5.0785429.0052856-7.6177042-.0245558-.4380408-.0554433-.8756412-.0919467-1.4469222.3025983.7825933.5288864,1.4471425.8125448,2.0863649.7105776,1.6008642,1.4456008,3.1917078,2.7918772,4.3894379.1987591.1767359.2165979.4026937.21858.640654.0095801,1.1525826.0577558,2.3039539-.0896343,3.4549948-.4763612,3.7202639-1.4454907,7.2718303-3.5013536,10.4622167-.0676111.1048303-.1326896.2186901-.1650637.3376152-.0540669.1979883-.0586917.3970777.1557589.5221693.191051.1114372.3484616.0277492.4910616-.0949199.347856-.299405.6013977-.6794148.8001017-1.0811174,1.6734305-3.3836397,2.9443326-6.8841124,3.1599945-10.7045817.0490566-.8700253.0558287-1.7457766.11408-2.6306676.0949199.0270885.1343964.0282998.1607691.04757.1455731.1061517.2901553.2139551.4311035.326053,1.3660972,1.0864029,2.926714,1.7581096,4.6106606,2.1691721,3.1167189.7609005,5.7581779-.0122229,7.9408942-2.3918263,1.5806579-1.7232029,2.5201113-3.7552807,3.0603396-5.9992214.2557991-1.062728.4227347-2.1426341.5830634-3.284095.1137497.094149.1932533.1370942.2413739.2030536,1.7507318,2.3996445,4.1345197,4.2161155,5.9948168,6.5172064,1.3258499,1.6400654,2.9435067,3.0212485,4.2338993,4.6964409.4179998.5425408.8439278,1.0790252,1.3398896,1.5556066.2107617.202503.4375453.372632.7144316.4745993.4626517.1704593.8141966.0367787,1.0514962-.3867269.2314085-.4129344.3730174-.8597845.437215-1.327887.220507-1.6075812.1487665-3.2076746-.2773268-4.7694477ZM44.7213728,39.3692721c.0654088.2348771.518976.120687.787053.0530758,2.2891433-.5783284,4.5910049-1.09312,6.9338297-1.4007837.8563709-.1125384,1.7181376-.1867565,2.5845841-.1802596.4677721.0035237.936315.0053957,1.4034815-.0632065-.4442073.178718-.862097.3616204-1.3894418.2448976-.8747603-.1934735-1.7123565.1408382-2.5497324.3351926-6.451247,1.4973553-12.5306328,3.9408259-18.3263602,7.1363878-3.218466,1.7745169-6.3355703,3.7333677-9.667841,5.302959-5.1358582,2.419135-10.273368,4.8324339-15.5884948,6.8431493-.2400525.0908456-.7234061.1283951-.5901659.4618259.116007.2901553.5187558.0188298.7672872-.0710247,3.6449997-1.3179766,7.2222782-2.8010168,10.765696-4.37248,2.9001211-1.2862632,5.8127953-2.5442266,8.6043422-4.0557869,2.6145907-1.4156493,5.1994501-2.8841543,7.8384314-4.2572989,4.1743816-2.171925,8.5122302-3.9025056,13.058363-5.1164227,1.2522374-.3344218,2.4940689-.7073842,3.7406904-1.0626179-4.7403771,2.141533-8.9147037,5.2138752-13.1981,8.1034252-4.3331136,2.922915-8.6340734,5.891418-13.213351,8.4313502-2.7619807,1.5319317-5.7701805,2.4402773-8.6873695,3.5805269-1.7288188.6756708-3.462813,1.3493596-5.3024084,1.6658325-1.6736508.2880631-3.3594143.33266-5.0583917.2396121-1.5842367-.0867713-3.1640137-.1722212-4.7240799-.4780129-.4787837-.0939288-.9490885-.2202317-1.3922497-.4264787-.6630626-.3085446-.8631431-.7645343-.6204477-1.4560618.4168435-1.1874893,1.2372617-2.1068465,2.070233-3.0067132,1.9031872-2.055973,4.0887115-3.8031811,6.208882-5.6210836,1.9030771-1.6316966,3.8293336-3.2315698,6.0356147-4.4552872,2.4457831-1.3565171,4.9873669-2.5153763,7.5265282-3.6797413,1.13111-.5187558,2.2386552-1.0828792,3.3252783-1.6889569,3.6658116-2.0448513,7.6461141-3.164289,11.7377436-3.9196837,2.9231353-.5395676,5.8707163-.940059,8.8544703-.8727782,1.7118059.0385405,3.4005425.3523707,5.0968221.5637931,1.7511173.2183597,3.5039413.4081994,5.2654094.5176546.2326197.0144252.4635877.0556085.801258.0976728-1.4112998.3086547-2.749868.3299071-4.0737358.4732779-2.8538173.3089851-5.6597894.8578024-8.4080607,1.6887366-.2529361.0765305-.7037504.129276-.6157678.4453085ZM68.2183326,31.5474132c1.1784047-1.5267562,2.3407326-3.0658454,3.5018491-4.6057054.2401076-.3185651.5015226-.6609153-.0133791-1.0666922,2.0591663-.2995151,3.3236266-1.6160602,4.4355764-3.1510751.9225506-1.2735999,1.7089429-2.629126,2.4518394-4.0107495,1.2228365-2.2740024,2.6394768-4.4278683,4.0801225-6.5647764,1.901976-2.821168,3.2880041-5.9211493,4.8863907-8.9065.271821-.5077442.526629-1.0298034.9085659-1.467624.135938-.155924.3100862-.4015925.5243166-.2984139.2267285.109345.0376046.3587574-.0011012.5347226-.75567,3.4347335-1.7586602,6.8116562-3.7496098,9.7308273-1.9567586,2.8691785-3.8992572,5.7673175-6.1906028,8.3949018-2.121547,2.4327894-4.2555921,4.8719655-6.0546097,7.5416141-1.7629547,2.6162424-4.1829707,4.4928367-6.4728297,6.5390093-.3349724.2992949-.6693942.5992504-1.0041464.8988757-.0252165-.0178388-.0504331-.0356775-.0757597-.0535163.9254136-1.1709719,1.8615634-2.333575,2.7733777-3.5148978ZM71.8625065,36.9099448c.4387566.991373.676772,1.9330837.9588337,2.8566253.4212482,1.379201.8690893,2.7461791,1.4713129,4.0589802.0651886.1420494.2136247.2986342.1227792.4482816-.1100057.1811406-.2949453.026648-.4434365.0090295-.8278509-.0981132-1.6539951-.0547276-2.4756245.0467992-.3413591.0421744-.4377105-.0841285-.378303-.3828728.4434916-2.2319381.6356437-4.4876612.650179-6.7606725.0003303-.0493319.0322639-.0985537.0942592-.2761705ZM56.4737068,46.5422184c-.0334752-.18059.0645829-.2709951.1961163-.3430109,1.4763782-.808911,2.3590668-2.1295304,3.107249-3.57403.4890245-.9443535,1.0481377-1.8488451,1.6281729-2.7406733.3445525-.5297673.6512251-1.0858524.7986702-1.7060248.2026682-.8524068-.0702539-1.2515767-.9263496-1.4126762-.0863308-.016187-.172056-.0354573-.3966923-.0820363,1.297495-.2810156,2.5172483-.2749593,3.65001-.7634332-3.8485488,4.9840635-5.1717009,10.8153582-5.8555753,16.9122524-.2489169-1.7000786.1310379-3.3427868.3598035-4.9958459.1449675-1.0481927.1925926-2.1142243.6001314-3.1141863.0784025-.1924825.1461237-.4842895-.0907905-.5833938-.2561295-.1071427-.3677319.1901701-.4557144.3629418-1.8588656,3.652873-4.7968665,6.5129119-7.1877018,9.7741028-1.3733648,1.8732908-2.8634525,3.6612418-4.3066308,5.4831085-.1852149.2337759-.4048409.4402432-.6085002.6594838-.0345213-.0270885-.0690426-.054177-.1035089-.0812655.2421998-.3438918.4732779-.6962625.7284163-1.030354,1.8698772-2.4487562,3.7900773-4.8608438,5.59862-7.3539767.9194673-1.2674334,1.9079773-2.4870765,2.7571356-3.8052733.3130043-.4858311.6226501-.9830042.5071385-1.6057093ZM38.654375,57.0909861c1.9031322-1.5459164,3.5319107-3.3942109,5.4620213-4.9135893,3.4079203-2.6826423,7.1618246-4.6254161,11.4343194-5.5002865.0467992-.0095801.0984436.0042945.1744235.0088093-.7055122,1.2459608-1.5473479,2.3635265-2.3950747,3.4802113-2.244216,2.9560599-4.3919705,5.985457-6.7314368,8.8689505-.552231.6807362-.3883786.7047414-1.1556658.1531711-.70342-.505652-1.4452705-.9491986-2.2134386-1.3489191-.1651738-.0860005-.3822672-.1747538-.088423-.3546831,2.6859457-1.6445802,4.6560284-4.1335287,7.1256515-6.0329169.7297377-.5612605,1.471423-1.100718,2.3238848-1.4688353.1560892-.0673909.4070983-.1503081.3399827-.3511594-.0811003-.2425852-.3308981-.1270737-.5209581-.094149-.3262182.0565995-.6099317.2103213-.8910574.3750546-1.8481844,1.0832096-3.4366055,2.5004005-4.995956,3.9447901-1.3433032,1.2443091-2.8224894,2.2915108-4.3680754,3.2579976-.2559092.1601084-.4999259.2174788-.8118841.1734325-.9664868-.1363234-1.9285689.0629863-2.8963771.1161722-.0068272-.1725515.1180442-.2409335.2080639-.3140504ZM46.3910594,70.8376282c-1.7904286,3.3424564-4.1374928,6.1332324-7.4361231,8.0885595-2.265138,1.3427526-7.1453072,1.095983-8.8268863-1.935286-.6194016-1.1165747-.9355442-2.3082484-.9857571-3.5596049-.1574657-3.9226568.9917033-7.5012016,2.9753302-10.838923.4911167-.8264194,1.2612119-1.3749065,2.0846031-1.8430089,1.6803678-.9551449,3.5031154-1.518938,5.3879684-1.8719694,1.2402898-.2323444,2.402012.117824,3.4684289.7474664.7595791.4483917,1.4783603.9652755,2.2255514,1.4354702.2820067.1773966.3301273.3739534.2162675.6789743-.2071279.5549839-.4389218,1.1066643-.4366093,1.718578.0015416.4280203.0254368.8582429.4465198,1.0877243.410622.2237554.7606803-.0415137,1.1020394-.2375199.1215128-.0698134.2263982-.1685874.3980688-.2990746-.3292464-.1543824-.706283.1182644-.8558204-.2298118-.1658345-.385956.1257523-.6790844.3085446-.9841053.1771213-.2954408.3342567-.2714356.5058722.0124431.4603944.7612308.6419754,1.6014148.6922433,2.4728716.1138047,1.973276-.3306779,3.8031811-1.2702414,5.5572164ZM50.9987469,65.6422525c-.6275502.4073185-1.2348942.8457998-1.9092987,1.3120303.0367787-.8791649.0638672-1.6635201-.0318235-2.4516192-.1195308-.9843256-.410622-1.9011501-.9473266-2.72801-.200521-.3089851-.1908858-.5191962.0296212-.8105627.7831439-1.0346485,1.6115454-2.0320778,2.4778268-2.995151,1.500879-1.6686955,2.6449276-3.5917587,3.9328425-5.4124141.6618513-.9357645,1.3505158-1.8518182,2.1511681-2.6813209-.4727273,1.6257504-1.0954324,3.1764017-1.732783,4.7209967-1.3751818,3.3328763-2.496106,6.7503216-3.4068191,10.2371399-.092222.3530314-.2544777.6082799-.5634077.808911ZM60.0855065,71.1677555c-.0791182,3.0941452-.2466595,6.1855375-.5996909,9.2654777-.3016073,2.6305575-.5808611,5.2633172-1.330695,7.8136003-.3198315,1.0876142-.6724775,2.1708238-1.0941661,3.2222099-1.015158,2.531233-1.7098789,5.158487-2.4779369,7.7677921-.7952566,2.7018024-1.9801032,5.2557193-3.3511005,7.7184602-.0350168.0628761-.0757046.1226691-.1157868.1825721-.4462445.6680728-.6736888.6724775-1.1306145-.0120026-.8194271-1.2273512-1.1904074-2.6127187-1.3846517-4.0549059-.3074985-2.2836925-.3142706-4.5950242-.648307-6.8779459-.3152066-2.1543064-.5648392-4.3165412-.6632277-6.4961743-.1393516-3.0867674.3131144-6.0952425.9743601-9.1005242,1.4449952-6.5678597,3.2776532-13.027916,5.3085749-19.4324738,1.0295281-3.2468759,2.3783922-6.3793414,3.6345938-9.5438506.2048155-.5158927.3824323-1.0424667.6247423-1.707126-.0124431.9048219-.2103763,1.6294943-.3541326,2.3584612-.1981535,1.004697-.0976728,1.9745974.4856659,2.8004662,1.087394,1.5397499,1.3673085,3.305898,1.5906234,5.0986941.4549987,3.6519921.6256782,7.3217128.5317494,10.9972696ZM60.7665731,56.4029823c-.0452576.166385-.0458082.3514898-.2094954.5140208-.2618555-.6724775-.5452386-1.3096078-.9206786-1.9007096-.0799992-.1259725-.1014718-.2650488-.0780721-.4150266.548432-3.5215048.984711-7.0649226,1.9803784-10.5011977,1.0877243-3.7540694,3.1260237-6.9025017,6.0954627-9.4422136.904932-.7741144,1.7635603-1.5957989,2.6189953-2.4223284.1760752-.1702391.32798-.3787985.7149822-.4965124-.5499185.5293269-.4522458,1.1153634-.4841243,1.6803678-.1245961,2.2104655-.2816213,4.4191692-.3895899,6.6304055-.0684921,1.4028759-.1878026,2.8055315-.1404528,4.2122615.0110116.3281452-.0700337.531309-.422955.6354786-2.9497833.8710163-4.9120477,2.9037549-6.3959688,5.4867423-1.0853018,1.8891475-1.7996233,3.9256299-2.3684817,6.018712ZM79.1869721,69.1386508c-1.9740468,2.9814967-4.9050003,4.0346446-8.3122048,2.9562801-3.3217546-1.051276-5.6880341-3.2542536-7.2996896-6.2870643-1.2542195-2.3602231-2.1693923-4.8361779-2.0939629-7.5677116.0525253-1.9028018.5957267-3.6951575,1.4050782-5.3995305.8338522-1.7561275,1.6629695-3.5221655,3.1489278-4.8660193,1.0045318-.908676,2.1285944-1.5977809,3.4177206-2.0131379.5423205-.1747538.5958368-.132139.6020033.4224044.0045698.4141457-.0204265.8319252.0261525,1.2414461.0678864.5967178.4478962.7561655.9542089.4366093.8401839-.5303179.9208438-1.3016794.2088898-1.9507022-.0999301-.0910658-.3034242-.1403977-.2555789-.3092053.0535163-.1887386.2602037-.1564746.416348-.1696885,2.5852999-.2192407,4.6479899.8290622,6.2873946,2.7294415,2.2879871,2.6520301,3.328802,5.8116942,3.5173754,9.2713138.0617199,1.1317707.2587722,2.2550624.2151113,3.3959727-.0564894,2.8923028-.6103171,5.6515857-2.2377742,8.1095917ZM95.6619546,73.3404513c-.0246109.1707897-.0436609.3953159-.2234251.4698643-.2027233.0841285-.3158122-.1256422-.4417848-.2412638-.5457341-.5013575-1.0316754-1.0574425-1.4837009-1.6440296-.1759651-.2283803-.3372848-.4743791-.5440824-.6717067-2.1680709-2.0677554-3.9567927-4.4916254-6.1245883-6.5546458-1.2732145-1.2116047-2.4440212-2.4936835-3.4515812-3.9326774-.2940644-.4198717-.4294518-.8438177-.4174492-1.3558564.0759799-3.2437926-.5479915-6.331441-2.0159459-9.2484097-1.0292528-2.0449614-2.3871464-3.7771938-4.3856939-4.9393564-.6725876-.3912416-1.1036911-.9262945-1.4078862-1.6329079-.9995766-2.3219027-1.8289141-4.6945689-2.2548973-7.2100553.1961163.3658048.3927832.7312793.5882389,1.0975246,1.6189782,3.034132,3.6624531,5.786808,5.7314197,8.5144876,2.4365333,3.2120793,4.5514183,6.6197242,6.495954,10.144092,1.3679141,2.4791482,3.033141,4.7770457,4.4794025,7.2098351.6274401,1.0554604,1.1626031,2.155848,1.6738159,3.2703305.1116024.2434661.2400525.6831587.5395126.5444127.291807-.1352223.0410732-.5209581-.0614997-.7703705-.8727231-2.1229234-1.9466279-4.142448-3.1895606-6.0704664-1.983737-3.0770772-3.8084667-6.2466518-5.5521511-9.4643469-.5695742-1.0511659-1.3562418-1.9501516-2.0694071-2.9018829-2.6590775-3.5484832-5.285891-7.1203109-7.569033-10.9299888-.2670309-.4456388-.518976-.9026196-.9899965-1.1926647-.236694-.1457934-.3049108-.4374903-.3931136-.6936197-.3179595-.9231011-.4645237-1.8816596-.5625268-2.849688.8199226,1.9972812,2.0110457,3.7540694,3.3464206,5.4162682,1.2056584,1.5007689,2.7580166,2.6380453,4.2011948,3.8863186,3.2233661,2.7880231,6.2285377,5.7969386,9.0150192,9.0152945,2.6916718,3.1089007,4.490304,6.6539703,5.1763808,10.767568.4170638,2.5007309,1.0530929,4.9660045,1.7647166,7.4089245.4331957,1.4871145.346039,3.0324803.1262478,4.5590163ZM62.2941001,78.8669454c-.2976982-.0781823-.239502-.4052263-.1995299-.6540881.1856553-1.1559962.5624167-2.2686067.7447135-3.4286771.2608094-1.6594458.3044153-3.3313347.3997756-5.0012415.0202063-.3533618.0043496-.7131102.2525507-1.1591895.2126337.5216188.1893442.9412703.2038244,1.3381278.103564,2.841099-.1608793,5.6458597-.9123098,8.3955625-.0708045.2593228-.1366538.6022236-.4890245.509506ZM57.34175,61.4362676c.0209771.5217289.0046799,1.0449994.0046799,1.5674991-.032319,5.2913968-.6659256,10.519477-1.6443599,15.7125403-1.157703,6.144244-2.7445274,12.1890534-4.2078018,18.2627132-.4005464,1.6624189-.7503294,3.3365102-.9612012,5.0365887-.0241154.1941342.0088093.5238211-.2782077.4848401-.2453932-.0333651-.2065773-.349838-.1914364-.5575165.0890837-1.2239376.3148212-2.4278342.5891198-3.6210495,1.0647101-4.6322433,2.180514-9.2532548,3.2008474-13.8951884.9235967-4.2018005,1.7108699-8.4353143,2.2155308-12.7083598.3543528-3.0007669.5846601-6.0190423.6088856-9.047118.006607-.8279611.0539568-1.6554816.083633-2.4832225.0031934-.0898545-.0001101-.1830125.0224636-.2686827.038045-.1442518.0073778-.378358.210982-.3743939.1964467.0038541.202503.2389514.2197362.3857358.0586367.5000361.1069225,1.0027149.1271287,1.505614ZM69.8738143,68.8240499c.0755945.0762002.1440866.1868666.0775216.2919171-.0668403.1056011-.192923.0898545-.2953307.0504331-.4542279-.174864-.8987655-.3712005-1.3141225-.6281008-2.1068465-1.3027806-3.4536734-3.2267247-4.442734-5.4414847-.7424561-1.6624189-1.1640346-3.4101777-1.2722234-5.2215833-.1158969-1.9394704.5902209-3.6762175,1.46856-5.3512998.3428457-.6537578.7190565-1.2920993,1.2345088-1.8327682.0987739-.103619.1991996-.236639.3643733-.1412786.1301569.0753192.1044999.2154967.0858904.3724118-.1392965.4586325-.3977384.8931496-.6452789,1.3320714-.5574615.9880695-1.1587491,1.9549967-1.4983463,3.0494381-.5648392,1.8205453-.4164031,3.6356949.1013066,5.430363.7325457,2.5396018,1.9080874,4.8246157,4.0001233,6.5309709.5568008.4541178,1.1787351.8280712,1.7670841,1.2440888.1315884.0929378.2551935.2004108.3686679.3148212ZM77.1867178,48.7830758c2.374428,2.8764462,3.6043119,6.1609816,3.5436931,9.9091048-.0263727,2.2928322-.3772018,4.5541712-.6825531,6.8194744-.0232344.1724414-.0002753.4841794-.2683523.4483917-.3176842-.0423946-.3154268-.3572158-.286081-.6107025.1139699-.9831143.2681871-1.9623745.3585372-2.9474709.2843191-3.0994307.4206976-6.1897219-.7210386-9.1801379-.4860513-1.2730493-1.14537-2.4424796-1.9903439-3.5123652-.2894946-.3665757-.5352731-.7681681-.7928341-1.1591895-.0568748-.0863308-.1116575-.2027233-.0156915-.2968723.0983885-.0963514.20432-.0208119.2958813.0278593.2266735.120687.3964721.305131.5587829.501908ZM32.135627,76.7804704c-.2736929.3781378-.659704.0885331-.9672025-.0725663-.505707-.2649387-.7922835-.7265444-.9920887-1.2399044-.2712704-.6969232-.3806154-1.4243485-.3561697-2.1121321.0017068-1.66341.455329-3.1489829,1.1771384-4.5643019.0325943-.0640874.0683269-.1280647.1126485-.1842238.0751541-.0951401.1379201-.2489719.2878428-.1923724.1542172.0581412.1041696.2146158.0724562.3293565-.1103361.3991699-.2330051.7948162-.3511044,1.1917838-.3464245,1.164365-.5575716,2.3470092-.4782882,3.5684141.0628761.9687992.3445525,1.8307861,1.1303392,2.4784875.2369142.1953455.6032146.4675519.3644284.797459Z"/>
  </g>
</svg>