<?xml version="1.0" encoding="UTF-8"?>
<svg id="Layer_2" xmlns="http://www.w3.org/2000/svg" viewBox="0 0 160.4259706 124.1554389">
  <g id="Layer_1-2" data-name="Layer_1">
    <path d="M160.2849799,61.2753506c-.1091232,1.3514843-.5656115,2.6243814-1.1264178,3.850157-.4846991,1.0594558-.9475426,2.1393723-1.546945,3.1338812-2.3281677,3.8624024-3.641521,8.059072-4.3173406,12.4910385-.2560675,1.6787764-.7093006,3.3164765-1.2735171,4.9244158-1.1171175,3.1848777-3.2969459,5.549239-5.8303397,7.64552-2.131622,1.7637963-3.9543201,3.7833501-5.2993717,6.218936-1.8062676,3.2705952-4.7696438,5.0296639-8.1836181,6.1604993-2.6546847.8792631-5.0827529,2.1926938-7.2731991,3.8978209-10.0251492,7.8038571-21.6394047,11.666802-33.9701685,13.7264244-7.9249156,1.323661-15.8101501,1.0938668-23.6276475-.8843007-6.735256-1.7043521-13.5282512-3.1243484-20.4113039-4.1122697-5.3858642-.773085-10.1620182-3.0535114-14.5663939-6.1703421-1.1175825-.7909105-2.2604308-1.564383-3.2805155-2.4709269-2.0308691-1.8048725-4.3968579-2.8168195-7.0082189-3.4575306-3.8469019-.9438225-7.1574883-2.8213921-9.5716835-6.0614514-1.0616259-1.424724-1.7712365-2.9968572-2.0105635-4.7825092-.1226086-.9143716.136714-1.7596112.2636627-2.6326741.050919-.3498452.1162534-.705348.1020705-1.0553482-.0341785-.8458596-.4447854-1.2503439-1.2945202-1.2674719-.479739-.0097653-.961493.0519265-1.4413869.0930027-1.6253773.138729-2.5205283-.3674382-3.230139-1.8419961-.4350202-.9039088-.6229631-1.8721445-.7123232-2.8616158-.1073406-1.1890396-.1612047-2.3820318-.0970328-3.574404.1420616-2.6409668-.4316101-5.1373145-1.4692103-7.5462396-.6614817-1.5357847-1.3152133-3.0748245-1.9812677-4.6085941-1.6461479-3.7906353-1.4954835-7.5381019.4886517-11.1299439,2.4387635-4.414761,5.0067232-8.7582199,7.5218264-13.1305871.086415-.1501994.205846-.2814882.3761959-.5109724.0471214.5043847-.1756976.8157887-.3309346,1.1326955-1.9859178,4.0540655-4.2328632,7.9690919-6.3978112,11.9269771-2.0530347,3.7535892-2.2215246,7.5739079-.6135079,11.4934294.6535765,1.5932914,1.392483,3.1515517,2.0893058,4.7270951,1.0401578,2.3518059,1.5919738,4.792507,1.4966461,7.3858099-.0632418,1.7196975-.1340014,3.452958.2876884,5.1514974.0244132.0982729.0423937.1984058.0702945.2955936.5878546,2.0503997,1.2832823,2.4934801,3.3780908,2.1688231.3494577-.0540966.705813-.1085807,1.0568983-.0978078,1.1406782.034721,1.8275807.7269712,1.9006653,1.8605191.0480514.7437116-.0930027,1.4661877-.2253766,2.1892837-.2545949,1.3905455-.0939327,2.7222667.5076398,4.0057816,1.5216018,3.2457169,4.0412776,5.3935369,7.3235756,6.7256457,1.7402356.7062781,3.5258101,1.2787872,5.3218474,1.8115377,1.4351868.4257974,2.7178491,1.082164,3.8686026,2.0376118,2.0510972,1.7029571,4.2085275,3.2655575,6.4361748,4.7286451,4.1180823,2.7045187,8.6747499,4.2981201,13.5085656,5.0266413,7.0288345,1.0591458,13.9179325,2.7424948,20.825476,4.3646945,5.5845025,1.3114157,11.2592176,1.4888958,16.9497432.981101,10.6942262-.9542078,20.7510738-4.0756886,30.2326997-9.0835743,2.7026586-1.4274365,5.1156914-3.2949309,7.56019-5.1046085,2.4427161-1.8085926,5.0357865-3.300356,7.9171654-4.2989726,3.2628449-1.1308354,5.8180168-3.1184582,7.4534694-6.2352114.8805806-1.6781563,2.1741708-3.0479312,3.5823092-4.3105979,1.6606408-1.4890508,3.4123468-2.887579,4.7514308-4.7036119,1.8371135-2.4915425,2.6733628-5.3766415,3.3060912-8.3448228.5862271-2.7493925,1.065966-5.5274608,2.1372022-8.1493621.7403015-1.8116152,1.753101-3.4852764,2.6484071-5.2184594.8726754-1.6890066,1.8798947-3.3599553,2.1068213-5.2696108.6665194-5.6079082.4089019-11.1040581-2.5013078-16.1675905-1.1133974-1.9369364-1.9817327-3.9102213-1.8730745-6.2366065.0996679-2.1354971-1.1279678-3.4874465-2.9746916-4.3621369-.7323963-.3469001-1.4540973-.7163533-2.1843236-1.0682136-.4242473-.2044509-.5989374-.4880317-.447343-.9756759.1573296-.5067097.2126662-1.0456604.377436-1.5492701.5919622-1.8102977.2185564-3.4734961-.8072635-4.9955629-1.7972773-2.6668526-4.2875798-4.5807708-7.028447-6.1722021-1.1391281-.6613267-2.3059246-1.2572416-3.3609628-2.0648151-1.8500563-1.4161212-4.0439127-2.0697752-6.2569121-2.6535222-.4441654-.1171834-.8952286-.2267716-1.2560791-.5175601-1.650488-1.3302487-3.5812242-2.200754-5.3675737-3.3070212-1.1474209-.7105407-2.2433028-1.5041638-3.3618153-2.2613608-.0317759-.1167184-.070062-.2321968-.0928477-.3506202-.0601418-.3125666-.0237157-.6614042.189183-.8543074.2673828-.2421945.5752992.0213131.8305917.1588796.5734392.3090015.9655231.8170288,1.3355189,1.3329613.4589684.6401686,1.0420953,1.0721662,1.7985173,1.3254436,1.940269.6497014,3.7411114,1.5523702,5.2457401,2.9846894.5292629.5038422,1.2483288.7024804,1.9354638.8350093,2.3926496.4615259,4.5010985,1.4417745,6.3798306,3.0191004.7806027.6553591,1.7969673,1.03016,2.7062237,1.5324521,2.7383097,1.512689,5.1497149,3.4156019,7.0959515,5.8869938,1.54586,1.9629771,1.9868478,4.1362954,1.2197305,6.5080194-.2114262.653499-.0296059.9428924.5108949,1.2623567,1.1113823.6567541,2.2359401,1.2983178,3.2098334,2.1683581,1.0895267.9731958,1.7120248,2.1585928,1.580736,3.6244705-.1785652,1.9908779.3760409,3.7718023,1.4235614,5.4136875,3.1873577,4.9959504,3.7571543,10.517056,3.2947759,16.2447827ZM101.52525,93.1065344c-1.6002666-3.2254114-2.303212-6.6987524-2.8812238-10.2020094-.3713908-2.2509755-1.1078947-4.3002126-2.6049283-6.0606764-.5715791-.6722546-1.0502331-1.4265065-1.3925605-2.2580282-.2649802-.6436562-.204916-1.2556915.3342672-1.6566107,1.9161658-1.4249565,3.9558701-2.5036329,6.4555503-1.6608733,2.1155791.7133308,4.1276926,1.6821089,6.1717371,2.5712923,4.0598781,1.7661214,8.3305624,2.8541756,12.6066718,3.9314569,5.2186919,1.3147483,9.6845268,3.8789879,13.0098386,8.179588,1.8775696,2.4281457,2.8248022,5.2199319,2.473097,8.3235872-.4584258,4.0462377-2.7195541,6.7670319-6.4768635,8.1767204-3.2933808,1.2356185-6.7261107,1.8994253-11.2150413,1.9991707-7.1052518-.3352748-12.8977703-4.1222675-16.4805446-11.3436176ZM101.2562397,90.2699518c1.3317988,3.52147,3.1282235,6.6741067,6.1787123,9.0401731,3.3840585,2.6249239,7.0353447,4.2355758,11.4351478,3.9150264,3.1228759-.2274691,6.2017305-.6457488,9.2289686-1.4286766,1.167029-.3017938,2.2143169-.8669402,3.1238059-1.6724987,3.7681596-3.3378671,4.2820771-9.3590173.9990816-13.4350159-2.165103-2.6880882-4.792972-4.878612-7.9762221-6.3352668-3.6002123-1.6474654-7.5170212-2.1918413-11.2831658-3.2805155.1925931.1637623.4025467.2849758.6160654.3995241,1.1426157.6131978,2.252603,1.2822748,3.2195212,2.1506876,1.5185017,1.3638847,2.9343904,2.8269723,3.6229204,4.8069224.5322855,1.530592-.2484722,3.2987285-1.7363605,4.0201195.103388-.2216564.1663973-.4144821.273893-.5780893,1.2464688-1.8956277.8264065-3.6572539-.4355627-5.3409129-.3490702-.4656335-.7189884-.9236719-1.132463-1.3314887-2.1131765-2.0845007-4.6413776-3.403589-7.5387219-4.0310473-.9150691-.1982508-1.8440112-.3546503-2.7089363-.7344114-.2552149-.1120683-.5836695-.171435-.6440437-.5764618,1.1119249-.1982508,2.1463475.2840458,3.4235846.2194864-3.400799-1.5341571-6.6043547-2.9803492-9.809848-4.4222787-.1353964-.0609168-.2983062-.137644-.4319976-.1140833-1.5002112.2644377-3.0121251.5029896-4.1456731,1.6832715-.4088244.4257199-.5942098.7784327.0636294,1.1610613.4354077.2532774.7962582.6320309,1.2239931.9013512,2.1141065,1.3311787,3.5311578,3.1656571,4.1266851,5.6103108.0075177.0310784.0701395.0485939.1433792.0960253.1392716-.2019709.275598-.4078944.4199072-.6079277.825864-1.1443983,1.7704615-2.165103,3.0793196-2.7624129,1.1261078-.51384,2.1506876-.2837358,2.8148819.6326509-.8825182-.3597655-1.7272928-.6834149-2.5836927-.1292738-.9212693.5961473-1.7657339,1.2907226-2.4155128,2.1809135-.3718558.5093448-.7102307,1.0615484-.585762,1.751706.3281445,1.8190554,1.0191547,3.4686909,2.4377559,4.7029919,3.1742599,2.7617929,6.8555395,3.9346345,11.0546892,3.4082392.4545507-.0569642.9159992-.0592892,1.5030012-.0947078-.9662206.9836586-2.7466799,1.3104856-5.3420754.9354522-4.638975-.6703945-8.3646634-2.6684026-10.1958867-7.3042775.5370906,2.8564231,1.460685,5.5504015,3.2950859,7.834083,1.2862274,1.6010416,2.6701852,3.1239609,4.019112,4.674161,1.270107,1.4596775,2.6494921,2.7982964,4.2671192,3.8803829,2.8326299,1.8950851,5.7873259,2.371569,8.9033041.7578171,2.5213034-1.305913,5.0536121-2.5790425,7.7513106-3.4928716.3310896-.1122233.636216-.3143491.9363822-.5019046,1.1788868-.7366589,1.8961702-1.7833269,2.1843236-3.1546518.5984724-2.8491379-.3834812-5.1859859-2.2939118-7.2232877-1.3979857-1.4909109-3.0533563-2.6656901-4.7583285-3.7749023-1.2966127-.8433795-2.611051-1.6562232-3.969898-2.3969897-.1381865-.0752547-.3727083-.1687224-.2897809-.3825511.0953278-.2456821.3163642-.0892826.4598984-.0393711.4054918.1412091.8187338.2801707,1.1942323.4840791,2.3648263,1.2839024,4.6440901,2.7063788,6.7991953,4.3199757,1.272277.9525027,2.3523485,2.0885308,3.1199308,3.4938017.9598654,1.7568211,1.5160991,3.6302056,1.1518385,5.6285238-.4862491,2.6690227-2.199359,4.2668867-4.7738289,4.9607644-1.648163.4442429-3.2268839,1.0327951-4.7078745,1.8931476-.9423499.5475534-1.9470892.9758309-2.9640738,1.3721774-3.6034674,1.4041859-6.941257,1.0114044-10.0198016-1.4031783-2.3279352-1.8258756-4.364462-3.9361845-6.3107761-6.1539116-2.5492817-2.9046295-4.3095129-6.1739847-4.9984304-10.0061612-.2076285-1.1545511-.464936-2.3130548-.9868362-3.3863835.5281779,3.0886974.8469446,6.2141308,1.9687898,9.1806846ZM70.3381875,114.915359c-3.246957-4.4222012-5.1503349-9.3706427-5.0257887-14.9291044.0922277-4.1151372,1.5154016-7.8812818,3.4080067-11.4876168.6383086-1.2163204,1.3553594-2.3788542,2.2283448-3.4413326,1.151141-1.4009308,1.9808026-3.0006548,2.8408452-4.5814683.8288866-1.5236168,1.8694319-2.8141069,3.5180599-3.5464257,1.357142-.6028125,2.6569323-.5228302,3.8259763.308459,1.5619805,1.1106073,2.8985068,2.4529464,3.5372804,4.3413663.08471.2503323.1464793.5694866.5364706.207706.1257087-.1165634.3487601.1465568.4874117.2852858.9318096.9326621,1.9370914,1.8012299,2.713354,2.8754112,2.9539985,4.0878565,6.1071002,8.0475242,8.4953322,12.5116541,1.4685127,2.7451299,2.4898375,5.6582847,2.5323862,8.7709302-.0714571,3.8363616-1.493856,6.9279266-4.8431934,8.8101464-4.4246813,2.4863499-9.2584194,3.8806929-14.2773105,4.4211937-4.1200199.4437004-7.5324442-1.2166304-9.9771753-4.5462048ZM71.7512086,87.8887725c-2.6382543,5.3182823-3.6703518,10.8642661-2.5119256,16.752655.5873896,2.9862394,1.3898479,5.8807161,3.3616603,8.2933613,1.9574745,2.3951297,4.5301618,3.2019282,7.5396519,2.816432,1.6925718-.2168513,3.0996252-1.0977419,4.4743602-1.9976981,1.272122-.8326842,2.6326741-1.1360281,4.1152923-1.063796.963508.0468889,1.9273261.0747897,2.887889-.0497564,1.6368476-.2122012,2.8153469-1.0957269,3.3298069-2.6346117.6426487-1.9222884.7655673-3.9203741.4088244-5.9362852-.4398253-2.4851873-1.5090464-4.7227549-2.7185466-6.8977782-1.4540973-2.6149261-2.8472779-5.257598-4.0617382-7.9940476-.5039197-1.135408-1.0830165-2.2357851-1.8061126-3.2525371-.241032-.3389949-.4857066-.6759747-.8710478-.8953836.8839132,1.6419628,1.9894054,3.1588369,2.4139627,5.0250912.4158771,1.8279682.8198964,3.6397384.3893713,5.5273058-.3458151-.4049493-.4039418-.8786431-.4396703-1.3535769-.1626772-2.1585153-.3800711-4.3198982-1.5030012-6.2272287-1.3420291-2.2796513-2.371569-4.7104321-3.5721564-7.0575104-.4743138-.927237-1.0190772-1.8237831-1.8240156-2.509368-1.7471333-1.4879658-4.4621148-1.5894163-5.4330631,1.270107-.3272145.9632755-.7948631,1.8603641-1.2952177,2.7448199-1.0107844,1.786737-1.9715799,3.5997472-2.8843239,5.4398058ZM72.5259987,115.5394846c2.3322754,2.8040316,5.5182381,3.7137531,9.0662913,3.0739719,3.3964588-.6125003,6.6898397-1.6404127,9.8854902-2.9500458,1.6576957-.6793073,3.1672847-1.6125894,4.3584943-2.9806592,2.1959489-2.5222334,2.4769721-5.5380012,2.097831-8.6696348-.3132641-2.5874128-1.4409219-4.8903148-2.7600878-7.1062593-1.4804481-2.4868924-3.2351766-4.7912669-4.7895619-7.2287904-.1092782-.17128-.156322-.4145596-.5383307-.5229852.6121128,1.2429812,1.1590462,2.4007099,1.7467458,3.5373579,1.2915751,2.4977427,2.7786884,4.8933374,3.8781353,7.491678,1.2990153,3.0699418,1.8703619,6.1909577.8828282,9.4825559-.5744467,1.9146157-1.8233181,3.0995477-3.6630666,3.7556818-1.169354.4170396-2.3735066.5291079-3.5965697.4528457-1.254374-.0781998-2.3935797.2123562-3.4979868.8151687-1.0431804.5693316-2.1275919,1.0741813-3.2266514,1.5280345-4.6285122,1.9113606-9.5802863.2772256-11.8507923-4.0029915-3.0263081-5.705251-3.881623-11.737484-2.4180704-18.0601955.6917851-2.988177,1.8969452-5.7610526,3.5170523-8.3810939-1.0599208,1.2310458-1.7744141,2.6783229-2.4321758,4.1552834-1.3884529,3.1181482-2.5495917,6.3077535-2.6662326,9.7661367-.206311,6.1098128,2.2089693,11.2781282,6.0066573,15.843941ZM9.0577743,43.1176572c-2.3308028-5.7165663.978156-12.5852812,5.7107537-14.3790709.3314771-.1256312.6487714-.292726.9857512-.3990591,2.9351654-.926927,5.4914223-2.4495363,7.9343709-4.3560143,3.0952076-2.4155128,6.6403932-4.1868268,10.1064491-6.0402158,1.8559465-.9923389,3.7656796-1.872377,5.7137763-2.6689452.2500223-.102148.5046947-.1932906.757197-.2895484.0300709.0602968.0602193.120516.0903676.1807353-6.4148617,3.074747-12.8049226,6.1913452-18.3930677,10.6661704.0236382.0595992.0471989.1191985.0707596.1788752.6676044-.1529895,1.3319538-.3217894,2.0032783-.4560233,2.4285332-.4855516,4.7007443.0971103,6.8487968,1.1609838,4.5308593,2.2439228,8.5915125,5.0691125,11.462506,9.3749828,2.1052713,3.1572869,4.5270617,6.0535462,7.5242289,8.4256577.7358839.5824294,1.4688227,1.1691215,2.1872686,1.7727091.5059347.4250224.9600979.9056914,1.3369139,1.4522373,1.3149033,1.9071755.6242807,3.9893511-1.5729083,4.7500357-.9651356.3341122-1.9801051.4264949-2.9769391.6033551-.3840237.068047-.7427816.17159-1.0519381.4047168-2.387302,1.8005324-5.15483,1.9463141-7.9769196,1.820683-2.2814339-.1016055-4.4056157-.9268495-6.5804065-1.5064888-1.2167854-.3242694-2.4376009-.4941544-3.6864723-.3681357-5.273486.5324405-10.0197241-.9456825-14.4552556-3.7028252-2.645927-1.6446754-4.8318006-3.6651592-6.0385107-6.6248153ZM42.0807102,38.9724491c-2.9609737-3.727471-6.6572112-6.5972245-10.8744964-8.779843-1.9647597-1.0168296-4.0062466-1.8634642-7.0978115-1.8319983-3.6037774.3258195-7.3283807,2.2639184-10.7131367,4.9765748-.2307242.1849204-.4044068.4560233-.5623564.7130207-.2424271.394254-.3892938.8295841-.3339572,1.3025029.3502327,2.9915871,1.0621684,5.8818012,2.4162878,8.59159.9675382,1.9360063,2.337313,3.4486179,4.2944775,4.46785,3.5306152,1.8386635,7.2505685,2.8259647,11.2348819,2.8657234,4.0174844.0401462,7.9966052-.5409657,12.0023093-.685895,1.6249898-.0589017,3.247422-.1366365,4.844046.2554474,1.014427.2490922,1.2235281.4910543,1.3347438,1.5319096.0325509.3048939.1043955.3844112.4171946.3143491.894376-.2002658,1.7675164-.4585033,2.5794301-.8863158,1.8334709-.9661431,2.1066663-2.2688785.8150137-3.8905357-.8839907-1.1098323-2.0257539-1.9301937-3.2351766-2.6223663-2.8213146-1.6147595-5.1076311-3.7868377-7.1214497-6.322014ZM14.1851685,48.1471661c4.431579,3.0154577,9.2463291,4.8632665,14.7192283,4.3340811,2.561837-.2476197,5.0111408.2104186,7.4103006.9767609,2.3808693.7604521,4.7861518.8102086,7.2221252.5212802,1.133083-.1343889,2.2565557-.3661207,3.2509096-.9799385.2982287-.1839904.6920951-.3932464.6434237-.7771926-.0534766-.4223098-.5282554-.3860387-.8532998-.4860941-.0716121-.0220106-.1505869-.0198406-.2261516-.0291408-2.1007761-.2591675-4.2048074-.1424491-6.306746-.0338685-3.5441006.1829828-7.0754134.5861496-10.6388121.3838687-3.3560027-.1905005-6.5698662-.8813556-9.6264001-2.2930592-2.7492375-1.2697194-4.8854322-3.144809-6.0616064-6.0024722-.8527573-2.0717128-1.3967456-4.2330182-1.8586591-6.4147067-.4152571-1.9612721.2039084-3.5658788,1.8654793-4.706402,1.5874012-1.0895267,3.1236509-2.2544631,4.7999472-3.2150261,3.6767845-2.1068213,7.4471142-2.2581832,11.3104466-.5859946,3.0553714,1.322576,5.7117612,3.2633875,8.2708857,5.3581959,2.3064671,1.8882649,4.261229,4.1287001,6.3398395,6.2457517.4867142.4957044.963663,1.0089244,1.6453729,1.2758421-2.4308582-2.7577627-4.7660787-5.6079857-7.3192355-8.24748-2.6043083-2.6924283-5.6037231-4.912868-9.1361984-6.3130237-2.3151474-.9176267-4.6823763-1.3218785-7.1406703-.6907001-2.5579619.6567541-5.0081957,1.6266173-7.4275836,2.6690227-.8391944.3616255-1.5759309.9172392-2.2701961,1.5173392-5.359591,4.6333173-4.6872589,13.3593737,1.3876004,17.4929565ZM140.1780273,23.4794383c2.8084492,5.0654699,3.69275,10.3842947,1.4907559,15.8575814-1.9687898,4.8937249-5.927915,7.4116182-11.0215957,8.2939038-.9796285.1696524-1.9684023.1829828-2.4987502.2109611-2.973839.0049601-5.4514311-.5077173-7.9680844-.5446858-3.0983852-.0455713-6.1888651.1443092-9.2830651.2215014-2.644687.0659544-5.2760435-.0306909-7.835478-.8077285-.8045509-.2442871-1.5688007-.5797944-2.2844565-1.0203172-1.7123348-1.0541082-2.2030791-2.8047291-1.2927376-4.6029364.4918293-.9714908,1.2108952-1.7794518,2.0747354-2.4000123,3.5823092-2.5733849,6.2762876-6.0443234,9.3513446-9.1305407,4.4437468-4.4598673,9.3947459-8.143937,15.6263922-9.7175428,4.2079074-1.0625559,8.1335517-.0772697,11.8766781,1.8900475.7557245.3971216,1.3532669,1.0085368,1.7642613,1.7497684ZM101.5066495,42.5906419c.3689107.3168292.7816877.5597988,1.2250006.7561895,1.3286987.5886296,2.7259093.945295,4.1447431,1.2295733,3.9584277.7932356,7.9674643.7921506,13.2252948.7344114,1.6420403-.0779673,4.5499249.2951286,7.4202984-.1460142,4.4551396-.6846549,8.2872386-2.5543193,10.8893769-6.390991,2.0914759-3.0835047,3.0195654-7.5227564.0832374-11.2810733-1.6585483-2.1229418-3.4758211-4.1056045-5.5982979-5.7830633-1.3280786-1.0496905-2.8137969-1.5887187-4.534812-1.3097881-1.3283887.2153788-2.6387968.5040747-3.9092138.9504102-4.4137534,1.5505876-8.1058059,4.2405359-11.5531062,7.3206305-3.95246,3.5313903-7.2537461,7.7398402-11.4867643,10.9857897-1.0692211.8199739-.9421174,2.0440445.0942427,2.9339254ZM141.0093165,36.1373391c-.7179034,2.2888741-2.0301716,4.1834167-3.8338816,5.7444672-2.887424,2.4991377-6.2949657,3.7994706-10.0581652,4.0273272-6.889873.4171171-13.7865662.6090127-20.6491584-.4285875-1.3749675-.2079386-2.7793084-.2889284-4.1089371-.7304588-1.0215572-.3391499-1.7944097-.9595554-1.958017-2.1389847,1.375045,2.1453399,3.5626237,2.2787213,5.7669428,2.3817218-2.1784334-.7368139-4.7408905-.7636297-5.9646511-3.4772937-.4043293.9938889-.2437446,1.719.2527349,2.3659888,1.1304479,1.4728529,2.6316666,2.3940447,4.4654474,2.6408118,1.9356963.2604076,3.8898382.2945086,5.8474677.2797831,3.6286556-.0272808,7.2397957-.6144379,10.8707763-.3816986,2.526961.1619022,5.0278813.5238377,7.5856882.3238819,6.2334289-.4873342,10.5924657-4.1493157,12.0036268-10.2642437.0542516-.2348318.155702-.482064-.0041851-.721081-.0300709.0106178-.068512.0126329-.0755647.0285208-.050609.1149358-.1025355.2302592-.1401241.3498452ZM140.6628814,28.5573086c-.548406-4.2221679-2.8760312-6.803458-6.6141975-7.4004578,2.7212592,2.0084709,4.8282355,4.4415767,6.6141975,7.4004578ZM25.2642709,85.067923c1.5339246-.7268161,3.0557589-1.4805256,4.5644178-2.2584157,3.3172515-1.7103973,6.6549637-3.4411001,9.4148965-5.9745714,2.2527581-2.0679152,4.6452527-3.919289,7.1132345-5.7023834,1.5100539-1.0908442,2.8412327-2.3824193,3.677017-4.0940566.9920289-2.0318766.3515502-3.5603761-1.7901471-4.2899823-.2628876-.0894376-.5361606-.1517494-.807961-.2117362-3.143104-.6930252-6.3360419-.7575845-9.535335-.77355-3.0700968-.0154229-6.1482539-.0250332-9.1616966-.7103082-5.7182714-1.3002553-11.4990096-1.5408223-17.321599-1.0882092-1.4090685.1095107-2.8037216.3643381-4.1018069.9976865.3733284-.033636.7467342-.0664969,1.1199851-.1012179.1010629-.0094553.2013509-.0257307.3021038-.0371236,5.4519736-.6171505,10.8957321-.5608838,16.290044.4612934,4.4246813.8384969,8.8523076,1.4383644,13.3702241,1.2968452,1.7716241-.0554141,3.5519284.0440213,5.3236299.1494243,1.4664202.0872675,2.9373355.2442096,4.2975001.875853,1.2614267.585762,1.6176271,1.5350872,1.0723987,2.8090692-.292261.6830274-.7323188,1.272897-1.2069426,1.8371135-1.3835703,1.6449079-3.0042974,3.0151477-4.8188577,4.1620261-.9445975.5969224-1.8438562,1.2532115-2.6777029,2.0021933-3.0514963,2.7407123-6.3915335,5.0723676-10.0015885,7.0190692-1.9854528,1.0706162-3.9600552,2.1613829-5.9517082,3.2200637-.5251553.2791631-.6502439.5974649-.4016167,1.1471109,1.3956606,3.0855973,3.1879003,5.9110195,5.7856209,8.1075884,2.9828293,2.5220784,6.3867283,4.3920528,10.0014335,5.8518853,4.1308702,1.6683135,8.1158812,1.3280786,11.9522428-.9749784,3.4508654-2.0714803,6.4337722-4.6688134,9.0425756-7.7224797,1.6735062-1.9588695,2.8793638-4.1614061,3.6216029-6.6206302.154772-.5129099.3619355-1.0375227.0503765-1.6329725-.7499893,2.2636084-1.6880766,4.4213487-3.1307811,6.3227115-1.4527023,1.9144607-3.1543418,3.5720789-5.0905031,4.9923853,2.7252118-2.8007765,5.5427288-5.5208732,7.0841711-9.2292011,1.2592566-3.0291756,1.7247352-10.1674434.7142608-11.5190827-.2056135.207241-.1636073.4724537-.1892605.7102307-.1960807,1.8151028-.3737934,3.6322207-.5808019,5.4459285-.4917518,4.3085054-2.1823085,8.0103231-5.3711388,11.0366312-2.7506325,2.610276-5.7409796,4.9105429-8.7414019,7.2103448-1.9902579,1.5253994-4.2251129,1.88904-6.6209402,1.5188892-2.629729-.4064218-4.9328635-1.6613383-7.2118174-2.9376455-3.144809-1.7610837-6.0803619-3.7844351-8.0634896-6.9054509-.7611496-1.1980299-1.4753329-2.4260531-2.2458604-3.6178053-.2615701-.4047168-.2122012-.5653014.2252216-.7725425ZM79.2272312,17.2894882c1.1774143-1.957707,1.4090685-4.1548184,1.5379548-6.3639427.2788531-4.777704,3.0769945-7.7296099,7.1706637-9.5544005,6.8299637-3.0444436,15.4892907-.8584925,20.1936776,4.9664995,1.71962,2.1292195,2.5199083,4.6340148,2.5564894,7.3374485.0940102,6.9414895-2.4362834,12.7637689-7.7017091,17.3209015-1.4403019,1.2465463-3.1880553,2.0647376-4.8578414,2.971979-3.2730752,1.7784443-6.5607984,3.5303052-10.0470049,4.8695442-.4244799.1629872-.8603525.3067539-1.3021929.411692-1.012877.240412-1.7249677-.5381757-1.4186788-1.54679.2463022-.8111386.8376444-1.3772926,1.4452621-1.9192658,1.7771267-1.5852311,3.8706951-2.6799505,5.9422529-3.8064458,2.0749679-1.1282778,4.1352103-2.2736062,5.7996488-3.9991164,1.254064-1.2999453,2.1764958-2.8013965,2.7255218-4.5179165.6723321-2.1021712.2702504-3.9961713-1.1746242-5.6755677-.9101865-1.0578283-2.0313341-1.8619917-3.3470899-2.767683,3.8203962,1.4334817,7.1949994,4.9946328,5.1261542,9.9088958-1.0419403,2.4750345-2.7703956,4.3347786-4.9713047,5.8032914-.6311009.4210698-1.2617367.842682-1.9271711,1.2871575.34256.1255537.5305804-.0930027.7271262-.2164638,3.3835935-2.1256544,6.5938919-4.4612623,9.1988202-7.541667.5387182-.6370685,1.1580387-1.2067101,1.751551-1.7961148.221734-.2201839.5368581-.4416079.8126111-.2376219.5353081.396114.6227306-.0070527.7620022-.3495352,1.649093-4.054143,1.8087476-8.1761779.5355406-12.355022-.6150579-2.0186237-2.1206167-3.3633654-3.6422185-4.6759436-4.8901598-4.2183703-12.0612885-5.2454301-17.4188644-2.4598441-2.8362725,1.4747129-4.9410788,3.6165652-5.7263316,6.8287237-.2177813.8908109-.2286317,1.8109952-.2320418,2.7238943-.0060452,1.6759863-.2687778,3.3222117-1.0950294,4.7718139-1.7773592,3.1180707-2.2546956,6.4068789-1.6614158,9.9088183.4492806,2.6524372.3717783,5.3017743-.1663198,7.9404161-.3405449,1.6698636-.1598097,3.2729202.652879,4.7980871.1607397.3017163.5267828.8029234.1435342.9925714-.3549603.1756976-.5476309-.4014617-.7344114-.7189109-.9218118-1.5669406-1.0947194-3.297566-.7778126-5.0126909.5980849-3.2371142.1247011-6.4156367-.2496348-9.6121397-.3167517-2.7050612-.0728521-5.3156472,1.3700074-7.714652ZM92.41858,33.3468704c-.4864042.1522919-.9359947.362323-1.3728749.5960698-1.6059242.859345-3.2068108,1.7320979-4.5222566,3.0212704-.4009967.3930139-.8319867.8096661-.6707045,1.6252998,2.0572199-2.0569099,4.2527037-3.7168532,6.5658361-5.2426401ZM107.0441081,23.6960571c-.187633.2001108-.3799161.3958815-.5620464.600875-3.1445765,3.5396055-6.8146958,6.3491398-11.2385245,8.1204538-.3724758.1492693-.7460367.3366698-1.0617809.5804919-1.8266507,1.4101535-3.6049399,2.8803713-5.3399829,4.4022831-.291176.2553699-.5700291.5248453-.8546174.7878104.7006204-.1659323,1.3131982-.4500556,1.9160883-.7533994,3.5509208-1.786582,7.2148399-3.3609628,10.5564272-5.5429613,3.0612616-1.9989382,5.1271617-4.8303281,6.5844366-8.1955535ZM58.8302651,20.635338c.0005425-.0049601.0022476-.0082152.0029451-.0130204-.001705.000775-.0033326.001085-.0051151.0019376l.0021701.0110828ZM42.7019683,25.8937885c-.376661-2.9952297-.8561674-5.9913893-.5594113-9.020255.4685011-4.7822767,2.9534559-8.1467271,7.3351234-10.102109.4339351-.1936781.9166967-.3403899,1.3874454-.378831,3.1393064-.256455,6.3103886-.5459259,9.3839731.3110941,4.2838597,1.1944648,7.0620055,4.0037665,7.9824223,8.4001594.3678257,1.7573636.0779673,3.5942446.0762622,5.394467-.0018601,2.1088364.3303146,4.1395505,1.238641,6.0571113.9644381,2.0361392,1.545395,4.1770615,1.7693765,6.4176517.1736051,1.737058-.0300709,3.4438127-.4147921,5.1339819-.0656444.2882309-.1465568.5931248-.4626885.8208264-.241807-.2509523-.2607176-.5715016-.2884634-.8824407-.104163-1.1665639-.3327947-2.2977869-.7654123-3.3966138-1.545705-3.9261092-3.2511421-7.766811-5.8483202-11.1369191-.8088135-1.0495355-1.7103973-2.0239714-2.922145-2.6214363-.548871-.2706379-1.1271928-.5888621-1.7807693-.2681578.0555691-.4068868.3789085-.3955715.6774472-.4223098,1.2222106-.1095107,2.2213696.4216898,3.1430265,1.1300604,1.2177154.9357622,2.2052492,2.0925609,3.1010202,3.331822.1429142.1976308.2967561.3873563.5860721.7633972-.0854075-2.027459-.1525244-3.8367491-.2407995-5.6451093-.0657219-1.3452066-.222199-2.6773929-.671092-3.9602877-.4321526-1.2353084-1.1416082-2.2606633-2.2498905-2.9787992-3.5809142-2.320495-7.456957-3.2324641-11.6783498-2.372344-2.0182362.411227-3.6821321,1.4447195-4.8750469,3.1341912-2.7031237,3.8284564-3.5134872,8.0872053-2.680958,12.6579783.4023917,2.2096668,1.6525031,3.9512975,3.367163,5.3681162,1.9180258,1.5849211,4.1445881,2.6405793,6.393626,3.6356308,2.9095897,1.2871575,5.7013759,2.7634979,8.2296545,4.7108971.3205493.2469222.6739596.4513731,1.014427.6720996,1.8825298,1.2208155,3.8365166,1.3190884,5.860488.378366.2194864-.1020705.413087-.2836583.8004433-.2644377-1.3575295,1.4024033-2.9520609,1.7196975-4.7043869,1.4678927-1.2045401-.172985-2.2838365-.7165083-3.2440894-1.4289091-3.4688459-2.5733074-7.3388436-4.3983305-11.2497624-6.1596467-1.6686236-.7514619-3.2583498-1.6413428-4.6268846-2.8886641-1.7383756-1.5846111-2.7893062-3.5203074-3.0833497-5.858473ZM68.2309012,29.3093904c.8552374,2.3493259,2.0353642,4.5875135,2.4251231,7.0965715.0089903.0578942.0890501.104628.1869354.2129762.0900576-4.5892185-1.940579-8.5041675-3.5168198-12.5492427-.1240811,1.8230855.2897034,3.5499908.9047613,5.239695ZM43.1065301,19.0776977c.2529674-.1140058.2211139-.3456601.2793181-.5272478.3013288-.9403349.5708816-1.891675.9866037-2.7916312,1.6248348-3.5176724,4.228523-5.8020513,8.1645526-6.2600897,3.4450527-.4008417,6.787105.0795173,9.9018431,1.6686236,2.3463033,1.1970998,3.814661,3.1234184,4.3939904,5.7083511.0599092.2673053.1363265.5308904.2200289.8532223.2568425-.2170838.206156-.4057243.2120462-.5729742.1836803-5.1287892-3.3772383-8.282511-6.4317572-9.383043-3.0346783-1.0931693-6.1818899-1.0109394-9.3232113-.6849649-1.839826.1908106-3.4460603.9790085-4.7963046,2.2636859-2.7853536,2.6501121-3.6855422,5.9941794-3.60711,9.726068ZM149.7034419,66.7280993c1.1812894-2.1916863,2.0758204-4.5085387,2.853943-6.8691799.6725646-2.0400144.2994687-3.8955734-1.0400803-5.5715596-1.6805589-2.1026362-3.7295635-3.7003452-6.2389315-4.7150047-4.3961604-1.7774367-8.8464174-1.7123348-13.3544911-.5051597-3.3753782.9039088-6.510887,2.3869145-9.6303527,3.9121588-3.7393288,1.8283557-7.5111311,3.5626237-11.6440938,4.3339261-.3622455.0676595-.7443317.1401241-1.1169625.6156779,2.2314449.5575512,4.1035894-.4952394,6.152284-.9611055-1.0369802.7882754-2.165723,1.3373014-2.7300944,2.5092905,1.013652-.4150246,1.992428-.8776355,2.9526809-1.375665,2.095971-1.0870466,4.2728543-1.993978,6.4798086-2.8150369,2.5713698-.9565328,5.1472348-.4575733,7.7069793.1729075,1.7586037.4331601,3.3446098,1.3196309,5.0553171,1.8705944.2924935.0942427.7563445.4381202.9390948.0016275.1301263-.310784-.3801486-.4667186-.6433462-.6217231-3.9340145-2.3166199-8.1041008-3.557896-12.8444488-2.6943659.6789198-.531588,1.3480742-.8193538,1.9913429-1.1391281,4.6809037-2.3266952,9.5772637-3.763897,14.8660176-3.4030465,1.8443987.1257862,3.7332836.2728079,5.1300293,1.7438007,1.4065109,1.4813781,2.5963256,3.1357412,3.3772383,5.0216036,1.2056251,2.9113722.5090348,5.6642523-.9103415,8.3184721-.1153234.2156888-.4848541.4770264-.2018159.7002329.2346768.1850754.4902793-.1452392.7037205-.3148917.0589017-.0468889.1134633-.1036205.1568646-.1652348,1.6783888-2.3855194,2.6679376-4.9408463,1.9911879-7.9227455-.4397478-1.9382539-1.511449-3.5223225-2.714129-5.0589597,1.6631984,1.0566657,3.1783675,2.2606633,4.1156798,4.0399601.5936673,1.1269603.7186009,2.2867815.2870684,3.52364-.8364043,2.3957497-1.8008424,4.7341478-2.919975,7.0110865-.5918072,1.2038425-1.4199963,2.2203621-2.4118702,3.1054379-3.1188458,2.783261-6.8535244,4.1702413-10.9316931,4.7169423-4.2816121.5739817-8.4982773.2968336-12.3946257-1.701717-4.3746923-2.2439228-8.4454208-5.0279588-12.7101374-7.474395-1.3659772-.7835478-2.2904241-2.0599324-2.785276-3.5988947-.0772697-.240257-.1085807-.5217452-.3844112-.737899-.2308792,1.28739-.0244132,2.4149703.705348,3.4470678.9256094,1.3091681,2.1868036,2.1929263,3.6461711,2.7691556,2.4889074.9828836,4.7924295,2.2991819,7.0551078,3.7072429.9890063.6154454,2.0137411,1.1768717,3.0435911,1.7225651,6.2800077,3.3274043,12.8035276,3.8326415,19.4905772,1.4750229,3.747544-1.3212584,6.9530373-3.4471453,8.9070242-7.0727008ZM23.5617013,94.0665548c-.8751555-2.2271823-1.204075-4.5524825-1.0741038-6.9384669.0428587-.7866479.2516498-1.510519,1.1533111-2.0672952-.5362381,2.7246693-.1874005,5.1918761.5607288,7.5972361,1.0885192,3.4993818,2.9785667,6.3895959,6.5204972,7.8644638,1.5777134.6569091,3.2898157.8198189,4.9391412,1.2121353,2.9333829.6978303,5.8739734,1.3629547,8.833242,1.9488717,2.1275144.4213023,4.0928941.0593667,5.9293875-1.0158221,3.1748799-1.8586591,5.7607426-4.3696547,8.0043554-7.2706416,2.2086593-2.8559581,4.3319111-5.75741,5.7226115-9.1210854.892826-2.1594453,1.2627442-4.4400267,1.3762075-6.7500589.1279562-2.6053158.3231069-5.223497-.2435896-7.8111423-.1419841-.6479964-.3632531-1.2653018-.7489043-1.8149478-.4889617-.6968228-1.1551711-.9467675-1.9870803-.8222989-.2676928.0399912-.4891942.1198185-.6162979.3758859-1.0007091,2.0153686-2.1694431,3.8961934-4.3841476,5.1401046,1.0862716.2348318,1.8089026.0837024,2.4656567-.4986495.5849095-.5187226,1.2218231-.9788535,1.9099656-1.5236943.0533216.4975645-.2244465.7640947-.4397478,1.0355851-1.0425603,1.3150583-2.5555594,1.546325-4.0804937,1.7292303-.3303146.0396812-.6475313.0368911-.8781006.3465126-.1824403.2449071-.4237823.4867917-.7663423.3758084-.3385299-.1097432-.138729-.4992695-.2758305-.7353414-.5577837.087345-1.0185346.4932244-1.7954947.3853412.7006979-.5518161,1.3849653-.8612051,2.0578399-.9456825.8280341-.1039305,1.2136853-.6682244,1.7069097-1.1794293-2.3693989,1.5636855-5.1886985,1.9191108-7.7580533,2.9405906-2.2646934.9002662-4.3183482,2.1192217-6.1016751,3.7870702-.6299383.5891721-1.2693319,1.168889-1.9217459,1.7329504-.1490368.1288087-.3262845.4301375-.5551487.2160763-.1656998-.1550045-.0829274-.4457155.0330935-.6451288.2157663-.3710808.4287425-.7519269.7009304-1.0805364,1.8674943-2.2543856,4.1345903-3.9484299,6.9331967-4.8872922.2987712-.1002879.6285433-.1465568.9374673-.4681136-1.0973544.1848429-2.0197088.60103-2.9342354,1.0155121-2.9815893,1.3512518-5.773608,3.0674618-8.6887003,4.5476773-1.3338138.6772922-2.6719678,1.3436566-4.0976217,1.8113052-.4058018.1330714-.8138512.2780006-1.2907226.2208814.0969553-.4252549.4561783-.4970995.7354189-.6083927,2.9040095-1.1570312,5.6303063-2.6718127,8.3655934-4.1638087,3.5030244-1.9107406,7.0757234-3.6315232,10.979822-4.5857309,1.9611171-.4792739,3.6514413-1.4709928,5.087403-2.9080396.7342564-.7347989,1.5195092-1.4227864,2.4017174-1.9846778,1.9331388-1.2312008,4.0877014-.7429366,5.3263425,1.2081052.6966678,1.0975094,1.0379877,2.3267727,1.1104523,3.5986622.2224315,3.9040211.394099,7.8150949-.8391944,11.6137904-.9652131,2.9731415-2.5304486,5.6319339-4.3554717,8.1492071-2.4532564,3.3839035-5.1142963,6.5695562-8.5940701,8.9674759-2.0969785,1.4450295-4.330516,2.5847002-6.9490847,2.5765625-1.8309908-.0056577-3.6211379-.4247899-5.4072548-.8042409-2.7264518-.5794069-5.4542212-1.1529235-8.1772629-1.7482959-4.4765303-.9786985-7.2114298-3.8964259-8.830917-8.0182283ZM60.3827128,69.9855191c-1.5762409,1.0434904-2.7776808,2.5482742-4.4628899,3.4397826,1.8337034-.7027905,3.1036553-2.1366597,4.4628899-3.4397826ZM61.2191946,69.7988936c-.4675711.7610721-1.5550052,1.0327951-1.6025141,2.164328-.0156555.3730184-.4867142.7269712-.7494468,1.0896042,1.1428483-.8363268,1.7723216-2.0276915,2.3519609-3.2539322ZM6.916232,61.2834108c.8935235,2.0013407,1.2721995,4.159856,1.8643943,6.253502.1791077.6335034.3924714,1.2581716.548251,1.8971002.6347435,2.6033008,2.3182475,4.2544088,4.7147722,5.2903814,3.6843797,1.5927488,7.5453871,2.0587699,11.5217178,1.9151582,3.6752344-.1326839,6.9086285-1.4185238,9.8568143-3.5547184,1.0867366-.7875004,2.2095893-1.5267944,3.3818884-2.1890512,1.7327954-.978931,3.5644837-1.5823635,5.5727222-1.5197417.42913.0134079.7103857-.1207485.9559128-.4605184.445483-.6161429.9170067-1.2136853,1.3894604-1.8096777.1023805-.1290413.2219665-.3259745.4269599-.2359169.2370794.1040855.1889505.34442.1460918.5367806-.1419841.6364485-.5122899,1.1521485-.9179367,1.6435903-.8622901,1.0444979-1.8805147,1.9223659-2.9822093,2.698396-3.795983,2.6737503-7.7210072,5.1484748-11.8662928,7.2396407-3.0727319,1.5500451-6.3829307,2.2739937-10.1827888,2.3063121-5.2286896-.1040855-10.0738206-1.822388-13.5422016-6.4302071-2.9168749-3.8751903-4.0225221-8.1860982-2.8320874-12.9775976.0427037-.1719.0642494-.3550378.1395041-.5119799.2120462-.4423829.5266278-.8705828,1.0011741-.9515727.5596438-.0954828.6415637.4966345.8038534.86012ZM8.1454178,70.0208601c-.5607288-1.8199855-.8815107-3.6934475-1.3522593-5.532266-.2859833-1.11673-.4741588-2.2630659-.9420399-3.4736511-.0881976.25661-.1369465.3678257-.1646923.4840016-.4771039,1.9926605-.3296946,3.9877235.0740147,5.9606209,1.2275582,5.9989071,4.5935587,10.2134022,10.5245738,12.0591959,4.571393,1.4225539,9.0814818.8205939,13.4474163-.9886188,4.4595573-1.8479638,8.2422098-4.845906,12.3188285-7.3442687.0164305-.0100753.018833-.0432463.0316984-.0753322-.3066764-.0930802-.5346881.1092782-.7785102.2148363-1.6835815.7287537-3.1983631,1.752016-4.72415,2.7512526-2.5742374,1.6859066-5.3352553,2.8934692-8.386054,3.4076967-4.4629674.7522369-8.8266543.2140612-13.178561-.860275-3.6004448-.8887959-5.7965487-3.1186908-6.8702649-6.6031921ZM83.3148551,44.860528c1.8422286.8601975,3.5110072,2.0237389,5.2973566,2.9822868,1.7414757.9343672,3.4463703,1.9369364,5.1663003,2.9114497,2.3047621,1.305758,4.7283351,2.3135198,7.30358,2.9539985.51384.1278012,1.0169071.3148917,1.5075739.5167075,1.0566657.4347877,1.3968231,1.0348101,1.1272703,2.1668081-.5960698,2.5031678-1.9906454,4.5253567-3.9071987,6.2007229-1.8889625,1.6511855-4.1138197,2.6833606-6.5063918,3.3416647-4.6099116,1.2682469-9.3021307,2.0421069-12.8636693,2.163863-4.7545309-.00031-8.2096589-.4267274-11.4622735-1.9015178-2.507043-1.1367256-4.5907686-2.7868261-6.0091374-5.1823433-.4347101-.7341014-.8955386-1.5029237-.3420175-2.4098551.2039084-.3341122.4146371-.6404786.7866479-.790678.7026354-.2835032,1.2260857-.7868804,1.7273703-1.3358289,3.6073425-3.9498249,7.6037463-7.4543994,12.0468731-10.4386238.6286208-.4222323,1.3200184-.7509969,1.9822752-1.1233177,1.3718674-.7713024,2.7454399-.7090681,4.1454406-.0553366ZM66.128575,63.4003849c-.8055584-.8096661-1.4593675-1.7466683-2.183161-2.6251564.394099,1.151141,1.2461588,1.923451,2.183161,2.6251564ZM101.1502941,59.846054c-.2791631.1938331-.5181801.4192872-.7616147.6398586-2.6926609,2.4410885-5.7157913,4.3161006-9.3072458,5.0621373-5.2238845,1.0850316-10.4896977,1.3669848-15.8049574.6654344-4.3728322-.5772368-7.8926747-2.4589916-10.2485882-6.2810928-.3434125-.5570862-.6638068-1.1284328-1.0002441-1.7022595-.7974207.85919-.8223764,1.5202842-.1193535,2.4625567.068357-.3396149-.3472876-.6462913-.0850975-1.0501556.6646593.6584592.9730408,1.5161766,1.5681806,2.1754883,3.2721452,3.6247805,7.5071785,5.0351665,12.2182305,5.2966591,5.2120267.2892384,10.3223704-.5157,15.362342-1.7252777,2.8084492-.6740371,5.2444226-2.1386747,7.2535911-4.2504562.3664307-.3851087.7488268-.7685899.9247569-1.2928926ZM82.3226712,45.653686c-1.0262849-.3651906-2.0142061-.3750334-3.0148377.1326839-1.2229856.6204831-2.40722,1.2995578-3.5415431,2.0687677-4.0074866,2.7175391-7.4774176,6.066954-11.0101254,9.3438269-.3121016.2894709-.2825732.497797-.0937777.8360168,1.8127002,3.247422,4.4270838,5.4820445,8.0292336,6.5511106,2.9760866.8832932,6.0236303,1.0972769,9.2472591,1.1488159,3.4589257-.0833149,7.046505-.3227969,10.5257363-1.3827177,3.9456398-1.201905,7.1621384-3.4325749,9.4450448-6.8946006.980946-1.4875008.7438666-2.1199967-.8762405-2.6310466-1.8082826-.5704166-3.6357858-1.0774364-5.3434705-1.9518168-2.7992265-1.4335592-5.4868497-3.0630441-8.2439149-4.569068-1.6872241-.9216568-3.2943109-2.0011082-5.1233641-2.6519722ZM113.3540317,64.2066409c.3530228.396734.704573.8116036,1.1246352,1.1292079,3.8114059,2.8823089,7.7844815,5.5015751,12.2708546,7.2339055,2.0304816.7840903,4.1183923,1.2177929,6.3251916.8544624,3.1060579-.5113599,5.8811811-1.8244806,8.5736095-3.3767733,3.7235184-2.146735,5.2013314-5.5845025,5.3360303-9.6474032.104008-3.1346562-2.0525697-4.7250025-5.121814-4.0508879-1.5574853.342095-3.0388634.9716458-4.6288222,1.2668519.4447854.2517273.911814.222664,1.3870579.1491143,1.3521043-.2093336,2.6605749-.6386186,4.0284122-.7739375,1.8730745-.1852304,3.2859406.8148587,3.3133764,2.6055483.0533216,3.4596232-.8661652,6.5666886-3.7356862,8.8182841-1.5930589,1.2500339-3.4419527,2.011571-5.2620156,2.851308-3.3683255,1.5542302-6.7425412,1.4970336-10.1101692.1445417-4.9451089-1.9861503-9.6932071-4.3369487-13.7533952-7.8917446-.1399691.2827282.0840899.498107.2527349.6875225ZM82.1696043,17.4454227c-.6603192,1.8908225-.8498122,3.8567447-.8884859,5.8387874-.0778898,3.985941.4357952,7.9504914.464316,11.9337973.0041851.5823519.1860054,1.1493584.4617584,1.6729637.0585142.1109832.1353189.2298717.2832707.2101861.1753876-.0232507.1632197-.1779452.1440767-.2940436-.274203-1.6676935.0816874-3.3387197-.0549491-5.0139309-.2473097-3.0319657-.5081048-6.0674966-.3896038-9.1166678.0632418-1.6271598.2608726-3.2354866.7777351-4.7867718,1.11518-3.3471674,3.489384-4.9296859,6.8797202-4.5131113,1.2960702.1591896,2.5209934.6165304,3.7173957,1.37551-1.6348326,1.0076843-3.246182,1.7762742-4.9954854,2.2489604-.7077506.1912756-1.4210814.3787535-2.1041862.6401686-.7713799.2952061-1.3635747.8288091-1.753566,1.5613604,1.0611609-.4053368,2.0710928-.8887959,3.1538768-1.1546286,2.1713807-.5330605,4.158151-1.4348768,5.9252024-2.8110843.2286317-.1780227.4510631-.2847433.7578946-.1039305,1.8501338,1.0902242,3.2511421,2.5051829,3.5199974,4.7598785.0490589.411227.0802148.824779.1196635,1.237246.0777348-.0292959.155392-.0584367.2330493-.0877326.6040526-3.0644392-.7931581-5.1962162-3.4309473-6.6884446.2084036-.3029563.5362381-.2993912.5973099-.6740371-.7600646.6737271-1.4210038.2676153-2.1038762-.0752547-.7475868-.3754209-1.5303595-.6651244-2.3408781-.8849208-4.1545859-1.1268828-7.5534473.6596992-8.9732886,4.7257ZM15.5375829,73.8323435c.3718558.3082265.7703724.5762293,1.2122903.7775026,2.8886641,1.3151358,5.9287675,1.6711811,9.0567585,1.3820977,1.8006874-.1663198,3.3942113-.8424495,4.6160343-2.2191996,1.03233-1.1631538,1.7599987-2.4847223,1.2560015-4.088399-.5234502-1.6652135-1.9267061-2.3466908-3.4948867-2.6995586-1.7318654-.3897588-3.4948867-.6107178-5.2644182-.7455717-.6383086-.0485939-1.3028904-.1671724-1.9709599.1567096.2947411.4612934.7584371.5617363,1.1756317.6917076,1.3587695.4230848,2.7578403.6624118,4.1727989.7927706,2.5574194.2355294,3.5955621,1.0999895,4.2975776,3.5584385.0954828.3343447.0475864.5744467-.1243136.8461696-1.0721662,1.6959043-2.6157011,2.6508871-4.5913111,2.905172-2.3818768.3065214-4.6956291-.1328389-6.992331-.6975978-1.0887517-.2676928-2.1423173-.636991-3.0191779-1.3682248-.9246019-.7713024-1.1129324-1.7128773-.5649139-2.7862061.1716675-.3362048.362168-.6824074.6193205-.9521927,2.509833-2.6322866,5.3482756-4.7315127,9.0138223-5.4611964.7606071-.1513619,1.5194317-.310939,2.2790313-.4667961-5.086628-.0840124-9.0486983,2.1378997-12.200405,5.9832516-.1267162.154617-.2167738.3424825-.3064439.5235277-.7364264,1.4855632-.4533107,2.8040316.8298941,3.867595ZM47.295527,94.7357093c-.344265.1573296-.7024804.2921835-1.065346.3999116-2.269421.6734946-4.5757331,1.1148699-6.9566024,1.0712362-.7450292-.0136404-1.4843232.0297609-2.3463033.2427371.5535986.3816211,1.0410878.4653235,1.5358622.514615,1.4220889.1415966,2.8386751.0473539,4.244566-.1660873,1.9329062-.293501,3.850467-.6691545,5.5764423-1.6550607,1.2949077-.7396815,2.2181145-1.7868145,2.3951297-3.3229867.4293625-3.7275485-2.3860619-7.7002366-6.0428508-8.4731666-2.4096226-.5093448-4.7360853-.1291188-6.9528823.9232069-.3117141.1479518-.6490814.2790081-.9825736.7238711.9190217-.17221,1.6857516-.3155892,2.4523264-.4595884,4.5425622-.8531448,7.8142424.7300712,10.0389446,4.8655916,1.2630543,2.3480083.5218227,4.2310031-1.8967127,5.3357203ZM55.4382239,87.9136508c-.9016612.2247565-1.8530014.2473872-2.7803159.3720108-.4838466.0649469-.9907888.0787423-1.5396598.5949848,1.2828173,0,2.3673064.0614593,3.4427277-.0112378,3.5251901-.2382419,6.3501473-2.6395718,6.823066-5.944423.3017938-2.1087589.1482618-4.2459611-.2735055-6.3452646-.0637844-.3171392-.1269487-.68853-.5659215-.8960036.2547499,2.1141065.2169288,4.1537334.017903,6.2011104-.342095,3.5203074-2.4720119,5.3677287-5.1242941,6.0288229ZM58.8291801,20.633168c.001085.0021701-.001085-.0089128-.001085-.0089128-.0017826.0013175-.0034876.0025576-.0053477.0038751.0021701.0020926.0042626.0028676.0064327.0050376ZM58.2266001,20.7181104c-1.6424278,1.1896596-3.0786996,2.5577294-3.9022386,4.468625-.7356514,1.7066772-1.1562561,3.4953517-1.4798281,5.32828-.5863821-1.4889733-.7286762-3.0080175-.3751884-4.5804608.3530228-1.5700407,1.2466238-2.8921517,2.0954285-4.4536671-3.9957838,3.3569327-4.415691,9.8034153-.9165417,11.6456439-.171745-1.5446974-.1009079-3.0808697.0630868-4.6255671.3718558-3.5032569,2.3624237-5.927915,5.1114287-7.8728341-.2351418-.222819-.4254874-.0335585-.5961473.0899801ZM68.53533,6.1820975c.0651019.0320859.1488043.0280558.2241365.0379761.8658552.1135408,1.3350538-.138419,1.6907892-.9458375.1319088-.2994687.2687778-.618003.2968336-.9371573.050764-.5778568.3475201-.7896705.8866258-.9387073,2.5799726-.7134858,5.2088491-.7499118,7.8520635-.6674494.4137845.0128654.8283441.0018601,1.2425162.0018601-.0601418-.1322188-.1224536-.1737601-.1900355-.1856179-.224679-.0394486-.4504431-.0891276-.6772147-.0978078-2.714284-.1037755-5.429033-.2071635-8.0970481.4788864-.3444975.0885076-.6638068.1527569-1.0031117-.1110607-.3887513-.3023363-.7254211-.1140058-.9109615.2984612-.1236936.2750555-.2030559.5730517-.276373.8673277-.3797611,1.5249344-.7447192,1.7687565-2.1750233,1.1357956-1.169354-.5174051-2.3446757-.6116478-3.5652587-.4293625-1.1956273.1785652-2.372809.4347101-3.2071983,1.4574299.0956378-.016818.1943757-.0240257.2866808-.052004,2.5501342-.7716125,5.0949208-1.1585037,7.6225793.0872675ZM123.2075134,68.9121903c1.0717787-.3866588,1.97623-.7465792,2.9019169-1.0396153,1.8175829-.5753767,3.5717689-1.2907226,5.1971462-2.2910442,1.4341017-.8825957,2.7712481-1.8828398,3.6009098-3.4069991.5220552-.9590904.4239373-2.0146711-.2898584-2.8768837-.068667.1133858-.1260187.17221-.1412091.2403345-.032861.1474093-.068357.3009413-.0606843.4497456.0803698,1.5550052-.7000779,2.7066888-1.7472883,3.7278585-1.4367368,1.4009308-3.1295411,2.4009424-4.9969579,3.1063679-.9931914.3751884-2.0123461.6813223-3.006545,1.0541082-.5080273.190578-1.0257423.4039418-1.4574299,1.0361277ZM111.027259,7.5357518c3.9263418.2120462,7.7622384.7140283,10.9155726,3.4730311.0314659-.0761072.0628543-.1522144.0943202-.2283216-.1435342-.2011959-.2870684-.4023917-.4306025-.6037426-3.0340583-2.8010865-6.768737-2.8601432-10.5792903-2.6409668ZM121.6065494,10.1767187c.0047276.0044176.0096878.0080602.0144154.0124779l.0025576.0025576c-.0000775-.000155-.0000775-.00031-.0000775-.000465,0,0,.000155.000155.0002325.000155l-.00031-.0002325c-.0006975-.0027126-.001395-.0055027-.0020926-.0081377-.0067427-.0045726-.0133304-.0093003-.0200731-.0137954.0017826.0024801.0034876.0049601.0053477.0074402ZM129.860927,65.2155653c1.1631538-.7437116,2.1890512-1.6362276,2.8798288-2.8602982.1115257-.1977858.2997012-.4654785.0841674-.6136629-.2823407-.1939881-.3523253.1849204-.4647035.3369798-1.0348876,1.4008533-2.2254773,2.6205063-3.798308,3.4262197-1.0820865.5542961-2.2026141,1.0146595-3.3367821,1.4480521-.3622455.138419-.7812227.224679-.9599429.6445088.1081156.0995904.1993358.0852525.3000887.0489814,1.8350984-.6584592,3.6447761-1.3754325,5.2956516-2.4307807ZM92.4357855,4.6310448c.5953723,2.5700523,1.2072526,5.1332069,2.7265293,7.3462838-.3710808-2.6610399-1.5883312-4.9882777-2.7265293-7.3462838ZM96.8721696,13.0156263c3.0004223-.5397257,5.0577972-2.6166311,7.2543661-4.4666875-2.5782675,1.2278682-4.6709834,3.247267-7.2543661,4.4666875ZM61.7777534,14.4851466c.480979-.2136737.9210368-.5310455,1.2500339-.9665306.1114482-.1474093.2087136-.3031888.0420837-.4687336-.1491143-.1481843-.2817982-.0254207-.4020817.0565766-1.3569095.9258419-2.7355196,1.822388-4.0591806,2.7935688-.9640506.7073631-1.6805589,1.649093-2.0861282,2.8386751.0726196-.0663419.153997-.1253986.2166188-.2001108,1.4110836-1.684744,2.9963147-3.146049,5.0386541-4.0534455ZM45.5070074,22.3363575c1.3767501-.2261516,2.4062125-1.0541082,3.5427056-1.615457,1.1862495-.585762,2.5056479-.4203722,3.7196432-.8052484-1.89059-.7938556-5.5417213.4530782-7.2623488,2.4207054ZM13.1305953,66.2509179c2.5544743-.7875004,4.7988621-2.3575411,7.4509893-2.8912991-2.6765404.4654785-5.4556938.6628768-7.4509893,2.8912991ZM138.7120721,51.3594021c-.1567871,2.1483625-.8444646,4.0699534-1.8428486,5.9023393,1.8635417-1.6807914,2.8496029-4.843891,1.8428486-5.9023393ZM65.0494336,39.8010257c-1.6046067-1.0806914-3.35205-1.8660993-5.1847459-2.475422,1.5081939,1.2797947,3.1893728,2.2021491,5.1847459,2.475422ZM28.0478419,63.0540274c-1.837036-.6190105-3.6629116-.2886959-5.4410458.0145704,1.7815443.4969445,3.6135427-.2098761,5.4410458-.0145704ZM138.2858872,58.9850815c.3655781,1.1103748.8256315,2.1698306,1.5298945,3.1055154-.0104628-1.2814998-.4938444-2.3308803-1.5298945-3.1055154ZM120.1937607,90.4823855c-.7216235.1381865-1.4567324.2182464-2.1678156.395959-1.4697528.3673607-2.8833939,2.2661659-2.7052162,3.7206508.6822524-.7034105,1.1137074-1.4575074,1.736438-2.0544298,1.1331605-1.0862716,2.5461041-1.2939777,4.0107417-1.3190884.6330384-.0109278.7872679-.3016388.6972878-.8523698-.0912202-.5587138-.1279562-1.1141724.2153788-1.6132869,1.3612496-1.9784776,4.8009547-3.0630441,6.651166-.6407111.0918402.1202835.1970882.2358394.3155117.3289971.1658548.1303588.3365923.4267274.5603413.2273916.2112711-.1881755-.0280558-.4163421-.1424491-.5989374-1.0450404-1.6686236-2.578035-2.3252227-4.5633328-1.9620471-2.303367.4213798-3.7517292,1.7967348-4.0936691,3.9488174-.0585917.3688332-.2811007.3744134-.5143825.4190547ZM74.8679618,97.2712731c.6001775.3703058,1.1051047.6485389.4031667,1.356367-.0360385.0363486-.0125554.1318313-.018368.2256091,3.8103984-2.698861,7.8783368-2.3668414,12.0501281-1.1113048-.2950511-.5719666-.7760301-.7502993-1.2483288-.9239044-3.0873798-1.1344005-6.115548-.8681803-9.1019424.3951065-.3108615.1315988-.60258.3588354-.9938114.1178809-2.5418415-1.5654681-4.0253121-5.1223566-2.3143723-7.8293553,1.5250894-2.4129552,3.5348779-4.2209278,6.3634002-4.98324.4073519-.1097432.8701953-.1500444,1.1998899-.5744467-.4508306-.1125333-.8183463-.0823074-1.1921397.0085252-2.9427606.7147258-5.0557046,2.5628446-6.7995829,4.9341811-2.4128002,3.280903-.8204389,6.8589496,1.6519606,8.3845815ZM80.2118973,110.5033881c-3.7234408-.3128766-5.3021618-1.6197971-5.8896289-4.8643515-.1987158-1.0977419-.104783-2.1621579.2777681-3.2120035.1396591-.3834037.3713133-.7672723.2504098-1.2194205-.0906776.0172055-.1595771.0089128-.1840679.0379761-2.7513301,3.2783454-1.5830611,8.8416123,3.0064675,9.8782824,2.0345892.4596659,4.0761536.3695308,6.1253907.2628876.2403345-.0124004.5135299-.0409212.6461363-.3383748-.1949957-.2501773-.480204-.2346768-.7500668-.2571525-1.1607513-.0967228-2.3217351-.1903455-3.4824088-.2878434ZM86.4600516,110.6290968c.3478301.1254762.6337359-.0237932.9066214-.1236161,1.0541857-.3855737,2.1358847-.3919289,3.2208387-.2380869.7063556.1001329,1.4107736.1622122,2.1168966.0878101,1.3164533-.1388065,2.2450853-1.2770822,2.0815556-2.7610953-.826019,2.3995473-2.7100214,2.043192-4.5126463,1.8989603-.2520373-.0201506-.5056247-.0220106-.7585921-.0261958-.7131758-.0119353-1.4195313.0593667-2.0905458.3034213-.412777.1501219-.8462471.3226419-.9641281.8588025ZM92.4818219,104.2495761c.2149138-1.8181254-2.6458495-5.7752356-4.3567118-5.8732759,1.9846778,1.7158224,3.1216358,3.8219462,4.3567118,5.8732759ZM80.4178983,97.6222808c-1.8331608-.7014729-5.8077865,1.7060571-6.1218256,3.7772274,1.6718786-2.0640401,3.7971455-3.0852098,6.1218256-3.7772274ZM21.0934095,37.3273087c-1.3710149.6975203-2.2877116,1.8092126-2.9415206,3.1729423-.6708595,1.3992257-.5560787,2.7400147.2363819,4.055383,1.4580499,2.4200079,4.8039773,3.7401038,7.5468596,2.9802717,1.2488713-.3459701,2.2269498-1.049303,2.9829068-2.097056,1.5525252-2.1519276,1.8670293-4.5515524,1.444952-7.0988966-.0566541-.34194-.1364815-.7446417-.5892496-.7812227-.4709037-.0381311-.6507864.3170617-.7762626.6955052-.0554141.1673274-.0949403.3403899-.1355514.5122899-.206776.8760855-.1213685,1.7669739-.1249336,2.6525922-.0051151,1.2569316-.171745,2.4813122-.7643272,3.6076525-.7503768,1.426274-1.925621,2.2188121-3.5606086,2.1437899-2.1616929-.0992029-3.9572652-1.0030342-5.3364953-2.6764629-.7410766-.8992587-.9797835-1.9463916-.6411762-3.0712594.4827615-1.6035217,1.3955056-2.8920742,3.0035224-3.5133322,2.9278027-1.1310679,5.9497706-1.6690886,9.088767-1.1575737,3.8748028.6313334,7.369922,2.1540202,10.4890002,4.5420197.7982732.6111053,1.6077068,1.2101202,2.5952405,1.5350872-1.923296-1.6070868-3.7711047-3.3041536-5.8463826-4.7253125-5.4031472-3.6999577-10.9663366-3.678567-16.6711226-.7764176ZM23.996799,35.2673763c.1929031.0919952.3957265-.0142604.5707266-.1253211.240257-.1525244.2768381-.4226973.3344997-.6601642.275443-1.133548.138109-2.3020495.3760409-3.6464811-.4594334.4340126-.5701841.77231-.7035655,1.0946419-.3716233.8984061-.3281445,1.8938451-.6476863,2.8057366-.0640944.1832153-.1789527.4128545.0699845.531588ZM17.0977808,34.7543889c-.1336139-.0119353-.2721104.0206156-.2708704.1806578.00093.1402016.1267937.204606.2556024.2394045,1.5055588.4069643,3.0304932.6789198,4.606424.617228-1.4568874-.6975203-3.0176278-.8971661-4.5911561-1.0372902ZM104.7803447,40.6752512c.4204497.1233836.4724537-.4201397.6391611-.7136408.0268933-.0474314.0932352-.0723871.1794177-.135784-.0305359.5821969-.4448629,1.0760413-.1659323,1.7038871.2989262-.2122787.3762734-.4667961.4539307-.6979078.85981-2.5605195,2.7524151-4.1477657,5.0689575-5.2847238,3.0644392-1.5040088,6.3174413-2.303677,9.7395534-2.3705615.5597988-.0109278,1.1199851-.00155,1.6799389-.00155-.0221656-.1233061-.0443313-.2465347-.0664969-.3698408-5.7782581-.9828836-10.8352803.6862825-15.2646892,4.2654916.2131312-.3171392.585142-.6980628,1.0078393-1.0055143,2.3171624-1.6859066,4.8170752-2.9933696,7.6669881-3.5103096,3.0053825-.5452284,6.0022397-.462611,8.985379.1989483.4499006.0997454.9279345.2709479,1.4377443-.1925156-1.2447637-.136249-2.3754441-.3634856-3.503722-.6392386-2.5411439-.6210256-5.0980983-.3110941-7.6195567.1838353-3.4638858.6798498-6.5354552,2.1496801-8.9563931,4.793127-.7253436.7919955-1.3076181,1.6885416-1.4981961,2.7716357-.0616918.3502327-.2211914.876318.2160763,1.0046617ZM129.429317,31.0433484c-.4020817.3361273-.4747788.6295508-.2948961,1.0996795.5021371,1.3124232,1.3545069,2.5112281,1.322111,4.0311248.8280341-1.7984398-.0088353-3.1641846-1.2598767-4.4586272,1.8076626-.6400136,3.4104092-1.6722662,5.3667212-1.3786876,1.9224434.2885409,3.2291315,1.6200296,4.7546084,2.9586486-1.6881541-3.9681155-6.6234202-4.9819225-9.8886677-2.252138ZM125.6089208,35.1853014c-.1605847,3.8011756-2.0147486,6.4328422-5.4687141,7.9762221-.8697303.3886738-1.7262077.8067985-2.5887303,1.2113602.0202281.0646369.0404562.1292738.0607618.1939106,3.3876236-.3610055,6.0358756-1.9034554,7.664818-4.9728547.9363047-1.7642613,1.2250781-3.6340032.5645264-5.5748147-.1418291.3818536-.2160763.772775-.2326618,1.1661764ZM133.8605859,22.9066191c-.2314217.6358285-.4591234,1.1943098-.6387736,1.7678264-.4847766,1.5476425-1.3309462,2.8234847-2.6648375,3.7782349-.5121349.3664307-.9755984.8083485-1.4235614,1.2536765-.2359169.2345218-.51415.5073298-.3477526.9228969,3.1921629-1.11828,6.0494385-5.3889643,5.0749252-7.7226347ZM125.7388146,24.2390379c.4705937,1.667771.9411874,3.3355421,1.4117036,5.0032356.2156888-1.8633092.0127879-3.60742-1.4117036-5.0032356ZM81.8804434,61.1670025c.0492914-5.0846905-.0556466-9.9779503-.4355627-14.9894012-.3577504.2283216-.3347322.3949515-.3489152.5362381-.4356402,4.348729-.2571525,8.7011007-.0546391,13.0523873.0219331.4709812.1586471.9432024.8391169,1.4007758ZM78.9737988,46.7649134c-.2020484-.0863375-.2535874.0883526-.310784.2252216-.859655,2.0541198-2.2595007,3.7728098-3.4868265,5.5969029-1.5295845,2.2729861-2.9689564,4.5920861-3.899216,7.1870941-.08502.2370019-.3016388.4742363-.1419066.7658773.2447521-.0241807.2630427-.2379319.3332597-.3841012,1.0552707-2.1961039,2.3564561-4.2474336,3.677482-6.287913,1.0593008-1.6362276,2.1172066-3.2735403,3.1582169-4.9215482.3510852-.5556912.6502439-1.1451733.8128437-1.7902246.0386736-.1534545.0227857-.3203168-.1430692-.3913089ZM86.5271686,48.9348215c2.1587478,3.7678496,4.5758107,7.354499,7.4491293,10.6207541-2.2231522-3.7226658-4.7388754-7.2399507-7.4491293-10.6207541Z"/>
  </g>
</svg>