<?xml version="1.0" encoding="UTF-8"?>
<svg id="Layer_2" xmlns="http://www.w3.org/2000/svg" viewBox="0 0 87.8540832 84.6108376">
  <g id="Layer_1-2" data-name="Layer_1">
    <path d="M87.8385278,58.6767513c-.0640498-.9452939-.345908-1.85832-.4294449-2.7963731-.0911665-1.0236797-.6247532-1.5933733-1.5917696-1.8166244-.2172252-.0501513-.4316803-.1196439-.6515783-.1498708-1.2983942-.1784454-2.5545096-.5119127-3.7607653-1.0234853-1.7957766-.7616488-3.6486052-.9999161-5.5918228-.769327-1.7136004.2033266-3.4251111.1252811-5.1052773-.3543637-.6415675-.1831106-1.301067-.3581542-1.9621701-.4086457-3.1909259-.2437101-6.3804425-.2556162-9.5521728.258046-.7771996.1258642-1.5487134.2867178-2.3228514.431486.1907402-.1795145.4010647-.2892448.617075-.3862429,1.2996091-.5833978,2.6447528-1.0507478,3.9736654-1.5598419,1.1356454-.4351307,2.3309183-.7845862,3.2358288-1.6466348,1.7801286-1.6959114,3.6790264-3.2506021,5.5810344-4.8030087,1.8051557-1.473292,2.5251575-3.3586801,2.2027215-5.6642312-.1167282-.8345431.0325109-1.6468292.4123876-2.4017716.3546067-.704694.7074154-1.4131299,1.112222-2.0892007.8109253-1.354377,1.0401052-2.7176472.3361887-4.2058096-.4518478-.9552076-.3364803-1.9370459.1476354-2.8785979.2742285-.5333437.5452497-1.071304.7692298-1.6267103.3342935-.8290031.2112964-1.610625-.3351682-2.3280512-.3467827-.4552009-.7645645-.8333768-1.2019792-1.1960019-.6473018-.5366968-1.3486913-1.0067196-1.9446269-1.6070774-.6801529-.6852555-1.0458395-1.4757704-.9007798-2.4612048.0549623-.3733649.0791147-.751395.1377217-1.1240309.2337479-1.4866074-.3647147-2.5699146-1.6076606-3.3421574-.6891432-.4281328-1.4356785-.7388085-2.2043251-.9821785-2.0021648-.6338893-3.4206403-1.8009764-3.9249234-3.9487355-.2772901-1.1811315-1.1444413-1.8749885-2.2813988-2.2420844-.4428089-.1429701-.894851-.2419121-1.3555433-.2951735-1.0772813-.1246493-2.081814-.4270637-2.9217027-1.1515363-.5461731-.4711405-1.0973515-.9365466-1.6390052-1.4128383-.9639063-.8476641-2.062327-1.3662831-3.3398247-1.5987675-1.4306245-.26033-2.8265027-.2292284-4.2379317.0809613-1.0687284.234817-2.1181154.1632833-3.0961146-.3894016-1.4638643-.8272537-3.0125291-.9503965-4.6363237-.6109033-1.3465044.2814694-2.5584945.8855206-3.7585785,1.5113915-1.1235449.5859734-2.2797465.6944888-3.496256.4228358-.4016965-.0896601-.8085441-.1559939-1.2117471-.2390935-1.9625589-.404515-3.6354356.1514259-5.0312652,1.5543019-.7505688.7544079-1.4490911,1.5603279-2.1905724,2.3241635-.810002.8344945-1.7615163,1.4193988-2.9481391,1.5449715-.4267721.0451945-.8562656.0720196-1.2799762.1367012-2.1375539.3264209-3.811354,1.3193391-4.7245744,3.3616444-.293667.6566809-.5694507,1.3245389-.8017407,2.0048862-.5565727,1.6304036-1.6361866,2.7936031-3.1256611,3.6070068-.3763292.2055135-.7471185.4285216-1.1418657.5916105-2.0700052.8554881-3.2291711,2.4154758-3.6109917,4.5940935-.0591902.3376466-.1407833.6714056-.2129973,1.0067196-.2797199,1.2985886-.5805792,2.5755032-1.6470721,3.5193392-1.0143492.8977668-1.406861,2.0934285-1.4317908,3.413448-.0288176,1.5289833-.4127278,2.9433767-1.2084425,4.2548432-.5250823.8654017-1.0096353,1.7581631-1.3361048,2.7210975-.931687,2.7480198-.9905856,5.3623514,1.1964879,7.6278592.4731329.4900444.7779771,1.0908397.9502507,1.7468888.5472422,2.0842439,1.8845133,3.5644851,3.6527359,4.6716045,2.5513509,1.5975526,4.8686136,3.5916504,7.7676705,4.636518-1.6027524.1637207-3.1974378.2377814-4.7762808.4791103-1.5343775.234574-3.0427074.5638135-4.3626297,1.4383513-1.297325.8596188-1.7924721,2.1141791-1.4072011,3.6178438.4990833,1.9474941,1.6820614,3.4378433,3.2655211,4.6155731,1.2949438.9631288,2.616081,1.8919972,3.8298692,2.9578097,1.7538867,1.5401118,3.66921,2.8219347,5.8110404,3.7632437,1.8190542.7995052,3.3903162,1.9390869,4.6724307,3.4693823.3192287.3809459.6682468.7393917,1.0253805,1.0857856,1.4775685,1.4331515,3.3602352,2.1714741,5.2029557,2.9554771,1.7541782.746341,3.628292,1.1433236,5.4409801,1.721716,2.9230148.9327075,5.8041397,2.0024078,8.8087477,2.6674958,2.4968745.552685,5.0100287.8699698,7.5606506.4709461,1.5714078-.2458483,3.0274482-.8778424,4.4801354-1.4908352,2.4635375-1.0395706,5.0284953-1.5736432,7.6937557-1.7203067,2.2708048-.1249895,4.4267767-.7518809,6.4693736-1.7390162,2.5623336-1.2383292,4.7203465-3.0514061,6.8406974-4.910455,1.9489519-1.7087894,3.8288486-3.5168122,6.0887679-4.8167129,1.6713703-.9614279,2.9134414-2.2613771,3.7383624-3.9864948.2367608-.495147.4975282-.9787767.7340461-1.474021.4452873-.9325131.9493274-1.8199775,1.6542644-2.5927062.7782687-.8531069.9650726-1.9051667.8892139-3.0246296ZM56.2421315,3.9964638c-.5106006-.2388505-.895337-.6110004-1.2103864-1.0613903.4034945.3537806.8069405.7075612,1.2103864,1.0613903ZM7.1264044,50.1899537c-1.5210621-.9924323-2.8645536-2.1163174-3.5603059-3.8551878-.5220693-1.3047603-1.0817036-2.5764265-1.9211063-3.7374877-.8020808-1.109452-.6042942-2.4215017-.2982837-3.6808731.1788827-.7364273.4559299-1.4453978.8172429-2.1065981,1.1367631-2.0805505,1.6337082-4.3142764,1.7192375-6.6651192.041404-1.1376378.3300656-2.2065606,1.1153322-3.0842086,1.2190365-1.3623954,1.8873319-2.9892515,2.1531047-4.7658326.3459566-2.3125976,1.5117316-3.901986,3.733357-4.7311835,1.5746152-.5876743,2.6617615-1.7795455,3.5829031-3.1416979.7884253-1.1659208,1.4887456-2.388845,2.3256699-3.5238587,1.0858342-1.4725145,2.4853572-2.4521173,4.2942062-2.7941862,1.2418281-.234817,2.2791633-.8353207,3.1778535-1.6955712.7194672-.6886572,1.4177951-1.3993771,2.1313336-2.0943033,1.4821851-1.4435997,3.2540524-1.9935633,5.2893598-1.6651499,1.8349938.2960483,3.5831461.1688233,5.2092246-.8494136.474445-.2970688,1.0184799-.4941265,1.5479358-.6902123,1.9024453-.7044996,3.8042589-.903404,5.6777895.1028296,1.215246.652696,2.5006164.6711626,3.8089728.4135539,1.5082813-.2969716,2.8972102.0008261,4.1997351.7815732.3385214.2029379.6913786.38911,1.0038524.6273288,2.009843,1.532628,4.2419166,2.5047957,6.7727113,2.761481.3373065.0342117.6681496.1524464.9966602.2497846.9840737.2915774,1.6299177.9158446,1.8706634,1.9312629.043445.1834022.1149787.3614102.144914.5465618.2490557,1.540209,1.1740364,2.5159728,2.5801684,3.078863.6841378.2738398,1.3825628.5119127,2.0734069.7692298.3212697.1196439.6454552.2337965.9588037.3720528,1.7303661.7635926,2.2864528,1.7784278,2.0071216,3.6431138-.0330454.2206269-.0492766.4448499-.0978728.6618807-.3020256,1.3491772.2025977,2.4148926,1.1430806,3.3407967.6390405.6291268,1.3752734,1.1384154,2.0598,1.7111706,1.3449494,1.125343,1.4500144,1.5392371.8016435,3.1507854-.1344172.3340991-.2591637.6725233-.4066533,1.0007422-.4817831,1.0720329-.5444236,2.1745357-.108321,3.2554131.5882574,1.457887.3488724,2.7837866-.4692452,4.0622077-.1385965.2165934-.2478408.4523823-.3912483.6654768-.8772106,1.3034968-1.2595172,2.7245478-1.0791766,4.2970733.2304919,2.0104262-.5771775,3.5782379-2.115394,4.8145746-1.6866295,1.3555919-3.3717525,2.7105035-4.9255684,4.2233043-.5742617.5590511-1.2928542.9337766-2.0462902,1.2424113.7557686-.781233,1.2044576-1.744702,1.6885247-2.6857194.4187051-.8137925.8940735-1.6003712,1.5602307-2.226728,1.5944424-1.4991938,2.487058-3.3205806,2.7705199-5.4860774.1852974-1.4152195.8677343-2.6276469,1.7986924-3.6993883.5084138-.5852444.9747433-1.1885181,1.2430917-1.9359282.3831813-1.0672705.3309403-2.0899296-.2107133-3.0811956-.2466259-.4513618-.5147313-.8919353-.7908551-1.326094-.4899472-.7703475-.5258112-1.5794748-.2284995-2.4180028.1202271-.3391045.2561993-.6739812.4067505-1.0007422.6566323-1.4249874.0949084-3.7827794-1.8103069-4.5267391-.2696605-.105308-.5212432-.260087-.7745754-.4036889-.704937-.3995096-1.0515739-1.0158071-1.0585718-1.8190056-.0043251-.4978684.0259504-.9959798.0236178-1.4938968-.0085529-1.8121049-.8845486-3.0194784-2.5995097-3.5940802-.3088777-.10351-.617075-.2099357-.9295002-.3017826-1.0686798-.3141746-1.7657441-1.0158557-2.1550972-2.0445893-.1395684-.3688454-.2763668-.7389057-.4248769-1.104155-.5387864-1.3254623-1.5722339-1.9537144-2.957421-2.0243247-.7190299-.0366902-1.4435997-.0142387-2.1633099.0244439-1.1735018.0630293-1.9757285-.4422257-2.4486184-1.5029843-.1885048-.4228358-.3752115-.8464978-.5686731-1.267001-.8764817-1.904778-2.4591638-2.6116588-4.4844118-2.0384176-.8926642.2527004-1.7184114.6906497-2.6273554.8951912-.9128316.2053677-1.7602528.1412693-2.5510593-.42269-1.5817588-1.1279672-3.2538094-1.0063308-4.9391268-.2746173-.5171611.2245146-1.011968.5106492-1.4916128.8093217-1.1319035.7047426-2.3535156.8997593-3.6578385.7332686-1.0289281-.1313556-2.053531-.142144-3.0637009.1590555-1.1588258.3454706-2.2506374.8325021-2.9453205,1.8622563-1.2235074,1.81366-2.9773454,2.7146828-5.0445806,3.1795544-2.1875109.4919397-3.686899,1.8157011-4.515319,3.9021804-.2404056.6054605-.500444,1.2032427-.755963,1.8026287-.4379007,1.0272758-1.208151,1.6869211-2.2597735,2.0343355-.5048177.1667337-1.0168762.3158755-1.5103223.5116211-1.8468999.732734-2.9794837,2.0334122-3.158172,4.064589-.1105564,1.25665-.5655144,2.2633696-1.7851826,2.8512868-1.4252303.6869078-2.4386076,1.7596696-2.8084249,3.3536261-.1408319.606967-.1700868,1.2223897-.1791257,1.8412141-.0092819.6353958-.0362042,1.2707915-.0313446,1.9060415.0069493.9179828-.3346337,1.7019859-.8627775,2.4286454-.3731705.5134678-.7597049,1.0218816-1.0816064,1.5671313-1.029171,1.7432927-.8406662,3.6207596.4863511,5.1464383.2141636.2461885.4215723.5014159.6592079.7234521,1.4429194,1.3479137,1.7765811,3.060445,1.6018776,4.9391754-.7272426-1.6472665-1.5658678-3.2406398-1.9854477-5.0863734-.273451.275735-.221939.5221665-.2254379.7401206-.0151134.9436903.2582404,1.8316406.5788783,2.7028253.6068698,1.6488216,1.3903382,3.2099756,2.3816528,4.6640235.0529213.0776082.159833.1366526.1084182.299207ZM75.7226607,70.7479585c-1.0754346,1.9830665-2.792048,3.2676107-4.7282677,4.3017386-1.7089837.9127831-3.3599922,1.9356852-5.1393433,2.7156547-.1227055.053796-.2596983.0965607-.3572795.2673279,1.8475316-.4461134,3.4289016-1.3617151,5.0806876-2.0829318.092673.1228513.0059773.158035-.0344547.1852488-2.6389699,1.7772614-5.4232425,3.2280534-8.5931262,3.8071261-1.2878974.2352544-2.6000443.1973493-3.8965432.3441585-1.3383403.1515231-2.5795367.5603146-3.7008462,1.3040313-2.5599524,1.6979524-5.3524377,2.2466039-8.3911116,1.870955-2.0873054-.2579974-4.099724-.8284686-6.1477637-1.2484858-.1505025-.0308586-.3020256-.057052-.4684191-.1275651,1.9718408-.3602439,3.9931525-.5959842,5.5057589-2.2682778-.9176913.3149036-1.7391134.679181-2.6062646.9156016-2.6879063.7327826-5.3615738.8000884-7.9876171-.2211129-2.972583-1.1559586-6.0559654-2.0092599-8.9747524-3.3088203-.2939586-.1308697-.5831548-.2725763-.8711361-.4598662,1.1145546.1922953,2.0972191-.2733538,3.1347972-.4805196.8845972-.1766473,1.8726073.0617172,2.7157519.5571072.4900444.2879327.9335822.6402068,1.3763425.9943761,1.560668,1.2484372,3.2951162,1.5292263,5.1794352.8991275.6334033-.211831,1.2500895-.4731329,1.8811602-.6924963,1.2515474-.4349849,2.5007622-.38911,3.6246959.3081973,1.8835414,1.168545,3.9173424,1.3987454,6.0460518,1.1355968,2.01514-.2491529,4.0443729-.2438559,6.0641296-.3963509,1.6290429-.1229485,3.2368979-.3695258,4.7856599-.9263414,1.0985179-.3949416,2.0808421-.9636633,2.9130526-1.7908684.4015507-.3991695.8263304-.7756931,1.2498465-1.1520223.9392194-.8344459,2.0164035-1.114749,3.251331-.8319189.5504009.12601,1.1139715.2262641,1.6764243.2621767,2.2947141.1466634,4.0404852-.9725078,5.5890042-2.5013939.5365996-.5297961.9724592-1.1592631,1.5773851-1.6228226.1019549-.0781427.2282565-.2427868.3485808-.1432617.1748007.1445738-.0383424.2670849-.1031698.3866316ZM48.6750176,78.8947283c.946849-.8967463,1.8624992-1.5468667,2.9446402-1.9680989,1.0025889-.3903249,1.9771864-.334828,2.9488194.0841687.7788032.3358486,1.4908352.8046564,2.28378,1.1392415-2.6605952.5019019-5.3608935.3733649-8.1772396.7446887ZM81.7814933,68.187666c.5401957-.9703696.0294979-2.1603456.7207793-3.1843168.1051137.3766694.1865609.668587.2908971,1.0425836.2991098-.5377173,1.0487067-.3808487,1.2912019-.9381503-.4041749,1.2908617-1.2375517,2.2559343-2.3028783,3.0798835ZM86.1140418,61.5344528c-.6305847.6676151-1.3745931,1.1980915-2.1500918,1.672245-1.4507434.8870756-2.5034836,2.0684987-2.9621834,3.7337944-.0453403.164644-.1167767.3223874-.1798547.4818317-.6074043,1.534912-1.1214553,1.9869542-2.77917,1.9055555-1.707866-.0838285-2.9276801.6127499-3.9553932,1.8724615-.6191646.758976-1.29854,1.4630868-2.1872679,1.9302424-.8532041.448446-1.6847342.5304765-2.6132625.157063-1.5130923-.608522-3.0722539-.6540081-4.6307351-.1082724-.6161516.2157673-1.117519.6003093-1.5670341,1.0544897-.4589914.4637053-.923377.9266816-1.3372712,1.4295554-1.2827948,1.5586756-2.8674694,1.8059332-4.6807406,1.1329726-.5625986-.2087694-1.1157209-.4440724-1.6826932-.6395264-1.885874-.6501204-3.618184-.3044554-5.2083499.851892-.4439266.3228734-.8614654.6821453-1.2893067,1.0270328-1.2088799.9744031-2.5723444,1.1541119-4.0308632.7512978-.4599633-.1270306-.9246405-.2890504-1.3385347-.521632-1.6562082-.9306179-3.4435291-1.0679508-5.2882907-.9945219-1.263988.0502971-2.4675223.4217667-3.7064347.6004065-1.2140311.1750436-2.3095846.0559829-3.2405426-.8653045-.9280909-.9184688-2.0481369-1.298297-3.3690311-.9345542,1.0360231-.8927614,2.2683264-1.1602351,3.6341235-1.2353649-.2977491-.2934727-.6232467-.2781648-.9235714-.3057675-1.2176272-.1121115-2.3903029.1874843-3.5648739.4300281-2.3122574.4774094-4.3095626-.1250381-6.0469265-1.6896424-.5230899-.4710919-1.0396678-.9529721-1.5947826-1.3841179-.9538469-.7408982-2.036571-1.1671357-3.2740254-1.21753.0363014.260087.2998874.3080029.4048552.5953039-1.9283471-.8343973-3.3459479-2.2300812-4.8720154-3.5882487.2513397-.0557885.4021338.0557885.5523448.1268848,2.2674031,1.0734422,4.6205299,1.9284929,6.9948446,2.7249366.8294891.278262,1.4304301.7676747,1.8389301,1.5392857.4379007.8271565.991023,1.5681519,1.8074883,2.0715116.1434075.0884451.2729164.2071171.5078792.2254379-.2358375-.4653575-.5631332-.8288088-.856946-1.2119901-.4911135-.6404012-1.0058448-1.2627731-1.493994-1.9053611-.3162643-.4162753-.7512492-.6491971-1.2134965-.8364384-.7941596-.3217557-1.6025094-.6084734-2.3954055-.9331935-.392852-.1609507-.7665084-.3704491-1.130397-.6496344,1.2805593-.0727972,2.9329771.4339644,4.0940869,1.254609,1.0515253.7431822,2.0978508,1.4937024,3.143496,2.245146,1.3494688.9696892,2.8319941,1.4331515,4.5054054,1.2409048.6317996-.0725542,1.2685075-.0288662,1.9034173.0282344.9269246.0833911,1.7229795.4448499,2.3827219,1.0933667.4283272.421135.8206932.8789601,1.2504783,1.29854.926147.9041815,2.025977,1.1601865,3.2764553.8517462.6349584-.1566743,1.2562126-.3566478,1.855793-.6086678,1.5673257-.6587219,3.1593869-.7047912,4.7928035-.2983323.5813567.144671,1.1782643.2377328,1.773228.3144662.9805748.1263988,1.9165383-.0533101,2.7925826-.5125931.6229551-.3266153,1.2418767-.6615405,1.8552584-1.0057962,1.4903979-.8363412,3.0027613-.8459146,4.5474411-.1586667.4694396.208818.9416006.4394071,1.4369906.5573016,1.8741137.4460648,3.6209054.1187206,5.1298184-1.0936096,1.4797067-1.1889069,3.1412605-1.8825695,5.0166864-2.0653885,1.0078373-.0982616,2.0204856-.1618741,3.0325022-.1979325.8455745-.0301297,1.478832-.387555,1.9337899-1.0829185.234817-.3589318.4581653-.7255418.6820481-1.09152.5060326-.8272537,1.2392525-1.2971793,2.1944601-1.4648849.9149213-.1606591,1.8301827-.3337103,2.4538668-1.1466281.3191801-.4161295.5464646-.8754125.7120806-1.3617151.2970688-.8723024.8482959-1.354377,1.7817323-1.5622717,2.0994059-.4676902,3.4248196-2.7225068,3.0398402-5.0020589-.2598927-1.5392857-.848393-2.8582847-2.3288287-3.6137131-.6434627-.3283647-1.33212-.4470853-2.0379802-.479985-.4622474-.0215281-.9325131-.034066-1.3896093.0242981-1.8916084.2415233-3.6477791-.15682-5.3198783-1.0350998-1.6913919-.8884363-3.4741933-1.4469043-5.4014228-1.5339887-1.0580858-.0478187-2.0913875.0654105-3.1184203.2791854-1.2248681.2548872-2.4358862.5773233-3.7436594.7211681.2086236.2447792.4387268.1773277.6336463.1708158,1.2377461-.0411124,2.4571228-.2571713,3.682574-.412339,2.6234191-.3321553,5.1362331-.0291577,7.4880964,1.2525193.2108105.1148329.4338672.2072629.6437543.3235537,1.5989619.8860551,3.2976432,1.3280865,5.1371564,1.2185991.7712708-.0458748,1.5497339-.020459,2.2953945.2233969,1.5471583.505984,2.3916636,1.6376931,2.6466481,3.1883017.2558592,1.555614-.2501734,2.8432684-1.5996422,3.7426389-.3945528.2629542-.8416382.3866316-1.2961101.4756113-.8938791.1749464-1.4766451.6823883-1.7423694,1.5550795-.0599678.1967661-.1385479.3878465-.1981754.5847099-.2434671.8036845-.7681121,1.3533079-1.5699013,1.564167-3.1034041.8162709-2.8013299,1.2300679-4.098169,3.0199157-.307031.4237592-.6764596.6611032-1.2162665.611535-.6494401-.0596762-1.3008726-.0970953-1.9511388-.1478297-2.4604759-.1921495-4.5601248.5054008-6.2249831,2.4094499-1.4020985,1.6035299-3.3093063,2.028747-5.3504453,1.2635507-.4808597-.1802434-.9419894-.4130194-1.4124981-.6208655-1.3033024-.5758168-2.6058272-.5475824-3.8859492.0527269-.7759847.36384-1.5332112.7691326-2.2888826,1.174328-1.1521195.6177553-2.3410749.7165515-3.5866936.3314263-.5565727-.1721279-1.1232533-.3165559-1.692218-.4426145-1.1532858-.2554218-2.2834884-.1536613-3.3928918.2524088-.5791699.2119768-1.1654349.4068477-1.7557819.585293-.9541384.2884186-1.8715381.1504053-2.7392725-.3139317-.4379979-.2343796-.8931502-.4603521-1.2762343-.7697643-1.8924831-1.5285459-4.0085089-1.9912307-6.3813172-1.4975415-1.0840848.2255351-2.0974134.0006318-3.0058228-.7077555-.9073889-.7076098-1.8604096-1.3666233-2.6874689-2.1627268-1.45813-1.403605-3.2005479-1.9501183-5.1692785-1.8815976-.5637163.0195843-1.0219302-.1212962-1.4700361-.4600605-1.2797818-.9673566-2.7038944-1.6061541-4.306501-1.8444214-.4868371-.0723598-.9636633-.2481324-1.4289236-.4202116-.5329063-.1970577-1.0362175-.4214751-1.0796139-1.1365201-.0207992-.3429922-.3369663-.5914648-.581211-.8290517-.4059729-.394893-.8253098-.7777827-1.2587882-1.1422059-.9814981-.8252126-1.4869961-1.9549779-2.0094543-3.0770163-.0951028-.2042986.008067-.3649091.0914095-.5327119.3913941-.7880365,1.0178967-1.3243931,1.8054473-1.690663,1.3856244-.6444347,2.8587706-.9506881,4.3634072-1.1401648,1.826781-.2299574,3.6637672-.3034835,5.5014338-.3109187,2.3296548-.0095249,4.6171767-.3500873,6.8984783-.771125.8947053-.16513,1.8162356-.1358751,2.7028739-.3603897.2247576-.0569062.4748338-.0648274.6597911-.2699035-1.9417597.0076782-3.8488217.2105189-5.7585079.4017451-2.3972036.2399682-4.7754547.2128029-7.0129224-.8638952-1.333432-.6416161-2.5838131-1.4243556-3.7704846-2.3082239-1.5502684-1.1546951-2.2190012-2.7840782-2.5066423-4.626167-.0978242-.6265998-.2548872-1.2438692-.3588832-1.8697401-.2098385-1.2633077-.7985333-2.3210533-1.6733141-3.2421949-.4962161-.5226039-.9810122-1.0593979-1.3621038-1.6772504-.7399748-1.199598-.7893486-2.4179542-.0993307-3.6584702.3786133-.6805902.8769676-1.2741446,1.3838263-1.8549182.8709417-.9980694,1.2542202-2.142122,1.1931347-3.4585939-.0584127-1.2590798-.0092333-2.5020257.5386407-3.6820394.2297144-.4947097.5187648-.9278479.9178857-1.2876544.4080626-.3678735.8047536-.7573237,1.2540744-1.068534,1.0214928-.7075126,1.4517639-1.6987785,1.4971042-2.8952664.0734289-1.9388439,1.1908507-3.1102075,2.8561464-3.8575204.5454441-.2447792,1.1277242-.4089373,1.6966889-.5993859.981158-.3285105,1.6934329-.9632745,2.1389146-1.8892758.3641802-.7570807.7270482-1.5163969,1.0485123-2.2920899.7724857-1.8642001,2.1907182-2.9333658,4.1048266-3.4203001.4817345-.1225597.9568112-.270924,1.4372822-.3986835,1.4930707-.3970798,2.6427118-1.2706943,3.5293986-2.5184512,1.3668663-1.9234389,3.2602241-2.5704978,5.5385613-2.2641957.6291754.084606,1.2559211.1879216,1.8835414.2838992,1.2530539.1916635,2.3410264-.1481213,3.2780103-1.0001105.4821232-.4384352.9611849-.8828964,1.5837027-1.1295709,1.1442955-.4534515,2.2460207-.40296,3.3037177.2534294.2041042.1266904.4137969.2445362.616346.3736564,1.3030108.8306068,2.6562701.9194407,4.0766408.317139.75572-.3204436,1.4867046-.7126152,2.3071548-.8641868,1.0835988-.2001679,1.8740651.1375273,2.4684457,1.0631884.3729275.5807736.6100285,1.2279296.8977182,1.850253.6753905,1.4609,1.4418016,1.9274238,3.0431933,1.8282389.7538248-.0466524,1.5046852-.1387908,2.2601136-.0098164,1.0251861.174995,1.7635087.7291379,2.2078241,1.6632547.1986614.4175874.3792936.8459632.5350931,1.2812883.3745312,1.0465685,1.0939012,1.7195777,2.1444546,2.0563496.3428464.1098761.6830201.2285481,1.022319.3490667,1.7349827.6161516,2.5448876,1.7866405,2.5169933,3.6347067-.0080184.5320802-.0364472,1.0646463-.0222571,1.5960461.0178348.667858.3281704,1.1837557.9111794,1.5164455.3122794.1781538.6306333.3525171.9630802.4871286,1.5025955.6084248,2.6761946,2.6312917,1.5876875,4.4507832-.7704447,1.2878488-.6999801,2.5270527.1009344,3.8235516,1.0578428,1.7123369,1.0439929,3.5432972-.2034238,5.1104771-1.28469,1.6140267-2.000221,3.3683993-2.1907182,5.388399-.1033156,1.0950189-.5958384,2.0333636-1.2943121,2.8658171-.3199576.381286-.6513839.7549911-1.0017142,1.1082857-.9166708.9244947-1.6566942,1.9627047-2.1709395,3.1650727-.7019726,1.6412892-1.924508,2.6770693-3.6695988,3.094025-1.4435025.3449361-2.6725013,1.1432264-3.9254094,1.8882552-.1453027.0864041-.2903139.1733428-.4972367.296923-.0755671-.7003689-.1315986-1.3539883-.2187316-2.0034283-.3075656-2.2924787-1.4132271-4.1249455-3.2150782-5.5577568-4.4615716-3.5478166-10.2192047-3.7971153-15.0700808-.6428796-2.6486891,1.7222991-4.6815667,3.9658414-5.7958298,6.9604871-.6334519,1.7024232-.7211195,3.447028-.2837048,5.2171944.028526.1154161.2874953.4006759-.1117227.3980032-1.463184-.0097678-2.8351529.487566-4.2496434.7455634-1.4058404.2564423-2.8056549.1581321-4.206004-.0226458-2.8505579-.3680193-5.6900358-.2101787-8.5232448.1811668-1.6018776.2213072-3.1705155.5870425-4.6780192,1.1843874-.709748.281275-1.3566125.6677122-1.8773211,1.2351705-.7288949.7944512-.7477502,1.6625743-.0763447,2.5095095.3481434.4391642.7981445.7576639,1.263988,1.0469087,1.8692055,1.1606724,3.6658083,2.4197037,5.3530695,3.8348746.3465883.2906541.7303528.5506439,1.267487.6787922-.3004705-.4743964-.6532306-.7931391-.9946677-1.1174704-1.4727089-1.3989398-3.0529612-2.6621989-4.7528088-3.7775796-.4432462-.2908485-.864041-.6242186-1.2593714-.9780478-.7922644-.7091648-.7003689-1.5879791.2143094-2.1589363,1.1628107-.7258333,2.4412318-1.1641228,3.7673258-1.4783946,1.9809769-.4695368,4.0003933-.6009896,6.0242321-.7282632,1.7250205-.1084182,3.4316716.0354267,5.1372536.2388991,1.6264187.1940448,3.2211041.0424731,4.796351-.3755517.8985444-.2384617,1.8061762-.4052926,2.7381548-.4416426.3695744-.0144331.5710543.0848004.7148506.4711891,2.3351462,6.2754746,7.6745116,8.182731,12.6970781,7.6610018,4.6889048-.4870315,7.8098035-3.323788,9.9487181-7.3614546.7055201-1.3317798,1.1160125-2.7669237,1.2543174-4.2700052.0344061-.3738508.1702812-.5128361.5539485-.5716375,1.7797399-.2729164,3.5306621-.72768,5.3355749-.8445053,2.0234014-.1309668,4.0511764-.1685317,6.0761815-.1461775,1.0074971.0111285,1.983844.3765722,2.9741867.5821829,1.7929094.3722957,3.6006407.5527822,5.4256723.3155839,1.7160302-.2230567,3.3476973.106037,4.9531225.6667403,1.310932.4579223,2.6204547.9037927,3.994416,1.1643172,1.3406243.2542069,1.5134811.5267346,1.2965961,1.8653178-.1725166,1.0649865-.4374633,2.1150053-.6596939,3.1720219-.0172031.0818361-.021188.1664421-.0415498.3344393.3521283-.4853792.3674361-1.032184.7039164-1.5277684-.0245897.7757417-.3808973,1.4253275-.2416205,2.1380399.4842129-.7427934.7446887-1.5654791.9892735-2.3968634.3376952,1.3113208.0599192,2.4616908-.8681717,3.4443066ZM55.1790403,52.7987453c-.2768041,3.8288486-2.035599,6.8645581-5.1823995,9.0607677-2.4182458,1.6876986-5.1315679,2.1088336-8.0075902,1.7042213-1.7766783-.2499304-3.5014558-.6719887-5.1031877-1.5160567-2.7613352-1.4552142-4.2624728-3.7423959-4.3483424-6.8551305-.1145413-4.1526939,1.3054892-7.7190257,4.4473815-10.4904203,1.7074773-1.5061431,3.8023151-2.2225487,6.040366-2.5295797.6471074-.0887853,1.2974708-.139131,1.9595945-.1594928,3.4670983.1154647,6.3580882,1.4507434,8.5126994,4.1982286,1.5111971,1.927035,1.8521968,4.2259771,1.6814783,6.5874624ZM46.1985536,24.9447936c1.5106625-.8759957,3.1895166-1.3076274,4.8742994-1.7188974-1.6509112.6273288-3.245791,1.3666233-4.7800227,2.2384883-1.5397231.8750238-3.0136468,1.8486979-4.4362044,2.900855-1.4367476,1.0626052-2.8242187,2.1864903-4.151722,3.3836099-1.3144309,1.1853593-2.5915885,2.4085265-3.7958032,3.7068235-1.2154404,1.3103974-2.3816528,2.6617129-3.4562613,4.0911225-1.0605156,1.4106515-2.0141681,2.8848668-2.7205629,4.5116743.7402664-1.1080913,1.5553225-2.1537851,2.4454111-3.1432044,5.9494425-6.613024,13.0161124-11.6594513,21.2101663-15.1207666,1.091277-.4610325,2.2287205-.7942568,3.3979458-1.0046785.1771333-.0318305.3568907-.0952486.6163946.0136555-.3244285.126253-.5854874.2416205-.8551965.3307946-5.0982794,1.6849772-9.7133179,4.2999405-14.0957263,7.3526587-3.6776658,2.5617018-7.0087918,5.5273356-10.0751169,8.7918362-1.5803009,1.6824016-2.8604229,3.5541341-3.5591395,5.7817369-.0244439.0779484-.064147.1510857-.0967551.2264584-.0233262-.010594-.046701-.021188-.0700272-.0317819.0087959-.10074.0117603-.2023547.0272139-.3020256.4142343-2.6757086,1.5377306-5.0407901,3.1156989-7.2189219,4.417592-6.0978554,9.8970117-11.015454,16.4054081-14.7894375ZM23.4615423,52.1522696c.1021007.144185.2643635.262857.2751519.5180358-.5009786-.3735592-.8947053-.7959577-1.2239447-1.2678757-.9646838-1.3827572-2.0685959-2.6510703-3.1519031-3.9388219-2.0911931-2.4858431-3.3602352-5.4085664-4.3361933-8.4650751-1.1146518-3.4910562-1.8846591-7.0580198-2.1427051-10.7227589-.0329482-.4683705-.1148815-.9485985.1154161-1.5368559.2294714.9826644.2466745,1.8664841.3681651,2.7350932.8264275,5.9085244,2.2660424,11.6140624,5.5778271,16.6915427.6805417,1.0433125,1.4063264,2.0553777,2.2130239,3.0148617-.4235648-1.2321089-.8526695-2.4555677-1.2007643-3.7057544-1.9564844-7.0270154-1.6656359-14.0157369.347949-20.9768557,1.416726-4.8979172,3.5547659-9.4620268,6.3419057-13.7263463.1031212-.1577434.2173224-.3084403.3300656-.4596718.0298381-.0400919.0732831-.0700758.1763071-.0727-.1766473.3540722-.3376466.7169888-.5323231,1.0608558-1.7848911,3.1535068-3.4158778,6.3796163-4.6649468,9.7886421-1.8772239,5.1235009-2.9454177,10.3899233-2.8000178,15.8689542.1047735,3.9476178.946606,7.7543066,2.2483533,11.4669616.4750282,1.3547658,1.2330808,2.5615075,2.0586336,3.7277685ZM32.0262396,23.8053091c-3.9863976,6.2618677-6.9903738,12.891706-7.3829342,20.4617357-.2379272-1.0985179-.1319388-2.2044223.0084557-3.2969143.6692187-5.2074752,2.7032141-9.9379783,5.1672861-14.5057327,3.0775995-5.7051006,7.43916-10.2524446,12.6933848-13.9929452,1.6691834-1.1883237,3.3759317-2.2974841,5.2813415-3.0725455.1715447-.0697842.346394-.13155.5196881-.1970091-6.4530452,3.7285946-12.223848,8.220636-16.287222,14.6034111ZM29.656007,61.7167859c-.9123457-.0495196-1.7848425-.2963884-2.6520908-.5469506-2.2588501-.652696-4.5123547-.7926046-6.7778625-.0399947-1.1395331.3785161-2.1961124.9333879-3.2643548,1.4771311.7131011-.7133441,1.5474013-1.2453757,2.4667934-1.6478011,2.2280887-.9752778,4.5068147-1.0605642,6.8319015-.3906165,1.1476001.3306488,2.2861612.6855471,3.3956132,1.1482318ZM37.1632989,64.8153789c-3.67198.4833381-6.8358378,1.9556582-9.3481173,4.8359084.8851318-2.8737869,6.1559279-5.5821521,9.3481173-4.8359084ZM15.4120136,48.1597489c.0437852.0501999.071971.1140068.1073491.1714961-4.2428399-3.470257-6.2969541-8.0389833-6.659482-13.5819183.3462968.9490358.4760001,1.8120564.6439973,2.6616643.7635926,3.8615053,2.5808002,7.1640081,5.2580153,10.0185023.2229109.2376356.4359568.4846016.6501204.7302556ZM64.5435345,62.688419c-5.2211793-1.4846149-6.0998478-.9709527-9.9124167,1.1067306.9552562-2.4664532,6.7936076-3.1663848,9.9124167-1.1067306ZM59.5329713,67.8565312c-3.099322-1.5775309-6.35318-2.2818847-9.8207156-1.7881956,2.5428951-1.2551921,7.9713374-.273694,9.8207156,1.7881956ZM47.0381021,71.0807941c-.6008924-.3854167-1.122087-.8545162-1.6230656-1.3472334-.4033973-.3968368-.8152504-.7853151-1.2110667-1.18949-1.2492634-1.2756997-2.7578362-1.4788806-4.4156968-1.0860286-.1329107.0314904-.2685428.0524353-.4037375.0726514-.030567.004568-.0646816-.0143845-.1813611-.0435422,1.0018599-.6150825,2.0185903-.7631067,3.0894083-.5450068,1.0216386.2080891,1.857591.7774425,2.6123391,1.4678006.8480529.7756931,1.5400146,1.6811867,2.1331803,2.670849ZM37.1840495,67.1489701c-.5803362.9591925-.8425129,2.0279208-1.1299596,3.099079-.4375605-.9589009.0199245-2.2306157,1.1299596-3.099079ZM84.6380284,59.1303972c.1226569.1607563.0892713.2472576.0578295.322193-.4161295.9920435-.8360982,1.9824833-1.342228,2.9389058.0815445-1.2013475.5788783-2.2410639,1.2843984-3.2610988ZM53.1423722,55.4188598c.2252435-1.5165427.6200879-3.0231717.2768527-4.5692608-.3396391-1.529858-1.2022222-2.8075016-2.0407016-4.1743193,2.6273554,1.3938858,3.5295444,5.8966184,1.7638489,8.7435801Z"/>
  </g>
</svg>