<?xml version="1.0" encoding="UTF-8"?>
<svg id="Layer_2" xmlns="http://www.w3.org/2000/svg" viewBox="0 0 85.5515847 66.8144591">
  <g id="Layer_1-2" data-name="Layer_1">
    <path d="M85.1915145,39.6611368c-.1345724-.1915743-.2675502-.3985351-.446608-.5416776-.3910411-.3125539-.520272-.6856573-.482882-1.1839258.0566033-.7556142-.3108398-1.294063-1.0386307-1.5103514-.718543-.2134981-1.3204513-.6130695-1.9062556-1.0506689-.8585365-.6413712-1.8103489-1.0818804-2.8473054-1.3390268-1.5166495-.3760532-3.0548243-.6696728-4.5175811-1.2455915-.7847928-.3090859-1.5997209-.3102817-2.4283613-.1878273-.993348.1468098-1.9867758.2575849-3.0001343.1281148-.9425645-.1203817-1.891188-.2339869-2.8485013-.1318618-1.397384.1490022-2.738085.5160866-4.0426714,1.0252771-1.2596227.4916515-2.5371034.8942126-3.9152742.7793716-1.7333365-.1444181-3.2576395.3672039-4.5395846,1.5213133-1.009771.9090809-2.1223048,1.5120655-3.4952936,1.6682029-1.020135.1159969-1.8104286.6387005-2.1856846,1.6579983-.2593388.7045915-.7724357,1.1971199-1.3670893,1.6184558-.5590971.3960637-.8901865.9378609-1.0509877,1.5969306-.0926381.379561-.194524.7573282-.3055781,1.1319863-.2146939.7244425-.648626,1.2510525-1.4056752,1.4370063-.8738433.2146541-1.4791.7670943-1.8925433,1.5239442-.7177458,1.3139141-1.7153989,2.3473229-2.9573231,3.1706219-.5328682.3533321-1.0089737.7866264-1.4122922,1.2896783-.5024141.626463-.6869727,1.3074565-.3445626,2.0764641.0528563.1186278.0762949.2507287.1324198.3674431.1809711.3765315.0393034.6077281-.3070131.7862278-.4195022.2162087-.8643563.3631381-1.3041081.525454-.8173198.3017514-1.5604174.7261167-2.182974,1.3410996-.8332644.8229801-1.015511,1.6552878-.4741922,2.6978249,1.016946,1.9587931,2.6696029,3.1811054,4.7975681,3.6250826,1.0977054.2290441,2.123421.5040883,3.1199579,1.0375943,1.9523355,1.045168,4.0761551,1.6532947,6.219746,2.1761976,2.7557835.6723037,5.5365999,1.1750367,8.866867,1.1615635.8157253.0076534,2.1014174-.0944717,3.3803331-.296968,2.2418096-.3550063,4.3687383-1.0865442,6.4671263-1.9266647,3.7597347-1.5053289,6.9560672-3.7710553,9.4790596-6.9562266,1.3304167-1.679683,2.4730859-3.4903508,3.6514709-5.2757464,1.4162783-2.1459028,3.0313857-4.1514136,4.4443954-6.2994689.955958-1.4531901,1.7811703-2.9727894,2.3696852-4.6161187.2300805-.6424076.1575326-1.2304441-.2295224-1.7817284ZM37.0500095,51.6937227c.1998655-.4048332.5096689-.7245222.8353371-1.0268317.2389297-.2217494.4799322-.4460898.7451705-.6337178,1.2523679-.8861207,2.295782-1.9601484,3.07619-3.2896482.3976581-.6775256.9775629-1.1316674,1.7551806-1.3406611,1.0059443-.2702608,1.5734123-.9688731,1.8040508-1.9650115.0499863-.2157702.1123296-.4287501.1599243-.6449986.1658238-.7541393.5241784-1.3812401,1.1613243-1.8415206.5716136-.4129251.996537-.9418869,1.2783576-1.5984054.2944169-.6857769.8292782-1.126007,1.5482996-1.3332867.2627669-.0757368.5252148-.1655846.7942001-.2038516,1.0679687-.1518722,1.9887689-.6055756,2.7836865-1.3229228.9207204-.8307929,1.9961831-1.3615884,3.1865266-1.680241.2929819-.0784075.5816587-.1124891.887476-.0849847,1.814654.1635118,3.5160216-.3005555,5.1834272-.9519718,1.6582375-.6478288,3.3690125-1.0111661,5.1591915-.8964847.4419841.0283016.883729.0835497,1.3212486.1537856,1.0124816.1624355,2.0037568-.0255113,2.9955104-.1708463.781843-.1145619,1.5440742-.0596328,2.2697126.235103,1.3724307.5574229,2.8073642.8763147,4.2466028,1.1893868,1.5200776.3306908,2.77404,1.1567004,4.00281,2.1847279-.6089239-.1081841-1.0827972-.3368295-1.4994294-.6771668-.6650489-.5432322-1.4217792-.8571812-2.2693937-.9745334-.6133087-.0849049-1.163716-.3748573-1.7456139-.5629238-.5577418-.1802137-1.1182739-.3515384-1.6765738-.5299982-.8337427-.2664341-1.6725876-.3653703-2.542684-.1710057-.8182764.1828446-1.636234.0676051-2.4459003-.0971026-2.4685417-.5020155-4.8670068-.4216946-7.1656589.7579262-1.4423477.7401878-2.9810008,1.0620692-4.6168362.944717-1.1625999-.0833902-2.3255187-.0471163-3.3950819.5311143-.5064799.2738484-.9814693.595371-1.4425072.9373028-.8570218.6356311-1.7949624,1.1053987-2.8128651,1.4239317-.3351553.1049154-.6624978.2373352-.9879269.3703929-.8466578.3461571-1.5308402.8826527-1.9776874,1.6985773-.3095642.5652358-.6969381,1.0640623-1.2054908,1.4743166-.375256.3027878-.54387.7592017-.7295448,1.1893469-.1806522.4185057-.3269438.8516804-.5036099,1.2719798-.2949749.701562-.7358429,1.2800318-1.3922817,1.6949898-.4423827.2796681-.8065572.6448391-1.0890156,1.1025286-.6516555,1.0558508-1.332649,2.0929668-2.3106902,2.8910335-.3963028.3233962-.8109419.6291337-1.2829018.8174393-.7531428.3003961-1.3259522.8144497-1.8519643,1.4039213-.0909639.1018859-.1581703.2402053-.3255886.2796681-.0994943-.2069608-.0090884-.3836269.0750193-.5540746ZM80.1875436,49.1333402c-2.031899,2.8281719-3.923087,5.7583892-6.1088513,8.4748693-1.7906573,2.2254664-3.9016415,4.0673856-6.5436603,5.2219334-1.6085701.7029173-3.3241284,1.0511472-5.0363384,1.4037618-2.1454245.4418246-4.3020102.8122175-6.4647346,1.1606865-4.4356259.7147163-8.7279099.1974738-12.9302665-1.3229228-1.0890953-.3939909-2.1802634-.7702832-3.2436082-1.4271207.6490246-.067047,1.2244649-.1138444,1.796238-.1883056.8801414-.1147213,1.74386-.3232766,2.6006426-.5454645,1.3154288-.3412143,2.6310968-.3425695,3.9563315-.1068288,1.354493.2410025,2.6358801.1117716,3.8488649-.6095617.9811504-.5834923,2.0892198-.8722489,3.1751262-1.196243,1.2637683-.3770099,2.5068884-.8103041,3.6863895-1.3999351,1.8533993-.9266199,3.8155407-1.5367397,5.8078972-2.0665785,1.4670619-.3901642,2.8754476-.9310047,4.2123219-1.650903,1.6651734-.8967238,3.3779414-1.6945912,5.1029868-2.4666283,2.1581802-.9659234,4.2627068-2.026438,6.2076281-3.4099103-.0220833.0432497-.0389845.0901667-.0669673.1291512ZM83.0821247,43.8492628c-1.397384,1.8170855-2.6481575,3.761927-4.4614561,5.2206977-1.3163855,1.0590398-2.7655894,1.9159818-4.2706791,2.6729513-2.060679,1.0363984-4.134592,2.0466478-6.2063525,3.0609629-1.4936893.7312987-3.0757117,1.2155359-4.6798173,1.6312114-1.6572011.4294676-3.2670468.9899997-4.8107224,1.7303868-1.6174991.7757044-3.3307454,1.2762848-5.0392881,1.7928099-.6129101.1852762-1.2188046.4018834-1.7716036.7202172-1.0835944.6238321-2.2387801.7734721-3.4405239.5536759-1.8196765-.3328433-3.578046-.0659309-5.331393.4193428-1.1208251.310202-2.2616606.5069583-3.4375742.4481227-1.3968259-.069917-2.6636237-.550487-3.895184-1.1893071,1.2130645-.0581978,2.4197512-.1028426,3.6299457-.0419343,4.4907145.2260943,8.9431619-.0154663,13.3242573-1.1199481,1.8715761-.4718802,3.5880911-1.3254739,5.3401626-2.0967138,1.1779067-.5185181,2.2775254-1.2225516,3.555325-1.5069233,4.6381222-1.0321731,8.8852033-3.0452575,13.04722-5.2527065,2.3081391-1.2242656,4.2218887-2.9603924,5.967662-4.8869376.6046986-.6672812,1.2201599-1.3251151,1.8087545-2.0061884.2013802-.2329903.4325768-.3351952.7087371-.3803184.0636189.1050749.0055009.174673-.0374698.2305987ZM54.1831905,47.4336867c.0484716.8596128-.2172451,1.6132339-.7238047,2.2996884-.7058671.9563167-1.5164901,1.8259348-2.2562394,2.7540694-.496116.6223971-.9812302,1.2516504-1.3561672,1.9586336-.8068761,1.5215924-.7062657,2.3908118.4552978,3.6647846-2.1016566.2754428-4.0990356-.6389795-4.6523129-3.1392509-.5208301-2.3535811.2640424-4.3378856,1.7518323-6.1123591.7229278-.8623234,1.6381473-1.4896235,2.6276687-2.0057499,1.2829018-.6691945,2.5660428-1.3352001,3.7706567-2.1429132.3211241-.2152918.6758115-.3806373,1.0026756-.5620867.1218167.1029223.0570816.1664615.0095668.2241411-.4899773.5946934-.6482274,1.29494-.6488651,2.0437379-.0002392.3391415.0006378.6788808.0196916,1.0173048ZM50.0827996,55.525527c.2080769-.9385784.6868133-1.7441789,1.2814668-2.4795434.6724631-.8315902,1.3780113-1.636234,2.0612371-2.4592938.8681033-1.0458058,1.3193352-2.2325218,1.2190437-3.6110514-.0244749-.3361917-.012676-.681711.0352375-1.0153516.1532275-1.0666533.7137596-1.8762001,1.7350107-2.2263034,1.3749021-.471362,2.6630657-1.1206257,3.9655793-1.7454943,1.5733326-.7547771,3.1822216-.7582849,4.840778-.3089265,1.9524949.528922,3.8900817,1.0784922,5.6693387,2.0810881,1.0910884.6147836,2.3250403.7352848,3.532604.9377811.5154886.0864197,1.0226861.21581,1.4798175.4798525.6585116.380438.7651012.8740028.3402576,1.4977552-.4021226.5905079-.989043.9579112-1.5911108,1.301278-1.0251575.5846882-2.1279652.9955404-3.2577989,1.3069383-2.3480005.6471112-4.4209569,1.7836417-6.3781555,3.2242356-2.003996,1.4750342-4.1027826,2.8313608-6.3555939,3.9073816-1.7538253.8377288-3.6040357,1.3734671-5.5719172,1.408306-.6521338-.0075737-1.3034704-.037709-1.9223597-.2790304-.9290116-.3623408-1.2985275-1.0493136-1.083435-2.0196217ZM83.0451333,43.308502c.2817409-.4813274.4599217-.8985973.629333-1.322564.1682154-.4210169.1366451-.8111811-.1578515-1.1333416-.4702857-.514532-.6199257-1.1286379-.6667231-1.791056-.0064576-.0907247-.0235183-.181011-.0404195-.2705797-.2579835-1.3643787-.7490769-1.7709658-2.1498093-1.814654-.8833304-.0275443-1.7344527-.1833628-2.4838485-.7027977-.3990931-.2765988-.8692991-.3534517-1.3376715-.3915194-1.6675651-.1354892-3.3021249-.4809287-4.9453745-.7672936-1.9784846-.3448417-3.9136797-.2329505-5.835561.3701936-1.4904207.4677346-2.9761377.9778419-4.5344026,1.1811355-1.008336.131503-2.0256009.1925309-3.0368866.3036249-1.6160641.1775829-3.0912577.7248411-4.3790226,1.7335757-1.0933206.8564239-2.2231544,1.6443259-3.5810755,2.0350481-.1232517.0354767-.2359002.1085428-.352216.1667007-.0319689.0159446-.0594733.0410175-.1659832.1163955,1.4618001-.3151449,2.702688-.9006701,3.9008443-1.5968508,1.251491-.7272328,2.4960461-1.4794986,3.9733125-1.6682826,1.0348837-.1322604,2.0720794-.2462642,3.1068834-.3784449,1.4910585-.1904183,2.9497494-.5388873,4.3877921-.964887,2.2985723-.6808739,4.6146837-.5701786,6.9412387-.21294,2.1451853.3293754,4.2343254.879703,6.2808137,1.5976481.323436.1134856.6606641.1476469,1.000842.1567353.3000772.008052.6011111.0005581.9001519.022163.9081242.0656917,1.3461221.4965146,1.3159869,1.4060738-.0310122.9369839.2532001,1.7192256.9341936,2.3515083.1781808.1655049.1199033.3241535.0652134.4946012-.2338274.7294252-.6222377,1.376656-1.085747,1.9792021-1.5154537,1.9699543-3.4342258,3.4903508-5.4693935,4.8774107-1.3087321.8919006-2.6889756,1.6525373-4.1947828,2.1600537-2.0088591.6769276-3.8374646,1.7566954-5.7866111,2.5669995-1.262413.5248162-2.5300878,1.0329704-3.8369065,1.4543859-.0393831-.0805202.0299758-.0975809.0579586-.1143227,1.4669024-.878547,2.8480229-1.8877599,4.2833551-2.8145393,1.709021-1.1033657,3.628989-1.6914023,5.5383538-2.3137994,1.2903958-.4206582,2.5536858-.9131468,3.7044867-1.6499463.5673883-.3632975,1.0481177-.8182764,1.3911656-1.406313.4683724-.8027305.372067-1.4806945-.3060564-2.1091506-.6685567-.6195271-1.4806148-.9683948-2.3711202-.9898402-1.6402201-.0395027-3.0948452-.6414908-4.544368-1.310486-1.6001195-.7384738-3.2444055-1.3489922-4.9672983-1.7532274-1.9674031-.4616358-3.8299706-.154543-5.6503646.6277784-.9225541.3964224-1.8628066.7465258-2.8257802,1.0324522-1.1282393.3350756-2.1264504.9250255-3.0767481,1.5955753-1.1638755.821266-2.3674529,1.5702234-3.6424622,2.2079672-2.671038,1.3360372-4.3865963,3.4288047-4.9950419,6.3815038-.0331648.1613593-.067924.2551932-.263006.2487356-1.9561622-.0652134-3.5888884.7594409-5.113271,1.8750042-.9158573.6702309-1.8328308,1.3390268-2.7430278,2.0169111-.2823787.2103889-.6098009.3380253-.9037394.546182.176108.0418546.3311692-.0219238.4861506-.0845861.4981888-.2016991.9534866-.48057,1.4012904-.7740302,1.3633423-.8936146,2.7155234-1.8072397,4.27331-2.3479208.7688482-.2668327,1.5620119-.4043548,2.369446-.4828022.2782331-.0269464.418705.0205685.4373601.350223.0438476.7725155.2206731,1.5207154.5409203,2.2302497.8825331,1.9551258,2.5577516,2.7082686,4.540621,2.5514535.454102-.0358753.9015869-.1661426,1.3603128-.1433419.7810458.0387454,1.561135.0969431,2.4110614.1513939-.1993871.1700491-.3877725.1918932-.5587782.24459-3.9890976,1.2286105-8.0811176,1.5490968-12.2270302,1.3665312-1.6549689-.0728668-3.3124889-.1348115-4.9613191-.2849298-1.3332867-.1214978-2.4670269-.6601858-3.082807-1.9614239-.3374673-.7132016-.2438725-1.2891202.317696-1.8531601.4206183-.4225317.9387378-.6978948,1.4712872-.9501382.7084979-.3355539,1.4589301-.5609307,2.1883155-.8415555.7436557-.2861257.9186476-.6304491.5394853-1.3139938-.2543162-.4583273-.1417474-.7631081.1555395-1.1109394.4947607-.5790278,1.117397-.9883255,1.7837214-1.3165449,1.4252073-.7019606,2.5514535-1.6913225,3.2960659-3.1147759.3742196-.7152345.928613-1.2974911,1.6291386-1.7099777.8791848-.517681,1.4712075-1.2666383,1.8869627-2.1816187.1993074-.4386756.4265975-.8650738.6516555-1.2915119.6224769-1.1798998,1.5287674-2.064984,2.735773-2.6460847,1.2097162-.5824559,2.4249332-1.1559829,3.4854877-2.0023218.4297067-.3428884.8413961-.7056279,1.2234285-1.0969082.839403-.8598121,1.8723734-1.1360521,3.0317843-1.0736291.6645706.0357557,1.3316126.0461596,1.9933131.111373,1.1576571.1141633,2.2458754-.1543436,3.2585962-.655522,2.2029048-1.0902513,4.5246764-1.2330351,6.9117412-1.016109,1.0039512.0912828,2.0116494.1089414,2.991604-.1792172.8281621-.2435138,1.6266672-.0824335,2.4280424.1125688.6586711.1603229,1.3122399.3409751,1.9490669.5743242.6985326.2559904,1.4066319.474511,2.1362564.6235132.4821644.0984579.9289319.2942574,1.2816263.6354318.6113156.5912653,1.3257131.8734049,2.1732478.9310047.7924462.053813,1.1475322.4726774,1.1810956,1.2823836.022163.5344627.1664615,1.0188993.4291487,1.4849198.7297042,1.2946211.280864,2.9189764-1.0899723,3.7543534ZM34.7724043,40.6297707c.4402302-.3521762.8150078-.7672139,1.1546276-1.218685,1.0444505-1.3884152,2.1718128-2.7089462,3.3572135-3.9777371.5325494-.5699394.9664017-1.191061,1.2875258-1.9000372.2419592-.5341438.5163656-1.0487954.8849248-1.5154537.5816587-.7365604,1.3636612-1.2042153,2.1435909-1.679683.8665088-.5281646,1.4976755-1.2131442,1.5544382-2.2900818.0415357-.7872642.4191036-1.4099404.9530082-1.9599889.2817409-.2902314.5557487-.5885547.8217045-.8932559.7186227-.8232193,1.0491541-1.7259622.5952913-2.8068859-.2659558-.6333989-.1492414-1.2396123.2734497-1.7656642.5019357-.6245895.7540197-1.3532972,1.0163083-2.0954781.5771942-1.6332045.2665936-3.0825679-.8976805-4.3079894-.7068237-.7438551-1.1601285-1.4944467-.8900271-2.2634145.1013279-.9172126.1222153-1.5591419-.0062184-2.1898302-.2698622-1.3247564-1.0019581-2.3181842-2.2425271-2.8754875-.863001-.3877326-1.4542265-.9889633-1.7617976-1.8783127-.033962-.098139-.0859413-.1899001-.1261217-.2860858-.3895264-.9309648-1.1044819-1.498393-2.0723186-1.6711128-1.2844963-.2292832-2.3342085-.815247-3.3549015-1.6313709-1.4682577-1.1740003-3.2320484-1.58557-5.1147061-1.3670494-.5194748.0603104-1.0107277.2552729-1.504133.4197414-1.123137.3744189-2.2439621.4456115-3.3774631.0586362-.9978125-.3406163-1.969157-.2930616-2.9218464.1796158-1.0024365.4973118-2.0538228.8287201-3.1844538.8550287-1.4161986.0329256-2.5638106.6192082-3.4803854,1.6841475-.0253519.0295374-.05756.0531354-.0849049.0810782-.6644111.6782032-1.4714466,1.0609531-2.4111411,1.1810558-.6625775.0847056-1.2455915.362859-1.7779017.7601584-.6989312.5215874-1.1568598,1.2340715-1.5615336,1.9829491-.4275542.7911308-.8282418,1.5966914-1.2420837,2.3952364-.5350208,1.0323724-1.2617752,1.8801862-2.3145966,2.4193127-1.4311865.7328533-2.1659133,1.9514187-2.3942399,3.5023491-.1670196,1.1346171-.568345,2.1609306-1.2824235,3.0649491-.8122175,1.028187-1.3367945,2.1994368-1.6956276,3.4532398-.2868432,1.0020777-.533506,2.0275541-1.0545753,2.9371931-.9043772,1.5787537-1.1842048,3.2729463-1.0395076,5.0546747.1896609,2.3366002-.0470365,4.633578-.5299982,6.9201121-.3453599,1.6348787-.6072498,3.284267-.439114,4.9702481.1289917,1.2947407.4789755,2.4814568,1.4976755,3.3810108,1.1920974,1.0527815,2.5647673,1.727158,4.1299681,2.0148782,1.738678.3196093,3.4870024.1935275,5.2325366.1112932,1.6894092-.0796432,3.3546623-.1096191,4.9458528.6447196.9179301.4352076,1.8811429.3434066,2.8040956-.0880141.63021-.2945365,1.2821046-.517123,1.983268-.557104.7165499-.0408979,1.4334985-.104756,2.1502876-.1052742,2.4301949-.0017938,4.7382542-.4845163,7.0070102-1.3946336,1.6634992-.6673609,2.8664389-1.6317695,3.4709781-3.3342532.288916-.8134931.8205087-1.4763894,1.4984727-2.0187447ZM6.8347695,46.4603491c-.6304491.3039438-1.330895.3728643-1.9872542.1708064-2.1195145-.652373-3.7687434-1.8208723-4.2810431-4.1518122-.0664889-.3024689-.0479932-.4711228.3062956-.5518423.3387428-.0771718.6688756-.2221082.9808315-.380438.5033708-.2553526.9341936-.114243,1.3437304.1891029.3864969.286325.6176935.6996885.8590946,1.1024888.1874287.3127532.3656095.6318044.567468.9349908.4668576.7013229,1.1430678,1.0463638,1.971469,1.0981837.7057076.0440868,1.4101397.0777299,2.0159544.6131493-.6150626.3408954-1.1811753.6883679-1.7765464.9753705ZM3.2941932,37.5813243c1.05322-.9804329,1.695229-2.2159395,2.0928871-3.5693562,1.0745857-3.6575298,1.5619322-7.4186198,1.8761204-11.2048225.1690127-2.0364432.0613867-4.0995538.6101198-6.098886.0376292-.1370438.0998131-.3098433-.0609083-.4339321.3068537-.6255462.7462866-1.1597697,1.1853209-1.6913624.4735544-.5734074.9687137-1.1289967,1.4541467-1.692638.7173472-.833065,1.3879767-1.6994144,1.8169659-2.7227782.7137596-1.7029621,1.972346-2.8823038,3.5513389-3.7728491,1.0658162-.6010314,2.1852063-1.1193103,3.1135004-1.9420911.2050474-.1817683.4145594-.3587533.6145843-.5458631.8141308-.7612745,1.796796-1.0808839,2.8906747-1.1076708,1.0383118-.0254715,2.0363635-.2947358,3.0457359-.4952789,1.0413413-.2069209,2.0700863-.2353023,3.0760306.1780612.7751463.3184932,1.5557138.2273699,2.3423402.0326067.9471087-.2345449,1.872772-.5654749,2.8625325-.6108373.7564911-.0346396,1.4500809.1197439,2.0633099.5783901.1149605.0859812.2377339.163751.3416926.261571.8835695.8311916,1.9324845,1.3590373,3.0815315,1.716515.8796631.2736889,1.6308925.7468447,2.1988389,1.4905801.4651835.6091631,1.0464435,1.0904905,1.7022446,1.4823687,1.2138617.7253195,1.817524,1.8312363,1.9763321,3.2015145.0715912.6178529-.0910436,1.2179276-.2206731,1.8170456-.0577991.2674705-.1242881.5334263-.1725205.8026507-.1738758.971783-.0093276,1.8341064.7654201,2.5308053.3865766.3476718.7552953.7190612,1.0753032,1.135813.3454396.4499564.4221331.9376616.2834151,1.4768279-.125165.4860709-.3555644.9246667-.6087645,1.3501481-.333242.5598943-.5803831,1.1592515-.5775131,1.8058844.0068562,1.5571089-.56978,2.9559678-1.1010538,4.370572-.1236503.3290964-.2740078.6479882-.4047535.9744537-.3914397.9768454-.9762873,1.8059642-1.8176834,2.4517998-.7535414.5783502-1.344448,1.3091705-1.875084,2.0889807-.6953436,1.0218889-1.5000672,1.937507-2.50067,2.674466-.4762649.3507013-.8826129.7710804-1.1888287,1.2846956-.0911233.1528289-.1772241.3202073-.3871347.4420638.2716958-.999407.315384-2.0145593.6577941-2.9516229.3827499-1.0470813,1.0179027-1.9624603,1.7331771-2.815496.1989885-.2373352.4824036-.3733027.7811255-.4160741,1.3057026-.1871098,1.8463837-1.0208126,1.9783252-2.2455167.1164752-1.0816412.1721219-2.1586984-.03452-3.234759-.0194524-.1011286-.0537333-.1997459-.0870575-.2974862-.0061387-.0180174-.0408182-.0262687-.0734248-.0456015-.1230125.6495428-.0954284,1.3017962-.1027629,1.9510599-.0073345.6532101-.0332445,1.3028724-.1527492,1.9477116-.1219761.6580333-.4441366,1.1659483-1.1169984,1.3186974-1.1155633.2533596-1.7566156,1.0082164-2.3951168,1.8974861-.9008694,1.2547596-1.2876852,2.6269113-1.3894914,4.1215972-.0123571.1811306-.0454421.3858193.0201699.5423553.160004.3821121-.0302947.6416901-.236538.911911-.412088.5398839-.8603702,1.0487156-1.3097685,1.5575076-.6223971.7046314-1.3234011,1.2774807-2.2279378,1.5998404-.8916216.3178156-1.5571488.9376217-2.047445,1.7420263-.3459976.567747-.6752534,1.1457385-1.0208525,1.7136848-.1965171.322878-.4061885.6380228-.6180124.9511746-.833663,1.232198-1.9716285,1.7663418-3.4631653,1.5403671-2.0212161-.3062159-3.9861479-.7912902-5.8204934-1.7245272-.6277386-.3194499-1.2664789-.6141059-1.9477116-.8050424-.2232243-.0625825-.4454122-.0874561-.6719848.0194524,1.7956002.5554697,3.2270259,1.9206058,5.1169383,2.2422879.2163681.036832.4297067.0916017.7215725.1547423-.9336356.2807843-1.8088342.3842647-2.7005355.3371484-.4948404-.026189-.9892025-.0690401-1.4822889-.1192655-.7757044-.0790055-1.5359425.0277436-2.2945862.1671392-.4006876.0736242-.8039263.0903261-1.2086798.0536137-.6230349-.0565634-1.0822391-.3452004-1.3226836-.943282-.097262-.2416403-.1980318-.4826428-.312514-.7164304-.2897929-.5921423-.7554547-.8385659-1.4076683-.7399486-.9148209.1382396-1.69204.593936-2.4348188,1.1067938-.2716958.187628-.4745908.2801066-.7820025.0499863-.3369889-.252363-.7725952-.2989611-1.1761528-.4022023-.5181195-.1324996-.7559331-.3308503-.7549764-.8531154.002312-1.2029796-.6196865-1.883415-1.7091805-2.2188892-.6110765-.188186-1.0010015-.5572236-1.2424026-1.1732429-.2916266-.7442537-.5373327-.8208276-1.3458032-.7466852-.9266997.0849049-.9754901.321443-.9697501-.8919404.002312-.473953.1116121-.9367447.2636438-1.3786092.4642268-1.3493111.5849273-2.7512791.6703903-4.1577117.2524029-4.1523304,1.336954-8.097102,3.0699716-11.8550828.5993572-1.2996835,1.258108-2.572022,1.7831634-3.9066641.1040385-.264441.2071202-.5360572.4177483-.7436557-.5056827,1.2851341-.7522658,2.628147-.8684222,3.9964321-.3014325,3.5499836-.7592017,7.0772062-1.4142055,10.5809903-.430504,2.3030368-1.0551333,4.5177405-2.4387253,6.4548091-.1006901.1409502-.2170856.2887167-.2250579.5575425.1956401-.1566556.3505418-.2652383.4876653-.3929545ZM8.3748575,46.894321c.4980293-.4551384,1.0270709-.6224769,1.6668476-.1511149-.5925807.0537333-1.1296743.1024041-1.6668476.1511149ZM32.4368405,43.0437022c-.4175091.963133-1.1298338,1.5769201-2.107875,1.9685193-1.4159594.5669099-2.805132,1.1917785-4.3244921,1.4528712-1.0724332.1843195-2.153636.2108672-3.2353171.2557512-.7037943.0292185-1.4071899.0688806-2.1109045.1012482-.7308203.0336032-1.4075885.2722539-2.0580481.5772739-.9438401.4425421-1.8899921.4946012-2.830723.0429707-1.5397692-.7391115-3.1677917-.8026906-4.8235578-.6803557-.2385311.0176586-.4204589-.0060589-.5775131-.215252-.1750716-.2331897-.4441366-.3550861-.7031565-.4827624-.4263584-.2101896-.4950796-.8571414-.1219761-1.1399984.6937492-.5258526,1.431346-.9621764,2.3232067-1.0422182.6888861-.0617853,1.068766.2085553,1.2459901.8600513.3530133,1.2980891,1.1655496,1.832193,2.5157376,1.6447245.4000498-.0555669.8016143-.1120506,1.195366-.2000648.9971748-.2227459,1.9769699.0336032,2.9588378.1103366,1.1693763.0913625,2.292035-.0674456,3.3864718-.4412666.4155958-.1419069.7957946-.1568151,1.2163332-.0520591.69351.1727596,1.3882956.3892872,2.1188768.2877202,1.0755424-.1495204,1.8678292-.7513091,2.5025834-1.5965319.408899-.5444679.7222103-1.1467749,1.0559306-1.7369241.1925309-.3403772.3918383-.6769276.5854057-1.0167467.468771-.8226612,1.1201873-1.4289144,2.025282-1.7508756,1.1256084-.4004086,1.9453996-1.1964024,2.6575648-2.1153291.5592565-.7216522,1.0980243-1.4593686,1.6393432-2.1948527.4273948-.5807419.888911-1.1246916,1.4898626-1.5377761.8745608-.6011908,1.5427987-1.402566,2.1347416-2.2675202.6455168-.9431624,1.3601534-1.8096713,2.3023193-2.481098.8303146-.5917038,1.2220732-1.5124242,1.6483519-2.3900943.6170557-1.270465,1.0369565-2.6143948,1.3894914-3.9792917.0886519-.3432871.1116121-.6966192.0858616-1.0496325-.0479932-.6608236.1286729-1.2608186.4454919-1.8345847.2265726-.4102942.4458108-.8272054.6314855-1.2570716.398854-.9233513.2570268-1.7558184-.474511-2.4701361-.2988016-.291786-.5876379-.5938563-.8875557-.8843668-.6793193-.6579536-.8854829-1.4440618-.6830663-2.3613541.1177508-.5335459.2425172-1.065298.2976855-1.6135528.0832308-.8281621-.079723-1.6054211-.3669648-2.3728741-.2357408-.6297715-.599118-1.1628391-1.1558234-1.5396496-.9999651-.6768878-1.8986022-1.465587-2.7076308-2.359959-.5076758-.5612098-1.1728044-.8582974-1.8745259-1.0827573-.9275766-.2966491-1.8182415-.6691148-2.5280947-1.3563267-1.2714217-1.2307232-2.7498042-1.4238122-4.3879516-.9526893-.6130695.1763073-1.2395325.3057774-1.8581827.4635093-.5444281.1388375-1.0978648.1727596-1.6154263-.04604-1.3494705-.5704975-2.7067538-.4085004-4.073604-.1122101-.9308452.2017788-1.8623283.3853808-2.8222724.3969406-.9613791.0116396-1.77264.4413463-2.4660702,1.0594384-1.1488875,1.0240414-2.4262885,1.8347441-3.7897902,2.5395748-1.561135.8069956-2.7624802,1.9998504-3.5149055,3.6060288-.6889658,1.4708088-1.6355962,2.754189-2.7708511,3.9063452-1.1799795,1.1975983-2.0668974,2.5776824-2.6287848,4.1683148-.5400433,1.5288472-1.4517551,2.8848549-2.0543809,4.3879516-1.3480355,3.3623556-2.2670817,6.8214151-2.4985972,10.4504041-.1031615,1.616662-.3082887,3.2169011-.884287,4.7509302-.2396472.6385012-.3373078,1.3122399-.2765589,2.0007273.0578789.6550437.3572386.8745608.9966167.7226089.1266798-.0301353.2518448-.0672463.3768504-.1040385.6162585-.1814495.6473504-.1939261.8873165.4226114.247779.6364682.666165,1.0614315,1.3186974,1.2190437.9413687.22733,1.3979421.8321881,1.4962405,1.7650663.0253519.2416004.0978201.478258.1563367.7530631-.386178-.1192655-.6568374-.3590722-.9240688-.5957697-.4654226-.4121677-.7847131-.9360272-1.0965096-1.4665437-.8020927-1.3649766-1.4028052-1.5897954-2.9119607-1.103565-.2465034.0794041-.4902165.1672588-.7808864.2668327-.0526969-.6631356-.0053414-1.2969331.056683-1.9288172.1508358-1.5352649.5531179-3.0248484.8436283-4.5345621.2010613-1.0449288.2614116-2.0941626.2414011-3.1538402-.021286-1.1219013-.0867386-2.2426068-.0491093-3.3663019.0245547-.731777.1693316-1.4352524.5095891-2.071601.7246817-1.3552903,1.213224-2.7925357,1.6095268-4.2689252.27337-1.0186999.7241236-1.9592714,1.3695607-2.7922169.8817359-1.1379256,1.4616407-2.3839556,1.6429307-3.8299706.1380802-1.1013727.6665636-2.0373999,1.6874161-2.5406112,1.5856896-.7816836,2.4875954-2.1249357,3.2458405-3.6304639.4969929-.9867709.918249-2.0217343,1.6754577-2.8589051.5766362-.6375046,1.2482223-1.0985824,2.1215873-1.2239467,1.0703604-.1536261,1.9806372-.6230748,2.7242929-1.4126111.1160766-.1232118.2557512-.2243803.3710306-.3482299.7041929-.7563716,1.5896758-1.1224992,2.6029546-1.1922967,1.3261914-.0912828,2.6024762-.3443235,3.7957694-.9704277.7772988-.4078228,1.5880016-.3306908,2.3883404-.0200902.4734746.1837216.9469493.3692767,1.4280773.5311542.72803.2448691,1.4398763.1684945,2.1281246-.1610404.1880665-.0900869.3916789-.1610404.557104-.2829368.9357881-.6898427,1.9568797-.6773262,3.0236526-.4144797,1.2352275.3043823,2.3770197.7770597,3.2907245,1.7016467.5374922.5439497,1.2429606.7430578,1.9549664.9221953.1516331.0381474.3045417.07195.4580084.1017664,1.0928423.2122624,1.8862452.7712,2.2426068,1.8748049.2946561.9128279.9209596,1.5211937,1.8049278,1.8841724,1.5641644.6423279,2.350472,2.1869602,2.1384089,3.7917036-.0444057.3359525-.0498268.6770472-.0935948,1.0131193-.1010887.7763422.1137647,1.4429855.6559605,2.0076632.1626348.1693316.3066942.3567602.4721194.5230623,1.1158025,1.1214628,1.1957646,2.4269263.686893,3.8370261-.1598445.4429806-.3894466.8530755-.6191285,1.2624928-.2041705.3640549-.3898453.7362415-.5474575,1.1238147-.224739.5526395-.2983233,1.1101422-.071352,1.6750591.3687187.9176511.0947906,1.6798424-.543312,2.3621115-.0891303.0953487-.1698099.1999452-.2669125.2862453-.9262213.8232193-1.484282,1.8303195-1.593343,3.0806944-.0450435.517402-.3158624.9229925-.726595,1.2479832-.4623932.3659284-.9681556.6630558-1.4640324.9762076-.8881137.560851-1.5750865,1.3103265-1.9390218,2.290879-.4580084,1.2341512-1.2157751,2.2332393-2.1662322,3.1155732-.9198435.8539525-1.7596451,1.7823263-2.5189266,2.7834872-.4030793.531513-.8498467,1.0252372-1.3620667,1.4551034-.702997.5899499-1.2308427,1.3068586-1.5915094,2.1501282-.1023643.239408-.2288846.4685318-.3324447.7074615ZM57.2651206,40.6472301c.1883853-.1092205.3707118-.2309574.5661127-.325748,2.2020278-1.067889,4.5324893-1.7779017,6.8761848-2.4466976,1.6387054-.4675751,3.3116916-.7418221,5.0189588-.6797179,2.0024015.0727871,3.9423002.4214156,5.658018,1.5528039.4314606.2844914.8110216.6300904,1.0623881,1.1017713-.5938563-.3760931-1.1824509-.7505518-1.8304391-1.0226462-2.0378782-.8555469-4.1774032-1.0527815-6.3602178-1.0387104-2.4647947.0159047-4.78553.6842621-7.087929,1.4671416-1.184444.4028002-2.3625898.8205087-3.5114774,1.3173421-.1166347.0503849-.237415.0911632-.3915992.0744612ZM74.3837123,42.0071044c-1.6525772-1.5784747-3.6756269-1.7496399-5.7470685-1.7774632,1.9308103-.8289992,5.4834247.2356611,5.7470685,1.7774632ZM61.1356702,52.0002575c3.6592837-.815247,6.3761624-3.1565508,9.0735089-5.5871443.022721.1954408-.0839483.2709385-.153945.3522957-1.6659706,1.9364308-3.5632973,3.5897653-5.8806045,4.7082784-.9468696.456972-1.9535313.6781235-3.0389594.5265701ZM60.3569363,50.3482384c1.9721865-.6343556,3.5672834-1.7469692,4.653429-3.5428085.3705523-.6125912.7719574-1.2064475,1.1591718-1.8089139-.8387652,3.5885695-5.0549138,6.5278752-8.6612615,6.0052115,1.0122424-.2013802,1.9443632-.3626597,2.8486607-.6534891ZM57.0255531,49.9254277c1.4624379-.8565833,2.7385633-1.8950546,3.4502501-3.4901515-.0381873,1.3448466-1.888318,3.2196515-3.4502501,3.4901515ZM70.502161,56.8907826c.1084232-.0602706.2232243-.1092205.3350756-.1634321-.0430504.2884377-.246902.3880116-.4227708.5119011-1.6617453,1.1706519-3.477356,2.0562942-5.3510049,2.8191632-2.979805,1.2133834-5.9533118,2.443987-8.9681949,3.5690374-1.8730112.6990109-3.8058145.9841002-5.8017585.7285881-.2083958-.0267072-.4402302-.0012756-.6612222-.2285657.6503002-.0564439,1.2412864-.1089813,1.8325916-.1588081,1.3667704-.11512,2.7006949-.3250305,3.9950768-.8447445,3.3965169-1.3637409,6.8810479-2.5001119,10.2526912-3.9312985,1.632487-.6929519,3.2385857-1.4394777,4.7895161-2.3018409ZM30.837598,22.7974991c-2.4081116-.646314-4.7787535-.1550612-6.9190757,1.0356411-3.5929542,1.9987741-6.9528783,4.3718475-10.2991697,6.756401-.8457809.6026657-1.4716858,1.3941552-1.8991603,2.3451305-.386178.8592939-.7114477,1.741548-.882852,2.6659756-.1516331.81724-.5579013,1.4792993-1.0835944,2.0893394-.3933531.4564937-.8405989.8555071-1.3213283,1.218685-.9202421.6951443-1.9245122,1.2317596-2.998221,1.6367522,2.073913-.3546476,3.7317519-1.4402749,5.1757738-3.0112158.0660106.4912529.1050749.9328383.1871895,1.366292.2790304,1.4718452,1.0545753,2.5585489,2.5796755,2.851451,1.7035202.3272229,3.3623157.0593936,4.8624626-.8382072.3888886-.2327113.731219-.3323251,1.1559032-.2760009.5429931.0719898,1.0880589.1285134,1.6320087.1933282,1.3748224.1637111,2.7473328.3113181,4.1316423.0680037,2.1269288-.3739007,3.971718-1.3647773,5.7591864-2.5223546,2.5978523-1.6823936,4.3290363-3.9937215,5.2160339-6.9478956.3415331-1.1374872.5676275-2.2987716.2094322-3.4649989-.8478537-2.7603675-2.8023417-4.4407282-5.5059066-5.1663267ZM11.4362191,39.0709079c-.4047535-1.1914197-.316261-2.3831982.0626622-3.5882904.1023643,1.276245.5368544,2.4154063,1.3339245,3.4054458.807753,1.0033134,1.8872816,1.5785146,3.1825405,1.9466752-1.9956251.6978948-3.9457283.1004509-4.5791272-1.7638306ZM35.2673244,31.1796505c-.3640947,1.4876304-1.0674904,2.8107126-2.1258924,3.9087369-2.1781906,2.2597074-4.7395298,3.9064249-7.8111756,4.691696-.9194449.235103-1.8561896.2744463-2.7973191.2507686-1.1221006-.0281821-2.2436432-.0778893-3.3658235-.1016866-.2881188-.0061387-.2406039-.1241286-.1752311-.3133112.4580881-1.3265103,1.5065247-1.9098432,2.7785045-2.1900295.9989287-.2200752,2.0216945-.2054461,3.0382419-.2482174,1.3442088-.0565634,2.6919254-.1214579,3.9438947-.6907197,1.2412864-.5643588,2.1714939-1.4386406,2.5825455-2.774917.3983756-1.2950994.008052-2.3454494-1.2294874-3.1905925.1493211.2388101.2424375.3851017.3330825.5328682.9941453,1.6208474,1.0274695,2.8734546-.8329455,4.4394925-1.1244126.9465108-2.5150201,1.1456588-3.9281096,1.2105532-1.2118687.0556466-2.4278032-.0729066-3.637918.0808391-1.56257.19855-2.8275341.8101447-3.5507011,2.3276712-.4976307,1.0444106-1.0649393,1.2455516-2.2947456,1.0050673-3.8443207-.7517875-5.3585786-5.123077-2.8424423-8.1971942.309644-.3783253.6583522-.7181444,1.0754627-.9606616,2.8225116-1.6411369,5.3996359-3.6588851,8.1924108-5.3411591,2.0979893-1.2637285,4.3791023-2.0205784,6.8606388-1.9740999,1.3399835.0250729,2.5964173.3976182,3.7170829,1.1678217,1.538972,1.0576845,2.0931262,2.6080568,2.171175,4.3810954.0213658.4839981.1224545.9869702-.1035601,1.4588504.2154114.1718827.0413762.3675228.002312.5271282ZM6.59002,35.4780732c-.4002092.3912404-.8349385.7346072-1.393079.9187274.1889434-.2044894.3718279-.414958.5677869-.6124318,1.7955204-1.8090335,2.9915243-3.9948377,4.0016938-6.3046509,1.2067664-2.759371,2.2097609-5.6000196,3.3729189-8.3763317,1.1520765-2.7499637,2.4394428-5.4330398,4.3362114-7.7596347,3.0342558-3.7218264,6.8818451-6.092548,11.6684912-6.8413857,1.8632052-.2914671,3.6614363.061307,5.4415702.5704178,1.1037643.3157029,2.1691819.7411046,3.2489497,1.1265252.8896285.3175764,1.5586635.878268,2.0817259,1.6402998.3836269.5589775.7602381,1.1227384,1.2046139,1.7799346-.586761-.3453599-1.0320934-.6951842-1.3488327-1.155943-.6758115-.9829442-1.6087296-1.5484191-2.7193501-1.9275815-1.7170731-.586163-3.4283263-1.1683798-5.2456909-1.3675676-2.3588429-.2585416-4.5890926.1788585-6.7372277,1.1583746-4.7032559,2.1445476-7.9722957,5.683051-10.1412385,10.3204557-1.2325966,2.6354018-2.2064923,5.376596-3.3580107,8.0444849-.7331323,1.6985375-1.3886942,3.4331496-2.2830263,5.0581426-.7445327,1.3528986-1.5845735,2.6403845-2.697506,3.7281644ZM39.2419922,18.1284444c.2006627.1376018.3923964.2883579.6569172.4837988-.2819801-.0071352-.4304242-.1215376-.588196-.1977528-1.5180846-.7333715-3.0679786-1.3725902-4.7385731-1.6764941-2.6403446-.4803308-5.24593-.2666334-7.8351722.3622611-2.1231818.5157278-4.1371431,1.2671964-5.8610724,2.6591592-1.9327237,1.5604972-3.4898725,3.4300802-4.6755123,5.6171999-.6834649,1.2608983-1.4091033,2.4998329-2.2788807,3.6462889-.0784474.1033608-.160562.2038516-.2461845.3122748-.0186552-.0329256-.0419343-.0584369-.036832-.0670869.9446373-1.5961732,1.5764418-3.3468495,2.4628813-4.9726796.953646-1.7490021,2.0161139-3.4149727,3.4573455-4.8104035,1.8890355-1.8291635,4.1696701-2.8811877,6.7378655-3.3181093,3.4622883-.5890331,6.8861502-.4183462,10.245277.6508981.9601036.3056578,1.8659158.7387528,2.7001368,1.3106454ZM25.9707506,27.4297218c1.7561373-.1344926,3.4929817-.0648546,5.1441238.6371459,1.7648271.7502728,2.6609131,2.1038091,2.7113778,4.0142502.0119584.4496773.0494282.907327-.1192655,1.3977029-.0951095-.6152619-.166621-1.178983-.2713769-1.7364856-.3357931-1.7882657-1.4133286-2.9474375-3.0948452-3.5636959-1.5283688-.5601335-3.1152543-.5634021-4.7092351-.4299459-.5034505.0420937-1.003712.1225342-1.5053289.1853957.5875582-.3147064,1.208042-.4556566,1.8445501-.5043673ZM35.264853,30.6523629c.0000797.0000797.0000797.0001196.0001594.0001594-.0000797.0001594-.0000797.0002392-.0001594.0003986v-.0000797.0000399c0,.0000399-.0001594-.0006776-.0001594-.0006776-.2016194-.5747228-.3774882-1.1602082-.6113954-1.7214977-.2991205-.7175465-.8300754-1.2605395-1.4652282-1.6909638-1.8158498-1.2302847-3.8213605-1.8683872-6.0194022-1.8895935-.1717233-.0016742-.3554049.0345998-.5823762-.1096191.9512543-.1708463,1.8242207-.1230125,2.6943171.0307731,1.5194398.2685866,2.9277459.8088293,4.201081,1.6968234.7863873.5484142,1.2937442,1.2748897,1.5070828,2.2021474.1125688.4893794.2930616.9679563.2760806,1.4820896Z"/>
  </g>
</svg>