<?xml version="1.0" encoding="UTF-8"?>
<svg id="Layer_2" xmlns="http://www.w3.org/2000/svg" viewBox="0 0 76.2045674 88.9613296">
  <g id="Layer_1-2" data-name="Layer_1">
    <path d="M34.2345751,44.2463917c1.2421621-1.0191715,2.36069-2.1257268,3.2266283-3.4882805.3930188-.6183373.824034-1.2246188,1.3150788-1.766298,1.655551-1.8259118,2.6389709-4.020897,3.4291655-6.299275.6492666-1.8722226,1.1054744-3.8104611,1.7035247-5.7017235,1.0505997-3.322742,1.907808-6.6727551,1.790659-8.901538-.0488883-3.9701379-.3358161-6.6223286-.6626527-9.2686992-.2398686-1.9429361-.9995497-3.664295-2.4201375-5.0548265-1.086684-1.0635285-2.2858609-1.975362-3.6574773-2.6409247-1.7585656-.8533005-3.5938726-1.3024826-5.569193-1.0589557-1.1743171.1447942-2.3537891.2733754-3.5348408.3324488-1.6926329.0847231-3.2698628.5219741-4.736512,1.3609324-2.7670948,1.5828421-5.463684,3.2709853-7.8788329,5.3696073-2.1363691,1.8564669-4.418156,3.4886131-7.0237033,4.6343288-.3597614.1582219-.699319.3640017-1.0433663.5562708-2.4480737,1.3681243-4.1127704,3.3579532-4.7824903,6.1106227-.3313264,1.3618886-.8835647,2.6232152-1.5784771,3.8312885-.3254232.5657491-.6273999,1.1450506-.9576454,1.7079313-1.0816954,1.8438707-1.405622,3.8355704-1.1744834,5.9369361.2422798,2.2036321.2471021,4.3873098-.2559153,6.5721516-.4071531,1.7685428-.5647098,3.5727542-.2772,5.3908504.2426124,1.5336628.6365457,3.0329873,1.0079472,4.5369679.4982783,2.017973.8107311,4.0103378-.0111412,6.0440248-.4288536,1.0612421-.1795066,2.1439352.3354004,3.1538778.3048868.5979672.7029773,1.1308331,1.1298354,1.6448255.4520506.5444228.8975328,1.0943332,1.3503316,1.6380909.2329677.2797775.3551054.6017918.4281053.9551511.1237173.598466.1651228,1.2163876.3741452,1.7946498.7299989,2.019137,2.1394454,3.4036405,4.0622192,4.2954364.7427198.3445462,1.5151218.5174844,2.3391558.3468742,2.0187212-.4179618,3.7481035-1.3176563,5.0976869-2.9220741,1.8394641-2.1866709,3.8891147-4.1949992,5.5903945-6.4988191,3.5355059-4.7877284,7.8040039-8.8543542,12.3837906-12.6118529ZM2.7310498,53.8460431c.5889877,1.1493741.9035191,2.3929496,1.2280277,3.6331162-1.1610141-.9531557-1.1404777-2.3116354-1.2280277-3.6331162ZM14.9912894,63.6295246c-.311954.3324072-.5507417.4421565-.9777661.1538153-.4573717-.3089608-.9963903-.4947031-1.4904282-.752115-.447062-.2328846-.879657-.4924582-1.2012555-.8967013-.7381469-.9276307-.5331985-2.1263088.4742498-2.7479718.7204374-.4444845,1.5328313-.6373771,2.3483847-.7808826,2.7494684-.4837282,4.9857759-1.8630768,6.7598062-3.9633617,2.2300717-2.640218,4.3967882-5.3343961,6.5684933-8.0234192,1.1454663-1.4184261,1.9847988-3.0272504,2.6504446-4.7143959,1.5247664-3.86492,3.6538189-7.3734043,6.1397228-10.6847557.9964734-1.3273009,1.8920939-2.7256063,2.7511313-4.1477738,1.4155992-2.3434377,2.1813497-4.9048774,2.6250028-7.5829256.2155908-1.3016927.4587852-2.5988126.524801-3.9202935.0135524-.2717541.0253587-.5429263-.0689259-.8822344-.2340486.4710904-.2208288.9299587-.2985679,1.3688726-.6495161,3.6714453-1.2825698,7.3440547-3.2672022,10.6100929-1.2176348,2.0038386-2.5888354,3.8985931-3.980905,5.7793794-2.0019263,2.704571-3.7114373,5.5597146-4.7594596,8.7831834-.8007539,2.4630395-2.2930944,4.523665-3.9122286,6.4998168-.6717985.8198769-1.3659626,1.621379-2.0891437,2.4776727-.0557061-.2437764.0704224-.362422.1407617-.4868876.9503288-1.6799951,2.0350174-3.2824175,2.8861561-5.0199478.4186269-.8546308.8609497-1.6975384,1.2769992-2.5534163.4823979-.9922331,1.0088618-1.9537031,1.6640316-2.847827.5493283-.749787.8939576-1.6191342,1.2388364-2.4748458.7832106-1.9428945,1.8180131-3.7367129,3.0539395-5.4239415,1.5043132-2.0535583,2.7384935-4.2497907,3.4518637-6.7128302.3093765-1.0683509.4350062-2.1671322.4286873-3.2679921-.0123884-2.1512934.3602603-4.2500817.7255091-6.3555215.2979027-1.7177422.3449619-3.4344036-.1829154-5.1303622-.9366933-3.0094578-3.8348221-4.8620585-6.9654197-4.5133552-1.665445.1854929-3.1149667.903436-4.59442,1.5946069-1.8876041.8818187-3.5603658,2.0425834-4.9449525,3.6030183-2.0733465,2.3366615-4.4791001,4.2755236-7.0391679,6.05342-1.8718069,1.2999467-3.5439865,2.8430879-4.9472805,4.6583988-.9438436,1.220919-1.5694976,2.5779436-1.7571522,4.1136018-.2514256,2.0570919-.8893847,4.0056402-1.6568813,5.912201-1.4944191,3.7119362-2.13745,7.5766067-2.1622267,11.5591746-.0066515,1.0601612-.1699451,2.1188259-.0231139,3.1810657.0467266.3378947.1052595.6714659.2086899.9958914.0409065.1283734.0838085.2946601.2372081.3019768.1760145.0084806.1771785-.1824997.2141773-.3001476.3022262-.9613038.4816496-1.9520403.6934158-2.9351276.870428-4.0401031,2.5030314-7.7805574,4.5254941-11.3581339,2.0061666-3.5486426,4.5024634-6.7031855,7.6591681-9.3134719.9332844-.7717368,1.839381-1.5772299,2.7414035-2.3857161,2.2482801-2.0151461,4.0311236-4.4189875,5.7063796-6.9073441.9892399-1.4692682,1.9777316-2.9350029,3.2863252-4.1498939.0843074-.0782379.1478289-.1788414.2209951-.269052-.8181309.452591-1.4325604,1.1049755-2.0118203,1.7927375-.6762882.8029156-1.2866438,1.6574633-1.8311498,2.5520445-1.6735931,2.7493437-3.8385635,5.0682541-6.2112262,7.2144757-1.6755054,1.5155791-3.4080471,2.9715859-4.974219,4.6038152-2.3078108,2.4050054-4.1121053,5.1701879-5.6746188,8.0975-1.8068719,3.3848501-3.267618,6.9027296-3.9758333,10.6982249-.0163792.0876331-.0129704.1917286-.1448358.2604882-.0325091-1.1969321-.0593644-2.3636.3292478-3.5098978,1.2872258-3.7969918,2.4479905-7.6332274,3.5421574-11.490415.9575623-3.3756212,2.7549559-6.2246122,5.4476374-8.4926389,3.0968414-2.6084988,5.8922881-5.533275,8.7857609-8.3557433,1.5687493-1.5302539,3.1859712-3.0103308,4.9117783-4.3655678.2026204-.1591364.4211212-.3003139.6426983-.4324287.8709269-.519563,1.2337646-.4967817,2.0365971.1151536.1081695.0824782.208773.1749337.3169426.2574119,1.9445574,1.4829037,2.6822886,3.4252994,2.2248337,5.8261892-1.1828809,6.2083993-2.2891867,12.4341755-4.1496029,18.490173-.3511145,1.1428889-.7369829,2.2751354-1.1076361,3.4121211-.0164624.0505512-.0403245.0987743-.0842242.2046159-.128706-.2295589-.0991901-.4463137-.1386-.6430309-.6693873-3.3392875-3.6441743-5.0502951-7.0083217-4.0174049-1.3558191.4162989-2.546266,1.1519515-3.6897369,1.971579-2.8700263,2.0572166-5.1336048,4.6903675-7.1666267,7.5425179-.8774121,1.2307714-1.6825726,2.5051932-2.3979382,3.838813-1.1002363,2.051064-1.6098221,4.2322474-1.525681,6.555606.0061526.1690305.0008314.3385598-.0659327.5204776-.3826258-1.2118979-.7536116-2.4277035-1.1502055-3.6350285-1.1296691-3.4393922-1.2804912-6.9590177-.932453-10.5316056.1489929-1.5296719.202953-3.0685727.3062171-4.6028175.1287891-1.913046.6351323-3.7486855,1.1629264-5.5788376.6629853-2.2989976,1.494336-4.5437857,2.2106993-6.8255726.6177553-1.9678791,1.7543253-3.569761,3.4662475-4.7056658,2.4288675-1.6115681,4.6169519-3.4936848,6.6554612-5.5687773,1.631772-1.6610384,3.6031015-2.8392633,5.6916632-3.8346142,2.813572-1.3408117,5.7078761-2.494343,8.6900629-3.3786559,2.2913484-.6794477,4.5756296-.4056565,6.7540693.6432388.6706345.3228873,1.1393137.8075301,1.4762107,1.5313763.0661821-.5953066-.205863-1.1518684-.7324932-1.5041884-1.129586-.755607-2.3506296-1.3034388-3.6925638-1.5652988-1.5607675-.3044711-3.1165464-.2245287-4.5836945.345627-2.6845334,1.0432831-5.4157934,1.9697498-8.0447871,3.1544598-2.317788,1.0444887-4.4023588,2.4218004-6.1761396,4.261015-1.9227738,1.9937782-3.9911316,3.8134542-6.3366064,5.3115316-1.8219209,1.1637579-3.0324053,2.8158584-3.6713622,4.8887891-1.2168034,3.9474398-2.4691089,7.8832811-3.8087151,11.7916019-.4894651,1.4280707-.7231811,2.9516731-.5323671,4.4301287.3225963,2.5001214.0924554,5.0057303.2936624,7.5009463.1821671,2.2582573.7974282,4.40768,1.5869577,6.5161961.6006278,1.6037526,1.1949366,3.2095839,1.6459063,4.8638877.0178758.0656833.0367494.131034.0582004.1955532.6830229,2.0445788,1.7927375,2.8679477,3.9567934,2.934795.1491592.0045729.298651.000582.5168192.000582-.1479952.2306397-.270216.4156338-.3869493.6040367-.7838758,1.2639457-.6560844,2.3418164.4029128,3.3850995.5667053.5583909,1.2362589.9775167,1.9064777,1.3950628.1588039.0988575.3196863.1946387.5441734.3311601-1.460164.6747085-2.8561414,1.1714902-4.3683531.3511976-.6491004-.3521122-1.2420789-.7785546-1.8014676-1.2606199-.9474188-.816468-1.4271561-1.8743012-1.6016741-3.0804622-.3633366-2.5105975-1.0585815-4.9354741-1.7667968-7.3655888-.680196-2.3339178-1.1874537-4.7178048-1.8421247-7.0612841-.4794047-1.7159131-.909256-3.4411382-1.1729037-5.2075193-.1820009-1.2189651-.1238005-2.4252924.1505727-3.6086721.5332816-2.3003279.7424704-4.6174507.5319513-6.9693275-.1576398-1.7607273.2500953-3.3801941,1.0400405-4.9579229.9600566-1.9175358,1.9131292-3.8439263,2.6699833-5.8559545.1671182-.4442766.2956579-.9041011.4235324-1.3619717.6049512-2.1667996,1.912464-3.7880955,3.8275055-4.935391.4779081-.2862627.9566477-.5790936,1.4615775-.8110637,2.3761546-1.0920051,4.4227289-2.6610454,6.373522-4.3687273,1.005536-.8802805,2.0633692-1.690097,3.1700908-2.4362257,1.6128984-1.0874323,3.2139073-2.1940706,4.8554902-3.2365223,1.5386514-.9770179,3.2608833-1.4668155,5.0755707-1.434057,2.7937007.0503849,5.5597146.4046588,8.2864018,1.0352182.6456083.1492839,1.2286097.4213706,1.7639699.8133085.6698862.4903797,1.349417.9674564,1.9701655,1.5211081,1.3512462,1.2051633,2.0314422,2.7590715,2.1857563,4.5200067.2314712,2.6422966.5119138,5.2838449.526547,7.9406084.0114738,2.0830327-.3571008,4.1170107-.8991956,6.1182303-.8208746,3.0298695-1.6806603,6.048473-2.6920163,9.0223454-1.0326408,3.0365625-2.8339421,5.5617932-4.9838636,7.9100948-2.5043617,2.7354172-5.4093914,5.0069774-8.1862971,7.4308564-1.8605825,1.6240396-3.5084843,3.456104-5.0389876,5.3930122-.3297466.4172966-.5865765.8828164-.8581228,1.3387747-2.0519786,3.4451291-4.6064758,6.4977382-7.3403132,9.4121631ZM13.0301865,40.680871c-3.029329,2.3071456-4.393795,5.5252933-4.9328136,9.1616521-.1866569,1.2594559-.0733325,2.5280576.4582863,3.7227448.7235137,1.6257025,2.2784612,2.6484492,3.914806,2.5647238.6078612-.0310956,1.1853752-.2078584,1.7115065-.4961997,2.2930944-1.2567122,4.5444508-2.5965677,6.51154-4.3268646,3.3229083-2.9229055,5.3674871-6.6602004,6.6523018-10.8493796.2600725-.8479793.4711735-1.7030258.4831462-2.596152.0029932-.2207457.0591981-.4309321.1386832-.6345503,1.3969751-3.5779922,2.4579677-7.256671,3.3012079-11.0010331.0798176-.3544402.1878209-.7025616.2827706-1.0535929-.0764919,2.2782949-.3181066,4.5326445-.7334077,6.7678711-.95274,5.1280342-2.7775709,9.944447-5.3057116,14.4855721-1.0373799,1.8633263-2.048154,3.7464407-3.1791534,5.5577192-1.321564,2.1164979-2.9470171,3.9303538-5.2941547,4.9266609-1.8726383.7949338-3.8363187,1.3118362-5.8700889,1.471721-2.5918286.2037844-3.7175899-.6521767-4.2811357-3.1881329-.5483306-2.4673629-.6495161-4.9304855.1242994-7.3782266.5390185-1.7050213,1.4464454-3.2203925,2.4267058-4.6946909,1.5842971-2.382723,3.2233025-4.726036,5.3624154-6.6603667,1.6505624-1.4925068,3.3934139-2.8654534,5.4677581-3.73214,1.8521851-.7738154,3.6490798-.6712996,5.2926581.5544832,1.6001775,1.1932738,1.9912839,2.882581,1.8166828,4.7588776-.2195817,2.358944-1.1820494,4.4733632-2.1827631,6.580549-1.759397,3.7045364-4.4480045,6.5420537-7.9313795,8.661129-1.0683093.6498487-2.0977075,1.3645491-3.234028,1.8994936-.8445704.3975085-1.7129199.5430926-2.6121155.2350463-1.3461745-.4611963-1.86316-1.5335796-2.0434148-2.8411756-.3309938-2.4013471.1742685-4.6803071,1.0209176-6.9063048.5637953-1.4824465,1.2647771-2.8876527,2.3340009-4.0852499.3155291-.3534425.5913989-.7430524.8362561-1.2335152-.253421.0641035-.386201.2153414-.5357759.3293309ZM30.4847255,7.7909299c-.6491835-.4281053-1.2851472-.2722114-1.9068103.1289554-1.2406655.8006707-2.3443107,1.7697068-3.4403067,2.7493021-2.0107395,1.7971857-3.8755623,3.7439879-5.7842018,5.6461006-1.6303585,1.6247879-3.3281463,3.1809825-5.1257893,4.6156216-2.8474113,2.2724333-4.6443892,5.1939253-5.6812703,8.6548932-.772402,2.5781099-1.3680412,5.2049418-2.1946526,7.7665062-.357184,1.1066384-.7323269,2.2075399-1.1274242,3.3073605-.0605284-.8784929.0111412-1.749503.1102481-2.6191827.340971-2.9957391,1.3920696-5.7771346,2.6028866-8.5042374.7298326-1.6440772,1.3903236-3.3099379,1.7769403-5.068753.6177553-2.8097058,2.2467004-4.9067897,4.5358039-6.551532,1.0163447-.7302899,2.0325231-1.4611617,3.0599258-2.175696,1.5154544-1.0540086,2.8751812-2.2799577,4.1361337-3.6256749,2.5377022-2.7081877,2.5494254-2.6924736,6.2268571-4.6990559,1.3475047-.7352369,2.735334-1.3090925,4.2667519-1.5443883,2.7854695-.4278558,5.3814552,1.3525349,6.1874471,4.0556925.4651041,1.5598529.3984231,3.1451893.2013733,4.7347245-.1923106,1.5517465-.6440286,3.0620875-.7386458,4.6294234-.0631058,1.0456111-.0355022,2.095712-.1604667,3.13833-.2870109,2.3956102-1.2034173,4.5575875-2.4306967,6.6084021-1.0338048,1.7273868-2.2208428,3.3583274-3.2077547,5.1148976-.6669762,1.1872043-1.1457158,2.4643698-1.7569027,3.67818-.157141.3121202-.2966556.6362131-.5673704.8906319.2722946-.8348427.54858-1.668355.8160523-2.5047774,1.0338879-3.2324483,1.6455738-6.5411391,1.6833209-9.9382113.0325091-2.9177506.5354434-5.7599239,1.2077407-8.5848449.3433822-1.4430365.5810059-2.9041151.6386243-4.3933377.0996889-2.574701-1.3485856-4.2041865-3.3278138-5.5093297ZM75.5770385,58.3051889c-.549744-.8685989-.8561274-1.8049596-.9435111-2.8317804-.074247-.8729223-.5539012-1.4890148-1.3730298-1.8188446-.2384552-.0960306-.485391-.1862412-.7368998-.2320532-1.1809686-.2151751-2.0050026-.8418267-2.4225486-1.9913671-.1291217-.3556874-.3238435-.6914203-.658163-.9134963-1.3972245-.9279633-2.8452496-1.759397-4.4501662-2.2779623-.2323026-.0749953-.4084003-.1840794-.570613-.3576828-.766-.8198769-1.6438278-1.4829453-2.7613579-1.7234791-1.6421649-.3534425-3.2813366-.3545234-4.8407738.3487865-1.0491032.473169-2.0116541.4626098-2.962648-.2110179-.6525092-.4621109-1.3491676-.4879685-2.0918043-.1907309-2.0384262.8158028-4.0181532,1.7357012-5.7847006,3.0639998-2.0543066,1.5445546-4.2588533,2.9045308-6.1068812,4.7032547-1.6006763,1.5580238-3.4046382,2.7266871-5.5047569,3.4748944-1.1652545.415218-2.316042.8858927-3.2550633,1.735618-.9258847.837919-1.9497122,1.5185307-3.108731,1.9942771-.3008127.1234679-.590318.278946-.8740032.4393296-1.3425161.7588496-2.5985632,1.6084087-3.2052604,3.1241125-.427939,1.0689744-1.0575006,2.0183055-1.7248094,2.9500102-1.7380292,2.4267058-3.2567262,4.9853602-4.525411,7.6886009-.4391633.9357787-.8667697,1.8882693-.9851659,2.9252335-.1872389,1.6400863.3678263,2.4149826,1.5887868,2.7751597,1.0409551.3070485,1.8683149.9208961,2.6500289,1.6283631.7592653.68718,1.6255362,1.1822989,2.6169379,1.4467779,1.1379834.3036396,2.2034658.7713211,3.2098333,1.380679.2788629.1688642.5672041.3233446.8581228.470841.9648789.4890494,1.976235.8101491,3.0655795.5953897,1.0780371-.2125145,2.0467406.0369988,2.9806901.5453374.1551455.0844737.31952.1527344.471423.242363,1.366794.8059919,2.8368521,1.1372351,4.4206503,1.0101089,1.1475449-.0920397,2.2792926.0241947,3.3970722.3174414.7632562.2002924,1.5432243.3276681,2.3362458.3425507,1.3328715.0310125,2.5041954-.4464799,3.5907963-1.1635916.8404964-.5547326,1.7556556-.8490602,2.7578659-.8916296.462194-.0195387.9237229-.0519646,1.3858338-.0720853.9380236-.0409065,1.835889-.2307229,2.6423797-.7344886.9455065-.5905674,1.9813067-.9446751,3.0517777-1.2248683,1.5869577-.4154675,3.1148004-.9701169,4.4402722-1.9777316,1.0917557-.8300204,1.8785415-1.9285938,2.6281622-3.0468723,1.1552773-1.723396,2.5952374-3.1340065,4.3457382-4.2466312,1.0330565-.6566664,2.0352668-1.3628863,2.9208269-2.2187642,2.1692939-2.0966266,3.4000654-4.5580863,3.0179384-7.6629927-.1014349-.8236183.0348371-1.6271159.3282501-2.4035088.1729382-.4576212.3405553-.9170715.5111655-1.3755241.4706747-1.2647771.3986725-2.4844073-.3300792-3.6360263ZM62.4677387,81.0215398c-.9925657.8149714-2.1332928,1.3438464-3.3489322,1.7293823-.5050129.1601341-1.0092775.3246749-1.5054772.5097521-1.0962455.4088991-2.0888111.9937297-2.9158383,1.8292375-.7666651.7744806-1.7021113,1.089594-2.768342,1.086102-.1224702-.0004989-.245855.0102266-.3674106-.0004989-1.4648201-.1293711-2.7912895.2433607-4.0337842,1.0253242-1.3948133.8777447-2.9061105,1.0406225-4.4667949.5194798-1.4556743-.4860562-2.9268964-.6750411-4.459894-.4955345-1.2523887.1466649-2.4774233-.049886-3.612663-.6190856-1.6493984-.8269441-3.3933307-1.2829023-5.2191593-1.5096343-1.1370689-.1412606-2.1949021-.6145127-3.272274-.9899882-.8091514-.2820223-1.6168062-.5662064-2.4757604-.6601584-.91042-.0994395-1.6826557-.5107498-2.3893744-1.0657318-.3103742-.2437764-.6191687-.4900471-.9194826-.7458793-.5628807-.479571-1.1665848-.8867241-1.8597511-1.1607647-.3016442-.1193107-.5924797-.2747889-.8703449-.4433205-.3852864-.233716-.5810059-.5886551-.6166744-1.044946-.0586992-.7506184.0779053-1.4742984.3585974-2.1558247,1.6223768-3.9402479,3.6418463-7.6606647,6.2508855-11.0410251.6509295-.8434064,1.4259921-1.5739042,2.4216341-2.0230447.201207-.0907094.4017488-.1667025.6288965-.116567.3582648.0789862.5650424.2578276.5796756.665147.026107.7251766-.2285611,1.3607245-.5555641,1.9778147-.222658.4202898-.4561246.8362561-.7090467,1.2390026-.6049512.9631329-.8679337,2.023793-.8700955,3.1440669-.0020786,1.0859357-.2263994,2.097458-.7754783,3.0410522-.5617167.9652115-.6012098,2.0018431-.4221189,3.0838711.4287704,2.5900826,1.9709138,4.3610365,4.1213342,5.6918295,2.5353742,1.5689156,5.2968984,2.2136093,8.2655328,1.9726598.8065739-.0654338,1.5733222-.3024756,2.3229429-.594392.6584956-.256331,1.3380264-.3861179,2.0390914-.2910018,1.4210035.1927264,2.7871324-.0822288,4.064381-.6354648.9032697-.3912727,1.63701-.4444014,2.4722684.1355237.7153656.4966985,1.5788096.6286471,2.4603789.5842485,1.1994264-.0603621,2.3875453.1688642,3.5873042.1546467,3.4733978-.041156,6.3760995-1.4057051,8.8494487-3.7800306.4615289-.4431542.7507016-1.0168435,1.1569401-1.6212959-.0486389,1.0911737-.35602,1.9571951-1.1450506,2.6050484ZM28.6545735,63.6127296c-.1465818-.1651228-.0903769-.2440258.0982755-.3082957.8655226-.2950759,1.5271776-.8746684,2.1176619-1.5464669,1.3731129-1.5624304,3.1051558-2.5355405,5.1311937-2.8786732,1.7653002-.2990667,3.1227822-1.1232671,4.1099435-2.5912466.978847-1.4555911,2.28187-2.543356,3.8021467-3.3914184,1.2414969-.6925012,2.3465556-1.5786433,3.4524457-2.4617923.9600566-.7666651,2.0304445-1.3043533,3.2167342-1.6246216.4799867-.1295374.9311227-.1138233,1.3052679.2245703,1.3779352,1.2464024,2.918582,1.1250962,4.5149349.563047.3199357-.1126593.64486-.2282286.9396865-.3922705,1.3758566-.765418,2.8197246-.7936867,4.3167211-.4752476.7110422.1512378,1.389409.3531931,2.0237099.7196059.7911093.4571223,1.6341831.8097334,2.5174984,1.0436157,1.1724048.3104574,2.0387588,1.0027092,2.6381394,2.0380105.36766.6351323.7158645,1.2821541,1.0550895,1.9330836.4200404.8058256.9907365,1.4633235,1.8022159,1.8887681,1.5948563.8360898,1.960604,2.4099108,2.3511285,3.9529688.1187287.4694275-.0914577.9405179-.2626499,1.3858338-.1413437.3675769-.2912513.7338235-.4666006,1.086102-.4831462.9702832-.5917314,1.9751541-.2827706,3.0117026.3543571,1.188784.2320532,2.3079771-.4056565,3.3750392-.2788629.4666006-.5383534.9448414-.8020842,1.4203383-.8050773,1.4518497-2.0341859,2.1926572-3.6962221,2.1807677-1.7915735-.0128872-3.1152161.8163848-4.122415,2.2388018-.1099987.1554781-.2310555.3032239-.338643.4603649-1.157439,1.6901386-2.6967555,2.681374-4.8035256,2.7061507-1.1836291.0138849-2.1825969.4897145-3.0006446,1.3589785-.7217677.7669977-1.501902,1.4507688-2.5329631,1.8029642-.8169668.2791955-1.6518927.3250906-2.4958811.3132843-.9253027-.0130535-1.849857-.0803996-2.775908-.0461446-.506842.0187073-.9906534.1198096-1.4600809.3308275-1.2154731.5467509-2.4418379,1.061741-3.7778689,1.2595391-.5379377.0796514-1.0590804-.022615-1.5861262-.053378-.7048064-.041156-1.3835058.0438166-2.0438306.2897547-3.6580593,1.3623874-7.0853125.6965752-10.3489396-1.2207942-1.1453832-.6728794-2.1313805-1.5502083-2.9313861-2.6265825-.860534-1.1576884-1.0406225-2.4960474-.2512593-4.255195.4510528,2.6439595,1.6977047,4.7253708,3.8616774,6.2166305,1.3258043.9136626,2.7857189,1.4704738,4.4242255,1.4497711.187904-.0024112.3779698-.0424031.5616335-.0873005.1494918-.0364999.3013116-.1203085.2631488-.3043048-.0325922-.1573904-.1952207-.1750168-.3307444-.1759314-.5032669-.0031594-1.0042057-.0009146-1.5060592-.0775728-2.9439408-.4496394-5.6896677-3.0048017-6.284808-5.8710034-.1798391-.866354-.152485-1.7258071.140346-2.6423797.1590533.2723777.289339.4886336.4131395.7084647,1.4609955,2.5956532,3.6923975,3.9444051,6.6520523,4.136882,2.7645174.179756,5.5242124.0738313,8.280748-.1343597,1.9802259-.1495749,3.9637775-.2895052,5.9254624-.6126004,4.2665857-.7028941,8.1503792-2.2500261,11.2892912-5.32683,2.1917426-2.1484249,3.6750205-4.6929449,4.1501018-7.7790609.3158617-2.051064-.0976935-3.9493105-1.0741293-5.7414661-.5551483-1.0189221-1.3809284-1.8003036-2.4295327-2.2880227-1.9613523-.9120829-3.9955382-1.0823605-6.0781136-.438415-.4453991.1376854-.847231.365332-1.2350118.6201665-.5342794.3511145-1.0703879.6994021-1.6050829,1.0500177-1.4749635.9673732-3.0768039,1.4855228-4.8571531,1.3807621-1.9575277-.1152367-3.8156991.272544-5.5757613,1.1280894-.9451739.4595335-1.8193434,1.0407057-2.6596736,1.666027-1.6227093,1.2075744-3.3850164,2.0794991-5.3595885,2.5855928-2.1400274.5484137-3.7893427,1.7971441-4.7530576,3.8461296-.5584741,1.1875369-.5923134,2.3565328.1110796,3.505408.2867615.4682635.4498057.9905702.6039535,1.5111309.7559396,2.5536658,3.0131161,3.3082751,5.1544738,3.0187698.7372323-.0996889,1.4170958-.3820438,2.0888111-.6746254.7835432-.3411373,1.5577744-.4187101,2.3745749-.1233016,1.3803464.4991928,2.7004138.32243,3.7857675-.6555024,1.499574-1.3511631,3.1463118-1.4647369,4.9808704-.9256352,1.0276522.3020599,2.0846539.5309536,3.1759939.458702.9125817-.0604452,1.6798288-.4195415,2.2883552-1.1054744.2185839-.246437.3523616-.5287919.2254017-.8591205-.0769908-.2003755-.2368755-.3089608-.37057-.0532949-.8212903,1.5711604-2.2046298,1.5793916-3.6686185,1.3113374-1.1370689-.2080247-2.2693154-.4301007-3.4218489-.5482474-.9130806-.0935363-1.723978.1230522-2.4681944.6381254-.4696769.3251738-.9315384.6619876-1.4075343.9775167-.8314338.5510743-1.744265.7410569-2.6826211.3789675-1.198595-.4623603-2.3086422-.2822718-3.4199366.2582433-1.2809069.6230765-2.6059629.775894-3.9458185.207027-1.0112729-.4293524-1.7386943-1.1507875-2.0609581-2.2305706-.2298083-.7699077-.5118306-1.5105489-.9275475-2.2096184-.5186484-.8722572-.3396407-1.7347866.2421967-2.5174984.9534883-1.2825698,2.187336-2.1909112,3.7235762-2.6530221.8843961-.2660588,1.7781875-.5048466,2.6764685-.7198554,1.4218349-.3404721,2.7064833-.9711978,3.9203766-1.7671294.7393941-.4848922,1.4854396-.957978,2.2790432-1.3530754,1.1926086-.5936437,2.4380133-.8289395,3.760575-.6024569.1864906.0319271.3759744.0462277.569449.041156-.7085479-.3544402-1.4678132-.4697601-2.252853-.4669332-1.133078.004074-2.1067701.4781576-3.0522766,1.0345531-.1054258.0621081-.2095213.1277082-.3077136.2004587-2.1056892,1.5619315-4.4835899,2.4657832-7.0390016,2.9766161-1.3033556.2605714-2.4439996.8948722-3.4524457,1.7624734-.108419.0932869-.1952207.221494-.3665792.2618185-.0145501-.136272.0878826-.1963015.1498244-.272544,1.0372137-1.276334,2.4617923-1.9038171,3.9917968-2.3150443,1.8658206-.5015209,3.5522177-1.3332041,5.0869614-2.505692,1.5379862-1.1749822,3.2259631-2.0661961,5.1247916-2.5167501.8276092-.1963015,1.6676899-.2575782,2.5133412-.1892343,1.864906.1505727,3.6118315-.2224085,5.2923255-1.0479392,2.0784182-1.0208344,4.2790572-1.6327697,6.612975-1.499574,2.6556827.1514872,4.7072456,1.7142502,5.4631852,4.3309386.225568.7809658.1930589,1.5778119-.1414269,2.319534-1.334285,2.9589066-3.010206,5.6924115-5.2894155,8.0364728-2.0863168,2.145598-4.6624313,3.3353798-7.5289656,3.9972011-2.3349155.5391017-4.7176385.8015022-7.0712613,1.2321849-2.181516.3990882-4.3686857.7669977-6.5899442.8509725-1.3081779.0494703-2.6101201-.0328416-3.9001728-.2820223-2.6713136-.516071-4.4708689-2.0018431-5.3649928-4.6155384-.7282529-2.1287199-.6701356-4.1890129.2350463-6.2354209.3738958-.8451525.7497039-1.6897229,1.1430552-2.5258959.1471638-.3128685.1743517-.5913157-.0640204-.8598688ZM66.866938,76.3451404c-.7387289.6797803-1.503648,1.3311255-2.2587562,1.9931131-.0907094.0794851-.1894838.1969667-.3153628.1464986-.160051-.0641867-.1044281-.2340486-.1005203-.3617568.0531286-1.7293823.9831705-2.7834741,2.6949264-3.0354816.3703206-.0545421.742803-.1508221,1.1882852-.0812311-.363586.5412634-.7829612.9471694-1.2085722,1.3388578ZM75.1664764,61.8729544c-.2151751.4243638-.4262761.8524691-.6711334,1.2597053-.6365457,1.0590804-.7313292,2.2008884-.5633795,3.3901713.0456457.3231783.0892128.6467723.128706.9707821.2757866,2.2656571-.8036639,3.8763106-2.5440211,5.1258725-1.3133328.9429291-2.8085834,1.4689772-4.4057677,1.7146659-.3067991.0471423-.6071961.1464155-.9053483.2383721-.9478345.2923321-1.6418323.883731-2.0656141,1.7845895-.1040955.2213277-.2190828.4394128-.3014779.6688885-.8133917,2.2642436-2.4336899,3.7777857-4.4897425,4.9159354-1.9347464,1.0708867-3.9962034,1.4348053-6.1797148,1.2700983-1.1396463-.0859703-2.2802903-.1647902-3.4251747-.1564758-.7546093.0054875-1.4294841-.249929-2.040588-.765418.4532146-.0213678.906346-.0586161,1.3597268-.0609441.9253027-.0048223,1.8496076.0120558,2.7757417-.0319271,1.504812-.0714202,2.8112439-.561883,3.8813824-1.6464883.3817944-.3870324.7852892-.7525307,1.2233717-1.0799494.5750196-.429685,1.2248683-.6969078,1.928095-.6936652,1.955948.0088963,3.3084413-1.0742956,4.520173-2.4183915.4361702-.4838113.7947676-1.0367148,1.2122305-1.5385682.6077781-.7307472,1.3543225-1.2600379,2.3075613-1.4382973.4960334-.092788,1.0012126-.1094167,1.505394-.1033472,1.1756474.0140512,2.1442678-.4084834,2.8929739-1.3299615,1.0939174-1.3463407,1.9789787-2.7951973,2.2918473-4.5347231.1016012-.5647098-.0049886-1.1149527-.1479121-1.6540544-.2320532-.8757492-.1685316-1.7153311.1730214-2.5541646.2914175-.7158645.6269842-1.4175946.7877004-2.1825137.0969452-.4608638.1061741-.9164895-.0131367-1.3736949-.2281454-.8736706-.5687007-1.7002821-1.0382945-2.4721852-.1853266-.3045542-.4009174-.5858283-.7144511-.7711548-1.3367793-.7898621-2.3096399-1.9180346-2.8870707-3.3390381-.6471881-1.5927777-1.7708708-2.5985632-3.3804435-3.1244451-1.1526998-.3765564-2.2384692-.9140783-3.3258183-1.4446994-1.2938773-.6313908-2.6438763-.9131637-4.0773513-.629728-.7141185.1412606-1.3682906.4572886-2.0077463.7839589-1.3204.6743759-2.6325688.6730457-3.9675189.0667641-.2590748-.1176479-.5338636-.2008744-.8018348-.2987342-.6851846-.2504279-1.3596437-.2698834-2.076007-.0611935-.9957251.2900873-1.8969993.7314955-2.7130516,1.364466-1.5928609,1.2355106-3.2471647,2.3778175-5.0140446,3.3561656-1.0624061.5883226-1.9520403,1.3791824-2.6145267,2.4119894-.1980475.3087945-.4342579.5928123-.6391232.8976159-.8126434,1.209071-1.9747384,1.7406898-3.3999822,1.769208-.5864934.0117232-1.1699105.0660158-1.7402741.200625-1.1787237.2781146-2.0722656.9893231-2.8152348,1.9122146-.1959689.2433607-.3744778.5017703-.54858.7615934-.6668099.9951431-1.5940249,1.6089075-2.774162,1.7562376-1.3190697.1646239-2.3490499.7974282-3.2154039,1.7601453-.1682822.1870726-.3467079.3649994-.5204776.5470834.3120371-.7906935.7883655-1.4524317,1.4303156-1.9872931.9701169-.8082368,2.0783351-1.3922359,3.2186465-1.909554.6765377-.3069654,1.31749-.6594101,1.8526839-1.1704094,1.1057238-1.0557546,2.4371819-1.7178254,3.8377321-2.2691491.4046588-.1593027.8060751-.3270861,1.211399-.4846428,1.5692481-.6098567,2.8994591-1.5557789,4.1381291-2.699915,2.7031575-2.4968788,5.6303034-4.7176385,8.7540001-6.6668519,1.1226851-.7005661,2.3859656-1.1137056,3.619647-1.5792253.2506773-.0946172.4696769-.0787368.6946629.0583667.3017273.18383.6155936.347955.9134132.5374388.8332629.530039,1.7247263.7088805,2.6435437.3117045,1.4741321-.6372109,2.9528371-.6673088,4.4567346-.1630442.6694705.2244871,1.3345344.4638569,1.9949422.7141185.5845811.221494,1.1622613.4312647,1.7950656.5101678.6763714.0843074,1.3079285.3579322,1.8913456.7220171.6922518.4318467,1.3825081.8667697,2.075425,1.2975356.5022692.3121202.8821513.7286686,1.0668958,1.2953738.4016657,1.2326837,1.249063,1.9349127,2.5120941,2.1712062.2383721.044648.4682635.1405123.6979887.223822.7748132.2807752,1.2603705.8064908,1.298949,1.6527241.0443986.9752718.3109562,1.8682317.8461502,2.6872772.7533622,1.1530324.6898406,2.3358301.0867185,3.5249467ZM24.8798641,25.635162c1.9224412-3.1834769,4.0153264-6.1933088,5.4665109-9.6602214.2125145.3236356.1050101.5161541.0502186.7012728-.318938,1.0777045-.866354,2.0507315-1.4289853,3.0112038-1.1687465,1.9951085-2.4716864,3.9036648-3.8048905,5.7915184-.0421537.0596969-.0656833.1457088-.2828538.1562264ZM37.7412303,4.5572344c.538686.5753522.572359,1.4003008,1.1088832,1.9344554-.7895295-.1650396-1.3363635-1.1458821-1.1088832-1.9344554ZM52.2385256,72.1814863c-.8815693-.0752448-1.7500018-.2399518-2.6128638-.4334264-.4694275-.1052595-.9448414-.1036798-1.4217518-.0702562-.4190426.0293496-.8321821-.0081481-1.2544673-.1558107.0775728-.0187904.1541478-.0466434.2328846-.0552072,1.54073-.1674508,3.0654133-.028435,4.5910943.2030361.9343653.1418426,1.8704766.0838917,2.7877975-.184412.9385225-.2744563,1.7520804-.7687437,2.2137756-1.6261182.9588926-1.7812638,2.1293851-3.4439651,2.9566617-5.2971478.3614243-.8096502.6471049-1.6410009.7262574-2.5347922.0868017-.9812582-.3280838-1.5990966-1.2911335-1.819676-.9920668-.2271477-2.0015106-.1643745-3.007878-.1278745-1.8925096.0686764-3.7005455.5716107-5.5127386,1.0584984-.6026232.1618802-1.2138933.288757-1.8449516.3246749,1.038544-.3601771,2.1043589-.6293954,3.1730839-.883149,1.8665689-.4432374,3.7419509-.8386673,5.6758659-.8287732.6400377.0033257,1.2802418.0081481,1.8980802.2033687.7901115.2495964,1.1768945.7717368,1.2041656,1.5991798.0201207.6074455-.1160682,1.1906132-.2966556,1.7613925-.3615906,1.1432215-.8059919,2.2466173-1.5034817,3.2398481-.5804239.826362-.9317879,1.779684-1.3884113,2.6748888-.4052408.7943518-.8801558,1.5337459-1.6036695,2.0824922-1.1112944.8428244-2.3892913.9830042-3.7216639.869264ZM48.6902156,62.9196464c-1.1263434,1.0216658-2.1534967,2.1601481-3.4510322,2.9812722-1.7232297,1.0904254-3.6439249,1.6075772-5.6366223,1.9024868-.8886364.1314497-1.7827603.2165054-2.6804594.2546682-.7035593.0299316-1.3734455.1489098-1.9112169.6849352.0077323-.4200404.2967387-.5736062.592064-.6959101.6744591-.2793618,1.3950628-.3399733,2.1125901-.4162158,2.3078939-.2451067,4.5740499-.6626527,6.6891343-1.6765862.8264452-.3961782,1.5799736-.9054314,2.2733894-1.5041469.7305809-.6310582,1.4612449-1.2619502,2.2224225-1.9194481-.0221161.1955532-.1129919.3007296-.2102696.3889447ZM33.6246353,67.2115076c.5310368-.3092934,1.1132067-.4882179,1.6998664-.6135981,2.0795822-.4441519,4.0159915-1.2494787,5.8770729-2.2548484,1.6433289-.8877219,3.3783649-1.4837767,5.2416081-1.6888083.2384552-.0261902.4727533-.091042.8146388-.1589701-.437833.2821886-.8320158.3998365-1.2234548.4700927-1.8045439.3242592-3.4528614,1.0483549-5.0357451,1.936243-2.1755297,1.2202122-4.5404599,1.8577557-6.9675815,2.3124668-.1302857.024361-.2663914.0182084-.4064048-.0025774ZM42.1390993,72.697391c.0532949.0339225.0948666.0860534.1419257.1297037-.0093952.0187904-.0187073.0374977-.0281025.0562881-.3497011-.1312003-.6961595-.2718789-1.0497683-.3915222-.9546523-.323012-1.9219424-.5067589-2.9166697-.1839963-.6027895.1955532-1.1196919.5495777-1.6276979.9161569-.6528418.4712567-1.3303772.8976159-2.1110935,1.1270085-1.2597053.3701543-2.4120726.0532118-3.5113943-.5687839-.1037629-.0586992-.1926432-.1512378-.2735417-.2413652-.1162344-.1294542-.1964678-.2993162-.0582004-.4380825.1242162-.1246319.2442752.0383291.3534425.0957812.2162559.113657.424447.2430281.6325548.3714015,1.2419958.7661662,2.4859039.6618213,3.7104396-.0233633.4965323-.2779483.9574792-.6201665,1.4312301-.9381899,1.7544084-1.1775597,3.5265264-1.0439483,5.3068756.0889634Z"/>
  </g>
</svg>