<?xml version="1.0" encoding="UTF-8"?>
<svg id="Layer_2" xmlns="http://www.w3.org/2000/svg" viewBox="0 0 122.6315546 126.165632">
  <g id="Layer_1-2" data-name="Layer_1">
    <path d="M57.1950016,77.3397304c-8.0449441,1.0937583-16.0748964,2.3040252-24.2185432,2.3830866-.4458502.0043009-.8919252.0409743-1.3368868.0755693-2.2942797.1784807-4.5661365.4752588-6.7268692,1.3283197-2.0791182.8208904-3.7754454,2.1178009-4.674716,4.203196-1.3052542,3.0268081-1.2523274,6.0762029.1276474,9.0911772,1.011867,2.2109237,2.6353444,3.9336933,4.4138557,5.5216469,4.6018736,4.1085608,9.3933474,7.988883,14.3258962,11.6912833,4.6652162,3.5017722,9.5063433,6.7365001,14.9497189,9.4751789,1.1666224.5678936,2.554926,1.2389368,3.9763013,1.8455156,4.9920265,2.1306299,10.1834363,3.2838281,15.6212319,3.2073535,8.5274802-.1200635,16.3912297-2.4483429,23.2137845-7.6153346,6.1144319-4.6305492,9.1684633-10.936469,8.7381349-18.6538251-.3581508-6.4226407-3.4741263-11.5867343-8.1766136-15.8033031-3.5809828-3.2108477-7.9244608-4.9915854-12.572762-5.9647413-9.1639432-1.918277-18.4032419-2.0435554-27.66018-.7851228ZM101.7787166,92.0137448c.7928623,1.5152179,1.4595287,3.079503,1.9383562,4.7258939.7763025,2.6692964.8387594,5.3253228-.1360546,7.9532102-.952736,2.5681745-1.7207861,5.2030089-2.8175126,7.7196876-.6027375,1.3833225-1.3050092,2.7061027-2.1814852,3.9337526-.6561608.9189087-1.4878768,1.6610727-2.4219052,2.2834083-9.7162825,6.4734789-20.2658775,8.2320151-31.5846707,5.53382-3.4928926-.8326499-6.7825485-2.2257042-9.714431-3.6685458-4.1529924-2.130838-7.7933564-4.5009281-11.382534-6.9510954-5.6041973-3.8256679-10.8849211-8.0634734-15.9135299-12.615289-2.0372556-1.8439636-3.9349075-3.8191094-5.2386053-6.2748957-1.4674201-2.764304-1.884824-5.6767634-1.0947224-8.7261649.3537638-1.365518,1.2366301-2.3524258,2.3865666-3.1162087,1.6068116-1.067271,3.410938-1.5945262,5.2942545-1.8861235,1.1647524-.1802108,2.3402363-.2811758,3.5176334-.273867,7.8933645.0491473,15.7247662-.7073406,23.5328232-1.7787509,7.3280308-1.0055597,14.6706839-1.2277342,22.0313029-.3974639,3.8612228.4355451,7.6658926,1.158378,11.3196921,2.5072046,5.5743715,2.0578621,9.7115871,5.7703416,12.4648219,11.0314276ZM70.8739355,40.042465c-3.9557502-3.6135634-8.1003736-7.0021325-12.3345184-10.2810113-3.5362844-2.7384604-7.3035987-5.1334404-11.1621575-7.3862769-1.0572065-.5723568-2.149223-1.0700162-3.2734578-1.4841798-1.1417548-.4207419-2.2946966-.821836-3.4654667-1.1508097-4.6950573-1.319689-9.3216152-2.8134916-13.7543401-4.8832501-2.3353787-1.0907685-4.7493796-2.0241692-7.306003-2.4750065-5.8275554-1.027488-11.1518772-.0052523-15.6919309,4.007222C1.390396,18.5946997-.0007119,21.3275276.0000003,24.7196987c.0002978,1.7746321.1318925,3.5327457.5190305,5.2603892,2.2689429,10.1269476,7.0326437,18.8905705,14.4436071,26.1740793,4.4108894,4.3351325,9.5193462,7.5565552,15.4575531,9.4026098,5.2153659,1.6214148,10.561973,2.1180296,15.9923986,1.8826452,8.3231907-.3609402,16.3259897-2.4204428,24.2965533-4.6332964,1.6568147-.4597788,3.0649508-1.4042962,4.2992796-2.5718816,2.2030072-2.0837673,3.1206586-4.60959,2.5808846-7.6563944-.8717779-4.9208452-3.0056616-9.1464618-6.7153716-12.5353847ZM76.6744516,52.3202136c.8072733,3.6784342-.3972012,6.5055549-3.5308834,8.6130554-.8988769.604451-1.8419852,1.1239368-2.8926208,1.4003347-7.4716795,1.9653102-15.0094352,3.5911818-22.743397,4.0617593-5.4944623.334413-10.9070179-.29528-16.1698861-1.9107053-5.3278557-1.6352935-9.9772365-4.5034205-14.0528218-8.2726843-7.5743564-7.0050407-12.668027-15.5076391-15.1660085-25.5341634-.5416791-2.1742638-.7346966-4.391091-.7286495-6.6387119.0077784-2.8698055,1.2678876-5.1050694,3.3072346-6.9775561,2.2242925-2.0422571,4.950914-2.9492797,7.8711332-3.4086684,3.9668811-.6242222,7.7958741-.0679816,11.5475048,1.2704245,3.1171738,1.1119283,6.1056384,2.5593103,9.2627892,3.5616531,2.6097592.8284788,5.234248,1.6110462,7.8562829,2.4007107,1.7367114.5229828,3.3893984,1.2456,4.8455851,1.9614275,5.0608122,2.6598172,9.4395972,5.9683058,13.673903,9.4965981,2.6437339,2.2027124,4.8752378,4.8106061,7.3185551,7.2094698,1.4500847,1.4235552,3.060348,2.6590701,4.592163,3.9862362,2.705728,2.3443552,4.2558803,5.3491504,5.0091161,8.7808202ZM77.341655.162454c-2.8446805.5661864-6.1385686,3.0308046-5.4966251,7.3236664.1593615,1.0659871.3488678,2.1215704.6068004,3.1668188.4662955,1.8890129,1.0714056,3.7461249,1.3294446,5.6868589-1.142604.0505647-1.2576056.1991011-1.0331303,1.3380515.6454443,3.2736887,1.5572173,6.4737351,2.6822562,9.6131926,2.7295716,7.6170288,6.6038924,14.6395369,11.1286225,21.3179053,1.9793894,2.9216264,4.0114379,5.8080619,6.4707339,8.360719,2.2556191,2.3412417,4.7881708,4.3279063,7.9446102,5.2324355,6.2997922,1.805262,12.0816227.7745854,17.1757354-3.5004791,2.5097448-2.1062945,3.9820273-4.7503181,4.3249842-8.0315189.2270574-2.1724348.2168033-4.3332856-.0954369-6.491435-.9259821-6.3990859-3.5599267-12.0950361-7.0676141-17.4643372-3.6458974-5.5805984-8.3980293-9.8954019-14.2709709-13.0150357-1.1455218-.6086616-2.2743844-1.2564348-3.3443801-1.9976423-2.2050438-1.5278599-4.1389595-3.3912775-6.2457477-5.0419331-2.7208694-2.1315032-5.5166885-4.1423879-8.6155859-5.6982671-1.7414045-.8743502-3.5648301-1.1829456-5.4936962-.7989997ZM88.830035,7.2427882c2.1289893,2.0460785,4.5706785,3.6242141,7.1376594,5.0392682,2.346442,1.2937366,4.7598513,2.4631231,7.029305,3.9003327,4.2461932,2.6888083,7.730914,6.147703,10.5631855,10.2823414,3.2283606,4.7125727,5.751971,9.7525429,7.0777089,15.3411944.7176831,3.0256539.9420934,6.0789916.5800352,9.1842844-.5091938,4.3682942-2.8540704,7.4711517-6.6460559,9.4387644-5.0343599,2.6122231-10.1788309,2.5047808-14.5536315.5260317-3.2217274-1.6197923-5.3245341-3.3556313-7.021705-5.5010743-4.957056-6.2666211-9.5071585-12.8119649-12.8306003-20.1180961-2.1153103-4.6497049-3.2980175-9.5926091-4.2348407-14.5936024-.7176748-3.8308445-1.2943833-7.6869561-2.0906986-11.5042663-.290264-1.3916169-.4023302-2.8106253-.3008346-4.2389858.1692347-2.3813959,1.5435107-3.8707387,3.9281954-4.2181616,1.9404459-.2828948,3.6365005.4190231,5.251711,1.3721503,2.3107531,1.3635502,4.1969125,3.2507384,6.1105661,5.089819ZM71.9007972,80.5194695c-2.9944016.7392104-5.9974276,1.2150387-9.0571013,1.4457069-6.3774785.4807889-12.3782009,2.1388346-17.8120503,5.6292345-1.6737911,1.0752782-3.4630719,1.9541411-5.2967842,2.7358605-.7658327.3264275-1.4904791.7343471-2.2051795,1.1647542-3.0418639,1.8315388-3.581827,6.0949746-1.7357325,8.6639477.716954.9977242,1.5558532,1.8730281,2.5115846,2.6307016,2.2069741,1.7498414,4.3998768,3.4881729,6.2843117,5.6242442,2.6771879,3.0345662,5.839851,5.5040213,9.2038437,7.0858715,2.5373727,1.2816253,4.8522689,2.1624736,7.1693953,3.0372231,3.6682157,1.3845266,7.3834202,2.616899,11.2761154,3.198193,9.4038242,1.4044591,17.514662-1.0961141,24.0950117-8.0928777,2.3189288-2.4657645,3.8457333-5.3475632,4.0302868-8.7792632.2111854-3.9250414-.4549401-7.7294398-1.9636752-11.3659184-1.2014315-2.8954525-3.3724994-5.0820561-5.4755869-7.3086496-1.7595407-1.8630202-3.7739529-3.3909249-6.1324163-4.4174885-4.8185438-2.0969457-9.8292709-2.5012181-14.892023-1.2515398ZM39.8726225,90.9138154c2.4202371-1.1112995,4.7118047-2.4633949,7.0398664-3.7471834,1.9144307-1.0556206,4.0169768-1.5153175,6.1303878-1.9391544,3.9293384-.7880133,7.9197097-1.0240783,11.9467999-1.3473483-.0797891.2199479-.2462001.2643655-.3763119.3313181-3.2494095,1.6734334-6.5560269,3.2277577-9.8727057,4.7620353-2.1017496.9722286-4.3604635,1.0568169-6.6087441,1.2013431-2.3087059.1483287-4.6232261.2289051-6.8934717.7400079-.6932901.1561494-1.3775335.341276-2.124669.4520562.2523787-.1524222.4926538-.3307756.7588484-.4530747ZM85.993723,86.1179481c2.6240882,1.6207405,5.1972679,3.3212814,7.8476128,4.9032882,1.4939851.8916859,2.5843947,2.2503743,3.0541654,3.9657945.563472,2.0572111,1.4072028,4.0383362,1.7943946,6.1363963.6371881,3.4526544.3469684,6.8092097-1.5225456,9.8788586-1.4752119,2.4223732-3.5820223,4.2326555-5.9298394,5.7651558-4.888601,3.1910379-10.2640454,4.2886629-16.0423316,3.752517-4.726161-.4383518-9.2622361-1.5900364-13.6688812-3.3232301-3.2748099-1.2880027-6.4713914-2.7303781-9.5105689-4.5144802-2.0686825-1.2143427-3.7734267-2.8515967-5.4044167-4.5925775,1.1476974.7252581,2.2929463,1.4545619,3.4435927,2.1750539,4.3274346,2.7097599,8.7619812,5.2156551,13.5702914,6.9878818,6.1022024,2.2492505,12.3411388,2.8500291,18.7339064,1.4894002.9926519-.2112571,1.9952676-.3790549,2.9827982-.6116259,2.1286414-.5012882,3.9656049-1.5479218,5.4867637-3.1130085,1.7094206-1.7587356,3.4627588-3.4738951,5.1196233-5.2854043,2.7730036-3.0317921,3.2772031-6.4449683,1.864159-10.2281595-1.8050109-4.8323152-5.0677609-8.2871759-9.7728909-10.390464-4.7672181-2.1311402-9.7545945-2.5009171-14.8456484-1.7402407-5.8107759.8681494-11.2007277,2.8736335-15.9613431,6.3771748-2.6266078,1.9330676-4.6493658,4.3904334-5.9891342,7.3893557-1.4565824,3.2603864-.8604439,5.939844,1.8936941,8.2055039,1.4073999,1.1576428,2.9909835,2.0200577,4.72455,2.5949093.5649549.1872665.6965512.1893622,1.2407363.0797975-.2782254-.3750511-.6436059-.4450048-.9790348-.572105-1.9350086-.7333621-3.7090602-1.7172621-5.2107874-3.177167-1.8257216-1.7747865-2.1779213-3.863879-1.421166-6.2036876.922233-2.8515691,2.7530566-5.0785367,4.9574829-7.0260964,4.2997702-3.7987242,9.4281523-5.8161918,14.9860832-6.8581183,4.1586248-.7796109,8.3159115-.8166158,12.4222685.3465002,4.932375,1.397096,8.9623193,4.0469834,11.5799587,8.5694331.977577,1.6890665,1.5198429,3.5376599,1.7580807,5.47539.3522996,2.8650449-.4253852,5.3662091-2.3291364,7.5459977-1.3763737,1.5758889-2.7988128,3.0993488-4.3973745,4.452998-1.7288068,1.4638487-3.7150047,2.444136-5.9334958,2.8061723-3.9496632.6445314-7.9242619,1.0871794-11.9378944.6540782-3.5764745-.3859594-7.0201743-1.3314793-10.3340287-2.6887922-7.1802214-2.9407618-13.7695707-6.9302636-20.0028675-11.523225-1.3728212-1.0115832-2.6669604-2.1213641-3.7473162-3.4558448-1.3379899-1.6524051-1.836078-3.5401715-1.5753634-5.6401712.0829821-.6680039.4764432-1.1564678.9429257-1.5882653.8812823-.8159749,1.979831-1.1724282,3.1253216-1.4086814,2.0431129-.4215224,4.1208164-.488045,6.183681-.3555854,3.8272222.2457678,7.3069017-.795021,10.6243046-2.5772959,3.4870051-1.8734013,6.9873224-3.7142948,10.5538438-5.4407233,3.1931439-1.5456519,6.3904377-1.6379253,9.7172222-.8058243,2.8494225.7125677,5.4305448,2.0386564,7.9086042,3.5691164ZM91.1081983,87.1692008c-2.4892502-1.6626906-5.0203959-3.2595179-7.5485147-4.842747,2.7476682,1.2684114,5.5126147,2.4927468,7.5485147,4.842747ZM58.2047749,33.2622896c-1.8534311-1.8227162-4.1588321-2.7079582-6.6667801-3.1385128-2.3543136-.4044793-4.5529701-1.1664174-6.4594877-2.6551249-2.0101206-1.5696185-4.2974132-2.5285061-6.7943575-2.9693603-2.7473049-.4846912-5.3107279-1.4725934-7.7938182-2.7050205-.7105708-.3527224-1.441644-.6579904-2.2021006-.8827811-1.542041-.4551953-3.1121537-.7265229-4.7248503-.7962828-2.2264313-.0961927-4.4350505-.5019075-6.6747251-.3917915-1.1858373.0582818-2.3455186.2260463-3.4106076.7953282-.4095086.2188545-.7556557.4978533-.882917.9842447.2410048.0941133.3715104-.0374736.4867966-.1283928,1.2276993-.9676728,2.6657193-1.1619549,4.1505486-1.0700666,2.2248582.1378835,4.4491082.3054481,6.6673296.5241272,2.1853826.215513,4.2267798.9617719,6.2043357,1.8833732,2.5549014,1.1910292,5.0563695,2.5082084,7.8845685,2.991048,2.1478829.3666025,4.0380947,1.297922,5.6998447,2.7178363.8315951.7105965,1.7002103,1.3823122,2.6695081,1.9082953,1.4735683.7992461,3.0925577,1.1023412,4.7192195,1.3348788,2.5682035.3669714,4.6729322,1.5287557,6.3673444,3.4809547.8502513.9795725,1.7197264,1.9438115,2.6099337,2.8870884,1.61429,1.7103809,3.3590756,3.294723,4.9211224,5.0557745,1.7760448,2.0023618,3.3572385,4.1295369,4.1204817,6.7490991.6657554,2.2854486.2484616,4.3309616-1.3903472,6.0980909-.7383284.7961485-1.5985962,1.434429-2.5231833,1.9898719-4.5199068,2.7151235-9.4385215,3.749963-14.6588827,3.3613191-3.5356956-.2631627-7.0534919-.6994761-10.6166526-.5918834-1.9242843.0580609-3.759447-.5414407-5.4851788-1.4308256-2.2299155-1.149277-4.1185621-2.7338228-5.8340506-4.5355685-3.4320291-3.6045751-6.1623374-7.7335372-8.8313175-11.9055528-.5343275-.8350587-1.030218-1.6946816-1.3752021-2.6770332.9205601.6941958,1.8489614,1.3781695,2.7600124,2.0845262,1.5127856,1.1729512,2.9513108,2.4225815,3.912231,4.1186918.5418758.9565749.8985136,1.9989221,1.3458823,2.9993784.4902488,1.0964041,1.0337094,2.158728,1.8990929,3.0229003,2.7837805,2.780324,6.050759,4.8429334,9.8154967,5.8966641,4.355974,1.2193516,8.8415519,1.8529779,13.358108,2.2292299,3.482663.290114,6.6891325-.5222262,9.6832291-2.2622525,1.412074-.8206498,2.7630183-1.7391943,3.5827302-3.2091473.9878627-1.7717143.8979769-3.6768596.5044897-5.5756724-.6818121-3.2889004-2.1683148-6.2395151-3.9570019-9.0464799-3.0246863-4.7460489-7.3141821-7.5426787-12.9070605-8.3204138-2.3962187-.3333454-4.8131339-.3266873-7.219591-.4894205-1.7840957-.1205839-3.553242-.3166777-5.2574251-.9105062-3.4108056-1.1886045-6.8141351-2.4003865-10.2444094-3.5301888-1.728195-.5692383-3.3936041-1.22078-4.8613668-2.3169758-.6207697-.4636606-1.2948892-.8474975-2.0113447-1.1365388-1.838902-.7411781-3.6389309-.7945204-5.4538527.1816925-1.4483944.7790848-2.4545743,3.2329561-1.4756209,4.8663502.1979144.3304109.3482834.6908067.5606971,1.0107302,1.6704797,2.5176978,3.0239491,5.1860368,3.9290655,8.0775989.1748669.5587277.4365481,1.0938662.6934692,1.6227268,1.3511004,2.7822366,2.9697896,5.4073347,4.7509436,7.9303639,2.3523121,3.3320228,4.7579087,6.6204229,7.8088731,9.3759847,3.4570326,3.1220773,7.3677515,5.0315548,12.1541852,4.8733764,2.474251-.0817034,4.9411507.1907962,7.3975392.5081329,3.0944339.39971,6.1468142.275607,9.1552056-.6531556,3.1034828-.9581902,6.095641-2.1458269,8.7204533-4.0985379,2.5762571-1.9165696,3.5926129-4.4755584,2.9358796-7.6421898-.5252761-2.533083-1.835891-4.6601312-3.4991502-6.5972387-2.4033717-2.7988904-4.9204825-5.503308-7.0377564-8.5397226-.344809-.4944267-.7869861-.9275286-1.2195788-1.3530401ZM24.5835471,27.696367c3.523151,1.0670547,6.954232,2.3957843,10.4054449,3.6671555-3.7688562-.3691625-7.2610014-1.5242091-10.4054449-3.6671555ZM20.7433488,40.6567721c-2.0616903-1.3384126-3.4886435-3.0985272-4.124661-5.5073112-.621305-2.3528052-1.6217775-4.5445398-3.0333251-6.5409742-.2562777-.3625007-.4315079-.781196-.6645073-1.1614363-1.1386649-1.8585449.6240345-3.8116719,2.4033218-3.7012774,1.3768757.0854244,2.5246441.7096524,3.6141283,1.4734201,1.8929383,1.3272343,3.6688446,2.8214209,5.6675241,3.9974113,3.2989881,1.9409702,6.9462341,2.6469308,10.6934385,2.9932795,3.453095.3191326,6.9272781.3273342,10.3758188.7108161,2.2844574.25389,4.5252656.6846568,6.6906064,1.4926115,3.2088403,1.1973949,5.724798,3.2792899,7.6892924,6.0307303,2.061562,2.8876538,3.4843021,6.0930594,4.352043,9.5286527.3979527,1.5759235.4426316,3.1676604-.2873215,4.7040744-.539654,1.135826-1.4478259,1.8799883-2.489383,2.5063466-3.5689982,2.1465235-7.403723,2.4928317-11.4015458,1.6606313-3.1726912-.6604436-6.0880004-1.9715443-8.8939532-3.5620149-7.4458312-4.2207349-13.1897256-10.2343672-18.1165385-17.1202365-1.722276-2.4071072-3.3889966-4.8557248-5.3291572-7.1021088-.6110645-.7078412-.9253321-1.6175687-1.4087954-2.4154193-.2366428-.3903998-.4369425-.8133568-.8952503-1.0388237.1433492,1.3003362.6745985,2.458148,1.4671701,3.4265205,3.0353227,3.7079697,5.6429309,7.7317137,8.5876476,11.5046822,5.1525199,6.6021873,11.5062767,11.6814316,19.170723,15.0897413,1.1114412.4940882,2.2533543.919352,3.4674383,1.4114059-.7821803-.0536998-1.4566494-.2434938-2.132717-.4082689-2.1885271-.5333396-4.461022-.6522513-6.6235083-1.289265-3.4403596-1.0133944-6.6161093-2.5628931-9.3901377-4.8743603-1.1603559-.9666494-2.0064972-2.164198-2.641962-3.5248406-.4552381-.974561-.9023666-1.9543503-1.3993087-2.9077929-1.2215669-2.3434564-3.1851982-3.9727438-5.3470803-5.3761937ZM82.7436746,11.7511086c-.0320823-.0227771-.0748431-.0309266-.1131561-.0443387-1.6281564-.5731359-3.2012725.1757924-3.765795,1.8116761-.7489049,2.1704959-.6802909,4.3961978-.3552414,6.6196432.7254008,4.9622752,2.3376295,9.6641687,4.372329,14.220077,1.0301142,2.3065775,2.4074045,4.4404589,4.2339314,6.1994072,1.090134,1.0497994,1.9772812,2.1825649,2.5960355,3.5492526.2678493.5912682.5763992,1.164107.8664587,1.7454288,1.0516685,2.1063866,2.0937874,4.2165843,3.4400185,6.1602221,3.0887295,4.4586359,7.3994956,6.6276237,12.7602371,6.7312391,3.3777099.0655334,6.2790858-1.0824595,8.5115505-3.7189551,1.0149588-1.1986337,1.9146997-2.4673528,2.6667401-4.0379309,1.6079419-2.9571061,2.0774398-6.2325031,1.3112686-9.6903832-.4503912-2.0326236-1.1225232-3.9814272-2.0224772-5.8583499-1.1616162-2.4226025-2.7065145-4.525162-4.9801969-6.0172495-2.4612621-1.6154539-4.5496223-3.6402933-6.5457805-5.7845828-1.5531701-1.6685771-3.3641296-3.0454298-5.2438291-4.3301976-3.7950832-2.5946771-8.0407513-4.220087-12.3466007-5.6999686-1.7953513-.6171282-3.7700721-.7104539-5.3854926-1.8549897ZM79.6971355,13.2829325c.598144-1.020099,1.4606659-1.3082371,2.526315-.8335387.8243912.3671306,1.5197982.9143685,2.2698475,1.6189926-1.3842326-.2823662-2.6368909-.3964722-3.7698073.4050127-1.1470262.811335-1.3952017,2.0796747-1.7340111,3.3360892-.0498121-1.5448928-.125672-3.1053671.7076559-4.5265557ZM108.3502441,57.9205243c-2.8542017.3387264-5.4623664-.5125521-7.8820054-1.981046-2.5949321-1.5751384-4.5611347-3.7479742-5.9792266-6.4232261-1.1984143-2.2606098-2.4730312-4.4750861-3.9393735-6.5751184-.0889273-.1276825-.2213697-.2452904-.1958847-.47155,1.2337132.9600407,2.4136762,1.9450064,3.4866785,3.0497839.2200723.2263137.3542142.5399656.5121028.8222304,1.442786,2.5799251,3.0984765,4.9919056,5.319494,6.9842505,3.5196081,3.1565603,7.4163222,3.7551437,11.7276926,1.8321023,2.0282269-.9046192,3.8769336-2.033232,5.2093132-3.8873524-1.4996125,3.7711746-4.1505144,6.162524-8.258791,6.6499259ZM104.5293868,53.6803004c3.8270486,1.3890571,7.3322306.9435938,10.369453-1.9453589.2275277-.2164084.4143769-.488232.8504702-.6815176-.6994207,1.1261065-1.6061314,1.8290769-2.6093035,2.398082-3.8551282,2.1863424-7.6158211,1.7821308-11.2797172-.4909382-1.4426594-.895061-2.6491409-2.0654907-3.7478387-3.3505989-.1051365-.1227739-.1998816-.2547666-.293128-.3871173-.0195355-.0273039-.011462-.0740596-.020592-.1491691.4814367.2290316.812633.6113906,1.182043.9390869,1.675999,1.4867664,3.4140049,2.8925041,5.5486132,3.6675311ZM99.196934,21.0024413c2.379517,1.2889694,4.4021821,3.0400877,6.3490066,4.8827788,1.992241,1.8857704,4.20778,3.5008093,6.2828703,5.284922,1.3306399,1.1436621,2.4617945,2.4592322,3.2648974,4.0490068-.3021578-.3330677-.6170396-.6555892-.9045841-1.000753-2.2405654-2.6901879-5.0475266-4.6755715-8.0218629-6.4509851-2.4646845-1.4711271-5.0406094-2.7257473-7.7237199-3.7357245-2.689099-1.0118744-5.452336-1.7377963-8.3681457-1.6010473-.4645228.0215772-.9313343.0817093-1.3880446.1705154-2.9275751.5698097-4.473783,2.334859-4.6720628,5.3172244-.0963156,1.447899.1677247,2.8291215.7864102,4.1416322.1176132.2495419.2311095.5053457.6036202.8057234-.1181956-.4805644-.1945129-.8018238-.2763808-1.1217063-.3429515-1.3406142-.630022-2.6878685-.5510503-4.0861713.1329022-2.3546642,1.4131836-3.8998235,3.7159218-4.4311181,2.3808878-.5495179,4.730881-.2721525,7.0288037.4219174,5.9914781,1.809783,11.3990304,4.723716,16.0277202,8.9448676,2.7525875,2.5103267,4.8239789,5.5467419,5.7641401,9.2186191.9610409,3.7537211-.8463605,8.5311761-3.9461952,10.6362409-2.9591304,2.0096975-6.387495,2.0370029-9.3294218-.0819717-4.8566303-3.4985108-9.5643404-7.1873848-13.8989554-11.3313601-5.3979561-5.1606044-8.5836011-11.5334693-10.304651-18.7164313-.126542-.5286256-.0701179-1.0522613.0082677-1.570975.1818131-1.2025482.3655138-2.4058143.5975758-3.5992287.3859505-1.9857336,1.608978-2.854687,3.617375-2.6686479.810548.0750278,1.507608.2590924,2.0728535.9317041,1.3644492,1.6243241,3.1756183,2.4845692,5.2389067,2.8436681,2.8219703.491095,5.503023,1.3806478,8.0267053,2.7473002ZM98.802079,19.9550598c-2.1248742-1.0044775-4.4191264-1.4879085-6.6384097-2.1949579-2.0721218-.6603469-3.8778464-1.7402578-5.4502018-3.2302218-.3781764-.3581987-.7667474-.7055141-1.2079208-1.1106242,2.5089839.2558757,11.1859163,4.5153351,13.2965322,6.5358039ZM74.7286862,115.5073851c-2.5682656.3140811-5.058541.0825951-6.6105051-.6849464-2.4734296-1.2671406-3.9198372-2.3913434-4.8401216-4.0699595-1.0959689-1.9991114-1.0839766-4.0360616-.0632512-6.0642038,1.0605364-2.1071303,2.6447044-3.7860607,4.4550662-5.249069,2.8399727-2.2949995,5.8728984-4.3080315,9.3757501-5.4308899,4.0318323-1.2923973,8.0391392-1.1359618,11.8017328.9230466,3.5374532,1.9357963,5.7958029,4.8861927,6.43938,8.9498392.0955056.6028583.1547781,1.2080647-.0070918,1.8113193-.0500468.1865745-.1486438.3756968-.3335451.3977778-.2653098.0315343-.2290877-.241809-.2696996-.3957578-.3823117-1.4502039-.6559996-2.9272034-1.336286-4.2916162-3.4077331-6.8352247-10.5064196-9.0865758-17.0981349-6.5590759-3.7946126,1.4549946-7.1912278,3.6604718-10.0423133,6.6113989-1.1953406,1.2372838-2.2083561,2.6198671-2.6160526,4.3271596-.6666372,2.7919718.4465193,4.9821341,2.5263944,6.7279738,2.1685107,1.8199274,4.6826271,2.7067105,7.5517998,2.4345046.584533-.0554261,1.1740234-.0601894,1.7614896-.0808239.1356587-.0047488.3197358-.0312698.3432475.1601808.0207777.1692534-.1389083.2378726-.2746897.2799042-.2515788.0779963-.5041844.1715809-.7631696.2032375ZM34.0427745,33.8241873c-4.5913662-.4563066-8.6896845-2.0471362-12.2150101-5.0788476-1.5265146-1.3128426-3.1749312-2.4656213-5.1215853-3.1095973-.128361-.0425353-.3780666-.0496706-.3241258-.2727443.0446613-.1844204.2604568-.1709936.4173981-.1635261.5443297.0257251,1.01095.2872972,1.4792736.5272348,1.6152147.82763,3.1173973,1.8500431,4.4900525,3.0153629,3.4585325,2.9362475,7.5499675,4.1596165,11.9406651,4.6747871,2.8058398.3291735,5.6274519.2800528,8.4421693.3932284,3.3494013.1346113,6.5590669.812376,9.5210204,2.4396894,2.6346091,1.4473547,4.9518393,3.2806157,6.5089085,5.8951725,1.8542679,3.1133917,2.4086472,6.4604559,1.2431049,9.9426789-.9181542,2.7432505-2.9983554,4.2575915-5.7647246,4.8697738-1.8663365.4131304-3.7121192.1960378-5.5339835-.3016883-.179891-.0489807-.3946312-.0938076-.487878-.3491588.3559517-.2088258.7154809-.0937769,1.0545578-.0206528.9943813.2145599,1.9940432.362081,3.013449.3595903,4.4102864-.0105841,7.416531-2.79626,7.5661735-7.2057583.1550416-4.573101-1.7946234-8.226408-5.3772727-10.9742728-2.6023291-1.9961665-5.5063755-3.4305804-8.7746702-4.0236763-1.2022054-.2181523-2.4153603-.2713248-3.6337042-.2774037-2.8183915-.0139551-5.6343381-.0608335-8.4438184-.3401919ZM33.7021,40.3342547c5.3219941-1.8241571,10.7246089-2.574674,16.2529245-1.0363878,2.46133.6847939,4.5412385,2.0118103,6.1857586,4.0030887,2.1802376,2.6398969,2.3351437,6.5482048.3215242,9.1991035-.3036446.3997457-.6328112.8000003-1.3334434.7510246.1711114-.2205879.2620042-.3831766.3931496-.5002818,2.2380267-1.9975982,2.2399242-6.2530711.0853734-8.9233806-2.0410692-2.5294616-4.8085341-3.8033735-7.9017317-4.4273618-4.1117297-.8292987-8.1546234-.3259948-12.1414298.8260344-.7980606.2305544-1.6081287.4434165-2.302629.9325586-1.1139671.7846252-1.1200125,1.430187-.0480889,2.2714851.2312489.1816719.5592252.2572727.6889301.5700843-.5840298.176458-1.3024325-.0788545-1.6939185-.5942261-.4049915-.5329833-.4687015-1.2618918-.1395238-1.7607077.402891-.6106153.9439426-1.0749288,1.6331048-1.3110333ZM90.8672299,36.2789801c-.2153188-2.063935,1.0210806-3.3337675,2.4627677-3.992943.8261217-.3777772,1.7131302-.5536616,2.6130646-.4517865,5.8568967.662395,11.217758,2.5777587,15.7261262,6.4822042,2.7838365,2.4105179,3.8294061,5.4692465,2.9282597,9.0884283-.4395914,1.7652678-1.39084,3.2307949-2.8947368,4.2990836-.2433168.1729386-.4934101.350248-.8936845.3707758.1516161-.393362.4146218-.6241592.6663532-.8484022,3.2728412-2.9155473,3.4529965-7.9399936.5775614-11.366638-1.190555-1.4187047-2.6250997-2.5373658-4.2165846-3.4485901-3.0876972-1.7676564-6.4049056-2.9570077-9.8676009-3.7368688-1.397434-.3148184-2.8156803-.3793734-4.215534.0328776-1.7905891.5272519-2.6272295,1.7854602-2.3747919,3.6325883.1853585,1.3561422.7829031,2.5469735,1.5809471,3.6497022.1420097.196269.5375615.4565756.2342183.6890478-.2787869.2137084-.565516-.1221609-.7331235-.3682144-.832227-1.2220737-1.4368241-2.5325062-1.5932421-4.0312647Z"/>
  </g>
</svg>