<?xml version="1.0" encoding="UTF-8"?>
<svg id="Layer_2" xmlns="http://www.w3.org/2000/svg" viewBox="0 0 148.9297395 125.809204">
  <g id="Layer_1-2" data-name="Layer_1">
    <path d="M138.9435464,73.2733779c-1.8697891,1.6562908-2.8106709,3.7411114-3.1122262,6.1842937-.258622,2.0962111-.041765,4.2071714-.2635141,6.3014841-.470879,4.4465903-2.28503,8.1441113-6.0006589,10.7907156-1.5860496,1.1297007-3.3198832,1.9769033-5.0934374,2.7571503-1.9227985.8458152-3.8513653,1.6754209-5.6853036,2.7135598-1.5162465.8582279-2.7286741,1.998735-3.6059592,3.5011085-.3011902.5156377-.6241392,1.0188627-.914158,1.5406338-2.0321762,3.6566321-5.1187009,6.0405986-8.9931392,7.4833911-.3628156.1350793-.7738947.2054665-1.1057515.6336313.5963202.1028063,1.1018817.087619,1.6105099-.0236571,1.9420747-.42466,3.6980321-1.2751482,5.326796-2.3876172,2.0897857-1.4273132,3.7582702-3.2573817,4.9153518-5.5094815,1.2957387-2.5219663,3.2872451-4.2387142,5.8666019-5.3281102.373841-.1580062.7441772-.3238982,1.1158277-.4868695,1.989535-.872393,3.9819906-1.7331765,5.8701797-2.8224994,4.9306121-2.8445502,7.5846641-7.1434295,8.1222065-12.7563744.1658189-1.7315701.0619174-3.4873085.1601237-5.2275675.1375618-2.4390204.9386914-4.6213171,2.7125376-6.3780777.3906346-.3868378.770974-.7842629,1.1578848-1.1749705,2.4137569-2.4375601,3.7766701-5.3484086,4.0506255-8.7836568.2901649-3.6392544-.166038-7.1960009-1.0079103-10.7268998-.7612629-3.1927627-2.1595158-6.0526462-4.2433873-8.5940347-1.0071802-1.2282721-2.1747031-2.2838618-3.3350705-3.351207-1.65264-1.5203354-2.9572866-3.2719848-3.4704418-5.4902054-.6039868-2.6106075-1.8136399-4.9294439-3.3463879-7.0785184-2.9922612-4.1955619-6.554703-7.8946892-10.7198173-10.8930838-3.1006897-2.2321666-6.65656-2.7018043-10.2303192-.8898438-3.1128833,1.5781639-5.4270467,4.0366065-7.284277,6.942855-2.1099381,3.3015562-4.1481016,6.6491854-6.4970935,9.7928084-2.7654741,3.7012448-5.8097226,7.1067756-9.8384433,9.4993579-.4924187.2925014-.937304.6589678-1.3453895,1.0673452-1.1721959,1.1728531-1.3511577,2.4710013-.5130091,3.9034256,1.0083484,1.7233193,2.603306,2.4523092,4.5150791,2.6249186,4.3710919.3947965,8.7440092.2819871,13.1106472-.0357778,2.5698647-.1869935,5.1521421-.3109014,7.6729402-.9423421,6.0665192-1.5198242,12.1287305-3.0532294,18.0546212-5.0721898.3049141-.1039015.5549202-.2173681.8247867.1053618,1.0647897,1.2735419,2.0365572,2.589433,2.4174077,4.2543396.6977392,3.0507469-.0053302,5.8798908-1.3832116,8.5835935-.286149.5614916-.7976248,1.0080564-1.2051991,1.5075576-.0337333-.0254825-.0675396-.0510381-.101346-.0765936.1583713-.3790981.3166696-.7581962.4997203-1.1967292-.8557454.0884222-1.4885005.4677393-2.0273572.9782659-.6756884.6403487-1.3001196,1.3347291-1.9454334,2.0069128-.1926157.2005014-.3659553.4290409-.9118215.3452188.6569963.3498918.7174534.586171.2321173.8916692-.4835107.3041839-.895539.724755-1.3856212,1.015431-5.9723288,3.5416322-12.3358763,4.4615585-19.0292363,2.6273282-2.4796902-.6795582-4.6793647-1.9366715-6.130262-4.2048349-.1927618-.3011902-.4392632-.5730281-.757028-.7530121-.37866-.2144475-.7774724-.4329838-1.1997959-.1162412-.4210822.3159394-.4454695.7535963-.3271109,1.2295134.2945458,1.1837324,1.1127611,1.9219954,2.1219857,2.4863346,1.2957387.7244629,2.6885884,1.2376911,4.0587303,1.7939986,3.0269437,1.2291483,6.1823223,1.8659192,9.449342,1.6890749,4.9890248-.2700855,9.7857989-1.4224211,14.2696273-3.6429782,4.9998311-2.4761124,8.8657266-6.0443954,10.4960238-11.6017023.0125587-.0428603.0486285-.0787841.1020761-.1621681.3377712.9781199.5106726,1.9608398.7019741,2.9362581.9778278,4.9877105-.4502155,8.5498602-4.7115647,11.346658-5.442307,3.5719338-11.4722453,4.5409997-17.8434595,3.7280416-3.5969782-.4589774-7.0070359-1.6310273-10.427973-2.7822677-5.2910182-1.7806367-10.270989-4.2590857-15.2750551-6.6811664-2.1257825-1.0288659-2.2135475-3.2944737-.2800887-4.6376727.5534599-.3845013,1.1567166-.6640058,1.7923923-.8840755,2.4284331-.84012,4.9733994-1.1511674,7.4776959-1.6418337,2.7635757-.5415583,5.5040784-1.2540467,8.3265778-1.4147545,1.6196369-.092146,3.254169.0677587,4.8726376-.0337333,2.275757-.1426729,4.4138062-1.0044056,6.6327569-1.4609005.5706186-.1174825,1.158542-.2256189,1.8481034-.6290313-1.9422207.2294887-3.6846702.4967996-5.4603419.4740917-3.0378961-.0386984-6.0712652.1074793-9.0698788.6423201-4.302311.7673232-8.4953904,2.0250937-12.7814919,2.8735375-1.4774751.2925014-2.8893089.8629009-4.1542349,1.7040432-1.708132,1.1359801-2.1454968,2.8465947-1.2673355,4.6928726.0526444.110692.2140824.2196316.0569523.3926061-.3363839-.1666951-.6706503-.3483585-1.0173294-.5015457-2.682163-1.1855578-5.3606023-.3170347-6.6845981,2.1843412-.6664884,1.2591578-.9059803,2.612798-.7257772,4.0268223.1545015,1.2120626.5205298,2.3764458.8640692,3.5444798.6393995,2.1745571,1.3856942,4.3245078,1.5148592,6.6161093.1856792,3.2932324.3493807,6.5879252.5649234,9.8792592.336822,5.1410437,1.749605,9.887729,4.6181044,14.2698463,3.4352482,5.2479389,9.9057639,7.3827753,15.2993693,6.3865475,4.5799902-.8459613,8.5591332-2.9166898,12.0368766-5.9864208,1.5064623-1.3297641,3.0124866-2.6625948,4.163946-4.3311523.5709837-.8274152.8617327-1.7325193.7624312-2.7675185-.2562125-2.6712837-.6269868-5.3347547-1.5448687-7.8548226-2.7536455-7.5599847-7.9195876-12.9272315-15.2615471-16.1281719-4.080489-1.7789574-7.8972448-3.9508859-11.4074802-6.6724045-.8569136-.6644439-1.7459542-1.297345-2.4759664-2.1192841.4931488.231022.9496437.5207488,1.4305259.761701,3.693067,1.8503668,7.4014674,3.6688988,11.2199026,5.2511516,5.2527579,2.1766745,10.6271602,3.8918891,16.3505781,4.2632476,5.7039957.3700442,11.0864297-.7310344,16.031645-3.6474322,4.6771012-2.7582455,6.8892614-6.7986488,6.1823953-12.2937462-.4290409-3.3355816-1.6476749-6.411957-3.023366-9.4427706-1.0548595-2.3238744-2.8557216-3.4353942-5.3938245-3.3921689-2.1119095.0359238-4.0918794.6679487-6.0529383,1.3593355-4.3962824,1.5497607-8.9326821,2.6045472-13.4220596,3.8242034-3.1579341.8579359-6.416338.9872469-9.6554657,1.2149832-4.0814382.2869522-8.1637525.4053838-12.2447526-.0781269-1.2810625-.1517999-2.2369126-.7807581-3.0061342-1.7484368-.7680534-.9662913-.6732789-2.2424618.2026189-3.1179214.5278313-.5276123,1.1616817-.9148882,1.782024-1.3205641.858666-.5617107,1.7744304-1.0369706,2.5558457-1.7160177,2.5185346-2.1884301,4.7488027-4.6427838,6.7735314-7.2904834,2.1084047-2.7570043,3.9538065-5.68691,5.7521861-8.6503299,1.6362115-2.6961821,3.5383465-5.1677675,6.1447191-7.0177693.3957457-.2808919.7625042-.6176408,1.3648117-.7996692-.1584443.8428946-.7489232,1.2024975-1.2470371,1.6035734-.9292723.7481931-1.9314874,1.4008085-2.7267757,2.3147474-2.4752362,2.8446232-4.2727396,6.0902493-5.7064052,9.5536086-.2240855.5413393-.4719012,1.080342-.5203837,1.684767.7034344-1.0219294,1.1871642-2.1550619,1.7176241-3.2633689.927885-1.9384239,1.8023224-3.9060542,3.1464706-5.6119957.2870982-.3643489.6052281-.692482,1.04785-.8382216.7541804-.2483998,1.3500625-.6870788,1.8228399-1.3224625.1819554-.244603.4058949-.4788377.7493613-.5012536.022854-.0014603.0717015.0727238.0728698.1127364.0105143.3682188-.3291553.4263394-.5422155.590844-.6286662.4851901-.7203741.8328914-.3018474,1.4917862.1562538.2460633.0801714.4483171.0391365.678755-.1746538.9826469-.3443426,1.9660239-.5235234,2.9930644,3.7517718-1.7791034,6.8864138-4.2547777,9.8503449-7.0264582-.2963712-.2379585-.517098-.1398983-.6318789-.0351206-.8028089.7334439-1.8727827,1.0007548-2.7444455,1.5964909-1.4017577.9579675-2.6909249,2.0664937-3.9865176,3.1629722-.6441455.5452821-1.2855895,1.09385-2.0480937,1.7428145.3884441-1.6794368.752209-3.1858992,1.5631226-4.5347204.1790348-.2976125.3205394-.5178282.129092-.8969993-.1904253-.3771267-.0514031-.7458566.3659553-.9792151.2704506-.1511427.5279044-.3685838.62779-.669336.2923553-.8797676,1.0096627-1.1375134,1.8059002-1.3088815.4666441-.1003967.9561421-.1580792,1.3869355-.346022.5367393-.2341617,1.0005357-.1390221,1.5063163.0548349,3.4829275,1.3348752,6.0953604,3.6898543,8.0697082,6.8128139.2005014.3170347.1666221.5371774-.0080317.8367613-.5417044.9292723-.9873199,1.906516-1.3811672,2.908293-.1912284.4864314-.2987077.9604501-.0357778,1.5019354.6070535-.5781392.9512501-1.2885101,1.3474339-1.962081.3904886-.6637868.6473582-1.3721132.6543678-2.1713444.6365519,1.4388497,1.1983356,2.8604677,1.4621417,4.3729903.1694697.9713294.1690316,1.9516398-.0493587,2.9214359-.7124883,3.1630452-2.5007187,5.6008973-5.123739,7.4324261-2.3166459,1.6175924-4.7883773,2.9667787-7.4173118,4.0184985-1.1705166.4683235-2.3686331.8757517-3.5004513,1.5036877.2345268.1356634.41086.0062794.5736853-.0521333,2.6509853-.950958,5.317961-1.8671605,7.8240099-3.1719531,2.3050363-1.200234,4.4669617-2.6047663,6.0844081-4.6916314,2.1837571-2.8176804,2.995985-5.9432685,1.9404684-9.4254659-.4080124-1.3461926-.9142311-2.6625218-1.3702878-3.9943303-.1282888-.3745711-.2372284-.7557137-.3550029-1.1337896.2043713.0721396.2968093.1796189.3729648.2977585,1.6733035,2.5935218,2.5535822,5.4817355,3.0778358,8.4861904.4607298,2.6411282-.4643806,4.8346693-2.3400109,6.6774425-.9773897.960231-2.0802206,1.7610685-3.2333594,2.487941-7.7105433,4.8599328-16.2555845,6.5666045-25.2267459,6.6342172-1.9081224.0144571-3.7054797-.6761995-5.5706688-.9431453-1.0642786-.152311-2.1301635-.3504029-3.2001373-.0581936-.2435808.0664444-.5503932.1182856-.5923043.4372187-.0381873.2896537.1680094.4915425.3797553.650936.3489426.2624919.7584153.3931902,1.1798626.4936599,1.3351672.318349,2.6983726.3843553,4.0590953.3836251,3.0622104-.0014603,6.1120811-.2667998,9.1574978-.5547742,4.9375486-.4667901,9.7977735-1.3123863,14.4444271-3.1300421,3.6481623-1.4270211,6.9440963-3.411299,9.6883958-6.2352588,1.5179258-1.5619544,2.5421917-3.388007,2.3504522-5.6427354-.2462093-2.8949311-.9557771-5.6923131-2.0504302-8.3888603-.0844063-.2080951-.2748315-.4039235-.1575681-.6961328.0856476.0587047.1714411.0995936.2343808.1632634,1.7669098,1.786405,3.4650386,3.6309306,4.9119931,5.6949417,1.1408721,1.6275226,1.9634683,3.3810704,2.2611538,5.3627197.2099935,1.3978878.7788597,2.645217,1.6024051,3.789813,1.0127294,1.4074529,2.25743,2.5986329,3.5181211,3.7686384,2.0975984,1.9466747,3.5373243,4.302457,4.5091648,6.9721344,1.20498,3.309953,1.6640305,6.7560076,1.9360874,10.2436811.3788061,4.8575963-1.0511357,9.0085455-4.7415012,12.2776097ZM96.6288357,106.8602159c-1.9612049-.1804951-3.8403399-.7161391-5.6787322-1.4143164-2.8966835-1.1002023-4.8554789-3.2262769-6.3910745-5.8122781-2.1657952-3.6475052-3.3945784-7.6102196-3.9164224-11.8049783-.0143841-.115219-.0018984-.2339427-.0018984-.5596662.7854311,2.7441535,1.8585446,5.1601008,2.8606137,7.6011657.9662913,2.3537379,2.1748491,4.5687457,3.9997335,6.3958936.9562882.9575294,1.9902652,1.9645636,3.2686991,2.2474269,1.3925577.3078347,2.5567219,1.0943611,3.9102891,1.4166529.6292503.1499745,1.2301705.078419,1.832405-.1112761,2.2516618-.7095677,4.4563014-1.5685258,6.7552774-2.127827.1575681-.0384063.3155744-.0752063.6064694-.1442793-.5294377.8926914-.9823548,1.6495734-1.546475,2.3306649-1.4976274,1.8080177-3.5097243,2.1841952-5.6988846,1.9828175ZM103.069634,105.7454104c1.6931638-2.4930521,3.226788-4.8875328,6.2348937-5.6940655,1.2133038-.3253585,2.3616236-.8404121,3.5004513-1.380437-2.575633,3.1906452-5.5752688,5.7824147-9.735345,7.0745026ZM114.7770632,93.6920322c-.3700442,2.0369223-1.6955003,3.2230642-3.5135211,3.9985652-.078492-.7961645,1.0428119-4.2185619,2.0039921-6.1342049.5911361.3842092,1.0334659.9027676,1.4433767,1.4601703.1657459.2255459.1093777.4375108.0661523.6754693ZM99.8539443,71.9926804c6.5736871,2.7286741,12.8449426,9.9607448,14.5397858,16.4696669.2221141.8531898.3767616,1.7177701.4718282,2.6717218-.9769516-.3726727-1.5293163-.8847327-1.7824621-1.9127224-.9170787-3.7242448-2.6847916-7.0368264-5.2560436-9.8948115-2.0083731-2.2323856-4.3845268-3.822378-7.478061-4.0939969-.5937646-.0522063-1.1824181-.161365-1.7751606-.2294887-.207876-.0238762-.4604377-.0649841-.5822281.1574951-.138438.2529268-.060019.5138853.110838.7359994.3041839.3951616.7330788.6149392,1.1899388.7599486,1.2043229.3823838,2.4123696.7543264,3.6265496,1.1038531,1.5353766.4420378,2.7949725,1.3020911,3.9034986,2.432741,2.2583792,2.303503,3.9834509,4.9221423,4.9780724,8.0171368.4819044,1.4993798.3706283,2.9070518-.2807458,4.3119491-.350987.757028-.7179645,1.5074116-.9743961,2.3067887-.2616887.8158787-.3566093,1.652348-.1539173,2.4731918.1495364.6055932-.0581206.8934215-.5766059,1.0929008-.4005648.1540634-.7917105.332514-1.1876753.498771-.5504662.2310951-1.1684721.3950886-1.5861226.8101105-.8658216.8602724-1.9702588,1.0743547-3.0732358,1.3722593-2.5137156.6789011-4.9723772,1.5295353-7.3501373,2.594252-.840193.3763235-1.5912337.4991361-2.3907569-.119892-.4646727-.3596759-1.0261643-.613771-1.5752432-.8395359-.4574441-.1880887-.5017647-.419987-.373841-.8645073,1.1905959-4.1357619,1.5302655-8.3946285,1.8316748-12.7297237-.3355807.1977268-.3450728.5044663-.4297711.7497264-.8547962,2.4750902-1.1886975,5.059266-1.5779448,7.6316133-.1999903,1.3218784-.3965489,2.6444869-.6136979,3.9635906-.1324507.8039042-.1490983.8018597-.844939.4255362-1.6037194-.8671358-3.0181818-1.9926017-3.9833049-3.5329433-2.4921759-3.9774636-4.5912346-8.1498795-5.7729956-12.7249776-.5065107-1.9606937-.3854505-3.9899494-.5160028-5.9886113-.2580379-3.9499367-.8423835-7.8267845-2.1564492-11.5796515-.6434154-1.8375891-.3774188-3.591137.7917835-5.1594437,1.1072849-1.4852147,2.6874932-1.8827859,4.3836506-1.1575928.821647.3512791,1.5394655.8709327,2.2033983,1.4568116,4.2495206,3.7500194,9.0205931,6.6166204,14.2607193,8.7918346ZM127.47079,60.9523968c2.2241348-2.091173,4.2961777-4.3031872,5.6474084-7.0883756-.8931295,3.1494643-3.0015342,5.3326372-5.6474084,7.0883756ZM130.3249783,44.9276153c2.2012079.8886025,3.4230545,3.3293752,2.8752899,5.779421-.3736219,1.6715511-1.2062943,3.1472008-2.0691953,4.6225584.7825105-3.914524.650863-7.5845911-2.5979028-10.5951793.6842312-.1540634,1.2454308-.0273079,1.7918082.1931999ZM111.3134118,23.5338347c-.1770634.535644-.7733105,1.0600436-1.7917351,1.5550179.4651108-.6377202,1.1464944-1.0266024,1.7917351-1.5550179ZM112.4207697,17.9438897c-.7032153-.0049651-1.3646656.2014506-2.0362651.3681458-.2616157.064838-.6062503.3618664-.7668851-.1328158-.1500475-.4623362.1079174-.7233677.507752-.8787454.1089396-.0423492.2328474-.0457079.4594155-.0868888.5810599.6117265,1.1342277.4903742,1.6615479-.2311681.0888602-.1216444.595371-.1162412.6356027.3173267.0304476.3283521-.0166476.6472852-.4611679.6441455ZM114.1083113,17.2506776c.9729358.0965269,1.9260843.1650157,2.6671948.863339.323168.304622.7603867.3958187,1.1635801.5305329,1.3240688.4423298,1.8763605,1.4976274,2.1992364,2.7767185-1.6749829-1.8773097-3.7936828-3.1012738-6.0300113-4.1705905ZM120.5730588,29.4881286c.2180982-.7506026.6237741-1.3928497,1.1529928-1.9636874-.2230633.747755-.6620344,1.370799-1.1529928,1.9636874ZM147.6993112,72.0293344c-1.1228372,5.4872847-2.5594965,10.8714711-4.860809,15.9982767-4.039089,8.9981773-10.3342207,16.059464-18.713954,21.1536316-9.5033007,5.7773035-19.6542517,10.2095097-30.2755707,13.5035453-6.0994493,1.8918398-12.4090382,2.6796805-18.7768937,2.9767089-7.1579596.3341204-14.2893415.1734856-21.3479266-1.2377641-5.6999798-1.1396309-11.0941694-3.139096-16.3507241-5.599437-8.2975175-3.8834193-15.5742739-9.1047804-21.57559-16.0517973-6.6811664-7.7336894-10.9844266-16.6987175-13.8131324-26.4608593C-.0310369,69.3551301-.4026144,62.3210052.3822326,55.1619504c.6502059-5.9312939,1.8424081-11.7330578,3.5882163-17.439682,1.1558404-3.7784225,3.2090452-6.9635185,5.9103384-9.7736783,1.0594595-1.1021738,2.1406777-2.1936872,3.2997308-3.1877976,2.0489699-1.7574907,3.540756-4.0120731,5.4262435-5.9126749,1.1952689-1.204761,2.3591411-2.4387283,3.6083687-3.5909179,3.332807-3.0737469,7.3310071-4.5967838,11.7746038-5.0332724,2.995985-.2943998,6.0136557-.3874949,9.001536-.7405994,4.7940725-.5665297,9.4437198-1.6904622,13.6889325-4.1242985.9523453-.5460123,1.9238938-1.0582913,2.9822581-1.3856942.8707136-.2694284,1.7382876-.2995109,2.6106806-.0381143,1.4393608.4313044,2.7732868,1.0631833,3.8626098,2.1684237-.7306693-.3284251-1.4941227-.5996789-2.1861666-.9956437-2.257211-1.2915768-4.3932157-1.0924627-6.5281982.3179839-4.5672854,3.0173787-9.7389958,4.1694952-15.0744076,4.8071424-3.2494959.3882981-6.5153474.6121646-9.7576878,1.0854531-4.0919524.5972694-7.4750673,2.4981632-10.4065794,5.3233642-1.4322053,1.380218-2.7320328,2.8789407-3.9356256,4.4587109-1.3220244,1.7351479-2.696036,3.4355402-4.3888348,4.8123265-5.7213734,4.6534441-8.6208315,10.8707409-10.1387574,17.901434-.9546818,4.4219839-1.4821481,8.9017234-1.9962525,13.3870121-1.1404341,9.9498655,1.0725293,19.3337123,4.8804503,28.4193625,4.0385049,9.6358974,10.049532,17.8269579,18.2973258,24.3025847,5.4581514,4.2852983,11.5671658,7.4035118,18.016799,9.9010909,5.3275991,2.0629889,10.8079473,3.4922005,16.4939811,4.0998382,3.3793181.3609902,6.771925.4779615,10.1675986.4541584,5.5030561-.0385524,10.9870551-.3523743,16.4206732-1.2875609,5.3890054-.9274469,10.5614459-2.603306,15.6461945-4.5688918,7.3853309-2.8549185,14.5195604-6.2229921,21.3122219-10.3142144,10.164532-6.1220842,16.9808506-14.8534617,20.6215653-26.1174659,1.7376304-5.3764467,3.097477-10.8343061,3.6972289-16.4628764.572298-5.3704594.1565459-10.6905379-.8786723-15.9736704-.7549836-3.8529717-1.8698621-7.5967117-3.3726736-11.2279343-1.8254685-4.4108855-4.4262189-8.3086159-7.8171464-11.6485054-6.8723948-6.7688584-14.6184968-12.3796128-23.1235253-16.904184-7.3960642-3.9346034-15.3076201-6.4010047-23.5692138-7.7628957-7.2497405-1.1951229-14.5326302-1.5223068-21.8640024-.996958-8.2526858.5912821-16.2076131,2.5624171-24.0576897,5.0478025-.8293137.2626379-1.6332908.3393045-2.4365378-.046219-.3076887-.147711-.6511551-.3474093-.6533455-.7004407-.0023365-.383114.4287489-.4025362.7031423-.4914695,4.228346-1.3699228,8.5051745-2.5588393,12.8981712-3.2735912C59.2711688.6461505,65.4795578.0177034,71.7254768.0003986c14.8803316-.0411809,29.0277303,3.106823,42.1699934,10.2079034,7.7742862,4.2006,14.8020586,9.4748976,21.2123363,15.560839,6.5018395,6.1729032,10.2804081,13.8386879,12.380635,22.4542623,1.9332398,7.9298829,1.8389764,15.8504197.2108697,23.8059311ZM72.8693426,76.8292482c.5314091-2.0760587,1.1327674-4.1508032,1.1823451-6.3224396.023146-1.6703829-.3663934-3.2239404-1.3207831-4.6083203-1.1191865-1.6233607-2.7237821-2.2253761-4.6240917-1.7370463-1.417091.3640569-2.7548138.9413199-4.0535461,1.6048147-3.4002006,1.7371193-6.7329346,3.6023814-10.2953763,5.017574-5.963932,2.3695093-11.7285308,5.1067263-16.802692,9.1420185-2.4131728,1.9190017-4.9727423,3.6563401-6.9465058,6.0696589-1.587729,1.9413446-2.6794615,4.0888858-2.4590997,6.6825537.1686665,1.9864683.9068565,3.7997431,1.9415636,5.4892561,2.9834993,4.8716884,7.4463721,7.7612163,12.7667427,9.4938817,1.2222848.3980822,2.5560647.7596566,3.7274575.3161585,1.4755767-.558717,2.7678836-.2351109,4.1325492.1356634.2059776.0559301.4217394.0779809.6339233.1087936,2.4099601.3498918,4.5408537-.4757711,6.527322-1.6831606,5.8694495-3.5675528,9.7011006-8.7805171,11.8468164-15.2249662,1.5767036-4.7352218,2.506706-9.6528371,3.7433749-14.4844398ZM59.6284352,103.869488c-2.035608,1.7196685-4.4121268,2.7529884-7.0412074,3.1485881-1.4469545.2177332-2.8703248.0595809-4.1399238-.7633074-.5363742-.3475553-1.0455865-.4483171-1.6762971-.2149586-2.9051533,1.075377-5.6372592.6143551-8.3388445-.8230343-4.339038-2.3086141-7.6529339-5.4963387-9.3831897-10.1889192-1.2027896-3.2617626-.6246503-6.2076588,1.5357417-8.8579869,2.0765699-2.5477409,4.6961583-4.4854347,7.3929245-6.3095889,5.1198691-3.4631402,10.4979952-6.4356142,16.327432-8.5603745,3.6627655-1.3350212,7.113347-3.1484421,10.5868555-4.9027931.7682724-.3880791,1.564875-.7045296,2.377249-.9900945.392387-.1379269.6679487-.1120793.9293453.2402951.2982696.4021711.6419551.7713391.9730088,1.1485388,1.2809895,1.4596592,1.7203987,3.004893,1.191034,5.0071327-1.1294087,4.2723745-1.6094147,8.6816537-2.391341,13.0280663-1.0049167,5.58571-3.2473785,10.6350459-7.2984421,14.7332047-2.2062459,2.2318745-4.833063,3.6448766-8.0568574,3.7027051-.4043616.0073016-.8136883-.0208825-1.213961-.0791491-1.0483611-.152457-1.5996305-.7276756-1.7815859-1.7658145-.1390221-.7929518-.0194222-1.5746591.0630857-2.3568046.2102856-1.9955953.5159298-3.9770986.9174437-5.9439256.0558571-.2734442.1149999-.5592281-.013654-.946285-.56799.6435614-.8239105,1.3406434-1.0923166,2.0202016-.868012,2.197119-1.7529637,4.3893459-2.1656491,6.7354171-.1120793.6374281-.3345585,1.2497387-.7697327,1.7515034-.1654538.1908633-.3490156.4835107-.6386694.3444886-.309295-.1486602-.152384-.4693457-.0811936-.7024122.3617204-1.1849007.923139-2.3012395,1.1579579-3.5327973.2229903-1.1692753.5393678-2.3211728.6520313-3.5892385-.3155013.1633364-.355587.4308663-.4502155.6427582-.4295521.9618374-.7088376,1.9761731-.9984913,2.9850327-.3301045,1.1498531-.7942661,2.2464046-1.227688,3.3579974-.2752696.706063-.7144598.9335802-1.3805101.9814786-1.6991511.1226666-3.1704928-.5563805-4.6278155-1.2931101-.3514251-.1777205-.3023585-.4911044-.2752696-.8423105-.2053935.3751553-.4783996.3777838-.7877677.2292697-.6235551-.2995109-1.2870498-.5379805-1.8608081-.9134279-.6567043-.4299171-.5741234-1.2625165-.8023708-1.9174684-.1377808-.3952346.3410569-.5254948.5737583-.724536,2.1653571-1.8522653,4.5830568-3.3645689,6.8631948-5.0626977.304622-.2268601.6051551-.4590504.932558-.7077423-.2919172-.1704189-.4362695.0503809-.5949329.1436221-2.5945441,1.5247893-5.1960976,3.0384072-7.764502,4.6062029-.5505393.3360918-.7613359.2440919-1.0796119-.2681141-.7806851-1.2566022-1.7408431-2.3984966-2.4203283-3.7222003-.8547962-1.6650527-.6016503-3.7165781.6269868-5.1460088.664882-.7736756,1.1391198-.7308153,1.6232146.1305523.1463237.2603744.2409522.567917.5311901.7393582.1095967-.1998443.0299365-.3853775.0105143-.567844-.0197873-.1859713-.0573174-.3699711-.1066761-.6763455.3658092.2986347.743301.0544698,1.05245.2707427.0521333.0365079.1783046.0664444.1879427.0503809.6336313-1.0635484,1.5713004-.4731425,2.3577538-.3742061,2.0400619.2567966,3.9982732.9217517,6.0092748,1.3333418.6545138.134057,1.3144307.2456252,1.975516.3411299.3453648.0499428.6999296.0481174,1.1183833-.2120379-3.8713717-1.0225135-7.6354831-2.0166969-11.5179532-3.042131.9437294-1.1451801,1.9000906-2.1029286,2.8714931-3.0443215,2.2596205-2.1899634,4.7515773-4.0773493,7.4990165-5.6121418,4.3184475-2.4124426,8.6729648-4.750117,13.4958056-6.0395764,1.2660943-.3385013,2.5565028-.4559108,3.8767018-.4073552-1.5886782.3953807-3.1785246.7863804-4.7659615,1.1871642-3.0686358.7746248-5.9127479,2.0228302-8.4066762,4.0052827-1.1499991.9142311-2.1738269,1.9462366-2.931439,3.2148134-2.2299031,3.7336638-.8256629,7.5899942,3.3110483,8.9104853,3.1136135.9938913,6.2798714.9263517,9.389031-.0258476,2.8816423-.8825422,4.8713233-2.8506105,6.1536271-5.5407323.7745518-1.624894,1.2944244-3.3382832,1.5407798-5.1249072.0726507-.526152.175311-1.0721643-.1285809-1.6514718-.5243266.7095677-.7954343,1.472583-1.1128341,2.2098967-1.0301072,2.3931664-2.3365062,4.6179584-4.2596698,6.397938-2.9853977,2.7630646-6.5201665,3.9355526-10.5566999,3.2084611-2.5326266-.4562028-4.293184-2.6780742-4.0910763-4.9583581.1241999-1.4008815.7415486-2.6025758,1.6337289-3.6750321,1.7689542-2.1263666,4.0417906-3.549737,6.5209697-4.685425,3.0211755-1.3839418,6.1952461-2.3700204,9.2903866-3.5614195.1762602-.0677587.3558791-.1264634.5854408-.207657-.1747269-.1835618-.3662473-.1236888-.5317012-.1286539-4.1274381-.124565-8.0061844.9150342-11.7075022,2.6333885-5.3586309,2.4877949-10.5364015,5.3067166-15.3585852,8.7433521-2.561979,1.8257605-4.8298503,3.9848382-6.9890741,6.2561413-.9790691,1.0298881-1.800132,2.1816396-1.7008305,3.7360003.0598.9348215.3874219,1.7738463.8847327,2.5421917.4667171.7210312.9777548,1.4154116,1.500402,2.0977444.8366883,1.0923166,1.5431163,2.2345761,1.7691733,3.6287401.1531872.9449707.7652058,1.5707163,1.5822528,2.0092493,1.2620054.6775868,2.5361314,1.3329768,3.7915654,2.0225381,2.0612365,1.1318912,4.2759523,1.2764625,6.5464522,1.0346341.9492056-.1010539,1.7853828-.5106726,2.5129124-1.1298468.2258379-.1921776.3976441-.3558791.7263614-.0975491,1.7728241,1.3937259,3.7784225,1.4644052,5.8542622.9195612,1.4239545-.373695,2.7123916-1.047923,3.8847336-1.9420747,4.9538312-3.7785686,8.1358605-8.7134156,9.7144625-14.7293348.8213549-3.1305532,1.140361-6.342592,1.6955733-9.5159325.281403-1.6081734.7174534-3.1613659,1.3789767-4.6549774.3675616-.8297518.6768566-1.6837448.8563295-2.5778965.3376251-1.6819194-.1035364-3.0693659-1.5388814-4.0867683-.6826979-.4838758-1.2836911-1.0550055-1.8167796-1.7229542,1.4070148-.4645266,3.0027025.2695014,3.6899274,1.717332.7559328,1.5921829.8272692,3.2849816.5127171,4.9822343-.5568186,3.0048199-1.5063893,5.918005-2.1028555,8.9178599-.6840852,3.4402863-1.4035831,6.8775059-2.5413155,10.2082684-1.7185733,5.0310819-4.4293585,9.4091103-8.5174411,12.8626125ZM17.1226421,93.7174417c1.1214499.5322123,2.2598396,1.029377,3.3724546,1.5791131,3.2423404,1.6020401,5.6971322,3.9902414,7.1603692,7.3272833.5266631,1.2012562,1.0003897,2.4273378,1.4590751,3.6566321.79412,2.1282651,2.0735762,3.8616606,4.0171112,5.0721168,1.0750119.669555,2.1782809,1.2872689,3.3292292,1.8204304,1.9868334.9204374,4.0534001,1.28318,6.2095572.8187994,2.8200169-.6071995,5.2537801.0131428,7.265658,2.1282651.1969967.2070729.4332759.3761775.6410789.5737583,1.8646779,1.7737002,4.0904921,2.3300808,6.6072743,2.0559794,1.9945731-.2172951,3.9614732-.664736,5.9743732-.7177455,1.6909003-.0445396,3.291407.2035681,4.5769235,1.4535989.2350379.2285395.5128631.5242536.8527517.1723173.3038188-.3145521.1103269-.632463-.1182126-.8890406-.2371554-.2662157-.4965076-.5207488-.7798089-.7362915-1.5136179-1.1517515-3.1985309-1.7601193-5.1304564-1.6827225-1.8032716.0721396-3.5541179.457079-5.3024817.8296057-2.4611442.5243996-4.6419806.1257332-6.5195823-1.6279607-.4348822-.40626-.9347485-.743301-1.4071608-1.1091103-1.6626432-1.2875609-3.5441878-1.6656368-5.6073227-1.421764-1.2297324.1453015-2.4764045.5809138-3.6995654.2996569-4.6083203-1.0596055-8.7091077-2.839147-10.3139223-7.865848-.1739237-.544844-.4019521-1.0721643-.6004821-1.6092686-.5476916-1.4820751-1.1892816-2.9140613-2.0854778-4.2277619-1.7802717-2.6095853-4.2978571-4.3083713-7.0264582-5.7539385-.927812-.4916885-1.8827859-.9335802-2.7297694-1.5685258-.9835231-.7373137-1.578821-1.69864-1.7900558-2.9137692-.1905713-1.0967706-.1674983-2.1963158-.0310317-3.2872451.4037045-3.226788-.7760121-5.8124242-3.185169-7.8762893-.9957897-.8531168-2.0870841-1.5953956-3.1411405-2.3797315-1.6598686-1.2352816-2.737509-2.8523629-3.1652357-4.8779677-.4627743-2.1922999-.5372504-4.4158506-.3129458-6.6353854.1964856-1.9439001,1.1242976-3.5700354,2.5682584-5.110085.0961618,1.3191768.0933142,2.4869918.3130918,3.637429.544698,2.8506835,1.9923826,5.3031388,3.4011498,7.7699052,1.7144844,3.0021184,4.3056697,4.9476978,7.5439943,6.0437383,3.3585816,1.1367833,6.7548393.8473486,10.1132018.0313238,4.2098-1.0228056,8.2354541-2.6054964,12.2018193-4.3244348,4.8616852-2.1069444,9.7562275-4.1477365,14.4325986-6.6559029,1.3978148-.7497264,2.6580678-1.6833067,3.6550258-2.9512993,2.008227-2.5543123,1.938716-6.8753884-2.3764458-8.3543968-.3378442-.1158761-.6817487-.2205078-1.0298881-.2986347-2.2874395-.5134472-4.6128473-.7855772-6.9353344-1.0735516-4.1248096-.5114758-8.2462604-1.0554436-12.3776414-1.5084338-3.4918354-.3828219-6.974763-.7736756-10.4120556-1.5396845-2.981966-.664517-5.9748844-1.3053038-9.0519169-1.3856212-1.9671191-.0512571-3.7156289.4578092-5.216104,1.7872812-2.2668491,2.0085191-3.4137085,4.6172282-4.0716541,7.4857276-.1221555.5327234-.3533966.8789644-.7960184,1.1834404-1.7563225,1.2078277-3.0289152,2.7646709-3.3820927,4.9405423-.3473362,2.1400936-.3551489,4.2815745-.0258476,6.4251729.4684695,3.0503818,2.0299858,5.359215,4.675933,6.9456296.4910314.2944728.9651961.6205614,1.4276053.9588437,2.234284,1.63424,3.4592704,3.7819273,3.3162324,6.6098299-.0434444.8591041-.0911968,1.7185003-.1608538,2.575779-.2383966,2.9341406,1.052523,4.9593073,3.6673655,6.2002112ZM13.45681,50.7186458c1.2760244-1.2663863,2.9365502-1.5184369,4.6604536-1.3867894,3.3879339.2588411,6.7205949.8791835,10.0338336,1.6053988,3.4381688.7538153,6.9389852,1.0355103,10.4237381,1.4503862,3.9833049.4743108,7.9574828,1.0252881,11.9383052,1.5215036,2.1797412.2716188,4.3675872.4859203,6.4629221,1.2035927.2480347.0849904.489498.1885999.7352693.2802347,2.6328774.9813326,2.7339313,3.4219593,2.0478016,5.1163644-.4895711,1.2089959-1.3752529,2.1131508-2.3777601,2.9089502-1.8505859,1.4689322-3.9413208,2.5237917-6.1133223,3.4039974-4.7785932,1.9367446-9.4338627,4.1547461-14.1798178,6.1634112-3.5050513,1.4833893-7.1193343,2.6279123-10.9367472,3.000366-1.9105319.1863364-3.8144923.1842919-5.7088147-.1828316-1.2814276-.2483268-1.283326-.2385427-1.1803737-1.6028432.8560374.3349966,1.6333638.720228,2.4853854.844647.4056029.0592158.973812.2394919,1.1732912-.2181713.1911554-.438752-.2685522-.7782026-.6080757-1.0356564-1.2222848-.9268628-2.6462393-1.4198656-4.1096223-1.781878-.7705359-.1907173-1.5715925.6090249-1.4867481,1.4017577.0375301.350768.1228126.6962788.2040062,1.140215-.7949962-.5704726-1.47711-1.1455452-1.989681-1.8531414-2.340303-3.2306579-4.4516284-6.6453156-5.1690818-10.6011666-.7884248-4.3467046.5238155-8.2310731,3.6950385-11.3783469ZM27.8415832,39.3671687c-.000219,0-.0004381-.000073-.0006571-.000146-.0083238-.0087619-.0166476-.0176698-.0249714-.0264317l.0256286.0265778ZM39.7005932,14.6540161c-.3044029-.0511111-.6016503-.1444983-.9022565-.2189014-2.3906839-.5917932-4.772971-.5618567-7.1451089.1030983-.563098.1578602-.9962278.4910314-1.1738023,1.0576341-.1988951.6353106-.6404217.9486215-1.2363768,1.1721229-1.6559257.6210725-3.0366548,1.5932782-4.1746794,2.9947438-2.8585693,3.5202386-3.7746257,7.4338864-2.6367472,11.8184863.521479,2.0092493,1.1168499,3.9996605,1.6228496,6.0127065.5314821,2.1141,1.73544,3.6551718,3.6132607,4.7615075,4.634606,2.7307916,9.6394022,4.4763077,14.8382744,5.737948,5.0093962,1.2155673,10.0980876,2.0892016,15.0546203,3.5372513,1.3999323.4090346,2.847982.563098,4.3261142.3519362,2.5653377-.3663204,4.5765584-2.2732014,4.7585138-4.6090505.0636698-.8175581-.0820698-1.6197829-.3013363-2.4061633-.8016407-2.8762391-2.3163538-5.3885673-4.0503334-7.7730449-3.9317557-5.4068213-8.0516002-10.6704586-11.4026612-16.493616-1.8872398-3.2795785-4.8570122-5.6013354-8.4738507-6.7379727-7.173658-2.2545094-13.7336912-1.0579262-19.2174711,4.2874158-3.4374387,3.3507689-6.5077538,7.0654486-10.0528908,10.3221731-2.4456648,2.2466967-3.4315244,5.1805453-3.52681,8.4303333-.0824349,2.811255-.5495901,5.5559196-1.2352086,8.2727651-.4483171,1.7769129-1.0298151,3.5149084-1.6393511,5.4357356.4653298-.3674886.6147932-.6973741.7549836-1.0194468,1.7239765-3.9583335,3.1328167-8.0309368,3.5171719-12.3458795.3425902-3.845232,1.6131385-7.1443057,4.588606-9.6917545.1267555-.1084285.2328474-.2406601.35566-.3541267,2.1138809-1.9533922,4.0124382-4.094581,5.6766147-6.4456173,1.7301828-2.4441315,3.9231399-4.3317364,6.6177156-5.6832592,3.3874958-1.6990781,6.9205122-2.2401253,10.6458522-1.6628622.4073552.0630857.7885708.1950252,1.1082341.4635774.1555237.1306253.2427776.3203204.1819554.5112568-.0756444.2372284-.3126537.2010125-.4915425.171003ZM40.4062181,15.7289549c.3350696.0900285.6590408.1783776.6333392.6329011-.0063524.1116412-.0180349.2578919.1286539.299949.1766983.050673.2759998-.078492.3133839-.2159808.15713-.5781392.4897901-.4235648.8719549-.24913,2.0935095.9557771,3.7305242,2.4871378,5.2184405,4.1853397,2.3232173,2.6516424,4.3580221,5.520799,5.9579447,8.6610633,1.3548815,2.6591631,3.0367279,5.0770088,4.8822757,7.4030737,1.3964275,1.7599003,2.7275059,3.568429,3.8311399,5.5352561.2618347.4666441.1842189.6916058-.2512474,1.0122913-2.6885884,1.9800429-5.7275068,2.1838301-8.895298,1.8821287-2.8333788-.2697934-5.2431198-1.3926307-7.1793533-3.4770862-1.0715801-1.1535039-1.7418653-2.50196-1.7440558-4.1236413-.0037968-2.9144994,2.2220174-4.6446822,5.0380914-3.9023304.7659359.2018887,1.4896687.5140314,2.1678396.9247453,2.2999252,1.3931418,4.4630188,2.9553882,6.2089731,5.0327613.1680824.1999173.3532505.3853775.5359361.5835424.0389904-.0522793.087765-.0958698.0802444-.1105459-1.4065037-2.7408678-3.2898007-5.0367041-6.1047065-6.4356872-1.4602433-.7257042-3.0010961-.9070755-4.6039394-.5710567-4.0739906.854139-4.606714,5.4121514-3.3038927,7.7313529,1.3394022,2.3841125,3.3131657,3.988489,5.8637543,4.8899423,3.9018923,1.3791228,7.7378513,1.209434,11.480423-.5944948.8785993-.4234917,1.6015289-1.0233897,2.1230079-1.8667954.231022-.3736219.2240125-.664517-.0094921-1.0420087-1.0356564-1.6740336-2.2467697-3.2165658-3.5652894-4.6662949-2.4115664-2.6514964-4.4373903-5.5461355-6.0278938-8.7683235-2.0778111-4.2095079-5.008374-7.7802735-8.4855332-10.9180552-.8810819-.7951423-1.8683287-1.4204497-2.9394708-1.8933732-.6862757-.3029426-.8857549-.7858692-.8718089-1.5431893,1.2853705.5376885,2.4631156,1.1740213,3.5725179,1.9411985,1.8531414,1.2813546,3.4548164,2.8429439,4.5982441,4.7701234,3.323388,5.6016275,7.155112,10.843433,11.0656932,16.0371942,1.4832433,1.9700398,2.677563,4.1251746,3.6583845,6.3928999.3421521.7911264.6304916,1.5989734.7684185,2.4532585.475406,2.945166-.9025485,4.787063-3.8664796,5.2425357-1.3254561.2037141-2.6354329.1669872-3.9033526-.2178792-4.0765461-1.2376181-8.2831334-1.8842462-12.4330604-2.7852614-6.0251192-1.3082244-11.8823021-3.0593628-17.2383774-6.2130619-.1230317-.0724317-.249495-.1396793-.3682188-.2186094-.0338063-.0224889-.0458539-.0777618-.0689269-.119965.0394285-.0215397.0756444-.0568793.1144888-.059946.3499648-.0274539.8018597.3066664,1.0169643-.2003554.212476-.5008885-.0394285-.9264247-.3780029-1.296907-.1496094-.1637015-.3042569-.3227299-.457006-.4835107-.7717772-.2720569-1.4065767-.1400443-1.8251034.6863487-.5655805-.6483805-.8082851-1.3969386-1.0609198-2.1343984-.7370217-2.1503158-1.0284278-4.4187712-1.7094463-6.5807696-.4697838-1.4912751-.6273519-2.9840834-.4324727-4.523914.2086062-1.6482591.669336-3.222188,1.4259259-4.7033869.2114538-.4139997.4493393-.7406725.7815613-.0585587.1927618.3955997.5549202.6518852.9202914.8852438,1.1475166.7330058,2.2814522,1.4890846,3.4491212,2.1887221,2.7484614,1.6469448,5.4520911,3.3575594,7.9841336,5.3284023.4650377.3620124.9503739.7027042,1.5222338.9063453-.5921583-.7069391-1.3274276-1.2528784-2.049408-1.8086748-1.8955636-1.4594402-3.9402256-2.7020233-5.9193923-4.0400382-1.2482784-.8439898-2.4626775-1.7334685-3.6018703-2.7216646-.7314725-.6345075-1.0651547-2.1606841-.3681458-2.7702201.7729454-.6759804,1.4084751-1.6384749,2.5351092-1.8452557.9703802-.1781586,1.7749415.2483998,2.5316044.7771804,1.5412179,1.0769103,2.7720455,2.4861886,4.0595334,3.8332574,1.2219927,1.2784339,2.3925823,2.6092202,3.7893749,3.7084004.2505903.1972157.5197996.3707743.7804661.5552123.0390635-.0474603.0781269-.0949936.1171904-.1425269-.4132695-.44306-.798647-.9164945-1.2443356-1.3240688-2.5286838-2.3124109-4.75479-4.9035963-6.9654169-7.5098229-.2346728-.2765839-.6550249-.56339.0522063-.8052915.1223015-.0418381.2144475-.2588411.2634411-.4130505.263076-.8287295.8773581-1.0955293,1.6827955-1.163215,1.0501135-.0882761,2.0904429-.1675713,3.1457405-.0239492.711101.096746,1.0960404.4408695,1.2959577,1.1221071.5344028,1.8202113.7451994,3.6955496,1.0209072,5.5611767.1517269,1.0276976.276803,2.0628429.6586027,3.0452707.1586634-1.6963035-.1053618-3.3546387-.4392632-5.0020216-.2701585-1.3332688-.5969773-2.6550012-.8871422-3.9844732-.0550539-.2523427-.0964539-.5209679-.0689269-.7739677.023219-.2140824.1209142-.4217394.3747172-.0979142.1720253.2194855.4956314.1240539.7462217.1914475ZM77.6740025,5.8663434c-4.7561773-.6488186-10.815614,1.052304-12.9755679,8.0107114-.8383676,2.7008551-1.0695357,5.4732657-1.0329548,8.1905493-.0294254,2.986639.2864411,5.8644114.4764282,8.7483902.2594252,3.9368669.7189137,7.8464258,1.851243,11.6469721.5070949,1.7022178,1.135396,3.3497467,2.2391031,4.7678599,1.4793005,1.9009668,3.448099,2.4222267,5.6734751,1.5084338,1.45871-.5989488,2.6991027-1.5284401,3.7984289-2.6412012.9770977-.9890723,1.7926113-2.100154,2.4839981-3.3155022,1.0026532-1.7626018,2.4561061-3.1641405,3.8596891-4.5993394,1.186434-1.2131578,2.4215696-2.3924363,3.2971753-3.8615875,2.755909-4.6238727,4.0820953-9.6621101,4.0633302-15.020741-.0119746-3.4190387-1.3377958-6.3723094-3.7915654-8.7740917-2.7661312-2.7074265-6.1632652-4.1448159-9.9427829-4.6604536ZM70.1134336,8.5396715c-.249422-.3896854.1679364-.4888409.3757394-.6173487,1.1580309-.7162852,2.4658172-.9938183,3.7811241-1.2411229,2.0598492-.3872759,4.0781525-.2382506,6.0734557.4101298.6039868.1961935.8912311.4870155.68759,1.1275103-.1217904.0193492-.1562538-.0838222-.20313-.1580062-.6935042-1.0961865-1.5123036-1.1427706-2.2918935-.0836031-.2572347.3495997-.4680314.4962885-.9257676.3947235-3.7641114-.8351549-6.6377219.7037264-9.0270916,3.462045-.4354663.5027869-.8052915,1.0625262-1.2054181,1.5959067.2369363-.9456279.8639232-1.6338019,1.4307449-2.3581188.3527394-.4507997.7224185-.8891866,1.0994722-1.320126.3216347-.3677077.5187044-.7221264.2051744-1.2119896ZM75.4534454,44.4427903c-.3466061.323022-.6304916.7173074-.9183199,1.0975738-.1226666.1621681-.3074696.3747902-.1642856.581571.1636284.2363522.4446663.1258793.6619614.0621365.2919172-.0857206.5675519-.2270062.8662597-.3022855-1.2412689,1.0971357-2.6973503,1.6096337-4.3594094,1.6191988-1.7778621.0102222-2.9072708-.6531995-3.5889465-2.4585886-1.3776624-3.6486734-2.2865633-7.3816801-2.7336392-11.2410042-.4978218-4.2970539-1.015577-8.5949839-.9286152-12.9320505.0543238-2.709836.3429553-5.3897356,1.4165069-7.9220702.6548789-1.5447226,1.5958337-2.8644105,3.0595818-3.8749494.1905713.4468568.0240952.7554216-.1388761,1.0390881-.2732252.47526-.5649964.9432913-.8877263,1.3860593-1.4112497,1.9355763-2.0683191,4.1198445-2.187992,6.4889887-.1128825,2.2333348.1223015,4.4419173.5149075,6.6331219.3123617,1.7438368.2827172,3.5192164.6031107,5.2381548.4963615-1.6224115.7056249-3.305134.5519996-5.0449549-.184803-2.0917571-.4865774-4.1800095-.2297078-6.2922841.3444156-2.8319185,1.1259039-5.4693958,3.1831976-7.5804292.5289266-.5427266,1.181907-.8820311,1.8409478-1.2217737.2966633-.1528951.4229076-.1004698.4358314.2561395.0303746.8342057.1772824,1.6630813.1194539,2.5962234-.4976758-.5525837-.683282-1.2423641-1.250761-1.6732305.4410155,1.9783636,1.5496877,3.7587083,1.7992558,5.7821956.2486919,2.0153096-.0710444,4.062381.1398253,6.0836779.0593619-.0002921.1186507-.0005841.1779395-.0008762.0375301-.5165869.0863047-1.0325167.1102539-1.5496877.0687079-1.4801036.0839682-2.9642231.2002094-4.4403839.1702729-2.1623634-.429479-4.2174666-.775282-6.3092238-.1880887-1.1375864-.1853141-1.1231293.8897708-1.5071925,1.0957484-.3913648,2.1930301-.3998346,3.3156483-.1378539.424806.0991555.5661646.2698665.5204567.7310344-.2280284,2.3005824-.9303675,4.4813458-1.6028432,6.6726235-.1371237.4465647-.3511331.8820311-.2821331,1.3881767.9867358-2.3592141,2.2770713-4.5814505,3.0923659-7.0184264-.5108187.2837395-.7022661.8209168-1.1875293,1.3674402.1674983-.9166406.3126537-1.6497194.4310124-2.3870331.0506-.3149172.1948062-.2942537.4420378-.226057.6898534.1901332,1.3878116.350768,2.0826302.5230123.9947675.2467204,1.8560621.7159201,2.6009695,1.4348338.6849614.6609392,1.3379418,1.3737926,2.2192428,1.7964812.1628253.0781269.2405141.2229903.3234601.369168,1.7139003,3.0219787,2.5194838,6.2723508,2.4480743,9.7423545-.0048921.2386157-.0242413.4781806-.0552.7148979-.120184.9213136-.1312824.9321199-.9855675.6424662-.8426025-.2856379-1.6078083-.1026602-2.3106586.3821648-.9949135.6862027-1.7659606,1.6059099-2.5181695,2.53416-.336749.415606-.1784507.7236598.396914.8301168.6350186.1174094,1.2344784-.0583396,1.8076526-.3123617.3112664-.1379999.6039868-.239857.9593548-.1695427.3666854.0725777.7084725-.0596539,1.0022151-.2924283.3347045-.2652665.6658312-.5351329,1.0457325-.8410692-.697155,2.977439-1.8992874,5.6228021-3.9631525,7.8455496-1.153869,1.2426562-2.4616553,2.3987887-3.2643182,3.8922542-1.2585736,2.3418363-3.0137279,4.2234539-4.9256471,6.0048939ZM87.7819472,26.1768613c-.0627206.184803-.2388347.1778665-.3482124.1299682-.7701708-.3379172-1.3878847-.009273-1.9815763.4285298-.8572057.6319519-1.8036367,1.0037484-2.8997502,1.0589484.997177-1.9449953,3.8156606-2.718671,5.2295389-1.6174464ZM89.3487206,26.8093243c-.9905326,3.932924-2.7903725,7.3868642-5.6433195,10.2948652-1.1857039,1.2084848-2.275757,2.5107949-3.4716101,3.8397558.0010952-.4547425-.170638-.6675836-.678682-.4302822.8227422-1.6795098,1.7421574-3.0792231,2.9790454-4.2750761,1.865116-1.8030526,3.485191-3.7833876,4.5690378-6.1840017,2.5180235-5.5768021,2.1353476-11.0415249-.5098695-16.4447685-.3670505-.7499455-.7658629-1.4844116-1.1560594-2.2228935-.5928884-1.1222531-1.4852147-1.8151732-2.7569312-2.0698524-1.3096117-.2622728-1.3011419-.304768-1.1269261-1.7525257,4.196073,1.8796462,7.4802515,4.5525362,8.5218221,9.2687739.747974,3.3867657.1026602,6.6838679-.7265074,9.9760051ZM99.1979702,34.2166329c-1.7850907.9116755-3.3498927,2.0920492-3.9910446,4.0969175-.8873612,2.7751852.0635238,5.5369355,3.4907402,5.9529796,1.0688055.1296761,2.132792.2553363,3.2100674.2143744.4300632,0,.8608565.0170127,1.2898974-.0026286,3.7148988-.170711,6.4823443-1.9116271,8.3401587-5.1035866.4857012-.8344978.7672502-1.7525987.5871932-2.746636-.2697204-1.4889386-1.3166942-2.2972237-2.6061536-2.806582-3.4883307-1.3781005-6.9476741-1.3274276-10.3208588.3951616ZM111.1786976,38.786766c-.2050284.4353933-.4467838.8583009-.7903232,1.1890626-2.4940743,2.4016363-5.2962753,4.1527746-9.3677834,4.154381-.5845646.0339524-1.5923289-.166111-2.6014075-.3667585-.5048314-.1004698-.8252248-.3649331-1.0676373-.8379295-.5841265-1.1399229-.6130408-2.3338776-.2259109-3.4809561.189403-.5611266.4516758-1.168107,1.1419674-1.5405607.6848884-.3696791,1.4537449-.8399009,1.6806781-1.735659.0246793-.0974761.060019-.1864824.1733396-.1942221.8225962-.0567333,1.3274276-.7184756,2.0057445-1.0491643,2.2731284-1.1081611,4.639279-1.7020717,7.1191882-.8785993,2.1440365.7117582,2.8950772,2.6967662,1.9321446,4.7404059ZM115.3287707,59.8069246c.4724854-1.4578338.0997396-2.5215282-1.2257895-3.2909689-1.8894303-1.0970627-3.9890732-1.3394022-6.0998874-1.1762848-3.1674262.244603-6.2938905.803174-9.3750849,1.6047416-.9796532.2549712-1.8194081.6948185-2.5170013,1.4222751-.1054348.1098888-.1999903.3305426-.3871299.2328474-.1914475-.1000317-.1739237-.3244823-.1303332-.517098.1236158-.5460123.4992091-.9178088.9098501-1.251053.8628279-.7002947,1.8483224-1.1888435,2.8917915-1.5441385,4.2598158-1.4504592,8.5578919-1.5974401,12.8857585-.313676.7566629.2244506,1.486164.5248377,2.1501698.9589167,1.6684114,1.0906373,2.1424301,2.6369663,1.3599926,4.4702474-.5992408,1.4040942-1.5905766,2.5044425-2.8349121,3.34668-3.10675,2.1029286-6.4681792,2.5408774-10.0385067,1.403145-.0903206-.0288412-.1762602-.0728698-.2616887-.1150729-.0414-.0202984-.0768126-.0526444-.2849077-.1994792,2.5309473.7418407,4.8672344.7827296,7.1684009.0198603,2.1085508-.6991265,3.9200732-1.8586907,5.1660151-3.7665209.2621268-.401514.475333-.8280724.623263-1.2844212ZM121.3213249,36.0369903c.1149269-.4583203.244457-.9129898.4286028-1.597294-.4704409.3133839-.7640375.5211139-1.0692436.7099328-.8935676.5528758-1.7545701,1.1774531-2.6997599,1.6221194-.7971137.3750092-1.7085701.5049044-2.4260966,1.1004944,1.8427732-1.7111987,3.4931497-3.6405687,5.9267669-4.5779457.6709423-.258476.1761142-.8184343.1459586-1.2330911-.0332222-.4575171-.3472632-.2628569-.5758027-.1626792-2.2107729.9696501-4.5496886,1.4020497-6.9459947,1.6748368.0411809-.2432887.2554093-.2562855.4020251-.3297394,1.5793321-.7899581,3.1357373-1.6270845,4.7780821-2.2872935.4345901-.1746538.8702755-.2381046,1.329253-.2138633,1.107942.0584857,1.6513257.5053425,1.7189384,1.6143797.138584,2.2742967-.3007522,4.4245395-1.6291289,6.3276968-.6469201.9267898-1.4870401,1.5230369-2.6846456,1.5196052-.7841169-.0022635-1.5592528.2113808-2.405141.0126317.7355613-.2450411,1.4560814-.5617107,2.2097507-.7211772,1.9276176-.4079394,3.0298644-1.5978782,3.4964354-3.4586132ZM97.83973,117.1240493c.1851681.0842603.4516028.1787427.4158981.4321076-.0384063.2716188-.3284251.3285712-.5504662.3789521-.5050504.1147809-.996885-.0010222-1.4735322-.1699808-.7000757-.2479617-1.3513768-.6017964-1.9870525-.9791421-1.1876753-.7047487-2.4488775-.6930661-3.5274672.0297905-1.9135985,1.2825959-3.7249749,1.1968753-5.6238973.060019-2.0415953-1.2224308-3.9933811-1.06165-5.8136654.4887679-.1997713.1701269-.3868378.355295-.5777011.5357901-.1213523.1149269-.2459903.2276633-.3560251.3528124-.1099618.1251491-.2035681.2646093-.3043299.3979362.5948599-2.4044109,3.4448133-3.9205113,5.9379383-3.3295213,1.0096627.2391998,1.9197319.7209582,2.8401693,1.1638721,1.315818.6331932,2.4916648.5936186,3.6496956-.3817267,1.1420404-.9619104,2.4823918-1.075669,3.8431145-.540317,1.195488.4703679,2.3567315,1.0286468,3.5273211,1.5606401ZM113.7187719,15.9346405c-.1623142-.2946918-.2893617-.4915425-.3842822-.7028503-1.3758371-3.0623564-3.92387-4.3998602-7.0887406-4.870009-1.532748-.2277363-3.055931-.0774698-4.5740029.0556381-1.5705702.1378539-2.8578391-.3449267-3.9503018-1.4453481-.3869838-.3898314-.789155-.7645486-1.1867991-1.1437198-1.7653764-1.6830146-3.8491018-2.206392-6.2135-1.7003193-.5130091.1098158-1.0220754.2406601-1.5382972.3319299-.2134252.0378222-.5260059.1655999-.6055932-.1676443-.0660793-.2765109.1897681-.4137076.4120283-.5133742.8193105-.3673426,1.6960114-.5061456,2.5781155-.5424345,2.5483981-.1048507,4.7384345.6916788,6.4526999,2.6483567.7608248.8685231,1.5608591,1.7063066,2.8013249,1.8423351.7418407.0812666,1.4730211-.1024412,2.2101888-.1497554,3.4324736-.2202157,6.6091728.4221775,9.2559231,2.7976741,1.0650087.9559231,1.6790717,2.1443285,1.8312367,3.5595211ZM114.3592667,26.5244166c1.2989514-.7598756,2.825128-.9820627,4.1941746-1.7872812-.484825,1.6409575-5.5194117,4.971647-7.5047118,4.9568978,1.0065961-1.2274689,1.970989-2.3860839,3.3105372-3.1696166ZM117.2312708,54.1480527c2.7878899-.2428506,5.2794817-1.1164119,7.796702-1.8913287.6615963-.2037141,1.3193228-.4115902,1.920389-.7633804.4934409-.2886315,1.0205421-.410641,1.5501258-.1699078.267822.1217904.2789204-.0453428.3517902-.1793999.110984-.2043713.2128411-.4135616.3571934-.6962788.0024825.8645073-.332587,1.3476529-1.1638721,1.6657829-2.5256901.9664374-5.151704,1.5518782-7.810356,2.0000493-.6572884.110838-1.3239958.1693967-1.9879286.2356951-.2957871.0295714-.6074916.0882761-1.0140437-.2012316ZM119.5612786,57.657777c2.6690932-.2613966,5.2929896-.1115682,7.7863338-.9373771-.4854092-.1425269-.8963422.2378855-1.51391.0806095,1.0128754-.4436441,1.9648557-.7716312,2.8080423-1.4413322-.2672379,1.223307-1.5289512,2.451287-2.5836647,2.5860742-.0450508.0058413-.1001047.0197143-.1356634.0011683-.5938376-.309149-.5929615-.2986347-1.2005991-.2787744-1.6871765.0549079-3.3749371.1618031-5.1605389-.0103682ZM120.2519352,60.778254c.5211869.3386474,1.0128754.6581646,1.50471.9776818-1.7182082-.5475456-3.1551595-1.5887512-4.6382568-2.5611758,1.4464433.314114,2.7607281.9484755,4.1278762,1.5897004-.3735489.2133522-.6431233-.1604158-.9943294-.0062063ZM123.9725292,47.9834003c-1.1267801.3422251-2.2580142.6696281-3.4270704.8975834,1.4023418-.8249327,2.9140613-1.3823355,4.5178537-2.0203477-.2471585.6385233-.5920853.9712564-1.0907833,1.1227642ZM125.2748393,47.3121659c-.0827999-.0951396.0376031-.2142284.1023682-.3119966.1610729-.2430697.355587-.3666124.6567043-.2373744.1495364.0641809.3243363.0734539.4599997.2667998-.1434031.2142284-.364495.2622728-.563244.3098061-.2134983.0510381-.4653298.1913745-.6558281-.0272349ZM85.0064699,67.2990777c1.1399229.2105776,2.0530588.8612946,2.9664866,1.49551,1.9267414,1.3376498,3.8398288,2.7313027,5.3819959,4.4925172,2.4994775,2.8543343,3.531191,6.158008,2.2073412,9.8880941-1.0500405,2.958747-4.2780698,4.8088217-7.3840896,4.348311-.0893714-.0132159-.1958284-.0174508-.2248157-.1802761.4618981-.1467618.9244533.0121936,1.3828466.0094921,1.597367-.0092,2.5721282-1.0401833,3.4426958-2.164992,2.2084364-2.8534582,3.1683024-8.3974762-1.0037484-12.6451713-1.8870208-1.9212652-3.9577494-3.5930354-6.2923571-4.9363804-.1635554-.0941904-.3177648-.2043713-.4763552-.3071045ZM87.4640363,87.2256784c.0351936.0198603.0546888.0676126.1413586.1809332-1.1413833-.0032127-2.0831413-.3548569-2.9158867-1.0181326-1.7089352-1.3610148-2.4377791-3.2803816-2.852655-5.3124849-.7722153-3.7819273-.6247964-7.5459657.516806-11.2498391.3122156-1.0129484.8256629-1.911043,1.6699448-2.6038901-.3799013.8926914-.7541074,1.7799796-.9586247,2.7304995-.6174218,2.8685724-.4575171,5.7426941-.0780539,8.6175458.202911,1.537348.5405361,3.0493596.8648724,4.5657521.3915838,1.8309446,1.3903672,3.1006897,3.106677,3.8235463.1749459.073673.3396696.1725364.5055615.2660696ZM99.6977635,101.5018771c-1.4206688-4.3640824-2.4826108-8.807679-2.7965788-13.419285.8334756,2.1157063,1.4536719,4.2720095,1.6774654,6.5544109.226349,2.3084681,1.1362722,4.496241,1.4969703,6.7870393-.1259523.0259936-.2519046.0519873-.3778569.0778349ZM106.1740475,83.6811255c-1.5657512-.1018571-3.1466897-.0952126-4.6804599-.5034441-.0928761-.1528951-.3731108-.3635458.0981333-.3639839,1.8896494-.0016794,3.7711209.1314285,5.6384275.419987.4599997.0710444.7721423.5463774,1.4254878.5812789-1.3767132-1.46331-2.8641915-2.6015536-4.3795618-3.7969685,1.5996305.369314,5.7599258,4.3517427,5.8970495,5.6433925-.3677077.0051111-.5498091-.2780442-.7213963-.4922726-.8463994-1.0559548-1.9822334-1.4037291-3.2776801-1.4879893ZM101.5011812,83.1889989l-.0172317-.0135809c.0032127.0008032.0064254.0013873.0096381.0022635.0021905.0036508.0055492.0077397.0075936.0113175ZM100.5068518,88.1439253c-.60939-.4649647-1.2009642-.9164945-1.7926844-1.3679513,2.8863153.8022978,5.8492971,1.2827419,8.5699395,2.5578171-2.3286935-.5774091-4.6126282-1.324653-6.965636-1.7904939-.1049967.2767299.295422.3113394.1883808.6006281ZM102.6643232,89.8720637c1.7665447,1.172488,3.655902,2.1192841,5.6404719,3.1277056-1.1010785.087911-4.3201269-1.8105002-5.6404719-3.1277056ZM103.6813605,79.4823509c-.9892913-.6967899-2.1977031-.8452311-3.2630039-1.3516688,1.3269895-.1483681,2.3798045.3894664,3.2630039,1.3516688ZM101.5032256,83.1910434c-.0005111.000073-.0010222.000073-.0016063.000219-.0056222-.0051111-.0119746-.0108063-.0176698-.0158444,0,0,.0172317.0135809.0192762.0156254ZM101.8859745,83.5350209c-.9619834-.0188381-1.8394145-.0955047-2.8192867-.3716505.9032057-.1804221,1.6647606.1889649,2.4349315.027892.1080634.0965999.2180982.1950252.3843553.3437585ZM56.9294055,101.9855338c-.013873-3.2292706-1.407964-5.9631288-2.6552932-8.9513742,2.1306016,1.6954273,3.5216989,6.5162236,2.6552932,8.9513742ZM50.5585564,99.2820502c.1724634-1.3883228.452187-2.7518201.964904-4.0662509-.0118286,1.3883228-.5253488,2.6981535-.595444,4.0783715-.0071556.1407745-.0731618.2976125-.2509554.2746855-.1556697-.0201524-.1324507-.1747269-.1185047-.2868061ZM51.0019814,99.890491c-.0392825.6947455-.078419,1.389418-.1177015,2.0840905-.0698761-.0011683-.1397523-.0024825-.2096284-.0037968-.0806095-.7100058-.2357681-1.4271672.3273299-2.0802937ZM13.1575911,56.9579934c.3728188-.3836251.438679-.6241392.1036094-1.1042912-.7763772-1.1127611-.4307203-3.101931.6932122-3.8000352.8014946-.4977488,1.5944464-.9903135,2.3617696-1.5449417.8735612-.6313678,2.5936679-.8829803,3.9254034-.7313994-1.2376911,1.1928594-2.446395,2.2293189-4.1921301,2.2591094-.4563489.0078857-.6765646.179911-.8829073.5513424-.8913771,1.6045226-.6062503,2.6275472,1.0590214,3.4328387,1.5619544.7553486,3.268188,1.0355103,4.948428,1.3921196.6234091.1323047,1.2611292.2209459,1.8375161.5298028-1.8350335-.1436951-3.6490385-.4263394-5.4576403-.7406725-1.7278463-.3003141-3.6871528,1.2067324-3.8156606,2.9456041-.0773968,1.0482151.2286125,2.031154.4532822,3.0318358.0727238.3242632.2918442.2535839.489498.2665807,1.0752309.0702412,2.1412619.0200063,3.2058325-.2571617-1.0936309.5097964-2.2661189.6724027-3.5138132.7273836.6945265,2.2523919,1.4941957,4.3736475,3.9635906,5.419234,0-.4437171-.0002921-.8545771.000146-1.2653641.0005841-.6098281.212476-1.1276563.7043836-1.4996719,3.171296-2.3980585,6.656633-4.1923492,10.4406048-5.4076975.0808285-.0259206.1771364-.0032857.3165236-.0032857-.299876.3773457-.6943074.507752-1.0488722.6841582-1.8221827.9064184-3.5561624,1.9565318-5.2015008,3.152823-1.0327357.7507486-1.9560938,1.610802-2.6107536,2.723344-.3347045.5687932-.2197776,1.3150149.3467521,1.864824.4869425.4727044,1.043469.8285835,1.7902748.5390028,2.2243539-.8623898,4.5082156-1.5505639,6.7749187-2.2887538.2452601-.0798793.4919076-.1451554.8975834-.0423492-2.0267731,1.6714781-4.7185742,1.3557577-6.8558932,2.6941376.5785043.2469395,1.0777135.1277047,1.5534845.1410666,5.8893098.1645046,11.5532928-.8518025,16.9395967-3.2862959,2.4084267-1.0885198,5.0396247-1.4530148,7.5157371-2.3211728,1.7729701-.6216567,3.5493719-1.2335292,5.4030975-1.7741383-.1647237.1736316-.3208315.3564632-.4954123.5195075-2.0533508,1.9167382-4.4901807,2.9433406-7.2878548,3.1218643-2.1013952.1341301-4.0745017.7819994-6.0105891,1.5412909-5.4011991,2.1183349-11.0076456,3.1262452-16.7969237,3.1769912-2.4112744.0211016-4.6889298-.4881107-6.8004012-1.6928717-.4303552-.2455522-.9102152-.4288949-1.389418-.5590821-1.0728214-.2915522-1.8458399-.9337993-2.4684457-1.8364208-.9712564-1.4081831-1.6929447-2.9234073-2.2277126-4.5474251-.752501-2.285103-.3412759-4.2907015,1.3316625-6.0118304ZM32.1599577,56.5486668c1.5127417-1.2984403,3.3312737-1.9720112,5.2491071-2.3205887,4.8240821-.87692,9.3594596-.1184317,13.4886501,2.6208298.45226.300022.8289486.7181836,1.2230149,1.0997642.2025459.1961205.3661013.4325457.5471805.650717-.0357778.0503809-.0717015.1009079-.1074793.1512888-.4405774-.2180252-.8840755-.4305013-1.3212942-.6550979-2.2323126-1.1462023-4.4626538-2.3205887-6.9699439-2.7391154-2.8061439-.4684695-5.6245545-.9227009-8.4317206.0511841-1.2137419.4210822-2.3377474.974104-3.1950261,1.9643445-1.1967292,1.3823355-1.0950912,2.9951819.3120696,4.1608794,3.2489848,2.6915091,6.9873217,3.3676355,11.0445186,2.5561377,2.8641915-.5729551,5.5752688-1.6673162,8.3486286-2.5488362.267676-.0849904.5238155-.2238665.8895517-.1973618-.6731328.632244-1.4259259,1.0444913-2.169665,1.4611195-2.4302585,1.3614529-5.0080089,2.3603093-7.7119307,3.0173056-2.3960141.5821551-4.6987139.0365809-6.961255-.7146788-1.5253734-.5065837-2.9699184-1.1916181-4.2130857-2.2410015-2.2336999-1.8855605-2.2485951-4.4052633-.0213206-6.3168904ZM24.5555793,54.3278177c.1342761.1333269.2960061.2412443.4534282.3487235,1.2760974.8718819,2.7041408,1.4105196,4.1743873,1.8294843.5974154.1702729,1.0620881-.2021078,1.389272-.6663424.3128728-.4439362.046219-.8472755-.267895-1.1464944-1.3978148-1.3321006-3.1522389-1.9128684-4.893228-2.3236554-.6304186.0714095-1.2133769.1331809-1.4370243.6776598-.2253268.5484948.2251078.9272279.5810599,1.2806244ZM24.6581665,53.2835454c.1195999-.3376251.457152-.1139047.6638598-.175238.9566532.0064254,1.8034907.3073966,2.5889949.7741137.2002094.1188698.6902915.1425999.4750409.5314821-.1745078.3152093-.3607712.8006915-.8777231.7001487-.9167136-.1781586-1.7882304-.4883298-2.5225505-1.0946531-.2266411-.1870665-.4348092-.4333489-.327622-.7358534ZM27.8276371,39.3430005c.0037968.0088349.0103682.0152603.013946.0241682,0,0-.0256286-.0265778-.0256286-.0267238.0036508.0010952.0079587.0016063.0116825.0025556ZM28.0096656,39.4032385c-.0414-.0400127-.1183586-.0432984-.1820284-.060238-.1991872-.4641616-.6343614-.7296471-.941904-1.10305-.6865677-.8334756-1.3253831-1.6901701-1.6859352-2.7245122-.2203617-.6321709-.2377395-1.2636117-.0157714-1.8943224.1999173-.567771.498333-.6513011.9572374-.2503712.5330155.4656219.890939,1.0763262,1.1393388,1.717259.2672379.6892693.6944534.8875803,1.4054085.8891136,1.1917642.0027016,2.3827982.1374888,3.5752925.1875776.3973521.0167206.7983549-.0557841,1.2005261-.0640349-1.6814082.5094314-3.4199149.7105169-5.2924785.9218977,1.7162368,2.1086238,3.2841054,4.1285334,5.7784718,5.1922278,5.6047672,2.3900998,11.267947,4.5880219,17.2699932,5.788694,2.340449.4682504,4.7287964.6605011,7.048947,1.2398816.5081901.1269745,1.0296691.226276,1.4648433.5473266.2047364.1510697.5204567.2867331.4112981.5912091-.1006888.2807458-.4228346.1666221-.6409328.1418697-1.2819387-.1455205-2.5403663-.4238568-3.7985749-.7030693-6.878017-1.5261766-13.6843325-3.2900927-20.1994608-6.0325668-2.6917281-1.1329864-5.3526436-2.3131411-7.4942705-4.3848919ZM36.4437957,35.1656925c-.3720886.2650474-.6675106.060238-.9381072-.0303746-1.8315288-.6129678-3.6585306-1.2400276-5.4791069-1.8850494-1.218853-.4318886-2.460487-.7493613-3.7417686-.9304406-.4931488-.0696571-.9909707-.1787427-1.4575418-.3494537-.914012-.3345585-1.4474656-.9975421-1.4619227-1.9980048-.0239492-1.6486972.1962665-3.2454801,1.1838785-4.6319774.2501522-.3511331.5021298-.7821454,1.0950182-.4748949.5719329.2963712.6147932.7449074.4586124,1.2703292-.087911.2958601-.1926157.5952249-.3441966.8621708-.5666027.9981262-.4456886,2.0162588-.1420888,3.0506009.19393.6607201.6101202,1.1051674,1.2287102,1.4059926,2.0269191.9858596,4.2118444,1.5262496,6.3228777,2.2744427.8089422.2868061,1.6173004.5759488,2.4184299.8834914.3041109.1166793.6283741.2239395.8572057.5531678ZM44.7075799,27.1881303c.0146032-2.1958777.3269648-4.3551745.8472755-6.4868713.1712951,1.3299831-.1664761,2.6076869-.3603331,3.9640287.3917299-.1775745.4365616-.6488916.8565486-.7888629.0043809,1.1371483-.3293013,2.2039825-.4393362,3.4314514.7324217-.7409645,1.1794245-1.5335512,1.7592431-2.2171983.2055395-.2424125.3594569-.7562248.7872565-.5254218.4665711.2516855.3538347.7358534.1612919,1.1459102-.4607298.9808945-1.1029769,1.8369319-1.8175097,2.6487218-.4208632.4781076-.7787137.4280187-1.1793515-.0097841,1.6914114-.2979045,2.1157063-1.744932,2.760655-2.9838644.0723587-.1390221.1335459-.3149172-.0612603-.5011806-.2489839.1158031-.2968823.3887362-.40166.6036948-.4410155.9051041-1.1931515,1.5420941-1.8994335,2.2161761-.2135713.2038602-.5095774.313968-.7962375.1980189-.3105363-.1257332-.2187554-.4548885-.217149-.6948185ZM39.1158825,30.786934c-.20313-.0653492-.2681871-.2562855-.3494537-.406406-.6236281-1.1524086-1.5937893-1.9368176-2.6798265-2.6199536-1.5632687-.98345-2.9502771-2.1846333-4.2106762-3.5323592-.0730888-.0781269-.1996983-.1392412-.1355904-.3611362.8190184.7189137,1.6134305,1.4162148,2.4079156,2.1135889-.3410569-.973958-.9467961-1.772751-1.5028846-2.6203186,1.6383289.6565582,6.1373445,5.8259321,6.4705157,7.4265848ZM80.9719079,33.7315158c-.4618981,2.6384266-2.0564175,4.6310282-3.9174446,6.4338618-.7503105.7267994-1.5425322,1.4127831-2.5099917,1.8792811.4890599-.8148565,1.2406848-1.3738656,1.911262-2.0139223,2.0297667-1.9374747,3.5551402-4.1853397,4.0731874-6.9931629.3911457-2.1200873-.8158787-3.5256418-2.9643692-3.4504355-1.9782175.069219-3.9612541.1162412-5.9251606.4137806-.9498628.1439142-1.6738876.6377932-2.2598396,1.3837958-2.2090205,2.8122042-2.2047126,6.3755952.0140921,9.1758248.2159808.272495.4919806.5265901.4867965.9903865-.4860663-.0226349-.7713391-.3470442-1.0621611-.632609-1.3256752-1.3015069-1.9076112-2.9402009-2.1086968-4.7426694-.156984-1.4068688-.0702412-2.8130804.0270159-4.3282316.3666854.5925964.1904253,1.1727801.3171807,1.8402907.2435808-.5507583.438533-.9965199.6374281-1.4405291,1.449656-3.235915,3.8686701-4.6365044,7.4130039-4.4673998,1.8763605.0895174,3.3934831.849539,4.7787392,2.0129731,1.2653641,1.0626722,1.3424688,2.4910076,1.0889579,3.9387653ZM76.660908,23.0640509c.4391171-.1931268.58179-.2930855.5975615-.7797359.0499428-1.5363258,3.3432483-2.880328,4.6376727-1.8776017-1.8210145-.7609709-2.8441121.3214156-3.9425621,1.6579702.9389104-.3642759,1.7185003-.6789741,2.5077283-.9669485.3182759-.1161682.8060216-.3390855.950739-.0165746.1377078.3068855-.3907076.4530631-.65999.6163265-.8973644.5442599-1.8251034,1.0320056-2.8313344,1.3491133-.3604061.1135396-.7266534.2237935-1.2598149.0174508Z"/>
  </g>
</svg>