<?xml version="1.0" encoding="UTF-8"?>
<svg id="Layer_2" xmlns="http://www.w3.org/2000/svg" viewBox="0 0 101.816678 118.9306411">
  <g id="Layer_1-2" data-name="Layer_1">
    <path d="M98.6429105,69.2022167c-2.3013698-2.6420692-4.9961925-4.8220572-7.8502524-6.8251012-.5689314-.3994365-1.240439-.694343-1.6578264-1.4072474,3.0958467-1.4570702,5.3537437-3.581496,6.2505525-6.9249909.5182539-1.9323398.8921685-3.8881255,1.1109977-5.8763937.568443-5.1655653.1746237-10.3023115-.5653901-15.4123147-.5712516-3.9447867-.9798467-7.930848-2.306987-11.7310511-1.1495859-3.2917183-2.9368536-6.1284381-5.9418471-8.0253646-1.1217438-.7080198-2.1830408-1.4697701-3.1614222-2.3586415-1.2754859-1.1587444-2.6735748-2.1530007-4.1266151-3.0766747-5.1671527-3.2856126-10.8852861-5.0847255-16.8235919-6.3345673-9.6359327-2.0280775-19.1088425-1.5672174-28.4814964,1.526187-7.6490077,2.524473-13.6329844,7.3434773-18.947163,13.1959366-2.1308979,2.3465521-3.7037326,4.9783637-4.7959247,7.9398845-2.2327414,6.0551694-3.9460078,12.2378262-4.4857539,18.6884023-.3438744,4.1085422-.409572,8.2100017.8157248,12.2405128,1.0391944,3.4189616,3.1659404,5.755134,6.4731673,7.0428314.9283144.3613368,1.8699393.6884815,3.099388,1.139084-1.792885.6188763-3.109035,1.4819815-4.4339773,2.370975-4.1106181,2.7584443-7.0345276,6.5834367-9.7861335,10.578046-1.3079684,1.8987583-2.2326193,3.9775133-2.5220307,6.2774177-.7622387,6.056879-.6142359,12.0949523.1128338,18.1630658.4955406,4.1367506,2.6984861,6.8569731,6.030258,8.9773692,2.7219321,1.732072,5.6338743,3.0048714,8.7554872,3.7799321,6.1654387,1.5305831,12.4623948,2.3888038,18.6910889,3.5979815,5.1760671,1.0050023,10.3851051,1.9540762,15.6554446,2.1340729,8.9848182.3067516,17.8426373-.8506496,26.6270657-2.74318,6.1841223-1.3325134,11.8775885-3.6266784,16.9319074-7.4887935,4.501873-3.4399653,6.8005562-7.9376864,7.3217409-13.5688742.5084848-5.4942975.4354603-11.0198563,1.0956113-16.5003548.4328959-3.5938296-.7340302-6.6794187-3.0848564-9.378149ZM85.1866258,60.6954767c-.2925863.1085598-.5387692.0412747-.8104739-.0293075-5.1233136-1.3301932-10.2821626-1.1871971-15.4556653-.3597493-.5681987.0908532-1.0255175.1340817-1.4394857-.4676985-3.2528859-4.7294944-7.9730996-6.7910313-13.5127016-7.3183217-.3549868-.0339478-.7126602-.0377334-1.3025953-.067163,1.1190572-2.0131796,2.4387486-3.5869912,4.218201-4.7181377.6723624-.4274007.6712634-.7303668.3077285-1.3912504-1.738422-3.1593462-3.8639469-5.2429858-7.9279173-4.0158573-1.8409981.5559873-3.8707853.4978608-5.8182672.68262-.6157013.0583707-1.0266166.3181083-1.342771.8396593-.7238947,1.194524-1.5134871,2.3499713-2.2136916,3.5575616-.8268372,1.4258088-.7991173,1.444126.6001927,2.2520355,1.2359208.713515,2.4692772,1.4303271,3.7307199,2.4228737-2.0034104.6296223-3.8485604,1.2028278-5.5943093,2.0460284-2.9369757,1.4186041-5.385005,3.4210376-7.2934103,6.062252-.3828289.5298548-.7810443.8121835-1.4570702.8449102-3.0321029.1465374-6.0615193.343386-9.0919126.5219174-.2761009.0162412-.5580632.084259-.812672-.0919522-1.6760214-1.1608204-3.6059189-1.8924083-5.2461608-3.1169725-2.1255249-1.587-2.9263518-3.9198753-3.5961498-6.3250424-1.033455-3.7104489-.8484515-7.4200431.0003663-11.1378189.8529697-3.7362151,1.9020554-7.4121056,3.0477336-11.0704117,2.3194427-7.4067326,7.4599745-11.9797983,14.448465-14.7894086,3.928057-1.5793068,8.0968016-2.1014683,12.2252485-2.7927585,4.8814048-.8175565,9.7574366-1.6784637,14.6974564-2.0887684,7.5662141-.6286454,15.024479.0122114,22.2512149,2.3424002,6.4658404,2.0849829,9.6612104,7.1625036,11.2102328,13.4069504,1.1773058,4.746102,1.1438465,9.6654844,1.6967809,14.5023174.3490032,3.0535951.7810443,6.1004738.7805559,9.1864292-.0003663,2.0888906-.1353029,4.1521371-.8284247,6.1423591-.9219644,2.6467096-2.9786168,4.045409-5.4712178,4.9703042ZM80.3438091,74.4252979c-.191964-.2984478-.5750372-.1199164-.8816667-.0112345-2.6410923.9357634-5.3948963,1.0223426-8.1533406,1.0818123-.5244818.0113566-.8706764-.0460372-.6342627-.717789,1.3757419-3.9082744,1.1012285-7.7692905-.3595051-11.5929396-.0388324-.1014771-.0144095-.227133-.0244229-.4547544,5.7796791.1467816,11.5271199.2569289,16.9129797,2.6852977,4.3585106,1.9650665,6.685158,5.5825863,7.7758847,10.0379336.7781136,3.1788845-1.8491798,6.6794187-5.5349616,7.7072564-4.7453693,1.3233548-9.6030839,2.0463947-14.4881522,2.5392488-5.2455503.529-10.4740045,1.1683915-15.6746166,2.0214834-5.3618033.8797128-10.7409468.7364725-16.1337671.4481602-10.7946771-.5771131-21.4042287-2.4356957-31.9786113-4.5482765-1.0956113-.2189513-2.1641131-.549271-3.1481117-1.1092881-1.235066-.702891-1.4744104-1.2707234-1.0965882-2.6657594.3388677-1.2516736.9490739-2.3802557,1.7076491-3.408704,2.2808545-3.0921832,4.8323148-5.9416029,7.631179-8.5848932,2.636452-2.4897924,5.9113185-3.1862114,9.3118408-3.6032324,1.2149171-.1491018,2.4319102-.437292,3.7683312-.1952611-1.2526505,3.8370817-1.1714444,7.5036915,1.4559711,10.9923805-2.0284439.2231032-3.9009475.2209051-5.7184997.6507481-1.5601348.3689079-3.0726449.8591976-4.4978432,1.5916403-.3780665.1942842-.946021.5053098-.7726184.930024.2204167.5392576.7585752.1427518,1.1346879-.0024423,3.7682091-1.4548721,7.5940562-2.2212627,11.7002782-1.8522327,3.0578691.2750018,6.1040152-.5949418,9.1523593-.9589651,5.5659787-.6647913,11.0868971-.3432638,16.5990233.4454737,6.1183026.8754388,12.2511367,1.0297915,18.4069284.5340067,1.1427474-.0919522,2.189635-.4271565,3.1210023-1.0973209.2914873-.2097927.6685769-.4742927.4188527-.8623726ZM19.3236844,64.0812232c.5489047-.9368624,1.2309141-1.6018979,2.3172447-1.6817608,2.549018-.18769,5.0997455-.3529109,7.6508395-.5086069.2764672-.0168518.7198649-.172792.740136.3293428.0146537.3676867-.1389663.7363504-.6049552.7418456-3.2882991.0387103-6.5028411.6319425-9.7133533,1.2647398-.0907311.0178287-.2029543-.072536-.3899116-.1455605ZM55.8368953,60.1420538c2.016843.1404317,3.8727391.6801777,5.4348277,2.0890127-7.1984053-.5791891-14.3732424-.0157528-21.7735029.2046639,1.1737645-1.1808472,2.1482382-2.0175757,3.7789552-2.0803425,4.1866955-.161069,8.3653314-.5054319,12.5597201-.213334ZM43.8511134,59.6932831c3.0826583-2.5689226,10.4983053-2.5865071,13.5278438-.0672851-4.5179921-.6418338-8.9690654-.2955171-13.5278438.0672851ZM40.019649,63.1194494c1.7153423-.040542,3.4319058-.0407862,5.1479808-.0473804,1.6757772-.0065942,3.3514323-.0014654,5.0273317-.0014654,3.5507232-.2398329,7.0983935-.3034545,10.650582-.0764437,1.3218894.0845032,2.2502038.5404788,2.9021731,1.7080154.7004487,1.2543601,1.435578,2.480756,1.8571172,3.869442.7219409,2.378424.0261325,4.4713444-1.223343,6.4756096-.2940517.4719725-.6816431.2956392-1.0594654.2558299-3.8479499-.4056644-7.6885728-.9056011-11.5448265-1.2012403-4.8290177-.370129-9.6499759-.1400653-14.4283161.7066766-.5765025.1023319-.9496844.0271094-1.2594889-.5446306-2.4610955-4.5426592-1.2569245-7.5006386,2.1013462-10.7919906.5071415-.4972502,1.207346-.3376466,1.8289088-.3524224ZM69.1478638,74.8875012c-.4061528,1.2517957-1.4233666.2321397-2.2437317.7706646.389301-1.4470568.8753167-2.544744,1.0402934-3.7321853.8958319-6.4460579-1.943208-11.8422974-7.9078905-14.5097664-6.8083716-3.0445586-13.6675428-3.2644868-20.4240157.2605923-1.9638453,1.0246627-3.6600156,2.4508379-5.1804632,4.0317322-2.6826112,2.7893393-4.2260163,8.3761996-.8307449,13.1947154-.7628493.3763569-1.3034501.1865909-1.7948388-.4862599-2.3580309-3.228463-2.5441334-6.6502333-1.1431138-10.3211171,1.8859363-4.9412409,5.6059101-7.923399,10.2770338-9.9542852.3657329-.1589931.7629714-.2576616,1.1064794-.4530448,1.8786094-1.0689903,3.6095824-.9788698,5.1970708.5761362.7180332.7036237,1.3748871-.2902662,2.0931646-.1196722.147148.0349247.3393562-.197337.5197193-.2146773,5.22821-.5018906,10.1071725.3712281,14.335509,3.7163104,1.0757066.8510159,1.925135,1.90059,2.5829658,3.1133091.8961983,1.6526976,1.5898086,3.3942945,2.3283571,5.11733,1.2851329,2.9987657,1.0179464,6.0094985.0442054,9.010218ZM51.5954926,46.625933c1.0306463.1527652,2.0191632.4438862,2.9792273.8375833.1301741.053364.2322618.1751122.3697627.2828172-.1587488.2022216-.2764672.3613368-.4035884.5125145-1.024907,1.2202902-2.0628802,2.4298342-3.0713017,3.6634349-.3343495.4088393-.7024026.7046006-1.2174815.4668437-.5504921-.2541203-.1487355-.6988613-.0884109-1.0417588.241054-1.3706131.5277788-2.7330445.778602-4.1020701.0709485-.3874693.1328606-.6965411.6531904-.6193647ZM51.1398834,45.4167553c.2522885-.7422119.4603716-1.4648855.7431888-2.1572747.3155439-.7724963.8971752-.3563301,1.2858656-.1355471,1.2844003.7292678,2.1313864,1.8655431,2.918048,3.4062617-1.8210935-.4098162-3.3620563-.7566214-4.9471024-1.11344ZM45.7495053,46.8933638c1.3874649-.3968721,2.5729524-.4364372,3.7652783-.4317969.4195854.0015875.6799335.0562948.5702747.6014139-.2342156,1.1658271-.3836837,2.3502156-.8845974,3.6976269-.9803352-1.5139755-2.1897571-2.5830879-3.4509556-3.8672439ZM48.4067167,51.5872008c-.9749621-1.0178243-1.9003458-2.0619033-2.443511-3.3764658,1.1525166.8822772,2.0085392,1.9809413,2.443511,3.3764658ZM49.6481327,45.4421551c-1.4700143.0451824-2.9167047.2877018-4.6189808.5338846.9223308-1.588099,1.8367241-2.7629626,3.6872472-2.6110521.3155439.0258883.6469626-.0600803.9511498.0024423.4485265.0923186,1.0945122-.4402228,1.3260413.278421.1967265.6103282-.7091189,1.7766438-1.3454575,1.7963042ZM42.5904033,46.3372544c-.6093513-.0324825-.6592962-.206862-.4144566-.7157131.7547897-1.567828,1.4861334-1.9739808,3.3725581-1.7991129-.7086304,1.7919081-1.6788301,2.5829658-2.9581015,2.5148259ZM45.2098814,48.5807419c.9494402,1.3742765,1.8700614,2.7684577,2.7992306,4.1566553.0836484.1250452.137623.2699951.2053966.4056644-.0613015.061912-.1228472.1239462-.1841487.1859804-2.2715738-1.5313158-4.5433919-3.0623873-6.8145994-4.5944358-.5642911-.3806309-.3797761-.6897027.0943945-.9732525,1.3079684-.7821433,3.0333241-.4348497,3.8997264.8193883ZM14.7421927,19.0495493C21.4124528,10.2989467,29.8615547,4.2932337,40.7894588,1.9711045,50.3219605-.0546529,59.5938699.9183554,68.7534339,3.9107711c4.1085422,1.3421604,8.1491887,2.824264,11.6437392,5.4687756.3116362.2359252.7076535.3856376.8847195.7935-.4390016.1636334-.7746944-.1313952-1.1249187-.2641337-3.5652548-1.3511969-7.2142801-2.1836514-11.0447676-2.4791685-9.171287-.7076535-18.2617343-.1295635-27.3642709,1.013184-4.4381292.5570863-8.6830733,1.6343804-12.8457122,3.2001325-6.9129016,2.5999397-12.7831896,6.5162737-16.7450723,12.9793055.4419324-2.0544543,1.3254307-3.9203638,2.5850417-5.5728171ZM8.6998454,55.3250033c-1.4343569-4.4835558-1.5267975-9.0395255-.8942444-13.6300536.6566096-4.7651518,2.0017008-9.3622741,3.8336625-13.8050437,2.5062779-6.0783711,6.9646781-10.2986481,12.7331226-13.283859,6.5116333-3.3701158,13.4225811-5.2396888,20.7186779-5.8038577,4.6188587-.3570628,9.2301462-1.0301579,13.8629259-.8938781,5.2169755.1533758,10.4837736.0443276,15.5949979,1.3891745,4.061406,1.0687461,7.910577,2.7571011,11.7486356,4.4146832,3.0259972,1.3068693,4.7062926,3.9740941,5.8644265,6.9666319,1.3080905,3.379885,1.7862908,6.9505128,2.3242052,10.4981831.8158469,5.379632,1.3842899,10.7792907.7872722,16.2317029-.2780547,2.5393709-.4882138,5.0918081-1.4455914,7.4992954-.808398,2.0324737-2.1318749,3.5879681-4.1709427,4.5825907-.0235681-.177066-.0636217-.2726817-.0361459-.2999132,3.517508-3.4778208,3.2594801-7.9111876,2.92452-12.2591963-.4783225-6.2092779-.9706881-12.4225855-1.8030205-18.5997472-.7370831-5.4693861-3.0292943-10.1767778-7.1800881-13.8319089-2.5215422-2.22053-5.732665-3.0426048-8.9596626-3.7293767-7.7812577-1.6558726-15.6278467-1.9662876-23.4658877-.7258486-6.8903104,1.0903603-13.9023689,1.5905413-20.6187883,3.6031103-6.3003753,1.8881343-11.6218807,5.2671645-15.1171639,11.043058-2.1771793,3.5977373-3.1362666,7.663173-4.2753506,11.6480132-.5368153,1.8777546-.9419912,3.7942195-1.3722006,5.7009152-.9821669,4.3537481-.4033442,8.5640117,1.1939134,12.6809798,1.2360429,3.1862114,3.6377908,5.1655653,6.654141,6.5359341.4216614.1915976.9042578.3002795,1.2452015.7032574-4.8464801-.3646339-8.9023909-2.7453781-10.1466155-6.6348469ZM3.8319953,79.9265559c.4940752-1.4118878,1.2409275-2.6865189,2.2078301-3.8155895,3.1771749-3.7105711,6.6656197-7.1075521,10.4359048-10.2136564.2759788-.2273772.587615-.4125028.8888714-.6076417.0961041-.0622784.2113802-.1370125.3803867.0823052-3.559027,2.4769704-6.2903619,5.8028808-9.0787243,9.0717637-1.3071136,1.5324148-2.3790346,3.209291-2.9581015,5.156773-.6342627,2.1326075-.1213818,3.2112449,1.9110918,4.1090306,3.3289633,1.4703806,6.9187631,1.8672527,10.4442085,2.523496,9.9108124,1.8449058,19.9038079,2.8904501,29.9783759,3.3259104,4.7607557.2056408,9.4035488-.4658668,14.0589197-1.161431,6.2816917-.9384499,12.6099091-1.4833248,18.8999046-2.3439877,2.5730745-.3520561,5.1234358-.8314776,7.6333771-1.4917507.9185452-.2417867,1.8191396-.6093513,2.6722315-1.0318675,4.6227663-2.2892804,5.9579662-6.4229782,3.8002031-11.116571-2.6511057-5.7671013-7.2648355-8.6779445-13.3568835-9.636299-3.2813386-.5163001-6.5913741-.6890921-9.8932279-.9672689-.6349954-.0534861-1.27341-.0599582-2.0096382-.7169342,7.0480823-.9507835,13.5208832-.1269991,19.5793497,3.4822169,3.9092513,2.3289677,6.6487679,5.516156,8.3451825,9.7000428.7898366,1.9476041.2750018,3.8612603.0556842,5.7867617-.0338257.2972267-.4017567.5723506-.6472068.8269594-2.9516295,3.06312-6.7087261,4.5679369-10.7673235,5.3537437-11.4164842,2.2106387-22.874243,4.0984067-34.555105,4.1683783-3.7912887.0225912-7.5845313.5765025-11.3738662.1475143-9.5588785-1.0820565-19.133876-2.0660551-28.545118-4.1689889-2.0213612-.4517015-4.0999942-.6715076-6.0137725-1.542184-2.365602-1.076195-2.9544381-2.4579206-2.092554-4.9207257ZM99.1938911,96.6218054c-.6879931,4.94234-3.1957363,8.6513235-7.1383249,11.5817051-5.1551855,3.8318307-11.0061794,5.9488076-17.2304774,7.0993704-8.1392974,1.5044506-16.3259753,2.6794363-24.6418503,2.3731731-6.6098134-.2432521-13.0921393-1.4685489-19.5570027-2.7472098-5.0891216-1.0065898-10.2507792-1.6511101-15.2712724-2.9979109-3.7928762-1.017458-7.2186763-2.7699231-10.2534657-5.2732702-1.6045845-1.3237211-2.5944446-2.9644515-2.8917934-5.065065-.6796893-4.8006871-1.003659-9.610655-.7678559-14.4605543.0567832-1.1701011.3333726-2.190734,1.1567906-3.1950037,1.8816623,2.3267696,4.5824685,2.6076329,7.2035341,3.182548,5.8131384,1.2747532,11.6443498,2.3863615,17.5553019,3.1445704,8.9754154,1.1512955,17.9402068,1.9029102,27.0015908,1.1687578,4.8535627-.3932087,9.7634202-.1736468,14.5713121-1.0755845,6.5890539-1.2360429,13.2843475-1.8670085,19.7929279-3.5650106,4.0097516-1.0460328,7.3823097-3.1639866,10.4566642-5.8480632.2693846-.2351925.5314423-.4791773.8003384-.7151025.0232018-.0203931.0724139-.0111124.1095367-.0156307.051166.0499448.1488576.1042858.1451941.1509335-.4129912,5.4143125-.2898998,10.8587873-1.0411482,16.257347Z"/>
  </g>
</svg>