<?xml version="1.0" encoding="UTF-8"?>
<svg id="Layer_2" xmlns="http://www.w3.org/2000/svg" viewBox="0 0 91.5423168 92.8706036">
  <g id="Layer_1-2" data-name="Layer_1">
    <path d="M91.5192728,55.2560756c-.1278979-1.7290458-.4786204-3.4156385-.9725411-5.0775567-.7738522-2.6031044-2.030958-5.030255-2.757724-7.6503837-.3566487-1.2855515-.9911817-2.4443904-1.7086812-3.5608839-1.0621881-1.6526518-2.2904173-3.1754663-3.6366314-4.6014146-2.3642252-2.5044065-4.7840489-4.9745488-7.6338982-6.9166141-3.5899761-2.4461144-7.4609613-4.4035877-11.5100552-5.9977319-2.1875171-.8613443-4.4842916-1.3467529-6.7292388-2.0102703-.6892694-.2036453-.6886229-.2091405-.281009-.7769769,1.6965056-2.3635787,3.3768489-4.7385789,4.8974007-7.2212201.9947374-1.6239906,1.943035-3.2715783,2.5510617-5.0923183.1301606-.3895121.096543-.6985358-.1333931-1.0370827-.8727657-1.2846895-2.1040118-2.1187734-3.4688664-2.7766878-2.5839251-1.2455767-5.3444506-1.873537-8.1675782-2.2505502-2.1196353-.2829485-4.2423954-.4348744-6.3763613-.0777947-1.7391742.2911374-3.4909549.4941362-5.2556656.5630955-1.1098131.043315-2.2232897.0329711-3.3254527.1973959-1.9432505.2898444-3.6880276,1.1599164-5.4748267,1.9000432-.7501475.3107477-1.4453431.7361401-2.0569255,1.2802718-.6573757.5849685-.7073712.8858033-.2865042,1.6404762.6710598,1.2033391,1.4999717,2.3042091,2.2553989,3.4524886,2.21801,3.371246,3.8940434,7.0719879,6.3390802,10.3730894-.162162.047625-.2795005.0851216-.3984552.1165843-7.3677585,1.9544564-14.1930016,5.0219583-20.25743,9.7131277-5.0995375,3.9447931-9.7295055,8.3189653-13.1938465,13.8162038-2.0033743,3.1791298-3.5654094,6.5291492-3.79082,10.3494924-.1694889,2.8715068-.281871,5.7573442.190931,8.6079477,1.1153083,6.7257909,3.906219,12.5979954,8.8647133,17.3968058,3.5660559,3.4513034,7.6087927,6.2270214,11.8655187,8.7119254,3.506363,2.0467971,7.2972908,3.3147856,11.3267744,3.883915,2.2245827.3141956,4.463496.3534162,6.6983149.4805599,1.6895019.0962197,3.3772799.2514858,5.074001.1397503,2.5697023-.1693812,5.1293839-.4290559,7.6843246-.7534877,4.2151349-.5350808,8.3033418-1.5005105,12.2258308-3.1935681,7.0114331-3.0263419,13.3226064-7.0197297,18.5247208-12.6977708,4.2223541-4.6086337,7.3977127-9.7168989,8.3815674-16.0029667.2560113-1.6357353.6601772-3.253692.536266-4.9278936ZM61.5788848,8.3973944c-.9407552,1.7369114-2.0171662,3.3919337-3.0762296,5.0569767-1.6167715,2.5421186-3.272117,5.0604247-4.7017287,7.7166493-.0488102.0906168-.1138905.1723982-.1713207.258274-.0327556-.0163778-.0654036-.0327556-.0980515-.0492412,1.7124524-3.6540867,3.4250126-7.3080656,5.1509337-10.9908135-.214959-.027907-.2446976.0906168-.2955551.1628085-1.5180735,2.1557312-2.8177401,4.4569234-3.7547241,6.9013137-.6692281,1.7459623-1.2779013,3.4984974-2.2364351,5.1097736-1.1635798,1.9557493-2.4787623,3.810969-3.7762739,5.6778256-.0603394.0868456-.1245577.1711052-.1818801.2598902-.0937415.1451377-.2503006.3197986-.0525814.4570706.1800483.1252042.2649544-.1020382.3654841-.2070933.1040854-.1088263.1885605-.236401.3120407-.3947918-.2213161.8826786-.3820774.9929056-1.1724152.9057368-.3137646-.0346951-.6474628-.0885696-.9457116-.0196103-.5155782.119278-.6199869-.1329621-.6930406-.5513509-.303313-1.7368037-.5315251-3.483628-.7361401-5.2339003-.188345-1.6095523-.5238749-3.2015415-.5737626-4.8274717-.0928795-3.0256954,1.1698292-5.4083457,3.5657326-7.1640054,1.3528945-.9912894,3.0081323-1.3661476,4.6161762-1.7348642,1.0833069-.2484688,1.5009415.3060067,1.2309228,1.4684013-.2946931,1.2694969-.6676119,2.5185216-1.0737173,3.7569868-1.0648819,3.2469038-2.242469,6.4514623-3.581464,9.5963279-.1925472.4518987-.3224923.9306268-.4774351,1.3983646-.0151926.0456855-.0020472.1008529-.0020472.1484779.1014994.0260752.1319923-.048487.1652867-.0981592,1.6512511-2.4645394,3.137-5.0037488,4.0403663-7.8642652.9481899-3.0022062,2.4538723-5.7624084,3.9513658-8.5184085.3846634-.7076944.984178-1.1229585,1.7737615-1.2970806.6695513-.1476159,1.3263883-.3518,1.9944312-.5068506.1954564-.04547.4675223-.1156145.5956356.0588309.1185237.1614078-.0732692.3609586-.1616233.5241981ZM36.9970625,5.9930866c-.5527516.6149227-1.1143386,1.2218719-1.6678444,1.8360404-.115399.1281134-.2413574.119709-.3828317.0753164-.7861356-.2469604-1.5847701-.4567474-2.4484848-.8222315.5900327-.4235607,1.0990383-.791954,1.6111685-1.1561451.864469-.6148149,1.8009143-.5741936,2.7642967-.3025588.2369397.066912.2843492.1908232.1236957.3695785ZM37.1627802,6.1705489c.5738704-.8467982.6509108-.8790151,1.6732319-.5205347-.4790514.4806676-.9325663.938277-1.3889904,1.3929771-.3744272.373242-.7579054.7377564-1.1258677,1.1173556-.1474004.1520336-.2996495.2331685-.5132078.1923317-.3064377-.0586154-.4237762-.1878062-.1686269-.4482352.2955551-.3014813.5994068-.5947736.9006726-.8925915.1267126.0456855.0056029.2006284.1220794.2653854.1990121-.1091496.2354312-.3145189.2931846-.511807.0590464-.2021368.093526-.4266854.2075243-.5948814ZM36.6371813,8.9148044c.144599.0436383.2463139.1266049.2911374.2769145.0351261.1176617.0857681.230798.1215407.348352.3163506,1.0376214.6746155,2.0612355,1.0193041,3.1078-1.3383484-1.3145359-2.4952478-2.7669904-3.5383644-4.3700778.7020915.2124807,1.4040752.4252847,2.1063822.6370112ZM37.3006988,8.3313443c.654251-1.002603,1.0174724-2.0993786,1.9940002-2.7898332-.2538563-.2406032-.5977906-.159576-.7900146-.4030884.0635718-.1292986.1809103-.0807039.2682946-.0759629.3852021.0211188.8984099-.0110981,1.0487195.3292805.12014.2719581-.3465203.5217199-.5950969.7148059-.514393.3995327-.5599708,1.0310487-.7030612,1.5464115-.1955642.704462-.6208489.6497256-1.2228417.6783867ZM40.1477466,6.9300706l-.631947.7618921c-.0477327-.0338331-.0954655-.067774-.1430905-.1016072.1010684-.328203.395115-.6531735.1485857-.9939831-.1242344-.1717517-.2396334.1688424-.4038427.091802.2869352-.7797784.9404319-1.0626191,1.801453-.7626463-.1589296.3132259-.5206424.4737717-.6144917.8240632.723749-.7232103,1.6087981-.9954916,2.6065524-.8794461.446619.0519349.8107023-.095681,1.215838-.3327284-.2686179.2523478-.2344615.4350898.0482715.5766718.37238.1864055.4721555.5002779.5138543.9005649.0888928.8533709.1796173,1.6897174-.3934988,2.4315683-.0498877.0645416-.069067.163024-.0763939.2481456-.0099129.1148603-.051073.2667861.1014994.3133337.1250964.0381431.1717517-.096112.2265958-.1792941.3006193-.4557776.4897185-.9583183.5872312-1.5274477.6664266,1.1309319.0643261,2.5808004-1.1230662,2.807073-.1383495.0262907-.2424349-.0277992-.3429646-.0964352-1.45267-.9920436-3.0300054-1.707496-4.7320062-2.1526065-.1648557-.0430995-.3356377-.1106581-.4947827-.3481365,1.1157393.0310317,1.3207854-.8645768,1.706203-1.5807834ZM48.0631925,11.2155655c-1.6951049,1.7853984-3.0347463,3.6356616-3.3573464,6.0471886-.2215316-1.3230481-.3705483-2.6455575-.0196103-3.9354189.3135491-1.1528049,1.8262352-2.0813845,3.3769567-2.1117697ZM39.2966384,9.9124509c.6433684.0303852,1.2034469.2466371,1.727214.586477.7882906.5114838,1.4804692,1.1383666,2.1297637,1.8145984.1122743.1170152.2126962.2258416.1972881.4090146-.1560203,1.8662101.2497618,3.6854416.465475,5.5208355.2468526,2.1006715.4804521,4.2029593.724611,6.3039541.1361945,1.1713377.3544937,2.3286681.5874467,3.4990361-.8807391-1.8543577-1.8417511-3.6839331-2.3877145-5.6769636-.6679351-2.4378177-1.7482251-4.7216623-2.5657156-7.1024808-.5372358-1.5644055-1.1435385-3.1070458-1.3981491-4.7572194-.0719762-.4668758.0286612-.6204179.5197804-.5972519ZM65.0492597,34.6772308c4.2081313,2.197861,7.6412251,5.3463901,10.663688,8.9602865,2.3127213,2.7651587,4.2975628,5.7528188,5.2628847,9.2634917.9411862,3.4231809,1.3310215,6.9353624.7128664,10.4666154-.420005,2.3990281-1.6009324,4.5033631-2.9890608,6.4787228-2.4607682,3.5017298-5.5910877,6.3267969-8.982375,8.8986541-4.0838969,3.0971329-8.727549,4.9845695-13.5898235,6.4154742-3.92723,1.1558219-7.9225573,2.0078998-11.9833959,2.5209998-2.686071.3394089-5.3511311.0614168-7.9866679-.5051266-2.4794087-.5329258-4.9595717-1.0670368-7.3356493-1.9849493-1.6226977-.6268828-3.0696569-1.54361-4.495282-2.5365156-1.8179386-1.2661567-3.3749094-2.829808-5.0919951-4.2077003-2.4803785-1.99066-4.1916457-4.6027076-5.7882681-7.2936273-1.6158017-2.7237831-2.9142831-5.5868855-3.6477295-8.6868199-.5990836-2.5314514-.5807663-5.0174329.3497528-7.483373,1.2352328-3.2735178,2.49945-6.5503757,4.8142185-9.2304128,4.6647709-5.4008033,10.1296847-9.7168989,16.9209869-12.2127932,3.6833944-1.3536488,7.4265894-2.4386797,11.3038239-3.0407802,1.121019-.1741221,2.2520587.1497709,3.3461405.0077579,6.5067375.0112059,12.7297722,1.1479562,18.5158853,4.1700959ZM55.5622968,11.1345384c.2263803-.7974492-.065619-1.8690115,1.2034469-2.2170403-.4340124.7996042-.8186757,1.5082684-1.2034469,2.2170403ZM57.8945206,2.2730576c.7974492.276268,1.6266844.4781894,2.3362105.9604732.4078294.2772378.7521947.6155692.5858305,1.1815739-.1355481.4610573-.9248084,1.0483963-1.3759528,1.0424701-.0343719-.000431-.0830744.0024782-.1007452-.0175631-.4979074-.5668667-1.0575549-.2866119-1.640153-.1712129-.5921877.1173385-1.1864226-.0781179-1.774839-.1931937-.190931-.0373889-.4643975-.1576366-.5810895.048487-.1061326.187483.1354403.3407019.2649544.4694617.5703147.5664357,1.1080892,1.1606706,1.5994239,1.7995135-.1620543-.747346-.8218005-1.1414913-1.2790866-1.7907859.8761059.2407109,1.6723699.4311031,2.5069925.4284094,1.2343708-.0040945,2.21801-.3923136,2.6993241-1.6195729.1008529-.2570888.2032143-.2407109.3682856-.0824279.4295947.4118161,1.098284.7809637,1.0350354,1.3894214-.0552752.5300166-.7905533.6059795-1.262601.8088706-1.6177412.6953033-3.3462482,1.0468878-5.0116144,1.5931745-.9150032.3001883-1.8315149.4909038-2.7932811.5029716-1.3666864.0170243-2.6426483.4628891-3.8639815.9996938-1.1920255.5238749-2.457859.5684829-3.6943848.8086551-.2460984.0477327-.4740949-.0412678-.4062132-.3204451.3060067-1.2578601-.2409264-2.3492481-.6371189-3.4703749-.1562358-.4420935-.0410523-.6236503.4369216-.5385287.2246563.0399748.4555621.0483792.6781713.0962197.6919631.1488012.6909934.1535421.5398217.8740587.3430723-.3430723.6084577-.1196012.8702874.046332.7440058.4712935,1.429504,1.0328805,2.2110064,1.4464205.3669926.1943789.7395881.3827239,1.2722984.2706651-.5922954-.2917839-1.1144463-.5279694-1.6159095-.8019747-.5258144-.2873662-1.0434398-.5987604-1.405476-1.0976375-.1581753-.2177604-.2262726-.3869261.1732601-.4368138,1.0344967-.1289754,2.0327898-.4290559,3.0221397-.7458375.3300347-.1055939.5512431-.0701445.7921695.184897.4370293.4627813.891083.9165117,1.1917023,1.4772367.2274578.4240995.565035.4606263.9298726.3544937.330789-.0963275.8322521-.0338331.791523-.6387352-.0159468-.2362932.1743376-.1623775.2945854-.1087186.2507316.1118433.4937052.2407109.7608146.3197986-.6282835-.6793565-1.5303569-.8235244-2.337719-1.2127133.2532098.3928523.4144021.5546911.7356014.7424973.3042827.1778933.235539.3560022-.0084044.516548-.3502915.230367-.6802185.1235879-.8946387-.260429-.3284185-.5883087-.8403333-1.0365439-1.2308151-1.6589013.5475796.3971623.9518533.1479392,1.4212073-.1489089.6364724-.4026574,1.3498776-.681727,2.0205064-1.0324495.8074699-.4222677,1.521737-.9539006,1.9836563-1.7706368.0767172-.1357635.1357635-.3334827.3924213-.2444821ZM32.017665,3.755143c.6355027-.445757,1.2926629-.8586506,2.0516458-1.0698383.3836936-.1066714.3849866-.1020382.4542691.3204451.0241357.1467539.9624127.9658607,1.1208035.9581028.3691476-.0183173.7380796-.047194,1.1061497-.0819969.3135491-.0296309.3673158-.1678727.1454609-.3987785-.1480469-.1541886-.3137646-.2795005-.5203192-.3507225-.1489089-.0513962-.3093469-.0977282-.4325039-.1894225-.2571965-.191362-.5726851-.5073893-.3661306-.7650168.2109722-.2632304.3986707.1858668.6102895.2944776.1046241.0537667.1897457.1454609.3324052.2583817.0163778-.3708715-.2090328-.5355118-.3057912-.8099481.5387442-.2585972,1.1272685-.3411329,1.7054488-.4000715,3.5914846-.3656996,7.1550623-1.0402074,10.7850132-.9891344,1.8779547.0265062,3.7151803.3357454,5.5430318.7432516.8750284.1950254,1.7677276.3029898,2.6175428.6161079.3802457.1400735.377552.2705574.1007452.5208579-.2065545.1867288-.4100921.3875726-.4609496.6892694-.0564604.3339137-.3383314.2450209-.5484416.2665707-.3404864.0350184-.5565228.1266049-.3246473.4714012-.7297829.184035-1.5605266.1071024-2.0520768.8930225-.2088173.3338059-.4867015.4885333-.9350445.3516922-.3209838-.0979437-.6686894.003017-.9960304.2114032-.4959679.3157041-1.1062574.3219536-1.6711846.4363828-.7070479.1431982-1.422177.2573042-2.1389224.3379004-.3862796.043315-.8060691.1157223-1.0820139-.3322974-.121002-.1963184-.3583727-.0859836-.5291546.0026937-.3445808.1787553-.6291455.207632-.8242787-.211511-.1344706-.2887669-.3704405-.3229233-.6063028-.1340396-.1796173.143737-.3127949.1902845-.491227.0047409-.2225014-.2313368-.4682765-.3079462-.725042-.0308162-.0548442.0592619-.1157223.117554-.2019213-.0003232-.4028729-.5504889-.9450651-.253964-1.4409253-.2164674-.143737.0107749-.2151745.1183082-.1758461.2663552.0346951.1308071.1327466.2710961-.090078.328203-.1217562.0311394-.2495463.0559217-.3570797-.0224118-.1277901-.0932028-.0693903-.2186224-.0311394-.3368229.0339409-.1049474.1725059-.2366165.0101284-.3129027-.1721827-.0807039-.3925291-.0247822-.4576094.1497709-.1309149.3511535-.3270178.2213161-.5332491.1227259-.8869885-.4244227-1.846061-.7055395-2.6341361-1.3263883-.2387714-.1881295-.5024329-.2550415-.6758008.0453623-.1792941.3105322.0980515.4728019.305899.629792.0519349.0391128.141151.0259675.1996586.0600161.1553738.0907245.5355118-.1315613.4605186.2189457-.049349.230798-.3036363.4748492-.6471396.4196818-.3653763-.0586154-.7302139-.1207865-1.0962368-.1742299-1.5775509-.2301515-2.8244206.3512612-3.7809071,1.5852011-.1310226.1689502-.1871597.1548351-.3136569.0549519-.0276915-.0217653-.0574301-.0408368-.0864146-.0609858-1.4952308-1.0383757-1.5038507-2.0002496-.0168088-3.0435817ZM31.4818299,8.0173642c.0335099-.0397593.0670198-.0795187.1005297-.1193857.6429374.0881386,1.2860903.1756306,1.9289199.2651699.1276824.0177786.2278888.0859836.3109632.1839273,1.5155953,1.7853984,3.1715874,3.4684354,4.2557563,5.5770804,1.2576446,2.4462221,2.3084113,4.9832765,3.1936759,7.5879971.0316782.093526.1111968.1878062.0841519.238125-4.2267718-3.8926426-6.7219119-9.0443306-9.8739967-13.732914ZM33.4622538,21.8753746l-5.0122609,1.5415628c1.6232364-.6672886,3.3102601-1.1287769,5.0122609-1.5415628ZM3.5709993,44.9334126c1.7563062-2.8322862,3.5988115-5.6194257,5.9546324-8.0034767,3.7156113-3.7601116,7.7802211-7.0701562,12.2122545-9.9921972,3.5852352-2.363902,7.5248563-3.5285593,11.5907591-4.5058413.0680973-.0163778.139858-.0247822.2098948-.0243512.3756125.002155.8173828-.1592528,1.0646664.2499773.2345692.3882191-.1065636.7121121-.1981501,1.07167-.2702341,1.0607874-1.1672433,1.3922229-1.9691102,1.826343-2.6529921,1.4361844-5.4894806,2.4719741-8.2247928,3.7299419-2.5932993,1.1925643-5.1512569,2.4504243-7.6724722,3.7906045-4.1680487,2.2155318-7.5437124,5.2739829-10.1700906,9.1950712-1.5229222,2.2736084-2.903616,4.6245806-4.1625535,7.0507614-.1041931.2006284-.2230401.3936065-.3350989.5901404.2710961-1.7721453.767495-3.4747926,1.7000613-4.9786433ZM89.5650319,59.6860617c-1.1839443,5.4713788-3.3907485,10.4812692-6.9736132,14.8263493-1.4196988,1.7215034-3.0745056,3.2150101-4.8675542,4.536873-4.6032463,3.393981-9.3759815,6.5247315-14.528316,9.0345254-2.7543838,1.3416887-5.6453932,2.2853531-8.6818635,2.7545993-.9787905.1511716-1.9665242.1776779-2.9530727.212373-2.9087879.1021459-5.803353.4767887-8.7151579.4911193-3.3691987.0165933-6.762641.0461165-10.07678-.559863-8.5042934-1.5550314-15.9885284-5.1704362-22.0468151-11.4666324-2.9090034-3.0233249-5.5768649-6.219048-7.2734783-10.1251593-1.2828578-2.9532882-2.0702864-6.0224064-2.4002133-9.2173752-.0688515-.6663189-.1193857-1.3356547-.2181914-1.9975559-.2103258-1.4092472.1217562-2.7284163.6060873-4.0304534.7148059-1.921593,1.8427208-3.6540867,2.6034277-5.545079,2.2871848-5.6860145,6.337033-9.8864956,11.1116-13.5129986,3.3557301-2.5489068,7.1154107-4.3507907,10.9638763-5.9932064,2.8343335-1.2096963,5.6703909-2.4146517,8.5895227-3.4131603,1.0388066-.355248,1.9987411-.8796616,2.8638566-1.5653753.3336982-.2645234.6428296-.5514586.8478757-.932674.3276642-.6093197.2064468-1.0264155-.4071829-1.3580665-.5260299-.2843492-1.103887-.3538472-1.6892864-.3678546-.4506057-.0107749-.9016424-.002155-1.3525713-.002155,1.0427934-.491227,2.1332117-.8085474,3.2210441-1.1339489.168196-.0503187.2619375.0415911.3636524.1462152,2.3391197,2.407217,4.3845161,5.0145237,5.6548751,8.165531.1743376.4325039.1250964.6080268-.3313277.7462685-1.422177.4309954-2.8858374.6500488-4.3417398.9115553-3.3751249.606195-6.5178356,1.8990735-9.6330703,3.2687768-2.9384188,1.2920164-5.8800702,2.6013804-8.4497724,4.5556213-3.2757805,2.4912611-6.1649581,5.4076992-8.5310151,8.767847-2.2936497,3.2576787-3.6907213,6.9580974-4.189383,10.9056919-.5806585,4.5957039.1005297,8.9857152,2.7141935,12.9670352,1.2370645,1.8843119,2.2969899,3.883484,3.7319891,5.6389282,3.0478917,3.7286489,6.7091975,6.6757954,11.0558938,8.7679548,2.4452524,1.1769407,4.8743424,2.3850208,7.5352002,3.0252644,3.1505763.7581209,6.3277666,1.2628165,9.5824283,1.0171491,2.1171571-.1598993,4.1697727-.682589,6.2290687-1.1606706,4.2938994-.9971078,8.5471774-2.129225,12.5920692-3.9216271,6.2494332-2.7693609,11.6021805-6.7332255,15.8897227-12.0768142,2.2897708-2.8537282,4.0362719-6.0117392,4.6875059-9.6514953.7897991-4.4145781.1467539-8.6706576-1.7474708-12.7302032-1.822895-3.9069732-4.6236108-7.1023731-7.4969494-10.2460535-2.343322-2.5639916-5.1193633-4.5179092-8.259057-5.9727342-2.7192577-1.260015-5.5799896-2.054555-8.5245501-2.5717495-2.4687416-.4336891-4.95774-.6864679-7.4562203-.8599436-.6149227-.0427763-.6390584-.0670198-.3291727-.58346,1.3047308-2.1741563,2.4572125-4.445933,4.1428355-6.3758226.3326207-.3807844.5582468-.8541251.845182-1.2767161.0621711-.091371.1048396-.237263.2629072-.2228246.2192689.0199335,1.2878142-.2297205,1.5119318-.3586959-.1897457-.114106-.4732329.0548442-.6250511-.230798.3034208-.2540718.6558672-.1514949.9918281-.137272,6.2754007.2661397,11.5911901,3.115127,16.7758492,6.2797106,4.7829714,2.9195628,8.5005221,6.9349314,11.6261007,11.5355917.1069946.1575288.1945944.3280952.2094638.5698837-.3314355-.3370384-.6550052-.682158-.9963536-1.0088525-.3439343-.329065-.7062937-.6387352-1.0590634-.9587493-1.5154876-1.3746598-2.9573826-2.8290538-4.5169395-4.1560886-2.7201197-2.3146608-5.8114341-3.9869229-9.1639318-5.1572909-2.148081-.749932-4.0347634-1.8171843-5.4949758-3.5957946-.5361583-.6531735-1.1890085-1.1979517-1.849078-1.7342177-.5858305-.4759267-1.239004-.5250601-1.9303206-.5082513-.1978269.0048487-.3008348.1212175-.2616142.3097779.0391128.187914.0941725.3813232.186621.5477951,1.3221861,2.3828658,3.0819403,4.2262331,5.8569042,4.892983,1.9329066.4643975,3.8799283.8800926,5.7474313,1.5959759,3.2393614,1.2418055,5.991698,3.2157644,8.4146463,5.6457164,2.8851909,2.8933798,5.4231073,6.0730483,7.5334762,9.5852298,2.8150464,4.6853509,3.5709046,9.7058008,2.4220864,15.0153408ZM37.6207128,22.1389283c.7208398.4232375.7104959.8137193.0211188,1.5632203.043746-.5326026.2564423-.9972156-.0211188-1.5632203ZM59.42811,25.0770239c.1212175.1303761.3216303.2896289.209787.4959679-.1288676.238125-.3482443.0727305-.5208579.0297387-1.2828578-.3194753-2.5419031-.7109269-3.7273559-1.3065625-.2343537-.1177695-.4397231-.2915684-.6687971-.4214057-.328203-.1859745-.2124807-.4335814-.1456764-.7052162.0756397-.3074075.2984643-.1555893.4577171-.1809103.1545118-.0245667.3160274-.0052797.4745259-.0052797,1.7168701-.0659423,2.8557755.9489441,3.9206573,2.0936679ZM48.1802077,8.8482156c.1156145.229936.1717517.5030794-.0332944.6872222-.211511.1899612-.4415548.0102361-.6135219-.1256352-.6528503-.5160092-1.0376214-1.1928875-1.1066884-2.0411942.1593605.346628.3091314.697997.4815296,1.0380524.1105503.2181914.238125.4322884.3883268.6245123.1110891.1419052.2534253.3580494.4708625.1955642.1830653-.136841.1076411-.355248.0287689-.534111-.1314536-.2981411-.3765822-.5017864-.6153537-.7116811-.205908-.1808026-.4538381-.3355299-.5203192-.7860278.6246201.5480106,1.1864226.9904274,1.5196898,1.6532983Z"/>
  </g>
</svg>