<?xml version="1.0" encoding="UTF-8"?>
<svg id="Layer_2" xmlns="http://www.w3.org/2000/svg" viewBox="0 0 80.712917 92.781451">
  <g id="Layer_1-2" data-name="Layer_1">
    <path d="M80.5088871,50.7582724c-.4750524-3.3585393-1.5092997-6.5701715-2.5086894-9.7933878-.8455322-2.7271019-2.1209389-5.216309-3.8872997-7.4702541-3.2384862-4.1323555-7.2139302-7.385901-11.7584682-9.9631471-5.1060497-2.8955976-10.5535137-4.7848549-16.4054726-5.4487277-1.1948447-.1355337-2.3936912-.1944018-3.6800501-.2104089.368163-.6546056.6997834-1.2443403,1.0686836-1.9004202.0325407.2240992-.0071611.4000718.1833443.455886.1833443.0536027.290339-.0752965.3960701-.1858718.2288381-.2394744.4000718-.5230736.5292869-.8224693.8462693-1.9619211,1.8557688-3.8440174,2.7896559-5.7631827.4831612-.9927552.8336322-2.0354273,1.0237163-3.1317021.1715496-.9885429-.013585-1.7824732-.8469012-2.4654071-1.2132739-.9942296-2.468777-1.9378052-3.6581456-2.956256-.8134127-.6966242-1.5964962-.834264-2.5885143-.5168604-1.2441297.3981763-2.5085841.7428551-3.8385413.7500162-2.9806878.0159018-5.9594801.1985089-8.9414317.1084691-.251901-.0075823-.4553595.062554-.6729295.1930328-1.7084405,1.0250853-3.178249,2.3592549-4.6966053,3.6275005-.4749471.3968072-1.0227685.8058304-.9513685,1.5762767-.0943576-.5302347-.5853117-1.0349845-.021062-1.5649032,1.6350396-1.5357324,3.3623305-2.9616268,5.1375373-4.3309698.2140948-.1651257.4406161-.2302072.7155799-.2272585,3.5384084.0371744,7.0585982-.3063461,10.5850013-.5210728.1165779-.0070558.2843364.0494956.3403612-.1720762-1.0278234,0-2.047222-.0640283-3.0559843.0125319-2.5459691.1930328-5.0933072.3412037-7.6450684.2720151-.7192658-.0194823-1.2597155.2048275-1.768783.65271-1.3066837,1.1499827-2.6248461,2.2870124-3.9277386,3.4413128-.3081364.2730682-.5780454.590156-.8579587.89408-.1161567.1261611-.2177806.2650647-.1847133.4604143.1926116,1.1367137.2970789,2.3116549,1.0692101,3.2461738,1.4697032,1.778998,2.9070763,3.5899049,4.4651344,5.2891834,1.5700634,1.7122316,3.029341,3.5288252,4.7972815,5.1344834-.9820136.2212558-1.90716.3999665-2.8160887.6403887-2.3496717.6215383-4.7029239,1.2842527-6.8192291,2.4980532-5.4514658,3.1267525-10.1864038,7.1290505-14.1763806,11.9886753C1.7381238,42.0628444-.7688807,50.7011945.2032338,60.3221902c.4016515,3.9752334,1.4982422,7.8081932,3.2252171,11.4332716,2.5939904,5.4448313,6.5446865,9.7461037,11.289945,13.3842404,6.2102227,4.7613708,13.3200015,7.0004672,21.0345743,7.5407064,3.3639101.235578,6.7167627.0388593,10.0607693-.3792205,5.6767234-.7097879,10.9339979-2.6925603,15.6560882-5.811204,4.8958514-3.2334313,9.071384-7.3513594,12.7303721-11.957293,1.993514-2.5093213,3.7111164-5.1771338,4.6038274-8.3052553.8252074-2.8912799,1.3077368-5.8430075,1.6707396-8.8213785.2702249-2.217192.3481541-4.4274335.0341204-6.6477848ZM41.6134592,17.6233944c.138693-.5913144,1.8564007-3.784728,2.5907258-4.8162372-.1976664,1.0657349-1.801429,4.0472652-2.5907258,4.8162372ZM46.26436,7.77335c-.7750799,1.5766979-1.6923281,3.0735711-2.6226346,4.5607557-1.1049102,1.7663608-2.0840804,3.6009624-3.0534569,5.4428304-.2715939.5160179-.6145878.9942296-.9188278,1.4933979-.1055204.1731293-.2773859.3362541-.2495842.5489799.0227469.1751302-.0501275.2167275-.1790266.2367364-.1539629.0239053-.3174037.0440195-.4251356-.1042567-.089408-.1231071.005792-.2335771.0619221-.3325683,1.5745917-2.7768081,2.4096983-5.8335296,3.3471659-8.8508653.1425894-.4588347.2678028-.9271473.3495231-1.3999881.1255293-.7270587.5250745-1.1934757,1.1917907-1.4880271.8646986-.3819586,1.7129688-.8008808,2.5680842-1.2042173.1535417-.0723478.3049771-.1433266.2949727.2222036-.1002549.2429496-.2138842.5681462-.3647931.8750189ZM41.2745723,18.0770689c-.3264603.7250578-.7755012,1.3666049-1.3405934,1.9292751.3079258-.7375897.8064623-1.345543,1.3405934-1.9292751ZM33.8487589,17.6855272c.1495399.330778.266539.6731401.3079258,1.0357216.0090566.0799301.0077929.1962974-.0400177.2402116-.0947788.0871965-.1990355-.0082142-.2679081-.0698204-.1789213-.1603868-.3572108-.3260391-.5094887-.511279-2.1685389-2.6391683-4.4857751-5.1448037-6.843661-7.6134754-.9872791-1.0337207-1.8307051-2.1989734-2.8943338-3.1869897,2.0673362,1.0140278,4.3658273,1.481182,6.3346988,2.7153072.174393.1093115.3541568.1958762.4516736.402178,1.1108075,2.3505142,2.3896894,4.6179389,3.461111,6.988146ZM31.2897314,10.6695794c.4726303.5844692.7832941,1.2536076,1.0267703,1.9573928-.3846966-.6308055-.7965631-1.2481314-1.0267703-1.9573928ZM33.8558146,16.1089346c.7806614.9922287,1.2022164,2.1595875,1.6614723,3.3071482.3189833.7966684.3115063.7986693,1.1451385.7410649.2511638-.0172708.5028542-.0271699.9005039-.0481266-.6594498.2290488-1.1945288.1614399-1.7245529.1644939-.1279514.0007372-.1958762-.0664505-.2296806-.1657576-.4710506-1.3830333-1.1255509-2.6848727-1.7528812-3.9988227ZM37.2979699,19.7415952c-.4767373.1327956-.6270144-.1107859-.7491737-.5217046-.9035579-3.0390295-2.485416-5.7701331-3.9301608-8.5627377-.3640559-.7036799-.3724807-.6666109.4163948-.7296914,2.5551311-.2041957,5.109209-.4240825,7.6613914-.6621879.4309276-.040123.4972728.0395965.3733231.4513577-.2830727.9405216-.6402834,1.8512405-1.0110791,2.7579577-.9139835,2.2347787-1.6380935,4.5253716-2.0074149,6.9169566-.0842478.5459259-.5027489.2574824-.7532808.3500497ZM42.8244162,7.1168489c1.0258225-.2635904,2.0069937-.6576595,2.9978533-1.0238216.1535417-.056762.2863373-.1866089.5080144-.1478549-.2688559.3168771-.6174312.4661011-.9486304.6273303-.7266374.3534196-1.4612784.6905162-2.1992893,1.0197145-.1628089.0726637-.3387815.292024-.5351843.0208513-.1915585-.2646435.1257399-.329409.1772364-.4962197ZM40.3050905,1.682022c.0166389-.0046336.032646-.0108469.0490744-.0160071,1.9939353-.6234339,1.6941183-.8510083,3.5414624.5581418,1.0274022.7837153,1.9584459,1.6840086,2.9256108,2.5944116-.7938251.554456-1.6221918.9969676-2.4780443,1.3993563-.5285498.2485311-1.1115447.418817-1.5137227.8869189-.4229241-.0440195-.3988081-.4611515-.5747807-.7062073-.2582196-.3595276-.5369745-.7367472-.041808-1.1464022.1773417-.1466965-.0048442-.2779125-.0878284-.394701-.648287-.9129304-1.2862536-1.8338644-1.959183-2.7283656-.2089346-.2778072-.1385877-.3696373.1392195-.4471453ZM34.5240052,2.2553285c1.2567668-.0327513,2.5130071-.0882496,3.7690368-.1439585.1880833-.0083195.3300408-.0018956.4193435.1976664.7169489,1.6017617,1.8949441,2.9103409,2.8019772,4.3916282.2159903.3526824.4141833.7129472.5580365,1.1035411.1471178.3999665.0344363.6024772-.3961754.6849348-.966849.1852399-1.9453875.2595886-2.9223462.3444683-1.5607962.135639-3.1232773.2510585-4.6856531.3665833-.2900231.0214832-.5829949.003054-.8745977.003054-.0007372-.0223257-.001369-.0447567-.0020009-.0670823.5071719-.0485478,1.0142384-.0969903,1.5860705-.1516461-.2922346-.281493-.5909985-.2014576-.8656463-.1947178-.412709.0098991-.8248915.0650814-1.2368633.0619221-.2723311-.0021062-.5670931-.1134186-.4909542-.4522002.1674425-.7445401.2423178-1.5237271.6849348-2.278061.0720319.3441523-.0780345.5560356-.1287939.7841366-.0521283.2344196-.1387983.4609409-.1991408.6937808-.2278904.8803897-.1319531,1.0288765.788349,1.0740544.9806446.0481266,1.9593937.0112681,2.9411967-.0662398,1.4417961-.1138399,2.8898055-.1476443,4.3348662-.2207293.2121992-.0107416.4428276.0311717.6909374-.1663894-.6060578-.0975169-1.1441907-.1457487-1.6880104-.1217381-2.0650194.091093-4.1300387.1834496-6.1951634.2761222q-.832895.0372797-.5304453-.7582304c.2370523-.6276463.4679966-1.257504.7046277-1.8852556.2641169-.7004153-.0646602-1.475074.3079258-2.1675911-.4806338.5883657-.6944127,1.3018394-1.095327,1.922114.068662-.8000384.3126647-1.5572156.5312878-2.3179734.2606417-.9068225.2723311-.8881826,1.1925279-.9121933ZM28.0473487,2.4153993c.1583859-.1215275.3347798-.1522779.5322356-.1512248,1.3440686.0063186,2.6884532.0189558,4.0322059-.0033699.4165002-.0069504.4041789.1399567.3007647.4554648-.5200197,1.5853333-1.2069553,3.1129569-1.6265095,4.7329372-.2157797.8334216-.2215718.8225746-1.0342473.4913754-1.7372953-.7078923-3.4818571-1.3955651-5.3084551-1.8486078-.2803346-.0695045-.5524551-.172708-.9429437-.2966576,1.3834545-1.2016898,2.6803444-2.3319796,4.0469493-3.3799172ZM23.0653539,6.4079035c.0620275-.1554372.1693381-.2851789.3541568-.1700753.9614782.5988967,2.1163052.5013798,3.143918.8873402,1.2847792.4826347,2.6110505.8545888,3.9147855,1.2879385.1860824.0618168.4842143.0769814.3747975.4280842-.0891974.2858107-.2386319.4634683-.4273471.3956488-.88218-.1311107-1.5629024-.4165002-2.246784-.6966242-1.2226465-.500748-2.3583071-1.2055863-3.6431916-1.5591112-.4139727-.1139452-.8346853-.2031426-1.2495005-.3140337-.1215275-.0325407-.3037134-.0510752-.2208346-.2591674ZM30.7583382,17.4483696c-2.3158672-2.5032133-4.6117256-5.0247506-6.9131654-7.5412329-.4190276-.4582028-.7912976-.9541066-1.1241818-1.4784439-.2193603-.3455214-.4044948-.7065233-.4078648-1.1686226,3.4507907,4.7714806,7.9051835,8.6439316,11.5906044,13.2003696-1.1206013-.9279897-2.1588504-1.9457034-3.1453923-3.0120702ZM78.6892395,61.6191854c-1.1714659,5.2834967-3.3067269,10.1041569-7.2038204,13.9998814-1.0271915,1.0268756-1.85956,2.2181398-2.8185108,3.303357-2.3216593,2.6273736-5.1380639,4.6320504-8.0829464,6.4734971-4.2527246,2.6592824-8.7771484,4.6723841-13.7171246,5.6773552-3.7409191.7610737-7.5225931.895449-11.3206954.7088401-4.6976584-.230839-9.1628981-1.4551705-13.4998706-3.2158446-2.2104522-.8973446-4.1252998-2.2800619-6.0423589-3.6549863-2.2164548-1.5895457-4.3457131-3.2858756-6.1545138-5.3469985-.2385266-.2718045-.460625-.5581418-.6879888-.8397401-.0305398-.0379115-.0469682-.0871965-.0699257-.131216.0220097-.0241159.0441248-.0483372.0662398-.0724531,1.038565.9524216,2.0781831,1.9036848,3.1154844,2.8575807,1.7690989,1.6268254,3.6007518,3.157187,5.8702827,4.0686431.6071108.2438974,1.1599872.6238551,1.6451493,1.0621544,1.9851946,1.7934255,4.3724618,2.6845568,6.9479177,3.1878322.9965464.1947178,1.9836149.4398789,2.991956.5705684.2893913.0374903.5837321.0425451.876072.0485478.1116284.0022115.2691718.0286443.2986585-.1293204.0294867-.1575434-.1224753-.1859771-.2307337-.2288381-.5785719-.2288381-1.1814704-.3689001-1.7899502-.4896905-1.418312-.2815983-2.8561064-.4632577-4.2589379-.8225746-1.418628-.3635293-2.7323674-.9307278-3.817374-1.9554972-.7059967-.6669268-1.5221475-1.1621987-2.4024319-1.5858599-1.780367-.8569056-3.3677013-2.0184724-4.8532009-3.3132561-1.2994173-1.1325013-2.5719806-2.2959637-3.8559174-3.4463677-.4494621-.4028099-.9145101-.7844525-1.4060961-1.1369243-1.3573377-.9734836-2.163484-2.3965345-2.9777392-3.7908359-2.1210442-3.6321341-3.2264809-7.614002-4.0049307-11.7163442-.745172-3.9273174-.5925781-7.8391543.2436868-11.7028646,1.3804005-6.3767174,4.4143751-11.909693,8.9018352-16.6504231,1.8974715-2.0046769,3.7713536-4.0411573,6.0028678-5.6796721,4.6867062-3.4414181,9.7692718-6.1175501,15.38302-7.7246826.1305841-.037385.2404222-.093831.3860656.0021062.3161399.2081974,1.5950218,1.5029811,1.8552423,1.935383-.5542453.1855558-1.0945898.377009-1.6412528.5478214-3.146972.9832774-6.0686864,2.425916-8.7827299,4.2936901-.2753851.1895576-.5689887.3662674-.6403887.7687614,3.6530908-2.3414575,7.433817-4.3746733,11.7544664-5.1701834-.2293647-.7127366.1430107-1.1957925,1.0265597-1.2788819,1.338066-.1259505,2.679186-.2257842,4.0207272-.3060302.2882329-.0172708.4891639-.0933045.6535525-.320563.2019841-.2791762.4646267-.5246533.6167993-.827103.2866532-.5701471.6781949-.6668215,1.2880438-.5548772,2.5251178.4634683,5.025909,1.0285606,7.5062701,1.6849564.7349569.1944018,1.3881934.6024772,2.0916627.88218.1434319.0570779.2927612.1021505.4429329.1377452.1225806.0289602.2491629.0127425.3109798-.1167885.0685567-.1435372-.0433876-.2290488-.1376399-.2972895-.3374125-.2441081-.7184233-.402178-1.1049102-.5528763-2.6600196-1.03688-5.4195569-1.6881157-8.2316438-2.1386309-.1186841-.0189558-.2375789-.0403336-.3535249-.0711894-.0439142-.0117947-.0797195-.0534974-.1787107-.1236337,1.1635677-.0595,2.2502593.0871965,3.3345287.2091452,7.2420479.8150977,13.7119645,3.5730553,19.5961481,7.8053498,2.2196141,1.5966015,4.1206662,3.4786978,5.6071136,5.7965659,1.2913085,2.0135229,2.8153515,3.8708714,3.9777608,5.9765403,2.4309708,4.4034229,3.8213758,9.0842317,4.0034564,14.128254.1123655,3.1111667.1254239,6.2209643-.5496117,9.2656805ZM74.046974,53.3704814c-.4075488-2.4650912-1.0986969-4.8693133-1.7737325-7.2702709-1.3735554-4.8853204-3.7111164-9.2325079-7.488578-12.6967782-2.7433196-2.5158505-5.809519-4.5904531-9.1151928-6.3023687-1.9617105-1.0158181-3.9869227-1.8749352-6.1637811-2.3271354-2.8775896-.597633-5.7842447-1.0045499-8.7233351-.8323685-5.5574074.3255125-10.8009917,1.799744-15.753921,4.3785698-4.2128122,2.1932867-7.950572,4.9300771-10.9109351,8.6863714-2.6493833,3.3616986-4.6795451,7.0350088-5.9952854,11.1196591-.9374676,2.9108675-1.4946616,5.86765-1.5207784,8.543782-.0038965,3.0341852.4041789,5.7406464,1.2004261,8.214373,1.251712,3.8895112,3.3851827,7.2927019,5.8240518,10.5265544,3.5911686,4.7616868,7.9338278,8.586959,13.4790192,10.9551652,3.6261315,1.5485802,7.3451461,2.6687603,11.321222,2.7341577,2.0222636.0331726,4.0211484-.2714886,6.0234032-.4972728,1.4542227-.1640726,2.9052861-.3791152,4.3141202-.791403,2.6122089-.764549,5.1270064-1.8086954,7.6808737-2.7381594,2.9315082-1.0668933,5.3739578-2.9420392,7.6215843-5.0458125,4.6561664-4.3579291,7.5610312-9.7709568,9.2606256-15.8594414.9881216-3.5399881,1.3235332-7.1484275.7202135-10.7976218ZM71.6445422,65.9131914c-.8362649,2.9328772-2.2329885,5.5248667-4.0317847,7.9635251-5.0298054,6.8190185-11.7568885,10.9601148-19.9905332,12.6489676-2.8949657.5937365-5.8552234.9371517-8.8142175,1.0859544-4.6717522.2349461-9.0958158-.8577481-13.1676182-3.091895-6.8825203-3.7764085-12.0773461-9.2028106-15.2613872-16.4324319-1.8212272-4.1351989-2.4296018-8.5034483-2.3860036-13.0092323.0517071-5.3293064,1.8569272-10.0726693,4.7283036-14.4245957,5.4928525-8.324843,13.1722519-13.5610556,22.9646918-15.4800103,9.5690779-1.8753565,18.0178705.7861375,25.5061326,6.8385008,1.5028758,1.2147482,2.881802,2.5669257,4.2521981,3.9287917,2.4702514,2.4549815,4.1435184,5.3882799,5.3226719,8.6372971,1.4442182,3.9790245,2.3642044,8.0576721,2.4118044,11.166206.0231682,4.2411405-.6893578,7.2055054-1.5342581,10.1689224ZM70.7224498,36.6747751c-2.322923-4.3501362-5.7531783-7.6638135-9.6688063-10.5307668-2.060491-1.5086678-4.4126902-2.4707779-6.791322-3.3425322-3.166349-1.1605137-6.4036768-2.0245804-9.8132913-2.014576-.2017735.0006319-.566356-.156385-.584048.1706018-.0165336.3062408.3580532.2559028.5761498.2713833,1.2196978.0866699,2.4403434.1488027,3.6522483.3299355,3.8084227.569094,7.3381957,1.9556025,10.754866,3.6666757,1.8633511.9331499,3.5240863,2.1554805,4.994632,3.6331872.129531.1301629.3851178.3047665.2788603.4492515-.2521116.3425727.0511806.4816869.1831337.6518675,1.3417518,1.7290812,2.7053028,3.4411022,4.048213,5.1693409,2.1478982,2.764171,4.2549361,5.5630941,5.7684482,8.7394475,3.3269464,6.982354,3.7096421,14.025261.3271975,21.1222973-.5256011,1.1029093-1.0087623,2.2261433-1.4990846,3.3454809-.0981487.2240992-.2363151.4509365-.1985089.7284277.2138842-.0382274.2442134-.211778.3167718-.3379391,1.3527041-2.3515673,2.471831-4.8089708,3.2259543-7.4169674.5637232-1.9497052,1.1508252-3.9034121,1.264981-5.9481067.177447-3.1790915-.5310772-6.1863174-1.7958476-9.0879176-1.4483253-3.3229446-3.3381092-6.4107325-5.040547-9.5990912ZM65.0948008,30.0507903c2.5526036,2.3104964,4.3606671,5.1712365,6.0258253,8.1374969-1.9157954-2.781863-4.1320396-5.3395215-6.0258253-8.1374969ZM5.0351622,50.8863291c.4622046-3.1685605,1.0864809-6.2794112,2.410962-9.2166061,1.4365306-3.1859366,3.4363632-5.9978129,5.6420765-8.6778413.1547001-.1880833.3374125-.6381772.6654525-.3217214.2880222.2778072-.1307947.4758949-.2848629.6587126-3.0391348,3.6069651-5.4483065,7.5644011-6.8048017,12.1162055-.5073825,1.7026484-.725479,3.4686933-1.1584075,5.1872435-.025169.1002549-.0371744.2063018-.0787717.2990798-.0640283.1426947-.0454938.4048108-.2877063.3475223-.1904001-.0449673-.0810885-.2618001-.1039407-.3925948ZM5.5895128,67.8384647c.0882496.1933487.3264603.478317.1186841.5967905-.2614842.149224-.3832223-.2086187-.4974834-.3985975-.8397401-1.3968288-1.3577589-2.9330878-1.8718812-4.4655557-.7057861-2.1036681-1.3926165-4.215129-1.7470892-6.4158927-.0692938-.4293479-.031277-.8501658.0667664-1.2982589.2719098.1048885.2605364.2918134.284547.4564126.5896294,4.0398936,1.9619211,7.831572,3.6464562,11.5251017Z"/>
  </g>
</svg>