<?xml version="1.0" encoding="UTF-8"?>
<svg id="Layer_2" xmlns="http://www.w3.org/2000/svg" viewBox="0 0 75.8252581 95.9533178">
  <g id="Layer_1-2" data-name="Layer_1">
    <path d="M71.8775362,53.8109554c.3217941-.454625.6277056-.9185488.8759235-1.4157313.8039084-1.610396,1.6007578-3.2241179,2.6365942-4.7042623.4350771-.6216647.5144226-1.298308.3676774-2.033052-.495825-2.4824506-.9713554-4.9684307-1.3376074-7.4747054-.452996-3.1002465-.8647241-6.2059908-1.1071727-9.3295183-.2869744-3.6988338-.4384708-7.4081882-.9482779-11.08856-.3809809-2.7508273-.8345199-5.4880797-1.3608206-8.2151509-.4297828-2.2271737-1.5776804-3.9747446-3.3447992-5.3582354-1.6039479-1.2557505-3.3482608-2.261179-5.2443415-3.0001991C60.1468812.307608,57.7773062-.0052945,55.360219.0000676c-4.4702302.0099097-8.9256637.3762297-13.3873416.5898993-3.7292417.1785784-7.4561077.4070448-11.1837204.6185425-3.129229.1775603-6.250856.4241492-9.3269391,1.0683484-2.0576905.4309367-4.0390898,1.033325-5.7561849,2.3250491-1.317245.991039-2.5894891,2.0283686-3.7314137,3.2186879-.709834.7399025-1.3594631,1.5292178-1.8418489,2.4405719-.6825484,1.2895521-.9653145,2.643721-.7999038,4.1157204.2811372,2.5024058.7707176,4.9635438,1.451637,7.3796129,2.1720595,7.7075157,3.6582447,15.5595368,5.0331154,23.4368751.2824268,1.6183374.5658038,3.235453,1.0228723,4.8193778.4504168,1.5610511,1.2459087,2.8861017,2.4683327,3.9572329.1618134.1417903.3599397.2583991.4468194.4813676-.1472203.1929-.3683562.2474713-.5630209.3348261-.6482037.2907075-1.3003442.5728628-1.9550639.84857-1.2598909.5306447-2.3981502,1.2471304-3.4307965,2.1464028-2.7372524,2.3836929-5.2611745,4.9804446-7.6969273,7.6655692-1.5537206,1.7127511-3.0352904,3.4834672-4.390138,5.3623757-.8622128,1.1956814-1.2674928,2.514216-1.4121339,3.9597443C.0504534,77.3387827-.0101588,79.9150362.0013121,82.4934617c.0061766,1.3990341.0137107,2.7983397.1612704,4.1953375.16799,1.5905766.8955393,2.8020728,2.2295494,3.6793537,1.0109263.6647652,2.1041847,1.1457256,3.2355208,1.5508699,4.2127134,1.5086518,8.5927381,2.2030782,13.0197999,2.6676808,3.40609.3574962,6.8275198.4756662,10.2451485.6484752,4.3060412.21781,8.6120824.4384708,12.9198883.6165741,3.7546947.1552974,7.5087785.1519715,11.2608261-.1474239,2.0811752-.1660895,4.1645902-.3457539,6.2571005-.3150745.8233884.0121496,1.642365-.0648882,2.4629706-.1221067,1.9974178-.1393468,3.6932002-.9153587,5.0642699-2.3719506,2.3190083-2.4637172,4.4371073-5.0917591,6.4102259-7.8402787.7282959-1.0144558,1.0652261-2.1288232,1.1056795-3.361157.0385529-1.1772194.0942101-2.3542352.1643926-3.5300293.2932189-4.9100585.298038-9.8186237-.063938-14.7253563-.0621733-.8427327-.212923-1.6726371-.4058909-2.4969079-.3957097-1.6902167-1.3744634-2.9027989-2.9172562-3.6839013-.794338-.4021578-1.6168441-.7330472-2.4478345-1.0471036-.1531254-.0578293-.356003-.0510418-.4285611-.2944406,1.5957351-.0396388,2.7221842-.8607195,3.6030625-2.1050671ZM70.1889485,10.5950425c.5669577,3.2831689.9801112,6.5881935,1.3809115,9.8951864.4115924,3.3955016.7899941,6.7945327,1.1290962,10.1978398.1276724,1.2816787.2022667,2.5686515.3002778,3.8533167.2860241,3.7482466.8254926,7.4588227,1.6933389,11.1174747.1204098.5079745.089934.9418298-.1677185,1.3978802-.5897636,1.0439135-1.1466758,2.1064246-1.7200816,3.159569-.0488698.0898662-.0729653.2149593-.2641685.2196426-.0500237-.6930011-.1066312-1.3889207-.149528-2.0856549-.1354101-2.1970374-.4802138-4.3698434-.7475724-6.5516769-.2998706-2.4466128-.5936324-4.8939043-.8841363-7.341603-.3402561-2.8668931-.6794261-5.7338541-1.0090258-8.6019012-.2079003-1.8092011-.3843068-3.6220675-.5982479-5.4305219-.3261381-2.7570718-.6263481-5.5283973-1.6143327-8.1449684-.2997348-.7937272-.293694-1.3439877.3575641-1.9052439.3311608-.2854133.5710302-.6780686.845855-1.0272163.2713632-.3446679.5347172-.6956482.8645884-1.1261776.3547134.8362168.4516385,1.6124322.5831797,2.3740547ZM11.6564904,9.245014c1.8048571-2.0859943,3.9097206-3.8113701,6.2832323-5.2132549,1.4238762-.840968,3.0093622-1.1844142,4.6048936-1.4815019,3.1799314-.5920035,6.4026239-.7127526,9.6242983-.7872791,3.5347127-.0817891,7.0603301-.3282422,10.5902237-.4978612,2.3978108-.1151834,4.7963683-.2144163,7.1945864-.3207081,1.732299-.0766985,3.4646659-.1684651,5.1992048-.1083281,1.8218937.0631235,3.6484707.131677,5.4132139.645353,3.1339124.9122365,5.8954639,2.4576085,8.1006462,4.9062575.7553779.8387281.7436356.8521673.0215163,1.7075926-.5305768.6285201-1.0743892,1.2459765-1.5949884,1.8825058-.1880809.2299596-.3319753.2772683-.6029992.1046628-2.4962971-1.58983-5.2967408-2.2370156-8.1844036-2.5996703-4.2361981-.5320701-8.4878037-.8878016-12.7550206-1.0222614-3.556229-.1120612-7.1132046-.1021515-10.6638678.1716552-1.971829.1519715-3.9510563.2009771-5.9173874.4255746-2.1409728.2446206-4.2805882.5013228-6.4219682.7420066-1.4571349.1638496-2.9163059.3093731-4.3745268.4628378-2.3526063.247607-4.6586504.6808515-6.8166598,1.7063709-.0364487.0173081-.0844362.0103848-.2064071.0228738.1134866-.3255272.3203009-.5317307.5064134-.7468257ZM65.8182906,90.1783752c-.1633745.8768059-.416683,1.7237468-.814972,2.5278588-.2729922.551075-.689268.9034127-1.263081,1.1098198-.8236599.2963411-1.6793567.406909-2.5410265.5030875-1.5043757.1679221-3.0201543.1066991-4.5268377.2413626-1.9254027.1721303-3.8537239.3121559-5.780552.4685393-2.6173856.2123801-5.2371468.2628789-7.8616593.1582839-4.6636053-.1857732-9.318319-.543473-13.9861325-.6621859-4.3788029-.1113824-8.7402977-.5032912-13.0734209-1.1558389-3.0984817-.4665709-6.1740897-1.0490719-9.1352608-2.1163343-.9209244-.3319075-1.8032281-.745061-2.6674772-1.2062698-1.8302423-.9766496-2.7536102-2.51313-2.8983191-4.5557523-.0754088-1.0648189-.1284869-2.128959-.0770378-3.1975789.108939-2.2645727.0171723-4.535322.2047781-6.7976549.0273535-.3293282-.0015611-.6678195.1766779-1.0405197,1.6568902.8502668,3.3531478,1.4322927,5.1185018,1.8117125,1.9358554.41614,3.8956705.67515,5.8664135.8452441,3.9400606.3401203,7.8859584.6061893,11.8199782,1.0247049,3.181764.3384913,6.376017.5444233,9.5706773.7386808,6.348392.3860715,12.702214.5541294,19.0610587.4804853,3.5114316-.040657,7.0229312-.1244823,10.5294079-.3393058.4005967-.0245028.797596-.0228738,1.1929664.069911.8038405.1886239,1.2256141.6292667,1.3376753,1.4533339.0478517.351659.0663136.7084086.0800243,1.0635971.1109752,2.8667574.197244,5.7331075-.3323826,8.5748191ZM73.3804186,63.4346428c.1926964.8903129.2000947,1.7598562.2655938,2.6199648.3464327,4.5482861.28935,9.0992872.0030544,13.6481163-.0570148.9063992-.1631709,1.8113052-.3295318,2.7088807-.1398898.7546313-.4069769,1.4458676-.8056053,2.0984154-.7896547,1.2926744-1.7153304,2.4851656-2.6726356,3.6534256-.8446332,1.03061-1.7137014,2.0411291-2.5687873,3.0632548-.0707934.0846398-.1171518.1897099-.2036242.3327898-.2299596-.3008208-.1546865-.523993-.1355458-.7270742.3025177-3.2085746.3578356-6.4287557.4517064-9.6468327.026539-.9105396-.0237562-1.8216222-.1710443-2.7220484-.035227-.2152308.0145252-.3917051.0889838-.5771389,1.876465-4.6754834,3.77241-9.3429575,5.7457322-13.9785306.0654991-.153872.0790741-.3500979.3317038-.4732227ZM69.9991029,57.6314886c.624787.295866,1.225682.6429774,1.6994477,1.1565855,1.0367866,1.1239378,1.4751217,2.355457.9023946,3.8989964-1.1598435,3.1258353-2.4587623,6.1928231-3.760464,9.259811-.4772951,1.1246165-.9481422,2.2520159-1.4269985,3.3759537-.2526298.5930216-.5237215,1.1767443-.8888197,1.7127511-.2229685.3273599-.510418.5314592-.9019195.6313029-.7358979.1876058-1.4845562.2962054-2.2364726.3436498-8.5896837.5421834-17.1835756.8612625-25.7909068.4684714-2.3537601-.1073778-4.7084705-.1935109-7.0525245-.444308-2.1207462-.2269052-4.2384379-.4831324-6.3595913-.7062366-1.6572975-.1743702-3.3167669-.3302785-4.9771187-.4720009-2.3030577-.196701-4.5961378-.4798744-6.8904397-.7543598-1.7868703-.2137375-3.5726547-.4322263-5.3245016-.8606517-.9722377-.2376973-1.9268959-.5343099-2.8413722-.942848-1.6561436-.7399704-2.0064451-1.7559194-1.1756583-3.3805691.3049612-.5962796.7018927-1.1347977,1.1164715-1.656483,2.9803797-3.7500792,6.2665351-7.2141343,9.8080352-10.4368947,1.3877669-1.2628774,3.0577569-2.0403825,4.7771597-2.7264603.031969-.0127605.0799564.0144573.128419.0247064-.0191407.2420413-.2074931.3800985-.3485368.5362783-1.9223483,2.1292305-3.7668443,4.3230777-5.5248678,6.5903655-1.0720136,1.3826084-2.4373818,2.4582193-3.7825912,3.553514-.7418709.6040173-1.4607322,1.2333518-2.0729623,1.9746797-.3268169.395574-.6220041.8130036-.8504026,1.2722441-.6837022,1.37521-.3275635,2.4071775,1.0515833,3.0722821.749405.3613651,1.5581325.5100108,2.3667921.6585207,2.2357938.4107779,4.5034209.4914131,6.7631067.6597424,1.861261.1386681,3.7207573.302382,5.5809324.4558467,1.9488873.1607274,3.8968244.334351,5.8467298.4809604,2.836621.2133982,5.6739886.4187871,8.5124423.6076146,4.9896755.3319075,9.9765682.7480475,14.9837554.6795619,2.9115547-.0398425,5.8219556-.140365,8.7270622-.3523378.665919-.0485983,1.3196206-.1757277,1.9648379-.3504373,1.5588791-.4220451,2.7376596-1.3069281,3.5137394-2.7476372.7297213-1.354644,1.3065887-2.772683,1.8541342-4.2039576.5644463-1.4756647,1.2049123-2.9142697,1.9511272-4.3067878.398832-.7443144.7599934-1.506344,1.0749322-2.2914511,1.1077836-2.7615515-1.4491256-5.0759443-3.4910692-4.9239049-1.7506931.1303874-3.5009789.2651866-5.2513326.4004609-.0611551.0047512-.120274.0356342-.2306384.0699789.1883524.3702567.5220925.5547402.8169403.7674597,2.1032345,1.5170682,3.3417448,3.5855509,3.8711677,6.0951514.2036242.9653824.1942575,1.943661-.0135749,2.9131158-.2754357,1.285276-.6582492,2.535868-1.2231028,3.7264588-.2583312.5444911-.5662111,1.0580993-.9556763,1.5195796-.5309841.6292667-1.1790521,1.0552485-1.996196,1.2454335-2.1463349.4995581-4.318055.8212164-6.5110878,1.021922-4.7999656.4393532-9.5935511.2115656-14.3883582-.0985541-3.8591539-.2495075-7.7163395-.528337-11.5787514-.7306037-2.3074017-.1207492-4.6082874-.3487404-6.9072726-.5894921-2.0990262-.2198463-4.1955411-.4647383-6.3028481-.6075468-1.4848956-.1005904-2.9664654-.2653223-4.4054098-.6795619-.7492013-.215638-1.3860021-.5832476-1.7675939-1.3092358-.1986694-.3780623-.2469283-.7393595-.0883729-1.1457256.1783069-.456797.3507766-.9190918.6256693-1.3228107,1.3630605-2.002169,2.5398727-4.127327,3.9955143-6.0675264,1.3616351-1.8149026,2.8815541-3.5000966,4.3331232-5.2411514.6163705-.7392916,1.4385372-1.2520853,2.1517649-1.8812841.714721-.6305563,1.4658228-.8139538,2.3682853-.7481832.9524183.069368,1.9099272.0681462,2.8651284.1020157.1519037.00543.3143279-.0221272.4618876.1014727-.1507498.6602176-.3223371,1.3252542-.45191,1.9984359-.2190318,1.1374448-.3309572,2.2876501-.2951872,3.4473579.0101812.3298712-.0750016.4961643-.444851.4643989-.233557-.0200909-.4920918-.0085522-.6480001.3044861.3286495.2233758.7084086.2264301,1.0692307.2424486.843683.0375347,1.6898773.0804316,2.5330173.0545713,1.5842642-.0485983,3.1505417.1369712,4.7209594.2841236.3736504.0350912.7502195.0831466,1.1354765-.087219-.1425369-.3004815-.4236741-.3201651-.6655118-.3846461-.8835933-.2355253-1.7915537-.3116808-2.6974099-.4111173-1.1432821-.1255004-1.0120123.0916988-1.0122838-1.1155213-.0003394-1.6342879.4371812-3.1542748,1.2431937-4.5789655.2364077-.4178369.5012549-.5981801.9993876-.5588127,1.6614378.1312697,3.327016.2081718,4.9898113.3243734,1.5303038.1069706,3.06149.2269052,4.5950518.20376,1.7846983-.0270141,3.5476767.2136697,5.3205649.3315002.3847819.0255888.5930216.190185.7551743.5273867.6533622,1.3586486.978075,2.8051271,1.1914731,4.2837783.0475123.3298033.0892553.6609642.1185772.9928038.0558609.6322532.0514491.6354433-.5659396.6554663-.6884535.0223308-1.3781965.0204303-2.0581656.1579445-.4299186.0869475-.470847.1020157-.7801522.3962527.0897983.18204.2646436.1351386.4092847.1381251.4221809.0087558.845312.0175796,1.2669498-.0011539,2.0329162-.0900698,4.0356282.1833975,6.0358289.4892411.3306857.0505667.6608284.09102.9952473.0575578.1417903-.0142537.260639-.0817891.2935582-.2261586.0380099-.1673112-.1028302-.2352538-.2181494-.2911147-.4443759-.215095-.9309699-.2906396-1.4052107-.4056194-.4770915-.1157264-.48225-.1131472-.449195-.6158275.0234168-.3547134.0675354-.7080693.0913594-1.0627826.0978075-1.4557095-.0736441-2.8820292-.4586296-4.2876471-.1495959-.5460523-.1138938-.5896278.4457334-.5315271,4.3004076.4465479,8.612286.3971351,12.9249789.3046218.6351039-.0136428,1.2244603.100251,1.7997665.3892616.7931163.398289,1.6182016.7323684,2.4208204,1.1123312ZM67.0540859,63.1220797c-.3567496.042829-.5336312-.1389396-.6699237-.4206197-.1740308-.3597361-.3452788-.7211012-.5314592-1.0745928-.586845-1.1140959-1.3395758-2.0940714-2.3429002-2.8696081-.0805673-.0621733-.2076288-.1001831-.1760671-.2875853,1.2060662-.0521957,2.398286-.2894179,3.6007548-.4519779.3545776-.0479196.7052185-.0050227,1.0545019.0920381.4035153.1119933.7099697.3075404.9296803.6851955.2674943.4595798.5860984.8909917.9019874,1.3202994.1916104.2602996.2236473.5039699.0813818.7976639-.3484689.7195401-.686553,1.4442387-1.0147952,2.1732133-.1141653.2536479-.2615892.317518-.5237215.224326-.4213664-.1496638-.8616698-.2420413-1.3094394-.1883524ZM67.3348158,65.7673618c-.1667004-.4677927-.2097329-.9351781-.180954-1.4956198.7300607.535871.7399704.667548.180954,1.4956198ZM66.4058822,45.095907c.0131677.1081245.0565397.2169955-.0182583.3323826-.202131.0391637-.3724287-.0784632-.552704-.1433514-2.4641244-.8880052-4.9935444-1.3723593-7.6237583-1.4148489-3.310183-.0534174-6.6229453-.0464263-9.9295989-.2483537-.5315949-.032512-1.0613573-.0969251-1.5918662-.1472882-.4230632-.0401818-.733658-.2241903-.9718305-.6017774-.4037189-.6402624-.8957429-1.2152293-1.4785833-1.7071854-.5772746-.4872049-1.2397999-.7740435-1.9888655-.8565792-2.7399674-.3020426-5.4578755-.1178305-8.1581361.3920445-.931445.1759313-1.6146721.7451967-2.0924424,1.5274531-.2679695.438878-.5917998.5874558-1.0802264.5947184-1.2217453.0181904-2.4426082.0997759-3.6652358.0278965-.5296944-.0311545-.5353959-.025996-.6715526-.5254183-.3802343-1.3949616-.6239725-2.8187021-.839339-4.2451575-.4381993-2.9029346-1.1558389-5.745325-1.8294278-8.5967427-.806827-3.4154568-1.4952126-6.8538552-2.1111758-10.3080005-.2338963-1.3118829-.5497175-2.6050324-.9197706-3.8867111-.2280591-.7899262-.6093794-1.4709134-1.1734863-2.0600661-.3669987-.3833565-.7263954-.7739078-1.1255668-1.2000253.6158954-.2843951,1.2366777-.3199615,1.8402199-.3997143,1.5217516-.2011128,3.0540917-.2681052,4.5880607-.2772683,2.9583204-.0176474,5.9023871-.2856169,8.8507299-.4825894,2.5051887-.167447,5.0101058-.3514554,7.5209281-.4077235,3.0660376-.0686214,6.1324146-.134392,9.1989952-.1599808,2.4016797-.0200909,4.7890378.1753883,7.1742918.4914131,3.3285771.4409143,5.6953013,2.9395191,6.3177126,5.9363245.1948005.9381646.3215226,1.8865104.3722929,2.8384536.1269936,2.379824.5167304,4.7242853.9096572,7.0672534.7116666,4.2441394,1.0663121,8.5062657.7809667,12.8098633-.1255683,1.89323.0388922,3.7739711.2679695,5.6509791ZM45.4960513,52.0382709c-2.546185-1.5670919-5.3097049-2.0663785-8.2526856-1.6859406-1.1272636.1457949-2.223237.4162079-3.2904315.8127321-2.5416374.9442733-4.0722127,2.7608728-4.6811849,5.3826024-.2372222,1.0212433-.3574284,2.0558579-.3615008,3.1044547-.001086.2664762-.0101133.5334276-.0291861.7991572-.0125568.1746417-.0185298.3721572-.2588742.4010039-.212923.025453-.3957097-.0329871-.5180879-.2245296-.1102286-.1726733-.1637817-.3615687-.1764743-.5656681-.1155228-1.8558989-.0004751-3.6887205.5926822-5.4653417.8457871-2.5334246,2.6337434-4.1116479,5.1179588-4.9448782,1.8267807-.6126374,3.7137662-.8719189,5.6393046-.850742,1.8529124.0180547,3.6714124.2189639,5.4498662.7925733,3.1502023,1.0160169,7.0159401,4.6313648,7.1940434,9.5462424.0305436.8432757.0116066,1.6889271-.0052264,2.5330852-.0100455.5060062-.0282359.5056668-.5484957.4797386-1.2259535-.0609515-1.2131252-.061766-1.2909096-1.2639634-.0920381-1.4236047-.3212511-2.8243357-.8043156-4.1736854-.7151282-1.997282-1.9657881-3.5624056-3.7764825-4.6768409ZM46.8964429,54.6364479c-4.8710984-.2529691-9.7237348-.5050559-14.6751969-.7622333.6945622-.828479,1.4343968-1.4624291,2.3364521-1.8402877,3.7289023-1.5618656,8.7132836-1.199143,11.9416097,2.0769669.1507498.1529218.3303463.2886713.3971351.5255541ZM21.5145493,52.1045845c.0056336-.4988793.044458-.5375679.5269116-.5161874.5993339.026539,1.1900478.1232605,1.7627069.3005493,1.3291231.4113888,2.6543773.8350629,4.0145192,1.2643027-.4558467,1.4031066-.4131535,1.136834-1.4175639,1.1189829-1.4385372-.0255888-2.8765313-.0935314-4.3140504-.1597771-.5753063-.0264711-.5696048-.0462227-.5651251-.6129089.0036652-.4649419-.0126247-.9300196-.0073983-1.3949616ZM27.644181,52.3194759c-1.7011445-.5096714-3.3620393-1.150341-5.0908089-1.5690603-.0800243-.0194122-.1523788-.0703182-.2152987-.1003867-.0140501-.172877.0690965-.2841236.1356816-.3967278.8710365-1.4725424,1.7376611-2.9477998,2.621526-4.4126045.4143753-.6866887.9230285-1.3056384,1.4624291-1.8995424.1893705-.2085791.3872932-.3296676.6887928-.3188076,1.2455014.0449331,2.4899168-.0084843,3.7303955-.1203419.397746-.0358379.6696522.0731011.8803353.4242171.2307741.3845783.5811435.6682947.935246.9408117,1.022465.7871433,1.9973499,1.6306227,2.9456957,2.5047814.1599129.1472882.361976.2615892.4789241.56784-.4916846.0981469-.9264902.1694832-1.3536259.2726528-2.476274.5983158-4.535322,1.8929585-6.2094524,3.7958268-.3037394.3452109-.5425906.4512991-1.0098403.3113414ZM35.3740276,42.290169c-.0309509.2119049-.184212.2859563-.37494.3071332-.0658385.0073305-.1324236.0079413-.2431273.0140501-.0660421-.0071947-.1789857-.0062445-.2841236-.0343446-.1347992-.0360415-.1702977-.1577409-.0988935-.255209.1031017-.1405007.2317922-.268784.3707318-.374397.1288941-.0980111.2594172-.2912505.4557789-.134392.1449804.1157264.2019952.2894179.1745738.4771594ZM35.6242139,44.2248705c-.4056194-.2474034-.706033-.4525209-.9685046-.7437035.7071869-.1675827.8094062-.0973324.9685046.7437035ZM35.7121116,45.6927296c.427543.4725439.8495202.9502463,1.2739409,1.425641-.0397067.036313-.0794813.0725581-.1192559.1088711-1.3429695-1.1871291-2.7470264-2.3050939-4.0448592-3.5647812.4766164-.2852096.5983158-.283377.987781.0710648.6741319.6135197,1.2913847,1.2837828,1.9023931,1.9592043ZM37.8806416,42.5384548c-.5202599.0427611-1.0445922.0638023-1.574083.004887.2443491-.9311056.781917-1.2507957,1.4667731-.910336.1878773.0933956.3261381.2261586.3916372.4253031.0838932.255209-.0137786.4579508-.2843273.4801459ZM38.2096305,43.6359893c.0110636.9685725.0851828,1.9413532-.155501,2.9142697-.4884266-.322405-1.3946222-1.9980965-1.7127511-3.1592296.5500569-.0659064,1.058778-.0361772,1.5673634-.0230095.1802074.0046155.298581.0707255.3008887.2679695ZM33.5215224,42.4474348c-.1226496.1263828-.277404.218353-.4574079.2483537-.1124006.0187334-.2266337.0075341-.2908432-.0982826-.0481911-.0795492-.0268784-.1747774.0244349-.249779.3602791-.5263686.8725976-.8147683,1.4802123-.9642285-.1922891.4110494-.4548286.753206-.7563961,1.0639365ZM42.8604074,42.5544733c-.4862546.2097329-.900562.166361-1.3640107.2216789.6344252-.5554868.7378663-.573813,1.3640107-.2216789ZM41.8838257,41.1709146c.3545776-.1345277.6119586-.0307473.9740025.1603201-.4277466.1816328-.6728423.0388243-.9740025-.1603201ZM44.3403482,43.691443c-.8358774,1.408265-1.9589328,2.5068177-3.2407472,3.4589645-.0320369-.0294576-.0640738-.0588474-.0961785-.088305.5960759-.9332098,1.2177407-1.8514192,1.7790647-2.805195.3600076-.6116871.8162616-.8204019,1.557861-.5654644ZM39.8207731,42.5954017c-.2215431-.0095703-.5058704.0152718-.5816186-.2251405-.0900698-.2860241.1956829-.4124748.3915015-.5484957.6025919-.4184478,1.205116-.2788973,1.8711029.0115387-.5176127.4393532-1.010044.7910122-1.6809857.7620975ZM39.5285723,43.3746037c.834995.0523314,1.6722978.0692322,2.6589249.1060882-.3420208.5415725-.5922071.9529613-.8573258,1.3545761-.5360068.8119855-1.063665,1.6302833-1.672162,2.3912949-.104595.1307946-.1992802.3328577-.412339.2651187-.189642-.0602728-.2251405-.2594172-.2532406-.4338553-.0420145-.2612499-.085047-.523993-.1001152-.7876184-.0469693-.8210807.0871512-1.6328625.1401613-2.4489205.0206339-.3176538.1423333-.4688108.4960965-.4466836ZM50.4756135,52.7370413c-.0969251-.1467452-.2344393-.2662726-.3505051-.4008003-1.7752637-2.0578941-4.0033877-3.3423557-6.6570863-3.9011005-.5577267-.1174233-1.1152498-.2356611-1.7200816-.363605.1189165-.2630146.2793724-.3533559.4114567-.4676569,1.011673-.8755841,1.9394527-1.8318034,2.7189262-2.9198354.2497112-.3486046.5321379-.4777024.9499069-.4640596,1.2877195.0420823,2.5777468.0255888,3.8643124.0864724,3.0628475.1450483,6.1316001.0690965,9.1926829.2596209,2.6196933.163103,5.1174158.8281397,7.5349103,1.8294278.2303669.0954319.360347.2348466.4327693.4597835.3604827,1.1199332.7291104,2.2374228.9241824,3.4022891.0036652.0218557.0073983.0437792.0104527.0657706.2329461,1.6991762-.266612,2.3751407-1.9644985,2.6677487-2.2013813.3793519-4.4184417.4039904-6.6416788.3048254-2.0856549-.0931241-4.1643187-.3203688-6.2545891-.32512-.5334954-.0012217-1.0692307-.0153397-1.5940382.092106-.3667272.0750695-.6450815-.0049549-.8571222-.3258666ZM20.3844349,15.638407c.5867771,1.8690666.9500427,3.7939942,1.2300939,5.7277454.5994697,4.1390693,1.5291499,8.2073453,2.520732,12.2642862.7232053,2.9589313,1.2430579,5.9562797,1.6907597,8.9673387.0339374.2284664.063395.4127463-.1442338.5962117-1.2865656,1.1373091-2.1737563,2.5722489-2.9864205,4.0605383-.3300748.6044245-.6591994,1.2095278-.9973514,1.8094726-.0935993.1661574-.1535327.36632-.4038547.4861189-.5205992-4.8115043-1.4431527-9.4961508-2.429169-14.1687156-.7706498-3.6520681-1.8020743-7.2398588-2.7329763-10.8524238-.526708-2.0442513-.9830977-4.1048605-1.1994145-6.2095882-.0978754-.9520111-.1424691-1.9052439.0443901-2.8552866.2683088-1.3637392,1.0984847-2.2952521,2.2569029-2.9868278.2433988-.1452519.4570006-.1417225.6752858.0234168,1.0980096.8307189,2.0519212,1.7890423,2.4752559,3.1377133ZM69.5631434,54.8846659c-.1703656.1794608-.3756867.2061356-.5982479.2390548-2.3821996.3526771-4.7806213.3815239-7.1823689.4010039-3.1604514.0255888-6.3063776-.2338963-9.4573943-.4027687-.2835128-.0152039-.4570685-.0994365-.5588806-.3642158-.1250931-.3252557-.3416814-.6152166-.4058909-.9972156.2692591-.1326951.5389254-.0923775.79651-.0933278,1.8914653-.0069911,3.7721385.1976512,5.6581059.2999385,2.3990326.1301837,4.7990154.1447768,7.1989303.0538247.6427059-.0242992,1.2806605-.1265185,1.892144-.3541704,1.0739141-.3997822,1.6305548-1.1831245,1.7272763-2.3082162.0906806-1.0553843-.1119254-2.0809037-.3396452-3.1017397-.3285137-1.4728139-.7837496-2.9188852-.9266938-4.4305235-.1150477-1.2177407-.1662931-2.4388072-.188556-3.6611633-.0369239-2.0219884-.0035295-4.0445198-.1301837-6.0658974-.1488493-2.3766339-.4492629-4.7330412-.8677106-7.0735657-.489309-2.7372524-.8112389-5.4924237-1.0223293-8.2632062-.0845719-1.1093447-.2347108-2.2146169-.6021847-3.2689831-1.0439135-2.9951085-3.1869904-4.7217739-6.2605621-5.353009-1.4626327-.3003457-2.9460351-.441593-4.4324918-.510418-3.310726-.1532612-6.6211806-.0967894-9.9314994.0674675-2.286632.1134866-4.5714993.2467247-6.8523619.4423397-1.5273173.1309304-3.0523269.2889428-4.5785583.4329051-1.9714896.1859768-3.9493594.2196426-5.9276365.2395299-2.2460429.0225344-4.48876.1071063-6.7179021.4020221-.9904282.1310661-1.975087.2841236-2.9154236.6597424-1.3581056.542387-2.2195039,1.5056653-2.6057111,2.9109438-.3415457,1.2427864-.3481295,2.5037633-.2153665,3.7709846.2113619,2.0168299.7600613,3.9672784,1.183939,5.9424332.8714437,4.0605383,1.9807206,8.065555,2.8260325,12.1321341.7096982,3.4143029,1.2679001,6.8569774,1.931172,10.2798325.4310725,2.2243909.7800165,4.4622888,1.1740972,6.6927206.0188013.1065633.0198194.2163168.0371954.4174296-1.5928165-.4248959-2.6600109-1.3302091-3.2027373-2.8292905-.4326336-1.1951384-.6729101-2.4390787-.9370786-3.6762994-.7745865-3.6279726-1.3532186-7.2928011-2.0466948-10.9360455-.7481832-3.9304224-1.7781824-7.792427-2.8140187-11.6534136-.8577331-3.196968-1.6577047-6.4071037-2.1379863-9.6876254-.057965-.395574-.1396862-.7891796-.1707728-1.1867898-.1079208-1.382269.3326541-2.5358002,1.4650083-3.3851168.9268295-.6951052,2.0007436-1.0441171,3.1078485-1.3101182,1.4077899-.3382877,2.8488385-.4626342,4.2799094-.6483395,1.9603582-.2543945,3.9208521-.508789,5.8839252-.7406491,1.8980491-.2242581,3.8045148-.3607542,5.7119306-.4787205,5.019201-.3103912,10.0423388-.293151,15.0645264-.1227175,4.4874704.1523788,8.967746.4245565,13.4026813,1.1844142,1.621256.2777434,3.2116289.6710096,4.7726121,1.2036906,1.9088412.6513938,3.0623724,1.8873249,3.5160471,3.8877971.555962,2.4516355,1.0145237,4.9149454,1.3143943,7.4083918.3953025,3.286359.7847677,6.5734646,1.1559746,9.8626065.3014317,2.6712103.5729307,5.3458143.8565113,8.0190608.2859563,2.6953737.5805326,5.389865.8519637,8.0867319.1714516,1.7032486.3035358,3.4088729.1064955,5.12271-.0449331.3910264-.1736236.7274814-.3930626,1.0438456-.4332444.6246512-.9752242,1.15197-1.4952805,1.6999907ZM57.1120659,67.6108396c-.033055.095364-.1169482.141451-.2055247.1422654-.1762028.0017647-.3561387.0028507-.528337-.0291183-3.319957-.6158275-6.6525387-1.1555674-9.9953695-1.6286543-1.4973846-.2119728-3.009498-.2932867-4.5214077-.3066581-2.8701511-.0255209-5.7282884-.2299596-8.5836429-.5041735-3.3212466-.3190113-6.6501631-.4789241-9.9879712-.4425433-1.4671124.0160184-2.9345642.0040725-4.4018124.0033259-.5810077-.0003394-1.1538705-.0642774-1.7056921-.2554126-.3642837-.1261113-.3621796-.1322879-.6500364-.5444911.3871575-.1221745.7580929-.0369239,1.1117203.0400461.7663737.1667682,1.5340369.2120407,2.3169041.1922891,3.3135768-.0838253,6.6219272.0441865,9.9301419.2417698,4.0588414.2425164,8.1069586.6671408,12.1829044.6307599,2.5177455-.0225344,5.0005355.4020221,7.4809499.8022115,1.6662569.2689197,3.3388941.4984042,5.0084768.747233.6596067.0983505,1.310729.2385797,1.9511951.4240135.169076.0489377.3346903.1199347.4899877.2030133.101337.054164.1500032.1613382.1075136.2841236ZM50.0837727,92.8413047c.0004751.1111109-.0724902.1635102-.1634424.171791-.3315002.0304758-.6638149.0696395-.9959939.0710648-1.666189.0071268-3.3325138.003258-4.9988386.003258v-.0758161c-1.3331277,0-2.6662554-.0073305-3.9993152.0020362-1.3598025.0096382-2.7031793-.1777639-4.0491353-.3254594-1.2648457-.138736-2.5288769-.1192559-3.7941978-.0483268-.8871228.0496843-1.7727524.1274009-2.6598752.1778997-1.6975472.0967894-3.3672657-.1444374-5.0339977-.4265248-1.7944044-.3036037-3.568107-.7311467-5.380634-.9245218-1.2364741-.1318806-2.4761383-.233557-3.7147165-.3449394-1.8594963-.1671755-3.7134269-.3712069-5.5059308-.9285943-.4651456-.1447089-.9361962-.2948479-1.3697122-.512047-1.4285596-.715807-2.8465986-1.453266-4.2581216-2.2022637-1.0961091-.5816865-1.6471162-1.5180185-1.686823-2.7546283-.0164257-.5106895-.0291861-1.0217863-.0276929-1.5326116.0057015-1.9575074-.0939386-3.9078201-.3550527-5.8493091-.0399103-.2968841-.1523109-.6387013.1789857-.8513528.1721303-.1104322.4223845.1810219.5820937.6972772.319147,1.031696.3302785,2.1041847.3714784,3.1674425.0438471,1.131947.0326477,2.266066.0421502,3.3993026.0042082.4896484.0517205.974817.1080566,1.4610716.0597298.5164589.2890106.9256078.6826162,1.2516101.1024909.0849113.2038957.1749811.3182646.2411589,2.3458867,1.3570196,4.6818636,2.733655,7.3921018,3.2719017,1.5728613.3122917,3.1661529.4604622,4.7600553.5669577,2.2900936.1530575,4.5411593.5362104,6.7776997,1.0203609,2.5795794.5584055,5.1734124.7910801,7.8104817.5215495,1.9732544-.2016558,3.9511242-.154958,5.9193558.0971287,2.3225377.297495,4.6560712.2445527,6.9882472.2594851,1.799495.0115387,3.6002118-.0240955,5.3967882.1189165.1757956.0139822.3530165.0339374.523993.0745265.0826036.0195479.1406365.100251.1411116.2016558Z"/>
  </g>
</svg>