<?xml version="1.0" encoding="UTF-8"?>
<svg id="Layer_2" xmlns="http://www.w3.org/2000/svg" viewBox="0 0 117.8249699 90.4851255">
  <g id="Layer_1-2" data-name="Layer_1">
    <path d="M20.1927532,31.0620206c3.0359823-1.7588799,6.3722851-2.2504376,9.8055432-2.3262366.641222-.014157,1.2830248-.0020188,2.1475716-.0020188-1.3865912-2.3491721-2.9204815-4.337311-4.4607506-6.321554-.980972-1.2637198-1.9534894-2.5340172-2.9322088-3.7995029-1.0472503-1.3540856-.9248302-2.5548479.0088182-4.0441787,1.8982162-3.0279833,4.4948317-4.2225323,7.8544982-3.3254973,2.1485262.573661,4.1364704.0188726,6.1877938-.2034546,3.4807635-.3772545,5.1079575.6354346,6.416543,3.8234149.7064649,1.721069.1537385,3.1196089-.741349,4.5047458-1.7758466,2.748082-4.1868344,4.9845498-6.1309803,7.5983379-.4803369.6457917-.9798912,1.2772393-1.6219768,2.1120807,3.1963775.0887417,6.0843739.3407034,8.8928343,1.16411,3.6272039,1.0634528,7.0127899,2.6152402,10.0524996,4.8885475.4552458.3404656.8540872.9199857,1.4601726.086055,3.1845794-4.3816996,7.3765502-7.5496132,12.1489799-10.005337.2371129-.122009.4406801-.30947.8503902-.6028958-1.9417519-1.0868336-3.7086541-2.1942701-5.5803852-3.0791872-1.1301903-.534322-1.5298802-1.2754077-1.5491833-2.4354952-.0501216-3.0122274.9362696-4.3104644,3.8510289-4.9456358.9840276-.2144341,1.8784383-.6186061,2.7069698-1.1852443.8648853-.5915014,1.7286998-1.1849913,2.6050902-1.7590722,3.1495792-2.0631183,6.0453382-1.1931424,7.6340269,2.254116.5470142,1.1869797.1998904,2.2800772-.2644868,3.3473298-.8946431,2.0560752-1.8477815,4.0866091-2.9432746,6.4938562,2.9343048-1.0435025,5.5688296-1.7980115,8.3016178-1.9807164,15.8065629-1.0567639,30.2775804,8.8026673,32.5379711,25.0936093,2.7178992,19.5881608-8.8038336,35.4557091-28.5517089,40.118929-6.2524206,1.4764438-12.4465781,2.3684748-18.7368677.3044913-3.9498478-1.2960562-7.7681188-2.8427081-11.0256988-5.5031464-.8104909-.661927-1.2794035-.7311333-2.1369756.0957088-4.6028426,4.437953-9.9985093,7.3964265-16.4202847,8.1850073-5.9152766.7263873-11.8856699,1.5592201-17.7490421-.0614143C8.8254786,85.6864737,1.8047164,77.682026.189419,63.606372c-1.6904344-14.7303963,8.2226121-26.9558989,18.2079319-31.9145634.5857468-.2908757,1.1460237-.6753301,1.8390845-.678457-.100622.5520461-.6235602.5778453-.9893155.7578332-3.1399831,1.5451339-5.9701457,3.532438-8.5393216,5.9047227C-2.6936708,50.0503669-.7512345,68.1815839,6.0936097,78.1849477c1.3302322,1.944059,2.9666864,3.5933616,5.1396016,5.24401-.1674103-.5299302-.1752841-.6957864-.2592494-.8002991-3.2470243-4.0416387-5.2903098-8.7352977-7.4996294-13.3754961-1.839236-3.862931-2.4349854-7.5926609-.9840149-11.652808.422238-1.1815153.5742644-2.4704576.7640184-3.7232435,2.0926344-13.8158498,14.6820267-21.968718,23.9517982-23.1376145,1.9506358-.2459761,3.9129031-.3993956,6.1390207-.6224312-1.67776-1.0186494-3.2327161-.974868-4.8307231-.8591077-2.864072.2074922-5.5526982,1.1825626-8.3216785,1.8040629ZM115.9692032,46.5481807c.405498-2.4140118-.2880527-4.6017853-1.3111613-6.7216479.5025088,2.2220983,1.1129679,4.421924,1.3241917,6.7049307,1.2944339,15.5166497-5.6023753,26.8936143-17.9381243,35.5501024,1.5845876-.5924172,2.9153855-1.5420475,4.2464056-2.4876301,10.9697994-7.7932164,15.7820071-18.3497849,14.1844901-31.7723764-.053859-.4525475.1452435-1.0442058-.5058018-1.2733787ZM66.8996739,57.4370788c.065647,4.1566755-.8731783,7.9597708-2.1571778,11.6723181-.4135789,1.1958139-.1410516,1.8830393.6732273,2.7453903,7.9729284,8.4435871,24.6700333,9.9468573,34.3527524.658274,14.2784302-13.6972206,10.3993709-36.768948-8.1691925-42.3244063-12.6670646-3.7898136-23.7605114,2.3766006-28.8177109,10.3234338-.6608231,1.0384175-.6427018,1.7950111-.0334548,2.8347745,2.5760698,4.3964131,4.3173556,9.062173,4.1515564,14.0902158ZM63.8875301,71.5796015c-1.0669272,2.2642151-2.2100166,4.2778649-3.6112493,6.1233412-.5661861.7456849-.1097584,1.0617831.3819322,1.438476,7.9504131,6.0910908,16.8830053,8.8440301,26.6950182,6.4621978,14.1877629-3.4440505,30.782665-18.5483771,27.3586495-40.5662449-.6559847-4.2182821-1.4246167-8.4682277-4.5055893-11.7092234-6.6166455-6.9603128-14.9231118-9.7061382-24.3466471-9.3144585-3.9833026.1655627-7.7888159,1.3252758-11.6093799,2.4335321-5.6038804,1.6255777-10.4137245,4.4632767-14.3514712,8.7491612-2.2221884,2.4186516-1.9616511,1.5619574-.074243,4.010795.7377328.9571591,1.1130184.7614003,1.7695082-.0876639,2.0390254-2.6371183,4.4654779-4.8791163,7.2539432-6.7177469,7.6432795-5.039761,15.9967158-5.6447211,24.6194774-3.6324324,7.8058363,1.8216402,12.9666628,6.750574,15.4371662,14.4152746,3.6996237,11.4780569-.8693904,24.8627919-10.5618771,32.0123872-9.1639071,6.7596865-26.2983183,6.1324992-34.455238-3.617395ZM63.5949825,57.5946371c-.3598209-9.0260368-4.7843288-17.1521798-13.9732916-22.4922174-5.2318018-3.0403947-10.9531831-4.2545145-16.9224601-4.2747785-12.5011088-.0424355-24.2933639,7.0911712-27.8293499,20.5915299-.7543314,2.8800383-1.4624302,5.7743652-2.0988819,8.6825253-.4415791,2.0177178-.5547314,4.1103896.2559337,6.0433781,2.0671291,4.9289743,4.1451093,9.8321544,7.4762227,14.1341945,3.668876,4.7382549,8.4621392,7.2349722,14.2258793,8.2171767,5.8207557.9919191,11.3979036-.3153898,16.9676423-1.7162522,16.1844041-4.0705801,21.6574148-16.5525981,21.8983055-29.1855564ZM35.822234,30.236069c12.4828309,1.5774552,22.4638906,6.7513684,26.9506312,19.1222051,4.3893763,12.1024007,1.0772909,22.7581489-7.5198644,32.0097764,10.2605718-7.8796053,13.4298077-24.7738732,7.1555183-36.7302516-6.2532691-11.9163108-18.7290494-15.4833823-26.5862851-14.4017299ZM34.7718625,26.6738244c1.4517887-3.1079262,2.3551288-6.0716566,3.8689027-8.7649271.1216878-.2165086.1251525-.5284224.1068796-.7906452-.1571426-2.2554416-2.0878389-3.1618168-3.5485367-4.2711507-.8330416-.6326619-1.6691236.6685147-2.4992207,1.1044109-.5825801.3059232-1.1185033.7043069-1.7099775.9890148-.5931307.2855074-.8525619.6225122-.5315848,1.2765562,1.6181737,3.2973351,2.8747943,6.7495064,4.3135374,10.4567411ZM33.9542149,28.9330507c.2792041-.4451199.1150463-.8859543.0012475-1.2837258-1.1064325-3.86751-2.6115398-7.5886587-4.2362186-11.2595598-.5495647-1.2417254-3.7019772-1.568373-4.6685552-.5931812-.427978.4317877-.4452205.8774541-.2129258,1.3429493.2930375.5872108.6131258,1.1731668,1.0058459,1.6961248,2.2131782,2.9470892,4.4452303,5.8800467,6.6876158,8.8049239.3886999.5069998.7159751,1.113999,1.4229905,1.2924689ZM35.6059495,29.3008587c2.7027677-4.0898271,6.4237704-7.1322507,8.7347978-11.3078747.1565012-.2827752.2666333-.6049753.3307095-.9225307.1291929-.6402817-.2199612-1.0594405-.8087788-.879063-1.921777.5887135-4.1387078.8438173-5.1154373,2.9431376-1.2076404,2.5956289-2.3424872,5.2348419-3.1456498,7.9965799-.1779912.6120285-.4254375,1.2281351.0043586,2.1697509ZM74.2520017,23.0603405c.3081033-2.5224913.2894668-4.9433944.8130768-7.3164128.1285262-.5825154-.0803339-1.1582559-.4713066-1.5137791-.5011755-.4557452-.897936.1700102-1.2599791.4068485-1.4683948.9606149-2.9063349,1.9591116-5.09322,1.8814,1.6207899,2.7962552,4.563317,3.9707577,6.0114289,6.5419434ZM73.4379451,24.5770745c-1.3329393-2.1452672-2.5811608-3.8128554-4.1691221-5.20162-1.1901907-1.0408866-2.4277253-.790205-3.6516637-.046969-.594156.3608055-.6031762.703978.0315356,1.0596176,2.4384627,1.3662896,4.7553286,2.9582255,7.7892503,4.1889714ZM78.8459755,24.0813932c8.8434097-2.0441344,17.2616748-1.0592735,25.2408356,3.3707105-5.3622321-4.2122915-18.2543994-7.1609036-25.2408356-3.3707105ZM67.3784553,14.9908456c3.3819142,1.3558009,5.3318985-.7415916,7.3601663-2.5225318.4014475-.3524874,1.1430086-.8828983.6757929-1.4719811-.4220436-.5321464-1.1265135-.0645159-1.6580528.2134171-2.1403999,1.1191801-3.8832917,2.8830337-6.3779064,3.7810958ZM73.1557006,25.8346822c-2.7657076-1.3659556-13.7468,6.3201828-15.0394763,10.1884669,4.0845256-4.7183147,8.8410258-8.2509804,15.0394763-10.1884669ZM35.6547378,12.226942c.9338858.8158576,1.6753004,1.4601263,2.4124474,2.1092574.2921032.2572238.5719184.5610573.9960479.2491739,1.0683666-.785626,2.2427037-1.4485295,3.1726652-2.5340375-2.2288298-.8039015-4.2539157-.4340089-6.5811604.1756062ZM39.9513811,16.7486276c1.19112-.3861545,2.3629773-.8590874,3.5796531-1.1301191.9193251-.2047954.9193554-.6515193.5306252-1.2437341-.3734573-.5689454-.2808253-1.9438971-1.5611733-1.2211376-1.0379522.5859307-1.9654592,1.3691938-2.9370271,2.0717652-.4548064.3288941-.2731435.7791091-.1959207,1.2001248.0612479.3338728.2776283.4341151.5838428.3231008ZM34.0419176,12.165725c-1.4405765-.5557447-2.7757986-.6563057-4.1311067-.5969912-.5319282.0232796-1.2289284-.0724293-1.4411775.5328092-.2592999.7393856.5349737,1.1218668.8368194,1.6775305.2816991.5185712.6828132.6457108,1.2333123.416811,1.1953019-.497017,2.3991998-.9729352,3.5021525-2.0301595ZM75.9251254,21.3664976c.7005507-1.5908987,1.4401017-3.1664767,2.0733691-4.7838173.1522234-.3887551.8338143-1.1149299-.0397074-1.3333511-.7920665-.1980357-1.9488934-.2115602-2.1146623.918316-.2490524,1.6976022-.4353265,3.4303742.0810006,5.1988524ZM94.9257829,30.2824106c5.0383004,2.2845449,8.7920154,5.985971,11.7956338,10.5399171-2.4331091-5.2117242-6.3933307-8.7074644-11.7956338-10.5399171ZM40.0879427,88.726833c3.4015709-.26029,6.5137508-1.3308263,9.3834693-3.1296018-3.2341707.736284-6.1784756,2.3686063-9.3834693,3.1296018ZM76.346078,14.7387624c.4983371-.6013324,1.9472065.3307308,1.9679743-.9263659.0133637-.8092597-.871057-1.6945411-1.6993158-1.7567144-.7178943-.0538906-1.2057969.8313908-1.2190394,1.6376602-.0082728.5034681.0315861,1.156394.9503809,1.0454201ZM59.099767,79.2517196l-.4044879.5653581c1.5457086,1.6491508,3.5199153,2.6884487,5.6617394,3.4886668-1.7524172-1.3513484-3.5048343-2.7026866-5.2572515-4.0540248ZM65.7459683,15.6774639c-.2888506.1916504-.9477748.2072443-.7709755.763414.2534665.797324.8179657,1.3987525,1.7812659,1.3947958.583469-.0023983.719167-.3187495.6773384-.8422235-.0815158-1.0200155-.8831581-1.0969782-1.6876288-1.3159863ZM25.8193257,14.843609c1.1107811-.2042794,2.0409749.1525897,2.9974871-.2499783-.4134526-.7142542-.6029995-1.7094216-1.3274493-1.6437217-.7874705.0714072-1.1707512.9874818-1.6700378,1.8937001ZM52.4016461,21.1240785c.8336426.3865036,1.1653017-.2196102,1.4515866-1.053632.3243964-.9450513.9149968-1.657732,2.0592276-1.5136779,1.2379992.1558481,2.1280665.8764927,2.2009862,2.0979086.1441324,2.4140877-.9029563,4.7496088-.5996005,7.2046901.0600611.4861286-.4338214.443683-.7040659.2321076-1.7698718-1.3856428-3.9669388-1.8502931-5.9338626-2.8069362-1.0448361-.5081635-1.6661034-1.2798703-1.2622872-2.5213276.4080536-1.254491,1.1954383-1.9587321,2.7880158-1.6391326ZM57.1884193,21.9920608c-.1369606-1.0341067-.2936891-2.0752564-1.3753739-2.3045255-1.1176548-.236889-1.326414.8488568-1.4822636,1.5846095-.2331331,1.1006364-.5817922,1.4072325-1.6217293.7880344-.748248-.4455348-1.6148151-.6144268-2.0710004.4471489-.4185435.9739775.1149554,1.6027586.9537294,1.9659472,1.3076664.5662384,2.6486057,1.0549374,3.9689489,1.5924976.4819026.1962092.7233489.0222525.8268042-.4462229.2721839-1.232446.5442162-2.4649324.8008848-3.6274891ZM49.0399138,3.2267602c.106723-.9293916.4059121-1.7725816,1.274858-2.1953478.7737937-.3764702,1.485602-.1891357,2.0311869.5442592.5596204.7522473.792713.0591982,1.0545736-.2916296.6983689-.9356454,1.4159904-1.7181799,2.7350104-1.0102756,1.2712317.6822568,1.4601625,1.7935488,1.0372704,2.9636849-.6336815,1.7534003-1.4474755,3.4411716-2.1740769,5.161345-.2188097.5180147-.5285898.7104847-.9974721.3109474-1.5479712-1.3190474-3.1580792-2.5721217-4.5099075-4.1051225-.3374116-.382638-.4120031-.8893949-.4514428-1.3778611ZM56.3319483,2.6062668c.0022929-.7178668-.1214555-1.2928534-.7937736-1.564467-.8299961-.3353148-1.1976352.2899498-1.5947291.8056421-.4973068.6458221-.754137,1.8125783-1.9321963.7749703-.49413-.435208-.9597698-1.2862556-1.7245988-.3734395-.5920499.7066141-.4397811,1.4358247.1387839,2.0845966.9542142,1.0700203,2.0341718,2.0037025,3.1763723,2.8667061.266305.2012132.5553476.4507665.7934807.0071088.801905-1.4939553,1.7641041-2.9243308,1.936661-4.6011175ZM35.3078715,86.8288878c-5.2433827.0065978-10.2628244-1.0179056-15.0536532-3.2233374-7.0905986-3.2640981-11.1737453-8.7151602-12.2648444-16.4495021-1.6660175-11.8096883,2.7829451-21.2740853,11.8594525-28.3349338,11.13774-8.6643458,25.0478948-6.5011371,33.9492443,4.7287731,3.4760462,4.3853628,5.9807418,9.2457583,6.5616047,14.9436718.2618504,2.5686558-.0588388,5.0714346-.6544594,7.5495019-.6850758,2.8502369-1.7163159,5.5914276-2.9266381,8.2512182-3.2734286,7.1936043-9.4738589,10.4226186-16.705211,12.1997691-.6924547.1701771-1.4097328.2773816-2.1212028.3217448-.8783046.0547457-1.762594.0130944-2.6442925.0130944ZM35.8790021,85.9535234c7.9597314-.2557059,14.6735695-3.6120925,19.1387444-11.0561811.4864178-.8109345.4821955-1.3297435-.1070917-2.0279181-1.069907-1.2676006-1.9372973-2.6835813-2.6850706-4.1649532-3.774599-7.4776748-4.6244639-15.2171068-2.1116825-23.277383.237623-.7622199.8278446-1.5691978-.0562833-2.4342404-4.4989125-4.4018421-9.4780862-7.9483258-16.0965954-7.582658-6.5597562.3624246-12.5919832,2.230973-16.7565145,7.8707458-2.0692226,2.8022205-4.0248584,5.7214613-5.3481562,8.9286886-4.6562849,11.2852934-2.8774812,20.2344939,5.72076,27.7043767,5.128099,4.4551357,11.2483267,5.7972856,18.3018897,6.0395226ZM52.2716552,45.7761349c-3.1268972,6.4661039.7692179,23.9894615,4.1599908,26.7675373.4145486-1.1089595.7842079-2.1981357,1.2262011-3.2570146.685187-1.6415005.7320661-3.1199985-.1248393-4.8363114-1.8920243-3.7895859-3.1600338-7.7733015-2.0205101-12.1171344.0797178-.3039347.1012836-.7067659-.03298-.9700006-.9452495-1.8532581-1.809357-3.7586612-3.2078624-5.5870763ZM59.2223841,57.7368848c-.0398993-.4840288-.0107274-.9858778-.1298192-1.4494858-2.7497681-10.7036735-9.1589474-18.0131545-19.8192091-21.3390768-5.687679-1.7745194-10.9162586-.2837314-16.1086207,2.2521832.1852186.1232132.244421.1901983.2751182.1789759.7684654-.2811004,1.5422035-.5502549,2.2986485-.8614351,7.3259286-3.0137251,14.2082984-2.1954591,20.6611599,2.3812302,6.5863423,4.671366,10.5481902,11.1070207,12.8227223,18.8376085ZM16.0031865,43.5870863c-4.5304178,5.6324211-8.1055658,11.6744128-7.3100118,19.3602021.1397182-7.3185075,3.423008-13.4307477,7.3100118-19.3602021ZM58.3191551,63.8470911c-.0964048-3.4833845-.7298034-6.8577127-2.0024493-10.1022096-.7752381,3.6604225.3679118,6.9312196,2.0024493,10.1022096ZM51.4900736,64.162228c-1.4026267-5.7572939-2.0278586-11.5536383-.709571-17.4346109-1.547249,5.8768135-1.7654274,11.7035262.709571,17.4346109ZM11.0110379,73.7526412c1.2609943,3.5188123,3.7161996,5.9401708,6.9856685,7.5994004-2.6678382-2.2172714-4.9485573-4.78786-6.9856685-7.5994004Z"/>
  </g>
</svg>