<?xml version="1.0" encoding="UTF-8"?>
<svg id="Layer_2" xmlns="http://www.w3.org/2000/svg" viewBox="0 0 101.4066716 89.3361769">
  <g id="Layer_1-2" data-name="Layer_1">
    <path d="M100.4305775,40.8204609c-1.7497893-6.1623684-5.1516328-11.315868-9.7179525-15.7190029-5.6622717-5.4599928-12.3136454-8.6842657-20.3282603-8.6576905-.3799593.001208-.3673306-.1151957-.2375295-.4015928.5406184-1.1934674,1.0630074-2.3952808,1.5939621-3.5933605.7561848-1.7063026,1.5251082-3.4071146,2.2673466-5.119457.5226087-1.2057667.4530959-2.3556377-.3176943-3.4720151-.7850661-1.1370226-1.688293-2.1436951-2.8176286-2.941939-.5644482-.3989572-1.1721634-.6762397-1.872123-.7676056-1.6873047-.2202885-3.3691186-.1814141-5.0519209.0311874-1.9257127.2433496-3.8450561.5201928-5.6843444,1.1757873-.6609754.2355528-1.3373249.4800006-1.7746075,1.0683884-.9110237,1.2258628-1.7660419,2.4910393-2.5585755,3.7980553-.1664793.2747567-.1706522.5185456-.0468909.8099941.4165276.9804267.9383676,1.9035301,1.5558563,2.7655764,1.7481421,2.4409638,3.2598529,5.0314954,4.8842337,7.625541-1.7826239.3970904-3.4350075.9934947-5.0481872,1.7028984-.623858.2744272-1.2336597.7652995-1.8637771.7890195-.6286898.0238298-1.2718752-.4223478-1.9138527-.647578-3.8079386-1.3361169-7.7442508-2.0129056-11.7617161-2.2398929-3.0234216-.170762-6.0390463-.0708306-9.0243622.4768159-5.0190863.9206874-9.4838274,3.1385075-13.6806203,5.9476804-1.0877158.7280722-2.0686916,1.6146073-3.149489,2.3542101-.778038.5323822-1.4962269,1.1140713-2.1345804,1.8017317-.8446956.909706-1.6401941,1.8601532-2.3835306,2.8546362-2.517944,3.3682401-4.4300396,7.0875582-6.343453,10.8133554-1.9046282,3.7085562-2.6177656,7.7080119-2.9468807,11.7826908-.2530133,3.1331266.1656007,6.2467061.9079489,9.3006562,1.4806332,6.0918672,4.5167933,11.3505695,8.7231401,15.9462098,3.5229692,3.8491192,7.6318004,6.9219575,12.6339752,8.5413966,5.8526906,1.8949645,11.8650519,2.8464001,18.0491636,2.367278,3.3739505-.2613593,6.7157252-.6894174,9.9551526-1.7239828,4.0103274-1.28088,7.7642371-3.0208958,10.8206031-6.014338.1685657-.1651615.3389983-.1663694.5410576-.1256282,1.5331247.3093483,3.0804155.5316135,4.636162.6783261,2.691671.2540017,5.3780709.2538919,8.066118-.1259576,2.9922342-.4226772,5.8072272-1.454058,8.6530783-2.3902293.8096647-.2663009,1.5573938-.6469191,2.2463719-1.1441606,3.367691-2.4304216,6.4161504-5.2042341,9.0950829-8.3852399,2.2173808-2.6329201,3.8539511-5.5385104,4.7511381-8.8992831.8219639-3.0786584,1.4170504-6.1887239,1.925493-9.3272314.5995889-3.7014183.3741391-7.3357397-.6479074-10.9352498ZM71.7562812,5.7762462c-1.0067823,3.3056457-2.6583971,6.3512498-3.8673485,9.5756325-.0440357.1175019-.1050928.228305-.1530819.3443793-.0340426.0823611-.0767606.190968.0191078.2381883.0658889.0323954.1942624.0239396.2470833-.0215237.104983-.0903776.1973372-.2086482.259712-.3330683,1.1343871-2.2611969,2.265919-4.5239313,3.3927288-6.7889717.5051482-1.0153478.7962672-2.1137156,1.2059863-3.1662907.1075087-.2764039.2365411-.629788.5540158-.5509409.340975.0848869.3003435.4837343.2750861.7840778-.0288813.342183-.1471519.6649287-.2913387.9759243-1.4412097,3.1094066-2.9230508,6.1991563-4.4313574,9.2767166-.6804126,1.3884986-1.7083891,2.1053697-3.2818158,2.0663854-.4953746-.0122993-.6135354-.158353-.5691702-.6182574.1192589-1.2380523.4212496-2.4398656.6902959-3.6474992.2516956-1.1302141.3665619-2.2672367.2728898-3.8028872-.1261772-.90136-.0591902-2.1618145.3419633-3.399757.0938917-.2899111.2218259-.429925.537873-.490433,1.4624039-.2801376,2.9183288-.5945374,4.3765598-.8965282.1726289-.0356898.3838028-.1573646.5122861-.0318463.1469322.143528-.042718.3266991-.0914757.4866993ZM68.6992563.8100907c1.3449021.0866439,2.2548277.8319571,2.9987132,1.8638869.0742348.1027867.1597806.217653.0583117.3382296-.0787372.0935622-.1992041.0506246-.3037478.0265752-.0875224-.0202059-.1782295-.0333837-.2610298-.0661085-1.7985471-.7116-3.5884188-1.4488967-5.5000752-1.8569686,1.0116141-.0892794,1.9899543-.3711741,3.0078279-.3056146ZM70.9754978,4.4059769c-.9792187.3705152-1.968211.5161296-2.9394132.72346-.5085524.108497-1.0647645.3268089-1.5304891.2130407-.5096506-.1246398-.48033-.8441465-.7719982-1.2591367-.4823067-.6859034-.9227739-1.4013469-1.4615254-2.2281427,2.4007716.5998085,4.7900126.8297608,6.703426,2.5507786ZM63.2640817,2.2263724c.8649015,1.0306121,1.6519443,2.1154727,2.4064819,3.3384803-2.426578.1142074-4.7528952-.1561567-7.232953.0567743.9402345-.9720808,1.849611-1.7412238,2.8044508-2.4545808.4879072-.3645852,1.01996-.6694311,1.5233512-1.0141398.2042556-.1397943.3411946-.1142074.4986691.0734661ZM55.9325149,4.6685441c.5041598-.7403715,1.0015111-1.4853552,1.5671673-2.181691.1164037-.1431985.2518054-.2410435.4349765-.2913387,1.3649982-.3745783,2.7452606-.6596576,4.1775753-.7125884-1.0983678.7893489-2.2040932,1.5475104-3.1716716,2.4807167-.4768159.4600143-.9401247.9354026-1.3856434,1.4255062-.173727.1910778-.3016613.2493895-.5416067.1136583-.3098974-.1753743-.6397811-.3230752-.9750458-.4438715-.2617985-.0942211-.232478-.2043654-.1057517-.3903917ZM59.2350858,14.1848767c-1.1954441-1.9598651-2.5863586-3.8005811-3.8899703-5.6945572-.1017983-.1479206-.1931643-.3028693-.2880443-.4554021-.8194382-1.3183269-.7896784-1.5239002.3141802-2.597999.1515444-.1474813.2421417-.1772411.3745783-.0064791.0431572.0556761.0999315.113878.1631848.1388059,1.0131515.398518,1.1339478,1.0678393.7777085,2.0455206-.4034596,1.107153.1044339,2.1239284.7621148,2.9588505,1.5557465,1.9752391,3.139386,3.9329079,4.894117,5.7412285.17197.1772411.360522.3384493.6175985.5782848-.0014276-.4149902-.1441869-.6306665-.2515857-.8496373-.7674958-1.5646415-1.5791371-3.1016097-2.6324808-4.502737-.7660682-1.0189717-1.4916147-2.0714369-2.0455206-3.2264692-.7146748-1.4901871-.5051482-1.8778334,1.1232958-2.0080738,2.063091-.1651615,4.1323316-.0204256,6.1979484-.0823611.3593141-.0107619.3093483.1639535.2457656.4021419-.4208104,1.5772702-.9380382,3.1279653-1.2674826,4.7307126-.31429,1.5297204-.3861089,3.060539-.1537407,4.6066218.1088265.7242287.081263,1.4694321.3571178,2.1602771-.0478793.0265752-.0858752.063473-.1041044.0554565-2.0574904-.9050937-3.9548709-1.9618417-5.1946802-3.9941846ZM64.9050445,14.0579308c-.1608787-.6273721-.0203157-1.2302554.1628554-1.8296247.0912561.6216617-.03558,1.2256432-.1628554,1.8296247ZM55.8598175,84.0855227c-2.3470721,1.4577917-4.9489146,2.2770103-7.5921573,2.9758718-3.8599909,1.0206189-7.7944362,1.4983134-11.7842282,1.484916-5.6347082-.0188881-10.9751126-1.3281004-16.1402526-3.5588786-2.6962832-1.1644763-4.9584685-2.8880199-7.0954649-4.8173565-2.8685827-2.5897629-5.3556687-5.5170965-7.4648819-8.7594888-2.396928-3.6847264-3.6266344-7.7882866-4.3145144-12.0831441-.5002065-3.122804-.6227598-6.2556011-.2214965-9.4003681.2361019-1.8493914.8176811-3.6047812,1.4958975-5.3267874,1.1050665-2.8060981,2.1797143-5.6366848,3.8081583-8.1913069,1.4423078-2.2626245,3.2521658-4.2525788,4.9772468-6.3005154,1.0652037-1.2646274,2.1130567-2.5503393,3.2613903-3.7369983,1.8971608-1.960524,4.2004168-3.3651653,6.6532406-4.5203074,3.5890777-1.6902697,7.3061995-3.0093653,11.2520656-3.5585492,5.5627794-.7741945,11.0752637-.6100213,16.4879263,1.0569676,1.1283473.3474541,2.3017186.5517096,3.3918503,1.0558695-.0997119.2388472-.3292248.2861774-.5038304.3966511-3.8850286,2.4578753-7.3556162,5.3943235-10.3427989,8.8979653-2.2839286,2.6788227-3.5339507,5.830508-4.100705,9.2451998-1.121978,6.7610787-.9937143,13.4996454.7433365,20.1569492.5182161,1.9863304,1.4826099,3.810684,2.4399755,5.62175,1.4230902,2.6922201,3.109736,5.2095052,5.0015159,7.5972088,1.2335499,1.5568447,2.8034625,2.7267019,4.321872,3.9620088.1664793.1354017.3306524.2737683.5242559.4342078-3.2745681,2.3516843-6.8137899,3.9510274-10.8174185,4.1495725-9.7505675.4836245-17.9243041-2.7956656-24.2114221-10.4193398-2.3448758-2.8433253-4.4055509-5.851263-5.6954357-9.3396405-.868745-2.3490488-1.2407976-4.7951739-1.4682241-7.2656778-.4693485-5.1001296.3650245-9.9950153,2.5911905-14.6070181.7301587-1.5125893,1.6006608-2.971589,2.4685273-4.4146655,1.5089654-2.5089392,3.7476503-4.2966146,6.2243039-5.7754907,4.24006-2.5316708,8.7823303-4.2627916,13.7054384-4.8731424,3.7783985-.46847,7.4949712-.1565959,11.1149069,1.0802484.3137409.1071793.6223206.2838713,1.0151282.1140976-.1466028-.2971589-.4322311-.3749078-.6762397-.4875778-2.444368-1.1286767-4.9909737-1.7272773-7.7065843-1.7613199-5.0300678-.0630337-9.8968409.617928-14.4406486,2.8861531-3.5760097,1.7851497-6.8287247,4.022407-9.1253918,7.3788969-2.0226791,2.9561051-3.8161748,6.0572756-4.8542542,9.5122694-.6471387,2.1540177-.8316276,4.4050018-1.0946341,6.6361095-.5789437,4.9094911.2059028,9.6013292,2.2281427,14.0855075,1.8467558,4.0952142,4.6437392,7.5004619,7.905459,10.5404655,2.1931117,2.0439832,4.5656609,3.8528529,7.3360691,5.0510424,2.2691036.9813052,4.6854689,1.4839276,7.1019439,1.9452597,3.9152277.7476193,7.8210114.7707902,11.7004395-.2664107,2.5859193-.6913941,5.0017355-1.7815258,7.3068584-3.1242316.3526154-.2053537.6087035-.2234732.9728495-.0095539,1.5061102.8845584,3.1237923,1.5335639,4.7509185,2.1573121.1446261.0554565.2869461.1171724.5074543.20755-.36766.3295543-.6778869.6202341-1.0011817.89543-2.7162695,2.3127001-5.6886272,4.1388107-9.237952,4.877535-1.6952114.3527252-3.4295168.3522859-5.1361489.5960748-.4234459.0606178-.85392.0915856-1.2708869.32615.265093.0325052.5299663.0932328.7950593.0933426,3.7954198.0026356,7.5061723-.4418948,10.8904454-2.3223638,1.9668932-1.0928771,3.8339648-2.3450954,5.3777415-4.0148298.1657106-.1792178.3057245-.2598219.5554434-.1596707.3798495.1523132.77683.2620182,1.2340989.4120252-1.1844626,1.2637489-2.4174634,2.3779301-3.8443972,3.2640258ZM100.1360542,51.5864861c-.8725885,6.5178389-3.4052477,12.3186969-7.5966597,17.3906041-1.5304891,1.8520269-3.2183429,3.5341703-5.2325663,4.867432-.2918878.1932741-.5566513.4277287-.8890608.6859034.2932056.1557174.4912017.0595196.6839267.001757,1.1098984-.3326291,2.0234478-.9943732,2.8854942-1.7383686,1.6011001-1.38169,2.9017468-3.0403331,4.2679529-4.6383583.1042143-.1218944.2119426-.2409337.3877561-.3207691-.0953193.1568156-.1787785.3223065-.287605.4690191-4.8638081,6.5608863-11.1974876,10.8712278-19.269316,12.4352104-4.6920577.9091569-9.335797.4569395-13.9279232-.7727669-4.0790714-1.092328-7.926763-2.656091-11.2813861-5.292635-3.2655633-2.5665919-5.6876389-5.822162-7.7272295-9.3914731-1.3570915-2.3749651-2.6014032-4.7998959-3.1500381-7.5171538-.8186695-4.0540337-1.1129732-8.1484792-.98438-12.2780654.0943309-3.0300105.4494721-6.0133496,1.4592193-8.8960984,1.6385469-4.6781113,4.5486396-8.4476147,8.2789392-11.6282911,3.6246577-3.0904086,7.662878-5.4447285,12.2644484-6.7710719.9362811-.2699248,1.1359245-.228305,2.0042303.3849009-.8745652.2319289-1.7403452.4205908-2.5798795.6905156-7.3101528,2.3508058-13.072356,6.7151761-17.1537335,13.2482793-.2463146.3942352-.4467267.8188891-.6456013,1.2402486-.0712698.1509954-.1769117.3941254.0096637.4850521.2184217.1065204.2840909-.1634044.3603024-.3063833.8812639-1.6550191,1.917806-3.2047258,3.1046845-4.6564777,1.4895282-1.8218278,3.199894-3.4120562,5.1274735-4.750589,2.9708203-2.0629812,6.0119221-4.0067035,9.5633333-4.9597863,1.5890204-.4265208,3.1801273-.7184085,4.8401979-.4319017,1.0066724.173727,1.9973119-.0814826,2.9894888-.2644341,2.6514788-.4890054,5.2606789-.1153056,7.852089.4650658,2.365521.5297467,4.5574248,1.519288,6.7269263,2.5663723.2379687.1147565.4723135.2494993.7676056.2199591-4.2488451-2.6213895-8.8164827-4.203272-13.9509844-4.1074037.3007828-.5221695.5312841-.9002619,1.2048882-.9189304,4.9169585-.13639,9.4239783,1.2244352,13.5519173,3.8012399,8.1518834,5.0885991,13.466701,12.3249563,15.9995798,21.5880559.8191087,2.9951992.754318,6.0520045.3462461,9.1013423ZM25.4597813,84.240142c-.0233906.2059028-.4003848.1111326-.6165004.1108032-1.7109149-.0020865-3.3022414-.5173376-4.8030805-1.2706673-5.3642343-2.6926593-9.8873968-6.4220804-13.307799-11.3610019-1.8198512-2.6277588-3.2139503-5.5224774-4.2310551-8.5739018-.202828-.6087035-.3809476-1.2291573-.26092-1.9408671.2796983.1582432.3346058.3779826.3908309.5766376,1.8117249,6.3923206,5.2990043,11.6493756,10.5379398,15.7633681,2.1198653,1.6646828,4.1385911,3.450162,6.5843867,4.6568072,1.6372291.807688,3.3016923,1.4924932,5.1269244,1.7349643.2131506.0283322.617928-.0347015.5792732.3038576ZM80.2674787,27.314556c-4.29936-2.1563238-8.7861738-3.4301757-13.6723842-2.7532771-2.2523019.3119839-4.4583718.7706804-6.5572624,1.6609491-4.9298068,2.0908741-8.5418358,5.6719354-11.3993272,10.1043909-1.881018,2.9176699-2.7574501,6.2068434-3.6218025,9.5171012-.7834189,3.0001408-1.1080315,5.9956695-.5263424,9.0640053,1.6455751,8.6817399,6.3386211,15.0746096,14.3724536,18.8386223,3.9354336,1.8439006,8.193064,2.4820345,12.2029521,2.7050684,1.6422806.0014276,2.9677455-.1076185,4.2723455-.3834733,4.8169172-1.0185324,9.1014522-3.1747464,12.9768171-6.1678591,1.9152802-1.4793154,3.5425162-3.2140601,4.4151048-5.5347767.3978591-1.0582854.7837484-2.121183,1.1639273-3.1859475,1.0458763-2.9281023,2.0585886-5.8663076,2.310943-8.9973477.5667543-7.0277091-1.5493773-13.1338523-6.4557935-18.1928013-2.7245056-2.8092827-5.9931437-4.924975-9.4816311-6.6746545ZM55.4264882,70.5879637c-3.6658383-2.4613893-6.3489437-5.7380439-8.1120206-9.7725305-1.6563369-3.7902585-2.3362004-7.7639077-2.0264128-11.8816339.2790395-3.7082268,1.4619647-7.1561925,3.2599627-10.400232,1.1366932-2.0509015,2.472261-3.9588242,4.0640268-5.6848935.5580789-.6050796.5530274-.6121078,1.1388895-.0558957,3.9673898,3.7663188,6.7515249,8.2616982,8.3431808,13.4988767.7990126,2.6288569,1.2411271,5.3098759,1.2606741,7.3538591.0282224,6.3491634-1.9328506,11.1941932-5.8479685,15.2584396-.4851619.5035009-.9254095,1.0522456-1.3634608,1.5984645-.2301719.2868363-.4187239.2857382-.7168711.0855457ZM62.9813085,73.8947076c-.5564317-.1887717-1.1319711-.3208789-1.7994256-.5042696,5.6089017-4.4316868,8.1731875-10.3429087,8.9908686-17.1342963.2703641-2.2459327.0460124-4.4793464-.7166515-6.6319365-.2214965.4583671-.0894991.9162948-.0163624,1.3554443.7213735,4.3329633-.044475,8.4551919-1.6045043,12.5069195-1.3539069,3.5162705-3.5631614,6.3563013-6.3621215,8.8235108-.7461917.6576809-1.3518204.8184498-2.2022264.3476737-.5946472-.3292248-1.2446412-.5566513-1.8582864-.8538102-.5800419-.2806867-.5724646-.2936448-.1194785-.7141258.2372-.2201787.4737411-.4411261.7055602-.6669054,1.4029941-1.3670847,2.550559-2.8897769,3.2949936-4.7382898.97252-2.4151573,2.0496936-4.7846316,2.5294745-7.3683547.6367063-3.4284186.5274406-6.8405847-.2913387-10.2158529-.9235426-3.8070601-1.9582178-7.5835917-4.0048366-10.985545-.3609613-.600138-.7063289-1.2114771-1.0990267-1.7904208-1.1342773-1.6719306-2.4106549-3.1924266-4.4923046-3.8792085.8475508-.8330552,1.6841201-1.5579428,2.5634073-2.2370377.238957-.1844889.3649146.0103226.5098702.1134387,1.6948819,1.2054373,3.1532227,2.6695982,4.5439176,4.2029425,1.3195349,1.4547169,2.5448486,2.9797153,3.3680205,4.786169.057543.1265067.1426494.2404945.2712426.453645.0340426-.4702271-.1172822-.7880311-.2425809-1.1028702-.7933022-1.9935782-2.1485269-3.598412-3.5955568-5.1337329-1.1855608-1.2579287-2.4594127-2.4219658-3.8434088-3.4599355-.253782-.1903091-.2919976-.2856283.0064791-.4764865.92508-.5913528.945835-.6302272,1.6644632.0875224,4.2792638,4.2738829,7.9391721,8.9683566,9.7201488,14.8654123,1.1336184,3.7534705,2.1374356,7.5432897,1.8960627,11.5291283-.1822926,3.0117812-.2396159,6.0450861-1.0612504,8.974067-1.0623486,3.7870738-2.9838882,7.0636186-5.9865548,9.6617274-.238408.206342-.4457383.2949626-.7685939.1854772ZM94.3366238,44.9337946c.7399322,1.883434.8686352,3.8795379.8487587,5.8759713.2344546,4.6882142-1.368073,8.8534903-3.5805122,12.8603036-1.5208254,2.7542655-3.3013629,5.2935135-5.9498767,7.0654854-3.8452757,2.5727416-8.0191173,4.3336222-12.6873452,4.7005135-2.2200164.1744957-4.4114809-.1424298-6.5908658-.5375435-.4592456-.0833494-.91322-.2009611-1.3749913-.2631163-.4200417-.0566644-.3719428-.1884422-.1486893-.4565002,1.0242428-1.2298162,1.9787532-2.5116845,2.8661668-3.8449462,3.0400036-4.566759,4.3478981-9.6131892,4.1684607-15.0659342-.2325878-7.0683406-2.1783966-13.6170375-6.0023682-19.5861318-1.7744977-2.769969-3.8828324-5.26002-6.316768-7.4735573-.5567611-.5064659-.5524784-.4959237.0932328-.8328356,3.4158997-1.7827338,7.0650462-2.2428579,10.8361968-1.8067832,3.8979868.45068,7.6521162,1.4470299,11.1356619,3.3156388,2.4988362,1.3403997,4.8097792,2.9547873,6.8615593,4.9120168,1.4111204,1.34611,2.3190693,3.0538403,3.1543208,4.7918794.9958008,2.0720958,1.8473049,4.2078842,2.6870588,6.3455395ZM56.5931609,76.6583073c-.5015243.1056419-.9034465-.0665478-1.2854923-.2288541-3.6202651-1.5381762-6.8092874-3.6573825-9.3569912-6.7174823-2.7172579-3.2638062-4.3864431-7.0506604-5.748037-11.0073981-.4678111-1.3598369-.8061506-2.7554734-.9637348-4.1883372-.0164722-.1489089-.1493482-.4054363.0977352-.4533156.228305-.0443652.2504876.2218259.2939743.3821556.4412359,1.6271262.7823208,3.2810471,1.3203036,4.8823668,1.5952799,4.7475142,4.0473349,8.953312,7.8162893,12.3183674,2.039371,1.8207297,4.3316455,3.2505186,6.8414632,4.3340614.3531645.152423.7259858.2885933.9844898.6784359Z"/>
  </g>
</svg>