<?xml version="1.0" encoding="UTF-8"?>
<svg id="Layer_2" xmlns="http://www.w3.org/2000/svg" viewBox="0 0 182.9733671 147.3548288">
  <g id="Layer_1-2" data-name="Layer_1">
    <path d="M182.9459366,53.8568939c-.0641135-1.3352627-.2980518-2.6427806-.9458599-3.835261-.6258776-1.1520533-1.5023559-1.5872683-2.792665-1.3776018-.6530761.1061405-1.3063082.2447084-1.937883.438844-.5190737.1596009-.7780643.0296179-.9977984-.4671742-.4022021-.9093351-.8719518-1.7891303-1.3219561-2.6769641-4.2623203-8.4085103-9.0709517-16.4592649-15.3618817-23.5460142-7.0183043-7.9062552-15.41862-13.8005632-25.3629673-17.4448494C125.1639631,1.6273156,115.7844236.1019756,104.3760402.0035615c-4.34255-.0520166-10.7489857.4644816-17.5932509,1.6328853-15.8032231,2.697919-30.5523778,8.214765-44.2882031,16.4897412-13.6184465,8.204307-24.0642294,19.4023996-31.6759058,33.3020402-4.0911687,7.4707671-6.9517324,15.4313022-9.317104,23.5879631-1.6608642,5.7270197-2.0258001,11.4999295-.6814842,17.3350018,3.2267483,14.0058592,10.4060584,25.6707357,21.2280937,35.0292032,6.6463444,5.7474673,14.4001398,9.7462705,22.5145786,13.0241379,9.6882834,3.9135396,19.7581262,6.1607518,30.1952463,6.7870196,6.2256067.3735598,12.4056355.1393094,18.5396181-1.0488395,8.5720915-1.6603569,16.8607256-4.2747683,24.9773497-7.4502804,13.2948741-5.2013902,25.5512106-12.1655317,36.5424463-21.3447702,10.2171127-8.5328352,17.8278526-18.9065831,22.7098068-31.2820935,2.2165408-5.618772,3.7834004-11.3873894,3.7324374-17.4892957-.0159601-1.9063531.2555566-3.7594017.6794941-5.609914.6860498-2.994605,1.15498-6.0215595,1.0067736-9.1094667ZM179.0354798,49.6015976c.049207-.0130334.100014-.0221646.1506648-.0272765.3176019-.0319982.7253062-.263361.9192857.075469.1756781.3068318-.1502356.6187365-.3466345.8646936-.5251612.6576807-1.0757649,1.2960454-1.6351485,1.9253179-4.7167341,5.3060479-9.3267425,10.6995446-13.5160131,16.4392465-.0718009.0984141-.1637373.1821558-.3215432.3554535-.3104609-.9044963-.1328317-1.6983646-.0081947-2.4637466.5627786-3.4554966,1.4632556-6.8242858,2.6485949-10.1218594.4760712-1.3242584,1.3432232-2.2675818,2.4906329-2.9958928,2.9776304-1.8900418,6.222485-3.1513964,9.6183556-4.0514051ZM157.1923958,64.9015511c.1822338-.8170475.507367-1.5350565,1.0975393-2.146652,2.559234-2.6525362,5.4614734-4.9041189,8.4174074-7.1151965-.579246,1.6820142-1.1928316,3.3531413-1.7294653,5.0485792-.8046384,2.5414008-1.272593,5.1488273-1.3636709,7.8183771-.0291106.8534942-.228202,1.6497429-.6441009,2.4124324-1.7130759,3.1410164-3.7203795,6.1026867-5.5488052,9.1729559-.3390251.5692563-.6736798,1.1411271-1.0098953,1.7110468-.2516153-.0294228-.1855897-.2319872-.189492-.3516683-.1815314-5.5458785-.2488057-11.0850842.9704829-16.5498745ZM155.4445901,79.421294c.0115506.8939603-.0182624,1.792096.0593138,2.6805931.0742983.8508017-.1982329,1.5097311-.7359593,2.1528955-1.3189514,1.5773566-2.8590808,2.9140631-4.4161459,4.2387898-.2335871.1987402-.382574.2259387-.6425401.0142821-1.6259003-1.3241414-2.5033542-3.0152868-2.476819-5.1164388.0444073-3.5219124,1.1118214-6.7740252,2.7175082-9.8710636,1.5513678-2.9920686,3.5279219-5.6754713,5.8922008-8.0747532.1202665-.1220615.2599661-.2249632.5115034-.4402488.1125401,1.2558134-.249274,2.2832688-.4064556,3.3310157-.5519304,3.6793281-.5508378,7.3803526-.5026063,11.0849281ZM165.8059289,90.7145618c.0446414.0159211.0853026.0430025.2267972.115857-1.0470445,1.3070106-2.0478867,2.624128-3.1182665,3.8820876-9.5600564,11.23571-21.0532741,20.0234774-34.0112303,26.9974135-8.2909754,4.4622702-17.1403589,7.3607244-26.1850097,9.7657816-4.3885962,1.1669598-8.7495646,2.4562153-13.2219025,3.2744725-8.5145728,1.5578455-17.0432716,1.8405616-25.5953837.2296458-13.0248403-2.4535228-25.262368-6.961605-36.5639866-13.9250051-3.7978777-2.3400852-7.4383396-4.8876125-10.1985381-8.4770334-2.0333704-2.6443805-3.2706873-5.7011089-4.4052977-8.7955328-1.9531407-5.3268467-3.0519287-10.8575456-3.6701969-16.4777614-1.4447591-13.1338294,2.4118861-24.7623762,10.1931531-35.2346553,2.3642789-3.1819508,4.9689348-6.1671905,7.6597518-9.0764539.4701398-.5083036.940904-1.0213289,1.2451213-1.6442017.5841628-1.1958363,1.4517831-2.1388085,2.4423234-3.0092774,7.3712994-6.4778464,15.5249166-11.7947425,24.1990903-16.3395447,9.7600063-5.1137853,19.9249073-9.1763508,30.6680397-11.7144738,4.6548839-1.0997245,9.367989-1.800876,14.1473538-2.1198827,8.7179566-.5819385,17.2007653.5447894,25.3415832,3.6783135,7.4627676,2.8725825,14.1999557,7.0789839,20.4627897,12.0318806,8.8734993,7.0176019,16.3333011,15.2656529,21.7705027,25.2498029.5612958,1.0304991,1.0639021,2.0928793,1.599131,3.1375825.1370461.2673803.2224267.466823-.1226859.6872205-2.9561681,1.8882077-5.6671986,4.1025242-8.3650396,6.3334252-.0327787.0271205-.0868635.0285253-.2357723.073791.024584-2.7223469.1016139-5.3795267-.1183154-8.0310093-.2312457-2.7862263-.6632218-5.5271869-1.8744719-8.0846649-.6537004-1.3800992-1.3977763-1.6157155-2.7616813-.8750345-1.2730613.6914349-2.3001264,1.7007449-3.3200114,2.6997531-6.2098418,6.0834097-10.3376134,13.3143852-11.900922,21.915041-.6437888,3.5417748-.6696995,7.0660676.800424,10.4625625.3259917.75309.6572124,1.5237401,1.1981386,2.1269067.6236533.6955713.6313797,1.4195117.4893388,2.2535338-.1976866,1.1605602-.2552834,2.3356756-.1428214,3.5132105.0145943.1525769.0102238.310695.0503387.456404.128071.4645597.1952672,1.0521564.7414224,1.1559165.4899631.093029.6939714-.4409122.9368457-.7795471.7270622-1.0140317,1.2043821-2.174904,1.9069384-3.3893929.0628258.7430223.1059844,1.3353798.1643616,1.9262154.1161302,1.1746862.5269562,2.2382371,1.2994403,3.1329779.2519275.2918082.2210219.510801.0687572.8106088-1.128679,2.2230965-1.9037386,4.5635329-2.3165157,7.0243918-.0723472.4315078-.1107451.8604012-.0890487,1.2958112.0191989.3850324.1478943.7027123.5484965.8323442.4162892.1347047.7612457-.0124481,1.0262847-.3269283.373833-.4434486.4940214-.997057.6224826-1.5462949.5000309-2.1363111,1.2699395-4.142561,2.7296831-5.8370624.314207-.3647408.575812-.4568723,1.0393961-.3033588,2.5191191.8340612,5.0997373,1.2580767,7.7640192,1.074282,1.6736635-.1154668,3.2269044-.7434125,4.8418784-1.1078411.2982859-.0673133.5996936-.12292.9017257-.1704101.1523428-.0239206.391471.0005073.3094463.1951892-.3876468.9199881.3785937.7747474.8220423.9329435ZM148.5926765,52.9746403c-.0797614,1.1846759.1079355,2.3507382.3693844,3.493075.3209188,1.4015225.3344205,2.7710857-.0340274,4.1624233-.5347607,2.0197126-1.0308893,4.0496491-1.5831319,6.2318113-1.2927285-2.373098-1.3724899-4.9602719-2.3876142-7.2826409,0,.4280349-.0164674.8568501.0045266,1.2838314.0225548.4587453.0662597.9175687.1251833,1.3731923.2569224,1.983461.7183212,3.9132664,1.5505874,5.7414189.1165204.2559078.2258607.4852414.1535915.7962486-.8486555,3.6511541-1.6813118,7.3060153-2.5358207,11.0365015-1.1803444-.9723169-1.9690618-2.1758796-2.5509613-3.5092692-1.0749844-2.4633954-1.226937-5.0796019-.8481872-7.6754777,1.3326872-9.1325288,5.4876183-16.8488628,12.0023798-23.329753.8708982-.8664106,1.869399-1.585083,2.915507-2.2298473.1533574-.0945118.3256015-.3276697.5364776-.1297879.2007304.1884384.0167796.3976756-.071957.5559497-.461711.8231349-.9407479,1.6367875-1.4255601,2.4466549-1.9243423,3.2147685-3.2767748,6.6804889-4.4903662,10.2075523-.082415.2395185-.1652982.4788808-.2480253.7182822-.68804-1.7796088-.6839817-3.6242287-.6700898-5.6540481-.6702458.5749145-.7712354,1.1596236-.8118965,1.7638829ZM145.5326312,79.4226598c.6401987-3.4828902,1.2312294-6.9770188,2.3123013-10.361534.0867854-.2717118.2196952-.5113083.4587453-.6866352,2.8166246-2.0663052,5.1681043-4.6198029,7.5117795-7.1811051.1533574-.1676395.2854866-.3548291.41426-.5164592.4838757,1.9000315-.4674863,3.1614641-1.6420555,4.3945666-3.9401527,4.1360443-6.7892438,8.9017123-8.1559585,14.4936761-.0741422.3031637-.1521867.6429303-.565198.5806118-.4291665-.0646989-.3901443-.4172647-.3338742-.723121ZM155.8437094,60.1548478c-2.0263464,2.5569707-4.3883621,4.7720286-6.9494691,6.7814004-.1519526.1192519-.286111.3012126-.5263319.263322-.117535-.19316-.0760934-.3997828-.0309837-.5893918.3959196-1.6618788.7760741-3.3282841,1.2142157-4.9791586.2943057-1.1089728.8887703-2.0792606,1.7666144-2.8179514,2.1201559-1.7842525,3.9237634-3.8741271,5.804869-5.8905619.1680297-.1800876.2857208-.4222986.6798453-.5571984-.103565,2.206395-.3064026,4.304035-.9901501,6.3267133-.1909748.5648858-.6048446,1.0038079-.9686098,1.4628264ZM157.6752569,50.967922c-2.080041,2.4235927-4.3080543,4.7054567-6.6180143,6.9086519-.0505728.0481925-.1291636.0670792-.366809.1852776,1.4942393-5.1880446,3.7486316-9.8392995,6.4879142-14.3858577.4597599.7195699.4891046,1.4617728.5755779,2.1692458.1799705,1.4707869.1845752,2.9528903.1851215,4.433862.0001561.2781114-.0905316.4870755-.2637903.6888204ZM178.7222874,77.6774295c-3.3446735,12.411684-9.3632283,23.301657-18.5422716,32.3734282-12.474861,12.3291129-26.928149,21.5803864-43.2941508,27.8772868-7.4213259,2.8553737-14.9615136,5.2766641-22.7801639,6.7961118-7.4004881,1.4382424-14.8367205,1.8060269-22.3444417,1.0652289-13.8965969-1.3711632-26.9022383-5.4793066-39.008027-12.453828-14.7321409-8.4876865-24.423312-20.9629376-29.4041876-37.1481494-1.2588572-4.0906615-2.0661491-8.2786053-1.7421085-12.5999662.3012516-4.0174558,1.1993873-7.9226445,2.3888629-11.7574763,2.8862403-9.3057095,6.6713187-18.2149531,12.0463969-26.3779356,8.2876975-12.5864255,19.0990408-22.3895514,32.4192013-29.4914413,12.6625579-6.7512752,26.0214285-11.37779,40.1725284-13.6993395,6.9705411-1.1435465,13.9992254-1.8563266,21.0645125-1.5424707,15.9015592.7064194,30.1928269,5.7778266,42.3865717,16.2072203,4.2769146,3.657983,7.81467,7.9998305,11.028541,12.6035563,4.3313116,6.2044567,8.4381672,12.5419792,11.5001637,19.4983553.2774481.6302481.2157929.9006331-.4397025,1.1674671-1.0852863.4416926-2.1331112.9787166-3.182341,1.5041509-.3782035.1893749-.5787777.2399477-.8064334-.235148-5.8331211-12.1692779-14.8798791-21.5749623-25.5281094-29.5898554-7.1338882-5.3696931-14.8311013-9.6672114-23.4458832-12.1990908-6.8364607-2.0092547-13.821284-2.6631892-20.9173987-2.3247104-11.6234739.5544669-22.6294601,3.6751918-33.3295119,8.0464231-11.8993611,4.8611164-23.1407293,10.8885682-33.2477993,18.9018614-1.8215577,1.4441737-3.5890307,2.9569096-5.3682883,4.4538414-.3394934.2856818-.6159269.4499653-1.0680385.191287-.486217-.2781505-.9554983-.138646-1.4201751.1940966-1.8338888,1.3132151-3.2294018,3.0430706-4.6192956,4.779638-5.236081,6.5419209-9.6284233,13.5726344-12.4231955,21.5231018-1.9071725,5.4254559-2.9872298,11.0042301-2.6673256,16.764965.3864762,6.9606685,1.5000146,13.7981048,3.9748045,20.3655463,2.5008567,6.6363157,6.759587,11.8803963,12.4449699,16.05398,6.7443683,4.9509846,14.1880149,8.5622579,21.9280745,11.6239422,7.6357921,3.0204768,15.5172682,5.0765581,23.6882112,5.957524,6.936982.7479391,13.8749006.8361293,20.7855816-.2786187,3.93547-.6348137,7.7521564-1.7975201,11.6176206-2.7454091,8.3760439-2.0538961,16.557757-4.6728731,24.323181-8.45003,12.7981992-6.2250995,24.4961275-14.0328626,34.4350897-24.3190446,4.2226737-4.3702557,7.8868612-9.183765,11.2616598-14.2236422.8694153-1.2983086,1.7987688-2.5410887,2.8362918-3.709024,2.4426356-2.7495844,4.0116805-6.0180865,5.4983494-9.3331421.1666639-.3716477.3284891-.7454027.4925386-1.1182211.0861611,1.9245374-.2186416,3.8081795-.7143019,5.6475314ZM180.6371863,63.2544227c-1.2943284,5.3246615-2.9273307,10.5246079-5.8619976,15.2209334-2.2225502,3.5568373-4.9109478,6.6679628-8.5798179,8.8029471-2.8203708,1.641275-5.8163416,2.7569596-9.1483718,2.6348981-1.8725208-.0686011-3.6785477-.4912509-5.5424055-1.1841686.6089029-.6601001,1.2174936-1.2316977,1.7225193-1.8836421,1.6849019-2.1751772,3.7040682-3.6260628,6.5171028-4.240741,3.5340093-.7721329,6.9038912-2.1795477,10.1350099-3.8547331,1.1599748-.6014106,2.2650064-1.2843777,3.2601513-2.1368964.2649609-.2269923.5399896-.4422389.7225356-.7709232-2.5619656,1.8916417-5.4335335,3.1253295-8.3540353,4.2483113-2.8964641,1.1137725-5.8143124,2.1738114-8.95209,2.7282003.0483876-.1647519.0545531-.2427183.0909998-.301993,2.0497598-3.3260208,4.1081044-6.6467347,6.145377-9.9803258.2248461-.3679016.5589544-.4960896.9050816-.6509689,4.7186462-2.1117271,9.2847936-4.4913417,13.3933272-7.6668928.8210668-.6345795,1.6000676-1.3209415,2.1406035-2.2472903-4.7602829,3.654588-9.7988334,6.824559-15.3323419,9.1917255,4.8440637-7.6614688,11.160202-14.1127801,16.9716658-20.9614938.5783095.6307163.9422308,1.892227.9982667,3.5091912.1125401,3.2489519-.4701789,6.4118208-1.2315806,9.5438622ZM137.8589875,84.5659069c-3.5786508-1.3314775-7.284436-1.4351206-11.0318189-1.1121336-.0564261-.0573627-.1127742-.1146863-.1691223-.172049.3067147-.2608246.633721-.5014357.9171785-.7854785,6.8317781-6.8453578,10.6168564-15.1015644,11.2448022-24.7430212.4974554-7.6387968-1.2215519-14.7863818-5.4312702-21.2179869-4.2453066-6.485924-10.1693495-10.6260267-17.8675772-11.9569579-6.1918135-1.0704969-12.423976-1.3856404-18.6964094-.6135075-6.3827883.7856736-12.3404684,2.7054503-17.7577686,6.2217045-4.25834,2.7639446-8.1483101,6.0005265-11.8996733,9.3941729-5.1525734,4.6612445-10.5847802,8.9122093-16.6974566,12.2606289-1.813207.9932719-3.5353361,2.1482519-5.1645923,3.4314199-4.5061312,3.5488768-8.2669377,7.8307862-11.9354957,12.195852-2.8350431,3.3734329-5.3294222,6.977292-7.1530871,11.0171465-2.9091073,6.4444044-2.785641,13.2677537-2.4934425,20.0986342.082493,1.9294152,1.0226166,2.5137731,2.9318963,2.1768942.9588543-.1691614,1.8855542-.4466094,2.7919626-.7989802,2.1521541-.8366757,4.1385417-1.9714421,6.062806-3.2435669,3.6437398-2.4089204,5.2804883-5.8840452,5.5989097-10.1265811.1638934-2.181889.4609306-4.335565,2.2095168-5.9470661,3.3662137-3.1022283,6.7819857-6.1263342,10.842561-8.3374899,6.183853-3.3674625,12.6165897-6.278638,18.525414-10.1548723,1.3421306-.8803806,2.8705534-1.4441737,4.4706209-1.7449181,1.2204593-.2294507,2.4385773-.2824429,3.6329697.1252614,1.4456176.4934361,1.9333955,1.4981805,1.4556853,2.9443834-.3097585.9375481-.8509968,1.7424597-1.470904,2.4932084-2.5885007,3.1348119-5.8014351,5.5129047-9.2513125,7.6015696-4.3988981,2.6632282-9.1196515,4.6938671-13.7184995,6.9623465-7.5703128,3.7343495-14.3028183,8.5066903-19.3808593,15.373003-1.4421836,1.950058-2.9441493,3.8658934-3.5398627,6.2958468-.540692,2.2054194-.0071801,4.0879689,1.6406507,5.6533847,1.1272742,1.0709261,2.4514546,1.8414591,3.8719419,2.4315142,3.8877849,1.614896,7.8498681,3.0381538,11.804459,4.4775669,2.7036163.9840236,5.5181337,1.2440677,8.3786193,1.0504394,2.606685-.1764195,5.1786403-.5969231,7.6896428-1.3047083,13.1429216-3.7045365,25.4505332-9.2330501,36.7599562-16.924566.3818716-.259732.7607774-.5238735,1.1651258-.8026092.0415197.1395435.0603284.1672103.0534605.1850824-.1635812.4281519-.3343425.8535333-.495036,1.2827778-1.8995242,5.0726949-1.0951979,9.6402471,2.620733,13.6179392,2.5123293,2.6892951,5.5559072,4.658591,8.9003465,6.1337874,2.6676378,1.1766373,5.5235968,1.6800241,8.3928234,1.1394882,8.5427468-1.6092768,14.0668899-6.8673273,17.0706652-14.8265357,1.1995434-3.1786339,1.4188483-6.6293698,1.8509025-9.9943738.3736769-2.9099268-.573939-5.3872531-2.7398289-7.3799624-1.1625503-1.0696384-2.51709-1.8288159-3.9896329-2.376688ZM64.453098,43.99582c1.0346354-.8493579,1.023397-.8710933,2.1790794-.1540988,1.9976261,1.2393851,3.6785477,2.8249754,5.0796019,4.7069005.2263289.3039051.4067677.647652.5703489.9910866.1890237.3968951.1052039.6482373-.3196701.5921624-1.6682004-.2880621-2.9976878-1.079511-4.2339121-2.0465599-1.2306051-.9627565-2.2898245-2.1050543-3.3484196-3.24903-.3283331-.3548291-.2907156-.5419407.0729716-.8404608ZM39.7831655,86.8390689c-.703883,5.802996-4.3909375,9.0862094-9.4799047,11.1728062-1.3949667.5720269-2.8285654,1.0226946-4.2997036,1.3587541-.3649359.0833905-.5624664.0924827-.5718318-.380818-.0705522-3.5271804.0447975-7.0469467.3732086-10.5593767.0127993-.1370851.0814784-.2689412.1556207-.5026063.2222706.430064.389754.7686599.5699587,1.1002318,1.2803194,2.3554599,3.0389733,3.0352662,5.5833008,2.1430229,1.7773846-.6233021,3.2306505-1.7409768,4.5044922-3.0906778,1.0837254-1.1481901,2.109854-2.3506992,3.2365038-3.6131854.2612929.8542357.0197452,1.6179788-.0716448,2.3718492ZM81.821815,59.0347928c-.2160271.1542549-.4172257.2508739-.7036489.177356-2.4688585-.6335649-4.8109728-.2087689-7.0619312.8893557-.8715225.4251472-1.7691119.8149403-2.5867837,1.3290972-5.3472163,3.3624676-11.012776,6.1403432-16.592955,9.0738784-6.447253,3.389432-11.9804493,7.8601309-16.4560651,13.6327676-1.2684566,1.635968-2.7303855,3.1125302-4.3064934,4.4634018-.8427241.7222625-1.785111,1.2762611-2.8758604,1.5453974-1.298894.3205286-2.4220318-.064933-3.1192811-1.2084405-.5960256-.9775069-1.0805256-2.02381-1.5985067-3.0477533-.1760683-.3481563.006946-.7047025.0746105-1.0450934.4712325-2.3719663,1.3456426-4.6025941,2.4624589-6.7366419,4.4721038-8.5449321,10.6007793-15.7296272,18.0061061-21.8599417.1504697-.124637.2799455-.3051148.5293756-.3081976.9362994,2.8324286,3.2682679,4.333848,5.6131918,5.7980011,1.6486112,1.0293674,3.408748,1.8524243,5.2502851,2.4841552.6181121.2120078,1.269081.5182933,1.8339668-.1409483.5761242-.672275.4354881-1.3877866.0757031-2.0741486-.8995405-1.7156124-2.2861564-3.0032289-3.8185594-4.1299178-2.0560033-1.5116822-4.2785535-2.6867196-6.8376314-3.1076134-.091312-.0149845-.1745855-.0787469-.3568973-.1647519,1.0388498-.6557686,1.9948945-1.2870312,2.9771621-1.8742378,3.6648899-2.1908641,7.3062104-4.4153654,10.4546801-7.3379354.4098895-.3805058.5742512-.1583912.8224325.1500015,1.4175996,1.7611513,2.9930051,3.3582532,4.9213277,4.5673961,1.1105727.6963517,2.2737474,1.2811389,3.6153317,1.3683926,1.2922602.0840929,1.8983535-.7677234,1.386772-1.971208-1.0800573-2.5412448-3.0160282-4.333809-5.2178186-5.8833428-.4381416-.3083927-.8820585-.6193609-1.3582858-.860089-.496675-.2511081-.5639493-.4306493-.1240907-.8430753,1.1010513-1.032138,2.2334764-2.0259562,3.3974315-2.9847324,3.5880161-2.9554657,7.1130503-5.9862444,11.1261746-8.3874774,5.8232875-3.4843731,12.1290459-5.2790445,18.8780969-5.6606819,3.4555746-.1954233,6.8981159-.2214121,10.3030397.4926166,4.2444481.8900581,8.055047,2.7396728,11.4959493,5.3541233,1.0974612.8339441,1.0832571.9015306-.0856928,1.6824825-2.8459694,1.9012411-5.7109816,3.773957-8.5656919,5.6619306-4.3469985,2.8747678-8.6427998,5.8244972-12.9096467,8.8166829-1.2767294.8953261-2.5795256,1.7458156-4.0085197,2.3876533-.3910028.1756-.7556265.2111493-1.1801884.0927168-3.7286522-1.0401766-6.7686401.38792-9.1670245,3.3618042-.7450124.9238123-1.0135634,2.0094498-.5264099,3.1624006.1328317.3144021.0460462.4410293-.200028.6117905-1.1960314.8303931-2.3810585,1.6767072-3.5660856,2.5228263ZM48.6691519,55.6336541c3.2538297-.2095494,9.6782937,4.2874896,10.4112873,7.3338381-3.5340093-.3103438-9.8026186-4.7523614-10.4112873-7.3338381ZM95.6979643,53.4240203c-.8666838,1.9356978-3.4071871,3.5926988-5.6799199,3.5394724-.8417095-.0657525-1.8747841-.3192019-2.7682371-.9684537-.7762302-.5640663-.9705609-1.3156735-.5666028-2.1511785.9035988-1.8692429,4.4077951-4.4555193,7.4040781-3.6494761,1.7110468.4603062,2.3304857,1.6221541,1.6106816,3.2296359ZM84.802333,58.2633623c-.2575467.8279347-.733774,1.5125017-1.216401,2.1891862-.131583.1844191-.2395965.6261507-.6030496.2734678-.2519275-.2444353-.4922264-.5386629-.1577279-.9219392.5572375-.6385598,1.2572963-1.0928176,1.9771784-1.5407147ZM40.6372841,95.9063916c.317641-.7644065.8311735-1.4004298,1.3436915-2.0390677,3.5003722-4.3617879,7.9571792-7.5257104,12.787429-10.2226539,3.3669161-1.879974,6.8542549-3.5221856,10.312405-5.2225013,4.3164831-2.1223021,8.4469082-4.554987,12.2952806-7.4517243,3.2321334-2.43288,5.7586667-5.4123834,7.180871-9.2500638.5850213-1.5784102,1.6838873-2.7785389,2.862905-3.9277436.3297379-.3213871.6295066-.2016279.9799263-.1095354,2.2719523.5972352,4.4084195.3783205,6.3054462-1.1199771,1.0962125-.8658643,1.7826916-2.0182298,2.2230185-3.328128.275497-.819779.1663908-1.6150911-.1819997-2.3849217-.1272125-.2813113-.2115785-.475759.1601472-.6734066,4.2537354-2.2620017,8.0838454-5.1706017,12.0148669-7.9230348,4.7086565-3.2967932,9.5124493-6.4465506,14.389916-9.4870458.5492769-.3424201.9081254-.3007443,1.3154394.1362656,4.2341462,4.5428511,6.7688742,9.7511092,6.2600243,16.1268735-.6928007,8.6793246-4.5130771,15.9097928-10.3724212,22.1719244-5.0858454,5.4354456-11.1369447,9.5693047-17.6814412,13.0325667-4.2279807,2.2373786-8.6353076,4.0647117-13.1366,5.6547115-7.1775931,2.5354304-13.8624134,5.9741475-19.973607,10.5276126-2.5857691,1.9266056-5.3822583,3.428064-8.6497458,3.8504796-1.0906714.1409873-2.1815768.263283-3.2862182.2292166-6.1361678-.1370461-11.709635-1.8568338-16.473469-5.8615683-.9167103-.77065-1.1421027-1.6059209-.675865-2.7282783ZM96.977113,101.0672768c-8.595661,4.9404876-17.5634379,9.020457-27.1551023,11.6386145-2.6860563.7332277-5.409808,1.3022109-8.1601729,1.7288799-3.2615561.5059622-6.4327367-.0239596-9.4930162-1.1158017-3.7704841-1.3452524-7.4942975-2.8222048-11.2305981-4.2621251-.8822926-.3400007-1.7052715-.8124429-2.4790043-1.3610174-2.1156293-1.4998195-2.8201366-3.4902654-2.0720024-5.9659528.4419658-1.4624362,1.3038108-2.7062307,2.1840743-3.9316849.1459431-.2031888.3377764-.4658474.5463893-.0423781.9490987,1.9266446,2.6233865,3.1283342,4.3807137,4.1699937,6.1897843,3.6688702,12.8045988,4.7525565,19.8235275,3.0078336,2.1651875-.5381946,4.0398155-1.7106956,5.8494324-2.9566364,3.8075552-2.6215915,7.5739809-5.3030822,11.7544325-7.3252532,4.0062564-1.937922,8.2064532-3.3838128,12.3932264-4.8563167,7.7857936-2.738268,15.0792827-6.3955095,21.6281496-11.4572782,5.0772605-3.9242707,9.5774603-8.3994572,12.7150818-14.058305,3.1347339-5.6537359,4.7138855-11.7287559,4.3620611-18.228884-.2033058-3.7564751-1.7173684-7.061658-3.7540947-10.1503847-2.3476555-3.5602713-5.4166759-6.3662038-9.0686104-8.548366-.1532013-.0915852-.3088219-.1793852-.4585893-.2763554-.038632-.0249742-.0589236-.0781225-.098336-.133378.3869444-.0747666.7024782.1184325,1.0200411.2504837,7.4420858,3.0940337,12.2637507,8.3742488,13.6794772,16.4692546.5822897,3.3294548.4474289,6.6639435.0028876,9.9998369-1.3787335,10.3459251-6.8871116,18.1590733-14.932403,24.4289312-4.5882339,3.5756851-9.5822991,6.5137079-14.6325562,9.3665842-1.9559503,1.1049535-3.9170516,2.2024928-5.8007327,3.4293907-.1696687.110511-.5287512.2171977-.3782035.475681.1578059.2710874.4522677.0779664.6766455-.0390613,6.3152018-3.2935153,12.6864395-6.4896312,18.5538222-10.5679616,4.6676051-3.2444254,8.9681672-6.9024473,12.1390356-11.6759588,5.2287448-7.8717205,7.2294146-16.515613,5.8571588-25.9013571-.0181844-.1244029-.0215403-.250991-.0364468-.4322883.33005.2288264.3549462.5621933.4572625.8400706,4.3434084,11.7884209,2.4397479,22.7258059-4.5201792,32.9621566-1.2512869,1.8403274-2.6777835,3.5441941-4.1771737,5.1902299-1.1291473,1.2395412-2.459259,2.1418132-4.0562829,2.6438732-3.9913499,1.2548769-7.6168273,3.1879602-10.8700327,5.822351-1.1961094.9686879-2.1227313,2.2096338-3.2976907,3.2006814-3.510596,2.9610069-7.3851914,5.38179-11.3521914,7.661898ZM141.9858226,103.2755058c-1.8370105,4.9366634-4.704208,9.1043548-9.1694439,12.0248566-6.4110404,4.1931338-13.9117375,3.2369721-19.4788051-.9254512-.0373053-.0278229-.0540068-.0830393-.1532793-.2429134,1.9316785.5226638,3.7614309,1.03565,5.6669645.9499572,7.0048027-.3149094,13.17172-2.7683541,18.4740607-7.3594757,1.7654438-1.5286179,3.2921495-3.2750968,4.5478849-5.2511826.0767958-.1208518.1798925-.2249241.3220895-.4000559.0554116.495075-.0800736.8564209-.2094713,1.2042651ZM143.1326079,96.04933c-1.2855484,4.7308992-4.054722,8.5050904-7.8358981,11.5282987-4.9588671,3.9647757-10.6442501,6.0870778-17.0042494,6.2982661-2.1175023.0703181-4.1682767-.37395-6.1282073-1.1727741-5.0291851-2.0497988-7.4277256-7.4251501-5.7917576-12.9588147.8623133-2.9169118,2.469717-5.4091446,4.7020228-7.4195309,3.4074993-3.0689034,7.2639883-5.4538251,11.6539893-6.8875799,2.2735913-.742554,4.6315486-1.0214459,7.3770747-1.1511558,2.5685993-.0010146,5.4509374.2946178,8.1645434,1.514843,4.4657041,2.008006,6.1495914,5.5113438,4.8624822,10.2484476ZM108.6506915,51.3099519c2.550493,1.4107707,5.2122774,2.569692,7.9909725,3.4459752,1.2162449.3835495,2.4633954.6644315,3.8383827.665212.4815343.0346908,1.0379913-.0430025,1.5869561-.1666639.802141-.180712,1.1664525-.8044043,1.3606272-1.5082483.1880872-.6817574-.0994286-1.2318538-.6661875-1.66223-1.1101044-.8428412-2.3300955-1.4678602-3.6579439-1.8720135-3.7042243-1.1275864-7.5522065-1.1018707-11.3606202-1.3914547-.3359814-.0255596-.5875187.0727374-.7484464.3970902-.1767707.3565071-.0646208.6369989.1657664.9088278.4184744.4935532.9280267.87242,1.4904931,1.1835052ZM113.2512564,50.3793497c2.2252037.2812722,4.4527487.5675393,6.5680658,1.379709.6947518.266756,1.3447061.6097224,1.9244984,1.0834522.2373332.1939015.3723501.4051678.3017199.7247209-.0758592.3432395-.3431615.4145332-.6250581.4681497-1.4173655.2697217-2.7964111.0102238-4.1611746-.3357473-2.8597832-.724994-5.5431079-1.8896125-8.1127218-3.3252794-.1612399-.0901023-.3997437-.1181983-.4522677-.4764224,1.5417683.1607326,3.0531774.291301,4.5569381.4814173ZM94.2894178,68.3398389c1.9022557,2.4594932,4.1246498,4.5960384,6.612239,6.4548623.9263878.6921373,1.9390147,1.2336878,3.0882974,1.4662994,1.2117964.2452157,1.904519-.3258747,1.9034264-1.5555822-.0007804-.8406949-.4680326-1.971286-1.283207-3.0609818-1.5683815-2.0964303-3.542282-3.7314618-5.7828605-5.0615736-1.4143998-.8396023-2.883977-1.5325981-4.5463241-1.707964-.9976424-.105243-1.4419495.4366197-1.1335178,1.3962154.2445913.7611286.6563539,1.4408959,1.1419466,2.0687246ZM95.3880497,66.0779543c3.1155349,1.2627204,5.7336145,3.212154,7.8617308,5.8081469.6913959.8433875,1.0677263,1.8409518,1.2533941,2.922609.098258.5724561-.0655573.6052348-.545843.4408732-.8087748-.2767847-1.5349785-.6989662-2.2152921-1.1948997-2.726015-1.9872852-5.0760118-4.3505495-7.0189287-7.1123479-.1612399-.2291385-.2996127-.4746664-.4429804-.7159409-.0499485-.0840929-.0828052-.1783706-.1542939-.3360595.5085377-.1329097.8949358.0387491,1.2622131.1876189ZM73.2483187,79.1400217c1.1952509,3.9589224,3.6752698,6.9899742,6.8857068,9.4809193.5823678.4519165,1.3397112.7473928,1.9978602.3536585.6227948-.3726233.6361404-1.169067.6853084-1.8935147-.0234914-.1991695-.0259888-.4323663-.0805419-.6526858-1.0328404-4.1710863-3.5187126-7.2268391-7.2298829-9.3085191-.5545839-.3110462-1.2981135-.7245258-1.8555851-.2754189-.6295066.5071329-.5754218,1.3685487-.4401708,2.1471983.008741.0501045.0225548.0995847.0373053.1483625ZM74.2833443,77.7884087c2.8875671.482666,7.633763,6.696449,7.0933051,10.0590727-2.6988555-.6926056-7.5991893-7.8175967-7.0933051-10.0590727ZM58.9092096,92.1105821c.8491237.6672021,1.7892473,1.177808,2.8706314,1.3806846,1.1008171.2065056,1.734304-.3353961,1.718461-1.4764451-.0063216-.458121-.0732837-.8293005-.4121528-1.3770945-1.5345102-2.4805262-3.738798-4.0821546-6.5473841-4.8268158-.8884582-.2355772-1.3853672.2538786-1.3276924,1.1941583.0351981.5738609.266834,1.0874325.5601251,1.5718935.8293005,1.3696413,1.8828226,2.5472542,3.1380117,3.5336191ZM62.180053,92.2233563c-1.7559224.2486497-5.0121714-2.3306027-6.0116088-5.3833119,2.4447428.001756,5.6246644,2.8492862,6.0116088,5.3833119ZM92.606311,38.8924536c.8739419,1.7311432,1.795647,3.4363367,2.8205269,5.0843626.203696.3275136.4240936.5392872.8627815.4622183.4741201-.0833125.5268001-.4326785.5788558-.7839176.0446414-.3014077.038632-.6103857.0654013-1.1086606-.1588985-1.9984065-.2859549-4.1910266-.51962-6.3722133-.2328066-2.1718213-.7929317-4.2613837-1.9522822-6.1502158-.3956074-.6445302-.8777661-1.1904122-1.6054526-1.4716844-.9871844-.3815984-1.5107067-.2173148-2.0591251.6837475-.6994345,1.1490876-.6155367,2.4102471-.4064556,3.6489688.3604093,2.1348282,1.2474627,4.0901151,2.2153701,6.0073944ZM91.3939683,30.2263185c.1116036-.9910866.438766-1.1414003,1.2789926-.5926696.6426961.4197231,1.0401766,1.0388108,1.3553201,1.7203341,1.1809688,2.5534587,1.4609923,5.2928584,1.639402,8.0486083.050885.7861419.0077264,1.5783322.0077264,2.3677519-1.8021247-2.5252456-3.1835117-5.2286668-3.9755069-8.209614-.2907937-1.0943785-.4334589-2.2034683-.3059343-3.3344106ZM44.6411211,68.1736822c-1.3167662-1.1709791-2.9006005-1.7756286-4.61992-2.064315-.911013-.1529671-1.2045382.0716838-1.2696273.984687-.0299691.4210109.0252864.8404218.2854866,1.1673891,1.3614076,1.7105395,3.0185257,2.9505489,5.2578554,3.2097736.589704.0924046.9156176-.1796193,1.1252451-.7010734.3596289-.8943895.1346267-1.7840574-.7790398-2.5964612ZM44.1648157,70.2274222c-.2608246.3452687-.9033646.0047997-1.3351066-.2029936-1.3013134-.6263849-2.1682312-1.7162367-3.1371532-2.924287,1.6354997.1976086,2.9777865.6423059,3.977536,1.8135192.3259137.3817935.7732645.9449623.4947238,1.3137615ZM139.2405306,88.4015581c-2.978723-2.0258781-6.3187138-3.0456851-9.9073542-2.8599783-6.6565683.3445663-12.50124,2.7463456-17.4281088,7.2939964-2.4374066,2.2498658-4.300406,4.83583-4.9612084,8.1624752-.8862729,4.4607093.8981357,8.1069075,4.9749442,10.1299761,1.9614915.9733315,4.0630727,1.3108348,6.3283133,1.3628514,6.3774032-.307144,12.1222561-2.4367042,16.9248001-6.8672493,2.8938887-2.669745,5.1897226-5.766159,6.3929341-9.5673145,1.0318258-3.2594879.2464644-5.9062488-2.3243202-7.6547569ZM134.3345776,87.9512025c.1798925.1540598.0041364.333523-.0856148.4681497-.568788.8533381-1.2955381,1.5702156-2.0226003,2.2835419-.6285701.6165513-1.2768074,1.212967-1.9163037,1.8182799-.029891-.036837-.0597821-.0736349-.089595-.1104719,1.2315416-1.4247017,2.4612882-2.8508862,3.6974344-4.2714905.103487-.1189007.2099396-.365053.4166794-.1880091ZM130.3674996,87.7013431c.2022912-.4150795.4498483-.563403.8874436-.5056891.5767486.0760543,1.1573213.1235834,1.8878175.1990134-1.8795448,2.6638916-4.1475168,4.8117533-6.0822391,7.2693734-.1137108-.2659755.0573627-.428308.1407142-.5964548,1.0528198-2.1233947,2.1283505-4.2356681,3.1662638-6.3662429ZM128.718186,87.4938229c.0988043-.1728295.2462303-.4013046.4672522-.2836136.1997938.1063746.0408953.317758-.0295008.4698277-.3963098.8553673-.798707,1.707886-1.1990751,2.5613802-.0577529-.0248572-.1154278-.0497143-.1731026-.0745715.2268753-.9181541.4560918-1.8366203.9344263-2.6730228ZM122.8085813,88.160947c1.3467352-.4013436,2.7122792-.7069267,4.1058411-.8909556.3291135-.0434317.5782314-.0632941.4443071.4030216-.8435045,2.9358376-1.8120363,5.8283604-3.0125162,8.6775686-.5653541-2.5543172-1.3729582-5.0205222-1.9600086-7.5433485-.0914681-.39311.0732057-.5422529.4223766-.6462862ZM120.7521877,88.9073252c.3073391-.098219.3355131.2454889.4085628.4372831.8068236,2.1183999,1.3336238,4.3070788,1.6237931,6.5565543-.8538845-2.0722366-1.6403385-4.1641013-2.2179456-6.3283913-.0664939-.2490789-.1152717-.5692563.1855897-.6654461ZM118.5632747,89.9675202c.2670681-.1332219.5500574-.3479612.7353349.1239736.3992755,1.0169193.7870004,2.0368044.9345044,3.1424603-.6193609-.8720298-1.2288881-1.7513177-1.8630774-2.6124603-.2483375-.3373082-.0943558-.5105278.1932381-.6539736ZM112.369354,94.6806643c1.2379413-1.3772506,2.6951875-2.4895403,4.2023821-3.5466525.2617611-.1835996.4155868-.0850685.5779192.1112134,1.6422896,1.9856072,3.1103059,4.0954612,4.6383385,6.4140061-1.929025-.5290634-3.6381987-1.0173096-5.3584547-1.4632556-1.2574524-.3259917-2.5245823-.6194389-3.7971753-.8798733-.4929288-.1008334-.6557296-.1985451-.2630098-.635438ZM114.4334739,96.9348615c-.8862729-.1476211-1.7724678-.2952812-2.6586626-.4429023.9445721-.1415336,1.8196847.138685,2.6586626.4429023ZM108.5748323,101.6355185c.1646738-1.3388918.6110881-2.566336,1.2946796-3.723033.1784877-.301954.389754-.3574436.6942055-.2953202,3.4727444.709151,7.0030857,1.0324892,10.5021311,1.5652207.0690693.010497.1325195.0581041.3377764.1522257-2.5735942.9113642-5.136028,1.3511057-7.6632638,1.9249276-1.5141406.3437078-3.0457632.6099955-4.5639621.937314-.5252392.1132425-.6672802-.0272375-.6015667-.5613348ZM117.2519716,101.3715331c-2.9048929,1.1193527-5.8093176,2.2747229-8.9877563,2.4290558,2.8715679-1.2443799,5.9747718-1.6591472,8.9877563-2.4290558ZM112.6767711,110.012733c-1.6141936-1.005876-3.0108773-2.1875473-3.6449105-4.0671311-.3216993-.9535863-.3291915-.9474988.6374672-1.1266499,2.9110584-.5395604,5.7663151-1.2876556,8.5510195-2.2979411,1.0247238-.3717648,2.0149519-.8212619,3.0076775-1.3109128-2.804918,2.5792134-4.7973931,5.8361649-7.3410182,8.6215327-.4123089.4514872-.7098924.4928508-1.2102355.1811022ZM116.0558622,110.821976c-.3491709.2485716-.7885612.2196171-1.074204.001717-.319436-.2436938.0671182-.5110742.2233633-.6797673,1.9399512-2.0939719,3.5763094-4.435657,5.4500789-6.5912841-.2697997.809126-.7294816,1.5100823-1.1858856,2.2070974-1.0317478,1.5758348-2.0902648,3.1341095-3.1391824,4.6987059-.0848343.1266271-.156167.2795162-.2741702.3635311ZM124.9345124,110.1718657c-2.3744247.5856456-4.7658631,1.0188705-7.3322772.9089058,1.6817021-3.284111,3.8308905-6.1648882,5.7761487-9.4170009.3217773,1.5475827.589704,2.9025516.8879899,4.2507307.2697997,1.2194057.5794801,2.4299924.854821,3.6482664.0485437.2145442.2361625.5047526-.1866824.609098ZM124.5812832,100.2239283c.9949888,2.9817277,1.6451773,6.0477044,2.2225502,9.1315533-1.1613016-2.9410275-1.7257191-6.0280372-2.2225502-9.1315533ZM128.7666516,108.6946791c-.2127492.1168716-.4231571.2598881-.5207907-.1060234-.695064-2.6043827-1.3861477-5.209819-2.1272579-7.9981916,2.901537,1.1884611,5.2903219,2.9320524,8.0017426,4.339038-1.748196,1.4664164-3.4695446,2.7299172-5.353694,3.765177ZM135.4928355,103.618199c-.1390752.2801796-.4326785.3362155-.7295596.1846532-.9524546-.4864121-1.9031923-.9760631-2.8564273-1.4608753-1.3470474-.6851914-2.6958118-1.3671829-4.0437958-2.0505012.0150626-.0366419.0301252-.0732447.0451877-.1098476,1.0123928.3895199,2.0319656.7616749,3.0355394,1.1727741,1.3898158.5693344,2.7693297,1.16376,4.1485314,1.7584198.2122029.0914681.575812.1521867.4005242.5053769ZM140.2308368,96.1482123c-.2495081,1.0064614-.7784935,1.8810276-1.3293313,2.7416629-.6613488,1.0331526-1.4011322,2.0089815-2.1814208,2.9553487-.2083007.2526299-.3895199.4302981-.7669429.2989493-3.335152-1.1607943-6.6010006-2.5263773-10.0374544-3.440473,1.6979353-.442356,3.4003972-.8678154,5.0926353-1.3308532,2.7527062-.7532071,5.4404014-1.7421085,8.2571821-2.2632894.9757899-.1805168,1.2085185.0577139.965332,1.0386547ZM139.302654,94.1025499c-3.0929801.7453636-6.1655906,1.5626843-9.2005055,2.5192362-.1170667.036915-.2363186.1043454-.36158.0135797.0402709-.1764195.1911309-.2170416.3288013-.2717118,2.9553096-1.174374,5.8975859-2.388941,9.0110136-3.1002382.4070799-.092951,1.0311234-.4070019,1.1810468.1746245.1734928.6729774-.5643395.5694904-.9587762.6645096ZM139.9643149,92.0199335c-4.1888024,1.2281077-8.2232328,2.8816357-12.3745738,4.3832892,1.3258193-1.1950168,2.6477364-2.3943261,3.9783945-3.5838017,1.4480369-1.2943284,2.9136339-2.5692627,4.3498861-3.8764684.3324694-.3025394.5895479-.3375813,1.00053-.1468797,1.3042791.6051177,2.4418551,1.3837673,3.1653273,2.6691206.1295538.2300361.2901693.4345906-.1195641.55474Z"/>
  </g>
</svg>