<?xml version="1.0" encoding="UTF-8"?>
<svg id="Layer_2" xmlns="http://www.w3.org/2000/svg" viewBox="0 0 130.2423158 141.3414964">
  <g id="Layer_1-2" data-name="Layer_1">
    <path d="M47.0664612,20.6802074c.1589685-.0223424.2810292.0643677.3842643.1589772.2034433.1864459.4275493.1870102.6679791.1125035,1.3271403-.4113043,2.6068751-.8915778,3.697356-1.8152738,1.7622741-1.4927485,3.2789921-3.2001071,4.6426902-5.0527435,1.2614866-1.7137796,2.386382-3.5155531,3.4450639-5.3602485.8797417-1.5329018,1.7728242-3.0579981,2.869035-4.451739,1.4377936-1.8280327,3.1692223-3.2468126,5.4714399-3.8286371,2.1401523-.540873,4.3064874-.6048799,6.4544517-.0902443,2.1785298.5219576,3.1118617,2.194543,2.5336107,4.3557998-.1622053.6062817-.4261147,1.1646748-.7421621,1.700487-.5243458.8889577-1.1991659,1.6627219-1.8660865,2.4451029-3.5496287,4.164221-7.9260038,7.2134143-12.8360588,9.5453663-2.6173115,1.2430502-5.3195748,2.2471534-8.1767387,2.7760744-1.3638993.2524845-2.7462044.3532789-4.1370038.2536611-.203732-.0145916-.4153284-.0692797-.6758086.0453102,2.181889,1.1273755,3.432668,3.0810425,4.6879348,5.0113305,2.0573526,3.1636935,3.9051733,6.4542505,5.7799553,9.7277706.8424228,1.4709354,1.7188841,2.9231413,2.5305052,4.4107941,1.4899229,2.7309523,3.4254684,5.1116131,5.6158955,7.2995732,1.6560997,1.6542495,3.3126281,3.3080879,4.9714484,4.9596037,1.0385528,1.0339776,1.9162387,2.1946086,2.6800346,3.4398589,1.1745403,1.9148653,2.4364993,3.7672787,3.7791935,5.5693037,2.4168425,3.2436327,4.4202812,6.7473344,6.3720718,10.2816628,1.4890393,2.6963671,2.9952685,5.3828752,4.6978638,7.9534112,1.1754676,1.774705,2.4620347,3.4621313,3.8652824,5.0647283,2.1159641,2.4165888,4.6684793,4.2054481,7.61552,5.4637416,2.2217798.9486409,4.5273742,1.6429602,6.8300554,2.3519149.3221798.0992022.5169625.0467668.720887-.2383128.9606957-1.3430179,2.0945578-2.5444407,3.1929818-3.7707342,1.5686198-1.7512341,2.672835-1.8993726,4.7317272-.7417684.9795738.5507735,1.8923217,1.2057181,2.8124529,1.8479607,1.3705303.9566103,2.7385937,1.9167374,4.1045925,2.8798387.0876549.0618046.2366157.0825285.2231263.2774425-.7787812-.0016446-1.4854964-.269132-2.1826238-.5655051-.9957139-.4232891-1.879226-1.0365757-2.7556872-1.6588203-1.0705004-.760008-2.1170664-1.5553404-3.2855006-2.1671661-1.1716185-.6134966-1.3251632-.6245803-2.2053161.360251-1.0548853,1.1803752-2.2352255,2.2204501-3.4189599,3.2612511-.4248462.3735567-.8437088.7541293-1.2425297,1.2209571.2493877.155653.4650957.1033488.6671481.1170656.5471344.037179,1.0954585.0495749,1.6293834.2067763.5244246.1543933.9787165.4213383,1.2581186.8873787.214597.3579503.3889182.4251874.7855434.2317168,1.577464-.7694733,3.2446125-1.2699109,4.9951905-1.4395607,1.3786309-.1336168,2.7635779-.2341662,4.1366101.0663185.2538317.055541.5084507.1388569.7413398.2529219.690199.3380486.8987336.9067993.5929738,1.6068923-.2089895.4784976-.5816364.8068797-1.0391214,1.047397-.864249.4543882-1.805148.5970592-2.7596063.6852826-1.3099505.1210809-2.6220092.0366191-3.9594808.0084418.0839457.2526245.2974754.2607426.4590596.3301142,2.5753561,1.1057636,4.9943332,2.4922765,7.3178696,4.0530668.9115932.6123331,1.8373231,1.2035924,2.7528704,1.8100819.4780952.3167035.9522014.6410528,1.3111139,1.1004448.0879523.1125779.1885717.2371318.1078277.3848416-.0745504.1363637-.2268004.1636399-.3722445.1766569-.2750893.0246431-.5200856-.0788544-.7474634-.2099605-.6201101-.3575217-1.2462913-.7073188-1.8450563-1.0984765-1.239188-.8095479-2.4754891-1.6248694-3.688853-2.472366-2.0234629-1.4133517-4.2271781-2.5032552-6.3982021-3.6565729-1.0509049-.5582531-2.0608518-.4270769-3.1083625-.0560221-.2704616.0957993-.2815454.2734972-.294991.4948389-.0439237.7229952-.2115702,1.4187055-.5440113,2.0625751-.1624852.3147002-.1137151.5576057.0592676.8551249.8206403,1.4114884,1.4238231,2.9120926,1.7808198,4.5100181.4642646,2.0781028.4700733,4.1734304.1988943,6.2692829-.2970293,2.2956654-.6353579,4.5862831-.9814984,6.875195-.180716,1.1950106-.2041869,2.3753683.1080202,3.5507572.0818987.3083142.1767794.625945-.2486092.7670589-.3484675.1155872-.7266694-.0264014-.9025827-.395278-.300686-.630564-.4366647-1.3086383-.4885578-2.0055207-.104416-1.4021105.1823869-2.7580492.4855223-4.1099463.4499879-2.0068242.7875554-4.0289923.8899769-6.0856976.1458203-2.9279527-.3045526-5.7591263-1.4067732-8.4792005-.0702376-.1733414-.0830622-.5213628-.3470591-.444398-.2685546.078277-.2001278.401629-.1519001.6320249.0436262.2084209.1138551.4165618.2058752.6087727,1.09433,2.2858851,1.0922217,4.650126.561796,7.0701878-.3785956,1.7273084-1.0930353,3.2994711-2.0263847,4.7871195-.6851164,1.0919855-1.3786309,2.1798857-2.023909,3.2953421-.5636243.9742988-1.0051267,2.0009805-1.1214312,3.1466437-.078417.7724826.0456645,1.5239438.1356201,2.2814674.0168574.1419537.0519631.2817203.0692054.4236477.0317377.26118-.029227.4946027-.3089528.5688994-.2751331.0730807-.568322.1308874-.7918419-.1411663-.1551194-.1887729-.2473932-.4097647-.3041152-.6421463-.3109211-1.2738737-.3782981-2.5468289.0251067-3.8174834.078207-.2463259.1977134-.4850761.1844864-.8213664-7.1318524.0756614-14.1631203-.6007508-20.9953977-2.7519606-.4996328-.1573064-.9856624-.3590001-1.4739228-.5504673-.1294878-.0507821-.2641456-.1134789-.360566-.2952272.2580657-.1781966.5321928-.0851879.7917107-.0422266,1.2260922.2030146,2.4130109.5734046,3.619079.8621408,4.0060026.959016,8.0595068,1.5430407,12.1821027,1.6515333,2.0060106.0527941,4.0049529.2252783,5.9669349.6839792.3368414.0787494.5600639.0396809.7634284-.3006597.7713979-1.2909586,1.5854334-2.5563468,2.3757095-3.8361254,1.3018061-2.1081697,2.0442481-4.408314,2.3120329-6.8637089.1771643-1.6245195-.0968753-3.1823967-.7651343-4.6898244-.2904158.050161-.4089336.3103-.5787409.4937454-1.0225964,1.1047401-2.0373984,2.2169597-3.2357945,3.1396716-.7234501.5570196-1.4900191,1.0329803-2.3939053,1.2481546-1.5443616.3676431-2.8511366-.550721-3.0095714-2.1220177-.0143555-.1424085-.0356568-.288535-.0190269-.4288178.0483676-.4081288-.1687575-.6070756-.5174087-.7408761-.4229741-.1623277-.8401221-.3411804-1.253351-.5271802-.4406538-.198317-.8333336-.4620427-1.1134093-.8717636-.4518512-.661007-.4285466-1.2965573.0985199-1.8979992.4655768-.5312655,1.06163-.882786,1.6972678-1.1702625.8732857-.3949631,1.7977997-.6354628,2.7181059-.8873525.7821754-.2140896,1.5696608-.411733,2.3199935-.7262145,1.4383885-.6028503,2.5810161-1.5185725,3.2115888-2.9951897.3006685-.7040821.7404825-1.2831116,1.5539757-1.454721.1412451-.0297957.2973967-.1031913.3062934-.2593779.0134719-.2365982-.2224352-.2269666-.362368-.2554938-.8415743-.1716443-1.6934799-.2954984-2.5307764-.4847437-3.1656356-.7155332-6.1691622-1.8501477-8.9191982-3.5921527-2.1029384-1.3321004-3.7905571-3.1241176-5.367365-5.022388-2.2986309-2.7672433-4.1506507-5.8322595-5.9069499-8.9583542-1.0874803-1.935633-2.1619961-3.8785444-3.2465983-5.8158046-1.5184676-2.7122097-3.1856423-5.3274917-5.07883-7.7961836-.5669223-.739249-1.0969806-1.5060454-1.5718741-2.3082887-2.2200477-3.7504388-4.9580028-7.0921015-8.1993435-9.9862694-2.7643915-2.4683113-4.9172634-5.3912514-6.8316038-8.5159989-1.9210589-3.1357218-3.6166033-6.4018587-5.4579767-9.584098-1.3276914-2.2944844-2.6778039-4.5751294-4.2345264-6.7254163-.6590387-.9103335-1.3517659-1.7931589-2.1641393-2.5743851-.1836116-.1765782-.3560083-.3752057-.6068744-.4740974-.7873979,1.8128725-1.0750669,3.6341255-.9045248,5.5930719.3328698,3.823852.9754798,7.5744132,2.2103637,11.2092298.7066277,2.0799399,1.6069885,4.085933,2.5283094,6.0795959,2.6657054,5.7683336,4.9585714,11.6854399,7.0678171,17.676108.055471.1575601.1233642.3118484.1651446.4729252.2129611.820964.6745314,1.3740995,1.4431124,1.8172902,1.7278857.99637,3.1417098,2.4048928,4.5429981,3.8109924,2.9902996,3.0005785,5.4027069,6.4240786,7.446089,10.1237266,2.1061226,3.8132581,3.7851421,7.8144231,5.32925,11.8793085.8735569,2.2996369,1.8316894,4.5636696,3.1098584,6.6770793.5572645.9214347,1.1756513,1.7978172,1.8695332,2.6219042,1.66574,1.978332,3.8343583,2.9394913,6.3715294,3.1396891,1.7973535.1418312,3.5780247-.0258328,5.3454776-.3559208.4230004-.0789856.8438312-.1451642,1.3130735-.0640265-.1113707.3130556-.3889182.348275-.6154474.4310135-1.1498622.4200173-2.3465349.6476663-3.556697.7852372-2.7415592.3116734-5.3330554-.0974876-7.6602835-1.686359-1.2374559-.8448548-2.258189-1.9102201-3.1418236-3.1110481-1.5402763-2.0932106-2.6273542-4.4286706-3.6220096-6.8125944-1.0659077-2.5547021-1.9908591-5.1665636-3.1351663-7.6896855-2.1789409-4.804423-4.7779779-9.3530548-8.1556998-13.4279216-1.5598368-1.8817717-3.2741282-3.6070155-5.2383584-5.072479-.1529324-.1140913-.3100113-.2229338-.469251-.3280234-.0349395-.0230685-.0873662-.0196392-.2078873-.0434775.3967039,1.3072998.6972761,2.5842966,1.7549695,3.5518682,1.557851,1.4251178,2.812278,3.1207846,4.0329202,4.8332214,3.0750326,4.3139494,5.6627322,8.8986492,7.5952772,13.840162,1.1630367,2.9738621,1.8186199,6.0713771,2.2610496,9.2254304.3414079,2.4337699.7170641,4.8646967,1.4196678,7.22906.2247359.7562638.4992041,1.4928185.8736269,2.1908032.1762808.3286095.4219856.5449124.765458.7074763,1.7947204.8493687,3.5042353,1.8484593,5.1110664,3.0172959.7542343.5486215,1.4905177,1.1228747,2.0688912,1.8654479.6146076.7891388.5233486,1.3548276-.295997,1.9201228-.4759082.3283209-1.0086259.5408533-1.5530746.7221817-1.0440465.3477152-2.1161478.5774637-3.2026571.7444803-.1593447.0245031-.3409792-.0086868-.4581148.1631238.0583578.2522571.2878352.3642489.4577736.5162627,1.9704938,1.7626677,3.6927021,3.7344387,5.0726015,5.9955933.1946166.318908.4720591.6095163.3780794,1.0412472-.0501697.2304746.1455316.3403843.2889724.4543357.3737317.2968893.753342.5871477,1.140983.8656137,1.0122126.727133,1.9546599,1.5322807,2.7839345,2.464799.6064282.6819409,1.1287271,1.4207438,1.4791803,2.2697713.8019109,1.9427189.3055936,3.6977759-1.398104,4.923457-.9384145.6751175-1.9767311,1.151708-3.0721458,1.5094309-2.2286383.7277979-4.5322293.9237529-6.8559232.9196938-1.5517712-.0027119-3.1052132-.0329624-4.6520155-.1934356-.3587989-.037214-.7148771-.0840857-1.0277752-.2733747-.2782124-.1683288-.2646967-.3814299.0226485-.5349047.2640144-.1410351.5490414-.1293653.8385999-.1139863,2.1001565.1116244,4.2019139.1625727,6.3027615.04339,1.6960605-.0961929,3.3725256-.3345757,4.9955579-.8626219,1.0053454-.3271049,1.9542225-.7702606,2.7867339-1.4334458.581304-.4630487.8396409-.8633917,1.0075849-1.5724514-3.2628433,2.6545605-7.0728209,3.0123883-11.0009752,2.8806085-.8441637-.028326-1.6828336-.1523025-2.5614206-.557597.3067658-.2405698.5497063-.1689062.7663853-.1615929,1.2653882.0427077,2.5304265.0880048,3.7953597-.0056687,1.9350819-.1432921,3.8411117-.4327456,5.6643681-1.1348944,1.0791872-.4155996,2.078584-.9630489,2.9147695-1.7762096.5502574-.5350796.5482978-.537809.2609351-1.2267133-.7488018-1.7951578-2.0060806-3.1738762-3.5404083-4.3268789-1.321559-.9930982-2.7618021-1.7921572-4.2067603-2.5841041-1.3606101-.7457313-2.7258653-1.4831782-4.0088895-2.3613628-1.1502034-.787258-2.18817-1.6946696-3.0676144-2.7811089-.2397037-.2961283-.5029833-.5757928-.777329-.840297-.1619778-.1561779-.324393-.361642-.7145272-.2608651,1.0577546,1.5413173,1.9047701,3.1332418,2.0817332,5.0087499.1735776,1.8395451-.2340088,3.5975414-.7058754,5.5088375,2.4545989-1.8293624,5.0554204-2.8274995,8.0101332-2.9396575-.0241182.3221623-.2179387.3407693-.3580815.3896705-.7203796.2513735-1.4405842.5052665-2.1700355.7282703-2.1637631.6614706-4.0323428,1.8267905-5.721335,3.3070906-.1301264.1140563-.2157605.2451362-.2746607.4075864-.7735236,2.1331977-1.5263933,4.2691772-1.7484173,6.5521405-.1438957,1.4796177-.0190794,2.9055228.6397581,4.261409.1768494.3639514.3149189.7472534.4609492,1.1254641.0928687.2405523.2412434.4992829-.0959567.6827982-.3477764.1892715-.7575498.1431696-.9702485-.1456541-.1541046-.2092345-.2720013-.448737-.3830395-.6855276-1.1639115-2.4820151-1.2984993-5.0513176-.663955-7.6922662.3518355-1.4642913.8301231-2.8885867,1.2985693-4.3169412.5505723-1.6787745,1.0678585-3.3625529,1.2644609-5.1331376.1395655-1.2570251.0397946-2.4794257-.3152514-3.6834642-.2698755-.9152586-.5748655-1.8201071-.8534015-2.7328987-.0726433-.2380591-.1107671-.4760744-.4501979-.4248987-.2951922.0445098-.614249-.0229372-.7337465.4034049-.2163203.7718003-.6649698,1.4215311-1.188992,2.0205323-.6814685.7789474-1.4792328,1.4255639-2.3295901,2.0047509-1.3232387.9012793-2.6963146,1.7210623-4.1497759,2.3976757-.8048764.374694-1.639741.6471851-2.5363401.7074588-.660727.0444048-1.2852374-.0737368-1.8741084-.3653774-1.0359984-.5130784-1.3034857-1.4477838-.7014927-2.4491664.146074-.242993.3264838-.4653319.5364181-.7609878-.5090981-.1753447-1.0045231-.3077456-1.4675105-.5132446-1.0311695-.4577124-2.0657332-.839291-3.2205117-.5533104-6.4994076-.0167699-11.9503597-2.4172449-16.3024416-7.2431006-1.9133038-2.1216066-3.1591927-4.647764-4.1608464-7.3020008-1.0552439-2.7962342-1.7736202-5.6930352-2.5670543-8.5675464-1.1429207-4.1406605-2.2857189-8.2811634-3.8735012-12.2818823-.8376289-2.1105841-1.7852157-4.1682779-2.9032002-6.1458138-.1390449-.2459498-.2909888-.4846125-.4707994-.7110542.0309241.3848591.207533.7180876.3555184,1.0581658,2.8640398,6.58156,5.0780515,13.3819072,6.7907376,20.3456144,1.0490985,4.265608,1.8396195,8.5851474,2.5309776,12.9230226.518196,3.2513747.9235036,6.5229309,1.7051803,9.7283436.2432335.997446.5464608,1.9766436.8528548,2.9563137,1.013984,3.2420843,3.1849118,5.431899,6.2056588,6.8395907,2.8917185,1.3475756,5.9421868,2.2076781,9.0532524,2.8711957,3.3178157.707625,6.6698797,1.195518,10.0383637,1.5823192.4601618.0528379.9295266.0870425,1.3714663.3754813-.6682241.0593814-1.3353371.1410351-2.0048559.17419-2.7123322.1343167-5.3930229-.1383407-8.0377856-.7267131-3.1220881-.694538-6.195135-1.5791174-9.2386092-2.5573528-2.0402721-.6557669-3.9102034-1.6527405-5.530585-3.0792404-2.2318444-1.9648338-3.4968127-4.4970099-4.2811969-7.3096728-.6300784-2.2593612-.9965362-4.5702481-1.2849924-6.8914226-1.2884085-10.3675681-3.6122424-20.4836227-7.2929685-30.2739284-.2854645-.7592994-.5670973-1.5200597-.8492156-2.2806188-.0739511-.1993667-.1182772-.4131501-.2827526-.5647966-.2271766.0105151-.1742031.1959375-.1927226.3173509-.2358196,1.5459188-.1511347,3.0980661-.0574787,4.6472304.1412188,2.3359936.3128719,4.6701414.4657474,7.0054614.1142881,1.7459328-.0353113,3.4853922-.1617985,5.2236793-.1594278,2.1908732-.3281065,4.3814402-.52788,6.5689279-.2410159,2.6391815-.5874364,5.2648911-1.0763835,7.87174-.1537022.8194418-.2192028,1.6554086-.3258802,2.4837209-.0152477.1184041-.0278099.2378404-.0539182.3540487-.2151743.9578438-.4238927,1.0979866-1.3841159.8679582-.8127365-.1946865-1.6075484-.4522274-2.3729714-.7921044-.7231352-.3211038-.7270237-.3249354-.483449-1.0475982.5945354-1.7639625,1.1684954-3.5341447,1.6613266-5.3298361.5071517-1.8478644.7491911-3.7436591.9951321-5.636182.4775878-3.6749961.747892-7.3668496.6834499-11.0743183-.0894526-5.1458659-.6301484-10.2432504-1.793102-15.2640725-.3991752-1.7233368-.956033-3.3963814-1.6537728-5.0251961-.4290627-1.0016188-1.0170896-1.8914644-1.7295041-2.702377-1.0718301-1.2200124-2.174545-2.4130459-3.2388432-3.639488-1.3961488-1.6088693-2.6263088-3.3460804-3.7443108-5.1542815-1.4955391-2.4188108-2.0160358-5.0774653-1.7402904-7.8985788.3516736-3.5978738,1.786506-6.8088634,3.5569551-9.8953209,1.2855042-2.2410429,2.7726102-4.3486789,4.3396423-6.3990681.8287147-1.0843223,1.5580216-2.2300992,2.2549041-3.4003748.5864391-.9848095,1.1840406-1.9632111,1.9280223-2.8424454.349631-.4131895.7413966-.7856134,1.2720935-1.1997039-1.225423-.2975498-2.3053363-.5529255-3.3817241-.822368-3.7077574-.9281006-7.3596194-2.0278194-10.8537027-3.5987574-1.7454648-.7847604-3.4283771-1.6828904-4.9526927-2.8537872-.8183287-.6285957-1.5718784-1.3242884-2.1786457-2.1639119-.8849949-1.2246269-1.3504537-2.5607164-1.1203356-4.1001879.1104653-.7390172.4201748-1.3623859.9067052-1.9087854.4161419-.4673505.9011459-.8548165,1.4499708-1.1561411,2.5129195-1.3796916,5.2135688-1.8647656,8.0292935-1.4712022,2.1439315.2996646,4.0290973,1.2943375,5.7404887,2.6082683,1.9738268,1.5154102,3.5321764,3.4085105,4.9556583,5.4291827,1.9545331,2.7745042,3.4555965,5.7667852,4.4432841,9.0177706.2821927.928853.311739.9194445,1.2087712.5246214,1.1053349-.486502,2.0600338-1.1986673,2.9655953-1.9832002,1.1389229-.9867034,2.1736484-2.0805916,3.2319585-3.1502523,1.1260108-1.1380874,2.2620293-2.265686,3.5628775-3.209638,1.4337477-1.0403811,2.9880645-1.7837548,4.7806985-1.9462706.5016361-.0454808.9984913-.046723,1.5004073.0121422.9504168.1114713,1.882279.3190042,2.8121205.5309375.3349606.0763437.7125851.1071498.9570215.414891-.1408077-.0251898-.2865317-.034957-.4216794-.0779359-1.4650742-.4659224-2.9161123-.3616201-4.3630125.0878998-1.9643833.6102949-3.5722291,1.7797351-5.0350901,3.1835559-1.0868242,1.0429486-2.0773242,2.1760366-3.0826959,3.2940605-1.5352375,1.7072449-3.3495577,2.9684996-5.5652708,3.623991-.1454616.0430357-.3484675.021297-.3817798.2472576.0831846.127034.2149338.1854312.3414953.2523533.989201.5230949,2.0620546.6065289,3.1385168.5019116,2.7204591-.2643774,5.3707024-.8448285,7.8827449-1.9560552,3.1522949-1.394456,5.6563199-3.4395046,6.8171477-6.8295393.2038457-.5953096.537879-1.1309316,1.0640444-1.4940257.2935301-.2025597.1419362-.3833239.0687767-.5896102ZM74.7250289,109.8962857c-.5081971.1297939-.8715624.0962541-1.242101.0247481-1.2026913-.2321192-2.3465524-.6345618-3.4473821-1.1664134-2.3408137-1.1309141-4.4152774-2.6536769-6.3723518-4.3457221-4.323581-3.7380954-7.4845801-8.3154381-9.8042325-13.5142993-2.0880493-4.6797992-3.6584799-9.5300179-4.8935651-14.4944505-.8759626-3.520944-1.6866302-7.0536278-2.0509141-10.6760923-.1696061-1.686604-.5283349-3.3430973-1.0445801-4.9654473-.9838078-3.0917238-2.5764803-5.8532722-4.5867118-8.370113-2.6630766-3.3342094-4.9529989-6.9019464-6.9349438-10.6747976-.3440366-.6549184-.7159006-1.2953632-1.0808756-1.9391104-1.1547873-2.0368342-2.3527285-4.047595-3.7892755-5.9020073-1.0153225-1.310659-2.1723012-2.4780654-3.6200456-3.3212974-.8724897-.5081752-1.4419576-.5806217-2.3984936.4181234-.4474379.4671821-.7918376,1.0168184-1.1078194,1.5805083-.4915802.876938-.8861234,1.7970124-1.208605,2.7489075-1.1513756,3.3986165-1.6590697,6.9176009-1.8065302,10.4799492-.1412057,3.4112792-.2419082,6.8268755-.1863147,10.2437359.0392872,2.4145681.2183411,4.8155155.5757578,7.2055104.3916519,2.6189561,1.2609223,5.0385193,2.8525581,7.1764584.5846283.7852897,1.1490968,1.5859408,1.7466852,2.3611441,2.9700874,3.8529128,5.2228176,8.0907459,6.869382,12.6633647,1.6184746,4.4946217,2.922787,9.0823745,4.1627316,13.691901.7631704,2.8371135,1.6690861,5.6279064,2.9818009,8.2704996,2.0533066,4.1334784,5.174603,7.1732566,9.3600882,9.1042445,2.1696505,1.0009714,4.4846227,1.4558844,6.8532551,1.66043.580193.0500997,1.1620394.0810151,1.7528525.1214134-.0072783-.2981665-.1990605-.3958466-.3040277-.5459009-.5112501-.7307984-.4329906-1.244603.2866279-1.7745738.3873785-.2852807.8252155-.4775878,1.2641372-.6653722,1.9867388-.8500161,4.0762665-1.1572543,6.2204079-1.1660285,1.3005376-.0053275,2.6011102-.0009885,3.9016653-.0009885-.5310905.0580167-1.0343362.2336414-1.5524273.297038-2.4232723.2965569-4.7933656.8275512-7.1137353,1.5835964-.5453848.1777067-1.0823977.3791817-1.570903.6846965-.3908777.2444364-.412739.3856814-.1217108.7349537.2955334.3546961.6862362.5905769,1.083255.8117524,1.0069463.5609474,2.0821706.9422724,3.195615,1.2330556.4595932.1200312.9108496.286488,1.3478293.4739662.3309802.1420236.3393871.2856482.0662485.5118187-.257086.2128824-.5365668.3984885-.8010711.6027191-.265624.2050879-.5163939.4277505-.6802176.7275092-.2833912.5185547-.1012842.9496819.4654544,1.0989577.2585644.0681031.5218089.0474141.7831027.0087742.4542394-.0671758.8869851-.219767,1.2779241-.4459901,1.6107851-.9320547,3.2622047-1.7993306,4.7704546-2.8991718.814473-.5939361,1.55136-1.2681613,2.1170314-2.1161916.5401272-.8097228.6973724-1.6509122.3246904-2.5790565-.1862097-.4637485-.3521766-.9423336-.461474-1.4289931-.3056023-1.36082.8717548-2.6003317,2.2516805-2.3882279.2577246.0396022.5116438.1167507.7607778.196891.5829399.1875044.578076.1904613.9154685-.3574517.8021646-1.3027334,1.6235222-2.5945492,2.7157964-3.6795713.26691-.2651429.1600707-.4370147.0059311-.6715308-.7392403-1.1246942-1.2855348-2.3403676-1.684452-3.6241003-.6268198-2.0171818-.8620533-4.1073394-1.1395483-6.1880228-.3958029-2.967721-1.0502226-5.8726665-2.0963424-8.6798007-1.8623161-4.9972813-4.4239904-9.6226417-7.5231588-13.9529761-1.7568941-2.4548526-3.6954927-4.748191-6.076066-6.6376083-2.985532-2.3695509-6.2682507-4.2737524-9.5730668-6.1439942-.3311552-.1873995-.6998393-.3082705-1.0318956-.494314-.3038877-.1702622-.8025057-.3685004-.6593798-.7302998.1667017-.4214257.6340194-.1107671.9453342-.0166649.756465.2286637,1.4490523.6115283,2.1373092.994909,2.7573668,1.5359373,5.3557477,3.3189004,7.9448819,5.1163502.2313581.1606131.4336379.3718421.7501752.4621214.0351144-.242993-.0897544-.4267795-.1617591-.6200839-.6663782-1.788763-1.3647566-3.5662236-1.9974988-5.3667789-2.1132348-6.0135704-4.3162501-11.9887633-7.0826799-17.7428464-1.0664414-2.2181757-1.9056362-4.5306896-2.5127993-6.9207371-.6240467-2.4565103-.9993793-4.957093-1.3211129-7.4679677-.0856603-.6685302-.0826773-1.3568397-.3345757-2.1125787-.3741866.4952938-.739144.866436-1.157368,1.1809788-.1178442.0886259-.1829599.2109622-.2221377.3560301-.4614959,1.7088064-1.1988072,3.3201907-1.7666306,4.9920325-1.3568309,3.9949145-2.4409039,8.0395964-2.4123067,12.3056812.0022307.3321087-.0640134.6649086-.1019797.9969823-.0310816.2718176-.0846674.5375378-.4296226.5624259-.3486949.0251592-.4320852-.2580176-.5131703-.5015617-.1374616-.4128833-.1400991-.8478509-.124812-1.2771892.0510314-1.4331528.1934924-2.8584236.4118817-4.2755326.5847507-3.7944237,1.7222958-7.4315629,3.1323976-10.9911862.08416-.2124537.2353035-.4107925.1886286-.7458406-4.5228514,2.0750017-9.1437198,3.4922856-14.1818673,2.6021644.0210477.2509011.1841277.3351049.2969068.4499179,1.1758787,1.1971189,2.2082204,2.5075548,3.1237283,3.9128584,1.2403558,1.9039347,2.2735461,3.9236665,3.3183012,5.9361682,1.2125066,2.3356393,2.5617311,4.5816292,4.1557026,6.6814533,1.1692959,1.5403725,2.3018021,3.1092635,3.4265882,4.682686,1.4517641,2.0308199,2.6105274,4.2199348,3.446363,6.5754539.4231228,1.1924387.8068535,2.398603,1.0972081,3.6297078.1272308.5394099.375455.9455354.8154353,1.2861647,1.1764561.9107971,2.0304613,2.0776129,2.5990807,3.4516949.2371405.5730459.4867907,1.1422952.6924735,1.7267397,1.0894048,3.0954942,1.7290492,6.3003645,2.2871098,9.5239643.4643259,2.6821516.8065298,5.3820004,1.1069183,8.086022.1176342,1.0588569.3396932,2.1278614.0353419,3.2006538-.0735094.2591068.0517706.5165076.1464939.7626236.2583194.6710672.6104961,1.2945015.9749461,1.9112261.0611222.1034275.0807964.2749756.2877652.2287775-.0398733-.3618344-.0874187-.7156557-.1165845-1.0709991-.1543146-1.8798558-.2871703-3.7616275-.4585784-5.6398912-.4361049-4.7786777-.9098698-9.5540224-1.3234661-14.3345984-.1480685-1.7113783-.2109403-3.436001.2030409-5.132499.0359892-.1474736-.0073483-.3526665.2446551-.3914551.011005.0975314.0271188.1898139.0310641.2826301.1015729,2.3880791.3924174,4.7568427.6984921,7.1254226.3456681,2.675022.6949054,5.3501577.9164921,8.0396752.2137047,2.5936219.4547818,5.1852318.6410528,7.7807871.1025002,1.4282408.3558683,2.8608731.233064,4.2860958-.0719347.8349083.1366874,1.4854089.5824325,2.1255957.1637012.235111.3168785.4775528.4813407.7121127,1.5033073,2.1440452,3.3146139,4.0099042,5.2356115,5.7746278,2.8372797,2.6064815,5.9380052,4.7993317,9.6044896,6.1058092.3283646.1170044.67503.2302821,1.0812517.5831149ZM23.4073614,29.9492597c.067307-.2875334-.0780015-.4960592-.1583561-.7127688-.6488079-1.7498694-1.4623011-3.4239288-2.3804728-5.04613-1.5710474-2.7756851-3.3801057-5.3774777-5.6705354-7.6180089-1.289174-1.2610885-2.7082075-2.3357968-4.3790388-3.0570358-2.6045198-1.1242831-4.9607081-.5666227-7.1066691,1.1012168-1.2627835.9814284-1.6384769,2.3664935-1.3768791,3.9139388.2206243,1.3050909.990406,2.3112455,1.9010063,3.2147424,1.1458119,1.1368758,2.4875219,2.0043004,3.9022186,2.7657562,4.2642958,2.2952148,8.7144864,4.1084066,13.4505264,5.1761602.5978246.1347759,1.1973419.289751,1.8182.2621292ZM19.5712885,36.1918393c-.1448711-.0087174-.1973066.0809802-.2468289.1566634-1.5952399,2.4379252-3.3605146,4.7604031-4.9106543,7.228802-1.9356637,3.0822935-3.3917887,6.3524238-3.9340985,9.9858276-.3122202,2.0918197-.2659258,4.1388059.6192484,6.108696.5996617,1.3345061,1.3539441,2.5788378,2.187409,3.7747145,2.9696237,4.2608491,6.5931379,7.9938094,9.7777086,12.0816145.0407263.0522692.0928512.1647159.2185948.0842432-.0311866-.2942912-.1843508-.5403284-.3057248-.7930579-.7232883-1.5060979-1.4679479-3.0020044-2.1822345-4.5123189-.6318587-1.3360107-1.3058083-2.6537994-1.672161-4.1024492-.8017053-3.1701058-1.0420082-6.4030222-1.1102032-9.6548255-.0761731-3.6321397.1360225-7.2580203.2423937-10.8866783.0766849-2.6160999.4194093-5.1812034.9885842-7.7271575.1286742-.5755697.3055848-1.147111.3279666-1.7440739ZM49.3569128,21.2323719c.1799812.0259815.2499389.0449209.3197566.0444617.1908462-.0012466.3817361-.0087567.5724511-.0171548,1.7069693-.0751452,3.3554058-.4277024,4.9467966-1.0480181,5.8322333-2.2733536,11.2696347-5.2706822,16.3375298-8.9389074,1.1221486-.8122247,2.1945211-1.6928544,3.1118092-2.7394991,1.1077931-1.2640148,1.759431-2.7134476,1.7133553-4.4280342-.0344496-1.2824227-.6082041-2.2160346-1.7572877-2.8162977-1.4508194-.7578844-2.9536105-.8730298-4.5121352-.4421453-1.9155651.5295925-3.3864174,1.709539-4.6364004,3.2040393-1.0926241,1.3063725-1.9500672,2.7667097-2.7742592,4.2490503-.7419171,1.334353-1.4595586,2.683606-2.2448395,3.9921174-1.1820023,1.9695621-2.5228769,3.823548-4.1931047,5.4206206-1.657027,1.5844362-3.5756015,2.6878072-5.8174317,3.2097911-.3200803.0745241-.6518566.1083701-1.0662402.3099763ZM107.9835445,96.1192755c-.5489452.9099398-1.1653637,1.6225687-1.9812626,2.1523645-.7246136.4705107-1.499222.8335086-2.3124178,1.1100764-1.0588569.3601198-2.1310981.6808562-3.1902437,1.0401624-.6766046.2295298-1.3495264.4839826-1.9197029.9319847-.8157677.6409478-.7432643,1.3019985.1855536,1.736625.3878947.1815033.7888326.3349168,1.1797366.5102441.6317712.2833912,1.02886.7565263,1.1369764,1.4512305.0329362.2116227.0517881.4253973.0808927.6376673.1239065.9038075.7852459,1.3052528,1.6446224.9893716.5659513-.2080097,1.0681647-.5333388,1.51349-.9324921,1.0826339-.9703622,2.178486-1.9278123,3.1830616-2.9812017.841408-.8822874,1.6173811-1.816083,2.1612612-2.9191347.253823-.514758.4526123-1.0485517.5307056-1.6224987.0273375-.2009414.0308979-.3799165-.1814858-.4885141-.7494754-.3832145-1.3732684-.9327546-2.0311873-1.6158852ZM21.5207171,74.9785211c-.0801141.1225244-.0261521.2101967.0024319.2986739,1.708662,5.2885719,2.4058682,10.7426382,2.6445221,16.2691205.1340149,3.1033324.0967047,6.205755-.1309749,9.3050546-.2345599,3.1928856-.6050023,6.3652221-1.3972204,9.4756404-.3296331,1.2942128-.661768,2.5878045-.9868784,3.8831546-.1248951.4976207-.1178442.5005601.341281.6827632.1105265.0438537.2236336.0823361.3377337.1158934q.6048142.1779079.7095496-.4677551c.7778451-4.7341154,1.4733323-9.4777312,1.7596541-14.2731438.2265292-3.7940126.2571866-7.5856019-.00566-11.3793083-.1220695-1.7618367-.2514566-3.5242158-.1917385-5.2941706.0295507-.8757789.1506492-1.71458.7171385-2.4236922.1532736-.1918697.1507104-.3648175.0684399-.5923002-.6730311-1.8610214-1.5381724-3.597209-3.087551-4.9055848-.2650029-.2237911-.4606911-.5302945-.7807276-.6943456ZM48.1413531,65.8682668c.8970103,7.8517246,3.0642639,15.3088885,5.9371304,22.6122802.1730965-.1412801.0996396-.2608913.0899119-.3665408-.3242793-3.5213989-.8715361-7.0104215-1.55164-10.4787201-.5283262-2.6942326-1.1251579-5.3728588-2.0635024-7.9610657-.3746677-1.0334527-.7866194-2.0521475-1.4387559-2.9511698-.2492303-.3435861-.5087132-.6799989-.973144-.8547837ZM84.4539412,112.6276972c.2021661.0042603.3520892.001041.4419835-.1317273.1122367-.1657744.0505459-.3240256-.0741742-.4515976-.2494402-.2551352-.4949963-.5165689-.7653793-.7483207-1.4501195-1.2429846-3.0481501-2.2865675-4.5992477-3.3933983-.2520559-.1798674-.4962473-.3717021-.7558789-.5397686-.555095-.3593237-.8740381-.3090228-1.2694648.1998566-.8051651,1.0362171-1.4887944,2.1552164-2.2142741,3.2461259-.3120059.4691635-.429159.8665673.0076282,1.3204393.1402041.1456803.1929282.3783069.2767602.5749442.2085171.4891352.2097593.5011112.7242724.34845,1.6515858-.490045,3.3393007-.7623874,5.0557703-.8827161.8905368-.0624432,1.7580576.0248443,2.6078549.2984202.2033033.0654437.4112606.116462.5641492.1592922ZM84.7863561,122.0819751c-.0660123-.125245-.1218945-.2571909-.1995767-.374729-1.0784961-1.6319115-2.2420664-3.1977145-3.6138214-4.598854-.5864566-.5990187-1.2268795-1.1397495-1.990273-1.4940169-.9888554-.4589109-1.9986448-.8726734-3.0018994-1.3069411-.1567115.2801194-.147185.5819164-.2554588.8408044-.1388569.3320125-.0188519.5116875.2383478.7191724.6111172.4929756,1.2076165,1.0064389,1.7835929,1.5401538,1.3664712,1.2661843,2.8092249,2.430953,4.4112621,3.3876509.8292396.4952063,1.6574207.9951977,2.6278266,1.2867595ZM113.0625932,96.1864251c.2382253.2845284.5011724.3130294.7610577.3316363.522535.0373889,1.0466447.097855,1.5688298.08713,1.8330628-.0376426,3.6730016.0100514,5.4841682-.3653249.4468474-.0926062.883897-.2160841,1.2517501-.494489.4311535-.3263176.4144098-.6629403-.0410806-.9632763-.28312-.1866821-.6085803-.2572347-.9438733-.3009134-.9351428-.1218245-1.8552565.0066922-2.7754577.1461877-1.3666112.2071612-2.7280786.4424909-4.0421056.8848068-.4431732.1491882-.9131503.2682047-1.2632887.6742427ZM84.1390747,113.5534972c-.6266449-.3757-1.1580591-.5459096-1.7471138-.5683133-1.1753276-.044711-2.3368072.0899294-3.498313.2329328-.9007894.110907-1.7938806.2649854-2.671759.5005338-.1289891.0346071-.2403511.107784-.2318743.2317605.0100164.1464676.1581724.1539297.277775.1508504,1.1253678-.0289733,2.2388734.1376409,3.3581439.2073711.59901.0373189,1.1945295.034957,1.7880632-.0331199.8976839-.1029551,1.7696836-.3101513,2.725078-.7220155ZM74.3073386,114.1350374c-.0095266-.884247-.5678759-1.6794044-1.3431316-1.912792-.570404-.1717143-.8660686.029542-.7786674.5995173.1044423.6811536.3139654,1.3413382.6257876,1.9625594.1290941.2572084.3228709.3792604.6264611.3744928.6231544-.0097803.8774148-.2941774.8695503-1.0237774ZM109.76111,94.8988607c-.1439394.0244681-.4435057-.0862115-.5686369.1534835-.1432134.2743632.0916964.4910247.2626672.6826145.4049008.4537408.9142351.753517,1.487036.9448006.3896618.1301351.5673947.0265327.6658883-.3630241.0776472-.3070632-.01076-.5662925-.2342625-.7778976-.4286428-.4058106-.9185478-.6744789-1.6126922-.6399768ZM54.248597,45.8661641c.5415619.248736,1.0890199.489192,1.6484715.6936807,2.304702.8423922,4.4111396,2.0464351,6.4002141,3.468841,3.3909489,2.4249213,6.420317,5.266925,9.4368781,8.1286991,2.6164629,2.4822163,4.8251908,5.2859125,6.7895347,8.2960263,2.0642547,3.1632299,3.8862164,6.46187,5.5580362,9.847465,1.2262234,2.4832048,2.5155636,4.9330885,4.0188009,7.2651018,2.1139783,3.2794994,4.7013892,6.0696275,8.1304006,8.0170179,3.1180728,1.7708209,6.4254433,3.0012608,10.0462107,3.6287717-.2631746-.2043531-.4920833-.2613987-.7112379-.3409442-2.243921-.8144555-4.456008-1.7011431-6.5834758-2.7931636-3.2550051-1.6707788-6.0732579-3.865125-8.2968224-6.7943898-1.1138905-1.4674055-2.1122112-3.0082767-3.017812-4.6109787-1.5509401-2.7448047-2.8720268-5.6079523-4.326844-8.4022182-3.1604043-6.0702311-7.1622079-11.5060142-12.2369176-16.1192324-1.7491259-1.5900611-3.5432776-3.1319471-5.3471834-4.6600549-2.0995791-1.7785716-4.3164513-3.3935733-6.7958245-4.6182877-1.1781007-.5819382-2.3695247-1.1329086-3.6501956-1.4511999-.5217914-.1296846-1.0585944-.254011-1.606936-.0045665.0824498.3062584.344041.3572723.5447024.4494324ZM114.0256683,109.2223055c.8993372-.5881887,1.8203258-1.1389535,2.7863489-1.61124,1.2086487-.5909356,2.4619997-1.043994,3.8175009-1.1282722,1.7605507-.1094461,3.3634802.2608913,4.6581129,1.5661354.5887048.5935337,1.1849854,1.1793517,1.722462,1.8198009.6308176.7516886,1.2029888,1.5444054,1.5846286,2.4577919.7065578,1.6909867.3200365,3.0742978-1.1555047,4.1541761-.5428478.39729-1.1375188.6973899-1.7559668.9549745-2.2564744.9398317-4.6411768,1.2515489-7.0511696,1.4303403-1.5718741.116602-3.1465125.1709532-4.7232067.1492495-.2391176-.003298-.4779727-.003298-.690374.138297-.1012842.067517-.2077473.1362062-.1894378.2713015.0204878.1512003.1587585.15253.2743807.1705333.6862362.106883,1.3779923.1434321,2.0706408.1261635,1.8853933-.0469942,3.7697281-.1393992,5.6468896-.3152601,1.5925018-.149197,3.1690473-.4143661,4.6852841-.9572402,1.2501579-.4475997,2.3804684-1.0815754,3.3428349-2.0161758,1.1961653-1.1616633,1.4558232-2.5170158.944888-4.0658389-.1506229-.4565052-.3596474-.8819462-.6149313-1.2877743-.5743231-.9129229-1.2291628-1.7655721-1.9921101-2.5254926-1.7928658-1.7857275-3.5943746-3.5628644-5.4889096-5.2428286-2.6701669-2.3677401-5.7142666-4.0407759-9.1633546-4.9719033-.3196953-.0863077-.6329522-.1666142-1.1219649-.0626444,1.3614761.850296,2.7085006,1.4378898,4.0273565,2.0699322,1.343324.6437647,2.5837455,1.4404967,3.7536581,2.3500779,1.1488562.8932136,2.2635602,1.8283214,3.3335795,2.9217503-.4584122,0-.7914308.0029656-1.1243793-.0004986-1.5907697-.0165512-3.1424447.2021836-4.6216075.8087693-1.4737216.6043287-2.6935153,1.5147672-3.3786754,3.0394808.1412538-.0808227.2870741-.1546732.4230266-.2436053ZM72.5790242,122.5676635c-.5360069,1.2503591-1.1808039,2.4438301-1.8708192,3.6150636-.7134599,1.2110194-1.4247941,2.4237185-2.111109,3.6501868-.7915532,1.4145327-1.5204009,2.8608556-2.044843,4.4007295-.2082197.6113971-.3888832,1.2327144-.3483363,1.8848422.0405819.6525127.3136505.8283823.940549.6557494.2450487-.067482.4345302-.1906187.4676501-.4722166.0306005-.2601828.0949857-.5192983.0975489-.779341.0083981-.8524568.2568235-1.639636.5915829-2.4113838.4935267-1.1377812,1.0806394-2.2285508,1.6444212-3.3312701.8239383-1.6115724,1.6790894-3.2086582,2.3027512-4.9141141.31044-.8488963.5719174-1.7084827.5945397-2.6308184-.1971972.0459007-.2091557.2047817-.2639356.3325724ZM114.7319199,117.4397398c1.9048314.1323221,3.8124271.2203532,5.720259.1190864,1.4319237-.0760025,2.8434471-.2978866,4.1916175-.8270438,1.2406401-.4869482,2.334314-1.1868662,3.2258043-2.1855107.2070125-.231883.3912802-.4826792.4844813-.7855871.0356743-.1159371.0531178-.2528169-.0629156-.3238594-.1066205-.0652775-.2334489-.0260515-.3319513.0535552-.1111695.0898331-.2145357.1892365-.3236232.2817553-.563773.4781914-1.117136.9694874-1.6950108,1.4300254-1.0007702.7975456-2.1136896,1.38269-3.3720707,1.6570707-1.0065614.2194696-2.0248276.303669-3.0566006.2356271-1.1906191-.0785132-2.3835564-.0981262-3.5763888-.0649713-.469251.0130345-.9417213.0349832-1.5356574.2951222.2114389.0744542.2706454.1104609.3320563.1147299ZM21.4288632,51.5146502c.4770411.0105851.9546245.015414,1.4316131.0052575.6209718-.0132182,1.2385187-.0245294,1.858537.0604224,2.1481655.2942912,4.0821714,1.1391897,5.8937535,2.2868561,2.6321262,1.6674896,4.8313669,3.8130569,6.7509867,6.2492675,3.851828,4.8884038,6.2507984,10.4667178,7.7210121,16.4702543.8468012,3.457871,1.2892396,6.9914996,1.8673593,10.4991554.4660405,2.8275345,1.0023973,5.6391301,1.8805119,8.3732361,1.1701138,3.6432672,2.9206918,6.9541894,5.6720226,9.6643696,3.7480069,3.6919672,8.2557768,5.948879,13.3960964,6.9683087.523541.1038387,1.0664239.2212892,1.6131296.1176867-.3074831-.1603944-.6196727-.2720363-.9326671-.3813862-2.4343385-.850436-4.8227588-1.8054979-7.133322-2.960364-5.3270018-2.6625824-8.9311917-6.8170996-10.9282006-12.4124023-1.1129632-3.1183615-1.7658695-6.3389344-2.2735067-9.5970888-.5253781-3.3720007-1.0639832-6.7411058-1.8618262-10.0631118-1.1959379-4.9795753-2.9672224-9.713752-5.8224137-14.0073098-2.1305339-3.2038556-4.5410516-6.1461899-7.6369657-8.4720359-2.1196252-1.5924056-4.4279795-2.8160134-7.0187408-3.4504658-1.4547647-.3562488-2.9221134-.4766955-4.3896108-.0642321-.2822802.0793443-.6034146.1180935-.8106151.4265083.2138403.2233537.4623926.2813092.7228465.2870741Z"/>
  </g>
</svg>