<?xml version="1.0" encoding="UTF-8"?>
<svg id="Layer_2" xmlns="http://www.w3.org/2000/svg" viewBox="0 0 134.1932526 123.5840778">
  <g id="Layer_1-2" data-name="Layer_1">
    <path d="M102.6631092,100.4374314c1.0227444.92806,2.0835476,1.8178443,3.0615093,2.790904,3.8879441,3.8684231,4.8462401,8.7209389,4.5141797,13.94609-.1170685,1.8419348-1.5360181,2.856061-2.9369071,3.7803759-3.7526415,2.4759498-7.9767238,2.7659894-12.2892871,2.5856726-11.6041847-.4851923-23.1274366-1.8501047-34.5759011-3.6888438-12.3092926-1.9769916-21.4798521-8.1875079-25.9233727-20.3984939-2.2907384-6.2950352-3.8768027-12.8316111-6.5938303-18.9739338-.3337956-.7545974-.4144755-1.6676768-1.4255795-2.3615564.1997293,3.1736325.383878,6.1334443.5743457,9.0928512.0312482.485496.2630282.8621222.5670506,1.2560572,1.1016529,1.4273798,1.0832091,2.7653821-.1521269,4.2273937-1.2979263,1.5360759-2.4934971,1.6706411-4.2439649.7071829-3.3052767-1.8192325-3.4844728-1.7446765-2.8987687-5.5061531,1.6148109-10.3704683-1.5871344-19.4529516-7.2055336-27.9359288-1.3426006-2.0271535-3.2575188-3.388328-5.2501308-4.6975114C.8269638,50.6244621-1.3998215,44.7294857.8323031,36.5045118c1.4877541-5.4821133,3.4839811-10.7952899,5.5855532-16.0669951.7619828-1.9113936,1.7430425-3.7102808,3.022131-5.3351053,3.2940015-4.1843316,7.8404704-4.7647361,12.0073344-1.425124,3.0439765,2.4396551,5.3663462,5.5487307,7.6620227,8.6692659,7.205548,9.7945682,14.8804618,19.2188869,22.6009247,28.6068893.2923748.3555435.6216373.6807644,1.0036499,1.0961436.225273-2.5381931-1.6757889-6.8549715-3.8462848-8.9742716-1.6932132-1.6532601-3.3747066-3.3187679-5.0457092-4.9944773-5.3664546-5.3815799-6.4848522-11.7646551-4.7762897-18.9963613,1.539756-6.517221,4.6422234-12.1852363,8.6327688-17.4449939,1.1136619-1.4678751,2.6547844-1.8749615,4.4320756-1.5178924,3.0019267.6031067,5.4354074,2.2517541,7.3108967,4.5343876,8.4579974,10.2940687,17.4524914,20.1689407,24.346346,31.6827646,4.7784804,7.9807943,9.3327288,16.1124214,14.9405939,23.5743604,1.2032057,1.6010232,2.6339547,2.8814094,4.2689084,4.0313588,6.9640581,4.8981661,13.7396006,10.0514508,21.1895305,14.2529899,5.2728548,2.9737079,8.2369468,7.8873463,9.906807,13.6058452.4754462,1.6281286-.5490045,2.7212211-1.6045732,3.6850987-3.0043198,2.7434173-6.7004226,3.7185737-10.6430257,3.9672286-6.2657537.3951785-12.5276754.9221314-18.8257328.3957425-.1123835.1953552-.2247525.3907104-.3371214.5860656ZM75.0863172,79.7355514c2.3368731,2.4414337,4.2436757,4.4102987,6.123756,6.4043387,1.8399827,1.9515419,1.8755688,3.4911027-.1175312,5.2755154-3.1738204,2.8415286-6.3767345,5.6759863-9.9984692,7.9457215-5.2809379,3.3095858-10.5874846,3.1488624-15.7919651-.2261695-3.1163345-2.0209067-5.4051931-4.8629849-7.2812536-7.987887-2.6497885-4.4136969-5.8260744-8.4296268-8.8814237-12.5494088-6.4351314-8.6770382-13.1054337-17.1988912-18.0887622-26.8658567-4.8169585-9.3442318-9.2386879-18.8298611-11.3570807-29.2143485-.2655045-1.3015123-.39062-2.6316556-.580784-3.9485317-3.2163583,6.2467459-5.6358019,12.6473901-7.2276249,19.30778-1.6473062,6.8925459.5901433,12.3975495,6.5762325,16.3412009,1.7745329,1.1690656,3.5465606,2.3963039,5.1026059,3.8321934,4.2119648,3.8867367,9.2303807,7.1692678,11.4380027,12.7474825,3.1278953,7.9035705,7.0539923,15.4989106,9.151718,23.8101531,1.2287205,4.8682049,3.5938775,9.2279947,6.530264,13.3017649,1.8820614,2.61105,4.3074589,4.3749006,7.3719976,5.2353744,3.4134667.9584261,6.9120308,1.6464928,10.2702241,2.7630251,11.2782698,3.7497495,22.781227,5.7185422,34.6889136,4.7795504,3.3792254-.2664697,6.8025394-.1067585,10.1320222-.8592592,4.6136648-1.0427282,6.8190094-4.6769709,5.6069685-9.206724-.8411118-3.1435267-2.555697-5.7413457-5.132361-7.7569601-.8062631-.6307037-1.729855-1.1807638-2.3547168-1.9633847-7.0301115-8.8051542-16.5988283-14.455445-26.1807326-21.1655702ZM46.7312568,5.3223214c-3.6682021,4.4035134-5.4547621,9.2665778-6.546452,14.4911577-1.5389824,7.3652664.6112188,13.4950161,5.8018032,18.7819478,3.656916,3.7247987,7.6005096,7.1168212,11.5892547,10.46529,1.3957195,1.1716756,2.7092265,2.4121087,3.7362944,3.9314544,3.412281,5.0477914,6.7224452,10.2475941,8.2142806,16.1568498,1.2810442,5.0742895,4.3087531,8.394084,8.3279077,11.2000844.258589.1805336.5148209.3650004.7649074.5570732,6.3752885,4.8963297,13.2909777,9.0912606,19.0914361,14.7347841,1.3128707,1.2773279,3.0623335,1.5758266,4.7627045,1.8954948,8.5489077,1.6072483,16.7841627-.1360112,24.9426492-2.4637022,1.0271981-.2930617,1.9884295-.9616941,2.8633199-1.6132926,1.6877618-1.2569826,2.2143532-2.8068968,1.4925657-4.9679069-1.4433726-4.321355-4.4172974-7.3079034-8.187103-9.4329948-7.310217-4.1209099-13.9523222-9.1887068-20.7502778-14.0451123-.5150523-.367943-.9524541-1.0777793-1.8307572-.8219089.1723059.2262563.2845737.4444367.4578194.5900782,1.4487517,1.2179261,2.9214204,2.4075827,4.3622336,3.6346982,2.1017673,1.7900377,2.4429376,4.200686.9393533,6.533597-.9789305,1.5188685-2.374903,2.5845303-4.0624913,3.1002333-7.0882409,2.1661434-13.2632433.3933855-18.3963852-4.7817917-4.9560497-4.996639-8.963723-10.7991146-13.2608285-16.3473971-4.079612-5.2674901-7.4877719-10.9242952-9.3176976-17.4063494-1.2771761-4.5240993-3.3489749-8.6436789-6.042599-12.4932243-2.9962945-4.2821032-5.3248386-8.9184269-7.0482227-13.8666971-.8520002-2.4463067-1.1802287-5.0147358-1.9037153-7.8323656ZM81.2861042,89.6444407c-.8403454-.0861096-1.1258445-.1414337-1.4112135-.1408264-9.5378446.020273-17.3725057-3.856508-24.077888-10.4161331-4.8243115-4.7194255-7.8816996-10.5844625-10.9618118-16.4564402-2.7452754-5.2336175-5.4520292-10.4935956-9.1488911-15.1592948-3.6162761-4.5639584-8.1584866-7.613408-13.9571953-8.5960547-.902726-.1529728-2.0850659-.6674394-2.7257688.0061672-.7309624.7685007.2395595,1.7354582.5338937,2.5677639,2.7231804,7.7003562,6.8947222,14.6100879,11.1801223,21.5393768,3.5656876,5.7655663,6.8318716,11.683339,11.1970405,16.9150261,2.7300779,3.2720186,5.135976,6.788036,7.398445,10.4021647,1.4700152,2.3482387,3.1409311,4.5442277,5.2975164,6.3208753,4.4293137,3.6490064,9.3342688,4.4743423,14.5781818,2.1164009,4.5129144-2.0292357,8.2251835-5.2096355,12.0975686-9.0990256ZM81.6998494,88.2105683c-1.3239616-2.0951157-2.8413407-3.3626686-4.2964548-4.6552085-12.6793974-11.2627831-23.9243657-23.7804232-33.6055093-37.7289064-6.164743-8.8820744-13.3250022-17.0138894-19.871447-25.6127999-1.4967519-1.9660164-3.334045-3.6148228-5.7341591-4.4139427-3.2040564-1.0667825-5.3237903.4342568-5.3808496,3.7521571-.0134551.7821221.0914236,1.5730936.2101984,2.3495401.6359382,4.1569009,2.1661362,8.0485685,3.5166247,11.99992.4907739,1.4359474,1.247439,2.1418578,2.7367439,2.4660375,8.2496499,1.7957494,14.7630246,6.1965334,19.313752,13.3412336,1.8613474,2.9223314,3.6203827,5.919197,5.25859,8.971958,2.1614728,4.027874,4.1739855,8.1351408,6.5950811,12.0207641,4.6594308,7.4778957,11.1025441,12.8365564,19.2620285,16.1115827,3.7090734,1.4887338,7.5643234,1.9815754,11.9954012,1.3976644ZM105.3504937,69.2133105c-7.3773116-4.8393644-12.4408428-11.5789737-16.7231413-19.0460677-8.1361313-14.1870449-17.7989757-27.3395532-27.645535-40.3584218-1.4703189-1.9440082-3.0843923-3.8351324-5.2854061-5.015184-1.5066714-.807785-3.2076714-1.1831641-4.7105905-.1282714-1.5289761,1.0731774-.9086908,2.7378682-.5838459,4.1476212.781522,3.391567,2.1736915,6.575495,3.6444587,9.7157971,1.1600859,2.4769476,2.2230726,5.0132825,5.1737818,6.0445439.9159064.3201164,1.7183882,1.129004,2.4253469,1.8572624,7.0929043,7.3065442,13.9677077,14.8008014,19.2186122,23.60229,2.2610736,3.7900135,4.3616985,7.673034,7.155885,11.1225207,4.4383657,5.4792574,10.0816,8.4075247,17.3304342,8.0579097ZM57.6569908,25.7791507c1.4891097,3.7598065,3.1240273,6.9474652,4.0270064,10.3304863,3.9069157,14.637374,13.8838539,25.2712465,23.5829714,36.056371,3.1386825,3.4901194,7.4512169,5.2942123,12.182384,5.6740342,3.3997152.2729189,6.49201-.628419,8.4885804-3.6222408,1.5852979-2.3771877.9743756-3.608981-1.8505963-3.7747943-8.937319-.5245381-15.4600999-4.8897359-20.0759192-12.3740881-1.2414236-2.0129248-2.5052893-4.0179833-3.6267958-6.0978653-4.5438228-8.4266625-10.8210433-15.5011736-17.383141-22.3471365-1.4012505-1.4618742-2.9233725-2.858671-5.3444898-3.8447664ZM15.1581644,60.5600085c.0482821.6121515.012038.7873566.0784602.9042082,4.710764,8.287716,8.0869744,16.896416,6.5550341,26.7203236-.2453146,1.5731804,1.2426744,1.6221566,2.0387143,1.6733596,1.0324254.0664439.6102138-1.0397639.5547596-1.6423428-.5556489-6.0380224-1.1631008-12.0712297-1.7288934-18.1083556-.1134101-1.2100887-.3663669-2.3437127-1.2423491-3.2353985-1.9805415-2.0160698-3.9777988-4.0157059-6.2557256-6.3117944ZM59.394018,52.3886886c-.5911193,3.3719736-.6773012,6.5441384.5586493,8.8128108,2.2270346,4.0878615,5.6167435,7.4945609,9.0177023,10.7959334-1.6424512-7.138692-5.1145607-13.3323407-9.5763516-19.6087441ZM34.5456048,32.226414c.1665074-.1539199.333022-.3078399.4995294-.461767-4.5370772-5.5215531-8.1848689-11.7523207-13.4337706-16.7009596-3.120058-2.9415705-5.7130113-3.4376584-8.5170089-1.8798779-2.5433698,1.4129848-3.2969513,3.6803919-2.621201,7.8978877.0373575.2331248.1014661.461861.1494807.693388,1.5918845,7.6761429,4.2370168,14.9882253,7.625634,22.0424562.2398415.4992981.3727871,1.0949579,1.3244821,1.5605496-1.504741-3.9153821-2.9041406-7.4841497-4.2487078-11.0734505-1.7147876-4.577587-3.3487653-9.1831542-3.8139376-14.0990049-.2502455-2.6446262.5420275-4.9152868,2.8870416-6.2877329,2.3925226-1.4002528,4.4048256-.0679405,6.2393207,1.3767263,2.5004668,1.9691109,4.4007768,4.5023514,6.316559,7.0118919,2.5266974,3.3098027,5.0613477,6.6135466,7.5925783,9.9198934ZM62.67793,67.2331738c-6.5359034-8.0919414-12.1849796-16.9226248-19.4966499-24.4226516,5.5722428,8.865279,12.0850173,16.9858513,19.4966499,24.4226516ZM53.2860595,46.8976535c1.6470712,3.9619506,2.9230182,7.8831456,4.4886866,11.6699635.0998466-1.506028-.4295356-3.0326904-.0534154-4.2880535.981649-3.2763928-.8527377-4.8886297-3.143599-6.413557-.4472564-.2977106-.861956-.6443034-1.2916723-.9683529ZM52.1873204,1.3452961c-2.5856871-.1360292-3.940022,1.2130566-3.7479058,4.3611961.434358,7.1177249,3.4522992,13.3428242,7.3007602,19.2086637-.3272091-1.3395206-.9418838-2.563209-1.5164537-3.8054496-2.071553-4.4787887-4.5374098-8.8112057-5.1220365-13.8429139-.3059167-2.6329534.107843-4.8786017,3.0856359-5.9214962ZM24.5911592,73.7820335c.0478627,5.2157955-.0008893,10.4165814,1.261834,15.4880945-.3308458-5.1808889-.0231144-10.4169429-1.261834-15.4880945ZM50.6825143,115.3013293c4.3131779,2.1535632,8.7986616,3.5875078,13.5916888,3.9171534-4.4036254-1.7810146-8.9926142-2.916663-13.5916888-3.9171534ZM82.035467,36.9416606l.4701105-.4128704c-2.6623253-4.4484949-5.5063845-8.7727058-9.110637-12.5808884,2.8801659,4.3312529,5.7603462,8.6625058,8.6405266,12.9937587ZM122.0818917,97.8223181c5.1565671.3092425,9.9829391-2.1906966,10.9612045-5.9011292-2.9015957,3.9038936-6.8518915,5.06142-10.9612045,5.9011292ZM102.8003784,121.2171643c-3.2897755.2481199-6.5795511.4962398-9.8693266.7443596,3.3138515.1556768,6.6605562.8219667,9.8693266-.7443596Z"/>
  </g>
</svg>