<?xml version="1.0" encoding="UTF-8"?>
<svg id="Layer_2" xmlns="http://www.w3.org/2000/svg" viewBox="0 0 93.4187561 98.6188001">
  <g id="Layer_1-2" data-name="Layer_1">
    <path d="M77.0082058,6.1756648c-2.0441188-1.0309575-4.1417621-1.9400585-6.2686129-2.7824577C61.7860618-.1536726,52.6382668-1.0585623,43.2350078,1.3386279c-5.6549833,1.441493-10.9511216,3.7567662-16.0818639,6.4878731-.6485428.345328-1.3025195.6565579-2.0126019.8638633-8.035464,2.3463827-14.9579178,6.5942428-20.9927347,12.3420109-1.0181877.9696896-1.8929189,2.0643603-2.5194542,3.3375364-1.119531,2.2747903-.9387161,4.4184863.6385579,6.4283712.4961203.6322409,1.0571084,1.2006328,1.6322249,1.7582927.1109206.1075924.3055922.1695395.2802563.4425958-1.5202174-.5558938-2.8171671-1.4591533-4.1793922-2.2523752,3.2366686,3.2906686,7.1712611,5.5183193,11.331159,7.4275401-1.0917499.1874715-2.1773866.0062491-3.3797175.3868977.7731842.4696297,1.4556213.5721957,2.1244055.6812824,5.0624103.8251464,10.1369111,1.5626702,15.1319403,2.7785181,3.039348.7399691,6.1574205,1.1840592,8.7039087,3.2265479.1869281.1498414.4319317.2260526.6450786.3451921.1334036.0745811.318294.0942792.3904298.3455997-2.0712886-.4276524-4.1074602-.751788-6.1500168-1.0478028-3.6206456-.5246486-6.9890197.0673811-10.0790394,2.0733263-2.1468206,1.3936741-4.2128111,2.8926312-6.1435639,4.5783805-3.0770461,2.6864125-5.582372,5.8442208-7.7286492,9.2999458-.2951997.4753354-.6399164.9563764-.5662183,1.6656437.4252071-.2411318.7039691-.5539919.9980821-.8441652,2.5788202-2.5463523,4.8627803-5.3759496,7.5533362-7.817019,2.224662-2.0183075,4.4364863-4.0478905,7.0328989-5.5938513,1.8815076-1.1202103,3.8801171-1.8635756,6.1125225-1.82187,3.4889401.0653433,6.9729896.2950639,10.4638994.3040299.5370108.0013585,1.0839386.0946867,1.6494777.5094335-.3466865,0-.5662183-.0058415-.7852068.0009509-2.6250088.0811018-5.2458742-.0978112-7.869117-.1221282-2.2820582-.0211924-4.4014373.4987014-6.273028,1.8687378-1.228346.899184-2.3230846,1.9343529-3.2628195,3.1299593-3.2740271,4.1653998-4.73712,8.8917198-4.3735883,14.1800468.0324.4711241.0709811.9418406.1067093,1.412693,1.9890321-4.7985916,4.6779578-9.1240215,7.7716454-13.2229912-.6477277,2.6627748-.6437881,5.3349232-.4497958,7.9944377.1920904,2.6323447-.1031093,5.2881912.2778111,8.0110112.3436978-.2684375.4098562-.5140523.4727543-.7422785.4968675-1.7998624.9084218-3.6171135,1.0994254-5.4794665.2613733-2.5498844.0901358-5.1115876.2263243-7.6656833.1435244-2.6908955,2.0939754-5.1005838,4.7340634-5.5456249,1.5212363-.2563469,3.0821405-.3015846,4.6621314-.0547471-.1934489.2011923-.4251392.1973885-.6306107.2587922-2.1983753.6576447-3.8370529,1.936934-4.5584787,4.1889017-.4466033,1.39381-.5751844,2.8252501-.3455997,4.280328.1980677,1.2556516.6867843,2.4322392.9857198,3.6622154.6497654,2.6730993,1.1409272,5.3902137,2.1169338,7.9765056.1740225.461343.3074261.9490406.6579164,1.3764213.0588905-.106098.1079999-.1578565.1166942-.2157281.480226-3.1708498.3514412-6.2915714-.7775993-9.3284741-.4022487-1.0819009-.812037-2.1597262-1.1423536-3.2682535-.9527085-3.1963894,1.1121952-6.4908617,4.0580791-7.048114,1.8384435-.3477733,3.6902003-.431592,5.5639645-.401977-.2201432.1495697-.4546864.2505054-.687939.3544299-1.3110101.5838787-2.4120656,1.4223383-3.1515593,2.6732352-1.2119083,2.0499603-1.8099153,4.280328-1.5194702,6.6411106.3473657,2.8242992,1.6445871,5.1390291,4.173279,6.6302427.2706111.1596225.5535844.3547015,1.1467008.1507923-.3737204-.3068827-.6810107-.4928599-.9031916-.751788-2.291228-2.6705182-3.3490157-5.6409908-2.0732584-9.1139687,1.0672971-2.905401,2.9206161-4.9218066,6.1511036-5.4389835,1.6187758-.2591998,3.216495-.6697352,4.8082369-1.0733424,1.6664588-.4224902,3.3538383-.936135,4.5915579-2.1661111,1.0891008-1.0821726,2.2034696-2.0793037,3.547423-2.8162841.0575999-.0316528.1103093-.0767546.1562263-.1244376.2384828-.2471092.4718712-.2351545.7691766-.0669735,1.049365.5932523,2.1610847,1.0297349,3.3472496,1.2758931.3142865.0652075.6677654-.0139924.9952292.2530866-.8769727.4928599-1.718421.9827311-2.4434467,1.6463531-1.4931156,1.3667761-2.2053715,3.0837706-2.3117412,5.0759952-.0110038.2060828-.0993735.5099769.171713.5831994.2445281.0661584.3682864-.2130111.4871543-.3885279.211313-.3121808.396543-.6425654.583607-.9703689.9635764-1.6891456,2.3233563-2.8378841,4.2864412-3.1867441.8964671-.1593508,1.7863455-.3551091,2.6819295-.5192146.2487394-.0456452.5087542-.1089508.8637275.0346415-.3894789.1715772-.7043088.3104148-1.0194103.4488449-.9221425.4048298-1.8059756.8748671-2.4697335,1.655455-.2388224.2809356-.5059014.4732977-.8415841.6178409-1.4137798.6088749-2.6565258,1.4413571-3.4706684,2.7959068-.1127546.1874715-.3081054.3754864-.0990339.79132.9291387-1.3423232,2.0643603-2.3216582,3.4760344-3.0282084.0151472.3388072-.1671621.5515466-.2683696.7865653-.307562.7147012-.6269428,1.4251911-.756271,2.1978998-.033283.198747-.1562263.488241.0876226.597056.2041809.0911546.3370412-.1700829.4590335-.3139469.3446487-.4067317.662739-.8360143,1.0041953-1.2455988,1.5531608-1.863168,3.4963438-2.8814916,5.9709-2.8662765.6886182.0043472,1.0855688.2522715,1.3391308.8346558.0764829.1755168.2923469.3589129.1585357.5408146-.1247772.1695395-.3733129.0537962-.5667617.0468679-1.4471986-.0514867-2.8335369.1645131-4.1126225.8936142-1.8528435,1.0562254-3.1593706,3.5415815-2.7810313,5.3774439.4697656-.464875.721222-1.0286481.9691462-1.588889.3063393-.6920144.6321051-1.3703081,1.0676367-1.9931755,1.242746-1.776904,2.9890839-2.3485562,5.0663499-2.1191074.4822637.0532528.883018.250913,1.0803386.7981124-1.0518103-.1320452-2.0766546-.1434565-2.9659217.3746713-2.0132811,1.1731913-3.2929101,2.9327066-3.8701322,5.1930969-.0542716.2126036-.0851094.443275-.0652075.6598182.0254037.2765884-.0418415.6983993.2316903.775154.2894941.0813735.4238487-.3235921.5641806-.5556221.6816899-1.1270027,1.4220666-2.2014319,2.4349562-3.0667895,1.1909196-1.0173726,2.5484579-1.3045572,4.0514225-.9470029,1.398293.3328299,1.695938,1.8084209,2.6553031,2.6006919.0370868.030566.0241811.1275621.0264905.1939923.0495849,1.4361949.0986263,2.8726614-.1866564,4.3634675-.5599693-.3249506-1.0582631-.6409352-1.6539607-.7792294-2.7370842-.6356371-6.0069679,1.667138-6.6798276,4.7249615-.0338264.1539168-.127698.3741279.0760754.4738411.1550036.0758037.2993431-.0751245.4071392-.171713.6947993-.6230032,1.3431383-1.3029271,2.0729188-1.8805567,1.5113872-1.1958781,3.17968-1.7516361,5.0916857-1.0169651.3588449.1378867.4830109.3105506.3780676.7498861-.510724,2.1382621-1.4332741,4.0940791-2.4381486,6.0344093-.4396071.8486482-1.0164217,1.290429-1.9079982,1.5405268-2.8452199.7978407-5.737987,1.3953043-8.6020899,2.1120433-3.209363.8031389-6.430341,1.5676966-9.4602476,2.9438462-.9744444.44246-1.9111227.9529802-2.6627748,1.7390021-.5156825.5391844-.9130406,1.1987309-.6740824,1.922534.2460224.7451314-.0308377,1.1498253-.490958,1.6645569-2.153681,2.4092807-1.5923532,5.3122364,1.2771837,6.6993898.4167166.2013281.4457203.3670638.2163394.7236672-.2249658.3499468-.2382111.7448597-.1367999,1.1562102.2109734.8555765.6750333,1.5489495,1.3495232,2.0901716,1.7308512,1.3891911,3.660789,1.76427,5.7498058.9725425.6743541-.2555318,1.2289573-.3204676,1.8302926.1598942.3004978.2399092.7114408.3617657,1.0901876.4799543,2.1542923.6724522,4.0902753-.0001358,5.9038585-1.0880141,2.4852203-1.4906703,4.0624942-3.8054001,5.4415646-6.2735034,1.0738858-1.9221265,1.9552057-3.9374453,2.8435897-5.9482811.22483-.5087542.5261429-.8592445,1.0632896-1.0968442,1.4137798-.6254485,2.679688-1.5008589,3.7448115-2.6256881,2.7657483-2.9208878,5.1447347-6.14173,7.0090575-9.7000209,1.8929869-3.6129022,2.8815595-7.5375777,3.4917929-11.5534078.4032675-2.6532654.1619319-5.2319497-1.1111084-7.6497889-.078249-.1486187-.1003244-.2971016-.066566-.4502033.5079391-2.3027752-.1584678-4.4210675-1.1295159-6.4435863-1.6178928-3.3700043-3.5106759-6.6008994-5.7085757-9.6166097-2.7510766-3.7745624-6.4367939-6.0000396-11.2508044-6.0003113-.2915997,0-.5018939-.1190037-.7241427-.2741431-.9247236-.6460975-1.9403302-1.0759235-3.0632575-1.2250856-2.8673633-.3813279-5.5641004.2684375-8.1708375,1.3976138-.3580298.1550036-.6381503.156498-.9988292.0267622-2.7467295-.9872142-5.5435192-1.4420364-8.4286787-.6590031-.2771997.0752603-.4779165-.039532-.6945276-.1331319-1.3484364-.5827919-2.7232276-1.0870631-4.171513-1.3563157-1.7360134-.3227771-3.5027287-.5344297-5.2282818-.1192754-.9434708.2271394-1.8226851.2467017-2.7544049.111532-1.9655302-.285011-3.9441019-.2937054-5.9229453-.1766036-.2964224.0175245-.715788.0316528-.7371842.4110789-.0193585.3432902.4061204.2744148.6342107.3438336.8123766.2475167,1.6323607.4650109,2.4075147.9563764-.1264754.0589584-.1823093.1035169-.2424224.1103093-2.6932729.3105506-5.3853232.630339-8.0887847.8472898-2.1693715.1740225-4.3482525.2934337-6.4757146.7972974-.3608827.0855848-.95135.0785207-.9471387.5553504.0042792.4852524.5979391.4939467.9760745.6412069.4814486.1874715,1.0337424.0677886,1.6039004.3359544-.3116374.0896603-.5213882.1590791-.7354182.2100224-3.3898383.8087087-6.7103936.3911091-9.992232-.5910787-1.1183763-.3347318-1.103365-.3590487-.9345048-1.556557.0749207-.5310335.2028904-1.045765.3796978-1.5494929.8324143-2.372194,2.2713261-4.3701241,3.9233849-6.2178054,4.801852-5.3702439,10.5664654-9.557923,16.593403-13.41644.5058335-.323728,1.0479386-.5844221,1.6606173-.6523465,1.2587762-.1396527,2.514224-.3593204,3.7764643-.4095845,8.7862331-.3492676,17.4497947.3176148,25.8610168,3.1303668,3.0761631,1.0286481,6.2471488,1.5657947,9.5107834,1.373976.7903691-.0464603,1.5818928-.0937358,2.3421713-.3563317-.4871543-.0006792-.9705047.0338264-1.4524967.0819169-3.4561326.3455997-6.7885067-.2731922-10.0142395-1.434293-8.4231769-3.0322839-17.1507233-3.7198153-26.0046091-3.5054457-.7870408.0190188-1.5729947.085449-2.4053411.1324527.1569055-.261645.3860827-.3068827.5721957-.4084977,1.5797872-.8633199,3.2109252-1.6214928,4.8661765-2.3265487,5.4616023-2.326277,11.1451139-3.7718455,17.0741045-4.1520866,5.1882743-.3328299,10.2262997.5374184,15.1743251,2.0578395,4.2845393,1.3166478,8.2925581,3.2880874,12.3451354,5.1527498,3.8635435,1.7775832,7.8036378,3.3206912,11.9907735,4.1542602.4767618.0949584.9537953.2750941,1.5389646.1586715-6.7521671-1.7455229-10.071296-2.997099-16.4105504-6.1947111ZM28.1407656,45.8408345c-3.6684644-.4326788-6.9345443.4659618-9.9197566,2.6175371-3.4783439,2.5068202-6.5877899,5.4099118-9.4808287,8.5591616-.4749278.517041-.9642557,1.0207688-1.4469269,1.5306099,1.1225197-1.9196812,2.5500202-3.5616872,4.0823961-5.1075121,2.6082315-2.631122,5.5002514-4.8958595,8.738686-6.7213974,1.769636-.9975387,3.6366079-1.4959684,5.656138-1.5119986,2.4561486-.0194264,4.8705916.313811,7.2685968.8061275.0994414.0203773.2276149-.0008151.2909884.1846187-1.7509568-.0067924-3.4774608-.1551395-5.1892932-.3571468ZM66.1985708,68.7148051c1.1162706-2.6608729,4.6397163-3.8816114,6.5318881-2.2654167-2.6002843-.3817355-4.6613842.659139-6.5318881,2.2654167ZM11.2429251,38.8014148c1.8517567-.2714262,3.6854455-.0834112,5.5177759.0432,3.302895.228362,6.5828315.5936598,9.7600662,1.6111683,1.1752291.3764374,2.1330999,1.0471235,3.1033329,1.9488887-6.1903639-1.2718177-12.1792638-2.9738689-18.3811749-3.6032569ZM11.4673475,37.3779897c.6433805-.0081509,1.1284291.1880149,1.6119834.3905657-.5419693.0417056-1.0624745-.0058415-1.6119834-.3905657ZM16.2429807,63.0925614c-.0985584-2.0494169.4303694-3.9411132,1.2023309-5.7720851,1.3073421-3.1008876,3.1493177-5.8084926,5.874651-7.8500302,1.3288063-.9955009,2.7790615-1.6031532,4.264094-1.7266399-.4290109.1613885-.8642029.3083771-1.2861497.4866109-2.5242768,1.0658707-4.3916562,2.8854312-5.8766208,5.1413385-1.786753,2.7145333-2.9608274,5.7000851-3.8928189,8.7930935-.0933282.3097356-.1902564.6185202-.2854865.9277123ZM18.264209,60.8869182c-.3401657.5376901-.6647767,1.0854329-1.081765,1.7680738.087215-.7413276.3221657-1.2681497.5258033-1.7990473,1.1881347-3.0978989,2.5481183-6.1103489,4.6162824-8.7401124,2.0594018-2.6184881,4.7715577-3.9571434,8.104747-4.1053546,1.5360438-.068332,3.0662461.0039396,4.5988937.0214641,1.4241722.0163019,2.8437256-.0292075,4.2583205-.204996.1723244-.0214641.358777-.020649.5257353.0214641.9658859.2430337,1.927968.5014184,2.8914086.7547766-1.2151687.5928447-2.4704807.741871-3.7281021.7428219-2.4439222.0016302-4.8889312-.042249-7.3316307-.1230791-3.1977479-.1058263-5.6900323,1.2366328-7.7697435,3.5684796-2.2041488,2.4714995-3.8536265,5.3186213-5.6099494,8.0955093ZM33.819047,50.5100979c-1.2214177-.040483-2.4382845-.0763471-3.6633022.023366-3.8088643.3098714-5.3700402,3.2001932-5.7724247,5.8271039-.1932451,1.2619007-.1240301,2.529507-.120498,3.7952115.0051623,1.8684661-.1653281,3.7203587-.4297581,5.5655947-.0626943.0014943-.1253886.0031245-.1880828.0046189,0-.7909125.023366-1.5827758-.0044151-2.3727374-.0802188-2.2852506-.3913128-4.5688711-.0425886-6.8556161.083615-.5481504.1740225-1.0995612.3211469-1.63304.8368294-3.0335065,2.9393632-4.6143805,6.3343638-4.825218,1.9141114-.1190037,3.8222454.051215,5.7332323.0596377,1.9318397.0085585,3.8715586.098898,5.7807794-.3029431.4527845-.0952301.9539312-.1820376,1.3170553-.4374335.7926785-.5576598,1.5791079-.3617657,2.5561334-.1677734-1.125848.6115919-2.2010243.9158935-3.3071063,1.1127386-2.826269.5030486-5.6723719.3009054-8.5145353.2064904ZM38.5724689,52.0427455c-1.1524744.0756679-2.3033186.1768753-3.4551816.2620526-3.4543665.2556677-5.5740173,3.876585-5.0682518,6.7777747.2881356,1.652738.9080822,3.1989705,1.4429873,4.7729162.6865126,2.0199377.8491916,4.1067131.8835614,6.2126431-.0543396.0029887-.108815.0058415-.1632225.0086943-.1768074-.6835918-.3819393-1.3612062-.5252599-2.0518622-.5372825-2.5890089-1.4543986-5.0773536-2.0206169-7.6575323-.292279-1.331727-.4328147-2.6783974-.1655319-4.0343056.5397957-2.7385785,2.3900581-4.1425772,4.9453764-4.8011728.9510104-.2450715,1.930617-.2807997,2.9100199-.3006337,1.843402-.0372226,3.6875512-.0586867,5.5145155-.3666563,1.0831235-.182581,2.1621715-.4485732,3.0734461-1.0355764,1.1032291-.710354,2.2348507-.4523769,3.5565249-.4510184-1.0181877.7138861-1.9799981,1.1314857-2.9821556,1.4712439-2.5775975.8739161-5.2637384,1.0175085-7.9462113,1.1934328ZM49.2978775,51.789659c-1.7731681.692422-3.6491739.9286633-5.4968551,1.2957271-4.6357088.9209199-7.4826947,4.3561317-7.5671249,9.0963083-.0155547.8743237.211313,1.7012361.3716147,2.542141-.885735-1.8983529-1.0904593-3.8779435-.6651163-5.9241.7019314-3.3772043,2.7954992-5.3850515,6.1050508-6.2150884,1.7847832-.4474864,3.612223-.7217653,5.3557081-1.3383836,1.1416744-.403743,2.1993941-.9484972,3.1190234-1.7434851.1530338-.1323169.2982563-.245479.5184674-.2627318.815637-.063849,1.6297796-.1463093,2.6159069-.2377356-1.313727,1.3690855-2.7728124,2.1688281-4.3566751,2.7873483ZM62.7627477,51.1886633c-1.9619981.2730563-3.5080948,1.1865045-4.5970598,2.8522841-.0362037.0554264-.0766188.1097659-.1234867.1559546-.0285962.0279849-.0734263.039532-.1688602.0877584.5232901-1.9755151,1.518791-3.5604645,3.3562836-4.443075,2.2572658-1.0843461,1.7489191-1.0791839,3.7131587.2937054.1977281.1381584.3809204.2971016.6746258.5279089-1.0192066.1903243-1.9315.3969506-2.8546614.5254636ZM61.3999791,56.7739561c.4880373-1.6426852,1.2612214-3.0720876,2.7800804-3.9688264.4368901-.2579771.8934784-.4894637,1.3597798-.6892975,1.4006024-.6000447,1.9593491-.4379769,3.0304499.9317878-3.0788122.0605886-5.4369458,1.301161-7.1703101,3.7263361ZM64.3337726,61.729725c.6054787-1.8364058,1.5564212-3.3888873,3.284895-4.3403732.5958334-.3279393,1.2369724-.4599845,1.9228057-.4031996.8462709.0699622,1.4849646.3921959,1.7415153,1.4101119-3.2996346-.9065199-5.267678.9029878-6.949216,3.333461ZM49.7017563,82.4253581c1.1957423-.9974028,2.6055145-1.5974475,4.0594376-2.097915,3.5116948-1.2087838,7.1440913-1.9545944,10.7528501-2.7916954,1.4910778-.3460072,2.9790311-.7076371,4.4576108-1.1028216.4722788-.1262037.4815844-.0384452.4403543.4110789-.0955697,1.0418254-.5003316,1.5541117-1.6220362,1.8249945-4.3763732,1.0569047-8.7653124,2.0795754-13.0749837,3.3960873-1.8702322.5713806-3.6817776,1.2987157-5.4287948,2.1825489-.2525432.1278338-.4861354.3116374-.8689577.3344601.0841584-.9820519.6299994-1.6107607,1.2845195-2.1567376ZM46.3576992,87.8991189c.310211-.81292.8676671-1.4323911,1.5333268-1.9747,1.7516361-1.4266854,3.8142303-2.2474846,5.8972698-3.0184273,3.5038834-1.2969497,7.1633818-2.0363754,10.7716652-2.9581104,1.2245422-.3127242,2.4526165-.6133579,3.6862606-.8870935.2314866-.0513509.5843542-.3131318.7341276.1142489.1416904.4045581-.1441357.605207-.4690863.7550483-2.0009868.9228218-3.8878604,2.0449339-5.7048398,3.2861855-3.20848,2.1919224-6.3709071,4.447558-9.4765494,6.7844313-1.1705423.8807086-2.4181788,1.6637418-3.9291585,1.8540662-.1320452.0165736-.2646337.0285283-.3441053.0370868-1.9670925.017117-3.4027439-2.1480432-2.6989106-3.9927358ZM55.3127246,96.9007405c-.6890258.2812073-1.3974779.4309128-2.1420659.4023845-1.5096891-.0028528-2.7665634-.5732825-3.7567662-1.707621-.6185202-.708588-.6105051-1.0886933-.0076075-1.8048888.3885279-.4616147.8343841-.8661728,1.3374327-1.1966932,3.9212114-2.5763749,7.5366268-5.5726588,11.3690608-8.2707544,2.0012585-1.4088892,4.0868791-2.6710616,6.3088921-3.7063663.4859995-.226596.7663917-.21043.9159614.3681506.0933282.3612223.2222488.7424144.4411015,1.0354405.3943694.5281806.1810866.8004219-.2422186,1.1795762-3.3321025,2.9847368-6.4131561,6.2084318-9.2495459,9.6733945-1.3688817,1.6723003-2.9102916,3.1848422-4.9742443,4.0273773ZM71.4079696,84.3499298c-1.4179232,3.0768423-2.4690542,6.3316468-4.4165845,9.1530932-1.5708211,2.2756054-3.6417022,3.7927662-6.415941,4.2484035-.1967772.032332-.3957958.0513509-.5157505.066566-.9115463.0086943-1.3235082-.5265504-1.1395687-1.3563157.1351018-.60969.507192-1.086248.8820671-1.5479985,3.2494384-4.0025169,6.6153673-7.8992076,10.4361183-11.3782986.1539168-.1400602.3076978-.4076826.533207-.1290565.2400451.2964224.8851916.4036072.6364522.9436066ZM81.4658166,74.7043843c-1.4525647,2.2438167-3.0220952,4.3979732-4.9537311,6.2608695-.7860219.758037-1.6534173,1.4178553-2.6357409,1.9107152-1.0914103.5477429-2.0870471.2965582-2.7576653-.7521955-.8777878-1.3726176-1.1784894-2.8933104-.8072143-4.4732335.6299994-2.6808427,2.0121264-5.0501839,3.1971366-7.5402947.3006337.3072903.3985128.6355013.4966637.9448293.9555614,3.0108198,3.3763892,3.516857,5.7650209,2.9271368.8511615-.2100224,1.6750173-.5308976,2.6453862-.8444369-.3602034.5959692-.6414107,1.0900518-.9498557,1.5666098ZM74.8242305,71.3038139c1.6684965,1.1260518,3.2972572,1.9537793,5.2117762,1.9884207-1.9010699.9070633-4.4819278.3500827-5.2117762-1.9884207ZM87.0330415,58.2034944c-.349811,4.7007804-1.6306626,9.1564894-3.713838,13.384108-.1207697.2450715-.296762.3608148-.5438033.4336298-3.1650083.9331463-6.5680239-.1044678-8.6705578-2.6301711-.2636828-.3166638-.3466185-.6084673-.274279-1.0264745.3450563-1.9923604.5795315-4.0006151.6556748-6.0219112.0201736-.5352448.2434413-.850686.6782258-1.1120593.7470332-.4492524,1.5343457-.7947162,2.3632279-1.0573122,1.1077122-.3510336,2.1405715-.8404973,3.0643442-1.5662023.7384748-.5799391,1.625772-.9092369,2.4732656-1.2923308,1.4545345-.657373,2.6265711-1.5746249,3.1692196-3.3556043.649222,1.4649948.9023765,2.8479369.79852,4.244328ZM82.0850839,57.0915709c.967584-1.3161044,2.2943525-2.0639527,3.3979892-3.2413554-.1571093,1.5367231-1.4632967,2.7783823-3.3979892,3.2413554ZM85.7070201,49.108137c.3567393,2.1712734-.1494338,4.1117395-2.025915,5.5037834-.7723011.5728749-1.4632967,1.2352743-2.0371905,2.0029566-1.0946707,1.4643156-2.5418693,2.3819751-4.276728,2.8962991-.9169803.2718337-1.7973492.6462333-2.6179447,1.1381423-.2793733.1675017-.4627014.1362565-.7074333-.0427924-.3647544-.2668073-.6678333-.5812976-.9209199-.9517576-1.4145949-2.0703376-2.1964055-4.4505467-3.2802761-6.6829521-.1628149-.3351393.1060301-.3820072.2791016-.4796826.6568296-.3710034,1.3269044-.7187767,1.9825792-1.091682,1.527757-.8687539,2.6218843-2.100632,3.1477555-3.8020039.5173806-1.6737946,1.5119986-2.9466991,3.1170536-3.7081323.1999696-.0948226.3849959-.2208904.5827919-.3208752,1.4543986-.7358936,2.4325788-1.783153,2.3783072-3.5843739,1.7991832,2.900918,3.8132794,5.6809304,4.3788185,9.1230705ZM79.2031169,42.6411847c.4921807-.6933729.9379689-1.4121496,1.247229-2.2060507.0847697,1.0101726-.4923165,1.6569494-1.247229,2.2060507ZM70.948121,34.5785509c.3928751-1.499908-.1035848-2.7513483-1.3012969-3.9427434,1.1037725-.0229585,2.0140962.186113,2.8984048.5300825,2.2129111.860603,4.1370753,2.1507602,5.7000172,3.9422,2.1436281,2.4570995,2.0446622,5.3862741-.2324375,7.7026342-.5765428.5865957-1.1795762,1.14738-1.7489191,1.7406323-.5887013.6134938-1.1054027,1.2882554-1.3435459,2.1199225-.590807,2.0632735-1.9494321,3.4447212-3.8265926,4.3762373-.6360447.3157129-1.2883912.885735-1.9113265.8573426-.5870032-.0267622-1.1487385-.6827767-1.7150927-1.0715763-1.080882-.7415993-2.1540206-1.4946099-3.2374158-2.2325413-.2621884-.1785055-.4086336-.3638034-.3386035-.7102182.4760146-2.3527676.981101-4.6943955,2.067349-6.8641746.7693125-1.5367231,1.8112058-2.8376124,3.1950309-3.869385.8781275-.654656,1.5140363-1.5081948,1.7944285-2.5784126ZM69.3389225,36.1785795c.3085808-1.0607084.5949504-2.0446622.8928671-3.0684197.4139317.8322105.0290037,2.1665187-.8928671,3.0684197ZM57.571213,30.2050305c1.1845347-.7314106,2.5053259-1.0105802,3.8498907-1.2010404,1.6259758-.2303998,3.2316422-.2214338,4.7592634.5230184,1.8150096.8846482,2.9336576,2.5758315,2.9401104,4.4879052.0107321,1.3556364-.4409656,2.5940353-1.3752666,3.5145476-2.0159981,1.9859755-2.9373255,4.5089617-3.7732039,7.0956612-.3275318,1.0138405-.6111164,2.041266-.7806559,3.0961329-.0462566.2878639-.1256603.479275-.503524.4431392-1.5638249-.1495697-3.0671291-.4743845-4.4278599-1.3114855-.3252223-.2001055-.4340373-.3064752-.1315018-.6757126,2.1021942-2.5656428,3.1170536-5.5799947,3.2697478-8.8403689.0880301-1.8801491-.861418-3.4589854-2.2064583-4.7572936-.5427165-.5241052-1.1183763-1.0191387-1.7154323-1.4803458-.5059693-.3908374-.3684902-.6079239.0948905-.8941576ZM59.8002222,34.5583094c.7941728.8834256,1.0808141,1.9131604,1.0571084,3.0632575-.0389207,1.8854473-1.2595233,5.5948022-2.4274166,7.1457894.5768145-1.6418701,1.1496215-3.2848271,1.450459-5.0044028.3040299-1.7380512.3927392-3.4720269-.0801509-5.2046441ZM47.6750262,30.0155213c2.2025187.8550331,2.420692,3.2113328.96575,4.9957084.283245-1.7459304.3727695-3.4470307-.96575-4.9957084ZM11.0858838,33.7021895c2.6639295.3344601,5.2237988-.080966,7.7213813-.9994406.201396-.0740377.4598486-.1206338.427992-.4231694-.0304981-.2894941-.2945884-.3290261-.4986335-.3561959-.9453727-.125932-1.8942774-.2246941-2.8473935-.3730412,1.059282-.2854186,2.1542923-.3377204,3.2387063-.4436826,3.6488343-.3567393,7.3164157-.5213882,10.9462311-1.0721197.2848073-.0432.5724674-.0903395.847086-.1741583.5086184-.155547.6038485-.5038637.2141658-.8783992-.2827016-.2718337-.6311541-.4751995-1.0541197-.7850709,3.2971893-.2294488,6.3683939.4477581,9.5446777,1.2972214-.5203014-.7803162-1.3045572-.9421123-1.9654623-1.4092968,2.3543978-.3958638,4.520441.0713207,6.6511635.8008294.4813127.1647847.9516217.3730412,1.4067836.601539,2.0883376,1.0479386,2.7897256,2.6282692,2.2133186,4.9067274-.2331168.921735-.6346862,1.7793492-.9635764,2.6873635,1.6017268-.5770862,2.6748654-1.6629267,3.1737026-3.2804799.5455014-1.768753-.3153733-3.0905631-1.5784287-4.3698524,1.2020592-.1332678,2.2693563-.061132,3.3398459.0609962,3.2630912.3724978,5.6501606,1.9456283,7.0092612,5.0015499.6164824,1.3863383.5806862,2.8188652.4137279,4.2576412-.2558035,2.204013-.9519614,4.2719054-1.9473944,6.2629072-1.1164065,2.2330847-2.9871141,3.2140498-5.3410364,3.4214911-6.7916992.5985504-13.0253989-1.1707461-18.8673103-4.5393919-2.2280583-1.2848592-4.2613091-2.8175067-5.9944698-4.7328408-.4919769-.5438033-1.0373424-1.0393801-1.5269419-1.5852211-.7314106-.8152294-1.6345343-1.2782026-2.7096427-1.4280439-.4382486-.0609962-.7029503-.16003-.6018107-.7543691.2026866-1.1907158-.3306563-1.8628963-1.5216438-2.1848583-.9696896-.2621884-1.8046851-.2200753-2.4972429.6626711-.6714333.8559841-.6664748,1.8551529.186181,2.5266542.807486.6360447,1.7713342,1.000799,2.7361332.5340221,1.3322025-.6443315,2.4273486-.2253734,3.4669325.538641.9723387.7145654,1.6778022,1.7034097,2.5794315,2.7230917-2.089764-.6113202-4.0417773-1.0969801-6.0384848-1.3940817-1.9812208-.2946563-3.972766-.4472147-5.9849603-.5891768.4177355-.0953659.835403-.1907319,1.2530705-.2860978-1.4471986-.4328147-2.9187142-.6477277-4.3517845-1.038565-1.4610552-.3985808-2.8851595-.8657652-4.1039961-1.833553,1.9449491.5635013,3.8996793,1.027833,5.9452924.9243161-2.1434923-.5435316-4.3501543-.8805727-6.317926-1.9689943-.4260222-.235562-.8213426-.5284523-1.2216215-.8080294-.1598263-.111532-.2949959-.2585205-.4414411-.389343,1.7010323.2869129,3.3622609.6766635,5.0602367.8898105ZM20.8695876,36.033357c-.1909357.2056753-.3755544.1911394-.5594259.0302943-.23203-.2029583-.2198036-.4599845-.1252527-.7232597.1292603-.3601355.3032827-.4791392.7678181-.4697656-.8535388.672588-.8566633.753554-.0831395,1.162731ZM6.2891261,34.8876072c-.5029127-.1714413-.9639161-.4185505-1.4349043-.8381879.6716371.0577358,1.1266631.3155771,1.4349043.8381879ZM23.1964081,10.4463475c-4.4379127,3.0195141-8.6583314,6.30896-12.4493315,10.1204734-2.0905791,2.1019904-4.0262905,4.332494-5.2755572,7.0671329-.532324,1.1653121-.8441652,2.3803449-.7521955,3.6786531-1.6316815-.3881204-3.0796952-2.6252805-2.9172199-4.5047504.115064-1.3311836.731954-2.4561486,1.5062929-3.5039514,1.6983833-2.2982921,3.9021246-4.0684037,6.1455338-5.7845832,4.0497924-3.0978989,8.4867542-5.5065004,13.2543723-7.3084006.3108223-.1173735.6306107-.2119243.9482255-.3102789.0580754-.0179321.1264754-.0025811.2183092-.0025811-.1719847.285011-.4485732.3919242-.6784295.5482863Z"/>
  </g>
</svg>