<?xml version="1.0" encoding="UTF-8"?>
<svg id="Layer_2" xmlns="http://www.w3.org/2000/svg" viewBox="0 0 39.5702402 56.170285">
  <g id="Layer_1-2" data-name="Layer_1">
    <path d="M39.3631219,21.7454326c-.2632128-1.3576094-.6661516-2.6635236-1.4687813-3.8098186-1.3870433-1.9809974-3.300715-3.3039629-5.4537818-4.321155-.5829249-.2753923-1.1889909-.4937438-1.8562251-.6979536,1.3128159-.7200797,2.5339472-1.4641802,3.5656194-2.4903716-.0916846-.0784225-.1563714-.0436432-.216051-.032411-2.0238287.381557-4.0075326.2259976-5.9618704-.4167423-.5348835-.1758586-1.0862094-.3136901-1.6509327-.3580776-1.7469478-.1372225-3.2562598.4817673-4.6315972,1.4948996-.315923.2326963-.5994349.5092389-.9231392.7873377-.0057514-.0798435-.0127208-.1309974-.0127208-.1821513.0018269-1.4078161.0679346-2.8125873.2789785-4.2052467.2513039-1.6581727.6991716-3.243539,1.790997-4.5782104.2314107-.2827676.3988113-.6105995.4848122-.9733459.1623258-.6846915-.3398083-1.6319191-.9988552-1.8790955-.6558666-.2460261-1.3584891.0663107-1.7407904.7778647-.2363502.4398833-.4174189.9029754-.5624904,1.3803445-.8373414,2.75487-1.2781043,5.5813284-1.5165521,8.4436487-.0575144.6899016-.1007516,1.3809535-.1533265,2.1107092-.1287645-.0910757-.2255916-.1588749-.3216744-.2276892-.9575802-.6861124-1.9650287-1.2768864-3.0890622-1.6545188-.7928185-.2663253-1.5754197-.2921053-2.3730423-.0089993-.6782634.2406807-1.3500311.4973977-1.9987254.8055393-1.1184851.531365-2.3000329.7696097-3.5256977.8509418-.5107951.0338996-1.0230112.0480414-1.6111463.0467558,1.2347317,1.3580154,2.8367433,1.1962986,4.3496415,1.3723602-.0998043.0315991-.1979847.0706412-.2997513.0937146-1.5917944.3611225-2.9855364,1.1193647-4.1863008,2.2020555C1.1620869,19.9894179-.308995,24.7258942.0528042,30.1269658c.1472368,2.1981987.8338905,4.2762262,1.7377455,6.2689971,1.6155444,3.5622362,3.5302311,6.9667477,5.6621191,10.2431714,1.3982078,2.148804,3.1075345,4.0328389,5.1870506,5.5566987,1.0725412.7859844,2.0032588,1.7461358,3.1047602,2.4970703,1.260038.8591291,2.6183918,1.4369116,4.1624154,1.4753447,1.1990052.0297721,2.346721-.2711971,3.4821221-.6158096,1.9887788-.6035624,3.8100216-1.4875242,5.208703-3.0922424.8480323-.9730076,1.5821184-2.0244377,2.1921089-3.1579441,1.9560294-3.6345689,3.716307-7.3634614,5.3348286-11.1599502,1.5058612-3.5320581,2.7469533-7.1369225,3.2142405-10.9772576.2204491-1.8113639.3749259-3.6108189.0242237-5.4196116ZM21.0140125,12.312334c.9743608-1.2821641,2.3187758-1.9301141,3.8502816-2.2915749.954197-.2251856,1.8717878-.0860685,2.7852511.1546798,1.377232.3630171,2.7389013.7964047,4.1879924.8064189-1.7129805.821305-3.4860466.838627-5.3233934.4317637.4491533.3610548,1.7553381.5630317,2.8552156.4942851.9770674-.0611005,1.9075143-.3266815,2.8432391-.5892177-1.0171921.7759702-2.1442028,1.3063878-3.3815058,1.626709-1.8792308.4865714-3.7582586.5245986-5.6541348.1121192-.5406349-.1175999-1.0982535-.108127-1.7409934-.0841063.9126513-.9225979,1.9648257-1.4777806,3.0505614-1.9874931-1.3393402.2908873-2.4821843.9957427-3.6574394,1.7154841-.0079167-.1881734.1060294-.2852035.1849256-.3890677ZM20.8672494,14.3429968c.7223803.0506803,1.411267.2624008,2.106311.4438078.1265316.03302.2525219.0679346.3990143.1073827-.0445229-.1618522-.1748436-.1710545-.2685582-.2182839-.6275155-.3165319-1.3044256-.4810907-1.9834333-.6405069-.0966241-.0226674-.2521835.0038568-.2609798-.1439889-.0073077-.1212538.1136754-.1829633.2106379-.2350646.2354705-.1264639.4844062-.2167953.7529644-.240613.8634596-.0765956,1.7074997.0170513,2.5049193.3626788,2.3754782,1.0295746,3.7746333,2.8129933,4.1296661,5.3955232.0965565.7024871.1467631,1.4080191.199947,2.1513076-.1515672-.1033905-.1966314-.2426429-.2644984-.3605135-.4703321-.8167715-.8318606-1.6846293-1.1959603-2.5516751-.3289144-.7833455-.7583099-1.4957116-1.5013277-1.9790351,1.228236,1.2816228,1.5468655,3.0418328,2.3739219,4.5489119-.4724297-.5991643-.9477013-1.1960956-1.4167477-1.7978988-1.0347848-1.327702-2.3007095-2.3540287-3.8705131-2.9889872-.173964-.0703028-.333042-.1815424-.5104568-.2385154-.7205534-.2316137-1.1731575-.7589188-1.5515343-1.3727662-.0381625-.0619125-.1253136-.1217274-.0696262-.2027212.0485151-.0705058.1424326-.0442522.216254-.0390421ZM18.6921918,12.720483c.0891134-2.4042354.3171409-4.7901338.8504005-7.14308.3783768-1.6693373.8832852-3.2853553,1.7529699-4.7723382.2111792-.3610548.5838045-.5316356.9150872-.3799331.3042171.1393201.4944205.5896913.3593632.9263194-.1809334.4509125-.3724224.8994569-.5909093,1.3332504-.7834132,1.5551882-1.1260634,3.2302769-1.361128,4.9343257-.2730917,1.9803208-.3239073,3.9705881-.2387861,5.9659979.0059544.1391847.0382978.3373048-.1503493.3509729-.2227497.016104-.4095022-.1319447-.4712794-.3454245-.057379-.1982554-.0601532-.4155243-.0661077-.6249442-.0518306-1.8209722.1285615-3.6266523.364032-5.4286109.0408014-.3126074.0728064-.6263652.108939-.9395139-.2755276.4850152-.3672799,1.0173951-.4683022,1.5428057-.3290498,1.7113566-.4906989,3.4415914-.4662723,5.183329.0064957.4651896-.207593.7065469-.6120881.9483779.0266596-.5494989.0558228-1.0503475.0744303-1.5515343ZM18.7915225,15.0398001c.0931056-.0862039.1822867-.1913536.3791888-.2285012v.9411378c.2012326-.2990746.2497476-.6389507.290143-.9675945.0437109-.3556417.1756556-.2679492.3708661-.1376285.7581745.5061263,1.1167935,1.235476,1.1820892,2.1228887.090602,1.2312132-.24041,2.3899583-.6336729,3.5353736-.380339,1.1079295-.8611591,2.1755989-1.3407611,3.2548389-.0703028-1.8677956.1269376-3.7266596.1425679-5.5940492-.5679712,1.8230697-.7384843,3.7040598-.8039154,5.6028455-.0431019-.0052101-.0730771-.0027066-.075716-.0100143-.5771058-1.6076277-1.1291083-3.2299385-1.0636773-4.9649098.0516953-1.3689093.5185765-2.5966717,1.5528876-3.5543872ZM18.0780062,14.0007525c-.0447259.1377638-.2126678.0385008-.3241103.0393128-.2092169.0015563-.4186368-.0167807-.6365824.0023682.3594986.208405.8135236.1837753,1.1633463.4667459-.6550547.3197122-1.351046.4076076-2.0268059.563776-1.0450697.2415603-2.0977854.4530101-3.0954226.8644069-1.916852.7905179-3.2553802,2.1700505-4.1152536,4.0371694-.0541988.1178029-.0950678.2417633-.142162.3628141.0316667.0371475.0634011.074295.0950678.1115102,1.6014703-3.4030906,4.5144033-4.729507,8.0972093-5.1657364-1.7487071.8933671-3.3286602,1.8851176-4.8138839,3.0190977-1.4752094,1.1263341-2.9673348,2.2397443-4.1185015,3.8608372.0288925-.6639863.1536648-1.2078691.298195-1.7453239.6761658-2.5153396,1.9626605-4.6160345,4.2036904-6.0352858,1.0493325-.6645276,2.1712684-1.1557679,3.4585074-1.0899985.4661369.02375.9248985.0959475,1.3660674.2540105.124231.0445229.249071.0960151.3605135.1653707.108939.0678669.2747156.1518379.2301251.2889251ZM9.3595742,16.4530293c.2714678-.3071943.5990289-.5323123.9846458-.6682491-.2655133.3206594-.6142533.5107951-.9846458.6682491ZM6.6735861,13.0833647c-.0952708-.0284189-.1908123-.0560934-.2842562-.0897224-.0275392-.0099466-.0481091-.0391098-.1134724-.0950678.6452434-.0094053,1.2440017-.0564994,1.8422863-.1158407.8715116-.0864069,1.6778629-.3726254,2.4656066-.7348981.6120881-.2813467,1.2249204-.5587689,1.8696225-.7658206,1.0568432-.3394024,2.073088-.2395304,3.0651092.2222084.9127867.4249296,1.6842233,1.054272,2.4359698,1.7100033.0290955.025374.0454702.065431.0529132.1285615-1.1782323-.787473-2.4426008-1.2858857-3.8788358-1.2401448.8262445.2424399,1.6658187.4457024,2.4712227.8729326-.3866318,0-.7227186-.000406-1.0588055.0000677-1.2321605.0016916-2.4452397.2115852-3.6658974.3380491-1.7456622.1809334-3.4869939.2827676-5.201463-.2303281ZM38.4580489,27.5848313c-.507006,4.2285231-1.9142131,8.1920741-3.575363,12.0793003-1.0015618,2.3438791-2.363637,4.5035094-3.4826634,6.7882502-.7305,1.4914487-1.575961,2.9214586-2.5247449,4.287729-.4615358.664663-.9692184,1.2923814-1.4833291,1.916852-1.0080575,1.2245821-2.3513222,1.8767273-3.8317417,2.3152573-1.84276.5459127-3.7010826.7746169-5.599733.3197122-.9906002-.2373651-1.8384295-.7360484-2.613317-1.3870433-1.6131085-1.3551735-2.8416828-2.9930471-3.5058045-4.9935317-1.4886068-4.4840221-3.4095187-8.8059215-4.9299276-13.2767492-.729282-2.1445412-1.2730972-4.3269065-1.3337241-6.6110383-.0370798-1.3965839.2165246-2.754058.4488826-4.1176895.0669196-.3927216.1135401-.7889616.107924-1.1893292-.0018269-.1347189.0154274-.2866921-.1556271-.322554-.1611079-.033832-.2381094.1001426-.2953531.2186899-.2779635.5747376-.4001646,1.1941333-.4885337,1.8191452-.4842709,3.4252844.1037288,6.7139552,1.2119966,9.9527577,1.0890512,3.1825061,2.4091072,6.2765078,3.5369299,9.4433835.5903679,1.6578344.9943894,3.3720328,1.534077,5.0451593.0197579.0612359.024359.1274112.0483121.2590853-.7844281-.4869774-1.3308822-1.1253191-1.8718554-1.7677206-1.966991-2.3359625-3.4822574-4.9578051-4.8492045-7.6731593-.7907209-1.5706832-1.685103-3.0910921-2.3540964-4.720643-1.1316795-2.7562232-1.9543378-5.5925606-1.759601-8.60929.2639571-4.0890677,1.6446399-7.71572,4.7366117-10.5336527,1.691328-1.5414524,3.7066311-2.3861691,6.0143777-2.4736586.106909-.0040598.2140887-.0005413.4103818-.0005413-.4670842.3787151-.7862551.8011411-1.2973209,1.0085988-.5538971.2249826-1.0922314.4892103-1.5371896.9039903-.1050144.0979774-.2113145.1987967-.2952855.314096-.1034582.141959-.3488077.2882484-.2165246.4594382.1123222.1452068.3249899-.02578.4802787-.0978421.2174719-.1008869.4279068-.2167953.7263725-.3699188-.1058941.1973757-.1697012.3195092-.2363502.4400187-.7317179,1.3225595-1.368165,2.6825372-1.5834717,4.198142-.0760543.5358985-.2079313,1.0664515-.1918273,1.6129732.0031125.1058941-.0152244.2407483.1092773.2923083.1350572.0558228.1978494-.0661753.2615212-.1519056,2.3939505-3.2212776,5.6703065-5.3281299,9.1168373-7.2198109.2976537-.1633408.6013295-.3157876.8988479-.4715501.0587323.0736184.0071047.1027815-.0129238.1295088-1.1144929,1.4906368-1.3558502,3.1587561-1.0197634,4.9494824.2372975,1.2644362.6417925,2.4831992,1.0050126,3.7127885.173355.5870524.232764,1.193592.3701895,1.7856516.0307871.1327567.0330877.316126.2178102.3341246.1839783.0177956.2458231-.1554918.273836-.2851359.4771662-2.2117315,1.6078307-4.1878571,2.2752679-6.3299623.3350719-1.0753155.5463187-2.1688325.3548297-3.3032863-.0069694-.041478-.0008796-.0850536-.0008796-.1644911.821305.3150433,1.5812388.68821,2.3022658,1.1383783.8928935.5575509,1.6386178,1.2778337,2.2873121,2.1031308.7803683.9928331,1.575555,1.9734867,2.4411799,2.8942577.0866775.092226.1613785.2563787.3126074.2036008.1714604-.0599503.1784298-.2443345.1706485-.3984053-.0220584-.4417779-.0600856-.8826762-.0872865-1.3241158-.0394481-.6409129-.0451995-1.2841264-.1371548-1.9212501-.141147-.97815-.4810907-1.8825464-1.0094784-2.7170458-.0343733-.0542665-.0626568-.1123898-.1098863-.1977817.529741-.098857,1.0608354-.0646191,1.5606013-.2973154-.1706485-.191895-.3922479-.1852639-.5865111-.2324933-.1925716-.0467558-.3922479-.0742274-.5903679-.0871512-.6539721-.0426283-1.2372353-.2019092-1.7023573-.7271844-.2575966-.2908873-.6214934-.4875864-.9456037-.7328682.1034582-.0945942.2179456-.0496653.3197122-.0531162.7085769-.0240207,1.4218902-.0304488,2.1126714-.1998793,1.0155682-.249071,1.9979134-.1010223,2.9805292.164897,4.2847518,1.1596247,6.5156322,4.1883307,7.4752423,8.3141399.4251326,1.8280092.3350042,3.6983084.1124575,5.5542628ZM26.3659601,48.6924645c.0358619.1313357.0210435.2619948-.001015.3929922-.1004133.5947661-.3496196,1.1329651-.6396273,1.6537745-.0650251.116788-.1180059.3245163-.2755276.2756629-.1430416-.0443875-.0692879-.2520482-.0993307-.3570627.0599503-.7242749.1702425-1.4071395.4733093-2.0429776.0529132-.1110365.0966918-.27343.2646337-.2535368.1805274.0214495.2356059.1772795.2775575.3311474ZM10.8769382,42.2559315c-.0549431-.7584452-.1340423-1.4821788-.4048334-2.1692385-.0489887-.124231-.1119162-.2568523-.2651073-.2676786-.1767382-.0124502-.1933836.1565744-.2469734.2682876-.081941.1707838-.1119162.3558447-.1162467.546454-.0144801.6417925.2019092,1.2162595.5302147,1.750128.107518.1747083.1809334.5135694.4046304.4431312.1972404-.0621832.0761896-.390218.0983157-.5710837ZM10.5432196,42.0374446c-.2977214-.5682418-.5156669-1.1487985-.3348689-1.800673.3136901.5616108.3559124,1.1761347.3348689,1.800673ZM22.6522244,35.8868594c-.1700395.0238854-.1957518.2239677-.2322903.3682949-.1389817.5488899-.0779489,1.0952763.0447935,1.6388885.073483.3253959.1770089.63868.3790534.9089298.1077887.1441919.1889177.1647617.2529278-.0479061.1284262-.4266889.199541-.8590615.1952782-1.3044256.0010826-.4551754-.015698-.9069676-.2822263-1.3044932-.0882338-.1316064-.2007589-.281279-.3575363-.2592882ZM22.9397285,38.251782c-.2787755-.6427398-.4751362-1.293667-.1842489-1.9948685.4037508.6345525.2447405,1.3189057.1842489,1.9948685ZM28.6789845,33.8858335c-.2169306-.2346586-.3358838-.2000146-.4199225.1052174-.1023756.3722194-.0725358.7474836.0018946,1.1169964.1261256.6260945.2896017,1.2406185.7255605,1.7489777.1799861-.8840971.2340496-1.7552705-.0790992-2.6105428-.0479737-.1311327-.1330273-.2574613-.2284335-.3606488ZM28.8259506,35.9551323c-.3494166-.5530851-.3653853-1.1709246-.3205241-1.801282.3812863.5508522.3525292,1.1755258.3205241,1.801282ZM35.9877058,25.2004215c-.2028565.0474324-.20739.315314-.2191635.5120131-.048718.813456.14859,1.5786676.4787901,2.3140393.0480414.1070444.0974361.2252533.2724151.2898724.2785725-.9387019.264972-1.8510826-.1175999-2.7485772-.0762573-.1790388-.207796-.4157273-.4144417-.3673476ZM36.3614815,27.6865979c-.2904137-.7048553-.3565213-1.3783823-.3356808-2.0868238.3463041.2576643.515058,1.2839911.3356808,2.0868238ZM32.5770369,38.9471644c.0180663.2424399.0230057.4858271.0336966.7288084.0138034.8624447-.165912,1.6895688-.456055,2.4959877-.0315991.0876925-.0452672.2391244-.1640174.2144947-.1545445-.0319374-.0749717-.1858729-.0625215-.2795874.0772046-.579474.2175396-1.1473776.2655133-1.7341593.0544695-.6664899.0013533-1.3245218-.042696-1.9857339-.0052778-.0790315-.0763249-.1920303.0388391-.2316137.116585-.0401247.173964.0712501.223088.1557624.1138108.1957518.1476427.415389.1641527.6360411ZM32.1718652,27.660209c-.0640101-.5763615-.2110439-1.1338448-.6484236-1.5578947-.2289071-.2218701-.347928-.1958195-.3864965.1023079-.1349896,1.0424308.2314784,1.9381661.8511448,2.8353224.2485297-.496721.2322903-.9427618.1837753-1.3797356ZM31.8709636,28.3788001c-.4174866-.6290041-.4966534-1.3042903-.5533558-2.0188215.4507772.2797228.7319886,1.3154548.5533558,2.0188215ZM26.3348347,40.682068c-.2624008.771978-.1684832,1.5474068.0496653,2.314513.0175926.0619125.0449289.1348542.1263963.1300501.0791668-.0046688.0973684-.0824147.1232837-.141147.2375005-.538402.4381917-1.087292.4647837-1.7199499-.0069017-.2090816-.0204345-.4525365-.1789035-.6578966-.2452818-.3178852-.4565963-.3040141-.5852255.0744303ZM26.5868153,42.4188662c-.1109012-.5499049-.2100289-1.1033283.050748-1.725769.3350719.6352291.1102922,1.1783676-.050748,1.725769ZM4.2093328,21.4333665c-.0508156.1446655-.1042025.2906167-.1768059.4249973-.3292528.6095168-.7341538,1.1766084-1.012388,1.8153561-.0387714.0890458-.0767986.2418986-.2105025.207796-.140538-.0358619-.182219-.1778885-.1907447-.331215.0111646-.0418163.0207052-.0965565.0400571-.1475751.2948795-.7780677.6840825-1.5021396,1.2344611-2.131888.0600856-.0688142.1178706-.1766029.2433196-.099263.1048791.0646191.1068414.1644911.0726034.2617918ZM14.6843885,48.430605c-.091211-.2172013-.2134798-.5254106-.4873834-.4565963-.273227.0686789-.2365532.407337-.2847299.6390183.0826853.7588512.4682345,1.328311,1.0299806,1.7958012.04953.0412073.1101569.0875571.1786328.0466881.0840386-.0502743.0579203-.1398614.0449965-.2104349-.1127958-.6173659-.2376358-1.2335138-.4814967-1.8144764ZM14.2562111,48.2050134c.3604458.5017958.4248619,1.0010881.4798727,1.5041696-.339064-.4050364-.5843459-.8432281-.4798727-1.5041696ZM24.3919998,21.4936551c-.0875571-.173558-.2244413-.4180279-.4191105-.3668739-.1697688.0445905-.1228101.3265462-.1545445.5077503-.0112322.0643484-.0018269.1323507-.0018269.198729.0212465.5327859.0845799,1.0587378.3278995,1.543347.0784902.156439.1711898.35598.3705278.3333803.1960901-.0221938.1954811-.2473794.2252533-.3985407.1279525-.6495739-.0603562-1.2473172-.3481987-1.817792ZM24.4571602,23.1994632c-.3344629-.4689788-.4117351-1.0067042-.3861581-1.5742694.3800007.4604532.4245913,1.0068395.3861581,1.5742694ZM19.6795442,43.4619737c-.2427782-.214833-.4551077-.1752496-.4892103.140132-.0937146.8670458.1075857,1.6784042.5838045,2.4151969.0092023.0142771.0389744.0152921.1138108.0421546.1503493-.7354394.2182162-1.4524066.0383655-2.1751253-.0403954-.1622581-.1183442-.3086829-.2467704-.4223584ZM19.7199395,45.3093348c-.2505596-.5117424-.3379814-1.052851-.2630098-1.6239347.4194488.4867068.2696408,1.0665868.2630098,1.6239347ZM14.0651281,22.6205981c.4519275-.5013899.8921492-1.0123203,1.2089518-1.6141235.0818734-.1555594.1509583-.3201181.158266-.5013222.0058868-.1416206-.024156-.274445-.1624611-.3359515-.1305238-.0580557-.2025182.0680023-.273633.1381698-.6253502.6178395-.9926978,1.3705333-1.1399345,2.2333839-.0099466.0582587-.0439139.1395231.0454025.1683479.0760543.024562.1203742-.0407337.1634084-.0885044ZM15.1253545,20.5471718c-.1028492.590165-.4758129.9729399-.7823306,1.4314308.0050748-.3963077.3720164-1.0684814.7823306-1.4314308ZM35.0398016,33.3844436c.1437182.2988717.141959.6198694.1389141.9412732-.0246297.8088548-.1727461,1.6000494-.3498903,2.3865751-.0200285.0889781-.0257123.2269449-.1672653.1974434-.133704-.0278099-.1004133-.156845-.0884368-.249883.0999397-.7768498.241628-1.549978.2029242-2.3387367-.0140741-.2865568-.0349146-.5727753-.0468235-.8593998-.0037892-.0913463-.0713178-.2258623.0379595-.2642954.1340423-.0472294.2178102.0729417.272618.1870232ZM3.0241988,31.8085503c-.100481-.5750759-.083159-1.1747815-.1251106-1.7707655-.0081873-.1157054.0212465-.257732-.1531912-.2858125-.164897-.0266596-.2065104.1090743-.2557021.2128708-.3150433.6650013-.2890604,1.3304085.0359972,1.981471.0826853.1656413.1523792.4472587.3833163.3831133.2232234-.0620478.0784225-.3284408.1146904-.5208771ZM2.6608434,30.3869307c.0268626.3847372.0537252.7694067.0806554,1.1540763-.2360795-.3684302-.2567847-.7535057-.0806554-1.1540763ZM14.979674,39.5322546c-.281482.5717604-.0579203,1.8758476.4348762,2.3704711.1956165-.6267711.3122691-1.2308749.2814144-1.8561574-.0104202-.2109085-.0562287-.4181632-.2055631-.5827219-.1952782-.2151037-.3841959-.1886471-.5107275.0684083ZM15.3169788,41.1718873c-.2092169-.4944205-.3323653-.9878936-.0880985-1.5823214.3177499.5630317.1884441,1.0765334.0880985,1.5823214ZM20.2453501,28.1956338c-.1431769-.1118485-.2806024-.1521762-.3403497.0856626-.2046158.8147416.0096083,1.5497074.4414396,2.2366318.0952708.1514319.2115175.1495373.2768809-.0450642.0889781-.2651073.1232837-.5379284.125246-.8160949-.0013533-.2670696-.0396511-.5286584-.1088713-.7864581-.0700998-.2613858-.174979-.5032168-.3943455-.6746772ZM20.4335235,30.1622864c-.3442065-.522704-.3896767-1.054272-.3565213-1.6790809.3938718.3657236.5135694.9765938.3565213,1.6790809ZM25.5389714,29.3041046c.0119089-.2013002-.016307-.4419132-.0684759-.6798197-.0525072-.2396657-.1334333-.4683698-.3150433-.6437548-.2157803-.2085403-.3341922-.1923686-.4187045.0840386-.2586793.846476.0073077,1.6057331.4314253,2.3266925.1065031.1810687.1875645.0740244.2289748-.0657694.0944589-.3191032.1425003-.6453111.1418236-1.0213873ZM25.2589103,29.9353415c-.35598-.3329066-.5025401-1.26809-.272618-1.8266559.3411616.6103288.3023225,1.2044183.272618,1.8266559ZM11.1673519,32.5104961c-.1162467-.1245693-.2057661-.1268022-.3115248.0265243-.388797.5636407-.347522,2.0240993.0993983,2.6095278.3015782-.5298764.514652-1.6644654.4142387-2.1910263-.0309901-.1627318-.0845799-.3191032-.2021122-.4450258ZM10.9640217,34.4293103c-.2066457-.5418529-.1990673-1.0777514.0675963-1.6094547.2277568.5448978.1270729,1.0791046-.0675963,1.6094547ZM21.6108086,51.4895567c.2528602.3452215.2644984,1.4611353.0127885,1.7972221-.1279525.1709868-.1744377.0041275-.224306-.0769339-.1604312-.2607769-.3186972-.9907355-.3278995-1.4775776-.0003383-.033223-.0049395-.0671903.0004736-.0993983.0223968-.1338393-.0625215-.3348012.1002103-.3828426.1815424-.0534545.330606.092023.438733.2395304ZM33.9390445,18.4747604c-.1784975-.0154274-.1406057.1047438-.1021049.1943985.3220127.7499872.8227259,1.3274313,1.6009967,1.6301598.1761293.0684759.2503566-.001218.2379064-.1521086-.0331553-.9423558-.9934421-1.608372-1.7367982-1.6724498ZM34.1556368,18.7987354c.6692641.0715885,1.1799916.5882027,1.2565872,1.253001-.5761585-.264363-.9144783-.7363867-1.2565872-1.253001ZM16.7020598,34.1003282c-.1875645-.0085933-.2305987.1879028-.2791814.323975-.3038111.8509418-.02375,1.5961925.4479353,2.3841392.2190959-.646123.3173439-1.2188984.3029992-1.8112286-.0048718-.2013002-.0321404-.3967814-.1166526-.5810303-.0722651-.1575893-.1799861-.3078033-.3551004-.3158553ZM16.9455824,35.5257369c-.02375.2102995-.0119089.4332523-.1432446.6580319-.2577996-.5145843-.3617315-1.0163802-.2130738-1.550993.0183369-.06604.0114352-.1755879.1006163-.1870908.1065031-.0138034.1418913.0936469.1721371.1707838.115164.2936615.1182089.6029534.083565.9092681ZM5.1711758,36.7635812c.0297045-.073686.0435756-.1962254.1642881-.1669946.1010899.0244943.073686.131674.0604916.199541-.2018416,1.0360704.0732801,1.9895907.4893457,2.9222029.0613712.1376285.1105629.2883837.0593413.5347482-.5135017-.6861124-.7671738-1.3904941-.8868714-2.1516459-.0716561-.455852-.0611682-.9043963.1134048-1.3378516ZM15.4058216,27.5877409c-.2010296.3788504-.2605739.7903826-.2633481,1.2132822.0004736.2871658.0183369.5727753.1121868.8468143.0273362.0797758.0457408.1887148.1491313.199541.1078563.0113675.1345836-.092023.1734227-.1707161.1960901-.3979993.3325683-.8163655.3823013-1.2561812.033223-.2933909.0616419-.5980816-.1280879-.8614974-.1723401-.2392597-.2871658-.2320873-.4256062.0287572ZM15.485056,29.2876622c-.1657767-.5212154-.1450038-1.0298453.1211185-1.602147.2877071.6107348.0622508,1.1045463-.1211185,1.602147ZM10.6171763,27.3611343c.1021726.0262536.1225394-.0755806.1592133-.1366812.1939925-.3226894.3530028-.6619564.4687758-1.0209136.0652957-.2023829.0966918-.4087579.0696939-.6207491-.0196225-.1542738-.1004133-.2794521-.2455525-.3276288-.1728137-.0574467-.2262006.1071797-.2908196.2113822-.2295838.3705954-.2597619.7913975-.2973154,1.2132146.0087963.1649647.0150214.3302001.0276069.4948941.0059544.0772046.0221261.1642881.1083976.1864818ZM11.0101009,25.5921281c.1336363.4095022-.01651.7692038-.2093523,1.1213269-.0324787-.3916389-.0061574-.7730606.2093523-1.1213269Z"/>
  </g>
</svg>