<?xml version="1.0" encoding="UTF-8"?>
<svg id="Layer_2" xmlns="http://www.w3.org/2000/svg" viewBox="0 0 35.7118814 52.3379939">
  <g id="Layer_1-2" data-name="Layer_1">
    <path d="M34.7786138,18.4773221c-.8676179-2.570741-2.3605687-4.6124151-4.7070971-6.0050678-.341575-.2027562-.679622-.4114165-1.019253-.6173407,2.1107235.2155724,4.1951665.293046,6.2395767-.3749837-.0272886-.0455769-.0559452-.0653773-.0833057-.0637213-1.1021267.0674654-2.1534204-.2098123-3.1926178-.5101305-2.0453462-.5910602-4.0699559-1.2537619-6.1339505-1.7806687-1.0437335-.2664775-2.0958912-.4741298-3.1756255-.2382169-1.2181211.2661535-2.1261318,1.020585-2.9485328,1.9051953-.0886338.095258-.1522831.2297567-.3228547.2715176.0126723-.87525.0730095-1.7213035.2129084-2.5578887.4761458-2.8467587,1.358956-5.528814,3.2190424-7.806293.0372248-.0455769.0713535-.0936739.1075702-.1400429.1112423-.1424189.0804977-.2543452-.0637933-.3551833-.4258168-.2974381-1.0343013-.2693936-1.4316775.0774736-.5242428.4576414-.8924584,1.0351653-1.1992567,1.647394-.9967166,1.989437-1.7332197,4.0664639-2.0746508,6.2748574-.0354247.2291087-.000072.4803939-.1578993.7466194-.0705615-.243905-.1318347-.4329089-.1796437-.6252249-.1573232-.6333971-.3929121-1.2339614-.7556556-1.7782927-.7822241-1.1735162-1.8358219-1.8668905-3.2907559-1.8597984-.3761358.0018-.7535675-.0298446-1.1286233-.0648733-.7013665-.0655214-1.2753623-.3781518-1.7355238-.9130508-.2123324-.2468211-.2530852-.5655357-.389888-.9098828-.1239866.3796998-.000936.6558255.1359388.921979.4590815.8923144,1.1557678,1.598217,1.8274697,2.325504.3805998.4119925.7388072.8447214,1.1034948,1.2714742-.0611293-.0136803-.1221865-.0278646-.1835318-.0407528-1.0024047-.2099563-1.9852249-.1578993-2.8710592.3838399-.8159208.4990423-1.6772746.6904582-2.6218621.678974-1.453206-.0177124-2.6776632.5512434-3.7009483,1.5699924-.0664574.0661694-.1247066.1407629-.1846118.2132684-.046657.0563772-.0907939.1311867-.0521291.193072.0439929.0704535.1276586.0322927.193108.0096842.2000921-.0691934.4027043-.1326987.5982603-.2132324.8813702-.3629235,1.7991011-.5252868,2.7310883-.3174905,1.2762983.2845859,2.4780031.2269847,3.6662436-.387512.6609016-.341791,1.4005009-.2597094,2.1019393-.0133923.9874284.3467232,1.8062292.9519316,2.5435245,1.6789666.0754576.0744495.1509151.1492231.2220526.2277047.0626413.0691214.1569632.1206025.1783477.2605734-.9554597-.4246648-1.9180476-.67775-2.910732-.8311131-1.6607862-.2565413-3.2420829-.095258-4.6809605.8530016-.3440231.2267327-.6938783.4468052-1.0219891.6951743-1.7367478,1.3146391-3.2453229,2.8708792-4.701625,4.4800404-1.163616,1.2857665-1.9225836,2.7787893-2.2664627,4.4827044-.3479112,1.7238595-.5201387,3.4684195-.6417492,5.2197116-.0755296,1.0875104-.0149763,2.1672807.2072923,3.2339827.4454732,2.1385161,1.357156,4.0833122,2.5421564,5.8996937,1.7821088,2.7314843,3.6164186,5.429128,5.1656025,8.3055513.8205289,1.5234794,1.8556943,2.8931997,3.054087,4.1391494,1.4276454,1.4843466,2.9731573,2.811946,4.8152433,3.7775579,1.1901125.6238929,2.3502725.7016545,3.586754.1512751,1.9737767-.8786341,3.7226928-2.0923991,5.2439401-3.6010823,2.1373641-2.1197957,3.8608636-4.5666222,5.2957812-7.2087167,2.0149616-3.7100565,3.7484693-7.5427315,4.947726-11.6028593,1.0946386-3.7060604,1.1348154-7.3880364-.1108823-11.0791205ZM31.5299068,14.155613c.4878101.38708.8298891.8924224,1.163184,1.4282215-3.1900258-2.7537328-7.0765939-3.4700756-11.1393497-3.8657957.1853318-.1231585.3531673-.0927379.5000503-.1151304,1.0361014-.1577193,2.0735708-.2862059,3.1246484-.3262747,1.2695302-.048421,2.4156498.289086,3.4977601.923527.9977966.5850121,1.9478562,1.2366975,2.8537068,1.9554523ZM25.2100485,9.4749045c1.9627605.3968722,3.8592796,1.0400614,5.7922314,1.5479599.8378093.2201805,1.6862748.3906081,2.5339483.582132-.5935082.1244186-1.1897525.095582-1.7862128.0522731-1.3986288-.1015941-2.7806973-.3365709-4.1647819-.5444752-1.9721927-.2962861-3.9204808-.144327-5.867833.19336-.6445573.1117823-1.2860905.2325288-1.9588724.486442,1.403885-2.0157536,3.2691554-2.7589169,5.4515204-2.3176918ZM19.608189,12.5501239c.0324727-.1418069.2261567-.1492231.3648315-.1392869.48313.0347407.9463155.1797517,1.4194373.2708696.8892903.1712195,1.7815327.3276068,2.6701751.5023544,1.8962311.3728237,3.2896758,1.3927247,4.071324,3.1906018.1077862.2480451.2250766.4923102.3229267.7442073.6152527,1.5843927,1.1603039,3.2039941,2.3171518,4.5192092-.3494232-.1099823-.630877-.3182826-.920035-.5101665-1.7804527-1.1812564-3.3673654-2.6103418-5.0291597-3.9429813-1.2230172-.9806962-2.3922493-2.0196056-3.3595893-3.2685434-.4105525-.5301469-.9630199-.8922064-1.5826646-1.1510157-.1104503-.046153-.3071583-.0719295-.2743977-.2152484ZM22.3787341.3019153c.1244906-.0041761.2304048.0382328.2339328.2022162-.0456489.1134383-.1004421.2490891-.2518612.2306928-.145299-.0176764-.2642454-.1288827-.2679895-.2789698-.0047521-.194836.1696355-.1499791.2859179-.1539392ZM18.3864678,10.9322145c.1288827-2.1920132.3316388-4.3681141,1.0369654-6.4644013.4073844-1.210561.9308352-2.3620447,1.7568362-3.3567452.1729476-.2082643.3103264-.2778177.5454832-.0825497.1794277.1490791.1634434.2568293.0509771.435789-.9061387,1.4421177-1.6321297,2.9663172-2.0531223,4.6240794-.436401,1.7179554-.6242529,3.4706876-.7213109,5.235768-.0128883.2347968-.0298086.4695577-.0531371.7035265-.0116642.1163184.0238325.2941621-.19534.2327448-.1522111-.0427689-.3760638.0095042-.3694396-.2691416.0084242-.3528073.002088-.7060466.002088-1.0590698ZM11.849381,4.9502592c-.0925939-.1126823-.2111804-.2128364-.2538052-.4470212.8151288.4647336,1.6757626.3540673,2.5137158.4206687,1.2754343.1013781,2.0637786.8802182,2.616246,1.9522483.5666517,1.0994987.8059846,2.3027155,1.0781502,3.4953121.1054102.4617455.1537952.919171.0406088,1.4198693-.144435-.1323387-.2093803-.2834698-.2691416-.4295969-.679982-1.6632703-1.8145814-2.9492168-3.2534591-4.0000425-.9361633-.6836181-1.7369638-1.5168193-2.472315-2.4114377ZM12.964756,9.0517517c-.6459253-.1252106-1.2893306-.0997941-1.9063113.1672594-.0755296.0326887-.1573952.0529211-.2289647.0922699-.97058.533207-1.988393.5890801-3.0473908.3287948-.7675358-.1886439-1.5414798-.1620393-2.3130477-.0056881-.0401768.0081362-.0834497.001044-.1865558.001044.6180607-.4874501,1.2685222-.7170628,1.989113-.7590037.4467692-.0259925.8942584-.0393128,1.3412437-.0624253.6340451-.0328327,1.2372735-.1856918,1.7720285-.533891,2.035914-1.3257633,3.9924103-.5246748,5.2089474.8178649.6510374.7185388,1.3735003,1.9607804,1.5717924,2.8180301-.1375948-.1721916-.2252926-.2860259-.3171665-.3962962-1.0311333-1.2372015-2.2688388-2.1550404-3.8836881-2.4679589ZM16.9547183,12.6675223c.1997321-.1508431.4053684-.1730916.6248289-.0526331.5081865.2789338,1.0495656.3955762,1.6297536.3631035.2786457-.0155883.5296429.1059142.7608397.2499892.7638638.4760738,1.3008508,1.1438876,1.6458819,1.9718327.2303327.5528994.1890039,1.115735-.1139063,1.5973529-.7731519,1.2290653-1.3293634,2.5633969-1.9755767,3.8543835-.3765678.7521995-.9798682,1.3423957-1.5728004,1.9970692-.0766096-.3618435-.1406909-.680234-.2118284-.9970406-.2974381-1.3246833-.7141827-2.6028897-1.3820685-3.7963143-.4072404-.727683-.826577-1.4773625-.8284491-2.3377082-.0025201-1.1713202.4768658-2.135096,1.4233254-2.8500348ZM15.9287691,12.9069272c-.3101824.5772359-.7948244.9121148-1.3799805,1.1424476-.8488975.3341589-1.7516521.4454372-2.6335263.6435493-2.086891.4688017-3.7881421,1.6139853-5.3147896,3.056031-.2110364.1993001-.3782958.4449692-.5658597.6691818-.1196665-.2370289-.0269286-.3545353.0334087-.4749938.7814321-1.5596242,1.8290537-2.9313244,3.0100941-4.2034827,1.1929926-1.2850825,2.7035838-1.7332557,4.413475-1.600125.7622797.0593292,1.5198793.1609953,2.2608466.3631035.240053.0654493.3201906.1365868.1763316.4042883ZM34.1173522,30.8536213c-1.8332298,4.4926406-3.8412792,8.9056477-6.4289406,13.0247446-1.3305874,2.1179237-2.9293804,4.0153788-4.9704785,5.5015615-1.2006248.874242-2.5165959,1.503895-3.9386252,1.94152-.9335713.2872859-1.8056532.2035482-2.6783832-.1795357-1.7350198-.7615597-3.2198344-1.890795-4.6489199-3.1124442-1.2894746-1.1022707-2.1794849-2.4990635-2.9755334-3.9607297-1.8135014-3.3297447-3.7257888-6.6005561-5.7069097-9.8332428-.9553157-1.5587601-1.743588-3.20277-2.1115875-5.0192235-.243293-1.2011288-.2610774-2.4088817-.1754676-3.6232587.1261466-1.7891289.3921921-3.5552173.8591217-5.2898051.3834079-1.4244054,1.1767923-2.6104498,2.133476-3.6992923,1.5807206-1.7992451,3.4094863-3.3197725,5.383767-4.6614481,1.3615481-.9253631,2.8907876-1.0605819,4.4768363-.774556.5525394.0996501,1.1060868.1982561,1.6281696.4236927-.5940122-.0279006-1.1828404-.1125383-1.7769246-.097058-.4713217.0123123-.9406994.046729-1.405541.1315467-.8617858.1572512-1.6150653.5278429-2.1912212,1.1930286-1.2264013,1.4160892-2.4352342,2.8471907-3.3973901,4.4654241-.3839839.6457453-.6439813,1.3469318-.9018186,2.0699707.241565-.2156804.4821219-.4325849.724983-.6468613,1.1790243-1.0403495,2.4404903-1.9630485,3.8535195-2.6634069.582132-.288546,1.2048008-.4663536,1.8362539-.6155407,1.1893925-.2809498,2.3969294-.4998703,3.5514732-1.0474056-.2319168,1.0248691.0549371,1.9245997.4579294,2.8037378.0294486.0641533.0559452.1300347.0902179.19156.6663737,1.1958727,1.0736141,2.4641788,1.2305054,3.8339711.1146984,1.0024047.3834799,1.986161.6976944,2.9499728.0623533.1913799.0995061.4068084.3422951.5852641,0-.1883919.0197284-.3250147-.0034561-.4539694-.0923779-.5154946.0512651-.9782122.388088-1.3462838,1.4389497-1.5724764,2.0683867-3.6294148,3.2361787-5.3656587.4995463-.7427673.680774-1.6157493.4981063-2.5639729.3004622.3118384.581628.6454933.9045547.9319512,2.0801229,1.844966,4.1915664,3.6541834,6.3322426,5.4282279.7172788.5944443,1.4959749,1.114727,2.4541706,1.2570739.4539694.0674654.8904424.0511931,1.3196432-.4235127-1.2153851.1276586-1.8125654-.6125886-2.3813771-1.3846606-.7131747-.968024-1.1566319-2.0719507-1.5633682-3.1910698-.3430871-.9438315-.7359272-1.8585383-1.3552119-2.6630109-1.1184711-1.45299-2.6314383-2.1989613-4.4031068-2.4998196-.7417593-.1260026-1.4881987-.2139164-2.2400382-.3728957.1496911,0,.2994542-.0024481.4491453.000396,1.8279017.0349567,3.5789778.5170067,5.3541744.8822702,2.5606608.5268349,4.4160671,2.1300199,6.1790234,3.8880802.629725.627997.822041,1.4934548,1.0527337,2.3226239.6569415,2.3618287,1.069222,4.754366.9003786,7.2192289-.1056262,1.5426678-.5020664,3.0256464-1.0803823,4.4428156ZM25.9010468,21.4613157c-.1558832-.1262546-.3348789-.2637054-.5386431-.1704995-.1904439.0871578-.2755497.289122-.2848379.4965222-.0401768.8920984.3653355,1.600269.9441555,2.231866.1085062.1184064.1975721.0999381.2470371-.0603732.1140504-.3695836.2309808-.7384112.2382529-1.1303513.0074162-.534215-.2193885-1.0539937-.6059645-1.3671642ZM25.8780063,23.4561888c-.3672796-.5553475-.7612717-1.1057628-.5173307-1.8596183.340927.2982302.5942283,1.1688001.5173307,1.8596183ZM6.6556979,20.0006215c-.0894258-.1966001-.2803018-.1841438-.4523853-.2101003-.0818657.0091082-.1646674.0120602-.244805.0281166-.8154888.1632994-1.8960151,1.650346-1.8013331,2.4756991.0108722.0943939.0169203.1966361.1256426.2286767.1200985.0354247.1995881-.0436329.2673415-.1281266.2949901-.3679636.6401652-.6862462.9929725-.9957445.3440951-.3019022.6955343-.5963883.9872844-.9508516.1019541-.1238426.2074363-.2671255.1252826-.4476692ZM6.274666,20.460063c-.6038045.579576-1.211137,1.1554798-1.8363979,1.7503201.0926659-.8329132.9332832-1.8296297,1.6608583-1.9967452.0904339-.0208084.194188-.0524891.2571893.0434889.0596892.0910099-.0288006.1522111-.0816497.2029362ZM21.7020642,27.9339251c-.2604294.0332647-.3697996.2606454-.4081764.4775498-.1270106.7181068.1315467,1.3413157.5534754,1.9015232.1190905.1581153.2774937.1619313.3722477-.0664214.1671874-.4030283.3150785-.8094767.3204786-1.1821564.000576-.3333309-.0362167-.5879281-.1768356-.8149128-.1513471-.244409-.386216-.3507192-.6611896-.3155825ZM21.7824898,29.7664349c-.2320608-.4588655-.4065924-.8668979-.2098123-1.3343315.0292326-.0694814.095186-.1564232.1587633-.1707875.0926659-.0209524.1296027.0898579.1501231.1625794.1228345.435321.1233385.8648818-.099074,1.3425397ZM14.9620772,25.7065592c-.3547513.2193165-.4906901.5536914-.485434,1.0582778.0195844.4145125.1745316.8902264.4184726,1.3405236.1020261.1883559.1887879.1794277.2795818-.0104042.1064902-.2224486.2296127-.437085.3307028-.6618016.1834598-.4079964.3628875-.8207449.3237187-1.2840745-.0393128-.4644096-.4743458-.6853821-.8670419-.4425211ZM15.4443431,26.5355483c-.0401768.4571014-.1789957.8878863-.4184006,1.3810605-.1717235-.5127586-.1890039-.9510316-.1174344-1.3963248.0036721-.0230405.0080642-.046657.0168483-.0680774.0673934-.1643794.146595-.3839839.3345189-.3559033.1998761.0298086.1995161.2678455.1844678.4392451ZM19.4868665,34.5802742c-.2652535-.0345247-.5410912.1797157-.6007084.5244228-.1014501.5871721.0324007,1.1401075.3281828,1.6532261.0659534.1144104.1638754.1977161.2568293.0235445.2545973-.4767938.4722577-.967772.5212187-1.456302.0102242-.4524933-.1740996-.7017985-.5055224-.7448914ZM19.2163569,36.0694809c-.1355788-.3694756-.1183704-.6566175.0391688-1.0059687.1707155.3625275.0943939.6473293-.0391688,1.0059687ZM27.6256983,35.3009011c-.3212706-.1499071-.5436832.0191524-.7178548.2620854-.2193885.3060783-.29067.6601096-.2756937.9851243-.001944.3296948-.0024481.6128766.1319787.871182.1043302.2005241.2390449.2690335.388952.0420129.3034863-.4598015.5943003-.9269471.7228949-1.4728624.0668894-.2836138.0567372-.5443312-.2502772-.6875422ZM27.3149399,35.8566805c-.0757456.3453911-.195196.6758419-.3727517,1.0764942-.1325547-.4642296-.0660254-.8324812.1277306-1.1842084.0385208-.0699854.0935299-.1661074.1823798-.1365148.1157064.0385208.0826577.1525711.0626413.244229ZM32.5233833,23.658801c-.3342309-.1973201-.6452773-.0639733-.6508214.3189666-.0105122.7325791.2972941,1.3641761.7217429,1.9422041.09785.1333107.1964201.1294587.29103-.0314646.1728036-.2939101.2255807-.6134527.2453091-.9060667-.0050401-.5960643-.2486211-1.1118829-.6072605-1.3236393ZM32.6131692,25.2869345c-.2458131-.4459052-.4748498-.7919803-.4626815-1.2327734.002376-.0857178-.0233285-.2101003.1004421-.2313768.0905779-.0155883.1404029.0760696.1735236.1504111.1718675.385568.2769897.7823321.1887159,1.3137391ZM30.8006758,29.4623007c-.2472531.0280806-.3553273.2386849-.4225047.4662816-.047449.1606353-.0650173.3216666-.0591852.487198.0034561.4209207.1210345.968816.2636694,1.2307574.1789237.3287588.3140705.339415.5270509.0452889.1740996-.240413.3112624-.5006983.386216-.7865082.09749-.3720317.1133303-.7473394-.0857538-1.0956826-.1316187-.2302247-.3455351-.3773598-.6094926-.3473352ZM30.809748,31.3986726c-.2829658-.5181587-.3244387-.9742881-.1915239-1.4464378.0257045-.0911179.0443529-.2282807.1898679-.2154284.1216105.0107282.1769076.1164624.2077243.2168325.147891.4814739-.0065521.919963-.2060682,1.4450338ZM17.9874356,46.2762674c-.3156545-.0144363-.6169807.341179-.6387972.7539635-.001224.0234005-.002376.046909-.001152.0702374.0240485.4691617.2061403.8844302.4435291,1.2789264.1018101.1691675.2036922.2098843.3220626-.001512.2323488-.4148006.3847039-.8506255.4044323-1.2171131.0065521-.5890441-.1856198-.8687699-.5300749-.8845022ZM17.8202481,47.8803525c-.1874919-.3723917-.2620134-.6630617-.1697795-.9813802.0227525-.0786256.0440649-.1850078.1298907-.1859078.1141224-.001224.1314747.1211785.145011.2083003.0453609.292542-.0251285.5747879-.1051222.9589878ZM12.9447396,39.2449624c.1892919-.5114625.3075903-.9490876.3486312-1.406873.0189364-.2115404.0226085-.4229367-.0227525-.629977-.0636493-.290598-.2371729-.4824099-.5426032-.5212547-.2821018-.0359287-.4223607.1671514-.5503073.3642915-.1279466.1970321-.1403309.4262128-.0865458.6459973.1388189.5671197.4703137,1.0290812.8535776,1.5478159ZM12.5103546,37.3732838c.0087122-.1199905.0094322-.2934781.1691315-.3090664.1620753-.0158403.2491971.1305747.2851259.2696816.1082902.4193366.0545771.8343172-.0570972,1.3006708-.2737496-.4149446-.4299209-.8104487-.3971602-1.261286ZM11.0604607,21.281816c-.6361331.4557334-.8395373,1.4111931-.4298489,2.1741208.4539694-.483994.9172269-.9458115,1.2184091-1.5367997.1078582-.2113964.2067163-.4599455-.0151203-.6462853-.241133-.2026842-.5094105-.1801837-.7734399.0089642ZM11.5325025,21.7808222c-.1585473.3978082-.4543294.6935903-.7503275,1.0795903-.097922-.4813299.1675475-1.1310713.4790979-1.3169072.0770416-.0459729.1537232-.0626053.2296127-.0113762.097274.0657014.0793456.1539392.0416169.2486931ZM21.8081944,41.894437c-.2538052-.0416169-.4279768.0866898-.5451232.3022622-.0927379.1706435-.1019541.3599714-.1175064.5397231.0267126.3992482.0896418.7807481.3005342,1.1209911.0689774.1112783.1851878.2635974.2941261.1009821.3289748-.4913021.6187088-1.0105768.5268349-1.6386818-.0366488-.2510332-.2184525-.38582-.4588655-.4252768ZM21.5858538,43.3881078c-.2296127-.3662356-.1821638-.6825021-.0899299-.9991646.0174244-.0597972.0385208-.1498351.1318347-.1296747.0829457.0179644.0892818.1029621.0934579.1701395.0190804.3065103-.047737.6018604-.1353628.9586998ZM6.7664362,34.8779643c-.1808677.1495471-.2783577.3446711-.2973661.5775239-.0563772.6906022.2530132,1.2193451.7406793,1.6692464.1758996.1622913.2673415.0592212.3327189-.1067062.1479631-.3751997.2021802-.7685078.2172285-1.1234752-.002376-.3295148-.0309606-.6102846-.1702115-.8630818-.1897239-.3443831-.5215788-.4027763-.823049-.1535072ZM7.3346719,36.8652773c-.4096884-.4619615-.5637716-1.2559939-.3229267-1.6863108.0429849-.0767896.0723615-.1859798.19426-.1707515.1006581.0126003.1588353.0822977.2062123.1707155.1978601.3693676.1577553,1.2982948-.0775456,1.6863468ZM9.5554857,29.0732046c-.2076523-.0897859-.341503.0375128-.4711777.1481071-.2810218.2396209-.3592874.5685237-.3627435.922267-.002088.2986622.0558012.5863081.1870599.8544056.0875538.1788157.1791397.4416931.3613035.4437812.1645954.001908.1837478-.2884379.2679895-.4488573.0543611-.1035381.09461-.2153204.1331307-.3262027.1275866-.3671716.2595654-.7342351.2155004-1.1340594-.0237605-.2148164-.1232665-.3696556-.3310628-.4594415ZM9.2008064,31.0672498c-.2473251-.5452312-.2299007-.9946645-.0455049-1.4467978.0398888-.097634.0831617-.2068243.2226286-.1743876.1262906.0293406.1506271.1326627.1537952.244697.0128883.4575694-.1715075.8663939-.3309188,1.3764884ZM13.1026388,44.36596c-.1254266-.1985801-.3016862-.3508272-.5574355-.2485491-.2591333.1036101-.4813299.2572613-.4775858.6045605.0063361.0391328.0045361.1016301.0268566.1538672.2657575.6217328.7617757,1.0031607,1.3635641,1.2522138.2297567.095114.2532292-.0910099.2224846-.2595294-.09785-.5366631-.2863499-1.0412495-.5778839-1.502563ZM12.5511795,44.6637581c-.0133203-.0999741-.0399608-.2303327.0720735-.2840459.1201705-.0576012.2308368.0166323.3088144.1101623.3199746.3839119.437481.8419494.5148826,1.4188253-.4931382-.3691156-.825209-.7163428-.8957705-1.2449417ZM3.5229133,26.8499788c-.1775557-.0887058-.3433031-.1202425-.5089065.0562692-.3157985.3365709-.4522413.7341991-.4641216,1.2166091.0304566.3076623.0434889.6512534.2122604.9598518.0509771.0931339.1177224.2001641.2304048.1986881.1388189-.001764.1311867-.1511671.1594833-.241169.1832438-.582132.2538052-1.1949366.4769378-1.7667004.0651613-.1669714.0874098-.3268867-.1060582-.4235487ZM3.4269353,27.2748235c-.1488271.4433851-.3341589.875106-.4286248,1.3452757-.2195325-.5375631-.0909379-1.0340133.1718675-1.5123912.0406808-.0740895.0928819-.1373068.196276-.0796696.1123943.0626773.0897139.1598073.0604812.2467851Z"/>
  </g>
</svg>