<?xml version="1.0" encoding="UTF-8"?>
<svg id="Layer_2" xmlns="http://www.w3.org/2000/svg" viewBox="0 0 299.5579855 310.1892241">
  <g id="Layer_1-2" data-name="Layer_1">
    <path d="M76.4159001,138.1998175c-.013437.0030839-.0224684.0077098-.0359054.0110139-.0019825-.017402-.0103531-.0295174-.0125559-.0466991.0365663-.0292971.0764367-.0511047.113003-.0801815-.0198251.0409719-.0453774.0740137-.0645417.1158666ZM83.714617,134.8255873c-2.8446801.55312-5.1628939,1.6271993-7.2341751,3.2583636,1.0416983-2.1404488,3.1059307-2.9640712,5.1214814-3.735928,6.0294705-2.3094026,12.3230553-3.458597,18.7404368-3.946955,2.5140416-.191202,5.0393175-.2268871,7.5576545-.3656628.5454102-.0299579,1.4418347.3123553,1.1866417-.8908074-.1725884-.8132692.1110205-1.5031823.9974223-1.5979022.866026-.0920765,1.7019839.3418727,1.6924018,1.257131-.0111241,1.0650479.6468486.7070949,1.1227609.7518114.5739363.053748.9550186-.0817234.8339754-.8419055-.1462651-.9185625-.0143181-1.9276595,1.2059161-1.7734644,1.2329003.1557371,1.6112291,1.2743127,1.3613228,2.3138082-.5144611,2.1408894.615569,3.198668,2.4507115,4.1716394-.0512148-1.2082291-.8390418-1.9481455-1.1081124-2.8673688-.1711566-.5850604-.7698743-1.2370856-.1147652-1.7820553.685067-.5696409,1.1606488.1119016,1.6447114.5154523.2149921.1790866.4471659.3376874.6639202.5000328.5933209-.5469522-.0390995-1.5133152.8962042-1.9600405,1.0714359,1.356697,1.2316888,2.9420433.6780181,4.4231977-.7706453,2.0618093-.0480208,3.1041685,1.9374619,3.6658793-.55312-2.1347216.026874-4.4022713-.8615103-6.5061538-.207833-.4921028-.0919664-1.0859743.5454102-1.1932501.7138134-.1202722,1.2507429.227548,1.47763.9619574.5388019,1.7430659.4278915,3.5665336.6775775,5.3444036.0643214.4586204-.2916491,1.2862077.6128155,1.2485401.7025791-.0292971.7629355-.6733922.8503862-1.2815819.3072889-2.1384663.1384452-4.2161357-.7182189-6.201288-.1506707-.3491419-.5704119-.644756-.9345327-.8295699-4.2683418-2.168204-5.6058745-5.9545758-5.7159037-10.3848224-.0721413-2.9067987.5401235-5.726367,1.3408369-8.5045228.1793069-.6220673.3807519-1.2771763,1.1076718-1.4884237,4.7532855-1.3811479,9.5221006-1.6796256,14.3017094.0460383-2.4724089-.1497896-4.9434962-.3740334-7.4178876-.421173-1.5024114-.028416-3.0134136.1881181-4.5138425.3555299-.5552126.0621186-1.2959.2171949-1.3222233.8736256-.0287464.7196507.7547852.7311052,1.2837847.8480733,3.7653352.8317726,7.479015.1704958,11.1296951-.6388084,1.6128812-.3577327,2.2082947.0048461,2.5080941,1.5225669.8076521,4.0866118,1.0396057,8.1516362-.3149986,12.1659966-.8963143,2.656562-2.5590886,4.6016235-5.2762273,5.6146856-2.9472198,1.0989708-3.2431644,2.1007986-1.5470178,4.7340111.3804214.5905674.7140336,1.2525051,1.4366581,1.5926155.5012443-.4617043.0523162-.8993982-.0052867-1.332246-.0986849-.7414583-.6114939-1.7714819.4688634-1.9930823.9596445-.1969292,1.2852165.7544548,1.2728809,1.6069336-.0150891,1.0436808.5284488,1.7250031,1.4662856,2.2631441-.2689604-.9293561-.5813157-1.8492403-.7939948-2.7911523-.1910918-.8458705-.0880014-1.6851326,1.0046915-1.7468107,1.0053523-.0568319,1.0461039.7185494,1.0630654,1.4983362.0301782,1.3842318,1.5920648,4.1604052,2.8990889,5.2479215,1.0071145-2.3380389-1.9140022-4.0324232-1.0305742-6.3253049,1.0078855-.4337289.8866221.9328806,1.7830465,1.0179082.957662-18.2769703,3.9455232-36.3737525,4.278034-54.9104314-1.1951225.2722646-1.2399492,1.5152977-2.2734972,1.5910736-.3941889-1.314844.2914288-2.3816541.9922457-3.2977935,1.002709-1.3106587.8253846-2.6814535.1616846-3.8493715-.6947592-1.2225472-2.0619194-.6293365-3.1712433-.4689735-1.2483198.1804083-2.3406822.6967418-3.1767503,1.6752201-1.4172736,1.6586992-1.2566904,2.3054376.7389251,3.135448,1.6762113.6971823,2.3127068,2.0439667,2.3292277,3.7828473.0634403,6.6517581-7.7127308,11.4663912-13.5551846,8.2796182-.9039139-.4929839-1.3038301.4511309-2.0589457.0859087-1.4722332-.711941-2.3841873-1.8587123-2.9216675-3.3116711-.9973121-2.6957716-1.209-5.5069693-.643985-8.3027475.3068483-1.5190424-.1752318-2.082075-1.5905229-2.2627035-1.2211154-.1557371-2.3746052-.5729451-3.4259957-1.2410506-.5816461-.3696278-1.0356406-.8416852-.9492914-1.5690457.0917461-.7738393.7422293-.9875097,1.3868751-1.1562433.069498-.0182831.1510011-.0105734.2106966-.0440558,1.1233116-.6291162,2.8694614.3577327,3.5241299-.8954332.5188666-.993237.2374605-2.3988358.3333919-3.6196208.4918825-6.2517318,1.4016338-12.4516981,2.3029044-18.6534267.9001692-6.1937985,1.3568071-12.4364989,1.9840509-18.6620175.2166442,9.17395-.5727248,18.2796136-1.6644264,27.3713996-.515232,4.2903696-.8404737,8.6032077-1.306914,12.9001857-.1070555.9864083.0941692,1.5186019,1.1706715,1.5553884,4.9691587.1691741,4.228251,1.4011933,4.0092939-3.6022188-.5589574-12.7675779.2415357-25.5074007.652686-38.2560346.0416327-1.290393.0056171-2.5832092.4404474-3.8764658,0,3.0495393-.0067185,6.0990786.0011014,9.1481774.0290768,11.2445705.0683966,22.4891409.0891028,33.7334911.0033042,1.7664155-.032381,3.4504467,2.2839604,3.9324166.5984974.1242372,1.4481126.6147981,1.3349995,1.476088-.1085974.8267062-.9680151,1.0489675-1.637222,1.2249702-1.0394955.2738065-2.1363737.5899066-3.1830283.516774-1.7577145-.122475-2.2372613.7493884-2.3475109,2.2475043-.0790801,1.0734185-.3700683,2.131858-.4443023,3.2052764-.1979205,2.8631835.6317595,5.3122429,3.2572622,6.7894323,2.3068694,1.2978825,6.1961114.7423395,8.3266477-1.1348762,1.9408763-1.7098038,2.9555904-3.9147943,2.8558041-6.5048321-.0837059-2.174592-1.1776103-2.7166981-3.0793871-1.7419645-1.5278536.7828708-1.3600011-.4995923-1.3510798-1.2696868.0343635-2.9636306,2.5235136-5.684514,5.6518026-6.2396165.7066543-.1253386,1.4722332-.3061875,2.145295-.1599224,1.96753.4271205,2.2042195-.4099388,2.1090591-2.1503614-.1233561-2.2574169-.5285589-3.94299-3.2926169-3.7531097-.2774411.0191643-.5810954-.0572725-.8437778-.1616846-.9652616-.3843865-2.4325385-.4533337-2.3135879-1.8349222.1133334-1.3155048,1.5474584-1.4432665,2.5547932-1.4652944,1.7577145-.0383285,2.2613819-.702469,2.254333-2.4677831-.0387691-9.7356609.7292329-19.4411436,1.315615-29.1519129.0644315-1.0670304.3252416-2.1221657.26863-3.1759793,0,10.8090793-.0052867,21.6185992.0048461,32.4276786.0017622,1.9261176,2.3076404,3.1790632,3.9548851,2.1109315.9208754-.5971758.3962815-1.6091364.3134567-2.3937694-.8025857-7.6035826-1.263519-15.2239065-1.2813616-22.8697826-.0110139-4.7500914-.0019825-9.5001829-.0019825-14.250054.2934113-.0024231.5868226-.0050664.880234-.0077098,0,3.7672076-.1658699,7.5434465.0330418,11.300301.4763528,8.993762,1.1484234,17.9769506,1.6740085,26.9685098.0691675,1.184439.6555496,1.3734381,1.5975718,1.5505423.9745133.1832719,2.2443103.4599421,2.234618,1.6470244-.0095821,1.1782712-1.3293824,1.3318055-2.2522403,1.6710348-1.2501922.4595015-3.2240001-.2372402-3.7527793.9478596-.8294597,1.8587123-.4678721,4.0641433-.3200651,6.1836657,2.9635205-1.7274261,4.8547239-1.1833376,6.4082399,1.6331468.9706584,1.7600274.6926666,3.1660668-.915038,4.2976388-.4671011.3286559-.8710924,1.2967811-1.5668429.6595146-.6328609-.5797737.0389893-1.2106521.4514613-1.6615628.7822099-.8549019,1.3702441-1.7353562.7058833-2.888075-.5884747-1.0212124-1.3287216-2.1045434-2.6932384-1.653853-1.4529588.4802077-2.398946,1.5410703-2.3448675,3.2358952.1632266,5.1148731.1269907,10.2442846.5067513,15.342857.9961006,13.3678375,1.8478085,26.7420632,2.4247186,40.1343517.0061678.1440623-.0051766.2898869.0145384.4319667.0867898.6236092-.1296341,1.3289418.4320768,1.8201635.0773178.0678459.4056434-.0275348.5177653-.1436218.6412315-.6648013-.2127893-1.1621908-.2147718-1.6573775-.0049563-1.2628582.6785688-2.5094158.1148754-3.8238192-.0244509-.0570522.3836155-.3936382.6253714-.4506904.4948563-.1165275.848624.199132,1.0037002.6253714.6541178,1.7985762,1.2163794,2.2948642,1.9310739.0048461.2033173-.6515846.5367092-1.7413037,1.3974485-.1000066.525475,1.0018279,1.4443679-.0330418,1.7930692-.7718568.4262394-.903143.6184327-1.9155442,1.0279309-2.8283794.3822938-.8520383,1.1334444-1.2736519,2.0896746-1.2782777.4565278-.0024231.9495116.0616781,1.0170271.5806548.1128929.8678984-.5190869,1.4404029-.9834346,2.0792113-.543648.7476262-1.6279703.9132758-2.1288842,2.1155573,1.9507888.1731391,3.2944893-.6524657,4.2473051-1.9842712.8958738-1.2520645,1.3803769-2.8429178,3.2465787-3.1777416.4805381,1.0657087-.5983873,1.5282941-.7694337,2.4591922,1.7116762-.597396,3.1352278-1.913782,5.1775424-1.6106784-.693768,1.3161657-2.0879123,1.4124275-2.9101029,2.2437596-1.8334904.4661099-3.5822835,1.10624-5.0059452,2.4146959,2.1624767-.2090446,3.9400163.0663039,4.09311,2.8971064.0343635.6350637.8365086.403771,1.2273933.1863558.2511178-.139877.3559705-.5784521.4823004-.9000591.5058702-1.2886308,1.8453854-1.7287478,2.7920334-1.5816016,1.7385502.2698415.2461615,1.0806877-.0242307,1.6434999-.1386655.2883449-.6820932.2641142-.629006.8590872,8.028941-.1693944,16.0556791-.6650216,24.0919994-.0381082-9.1211932,1.4666161-18.6286453.2339361-27.3318596,4.2165762,1.2019511,1.1392818,2.9582338.8211993,4.4911537,1.2344422,1.1139497.3004602,2.3588552.5656759.8693302,2.0155508-.2372402.2308522-.6453067.6185428-.2839393.8839787.5297704.3892326,1.7656445.313677.6346231,1.4148506.8906972.2048593,1.7773193.4295436,2.6735235.6066477.5950831.1176289,1.0222036-.1541951,1.0502892-.7718568.1486882-3.2636503,2.564155-4.0165631,5.0965899-4.6181445,4.2615131-1.012181,8.5593722-1.0033698,12.8763956-.4099388,1.5747729.2163138,2.8614212.8886046,3.8393489,2.1657809.2959445.3868095.6768065.9097513,1.0807978.9727511,1.0537035.164328,2.3111649.4595015,3.1699217.0449369.91658-.4423198-.3093815-1.4207981-.2427472-2.2373715.0576029-.7059935-.1139943-1.4307106-.1843733-2.1474977l-.0504438.0674053c.1410886-.4784455.3522258-.9480798.4113706-1.4364379.2929708-2.4215245.9966513-4.2936738,3.4928503-5.6239373,3.5867992-1.9111386,4.8554948-5.5338433,5.1123399-9.4667005.1800779-2.7587713-.4297639-5.4461724-.835187-8.1516362-.1538647-1.0269396-.7096281-1.0557962-1.5295057-.8101853-3.8883609,1.1650544-7.7905993,1.3130818-11.7047328.101108-.5704119-.1766636-1.1759582-.2980372-1.3640763.5293299-.877921,3.8628085-1.9407661,7.7234143-1.1127382,11.7313865.6492717,3.1422767,2.0451783,5.8296777,5.3135645,7.2764687-1.8239082.3616977-2.9652827-.0555103-4.2796861-1.6331468-2.9744243-3.5698378-3.2342431-7.7502883-2.4728495-12.0717173.4235961-2.4045631,1.0876264-4.7677137,1.6701536-7.1432.2928606-1.1941312,1.2433635-1.772363,2.3092925-2.0538793,3.6843827-.9731916,7.4090765-1.0579989,11.10987-.1277617,1.5578115.3916557,2.3368274,1.2873091,2.6345341,3.146462.4150052,2.5924609,1.5877694,5.0573803,1.7333737,7.7599806.3489216,6.4726714-1.7648735,9.9425026-7.6994039,12.5124951-.325572.1409784-.7012575.2500164-.9423526.4870364-.6703083.6590741-1.1827869,6.957505-.7130424,7.855141.4461747.8522586,1.2641799.4722777,1.9186281.6366057,1.2527254.3145581,3.4011042.0696081,3.259465,1.6271993-.1462651,1.6073742-2.2280096,1.0355305-3.5196142,1.0209921-1.2169301-.0136573-2.4284633-.3004602-3.6477063-.4057535-.4341695-.0374474-1.1533796-.3374671-1.2022815.4189702-.0408617.6333015.6421126.6771369,1.1292591.7240563,3.1554934.3046455,6.3098854.6302176,9.4704452.8723039,4.885673.3742536,9.7695838.7399164,14.5888428,1.6838109.6366057.1246778,1.2733214.2094851,1.9028782-.1006674,4.1960903-2.0675366,8.6941828-2.4072064,13.2711352-2.3312102.7502695.0125559,2.0616992.3685264,1.1769495-1.2353234-2.2673294-4.1101816-1.8077177-8.4939494-1.3144034-12.8838851.2573957-2.2900181.5955237-4.5762915.7251577-6.8737991.0737934-1.3086762.8778109-1.9025478,1.7797423-2.4948774,1.9828394-1.3016273,4.2623942-1.7752266,6.5475662-2.0270053,4.4504022-.4901203,8.8820806-.4848336,13.1258613,1.5990036-6.4595648-.4044318-12.9473254-1.2414912-19.4905961,1.8957191,5.4415465,1.9402154,10.5233778,1.332246,16.1253973.4011276-2.80514,2.3453081-7.9759639,2.5426779-16.7305031,1.0198907-.3179724,5.1635547-1.5454759,10.2691761-.4608232,15.4611467,1.0600916,5.0743418,4.6607684,7.9322386,8.9879246,10.1046278.8951028.4493687,1.830076.1436218,2.7231963-.2035376,3.7227112-1.4476721,6.0868532-4.2866249,7.7514998-7.7527114,2.0681974-4.30645,2.9208965-8.8666611,2.4742813-13.6484727-.1465955-1.5694862-.3719407-3.1391928-.1480273-4.8399652,1.0403766.4015682,1.1024953,1.2857672,1.2409405,2.0946308,1.7882231,10.4495844-1.1118571,20.8965254-10.4588361,26.030783-.6860582.376897-.8596379.7896994-.8058899,1.5344619.3219374,4.4546976.6399098,8.9107169.8522586,13.371362.0631099,1.3278404.490671,1.9084953,1.8543067,2.0190752,1.8621266.1511112,3.7380206.4330681,5.3767845,1.4423854,1.9670894,1.2110927,1.9597101,2.8737569-.0705993,3.939025-1.1875229.6229484-2.4976309,1.0124012-3.8938678,1.5630982,1.7514365,1.5357836,3.8654519,2.251249,5.8600762,3.1632032,2.9440258,1.3454627,6.0225318,2.4067659,8.8011282,4.0993879,1.2826833.7811085,3.1344568,1.8388872,2.2272387,3.3548457-.7098483,1.1859809-2.5203196-.0167412-3.6332781-.6978431-4.4215456-2.7050233-8.8545458-5.4038788-13.1329102-8.3247753-1.5883201-1.0846527-3.0571389-1.5820421-4.953629-1.4344554-2.7251788.2123487-5.4792142.2846002-8.1647428-.4515715-.9014909-.2471528-2.0384598-.4744805-2.1765745-1.504504-.1198317-.8943318.8180052-1.4780706,1.5580318-1.9186281,2.8554737-1.699671,5.8233998-3.0570288,9.3601957-2.8085543-.2430776-3.3350206-.493865-6.775775-.7550055-10.3603715-6.9602585,1.9025478-13.7571803,1.460228-20.518527-.2542017-1.1784914-.2989183-2.339691-.7229549-3.4514379-1.2179213-4.4963303-2.0027746-5.3370242-3.9976192-3.5485809-8.6781025-2.9542687-.2923099-5.8426741-.6308784-8.7398907-.8524788-4.6700201-.3572922-9.3487412-.601361-14.0174396-.9725308-1.329052-.1055135-1.7350257.0993457-1.496574,1.5915141.6561003,4.1075383.4655592,8.1954717-1.0894988,12.1228219-1.50924,3.8112633-4.0554423,6.6475728-8.0390738,7.8908262-1.3862143.432187-1.8799692,1.1278273-2.0731537,2.5204297-.9075485,6.5440418-1.1630719,13.0506361.493865,19.5263914.2013348.7868358.5557633,1.6622236-.4372534,2.6191146-.2853711-1.8767751-.5801041-3.5561805-.7904704-5.2461592-.7130424-5.7276886-.7405772-11.4967897-.951384-17.2531145-.0376677-1.0278207-.1221446-1.565301-1.3042706-1.6987899-5.0707072-.5736059-8.1678267-3.559705-9.7859946-8.25737-.3044253-.8837584-.7394758-1.7642127-.8278076-2.673964-.5132495-5.2838269-5.0946074-6.7755547-8.5105805-9.4083266.2612506,1.5979022,1.5991137,2.8609807,1.1066805,4.9613388-2.4111714-2.5585379-2.2855024-6.6744468-6.066147-7.8443473.327885,1.8882296,1.9240249,3.3127724,1.6015368,5.5508048-3.0008577-1.5113327-1.3373124-6.4612169-5.5313101-6.8967081.6678852,1.5038432,1.3214524,2.9019525,1.9072837,4.3280373.2573957.6264728.7378237,1.5868883-.0748948,1.8721493-.8216398.2883449-1.0348697-.8227412-1.2822427-1.4267456-.5440886-1.3289418-.9275939-2.7226456-1.4311512-4.06943-.3992553-1.068352-1.0640566-1.8591528-2.4986221-1.7745658.0038549,1.4851195,1.3938139,2.8464423.4950765,4.6232109-1.1542608-.9621777-1.1791523-2.2067527-1.4615497-3.3407479-.1874572-.7526926-.2624622-1.6401957-1.3802668-1.6111189-.4969489.0127762-1.0781544-.1383351-1.4334641.2788729-.4224947.4958475.0306187.9256114.2906578,1.3441411.2659866.4282219.5589574.8445488.779897,1.2956797.8833179,1.8034223.5955237,2.3620493-1.479172,2.940281.0005507.0008811.0013217.0017622.0018724.0028636.8247237,2.811418,1.6623338,5.6089584-1.6323758,7.5542402-.6488311.3830648-.2682995,1.0432403-.0973632,1.5699268.7097382,2.1860465,1.9698429,3.7462811,4.3695599,4.3112961,2.3023537.5423263,4.6495342,1.0278207,6.7515444,2.201466,1.2078986.674053,2.5235136,1.4296092,2.4881589,2.9905046-.0324911,1.435777-1.2552586,2.193536-2.4050036,2.8358689-3.3766533,1.8860268-7.147936,2.1829626-10.8685546,2.438486-5.4066323.3718306-10.8052245-.0352446-16.1714356-.7872763-1.4353365-.2013348-2.8152728-.6260323-4.1064369-1.2877497-2.3174428-1.1877431-2.4304458-2.6627298-.3180825-4.2240657,1.1708918-.8661361,2.5383824-1.3441411,3.8929867-1.8358033,1.6906396-.6136967,3.4059504-1.1714425,4.9525276-2.1190818,1.5325896-.9392687,2.6640515-2.1908927,3.0430411-4.0073114.1734695-.8308915.1373438-1.6124406-.755446-2.0265647-1.3329068-.6185428-1.6561659-1.6895382-1.2708984-3.1971261-1.4192561.0718109-1.9038694,1.1436874-2.6555707,1.799237-1.1461104.9996251-1.1892851.9974223-1.8760042-.3819634-.0512148-.1026499-.0777584-.2467122-.1613542-.30024-1.6755505-1.0707751-1.762891-1.1835578-.0082605-2.496199,1.2956797-.9692266.9455466-1.4848992-.1467057-2.1122531-.9878402-.5674381-1.763662-1.5340214-2.9682564-1.6890976-3.2688268-.4216136-3.771503.0180629-3.9748203,3.4099154-.0433949.7247172-.067185,1.4463504-.6632594,2.1556481-.8843091-1.2379667-.02368-2.5144822-.1926338-3.7077323-.0959314-.6782383.1530937-1.6811676-.8649246-1.6631047-1.1922589.021367-.9570011,1.087296-.8221905,1.8208243.2462717,1.3412774.6685461,2.6499536.9242897,3.9896891.1034209.5418858.0723616,1.2412709-.6651318,1.3926024-.7026893.1445029-.9908139-.409278-1.2308076-.9654819-.7423395-1.7203772-.1830517-3.5682958-.5069716-5.3675328-1.4087929-.0220279-2.1614854.6275742-2.2805461,2.0113655-.0183933.2138907-.0634403.4302044-.1297442.6346231-.3286559,1.0132824-.1124523,2.8794841-1.4476721,2.6217579-1.0809079-.2083837-.0666343-1.845055-.0461484-2.8486451-2.4403584.3815228-2.4214144.3824039-2.497741,2.614709-.0392096,1.1502957-.1549661,2.2979481-.2446196,3.4462614-.3774477,4.8318149-2.9380783,8.0161648-7.4323159,9.6435844-1.2530558.4537743-1.7790815,1.1093239-1.8598137,2.4781362-.1482476,2.5124997-.5346166,5.0117826-.8349667,7.5150306-.6234991,5.1963762-.535718,10.3469345.8973056,15.4261224.1483578.5255851.1071656,1.1044778.194396,2.1393474-1.4977855-1.8225866-1.4683783-3.7442986-2.2643556-5.6461855-.2735862,1.2036032-.490671,2.1582914-.7573184,3.3314961-.8506065-.7533534-.6545584-1.5745527-.637707-2.2635847.173029-7.0912142-.7200913-14.087268-1.7854696-21.0723079-.1171883-.7670107-.2808554-1.313302-1.0925827-1.6529719-8.0555947-3.372468-8.9243742-9.5235324-7.810865-16.9493501.4694141-3.1299411,1.4844586-6.164942,1.6247762-9.35568.0733528-1.6659684,1.4214589-2.1272321,2.6587648-2.4182204,4.1119438-.9672441,8.2781864-1.0137229,12.4527995-.4002465.7115004.1048527,1.4156215.2601492,2.1277828.3586138.325572.0449369.8402534.3039847.9311184-.1198317.0665242-.3092714-.316871-.7154655-.5057601-1.0903799.5859415-.3995857,1.1618604.4330681,1.9121299.0004406-.0739035-.2187368-.1430711-.4729385-.2442892-.7137032-.3621383-.8615103-1.3368719-1.0630654-1.7764382-.6522454-1.1735352,1.096768-2.0683075.5412249-3.242063.0641011-1.4431564-.5863821-2.9857686.1220344-4.4799195.2475933-5.8208665.4881378-11.5741075,1.4141897-17.193419,3.0598924-1.3963471.4090577-2.7111911,1.0033698-3.7892354,2.0007921-1.8811807,1.7402023-1.6093567,3.7385713.7037907,4.8190387,1.0346494.4832916,2.1655606.7707554,3.267395,1.0980897,1.0815688.321607,2.181641.581536,3.5412015.9388281-2.8678093,1.1139497-8.3597997-.830451-9.4896095-3.1484445-.9872895-2.0259039.5788926-3.1916191,1.8001181-4.7701368ZM252.8763781,164.7372417c-.4666606-.4427603-.9323299-.520739-1.5647503-.3568516-2.3107243.5991583-4.4917044,1.4943712-6.5596815,2.6777087-.3738131.214111-.8830976.4141241-.7991714.8991779.109809.6335217.7365021.5727248,1.2273933.6101722,2.0059686.1524329,4.0127082.2951736,6.0191174.4409981.0018724-.0506641.0037447-.1008877.0056171-.1515518.8623914,0,1.7327128.0748948,2.5857424-.0145384,2.2806563-.2401039,4.6088927-.3233692,6.7273137-1.3335677,1.4509763-.6921159,1.5560492-1.7450484.0932881-2.2102772-2.0097134-.6388084-4.0818758-2.4486188-6.3407244-.3995857-.3641208.3304182-.9888314.2233627-1.3941443-.1616846ZM225.6907836,145.8366623c-.1036412,2.3241613,1.7093633,3.3312759,3.5478099,4.1007096,1.1850998.4958475,2.4183305.9560099,3.6750209,1.1881837,4.4507326.8223007,8.9205193,1.5437136,13.4747829,1.4307106,1.2935871,0,2.5872843-.0101328,3.8807613.0022028q2.7409288.0262132,2.515914-2.6446669c-.0364561-.429103-.1647685-.8568844-.1516619-1.282463.0481309-1.5507626-.5210694-2.4320979-2.1582914-2.8761799-1.7869014-.4848336-3.829987-1.1637328-4.8268586-2.6766074-2.072603-3.1455809-4.8921712-2.9495328-7.944464-2.5574365-2.7805789.3568516-5.585719.6436546-8.2076972,1.6816081-1.7159716.6793397-3.7047585,1.3782843-3.8053158,3.6339389ZM209.0056579,105.63072c-4.0194267-1.6811676-8.0364304-1.4282876-12.0431912.1220344,4.034626.9679049,8.0613219,1.7703805,12.0431912-.1220344ZM178.9945476,136.0719246c2.0506852,1.5426122,4.3746263,1.9032086,6.7036337,2.1107112,4.1078687.365883,8.1238811.1030905,11.6868902-2.334955-.0009913-.001542-.0018724-.0030839-.0028636-.0046259-6.1920363-2.9753054-12.2781185-1.3956863-18.3876603.2288696ZM180.6836452,158.1923189c2.6752857,4.0531294,7.5633818,5.2003412,11.8082638,3.0028402,2.2991597-1.1899459,4.2797963-2.8583373,5.299687-5.2139985,2.9132969-6.729957,3.9600616-13.5083754-.4053129-20.131277-.6446458,1.9613622-2.2570864,2.7305757-4.0617203,3.127518-4.4593235.9813419-8.843642.8584264-13.1043841-1.0198907-.6007002-.2649954-1.5634286-1.2480995-1.9781034.3194042-1.8428522,6.9656553-1.6481258,13.7200633,2.4415699,19.9154038ZM162.7763028,134.3057294c-1.3738787-.6747139-1.9732572,1.5472381-3.2712499.8793529-1.5375458-.7916819-2.5585379.0667445-3.7289892,1.1300301,2.8289301,1.2683652,4.3030357.8306712,7.0002391-2.009383ZM164.826988,136.9724242c-1.7020941-.6326406-3.1127593-.6696475-4.4170299.4546554,1.6235647,1.6675103,2.9748648,1.1762886,4.4170299-.4546554ZM173.1646496,144.79188c1.0901596.4564176,1.4487735,1.6525313,2.4166784,1.2333408.5173247-.2240235.4016783-1.1478727.0641011-1.5659618-.692226-.8571047-1.3553753-.0713703-2.4807795.3326209ZM167.4849818,141.0378892c.6552192.8489544,1.7185048,1.7860203,2.1134647,1.2212255,1.0328872-1.4771894,2.6145989-1.5300563,4.1481797-2.1349419-2.3910159-.8934507-3.9787853,1.8578312-6.2616444.9137163ZM170.0272191,138.9320242c-1.4399623-.960856-2.7947869-1.4703608-4.2415779-1.1256245-.6144676.1462651-1.7709312.4771238-1.427076,1.4375393.2157631.6026827,1.052492,1.1190162,1.9948446.7872763,1.0756212-.3784389,2.185606-.6595146,3.6738094-1.0991911ZM163.0829308,135.4317945c1.5963603.8648145,2.8846607-.11851,4.2267091-.1266603-1.3877563-.8200979-2.7272715-.7637065-4.2267091.1266603ZM162.5941322,131.875614c2.3858394,1.9910998,3.767538-.4066346,5.4977176-.8731851-1.8513329-.2048593-3.5963814.1797475-5.4977176.8731851ZM160.3705282,129.1373286c1.1651646-.8991779,2.0358164-1.6694928,2.0428653-3.0462351-1.4158418.3550894-2.4743914.9793594-2.0428653,3.0462351ZM155.7733102,133.190458c.0264335.4868161.8531397.920545,1.1273868.667665,1.3723367-1.2661624,3.1357785-.2872435,4.5879663-1.2533862-1.568495-.1072758-3.1367697-.2198382-4.7057053-.3189637-.6347333-.040311-1.0311249.5110468-1.0096478.9046849ZM153.2665378,130.7825907c1.7566131-.4114807,2.4628268-1.5227871,2.2427683-3.3429506-1.6761012.5722842-.9572214,2.6120657-2.2427683,3.3429506ZM151.3690564,143.1492612c.9099716-1.6564964.0211468-3.0268506-.6652419-4.6516268-1.4761982,1.9785439-.1436218,3.2726817.6652419,4.6516268ZM129.8588344,71.657125c-4.1225172-1.1776103-8.2808297-1.8309572-12.6353005-.7304444,4.0657954,1.9129009,8.3333662,1.5987833,12.6353005.7304444ZM142.6298266,149.7177539c1.1482031-3.3486779.9975324-3.9522417-1.4348959-5.2869108,1.1190162,1.7981356,1.3945849,3.5136667,1.4348959,5.2869108ZM148.5956366,153.4539022c-.6979533-2.5567757-2.7318973-.9619574-4.1419017-1.3029489-1.1665964-.2819568-1.6165158.3420929-1.9589391,1.3855535-1.0735286,3.2706992-3.449125,5.2007818-6.6797335,6.1841062-1.5777467.4802077-3.2378777.7414583-4.681805,1.5882099-.7144742.4189702-1.772363.7529128-1.6172867,1.7895447.1566182,1.0467647,1.2536065,1.0868555,2.0767883,1.2132955,4.5536028.7004865,9.1211932,1.2758546,13.7436331,1.1080022,1.5112225,0,3.0282824.0850276,4.5325661-.0176223,3.0858853-.2101459,6.1779384-.4652288,9.1137038-1.5547276,1.0680216-.3965018,2.462166-.7899197,2.4083078-2.1164384-.0460383-1.1361979-1.2863179-1.6318251-2.3490528-1.9551944-1.4426057-.4383548-2.8790435-.915038-4.346761-1.2498618-2.9110941-.6639202-5.2470403-1.9490266-6.0995192-5.0719187ZM151.3838151,61.1044502c-3.9732783-1.1018344-7.9531651-1.0969883-11.9385587-.1253386,3.9708553,1.5269724,7.9526144,1.1947921,11.9385587.1253386ZM145.2533467,66.9043902v8.4578237c.0891028-.0004406.1782055-.0006608.2673083-.0008811v-8.4578237c-.0891028.0002203-.1782055.0004406-.2673083.0008811ZM144.6625591,140.7713519c.2879044.0033042.5761391-.0022028.8639333-.0123356,2.8125194-.1008877,2.7988621-.1013282,2.8182466-2.9336727.0804018-11.7531941-.9129454-23.4561647-1.6431695-35.1710304-.3308587-5.3095995-.6839656-10.6174368-1.0269396-15.9261552-.5281184,5.9779253-1.0885076,11.9977036-1.5808306,18.0232091-.8969752,10.9769318-2.3782398,21.9102483-2.4659107,32.947977-.0241205,3.0376443-.0353547,3.0383051,3.0346705,3.0720078ZM139.6759984,143.6226403c3.0568085-.6284553,4.89911,1.3745395,4.4673636,4.8571469-.2341563,1.8886702.1980306,2.3071999,1.9521105,1.8974813.342974-.0801815.7465248-.0744542.8117273-.5423263.0707095-.5066412-.2699516-.5374802-.6600653-.5883646-1.442826-.1885586-1.1241927-1.3073545-1.0028191-2.172169.1243474-.8850801.4852741-1.7368981.7669005-2.6847577-.3906644.0196048-.6010306.0123356-.8053392.0440558-.5689801.0889926-1.3461236.2890057-1.3475554-.5269068-.0016521-.8736256.8687795-.48197,1.3699137-.5180957.7163466-.0517655,1.4485532.0720312,2.1581813-.0121153.4797672-.0570522,1.3547144.438575,1.3775133-.4491484.0233495-.9106324-.704011-1.0126215-1.5498814-.9313386-1.2131853.1167477-2.5336464.325572-3.6494686-.018944-1.9125704-.5910079-3.1396333-.2039781-3.8885812,1.6454824ZM139.0415955,144.937264c-.5567546,1.7368981,1.2531659,1.9120197,1.8905426,2.8600996.348481-1.6027483-.1081569-2.669999-1.8905426-2.8600996ZM135.6913757,143.0472722c.7689932,1.2022815,1.5554985,2.4314371,3.3167375,1.8842646-.0022028-.0004406-.0038549-.0008811-.0060577-.0013217-.9880604-.587924-2.2470638-.888164-2.1275625-2.4973004.0447166-.601361-.5764695-.784633-1.1103151-.5791129-.7990612.3077294-.3079497.8258251-.0728021,1.1934704ZM131.54639,138.088797c.5704119.4000262,1.4390812.9489609,1.8971509.3101525.6546685-.9128352-.576029-1.0412578-1.0394955-1.3965674-.4664403-.3577327-1.0085464-.7628254-1.7319418-.6507035-.2320637.8513775.3077294,1.3395152.8742864,1.7371184ZM127.9132221,136.9878437c-.504108,1.1406035-.4437516,2.1657809-.2406546,3.3248878.8748371-.2385619,1.9673097-.3925368,2.0774491-1.2419317.1385553-1.0687926-.8871728-1.5937169-1.8367945-2.0829561ZM128.1047545,135.7721252c.5021255-2.4202029,1.0124012-4.8978985.1786461-7.3733913-.2097054,2.4391468-.966363,4.8611119-.1786461,7.3733913ZM129.4013154,127.0748584c3.1040583-.0951604,5.1375618-1.6146434,6.3044886-4.402051,1.1065704-2.6433453,1.3379733-5.4320745,1.3300432-8.2635378-.0754455-1.3657284-.1377844-2.7323379-.2303015-4.0967446-.0830451-1.2243094-.4136835-1.6913004-1.886137-1.2348828-3.9684322,1.2291555-8.0341175,1.691741-12.0882382.2788729-.765689-.2667576-1.0497385-.0224684-1.1864215.6753747-.8669071,4.4236383-1.4985565,8.852343.6547786,13.1043841,1.4565934,2.8764002,3.9139132,4.0361679,7.1017876,3.9385844ZM96.2075072,135.2414736c5.9558974,1.7313911,11.6008714,1.6322657,17.6971965-.0061678-3.4373401-2.5464226-14.8776282-2.4920137-17.6971965.0061678ZM106.0475802,162.4436991c-.7902501.0163006-1.5818219.003965-2.3717415-.0242307-.6780181-.0242307-.8604089.2352577-.7026893.903143.6705286,2.83675,1.3034996,5.6827518,1.9502381,8.525229.1247879-.0026433.249686-.0044056.3745841-.0070489.5217303-2.7803587,1.0245166-5.5646823,1.5776366-8.3388732.1512214-.7586401-.0527568-1.0736387-.8280279-1.0582192ZM117.1869676,140.0937744c-.5608298.0132167-1.1097645-.0643214-.9468683.6762558.3152189,1.431812.1658699,2.9777284.9779276,4.4654913.4041014-2.203008.4065245-2.2210709,2.9329017-1.8924149.8199877.1066149,1.3951356-.0539683,1.6494474-1.0454431-.6015813-.0724717-1.1533796-.1226953-1.6993406-.2094851-.674053-.1070555-1.7272058.0237901-1.6644264-.9097513.0759962-1.1293693,1.1865316-.7518114,1.9041998-.7273605,1.0030394.0343635,1.9992501.2288696,3.0022895.3022225,3.5530966.2590478,3.6275508.1726986,3.1781821-3.3737897-.0068286-.0546291-.0773178-.1013282-.2331651-.2938519-2.7331089,2.0474912-5.3274421,2.9195748-9.1011479,3.0081269ZM115.2754986,136.8356311c.2811859.652686-.1225851,2.03868,1.3130818,1.6655278,1.8322788-.4758021,3.6192904-1.1256245,5.6676627-1.7776497-2.1618159-.6055463-4.1023617-.7908008-6.0691207-.761724-.5690902.0083706-1.3051517-.0392096-.9116237.8738459ZM114.5755628,137.7121203c-.1613542-1.1815753-.5297704-1.4075814-1.6516502-1.1110861-5.0979116,1.3478858-10.2402094,1.4282876-15.3687398.1978103-1.0309047-.2475933-1.4569238-.0579333-1.5959197.9718699-.6156792,4.5628545-1.3082356,9.1208628-.9593141,13.7486995.4103794,5.4485954,3.439653,8.7831755,8.8241473,9.5400533,5.6274618.7912413,10.4787713-1.7904259,11.2597697-7.8749661.2492454-1.9419777.2439587-3.8700777.3105931-5.8056673.0392096-3.249993-.3804214-6.4554897-.8188863-9.6667136ZM299.512478,275.0603401c-.0350243-.3568516-.1126726-.7115004-.1913121-1.0626248-2.8122991-12.5453166-3.9988307-25.2954925-5.0920742-38.0804724-1.7783105-20.7974-2.4146959-41.5736532-.3461681-62.385151.2910984-2.928386.5730552-5.8911355.1771041-8.8472766-.0811727-.6062072.0633301-1.4789517-.8619508-1.4745461-.8752777.003965-.7605125.8824368-.9152583,1.4661755-.1289732.4863755-.2189571.983765-.3067382,1.4793922-1.6241154,9.1759325-6.9103654,15.6437578-14.9112208,20.0669556-6.0231926,3.3301745-12.475268,5.6228359-19.1148006,7.2929896-20.0490028,5.0435028-40.2047307,9.573756-60.8570771,11.4064754-14.2847479,1.2670435-28.5816112,2.5199891-42.9321123,2.4878284-24.0870431-.053748-48.0974293-1.4181547-72.0282948-4.3342051-15.5622547-1.8961597-30.9275801-4.4412606-45.5384508-10.3817385-8.9501468-3.6390053-17.8745209-7.2956329-24.7652815-14.52342-1.7452687-1.8305166-2.7662608-3.6848233-2.9235399-6.1920363-.1123422-1.7864608-.1881181-3.6733688-1.4415043-5.3853754-.8004931,1.7168527-.6125953,3.2922865-.4780049,4.8553847.543648,6.3140707,1.737559,12.5616172,1.9089358,18.9157787.6255917,23.2266343-1.500539,46.1986263-6.3460111,68.9208221-.824944,3.8685358-1.6813879,7.7309038-2.4796781,11.6051668-.1273211.6172211-.1515518,1.4494343.5868226,1.680727.8489544.2660968,1.3221132-.4436414,1.5763149-1.1379601.2707226-.7383744.4471659-1.5190424.5938716-2.2944237.8172342-4.31438,1.6177273-8.6322845,2.4151365-12.950189,3.7892354-20.5224921,6.2263998-41.1604102,5.5109343-62.0895368-.1696147-4.9514262-.3326209-9.8984469-.8916885-14.875866.9674644.0894332,1.3207915.8040175,1.8265516,1.2679246,2.7730895,2.5451009,5.723283,4.8553847,9.0948699,6.5444823,5.7268075,2.8689107,11.5265273,5.5792207,17.5121624,7.8837772,13.8220524,5.3214946,28.2976719,7.598296,42.879686,9.5812455,24.2575389,3.2993354,48.6651978,4.2372825,73.0823287,4.8536225,14.5021631.3661033,28.8972707-1.6943843,43.2967839-3.219154,20.5134606-2.1719487,40.6969436-6.1982041,60.7485898-10.9403655,13.7164287-3.2442658,25.8208574-9.0305485,33.8343788-21.8868988.3102627,1.3956863.0864594,2.3706401-.0931779,3.3411884-1.2620872,6.8189497-2.0214983,13.6912068-1.8992436,20.6282259.4067448,23.0808097,2.1617057,46.0532423,5.7463022,68.8692769.4908912,3.1244341.8778109,6.2845534,2.0799823,9.248184.1899904.4683127.366654,1.247659,1.1348762.9934573.5805447-.1920831.456748-.8300104.4079563-1.3278404ZM207.0412118,191.4218121c1.5460266,2.036257,3.5651018,2.9072392,5.3587217,4.0822062.8347464.5471725,1.9902187,1.152058,1.0976491,2.3331928-.8848598,1.1705614-1.9717153.5546619-2.7546962-.2912085-3.2264232-3.4861318-6.5748808-6.8797466-8.8810894-11.105134-.3010109-.551578-.4108199-1.2340017-1.023305-1.5996644-.49783,2.3265844,1.6667393,8.0485458,3.9368222,10.4064097.3493621.3630194.7476262.6788992,1.0984201,1.0405969.7663498.7899197,1.3114297,1.7917475.3414321,2.6173524-.8437778.7185494-1.9181875.3872501-2.7180198-.4154458-1.2093305-1.2141766-1.7690588-2.786967-2.279665-4.3615197-.5764695-1.7772091-1.0613031-3.5848167-1.6572673-5.6228359-2.1897913,3.1786227-5.494083,3.4416355-8.74727,3.6676416-3.332157.2317333-6.6575955-.0057272-9.7123113-1.5216858-2.6169118-1.2992042-2.7028205-3.3425101-.2649954-4.9135383,1.4511965-.9353037,3.0427107-1.5282941,5.1655372-1.5208046-1.3329068,1.2401695-2.8632936,1.2599946-4.0776905,1.9300826-.7566576.4176486-1.6639858.7471856-1.6786344,1.7728036-.0144283,1.0132824.7960875,1.5300563,1.6089161,1.830076,5.1559551,1.9040897,10.3126811,1.8336005,15.3474829-.3647816,1.7562826-.7665701,1.5159585-2.556996-.3925368-3.5940684-.6899131-.3744739-1.4663958-.5890254-2.201466-.8815556-.712712-.2832785-1.5465773-.3475999-2.1327391-1.228715,2.3741646-.4326275,3.9270198,1.1366385,5.9357419,2.0415437.012666-1.5842449.127982-3.1548326,2.3393606-2.7993026.0998964.0158601.3632397-.5639137.4407778-.8925696.8231818-3.4852507,3.2686066-5.4457318,6.3271773-6.8951661,7.3266922-3.4724746,15.0497761-4.7884199,23.1068026-4.3553519,4.2408069.2282088,8.4960421.3154392,12.6169072,1.5556087,2.4431119.7352905,4.7348922,1.7459295,6.6421759,3.472034,3.957198,3.5812923,3.9211824,8.253405-.0713703,11.7879982-1.6938336,1.4992173-3.6436312,2.5565554-5.7722951,3.3094683-10.6151239,3.7553125-22.7453251,5.3765643-36.9985732.5163334ZM222.9725436,192.7029535c3.8761354-.0237901,7.4626042-.3414321,11.0144893-.9736322,4.699207-.8370593,9.2960946-2.0159913,13.3707012-4.6425954,5.1138818-3.2962515,4.9730136-8.4146491-.2806352-11.4756429-1.5675037-.9128352-3.2205858-1.6322657-4.9983456-1.9684111-7.0490308-1.3331271-14.1585282-1.6609019-21.2943489-.9745133-5.0522038.4863755-9.9816021,1.5824827-14.3578805,4.2919116-4.2919116,2.6574431-4.94647,7.0427529-1.7805133,10.8588623,1.1477625,1.3833507,2.7378449,2.0891239,4.3588763,2.6966527,4.5880764,1.7190555,9.388061,2.1054245,13.9676566,2.1873682ZM55.3026204,140.4854301c1.174967.5639137,1.4970145,1.2851064,1.4763083,2.5107374-.0524263,3.0984412.0489019,6.1990852.049783,9.2988481.0008811,2.1547669.7033501,4.8509791-.3238098,6.3043784-.9313386,1.3181482-3.7676481,1.3256376-5.7836394,1.8336005-8.0829093,2.0375786-16.196217,2.6851982-24.3300106.3031036-2.3113852-.6766964-5.2093727-1.0247368-5.4098264-4.1000488-.1984712-3.0418296,2.6990758-3.7242532,4.7809305-4.9005418.0638808-.0361257.203097.0607969.2991386.0929576.0422935.4057535-.6363854.5683192-.3286559,1.1317923,1.1401629-.7811085,2.2230534-1.5230074,3.6460542-2.4984018-2.2803258-.5180957-3.8443051.267859-5.3620259.9621777-2.3964128,1.096768-4.8604511,2.3781296-4.712644,5.5204063.149349,3.1766402,2.8054704,4.1366151,5.2686277,4.9829261,6.331693,2.1754732,12.850623,2.2803258,19.4409233,1.6062728,4.1002691-.4189702,7.9573504-1.8432928,11.9644415-2.7984215.0143181.7075354-1.2346625.952926-.5401235,1.6045106.4434212.4158863,1.0765024-.091636,1.5835841-.3498027,1.6833704-.8564439,1.4893048-2.5468632,1.5983428-3.9782346.390334-5.117957.1387756-10.2279839-.5200782-15.3173047-.0872304-.6736125-.5156726-1.3789451.6496021-1.6547341,1.4201372-.3361454,1.3410572.4097185,1.2842252,1.3952457-.3161,5.4884659-.4343897,10.9734073.518316,16.7874452.7139235-1.6564964.6363854-3.027952.6381476-4.3850895.0052867-4.1811114.0222482-8.362443-.014979-12.5431138-.0090314-1.0236355.2837191-1.7571638,1.1414846-2.3746052,8.6051902-6.1915957,8.9217308-14.9835823,7.5586458-24.286836-.0493424-.3354846-.1176289-.7233955-.7621646-.807542,0,1.2080088-.0198251,2.3931086.0041853,3.5773273.0557305,2.7413693.0848073,5.481417-.5028964,8.180713-1.1097645,5.0976913-3.299776,9.5266163-7.9066862,12.3752614-.9571113.5916688-1.9873551,1.250082-3.2356749.8181154-4.2542439-1.4719028-7.7676903-6.1402708-7.8698997-10.7244923-.0867898-3.8901231.114545-7.7859735.0376677-11.6765371-.0389893-1.9717153.2502367-3.0380848,2.5902581-2.251249,1.1348762.3815228,2.4177798.3876906,3.638785.4348303,3.6028796.1383351,7.1465042-.1361323,11.0434559-1.9076142-6.0131699.229971-11.45758,1.363085-16.7894277-.6009205,5.6221751-2.3155704,11.3430351-2.5210905,17.1702897-.9815622-5.3877985-2.7138345-10.9412466-2.7966593-16.5931593-1.1972151-1.4683783.415666-2.3803324,1.4450287-2.361829,2.993148.0590347,4.9058285-.7295633,9.7753111-.5332949,14.6884088.2174151,5.4408857,2.5232933,9.5448995,7.4976286,11.9320605ZM282.8316477,279.4231815c1.007445,4.0800034.952926,4.134192-3.090401,3.6804177-1.234222-.1383351-1.5258711.2436283-1.3352198,1.3873157.366654,2.1992633.7244969,4.4038132.9538071,6.6198177.0790801.7639268.2841596,1.9512294-1.0118505,1.9886768-1.0890582.0312796-1.051721-1.0225341-1.160759-1.768398-1.5523045-10.6196396-2.8979875-21.2661532-3.8908941-31.9531981-1.3681515-14.7269576-1.8567298-29.4847542-1.3228842-44.2698653.1221446-3.3830414.2371301-6.7704883.8392621-10.1152012.1000066-.5551025.1378945-1.4137492.7452031-1.4000919.9098615.0202656.6286756.9762755.6366057,1.5349025.0444963,3.0980006.021367,6.1968824.0202656,9.2970858,1.0172474,21.9120105,3.3451534,43.6486792,8.616865,64.9985383ZM280.8072858,279.2725108c-1.0325567-5.661605-2.2302124-11.2932521-3.2472395-16.957941-1.4475619-8.0613219-2.5001641-16.1816786-3.2111138-24.4980833-.1326078.2277683-.1996827.2894463-.2007841.352446-.2390025,14.0198627,1.4145201,27.8811247,3.5133363,41.7031771.2440689,1.6071539,1.7667459,1.5291752,2.7310162,1.4423854,1.4129782-.1273211.5338456-1.3890779.4147849-2.0419842ZM57.4155344,217.9715719c0,1.0247368.0244509,2.0503548-.0035245,3.0742105-.290768,10.592325-.7117207,21.1828878-.8538005,31.7769751-.1495693,11.1716582-.0026433,22.3468408-.0515452,33.5202613-.0211468,4.7611054-.4903405,9.4988612-1.2632988,14.1982885-.3898934,2.3710807-.7659093,2.5662477-2.8979875,1.5719093-1.0613031-.4951867-2.03868-.402229-3.1288397-.0735731-1.7536393.5282285-2.5021466-.0519858-2.0589457-1.7357967,3.2651922-12.410506,3.7260154-25.2042971,5.1668589-37.8562286,1.0595409-9.3036942,1.6382132-18.661577,2.4552272-27.9930263.402229-4.5932529.8520383-9.1816598,1.2967811-13.7709477.0931779-.9595343.2442892-1.917747,1.3390747-2.7120722ZM54.805231,263.0000774c.014979-1.4212386.0022028-2.8424773.0022028-4.2632753l-.3145581-.0132167c-.0519858.4837322-.1044121.9679049-.1566182,1.4516371-1.0007265,9.2931208-1.9514496,18.5924095-3.0305953,27.8762786-.3645614,3.135448-1.0782646,6.2299242-1.5844652,9.3508339-.1782055,1.0978694-.5377005,2.2318645,1.2947986,2.5221919,1.6476852.2612506,2.201466-.3515649,2.3605073-1.8186215.3013414-2.7860859.7300038-5.5607173.9595343-8.3525305.7319864-8.9054302.3762361-17.8342099.4691938-26.7532974ZM163.4607089,82.1247723c1.2363146-2.3728429,1.5315983-4.9183844,1.4530689-7.5493941-.0350243-1.1701208-.5265764-1.6335874-1.717073-1.6379929-.9931268-.003965-1.9930823-.2359186-2.974975-.4394561-.6568713-.1363526-1.2596642-.4861552-1.3218929-1.2390681-.0648721-.7852938.5587371-1.2456765,1.1683586-1.3571375,1.6851326-.3079497,1.5933865-1.399431,1.5318186-2.7107506-.3092714-6.5843528.7011473-13.0872024,1.4145201-19.5993037.6980634-6.3724446,1.4705811-12.7312319,1.3507494-19.3158049.8783616.9780377.6388084,2.0349353.649492,2.9949102.0703791,6.3517384-.567328,12.6675713-1.001938,18.9946385-.3901137,5.6794476-.6750443,11.3663846-1.0576685,17.046493-.082935,1.2300367.2026565,1.745489,1.5687153,1.894838,5.5476107.6070883,5.4856023.670088,4.8002049-4.7509726-1.42234-11.250518-1.4987768-22.5633749-1.603299-33.8727073.1753419-.003965.3506838-.0081503.5259156-.0123356.238672,4.1529157.4556466,8.307153.7203116,12.4585268.5320834,8.3437193,1.3539435,16.6588024,2.4542359,24.9478926.1448333,1.091261.2894463,1.8979219,1.6393146,2.0395611.7837519.082164,1.5277434.6086302,1.5156281,1.5694862-.012666.9921356-.8270366,1.2881903-1.6059424,1.4756475-.764918.1841531-1.6082553.4782252-2.3311001.323149-2.564155-.5495955-2.801175.7524723-2.5786934,2.7865265.1718174,1.5701471.0396502,3.1627626-.3764564,4.7183713-1.3228842,4.944157-6.4279548,7.8599871-11.5193682,6.5572585-4.5951253-1.1758481-8.1635313-7.0187425-6.98515-11.4637478.0686168-.2590478.291539-.4769035.4885783-.7859547.5264663.9062269.5459609,1.8364641.6856177,2.7314568.2696212,1.7274261.7698743,3.3693841,1.7633316,4.827189,3.1047191,4.5558056,8.8079568,4.2350797,11.3436959-.631319ZM172.2987338,71.4775978c-3.8219468-.851818-7.6360738-1.8038629-11.522342-.4332883,3.8318594,1.002709,7.6584321,1.4018541,11.522342.4332883ZM163.8023613,84.3326264c1.6026382-1.5871086,2.701609-3.4343663,2.4785767-5.8309994-.5991583,2.0314108-1.3076849,4.0110562-2.4785767,5.8309994ZM116.5307571,226.558479c-1.6522009-2.6860793-4.773441-3.80862-7.4537931-2.7200023-2.937858,1.1934704-4.9342445,4.815294-4.2579887,7.7225332.1845936.7938847.4558669,1.8018804,1.3843419,1.6009861.9741829-.2105865.4067448-1.1031561.2529902-1.776328-.4773441-2.090005,1.5869984-5.3514525,3.6920925-5.9131634,2.2127003-.5907877,4.2378332.6317595,5.1482453,3.1446997.2193977.6057666.3538778,1.2450156.493865,1.875894.6646912,2.9953507.4395663,6.0303517.331079,9.0508142-.5841793,16.2565734-3.3260993,32.2210571-6.607482,48.1088838-1.3684819,6.6259855-2.7928044,13.2405164-4.1053355,19.8779564-.1733594.8767095-.6976229,2.4287937.4136835,2.6398208,1.1075617.2105865,1.1485335-1.412868,1.4125376-2.312046,1.8083786-6.1607567,2.7957782-12.5008203,3.9911209-18.7933037,3.1196981-16.4213419,6.0498463-32.8717606,7.0631287-49.5992899,0-1.4415043.0690574-2.8869736-.0145384-4.3240723-.1710465-2.9389594-.1193911-5.9422401-1.743947-8.5833826ZM20.2205827,203.8719683c1.1621908,3.6451731.911073,7.3128147.6603958,10.9434494-1.2551484,18.1822504-3.521817,36.251718-6.2008474,54.274046-.2328347,1.565301-.3568516,3.1429375-.8590872,4.6558121-.7608429,2.2900181-1.0925827,2.2367106-3.146462,1.1163728-1.9494671-1.0639465-1.91224-2.3243816-1.2586729-4.0474022,4.2773732-11.2747487,5.8721915-23.1028376,7.2945315-34.9833529,1.1813551-9.8671673,2.369759-19.7294885,3.0805986-29.644236.0559508-.7780246.2823974-1.5437136.4295436-2.3146893ZM12.8575444,265.4134516c-.647179,2.0904455-1.2710085,4.1888211-1.9534321,6.2678122-.2427472.738815-.1055135,1.4366581.5687598,1.5965805.9253911.2198382.8018147-.7352905.9154786-1.2718896.4555365-2.151683.9273736-4.3060094.4691938-6.5925031ZM47.2360118,190.4468583c2.6244013,1.979425,5.6030108,3.2240001,8.785158,3.9866052,7.7577778,1.8582717,15.583842,1.6432796,23.4055006.5916688,5.1065025-.6868292,10.0464742-2.0027746,14.2068794-5.2659843,4.9494437-3.8817525,4.5344385-7.8547004-1.1469916-10.4610389-5.3192918-2.4402482-11.009533-3.3314961-16.812557-3.4160832-3.6381242-.0533075-7.2760281.1942859-10.8300058,1.2102116,1.9981487,0,4.0000422.0779787,5.9935651-.0176223,3.3248878-.1599224,6.6246638-.0286362,9.9105622.4943056,3.8454065.6114939,7.6687852,1.3190293,11.2240845,2.9979941,4.2414678,2.0032152,4.4628479,4.7826927.6150183,7.5313312-1.7694994,1.2639596-3.7150015,2.1900115-5.7671185,2.8988686-8.708501,3.0094486-17.6866231,3.0376443-26.6995494,2.247284-3.9647976-.3475999-7.7987496-1.4459099-11.208665-3.6103691-3.0817-1.9565161-3.178843-3.9346194-.3967221-6.3303713,1.372557-1.1815753,2.9753054-2.0071802,4.5780537-2.8358689,2.9297077-1.5146368,6.0948933-2.4287937,9.1442124-3.6341592-5.6906818.7485073-10.8216352,2.8631835-15.2631161,6.4872098-2.5827686,2.1067462-2.4213043,5.1025375.2616912,7.1260183ZM219.5888414,221.9365898c-3.0570288,1.4463504-4.524526,4.0791223-5.1997905,7.2678778-1.7102444,8.0767414-2.3248222,16.2473217-2.1381359,24.4901533.2064012,8.295258,1.0255078,16.5424952,2.2586284,24.7381872,1.1991976,7.9714482,2.139017,15.9909172,3.9486071,23.8597154.2192875.9538071.2758992,2.7164778,1.4954726,2.4649195,1.5297259-.3158798.7460842-1.9269987.4777847-2.9468894-5.2178534-19.8312573-6.5936045-40.0347857-5.8878313-60.4387677.131947-3.8156689.3864791-7.6273728,1.1290388-11.3888531.5057601-2.5614016,1.6094668-4.7941472,3.7097148-6.3858816,1.7345852-1.3146237,3.4292999-.8128287,4.0967446,1.0846527.1804083.5132495.1302949,1.3441411.9251708,1.1406035.6501528-.1665308.4944157-.9595343.4792165-1.500539-.0653127-2.3208571-2.779037-3.575565-5.2946206-2.3851785ZM260.6268867,143.1003594c.8783616.5504767,1.6643163.6438748,2.4413496.8024756,2.2516896.4595015,4.577503.6788992,6.6821565,1.6699334,1.8412001.866797,1.9364707,2.0523373.2553031,3.1832485-.9438945.6348434-2.025243,1.075401-3.0693644,1.5490003-2.602814,1.1806942-5.3944068,1.4313715-8.1983353,1.6410768-.6143575.0460383-1.3948052.1059541-1.5477888.9060066-.166751.8725242.5340659,1.2782777,1.1613097,1.6329265,1.0804674.6110533,2.2799954.8529194,3.4964849,1.025618,5.3876883.7645876,10.777249.5039978,16.1640563.0101328,1.0117404-.0929576,2.6953311.2885652,2.7172488-.9961006.0263233-1.544815-1.681498-1.1309112-2.7531542-1.1485335-4.4254005-.072692-8.8576297.279754-13.3119969-.2647751.6314291-.3330615,1.3057024-.4762427,1.9573972-.689032,2.1460659-.7002662,4.6275063-1.4439273,5.5213976-3.479964,1.1451192-2.6081007,2.605237-1.8124537,4.1988438-1.1339951,4.7921647,2.0393409,9.2188869,4.6987665,13.2587996,8.0053711.9609661.7868358,1.7936199,1.9917607,3.4229118,1.7340345-4.275611-7.7952252-24.4781481-16.8301793-32.3966192-14.4474238ZM98.1917784,198.8412417c-.5106062.8370593-.7826505,1.8159782.0964821,2.560961,1.0038104.8502761,1.8939569.2127893,2.6697787-.4903405,1.4078016-1.2762952,2.0107046-2.9962319,2.2864937-4.7818116.2778817-1.7987965.9745133-2.4957585,2.9387391-2.33892,2.435292.1938453,4.9054981-.1612441,7.1603818-1.2639596,1.1859809-.5802143,2.3685475-1.3648473,2.3470703-2.8411556-.022138-1.5256508-1.322774-2.1177601-2.5423474-2.6125062-1.3942545-.5661164-2.8354284-.6965215-4.7076878-.2938519,1.5148571.3044253,2.6394904.4929839,3.7439681.7634862,1.0771632.263894,2.201466.6678852,2.2603906,1.9710545.0566116,1.2498618-1.069894,1.5688254-2.0150001,1.9243554-1.8443942.6934376-3.780975.8137098-5.7237236.9718699-1.6537429.1348106-2.7085478-.2233627-2.2129205-2.8733163-1.6612324,2.6155901-3.3384349,2.6120657-5.1896577,1.5172802-.6709691-.3965018-1.178932-.9780377-.9176814-1.7631113.440117-1.3225537,1.7353562-1.2992042,2.8263969-1.6287412,1.3126412-.3965018.9425729.8934507,1.5170599,1.435777.6514745-.6299973.9388281-1.186862.5859415-1.8662018-.4017885-.7740596-1.1018344-.5039978-1.7203772-.3929773-1.060422.191202-2.1320782.3564111-3.1665073.6476196-1.2721099.3577327-2.0538793,1.3185887-1.743947,2.5935623.5401235,2.2221722-.711941,3.4953836-2.0776694,4.8263079-1.0298033,1.0035901-2.0223794,2.0507954-2.9609873,3.1394131-.4601624.5335152-.4581798,1.2203444.0160804,1.7921881.2964952.3577327.7086368.3934179,1.1743061.2727051,2.4131539-.62427,5.4234836-4.0170037,5.7063216-6.4938182.0460383-.4048724-.1691741-1.0546948.4042115-1.0300235.7632659.0326013,1.5877694.23702,2.2477246.6110533.6423329.3643411.0207062.919003-.2000131,1.2811413-.8996185,1.4749867-1.9029883,2.8869736-2.8028271,4.3619602ZM6.547659,162.748565c1.1555824.7740596,1.6157448-.8300104,2.0902253-1.5727904,5.7100663-8.9371503,14.0110516-13.8105979,24.2800073-15.6609396,6.228162-1.1221001,12.4536806-2.2605008,18.6798601-3.3933945.6742733-.1226953,1.4646336.0046259,1.9184078-.983765-1.0331074-.6007002-1.9596-.24495-2.8552534-.1656496-8.6494663.7659093-16.9918639,2.9867599-25.2386606,5.5494831-7.6507223,2.3772485-14.0326389,6.6017548-18.3106729,13.5828296-.5046587.823402-1.5280738,1.998369-.5639137,2.6442264ZM47.415539,167.154581c.2156529,0,.4372534.0321607.6460776-.0057272.8352971-.1515518,2.2748189.5427669,2.3301088-.7264794.0546291-1.2525051-1.4117666-.7352905-2.2430987-.9040241-.2081634-.0422935-.4302044-.0233495-.6458574-.0237901-8.5743512-.003965-17.0823985-.7908008-25.5532186-2.0873616-1.9855928-.3044253-4.0055492-.3868095-6.0111874-.5551025-.4255786-.0356852-.9282547-.0621186-1.0282613.5044384-.0929576.5273474.3004602.7493884.7476262.8661361.4145646.1083772.8269265.2647751,1.2489806.3031036,10.1652045.9203247,20.3017727,2.1772354,30.5088302,2.6288069ZM24.766696,182.8428351c.3537677-.0674053.7137032-.1114611,1.0573381-.2119082,7.2352765-2.1146762,14.4714342-4.2249468,21.6987807-6.3651754,1.0980897-.3251315,2.1547669-.7912413,3.2284057-1.1965543.4357114-.1647685.7733988-.4418792.6648013-.9533665-.1244575-.5841793-.6238295-.5057601-1.0405969-.452012-.4242569.0546291-.8458705.1616846-1.257131.2850407-7.9077876,2.369759-15.8142536,4.7439236-23.718737,7.1246966-.3416524.1030905-.6804411.2462717-.9866286.4282219-.3705089.2207193-.7705351.5136901-.5764695,1.0141635.1491287.3850473.5718437.3440754.9302373.3268937ZM16.8181568,169.5318295c1.4503154.5445291,2.9667145.4608232,4.4694563.3414321,6.2244173-.4956272,12.4371597-1.3507494,18.3208057-.4921028,1.4553818,0,2.5338667.0251118,3.6097082-.0118951.4643477-.0158601,1.182897.1603629,1.2494212-.5022356.0773178-.7727379-.6775775-.7797869-1.227173-.8714228-.7081963-.11851-1.4185953-.2612506-2.1329593-.298698-7.3947584-.3841662-14.7934818-.3172014-22.191324-.114545-.7035704.0193845-1.4159519.2202788-2.0948511.4313058-.3068483.095601-.7088571.3815228-.773619.6515846-.1202722.5022356.3898934.7233955.7705351.8665767ZM30.5600277,186.6514551c7.6784774-3.4574956,15.5721672-6.3827977,23.3997734-9.4711061.631319-.248915,1.4335742-.3383482,1.5723499-1.2740924-.8137098-.4383548-1.54085-.0202656-2.2688713.1881181-5.9567785,1.7062794-11.7320474,3.9214027-17.4209669,6.3559237-2.0444073.8749473-4.0029058,1.9578377-5.9669114,3.0094486-.4548757.2436283-1.2124144.6335217-.8401432,1.2851064.3879109.6784586,1.0381739.1255589,1.5247697-.0933982ZM76.5731792,154.4530867c-1.5538465.7782449-3.2530769,1.1091036-4.9377689,1.4981159-3.1213502.7207521-6.3920494.7899197-9.3684562,2.2199695,2.7477574.5868226,5.4318542.1295239,8.0886365-.2546423,2.9169315-.4220541,5.8294574-1.0480864,8.3014258-2.8186872,2.5012655-1.7921881,2.8008446-3.8103822,1.0483067-6.2332284-.5883646-.8132692-1.1075617-1.6772026-1.6388741-2.5303423-.266317-.4273408-.4905608-1.0016076-1.1051386-.7643673-.6467385.2493556-.6610566.8965346-.5520186,1.4842384.1665308.8969752.8817759,1.462651,1.3921618,2.1472775,1.6474649,2.2093961,1.2527254,4.0088534-1.2282744,5.2516662ZM258.9403223,178.9809077c1.4054887,1.6313846,2.9901742,3.1107768,4.5272795,4.6249731.7764827.7652485,1.721809,1.305372,2.760864,1.6397552.3965018.1273211.8980766.263894,1.2185822-.1052933.3770071-.4343897.2298609-.9709888-.0633301-1.3921618-.2847103-.4088374-.6473993-.7753813-1.0230848-1.1066805-3.831529-3.3799575-7.6670229-6.7559499-11.5157336-10.1165229-.8625015-.7529128-1.7611288-1.4873223-3.664007-1.305372,3.0432614,2.5693316,5.4659974,5.099013,7.7594299,7.7613022ZM235.2785273,133.8343328c.8742864.0612375,1.8489099.1581602,2.972662-1.0661493-10.3646669-1.3474452-20.3135576-1.7485729-30.2857979-.0660836,9.1272509-.1440623,18.2193674.4945258,27.3131359,1.1322329ZM78.0842916,143.1230481c3.2453671,1.3941443,6.6240029,2.3241613,10.1202676,2.7953376.9168002.1233561,1.8633381.076657,2.7929145.0332621.5484941-.0257726,1.2749735-.06322,1.3262985-.7800071.0453774-.6328609-.6775775-.67163-1.1113064-.7930036-.9626182-.2691807-1.9556349-.429103-2.9376377-.6266931-3.2195945-.6482804-6.5550557-.830451-9.5052493-2.532545-1.2234283-.7057732-2.2047702-1.5243291-2.3895841-3.0085675-1.5309375.3614775-1.6038497,1.2846658-.9579924,2.5149227.5947527,1.1326734,1.5049446,1.900345,2.6622892,2.3972939ZM65.0900468,165.5883989c-4.2639362,1.5992239-8.5340402,2.656562-12.7382808-.1916425-.3297573-.2233627-.6692069-.7057732-1.0890582-.2251249-.4449631.5097251-.0607969.9476393.3119147,1.2886308.3134567.286803.6722908.5573053,1.0586598.7247172,5.0915235,2.2041094,10.0742293,1.9767817,14.8247613-.9093108,1.9397749-1.178932,1.7056185-2.9504139-.4458442-3.8359345-1.5062662-.6198645-3.0957979-1.037513-5.0690551-1.6829298,1.0013873,1.2983231,2.0620296,1.5917344,3.0068052,2.0759071.6066477.3110336,1.5377661.3824039,1.5371053,1.2679246-.0008811.7974092-.7260388,1.2357639-1.397008,1.4877628ZM33.7776397,158.4751568c-3.2691573-.1709363-6.6612301-.3471593-9.0616078-3.1982275.9066674,2.6144887,3.1636437,3.2938285,5.4985987,3.6594912,5.2223691.8181154,10.4645633.6295567,15.6732752-.1423001,2.7296945-.4048724,5.4444101-.983765,8.0584583-2.2166653-.5544417-.3143378-.9535868-.0834857-1.3639662.013437-6.1847671,1.4608888-12.4561037,2.2151233-18.8047582,1.8842646ZM146.1194829,8.4703796c.0164108-2.6708801,1.4929394-5.3124631.3423132-8.4703796-1.4224502,5.757206-1.5818219,11.055351-.1233561,16.8724728.7870561-3.1755388-.2350374-5.7684402-.2189571-8.4020932ZM39.1491375,148.4390357c5.2532081.5443088,10.4771192.6685461,15.7105023.2469325-5.2283166-.9643805-10.4881332-.6009205-15.7105023-.2469325ZM166.0254147,21.1496257c-.9131656-2.2935426-.8319929-4.6141794-.3196245-6.9641134.1521025-.6974026.3442957-1.3943646.0420732-2.4019197-2.5608509,4.356233-1.2390681,8.4368972.1615745,12.3210728.7124917-.7559967.5489347-1.8673031.1159768-2.9550397ZM266.2171214,146.0236789c-2.8726555,3.1722346-6.2259592,4.7989933-10.1432867,5.3444036,4.5898386.3923165,9.5804745-2.139788,10.1432867-5.3444036ZM257.6211828,126.0021008c.2428573,3.5601455.7670107,6.5731186-1.0432403,9.6869793,2.709539-2.1648998,3.1830283-6.1653825,1.0432403-9.6869793ZM219.4882841,136.7182225c-2.4715278-.6253714-4.9431658-1.2529457-7.9972208.1361323,3.0624256.6771369,5.5315304.6839656,7.9972208-.1361323ZM126.7429911,20.9335322c.5715133-2.6964324.214111-5.3245785-.570522-7.9207841-.1974799.0143181-.3949598.0286362-.5924398.0431746.175452,2.641583.3510142,5.2831661.5264663,7.9247491.2121285-.0158601.4243671-.0314999.6364955-.0471397ZM64.3503507,143.5816685c3.4500061.1594818,6.8308447.9723105,10.2799697,1.1423657-3.2706992-1.845055-6.7920756-1.3379733-10.2799697-1.1423657ZM63.5626338,130.3186836c.9606357-2.4030211,1.2251905-4.899881.9476393-7.4696532-.7621646,2.4296749-1.1055792,4.9161816-.9476393,7.4696532ZM57.48316,130.7466853c.4531134-2.188029.3967221-4.365705-.1218142-6.5109999-.4167674,2.188029-.6277945,4.3604183.1218142,6.5109999ZM247.8985184,132.8444c.6085201-2.174592,1.2621974-4.3756175.6847366-6.704625-.5513578,2.1875885-.9587634,4.3903762-.6847366,6.704625ZM201.6683923,128.5218697c-.2365794,2.5748386-.4327376,4.7115426-.629006,6.8480265.0773178.0121153.1546357.0244509.2319535.0367866.348481-.9833244.6968519-1.9666489,1.0453329-2.9499733,0,0-.0504438.0674053-.0508844.0689473-.0702689-1.2051452.2647751-2.476374-.597396-4.003787ZM187.9499811,178.3130224c-.6455269,1.9776628-1.3473351,3.9495984-.6475094,6.5621046.8221905-2.4565489.8065507-4.5020575.6475094-6.5621046ZM253.1700097,127.9299806c-.1746811,2.2900181-.3751347,4.5888474-.9879503,6.8387747,1.2185822-2.1419908,1.8028716-4.3798028.9879503-6.8387747ZM169.0837651,124.7857214c.2549727-.2621317.4253583-.6423329.1611339-.9467582-.4787759-.551578-1.0910408-.3965018-1.6842515-.2066215-.0446065.7912413-1.1280476,1.0273802-1.0313452,1.9994704,1.0540339.3550894,1.8484693-.1202722,2.5544628-.8460908ZM167.5606476,123.6323418c.0006608-.0121153.0061678-.0218076.0063881-.0343635-.0002203.0004406-.0036346.0028636-.0042954.0035245-.0042954.0008811-.0084807.0024231-.0127762.0035245-.0161905.0163006-.0354649.0286362-.0511047.0453774.0204859-.0066084.0411921-.0114545.0617882-.0180629ZM78.4413635,184.8535397c1.6983493,1.9036491,4.0648042,2.0120263,6.240057.0590347-2.3651332,1.1128484-4.2916913.9454365-6.240057-.0590347ZM173.9247215,135.8785198c.144613.5861618.5502564,1.0575584,1.2302569.8485138.5880342-.1810692,1.2027221-.438575,1.3564767-1.1899459-.3703988-.6630391-1.0294728-.6879306-1.6455926-.7026893-.6618276-.0160804-1.1197871.3194042-.9411411,1.0441214ZM91.0549665,140.3193399c-1.9919809-.3797606-1.7113458-1.8657612-1.717073-3.2949299-1.4390812,2.1591725-.9414715,3.2504336,1.717073,3.2949299ZM182.830372,147.8396571c-.4271205,2.484304-.4793266,4.9258739,1.1369689,7.0795394-.453554-2.3466298-.7438814-4.7133049-1.1369689-7.0795394ZM190.222487,148.0581737c-1.2278339,2.1679837-1.3083458,3.7971655-.2895564,5.8616181.1015485-2.0543198.1863558-3.7720537.2895564-5.8616181ZM195.5834115,148.1418796c-.3567415,1.9084953-.9702179,3.7374699-1.7951619,5.501242,1.4656248-1.5659618,2.3772485-3.3028599,1.7951619-5.501242ZM110.550629,152.8461531c.6683258-3.2394196.7999424-6.4361052-.7480667-9.4984206.2854813,3.1632032.7612834,6.3114274.7480667,9.4984206ZM246.700312,149.1047181c-4.6030554.6035638-8.8265704-.8795731-13.0999786-2.2003647,2.494547,2.2759203,10.4127978,3.6218236,13.0999786,2.2003647ZM241.3541462,181.1127656c-.3388989-1.8750129-1.926448-3.1306019-4.5283809-3.242063.3669844.2022159.7391454.3951801,1.0998519.6079694,1.2442446.7335283,2.6018227,1.3952457,2.4995032,3.1750982-.0954908,1.6591397-1.254047,2.5124997-2.5589785,3.2099023-.568099.3039847-1.1664862.6004799-1.7872318.7489478-7.7529317,1.8547473-15.3962746,1.830076-22.9200062-1.3000853,1.1035966,1.5626576,2.7577801,2.2076339,4.565608,2.3398011,3.8736022.2832785,7.7562358.5467319,11.6376579.5890254,3.2521958.0352446,6.4828043-.3991451,9.3633898-2.1226062,1.50131-.8982968,3.0181496-1.8507822,2.6285866-4.0059897Z"/>
  </g>
</svg>