<?xml version="1.0" encoding="UTF-8"?>
<svg id="Layer_2" xmlns="http://www.w3.org/2000/svg" viewBox="0 0 312.918234 278.0767352">
  <g id="Layer_1-2" data-name="Layer_1">
    <path d="M9.4449174,170.2640788c-1.0163694.8009018-2.062564,1.5670917-3.0432962,2.4094958-2.5288236,2.1721453-2.9984052,4.8717185-1.8388345,7.8935379,1.5359549,4.0027246,4.3420403,7.0181395,7.7089208,9.5385214,7.4323846,5.5637447,15.9539308,8.91994,24.6592686,11.7853764,16.95361,5.5804149,34.3999295,8.9998557,52.0550925,11.4247302,10.0821935,1.3846915,20.21035,2.3333482,30.351475,3.1526644.5713537.0461759,1.1496843.0059917,1.934089.0059917-.6572877-2.8761948.7367375-5.1625149,2.1680576-7.4055884,3.055892-4.7890599,6.4658527-9.3121689,10.3677439-13.4517303.3479704-.3691943.713756-.7383353,1.1292327-1.0228471.5033547-.3446949.9511599-1.181134,1.6467145-.7103741.6516422.4410945.2676552,1.2652573.0437659,1.8155335-2.813575,6.9145366-5.1273637,14.0798185-9.8703808,20.0457251-.2141827.2693861-.3717507.5837498-.5646164.8914028.7953095.6190342,1.6210701.3991261,2.3829993.4127338,28.8114524.5147522,57.561084-.4553946,86.2653253-3.1362339,18.9883393-1.773432,37.8124532-4.2975021,56.1531315-9.7096706,2.2951079-.6773,4.5493925-1.4936336,6.8181903-2.2585986.3379044-.1139219.6514692-.3000902,1.2827796-.5969581-4.7444818-1.1805748-8.4782064-3.9013586-12.738853-5.9583703.2902105,5.6069647-3.4849765,7.5108024-7.6966245,8.7144385-8.0068606,2.2883174-16.2068664,3.3076759-24.5503265,3.1933546-5.4898739-.0752289-10.864095-.8335631-16.0921723-2.4847647-3.253591-1.0276138-6.2716689-2.474246-7.4627358-6.0617735-.3058156-.9211216-1.0050051-.6412966-1.5941075-.7198542-2.3041887-.3073068-4.6304001-.5323545-6.7244804-1.6630252-.7670687-.4141718-1.6643567-.8940658-1.3758771-1.955952.282914-1.0413813,1.2815014-.7315447,2.0406877-.7398798,4.0602847-.0444982,6.3535286-2.0330983,6.7331084-6.1208382.5782641-6.2272239.2531686-12.4944189.6833715-18.739964.1026842-1.4903715-1.5724576-3.0444679-3.4199734-3.5094093-2.3927324-.6021376-4.857445-.9616653-7.1989153-1.7130491-2.7716998-.8894588-6.2159595-1.027414-6.8489476-4.964057-.0287867-.1789516-.433718-.3500874-.6927985-.4309086-1.8877533-.5887429-3.5816424-1.5131-5.1126108-3.0984064.2331963,2.7812332.446021,5.3001239.654931,7.8193475.1062525,1.2816079-.2768424,2.1337186-1.7675734,2.0977286-1.4174461-.0342192-2.6075277-.2107874-2.6385513-2.0817774-.0758947-4.5797504-.2445672-9.157903-.3448014-13.7373605-.0733382-3.3504033-.9426117-6.1208515-4.0978859-8.0501871-3.0933334-1.8914682-4.3923572-5.141797-4.9547766-8.6246565-.7515969-4.6543535-.4380587-9.2660196.6989499-13.8401112.2801445-1.1270757.770211-1.656461,1.9953373-1.8690992,4.4745364-.7766954,8.9287011-1.138673,13.4338617-.2782272,1.3476762.2574161,2.1324271.8008352,2.3971263,2.2826452.8698061,4.8691088,1.8911353,9.7080462,1.0509947,14.699625-.6307512,3.7474789-2.1419072,6.9137644-5.5479533,8.9370629-.8642139.5133675-1.516189,3.4736189-1.0274007,4.2917501.3346822.5602225.7636867.2554987,1.1135478.0929909,3.5462781-1.6472604,7.3119051-2.3726936,11.1776332-2.6103637,1.5127538-.0930043,2.2752688-.8111143,2.2848821-2.2654158.0115839-1.749159,1.1085148-2.3338409,2.566225-2.6678839,5.1103473-1.1711213,10.2556062-.9372991,15.3968706-.345627,2.429082.279532,3.2611538,2.0736819,3.7106899,4.230342.8285833,3.9750031.8677823,3.9784383,4.8605607,4.6377499,2.0256686.3344958,3.9822863.8777151,5.7193421,1.9898649,2.5915232,1.6591905,2.7937758,3.8644765.4641558,5.8744735-2.7302107,2.3556506-6.1148199,3.268011-9.5569226,3.9391994-2.354359.4591095-2.3650109.404412-3.8401103,2.9805167,4.5947696-.4227466,8.9644382-1.0165758,13.0904717-2.8790974.8736674-.394386.7944441-1.0409286.9043981-1.7624605.2429961-1.5946934,1.4758716-2.3481943,2.5791138-1.4896392,1.7016649,1.3243353,4.2556402,1.8930926,4.6963353,4.7327248.0721931-.424837.1241743-.854321.2205472-1.2735924.24739-1.0762796.8702588-1.6457425,1.8307924-.818717,1.0008509.8617107,2.1180736.8459193,3.2759067.8539348,3.6324785.0251251,7.273798-.3137778,10.8940534.1488601,1.3180906.1684462,1.5450822-.4215749,1.6748488-1.5455483.2609711-2.2609553.1833189-3.8736371-2.3445327-5.2664773-4.2558-2.3449588-6.1840039-6.6076292-6.910915-11.3259873-.6702165-4.3503222-.4563533-8.6851325.4370468-13.0049903.3407005-1.6474868,1.1916261-2.5820164,2.8112982-2.8740111,4.8195776-.8687942,9.6613909-1.1269559,14.5395538-.580248,1.5074012.1689389,2.6871239.8201684,3.1495487,2.2900084,1.9223187,6.1103061,2.9013332,12.2662556,1.135544,18.6363745-1.0335256,3.7283587-3.8085807,5.6875196-6.8562974,7.4861965-.6163446.3637485-1.7339668.7576285-1.6049458,1.2990237.3117806,1.3082509-.1097144,2.6083665.2143691,3.8523866.1917605.7360584.984447.5124088,1.5142184.4868443,9.3658544-.4519061,18.0618385,2.4257666,26.7440019,5.3610926,1.096851.370832,2.1501624.8741201,3.2131405,1.3400601.6820134.2989584,1.4178721.5525398.5134474,1.4886406-.9125468.9444891.231279,1.0311289.6838243,1.2729666,1.9893989,1.0630845,3.943833,2.1705874,5.705974,3.5947309,2.5811376,2.0860647,3.9273492,4.6847647,3.9790375,8.0938332.0572272,3.7727504.4695616,7.5394693.7033971,11.3103024.3790739,6.1129025-.0137942,12.2162983-.4068753,18.3075775-1.0916582,16.9163351.775537,33.512368,5.0950086,49.8682809.2723154,1.0312088.775244,2.0308614.6113382,3.2979827-1.9858039-.5532854-2.4068728-2.2456566-2.8643978-3.7555077-1.9203214-6.3373643-3.1248896-12.8282756-4.0719485-19.3788906-1.8119918-12.5328456-1.2060861-25.0976202-.6300322-37.6642057.2364185-5.1577216.069397-10.2999313-.3404608-15.5305517-.2671759.0735912-.5354968.0628062-.6287806.1852895-5.7164927,7.5073139-13.9336747,11.2413847-22.3195026,14.6294291-13.6976823,5.5341325-28.0822778,8.419195-42.6406588,10.4113633-30.736514,4.2060291-61.6523524,5.8388829-92.6513421,5.5555161-12.9272848-.1181826-25.883383.294418-38.7882456-1.0893681-25.2277463-2.7051788-50.3824606-5.7793388-74.569711-13.9942573-7.4500401-2.5303015-14.610715-5.6957482-21.1262321-10.1864089-2.7554757-1.8991775-5.239335-4.1010947-7.8841109-7.2035222.1391868,2.6140786.2640136,4.5857155.346073,6.5591499.613129,14.7437504,2.7710208,29.3912877,2.7824316,44.1707219.0055123,7.138599-.6112383,14.228865-2.1116093,21.2203082-.5506225,2.5658255-1.341325,5.0619878-2.9492134,7.1984093-.4817847.6401515-1.1407401,1.3796052-1.9930805.8648264-.7597555-.4588299-.377303-1.3390482-.0942725-1.9821024,6.0605918-13.7685173,5.1967308-28.2570486,4.3278767-42.7066472-.80696-13.420254-2.1903134-26.7995248-2.5056091-40.2590176-.1180661-5.0400982,1.8084767-8.4067323,5.8905911-11.0291592,7.2981841-4.6884928,15.4050459-7.021841,23.8163185-8.5517044,2.8620078-.5205442,5.746085-.8604591,8.6502942-1.0613003.636004-.043979,1.7152993.3159615,1.8001283-.6867003.0992755-1.1733049.4161491-2.478773-.4886352-3.534561-.1716351-.2002953-.4994135-.2841257-.7699714-.3797796-7.1010577-2.510529-9.5848704-7.9317115-9.4794501-14.9989029.0380206-2.5490488.4211155-5.0617747.6740645-7.5899725.2254604-2.2534058,1.4887271-3.3118168,3.3763207-4.0333754,3.86913-1.4790006,7.9085437-1.8706038,11.9960839-1.8180101,7.9495135.1022714,8.2615071-.3073201,10.7291822,8.3037019,2.2202252,7.7475005.6984173,15.766664-8.5026857,20.3337387-.3884742.1928257-.7890449.394133-1.1158979.6716678-.766616.6509099-.3906112,1.5208093-.2213728,2.2396116.2362588,1.003434,1.109114.4476187,1.64276.3548542,4.7995387-.8342821,9.6038175-1.6263028,14.4887044-1.6816127,1.4472048-.0164039,2.8978447.1667952,4.3445701.2868552.3517119.0291862.9383776.0851219,1.0040332.2730477.9227992,2.6409479,2.0487299.478629,2.9772945.0862936,1.247189-.5269753,2.3461704-1.4791604,4.1639142-.9325058-1.2725272,1.8881794-2.9684135,3.1314006-4.7362798,4.1364324-1.9231841,1.0933093-2.515309,2.3912146-1.999891,4.5429881.4538235,1.894677.5300111,3.8829708.7300667,5.8343159.1773938,1.730172-1.1166635,3.5229372-2.6838218,3.597274-1.9471109.0923385-2.4793189-1.3537877-2.5550405-2.8751695-.2272047-4.564678-.4780299-9.1536157,1.8450259-13.6518925-5.0578335.0426874-9.8290582.7887187-15.1059544,1.4255282,2.463634.5481459,4.4961132.860792,6.4403947,1.459734,5.3356613,1.6436255,6.4835881,6.1875722,2.5890067,10.1883396-2.9499591,3.0303542-6.7013059,4.8273401-10.5303316,6.4313006-1.345639.5636843-2.2407234,1.0928432-1.8411846,2.8130957.4279527,1.842576-.0428738,4.1012412,2.6058833,4.6721289.7806565.1682598,1.5898734.2365916,2.3471091.4745014,1.7838775.5604888,2.0162084,1.7571612.6110453,3.0281705-.9414334.8515781-2.1029879,1.2998226-3.315798,1.567145-3.5365583.7795181-7.0678771.7089361-10.5788975-.1882853-1.3231103-.3381307-2.6398761-.8534289-2.7262629-2.408151-.086673-1.5597019,1.4267731-1.6460488,2.4595863-2.0051903,1.9698194-.6850226,3.6256413-1.5160958,3.5668229-4.0189554-.0265831-1.1308039-.2543536-1.5414872-1.4845463-1.1661415-6.9665311,2.1255033-14.1041914,2.6901996-21.3419261,2.1489375-3.4961077-.2614372-6.8915419-1.013287-10.1576422-2.3073043-1.4467054-.5731778-2.6649546-1.4793202-3.7001912-2.629111-1.5237585-1.6923978-1.5105901-2.6436509.2162732-4.1461788.9961375-.8667171.927799-2.2715673,1.6419478-3.4551246ZM217.2904076,190.299831c-.9694811-1.0332726-2.4746987.1692318-3.1490428-1.026988-.5998608-1.0640832-.6496583-2.3665288-.6787646-3.610003-.0034086-.1453316-.0103323-.2907964-.0221293-.4356753-.4015494-4.9344182-.2823814-9.8823642-.42272-14.8233067-.0221293-.7796113.6693643-2.2760278-.7261655-2.2586785-1.1263035.0139939-.8473839,1.5097446-.8734278,2.3686192-.1212717,3.9964799-.2747121,7.9995108-.1676606,11.9935141.1388207,5.1802769-.779851,9.7313738-5.935309,12.3090629-.2530621.1265177-.4665258.3470117-.6721338.5503029-.3150294.3114877-.3581429.7182831.0944556.8460258,1.7432871.4919572,3.5060672,1.2273898,5.262616,1.2302392.9036525.0014646.9625574-1.75085,1.6326407-2.7985958-1.9867626.2709306-3.6953246.5038873-5.8866832.8026993,1.3425101-1.0184265,2.3861549-1.3325505,3.4790914-1.3359059,2.8345459-.0087612,5.4068691-.9070345,7.9436949-2.066918,1.4458866-.6610825,2.9476157-1.2969866,4.4919256-1.6303639,12.0157233-2.5939066,24.1545025-3.0536951,36.1206679-.2761101,8.0970554,1.8794981,15.6433019,5.7458387,23.6943944,7.9637737,1.6018035.4412809.647022,1.3350804-.0631124,2.5239903,2.4058609-1.1274752,4.2576641-1.9485223,6.0678983-2.8528139,4.5064921-2.2510624,8.7082871-4.9878773,12.4763374-8.3287205,7.5065416-6.6554296,5.8102293-16.3182318-3.4042352-19.5865757-.1006337.5766929.3493818.9111621.5839362,1.3257467,2.1670457,3.8310562,1.7045676,4.8055437-2.6561535,5.0883778-9.2121211.5975041-18.4249879,1.1990026-27.659691,1.3704712-.7543397.0140072-2.009025-.434983-2.1678446.7531014-.1537067,1.1499906.3036852,2.1852338,1.7309842,2.5889801,1.809888.5119428,3.5813761,1.1841565,5.1971602,2.2047134,1.2521555.7909023,1.2792645,1.7001337.2704779,2.6414273-.5743762.5359495-1.24406,1.04712-1.964367,1.3370776-5.5476071,2.2331406-11.0826716,1.9862965-16.4705271-.4705602-2.3644251-1.078157-2.29841-1.7606497-.0812739-3.0746527,1.5856659-.9397624,3.3866064-1.2970531,5.1139423-1.833735,1.7279751-.5368815,1.2968135-1.908378,1.247655-3.0483292-.0569343-1.3198215-1.2070181-.7614898-1.8711896-.769532-3.3435195-.0405038-6.6886634.0572938-10.0322895.0197726-4.0014331-.0448977-5.6335146-1.2878792-6.8060206-5.1029443-.5780244-1.8807098-1.0761331-3.7910717-2.5639615-5.2106215-1.5819644-1.5093718-2.5489157-3.3934768-2.9684401-5.4760531-.3009157-1.4940198-.7190554-1.7567751-2.1010306-1.0624055-3.5616168,1.7895163-7.39246,2.5395687-11.3700328,2.6106966-1.0122484.0181082-2.0430578.0616211-3.0288629.267775-1.8007541.3765973-5.2146559,3.7250167-5.0860078,4.9952138.5790097,5.7182902.8202749,11.4546088,1.0294778,17.1941229.0378674,1.0384521.1946099,2.0126067,1.3909229,2.4605849.5457758.2043564.9149435.7033039,1.0007977,1.6331999ZM57.1661582,140.3832039c-.1226431-3.1162483-.5681781-6.1889969-1.5030406-9.1964762-.3432436-1.1042141-.7211791-1.2938975-1.8479619-.8847188-5.9284119,2.1527722-12.0457283,2.5107154-18.2428673,1.5460675-1.283685-.1998293-1.8453788-.0538586-1.8580279,1.4267665-.0329409,3.85714.0227817,7.7097929.5271018,11.5318882.6800561,5.1538736,5.3119675,9.7837944,10.457972,10.6569958,1.0508082.1782992,1.9944053-.0244461,2.9631674-.4152104,6.6033086-2.6635299,9.5742385-7.6690627,9.5036565-14.6653126ZM25.3082206,179.8626901c-6.1324887-.0037947-12.1288729-.4937414-17.0651552-5.0839972-.0007123,1.4853651.8599931,2.082736,1.6232737,2.7025558,1.7934309,1.4563387,3.9378746,2.1900671,6.1445453,2.6553014,8.8961064,1.8755569,17.7653767,1.4146499,26.6035701-.4610534,2.7795755-.5899013.9543754-2.6063693,1.0372271-3.8799084.1009932-1.5524454-1.2743979-.6441327-1.9533223-.5489182-6.7090218.9408675-13.4206401,1.6972311-20.1792931.5555356-1.6798752-.2837662-3.3687112-.6633859-5.0891434-2.2469881,1.8073449.3972353,3.0587747.7410249,4.3327865.9409341,7.1950872,1.1289797,14.3532724.1553311,21.5208245-.3997652,1.0163694-.0787174,1.1812605-.5546169,1.1020971-1.4063282-.3092907-3.3276615-.6270297-6.6551899-.8681218-9.9880975-.0765671-1.0585175-.5038607-1.3642-1.5110561-1.2493327-7.8055733.8901113-15.5785385,1.9399609-22.9275654,4.9257768-2.3635862.9603072-4.6025987,2.1852071-6.4339636,4.0099546-2.2206513,2.2126091-1.9993784,4.0319108.6755757,5.599322,1.7672073,1.0354962,3.6994722,1.667965,5.6858819,2.1396038,2.4340817.5779179,4.8679038,1.1568877,7.3018391,1.7354048ZM234.8405563,201.855646c7.0160757.1378087,12.6507886-.319157,18.1980229-1.5939211,3.1907981-.7333022,6.3330237-1.6577525,9.0094957-3.6539686,1.7134885-1.2779596,1.56114-2.5466255-.407328-3.3458896-1.2708495-.5160172-2.5957307-.9356214-3.9314502-1.2494126-10.4096857-2.4453794-20.8913781-2.1589502-31.3833496-.6755291-4.1029721.5801015-8.1408613,1.490771-11.8176782,3.5251741-1.9383764,1.0725381-1.982635,2.012833-.2073123,3.3449309,1.0561608.7925001,2.2747628,1.2556706,3.533123,1.6350374,5.9884619,1.8054409,12.1807476,1.7643246,17.0064766,2.0135787ZM271.9399725,138.6083073c-.0736578-2.6787089-.38669-5.8497078-1.1039345-8.9784721-.2305866-1.0059638-.5542707-1.4273656-1.7690913-1.1529864-5.1379357,1.1604294-10.3324595,1.5890745-15.5598977.5980366-.7798243-.1478481-1.1616411-.1192079-1.2601976.8229245-.6409771,6.1278817-.7210526,12.2032497,1.8328961,17.9842396,1.5557874,3.5215125,4.210929,5.4101313,8.2243188,5.2234171,4.0721349-.1894571,6.9110748-2.0858251,8.3582396-5.8439958,1.0066029-2.6140253,1.2657899-5.3543953,1.2776667-8.6531636ZM202.0525696,149.7465418c-.0226885,2.8577404.1910681,5.6762685,1.0493969,8.4096482,1.3549728,4.3148115,4.3919045,7.0089922,8.0685882,7.2203921,4.1578027.2390549,8.6807519-2.4979864,10.2190969-6.4677168,2.0460403-5.2799386,1.4520913-10.7038774.4835422-16.109415-.1462504-.8162405-.4624515-1.0335522-1.3450931-.7448462-5.5042273,1.8004611-11.1071177,2.0691682-16.7516303.7648052-1.1065442-.2557118-1.2072311.218297-1.2616623,1.064922-.125852,1.9558854-.3048303,3.9083489-.4622385,5.8622105ZM175.6490818,119.6134703c-.6195401,4.2152962-1.0613802,8.1640158-.568491,12.1680586.6053199,4.9171488,3.0770893,8.4963412,7.5141577,10.7232239.8815765.442426,1.683823.4591361,2.6719183.2029184,3.9064715-1.0129142,5.6577742-3.7841213,6.3780279-7.4549333.9503876-4.8436375.4275399-9.6769693-.1148539-14.5162395-.1791913-1.5985147-1.1093936-1.3468241-2.1486712-1.135544-4.5179162.9184586-9.0424366,1.3073988-13.7320878.012516ZM270.7691175,171.7787232c2.8368893.2377367,5.659372-.022835,8.4594857-.3877951,3.6757517-.4791084,7.2358507-1.4182583,10.560037-3.1477113,1.1157048-.5804477,1.2500517-1.0648288.1342404-1.7392794-.5574663-.336959-1.0852405-.7290948-1.6623861-1.0265752-7.0931154-3.6560591-14.7762387-4.3903067-22.577438-4.5573282-1.0007444-.0214236-1.186886.4705869-1.1974847,1.3325639-.0329143,2.6810523-.0682253,5.3647942-.2243287,8.0403874-.0713144,1.2218775.4471128,1.5157363,1.5062029,1.4945923,1.6666202-.0332871,3.3343855-.0088544,5.0016715-.0088544ZM48.5779378,167.482526c.0188538.0003994.0377077.0008122.0565615.0012117.0603096.8687276.1176101,1.7376816.1814149,2.6061429.375399,5.1102275.3879549,5.1320239,4.9969647,2.58906,1.3068995-.7210792,2.806851-1.2756295,3.4831391-2.7755212.1722409-.3819898-.2297079-1.2210919.6318697-.9649274.7795647.2317717.495439.9545552.2046293,1.4490955-.4874501.8289562-1.235159,1.4448747-2.0598345,1.9004024-1.8375297,1.0150579-3.7062428,1.9754183-5.5827384,2.9172312-.6501909.3263337-1.6234868.5723922-1.3170587,1.4190438.3720703,1.0280398,1.3693062.4991472,2.0284447.2094426,3.8202778-1.6791362,7.3221509-3.883823,10.1434485-6.9791137,2.6941674-2.9557777,2.0404347-5.5051993-1.6604821-7.1475066-2.3510703-1.0433253-4.856473-1.4642877-7.3913881-1.6836499-3.7808459-.3272258-3.7794878-.297547-3.7175537,3.4117049.0169631,1.0155239.0025831,2.0315804.0025831,3.0473839ZM264.7326423,195.5516487c-3.0584751,3.9788511-7.1809935,5.2112473-11.4704002,6.1600637-2.4217056.5356566-4.875207.847091-7.3338746.9196303-11.3493682.3349751-22.7501849.9463932-33.4077932-4.4726191-.1391402,1.2143679.4643422,2.0312874,1.348049,2.7492776,2.0750134,1.6858735,4.5093415,2.6248636,7.0392169,3.2964116,9.6658114,2.5658788,19.4111658,2.0626306,29.1633374.6060921,3.6619576-.5469476,7.2808815-1.3339087,10.7198951-2.7439517,3.0708579-1.2590792,4.5084361-3.5095025,3.9415695-6.5149046ZM204.0421283,162.7193634c-.4651677-1.2663757-1.1480333-1.5896471-2.0965302-1.7804755-1.4846594-.2987321-2.9542465-.741411-4.3738761-1.2734725-1.282753-.4807461-2.7816593-1.0403428-2.77399-2.6946734.00719-1.5478917,1.3047491-2.6839549,2.5716042-2.9347535,3.4004538-.673199,3.5205005-2.9851902,3.3540382-5.6269503-.0410364-.6507635-.0101725-1.3095158.0345654-1.9613845.0676395-.9851926-.4042922-1.2980118-1.3177444-1.1649299-3.8126018.5554025-7.6116757,1.1680722-11.1567555,2.7848682-.6497382.2963221-1.2652306.5637642-1.1485126,1.5722312.3796331,3.2799943,1.3825611,6.0914923,4.7584624,7.452976.7907958.3189307,1.668431.6257049,2.0240442,1.5372664.5982097,1.5332453,1.8752373,2.1402695,3.3410962,2.4911292,2.1724249.5199717,4.3483649,1.0252704,6.7835983,1.5981686ZM262.5743578,181.0989077c.1068916-.803578,1.5720581-.4499222.9530772-1.2331418-1.154238-1.4604397-.7104273-3.0624829-.6915202-4.5804827.0704089-5.6584533.3007027-11.3147895.4331854-16.97279.0173892-.7427158.1512035-1.7915668-1.0913653-1.6892022-1.2258187.1009665-.6084622,1.1161842-.6219102,1.7081626-.1565827,6.8920611-.2879737,13.7849345-.3739876,20.6782339-.028547,2.2876516-1.1040144,3.6553268-3.2616332,4.2803127-1.1794031.3416325-2.3509504.7179103-3.5044162,1.1379806-.4506545.1641189-1.0516338.3634023-1.0191189.9707727.0303579.5673193.596319.7870676,1.0527256.98229,2.388232,1.0215156,4.9375205,1.0731905,7.4716567,1.1798558,2.7133009.1142414,5.3690283-.178459,7.8310512-1.4173795.6280084-.3160147,1.3543603-.73253,1.2929255-1.5938412-.0554164-.7773877-.8238965-.9500281-1.3864491-1.2240478-2.2233143-1.0829902-4.6753244-1.4809845-7.0842211-2.2267229ZM243.9098623,165.6582312c.619913,2.7831639,1.2429948,5.4379992,2.2753487,7.9951435.3719904.9214544,1.082471,1.09761,1.9129983,1.1194996,3.4145942.0900084,6.8304666.1418165,10.2438092.2645262,1.0023155.03603,1.2159391-.4113225,1.2452051-1.2954554.0339795-1.0251905-.5026624-1.3197283-1.3681811-1.5994468-2.6207094-.8469845-5.2928407-1.6307367-7.4972212-3.3901481-2.8241603-2.2540316-2.6426256-4.5497254.4879095-6.2968606.9698273-.5412488,1.9969884-.9798268,2.9978925-1.4654062-1.4439959-.4513203-2.801099-.4919972-4.1546604-.4399494-1.3638405.0524472-3.0793528-.6417893-3.9960539.2527958-.8850916.8637212.1926127,2.4487081.1935713,3.7331388.0000533.0722198.0178685.1442531.0232211.2166859.0492117.6643047.094642,1.3930666-.5179212,1.792166-.9079931.5915789-.9730229-.7464174-1.845918-.8866894ZM288.7403352,164.394665c1.2966271.9153829,2.1480321,1.5801003,3.0608185,2.1457286,1.3160668.8154682,1.0445503,1.3928535-.1040689,2.1373536-2.540048,1.6463816-5.3274327,2.5966095-8.2622927,3.1840475-5.8067408,1.1622935-11.6779787,1.120871-17.5580311.9404947-.7941245-.0243662-1.7944694-.3958639-1.7910342,1.103615.0034086,1.4803587,1.0176543,1.1457565,1.8029643,1.1357437,6.4567719-.0823124,12.8759427-.5803812,19.3077893-1.2316506,4.8811454-.4942341,7.5507736-3.3873121,10.2053027-6.9687946-2.1278734-.912893-3.9788777-2.0444558-6.6614479-2.4465378ZM223.2260362,158.3278052c3.9527806-.6218303,7.5553006-1.2837649,10.3624446-4.0219512,1.2948961-1.263087,1.181427-2.4043164-.3678095-3.3453969-2.4132906-1.466032-5.1119984-1.9657384-7.8651373-2.2812605-1.1316294-.1297-1.1349847.5909132-1.0855068,1.3610443.1738121,2.7067366-.1944768,5.3503209-1.043991,8.2875643ZM259.6092197,166.667111c0-1.1600566-.0069237-2.3201665.0026363-3.4801432.0055922-.6804822-.2366582-1.1951679-.9875893-1.1032022-2.5185312.3084386-5.0517886.6310309-7.2918796,1.9464718-1.4000835.8221656-1.3997639,1.9012279-.3131387,3.0310332,1.074056,1.1167567,2.4081244,1.8579547,3.7858389,2.5062682,4.6635008,2.1944743,4.6813427,2.1752876,4.8041323-2.9004278ZM46.2958851,189.7995387c2.3257454-.1976057,4.6616301-.2706777,6.813417-1.3081178.4537702-.218763,1.0525991-.4441303,1.0145186-1.0108371-.0517482-.7701311-.801654-.723649-1.3433622-.76615-1.4170666-.1111923-2.6555211-.4109896-3.6129988-1.6594835-1.2597516-1.6426269-3.0590344-1.4388563-4.1319253.378781-.4004043.6783518-1.015677.7389744-1.6557819.8419648-.8597002.1383413-1.7214641.264646-2.5791937.4141852-.4424792.0771329-.9006034.2611309-1.0003982.7175375-.1300795.5949476.3340497.9260747.8020402,1.1568211,1.7961405.8855443,3.7336647,1.1256644,5.6936844,1.2352989ZM46.5828601,181.6924439c-.0962131-.5430463-.1946765-.9552342-.2394144-1.3731875-.5272482-4.9260165-.2757906-9.8759731-.4570124-14.8123885-.0852217-2.3211518-.2958627-4.6388684-.5034346-6.9533361-.0413892-.4615195-.1546587-1.1623068-.8245889-1.0627517-.6456705.0959468-.5414951.701746-.48992,1.2339541.7501189,7.7408964,1.2198536,15.5002072,1.3631281,23.2753494.029033,1.5759328,1.0437114,1.2092151,1.9251214,1.270743,1.3539009.0945221,1.0786829-.7396667.935202-1.5601147-.1122109-.6416428-.1278759-1.300009-.1897034-1.950626-.6332678-6.6641907-.5022895-13.3567954-.7743586-20.0341811-.0305642-.7501722.437859-2.2054857-.6355379-2.1440509-1.3634277.078065-.4187721,1.3892585-.3389562,2.0914706.789917,6.949315.411176,13.9424625.8382899,20.9034813.020445.3331776.0757482.7285488-.608815,1.1156383ZM34.6110691,130.4345184c6.2612233,1.2031169,12.3981193.8199686,18.4762567-.796428.4545158-.1208722,1.1152721-.2374571,1.0027816-.8980469-.1037427-.6092744-.7941445-.601645-1.2514631-.6777127-3.2465741-.5400238-6.5030477-.3562256-9.7536362-.0130352-2.9470431.3111415-5.8711181.7290415-8.473939,2.3852229ZM220.8749259,140.6731748c-.3129523-.4874435-.800489-.597291-1.3114332-.6752362-4.9071893-.7485478-9.8142721-.7651114-14.7119279.0561487-.659964.1106464-1.7277088.0846026-1.6919451.9627438.0318758.7817284,1.0974901.8583021,1.7587856.9971228,4.8300963,1.0140193,9.6511385.7815686,14.4410772-.297547.6014319-.1354786,1.2984912-.2899176,1.5154434-1.0432321ZM176.1529425,118.3608089c2.4262326,1.8208994,11.7919539,1.5137258,14.4160985-.4728238-2.8596577-1.6475267-11.8366385-1.3530954-14.4160985.4728238ZM252.9309419,127.6743892c3.372466,1.6725187,13.9715155,1.2294403,16.6141145-.6504439-5.7757172-.7225572-11.2167522-.8029656-16.6141145.6504439ZM185.4093754,144.7999273c-.9945397.0356305-1.6616671.2722222-1.598821,1.3690732.3072802,5.3603736.6028699,10.7214263.9045313,16.0821195.0315296.5595967.1861417,1.0137397.8929207.9254356.6615618-.0826719.7961484-.5477065.7611835-1.1004061-.0503568-.7956823-.109528-1.5917109-.1974593-2.3839846-.5428466-4.8907588-1.1720267-9.7767907-.7623553-14.8922377ZM202.3494109,160.1420738c-.024526-.3799926-.0071368-.5193459-.0454303-.6411768-.4305491-1.3700052-.9605868-2.7164698-1.2804628-4.1113205-.3091975-1.3484618-.9404281-1.6403766-2.1282995-1.042087-.5104649.2571098-1.0829237.3979277-1.5769846.6796567-1.9635148,1.1196727-1.9852447,2.3407912-.0580794,3.4703435,1.5065491.8830677,3.2057907,1.1866198,5.0892566,1.6445841ZM295.2127121,169.3319858c-1.5651877,1.5462539-3.0083314,2.7556687-4.6820085,3.7032869,2.1426262.3048702,4.1053954-.1771541,6.3004556-.4614396-.5466546-1.0950002-1.0205835-2.044336-1.6184471-3.2418473ZM245.790106,176.9743256c-.61725-.707325-1.4178721-1.236151-1.3488479-2.3686059.0252982-.4148775-.0792234-.9422389-.7287486-.7271907-.4952593.1639591-.6397521.6045742-.4717453,1.0588904.4281258,1.1578597,1.2835253,1.8395003,2.5493418,2.0369063ZM122.7887669,163.1351197c-.8224186.1438404-.9477646,1.3163331-2.1358357,1.2820606.4801869-1.3221117,1.3242421-2.2010252,2.4279636-2.8251456,3.1125334-1.7599707,3.1591754-2.4446204.2510915-4.3335721-.4645952-.3017812-1.0689963-.4648215-1.2766947-1.0950002.4723977-.4727172.9396159.0810741,1.4110682-.0361099,2.2713542-.5645098,2.2741237-.5533653,2.0865308,1.8858227,1.1214835-1.1061847,1.3587142-2.68751,2.616675-3.4463102.4273003-.2577223.8451603-.6693111,1.3808968-.355906.6828523.3994323-.0876251.657381-.1200201.9780958-.1215513,1.2038359,1.3218454-.0064044,1.4425712.9108425-1.0544432,1.0645092-3.1045445-.2768424-4.0703907,1.7037021,1.4140108.1412573,2.7042201-.0575734,3.9202391.3408603.4684032.1534537,1.030796.4177136,1.4037184-.0941094.417181-.5725786.3546544-1.2237016-.019919-1.8334553-.2261262-.3681024-.5324477-.7176972-.6422286-1.1194596-.1753433-.641736.3287704-.7050748.7833927-.6572079.3714312.0391057.4881492-.1402054.4471128.6310309-.1014326,1.9062343,1.6308965,2.1464875,3.2566667,1.950453-.9359543.6810947-2.4356595.2503991-3.1021079,1.423278.4495228,1.0326202,1.4599204-1.1140139,1.536574.3621108.0341792.6580334-.0336599.7455919.6189143.7737528.8402871.036243,1.5131133.7043424,1.2417299,1.42658-.3980076,1.0592898-1.2645782.2764829-1.7621676-.0347251-1.7872395-1.1177686-3.5727747-1.5525918-5.7942914-.4408548,2.5884608,1.4152757,5.1882525,1.9409861,7.8053935,2.3804828,2.7342451.4591494,2.8033625.3791671,2.925766-2.3421094q.1690188-3.7577446-3.5263458-3.5164129c1.2256323-.7249006,2.1766989-2.6105501,3.9993027-.5128615.4891345-2.1951134-.7362448-3.8900943-.1919469-5.7335757.1934781-.6552506-.9671643-1.1642508-1.6712671-1.5313014-2.5675432-1.338449-5.4040197-1.6401237-8.2057046-2.0224464-9.0180704-1.230652-17.9913098-.3766772-26.9617663.6255718-.8641473.096546-1.019971.4972565-1.0782102,1.2644584-.3117274,4.1069932-.0760944,4.3917846,4.0088228,4.3949935,5.3653268.0042075,10.7306669.0010252,16.1165518.1753566-.9975488.7155669-2.1487644.7219314-3.2733369.718829-4.8710261-.0133947-9.7419458-.0657887-14.612932-.0982104-.9278722-.0061648-1.8850637-.2214127-1.8381422,1.3438549.0400378,1.3355064.5194657,1.7415429,1.7968794,1.771741,4.4304643.1046947,8.8501435.5516344,13.2940025.2004152,1.9990921-.1580074,4.0314714-.2431825,6.0007648.2909828.0011717.2231836.0023567.4463538.0035284.6695374-3.7473191,0-7.495264.0415823-11.2417708-.0137676-2.7604887-.0407834-5.5271289-.1173571-8.2748619-.3606461-1.2225965-.1082498-1.4028663.2225445-1.4822095,1.3498599-.1759558,2.4996907.5114901,4.2410072,3.1778827,4.8421462.5671994.1278759,1.5023282.2613972,1.4554067,1.0311822-.0390258.6398586-.8586616.9354883-1.4560858,1.1591645-2.7301708,1.0220881-5.5377142,1.0777975-8.3709952.5335928-.8490749-.1630936-1.9474305-.2636607-2.1784032-1.1768466-.2824613-1.1167168,1.0891018-1.1275817,1.7173631-1.7809016-2.468201-.6406309-4.8927294-1.2214248-7.2871794-1.907193-1.823163-.5221287-3.5563042-1.2880789-5.0144005-2.5466522-1.1976178-1.0337519-2.1609874-2.6470994-1.1379007-3.8101918,2.0662123-2.3490464,3.2831766-5.6531007,6.721884-6.6275882,2.0250561-.5738436,4.0429621-1.1729987,6.0643965-1.7597044.5887429-.1708961,1.4305612-.0317293,1.4172596-.9941402-.0115307-.8347881.2186565-1.7364566-.7820879-2.3053737-3.2536709-1.8496995-5.93459-4.2839343-6.9893395-8.0018009-1.4493218-5.1087362-1.7144605-10.293447-.570435-15.5244535.2312257-1.0571861.7508645-1.6879107,1.7747235-1.9423176,4.7834544-1.188577,9.6056816-1.4382572,14.482047-.6564223,1.2936312.2074321,2.203808.8951043,2.5200091,2.107475,1.3266521,5.0866735,2.3212184,10.2182181,1.2282154,15.4963192-.7360052,3.5541472-2.5799925,6.2793249-6.0063171,7.7781646-.5021697.2196685-1.1854214.2794388-1.2607968,1.0263222-.1288878,1.2772673-.1344001,2.1972571,1.7511163,1.9351409,6.9174393-.9616254,13.8718139-1.5407815,20.8685831-1.2149671,4.4471212.2070859,8.8166966.9001107,13.0227257,2.4019463,3.3444649,1.1942225,4.1553395,2.8379678,3.1189246,6.2317642.6215374.1483541,1.2595585.2376036,1.8490603.4571122.7597589.2828741.8796991.9457008.6375019,1.6234535-.317506.8885135-.7287885.2189095-1.1216832.0184943-.5506624-.2808768-.8740935.0600234-.9235981.5287595-.1746376,1.6537847-1.2444328,3.2803805-.6995624,4.8999061.5994347,1.7817271-.2365783,2.3301393-1.5897136,2.8579268-.6287673.245233-1.8306725.2599459-1.0443239,1.5199172.5743495.9202694,1.2827796,1.4233978,2.2965459.5540444.160191-.1373693.2759503-.3265468.4122412-.4917708.8938261,1.3468507,2.5365861,1.9061944,3.4482941,3.1141712.4260221.5644433-.0912866,1.8488473-.2090033,2.8034824-.0118502.0960667-.2643797.2665767-.3267066.237031-1.5495161-.7347935-3.4942703,1.1512156-4.8901063-.7633272-.3252286-.4461142-.8981668-.7350598-1.3997639-1.0217153-.395105-.2258066-.8493811-.7809428-1.3143092-.1549583-.5010513.6746104.0775058,1.036588.5254308,1.4039048,1.6281004,1.3350937,3.0281572,3.3411894,2.7319949,5.1016794-.5738702,3.4113054,1.7485598,3.1095642,3.5611375,3.6295891,5.1656705,1.4820231,10.2960434,1.5906723,15.3978825-.3841202,1.1794697-.4565397,1.9729417-1.058917,2.32966-2.3074908.2359658-.8259736.6838509-1.5938812,1.0590901-2.3771141.9748071-2.0347626,2.8271828-2.1663134,4.8196974-2.1529852-.0839102,1.4087115-5.4810728-.0481731-1.8600584,3.3873121-.6120572.6945294-2.5012618.2957895-2.2547107,1.3921745.28583,1.2710359,1.9514782.1074109,2.8852356.6451047-6.5676048,4.5662491-18.0348627,5.8319059-25.257718,2.735803-2.6858323-1.1512954-5.3139314-2.4537012-8.603872-1.2208789.2730743-1.4480702,1.1807213-2.0197967,1.8659835-2.8301653.5972244.7834859-.4548354.9850994-.3065079,1.6463683,1.4936869.4259555,3.0793528.0264433,4.5657964-.1551447.7934321-.0969454.7293344-1.5771844.6786448-2.4864823-.1525483-2.736016-2.253246-4.2893135-3.8780443-6.1004398-.7710499-.8594871-1.5875833-1.5896471-2.0288242-2.7482257-.623934-1.638233-.246884-2.4375902,1.4832347-2.6491632.4019488-.0491451.7862954-.2421972,1.2283751-.3850789-1.8477821-2.1409619-2.9960018-2.0325923-4.5283018.2813029-.2595198.3919094-.3434966,1.1251983-1.0045125.9576575-.8592341-.2177777-.0013049-.8888064-.0126358-.891243-1.3974605-.3007426-1.1587384-2.2607689-2.4863092-2.5155087-1.1670336-.2239292-2.4433422-.6188344-3.380375.6118042-.1385943.1608834-.2771753.3217801-.4157696.4826634ZM107.9631301,132.0983958c-.0640444-4.1255808-.4712926-7.2149863-.9891072-10.2923552-.2189095-1.3009544-.582405-2.2019839-2.221357-1.3030848-.8606855.4720515-1.9259669.5996344-2.9151807.8035248-3.469518.7151275-6.9379042.2870283-10.402722-.0768533-.7047286-.0740173-1.5038728-.4132797-1.5470528.7949367-.2107741,5.8962965-.3868498,11.8215528,2.6993868,17.1554832,1.5050578,2.6012164,3.7556409,4.5743313,7.0039592,4.3599488,3.5780074-.2361522,6.0426134-2.2574802,7.3586402-5.5953941.8652791-2.1946607,1.0748282-4.5024843,1.0134335-5.846206ZM97.7237414,153.5628585c-.4855261-5.4969308.3021273-4.7053627-4.6039834-3.7806462-1.7810348.3356941-4.8056236.5025425-4.8659798,1.8894044-.0887169,2.0387038,2.3778864,3.3812005,4.3038001,4.4588515.251957.140991.5114901.2717029.7771081.3845463,3.7525385,1.5944005,4.5862614,1.0326867,4.3890551-2.952156ZM87.0750142,153.1620148c-.5668932,2.7971046.3512858,4.933313,2.5920159,6.5930495,2.1553419,1.5964909,4.6797183,2.2141403,7.2174362,2.8069709.3317396.0775058.8154283.2465511.9535566-.1836651.3815238-1.1884306.3478905-2.4482687.1305655-3.641253-.1978188-1.0859595-1.2857355-.7534476-2.0037656-.7816485-2.9906493-.117437-5.4608475-1.2064589-7.364805-3.5649322-.378275-.4685497-.6792839-1.1222824-1.5250034-1.2285216ZM91.2552657,119.9844222c4.6347008.7109599,9.2439836.977004,13.739664-.745512-4.6370309-.7517034-9.2378987-.8704985-13.739664.745512ZM134.515731,169.4654805c3.4227296-1.8308323,5.6563895,1.6434657,8.5455263,1.6995212-.263461-.8780746-.7375231-1.6542907-1.6142795-1.8845311-1.9439686-.5105314-3.5843852-1.3635875-4.6325305-3.1715049-.1562232-.2694793-.7149011-.8313262-.9415466-.1958482-.2714899.7611702-.406609.9859915-.7392806.1283419-.2810366-.7245411-.7349133-.8900447-1.3219253-.5830974-.5853875.3061218-.6622409.9460869-.4927827,1.5217147.2817157.9569252.5496771,1.9420912,1.1968189,2.4854038ZM96.0582929,165.8319102c3.3196859,1.4571643,6.195641,1.2057665,9.3986356-.2946577-1.4617446-.6045077-2.5620574-1.0766524-3.5720956-1.9061411-.8756114-.719082-2.627926-1.2752301-3.3441453.7102143-.3671038,1.0176676-1.4089911.8482094-2.4823947,1.4905845ZM100.2673045,145.9027833c-.2442876,3.9302252-.2636341,7.8303988.7626349,11.6597773-.258934-3.8930635.1909616-7.8251128-.7626349-11.6597773ZM85.5674931,154.8199537c-1.5622717,2.8971124-.650111,4.4398113,3.0970483,5.4574789-1.8144151-1.4343426-2.465578-3.2320476-3.0970483-5.4574789ZM99.698494,157.0772608c-.228656-3.6137312-.4572986-7.2274623-.6859546-10.8411935-.1994698.0144599-.398953.0289199-.5984228.0433665.4225069,3.5993644.0548039,7.2563023,1.2843774,10.797827ZM129.6821728,158.5870986c-.9580969-.3753324-1.7570148-.215887-2.5506333.1086891-.5341919.2184967-1.1951945.4331322-.8688741,1.170602.3477573.7859359,1.0633109.6459968,1.6264893.2597728.6214575-.4261951,1.1544111-.9814379,1.7930181-1.5390639ZM152.5162413,155.5499672c-2.4123985,1.704248-2.8445454,3.1660991-1.6170357,5.8230382.3712181.8035381.1597117,1.4170466-.344868,1.987668-.862656.975566-1.1819862,2.1366878-1.2273366,3.3884838-.7369106.3710051-.9967366-.8124191-1.4911571-.4931289-.8694599.5614474-1.1327878.6641316-1.1653559-.5858669-.0404905-1.5546822-1.3741994-1.1025897-2.3204994-1.1721066.5969981-.5481459.4000714-2.2251384,2.061166-1.3371042.3070672.1641588.2499464-.7881062.35548-1.2267241.1000345.1032301.2384424.1890976.2942183.3123665.6237343,1.3784335,2.1078345,1.421121,2.8485798.884772,1.0592632-.7669622-.3803388-1.1421481-.8149622-1.6640505-.1238681-.1487535-.2455126-.4844077-.1695247-.5865592,1.0040731-1.3496335.1310847-3.226189,1.3024989-4.5287412.5308765-.5903273.7068589-1.4276985.1981383-1.9816763-.4014828-.4371932-1.031555.1029771-1.5260686.3731887-.2479625.1355186-.5406763.1891109-.8131647.2797451.9558867-1.2509039.9136919-2.699267.8553062-4.1649927-.7471896-18.7573932.8260003-37.4316617,2.0165213-56.1198044.1661294-2.6077008.3095171-5.217239.4232792-7.8276826.0387196-.8884336-.0340993-1.9995448-1.1982303-1.942251-2.0021146.0985565-1.7674936-1.1148926-1.6608815-2.3583934.0806214-.9403216.2322909-1.8815153.2189894-2.8204322-.0084549-.5971446.5321681-1.6368549-.7110265-1.6207972-1.0587306.013661-1.1741704.8205811-1.1111645,1.7213243.1722543,2.4631148.3289035,4.9310229-.2067397,7.3764156l.0636583-.0306907c-2.5767837.0059384-2.8276089-.451733-2.4616368-4.5219639.7407586.4811322.6156788,1.2434076.6668611,1.9385095.0460294.6249859-.1158525,1.3117527.7500124,1.906008,1.092031-2.9707968.2037173-5.8119136-.0123695-8.6389366l-.0081087-.0068838c1.4966428.1581938,2.6566861-.4976693,3.5696324-1.5880493.1999758.1460906.3993657.23536.3906844.2935725-.3315532,2.2210241.5163101,2.8782386,2.7065103,2.3299795,2.6998795-.6758553,5.0401514-.1121643,7.1007315,2.0562794,2.3180494,2.4393744,5.4805269,1.8719086,8.4540932,1.661028.5868921-.0416089.9090849-.4150506.9894401-.9845003.1975658-1.3998571,1.0442573-2.5336435,1.5989808-3.8664338-.736338-.3471848-1.4817701-.6356378-2.1596559-1.0379195-.5582918-.3312935-1.1593909-.811567-.9752598-1.5436842.190935-.759193.9813846-.9546484,1.6052521-.803618,1.6987356.4112293,1.7995025-.4188054,1.8790454-1.8162792.7411846-13.0237576-.579782-26.0116183-.6016183-39.0200705-.0030358-1.8176373.1644384-3.6576302-.0594908-5.4481984-.4583505-3.6650932,1.2133293-6.507435,3.2306096-9.250864.3627232-.493292.4823439-.7229766-.0133149-1.2255258-.5590907-.5669265-.8516447-1.3397073-.5480127-2.2135411q2.0255354,2.3862548.2602255,4.8227598c-.6886975.9479377-1.0543766,1.8949267.4202168,2.3686925,1.1593776.3724897,1.0200776,1.2754498,1.1022036,2.1089496,1.5893674,16.1291077,2.9163524,32.2796323,3.8788565,48.4586307.070835,1.190774.0699562,2.1401164,1.712157,1.9812369.6718143-.0649898,1.5587166.1845439,1.6743162,1.0730108.1099807.8452535-.5773587,1.4129856-1.2681599,1.5666656-1.9400807.4316076-1.7753759,1.7005664-1.4950983,3.146706.1785522.9211349.3073867,1.8724545.2893051,2.8069709-.0411429,2.1319344-.8953706,2.7896749-3.214179,2.6286583-.2910094.0282009-.6044944.1321366-.8501268.0449376-1.4459665-.513261-2.236496-.7823142-2.2323417,1.5021418.0045271,2.4984923-3.6826621,4.0218714-5.9397296,2.8458236-2.0293834-1.0574257-3.2387183-2.8702963-4.4220493-4.696282-1.3149483-2.0290639-2.836663-3.8349175-4.7963032-5.2854909-2.3507507-1.740065-4.8930223-1.509505-7.4982465-.9068414-.7864685.1819342-.9047177.7707836-.8880741,1.7216838,1.370205-1.0636304,2.6665258-1.6990552,4.2891804-1.4411332,2.2032754.3502206,3.947468,1.4788142,5.3469922,3.093653,1.5172409,1.7506769,2.8510963,3.6592946,4.2888342,5.4801541,1.5962645,2.0216342,3.3688976,3.7829763,6.0428797,4.3482317,3.4227029.7235425,5.9165484-1.1546108,5.9229395-4.5880322.0015712-.8375575.0724861-1.5871572.7509844-2.1593231-.5514746,1.0626318.5727517,1.8332024.4618923,2.8818003-.2578022,2.4386421-2.4585078,4.7200091-5.0194868,4.9912193-3.4789981.3684087-6.2784062-.9077668-8.3880915-3.6260208-1.5996731-2.0611393-3.0262266-4.2559332-4.6021194-6.3364856-1.0492637-1.3852507-4.9113968-1.4696802-6.0567005-.2276441-.3450944.3742539-.2709972.8009417-.2460452,1.2274564.6504173,11.1251061-.7609439,22.1873394-1.0371871,33.2851767-.269,10.8067213-1.2944168,21.5955607-.6954747,32.4221079.0401043.7249538.0185343,1.3978066.5399839,2.0309013.3945324.4790152.5603822,1.1463956.9223199,1.9356202,1.4349285-1.3665301,1.8170248-3.7434711,4.3090195-3.7698744-.1577677.4488703-.9833951.8189301-.354508,1.5970767.9642617,1.1930775,1.9570838.3282245,2.964419.4251566-1.1784711.3106488-2.157206,2.5099032-3.6030526.1590193-.441414-.7177372-1.0048054-.3754922-1.344028.218803-.4342107.7606909-.9235182,1.4653662-1.6252377,2.0148968-.0049132.0060316.0373082-.0559224.0373082-.0559224ZM171.3763186,82.2566114c-.3360669.1812018-.9750467-.5413287-1.0745619.4424792-.0911535.9012159.164758,1.5739355.8866361,2.0454678,1.8381688,1.2007202,3.8597896,1.0055777,5.8514521.5957598.7890649-.1623746,2.0451349-.4718252,1.6004987-1.5643089-.4423727-1.0869181-1.3650654-.045164-1.9917956.1770077-1.0850807.3846395-2.1325602.9083526-3.2908726.9884282-1.1018574.0761743-1.9415719-.4923567-2.4841789-1.4285906-.330954-.5709942-.3585424-1.1204582.5099589-1.2526215.9618917,2.314268,2.7881303,1.6191927,4.4237802,1.1621337,1.5057768-.4207627,1.8242415-1.2948429,1.6476066-3.0727154-.2543936-2.5607859-1.9476968-1.862748-3.2168686-2.0569385-2.6251033-.4016492-2.7764932-.1788118-2.6503482,2.3953022.0252716.5154846.4845808,1.1353709-.2113067,1.5685963ZM171.3024478,23.2739504c0,1.4202988-.0526469,2.7947512.0095601,4.1639908.214236,4.7151358.4641824,9.4286806.7084301,14.1424183.5413553,10.4471337.9632764,20.8959184.587478,31.3609407-.0237004.6604434-.3928148,1.6376271.5804744,1.8691192,1.1133881.2648125,2.407725.5828644,3.4086025.2437151.7711963-.2613373.247603-1.5869308.1951159-2.4178909-.9883616-15.6528753-2.0369063-31.3020224-2.9850038-46.9572678-.1097677-1.8126242-.8934533-2.4039203-2.5046571-2.4050254ZM162.3416978,83.7916143c1.5066822,1.9627958,2.6782162,3.5977267,3.9683856,5.1329693.9173268,1.0915517,3.9962802,1.399005,4.8049179.6034957,1.1381004-1.1196194.6025504-2.4117594-.7404923-4.2525778-1.3421639-1.8396068-2.6888814-2.1724116-4.7048435-1.5293308-.8539481.2724219-1.8672085.0454436-3.3279678.0454436ZM180.3751624,76.7296157c-3.7981152.0629926-7.4929871-.5490846-11.1995627-1.0739428,3.5673289,1.9497539,7.3032638,2.4084107,11.1995627,1.0739428ZM149.9023491,83.3625964c1.5252165-.4790817,2.7600759-.8310066,3.5382093-1.9784008.0275351-.0406103-.391936-.5435589-.5288793-.5117364-1.2850565.2985922-2.4889855.7518166-3.00933,2.4901373ZM144.3056502,164.4749801c-.2003752.3005296-.1963941,1.0895145-.7865617.5745093-.3678095-.3209545-1.2072178-.916022-.3559194-1.5445763.8361195-.6173432.7996901-1.5774373.3262539-1.9798388-1.3598726-1.1558225-.4101507-2.7905137-1.6449703-4.1719164,1.5396365.0379207,1.6971112,1.2259119,2.4270315,1.4569113.4781763-.2651254.4593092-.6969394.3755321-.9902789-1.0348171-3.6235442.2916486-7.2664615-.1465033-10.9137061-.4502684-3.7481446-.5295184-7.5396024-.8240163-11.3079723-1.0985553-14.0568904-2.492474-28.0850473-4.1437555-42.0877595-.2552724-2.1645824-.4947267-4.3310689-.7343541-6.4974621-.0634586-.5736838-.2924075-1.2467363.1173837-1.6916788.7418371-.8054288.4829564-1.3252141-.1972329-1.9817562-.7362981-.7107203-1.3955564-.5151916-2.1664199-.1321366-2.0458139,1.0165758-3.4616089,2.6038261-4.380001,4.6697189-.5010912,1.1271822-.9603738,2.2768133-1.5280525,3.3698297-2.1378862,4.1163269-5.0843035,5.4065362-9.572927,4.3193518-2.1757669-.5269886-3.6844863-1.6433059-4.0374764-3.9879984-.1378753-.9159554-.4407882-1.6064504-1.6039738-1.6930768-.6750764-.0502636-1.360059-.4792948-1.9632086-.8603526-.8379171-.5293986-2.1633308-1.0796748-1.861057-2.1373669.3141773-1.0993143,1.599327-.5116232,2.4824346-.3770633,1.2585066.1917738,1.7224361-.6619613,1.9736741-1.5886484.2328635-.8589545.9865774-1.7521149-.4474856-2.5743604-1.4221728-.8154149-1.272181-1.9841595.2648591-2.4589472,1.1267961-.3480702,1.2012927-.9354217,1.2880257-1.873573,1.4872691-16.0848691,1.7361504-32.2258336,2.2041409-48.3561396.0673732-2.3219573-.1009399-4.6507319-.159472-6.9763708-.0188538-.7489871-.1483142-1.5768948,1.100193-1.0833131.6844101.2705778.9077801-.0340627.7912219-.7451724-.2083641-1.2712689.0713543-2.6110727-.7162459-3.801677-.5576926-.8430766-.3789274-1.6693365.4753536-2.2767368.4387777-.3119737.880671-.2183936,1.0967711.2398737.3620042.7676912,1.2600112,1.3769389.296362,2.4745955-1.1656622,1.3277705-1.2240478,2.9264417.1171707,4.2424153.7160995.7026082.7656973,1.5196808.8572369,2.3660861.9013357,8.3326251.6808151,16.6989401.7376695,25.0570465.0563618,8.2854672-.2323309,16.5769261.5009314,24.8507096.1588595,1.7926253.1454115,3.5414648,2.6248237,3.6922022.6286608.0382136,1.2475752.5340388,1.2984778,1.2891441.0723396,1.0726845-.8361595,1.4198893-1.5508742,1.8957489-.7492401.498861-2.2075495.4173474-1.6445442,2.0020147.3220597.9064752-.0300516,2.4144623,1.1293659,2.5733085,1.6823983.2305201,3.5493006.1585533,4.7980474-1.3661439,1.1087545-1.3537744,2.1669924-2.7407028,3.6593878-3.702701,2.2475073-1.4487226,4.6323707-1.3616302,6.7040288.2242554,1.0362285.7932524.6995491,4.681669-.4628509,5.1875136-.3055093.1329488-.7776008.0049664-.8231242.5011844-.0546442.5955867.3717773.9761785.8117534,1.1929709,1.9541811.9628503,3.8947145.9872165,5.7632545-.2597595.0000533.0000799-.0636051.0307706-.0636051.0307706,1.1539717-.4657536,2.1039865-1.5557608,3.3925315-1.2960412-2.5186643,2.6946068-5.6010263,3.6989728-9.3189196,2.2327012,1.6514013,12.6442909,3.0644002,24.8827851,3.9619412,37.1769885.6815474,9.3354566,1.0819384,18.6793149,1.0468537,28.0407621-.0029026.7775342-.1682332,1.6247716.703477,2.1324404.8073328.4701608,1.1460228-.2984924,1.661747-.6027767-.2419708.9113751-.4839417,1.8227502-.7281627,2.7425935-.7828601-.3444686-.930402-1.2528878-1.74366-1.4099631-1.2654836,1.5542429-.2974671,2.9326764.310995,4.3353163-1.6539179.8070133-1.7887441,2.281154-1.6935562,3.8563012ZM134.8470844,81.4579333c-2.2095334,1.0309957-3.0779681,3.1676702-4.1497605,5.1113193-.9777363,1.7730458-1.749412,3.6651931-3.119577,5.1999563-1.5788354,1.7685055-3.5041765,2.5473578-5.8507863,1.9021467-2.502114-.6879652-2.8154924-1.9258205-.9502278-3.8248648-.499813-.1852895-.957045-.4262484-1.4429174-.5222086-1.8367441-.3627232-2.2675995.1026309-1.759691,1.8565033.4811056,1.6613742,1.594467,2.6957785,3.204326,3.2780504,4.1091769,1.4862705,7.55092-.0733515,9.4957674-4.3553286,1.3402199-2.9507313,2.2825254-6.1243134,4.7795531-8.4170113,2.8050935-1.7527474,4.5063722-.3139509,5.7157205,2.4596529.6822797-1.3255203.3188375-2.0765446-.2827809-2.7432593-1.3732674-1.5218212-3.317702-1.4918561-5.6396261.0550436ZM126.2979631,79.2404842c-2.5135248-.3096103-3.3743567-1.8166054-3.6228119-4.0381288-.7529283-6.7321697-.6799363-13.480983-.5827645-20.2356948.1357582-9.4376148.7410914-18.8735253.1381949-28.3147219-.0601698-.942159-.1552645-1.8823575-.201001-2.8250757-.0391989-.8083314-.4365541-1.2264878-1.2364306-1.141276-.995232.1060162-.5144993.8454067-.4875633,1.3390415.0671868,1.2309149.2510249,2.4575791.2772019,3.6883043.29061,13.6621982-.4799605,27.3006559-.9838079,40.9439936-.1123374,3.0418515-.4898934,6.0775716-.8369983,9.1056089-.1843175,1.6081614.4054373,2.0572381,1.9404668,1.8097749,1.2569355-.2026321,2.5489823-.1875264,3.825464-.2689467-2.2540849,1.3372507-4.7789007,1.2011329-7.1640037,1.7521548,3.1960042.6048805,6.1364432-.1026109,8.9340537-1.8150342ZM124.3597465,85.7178742c-1.5649214,2.6053707-3.8805342,3.0826682-6.1385336,2.1402562-1.6661542-.6953949-2.9747913-.4208825-4.6477227.022835,1.7901421,1.4724497,3.7754001,1.2132628,5.6859751,1.3105544,1.8508579.0942692,3.6676829-.2876275,5.8914366-.890524-.8968086,1.4067809-1.996802,1.0943079-2.6258622,1.6630518-.6524278.589888-2.0638422.8787937-1.7321692,1.9010815.3882744,1.1967923,1.7835779,1.3107674,2.9639663,1.3465445.2708241.0082019.5713803-.1242675.8172258-.2641001,2.0608331-1.1721998,3.4604905-2.9061266,4.471727-4.8959116-1.569009-1.1702292-4.3150777,1.2655502-4.6860429-2.3337876ZM119.2728866,87.3653477c.773806-.065083,1.3582349-.0736178,1.9279509-.1695247,1.9815165-.3336436,3.1329451-1.8747048,2.6396964-4.0042824-.4310551-1.8610437-1.8694986-.3687682-2.8289936-.5086008-.6247462-.091047-1.3626421-.046855-1.9267525.2086038-1.6122956.7300934-1.0490107,2.2884372-1.1334269,3.5546798-.0755485,1.1336799.7783331.9858717,1.3215258.9191243ZM66.3737056,200.3870975c-2.8768073,1.4684419-5.4262422,2.8252255-8.0274586,4.0741588-1.3034176.6258247-2.6898135,1.0946407-4.1874748,1.031555-.7805234-.0328877-1.4385568-.2589739-1.7165709-1.0656943-.3013418-.8744131.2258332-1.3873811.8892525-1.7632861,2.7129214-1.5370933,5.3881018-3.1527443,8.1735958-4.5468095,3.5904967-1.7969194,7.1137535-4.5126169,11.0843626-4.5239878,5.2611114-.015099,9.3680114-3.3012981,14.3887498-3.788209,5.2014609-.5044599,10.3801666-1.3240823,15.6147149-1.1997482,5.4489973.1294337,10.8738548.6148533,16.0844763,2.4255536,1.8612301.6467956,3.6531298,1.4329712,5.183579,2.6976293,3.072975,2.5392491,3.3426807,5.9431382.7277766,8.9641453-2.1725847,2.509983-5.1409715,3.7904193-8.1153101,4.9142462-13.8632658,5.2381699-27.9824697,5.0088615-42.2007361,1.6920782-1.0461747-.2440613-2.0400353-.7530349-3.0253744-1.2097077-3.1480308-1.4589884-5.2389022-3.6486161-4.8735826-7.7019238ZM93.5835942,205.3773715c2.4820352-.2080046,6.1138479-.4040792,9.7171402-.8373445,7.0077539-.8426438,13.5589415-3.0416718,19.596229-6.778592,1.6717997-1.0348038,1.4331176-1.6933032.1064789-2.7394512-2.3423357-1.8471164-4.9976371-2.9671485-7.8897165-3.4753366-9.0417709-1.588755-18.0871501-1.2989039-27.1087223.1890576-5.9878894.9876026-11.7832726,2.5633889-16.8228648,6.1535528-1.7561493,1.2510636-1.7664417,2.7545236.0007989,3.9879318,1.3186632.9203493,2.8453043,1.4426111,4.3956992,1.8533744,5.5296986,1.4651132,11.1783522,1.7329282,18.0049575,1.6468077ZM69.0220433,199.0492477c-1.6927706,1.6032681-1.6716532,3.3798424-.0462957,5.2293821,1.9193361,2.1840887,4.5694314,3.1033462,7.2548776,3.7016092,13.1677777,2.9335552,26.2185578,2.6047848,39.0501488-1.8115125,3.0333633-1.0440443,5.8878948-2.4764562,8.2107509-4.7800058.9253024-.9176331,1.7534464-1.8727075,1.3109805-3.5748518-5.8301749,4.4143-12.25105,6.8512378-19.272931,7.8358446-5.5504299.7783065-11.1294201,1.0122218-16.7189557,1.1399379-5.2686343.1203663-10.4205772-.5416216-15.4034881-2.3347329-2.503765-.9009895-4.6902504-2.0506472-4.3850872-5.4056708ZM145.7189287,77.9195842c-1.7674536.1483275-.9676969,1.6329203-1.3777278,2.6831427-.9033196.0144333-1.987921-.1374559-2.2891562-1.0432987-.9118811-2.7421275-2.8760217-5.3198565-1.8059069-8.4525021.4542495-1.3298343.3133784-2.1131405-1.1077825-2.6647083-.8441085-.327612-1.7418491-.9602473-1.5682767-2.1113097.1595119-1.0578052.9837413-1.6290923,1.9539548-1.7931047,1.4477773-.2447337,1.7695307-1.16005,1.903132-2.4399403,1.770556-16.9625975,1.9452468-33.9307806.2776014-50.9111735-.1064123-1.0836194-.1657034-2.173307-.2018798-3.2616698-.0141271-.4250467-.0054591-1.1795163.1650776-1.232819,2.6311349-.8223753,1.35456-2.9030575,1.51065-4.5099606.0209842-.2160535.0036749-.4356154.0092938-.6534165.0155251-.6024938.1191946-1.2047979.7268579-1.4654328.446021-.1913111.8276114.0766569,1.1190336.4529347.4750207.6133487.464502,1.260657-.0538186,1.7762381-.7253266.7215053-1.0298773,1.5368636-.9492692,2.5384768.061954.7700046-.1182892,1.5445397,1.018067,1.8395502,1.1435196.2968746,1.0294512,1.5228631,1.1403773,2.3899363.8490483,6.6367555,1.1254913,13.3206622,1.3609245,19.9976052.3866367,10.9650482.6279951,21.935489.8705251,32.9049777.0284672,1.2870803.2588008,2.0773169,1.7117176,2.1324271,1.0505419.0398514,2.235777.3655859,2.5022072,1.4031792.2839659,1.1058652-.8443614,1.7580067-1.6759672,2.2811673-1.2166048.7653578-1.3010476,1.8292146-1.0566668,3.0364457.8164136,4.0330825-1.7703429,6.3943319-5.9150039,5.3648408-.757482-.1881522-1.487602-.4864848-2.7113835-.8942322.9083526,2.5086382,2.8714547,2.2284937,4.4339128,2.6252098.0013981.0005526.0095068.0074363.0095068.0074363ZM142.4243146,7.5246223c.0295856.6270597.015645,1.2006336.0891296,1.7627801,2.2896089,17.5131434,2.5698067,35.0524339.8138039,52.6318953-.1572351,1.5740221-.5511018,2.7173552-2.1982291,3.2966579,2.5229384.065802,4.9340986.4391172,7.3868278-.3295959-1.7457371-.1261383-1.9554593-1.1721398-1.9647931-2.5504935-.0535657-7.9226108-.0653626-15.8476716-.2871215-23.7664145-.2644596-9.4433202-.7631009-18.8799131-1.0703012-28.3223479-.0582125-1.789736-.7307857-2.6691089-2.7693165-2.7224815ZM146.0034138,75.575624c.3260009-.0397914.9673641.076374,1.3017666-.191148,1.8676346-1.4941796-.3504869-3.30715.290823-4.9605419.1702038-.4388642.2943382-1.1163173-.5332199-1.4000635-2.4015469-.8234371-4.3019759.2681944-4.6272844,2.7218423-.0284538.2146288-.0020638.4470595-.0752689.6436067-.8638677,2.3189482.5001192,2.8977049,2.3857821,3.0758577.3593146.0339529.7190554.0633121,1.2574015.1104467ZM150.5237667,66.2015144c-3.7213285.4907788-7.489938.2592069-11.2505187.3215271,3.7854262,1.8503852,7.5138515.9569984,11.2505187-.3215271ZM136.3191613,227.7738606c-.5218357-1.3594732-1.1290596-2.6818778-2.0495155-3.8238928-1.8430287-2.286693-3.5240157-2.2781182-5.2964623.0369887-1.3424435,1.7534597-2.1623589,3.7683432-2.7983961,5.863755-1.9129184,6.30208-2.4534216,12.8228165-2.9979857,19.3331674-.6701898,8.01208-1.9813168,15.8530641-5.7613904,23.0720049-.7709966,1.4724098-1.7857349,2.8162513-2.6674445,4.2322061-.2650055.425596-.5813665.9338239-.1116184,1.3786199.4663927.4415738.9732625.0884905,1.3917084-.1643319,1.5367072-.9285246,2.602974-2.3069315,3.4653771-3.8410157,2.8072105-4.9935494,4.5488733-10.3996463,5.3926488-16.008768.9820637-6.5284857,1.4339432-13.1349699,2.2442851-19.6917364.5070962-4.1030254,1.09034-8.2305235,3.2316481-11.8933066,1.0011305-1.7124499,1.7720605-1.7071773,2.8291001-.0234608,1.1623468,1.8514038,1.900003,3.9090546,2.674275,5.9451088,2.2149392,5.824636,3.9302385,11.813524,5.9579709,17.6996745-1.5609802-7.4513649-2.7639506-14.9761745-5.5042007-22.1150131ZM171.149114,161.4288346c.4529181,1.7687318,1.7737515,2.4274443,3.4191479,2.6029074.7674682.0818464,1.4864436-.560289,2.3610964-.2963354-.6536794.8119531-1.5732298.8817495-2.3788584,1.1541049-.7893045.2668563-1.1053193.7312518-.7258193,1.4654328.3896725.7538471,1.0836427.785603,1.6130413.2197483,1.0791423-1.1533992,1.5687294-.3988598,2.0391698.5311162.1686459.3333906.2869351.7323968-.2651786.8254677-2.5559459.430882-1.2643785,1.8087297-.7488007,2.9971336.1092084.251704.2261661.5000393.3722034.8218727-1.080527.153254-1.8814687-.5125686-2.7839761-.6095007-2.0652137-.2218121-4.1981334-.902108-6.0898146.6504839-.3352946.2751781-2.5157351-.9514794-2.798223-1.5639361-.3276253-.7103341-.8102222-1.3843187-1.6109774-.8913496-.762768.4696016-1.6972444,1.0160165-1.8462376,1.9970017-.1168645.7693988,1.0415278-.0914464,1.0270013.4914646-.0133149.5340321-.3595676,1.0957991-1.0424731,1.2581338-.8286899-.8257473-.0464822-1.9966422-.6905483-2.9917278-1.1320688.5098391-1.9760308,1.0783833-1.3083042,2.5498477.1892041.4169147.1075041.8998178-.2865623,1.1816933-.5491711.3928281-.6608961-.3094905-.9915039-.4488703-.9495355-.4003244-2.1890818-.477697-1.761382-2.0419127.4852998.0514752.8183708.9469124,1.450174.2113067,1.2728867-1.4820497,2.6598018-2.880389,3.5993644-4.9291055-1.685301.1618154-2.3897499,2.0144441-3.2109568,1.9188701-3.1019215-.3610855-2.072883,1.3856635-1.7650037,2.8693776-.5345781-.1547719-.9100569-.3120469-1.0144054-1.0432321-.1902027-1.3328168-.5996877-.4812521-.911668.0047667l.0257509.044445c.7238354-1.8801905-.093164-3.9196266.8260668-5.9782494-2.606356.4580176-3.0123924-.6718143-2.9817949-2.878232.0273487-1.9744197-.3076131-3.9831251-.1567425-5.9962112.003342-.0053792-.0388794.0565748-.0339662.0505432.9245834,1.0940283,1.8674482,2.0761585,3.3389392.3484364-.0368555,1.0631644-.465181,1.6417614-1.1788439,1.4942062-2.6016425-.5379467-1.6994147,1.1719601-1.5861985,2.3679668.0307973.325415.1903358.6386336.296868.9767643,1.6181675-.8509523,1.9522238-2.670214,3.2736165-3.6858977.5557087-.4271671.8431764-1.1887102,1.7177093-.9681629,1.0376399.2616635.3421917,1.2871602.7854832,1.8363979.7236889-.0058053.605453-.6687252.7998099-1.0861459.6941299-1.4906777,1.5510606-2.7853209,3.4897166-2.4666432,2.3621349.3882878,3.4636994-1.0308626,4.3532514-2.8652633.1839447-.3793269.1729333-1.3244551.8464918-.9380581.8200219.4704138-.0947485.9401219-.3474644,1.343482-.4603611.7348201-1.0487311,1.3971143-1.0057641,2.5718705,1.7911807-.7221577,3.0757711.1986576,4.6692129,1.5500087-1.6896549-.1216312-2.853493,1.0210762-4.3304031.2279103-.4877231-.2619298-.7985583.5186801-1.2600512.7011202,0,0,.0576134.0598636.0576134.0598769.6867935-1.840206-1.064669-1.7880517-1.8513106-1.9742732-1.1068904-.2620629-1.3530687.7185627-1.1604694,1.7011989-.7751908-.0299052-.3756786-1.5543094-1.2198004-1.1620538-1.3801911.6414031-1.9997845,1.9583753-2.3579008,3.7334983,1.4951515-.4480315,2.2997149.0010252,2.7015305,1.4301884.2270981.8077589,1.0678912.830767,1.7136217.1522554l-.0574935.0614614c2.6705336-.5887695,4.867298-2.8648372,8.0069138-1.831325-.0648433.6522148-.5369348,1.4998251-1.0802074,2.3205526.0395451-1.4760447-.6932512-2.2259905-2.1267283-1.8859025-1.3239225.314124-2.3344933,1.2071912-2.5117406,2.6267543-.1109527.8887532.6905483.9254888,1.3701384.926128,1.4160879.0013315,2.3327757-.939576,3.3236404-1.743407ZM175.2306492,170.6744825c-.1195141-2.5954378-2.9483613-3.8131078-2.9311585-6.4647475.0038613-.5970647-.8673296-.6492323-1.4564319-.6702964-1.382388-.0494913-2.6763388.2683076-4.0995369.8981268,1.0387583,1.3522698,2.5463326,1.5931489,4.0085964,2.4479491-1.4659521.0860672-1.6159306,1.3156274-2.3460373,1.9735675-.700601.6313238-.2982527,1.096891.5720461,1.2837649,1.3201677.2834466,1.2595851-.7435547,1.3452529-2.2748827,1.1057453,3.0967686,2.3421893,1.1872056,3.9053264.6954481-2.2510091,2.7117031.451986,1.575014,1.0019427,2.11107ZM165.9950939,165.8199801c-1.0095322.3670506-2.5093173-.27141-3.1716248,1.1260904-.275258.5808072,2.536919,2.4355663,3.6254216,2.3836783,1.1675662-.0556561,1.6369547-.8905374,1.6943817-1.8989777.0811008-1.4239304-.948204-1.6001658-2.1481785-1.610791ZM158.5580825,159.9246955c-2.6190051-.8807509-3.8347844.2701317-4.557195,2.2774524-.1430148.3973285-.4134129.8367587-.0830048,1.2066453.4173541.4672315.9745141.2403731,1.3806837-.019959,1.3350671-.8556658,2.3024178-2.0593685,3.2595161-3.4641388ZM160.6534143,163.3812848c-1.1555695.4288714-2.1173546.7589866-3.2196248.616025-.8487287-.1100739-1.364626.7167119-1.2680135,1.64276.0574003.5499833.6148134.7821811.9598279.5401037,1.1494047-.8065073,2.9849905-.7069255,3.5278104-2.7988887ZM294.6378567,248.4659154c-.9774434-10.2697998-.8257073-20.5875598-1.249093-30.8811665-.0384799-.9357413-.1927991-1.8695386-.3384902-2.7971046-.0931773-.5931767-.3119404-1.174663-1.0582646-1.1501371-.7707436.0252982-.8740136.6312572-.9106827,1.2345266-.0219961.3616847-.0129154.7254199-.0133947,1.0882496-.0170164,13.0652533.1595386,26.1254737,1.4488691,39.1397577.3855449,3.8917719.7468834,7.7963794,1.5811122,11.6306578.1555974.7151142.3727626,1.5866512,1.294257,1.4225323.7792119-.1387674,1.0528854-.9096442,1.0132071-1.7150064-.0178153-.3616847-.0030358-.7249405-.0030358-.9332115-.6020178-5.7842121-1.228455-11.407341-1.7644844-17.039098ZM223.2567935,212.4015959c.8704719-.4486573,2.4104146-.035524,2.5982605-1.172719.2180707-1.3199547-1.3331897-1.5360015-2.2212105-2.020103-5.5301647-3.0148823-11.1528143-5.8571242-16.3868832-9.3978101-2.4601589-1.6642502-5.0892832-3.0878743-7.9890453-3.8469808-.8208874-.2149017-1.9663376-.785603-2.5616447.3268264-.6414298,1.1985765.6092877,1.6655284,1.2684795,2.1727178,6.9699264,5.3623709,14.529834,9.7769638,22.3625096,13.74013.5045531.255299,1.0801009.3702594,1.4410932.4901996.6426814-.1173305,1.118714-.1016989,1.4884409-.292261ZM42.3108825,225.2699492c-.1283419-.7665361-.2515908-1.8185693-1.2692983-1.7273892-.9176064.0821793-.6966398,1.1159711-.7780734,1.7875191-.4538235,3.7423526-.7736596,7.5040917-1.3361256,11.2295078-1.6494041,10.9247308-3.8077352,21.7125317-9.266985,31.5236881-.1747109.3140175-.2880003.6632927-.4184259,1.0005846-.2650588.6854487-.6054264,1.4708652.1377222,1.9814633.8863765.6089415,1.2806293-.3355343,1.7080893-.8271453,1.730405-1.9899049,2.9791053-4.2855454,3.9577071-6.7158257,4.6330365-11.5058709,5.9015426-23.7094935,7.4659313-35.3058788-.0840434-1.3585678-.0696367-2.1647023-.2005417-2.9465238ZM246.2670707,230.3432546c.4652476-1.9757645.8004624-3.9985304,1.7988367-5.7995241,1.0512343-1.8963813,2.2413426-2.0951455,3.832361-.6358641,1.4197628,1.3022193,2.2594774,3.0058815,3.0334698,4.733963,2.0037523,4.4735511,3.0068668,9.2343836,3.9110252,14.0105014,1.5516598,8.1962777,2.8849826,16.4397166,5.2905506,24.4466837.3285041,1.0934957.5321148,3.1146638,1.8040029,2.792471,1.4616247-.3702594.4840216-2.2184144.1916274-3.2234728-2.5610588-8.8032752-3.836249-17.8669624-5.6522352-26.8211215-.9795205-4.8296702-2.1216154-9.6508722-4.5424156-14.0257336-1.0659872-1.9264729-2.3167313-3.7083998-4.6009743-4.3917713-.7079508-.2118127-1.3538809-.382376-2.0673707.0854814-2.4654315,1.6166895-4.5950092,7.6211825-3.7406483,10.7561914.7348734-.4735295.5856405-1.2648845.7417705-1.9278044ZM176.291843,147.0409236c-.9027471.2390549-.5011711,1.391309-.462345,2.1383255.2085372,4.0096616,1.0540038,7.9120721,2.1334656,11.764938.2234765.7976662.1479014,1.9505861,1.1267029,2.179029.9941935.2320246,1.4171531-.8130316,1.9501733-1.4756453.1793511-.2229439.4198173-.6898559.4915311-.6634126,1.8034437.664997,1.4500408-.7656041,1.3328701-1.5285319-.4221341-2.7492643-.2453395-5.5168498-.4230662-8.2702151-.0784511-1.215007.06724-2.4802244-.8742799-3.507452-.9401884-1.025763-2.7049658.6608428-3.4318503-1.0783167-.0383734-.0918192-.4676709.1818809-.459469.5373875.0127556.5554691.003382,1.1114441.003382,1.7317565-.8764636-.4453286-.0070835-2.1933026-1.3871148-1.8278631ZM154.8208694,170.4022071c-2.0215676.1830926-2.0673174.1977788-2.7984627-2.0797668-.1615491-.5032482-.373961-.2422238-.5516211-.2433689-2.3474619-.0152189-4.2482904,1.0662002-6.1667345,2.5720036,2.241955-.6334808,3.3242929.6797233,4.3477258,2.1399766.2331031.3325917.6635457.9882018.9223599.7218115,1.2484539-1.2849366,3.72985-.9045446,4.2254821-3.1492691,0,0,.0257509.044445.0212505.0386131ZM120.7480259,169.0898818c-.1780995-.3410999-.5693165-.926341.0778653-1.0265885.75173-.1164517,2.1266351-.9086988,2.1269413-.3974617.0018241,3.0468513,2.1990546,1.6002989,3.4968001,1.895689.9602539.21859,2.1362484.5193592,2.2068837,1.4569512.0673332.8936797-.3577701,2.0580769-1.5589164,2.5363598-.4582839-1.065175.3833746-2.5687814-1.5095715-3.2041529.8408463,1.0938685.6056128,2.1278867.6361038,3.125795.0377476,1.234966.5769992,1.400696,1.4803188.6972723.5075356-.3952381,1.1884039-.7927664,1.3759037-1.3332829.6508434-1.876236,1.8513904-2.7191195,3.9023173-2.4648324-2.9897439-1.1957404-6.0397774-1.5572121-9.0021192-1.5874634-.6422553-.6976717,1.309396-1.4749928-.2892652-1.9560053-1.1935435-.3591149-3.9505304.459176-4.0843313,1.2380284-.2097223,1.2207058,2.2743501,3.617912,3.9917931,3.4636062-1.2843375-.7047685-2.2863601-1.3630416-2.8507235-2.4439147ZM148.9227354,273.8673007c-.8046166-5.2953439-3.1163015-10.1454924-4.6492007-15.2257215,1.2231158,5.1717288,2.2691307,10.3957317,4.6492007,15.2257215ZM154.0019792,148.2628144c-.2608247-.7725278-.6463163-3.2001452,2.0245634-2.6603876.6102064.1233089.4749541-.8452535.4495494-1.3508585-.0228083-.4539832-.281223-.9455943-.8163869-.6625871-1.5476653.818504-1.8891647,3.069633-3.916684,3.3592976-.0015445.0002264-.0114641.1624412.0279079.1963808,1.5246706,1.314682.5933099,2.7344449.2114532,4.1476701-.0841232.3113279-.0589049.7285888.4607738.8987659.8886466-1.1368355,2.2401842-1.9102155,1.5588232-3.9282813ZM128.3045515,152.9787758c1.7538059.4459144,3.1707992-.2499731,4.6287358-.4524387,1.0043527-.1394598,2.4614371.6124833,2.3318836.8183975-1.2191479,1.9375908,1.0212226.8457994,1.2170708,1.6281802-1.5310351-2.9177105,1.9351941-2.5875154,2.7241525-4.0733998-3.762964.6574209-7.320613.8395281-10.9018426,2.0792609ZM156.462471,147.8041044c-.2750316-.133508-.4138789-.7077111-.8181045-.3624037-.3481967.2974538-.3166405.7944307-.1926526,1.2202531.1432945.492117.3445751.6791641.9117612.3267865.7788923-.483915.9515726.0608888.9610262.7457516.0024366.1765816-.1011396.8013411.2750183.4564731,1.2074575-1.1069703,3.1241706-.3619244,4.3405357-1.9141567-2.5938001,1.4159148-3.167364-.3359471-3.5729344-2.1700682-1.1602297.4088725.1782326,2.7084676-1.9046499,1.6973642ZM168.9857299,180.2041629c-.2240224-1.4872958-1.202744-3.370815,2.0693546-3.2814989-3.6721035.2209334-2.0491826-2.2838702-2.4512512-4.0199673-1.0927101,1.6222019-.2725417,3.2843616-1.0810463,4.9975838-.1591125-.9676969-.2472036-1.50346-.3352946-2.0392231-.178419,1.6830241-1.3624557,3.9807285,1.7982376,4.3431055ZM133.8738618,176.3403122c.4391239.1301394.8937462-1.3552257,1.0069491-2.2045803.1472623-1.1049331.163826-2.2359101-1.2920334-2.688016.5762802.9618517,1.0175211,1.8452523.1000345,2.8157853-1.8844379,1.9933268-2.7300509-.8818561-4.2338838-1.0007444.7624351,2.1932759,2.7245652,2.5753856,4.4189336,3.0775553ZM124.9798991,166.0009156c.327146.2353933.8984197-.5760405.8049628-1.0077214-.2900241-1.3397139-1.0368676-2.3160389-2.5803254-2.3407379-.1385943.1608834-.2771753.3217801-.4157696.4826634-.1433211,1.6072093,1.2098409,2.1597092,2.1911322,2.8657959ZM162.7692112,151.859942c-1.4713845-.6449316-2.973513-1.0217153-4.5771274-1.1922253,1.172546.7872274,2.4013605,1.4807182,2.7905403,2.9952163.5686508-.611245,1.5133263-.8163204,1.7865871-1.802991ZM166.3989201,157.0737457c-.9382312.5844022-1.863467.708004-2.7630452-.0779585-.4295372,1.2107196.3731488,2.4524096-.104961,3.6898788-.1071846.2774283.4361547.2118526.6936772.2689068,0,0-.0574935.0614614-.0575468.0614214-.2699587-2.1355161.8104485-2.9338082,3.0485822-2.8404444-.8901246-.1474753-.8377306-.6783918-.8743199-1.1616677l.0576134.0598636ZM24.8699489,167.5092089c-3.648909-.3786212-7.3663429,1.2446059-8.7271941,3.4671612,3.2246578-.4329724,5.3624774-3.3549703,8.7271941-3.4671612ZM227.181533,196.3698997c-.2609179.2543936-.503408.6077964-.2943648.9592553.3297823.554537.9272198.6238009,1.5214351.6401249.3764375.0103323.8883138-.0422613.7921273-.4681503-.4848471-2.1472065,1.2335413-2.3686326,2.538104-3.0783409-1.9179248-.2325306-3.3017109.7228101-4.5573016,1.9471109ZM173.779916,91.1526646c.3667976-.345627.7241949-.8606988.1726404-1.2590792-.5910464-.4268742-.5507556.395571-.8455465.5833504-.6950886.4427189-1.4111614.8524569-2.4060207,1.4473246,1.4365129.3171731,2.322936-.0592245,3.0789267-.7715958ZM113.0316688,194.6362259c-10.639753-2.2581326-20.8800871-.5011445-30.9118839,3.1861113-.4675111.1718415-.8881939.4917708-1.3011808.784378-.2969612.2104013-.5967717.5202113-.2657512.8904175.3498478.3912703.5663606-.1218043.836519-.1828928,2.6436242-.5975706,5.0094074-2.1209763,7.5766976-2.6830761,8.9666352-1.9632752,18.0209087-2.924075,27.5495905-.2950838-1.2540595-1.0705941-2.3667019-1.4626899-3.4839912-1.6998541Z"/>
  </g>
</svg>