<?xml version="1.0" encoding="UTF-8"?>
<svg id="Layer_2" xmlns="http://www.w3.org/2000/svg" viewBox="0 0 64.9441361 87.7211535">
  <g id="Layer_1-2" data-name="Layer_1">
    <path d="M64.8655738,64.5415583c-.255934-2.016505-.9983562-3.8569219-2.0602349-5.5737631-1.2653003-2.0456461-2.8242939-3.8530511-4.5427966-5.5282621-.415224-.4047617-.4077927-.4068797-.0192448-.8054334,3.2401752-3.3239102,4.5643968-7.3347906,4.1787886-11.9160037-.2412904-2.8667822-1.2348994-5.4859746-2.862893-7.8644427-2.6027595-3.8026567-6.2013555-5.7177887-10.8094091-5.6876982-1.6889051.0109553-3.3570865.2623428-4.9997055.6567335-.290991.0698218-.4778335.0444055-.6681818-.2160385-1.9256674-2.6351141-3.8722046-5.2549639-5.7442092-7.9290059-.0989994-.1413964-.1174043-.2774612-.0891031-.4377737.3468995-1.964723.7170059-3.9250639,1.2200184-5.8566288.6168928-2.3687544,1.3901359-4.6988,1.7004082-7.1416122.2339869-1.8422428.1022494-3.648187-.4572924-5.4202428-.0683245-.2163306-.1499232-.4295937-.2913926-.6124741-.2127154-.275051-.3879818-.2810399-.6016832-.0029214-.2214979.2881974-.3474655.6262778-.4547544.9693977-.3719141,1.1896722-.5723047,2.4169577-.7923236,3.6397879-.3426087,1.9041767-.615852,3.8207694-1.0679224,5.7051536-.2418199,1.0079604-.7375471,1.846844-1.4677542,2.578877-1.2957378,1.2990791-2.914602,2.0674106-4.5319873,2.8462592-.1644573.0792433-.2666702.004236-.3818651-.0931931-.4198618-.3550977-.8430649-.705156-1.297235-1.0180392-.7016137-.4834207-1.4623313-.8613055-2.210286-1.2613929-.2558427-.1368682-.3573801-.2503651-.0964979-.481887.1330886-.1180981.2330739-.275124.2601883-.4607798.0366455-.2509493-.0730536-.3442154-.3070405-.2574495-.1975423.0731814-.3610318.2054483-.4525451.3907389-.1487364.3011246-.3474473.3082821-.6434776.2176452-.962149-.2946245-1.9493491-.4809375-2.9545706-.5422872-1.8760216-.1143003-3.6971024.1624305-5.4507716.8392488-2.7802901,1.0730348-5.3013596,2.5449886-7.2630151,4.8427526-.8955773,1.0489332-1.5937401,2.2095374-1.8326386,3.5994724-.1855645,1.0796811-.199149,2.1624296-.0840819,3.2499254.2199824,2.0790233.7066167,4.0770504,1.8537093,5.8577244.841239,1.3060175,1.6685648,2.6311702,2.9890433,3.5354935.039713.0271691.0699678.0655857.0361342.1283961-.1284691.0669734-.2743572.0352761-.4133068.0327929-.5275523-.0094216-1.0504852.0375402-1.57172.1105755-2.446117.3426087-4.3699402,1.6072882-6.0320049,3.3677314-1.3572883,1.4376271-2.3832884,3.0793149-3.1324299,4.8965066-1.1099542,2.6924469-1.8813167,5.4311981-1.3450731,8.4051961.3093228,1.7155265.8223411,3.3097413,1.9465372,4.6714848,2.3184878,2.8085,5.1403167,4.9095069,8.5870358,6.138326,1.1548709.4117731,2.3212084.7510952,3.5706965.5918782.1918638-.0244668.3844396-.0433099.5766868-.0647823-.0717572.0937773-.1540315.1378907-.2372004.1803242-.7350457.3746712-1.4685211.7524828-2.161115,1.2028916-.11315.0735466-.3253175.1741892-.2136466.3145631.2996091.3766431-.0533706.4865613-.2296778.663818-.5361705.5391467-1.1894897.9466837-1.6909319,1.5281179-3.1053885,3.600568-3.7278503,7.69354-2.3486879,12.1447503.6101553,1.9692512,1.9950144,3.4047603,3.5798807,4.6482596,2.4890983,1.9528913,5.3283644,3.1716316,8.3814962,3.9221425,1.4832742.3645923,2.9998343.3791994,4.5171247.4624596,1.6120172.0884458,3.0492426-.3034617,4.414017-1.0893217,1.6589607-.9552289,2.9883129-2.295573,4.2791026-3.6817102.7239443-.7774609,1.3032787-1.6416878,1.7462379-2.6096248,1.0694561-2.3371301,1.5416659-4.7602957,1.1671408-7.3269758-.082183-.5631753-.2065986-1.1190471-.3082821-1.7516059.0948181.0721589.1198875.0825299.1308428.1010809.0484224.0823108.0956397.1655711.1382011.2510224.616345,1.2371452,1.4755142,2.2968876,2.4868342,3.2187393,1.4846984,1.3534904,3.1547422,2.4368233,4.9999611,3.2494872,3.3929651,1.4943025,6.8902429,1.9907236,10.5307794,1.129126,2.4493853-.5797543,4.6661897-1.6277381,6.5348713-3.3447253,1.9715335-1.8114219,3.1695318-4.0787302,3.87047-6.6320448.4210486-1.5337416.6246528-3.0902702.4227832-4.6807603ZM61.4357624,45.8622653c-.5088918,1.5171626-1.2314667,2.93266-2.1749917,4.2218794-.5887742.804557-1.4639564,1.280163-2.3303926,1.7603702,2.4180532-1.8147085,3.6700976-4.3897876,4.7118916-7.1116677.0356595.3998683-.08578.7695001-.2065074,1.1294181ZM44.1084444,28.1762527c.8221951-.2742476,1.6770734-.3823399,2.531897-.4690328,1.8557726-.1880659,3.6908396-.0928279,5.5144766.35371,2.6846686.6573178,4.8083712,2.1289794,6.4494747,4.3190164,1.3307217,1.7758537,2.3668554,3.7044972,2.9033729,5.8768596.522239,2.1147375.3713663,4.1989463-.3060727,6.2508004-.7468774,2.2621228-1.8015804,4.349253-3.5390905,6.0338855-.4487655.4350714-.9449126.8052143-1.4737979,1.1367216-.2493791.1562956-.4843519.1941279-.7770227.1089687-1.1755582-.3423896-2.3774456-.5478379-3.6047675-.5145338-1.1145006.0302366-2.2082958.2312298-3.2854206.5162136-.670026.1772567-1.3380617.3621821-2.0057871.5479109-.4232396.117806-.4265993.1213117-.42439-.3331141.0019172-.3957053-.0100971-.7898039-.1081653-1.174773-.034217-.1343119-.0555981-.314271-.2288379-.328878-.1516031-.0127812-.2067995.1484808-.2619777.2619777-.2044076.4204643-.359845.8607942-.4689598,1.3148548-.0565659.2353928-.1699897.2903154-.4070988.2541629-1.1088039-.1690768-2.0081242-.7721293-2.8573971-1.4295202-3.3928555-2.6262769-5.4293722-6.0966959-6.1916601-10.2971029-.4196792-2.3125172-.2432259-4.5941404.712569-6.7824975.8700514-1.9920382,2.2236697-3.5237348,4.1849966-4.4948124.1285787-.0636868.2555323-.1307332.3855717-.1912795.9938463-.4625326.7394278-.5138765,1.3843296.3269791.6985828.9108964,1.3339352,1.8688276,1.830265,2.9100191.0547582.1149576.1401548.2215891.1331799.3672946-.1616637.0316243-.2719653-.0736926-.3932769-.1381098-1.0238638-.5433827-2.0241555-1.1336542-3.1040556-1.5654389-.2329461-.09312-.4718081-.1745544-.7288924-.167543-.0820552.0022641-.1775123-.0113935-.2246384.0758107-.0565659.1046596.0219106.1809815.079152.2554045.0361342.0469617.0792616.0901256.1252738.1276657,1.2192333.9935724,2.1118892,2.2716174,3.051452,3.5080322.3471551.4568359.670026.9322958,1.0192261,1.3874519.1505623.1963189.1439161.3469908-.0064271.5395849-.680324.8712383-1.4334641,1.6637445-2.3300639,2.320405-.626077.4585887-1.3389564.6069965-2.0827663.6857286-.1660458.0175285-.3313977.0448437-.4955081.0759567-.1221333.0231522-.2360867.0747151-.2525561.2164036-.0165608.1425649.0906733.2145047.1972866.2710341.0836254.0443324.1742988.082749.2664146.1027607,1.428516.310181,2.8559912.4464649,4.27892-.0339614.6226443-.2101956,1.2519348-.4019133,1.8685172-.6283958.2735903-.1004966.3735756-.030967.4525086.237803.5943431,2.0238086,1.9687034,3.4921105,3.489956,4.8512977.1048239.0936313.2368353.1610429.364574.2236341.0953111.0465965.2225386.0877884.2985501-.0108092.079645-.103345-.0093485-.2106338-.0772348-.2868827-.3443615-.3868681-.5461946-.8394679-.6350603-1.344288-.2309011-1.3114221-.1373429-2.6177317.0635407-3.9228728.0312409-.2030382.1334173-.2510954.3211363-.2188868.7882701.1354805,1.5743127.2909727,2.3672571.3907389,2.1456132.2699385,4.2423841.0402425,6.280964-.6878466.2711436-.0967718.5203401-.2412356.7554956-.4081213.1119997-.0794624.2173896-.1665936.1350788-.3234734-.0721589-.1375255-.1999524-.1714869-.337697-.1317557-.2408887.0696027-.4872551.1320478-.714541.2346625-.7306088.3298275-1.4890623.3637889-2.2452334.1698071-1.650306-.4233127-3.2609355-.9745832-4.6924094-1.9187107-1.2407422-.8183607-1.1040201-.9235316-.6521323-2.1035631.3955593-1.0328654,1.0934847-1.8734289,1.8001744-2.7036213.3874158-.455083.7895118-.8982613,1.1639273-1.3637154.1648955-.2050101.4573654-.4821061.2399575-.7150888-.2333843-.250146-.5027203.0632486-.7035674.2177183-.397166.3054337-.783322.6303678-1.1410672.9809373-1.2079493,1.1836833-2.6419977,1.8304841-4.3259182,2.0347639-.6568248.0797546-.9775229-.0819456-1.2965229-.6421995-.7274683-1.2776068-1.575956-2.4821782-2.4426844-3.6712662-.2511502-.3445076-.2483566-.3442885.1732032-.4848815ZM47.0584138,56.6846382c.1306967.1013.2737181-.0328659.3800393-.1183172.7829751-.628688,1.5630653-1.2607356,2.4339384-1.7681119.1920098-.1118901.3859916-.2204206.5945622-.3075517-.475606.4186384-.9520336.8290239-1.3482319,1.3225965-.3163525.3940986-.5788596.8207709-.7752699,1.2856406-.0975752.2308646-.2059048.3782499-.4752956.2032573-.0654396-.0425066-.1599291-.0501022-.2421121-.0545574-.0969361-.0051855-.1963372.0181858-.2479914.1120362-.0494449.0898334.0174372.1606777.0670647.2248757.3043199.3938795.5614042.825226.9875287,1.1880655-.4019681-.0222027-.7425683-.0427257-1.0833693-.0582822-.0684158-.0031405-.1589796-.0167251-.1910421.060035-.0436751.1045135.0570223.1451942.1217681.1897457.5646725.3892782,1.1935979.6543964,1.817429.9275485.6564231.287394,1.3175023.5641248,1.9687582.8974579-.5414838-.0590125-1.0824381-.1235758-1.6246158-.1755769-.6435142-.0617148-1.2951535-.1042944-1.9314737-.0007304-2.0905081.3403446-3.4007434,2.5207408-2.8001557,4.6149555.1284326.4479256.3208989.8711652.515045,1.2716179-.0436934.0834794-.0920975.0774905-.1345676.0552877-1.168912-.6110865-1.9925677-1.4716616-2.0922974-2.8669282-.0340162-.4759711-.1038014-.949313-.1427658-1.4251381-.0240651-.2938211-.1377263-.3212093-.3617987-.1655711-.4732871.328732-.8900814.7231957-1.309158,1.1145919-.4024428.3759128-.8186528.7317408-1.3296992.9653078.3540569-.2841804.7104693-.5655855,1.0614587-.8534907.287394-.235831.5270046-.5166518.7685506-.7992254.2886721-.3377883.1532098-.7790677.3291154-1.1454128.0596516-.1242331-.1415972-.1602395-.2606448-.1476774-.3058902.0324277-.5219104.2259713-.7176085.438431-.5065547.5499559-.8774463,1.191206-1.2239806,1.8480126-.094033.1782062-.1723999.3718958-.4722463.4615832.1590709-.2683317.2836509-.483932.4134164-.6963187.319073-.5223486.6055906-1.0538996.6580847-1.683464.0440038-.5277532.3310873-.8536368.8610133-.9567626.140173-.0273152.2895302-.0533158.4112071-.1216768.5411186-.3038999,1.016396-.1257668,1.4642668.1932514.2499451.1779871.4789291.1652059.7337493.0301636.679484-.3601371,1.171596-.8972388,1.5070289-1.5819449.2111999-.4311275.1821318-.8367656-.1781696-1.1806889-.2251314-.2149429-.2543455-.4209025-.1470201-.7307914.1918273-.5539729.1342572-1.1575367.2342608-1.7342235.0794624-.4581505.1850715-.920245.1204352-1.3859181-.0182223-.1313175.1129491-.4738531-.2894207-.3634237-.0888475.0243938-.0500292-.130222-.0394938-.194493.0984151-.6004233.290991-1.1712673.5797543-1.7167681,0,.4727576.0243755.9470489-.0052951,1.4179076-.0542105.8600639-.0722137,1.7178636.0140228,2.5761746.0035787.0356412.0014242.072378.0088373.1071428.1739701.816973.4277131,1.0511973,1.1323578.5054774.0841184-.0651475.1758325-.1205083.2632558-.179886.0198839.0243208.0442046.0408267.0425796.0541922-.0145888.1205813-.2050101.2396289-.0658048.3475751ZM34.2557248,39.0404018c.4056564,4.2280144,2.248593,7.8129528,4.9400539,11.0110231,1.0462674,1.2432802,2.2722199,2.2870278,3.6794826,3.1118887.178407.1045866.4607068.1983639.4478708.4140372-.0121969.2053023-.3096332.2264095-.4897566.2967425-.9356189.3656878-1.8728446.7261171-2.7468582,1.2282349-.1653337.0950189-.3047581.0855244-.4619666-.0259275-1.8910486-1.3407823-3.8624544-2.5755904-5.5556686-4.1779121-1.5987978-1.5129265-2.7538148-3.2689876-2.9573094-5.5308183-.0042726-.047619-.0142967-.095092-.0144427-.1425649-.0011686-.4065146-.0006573-.8130291-.0006573-1.2194706.0671925-3.8038983.5944527-7.5436716,1.615249-11.2111399.6249084-2.2451056,1.2261899-4.4980259,2.1015912-6.6638882.4079935-1.0094941.8768437-1.9910887,1.404323-2.9436884.2303169-.4159361.2412904-.409582.625511-.1010078.6091876.4892636,1.128779,1.0686527,1.6396063,1.6533735.8404174.9620212,1.7814409,1.8377146,2.487948,2.9155698.4364956.665863.45092.6678349-.25325,1.0121234-1.9314189.9440545-3.5172164,2.2967415-4.7626146,4.0429429-1.3517559,1.8954125-1.9220704,4.0067174-1.6991118,6.330482ZM44.2269625,53.8906723c-.0729258.3729914-.252264.6276655-.4093264.883143-.3688101.599839-.7636938,1.1836103-1.1455224,1.7754885-.0907281.140666-.1786261.2572304-.3705447.1460706-.5863275-.3396142-1.1812914-.6649865-1.7911181-1.0834789,1.2309372-.6660821,2.4769927-1.1143728,3.7165115-1.7212233ZM43.0923771,33.3757098c.4757886.3425356.9463916.690841,1.3597897,1.1096255.0251607.0254893.048532.0609845.0795355.0712825.565056.1871895.6177875.6939085.7322703,1.1639638.1835012.7532862.3069127,1.5257077.710378,2.2088801.2087167.3533449.4432331.684633.7984768.9049806.717152.4448581,1.554794.2670171,2.2499076-.4701283.681456-.7227575.6597463-1.7284538-.1330338-2.4566158-.7007556-.6436602-1.1861118-1.4297393-1.6906762-2.2126049-.1598013-.2478819-.1429849-.3556089.180872-.3440694.3456396.012416.6864224-.099328,1.060345-.0528045-.0884823.1628688-.3311056.144829-.3946281.4341949.7566641-.2016505,1.38873-.5878612,2.0882075-.8213551-.4889714.3620361-.6814743.9631897-1.1392231,1.3440689-.2481375.2063978-.0991272.4845893-.098196.7245103.0004017.1039293.1640373.0314782.2359223-.0216915.2496347-.1845602.4928423-.3777386.7387339-.5673383.111251-.0858165.195406-.2101956.3784507-.2559157-.1315914.5100786-.3161334.9867801-.3454388,1.4992689-.0124343.2175722.0461948.3824129.174244.5585011.5685799.7816239,1.4174511,1.1570985,2.2419285,1.5598152,1.0439668.5098595,2.1424179.8818284,3.2572472,1.2112177-1.7795967-.1933975-3.3765504-1.0411914-5.1076517-1.4272561.4413707.3093046.9284249.5235171,1.4242252.7410163-.075902.0966988-.2432989-.0490067-.2605717.1040023-.012836.1135699.1101738.1480426.1924115.1841951.7059411.3109113,1.4622583.4393805,2.2096652.5984514.2684048.0571867.5398588.1000584.8203144.1513292-1.0934665.1540315-2.6016457.0452819-4.20132-.2911918-.3734843-.078513-.7567737-.1134238-1.1270262-.2034764-.3314525-.080631-.4223815.0760298-.4625326.3564854-.14744,1.0302361-.2563722,2.0625173-.224401,3.1054616.0038891.1267893.0005295.2537247-.0613131.3925648-.23322-.5565291-.4597756-1.1159796-.7032023-1.6680535-.0893039-.2025269-.1408669-.4423749-.3697413-.5520009-.0830777-.0398773-.1809815-.1140812-.2680213-.0550686-.0944529.0639789-.0296706.1747735-.021655.2662868.0702965.802366.4152423,1.5132187.7298784,2.2413808-.525909-.5121967-.9742911-1.0811418-1.2656472-1.7597859-.2167688-.5050392-.4059851-1.0218371-.6176049-1.5291404-.1856375-.4450042-.2197267-.4663305-.6667211-.3191643-.7034579.2317411-1.3970195.4937187-2.1015912.721808-.7675099.2484661-1.5512701.3900086-2.3625646.2496347-.1376168-.0238095-.2790314-.0311861-.4267271-.1200701,1.2195802-.5834061,2.2039137-1.4439082,3.131736-2.3778838.0673933-.0678498.1335998-.1370143.1971588-.2084428.6704459-.7532862.6914253-.9539142.1963554-1.8389562-.021655-.0387818-.0354039-.0818726-.0947633-.2218813.2655929.2599327.4558682.4484368.6489735.6340196.0687627.0660239.1406112.130295.2178278.1859479.0927548.0668273.2083515.1010809.2982032.0201577.0942886-.084867.0092572-.1829535-.0433465-.2531404-.4629161-.6176597-1.001515-1.1552726-1.6863124-1.526292-.1063394-.0576979-.2125875-.1031259-.2875948-.2017235-.6227174-.8183607-1.2744845-1.613204-1.9416804-2.3955583-.0298167-.0349109-.0494997-.078513-.1059195-.1700262.3465708.0938504.5996747.2635114.8614698.4055651.7147966.3877445,1.4281143.7773149,2.1909134,1.0655852.102432.0387087.2035494.0754455.2506755.1855097.1395157.3260296.2719653.6543234.3531988,1.102322-.8650668-.7012851-1.5656398-1.4881676-2.5543736-1.867513.1988386.291557.4781074.4883141.7541627.6871162ZM31.7983421,15.807357c.8424624-.4010369,1.6480601-.8691202,2.4328611-1.3762775,1.4133977-.9135257,2.2985309-2.1912055,2.749104-3.803241.3455301-1.2363418.5354767-2.4985381.7087347-3.7647514.2561896-1.8724794.5750435-3.731009,1.1606224-5.5339588.0177476-.0546304.0449532-.1061933.1385845-.1584136.0789329.6934703.1817666,1.3851147.2325262,2.0807031.184542,2.529359-.2722574,4.9804242-1.028885,7.372915-.7708147,2.4374806-1.259074,4.9279118-1.6050423,7.4525235-.1329973.9704933.0552147,1.8144894.7789034,2.5628092.6963735.7200552,1.1694415,1.6286145,1.7582156,2.4420818,1.2060321,1.6662277,2.4332811,3.3166067,3.6935784,4.9418615,1.3720049,1.7693535,2.6175857,3.6235011,3.805852,5.5194978.5513984.8797834,1.1130034,1.7531397,1.8588035,2.4972235.5085632.5074494.4627152,1.0668268-.0261466,1.5067185-.185601.1670318-.3076613.2003359-.4736158-.0472538-.5236815-.7812588-.8588588-1.6512554-1.2478631-2.4984651-1.5048196-3.2770215-3.3857529-6.3175547-5.7621394-9.0403112-.2124597-.2434267-.4356009-.4856848-.7186492-.6445367-.909454-.5102977-1.6533735-1.2109986-2.3476654-1.9759704-.2728599-.3006864-.5671375-.5826757-.9020774-.8178495-.6006059-.4217059-1.0041443-.3499852-1.4114987.2685509-.2970346.4510661-.5167614.9440545-.7229948,1.4406946-1.6782785,4.041044-2.9823788,8.1957309-3.7857673,12.5021851-.4523807,2.4249915-.7034944,4.8635677-.6962457,7.3367625.008746,2.986341,1.1107393,5.4316363,3.3640066,7.37905,2.5517078,2.2053013,5.3389728,4.0720109,8.2505256,5.7593458.7044804.4083404,1.4800424.6690035,2.2351545.9698359.5750801.2290387.6198872.3803679.267784.8987726-.1745179.2569382-.3693761.4999998-.5518001.7516064-.0865651.1194127-.1765264.1623575-.2850386.0308939-1.6279206-1.9713692-3.8614684-3.1850701-5.8590573-4.6955134-2.1868782-1.6535195-4.2508927-3.4500422-6.1555441-5.4264508-.6465816-.6709754-1.2830114-1.3565579-2.0659682-1.8781761-.5280088-.3517381-.7212602-.3428278-1.2152163.0609115-.3369849.2753431-.6070878.6188282-.8256642.9866341-1.405309,2.3647374-2.7665047,4.7534304-3.695806,7.3572854-.4824348,1.3518106-.6439889,2.7658474-.7634929,4.1833898-.069201.8207709-.0969909,1.6455587-.1216038,2.4691779-.0178389.5966985.018131,1.1934701.0914402,1.786955.027936.2261904.0558355.4560325-.01143.676234-.0509786.1668127-.1050248.3676598-.3429008.3491818-.2055396-.0159947-.299317-.1651328-.3617622-.3487436-.1255294-.3689744-.0556712-.7411624.0069749-1.1004961.1792652-1.0283372.1984917-2.0698208.2495252-3.1047312.1741527-3.5305271,1.1485899-6.7921382,3.1116513-9.7474391.3435946-.5172361.6314268-1.071282.9643035-1.5960407.9217057-1.4531106,1.2527748-3.0887365,1.4705843-4.7555484.1593265-1.2191785.2898406-2.442447.4134529-3.6659346.0442594-.4379197.0745873-.8843116-.0450445-1.319383-.1746274-.6350421-.6670498-.8932949-1.290954-.6962457-1.0433825.3296814-1.9962743.8621819-2.9774854,1.3289506-1.1332159.5390737-2.2495607,1.1136425-3.3732273,1.6728008.6630146-.4087787,1.3529062-.7871746,2.031952-1.1860935,1.3115134-.7705226,2.3815538-1.8382989,3.5204117-2.8214272.7430795-.6414692,1.4294654-1.3384452,2.0627912-2.0913662,1.1230275-1.3350855,1.677749-2.9325139,2.173111-4.5642689.7189779-2.3682431,1.2793779-4.7784815,1.9190211-7.1676858.3687188-1.3773.9903223-2.6649856,1.5054404-3.9903574.4067337-1.04645.8435944-2.0844279,1.0502661-3.1969748.0195552-.10539.0354586-.2128249.0379601-.3196756.0151001-.6462165-.2391907-.9243349-.8876895-.9563974-1.0817443-.0536079-2.1138246.1826613-3.1185166.5596696-1.7814409.6684922-3.3167893,1.7396282-4.7781711,2.9308341-.9643948.7861521-1.9060026,1.5981588-2.7649892,2.4998527-.130861.1373794-.4196427.3003942-.1946756.523152.2034764.2015775.3611779-.0800467.5020265-.1918638.6834097-.5426524,1.3557728-1.0992545,2.0268395-1.6572443.1902205-.1581945.3854439-.2044989.6303678-.1533742.4550648.0950189.9156985.163307,1.405729.248247-.1289621.0643441-.2676379.0230061-.3438503.177768.3653409.0999853.752355-.0287029,1.1709022.1256938-1.0064997.1156149-1.9822332-.0984516-2.8788878.3643001,1.2361227-.1389132,2.4727384-.148919,3.8144336-.0730353-.7472973.1467279-1.3966726.2852759-2.0189517.521107-.7525011.2852029-1.4874737.6013728-2.0601984,1.195369-.5312771.5509784-.7889822,1.2155267-.8076975,1.9880213-.3141614-.6170754-.4601407-1.2977645-.872845-1.8689737-.1017199.982325.3425539,1.8431192.6436602,2.8329668-.3004673-.2980571-.5519279-.5348376-.7883432-.7856409-.2458004-.2608091-.4783448-.5341803-.7143219-.8041188-.2359406-.2698655-.4728489-.5390006-.7019972-.8146359-.1675978-.2015775-.3749268-.2636575-.607453-.1619923-.473068.206909-.9469941.3911771-1.4843332.2504381.005222.2094653.1717425.107581.2066717.2003359-.2387524.173678-.6423639.322597-1.0855056.3797836.2563905-.2036225.4517782-.3707273.6591072-.5214721.968503-.7039144,1.81679-1.5525847,2.7503091-2.2949157,1.2252404-.9742911,2.5103516-1.8732828,3.7713245-2.8025111,1.6053892-1.1830991,3.3584742-2.1086756,5.1534996-2.9633349ZM34.2265472,67.1469471c.0362255.1373064.0723963.2746128.1085853.4119192-.4810836-.7325442-.9703107-1.4478521-1.5609473-2.0957484-.9963478-1.0929004-2.1763976-1.9324414-3.4839488-2.6049506-.2019609-.1038562-.406971-.2018696-.6104839-.3026583-.5140773-.2548202-.511448-.2519718-.0718667-.6457783.3698691-.3312882.7791407-.5851589,1.2548197-.7429152.2290935-.0759567.580722-.1760151.5144242-.4560325-.073437-.3100349-.4416811-.2248027-.6871162-.1885772-.7453984.1102103-1.4034649.46319-2.0563275.8141977-.2240723.1205083-.4324421.1538124-.681949.1023955-.9141465-.188285-1.8362721-.3115687-2.7737534-.2965964-.3743608.0059889-.4405125-.0770523-.3940803-.4521616.0454645-.3672216.1155966-.7315217.1555104-1.0991815.0409363-.3768622.2161115-.6568796.4907425-.9188573,1.3907202-1.3266865,2.5549031-2.8187249,3.1970661-4.6569508.4732506-1.354659.6528627-2.7613192.6218774-4.1936147-.0036335-.1682003.0389461-.3036078.1218594-.4368973.1578658-.2537247.34637-.4932805.468978-.7629269.1494668-.3286589.2961034-.2774612.5263107-.0883727.6586325.5409726,1.2366157,1.1637447,1.8154388,1.7833033,1.4325512,1.5332304,3.0072656,2.9068055,4.6603834,4.1925192.8679699.6750654,1.7527563,1.3288045,2.6393685,1.9793301.1974145.1449021.1949313.2161845-.0017711.3531257-1.0081795.7018694-1.8744331,1.5566747-2.6403362,2.5132912-1.2192698,1.5227863-1.8661253,3.2720551-1.971917,5.2104854-.0477468.87489.1358274,1.7353191.3591329,2.5816523ZM26.6187689,61.9281356c-.8701245.6216036-1.7690614,1.0209607-2.7707955,1.1855092-.1588336.0260006-.2241819-.0327198-.222849-.1855827.0002008-.0238095-.0001461-.047619-.0012416-.0713555-.0536627-1.1562951-.0415023-1.1658627,1.1124191-1.1603851.6186274.0029214,1.224784.0863277,1.882467.2318141ZM24.5440913,56.6024005c-.020103-.6857286,1.479166-3.8800741,2.3961426-5.0525831-.4474143,1.8335516-1.0781108,3.58209-2.3961426,5.0525831ZM27.120978,46.6261417c-.1451394-.7061054-.419314-1.3645188-.7015955-2.0218366-.4256863-.9911623-.9477245-1.9281323-1.5505215-2.8198205-.1657902-.2452526-.1533559-.3817556.1252373-.5219834.6396068-.3217936,1.2680574-.6661551,1.896508-1.0096402.2034764-.1111597.3528153-.0859626.4946499.1001314.2824093.3706542.5153007.7119482.4471222,1.2515331-.1776949,1.4065871-.2012488,2.8311409-.4528555,4.2311549-.0478381.2661407-.1119814.52936-.1685838.7938939-.0299993-.0011686-.0599803-.0022641-.0899612-.0034327ZM18.8944262,45.2077228c-.0203403-.155054-.0870216-.2577416-.2516797-.227578-.1545792.0283377-.2845091.1941279-.4523625-.0357873-.0706251-.0967718-.1577928.0955302-.1830995.1876277-.0983238.357873-.1537576.7236339-.1635078,1.0955297-.0289402,1.104294.1043857,2.1926662.3185618,3.2732967.0130733.0659509.0216367.1327052.0153557.2017235-.6176779-1.1756495-.4651619-2.6055348-1.2711979-3.720638.080065,1.2508028.3847135,2.459099.6981446,3.6931768-1.056748-.9632628-1.8858266-2.020522-1.9296843-3.5377576-.2776255.1600934-.1390045.3693396-.2374013.5073763-1.1246891-.7852757-2.3113851-.3258105-3.5211421-.1687116.9684483-.8026581,2.2224464-.6291992,3.2720734-1.0926083-.7188318-.1871895-1.4137263.0152644-2.1170381.1121822.5319892-.2740285,1.1642194-.2457638,1.783851-.5880073-.7187223-.1122553-1.3161511-.0116857-1.9000685.1833917-.5788779.1933975-1.0850309.5281914-1.5855784.8690472.5761573-.7178641,1.3532348-1.0557255,2.2394453-1.1881385.1534289-.0229331.3079534-.043529.4582783-.0803388.1041118-.0254893.2715818.0013146.2581798-.1749926-.0125073-.1644025-.0415571-.3383726-.266725-.361963-.2362327-.024759-.4655271-.0814344-.7105788-.0359334-1.0670094.1983639-2.0374479-.0528045-2.9217047-.6652056-.4602686-.3187261-.901128-.6616999-1.364464-1.1179516.6615721.2486852,1.234735.4752408,1.8158405.6791554.5310033.1863131,1.0751346.3075517,1.6448101.3266139.8272345.0276804,1.5095487-.1993864,1.9170492-.9858307.1041301.1184633.03471.306164.2141213.3759128.1410677-.2343703-.0117039-.4650889.0014242-.6983637.0176928.0120508.0366272.0178937.0433099.0304557.0763402.142638.111671.3973851.2878504.3606484.1975423-.041265.0919332-.2863715.09312-.4403299.0013512-.1763803-.0395121-.3531257-.0726519-.6129854.1952782.3106922.3452379.5550684.5018256.7950624.0451358.0691644.1015191.1359918.1664657.186094.118938.0918054.2586911.2472976.4041227.1142272.1375255-.1259129-.0140958-.2711071-.0938504-.3735026-.559487-.7179371-.8484147-1.5394384-.934213-2.4770657.7780452,1.8803672,2.1744074,2.8231801,4.1814361,2.7690609.0224766.1917177-.08903.1925211-.1523151.2210049-.8275814.3717498-1.6369588.7888544-2.5228406,1.0170898-.2785749.0717207-.5441496.1812006-.7947703.3236925-.3691753.2099765-.5181673.4882411-.4268549.8173382.1041301.3752554.4011099.4889714.7445037.4962019.6547433.0138037,1.2842895-.1232106,1.8746157-.4035931.3553898-.1687846.6925391-.3762049,1.0365537-.568653.2511684-.1404469.5080336-.2624159.7928349-.3228891.5784397-.1229184.690768-.0690914.9149134.43215.0453367.1014461-.0125256.1352614-.0728527.1632339-.6902385.3196025-1.2571386.810619-1.868572,1.3808787.064198-.2971807.1664475-.504601.1364665-.7333476ZM13.1607706,42.7544666c.0935582.1002045-.0808136.142638-.1574276.1543236-.2604622.0397312-.5187698.0065001-.778173-.0402425-.4532572-.0817996-.8974762-.188285-1.3215192-.3863568.55222.0922436,1.084757.0159947,1.620818-.1094799.297199-.0696027.4675538.2009932.6363019.3817556ZM12.9088718,42.0669852c-.0091842-.0523663.005788-.1214577.0350752-.1663014.4855205-.7438647.7710703-1.573838,1.0541187-2.4076822.1418346.8512996.1537576,1.6923013.0524028,2.5360783-.0357873.2979841-.1437335.5319892-.4555578.6063392-.1389497.033158-.6573726-.4049078-.686039-.5684339ZM19.9482893,42.8374348c-1.2307546.6661551-2.3691013,1.5476183-3.8249325,1.6891608-.0242477-.0564563-.0484954-.1129856-.0727432-.169515,1.3052324-.4925502,2.6510541-.8905196,3.8976756-1.5196458ZM20.6003669,41.8610256c-.3800393.192302-.7638033.2464942-1.1802872.1648407-.3629125-.0711364-.730134-.1239409-1.0974652-.1679812-.8268876-.0991089-1.4887153-.4882411-2.0132367-1.1235753-.5248865-.6356994-.8507519-1.3806596-1.1592348-2.134384-.3530162-.8626201-.6792284-1.737145-1.1751017-2.5340333-.1906404-.3063831-.3955593-.5964064-.7851296-.8428275,1.3615426.0001461,2.6003676.128177,3.7972521.5670462,1.9972602.7322521,3.91336,1.6086758,5.5434352,3.0141674.3190365.275124.5742584.6067044.8396322.9300317.1123283.1369412.1247261.2321793-.0386174.347502-.888365.6270812-1.7551847,1.2852755-2.7312469,1.7792133ZM25.6052579,36.3535786c-.6987289.4117001-1.4634999.632851-2.2590553.7540896-.376497.0573327-.7559338.0958223-1.1343845.1397896-.2914657.0338884-.5543563-.0197926-.8200953-.1703184-.5470162-.3098158-1.1153771-.5819454-1.6688935-.8961433,1.1088039.1193397,2.2099573.2546011,3.3270507.2147238,1.0706977-.0381975,2.105882-.2756353,3.1527702-.4677912-.2436823.0779287-.3908667.3038999-.5973924.4256498ZM25.8106697,37.7581208c-.4767198.4667687-.9567261.9301778-1.4317295,1.3986993-.1806529.1782062-.321611.2030382-.4806271-.0376132-.3527606-.5338881-.8953764-.8759125-1.4429039-1.3416587,1.1890514-.1392783,2.2868818-.2172801,3.381882-.1850715.0585195.0789512.0142054.1256207-.0266214.1656441ZM32.7458658,21.3413888c-.0183501-1.3209167-.4328803-2.5318422-1.0553968-3.6772551-.1315001-.241966-.1133508-.3442154.1472209-.4420828.7498718-.2814051,1.4988672-.5525122,2.3112208-.5931928.3081543-.0154835.4269279.1010809.4241708.4127956-.005076.5715013-.1721625,1.108457-.3315986,1.6431485-.3720419,1.2476623-.8523221,2.4563237-1.3887117,3.6424902-.0179119.0396582-.0459757.0746421-.1061386.1705375,0-.4307623.0042726-.7936748-.0007669-1.1564412ZM25.65253,18.3669526c.1358639-.3615248.1758508-.7421118.1965928-1.1244517.0497918-.9173236.0203769-1.8392483.14744-2.7518246.094599-.6794475.1036554-.6814925.6943285-.3733565.9874557.515045,1.9450948,1.0731809,2.7593472,1.8499845.2255513.215162.2290753.3147092-.0589578.4849545-2.1927392,1.2959386-4.3317793,2.6725082-6.289783,4.312005-.2583989.2163306-.4923128.4536954-.6533374.7532132-.0407537.0757376-.0849036.1424919-.1600204.1868974-.8884016.5249778-1.6427833,1.2294765-2.5282452,1.8977496.2675649-.54813.5899062-.9704933.9055831-1.3889856.323163-.4285712.3096515-.8161696.0377045-1.251241-.3504234-.5606921-.7798711-1.056894-1.2100674-1.553169-.3919805-.4522347-.7094285-.9505546-1.0371562-1.5651468.343905.1296377.5616416.2883434.7774792.4440547.3585121.258618.7061785.5322814,1.0639237.791995.1756134.1274466.3303022.3152204.6021031.1718521.1060838-.0560181.211912.0837715.3203511.1283961.1149028.0472538.2077124.1603125.3997223.1185363-.8229802-.7971074-1.7741008-1.3585299-2.700006-1.966841.9741815.3859916,1.9938276.620435,2.9712409.9798418.3376057.12416.5051122.0585013.6350055-.260517.418255-1.0270956,1.1194123-1.8195288,2.09657-2.4647958-.3700517,1.0913667-.6516211,2.1215298-.8876347,3.1902556.2103052-.035057.2243827-.1849254.2703767-.2949896.1380915-.3305578.2666154-.6652787.3917614-1.001022.1234662-.3312152.2690073-.6277385.6303861-.7795789.2539073-.1066316.2702124-.4046156.4108236-.6786441.0359882.7303531-.0498283,1.3970925-.1058282,2.0651466-.0103893.124014-.0910385.3052146.0595238.351665.1804885.0557259.2135005-.1461437.2607726-.2719835ZM8.5622846,26.3564317c-.182004-.9398184-.2604622-1.8915416-.2889094-2.8483042-.0578987-1.9490934.6044403-3.6297091,1.8786326-5.0850107,1.8634048-2.128176,4.1985081-3.5617132,6.8052845-4.5804098,1.581105-.6179518,3.211874-1.0261462,4.9296098-.9280597,1.134914.0647823,2.2563895.2264825,3.3581455.5194272.2982762.0793164.3096515.1984369.1843229.452965-.3449275.7006278-.8101077,1.2970342-1.43938,1.7586904-.7694453.5644169-1.3439593,1.2906801-1.7598772,2.1391313-.1266067.2582529-.2552219.2740285-.5018987.196538-1.4528002-.4561786-2.814142-1.1370868-4.2238331-1.6985823-.5993826-.2386794-1.1947117-.4896287-1.8196201-.6573178-.1380915-.0371019-.2792505-.0698218-.4210486-.0839176-.1238496-.0122699-.2446318.026804-.292616.1582675-.0494997.1355535.0248503.2375108.1355718.2985684.1351518.074496.276037.1503067.4240065.1879929,1.1445547.2921413,1.9920017.9912353,2.5710257,1.9858302.5274063.90593,1.1345488,1.7364146,1.8741775,2.4758972.133399.1333625.2371091.299883.3379344.4615102.1524612.2443031.1542506.4861961-.0145523.7372185-.4736523.7043526-.9358563,1.4164469-1.4030084,2.1251816-.1724546.2616125-.3846587.4837129-.6300939.6810543-.2604987.2093922-.5124158.4341219-.6588881.7467131-.0577344.1232836-.0958589.2642418-.0002191.3729183.1016834.1156149.2484661.072451.3666921.0137306.1490651-.0740578.3033522-.1519865.4267636-.2607361.5074859-.4471222,1.1274827-.6670315,1.7477351-.8848228.5526765-.1941279,1.1149206-.3642271,1.634859-.6386938.1889058-.0996202.302494-.0486415.4267271.1030528,1.2491778,1.5249043,2.6899819,2.8883276,3.8070571,4.5254142.1149758.1684925.2784106.4450772.4894279.3229622.2141213-.1239409.0380514-.3985537-.0440038-.5799734-.246129-.543894-.5378503-1.0674111-.7782826-1.6136422-.3089211-.7018694-.4649428-1.4427396-.2904432-2.2031833.2268294-.988606.9511754-1.5430171,1.8219937-1.9362392,1.245453-.5623719,2.5384154-.8257373,3.9063668-.5816532.2118572.0378323.5006388.088884.5800465-.1297838.0924079-.254455-.1950408-.3775926-.3850239-.4840781-.8382263-.4700553-1.7744295-.6273003-2.6993487-.8120797-.5731446-.1144463-1.151986-.200555-1.7927979-.3104731,1.3035708-.9903589,2.5966245-1.8846033,4.0333387-2.5552865.2474436-.1155419.343759.0057698.4475969.1886502.510243.8986265.7693723,1.8704344.8895154,2.8916142.159144,1.352541-.029908,2.6714857-.3622004,3.9737054-.4991599,1.9561048-.8948469,3.946025-1.6238124,5.8331845-1.1378172,2.9455142-3.2619945,4.7141374-6.4338452,5.1167081-1.9438897.2467863-3.8573419-.0327929-5.7670693-.3897895-1.1529172-.2155272-2.260936-.6136427-3.4207915-.7915567-.0590491-.0090564-.1208552-.0356412-.1765081-.0259275-.7002626.1216768-1.166374-.2839613-1.6377439-.7029649-2.2637661-2.012196-3.6376699-4.5238074-4.2110154-7.4844399ZM10.8618928,61.2061085c-2.1635069-.4737071-4.0506846-1.4846619-5.7222804-2.9173956-1.2484109-1.0699674-2.3977311-2.2279423-3.2649342-3.6436588-.7281073-1.1886497-1.1273731-2.4780152-1.2085701-3.8600624-.2733164-4.651327,1.2500907-8.6999667,4.2327251-12.2115776,1.4232574-1.6756492,3.1877359-2.8923445,5.4020023-3.3059435.7509856-.1403008,1.5199197-.1573181,2.2851107-.0574058.1379089.0180397.2074568.0739117.2429885.2126788.1164183.454937.3310691.8729911.5488056,1.2829383.347009.6533739.4392892,1.3234729.289585,2.0460113-.2004089.9673527-.5109185,1.8885472-1.0072848,2.7471503-.2203841.3812443-.5351845.5786588-.9653625.5650012-1.415041-.0448437-2.6868232-.5084719-3.8296798-1.3382261-.2027095-.1471662-.4076649-.4566898-.6717606-.2365614-.2890555.2408705-.0231705.5162136.1303133.7205664.7820439,1.0410454,1.7640585,1.8787604,2.7823168,2.6768903.0564563.0442594.1143185.0866929.1713956.1301489.8573981.6529357.9274937.8940983.4258324,1.8639343-.2738642.529433-.6176049,1.0224214-.921943,1.5365169-.1516578.2561348-.3160786.5113933-.3334427.8223046-.0058976.105536-.0193361.2300612.1056091.2794331.1161809.0460122.2027095-.0360794.2844726-.1070698.0179302-.0156296.037175-.0322816.0485137-.0524394.5068651-.903739,1.3922539-1.1977061,2.314343-1.406295.7193796-.1627957,1.4416441-.3361085,2.1926114-.2774612.2472976.0192813.4221989.1362839.5751896.3182149.2711801.3223779.4803715.6847791.6884857,1.0474725.7488128,1.304922,1.7988781,2.3469898,2.9075541,3.3374217.1352797.1208734.3116965.2257522.4890627.1239409.1803972-.103491.1068872-.2941132.0734187-.4563977-.1470018-.7129707-.3745616-1.4058568-.4675356-2.1336537-.2250948-1.7621961.4714795-3.0379039,1.979257-3.9182716.6182074-.3609405,1.2587454-.5677765,1.9830731-.4016212.192795.0441864.4032827.0213993.518149-.157245.1252373-.1948582-.0590673-.3304118-.1601847-.4687406-.1288343-.1763072-.318014-.2873209-.4885697-.4179811-.2117476-.1622114-.3854256-.3489627-.3244776-.703111.0244668.0563102.0349657.1276657.0762124.1659362.0979769.0908559.1842133.2862254.3405272.1862401.1836838-.1174408.0812883-.3152204-.0029762-.448729-.1420902-.2252409-.094526-.320479.1536298-.4009639.328732-.1067046.6501239-.241966.9629889-.3896434.2386429-.1126935.3552985-.0790972.5037976.1658632.9113164,1.5032859,1.5426154,3.1261306,2.1050604,4.7811838.0652571.1920098.1222063.397166.2345712.5608382.3014715.4391613.2440475.8415859.01552,1.3001016-.4489298.9008906-.9474506,1.7730783-1.4937548,2.6138609-1.4157531,2.1790086-2.2878495,4.5648532-2.7696087,7.1026113-.0752994.3966548-.2259713.680397-.602304.8545132-.3244594.1501606-.6247441.351592-.9423199.5176743-.247681.1296377-.4855205.2494156-.546505.5663158-.0341075.1772567-.2166958.2085158-.3613787.2579607-1.2380034.4227284-2.5129443.6876275-3.8114392.8154393-1.7343148.1708296-3.4587882.0853783-5.1668103-.2887086ZM22.0349813,60.2151654c-.034637,1.0148987-.0706982,1.9800604-.1805433,2.9609247-.1063759-.862328-.0696209-1.710414-.1425284-2.5523651-.0208516-.2410165.130861-.2973268.3230717-.4085595ZM20.079552,61.6348258c-.1134421.4660383-.2744667.9165202-.4875472,1.3453105-.2724948.5483491-.6079825.717645-1.2029464.5436749-1.1562221-.3381535-2.3062726-.3174115-3.4707842-.0404616.8804225-.5242475,1.8445982-.8470636,2.7965587-1.1929588.71927-.2613934,1.4324599-.5346915,2.1340189-.8395409.0739483-.0321355.1557478-.1042944.2319602-.0484224.0848488.0622261.0174189.1556383-.0012599.2323984ZM14.8476673,64.4227298c1.0990902.0067923,2.1975961.0303827,3.291939-.1264972.4126678-.0592316.8437405-.0819456,1.2504194.0130003.369084.0862547.5979219-.0284107.7793051-.3263218.0366455-.0601811.081763-.1151767.1577198-.2210049.0389826.2210049-.0166703.361963-.1154688.4937918-.0388548.051782-.1300942.093047-.0477834.1731667.0680689.06617.152023.07026.2295135.0166521.1220968-.0843558.187719-.2144317.256993-.3400524.2627445-.4761903.3869228-1.0013872.534655-1.5182581.0344362-.1203622.0692557-.2406514.1231923-.42806.1279944.527388.0958223,1.0240281.4499158,1.4039579.0842462.0903447.0210524.2530674-.0053864.3827781-.0892492.4377006-.3161334.8249339-.4530198,1.245033-.2217717.6806161-.0552512,1.1244517.5413743,1.4975161.1985465.124087.382705.1541045.607526.0714285.3937882-.1449021.7834681-.2930177,1.1336907-.529433.367185-.2478088.5218008-.587423.4119009-1.0200842-.0969179-.3816095-.2298056-.7540166-.3269426-1.13548-.0943616-.3706542-.0322086-.4636282.3353599-.4976626.4641942-.0430178.9079385-.1855827,1.3575622-.2695733.0692375.1088957-.1013548.177768-.0098415.2846186.6133871-.1164913.9321862-.7421118,1.6073064-.9333183-.6356629.6318285-1.2149242,1.2075659-1.7941673,1.7833033.0185692.0241747.0371202.0483494.0556894.0725241.7047908-.2881974,1.2810759-.7710338,1.8659427-1.3042646-.6644388,1.2555501-.754966,2.4206825.4269827,3.4250641-.4730862-.1565877-.9454604-.3154395-1.4197335-.4683024-.1361196-.0438942-.2762378-.0803388-.4173055-.1026877-.1588883-.0251241-.3835084-.1134969-.4480169.076541-.0614592.1811276.1827891.2082967.3057806.2849838.0898152.0560911.1914803.0931931.3745434.1796669-.3543308-.0390009-.6164181-.0696757-.8789618-.0959684-.1738423-.0173824-.4334463-.0802658-.4714795.1061933-.0408815.2003359.2375291.2281623.3951758.2786297.3596989.1153228.7287829.2013584,1.1502514.314344-.5685251.1202892-1.0921518.0866199-1.6062292.1518404-.6469103.0819456-1.1029976.4339028-1.4056742.992696-.2199458.4061494-.4180724.8241305-.6609148,1.3062366.0722319-.7730788.052202-1.4640659-.0071757-2.1614071-.5114846.6736777-.6068139,1.453987-.6502517,2.3273433-.1054995-.2156733-.1826978-.3754746-.2616855-.5343994-.0798093-.1605316-.1616454-.3201138-.2421486-.4803533-.1940183-.3861377-.4283886-.7460557-.7005-1.08158-.1066498-.1314636-.2301525-.2433537-.382559-.3193834-.1454133-.0725241-.293255-.1154688-.4339576.0089833-.1404469.12416-.1242513.2722757-.0579718.4262341.0278265.0645632.0545209.1297107.0882449.2101226h-2.017911c-.0144427-.0304557-.0289037-.0609115-.0433465-.0913672.5827853-.5280453.9345781-1.2715448,1.6674693-1.6672502-1.2971985.1149576-2.2661763.8133943-3.12383,1.718667-.0213993-.0246859-.0427987-.0493719-.0642163-.0740578.1521508-.182077.2936385-.3746712.4593739-.5434558.1752848-.1784983.369723-.339103.5629927-.4987582.193434-.1598013.4080118-.295793.5906731-.4664035.1753943-.1638912.4238604-.2640957.5303094-.5614955-1.8262298.4230205-2.8208064,1.6486992-3.433098,3.2789935.2143586-1.7303527,1.1909138-2.847793,2.8138863-3.4639189-.460086-.126205-.9141283.1397166-1.3733743-.138475.4687772-.1744083.9214135-.0701139,1.3439776-.1807624.1035276-.0270961.2132814-.0306018.3165716-.0583552.1180798-.0317704.3116234-.0117587.30306-.1760151-.0077235-.1482617-.1978892-.1469471-.3199677-.173678-.7983673-.1749196-1.6154133-.1492111-2.4240786-.2128979-.4424297-.0348378-.8643912-.1346771-1.2765112-.3235464.1847428,0,.3694857-.0009495.5542102.0002191ZM27.5728658,86.1763713c-1.837112.8285126-3.7554576,1.0143875-5.7453048.7613932-1.6952227-.2155272-3.3055053-.7167686-4.9029154-1.3135401,4.4451666.8278553,8.793671.5132922,13.1265458-1.0865464-.7947155.7027458-1.593028,1.2394823-2.4783256,1.6386934ZM35.2960946,76.3357391c-.0215454.1657171-.04656.3321646-.0506317.4987582-.0231522.9470489-.750164,1.5329382-1.1743166,2.2713252-.2017418.3512268-.4582601.6678349-.566188,1.0697483-.0927001.3451649-.3741782.5474727-.6234842.7676012-1.1637264,1.0274608-2.4872907,1.817995-3.8341349,2.5734723-.2292396.1285422-.4574019.2591293-.68456.3913963-.0152826.0089103-.0178389.0397312-.0493901.1165644,1.438887-.2320332,2.6158328-.957639,3.790405-1.6947845-.4422471.5843556-1.0654757.9024974-1.7091359,1.1811271-2.2183564.9601222-4.5161387,1.6719975-6.9300471,1.8632769-3.5611837.2821354-7.0234593-.1459976-10.2281758-1.8515183-2.0879883-1.1111593-3.7433155-2.6768173-4.567939-4.9463897-.6490283-1.7863708-.8133395-3.6516927-.6204715-5.5473243.1969215-1.9353628.8250799-3.7008455,2.0254701-5.2456154.8976953-1.1551996,2.0872215-1.9551554,3.3179213-2.70311.0729258-.0443324.1532281-.0855974.237237-.0608384.6289436.1854367,1.2858232.2948436,1.859333.6362106.4035384.2401401.4435252.3892052.1120179.7200552-1.3408553,1.3385182-1.463153,2.9910883-1.2610277,4.7329075.0261284.2250948.087825.4484368.2148699.6416152.0934487.1421267.2079133.2763656.406825.2289657.1820588-.043383.2799626-.1749196.3102723-.3555359.0592499-.3531257.1095165-.7079313.1756134-1.0596694.0329754-.1755039.0862547-.3480863.1413964-.5183316.2953548-.911992.9308716-1.4073175,1.880988-1.4472678.8356336-.03513,1.6736042-.0126351,2.5104976-.0208151.2021983-.0018989.3393221.0961145.4499523.248174.2676379.3678058.5208696.7440838.7028553,1.1641829.1044953.2413087.2063978.4849545.3318542.7153809.1217316.2235611.1683829.5742767.459739.5912209.3194382.018551.4484186-.3190913.6020666-.5538998.3414218-.5216913.5907279-1.094069.8598082-1.6536656.4210851-.8758395,1.0698761-1.348451,2.0699851-1.2956465.2596588.0137306.5224581-.0488606.7845271-.0601081.8588953-.0368828,1.6888504.0736926,2.4743269.4572741.3641906.177768.7472791.32267,1.1522964.3873063.1157975.0184779.2531221.0425796.3304848-.0742769.0825664-.1247443-.0196648-.2267016-.086346-.3217936-.2104695-.299956-.5144608-.4967862-.8045205-.7061054-.7299515-.5266577-1.4253572-1.0843553-1.9356732-1.8450181-.2792323-.4161552-.3517746-.8103999-.0757559-1.2610277.2368353-.386649.4439086-.7932366.6388947-1.2030377.1117805-.2348816.2495069-.248174.4563429-.1495033,1.314873.6270082,2.5123966,1.4019129,3.5232236,2.4793298,1.1756677,1.2531399,2.0354029,2.682368,2.6176039,4.2826448.771892,2.1216759,1.057387,4.3071846.7649901,6.5567454ZM64.3796151,66.104514c-.2846734,4.7039855-2.2353736,8.5022601-6.4392133,10.9286393-2.7104136,1.5644895-5.6500302,2.1951494-8.752826,1.9651612-2.3419869-.1736049-4.5352374-.9255765-6.5990328-2.0377583-1.8469718-.9954713-3.554081-2.1882841-4.8036787-3.9036645-1.5131274-2.0771974-2.5178377-4.413451-2.9969128-6.9258658-.4779979-2.5067181.2647348-4.7503629,1.887616-6.7095352.6903115-.833406,1.5085262-1.5310393,2.3166802-2.2413077.1417981-.1245982.2567556-.1354805.4108602-.0292141.8274171.5702597,1.6313533,1.1703909,2.3999952,1.8185793.2293309.1933975.1889241.3118608-.0463592.4493133-.2163123.1264241-.4175246.2784837-.6262778.4179811-.701066.4683024-1.1262593,1.0946533-1.2683313,1.9480709-.1407573.8455298-.6053897,1.5520004-1.1774388,2.179885-.2822815.3098158-.6556563.4119922-1.0686527.4256498-.1890884.006208-.4744557-.0292141-.5054044.22137-.0312591.2529213.2328731.3341366.4396726.3944637,1.0157934.2963773,1.9801334.2009202,2.8883093-.3732105.5709353-.3610136,1.0450988-.8339172,1.544423-1.2787753.0861452-.0767601.172619-.1531551.2835231-.2515336.1174225.4533302.2144865.8690472.3334427,1.2784101.2227212.7665056.6233382,1.4160817,1.270924,1.9038115.6492839.4891175,1.2799621,1.0054772,2.0110639,1.3724796.1717791.0862547.3902277.2562809.5507776.0597429.1331069-.1630148-.0251972-.3645923-.128743-.519135-.1526438-.2279432-.3346843-.4360208-.4931527-.6603123-.6240502-.8832891-.9501894-1.8594061-.7681124-2.9404748.2743572-1.6291257,1.917597-2.7239981,3.5939948-2.6143721,1.8952847.124014,3.745397.4307623,5.5700565.9335374.1665753.0458662.3493827.0836254.4380841-.1135699.0928279-.2063248-.0913307-.3035348-.2202745-.3963627-.4995616-.3596989-1.0927909-.5354949-1.6326679-.8155123-1.249689-.6481154-2.5687068-1.1757225-3.6828605-2.0641241-.7237069-.577052-.7134272-.5999121-.2655747-1.4078287.8990647-1.6218952,2.2882329-2.6993122,3.8931657-3.5417745.2115468-.1110137.4301415-.2085889.6423821-.3183609.0957128-.0495179.2014131-.1113058.170008-.2426233-.0327016-.1367951-.1511648-.1763072-.2770047-.184049-.4150962-.0256354-.8023294.1010078-1.1906765.2218083-2.0283733.6310251-3.7823346,1.7627073-5.4776486,3.0013863q-.3826685.2796522-.4529285-.1971223c-.1297472-.8819745-.0663526-1.7633646.0029032-2.6454852.0174007-.2215891.182004-.2594945.3398151-.3106922,1.2745758-.413672,2.5670818-.7473704,3.8960323-.9437623,1.5830952-.2339321,3.1398247-.1725824,4.6801395.2837422,1.3402528.397093,2.4983007,1.0845744,3.4266344,2.1302941,1.3410379,1.5105894,2.696263,3.0123415,3.7727305,4.7334187,1.3388286,2.140592,2.2647521,4.4503339,2.110538,6.9986821ZM45.2930955,37.9711648c.1204718-.0790972.2493791-.3050685.4142198-.0859626.1407938.1871165-.0080521.333041-.1432223.4588078-.31082.2891468-.6791919.4834938-1.0689996.641104-.5213261.2107069-1.0562915.3777386-1.5283918.4826174-.1532463.0264388-.2224656.0182588-.2651182-.0543383-.042963-.0730353-.0166521-.1429301.0338336-.1963189.1808537-.1910604.3638802-.4182002.6360098-.4352905.7413632-.0465235,1.3301557-.4225093,1.9216687-.810619ZM44.4361904,61.5394417c.0236269.7890005-.1604221,1.5625175-.1805616,2.3488888-.0073218.285495-.0326285.5705519-.0531515.8556087-.0060254.0836254-.0187701.1870434-.1037467.213117-.1110137.0341075-.1664657-.0676307-.216075-.148846-.1134604-.1856558-.1595091-.3963627-.2155637-.6160529-.0678863.1153228-.0150818.2707419-.1938357.370216-.3948289-1.1804698-.2315037-2.3475011-.0714285-3.5218359.2395923.0033596.1792287.258618.3280746.3120799.0199752-.0117587.0450263-.0195004.0582091-.0365177.1119997-.1441717.1782609-.3987728.4093082-.3263218.2404688.0755185.2323801.3361816.2387707.5496638Z"/>
  </g>
</svg>