<?xml version="1.0" encoding="UTF-8"?>
<svg id="Layer_2" xmlns="http://www.w3.org/2000/svg" viewBox="0 0 135.2052778 158.5909196">
  <g id="Layer_1-2" data-name="Layer_1">
    <path d="M135.1422672,130.4633234c-.346148-2.0236547-1.2812721-3.8191665-2.275661-5.5761299-2.346464-4.1459092-5.3401199-7.8392037-8.2236377-11.6069724-1.5366874-2.008183-3.2973221-3.8417185-4.6184537-6.0193042-.6980652-1.1501555-.8706147-2.3616735-.5936963-3.6479281.5464943-2.5434012,1.5681554-4.8594461,3.400642-6.7522464,1.0090739-1.0426398,1.6583637-2.2528467,2.0029383-3.6620887.4096085-1.67672.1798921-3.1287061-1.2162383-4.2856796-.6361781-.5276135-1.2146649-1.1255055-1.8487451-1.6560036-4.2964311-3.5960059-8.5309752-7.2628148-12.3559108-11.3667666-3.9586746-4.247918-7.3897357-8.8933817-10.5643326-13.7638416-5.4067271-8.2954897-9.7304305-17.0546079-12.2384303-26.6625755-1.5650086-5.9975389-3.0754727-12.0089761-5.2409957-17.8318676-1.3505017-3.6306207-2.676878-7.2578323-5.0993897-10.3605773-2.0254904-2.5945367-4.3383885-4.8680998-7.1568725-6.5930708-.9356486-.5724554-1.8990939-.967641-3.015159-.4080351-.3351342.1683538-.7515608.1893325-1.1354704.2444015-1.086695.1552421-2.1634251.3356587-3.1504714.8580275-.212409.1122359-.4363563.2118845-.6891492.0676562-.5889761-.3361832-1.1197364-.1017465-1.6463009.1814655-1.4580174.7835532-2.6569483,1.8875556-3.7572794,3.0980248-3.9266821,4.3195077-7.0724334,9.1684645-9.5332311,14.446435-4.7060396,10.0949349-10.2444079,19.7209966-16.163539,29.1419918-4.6331388,7.3750506-9.2064883,14.7889118-13.5454013,22.3417566-2.7445342,4.7776293-5.7434348,9.3766778-9.0680291,13.7672507-2.189124,2.8913849-4.3682831,5.790899-6.5673719,8.6749413-.7227151.9479735-.9802282,1.96439-.7725394,3.148898.2863588,1.6350249.9188656,3.1024827,2.133006,4.2253659,2.4214627,2.239735,3.8196909,5.0647749,4.8350584,8.1234646.8763838,2.6401653,1.83406,5.2370622,3.6009883,7.4432313.2302409.2879322.2040175.5700953.0833902.8837264-.3047151.7940426-.5795357,1.6001479-.9020827,2.3868479-1.5020726,3.6670711-3.2648052,7.2226931-4.6688025,10.931197-1.1753299,3.1037939-2.1634251,6.2534786-2.2594025,9.687162.0340903,2.0595807.4006926,4.0981827,1.7747953,5.8213181,1.1391417,1.4289095,2.6600951,1.8500563,4.3688075,1.2254164.5459698-.1998218,1.0683387-.4659887,1.5970011-.7117013,2.1335305-.992291,3.3198742-.716946,4.7831362,1.1207853.5459698.6852157,1.0457866,1.4121266,1.6368605,2.0548605,1.5812671,1.7176284,3.724238,2.1303837,5.8598664,1.1637916,1.5518969-.7022609,2.7114928-1.8707727,3.7226646-3.205016.4557616-.6010388.8648456-1.2437728,1.369907-1.799183,2.0212946-2.2213787,4.6058665-1.8259308,5.8724536.8748104.3833852.8179058.6477164,1.6759333.8679924,2.5496948.4804115,1.9074854.7971894,3.8616483,1.5555682,5.6912503,1.2293499,2.9666458,3.5485416,3.9230109,6.5065338,2.6779269,1.0300526-.4334717,2.0302106-.9385331,3.0565919-1.3817075,1.0767301-.4644153,2.1885995-.5905495,3.354489-.3424768,1.2639647.2685269,2.3763586.8554052,3.4467951,1.5319672,2.6118441,1.6507589,5.3055051,1.8125569,8.148639.6235909,2.1440198-.8965758,4.0918891-2.1382507,6.110037-3.259036,3.1856107-1.7687639,6.471919-2.6433121,10.0529776-1.1994553,2.5232093,1.0179899,5.1355779.9949133,7.7600092.4903764,2.9579921-.5682597,5.8540972-.4937854,8.6699589.6899359.6943939.2918657,1.4003261.5567214,2.1062582.8200037,1.8020676.6713174,3.6072819,1.3730538,5.5577735,1.4213047,3.384908.0839147,6.5437709-.583207,9.070127-3.0539696.8690413-.8501605,1.6887828-1.7530299,2.5064263-2.6540637,1.3746272-1.5143976,3.0413824-2.4841365,5.0736908-2.7935718.7940426-.1206273,1.5880851-.2496461,2.3863235-.3346097,4.0619945-.432685,6.5081072-2.4508329,7.3483028-6.4435978.4678243-2.2229521,1.5886096-3.7903208,3.4483685-4.9845314,1.1422885-.7337289,2.2819546-1.4960412,3.1871841-2.5420901.8784817-1.0148431,1.2791743-2.1762745,1.0510313-3.51078ZM129.2713871,120.9626093c1.487912,2.1392996,2.8352669,4.3656607,4.070386,6.6591536.1096135.2034931.2895056.3894165.2538419.7688682-.8763838-1.0478845-1.7921027-1.9326598-2.7576459-2.7728554-4.3205566-3.7599017-10.4043702-2.5919144-13.4798429-.2391568-1.1312747.8658945-1.945247,1.9628166-2.5347475,3.243302-.1284943.2782296-.2522685.5580326-.378665.8378355-.2690514-.1041066-.3346097-.3306762-.4410765-.5126662-6.2626568-10.7379311-12.2043399-21.6536563-17.918929-32.6910579-2.4817764-4.7946745-4.4778966-9.8169676-6.385382-14.868893-.1715006-.4539259-.3802384-.8950024-.5952697-1.330572-.1001731-.2032308-.1667804-.5719309-.4499924-.4796248-.3209736.1051556-.1599623.4728067-.110138.7006875.1347879.6162484.3015683,1.228301.5008657,1.8267175,2.0191968,6.0596882,4.6195026,11.8702547,7.6262702,17.4962089,4.1495805,7.7639427,8.2162952,15.573514,12.5719911,23.2257453,1.3835431,2.4306409,2.8698817,4.8041149,4.2130409,7.2562589,1.4894854,2.720671,3.6702179,4.6205516,6.4666743,5.8761248.7096034.3183513,1.4102909.6582057,2.1046848,1.008025,1.1470087.5784868,2.1455932,1.3468305,2.8693573,2.4219872.6781354,1.0064516.5853048,1.7548656-.2784918,2.5992569-1.181099,1.1543512-2.6805493,1.5125619-4.2497536,1.7050412-3.0057186.3687001-5.8409856-.4075106-8.6673366-1.2639647-2.2310813-.6762998-4.42545-1.4729647-6.7488374-1.827242-3.8317537-.5837314-6.8028575.8328531-9.1367343,3.802908-.4295382.5464943-.8228882,1.1223587-1.338439,1.8293398-.0770966-1.5718267-.1568155-2.9711038-.2113601-4.3711676-.1877591-4.7883809-1.1464842-9.4548233-2.1823059-14.1131365-2.4859721-11.1808432-4.7962479-22.3968256-6.6581047-33.7011807-1.3914101-8.4467983-2.9973271-16.8521638-4.707613-25.2404841-1.2828455-6.2904535-2.2557312-12.6399095-3.3046646-18.9736315-.8265595-4.9903006-1.6803913-9.9750943-2.7020524-14.9299933-.1688783-.8197414-.2491217-1.6581014-.3125821-2.5001327.5575081,1.2492797.8837264,2.56674,1.2555733,3.8689908,1.3557464,4.7443257,2.6632419,9.5049099,4.6735227,14.0315819.850685,1.9153524,1.7994452,3.790583,2.9973271,5.5042779,5.0752642,7.2601924,9.1425034,15.0952003,13.2265255,22.9254881,4.2481802,8.14523,8.9515975,16.0103947,14.6063974,23.2753074,4.8901274,6.282062,10.1809474,12.1765432,16.4991977,17.0789956.6644993.5155508,1.141764,1.1949974,1.6143085,1.8736573ZM122.9221933,136.1632275c-1.8660525-.7305821-3.7273848-1.4202558-5.3652943-2.5704113-2.5211114-1.771124-2.8163861-3.417425-1.0012069-6.1784799,1.9415757,3.0917312,4.1779017,5.8963168,6.3665012,8.7488911ZM124.6282834,114.8740755c.2197515.2819008.433734.5685219.551739.9613474-.4148532-.3503438-.8459648-.6828556-1.2419371-1.0533914-4.8156532-4.5043822-9.0606866-9.5146125-13.0602696-14.7427587-5.1030609-6.6709541-9.3014168-13.8991541-13.1976799-21.3203578-2.9842155-5.6836455-5.8457058-11.4362585-9.1844607-16.926638-1.8324866-3.0135856-3.6733647-6.0258601-5.6270031-8.9607757-1.967799-2.955632-3.2280925-6.1994585-4.2707323-9.5523741-1.5220023-4.89747-2.8625392-9.8481733-4.3404863-14.7595417-1.2178117-4.0499318-1.7983963-8.2637594-2.5336986-12.4298606-.4520903-2.5625443-.8543562-5.1337422-1.2770764-7.7012689-.0230765-.1410815-.0262233-.2850476-.0477265-.5344316.5207954.536005.7421204,1.1291768.9854729,1.6976987.660828,1.5435055,1.1900149,3.1357864,1.6719998,4.7422278,1.1071492,3.688312,2.606075,7.2250532,4.1925867,10.7227215,2.865686,6.3182502,5.3705389,12.7736485,7.3603656,19.4183793,2.7057237,9.0368233,6.644993,17.5203343,11.100862,25.8121527,4.7506193,8.8383127,9.9868948,17.3740081,15.3715943,25.8289357,2.4303787,3.8165441,4.6882078,7.7432263,7.3818687,11.3893187,1.9132545,2.5885054,4.188391,4.8736067,6.1645815,7.4086165ZM116.8787636,97.264844c.3325119-1.1556624,1.1297013-1.960981,2.1739144-2.5281917,1.1008556-.5984165,2.267794-1.0793525,3.346622-1.9310864-.0991242.68102-.394399,1.1548757-.692296,1.6132595-.8994604,1.3835431-1.7768932,2.7854426-2.7508278,4.1160146-.983375,1.3442081-1.5414076,2.7906873-1.5025971,4.4616382.0052447.2155558-.0351393.4321606-.0545445.6482408-.322547.0487754-.3110087-.2213249-.3639799-.369749-.7101279-1.9840575-.7347778-3.9980096-.1562911-6.0101261ZM121.7054306,96.5109232c-.6062835,1.2718317-1.2052245,2.5468103-1.8130814,3.8178553-.8333776,1.7430651-1.2293499,3.5687336-.9713123,5.6083846-.724813-.3582108-.8873976-.9414177-1.0321505-1.5138731-.2790163-1.1079359-.0382861-2.1739144.3450991-3.2131452.3545395-.9623964.8485871-1.8581855,1.4234026-2.7036258.9823261-1.4443813,2.1046848-2.7943585,2.9259997-4.3635629-.1085646.8611743-.5145018,1.605917-.8779572,2.3679671ZM69.4271151,2.2112874c1.7207752.9770814,3.0130611,2.4479483,4.3567448,3.8553547,3.2564137,3.4108691,5.2367999,7.4786328,6.4016405,12.0281191,1.1281279,4.4070936,1.7365092,8.935339,3.0046697,13.2968041,3.1572895,10.8561983,7.4673568,21.2068107,13.6770424,30.7279791,3.1981979,4.9032391,6.4792615,9.7225635,10.5763953,13.9253774,3.4195228,3.507371,7.1988298,6.6234899,10.8957955,9.8271947,1.4113399,1.2233186,2.8205819,2.448735,4.1910133,3.6382254-5.1948426,2.7324715-7.6897306,6.7477885-6.5400997,12.6666573-.1636336-.2302409-.3744692-.4914253-.5464943-.7762107-4.4752743-7.4120255-9.3994921-14.5484438-13.6712733-22.083719-4.4128628-7.7836102-8.7454821-15.6138979-12.2814365-23.8501228-1.6887828-3.9342869-3.0471515-7.9923479-4.3709054-12.0595871-2.1083561-6.4784748-4.5597134-12.8218995-7.4054697-19.0111309-1.9934979-4.3362906-3.7064061-8.7696076-4.9247422-13.392257-.7111768-2.6957588-2.047518-5.0839179-3.7960899-7.2499653-.5003412-.6196574-1.0206122-1.2348568-1.3578443-2.0346685.7111768-.1279699,1.2592445.1898569,1.7910538.4919498ZM69.5870774,9.7523317c-.7101279-1.9402645-1.739656-3.74443-2.4109734-5.7012152,1.6914051,1.5209534,2.0055606,3.6308829,2.4109734,5.7012152ZM57.7315079,4.6041666c.0933551.1172183-.0251744.2200138-.0718519.3110087-5.6652892,10.9485044-10.211891,22.3721757-14.4333234,33.9348306-.7851266,2.149789-1.7123838,4.2382153-2.9333422,6.1845112-.1006976.1612735-.2139824.3154667-.3214981.473069-.0524467-.0199297-.1054178-.039335-.1578645-.0592647.748414-2.6878918,1.4758493-5.3815527,2.2489132-8.062102,2.6600951-9.2222223,5.928047-18.2039767,10.3188822-26.7672066,1.2870413-2.5098354,3.0130611-4.4991375,5.3500847-6.0148463ZM7.1409262,88.6156016c4.8476456-5.1410848,8.5975825-11.0040979,11.2524329-17.5308237,2.7880649-6.8550419,6.283111-13.3130625,10.2779738-19.5287795,6.6339792-10.3225534,12.7518832-20.9348747,17.7920081-32.1437769.9980601-2.2198053,2.220592-4.326588,3.557982-6.3628299.1305922-.1987729.2701003-.3915144.4190489-.6060213.1169561.2284052-.0325169.3700113-.0996487.5063726-4.6362856,9.3987054-7.9372789,19.2689063-10.4316425,29.4267772-1.904863,7.759747-5.0485164,15.0642568-8.3154194,22.312911-4.8549882,10.7720214-9.6459914,21.567906-13.8600813,32.6129123-2.0108053,5.2711525-3.6413722,10.6731594-5.6275276,15.95113-.15734.4190489-.3293651.8328531-.5622283,1.4197313-.6471919-1.929513-1.0489334-3.7221401-1.338439-5.5415151-.4374052-2.7453209-.4804115-5.5260433-.7358268-8.2876227-.1347879-1.4553951-.3005194-2.9055455-.7536586-4.3032492-.7568054-2.329681-2.2174452-3.9072769-4.7128577-4.3651363-.1106625-.020192-.2181781-.0582158-.4164266-.1122359,1.236168-1.1708719,2.4387701-2.2646472,3.5543108-3.447844ZM9.5833676,112.7221886c-.9403688-1.9814352-1.4989258-4.1070987-2.3045066-6.1394071-.8611743-2.1710299-2.0422733-4.1346332-3.6660222-5.8304962-.841769-.8790062-1.6300425-1.8125569-2.1020625-2.9582544-.0965019-.2333877-.2942258-.4575972-.1704517-.7693926.4767402.3104843.8449158.7510363,1.36204.9831128.3687001.1654692.7767352.3117954,1.0898418-.0015734.267478-.2680025-.0325169-.5837314-.1242986-.8711392-.0225521-.0692296-.0587403-.133739-.0881104-.2003463-.2900301-.6610903-.9235858-1.3116912-.0965019-2.0189345.8706147-.7447427,2.1429709-.8763838,2.9884112-.318089.6204441.4096085.9613474,1.028217,1.1894905,1.7039923.5239422,1.5524214.7526097,3.165681.928306,4.7868075.3645044,3.3589469.4263914,6.7514597,1.1407151,10.0718584.267478,1.2429861.8234127,2.3860612,1.2020777,3.5899745.0487754.1541932.1830389.2997327.0555935.5310225-.6199196-.7895846-.9907176-1.6874716-1.4045218-2.5591352ZM4.8846705,134.1306568c1.3520751-4.3213433,3.1976734-8.4536164,4.9000923-12.6383361,3.0508228-7.5019716,5.4256079-15.2457223,8.2535323-22.8253149,3.6193446-9.7036827,7.7940995-19.1802714,11.9468268-28.6636782,2.3108002-5.2761349,4.637859-10.5444029,6.8238361-15.8737712.2181781-.5318092.4914253-1.0408042.7924692-1.5377363.0571669.5619661-.1610113,1.0523424-.3293651,1.5479634-3.732105,10.9744655-7.2764509,22.0102937-10.6136325,33.1106312-2.0144766,6.7013732-3.9990585,13.4153335-5.2541073,20.3173152-1.3966548,7.6795035-2.1508379,15.4156495-2.1613272,23.2223362-.0005245.2874077,0,.5748155,0,.888971-6.0292691-1.7333624-10.7284907.5226311-14.8445053,4.8641663.0230765-.9380087.2559397-1.6764578.4861806-2.4125468ZM15.6661323,146.893816c-.1290188-.146064-.2265696-.251744-.3183513-.3624065-1.1118694-1.3415858-2.2221654-1.6956008-3.8847248-1.1695607-.6230664.196675-1.2136159.4971944-1.8136058.7620501-1.8209484.803483-3.2569382.3534906-4.3058715-1.3565331-1.4454302-2.3566911-1.3027753-5.6406393.3660778-7.8360569,1.5241002-2.0047739,3.5364789-3.3080737,5.9338162-4.035509.1625847-.0492999.330414-.0870615.4982434-.1153827,1.1926373-.2024441,1.5167577-.0120627,1.865528,1.1485821.6624014,2.2027601.8412446,4.4891727,1.1249811,6.755131.2391568,1.9061742.4143287,3.8207399.613626,5.7318965.0146851.1358369.0791945.2813764-.0797189.4777892ZM16.6411159,142.0372544c-.3367076-2.5525794-.6681706-5.1056833-1.0127452-7.6572137-.0954529-.7051455.2071643-1.0578493.8936912-1.1218343.2417791-.0225521.4835583-.0618871.7253374-.0616248,1.6289935.0026223,2.2405217.7785708,1.9022407,2.3829144-.1311167.6220175-.3492948,1.2117803-.5874027,1.7978718-.6272622,1.5482257-1.4779471,3.0083409-1.9211215,4.6598866ZM37.3014323,153.9463196c-.4594328-.7536586-.597892-1.4695557-.7840777-2.1602783-.4111819-1.5251491-.8491116-3.0408579-1.3709559-4.5316545-.1038444-.2971104-.2365345-.5850426-.3681756-.8719259-1.2020777-2.6197111-2.8877136-3.3036157-5.5546267-2.2580913-.1300677.0508733-.2632823.0925684-.440552.1544554,0-.1111869-.0220276-.1856612.0031468-.2354855,1.4003261-2.7308981,2.9244263-5.385224,4.9399518-7.7196252,1.1312747-1.3101178,2.3994351-1.700321,3.7515103-1.1989309,1.1365193.4216712,1.786858,1.3116912,2.1660474,2.4120223.6408983,1.85871.5884516,3.7777336.4353074,5.7009529-.173074,2.1807325-.9288305,4.2127787-1.6017213,6.266328-.4620552,1.4081931-.8533073,2.8357914-1.1758543,4.4422329ZM93.2337072,153.4632858c-2.5017061-1.0006824-5.070544-1.0880062-7.6813392-.6555834-2.8845668.4775269-5.7250784.3907277-8.495836-.6047101-3.7693421-1.354173-7.2245287-.4804115-10.5470252,1.4286473-1.4753248.8483249-2.9233773,1.748572-4.4757988,2.4560775-.3534906.1610113-.7211417.2908168-1.0798769.440552-1.1464842.4788381-2.0826572.1437039-2.8913849-.7284842-.7520852-.8108255-1.3326699-1.7365092-1.8319622-2.7141151-1.4779471-2.8903359-2.5237337-5.9505991-3.4971439-9.0349877-2.9637613-9.3911006-3.8259845-19.0473191-3.6025617-28.83885.1861857-8.1313316.6193952-16.2516494,1.1375683-24.3664603.5774378-9.0360366,1.432843-18.0471611,2.5499571-27.0349468,1.3457815-10.8239436,3.3209231-21.5309311,5.6600445-32.1791784.803483-3.6573685,1.4905343-7.3435826,1.756439-11.0908971.0277967-.3881054.0288457-.7780463.0330414-1.1672006.0010489-.0894216-.0356637-.1793676-.0828657-.3959724-.3277917.5923851-.347197,1.1456975-.4048883,1.6649195-.6445696,5.7932591-2.0941955,11.4281292-3.3272167,17.1065301-1.6368605,7.5368486-2.9878867,15.1250949-4.0425893,22.7660502-1.2891391,9.3334093-2.1885995,18.7085136-2.8551967,28.1030233-.7830288,11.0245521-1.5246247,22.0543489-1.3735783,33.1205961.1290188,9.487078,2.000316,18.6400707,5.1481651,27.5609869.9949133,2.8187462,1.9971692,5.6293632,3.8873471,8.1061572-1.0489334.1340012-1.9184992-.1670426-2.7781001-.4707089-1.0588983-.374207-2.0134276-.9705256-3.0083409-1.480045-1.621651-.8307552-2.8153372-1.0164165-4.613209-.767557,1.4370387-.9757703,2.8179595-2.0808216,4.6583132-2.2198053.9870463-.0744743,1.5928053.5150263,1.9777639,1.3405369.3335608.7164215.605759,1.4616887.9524315,2.1760123-.1715006-1.0075005-.4379297-1.9856309-.9907176-2.8525743-.6083814-.9545294-1.4548706-1.2665871-2.5856208-1.0164165-1.039493.2297164-1.9405268.7662458-2.8447073,1.291237-1.7244465,1.0012069-3.4352568,2.0283749-5.3028827,2.7534501-.6665972.2590865-1.3468305.4059372-2.0684966.2732471-.936173-.1720251-1.3484039-.5942208-1.4978769-1.5251491-.1856612-1.1551379.0199297-2.2782833.2480727-3.4014287.5800602-2.8580812,1.409242-5.6671248,1.740705-8.5742437.1825144-1.6017213.2223739-3.2076383-.2187026-4.7847096-.4153776-1.4852897-1.2277765-2.6826471-2.535272-3.534381-1.2398393-.8071542-2.4660424-.7848644-3.6911966.0110138-1.3646623.8863487-2.2709408,2.1844038-3.1169056,3.5278252-.4368808.6936072-.827084,1.4163223-1.3662357,2.0813461.2071643-.8336398.4174755-1.6667551.621493-2.5011817.905754-3.7043083,1.2262031-7.4857131,1.4637865-11.2760339.3340853-5.3196657.424818-10.6534919,1.0379196-15.9563747.8669434-7.5003982,2.2384238-14.9074413,3.9875203-22.2491883.613626-2.578016,1.2136159-5.16049,1.6300425-7.7796767.0409084-.259611.2412547-.6773487-.102271-.7589033-.3099598-.0734253-.3807628.3768293-.4762158.6356536-.5082082,1.3741027-.7179949,2.8234664-1.0452621,4.2437222-1.0856461,4.7149556-2.1975154,9.4236175-3.0681302,14.1855129-1.3546975,7.4065186-2.266745,14.8597148-2.5730336,22.3889586-.2218494,5.4465866-.5139774,10.8923865-1.7254954,16.2388-.7311066,3.2262569-1.7784666,6.3190369-3.6775604,9.0672424-.8674679,1.2555733-1.904863,2.338597-3.267952,3.0707525-2.2247877,1.1944729-4.7904788.3886298-5.3846995-2.3302055-.4080351-1.8691993-.2176537-3.6738892.2984215-5.4743833.6624014-2.3123736,1.6830136-4.5114625,2.1823059-6.8757583.8082032-.6099548.094404-1.2891391.0849636-1.9347576-.0319925-2.1912218-.1017465-4.3845416.0251744-6.5731411.3959724-6.8322276,1.0861705-13.6329872,2.4413925-20.3487832,1.2707828-6.2985827,3.0560674-12.4668355,4.9687974-18.5928687,2.8982029-9.2793892,5.558298-18.6419064,8.9248497-27.7647422,4.0557009-10.9912485,7.8350079-22.0863414,12.2489196-32.9438508,2.6469834-6.5117785,5.4381951-12.959572,8.7963554-19.1440832.7992872-1.4716535,1.5781203-2.9708416,2.9039721-4.0798264.2632823-.2205382.4741179-.3298895.8375733-.228143.7101279.1992973,1.4176335.113547,2.0129032-.3519172.6498142-.5087327,1.2162383-.3183513,1.7795155.1206273.6262132.4872296,1.0720099,1.1249811,1.472178,1.7968229,1.4034729,2.3548555,2.0805594,4.9588326,2.6422632,7.6100117,1.8214728,8.5933868,3.1719746,17.2691148,4.5329656,25.9422205.920439,5.8653733,2.2200675,11.6567967,3.290504,17.4920131,1.8781152,10.2373276,4.1191614,20.4062123,5.8561951,30.6687143,1.8948982,11.1994618,3.9502831,22.3658821,6.3376555,33.4709399.991242,4.6111112,2.1670964,9.1815762,2.9705793,13.833858.7374002,4.2675855,1.0006824,8.5516917.6351292,12.8725105-.0734253.8716636-.0881104,1.7511943-.0781455,2.6265292.0047202.4085596-.1012221.613626-.5165997.7117013-3.3586847.7914202-6.6953418.8748104-10.0005309-.264069-.251744-.0867992-.4998168-.1953638-.7337289-.322547-.8213148-.4465834-1.5545193-.9823261-1.4700801-2.0574828.0917817-1.1685118.3828607-2.2297701,1.7349358-2.5612331.6246398-.1531443.9225369-.597892,1.0085494-1.2010287.0713275-.5055859.1589134-1.0137941.1688783-1.5225268.062936-3.1620097.1562911-6.3114322.5606549-9.4640015.527089-4.1086721.3650288-8.2640217.4054128-12.4020639.0923061-9.5174971-1.5985745-18.7811523-3.9502831-27.9569593-2.1975154-8.5737193-4.8308627-17.0239266-7.1479566-25.5632933-1.4522483-5.3529693-2.6931365-10.7528784-3.7389231-16.1989405-.1311167-.6797088-.2826875-1.3738405-.7919447-1.9900889-.2685269.3749937-.1804165.7347778-.1437039,1.0751567.4610062,4.3153119,1.4108154,8.5372688,2.4550286,12.7398204,2.7015279,10.8763903,5.6301499,21.6966626,8.0327319,32.646216.9954378,4.5363747,2.0459446,9.0646201,2.5148178,13.6977588.2716737,2.6899897.4206223,5.3878463.4851317,8.090161.1169561,4.8683621.0603137,9.7401332.3005194,14.6056107.0765721,1.5555682.1867101,3.1100875.3246449,4.66146.149473,1.6809157-.023601,3.3542267-.0220276,5.070544-.3194002-.0451041-.3807628-.3136311-.5197465-.4819849-1.1800501-1.424976-2.5494326-2.5688379-4.4600648-2.8001277-2.3233874-.2811141-4.0200372.896838-5.4539291,2.5326497-1.3515507,1.5416698-2.1361528,3.4043133-2.7854426,5.3338263-.322547-.0765721-.3440502-.3563751-.4284893-.5603927-3.2716232-7.9115801-5.9301449-16.0022655-7.0782025-24.5253737-.5611794-4.1653145-.5103061-8.3526565-.4017415-12.5420965.0949285-3.6510749.1746474-7.3034609-.0603137-10.9529624-.0183563-.2900301-.0687051-.578749-.1164316-.8658945-.023601-.1423927-.062936-.3222848-.2496461-.2976348-.1625847.0212409-.2024441.1901192-.2166047.3401167-.0508733.5328582-.1211518,1.0651919-.1437039,1.5996234-.2606599,6.1577634-.2302409,12.3197226-.1342635,18.478535.0770966,4.9478188,1.1931617,9.7419688,2.5363209,14.4800009,1.3274252,4.6813897,2.8709307,9.2885674,4.8717711,13.7331603.2585621.5748155.4688732,1.1748054.6592546,1.7761065.2365345.7455294-.125872,1.2335457-.9099497,1.2684227-.527089.023601-1.0027803-.1594379-1.4622131-.3951857-2.1618517-1.1095093-3.7279093-2.8685706-5.1471161-4.7729091-3.2988955-4.4257122-5.023342-9.4912737-6.1383582-14.8382117-.8936912-4.2901375-.6681706-8.5640166-.2265696-12.8601855.4279648-4.1634788.827084-8.3301045,1.2618669-12.4930589.5186976-4.9609304,1.1501555-9.9087492,1.8146548-14.8518478.6970162-5.1838288,1.3903612-10.368182,2.1434954-15.5438816.913621-6.2823243,1.8886046-12.5559949,2.8363159-18.8333367,1.0095984-6.6859014,2.370065-13.3156849,3.2359595-20.0233516.558557-4.3294725.8223638-8.6759903.2160803-13.0306372-.0356637-.2580376-.0403839-.5307603-.2937013-.7549698-.2475483.5325959-.1127603,1.067552-.0928306,1.5838894.1027955,2.6278404.2029686,5.2522717-.0136361,7.8819477-.3010439,3.6439946-.976557,7.2297734-1.5796937,10.8281393-1.3263763,7.9157758-2.7031013,15.8236846-3.8904939,23.7620124-.9749836,6.5196455-1.953114,13.0390287-2.8546722,19.5689012-.7620501,5.518963-1.4228781,11.0515621-2.1151742,16.5799656-.8087276,6.4493669-1.291237,12.9296774-1.8555632,19.4029075-.5559347,6.3704347.6241154,12.4469058,2.8158617,18.3822953,1.1564491,3.1326396,2.4204138,6.2136191,4.4369882,8.9156715,1.5324917,2.0532871,3.392775,3.6841163,5.9096907,4.4285968,1.7307401.5118795,2.7440097.0904705,3.6812317-1.464311.7347778-1.2185984.9545294-2.5895543,1.2429861-3.9424161.31468-1.4750626.5889761-2.9629746,1.4045218-4.2720434,1.6478743-2.6448855,5.0668727-3.0571164,7.2712062-.8795306,1.1171141,1.1034779,1.3310965,2.2439307.6414228,3.6460924-.3534906.7195683-.7893224,1.3987527-1.141764,2.1188454-.8365244,1.7076636-.4804115,3.0337776,1.0971843,4.1034274,1.5083662,1.0227101,3.243302,1.401375,5.0013144,1.6971742,2.4770562.4166888,4.9016657.1484241,7.2722552-.6267377.4861806-.1589134.7300576-.0823413.9933399.3597842.8748104,1.4706046,2.1387752,2.5706735,3.4651514,3.5889256-1.3484039-.4793626-2.7130662-.9162433-4.0410159-1.4470036ZM70.3438829,145.0288124c-.0225521.9241103-.362931,1.7577501-.772015,2.5709357-.0199297-.9345996.3566374-1.7548656.772015-2.5709357ZM69.2980963,148.5065511c-.1222007.937222-.9623964,1.648661-2.0076585,1.6405318-1.3741027-.0107516-2.5378943-.6471919-3.6072819-1.4110776-2.3611491-1.6874716-3.8270335-4.0942492-5.1193194-6.6195564-.4709711-.9207013-.8973625-1.8639546-1.0641429-2.9228529.5559347.8491116,1.1150162,1.6961253,1.6678041,2.547597,1.6431541,2.5323874,3.5160247,4.8264047,6.2542653,6.2776041,1.0725344.5682597,2.0810838.7793575,3.1237236-.0251744.1746474-.1347879.4132798-.3603086.6419472-.1772697.1956261.1568155.1426549.4478946.1106625.6901982ZM119.6799402,146.9001096c-1.0887929.1030577-2.1718166.2805897-3.2238968.5952697-1.8214728.5443964-3.3398039,1.5516347-4.5612868,3.0096521-.7038343.8399334-1.4391366,1.6502344-2.2399972,2.4012708-3.5988904,3.373632-7.519279,3.2291414-11.3720113.6479786-1.4847652-.9949133-2.5688379-2.3640336-3.3067625-4.0011564-.1358369-.3018306-.1578645-.5813713-.0849636-.9112609.8391467-3.7913697,3.094878-6.2005075,6.9087997-7.0614195,1.4606397-.3296273,2.9055455-.0306813,4.3305215.3031417,2.4413925.5711442,4.7894298,1.4543461,7.1851937,2.1773235,2.6212845.791158,5.2813796,1.1158029,7.999166.6616147,1.5734001-.2627578,2.8945317-1.086695,4.1815729-1.9971692-1.0840727,2.5913899-3.06341,3.9151439-5.8163356,4.1747549ZM133.3931708,133.6536543c-.6665972.6791844-1.4139622,1.2658004-2.1702432,1.8382558-1.5178066,1.1485821-3.046627,2.2819546-3.9088503,4.1773772-1.5157087-1.7826623-2.9752995-3.4753785-4.4081426-5.1906469-1.9840575-2.3747852-3.7462656-4.9076971-5.3390709-7.5607118-.2302409-.3831229-.2496461-.5889761.1715006-.8436047,3.0602632-1.850843,6.2165037-2.0126409,9.3522901-.3388055,2.3427927,1.2505908,4.4537712,2.8727663,6.3130056,4.7912655,1.2151893,1.2534754,1.2088957,1.8844088-.0104893,3.1268704Z"/>
  </g>
</svg>