<?xml version="1.0" encoding="UTF-8"?>
<svg id="Layer_2" xmlns="http://www.w3.org/2000/svg" viewBox="0 0 84.1552358 122.0467907">
  <g id="Layer_1-2" data-name="Layer_1">
    <path d="M33.7280157,66.9666879c-.8560925.6989531-1.6890841,1.4057115-2.5497699,2.0769704-3.2072487,2.5013553-6.7503347,4.3582876-10.6544176,5.5184999-.8343126.2479468-1.6001274.2051918-2.2233271-.4726185-3.0304686-3.2960311-5.9716519-6.6818034-7.803807-10.8155267-1.8595408-4.1955088-2.8293001-8.6107674-2.5093752-13.2389493.1221797-1.767466.5881864-3.4580387,1.3574042-5.0574084,1.0029253-2.0852853,2.7142452-3.1588543,4.982225-3.2069872,7.3753785-.1565225,14.5204795.8793408,21.1802013,4.2918015,1.4481647.7420434,2.9157288,1.4462335,4.3749578,2.1666513.1436879.0709387.2915937.1333277.5131405.2340662-.0199157-2.0921921-.1640931-4.0828478-1.3403519-5.8304317-1.0251544-1.5230866-2.5963873-2.1937822-4.2933706-2.6402756-2.1425446-.5637142-4.3564168-.7775362-6.5046678-1.3089964-8.3712495-2.0709755-15.8313468-5.8298349-21.9745921-11.9795778-2.6630311-2.6658441-4.7529064-5.7043963-5.7120239-9.4118705C.1046237,15.4921911-.1005212,13.6654173.0473343,11.8006595c.1530724-1.9305734,1.0044005-3.4373385,2.6885929-4.3951551,2.9601736-1.6834882,6.0429795-3.1164111,9.2274727-4.3251921C17.4080575,1.0136099,23.0355907-.0513943,28.8680743.0019069c3.8447717.0351341,7.690073.0285911,11.5344289.0872484,4.0851277.0623287,8.1496692.4514958,12.2040852.9268635,5.2526021.6158537,10.4631533,1.4932935,15.6347114,2.6040384,2.0885979.4485855,3.9867563,1.4369865,6.0071716,2.0692824,3.109112.9730049,5.6890974,2.8901167,8.3989571,4.5804212,1.4951778.9326438,1.656421,2.3746091,1.4181303,3.9143726-.5475269,3.5381105-2.0810071,6.6396887-4.2859207,9.4316554-2.8261083,3.5785621-6.4256153,6.2092017-10.3081396,8.5182601-4.7763291,2.8406393-9.9356226,4.6911946-15.2759475,6.1114237-1.7835662.4743284-3.5376478,1.0508839-5.2916891,1.6285592-2.3418287.7712597-3.3948249,2.5142636-3.7889206,4.7943069-.1902517,1.10072-.0120098,2.185494.166373,3.2727425.0782009.4766552.2191663.5557413.6565065.3305935,2.93429-1.5105873,6.0185309-2.6518293,9.1532248-3.6648466,3.8151328-1.2328944,7.6668046-2.3203037,11.6606689-2.8016395,1.8204672-.219401,3.6502015-.3215342,5.4692739.0258434,2.9839316.569823,4.5876331,2.3007636,4.9814136,5.3205568.2224789,1.7061834.1809175,3.4035824-.229037,5.0715639-.4453467,1.8119108-.7830951,3.6459703-1.2028666,5.4625013-.1778061.769523-.4390568,1.5166089-.8441833,2.1939766-2.6970118,4.5094523-5.8288156,8.6805259-9.5231401,12.4346779-1.8073443,1.836621-3.8246146,2.2085882-6.1569281,1.306113-.7765505-.300492-1.5397165-.6355984-2.3818143-.9850951.3773183.8024475.8227253,1.4838319,1.2869752,2.1507724,2.2920597,3.2927654,5.014251,6.2049201,7.9760005,8.8946027.6453752.5860976,1.42784,1.0195821,2.1357384,1.5389185,1.0804489.7926707,1.0688348,1.0687543.0274126,1.9024098-1.2713041,1.0176575-2.7773651,1.4381532-4.3253363,1.7640998-.8945156.1883607-1.7914788.3625994-2.6559801.6721708-1.2923598.4627947-2.3839668,1.1839166-3.1534026,2.3511093-.2511387.380946-.5334585.7442696-.8290554,1.0922508-.3427709.4035305-.5679254.3779285-.8345205-.084759-.1265953-.2197028-.2372849-.4590932-.2996806-.7037141-1.0670645-4.183821-3.0487347-7.9768253-4.9883204-11.7929237-1.4821421-2.9160909-2.998295-5.819421-4.1516809-8.8904854-.3342213-.8899022-.5617294-1.8103618-.7835779-2.7860489-.1642809.340424-.1364459.6549374-.1308467.9559324.1077257,5.7832979.0468588,11.5714842.4913405,17.34524.199767,2.5950194.1628056,5.1972003.1925182,7.79572.0431842,3.7757977.4160365,7.5288365.647749,11.291679.0652121,1.0589775.0884806,2.1222467.080635,3.1831554-.0030645.4138437.1346555.5607503.5236951.6427064,3.9874805.8398783,7.8261166,2.1290059,11.5203606,3.8503641.5033436.2345356.9709261.5124431,1.3593489.9103945.7259499.74376.7747735,1.6578292.1342397,2.474895-.4181018.5333378-.9790667.8744122-1.5870783,1.1432135-2.0523742.907377-4.2348239,1.3835293-6.3988733,1.9196835-2.6265492.6507397-5.2476802,1.3222534-7.9441555,1.641843-1.9034827.2255903-3.7998709.1797373-5.6969497-.0433049-2.4886482-.2925794-4.989172-.5067031-7.4503272-.9929943-1.9788538-.3909776-3.9186139-.923846-5.6568702-2.0018809-.8293773-.5143877-1.5096284-1.1592131-1.7239868-2.1708087-.2886432-1.3621786.0317913-2.492343,1.2071314-3.3309204,1.4306631-1.0207421,3.0767977-1.5047668,4.7419427-1.9442394,2.3546499-.6214496,4.7682622-.9516341,7.1516591-1.4313672.9037359-.1819099,1.752888-.5017007,2.5832845-.8947168.3449905-.1632683.4695674-.3859886.4793039-.7596255.038631-1.4832686.0495947-2.966497-.0100517-4.448505-.1473425-3.6609305-.1612097-7.3225718-.0300613-10.9830061.0985189-2.7498118.0068196-5.4899675-.2274612-8.2290838-.2707191-3.1651576-.0946229-6.3300067.0193524-9.495352.0374173-1.0392496.0058875-2.0809803.0058875-3.165285-.2073041.1631946-.2065195.396617-.2707392.5879081-1.821017,5.4235752-3.6078824,10.8593814-5.8076728,16.1465442-.168264.4044291-.3886776.7870514-.55955,1.1905417-.1809778.4273757-.4316203.4255249-.7555082.1711273-.1725824-.1355473-.3698549-.245573-.521784-.4006337-1.6106619-1.6436803-3.6764406-2.3125789-5.8455595-2.8082311-1.8249264-.4169954-3.5712697-1.0810658-5.1950746-2.0228963-1.5768723-.9146124-1.6290688-1.7634426-.1880858-2.8535275.8751565-.6620387,1.7944896-1.2654904,2.6737366-1.9223523,1.9609498-1.4649958,3.4712555-3.3498034,4.8755118-5.3251032,1.6978751-2.3883255,3.2219139-4.8867639,4.6478696-7.4455461.0581712-.104393.1637779-.1973462.1240807-.3586096ZM6.8106042,20.1438192c-.0060988.0397006-.0252969.078972-.0140248.1050938.0796124.1844681.1573439.370502.2505821.5482209,1.2948945,2.4682061,3.0826148,4.5494748,5.2089117,6.3132594,3.6302791,3.0113475,7.6852986,5.326213,12.0641994,7.080194,3.1684366,1.2691047,6.4684508,2.0725447,9.780515,2.8467079,2.3912223.5589264,4.7908803,1.0213121,7.2552474,1.0957377,3.6282272.1095697,7.114738-.7908938,10.6187035-1.5124448,3.2863951-.6767508,6.3285717-2.1428732,9.5129878-3.1586397,3.3008189-1.0528821,6.016774-2.9441539,8.1381489-5.7034541.9366269-1.2182594,1.9569801-2.3731171,3.2481463-3.249588.6810759-.4623186,1.3469703-.9469904,2.0191814-1.4223347,1.0321551-.7298961,2.0486995-1.4779075,2.8995347-2.4253505.4691114-.5223808.8518411-1.0975952,1.1030468-1.7550338.0497557-.130213.1626916-.2912919.0535645-.4056629-.1281979-.1343537-.2705582.0238921-.3921175.0820734-.8747609.4186315-1.765119.7984912-2.6880531,1.0977628-5.1915005,1.6833843-10.534615,2.0344232-15.9431562,1.8134598-2.6177045-.1069445-5.2028129-.544734-7.8110021-.7560581-5.8671985-.4753879-11.7002655-.2598258-17.5051555.726322-6.4951861,1.1034123-13.0194276,1.4113107-19.5732677.6254864-2.6547798-.3183189-5.2785897-.8005264-7.765984-1.8440374-.1391214-.0583657-.2827221-.1818596-.4600085-.1017141ZM81.6276117,10.8475368c-.8035204-.711392-1.6181185-1.2963194-2.471113-1.8288961-3.1947562-1.9946925-6.6928207-3.2639313-10.2905307-4.2929817-3.7016269-1.058773-7.4936522-1.6636731-11.2911626-2.2386193-4.5085135-.6825947-9.0436685-1.1043243-13.5939245-1.3773903-4.8644878-.2919206-9.7365597-.2186919-14.6052787-.2965424-2.9326337-.0468907-5.8517689.1650889-8.7432636.6954762-5.4085814.9920924-10.4779794,2.9315608-15.3331867,5.4711482-.7777943.4068364-1.5575803.8157682-2.2346965,1.3851588-.7159518.6020435-.7943941,1.3329421-.2344987,2.0775068.3703075.4924436.8643806.840113,1.3773668,1.1615768,1.6324384,1.0229684,3.4636848,1.5441154,5.2859491,2.0890673.254924.0762328.4741909-.0188964.6913288-.0972046.8595056-.309957,1.7038163-.6637318,2.5693033-.9550875,4.1232827-1.388059,8.4021892-1.9629313,12.7115795-2.2836341,4.8185275-.3585895,9.6452963-.6045078,14.4770272-.7441657,5.0610227-.146293,10.1102971.0117315,15.1171049.7622608,5.4617704.8187321,10.8766685,1.9058699,16.2349645,3.2566993.3274888.0825595.6441682.1057911.9748891.0471137,2.2390585-.397244,4.3967779-1.0924654,6.5539608-1.7883573.9323353-.3007636,1.8604326-.6157666,2.8041809-1.0431288ZM39.5729315,51.5903774c-.2490398.2434406-.2479736.2493684-.5433359.3025104-1.1104431.1997469-2.23185.1348969-3.3406368.0462419-4.8904922-.3910312-9.7494948-1.0398129-14.5456189-2.0766217-3.3228736-.7183323-6.649308-1.4791447-9.5430558-3.4145863-.289582-.1936917-.3771171-.0182996-.4944519.1791204-.6904101,1.1616204-1.1166727,2.4223297-1.3609414,3.7426653-.948288,5.1257989.0645583,9.9280653,2.4615474,14.4815736,1.580956,3.0033041,3.7170967,5.6038221,6.0142862,8.0789853.3126158.3368365.6588267.6358264,1.0877983.8208544.3180674.1371902.6125646.1330528.8253807-.1832645.7186005-1.0680972,1.7173952-1.8413686,2.7310092-2.5970981,3.3744666-2.5159535,6.5449887-5.2975029,10.0084053-7.6969731,3.2514052-2.2526038,5.8872349-5.0884419,8.0240864-8.4030543.1328382-.2060501.3152175-.3601318.0492662-.6478429-1.1933715-1.2909851-1.3931653-2.7713636-.7143626-4.3725907.1276213-.3010486.0823181-.4438044-.2053662-.5947813-1.1493894-.6032371-2.2923413-1.2192283-3.4284871-1.8471287-5.9568392-3.2920613-12.3909774-4.7512367-19.142546-4.9696319-1.370326-.0443174-2.7454263-.0147725-4.1061364.2015574-.6523692.1037157-1.0342741.4977243-1.1676622,1.1443601-.2394508,1.1607956.1841831,2.2087156,1.1821262,2.8464732,1.0724156.6853407,2.2481044,1.150422,3.4666621,1.485857,7.1174605,1.9592935,14.3633469,3.0829803,21.7465106,3.2975063.3354015.0097433.6935282-.068813.9955223.1758682ZM76.5314382,50.1149879c0-.2378482.0192451-.4775337-.0032589-.713236-.1096234-1.1483567-.2438564-2.2923145-.736652-3.3576355-.1216667-.263021-.2233238-.3842988-.4965642-.1084432-.813552.8212903-1.8202526,1.3439997-2.8896104,1.7461891-2.2482318.8455579-4.5943387,1.1922852-6.9780775,1.3331098-2.3565811.1392287-4.7112176.2813408-7.054944.5934134-3.5084582.4671534-6.8393652,1.5385497-10.1102301,2.8404851-.8181588.3256515-1.6116007.6359806-2.0893355,1.4759461-.181293.3187581-.3033821.4879542-.0589289.8360695,1.7916934,2.5514798,3.711122,4.9967561,5.9053669,7.2167505,3.6185711,3.661011,7.5082637,7.0340292,11.240495,10.5742989.2631887.2496568.4077886.1665608.6307838-.0301417,2.0133944-1.7760022,3.7421221-3.8105797,5.417064-5.89787,2.8163315-3.5096787,5.245521-7.2224503,6.3000996-11.6825292.3777139-1.5974653.9404223-3.1570304.9237923-4.8264066ZM40.0354446,59.564326c-.8080467,1.0670712-1.6356537,2.0873104-2.491545,3.0841604-1.1134942,1.2968794-2.0374542,2.7108454-2.8283748,4.2296203-1.241605,2.3842149-2.62842,4.6867421-4.0760885,6.9535685-2.0023302,3.1353444-4.4205292,5.8666487-7.5120993,7.9737541-.5276179.3595953-.9959716.8050359-1.5125722,1.1822335-.4409948.3219835-.3592332.6126652-.0132972.9266087.2596682.235642.5586113.410739.8673445.5727065,1.6636631.8727626,3.4472427,1.4061272,5.2601325,1.8533247,2.0295617.5006412,3.964782,1.1802955,5.4354642,2.7747298.0305508.0331257.0952264.0347887.1521973.0538729.088836-.210905.1751373-.4121807.2586557-.6146233,1.6451891-3.9877555,3.0684157-8.0582851,4.5173046-12.1191988,1.0444398-2.9273496,2.06313-5.865549,2.5601971-8.9459945.4400426-2.7270529.6342573-5.4853004.9466585-8.2286613.0825059-.7245685.1690888-1.4536767.0196877-2.1880891-.1083091.1807163-.182205.3650269-.232088.555634-.4440123,1.6967218-.8649841,3.3997066-1.3289791,5.0909096-.8034601,2.9285097-1.6974057,5.8264619-3.159954,8.5106324-.3186911.5848704-.6618442,1.1575769-1.2133877,1.6006303,1.8702228-4.2887705,3.6544261-8.5998909,4.3507438-13.2658187ZM69.700978,14.2303351c.0089319-.0420811.0178638-.0841655.0267956-.1262466-.3999363-.1209659-.7940119-.2681341-1.2006672-.3589046-4.9256631-1.0994359-9.8541762-2.1833885-14.8769165-2.7625491-4.0610546-.4682699-8.1378941-.7375372-12.2208626-.58881-5.6149467.2045347-11.2360961.3217622-16.8370348.8261653-3.502973.315469-6.9769376.8055791-10.3695563,1.7645658-1.0644493.3008843-2.1156484.6472125-3.1771807,1.1593438.1321408.0647427.1918812.108688.2583137.1244596,3.8105931.904393,7.6464597,1.6657787,11.5450708,2.0880682,1.5985918.1731591,3.1718632.1947579,4.7113249-.377382.4595961-.1708088.9492938-.2864873,1.4354174-.3557731,2.7523532-.3922885,5.4994291-.8466878,8.2639731-1.1232844,5.7792678-.5782151,11.5121931-.3369907,17.1372653,1.2792704,1.157188.3325046,2.3489166.3741431,3.5399746.2096812,2.4824053-.3427609,4.9641601-.6910572,7.4431656-1.0574621,1.4433233-.2133291,2.880806-.4661107,4.3209173-.7011425ZM55.6658174,78.2703632c-.3302314-.0771012-.5439058-.2345423-.7528059-.4018943-.6033377-.4833743-1.1223523-1.0497171-1.6087843-1.6467381-2.4679413-3.0290269-4.4070174-6.3702672-5.8905609-9.9807514-.1411264-.3434348-.3056352-.6772671-.4592877-1.0155654-.0855838.2341869-.0851278.433518-.0597604.6296237.2396117,1.8525066.6004074,3.6796727,1.1339128,5.4719428.9707451,3.261182,2.4973387,6.2789837,4.0679815,9.275428,1.8865711,3.5991584,3.6705531,7.2397374,4.7682757,11.1744447.0285726.1024082.0385506.2169937.1863557.2656094.0832904-.108926.1700477-.2244369.2589239-.3382983,1.2270135-1.5720241,2.711516-2.7688691,4.7119418-3.1959632.696767-.1487708,1.3997368-.2700753,2.1022572-.3899986,1.5241259-.2601645,2.8996823-.8202979,4.0534102-1.9527019-.0709991-.050614-.114438-.0842225-.1603581-.1139552-3.4768278-2.2497607-6.2242457-5.2425169-8.7331113-8.4936337-1.8695523-2.4226918-3.4670444-5.0306597-5.2441195-7.5149559-1.4153609-1.9786057-2.9503834-3.8719361-4.2208695-5.9535132-1.3167816-2.157431-2.3634208-4.4567261-3.5260806-6.6951274-.1637243-.3152108-.354841-.6161991-.5332774-.9237722-.1411331,1.1251486-.099451,2.2184387.2004509,3.2706369,1.8500389,6.4908945,4.5922667,12.5233596,9.1458017,17.6129281.2243632.2507632.4761054.4888058.5597043.9162552ZM44.6325929,57.0691935c-.1770685.2986346-.157079.5574847-.1702019.8072957-.0604981,1.1516491-.0853088,2.3062353-.1829828,3.4546524-.1785035,2.0986764-.6609188,4.1528343-.9695448,6.2330636-.2735086,1.843568-.4999438,3.6962155-1.0485235,5.4896925-.1213783.3968316-.159312.8279892-.1781011,1.2459301-.09699,2.1581083-.1618937,4.3176851-.2627126,6.4755923-.2432127,5.205703.2220699,10.3928852.3810734,15.5882481.1332674,4.3547605.3596691,8.7081665.2816828,13.067299-.0161337.9016236.0530347,1.8374324-.7498889,2.6099192,1.376066.1422797,2.6299757.1032799,3.8868293.0568502.4395061-.0162142.5478622-.1513189.4995549-.5801698-.5361877-4.7596053-.42295-9.5423584-.499166-14.3188752-.0698055-4.3752797.0357543-8.7548778-.2159275-13.1253495-.273797-4.754556-.4312716-9.5085755-.3636522-14.2719225.0379404-2.6723955-.0079126-5.3467154-.0587814-8.0193523-.0294779-1.5491915-.0698122-3.102735-.3496576-4.7128739ZM5.9625584,17.6811083c.071854.6976019.2185092,1.2602466.8469594,1.5169643,1.5564403.6358029,3.1157741,1.2633747,4.7773685,1.5892542,2.681723.5259516,5.3917369.8040904,8.11824.9154271,4.1591845.1698365,8.3127833.0670193,12.4335379-.5524991,4.0892383-.6147808,8.1643344-1.3005607,12.3178929-1.3426318,2.4899357-.0252198,4.9759687-.1054156,7.4596547.1688876,2.5821043.2851697,5.1648793.5808102,7.7545207.7776267,4.8563472.369077,9.6493129-.0934025,14.3682017-1.2965843,1.3455487-.343076,2.6957243-.6857464,3.9404742-1.3263136.3162234-.1627319.694125-.2914596.821183-.7083141-.1779804-.0757366-.2872149.0221956-.3985013.0656144-1.7703092.6907119-3.6176793,1.0281619-5.4997174,1.2042983-2.853038.2670209-5.7068807.1716839-8.5561435-.0407668-1.5666798-.1168252-3.1443232-.1767198-4.6829534-.5475503-1.1970864-.2885124-2.3949707-.4624125-3.639325-.320686-1.6899759.1924813-3.3878913.3170281-5.0833792.4590463-3.667958.3072412-7.3425747.4706269-11.0234343.4956321-4.2488721.0288643-8.4910051-.1086008-12.727264-.4520691-1.5478839-.1255023-3.0943731-.4092034-4.6533146-.2383544-2.6564763.291131-5.3197387.4997561-7.9847513.679252-2.896886.1951133-5.7842736.2232098-8.5892491-1.0462335ZM74.9488862,14.4515936c.2430517.0565216.4865594.1110919.7290613.1699002,1.1011827.2670478,2.2131212.4973286,3.300088.813371,1.1732144.3411213,1.4530665.9180825,1.2376285,2.1131975-.4147691,2.3008139-1.7767332,3.9194957-3.6403443,5.2007543-1.1757625.8083585-2.407356,1.5370577-3.5228083,2.4313688-1.5982163,1.2813961-2.8404985,2.9012044-4.1575349,4.4453802-1.2608434,1.4782864-2.7780357,2.5837271-4.5424372,3.3741649-1.1357434.5088087-2.3095949.9169057-3.4705045,1.3603145-4.2740517,1.6324417-8.5853397,3.1424121-13.1081094,3.9410173-4.3920772.7755446-8.768973.8535779-13.1111269-.3564034-.5959817-.1660713-1.2107457-.2647042-1.8168126-.3945651.1666144.2039848.3616338.2934981.5593086.3766946.9601167.4041407,1.9355221.7753837,2.8787004,1.2157012,2.4525452,1.1449838,4.1504806,2.9607235,4.8352245,5.6272851.1862015.7251251.3147415,1.4652506.4631099,2.1998239.0897412.4443409-.0493265,1.0644024.2761775,1.2936003.3102822.2184823.8783551.077128,1.3332372.0828143,1.3559826.0169451,1.2985021.0237714,1.0903665-1.31249-.536362-3.4434406.5447172-6.3359076,3.9340636-7.7681063,1.5419763-.6515779,3.1620663-1.0229013,4.7620663-1.4720099,5.0214461-1.4094599,9.9995941-2.9238694,14.5980769-5.473351,3.929544-2.1786074,7.6242574-4.652131,10.5955154-8.0779996,2.3393343-2.6972733,4.0531956-5.7239599,4.7843758-9.2534235.1752445-.8458664.239994-1.7055162.1507422-2.5670536-.0285123-.275289-.0368272-.6025498-.5201411-.4711332-2.5745002.7000662-5.1208234,1.4869265-7.6379235,2.5011475ZM74.7826808,44.1620983c.030135-.3905753-.146853-.6724525-.4495847-.8876558-.3467608-.2464984-.7317167-.4136627-1.1437365-.5130399-2.665549-.642921-5.3448445-.4628148-8.0120767-.0595324-4.3738313.6613145-8.5776953,1.9619691-12.703801,3.5256313-2.0853189.7902567-4.1401607,1.6544496-6.1186524,2.6888913-.1729445.0904185-.5317083.1177372-.2536265.4797532.6091984.7931133.7977603,1.7121849.7551327,2.6880598-.0153357.3510658.0889366.4095723.4031148.2653747.4977444-.2284134,1.0092353-.4273153,1.5175544-.6321517,3.9731775-1.6010259,8.0549993-2.7220304,12.3608826-2.9681198,2.7733083-.1584939,5.5501504-.3547807,8.2755671-.9505343,1.4320511-.3130248,2.8467213-.6894445,4.0600487-1.5696638.707657-.5133886,1.186344-1.1808454,1.3091775-2.0670125ZM49.8968896,111.7460137c.5313328,1.2147087.4698289,1.3664568-.7886139,1.7384039-2.5232961.7457985-5.0579649.652282-7.5844529.0275198-.9720728-.2403561-1.6665666-.837357-1.8941954-1.8506022-.0822108-.3659254-.2060703-.2760568-.436321-.1549668-.6950571.3655767-1.4038943.7048406-2.1031759,1.0625449-.7645072.3910983-1.5430224.7600815-2.1945667,1.3378372-1.1482025,1.0181269-1.1315859,2.431979.062503,3.4033008.3240421.2635843.7009111.4621778,1.0531571.6911611.2940613.1911771.6348876.387437.6810357.7495.0644745.5058716.3998156.5354836.7666194.56012,5.6823046.3815093,11.2958432.1508361,16.7250913-1.8204135,1.3900472-.5046914,2.8117582-.9206944,4.1468998-1.5720107.315184-.1537598.4118589-.2587697.1364928-.573263-.5148974-.588069-1.0963748-1.0654954-1.8044139-1.4006018-1.441097-.6820549-2.9356847-1.2165863-4.4693058-1.6430634-.7524035-.2092286-1.5005892-.4435362-2.2967536-.5554663ZM27.3053374,16.8572699c4.7856164.8151949,19.5328664.5799686,26.2582294-.4091096-.1600161-.1408615-.341584-.1608644-.5136769-.2051549-1.951743-.5022606-3.9332992-.8377157-5.9383719-1.0241016-2.7735362-.2578175-5.5494731-.3362229-8.3309153-.0942575-2.9720426.258545-5.911811.7580463-8.8652187,1.1549986-.8605919.1156719-1.7235442.2498646-2.6100466.577625ZM16.8297854,31.6125935c-.1163759-.1545443-.1329992-.1907412-.1610353-.2116225-.2200045-.1638852-.4405455-.3271737-.6639766-.4863516-2.2675641-1.6154698-4.5170498-3.2473718-6.3728354-5.3581351-1.9277738-2.1926355-3.5819048-4.5386586-4.3639338-7.4001994-.3842988-1.4061943-.0786636-2.0828948,1.1986756-2.8147355.3352808-.1920958.7207933-.3201093,1.023126-.6737869-1.8080685-.6637285-3.5077106-1.433228-5.0920227-2.5754323-.0941636,1.3423702-.0305105,2.5436711.195747,3.73717.4976807,2.625255,1.3618635,5.102108,3.1578484,7.1369034,2.0280361,2.2977058,4.2708397,4.3730836,6.7712429,6.1578668,1.30962.9347996,2.6713024,1.7798546,4.307164,2.488323ZM60.0569424,17.3135434c.3307746.0703285.5424775.1276682.7579558.1593288,4.3648524.641439,8.7440817.778485,13.132719.3068825,1.5454565-.1660746,3.0784137-.4384701,4.5083727-1.0992548.1397584-.0645851.365684-.100259.3630554-.2875401-.0029907-.2144925-.2339723-.2805361-.3998558-.3118513-1.4396687-.271802-2.8180213-.7766678-4.2430047-1.102611-.4359723-.0997293-.8605852-.0802494-1.2987033.0175184-3.3909759.7567387-6.8072386,1.3730719-10.2501562,1.8454154-.8227857.1128723-1.6574067.1922902-2.5703829.4721122ZM38.2376356,110.8406082c-1.5503985.2806032-3.0052421.5267931-4.4527631.8103333-1.7028976.3335641-3.4001491.6996639-5.0281384,1.3183776-.2603455.0989481-.5782319.1456325-.70474.4674082-.1938593.4930639-.396845.9838881-.5007887,1.505424-.1151823.5779301.0701005,1.044185.5613874,1.3801631.5764281.3941963,1.2306681.5808806,1.9195494.7642926-.4986564-1.8604997-.1133852-3.2307653.963161-3.4247319-.1396444.5195242-.263068,1.0306262-.4154732,1.5329304-.2048163.6750677.0126066,1.1729864.581759,1.5563867.9819971.6614955,2.0773191,1.0395849,3.2991089,1.3683344-.1566834-.1800189-.2467331-.2893875-.3428983-.3930832-1.6017904-1.7273664-1.4970956-3.156333.344273-4.641211.1703629-.1373846.3505226-.2639062.5338608-.3836416.7212559-.4710695,1.5161597-.802756,2.2758522-1.2011634.310537-.1628526.6725195-.2655424.96585-.6598191ZM48.9635954,60.3282967c1.2017803,1.8569457,2.1228301,3.8756845,3.3531629,5.7139417.6219994.9293513,1.2858017,1.8267906,2.045521,2.6472494,1.7963739,1.9399881,3.8400509,3.4949196,6.4866096,4.0896808.3250413.0730443.6503642.129063.9976614.0539534-4.1650385-4.3463382-8.6054633-8.3331013-12.8829549-12.5048253ZM26.8410674,114.070086c-1.0390283.3530506-1.5268618,1.3842267-1.1071909,2.337859.2249063.5110617.5747718.9330193.987147,1.3022304,1.1797188,1.0562551,2.6036025,1.6160398,4.121271,1.9369035,2.6135671.5525427,5.2578459.92626,7.9146441,1.1921108,1.9858612.1987142,3.9819685.3029999,5.9716251.0629255,3.5985616-.4342288,7.1211486-1.2792972,10.6544779-2.0549491,1.4881302-.3266707,2.9076754-.8709789,4.1208888-1.8416972.3678835-.2943497.4483709-.5229173.3702908-1.1536206-.2648249.8376386-.9249189.9337032-1.5300269,1.124478-1.3763141.4339069-2.7467406.8866969-4.1257168,1.3118865-3.342843,1.0307067-6.7039185,1.9677895-10.2500824,1.920354-4.0632741-.0543557-8.1234502-.1531294-12.1020391-1.1092294-1.7017845-.4089486-3.3136534-1.0379621-4.6923413-2.1595701-.8449142-.6873658-1.0024157-1.4556013-.512537-2.4320997.0693159-.1381625.2075388-.2533381.1795898-.4375816ZM20.0279614,17.5466205c-.1228469-.142092-.2491538-.1523248-.3709747-.1811153-1.6916255-.3997552-3.4120516-.641553-5.1250412-.9200372-1.8824539-.3060342-3.6914344-.888836-5.5210782-1.3962197-.1906239-.0528604-.3693788-.1180892-.5767701.0020419-.6647578.3850834-1.3286271.7687921-1.9420836,1.2349999-.3846777.2923447-.2994761.530109.0586071.7570103.4557807.2888075.9647301.4431473,1.4857464.5391113,2.0590831.3792428,4.132694.520691,6.2253153.3633169,1.9062119-.143356,3.8140666-.2648684,5.766279-.3991081ZM43.0164928,49.3167917c-.2377208,0-.4761791.0121439-.713008-.0024207-.5617763-.034554-.9386386.2524999-1.217686.695721-.6128999.9735212-.3962549,2.5355003.4706671,3.4634837.7272441.778475,2.0576917.9921024,3.0467632.4892148,1.1489535-.5841798,1.632824-1.6656882,1.3451195-2.9911938-.1760962-.8112989-.657157-1.3191018-1.4621258-1.5350427-.4843533-.1299414-.9774909-.1201244-1.46973-.1197623ZM29.4914148,36.8804978c-.4285089-.0960982-.7448932-.167399-1.0614385-.2379756-2.7263622-.6079244-5.2795922-1.7142234-7.8655657-2.7273748-.8658625-.3392371-1.6959104-.7986253-2.6364936-.9058615-.7934352-.0904655-1.5280286-.3412622-2.2520003-.6608719-.3282533-.144915-.6620789-.33056-1.1228552-.2910237.4099344.4827037.8762629.769818,1.3466685,1.0427835,2.4743585,1.4357795,5.066709,2.6128161,7.7788755,3.525524,1.2296556.4138102,2.4500976.8582383,3.7179416,1.1452319.2297075.052002.5502762.1893397.6472327-.1742856.0919005-.3446686.3451916-.3941829.6132754-.447117.2449561-.0483676.5013252-.0501714.8343596-.2690293ZM29.260574,67.3402242c-2.6575425,1.7276749-5.1764397,3.6301584-7.4974744,5.7940068,2.5174823-.9096904,4.9884545-1.8932566,6.9896514-3.7472117-.7988332.3780089-1.4622733.9964879-2.2996169,1.3176265.7535837-1.2848964,1.9365347-2.1851185,2.8074398-3.3644216ZM19.0732562,67.2805643c3.9280152-.908517,7.056607-3.0952985,9.6864687-6.0754414.6173457-.6995834,1.2163986-1.4163265,1.8547932-2.0961216,1.5597931-1.6609607,3.468761-2.8482636,5.43417-3.9571376.8450818-.4768095,1.6669757-.9935106,2.3926908-1.6434524.2853709-.2555711.6098891-.5032631.6410099-.9961526-1.0426829.6418749-2.0268459,1.2710225-3.0330301,1.8627126-2.9050334,1.708356-5.5413392,3.7054424-7.7039671,6.3476559-2.5830632,3.1558904-5.9401422,5.2134212-9.8708396,6.3236967-.3048306.0861068-.6283228.1449888-1.0125747.413609.6487817.0381214,1.1323034-.068585,1.6112788-.1793685ZM62.5112042,57.1478101c-.5048054-.0805143-1.0083434-.177102-1.5163675-.2280848-3.0241117-.3034961-5.9986353-.8481597-8.9100859-1.7364056-1.4003269-.4272214-2.7160557-1.0730795-4.1063175-1.5200892-.3498453-.1124867-.6990671-.2761372-1.1070836-.2244705,1.2316337,1.9071842,12.746603,4.7075764,15.8311658,3.834036-.1097977-.0734265-.1475571-.1180121-.1913112-.124986Z"/>
  </g>
</svg>