<?xml version="1.0" encoding="UTF-8"?>
<svg id="Layer_2" xmlns="http://www.w3.org/2000/svg" viewBox="0 0 89.8359382 189.3350321">
  <g id="Layer_1-2" data-name="Layer_1">
    <path d="M87.9433663,83.8143043c-.2242541-3.3123914,1.8691855-6.2539209.2104102-9.3993255-.4391356-.8326122-.6129154-.2725788-.6833387-.3188398-.0106624-.0070509-.0184872-.1465219-.0957895-.2376251-1.680702-1.978776-4.3594552-1.059016-6.4873756-.4579238-6.2061121,1.7531031-12.4737049,3.9165361-17.4862314,8.0678167-2.8420425,2.3539373-4.9530235,6.1654402-7.4667676,8.8993111-1.1502482,1.2510679-2.5386803,2.2390156-3.7366513,3.4421458-.1243372.0321591-.1532288-.0603629-.2069707-.1700823.3583079-1.8826855.9291756-3.6073268,2.1907769-5.1101217,1.0026945-1.1944455,1.7927431-2.5304256,2.4894958-3.9206205,2.7355906-5.458928,5.2283539-11.0232761,7.3434622-16.7557288,1.3278113-3.5986851,2.5431517-7.2206728,2.8791889-11.0730626.2697412-3.0916628.4823011-6.1890007.7967556-9.2760201.4326006-4.2469842.6726763-8.4956021.3259767-12.7578919-.476454-5.8572628-.9427615-11.7158154-1.4908427-17.5666292-.3845339-4.1057935-.840093-8.2046651-1.7177624-12.248204-.3748174-1.726834-1.3280693-2.799006-2.9334467-3.4226697-2.084669-.8097396-4.254895-1.1950474-6.4663948-1.3529195-5.1537171-.3678524-10.3002114-.0071369-15.4412884.2840151-2.8987939.1641492-5.7706739.6044027-8.5674872,1.4693459-2.4712665.7642525-4.2468122,2.2043199-5.0279181,4.7353044-.145834.4724986-.3361232.9317552-.4707789,1.4070914-2.1679044,7.6537893-3.4819578,15.4456738-3.6785241,23.4062647-.1338818,5.4227705.2610565,10.8282146.7424118,16.2238561.6241797,6.9974505,1.8538798,13.8514747,4.744591,20.3365286,2.5554478,5.7327536,5.1688509,11.4268131,8.7511555,16.6114856,1.2599676,1.8236124,2.5801261,3.6468809,4.4906713,4.8285573,1.03236.6386255,1.2020983,1.5309986,1.4665084,2.6281928-.1153086-.0582992-.2258879-.1194789-.3345754-.1819055.0828055.1464359.1497034.3120468.1937287.5009603.152111.6522114.4850527,1.1881684.8709624,1.6952338-2.3483051.2027574-6.5921078-1.416034-8.1756444-3.1588186-3.0195197-3.3229678-6.6127446-11.347877-10.6451052-12.8990826-1.4635848-.5630429-2.7099665-.3592537-4.1870512-.502594-3.6961514-.3588238-6.2758476-2.7336989-10.2859375-1.4783746-4.632034,1.4499129-5.2733251,6.4102882-7.0978833,10.1295272-1.45576,2.9674115-3.1943313,4.6411486-2.6552787,8.3252188.5264984,3.5985132,2.9136697,5.8786306,6.3992389,6.6653257-.1277767.3612314-.4474764.5774027-.6505777.9277568-1.7938609,3.0944573,2.6009349,7.9640734,3.2675922,11.05019.5050877,2.3380297-.5347532,5.7875703,2.0742645,6.9223409,4.1673602,1.8124341,10.6916242-2.8810806,13.4469918-5.7876563,2.8745456-3.0323747,5.8791035-6.4320429,9.2442909-8.9401119,1.6121704-1.2014964,3.408009-1.9207777,5.445471-1.9709081-.8293447,1.058586-1.6399442,2.1532436-2.5349829,3.1586466-2.4803811,2.7866669-5.6749704,5.7405355-8.6189934,8.0341098-2.8485775,2.2192386-7.1346858,4.294621-8.6738532,7.596479-3.5448143,7.6037879,4.0458606,13.1622458,8.3945674,18.1491482,3.1257136,3.5845403,5.3305064,6.001291,6.1415359,10.8945535.8295166,5.0046157.1989739,8.3227682-2.7653421,12.3964026-3.3557289,4.6113971-8.6110826,6.6118848-10.1959951,12.5826504-.6698388,2.5235466-.377397,4.0810292.449712,6.4826463.3900371,1.1323629.9208348,2.7112563,1.389636,3.778613.4353522.9913442.9693315-.1319901,1.4893809-.4244319,1.6064092-.9032935,4.6363333.6123135,5.8315527,1.812864.2565852.2576171.9578092,1.3462985,1.1504201,1.4363269.4027631.1883975.634928-.152025.5546162-.5520366-.0855571-.4265815-.793832-1.6030557-1.012411-2.1511369-.2655279-.6658834-.5089571-1.3491361-.7207431-2.0434812.1100634.0544298.2163433.1135888.3289863.165095,3.2829839,1.5013331,6.7640818,2.044857,10.3273833,2.4876041,7.8755498.9785321,15.4616673-.1340537,22.9182025-2.5876929,1.7385713-.5719856,3.2118726-1.5845685,4.3622068-3.0137585.0886526.2956233.1640632.5731034.1618275.7274501-.0026656.1862479-.3954542.4229701.2561553.5110208,2.0935256.2828972,4.7934316-1.1385539,6.2297585-2.5848554,2.3549261-2.3712636,3.5394831-7.1217877,3.2969137-10.3868863-.0366305-.4924476-.0159076-2.8131509.0049872-3.3468722.271203-6.9194603-3.9074215-13.2746738-9.0505622-17.4684321-3.7811926-3.083193-9.601309-5.9312116-10.9289483-10.9881934-.2426553-.9238874-.4810113-2.6740239-.2925278-3.5878508.1196939-.5805413,1.7312624-2.9471616,2.1335956-3.7044922,2.0128698-3.7886304,2.6457342-6.0982414,2.0419334-10.468359-.6569407-4.7561132-2.7804758-9.3581807-5.6330087-13.1726073.1733498-.0248932.2791998.1212417.4110179.2101522,1.0878216.7333832,2.2931874,1.6921383,3.1793695,2.6588042,3.0650928,3.3434327,6.3339748,12.1502648,12.2523743,10.2452657,1.8452811-.5939982,4.8151003-3.2050796,5.1698827-5.1667012.0643183-.3557282-.0340509-1.3809083-.0036974-1.4465164.0284617-.0612657.8309784-.6908626,1.006048-.9007569.6805871-.8157157.9022616-1.892574,1.3836169-2.8275967,1.4878331-2.8903672,3.9995996-5.061883,2.9477205-8.6863213-.6043167-2.0824333-3.8273676-3.4749928-5.7484893-4.0137014-2.1133886-.5925365-4.4744198-1.0486115-6.6712158-1.0810286l-.7182495-.1891714c1.6985873-.7402621,3.3122194-1.6601511,5.0071093-2.4107317,3.0453158-1.3486202,8.7664612-3.6083587,12.0089451-2.5958617,1.2261747.3828571,2.1605095,2.3883321,1.9116631,3.5961055-.2099803,1.019075-1.8389181,2.1562101-2.6895015,2.6700255-.8091377.4888361-2.2911238,1.0265989-2.931555,1.5665972-.3405085.2871106-.456505.634928.0940698.5774027,2.3468433-.787383,5.459229-1.4214942,6.5228022-4.009746,1.2517128-3.0459177-1.3361521-8.3067316-1.5522374-11.4980963ZM44.796205,93.7939131c-.4074064-.6440427-.5897849-1.3825421-.7498067-2.1395717-.0587291-.27791-.1221875-.5910747.3203876-.4749062,2.2722066.5965348,4.492649.2276936,6.9001132-.4475624-.2738686.8251313-.5050877,1.6247245-.7141221,2.4162348-1.2079454.2638081-2.5260402,1.6646224-3.4261522,2.0980829-.582132-1.0342517-1.2450918-1.4735593-2.3304198-1.4522775ZM29.9269021,4.2680699c2.9524498-1.3188257,6.0931252-1.8995389,9.2732686-2.3066014,3.5041424-.4484222,7.0249663-.7153689,10.5526692-.8692426,3.9557462-.1725329,7.8402951.2321649,11.5784082,1.6300986.3869415.1446731.8159307.2288544,1.210783.6848435-2.2850187.694689-4.526098.8768095-6.7373398,1.2006795-6.6614133.9756516-13.3308234,1.8838463-20.0904338,1.7419677-1.8804498-.039425-3.7670907-.0238184-5.6088464-.4724556-.4891801-.119178-1.2196397-.1840552-1.2667606-.7456363-.0415317-.4954571.6519535-.6687209,1.0882515-.8636535ZM24.5534882,19.9583766c.6694948-4.3041655,1.5405432-8.5637898,2.7908802-12.7399207.0891685-.297945.0556336-.747915.6655394-.5385366,3.5149768,1.2065697,7.1635774,1.0155065,10.7847481.8971024,8.0274028-.2625183,15.9701085-1.3078623,23.8546009-2.8060569.6770617-.1286366.8549688.112342.9693315.7111555.6383675,3.341412.9634844,6.7233239,1.3484482,10.09754.1196939,1.0486975.204993,2.1013504.3094672,3.1888711.145404.5418471-.1065379.5618821-.5658805.4017743-5.29336-1.8457971-10.7822545-1.7294136-16.2563592-1.4870593-5.2054813.2304882-10.4103607.5599044-15.5778358,1.2929006-2.5483969.3614894-5.0922364.7588353-7.5202515,1.6458773-.7895327.2884004-.9143858.0545158-.8026887-.6636477ZM62.9251892,20.1841785c-4.2159429,2.8421715-28.8572389,4.1924684-37.0914405,1.9748635,2.0596467-.8246154,3.990313-1.2016684,5.9236448-1.5013331,6.8523904-1.0622835,13.7537075-1.6687068,20.6822824-1.8288576,3.2640667-.0754536,6.517729.3252029,9.7039775,1.1172292.25177.0625985.4971769.1507352.7815359.238098ZM40.6085518,87.3045169c-3.1491021-3.0048589-5.353207-6.6943463-7.3666787-10.488179-2.5496007-4.803922-5.0878511-9.6176465-6.5122258-14.9263122-1.5205942-5.6670596-2.2599105-11.4500726-2.772393-17.2736715-.4258936-4.8395206-.6803292-9.6840285-.410502-14.5437131.1135028-2.044556.3072316-4.0805563.5656225-6.1119133.0601909-.4737024.1263149-.6978705.7067272-.5851416,6.4532387,1.2530456,12.9821461,1.4197314,19.5254992,1.2551523,5.1519974-.1296684,10.2781987-.6324344,15.3903841-1.2690392,1.7415808-.2168592,3.447649-.6205252,5.0442557-1.3589386.6656254-.3078335.8498956-.132334.9007139.5174268.2110981,2.6981862.4495401,5.3942228.6557369,8.092753.2188369,2.8637542.5090431,5.723381.5349252,9.6795572-.4686292,6.1947618-.4135975,13.5549915-2.1558662,20.6631073-1.4512887,5.9207642-3.817995,11.5762585-6.4944265,17.0750415-1.2695981,2.6085018-2.4373017,5.2631786-4.1492169,7.6392575-2.4962028,3.4648464-5.8528775,4.5150917-9.9149896,3.7008807-1.4069194-.2820374-2.5365307-1.1015365-3.5475659-2.0662677ZM42.5785141,94.9092936c.2783399-.0712832.536301-.0108344.7927142-.0687466.1433403-.0323741.2897762-.0736049.4375019-.1155235.0827195-.0088567.1674167-.0143598.2565852-.0125111.4380178.0091576,1.0581561.1185331,1.7254152.2158704-.0889106-.1018086-.1859899-.1969962-.2808336-.2939896.6996763.3086074,1.184213,1.2395457,1.4911007,1.8885326.1569263.3319098.3076615,1.0152916.4719827,1.2502511.2709451.3873715.4544413-.4264526.390725-.5789075-.1618275-.3870705-.1844421-1.0683885-.496575-1.4666374.5133424-.1960504,1.0542007-.4495401,1.5334063-.7173466.5714696-.3193987,1.5792373-1.1797417,2.2268915-.9869588.5712977.1701683.6365618,1.0993009.7173896,1.2925567.1337098.3187968.1689645,1.0428934.2767062,1.4460865.6104217,2.2852766,1.4164639,4.4104455-.3495372,6.4793788-1.6662562,1.951948-3.1288951.760641-5.2661881,1.2888592l1.8179373-3.7311911c-.2818654-.0521511-.410502.1678036-.5704378.3377999-.8924591.9479207-2.0132138,3.7541926-3.0950163,4.1867933-.4872884.1949325-2.4258654-.5301959-2.7324091-1.0458169-.4855686-.8168336-.9115482-3.4035806-.9702774-4.3893786-.0886526-1.48865-.2193528-4.5074818,1.6229187-4.9791205ZM55.998592,149.1611607c2.679613,3.8147275,6.2724081,4.3436336,10.1293552,6.4280446,2.1349713,1.1538596,4.3283279,2.4951709,5.7202855,4.5205088.0963054,2.9120359-.3730976,5.4845091-1.9870737,7.9262821-.9502424,1.4377027-1.7660011,1.7444184-2.825275,2.8214056-.1294964.1317321-.238442.2632922-.3312219.3953682-.9492965-.8192842-2.0590448-1.4723555-3.2890889-1.9897393-3.4396522-1.4469893-7.0828356-1.7940329-10.7662609-1.8105424-.7116285-.0031815-1.0215256-.1736938-1.1786239-.9169654-.5698359-2.6953487-.7570296-5.4231144-.8579783-8.1631763-.2347445-6.3743027-.3961421-12.7595257.1889994-19.1126756.5760269-6.2545658,1.105019-12.4984262.9246183-18.7848071-.0049013-.1696524-.0538279-.3601136.0226146-.555648-.3806645-1.8697014-.7106826-3.7497213-1.1012356-5.617832-.489352-2.3401363-.9429335-4.7103251-.9178253-7.1115982.006535-.6231478.0188312-1.2624612.0372324-1.9064179.3820403-.0669839.4187567-.2227923.9467169.3514719,1.9524209,2.1233201,3.3631237,6.630372,3.5433525,9.4729734.3014704,4.7538776-1.6332372,9.2163452-2.104102,13.8771848-.6848865,6.7783556-.1668148,14.4643471,3.8455108,20.1761628ZM47.4454646,113.553254c-.2952794-2.2510108-.5741352-4.5124261-.4444668-6.8084941.6406892,2.4541981.9932359,4.9614932,1.3119037,7.4700781,1.1279775,8.8815978.9522201,17.7923021.4534955,26.7002119-.4810113,8.5895429-.4626961,17.158148.7356188,25.6941639.178423,1.2709739.5615811,2.5136581.7333832,3.785148.3367251,2.4916454-1.7701285,4.3238566-4.1718315,3.6889285-1.5115656-.3996676-2.1678184-1.3645278-1.7835425-2.8883035.4184128-1.6589473,1.0542007-3.2638947,1.455502-4.9261095.8484338-3.5146328.9184272-7.1258291,1.1962512-10.7109713.634928-8.1959374.6833387-16.4211963,1.3063146-24.6204012.4412853-5.8072184-.0350827-11.6089336-.7926282-17.3842508ZM46.4444899,105.3922703c.0516782-.0525381.1041303-.1016366.1645791-.1357735.3583079-.2023704.8490357-.2009946,1.350168-.1445012-.4988106.1276907-1.0028664.2258879-1.5147471.2802746ZM47.1427903,175.9109441c2.2771079.0050732,3.8164472-1.2395027,4.7136356-3.3364678.9173094,1.0698503.986185,1.7745998.3386168,2.7410078-.4136835.6174727-.9609908,1.0942706-1.6331512,1.4039098-2.3103848,1.0643471-4.61862.9901404-6.8657184-.1547766-1.5203362-.7745709-1.938749-2.0850989-1.3333145-4.1037298.8942649,2.2424551,2.4808971,3.4449834,4.7799316,3.4500566ZM1.3387165,95.0967882c-.1796269-.7234087-.29098-.9453841.0711972-1.6372356.8893636-1.6986733,2.3348911-1.6285079,4.0197205-1.3051538,3.0600196.5872912,5.7654287,2.5112075,8.9622536,2.7141368,1.2698561.0806558,2.5568236-.211958,3.8307211-.0980682,1.2860216.1149216,2.8239852.9269829,3.950329,1.0293074.5023361.0455731.2215885-.2604116-.0405859-.4407694-.853593-.5869043-4.1892009-1.561782-5.2493347-1.6416639-2.3981776-.1806587-3.2709457-.0688756-5.6473685-.8607729-2.9618224-.9869159-7.5788946-3.5238764-10.0480115-.4807963.1583021-2.1014364,1.6270461-3.8560013,2.5251804-5.7057107,1.6373646-3.3724533,2.309009-8.3209195,6.477745-9.60118,3.7639952-1.1560093,6.2297585,1.1863627,9.6569426,1.4334034,1.2601396.0908453,3.3591683-.251598,4.4497415.4313108,2.0832932,1.3044229,3.9920327,4.3976334,5.3079778,6.4640731,1.8076188,2.8383021,3.2922705,6.4045701,6.3706912,8.0812307,1.250767.6811891,2.6543329,1.0236753,4.0215262,1.3868844l-.3418843.8634815c-.9611627-.3319958-1.978389-.3951963-2.9613925-.6716445-2.7120301-.7625758-5.3692006-2.4408271-7.2735548-4.4984962-.8635675-.933045-1.7177624-2.4061314-2.5354988-3.2069713-1.0194619-.9984811-.0291496.8937489.152197,1.1876955.7959817,1.29002,1.9108892,2.4743191,2.8148706,3.6933138.0151337.0712832-.0975093.0641893-.1414486.046218-.3586518-.1461779-1.7571444-1.3407094-2.1566401-1.6721033-3.4411999-2.8540377-6.6781808-6.7272793-11.1008364-8.0408168-2.4255214-.7203991-5.1832107-.7804181-7.6396015-.1748976-.2638081.0650922-1.9547426.6049186-2.0264557.7023419-.1482416.2018115.2128178.2826393.4015593.26484,2.2278373-.2101092,3.6370783-.7141651,6.0462623-.4453267,7.265558.8109864,10.6357327,7.2268638,16.3386488,10.7468279,1.6099347.9937518,3.5460181,1.594414,5.3277548,2.2330395,1.5301388.5483821,3.1988026.939365,4.8085653.503067l.0573533,1.5339222c-.0790221.1143627-.7979594.2537477-.9778442.2724928-1.296856.1348276-1.6110525-.2722349-2.7163295-.6099488-1.958956-.5984266-4.6027124-1.2954802-6.6025122-1.7241684-4.7392598-1.0158935-8.5535573.7650264-13.0345981,1.8019007-3.3052545.7648544-6.6977858,1.0345527-9.5048316,3.1926545-2.4902697-1.1899742-4.8918007-2.944539-5.5925088-5.7664175ZM39.9014807,99.5538817l-1.5303967-.668549c.310757.1635473,1.2931586-.3868985,1.3879162-.3814813.2242541.0127261.1262289.853421.1424805,1.0500303ZM30.1384301,106.2047185c-4.0026951,3.5113653-6.5012195,8.2287844-11.2279252,10.9763272-1.8881886,1.0975381-5.3443503,2.7682656-7.4851688,1.9012157-1.5766577-.6385825-1.0999458-3.3753769-1.1938436-4.7400766-.2666457-3.8782289-1.726791-6.1022398-3.0790227-9.4587425-.3644989-.9046693-.1975122-1.2062257.3227092-2.0089574,1.1160253-1.7220188,2.9992267-2.3883321,4.863253-2.9848239,2.9986248-.959615,6.511194-1.8624785,9.587809-2.567142,4.8805364-1.1178741,5.875664-.6603372,10.4898127.5775747,1.2400186.3326837,2.5180435.535742,3.7526449.8896216.0243343.1422225-.1795409.118834-.2852189.1427384-.7430997.1679326-1.4696899.2501362-2.223194.4577088-5.1640356,1.4223111-8.8224387,5.2216469-13.5355584,7.5201655-1.012497.4937374-2.4529513.9349797-3.355041,1.5260974-.1693084.1110952-.4286452.2574881-.4114478.4967469.1933848.0238184.370776-.0158646.5562499-.0650062,2.0862167-.5526385,5.9067053-2.2075444,7.7247286-3.3773116,3.3190124-2.1357022,6.3535798-4.8466575,10.4540421-5.5291794,2.0786499-.3459687,2.4633557.1119121,4.1379526.9808968.4974348.258133.7996791.0589441.6760298.959486-3.7491194.0217977-7.0367466,1.905859-9.7688117,4.3026608ZM24.8284746,135.7314093c-3.136462-3.77814-6.7452506-7.3855528-4.5638463-12.698045,1.2559262-3.0586868,3.7455939-4.0950451,6.2276948-5.9271273,3.8499822-2.8417415,10.3234279-8.1070698,12.7214335-12.1626039.3014704-.5099029.4651897-1.131589.8516153-1.6317324.0618247-.0801829-.0008599-.1747256.2189229-.1201668-.0128981,1.0496434.4003555,2.1791687,1.3427731,2.7291416-.9787041,1.429534-1.5490559,3.0773889-2.4134833,4.5736488-1.1039012,1.9108462-2.6090177,3.9485233-4.0036409,5.6627602-5.2127042,6.4070637-11.1982596,9.8056141-10.3469023,19.2526624.0082548.0918341.0674998.2878845-.0345668.3214624ZM29.9015359,167.0295183c5.0611951-5.1664432,6.4986399-11.1649827,4.6893013-18.1863376-1.2136206-4.7096802-4.5331489-7.1769914-7.2646121-10.8242162-1.5166388-2.0251659-1.7804469-3.7952084-1.349824-6.3077487.1661269.3033622.2236522.648256.3804065.9605608,1.3947952,2.7784121,6.0598482,4.8524187,8.5601783,6.7530754,5.3141689,4.0395835,7.9992851,9.4349241,6.7606423,16.2193848-1.0591879,5.8015432-6.6316618,10.2312498-11.5358446,12.8696751-1.2994356.6990744-2.6726481,1.2700281-4.0217842,1.8633384,1.151366-1.2069136,2.6182183-2.1601655,3.7815365-3.3477321ZM30.0440164,186.551836l-2.1071975-1.0980541c-.9485227-.3480754-1.9611056-.6792973-2.9903701-.5052596-.4647598.0785921-.8333861.4248618-1.2193817.6006192-.1335378.0607068-.1431684.0732609-.2367222-.0515062-.8239275-2.4584545-2.0022934-4.7327248-1.7714183-7.4134556.1070538-1.2420823,1.0135288-3.9291762,1.9770992-4.7224923,1.5143171-1.2468976,4.4971204-2.2113278,6.3170353-3.0623412,5.7855497-2.7053232,12.1204703-7.7469992,13.1300437-14.4338647,1.1887703-7.8733141-2.203245-13.7451088-8.5509777-18.0300132-3.5951167-2.4267683-9.9212666-4.6761453-7.4058028-10.1774219,2.871622-6.2803189,10.5903315-10.4299658,13.5633322-16.7759787.4782597-1.0206658.7721633-2.1354013,1.2413084-3.1613122.0813437-.1779501.5453296-1.223939.6044027-1.2614294.1315601-.0833214.6580585.0920061.8946948.0894265.3423143-.0036974,1.3008114-.3130787,1.9817425-.5778327-.0049872.8057412-.0519362,1.5974666-.1695664,2.3892779.7970136,6.352333,1.5889539,12.7235831,1.4193015,19.1267344-.2553814,9.6379395-.754106,19.2705477-1.2433721,28.9006623-.1773052,3.4897826-.5553901,6.974406-1.6424378,10.3380456-.1957924.6059504-.5103329.8296886-1.105277.9020037-1.5062344.1832383-3.0095452.3974319-4.5077828.6386255-1.99808.3215054-3.8075046.9205769-5.4254361,1.8045233.0276018-.1158245.0409298-.2295853.0218407-.3621773-.1967383-.0410158-.2221904.0974233-.3052539.2202127-.1110952.1640632-.2266617.3352633-.34412.5099889-.8410389.516008-1.6314314,1.1073407-2.3569038,1.7957526.2302732.4778298.2740406,1.0557484-.0144458,1.6392563-.1970822.3984638-.3142825.8305485-.3821263,1.2787987-.4641579,1.0357995-.8026027,2.0723728-.8911693,3.0380069-.165181,1.79988.1024965,3.6891865.5804123,5.4954295-.0027516.0094586-.0042994.0188312-.0070509.0282897-.0159076.0553756-.0346528.1072258-.0539998.1583881.0428215.0289776.0895985.052968.1329359.0812577.2484165.8958986.5458455,1.7691826.866663,2.5978394ZM63.0471188,183.4951699c-3.0029242,1.2585918-6.160109,1.9660069-9.3816982,2.3284421-5.0030679.5627849-10.0185179.7369946-15.0061942-.1427384-2.6934569-.4751642-5.3907833-.99272-7.8369416-2.3274103-.390553-.2130758-.7600391-.4534955-1.1019235-.7272781-.4740464-2.3367829-.4903839-4.7406356.3479034-7.0077689.2523719-.6826508.6186765-1.3777698,1.005962-2.0675575,2.9087684-2.7293135,6.6812763-3.5681168,10.6380543-4.2396753-.4098141.8596981-.8105995,1.5458744-1.0743216,2.2811493-1.0167963,2.8342177-.0590731,5.1011791,2.6844283,6.3536658,2.2203564,1.0136148,4.5297954,1.0812006,6.8731133.4990686.4142854-.1029264.8224657-.244977,1.217576-.4075784,2.4374736-1.0032104,3.2933023-2.8631953,2.4272412-5.3556146-.3458397-.9954716-.7604691-1.9698763-1.1966811-2.9298352-.2307031-.5076673-.1141048-.6453325.4080943-.6246956,3.3373276.1319901,6.6744833.3829001,9.9170533,1.1763882,1.3015853.3184959,2.4409131,1.0211817,3.3313086,1.9378031-.0916621.5736193.0150477,1.1819774.1599358,1.8701314.390123,1.8537079.8238415,3.5377634,1.1959073,5.3760795-.9156756,1.9226694-2.5894987,3.1611403-4.6088175,4.0074244ZM75.7682083,176.3357199c-.7599532,1.9774432-1.8269659,3.3666492-3.5831645,4.5519801-.5633009.3801485-2.8281986,1.6139761-3.4153179,1.4463874-.1224455-.0349107-.1311302-.1299264-.152283-.2350885-.1838402-.91344-.0348247-1.8509563-.1001749-2.7709312-.1442002-2.0332487-1.0040703-3.7867817-1.3874863-5.6948334-.1494454-.7436156-.1608817-1.2347734-.0615667-1.5980685.0705093-.0847832.145748-.1640632.2296713-.231735-.0300955-.0306114-.0624266-.0589871-.092866-.0892545.3163462-.5436098.9842932-.7883289,1.8371124-1.5303107,2.5266422-2.1981718,3.8067307-5.7711898,3.592881-9.0889124l1.2830121,1.826106c2.9269977,4.6666008,3.9083673,8.0590461,1.8501824,13.4146607ZM70.0512763,150.9002479c4.5351266,4.0839528,7.0904025,9.263982,7.1757016,15.4577119l-1.0352835-2.1694521c-2.732925-5.2600831-5.6778939-8.0956765-11.0538875-10.5761437-3.6927979-1.7038325-6.2385292-1.9290325-8.6810761-5.5793528-1.6863771-2.5201931-2.3218211-3.9295201-1.6731351-7.0381224.4060306-1.9460579,1.5139732-3.8420714,2.4898397-5.5496443.0378343.2428703-.0657801.4589986-.0551177.7184644.3075755,7.4821592,8.0237054,10.4059754,12.8329586,14.7365389ZM61.2487865,123.6288673c-.3381869,6.3834173-6.4773151,11.5095756-7.5661686,17.7490936l-.3694002-1.8778272c-.2404197-2.7208868-.2957953-5.4959884-.1068818-8.2176921.4031931-5.8078633,2.8024885-11.3142991,1.9952425-17.2147274-.4248618-3.1052487-1.6566256-6.2161296-3.718852-8.5786655.654791.0156496,1.1793118.0095446,1.8356506.1253691,1.621457.2860788,1.7588642.7006221,2.6449603,1.9491534,2.9534817,4.162158,5.558372,10.9138576,5.2854492,16.0652961ZM78.3452388,98.9634949c1.0177422.443564,2.9392078,1.3308639,3.3995822,2.3429309,1.1121559,2.4449115-1.6313455,6.1893016-1.6469091,6.2377123-.085901.2666457-.6314886.952736-.814211,1.2918258-.6131733,1.1376081-1.0327899,2.8588959-2.0100322,3.6366914-.5502308.4378458-1.7369375.9751786-2.4131393,1.223853-.9444813.3473015-2.3208753.4678553-3.1109239.8130071-.4928775.2153545-.2491044.4404254.1810026.4477343.2610565.0045573.6333803-.0816877.913182-.119092,1.3459546-.1797988,2.8349056-.5392675,4.0962489-1.0233313.1362034,1.4902838-1.1020954,2.8301763-2.1551783,3.7300303-4.2929012,3.6680337-7.1072559,1.105019-9.8286586-2.7039474-2.5069511-3.5086997-3.149704-5.7926436-6.9921193-8.416752-1.7260172-1.1788388-3.083236-1.6386114-5.1166567-2.0614095-.1626014-.0338359-.88687.0668979-.7897906-.165267.0325891-.0778612.5762849-.635487.7088769-.8230246.1392989-.1971252.3232252-.7121444.4650177-.8259052.23827-.1913211,2.2912957-.4194446,2.7030875-.4175529,4.2824108.0195191,8.1634343,4.2156849,11.8496972,6.1492317.5838518.3062857,4.9875902,2.348864,5.2686818,2.2741413.4222822-.112213-.0469489-.542406-.1959644-.6473102-.7623608-.5365589-2.0607646-1.0585-2.931641-1.5666832-2.6844283-1.5662533-5.194647-3.4243465-7.8273111-4.9974787-2.7068709-1.6175016-5.4802098-2.4530373-8.6049776-1.3963l.1911491-1.4354671c3.0114369.7903496,6.0692208.1810026,8.9737758-.7398752,1.2546364-.3977759,2.329302-.8448223,3.4596872-1.5170687,1.1806016-.7019979,1.4760529-1.2910089,3.0226152-1.2922557,2.5887248-.0021067,6.8216931.9627965,9.2049089,2.0015625ZM87.5570267,90.5174213c-.251684-.1644931-.5062055-.3456678-.7881569-.4561611-3.1505639-1.2349884-8.9981961.9922041-12.0261425,2.2702289-6.8319255,2.8834882-13.2595401,7.7790724-21.0590774,7.2233384-.0094586-.8297746-.2815215-1.6303136-.5739633-2.3922445.2664737-.0193041.5465334.0277738.8118893-.0024936,2.3680821-.2701712,6.9793072-2.6394571,9.0751545-3.9409564.2505661-.1555505.7288259-.4272264.8309784-.7009661.0631145-.1693084-.0420476-.1303133-.1421365-.1435983-.6993323-.092737-2.3473593.9242313-3.1071404,1.2020123-.0901144.032976-.3116169.1260569-.2899482-.0505604,3.8439631-2.5502026,7.0481828-6.1501346,11.3240586-8.0573263.3468716-.1547336,2.6439284-.847144,2.646594-.9883346.0030095-.1594199-.2902921-.1277337-.4025052-.1200379-5.0074532.343862-11.7017995,7.5744233-16.1610856,10.1612994-1.5090719.8753907-3.2371528,1.1124999-4.8720237,1.6828947.0114363-.3283414-.3122188-.9797359-.1472957-1.2452638.0498725-.0800539.787727-.4201755.9814557-.5515207,4.4849962-3.0414894,6.8498108-8.4973218,10.8397798-12.0343113,1.8936058-1.6786383,4.1268603-2.9404976,6.1018958-4.4517192.5141163-.3933905,2.7619886-1.0725159,3.5163526-1.3390326,2.6378234-.9319702,5.9855554-2.2189807,8.6628468-2.8220075,1.2997796-.2927428,3.0631151-.6091319,3.9662366.628651,1.6466511,2.2569009-1.051793,5.8784156-.7121444,8.4156772-1.5960908-.2915389-3.1507358-.2495343-4.7101102.2187939-.7835996.2353034-3.6670878,1.5193904-4.1915226,2.0295513-.1028405.1000889-.2239961.1672017-.1896873.3357363.1268308.112256,2.2539774-.9232425,2.6298266-1.0540287,2.1070256-.7332112,4.3349489-.8365676,6.5532416-.7590933.4490241,2.7952656,2.091032,5.2772805,2.3004103,8.1298994l-.8677809-1.1884264ZM58.9923156,31.0417577c.714724-.0678008.8414688-.7096508.9542838-1.2849898-.0538279-.5657085-.3069736-.9557456-.8841184-1.0240622-.4835909-.0572244-1.0596179.7734961-1.0379491,1.4434209.0204649.6319615.4511738.9146868.9677837.8656312ZM58.9383157,29.3218456c.3171201.0533119.4253777.2939036.4485082.5523805.0274299.3068016-.0963054.6246096-.3959702.70131-.297515.0761415-.4491101-.2258449-.4974348-.4715957-.0709393-.3605865.1549486-.6002323.4448968-.7820948ZM56.3906927,41.3867682c.0050732,1.3455676.9964174,2.3165759,2.3925884,2.3433179,1.1456909.0219267,2.177277-1.0814586,2.1889712-2.3412542.0125541-1.3413973-1.0683885-2.4490819-2.4126234-2.4724274-1.1474106-.019949-2.1738375,1.1490873-2.1689362,2.4703637ZM60.5089544,41.3590374c-.0121242.9348937-.9353666,1.8885756-1.8224086,1.8826425-1.0614236-.0071369-1.8807078-.847015-1.8554276-1.9022905.0237324-.9919461.8952107-1.9881915,1.7178484-1.9638572,1.0462039.0310413,1.9731438.9690735,1.9599878,1.9835052ZM62.6120245,28.3537609c.0051592-.5192325.3533206-.7788273.8345039-.7397892.4345783.0352547.734157.3410245.6893578.7955518-.0420476.4274844-.3192697.701138-.8173925.7051794-.4125657-.0670699-.7109406-.3021583-.7064692-.760942ZM58.7550774,69.8751229c.9357966-3.2596814,2.1299841-6.4378471,2.9237301-9.7458961.9835194-4.0993445,1.429534-8.2440471,1.448967-12.446834.0027516-.5915906.0003439-1.1832242.0003439-1.9046981.6203103.3678524.6326064.8640404.681275,1.323684.4780877,4.5138018.0700794,8.9491835-1.1590188,13.3176673-1.0904872,3.8754343-2.5809859,7.6100219-3.95695,11.3852384-.0624266.1712861-.0607068.4106309-.3896931.4359971-.0455731-.8318813.2311331-1.5982405.4513458-2.3651586ZM56.7284497,63.7831586c-.5551321.0092436-1.2201556.9618076-1.2183499,1.7843593.0017197.787641.4820432,1.1997767,1.1991748,1.3125056.5530684.0869759,1.2530886-.9180403,1.2677064-1.7439025.0135859-.7568146-.5473933-1.3646138-1.2485313-1.3529625ZM56.7229465,66.4447573c-.4424891.072874-.8069021-.4843218-.7817939-.9748347.0286337-.5619681.2605406-1.1836111.8805069-1.2668036.4985527-.0669409.6494598.4579238.7043196.9175243-.05314.5752531-.2172892,1.2276365-.8030326,1.3241139ZM53.6063475,26.970058c-.0389521-1.0429794.6903037-1.8509993,1.8669499-2.0685034,1.4589415-.2696982,2.1628311.0373614,2.5953458,1.2855487-1.1120699-.9870448-2.2224201-1.1539456-3.1727485-.5522085-.6381956.4041389-1.0380351.959271-.7948639,1.7407639.2442891.7856203.833988,1.1584599,1.660839,1.1136177.7124023-.0386512,1.3552412-.244762,1.8465709-.8066011.1861619-.2128178.357448-.4601595.6844566-.549113-.2737826,1.1278915-1.7052943,2.0008746-2.9766981,1.8520741-.8953827-.1048182-1.6727052-1.0211817-1.7098516-2.0155784ZM28.7804374,60.081547c.0421336.2125599.1638912.4292471-.0181433.6937432-.582132-.4385767-.6819629-1.111812-.8546248-1.7224057-1.1080285-3.9194597-1.6684918-7.934021-1.9546566-11.9851697-.2301012-3.2574457-.4597725-6.517686-.4297631-9.7875998.0041274-.4487232.0391241-.8971024.1839262-1.3641838.3217634.4207344.377139.9018317.4250338,1.3933334.4673394,4.7938615.5939122,9.6150669,1.1736366,14.4003297.3414544,2.8183961.9247043,5.591606,1.4745912,8.3719528ZM42.7453289,26.8630472c.0093726-.423572.2690533-.694689.6792114-.694689.4122217,0,.687982.2853049.6798133.6961508-.0079108.3992377-.2466967.6698388-.6903897.681791-.4355242-.019777-.6781795-.2494483-.668635-.6832527ZM45.3600218,73.8707671c.0108344-.4605034.1924389-.8939209.687896-.9467169.4249478-.0452292.740864.231735.8275389.7133482-.125971.4297201-.2289834.9441803-.7908225.9874748-.4553872.0350827-.7357908-.2810915-.7246125-.754106ZM45.9963256,33.8919689c.0099745-.4918457.3426582-.8025167.8289147-.7934021.489954.0091146.7620168.3301041.7911664.8314513-.0428215.5077963-.3246869.7926282-.826851.7798161-.5013042-.0127691-.8031186-.3289863-.7932301-.8178654ZM29.1817387,25.9002507c-.6093899.0042994-1.283528.8329561-1.3181808,1.6201672-.0342228.7780964.5174698,1.3201585,1.3767379,1.3527046.7389723.0280318,1.3572189-.5904728,1.3821551-1.382757.0258821-.8225947-.6744821-1.5955749-1.4407123-1.5901147ZM29.3250791,28.472294c-.5233169.0281178-1.0047582-.2685374-.9850671-.8725101.0171114-.5241768.212044-1.158073.7885008-1.2163722.5540143-.0560205.939322.3940355.9848952,1.0209667-.053226.5118376-.191923,1.0359284-.7883289,1.0679156ZM54.6412871,37.4440921c1.0447421.0121242,2.1820062-1.3282413,2.1595636-2.5453013-.0213248-1.1532577-.9696755-2.0826483-2.084669-2.0428363-1.1061368.039511-2.2269774,1.2511539-2.2027291,2.3812811.0236464,1.105191,1.0740637,2.1946033,2.1278344,2.2068565ZM54.5930484,33.4608301c1.0071658-.0221417,1.8193131.6560808,1.8311793,1.5292359.0126401.9238874-.900026,1.9007857-1.7714183,1.8961424-.9301214-.0049872-1.6160398-.6826938-1.6254124-1.6060653-.0092866-.9233715.7461952-1.8012558,1.5656514-1.8193131ZM40.8831943,86.3037571c-3.4627827-3.7802037-5.9267403-8.1432703-7.8770116-12.8327866-.2763622-.6645506-.4243459-1.382972-.6229759-2.0789508-.053226-.1866778-.1076557-.383717.0416177-.60853.5663104.1548626.635272.7039756.8301185,1.1199377,2.0109781,4.2937181,4.3917863,8.3511009,7.5727896,11.897334.6385395.7119294,1.3414833,1.3658606,1.9944686,2.0654079,2.5648204,2.7478437,6.6359611,1.9624384,8.6909646-.1566253,1.9615356-2.0226723,2.9664657-4.5672428,3.9433641-7.1310313.2877125-.7550949.4084383-1.5938981,1.118519-2.2724216.450142.8292587.1807447,1.5583425.0238184,2.2341144-.6184185,2.6621577-1.6848294,5.1427968-3.3552129,7.3208906-3.0488412,3.9755662-8.9901993,4.1219161-12.36046.4426611ZM35.2184564,43.0193605c-.0278598-.8026457-.853851-1.4466024-1.8386601-1.4335324-.9156756.0121242-1.8809657.9901404-1.8383162,1.8625645.0423056.8645133.9071629,1.5606211,1.8834594,1.5160369.8434465-.0385652,1.8229245-1.1008056,1.793517-1.945069ZM31.9994469,43.4003689c.0038694-.6700537.7836856-1.4374018,1.4246327-1.3816822.6572847.0570524,1.2695121.2656139,1.3523176,1.0477087.0680157.6427529-.8177364,1.4448826-1.5641896,1.4330164-.6012211-.1025825-1.217576-.2615725-1.2127607-1.0990429ZM48.4092069,59.4412877c.5307118-.0353407.8697586-.310843.8967585-.8507554.0269139-.5389236-.2754164-.8920292-.8133511-.9258651-.5847976-.0368454-.9497265.2874546-.9557456.8815818-.0054172.5434379.3335436.8281408.8723382.8950387ZM48.3684491,58.0984287c.3076615-.026699.456505.1805297.5166099.4600305-.0502164.2432142-.1645791.4311818-.4309669.4487662-.3141105.0206369-.4932215-.1615266-.50311-.4573649-.0085127-.2561553.1705122-.429978.4174669-.4514318ZM48.5948529,51.492649c-.0124681-.482774.2814355-.8024307.7948639-.8099546.5117087-.0075239.8117173.2951504.8233256.7836426.0117802.4930495-.2952794.7733671-.7914244.8315803-.5010463-.039726-.8144689-.3268366-.8267651-.8052683ZM53.7305128,56.0604937c.6565108-.0269999,1.6062373-1.1544185,1.601336-1.9009577-.0046433-.7195393-.5942562-1.1432832-1.5567087-1.1189489-.8433605.0214108-1.5475941.7638226-1.5248935,1.607699.0210668.780762.7158418,1.4436358,1.4802663,1.4122076ZM53.8646525,53.3600288c.5119666.1352576,1.0733758.2403337,1.0023505.8964145-.0723151.6679471-.4954571,1.2094072-1.1699392,1.2554103-.4675113.0319012-1.0106913-.257789-.9877327-.8827426.026484-.721173.5404283-1.0696783,1.1553214-1.2690822ZM50.1808832,46.0074519c-.0173694-.4543123.2850469-.6999772.7200552-.7753878.4350083.052796.7753448.2242971.793746.7061683.0195191.5108488-.2662158.7936601-.7713894.8061282-.4823011.0119522-.7260743-.3068016-.7424118-.7369086ZM49.4630637,71.2181539c.0590731-.7115425-.5876352-1.3340024-1.3112158-1.2891172-.7781824.0483247-1.1650379.509688-1.2360632,1.250724.0683597.7961107.5171258,1.2533896,1.263837,1.2631061.7551379.0098885,1.2203276-.4652757,1.283442-1.2247129ZM47.3789106,71.1663898c.0214108-.4864285.3339735-.8182953.8345039-.7965836.4878043.0211528.7646824.3436471.7982174.8452093-.0583852.5088281-.3680244.7980884-.8527331.7906935-.4985527-.0076098-.8018288-.3436901-.7799881-.8393192ZM46.3606525,80.6586672c-.601823.0271719-.9938378.4181548-.9721691,1.0267708.0212388.5961909.3843619.9777582,1.0247931.9572933.635444-.0202929.9406978-.3910689.9672678-1.0199779-.0655221-.6094329-.3999256-.9920321-1.0198919-.9640863ZM46.4474994,82.2031658c-.3867695.0412308-.6314886-.1995328-.6393994-.5736193-.0070509-.3301041.225114-.5467484.5566799-.5643327.3404226-.0180143.5393105.1803147.5814441.5069364.0089426.3646709-.1699963.5959329-.4987246.6310156Z"/>
  </g>
</svg>